{
  "track_name": "16 - Sound Test 16",
  "duration_sec": 71.876,
  "sample_rate": 44100,
  "note_count": 2022,
  "unique_pitches": 39,
  "pitch_range": 47,
  "avg_note_duration": 0.1455,
  "reconstruction_stats": {
    "notes_reconstructed": 2022,
    "keyon_events": 2022,
    "keyoff_events": 2019,
    "orphan_keyons": 3,
    "unique_pitches": 39,
    "pitch_range": 47,
    "avg_duration_sec": 0.1455
  },
  "metadata": {
    "source": "D\\Dyna Brothers\\16 - Sound Test 16.vgz"
  },
  "notes": [
    {
      "channel": 1,
      "note": 79,
      "start": 0.0,
      "duration": 0.0753,
      "velocity": 105,
      "chip": "ym2612"
    },
    {
      "channel": 1,
      "note": 78,
      "start": 0.1077,
      "duration": 0.079,
      "velocity": 105,
      "chip": "ym2612"
    },
    {
      "channel": 0,
      "note": 79,
      "start": 0.1424,
      "duration": 0.0757,
      "velocity": 105,
      "chip": "ym2612"
    },
    {
      "channel": 1,
      "note": 76,
      "start": 0.2189,
      "duration": 0.0789,
      "velocity": 105,
      "chip": "ym2612"
    },
    {
      "channel": 0,
      "note": 78,
      "start": 0.2663,
      "duration": 0.0787,
      "velocity": 105,
      "chip": "ym2612"
    },
    {
      "channel": 1,
      "note": 74,
      "start": 0.3459,
      "duration": 0.079,
      "velocity": 105,
      "chip": "ym2612"
    },
    {
      "channel": 0,
      "note": 76,
      "start": 0.3775,
      "duration": 0.0787,
      "velocity": 105,
      "chip": "ym2612"
    },
    {
      "channel": 1,
      "note": 72,
      "start": 0.4571,
      "duration": 0.7299,
      "velocity": 105,
      "chip": "ym2612"
    },
    {
      "channel": 2,
      "note": 55,
      "start": 0.4581,
      "duration": 0.7291,
      "velocity": 93,
      "chip": "ym2612"
    },
    {
      "channel": 4,
      "note": 60,
      "start": 0.459,
      "duration": 0.5389,
      "velocity": 97,
      "chip": "ym2612"
    },
    {
      "channel": 5,
      "note": 54,
      "start": 0.4627,
      "duration": 0.1221,
      "velocity": 117,
      "chip": "ym2612"
    },
    {
      "channel": 0,
      "note": 74,
      "start": 0.5044,
      "duration": 0.0787,
      "velocity": 105,
      "chip": "ym2612"
    },
    {
      "channel": 0,
      "note": 72,
      "start": 0.6157,
      "duration": 0.7296,
      "velocity": 105,
      "chip": "ym2612"
    },
    {
      "channel": 3,
      "note": 55,
      "start": 0.6176,
      "duration": 0.7288,
      "velocity": 93,
      "chip": "ym2612"
    },
    {
      "channel": 4,
      "note": 60,
      "start": 1.1732,
      "duration": 0.0787,
      "velocity": 97,
      "chip": "ym2612"
    },
    {
      "channel": 4,
      "note": 60,
      "start": 1.3001,
      "duration": 0.0788,
      "velocity": 97,
      "chip": "ym2612"
    },
    {
      "channel": 5,
      "note": 54,
      "start": 1.3011,
      "duration": 0.114,
      "velocity": 122,
      "chip": "ym2612"
    },
    {
      "channel": 1,
      "note": 74,
      "start": 1.4099,
      "duration": 0.7297,
      "velocity": 105,
      "chip": "ym2612"
    },
    {
      "channel": 2,
      "note": 54,
      "start": 1.4107,
      "duration": 0.729,
      "velocity": 93,
      "chip": "ym2612"
    },
    {
      "channel": 4,
      "note": 62,
      "start": 1.412,
      "duration": 0.3478,
      "velocity": 97,
      "chip": "ym2612"
    },
    {
      "channel": 5,
      "note": 54,
      "start": 1.4158,
      "duration": 0.1223,
      "velocity": 122,
      "chip": "ym2612"
    },
    {
      "channel": 0,
      "note": 74,
      "start": 1.5681,
      "duration": 0.7297,
      "velocity": 105,
      "chip": "ym2612"
    },
    {
      "channel": 3,
      "note": 54,
      "start": 1.57,
      "duration": 0.7289,
      "velocity": 93,
      "chip": "ym2612"
    },
    {
      "channel": 5,
      "note": 49,
      "start": 1.6527,
      "duration": 0.1235,
      "velocity": 122,
      "chip": "ym2612"
    },
    {
      "channel": 4,
      "note": 50,
      "start": 1.8875,
      "duration": 0.3486,
      "velocity": 97,
      "chip": "ym2612"
    },
    {
      "channel": 5,
      "note": 42,
      "start": 1.8913,
      "duration": 0.1259,
      "velocity": 127,
      "chip": "ym2612"
    },
    {
      "channel": 5,
      "note": 45,
      "start": 2.0179,
      "duration": 0.1076,
      "velocity": 127,
      "chip": "ym2612"
    },
    {
      "channel": 1,
      "note": 76,
      "start": 2.3624,
      "duration": 0.7297,
      "velocity": 105,
      "chip": "ym2612"
    },
    {
      "channel": 2,
      "note": 52,
      "start": 2.3632,
      "duration": 0.729,
      "velocity": 93,
      "chip": "ym2612"
    },
    {
      "channel": 4,
      "note": 57,
      "start": 2.3644,
      "duration": 0.348,
      "velocity": 97,
      "chip": "ym2612"
    },
    {
      "channel": 5,
      "note": 54,
      "start": 2.3682,
      "duration": 0.1224,
      "velocity": 117,
      "chip": "ym2612"
    },
    {
      "channel": 0,
      "note": 76,
      "start": 2.5207,
      "duration": 0.7296,
      "velocity": 105,
      "chip": "ym2612"
    },
    {
      "channel": 3,
      "note": 52,
      "start": 2.5224,
      "duration": 0.729,
      "velocity": 93,
      "chip": "ym2612"
    },
    {
      "channel": 4,
      "note": 57,
      "start": 2.84,
      "duration": 0.3487,
      "velocity": 97,
      "chip": "ym2612"
    },
    {
      "channel": 1,
      "note": 78,
      "start": 3.3149,
      "duration": 0.7297,
      "velocity": 105,
      "chip": "ym2612"
    },
    {
      "channel": 2,
      "note": 50,
      "start": 3.3157,
      "duration": 0.7291,
      "velocity": 93,
      "chip": "ym2612"
    },
    {
      "channel": 4,
      "note": 59,
      "start": 3.3171,
      "duration": 0.2685,
      "velocity": 97,
      "chip": "ym2612"
    },
    {
      "channel": 5,
      "note": 45,
      "start": 3.3209,
      "duration": 0.1223,
      "velocity": 127,
      "chip": "ym2612"
    },
    {
      "channel": 0,
      "note": 78,
      "start": 3.4732,
      "duration": 0.7297,
      "velocity": 105,
      "chip": "ym2612"
    },
    {
      "channel": 3,
      "note": 50,
      "start": 3.475,
      "duration": 0.729,
      "velocity": 93,
      "chip": "ym2612"
    },
    {
      "channel": 4,
      "note": 54,
      "start": 3.6814,
      "duration": 0.4598,
      "velocity": 97,
      "chip": "ym2612"
    },
    {
      "channel": 5,
      "note": 54,
      "start": 4.034,
      "duration": 0.1235,
      "velocity": 117,
      "chip": "ym2612"
    },
    {
      "channel": 5,
      "note": 54,
      "start": 4.1583,
      "duration": 0.1116,
      "velocity": 117,
      "chip": "ym2612"
    },
    {
      "channel": 1,
      "note": 79,
      "start": 4.2674,
      "duration": 0.7297,
      "velocity": 105,
      "chip": "ym2612"
    },
    {
      "channel": 2,
      "note": 52,
      "start": 4.2683,
      "duration": 0.729,
      "velocity": 93,
      "chip": "ym2612"
    },
    {
      "channel": 4,
      "note": 57,
      "start": 4.2696,
      "duration": 0.5384,
      "velocity": 97,
      "chip": "ym2612"
    },
    {
      "channel": 5,
      "note": 54,
      "start": 4.2706,
      "duration": 0.1251,
      "velocity": 117,
      "chip": "ym2612"
    },
    {
      "channel": 0,
      "note": 79,
      "start": 4.4257,
      "duration": 0.7297,
      "velocity": 105,
      "chip": "ym2612"
    },
    {
      "channel": 3,
      "note": 52,
      "start": 4.4276,
      "duration": 0.7289,
      "velocity": 93,
      "chip": "ym2612"
    },
    {
      "channel": 4,
      "note": 57,
      "start": 4.9833,
      "duration": 0.1734,
      "velocity": 97,
      "chip": "ym2612"
    },
    {
      "channel": 5,
      "note": 54,
      "start": 4.9843,
      "duration": 0.1258,
      "velocity": 117,
      "chip": "ym2612"
    },
    {
      "channel": 1,
      "note": 81,
      "start": 5.2199,
      "duration": 0.7297,
      "velocity": 105,
      "chip": "ym2612"
    },
    {
      "channel": 2,
      "note": 53,
      "start": 5.2208,
      "duration": 0.729,
      "velocity": 93,
      "chip": "ym2612"
    },
    {
      "channel": 4,
      "note": 53,
      "start": 5.2221,
      "duration": 0.5384,
      "velocity": 97,
      "chip": "ym2612"
    },
    {
      "channel": 5,
      "note": 45,
      "start": 5.2259,
      "duration": 0.1223,
      "velocity": 127,
      "chip": "ym2612"
    },
    {
      "channel": 0,
      "note": 81,
      "start": 5.3782,
      "duration": 0.7297,
      "velocity": 105,
      "chip": "ym2612"
    },
    {
      "channel": 3,
      "note": 53,
      "start": 5.3801,
      "duration": 0.7289,
      "velocity": 93,
      "chip": "ym2612"
    },
    {
      "channel": 4,
      "note": 53,
      "start": 5.9357,
      "duration": 0.1734,
      "velocity": 97,
      "chip": "ym2612"
    },
    {
      "channel": 5,
      "note": 54,
      "start": 5.9395,
      "duration": 0.1231,
      "velocity": 117,
      "chip": "ym2612"
    },
    {
      "channel": 1,
      "note": 83,
      "start": 6.1724,
      "duration": 0.7297,
      "velocity": 105,
      "chip": "ym2612"
    },
    {
      "channel": 2,
      "note": 56,
      "start": 6.1733,
      "duration": 0.729,
      "velocity": 93,
      "chip": "ym2612"
    },
    {
      "channel": 4,
      "note": 52,
      "start": 6.1746,
      "duration": 0.3478,
      "velocity": 97,
      "chip": "ym2612"
    },
    {
      "channel": 5,
      "note": 54,
      "start": 6.1756,
      "duration": 0.1251,
      "velocity": 117,
      "chip": "ym2612"
    },
    {
      "channel": 0,
      "note": 83,
      "start": 6.3308,
      "duration": 0.7296,
      "velocity": 105,
      "chip": "ym2612"
    },
    {
      "channel": 3,
      "note": 56,
      "start": 6.3326,
      "duration": 0.729,
      "velocity": 93,
      "chip": "ym2612"
    },
    {
      "channel": 4,
      "note": 52,
      "start": 6.6501,
      "duration": 0.3487,
      "velocity": 97,
      "chip": "ym2612"
    },
    {
      "channel": 1,
      "note": 85,
      "start": 7.125,
      "duration": 0.7297,
      "velocity": 105,
      "chip": "ym2612"
    },
    {
      "channel": 2,
      "note": 54,
      "start": 7.1258,
      "duration": 0.729,
      "velocity": 93,
      "chip": "ym2612"
    },
    {
      "channel": 4,
      "note": 54,
      "start": 7.1271,
      "duration": 0.3479,
      "velocity": 97,
      "chip": "ym2612"
    },
    {
      "channel": 5,
      "note": 45,
      "start": 7.1308,
      "duration": 0.1252,
      "velocity": 122,
      "chip": "ym2612"
    },
    {
      "channel": 5,
      "note": 54,
      "start": 7.2567,
      "duration": 0.1104,
      "velocity": 122,
      "chip": "ym2612"
    },
    {
      "channel": 0,
      "note": 85,
      "start": 7.2833,
      "duration": 0.7296,
      "velocity": 105,
      "chip": "ym2612"
    },
    {
      "channel": 3,
      "note": 54,
      "start": 7.2851,
      "duration": 0.729,
      "velocity": 93,
      "chip": "ym2612"
    },
    {
      "channel": 5,
      "note": 54,
      "start": 7.3679,
      "duration": 0.1235,
      "velocity": 122,
      "chip": "ym2612"
    },
    {
      "channel": 4,
      "note": 54,
      "start": 7.6027,
      "duration": 0.3487,
      "velocity": 97,
      "chip": "ym2612"
    },
    {
      "channel": 5,
      "note": 49,
      "start": 7.6064,
      "duration": 0.1232,
      "velocity": 122,
      "chip": "ym2612"
    },
    {
      "channel": 5,
      "note": 42,
      "start": 7.8441,
      "duration": 0.1235,
      "velocity": 122,
      "chip": "ym2612"
    },
    {
      "channel": 1,
      "note": 85,
      "start": 8.0777,
      "duration": 0.0784,
      "velocity": 105,
      "chip": "ym2612"
    },
    {
      "channel": 2,
      "note": 73,
      "start": 8.0788,
      "duration": 0.0775,
      "velocity": 93,
      "chip": "ym2612"
    },
    {
      "channel": 4,
      "note": 54,
      "start": 8.0801,
      "duration": 0.1729,
      "velocity": 97,
      "chip": "ym2612"
    },
    {
      "channel": 5,
      "note": 54,
      "start": 8.0838,
      "duration": 0.1227,
      "velocity": 117,
      "chip": "ym2612"
    },
    {
      "channel": 1,
      "note": 82,
      "start": 8.2045,
      "duration": 0.0787,
      "velocity": 105,
      "chip": "ym2612"
    },
    {
      "channel": 2,
      "note": 73,
      "start": 8.2054,
      "duration": 0.0779,
      "velocity": 93,
      "chip": "ym2612"
    },
    {
      "channel": 0,
      "note": 85,
      "start": 8.236,
      "duration": 0.0784,
      "velocity": 105,
      "chip": "ym2612"
    },
    {
      "channel": 3,
      "note": 73,
      "start": 8.2381,
      "duration": 0.0779,
      "velocity": 93,
      "chip": "ym2612"
    },
    {
      "channel": 1,
      "note": 78,
      "start": 8.3153,
      "duration": 0.079,
      "velocity": 105,
      "chip": "ym2612"
    },
    {
      "channel": 4,
      "note": 66,
      "start": 8.3167,
      "duration": 0.1744,
      "velocity": 97,
      "chip": "ym2612"
    },
    {
      "channel": 5,
      "note": 57,
      "start": 8.3205,
      "duration": 0.1235,
      "velocity": 115,
      "chip": "ym2612"
    },
    {
      "channel": 0,
      "note": 82,
      "start": 8.3628,
      "duration": 0.0787,
      "velocity": 105,
      "chip": "ym2612"
    },
    {
      "channel": 3,
      "note": 73,
      "start": 8.3647,
      "duration": 0.0787,
      "velocity": 93,
      "chip": "ym2612"
    },
    {
      "channel": 1,
      "note": 73,
      "start": 8.4423,
      "duration": 0.079,
      "velocity": 105,
      "chip": "ym2612"
    },
    {
      "channel": 2,
      "note": 73,
      "start": 8.4432,
      "duration": 0.0783,
      "velocity": 93,
      "chip": "ym2612"
    },
    {
      "channel": 5,
      "note": 57,
      "start": 8.4448,
      "duration": 0.114,
      "velocity": 127,
      "chip": "ym2612"
    },
    {
      "channel": 0,
      "note": 78,
      "start": 8.4739,
      "duration": 0.0787,
      "velocity": 105,
      "chip": "ym2612"
    },
    {
      "channel": 1,
      "note": 82,
      "start": 8.5534,
      "duration": 0.079,
      "velocity": 105,
      "chip": "ym2612"
    },
    {
      "channel": 2,
      "note": 85,
      "start": 8.5544,
      "duration": 0.1739,
      "velocity": 93,
      "chip": "ym2612"
    },
    {
      "channel": 4,
      "note": 54,
      "start": 8.5557,
      "duration": 0.1733,
      "velocity": 97,
      "chip": "ym2612"
    },
    {
      "channel": 5,
      "note": 45,
      "start": 8.5595,
      "duration": 0.1223,
      "velocity": 127,
      "chip": "ym2612"
    },
    {
      "channel": 0,
      "note": 73,
      "start": 8.6009,
      "duration": 0.0787,
      "velocity": 105,
      "chip": "ym2612"
    },
    {
      "channel": 3,
      "note": 73,
      "start": 8.6027,
      "duration": 0.0784,
      "velocity": 93,
      "chip": "ym2612"
    },
    {
      "channel": 1,
      "note": 78,
      "start": 8.6805,
      "duration": 0.0789,
      "velocity": 105,
      "chip": "ym2612"
    },
    {
      "channel": 0,
      "note": 82,
      "start": 8.7121,
      "duration": 0.0786,
      "velocity": 105,
      "chip": "ym2612"
    },
    {
      "channel": 3,
      "note": 85,
      "start": 8.714,
      "duration": 0.1735,
      "velocity": 93,
      "chip": "ym2612"
    },
    {
      "channel": 1,
      "note": 73,
      "start": 8.7916,
      "duration": 0.0789,
      "velocity": 105,
      "chip": "ym2612"
    },
    {
      "channel": 2,
      "note": 73,
      "start": 8.7926,
      "duration": 0.0782,
      "velocity": 93,
      "chip": "ym2612"
    },
    {
      "channel": 4,
      "note": 66,
      "start": 8.7938,
      "duration": 0.0775,
      "velocity": 97,
      "chip": "ym2612"
    },
    {
      "channel": 5,
      "note": 57,
      "start": 8.7976,
      "duration": 0.1234,
      "velocity": 115,
      "chip": "ym2612"
    },
    {
      "channel": 0,
      "note": 78,
      "start": 8.839,
      "duration": 0.0786,
      "velocity": 105,
      "chip": "ym2612"
    },
    {
      "channel": 1,
      "note": 70,
      "start": 8.9186,
      "duration": 0.079,
      "velocity": 105,
      "chip": "ym2612"
    },
    {
      "channel": 2,
      "note": 73,
      "start": 8.9195,
      "duration": 0.0783,
      "velocity": 93,
      "chip": "ym2612"
    },
    {
      "channel": 4,
      "note": 66,
      "start": 8.9207,
      "duration": 0.0777,
      "velocity": 97,
      "chip": "ym2612"
    },
    {
      "channel": 5,
      "note": 57,
      "start": 8.9217,
      "duration": 0.1124,
      "velocity": 117,
      "chip": "ym2612"
    },
    {
      "channel": 0,
      "note": 73,
      "start": 8.9502,
      "duration": 0.0786,
      "velocity": 105,
      "chip": "ym2612"
    },
    {
      "channel": 3,
      "note": 73,
      "start": 8.9521,
      "duration": 0.0781,
      "velocity": 93,
      "chip": "ym2612"
    },
    {
      "channel": 1,
      "note": 78,
      "start": 9.0297,
      "duration": 0.079,
      "velocity": 105,
      "chip": "ym2612"
    },
    {
      "channel": 4,
      "note": 54,
      "start": 9.031,
      "duration": 0.1737,
      "velocity": 97,
      "chip": "ym2612"
    },
    {
      "channel": 5,
      "note": 54,
      "start": 9.0347,
      "duration": 0.1228,
      "velocity": 117,
      "chip": "ym2612"
    },
    {
      "channel": 0,
      "note": 70,
      "start": 9.0772,
      "duration": 0.0787,
      "velocity": 105,
      "chip": "ym2612"
    },
    {
      "channel": 3,
      "note": 73,
      "start": 9.0786,
      "duration": 0.0783,
      "velocity": 93,
      "chip": "ym2612"
    },
    {
      "channel": 1,
      "note": 73,
      "start": 9.1567,
      "duration": 0.079,
      "velocity": 105,
      "chip": "ym2612"
    },
    {
      "channel": 0,
      "note": 78,
      "start": 9.1883,
      "duration": 0.0787,
      "velocity": 105,
      "chip": "ym2612"
    },
    {
      "channel": 1,
      "note": 70,
      "start": 9.2679,
      "duration": 0.079,
      "velocity": 105,
      "chip": "ym2612"
    },
    {
      "channel": 4,
      "note": 66,
      "start": 9.2688,
      "duration": 0.1741,
      "velocity": 97,
      "chip": "ym2612"
    },
    {
      "channel": 5,
      "note": 57,
      "start": 9.2725,
      "duration": 0.1232,
      "velocity": 115,
      "chip": "ym2612"
    },
    {
      "channel": 0,
      "note": 73,
      "start": 9.3153,
      "duration": 0.0786,
      "velocity": 105,
      "chip": "ym2612"
    },
    {
      "channel": 1,
      "note": 66,
      "start": 9.3949,
      "duration": 0.0789,
      "velocity": 105,
      "chip": "ym2612"
    },
    {
      "channel": 5,
      "note": 57,
      "start": 9.3964,
      "duration": 0.1136,
      "velocity": 127,
      "chip": "ym2612"
    },
    {
      "channel": 0,
      "note": 70,
      "start": 9.4265,
      "duration": 0.0786,
      "velocity": 105,
      "chip": "ym2612"
    },
    {
      "channel": 1,
      "note": 73,
      "start": 9.506,
      "duration": 0.079,
      "velocity": 105,
      "chip": "ym2612"
    },
    {
      "channel": 4,
      "note": 54,
      "start": 9.5069,
      "duration": 0.1741,
      "velocity": 97,
      "chip": "ym2612"
    },
    {
      "channel": 5,
      "note": 45,
      "start": 9.5107,
      "duration": 0.1231,
      "velocity": 127,
      "chip": "ym2612"
    },
    {
      "channel": 0,
      "note": 66,
      "start": 9.5534,
      "duration": 0.0787,
      "velocity": 105,
      "chip": "ym2612"
    },
    {
      "channel": 1,
      "note": 70,
      "start": 9.6329,
      "duration": 0.079,
      "velocity": 105,
      "chip": "ym2612"
    },
    {
      "channel": 0,
      "note": 73,
      "start": 9.6646,
      "duration": 0.0787,
      "velocity": 105,
      "chip": "ym2612"
    },
    {
      "channel": 1,
      "note": 66,
      "start": 9.7441,
      "duration": 0.079,
      "velocity": 105,
      "chip": "ym2612"
    },
    {
      "channel": 2,
      "note": 73,
      "start": 9.745,
      "duration": 0.0783,
      "velocity": 93,
      "chip": "ym2612"
    },
    {
      "channel": 4,
      "note": 66,
      "start": 9.7459,
      "duration": 0.0776,
      "velocity": 97,
      "chip": "ym2612"
    },
    {
      "channel": 5,
      "note": 57,
      "start": 9.7498,
      "duration": 0.1233,
      "velocity": 115,
      "chip": "ym2612"
    },
    {
      "channel": 0,
      "note": 70,
      "start": 9.7915,
      "duration": 0.0787,
      "velocity": 105,
      "chip": "ym2612"
    },
    {
      "channel": 1,
      "note": 61,
      "start": 9.8711,
      "duration": 0.079,
      "velocity": 105,
      "chip": "ym2612"
    },
    {
      "channel": 2,
      "note": 85,
      "start": 9.872,
      "duration": 0.0783,
      "velocity": 93,
      "chip": "ym2612"
    },
    {
      "channel": 4,
      "note": 66,
      "start": 9.8728,
      "duration": 0.0782,
      "velocity": 97,
      "chip": "ym2612"
    },
    {
      "channel": 5,
      "note": 57,
      "start": 9.8738,
      "duration": 0.1134,
      "velocity": 117,
      "chip": "ym2612"
    },
    {
      "channel": 0,
      "note": 66,
      "start": 9.9027,
      "duration": 0.0787,
      "velocity": 105,
      "chip": "ym2612"
    },
    {
      "channel": 3,
      "note": 73,
      "start": 9.9046,
      "duration": 0.0787,
      "velocity": 93,
      "chip": "ym2612"
    },
    {
      "channel": 1,
      "note": 87,
      "start": 9.9822,
      "duration": 0.079,
      "velocity": 105,
      "chip": "ym2612"
    },
    {
      "channel": 2,
      "note": 75,
      "start": 9.9831,
      "duration": 0.0783,
      "velocity": 93,
      "chip": "ym2612"
    },
    {
      "channel": 4,
      "note": 51,
      "start": 9.9841,
      "duration": 0.174,
      "velocity": 97,
      "chip": "ym2612"
    },
    {
      "channel": 5,
      "note": 54,
      "start": 9.9878,
      "duration": 0.1231,
      "velocity": 117,
      "chip": "ym2612"
    },
    {
      "channel": 0,
      "note": 61,
      "start": 10.0297,
      "duration": 0.0787,
      "velocity": 105,
      "chip": "ym2612"
    },
    {
      "channel": 3,
      "note": 85,
      "start": 10.0315,
      "duration": 0.0788,
      "velocity": 93,
      "chip": "ym2612"
    },
    {
      "channel": 1,
      "note": 82,
      "start": 10.1093,
      "duration": 0.079,
      "velocity": 105,
      "chip": "ym2612"
    },
    {
      "channel": 2,
      "note": 75,
      "start": 10.1101,
      "duration": 0.0783,
      "velocity": 93,
      "chip": "ym2612"
    },
    {
      "channel": 0,
      "note": 87,
      "start": 10.1408,
      "duration": 0.0787,
      "velocity": 105,
      "chip": "ym2612"
    },
    {
      "channel": 3,
      "note": 75,
      "start": 10.1427,
      "duration": 0.0783,
      "velocity": 93,
      "chip": "ym2612"
    },
    {
      "channel": 1,
      "note": 78,
      "start": 10.2204,
      "duration": 0.079,
      "velocity": 105,
      "chip": "ym2612"
    },
    {
      "channel": 4,
      "note": 63,
      "start": 10.2217,
      "duration": 0.1744,
      "velocity": 97,
      "chip": "ym2612"
    },
    {
      "channel": 5,
      "note": 57,
      "start": 10.2255,
      "duration": 0.1235,
      "velocity": 115,
      "chip": "ym2612"
    },
    {
      "channel": 0,
      "note": 82,
      "start": 10.2679,
      "duration": 0.0786,
      "velocity": 105,
      "chip": "ym2612"
    },
    {
      "channel": 3,
      "note": 75,
      "start": 10.2697,
      "duration": 0.0787,
      "velocity": 93,
      "chip": "ym2612"
    },
    {
      "channel": 1,
      "note": 75,
      "start": 10.3473,
      "duration": 0.079,
      "velocity": 105,
      "chip": "ym2612"
    },
    {
      "channel": 2,
      "note": 75,
      "start": 10.3482,
      "duration": 0.0783,
      "velocity": 93,
      "chip": "ym2612"
    },
    {
      "channel": 5,
      "note": 57,
      "start": 10.3498,
      "duration": 0.1141,
      "velocity": 127,
      "chip": "ym2612"
    },
    {
      "channel": 0,
      "note": 78,
      "start": 10.3789,
      "duration": 0.0787,
      "velocity": 105,
      "chip": "ym2612"
    },
    {
      "channel": 1,
      "note": 82,
      "start": 10.4585,
      "duration": 0.0789,
      "velocity": 105,
      "chip": "ym2612"
    },
    {
      "channel": 2,
      "note": 87,
      "start": 10.4595,
      "duration": 0.1739,
      "velocity": 93,
      "chip": "ym2612"
    },
    {
      "channel": 4,
      "note": 51,
      "start": 10.4607,
      "duration": 0.1732,
      "velocity": 97,
      "chip": "ym2612"
    },
    {
      "channel": 5,
      "note": 45,
      "start": 10.4646,
      "duration": 0.1222,
      "velocity": 127,
      "chip": "ym2612"
    },
    {
      "channel": 0,
      "note": 75,
      "start": 10.506,
      "duration": 0.0786,
      "velocity": 105,
      "chip": "ym2612"
    },
    {
      "channel": 3,
      "note": 75,
      "start": 10.5078,
      "duration": 0.0783,
      "velocity": 93,
      "chip": "ym2612"
    },
    {
      "channel": 1,
      "note": 78,
      "start": 10.5855,
      "duration": 0.079,
      "velocity": 105,
      "chip": "ym2612"
    },
    {
      "channel": 0,
      "note": 82,
      "start": 10.6171,
      "duration": 0.0786,
      "velocity": 105,
      "chip": "ym2612"
    },
    {
      "channel": 3,
      "note": 87,
      "start": 10.619,
      "duration": 0.1735,
      "velocity": 93,
      "chip": "ym2612"
    },
    {
      "channel": 1,
      "note": 75,
      "start": 10.6966,
      "duration": 0.079,
      "velocity": 105,
      "chip": "ym2612"
    },
    {
      "channel": 2,
      "note": 75,
      "start": 10.6976,
      "duration": 0.0782,
      "velocity": 93,
      "chip": "ym2612"
    },
    {
      "channel": 4,
      "note": 63,
      "start": 10.6988,
      "duration": 0.0776,
      "velocity": 97,
      "chip": "ym2612"
    },
    {
      "channel": 5,
      "note": 57,
      "start": 10.7027,
      "duration": 0.1233,
      "velocity": 115,
      "chip": "ym2612"
    },
    {
      "channel": 0,
      "note": 78,
      "start": 10.7441,
      "duration": 0.0787,
      "velocity": 105,
      "chip": "ym2612"
    },
    {
      "channel": 1,
      "note": 70,
      "start": 10.8236,
      "duration": 0.079,
      "velocity": 105,
      "chip": "ym2612"
    },
    {
      "channel": 2,
      "note": 75,
      "start": 10.8245,
      "duration": 0.0783,
      "velocity": 93,
      "chip": "ym2612"
    },
    {
      "channel": 4,
      "note": 63,
      "start": 10.8258,
      "duration": 0.0777,
      "velocity": 97,
      "chip": "ym2612"
    },
    {
      "channel": 5,
      "note": 57,
      "start": 10.8267,
      "duration": 0.1124,
      "velocity": 117,
      "chip": "ym2612"
    },
    {
      "channel": 0,
      "note": 75,
      "start": 10.8552,
      "duration": 0.0787,
      "velocity": 105,
      "chip": "ym2612"
    },
    {
      "channel": 3,
      "note": 75,
      "start": 10.8571,
      "duration": 0.0781,
      "velocity": 93,
      "chip": "ym2612"
    },
    {
      "channel": 1,
      "note": 78,
      "start": 10.9347,
      "duration": 0.079,
      "velocity": 105,
      "chip": "ym2612"
    },
    {
      "channel": 4,
      "note": 51,
      "start": 10.9361,
      "duration": 0.1737,
      "velocity": 97,
      "chip": "ym2612"
    },
    {
      "channel": 5,
      "note": 54,
      "start": 10.9398,
      "duration": 0.1228,
      "velocity": 117,
      "chip": "ym2612"
    },
    {
      "channel": 0,
      "note": 70,
      "start": 10.9822,
      "duration": 0.0786,
      "velocity": 105,
      "chip": "ym2612"
    },
    {
      "channel": 3,
      "note": 75,
      "start": 10.9837,
      "duration": 0.0784,
      "velocity": 93,
      "chip": "ym2612"
    },
    {
      "channel": 1,
      "note": 75,
      "start": 11.0618,
      "duration": 0.079,
      "velocity": 105,
      "chip": "ym2612"
    },
    {
      "channel": 0,
      "note": 78,
      "start": 11.0933,
      "duration": 0.0787,
      "velocity": 105,
      "chip": "ym2612"
    },
    {
      "channel": 1,
      "note": 70,
      "start": 11.1729,
      "duration": 0.0789,
      "velocity": 105,
      "chip": "ym2612"
    },
    {
      "channel": 4,
      "note": 63,
      "start": 11.1738,
      "duration": 0.1741,
      "velocity": 97,
      "chip": "ym2612"
    },
    {
      "channel": 5,
      "note": 57,
      "start": 11.1776,
      "duration": 0.1232,
      "velocity": 115,
      "chip": "ym2612"
    },
    {
      "channel": 0,
      "note": 75,
      "start": 11.2204,
      "duration": 0.0787,
      "velocity": 105,
      "chip": "ym2612"
    },
    {
      "channel": 1,
      "note": 66,
      "start": 11.2999,
      "duration": 0.079,
      "velocity": 105,
      "chip": "ym2612"
    },
    {
      "channel": 5,
      "note": 57,
      "start": 11.3014,
      "duration": 0.1136,
      "velocity": 127,
      "chip": "ym2612"
    },
    {
      "channel": 0,
      "note": 70,
      "start": 11.3315,
      "duration": 0.0786,
      "velocity": 105,
      "chip": "ym2612"
    },
    {
      "channel": 1,
      "note": 75,
      "start": 11.411,
      "duration": 0.079,
      "velocity": 105,
      "chip": "ym2612"
    },
    {
      "channel": 4,
      "note": 51,
      "start": 11.4119,
      "duration": 0.1741,
      "velocity": 97,
      "chip": "ym2612"
    },
    {
      "channel": 5,
      "note": 45,
      "start": 11.4157,
      "duration": 0.1232,
      "velocity": 127,
      "chip": "ym2612"
    },
    {
      "channel": 0,
      "note": 66,
      "start": 11.4585,
      "duration": 0.0786,
      "velocity": 105,
      "chip": "ym2612"
    },
    {
      "channel": 1,
      "note": 70,
      "start": 11.538,
      "duration": 0.079,
      "velocity": 105,
      "chip": "ym2612"
    },
    {
      "channel": 0,
      "note": 75,
      "start": 11.5697,
      "duration": 0.0786,
      "velocity": 105,
      "chip": "ym2612"
    },
    {
      "channel": 1,
      "note": 66,
      "start": 11.6492,
      "duration": 0.079,
      "velocity": 105,
      "chip": "ym2612"
    },
    {
      "channel": 2,
      "note": 75,
      "start": 11.6501,
      "duration": 0.0782,
      "velocity": 93,
      "chip": "ym2612"
    },
    {
      "channel": 4,
      "note": 63,
      "start": 11.651,
      "duration": 0.0775,
      "velocity": 97,
      "chip": "ym2612"
    },
    {
      "channel": 5,
      "note": 57,
      "start": 11.6548,
      "duration": 0.1234,
      "velocity": 115,
      "chip": "ym2612"
    },
    {
      "channel": 0,
      "note": 70,
      "start": 11.6966,
      "duration": 0.0787,
      "velocity": 105,
      "chip": "ym2612"
    },
    {
      "channel": 1,
      "note": 63,
      "start": 11.7761,
      "duration": 0.079,
      "velocity": 105,
      "chip": "ym2612"
    },
    {
      "channel": 2,
      "note": 87,
      "start": 11.777,
      "duration": 0.0783,
      "velocity": 93,
      "chip": "ym2612"
    },
    {
      "channel": 4,
      "note": 63,
      "start": 11.7779,
      "duration": 0.0781,
      "velocity": 97,
      "chip": "ym2612"
    },
    {
      "channel": 5,
      "note": 57,
      "start": 11.7789,
      "duration": 0.1134,
      "velocity": 117,
      "chip": "ym2612"
    },
    {
      "channel": 0,
      "note": 66,
      "start": 11.8078,
      "duration": 0.0787,
      "velocity": 105,
      "chip": "ym2612"
    },
    {
      "channel": 3,
      "note": 75,
      "start": 11.8097,
      "duration": 0.0787,
      "velocity": 93,
      "chip": "ym2612"
    },
    {
      "channel": 1,
      "note": 83,
      "start": 11.8873,
      "duration": 0.0789,
      "velocity": 105,
      "chip": "ym2612"
    },
    {
      "channel": 2,
      "note": 76,
      "start": 11.8882,
      "duration": 0.0783,
      "velocity": 93,
      "chip": "ym2612"
    },
    {
      "channel": 4,
      "note": 52,
      "start": 11.8892,
      "duration": 0.1739,
      "velocity": 97,
      "chip": "ym2612"
    },
    {
      "channel": 5,
      "note": 54,
      "start": 11.8929,
      "duration": 0.123,
      "velocity": 117,
      "chip": "ym2612"
    },
    {
      "channel": 0,
      "note": 63,
      "start": 11.9347,
      "duration": 0.0787,
      "velocity": 105,
      "chip": "ym2612"
    },
    {
      "channel": 3,
      "note": 87,
      "start": 11.9366,
      "duration": 0.0788,
      "velocity": 93,
      "chip": "ym2612"
    },
    {
      "channel": 1,
      "note": 80,
      "start": 12.0142,
      "duration": 0.079,
      "velocity": 105,
      "chip": "ym2612"
    },
    {
      "channel": 2,
      "note": 76,
      "start": 12.0151,
      "duration": 0.0783,
      "velocity": 93,
      "chip": "ym2612"
    },
    {
      "channel": 0,
      "note": 83,
      "start": 12.0459,
      "duration": 0.0787,
      "velocity": 105,
      "chip": "ym2612"
    },
    {
      "channel": 3,
      "note": 76,
      "start": 12.0477,
      "duration": 0.0784,
      "velocity": 93,
      "chip": "ym2612"
    },
    {
      "channel": 1,
      "note": 76,
      "start": 12.1254,
      "duration": 0.0789,
      "velocity": 105,
      "chip": "ym2612"
    },
    {
      "channel": 4,
      "note": 64,
      "start": 12.1268,
      "duration": 0.1744,
      "velocity": 97,
      "chip": "ym2612"
    },
    {
      "channel": 5,
      "note": 57,
      "start": 12.1306,
      "duration": 0.1235,
      "velocity": 115,
      "chip": "ym2612"
    },
    {
      "channel": 0,
      "note": 80,
      "start": 12.1728,
      "duration": 0.0787,
      "velocity": 105,
      "chip": "ym2612"
    },
    {
      "channel": 3,
      "note": 76,
      "start": 12.1747,
      "duration": 0.0787,
      "velocity": 93,
      "chip": "ym2612"
    },
    {
      "channel": 1,
      "note": 71,
      "start": 12.2524,
      "duration": 0.079,
      "velocity": 105,
      "chip": "ym2612"
    },
    {
      "channel": 2,
      "note": 76,
      "start": 12.2533,
      "duration": 0.0782,
      "velocity": 93,
      "chip": "ym2612"
    },
    {
      "channel": 5,
      "note": 57,
      "start": 12.2548,
      "duration": 0.114,
      "velocity": 127,
      "chip": "ym2612"
    },
    {
      "channel": 0,
      "note": 76,
      "start": 12.284,
      "duration": 0.0786,
      "velocity": 105,
      "chip": "ym2612"
    },
    {
      "channel": 1,
      "note": 80,
      "start": 12.3635,
      "duration": 0.079,
      "velocity": 105,
      "chip": "ym2612"
    },
    {
      "channel": 2,
      "note": 88,
      "start": 12.3645,
      "duration": 0.1739,
      "velocity": 93,
      "chip": "ym2612"
    },
    {
      "channel": 4,
      "note": 52,
      "start": 12.3658,
      "duration": 0.1732,
      "velocity": 97,
      "chip": "ym2612"
    },
    {
      "channel": 5,
      "note": 45,
      "start": 12.3695,
      "duration": 0.1223,
      "velocity": 127,
      "chip": "ym2612"
    },
    {
      "channel": 0,
      "note": 71,
      "start": 12.411,
      "duration": 0.0787,
      "velocity": 105,
      "chip": "ym2612"
    },
    {
      "channel": 3,
      "note": 76,
      "start": 12.4129,
      "duration": 0.0784,
      "velocity": 93,
      "chip": "ym2612"
    },
    {
      "channel": 1,
      "note": 76,
      "start": 12.4905,
      "duration": 0.079,
      "velocity": 105,
      "chip": "ym2612"
    },
    {
      "channel": 0,
      "note": 80,
      "start": 12.5221,
      "duration": 0.0787,
      "velocity": 105,
      "chip": "ym2612"
    },
    {
      "channel": 3,
      "note": 88,
      "start": 12.524,
      "duration": 0.1735,
      "velocity": 93,
      "chip": "ym2612"
    },
    {
      "channel": 1,
      "note": 71,
      "start": 12.6017,
      "duration": 0.079,
      "velocity": 105,
      "chip": "ym2612"
    },
    {
      "channel": 2,
      "note": 76,
      "start": 12.6026,
      "duration": 0.0782,
      "velocity": 93,
      "chip": "ym2612"
    },
    {
      "channel": 4,
      "note": 64,
      "start": 12.6039,
      "duration": 0.0775,
      "velocity": 97,
      "chip": "ym2612"
    },
    {
      "channel": 5,
      "note": 57,
      "start": 12.6077,
      "duration": 0.1234,
      "velocity": 115,
      "chip": "ym2612"
    },
    {
      "channel": 0,
      "note": 76,
      "start": 12.6492,
      "duration": 0.0786,
      "velocity": 105,
      "chip": "ym2612"
    },
    {
      "channel": 1,
      "note": 68,
      "start": 12.7287,
      "duration": 0.0789,
      "velocity": 105,
      "chip": "ym2612"
    },
    {
      "channel": 2,
      "note": 76,
      "start": 12.7295,
      "duration": 0.0783,
      "velocity": 93,
      "chip": "ym2612"
    },
    {
      "channel": 4,
      "note": 64,
      "start": 12.7308,
      "duration": 0.0777,
      "velocity": 97,
      "chip": "ym2612"
    },
    {
      "channel": 5,
      "note": 57,
      "start": 12.7317,
      "duration": 0.1124,
      "velocity": 117,
      "chip": "ym2612"
    },
    {
      "channel": 0,
      "note": 71,
      "start": 12.7602,
      "duration": 0.0787,
      "velocity": 105,
      "chip": "ym2612"
    },
    {
      "channel": 3,
      "note": 76,
      "start": 12.7622,
      "duration": 0.0781,
      "velocity": 93,
      "chip": "ym2612"
    },
    {
      "channel": 1,
      "note": 76,
      "start": 12.8398,
      "duration": 0.079,
      "velocity": 105,
      "chip": "ym2612"
    },
    {
      "channel": 4,
      "note": 52,
      "start": 12.8411,
      "duration": 0.1737,
      "velocity": 97,
      "chip": "ym2612"
    },
    {
      "channel": 5,
      "note": 54,
      "start": 12.8449,
      "duration": 0.1228,
      "velocity": 117,
      "chip": "ym2612"
    },
    {
      "channel": 0,
      "note": 68,
      "start": 12.8873,
      "duration": 0.0786,
      "velocity": 105,
      "chip": "ym2612"
    },
    {
      "channel": 3,
      "note": 76,
      "start": 12.8887,
      "duration": 0.0784,
      "velocity": 93,
      "chip": "ym2612"
    },
    {
      "channel": 1,
      "note": 71,
      "start": 12.9668,
      "duration": 0.079,
      "velocity": 105,
      "chip": "ym2612"
    },
    {
      "channel": 0,
      "note": 76,
      "start": 12.9984,
      "duration": 0.0786,
      "velocity": 105,
      "chip": "ym2612"
    },
    {
      "channel": 1,
      "note": 68,
      "start": 13.0779,
      "duration": 0.079,
      "velocity": 105,
      "chip": "ym2612"
    },
    {
      "channel": 4,
      "note": 64,
      "start": 13.0788,
      "duration": 0.1741,
      "velocity": 97,
      "chip": "ym2612"
    },
    {
      "channel": 5,
      "note": 57,
      "start": 13.0826,
      "duration": 0.1232,
      "velocity": 115,
      "chip": "ym2612"
    },
    {
      "channel": 0,
      "note": 71,
      "start": 13.1254,
      "duration": 0.0786,
      "velocity": 105,
      "chip": "ym2612"
    },
    {
      "channel": 1,
      "note": 64,
      "start": 13.2049,
      "duration": 0.079,
      "velocity": 105,
      "chip": "ym2612"
    },
    {
      "channel": 5,
      "note": 57,
      "start": 13.2064,
      "duration": 0.1136,
      "velocity": 127,
      "chip": "ym2612"
    },
    {
      "channel": 0,
      "note": 68,
      "start": 13.2365,
      "duration": 0.0787,
      "velocity": 105,
      "chip": "ym2612"
    },
    {
      "channel": 1,
      "note": 71,
      "start": 13.316,
      "duration": 0.079,
      "velocity": 105,
      "chip": "ym2612"
    },
    {
      "channel": 4,
      "note": 52,
      "start": 13.3169,
      "duration": 0.1742,
      "velocity": 97,
      "chip": "ym2612"
    },
    {
      "channel": 5,
      "note": 45,
      "start": 13.3207,
      "duration": 0.1231,
      "velocity": 127,
      "chip": "ym2612"
    },
    {
      "channel": 0,
      "note": 64,
      "start": 13.3635,
      "duration": 0.0787,
      "velocity": 105,
      "chip": "ym2612"
    },
    {
      "channel": 1,
      "note": 68,
      "start": 13.443,
      "duration": 0.079,
      "velocity": 105,
      "chip": "ym2612"
    },
    {
      "channel": 0,
      "note": 71,
      "start": 13.4746,
      "duration": 0.0787,
      "velocity": 105,
      "chip": "ym2612"
    },
    {
      "channel": 1,
      "note": 64,
      "start": 13.5541,
      "duration": 0.079,
      "velocity": 105,
      "chip": "ym2612"
    },
    {
      "channel": 2,
      "note": 76,
      "start": 13.5551,
      "duration": 0.0783,
      "velocity": 93,
      "chip": "ym2612"
    },
    {
      "channel": 4,
      "note": 64,
      "start": 13.556,
      "duration": 0.0776,
      "velocity": 97,
      "chip": "ym2612"
    },
    {
      "channel": 5,
      "note": 57,
      "start": 13.5599,
      "duration": 0.1233,
      "velocity": 115,
      "chip": "ym2612"
    },
    {
      "channel": 0,
      "note": 68,
      "start": 13.6017,
      "duration": 0.0787,
      "velocity": 105,
      "chip": "ym2612"
    },
    {
      "channel": 1,
      "note": 59,
      "start": 13.6812,
      "duration": 0.079,
      "velocity": 105,
      "chip": "ym2612"
    },
    {
      "channel": 2,
      "note": 88,
      "start": 13.6821,
      "duration": 0.0783,
      "velocity": 93,
      "chip": "ym2612"
    },
    {
      "channel": 4,
      "note": 64,
      "start": 13.6829,
      "duration": 0.0781,
      "velocity": 97,
      "chip": "ym2612"
    },
    {
      "channel": 5,
      "note": 57,
      "start": 13.6839,
      "duration": 0.1134,
      "velocity": 117,
      "chip": "ym2612"
    },
    {
      "channel": 0,
      "note": 64,
      "start": 13.7128,
      "duration": 0.0787,
      "velocity": 105,
      "chip": "ym2612"
    },
    {
      "channel": 3,
      "note": 76,
      "start": 13.7147,
      "duration": 0.0787,
      "velocity": 93,
      "chip": "ym2612"
    },
    {
      "channel": 1,
      "note": 89,
      "start": 13.7924,
      "duration": 0.079,
      "velocity": 105,
      "chip": "ym2612"
    },
    {
      "channel": 2,
      "note": 89,
      "start": 13.7932,
      "duration": 0.0783,
      "velocity": 93,
      "chip": "ym2612"
    },
    {
      "channel": 4,
      "note": 53,
      "start": 13.7942,
      "duration": 0.1739,
      "velocity": 97,
      "chip": "ym2612"
    },
    {
      "channel": 5,
      "note": 54,
      "start": 13.798,
      "duration": 0.1231,
      "velocity": 117,
      "chip": "ym2612"
    },
    {
      "channel": 0,
      "note": 59,
      "start": 13.8398,
      "duration": 0.0787,
      "velocity": 105,
      "chip": "ym2612"
    },
    {
      "channel": 3,
      "note": 88,
      "start": 13.8416,
      "duration": 0.0788,
      "velocity": 93,
      "chip": "ym2612"
    },
    {
      "channel": 1,
      "note": 85,
      "start": 13.9193,
      "duration": 0.0789,
      "velocity": 105,
      "chip": "ym2612"
    },
    {
      "channel": 2,
      "note": 85,
      "start": 13.9202,
      "duration": 0.0783,
      "velocity": 93,
      "chip": "ym2612"
    },
    {
      "channel": 0,
      "note": 89,
      "start": 13.951,
      "duration": 0.0786,
      "velocity": 105,
      "chip": "ym2612"
    },
    {
      "channel": 3,
      "note": 89,
      "start": 13.9528,
      "duration": 0.0786,
      "velocity": 93,
      "chip": "ym2612"
    },
    {
      "channel": 1,
      "note": 80,
      "start": 14.0304,
      "duration": 0.079,
      "velocity": 105,
      "chip": "ym2612"
    },
    {
      "channel": 2,
      "note": 80,
      "start": 14.0313,
      "duration": 0.0783,
      "velocity": 93,
      "chip": "ym2612"
    },
    {
      "channel": 4,
      "note": 65,
      "start": 14.0322,
      "duration": 0.1741,
      "velocity": 97,
      "chip": "ym2612"
    },
    {
      "channel": 5,
      "note": 57,
      "start": 14.0359,
      "duration": 0.1232,
      "velocity": 115,
      "chip": "ym2612"
    },
    {
      "channel": 0,
      "note": 85,
      "start": 14.0779,
      "duration": 0.0786,
      "velocity": 105,
      "chip": "ym2612"
    },
    {
      "channel": 3,
      "note": 85,
      "start": 14.0798,
      "duration": 0.0788,
      "velocity": 93,
      "chip": "ym2612"
    },
    {
      "channel": 1,
      "note": 77,
      "start": 14.1574,
      "duration": 0.079,
      "velocity": 105,
      "chip": "ym2612"
    },
    {
      "channel": 2,
      "note": 77,
      "start": 14.1583,
      "duration": 0.0783,
      "velocity": 93,
      "chip": "ym2612"
    },
    {
      "channel": 5,
      "note": 57,
      "start": 14.1599,
      "duration": 0.1136,
      "velocity": 127,
      "chip": "ym2612"
    },
    {
      "channel": 0,
      "note": 80,
      "start": 14.189,
      "duration": 0.0787,
      "velocity": 105,
      "chip": "ym2612"
    },
    {
      "channel": 3,
      "note": 80,
      "start": 14.1909,
      "duration": 0.0788,
      "velocity": 93,
      "chip": "ym2612"
    },
    {
      "channel": 1,
      "note": 85,
      "start": 14.2686,
      "duration": 0.079,
      "velocity": 105,
      "chip": "ym2612"
    },
    {
      "channel": 2,
      "note": 85,
      "start": 14.2695,
      "duration": 0.0783,
      "velocity": 93,
      "chip": "ym2612"
    },
    {
      "channel": 4,
      "note": 53,
      "start": 14.2704,
      "duration": 0.174,
      "velocity": 97,
      "chip": "ym2612"
    },
    {
      "channel": 5,
      "note": 45,
      "start": 14.2742,
      "duration": 0.1231,
      "velocity": 127,
      "chip": "ym2612"
    },
    {
      "channel": 0,
      "note": 77,
      "start": 14.316,
      "duration": 0.0787,
      "velocity": 105,
      "chip": "ym2612"
    },
    {
      "channel": 3,
      "note": 77,
      "start": 14.3179,
      "duration": 0.0787,
      "velocity": 93,
      "chip": "ym2612"
    },
    {
      "channel": 1,
      "note": 80,
      "start": 14.3955,
      "duration": 0.079,
      "velocity": 105,
      "chip": "ym2612"
    },
    {
      "channel": 2,
      "note": 80,
      "start": 14.3964,
      "duration": 0.0783,
      "velocity": 93,
      "chip": "ym2612"
    },
    {
      "channel": 0,
      "note": 85,
      "start": 14.4272,
      "duration": 0.0787,
      "velocity": 105,
      "chip": "ym2612"
    },
    {
      "channel": 3,
      "note": 85,
      "start": 14.429,
      "duration": 0.0788,
      "velocity": 93,
      "chip": "ym2612"
    },
    {
      "channel": 1,
      "note": 77,
      "start": 14.5067,
      "duration": 0.079,
      "velocity": 105,
      "chip": "ym2612"
    },
    {
      "channel": 2,
      "note": 77,
      "start": 14.5076,
      "duration": 0.0783,
      "velocity": 93,
      "chip": "ym2612"
    },
    {
      "channel": 4,
      "note": 65,
      "start": 14.5086,
      "duration": 0.0779,
      "velocity": 97,
      "chip": "ym2612"
    },
    {
      "channel": 5,
      "note": 54,
      "start": 14.5123,
      "duration": 0.1234,
      "velocity": 122,
      "chip": "ym2612"
    },
    {
      "channel": 0,
      "note": 80,
      "start": 14.5542,
      "duration": 0.0786,
      "velocity": 105,
      "chip": "ym2612"
    },
    {
      "channel": 3,
      "note": 80,
      "start": 14.556,
      "duration": 0.0787,
      "velocity": 93,
      "chip": "ym2612"
    },
    {
      "channel": 1,
      "note": 73,
      "start": 14.6337,
      "duration": 0.079,
      "velocity": 105,
      "chip": "ym2612"
    },
    {
      "channel": 2,
      "note": 73,
      "start": 14.6345,
      "duration": 0.0784,
      "velocity": 93,
      "chip": "ym2612"
    },
    {
      "channel": 4,
      "note": 65,
      "start": 14.6355,
      "duration": 0.078,
      "velocity": 97,
      "chip": "ym2612"
    },
    {
      "channel": 0,
      "note": 77,
      "start": 14.6653,
      "duration": 0.0786,
      "velocity": 105,
      "chip": "ym2612"
    },
    {
      "channel": 3,
      "note": 77,
      "start": 14.6672,
      "duration": 0.0787,
      "velocity": 93,
      "chip": "ym2612"
    },
    {
      "channel": 1,
      "note": 80,
      "start": 14.7449,
      "duration": 0.079,
      "velocity": 105,
      "chip": "ym2612"
    },
    {
      "channel": 2,
      "note": 80,
      "start": 14.7457,
      "duration": 0.0782,
      "velocity": 93,
      "chip": "ym2612"
    },
    {
      "channel": 4,
      "note": 53,
      "start": 14.7467,
      "duration": 0.174,
      "velocity": 97,
      "chip": "ym2612"
    },
    {
      "channel": 5,
      "note": 54,
      "start": 14.7504,
      "duration": 0.1259,
      "velocity": 122,
      "chip": "ym2612"
    },
    {
      "channel": 0,
      "note": 73,
      "start": 14.7923,
      "duration": 0.0787,
      "velocity": 105,
      "chip": "ym2612"
    },
    {
      "channel": 3,
      "note": 73,
      "start": 14.7941,
      "duration": 0.0788,
      "velocity": 93,
      "chip": "ym2612"
    },
    {
      "channel": 1,
      "note": 77,
      "start": 14.8719,
      "duration": 0.0789,
      "velocity": 105,
      "chip": "ym2612"
    },
    {
      "channel": 2,
      "note": 77,
      "start": 14.8727,
      "duration": 0.0783,
      "velocity": 93,
      "chip": "ym2612"
    },
    {
      "channel": 5,
      "note": 49,
      "start": 14.877,
      "duration": 0.108,
      "velocity": 122,
      "chip": "ym2612"
    },
    {
      "channel": 0,
      "note": 80,
      "start": 14.9034,
      "duration": 0.0786,
      "velocity": 105,
      "chip": "ym2612"
    },
    {
      "channel": 3,
      "note": 80,
      "start": 14.9053,
      "duration": 0.0787,
      "velocity": 93,
      "chip": "ym2612"
    },
    {
      "channel": 1,
      "note": 73,
      "start": 14.9829,
      "duration": 0.079,
      "velocity": 105,
      "chip": "ym2612"
    },
    {
      "channel": 2,
      "note": 73,
      "start": 14.9838,
      "duration": 0.0783,
      "velocity": 93,
      "chip": "ym2612"
    },
    {
      "channel": 4,
      "note": 65,
      "start": 14.9847,
      "duration": 0.174,
      "velocity": 97,
      "chip": "ym2612"
    },
    {
      "channel": 0,
      "note": 77,
      "start": 15.0305,
      "duration": 0.0786,
      "velocity": 105,
      "chip": "ym2612"
    },
    {
      "channel": 3,
      "note": 77,
      "start": 15.0323,
      "duration": 0.0787,
      "velocity": 93,
      "chip": "ym2612"
    },
    {
      "channel": 1,
      "note": 68,
      "start": 15.11,
      "duration": 0.079,
      "velocity": 105,
      "chip": "ym2612"
    },
    {
      "channel": 2,
      "note": 68,
      "start": 15.1108,
      "duration": 0.0783,
      "velocity": 93,
      "chip": "ym2612"
    },
    {
      "channel": 5,
      "note": 42,
      "start": 15.1151,
      "duration": 0.1108,
      "velocity": 127,
      "chip": "ym2612"
    },
    {
      "channel": 0,
      "note": 73,
      "start": 15.1416,
      "duration": 0.0786,
      "velocity": 105,
      "chip": "ym2612"
    },
    {
      "channel": 3,
      "note": 73,
      "start": 15.1434,
      "duration": 0.0787,
      "velocity": 93,
      "chip": "ym2612"
    },
    {
      "channel": 1,
      "note": 77,
      "start": 15.2211,
      "duration": 0.079,
      "velocity": 105,
      "chip": "ym2612"
    },
    {
      "channel": 2,
      "note": 77,
      "start": 15.222,
      "duration": 0.0783,
      "velocity": 93,
      "chip": "ym2612"
    },
    {
      "channel": 4,
      "note": 53,
      "start": 15.2228,
      "duration": 0.174,
      "velocity": 97,
      "chip": "ym2612"
    },
    {
      "channel": 5,
      "note": 45,
      "start": 15.2266,
      "duration": 0.1232,
      "velocity": 127,
      "chip": "ym2612"
    },
    {
      "channel": 0,
      "note": 68,
      "start": 15.2686,
      "duration": 0.0787,
      "velocity": 105,
      "chip": "ym2612"
    },
    {
      "channel": 3,
      "note": 68,
      "start": 15.2704,
      "duration": 0.0788,
      "velocity": 93,
      "chip": "ym2612"
    },
    {
      "channel": 1,
      "note": 73,
      "start": 15.3481,
      "duration": 0.079,
      "velocity": 105,
      "chip": "ym2612"
    },
    {
      "channel": 2,
      "note": 73,
      "start": 15.349,
      "duration": 0.0783,
      "velocity": 93,
      "chip": "ym2612"
    },
    {
      "channel": 0,
      "note": 77,
      "start": 15.3797,
      "duration": 0.0786,
      "velocity": 105,
      "chip": "ym2612"
    },
    {
      "channel": 3,
      "note": 77,
      "start": 15.3815,
      "duration": 0.0787,
      "velocity": 93,
      "chip": "ym2612"
    },
    {
      "channel": 1,
      "note": 68,
      "start": 15.4592,
      "duration": 0.0789,
      "velocity": 105,
      "chip": "ym2612"
    },
    {
      "channel": 2,
      "note": 68,
      "start": 15.46,
      "duration": 0.0783,
      "velocity": 93,
      "chip": "ym2612"
    },
    {
      "channel": 4,
      "note": 65,
      "start": 15.4611,
      "duration": 0.0779,
      "velocity": 97,
      "chip": "ym2612"
    },
    {
      "channel": 5,
      "note": 57,
      "start": 15.4648,
      "duration": 0.1235,
      "velocity": 115,
      "chip": "ym2612"
    },
    {
      "channel": 0,
      "note": 73,
      "start": 15.5067,
      "duration": 0.0786,
      "velocity": 105,
      "chip": "ym2612"
    },
    {
      "channel": 3,
      "note": 73,
      "start": 15.5086,
      "duration": 0.0787,
      "velocity": 93,
      "chip": "ym2612"
    },
    {
      "channel": 1,
      "note": 65,
      "start": 15.5863,
      "duration": 0.0789,
      "velocity": 105,
      "chip": "ym2612"
    },
    {
      "channel": 2,
      "note": 65,
      "start": 15.5871,
      "duration": 0.0783,
      "velocity": 93,
      "chip": "ym2612"
    },
    {
      "channel": 4,
      "note": 65,
      "start": 15.588,
      "duration": 0.078,
      "velocity": 97,
      "chip": "ym2612"
    },
    {
      "channel": 5,
      "note": 57,
      "start": 15.589,
      "duration": 0.1133,
      "velocity": 117,
      "chip": "ym2612"
    },
    {
      "channel": 0,
      "note": 68,
      "start": 15.6178,
      "duration": 0.0787,
      "velocity": 105,
      "chip": "ym2612"
    },
    {
      "channel": 3,
      "note": 68,
      "start": 15.6197,
      "duration": 0.0788,
      "velocity": 93,
      "chip": "ym2612"
    },
    {
      "channel": 1,
      "note": 85,
      "start": 15.6974,
      "duration": 0.0789,
      "velocity": 105,
      "chip": "ym2612"
    },
    {
      "channel": 2,
      "note": 73,
      "start": 15.6982,
      "duration": 0.0783,
      "velocity": 93,
      "chip": "ym2612"
    },
    {
      "channel": 4,
      "note": 54,
      "start": 15.6992,
      "duration": 0.2691,
      "velocity": 97,
      "chip": "ym2612"
    },
    {
      "channel": 5,
      "note": 54,
      "start": 15.703,
      "duration": 0.1231,
      "velocity": 117,
      "chip": "ym2612"
    },
    {
      "channel": 0,
      "note": 65,
      "start": 15.7449,
      "duration": 0.0786,
      "velocity": 105,
      "chip": "ym2612"
    },
    {
      "channel": 3,
      "note": 65,
      "start": 15.7466,
      "duration": 0.0788,
      "velocity": 93,
      "chip": "ym2612"
    },
    {
      "channel": 1,
      "note": 82,
      "start": 15.8244,
      "duration": 0.079,
      "velocity": 105,
      "chip": "ym2612"
    },
    {
      "channel": 2,
      "note": 73,
      "start": 15.8253,
      "duration": 0.0783,
      "velocity": 93,
      "chip": "ym2612"
    },
    {
      "channel": 0,
      "note": 85,
      "start": 15.856,
      "duration": 0.0786,
      "velocity": 105,
      "chip": "ym2612"
    },
    {
      "channel": 3,
      "note": 73,
      "start": 15.8578,
      "duration": 0.0783,
      "velocity": 93,
      "chip": "ym2612"
    },
    {
      "channel": 1,
      "note": 78,
      "start": 15.9355,
      "duration": 0.079,
      "velocity": 105,
      "chip": "ym2612"
    },
    {
      "channel": 5,
      "note": 57,
      "start": 15.9403,
      "duration": 0.1244,
      "velocity": 115,
      "chip": "ym2612"
    },
    {
      "channel": 0,
      "note": 82,
      "start": 15.9829,
      "duration": 0.0787,
      "velocity": 105,
      "chip": "ym2612"
    },
    {
      "channel": 3,
      "note": 73,
      "start": 15.9848,
      "duration": 0.0788,
      "velocity": 93,
      "chip": "ym2612"
    },
    {
      "channel": 1,
      "note": 73,
      "start": 16.0625,
      "duration": 0.079,
      "velocity": 105,
      "chip": "ym2612"
    },
    {
      "channel": 2,
      "note": 73,
      "start": 16.0634,
      "duration": 0.0783,
      "velocity": 93,
      "chip": "ym2612"
    },
    {
      "channel": 4,
      "note": 66,
      "start": 16.0644,
      "duration": 0.1738,
      "velocity": 97,
      "chip": "ym2612"
    },
    {
      "channel": 5,
      "note": 57,
      "start": 16.0654,
      "duration": 0.1132,
      "velocity": 127,
      "chip": "ym2612"
    },
    {
      "channel": 0,
      "note": 78,
      "start": 16.0941,
      "duration": 0.0786,
      "velocity": 105,
      "chip": "ym2612"
    },
    {
      "channel": 1,
      "note": 82,
      "start": 16.1736,
      "duration": 0.079,
      "velocity": 105,
      "chip": "ym2612"
    },
    {
      "channel": 2,
      "note": 85,
      "start": 16.1746,
      "duration": 0.1739,
      "velocity": 93,
      "chip": "ym2612"
    },
    {
      "channel": 5,
      "note": 45,
      "start": 16.1793,
      "duration": 0.1231,
      "velocity": 127,
      "chip": "ym2612"
    },
    {
      "channel": 0,
      "note": 73,
      "start": 16.2211,
      "duration": 0.0786,
      "velocity": 105,
      "chip": "ym2612"
    },
    {
      "channel": 3,
      "note": 73,
      "start": 16.223,
      "duration": 0.0783,
      "velocity": 93,
      "chip": "ym2612"
    },
    {
      "channel": 1,
      "note": 78,
      "start": 16.3006,
      "duration": 0.079,
      "velocity": 105,
      "chip": "ym2612"
    },
    {
      "channel": 4,
      "note": 58,
      "start": 16.3021,
      "duration": 0.0786,
      "velocity": 97,
      "chip": "ym2612"
    },
    {
      "channel": 0,
      "note": 82,
      "start": 16.3322,
      "duration": 0.0786,
      "velocity": 105,
      "chip": "ym2612"
    },
    {
      "channel": 3,
      "note": 85,
      "start": 16.3341,
      "duration": 0.1735,
      "velocity": 93,
      "chip": "ym2612"
    },
    {
      "channel": 1,
      "note": 73,
      "start": 16.4118,
      "duration": 0.0789,
      "velocity": 105,
      "chip": "ym2612"
    },
    {
      "channel": 2,
      "note": 73,
      "start": 16.4127,
      "duration": 0.0782,
      "velocity": 93,
      "chip": "ym2612"
    },
    {
      "channel": 4,
      "note": 49,
      "start": 16.4141,
      "duration": 0.1735,
      "velocity": 97,
      "chip": "ym2612"
    },
    {
      "channel": 5,
      "note": 57,
      "start": 16.4178,
      "duration": 0.123,
      "velocity": 115,
      "chip": "ym2612"
    },
    {
      "channel": 0,
      "note": 78,
      "start": 16.4592,
      "duration": 0.0786,
      "velocity": 105,
      "chip": "ym2612"
    },
    {
      "channel": 1,
      "note": 70,
      "start": 16.5387,
      "duration": 0.079,
      "velocity": 105,
      "chip": "ym2612"
    },
    {
      "channel": 2,
      "note": 73,
      "start": 16.5396,
      "duration": 0.0783,
      "velocity": 93,
      "chip": "ym2612"
    },
    {
      "channel": 5,
      "note": 57,
      "start": 16.5415,
      "duration": 0.1123,
      "velocity": 117,
      "chip": "ym2612"
    },
    {
      "channel": 0,
      "note": 73,
      "start": 16.5704,
      "duration": 0.0787,
      "velocity": 105,
      "chip": "ym2612"
    },
    {
      "channel": 3,
      "note": 73,
      "start": 16.5723,
      "duration": 0.0781,
      "velocity": 93,
      "chip": "ym2612"
    },
    {
      "channel": 1,
      "note": 78,
      "start": 16.6499,
      "duration": 0.079,
      "velocity": 105,
      "chip": "ym2612"
    },
    {
      "channel": 5,
      "note": 54,
      "start": 16.6544,
      "duration": 0.1237,
      "velocity": 117,
      "chip": "ym2612"
    },
    {
      "channel": 0,
      "note": 70,
      "start": 16.6973,
      "duration": 0.0787,
      "velocity": 105,
      "chip": "ym2612"
    },
    {
      "channel": 3,
      "note": 73,
      "start": 16.6988,
      "duration": 0.0783,
      "velocity": 93,
      "chip": "ym2612"
    },
    {
      "channel": 1,
      "note": 73,
      "start": 16.7768,
      "duration": 0.079,
      "velocity": 105,
      "chip": "ym2612"
    },
    {
      "channel": 4,
      "note": 49,
      "start": 16.7779,
      "duration": 0.1739,
      "velocity": 97,
      "chip": "ym2612"
    },
    {
      "channel": 0,
      "note": 78,
      "start": 16.8085,
      "duration": 0.0787,
      "velocity": 105,
      "chip": "ym2612"
    },
    {
      "channel": 1,
      "note": 70,
      "start": 16.888,
      "duration": 0.079,
      "velocity": 105,
      "chip": "ym2612"
    },
    {
      "channel": 5,
      "note": 57,
      "start": 16.8924,
      "duration": 0.1239,
      "velocity": 115,
      "chip": "ym2612"
    },
    {
      "channel": 0,
      "note": 73,
      "start": 16.9355,
      "duration": 0.0786,
      "velocity": 105,
      "chip": "ym2612"
    },
    {
      "channel": 1,
      "note": 66,
      "start": 17.015,
      "duration": 0.079,
      "velocity": 105,
      "chip": "ym2612"
    },
    {
      "channel": 4,
      "note": 49,
      "start": 17.016,
      "duration": 0.0784,
      "velocity": 97,
      "chip": "ym2612"
    },
    {
      "channel": 5,
      "note": 57,
      "start": 17.017,
      "duration": 0.1132,
      "velocity": 127,
      "chip": "ym2612"
    },
    {
      "channel": 0,
      "note": 70,
      "start": 17.0466,
      "duration": 0.0786,
      "velocity": 105,
      "chip": "ym2612"
    },
    {
      "channel": 1,
      "note": 73,
      "start": 17.1261,
      "duration": 0.079,
      "velocity": 105,
      "chip": "ym2612"
    },
    {
      "channel": 4,
      "note": 54,
      "start": 17.1271,
      "duration": 0.174,
      "velocity": 97,
      "chip": "ym2612"
    },
    {
      "channel": 5,
      "note": 45,
      "start": 17.1309,
      "duration": 0.123,
      "velocity": 127,
      "chip": "ym2612"
    },
    {
      "channel": 0,
      "note": 66,
      "start": 17.1736,
      "duration": 0.0787,
      "velocity": 105,
      "chip": "ym2612"
    },
    {
      "channel": 1,
      "note": 70,
      "start": 17.2531,
      "duration": 0.079,
      "velocity": 105,
      "chip": "ym2612"
    },
    {
      "channel": 0,
      "note": 73,
      "start": 17.2847,
      "duration": 0.0787,
      "velocity": 105,
      "chip": "ym2612"
    },
    {
      "channel": 1,
      "note": 66,
      "start": 17.3642,
      "duration": 0.079,
      "velocity": 105,
      "chip": "ym2612"
    },
    {
      "channel": 2,
      "note": 73,
      "start": 17.3652,
      "duration": 0.0783,
      "velocity": 93,
      "chip": "ym2612"
    },
    {
      "channel": 4,
      "note": 54,
      "start": 17.366,
      "duration": 0.174,
      "velocity": 97,
      "chip": "ym2612"
    },
    {
      "channel": 5,
      "note": 57,
      "start": 17.3698,
      "duration": 0.1231,
      "velocity": 115,
      "chip": "ym2612"
    },
    {
      "channel": 0,
      "note": 70,
      "start": 17.4118,
      "duration": 0.0786,
      "velocity": 105,
      "chip": "ym2612"
    },
    {
      "channel": 1,
      "note": 61,
      "start": 17.4913,
      "duration": 0.079,
      "velocity": 105,
      "chip": "ym2612"
    },
    {
      "channel": 2,
      "note": 85,
      "start": 17.4922,
      "duration": 0.0782,
      "velocity": 93,
      "chip": "ym2612"
    },
    {
      "channel": 5,
      "note": 57,
      "start": 17.4936,
      "duration": 0.1137,
      "velocity": 117,
      "chip": "ym2612"
    },
    {
      "channel": 0,
      "note": 66,
      "start": 17.5228,
      "duration": 0.0787,
      "velocity": 105,
      "chip": "ym2612"
    },
    {
      "channel": 3,
      "note": 73,
      "start": 17.5248,
      "duration": 0.0786,
      "velocity": 93,
      "chip": "ym2612"
    },
    {
      "channel": 1,
      "note": 87,
      "start": 17.6024,
      "duration": 0.079,
      "velocity": 105,
      "chip": "ym2612"
    },
    {
      "channel": 2,
      "note": 75,
      "start": 17.6033,
      "duration": 0.0782,
      "velocity": 93,
      "chip": "ym2612"
    },
    {
      "channel": 4,
      "note": 51,
      "start": 17.6043,
      "duration": 0.078,
      "velocity": 97,
      "chip": "ym2612"
    },
    {
      "channel": 5,
      "note": 54,
      "start": 17.608,
      "duration": 0.1231,
      "velocity": 117,
      "chip": "ym2612"
    },
    {
      "channel": 0,
      "note": 61,
      "start": 17.6499,
      "duration": 0.0787,
      "velocity": 105,
      "chip": "ym2612"
    },
    {
      "channel": 3,
      "note": 85,
      "start": 17.6517,
      "duration": 0.0788,
      "velocity": 93,
      "chip": "ym2612"
    },
    {
      "channel": 1,
      "note": 82,
      "start": 17.7294,
      "duration": 0.079,
      "velocity": 105,
      "chip": "ym2612"
    },
    {
      "channel": 2,
      "note": 75,
      "start": 17.7303,
      "duration": 0.0783,
      "velocity": 93,
      "chip": "ym2612"
    },
    {
      "channel": 0,
      "note": 87,
      "start": 17.761,
      "duration": 0.0786,
      "velocity": 105,
      "chip": "ym2612"
    },
    {
      "channel": 3,
      "note": 75,
      "start": 17.7629,
      "duration": 0.0783,
      "velocity": 93,
      "chip": "ym2612"
    },
    {
      "channel": 1,
      "note": 78,
      "start": 17.8405,
      "duration": 0.079,
      "velocity": 105,
      "chip": "ym2612"
    },
    {
      "channel": 4,
      "note": 51,
      "start": 17.8419,
      "duration": 0.0788,
      "velocity": 97,
      "chip": "ym2612"
    },
    {
      "channel": 5,
      "note": 57,
      "start": 17.8457,
      "duration": 0.1235,
      "velocity": 115,
      "chip": "ym2612"
    },
    {
      "channel": 0,
      "note": 82,
      "start": 17.888,
      "duration": 0.0787,
      "velocity": 105,
      "chip": "ym2612"
    },
    {
      "channel": 3,
      "note": 75,
      "start": 17.8898,
      "duration": 0.0788,
      "velocity": 93,
      "chip": "ym2612"
    },
    {
      "channel": 1,
      "note": 75,
      "start": 17.9676,
      "duration": 0.079,
      "velocity": 105,
      "chip": "ym2612"
    },
    {
      "channel": 2,
      "note": 75,
      "start": 17.9684,
      "duration": 0.0783,
      "velocity": 93,
      "chip": "ym2612"
    },
    {
      "channel": 5,
      "note": 57,
      "start": 17.97,
      "duration": 0.1141,
      "velocity": 127,
      "chip": "ym2612"
    },
    {
      "channel": 0,
      "note": 78,
      "start": 17.9991,
      "duration": 0.0787,
      "velocity": 105,
      "chip": "ym2612"
    },
    {
      "channel": 1,
      "note": 82,
      "start": 18.0787,
      "duration": 0.0789,
      "velocity": 105,
      "chip": "ym2612"
    },
    {
      "channel": 2,
      "note": 87,
      "start": 18.0796,
      "duration": 0.1739,
      "velocity": 93,
      "chip": "ym2612"
    },
    {
      "channel": 4,
      "note": 51,
      "start": 18.0809,
      "duration": 0.0779,
      "velocity": 97,
      "chip": "ym2612"
    },
    {
      "channel": 5,
      "note": 45,
      "start": 18.0847,
      "duration": 0.1222,
      "velocity": 127,
      "chip": "ym2612"
    },
    {
      "channel": 0,
      "note": 75,
      "start": 18.1261,
      "duration": 0.0787,
      "velocity": 105,
      "chip": "ym2612"
    },
    {
      "channel": 3,
      "note": 75,
      "start": 18.128,
      "duration": 0.0784,
      "velocity": 93,
      "chip": "ym2612"
    },
    {
      "channel": 1,
      "note": 78,
      "start": 18.2057,
      "duration": 0.079,
      "velocity": 105,
      "chip": "ym2612"
    },
    {
      "channel": 0,
      "note": 82,
      "start": 18.2373,
      "duration": 0.0786,
      "velocity": 105,
      "chip": "ym2612"
    },
    {
      "channel": 3,
      "note": 87,
      "start": 18.2392,
      "duration": 0.1735,
      "velocity": 93,
      "chip": "ym2612"
    },
    {
      "channel": 1,
      "note": 75,
      "start": 18.3168,
      "duration": 0.079,
      "velocity": 105,
      "chip": "ym2612"
    },
    {
      "channel": 2,
      "note": 75,
      "start": 18.3178,
      "duration": 0.0782,
      "velocity": 93,
      "chip": "ym2612"
    },
    {
      "channel": 4,
      "note": 51,
      "start": 18.319,
      "duration": 0.0776,
      "velocity": 97,
      "chip": "ym2612"
    },
    {
      "channel": 5,
      "note": 57,
      "start": 18.3227,
      "duration": 0.123,
      "velocity": 115,
      "chip": "ym2612"
    },
    {
      "channel": 0,
      "note": 78,
      "start": 18.3642,
      "duration": 0.0787,
      "velocity": 105,
      "chip": "ym2612"
    },
    {
      "channel": 1,
      "note": 70,
      "start": 18.4438,
      "duration": 0.079,
      "velocity": 105,
      "chip": "ym2612"
    },
    {
      "channel": 2,
      "note": 75,
      "start": 18.4446,
      "duration": 0.0783,
      "velocity": 93,
      "chip": "ym2612"
    },
    {
      "channel": 5,
      "note": 57,
      "start": 18.4465,
      "duration": 0.1127,
      "velocity": 117,
      "chip": "ym2612"
    },
    {
      "channel": 0,
      "note": 75,
      "start": 18.4754,
      "duration": 0.0787,
      "velocity": 105,
      "chip": "ym2612"
    },
    {
      "channel": 3,
      "note": 75,
      "start": 18.4773,
      "duration": 0.078,
      "velocity": 93,
      "chip": "ym2612"
    },
    {
      "channel": 1,
      "note": 78,
      "start": 18.5549,
      "duration": 0.079,
      "velocity": 105,
      "chip": "ym2612"
    },
    {
      "channel": 4,
      "note": 51,
      "start": 18.5561,
      "duration": 0.0786,
      "velocity": 97,
      "chip": "ym2612"
    },
    {
      "channel": 5,
      "note": 54,
      "start": 18.5599,
      "duration": 0.1233,
      "velocity": 117,
      "chip": "ym2612"
    },
    {
      "channel": 0,
      "note": 70,
      "start": 18.6024,
      "duration": 0.0786,
      "velocity": 105,
      "chip": "ym2612"
    },
    {
      "channel": 3,
      "note": 75,
      "start": 18.6038,
      "duration": 0.0784,
      "velocity": 93,
      "chip": "ym2612"
    },
    {
      "channel": 1,
      "note": 75,
      "start": 18.6819,
      "duration": 0.079,
      "velocity": 105,
      "chip": "ym2612"
    },
    {
      "channel": 4,
      "note": 51,
      "start": 18.6829,
      "duration": 0.0784,
      "velocity": 97,
      "chip": "ym2612"
    },
    {
      "channel": 0,
      "note": 78,
      "start": 18.7135,
      "duration": 0.0787,
      "velocity": 105,
      "chip": "ym2612"
    },
    {
      "channel": 1,
      "note": 70,
      "start": 18.7931,
      "duration": 0.0789,
      "velocity": 105,
      "chip": "ym2612"
    },
    {
      "channel": 4,
      "note": 51,
      "start": 18.794,
      "duration": 0.1741,
      "velocity": 97,
      "chip": "ym2612"
    },
    {
      "channel": 5,
      "note": 57,
      "start": 18.7978,
      "duration": 0.1231,
      "velocity": 115,
      "chip": "ym2612"
    },
    {
      "channel": 0,
      "note": 75,
      "start": 18.8405,
      "duration": 0.0787,
      "velocity": 105,
      "chip": "ym2612"
    },
    {
      "channel": 1,
      "note": 66,
      "start": 18.92,
      "duration": 0.079,
      "velocity": 105,
      "chip": "ym2612"
    },
    {
      "channel": 5,
      "note": 57,
      "start": 18.9216,
      "duration": 0.1137,
      "velocity": 127,
      "chip": "ym2612"
    },
    {
      "channel": 0,
      "note": 70,
      "start": 18.9517,
      "duration": 0.0786,
      "velocity": 105,
      "chip": "ym2612"
    },
    {
      "channel": 1,
      "note": 75,
      "start": 19.0312,
      "duration": 0.079,
      "velocity": 105,
      "chip": "ym2612"
    },
    {
      "channel": 4,
      "note": 51,
      "start": 19.0321,
      "duration": 0.0784,
      "velocity": 97,
      "chip": "ym2612"
    },
    {
      "channel": 5,
      "note": 45,
      "start": 19.0359,
      "duration": 0.123,
      "velocity": 127,
      "chip": "ym2612"
    },
    {
      "channel": 0,
      "note": 66,
      "start": 19.0786,
      "duration": 0.0787,
      "velocity": 105,
      "chip": "ym2612"
    },
    {
      "channel": 1,
      "note": 70,
      "start": 19.1582,
      "duration": 0.0789,
      "velocity": 105,
      "chip": "ym2612"
    },
    {
      "channel": 0,
      "note": 75,
      "start": 19.1898,
      "duration": 0.0787,
      "velocity": 105,
      "chip": "ym2612"
    },
    {
      "channel": 1,
      "note": 66,
      "start": 19.2693,
      "duration": 0.079,
      "velocity": 105,
      "chip": "ym2612"
    },
    {
      "channel": 2,
      "note": 75,
      "start": 19.2702,
      "duration": 0.0783,
      "velocity": 93,
      "chip": "ym2612"
    },
    {
      "channel": 4,
      "note": 51,
      "start": 19.271,
      "duration": 0.0777,
      "velocity": 97,
      "chip": "ym2612"
    },
    {
      "channel": 5,
      "note": 57,
      "start": 19.2749,
      "duration": 0.1234,
      "velocity": 115,
      "chip": "ym2612"
    },
    {
      "channel": 0,
      "note": 70,
      "start": 19.3168,
      "duration": 0.0787,
      "velocity": 105,
      "chip": "ym2612"
    },
    {
      "channel": 1,
      "note": 63,
      "start": 19.3963,
      "duration": 0.079,
      "velocity": 105,
      "chip": "ym2612"
    },
    {
      "channel": 2,
      "note": 87,
      "start": 19.3972,
      "duration": 0.0783,
      "velocity": 93,
      "chip": "ym2612"
    },
    {
      "channel": 4,
      "note": 51,
      "start": 19.398,
      "duration": 0.0781,
      "velocity": 97,
      "chip": "ym2612"
    },
    {
      "channel": 5,
      "note": 57,
      "start": 19.399,
      "duration": 0.1133,
      "velocity": 117,
      "chip": "ym2612"
    },
    {
      "channel": 0,
      "note": 66,
      "start": 19.4279,
      "duration": 0.0787,
      "velocity": 105,
      "chip": "ym2612"
    },
    {
      "channel": 3,
      "note": 75,
      "start": 19.4298,
      "duration": 0.0787,
      "velocity": 93,
      "chip": "ym2612"
    },
    {
      "channel": 1,
      "note": 83,
      "start": 19.5074,
      "duration": 0.079,
      "velocity": 105,
      "chip": "ym2612"
    },
    {
      "channel": 2,
      "note": 76,
      "start": 19.5083,
      "duration": 0.0783,
      "velocity": 93,
      "chip": "ym2612"
    },
    {
      "channel": 4,
      "note": 52,
      "start": 19.5092,
      "duration": 0.078,
      "velocity": 97,
      "chip": "ym2612"
    },
    {
      "channel": 5,
      "note": 54,
      "start": 19.513,
      "duration": 0.1232,
      "velocity": 117,
      "chip": "ym2612"
    },
    {
      "channel": 0,
      "note": 63,
      "start": 19.5549,
      "duration": 0.0787,
      "velocity": 105,
      "chip": "ym2612"
    },
    {
      "channel": 3,
      "note": 87,
      "start": 19.5567,
      "duration": 0.0788,
      "velocity": 93,
      "chip": "ym2612"
    },
    {
      "channel": 1,
      "note": 80,
      "start": 19.6344,
      "duration": 0.079,
      "velocity": 105,
      "chip": "ym2612"
    },
    {
      "channel": 2,
      "note": 76,
      "start": 19.6353,
      "duration": 0.0783,
      "velocity": 93,
      "chip": "ym2612"
    },
    {
      "channel": 0,
      "note": 83,
      "start": 19.666,
      "duration": 0.0787,
      "velocity": 105,
      "chip": "ym2612"
    },
    {
      "channel": 3,
      "note": 76,
      "start": 19.6679,
      "duration": 0.0783,
      "velocity": 93,
      "chip": "ym2612"
    },
    {
      "channel": 1,
      "note": 76,
      "start": 19.7455,
      "duration": 0.079,
      "velocity": 105,
      "chip": "ym2612"
    },
    {
      "channel": 4,
      "note": 64,
      "start": 19.747,
      "duration": 0.1744,
      "velocity": 97,
      "chip": "ym2612"
    },
    {
      "channel": 5,
      "note": 57,
      "start": 19.7508,
      "duration": 0.1235,
      "velocity": 115,
      "chip": "ym2612"
    },
    {
      "channel": 0,
      "note": 80,
      "start": 19.7931,
      "duration": 0.0786,
      "velocity": 105,
      "chip": "ym2612"
    },
    {
      "channel": 3,
      "note": 76,
      "start": 19.7949,
      "duration": 0.0787,
      "velocity": 93,
      "chip": "ym2612"
    },
    {
      "channel": 1,
      "note": 71,
      "start": 19.8726,
      "duration": 0.079,
      "velocity": 105,
      "chip": "ym2612"
    },
    {
      "channel": 2,
      "note": 76,
      "start": 19.8735,
      "duration": 0.0783,
      "velocity": 93,
      "chip": "ym2612"
    },
    {
      "channel": 5,
      "note": 57,
      "start": 19.875,
      "duration": 0.1141,
      "velocity": 127,
      "chip": "ym2612"
    },
    {
      "channel": 0,
      "note": 76,
      "start": 19.9042,
      "duration": 0.0786,
      "velocity": 105,
      "chip": "ym2612"
    },
    {
      "channel": 1,
      "note": 80,
      "start": 19.9837,
      "duration": 0.079,
      "velocity": 105,
      "chip": "ym2612"
    },
    {
      "channel": 2,
      "note": 88,
      "start": 19.9847,
      "duration": 0.1739,
      "velocity": 93,
      "chip": "ym2612"
    },
    {
      "channel": 4,
      "note": 59,
      "start": 19.9859,
      "duration": 0.1732,
      "velocity": 97,
      "chip": "ym2612"
    },
    {
      "channel": 5,
      "note": 45,
      "start": 19.9898,
      "duration": 0.1223,
      "velocity": 127,
      "chip": "ym2612"
    },
    {
      "channel": 0,
      "note": 71,
      "start": 20.0312,
      "duration": 0.0787,
      "velocity": 105,
      "chip": "ym2612"
    },
    {
      "channel": 3,
      "note": 76,
      "start": 20.033,
      "duration": 0.0784,
      "velocity": 93,
      "chip": "ym2612"
    },
    {
      "channel": 1,
      "note": 76,
      "start": 20.1107,
      "duration": 0.079,
      "velocity": 105,
      "chip": "ym2612"
    },
    {
      "channel": 0,
      "note": 80,
      "start": 20.1423,
      "duration": 0.0787,
      "velocity": 105,
      "chip": "ym2612"
    },
    {
      "channel": 3,
      "note": 88,
      "start": 20.1443,
      "duration": 0.1735,
      "velocity": 93,
      "chip": "ym2612"
    },
    {
      "channel": 1,
      "note": 71,
      "start": 20.2218,
      "duration": 0.079,
      "velocity": 105,
      "chip": "ym2612"
    },
    {
      "channel": 2,
      "note": 76,
      "start": 20.2228,
      "duration": 0.0783,
      "velocity": 93,
      "chip": "ym2612"
    },
    {
      "channel": 4,
      "note": 56,
      "start": 20.224,
      "duration": 0.1736,
      "velocity": 97,
      "chip": "ym2612"
    },
    {
      "channel": 5,
      "note": 57,
      "start": 20.2278,
      "duration": 0.123,
      "velocity": 115,
      "chip": "ym2612"
    },
    {
      "channel": 0,
      "note": 76,
      "start": 20.2693,
      "duration": 0.0787,
      "velocity": 105,
      "chip": "ym2612"
    },
    {
      "channel": 1,
      "note": 68,
      "start": 20.3488,
      "duration": 0.079,
      "velocity": 105,
      "chip": "ym2612"
    },
    {
      "channel": 2,
      "note": 76,
      "start": 20.3497,
      "duration": 0.0783,
      "velocity": 93,
      "chip": "ym2612"
    },
    {
      "channel": 5,
      "note": 57,
      "start": 20.3515,
      "duration": 0.1123,
      "velocity": 117,
      "chip": "ym2612"
    },
    {
      "channel": 0,
      "note": 71,
      "start": 20.3804,
      "duration": 0.0787,
      "velocity": 105,
      "chip": "ym2612"
    },
    {
      "channel": 3,
      "note": 76,
      "start": 20.3824,
      "duration": 0.078,
      "velocity": 93,
      "chip": "ym2612"
    },
    {
      "channel": 1,
      "note": 76,
      "start": 20.4599,
      "duration": 0.079,
      "velocity": 105,
      "chip": "ym2612"
    },
    {
      "channel": 5,
      "note": 54,
      "start": 20.4646,
      "duration": 0.1237,
      "velocity": 117,
      "chip": "ym2612"
    },
    {
      "channel": 0,
      "note": 68,
      "start": 20.5074,
      "duration": 0.0786,
      "velocity": 105,
      "chip": "ym2612"
    },
    {
      "channel": 3,
      "note": 76,
      "start": 20.5089,
      "duration": 0.0783,
      "velocity": 93,
      "chip": "ym2612"
    },
    {
      "channel": 1,
      "note": 71,
      "start": 20.587,
      "duration": 0.079,
      "velocity": 105,
      "chip": "ym2612"
    },
    {
      "channel": 4,
      "note": 56,
      "start": 20.5879,
      "duration": 0.174,
      "velocity": 97,
      "chip": "ym2612"
    },
    {
      "channel": 0,
      "note": 76,
      "start": 20.6186,
      "duration": 0.0786,
      "velocity": 105,
      "chip": "ym2612"
    },
    {
      "channel": 1,
      "note": 68,
      "start": 20.6981,
      "duration": 0.079,
      "velocity": 105,
      "chip": "ym2612"
    },
    {
      "channel": 5,
      "note": 57,
      "start": 20.7024,
      "duration": 0.1239,
      "velocity": 115,
      "chip": "ym2612"
    },
    {
      "channel": 0,
      "note": 71,
      "start": 20.7455,
      "duration": 0.0787,
      "velocity": 105,
      "chip": "ym2612"
    },
    {
      "channel": 1,
      "note": 64,
      "start": 20.8251,
      "duration": 0.079,
      "velocity": 105,
      "chip": "ym2612"
    },
    {
      "channel": 4,
      "note": 56,
      "start": 20.8261,
      "duration": 0.0783,
      "velocity": 97,
      "chip": "ym2612"
    },
    {
      "channel": 5,
      "note": 57,
      "start": 20.8271,
      "duration": 0.1132,
      "velocity": 127,
      "chip": "ym2612"
    },
    {
      "channel": 0,
      "note": 68,
      "start": 20.8567,
      "duration": 0.0787,
      "velocity": 105,
      "chip": "ym2612"
    },
    {
      "channel": 1,
      "note": 71,
      "start": 20.9362,
      "duration": 0.079,
      "velocity": 105,
      "chip": "ym2612"
    },
    {
      "channel": 4,
      "note": 59,
      "start": 20.9372,
      "duration": 0.174,
      "velocity": 97,
      "chip": "ym2612"
    },
    {
      "channel": 5,
      "note": 45,
      "start": 20.941,
      "duration": 0.123,
      "velocity": 127,
      "chip": "ym2612"
    },
    {
      "channel": 0,
      "note": 64,
      "start": 20.9837,
      "duration": 0.0786,
      "velocity": 105,
      "chip": "ym2612"
    },
    {
      "channel": 1,
      "note": 68,
      "start": 21.0632,
      "duration": 0.079,
      "velocity": 105,
      "chip": "ym2612"
    },
    {
      "channel": 0,
      "note": 71,
      "start": 21.0948,
      "duration": 0.0787,
      "velocity": 105,
      "chip": "ym2612"
    },
    {
      "channel": 1,
      "note": 64,
      "start": 21.1744,
      "duration": 0.079,
      "velocity": 105,
      "chip": "ym2612"
    },
    {
      "channel": 2,
      "note": 76,
      "start": 21.1753,
      "duration": 0.0783,
      "velocity": 93,
      "chip": "ym2612"
    },
    {
      "channel": 4,
      "note": 52,
      "start": 21.1761,
      "duration": 0.174,
      "velocity": 97,
      "chip": "ym2612"
    },
    {
      "channel": 5,
      "note": 57,
      "start": 21.1799,
      "duration": 0.1231,
      "velocity": 115,
      "chip": "ym2612"
    },
    {
      "channel": 0,
      "note": 68,
      "start": 21.2218,
      "duration": 0.0787,
      "velocity": 105,
      "chip": "ym2612"
    },
    {
      "channel": 1,
      "note": 59,
      "start": 21.3013,
      "duration": 0.079,
      "velocity": 105,
      "chip": "ym2612"
    },
    {
      "channel": 2,
      "note": 88,
      "start": 21.3022,
      "duration": 0.0783,
      "velocity": 93,
      "chip": "ym2612"
    },
    {
      "channel": 5,
      "note": 57,
      "start": 21.3037,
      "duration": 0.1136,
      "velocity": 117,
      "chip": "ym2612"
    },
    {
      "channel": 0,
      "note": 64,
      "start": 21.3329,
      "duration": 0.0786,
      "velocity": 105,
      "chip": "ym2612"
    },
    {
      "channel": 3,
      "note": 76,
      "start": 21.3349,
      "duration": 0.0787,
      "velocity": 93,
      "chip": "ym2612"
    },
    {
      "channel": 1,
      "note": 89,
      "start": 21.4125,
      "duration": 0.079,
      "velocity": 105,
      "chip": "ym2612"
    },
    {
      "channel": 2,
      "note": 89,
      "start": 21.4134,
      "duration": 0.0783,
      "velocity": 93,
      "chip": "ym2612"
    },
    {
      "channel": 4,
      "note": 53,
      "start": 21.4142,
      "duration": 0.1741,
      "velocity": 97,
      "chip": "ym2612"
    },
    {
      "channel": 5,
      "note": 54,
      "start": 21.418,
      "duration": 0.1232,
      "velocity": 117,
      "chip": "ym2612"
    },
    {
      "channel": 0,
      "note": 59,
      "start": 21.4599,
      "duration": 0.0787,
      "velocity": 105,
      "chip": "ym2612"
    },
    {
      "channel": 3,
      "note": 88,
      "start": 21.4618,
      "duration": 0.0788,
      "velocity": 93,
      "chip": "ym2612"
    },
    {
      "channel": 1,
      "note": 85,
      "start": 21.5395,
      "duration": 0.0789,
      "velocity": 105,
      "chip": "ym2612"
    },
    {
      "channel": 2,
      "note": 85,
      "start": 21.5404,
      "duration": 0.0783,
      "velocity": 93,
      "chip": "ym2612"
    },
    {
      "channel": 0,
      "note": 89,
      "start": 21.5711,
      "duration": 0.0786,
      "velocity": 105,
      "chip": "ym2612"
    },
    {
      "channel": 3,
      "note": 89,
      "start": 21.573,
      "duration": 0.0787,
      "velocity": 93,
      "chip": "ym2612"
    },
    {
      "channel": 1,
      "note": 80,
      "start": 21.6506,
      "duration": 0.0791,
      "velocity": 105,
      "chip": "ym2612"
    },
    {
      "channel": 2,
      "note": 80,
      "start": 21.6515,
      "duration": 0.0783,
      "velocity": 93,
      "chip": "ym2612"
    },
    {
      "channel": 4,
      "note": 53,
      "start": 21.6524,
      "duration": 0.174,
      "velocity": 97,
      "chip": "ym2612"
    },
    {
      "channel": 5,
      "note": 57,
      "start": 21.6562,
      "duration": 0.1232,
      "velocity": 115,
      "chip": "ym2612"
    },
    {
      "channel": 0,
      "note": 85,
      "start": 21.6981,
      "duration": 0.0787,
      "velocity": 105,
      "chip": "ym2612"
    },
    {
      "channel": 3,
      "note": 85,
      "start": 21.6999,
      "duration": 0.0787,
      "velocity": 93,
      "chip": "ym2612"
    },
    {
      "channel": 1,
      "note": 77,
      "start": 21.7776,
      "duration": 0.079,
      "velocity": 105,
      "chip": "ym2612"
    },
    {
      "channel": 2,
      "note": 77,
      "start": 21.7785,
      "duration": 0.0783,
      "velocity": 93,
      "chip": "ym2612"
    },
    {
      "channel": 5,
      "note": 57,
      "start": 21.78,
      "duration": 0.1136,
      "velocity": 127,
      "chip": "ym2612"
    },
    {
      "channel": 0,
      "note": 80,
      "start": 21.8092,
      "duration": 0.0786,
      "velocity": 105,
      "chip": "ym2612"
    },
    {
      "channel": 3,
      "note": 80,
      "start": 21.8111,
      "duration": 0.0788,
      "velocity": 93,
      "chip": "ym2612"
    },
    {
      "channel": 1,
      "note": 85,
      "start": 21.8887,
      "duration": 0.079,
      "velocity": 105,
      "chip": "ym2612"
    },
    {
      "channel": 2,
      "note": 85,
      "start": 21.8896,
      "duration": 0.0782,
      "velocity": 93,
      "chip": "ym2612"
    },
    {
      "channel": 4,
      "note": 53,
      "start": 21.8905,
      "duration": 0.174,
      "velocity": 97,
      "chip": "ym2612"
    },
    {
      "channel": 5,
      "note": 45,
      "start": 21.8943,
      "duration": 0.1231,
      "velocity": 127,
      "chip": "ym2612"
    },
    {
      "channel": 0,
      "note": 77,
      "start": 21.9362,
      "duration": 0.0787,
      "velocity": 105,
      "chip": "ym2612"
    },
    {
      "channel": 3,
      "note": 77,
      "start": 21.938,
      "duration": 0.0787,
      "velocity": 93,
      "chip": "ym2612"
    },
    {
      "channel": 1,
      "note": 80,
      "start": 22.0157,
      "duration": 0.079,
      "velocity": 105,
      "chip": "ym2612"
    },
    {
      "channel": 2,
      "note": 80,
      "start": 22.0166,
      "duration": 0.0783,
      "velocity": 93,
      "chip": "ym2612"
    },
    {
      "channel": 0,
      "note": 85,
      "start": 22.0473,
      "duration": 0.0787,
      "velocity": 105,
      "chip": "ym2612"
    },
    {
      "channel": 3,
      "note": 85,
      "start": 22.0492,
      "duration": 0.0788,
      "velocity": 93,
      "chip": "ym2612"
    },
    {
      "channel": 1,
      "note": 77,
      "start": 22.1268,
      "duration": 0.079,
      "velocity": 105,
      "chip": "ym2612"
    },
    {
      "channel": 2,
      "note": 77,
      "start": 22.1277,
      "duration": 0.0783,
      "velocity": 93,
      "chip": "ym2612"
    },
    {
      "channel": 4,
      "note": 65,
      "start": 22.1288,
      "duration": 0.0779,
      "velocity": 97,
      "chip": "ym2612"
    },
    {
      "channel": 5,
      "note": 54,
      "start": 22.1325,
      "duration": 0.1234,
      "velocity": 122,
      "chip": "ym2612"
    },
    {
      "channel": 0,
      "note": 80,
      "start": 22.1744,
      "duration": 0.0786,
      "velocity": 105,
      "chip": "ym2612"
    },
    {
      "channel": 3,
      "note": 80,
      "start": 22.1762,
      "duration": 0.0787,
      "velocity": 93,
      "chip": "ym2612"
    },
    {
      "channel": 1,
      "note": 73,
      "start": 22.2539,
      "duration": 0.079,
      "velocity": 105,
      "chip": "ym2612"
    },
    {
      "channel": 2,
      "note": 73,
      "start": 22.2547,
      "duration": 0.0783,
      "velocity": 93,
      "chip": "ym2612"
    },
    {
      "channel": 4,
      "note": 65,
      "start": 22.2557,
      "duration": 0.078,
      "velocity": 97,
      "chip": "ym2612"
    },
    {
      "channel": 0,
      "note": 77,
      "start": 22.2855,
      "duration": 0.0786,
      "velocity": 105,
      "chip": "ym2612"
    },
    {
      "channel": 3,
      "note": 77,
      "start": 22.2873,
      "duration": 0.0787,
      "velocity": 93,
      "chip": "ym2612"
    },
    {
      "channel": 1,
      "note": 80,
      "start": 22.365,
      "duration": 0.079,
      "velocity": 105,
      "chip": "ym2612"
    },
    {
      "channel": 2,
      "note": 80,
      "start": 22.3659,
      "duration": 0.0783,
      "velocity": 93,
      "chip": "ym2612"
    },
    {
      "channel": 4,
      "note": 49,
      "start": 22.3668,
      "duration": 0.174,
      "velocity": 97,
      "chip": "ym2612"
    },
    {
      "channel": 5,
      "note": 54,
      "start": 22.3706,
      "duration": 0.1259,
      "velocity": 122,
      "chip": "ym2612"
    },
    {
      "channel": 0,
      "note": 73,
      "start": 22.4125,
      "duration": 0.0787,
      "velocity": 105,
      "chip": "ym2612"
    },
    {
      "channel": 3,
      "note": 73,
      "start": 22.4143,
      "duration": 0.0788,
      "velocity": 93,
      "chip": "ym2612"
    },
    {
      "channel": 1,
      "note": 77,
      "start": 22.492,
      "duration": 0.079,
      "velocity": 105,
      "chip": "ym2612"
    },
    {
      "channel": 2,
      "note": 77,
      "start": 22.4929,
      "duration": 0.0783,
      "velocity": 93,
      "chip": "ym2612"
    },
    {
      "channel": 5,
      "note": 49,
      "start": 22.4972,
      "duration": 0.1108,
      "velocity": 122,
      "chip": "ym2612"
    },
    {
      "channel": 0,
      "note": 80,
      "start": 22.5236,
      "duration": 0.0787,
      "velocity": 105,
      "chip": "ym2612"
    },
    {
      "channel": 3,
      "note": 80,
      "start": 22.5254,
      "duration": 0.0787,
      "velocity": 93,
      "chip": "ym2612"
    },
    {
      "channel": 1,
      "note": 73,
      "start": 22.6031,
      "duration": 0.079,
      "velocity": 105,
      "chip": "ym2612"
    },
    {
      "channel": 2,
      "note": 73,
      "start": 22.604,
      "duration": 0.0783,
      "velocity": 93,
      "chip": "ym2612"
    },
    {
      "channel": 4,
      "note": 49,
      "start": 22.6049,
      "duration": 0.174,
      "velocity": 97,
      "chip": "ym2612"
    },
    {
      "channel": 5,
      "note": 49,
      "start": 22.6086,
      "duration": 0.1232,
      "velocity": 122,
      "chip": "ym2612"
    },
    {
      "channel": 0,
      "note": 77,
      "start": 22.6506,
      "duration": 0.0787,
      "velocity": 105,
      "chip": "ym2612"
    },
    {
      "channel": 3,
      "note": 77,
      "start": 22.6524,
      "duration": 0.0788,
      "velocity": 93,
      "chip": "ym2612"
    },
    {
      "channel": 1,
      "note": 68,
      "start": 22.7302,
      "duration": 0.0789,
      "velocity": 105,
      "chip": "ym2612"
    },
    {
      "channel": 2,
      "note": 68,
      "start": 22.731,
      "duration": 0.0783,
      "velocity": 93,
      "chip": "ym2612"
    },
    {
      "channel": 0,
      "note": 73,
      "start": 22.7617,
      "duration": 0.0787,
      "velocity": 105,
      "chip": "ym2612"
    },
    {
      "channel": 3,
      "note": 73,
      "start": 22.7635,
      "duration": 0.0788,
      "velocity": 93,
      "chip": "ym2612"
    },
    {
      "channel": 1,
      "note": 77,
      "start": 22.8413,
      "duration": 0.0789,
      "velocity": 105,
      "chip": "ym2612"
    },
    {
      "channel": 2,
      "note": 77,
      "start": 22.8422,
      "duration": 0.0782,
      "velocity": 93,
      "chip": "ym2612"
    },
    {
      "channel": 4,
      "note": 49,
      "start": 22.8431,
      "duration": 0.174,
      "velocity": 97,
      "chip": "ym2612"
    },
    {
      "channel": 5,
      "note": 42,
      "start": 22.8468,
      "duration": 0.1259,
      "velocity": 122,
      "chip": "ym2612"
    },
    {
      "channel": 0,
      "note": 68,
      "start": 22.8887,
      "duration": 0.0787,
      "velocity": 105,
      "chip": "ym2612"
    },
    {
      "channel": 3,
      "note": 68,
      "start": 22.8905,
      "duration": 0.0788,
      "velocity": 93,
      "chip": "ym2612"
    },
    {
      "channel": 1,
      "note": 73,
      "start": 22.9683,
      "duration": 0.079,
      "velocity": 105,
      "chip": "ym2612"
    },
    {
      "channel": 2,
      "note": 73,
      "start": 22.9691,
      "duration": 0.0783,
      "velocity": 93,
      "chip": "ym2612"
    },
    {
      "channel": 5,
      "note": 42,
      "start": 22.9734,
      "duration": 0.1108,
      "velocity": 127,
      "chip": "ym2612"
    },
    {
      "channel": 0,
      "note": 77,
      "start": 22.9999,
      "duration": 0.0787,
      "velocity": 105,
      "chip": "ym2612"
    },
    {
      "channel": 3,
      "note": 77,
      "start": 23.0017,
      "duration": 0.0787,
      "velocity": 93,
      "chip": "ym2612"
    },
    {
      "channel": 1,
      "note": 68,
      "start": 23.0794,
      "duration": 0.079,
      "velocity": 105,
      "chip": "ym2612"
    },
    {
      "channel": 2,
      "note": 68,
      "start": 23.0803,
      "duration": 0.0783,
      "velocity": 93,
      "chip": "ym2612"
    },
    {
      "channel": 4,
      "note": 49,
      "start": 23.0812,
      "duration": 0.1741,
      "velocity": 97,
      "chip": "ym2612"
    },
    {
      "channel": 5,
      "note": 45,
      "start": 23.0849,
      "duration": 0.1232,
      "velocity": 127,
      "chip": "ym2612"
    },
    {
      "channel": 0,
      "note": 73,
      "start": 23.1268,
      "duration": 0.0787,
      "velocity": 105,
      "chip": "ym2612"
    },
    {
      "channel": 3,
      "note": 73,
      "start": 23.1287,
      "duration": 0.0787,
      "velocity": 93,
      "chip": "ym2612"
    },
    {
      "channel": 1,
      "note": 65,
      "start": 23.2063,
      "duration": 0.079,
      "velocity": 105,
      "chip": "ym2612"
    },
    {
      "channel": 2,
      "note": 65,
      "start": 23.2073,
      "duration": 0.0783,
      "velocity": 93,
      "chip": "ym2612"
    },
    {
      "channel": 5,
      "note": 45,
      "start": 23.2088,
      "duration": 0.1165,
      "velocity": 117,
      "chip": "ym2612"
    },
    {
      "channel": 0,
      "note": 68,
      "start": 23.238,
      "duration": 0.0787,
      "velocity": 105,
      "chip": "ym2612"
    },
    {
      "channel": 3,
      "note": 68,
      "start": 23.2398,
      "duration": 0.0816,
      "velocity": 93,
      "chip": "ym2612"
    },
    {
      "channel": 1,
      "note": 65,
      "start": 23.3178,
      "duration": 0.952,
      "velocity": 105,
      "chip": "ym2612"
    },
    {
      "channel": 2,
      "note": 66,
      "start": 23.3213,
      "duration": 0.0757,
      "velocity": 95,
      "chip": "ym2612"
    },
    {
      "channel": 4,
      "note": 54,
      "start": 23.3223,
      "duration": 0.0754,
      "velocity": 97,
      "chip": "ym2612"
    },
    {
      "channel": 5,
      "note": 54,
      "start": 23.326,
      "duration": 0.1198,
      "velocity": 117,
      "chip": "ym2612"
    },
    {
      "channel": 0,
      "note": 65,
      "start": 23.365,
      "duration": 0.0786,
      "velocity": 105,
      "chip": "ym2612"
    },
    {
      "channel": 3,
      "note": 65,
      "start": 23.3668,
      "duration": 0.0784,
      "velocity": 93,
      "chip": "ym2612"
    },
    {
      "channel": 2,
      "note": 61,
      "start": 23.445,
      "duration": 0.0789,
      "velocity": 95,
      "chip": "ym2612"
    },
    {
      "channel": 0,
      "note": 65,
      "start": 23.4763,
      "duration": 0.9517,
      "velocity": 105,
      "chip": "ym2612"
    },
    {
      "channel": 3,
      "note": 66,
      "start": 23.481,
      "duration": 0.0756,
      "velocity": 95,
      "chip": "ym2612"
    },
    {
      "channel": 2,
      "note": 70,
      "start": 23.5565,
      "duration": 0.0787,
      "velocity": 95,
      "chip": "ym2612"
    },
    {
      "channel": 4,
      "note": 66,
      "start": 23.5574,
      "duration": 0.174,
      "velocity": 97,
      "chip": "ym2612"
    },
    {
      "channel": 5,
      "note": 57,
      "start": 23.5612,
      "duration": 0.1231,
      "velocity": 115,
      "chip": "ym2612"
    },
    {
      "channel": 3,
      "note": 61,
      "start": 23.6046,
      "duration": 0.0791,
      "velocity": 95,
      "chip": "ym2612"
    },
    {
      "channel": 2,
      "note": 68,
      "start": 23.6835,
      "duration": 0.1739,
      "velocity": 95,
      "chip": "ym2612"
    },
    {
      "channel": 5,
      "note": 57,
      "start": 23.6851,
      "duration": 0.1132,
      "velocity": 127,
      "chip": "ym2612"
    },
    {
      "channel": 3,
      "note": 70,
      "start": 23.7157,
      "duration": 0.0787,
      "velocity": 95,
      "chip": "ym2612"
    },
    {
      "channel": 4,
      "note": 61,
      "start": 23.7952,
      "duration": 0.1744,
      "velocity": 97,
      "chip": "ym2612"
    },
    {
      "channel": 5,
      "note": 45,
      "start": 23.799,
      "duration": 0.1239,
      "velocity": 127,
      "chip": "ym2612"
    },
    {
      "channel": 3,
      "note": 68,
      "start": 23.8428,
      "duration": 0.1739,
      "velocity": 95,
      "chip": "ym2612"
    },
    {
      "channel": 2,
      "note": 70,
      "start": 23.9217,
      "duration": 0.0786,
      "velocity": 95,
      "chip": "ym2612"
    },
    {
      "channel": 2,
      "note": 66,
      "start": 24.0328,
      "duration": 0.1739,
      "velocity": 95,
      "chip": "ym2612"
    },
    {
      "channel": 4,
      "note": 58,
      "start": 24.0341,
      "duration": 0.0782,
      "velocity": 97,
      "chip": "ym2612"
    },
    {
      "channel": 5,
      "note": 57,
      "start": 24.038,
      "duration": 0.1226,
      "velocity": 115,
      "chip": "ym2612"
    },
    {
      "channel": 3,
      "note": 70,
      "start": 24.0807,
      "duration": 0.0789,
      "velocity": 95,
      "chip": "ym2612"
    },
    {
      "channel": 4,
      "note": 54,
      "start": 24.1603,
      "duration": 0.0787,
      "velocity": 97,
      "chip": "ym2612"
    },
    {
      "channel": 5,
      "note": 57,
      "start": 24.1613,
      "duration": 0.114,
      "velocity": 117,
      "chip": "ym2612"
    },
    {
      "channel": 3,
      "note": 66,
      "start": 24.192,
      "duration": 0.1739,
      "velocity": 95,
      "chip": "ym2612"
    },
    {
      "channel": 1,
      "note": 66,
      "start": 24.2704,
      "duration": 0.2692,
      "velocity": 105,
      "chip": "ym2612"
    },
    {
      "channel": 2,
      "note": 66,
      "start": 24.2714,
      "duration": 0.0782,
      "velocity": 95,
      "chip": "ym2612"
    },
    {
      "channel": 5,
      "note": 54,
      "start": 24.276,
      "duration": 0.1234,
      "velocity": 117,
      "chip": "ym2612"
    },
    {
      "channel": 2,
      "note": 61,
      "start": 24.3978,
      "duration": 0.0787,
      "velocity": 95,
      "chip": "ym2612"
    },
    {
      "channel": 4,
      "note": 54,
      "start": 24.3991,
      "duration": 0.1737,
      "velocity": 97,
      "chip": "ym2612"
    },
    {
      "channel": 0,
      "note": 66,
      "start": 24.4288,
      "duration": 0.2691,
      "velocity": 105,
      "chip": "ym2612"
    },
    {
      "channel": 3,
      "note": 66,
      "start": 24.4307,
      "duration": 0.0785,
      "velocity": 95,
      "chip": "ym2612"
    },
    {
      "channel": 2,
      "note": 70,
      "start": 24.509,
      "duration": 0.0786,
      "velocity": 95,
      "chip": "ym2612"
    },
    {
      "channel": 5,
      "note": 57,
      "start": 24.5134,
      "duration": 0.1244,
      "velocity": 115,
      "chip": "ym2612"
    },
    {
      "channel": 3,
      "note": 61,
      "start": 24.5571,
      "duration": 0.0795,
      "velocity": 95,
      "chip": "ym2612"
    },
    {
      "channel": 1,
      "note": 68,
      "start": 24.6355,
      "duration": 0.2692,
      "velocity": 105,
      "chip": "ym2612"
    },
    {
      "channel": 2,
      "note": 68,
      "start": 24.6364,
      "duration": 0.1735,
      "velocity": 95,
      "chip": "ym2612"
    },
    {
      "channel": 4,
      "note": 54,
      "start": 24.6374,
      "duration": 0.0783,
      "velocity": 97,
      "chip": "ym2612"
    },
    {
      "channel": 5,
      "note": 57,
      "start": 24.6384,
      "duration": 0.1125,
      "velocity": 127,
      "chip": "ym2612"
    },
    {
      "channel": 3,
      "note": 70,
      "start": 24.6683,
      "duration": 0.0787,
      "velocity": 95,
      "chip": "ym2612"
    },
    {
      "channel": 4,
      "note": 61,
      "start": 24.7478,
      "duration": 0.1744,
      "velocity": 97,
      "chip": "ym2612"
    },
    {
      "channel": 5,
      "note": 45,
      "start": 24.7516,
      "duration": 0.1237,
      "velocity": 127,
      "chip": "ym2612"
    },
    {
      "channel": 0,
      "note": 68,
      "start": 24.7938,
      "duration": 0.2692,
      "velocity": 105,
      "chip": "ym2612"
    },
    {
      "channel": 3,
      "note": 68,
      "start": 24.7957,
      "duration": 0.1735,
      "velocity": 95,
      "chip": "ym2612"
    },
    {
      "channel": 2,
      "note": 70,
      "start": 24.8742,
      "duration": 0.0786,
      "velocity": 95,
      "chip": "ym2612"
    },
    {
      "channel": 1,
      "note": 70,
      "start": 24.9849,
      "duration": 0.174,
      "velocity": 105,
      "chip": "ym2612"
    },
    {
      "channel": 2,
      "note": 66,
      "start": 24.9858,
      "duration": 0.1732,
      "velocity": 95,
      "chip": "ym2612"
    },
    {
      "channel": 4,
      "note": 58,
      "start": 24.987,
      "duration": 0.1726,
      "velocity": 97,
      "chip": "ym2612"
    },
    {
      "channel": 5,
      "note": 57,
      "start": 24.9908,
      "duration": 0.1218,
      "velocity": 115,
      "chip": "ym2612"
    },
    {
      "channel": 3,
      "note": 70,
      "start": 25.0334,
      "duration": 0.0786,
      "velocity": 95,
      "chip": "ym2612"
    },
    {
      "channel": 5,
      "note": 57,
      "start": 25.1134,
      "duration": 0.1149,
      "velocity": 117,
      "chip": "ym2612"
    },
    {
      "channel": 0,
      "note": 70,
      "start": 25.1431,
      "duration": 0.1739,
      "velocity": 105,
      "chip": "ym2612"
    },
    {
      "channel": 3,
      "note": 66,
      "start": 25.145,
      "duration": 0.1732,
      "velocity": 95,
      "chip": "ym2612"
    },
    {
      "channel": 1,
      "note": 68,
      "start": 25.223,
      "duration": 0.2691,
      "velocity": 105,
      "chip": "ym2612"
    },
    {
      "channel": 2,
      "note": 71,
      "start": 25.2239,
      "duration": 0.0781,
      "velocity": 95,
      "chip": "ym2612"
    },
    {
      "channel": 4,
      "note": 49,
      "start": 25.2253,
      "duration": 0.0774,
      "velocity": 97,
      "chip": "ym2612"
    },
    {
      "channel": 5,
      "note": 54,
      "start": 25.229,
      "duration": 0.1225,
      "velocity": 117,
      "chip": "ym2612"
    },
    {
      "channel": 2,
      "note": 61,
      "start": 25.3504,
      "duration": 0.0786,
      "velocity": 95,
      "chip": "ym2612"
    },
    {
      "channel": 0,
      "note": 68,
      "start": 25.3812,
      "duration": 0.2692,
      "velocity": 105,
      "chip": "ym2612"
    },
    {
      "channel": 3,
      "note": 71,
      "start": 25.3831,
      "duration": 0.0786,
      "velocity": 95,
      "chip": "ym2612"
    },
    {
      "channel": 2,
      "note": 71,
      "start": 25.4615,
      "duration": 0.0786,
      "velocity": 95,
      "chip": "ym2612"
    },
    {
      "channel": 4,
      "note": 61,
      "start": 25.4625,
      "duration": 0.174,
      "velocity": 97,
      "chip": "ym2612"
    },
    {
      "channel": 5,
      "note": 57,
      "start": 25.4663,
      "duration": 0.1234,
      "velocity": 115,
      "chip": "ym2612"
    },
    {
      "channel": 3,
      "note": 61,
      "start": 25.5097,
      "duration": 0.0794,
      "velocity": 95,
      "chip": "ym2612"
    },
    {
      "channel": 1,
      "note": 66,
      "start": 25.588,
      "duration": 0.2692,
      "velocity": 105,
      "chip": "ym2612"
    },
    {
      "channel": 2,
      "note": 61,
      "start": 25.5889,
      "duration": 0.0783,
      "velocity": 95,
      "chip": "ym2612"
    },
    {
      "channel": 5,
      "note": 57,
      "start": 25.5904,
      "duration": 0.1134,
      "velocity": 127,
      "chip": "ym2612"
    },
    {
      "channel": 3,
      "note": 71,
      "start": 25.6207,
      "duration": 0.0791,
      "velocity": 95,
      "chip": "ym2612"
    },
    {
      "channel": 2,
      "note": 71,
      "start": 25.6996,
      "duration": 0.0787,
      "velocity": 95,
      "chip": "ym2612"
    },
    {
      "channel": 4,
      "note": 49,
      "start": 25.7006,
      "duration": 0.0783,
      "velocity": 97,
      "chip": "ym2612"
    },
    {
      "channel": 5,
      "note": 45,
      "start": 25.7044,
      "duration": 0.1235,
      "velocity": 127,
      "chip": "ym2612"
    },
    {
      "channel": 0,
      "note": 66,
      "start": 25.7463,
      "duration": 0.2692,
      "velocity": 105,
      "chip": "ym2612"
    },
    {
      "channel": 3,
      "note": 61,
      "start": 25.7481,
      "duration": 0.0788,
      "velocity": 95,
      "chip": "ym2612"
    },
    {
      "channel": 2,
      "note": 70,
      "start": 25.8266,
      "duration": 0.0786,
      "velocity": 95,
      "chip": "ym2612"
    },
    {
      "channel": 4,
      "note": 49,
      "start": 25.8277,
      "duration": 0.1739,
      "velocity": 97,
      "chip": "ym2612"
    },
    {
      "channel": 3,
      "note": 71,
      "start": 25.8586,
      "duration": 0.0798,
      "velocity": 95,
      "chip": "ym2612"
    },
    {
      "channel": 1,
      "note": 61,
      "start": 25.9373,
      "duration": 0.539,
      "velocity": 105,
      "chip": "ym2612"
    },
    {
      "channel": 2,
      "note": 71,
      "start": 25.9382,
      "duration": 0.0779,
      "velocity": 95,
      "chip": "ym2612"
    },
    {
      "channel": 5,
      "note": 57,
      "start": 25.9426,
      "duration": 0.1235,
      "velocity": 115,
      "chip": "ym2612"
    },
    {
      "channel": 3,
      "note": 70,
      "start": 25.9859,
      "duration": 0.0791,
      "velocity": 95,
      "chip": "ym2612"
    },
    {
      "channel": 2,
      "note": 73,
      "start": 26.0648,
      "duration": 0.0787,
      "velocity": 95,
      "chip": "ym2612"
    },
    {
      "channel": 4,
      "note": 61,
      "start": 26.0658,
      "duration": 0.0783,
      "velocity": 97,
      "chip": "ym2612"
    },
    {
      "channel": 5,
      "note": 57,
      "start": 26.0668,
      "duration": 0.1132,
      "velocity": 117,
      "chip": "ym2612"
    },
    {
      "channel": 0,
      "note": 61,
      "start": 26.0956,
      "duration": 0.539,
      "velocity": 105,
      "chip": "ym2612"
    },
    {
      "channel": 3,
      "note": 71,
      "start": 26.0975,
      "duration": 0.0786,
      "velocity": 95,
      "chip": "ym2612"
    },
    {
      "channel": 2,
      "note": 75,
      "start": 26.1759,
      "duration": 0.0788,
      "velocity": 95,
      "chip": "ym2612"
    },
    {
      "channel": 4,
      "note": 61,
      "start": 26.1769,
      "duration": 0.1741,
      "velocity": 97,
      "chip": "ym2612"
    },
    {
      "channel": 5,
      "note": 54,
      "start": 26.1807,
      "duration": 0.123,
      "velocity": 117,
      "chip": "ym2612"
    },
    {
      "channel": 3,
      "note": 73,
      "start": 26.224,
      "duration": 0.079,
      "velocity": 95,
      "chip": "ym2612"
    },
    {
      "channel": 2,
      "note": 73,
      "start": 26.3029,
      "duration": 0.0788,
      "velocity": 95,
      "chip": "ym2612"
    },
    {
      "channel": 3,
      "note": 75,
      "start": 26.3352,
      "duration": 0.0791,
      "velocity": 95,
      "chip": "ym2612"
    },
    {
      "channel": 2,
      "note": 71,
      "start": 26.4141,
      "duration": 0.0787,
      "velocity": 95,
      "chip": "ym2612"
    },
    {
      "channel": 4,
      "note": 59,
      "start": 26.4151,
      "duration": 0.0783,
      "velocity": 97,
      "chip": "ym2612"
    },
    {
      "channel": 5,
      "note": 57,
      "start": 26.4188,
      "duration": 0.1235,
      "velocity": 115,
      "chip": "ym2612"
    },
    {
      "channel": 3,
      "note": 73,
      "start": 26.4622,
      "duration": 0.0791,
      "velocity": 95,
      "chip": "ym2612"
    },
    {
      "channel": 2,
      "note": 70,
      "start": 26.5411,
      "duration": 0.1739,
      "velocity": 95,
      "chip": "ym2612"
    },
    {
      "channel": 4,
      "note": 58,
      "start": 26.5421,
      "duration": 0.1735,
      "velocity": 97,
      "chip": "ym2612"
    },
    {
      "channel": 5,
      "note": 57,
      "start": 26.5431,
      "duration": 0.1127,
      "velocity": 127,
      "chip": "ym2612"
    },
    {
      "channel": 3,
      "note": 71,
      "start": 26.5732,
      "duration": 0.0792,
      "velocity": 95,
      "chip": "ym2612"
    },
    {
      "channel": 1,
      "note": 61,
      "start": 26.6518,
      "duration": 0.3484,
      "velocity": 105,
      "chip": "ym2612"
    },
    {
      "channel": 5,
      "note": 45,
      "start": 26.6566,
      "duration": 0.1243,
      "velocity": 127,
      "chip": "ym2612"
    },
    {
      "channel": 3,
      "note": 70,
      "start": 26.7004,
      "duration": 0.1738,
      "velocity": 95,
      "chip": "ym2612"
    },
    {
      "channel": 2,
      "note": 70,
      "start": 26.7793,
      "duration": 0.0786,
      "velocity": 95,
      "chip": "ym2612"
    },
    {
      "channel": 4,
      "note": 56,
      "start": 26.7806,
      "duration": 0.0779,
      "velocity": 97,
      "chip": "ym2612"
    },
    {
      "channel": 0,
      "note": 61,
      "start": 26.81,
      "duration": 0.3485,
      "velocity": 105,
      "chip": "ym2612"
    },
    {
      "channel": 2,
      "note": 68,
      "start": 26.8903,
      "duration": 0.1741,
      "velocity": 95,
      "chip": "ym2612"
    },
    {
      "channel": 4,
      "note": 53,
      "start": 26.8917,
      "duration": 0.1733,
      "velocity": 97,
      "chip": "ym2612"
    },
    {
      "channel": 5,
      "note": 57,
      "start": 26.8955,
      "duration": 0.1223,
      "velocity": 115,
      "chip": "ym2612"
    },
    {
      "channel": 3,
      "note": 70,
      "start": 26.9385,
      "duration": 0.0785,
      "velocity": 95,
      "chip": "ym2612"
    },
    {
      "channel": 5,
      "note": 57,
      "start": 27.0184,
      "duration": 0.1149,
      "velocity": 117,
      "chip": "ym2612"
    },
    {
      "channel": 3,
      "note": 68,
      "start": 27.0496,
      "duration": 0.1739,
      "velocity": 95,
      "chip": "ym2612"
    },
    {
      "channel": 1,
      "note": 63,
      "start": 27.128,
      "duration": 0.7296,
      "velocity": 105,
      "chip": "ym2612"
    },
    {
      "channel": 2,
      "note": 66,
      "start": 27.129,
      "duration": 0.0781,
      "velocity": 95,
      "chip": "ym2612"
    },
    {
      "channel": 4,
      "note": 51,
      "start": 27.1303,
      "duration": 0.0775,
      "velocity": 97,
      "chip": "ym2612"
    },
    {
      "channel": 5,
      "note": 54,
      "start": 27.134,
      "duration": 0.1225,
      "velocity": 117,
      "chip": "ym2612"
    },
    {
      "channel": 2,
      "note": 61,
      "start": 27.2555,
      "duration": 0.0786,
      "velocity": 95,
      "chip": "ym2612"
    },
    {
      "channel": 0,
      "note": 63,
      "start": 27.2863,
      "duration": 0.7296,
      "velocity": 105,
      "chip": "ym2612"
    },
    {
      "channel": 3,
      "note": 66,
      "start": 27.2882,
      "duration": 0.0786,
      "velocity": 95,
      "chip": "ym2612"
    },
    {
      "channel": 2,
      "note": 70,
      "start": 27.3665,
      "duration": 0.0787,
      "velocity": 95,
      "chip": "ym2612"
    },
    {
      "channel": 4,
      "note": 63,
      "start": 27.3676,
      "duration": 0.1741,
      "velocity": 97,
      "chip": "ym2612"
    },
    {
      "channel": 5,
      "note": 57,
      "start": 27.3713,
      "duration": 0.1232,
      "velocity": 115,
      "chip": "ym2612"
    },
    {
      "channel": 3,
      "note": 61,
      "start": 27.4147,
      "duration": 0.0791,
      "velocity": 95,
      "chip": "ym2612"
    },
    {
      "channel": 2,
      "note": 68,
      "start": 27.4936,
      "duration": 0.1739,
      "velocity": 95,
      "chip": "ym2612"
    },
    {
      "channel": 5,
      "note": 57,
      "start": 27.4952,
      "duration": 0.1132,
      "velocity": 127,
      "chip": "ym2612"
    },
    {
      "channel": 3,
      "note": 70,
      "start": 27.5258,
      "duration": 0.0787,
      "velocity": 95,
      "chip": "ym2612"
    },
    {
      "channel": 4,
      "note": 58,
      "start": 27.6053,
      "duration": 0.1744,
      "velocity": 97,
      "chip": "ym2612"
    },
    {
      "channel": 5,
      "note": 45,
      "start": 27.6091,
      "duration": 0.1239,
      "velocity": 127,
      "chip": "ym2612"
    },
    {
      "channel": 3,
      "note": 68,
      "start": 27.6529,
      "duration": 0.1739,
      "velocity": 95,
      "chip": "ym2612"
    },
    {
      "channel": 2,
      "note": 70,
      "start": 27.7318,
      "duration": 0.0785,
      "velocity": 95,
      "chip": "ym2612"
    },
    {
      "channel": 2,
      "note": 66,
      "start": 27.8429,
      "duration": 0.1737,
      "velocity": 95,
      "chip": "ym2612"
    },
    {
      "channel": 4,
      "note": 54,
      "start": 27.8442,
      "duration": 0.0782,
      "velocity": 97,
      "chip": "ym2612"
    },
    {
      "channel": 5,
      "note": 57,
      "start": 27.848,
      "duration": 0.1227,
      "velocity": 115,
      "chip": "ym2612"
    },
    {
      "channel": 3,
      "note": 70,
      "start": 27.8911,
      "duration": 0.0785,
      "velocity": 95,
      "chip": "ym2612"
    },
    {
      "channel": 4,
      "note": 51,
      "start": 27.9704,
      "duration": 0.1743,
      "velocity": 97,
      "chip": "ym2612"
    },
    {
      "channel": 5,
      "note": 57,
      "start": 27.9714,
      "duration": 0.1139,
      "velocity": 117,
      "chip": "ym2612"
    },
    {
      "channel": 3,
      "note": 66,
      "start": 28.0021,
      "duration": 0.174,
      "velocity": 95,
      "chip": "ym2612"
    },
    {
      "channel": 1,
      "note": 66,
      "start": 28.0805,
      "duration": 0.2691,
      "velocity": 105,
      "chip": "ym2612"
    },
    {
      "channel": 2,
      "note": 66,
      "start": 28.0815,
      "duration": 0.0781,
      "velocity": 95,
      "chip": "ym2612"
    },
    {
      "channel": 5,
      "note": 54,
      "start": 28.0861,
      "duration": 0.1234,
      "velocity": 117,
      "chip": "ym2612"
    },
    {
      "channel": 2,
      "note": 61,
      "start": 28.208,
      "duration": 0.0786,
      "velocity": 95,
      "chip": "ym2612"
    },
    {
      "channel": 4,
      "note": 51,
      "start": 28.2092,
      "duration": 0.1737,
      "velocity": 97,
      "chip": "ym2612"
    },
    {
      "channel": 0,
      "note": 66,
      "start": 28.2388,
      "duration": 0.2691,
      "velocity": 105,
      "chip": "ym2612"
    },
    {
      "channel": 3,
      "note": 66,
      "start": 28.2407,
      "duration": 0.0786,
      "velocity": 95,
      "chip": "ym2612"
    },
    {
      "channel": 2,
      "note": 70,
      "start": 28.3191,
      "duration": 0.0786,
      "velocity": 95,
      "chip": "ym2612"
    },
    {
      "channel": 5,
      "note": 57,
      "start": 28.3234,
      "duration": 0.1243,
      "velocity": 115,
      "chip": "ym2612"
    },
    {
      "channel": 3,
      "note": 61,
      "start": 28.3672,
      "duration": 0.0795,
      "velocity": 95,
      "chip": "ym2612"
    },
    {
      "channel": 1,
      "note": 68,
      "start": 28.4456,
      "duration": 0.2692,
      "velocity": 105,
      "chip": "ym2612"
    },
    {
      "channel": 2,
      "note": 68,
      "start": 28.4466,
      "duration": 0.1735,
      "velocity": 95,
      "chip": "ym2612"
    },
    {
      "channel": 4,
      "note": 63,
      "start": 28.4475,
      "duration": 0.1732,
      "velocity": 97,
      "chip": "ym2612"
    },
    {
      "channel": 5,
      "note": 57,
      "start": 28.4485,
      "duration": 0.112,
      "velocity": 127,
      "chip": "ym2612"
    },
    {
      "channel": 3,
      "note": 70,
      "start": 28.4783,
      "duration": 0.0787,
      "velocity": 95,
      "chip": "ym2612"
    },
    {
      "channel": 5,
      "note": 45,
      "start": 28.5612,
      "duration": 0.1247,
      "velocity": 127,
      "chip": "ym2612"
    },
    {
      "channel": 0,
      "note": 68,
      "start": 28.6038,
      "duration": 0.2692,
      "velocity": 105,
      "chip": "ym2612"
    },
    {
      "channel": 3,
      "note": 68,
      "start": 28.6057,
      "duration": 0.1736,
      "velocity": 95,
      "chip": "ym2612"
    },
    {
      "channel": 2,
      "note": 70,
      "start": 28.6843,
      "duration": 0.0786,
      "velocity": 95,
      "chip": "ym2612"
    },
    {
      "channel": 4,
      "note": 51,
      "start": 28.6856,
      "duration": 0.0779,
      "velocity": 97,
      "chip": "ym2612"
    },
    {
      "channel": 1,
      "note": 70,
      "start": 28.7949,
      "duration": 0.174,
      "velocity": 105,
      "chip": "ym2612"
    },
    {
      "channel": 2,
      "note": 66,
      "start": 28.7959,
      "duration": 0.1732,
      "velocity": 95,
      "chip": "ym2612"
    },
    {
      "channel": 4,
      "note": 63,
      "start": 28.7972,
      "duration": 0.1725,
      "velocity": 97,
      "chip": "ym2612"
    },
    {
      "channel": 5,
      "note": 57,
      "start": 28.801,
      "duration": 0.1217,
      "velocity": 115,
      "chip": "ym2612"
    },
    {
      "channel": 3,
      "note": 70,
      "start": 28.8436,
      "duration": 0.0786,
      "velocity": 95,
      "chip": "ym2612"
    },
    {
      "channel": 5,
      "note": 57,
      "start": 28.9235,
      "duration": 0.1149,
      "velocity": 117,
      "chip": "ym2612"
    },
    {
      "channel": 0,
      "note": 70,
      "start": 28.9532,
      "duration": 0.1739,
      "velocity": 105,
      "chip": "ym2612"
    },
    {
      "channel": 3,
      "note": 66,
      "start": 28.9551,
      "duration": 0.1732,
      "velocity": 95,
      "chip": "ym2612"
    },
    {
      "channel": 1,
      "note": 68,
      "start": 29.0331,
      "duration": 1.1265,
      "velocity": 105,
      "chip": "ym2612"
    },
    {
      "channel": 2,
      "note": 71,
      "start": 29.034,
      "duration": 0.0781,
      "velocity": 95,
      "chip": "ym2612"
    },
    {
      "channel": 4,
      "note": 53,
      "start": 29.0353,
      "duration": 0.0775,
      "velocity": 97,
      "chip": "ym2612"
    },
    {
      "channel": 5,
      "note": 54,
      "start": 29.039,
      "duration": 0.1225,
      "velocity": 117,
      "chip": "ym2612"
    },
    {
      "channel": 2,
      "note": 61,
      "start": 29.1604,
      "duration": 0.0787,
      "velocity": 95,
      "chip": "ym2612"
    },
    {
      "channel": 0,
      "note": 68,
      "start": 29.1913,
      "duration": 1.1265,
      "velocity": 105,
      "chip": "ym2612"
    },
    {
      "channel": 3,
      "note": 71,
      "start": 29.1932,
      "duration": 0.0785,
      "velocity": 95,
      "chip": "ym2612"
    },
    {
      "channel": 2,
      "note": 71,
      "start": 29.2716,
      "duration": 0.0787,
      "velocity": 95,
      "chip": "ym2612"
    },
    {
      "channel": 4,
      "note": 53,
      "start": 29.2725,
      "duration": 0.0784,
      "velocity": 97,
      "chip": "ym2612"
    },
    {
      "channel": 5,
      "note": 57,
      "start": 29.2763,
      "duration": 0.123,
      "velocity": 115,
      "chip": "ym2612"
    },
    {
      "channel": 3,
      "note": 61,
      "start": 29.3197,
      "duration": 0.079,
      "velocity": 95,
      "chip": "ym2612"
    },
    {
      "channel": 2,
      "note": 61,
      "start": 29.3986,
      "duration": 0.0787,
      "velocity": 95,
      "chip": "ym2612"
    },
    {
      "channel": 5,
      "note": 57,
      "start": 29.4001,
      "duration": 0.1137,
      "velocity": 127,
      "chip": "ym2612"
    },
    {
      "channel": 3,
      "note": 71,
      "start": 29.4308,
      "duration": 0.0791,
      "velocity": 95,
      "chip": "ym2612"
    },
    {
      "channel": 2,
      "note": 71,
      "start": 29.5098,
      "duration": 0.0786,
      "velocity": 95,
      "chip": "ym2612"
    },
    {
      "channel": 4,
      "note": 53,
      "start": 29.5107,
      "duration": 0.0784,
      "velocity": 97,
      "chip": "ym2612"
    },
    {
      "channel": 5,
      "note": 45,
      "start": 29.5145,
      "duration": 0.123,
      "velocity": 127,
      "chip": "ym2612"
    },
    {
      "channel": 3,
      "note": 61,
      "start": 29.5578,
      "duration": 0.0791,
      "velocity": 95,
      "chip": "ym2612"
    },
    {
      "channel": 2,
      "note": 70,
      "start": 29.6368,
      "duration": 0.0786,
      "velocity": 95,
      "chip": "ym2612"
    },
    {
      "channel": 3,
      "note": 71,
      "start": 29.669,
      "duration": 0.0791,
      "velocity": 95,
      "chip": "ym2612"
    },
    {
      "channel": 2,
      "note": 71,
      "start": 29.7479,
      "duration": 0.0786,
      "velocity": 95,
      "chip": "ym2612"
    },
    {
      "channel": 4,
      "note": 53,
      "start": 29.7488,
      "duration": 0.0784,
      "velocity": 97,
      "chip": "ym2612"
    },
    {
      "channel": 5,
      "note": 57,
      "start": 29.7525,
      "duration": 0.126,
      "velocity": 127,
      "chip": "ym2612"
    },
    {
      "channel": 3,
      "note": 70,
      "start": 29.796,
      "duration": 0.0791,
      "velocity": 95,
      "chip": "ym2612"
    },
    {
      "channel": 2,
      "note": 73,
      "start": 29.8749,
      "duration": 0.0786,
      "velocity": 95,
      "chip": "ym2612"
    },
    {
      "channel": 5,
      "note": 45,
      "start": 29.8792,
      "duration": 0.1108,
      "velocity": 117,
      "chip": "ym2612"
    },
    {
      "channel": 3,
      "note": 71,
      "start": 29.9071,
      "duration": 0.0791,
      "velocity": 95,
      "chip": "ym2612"
    },
    {
      "channel": 2,
      "note": 75,
      "start": 29.986,
      "duration": 0.0787,
      "velocity": 95,
      "chip": "ym2612"
    },
    {
      "channel": 4,
      "note": 49,
      "start": 29.9869,
      "duration": 0.0784,
      "velocity": 97,
      "chip": "ym2612"
    },
    {
      "channel": 5,
      "note": 54,
      "start": 29.9906,
      "duration": 0.1263,
      "velocity": 127,
      "chip": "ym2612"
    },
    {
      "channel": 3,
      "note": 73,
      "start": 30.0341,
      "duration": 0.0791,
      "velocity": 95,
      "chip": "ym2612"
    },
    {
      "channel": 2,
      "note": 73,
      "start": 30.113,
      "duration": 0.0788,
      "velocity": 95,
      "chip": "ym2612"
    },
    {
      "channel": 4,
      "note": 49,
      "start": 30.1139,
      "duration": 0.0785,
      "velocity": 97,
      "chip": "ym2612"
    },
    {
      "channel": 5,
      "note": 45,
      "start": 30.1177,
      "duration": 0.1105,
      "velocity": 117,
      "chip": "ym2612"
    },
    {
      "channel": 3,
      "note": 75,
      "start": 30.1452,
      "duration": 0.0791,
      "velocity": 95,
      "chip": "ym2612"
    },
    {
      "channel": 2,
      "note": 71,
      "start": 30.2242,
      "duration": 0.0786,
      "velocity": 95,
      "chip": "ym2612"
    },
    {
      "channel": 4,
      "note": 49,
      "start": 30.2252,
      "duration": 0.1739,
      "velocity": 97,
      "chip": "ym2612"
    },
    {
      "channel": 5,
      "note": 54,
      "start": 30.2289,
      "duration": 0.1258,
      "velocity": 115,
      "chip": "ym2612"
    },
    {
      "channel": 3,
      "note": 73,
      "start": 30.2722,
      "duration": 0.0791,
      "velocity": 95,
      "chip": "ym2612"
    },
    {
      "channel": 2,
      "note": 70,
      "start": 30.3512,
      "duration": 0.1739,
      "velocity": 95,
      "chip": "ym2612"
    },
    {
      "channel": 5,
      "note": 57,
      "start": 30.3555,
      "duration": 0.1108,
      "velocity": 127,
      "chip": "ym2612"
    },
    {
      "channel": 3,
      "note": 71,
      "start": 30.3834,
      "duration": 0.0791,
      "velocity": 95,
      "chip": "ym2612"
    },
    {
      "channel": 1,
      "note": 66,
      "start": 30.4618,
      "duration": 0.1739,
      "velocity": 105,
      "chip": "ym2612"
    },
    {
      "channel": 4,
      "note": 61,
      "start": 30.4632,
      "duration": 0.1737,
      "velocity": 97,
      "chip": "ym2612"
    },
    {
      "channel": 5,
      "note": 45,
      "start": 30.4671,
      "duration": 0.1234,
      "velocity": 127,
      "chip": "ym2612"
    },
    {
      "channel": 3,
      "note": 70,
      "start": 30.5104,
      "duration": 0.1738,
      "velocity": 95,
      "chip": "ym2612"
    },
    {
      "channel": 2,
      "note": 70,
      "start": 30.5893,
      "duration": 0.0786,
      "velocity": 95,
      "chip": "ym2612"
    },
    {
      "channel": 0,
      "note": 66,
      "start": 30.6201,
      "duration": 0.174,
      "velocity": 105,
      "chip": "ym2612"
    },
    {
      "channel": 1,
      "note": 68,
      "start": 30.6999,
      "duration": 0.1741,
      "velocity": 105,
      "chip": "ym2612"
    },
    {
      "channel": 2,
      "note": 68,
      "start": 30.7008,
      "duration": 0.1733,
      "velocity": 95,
      "chip": "ym2612"
    },
    {
      "channel": 4,
      "note": 49,
      "start": 30.7021,
      "duration": 0.1727,
      "velocity": 97,
      "chip": "ym2612"
    },
    {
      "channel": 5,
      "note": 57,
      "start": 30.7059,
      "duration": 0.1247,
      "velocity": 127,
      "chip": "ym2612"
    },
    {
      "channel": 3,
      "note": 70,
      "start": 30.7486,
      "duration": 0.0786,
      "velocity": 95,
      "chip": "ym2612"
    },
    {
      "channel": 5,
      "note": 45,
      "start": 30.8313,
      "duration": 0.1121,
      "velocity": 117,
      "chip": "ym2612"
    },
    {
      "channel": 0,
      "note": 68,
      "start": 30.8581,
      "duration": 0.174,
      "velocity": 105,
      "chip": "ym2612"
    },
    {
      "channel": 3,
      "note": 68,
      "start": 30.86,
      "duration": 0.1733,
      "velocity": 95,
      "chip": "ym2612"
    },
    {
      "channel": 1,
      "note": 66,
      "start": 30.9381,
      "duration": 0.7296,
      "velocity": 105,
      "chip": "ym2612"
    },
    {
      "channel": 2,
      "note": 66,
      "start": 30.939,
      "duration": 0.5385,
      "velocity": 95,
      "chip": "ym2612"
    },
    {
      "channel": 4,
      "note": 51,
      "start": 30.9403,
      "duration": 0.0778,
      "velocity": 97,
      "chip": "ym2612"
    },
    {
      "channel": 5,
      "note": 54,
      "start": 30.9441,
      "duration": 0.1222,
      "velocity": 117,
      "chip": "ym2612"
    },
    {
      "channel": 0,
      "note": 66,
      "start": 31.0964,
      "duration": 0.7296,
      "velocity": 105,
      "chip": "ym2612"
    },
    {
      "channel": 3,
      "note": 66,
      "start": 31.0983,
      "duration": 0.5385,
      "velocity": 95,
      "chip": "ym2612"
    },
    {
      "channel": 4,
      "note": 63,
      "start": 31.1776,
      "duration": 0.1741,
      "velocity": 97,
      "chip": "ym2612"
    },
    {
      "channel": 5,
      "note": 57,
      "start": 31.1814,
      "duration": 0.123,
      "velocity": 115,
      "chip": "ym2612"
    },
    {
      "channel": 5,
      "note": 57,
      "start": 31.3051,
      "duration": 0.1137,
      "velocity": 127,
      "chip": "ym2612"
    },
    {
      "channel": 4,
      "note": 61,
      "start": 31.4157,
      "duration": 0.174,
      "velocity": 97,
      "chip": "ym2612"
    },
    {
      "channel": 5,
      "note": 45,
      "start": 31.4195,
      "duration": 0.123,
      "velocity": 127,
      "chip": "ym2612"
    },
    {
      "channel": 2,
      "note": 54,
      "start": 31.653,
      "duration": 0.0785,
      "velocity": 95,
      "chip": "ym2612"
    },
    {
      "channel": 4,
      "note": 58,
      "start": 31.6543,
      "duration": 0.0778,
      "velocity": 97,
      "chip": "ym2612"
    },
    {
      "channel": 5,
      "note": 57,
      "start": 31.6581,
      "duration": 0.1233,
      "velocity": 115,
      "chip": "ym2612"
    },
    {
      "channel": 2,
      "note": 54,
      "start": 31.78,
      "duration": 0.1739,
      "velocity": 95,
      "chip": "ym2612"
    },
    {
      "channel": 4,
      "note": 54,
      "start": 31.7812,
      "duration": 0.0784,
      "velocity": 97,
      "chip": "ym2612"
    },
    {
      "channel": 5,
      "note": 57,
      "start": 31.7822,
      "duration": 0.1129,
      "velocity": 117,
      "chip": "ym2612"
    },
    {
      "channel": 3,
      "note": 54,
      "start": 31.8122,
      "duration": 0.0791,
      "velocity": 95,
      "chip": "ym2612"
    },
    {
      "channel": 1,
      "note": 70,
      "start": 31.8906,
      "duration": 0.2691,
      "velocity": 105,
      "chip": "ym2612"
    },
    {
      "channel": 4,
      "note": 51,
      "start": 31.892,
      "duration": 0.0787,
      "velocity": 97,
      "chip": "ym2612"
    },
    {
      "channel": 5,
      "note": 54,
      "start": 31.8958,
      "duration": 0.1232,
      "velocity": 117,
      "chip": "ym2612"
    },
    {
      "channel": 3,
      "note": 54,
      "start": 31.9393,
      "duration": 0.1734,
      "velocity": 95,
      "chip": "ym2612"
    },
    {
      "channel": 4,
      "note": 53,
      "start": 32.0187,
      "duration": 0.0785,
      "velocity": 97,
      "chip": "ym2612"
    },
    {
      "channel": 0,
      "note": 70,
      "start": 32.0489,
      "duration": 0.2691,
      "velocity": 105,
      "chip": "ym2612"
    },
    {
      "channel": 4,
      "note": 54,
      "start": 32.1296,
      "duration": 0.0784,
      "velocity": 97,
      "chip": "ym2612"
    },
    {
      "channel": 5,
      "note": 57,
      "start": 32.1334,
      "duration": 0.1234,
      "velocity": 115,
      "chip": "ym2612"
    },
    {
      "channel": 1,
      "note": 68,
      "start": 32.2557,
      "duration": 0.2692,
      "velocity": 105,
      "chip": "ym2612"
    },
    {
      "channel": 4,
      "note": 51,
      "start": 32.2566,
      "duration": 0.0784,
      "velocity": 97,
      "chip": "ym2612"
    },
    {
      "channel": 5,
      "note": 57,
      "start": 32.2576,
      "duration": 0.1128,
      "velocity": 127,
      "chip": "ym2612"
    },
    {
      "channel": 4,
      "note": 54,
      "start": 32.3673,
      "duration": 0.0788,
      "velocity": 97,
      "chip": "ym2612"
    },
    {
      "channel": 5,
      "note": 45,
      "start": 32.3711,
      "duration": 0.1235,
      "velocity": 127,
      "chip": "ym2612"
    },
    {
      "channel": 0,
      "note": 68,
      "start": 32.4139,
      "duration": 0.2692,
      "velocity": 105,
      "chip": "ym2612"
    },
    {
      "channel": 4,
      "note": 56,
      "start": 32.4943,
      "duration": 0.0788,
      "velocity": 97,
      "chip": "ym2612"
    },
    {
      "channel": 1,
      "note": 66,
      "start": 32.605,
      "duration": 0.174,
      "velocity": 105,
      "chip": "ym2612"
    },
    {
      "channel": 2,
      "note": 54,
      "start": 32.6059,
      "duration": 0.0778,
      "velocity": 95,
      "chip": "ym2612"
    },
    {
      "channel": 4,
      "note": 58,
      "start": 32.6067,
      "duration": 0.0773,
      "velocity": 97,
      "chip": "ym2612"
    },
    {
      "channel": 5,
      "note": 57,
      "start": 32.6105,
      "duration": 0.123,
      "velocity": 115,
      "chip": "ym2612"
    },
    {
      "channel": 2,
      "note": 54,
      "start": 32.7324,
      "duration": 0.0786,
      "velocity": 95,
      "chip": "ym2612"
    },
    {
      "channel": 4,
      "note": 54,
      "start": 32.7333,
      "duration": 0.0785,
      "velocity": 97,
      "chip": "ym2612"
    },
    {
      "channel": 5,
      "note": 57,
      "start": 32.7342,
      "duration": 0.1139,
      "velocity": 117,
      "chip": "ym2612"
    },
    {
      "channel": 0,
      "note": 66,
      "start": 32.7633,
      "duration": 0.174,
      "velocity": 105,
      "chip": "ym2612"
    },
    {
      "channel": 3,
      "note": 54,
      "start": 32.7652,
      "duration": 0.0791,
      "velocity": 95,
      "chip": "ym2612"
    },
    {
      "channel": 1,
      "note": 68,
      "start": 32.8431,
      "duration": 0.2691,
      "velocity": 105,
      "chip": "ym2612"
    },
    {
      "channel": 2,
      "note": 68,
      "start": 32.8441,
      "duration": 0.5385,
      "velocity": 95,
      "chip": "ym2612"
    },
    {
      "channel": 4,
      "note": 56,
      "start": 32.8451,
      "duration": 0.1735,
      "velocity": 97,
      "chip": "ym2612"
    },
    {
      "channel": 5,
      "note": 54,
      "start": 32.8488,
      "duration": 0.1222,
      "velocity": 117,
      "chip": "ym2612"
    },
    {
      "channel": 3,
      "note": 54,
      "start": 32.8917,
      "duration": 0.0787,
      "velocity": 95,
      "chip": "ym2612"
    },
    {
      "channel": 0,
      "note": 68,
      "start": 33.0014,
      "duration": 0.2691,
      "velocity": 105,
      "chip": "ym2612"
    },
    {
      "channel": 3,
      "note": 68,
      "start": 33.0033,
      "duration": 0.5387,
      "velocity": 95,
      "chip": "ym2612"
    },
    {
      "channel": 4,
      "note": 56,
      "start": 33.0826,
      "duration": 0.1741,
      "velocity": 97,
      "chip": "ym2612"
    },
    {
      "channel": 5,
      "note": 57,
      "start": 33.0863,
      "duration": 0.1235,
      "velocity": 115,
      "chip": "ym2612"
    },
    {
      "channel": 1,
      "note": 72,
      "start": 33.2082,
      "duration": 0.2691,
      "velocity": 105,
      "chip": "ym2612"
    },
    {
      "channel": 5,
      "note": 57,
      "start": 33.2106,
      "duration": 0.1132,
      "velocity": 127,
      "chip": "ym2612"
    },
    {
      "channel": 4,
      "note": 56,
      "start": 33.3207,
      "duration": 0.1742,
      "velocity": 97,
      "chip": "ym2612"
    },
    {
      "channel": 5,
      "note": 45,
      "start": 33.3245,
      "duration": 0.1231,
      "velocity": 127,
      "chip": "ym2612"
    },
    {
      "channel": 0,
      "note": 72,
      "start": 33.3665,
      "duration": 0.2692,
      "velocity": 105,
      "chip": "ym2612"
    },
    {
      "channel": 1,
      "note": 75,
      "start": 33.5575,
      "duration": 0.539,
      "velocity": 105,
      "chip": "ym2612"
    },
    {
      "channel": 2,
      "note": 56,
      "start": 33.5585,
      "duration": 0.0779,
      "velocity": 95,
      "chip": "ym2612"
    },
    {
      "channel": 4,
      "note": 68,
      "start": 33.5598,
      "duration": 0.0772,
      "velocity": 97,
      "chip": "ym2612"
    },
    {
      "channel": 5,
      "note": 57,
      "start": 33.5636,
      "duration": 0.1229,
      "velocity": 115,
      "chip": "ym2612"
    },
    {
      "channel": 2,
      "note": 56,
      "start": 33.685,
      "duration": 0.1739,
      "velocity": 95,
      "chip": "ym2612"
    },
    {
      "channel": 4,
      "note": 68,
      "start": 33.6863,
      "duration": 0.0783,
      "velocity": 97,
      "chip": "ym2612"
    },
    {
      "channel": 5,
      "note": 57,
      "start": 33.6873,
      "duration": 0.1124,
      "velocity": 117,
      "chip": "ym2612"
    },
    {
      "channel": 0,
      "note": 75,
      "start": 33.7158,
      "duration": 0.5389,
      "velocity": 105,
      "chip": "ym2612"
    },
    {
      "channel": 3,
      "note": 56,
      "start": 33.7177,
      "duration": 0.0782,
      "velocity": 95,
      "chip": "ym2612"
    },
    {
      "channel": 4,
      "note": 56,
      "start": 33.7966,
      "duration": 0.0792,
      "velocity": 97,
      "chip": "ym2612"
    },
    {
      "channel": 5,
      "note": 54,
      "start": 33.8004,
      "duration": 0.1237,
      "velocity": 117,
      "chip": "ym2612"
    },
    {
      "channel": 3,
      "note": 56,
      "start": 33.8443,
      "duration": 0.1735,
      "velocity": 95,
      "chip": "ym2612"
    },
    {
      "channel": 4,
      "note": 68,
      "start": 33.9237,
      "duration": 0.0786,
      "velocity": 97,
      "chip": "ym2612"
    },
    {
      "channel": 4,
      "note": 56,
      "start": 34.0348,
      "duration": 0.1736,
      "velocity": 97,
      "chip": "ym2612"
    },
    {
      "channel": 5,
      "note": 57,
      "start": 34.0385,
      "duration": 0.1226,
      "velocity": 115,
      "chip": "ym2612"
    },
    {
      "channel": 5,
      "note": 57,
      "start": 34.1618,
      "duration": 0.1141,
      "velocity": 127,
      "chip": "ym2612"
    },
    {
      "channel": 1,
      "note": 72,
      "start": 34.272,
      "duration": 0.3484,
      "velocity": 105,
      "chip": "ym2612"
    },
    {
      "channel": 4,
      "note": 56,
      "start": 34.2728,
      "duration": 0.1737,
      "velocity": 97,
      "chip": "ym2612"
    },
    {
      "channel": 5,
      "note": 45,
      "start": 34.2766,
      "duration": 0.1227,
      "velocity": 127,
      "chip": "ym2612"
    },
    {
      "channel": 0,
      "note": 72,
      "start": 34.4302,
      "duration": 0.3485,
      "velocity": 105,
      "chip": "ym2612"
    },
    {
      "channel": 2,
      "note": 56,
      "start": 34.5106,
      "duration": 0.0786,
      "velocity": 95,
      "chip": "ym2612"
    },
    {
      "channel": 4,
      "note": 68,
      "start": 34.5115,
      "duration": 0.078,
      "velocity": 97,
      "chip": "ym2612"
    },
    {
      "channel": 5,
      "note": 57,
      "start": 34.5152,
      "duration": 0.1234,
      "velocity": 115,
      "chip": "ym2612"
    },
    {
      "channel": 2,
      "note": 56,
      "start": 34.6375,
      "duration": 0.0787,
      "velocity": 95,
      "chip": "ym2612"
    },
    {
      "channel": 4,
      "note": 68,
      "start": 34.6383,
      "duration": 0.0785,
      "velocity": 97,
      "chip": "ym2612"
    },
    {
      "channel": 5,
      "note": 57,
      "start": 34.6393,
      "duration": 0.114,
      "velocity": 117,
      "chip": "ym2612"
    },
    {
      "channel": 3,
      "note": 56,
      "start": 34.6698,
      "duration": 0.0796,
      "velocity": 95,
      "chip": "ym2612"
    },
    {
      "channel": 1,
      "note": 73,
      "start": 34.7481,
      "duration": 0.3485,
      "velocity": 105,
      "chip": "ym2612"
    },
    {
      "channel": 2,
      "note": 68,
      "start": 34.7492,
      "duration": 0.3476,
      "velocity": 95,
      "chip": "ym2612"
    },
    {
      "channel": 4,
      "note": 49,
      "start": 34.7502,
      "duration": 0.1735,
      "velocity": 97,
      "chip": "ym2612"
    },
    {
      "channel": 5,
      "note": 54,
      "start": 34.7539,
      "duration": 0.1221,
      "velocity": 117,
      "chip": "ym2612"
    },
    {
      "channel": 3,
      "note": 56,
      "start": 34.7967,
      "duration": 0.0787,
      "velocity": 95,
      "chip": "ym2612"
    },
    {
      "channel": 0,
      "note": 73,
      "start": 34.9063,
      "duration": 0.3486,
      "velocity": 105,
      "chip": "ym2612"
    },
    {
      "channel": 3,
      "note": 68,
      "start": 34.9085,
      "duration": 0.3476,
      "velocity": 95,
      "chip": "ym2612"
    },
    {
      "channel": 4,
      "note": 61,
      "start": 34.9877,
      "duration": 0.0788,
      "velocity": 97,
      "chip": "ym2612"
    },
    {
      "channel": 5,
      "note": 57,
      "start": 34.9915,
      "duration": 0.123,
      "velocity": 115,
      "chip": "ym2612"
    },
    {
      "channel": 5,
      "note": 57,
      "start": 35.1152,
      "duration": 0.1146,
      "velocity": 127,
      "chip": "ym2612"
    },
    {
      "channel": 1,
      "note": 77,
      "start": 35.2244,
      "duration": 0.3485,
      "velocity": 105,
      "chip": "ym2612"
    },
    {
      "channel": 2,
      "note": 73,
      "start": 35.2253,
      "duration": 0.3478,
      "velocity": 95,
      "chip": "ym2612"
    },
    {
      "channel": 4,
      "note": 49,
      "start": 35.2266,
      "duration": 0.1733,
      "velocity": 97,
      "chip": "ym2612"
    },
    {
      "channel": 5,
      "note": 45,
      "start": 35.2305,
      "duration": 0.1222,
      "velocity": 127,
      "chip": "ym2612"
    },
    {
      "channel": 0,
      "note": 77,
      "start": 35.3826,
      "duration": 0.3485,
      "velocity": 105,
      "chip": "ym2612"
    },
    {
      "channel": 3,
      "note": 73,
      "start": 35.3845,
      "duration": 0.3478,
      "velocity": 95,
      "chip": "ym2612"
    },
    {
      "channel": 4,
      "note": 61,
      "start": 35.4639,
      "duration": 0.0788,
      "velocity": 97,
      "chip": "ym2612"
    },
    {
      "channel": 5,
      "note": 57,
      "start": 35.4677,
      "duration": 0.123,
      "velocity": 115,
      "chip": "ym2612"
    },
    {
      "channel": 5,
      "note": 57,
      "start": 35.5915,
      "duration": 0.1146,
      "velocity": 117,
      "chip": "ym2612"
    },
    {
      "channel": 1,
      "note": 80,
      "start": 35.7007,
      "duration": 0.2691,
      "velocity": 105,
      "chip": "ym2612"
    },
    {
      "channel": 2,
      "note": 77,
      "start": 35.7017,
      "duration": 0.2683,
      "velocity": 95,
      "chip": "ym2612"
    },
    {
      "channel": 4,
      "note": 49,
      "start": 35.703,
      "duration": 0.1732,
      "velocity": 97,
      "chip": "ym2612"
    },
    {
      "channel": 5,
      "note": 54,
      "start": 35.7068,
      "duration": 0.1221,
      "velocity": 117,
      "chip": "ym2612"
    },
    {
      "channel": 0,
      "note": 80,
      "start": 35.859,
      "duration": 0.2691,
      "velocity": 105,
      "chip": "ym2612"
    },
    {
      "channel": 3,
      "note": 77,
      "start": 35.8609,
      "duration": 0.2683,
      "velocity": 95,
      "chip": "ym2612"
    },
    {
      "channel": 4,
      "note": 61,
      "start": 35.9402,
      "duration": 0.0787,
      "velocity": 97,
      "chip": "ym2612"
    },
    {
      "channel": 5,
      "note": 57,
      "start": 35.944,
      "duration": 0.1241,
      "velocity": 115,
      "chip": "ym2612"
    },
    {
      "channel": 1,
      "note": 78,
      "start": 36.0658,
      "duration": 0.2691,
      "velocity": 105,
      "chip": "ym2612"
    },
    {
      "channel": 2,
      "note": 75,
      "start": 36.0666,
      "duration": 0.2685,
      "velocity": 95,
      "chip": "ym2612"
    },
    {
      "channel": 4,
      "note": 61,
      "start": 36.0679,
      "duration": 0.078,
      "velocity": 97,
      "chip": "ym2612"
    },
    {
      "channel": 5,
      "note": 57,
      "start": 36.0689,
      "duration": 0.1125,
      "velocity": 127,
      "chip": "ym2612"
    },
    {
      "channel": 4,
      "note": 49,
      "start": 36.1783,
      "duration": 0.1741,
      "velocity": 97,
      "chip": "ym2612"
    },
    {
      "channel": 5,
      "note": 45,
      "start": 36.1821,
      "duration": 0.123,
      "velocity": 127,
      "chip": "ym2612"
    },
    {
      "channel": 0,
      "note": 78,
      "start": 36.224,
      "duration": 0.2692,
      "velocity": 105,
      "chip": "ym2612"
    },
    {
      "channel": 3,
      "note": 75,
      "start": 36.2259,
      "duration": 0.2684,
      "velocity": 95,
      "chip": "ym2612"
    },
    {
      "channel": 1,
      "note": 77,
      "start": 36.4151,
      "duration": 0.174,
      "velocity": 105,
      "chip": "ym2612"
    },
    {
      "channel": 2,
      "note": 73,
      "start": 36.416,
      "duration": 0.1732,
      "velocity": 95,
      "chip": "ym2612"
    },
    {
      "channel": 4,
      "note": 61,
      "start": 36.4174,
      "duration": 0.0771,
      "velocity": 97,
      "chip": "ym2612"
    },
    {
      "channel": 5,
      "note": 57,
      "start": 36.4211,
      "duration": 0.1225,
      "velocity": 115,
      "chip": "ym2612"
    },
    {
      "channel": 4,
      "note": 61,
      "start": 36.5434,
      "duration": 0.0788,
      "velocity": 97,
      "chip": "ym2612"
    },
    {
      "channel": 5,
      "note": 57,
      "start": 36.5444,
      "duration": 0.1142,
      "velocity": 117,
      "chip": "ym2612"
    },
    {
      "channel": 0,
      "note": 77,
      "start": 36.5734,
      "duration": 0.1739,
      "velocity": 105,
      "chip": "ym2612"
    },
    {
      "channel": 3,
      "note": 73,
      "start": 36.5753,
      "duration": 0.1732,
      "velocity": 95,
      "chip": "ym2612"
    },
    {
      "channel": 1,
      "note": 78,
      "start": 36.6532,
      "duration": 1.5073,
      "velocity": 105,
      "chip": "ym2612"
    },
    {
      "channel": 2,
      "note": 73,
      "start": 36.6542,
      "duration": 0.5385,
      "velocity": 95,
      "chip": "ym2612"
    },
    {
      "channel": 4,
      "note": 54,
      "start": 36.6555,
      "duration": 0.1733,
      "velocity": 97,
      "chip": "ym2612"
    },
    {
      "channel": 5,
      "note": 54,
      "start": 36.6593,
      "duration": 0.1221,
      "velocity": 117,
      "chip": "ym2612"
    },
    {
      "channel": 0,
      "note": 78,
      "start": 36.8115,
      "duration": 1.5074,
      "velocity": 105,
      "chip": "ym2612"
    },
    {
      "channel": 3,
      "note": 73,
      "start": 36.8134,
      "duration": 0.5385,
      "velocity": 95,
      "chip": "ym2612"
    },
    {
      "channel": 4,
      "note": 54,
      "start": 36.8927,
      "duration": 0.0788,
      "velocity": 97,
      "chip": "ym2612"
    },
    {
      "channel": 5,
      "note": 57,
      "start": 36.8965,
      "duration": 0.1235,
      "velocity": 115,
      "chip": "ym2612"
    },
    {
      "channel": 4,
      "note": 61,
      "start": 37.0197,
      "duration": 0.1737,
      "velocity": 97,
      "chip": "ym2612"
    },
    {
      "channel": 5,
      "note": 57,
      "start": 37.0207,
      "duration": 0.1128,
      "velocity": 127,
      "chip": "ym2612"
    },
    {
      "channel": 5,
      "note": 45,
      "start": 37.1342,
      "duration": 0.124,
      "velocity": 127,
      "chip": "ym2612"
    },
    {
      "channel": 4,
      "note": 58,
      "start": 37.2579,
      "duration": 0.0787,
      "velocity": 97,
      "chip": "ym2612"
    },
    {
      "channel": 2,
      "note": 54,
      "start": 37.3681,
      "duration": 0.0786,
      "velocity": 95,
      "chip": "ym2612"
    },
    {
      "channel": 4,
      "note": 54,
      "start": 37.3695,
      "duration": 0.1736,
      "velocity": 97,
      "chip": "ym2612"
    },
    {
      "channel": 5,
      "note": 57,
      "start": 37.3732,
      "duration": 0.1258,
      "velocity": 127,
      "chip": "ym2612"
    },
    {
      "channel": 2,
      "note": 54,
      "start": 37.4951,
      "duration": 0.7295,
      "velocity": 95,
      "chip": "ym2612"
    },
    {
      "channel": 5,
      "note": 45,
      "start": 37.4998,
      "duration": 0.1072,
      "velocity": 127,
      "chip": "ym2612"
    },
    {
      "channel": 3,
      "note": 54,
      "start": 37.5273,
      "duration": 0.0786,
      "velocity": 95,
      "chip": "ym2612"
    },
    {
      "channel": 4,
      "note": 54,
      "start": 37.6067,
      "duration": 0.1746,
      "velocity": 97,
      "chip": "ym2612"
    },
    {
      "channel": 5,
      "note": 45,
      "start": 37.6077,
      "duration": 0.129,
      "velocity": 122,
      "chip": "ym2612"
    },
    {
      "channel": 3,
      "note": 54,
      "start": 37.6543,
      "duration": 0.7294,
      "velocity": 95,
      "chip": "ym2612"
    },
    {
      "channel": 5,
      "note": 54,
      "start": 37.7374,
      "duration": 0.1109,
      "velocity": 127,
      "chip": "ym2612"
    },
    {
      "channel": 4,
      "note": 54,
      "start": 37.8452,
      "duration": 0.1741,
      "velocity": 97,
      "chip": "ym2612"
    },
    {
      "channel": 5,
      "note": 45,
      "start": 37.849,
      "duration": 0.126,
      "velocity": 122,
      "chip": "ym2612"
    },
    {
      "channel": 5,
      "note": 49,
      "start": 37.9756,
      "duration": 0.1107,
      "velocity": 127,
      "chip": "ym2612"
    },
    {
      "channel": 4,
      "note": 53,
      "start": 38.0833,
      "duration": 0.1742,
      "velocity": 97,
      "chip": "ym2612"
    },
    {
      "channel": 5,
      "note": 45,
      "start": 38.0871,
      "duration": 0.1232,
      "velocity": 127,
      "chip": "ym2612"
    },
    {
      "channel": 5,
      "note": 45,
      "start": 38.2109,
      "duration": 0.1132,
      "velocity": 122,
      "chip": "ym2612"
    },
    {
      "channel": 4,
      "note": 53,
      "start": 38.321,
      "duration": 0.1741,
      "velocity": 97,
      "chip": "ym2612"
    },
    {
      "channel": 5,
      "note": 42,
      "start": 38.3248,
      "duration": 0.1261,
      "velocity": 127,
      "chip": "ym2612"
    },
    {
      "channel": 5,
      "note": 45,
      "start": 38.4517,
      "duration": 0.1144,
      "velocity": 117,
      "chip": "ym2612"
    },
    {
      "channel": 1,
      "note": 75,
      "start": 38.5608,
      "duration": 0.5364,
      "velocity": 93,
      "chip": "ym2612"
    },
    {
      "channel": 2,
      "note": 78,
      "start": 38.5618,
      "duration": 0.0756,
      "velocity": 95,
      "chip": "ym2612"
    },
    {
      "channel": 4,
      "note": 51,
      "start": 38.563,
      "duration": 0.1707,
      "velocity": 97,
      "chip": "ym2612"
    },
    {
      "channel": 5,
      "note": 54,
      "start": 38.5668,
      "duration": 0.1196,
      "velocity": 117,
      "chip": "ym2612"
    },
    {
      "channel": 2,
      "note": 70,
      "start": 38.6857,
      "duration": 0.0786,
      "velocity": 95,
      "chip": "ym2612"
    },
    {
      "channel": 0,
      "note": 75,
      "start": 38.7191,
      "duration": 0.5365,
      "velocity": 93,
      "chip": "ym2612"
    },
    {
      "channel": 3,
      "note": 78,
      "start": 38.7209,
      "duration": 0.0761,
      "velocity": 95,
      "chip": "ym2612"
    },
    {
      "channel": 2,
      "note": 78,
      "start": 38.7968,
      "duration": 0.0787,
      "velocity": 95,
      "chip": "ym2612"
    },
    {
      "channel": 4,
      "note": 51,
      "start": 38.7977,
      "duration": 0.1741,
      "velocity": 97,
      "chip": "ym2612"
    },
    {
      "channel": 5,
      "note": 57,
      "start": 38.8015,
      "duration": 0.1231,
      "velocity": 115,
      "chip": "ym2612"
    },
    {
      "channel": 3,
      "note": 70,
      "start": 38.845,
      "duration": 0.079,
      "velocity": 95,
      "chip": "ym2612"
    },
    {
      "channel": 2,
      "note": 78,
      "start": 38.9238,
      "duration": 0.0787,
      "velocity": 95,
      "chip": "ym2612"
    },
    {
      "channel": 5,
      "note": 57,
      "start": 38.9254,
      "duration": 0.1132,
      "velocity": 117,
      "chip": "ym2612"
    },
    {
      "channel": 3,
      "note": 78,
      "start": 38.956,
      "duration": 0.0788,
      "velocity": 95,
      "chip": "ym2612"
    },
    {
      "channel": 4,
      "note": 51,
      "start": 39.0355,
      "duration": 0.1744,
      "velocity": 97,
      "chip": "ym2612"
    },
    {
      "channel": 5,
      "note": 54,
      "start": 39.0393,
      "duration": 0.1236,
      "velocity": 117,
      "chip": "ym2612"
    },
    {
      "channel": 3,
      "note": 78,
      "start": 39.0831,
      "duration": 0.0791,
      "velocity": 95,
      "chip": "ym2612"
    },
    {
      "channel": 2,
      "note": 78,
      "start": 39.162,
      "duration": 0.1739,
      "velocity": 95,
      "chip": "ym2612"
    },
    {
      "channel": 1,
      "note": 76,
      "start": 39.2726,
      "duration": 0.539,
      "velocity": 93,
      "chip": "ym2612"
    },
    {
      "channel": 4,
      "note": 51,
      "start": 39.2743,
      "duration": 0.1739,
      "velocity": 97,
      "chip": "ym2612"
    },
    {
      "channel": 5,
      "note": 57,
      "start": 39.2781,
      "duration": 0.1231,
      "velocity": 115,
      "chip": "ym2612"
    },
    {
      "channel": 3,
      "note": 78,
      "start": 39.3212,
      "duration": 0.1739,
      "velocity": 95,
      "chip": "ym2612"
    },
    {
      "channel": 2,
      "note": 70,
      "start": 39.4001,
      "duration": 0.1739,
      "velocity": 95,
      "chip": "ym2612"
    },
    {
      "channel": 5,
      "note": 57,
      "start": 39.4019,
      "duration": 0.1132,
      "velocity": 117,
      "chip": "ym2612"
    },
    {
      "channel": 0,
      "note": 76,
      "start": 39.4308,
      "duration": 0.5391,
      "velocity": 93,
      "chip": "ym2612"
    },
    {
      "channel": 4,
      "note": 51,
      "start": 39.5121,
      "duration": 0.1741,
      "velocity": 97,
      "chip": "ym2612"
    },
    {
      "channel": 5,
      "note": 54,
      "start": 39.5158,
      "duration": 0.1235,
      "velocity": 117,
      "chip": "ym2612"
    },
    {
      "channel": 3,
      "note": 70,
      "start": 39.5593,
      "duration": 0.1739,
      "velocity": 95,
      "chip": "ym2612"
    },
    {
      "channel": 2,
      "note": 78,
      "start": 39.6382,
      "duration": 0.1737,
      "velocity": 95,
      "chip": "ym2612"
    },
    {
      "channel": 4,
      "note": 51,
      "start": 39.7502,
      "duration": 0.1741,
      "velocity": 97,
      "chip": "ym2612"
    },
    {
      "channel": 5,
      "note": 57,
      "start": 39.754,
      "duration": 0.1235,
      "velocity": 115,
      "chip": "ym2612"
    },
    {
      "channel": 3,
      "note": 78,
      "start": 39.7975,
      "duration": 0.1736,
      "velocity": 95,
      "chip": "ym2612"
    },
    {
      "channel": 2,
      "note": 66,
      "start": 39.8764,
      "duration": 0.0786,
      "velocity": 95,
      "chip": "ym2612"
    },
    {
      "channel": 5,
      "note": 57,
      "start": 39.8782,
      "duration": 0.114,
      "velocity": 117,
      "chip": "ym2612"
    },
    {
      "channel": 1,
      "note": 78,
      "start": 39.9871,
      "duration": 0.3484,
      "velocity": 93,
      "chip": "ym2612"
    },
    {
      "channel": 2,
      "note": 70,
      "start": 39.9879,
      "duration": 0.0782,
      "velocity": 95,
      "chip": "ym2612"
    },
    {
      "channel": 4,
      "note": 51,
      "start": 39.9892,
      "duration": 0.1733,
      "velocity": 97,
      "chip": "ym2612"
    },
    {
      "channel": 5,
      "note": 54,
      "start": 39.9929,
      "duration": 0.1224,
      "velocity": 117,
      "chip": "ym2612"
    },
    {
      "channel": 3,
      "note": 66,
      "start": 40.0356,
      "duration": 0.079,
      "velocity": 95,
      "chip": "ym2612"
    },
    {
      "channel": 2,
      "note": 75,
      "start": 40.1145,
      "duration": 0.0786,
      "velocity": 95,
      "chip": "ym2612"
    },
    {
      "channel": 0,
      "note": 78,
      "start": 40.1454,
      "duration": 0.3484,
      "velocity": 93,
      "chip": "ym2612"
    },
    {
      "channel": 3,
      "note": 70,
      "start": 40.1472,
      "duration": 0.0787,
      "velocity": 95,
      "chip": "ym2612"
    },
    {
      "channel": 2,
      "note": 78,
      "start": 40.2257,
      "duration": 0.1739,
      "velocity": 95,
      "chip": "ym2612"
    },
    {
      "channel": 4,
      "note": 51,
      "start": 40.2267,
      "duration": 0.0786,
      "velocity": 97,
      "chip": "ym2612"
    },
    {
      "channel": 5,
      "note": 57,
      "start": 40.2305,
      "duration": 0.1229,
      "velocity": 115,
      "chip": "ym2612"
    },
    {
      "channel": 3,
      "note": 75,
      "start": 40.2737,
      "duration": 0.0786,
      "velocity": 95,
      "chip": "ym2612"
    },
    {
      "channel": 4,
      "note": 51,
      "start": 40.3531,
      "duration": 0.0791,
      "velocity": 97,
      "chip": "ym2612"
    },
    {
      "channel": 5,
      "note": 57,
      "start": 40.3541,
      "duration": 0.1146,
      "velocity": 117,
      "chip": "ym2612"
    },
    {
      "channel": 3,
      "note": 78,
      "start": 40.3849,
      "duration": 0.174,
      "velocity": 95,
      "chip": "ym2612"
    },
    {
      "channel": 1,
      "note": 72,
      "start": 40.4634,
      "duration": 1.1264,
      "velocity": 93,
      "chip": "ym2612"
    },
    {
      "channel": 2,
      "note": 80,
      "start": 40.4643,
      "duration": 0.0781,
      "velocity": 95,
      "chip": "ym2612"
    },
    {
      "channel": 4,
      "note": 56,
      "start": 40.4656,
      "duration": 0.1732,
      "velocity": 97,
      "chip": "ym2612"
    },
    {
      "channel": 5,
      "note": 54,
      "start": 40.4694,
      "duration": 0.1225,
      "velocity": 117,
      "chip": "ym2612"
    },
    {
      "channel": 2,
      "note": 78,
      "start": 40.5907,
      "duration": 0.0787,
      "velocity": 95,
      "chip": "ym2612"
    },
    {
      "channel": 0,
      "note": 72,
      "start": 40.6216,
      "duration": 1.1265,
      "velocity": 93,
      "chip": "ym2612"
    },
    {
      "channel": 3,
      "note": 80,
      "start": 40.6235,
      "duration": 0.0785,
      "velocity": 95,
      "chip": "ym2612"
    },
    {
      "channel": 2,
      "note": 77,
      "start": 40.7018,
      "duration": 0.0788,
      "velocity": 95,
      "chip": "ym2612"
    },
    {
      "channel": 4,
      "note": 56,
      "start": 40.7027,
      "duration": 0.1742,
      "velocity": 97,
      "chip": "ym2612"
    },
    {
      "channel": 5,
      "note": 57,
      "start": 40.7066,
      "duration": 0.1231,
      "velocity": 115,
      "chip": "ym2612"
    },
    {
      "channel": 3,
      "note": 78,
      "start": 40.75,
      "duration": 0.079,
      "velocity": 95,
      "chip": "ym2612"
    },
    {
      "channel": 2,
      "note": 75,
      "start": 40.8288,
      "duration": 0.0787,
      "velocity": 95,
      "chip": "ym2612"
    },
    {
      "channel": 5,
      "note": 57,
      "start": 40.8303,
      "duration": 0.1137,
      "velocity": 117,
      "chip": "ym2612"
    },
    {
      "channel": 3,
      "note": 77,
      "start": 40.8611,
      "duration": 0.0791,
      "velocity": 95,
      "chip": "ym2612"
    },
    {
      "channel": 2,
      "note": 73,
      "start": 40.94,
      "duration": 0.0787,
      "velocity": 95,
      "chip": "ym2612"
    },
    {
      "channel": 4,
      "note": 56,
      "start": 40.9409,
      "duration": 0.174,
      "velocity": 97,
      "chip": "ym2612"
    },
    {
      "channel": 5,
      "note": 54,
      "start": 40.9447,
      "duration": 0.1231,
      "velocity": 117,
      "chip": "ym2612"
    },
    {
      "channel": 3,
      "note": 75,
      "start": 40.9881,
      "duration": 0.0791,
      "velocity": 95,
      "chip": "ym2612"
    },
    {
      "channel": 2,
      "note": 72,
      "start": 41.067,
      "duration": 0.0787,
      "velocity": 95,
      "chip": "ym2612"
    },
    {
      "channel": 3,
      "note": 73,
      "start": 41.0992,
      "duration": 0.0791,
      "velocity": 95,
      "chip": "ym2612"
    },
    {
      "channel": 2,
      "note": 70,
      "start": 41.1781,
      "duration": 0.0786,
      "velocity": 95,
      "chip": "ym2612"
    },
    {
      "channel": 4,
      "note": 56,
      "start": 41.179,
      "duration": 0.1742,
      "velocity": 97,
      "chip": "ym2612"
    },
    {
      "channel": 5,
      "note": 57,
      "start": 41.1828,
      "duration": 0.1232,
      "velocity": 115,
      "chip": "ym2612"
    },
    {
      "channel": 3,
      "note": 72,
      "start": 41.2263,
      "duration": 0.0791,
      "velocity": 95,
      "chip": "ym2612"
    },
    {
      "channel": 2,
      "note": 68,
      "start": 41.3052,
      "duration": 0.1738,
      "velocity": 95,
      "chip": "ym2612"
    },
    {
      "channel": 5,
      "note": 57,
      "start": 41.3067,
      "duration": 0.1132,
      "velocity": 117,
      "chip": "ym2612"
    },
    {
      "channel": 3,
      "note": 70,
      "start": 41.3373,
      "duration": 0.0787,
      "velocity": 95,
      "chip": "ym2612"
    },
    {
      "channel": 4,
      "note": 56,
      "start": 41.4168,
      "duration": 0.0791,
      "velocity": 97,
      "chip": "ym2612"
    },
    {
      "channel": 5,
      "note": 54,
      "start": 41.4206,
      "duration": 0.1241,
      "velocity": 117,
      "chip": "ym2612"
    },
    {
      "channel": 3,
      "note": 68,
      "start": 41.4644,
      "duration": 0.1738,
      "velocity": 95,
      "chip": "ym2612"
    },
    {
      "channel": 2,
      "note": 68,
      "start": 41.5432,
      "duration": 0.1739,
      "velocity": 95,
      "chip": "ym2612"
    },
    {
      "channel": 4,
      "note": 56,
      "start": 41.5445,
      "duration": 0.0784,
      "velocity": 97,
      "chip": "ym2612"
    },
    {
      "channel": 4,
      "note": 56,
      "start": 41.6554,
      "duration": 0.174,
      "velocity": 97,
      "chip": "ym2612"
    },
    {
      "channel": 5,
      "note": 57,
      "start": 41.6592,
      "duration": 0.1233,
      "velocity": 115,
      "chip": "ym2612"
    },
    {
      "channel": 3,
      "note": 68,
      "start": 41.7025,
      "duration": 0.1739,
      "velocity": 95,
      "chip": "ym2612"
    },
    {
      "channel": 2,
      "note": 68,
      "start": 41.7814,
      "duration": 0.0786,
      "velocity": 95,
      "chip": "ym2612"
    },
    {
      "channel": 5,
      "note": 57,
      "start": 41.7833,
      "duration": 0.1142,
      "velocity": 127,
      "chip": "ym2612"
    },
    {
      "channel": 1,
      "note": 72,
      "start": 41.8921,
      "duration": 0.3484,
      "velocity": 93,
      "chip": "ym2612"
    },
    {
      "channel": 2,
      "note": 72,
      "start": 41.8931,
      "duration": 0.1735,
      "velocity": 95,
      "chip": "ym2612"
    },
    {
      "channel": 4,
      "note": 56,
      "start": 41.8944,
      "duration": 0.0777,
      "velocity": 97,
      "chip": "ym2612"
    },
    {
      "channel": 5,
      "note": 45,
      "start": 41.8982,
      "duration": 0.1221,
      "velocity": 127,
      "chip": "ym2612"
    },
    {
      "channel": 3,
      "note": 68,
      "start": 41.9407,
      "duration": 0.0786,
      "velocity": 95,
      "chip": "ym2612"
    },
    {
      "channel": 4,
      "note": 56,
      "start": 42.02,
      "duration": 0.0791,
      "velocity": 97,
      "chip": "ym2612"
    },
    {
      "channel": 0,
      "note": 72,
      "start": 42.0504,
      "duration": 0.3485,
      "velocity": 93,
      "chip": "ym2612"
    },
    {
      "channel": 3,
      "note": 72,
      "start": 42.0523,
      "duration": 0.1735,
      "velocity": 95,
      "chip": "ym2612"
    },
    {
      "channel": 2,
      "note": 68,
      "start": 42.1307,
      "duration": 0.174,
      "velocity": 95,
      "chip": "ym2612"
    },
    {
      "channel": 4,
      "note": 56,
      "start": 42.1319,
      "duration": 0.1734,
      "velocity": 97,
      "chip": "ym2612"
    },
    {
      "channel": 5,
      "note": 57,
      "start": 42.1357,
      "duration": 0.1227,
      "velocity": 115,
      "chip": "ym2612"
    },
    {
      "channel": 5,
      "note": 57,
      "start": 42.2591,
      "duration": 0.1145,
      "velocity": 117,
      "chip": "ym2612"
    },
    {
      "channel": 3,
      "note": 68,
      "start": 42.2899,
      "duration": 0.174,
      "velocity": 95,
      "chip": "ym2612"
    },
    {
      "channel": 1,
      "note": 73,
      "start": 42.3684,
      "duration": 0.7296,
      "velocity": 93,
      "chip": "ym2612"
    },
    {
      "channel": 2,
      "note": 65,
      "start": 42.3693,
      "duration": 0.0781,
      "velocity": 95,
      "chip": "ym2612"
    },
    {
      "channel": 4,
      "note": 58,
      "start": 42.3705,
      "duration": 0.1733,
      "velocity": 97,
      "chip": "ym2612"
    },
    {
      "channel": 5,
      "note": 54,
      "start": 42.3743,
      "duration": 0.1226,
      "velocity": 117,
      "chip": "ym2612"
    },
    {
      "channel": 2,
      "note": 66,
      "start": 42.4957,
      "duration": 0.0787,
      "velocity": 95,
      "chip": "ym2612"
    },
    {
      "channel": 0,
      "note": 73,
      "start": 42.5266,
      "duration": 0.7296,
      "velocity": 93,
      "chip": "ym2612"
    },
    {
      "channel": 3,
      "note": 65,
      "start": 42.5285,
      "duration": 0.0785,
      "velocity": 95,
      "chip": "ym2612"
    },
    {
      "channel": 2,
      "note": 65,
      "start": 42.6069,
      "duration": 0.0788,
      "velocity": 95,
      "chip": "ym2612"
    },
    {
      "channel": 4,
      "note": 58,
      "start": 42.6078,
      "duration": 0.1741,
      "velocity": 97,
      "chip": "ym2612"
    },
    {
      "channel": 5,
      "note": 57,
      "start": 42.6116,
      "duration": 0.1232,
      "velocity": 115,
      "chip": "ym2612"
    },
    {
      "channel": 3,
      "note": 66,
      "start": 42.655,
      "duration": 0.079,
      "velocity": 95,
      "chip": "ym2612"
    },
    {
      "channel": 2,
      "note": 66,
      "start": 42.7339,
      "duration": 0.0787,
      "velocity": 95,
      "chip": "ym2612"
    },
    {
      "channel": 5,
      "note": 57,
      "start": 42.7354,
      "duration": 0.1136,
      "velocity": 127,
      "chip": "ym2612"
    },
    {
      "channel": 3,
      "note": 65,
      "start": 42.7661,
      "duration": 0.0791,
      "velocity": 95,
      "chip": "ym2612"
    },
    {
      "channel": 2,
      "note": 65,
      "start": 42.845,
      "duration": 0.0787,
      "velocity": 95,
      "chip": "ym2612"
    },
    {
      "channel": 4,
      "note": 58,
      "start": 42.8459,
      "duration": 0.1741,
      "velocity": 97,
      "chip": "ym2612"
    },
    {
      "channel": 5,
      "note": 45,
      "start": 42.8498,
      "duration": 0.1231,
      "velocity": 127,
      "chip": "ym2612"
    },
    {
      "channel": 3,
      "note": 66,
      "start": 42.8931,
      "duration": 0.0791,
      "velocity": 95,
      "chip": "ym2612"
    },
    {
      "channel": 2,
      "note": 66,
      "start": 42.9721,
      "duration": 0.0786,
      "velocity": 95,
      "chip": "ym2612"
    },
    {
      "channel": 3,
      "note": 65,
      "start": 43.0042,
      "duration": 0.0792,
      "velocity": 95,
      "chip": "ym2612"
    },
    {
      "channel": 2,
      "note": 65,
      "start": 43.0832,
      "duration": 0.1737,
      "velocity": 95,
      "chip": "ym2612"
    },
    {
      "channel": 4,
      "note": 58,
      "start": 43.0842,
      "duration": 0.0786,
      "velocity": 97,
      "chip": "ym2612"
    },
    {
      "channel": 5,
      "note": 57,
      "start": 43.088,
      "duration": 0.1229,
      "velocity": 115,
      "chip": "ym2612"
    },
    {
      "channel": 3,
      "note": 66,
      "start": 43.1313,
      "duration": 0.0786,
      "velocity": 95,
      "chip": "ym2612"
    },
    {
      "channel": 4,
      "note": 58,
      "start": 43.2107,
      "duration": 0.0791,
      "velocity": 97,
      "chip": "ym2612"
    },
    {
      "channel": 5,
      "note": 57,
      "start": 43.2117,
      "duration": 0.1145,
      "velocity": 117,
      "chip": "ym2612"
    },
    {
      "channel": 3,
      "note": 65,
      "start": 43.2425,
      "duration": 0.1739,
      "velocity": 95,
      "chip": "ym2612"
    },
    {
      "channel": 1,
      "note": 71,
      "start": 43.3209,
      "duration": 0.2691,
      "velocity": 93,
      "chip": "ym2612"
    },
    {
      "channel": 2,
      "note": 68,
      "start": 43.3218,
      "duration": 0.0781,
      "velocity": 95,
      "chip": "ym2612"
    },
    {
      "channel": 4,
      "note": 53,
      "start": 43.3231,
      "duration": 0.1732,
      "velocity": 97,
      "chip": "ym2612"
    },
    {
      "channel": 5,
      "note": 54,
      "start": 43.3269,
      "duration": 0.1225,
      "velocity": 117,
      "chip": "ym2612"
    },
    {
      "channel": 2,
      "note": 66,
      "start": 43.4483,
      "duration": 0.0786,
      "velocity": 95,
      "chip": "ym2612"
    },
    {
      "channel": 0,
      "note": 71,
      "start": 43.4792,
      "duration": 0.269,
      "velocity": 93,
      "chip": "ym2612"
    },
    {
      "channel": 3,
      "note": 68,
      "start": 43.481,
      "duration": 0.0785,
      "velocity": 95,
      "chip": "ym2612"
    },
    {
      "channel": 2,
      "note": 68,
      "start": 43.5594,
      "duration": 0.0787,
      "velocity": 95,
      "chip": "ym2612"
    },
    {
      "channel": 4,
      "note": 53,
      "start": 43.5604,
      "duration": 0.0783,
      "velocity": 97,
      "chip": "ym2612"
    },
    {
      "channel": 5,
      "note": 57,
      "start": 43.5642,
      "duration": 0.1239,
      "velocity": 115,
      "chip": "ym2612"
    },
    {
      "channel": 3,
      "note": 66,
      "start": 43.6076,
      "duration": 0.0794,
      "velocity": 95,
      "chip": "ym2612"
    },
    {
      "channel": 1,
      "note": 70,
      "start": 43.6859,
      "duration": 0.2691,
      "velocity": 93,
      "chip": "ym2612"
    },
    {
      "channel": 2,
      "note": 71,
      "start": 43.6868,
      "duration": 0.0783,
      "velocity": 95,
      "chip": "ym2612"
    },
    {
      "channel": 4,
      "note": 53,
      "start": 43.6878,
      "duration": 0.1735,
      "velocity": 97,
      "chip": "ym2612"
    },
    {
      "channel": 5,
      "note": 57,
      "start": 43.6888,
      "duration": 0.1123,
      "velocity": 127,
      "chip": "ym2612"
    },
    {
      "channel": 3,
      "note": 68,
      "start": 43.7186,
      "duration": 0.0791,
      "velocity": 95,
      "chip": "ym2612"
    },
    {
      "channel": 2,
      "note": 68,
      "start": 43.7975,
      "duration": 0.0787,
      "velocity": 95,
      "chip": "ym2612"
    },
    {
      "channel": 5,
      "note": 45,
      "start": 43.8018,
      "duration": 0.124,
      "velocity": 127,
      "chip": "ym2612"
    },
    {
      "channel": 0,
      "note": 70,
      "start": 43.8442,
      "duration": 0.2691,
      "velocity": 93,
      "chip": "ym2612"
    },
    {
      "channel": 3,
      "note": 71,
      "start": 43.8461,
      "duration": 0.0787,
      "velocity": 95,
      "chip": "ym2612"
    },
    {
      "channel": 2,
      "note": 71,
      "start": 43.9246,
      "duration": 0.0787,
      "velocity": 95,
      "chip": "ym2612"
    },
    {
      "channel": 4,
      "note": 53,
      "start": 43.9256,
      "duration": 0.0783,
      "velocity": 97,
      "chip": "ym2612"
    },
    {
      "channel": 3,
      "note": 68,
      "start": 43.9564,
      "duration": 0.08,
      "velocity": 95,
      "chip": "ym2612"
    },
    {
      "channel": 1,
      "note": 68,
      "start": 44.0352,
      "duration": 0.174,
      "velocity": 93,
      "chip": "ym2612"
    },
    {
      "channel": 2,
      "note": 77,
      "start": 44.0362,
      "duration": 0.1732,
      "velocity": 95,
      "chip": "ym2612"
    },
    {
      "channel": 4,
      "note": 53,
      "start": 44.0372,
      "duration": 0.1728,
      "velocity": 97,
      "chip": "ym2612"
    },
    {
      "channel": 5,
      "note": 57,
      "start": 44.041,
      "duration": 0.1222,
      "velocity": 115,
      "chip": "ym2612"
    },
    {
      "channel": 3,
      "note": 71,
      "start": 44.0838,
      "duration": 0.0787,
      "velocity": 95,
      "chip": "ym2612"
    },
    {
      "channel": 5,
      "note": 57,
      "start": 44.1638,
      "duration": 0.1149,
      "velocity": 117,
      "chip": "ym2612"
    },
    {
      "channel": 0,
      "note": 68,
      "start": 44.1935,
      "duration": 0.174,
      "velocity": 93,
      "chip": "ym2612"
    },
    {
      "channel": 3,
      "note": 77,
      "start": 44.1954,
      "duration": 0.1732,
      "velocity": 95,
      "chip": "ym2612"
    },
    {
      "channel": 1,
      "note": 70,
      "start": 44.2734,
      "duration": 1.5074,
      "velocity": 93,
      "chip": "ym2612"
    },
    {
      "channel": 2,
      "note": 78,
      "start": 44.2744,
      "duration": 0.0781,
      "velocity": 95,
      "chip": "ym2612"
    },
    {
      "channel": 4,
      "note": 54,
      "start": 44.2756,
      "duration": 0.1732,
      "velocity": 97,
      "chip": "ym2612"
    },
    {
      "channel": 5,
      "note": 54,
      "start": 44.2794,
      "duration": 0.1226,
      "velocity": 117,
      "chip": "ym2612"
    },
    {
      "channel": 2,
      "note": 73,
      "start": 44.4008,
      "duration": 0.0786,
      "velocity": 95,
      "chip": "ym2612"
    },
    {
      "channel": 0,
      "note": 70,
      "start": 44.4317,
      "duration": 1.5074,
      "velocity": 93,
      "chip": "ym2612"
    },
    {
      "channel": 3,
      "note": 78,
      "start": 44.4336,
      "duration": 0.0785,
      "velocity": 95,
      "chip": "ym2612"
    },
    {
      "channel": 2,
      "note": 70,
      "start": 44.512,
      "duration": 0.0787,
      "velocity": 95,
      "chip": "ym2612"
    },
    {
      "channel": 4,
      "note": 54,
      "start": 44.5129,
      "duration": 0.1741,
      "velocity": 97,
      "chip": "ym2612"
    },
    {
      "channel": 5,
      "note": 57,
      "start": 44.5166,
      "duration": 0.1232,
      "velocity": 115,
      "chip": "ym2612"
    },
    {
      "channel": 3,
      "note": 73,
      "start": 44.56,
      "duration": 0.079,
      "velocity": 95,
      "chip": "ym2612"
    },
    {
      "channel": 2,
      "note": 66,
      "start": 44.6389,
      "duration": 0.0787,
      "velocity": 95,
      "chip": "ym2612"
    },
    {
      "channel": 5,
      "note": 57,
      "start": 44.6405,
      "duration": 0.1136,
      "velocity": 127,
      "chip": "ym2612"
    },
    {
      "channel": 3,
      "note": 70,
      "start": 44.6712,
      "duration": 0.0791,
      "velocity": 95,
      "chip": "ym2612"
    },
    {
      "channel": 2,
      "note": 61,
      "start": 44.7501,
      "duration": 0.0787,
      "velocity": 95,
      "chip": "ym2612"
    },
    {
      "channel": 4,
      "note": 54,
      "start": 44.751,
      "duration": 0.1741,
      "velocity": 97,
      "chip": "ym2612"
    },
    {
      "channel": 5,
      "note": 45,
      "start": 44.7548,
      "duration": 0.1232,
      "velocity": 127,
      "chip": "ym2612"
    },
    {
      "channel": 3,
      "note": 66,
      "start": 44.7981,
      "duration": 0.0791,
      "velocity": 95,
      "chip": "ym2612"
    },
    {
      "channel": 2,
      "note": 58,
      "start": 44.8771,
      "duration": 0.0787,
      "velocity": 95,
      "chip": "ym2612"
    },
    {
      "channel": 3,
      "note": 61,
      "start": 44.9093,
      "duration": 0.0791,
      "velocity": 95,
      "chip": "ym2612"
    },
    {
      "channel": 2,
      "note": 66,
      "start": 44.9882,
      "duration": 0.0787,
      "velocity": 95,
      "chip": "ym2612"
    },
    {
      "channel": 4,
      "note": 54,
      "start": 44.989,
      "duration": 0.1742,
      "velocity": 97,
      "chip": "ym2612"
    },
    {
      "channel": 5,
      "note": 57,
      "start": 44.9929,
      "duration": 0.1259,
      "velocity": 127,
      "chip": "ym2612"
    },
    {
      "channel": 3,
      "note": 58,
      "start": 45.0363,
      "duration": 0.0791,
      "velocity": 95,
      "chip": "ym2612"
    },
    {
      "channel": 2,
      "note": 61,
      "start": 45.1152,
      "duration": 0.0786,
      "velocity": 95,
      "chip": "ym2612"
    },
    {
      "channel": 5,
      "note": 45,
      "start": 45.1195,
      "duration": 0.1109,
      "velocity": 117,
      "chip": "ym2612"
    },
    {
      "channel": 3,
      "note": 66,
      "start": 45.1475,
      "duration": 0.0791,
      "velocity": 95,
      "chip": "ym2612"
    },
    {
      "channel": 2,
      "note": 66,
      "start": 45.2263,
      "duration": 0.0787,
      "velocity": 95,
      "chip": "ym2612"
    },
    {
      "channel": 4,
      "note": 54,
      "start": 45.2273,
      "duration": 0.0783,
      "velocity": 97,
      "chip": "ym2612"
    },
    {
      "channel": 5,
      "note": 54,
      "start": 45.2311,
      "duration": 0.1234,
      "velocity": 117,
      "chip": "ym2612"
    },
    {
      "channel": 3,
      "note": 61,
      "start": 45.2744,
      "duration": 0.0791,
      "velocity": 95,
      "chip": "ym2612"
    },
    {
      "channel": 2,
      "note": 68,
      "start": 45.3533,
      "duration": 0.0787,
      "velocity": 95,
      "chip": "ym2612"
    },
    {
      "channel": 4,
      "note": 54,
      "start": 45.3542,
      "duration": 0.0784,
      "velocity": 97,
      "chip": "ym2612"
    },
    {
      "channel": 3,
      "note": 66,
      "start": 45.3856,
      "duration": 0.0791,
      "velocity": 95,
      "chip": "ym2612"
    },
    {
      "channel": 2,
      "note": 70,
      "start": 45.4645,
      "duration": 0.0786,
      "velocity": 95,
      "chip": "ym2612"
    },
    {
      "channel": 4,
      "note": 66,
      "start": 45.4655,
      "duration": 0.174,
      "velocity": 97,
      "chip": "ym2612"
    },
    {
      "channel": 5,
      "note": 57,
      "start": 45.4693,
      "duration": 0.123,
      "velocity": 115,
      "chip": "ym2612"
    },
    {
      "channel": 3,
      "note": 68,
      "start": 45.5125,
      "duration": 0.0791,
      "velocity": 95,
      "chip": "ym2612"
    },
    {
      "channel": 2,
      "note": 71,
      "start": 45.5915,
      "duration": 0.0786,
      "velocity": 95,
      "chip": "ym2612"
    },
    {
      "channel": 5,
      "note": 57,
      "start": 45.5931,
      "duration": 0.1136,
      "velocity": 127,
      "chip": "ym2612"
    },
    {
      "channel": 3,
      "note": 70,
      "start": 45.6237,
      "duration": 0.0791,
      "velocity": 95,
      "chip": "ym2612"
    },
    {
      "channel": 2,
      "note": 73,
      "start": 45.7026,
      "duration": 0.0783,
      "velocity": 95,
      "chip": "ym2612"
    },
    {
      "channel": 4,
      "note": 54,
      "start": 45.7036,
      "duration": 0.078,
      "velocity": 97,
      "chip": "ym2612"
    },
    {
      "channel": 5,
      "note": 45,
      "start": 45.7074,
      "duration": 0.1235,
      "velocity": 127,
      "chip": "ym2612"
    },
    {
      "channel": 3,
      "note": 71,
      "start": 45.7507,
      "duration": 0.079,
      "velocity": 95,
      "chip": "ym2612"
    },
    {
      "channel": 2,
      "note": 75,
      "start": 45.8296,
      "duration": 0.0787,
      "velocity": 95,
      "chip": "ym2612"
    },
    {
      "channel": 4,
      "note": 66,
      "start": 45.8306,
      "duration": 0.1739,
      "velocity": 97,
      "chip": "ym2612"
    },
    {
      "channel": 3,
      "note": 73,
      "start": 45.8618,
      "duration": 0.0787,
      "velocity": 95,
      "chip": "ym2612"
    },
    {
      "channel": 2,
      "note": 77,
      "start": 45.9404,
      "duration": 0.079,
      "velocity": 95,
      "chip": "ym2612"
    },
    {
      "channel": 5,
      "note": 57,
      "start": 45.9447,
      "duration": 0.1271,
      "velocity": 127,
      "chip": "ym2612"
    },
    {
      "channel": 3,
      "note": 75,
      "start": 45.9889,
      "duration": 0.079,
      "velocity": 95,
      "chip": "ym2612"
    },
    {
      "channel": 2,
      "note": 78,
      "start": 46.0677,
      "duration": 0.0787,
      "velocity": 95,
      "chip": "ym2612"
    },
    {
      "channel": 4,
      "note": 54,
      "start": 46.0687,
      "duration": 0.0784,
      "velocity": 97,
      "chip": "ym2612"
    },
    {
      "channel": 5,
      "note": 45,
      "start": 46.0725,
      "duration": 0.1109,
      "velocity": 117,
      "chip": "ym2612"
    },
    {
      "channel": 3,
      "note": 77,
      "start": 46.0999,
      "duration": 0.0796,
      "velocity": 95,
      "chip": "ym2612"
    },
    {
      "channel": 1,
      "note": 71,
      "start": 46.1784,
      "duration": 0.7296,
      "velocity": 93,
      "chip": "ym2612"
    },
    {
      "channel": 2,
      "note": 80,
      "start": 46.1794,
      "duration": 0.1735,
      "velocity": 95,
      "chip": "ym2612"
    },
    {
      "channel": 4,
      "note": 56,
      "start": 46.1804,
      "duration": 0.1732,
      "velocity": 97,
      "chip": "ym2612"
    },
    {
      "channel": 5,
      "note": 54,
      "start": 46.1841,
      "duration": 0.1222,
      "velocity": 117,
      "chip": "ym2612"
    },
    {
      "channel": 3,
      "note": 78,
      "start": 46.227,
      "duration": 0.0787,
      "velocity": 95,
      "chip": "ym2612"
    },
    {
      "channel": 0,
      "note": 71,
      "start": 46.3367,
      "duration": 0.7296,
      "velocity": 93,
      "chip": "ym2612"
    },
    {
      "channel": 3,
      "note": 80,
      "start": 46.3386,
      "duration": 0.1735,
      "velocity": 95,
      "chip": "ym2612"
    },
    {
      "channel": 2,
      "note": 68,
      "start": 46.4171,
      "duration": 0.0786,
      "velocity": 95,
      "chip": "ym2612"
    },
    {
      "channel": 4,
      "note": 68,
      "start": 46.4183,
      "duration": 0.1737,
      "velocity": 97,
      "chip": "ym2612"
    },
    {
      "channel": 5,
      "note": 57,
      "start": 46.4221,
      "duration": 0.123,
      "velocity": 115,
      "chip": "ym2612"
    },
    {
      "channel": 2,
      "note": 70,
      "start": 46.5439,
      "duration": 0.0787,
      "velocity": 95,
      "chip": "ym2612"
    },
    {
      "channel": 5,
      "note": 57,
      "start": 46.5458,
      "duration": 0.1134,
      "velocity": 127,
      "chip": "ym2612"
    },
    {
      "channel": 3,
      "note": 68,
      "start": 46.5763,
      "duration": 0.079,
      "velocity": 95,
      "chip": "ym2612"
    },
    {
      "channel": 2,
      "note": 71,
      "start": 46.6551,
      "duration": 0.0786,
      "velocity": 95,
      "chip": "ym2612"
    },
    {
      "channel": 4,
      "note": 56,
      "start": 46.656,
      "duration": 0.1741,
      "velocity": 97,
      "chip": "ym2612"
    },
    {
      "channel": 5,
      "note": 45,
      "start": 46.6599,
      "duration": 0.1231,
      "velocity": 127,
      "chip": "ym2612"
    },
    {
      "channel": 3,
      "note": 70,
      "start": 46.7032,
      "duration": 0.0791,
      "velocity": 95,
      "chip": "ym2612"
    },
    {
      "channel": 2,
      "note": 70,
      "start": 46.7821,
      "duration": 0.0787,
      "velocity": 95,
      "chip": "ym2612"
    },
    {
      "channel": 3,
      "note": 71,
      "start": 46.8144,
      "duration": 0.0791,
      "velocity": 95,
      "chip": "ym2612"
    },
    {
      "channel": 2,
      "note": 68,
      "start": 46.8933,
      "duration": 0.7297,
      "velocity": 95,
      "chip": "ym2612"
    },
    {
      "channel": 4,
      "note": 68,
      "start": 46.8942,
      "duration": 0.1737,
      "velocity": 97,
      "chip": "ym2612"
    },
    {
      "channel": 5,
      "note": 57,
      "start": 46.898,
      "duration": 0.1227,
      "velocity": 115,
      "chip": "ym2612"
    },
    {
      "channel": 3,
      "note": 70,
      "start": 46.9414,
      "duration": 0.0786,
      "velocity": 95,
      "chip": "ym2612"
    },
    {
      "channel": 5,
      "note": 57,
      "start": 47.0214,
      "duration": 0.1143,
      "velocity": 117,
      "chip": "ym2612"
    },
    {
      "channel": 3,
      "note": 68,
      "start": 47.0525,
      "duration": 0.7296,
      "velocity": 95,
      "chip": "ym2612"
    },
    {
      "channel": 1,
      "note": 71,
      "start": 47.1309,
      "duration": 0.2692,
      "velocity": 93,
      "chip": "ym2612"
    },
    {
      "channel": 4,
      "note": 56,
      "start": 47.1326,
      "duration": 0.1738,
      "velocity": 97,
      "chip": "ym2612"
    },
    {
      "channel": 5,
      "note": 54,
      "start": 47.1364,
      "duration": 0.1228,
      "velocity": 117,
      "chip": "ym2612"
    },
    {
      "channel": 0,
      "note": 71,
      "start": 47.2893,
      "duration": 0.2691,
      "velocity": 93,
      "chip": "ym2612"
    },
    {
      "channel": 4,
      "note": 68,
      "start": 47.3704,
      "duration": 0.1741,
      "velocity": 97,
      "chip": "ym2612"
    },
    {
      "channel": 5,
      "note": 57,
      "start": 47.3742,
      "duration": 0.1235,
      "velocity": 115,
      "chip": "ym2612"
    },
    {
      "channel": 1,
      "note": 73,
      "start": 47.496,
      "duration": 0.2692,
      "velocity": 93,
      "chip": "ym2612"
    },
    {
      "channel": 5,
      "note": 57,
      "start": 47.4984,
      "duration": 0.1132,
      "velocity": 127,
      "chip": "ym2612"
    },
    {
      "channel": 4,
      "note": 56,
      "start": 47.6085,
      "duration": 0.1738,
      "velocity": 97,
      "chip": "ym2612"
    },
    {
      "channel": 5,
      "note": 45,
      "start": 47.6123,
      "duration": 0.1231,
      "velocity": 127,
      "chip": "ym2612"
    },
    {
      "channel": 0,
      "note": 73,
      "start": 47.6543,
      "duration": 0.2691,
      "velocity": 93,
      "chip": "ym2612"
    },
    {
      "channel": 1,
      "note": 75,
      "start": 47.8454,
      "duration": 0.1739,
      "velocity": 93,
      "chip": "ym2612"
    },
    {
      "channel": 4,
      "note": 68,
      "start": 47.8471,
      "duration": 0.078,
      "velocity": 97,
      "chip": "ym2612"
    },
    {
      "channel": 5,
      "note": 57,
      "start": 47.8509,
      "duration": 0.123,
      "velocity": 115,
      "chip": "ym2612"
    },
    {
      "channel": 4,
      "note": 68,
      "start": 47.9736,
      "duration": 0.0788,
      "velocity": 97,
      "chip": "ym2612"
    },
    {
      "channel": 5,
      "note": 57,
      "start": 47.9746,
      "duration": 0.114,
      "velocity": 117,
      "chip": "ym2612"
    },
    {
      "channel": 0,
      "note": 75,
      "start": 48.0036,
      "duration": 0.174,
      "velocity": 93,
      "chip": "ym2612"
    },
    {
      "channel": 1,
      "note": 73,
      "start": 48.0834,
      "duration": 0.2692,
      "velocity": 93,
      "chip": "ym2612"
    },
    {
      "channel": 2,
      "note": 70,
      "start": 48.0844,
      "duration": 0.1735,
      "velocity": 95,
      "chip": "ym2612"
    },
    {
      "channel": 4,
      "note": 66,
      "start": 48.0856,
      "duration": 0.0779,
      "velocity": 97,
      "chip": "ym2612"
    },
    {
      "channel": 5,
      "note": 54,
      "start": 48.0894,
      "duration": 0.1227,
      "velocity": 117,
      "chip": "ym2612"
    },
    {
      "channel": 4,
      "note": 54,
      "start": 48.2117,
      "duration": 0.0788,
      "velocity": 97,
      "chip": "ym2612"
    },
    {
      "channel": 0,
      "note": 73,
      "start": 48.2418,
      "duration": 0.2691,
      "velocity": 93,
      "chip": "ym2612"
    },
    {
      "channel": 3,
      "note": 70,
      "start": 48.2437,
      "duration": 0.1735,
      "velocity": 95,
      "chip": "ym2612"
    },
    {
      "channel": 2,
      "note": 70,
      "start": 48.3221,
      "duration": 0.0786,
      "velocity": 95,
      "chip": "ym2612"
    },
    {
      "channel": 4,
      "note": 66,
      "start": 48.3234,
      "duration": 0.1736,
      "velocity": 97,
      "chip": "ym2612"
    },
    {
      "channel": 5,
      "note": 57,
      "start": 48.3272,
      "duration": 0.1233,
      "velocity": 115,
      "chip": "ym2612"
    },
    {
      "channel": 1,
      "note": 80,
      "start": 48.4485,
      "duration": 0.2692,
      "velocity": 93,
      "chip": "ym2612"
    },
    {
      "channel": 2,
      "note": 72,
      "start": 48.4494,
      "duration": 0.0783,
      "velocity": 95,
      "chip": "ym2612"
    },
    {
      "channel": 5,
      "note": 57,
      "start": 48.4513,
      "duration": 0.1129,
      "velocity": 127,
      "chip": "ym2612"
    },
    {
      "channel": 3,
      "note": 70,
      "start": 48.4814,
      "duration": 0.0789,
      "velocity": 95,
      "chip": "ym2612"
    },
    {
      "channel": 2,
      "note": 73,
      "start": 48.5601,
      "duration": 0.0787,
      "velocity": 95,
      "chip": "ym2612"
    },
    {
      "channel": 4,
      "note": 61,
      "start": 48.5611,
      "duration": 0.1741,
      "velocity": 97,
      "chip": "ym2612"
    },
    {
      "channel": 5,
      "note": 45,
      "start": 48.5649,
      "duration": 0.1231,
      "velocity": 127,
      "chip": "ym2612"
    },
    {
      "channel": 0,
      "note": 80,
      "start": 48.6068,
      "duration": 0.2692,
      "velocity": 93,
      "chip": "ym2612"
    },
    {
      "channel": 3,
      "note": 72,
      "start": 48.6086,
      "duration": 0.0787,
      "velocity": 95,
      "chip": "ym2612"
    },
    {
      "channel": 2,
      "note": 72,
      "start": 48.6871,
      "duration": 0.0786,
      "velocity": 95,
      "chip": "ym2612"
    },
    {
      "channel": 3,
      "note": 73,
      "start": 48.7191,
      "duration": 0.0799,
      "velocity": 95,
      "chip": "ym2612"
    },
    {
      "channel": 1,
      "note": 82,
      "start": 48.7979,
      "duration": 0.5389,
      "velocity": 93,
      "chip": "ym2612"
    },
    {
      "channel": 2,
      "note": 70,
      "start": 48.7988,
      "duration": 0.7291,
      "velocity": 95,
      "chip": "ym2612"
    },
    {
      "channel": 4,
      "note": 58,
      "start": 48.7998,
      "duration": 0.0778,
      "velocity": 97,
      "chip": "ym2612"
    },
    {
      "channel": 5,
      "note": 57,
      "start": 48.8036,
      "duration": 0.1227,
      "velocity": 115,
      "chip": "ym2612"
    },
    {
      "channel": 3,
      "note": 72,
      "start": 48.8464,
      "duration": 0.0788,
      "velocity": 95,
      "chip": "ym2612"
    },
    {
      "channel": 4,
      "note": 54,
      "start": 48.9259,
      "duration": 0.1742,
      "velocity": 97,
      "chip": "ym2612"
    },
    {
      "channel": 5,
      "note": 57,
      "start": 48.927,
      "duration": 0.113,
      "velocity": 117,
      "chip": "ym2612"
    },
    {
      "channel": 0,
      "note": 82,
      "start": 48.9562,
      "duration": 0.5389,
      "velocity": 93,
      "chip": "ym2612"
    },
    {
      "channel": 3,
      "note": 70,
      "start": 48.9581,
      "duration": 0.7288,
      "velocity": 95,
      "chip": "ym2612"
    },
    {
      "channel": 5,
      "note": 54,
      "start": 49.0406,
      "duration": 0.1239,
      "velocity": 117,
      "chip": "ym2612"
    },
    {
      "channel": 4,
      "note": 54,
      "start": 49.1642,
      "duration": 0.1738,
      "velocity": 97,
      "chip": "ym2612"
    },
    {
      "channel": 5,
      "note": 57,
      "start": 49.2789,
      "duration": 0.1239,
      "velocity": 115,
      "chip": "ym2612"
    },
    {
      "channel": 4,
      "note": 54,
      "start": 49.4025,
      "duration": 0.0788,
      "velocity": 97,
      "chip": "ym2612"
    },
    {
      "channel": 5,
      "note": 57,
      "start": 49.4035,
      "duration": 0.1132,
      "velocity": 127,
      "chip": "ym2612"
    },
    {
      "channel": 1,
      "note": 80,
      "start": 49.5123,
      "duration": 0.1739,
      "velocity": 93,
      "chip": "ym2612"
    },
    {
      "channel": 5,
      "note": 45,
      "start": 49.5174,
      "duration": 0.1234,
      "velocity": 127,
      "chip": "ym2612"
    },
    {
      "channel": 4,
      "note": 66,
      "start": 49.6406,
      "duration": 0.0788,
      "velocity": 97,
      "chip": "ym2612"
    },
    {
      "channel": 0,
      "note": 80,
      "start": 49.6705,
      "duration": 0.1739,
      "velocity": 93,
      "chip": "ym2612"
    },
    {
      "channel": 1,
      "note": 78,
      "start": 49.7503,
      "duration": 0.174,
      "velocity": 93,
      "chip": "ym2612"
    },
    {
      "channel": 4,
      "note": 54,
      "start": 49.7521,
      "duration": 0.1734,
      "velocity": 97,
      "chip": "ym2612"
    },
    {
      "channel": 5,
      "note": 57,
      "start": 49.7559,
      "duration": 0.1227,
      "velocity": 115,
      "chip": "ym2612"
    },
    {
      "channel": 5,
      "note": 57,
      "start": 49.8793,
      "duration": 0.1145,
      "velocity": 117,
      "chip": "ym2612"
    },
    {
      "channel": 0,
      "note": 78,
      "start": 49.9086,
      "duration": 0.174,
      "velocity": 93,
      "chip": "ym2612"
    },
    {
      "channel": 1,
      "note": 83,
      "start": 49.9885,
      "duration": 0.3485,
      "velocity": 93,
      "chip": "ym2612"
    },
    {
      "channel": 2,
      "note": 71,
      "start": 49.9895,
      "duration": 0.0781,
      "velocity": 95,
      "chip": "ym2612"
    },
    {
      "channel": 4,
      "note": 52,
      "start": 49.9907,
      "duration": 0.1733,
      "velocity": 97,
      "chip": "ym2612"
    },
    {
      "channel": 5,
      "note": 54,
      "start": 49.9945,
      "duration": 0.1226,
      "velocity": 117,
      "chip": "ym2612"
    },
    {
      "channel": 2,
      "note": 70,
      "start": 50.1159,
      "duration": 0.0787,
      "velocity": 95,
      "chip": "ym2612"
    },
    {
      "channel": 0,
      "note": 83,
      "start": 50.1468,
      "duration": 0.3485,
      "velocity": 93,
      "chip": "ym2612"
    },
    {
      "channel": 3,
      "note": 71,
      "start": 50.1487,
      "duration": 0.0785,
      "velocity": 95,
      "chip": "ym2612"
    },
    {
      "channel": 2,
      "note": 68,
      "start": 50.2271,
      "duration": 0.0787,
      "velocity": 95,
      "chip": "ym2612"
    },
    {
      "channel": 4,
      "note": 52,
      "start": 50.228,
      "duration": 0.0784,
      "velocity": 97,
      "chip": "ym2612"
    },
    {
      "channel": 5,
      "note": 57,
      "start": 50.2318,
      "duration": 0.123,
      "velocity": 115,
      "chip": "ym2612"
    },
    {
      "channel": 3,
      "note": 70,
      "start": 50.2752,
      "duration": 0.079,
      "velocity": 95,
      "chip": "ym2612"
    },
    {
      "channel": 2,
      "note": 71,
      "start": 50.3541,
      "duration": 0.0787,
      "velocity": 95,
      "chip": "ym2612"
    },
    {
      "channel": 5,
      "note": 57,
      "start": 50.3556,
      "duration": 0.1141,
      "velocity": 127,
      "chip": "ym2612"
    },
    {
      "channel": 3,
      "note": 68,
      "start": 50.3863,
      "duration": 0.0795,
      "velocity": 95,
      "chip": "ym2612"
    },
    {
      "channel": 1,
      "note": 83,
      "start": 50.4648,
      "duration": 0.3485,
      "velocity": 93,
      "chip": "ym2612"
    },
    {
      "channel": 2,
      "note": 70,
      "start": 50.4656,
      "duration": 0.0782,
      "velocity": 95,
      "chip": "ym2612"
    },
    {
      "channel": 4,
      "note": 52,
      "start": 50.4666,
      "duration": 0.1737,
      "velocity": 97,
      "chip": "ym2612"
    },
    {
      "channel": 5,
      "note": 45,
      "start": 50.4704,
      "duration": 0.1226,
      "velocity": 127,
      "chip": "ym2612"
    },
    {
      "channel": 3,
      "note": 71,
      "start": 50.5133,
      "duration": 0.0791,
      "velocity": 95,
      "chip": "ym2612"
    },
    {
      "channel": 2,
      "note": 68,
      "start": 50.5922,
      "duration": 0.0787,
      "velocity": 95,
      "chip": "ym2612"
    },
    {
      "channel": 0,
      "note": 83,
      "start": 50.623,
      "duration": 0.3485,
      "velocity": 93,
      "chip": "ym2612"
    },
    {
      "channel": 3,
      "note": 70,
      "start": 50.6249,
      "duration": 0.0786,
      "velocity": 95,
      "chip": "ym2612"
    },
    {
      "channel": 2,
      "note": 71,
      "start": 50.7033,
      "duration": 0.0787,
      "velocity": 95,
      "chip": "ym2612"
    },
    {
      "channel": 4,
      "note": 52,
      "start": 50.7043,
      "duration": 0.0784,
      "velocity": 97,
      "chip": "ym2612"
    },
    {
      "channel": 5,
      "note": 57,
      "start": 50.7081,
      "duration": 0.1258,
      "velocity": 127,
      "chip": "ym2612"
    },
    {
      "channel": 3,
      "note": 68,
      "start": 50.7515,
      "duration": 0.079,
      "velocity": 95,
      "chip": "ym2612"
    },
    {
      "channel": 2,
      "note": 70,
      "start": 50.8303,
      "duration": 0.0787,
      "velocity": 95,
      "chip": "ym2612"
    },
    {
      "channel": 5,
      "note": 45,
      "start": 50.8347,
      "duration": 0.1113,
      "velocity": 117,
      "chip": "ym2612"
    },
    {
      "channel": 3,
      "note": 71,
      "start": 50.8626,
      "duration": 0.0796,
      "velocity": 95,
      "chip": "ym2612"
    },
    {
      "channel": 1,
      "note": 83,
      "start": 50.9411,
      "duration": 0.2691,
      "velocity": 93,
      "chip": "ym2612"
    },
    {
      "channel": 2,
      "note": 68,
      "start": 50.942,
      "duration": 0.0781,
      "velocity": 95,
      "chip": "ym2612"
    },
    {
      "channel": 4,
      "note": 52,
      "start": 50.9429,
      "duration": 0.1735,
      "velocity": 97,
      "chip": "ym2612"
    },
    {
      "channel": 5,
      "note": 54,
      "start": 50.9467,
      "duration": 0.1226,
      "velocity": 117,
      "chip": "ym2612"
    },
    {
      "channel": 3,
      "note": 70,
      "start": 50.9896,
      "duration": 0.0791,
      "velocity": 95,
      "chip": "ym2612"
    },
    {
      "channel": 2,
      "note": 71,
      "start": 51.0684,
      "duration": 0.0787,
      "velocity": 95,
      "chip": "ym2612"
    },
    {
      "channel": 0,
      "note": 83,
      "start": 51.0994,
      "duration": 0.269,
      "velocity": 93,
      "chip": "ym2612"
    },
    {
      "channel": 3,
      "note": 68,
      "start": 51.1012,
      "duration": 0.0786,
      "velocity": 95,
      "chip": "ym2612"
    },
    {
      "channel": 2,
      "note": 70,
      "start": 51.1796,
      "duration": 0.0787,
      "velocity": 95,
      "chip": "ym2612"
    },
    {
      "channel": 4,
      "note": 64,
      "start": 51.1805,
      "duration": 0.1741,
      "velocity": 97,
      "chip": "ym2612"
    },
    {
      "channel": 5,
      "note": 57,
      "start": 51.1843,
      "duration": 0.1235,
      "velocity": 115,
      "chip": "ym2612"
    },
    {
      "channel": 3,
      "note": 71,
      "start": 51.2277,
      "duration": 0.0794,
      "velocity": 95,
      "chip": "ym2612"
    },
    {
      "channel": 1,
      "note": 85,
      "start": 51.3061,
      "duration": 0.2692,
      "velocity": 93,
      "chip": "ym2612"
    },
    {
      "channel": 2,
      "note": 68,
      "start": 51.307,
      "duration": 0.0783,
      "velocity": 95,
      "chip": "ym2612"
    },
    {
      "channel": 5,
      "note": 57,
      "start": 51.3085,
      "duration": 0.1132,
      "velocity": 127,
      "chip": "ym2612"
    },
    {
      "channel": 3,
      "note": 70,
      "start": 51.3388,
      "duration": 0.0791,
      "velocity": 95,
      "chip": "ym2612"
    },
    {
      "channel": 2,
      "note": 71,
      "start": 51.4177,
      "duration": 0.0787,
      "velocity": 95,
      "chip": "ym2612"
    },
    {
      "channel": 4,
      "note": 52,
      "start": 51.4186,
      "duration": 0.1741,
      "velocity": 97,
      "chip": "ym2612"
    },
    {
      "channel": 5,
      "note": 45,
      "start": 51.4224,
      "duration": 0.1232,
      "velocity": 127,
      "chip": "ym2612"
    },
    {
      "channel": 0,
      "note": 85,
      "start": 51.4644,
      "duration": 0.2691,
      "velocity": 93,
      "chip": "ym2612"
    },
    {
      "channel": 3,
      "note": 68,
      "start": 51.4662,
      "duration": 0.0787,
      "velocity": 95,
      "chip": "ym2612"
    },
    {
      "channel": 2,
      "note": 70,
      "start": 51.5447,
      "duration": 0.0787,
      "velocity": 95,
      "chip": "ym2612"
    },
    {
      "channel": 3,
      "note": 71,
      "start": 51.5766,
      "duration": 0.0798,
      "velocity": 95,
      "chip": "ym2612"
    },
    {
      "channel": 1,
      "note": 87,
      "start": 51.6555,
      "duration": 0.1739,
      "velocity": 93,
      "chip": "ym2612"
    },
    {
      "channel": 2,
      "note": 68,
      "start": 51.6563,
      "duration": 0.0778,
      "velocity": 95,
      "chip": "ym2612"
    },
    {
      "channel": 4,
      "note": 64,
      "start": 51.6573,
      "duration": 0.0776,
      "velocity": 97,
      "chip": "ym2612"
    },
    {
      "channel": 5,
      "note": 57,
      "start": 51.6611,
      "duration": 0.1258,
      "velocity": 127,
      "chip": "ym2612"
    },
    {
      "channel": 3,
      "note": 70,
      "start": 51.7039,
      "duration": 0.0791,
      "velocity": 95,
      "chip": "ym2612"
    },
    {
      "channel": 2,
      "note": 70,
      "start": 51.7828,
      "duration": 0.0787,
      "velocity": 95,
      "chip": "ym2612"
    },
    {
      "channel": 4,
      "note": 64,
      "start": 51.7837,
      "duration": 0.0784,
      "velocity": 97,
      "chip": "ym2612"
    },
    {
      "channel": 5,
      "note": 45,
      "start": 51.7875,
      "duration": 0.1111,
      "velocity": 122,
      "chip": "ym2612"
    },
    {
      "channel": 0,
      "note": 87,
      "start": 51.8137,
      "duration": 0.1739,
      "velocity": 93,
      "chip": "ym2612"
    },
    {
      "channel": 3,
      "note": 68,
      "start": 51.8156,
      "duration": 0.0791,
      "velocity": 95,
      "chip": "ym2612"
    },
    {
      "channel": 1,
      "note": 85,
      "start": 51.8936,
      "duration": 1.5074,
      "velocity": 93,
      "chip": "ym2612"
    },
    {
      "channel": 2,
      "note": 80,
      "start": 51.8945,
      "duration": 0.2686,
      "velocity": 95,
      "chip": "ym2612"
    },
    {
      "channel": 4,
      "note": 61,
      "start": 51.8955,
      "duration": 0.1735,
      "velocity": 97,
      "chip": "ym2612"
    },
    {
      "channel": 5,
      "note": 54,
      "start": 51.8993,
      "duration": 0.1249,
      "velocity": 122,
      "chip": "ym2612"
    },
    {
      "channel": 3,
      "note": 70,
      "start": 51.9421,
      "duration": 0.0787,
      "velocity": 95,
      "chip": "ym2612"
    },
    {
      "channel": 5,
      "note": 54,
      "start": 52.0249,
      "duration": 0.1111,
      "velocity": 122,
      "chip": "ym2612"
    },
    {
      "channel": 0,
      "note": 85,
      "start": 52.0518,
      "duration": 1.5074,
      "velocity": 93,
      "chip": "ym2612"
    },
    {
      "channel": 3,
      "note": 80,
      "start": 52.0537,
      "duration": 0.2686,
      "velocity": 95,
      "chip": "ym2612"
    },
    {
      "channel": 4,
      "note": 61,
      "start": 52.1329,
      "duration": 0.1742,
      "velocity": 97,
      "chip": "ym2612"
    },
    {
      "channel": 5,
      "note": 49,
      "start": 52.1367,
      "duration": 0.1264,
      "velocity": 122,
      "chip": "ym2612"
    },
    {
      "channel": 2,
      "note": 80,
      "start": 52.2592,
      "duration": 0.0785,
      "velocity": 95,
      "chip": "ym2612"
    },
    {
      "channel": 5,
      "note": 49,
      "start": 52.2638,
      "duration": 0.1107,
      "velocity": 122,
      "chip": "ym2612"
    },
    {
      "channel": 2,
      "note": 80,
      "start": 52.3702,
      "duration": 0.0787,
      "velocity": 95,
      "chip": "ym2612"
    },
    {
      "channel": 4,
      "note": 61,
      "start": 52.3715,
      "duration": 0.1737,
      "velocity": 97,
      "chip": "ym2612"
    },
    {
      "channel": 5,
      "note": 42,
      "start": 52.3753,
      "duration": 0.1257,
      "velocity": 122,
      "chip": "ym2612"
    },
    {
      "channel": 3,
      "note": 80,
      "start": 52.4184,
      "duration": 0.0791,
      "velocity": 95,
      "chip": "ym2612"
    },
    {
      "channel": 2,
      "note": 80,
      "start": 52.4974,
      "duration": 0.1737,
      "velocity": 95,
      "chip": "ym2612"
    },
    {
      "channel": 5,
      "note": 42,
      "start": 52.5017,
      "duration": 0.1105,
      "velocity": 127,
      "chip": "ym2612"
    },
    {
      "channel": 3,
      "note": 80,
      "start": 52.5295,
      "duration": 0.0788,
      "velocity": 95,
      "chip": "ym2612"
    },
    {
      "channel": 4,
      "note": 61,
      "start": 52.609,
      "duration": 0.079,
      "velocity": 97,
      "chip": "ym2612"
    },
    {
      "channel": 5,
      "note": 45,
      "start": 52.6129,
      "duration": 0.1241,
      "velocity": 127,
      "chip": "ym2612"
    },
    {
      "channel": 3,
      "note": 80,
      "start": 52.6566,
      "duration": 0.1738,
      "velocity": 95,
      "chip": "ym2612"
    },
    {
      "channel": 2,
      "note": 80,
      "start": 52.7354,
      "duration": 0.0786,
      "velocity": 95,
      "chip": "ym2612"
    },
    {
      "channel": 4,
      "note": 61,
      "start": 52.7367,
      "duration": 0.078,
      "velocity": 97,
      "chip": "ym2612"
    },
    {
      "channel": 2,
      "note": 78,
      "start": 52.8466,
      "duration": 0.174,
      "velocity": 95,
      "chip": "ym2612"
    },
    {
      "channel": 4,
      "note": 49,
      "start": 52.848,
      "duration": 0.1732,
      "velocity": 97,
      "chip": "ym2612"
    },
    {
      "channel": 5,
      "note": 54,
      "start": 52.8517,
      "duration": 0.125,
      "velocity": 122,
      "chip": "ym2612"
    },
    {
      "channel": 3,
      "note": 80,
      "start": 52.8947,
      "duration": 0.0786,
      "velocity": 95,
      "chip": "ym2612"
    },
    {
      "channel": 5,
      "note": 54,
      "start": 52.9774,
      "duration": 0.1115,
      "velocity": 122,
      "chip": "ym2612"
    },
    {
      "channel": 3,
      "note": 78,
      "start": 53.0059,
      "duration": 0.174,
      "velocity": 95,
      "chip": "ym2612"
    },
    {
      "channel": 2,
      "note": 78,
      "start": 53.0847,
      "duration": 0.174,
      "velocity": 95,
      "chip": "ym2612"
    },
    {
      "channel": 4,
      "note": 49,
      "start": 53.0859,
      "duration": 0.1734,
      "velocity": 97,
      "chip": "ym2612"
    },
    {
      "channel": 5,
      "note": 49,
      "start": 53.0896,
      "duration": 0.1256,
      "velocity": 122,
      "chip": "ym2612"
    },
    {
      "channel": 5,
      "note": 49,
      "start": 53.2159,
      "duration": 0.1112,
      "velocity": 122,
      "chip": "ym2612"
    },
    {
      "channel": 3,
      "note": 78,
      "start": 53.2438,
      "duration": 0.174,
      "velocity": 95,
      "chip": "ym2612"
    },
    {
      "channel": 2,
      "note": 77,
      "start": 53.3228,
      "duration": 0.174,
      "velocity": 95,
      "chip": "ym2612"
    },
    {
      "channel": 4,
      "note": 49,
      "start": 53.324,
      "duration": 0.1734,
      "velocity": 97,
      "chip": "ym2612"
    },
    {
      "channel": 5,
      "note": 42,
      "start": 53.3278,
      "duration": 0.1255,
      "velocity": 122,
      "chip": "ym2612"
    },
    {
      "channel": 5,
      "note": 42,
      "start": 53.454,
      "duration": 0.1109,
      "velocity": 127,
      "chip": "ym2612"
    },
    {
      "channel": 3,
      "note": 77,
      "start": 53.4821,
      "duration": 0.174,
      "velocity": 95,
      "chip": "ym2612"
    },
    {
      "channel": 2,
      "note": 77,
      "start": 53.5606,
      "duration": 0.1744,
      "velocity": 95,
      "chip": "ym2612"
    },
    {
      "channel": 4,
      "note": 49,
      "start": 53.5618,
      "duration": 0.0787,
      "velocity": 97,
      "chip": "ym2612"
    },
    {
      "channel": 5,
      "note": 45,
      "start": 53.5656,
      "duration": 0.1234,
      "velocity": 127,
      "chip": "ym2612"
    },
    {
      "channel": 4,
      "note": 49,
      "start": 53.6887,
      "duration": 0.0788,
      "velocity": 97,
      "chip": "ym2612"
    },
    {
      "channel": 5,
      "note": 45,
      "start": 53.6897,
      "duration": 0.1135,
      "velocity": 127,
      "chip": "ym2612"
    },
    {
      "channel": 3,
      "note": 77,
      "start": 53.7201,
      "duration": 0.1741,
      "velocity": 95,
      "chip": "ym2612"
    },
    {
      "channel": 1,
      "note": 61,
      "start": 53.8011,
      "duration": 0.2666,
      "velocity": 95,
      "chip": "ym2612"
    },
    {
      "channel": 2,
      "note": 68,
      "start": 53.8021,
      "duration": 0.2658,
      "velocity": 95,
      "chip": "ym2612"
    },
    {
      "channel": 0,
      "note": 61,
      "start": 53.9594,
      "duration": 0.2665,
      "velocity": 95,
      "chip": "ym2612"
    },
    {
      "channel": 3,
      "note": 68,
      "start": 53.9613,
      "duration": 0.2658,
      "velocity": 95,
      "chip": "ym2612"
    },
    {
      "channel": 1,
      "note": 61,
      "start": 54.1637,
      "duration": 0.0785,
      "velocity": 95,
      "chip": "ym2612"
    },
    {
      "channel": 2,
      "note": 68,
      "start": 54.1647,
      "duration": 0.0778,
      "velocity": 95,
      "chip": "ym2612"
    },
    {
      "channel": 1,
      "note": 61,
      "start": 54.2748,
      "duration": 0.0786,
      "velocity": 95,
      "chip": "ym2612"
    },
    {
      "channel": 2,
      "note": 68,
      "start": 54.2757,
      "duration": 0.0779,
      "velocity": 95,
      "chip": "ym2612"
    },
    {
      "channel": 0,
      "note": 61,
      "start": 54.322,
      "duration": 0.0786,
      "velocity": 95,
      "chip": "ym2612"
    },
    {
      "channel": 3,
      "note": 68,
      "start": 54.3239,
      "duration": 0.0788,
      "velocity": 95,
      "chip": "ym2612"
    },
    {
      "channel": 1,
      "note": 61,
      "start": 54.4016,
      "duration": 0.1741,
      "velocity": 95,
      "chip": "ym2612"
    },
    {
      "channel": 2,
      "note": 68,
      "start": 54.4025,
      "duration": 0.1734,
      "velocity": 95,
      "chip": "ym2612"
    },
    {
      "channel": 0,
      "note": 61,
      "start": 54.4331,
      "duration": 0.0786,
      "velocity": 95,
      "chip": "ym2612"
    },
    {
      "channel": 3,
      "note": 68,
      "start": 54.4349,
      "duration": 0.078,
      "velocity": 95,
      "chip": "ym2612"
    },
    {
      "channel": 0,
      "note": 61,
      "start": 54.5601,
      "duration": 0.1739,
      "velocity": 95,
      "chip": "ym2612"
    },
    {
      "channel": 3,
      "note": 68,
      "start": 54.562,
      "duration": 0.1731,
      "velocity": 95,
      "chip": "ym2612"
    },
    {
      "channel": 1,
      "note": 61,
      "start": 54.64,
      "duration": 0.0786,
      "velocity": 95,
      "chip": "ym2612"
    },
    {
      "channel": 2,
      "note": 68,
      "start": 54.641,
      "duration": 0.0778,
      "velocity": 95,
      "chip": "ym2612"
    },
    {
      "channel": 1,
      "note": 58,
      "start": 54.7511,
      "duration": 0.174,
      "velocity": 95,
      "chip": "ym2612"
    },
    {
      "channel": 2,
      "note": 66,
      "start": 54.7521,
      "duration": 0.1732,
      "velocity": 95,
      "chip": "ym2612"
    },
    {
      "channel": 0,
      "note": 61,
      "start": 54.7983,
      "duration": 0.0786,
      "velocity": 95,
      "chip": "ym2612"
    },
    {
      "channel": 3,
      "note": 68,
      "start": 54.8002,
      "duration": 0.0779,
      "velocity": 95,
      "chip": "ym2612"
    },
    {
      "channel": 0,
      "note": 58,
      "start": 54.9094,
      "duration": 0.1739,
      "velocity": 95,
      "chip": "ym2612"
    },
    {
      "channel": 3,
      "note": 66,
      "start": 54.9113,
      "duration": 0.1732,
      "velocity": 95,
      "chip": "ym2612"
    },
    {
      "channel": 1,
      "note": 58,
      "start": 54.9892,
      "duration": 0.174,
      "velocity": 95,
      "chip": "ym2612"
    },
    {
      "channel": 2,
      "note": 66,
      "start": 54.9901,
      "duration": 0.1734,
      "velocity": 95,
      "chip": "ym2612"
    },
    {
      "channel": 0,
      "note": 58,
      "start": 55.1475,
      "duration": 0.174,
      "velocity": 95,
      "chip": "ym2612"
    },
    {
      "channel": 3,
      "note": 66,
      "start": 55.1492,
      "duration": 0.1734,
      "velocity": 95,
      "chip": "ym2612"
    },
    {
      "channel": 1,
      "note": 56,
      "start": 55.2273,
      "duration": 0.1741,
      "velocity": 95,
      "chip": "ym2612"
    },
    {
      "channel": 2,
      "note": 65,
      "start": 55.2281,
      "duration": 0.1734,
      "velocity": 95,
      "chip": "ym2612"
    },
    {
      "channel": 5,
      "note": 54,
      "start": 55.2324,
      "duration": 0.0621,
      "velocity": 122,
      "chip": "ym2612"
    },
    {
      "channel": 5,
      "note": 54,
      "start": 55.2953,
      "duration": 0.0628,
      "velocity": 122,
      "chip": "ym2612"
    },
    {
      "channel": 5,
      "note": 54,
      "start": 55.3588,
      "duration": 0.1111,
      "velocity": 122,
      "chip": "ym2612"
    },
    {
      "channel": 0,
      "note": 56,
      "start": 55.3856,
      "duration": 0.174,
      "velocity": 95,
      "chip": "ym2612"
    },
    {
      "channel": 3,
      "note": 65,
      "start": 55.3874,
      "duration": 0.1734,
      "velocity": 95,
      "chip": "ym2612"
    },
    {
      "channel": 1,
      "note": 56,
      "start": 55.4655,
      "duration": 0.174,
      "velocity": 95,
      "chip": "ym2612"
    },
    {
      "channel": 2,
      "note": 65,
      "start": 55.4663,
      "duration": 0.1734,
      "velocity": 95,
      "chip": "ym2612"
    },
    {
      "channel": 5,
      "note": 42,
      "start": 55.4706,
      "duration": 0.1228,
      "velocity": 122,
      "chip": "ym2612"
    },
    {
      "channel": 0,
      "note": 56,
      "start": 55.6237,
      "duration": 0.1741,
      "velocity": 95,
      "chip": "ym2612"
    },
    {
      "channel": 3,
      "note": 65,
      "start": 55.6255,
      "duration": 0.1733,
      "velocity": 95,
      "chip": "ym2612"
    },
    {
      "channel": 1,
      "note": 66,
      "start": 55.7063,
      "duration": 0.2665,
      "velocity": 105,
      "chip": "ym2612"
    },
    {
      "channel": 2,
      "note": 66,
      "start": 55.7073,
      "duration": 0.0754,
      "velocity": 95,
      "chip": "ym2612"
    },
    {
      "channel": 4,
      "note": 54,
      "start": 55.7086,
      "duration": 0.2653,
      "velocity": 97,
      "chip": "ym2612"
    },
    {
      "channel": 5,
      "note": 54,
      "start": 55.7123,
      "duration": 0.1198,
      "velocity": 117,
      "chip": "ym2612"
    },
    {
      "channel": 2,
      "note": 78,
      "start": 55.831,
      "duration": 0.0787,
      "velocity": 95,
      "chip": "ym2612"
    },
    {
      "channel": 0,
      "note": 66,
      "start": 55.8646,
      "duration": 0.2664,
      "velocity": 105,
      "chip": "ym2612"
    },
    {
      "channel": 3,
      "note": 66,
      "start": 55.8665,
      "duration": 0.0758,
      "velocity": 95,
      "chip": "ym2612"
    },
    {
      "channel": 2,
      "note": 73,
      "start": 55.9422,
      "duration": 0.0786,
      "velocity": 95,
      "chip": "ym2612"
    },
    {
      "channel": 5,
      "note": 57,
      "start": 55.9466,
      "duration": 0.1243,
      "velocity": 115,
      "chip": "ym2612"
    },
    {
      "channel": 3,
      "note": 78,
      "start": 55.9903,
      "duration": 0.0794,
      "velocity": 95,
      "chip": "ym2612"
    },
    {
      "channel": 1,
      "note": 68,
      "start": 56.0687,
      "duration": 0.2692,
      "velocity": 105,
      "chip": "ym2612"
    },
    {
      "channel": 2,
      "note": 70,
      "start": 56.0696,
      "duration": 0.0783,
      "velocity": 95,
      "chip": "ym2612"
    },
    {
      "channel": 4,
      "note": 66,
      "start": 56.0705,
      "duration": 0.078,
      "velocity": 97,
      "chip": "ym2612"
    },
    {
      "channel": 5,
      "note": 57,
      "start": 56.0716,
      "duration": 0.1123,
      "velocity": 127,
      "chip": "ym2612"
    },
    {
      "channel": 3,
      "note": 73,
      "start": 56.1015,
      "duration": 0.079,
      "velocity": 95,
      "chip": "ym2612"
    },
    {
      "channel": 2,
      "note": 73,
      "start": 56.1803,
      "duration": 0.0787,
      "velocity": 95,
      "chip": "ym2612"
    },
    {
      "channel": 5,
      "note": 45,
      "start": 56.1846,
      "duration": 0.1239,
      "velocity": 127,
      "chip": "ym2612"
    },
    {
      "channel": 0,
      "note": 68,
      "start": 56.227,
      "duration": 0.2692,
      "velocity": 105,
      "chip": "ym2612"
    },
    {
      "channel": 3,
      "note": 70,
      "start": 56.2288,
      "duration": 0.0787,
      "velocity": 95,
      "chip": "ym2612"
    },
    {
      "channel": 2,
      "note": 70,
      "start": 56.3073,
      "duration": 0.0787,
      "velocity": 95,
      "chip": "ym2612"
    },
    {
      "channel": 4,
      "note": 66,
      "start": 56.3083,
      "duration": 0.0784,
      "velocity": 97,
      "chip": "ym2612"
    },
    {
      "channel": 3,
      "note": 73,
      "start": 56.3393,
      "duration": 0.0798,
      "velocity": 95,
      "chip": "ym2612"
    },
    {
      "channel": 1,
      "note": 70,
      "start": 56.418,
      "duration": 0.174,
      "velocity": 105,
      "chip": "ym2612"
    },
    {
      "channel": 2,
      "note": 78,
      "start": 56.4189,
      "duration": 0.0779,
      "velocity": 95,
      "chip": "ym2612"
    },
    {
      "channel": 4,
      "note": 54,
      "start": 56.4199,
      "duration": 0.1732,
      "velocity": 97,
      "chip": "ym2612"
    },
    {
      "channel": 5,
      "note": 57,
      "start": 56.4237,
      "duration": 0.1254,
      "velocity": 127,
      "chip": "ym2612"
    },
    {
      "channel": 3,
      "note": 70,
      "start": 56.4665,
      "duration": 0.0791,
      "velocity": 95,
      "chip": "ym2612"
    },
    {
      "channel": 2,
      "note": 66,
      "start": 56.5454,
      "duration": 0.0787,
      "velocity": 95,
      "chip": "ym2612"
    },
    {
      "channel": 5,
      "note": 45,
      "start": 56.5498,
      "duration": 0.1108,
      "velocity": 117,
      "chip": "ym2612"
    },
    {
      "channel": 0,
      "note": 70,
      "start": 56.5763,
      "duration": 0.1739,
      "velocity": 105,
      "chip": "ym2612"
    },
    {
      "channel": 3,
      "note": 78,
      "start": 56.5782,
      "duration": 0.079,
      "velocity": 95,
      "chip": "ym2612"
    },
    {
      "channel": 1,
      "note": 71,
      "start": 56.6562,
      "duration": 0.2691,
      "velocity": 105,
      "chip": "ym2612"
    },
    {
      "channel": 2,
      "note": 65,
      "start": 56.6571,
      "duration": 0.0782,
      "velocity": 95,
      "chip": "ym2612"
    },
    {
      "channel": 5,
      "note": 54,
      "start": 56.6613,
      "duration": 0.1263,
      "velocity": 115,
      "chip": "ym2612"
    },
    {
      "channel": 3,
      "note": 66,
      "start": 56.7046,
      "duration": 0.0791,
      "velocity": 95,
      "chip": "ym2612"
    },
    {
      "channel": 2,
      "note": 66,
      "start": 56.7836,
      "duration": 0.0786,
      "velocity": 95,
      "chip": "ym2612"
    },
    {
      "channel": 4,
      "note": 53,
      "start": 56.7845,
      "duration": 0.174,
      "velocity": 97,
      "chip": "ym2612"
    },
    {
      "channel": 5,
      "note": 57,
      "start": 56.7883,
      "duration": 0.0595,
      "velocity": 115,
      "chip": "ym2612"
    },
    {
      "channel": 0,
      "note": 71,
      "start": 56.8144,
      "duration": 0.2691,
      "velocity": 105,
      "chip": "ym2612"
    },
    {
      "channel": 3,
      "note": 65,
      "start": 56.8163,
      "duration": 0.0786,
      "velocity": 95,
      "chip": "ym2612"
    },
    {
      "channel": 5,
      "note": 57,
      "start": 56.8486,
      "duration": 0.0469,
      "velocity": 115,
      "chip": "ym2612"
    },
    {
      "channel": 2,
      "note": 68,
      "start": 56.8947,
      "duration": 0.0786,
      "velocity": 95,
      "chip": "ym2612"
    },
    {
      "channel": 5,
      "note": 57,
      "start": 56.8962,
      "duration": 0.1271,
      "velocity": 115,
      "chip": "ym2612"
    },
    {
      "channel": 3,
      "note": 66,
      "start": 56.9429,
      "duration": 0.0794,
      "velocity": 95,
      "chip": "ym2612"
    },
    {
      "channel": 1,
      "note": 70,
      "start": 57.0212,
      "duration": 0.2692,
      "velocity": 105,
      "chip": "ym2612"
    },
    {
      "channel": 2,
      "note": 65,
      "start": 57.0221,
      "duration": 0.0783,
      "velocity": 95,
      "chip": "ym2612"
    },
    {
      "channel": 4,
      "note": 53,
      "start": 57.0231,
      "duration": 0.0779,
      "velocity": 97,
      "chip": "ym2612"
    },
    {
      "channel": 5,
      "note": 57,
      "start": 57.024,
      "duration": 0.1129,
      "velocity": 127,
      "chip": "ym2612"
    },
    {
      "channel": 3,
      "note": 68,
      "start": 57.0539,
      "duration": 0.0791,
      "velocity": 95,
      "chip": "ym2612"
    },
    {
      "channel": 2,
      "note": 68,
      "start": 57.1328,
      "duration": 0.0787,
      "velocity": 95,
      "chip": "ym2612"
    },
    {
      "channel": 4,
      "note": 65,
      "start": 57.1338,
      "duration": 0.1741,
      "velocity": 97,
      "chip": "ym2612"
    },
    {
      "channel": 5,
      "note": 45,
      "start": 57.1377,
      "duration": 0.123,
      "velocity": 127,
      "chip": "ym2612"
    },
    {
      "channel": 0,
      "note": 70,
      "start": 57.1795,
      "duration": 0.2691,
      "velocity": 105,
      "chip": "ym2612"
    },
    {
      "channel": 3,
      "note": 65,
      "start": 57.1813,
      "duration": 0.0788,
      "velocity": 95,
      "chip": "ym2612"
    },
    {
      "channel": 2,
      "note": 70,
      "start": 57.2599,
      "duration": 0.0786,
      "velocity": 95,
      "chip": "ym2612"
    },
    {
      "channel": 3,
      "note": 68,
      "start": 57.2918,
      "duration": 0.0798,
      "velocity": 95,
      "chip": "ym2612"
    },
    {
      "channel": 1,
      "note": 68,
      "start": 57.3705,
      "duration": 0.1739,
      "velocity": 105,
      "chip": "ym2612"
    },
    {
      "channel": 2,
      "note": 71,
      "start": 57.3714,
      "duration": 0.0779,
      "velocity": 95,
      "chip": "ym2612"
    },
    {
      "channel": 4,
      "note": 53,
      "start": 57.3723,
      "duration": 0.1733,
      "velocity": 97,
      "chip": "ym2612"
    },
    {
      "channel": 5,
      "note": 57,
      "start": 57.3761,
      "duration": 0.1255,
      "velocity": 127,
      "chip": "ym2612"
    },
    {
      "channel": 3,
      "note": 70,
      "start": 57.4191,
      "duration": 0.079,
      "velocity": 95,
      "chip": "ym2612"
    },
    {
      "channel": 2,
      "note": 65,
      "start": 57.498,
      "duration": 0.0787,
      "velocity": 95,
      "chip": "ym2612"
    },
    {
      "channel": 5,
      "note": 45,
      "start": 57.5023,
      "duration": 0.1112,
      "velocity": 117,
      "chip": "ym2612"
    },
    {
      "channel": 0,
      "note": 68,
      "start": 57.5288,
      "duration": 0.174,
      "velocity": 105,
      "chip": "ym2612"
    },
    {
      "channel": 3,
      "note": 71,
      "start": 57.5307,
      "duration": 0.0791,
      "velocity": 95,
      "chip": "ym2612"
    },
    {
      "channel": 1,
      "note": 70,
      "start": 57.6087,
      "duration": 0.2691,
      "velocity": 105,
      "chip": "ym2612"
    },
    {
      "channel": 2,
      "note": 66,
      "start": 57.6095,
      "duration": 0.0782,
      "velocity": 95,
      "chip": "ym2612"
    },
    {
      "channel": 4,
      "note": 51,
      "start": 57.6104,
      "duration": 0.1737,
      "velocity": 97,
      "chip": "ym2612"
    },
    {
      "channel": 5,
      "note": 54,
      "start": 57.6142,
      "duration": 0.1228,
      "velocity": 117,
      "chip": "ym2612"
    },
    {
      "channel": 3,
      "note": 65,
      "start": 57.6572,
      "duration": 0.0791,
      "velocity": 95,
      "chip": "ym2612"
    },
    {
      "channel": 2,
      "note": 65,
      "start": 57.7361,
      "duration": 0.0786,
      "velocity": 95,
      "chip": "ym2612"
    },
    {
      "channel": 0,
      "note": 70,
      "start": 57.767,
      "duration": 0.2691,
      "velocity": 105,
      "chip": "ym2612"
    },
    {
      "channel": 3,
      "note": 66,
      "start": 57.7688,
      "duration": 0.0786,
      "velocity": 95,
      "chip": "ym2612"
    },
    {
      "channel": 2,
      "note": 66,
      "start": 57.8473,
      "duration": 0.0786,
      "velocity": 95,
      "chip": "ym2612"
    },
    {
      "channel": 4,
      "note": 51,
      "start": 57.8481,
      "duration": 0.1741,
      "velocity": 97,
      "chip": "ym2612"
    },
    {
      "channel": 5,
      "note": 57,
      "start": 57.8519,
      "duration": 0.1235,
      "velocity": 115,
      "chip": "ym2612"
    },
    {
      "channel": 3,
      "note": 65,
      "start": 57.8954,
      "duration": 0.0795,
      "velocity": 95,
      "chip": "ym2612"
    },
    {
      "channel": 1,
      "note": 78,
      "start": 57.9737,
      "duration": 0.2692,
      "velocity": 105,
      "chip": "ym2612"
    },
    {
      "channel": 2,
      "note": 68,
      "start": 57.9746,
      "duration": 0.0783,
      "velocity": 95,
      "chip": "ym2612"
    },
    {
      "channel": 5,
      "note": 57,
      "start": 57.9761,
      "duration": 0.1132,
      "velocity": 127,
      "chip": "ym2612"
    },
    {
      "channel": 3,
      "note": 66,
      "start": 58.0064,
      "duration": 0.0791,
      "velocity": 95,
      "chip": "ym2612"
    },
    {
      "channel": 2,
      "note": 70,
      "start": 58.0854,
      "duration": 0.0786,
      "velocity": 95,
      "chip": "ym2612"
    },
    {
      "channel": 4,
      "note": 51,
      "start": 58.0863,
      "duration": 0.1742,
      "velocity": 97,
      "chip": "ym2612"
    },
    {
      "channel": 5,
      "note": 45,
      "start": 58.0901,
      "duration": 0.1231,
      "velocity": 127,
      "chip": "ym2612"
    },
    {
      "channel": 0,
      "note": 78,
      "start": 58.132,
      "duration": 0.2692,
      "velocity": 105,
      "chip": "ym2612"
    },
    {
      "channel": 3,
      "note": 68,
      "start": 58.1338,
      "duration": 0.0787,
      "velocity": 95,
      "chip": "ym2612"
    },
    {
      "channel": 2,
      "note": 71,
      "start": 58.2123,
      "duration": 0.0787,
      "velocity": 95,
      "chip": "ym2612"
    },
    {
      "channel": 3,
      "note": 70,
      "start": 58.2443,
      "duration": 0.0798,
      "velocity": 95,
      "chip": "ym2612"
    },
    {
      "channel": 1,
      "note": 75,
      "start": 58.3231,
      "duration": 0.539,
      "velocity": 105,
      "chip": "ym2612"
    },
    {
      "channel": 2,
      "note": 73,
      "start": 58.324,
      "duration": 0.0779,
      "velocity": 95,
      "chip": "ym2612"
    },
    {
      "channel": 4,
      "note": 53,
      "start": 58.3249,
      "duration": 0.0775,
      "velocity": 97,
      "chip": "ym2612"
    },
    {
      "channel": 5,
      "note": 57,
      "start": 58.3288,
      "duration": 0.1258,
      "velocity": 127,
      "chip": "ym2612"
    },
    {
      "channel": 3,
      "note": 71,
      "start": 58.3716,
      "duration": 0.079,
      "velocity": 95,
      "chip": "ym2612"
    },
    {
      "channel": 2,
      "note": 75,
      "start": 58.4505,
      "duration": 0.0786,
      "velocity": 95,
      "chip": "ym2612"
    },
    {
      "channel": 4,
      "note": 54,
      "start": 58.4514,
      "duration": 0.0784,
      "velocity": 97,
      "chip": "ym2612"
    },
    {
      "channel": 5,
      "note": 45,
      "start": 58.4552,
      "duration": 0.1105,
      "velocity": 117,
      "chip": "ym2612"
    },
    {
      "channel": 0,
      "note": 75,
      "start": 58.4814,
      "duration": 0.539,
      "velocity": 105,
      "chip": "ym2612"
    },
    {
      "channel": 3,
      "note": 73,
      "start": 58.4832,
      "duration": 0.0786,
      "velocity": 95,
      "chip": "ym2612"
    },
    {
      "channel": 2,
      "note": 78,
      "start": 58.5616,
      "duration": 0.0787,
      "velocity": 95,
      "chip": "ym2612"
    },
    {
      "channel": 4,
      "note": 59,
      "start": 58.5627,
      "duration": 0.174,
      "velocity": 97,
      "chip": "ym2612"
    },
    {
      "channel": 5,
      "note": 54,
      "start": 58.5664,
      "duration": 0.1258,
      "velocity": 115,
      "chip": "ym2612"
    },
    {
      "channel": 3,
      "note": 75,
      "start": 58.6097,
      "duration": 0.079,
      "velocity": 95,
      "chip": "ym2612"
    },
    {
      "channel": 2,
      "note": 77,
      "start": 58.6886,
      "duration": 0.0787,
      "velocity": 95,
      "chip": "ym2612"
    },
    {
      "channel": 5,
      "note": 57,
      "start": 58.6929,
      "duration": 0.0599,
      "velocity": 115,
      "chip": "ym2612"
    },
    {
      "channel": 3,
      "note": 78,
      "start": 58.7209,
      "duration": 0.0791,
      "velocity": 95,
      "chip": "ym2612"
    },
    {
      "channel": 5,
      "note": 57,
      "start": 58.7536,
      "duration": 0.0473,
      "velocity": 115,
      "chip": "ym2612"
    },
    {
      "channel": 2,
      "note": 75,
      "start": 58.7998,
      "duration": 0.0786,
      "velocity": 95,
      "chip": "ym2612"
    },
    {
      "channel": 4,
      "note": 59,
      "start": 58.8007,
      "duration": 0.174,
      "velocity": 97,
      "chip": "ym2612"
    },
    {
      "channel": 5,
      "note": 57,
      "start": 58.8017,
      "duration": 0.1258,
      "velocity": 115,
      "chip": "ym2612"
    },
    {
      "channel": 3,
      "note": 77,
      "start": 58.8479,
      "duration": 0.079,
      "velocity": 95,
      "chip": "ym2612"
    },
    {
      "channel": 2,
      "note": 73,
      "start": 58.9267,
      "duration": 0.0787,
      "velocity": 95,
      "chip": "ym2612"
    },
    {
      "channel": 5,
      "note": 57,
      "start": 58.9282,
      "duration": 0.1141,
      "velocity": 127,
      "chip": "ym2612"
    },
    {
      "channel": 3,
      "note": 75,
      "start": 58.959,
      "duration": 0.0795,
      "velocity": 95,
      "chip": "ym2612"
    },
    {
      "channel": 1,
      "note": 78,
      "start": 59.0375,
      "duration": 0.174,
      "velocity": 105,
      "chip": "ym2612"
    },
    {
      "channel": 2,
      "note": 71,
      "start": 59.0383,
      "duration": 0.0782,
      "velocity": 95,
      "chip": "ym2612"
    },
    {
      "channel": 4,
      "note": 58,
      "start": 59.0393,
      "duration": 0.1733,
      "velocity": 97,
      "chip": "ym2612"
    },
    {
      "channel": 5,
      "note": 45,
      "start": 59.0431,
      "duration": 0.1227,
      "velocity": 127,
      "chip": "ym2612"
    },
    {
      "channel": 3,
      "note": 73,
      "start": 59.086,
      "duration": 0.0791,
      "velocity": 95,
      "chip": "ym2612"
    },
    {
      "channel": 2,
      "note": 70,
      "start": 59.1649,
      "duration": 0.0786,
      "velocity": 95,
      "chip": "ym2612"
    },
    {
      "channel": 0,
      "note": 78,
      "start": 59.1957,
      "duration": 0.174,
      "velocity": 105,
      "chip": "ym2612"
    },
    {
      "channel": 3,
      "note": 71,
      "start": 59.1976,
      "duration": 0.079,
      "velocity": 95,
      "chip": "ym2612"
    },
    {
      "channel": 1,
      "note": 70,
      "start": 59.2755,
      "duration": 0.174,
      "velocity": 105,
      "chip": "ym2612"
    },
    {
      "channel": 2,
      "note": 68,
      "start": 59.2764,
      "duration": 0.0783,
      "velocity": 95,
      "chip": "ym2612"
    },
    {
      "channel": 4,
      "note": 56,
      "start": 59.2774,
      "duration": 0.0779,
      "velocity": 97,
      "chip": "ym2612"
    },
    {
      "channel": 5,
      "note": 57,
      "start": 59.2812,
      "duration": 0.1258,
      "velocity": 127,
      "chip": "ym2612"
    },
    {
      "channel": 3,
      "note": 70,
      "start": 59.3241,
      "duration": 0.0791,
      "velocity": 95,
      "chip": "ym2612"
    },
    {
      "channel": 2,
      "note": 66,
      "start": 59.403,
      "duration": 0.0787,
      "velocity": 95,
      "chip": "ym2612"
    },
    {
      "channel": 4,
      "note": 54,
      "start": 59.4039,
      "duration": 0.0784,
      "velocity": 97,
      "chip": "ym2612"
    },
    {
      "channel": 5,
      "note": 45,
      "start": 59.4077,
      "duration": 0.1109,
      "velocity": 117,
      "chip": "ym2612"
    },
    {
      "channel": 0,
      "note": 70,
      "start": 59.4338,
      "duration": 0.1741,
      "velocity": 105,
      "chip": "ym2612"
    },
    {
      "channel": 3,
      "note": 68,
      "start": 59.4356,
      "duration": 0.0791,
      "velocity": 95,
      "chip": "ym2612"
    },
    {
      "channel": 1,
      "note": 71,
      "start": 59.5137,
      "duration": 0.3485,
      "velocity": 105,
      "chip": "ym2612"
    },
    {
      "channel": 2,
      "note": 64,
      "start": 59.5146,
      "duration": 0.0782,
      "velocity": 95,
      "chip": "ym2612"
    },
    {
      "channel": 4,
      "note": 64,
      "start": 59.5155,
      "duration": 0.0779,
      "velocity": 97,
      "chip": "ym2612"
    },
    {
      "channel": 5,
      "note": 54,
      "start": 59.5193,
      "duration": 0.1231,
      "velocity": 117,
      "chip": "ym2612"
    },
    {
      "channel": 3,
      "note": 66,
      "start": 59.5623,
      "duration": 0.0791,
      "velocity": 95,
      "chip": "ym2612"
    },
    {
      "channel": 2,
      "note": 66,
      "start": 59.6412,
      "duration": 0.0786,
      "velocity": 95,
      "chip": "ym2612"
    },
    {
      "channel": 4,
      "note": 52,
      "start": 59.642,
      "duration": 0.0784,
      "velocity": 97,
      "chip": "ym2612"
    },
    {
      "channel": 0,
      "note": 71,
      "start": 59.672,
      "duration": 0.3485,
      "velocity": 105,
      "chip": "ym2612"
    },
    {
      "channel": 3,
      "note": 64,
      "start": 59.6739,
      "duration": 0.0785,
      "velocity": 95,
      "chip": "ym2612"
    },
    {
      "channel": 2,
      "note": 68,
      "start": 59.7523,
      "duration": 0.0787,
      "velocity": 95,
      "chip": "ym2612"
    },
    {
      "channel": 4,
      "note": 52,
      "start": 59.7532,
      "duration": 0.174,
      "velocity": 97,
      "chip": "ym2612"
    },
    {
      "channel": 5,
      "note": 57,
      "start": 59.7571,
      "duration": 0.123,
      "velocity": 115,
      "chip": "ym2612"
    },
    {
      "channel": 3,
      "note": 66,
      "start": 59.8004,
      "duration": 0.0791,
      "velocity": 95,
      "chip": "ym2612"
    },
    {
      "channel": 2,
      "note": 64,
      "start": 59.8793,
      "duration": 0.0787,
      "velocity": 95,
      "chip": "ym2612"
    },
    {
      "channel": 5,
      "note": 57,
      "start": 59.8808,
      "duration": 0.1141,
      "velocity": 127,
      "chip": "ym2612"
    },
    {
      "channel": 3,
      "note": 68,
      "start": 59.9115,
      "duration": 0.0794,
      "velocity": 95,
      "chip": "ym2612"
    },
    {
      "channel": 1,
      "note": 71,
      "start": 59.99,
      "duration": 0.3485,
      "velocity": 105,
      "chip": "ym2612"
    },
    {
      "channel": 2,
      "note": 66,
      "start": 59.9908,
      "duration": 0.0782,
      "velocity": 95,
      "chip": "ym2612"
    },
    {
      "channel": 4,
      "note": 64,
      "start": 59.9917,
      "duration": 0.1737,
      "velocity": 97,
      "chip": "ym2612"
    },
    {
      "channel": 5,
      "note": 45,
      "start": 59.9955,
      "duration": 0.1227,
      "velocity": 127,
      "chip": "ym2612"
    },
    {
      "channel": 3,
      "note": 64,
      "start": 60.0385,
      "duration": 0.0791,
      "velocity": 95,
      "chip": "ym2612"
    },
    {
      "channel": 2,
      "note": 68,
      "start": 60.1174,
      "duration": 0.0786,
      "velocity": 95,
      "chip": "ym2612"
    },
    {
      "channel": 0,
      "note": 71,
      "start": 60.1482,
      "duration": 0.3485,
      "velocity": 105,
      "chip": "ym2612"
    },
    {
      "channel": 3,
      "note": 66,
      "start": 60.15,
      "duration": 0.0787,
      "velocity": 95,
      "chip": "ym2612"
    },
    {
      "channel": 2,
      "note": 66,
      "start": 60.2285,
      "duration": 0.0787,
      "velocity": 95,
      "chip": "ym2612"
    },
    {
      "channel": 4,
      "note": 52,
      "start": 60.2295,
      "duration": 0.0784,
      "velocity": 97,
      "chip": "ym2612"
    },
    {
      "channel": 5,
      "note": 57,
      "start": 60.2333,
      "duration": 0.1262,
      "velocity": 127,
      "chip": "ym2612"
    },
    {
      "channel": 3,
      "note": 68,
      "start": 60.2766,
      "duration": 0.079,
      "velocity": 95,
      "chip": "ym2612"
    },
    {
      "channel": 2,
      "note": 64,
      "start": 60.3555,
      "duration": 0.0787,
      "velocity": 95,
      "chip": "ym2612"
    },
    {
      "channel": 4,
      "note": 52,
      "start": 60.3564,
      "duration": 0.0784,
      "velocity": 97,
      "chip": "ym2612"
    },
    {
      "channel": 5,
      "note": 45,
      "start": 60.3602,
      "duration": 0.111,
      "velocity": 117,
      "chip": "ym2612"
    },
    {
      "channel": 3,
      "note": 66,
      "start": 60.3878,
      "duration": 0.0795,
      "velocity": 95,
      "chip": "ym2612"
    },
    {
      "channel": 1,
      "note": 71,
      "start": 60.4663,
      "duration": 0.2691,
      "velocity": 105,
      "chip": "ym2612"
    },
    {
      "channel": 2,
      "note": 65,
      "start": 60.4672,
      "duration": 0.0782,
      "velocity": 95,
      "chip": "ym2612"
    },
    {
      "channel": 4,
      "note": 53,
      "start": 60.4681,
      "duration": 0.1736,
      "velocity": 97,
      "chip": "ym2612"
    },
    {
      "channel": 5,
      "note": 54,
      "start": 60.4719,
      "duration": 0.1254,
      "velocity": 115,
      "chip": "ym2612"
    },
    {
      "channel": 3,
      "note": 64,
      "start": 60.5148,
      "duration": 0.0791,
      "velocity": 95,
      "chip": "ym2612"
    },
    {
      "channel": 2,
      "note": 66,
      "start": 60.5937,
      "duration": 0.0786,
      "velocity": 95,
      "chip": "ym2612"
    },
    {
      "channel": 5,
      "note": 57,
      "start": 60.598,
      "duration": 0.0599,
      "velocity": 115,
      "chip": "ym2612"
    },
    {
      "channel": 0,
      "note": 71,
      "start": 60.6246,
      "duration": 0.2691,
      "velocity": 105,
      "chip": "ym2612"
    },
    {
      "channel": 3,
      "note": 65,
      "start": 60.6263,
      "duration": 0.0786,
      "velocity": 95,
      "chip": "ym2612"
    },
    {
      "channel": 5,
      "note": 57,
      "start": 60.6586,
      "duration": 0.0473,
      "velocity": 115,
      "chip": "ym2612"
    },
    {
      "channel": 2,
      "note": 68,
      "start": 60.7048,
      "duration": 0.0787,
      "velocity": 95,
      "chip": "ym2612"
    },
    {
      "channel": 4,
      "note": 53,
      "start": 60.7057,
      "duration": 0.1741,
      "velocity": 97,
      "chip": "ym2612"
    },
    {
      "channel": 5,
      "note": 57,
      "start": 60.7067,
      "duration": 0.1263,
      "velocity": 115,
      "chip": "ym2612"
    },
    {
      "channel": 3,
      "note": 66,
      "start": 60.7529,
      "duration": 0.0794,
      "velocity": 95,
      "chip": "ym2612"
    },
    {
      "channel": 1,
      "note": 70,
      "start": 60.8313,
      "duration": 0.2692,
      "velocity": 105,
      "chip": "ym2612"
    },
    {
      "channel": 2,
      "note": 65,
      "start": 60.8322,
      "duration": 0.0783,
      "velocity": 95,
      "chip": "ym2612"
    },
    {
      "channel": 5,
      "note": 57,
      "start": 60.8337,
      "duration": 0.1132,
      "velocity": 127,
      "chip": "ym2612"
    },
    {
      "channel": 3,
      "note": 68,
      "start": 60.864,
      "duration": 0.0791,
      "velocity": 95,
      "chip": "ym2612"
    },
    {
      "channel": 2,
      "note": 66,
      "start": 60.9429,
      "duration": 0.0787,
      "velocity": 95,
      "chip": "ym2612"
    },
    {
      "channel": 4,
      "note": 65,
      "start": 60.9438,
      "duration": 0.1741,
      "velocity": 97,
      "chip": "ym2612"
    },
    {
      "channel": 5,
      "note": 45,
      "start": 60.9476,
      "duration": 0.1232,
      "velocity": 127,
      "chip": "ym2612"
    },
    {
      "channel": 0,
      "note": 70,
      "start": 60.9896,
      "duration": 0.2691,
      "velocity": 105,
      "chip": "ym2612"
    },
    {
      "channel": 3,
      "note": 65,
      "start": 60.9914,
      "duration": 0.0787,
      "velocity": 95,
      "chip": "ym2612"
    },
    {
      "channel": 2,
      "note": 68,
      "start": 61.07,
      "duration": 0.0786,
      "velocity": 95,
      "chip": "ym2612"
    },
    {
      "channel": 3,
      "note": 66,
      "start": 61.1018,
      "duration": 0.0798,
      "velocity": 95,
      "chip": "ym2612"
    },
    {
      "channel": 1,
      "note": 68,
      "start": 61.1807,
      "duration": 0.1739,
      "velocity": 105,
      "chip": "ym2612"
    },
    {
      "channel": 2,
      "note": 70,
      "start": 61.1815,
      "duration": 0.0779,
      "velocity": 95,
      "chip": "ym2612"
    },
    {
      "channel": 4,
      "note": 53,
      "start": 61.1824,
      "duration": 0.1733,
      "velocity": 97,
      "chip": "ym2612"
    },
    {
      "channel": 5,
      "note": 57,
      "start": 61.1862,
      "duration": 0.1255,
      "velocity": 127,
      "chip": "ym2612"
    },
    {
      "channel": 3,
      "note": 68,
      "start": 61.2291,
      "duration": 0.0791,
      "velocity": 95,
      "chip": "ym2612"
    },
    {
      "channel": 2,
      "note": 71,
      "start": 61.3081,
      "duration": 0.0786,
      "velocity": 95,
      "chip": "ym2612"
    },
    {
      "channel": 5,
      "note": 45,
      "start": 61.3124,
      "duration": 0.1112,
      "velocity": 117,
      "chip": "ym2612"
    },
    {
      "channel": 0,
      "note": 68,
      "start": 61.3389,
      "duration": 0.1739,
      "velocity": 105,
      "chip": "ym2612"
    },
    {
      "channel": 3,
      "note": 70,
      "start": 61.3408,
      "duration": 0.079,
      "velocity": 95,
      "chip": "ym2612"
    },
    {
      "channel": 1,
      "note": 70,
      "start": 61.4188,
      "duration": 1.1265,
      "velocity": 105,
      "chip": "ym2612"
    },
    {
      "channel": 2,
      "note": 73,
      "start": 61.4197,
      "duration": 0.0782,
      "velocity": 95,
      "chip": "ym2612"
    },
    {
      "channel": 4,
      "note": 54,
      "start": 61.4205,
      "duration": 0.1737,
      "velocity": 97,
      "chip": "ym2612"
    },
    {
      "channel": 5,
      "note": 54,
      "start": 61.4243,
      "duration": 0.1227,
      "velocity": 117,
      "chip": "ym2612"
    },
    {
      "channel": 3,
      "note": 71,
      "start": 61.4673,
      "duration": 0.079,
      "velocity": 95,
      "chip": "ym2612"
    },
    {
      "channel": 2,
      "note": 71,
      "start": 61.5462,
      "duration": 0.0787,
      "velocity": 95,
      "chip": "ym2612"
    },
    {
      "channel": 0,
      "note": 70,
      "start": 61.577,
      "duration": 1.1265,
      "velocity": 105,
      "chip": "ym2612"
    },
    {
      "channel": 3,
      "note": 73,
      "start": 61.5789,
      "duration": 0.0786,
      "velocity": 95,
      "chip": "ym2612"
    },
    {
      "channel": 2,
      "note": 70,
      "start": 61.6573,
      "duration": 0.0787,
      "velocity": 95,
      "chip": "ym2612"
    },
    {
      "channel": 4,
      "note": 66,
      "start": 61.6583,
      "duration": 0.1741,
      "velocity": 97,
      "chip": "ym2612"
    },
    {
      "channel": 5,
      "note": 57,
      "start": 61.662,
      "duration": 0.1231,
      "velocity": 115,
      "chip": "ym2612"
    },
    {
      "channel": 3,
      "note": 71,
      "start": 61.7055,
      "duration": 0.079,
      "velocity": 95,
      "chip": "ym2612"
    },
    {
      "channel": 2,
      "note": 82,
      "start": 61.7843,
      "duration": 0.0787,
      "velocity": 95,
      "chip": "ym2612"
    },
    {
      "channel": 5,
      "note": 57,
      "start": 61.7859,
      "duration": 0.1136,
      "velocity": 127,
      "chip": "ym2612"
    },
    {
      "channel": 3,
      "note": 70,
      "start": 61.8166,
      "duration": 0.0791,
      "velocity": 95,
      "chip": "ym2612"
    },
    {
      "channel": 2,
      "note": 80,
      "start": 61.8955,
      "duration": 0.0787,
      "velocity": 95,
      "chip": "ym2612"
    },
    {
      "channel": 4,
      "note": 54,
      "start": 61.8964,
      "duration": 0.174,
      "velocity": 97,
      "chip": "ym2612"
    },
    {
      "channel": 5,
      "note": 45,
      "start": 61.9002,
      "duration": 0.1232,
      "velocity": 127,
      "chip": "ym2612"
    },
    {
      "channel": 3,
      "note": 82,
      "start": 61.9436,
      "duration": 0.0791,
      "velocity": 95,
      "chip": "ym2612"
    },
    {
      "channel": 2,
      "note": 78,
      "start": 62.0225,
      "duration": 0.0786,
      "velocity": 95,
      "chip": "ym2612"
    },
    {
      "channel": 3,
      "note": 80,
      "start": 62.0547,
      "duration": 0.0791,
      "velocity": 95,
      "chip": "ym2612"
    },
    {
      "channel": 2,
      "note": 73,
      "start": 62.1336,
      "duration": 0.0786,
      "velocity": 95,
      "chip": "ym2612"
    },
    {
      "channel": 4,
      "note": 66,
      "start": 62.1346,
      "duration": 0.0783,
      "velocity": 97,
      "chip": "ym2612"
    },
    {
      "channel": 5,
      "note": 57,
      "start": 62.1383,
      "duration": 0.1263,
      "velocity": 127,
      "chip": "ym2612"
    },
    {
      "channel": 3,
      "note": 78,
      "start": 62.1817,
      "duration": 0.079,
      "velocity": 95,
      "chip": "ym2612"
    },
    {
      "channel": 2,
      "note": 71,
      "start": 62.2606,
      "duration": 0.0786,
      "velocity": 95,
      "chip": "ym2612"
    },
    {
      "channel": 4,
      "note": 66,
      "start": 62.2615,
      "duration": 0.0784,
      "velocity": 97,
      "chip": "ym2612"
    },
    {
      "channel": 5,
      "note": 45,
      "start": 62.2653,
      "duration": 0.1104,
      "velocity": 117,
      "chip": "ym2612"
    },
    {
      "channel": 3,
      "note": 73,
      "start": 62.2928,
      "duration": 0.0791,
      "velocity": 95,
      "chip": "ym2612"
    },
    {
      "channel": 2,
      "note": 70,
      "start": 62.3717,
      "duration": 0.0787,
      "velocity": 95,
      "chip": "ym2612"
    },
    {
      "channel": 4,
      "note": 54,
      "start": 62.3727,
      "duration": 0.1737,
      "velocity": 97,
      "chip": "ym2612"
    },
    {
      "channel": 5,
      "note": 54,
      "start": 62.3765,
      "duration": 0.1259,
      "velocity": 115,
      "chip": "ym2612"
    },
    {
      "channel": 3,
      "note": 71,
      "start": 62.4198,
      "duration": 0.0791,
      "velocity": 95,
      "chip": "ym2612"
    },
    {
      "channel": 2,
      "note": 82,
      "start": 62.4987,
      "duration": 0.0787,
      "velocity": 95,
      "chip": "ym2612"
    },
    {
      "channel": 5,
      "note": 57,
      "start": 62.503,
      "duration": 0.0599,
      "velocity": 115,
      "chip": "ym2612"
    },
    {
      "channel": 3,
      "note": 70,
      "start": 62.531,
      "duration": 0.0791,
      "velocity": 95,
      "chip": "ym2612"
    },
    {
      "channel": 5,
      "note": 57,
      "start": 62.5637,
      "duration": 0.0475,
      "velocity": 115,
      "chip": "ym2612"
    },
    {
      "channel": 2,
      "note": 80,
      "start": 62.6099,
      "duration": 0.0786,
      "velocity": 95,
      "chip": "ym2612"
    },
    {
      "channel": 4,
      "note": 66,
      "start": 62.6108,
      "duration": 0.174,
      "velocity": 97,
      "chip": "ym2612"
    },
    {
      "channel": 5,
      "note": 57,
      "start": 62.6118,
      "duration": 0.1258,
      "velocity": 115,
      "chip": "ym2612"
    },
    {
      "channel": 3,
      "note": 82,
      "start": 62.658,
      "duration": 0.0791,
      "velocity": 95,
      "chip": "ym2612"
    },
    {
      "channel": 2,
      "note": 78,
      "start": 62.7368,
      "duration": 0.0787,
      "velocity": 95,
      "chip": "ym2612"
    },
    {
      "channel": 5,
      "note": 57,
      "start": 62.7383,
      "duration": 0.114,
      "velocity": 122,
      "chip": "ym2612"
    },
    {
      "channel": 3,
      "note": 80,
      "start": 62.7691,
      "duration": 0.0795,
      "velocity": 95,
      "chip": "ym2612"
    },
    {
      "channel": 1,
      "note": 71,
      "start": 62.8476,
      "duration": 0.1739,
      "velocity": 105,
      "chip": "ym2612"
    },
    {
      "channel": 2,
      "note": 73,
      "start": 62.8484,
      "duration": 0.0782,
      "velocity": 95,
      "chip": "ym2612"
    },
    {
      "channel": 4,
      "note": 54,
      "start": 62.8493,
      "duration": 0.1734,
      "velocity": 97,
      "chip": "ym2612"
    },
    {
      "channel": 5,
      "note": 54,
      "start": 62.853,
      "duration": 0.1256,
      "velocity": 127,
      "chip": "ym2612"
    },
    {
      "channel": 3,
      "note": 78,
      "start": 62.8961,
      "duration": 0.0791,
      "velocity": 95,
      "chip": "ym2612"
    },
    {
      "channel": 2,
      "note": 71,
      "start": 62.975,
      "duration": 0.0786,
      "velocity": 95,
      "chip": "ym2612"
    },
    {
      "channel": 5,
      "note": 45,
      "start": 62.9793,
      "duration": 0.1112,
      "velocity": 122,
      "chip": "ym2612"
    },
    {
      "channel": 0,
      "note": 71,
      "start": 63.0059,
      "duration": 0.1739,
      "velocity": 105,
      "chip": "ym2612"
    },
    {
      "channel": 3,
      "note": 73,
      "start": 63.0077,
      "duration": 0.079,
      "velocity": 95,
      "chip": "ym2612"
    },
    {
      "channel": 1,
      "note": 70,
      "start": 63.0856,
      "duration": 0.174,
      "velocity": 105,
      "chip": "ym2612"
    },
    {
      "channel": 2,
      "note": 70,
      "start": 63.0865,
      "duration": 0.0783,
      "velocity": 95,
      "chip": "ym2612"
    },
    {
      "channel": 4,
      "note": 66,
      "start": 63.0875,
      "duration": 0.0779,
      "velocity": 97,
      "chip": "ym2612"
    },
    {
      "channel": 5,
      "note": 49,
      "start": 63.0912,
      "duration": 0.1258,
      "velocity": 122,
      "chip": "ym2612"
    },
    {
      "channel": 3,
      "note": 71,
      "start": 63.1342,
      "duration": 0.079,
      "velocity": 95,
      "chip": "ym2612"
    },
    {
      "channel": 2,
      "note": 66,
      "start": 63.2131,
      "duration": 0.0787,
      "velocity": 95,
      "chip": "ym2612"
    },
    {
      "channel": 4,
      "note": 66,
      "start": 63.214,
      "duration": 0.0784,
      "velocity": 97,
      "chip": "ym2612"
    },
    {
      "channel": 5,
      "note": 42,
      "start": 63.2178,
      "duration": 0.1111,
      "velocity": 127,
      "chip": "ym2612"
    },
    {
      "channel": 0,
      "note": 70,
      "start": 63.2439,
      "duration": 0.174,
      "velocity": 105,
      "chip": "ym2612"
    },
    {
      "channel": 3,
      "note": 70,
      "start": 63.2457,
      "duration": 0.0791,
      "velocity": 95,
      "chip": "ym2612"
    },
    {
      "channel": 1,
      "note": 71,
      "start": 63.3238,
      "duration": 0.2691,
      "velocity": 105,
      "chip": "ym2612"
    },
    {
      "channel": 2,
      "note": 64,
      "start": 63.3247,
      "duration": 0.0782,
      "velocity": 95,
      "chip": "ym2612"
    },
    {
      "channel": 4,
      "note": 52,
      "start": 63.3257,
      "duration": 0.2684,
      "velocity": 97,
      "chip": "ym2612"
    },
    {
      "channel": 5,
      "note": 45,
      "start": 63.3295,
      "duration": 0.1225,
      "velocity": 127,
      "chip": "ym2612"
    },
    {
      "channel": 3,
      "note": 66,
      "start": 63.3723,
      "duration": 0.0791,
      "velocity": 95,
      "chip": "ym2612"
    },
    {
      "channel": 2,
      "note": 66,
      "start": 63.4512,
      "duration": 0.0787,
      "velocity": 95,
      "chip": "ym2612"
    },
    {
      "channel": 0,
      "note": 71,
      "start": 63.4821,
      "duration": 0.2691,
      "velocity": 105,
      "chip": "ym2612"
    },
    {
      "channel": 3,
      "note": 64,
      "start": 63.4839,
      "duration": 0.0786,
      "velocity": 95,
      "chip": "ym2612"
    },
    {
      "channel": 2,
      "note": 64,
      "start": 63.5624,
      "duration": 0.0786,
      "velocity": 95,
      "chip": "ym2612"
    },
    {
      "channel": 5,
      "note": 54,
      "start": 63.5667,
      "duration": 0.1271,
      "velocity": 127,
      "chip": "ym2612"
    },
    {
      "channel": 3,
      "note": 66,
      "start": 63.6105,
      "duration": 0.0794,
      "velocity": 95,
      "chip": "ym2612"
    },
    {
      "channel": 1,
      "note": 70,
      "start": 63.6889,
      "duration": 0.2692,
      "velocity": 105,
      "chip": "ym2612"
    },
    {
      "channel": 2,
      "note": 63,
      "start": 63.6898,
      "duration": 0.0783,
      "velocity": 95,
      "chip": "ym2612"
    },
    {
      "channel": 4,
      "note": 52,
      "start": 63.6906,
      "duration": 0.269,
      "velocity": 97,
      "chip": "ym2612"
    },
    {
      "channel": 5,
      "note": 45,
      "start": 63.6945,
      "duration": 0.1069,
      "velocity": 127,
      "chip": "ym2612"
    },
    {
      "channel": 3,
      "note": 64,
      "start": 63.7216,
      "duration": 0.0791,
      "velocity": 95,
      "chip": "ym2612"
    },
    {
      "channel": 2,
      "note": 64,
      "start": 63.8005,
      "duration": 0.0786,
      "velocity": 95,
      "chip": "ym2612"
    },
    {
      "channel": 0,
      "note": 70,
      "start": 63.8472,
      "duration": 0.2692,
      "velocity": 105,
      "chip": "ym2612"
    },
    {
      "channel": 3,
      "note": 63,
      "start": 63.849,
      "duration": 0.0787,
      "velocity": 95,
      "chip": "ym2612"
    },
    {
      "channel": 2,
      "note": 68,
      "start": 63.9275,
      "duration": 0.0787,
      "velocity": 95,
      "chip": "ym2612"
    },
    {
      "channel": 5,
      "note": 54,
      "start": 63.9318,
      "duration": 0.1112,
      "velocity": 127,
      "chip": "ym2612"
    },
    {
      "channel": 3,
      "note": 64,
      "start": 63.9594,
      "duration": 0.0798,
      "velocity": 95,
      "chip": "ym2612"
    },
    {
      "channel": 1,
      "note": 68,
      "start": 64.0382,
      "duration": 0.3485,
      "velocity": 105,
      "chip": "ym2612"
    },
    {
      "channel": 2,
      "note": 73,
      "start": 64.039,
      "duration": 0.0779,
      "velocity": 95,
      "chip": "ym2612"
    },
    {
      "channel": 4,
      "note": 52,
      "start": 64.04,
      "duration": 0.2689,
      "velocity": 97,
      "chip": "ym2612"
    },
    {
      "channel": 5,
      "note": 45,
      "start": 64.0438,
      "duration": 0.1228,
      "velocity": 127,
      "chip": "ym2612"
    },
    {
      "channel": 3,
      "note": 68,
      "start": 64.0867,
      "duration": 0.0791,
      "velocity": 95,
      "chip": "ym2612"
    },
    {
      "channel": 2,
      "note": 76,
      "start": 64.1657,
      "duration": 0.1739,
      "velocity": 95,
      "chip": "ym2612"
    },
    {
      "channel": 0,
      "note": 68,
      "start": 64.1965,
      "duration": 0.3485,
      "velocity": 105,
      "chip": "ym2612"
    },
    {
      "channel": 3,
      "note": 73,
      "start": 64.1983,
      "duration": 0.0782,
      "velocity": 95,
      "chip": "ym2612"
    },
    {
      "channel": 5,
      "note": 54,
      "start": 64.2807,
      "duration": 0.1247,
      "velocity": 117,
      "chip": "ym2612"
    },
    {
      "channel": 3,
      "note": 76,
      "start": 64.325,
      "duration": 0.1738,
      "velocity": 95,
      "chip": "ym2612"
    },
    {
      "channel": 2,
      "note": 76,
      "start": 64.4038,
      "duration": 0.0786,
      "velocity": 95,
      "chip": "ym2612"
    },
    {
      "channel": 4,
      "note": 52,
      "start": 64.4051,
      "duration": 0.0779,
      "velocity": 97,
      "chip": "ym2612"
    },
    {
      "channel": 1,
      "note": 68,
      "start": 64.5145,
      "duration": 0.1739,
      "velocity": 105,
      "chip": "ym2612"
    },
    {
      "channel": 2,
      "note": 76,
      "start": 64.5155,
      "duration": 0.1732,
      "velocity": 95,
      "chip": "ym2612"
    },
    {
      "channel": 4,
      "note": 64,
      "start": 64.5168,
      "duration": 0.1725,
      "velocity": 97,
      "chip": "ym2612"
    },
    {
      "channel": 5,
      "note": 57,
      "start": 64.5206,
      "duration": 0.1217,
      "velocity": 115,
      "chip": "ym2612"
    },
    {
      "channel": 3,
      "note": 76,
      "start": 64.563,
      "duration": 0.0786,
      "velocity": 95,
      "chip": "ym2612"
    },
    {
      "channel": 5,
      "note": 57,
      "start": 64.6431,
      "duration": 0.1146,
      "velocity": 127,
      "chip": "ym2612"
    },
    {
      "channel": 0,
      "note": 68,
      "start": 64.6728,
      "duration": 0.1739,
      "velocity": 105,
      "chip": "ym2612"
    },
    {
      "channel": 3,
      "note": 76,
      "start": 64.6747,
      "duration": 0.1732,
      "velocity": 95,
      "chip": "ym2612"
    },
    {
      "channel": 1,
      "note": 70,
      "start": 64.7525,
      "duration": 0.1741,
      "velocity": 105,
      "chip": "ym2612"
    },
    {
      "channel": 2,
      "note": 71,
      "start": 64.7534,
      "duration": 0.1733,
      "velocity": 95,
      "chip": "ym2612"
    },
    {
      "channel": 4,
      "note": 52,
      "start": 64.7546,
      "duration": 0.1728,
      "velocity": 97,
      "chip": "ym2612"
    },
    {
      "channel": 5,
      "note": 45,
      "start": 64.7584,
      "duration": 0.1224,
      "velocity": 127,
      "chip": "ym2612"
    },
    {
      "channel": 0,
      "note": 70,
      "start": 64.9108,
      "duration": 0.174,
      "velocity": 105,
      "chip": "ym2612"
    },
    {
      "channel": 3,
      "note": 71,
      "start": 64.9126,
      "duration": 0.1734,
      "velocity": 95,
      "chip": "ym2612"
    },
    {
      "channel": 1,
      "note": 71,
      "start": 64.9906,
      "duration": 0.1741,
      "velocity": 105,
      "chip": "ym2612"
    },
    {
      "channel": 2,
      "note": 68,
      "start": 64.9915,
      "duration": 0.1733,
      "velocity": 95,
      "chip": "ym2612"
    },
    {
      "channel": 4,
      "note": 64,
      "start": 64.9928,
      "duration": 0.078,
      "velocity": 97,
      "chip": "ym2612"
    },
    {
      "channel": 5,
      "note": 57,
      "start": 64.9966,
      "duration": 0.0588,
      "velocity": 115,
      "chip": "ym2612"
    },
    {
      "channel": 5,
      "note": 57,
      "start": 65.0561,
      "duration": 0.0632,
      "velocity": 115,
      "chip": "ym2612"
    },
    {
      "channel": 4,
      "note": 52,
      "start": 65.119,
      "duration": 0.0788,
      "velocity": 97,
      "chip": "ym2612"
    },
    {
      "channel": 5,
      "note": 57,
      "start": 65.12,
      "duration": 0.1142,
      "velocity": 127,
      "chip": "ym2612"
    },
    {
      "channel": 0,
      "note": 71,
      "start": 65.1489,
      "duration": 0.1741,
      "velocity": 105,
      "chip": "ym2612"
    },
    {
      "channel": 3,
      "note": 68,
      "start": 65.1507,
      "duration": 0.1734,
      "velocity": 95,
      "chip": "ym2612"
    },
    {
      "channel": 1,
      "note": 73,
      "start": 65.2289,
      "duration": 0.2691,
      "velocity": 105,
      "chip": "ym2612"
    },
    {
      "channel": 2,
      "note": 66,
      "start": 65.2298,
      "duration": 0.0781,
      "velocity": 95,
      "chip": "ym2612"
    },
    {
      "channel": 4,
      "note": 54,
      "start": 65.2311,
      "duration": 0.268,
      "velocity": 97,
      "chip": "ym2612"
    },
    {
      "channel": 5,
      "note": 45,
      "start": 65.2349,
      "duration": 0.1224,
      "velocity": 127,
      "chip": "ym2612"
    },
    {
      "channel": 2,
      "note": 68,
      "start": 65.3562,
      "duration": 0.0787,
      "velocity": 95,
      "chip": "ym2612"
    },
    {
      "channel": 0,
      "note": 73,
      "start": 65.3871,
      "duration": 0.2691,
      "velocity": 105,
      "chip": "ym2612"
    },
    {
      "channel": 3,
      "note": 66,
      "start": 65.389,
      "duration": 0.0785,
      "velocity": 95,
      "chip": "ym2612"
    },
    {
      "channel": 2,
      "note": 66,
      "start": 65.4674,
      "duration": 0.0786,
      "velocity": 95,
      "chip": "ym2612"
    },
    {
      "channel": 5,
      "note": 54,
      "start": 65.4717,
      "duration": 0.1271,
      "velocity": 127,
      "chip": "ym2612"
    },
    {
      "channel": 3,
      "note": 68,
      "start": 65.5155,
      "duration": 0.0794,
      "velocity": 95,
      "chip": "ym2612"
    },
    {
      "channel": 1,
      "note": 71,
      "start": 65.5939,
      "duration": 0.2692,
      "velocity": 105,
      "chip": "ym2612"
    },
    {
      "channel": 2,
      "note": 65,
      "start": 65.5948,
      "duration": 0.0783,
      "velocity": 95,
      "chip": "ym2612"
    },
    {
      "channel": 4,
      "note": 54,
      "start": 65.5957,
      "duration": 0.269,
      "velocity": 97,
      "chip": "ym2612"
    },
    {
      "channel": 5,
      "note": 45,
      "start": 65.5995,
      "duration": 0.1069,
      "velocity": 127,
      "chip": "ym2612"
    },
    {
      "channel": 3,
      "note": 66,
      "start": 65.6266,
      "duration": 0.0791,
      "velocity": 95,
      "chip": "ym2612"
    },
    {
      "channel": 2,
      "note": 66,
      "start": 65.7055,
      "duration": 0.0786,
      "velocity": 95,
      "chip": "ym2612"
    },
    {
      "channel": 0,
      "note": 71,
      "start": 65.7522,
      "duration": 0.2691,
      "velocity": 105,
      "chip": "ym2612"
    },
    {
      "channel": 3,
      "note": 65,
      "start": 65.754,
      "duration": 0.0787,
      "velocity": 95,
      "chip": "ym2612"
    },
    {
      "channel": 2,
      "note": 70,
      "start": 65.8326,
      "duration": 0.0786,
      "velocity": 95,
      "chip": "ym2612"
    },
    {
      "channel": 5,
      "note": 54,
      "start": 65.8368,
      "duration": 0.1113,
      "velocity": 127,
      "chip": "ym2612"
    },
    {
      "channel": 3,
      "note": 66,
      "start": 65.8644,
      "duration": 0.0798,
      "velocity": 95,
      "chip": "ym2612"
    },
    {
      "channel": 1,
      "note": 70,
      "start": 65.9432,
      "duration": 0.3485,
      "velocity": 105,
      "chip": "ym2612"
    },
    {
      "channel": 2,
      "note": 75,
      "start": 65.9441,
      "duration": 0.0778,
      "velocity": 95,
      "chip": "ym2612"
    },
    {
      "channel": 4,
      "note": 54,
      "start": 65.945,
      "duration": 0.2688,
      "velocity": 97,
      "chip": "ym2612"
    },
    {
      "channel": 5,
      "note": 45,
      "start": 65.9488,
      "duration": 0.1227,
      "velocity": 127,
      "chip": "ym2612"
    },
    {
      "channel": 3,
      "note": 70,
      "start": 65.9918,
      "duration": 0.0791,
      "velocity": 95,
      "chip": "ym2612"
    },
    {
      "channel": 2,
      "note": 78,
      "start": 66.0707,
      "duration": 0.1739,
      "velocity": 95,
      "chip": "ym2612"
    },
    {
      "channel": 0,
      "note": 70,
      "start": 66.1015,
      "duration": 0.3485,
      "velocity": 105,
      "chip": "ym2612"
    },
    {
      "channel": 3,
      "note": 75,
      "start": 66.1034,
      "duration": 0.0782,
      "velocity": 95,
      "chip": "ym2612"
    },
    {
      "channel": 5,
      "note": 54,
      "start": 66.1857,
      "duration": 0.1247,
      "velocity": 117,
      "chip": "ym2612"
    },
    {
      "channel": 3,
      "note": 78,
      "start": 66.23,
      "duration": 0.1738,
      "velocity": 95,
      "chip": "ym2612"
    },
    {
      "channel": 2,
      "note": 78,
      "start": 66.3088,
      "duration": 0.0786,
      "velocity": 95,
      "chip": "ym2612"
    },
    {
      "channel": 4,
      "note": 54,
      "start": 66.3102,
      "duration": 0.0779,
      "velocity": 97,
      "chip": "ym2612"
    },
    {
      "channel": 1,
      "note": 70,
      "start": 66.4195,
      "duration": 0.1739,
      "velocity": 105,
      "chip": "ym2612"
    },
    {
      "channel": 2,
      "note": 78,
      "start": 66.4205,
      "duration": 0.1732,
      "velocity": 95,
      "chip": "ym2612"
    },
    {
      "channel": 4,
      "note": 66,
      "start": 66.4219,
      "duration": 0.1724,
      "velocity": 97,
      "chip": "ym2612"
    },
    {
      "channel": 5,
      "note": 57,
      "start": 66.4257,
      "duration": 0.1217,
      "velocity": 115,
      "chip": "ym2612"
    },
    {
      "channel": 3,
      "note": 78,
      "start": 66.4681,
      "duration": 0.0786,
      "velocity": 95,
      "chip": "ym2612"
    },
    {
      "channel": 5,
      "note": 57,
      "start": 66.5481,
      "duration": 0.1147,
      "velocity": 127,
      "chip": "ym2612"
    },
    {
      "channel": 0,
      "note": 70,
      "start": 66.5778,
      "duration": 0.1739,
      "velocity": 105,
      "chip": "ym2612"
    },
    {
      "channel": 3,
      "note": 78,
      "start": 66.5797,
      "duration": 0.1732,
      "velocity": 95,
      "chip": "ym2612"
    },
    {
      "channel": 1,
      "note": 71,
      "start": 66.6576,
      "duration": 0.174,
      "velocity": 105,
      "chip": "ym2612"
    },
    {
      "channel": 2,
      "note": 73,
      "start": 66.6585,
      "duration": 0.1733,
      "velocity": 95,
      "chip": "ym2612"
    },
    {
      "channel": 4,
      "note": 54,
      "start": 66.6597,
      "duration": 0.1727,
      "velocity": 97,
      "chip": "ym2612"
    },
    {
      "channel": 5,
      "note": 45,
      "start": 66.6635,
      "duration": 0.1223,
      "velocity": 127,
      "chip": "ym2612"
    },
    {
      "channel": 0,
      "note": 71,
      "start": 66.8158,
      "duration": 0.1741,
      "velocity": 105,
      "chip": "ym2612"
    },
    {
      "channel": 3,
      "note": 73,
      "start": 66.8177,
      "duration": 0.1733,
      "velocity": 95,
      "chip": "ym2612"
    },
    {
      "channel": 1,
      "note": 73,
      "start": 66.8957,
      "duration": 0.174,
      "velocity": 105,
      "chip": "ym2612"
    },
    {
      "channel": 2,
      "note": 70,
      "start": 66.8966,
      "duration": 0.1734,
      "velocity": 95,
      "chip": "ym2612"
    },
    {
      "channel": 4,
      "note": 66,
      "start": 66.8978,
      "duration": 0.078,
      "velocity": 97,
      "chip": "ym2612"
    },
    {
      "channel": 5,
      "note": 57,
      "start": 66.9017,
      "duration": 0.0588,
      "velocity": 115,
      "chip": "ym2612"
    },
    {
      "channel": 5,
      "note": 57,
      "start": 66.9612,
      "duration": 0.0631,
      "velocity": 115,
      "chip": "ym2612"
    },
    {
      "channel": 4,
      "note": 54,
      "start": 67.024,
      "duration": 0.0788,
      "velocity": 97,
      "chip": "ym2612"
    },
    {
      "channel": 5,
      "note": 57,
      "start": 67.0251,
      "duration": 0.1142,
      "velocity": 117,
      "chip": "ym2612"
    },
    {
      "channel": 0,
      "note": 73,
      "start": 67.0539,
      "duration": 0.174,
      "velocity": 105,
      "chip": "ym2612"
    },
    {
      "channel": 3,
      "note": 70,
      "start": 67.0558,
      "duration": 0.1734,
      "velocity": 95,
      "chip": "ym2612"
    },
    {
      "channel": 1,
      "note": 75,
      "start": 67.1339,
      "duration": 0.3485,
      "velocity": 105,
      "chip": "ym2612"
    },
    {
      "channel": 2,
      "note": 68,
      "start": 67.1349,
      "duration": 0.0781,
      "velocity": 95,
      "chip": "ym2612"
    },
    {
      "channel": 4,
      "note": 56,
      "start": 67.1362,
      "duration": 0.1732,
      "velocity": 97,
      "chip": "ym2612"
    },
    {
      "channel": 5,
      "note": 54,
      "start": 67.14,
      "duration": 0.1225,
      "velocity": 117,
      "chip": "ym2612"
    },
    {
      "channel": 2,
      "note": 70,
      "start": 67.2613,
      "duration": 0.0787,
      "velocity": 95,
      "chip": "ym2612"
    },
    {
      "channel": 0,
      "note": 75,
      "start": 67.2922,
      "duration": 0.3484,
      "velocity": 105,
      "chip": "ym2612"
    },
    {
      "channel": 3,
      "note": 68,
      "start": 67.2941,
      "duration": 0.0784,
      "velocity": 95,
      "chip": "ym2612"
    },
    {
      "channel": 2,
      "note": 71,
      "start": 67.3724,
      "duration": 0.0787,
      "velocity": 95,
      "chip": "ym2612"
    },
    {
      "channel": 4,
      "note": 56,
      "start": 67.3733,
      "duration": 0.1741,
      "velocity": 97,
      "chip": "ym2612"
    },
    {
      "channel": 5,
      "note": 57,
      "start": 67.3771,
      "duration": 0.1232,
      "velocity": 115,
      "chip": "ym2612"
    },
    {
      "channel": 3,
      "note": 70,
      "start": 67.4205,
      "duration": 0.0791,
      "velocity": 95,
      "chip": "ym2612"
    },
    {
      "channel": 2,
      "note": 73,
      "start": 67.4994,
      "duration": 0.0787,
      "velocity": 95,
      "chip": "ym2612"
    },
    {
      "channel": 5,
      "note": 57,
      "start": 67.501,
      "duration": 0.1141,
      "velocity": 127,
      "chip": "ym2612"
    },
    {
      "channel": 3,
      "note": 71,
      "start": 67.5317,
      "duration": 0.0795,
      "velocity": 95,
      "chip": "ym2612"
    },
    {
      "channel": 1,
      "note": 63,
      "start": 67.6101,
      "duration": 0.3485,
      "velocity": 105,
      "chip": "ym2612"
    },
    {
      "channel": 2,
      "note": 75,
      "start": 67.611,
      "duration": 0.0783,
      "velocity": 95,
      "chip": "ym2612"
    },
    {
      "channel": 4,
      "note": 56,
      "start": 67.6119,
      "duration": 0.1737,
      "velocity": 97,
      "chip": "ym2612"
    },
    {
      "channel": 5,
      "note": 45,
      "start": 67.6157,
      "duration": 0.1227,
      "velocity": 127,
      "chip": "ym2612"
    },
    {
      "channel": 3,
      "note": 73,
      "start": 67.6587,
      "duration": 0.079,
      "velocity": 95,
      "chip": "ym2612"
    },
    {
      "channel": 2,
      "note": 77,
      "start": 67.7376,
      "duration": 0.0786,
      "velocity": 95,
      "chip": "ym2612"
    },
    {
      "channel": 0,
      "note": 63,
      "start": 67.7683,
      "duration": 0.3486,
      "velocity": 105,
      "chip": "ym2612"
    },
    {
      "channel": 3,
      "note": 75,
      "start": 67.7702,
      "duration": 0.0787,
      "velocity": 95,
      "chip": "ym2612"
    },
    {
      "channel": 2,
      "note": 78,
      "start": 67.8487,
      "duration": 0.0787,
      "velocity": 95,
      "chip": "ym2612"
    },
    {
      "channel": 4,
      "note": 56,
      "start": 67.8496,
      "duration": 0.1741,
      "velocity": 97,
      "chip": "ym2612"
    },
    {
      "channel": 5,
      "note": 57,
      "start": 67.8534,
      "duration": 0.1232,
      "velocity": 115,
      "chip": "ym2612"
    },
    {
      "channel": 3,
      "note": 77,
      "start": 67.8969,
      "duration": 0.0791,
      "velocity": 95,
      "chip": "ym2612"
    },
    {
      "channel": 2,
      "note": 80,
      "start": 67.9758,
      "duration": 0.1739,
      "velocity": 95,
      "chip": "ym2612"
    },
    {
      "channel": 5,
      "note": 57,
      "start": 67.9773,
      "duration": 0.1137,
      "velocity": 127,
      "chip": "ym2612"
    },
    {
      "channel": 3,
      "note": 78,
      "start": 68.008,
      "duration": 0.0792,
      "velocity": 95,
      "chip": "ym2612"
    },
    {
      "channel": 1,
      "note": 80,
      "start": 68.0864,
      "duration": 0.2691,
      "velocity": 105,
      "chip": "ym2612"
    },
    {
      "channel": 4,
      "note": 49,
      "start": 68.088,
      "duration": 0.0785,
      "velocity": 97,
      "chip": "ym2612"
    },
    {
      "channel": 5,
      "note": 45,
      "start": 68.0918,
      "duration": 0.1237,
      "velocity": 127,
      "chip": "ym2612"
    },
    {
      "channel": 3,
      "note": 80,
      "start": 68.1351,
      "duration": 0.1738,
      "velocity": 95,
      "chip": "ym2612"
    },
    {
      "channel": 2,
      "note": 80,
      "start": 68.2139,
      "duration": 0.0786,
      "velocity": 95,
      "chip": "ym2612"
    },
    {
      "channel": 4,
      "note": 49,
      "start": 68.2153,
      "duration": 0.1735,
      "velocity": 97,
      "chip": "ym2612"
    },
    {
      "channel": 5,
      "note": 45,
      "start": 68.2162,
      "duration": 0.11,
      "velocity": 127,
      "chip": "ym2612"
    },
    {
      "channel": 0,
      "note": 80,
      "start": 68.2447,
      "duration": 0.2691,
      "velocity": 105,
      "chip": "ym2612"
    },
    {
      "channel": 2,
      "note": 73,
      "start": 68.325,
      "duration": 0.0786,
      "velocity": 95,
      "chip": "ym2612"
    },
    {
      "channel": 5,
      "note": 45,
      "start": 68.3269,
      "duration": 0.1266,
      "velocity": 127,
      "chip": "ym2612"
    },
    {
      "channel": 3,
      "note": 80,
      "start": 68.3732,
      "duration": 0.0793,
      "velocity": 95,
      "chip": "ym2612"
    },
    {
      "channel": 1,
      "note": 78,
      "start": 68.4515,
      "duration": 0.2692,
      "velocity": 105,
      "chip": "ym2612"
    },
    {
      "channel": 2,
      "note": 73,
      "start": 68.4524,
      "duration": 0.0783,
      "velocity": 95,
      "chip": "ym2612"
    },
    {
      "channel": 4,
      "note": 49,
      "start": 68.4532,
      "duration": 0.1737,
      "velocity": 97,
      "chip": "ym2612"
    },
    {
      "channel": 5,
      "note": 45,
      "start": 68.4543,
      "duration": 0.1097,
      "velocity": 127,
      "chip": "ym2612"
    },
    {
      "channel": 3,
      "note": 73,
      "start": 68.4842,
      "duration": 0.0791,
      "velocity": 95,
      "chip": "ym2612"
    },
    {
      "channel": 2,
      "note": 80,
      "start": 68.5632,
      "duration": 0.174,
      "velocity": 95,
      "chip": "ym2612"
    },
    {
      "channel": 5,
      "note": 45,
      "start": 68.5647,
      "duration": 0.1262,
      "velocity": 127,
      "chip": "ym2612"
    },
    {
      "channel": 0,
      "note": 78,
      "start": 68.6097,
      "duration": 0.2692,
      "velocity": 105,
      "chip": "ym2612"
    },
    {
      "channel": 3,
      "note": 73,
      "start": 68.6116,
      "duration": 0.0783,
      "velocity": 95,
      "chip": "ym2612"
    },
    {
      "channel": 4,
      "note": 61,
      "start": 68.6906,
      "duration": 0.1744,
      "velocity": 97,
      "chip": "ym2612"
    },
    {
      "channel": 5,
      "note": 45,
      "start": 68.6917,
      "duration": 0.1113,
      "velocity": 127,
      "chip": "ym2612"
    },
    {
      "channel": 3,
      "note": 80,
      "start": 68.7221,
      "duration": 0.1742,
      "velocity": 95,
      "chip": "ym2612"
    },
    {
      "channel": 1,
      "note": 77,
      "start": 68.8008,
      "duration": 0.1739,
      "velocity": 105,
      "chip": "ym2612"
    },
    {
      "channel": 2,
      "note": 77,
      "start": 68.8018,
      "duration": 0.0778,
      "velocity": 95,
      "chip": "ym2612"
    },
    {
      "channel": 5,
      "note": 45,
      "start": 68.8036,
      "duration": 0.1261,
      "velocity": 127,
      "chip": "ym2612"
    },
    {
      "channel": 2,
      "note": 77,
      "start": 68.9282,
      "duration": 0.0787,
      "velocity": 95,
      "chip": "ym2612"
    },
    {
      "channel": 4,
      "note": 49,
      "start": 68.9295,
      "duration": 0.078,
      "velocity": 97,
      "chip": "ym2612"
    },
    {
      "channel": 5,
      "note": 45,
      "start": 68.9305,
      "duration": 0.1133,
      "velocity": 122,
      "chip": "ym2612"
    },
    {
      "channel": 0,
      "note": 77,
      "start": 68.9591,
      "duration": 0.174,
      "velocity": 105,
      "chip": "ym2612"
    },
    {
      "channel": 3,
      "note": 77,
      "start": 68.961,
      "duration": 0.079,
      "velocity": 95,
      "chip": "ym2612"
    },
    {
      "channel": 1,
      "note": 78,
      "start": 69.0389,
      "duration": 1.5074,
      "velocity": 105,
      "chip": "ym2612"
    },
    {
      "channel": 2,
      "note": 78,
      "start": 69.0398,
      "duration": 0.0782,
      "velocity": 95,
      "chip": "ym2612"
    },
    {
      "channel": 4,
      "note": 54,
      "start": 69.0407,
      "duration": 0.0779,
      "velocity": 97,
      "chip": "ym2612"
    },
    {
      "channel": 5,
      "note": 54,
      "start": 69.0445,
      "duration": 0.0619,
      "velocity": 122,
      "chip": "ym2612"
    },
    {
      "channel": 3,
      "note": 77,
      "start": 69.0875,
      "duration": 0.079,
      "velocity": 95,
      "chip": "ym2612"
    },
    {
      "channel": 5,
      "note": 54,
      "start": 69.1071,
      "duration": 0.0629,
      "velocity": 122,
      "chip": "ym2612"
    },
    {
      "channel": 2,
      "note": 77,
      "start": 69.1663,
      "duration": 0.0787,
      "velocity": 95,
      "chip": "ym2612"
    },
    {
      "channel": 5,
      "note": 54,
      "start": 69.1706,
      "duration": 0.1108,
      "velocity": 122,
      "chip": "ym2612"
    },
    {
      "channel": 0,
      "note": 78,
      "start": 69.1973,
      "duration": 1.5073,
      "velocity": 105,
      "chip": "ym2612"
    },
    {
      "channel": 3,
      "note": 78,
      "start": 69.1991,
      "duration": 0.0785,
      "velocity": 95,
      "chip": "ym2612"
    },
    {
      "channel": 2,
      "note": 78,
      "start": 69.2775,
      "duration": 0.0787,
      "velocity": 95,
      "chip": "ym2612"
    },
    {
      "channel": 4,
      "note": 54,
      "start": 69.2784,
      "duration": 0.0785,
      "velocity": 97,
      "chip": "ym2612"
    },
    {
      "channel": 5,
      "note": 54,
      "start": 69.2821,
      "duration": 0.1259,
      "velocity": 122,
      "chip": "ym2612"
    },
    {
      "channel": 3,
      "note": 77,
      "start": 69.3256,
      "duration": 0.079,
      "velocity": 95,
      "chip": "ym2612"
    },
    {
      "channel": 2,
      "note": 80,
      "start": 69.4044,
      "duration": 0.0788,
      "velocity": 95,
      "chip": "ym2612"
    },
    {
      "channel": 5,
      "note": 54,
      "start": 69.4088,
      "duration": 0.1108,
      "velocity": 122,
      "chip": "ym2612"
    },
    {
      "channel": 3,
      "note": 78,
      "start": 69.4368,
      "duration": 0.0791,
      "velocity": 95,
      "chip": "ym2612"
    },
    {
      "channel": 2,
      "note": 78,
      "start": 69.5156,
      "duration": 0.0786,
      "velocity": 95,
      "chip": "ym2612"
    },
    {
      "channel": 4,
      "note": 54,
      "start": 69.5165,
      "duration": 0.0784,
      "velocity": 97,
      "chip": "ym2612"
    },
    {
      "channel": 5,
      "note": 49,
      "start": 69.5203,
      "duration": 0.0623,
      "velocity": 122,
      "chip": "ym2612"
    },
    {
      "channel": 3,
      "note": 80,
      "start": 69.5637,
      "duration": 0.0791,
      "velocity": 95,
      "chip": "ym2612"
    },
    {
      "channel": 5,
      "note": 49,
      "start": 69.5833,
      "duration": 0.0629,
      "velocity": 122,
      "chip": "ym2612"
    },
    {
      "channel": 2,
      "note": 77,
      "start": 69.6427,
      "duration": 0.0786,
      "velocity": 95,
      "chip": "ym2612"
    },
    {
      "channel": 5,
      "note": 49,
      "start": 69.6469,
      "duration": 0.1107,
      "velocity": 122,
      "chip": "ym2612"
    },
    {
      "channel": 3,
      "note": 78,
      "start": 69.6749,
      "duration": 0.0791,
      "velocity": 95,
      "chip": "ym2612"
    },
    {
      "channel": 2,
      "note": 78,
      "start": 69.7537,
      "duration": 0.0787,
      "velocity": 95,
      "chip": "ym2612"
    },
    {
      "channel": 4,
      "note": 54,
      "start": 69.7546,
      "duration": 0.0784,
      "velocity": 97,
      "chip": "ym2612"
    },
    {
      "channel": 5,
      "note": 49,
      "start": 69.7585,
      "duration": 0.1259,
      "velocity": 122,
      "chip": "ym2612"
    },
    {
      "channel": 3,
      "note": 77,
      "start": 69.8019,
      "duration": 0.079,
      "velocity": 95,
      "chip": "ym2612"
    },
    {
      "channel": 2,
      "note": 73,
      "start": 69.8808,
      "duration": 0.0786,
      "velocity": 95,
      "chip": "ym2612"
    },
    {
      "channel": 5,
      "note": 49,
      "start": 69.8851,
      "duration": 0.1108,
      "velocity": 122,
      "chip": "ym2612"
    },
    {
      "channel": 3,
      "note": 78,
      "start": 69.913,
      "duration": 0.0791,
      "velocity": 95,
      "chip": "ym2612"
    },
    {
      "channel": 2,
      "note": 70,
      "start": 69.9919,
      "duration": 0.0787,
      "velocity": 95,
      "chip": "ym2612"
    },
    {
      "channel": 4,
      "note": 54,
      "start": 69.9928,
      "duration": 0.0784,
      "velocity": 97,
      "chip": "ym2612"
    },
    {
      "channel": 5,
      "note": 42,
      "start": 69.9966,
      "duration": 0.0624,
      "velocity": 122,
      "chip": "ym2612"
    },
    {
      "channel": 3,
      "note": 73,
      "start": 70.04,
      "duration": 0.079,
      "velocity": 95,
      "chip": "ym2612"
    },
    {
      "channel": 5,
      "note": 42,
      "start": 70.0597,
      "duration": 0.0632,
      "velocity": 122,
      "chip": "ym2612"
    },
    {
      "channel": 2,
      "note": 72,
      "start": 70.1188,
      "duration": 0.0787,
      "velocity": 95,
      "chip": "ym2612"
    },
    {
      "channel": 4,
      "note": 54,
      "start": 70.1198,
      "duration": 0.0784,
      "velocity": 97,
      "chip": "ym2612"
    },
    {
      "channel": 5,
      "note": 42,
      "start": 70.1235,
      "duration": 0.1105,
      "velocity": 122,
      "chip": "ym2612"
    },
    {
      "channel": 3,
      "note": 70,
      "start": 70.1511,
      "duration": 0.0791,
      "velocity": 95,
      "chip": "ym2612"
    },
    {
      "channel": 2,
      "note": 73,
      "start": 70.23,
      "duration": 0.0787,
      "velocity": 95,
      "chip": "ym2612"
    },
    {
      "channel": 4,
      "note": 54,
      "start": 70.231,
      "duration": 0.0784,
      "velocity": 97,
      "chip": "ym2612"
    },
    {
      "channel": 5,
      "note": 42,
      "start": 70.2347,
      "duration": 0.1263,
      "velocity": 122,
      "chip": "ym2612"
    },
    {
      "channel": 3,
      "note": 72,
      "start": 70.2781,
      "duration": 0.0791,
      "velocity": 95,
      "chip": "ym2612"
    },
    {
      "channel": 2,
      "note": 75,
      "start": 70.3571,
      "duration": 0.0786,
      "velocity": 95,
      "chip": "ym2612"
    },
    {
      "channel": 4,
      "note": 54,
      "start": 70.358,
      "duration": 0.0784,
      "velocity": 97,
      "chip": "ym2612"
    },
    {
      "channel": 5,
      "note": 42,
      "start": 70.3617,
      "duration": 0.1105,
      "velocity": 127,
      "chip": "ym2612"
    },
    {
      "channel": 3,
      "note": 73,
      "start": 70.3893,
      "duration": 0.0791,
      "velocity": 95,
      "chip": "ym2612"
    },
    {
      "channel": 2,
      "note": 77,
      "start": 70.4682,
      "duration": 0.0783,
      "velocity": 95,
      "chip": "ym2612"
    },
    {
      "channel": 4,
      "note": 66,
      "start": 70.4691,
      "duration": 0.0781,
      "velocity": 97,
      "chip": "ym2612"
    },
    {
      "channel": 5,
      "note": 45,
      "start": 70.4729,
      "duration": 0.0595,
      "velocity": 127,
      "chip": "ym2612"
    },
    {
      "channel": 3,
      "note": 75,
      "start": 70.5163,
      "duration": 0.0791,
      "velocity": 95,
      "chip": "ym2612"
    },
    {
      "channel": 5,
      "note": 45,
      "start": 70.5331,
      "duration": 0.0629,
      "velocity": 127,
      "chip": "ym2612"
    },
    {
      "channel": 2,
      "note": 78,
      "start": 70.5952,
      "duration": 0.0786,
      "velocity": 95,
      "chip": "ym2612"
    },
    {
      "channel": 5,
      "note": 45,
      "start": 70.5967,
      "duration": 0.1104,
      "velocity": 127,
      "chip": "ym2612"
    },
    {
      "channel": 3,
      "note": 77,
      "start": 70.6274,
      "duration": 0.0787,
      "velocity": 95,
      "chip": "ym2612"
    },
    {
      "channel": 2,
      "note": 80,
      "start": 70.7059,
      "duration": 0.079,
      "velocity": 95,
      "chip": "ym2612"
    },
    {
      "channel": 4,
      "note": 54,
      "start": 70.7069,
      "duration": 0.0787,
      "velocity": 97,
      "chip": "ym2612"
    },
    {
      "channel": 5,
      "note": 45,
      "start": 70.7078,
      "duration": 0.1266,
      "velocity": 127,
      "chip": "ym2612"
    },
    {
      "channel": 3,
      "note": 78,
      "start": 70.7544,
      "duration": 0.0791,
      "velocity": 95,
      "chip": "ym2612"
    },
    {
      "channel": 2,
      "note": 82,
      "start": 70.8333,
      "duration": 0.0787,
      "velocity": 95,
      "chip": "ym2612"
    },
    {
      "channel": 4,
      "note": 54,
      "start": 70.8341,
      "duration": 0.0784,
      "velocity": 97,
      "chip": "ym2612"
    },
    {
      "channel": 5,
      "note": 45,
      "start": 70.8352,
      "duration": 0.1169,
      "velocity": 117,
      "chip": "ym2612"
    },
    {
      "channel": 3,
      "note": 80,
      "start": 70.8655,
      "duration": 0.0825,
      "velocity": 95,
      "chip": "ym2612"
    },
    {
      "channel": 1,
      "note": 85,
      "start": 70.9442,
      "duration": 0.0784,
      "velocity": 105,
      "chip": "ym2612"
    },
    {
      "channel": 2,
      "note": 73,
      "start": 70.9478,
      "duration": 0.0749,
      "velocity": 93,
      "chip": "ym2612"
    },
    {
      "channel": 4,
      "note": 54,
      "start": 70.9489,
      "duration": 0.1705,
      "velocity": 97,
      "chip": "ym2612"
    },
    {
      "channel": 5,
      "note": 54,
      "start": 70.9527,
      "duration": 0.1199,
      "velocity": 117,
      "chip": "ym2612"
    },
    {
      "channel": 3,
      "note": 82,
      "start": 70.9926,
      "duration": 0.0794,
      "velocity": 95,
      "chip": "ym2612"
    },
    {
      "channel": 1,
      "note": 82,
      "start": 71.0709,
      "duration": 0.0787,
      "velocity": 105,
      "chip": "ym2612"
    },
    {
      "channel": 2,
      "note": 73,
      "start": 71.0718,
      "duration": 0.0779,
      "velocity": 93,
      "chip": "ym2612"
    },
    {
      "channel": 0,
      "note": 85,
      "start": 71.1025,
      "duration": 0.0784,
      "velocity": 105,
      "chip": "ym2612"
    },
    {
      "channel": 3,
      "note": 73,
      "start": 71.1073,
      "duration": 0.0751,
      "velocity": 93,
      "chip": "ym2612"
    },
    {
      "channel": 1,
      "note": 78,
      "start": 71.1817,
      "duration": 0.0789,
      "velocity": 105,
      "chip": "ym2612"
    },
    {
      "channel": 4,
      "note": 66,
      "start": 71.1831,
      "duration": 0.1744,
      "velocity": 97,
      "chip": "ym2612"
    },
    {
      "channel": 5,
      "note": 57,
      "start": 71.1869,
      "duration": 0.1235,
      "velocity": 115,
      "chip": "ym2612"
    },
    {
      "channel": 0,
      "note": 82,
      "start": 71.2292,
      "duration": 0.0786,
      "velocity": 105,
      "chip": "ym2612"
    },
    {
      "channel": 3,
      "note": 73,
      "start": 71.231,
      "duration": 0.0788,
      "velocity": 93,
      "chip": "ym2612"
    },
    {
      "channel": 1,
      "note": 73,
      "start": 71.3087,
      "duration": 0.079,
      "velocity": 105,
      "chip": "ym2612"
    },
    {
      "channel": 2,
      "note": 73,
      "start": 71.3096,
      "duration": 0.0783,
      "velocity": 93,
      "chip": "ym2612"
    },
    {
      "channel": 5,
      "note": 57,
      "start": 71.3111,
      "duration": 0.1141,
      "velocity": 127,
      "chip": "ym2612"
    },
    {
      "channel": 0,
      "note": 78,
      "start": 71.3403,
      "duration": 0.0786,
      "velocity": 105,
      "chip": "ym2612"
    },
    {
      "channel": 1,
      "note": 82,
      "start": 71.4198,
      "duration": 0.079,
      "velocity": 105,
      "chip": "ym2612"
    },
    {
      "channel": 2,
      "note": 85,
      "start": 71.4208,
      "duration": 0.1739,
      "velocity": 93,
      "chip": "ym2612"
    },
    {
      "channel": 4,
      "note": 54,
      "start": 71.4221,
      "duration": 0.1733,
      "velocity": 97,
      "chip": "ym2612"
    },
    {
      "channel": 5,
      "note": 45,
      "start": 71.4259,
      "duration": 0.1222,
      "velocity": 127,
      "chip": "ym2612"
    },
    {
      "channel": 0,
      "note": 73,
      "start": 71.4674,
      "duration": 0.0786,
      "velocity": 105,
      "chip": "ym2612"
    },
    {
      "channel": 3,
      "note": 73,
      "start": 71.4692,
      "duration": 0.0783,
      "velocity": 93,
      "chip": "ym2612"
    },
    {
      "channel": 1,
      "note": 78,
      "start": 71.5469,
      "duration": 0.079,
      "velocity": 105,
      "chip": "ym2612"
    },
    {
      "channel": 0,
      "note": 82,
      "start": 71.5784,
      "duration": 0.0787,
      "velocity": 105,
      "chip": "ym2612"
    },
    {
      "channel": 3,
      "note": 85,
      "start": 71.5803,
      "duration": 0.1735,
      "velocity": 93,
      "chip": "ym2612"
    },
    {
      "channel": 1,
      "note": 73,
      "start": 71.658,
      "duration": 0.079,
      "velocity": 105,
      "chip": "ym2612"
    },
    {
      "channel": 2,
      "note": 73,
      "start": 71.6589,
      "duration": 0.0782,
      "velocity": 93,
      "chip": "ym2612"
    },
    {
      "channel": 4,
      "note": 66,
      "start": 71.6602,
      "duration": 0.0776,
      "velocity": 97,
      "chip": "ym2612"
    },
    {
      "channel": 5,
      "note": 57,
      "start": 71.664,
      "duration": 0.1234,
      "velocity": 115,
      "chip": "ym2612"
    },
    {
      "channel": 0,
      "note": 78,
      "start": 71.7055,
      "duration": 0.0787,
      "velocity": 105,
      "chip": "ym2612"
    },
    {
      "channel": 1,
      "note": 70,
      "start": 71.785,
      "duration": 0.079,
      "velocity": 105,
      "chip": "ym2612"
    },
    {
      "channel": 2,
      "note": 73,
      "start": 71.7859,
      "duration": 0.0783,
      "velocity": 93,
      "chip": "ym2612"
    },
    {
      "channel": 4,
      "note": 66,
      "start": 71.7871,
      "duration": 0.0777,
      "velocity": 97,
      "chip": "ym2612"
    },
    {
      "channel": 5,
      "note": 57,
      "start": 71.7881,
      "duration": 0.0878,
      "velocity": 115,
      "chip": "ym2612"
    },
    {
      "channel": 0,
      "note": 73,
      "start": 71.8166,
      "duration": 0.0593,
      "velocity": 105,
      "chip": "ym2612"
    },
    {
      "channel": 3,
      "note": 73,
      "start": 71.8185,
      "duration": 0.0574,
      "velocity": 93,
      "chip": "ym2612"
    }
  ]
}