{
  "track_name": "16 - Tornado",
  "duration_sec": 88.383,
  "sample_rate": 44100,
  "note_count": 1731,
  "unique_pitches": 25,
  "pitch_range": 44,
  "avg_note_duration": 0.0844,
  "reconstruction_stats": {
    "notes_reconstructed": 1731,
    "keyon_events": 1731,
    "keyoff_events": 1730,
    "orphan_keyons": 1,
    "unique_pitches": 25,
    "pitch_range": 44,
    "avg_duration_sec": 0.0844
  },
  "metadata": {
    "source": "V\\Vectorman 2\\16 - Tornado.vgz"
  },
  "notes": [
    {
      "channel": 0,
      "note": 61,
      "start": 0.0,
      "duration": 0.1901,
      "velocity": 127,
      "chip": "ym2612"
    },
    {
      "channel": 1,
      "note": 73,
      "start": 0.0056,
      "duration": 0.0513,
      "velocity": 104,
      "chip": "ym2612"
    },
    {
      "channel": 3,
      "note": 76,
      "start": 0.2119,
      "duration": 0.0619,
      "velocity": 127,
      "chip": "ym2612"
    },
    {
      "channel": 4,
      "note": 80,
      "start": 0.2146,
      "duration": 0.0593,
      "velocity": 127,
      "chip": "ym2612"
    },
    {
      "channel": 1,
      "note": 76,
      "start": 0.2173,
      "duration": 0.0563,
      "velocity": 104,
      "chip": "ym2612"
    },
    {
      "channel": 5,
      "note": 73,
      "start": 0.3125,
      "duration": 0.0612,
      "velocity": 104,
      "chip": "ym2612"
    },
    {
      "channel": 0,
      "note": 61,
      "start": 0.4268,
      "duration": 0.18,
      "velocity": 127,
      "chip": "ym2612"
    },
    {
      "channel": 1,
      "note": 73,
      "start": 0.4295,
      "duration": 0.0607,
      "velocity": 104,
      "chip": "ym2612"
    },
    {
      "channel": 5,
      "note": 76,
      "start": 0.5273,
      "duration": 0.0631,
      "velocity": 104,
      "chip": "ym2612"
    },
    {
      "channel": 3,
      "note": 76,
      "start": 0.6268,
      "duration": 0.0803,
      "velocity": 127,
      "chip": "ym2612"
    },
    {
      "channel": 4,
      "note": 80,
      "start": 0.6298,
      "duration": 0.0774,
      "velocity": 127,
      "chip": "ym2612"
    },
    {
      "channel": 1,
      "note": 83,
      "start": 0.6325,
      "duration": 0.0744,
      "velocity": 104,
      "chip": "ym2612"
    },
    {
      "channel": 0,
      "note": 61,
      "start": 0.7434,
      "duration": 0.1467,
      "velocity": 127,
      "chip": "ym2612"
    },
    {
      "channel": 5,
      "note": 73,
      "start": 0.7463,
      "duration": 0.0606,
      "velocity": 104,
      "chip": "ym2612"
    },
    {
      "channel": 1,
      "note": 80,
      "start": 0.8437,
      "duration": 0.0632,
      "velocity": 104,
      "chip": "ym2612"
    },
    {
      "channel": 3,
      "note": 76,
      "start": 0.9434,
      "duration": 0.0803,
      "velocity": 127,
      "chip": "ym2612"
    },
    {
      "channel": 4,
      "note": 80,
      "start": 0.946,
      "duration": 0.0778,
      "velocity": 127,
      "chip": "ym2612"
    },
    {
      "channel": 5,
      "note": 83,
      "start": 0.9491,
      "duration": 0.0749,
      "velocity": 104,
      "chip": "ym2612"
    },
    {
      "channel": 0,
      "note": 61,
      "start": 1.0606,
      "duration": 0.2296,
      "velocity": 127,
      "chip": "ym2612"
    },
    {
      "channel": 1,
      "note": 73,
      "start": 1.0637,
      "duration": 0.06,
      "velocity": 104,
      "chip": "ym2612"
    },
    {
      "channel": 5,
      "note": 80,
      "start": 1.1609,
      "duration": 0.0629,
      "velocity": 104,
      "chip": "ym2612"
    },
    {
      "channel": 3,
      "note": 80,
      "start": 1.2768,
      "duration": 0.0636,
      "velocity": 127,
      "chip": "ym2612"
    },
    {
      "channel": 4,
      "note": 76,
      "start": 1.2793,
      "duration": 0.0611,
      "velocity": 127,
      "chip": "ym2612"
    },
    {
      "channel": 1,
      "note": 85,
      "start": 1.2821,
      "duration": 0.0581,
      "velocity": 104,
      "chip": "ym2612"
    },
    {
      "channel": 5,
      "note": 73,
      "start": 1.3773,
      "duration": 0.0631,
      "velocity": 104,
      "chip": "ym2612"
    },
    {
      "channel": 0,
      "note": 61,
      "start": 1.4771,
      "duration": 0.1964,
      "velocity": 127,
      "chip": "ym2612"
    },
    {
      "channel": 1,
      "note": 83,
      "start": 1.4797,
      "duration": 0.0773,
      "velocity": 104,
      "chip": "ym2612"
    },
    {
      "channel": 5,
      "note": 85,
      "start": 1.5941,
      "duration": 0.063,
      "velocity": 104,
      "chip": "ym2612"
    },
    {
      "channel": 0,
      "note": 61,
      "start": 1.6935,
      "duration": 0.1968,
      "velocity": 127,
      "chip": "ym2612"
    },
    {
      "channel": 1,
      "note": 73,
      "start": 1.6962,
      "duration": 0.0607,
      "velocity": 104,
      "chip": "ym2612"
    },
    {
      "channel": 3,
      "note": 76,
      "start": 1.91,
      "duration": 0.0637,
      "velocity": 127,
      "chip": "ym2612"
    },
    {
      "channel": 4,
      "note": 80,
      "start": 1.9126,
      "duration": 0.0613,
      "velocity": 127,
      "chip": "ym2612"
    },
    {
      "channel": 1,
      "note": 76,
      "start": 1.9154,
      "duration": 0.0583,
      "velocity": 104,
      "chip": "ym2612"
    },
    {
      "channel": 5,
      "note": 73,
      "start": 2.0107,
      "duration": 0.0632,
      "velocity": 104,
      "chip": "ym2612"
    },
    {
      "channel": 0,
      "note": 61,
      "start": 2.1269,
      "duration": 0.1799,
      "velocity": 127,
      "chip": "ym2612"
    },
    {
      "channel": 1,
      "note": 73,
      "start": 2.1295,
      "duration": 0.0606,
      "velocity": 104,
      "chip": "ym2612"
    },
    {
      "channel": 5,
      "note": 76,
      "start": 2.2273,
      "duration": 0.063,
      "velocity": 104,
      "chip": "ym2612"
    },
    {
      "channel": 3,
      "note": 76,
      "start": 2.3267,
      "duration": 0.0804,
      "velocity": 127,
      "chip": "ym2612"
    },
    {
      "channel": 4,
      "note": 80,
      "start": 2.3297,
      "duration": 0.0776,
      "velocity": 127,
      "chip": "ym2612"
    },
    {
      "channel": 1,
      "note": 83,
      "start": 2.3324,
      "duration": 0.0745,
      "velocity": 104,
      "chip": "ym2612"
    },
    {
      "channel": 0,
      "note": 61,
      "start": 2.4434,
      "duration": 0.1468,
      "velocity": 127,
      "chip": "ym2612"
    },
    {
      "channel": 5,
      "note": 73,
      "start": 2.4463,
      "duration": 0.0607,
      "velocity": 104,
      "chip": "ym2612"
    },
    {
      "channel": 1,
      "note": 80,
      "start": 2.5436,
      "duration": 0.0634,
      "velocity": 104,
      "chip": "ym2612"
    },
    {
      "channel": 3,
      "note": 76,
      "start": 2.6434,
      "duration": 0.0803,
      "velocity": 127,
      "chip": "ym2612"
    },
    {
      "channel": 4,
      "note": 80,
      "start": 2.646,
      "duration": 0.0778,
      "velocity": 127,
      "chip": "ym2612"
    },
    {
      "channel": 5,
      "note": 83,
      "start": 2.649,
      "duration": 0.0749,
      "velocity": 104,
      "chip": "ym2612"
    },
    {
      "channel": 0,
      "note": 61,
      "start": 2.7602,
      "duration": 0.23,
      "velocity": 127,
      "chip": "ym2612"
    },
    {
      "channel": 1,
      "note": 73,
      "start": 2.7629,
      "duration": 0.0607,
      "velocity": 104,
      "chip": "ym2612"
    },
    {
      "channel": 5,
      "note": 80,
      "start": 2.8606,
      "duration": 0.0632,
      "velocity": 104,
      "chip": "ym2612"
    },
    {
      "channel": 3,
      "note": 80,
      "start": 2.9768,
      "duration": 0.0636,
      "velocity": 127,
      "chip": "ym2612"
    },
    {
      "channel": 4,
      "note": 76,
      "start": 2.9794,
      "duration": 0.0611,
      "velocity": 127,
      "chip": "ym2612"
    },
    {
      "channel": 1,
      "note": 85,
      "start": 2.9821,
      "duration": 0.0581,
      "velocity": 104,
      "chip": "ym2612"
    },
    {
      "channel": 5,
      "note": 73,
      "start": 3.0773,
      "duration": 0.063,
      "velocity": 104,
      "chip": "ym2612"
    },
    {
      "channel": 0,
      "note": 61,
      "start": 3.1774,
      "duration": 0.1962,
      "velocity": 127,
      "chip": "ym2612"
    },
    {
      "channel": 1,
      "note": 83,
      "start": 3.18,
      "duration": 0.0768,
      "velocity": 104,
      "chip": "ym2612"
    },
    {
      "channel": 5,
      "note": 85,
      "start": 3.2941,
      "duration": 0.0629,
      "velocity": 104,
      "chip": "ym2612"
    },
    {
      "channel": 3,
      "note": 68,
      "start": 3.3934,
      "duration": 0.0637,
      "velocity": 127,
      "chip": "ym2612"
    },
    {
      "channel": 4,
      "note": 71,
      "start": 3.396,
      "duration": 0.0613,
      "velocity": 127,
      "chip": "ym2612"
    },
    {
      "channel": 0,
      "note": 59,
      "start": 3.3988,
      "duration": 0.208,
      "velocity": 127,
      "chip": "ym2612"
    },
    {
      "channel": 1,
      "note": 68,
      "start": 3.4014,
      "duration": 0.0556,
      "velocity": 104,
      "chip": "ym2612"
    },
    {
      "channel": 3,
      "note": 75,
      "start": 3.6101,
      "duration": 0.0637,
      "velocity": 127,
      "chip": "ym2612"
    },
    {
      "channel": 4,
      "note": 71,
      "start": 3.6131,
      "duration": 0.0608,
      "velocity": 127,
      "chip": "ym2612"
    },
    {
      "channel": 1,
      "note": 71,
      "start": 3.6158,
      "duration": 0.0578,
      "velocity": 104,
      "chip": "ym2612"
    },
    {
      "channel": 5,
      "note": 68,
      "start": 3.7107,
      "duration": 0.0631,
      "velocity": 104,
      "chip": "ym2612"
    },
    {
      "channel": 0,
      "note": 56,
      "start": 3.827,
      "duration": 0.1466,
      "velocity": 127,
      "chip": "ym2612"
    },
    {
      "channel": 1,
      "note": 68,
      "start": 3.8296,
      "duration": 0.0606,
      "velocity": 104,
      "chip": "ym2612"
    },
    {
      "channel": 5,
      "note": 71,
      "start": 3.9273,
      "duration": 0.0631,
      "velocity": 104,
      "chip": "ym2612"
    },
    {
      "channel": 3,
      "note": 75,
      "start": 4.0268,
      "duration": 0.0803,
      "velocity": 127,
      "chip": "ym2612"
    },
    {
      "channel": 4,
      "note": 71,
      "start": 4.0294,
      "duration": 0.0778,
      "velocity": 127,
      "chip": "ym2612"
    },
    {
      "channel": 1,
      "note": 78,
      "start": 4.0321,
      "duration": 0.0748,
      "velocity": 104,
      "chip": "ym2612"
    },
    {
      "channel": 0,
      "note": 56,
      "start": 4.1432,
      "duration": 0.1469,
      "velocity": 127,
      "chip": "ym2612"
    },
    {
      "channel": 5,
      "note": 68,
      "start": 4.1465,
      "duration": 0.0605,
      "velocity": 104,
      "chip": "ym2612"
    },
    {
      "channel": 1,
      "note": 75,
      "start": 4.2436,
      "duration": 0.0634,
      "velocity": 104,
      "chip": "ym2612"
    },
    {
      "channel": 3,
      "note": 75,
      "start": 4.3434,
      "duration": 0.0804,
      "velocity": 127,
      "chip": "ym2612"
    },
    {
      "channel": 4,
      "note": 71,
      "start": 4.346,
      "duration": 0.0779,
      "velocity": 127,
      "chip": "ym2612"
    },
    {
      "channel": 5,
      "note": 78,
      "start": 4.349,
      "duration": 0.0751,
      "velocity": 104,
      "chip": "ym2612"
    },
    {
      "channel": 0,
      "note": 56,
      "start": 4.4603,
      "duration": 0.1798,
      "velocity": 127,
      "chip": "ym2612"
    },
    {
      "channel": 1,
      "note": 68,
      "start": 4.4633,
      "duration": 0.0603,
      "velocity": 104,
      "chip": "ym2612"
    },
    {
      "channel": 5,
      "note": 75,
      "start": 4.5606,
      "duration": 0.0631,
      "velocity": 104,
      "chip": "ym2612"
    },
    {
      "channel": 3,
      "note": 71,
      "start": 4.6768,
      "duration": 0.0635,
      "velocity": 127,
      "chip": "ym2612"
    },
    {
      "channel": 4,
      "note": 75,
      "start": 4.6794,
      "duration": 0.0611,
      "velocity": 127,
      "chip": "ym2612"
    },
    {
      "channel": 1,
      "note": 80,
      "start": 4.6822,
      "duration": 0.058,
      "velocity": 104,
      "chip": "ym2612"
    },
    {
      "channel": 5,
      "note": 68,
      "start": 4.7773,
      "duration": 0.063,
      "velocity": 104,
      "chip": "ym2612"
    },
    {
      "channel": 0,
      "note": 56,
      "start": 4.8768,
      "duration": 0.1968,
      "velocity": 127,
      "chip": "ym2612"
    },
    {
      "channel": 1,
      "note": 78,
      "start": 4.8795,
      "duration": 0.0774,
      "velocity": 104,
      "chip": "ym2612"
    },
    {
      "channel": 5,
      "note": 80,
      "start": 4.9941,
      "duration": 0.0629,
      "velocity": 104,
      "chip": "ym2612"
    },
    {
      "channel": 0,
      "note": 56,
      "start": 5.0934,
      "duration": 0.1967,
      "velocity": 127,
      "chip": "ym2612"
    },
    {
      "channel": 1,
      "note": 68,
      "start": 5.0961,
      "duration": 0.0607,
      "velocity": 104,
      "chip": "ym2612"
    },
    {
      "channel": 3,
      "note": 75,
      "start": 5.3101,
      "duration": 0.0637,
      "velocity": 127,
      "chip": "ym2612"
    },
    {
      "channel": 4,
      "note": 71,
      "start": 5.3131,
      "duration": 0.0608,
      "velocity": 127,
      "chip": "ym2612"
    },
    {
      "channel": 1,
      "note": 71,
      "start": 5.3158,
      "duration": 0.0578,
      "velocity": 104,
      "chip": "ym2612"
    },
    {
      "channel": 5,
      "note": 68,
      "start": 5.4107,
      "duration": 0.0631,
      "velocity": 104,
      "chip": "ym2612"
    },
    {
      "channel": 0,
      "note": 56,
      "start": 5.5272,
      "duration": 0.1796,
      "velocity": 127,
      "chip": "ym2612"
    },
    {
      "channel": 1,
      "note": 68,
      "start": 5.5298,
      "duration": 0.0604,
      "velocity": 104,
      "chip": "ym2612"
    },
    {
      "channel": 5,
      "note": 71,
      "start": 5.6273,
      "duration": 0.0631,
      "velocity": 104,
      "chip": "ym2612"
    },
    {
      "channel": 3,
      "note": 75,
      "start": 5.7268,
      "duration": 0.0635,
      "velocity": 127,
      "chip": "ym2612"
    },
    {
      "channel": 4,
      "note": 71,
      "start": 5.7294,
      "duration": 0.061,
      "velocity": 127,
      "chip": "ym2612"
    },
    {
      "channel": 1,
      "note": 78,
      "start": 5.7322,
      "duration": 0.058,
      "velocity": 104,
      "chip": "ym2612"
    },
    {
      "channel": 0,
      "note": 56,
      "start": 5.8434,
      "duration": 0.1468,
      "velocity": 127,
      "chip": "ym2612"
    },
    {
      "channel": 5,
      "note": 68,
      "start": 5.8463,
      "duration": 0.0607,
      "velocity": 104,
      "chip": "ym2612"
    },
    {
      "channel": 1,
      "note": 75,
      "start": 5.9436,
      "duration": 0.0634,
      "velocity": 104,
      "chip": "ym2612"
    },
    {
      "channel": 3,
      "note": 75,
      "start": 6.0434,
      "duration": 0.0803,
      "velocity": 127,
      "chip": "ym2612"
    },
    {
      "channel": 4,
      "note": 71,
      "start": 6.046,
      "duration": 0.0779,
      "velocity": 127,
      "chip": "ym2612"
    },
    {
      "channel": 5,
      "note": 78,
      "start": 6.049,
      "duration": 0.075,
      "velocity": 104,
      "chip": "ym2612"
    },
    {
      "channel": 0,
      "note": 56,
      "start": 6.1603,
      "duration": 0.2298,
      "velocity": 127,
      "chip": "ym2612"
    },
    {
      "channel": 1,
      "note": 68,
      "start": 6.1629,
      "duration": 0.0608,
      "velocity": 104,
      "chip": "ym2612"
    },
    {
      "channel": 5,
      "note": 75,
      "start": 6.2605,
      "duration": 0.0632,
      "velocity": 104,
      "chip": "ym2612"
    },
    {
      "channel": 3,
      "note": 71,
      "start": 6.36,
      "duration": 0.0803,
      "velocity": 127,
      "chip": "ym2612"
    },
    {
      "channel": 4,
      "note": 75,
      "start": 6.3626,
      "duration": 0.078,
      "velocity": 127,
      "chip": "ym2612"
    },
    {
      "channel": 1,
      "note": 80,
      "start": 6.3654,
      "duration": 0.0749,
      "velocity": 104,
      "chip": "ym2612"
    },
    {
      "channel": 5,
      "note": 68,
      "start": 6.4772,
      "duration": 0.0632,
      "velocity": 104,
      "chip": "ym2612"
    },
    {
      "channel": 0,
      "note": 56,
      "start": 6.577,
      "duration": 0.1966,
      "velocity": 127,
      "chip": "ym2612"
    },
    {
      "channel": 1,
      "note": 78,
      "start": 6.5796,
      "duration": 0.0606,
      "velocity": 104,
      "chip": "ym2612"
    },
    {
      "channel": 5,
      "note": 80,
      "start": 6.694,
      "duration": 0.063,
      "velocity": 104,
      "chip": "ym2612"
    },
    {
      "channel": 2,
      "note": 50,
      "start": 6.7955,
      "duration": 0.0448,
      "velocity": 107,
      "chip": "ym2612"
    },
    {
      "channel": 0,
      "note": 61,
      "start": 6.7984,
      "duration": 0.1919,
      "velocity": 127,
      "chip": "ym2612"
    },
    {
      "channel": 1,
      "note": 73,
      "start": 6.8011,
      "duration": 0.0559,
      "velocity": 104,
      "chip": "ym2612"
    },
    {
      "channel": 3,
      "note": 76,
      "start": 7.01,
      "duration": 0.0637,
      "velocity": 127,
      "chip": "ym2612"
    },
    {
      "channel": 4,
      "note": 80,
      "start": 7.013,
      "duration": 0.0608,
      "velocity": 127,
      "chip": "ym2612"
    },
    {
      "channel": 1,
      "note": 76,
      "start": 7.0158,
      "duration": 0.0578,
      "velocity": 104,
      "chip": "ym2612"
    },
    {
      "channel": 5,
      "note": 73,
      "start": 7.1111,
      "duration": 0.0627,
      "velocity": 104,
      "chip": "ym2612"
    },
    {
      "channel": 2,
      "note": 50,
      "start": 7.2098,
      "duration": 0.064,
      "velocity": 107,
      "chip": "ym2612"
    },
    {
      "channel": 0,
      "note": 61,
      "start": 7.2127,
      "duration": 0.1942,
      "velocity": 127,
      "chip": "ym2612"
    },
    {
      "channel": 1,
      "note": 73,
      "start": 7.2153,
      "duration": 0.0749,
      "velocity": 104,
      "chip": "ym2612"
    },
    {
      "channel": 5,
      "note": 76,
      "start": 7.3273,
      "duration": 0.063,
      "velocity": 104,
      "chip": "ym2612"
    },
    {
      "channel": 3,
      "note": 76,
      "start": 7.4268,
      "duration": 0.0636,
      "velocity": 127,
      "chip": "ym2612"
    },
    {
      "channel": 4,
      "note": 80,
      "start": 7.4293,
      "duration": 0.0613,
      "velocity": 127,
      "chip": "ym2612"
    },
    {
      "channel": 1,
      "note": 83,
      "start": 7.4321,
      "duration": 0.0581,
      "velocity": 104,
      "chip": "ym2612"
    },
    {
      "channel": 0,
      "note": 61,
      "start": 7.5434,
      "duration": 0.1467,
      "velocity": 127,
      "chip": "ym2612"
    },
    {
      "channel": 5,
      "note": 73,
      "start": 7.5463,
      "duration": 0.0607,
      "velocity": 104,
      "chip": "ym2612"
    },
    {
      "channel": 2,
      "note": 50,
      "start": 7.6432,
      "duration": 0.0473,
      "velocity": 107,
      "chip": "ym2612"
    },
    {
      "channel": 1,
      "note": 80,
      "start": 7.6461,
      "duration": 0.0607,
      "velocity": 104,
      "chip": "ym2612"
    },
    {
      "channel": 3,
      "note": 76,
      "start": 7.7434,
      "duration": 0.0802,
      "velocity": 127,
      "chip": "ym2612"
    },
    {
      "channel": 4,
      "note": 80,
      "start": 7.746,
      "duration": 0.0778,
      "velocity": 127,
      "chip": "ym2612"
    },
    {
      "channel": 5,
      "note": 83,
      "start": 7.749,
      "duration": 0.0749,
      "velocity": 104,
      "chip": "ym2612"
    },
    {
      "channel": 0,
      "note": 61,
      "start": 7.8607,
      "duration": 0.2295,
      "velocity": 127,
      "chip": "ym2612"
    },
    {
      "channel": 1,
      "note": 73,
      "start": 7.8637,
      "duration": 0.0599,
      "velocity": 104,
      "chip": "ym2612"
    },
    {
      "channel": 5,
      "note": 80,
      "start": 7.9606,
      "duration": 0.0631,
      "velocity": 104,
      "chip": "ym2612"
    },
    {
      "channel": 2,
      "note": 50,
      "start": 8.0599,
      "duration": 0.064,
      "velocity": 107,
      "chip": "ym2612"
    },
    {
      "channel": 3,
      "note": 80,
      "start": 8.0627,
      "duration": 0.0777,
      "velocity": 127,
      "chip": "ym2612"
    },
    {
      "channel": 4,
      "note": 76,
      "start": 8.0652,
      "duration": 0.0753,
      "velocity": 127,
      "chip": "ym2612"
    },
    {
      "channel": 1,
      "note": 85,
      "start": 8.068,
      "duration": 0.0722,
      "velocity": 104,
      "chip": "ym2612"
    },
    {
      "channel": 5,
      "note": 73,
      "start": 8.1773,
      "duration": 0.0631,
      "velocity": 104,
      "chip": "ym2612"
    },
    {
      "channel": 0,
      "note": 61,
      "start": 8.277,
      "duration": 0.1965,
      "velocity": 127,
      "chip": "ym2612"
    },
    {
      "channel": 1,
      "note": 83,
      "start": 8.2797,
      "duration": 0.0605,
      "velocity": 104,
      "chip": "ym2612"
    },
    {
      "channel": 5,
      "note": 85,
      "start": 8.3941,
      "duration": 0.063,
      "velocity": 104,
      "chip": "ym2612"
    },
    {
      "channel": 2,
      "note": 50,
      "start": 8.4932,
      "duration": 0.0471,
      "velocity": 107,
      "chip": "ym2612"
    },
    {
      "channel": 0,
      "note": 61,
      "start": 8.4961,
      "duration": 0.194,
      "velocity": 127,
      "chip": "ym2612"
    },
    {
      "channel": 1,
      "note": 73,
      "start": 8.4988,
      "duration": 0.0581,
      "velocity": 104,
      "chip": "ym2612"
    },
    {
      "channel": 3,
      "note": 76,
      "start": 8.71,
      "duration": 0.0637,
      "velocity": 127,
      "chip": "ym2612"
    },
    {
      "channel": 4,
      "note": 80,
      "start": 8.713,
      "duration": 0.0609,
      "velocity": 127,
      "chip": "ym2612"
    },
    {
      "channel": 1,
      "note": 76,
      "start": 8.7158,
      "duration": 0.0579,
      "velocity": 104,
      "chip": "ym2612"
    },
    {
      "channel": 5,
      "note": 73,
      "start": 8.8107,
      "duration": 0.0632,
      "velocity": 104,
      "chip": "ym2612"
    },
    {
      "channel": 2,
      "note": 50,
      "start": 8.9098,
      "duration": 0.064,
      "velocity": 107,
      "chip": "ym2612"
    },
    {
      "channel": 0,
      "note": 61,
      "start": 8.9127,
      "duration": 0.1942,
      "velocity": 127,
      "chip": "ym2612"
    },
    {
      "channel": 1,
      "note": 73,
      "start": 8.9153,
      "duration": 0.0749,
      "velocity": 104,
      "chip": "ym2612"
    },
    {
      "channel": 5,
      "note": 76,
      "start": 9.0273,
      "duration": 0.063,
      "velocity": 104,
      "chip": "ym2612"
    },
    {
      "channel": 3,
      "note": 76,
      "start": 9.1268,
      "duration": 0.0635,
      "velocity": 127,
      "chip": "ym2612"
    },
    {
      "channel": 4,
      "note": 80,
      "start": 9.1294,
      "duration": 0.0611,
      "velocity": 127,
      "chip": "ym2612"
    },
    {
      "channel": 1,
      "note": 83,
      "start": 9.1321,
      "duration": 0.058,
      "velocity": 104,
      "chip": "ym2612"
    },
    {
      "channel": 0,
      "note": 61,
      "start": 9.2434,
      "duration": 0.1467,
      "velocity": 127,
      "chip": "ym2612"
    },
    {
      "channel": 5,
      "note": 73,
      "start": 9.2463,
      "duration": 0.0607,
      "velocity": 104,
      "chip": "ym2612"
    },
    {
      "channel": 2,
      "note": 50,
      "start": 9.3432,
      "duration": 0.0473,
      "velocity": 107,
      "chip": "ym2612"
    },
    {
      "channel": 1,
      "note": 80,
      "start": 9.3461,
      "duration": 0.0607,
      "velocity": 104,
      "chip": "ym2612"
    },
    {
      "channel": 3,
      "note": 76,
      "start": 9.4434,
      "duration": 0.0802,
      "velocity": 127,
      "chip": "ym2612"
    },
    {
      "channel": 4,
      "note": 80,
      "start": 9.446,
      "duration": 0.0778,
      "velocity": 127,
      "chip": "ym2612"
    },
    {
      "channel": 5,
      "note": 83,
      "start": 9.449,
      "duration": 0.0749,
      "velocity": 104,
      "chip": "ym2612"
    },
    {
      "channel": 0,
      "note": 61,
      "start": 9.5603,
      "duration": 0.2298,
      "velocity": 127,
      "chip": "ym2612"
    },
    {
      "channel": 1,
      "note": 73,
      "start": 9.5629,
      "duration": 0.0607,
      "velocity": 104,
      "chip": "ym2612"
    },
    {
      "channel": 5,
      "note": 80,
      "start": 9.6606,
      "duration": 0.0632,
      "velocity": 104,
      "chip": "ym2612"
    },
    {
      "channel": 2,
      "note": 50,
      "start": 9.7599,
      "duration": 0.064,
      "velocity": 107,
      "chip": "ym2612"
    },
    {
      "channel": 3,
      "note": 80,
      "start": 9.7627,
      "duration": 0.0777,
      "velocity": 127,
      "chip": "ym2612"
    },
    {
      "channel": 4,
      "note": 76,
      "start": 9.7652,
      "duration": 0.0753,
      "velocity": 127,
      "chip": "ym2612"
    },
    {
      "channel": 1,
      "note": 85,
      "start": 9.768,
      "duration": 0.0723,
      "velocity": 104,
      "chip": "ym2612"
    },
    {
      "channel": 5,
      "note": 73,
      "start": 9.8773,
      "duration": 0.063,
      "velocity": 104,
      "chip": "ym2612"
    },
    {
      "channel": 0,
      "note": 61,
      "start": 9.9774,
      "duration": 0.1961,
      "velocity": 127,
      "chip": "ym2612"
    },
    {
      "channel": 1,
      "note": 83,
      "start": 9.98,
      "duration": 0.0602,
      "velocity": 104,
      "chip": "ym2612"
    },
    {
      "channel": 5,
      "note": 85,
      "start": 10.0944,
      "duration": 0.0627,
      "velocity": 104,
      "chip": "ym2612"
    },
    {
      "channel": 2,
      "note": 50,
      "start": 10.1932,
      "duration": 0.0471,
      "velocity": 107,
      "chip": "ym2612"
    },
    {
      "channel": 3,
      "note": 68,
      "start": 10.196,
      "duration": 0.061,
      "velocity": 127,
      "chip": "ym2612"
    },
    {
      "channel": 4,
      "note": 71,
      "start": 10.199,
      "duration": 0.0581,
      "velocity": 127,
      "chip": "ym2612"
    },
    {
      "channel": 0,
      "note": 59,
      "start": 10.2018,
      "duration": 0.205,
      "velocity": 127,
      "chip": "ym2612"
    },
    {
      "channel": 1,
      "note": 68,
      "start": 10.2044,
      "duration": 0.0525,
      "velocity": 104,
      "chip": "ym2612"
    },
    {
      "channel": 3,
      "note": 75,
      "start": 10.4102,
      "duration": 0.0636,
      "velocity": 127,
      "chip": "ym2612"
    },
    {
      "channel": 4,
      "note": 71,
      "start": 10.4128,
      "duration": 0.0611,
      "velocity": 127,
      "chip": "ym2612"
    },
    {
      "channel": 1,
      "note": 71,
      "start": 10.4156,
      "duration": 0.0581,
      "velocity": 104,
      "chip": "ym2612"
    },
    {
      "channel": 5,
      "note": 68,
      "start": 10.5107,
      "duration": 0.0632,
      "velocity": 104,
      "chip": "ym2612"
    },
    {
      "channel": 2,
      "note": 50,
      "start": 10.6098,
      "duration": 0.0639,
      "velocity": 107,
      "chip": "ym2612"
    },
    {
      "channel": 0,
      "note": 56,
      "start": 10.6128,
      "duration": 0.1607,
      "velocity": 127,
      "chip": "ym2612"
    },
    {
      "channel": 1,
      "note": 68,
      "start": 10.6155,
      "duration": 0.0746,
      "velocity": 104,
      "chip": "ym2612"
    },
    {
      "channel": 5,
      "note": 71,
      "start": 10.7273,
      "duration": 0.0631,
      "velocity": 104,
      "chip": "ym2612"
    },
    {
      "channel": 3,
      "note": 75,
      "start": 10.8268,
      "duration": 0.0635,
      "velocity": 127,
      "chip": "ym2612"
    },
    {
      "channel": 4,
      "note": 71,
      "start": 10.8294,
      "duration": 0.061,
      "velocity": 127,
      "chip": "ym2612"
    },
    {
      "channel": 1,
      "note": 78,
      "start": 10.8322,
      "duration": 0.058,
      "velocity": 104,
      "chip": "ym2612"
    },
    {
      "channel": 0,
      "note": 56,
      "start": 10.9433,
      "duration": 0.1469,
      "velocity": 127,
      "chip": "ym2612"
    },
    {
      "channel": 5,
      "note": 68,
      "start": 10.9462,
      "duration": 0.0608,
      "velocity": 104,
      "chip": "ym2612"
    },
    {
      "channel": 2,
      "note": 50,
      "start": 11.0433,
      "duration": 0.0472,
      "velocity": 107,
      "chip": "ym2612"
    },
    {
      "channel": 1,
      "note": 75,
      "start": 11.0462,
      "duration": 0.0607,
      "velocity": 104,
      "chip": "ym2612"
    },
    {
      "channel": 3,
      "note": 75,
      "start": 11.1434,
      "duration": 0.0803,
      "velocity": 127,
      "chip": "ym2612"
    },
    {
      "channel": 4,
      "note": 71,
      "start": 11.1459,
      "duration": 0.0779,
      "velocity": 127,
      "chip": "ym2612"
    },
    {
      "channel": 5,
      "note": 78,
      "start": 11.149,
      "duration": 0.075,
      "velocity": 104,
      "chip": "ym2612"
    },
    {
      "channel": 0,
      "note": 56,
      "start": 11.2603,
      "duration": 0.18,
      "velocity": 127,
      "chip": "ym2612"
    },
    {
      "channel": 1,
      "note": 68,
      "start": 11.2633,
      "duration": 0.0604,
      "velocity": 104,
      "chip": "ym2612"
    },
    {
      "channel": 5,
      "note": 75,
      "start": 11.3606,
      "duration": 0.0632,
      "velocity": 104,
      "chip": "ym2612"
    },
    {
      "channel": 2,
      "note": 50,
      "start": 11.4598,
      "duration": 0.064,
      "velocity": 107,
      "chip": "ym2612"
    },
    {
      "channel": 3,
      "note": 71,
      "start": 11.4626,
      "duration": 0.0778,
      "velocity": 127,
      "chip": "ym2612"
    },
    {
      "channel": 4,
      "note": 75,
      "start": 11.4656,
      "duration": 0.0749,
      "velocity": 127,
      "chip": "ym2612"
    },
    {
      "channel": 1,
      "note": 80,
      "start": 11.4683,
      "duration": 0.0719,
      "velocity": 104,
      "chip": "ym2612"
    },
    {
      "channel": 5,
      "note": 68,
      "start": 11.5773,
      "duration": 0.063,
      "velocity": 104,
      "chip": "ym2612"
    },
    {
      "channel": 0,
      "note": 56,
      "start": 11.6768,
      "duration": 0.1968,
      "velocity": 127,
      "chip": "ym2612"
    },
    {
      "channel": 1,
      "note": 78,
      "start": 11.6794,
      "duration": 0.0608,
      "velocity": 104,
      "chip": "ym2612"
    },
    {
      "channel": 5,
      "note": 80,
      "start": 11.7941,
      "duration": 0.0629,
      "velocity": 104,
      "chip": "ym2612"
    },
    {
      "channel": 2,
      "note": 50,
      "start": 11.8932,
      "duration": 0.0472,
      "velocity": 107,
      "chip": "ym2612"
    },
    {
      "channel": 0,
      "note": 56,
      "start": 11.896,
      "duration": 0.1942,
      "velocity": 127,
      "chip": "ym2612"
    },
    {
      "channel": 1,
      "note": 68,
      "start": 11.8986,
      "duration": 0.0583,
      "velocity": 104,
      "chip": "ym2612"
    },
    {
      "channel": 3,
      "note": 75,
      "start": 12.11,
      "duration": 0.0637,
      "velocity": 127,
      "chip": "ym2612"
    },
    {
      "channel": 4,
      "note": 71,
      "start": 12.1126,
      "duration": 0.0613,
      "velocity": 127,
      "chip": "ym2612"
    },
    {
      "channel": 1,
      "note": 71,
      "start": 12.1154,
      "duration": 0.0583,
      "velocity": 104,
      "chip": "ym2612"
    },
    {
      "channel": 5,
      "note": 68,
      "start": 12.2107,
      "duration": 0.0632,
      "velocity": 104,
      "chip": "ym2612"
    },
    {
      "channel": 2,
      "note": 50,
      "start": 12.3098,
      "duration": 0.064,
      "velocity": 107,
      "chip": "ym2612"
    },
    {
      "channel": 0,
      "note": 56,
      "start": 12.3131,
      "duration": 0.1938,
      "velocity": 127,
      "chip": "ym2612"
    },
    {
      "channel": 1,
      "note": 68,
      "start": 12.3157,
      "duration": 0.0745,
      "velocity": 104,
      "chip": "ym2612"
    },
    {
      "channel": 5,
      "note": 71,
      "start": 12.4273,
      "duration": 0.0632,
      "velocity": 104,
      "chip": "ym2612"
    },
    {
      "channel": 3,
      "note": 75,
      "start": 12.5268,
      "duration": 0.0635,
      "velocity": 127,
      "chip": "ym2612"
    },
    {
      "channel": 4,
      "note": 71,
      "start": 12.5294,
      "duration": 0.061,
      "velocity": 127,
      "chip": "ym2612"
    },
    {
      "channel": 1,
      "note": 78,
      "start": 12.5322,
      "duration": 0.058,
      "velocity": 104,
      "chip": "ym2612"
    },
    {
      "channel": 0,
      "note": 56,
      "start": 12.6434,
      "duration": 0.1467,
      "velocity": 127,
      "chip": "ym2612"
    },
    {
      "channel": 5,
      "note": 68,
      "start": 12.6463,
      "duration": 0.0607,
      "velocity": 104,
      "chip": "ym2612"
    },
    {
      "channel": 2,
      "note": 50,
      "start": 12.7431,
      "duration": 0.0473,
      "velocity": 107,
      "chip": "ym2612"
    },
    {
      "channel": 1,
      "note": 75,
      "start": 12.7461,
      "duration": 0.0607,
      "velocity": 104,
      "chip": "ym2612"
    },
    {
      "channel": 3,
      "note": 75,
      "start": 12.8434,
      "duration": 0.0802,
      "velocity": 127,
      "chip": "ym2612"
    },
    {
      "channel": 4,
      "note": 71,
      "start": 12.846,
      "duration": 0.0778,
      "velocity": 127,
      "chip": "ym2612"
    },
    {
      "channel": 5,
      "note": 78,
      "start": 12.849,
      "duration": 0.0749,
      "velocity": 104,
      "chip": "ym2612"
    },
    {
      "channel": 0,
      "note": 56,
      "start": 12.9602,
      "duration": 0.2134,
      "velocity": 127,
      "chip": "ym2612"
    },
    {
      "channel": 1,
      "note": 68,
      "start": 12.9629,
      "duration": 0.0608,
      "velocity": 104,
      "chip": "ym2612"
    },
    {
      "channel": 5,
      "note": 75,
      "start": 13.0606,
      "duration": 0.0632,
      "velocity": 104,
      "chip": "ym2612"
    },
    {
      "channel": 2,
      "note": 50,
      "start": 13.1599,
      "duration": 0.0639,
      "velocity": 107,
      "chip": "ym2612"
    },
    {
      "channel": 3,
      "note": 71,
      "start": 13.1627,
      "duration": 0.0776,
      "velocity": 127,
      "chip": "ym2612"
    },
    {
      "channel": 4,
      "note": 75,
      "start": 13.1656,
      "duration": 0.0748,
      "velocity": 127,
      "chip": "ym2612"
    },
    {
      "channel": 1,
      "note": 80,
      "start": 13.1684,
      "duration": 0.0718,
      "velocity": 104,
      "chip": "ym2612"
    },
    {
      "channel": 5,
      "note": 68,
      "start": 13.2776,
      "duration": 0.0627,
      "velocity": 104,
      "chip": "ym2612"
    },
    {
      "channel": 0,
      "note": 56,
      "start": 13.3771,
      "duration": 0.1964,
      "velocity": 127,
      "chip": "ym2612"
    },
    {
      "channel": 1,
      "note": 78,
      "start": 13.3801,
      "duration": 0.0601,
      "velocity": 104,
      "chip": "ym2612"
    },
    {
      "channel": 5,
      "note": 80,
      "start": 13.4942,
      "duration": 0.0628,
      "velocity": 104,
      "chip": "ym2612"
    },
    {
      "channel": 2,
      "note": 50,
      "start": 13.5936,
      "duration": 0.0469,
      "velocity": 107,
      "chip": "ym2612"
    },
    {
      "channel": 3,
      "note": 80,
      "start": 13.5981,
      "duration": 0.059,
      "velocity": 127,
      "chip": "ym2612"
    },
    {
      "channel": 4,
      "note": 76,
      "start": 13.6008,
      "duration": 0.0565,
      "velocity": 127,
      "chip": "ym2612"
    },
    {
      "channel": 1,
      "note": 76,
      "start": 13.6036,
      "duration": 0.0534,
      "velocity": 127,
      "chip": "ym2612"
    },
    {
      "channel": 5,
      "note": 73,
      "start": 13.6063,
      "duration": 0.0511,
      "velocity": 127,
      "chip": "ym2612"
    },
    {
      "channel": 0,
      "note": 73,
      "start": 13.6115,
      "duration": 0.0454,
      "velocity": 117,
      "chip": "ym2612"
    },
    {
      "channel": 1,
      "note": 76,
      "start": 13.81,
      "duration": 0.0638,
      "velocity": 127,
      "chip": "ym2612"
    },
    {
      "channel": 5,
      "note": 80,
      "start": 13.8126,
      "duration": 0.0615,
      "velocity": 127,
      "chip": "ym2612"
    },
    {
      "channel": 0,
      "note": 76,
      "start": 13.8156,
      "duration": 0.0581,
      "velocity": 117,
      "chip": "ym2612"
    },
    {
      "channel": 2,
      "note": 73,
      "start": 13.9128,
      "duration": 0.0609,
      "velocity": 117,
      "chip": "ym2612"
    },
    {
      "channel": 3,
      "note": 50,
      "start": 14.0099,
      "duration": 0.0638,
      "velocity": 107,
      "chip": "ym2612"
    },
    {
      "channel": 4,
      "note": 80,
      "start": 14.0129,
      "duration": 0.0775,
      "velocity": 127,
      "chip": "ym2612"
    },
    {
      "channel": 0,
      "note": 76,
      "start": 14.0157,
      "duration": 0.0744,
      "velocity": 127,
      "chip": "ym2612"
    },
    {
      "channel": 1,
      "note": 73,
      "start": 14.019,
      "duration": 0.0712,
      "velocity": 117,
      "chip": "ym2612"
    },
    {
      "channel": 2,
      "note": 76,
      "start": 14.1276,
      "duration": 0.0628,
      "velocity": 117,
      "chip": "ym2612"
    },
    {
      "channel": 5,
      "note": 76,
      "start": 14.2269,
      "duration": 0.0636,
      "velocity": 127,
      "chip": "ym2612"
    },
    {
      "channel": 3,
      "note": 80,
      "start": 14.2296,
      "duration": 0.0607,
      "velocity": 127,
      "chip": "ym2612"
    },
    {
      "channel": 1,
      "note": 83,
      "start": 14.233,
      "duration": 0.0573,
      "velocity": 117,
      "chip": "ym2612"
    },
    {
      "channel": 0,
      "note": 80,
      "start": 14.3266,
      "duration": 0.0802,
      "velocity": 127,
      "chip": "ym2612"
    },
    {
      "channel": 4,
      "note": 76,
      "start": 14.3291,
      "duration": 0.0779,
      "velocity": 127,
      "chip": "ym2612"
    },
    {
      "channel": 2,
      "note": 73,
      "start": 14.3325,
      "duration": 0.0747,
      "velocity": 117,
      "chip": "ym2612"
    },
    {
      "channel": 1,
      "note": 50,
      "start": 14.4432,
      "duration": 0.0469,
      "velocity": 107,
      "chip": "ym2612"
    },
    {
      "channel": 3,
      "note": 80,
      "start": 14.4467,
      "duration": 0.0603,
      "velocity": 117,
      "chip": "ym2612"
    },
    {
      "channel": 5,
      "note": 76,
      "start": 14.5435,
      "duration": 0.0636,
      "velocity": 127,
      "chip": "ym2612"
    },
    {
      "channel": 0,
      "note": 80,
      "start": 14.5466,
      "duration": 0.0602,
      "velocity": 127,
      "chip": "ym2612"
    },
    {
      "channel": 2,
      "note": 83,
      "start": 14.5502,
      "duration": 0.057,
      "velocity": 117,
      "chip": "ym2612"
    },
    {
      "channel": 4,
      "note": 76,
      "start": 14.66,
      "duration": 0.0639,
      "velocity": 127,
      "chip": "ym2612"
    },
    {
      "channel": 1,
      "note": 80,
      "start": 14.6627,
      "duration": 0.061,
      "velocity": 127,
      "chip": "ym2612"
    },
    {
      "channel": 3,
      "note": 73,
      "start": 14.6659,
      "duration": 0.0579,
      "velocity": 117,
      "chip": "ym2612"
    },
    {
      "channel": 2,
      "note": 80,
      "start": 14.7608,
      "duration": 0.063,
      "velocity": 117,
      "chip": "ym2612"
    },
    {
      "channel": 0,
      "note": 50,
      "start": 14.8598,
      "duration": 0.0638,
      "velocity": 107,
      "chip": "ym2612"
    },
    {
      "channel": 5,
      "note": 80,
      "start": 14.8627,
      "duration": 0.0778,
      "velocity": 127,
      "chip": "ym2612"
    },
    {
      "channel": 1,
      "note": 76,
      "start": 14.8654,
      "duration": 0.0748,
      "velocity": 127,
      "chip": "ym2612"
    },
    {
      "channel": 3,
      "note": 85,
      "start": 14.8684,
      "duration": 0.0719,
      "velocity": 117,
      "chip": "ym2612"
    },
    {
      "channel": 2,
      "note": 73,
      "start": 14.9776,
      "duration": 0.0628,
      "velocity": 117,
      "chip": "ym2612"
    },
    {
      "channel": 4,
      "note": 76,
      "start": 15.0768,
      "duration": 0.0636,
      "velocity": 127,
      "chip": "ym2612"
    },
    {
      "channel": 0,
      "note": 80,
      "start": 15.0795,
      "duration": 0.0606,
      "velocity": 127,
      "chip": "ym2612"
    },
    {
      "channel": 3,
      "note": 83,
      "start": 15.0827,
      "duration": 0.0576,
      "velocity": 117,
      "chip": "ym2612"
    },
    {
      "channel": 2,
      "note": 85,
      "start": 15.1778,
      "duration": 0.0793,
      "velocity": 117,
      "chip": "ym2612"
    },
    {
      "channel": 1,
      "note": 50,
      "start": 15.2931,
      "duration": 0.0471,
      "velocity": 107,
      "chip": "ym2612"
    },
    {
      "channel": 0,
      "note": 80,
      "start": 15.296,
      "duration": 0.0608,
      "velocity": 127,
      "chip": "ym2612"
    },
    {
      "channel": 4,
      "note": 76,
      "start": 15.2986,
      "duration": 0.0585,
      "velocity": 127,
      "chip": "ym2612"
    },
    {
      "channel": 5,
      "note": 76,
      "start": 15.3014,
      "duration": 0.0559,
      "velocity": 127,
      "chip": "ym2612"
    },
    {
      "channel": 3,
      "note": 73,
      "start": 15.3041,
      "duration": 0.053,
      "velocity": 127,
      "chip": "ym2612"
    },
    {
      "channel": 2,
      "note": 73,
      "start": 15.3073,
      "duration": 0.0501,
      "velocity": 117,
      "chip": "ym2612"
    },
    {
      "channel": 3,
      "note": 76,
      "start": 15.51,
      "duration": 0.0637,
      "velocity": 127,
      "chip": "ym2612"
    },
    {
      "channel": 5,
      "note": 80,
      "start": 15.5126,
      "duration": 0.0612,
      "velocity": 127,
      "chip": "ym2612"
    },
    {
      "channel": 2,
      "note": 76,
      "start": 15.5159,
      "duration": 0.0581,
      "velocity": 117,
      "chip": "ym2612"
    },
    {
      "channel": 1,
      "note": 73,
      "start": 15.611,
      "duration": 0.0627,
      "velocity": 117,
      "chip": "ym2612"
    },
    {
      "channel": 0,
      "note": 50,
      "start": 15.7098,
      "duration": 0.0638,
      "velocity": 107,
      "chip": "ym2612"
    },
    {
      "channel": 4,
      "note": 80,
      "start": 15.7126,
      "duration": 0.0779,
      "velocity": 127,
      "chip": "ym2612"
    },
    {
      "channel": 3,
      "note": 76,
      "start": 15.7152,
      "duration": 0.0751,
      "velocity": 127,
      "chip": "ym2612"
    },
    {
      "channel": 2,
      "note": 73,
      "start": 15.7185,
      "duration": 0.072,
      "velocity": 117,
      "chip": "ym2612"
    },
    {
      "channel": 1,
      "note": 76,
      "start": 15.8274,
      "duration": 0.0628,
      "velocity": 117,
      "chip": "ym2612"
    },
    {
      "channel": 5,
      "note": 76,
      "start": 15.9269,
      "duration": 0.0635,
      "velocity": 127,
      "chip": "ym2612"
    },
    {
      "channel": 0,
      "note": 80,
      "start": 15.9299,
      "duration": 0.0602,
      "velocity": 127,
      "chip": "ym2612"
    },
    {
      "channel": 2,
      "note": 83,
      "start": 15.9332,
      "duration": 0.0574,
      "velocity": 117,
      "chip": "ym2612"
    },
    {
      "channel": 3,
      "note": 80,
      "start": 16.0267,
      "duration": 0.0804,
      "velocity": 127,
      "chip": "ym2612"
    },
    {
      "channel": 4,
      "note": 76,
      "start": 16.0293,
      "duration": 0.0779,
      "velocity": 127,
      "chip": "ym2612"
    },
    {
      "channel": 1,
      "note": 73,
      "start": 16.0325,
      "duration": 0.0744,
      "velocity": 117,
      "chip": "ym2612"
    },
    {
      "channel": 0,
      "note": 50,
      "start": 16.1432,
      "duration": 0.0471,
      "velocity": 107,
      "chip": "ym2612"
    },
    {
      "channel": 2,
      "note": 80,
      "start": 16.1466,
      "duration": 0.0604,
      "velocity": 117,
      "chip": "ym2612"
    },
    {
      "channel": 5,
      "note": 76,
      "start": 16.2436,
      "duration": 0.0637,
      "velocity": 127,
      "chip": "ym2612"
    },
    {
      "channel": 1,
      "note": 80,
      "start": 16.2463,
      "duration": 0.0606,
      "velocity": 127,
      "chip": "ym2612"
    },
    {
      "channel": 3,
      "note": 83,
      "start": 16.2496,
      "duration": 0.0574,
      "velocity": 117,
      "chip": "ym2612"
    },
    {
      "channel": 4,
      "note": 76,
      "start": 16.36,
      "duration": 0.0638,
      "velocity": 127,
      "chip": "ym2612"
    },
    {
      "channel": 0,
      "note": 80,
      "start": 16.3626,
      "duration": 0.0609,
      "velocity": 127,
      "chip": "ym2612"
    },
    {
      "channel": 2,
      "note": 73,
      "start": 16.366,
      "duration": 0.058,
      "velocity": 117,
      "chip": "ym2612"
    },
    {
      "channel": 3,
      "note": 80,
      "start": 16.4607,
      "duration": 0.0629,
      "velocity": 117,
      "chip": "ym2612"
    },
    {
      "channel": 1,
      "note": 50,
      "start": 16.5599,
      "duration": 0.0637,
      "velocity": 107,
      "chip": "ym2612"
    },
    {
      "channel": 5,
      "note": 80,
      "start": 16.5628,
      "duration": 0.0777,
      "velocity": 127,
      "chip": "ym2612"
    },
    {
      "channel": 0,
      "note": 76,
      "start": 16.5655,
      "duration": 0.0747,
      "velocity": 127,
      "chip": "ym2612"
    },
    {
      "channel": 2,
      "note": 85,
      "start": 16.5687,
      "duration": 0.0719,
      "velocity": 117,
      "chip": "ym2612"
    },
    {
      "channel": 3,
      "note": 73,
      "start": 16.6775,
      "duration": 0.0628,
      "velocity": 117,
      "chip": "ym2612"
    },
    {
      "channel": 4,
      "note": 76,
      "start": 16.7771,
      "duration": 0.0633,
      "velocity": 127,
      "chip": "ym2612"
    },
    {
      "channel": 1,
      "note": 80,
      "start": 16.7799,
      "duration": 0.0604,
      "velocity": 127,
      "chip": "ym2612"
    },
    {
      "channel": 2,
      "note": 83,
      "start": 16.7832,
      "duration": 0.0575,
      "velocity": 117,
      "chip": "ym2612"
    },
    {
      "channel": 3,
      "note": 85,
      "start": 16.8775,
      "duration": 0.0795,
      "velocity": 117,
      "chip": "ym2612"
    },
    {
      "channel": 0,
      "note": 50,
      "start": 16.9931,
      "duration": 0.0471,
      "velocity": 107,
      "chip": "ym2612"
    },
    {
      "channel": 1,
      "note": 71,
      "start": 16.9957,
      "duration": 0.0611,
      "velocity": 127,
      "chip": "ym2612"
    },
    {
      "channel": 4,
      "note": 75,
      "start": 16.9983,
      "duration": 0.0589,
      "velocity": 127,
      "chip": "ym2612"
    },
    {
      "channel": 5,
      "note": 68,
      "start": 17.0011,
      "duration": 0.0562,
      "velocity": 127,
      "chip": "ym2612"
    },
    {
      "channel": 2,
      "note": 71,
      "start": 17.0037,
      "duration": 0.0537,
      "velocity": 127,
      "chip": "ym2612"
    },
    {
      "channel": 3,
      "note": 68,
      "start": 17.007,
      "duration": 0.05,
      "velocity": 117,
      "chip": "ym2612"
    },
    {
      "channel": 5,
      "note": 75,
      "start": 17.2101,
      "duration": 0.0637,
      "velocity": 127,
      "chip": "ym2612"
    },
    {
      "channel": 2,
      "note": 71,
      "start": 17.2132,
      "duration": 0.0607,
      "velocity": 127,
      "chip": "ym2612"
    },
    {
      "channel": 3,
      "note": 71,
      "start": 17.2163,
      "duration": 0.0574,
      "velocity": 117,
      "chip": "ym2612"
    },
    {
      "channel": 0,
      "note": 68,
      "start": 17.311,
      "duration": 0.0625,
      "velocity": 117,
      "chip": "ym2612"
    },
    {
      "channel": 1,
      "note": 50,
      "start": 17.4099,
      "duration": 0.0637,
      "velocity": 107,
      "chip": "ym2612"
    },
    {
      "channel": 4,
      "note": 71,
      "start": 17.4126,
      "duration": 0.0777,
      "velocity": 127,
      "chip": "ym2612"
    },
    {
      "channel": 3,
      "note": 75,
      "start": 17.4153,
      "duration": 0.0749,
      "velocity": 127,
      "chip": "ym2612"
    },
    {
      "channel": 5,
      "note": 68,
      "start": 17.4186,
      "duration": 0.0719,
      "velocity": 117,
      "chip": "ym2612"
    },
    {
      "channel": 0,
      "note": 71,
      "start": 17.5276,
      "duration": 0.0625,
      "velocity": 117,
      "chip": "ym2612"
    },
    {
      "channel": 2,
      "note": 75,
      "start": 17.6269,
      "duration": 0.0636,
      "velocity": 127,
      "chip": "ym2612"
    },
    {
      "channel": 1,
      "note": 71,
      "start": 17.6297,
      "duration": 0.0605,
      "velocity": 127,
      "chip": "ym2612"
    },
    {
      "channel": 5,
      "note": 78,
      "start": 17.6332,
      "duration": 0.0572,
      "velocity": 117,
      "chip": "ym2612"
    },
    {
      "channel": 3,
      "note": 71,
      "start": 17.7267,
      "duration": 0.0803,
      "velocity": 127,
      "chip": "ym2612"
    },
    {
      "channel": 4,
      "note": 75,
      "start": 17.7293,
      "duration": 0.0779,
      "velocity": 127,
      "chip": "ym2612"
    },
    {
      "channel": 0,
      "note": 68,
      "start": 17.7324,
      "duration": 0.0744,
      "velocity": 117,
      "chip": "ym2612"
    },
    {
      "channel": 1,
      "note": 50,
      "start": 17.8432,
      "duration": 0.047,
      "velocity": 107,
      "chip": "ym2612"
    },
    {
      "channel": 5,
      "note": 75,
      "start": 17.8466,
      "duration": 0.0605,
      "velocity": 117,
      "chip": "ym2612"
    },
    {
      "channel": 2,
      "note": 75,
      "start": 17.9435,
      "duration": 0.0637,
      "velocity": 127,
      "chip": "ym2612"
    },
    {
      "channel": 0,
      "note": 71,
      "start": 17.9462,
      "duration": 0.0606,
      "velocity": 127,
      "chip": "ym2612"
    },
    {
      "channel": 3,
      "note": 78,
      "start": 17.9496,
      "duration": 0.0574,
      "velocity": 117,
      "chip": "ym2612"
    },
    {
      "channel": 4,
      "note": 75,
      "start": 18.0604,
      "duration": 0.0635,
      "velocity": 127,
      "chip": "ym2612"
    },
    {
      "channel": 1,
      "note": 71,
      "start": 18.0632,
      "duration": 0.0605,
      "velocity": 127,
      "chip": "ym2612"
    },
    {
      "channel": 5,
      "note": 68,
      "start": 18.0664,
      "duration": 0.0576,
      "velocity": 117,
      "chip": "ym2612"
    },
    {
      "channel": 3,
      "note": 75,
      "start": 18.1607,
      "duration": 0.0631,
      "velocity": 117,
      "chip": "ym2612"
    },
    {
      "channel": 0,
      "note": 50,
      "start": 18.2598,
      "duration": 0.0637,
      "velocity": 107,
      "chip": "ym2612"
    },
    {
      "channel": 2,
      "note": 71,
      "start": 18.2628,
      "duration": 0.0777,
      "velocity": 127,
      "chip": "ym2612"
    },
    {
      "channel": 1,
      "note": 75,
      "start": 18.2655,
      "duration": 0.0746,
      "velocity": 127,
      "chip": "ym2612"
    },
    {
      "channel": 5,
      "note": 80,
      "start": 18.2687,
      "duration": 0.0717,
      "velocity": 117,
      "chip": "ym2612"
    },
    {
      "channel": 3,
      "note": 68,
      "start": 18.3773,
      "duration": 0.0629,
      "velocity": 117,
      "chip": "ym2612"
    },
    {
      "channel": 4,
      "note": 75,
      "start": 18.4768,
      "duration": 0.0636,
      "velocity": 127,
      "chip": "ym2612"
    },
    {
      "channel": 0,
      "note": 71,
      "start": 18.4794,
      "duration": 0.0607,
      "velocity": 127,
      "chip": "ym2612"
    },
    {
      "channel": 5,
      "note": 78,
      "start": 18.4827,
      "duration": 0.0578,
      "velocity": 117,
      "chip": "ym2612"
    },
    {
      "channel": 3,
      "note": 80,
      "start": 18.5776,
      "duration": 0.0793,
      "velocity": 117,
      "chip": "ym2612"
    },
    {
      "channel": 1,
      "note": 50,
      "start": 18.6932,
      "duration": 0.0471,
      "velocity": 107,
      "chip": "ym2612"
    },
    {
      "channel": 0,
      "note": 71,
      "start": 18.6957,
      "duration": 0.0611,
      "velocity": 127,
      "chip": "ym2612"
    },
    {
      "channel": 4,
      "note": 75,
      "start": 18.6983,
      "duration": 0.0588,
      "velocity": 127,
      "chip": "ym2612"
    },
    {
      "channel": 2,
      "note": 68,
      "start": 18.7011,
      "duration": 0.0563,
      "velocity": 127,
      "chip": "ym2612"
    },
    {
      "channel": 5,
      "note": 71,
      "start": 18.7042,
      "duration": 0.0531,
      "velocity": 127,
      "chip": "ym2612"
    },
    {
      "channel": 3,
      "note": 68,
      "start": 18.7074,
      "duration": 0.0496,
      "velocity": 117,
      "chip": "ym2612"
    },
    {
      "channel": 5,
      "note": 75,
      "start": 18.9102,
      "duration": 0.0636,
      "velocity": 127,
      "chip": "ym2612"
    },
    {
      "channel": 2,
      "note": 71,
      "start": 18.9129,
      "duration": 0.0611,
      "velocity": 127,
      "chip": "ym2612"
    },
    {
      "channel": 3,
      "note": 71,
      "start": 18.916,
      "duration": 0.0577,
      "velocity": 117,
      "chip": "ym2612"
    },
    {
      "channel": 1,
      "note": 68,
      "start": 19.011,
      "duration": 0.0627,
      "velocity": 117,
      "chip": "ym2612"
    },
    {
      "channel": 0,
      "note": 50,
      "start": 19.1098,
      "duration": 0.047,
      "velocity": 107,
      "chip": "ym2612"
    },
    {
      "channel": 4,
      "note": 71,
      "start": 19.1126,
      "duration": 0.0779,
      "velocity": 127,
      "chip": "ym2612"
    },
    {
      "channel": 3,
      "note": 75,
      "start": 19.1152,
      "duration": 0.0751,
      "velocity": 127,
      "chip": "ym2612"
    },
    {
      "channel": 5,
      "note": 68,
      "start": 19.1185,
      "duration": 0.072,
      "velocity": 117,
      "chip": "ym2612"
    },
    {
      "channel": 1,
      "note": 71,
      "start": 19.2274,
      "duration": 0.0628,
      "velocity": 117,
      "chip": "ym2612"
    },
    {
      "channel": 2,
      "note": 75,
      "start": 19.3269,
      "duration": 0.0636,
      "velocity": 127,
      "chip": "ym2612"
    },
    {
      "channel": 0,
      "note": 71,
      "start": 19.3297,
      "duration": 0.0605,
      "velocity": 127,
      "chip": "ym2612"
    },
    {
      "channel": 5,
      "note": 78,
      "start": 19.3329,
      "duration": 0.0576,
      "velocity": 117,
      "chip": "ym2612"
    },
    {
      "channel": 3,
      "note": 71,
      "start": 19.4271,
      "duration": 0.08,
      "velocity": 127,
      "chip": "ym2612"
    },
    {
      "channel": 4,
      "note": 75,
      "start": 19.4297,
      "duration": 0.0775,
      "velocity": 127,
      "chip": "ym2612"
    },
    {
      "channel": 1,
      "note": 68,
      "start": 19.4329,
      "duration": 0.0741,
      "velocity": 117,
      "chip": "ym2612"
    },
    {
      "channel": 0,
      "note": 50,
      "start": 19.5432,
      "duration": 0.0469,
      "velocity": 107,
      "chip": "ym2612"
    },
    {
      "channel": 5,
      "note": 75,
      "start": 19.5466,
      "duration": 0.0605,
      "velocity": 117,
      "chip": "ym2612"
    },
    {
      "channel": 2,
      "note": 75,
      "start": 19.6436,
      "duration": 0.0637,
      "velocity": 127,
      "chip": "ym2612"
    },
    {
      "channel": 1,
      "note": 71,
      "start": 19.6462,
      "duration": 0.0606,
      "velocity": 127,
      "chip": "ym2612"
    },
    {
      "channel": 3,
      "note": 78,
      "start": 19.6496,
      "duration": 0.0574,
      "velocity": 117,
      "chip": "ym2612"
    },
    {
      "channel": 4,
      "note": 75,
      "start": 19.76,
      "duration": 0.0637,
      "velocity": 127,
      "chip": "ym2612"
    },
    {
      "channel": 0,
      "note": 71,
      "start": 19.7627,
      "duration": 0.0608,
      "velocity": 127,
      "chip": "ym2612"
    },
    {
      "channel": 5,
      "note": 68,
      "start": 19.7659,
      "duration": 0.058,
      "velocity": 117,
      "chip": "ym2612"
    },
    {
      "channel": 3,
      "note": 75,
      "start": 19.8606,
      "duration": 0.0631,
      "velocity": 117,
      "chip": "ym2612"
    },
    {
      "channel": 1,
      "note": 50,
      "start": 19.9605,
      "duration": 0.0464,
      "velocity": 107,
      "chip": "ym2612"
    },
    {
      "channel": 2,
      "note": 71,
      "start": 19.9635,
      "duration": 0.0771,
      "velocity": 127,
      "chip": "ym2612"
    },
    {
      "channel": 0,
      "note": 75,
      "start": 19.9666,
      "duration": 0.0737,
      "velocity": 127,
      "chip": "ym2612"
    },
    {
      "channel": 5,
      "note": 80,
      "start": 19.9697,
      "duration": 0.0708,
      "velocity": 117,
      "chip": "ym2612"
    },
    {
      "channel": 3,
      "note": 68,
      "start": 20.0773,
      "duration": 0.0629,
      "velocity": 117,
      "chip": "ym2612"
    },
    {
      "channel": 4,
      "note": 75,
      "start": 20.1768,
      "duration": 0.0636,
      "velocity": 127,
      "chip": "ym2612"
    },
    {
      "channel": 1,
      "note": 71,
      "start": 20.1794,
      "duration": 0.0607,
      "velocity": 127,
      "chip": "ym2612"
    },
    {
      "channel": 5,
      "note": 78,
      "start": 20.1827,
      "duration": 0.0578,
      "velocity": 117,
      "chip": "ym2612"
    },
    {
      "channel": 3,
      "note": 80,
      "start": 20.2776,
      "duration": 0.0793,
      "velocity": 117,
      "chip": "ym2612"
    },
    {
      "channel": 1,
      "note": 80,
      "start": 20.3932,
      "duration": 0.0637,
      "velocity": 127,
      "chip": "ym2612"
    },
    {
      "channel": 4,
      "note": 76,
      "start": 20.3959,
      "duration": 0.0614,
      "velocity": 127,
      "chip": "ym2612"
    },
    {
      "channel": 0,
      "note": 76,
      "start": 20.3984,
      "duration": 0.0584,
      "velocity": 127,
      "chip": "ym2612"
    },
    {
      "channel": 2,
      "note": 73,
      "start": 20.4011,
      "duration": 0.0562,
      "velocity": 127,
      "chip": "ym2612"
    },
    {
      "channel": 5,
      "note": 61,
      "start": 20.404,
      "duration": 0.1698,
      "velocity": 127,
      "chip": "ym2612"
    },
    {
      "channel": 3,
      "note": 73,
      "start": 20.4071,
      "duration": 0.0499,
      "velocity": 117,
      "chip": "ym2612"
    },
    {
      "channel": 0,
      "note": 76,
      "start": 20.61,
      "duration": 0.0637,
      "velocity": 127,
      "chip": "ym2612"
    },
    {
      "channel": 2,
      "note": 80,
      "start": 20.6127,
      "duration": 0.0614,
      "velocity": 127,
      "chip": "ym2612"
    },
    {
      "channel": 3,
      "note": 76,
      "start": 20.6158,
      "duration": 0.0581,
      "velocity": 117,
      "chip": "ym2612"
    },
    {
      "channel": 1,
      "note": 73,
      "start": 20.7114,
      "duration": 0.0622,
      "velocity": 117,
      "chip": "ym2612"
    },
    {
      "channel": 4,
      "note": 80,
      "start": 20.8104,
      "duration": 0.08,
      "velocity": 127,
      "chip": "ym2612"
    },
    {
      "channel": 5,
      "note": 76,
      "start": 20.8132,
      "duration": 0.0774,
      "velocity": 127,
      "chip": "ym2612"
    },
    {
      "channel": 0,
      "note": 61,
      "start": 20.8161,
      "duration": 0.1906,
      "velocity": 127,
      "chip": "ym2612"
    },
    {
      "channel": 3,
      "note": 73,
      "start": 20.8191,
      "duration": 0.0712,
      "velocity": 117,
      "chip": "ym2612"
    },
    {
      "channel": 1,
      "note": 76,
      "start": 20.9273,
      "duration": 0.063,
      "velocity": 117,
      "chip": "ym2612"
    },
    {
      "channel": 2,
      "note": 76,
      "start": 21.027,
      "duration": 0.0635,
      "velocity": 127,
      "chip": "ym2612"
    },
    {
      "channel": 3,
      "note": 80,
      "start": 21.0297,
      "duration": 0.0605,
      "velocity": 127,
      "chip": "ym2612"
    },
    {
      "channel": 4,
      "note": 83,
      "start": 21.0333,
      "duration": 0.057,
      "velocity": 117,
      "chip": "ym2612"
    },
    {
      "channel": 5,
      "note": 80,
      "start": 21.1268,
      "duration": 0.0805,
      "velocity": 127,
      "chip": "ym2612"
    },
    {
      "channel": 1,
      "note": 76,
      "start": 21.1295,
      "duration": 0.0775,
      "velocity": 127,
      "chip": "ym2612"
    },
    {
      "channel": 0,
      "note": 61,
      "start": 21.1326,
      "duration": 0.1576,
      "velocity": 127,
      "chip": "ym2612"
    },
    {
      "channel": 3,
      "note": 73,
      "start": 21.1358,
      "duration": 0.0713,
      "velocity": 117,
      "chip": "ym2612"
    },
    {
      "channel": 4,
      "note": 80,
      "start": 21.244,
      "duration": 0.063,
      "velocity": 117,
      "chip": "ym2612"
    },
    {
      "channel": 2,
      "note": 76,
      "start": 21.3436,
      "duration": 0.0637,
      "velocity": 127,
      "chip": "ym2612"
    },
    {
      "channel": 1,
      "note": 80,
      "start": 21.3467,
      "duration": 0.0602,
      "velocity": 127,
      "chip": "ym2612"
    },
    {
      "channel": 3,
      "note": 83,
      "start": 21.3499,
      "duration": 0.0571,
      "velocity": 117,
      "chip": "ym2612"
    },
    {
      "channel": 5,
      "note": 76,
      "start": 21.4601,
      "duration": 0.0639,
      "velocity": 127,
      "chip": "ym2612"
    },
    {
      "channel": 0,
      "note": 80,
      "start": 21.4628,
      "duration": 0.0608,
      "velocity": 127,
      "chip": "ym2612"
    },
    {
      "channel": 4,
      "note": 61,
      "start": 21.466,
      "duration": 0.2077,
      "velocity": 127,
      "chip": "ym2612"
    },
    {
      "channel": 1,
      "note": 73,
      "start": 21.4691,
      "duration": 0.0546,
      "velocity": 117,
      "chip": "ym2612"
    },
    {
      "channel": 3,
      "note": 80,
      "start": 21.5607,
      "duration": 0.063,
      "velocity": 117,
      "chip": "ym2612"
    },
    {
      "channel": 2,
      "note": 80,
      "start": 21.6603,
      "duration": 0.0803,
      "velocity": 127,
      "chip": "ym2612"
    },
    {
      "channel": 0,
      "note": 76,
      "start": 21.663,
      "duration": 0.0772,
      "velocity": 127,
      "chip": "ym2612"
    },
    {
      "channel": 1,
      "note": 85,
      "start": 21.666,
      "duration": 0.0743,
      "velocity": 117,
      "chip": "ym2612"
    },
    {
      "channel": 3,
      "note": 73,
      "start": 21.7775,
      "duration": 0.0628,
      "velocity": 117,
      "chip": "ym2612"
    },
    {
      "channel": 5,
      "note": 76,
      "start": 21.8768,
      "duration": 0.0637,
      "velocity": 127,
      "chip": "ym2612"
    },
    {
      "channel": 4,
      "note": 80,
      "start": 21.8795,
      "duration": 0.0609,
      "velocity": 127,
      "chip": "ym2612"
    },
    {
      "channel": 0,
      "note": 61,
      "start": 21.8827,
      "duration": 0.1908,
      "velocity": 127,
      "chip": "ym2612"
    },
    {
      "channel": 1,
      "note": 83,
      "start": 21.8855,
      "duration": 0.0547,
      "velocity": 117,
      "chip": "ym2612"
    },
    {
      "channel": 3,
      "note": 85,
      "start": 21.9776,
      "duration": 0.0793,
      "velocity": 117,
      "chip": "ym2612"
    },
    {
      "channel": 4,
      "note": 80,
      "start": 22.0938,
      "duration": 0.0633,
      "velocity": 127,
      "chip": "ym2612"
    },
    {
      "channel": 5,
      "note": 76,
      "start": 22.0965,
      "duration": 0.0607,
      "velocity": 127,
      "chip": "ym2612"
    },
    {
      "channel": 2,
      "note": 76,
      "start": 22.0993,
      "duration": 0.0581,
      "velocity": 127,
      "chip": "ym2612"
    },
    {
      "channel": 1,
      "note": 73,
      "start": 22.102,
      "duration": 0.0548,
      "velocity": 127,
      "chip": "ym2612"
    },
    {
      "channel": 0,
      "note": 61,
      "start": 22.1046,
      "duration": 0.169,
      "velocity": 127,
      "chip": "ym2612"
    },
    {
      "channel": 3,
      "note": 73,
      "start": 22.1077,
      "duration": 0.0493,
      "velocity": 117,
      "chip": "ym2612"
    },
    {
      "channel": 1,
      "note": 76,
      "start": 22.31,
      "duration": 0.0637,
      "velocity": 127,
      "chip": "ym2612"
    },
    {
      "channel": 2,
      "note": 80,
      "start": 22.3128,
      "duration": 0.0612,
      "velocity": 127,
      "chip": "ym2612"
    },
    {
      "channel": 3,
      "note": 76,
      "start": 22.3158,
      "duration": 0.058,
      "velocity": 117,
      "chip": "ym2612"
    },
    {
      "channel": 4,
      "note": 73,
      "start": 22.411,
      "duration": 0.0627,
      "velocity": 117,
      "chip": "ym2612"
    },
    {
      "channel": 5,
      "note": 80,
      "start": 22.5101,
      "duration": 0.0804,
      "velocity": 127,
      "chip": "ym2612"
    },
    {
      "channel": 0,
      "note": 76,
      "start": 22.5128,
      "duration": 0.0773,
      "velocity": 127,
      "chip": "ym2612"
    },
    {
      "channel": 1,
      "note": 61,
      "start": 22.5158,
      "duration": 0.191,
      "velocity": 127,
      "chip": "ym2612"
    },
    {
      "channel": 3,
      "note": 73,
      "start": 22.5188,
      "duration": 0.0716,
      "velocity": 117,
      "chip": "ym2612"
    },
    {
      "channel": 4,
      "note": 76,
      "start": 22.6275,
      "duration": 0.0629,
      "velocity": 117,
      "chip": "ym2612"
    },
    {
      "channel": 2,
      "note": 76,
      "start": 22.727,
      "duration": 0.0635,
      "velocity": 127,
      "chip": "ym2612"
    },
    {
      "channel": 0,
      "note": 80,
      "start": 22.7301,
      "duration": 0.06,
      "velocity": 127,
      "chip": "ym2612"
    },
    {
      "channel": 3,
      "note": 83,
      "start": 22.7331,
      "duration": 0.0571,
      "velocity": 117,
      "chip": "ym2612"
    },
    {
      "channel": 5,
      "note": 80,
      "start": 22.8268,
      "duration": 0.0805,
      "velocity": 127,
      "chip": "ym2612"
    },
    {
      "channel": 4,
      "note": 76,
      "start": 22.8295,
      "duration": 0.0776,
      "velocity": 127,
      "chip": "ym2612"
    },
    {
      "channel": 1,
      "note": 61,
      "start": 22.8323,
      "duration": 0.1579,
      "velocity": 127,
      "chip": "ym2612"
    },
    {
      "channel": 0,
      "note": 73,
      "start": 22.8355,
      "duration": 0.0714,
      "velocity": 117,
      "chip": "ym2612"
    },
    {
      "channel": 3,
      "note": 80,
      "start": 22.9439,
      "duration": 0.0631,
      "velocity": 117,
      "chip": "ym2612"
    },
    {
      "channel": 2,
      "note": 76,
      "start": 23.0436,
      "duration": 0.0637,
      "velocity": 127,
      "chip": "ym2612"
    },
    {
      "channel": 0,
      "note": 80,
      "start": 23.0463,
      "duration": 0.0605,
      "velocity": 127,
      "chip": "ym2612"
    },
    {
      "channel": 4,
      "note": 83,
      "start": 23.0496,
      "duration": 0.0574,
      "velocity": 117,
      "chip": "ym2612"
    },
    {
      "channel": 5,
      "note": 76,
      "start": 23.1434,
      "duration": 0.0805,
      "velocity": 127,
      "chip": "ym2612"
    },
    {
      "channel": 1,
      "note": 80,
      "start": 23.1462,
      "duration": 0.0775,
      "velocity": 127,
      "chip": "ym2612"
    },
    {
      "channel": 3,
      "note": 61,
      "start": 23.1493,
      "duration": 0.2243,
      "velocity": 127,
      "chip": "ym2612"
    },
    {
      "channel": 0,
      "note": 73,
      "start": 23.1524,
      "duration": 0.0711,
      "velocity": 117,
      "chip": "ym2612"
    },
    {
      "channel": 4,
      "note": 80,
      "start": 23.2607,
      "duration": 0.063,
      "velocity": 117,
      "chip": "ym2612"
    },
    {
      "channel": 2,
      "note": 80,
      "start": 23.3602,
      "duration": 0.0637,
      "velocity": 127,
      "chip": "ym2612"
    },
    {
      "channel": 0,
      "note": 76,
      "start": 23.3629,
      "duration": 0.0606,
      "velocity": 127,
      "chip": "ym2612"
    },
    {
      "channel": 1,
      "note": 85,
      "start": 23.3661,
      "duration": 0.0575,
      "velocity": 117,
      "chip": "ym2612"
    },
    {
      "channel": 4,
      "note": 73,
      "start": 23.4775,
      "duration": 0.0629,
      "velocity": 117,
      "chip": "ym2612"
    },
    {
      "channel": 5,
      "note": 76,
      "start": 23.5772,
      "duration": 0.0633,
      "velocity": 127,
      "chip": "ym2612"
    },
    {
      "channel": 3,
      "note": 80,
      "start": 23.5799,
      "duration": 0.0605,
      "velocity": 127,
      "chip": "ym2612"
    },
    {
      "channel": 0,
      "note": 61,
      "start": 23.5834,
      "duration": 0.1901,
      "velocity": 127,
      "chip": "ym2612"
    },
    {
      "channel": 1,
      "note": 83,
      "start": 23.5863,
      "duration": 0.0539,
      "velocity": 117,
      "chip": "ym2612"
    },
    {
      "channel": 4,
      "note": 85,
      "start": 23.6781,
      "duration": 0.0789,
      "velocity": 117,
      "chip": "ym2612"
    },
    {
      "channel": 3,
      "note": 71,
      "start": 23.7934,
      "duration": 0.0636,
      "velocity": 127,
      "chip": "ym2612"
    },
    {
      "channel": 5,
      "note": 75,
      "start": 23.796,
      "duration": 0.0613,
      "velocity": 127,
      "chip": "ym2612"
    },
    {
      "channel": 2,
      "note": 68,
      "start": 23.7988,
      "duration": 0.0586,
      "velocity": 127,
      "chip": "ym2612"
    },
    {
      "channel": 1,
      "note": 71,
      "start": 23.8016,
      "duration": 0.0553,
      "velocity": 127,
      "chip": "ym2612"
    },
    {
      "channel": 0,
      "note": 59,
      "start": 23.8044,
      "duration": 0.1857,
      "velocity": 127,
      "chip": "ym2612"
    },
    {
      "channel": 4,
      "note": 68,
      "start": 23.8074,
      "duration": 0.0497,
      "velocity": 117,
      "chip": "ym2612"
    },
    {
      "channel": 1,
      "note": 75,
      "start": 23.9934,
      "duration": 0.0802,
      "velocity": 127,
      "chip": "ym2612"
    },
    {
      "channel": 2,
      "note": 71,
      "start": 23.9965,
      "duration": 0.0775,
      "velocity": 127,
      "chip": "ym2612"
    },
    {
      "channel": 4,
      "note": 71,
      "start": 23.9996,
      "duration": 0.0742,
      "velocity": 117,
      "chip": "ym2612"
    },
    {
      "channel": 3,
      "note": 68,
      "start": 24.111,
      "duration": 0.0628,
      "velocity": 117,
      "chip": "ym2612"
    },
    {
      "channel": 5,
      "note": 71,
      "start": 24.21,
      "duration": 0.0639,
      "velocity": 127,
      "chip": "ym2612"
    },
    {
      "channel": 0,
      "note": 75,
      "start": 24.2128,
      "duration": 0.0608,
      "velocity": 127,
      "chip": "ym2612"
    },
    {
      "channel": 1,
      "note": 56,
      "start": 24.2159,
      "duration": 0.1577,
      "velocity": 127,
      "chip": "ym2612"
    },
    {
      "channel": 4,
      "note": 68,
      "start": 24.2189,
      "duration": 0.055,
      "velocity": 117,
      "chip": "ym2612"
    },
    {
      "channel": 3,
      "note": 71,
      "start": 24.3274,
      "duration": 0.0628,
      "velocity": 117,
      "chip": "ym2612"
    },
    {
      "channel": 2,
      "note": 75,
      "start": 24.4269,
      "duration": 0.0636,
      "velocity": 127,
      "chip": "ym2612"
    },
    {
      "channel": 0,
      "note": 71,
      "start": 24.4296,
      "duration": 0.0606,
      "velocity": 127,
      "chip": "ym2612"
    },
    {
      "channel": 4,
      "note": 78,
      "start": 24.4331,
      "duration": 0.0572,
      "velocity": 117,
      "chip": "ym2612"
    },
    {
      "channel": 5,
      "note": 71,
      "start": 24.5268,
      "duration": 0.0804,
      "velocity": 127,
      "chip": "ym2612"
    },
    {
      "channel": 1,
      "note": 75,
      "start": 24.5295,
      "duration": 0.0774,
      "velocity": 127,
      "chip": "ym2612"
    },
    {
      "channel": 3,
      "note": 56,
      "start": 24.5324,
      "duration": 0.1578,
      "velocity": 127,
      "chip": "ym2612"
    },
    {
      "channel": 0,
      "note": 68,
      "start": 24.5356,
      "duration": 0.0712,
      "velocity": 117,
      "chip": "ym2612"
    },
    {
      "channel": 4,
      "note": 75,
      "start": 24.6439,
      "duration": 0.0631,
      "velocity": 117,
      "chip": "ym2612"
    },
    {
      "channel": 2,
      "note": 75,
      "start": 24.7436,
      "duration": 0.0637,
      "velocity": 127,
      "chip": "ym2612"
    },
    {
      "channel": 0,
      "note": 71,
      "start": 24.7463,
      "duration": 0.0606,
      "velocity": 127,
      "chip": "ym2612"
    },
    {
      "channel": 1,
      "note": 78,
      "start": 24.7496,
      "duration": 0.0574,
      "velocity": 117,
      "chip": "ym2612"
    },
    {
      "channel": 5,
      "note": 75,
      "start": 24.8439,
      "duration": 0.0801,
      "velocity": 127,
      "chip": "ym2612"
    },
    {
      "channel": 3,
      "note": 71,
      "start": 24.8466,
      "duration": 0.0772,
      "velocity": 127,
      "chip": "ym2612"
    },
    {
      "channel": 4,
      "note": 56,
      "start": 24.8498,
      "duration": 0.1905,
      "velocity": 127,
      "chip": "ym2612"
    },
    {
      "channel": 0,
      "note": 68,
      "start": 24.8528,
      "duration": 0.0707,
      "velocity": 117,
      "chip": "ym2612"
    },
    {
      "channel": 1,
      "note": 75,
      "start": 24.9607,
      "duration": 0.063,
      "velocity": 117,
      "chip": "ym2612"
    },
    {
      "channel": 2,
      "note": 71,
      "start": 25.0602,
      "duration": 0.0638,
      "velocity": 127,
      "chip": "ym2612"
    },
    {
      "channel": 0,
      "note": 75,
      "start": 25.0629,
      "duration": 0.0606,
      "velocity": 127,
      "chip": "ym2612"
    },
    {
      "channel": 3,
      "note": 80,
      "start": 25.0661,
      "duration": 0.0576,
      "velocity": 117,
      "chip": "ym2612"
    },
    {
      "channel": 1,
      "note": 68,
      "start": 25.1773,
      "duration": 0.0629,
      "velocity": 117,
      "chip": "ym2612"
    },
    {
      "channel": 5,
      "note": 75,
      "start": 25.2768,
      "duration": 0.0636,
      "velocity": 127,
      "chip": "ym2612"
    },
    {
      "channel": 4,
      "note": 71,
      "start": 25.2795,
      "duration": 0.0608,
      "velocity": 127,
      "chip": "ym2612"
    },
    {
      "channel": 0,
      "note": 56,
      "start": 25.2825,
      "duration": 0.191,
      "velocity": 127,
      "chip": "ym2612"
    },
    {
      "channel": 3,
      "note": 78,
      "start": 25.2855,
      "duration": 0.0547,
      "velocity": 117,
      "chip": "ym2612"
    },
    {
      "channel": 1,
      "note": 80,
      "start": 25.3775,
      "duration": 0.0794,
      "velocity": 117,
      "chip": "ym2612"
    },
    {
      "channel": 4,
      "note": 71,
      "start": 25.4934,
      "duration": 0.0637,
      "velocity": 127,
      "chip": "ym2612"
    },
    {
      "channel": 5,
      "note": 75,
      "start": 25.496,
      "duration": 0.0613,
      "velocity": 127,
      "chip": "ym2612"
    },
    {
      "channel": 2,
      "note": 68,
      "start": 25.4989,
      "duration": 0.0586,
      "velocity": 127,
      "chip": "ym2612"
    },
    {
      "channel": 3,
      "note": 71,
      "start": 25.502,
      "duration": 0.055,
      "velocity": 127,
      "chip": "ym2612"
    },
    {
      "channel": 0,
      "note": 56,
      "start": 25.505,
      "duration": 0.1685,
      "velocity": 127,
      "chip": "ym2612"
    },
    {
      "channel": 1,
      "note": 68,
      "start": 25.508,
      "duration": 0.0489,
      "velocity": 117,
      "chip": "ym2612"
    },
    {
      "channel": 3,
      "note": 75,
      "start": 25.6934,
      "duration": 0.0805,
      "velocity": 127,
      "chip": "ym2612"
    },
    {
      "channel": 2,
      "note": 71,
      "start": 25.696,
      "duration": 0.078,
      "velocity": 127,
      "chip": "ym2612"
    },
    {
      "channel": 1,
      "note": 71,
      "start": 25.6991,
      "duration": 0.0746,
      "velocity": 117,
      "chip": "ym2612"
    },
    {
      "channel": 4,
      "note": 68,
      "start": 25.811,
      "duration": 0.0627,
      "velocity": 117,
      "chip": "ym2612"
    },
    {
      "channel": 5,
      "note": 71,
      "start": 25.9101,
      "duration": 0.0639,
      "velocity": 127,
      "chip": "ym2612"
    },
    {
      "channel": 0,
      "note": 75,
      "start": 25.9128,
      "duration": 0.0607,
      "velocity": 127,
      "chip": "ym2612"
    },
    {
      "channel": 1,
      "note": 56,
      "start": 25.9158,
      "duration": 0.1911,
      "velocity": 127,
      "chip": "ym2612"
    },
    {
      "channel": 3,
      "note": 68,
      "start": 25.9189,
      "duration": 0.0549,
      "velocity": 117,
      "chip": "ym2612"
    },
    {
      "channel": 4,
      "note": 71,
      "start": 26.0275,
      "duration": 0.0628,
      "velocity": 117,
      "chip": "ym2612"
    },
    {
      "channel": 2,
      "note": 75,
      "start": 26.1269,
      "duration": 0.0637,
      "velocity": 127,
      "chip": "ym2612"
    },
    {
      "channel": 0,
      "note": 71,
      "start": 26.1296,
      "duration": 0.0606,
      "velocity": 127,
      "chip": "ym2612"
    },
    {
      "channel": 3,
      "note": 78,
      "start": 26.1327,
      "duration": 0.0576,
      "velocity": 117,
      "chip": "ym2612"
    },
    {
      "channel": 5,
      "note": 71,
      "start": 26.2272,
      "duration": 0.08,
      "velocity": 127,
      "chip": "ym2612"
    },
    {
      "channel": 4,
      "note": 75,
      "start": 26.2299,
      "duration": 0.0772,
      "velocity": 127,
      "chip": "ym2612"
    },
    {
      "channel": 1,
      "note": 56,
      "start": 26.2327,
      "duration": 0.1574,
      "velocity": 127,
      "chip": "ym2612"
    },
    {
      "channel": 0,
      "note": 68,
      "start": 26.2359,
      "duration": 0.071,
      "velocity": 117,
      "chip": "ym2612"
    },
    {
      "channel": 3,
      "note": 75,
      "start": 26.3439,
      "duration": 0.0631,
      "velocity": 117,
      "chip": "ym2612"
    },
    {
      "channel": 2,
      "note": 75,
      "start": 26.4436,
      "duration": 0.0637,
      "velocity": 127,
      "chip": "ym2612"
    },
    {
      "channel": 0,
      "note": 71,
      "start": 26.4463,
      "duration": 0.0605,
      "velocity": 127,
      "chip": "ym2612"
    },
    {
      "channel": 4,
      "note": 78,
      "start": 26.4496,
      "duration": 0.0574,
      "velocity": 117,
      "chip": "ym2612"
    },
    {
      "channel": 5,
      "note": 75,
      "start": 26.5434,
      "duration": 0.0805,
      "velocity": 127,
      "chip": "ym2612"
    },
    {
      "channel": 1,
      "note": 71,
      "start": 26.5462,
      "duration": 0.0775,
      "velocity": 127,
      "chip": "ym2612"
    },
    {
      "channel": 3,
      "note": 56,
      "start": 26.5493,
      "duration": 0.2243,
      "velocity": 127,
      "chip": "ym2612"
    },
    {
      "channel": 0,
      "note": 68,
      "start": 26.5524,
      "duration": 0.0711,
      "velocity": 117,
      "chip": "ym2612"
    },
    {
      "channel": 4,
      "note": 75,
      "start": 26.6611,
      "duration": 0.0627,
      "velocity": 117,
      "chip": "ym2612"
    },
    {
      "channel": 2,
      "note": 71,
      "start": 26.7603,
      "duration": 0.0637,
      "velocity": 127,
      "chip": "ym2612"
    },
    {
      "channel": 0,
      "note": 75,
      "start": 26.7635,
      "duration": 0.0601,
      "velocity": 127,
      "chip": "ym2612"
    },
    {
      "channel": 1,
      "note": 80,
      "start": 26.7667,
      "duration": 0.057,
      "velocity": 117,
      "chip": "ym2612"
    },
    {
      "channel": 4,
      "note": 68,
      "start": 26.8775,
      "duration": 0.0627,
      "velocity": 117,
      "chip": "ym2612"
    },
    {
      "channel": 5,
      "note": 75,
      "start": 26.9769,
      "duration": 0.0636,
      "velocity": 127,
      "chip": "ym2612"
    },
    {
      "channel": 3,
      "note": 71,
      "start": 26.9795,
      "duration": 0.0608,
      "velocity": 127,
      "chip": "ym2612"
    },
    {
      "channel": 0,
      "note": 56,
      "start": 26.9827,
      "duration": 0.1908,
      "velocity": 127,
      "chip": "ym2612"
    },
    {
      "channel": 1,
      "note": 78,
      "start": 26.9859,
      "duration": 0.0543,
      "velocity": 117,
      "chip": "ym2612"
    },
    {
      "channel": 4,
      "note": 80,
      "start": 27.0777,
      "duration": 0.0793,
      "velocity": 117,
      "chip": "ym2612"
    },
    {
      "channel": 2,
      "note": 50,
      "start": 27.1934,
      "duration": 0.047,
      "velocity": 107,
      "chip": "ym2612"
    },
    {
      "channel": 0,
      "note": 61,
      "start": 27.1964,
      "duration": 0.1937,
      "velocity": 127,
      "chip": "ym2612"
    },
    {
      "channel": 3,
      "note": 61,
      "start": 27.3934,
      "duration": 0.2136,
      "velocity": 127,
      "chip": "ym2612"
    },
    {
      "channel": 2,
      "note": 50,
      "start": 27.6099,
      "duration": 0.0471,
      "velocity": 107,
      "chip": "ym2612"
    },
    {
      "channel": 0,
      "note": 61,
      "start": 27.6133,
      "duration": 0.1769,
      "velocity": 127,
      "chip": "ym2612"
    },
    {
      "channel": 3,
      "note": 61,
      "start": 27.8269,
      "duration": 0.1801,
      "velocity": 127,
      "chip": "ym2612"
    },
    {
      "channel": 0,
      "note": 61,
      "start": 27.9269,
      "duration": 0.1633,
      "velocity": 127,
      "chip": "ym2612"
    },
    {
      "channel": 2,
      "note": 50,
      "start": 28.0432,
      "duration": 0.0473,
      "velocity": 107,
      "chip": "ym2612"
    },
    {
      "channel": 3,
      "note": 61,
      "start": 28.1437,
      "duration": 0.1632,
      "velocity": 127,
      "chip": "ym2612"
    },
    {
      "channel": 0,
      "note": 61,
      "start": 28.2436,
      "duration": 0.2132,
      "velocity": 127,
      "chip": "ym2612"
    },
    {
      "channel": 2,
      "note": 50,
      "start": 28.4599,
      "duration": 0.0472,
      "velocity": 107,
      "chip": "ym2612"
    },
    {
      "channel": 3,
      "note": 61,
      "start": 28.4628,
      "duration": 0.211,
      "velocity": 127,
      "chip": "ym2612"
    },
    {
      "channel": 0,
      "note": 61,
      "start": 28.6772,
      "duration": 0.1796,
      "velocity": 127,
      "chip": "ym2612"
    },
    {
      "channel": 2,
      "note": 50,
      "start": 28.8932,
      "duration": 0.0471,
      "velocity": 107,
      "chip": "ym2612"
    },
    {
      "channel": 3,
      "note": 61,
      "start": 28.896,
      "duration": 0.1609,
      "velocity": 127,
      "chip": "ym2612"
    },
    {
      "channel": 0,
      "note": 61,
      "start": 28.899,
      "duration": 0.1913,
      "velocity": 127,
      "chip": "ym2612"
    },
    {
      "channel": 3,
      "note": 61,
      "start": 29.0936,
      "duration": 0.2133,
      "velocity": 127,
      "chip": "ym2612"
    },
    {
      "channel": 2,
      "note": 50,
      "start": 29.3099,
      "duration": 0.0472,
      "velocity": 107,
      "chip": "ym2612"
    },
    {
      "channel": 0,
      "note": 61,
      "start": 29.3129,
      "duration": 0.1773,
      "velocity": 127,
      "chip": "ym2612"
    },
    {
      "channel": 3,
      "note": 61,
      "start": 29.5269,
      "duration": 0.18,
      "velocity": 127,
      "chip": "ym2612"
    },
    {
      "channel": 0,
      "note": 61,
      "start": 29.6273,
      "duration": 0.1629,
      "velocity": 127,
      "chip": "ym2612"
    },
    {
      "channel": 2,
      "note": 50,
      "start": 29.7432,
      "duration": 0.0473,
      "velocity": 107,
      "chip": "ym2612"
    },
    {
      "channel": 3,
      "note": 61,
      "start": 29.8433,
      "duration": 0.1636,
      "velocity": 127,
      "chip": "ym2612"
    },
    {
      "channel": 0,
      "note": 61,
      "start": 29.9436,
      "duration": 0.2132,
      "velocity": 127,
      "chip": "ym2612"
    },
    {
      "channel": 2,
      "note": 50,
      "start": 30.1599,
      "duration": 0.0471,
      "velocity": 107,
      "chip": "ym2612"
    },
    {
      "channel": 3,
      "note": 61,
      "start": 30.1632,
      "duration": 0.2106,
      "velocity": 127,
      "chip": "ym2612"
    },
    {
      "channel": 0,
      "note": 61,
      "start": 30.3772,
      "duration": 0.1797,
      "velocity": 127,
      "chip": "ym2612"
    },
    {
      "channel": 2,
      "note": 50,
      "start": 30.5931,
      "duration": 0.0473,
      "velocity": 107,
      "chip": "ym2612"
    },
    {
      "channel": 3,
      "note": 61,
      "start": 30.596,
      "duration": 0.161,
      "velocity": 127,
      "chip": "ym2612"
    },
    {
      "channel": 0,
      "note": 56,
      "start": 30.5989,
      "duration": 0.1912,
      "velocity": 127,
      "chip": "ym2612"
    },
    {
      "channel": 3,
      "note": 56,
      "start": 30.7935,
      "duration": 0.2134,
      "velocity": 127,
      "chip": "ym2612"
    },
    {
      "channel": 2,
      "note": 50,
      "start": 31.0099,
      "duration": 0.0471,
      "velocity": 107,
      "chip": "ym2612"
    },
    {
      "channel": 0,
      "note": 56,
      "start": 31.0129,
      "duration": 0.1773,
      "velocity": 127,
      "chip": "ym2612"
    },
    {
      "channel": 3,
      "note": 56,
      "start": 31.2268,
      "duration": 0.1634,
      "velocity": 127,
      "chip": "ym2612"
    },
    {
      "channel": 0,
      "note": 56,
      "start": 31.3269,
      "duration": 0.1633,
      "velocity": 127,
      "chip": "ym2612"
    },
    {
      "channel": 2,
      "note": 50,
      "start": 31.4432,
      "duration": 0.0473,
      "velocity": 107,
      "chip": "ym2612"
    },
    {
      "channel": 3,
      "note": 56,
      "start": 31.5434,
      "duration": 0.1636,
      "velocity": 127,
      "chip": "ym2612"
    },
    {
      "channel": 0,
      "note": 56,
      "start": 31.644,
      "duration": 0.2129,
      "velocity": 127,
      "chip": "ym2612"
    },
    {
      "channel": 2,
      "note": 50,
      "start": 31.86,
      "duration": 0.0471,
      "velocity": 107,
      "chip": "ym2612"
    },
    {
      "channel": 3,
      "note": 56,
      "start": 31.8632,
      "duration": 0.2105,
      "velocity": 127,
      "chip": "ym2612"
    },
    {
      "channel": 0,
      "note": 56,
      "start": 32.0771,
      "duration": 0.163,
      "velocity": 127,
      "chip": "ym2612"
    },
    {
      "channel": 2,
      "note": 50,
      "start": 32.2932,
      "duration": 0.0473,
      "velocity": 107,
      "chip": "ym2612"
    },
    {
      "channel": 3,
      "note": 56,
      "start": 32.296,
      "duration": 0.161,
      "velocity": 127,
      "chip": "ym2612"
    },
    {
      "channel": 0,
      "note": 59,
      "start": 32.2989,
      "duration": 0.1912,
      "velocity": 127,
      "chip": "ym2612"
    },
    {
      "channel": 3,
      "note": 59,
      "start": 32.4936,
      "duration": 0.2134,
      "velocity": 127,
      "chip": "ym2612"
    },
    {
      "channel": 2,
      "note": 50,
      "start": 32.7103,
      "duration": 0.0468,
      "velocity": 107,
      "chip": "ym2612"
    },
    {
      "channel": 0,
      "note": 56,
      "start": 32.7133,
      "duration": 0.1768,
      "velocity": 127,
      "chip": "ym2612"
    },
    {
      "channel": 3,
      "note": 56,
      "start": 32.9268,
      "duration": 0.1634,
      "velocity": 127,
      "chip": "ym2612"
    },
    {
      "channel": 0,
      "note": 56,
      "start": 33.0269,
      "duration": 0.1467,
      "velocity": 127,
      "chip": "ym2612"
    },
    {
      "channel": 2,
      "note": 50,
      "start": 33.1431,
      "duration": 0.0473,
      "velocity": 107,
      "chip": "ym2612"
    },
    {
      "channel": 3,
      "note": 56,
      "start": 33.2434,
      "duration": 0.1303,
      "velocity": 127,
      "chip": "ym2612"
    },
    {
      "channel": 0,
      "note": 56,
      "start": 33.3436,
      "duration": 0.2133,
      "velocity": 127,
      "chip": "ym2612"
    },
    {
      "channel": 2,
      "note": 50,
      "start": 33.56,
      "duration": 0.0471,
      "velocity": 107,
      "chip": "ym2612"
    },
    {
      "channel": 3,
      "note": 56,
      "start": 33.5628,
      "duration": 0.2109,
      "velocity": 127,
      "chip": "ym2612"
    },
    {
      "channel": 0,
      "note": 56,
      "start": 33.7775,
      "duration": 0.1962,
      "velocity": 127,
      "chip": "ym2612"
    },
    {
      "channel": 2,
      "note": 50,
      "start": 33.9932,
      "duration": 0.0471,
      "velocity": 107,
      "chip": "ym2612"
    },
    {
      "channel": 0,
      "note": 61,
      "start": 33.9962,
      "duration": 0.194,
      "velocity": 127,
      "chip": "ym2612"
    },
    {
      "channel": 1,
      "note": 73,
      "start": 33.9993,
      "duration": 0.0577,
      "velocity": 104,
      "chip": "ym2612"
    },
    {
      "channel": 3,
      "note": 61,
      "start": 34.194,
      "duration": 0.213,
      "velocity": 127,
      "chip": "ym2612"
    },
    {
      "channel": 1,
      "note": 76,
      "start": 34.1969,
      "duration": 0.0767,
      "velocity": 104,
      "chip": "ym2612"
    },
    {
      "channel": 2,
      "note": 50,
      "start": 34.41,
      "duration": 0.0471,
      "velocity": 107,
      "chip": "ym2612"
    },
    {
      "channel": 0,
      "note": 61,
      "start": 34.413,
      "duration": 0.1771,
      "velocity": 127,
      "chip": "ym2612"
    },
    {
      "channel": 1,
      "note": 73,
      "start": 34.416,
      "duration": 0.0576,
      "velocity": 104,
      "chip": "ym2612"
    },
    {
      "channel": 3,
      "note": 61,
      "start": 34.6268,
      "duration": 0.1634,
      "velocity": 127,
      "chip": "ym2612"
    },
    {
      "channel": 1,
      "note": 83,
      "start": 34.6297,
      "duration": 0.0604,
      "velocity": 104,
      "chip": "ym2612"
    },
    {
      "channel": 0,
      "note": 61,
      "start": 34.7268,
      "duration": 0.1633,
      "velocity": 127,
      "chip": "ym2612"
    },
    {
      "channel": 4,
      "note": 73,
      "start": 34.7299,
      "duration": 0.0604,
      "velocity": 104,
      "chip": "ym2612"
    },
    {
      "channel": 2,
      "note": 50,
      "start": 34.8432,
      "duration": 0.0473,
      "velocity": 107,
      "chip": "ym2612"
    },
    {
      "channel": 1,
      "note": 80,
      "start": 34.8462,
      "duration": 0.0607,
      "velocity": 104,
      "chip": "ym2612"
    },
    {
      "channel": 3,
      "note": 61,
      "start": 34.9433,
      "duration": 0.1637,
      "velocity": 127,
      "chip": "ym2612"
    },
    {
      "channel": 4,
      "note": 76,
      "start": 34.9463,
      "duration": 0.0606,
      "velocity": 104,
      "chip": "ym2612"
    },
    {
      "channel": 0,
      "note": 61,
      "start": 35.0437,
      "duration": 0.2132,
      "velocity": 127,
      "chip": "ym2612"
    },
    {
      "channel": 1,
      "note": 73,
      "start": 35.0463,
      "duration": 0.0773,
      "velocity": 104,
      "chip": "ym2612"
    },
    {
      "channel": 4,
      "note": 73,
      "start": 35.1605,
      "duration": 0.0632,
      "velocity": 104,
      "chip": "ym2612"
    },
    {
      "channel": 2,
      "note": 50,
      "start": 35.26,
      "duration": 0.0471,
      "velocity": 107,
      "chip": "ym2612"
    },
    {
      "channel": 3,
      "note": 61,
      "start": 35.2628,
      "duration": 0.2109,
      "velocity": 127,
      "chip": "ym2612"
    },
    {
      "channel": 1,
      "note": 85,
      "start": 35.2656,
      "duration": 0.058,
      "velocity": 104,
      "chip": "ym2612"
    },
    {
      "channel": 4,
      "note": 83,
      "start": 35.3605,
      "duration": 0.0798,
      "velocity": 104,
      "chip": "ym2612"
    },
    {
      "channel": 0,
      "note": 61,
      "start": 35.4775,
      "duration": 0.1627,
      "velocity": 127,
      "chip": "ym2612"
    },
    {
      "channel": 1,
      "note": 83,
      "start": 35.4801,
      "duration": 0.0601,
      "velocity": 104,
      "chip": "ym2612"
    },
    {
      "channel": 4,
      "note": 80,
      "start": 35.5772,
      "duration": 0.0632,
      "velocity": 104,
      "chip": "ym2612"
    },
    {
      "channel": 2,
      "note": 50,
      "start": 35.6932,
      "duration": 0.0472,
      "velocity": 107,
      "chip": "ym2612"
    },
    {
      "channel": 3,
      "note": 61,
      "start": 35.696,
      "duration": 0.1609,
      "velocity": 127,
      "chip": "ym2612"
    },
    {
      "channel": 0,
      "note": 61,
      "start": 35.699,
      "duration": 0.1912,
      "velocity": 127,
      "chip": "ym2612"
    },
    {
      "channel": 1,
      "note": 73,
      "start": 35.7016,
      "duration": 0.0554,
      "velocity": 104,
      "chip": "ym2612"
    },
    {
      "channel": 4,
      "note": 73,
      "start": 35.7938,
      "duration": 0.0632,
      "velocity": 104,
      "chip": "ym2612"
    },
    {
      "channel": 3,
      "note": 61,
      "start": 35.8936,
      "duration": 0.2134,
      "velocity": 127,
      "chip": "ym2612"
    },
    {
      "channel": 1,
      "note": 76,
      "start": 35.8964,
      "duration": 0.0772,
      "velocity": 104,
      "chip": "ym2612"
    },
    {
      "channel": 4,
      "note": 85,
      "start": 36.0107,
      "duration": 0.063,
      "velocity": 104,
      "chip": "ym2612"
    },
    {
      "channel": 2,
      "note": 50,
      "start": 36.11,
      "duration": 0.0471,
      "velocity": 107,
      "chip": "ym2612"
    },
    {
      "channel": 0,
      "note": 61,
      "start": 36.113,
      "duration": 0.1771,
      "velocity": 127,
      "chip": "ym2612"
    },
    {
      "channel": 1,
      "note": 73,
      "start": 36.1157,
      "duration": 0.0579,
      "velocity": 104,
      "chip": "ym2612"
    },
    {
      "channel": 3,
      "note": 61,
      "start": 36.3272,
      "duration": 0.163,
      "velocity": 127,
      "chip": "ym2612"
    },
    {
      "channel": 1,
      "note": 83,
      "start": 36.3301,
      "duration": 0.0602,
      "velocity": 104,
      "chip": "ym2612"
    },
    {
      "channel": 0,
      "note": 61,
      "start": 36.4269,
      "duration": 0.1633,
      "velocity": 127,
      "chip": "ym2612"
    },
    {
      "channel": 4,
      "note": 73,
      "start": 36.4299,
      "duration": 0.0604,
      "velocity": 104,
      "chip": "ym2612"
    },
    {
      "channel": 2,
      "note": 50,
      "start": 36.5432,
      "duration": 0.0473,
      "velocity": 107,
      "chip": "ym2612"
    },
    {
      "channel": 1,
      "note": 80,
      "start": 36.5462,
      "duration": 0.0607,
      "velocity": 104,
      "chip": "ym2612"
    },
    {
      "channel": 3,
      "note": 61,
      "start": 36.6432,
      "duration": 0.1469,
      "velocity": 127,
      "chip": "ym2612"
    },
    {
      "channel": 4,
      "note": 76,
      "start": 36.6463,
      "duration": 0.0607,
      "velocity": 104,
      "chip": "ym2612"
    },
    {
      "channel": 0,
      "note": 61,
      "start": 36.7437,
      "duration": 0.2132,
      "velocity": 127,
      "chip": "ym2612"
    },
    {
      "channel": 1,
      "note": 73,
      "start": 36.7463,
      "duration": 0.0774,
      "velocity": 104,
      "chip": "ym2612"
    },
    {
      "channel": 4,
      "note": 73,
      "start": 36.8609,
      "duration": 0.0628,
      "velocity": 104,
      "chip": "ym2612"
    },
    {
      "channel": 2,
      "note": 50,
      "start": 36.96,
      "duration": 0.0471,
      "velocity": 107,
      "chip": "ym2612"
    },
    {
      "channel": 3,
      "note": 61,
      "start": 36.9628,
      "duration": 0.2108,
      "velocity": 127,
      "chip": "ym2612"
    },
    {
      "channel": 1,
      "note": 85,
      "start": 36.9657,
      "duration": 0.0579,
      "velocity": 104,
      "chip": "ym2612"
    },
    {
      "channel": 4,
      "note": 83,
      "start": 37.0605,
      "duration": 0.0798,
      "velocity": 104,
      "chip": "ym2612"
    },
    {
      "channel": 0,
      "note": 61,
      "start": 37.1771,
      "duration": 0.1631,
      "velocity": 127,
      "chip": "ym2612"
    },
    {
      "channel": 1,
      "note": 83,
      "start": 37.1798,
      "duration": 0.0605,
      "velocity": 104,
      "chip": "ym2612"
    },
    {
      "channel": 4,
      "note": 80,
      "start": 37.2772,
      "duration": 0.0632,
      "velocity": 104,
      "chip": "ym2612"
    },
    {
      "channel": 2,
      "note": 50,
      "start": 37.3932,
      "duration": 0.0473,
      "velocity": 107,
      "chip": "ym2612"
    },
    {
      "channel": 3,
      "note": 61,
      "start": 37.396,
      "duration": 0.1609,
      "velocity": 127,
      "chip": "ym2612"
    },
    {
      "channel": 0,
      "note": 56,
      "start": 37.3993,
      "duration": 0.1908,
      "velocity": 127,
      "chip": "ym2612"
    },
    {
      "channel": 1,
      "note": 68,
      "start": 37.4019,
      "duration": 0.055,
      "velocity": 104,
      "chip": "ym2612"
    },
    {
      "channel": 4,
      "note": 73,
      "start": 37.4938,
      "duration": 0.0632,
      "velocity": 104,
      "chip": "ym2612"
    },
    {
      "channel": 3,
      "note": 56,
      "start": 37.5935,
      "duration": 0.2134,
      "velocity": 127,
      "chip": "ym2612"
    },
    {
      "channel": 1,
      "note": 71,
      "start": 37.5964,
      "duration": 0.0772,
      "velocity": 104,
      "chip": "ym2612"
    },
    {
      "channel": 4,
      "note": 85,
      "start": 37.7107,
      "duration": 0.063,
      "velocity": 104,
      "chip": "ym2612"
    },
    {
      "channel": 2,
      "note": 50,
      "start": 37.8099,
      "duration": 0.0472,
      "velocity": 107,
      "chip": "ym2612"
    },
    {
      "channel": 0,
      "note": 56,
      "start": 37.8129,
      "duration": 0.1772,
      "velocity": 127,
      "chip": "ym2612"
    },
    {
      "channel": 1,
      "note": 68,
      "start": 37.8159,
      "duration": 0.0576,
      "velocity": 104,
      "chip": "ym2612"
    },
    {
      "channel": 3,
      "note": 56,
      "start": 38.0269,
      "duration": 0.1634,
      "velocity": 127,
      "chip": "ym2612"
    },
    {
      "channel": 1,
      "note": 78,
      "start": 38.0298,
      "duration": 0.0605,
      "velocity": 104,
      "chip": "ym2612"
    },
    {
      "channel": 0,
      "note": 56,
      "start": 38.1269,
      "duration": 0.1634,
      "velocity": 127,
      "chip": "ym2612"
    },
    {
      "channel": 4,
      "note": 68,
      "start": 38.1299,
      "duration": 0.0604,
      "velocity": 104,
      "chip": "ym2612"
    },
    {
      "channel": 2,
      "note": 50,
      "start": 38.2432,
      "duration": 0.0474,
      "velocity": 107,
      "chip": "ym2612"
    },
    {
      "channel": 1,
      "note": 75,
      "start": 38.2461,
      "duration": 0.0609,
      "velocity": 104,
      "chip": "ym2612"
    },
    {
      "channel": 3,
      "note": 56,
      "start": 38.3436,
      "duration": 0.1466,
      "velocity": 127,
      "chip": "ym2612"
    },
    {
      "channel": 4,
      "note": 71,
      "start": 38.3467,
      "duration": 0.0602,
      "velocity": 104,
      "chip": "ym2612"
    },
    {
      "channel": 0,
      "note": 56,
      "start": 38.4437,
      "duration": 0.2132,
      "velocity": 127,
      "chip": "ym2612"
    },
    {
      "channel": 1,
      "note": 68,
      "start": 38.4463,
      "duration": 0.0774,
      "velocity": 104,
      "chip": "ym2612"
    },
    {
      "channel": 4,
      "note": 68,
      "start": 38.5605,
      "duration": 0.0632,
      "velocity": 104,
      "chip": "ym2612"
    },
    {
      "channel": 2,
      "note": 50,
      "start": 38.66,
      "duration": 0.0471,
      "velocity": 107,
      "chip": "ym2612"
    },
    {
      "channel": 3,
      "note": 56,
      "start": 38.6628,
      "duration": 0.2109,
      "velocity": 127,
      "chip": "ym2612"
    },
    {
      "channel": 1,
      "note": 80,
      "start": 38.6656,
      "duration": 0.058,
      "velocity": 104,
      "chip": "ym2612"
    },
    {
      "channel": 4,
      "note": 78,
      "start": 38.7605,
      "duration": 0.0798,
      "velocity": 104,
      "chip": "ym2612"
    },
    {
      "channel": 0,
      "note": 56,
      "start": 38.8771,
      "duration": 0.163,
      "velocity": 127,
      "chip": "ym2612"
    },
    {
      "channel": 1,
      "note": 78,
      "start": 38.8798,
      "duration": 0.0605,
      "velocity": 104,
      "chip": "ym2612"
    },
    {
      "channel": 4,
      "note": 75,
      "start": 38.9773,
      "duration": 0.0631,
      "velocity": 104,
      "chip": "ym2612"
    },
    {
      "channel": 2,
      "note": 50,
      "start": 39.0932,
      "duration": 0.0472,
      "velocity": 107,
      "chip": "ym2612"
    },
    {
      "channel": 3,
      "note": 56,
      "start": 39.096,
      "duration": 0.1609,
      "velocity": 127,
      "chip": "ym2612"
    },
    {
      "channel": 0,
      "note": 59,
      "start": 39.099,
      "duration": 0.1912,
      "velocity": 127,
      "chip": "ym2612"
    },
    {
      "channel": 1,
      "note": 68,
      "start": 39.1016,
      "duration": 0.0554,
      "velocity": 104,
      "chip": "ym2612"
    },
    {
      "channel": 4,
      "note": 68,
      "start": 39.1938,
      "duration": 0.0632,
      "velocity": 104,
      "chip": "ym2612"
    },
    {
      "channel": 3,
      "note": 59,
      "start": 39.2936,
      "duration": 0.2134,
      "velocity": 127,
      "chip": "ym2612"
    },
    {
      "channel": 1,
      "note": 71,
      "start": 39.2964,
      "duration": 0.0772,
      "velocity": 104,
      "chip": "ym2612"
    },
    {
      "channel": 4,
      "note": 80,
      "start": 39.4107,
      "duration": 0.0631,
      "velocity": 104,
      "chip": "ym2612"
    },
    {
      "channel": 2,
      "note": 50,
      "start": 39.5103,
      "duration": 0.0468,
      "velocity": 107,
      "chip": "ym2612"
    },
    {
      "channel": 0,
      "note": 56,
      "start": 39.5137,
      "duration": 0.1765,
      "velocity": 127,
      "chip": "ym2612"
    },
    {
      "channel": 1,
      "note": 68,
      "start": 39.5163,
      "duration": 0.0573,
      "velocity": 104,
      "chip": "ym2612"
    },
    {
      "channel": 3,
      "note": 56,
      "start": 39.7269,
      "duration": 0.1634,
      "velocity": 127,
      "chip": "ym2612"
    },
    {
      "channel": 1,
      "note": 78,
      "start": 39.7298,
      "duration": 0.0604,
      "velocity": 104,
      "chip": "ym2612"
    },
    {
      "channel": 0,
      "note": 56,
      "start": 39.8269,
      "duration": 0.1467,
      "velocity": 127,
      "chip": "ym2612"
    },
    {
      "channel": 4,
      "note": 68,
      "start": 39.8302,
      "duration": 0.0602,
      "velocity": 104,
      "chip": "ym2612"
    },
    {
      "channel": 2,
      "note": 50,
      "start": 39.9266,
      "duration": 0.0638,
      "velocity": 107,
      "chip": "ym2612"
    },
    {
      "channel": 1,
      "note": 75,
      "start": 39.9295,
      "duration": 0.0774,
      "velocity": 104,
      "chip": "ym2612"
    },
    {
      "channel": 3,
      "note": 56,
      "start": 40.0432,
      "duration": 0.1304,
      "velocity": 127,
      "chip": "ym2612"
    },
    {
      "channel": 4,
      "note": 71,
      "start": 40.0463,
      "duration": 0.0606,
      "velocity": 104,
      "chip": "ym2612"
    },
    {
      "channel": 0,
      "note": 56,
      "start": 40.1437,
      "duration": 0.2132,
      "velocity": 127,
      "chip": "ym2612"
    },
    {
      "channel": 1,
      "note": 68,
      "start": 40.1463,
      "duration": 0.0606,
      "velocity": 104,
      "chip": "ym2612"
    },
    {
      "channel": 4,
      "note": 68,
      "start": 40.2605,
      "duration": 0.0632,
      "velocity": 104,
      "chip": "ym2612"
    },
    {
      "channel": 2,
      "note": 50,
      "start": 40.36,
      "duration": 0.0471,
      "velocity": 107,
      "chip": "ym2612"
    },
    {
      "channel": 3,
      "note": 56,
      "start": 40.3632,
      "duration": 0.2105,
      "velocity": 127,
      "chip": "ym2612"
    },
    {
      "channel": 1,
      "note": 80,
      "start": 40.366,
      "duration": 0.0576,
      "velocity": 104,
      "chip": "ym2612"
    },
    {
      "channel": 4,
      "note": 78,
      "start": 40.4604,
      "duration": 0.0799,
      "velocity": 104,
      "chip": "ym2612"
    },
    {
      "channel": 0,
      "note": 56,
      "start": 40.5771,
      "duration": 0.1798,
      "velocity": 127,
      "chip": "ym2612"
    },
    {
      "channel": 1,
      "note": 78,
      "start": 40.5798,
      "duration": 0.0605,
      "velocity": 104,
      "chip": "ym2612"
    },
    {
      "channel": 4,
      "note": 75,
      "start": 40.6775,
      "duration": 0.0629,
      "velocity": 104,
      "chip": "ym2612"
    },
    {
      "channel": 2,
      "note": 50,
      "start": 40.7766,
      "duration": 0.0639,
      "velocity": 107,
      "chip": "ym2612"
    },
    {
      "channel": 0,
      "note": 61,
      "start": 40.7795,
      "duration": 0.2106,
      "velocity": 127,
      "chip": "ym2612"
    },
    {
      "channel": 1,
      "note": 73,
      "start": 40.7822,
      "duration": 0.0748,
      "velocity": 104,
      "chip": "ym2612"
    },
    {
      "channel": 3,
      "note": 61,
      "start": 40.9935,
      "duration": 0.0968,
      "velocity": 127,
      "chip": "ym2612"
    },
    {
      "channel": 1,
      "note": 76,
      "start": 40.9963,
      "duration": 0.0605,
      "velocity": 104,
      "chip": "ym2612"
    },
    {
      "channel": 5,
      "note": 73,
      "start": 41.1105,
      "duration": 0.0799,
      "velocity": 127,
      "chip": "ym2612"
    },
    {
      "channel": 2,
      "note": 50,
      "start": 41.2099,
      "duration": 0.0471,
      "velocity": 107,
      "chip": "ym2612"
    },
    {
      "channel": 0,
      "note": 61,
      "start": 41.2133,
      "duration": 0.1768,
      "velocity": 127,
      "chip": "ym2612"
    },
    {
      "channel": 1,
      "note": 73,
      "start": 41.2163,
      "duration": 0.0573,
      "velocity": 104,
      "chip": "ym2612"
    },
    {
      "channel": 3,
      "note": 61,
      "start": 41.4268,
      "duration": 0.0802,
      "velocity": 127,
      "chip": "ym2612"
    },
    {
      "channel": 1,
      "note": 83,
      "start": 41.4296,
      "duration": 0.0606,
      "velocity": 104,
      "chip": "ym2612"
    },
    {
      "channel": 5,
      "note": 73,
      "start": 41.5269,
      "duration": 0.0802,
      "velocity": 127,
      "chip": "ym2612"
    },
    {
      "channel": 0,
      "note": 61,
      "start": 41.5295,
      "duration": 0.1606,
      "velocity": 127,
      "chip": "ym2612"
    },
    {
      "channel": 4,
      "note": 73,
      "start": 41.5325,
      "duration": 0.0578,
      "velocity": 104,
      "chip": "ym2612"
    },
    {
      "channel": 2,
      "note": 50,
      "start": 41.6266,
      "duration": 0.0639,
      "velocity": 107,
      "chip": "ym2612"
    },
    {
      "channel": 1,
      "note": 80,
      "start": 41.6295,
      "duration": 0.0774,
      "velocity": 104,
      "chip": "ym2612"
    },
    {
      "channel": 3,
      "note": 61,
      "start": 41.7431,
      "duration": 0.0806,
      "velocity": 127,
      "chip": "ym2612"
    },
    {
      "channel": 4,
      "note": 76,
      "start": 41.7462,
      "duration": 0.0608,
      "velocity": 104,
      "chip": "ym2612"
    },
    {
      "channel": 5,
      "note": 73,
      "start": 41.8433,
      "duration": 0.097,
      "velocity": 127,
      "chip": "ym2612"
    },
    {
      "channel": 0,
      "note": 61,
      "start": 41.8461,
      "duration": 0.2108,
      "velocity": 127,
      "chip": "ym2612"
    },
    {
      "channel": 1,
      "note": 73,
      "start": 41.8488,
      "duration": 0.0581,
      "velocity": 104,
      "chip": "ym2612"
    },
    {
      "channel": 4,
      "note": 73,
      "start": 41.9605,
      "duration": 0.0632,
      "velocity": 104,
      "chip": "ym2612"
    },
    {
      "channel": 2,
      "note": 50,
      "start": 42.06,
      "duration": 0.0471,
      "velocity": 107,
      "chip": "ym2612"
    },
    {
      "channel": 3,
      "note": 61,
      "start": 42.0627,
      "duration": 0.0776,
      "velocity": 127,
      "chip": "ym2612"
    },
    {
      "channel": 1,
      "note": 85,
      "start": 42.0656,
      "duration": 0.058,
      "velocity": 104,
      "chip": "ym2612"
    },
    {
      "channel": 5,
      "note": 73,
      "start": 42.1601,
      "duration": 0.0969,
      "velocity": 127,
      "chip": "ym2612"
    },
    {
      "channel": 4,
      "note": 83,
      "start": 42.1631,
      "duration": 0.0772,
      "velocity": 104,
      "chip": "ym2612"
    },
    {
      "channel": 0,
      "note": 61,
      "start": 42.277,
      "duration": 0.1632,
      "velocity": 127,
      "chip": "ym2612"
    },
    {
      "channel": 1,
      "note": 83,
      "start": 42.2797,
      "duration": 0.0605,
      "velocity": 104,
      "chip": "ym2612"
    },
    {
      "channel": 4,
      "note": 80,
      "start": 42.3772,
      "duration": 0.0632,
      "velocity": 104,
      "chip": "ym2612"
    },
    {
      "channel": 2,
      "note": 50,
      "start": 42.4766,
      "duration": 0.0638,
      "velocity": 107,
      "chip": "ym2612"
    },
    {
      "channel": 3,
      "note": 61,
      "start": 42.4792,
      "duration": 0.0944,
      "velocity": 127,
      "chip": "ym2612"
    },
    {
      "channel": 0,
      "note": 61,
      "start": 42.4822,
      "duration": 0.208,
      "velocity": 127,
      "chip": "ym2612"
    },
    {
      "channel": 1,
      "note": 73,
      "start": 42.4848,
      "duration": 0.0721,
      "velocity": 104,
      "chip": "ym2612"
    },
    {
      "channel": 5,
      "note": 73,
      "start": 42.5936,
      "duration": 0.0802,
      "velocity": 127,
      "chip": "ym2612"
    },
    {
      "channel": 4,
      "note": 73,
      "start": 42.5966,
      "duration": 0.0604,
      "velocity": 104,
      "chip": "ym2612"
    },
    {
      "channel": 3,
      "note": 61,
      "start": 42.6934,
      "duration": 0.0968,
      "velocity": 127,
      "chip": "ym2612"
    },
    {
      "channel": 1,
      "note": 76,
      "start": 42.6962,
      "duration": 0.0607,
      "velocity": 104,
      "chip": "ym2612"
    },
    {
      "channel": 5,
      "note": 73,
      "start": 42.8102,
      "duration": 0.0802,
      "velocity": 127,
      "chip": "ym2612"
    },
    {
      "channel": 4,
      "note": 85,
      "start": 42.8133,
      "duration": 0.0604,
      "velocity": 104,
      "chip": "ym2612"
    },
    {
      "channel": 2,
      "note": 50,
      "start": 42.9099,
      "duration": 0.0472,
      "velocity": 107,
      "chip": "ym2612"
    },
    {
      "channel": 0,
      "note": 61,
      "start": 42.9129,
      "duration": 0.1773,
      "velocity": 127,
      "chip": "ym2612"
    },
    {
      "channel": 1,
      "note": 73,
      "start": 42.9156,
      "duration": 0.058,
      "velocity": 104,
      "chip": "ym2612"
    },
    {
      "channel": 3,
      "note": 61,
      "start": 43.1271,
      "duration": 0.0798,
      "velocity": 127,
      "chip": "ym2612"
    },
    {
      "channel": 1,
      "note": 83,
      "start": 43.1299,
      "duration": 0.0603,
      "velocity": 104,
      "chip": "ym2612"
    },
    {
      "channel": 5,
      "note": 73,
      "start": 43.2273,
      "duration": 0.0798,
      "velocity": 127,
      "chip": "ym2612"
    },
    {
      "channel": 0,
      "note": 61,
      "start": 43.2303,
      "duration": 0.1598,
      "velocity": 127,
      "chip": "ym2612"
    },
    {
      "channel": 4,
      "note": 73,
      "start": 43.2337,
      "duration": 0.0566,
      "velocity": 104,
      "chip": "ym2612"
    },
    {
      "channel": 2,
      "note": 50,
      "start": 43.3266,
      "duration": 0.0639,
      "velocity": 107,
      "chip": "ym2612"
    },
    {
      "channel": 1,
      "note": 80,
      "start": 43.3295,
      "duration": 0.0773,
      "velocity": 104,
      "chip": "ym2612"
    },
    {
      "channel": 3,
      "note": 61,
      "start": 43.4431,
      "duration": 0.0806,
      "velocity": 127,
      "chip": "ym2612"
    },
    {
      "channel": 4,
      "note": 76,
      "start": 43.4462,
      "duration": 0.0608,
      "velocity": 104,
      "chip": "ym2612"
    },
    {
      "channel": 5,
      "note": 73,
      "start": 43.5433,
      "duration": 0.097,
      "velocity": 127,
      "chip": "ym2612"
    },
    {
      "channel": 0,
      "note": 61,
      "start": 43.5461,
      "duration": 0.2107,
      "velocity": 127,
      "chip": "ym2612"
    },
    {
      "channel": 1,
      "note": 73,
      "start": 43.5488,
      "duration": 0.0581,
      "velocity": 104,
      "chip": "ym2612"
    },
    {
      "channel": 4,
      "note": 73,
      "start": 43.6605,
      "duration": 0.0633,
      "velocity": 104,
      "chip": "ym2612"
    },
    {
      "channel": 2,
      "note": 50,
      "start": 43.76,
      "duration": 0.0471,
      "velocity": 107,
      "chip": "ym2612"
    },
    {
      "channel": 3,
      "note": 61,
      "start": 43.7627,
      "duration": 0.0776,
      "velocity": 127,
      "chip": "ym2612"
    },
    {
      "channel": 1,
      "note": 85,
      "start": 43.7656,
      "duration": 0.058,
      "velocity": 104,
      "chip": "ym2612"
    },
    {
      "channel": 5,
      "note": 73,
      "start": 43.8602,
      "duration": 0.0968,
      "velocity": 127,
      "chip": "ym2612"
    },
    {
      "channel": 4,
      "note": 83,
      "start": 43.8632,
      "duration": 0.0771,
      "velocity": 104,
      "chip": "ym2612"
    },
    {
      "channel": 0,
      "note": 61,
      "start": 43.977,
      "duration": 0.1632,
      "velocity": 127,
      "chip": "ym2612"
    },
    {
      "channel": 1,
      "note": 83,
      "start": 43.9797,
      "duration": 0.0605,
      "velocity": 104,
      "chip": "ym2612"
    },
    {
      "channel": 4,
      "note": 80,
      "start": 44.0772,
      "duration": 0.0632,
      "velocity": 104,
      "chip": "ym2612"
    },
    {
      "channel": 2,
      "note": 50,
      "start": 44.1766,
      "duration": 0.0638,
      "velocity": 107,
      "chip": "ym2612"
    },
    {
      "channel": 3,
      "note": 61,
      "start": 44.1792,
      "duration": 0.0944,
      "velocity": 127,
      "chip": "ym2612"
    },
    {
      "channel": 0,
      "note": 56,
      "start": 44.1822,
      "duration": 0.208,
      "velocity": 127,
      "chip": "ym2612"
    },
    {
      "channel": 1,
      "note": 68,
      "start": 44.1848,
      "duration": 0.0721,
      "velocity": 104,
      "chip": "ym2612"
    },
    {
      "channel": 5,
      "note": 73,
      "start": 44.2936,
      "duration": 0.0802,
      "velocity": 127,
      "chip": "ym2612"
    },
    {
      "channel": 4,
      "note": 73,
      "start": 44.2966,
      "duration": 0.0604,
      "velocity": 104,
      "chip": "ym2612"
    },
    {
      "channel": 3,
      "note": 56,
      "start": 44.3934,
      "duration": 0.0803,
      "velocity": 127,
      "chip": "ym2612"
    },
    {
      "channel": 1,
      "note": 71,
      "start": 44.3962,
      "duration": 0.0607,
      "velocity": 104,
      "chip": "ym2612"
    },
    {
      "channel": 5,
      "note": 68,
      "start": 44.5102,
      "duration": 0.0802,
      "velocity": 127,
      "chip": "ym2612"
    },
    {
      "channel": 4,
      "note": 85,
      "start": 44.5133,
      "duration": 0.0604,
      "velocity": 104,
      "chip": "ym2612"
    },
    {
      "channel": 2,
      "note": 50,
      "start": 44.6099,
      "duration": 0.0472,
      "velocity": 107,
      "chip": "ym2612"
    },
    {
      "channel": 0,
      "note": 56,
      "start": 44.6129,
      "duration": 0.1772,
      "velocity": 127,
      "chip": "ym2612"
    },
    {
      "channel": 1,
      "note": 68,
      "start": 44.6159,
      "duration": 0.0576,
      "velocity": 104,
      "chip": "ym2612"
    },
    {
      "channel": 3,
      "note": 56,
      "start": 44.8267,
      "duration": 0.0803,
      "velocity": 127,
      "chip": "ym2612"
    },
    {
      "channel": 1,
      "note": 78,
      "start": 44.8295,
      "duration": 0.0606,
      "velocity": 104,
      "chip": "ym2612"
    },
    {
      "channel": 5,
      "note": 68,
      "start": 44.9269,
      "duration": 0.0801,
      "velocity": 127,
      "chip": "ym2612"
    },
    {
      "channel": 0,
      "note": 56,
      "start": 44.9295,
      "duration": 0.1607,
      "velocity": 127,
      "chip": "ym2612"
    },
    {
      "channel": 4,
      "note": 68,
      "start": 44.9325,
      "duration": 0.0579,
      "velocity": 104,
      "chip": "ym2612"
    },
    {
      "channel": 2,
      "note": 50,
      "start": 45.0266,
      "duration": 0.0639,
      "velocity": 107,
      "chip": "ym2612"
    },
    {
      "channel": 1,
      "note": 75,
      "start": 45.0295,
      "duration": 0.0774,
      "velocity": 104,
      "chip": "ym2612"
    },
    {
      "channel": 3,
      "note": 56,
      "start": 45.1432,
      "duration": 0.0805,
      "velocity": 127,
      "chip": "ym2612"
    },
    {
      "channel": 4,
      "note": 71,
      "start": 45.1463,
      "duration": 0.0607,
      "velocity": 104,
      "chip": "ym2612"
    },
    {
      "channel": 5,
      "note": 68,
      "start": 45.2434,
      "duration": 0.0803,
      "velocity": 127,
      "chip": "ym2612"
    },
    {
      "channel": 0,
      "note": 56,
      "start": 45.2466,
      "duration": 0.2102,
      "velocity": 127,
      "chip": "ym2612"
    },
    {
      "channel": 1,
      "note": 68,
      "start": 45.2492,
      "duration": 0.0577,
      "velocity": 104,
      "chip": "ym2612"
    },
    {
      "channel": 4,
      "note": 68,
      "start": 45.3605,
      "duration": 0.0632,
      "velocity": 104,
      "chip": "ym2612"
    },
    {
      "channel": 2,
      "note": 50,
      "start": 45.4599,
      "duration": 0.0471,
      "velocity": 107,
      "chip": "ym2612"
    },
    {
      "channel": 3,
      "note": 56,
      "start": 45.4626,
      "duration": 0.0777,
      "velocity": 127,
      "chip": "ym2612"
    },
    {
      "channel": 1,
      "note": 80,
      "start": 45.4655,
      "duration": 0.0582,
      "velocity": 104,
      "chip": "ym2612"
    },
    {
      "channel": 5,
      "note": 68,
      "start": 45.5602,
      "duration": 0.0968,
      "velocity": 127,
      "chip": "ym2612"
    },
    {
      "channel": 4,
      "note": 78,
      "start": 45.5632,
      "duration": 0.0771,
      "velocity": 104,
      "chip": "ym2612"
    },
    {
      "channel": 0,
      "note": 56,
      "start": 45.6771,
      "duration": 0.1631,
      "velocity": 127,
      "chip": "ym2612"
    },
    {
      "channel": 1,
      "note": 78,
      "start": 45.6797,
      "duration": 0.0605,
      "velocity": 104,
      "chip": "ym2612"
    },
    {
      "channel": 4,
      "note": 75,
      "start": 45.7772,
      "duration": 0.0632,
      "velocity": 104,
      "chip": "ym2612"
    },
    {
      "channel": 2,
      "note": 50,
      "start": 45.8766,
      "duration": 0.0638,
      "velocity": 107,
      "chip": "ym2612"
    },
    {
      "channel": 3,
      "note": 56,
      "start": 45.8792,
      "duration": 0.0944,
      "velocity": 127,
      "chip": "ym2612"
    },
    {
      "channel": 0,
      "note": 59,
      "start": 45.8822,
      "duration": 0.208,
      "velocity": 127,
      "chip": "ym2612"
    },
    {
      "channel": 1,
      "note": 68,
      "start": 45.8848,
      "duration": 0.0721,
      "velocity": 104,
      "chip": "ym2612"
    },
    {
      "channel": 5,
      "note": 68,
      "start": 45.9936,
      "duration": 0.0801,
      "velocity": 127,
      "chip": "ym2612"
    },
    {
      "channel": 4,
      "note": 68,
      "start": 45.9966,
      "duration": 0.0605,
      "velocity": 104,
      "chip": "ym2612"
    },
    {
      "channel": 3,
      "note": 59,
      "start": 46.0938,
      "duration": 0.0798,
      "velocity": 127,
      "chip": "ym2612"
    },
    {
      "channel": 1,
      "note": 71,
      "start": 46.0967,
      "duration": 0.0602,
      "velocity": 104,
      "chip": "ym2612"
    },
    {
      "channel": 5,
      "note": 71,
      "start": 46.2105,
      "duration": 0.0798,
      "velocity": 127,
      "chip": "ym2612"
    },
    {
      "channel": 4,
      "note": 80,
      "start": 46.214,
      "duration": 0.0597,
      "velocity": 104,
      "chip": "ym2612"
    },
    {
      "channel": 2,
      "note": 50,
      "start": 46.3102,
      "duration": 0.0469,
      "velocity": 107,
      "chip": "ym2612"
    },
    {
      "channel": 0,
      "note": 56,
      "start": 46.3132,
      "duration": 0.177,
      "velocity": 127,
      "chip": "ym2612"
    },
    {
      "channel": 1,
      "note": 68,
      "start": 46.3158,
      "duration": 0.0578,
      "velocity": 104,
      "chip": "ym2612"
    },
    {
      "channel": 3,
      "note": 56,
      "start": 46.5267,
      "duration": 0.0803,
      "velocity": 127,
      "chip": "ym2612"
    },
    {
      "channel": 1,
      "note": 78,
      "start": 46.5295,
      "duration": 0.0606,
      "velocity": 104,
      "chip": "ym2612"
    },
    {
      "channel": 5,
      "note": 68,
      "start": 46.6269,
      "duration": 0.0801,
      "velocity": 127,
      "chip": "ym2612"
    },
    {
      "channel": 0,
      "note": 56,
      "start": 46.6295,
      "duration": 0.1441,
      "velocity": 127,
      "chip": "ym2612"
    },
    {
      "channel": 4,
      "note": 68,
      "start": 46.6325,
      "duration": 0.0579,
      "velocity": 104,
      "chip": "ym2612"
    },
    {
      "channel": 2,
      "note": 50,
      "start": 46.7266,
      "duration": 0.0637,
      "velocity": 107,
      "chip": "ym2612"
    },
    {
      "channel": 1,
      "note": 75,
      "start": 46.7295,
      "duration": 0.0774,
      "velocity": 104,
      "chip": "ym2612"
    },
    {
      "channel": 3,
      "note": 56,
      "start": 46.8432,
      "duration": 0.0805,
      "velocity": 127,
      "chip": "ym2612"
    },
    {
      "channel": 4,
      "note": 71,
      "start": 46.8463,
      "duration": 0.0607,
      "velocity": 104,
      "chip": "ym2612"
    },
    {
      "channel": 5,
      "note": 68,
      "start": 46.9434,
      "duration": 0.0803,
      "velocity": 127,
      "chip": "ym2612"
    },
    {
      "channel": 0,
      "note": 56,
      "start": 46.9462,
      "duration": 0.2107,
      "velocity": 127,
      "chip": "ym2612"
    },
    {
      "channel": 1,
      "note": 68,
      "start": 46.9488,
      "duration": 0.058,
      "velocity": 104,
      "chip": "ym2612"
    },
    {
      "channel": 4,
      "note": 68,
      "start": 47.0605,
      "duration": 0.0632,
      "velocity": 104,
      "chip": "ym2612"
    },
    {
      "channel": 2,
      "note": 50,
      "start": 47.16,
      "duration": 0.0471,
      "velocity": 107,
      "chip": "ym2612"
    },
    {
      "channel": 3,
      "note": 56,
      "start": 47.1626,
      "duration": 0.0777,
      "velocity": 127,
      "chip": "ym2612"
    },
    {
      "channel": 1,
      "note": 80,
      "start": 47.1656,
      "duration": 0.058,
      "velocity": 104,
      "chip": "ym2612"
    },
    {
      "channel": 5,
      "note": 68,
      "start": 47.26,
      "duration": 0.0971,
      "velocity": 127,
      "chip": "ym2612"
    },
    {
      "channel": 4,
      "note": 78,
      "start": 47.2629,
      "duration": 0.0774,
      "velocity": 104,
      "chip": "ym2612"
    },
    {
      "channel": 0,
      "note": 56,
      "start": 47.3774,
      "duration": 0.1794,
      "velocity": 127,
      "chip": "ym2612"
    },
    {
      "channel": 1,
      "note": 78,
      "start": 47.3801,
      "duration": 0.0601,
      "velocity": 104,
      "chip": "ym2612"
    },
    {
      "channel": 4,
      "note": 75,
      "start": 47.4772,
      "duration": 0.0631,
      "velocity": 104,
      "chip": "ym2612"
    },
    {
      "channel": 2,
      "note": 50,
      "start": 47.5766,
      "duration": 0.0638,
      "velocity": 107,
      "chip": "ym2612"
    },
    {
      "channel": 5,
      "note": 56,
      "start": 47.5796,
      "duration": 0.013,
      "velocity": 127,
      "chip": "ym2612"
    },
    {
      "channel": 3,
      "note": 76,
      "start": 47.5824,
      "duration": 0.0747,
      "velocity": 127,
      "chip": "ym2612"
    },
    {
      "channel": 1,
      "note": 73,
      "start": 47.585,
      "duration": 0.0719,
      "velocity": 127,
      "chip": "ym2612"
    },
    {
      "channel": 0,
      "note": 61,
      "start": 47.5878,
      "duration": 0.2024,
      "velocity": 127,
      "chip": "ym2612"
    },
    {
      "channel": 4,
      "note": 73,
      "start": 47.5907,
      "duration": 0.0665,
      "velocity": 104,
      "chip": "ym2612"
    },
    {
      "channel": 5,
      "note": 68,
      "start": 47.6939,
      "duration": 0.0631,
      "velocity": 104,
      "chip": "ym2612"
    },
    {
      "channel": 2,
      "note": 61,
      "start": 47.7938,
      "duration": 0.2132,
      "velocity": 127,
      "chip": "ym2612"
    },
    {
      "channel": 1,
      "note": 76,
      "start": 47.7964,
      "duration": 0.0604,
      "velocity": 127,
      "chip": "ym2612"
    },
    {
      "channel": 3,
      "note": 80,
      "start": 47.799,
      "duration": 0.058,
      "velocity": 127,
      "chip": "ym2612"
    },
    {
      "channel": 4,
      "note": 76,
      "start": 47.8018,
      "duration": 0.0553,
      "velocity": 104,
      "chip": "ym2612"
    },
    {
      "channel": 5,
      "note": 80,
      "start": 47.9107,
      "duration": 0.0631,
      "velocity": 104,
      "chip": "ym2612"
    },
    {
      "channel": 0,
      "note": 50,
      "start": 48.0099,
      "duration": 0.0469,
      "velocity": 107,
      "chip": "ym2612"
    },
    {
      "channel": 1,
      "note": 61,
      "start": 48.0132,
      "duration": 0.177,
      "velocity": 127,
      "chip": "ym2612"
    },
    {
      "channel": 4,
      "note": 73,
      "start": 48.0163,
      "duration": 0.0575,
      "velocity": 104,
      "chip": "ym2612"
    },
    {
      "channel": 2,
      "note": 61,
      "start": 48.2271,
      "duration": 0.1634,
      "velocity": 127,
      "chip": "ym2612"
    },
    {
      "channel": 3,
      "note": 76,
      "start": 48.2301,
      "duration": 0.0601,
      "velocity": 127,
      "chip": "ym2612"
    },
    {
      "channel": 5,
      "note": 80,
      "start": 48.2328,
      "duration": 0.0576,
      "velocity": 127,
      "chip": "ym2612"
    },
    {
      "channel": 4,
      "note": 83,
      "start": 48.2357,
      "duration": 0.0546,
      "velocity": 104,
      "chip": "ym2612"
    },
    {
      "channel": 1,
      "note": 61,
      "start": 48.3269,
      "duration": 0.1632,
      "velocity": 127,
      "chip": "ym2612"
    },
    {
      "channel": 0,
      "note": 73,
      "start": 48.3301,
      "duration": 0.06,
      "velocity": 104,
      "chip": "ym2612"
    },
    {
      "channel": 3,
      "note": 50,
      "start": 48.4266,
      "duration": 0.0637,
      "velocity": 107,
      "chip": "ym2612"
    },
    {
      "channel": 4,
      "note": 80,
      "start": 48.4297,
      "duration": 0.0772,
      "velocity": 104,
      "chip": "ym2612"
    },
    {
      "channel": 2,
      "note": 61,
      "start": 48.5435,
      "duration": 0.1469,
      "velocity": 127,
      "chip": "ym2612"
    },
    {
      "channel": 5,
      "note": 76,
      "start": 48.5462,
      "duration": 0.061,
      "velocity": 127,
      "chip": "ym2612"
    },
    {
      "channel": 0,
      "note": 80,
      "start": 48.549,
      "duration": 0.0579,
      "velocity": 127,
      "chip": "ym2612"
    },
    {
      "channel": 1,
      "note": 76,
      "start": 48.552,
      "duration": 0.055,
      "velocity": 104,
      "chip": "ym2612"
    },
    {
      "channel": 3,
      "note": 61,
      "start": 48.6439,
      "duration": 0.213,
      "velocity": 127,
      "chip": "ym2612"
    },
    {
      "channel": 4,
      "note": 73,
      "start": 48.6467,
      "duration": 0.0603,
      "velocity": 104,
      "chip": "ym2612"
    },
    {
      "channel": 1,
      "note": 73,
      "start": 48.7437,
      "duration": 0.0799,
      "velocity": 104,
      "chip": "ym2612"
    },
    {
      "channel": 0,
      "note": 50,
      "start": 48.8599,
      "duration": 0.0469,
      "velocity": 107,
      "chip": "ym2612"
    },
    {
      "channel": 2,
      "note": 61,
      "start": 48.8633,
      "duration": 0.2106,
      "velocity": 127,
      "chip": "ym2612"
    },
    {
      "channel": 5,
      "note": 80,
      "start": 48.8661,
      "duration": 0.0578,
      "velocity": 127,
      "chip": "ym2612"
    },
    {
      "channel": 4,
      "note": 76,
      "start": 48.8688,
      "duration": 0.055,
      "velocity": 127,
      "chip": "ym2612"
    },
    {
      "channel": 1,
      "note": 85,
      "start": 48.8717,
      "duration": 0.0519,
      "velocity": 104,
      "chip": "ym2612"
    },
    {
      "channel": 3,
      "note": 83,
      "start": 48.9607,
      "duration": 0.063,
      "velocity": 104,
      "chip": "ym2612"
    },
    {
      "channel": 0,
      "note": 61,
      "start": 49.0778,
      "duration": 0.1623,
      "velocity": 127,
      "chip": "ym2612"
    },
    {
      "channel": 1,
      "note": 83,
      "start": 49.0805,
      "duration": 0.0598,
      "velocity": 104,
      "chip": "ym2612"
    },
    {
      "channel": 3,
      "note": 80,
      "start": 49.1773,
      "duration": 0.0631,
      "velocity": 104,
      "chip": "ym2612"
    },
    {
      "channel": 4,
      "note": 50,
      "start": 49.2767,
      "duration": 0.0637,
      "velocity": 107,
      "chip": "ym2612"
    },
    {
      "channel": 2,
      "note": 61,
      "start": 49.2797,
      "duration": 0.1776,
      "velocity": 127,
      "chip": "ym2612"
    },
    {
      "channel": 5,
      "note": 76,
      "start": 49.2825,
      "duration": 0.0747,
      "velocity": 127,
      "chip": "ym2612"
    },
    {
      "channel": 1,
      "note": 73,
      "start": 49.2852,
      "duration": 0.0717,
      "velocity": 127,
      "chip": "ym2612"
    },
    {
      "channel": 0,
      "note": 61,
      "start": 49.288,
      "duration": 0.2021,
      "velocity": 127,
      "chip": "ym2612"
    },
    {
      "channel": 3,
      "note": 73,
      "start": 49.2908,
      "duration": 0.0662,
      "velocity": 104,
      "chip": "ym2612"
    },
    {
      "channel": 4,
      "note": 73,
      "start": 49.3943,
      "duration": 0.0627,
      "velocity": 104,
      "chip": "ym2612"
    },
    {
      "channel": 2,
      "note": 61,
      "start": 49.4937,
      "duration": 0.2134,
      "velocity": 127,
      "chip": "ym2612"
    },
    {
      "channel": 1,
      "note": 76,
      "start": 49.4967,
      "duration": 0.0602,
      "velocity": 127,
      "chip": "ym2612"
    },
    {
      "channel": 5,
      "note": 80,
      "start": 49.4993,
      "duration": 0.0579,
      "velocity": 127,
      "chip": "ym2612"
    },
    {
      "channel": 3,
      "note": 76,
      "start": 49.5021,
      "duration": 0.0549,
      "velocity": 104,
      "chip": "ym2612"
    },
    {
      "channel": 4,
      "note": 85,
      "start": 49.5941,
      "duration": 0.0796,
      "velocity": 104,
      "chip": "ym2612"
    },
    {
      "channel": 0,
      "note": 50,
      "start": 49.7099,
      "duration": 0.047,
      "velocity": 107,
      "chip": "ym2612"
    },
    {
      "channel": 1,
      "note": 61,
      "start": 49.7132,
      "duration": 0.1604,
      "velocity": 127,
      "chip": "ym2612"
    },
    {
      "channel": 3,
      "note": 73,
      "start": 49.7159,
      "duration": 0.0578,
      "velocity": 104,
      "chip": "ym2612"
    },
    {
      "channel": 2,
      "note": 61,
      "start": 49.927,
      "duration": 0.1634,
      "velocity": 127,
      "chip": "ym2612"
    },
    {
      "channel": 5,
      "note": 76,
      "start": 49.9298,
      "duration": 0.0606,
      "velocity": 127,
      "chip": "ym2612"
    },
    {
      "channel": 4,
      "note": 80,
      "start": 49.9325,
      "duration": 0.0578,
      "velocity": 127,
      "chip": "ym2612"
    },
    {
      "channel": 3,
      "note": 83,
      "start": 49.9353,
      "duration": 0.0549,
      "velocity": 104,
      "chip": "ym2612"
    },
    {
      "channel": 1,
      "note": 61,
      "start": 50.0269,
      "duration": 0.1633,
      "velocity": 127,
      "chip": "ym2612"
    },
    {
      "channel": 0,
      "note": 73,
      "start": 50.0301,
      "duration": 0.06,
      "velocity": 104,
      "chip": "ym2612"
    },
    {
      "channel": 3,
      "note": 50,
      "start": 50.1266,
      "duration": 0.0637,
      "velocity": 107,
      "chip": "ym2612"
    },
    {
      "channel": 4,
      "note": 80,
      "start": 50.1298,
      "duration": 0.0771,
      "velocity": 104,
      "chip": "ym2612"
    },
    {
      "channel": 2,
      "note": 61,
      "start": 50.2435,
      "duration": 0.1469,
      "velocity": 127,
      "chip": "ym2612"
    },
    {
      "channel": 5,
      "note": 76,
      "start": 50.2462,
      "duration": 0.061,
      "velocity": 127,
      "chip": "ym2612"
    },
    {
      "channel": 0,
      "note": 80,
      "start": 50.249,
      "duration": 0.0579,
      "velocity": 127,
      "chip": "ym2612"
    },
    {
      "channel": 1,
      "note": 76,
      "start": 50.252,
      "duration": 0.055,
      "velocity": 104,
      "chip": "ym2612"
    },
    {
      "channel": 3,
      "note": 61,
      "start": 50.3439,
      "duration": 0.2131,
      "velocity": 127,
      "chip": "ym2612"
    },
    {
      "channel": 4,
      "note": 73,
      "start": 50.3466,
      "duration": 0.0603,
      "velocity": 104,
      "chip": "ym2612"
    },
    {
      "channel": 1,
      "note": 73,
      "start": 50.4437,
      "duration": 0.0798,
      "velocity": 104,
      "chip": "ym2612"
    },
    {
      "channel": 0,
      "note": 50,
      "start": 50.56,
      "duration": 0.0469,
      "velocity": 107,
      "chip": "ym2612"
    },
    {
      "channel": 2,
      "note": 61,
      "start": 50.563,
      "duration": 0.2108,
      "velocity": 127,
      "chip": "ym2612"
    },
    {
      "channel": 5,
      "note": 80,
      "start": 50.5658,
      "duration": 0.0581,
      "velocity": 127,
      "chip": "ym2612"
    },
    {
      "channel": 4,
      "note": 76,
      "start": 50.5685,
      "duration": 0.0553,
      "velocity": 127,
      "chip": "ym2612"
    },
    {
      "channel": 1,
      "note": 85,
      "start": 50.5714,
      "duration": 0.0522,
      "velocity": 104,
      "chip": "ym2612"
    },
    {
      "channel": 3,
      "note": 83,
      "start": 50.6607,
      "duration": 0.063,
      "velocity": 104,
      "chip": "ym2612"
    },
    {
      "channel": 0,
      "note": 61,
      "start": 50.7774,
      "duration": 0.1627,
      "velocity": 127,
      "chip": "ym2612"
    },
    {
      "channel": 1,
      "note": 83,
      "start": 50.7801,
      "duration": 0.0602,
      "velocity": 104,
      "chip": "ym2612"
    },
    {
      "channel": 3,
      "note": 80,
      "start": 50.8771,
      "duration": 0.0632,
      "velocity": 104,
      "chip": "ym2612"
    },
    {
      "channel": 4,
      "note": 50,
      "start": 50.9767,
      "duration": 0.0636,
      "velocity": 107,
      "chip": "ym2612"
    },
    {
      "channel": 2,
      "note": 61,
      "start": 50.9801,
      "duration": 0.1771,
      "velocity": 127,
      "chip": "ym2612"
    },
    {
      "channel": 5,
      "note": 68,
      "start": 50.9832,
      "duration": 0.074,
      "velocity": 127,
      "chip": "ym2612"
    },
    {
      "channel": 1,
      "note": 71,
      "start": 50.9859,
      "duration": 0.0709,
      "velocity": 127,
      "chip": "ym2612"
    },
    {
      "channel": 0,
      "note": 56,
      "start": 50.989,
      "duration": 0.2012,
      "velocity": 127,
      "chip": "ym2612"
    },
    {
      "channel": 3,
      "note": 68,
      "start": 50.992,
      "duration": 0.065,
      "velocity": 104,
      "chip": "ym2612"
    },
    {
      "channel": 4,
      "note": 73,
      "start": 51.0939,
      "duration": 0.0632,
      "velocity": 104,
      "chip": "ym2612"
    },
    {
      "channel": 2,
      "note": 56,
      "start": 51.1938,
      "duration": 0.2132,
      "velocity": 127,
      "chip": "ym2612"
    },
    {
      "channel": 1,
      "note": 75,
      "start": 51.1964,
      "duration": 0.0604,
      "velocity": 127,
      "chip": "ym2612"
    },
    {
      "channel": 5,
      "note": 71,
      "start": 51.199,
      "duration": 0.0581,
      "velocity": 127,
      "chip": "ym2612"
    },
    {
      "channel": 3,
      "note": 71,
      "start": 51.2018,
      "duration": 0.0552,
      "velocity": 104,
      "chip": "ym2612"
    },
    {
      "channel": 4,
      "note": 85,
      "start": 51.2941,
      "duration": 0.0796,
      "velocity": 104,
      "chip": "ym2612"
    },
    {
      "channel": 0,
      "note": 50,
      "start": 51.4099,
      "duration": 0.047,
      "velocity": 107,
      "chip": "ym2612"
    },
    {
      "channel": 1,
      "note": 56,
      "start": 51.4132,
      "duration": 0.1604,
      "velocity": 127,
      "chip": "ym2612"
    },
    {
      "channel": 3,
      "note": 68,
      "start": 51.4163,
      "duration": 0.0574,
      "velocity": 104,
      "chip": "ym2612"
    },
    {
      "channel": 2,
      "note": 56,
      "start": 51.627,
      "duration": 0.1634,
      "velocity": 127,
      "chip": "ym2612"
    },
    {
      "channel": 5,
      "note": 75,
      "start": 51.6298,
      "duration": 0.0606,
      "velocity": 127,
      "chip": "ym2612"
    },
    {
      "channel": 4,
      "note": 71,
      "start": 51.6325,
      "duration": 0.0578,
      "velocity": 127,
      "chip": "ym2612"
    },
    {
      "channel": 3,
      "note": 78,
      "start": 51.6353,
      "duration": 0.0549,
      "velocity": 104,
      "chip": "ym2612"
    },
    {
      "channel": 1,
      "note": 56,
      "start": 51.7269,
      "duration": 0.1632,
      "velocity": 127,
      "chip": "ym2612"
    },
    {
      "channel": 0,
      "note": 68,
      "start": 51.73,
      "duration": 0.0601,
      "velocity": 104,
      "chip": "ym2612"
    },
    {
      "channel": 3,
      "note": 50,
      "start": 51.8266,
      "duration": 0.0637,
      "velocity": 107,
      "chip": "ym2612"
    },
    {
      "channel": 4,
      "note": 75,
      "start": 51.8298,
      "duration": 0.0771,
      "velocity": 104,
      "chip": "ym2612"
    },
    {
      "channel": 2,
      "note": 56,
      "start": 51.9435,
      "duration": 0.1469,
      "velocity": 127,
      "chip": "ym2612"
    },
    {
      "channel": 5,
      "note": 75,
      "start": 51.9462,
      "duration": 0.061,
      "velocity": 127,
      "chip": "ym2612"
    },
    {
      "channel": 0,
      "note": 71,
      "start": 51.949,
      "duration": 0.0579,
      "velocity": 127,
      "chip": "ym2612"
    },
    {
      "channel": 1,
      "note": 71,
      "start": 51.952,
      "duration": 0.055,
      "velocity": 104,
      "chip": "ym2612"
    },
    {
      "channel": 3,
      "note": 56,
      "start": 52.0439,
      "duration": 0.2131,
      "velocity": 127,
      "chip": "ym2612"
    },
    {
      "channel": 4,
      "note": 68,
      "start": 52.0466,
      "duration": 0.0604,
      "velocity": 104,
      "chip": "ym2612"
    },
    {
      "channel": 1,
      "note": 68,
      "start": 52.1437,
      "duration": 0.0798,
      "velocity": 104,
      "chip": "ym2612"
    },
    {
      "channel": 0,
      "note": 50,
      "start": 52.26,
      "duration": 0.047,
      "velocity": 107,
      "chip": "ym2612"
    },
    {
      "channel": 2,
      "note": 56,
      "start": 52.2629,
      "duration": 0.2108,
      "velocity": 127,
      "chip": "ym2612"
    },
    {
      "channel": 5,
      "note": 71,
      "start": 52.2661,
      "duration": 0.0578,
      "velocity": 127,
      "chip": "ym2612"
    },
    {
      "channel": 4,
      "note": 75,
      "start": 52.2688,
      "duration": 0.055,
      "velocity": 127,
      "chip": "ym2612"
    },
    {
      "channel": 1,
      "note": 80,
      "start": 52.2718,
      "duration": 0.0519,
      "velocity": 104,
      "chip": "ym2612"
    },
    {
      "channel": 3,
      "note": 78,
      "start": 52.361,
      "duration": 0.0628,
      "velocity": 104,
      "chip": "ym2612"
    },
    {
      "channel": 0,
      "note": 56,
      "start": 52.4773,
      "duration": 0.1628,
      "velocity": 127,
      "chip": "ym2612"
    },
    {
      "channel": 1,
      "note": 78,
      "start": 52.48,
      "duration": 0.0602,
      "velocity": 104,
      "chip": "ym2612"
    },
    {
      "channel": 3,
      "note": 75,
      "start": 52.5771,
      "duration": 0.0632,
      "velocity": 104,
      "chip": "ym2612"
    },
    {
      "channel": 4,
      "note": 50,
      "start": 52.6767,
      "duration": 0.047,
      "velocity": 107,
      "chip": "ym2612"
    },
    {
      "channel": 2,
      "note": 56,
      "start": 52.6797,
      "duration": 0.1776,
      "velocity": 127,
      "chip": "ym2612"
    },
    {
      "channel": 5,
      "note": 68,
      "start": 52.6825,
      "duration": 0.0747,
      "velocity": 127,
      "chip": "ym2612"
    },
    {
      "channel": 1,
      "note": 71,
      "start": 52.6851,
      "duration": 0.0717,
      "velocity": 127,
      "chip": "ym2612"
    },
    {
      "channel": 0,
      "note": 59,
      "start": 52.688,
      "duration": 0.2022,
      "velocity": 127,
      "chip": "ym2612"
    },
    {
      "channel": 3,
      "note": 68,
      "start": 52.6908,
      "duration": 0.0662,
      "velocity": 104,
      "chip": "ym2612"
    },
    {
      "channel": 4,
      "note": 68,
      "start": 52.794,
      "duration": 0.063,
      "velocity": 104,
      "chip": "ym2612"
    },
    {
      "channel": 2,
      "note": 59,
      "start": 52.8941,
      "duration": 0.213,
      "velocity": 127,
      "chip": "ym2612"
    },
    {
      "channel": 1,
      "note": 75,
      "start": 52.8967,
      "duration": 0.0603,
      "velocity": 127,
      "chip": "ym2612"
    },
    {
      "channel": 5,
      "note": 71,
      "start": 52.8993,
      "duration": 0.058,
      "velocity": 127,
      "chip": "ym2612"
    },
    {
      "channel": 3,
      "note": 71,
      "start": 52.9021,
      "duration": 0.055,
      "velocity": 104,
      "chip": "ym2612"
    },
    {
      "channel": 4,
      "note": 80,
      "start": 52.9941,
      "duration": 0.0796,
      "velocity": 104,
      "chip": "ym2612"
    },
    {
      "channel": 0,
      "note": 50,
      "start": 53.1102,
      "duration": 0.0466,
      "velocity": 107,
      "chip": "ym2612"
    },
    {
      "channel": 1,
      "note": 56,
      "start": 53.1139,
      "duration": 0.1598,
      "velocity": 127,
      "chip": "ym2612"
    },
    {
      "channel": 3,
      "note": 68,
      "start": 53.1166,
      "duration": 0.0571,
      "velocity": 104,
      "chip": "ym2612"
    },
    {
      "channel": 2,
      "note": 56,
      "start": 53.3271,
      "duration": 0.1634,
      "velocity": 127,
      "chip": "ym2612"
    },
    {
      "channel": 5,
      "note": 75,
      "start": 53.3299,
      "duration": 0.0606,
      "velocity": 127,
      "chip": "ym2612"
    },
    {
      "channel": 4,
      "note": 71,
      "start": 53.3325,
      "duration": 0.0578,
      "velocity": 127,
      "chip": "ym2612"
    },
    {
      "channel": 3,
      "note": 78,
      "start": 53.3354,
      "duration": 0.0549,
      "velocity": 104,
      "chip": "ym2612"
    },
    {
      "channel": 1,
      "note": 56,
      "start": 53.427,
      "duration": 0.1298,
      "velocity": 127,
      "chip": "ym2612"
    },
    {
      "channel": 0,
      "note": 68,
      "start": 53.4301,
      "duration": 0.06,
      "velocity": 104,
      "chip": "ym2612"
    },
    {
      "channel": 3,
      "note": 50,
      "start": 53.5266,
      "duration": 0.0471,
      "velocity": 107,
      "chip": "ym2612"
    },
    {
      "channel": 4,
      "note": 75,
      "start": 53.5298,
      "duration": 0.0772,
      "velocity": 104,
      "chip": "ym2612"
    },
    {
      "channel": 2,
      "note": 56,
      "start": 53.6435,
      "duration": 0.1303,
      "velocity": 127,
      "chip": "ym2612"
    },
    {
      "channel": 5,
      "note": 75,
      "start": 53.6466,
      "duration": 0.0606,
      "velocity": 127,
      "chip": "ym2612"
    },
    {
      "channel": 0,
      "note": 71,
      "start": 53.6493,
      "duration": 0.0576,
      "velocity": 127,
      "chip": "ym2612"
    },
    {
      "channel": 1,
      "note": 71,
      "start": 53.6524,
      "duration": 0.0546,
      "velocity": 104,
      "chip": "ym2612"
    },
    {
      "channel": 3,
      "note": 56,
      "start": 53.7439,
      "duration": 0.2131,
      "velocity": 127,
      "chip": "ym2612"
    },
    {
      "channel": 4,
      "note": 68,
      "start": 53.7467,
      "duration": 0.0603,
      "velocity": 104,
      "chip": "ym2612"
    },
    {
      "channel": 1,
      "note": 68,
      "start": 53.8438,
      "duration": 0.0798,
      "velocity": 104,
      "chip": "ym2612"
    },
    {
      "channel": 0,
      "note": 50,
      "start": 53.96,
      "duration": 0.0469,
      "velocity": 107,
      "chip": "ym2612"
    },
    {
      "channel": 2,
      "note": 56,
      "start": 53.9632,
      "duration": 0.2107,
      "velocity": 127,
      "chip": "ym2612"
    },
    {
      "channel": 5,
      "note": 71,
      "start": 53.9659,
      "duration": 0.0579,
      "velocity": 127,
      "chip": "ym2612"
    },
    {
      "channel": 4,
      "note": 75,
      "start": 53.9686,
      "duration": 0.0551,
      "velocity": 127,
      "chip": "ym2612"
    },
    {
      "channel": 1,
      "note": 80,
      "start": 53.9716,
      "duration": 0.052,
      "velocity": 104,
      "chip": "ym2612"
    },
    {
      "channel": 3,
      "note": 78,
      "start": 54.0607,
      "duration": 0.063,
      "velocity": 104,
      "chip": "ym2612"
    },
    {
      "channel": 0,
      "note": 56,
      "start": 54.1774,
      "duration": 0.1795,
      "velocity": 127,
      "chip": "ym2612"
    },
    {
      "channel": 1,
      "note": 78,
      "start": 54.1803,
      "duration": 0.0599,
      "velocity": 104,
      "chip": "ym2612"
    },
    {
      "channel": 3,
      "note": 75,
      "start": 54.2775,
      "duration": 0.0628,
      "velocity": 104,
      "chip": "ym2612"
    },
    {
      "channel": 4,
      "note": 50,
      "start": 54.3765,
      "duration": 0.0473,
      "velocity": 107,
      "chip": "ym2612"
    },
    {
      "channel": 5,
      "note": 85,
      "start": 54.3794,
      "duration": 0.0776,
      "velocity": 127,
      "chip": "ym2612"
    },
    {
      "channel": 2,
      "note": 88,
      "start": 54.3822,
      "duration": 0.075,
      "velocity": 127,
      "chip": "ym2612"
    },
    {
      "channel": 0,
      "note": 61,
      "start": 54.385,
      "duration": 0.2052,
      "velocity": 127,
      "chip": "ym2612"
    },
    {
      "channel": 1,
      "note": 73,
      "start": 54.3887,
      "duration": 0.2682,
      "velocity": 117,
      "chip": "ym2612"
    },
    {
      "channel": 5,
      "note": 92,
      "start": 54.5936,
      "duration": 0.0636,
      "velocity": 127,
      "chip": "ym2612"
    },
    {
      "channel": 2,
      "note": 88,
      "start": 54.5963,
      "duration": 0.061,
      "velocity": 127,
      "chip": "ym2612"
    },
    {
      "channel": 1,
      "note": 71,
      "start": 54.6941,
      "duration": 0.0795,
      "velocity": 117,
      "chip": "ym2612"
    },
    {
      "channel": 3,
      "note": 73,
      "start": 54.6974,
      "duration": 0.0596,
      "velocity": 117,
      "chip": "ym2612"
    },
    {
      "channel": 4,
      "note": 50,
      "start": 54.8098,
      "duration": 0.0473,
      "velocity": 107,
      "chip": "ym2612"
    },
    {
      "channel": 0,
      "note": 61,
      "start": 54.8132,
      "duration": 0.1605,
      "velocity": 127,
      "chip": "ym2612"
    },
    {
      "channel": 1,
      "note": 73,
      "start": 54.8163,
      "duration": 0.3239,
      "velocity": 117,
      "chip": "ym2612"
    },
    {
      "channel": 5,
      "note": 92,
      "start": 55.0273,
      "duration": 0.0631,
      "velocity": 127,
      "chip": "ym2612"
    },
    {
      "channel": 2,
      "note": 88,
      "start": 55.0299,
      "duration": 0.0606,
      "velocity": 127,
      "chip": "ym2612"
    },
    {
      "channel": 3,
      "note": 71,
      "start": 55.0333,
      "duration": 0.0404,
      "velocity": 117,
      "chip": "ym2612"
    },
    {
      "channel": 0,
      "note": 61,
      "start": 55.1269,
      "duration": 0.1467,
      "velocity": 127,
      "chip": "ym2612"
    },
    {
      "channel": 4,
      "note": 71,
      "start": 55.1303,
      "duration": 0.0435,
      "velocity": 117,
      "chip": "ym2612"
    },
    {
      "channel": 3,
      "note": 73,
      "start": 55.1332,
      "duration": 0.0405,
      "velocity": 117,
      "chip": "ym2612"
    },
    {
      "channel": 5,
      "note": 50,
      "start": 55.2266,
      "duration": 0.0473,
      "velocity": 107,
      "chip": "ym2612"
    },
    {
      "channel": 1,
      "note": 73,
      "start": 55.2299,
      "duration": 0.0937,
      "velocity": 117,
      "chip": "ym2612"
    },
    {
      "channel": 2,
      "note": 92,
      "start": 55.3436,
      "duration": 0.0636,
      "velocity": 127,
      "chip": "ym2612"
    },
    {
      "channel": 3,
      "note": 88,
      "start": 55.3463,
      "duration": 0.0607,
      "velocity": 127,
      "chip": "ym2612"
    },
    {
      "channel": 1,
      "note": 71,
      "start": 55.3494,
      "duration": 0.0408,
      "velocity": 117,
      "chip": "ym2612"
    },
    {
      "channel": 0,
      "note": 61,
      "start": 55.4437,
      "duration": 0.2132,
      "velocity": 127,
      "chip": "ym2612"
    },
    {
      "channel": 1,
      "note": 73,
      "start": 55.4472,
      "duration": 0.093,
      "velocity": 117,
      "chip": "ym2612"
    },
    {
      "channel": 4,
      "note": 71,
      "start": 55.4503,
      "duration": 0.04,
      "velocity": 117,
      "chip": "ym2612"
    },
    {
      "channel": 4,
      "note": 73,
      "start": 55.5442,
      "duration": 0.0628,
      "velocity": 117,
      "chip": "ym2612"
    },
    {
      "channel": 5,
      "note": 50,
      "start": 55.6599,
      "duration": 0.0473,
      "velocity": 107,
      "chip": "ym2612"
    },
    {
      "channel": 3,
      "note": 88,
      "start": 55.6627,
      "duration": 0.061,
      "velocity": 127,
      "chip": "ym2612"
    },
    {
      "channel": 2,
      "note": 92,
      "start": 55.6654,
      "duration": 0.0585,
      "velocity": 127,
      "chip": "ym2612"
    },
    {
      "channel": 4,
      "note": 71,
      "start": 55.6686,
      "duration": 0.0384,
      "velocity": 117,
      "chip": "ym2612"
    },
    {
      "channel": 4,
      "note": 73,
      "start": 55.7613,
      "duration": 0.0457,
      "velocity": 117,
      "chip": "ym2612"
    },
    {
      "channel": 0,
      "note": 61,
      "start": 55.877,
      "duration": 0.1631,
      "velocity": 127,
      "chip": "ym2612"
    },
    {
      "channel": 5,
      "note": 50,
      "start": 56.0765,
      "duration": 0.0473,
      "velocity": 107,
      "chip": "ym2612"
    },
    {
      "channel": 3,
      "note": 85,
      "start": 56.0793,
      "duration": 0.0776,
      "velocity": 127,
      "chip": "ym2612"
    },
    {
      "channel": 2,
      "note": 88,
      "start": 56.082,
      "duration": 0.0751,
      "velocity": 127,
      "chip": "ym2612"
    },
    {
      "channel": 0,
      "note": 61,
      "start": 56.0848,
      "duration": 0.2053,
      "velocity": 127,
      "chip": "ym2612"
    },
    {
      "channel": 1,
      "note": 73,
      "start": 56.088,
      "duration": 0.2689,
      "velocity": 117,
      "chip": "ym2612"
    },
    {
      "channel": 3,
      "note": 92,
      "start": 56.2939,
      "duration": 0.0632,
      "velocity": 127,
      "chip": "ym2612"
    },
    {
      "channel": 2,
      "note": 88,
      "start": 56.2966,
      "duration": 0.0607,
      "velocity": 127,
      "chip": "ym2612"
    },
    {
      "channel": 1,
      "note": 71,
      "start": 56.3941,
      "duration": 0.0795,
      "velocity": 117,
      "chip": "ym2612"
    },
    {
      "channel": 4,
      "note": 73,
      "start": 56.3971,
      "duration": 0.06,
      "velocity": 117,
      "chip": "ym2612"
    },
    {
      "channel": 5,
      "note": 50,
      "start": 56.5098,
      "duration": 0.0473,
      "velocity": 107,
      "chip": "ym2612"
    },
    {
      "channel": 0,
      "note": 61,
      "start": 56.5128,
      "duration": 0.1607,
      "velocity": 127,
      "chip": "ym2612"
    },
    {
      "channel": 1,
      "note": 73,
      "start": 56.516,
      "duration": 0.3242,
      "velocity": 117,
      "chip": "ym2612"
    },
    {
      "channel": 3,
      "note": 92,
      "start": 56.7268,
      "duration": 0.0636,
      "velocity": 127,
      "chip": "ym2612"
    },
    {
      "channel": 2,
      "note": 88,
      "start": 56.7295,
      "duration": 0.061,
      "velocity": 127,
      "chip": "ym2612"
    },
    {
      "channel": 4,
      "note": 71,
      "start": 56.7329,
      "duration": 0.0409,
      "velocity": 117,
      "chip": "ym2612"
    },
    {
      "channel": 0,
      "note": 61,
      "start": 56.8273,
      "duration": 0.1463,
      "velocity": 127,
      "chip": "ym2612"
    },
    {
      "channel": 5,
      "note": 71,
      "start": 56.8306,
      "duration": 0.0433,
      "velocity": 117,
      "chip": "ym2612"
    },
    {
      "channel": 4,
      "note": 73,
      "start": 56.8336,
      "duration": 0.0401,
      "velocity": 117,
      "chip": "ym2612"
    },
    {
      "channel": 3,
      "note": 50,
      "start": 56.9266,
      "duration": 0.0471,
      "velocity": 107,
      "chip": "ym2612"
    },
    {
      "channel": 1,
      "note": 73,
      "start": 56.93,
      "duration": 0.0936,
      "velocity": 117,
      "chip": "ym2612"
    },
    {
      "channel": 2,
      "note": 92,
      "start": 57.0436,
      "duration": 0.0636,
      "velocity": 127,
      "chip": "ym2612"
    },
    {
      "channel": 4,
      "note": 88,
      "start": 57.0462,
      "duration": 0.0608,
      "velocity": 127,
      "chip": "ym2612"
    },
    {
      "channel": 1,
      "note": 71,
      "start": 57.0498,
      "duration": 0.0405,
      "velocity": 117,
      "chip": "ym2612"
    },
    {
      "channel": 0,
      "note": 61,
      "start": 57.1436,
      "duration": 0.2133,
      "velocity": 127,
      "chip": "ym2612"
    },
    {
      "channel": 1,
      "note": 73,
      "start": 57.1468,
      "duration": 0.0933,
      "velocity": 117,
      "chip": "ym2612"
    },
    {
      "channel": 5,
      "note": 71,
      "start": 57.1498,
      "duration": 0.0405,
      "velocity": 117,
      "chip": "ym2612"
    },
    {
      "channel": 5,
      "note": 73,
      "start": 57.2441,
      "duration": 0.0629,
      "velocity": 117,
      "chip": "ym2612"
    },
    {
      "channel": 3,
      "note": 50,
      "start": 57.3598,
      "duration": 0.0471,
      "velocity": 107,
      "chip": "ym2612"
    },
    {
      "channel": 4,
      "note": 88,
      "start": 57.3626,
      "duration": 0.0611,
      "velocity": 127,
      "chip": "ym2612"
    },
    {
      "channel": 2,
      "note": 92,
      "start": 57.3654,
      "duration": 0.0585,
      "velocity": 127,
      "chip": "ym2612"
    },
    {
      "channel": 5,
      "note": 71,
      "start": 57.3686,
      "duration": 0.0385,
      "velocity": 117,
      "chip": "ym2612"
    },
    {
      "channel": 5,
      "note": 73,
      "start": 57.461,
      "duration": 0.046,
      "velocity": 117,
      "chip": "ym2612"
    },
    {
      "channel": 0,
      "note": 61,
      "start": 57.5602,
      "duration": 0.1799,
      "velocity": 127,
      "chip": "ym2612"
    },
    {
      "channel": 3,
      "note": 50,
      "start": 57.7764,
      "duration": 0.0474,
      "velocity": 107,
      "chip": "ym2612"
    },
    {
      "channel": 4,
      "note": 83,
      "start": 57.7796,
      "duration": 0.0607,
      "velocity": 127,
      "chip": "ym2612"
    },
    {
      "channel": 2,
      "note": 80,
      "start": 57.7823,
      "duration": 0.0583,
      "velocity": 127,
      "chip": "ym2612"
    },
    {
      "channel": 0,
      "note": 56,
      "start": 57.7851,
      "duration": 0.2051,
      "velocity": 127,
      "chip": "ym2612"
    },
    {
      "channel": 1,
      "note": 68,
      "start": 57.7883,
      "duration": 0.2686,
      "velocity": 117,
      "chip": "ym2612"
    },
    {
      "channel": 4,
      "note": 83,
      "start": 57.9936,
      "duration": 0.0635,
      "velocity": 127,
      "chip": "ym2612"
    },
    {
      "channel": 2,
      "note": 87,
      "start": 57.9963,
      "duration": 0.061,
      "velocity": 127,
      "chip": "ym2612"
    },
    {
      "channel": 1,
      "note": 66,
      "start": 58.0941,
      "duration": 0.0795,
      "velocity": 117,
      "chip": "ym2612"
    },
    {
      "channel": 5,
      "note": 68,
      "start": 58.0972,
      "duration": 0.0598,
      "velocity": 117,
      "chip": "ym2612"
    },
    {
      "channel": 3,
      "note": 50,
      "start": 58.2096,
      "duration": 0.0473,
      "velocity": 107,
      "chip": "ym2612"
    },
    {
      "channel": 0,
      "note": 56,
      "start": 58.2126,
      "duration": 0.161,
      "velocity": 127,
      "chip": "ym2612"
    },
    {
      "channel": 1,
      "note": 68,
      "start": 58.2158,
      "duration": 0.3244,
      "velocity": 117,
      "chip": "ym2612"
    },
    {
      "channel": 4,
      "note": 83,
      "start": 58.4102,
      "duration": 0.0801,
      "velocity": 127,
      "chip": "ym2612"
    },
    {
      "channel": 2,
      "note": 87,
      "start": 58.4129,
      "duration": 0.0776,
      "velocity": 127,
      "chip": "ym2612"
    },
    {
      "channel": 5,
      "note": 66,
      "start": 58.4167,
      "duration": 0.0571,
      "velocity": 117,
      "chip": "ym2612"
    },
    {
      "channel": 0,
      "note": 56,
      "start": 58.5269,
      "duration": 0.1466,
      "velocity": 127,
      "chip": "ym2612"
    },
    {
      "channel": 3,
      "note": 66,
      "start": 58.5307,
      "duration": 0.0429,
      "velocity": 117,
      "chip": "ym2612"
    },
    {
      "channel": 5,
      "note": 68,
      "start": 58.5337,
      "duration": 0.0401,
      "velocity": 117,
      "chip": "ym2612"
    },
    {
      "channel": 4,
      "note": 50,
      "start": 58.6267,
      "duration": 0.0471,
      "velocity": 107,
      "chip": "ym2612"
    },
    {
      "channel": 1,
      "note": 68,
      "start": 58.6301,
      "duration": 0.0936,
      "velocity": 117,
      "chip": "ym2612"
    },
    {
      "channel": 2,
      "note": 83,
      "start": 58.7436,
      "duration": 0.0636,
      "velocity": 127,
      "chip": "ym2612"
    },
    {
      "channel": 3,
      "note": 87,
      "start": 58.7463,
      "duration": 0.0606,
      "velocity": 127,
      "chip": "ym2612"
    },
    {
      "channel": 1,
      "note": 66,
      "start": 58.7495,
      "duration": 0.0407,
      "velocity": 117,
      "chip": "ym2612"
    },
    {
      "channel": 0,
      "note": 56,
      "start": 58.844,
      "duration": 0.2129,
      "velocity": 127,
      "chip": "ym2612"
    },
    {
      "channel": 1,
      "note": 68,
      "start": 58.8472,
      "duration": 0.093,
      "velocity": 117,
      "chip": "ym2612"
    },
    {
      "channel": 5,
      "note": 66,
      "start": 58.8502,
      "duration": 0.0402,
      "velocity": 117,
      "chip": "ym2612"
    },
    {
      "channel": 5,
      "note": 68,
      "start": 58.9442,
      "duration": 0.0628,
      "velocity": 117,
      "chip": "ym2612"
    },
    {
      "channel": 4,
      "note": 50,
      "start": 59.0598,
      "duration": 0.0471,
      "velocity": 107,
      "chip": "ym2612"
    },
    {
      "channel": 3,
      "note": 87,
      "start": 59.063,
      "duration": 0.0606,
      "velocity": 127,
      "chip": "ym2612"
    },
    {
      "channel": 2,
      "note": 83,
      "start": 59.0658,
      "duration": 0.0581,
      "velocity": 127,
      "chip": "ym2612"
    },
    {
      "channel": 5,
      "note": 66,
      "start": 59.069,
      "duration": 0.0381,
      "velocity": 117,
      "chip": "ym2612"
    },
    {
      "channel": 5,
      "note": 68,
      "start": 59.1609,
      "duration": 0.0461,
      "velocity": 117,
      "chip": "ym2612"
    },
    {
      "channel": 0,
      "note": 56,
      "start": 59.2602,
      "duration": 0.1799,
      "velocity": 127,
      "chip": "ym2612"
    },
    {
      "channel": 4,
      "note": 50,
      "start": 59.4764,
      "duration": 0.0473,
      "velocity": 107,
      "chip": "ym2612"
    },
    {
      "channel": 3,
      "note": 83,
      "start": 59.4792,
      "duration": 0.061,
      "velocity": 127,
      "chip": "ym2612"
    },
    {
      "channel": 2,
      "note": 80,
      "start": 59.482,
      "duration": 0.0585,
      "velocity": 127,
      "chip": "ym2612"
    },
    {
      "channel": 0,
      "note": 59,
      "start": 59.4848,
      "duration": 0.2054,
      "velocity": 127,
      "chip": "ym2612"
    },
    {
      "channel": 1,
      "note": 68,
      "start": 59.488,
      "duration": 0.2689,
      "velocity": 117,
      "chip": "ym2612"
    },
    {
      "channel": 3,
      "note": 83,
      "start": 59.6935,
      "duration": 0.0635,
      "velocity": 127,
      "chip": "ym2612"
    },
    {
      "channel": 2,
      "note": 87,
      "start": 59.6962,
      "duration": 0.061,
      "velocity": 127,
      "chip": "ym2612"
    },
    {
      "channel": 1,
      "note": 66,
      "start": 59.7942,
      "duration": 0.0795,
      "velocity": 117,
      "chip": "ym2612"
    },
    {
      "channel": 5,
      "note": 68,
      "start": 59.7972,
      "duration": 0.0598,
      "velocity": 117,
      "chip": "ym2612"
    },
    {
      "channel": 4,
      "note": 50,
      "start": 59.91,
      "duration": 0.047,
      "velocity": 107,
      "chip": "ym2612"
    },
    {
      "channel": 0,
      "note": 56,
      "start": 59.913,
      "duration": 0.1606,
      "velocity": 127,
      "chip": "ym2612"
    },
    {
      "channel": 1,
      "note": 68,
      "start": 59.9166,
      "duration": 0.3236,
      "velocity": 117,
      "chip": "ym2612"
    },
    {
      "channel": 3,
      "note": 83,
      "start": 60.1101,
      "duration": 0.0801,
      "velocity": 127,
      "chip": "ym2612"
    },
    {
      "channel": 2,
      "note": 87,
      "start": 60.1128,
      "duration": 0.0776,
      "velocity": 127,
      "chip": "ym2612"
    },
    {
      "channel": 5,
      "note": 66,
      "start": 60.1163,
      "duration": 0.0574,
      "velocity": 117,
      "chip": "ym2612"
    },
    {
      "channel": 0,
      "note": 56,
      "start": 60.2269,
      "duration": 0.13,
      "velocity": 127,
      "chip": "ym2612"
    },
    {
      "channel": 4,
      "note": 66,
      "start": 60.2303,
      "duration": 0.0434,
      "velocity": 117,
      "chip": "ym2612"
    },
    {
      "channel": 5,
      "note": 68,
      "start": 60.2333,
      "duration": 0.0406,
      "velocity": 117,
      "chip": "ym2612"
    },
    {
      "channel": 3,
      "note": 50,
      "start": 60.3266,
      "duration": 0.047,
      "velocity": 107,
      "chip": "ym2612"
    },
    {
      "channel": 1,
      "note": 68,
      "start": 60.33,
      "duration": 0.0936,
      "velocity": 117,
      "chip": "ym2612"
    },
    {
      "channel": 2,
      "note": 83,
      "start": 60.4441,
      "duration": 0.0631,
      "velocity": 127,
      "chip": "ym2612"
    },
    {
      "channel": 4,
      "note": 87,
      "start": 60.4468,
      "duration": 0.0602,
      "velocity": 127,
      "chip": "ym2612"
    },
    {
      "channel": 1,
      "note": 66,
      "start": 60.45,
      "duration": 0.0401,
      "velocity": 117,
      "chip": "ym2612"
    },
    {
      "channel": 0,
      "note": 56,
      "start": 60.5436,
      "duration": 0.2133,
      "velocity": 127,
      "chip": "ym2612"
    },
    {
      "channel": 1,
      "note": 68,
      "start": 60.5468,
      "duration": 0.0934,
      "velocity": 117,
      "chip": "ym2612"
    },
    {
      "channel": 5,
      "note": 66,
      "start": 60.5502,
      "duration": 0.0402,
      "velocity": 117,
      "chip": "ym2612"
    },
    {
      "channel": 5,
      "note": 68,
      "start": 60.6443,
      "duration": 0.0628,
      "velocity": 117,
      "chip": "ym2612"
    },
    {
      "channel": 3,
      "note": 50,
      "start": 60.7598,
      "duration": 0.0471,
      "velocity": 107,
      "chip": "ym2612"
    },
    {
      "channel": 4,
      "note": 87,
      "start": 60.7626,
      "duration": 0.0611,
      "velocity": 127,
      "chip": "ym2612"
    },
    {
      "channel": 2,
      "note": 83,
      "start": 60.7655,
      "duration": 0.0584,
      "velocity": 127,
      "chip": "ym2612"
    },
    {
      "channel": 5,
      "note": 66,
      "start": 60.7688,
      "duration": 0.0383,
      "velocity": 117,
      "chip": "ym2612"
    },
    {
      "channel": 5,
      "note": 68,
      "start": 60.861,
      "duration": 0.046,
      "velocity": 117,
      "chip": "ym2612"
    },
    {
      "channel": 0,
      "note": 56,
      "start": 60.9606,
      "duration": 0.1962,
      "velocity": 127,
      "chip": "ym2612"
    },
    {
      "channel": 3,
      "note": 50,
      "start": 61.1764,
      "duration": 0.0473,
      "velocity": 107,
      "chip": "ym2612"
    },
    {
      "channel": 0,
      "note": 61,
      "start": 61.1794,
      "duration": 0.2108,
      "velocity": 127,
      "chip": "ym2612"
    },
    {
      "channel": 1,
      "note": 73,
      "start": 61.1828,
      "duration": 0.0574,
      "velocity": 104,
      "chip": "ym2612"
    },
    {
      "channel": 4,
      "note": 61,
      "start": 61.1861,
      "duration": 0.2709,
      "velocity": 117,
      "chip": "ym2612"
    },
    {
      "channel": 2,
      "note": 68,
      "start": 61.2941,
      "duration": 0.0629,
      "velocity": 104,
      "chip": "ym2612"
    },
    {
      "channel": 1,
      "note": 76,
      "start": 61.3937,
      "duration": 0.0632,
      "velocity": 104,
      "chip": "ym2612"
    },
    {
      "channel": 2,
      "note": 80,
      "start": 61.4945,
      "duration": 0.0793,
      "velocity": 104,
      "chip": "ym2612"
    },
    {
      "channel": 4,
      "note": 59,
      "start": 61.4979,
      "duration": 0.0758,
      "velocity": 117,
      "chip": "ym2612"
    },
    {
      "channel": 5,
      "note": 61,
      "start": 61.5009,
      "duration": 0.0394,
      "velocity": 117,
      "chip": "ym2612"
    },
    {
      "channel": 3,
      "note": 50,
      "start": 61.6096,
      "duration": 0.0473,
      "velocity": 107,
      "chip": "ym2612"
    },
    {
      "channel": 0,
      "note": 61,
      "start": 61.6126,
      "duration": 0.1609,
      "velocity": 127,
      "chip": "ym2612"
    },
    {
      "channel": 1,
      "note": 73,
      "start": 61.6153,
      "duration": 0.0584,
      "velocity": 104,
      "chip": "ym2612"
    },
    {
      "channel": 4,
      "note": 61,
      "start": 61.6185,
      "duration": 0.3218,
      "velocity": 117,
      "chip": "ym2612"
    },
    {
      "channel": 1,
      "note": 83,
      "start": 61.8103,
      "duration": 0.0798,
      "velocity": 104,
      "chip": "ym2612"
    },
    {
      "channel": 5,
      "note": 59,
      "start": 61.8135,
      "duration": 0.0602,
      "velocity": 117,
      "chip": "ym2612"
    },
    {
      "channel": 0,
      "note": 61,
      "start": 61.9268,
      "duration": 0.1468,
      "velocity": 127,
      "chip": "ym2612"
    },
    {
      "channel": 2,
      "note": 73,
      "start": 61.93,
      "duration": 0.0604,
      "velocity": 104,
      "chip": "ym2612"
    },
    {
      "channel": 3,
      "note": 59,
      "start": 61.9332,
      "duration": 0.0405,
      "velocity": 117,
      "chip": "ym2612"
    },
    {
      "channel": 5,
      "note": 61,
      "start": 61.9362,
      "duration": 0.0377,
      "velocity": 117,
      "chip": "ym2612"
    },
    {
      "channel": 1,
      "note": 50,
      "start": 62.0266,
      "duration": 0.0471,
      "velocity": 107,
      "chip": "ym2612"
    },
    {
      "channel": 4,
      "note": 80,
      "start": 62.0298,
      "duration": 0.0605,
      "velocity": 104,
      "chip": "ym2612"
    },
    {
      "channel": 3,
      "note": 61,
      "start": 62.0328,
      "duration": 0.0741,
      "velocity": 117,
      "chip": "ym2612"
    },
    {
      "channel": 2,
      "note": 76,
      "start": 62.1439,
      "duration": 0.0632,
      "velocity": 104,
      "chip": "ym2612"
    },
    {
      "channel": 3,
      "note": 59,
      "start": 62.1468,
      "duration": 0.0434,
      "velocity": 117,
      "chip": "ym2612"
    },
    {
      "channel": 0,
      "note": 61,
      "start": 62.2436,
      "duration": 0.2132,
      "velocity": 127,
      "chip": "ym2612"
    },
    {
      "channel": 4,
      "note": 73,
      "start": 62.2463,
      "duration": 0.0606,
      "velocity": 104,
      "chip": "ym2612"
    },
    {
      "channel": 3,
      "note": 61,
      "start": 62.2495,
      "duration": 0.0908,
      "velocity": 117,
      "chip": "ym2612"
    },
    {
      "channel": 5,
      "note": 59,
      "start": 62.2524,
      "duration": 0.0379,
      "velocity": 117,
      "chip": "ym2612"
    },
    {
      "channel": 2,
      "note": 73,
      "start": 62.3441,
      "duration": 0.0798,
      "velocity": 104,
      "chip": "ym2612"
    },
    {
      "channel": 5,
      "note": 61,
      "start": 62.3471,
      "duration": 0.0433,
      "velocity": 117,
      "chip": "ym2612"
    },
    {
      "channel": 1,
      "note": 50,
      "start": 62.4598,
      "duration": 0.0471,
      "velocity": 107,
      "chip": "ym2612"
    },
    {
      "channel": 4,
      "note": 85,
      "start": 62.4628,
      "duration": 0.0609,
      "velocity": 104,
      "chip": "ym2612"
    },
    {
      "channel": 5,
      "note": 59,
      "start": 62.4659,
      "duration": 0.0413,
      "velocity": 117,
      "chip": "ym2612"
    },
    {
      "channel": 2,
      "note": 83,
      "start": 62.5606,
      "duration": 0.0632,
      "velocity": 104,
      "chip": "ym2612"
    },
    {
      "channel": 5,
      "note": 61,
      "start": 62.5641,
      "duration": 0.0429,
      "velocity": 117,
      "chip": "ym2612"
    },
    {
      "channel": 0,
      "note": 61,
      "start": 62.6607,
      "duration": 0.1795,
      "velocity": 127,
      "chip": "ym2612"
    },
    {
      "channel": 4,
      "note": 83,
      "start": 62.6635,
      "duration": 0.0768,
      "velocity": 104,
      "chip": "ym2612"
    },
    {
      "channel": 2,
      "note": 80,
      "start": 62.7774,
      "duration": 0.0632,
      "velocity": 104,
      "chip": "ym2612"
    },
    {
      "channel": 1,
      "note": 50,
      "start": 62.8764,
      "duration": 0.0473,
      "velocity": 107,
      "chip": "ym2612"
    },
    {
      "channel": 0,
      "note": 61,
      "start": 62.8794,
      "duration": 0.2108,
      "velocity": 127,
      "chip": "ym2612"
    },
    {
      "channel": 4,
      "note": 73,
      "start": 62.8821,
      "duration": 0.0582,
      "velocity": 104,
      "chip": "ym2612"
    },
    {
      "channel": 3,
      "note": 61,
      "start": 62.8856,
      "duration": 0.2713,
      "velocity": 117,
      "chip": "ym2612"
    },
    {
      "channel": 2,
      "note": 73,
      "start": 62.994,
      "duration": 0.0632,
      "velocity": 104,
      "chip": "ym2612"
    },
    {
      "channel": 4,
      "note": 76,
      "start": 63.0938,
      "duration": 0.0632,
      "velocity": 104,
      "chip": "ym2612"
    },
    {
      "channel": 2,
      "note": 85,
      "start": 63.1941,
      "duration": 0.0798,
      "velocity": 104,
      "chip": "ym2612"
    },
    {
      "channel": 3,
      "note": 59,
      "start": 63.1972,
      "duration": 0.0765,
      "velocity": 117,
      "chip": "ym2612"
    },
    {
      "channel": 5,
      "note": 61,
      "start": 63.2002,
      "duration": 0.0402,
      "velocity": 117,
      "chip": "ym2612"
    },
    {
      "channel": 1,
      "note": 50,
      "start": 63.3096,
      "duration": 0.0473,
      "velocity": 107,
      "chip": "ym2612"
    },
    {
      "channel": 0,
      "note": 61,
      "start": 63.3126,
      "duration": 0.161,
      "velocity": 127,
      "chip": "ym2612"
    },
    {
      "channel": 4,
      "note": 73,
      "start": 63.3154,
      "duration": 0.0583,
      "velocity": 104,
      "chip": "ym2612"
    },
    {
      "channel": 3,
      "note": 61,
      "start": 63.3185,
      "duration": 0.3218,
      "velocity": 117,
      "chip": "ym2612"
    },
    {
      "channel": 4,
      "note": 83,
      "start": 63.5103,
      "duration": 0.08,
      "velocity": 104,
      "chip": "ym2612"
    },
    {
      "channel": 5,
      "note": 59,
      "start": 63.5135,
      "duration": 0.0602,
      "velocity": 117,
      "chip": "ym2612"
    },
    {
      "channel": 0,
      "note": 61,
      "start": 63.6269,
      "duration": 0.1467,
      "velocity": 127,
      "chip": "ym2612"
    },
    {
      "channel": 2,
      "note": 73,
      "start": 63.63,
      "duration": 0.0604,
      "velocity": 104,
      "chip": "ym2612"
    },
    {
      "channel": 1,
      "note": 59,
      "start": 63.6332,
      "duration": 0.0405,
      "velocity": 117,
      "chip": "ym2612"
    },
    {
      "channel": 5,
      "note": 61,
      "start": 63.6362,
      "duration": 0.0377,
      "velocity": 117,
      "chip": "ym2612"
    },
    {
      "channel": 4,
      "note": 50,
      "start": 63.7266,
      "duration": 0.0473,
      "velocity": 107,
      "chip": "ym2612"
    },
    {
      "channel": 3,
      "note": 80,
      "start": 63.7298,
      "duration": 0.0604,
      "velocity": 104,
      "chip": "ym2612"
    },
    {
      "channel": 1,
      "note": 61,
      "start": 63.7327,
      "duration": 0.0742,
      "velocity": 117,
      "chip": "ym2612"
    },
    {
      "channel": 2,
      "note": 76,
      "start": 63.844,
      "duration": 0.0631,
      "velocity": 104,
      "chip": "ym2612"
    },
    {
      "channel": 1,
      "note": 59,
      "start": 63.8468,
      "duration": 0.0434,
      "velocity": 117,
      "chip": "ym2612"
    },
    {
      "channel": 0,
      "note": 61,
      "start": 63.9436,
      "duration": 0.2132,
      "velocity": 127,
      "chip": "ym2612"
    },
    {
      "channel": 3,
      "note": 73,
      "start": 63.9463,
      "duration": 0.0607,
      "velocity": 104,
      "chip": "ym2612"
    },
    {
      "channel": 1,
      "note": 61,
      "start": 63.9498,
      "duration": 0.0905,
      "velocity": 117,
      "chip": "ym2612"
    },
    {
      "channel": 5,
      "note": 59,
      "start": 63.9527,
      "duration": 0.0376,
      "velocity": 117,
      "chip": "ym2612"
    },
    {
      "channel": 2,
      "note": 73,
      "start": 64.0441,
      "duration": 0.0798,
      "velocity": 104,
      "chip": "ym2612"
    },
    {
      "channel": 5,
      "note": 61,
      "start": 64.047,
      "duration": 0.0433,
      "velocity": 117,
      "chip": "ym2612"
    },
    {
      "channel": 4,
      "note": 50,
      "start": 64.1598,
      "duration": 0.0471,
      "velocity": 107,
      "chip": "ym2612"
    },
    {
      "channel": 3,
      "note": 85,
      "start": 64.1629,
      "duration": 0.0608,
      "velocity": 104,
      "chip": "ym2612"
    },
    {
      "channel": 5,
      "note": 59,
      "start": 64.1659,
      "duration": 0.0412,
      "velocity": 117,
      "chip": "ym2612"
    },
    {
      "channel": 2,
      "note": 83,
      "start": 64.2607,
      "duration": 0.0631,
      "velocity": 104,
      "chip": "ym2612"
    },
    {
      "channel": 5,
      "note": 61,
      "start": 64.2638,
      "duration": 0.0432,
      "velocity": 117,
      "chip": "ym2612"
    },
    {
      "channel": 0,
      "note": 61,
      "start": 64.3603,
      "duration": 0.1798,
      "velocity": 127,
      "chip": "ym2612"
    },
    {
      "channel": 3,
      "note": 83,
      "start": 64.3634,
      "duration": 0.0768,
      "velocity": 104,
      "chip": "ym2612"
    },
    {
      "channel": 2,
      "note": 80,
      "start": 64.4773,
      "duration": 0.0631,
      "velocity": 104,
      "chip": "ym2612"
    },
    {
      "channel": 4,
      "note": 50,
      "start": 64.5765,
      "duration": 0.0472,
      "velocity": 107,
      "chip": "ym2612"
    },
    {
      "channel": 0,
      "note": 56,
      "start": 64.5799,
      "duration": 0.2103,
      "velocity": 127,
      "chip": "ym2612"
    },
    {
      "channel": 3,
      "note": 68,
      "start": 64.5826,
      "duration": 0.0576,
      "velocity": 104,
      "chip": "ym2612"
    },
    {
      "channel": 1,
      "note": 56,
      "start": 64.5857,
      "duration": 0.2712,
      "velocity": 117,
      "chip": "ym2612"
    },
    {
      "channel": 2,
      "note": 73,
      "start": 64.6943,
      "duration": 0.0628,
      "velocity": 104,
      "chip": "ym2612"
    },
    {
      "channel": 3,
      "note": 71,
      "start": 64.7937,
      "duration": 0.0633,
      "velocity": 104,
      "chip": "ym2612"
    },
    {
      "channel": 2,
      "note": 85,
      "start": 64.8942,
      "duration": 0.0797,
      "velocity": 104,
      "chip": "ym2612"
    },
    {
      "channel": 1,
      "note": 54,
      "start": 64.8972,
      "duration": 0.0765,
      "velocity": 117,
      "chip": "ym2612"
    },
    {
      "channel": 5,
      "note": 56,
      "start": 64.9002,
      "duration": 0.0402,
      "velocity": 117,
      "chip": "ym2612"
    },
    {
      "channel": 4,
      "note": 50,
      "start": 65.0097,
      "duration": 0.0473,
      "velocity": 107,
      "chip": "ym2612"
    },
    {
      "channel": 0,
      "note": 56,
      "start": 65.0127,
      "duration": 0.1609,
      "velocity": 127,
      "chip": "ym2612"
    },
    {
      "channel": 3,
      "note": 68,
      "start": 65.0154,
      "duration": 0.0582,
      "velocity": 104,
      "chip": "ym2612"
    },
    {
      "channel": 1,
      "note": 56,
      "start": 65.0185,
      "duration": 0.3218,
      "velocity": 117,
      "chip": "ym2612"
    },
    {
      "channel": 3,
      "note": 78,
      "start": 65.2103,
      "duration": 0.08,
      "velocity": 104,
      "chip": "ym2612"
    },
    {
      "channel": 5,
      "note": 54,
      "start": 65.2139,
      "duration": 0.06,
      "velocity": 117,
      "chip": "ym2612"
    },
    {
      "channel": 0,
      "note": 56,
      "start": 65.3269,
      "duration": 0.1466,
      "velocity": 127,
      "chip": "ym2612"
    },
    {
      "channel": 2,
      "note": 68,
      "start": 65.3301,
      "duration": 0.0604,
      "velocity": 104,
      "chip": "ym2612"
    },
    {
      "channel": 4,
      "note": 54,
      "start": 65.3333,
      "duration": 0.0404,
      "velocity": 117,
      "chip": "ym2612"
    },
    {
      "channel": 5,
      "note": 56,
      "start": 65.3363,
      "duration": 0.0375,
      "velocity": 117,
      "chip": "ym2612"
    },
    {
      "channel": 3,
      "note": 50,
      "start": 65.4266,
      "duration": 0.0471,
      "velocity": 107,
      "chip": "ym2612"
    },
    {
      "channel": 1,
      "note": 75,
      "start": 65.4298,
      "duration": 0.0604,
      "velocity": 104,
      "chip": "ym2612"
    },
    {
      "channel": 4,
      "note": 56,
      "start": 65.4328,
      "duration": 0.0741,
      "velocity": 117,
      "chip": "ym2612"
    },
    {
      "channel": 2,
      "note": 71,
      "start": 65.5273,
      "duration": 0.0797,
      "velocity": 104,
      "chip": "ym2612"
    },
    {
      "channel": 4,
      "note": 54,
      "start": 65.5306,
      "duration": 0.0597,
      "velocity": 117,
      "chip": "ym2612"
    },
    {
      "channel": 0,
      "note": 56,
      "start": 65.6437,
      "duration": 0.2131,
      "velocity": 127,
      "chip": "ym2612"
    },
    {
      "channel": 1,
      "note": 68,
      "start": 65.6463,
      "duration": 0.0606,
      "velocity": 104,
      "chip": "ym2612"
    },
    {
      "channel": 4,
      "note": 56,
      "start": 65.6495,
      "duration": 0.0909,
      "velocity": 117,
      "chip": "ym2612"
    },
    {
      "channel": 5,
      "note": 54,
      "start": 65.6524,
      "duration": 0.0379,
      "velocity": 117,
      "chip": "ym2612"
    },
    {
      "channel": 2,
      "note": 68,
      "start": 65.7441,
      "duration": 0.063,
      "velocity": 104,
      "chip": "ym2612"
    },
    {
      "channel": 5,
      "note": 56,
      "start": 65.7471,
      "duration": 0.0433,
      "velocity": 117,
      "chip": "ym2612"
    },
    {
      "channel": 3,
      "note": 50,
      "start": 65.8597,
      "duration": 0.0473,
      "velocity": 107,
      "chip": "ym2612"
    },
    {
      "channel": 1,
      "note": 80,
      "start": 65.8627,
      "duration": 0.061,
      "velocity": 104,
      "chip": "ym2612"
    },
    {
      "channel": 5,
      "note": 54,
      "start": 65.8657,
      "duration": 0.0415,
      "velocity": 117,
      "chip": "ym2612"
    },
    {
      "channel": 2,
      "note": 78,
      "start": 65.9605,
      "duration": 0.0632,
      "velocity": 104,
      "chip": "ym2612"
    },
    {
      "channel": 5,
      "note": 56,
      "start": 65.9637,
      "duration": 0.0434,
      "velocity": 117,
      "chip": "ym2612"
    },
    {
      "channel": 0,
      "note": 56,
      "start": 66.0603,
      "duration": 0.1798,
      "velocity": 127,
      "chip": "ym2612"
    },
    {
      "channel": 1,
      "note": 78,
      "start": 66.0629,
      "duration": 0.0773,
      "velocity": 104,
      "chip": "ym2612"
    },
    {
      "channel": 2,
      "note": 75,
      "start": 66.1773,
      "duration": 0.0632,
      "velocity": 104,
      "chip": "ym2612"
    },
    {
      "channel": 3,
      "note": 50,
      "start": 66.2764,
      "duration": 0.0473,
      "velocity": 107,
      "chip": "ym2612"
    },
    {
      "channel": 0,
      "note": 59,
      "start": 66.2794,
      "duration": 0.2109,
      "velocity": 127,
      "chip": "ym2612"
    },
    {
      "channel": 1,
      "note": 68,
      "start": 66.282,
      "duration": 0.0581,
      "velocity": 104,
      "chip": "ym2612"
    },
    {
      "channel": 4,
      "note": 56,
      "start": 66.2852,
      "duration": 0.2719,
      "velocity": 117,
      "chip": "ym2612"
    },
    {
      "channel": 2,
      "note": 68,
      "start": 66.3773,
      "duration": 0.0797,
      "velocity": 104,
      "chip": "ym2612"
    },
    {
      "channel": 1,
      "note": 71,
      "start": 66.4937,
      "duration": 0.0632,
      "velocity": 104,
      "chip": "ym2612"
    },
    {
      "channel": 2,
      "note": 80,
      "start": 66.5941,
      "duration": 0.0631,
      "velocity": 104,
      "chip": "ym2612"
    },
    {
      "channel": 4,
      "note": 54,
      "start": 66.5972,
      "duration": 0.0598,
      "velocity": 117,
      "chip": "ym2612"
    },
    {
      "channel": 5,
      "note": 56,
      "start": 66.6002,
      "duration": 0.0401,
      "velocity": 117,
      "chip": "ym2612"
    },
    {
      "channel": 3,
      "note": 50,
      "start": 66.71,
      "duration": 0.047,
      "velocity": 107,
      "chip": "ym2612"
    },
    {
      "channel": 0,
      "note": 56,
      "start": 66.7134,
      "duration": 0.1602,
      "velocity": 127,
      "chip": "ym2612"
    },
    {
      "channel": 1,
      "note": 68,
      "start": 66.7161,
      "duration": 0.0576,
      "velocity": 104,
      "chip": "ym2612"
    },
    {
      "channel": 4,
      "note": 56,
      "start": 66.7193,
      "duration": 0.3211,
      "velocity": 117,
      "chip": "ym2612"
    },
    {
      "channel": 1,
      "note": 78,
      "start": 66.9102,
      "duration": 0.08,
      "velocity": 104,
      "chip": "ym2612"
    },
    {
      "channel": 5,
      "note": 54,
      "start": 66.9135,
      "duration": 0.0604,
      "velocity": 117,
      "chip": "ym2612"
    },
    {
      "channel": 0,
      "note": 56,
      "start": 67.0269,
      "duration": 0.1299,
      "velocity": 127,
      "chip": "ym2612"
    },
    {
      "channel": 2,
      "note": 68,
      "start": 67.0301,
      "duration": 0.0602,
      "velocity": 104,
      "chip": "ym2612"
    },
    {
      "channel": 3,
      "note": 54,
      "start": 67.0332,
      "duration": 0.0405,
      "velocity": 117,
      "chip": "ym2612"
    },
    {
      "channel": 5,
      "note": 56,
      "start": 67.0362,
      "duration": 0.0377,
      "velocity": 117,
      "chip": "ym2612"
    },
    {
      "channel": 1,
      "note": 50,
      "start": 67.1266,
      "duration": 0.0471,
      "velocity": 107,
      "chip": "ym2612"
    },
    {
      "channel": 4,
      "note": 75,
      "start": 67.1298,
      "duration": 0.0606,
      "velocity": 104,
      "chip": "ym2612"
    },
    {
      "channel": 3,
      "note": 56,
      "start": 67.1331,
      "duration": 0.0739,
      "velocity": 117,
      "chip": "ym2612"
    },
    {
      "channel": 2,
      "note": 71,
      "start": 67.2273,
      "duration": 0.0797,
      "velocity": 104,
      "chip": "ym2612"
    },
    {
      "channel": 3,
      "note": 54,
      "start": 67.2302,
      "duration": 0.0601,
      "velocity": 117,
      "chip": "ym2612"
    },
    {
      "channel": 0,
      "note": 56,
      "start": 67.3437,
      "duration": 0.2132,
      "velocity": 127,
      "chip": "ym2612"
    },
    {
      "channel": 4,
      "note": 68,
      "start": 67.3464,
      "duration": 0.0606,
      "velocity": 104,
      "chip": "ym2612"
    },
    {
      "channel": 3,
      "note": 56,
      "start": 67.3497,
      "duration": 0.0907,
      "velocity": 117,
      "chip": "ym2612"
    },
    {
      "channel": 5,
      "note": 54,
      "start": 67.353,
      "duration": 0.0373,
      "velocity": 117,
      "chip": "ym2612"
    },
    {
      "channel": 2,
      "note": 68,
      "start": 67.4441,
      "duration": 0.063,
      "velocity": 104,
      "chip": "ym2612"
    },
    {
      "channel": 5,
      "note": 56,
      "start": 67.4471,
      "duration": 0.0433,
      "velocity": 117,
      "chip": "ym2612"
    },
    {
      "channel": 1,
      "note": 50,
      "start": 67.5598,
      "duration": 0.0471,
      "velocity": 107,
      "chip": "ym2612"
    },
    {
      "channel": 4,
      "note": 80,
      "start": 67.5628,
      "duration": 0.0609,
      "velocity": 104,
      "chip": "ym2612"
    },
    {
      "channel": 5,
      "note": 54,
      "start": 67.5659,
      "duration": 0.0413,
      "velocity": 117,
      "chip": "ym2612"
    },
    {
      "channel": 2,
      "note": 78,
      "start": 67.661,
      "duration": 0.0628,
      "velocity": 104,
      "chip": "ym2612"
    },
    {
      "channel": 5,
      "note": 56,
      "start": 67.6643,
      "duration": 0.0427,
      "velocity": 117,
      "chip": "ym2612"
    },
    {
      "channel": 0,
      "note": 56,
      "start": 67.7602,
      "duration": 0.1966,
      "velocity": 127,
      "chip": "ym2612"
    },
    {
      "channel": 4,
      "note": 78,
      "start": 67.7633,
      "duration": 0.077,
      "velocity": 104,
      "chip": "ym2612"
    },
    {
      "channel": 2,
      "note": 75,
      "start": 67.8775,
      "duration": 0.0628,
      "velocity": 104,
      "chip": "ym2612"
    },
    {
      "channel": 1,
      "note": 50,
      "start": 67.9763,
      "duration": 0.0473,
      "velocity": 107,
      "chip": "ym2612"
    },
    {
      "channel": 3,
      "note": 78,
      "start": 67.9793,
      "duration": 0.0609,
      "velocity": 127,
      "chip": "ym2612"
    },
    {
      "channel": 5,
      "note": 82,
      "start": 67.9824,
      "duration": 0.058,
      "velocity": 127,
      "chip": "ym2612"
    },
    {
      "channel": 0,
      "note": 63,
      "start": 67.9851,
      "duration": 0.1884,
      "velocity": 127,
      "chip": "ym2612"
    },
    {
      "channel": 4,
      "note": 75,
      "start": 67.9878,
      "duration": 0.0525,
      "velocity": 104,
      "chip": "ym2612"
    },
    {
      "channel": 2,
      "note": 82,
      "start": 68.1936,
      "duration": 0.0637,
      "velocity": 127,
      "chip": "ym2612"
    },
    {
      "channel": 1,
      "note": 78,
      "start": 68.1963,
      "duration": 0.0606,
      "velocity": 127,
      "chip": "ym2612"
    },
    {
      "channel": 4,
      "note": 78,
      "start": 68.1992,
      "duration": 0.0579,
      "velocity": 104,
      "chip": "ym2612"
    },
    {
      "channel": 3,
      "note": 75,
      "start": 68.2941,
      "duration": 0.0628,
      "velocity": 104,
      "chip": "ym2612"
    },
    {
      "channel": 5,
      "note": 50,
      "start": 68.4098,
      "duration": 0.0473,
      "velocity": 107,
      "chip": "ym2612"
    },
    {
      "channel": 0,
      "note": 78,
      "start": 68.4126,
      "duration": 0.061,
      "velocity": 127,
      "chip": "ym2612"
    },
    {
      "channel": 1,
      "note": 82,
      "start": 68.4154,
      "duration": 0.0583,
      "velocity": 127,
      "chip": "ym2612"
    },
    {
      "channel": 4,
      "note": 63,
      "start": 68.4184,
      "duration": 0.1719,
      "velocity": 127,
      "chip": "ym2612"
    },
    {
      "channel": 2,
      "note": 75,
      "start": 68.4212,
      "duration": 0.0527,
      "velocity": 104,
      "chip": "ym2612"
    },
    {
      "channel": 3,
      "note": 78,
      "start": 68.5104,
      "duration": 0.0633,
      "velocity": 104,
      "chip": "ym2612"
    },
    {
      "channel": 5,
      "note": 82,
      "start": 68.6103,
      "duration": 0.0802,
      "velocity": 127,
      "chip": "ym2612"
    },
    {
      "channel": 0,
      "note": 78,
      "start": 68.6134,
      "duration": 0.0768,
      "velocity": 127,
      "chip": "ym2612"
    },
    {
      "channel": 2,
      "note": 85,
      "start": 68.6163,
      "duration": 0.0742,
      "velocity": 104,
      "chip": "ym2612"
    },
    {
      "channel": 1,
      "note": 78,
      "start": 68.7267,
      "duration": 0.0636,
      "velocity": 127,
      "chip": "ym2612"
    },
    {
      "channel": 3,
      "note": 82,
      "start": 68.7294,
      "duration": 0.0609,
      "velocity": 127,
      "chip": "ym2612"
    },
    {
      "channel": 4,
      "note": 63,
      "start": 68.7327,
      "duration": 0.141,
      "velocity": 127,
      "chip": "ym2612"
    },
    {
      "channel": 0,
      "note": 75,
      "start": 68.7357,
      "duration": 0.0544,
      "velocity": 104,
      "chip": "ym2612"
    },
    {
      "channel": 5,
      "note": 50,
      "start": 68.8266,
      "duration": 0.0473,
      "velocity": 107,
      "chip": "ym2612"
    },
    {
      "channel": 2,
      "note": 82,
      "start": 68.8298,
      "duration": 0.0606,
      "velocity": 104,
      "chip": "ym2612"
    },
    {
      "channel": 0,
      "note": 82,
      "start": 68.9269,
      "duration": 0.0798,
      "velocity": 127,
      "chip": "ym2612"
    },
    {
      "channel": 1,
      "note": 78,
      "start": 68.9296,
      "duration": 0.0773,
      "velocity": 127,
      "chip": "ym2612"
    },
    {
      "channel": 3,
      "note": 85,
      "start": 68.9327,
      "duration": 0.0744,
      "velocity": 104,
      "chip": "ym2612"
    },
    {
      "channel": 4,
      "note": 82,
      "start": 69.0436,
      "duration": 0.0635,
      "velocity": 127,
      "chip": "ym2612"
    },
    {
      "channel": 5,
      "note": 78,
      "start": 69.0462,
      "duration": 0.061,
      "velocity": 127,
      "chip": "ym2612"
    },
    {
      "channel": 2,
      "note": 63,
      "start": 69.0495,
      "duration": 0.2243,
      "velocity": 127,
      "chip": "ym2612"
    },
    {
      "channel": 0,
      "note": 75,
      "start": 69.0523,
      "duration": 0.0545,
      "velocity": 104,
      "chip": "ym2612"
    },
    {
      "channel": 3,
      "note": 82,
      "start": 69.1438,
      "duration": 0.0632,
      "velocity": 104,
      "chip": "ym2612"
    },
    {
      "channel": 1,
      "note": 50,
      "start": 69.2599,
      "duration": 0.0471,
      "velocity": 107,
      "chip": "ym2612"
    },
    {
      "channel": 0,
      "note": 78,
      "start": 69.2628,
      "duration": 0.0607,
      "velocity": 127,
      "chip": "ym2612"
    },
    {
      "channel": 4,
      "note": 82,
      "start": 69.2656,
      "duration": 0.0582,
      "velocity": 127,
      "chip": "ym2612"
    },
    {
      "channel": 5,
      "note": 87,
      "start": 69.2685,
      "duration": 0.0555,
      "velocity": 104,
      "chip": "ym2612"
    },
    {
      "channel": 3,
      "note": 75,
      "start": 69.3604,
      "duration": 0.0632,
      "velocity": 104,
      "chip": "ym2612"
    },
    {
      "channel": 2,
      "note": 82,
      "start": 69.4603,
      "duration": 0.0802,
      "velocity": 127,
      "chip": "ym2612"
    },
    {
      "channel": 1,
      "note": 78,
      "start": 69.4633,
      "duration": 0.0768,
      "velocity": 127,
      "chip": "ym2612"
    },
    {
      "channel": 0,
      "note": 63,
      "start": 69.4665,
      "duration": 0.1904,
      "velocity": 127,
      "chip": "ym2612"
    },
    {
      "channel": 5,
      "note": 85,
      "start": 69.4693,
      "duration": 0.071,
      "velocity": 104,
      "chip": "ym2612"
    },
    {
      "channel": 3,
      "note": 87,
      "start": 69.5773,
      "duration": 0.0629,
      "velocity": 104,
      "chip": "ym2612"
    },
    {
      "channel": 4,
      "note": 50,
      "start": 69.6765,
      "duration": 0.0473,
      "velocity": 107,
      "chip": "ym2612"
    },
    {
      "channel": 1,
      "note": 78,
      "start": 69.6791,
      "duration": 0.0612,
      "velocity": 127,
      "chip": "ym2612"
    },
    {
      "channel": 2,
      "note": 82,
      "start": 69.6818,
      "duration": 0.0588,
      "velocity": 127,
      "chip": "ym2612"
    },
    {
      "channel": 0,
      "note": 63,
      "start": 69.6846,
      "duration": 0.189,
      "velocity": 127,
      "chip": "ym2612"
    },
    {
      "channel": 5,
      "note": 75,
      "start": 69.6874,
      "duration": 0.0531,
      "velocity": 104,
      "chip": "ym2612"
    },
    {
      "channel": 3,
      "note": 82,
      "start": 69.8936,
      "duration": 0.0634,
      "velocity": 127,
      "chip": "ym2612"
    },
    {
      "channel": 4,
      "note": 78,
      "start": 69.8963,
      "duration": 0.0607,
      "velocity": 127,
      "chip": "ym2612"
    },
    {
      "channel": 5,
      "note": 78,
      "start": 69.8992,
      "duration": 0.058,
      "velocity": 104,
      "chip": "ym2612"
    },
    {
      "channel": 1,
      "note": 75,
      "start": 69.9941,
      "duration": 0.0628,
      "velocity": 104,
      "chip": "ym2612"
    },
    {
      "channel": 2,
      "note": 50,
      "start": 70.1099,
      "duration": 0.0473,
      "velocity": 107,
      "chip": "ym2612"
    },
    {
      "channel": 0,
      "note": 78,
      "start": 70.1127,
      "duration": 0.0609,
      "velocity": 127,
      "chip": "ym2612"
    },
    {
      "channel": 3,
      "note": 82,
      "start": 70.1154,
      "duration": 0.0583,
      "velocity": 127,
      "chip": "ym2612"
    },
    {
      "channel": 4,
      "note": 63,
      "start": 70.1184,
      "duration": 0.1718,
      "velocity": 127,
      "chip": "ym2612"
    },
    {
      "channel": 5,
      "note": 75,
      "start": 70.1212,
      "duration": 0.0527,
      "velocity": 104,
      "chip": "ym2612"
    },
    {
      "channel": 1,
      "note": 78,
      "start": 70.2103,
      "duration": 0.0633,
      "velocity": 104,
      "chip": "ym2612"
    },
    {
      "channel": 2,
      "note": 82,
      "start": 70.3103,
      "duration": 0.0802,
      "velocity": 127,
      "chip": "ym2612"
    },
    {
      "channel": 0,
      "note": 78,
      "start": 70.3134,
      "duration": 0.0767,
      "velocity": 127,
      "chip": "ym2612"
    },
    {
      "channel": 5,
      "note": 85,
      "start": 70.3163,
      "duration": 0.074,
      "velocity": 104,
      "chip": "ym2612"
    },
    {
      "channel": 3,
      "note": 78,
      "start": 70.4267,
      "duration": 0.0637,
      "velocity": 127,
      "chip": "ym2612"
    },
    {
      "channel": 1,
      "note": 82,
      "start": 70.4294,
      "duration": 0.0608,
      "velocity": 127,
      "chip": "ym2612"
    },
    {
      "channel": 4,
      "note": 63,
      "start": 70.4324,
      "duration": 0.1413,
      "velocity": 127,
      "chip": "ym2612"
    },
    {
      "channel": 0,
      "note": 75,
      "start": 70.4353,
      "duration": 0.0548,
      "velocity": 104,
      "chip": "ym2612"
    },
    {
      "channel": 5,
      "note": 50,
      "start": 70.5266,
      "duration": 0.0473,
      "velocity": 107,
      "chip": "ym2612"
    },
    {
      "channel": 2,
      "note": 82,
      "start": 70.5299,
      "duration": 0.0604,
      "velocity": 104,
      "chip": "ym2612"
    },
    {
      "channel": 0,
      "note": 82,
      "start": 70.6269,
      "duration": 0.0799,
      "velocity": 127,
      "chip": "ym2612"
    },
    {
      "channel": 1,
      "note": 78,
      "start": 70.6296,
      "duration": 0.0774,
      "velocity": 127,
      "chip": "ym2612"
    },
    {
      "channel": 3,
      "note": 85,
      "start": 70.6331,
      "duration": 0.074,
      "velocity": 104,
      "chip": "ym2612"
    },
    {
      "channel": 4,
      "note": 82,
      "start": 70.7436,
      "duration": 0.0635,
      "velocity": 127,
      "chip": "ym2612"
    },
    {
      "channel": 5,
      "note": 78,
      "start": 70.7466,
      "duration": 0.0606,
      "velocity": 127,
      "chip": "ym2612"
    },
    {
      "channel": 2,
      "note": 63,
      "start": 70.7498,
      "duration": 0.2239,
      "velocity": 127,
      "chip": "ym2612"
    },
    {
      "channel": 0,
      "note": 75,
      "start": 70.7527,
      "duration": 0.0541,
      "velocity": 104,
      "chip": "ym2612"
    },
    {
      "channel": 3,
      "note": 82,
      "start": 70.8437,
      "duration": 0.0632,
      "velocity": 104,
      "chip": "ym2612"
    },
    {
      "channel": 1,
      "note": 50,
      "start": 70.9599,
      "duration": 0.0471,
      "velocity": 107,
      "chip": "ym2612"
    },
    {
      "channel": 0,
      "note": 78,
      "start": 70.9628,
      "duration": 0.0607,
      "velocity": 127,
      "chip": "ym2612"
    },
    {
      "channel": 4,
      "note": 82,
      "start": 70.9656,
      "duration": 0.0582,
      "velocity": 127,
      "chip": "ym2612"
    },
    {
      "channel": 5,
      "note": 87,
      "start": 70.9685,
      "duration": 0.0555,
      "velocity": 104,
      "chip": "ym2612"
    },
    {
      "channel": 3,
      "note": 75,
      "start": 71.0604,
      "duration": 0.0632,
      "velocity": 104,
      "chip": "ym2612"
    },
    {
      "channel": 2,
      "note": 82,
      "start": 71.1602,
      "duration": 0.0803,
      "velocity": 127,
      "chip": "ym2612"
    },
    {
      "channel": 1,
      "note": 78,
      "start": 71.1629,
      "duration": 0.0773,
      "velocity": 127,
      "chip": "ym2612"
    },
    {
      "channel": 0,
      "note": 63,
      "start": 71.1665,
      "duration": 0.1903,
      "velocity": 127,
      "chip": "ym2612"
    },
    {
      "channel": 5,
      "note": 85,
      "start": 71.1696,
      "duration": 0.0708,
      "velocity": 104,
      "chip": "ym2612"
    },
    {
      "channel": 3,
      "note": 87,
      "start": 71.2775,
      "duration": 0.0628,
      "velocity": 104,
      "chip": "ym2612"
    },
    {
      "channel": 4,
      "note": 50,
      "start": 71.3766,
      "duration": 0.0472,
      "velocity": 107,
      "chip": "ym2612"
    },
    {
      "channel": 1,
      "note": 78,
      "start": 71.3792,
      "duration": 0.0611,
      "velocity": 127,
      "chip": "ym2612"
    },
    {
      "channel": 2,
      "note": 82,
      "start": 71.3818,
      "duration": 0.0588,
      "velocity": 127,
      "chip": "ym2612"
    },
    {
      "channel": 0,
      "note": 58,
      "start": 71.3846,
      "duration": 0.1889,
      "velocity": 127,
      "chip": "ym2612"
    },
    {
      "channel": 5,
      "note": 70,
      "start": 71.3874,
      "duration": 0.0531,
      "velocity": 104,
      "chip": "ym2612"
    },
    {
      "channel": 3,
      "note": 82,
      "start": 71.5936,
      "duration": 0.0634,
      "velocity": 127,
      "chip": "ym2612"
    },
    {
      "channel": 4,
      "note": 78,
      "start": 71.5963,
      "duration": 0.0607,
      "velocity": 127,
      "chip": "ym2612"
    },
    {
      "channel": 5,
      "note": 73,
      "start": 71.5992,
      "duration": 0.058,
      "velocity": 104,
      "chip": "ym2612"
    },
    {
      "channel": 1,
      "note": 70,
      "start": 71.6941,
      "duration": 0.0628,
      "velocity": 104,
      "chip": "ym2612"
    },
    {
      "channel": 2,
      "note": 50,
      "start": 71.8099,
      "duration": 0.0471,
      "velocity": 107,
      "chip": "ym2612"
    },
    {
      "channel": 0,
      "note": 78,
      "start": 71.8127,
      "duration": 0.0609,
      "velocity": 127,
      "chip": "ym2612"
    },
    {
      "channel": 3,
      "note": 82,
      "start": 71.8154,
      "duration": 0.0583,
      "velocity": 127,
      "chip": "ym2612"
    },
    {
      "channel": 4,
      "note": 58,
      "start": 71.8184,
      "duration": 0.1718,
      "velocity": 127,
      "chip": "ym2612"
    },
    {
      "channel": 5,
      "note": 70,
      "start": 71.8212,
      "duration": 0.0527,
      "velocity": 104,
      "chip": "ym2612"
    },
    {
      "channel": 1,
      "note": 73,
      "start": 71.9103,
      "duration": 0.0633,
      "velocity": 104,
      "chip": "ym2612"
    },
    {
      "channel": 2,
      "note": 82,
      "start": 72.0103,
      "duration": 0.0804,
      "velocity": 127,
      "chip": "ym2612"
    },
    {
      "channel": 0,
      "note": 78,
      "start": 72.0133,
      "duration": 0.0769,
      "velocity": 127,
      "chip": "ym2612"
    },
    {
      "channel": 5,
      "note": 80,
      "start": 72.0163,
      "duration": 0.0742,
      "velocity": 104,
      "chip": "ym2612"
    },
    {
      "channel": 3,
      "note": 78,
      "start": 72.1266,
      "duration": 0.0638,
      "velocity": 127,
      "chip": "ym2612"
    },
    {
      "channel": 1,
      "note": 82,
      "start": 72.1298,
      "duration": 0.0606,
      "velocity": 127,
      "chip": "ym2612"
    },
    {
      "channel": 4,
      "note": 58,
      "start": 72.1327,
      "duration": 0.141,
      "velocity": 127,
      "chip": "ym2612"
    },
    {
      "channel": 0,
      "note": 70,
      "start": 72.1356,
      "duration": 0.0546,
      "velocity": 104,
      "chip": "ym2612"
    },
    {
      "channel": 5,
      "note": 50,
      "start": 72.2266,
      "duration": 0.0473,
      "velocity": 107,
      "chip": "ym2612"
    },
    {
      "channel": 2,
      "note": 77,
      "start": 72.2299,
      "duration": 0.0604,
      "velocity": 104,
      "chip": "ym2612"
    },
    {
      "channel": 0,
      "note": 82,
      "start": 72.3269,
      "duration": 0.0798,
      "velocity": 127,
      "chip": "ym2612"
    },
    {
      "channel": 1,
      "note": 78,
      "start": 72.3296,
      "duration": 0.0773,
      "velocity": 127,
      "chip": "ym2612"
    },
    {
      "channel": 3,
      "note": 80,
      "start": 72.3327,
      "duration": 0.0744,
      "velocity": 104,
      "chip": "ym2612"
    },
    {
      "channel": 4,
      "note": 82,
      "start": 72.4436,
      "duration": 0.0635,
      "velocity": 127,
      "chip": "ym2612"
    },
    {
      "channel": 5,
      "note": 78,
      "start": 72.4462,
      "duration": 0.061,
      "velocity": 127,
      "chip": "ym2612"
    },
    {
      "channel": 2,
      "note": 58,
      "start": 72.4495,
      "duration": 0.2244,
      "velocity": 127,
      "chip": "ym2612"
    },
    {
      "channel": 0,
      "note": 70,
      "start": 72.4523,
      "duration": 0.0545,
      "velocity": 104,
      "chip": "ym2612"
    },
    {
      "channel": 3,
      "note": 77,
      "start": 72.5437,
      "duration": 0.0632,
      "velocity": 104,
      "chip": "ym2612"
    },
    {
      "channel": 1,
      "note": 50,
      "start": 72.66,
      "duration": 0.0469,
      "velocity": 107,
      "chip": "ym2612"
    },
    {
      "channel": 0,
      "note": 78,
      "start": 72.6629,
      "duration": 0.0607,
      "velocity": 127,
      "chip": "ym2612"
    },
    {
      "channel": 4,
      "note": 82,
      "start": 72.6656,
      "duration": 0.0583,
      "velocity": 127,
      "chip": "ym2612"
    },
    {
      "channel": 5,
      "note": 82,
      "start": 72.6685,
      "duration": 0.0554,
      "velocity": 104,
      "chip": "ym2612"
    },
    {
      "channel": 3,
      "note": 70,
      "start": 72.7604,
      "duration": 0.0632,
      "velocity": 104,
      "chip": "ym2612"
    },
    {
      "channel": 2,
      "note": 82,
      "start": 72.8602,
      "duration": 0.0803,
      "velocity": 127,
      "chip": "ym2612"
    },
    {
      "channel": 1,
      "note": 78,
      "start": 72.8629,
      "duration": 0.0772,
      "velocity": 127,
      "chip": "ym2612"
    },
    {
      "channel": 0,
      "note": 58,
      "start": 72.8661,
      "duration": 0.1906,
      "velocity": 127,
      "chip": "ym2612"
    },
    {
      "channel": 5,
      "note": 80,
      "start": 72.8689,
      "duration": 0.0715,
      "velocity": 104,
      "chip": "ym2612"
    },
    {
      "channel": 3,
      "note": 82,
      "start": 72.9774,
      "duration": 0.0629,
      "velocity": 104,
      "chip": "ym2612"
    },
    {
      "channel": 4,
      "note": 50,
      "start": 73.0766,
      "duration": 0.0473,
      "velocity": 107,
      "chip": "ym2612"
    },
    {
      "channel": 1,
      "note": 78,
      "start": 73.0792,
      "duration": 0.0611,
      "velocity": 127,
      "chip": "ym2612"
    },
    {
      "channel": 2,
      "note": 82,
      "start": 73.0819,
      "duration": 0.0587,
      "velocity": 127,
      "chip": "ym2612"
    },
    {
      "channel": 0,
      "note": 58,
      "start": 73.085,
      "duration": 0.1885,
      "velocity": 127,
      "chip": "ym2612"
    },
    {
      "channel": 5,
      "note": 70,
      "start": 73.0878,
      "duration": 0.0527,
      "velocity": 104,
      "chip": "ym2612"
    },
    {
      "channel": 3,
      "note": 82,
      "start": 73.2936,
      "duration": 0.0634,
      "velocity": 127,
      "chip": "ym2612"
    },
    {
      "channel": 4,
      "note": 78,
      "start": 73.2963,
      "duration": 0.0607,
      "velocity": 127,
      "chip": "ym2612"
    },
    {
      "channel": 5,
      "note": 73,
      "start": 73.2992,
      "duration": 0.058,
      "velocity": 104,
      "chip": "ym2612"
    },
    {
      "channel": 1,
      "note": 70,
      "start": 73.3941,
      "duration": 0.0628,
      "velocity": 104,
      "chip": "ym2612"
    },
    {
      "channel": 2,
      "note": 50,
      "start": 73.5103,
      "duration": 0.0469,
      "velocity": 107,
      "chip": "ym2612"
    },
    {
      "channel": 0,
      "note": 78,
      "start": 73.5131,
      "duration": 0.0605,
      "velocity": 127,
      "chip": "ym2612"
    },
    {
      "channel": 3,
      "note": 82,
      "start": 73.5162,
      "duration": 0.0576,
      "velocity": 127,
      "chip": "ym2612"
    },
    {
      "channel": 4,
      "note": 58,
      "start": 73.5192,
      "duration": 0.1712,
      "velocity": 127,
      "chip": "ym2612"
    },
    {
      "channel": 5,
      "note": 70,
      "start": 73.5219,
      "duration": 0.052,
      "velocity": 104,
      "chip": "ym2612"
    },
    {
      "channel": 1,
      "note": 73,
      "start": 73.6107,
      "duration": 0.0629,
      "velocity": 104,
      "chip": "ym2612"
    },
    {
      "channel": 2,
      "note": 82,
      "start": 73.7102,
      "duration": 0.0804,
      "velocity": 127,
      "chip": "ym2612"
    },
    {
      "channel": 0,
      "note": 78,
      "start": 73.7133,
      "duration": 0.0768,
      "velocity": 127,
      "chip": "ym2612"
    },
    {
      "channel": 5,
      "note": 80,
      "start": 73.7162,
      "duration": 0.0742,
      "velocity": 104,
      "chip": "ym2612"
    },
    {
      "channel": 3,
      "note": 78,
      "start": 73.8268,
      "duration": 0.0636,
      "velocity": 127,
      "chip": "ym2612"
    },
    {
      "channel": 1,
      "note": 82,
      "start": 73.8295,
      "duration": 0.0607,
      "velocity": 127,
      "chip": "ym2612"
    },
    {
      "channel": 4,
      "note": 58,
      "start": 73.8324,
      "duration": 0.1414,
      "velocity": 127,
      "chip": "ym2612"
    },
    {
      "channel": 0,
      "note": 70,
      "start": 73.8353,
      "duration": 0.0548,
      "velocity": 104,
      "chip": "ym2612"
    },
    {
      "channel": 5,
      "note": 50,
      "start": 73.9266,
      "duration": 0.0473,
      "velocity": 107,
      "chip": "ym2612"
    },
    {
      "channel": 2,
      "note": 77,
      "start": 73.9298,
      "duration": 0.0605,
      "velocity": 104,
      "chip": "ym2612"
    },
    {
      "channel": 0,
      "note": 82,
      "start": 74.027,
      "duration": 0.0798,
      "velocity": 127,
      "chip": "ym2612"
    },
    {
      "channel": 1,
      "note": 78,
      "start": 74.0297,
      "duration": 0.0773,
      "velocity": 127,
      "chip": "ym2612"
    },
    {
      "channel": 3,
      "note": 80,
      "start": 74.0328,
      "duration": 0.0743,
      "velocity": 104,
      "chip": "ym2612"
    },
    {
      "channel": 4,
      "note": 82,
      "start": 74.1434,
      "duration": 0.0637,
      "velocity": 127,
      "chip": "ym2612"
    },
    {
      "channel": 5,
      "note": 78,
      "start": 74.1461,
      "duration": 0.0611,
      "velocity": 127,
      "chip": "ym2612"
    },
    {
      "channel": 2,
      "note": 58,
      "start": 74.1493,
      "duration": 0.2246,
      "velocity": 127,
      "chip": "ym2612"
    },
    {
      "channel": 0,
      "note": 70,
      "start": 74.1522,
      "duration": 0.0547,
      "velocity": 104,
      "chip": "ym2612"
    },
    {
      "channel": 3,
      "note": 77,
      "start": 74.2439,
      "duration": 0.063,
      "velocity": 104,
      "chip": "ym2612"
    },
    {
      "channel": 1,
      "note": 50,
      "start": 74.3433,
      "duration": 0.0636,
      "velocity": 107,
      "chip": "ym2612"
    },
    {
      "channel": 0,
      "note": 78,
      "start": 74.3462,
      "duration": 0.0773,
      "velocity": 127,
      "chip": "ym2612"
    },
    {
      "channel": 4,
      "note": 82,
      "start": 74.3489,
      "duration": 0.0749,
      "velocity": 127,
      "chip": "ym2612"
    },
    {
      "channel": 5,
      "note": 82,
      "start": 74.3519,
      "duration": 0.072,
      "velocity": 104,
      "chip": "ym2612"
    },
    {
      "channel": 3,
      "note": 70,
      "start": 74.4605,
      "duration": 0.0632,
      "velocity": 104,
      "chip": "ym2612"
    },
    {
      "channel": 2,
      "note": 82,
      "start": 74.5602,
      "duration": 0.0639,
      "velocity": 127,
      "chip": "ym2612"
    },
    {
      "channel": 1,
      "note": 78,
      "start": 74.5629,
      "duration": 0.0608,
      "velocity": 127,
      "chip": "ym2612"
    },
    {
      "channel": 0,
      "note": 58,
      "start": 74.5661,
      "duration": 0.1908,
      "velocity": 127,
      "chip": "ym2612"
    },
    {
      "channel": 5,
      "note": 80,
      "start": 74.5693,
      "duration": 0.0546,
      "velocity": 104,
      "chip": "ym2612"
    },
    {
      "channel": 3,
      "note": 82,
      "start": 74.6775,
      "duration": 0.0628,
      "velocity": 104,
      "chip": "ym2612"
    },
    {
      "channel": 4,
      "note": 50,
      "start": 74.7766,
      "duration": 0.0472,
      "velocity": 107,
      "chip": "ym2612"
    },
    {
      "channel": 1,
      "note": 78,
      "start": 74.7792,
      "duration": 0.0611,
      "velocity": 127,
      "chip": "ym2612"
    },
    {
      "channel": 2,
      "note": 82,
      "start": 74.7822,
      "duration": 0.0583,
      "velocity": 127,
      "chip": "ym2612"
    },
    {
      "channel": 0,
      "note": 63,
      "start": 74.785,
      "duration": 0.1886,
      "velocity": 127,
      "chip": "ym2612"
    },
    {
      "channel": 5,
      "note": 75,
      "start": 74.7878,
      "duration": 0.0527,
      "velocity": 104,
      "chip": "ym2612"
    },
    {
      "channel": 3,
      "note": 82,
      "start": 74.9936,
      "duration": 0.0634,
      "velocity": 127,
      "chip": "ym2612"
    },
    {
      "channel": 4,
      "note": 78,
      "start": 74.9963,
      "duration": 0.0608,
      "velocity": 127,
      "chip": "ym2612"
    },
    {
      "channel": 5,
      "note": 78,
      "start": 74.9992,
      "duration": 0.0581,
      "velocity": 104,
      "chip": "ym2612"
    },
    {
      "channel": 1,
      "note": 50,
      "start": 75.1932,
      "duration": 0.0638,
      "velocity": 107,
      "chip": "ym2612"
    },
    {
      "channel": 2,
      "note": 78,
      "start": 75.196,
      "duration": 0.0779,
      "velocity": 127,
      "chip": "ym2612"
    },
    {
      "channel": 0,
      "note": 82,
      "start": 75.1987,
      "duration": 0.0749,
      "velocity": 127,
      "chip": "ym2612"
    },
    {
      "channel": 3,
      "note": 63,
      "start": 75.2017,
      "duration": 0.1885,
      "velocity": 127,
      "chip": "ym2612"
    },
    {
      "channel": 5,
      "note": 75,
      "start": 75.2045,
      "duration": 0.0693,
      "velocity": 104,
      "chip": "ym2612"
    },
    {
      "channel": 4,
      "note": 82,
      "start": 75.4102,
      "duration": 0.0636,
      "velocity": 127,
      "chip": "ym2612"
    },
    {
      "channel": 1,
      "note": 78,
      "start": 75.4133,
      "duration": 0.0603,
      "velocity": 127,
      "chip": "ym2612"
    },
    {
      "channel": 5,
      "note": 85,
      "start": 75.4161,
      "duration": 0.0578,
      "velocity": 104,
      "chip": "ym2612"
    },
    {
      "channel": 0,
      "note": 78,
      "start": 75.5266,
      "duration": 0.0636,
      "velocity": 127,
      "chip": "ym2612"
    },
    {
      "channel": 2,
      "note": 82,
      "start": 75.5293,
      "duration": 0.0612,
      "velocity": 127,
      "chip": "ym2612"
    },
    {
      "channel": 3,
      "note": 63,
      "start": 75.5325,
      "duration": 0.1412,
      "velocity": 127,
      "chip": "ym2612"
    },
    {
      "channel": 1,
      "note": 50,
      "start": 75.6266,
      "duration": 0.047,
      "velocity": 107,
      "chip": "ym2612"
    },
    {
      "channel": 5,
      "note": 82,
      "start": 75.6297,
      "duration": 0.0607,
      "velocity": 104,
      "chip": "ym2612"
    },
    {
      "channel": 4,
      "note": 82,
      "start": 75.7269,
      "duration": 0.0802,
      "velocity": 127,
      "chip": "ym2612"
    },
    {
      "channel": 0,
      "note": 78,
      "start": 75.7295,
      "duration": 0.0773,
      "velocity": 127,
      "chip": "ym2612"
    },
    {
      "channel": 2,
      "note": 82,
      "start": 75.8435,
      "duration": 0.0637,
      "velocity": 127,
      "chip": "ym2612"
    },
    {
      "channel": 1,
      "note": 78,
      "start": 75.8462,
      "duration": 0.0607,
      "velocity": 127,
      "chip": "ym2612"
    },
    {
      "channel": 3,
      "note": 63,
      "start": 75.8492,
      "duration": 0.2245,
      "velocity": 127,
      "chip": "ym2612"
    },
    {
      "channel": 5,
      "note": 75,
      "start": 75.852,
      "duration": 0.0551,
      "velocity": 104,
      "chip": "ym2612"
    },
    {
      "channel": 0,
      "note": 50,
      "start": 76.0432,
      "duration": 0.0637,
      "velocity": 107,
      "chip": "ym2612"
    },
    {
      "channel": 4,
      "note": 78,
      "start": 76.046,
      "duration": 0.0778,
      "velocity": 127,
      "chip": "ym2612"
    },
    {
      "channel": 1,
      "note": 82,
      "start": 76.0487,
      "duration": 0.0749,
      "velocity": 127,
      "chip": "ym2612"
    },
    {
      "channel": 5,
      "note": 87,
      "start": 76.0516,
      "duration": 0.0723,
      "velocity": 104,
      "chip": "ym2612"
    },
    {
      "channel": 2,
      "note": 82,
      "start": 76.2602,
      "duration": 0.0639,
      "velocity": 127,
      "chip": "ym2612"
    },
    {
      "channel": 3,
      "note": 78,
      "start": 76.2633,
      "duration": 0.0604,
      "velocity": 127,
      "chip": "ym2612"
    },
    {
      "channel": 0,
      "note": 63,
      "start": 76.2665,
      "duration": 0.1903,
      "velocity": 127,
      "chip": "ym2612"
    },
    {
      "channel": 5,
      "note": 85,
      "start": 76.2693,
      "duration": 0.0546,
      "velocity": 104,
      "chip": "ym2612"
    },
    {
      "channel": 1,
      "note": 50,
      "start": 76.4766,
      "duration": 0.047,
      "velocity": 107,
      "chip": "ym2612"
    },
    {
      "channel": 3,
      "note": 78,
      "start": 76.4792,
      "duration": 0.061,
      "velocity": 127,
      "chip": "ym2612"
    },
    {
      "channel": 2,
      "note": 82,
      "start": 76.482,
      "duration": 0.0586,
      "velocity": 127,
      "chip": "ym2612"
    },
    {
      "channel": 0,
      "note": 63,
      "start": 76.4847,
      "duration": 0.1889,
      "velocity": 127,
      "chip": "ym2612"
    },
    {
      "channel": 5,
      "note": 75,
      "start": 76.4875,
      "duration": 0.0529,
      "velocity": 104,
      "chip": "ym2612"
    },
    {
      "channel": 4,
      "note": 82,
      "start": 76.6934,
      "duration": 0.0636,
      "velocity": 127,
      "chip": "ym2612"
    },
    {
      "channel": 1,
      "note": 78,
      "start": 76.6962,
      "duration": 0.0607,
      "velocity": 127,
      "chip": "ym2612"
    },
    {
      "channel": 5,
      "note": 92,
      "start": 76.6991,
      "duration": 0.0581,
      "velocity": 104,
      "chip": "ym2612"
    },
    {
      "channel": 3,
      "note": 50,
      "start": 76.8932,
      "duration": 0.0637,
      "velocity": 107,
      "chip": "ym2612"
    },
    {
      "channel": 2,
      "note": 78,
      "start": 76.8961,
      "duration": 0.0779,
      "velocity": 127,
      "chip": "ym2612"
    },
    {
      "channel": 0,
      "note": 82,
      "start": 76.8988,
      "duration": 0.0747,
      "velocity": 127,
      "chip": "ym2612"
    },
    {
      "channel": 1,
      "note": 63,
      "start": 76.9018,
      "duration": 0.1884,
      "velocity": 127,
      "chip": "ym2612"
    },
    {
      "channel": 5,
      "note": 94,
      "start": 76.9049,
      "duration": 0.069,
      "velocity": 104,
      "chip": "ym2612"
    },
    {
      "channel": 4,
      "note": 82,
      "start": 77.1101,
      "duration": 0.0638,
      "velocity": 127,
      "chip": "ym2612"
    },
    {
      "channel": 3,
      "note": 78,
      "start": 77.1132,
      "duration": 0.0606,
      "velocity": 127,
      "chip": "ym2612"
    },
    {
      "channel": 0,
      "note": 78,
      "start": 77.2266,
      "duration": 0.0636,
      "velocity": 127,
      "chip": "ym2612"
    },
    {
      "channel": 2,
      "note": 82,
      "start": 77.2293,
      "duration": 0.0612,
      "velocity": 127,
      "chip": "ym2612"
    },
    {
      "channel": 1,
      "note": 63,
      "start": 77.2321,
      "duration": 0.1415,
      "velocity": 127,
      "chip": "ym2612"
    },
    {
      "channel": 5,
      "note": 50,
      "start": 77.3266,
      "duration": 0.0473,
      "velocity": 107,
      "chip": "ym2612"
    },
    {
      "channel": 3,
      "note": 82,
      "start": 77.4268,
      "duration": 0.0801,
      "velocity": 127,
      "chip": "ym2612"
    },
    {
      "channel": 4,
      "note": 78,
      "start": 77.4294,
      "duration": 0.0777,
      "velocity": 127,
      "chip": "ym2612"
    },
    {
      "channel": 0,
      "note": 82,
      "start": 77.5432,
      "duration": 0.0637,
      "velocity": 127,
      "chip": "ym2612"
    },
    {
      "channel": 2,
      "note": 78,
      "start": 77.5462,
      "duration": 0.061,
      "velocity": 127,
      "chip": "ym2612"
    },
    {
      "channel": 1,
      "note": 63,
      "start": 77.5492,
      "duration": 0.2245,
      "velocity": 127,
      "chip": "ym2612"
    },
    {
      "channel": 5,
      "note": 50,
      "start": 77.7431,
      "duration": 0.064,
      "velocity": 107,
      "chip": "ym2612"
    },
    {
      "channel": 3,
      "note": 78,
      "start": 77.7459,
      "duration": 0.0778,
      "velocity": 127,
      "chip": "ym2612"
    },
    {
      "channel": 4,
      "note": 82,
      "start": 77.7485,
      "duration": 0.0753,
      "velocity": 127,
      "chip": "ym2612"
    },
    {
      "channel": 0,
      "note": 82,
      "start": 77.9598,
      "duration": 0.0637,
      "velocity": 127,
      "chip": "ym2612"
    },
    {
      "channel": 2,
      "note": 78,
      "start": 77.9625,
      "duration": 0.0613,
      "velocity": 127,
      "chip": "ym2612"
    },
    {
      "channel": 1,
      "note": 63,
      "start": 77.9658,
      "duration": 0.1911,
      "velocity": 127,
      "chip": "ym2612"
    },
    {
      "channel": 5,
      "note": 50,
      "start": 78.1766,
      "duration": 0.0472,
      "velocity": 107,
      "chip": "ym2612"
    },
    {
      "channel": 0,
      "note": 78,
      "start": 78.1791,
      "duration": 0.061,
      "velocity": 127,
      "chip": "ym2612"
    },
    {
      "channel": 2,
      "note": 82,
      "start": 78.1818,
      "duration": 0.0588,
      "velocity": 127,
      "chip": "ym2612"
    },
    {
      "channel": 1,
      "note": 58,
      "start": 78.1846,
      "duration": 0.1891,
      "velocity": 127,
      "chip": "ym2612"
    },
    {
      "channel": 3,
      "note": 75,
      "start": 78.1876,
      "duration": 0.0527,
      "velocity": 104,
      "chip": "ym2612"
    },
    {
      "channel": 4,
      "note": 82,
      "start": 78.3935,
      "duration": 0.0635,
      "velocity": 127,
      "chip": "ym2612"
    },
    {
      "channel": 5,
      "note": 78,
      "start": 78.3962,
      "duration": 0.061,
      "velocity": 127,
      "chip": "ym2612"
    },
    {
      "channel": 3,
      "note": 78,
      "start": 78.3994,
      "duration": 0.0575,
      "velocity": 104,
      "chip": "ym2612"
    },
    {
      "channel": 0,
      "note": 50,
      "start": 78.5932,
      "duration": 0.0637,
      "velocity": 107,
      "chip": "ym2612"
    },
    {
      "channel": 2,
      "note": 78,
      "start": 78.5961,
      "duration": 0.0779,
      "velocity": 127,
      "chip": "ym2612"
    },
    {
      "channel": 1,
      "note": 82,
      "start": 78.5988,
      "duration": 0.0749,
      "velocity": 127,
      "chip": "ym2612"
    },
    {
      "channel": 3,
      "note": 58,
      "start": 78.6018,
      "duration": 0.1885,
      "velocity": 127,
      "chip": "ym2612"
    },
    {
      "channel": 4,
      "note": 75,
      "start": 78.6046,
      "duration": 0.0691,
      "velocity": 104,
      "chip": "ym2612"
    },
    {
      "channel": 5,
      "note": 82,
      "start": 78.8102,
      "duration": 0.0637,
      "velocity": 127,
      "chip": "ym2612"
    },
    {
      "channel": 0,
      "note": 78,
      "start": 78.8133,
      "duration": 0.0602,
      "velocity": 127,
      "chip": "ym2612"
    },
    {
      "channel": 4,
      "note": 85,
      "start": 78.8161,
      "duration": 0.0576,
      "velocity": 104,
      "chip": "ym2612"
    },
    {
      "channel": 1,
      "note": 78,
      "start": 78.9266,
      "duration": 0.0636,
      "velocity": 127,
      "chip": "ym2612"
    },
    {
      "channel": 2,
      "note": 82,
      "start": 78.9298,
      "duration": 0.0607,
      "velocity": 127,
      "chip": "ym2612"
    },
    {
      "channel": 3,
      "note": 58,
      "start": 78.9326,
      "duration": 0.1412,
      "velocity": 127,
      "chip": "ym2612"
    },
    {
      "channel": 0,
      "note": 50,
      "start": 79.0266,
      "duration": 0.047,
      "velocity": 107,
      "chip": "ym2612"
    },
    {
      "channel": 4,
      "note": 82,
      "start": 79.0296,
      "duration": 0.0606,
      "velocity": 104,
      "chip": "ym2612"
    },
    {
      "channel": 5,
      "note": 82,
      "start": 79.1269,
      "duration": 0.0802,
      "velocity": 127,
      "chip": "ym2612"
    },
    {
      "channel": 1,
      "note": 78,
      "start": 79.1295,
      "duration": 0.0774,
      "velocity": 127,
      "chip": "ym2612"
    },
    {
      "channel": 2,
      "note": 82,
      "start": 79.2435,
      "duration": 0.0637,
      "velocity": 127,
      "chip": "ym2612"
    },
    {
      "channel": 0,
      "note": 78,
      "start": 79.2462,
      "duration": 0.0606,
      "velocity": 127,
      "chip": "ym2612"
    },
    {
      "channel": 3,
      "note": 58,
      "start": 79.2492,
      "duration": 0.2078,
      "velocity": 127,
      "chip": "ym2612"
    },
    {
      "channel": 4,
      "note": 75,
      "start": 79.252,
      "duration": 0.0551,
      "velocity": 104,
      "chip": "ym2612"
    },
    {
      "channel": 1,
      "note": 50,
      "start": 79.4432,
      "duration": 0.0637,
      "velocity": 107,
      "chip": "ym2612"
    },
    {
      "channel": 5,
      "note": 78,
      "start": 79.446,
      "duration": 0.078,
      "velocity": 127,
      "chip": "ym2612"
    },
    {
      "channel": 0,
      "note": 82,
      "start": 79.4487,
      "duration": 0.0749,
      "velocity": 127,
      "chip": "ym2612"
    },
    {
      "channel": 4,
      "note": 87,
      "start": 79.4516,
      "duration": 0.0723,
      "velocity": 104,
      "chip": "ym2612"
    },
    {
      "channel": 2,
      "note": 82,
      "start": 79.6602,
      "duration": 0.0638,
      "velocity": 127,
      "chip": "ym2612"
    },
    {
      "channel": 3,
      "note": 78,
      "start": 79.6629,
      "duration": 0.0608,
      "velocity": 127,
      "chip": "ym2612"
    },
    {
      "channel": 1,
      "note": 58,
      "start": 79.6661,
      "duration": 0.1908,
      "velocity": 127,
      "chip": "ym2612"
    },
    {
      "channel": 4,
      "note": 85,
      "start": 79.6688,
      "duration": 0.055,
      "velocity": 104,
      "chip": "ym2612"
    },
    {
      "channel": 0,
      "note": 50,
      "start": 79.8766,
      "duration": 0.0469,
      "velocity": 107,
      "chip": "ym2612"
    },
    {
      "channel": 3,
      "note": 78,
      "start": 79.8792,
      "duration": 0.061,
      "velocity": 127,
      "chip": "ym2612"
    },
    {
      "channel": 2,
      "note": 82,
      "start": 79.882,
      "duration": 0.0585,
      "velocity": 127,
      "chip": "ym2612"
    },
    {
      "channel": 1,
      "note": 58,
      "start": 79.8851,
      "duration": 0.1885,
      "velocity": 127,
      "chip": "ym2612"
    },
    {
      "channel": 4,
      "note": 75,
      "start": 79.8878,
      "duration": 0.0525,
      "velocity": 104,
      "chip": "ym2612"
    },
    {
      "channel": 5,
      "note": 82,
      "start": 80.0935,
      "duration": 0.0637,
      "velocity": 127,
      "chip": "ym2612"
    },
    {
      "channel": 0,
      "note": 78,
      "start": 80.0962,
      "duration": 0.0606,
      "velocity": 127,
      "chip": "ym2612"
    },
    {
      "channel": 4,
      "note": 92,
      "start": 80.0991,
      "duration": 0.0579,
      "velocity": 104,
      "chip": "ym2612"
    },
    {
      "channel": 3,
      "note": 50,
      "start": 80.2936,
      "duration": 0.0634,
      "velocity": 107,
      "chip": "ym2612"
    },
    {
      "channel": 2,
      "note": 78,
      "start": 80.2965,
      "duration": 0.0775,
      "velocity": 127,
      "chip": "ym2612"
    },
    {
      "channel": 1,
      "note": 82,
      "start": 80.2996,
      "duration": 0.074,
      "velocity": 127,
      "chip": "ym2612"
    },
    {
      "channel": 0,
      "note": 58,
      "start": 80.3026,
      "duration": 0.1875,
      "velocity": 127,
      "chip": "ym2612"
    },
    {
      "channel": 4,
      "note": 94,
      "start": 80.3056,
      "duration": 0.0682,
      "velocity": 104,
      "chip": "ym2612"
    },
    {
      "channel": 5,
      "note": 82,
      "start": 80.5102,
      "duration": 0.0635,
      "velocity": 127,
      "chip": "ym2612"
    },
    {
      "channel": 3,
      "note": 78,
      "start": 80.5133,
      "duration": 0.0603,
      "velocity": 127,
      "chip": "ym2612"
    },
    {
      "channel": 1,
      "note": 78,
      "start": 80.6267,
      "duration": 0.0634,
      "velocity": 127,
      "chip": "ym2612"
    },
    {
      "channel": 2,
      "note": 82,
      "start": 80.6294,
      "duration": 0.0611,
      "velocity": 127,
      "chip": "ym2612"
    },
    {
      "channel": 0,
      "note": 58,
      "start": 80.6322,
      "duration": 0.1414,
      "velocity": 127,
      "chip": "ym2612"
    },
    {
      "channel": 4,
      "note": 50,
      "start": 80.7266,
      "duration": 0.0471,
      "velocity": 107,
      "chip": "ym2612"
    },
    {
      "channel": 3,
      "note": 82,
      "start": 80.8269,
      "duration": 0.08,
      "velocity": 127,
      "chip": "ym2612"
    },
    {
      "channel": 5,
      "note": 78,
      "start": 80.8295,
      "duration": 0.0776,
      "velocity": 127,
      "chip": "ym2612"
    },
    {
      "channel": 1,
      "note": 82,
      "start": 80.9432,
      "duration": 0.0638,
      "velocity": 127,
      "chip": "ym2612"
    },
    {
      "channel": 2,
      "note": 78,
      "start": 80.9459,
      "duration": 0.0613,
      "velocity": 127,
      "chip": "ym2612"
    },
    {
      "channel": 0,
      "note": 58,
      "start": 80.9488,
      "duration": 0.208,
      "velocity": 127,
      "chip": "ym2612"
    },
    {
      "channel": 4,
      "note": 50,
      "start": 81.1434,
      "duration": 0.0637,
      "velocity": 107,
      "chip": "ym2612"
    },
    {
      "channel": 3,
      "note": 78,
      "start": 81.1462,
      "duration": 0.0774,
      "velocity": 127,
      "chip": "ym2612"
    },
    {
      "channel": 5,
      "note": 82,
      "start": 81.1488,
      "duration": 0.075,
      "velocity": 127,
      "chip": "ym2612"
    },
    {
      "channel": 1,
      "note": 82,
      "start": 81.3598,
      "duration": 0.0638,
      "velocity": 127,
      "chip": "ym2612"
    },
    {
      "channel": 2,
      "note": 78,
      "start": 81.3626,
      "duration": 0.0613,
      "velocity": 127,
      "chip": "ym2612"
    },
    {
      "channel": 0,
      "note": 58,
      "start": 81.3656,
      "duration": 0.1912,
      "velocity": 127,
      "chip": "ym2612"
    },
    {
      "channel": 1,
      "note": 70,
      "start": 81.5766,
      "duration": 0.0636,
      "velocity": 127,
      "chip": "ym2612"
    },
    {
      "channel": 2,
      "note": 66,
      "start": 81.5798,
      "duration": 0.0607,
      "velocity": 127,
      "chip": "ym2612"
    },
    {
      "channel": 4,
      "note": 75,
      "start": 81.583,
      "duration": 0.0574,
      "velocity": 104,
      "chip": "ym2612"
    },
    {
      "channel": 3,
      "note": 66,
      "start": 81.7934,
      "duration": 0.0636,
      "velocity": 127,
      "chip": "ym2612"
    },
    {
      "channel": 5,
      "note": 70,
      "start": 81.796,
      "duration": 0.0612,
      "velocity": 127,
      "chip": "ym2612"
    },
    {
      "channel": 4,
      "note": 78,
      "start": 81.7989,
      "duration": 0.0582,
      "velocity": 104,
      "chip": "ym2612"
    },
    {
      "channel": 0,
      "note": 75,
      "start": 81.8941,
      "duration": 0.0627,
      "velocity": 104,
      "chip": "ym2612"
    },
    {
      "channel": 1,
      "note": 70,
      "start": 81.9932,
      "duration": 0.0804,
      "velocity": 127,
      "chip": "ym2612"
    },
    {
      "channel": 2,
      "note": 66,
      "start": 81.996,
      "duration": 0.078,
      "velocity": 127,
      "chip": "ym2612"
    },
    {
      "channel": 4,
      "note": 75,
      "start": 81.999,
      "duration": 0.0749,
      "velocity": 104,
      "chip": "ym2612"
    },
    {
      "channel": 0,
      "note": 78,
      "start": 82.1103,
      "duration": 0.0633,
      "velocity": 104,
      "chip": "ym2612"
    },
    {
      "channel": 3,
      "note": 66,
      "start": 82.2102,
      "duration": 0.0636,
      "velocity": 127,
      "chip": "ym2612"
    },
    {
      "channel": 5,
      "note": 70,
      "start": 82.2132,
      "duration": 0.0609,
      "velocity": 127,
      "chip": "ym2612"
    },
    {
      "channel": 4,
      "note": 85,
      "start": 82.2164,
      "duration": 0.0575,
      "velocity": 104,
      "chip": "ym2612"
    },
    {
      "channel": 1,
      "note": 70,
      "start": 82.3266,
      "duration": 0.0636,
      "velocity": 127,
      "chip": "ym2612"
    },
    {
      "channel": 2,
      "note": 66,
      "start": 82.3293,
      "duration": 0.0612,
      "velocity": 127,
      "chip": "ym2612"
    },
    {
      "channel": 0,
      "note": 75,
      "start": 82.3322,
      "duration": 0.0579,
      "velocity": 104,
      "chip": "ym2612"
    },
    {
      "channel": 4,
      "note": 82,
      "start": 82.4271,
      "duration": 0.0632,
      "velocity": 104,
      "chip": "ym2612"
    },
    {
      "channel": 3,
      "note": 66,
      "start": 82.5268,
      "duration": 0.0634,
      "velocity": 127,
      "chip": "ym2612"
    },
    {
      "channel": 5,
      "note": 70,
      "start": 82.5294,
      "duration": 0.061,
      "velocity": 127,
      "chip": "ym2612"
    },
    {
      "channel": 0,
      "note": 85,
      "start": 82.5322,
      "duration": 0.0579,
      "velocity": 104,
      "chip": "ym2612"
    },
    {
      "channel": 1,
      "note": 66,
      "start": 82.6432,
      "duration": 0.0637,
      "velocity": 127,
      "chip": "ym2612"
    },
    {
      "channel": 2,
      "note": 70,
      "start": 82.6459,
      "duration": 0.0614,
      "velocity": 127,
      "chip": "ym2612"
    },
    {
      "channel": 4,
      "note": 75,
      "start": 82.6489,
      "duration": 0.0582,
      "velocity": 104,
      "chip": "ym2612"
    },
    {
      "channel": 0,
      "note": 82,
      "start": 82.7437,
      "duration": 0.0631,
      "velocity": 104,
      "chip": "ym2612"
    },
    {
      "channel": 3,
      "note": 70,
      "start": 82.8434,
      "duration": 0.0802,
      "velocity": 127,
      "chip": "ym2612"
    },
    {
      "channel": 5,
      "note": 66,
      "start": 82.846,
      "duration": 0.0779,
      "velocity": 127,
      "chip": "ym2612"
    },
    {
      "channel": 4,
      "note": 87,
      "start": 82.8489,
      "duration": 0.0749,
      "velocity": 104,
      "chip": "ym2612"
    },
    {
      "channel": 0,
      "note": 75,
      "start": 82.9603,
      "duration": 0.0633,
      "velocity": 104,
      "chip": "ym2612"
    },
    {
      "channel": 1,
      "note": 66,
      "start": 83.06,
      "duration": 0.0637,
      "velocity": 127,
      "chip": "ym2612"
    },
    {
      "channel": 2,
      "note": 70,
      "start": 83.0631,
      "duration": 0.0609,
      "velocity": 127,
      "chip": "ym2612"
    },
    {
      "channel": 4,
      "note": 85,
      "start": 83.0661,
      "duration": 0.0578,
      "velocity": 104,
      "chip": "ym2612"
    },
    {
      "channel": 0,
      "note": 87,
      "start": 83.1608,
      "duration": 0.0793,
      "velocity": 104,
      "chip": "ym2612"
    },
    {
      "channel": 1,
      "note": 70,
      "start": 83.2766,
      "duration": 0.0636,
      "velocity": 127,
      "chip": "ym2612"
    },
    {
      "channel": 2,
      "note": 66,
      "start": 83.2794,
      "duration": 0.0613,
      "velocity": 127,
      "chip": "ym2612"
    },
    {
      "channel": 4,
      "note": 75,
      "start": 83.2824,
      "duration": 0.0581,
      "velocity": 104,
      "chip": "ym2612"
    },
    {
      "channel": 3,
      "note": 66,
      "start": 83.4934,
      "duration": 0.0636,
      "velocity": 127,
      "chip": "ym2612"
    },
    {
      "channel": 5,
      "note": 70,
      "start": 83.496,
      "duration": 0.0612,
      "velocity": 127,
      "chip": "ym2612"
    },
    {
      "channel": 4,
      "note": 78,
      "start": 83.4989,
      "duration": 0.0582,
      "velocity": 104,
      "chip": "ym2612"
    },
    {
      "channel": 0,
      "note": 75,
      "start": 83.5938,
      "duration": 0.063,
      "velocity": 104,
      "chip": "ym2612"
    },
    {
      "channel": 1,
      "note": 70,
      "start": 83.6932,
      "duration": 0.0805,
      "velocity": 127,
      "chip": "ym2612"
    },
    {
      "channel": 2,
      "note": 66,
      "start": 83.696,
      "duration": 0.078,
      "velocity": 127,
      "chip": "ym2612"
    },
    {
      "channel": 4,
      "note": 75,
      "start": 83.699,
      "duration": 0.0749,
      "velocity": 104,
      "chip": "ym2612"
    },
    {
      "channel": 0,
      "note": 78,
      "start": 83.8103,
      "duration": 0.0632,
      "velocity": 104,
      "chip": "ym2612"
    },
    {
      "channel": 3,
      "note": 66,
      "start": 83.9101,
      "duration": 0.0637,
      "velocity": 127,
      "chip": "ym2612"
    },
    {
      "channel": 5,
      "note": 70,
      "start": 83.9132,
      "duration": 0.0609,
      "velocity": 127,
      "chip": "ym2612"
    },
    {
      "channel": 4,
      "note": 85,
      "start": 83.916,
      "duration": 0.0579,
      "velocity": 104,
      "chip": "ym2612"
    },
    {
      "channel": 1,
      "note": 70,
      "start": 84.01,
      "duration": 0.0803,
      "velocity": 127,
      "chip": "ym2612"
    },
    {
      "channel": 2,
      "note": 66,
      "start": 84.0126,
      "duration": 0.0779,
      "velocity": 127,
      "chip": "ym2612"
    },
    {
      "channel": 0,
      "note": 75,
      "start": 84.0156,
      "duration": 0.0746,
      "velocity": 104,
      "chip": "ym2612"
    },
    {
      "channel": 4,
      "note": 82,
      "start": 84.1271,
      "duration": 0.0632,
      "velocity": 104,
      "chip": "ym2612"
    },
    {
      "channel": 3,
      "note": 66,
      "start": 84.2268,
      "duration": 0.0636,
      "velocity": 127,
      "chip": "ym2612"
    },
    {
      "channel": 5,
      "note": 70,
      "start": 84.2294,
      "duration": 0.0612,
      "velocity": 127,
      "chip": "ym2612"
    },
    {
      "channel": 0,
      "note": 85,
      "start": 84.2322,
      "duration": 0.058,
      "velocity": 104,
      "chip": "ym2612"
    },
    {
      "channel": 1,
      "note": 66,
      "start": 84.3432,
      "duration": 0.0637,
      "velocity": 127,
      "chip": "ym2612"
    },
    {
      "channel": 2,
      "note": 70,
      "start": 84.3463,
      "duration": 0.061,
      "velocity": 127,
      "chip": "ym2612"
    },
    {
      "channel": 4,
      "note": 75,
      "start": 84.3493,
      "duration": 0.0578,
      "velocity": 104,
      "chip": "ym2612"
    },
    {
      "channel": 0,
      "note": 82,
      "start": 84.4436,
      "duration": 0.0632,
      "velocity": 104,
      "chip": "ym2612"
    },
    {
      "channel": 3,
      "note": 70,
      "start": 84.5435,
      "duration": 0.0802,
      "velocity": 127,
      "chip": "ym2612"
    },
    {
      "channel": 5,
      "note": 66,
      "start": 84.5461,
      "duration": 0.0779,
      "velocity": 127,
      "chip": "ym2612"
    },
    {
      "channel": 4,
      "note": 87,
      "start": 84.549,
      "duration": 0.0749,
      "velocity": 104,
      "chip": "ym2612"
    },
    {
      "channel": 0,
      "note": 75,
      "start": 84.6603,
      "duration": 0.0634,
      "velocity": 104,
      "chip": "ym2612"
    },
    {
      "channel": 1,
      "note": 66,
      "start": 84.7599,
      "duration": 0.0637,
      "velocity": 127,
      "chip": "ym2612"
    },
    {
      "channel": 2,
      "note": 70,
      "start": 84.7626,
      "duration": 0.0613,
      "velocity": 127,
      "chip": "ym2612"
    },
    {
      "channel": 4,
      "note": 85,
      "start": 84.7656,
      "duration": 0.0581,
      "velocity": 104,
      "chip": "ym2612"
    },
    {
      "channel": 0,
      "note": 87,
      "start": 84.8605,
      "duration": 0.0796,
      "velocity": 104,
      "chip": "ym2612"
    },
    {
      "channel": 1,
      "note": 61,
      "start": 84.9766,
      "duration": 0.0636,
      "velocity": 127,
      "chip": "ym2612"
    },
    {
      "channel": 2,
      "note": 65,
      "start": 84.9794,
      "duration": 0.0613,
      "velocity": 127,
      "chip": "ym2612"
    },
    {
      "channel": 4,
      "note": 75,
      "start": 84.9824,
      "duration": 0.0581,
      "velocity": 104,
      "chip": "ym2612"
    },
    {
      "channel": 3,
      "note": 65,
      "start": 85.1934,
      "duration": 0.0636,
      "velocity": 127,
      "chip": "ym2612"
    },
    {
      "channel": 5,
      "note": 61,
      "start": 85.196,
      "duration": 0.0612,
      "velocity": 127,
      "chip": "ym2612"
    },
    {
      "channel": 4,
      "note": 78,
      "start": 85.1989,
      "duration": 0.0582,
      "velocity": 104,
      "chip": "ym2612"
    },
    {
      "channel": 0,
      "note": 75,
      "start": 85.2938,
      "duration": 0.063,
      "velocity": 104,
      "chip": "ym2612"
    },
    {
      "channel": 1,
      "note": 61,
      "start": 85.3932,
      "duration": 0.0805,
      "velocity": 127,
      "chip": "ym2612"
    },
    {
      "channel": 2,
      "note": 65,
      "start": 85.396,
      "duration": 0.078,
      "velocity": 127,
      "chip": "ym2612"
    },
    {
      "channel": 4,
      "note": 75,
      "start": 85.399,
      "duration": 0.0749,
      "velocity": 104,
      "chip": "ym2612"
    },
    {
      "channel": 0,
      "note": 78,
      "start": 85.5103,
      "duration": 0.0633,
      "velocity": 104,
      "chip": "ym2612"
    },
    {
      "channel": 3,
      "note": 65,
      "start": 85.6101,
      "duration": 0.0636,
      "velocity": 127,
      "chip": "ym2612"
    },
    {
      "channel": 5,
      "note": 61,
      "start": 85.6131,
      "duration": 0.0608,
      "velocity": 127,
      "chip": "ym2612"
    },
    {
      "channel": 4,
      "note": 85,
      "start": 85.6163,
      "duration": 0.0574,
      "velocity": 104,
      "chip": "ym2612"
    },
    {
      "channel": 1,
      "note": 61,
      "start": 85.71,
      "duration": 0.0803,
      "velocity": 127,
      "chip": "ym2612"
    },
    {
      "channel": 2,
      "note": 65,
      "start": 85.7131,
      "duration": 0.0774,
      "velocity": 127,
      "chip": "ym2612"
    },
    {
      "channel": 0,
      "note": 75,
      "start": 85.716,
      "duration": 0.0741,
      "velocity": 104,
      "chip": "ym2612"
    },
    {
      "channel": 4,
      "note": 82,
      "start": 85.8271,
      "duration": 0.0632,
      "velocity": 104,
      "chip": "ym2612"
    },
    {
      "channel": 3,
      "note": 65,
      "start": 85.9268,
      "duration": 0.0636,
      "velocity": 127,
      "chip": "ym2612"
    },
    {
      "channel": 5,
      "note": 61,
      "start": 85.9294,
      "duration": 0.0612,
      "velocity": 127,
      "chip": "ym2612"
    },
    {
      "channel": 0,
      "note": 85,
      "start": 85.9322,
      "duration": 0.058,
      "velocity": 104,
      "chip": "ym2612"
    },
    {
      "channel": 1,
      "note": 65,
      "start": 86.0432,
      "duration": 0.0637,
      "velocity": 127,
      "chip": "ym2612"
    },
    {
      "channel": 2,
      "note": 61,
      "start": 86.0459,
      "duration": 0.0614,
      "velocity": 127,
      "chip": "ym2612"
    },
    {
      "channel": 4,
      "note": 75,
      "start": 86.0489,
      "duration": 0.0582,
      "velocity": 104,
      "chip": "ym2612"
    },
    {
      "channel": 0,
      "note": 82,
      "start": 86.1437,
      "duration": 0.0631,
      "velocity": 104,
      "chip": "ym2612"
    },
    {
      "channel": 3,
      "note": 61,
      "start": 86.2434,
      "duration": 0.0802,
      "velocity": 127,
      "chip": "ym2612"
    },
    {
      "channel": 5,
      "note": 65,
      "start": 86.246,
      "duration": 0.0779,
      "velocity": 127,
      "chip": "ym2612"
    },
    {
      "channel": 4,
      "note": 87,
      "start": 86.2489,
      "duration": 0.0749,
      "velocity": 104,
      "chip": "ym2612"
    },
    {
      "channel": 0,
      "note": 75,
      "start": 86.3607,
      "duration": 0.063,
      "velocity": 104,
      "chip": "ym2612"
    },
    {
      "channel": 1,
      "note": 65,
      "start": 86.4599,
      "duration": 0.0637,
      "velocity": 127,
      "chip": "ym2612"
    },
    {
      "channel": 2,
      "note": 61,
      "start": 86.4626,
      "duration": 0.0613,
      "velocity": 127,
      "chip": "ym2612"
    },
    {
      "channel": 4,
      "note": 85,
      "start": 86.4656,
      "duration": 0.0582,
      "velocity": 104,
      "chip": "ym2612"
    },
    {
      "channel": 0,
      "note": 87,
      "start": 86.5604,
      "duration": 0.0798,
      "velocity": 104,
      "chip": "ym2612"
    },
    {
      "channel": 1,
      "note": 61,
      "start": 86.6767,
      "duration": 0.0636,
      "velocity": 127,
      "chip": "ym2612"
    },
    {
      "channel": 2,
      "note": 65,
      "start": 86.6794,
      "duration": 0.0613,
      "velocity": 127,
      "chip": "ym2612"
    },
    {
      "channel": 4,
      "note": 75,
      "start": 86.6824,
      "duration": 0.0581,
      "velocity": 104,
      "chip": "ym2612"
    },
    {
      "channel": 3,
      "note": 65,
      "start": 86.8934,
      "duration": 0.0636,
      "velocity": 127,
      "chip": "ym2612"
    },
    {
      "channel": 5,
      "note": 61,
      "start": 86.896,
      "duration": 0.0612,
      "velocity": 127,
      "chip": "ym2612"
    },
    {
      "channel": 4,
      "note": 78,
      "start": 86.8989,
      "duration": 0.0582,
      "velocity": 104,
      "chip": "ym2612"
    },
    {
      "channel": 0,
      "note": 75,
      "start": 86.9938,
      "duration": 0.063,
      "velocity": 104,
      "chip": "ym2612"
    },
    {
      "channel": 1,
      "note": 61,
      "start": 87.0932,
      "duration": 0.0803,
      "velocity": 127,
      "chip": "ym2612"
    },
    {
      "channel": 2,
      "note": 65,
      "start": 87.0963,
      "duration": 0.0776,
      "velocity": 127,
      "chip": "ym2612"
    },
    {
      "channel": 4,
      "note": 75,
      "start": 87.0993,
      "duration": 0.0744,
      "velocity": 104,
      "chip": "ym2612"
    },
    {
      "channel": 0,
      "note": 78,
      "start": 87.2103,
      "duration": 0.0633,
      "velocity": 104,
      "chip": "ym2612"
    },
    {
      "channel": 3,
      "note": 65,
      "start": 87.3102,
      "duration": 0.0635,
      "velocity": 127,
      "chip": "ym2612"
    },
    {
      "channel": 5,
      "note": 61,
      "start": 87.3132,
      "duration": 0.0607,
      "velocity": 127,
      "chip": "ym2612"
    },
    {
      "channel": 4,
      "note": 85,
      "start": 87.3161,
      "duration": 0.0578,
      "velocity": 104,
      "chip": "ym2612"
    },
    {
      "channel": 1,
      "note": 61,
      "start": 87.4098,
      "duration": 0.0805,
      "velocity": 127,
      "chip": "ym2612"
    },
    {
      "channel": 2,
      "note": 65,
      "start": 87.4126,
      "duration": 0.078,
      "velocity": 127,
      "chip": "ym2612"
    },
    {
      "channel": 0,
      "note": 75,
      "start": 87.4155,
      "duration": 0.0747,
      "velocity": 104,
      "chip": "ym2612"
    },
    {
      "channel": 4,
      "note": 82,
      "start": 87.5272,
      "duration": 0.0632,
      "velocity": 104,
      "chip": "ym2612"
    },
    {
      "channel": 3,
      "note": 65,
      "start": 87.6268,
      "duration": 0.0635,
      "velocity": 127,
      "chip": "ym2612"
    },
    {
      "channel": 5,
      "note": 61,
      "start": 87.6295,
      "duration": 0.061,
      "velocity": 127,
      "chip": "ym2612"
    },
    {
      "channel": 0,
      "note": 85,
      "start": 87.6323,
      "duration": 0.0578,
      "velocity": 104,
      "chip": "ym2612"
    },
    {
      "channel": 1,
      "note": 65,
      "start": 87.7432,
      "duration": 0.0636,
      "velocity": 127,
      "chip": "ym2612"
    },
    {
      "channel": 2,
      "note": 61,
      "start": 87.746,
      "duration": 0.0612,
      "velocity": 127,
      "chip": "ym2612"
    },
    {
      "channel": 4,
      "note": 75,
      "start": 87.749,
      "duration": 0.0581,
      "velocity": 104,
      "chip": "ym2612"
    },
    {
      "channel": 0,
      "note": 82,
      "start": 87.8437,
      "duration": 0.0632,
      "velocity": 104,
      "chip": "ym2612"
    },
    {
      "channel": 3,
      "note": 61,
      "start": 87.9434,
      "duration": 0.0803,
      "velocity": 127,
      "chip": "ym2612"
    },
    {
      "channel": 5,
      "note": 65,
      "start": 87.9461,
      "duration": 0.0779,
      "velocity": 127,
      "chip": "ym2612"
    },
    {
      "channel": 4,
      "note": 87,
      "start": 87.949,
      "duration": 0.0749,
      "velocity": 104,
      "chip": "ym2612"
    },
    {
      "channel": 0,
      "note": 75,
      "start": 88.0603,
      "duration": 0.0634,
      "velocity": 104,
      "chip": "ym2612"
    },
    {
      "channel": 1,
      "note": 65,
      "start": 88.1599,
      "duration": 0.0637,
      "velocity": 127,
      "chip": "ym2612"
    },
    {
      "channel": 2,
      "note": 61,
      "start": 88.1626,
      "duration": 0.0613,
      "velocity": 127,
      "chip": "ym2612"
    },
    {
      "channel": 4,
      "note": 85,
      "start": 88.1656,
      "duration": 0.0581,
      "velocity": 104,
      "chip": "ym2612"
    },
    {
      "channel": 0,
      "note": 87,
      "start": 88.2604,
      "duration": 0.0798,
      "velocity": 104,
      "chip": "ym2612"
    },
    {
      "channel": 3,
      "note": 61,
      "start": 88.3834,
      "duration": 0.0,
      "velocity": 127,
      "chip": "ym2612"
    }
  ]
}