{
  "track_name": "16 Story Demo 3, Stage 10",
  "duration_sec": 34.844,
  "sample_rate": 44100,
  "note_count": 823,
  "unique_pitches": 29,
  "pitch_range": 48,
  "avg_note_duration": 0.1042,
  "reconstruction_stats": {
    "notes_reconstructed": 823,
    "keyon_events": 823,
    "keyoff_events": 821,
    "orphan_keyons": 2,
    "unique_pitches": 29,
    "pitch_range": 48,
    "avg_duration_sec": 0.1042
  },
  "metadata": {
    "source": "G\\Gley Lancer\\16 Story Demo 3, Stage 10.vgz"
  },
  "notes": [
    {
      "channel": 0,
      "note": 57,
      "start": 0.0041,
      "duration": 0.0241,
      "velocity": 104,
      "chip": "ym2612"
    },
    {
      "channel": 2,
      "note": 69,
      "start": 0.0101,
      "duration": 0.0186,
      "velocity": 98,
      "chip": "ym2612"
    },
    {
      "channel": 0,
      "note": 59,
      "start": 0.0315,
      "duration": 0.02,
      "velocity": 104,
      "chip": "ym2612"
    },
    {
      "channel": 2,
      "note": 71,
      "start": 0.0323,
      "duration": 0.0198,
      "velocity": 98,
      "chip": "ym2612"
    },
    {
      "channel": 0,
      "note": 60,
      "start": 0.0756,
      "duration": 0.0185,
      "velocity": 104,
      "chip": "ym2612"
    },
    {
      "channel": 2,
      "note": 72,
      "start": 0.0765,
      "duration": 0.0181,
      "velocity": 98,
      "chip": "ym2612"
    },
    {
      "channel": 0,
      "note": 62,
      "start": 0.0988,
      "duration": 0.0184,
      "velocity": 104,
      "chip": "ym2612"
    },
    {
      "channel": 2,
      "note": 74,
      "start": 0.0996,
      "duration": 0.0181,
      "velocity": 98,
      "chip": "ym2612"
    },
    {
      "channel": 3,
      "note": 66,
      "start": 0.1478,
      "duration": 0.0726,
      "velocity": 94,
      "chip": "ym2612"
    },
    {
      "channel": 3,
      "note": 55,
      "start": 0.2403,
      "duration": 0.2198,
      "velocity": 94,
      "chip": "ym2612"
    },
    {
      "channel": 3,
      "note": 55,
      "start": 0.4799,
      "duration": 0.4201,
      "velocity": 94,
      "chip": "ym2612"
    },
    {
      "channel": 0,
      "note": 64,
      "start": 0.7162,
      "duration": 0.0512,
      "velocity": 104,
      "chip": "ym2612"
    },
    {
      "channel": 0,
      "note": 76,
      "start": 0.8361,
      "duration": 0.0183,
      "velocity": 104,
      "chip": "ym2612"
    },
    {
      "channel": 0,
      "note": 52,
      "start": 0.8593,
      "duration": 0.01,
      "velocity": 104,
      "chip": "ym2612"
    },
    {
      "channel": 2,
      "note": 88,
      "start": 0.8601,
      "duration": 0.0396,
      "velocity": 98,
      "chip": "ym2612"
    },
    {
      "channel": 0,
      "note": 64,
      "start": 0.8812,
      "duration": 0.0179,
      "velocity": 104,
      "chip": "ym2612"
    },
    {
      "channel": 0,
      "note": 57,
      "start": 0.9025,
      "duration": 0.0828,
      "velocity": 104,
      "chip": "ym2612"
    },
    {
      "channel": 1,
      "note": 69,
      "start": 0.9067,
      "duration": 0.0789,
      "velocity": 110,
      "chip": "ym2612"
    },
    {
      "channel": 2,
      "note": 72,
      "start": 0.9119,
      "duration": 0.0739,
      "velocity": 98,
      "chip": "ym2612"
    },
    {
      "channel": 3,
      "note": 55,
      "start": 0.9177,
      "duration": 0.0695,
      "velocity": 94,
      "chip": "ym2612"
    },
    {
      "channel": 0,
      "note": 64,
      "start": 1.0037,
      "duration": 0.024,
      "velocity": 104,
      "chip": "ym2612"
    },
    {
      "channel": 3,
      "note": 55,
      "start": 1.005,
      "duration": 0.0444,
      "velocity": 94,
      "chip": "ym2612"
    },
    {
      "channel": 4,
      "note": 78,
      "start": 1.0255,
      "duration": 0.0445,
      "velocity": 110,
      "chip": "ym2612"
    },
    {
      "channel": 0,
      "note": 69,
      "start": 1.0307,
      "duration": 0.0441,
      "velocity": 104,
      "chip": "ym2612"
    },
    {
      "channel": 1,
      "note": 81,
      "start": 1.0313,
      "duration": 0.2567,
      "velocity": 110,
      "chip": "ym2612"
    },
    {
      "channel": 2,
      "note": 72,
      "start": 1.0318,
      "duration": 0.0436,
      "velocity": 98,
      "chip": "ym2612"
    },
    {
      "channel": 3,
      "note": 55,
      "start": 1.0582,
      "duration": 0.0403,
      "velocity": 94,
      "chip": "ym2612"
    },
    {
      "channel": 0,
      "note": 67,
      "start": 1.0796,
      "duration": 0.0181,
      "velocity": 104,
      "chip": "ym2612"
    },
    {
      "channel": 2,
      "note": 69,
      "start": 1.0804,
      "duration": 0.0178,
      "velocity": 98,
      "chip": "ym2612"
    },
    {
      "channel": 4,
      "note": 69,
      "start": 1.0957,
      "duration": 0.312,
      "velocity": 110,
      "chip": "ym2612"
    },
    {
      "channel": 0,
      "note": 64,
      "start": 1.1015,
      "duration": 0.0183,
      "velocity": 104,
      "chip": "ym2612"
    },
    {
      "channel": 2,
      "note": 71,
      "start": 1.1023,
      "duration": 0.018,
      "velocity": 98,
      "chip": "ym2612"
    },
    {
      "channel": 3,
      "note": 55,
      "start": 1.1029,
      "duration": 0.0408,
      "velocity": 94,
      "chip": "ym2612"
    },
    {
      "channel": 0,
      "note": 57,
      "start": 1.1231,
      "duration": 0.0198,
      "velocity": 104,
      "chip": "ym2612"
    },
    {
      "channel": 2,
      "note": 72,
      "start": 1.1239,
      "duration": 0.0195,
      "velocity": 98,
      "chip": "ym2612"
    },
    {
      "channel": 0,
      "note": 55,
      "start": 1.1464,
      "duration": 0.083,
      "velocity": 104,
      "chip": "ym2612"
    },
    {
      "channel": 2,
      "note": 74,
      "start": 1.1473,
      "duration": 0.0827,
      "velocity": 98,
      "chip": "ym2612"
    },
    {
      "channel": 3,
      "note": 55,
      "start": 1.1531,
      "duration": 0.0772,
      "velocity": 94,
      "chip": "ym2612"
    },
    {
      "channel": 0,
      "note": 62,
      "start": 1.2468,
      "duration": 0.0183,
      "velocity": 104,
      "chip": "ym2612"
    },
    {
      "channel": 3,
      "note": 55,
      "start": 1.248,
      "duration": 0.0406,
      "velocity": 94,
      "chip": "ym2612"
    },
    {
      "channel": 0,
      "note": 67,
      "start": 1.2697,
      "duration": 0.083,
      "velocity": 104,
      "chip": "ym2612"
    },
    {
      "channel": 2,
      "note": 74,
      "start": 1.2705,
      "duration": 0.0828,
      "velocity": 98,
      "chip": "ym2612"
    },
    {
      "channel": 3,
      "note": 55,
      "start": 1.298,
      "duration": 0.0922,
      "velocity": 94,
      "chip": "ym2612"
    },
    {
      "channel": 0,
      "note": 62,
      "start": 1.3711,
      "duration": 0.0182,
      "velocity": 104,
      "chip": "ym2612"
    },
    {
      "channel": 1,
      "note": 79,
      "start": 1.3717,
      "duration": 0.0412,
      "velocity": 110,
      "chip": "ym2612"
    },
    {
      "channel": 0,
      "note": 59,
      "start": 1.3938,
      "duration": 0.0188,
      "velocity": 104,
      "chip": "ym2612"
    },
    {
      "channel": 2,
      "note": 74,
      "start": 1.3945,
      "duration": 0.0186,
      "velocity": 98,
      "chip": "ym2612"
    },
    {
      "channel": 3,
      "note": 55,
      "start": 1.3952,
      "duration": 0.0395,
      "velocity": 94,
      "chip": "ym2612"
    },
    {
      "channel": 0,
      "note": 55,
      "start": 1.4157,
      "duration": 0.0181,
      "velocity": 104,
      "chip": "ym2612"
    },
    {
      "channel": 1,
      "note": 77,
      "start": 1.4163,
      "duration": 0.0178,
      "velocity": 110,
      "chip": "ym2612"
    },
    {
      "channel": 2,
      "note": 67,
      "start": 1.4168,
      "duration": 0.0176,
      "velocity": 98,
      "chip": "ym2612"
    },
    {
      "channel": 4,
      "note": 81,
      "start": 1.4318,
      "duration": 0.0554,
      "velocity": 110,
      "chip": "ym2612"
    },
    {
      "channel": 0,
      "note": 57,
      "start": 1.4378,
      "duration": 0.0827,
      "velocity": 104,
      "chip": "ym2612"
    },
    {
      "channel": 1,
      "note": 76,
      "start": 1.4383,
      "duration": 0.2341,
      "velocity": 110,
      "chip": "ym2612"
    },
    {
      "channel": 2,
      "note": 72,
      "start": 1.4425,
      "duration": 0.0784,
      "velocity": 98,
      "chip": "ym2612"
    },
    {
      "channel": 3,
      "note": 55,
      "start": 1.4493,
      "duration": 0.072,
      "velocity": 94,
      "chip": "ym2612"
    },
    {
      "channel": 4,
      "note": 79,
      "start": 1.5046,
      "duration": 0.0485,
      "velocity": 110,
      "chip": "ym2612"
    },
    {
      "channel": 0,
      "note": 64,
      "start": 1.5377,
      "duration": 0.0204,
      "velocity": 104,
      "chip": "ym2612"
    },
    {
      "channel": 3,
      "note": 55,
      "start": 1.5389,
      "duration": 0.0405,
      "velocity": 94,
      "chip": "ym2612"
    },
    {
      "channel": 4,
      "note": 77,
      "start": 1.5561,
      "duration": 0.2343,
      "velocity": 110,
      "chip": "ym2612"
    },
    {
      "channel": 0,
      "note": 69,
      "start": 1.5612,
      "duration": 0.0442,
      "velocity": 104,
      "chip": "ym2612"
    },
    {
      "channel": 2,
      "note": 72,
      "start": 1.562,
      "duration": 0.0439,
      "velocity": 98,
      "chip": "ym2612"
    },
    {
      "channel": 3,
      "note": 55,
      "start": 1.5885,
      "duration": 0.0403,
      "velocity": 94,
      "chip": "ym2612"
    },
    {
      "channel": 0,
      "note": 67,
      "start": 1.6099,
      "duration": 0.0179,
      "velocity": 104,
      "chip": "ym2612"
    },
    {
      "channel": 2,
      "note": 69,
      "start": 1.6107,
      "duration": 0.0177,
      "velocity": 98,
      "chip": "ym2612"
    },
    {
      "channel": 0,
      "note": 64,
      "start": 1.6319,
      "duration": 0.0185,
      "velocity": 104,
      "chip": "ym2612"
    },
    {
      "channel": 2,
      "note": 71,
      "start": 1.6327,
      "duration": 0.0182,
      "velocity": 98,
      "chip": "ym2612"
    },
    {
      "channel": 3,
      "note": 55,
      "start": 1.6333,
      "duration": 0.0408,
      "velocity": 94,
      "chip": "ym2612"
    },
    {
      "channel": 0,
      "note": 57,
      "start": 1.6535,
      "duration": 0.0187,
      "velocity": 104,
      "chip": "ym2612"
    },
    {
      "channel": 2,
      "note": 72,
      "start": 1.6543,
      "duration": 0.0195,
      "velocity": 98,
      "chip": "ym2612"
    },
    {
      "channel": 0,
      "note": 55,
      "start": 1.6776,
      "duration": 0.0819,
      "velocity": 104,
      "chip": "ym2612"
    },
    {
      "channel": 1,
      "note": 74,
      "start": 1.6781,
      "duration": 0.0235,
      "velocity": 110,
      "chip": "ym2612"
    },
    {
      "channel": 2,
      "note": 74,
      "start": 1.6788,
      "duration": 0.0813,
      "velocity": 98,
      "chip": "ym2612"
    },
    {
      "channel": 3,
      "note": 55,
      "start": 1.6846,
      "duration": 0.0758,
      "velocity": 94,
      "chip": "ym2612"
    },
    {
      "channel": 1,
      "note": 72,
      "start": 1.7047,
      "duration": 0.0551,
      "velocity": 110,
      "chip": "ym2612"
    },
    {
      "channel": 0,
      "note": 62,
      "start": 1.7768,
      "duration": 0.0188,
      "velocity": 104,
      "chip": "ym2612"
    },
    {
      "channel": 1,
      "note": 71,
      "start": 1.7773,
      "duration": 0.0185,
      "velocity": 110,
      "chip": "ym2612"
    },
    {
      "channel": 3,
      "note": 55,
      "start": 1.7783,
      "duration": 0.0394,
      "velocity": 94,
      "chip": "ym2612"
    },
    {
      "channel": 4,
      "note": 76,
      "start": 1.7936,
      "duration": 0.0185,
      "velocity": 110,
      "chip": "ym2612"
    },
    {
      "channel": 0,
      "note": 67,
      "start": 1.7987,
      "duration": 0.0827,
      "velocity": 104,
      "chip": "ym2612"
    },
    {
      "channel": 1,
      "note": 67,
      "start": 1.7992,
      "duration": 0.0824,
      "velocity": 110,
      "chip": "ym2612"
    },
    {
      "channel": 2,
      "note": 74,
      "start": 1.7998,
      "duration": 0.0821,
      "velocity": 98,
      "chip": "ym2612"
    },
    {
      "channel": 4,
      "note": 74,
      "start": 1.8151,
      "duration": 0.033,
      "velocity": 110,
      "chip": "ym2612"
    },
    {
      "channel": 3,
      "note": 55,
      "start": 1.827,
      "duration": 0.0929,
      "velocity": 94,
      "chip": "ym2612"
    },
    {
      "channel": 4,
      "note": 72,
      "start": 1.8655,
      "duration": 0.0484,
      "velocity": 110,
      "chip": "ym2612"
    },
    {
      "channel": 0,
      "note": 62,
      "start": 1.8987,
      "duration": 0.0203,
      "velocity": 104,
      "chip": "ym2612"
    },
    {
      "channel": 1,
      "note": 69,
      "start": 1.8992,
      "duration": 0.02,
      "velocity": 110,
      "chip": "ym2612"
    },
    {
      "channel": 4,
      "note": 71,
      "start": 1.917,
      "duration": 0.0413,
      "velocity": 110,
      "chip": "ym2612"
    },
    {
      "channel": 0,
      "note": 59,
      "start": 1.9235,
      "duration": 0.0184,
      "velocity": 104,
      "chip": "ym2612"
    },
    {
      "channel": 1,
      "note": 71,
      "start": 1.924,
      "duration": 0.0182,
      "velocity": 110,
      "chip": "ym2612"
    },
    {
      "channel": 2,
      "note": 74,
      "start": 1.9245,
      "duration": 0.0179,
      "velocity": 98,
      "chip": "ym2612"
    },
    {
      "channel": 3,
      "note": 55,
      "start": 1.9251,
      "duration": 0.0391,
      "velocity": 94,
      "chip": "ym2612"
    },
    {
      "channel": 0,
      "note": 55,
      "start": 1.945,
      "duration": 0.0183,
      "velocity": 104,
      "chip": "ym2612"
    },
    {
      "channel": 1,
      "note": 67,
      "start": 1.9456,
      "duration": 0.0181,
      "velocity": 110,
      "chip": "ym2612"
    },
    {
      "channel": 2,
      "note": 67,
      "start": 1.9461,
      "duration": 0.0178,
      "velocity": 98,
      "chip": "ym2612"
    },
    {
      "channel": 4,
      "note": 67,
      "start": 1.9613,
      "duration": 0.0291,
      "velocity": 110,
      "chip": "ym2612"
    },
    {
      "channel": 0,
      "note": 57,
      "start": 1.9675,
      "duration": 0.0826,
      "velocity": 104,
      "chip": "ym2612"
    },
    {
      "channel": 1,
      "note": 69,
      "start": 1.968,
      "duration": 0.2342,
      "velocity": 110,
      "chip": "ym2612"
    },
    {
      "channel": 2,
      "note": 72,
      "start": 1.9722,
      "duration": 0.0783,
      "velocity": 98,
      "chip": "ym2612"
    },
    {
      "channel": 3,
      "note": 55,
      "start": 1.979,
      "duration": 0.0719,
      "velocity": 94,
      "chip": "ym2612"
    },
    {
      "channel": 4,
      "note": 69,
      "start": 1.9936,
      "duration": 0.0233,
      "velocity": 110,
      "chip": "ym2612"
    },
    {
      "channel": 4,
      "note": 71,
      "start": 2.0342,
      "duration": 0.0469,
      "velocity": 110,
      "chip": "ym2612"
    },
    {
      "channel": 0,
      "note": 64,
      "start": 2.0674,
      "duration": 0.0193,
      "velocity": 104,
      "chip": "ym2612"
    },
    {
      "channel": 3,
      "note": 55,
      "start": 2.0686,
      "duration": 0.0413,
      "velocity": 94,
      "chip": "ym2612"
    },
    {
      "channel": 4,
      "note": 67,
      "start": 2.0855,
      "duration": 0.236,
      "velocity": 110,
      "chip": "ym2612"
    },
    {
      "channel": 0,
      "note": 69,
      "start": 2.0911,
      "duration": 0.0447,
      "velocity": 104,
      "chip": "ym2612"
    },
    {
      "channel": 2,
      "note": 72,
      "start": 2.0919,
      "duration": 0.0445,
      "velocity": 98,
      "chip": "ym2612"
    },
    {
      "channel": 3,
      "note": 55,
      "start": 2.1189,
      "duration": 0.0405,
      "velocity": 94,
      "chip": "ym2612"
    },
    {
      "channel": 0,
      "note": 67,
      "start": 2.1406,
      "duration": 0.0179,
      "velocity": 104,
      "chip": "ym2612"
    },
    {
      "channel": 2,
      "note": 69,
      "start": 2.1414,
      "duration": 0.0177,
      "velocity": 98,
      "chip": "ym2612"
    },
    {
      "channel": 0,
      "note": 64,
      "start": 2.1625,
      "duration": 0.0185,
      "velocity": 104,
      "chip": "ym2612"
    },
    {
      "channel": 2,
      "note": 71,
      "start": 2.1633,
      "duration": 0.0182,
      "velocity": 98,
      "chip": "ym2612"
    },
    {
      "channel": 3,
      "note": 55,
      "start": 2.1639,
      "duration": 0.039,
      "velocity": 94,
      "chip": "ym2612"
    },
    {
      "channel": 0,
      "note": 57,
      "start": 2.1841,
      "duration": 0.0179,
      "velocity": 104,
      "chip": "ym2612"
    },
    {
      "channel": 2,
      "note": 72,
      "start": 2.1849,
      "duration": 0.0176,
      "velocity": 98,
      "chip": "ym2612"
    },
    {
      "channel": 0,
      "note": 55,
      "start": 2.2064,
      "duration": 0.0843,
      "velocity": 104,
      "chip": "ym2612"
    },
    {
      "channel": 1,
      "note": 71,
      "start": 2.2069,
      "duration": 0.2887,
      "velocity": 110,
      "chip": "ym2612"
    },
    {
      "channel": 2,
      "note": 74,
      "start": 2.2076,
      "duration": 0.0837,
      "velocity": 98,
      "chip": "ym2612"
    },
    {
      "channel": 3,
      "note": 55,
      "start": 2.2144,
      "duration": 0.0771,
      "velocity": 94,
      "chip": "ym2612"
    },
    {
      "channel": 0,
      "note": 62,
      "start": 2.308,
      "duration": 0.0186,
      "velocity": 104,
      "chip": "ym2612"
    },
    {
      "channel": 3,
      "note": 55,
      "start": 2.3093,
      "duration": 0.0404,
      "velocity": 94,
      "chip": "ym2612"
    },
    {
      "channel": 4,
      "note": 69,
      "start": 2.3247,
      "duration": 0.2887,
      "velocity": 110,
      "chip": "ym2612"
    },
    {
      "channel": 0,
      "note": 67,
      "start": 2.3312,
      "duration": 0.0827,
      "velocity": 104,
      "chip": "ym2612"
    },
    {
      "channel": 2,
      "note": 74,
      "start": 2.332,
      "duration": 0.0824,
      "velocity": 98,
      "chip": "ym2612"
    },
    {
      "channel": 3,
      "note": 55,
      "start": 2.3579,
      "duration": 0.0937,
      "velocity": 94,
      "chip": "ym2612"
    },
    {
      "channel": 0,
      "note": 62,
      "start": 2.4312,
      "duration": 0.0185,
      "velocity": 104,
      "chip": "ym2612"
    },
    {
      "channel": 0,
      "note": 59,
      "start": 2.4553,
      "duration": 0.0188,
      "velocity": 104,
      "chip": "ym2612"
    },
    {
      "channel": 2,
      "note": 74,
      "start": 2.4561,
      "duration": 0.0185,
      "velocity": 98,
      "chip": "ym2612"
    },
    {
      "channel": 3,
      "note": 55,
      "start": 2.4568,
      "duration": 0.0395,
      "velocity": 94,
      "chip": "ym2612"
    },
    {
      "channel": 0,
      "note": 55,
      "start": 2.4772,
      "duration": 0.0181,
      "velocity": 104,
      "chip": "ym2612"
    },
    {
      "channel": 2,
      "note": 67,
      "start": 2.478,
      "duration": 0.018,
      "velocity": 98,
      "chip": "ym2612"
    },
    {
      "channel": 0,
      "note": 57,
      "start": 2.5002,
      "duration": 0.0826,
      "velocity": 104,
      "chip": "ym2612"
    },
    {
      "channel": 1,
      "note": 72,
      "start": 2.5007,
      "duration": 0.2338,
      "velocity": 110,
      "chip": "ym2612"
    },
    {
      "channel": 2,
      "note": 72,
      "start": 2.5015,
      "duration": 0.0817,
      "velocity": 98,
      "chip": "ym2612"
    },
    {
      "channel": 3,
      "note": 55,
      "start": 2.5072,
      "duration": 0.0763,
      "velocity": 94,
      "chip": "ym2612"
    },
    {
      "channel": 0,
      "note": 64,
      "start": 2.6001,
      "duration": 0.0184,
      "velocity": 104,
      "chip": "ym2612"
    },
    {
      "channel": 3,
      "note": 55,
      "start": 2.6013,
      "duration": 0.041,
      "velocity": 94,
      "chip": "ym2612"
    },
    {
      "channel": 4,
      "note": 71,
      "start": 2.6165,
      "duration": 0.2371,
      "velocity": 110,
      "chip": "ym2612"
    },
    {
      "channel": 0,
      "note": 69,
      "start": 2.6219,
      "duration": 0.0462,
      "velocity": 104,
      "chip": "ym2612"
    },
    {
      "channel": 2,
      "note": 72,
      "start": 2.6227,
      "duration": 0.0459,
      "velocity": 98,
      "chip": "ym2612"
    },
    {
      "channel": 3,
      "note": 55,
      "start": 2.6513,
      "duration": 0.0405,
      "velocity": 94,
      "chip": "ym2612"
    },
    {
      "channel": 0,
      "note": 67,
      "start": 2.6726,
      "duration": 0.0182,
      "velocity": 104,
      "chip": "ym2612"
    },
    {
      "channel": 2,
      "note": 69,
      "start": 2.6734,
      "duration": 0.018,
      "velocity": 98,
      "chip": "ym2612"
    },
    {
      "channel": 0,
      "note": 64,
      "start": 2.6947,
      "duration": 0.0185,
      "velocity": 104,
      "chip": "ym2612"
    },
    {
      "channel": 2,
      "note": 71,
      "start": 2.6956,
      "duration": 0.0182,
      "velocity": 98,
      "chip": "ym2612"
    },
    {
      "channel": 3,
      "note": 55,
      "start": 2.6962,
      "duration": 0.0389,
      "velocity": 94,
      "chip": "ym2612"
    },
    {
      "channel": 0,
      "note": 57,
      "start": 2.7163,
      "duration": 0.0179,
      "velocity": 104,
      "chip": "ym2612"
    },
    {
      "channel": 2,
      "note": 72,
      "start": 2.7171,
      "duration": 0.0176,
      "velocity": 98,
      "chip": "ym2612"
    },
    {
      "channel": 0,
      "note": 55,
      "start": 2.7384,
      "duration": 0.0844,
      "velocity": 104,
      "chip": "ym2612"
    },
    {
      "channel": 1,
      "note": 74,
      "start": 2.7389,
      "duration": 0.1425,
      "velocity": 110,
      "chip": "ym2612"
    },
    {
      "channel": 2,
      "note": 74,
      "start": 2.7396,
      "duration": 0.0837,
      "velocity": 98,
      "chip": "ym2612"
    },
    {
      "channel": 3,
      "note": 55,
      "start": 2.7463,
      "duration": 0.0773,
      "velocity": 94,
      "chip": "ym2612"
    },
    {
      "channel": 0,
      "note": 62,
      "start": 2.8401,
      "duration": 0.0187,
      "velocity": 104,
      "chip": "ym2612"
    },
    {
      "channel": 3,
      "note": 55,
      "start": 2.8413,
      "duration": 0.0407,
      "velocity": 94,
      "chip": "ym2612"
    },
    {
      "channel": 4,
      "note": 72,
      "start": 2.8568,
      "duration": 0.1463,
      "velocity": 110,
      "chip": "ym2612"
    },
    {
      "channel": 0,
      "note": 67,
      "start": 2.8635,
      "duration": 0.0829,
      "velocity": 104,
      "chip": "ym2612"
    },
    {
      "channel": 2,
      "note": 74,
      "start": 2.8643,
      "duration": 0.0826,
      "velocity": 98,
      "chip": "ym2612"
    },
    {
      "channel": 1,
      "note": 76,
      "start": 2.8846,
      "duration": 0.1449,
      "velocity": 110,
      "chip": "ym2612"
    },
    {
      "channel": 3,
      "note": 55,
      "start": 2.8905,
      "duration": 0.0937,
      "velocity": 94,
      "chip": "ym2612"
    },
    {
      "channel": 0,
      "note": 62,
      "start": 2.9637,
      "duration": 0.0197,
      "velocity": 104,
      "chip": "ym2612"
    },
    {
      "channel": 2,
      "note": 91,
      "start": 2.9662,
      "duration": 0.0429,
      "velocity": 98,
      "chip": "ym2612"
    },
    {
      "channel": 0,
      "note": 59,
      "start": 2.9877,
      "duration": 0.0208,
      "velocity": 104,
      "chip": "ym2612"
    },
    {
      "channel": 3,
      "note": 55,
      "start": 2.9888,
      "duration": 0.0413,
      "velocity": 94,
      "chip": "ym2612"
    },
    {
      "channel": 4,
      "note": 74,
      "start": 3.0065,
      "duration": 0.1399,
      "velocity": 110,
      "chip": "ym2612"
    },
    {
      "channel": 0,
      "note": 55,
      "start": 3.0116,
      "duration": 0.0176,
      "velocity": 104,
      "chip": "ym2612"
    },
    {
      "channel": 2,
      "note": 89,
      "start": 3.0124,
      "duration": 0.0174,
      "velocity": 98,
      "chip": "ym2612"
    },
    {
      "channel": 0,
      "note": 57,
      "start": 3.033,
      "duration": 0.0828,
      "velocity": 104,
      "chip": "ym2612"
    },
    {
      "channel": 1,
      "note": 69,
      "start": 3.0335,
      "duration": 0.0825,
      "velocity": 110,
      "chip": "ym2612"
    },
    {
      "channel": 2,
      "note": 88,
      "start": 3.0359,
      "duration": 0.0231,
      "velocity": 98,
      "chip": "ym2612"
    },
    {
      "channel": 3,
      "note": 55,
      "start": 3.0416,
      "duration": 0.075,
      "velocity": 94,
      "chip": "ym2612"
    },
    {
      "channel": 2,
      "note": 72,
      "start": 3.062,
      "duration": 0.0542,
      "velocity": 98,
      "chip": "ym2612"
    },
    {
      "channel": 0,
      "note": 64,
      "start": 3.1331,
      "duration": 0.0185,
      "velocity": 104,
      "chip": "ym2612"
    },
    {
      "channel": 3,
      "note": 55,
      "start": 3.1344,
      "duration": 0.0405,
      "velocity": 94,
      "chip": "ym2612"
    },
    {
      "channel": 4,
      "note": 76,
      "start": 3.1496,
      "duration": 0.0472,
      "velocity": 110,
      "chip": "ym2612"
    },
    {
      "channel": 0,
      "note": 69,
      "start": 3.1547,
      "duration": 0.047,
      "velocity": 104,
      "chip": "ym2612"
    },
    {
      "channel": 1,
      "note": 81,
      "start": 3.1552,
      "duration": 0.0467,
      "velocity": 110,
      "chip": "ym2612"
    },
    {
      "channel": 2,
      "note": 72,
      "start": 3.1558,
      "duration": 0.0464,
      "velocity": 98,
      "chip": "ym2612"
    },
    {
      "channel": 3,
      "note": 55,
      "start": 3.1847,
      "duration": 0.0404,
      "velocity": 94,
      "chip": "ym2612"
    },
    {
      "channel": 0,
      "note": 67,
      "start": 3.2053,
      "duration": 0.0188,
      "velocity": 104,
      "chip": "ym2612"
    },
    {
      "channel": 1,
      "note": 81,
      "start": 3.2059,
      "duration": 0.0185,
      "velocity": 110,
      "chip": "ym2612"
    },
    {
      "channel": 2,
      "note": 69,
      "start": 3.2064,
      "duration": 0.0183,
      "velocity": 98,
      "chip": "ym2612"
    },
    {
      "channel": 4,
      "note": 69,
      "start": 3.2221,
      "duration": 0.0401,
      "velocity": 110,
      "chip": "ym2612"
    },
    {
      "channel": 0,
      "note": 64,
      "start": 3.2278,
      "duration": 0.0184,
      "velocity": 104,
      "chip": "ym2612"
    },
    {
      "channel": 1,
      "note": 83,
      "start": 3.2283,
      "duration": 0.0181,
      "velocity": 110,
      "chip": "ym2612"
    },
    {
      "channel": 2,
      "note": 71,
      "start": 3.2288,
      "duration": 0.0178,
      "velocity": 98,
      "chip": "ym2612"
    },
    {
      "channel": 3,
      "note": 55,
      "start": 3.2295,
      "duration": 0.0387,
      "velocity": 94,
      "chip": "ym2612"
    },
    {
      "channel": 0,
      "note": 57,
      "start": 3.2492,
      "duration": 0.0181,
      "velocity": 104,
      "chip": "ym2612"
    },
    {
      "channel": 1,
      "note": 84,
      "start": 3.2498,
      "duration": 0.0178,
      "velocity": 110,
      "chip": "ym2612"
    },
    {
      "channel": 2,
      "note": 72,
      "start": 3.2503,
      "duration": 0.0176,
      "velocity": 98,
      "chip": "ym2612"
    },
    {
      "channel": 4,
      "note": 81,
      "start": 3.2653,
      "duration": 0.0251,
      "velocity": 110,
      "chip": "ym2612"
    },
    {
      "channel": 0,
      "note": 55,
      "start": 3.2712,
      "duration": 0.0843,
      "velocity": 104,
      "chip": "ym2612"
    },
    {
      "channel": 1,
      "note": 83,
      "start": 3.2718,
      "duration": 0.2881,
      "velocity": 110,
      "chip": "ym2612"
    },
    {
      "channel": 2,
      "note": 74,
      "start": 3.2724,
      "duration": 0.0836,
      "velocity": 98,
      "chip": "ym2612"
    },
    {
      "channel": 3,
      "note": 55,
      "start": 3.2792,
      "duration": 0.0772,
      "velocity": 94,
      "chip": "ym2612"
    },
    {
      "channel": 4,
      "note": 81,
      "start": 3.2935,
      "duration": 0.0293,
      "velocity": 110,
      "chip": "ym2612"
    },
    {
      "channel": 4,
      "note": 83,
      "start": 3.3401,
      "duration": 0.0455,
      "velocity": 110,
      "chip": "ym2612"
    },
    {
      "channel": 0,
      "note": 62,
      "start": 3.3724,
      "duration": 0.0183,
      "velocity": 104,
      "chip": "ym2612"
    },
    {
      "channel": 3,
      "note": 55,
      "start": 3.3736,
      "duration": 0.0405,
      "velocity": 94,
      "chip": "ym2612"
    },
    {
      "channel": 4,
      "note": 84,
      "start": 3.3886,
      "duration": 0.2895,
      "velocity": 110,
      "chip": "ym2612"
    },
    {
      "channel": 0,
      "note": 67,
      "start": 3.3954,
      "duration": 0.0828,
      "velocity": 104,
      "chip": "ym2612"
    },
    {
      "channel": 2,
      "note": 74,
      "start": 3.3962,
      "duration": 0.0825,
      "velocity": 98,
      "chip": "ym2612"
    },
    {
      "channel": 3,
      "note": 55,
      "start": 3.4224,
      "duration": 0.0917,
      "velocity": 94,
      "chip": "ym2612"
    },
    {
      "channel": 0,
      "note": 62,
      "start": 3.4956,
      "duration": 0.0176,
      "velocity": 104,
      "chip": "ym2612"
    },
    {
      "channel": 0,
      "note": 59,
      "start": 3.5175,
      "duration": 0.0196,
      "velocity": 104,
      "chip": "ym2612"
    },
    {
      "channel": 2,
      "note": 74,
      "start": 3.5183,
      "duration": 0.0193,
      "velocity": 98,
      "chip": "ym2612"
    },
    {
      "channel": 3,
      "note": 55,
      "start": 3.5189,
      "duration": 0.0416,
      "velocity": 94,
      "chip": "ym2612"
    },
    {
      "channel": 0,
      "note": 55,
      "start": 3.5405,
      "duration": 0.0192,
      "velocity": 104,
      "chip": "ym2612"
    },
    {
      "channel": 2,
      "note": 67,
      "start": 3.5423,
      "duration": 0.0179,
      "velocity": 98,
      "chip": "ym2612"
    },
    {
      "channel": 0,
      "note": 57,
      "start": 3.5644,
      "duration": 0.083,
      "velocity": 104,
      "chip": "ym2612"
    },
    {
      "channel": 1,
      "note": 69,
      "start": 3.5649,
      "duration": 0.0827,
      "velocity": 110,
      "chip": "ym2612"
    },
    {
      "channel": 2,
      "note": 72,
      "start": 3.5657,
      "duration": 0.0822,
      "velocity": 98,
      "chip": "ym2612"
    },
    {
      "channel": 3,
      "note": 55,
      "start": 3.5715,
      "duration": 0.0768,
      "velocity": 94,
      "chip": "ym2612"
    },
    {
      "channel": 0,
      "note": 64,
      "start": 3.6647,
      "duration": 0.0185,
      "velocity": 104,
      "chip": "ym2612"
    },
    {
      "channel": 3,
      "note": 55,
      "start": 3.666,
      "duration": 0.0386,
      "velocity": 94,
      "chip": "ym2612"
    },
    {
      "channel": 4,
      "note": 83,
      "start": 3.6812,
      "duration": 0.0469,
      "velocity": 110,
      "chip": "ym2612"
    },
    {
      "channel": 0,
      "note": 69,
      "start": 3.6863,
      "duration": 0.0466,
      "velocity": 104,
      "chip": "ym2612"
    },
    {
      "channel": 1,
      "note": 81,
      "start": 3.6869,
      "duration": 0.0463,
      "velocity": 110,
      "chip": "ym2612"
    },
    {
      "channel": 2,
      "note": 72,
      "start": 3.6874,
      "duration": 0.0461,
      "velocity": 98,
      "chip": "ym2612"
    },
    {
      "channel": 3,
      "note": 55,
      "start": 3.7151,
      "duration": 0.0413,
      "velocity": 94,
      "chip": "ym2612"
    },
    {
      "channel": 0,
      "note": 67,
      "start": 3.737,
      "duration": 0.0185,
      "velocity": 104,
      "chip": "ym2612"
    },
    {
      "channel": 1,
      "note": 81,
      "start": 3.7376,
      "duration": 0.0182,
      "velocity": 110,
      "chip": "ym2612"
    },
    {
      "channel": 2,
      "note": 69,
      "start": 3.7381,
      "duration": 0.018,
      "velocity": 98,
      "chip": "ym2612"
    },
    {
      "channel": 4,
      "note": 69,
      "start": 3.7534,
      "duration": 0.0417,
      "velocity": 110,
      "chip": "ym2612"
    },
    {
      "channel": 0,
      "note": 64,
      "start": 3.7603,
      "duration": 0.0186,
      "velocity": 104,
      "chip": "ym2612"
    },
    {
      "channel": 1,
      "note": 83,
      "start": 3.7609,
      "duration": 0.0184,
      "velocity": 110,
      "chip": "ym2612"
    },
    {
      "channel": 2,
      "note": 71,
      "start": 3.7614,
      "duration": 0.0181,
      "velocity": 98,
      "chip": "ym2612"
    },
    {
      "channel": 3,
      "note": 55,
      "start": 3.7621,
      "duration": 0.039,
      "velocity": 94,
      "chip": "ym2612"
    },
    {
      "channel": 0,
      "note": 57,
      "start": 3.7821,
      "duration": 0.0181,
      "velocity": 104,
      "chip": "ym2612"
    },
    {
      "channel": 1,
      "note": 84,
      "start": 3.7826,
      "duration": 0.0179,
      "velocity": 110,
      "chip": "ym2612"
    },
    {
      "channel": 2,
      "note": 72,
      "start": 3.7832,
      "duration": 0.0176,
      "velocity": 98,
      "chip": "ym2612"
    },
    {
      "channel": 4,
      "note": 81,
      "start": 3.7982,
      "duration": 0.0252,
      "velocity": 110,
      "chip": "ym2612"
    },
    {
      "channel": 0,
      "note": 55,
      "start": 3.8042,
      "duration": 0.083,
      "velocity": 104,
      "chip": "ym2612"
    },
    {
      "channel": 1,
      "note": 86,
      "start": 3.8047,
      "duration": 0.1199,
      "velocity": 110,
      "chip": "ym2612"
    },
    {
      "channel": 2,
      "note": 74,
      "start": 3.8054,
      "duration": 0.0823,
      "velocity": 98,
      "chip": "ym2612"
    },
    {
      "channel": 3,
      "note": 55,
      "start": 3.8121,
      "duration": 0.0769,
      "velocity": 94,
      "chip": "ym2612"
    },
    {
      "channel": 4,
      "note": 81,
      "start": 3.8265,
      "duration": 0.0275,
      "velocity": 110,
      "chip": "ym2612"
    },
    {
      "channel": 4,
      "note": 83,
      "start": 3.8724,
      "duration": 0.0468,
      "velocity": 110,
      "chip": "ym2612"
    },
    {
      "channel": 0,
      "note": 62,
      "start": 3.9045,
      "duration": 0.0198,
      "velocity": 104,
      "chip": "ym2612"
    },
    {
      "channel": 3,
      "note": 55,
      "start": 3.9068,
      "duration": 0.0402,
      "velocity": 94,
      "chip": "ym2612"
    },
    {
      "channel": 4,
      "note": 84,
      "start": 3.9224,
      "duration": 0.1188,
      "velocity": 110,
      "chip": "ym2612"
    },
    {
      "channel": 0,
      "note": 67,
      "start": 3.928,
      "duration": 0.083,
      "velocity": 104,
      "chip": "ym2612"
    },
    {
      "channel": 1,
      "note": 84,
      "start": 3.9286,
      "duration": 0.1179,
      "velocity": 110,
      "chip": "ym2612"
    },
    {
      "channel": 2,
      "note": 74,
      "start": 3.9291,
      "duration": 0.0824,
      "velocity": 98,
      "chip": "ym2612"
    },
    {
      "channel": 3,
      "note": 55,
      "start": 3.9552,
      "duration": 0.0919,
      "velocity": 94,
      "chip": "ym2612"
    },
    {
      "channel": 0,
      "note": 62,
      "start": 4.0284,
      "duration": 0.0178,
      "velocity": 104,
      "chip": "ym2612"
    },
    {
      "channel": 4,
      "note": 86,
      "start": 4.0442,
      "duration": 0.0706,
      "velocity": 110,
      "chip": "ym2612"
    },
    {
      "channel": 0,
      "note": 59,
      "start": 4.0503,
      "duration": 0.0184,
      "velocity": 104,
      "chip": "ym2612"
    },
    {
      "channel": 1,
      "note": 83,
      "start": 4.0509,
      "duration": 0.0406,
      "velocity": 110,
      "chip": "ym2612"
    },
    {
      "channel": 2,
      "note": 74,
      "start": 4.0514,
      "duration": 0.0178,
      "velocity": 98,
      "chip": "ym2612"
    },
    {
      "channel": 3,
      "note": 55,
      "start": 4.052,
      "duration": 0.0401,
      "velocity": 94,
      "chip": "ym2612"
    },
    {
      "channel": 0,
      "note": 55,
      "start": 4.0717,
      "duration": 0.0195,
      "velocity": 104,
      "chip": "ym2612"
    },
    {
      "channel": 2,
      "note": 67,
      "start": 4.0725,
      "duration": 0.0193,
      "velocity": 98,
      "chip": "ym2612"
    },
    {
      "channel": 0,
      "note": 57,
      "start": 4.0955,
      "duration": 0.0828,
      "velocity": 104,
      "chip": "ym2612"
    },
    {
      "channel": 1,
      "note": 88,
      "start": 4.0961,
      "duration": 0.5248,
      "velocity": 110,
      "chip": "ym2612"
    },
    {
      "channel": 2,
      "note": 72,
      "start": 4.0968,
      "duration": 0.082,
      "velocity": 98,
      "chip": "ym2612"
    },
    {
      "channel": 3,
      "note": 55,
      "start": 4.1026,
      "duration": 0.0765,
      "velocity": 94,
      "chip": "ym2612"
    },
    {
      "channel": 4,
      "note": 84,
      "start": 4.1179,
      "duration": 0.0908,
      "velocity": 110,
      "chip": "ym2612"
    },
    {
      "channel": 0,
      "note": 64,
      "start": 4.1956,
      "duration": 0.0183,
      "velocity": 104,
      "chip": "ym2612"
    },
    {
      "channel": 3,
      "note": 55,
      "start": 4.1968,
      "duration": 0.0383,
      "velocity": 94,
      "chip": "ym2612"
    },
    {
      "channel": 4,
      "note": 83,
      "start": 4.2119,
      "duration": 0.5267,
      "velocity": 110,
      "chip": "ym2612"
    },
    {
      "channel": 0,
      "note": 69,
      "start": 4.217,
      "duration": 0.0442,
      "velocity": 104,
      "chip": "ym2612"
    },
    {
      "channel": 2,
      "note": 72,
      "start": 4.2178,
      "duration": 0.0439,
      "velocity": 98,
      "chip": "ym2612"
    },
    {
      "channel": 3,
      "note": 55,
      "start": 4.2444,
      "duration": 0.0418,
      "velocity": 94,
      "chip": "ym2612"
    },
    {
      "channel": 0,
      "note": 67,
      "start": 4.2661,
      "duration": 0.0192,
      "velocity": 104,
      "chip": "ym2612"
    },
    {
      "channel": 2,
      "note": 69,
      "start": 4.2679,
      "duration": 0.018,
      "velocity": 98,
      "chip": "ym2612"
    },
    {
      "channel": 0,
      "note": 64,
      "start": 4.2897,
      "duration": 0.0187,
      "velocity": 104,
      "chip": "ym2612"
    },
    {
      "channel": 2,
      "note": 71,
      "start": 4.2905,
      "duration": 0.0185,
      "velocity": 98,
      "chip": "ym2612"
    },
    {
      "channel": 3,
      "note": 55,
      "start": 4.2912,
      "duration": 0.0392,
      "velocity": 94,
      "chip": "ym2612"
    },
    {
      "channel": 0,
      "note": 57,
      "start": 4.3117,
      "duration": 0.0178,
      "velocity": 104,
      "chip": "ym2612"
    },
    {
      "channel": 2,
      "note": 72,
      "start": 4.3125,
      "duration": 0.0176,
      "velocity": 98,
      "chip": "ym2612"
    },
    {
      "channel": 0,
      "note": 55,
      "start": 4.3335,
      "duration": 0.0827,
      "velocity": 104,
      "chip": "ym2612"
    },
    {
      "channel": 2,
      "note": 74,
      "start": 4.3345,
      "duration": 0.0824,
      "velocity": 98,
      "chip": "ym2612"
    },
    {
      "channel": 3,
      "note": 55,
      "start": 4.3402,
      "duration": 0.077,
      "velocity": 94,
      "chip": "ym2612"
    },
    {
      "channel": 0,
      "note": 62,
      "start": 4.4336,
      "duration": 0.0204,
      "velocity": 104,
      "chip": "ym2612"
    },
    {
      "channel": 3,
      "note": 55,
      "start": 4.4349,
      "duration": 0.0421,
      "velocity": 94,
      "chip": "ym2612"
    },
    {
      "channel": 0,
      "note": 67,
      "start": 4.4581,
      "duration": 0.0828,
      "velocity": 104,
      "chip": "ym2612"
    },
    {
      "channel": 2,
      "note": 74,
      "start": 4.4589,
      "duration": 0.0826,
      "velocity": 98,
      "chip": "ym2612"
    },
    {
      "channel": 3,
      "note": 55,
      "start": 4.4853,
      "duration": 0.0916,
      "velocity": 94,
      "chip": "ym2612"
    },
    {
      "channel": 0,
      "note": 62,
      "start": 4.5583,
      "duration": 0.0178,
      "velocity": 104,
      "chip": "ym2612"
    },
    {
      "channel": 0,
      "note": 59,
      "start": 4.5802,
      "duration": 0.0185,
      "velocity": 104,
      "chip": "ym2612"
    },
    {
      "channel": 2,
      "note": 74,
      "start": 4.581,
      "duration": 0.0183,
      "velocity": 98,
      "chip": "ym2612"
    },
    {
      "channel": 3,
      "note": 55,
      "start": 4.5817,
      "duration": 0.0409,
      "velocity": 94,
      "chip": "ym2612"
    },
    {
      "channel": 0,
      "note": 55,
      "start": 4.6019,
      "duration": 0.0187,
      "velocity": 104,
      "chip": "ym2612"
    },
    {
      "channel": 2,
      "note": 67,
      "start": 4.6027,
      "duration": 0.0185,
      "velocity": 98,
      "chip": "ym2612"
    },
    {
      "channel": 0,
      "note": 57,
      "start": 4.6251,
      "duration": 0.0829,
      "velocity": 104,
      "chip": "ym2612"
    },
    {
      "channel": 1,
      "note": 100,
      "start": 4.6268,
      "duration": 0.4153,
      "velocity": 110,
      "chip": "ym2612"
    },
    {
      "channel": 2,
      "note": 72,
      "start": 4.6277,
      "duration": 0.0809,
      "velocity": 98,
      "chip": "ym2612"
    },
    {
      "channel": 3,
      "note": 55,
      "start": 4.6334,
      "duration": 0.0754,
      "velocity": 94,
      "chip": "ym2612"
    },
    {
      "channel": 0,
      "note": 64,
      "start": 4.7254,
      "duration": 0.0186,
      "velocity": 104,
      "chip": "ym2612"
    },
    {
      "channel": 3,
      "note": 55,
      "start": 4.7266,
      "duration": 0.0394,
      "velocity": 94,
      "chip": "ym2612"
    },
    {
      "channel": 4,
      "note": 88,
      "start": 4.7418,
      "duration": 0.3724,
      "velocity": 110,
      "chip": "ym2612"
    },
    {
      "channel": 0,
      "note": 69,
      "start": 4.7471,
      "duration": 0.0445,
      "velocity": 104,
      "chip": "ym2612"
    },
    {
      "channel": 2,
      "note": 72,
      "start": 4.748,
      "duration": 0.0443,
      "velocity": 98,
      "chip": "ym2612"
    },
    {
      "channel": 3,
      "note": 55,
      "start": 4.7757,
      "duration": 0.0416,
      "velocity": 94,
      "chip": "ym2612"
    },
    {
      "channel": 0,
      "note": 67,
      "start": 4.7963,
      "duration": 0.0201,
      "velocity": 104,
      "chip": "ym2612"
    },
    {
      "channel": 2,
      "note": 69,
      "start": 4.7971,
      "duration": 0.0199,
      "velocity": 98,
      "chip": "ym2612"
    },
    {
      "channel": 0,
      "note": 64,
      "start": 4.8213,
      "duration": 0.0185,
      "velocity": 104,
      "chip": "ym2612"
    },
    {
      "channel": 2,
      "note": 71,
      "start": 4.8221,
      "duration": 0.0182,
      "velocity": 98,
      "chip": "ym2612"
    },
    {
      "channel": 3,
      "note": 55,
      "start": 4.8227,
      "duration": 0.0392,
      "velocity": 94,
      "chip": "ym2612"
    },
    {
      "channel": 0,
      "note": 57,
      "start": 4.8429,
      "duration": 0.0181,
      "velocity": 104,
      "chip": "ym2612"
    },
    {
      "channel": 2,
      "note": 72,
      "start": 4.8437,
      "duration": 0.0179,
      "velocity": 98,
      "chip": "ym2612"
    },
    {
      "channel": 0,
      "note": 55,
      "start": 4.8649,
      "duration": 0.0407,
      "velocity": 104,
      "chip": "ym2612"
    },
    {
      "channel": 2,
      "note": 74,
      "start": 4.8659,
      "duration": 0.0404,
      "velocity": 98,
      "chip": "ym2612"
    },
    {
      "channel": 3,
      "note": 55,
      "start": 4.8666,
      "duration": 0.1761,
      "velocity": 94,
      "chip": "ym2612"
    },
    {
      "channel": 0,
      "note": 62,
      "start": 4.9098,
      "duration": 0.0188,
      "velocity": 104,
      "chip": "ym2612"
    },
    {
      "channel": 0,
      "note": 67,
      "start": 4.9321,
      "duration": 0.0414,
      "velocity": 104,
      "chip": "ym2612"
    },
    {
      "channel": 2,
      "note": 74,
      "start": 4.9339,
      "duration": 0.0401,
      "velocity": 98,
      "chip": "ym2612"
    },
    {
      "channel": 0,
      "note": 62,
      "start": 4.9774,
      "duration": 0.0182,
      "velocity": 104,
      "chip": "ym2612"
    },
    {
      "channel": 0,
      "note": 59,
      "start": 5.0003,
      "duration": 0.0185,
      "velocity": 104,
      "chip": "ym2612"
    },
    {
      "channel": 2,
      "note": 74,
      "start": 5.0011,
      "duration": 0.0183,
      "velocity": 98,
      "chip": "ym2612"
    },
    {
      "channel": 0,
      "note": 55,
      "start": 5.0232,
      "duration": 0.0185,
      "velocity": 104,
      "chip": "ym2612"
    },
    {
      "channel": 2,
      "note": 67,
      "start": 5.0241,
      "duration": 0.0184,
      "velocity": 98,
      "chip": "ym2612"
    },
    {
      "channel": 0,
      "note": 57,
      "start": 5.0467,
      "duration": 0.0509,
      "velocity": 104,
      "chip": "ym2612"
    },
    {
      "channel": 1,
      "note": 76,
      "start": 5.052,
      "duration": 0.0257,
      "velocity": 101,
      "chip": "ym2612"
    },
    {
      "channel": 2,
      "note": 76,
      "start": 5.0529,
      "duration": 0.0452,
      "velocity": 98,
      "chip": "ym2612"
    },
    {
      "channel": 3,
      "note": 55,
      "start": 5.0588,
      "duration": 0.0668,
      "velocity": 94,
      "chip": "ym2612"
    },
    {
      "channel": 1,
      "note": 72,
      "start": 5.0807,
      "duration": 0.0171,
      "velocity": 101,
      "chip": "ym2612"
    },
    {
      "channel": 0,
      "note": 64,
      "start": 5.1007,
      "duration": 0.024,
      "velocity": 104,
      "chip": "ym2612"
    },
    {
      "channel": 1,
      "note": 69,
      "start": 5.1013,
      "duration": 0.0237,
      "velocity": 101,
      "chip": "ym2612"
    },
    {
      "channel": 4,
      "note": 100,
      "start": 5.1228,
      "duration": 0.0191,
      "velocity": 101,
      "chip": "ym2612"
    },
    {
      "channel": 0,
      "note": 69,
      "start": 5.128,
      "duration": 0.0405,
      "velocity": 104,
      "chip": "ym2612"
    },
    {
      "channel": 1,
      "note": 76,
      "start": 5.1285,
      "duration": 0.0185,
      "velocity": 101,
      "chip": "ym2612"
    },
    {
      "channel": 2,
      "note": 76,
      "start": 5.129,
      "duration": 0.04,
      "velocity": 98,
      "chip": "ym2612"
    },
    {
      "channel": 3,
      "note": 58,
      "start": 5.1298,
      "duration": 0.1086,
      "velocity": 94,
      "chip": "ym2612"
    },
    {
      "channel": 4,
      "note": 76,
      "start": 5.1449,
      "duration": 0.0185,
      "velocity": 101,
      "chip": "ym2612"
    },
    {
      "channel": 1,
      "note": 72,
      "start": 5.1511,
      "duration": 0.0177,
      "velocity": 101,
      "chip": "ym2612"
    },
    {
      "channel": 4,
      "note": 72,
      "start": 5.1665,
      "duration": 0.0199,
      "velocity": 101,
      "chip": "ym2612"
    },
    {
      "channel": 0,
      "note": 67,
      "start": 5.1728,
      "duration": 0.0193,
      "velocity": 104,
      "chip": "ym2612"
    },
    {
      "channel": 1,
      "note": 69,
      "start": 5.1733,
      "duration": 0.019,
      "velocity": 101,
      "chip": "ym2612"
    },
    {
      "channel": 2,
      "note": 72,
      "start": 5.1739,
      "duration": 0.0188,
      "velocity": 98,
      "chip": "ym2612"
    },
    {
      "channel": 4,
      "note": 69,
      "start": 5.1909,
      "duration": 0.0198,
      "velocity": 101,
      "chip": "ym2612"
    },
    {
      "channel": 0,
      "note": 64,
      "start": 5.1958,
      "duration": 0.02,
      "velocity": 104,
      "chip": "ym2612"
    },
    {
      "channel": 1,
      "note": 76,
      "start": 5.1974,
      "duration": 0.0186,
      "velocity": 101,
      "chip": "ym2612"
    },
    {
      "channel": 2,
      "note": 74,
      "start": 5.198,
      "duration": 0.0184,
      "velocity": 98,
      "chip": "ym2612"
    },
    {
      "channel": 4,
      "note": 76,
      "start": 5.2138,
      "duration": 0.0185,
      "velocity": 101,
      "chip": "ym2612"
    },
    {
      "channel": 0,
      "note": 57,
      "start": 5.2189,
      "duration": 0.0186,
      "velocity": 104,
      "chip": "ym2612"
    },
    {
      "channel": 1,
      "note": 72,
      "start": 5.2194,
      "duration": 0.0184,
      "velocity": 101,
      "chip": "ym2612"
    },
    {
      "channel": 2,
      "note": 76,
      "start": 5.22,
      "duration": 0.0182,
      "velocity": 98,
      "chip": "ym2612"
    },
    {
      "channel": 4,
      "note": 72,
      "start": 5.2355,
      "duration": 0.0251,
      "velocity": 101,
      "chip": "ym2612"
    },
    {
      "channel": 0,
      "note": 55,
      "start": 5.2415,
      "duration": 0.0827,
      "velocity": 104,
      "chip": "ym2612"
    },
    {
      "channel": 1,
      "note": 74,
      "start": 5.2422,
      "duration": 0.0823,
      "velocity": 101,
      "chip": "ym2612"
    },
    {
      "channel": 2,
      "note": 74,
      "start": 5.2429,
      "duration": 0.0819,
      "velocity": 98,
      "chip": "ym2612"
    },
    {
      "channel": 3,
      "note": 58,
      "start": 5.2485,
      "duration": 0.0765,
      "velocity": 94,
      "chip": "ym2612"
    },
    {
      "channel": 4,
      "note": 69,
      "start": 5.2637,
      "duration": 0.0273,
      "velocity": 101,
      "chip": "ym2612"
    },
    {
      "channel": 4,
      "note": 76,
      "start": 5.3084,
      "duration": 0.0466,
      "velocity": 101,
      "chip": "ym2612"
    },
    {
      "channel": 0,
      "note": 62,
      "start": 5.3416,
      "duration": 0.0186,
      "velocity": 104,
      "chip": "ym2612"
    },
    {
      "channel": 1,
      "note": 72,
      "start": 5.3421,
      "duration": 0.0427,
      "velocity": 101,
      "chip": "ym2612"
    },
    {
      "channel": 3,
      "note": 55,
      "start": 5.3431,
      "duration": 0.0423,
      "velocity": 94,
      "chip": "ym2612"
    },
    {
      "channel": 4,
      "note": 72,
      "start": 5.3582,
      "duration": 0.0578,
      "velocity": 101,
      "chip": "ym2612"
    },
    {
      "channel": 0,
      "note": 67,
      "start": 5.3646,
      "duration": 0.0847,
      "velocity": 104,
      "chip": "ym2612"
    },
    {
      "channel": 2,
      "note": 74,
      "start": 5.3653,
      "duration": 0.0844,
      "velocity": 98,
      "chip": "ym2612"
    },
    {
      "channel": 1,
      "note": 71,
      "start": 5.3879,
      "duration": 0.0967,
      "velocity": 101,
      "chip": "ym2612"
    },
    {
      "channel": 3,
      "note": 55,
      "start": 5.3888,
      "duration": 0.0964,
      "velocity": 94,
      "chip": "ym2612"
    },
    {
      "channel": 4,
      "note": 74,
      "start": 5.4334,
      "duration": 0.0691,
      "velocity": 101,
      "chip": "ym2612"
    },
    {
      "channel": 0,
      "note": 62,
      "start": 5.4666,
      "duration": 0.0177,
      "velocity": 104,
      "chip": "ym2612"
    },
    {
      "channel": 0,
      "note": 59,
      "start": 5.4888,
      "duration": 0.0189,
      "velocity": 104,
      "chip": "ym2612"
    },
    {
      "channel": 1,
      "note": 79,
      "start": 5.4893,
      "duration": 0.039,
      "velocity": 101,
      "chip": "ym2612"
    },
    {
      "channel": 2,
      "note": 74,
      "start": 5.4899,
      "duration": 0.0183,
      "velocity": 98,
      "chip": "ym2612"
    },
    {
      "channel": 3,
      "note": 55,
      "start": 5.4905,
      "duration": 0.0384,
      "velocity": 94,
      "chip": "ym2612"
    },
    {
      "channel": 4,
      "note": 72,
      "start": 5.5056,
      "duration": 0.0469,
      "velocity": 101,
      "chip": "ym2612"
    },
    {
      "channel": 0,
      "note": 55,
      "start": 5.5107,
      "duration": 0.0173,
      "velocity": 104,
      "chip": "ym2612"
    },
    {
      "channel": 2,
      "note": 67,
      "start": 5.5115,
      "duration": 0.0171,
      "velocity": 98,
      "chip": "ym2612"
    },
    {
      "channel": 0,
      "note": 57,
      "start": 5.5325,
      "duration": 0.047,
      "velocity": 104,
      "chip": "ym2612"
    },
    {
      "channel": 1,
      "note": 76,
      "start": 5.5333,
      "duration": 0.025,
      "velocity": 101,
      "chip": "ym2612"
    },
    {
      "channel": 2,
      "note": 76,
      "start": 5.5341,
      "duration": 0.046,
      "velocity": 98,
      "chip": "ym2612"
    },
    {
      "channel": 3,
      "note": 55,
      "start": 5.541,
      "duration": 0.0612,
      "velocity": 94,
      "chip": "ym2612"
    },
    {
      "channel": 4,
      "note": 71,
      "start": 5.5559,
      "duration": 0.0399,
      "velocity": 101,
      "chip": "ym2612"
    },
    {
      "channel": 1,
      "note": 72,
      "start": 5.5616,
      "duration": 0.0182,
      "velocity": 101,
      "chip": "ym2612"
    },
    {
      "channel": 0,
      "note": 64,
      "start": 5.5826,
      "duration": 0.0187,
      "velocity": 104,
      "chip": "ym2612"
    },
    {
      "channel": 1,
      "note": 69,
      "start": 5.5832,
      "duration": 0.0184,
      "velocity": 101,
      "chip": "ym2612"
    },
    {
      "channel": 4,
      "note": 79,
      "start": 5.5993,
      "duration": 0.0192,
      "velocity": 101,
      "chip": "ym2612"
    },
    {
      "channel": 0,
      "note": 69,
      "start": 5.6046,
      "duration": 0.0395,
      "velocity": 104,
      "chip": "ym2612"
    },
    {
      "channel": 1,
      "note": 76,
      "start": 5.6052,
      "duration": 0.0185,
      "velocity": 101,
      "chip": "ym2612"
    },
    {
      "channel": 2,
      "note": 76,
      "start": 5.6057,
      "duration": 0.0389,
      "velocity": 98,
      "chip": "ym2612"
    },
    {
      "channel": 3,
      "note": 58,
      "start": 5.6065,
      "duration": 0.1067,
      "velocity": 94,
      "chip": "ym2612"
    },
    {
      "channel": 4,
      "note": 76,
      "start": 5.6216,
      "duration": 0.0174,
      "velocity": 101,
      "chip": "ym2612"
    },
    {
      "channel": 1,
      "note": 72,
      "start": 5.6267,
      "duration": 0.0176,
      "velocity": 101,
      "chip": "ym2612"
    },
    {
      "channel": 4,
      "note": 72,
      "start": 5.6421,
      "duration": 0.019,
      "velocity": 101,
      "chip": "ym2612"
    },
    {
      "channel": 0,
      "note": 67,
      "start": 5.6477,
      "duration": 0.0185,
      "velocity": 104,
      "chip": "ym2612"
    },
    {
      "channel": 1,
      "note": 69,
      "start": 5.6483,
      "duration": 0.0182,
      "velocity": 101,
      "chip": "ym2612"
    },
    {
      "channel": 2,
      "note": 72,
      "start": 5.6488,
      "duration": 0.018,
      "velocity": 98,
      "chip": "ym2612"
    },
    {
      "channel": 4,
      "note": 69,
      "start": 5.6642,
      "duration": 0.0211,
      "velocity": 101,
      "chip": "ym2612"
    },
    {
      "channel": 0,
      "note": 64,
      "start": 5.6697,
      "duration": 0.0211,
      "velocity": 104,
      "chip": "ym2612"
    },
    {
      "channel": 1,
      "note": 76,
      "start": 5.6702,
      "duration": 0.0208,
      "velocity": 101,
      "chip": "ym2612"
    },
    {
      "channel": 2,
      "note": 74,
      "start": 5.6707,
      "duration": 0.0205,
      "velocity": 98,
      "chip": "ym2612"
    },
    {
      "channel": 4,
      "note": 76,
      "start": 5.6887,
      "duration": 0.0184,
      "velocity": 101,
      "chip": "ym2612"
    },
    {
      "channel": 0,
      "note": 57,
      "start": 5.6939,
      "duration": 0.0185,
      "velocity": 104,
      "chip": "ym2612"
    },
    {
      "channel": 1,
      "note": 72,
      "start": 5.6944,
      "duration": 0.0182,
      "velocity": 101,
      "chip": "ym2612"
    },
    {
      "channel": 2,
      "note": 76,
      "start": 5.6949,
      "duration": 0.0179,
      "velocity": 98,
      "chip": "ym2612"
    },
    {
      "channel": 4,
      "note": 72,
      "start": 5.7103,
      "duration": 0.0257,
      "velocity": 101,
      "chip": "ym2612"
    },
    {
      "channel": 0,
      "note": 55,
      "start": 5.7163,
      "duration": 0.083,
      "velocity": 104,
      "chip": "ym2612"
    },
    {
      "channel": 1,
      "note": 71,
      "start": 5.7172,
      "duration": 0.0239,
      "velocity": 101,
      "chip": "ym2612"
    },
    {
      "channel": 2,
      "note": 74,
      "start": 5.718,
      "duration": 0.0819,
      "velocity": 98,
      "chip": "ym2612"
    },
    {
      "channel": 3,
      "note": 58,
      "start": 5.7237,
      "duration": 0.0765,
      "velocity": 94,
      "chip": "ym2612"
    },
    {
      "channel": 4,
      "note": 69,
      "start": 5.739,
      "duration": 0.0271,
      "velocity": 101,
      "chip": "ym2612"
    },
    {
      "channel": 1,
      "note": 72,
      "start": 5.7442,
      "duration": 0.0554,
      "velocity": 101,
      "chip": "ym2612"
    },
    {
      "channel": 4,
      "note": 76,
      "start": 5.7835,
      "duration": 0.0466,
      "velocity": 101,
      "chip": "ym2612"
    },
    {
      "channel": 0,
      "note": 62,
      "start": 5.8166,
      "duration": 0.0189,
      "velocity": 104,
      "chip": "ym2612"
    },
    {
      "channel": 1,
      "note": 74,
      "start": 5.8172,
      "duration": 0.0187,
      "velocity": 101,
      "chip": "ym2612"
    },
    {
      "channel": 3,
      "note": 55,
      "start": 5.8182,
      "duration": 0.0414,
      "velocity": 94,
      "chip": "ym2612"
    },
    {
      "channel": 4,
      "note": 72,
      "start": 5.8336,
      "duration": 0.0197,
      "velocity": 101,
      "chip": "ym2612"
    },
    {
      "channel": 0,
      "note": 67,
      "start": 5.8396,
      "duration": 0.0846,
      "velocity": 104,
      "chip": "ym2612"
    },
    {
      "channel": 1,
      "note": 76,
      "start": 5.8402,
      "duration": 0.0188,
      "velocity": 101,
      "chip": "ym2612"
    },
    {
      "channel": 2,
      "note": 74,
      "start": 5.8407,
      "duration": 0.0841,
      "velocity": 98,
      "chip": "ym2612"
    },
    {
      "channel": 4,
      "note": 71,
      "start": 5.8566,
      "duration": 0.0345,
      "velocity": 101,
      "chip": "ym2612"
    },
    {
      "channel": 1,
      "note": 79,
      "start": 5.8624,
      "duration": 0.0622,
      "velocity": 101,
      "chip": "ym2612"
    },
    {
      "channel": 3,
      "note": 55,
      "start": 5.8643,
      "duration": 0.0966,
      "velocity": 94,
      "chip": "ym2612"
    },
    {
      "channel": 4,
      "note": 72,
      "start": 5.9084,
      "duration": 0.0463,
      "velocity": 101,
      "chip": "ym2612"
    },
    {
      "channel": 0,
      "note": 62,
      "start": 5.9416,
      "duration": 0.0184,
      "velocity": 104,
      "chip": "ym2612"
    },
    {
      "channel": 1,
      "note": 71,
      "start": 5.9421,
      "duration": 0.0181,
      "velocity": 101,
      "chip": "ym2612"
    },
    {
      "channel": 4,
      "note": 74,
      "start": 5.958,
      "duration": 0.0197,
      "velocity": 101,
      "chip": "ym2612"
    },
    {
      "channel": 0,
      "note": 59,
      "start": 5.9639,
      "duration": 0.0188,
      "velocity": 104,
      "chip": "ym2612"
    },
    {
      "channel": 1,
      "note": 83,
      "start": 5.9644,
      "duration": 0.0185,
      "velocity": 101,
      "chip": "ym2612"
    },
    {
      "channel": 2,
      "note": 74,
      "start": 5.965,
      "duration": 0.0183,
      "velocity": 98,
      "chip": "ym2612"
    },
    {
      "channel": 3,
      "note": 55,
      "start": 5.9656,
      "duration": 0.0392,
      "velocity": 94,
      "chip": "ym2612"
    },
    {
      "channel": 4,
      "note": 76,
      "start": 5.9807,
      "duration": 0.0181,
      "velocity": 101,
      "chip": "ym2612"
    },
    {
      "channel": 0,
      "note": 55,
      "start": 5.9858,
      "duration": 0.0181,
      "velocity": 104,
      "chip": "ym2612"
    },
    {
      "channel": 1,
      "note": 79,
      "start": 5.9863,
      "duration": 0.0178,
      "velocity": 101,
      "chip": "ym2612"
    },
    {
      "channel": 2,
      "note": 67,
      "start": 5.9869,
      "duration": 0.0176,
      "velocity": 98,
      "chip": "ym2612"
    },
    {
      "channel": 4,
      "note": 79,
      "start": 6.0019,
      "duration": 0.0256,
      "velocity": 101,
      "chip": "ym2612"
    },
    {
      "channel": 0,
      "note": 57,
      "start": 6.0076,
      "duration": 0.0476,
      "velocity": 104,
      "chip": "ym2612"
    },
    {
      "channel": 1,
      "note": 81,
      "start": 6.0082,
      "duration": 0.0245,
      "velocity": 101,
      "chip": "ym2612"
    },
    {
      "channel": 2,
      "note": 76,
      "start": 6.009,
      "duration": 0.0467,
      "velocity": 98,
      "chip": "ym2612"
    },
    {
      "channel": 3,
      "note": 55,
      "start": 6.0159,
      "duration": 0.0616,
      "velocity": 94,
      "chip": "ym2612"
    },
    {
      "channel": 4,
      "note": 71,
      "start": 6.0306,
      "duration": 0.0192,
      "velocity": 101,
      "chip": "ym2612"
    },
    {
      "channel": 1,
      "note": 76,
      "start": 6.0357,
      "duration": 0.0198,
      "velocity": 101,
      "chip": "ym2612"
    },
    {
      "channel": 4,
      "note": 83,
      "start": 6.0532,
      "duration": 0.0182,
      "velocity": 101,
      "chip": "ym2612"
    },
    {
      "channel": 0,
      "note": 64,
      "start": 6.0583,
      "duration": 0.0184,
      "velocity": 104,
      "chip": "ym2612"
    },
    {
      "channel": 1,
      "note": 72,
      "start": 6.0588,
      "duration": 0.0181,
      "velocity": 101,
      "chip": "ym2612"
    },
    {
      "channel": 4,
      "note": 79,
      "start": 6.0746,
      "duration": 0.021,
      "velocity": 101,
      "chip": "ym2612"
    },
    {
      "channel": 0,
      "note": 69,
      "start": 6.0815,
      "duration": 0.0398,
      "velocity": 104,
      "chip": "ym2612"
    },
    {
      "channel": 1,
      "note": 81,
      "start": 6.082,
      "duration": 0.0188,
      "velocity": 101,
      "chip": "ym2612"
    },
    {
      "channel": 2,
      "note": 76,
      "start": 6.0826,
      "duration": 0.0393,
      "velocity": 98,
      "chip": "ym2612"
    },
    {
      "channel": 3,
      "note": 58,
      "start": 6.0834,
      "duration": 0.1069,
      "velocity": 94,
      "chip": "ym2612"
    },
    {
      "channel": 4,
      "note": 81,
      "start": 6.0988,
      "duration": 0.0175,
      "velocity": 101,
      "chip": "ym2612"
    },
    {
      "channel": 1,
      "note": 76,
      "start": 6.1039,
      "duration": 0.0177,
      "velocity": 101,
      "chip": "ym2612"
    },
    {
      "channel": 4,
      "note": 76,
      "start": 6.1193,
      "duration": 0.019,
      "velocity": 101,
      "chip": "ym2612"
    },
    {
      "channel": 0,
      "note": 67,
      "start": 6.1249,
      "duration": 0.0185,
      "velocity": 104,
      "chip": "ym2612"
    },
    {
      "channel": 1,
      "note": 72,
      "start": 6.1255,
      "duration": 0.0182,
      "velocity": 101,
      "chip": "ym2612"
    },
    {
      "channel": 2,
      "note": 72,
      "start": 6.126,
      "duration": 0.018,
      "velocity": 98,
      "chip": "ym2612"
    },
    {
      "channel": 4,
      "note": 72,
      "start": 6.1414,
      "duration": 0.0193,
      "velocity": 101,
      "chip": "ym2612"
    },
    {
      "channel": 0,
      "note": 64,
      "start": 6.1469,
      "duration": 0.0195,
      "velocity": 104,
      "chip": "ym2612"
    },
    {
      "channel": 1,
      "note": 81,
      "start": 6.1474,
      "duration": 0.0193,
      "velocity": 101,
      "chip": "ym2612"
    },
    {
      "channel": 2,
      "note": 74,
      "start": 6.148,
      "duration": 0.019,
      "velocity": 98,
      "chip": "ym2612"
    },
    {
      "channel": 4,
      "note": 81,
      "start": 6.1641,
      "duration": 0.0202,
      "velocity": 101,
      "chip": "ym2612"
    },
    {
      "channel": 0,
      "note": 57,
      "start": 6.1698,
      "duration": 0.0197,
      "velocity": 104,
      "chip": "ym2612"
    },
    {
      "channel": 1,
      "note": 76,
      "start": 6.1714,
      "duration": 0.0183,
      "velocity": 101,
      "chip": "ym2612"
    },
    {
      "channel": 2,
      "note": 76,
      "start": 6.1719,
      "duration": 0.0181,
      "velocity": 98,
      "chip": "ym2612"
    },
    {
      "channel": 4,
      "note": 76,
      "start": 6.1874,
      "duration": 0.025,
      "velocity": 101,
      "chip": "ym2612"
    },
    {
      "channel": 0,
      "note": 55,
      "start": 6.1934,
      "duration": 0.0831,
      "velocity": 104,
      "chip": "ym2612"
    },
    {
      "channel": 1,
      "note": 79,
      "start": 6.1939,
      "duration": 0.0238,
      "velocity": 101,
      "chip": "ym2612"
    },
    {
      "channel": 2,
      "note": 74,
      "start": 6.1945,
      "duration": 0.0824,
      "velocity": 98,
      "chip": "ym2612"
    },
    {
      "channel": 3,
      "note": 58,
      "start": 6.2003,
      "duration": 0.077,
      "velocity": 94,
      "chip": "ym2612"
    },
    {
      "channel": 4,
      "note": 72,
      "start": 6.2156,
      "duration": 0.0277,
      "velocity": 101,
      "chip": "ym2612"
    },
    {
      "channel": 1,
      "note": 77,
      "start": 6.2209,
      "duration": 0.0559,
      "velocity": 101,
      "chip": "ym2612"
    },
    {
      "channel": 4,
      "note": 81,
      "start": 6.2606,
      "duration": 0.0466,
      "velocity": 101,
      "chip": "ym2612"
    },
    {
      "channel": 0,
      "note": 62,
      "start": 6.2938,
      "duration": 0.0185,
      "velocity": 104,
      "chip": "ym2612"
    },
    {
      "channel": 1,
      "note": 76,
      "start": 6.2943,
      "duration": 0.0182,
      "velocity": 101,
      "chip": "ym2612"
    },
    {
      "channel": 3,
      "note": 55,
      "start": 6.2953,
      "duration": 0.0405,
      "velocity": 94,
      "chip": "ym2612"
    },
    {
      "channel": 4,
      "note": 76,
      "start": 6.3103,
      "duration": 0.0198,
      "velocity": 101,
      "chip": "ym2612"
    },
    {
      "channel": 0,
      "note": 67,
      "start": 6.3168,
      "duration": 0.0845,
      "velocity": 104,
      "chip": "ym2612"
    },
    {
      "channel": 1,
      "note": 74,
      "start": 6.3173,
      "duration": 0.018,
      "velocity": 101,
      "chip": "ym2612"
    },
    {
      "channel": 2,
      "note": 74,
      "start": 6.3178,
      "duration": 0.084,
      "velocity": 98,
      "chip": "ym2612"
    },
    {
      "channel": 4,
      "note": 79,
      "start": 6.3332,
      "duration": 0.0352,
      "velocity": 101,
      "chip": "ym2612"
    },
    {
      "channel": 1,
      "note": 72,
      "start": 6.3384,
      "duration": 0.0632,
      "velocity": 101,
      "chip": "ym2612"
    },
    {
      "channel": 3,
      "note": 55,
      "start": 6.3392,
      "duration": 0.098,
      "velocity": 94,
      "chip": "ym2612"
    },
    {
      "channel": 4,
      "note": 77,
      "start": 6.3858,
      "duration": 0.0455,
      "velocity": 101,
      "chip": "ym2612"
    },
    {
      "channel": 0,
      "note": 62,
      "start": 6.4182,
      "duration": 0.0182,
      "velocity": 104,
      "chip": "ym2612"
    },
    {
      "channel": 1,
      "note": 71,
      "start": 6.4187,
      "duration": 0.018,
      "velocity": 101,
      "chip": "ym2612"
    },
    {
      "channel": 4,
      "note": 76,
      "start": 6.4344,
      "duration": 0.0193,
      "velocity": 101,
      "chip": "ym2612"
    },
    {
      "channel": 0,
      "note": 59,
      "start": 6.4396,
      "duration": 0.0191,
      "velocity": 104,
      "chip": "ym2612"
    },
    {
      "channel": 1,
      "note": 67,
      "start": 6.4402,
      "duration": 0.0188,
      "velocity": 101,
      "chip": "ym2612"
    },
    {
      "channel": 2,
      "note": 74,
      "start": 6.4407,
      "duration": 0.0186,
      "velocity": 98,
      "chip": "ym2612"
    },
    {
      "channel": 3,
      "note": 55,
      "start": 6.4414,
      "duration": 0.0394,
      "velocity": 94,
      "chip": "ym2612"
    },
    {
      "channel": 4,
      "note": 74,
      "start": 6.4567,
      "duration": 0.0181,
      "velocity": 101,
      "chip": "ym2612"
    },
    {
      "channel": 0,
      "note": 55,
      "start": 6.4618,
      "duration": 0.0181,
      "velocity": 104,
      "chip": "ym2612"
    },
    {
      "channel": 1,
      "note": 71,
      "start": 6.4623,
      "duration": 0.0178,
      "velocity": 101,
      "chip": "ym2612"
    },
    {
      "channel": 2,
      "note": 67,
      "start": 6.4629,
      "duration": 0.0176,
      "velocity": 98,
      "chip": "ym2612"
    },
    {
      "channel": 4,
      "note": 72,
      "start": 6.4779,
      "duration": 0.0202,
      "velocity": 101,
      "chip": "ym2612"
    },
    {
      "channel": 0,
      "note": 57,
      "start": 6.4836,
      "duration": 0.0828,
      "velocity": 104,
      "chip": "ym2612"
    },
    {
      "channel": 1,
      "note": 69,
      "start": 6.4841,
      "duration": 0.0132,
      "velocity": 101,
      "chip": "ym2612"
    },
    {
      "channel": 2,
      "note": 76,
      "start": 6.4849,
      "duration": 0.082,
      "velocity": 98,
      "chip": "ym2612"
    },
    {
      "channel": 3,
      "note": 55,
      "start": 6.4858,
      "duration": 0.0814,
      "velocity": 94,
      "chip": "ym2612"
    },
    {
      "channel": 1,
      "note": 68,
      "start": 6.5003,
      "duration": 0.0115,
      "velocity": 101,
      "chip": "ym2612"
    },
    {
      "channel": 4,
      "note": 71,
      "start": 6.5015,
      "duration": 0.0317,
      "velocity": 101,
      "chip": "ym2612"
    },
    {
      "channel": 1,
      "note": 69,
      "start": 6.5154,
      "duration": 0.0512,
      "velocity": 101,
      "chip": "ym2612"
    },
    {
      "channel": 4,
      "note": 67,
      "start": 6.5505,
      "duration": 0.0484,
      "velocity": 101,
      "chip": "ym2612"
    },
    {
      "channel": 0,
      "note": 64,
      "start": 6.5837,
      "duration": 0.0207,
      "velocity": 104,
      "chip": "ym2612"
    },
    {
      "channel": 1,
      "note": 71,
      "start": 6.5853,
      "duration": 0.0128,
      "velocity": 101,
      "chip": "ym2612"
    },
    {
      "channel": 3,
      "note": 55,
      "start": 6.5864,
      "duration": 0.04,
      "velocity": 94,
      "chip": "ym2612"
    },
    {
      "channel": 1,
      "note": 69,
      "start": 6.6012,
      "duration": 0.0126,
      "velocity": 101,
      "chip": "ym2612"
    },
    {
      "channel": 4,
      "note": 71,
      "start": 6.6024,
      "duration": 0.0123,
      "velocity": 101,
      "chip": "ym2612"
    },
    {
      "channel": 0,
      "note": 69,
      "start": 6.6075,
      "duration": 0.0411,
      "velocity": 104,
      "chip": "ym2612"
    },
    {
      "channel": 2,
      "note": 76,
      "start": 6.6082,
      "duration": 0.0409,
      "velocity": 98,
      "chip": "ym2612"
    },
    {
      "channel": 1,
      "note": 71,
      "start": 6.6169,
      "duration": 0.009,
      "velocity": 101,
      "chip": "ym2612"
    },
    {
      "channel": 4,
      "note": 69,
      "start": 6.618,
      "duration": 0.0132,
      "velocity": 101,
      "chip": "ym2612"
    },
    {
      "channel": 1,
      "note": 72,
      "start": 6.6298,
      "duration": 0.0125,
      "velocity": 101,
      "chip": "ym2612"
    },
    {
      "channel": 3,
      "note": 55,
      "start": 6.6308,
      "duration": 0.0415,
      "velocity": 94,
      "chip": "ym2612"
    },
    {
      "channel": 4,
      "note": 68,
      "start": 6.6347,
      "duration": 0.0085,
      "velocity": 101,
      "chip": "ym2612"
    },
    {
      "channel": 1,
      "note": 71,
      "start": 6.6454,
      "duration": 0.0142,
      "velocity": 101,
      "chip": "ym2612"
    },
    {
      "channel": 4,
      "note": 69,
      "start": 6.6466,
      "duration": 0.0139,
      "velocity": 101,
      "chip": "ym2612"
    },
    {
      "channel": 0,
      "note": 67,
      "start": 6.6529,
      "duration": 0.0185,
      "velocity": 104,
      "chip": "ym2612"
    },
    {
      "channel": 2,
      "note": 72,
      "start": 6.6537,
      "duration": 0.0183,
      "velocity": 98,
      "chip": "ym2612"
    },
    {
      "channel": 1,
      "note": 72,
      "start": 6.6627,
      "duration": 0.009,
      "velocity": 101,
      "chip": "ym2612"
    },
    {
      "channel": 4,
      "note": 71,
      "start": 6.6639,
      "duration": 0.013,
      "velocity": 101,
      "chip": "ym2612"
    },
    {
      "channel": 0,
      "note": 64,
      "start": 6.6746,
      "duration": 0.0198,
      "velocity": 104,
      "chip": "ym2612"
    },
    {
      "channel": 1,
      "note": 74,
      "start": 6.6751,
      "duration": 0.013,
      "velocity": 101,
      "chip": "ym2612"
    },
    {
      "channel": 2,
      "note": 74,
      "start": 6.6757,
      "duration": 0.0192,
      "velocity": 98,
      "chip": "ym2612"
    },
    {
      "channel": 3,
      "note": 55,
      "start": 6.6764,
      "duration": 0.0426,
      "velocity": 94,
      "chip": "ym2612"
    },
    {
      "channel": 4,
      "note": 69,
      "start": 6.6805,
      "duration": 0.0085,
      "velocity": 101,
      "chip": "ym2612"
    },
    {
      "channel": 1,
      "note": 72,
      "start": 6.6912,
      "duration": 0.0131,
      "velocity": 101,
      "chip": "ym2612"
    },
    {
      "channel": 4,
      "note": 71,
      "start": 6.6924,
      "duration": 0.0128,
      "velocity": 101,
      "chip": "ym2612"
    },
    {
      "channel": 0,
      "note": 57,
      "start": 6.6974,
      "duration": 0.0208,
      "velocity": 104,
      "chip": "ym2612"
    },
    {
      "channel": 2,
      "note": 76,
      "start": 6.6982,
      "duration": 0.0206,
      "velocity": 98,
      "chip": "ym2612"
    },
    {
      "channel": 1,
      "note": 74,
      "start": 6.7077,
      "duration": 0.0108,
      "velocity": 101,
      "chip": "ym2612"
    },
    {
      "channel": 4,
      "note": 72,
      "start": 6.7099,
      "duration": 0.0138,
      "velocity": 101,
      "chip": "ym2612"
    },
    {
      "channel": 0,
      "note": 55,
      "start": 6.7213,
      "duration": 0.0413,
      "velocity": 104,
      "chip": "ym2612"
    },
    {
      "channel": 1,
      "note": 76,
      "start": 6.7219,
      "duration": 0.0133,
      "velocity": 101,
      "chip": "ym2612"
    },
    {
      "channel": 2,
      "note": 74,
      "start": 6.7225,
      "duration": 0.0407,
      "velocity": 98,
      "chip": "ym2612"
    },
    {
      "channel": 3,
      "note": 55,
      "start": 6.7233,
      "duration": 0.0402,
      "velocity": 94,
      "chip": "ym2612"
    },
    {
      "channel": 4,
      "note": 71,
      "start": 6.7275,
      "duration": 0.0085,
      "velocity": 101,
      "chip": "ym2612"
    },
    {
      "channel": 1,
      "note": 74,
      "start": 6.7383,
      "duration": 0.0121,
      "velocity": 101,
      "chip": "ym2612"
    },
    {
      "channel": 4,
      "note": 72,
      "start": 6.7394,
      "duration": 0.0118,
      "velocity": 101,
      "chip": "ym2612"
    },
    {
      "channel": 1,
      "note": 76,
      "start": 6.7535,
      "duration": 0.0094,
      "velocity": 101,
      "chip": "ym2612"
    },
    {
      "channel": 4,
      "note": 74,
      "start": 6.7547,
      "duration": 0.0135,
      "velocity": 101,
      "chip": "ym2612"
    },
    {
      "channel": 0,
      "note": 62,
      "start": 6.7661,
      "duration": 0.02,
      "velocity": 104,
      "chip": "ym2612"
    },
    {
      "channel": 1,
      "note": 77,
      "start": 6.7667,
      "duration": 0.0129,
      "velocity": 101,
      "chip": "ym2612"
    },
    {
      "channel": 3,
      "note": 55,
      "start": 6.7678,
      "duration": 0.0412,
      "velocity": 94,
      "chip": "ym2612"
    },
    {
      "channel": 4,
      "note": 72,
      "start": 6.7719,
      "duration": 0.0085,
      "velocity": 101,
      "chip": "ym2612"
    },
    {
      "channel": 1,
      "note": 76,
      "start": 6.7827,
      "duration": 0.013,
      "velocity": 101,
      "chip": "ym2612"
    },
    {
      "channel": 4,
      "note": 74,
      "start": 6.7838,
      "duration": 0.0127,
      "velocity": 101,
      "chip": "ym2612"
    },
    {
      "channel": 0,
      "note": 67,
      "start": 6.7893,
      "duration": 0.0432,
      "velocity": 104,
      "chip": "ym2612"
    },
    {
      "channel": 2,
      "note": 74,
      "start": 6.79,
      "duration": 0.0429,
      "velocity": 98,
      "chip": "ym2612"
    },
    {
      "channel": 1,
      "note": 77,
      "start": 6.7993,
      "duration": 0.0092,
      "velocity": 101,
      "chip": "ym2612"
    },
    {
      "channel": 4,
      "note": 76,
      "start": 6.8004,
      "duration": 0.0125,
      "velocity": 101,
      "chip": "ym2612"
    },
    {
      "channel": 1,
      "note": 78,
      "start": 6.8115,
      "duration": 0.0127,
      "velocity": 101,
      "chip": "ym2612"
    },
    {
      "channel": 3,
      "note": 55,
      "start": 6.8125,
      "duration": 0.0441,
      "velocity": 94,
      "chip": "ym2612"
    },
    {
      "channel": 4,
      "note": 74,
      "start": 6.8165,
      "duration": 0.0085,
      "velocity": 101,
      "chip": "ym2612"
    },
    {
      "channel": 1,
      "note": 77,
      "start": 6.8287,
      "duration": 0.0148,
      "velocity": 101,
      "chip": "ym2612"
    },
    {
      "channel": 4,
      "note": 76,
      "start": 6.8309,
      "duration": 0.0134,
      "velocity": 101,
      "chip": "ym2612"
    },
    {
      "channel": 0,
      "note": 62,
      "start": 6.8357,
      "duration": 0.02,
      "velocity": 104,
      "chip": "ym2612"
    },
    {
      "channel": 2,
      "note": 91,
      "start": 6.8376,
      "duration": 0.042,
      "velocity": 98,
      "chip": "ym2612"
    },
    {
      "channel": 1,
      "note": 78,
      "start": 6.8466,
      "duration": 0.0094,
      "velocity": 101,
      "chip": "ym2612"
    },
    {
      "channel": 4,
      "note": 77,
      "start": 6.8478,
      "duration": 0.0132,
      "velocity": 101,
      "chip": "ym2612"
    },
    {
      "channel": 0,
      "note": 59,
      "start": 6.859,
      "duration": 0.0201,
      "velocity": 104,
      "chip": "ym2612"
    },
    {
      "channel": 1,
      "note": 79,
      "start": 6.8595,
      "duration": 0.0129,
      "velocity": 101,
      "chip": "ym2612"
    },
    {
      "channel": 3,
      "note": 55,
      "start": 6.8605,
      "duration": 0.0416,
      "velocity": 94,
      "chip": "ym2612"
    },
    {
      "channel": 4,
      "note": 76,
      "start": 6.8647,
      "duration": 0.0085,
      "velocity": 101,
      "chip": "ym2612"
    },
    {
      "channel": 1,
      "note": 78,
      "start": 6.8755,
      "duration": 0.0132,
      "velocity": 101,
      "chip": "ym2612"
    },
    {
      "channel": 4,
      "note": 77,
      "start": 6.8767,
      "duration": 0.0128,
      "velocity": 101,
      "chip": "ym2612"
    },
    {
      "channel": 0,
      "note": 55,
      "start": 6.8822,
      "duration": 0.019,
      "velocity": 104,
      "chip": "ym2612"
    },
    {
      "channel": 2,
      "note": 89,
      "start": 6.883,
      "duration": 0.0187,
      "velocity": 98,
      "chip": "ym2612"
    },
    {
      "channel": 1,
      "note": 79,
      "start": 6.8922,
      "duration": 0.0093,
      "velocity": 101,
      "chip": "ym2612"
    },
    {
      "channel": 4,
      "note": 78,
      "start": 6.8933,
      "duration": 0.0189,
      "velocity": 101,
      "chip": "ym2612"
    },
    {
      "channel": 0,
      "note": 57,
      "start": 6.9045,
      "duration": 0.0826,
      "velocity": 104,
      "chip": "ym2612"
    },
    {
      "channel": 1,
      "note": 81,
      "start": 6.9052,
      "duration": 0.0247,
      "velocity": 101,
      "chip": "ym2612"
    },
    {
      "channel": 2,
      "note": 88,
      "start": 6.9058,
      "duration": 0.0244,
      "velocity": 98,
      "chip": "ym2612"
    },
    {
      "channel": 3,
      "note": 55,
      "start": 6.9118,
      "duration": 0.1145,
      "velocity": 94,
      "chip": "ym2612"
    },
    {
      "channel": 4,
      "note": 77,
      "start": 6.9163,
      "duration": 0.0084,
      "velocity": 101,
      "chip": "ym2612"
    },
    {
      "channel": 4,
      "note": 78,
      "start": 6.9278,
      "duration": 0.0119,
      "velocity": 101,
      "chip": "ym2612"
    },
    {
      "channel": 1,
      "note": 69,
      "start": 6.9329,
      "duration": 0.0544,
      "velocity": 101,
      "chip": "ym2612"
    },
    {
      "channel": 2,
      "note": 76,
      "start": 6.9335,
      "duration": 0.0541,
      "velocity": 98,
      "chip": "ym2612"
    },
    {
      "channel": 4,
      "note": 79,
      "start": 6.9428,
      "duration": 0.063,
      "velocity": 101,
      "chip": "ym2612"
    },
    {
      "channel": 0,
      "note": 64,
      "start": 7.0044,
      "duration": 0.021,
      "velocity": 104,
      "chip": "ym2612"
    },
    {
      "channel": 4,
      "note": 78,
      "start": 7.0096,
      "duration": 0.0103,
      "velocity": 101,
      "chip": "ym2612"
    },
    {
      "channel": 4,
      "note": 79,
      "start": 7.0234,
      "duration": 0.0199,
      "velocity": 101,
      "chip": "ym2612"
    },
    {
      "channel": 0,
      "note": 69,
      "start": 7.0295,
      "duration": 0.0404,
      "velocity": 104,
      "chip": "ym2612"
    },
    {
      "channel": 1,
      "note": 69,
      "start": 7.03,
      "duration": 0.0402,
      "velocity": 101,
      "chip": "ym2612"
    },
    {
      "channel": 2,
      "note": 76,
      "start": 7.0305,
      "duration": 0.0399,
      "velocity": 98,
      "chip": "ym2612"
    },
    {
      "channel": 3,
      "note": 58,
      "start": 7.0313,
      "duration": 0.1064,
      "velocity": 94,
      "chip": "ym2612"
    },
    {
      "channel": 4,
      "note": 81,
      "start": 7.0465,
      "duration": 0.0186,
      "velocity": 101,
      "chip": "ym2612"
    },
    {
      "channel": 0,
      "note": 67,
      "start": 7.0747,
      "duration": 0.0185,
      "velocity": 104,
      "chip": "ym2612"
    },
    {
      "channel": 1,
      "note": 76,
      "start": 7.0752,
      "duration": 0.0182,
      "velocity": 101,
      "chip": "ym2612"
    },
    {
      "channel": 2,
      "note": 72,
      "start": 7.0758,
      "duration": 0.0179,
      "velocity": 98,
      "chip": "ym2612"
    },
    {
      "channel": 4,
      "note": 69,
      "start": 7.0911,
      "duration": 0.04,
      "velocity": 101,
      "chip": "ym2612"
    },
    {
      "channel": 0,
      "note": 64,
      "start": 7.0966,
      "duration": 0.0182,
      "velocity": 104,
      "chip": "ym2612"
    },
    {
      "channel": 1,
      "note": 72,
      "start": 7.0971,
      "duration": 0.018,
      "velocity": 101,
      "chip": "ym2612"
    },
    {
      "channel": 2,
      "note": 74,
      "start": 7.0977,
      "duration": 0.0177,
      "velocity": 98,
      "chip": "ym2612"
    },
    {
      "channel": 0,
      "note": 57,
      "start": 7.1179,
      "duration": 0.0189,
      "velocity": 104,
      "chip": "ym2612"
    },
    {
      "channel": 1,
      "note": 69,
      "start": 7.1185,
      "duration": 0.0187,
      "velocity": 101,
      "chip": "ym2612"
    },
    {
      "channel": 2,
      "note": 76,
      "start": 7.119,
      "duration": 0.0184,
      "velocity": 98,
      "chip": "ym2612"
    },
    {
      "channel": 4,
      "note": 69,
      "start": 7.1346,
      "duration": 0.0271,
      "velocity": 101,
      "chip": "ym2612"
    },
    {
      "channel": 0,
      "note": 55,
      "start": 7.141,
      "duration": 0.0834,
      "velocity": 104,
      "chip": "ym2612"
    },
    {
      "channel": 1,
      "note": 74,
      "start": 7.1426,
      "duration": 0.082,
      "velocity": 101,
      "chip": "ym2612"
    },
    {
      "channel": 2,
      "note": 74,
      "start": 7.1433,
      "duration": 0.0817,
      "velocity": 98,
      "chip": "ym2612"
    },
    {
      "channel": 3,
      "note": 58,
      "start": 7.149,
      "duration": 0.0763,
      "velocity": 94,
      "chip": "ym2612"
    },
    {
      "channel": 4,
      "note": 76,
      "start": 7.1647,
      "duration": 0.0264,
      "velocity": 101,
      "chip": "ym2612"
    },
    {
      "channel": 4,
      "note": 72,
      "start": 7.2086,
      "duration": 0.0467,
      "velocity": 101,
      "chip": "ym2612"
    },
    {
      "channel": 0,
      "note": 62,
      "start": 7.2418,
      "duration": 0.0186,
      "velocity": 104,
      "chip": "ym2612"
    },
    {
      "channel": 1,
      "note": 72,
      "start": 7.2423,
      "duration": 0.0403,
      "velocity": 101,
      "chip": "ym2612"
    },
    {
      "channel": 3,
      "note": 55,
      "start": 7.2433,
      "duration": 0.0399,
      "velocity": 94,
      "chip": "ym2612"
    },
    {
      "channel": 4,
      "note": 69,
      "start": 7.2584,
      "duration": 0.0562,
      "velocity": 101,
      "chip": "ym2612"
    },
    {
      "channel": 0,
      "note": 67,
      "start": 7.2648,
      "duration": 0.083,
      "velocity": 104,
      "chip": "ym2612"
    },
    {
      "channel": 2,
      "note": 74,
      "start": 7.2655,
      "duration": 0.0827,
      "velocity": 98,
      "chip": "ym2612"
    },
    {
      "channel": 1,
      "note": 71,
      "start": 7.2857,
      "duration": 0.0995,
      "velocity": 101,
      "chip": "ym2612"
    },
    {
      "channel": 3,
      "note": 55,
      "start": 7.2865,
      "duration": 0.0993,
      "velocity": 94,
      "chip": "ym2612"
    },
    {
      "channel": 4,
      "note": 74,
      "start": 7.332,
      "duration": 0.0709,
      "velocity": 101,
      "chip": "ym2612"
    },
    {
      "channel": 0,
      "note": 62,
      "start": 7.3651,
      "duration": 0.0198,
      "velocity": 104,
      "chip": "ym2612"
    },
    {
      "channel": 0,
      "note": 59,
      "start": 7.3891,
      "duration": 0.0188,
      "velocity": 104,
      "chip": "ym2612"
    },
    {
      "channel": 1,
      "note": 79,
      "start": 7.3896,
      "duration": 0.0392,
      "velocity": 101,
      "chip": "ym2612"
    },
    {
      "channel": 2,
      "note": 74,
      "start": 7.3902,
      "duration": 0.0183,
      "velocity": 98,
      "chip": "ym2612"
    },
    {
      "channel": 3,
      "note": 55,
      "start": 7.3908,
      "duration": 0.0387,
      "velocity": 94,
      "chip": "ym2612"
    },
    {
      "channel": 4,
      "note": 72,
      "start": 7.4059,
      "duration": 0.0465,
      "velocity": 101,
      "chip": "ym2612"
    },
    {
      "channel": 0,
      "note": 55,
      "start": 7.411,
      "duration": 0.0176,
      "velocity": 104,
      "chip": "ym2612"
    },
    {
      "channel": 2,
      "note": 67,
      "start": 7.4117,
      "duration": 0.0174,
      "velocity": 98,
      "chip": "ym2612"
    },
    {
      "channel": 0,
      "note": 57,
      "start": 7.4327,
      "duration": 0.0825,
      "velocity": 104,
      "chip": "ym2612"
    },
    {
      "channel": 1,
      "note": 76,
      "start": 7.4332,
      "duration": 0.0244,
      "velocity": 101,
      "chip": "ym2612"
    },
    {
      "channel": 2,
      "note": 76,
      "start": 7.434,
      "duration": 0.0817,
      "velocity": 98,
      "chip": "ym2612"
    },
    {
      "channel": 3,
      "note": 55,
      "start": 7.4399,
      "duration": 0.1122,
      "velocity": 94,
      "chip": "ym2612"
    },
    {
      "channel": 4,
      "note": 71,
      "start": 7.4555,
      "duration": 0.0901,
      "velocity": 101,
      "chip": "ym2612"
    },
    {
      "channel": 1,
      "note": 72,
      "start": 7.4606,
      "duration": 0.0549,
      "velocity": 101,
      "chip": "ym2612"
    },
    {
      "channel": 0,
      "note": 64,
      "start": 7.5325,
      "duration": 0.0188,
      "velocity": 104,
      "chip": "ym2612"
    },
    {
      "channel": 1,
      "note": 69,
      "start": 7.533,
      "duration": 0.0185,
      "velocity": 101,
      "chip": "ym2612"
    },
    {
      "channel": 4,
      "note": 79,
      "start": 7.549,
      "duration": 0.0228,
      "velocity": 101,
      "chip": "ym2612"
    },
    {
      "channel": 0,
      "note": 69,
      "start": 7.5563,
      "duration": 0.0416,
      "velocity": 104,
      "chip": "ym2612"
    },
    {
      "channel": 1,
      "note": 76,
      "start": 7.5579,
      "duration": 0.0191,
      "velocity": 101,
      "chip": "ym2612"
    },
    {
      "channel": 2,
      "note": 76,
      "start": 7.5585,
      "duration": 0.04,
      "velocity": 98,
      "chip": "ym2612"
    },
    {
      "channel": 3,
      "note": 58,
      "start": 7.5592,
      "duration": 0.1073,
      "velocity": 94,
      "chip": "ym2612"
    },
    {
      "channel": 4,
      "note": 76,
      "start": 7.5749,
      "duration": 0.0178,
      "velocity": 101,
      "chip": "ym2612"
    },
    {
      "channel": 1,
      "note": 72,
      "start": 7.5803,
      "duration": 0.0178,
      "velocity": 101,
      "chip": "ym2612"
    },
    {
      "channel": 4,
      "note": 72,
      "start": 7.5959,
      "duration": 0.0198,
      "velocity": 101,
      "chip": "ym2612"
    },
    {
      "channel": 0,
      "note": 67,
      "start": 7.6023,
      "duration": 0.0185,
      "velocity": 104,
      "chip": "ym2612"
    },
    {
      "channel": 1,
      "note": 69,
      "start": 7.6029,
      "duration": 0.0182,
      "velocity": 101,
      "chip": "ym2612"
    },
    {
      "channel": 2,
      "note": 72,
      "start": 7.6034,
      "duration": 0.018,
      "velocity": 98,
      "chip": "ym2612"
    },
    {
      "channel": 4,
      "note": 69,
      "start": 7.6188,
      "duration": 0.0203,
      "velocity": 101,
      "chip": "ym2612"
    },
    {
      "channel": 0,
      "note": 64,
      "start": 7.6256,
      "duration": 0.0186,
      "velocity": 104,
      "chip": "ym2612"
    },
    {
      "channel": 1,
      "note": 76,
      "start": 7.6261,
      "duration": 0.0184,
      "velocity": 101,
      "chip": "ym2612"
    },
    {
      "channel": 2,
      "note": 74,
      "start": 7.6267,
      "duration": 0.0181,
      "velocity": 98,
      "chip": "ym2612"
    },
    {
      "channel": 4,
      "note": 76,
      "start": 7.6422,
      "duration": 0.0183,
      "velocity": 101,
      "chip": "ym2612"
    },
    {
      "channel": 0,
      "note": 57,
      "start": 7.6473,
      "duration": 0.0184,
      "velocity": 104,
      "chip": "ym2612"
    },
    {
      "channel": 1,
      "note": 72,
      "start": 7.6479,
      "duration": 0.0181,
      "velocity": 101,
      "chip": "ym2612"
    },
    {
      "channel": 2,
      "note": 76,
      "start": 7.6484,
      "duration": 0.0178,
      "velocity": 98,
      "chip": "ym2612"
    },
    {
      "channel": 4,
      "note": 72,
      "start": 7.6637,
      "duration": 0.0264,
      "velocity": 101,
      "chip": "ym2612"
    },
    {
      "channel": 0,
      "note": 55,
      "start": 7.6689,
      "duration": 0.0842,
      "velocity": 104,
      "chip": "ym2612"
    },
    {
      "channel": 1,
      "note": 71,
      "start": 7.6695,
      "duration": 0.0261,
      "velocity": 101,
      "chip": "ym2612"
    },
    {
      "channel": 2,
      "note": 74,
      "start": 7.6701,
      "duration": 0.0835,
      "velocity": 98,
      "chip": "ym2612"
    },
    {
      "channel": 3,
      "note": 58,
      "start": 7.6769,
      "duration": 0.077,
      "velocity": 94,
      "chip": "ym2612"
    },
    {
      "channel": 4,
      "note": 69,
      "start": 7.6934,
      "duration": 0.0264,
      "velocity": 101,
      "chip": "ym2612"
    },
    {
      "channel": 1,
      "note": 72,
      "start": 7.6986,
      "duration": 0.0548,
      "velocity": 101,
      "chip": "ym2612"
    },
    {
      "channel": 4,
      "note": 76,
      "start": 7.7373,
      "duration": 0.0469,
      "velocity": 101,
      "chip": "ym2612"
    },
    {
      "channel": 0,
      "note": 62,
      "start": 7.7704,
      "duration": 0.0188,
      "velocity": 104,
      "chip": "ym2612"
    },
    {
      "channel": 1,
      "note": 74,
      "start": 7.771,
      "duration": 0.0186,
      "velocity": 101,
      "chip": "ym2612"
    },
    {
      "channel": 3,
      "note": 55,
      "start": 7.7719,
      "duration": 0.0408,
      "velocity": 94,
      "chip": "ym2612"
    },
    {
      "channel": 4,
      "note": 72,
      "start": 7.7873,
      "duration": 0.0197,
      "velocity": 101,
      "chip": "ym2612"
    },
    {
      "channel": 0,
      "note": 67,
      "start": 7.7936,
      "duration": 0.083,
      "velocity": 104,
      "chip": "ym2612"
    },
    {
      "channel": 1,
      "note": 76,
      "start": 7.7942,
      "duration": 0.018,
      "velocity": 101,
      "chip": "ym2612"
    },
    {
      "channel": 2,
      "note": 74,
      "start": 7.7947,
      "duration": 0.0825,
      "velocity": 98,
      "chip": "ym2612"
    },
    {
      "channel": 4,
      "note": 71,
      "start": 7.8101,
      "duration": 0.0334,
      "velocity": 101,
      "chip": "ym2612"
    },
    {
      "channel": 1,
      "note": 79,
      "start": 7.8152,
      "duration": 0.0617,
      "velocity": 101,
      "chip": "ym2612"
    },
    {
      "channel": 3,
      "note": 55,
      "start": 7.8161,
      "duration": 0.0974,
      "velocity": 94,
      "chip": "ym2612"
    },
    {
      "channel": 4,
      "note": 72,
      "start": 7.8608,
      "duration": 0.0462,
      "velocity": 101,
      "chip": "ym2612"
    },
    {
      "channel": 0,
      "note": 62,
      "start": 7.894,
      "duration": 0.0187,
      "velocity": 104,
      "chip": "ym2612"
    },
    {
      "channel": 1,
      "note": 71,
      "start": 7.8945,
      "duration": 0.0184,
      "velocity": 101,
      "chip": "ym2612"
    },
    {
      "channel": 4,
      "note": 74,
      "start": 7.9104,
      "duration": 0.022,
      "velocity": 101,
      "chip": "ym2612"
    },
    {
      "channel": 0,
      "note": 59,
      "start": 7.9168,
      "duration": 0.0207,
      "velocity": 104,
      "chip": "ym2612"
    },
    {
      "channel": 1,
      "note": 83,
      "start": 7.9184,
      "duration": 0.0194,
      "velocity": 101,
      "chip": "ym2612"
    },
    {
      "channel": 2,
      "note": 74,
      "start": 7.9189,
      "duration": 0.0192,
      "velocity": 98,
      "chip": "ym2612"
    },
    {
      "channel": 3,
      "note": 55,
      "start": 7.9195,
      "duration": 0.0403,
      "velocity": 94,
      "chip": "ym2612"
    },
    {
      "channel": 4,
      "note": 76,
      "start": 7.9355,
      "duration": 0.0182,
      "velocity": 101,
      "chip": "ym2612"
    },
    {
      "channel": 0,
      "note": 55,
      "start": 7.9406,
      "duration": 0.0183,
      "velocity": 104,
      "chip": "ym2612"
    },
    {
      "channel": 1,
      "note": 79,
      "start": 7.9412,
      "duration": 0.018,
      "velocity": 101,
      "chip": "ym2612"
    },
    {
      "channel": 2,
      "note": 67,
      "start": 7.9417,
      "duration": 0.0178,
      "velocity": 98,
      "chip": "ym2612"
    },
    {
      "channel": 4,
      "note": 79,
      "start": 7.9569,
      "duration": 0.021,
      "velocity": 101,
      "chip": "ym2612"
    },
    {
      "channel": 0,
      "note": 57,
      "start": 7.9632,
      "duration": 0.0829,
      "velocity": 104,
      "chip": "ym2612"
    },
    {
      "channel": 1,
      "note": 81,
      "start": 7.9638,
      "duration": 0.0192,
      "velocity": 101,
      "chip": "ym2612"
    },
    {
      "channel": 2,
      "note": 76,
      "start": 7.9646,
      "duration": 0.082,
      "velocity": 98,
      "chip": "ym2612"
    },
    {
      "channel": 3,
      "note": 55,
      "start": 7.9655,
      "duration": 0.0814,
      "velocity": 94,
      "chip": "ym2612"
    },
    {
      "channel": 4,
      "note": 71,
      "start": 7.981,
      "duration": 0.0319,
      "velocity": 101,
      "chip": "ym2612"
    },
    {
      "channel": 1,
      "note": 76,
      "start": 7.9861,
      "duration": 0.0602,
      "velocity": 101,
      "chip": "ym2612"
    },
    {
      "channel": 4,
      "note": 83,
      "start": 8.0302,
      "duration": 0.0467,
      "velocity": 101,
      "chip": "ym2612"
    },
    {
      "channel": 0,
      "note": 64,
      "start": 8.0634,
      "duration": 0.0188,
      "velocity": 104,
      "chip": "ym2612"
    },
    {
      "channel": 1,
      "note": 72,
      "start": 8.0639,
      "duration": 0.0185,
      "velocity": 101,
      "chip": "ym2612"
    },
    {
      "channel": 3,
      "note": 55,
      "start": 8.065,
      "duration": 0.0414,
      "velocity": 94,
      "chip": "ym2612"
    },
    {
      "channel": 4,
      "note": 79,
      "start": 8.0801,
      "duration": 0.0202,
      "velocity": 101,
      "chip": "ym2612"
    },
    {
      "channel": 0,
      "note": 69,
      "start": 8.0852,
      "duration": 0.0434,
      "velocity": 104,
      "chip": "ym2612"
    },
    {
      "channel": 1,
      "note": 81,
      "start": 8.0858,
      "duration": 0.02,
      "velocity": 101,
      "chip": "ym2612"
    },
    {
      "channel": 2,
      "note": 76,
      "start": 8.0863,
      "duration": 0.0429,
      "velocity": 98,
      "chip": "ym2612"
    },
    {
      "channel": 4,
      "note": 81,
      "start": 8.1037,
      "duration": 0.0198,
      "velocity": 101,
      "chip": "ym2612"
    },
    {
      "channel": 1,
      "note": 76,
      "start": 8.1107,
      "duration": 0.0182,
      "velocity": 101,
      "chip": "ym2612"
    },
    {
      "channel": 3,
      "note": 55,
      "start": 8.1117,
      "duration": 0.0413,
      "velocity": 94,
      "chip": "ym2612"
    },
    {
      "channel": 4,
      "note": 76,
      "start": 8.1266,
      "duration": 0.0205,
      "velocity": 101,
      "chip": "ym2612"
    },
    {
      "channel": 0,
      "note": 67,
      "start": 8.1334,
      "duration": 0.0187,
      "velocity": 104,
      "chip": "ym2612"
    },
    {
      "channel": 1,
      "note": 72,
      "start": 8.134,
      "duration": 0.0184,
      "velocity": 101,
      "chip": "ym2612"
    },
    {
      "channel": 2,
      "note": 72,
      "start": 8.1345,
      "duration": 0.0182,
      "velocity": 98,
      "chip": "ym2612"
    },
    {
      "channel": 4,
      "note": 72,
      "start": 8.1501,
      "duration": 0.0207,
      "velocity": 101,
      "chip": "ym2612"
    },
    {
      "channel": 0,
      "note": 64,
      "start": 8.157,
      "duration": 0.019,
      "velocity": 104,
      "chip": "ym2612"
    },
    {
      "channel": 1,
      "note": 81,
      "start": 8.1575,
      "duration": 0.0187,
      "velocity": 101,
      "chip": "ym2612"
    },
    {
      "channel": 2,
      "note": 74,
      "start": 8.1581,
      "duration": 0.0185,
      "velocity": 98,
      "chip": "ym2612"
    },
    {
      "channel": 3,
      "note": 55,
      "start": 8.1588,
      "duration": 0.0392,
      "velocity": 94,
      "chip": "ym2612"
    },
    {
      "channel": 4,
      "note": 81,
      "start": 8.174,
      "duration": 0.0181,
      "velocity": 101,
      "chip": "ym2612"
    },
    {
      "channel": 0,
      "note": 57,
      "start": 8.1791,
      "duration": 0.0181,
      "velocity": 104,
      "chip": "ym2612"
    },
    {
      "channel": 1,
      "note": 76,
      "start": 8.1796,
      "duration": 0.0178,
      "velocity": 101,
      "chip": "ym2612"
    },
    {
      "channel": 2,
      "note": 76,
      "start": 8.1802,
      "duration": 0.0176,
      "velocity": 98,
      "chip": "ym2612"
    },
    {
      "channel": 4,
      "note": 76,
      "start": 8.1952,
      "duration": 0.0194,
      "velocity": 101,
      "chip": "ym2612"
    },
    {
      "channel": 0,
      "note": 55,
      "start": 8.2003,
      "duration": 0.085,
      "velocity": 104,
      "chip": "ym2612"
    },
    {
      "channel": 1,
      "note": 79,
      "start": 8.2009,
      "duration": 0.0195,
      "velocity": 101,
      "chip": "ym2612"
    },
    {
      "channel": 2,
      "note": 74,
      "start": 8.2015,
      "duration": 0.0843,
      "velocity": 98,
      "chip": "ym2612"
    },
    {
      "channel": 3,
      "note": 55,
      "start": 8.2023,
      "duration": 0.0839,
      "velocity": 94,
      "chip": "ym2612"
    },
    {
      "channel": 4,
      "note": 72,
      "start": 8.218,
      "duration": 0.0343,
      "velocity": 101,
      "chip": "ym2612"
    },
    {
      "channel": 1,
      "note": 77,
      "start": 8.2237,
      "duration": 0.0619,
      "velocity": 101,
      "chip": "ym2612"
    },
    {
      "channel": 4,
      "note": 81,
      "start": 8.2695,
      "duration": 0.0469,
      "velocity": 101,
      "chip": "ym2612"
    },
    {
      "channel": 0,
      "note": 62,
      "start": 8.3026,
      "duration": 0.0189,
      "velocity": 104,
      "chip": "ym2612"
    },
    {
      "channel": 1,
      "note": 76,
      "start": 8.3032,
      "duration": 0.0186,
      "velocity": 101,
      "chip": "ym2612"
    },
    {
      "channel": 3,
      "note": 55,
      "start": 8.3043,
      "duration": 0.0409,
      "velocity": 94,
      "chip": "ym2612"
    },
    {
      "channel": 4,
      "note": 76,
      "start": 8.3196,
      "duration": 0.0198,
      "velocity": 101,
      "chip": "ym2612"
    },
    {
      "channel": 0,
      "note": 67,
      "start": 8.3259,
      "duration": 0.0831,
      "velocity": 104,
      "chip": "ym2612"
    },
    {
      "channel": 1,
      "note": 74,
      "start": 8.3265,
      "duration": 0.0181,
      "velocity": 101,
      "chip": "ym2612"
    },
    {
      "channel": 2,
      "note": 74,
      "start": 8.327,
      "duration": 0.0825,
      "velocity": 98,
      "chip": "ym2612"
    },
    {
      "channel": 4,
      "note": 79,
      "start": 8.3425,
      "duration": 0.0333,
      "velocity": 101,
      "chip": "ym2612"
    },
    {
      "channel": 1,
      "note": 72,
      "start": 8.3477,
      "duration": 0.0616,
      "velocity": 101,
      "chip": "ym2612"
    },
    {
      "channel": 3,
      "note": 55,
      "start": 8.3487,
      "duration": 0.0967,
      "velocity": 94,
      "chip": "ym2612"
    },
    {
      "channel": 4,
      "note": 77,
      "start": 8.3932,
      "duration": 0.0462,
      "velocity": 101,
      "chip": "ym2612"
    },
    {
      "channel": 0,
      "note": 62,
      "start": 8.4263,
      "duration": 0.0181,
      "velocity": 104,
      "chip": "ym2612"
    },
    {
      "channel": 1,
      "note": 71,
      "start": 8.4269,
      "duration": 0.0179,
      "velocity": 101,
      "chip": "ym2612"
    },
    {
      "channel": 4,
      "note": 76,
      "start": 8.4425,
      "duration": 0.0218,
      "velocity": 101,
      "chip": "ym2612"
    },
    {
      "channel": 0,
      "note": 59,
      "start": 8.4483,
      "duration": 0.0214,
      "velocity": 104,
      "chip": "ym2612"
    },
    {
      "channel": 1,
      "note": 67,
      "start": 8.4489,
      "duration": 0.0211,
      "velocity": 101,
      "chip": "ym2612"
    },
    {
      "channel": 2,
      "note": 74,
      "start": 8.4494,
      "duration": 0.0209,
      "velocity": 98,
      "chip": "ym2612"
    },
    {
      "channel": 3,
      "note": 55,
      "start": 8.4502,
      "duration": 0.0416,
      "velocity": 94,
      "chip": "ym2612"
    },
    {
      "channel": 4,
      "note": 74,
      "start": 8.4677,
      "duration": 0.0181,
      "velocity": 101,
      "chip": "ym2612"
    },
    {
      "channel": 0,
      "note": 55,
      "start": 8.4728,
      "duration": 0.0181,
      "velocity": 104,
      "chip": "ym2612"
    },
    {
      "channel": 1,
      "note": 71,
      "start": 8.4733,
      "duration": 0.0179,
      "velocity": 101,
      "chip": "ym2612"
    },
    {
      "channel": 2,
      "note": 67,
      "start": 8.4739,
      "duration": 0.0176,
      "velocity": 98,
      "chip": "ym2612"
    },
    {
      "channel": 4,
      "note": 72,
      "start": 8.4889,
      "duration": 0.0206,
      "velocity": 101,
      "chip": "ym2612"
    },
    {
      "channel": 0,
      "note": 53,
      "start": 8.495,
      "duration": 0.083,
      "velocity": 104,
      "chip": "ym2612"
    },
    {
      "channel": 1,
      "note": 69,
      "start": 8.4955,
      "duration": 0.0132,
      "velocity": 101,
      "chip": "ym2612"
    },
    {
      "channel": 2,
      "note": 76,
      "start": 8.4963,
      "duration": 0.0823,
      "velocity": 98,
      "chip": "ym2612"
    },
    {
      "channel": 3,
      "note": 55,
      "start": 8.4971,
      "duration": 0.0818,
      "velocity": 94,
      "chip": "ym2612"
    },
    {
      "channel": 1,
      "note": 68,
      "start": 8.5118,
      "duration": 0.0116,
      "velocity": 101,
      "chip": "ym2612"
    },
    {
      "channel": 4,
      "note": 71,
      "start": 8.5129,
      "duration": 0.0319,
      "velocity": 101,
      "chip": "ym2612"
    },
    {
      "channel": 1,
      "note": 69,
      "start": 8.5271,
      "duration": 0.0512,
      "velocity": 101,
      "chip": "ym2612"
    },
    {
      "channel": 4,
      "note": 67,
      "start": 8.5622,
      "duration": 0.0468,
      "velocity": 101,
      "chip": "ym2612"
    },
    {
      "channel": 0,
      "note": 60,
      "start": 8.5954,
      "duration": 0.019,
      "velocity": 104,
      "chip": "ym2612"
    },
    {
      "channel": 1,
      "note": 71,
      "start": 8.5959,
      "duration": 0.0123,
      "velocity": 101,
      "chip": "ym2612"
    },
    {
      "channel": 3,
      "note": 55,
      "start": 8.597,
      "duration": 0.0401,
      "velocity": 94,
      "chip": "ym2612"
    },
    {
      "channel": 1,
      "note": 69,
      "start": 8.6113,
      "duration": 0.0126,
      "velocity": 101,
      "chip": "ym2612"
    },
    {
      "channel": 4,
      "note": 71,
      "start": 8.6124,
      "duration": 0.0123,
      "velocity": 101,
      "chip": "ym2612"
    },
    {
      "channel": 0,
      "note": 65,
      "start": 8.6175,
      "duration": 0.0431,
      "velocity": 104,
      "chip": "ym2612"
    },
    {
      "channel": 2,
      "note": 76,
      "start": 8.6183,
      "duration": 0.0428,
      "velocity": 98,
      "chip": "ym2612"
    },
    {
      "channel": 1,
      "note": 71,
      "start": 8.6269,
      "duration": 0.0096,
      "velocity": 101,
      "chip": "ym2612"
    },
    {
      "channel": 4,
      "note": 69,
      "start": 8.6281,
      "duration": 0.0146,
      "velocity": 101,
      "chip": "ym2612"
    },
    {
      "channel": 1,
      "note": 72,
      "start": 8.6402,
      "duration": 0.0141,
      "velocity": 101,
      "chip": "ym2612"
    },
    {
      "channel": 3,
      "note": 55,
      "start": 8.6423,
      "duration": 0.0409,
      "velocity": 94,
      "chip": "ym2612"
    },
    {
      "channel": 4,
      "note": 68,
      "start": 8.6464,
      "duration": 0.0088,
      "velocity": 101,
      "chip": "ym2612"
    },
    {
      "channel": 1,
      "note": 71,
      "start": 8.6574,
      "duration": 0.0129,
      "velocity": 101,
      "chip": "ym2612"
    },
    {
      "channel": 4,
      "note": 69,
      "start": 8.6586,
      "duration": 0.0126,
      "velocity": 101,
      "chip": "ym2612"
    },
    {
      "channel": 0,
      "note": 69,
      "start": 8.6637,
      "duration": 0.0186,
      "velocity": 104,
      "chip": "ym2612"
    },
    {
      "channel": 2,
      "note": 72,
      "start": 8.6644,
      "duration": 0.0184,
      "velocity": 98,
      "chip": "ym2612"
    },
    {
      "channel": 1,
      "note": 72,
      "start": 8.6734,
      "duration": 0.0091,
      "velocity": 101,
      "chip": "ym2612"
    },
    {
      "channel": 4,
      "note": 71,
      "start": 8.6746,
      "duration": 0.0132,
      "velocity": 101,
      "chip": "ym2612"
    },
    {
      "channel": 0,
      "note": 65,
      "start": 8.6855,
      "duration": 0.0199,
      "velocity": 104,
      "chip": "ym2612"
    },
    {
      "channel": 1,
      "note": 74,
      "start": 8.6861,
      "duration": 0.0131,
      "velocity": 101,
      "chip": "ym2612"
    },
    {
      "channel": 2,
      "note": 74,
      "start": 8.6866,
      "duration": 0.0193,
      "velocity": 98,
      "chip": "ym2612"
    },
    {
      "channel": 3,
      "note": 55,
      "start": 8.6874,
      "duration": 0.04,
      "velocity": 94,
      "chip": "ym2612"
    },
    {
      "channel": 4,
      "note": 69,
      "start": 8.6915,
      "duration": 0.0085,
      "velocity": 101,
      "chip": "ym2612"
    },
    {
      "channel": 1,
      "note": 72,
      "start": 8.7022,
      "duration": 0.0126,
      "velocity": 101,
      "chip": "ym2612"
    },
    {
      "channel": 4,
      "note": 71,
      "start": 8.7034,
      "duration": 0.0123,
      "velocity": 101,
      "chip": "ym2612"
    },
    {
      "channel": 0,
      "note": 60,
      "start": 8.7085,
      "duration": 0.0181,
      "velocity": 104,
      "chip": "ym2612"
    },
    {
      "channel": 2,
      "note": 76,
      "start": 8.7092,
      "duration": 0.0179,
      "velocity": 98,
      "chip": "ym2612"
    },
    {
      "channel": 1,
      "note": 74,
      "start": 8.7179,
      "duration": 0.009,
      "velocity": 101,
      "chip": "ym2612"
    },
    {
      "channel": 4,
      "note": 72,
      "start": 8.719,
      "duration": 0.014,
      "velocity": 101,
      "chip": "ym2612"
    },
    {
      "channel": 0,
      "note": 55,
      "start": 8.7307,
      "duration": 0.0435,
      "velocity": 104,
      "chip": "ym2612"
    },
    {
      "channel": 1,
      "note": 76,
      "start": 8.7312,
      "duration": 0.0131,
      "velocity": 101,
      "chip": "ym2612"
    },
    {
      "channel": 2,
      "note": 74,
      "start": 8.7319,
      "duration": 0.0429,
      "velocity": 98,
      "chip": "ym2612"
    },
    {
      "channel": 3,
      "note": 55,
      "start": 8.7326,
      "duration": 0.1827,
      "velocity": 94,
      "chip": "ym2612"
    },
    {
      "channel": 4,
      "note": 71,
      "start": 8.7367,
      "duration": 0.0085,
      "velocity": 101,
      "chip": "ym2612"
    },
    {
      "channel": 1,
      "note": 74,
      "start": 8.7474,
      "duration": 0.0131,
      "velocity": 101,
      "chip": "ym2612"
    },
    {
      "channel": 4,
      "note": 72,
      "start": 8.7485,
      "duration": 0.0128,
      "velocity": 101,
      "chip": "ym2612"
    },
    {
      "channel": 1,
      "note": 76,
      "start": 8.7639,
      "duration": 0.0106,
      "velocity": 101,
      "chip": "ym2612"
    },
    {
      "channel": 4,
      "note": 74,
      "start": 8.7661,
      "duration": 0.0145,
      "velocity": 101,
      "chip": "ym2612"
    },
    {
      "channel": 0,
      "note": 62,
      "start": 8.7791,
      "duration": 0.0191,
      "velocity": 104,
      "chip": "ym2612"
    },
    {
      "channel": 1,
      "note": 77,
      "start": 8.7796,
      "duration": 0.0123,
      "velocity": 101,
      "chip": "ym2612"
    },
    {
      "channel": 4,
      "note": 72,
      "start": 8.7843,
      "duration": 0.0085,
      "velocity": 101,
      "chip": "ym2612"
    },
    {
      "channel": 1,
      "note": 76,
      "start": 8.795,
      "duration": 0.0134,
      "velocity": 101,
      "chip": "ym2612"
    },
    {
      "channel": 4,
      "note": 74,
      "start": 8.7962,
      "duration": 0.0132,
      "velocity": 101,
      "chip": "ym2612"
    },
    {
      "channel": 0,
      "note": 67,
      "start": 8.8014,
      "duration": 0.0418,
      "velocity": 104,
      "chip": "ym2612"
    },
    {
      "channel": 2,
      "note": 74,
      "start": 8.8022,
      "duration": 0.0642,
      "velocity": 98,
      "chip": "ym2612"
    },
    {
      "channel": 1,
      "note": 77,
      "start": 8.8116,
      "duration": 0.009,
      "velocity": 101,
      "chip": "ym2612"
    },
    {
      "channel": 4,
      "note": 76,
      "start": 8.8128,
      "duration": 0.0128,
      "velocity": 101,
      "chip": "ym2612"
    },
    {
      "channel": 1,
      "note": 78,
      "start": 8.8247,
      "duration": 0.0123,
      "velocity": 101,
      "chip": "ym2612"
    },
    {
      "channel": 4,
      "note": 74,
      "start": 8.8293,
      "duration": 0.0086,
      "velocity": 101,
      "chip": "ym2612"
    },
    {
      "channel": 1,
      "note": 77,
      "start": 8.8401,
      "duration": 0.0137,
      "velocity": 101,
      "chip": "ym2612"
    },
    {
      "channel": 4,
      "note": 76,
      "start": 8.8412,
      "duration": 0.0134,
      "velocity": 101,
      "chip": "ym2612"
    },
    {
      "channel": 0,
      "note": 79,
      "start": 8.8474,
      "duration": 0.0184,
      "velocity": 104,
      "chip": "ym2612"
    },
    {
      "channel": 1,
      "note": 78,
      "start": 8.8569,
      "duration": 0.0092,
      "velocity": 101,
      "chip": "ym2612"
    },
    {
      "channel": 4,
      "note": 77,
      "start": 8.8581,
      "duration": 0.0141,
      "velocity": 101,
      "chip": "ym2612"
    },
    {
      "channel": 0,
      "note": 74,
      "start": 8.8704,
      "duration": 0.0204,
      "velocity": 104,
      "chip": "ym2612"
    },
    {
      "channel": 1,
      "note": 79,
      "start": 8.8709,
      "duration": 0.013,
      "velocity": 101,
      "chip": "ym2612"
    },
    {
      "channel": 2,
      "note": 67,
      "start": 8.8715,
      "duration": 0.0435,
      "velocity": 98,
      "chip": "ym2612"
    },
    {
      "channel": 4,
      "note": 76,
      "start": 8.8762,
      "duration": 0.0086,
      "velocity": 101,
      "chip": "ym2612"
    },
    {
      "channel": 1,
      "note": 78,
      "start": 8.8873,
      "duration": 0.0152,
      "velocity": 101,
      "chip": "ym2612"
    },
    {
      "channel": 4,
      "note": 77,
      "start": 8.8896,
      "duration": 0.0138,
      "velocity": 101,
      "chip": "ym2612"
    },
    {
      "channel": 0,
      "note": 67,
      "start": 8.8945,
      "duration": 0.02,
      "velocity": 104,
      "chip": "ym2612"
    },
    {
      "channel": 1,
      "note": 79,
      "start": 8.9056,
      "duration": 0.0091,
      "velocity": 101,
      "chip": "ym2612"
    },
    {
      "channel": 4,
      "note": 78,
      "start": 8.9068,
      "duration": 0.0151,
      "velocity": 101,
      "chip": "ym2612"
    },
    {
      "channel": 0,
      "note": 57,
      "start": 8.9183,
      "duration": 0.0214,
      "velocity": 104,
      "chip": "ym2612"
    },
    {
      "channel": 1,
      "note": 81,
      "start": 8.92,
      "duration": 0.0879,
      "velocity": 101,
      "chip": "ym2612"
    },
    {
      "channel": 2,
      "note": 69,
      "start": 8.9208,
      "duration": 0.0193,
      "velocity": 98,
      "chip": "ym2612"
    },
    {
      "channel": 4,
      "note": 77,
      "start": 8.9259,
      "duration": 0.0085,
      "velocity": 101,
      "chip": "ym2612"
    },
    {
      "channel": 4,
      "note": 78,
      "start": 8.9376,
      "duration": 0.0129,
      "velocity": 101,
      "chip": "ym2612"
    },
    {
      "channel": 0,
      "note": 59,
      "start": 8.9427,
      "duration": 0.0187,
      "velocity": 104,
      "chip": "ym2612"
    },
    {
      "channel": 2,
      "note": 71,
      "start": 8.9436,
      "duration": 0.0184,
      "velocity": 98,
      "chip": "ym2612"
    },
    {
      "channel": 4,
      "note": 79,
      "start": 8.9537,
      "duration": 0.0132,
      "velocity": 101,
      "chip": "ym2612"
    },
    {
      "channel": 4,
      "note": 78,
      "start": 8.9705,
      "duration": 0.0087,
      "velocity": 101,
      "chip": "ym2612"
    },
    {
      "channel": 4,
      "note": 79,
      "start": 8.9836,
      "duration": 0.0923,
      "velocity": 101,
      "chip": "ym2612"
    },
    {
      "channel": 0,
      "note": 60,
      "start": 8.9891,
      "duration": 0.0185,
      "velocity": 104,
      "chip": "ym2612"
    },
    {
      "channel": 2,
      "note": 72,
      "start": 8.99,
      "duration": 0.0182,
      "velocity": 98,
      "chip": "ym2612"
    },
    {
      "channel": 0,
      "note": 62,
      "start": 9.012,
      "duration": 0.021,
      "velocity": 104,
      "chip": "ym2612"
    },
    {
      "channel": 2,
      "note": 74,
      "start": 9.0129,
      "duration": 0.0206,
      "velocity": 98,
      "chip": "ym2612"
    },
    {
      "channel": 3,
      "note": 55,
      "start": 9.0634,
      "duration": 0.0704,
      "velocity": 94,
      "chip": "ym2612"
    },
    {
      "channel": 3,
      "note": 55,
      "start": 9.1537,
      "duration": 0.2199,
      "velocity": 94,
      "chip": "ym2612"
    },
    {
      "channel": 3,
      "note": 55,
      "start": 9.3944,
      "duration": 0.4229,
      "velocity": 94,
      "chip": "ym2612"
    },
    {
      "channel": 0,
      "note": 64,
      "start": 9.6297,
      "duration": 0.0511,
      "velocity": 104,
      "chip": "ym2612"
    },
    {
      "channel": 0,
      "note": 76,
      "start": 9.7495,
      "duration": 0.0188,
      "velocity": 104,
      "chip": "ym2612"
    },
    {
      "channel": 0,
      "note": 52,
      "start": 9.7725,
      "duration": 0.0101,
      "velocity": 104,
      "chip": "ym2612"
    },
    {
      "channel": 2,
      "note": 88,
      "start": 9.7733,
      "duration": 0.0437,
      "velocity": 98,
      "chip": "ym2612"
    },
    {
      "channel": 0,
      "note": 64,
      "start": 9.7954,
      "duration": 0.0209,
      "velocity": 104,
      "chip": "ym2612"
    },
    {
      "channel": 0,
      "note": 57,
      "start": 9.8212,
      "duration": 0.0822,
      "velocity": 104,
      "chip": "ym2612"
    },
    {
      "channel": 1,
      "note": 69,
      "start": 9.8255,
      "duration": 0.0782,
      "velocity": 110,
      "chip": "ym2612"
    },
    {
      "channel": 2,
      "note": 72,
      "start": 9.8297,
      "duration": 0.0743,
      "velocity": 98,
      "chip": "ym2612"
    },
    {
      "channel": 3,
      "note": 55,
      "start": 9.8354,
      "duration": 0.0689,
      "velocity": 94,
      "chip": "ym2612"
    },
    {
      "channel": 0,
      "note": 64,
      "start": 9.9208,
      "duration": 24.9231,
      "velocity": 104,
      "chip": "ym2612"
    },
    {
      "channel": 3,
      "note": 55,
      "start": 9.9222,
      "duration": 24.9217,
      "velocity": 94,
      "chip": "ym2612"
    }
  ]
}