{
  "track_name": "17 - Choose a Door 2",
  "duration_sec": 39.583,
  "sample_rate": 44100,
  "note_count": 480,
  "unique_pitches": 27,
  "pitch_range": 35,
  "avg_note_duration": 0.3635,
  "reconstruction_stats": {
    "notes_reconstructed": 480,
    "keyon_events": 480,
    "keyoff_events": 476,
    "orphan_keyons": 4,
    "unique_pitches": 27,
    "pitch_range": 35,
    "avg_duration_sec": 0.3635
  },
  "metadata": {
    "source": "S\\Splatterhouse 3\\17 - Choose a Door 2.vgz"
  },
  "notes": [
    {
      "channel": 0,
      "note": 78,
      "start": 0.0,
      "duration": 0.1404,
      "velocity": 67,
      "chip": "ym2612"
    },
    {
      "channel": 1,
      "note": 81,
      "start": 0.0,
      "duration": 4.7946,
      "velocity": 87,
      "chip": "ym2612"
    },
    {
      "channel": 2,
      "note": 72,
      "start": 0.0026,
      "duration": 4.7957,
      "velocity": 87,
      "chip": "ym2612"
    },
    {
      "channel": 4,
      "note": 81,
      "start": 0.0099,
      "duration": 5.0847,
      "velocity": 87,
      "chip": "ym2612"
    },
    {
      "channel": 0,
      "note": 85,
      "start": 0.1405,
      "duration": 0.1495,
      "velocity": 67,
      "chip": "ym2612"
    },
    {
      "channel": 0,
      "note": 78,
      "start": 0.29,
      "duration": 0.1498,
      "velocity": 67,
      "chip": "ym2612"
    },
    {
      "channel": 0,
      "note": 85,
      "start": 0.4399,
      "duration": 0.15,
      "velocity": 67,
      "chip": "ym2612"
    },
    {
      "channel": 0,
      "note": 78,
      "start": 0.59,
      "duration": 0.1498,
      "velocity": 67,
      "chip": "ym2612"
    },
    {
      "channel": 0,
      "note": 85,
      "start": 0.7399,
      "duration": 0.15,
      "velocity": 67,
      "chip": "ym2612"
    },
    {
      "channel": 0,
      "note": 78,
      "start": 0.8899,
      "duration": 0.1499,
      "velocity": 67,
      "chip": "ym2612"
    },
    {
      "channel": 0,
      "note": 85,
      "start": 1.0399,
      "duration": 0.1502,
      "velocity": 67,
      "chip": "ym2612"
    },
    {
      "channel": 0,
      "note": 78,
      "start": 1.1902,
      "duration": 0.1496,
      "velocity": 67,
      "chip": "ym2612"
    },
    {
      "channel": 0,
      "note": 85,
      "start": 1.3399,
      "duration": 0.15,
      "velocity": 67,
      "chip": "ym2612"
    },
    {
      "channel": 0,
      "note": 78,
      "start": 1.49,
      "duration": 0.1498,
      "velocity": 67,
      "chip": "ym2612"
    },
    {
      "channel": 0,
      "note": 85,
      "start": 1.6399,
      "duration": 0.15,
      "velocity": 67,
      "chip": "ym2612"
    },
    {
      "channel": 0,
      "note": 78,
      "start": 1.79,
      "duration": 0.1498,
      "velocity": 67,
      "chip": "ym2612"
    },
    {
      "channel": 0,
      "note": 85,
      "start": 1.9399,
      "duration": 0.1499,
      "velocity": 67,
      "chip": "ym2612"
    },
    {
      "channel": 0,
      "note": 78,
      "start": 2.0899,
      "duration": 0.1499,
      "velocity": 67,
      "chip": "ym2612"
    },
    {
      "channel": 0,
      "note": 85,
      "start": 2.2399,
      "duration": 0.1503,
      "velocity": 67,
      "chip": "ym2612"
    },
    {
      "channel": 0,
      "note": 78,
      "start": 2.3903,
      "duration": 0.1495,
      "velocity": 67,
      "chip": "ym2612"
    },
    {
      "channel": 0,
      "note": 85,
      "start": 2.54,
      "duration": 0.1499,
      "velocity": 67,
      "chip": "ym2612"
    },
    {
      "channel": 0,
      "note": 78,
      "start": 2.69,
      "duration": 0.1498,
      "velocity": 67,
      "chip": "ym2612"
    },
    {
      "channel": 0,
      "note": 85,
      "start": 2.8399,
      "duration": 0.15,
      "velocity": 67,
      "chip": "ym2612"
    },
    {
      "channel": 0,
      "note": 78,
      "start": 2.99,
      "duration": 0.1498,
      "velocity": 67,
      "chip": "ym2612"
    },
    {
      "channel": 0,
      "note": 85,
      "start": 3.1399,
      "duration": 0.15,
      "velocity": 67,
      "chip": "ym2612"
    },
    {
      "channel": 0,
      "note": 78,
      "start": 3.2899,
      "duration": 0.1499,
      "velocity": 67,
      "chip": "ym2612"
    },
    {
      "channel": 0,
      "note": 85,
      "start": 3.4398,
      "duration": 0.15,
      "velocity": 67,
      "chip": "ym2612"
    },
    {
      "channel": 0,
      "note": 78,
      "start": 3.5899,
      "duration": 0.1499,
      "velocity": 67,
      "chip": "ym2612"
    },
    {
      "channel": 0,
      "note": 85,
      "start": 3.7399,
      "duration": 0.15,
      "velocity": 67,
      "chip": "ym2612"
    },
    {
      "channel": 0,
      "note": 78,
      "start": 3.8899,
      "duration": 0.1499,
      "velocity": 67,
      "chip": "ym2612"
    },
    {
      "channel": 0,
      "note": 85,
      "start": 4.0399,
      "duration": 0.1501,
      "velocity": 67,
      "chip": "ym2612"
    },
    {
      "channel": 0,
      "note": 78,
      "start": 4.1902,
      "duration": 0.15,
      "velocity": 67,
      "chip": "ym2612"
    },
    {
      "channel": 3,
      "note": 77,
      "start": 4.1915,
      "duration": 0.0657,
      "velocity": 99,
      "chip": "ym2612"
    },
    {
      "channel": 3,
      "note": 78,
      "start": 4.2573,
      "duration": 0.0842,
      "velocity": 99,
      "chip": "ym2612"
    },
    {
      "channel": 0,
      "note": 85,
      "start": 4.3403,
      "duration": 0.1499,
      "velocity": 67,
      "chip": "ym2612"
    },
    {
      "channel": 3,
      "note": 79,
      "start": 4.3417,
      "duration": 0.0658,
      "velocity": 99,
      "chip": "ym2612"
    },
    {
      "channel": 5,
      "note": 77,
      "start": 4.3428,
      "duration": 0.0658,
      "velocity": 99,
      "chip": "ym2612"
    },
    {
      "channel": 3,
      "note": 80,
      "start": 4.4076,
      "duration": 0.084,
      "velocity": 99,
      "chip": "ym2612"
    },
    {
      "channel": 5,
      "note": 78,
      "start": 4.4087,
      "duration": 0.084,
      "velocity": 99,
      "chip": "ym2612"
    },
    {
      "channel": 0,
      "note": 78,
      "start": 4.4903,
      "duration": 0.1499,
      "velocity": 67,
      "chip": "ym2612"
    },
    {
      "channel": 3,
      "note": 81,
      "start": 4.4917,
      "duration": 0.0658,
      "velocity": 99,
      "chip": "ym2612"
    },
    {
      "channel": 5,
      "note": 79,
      "start": 4.4928,
      "duration": 0.0658,
      "velocity": 99,
      "chip": "ym2612"
    },
    {
      "channel": 3,
      "note": 82,
      "start": 4.5576,
      "duration": 0.084,
      "velocity": 99,
      "chip": "ym2612"
    },
    {
      "channel": 5,
      "note": 80,
      "start": 4.5587,
      "duration": 0.084,
      "velocity": 99,
      "chip": "ym2612"
    },
    {
      "channel": 0,
      "note": 85,
      "start": 4.6403,
      "duration": 0.1508,
      "velocity": 67,
      "chip": "ym2612"
    },
    {
      "channel": 3,
      "note": 83,
      "start": 4.6417,
      "duration": 0.0657,
      "velocity": 99,
      "chip": "ym2612"
    },
    {
      "channel": 5,
      "note": 81,
      "start": 4.6428,
      "duration": 0.0658,
      "velocity": 99,
      "chip": "ym2612"
    },
    {
      "channel": 3,
      "note": 84,
      "start": 4.7075,
      "duration": 0.0913,
      "velocity": 99,
      "chip": "ym2612"
    },
    {
      "channel": 5,
      "note": 82,
      "start": 4.7087,
      "duration": 0.0913,
      "velocity": 99,
      "chip": "ym2612"
    },
    {
      "channel": 0,
      "note": 78,
      "start": 4.7911,
      "duration": 0.1489,
      "velocity": 67,
      "chip": "ym2612"
    },
    {
      "channel": 1,
      "note": 85,
      "start": 4.7947,
      "duration": 1.1963,
      "velocity": 87,
      "chip": "ym2612"
    },
    {
      "channel": 2,
      "note": 78,
      "start": 4.7984,
      "duration": 1.1936,
      "velocity": 87,
      "chip": "ym2612"
    },
    {
      "channel": 5,
      "note": 83,
      "start": 4.8001,
      "duration": 0.0577,
      "velocity": 99,
      "chip": "ym2612"
    },
    {
      "channel": 5,
      "note": 84,
      "start": 4.8578,
      "duration": 0.0838,
      "velocity": 99,
      "chip": "ym2612"
    },
    {
      "channel": 0,
      "note": 85,
      "start": 4.9402,
      "duration": 0.15,
      "velocity": 67,
      "chip": "ym2612"
    },
    {
      "channel": 0,
      "note": 78,
      "start": 5.0903,
      "duration": 0.1494,
      "velocity": 67,
      "chip": "ym2612"
    },
    {
      "channel": 4,
      "note": 85,
      "start": 5.0947,
      "duration": 1.1969,
      "velocity": 87,
      "chip": "ym2612"
    },
    {
      "channel": 0,
      "note": 85,
      "start": 5.2399,
      "duration": 0.15,
      "velocity": 67,
      "chip": "ym2612"
    },
    {
      "channel": 0,
      "note": 78,
      "start": 5.3899,
      "duration": 0.1499,
      "velocity": 67,
      "chip": "ym2612"
    },
    {
      "channel": 0,
      "note": 85,
      "start": 5.5399,
      "duration": 0.15,
      "velocity": 67,
      "chip": "ym2612"
    },
    {
      "channel": 0,
      "note": 78,
      "start": 5.6899,
      "duration": 0.15,
      "velocity": 67,
      "chip": "ym2612"
    },
    {
      "channel": 0,
      "note": 85,
      "start": 5.8399,
      "duration": 0.1502,
      "velocity": 67,
      "chip": "ym2612"
    },
    {
      "channel": 0,
      "note": 78,
      "start": 5.9902,
      "duration": 0.1496,
      "velocity": 67,
      "chip": "ym2612"
    },
    {
      "channel": 1,
      "note": 84,
      "start": 5.9912,
      "duration": 1.2,
      "velocity": 87,
      "chip": "ym2612"
    },
    {
      "channel": 2,
      "note": 74,
      "start": 5.9921,
      "duration": 1.2,
      "velocity": 87,
      "chip": "ym2612"
    },
    {
      "channel": 0,
      "note": 85,
      "start": 6.14,
      "duration": 0.15,
      "velocity": 67,
      "chip": "ym2612"
    },
    {
      "channel": 0,
      "note": 78,
      "start": 6.2901,
      "duration": 0.1497,
      "velocity": 67,
      "chip": "ym2612"
    },
    {
      "channel": 4,
      "note": 84,
      "start": 6.2918,
      "duration": 1.1999,
      "velocity": 87,
      "chip": "ym2612"
    },
    {
      "channel": 0,
      "note": 85,
      "start": 6.4399,
      "duration": 0.15,
      "velocity": 67,
      "chip": "ym2612"
    },
    {
      "channel": 0,
      "note": 78,
      "start": 6.59,
      "duration": 0.1498,
      "velocity": 67,
      "chip": "ym2612"
    },
    {
      "channel": 0,
      "note": 85,
      "start": 6.7399,
      "duration": 0.15,
      "velocity": 67,
      "chip": "ym2612"
    },
    {
      "channel": 0,
      "note": 78,
      "start": 6.89,
      "duration": 0.1499,
      "velocity": 67,
      "chip": "ym2612"
    },
    {
      "channel": 0,
      "note": 85,
      "start": 7.0399,
      "duration": 0.1503,
      "velocity": 67,
      "chip": "ym2612"
    },
    {
      "channel": 0,
      "note": 78,
      "start": 7.1903,
      "duration": 0.1496,
      "velocity": 67,
      "chip": "ym2612"
    },
    {
      "channel": 1,
      "note": 85,
      "start": 7.1913,
      "duration": 1.1998,
      "velocity": 87,
      "chip": "ym2612"
    },
    {
      "channel": 2,
      "note": 78,
      "start": 7.1922,
      "duration": 1.1998,
      "velocity": 87,
      "chip": "ym2612"
    },
    {
      "channel": 0,
      "note": 85,
      "start": 7.3401,
      "duration": 0.1499,
      "velocity": 67,
      "chip": "ym2612"
    },
    {
      "channel": 0,
      "note": 78,
      "start": 7.4901,
      "duration": 0.1497,
      "velocity": 67,
      "chip": "ym2612"
    },
    {
      "channel": 4,
      "note": 85,
      "start": 7.4918,
      "duration": 1.1999,
      "velocity": 87,
      "chip": "ym2612"
    },
    {
      "channel": 0,
      "note": 85,
      "start": 7.6399,
      "duration": 0.15,
      "velocity": 67,
      "chip": "ym2612"
    },
    {
      "channel": 0,
      "note": 78,
      "start": 7.79,
      "duration": 0.1498,
      "velocity": 67,
      "chip": "ym2612"
    },
    {
      "channel": 0,
      "note": 85,
      "start": 7.9399,
      "duration": 0.15,
      "velocity": 67,
      "chip": "ym2612"
    },
    {
      "channel": 0,
      "note": 78,
      "start": 8.09,
      "duration": 0.1499,
      "velocity": 67,
      "chip": "ym2612"
    },
    {
      "channel": 0,
      "note": 85,
      "start": 8.2399,
      "duration": 0.1502,
      "velocity": 67,
      "chip": "ym2612"
    },
    {
      "channel": 0,
      "note": 78,
      "start": 8.3902,
      "duration": 0.1496,
      "velocity": 67,
      "chip": "ym2612"
    },
    {
      "channel": 1,
      "note": 84,
      "start": 8.3912,
      "duration": 1.2,
      "velocity": 87,
      "chip": "ym2612"
    },
    {
      "channel": 2,
      "note": 75,
      "start": 8.3921,
      "duration": 1.2,
      "velocity": 87,
      "chip": "ym2612"
    },
    {
      "channel": 0,
      "note": 85,
      "start": 8.5399,
      "duration": 0.1501,
      "velocity": 67,
      "chip": "ym2612"
    },
    {
      "channel": 0,
      "note": 78,
      "start": 8.6901,
      "duration": 0.1497,
      "velocity": 67,
      "chip": "ym2612"
    },
    {
      "channel": 4,
      "note": 84,
      "start": 8.6918,
      "duration": 1.1999,
      "velocity": 87,
      "chip": "ym2612"
    },
    {
      "channel": 0,
      "note": 85,
      "start": 8.8399,
      "duration": 0.15,
      "velocity": 67,
      "chip": "ym2612"
    },
    {
      "channel": 0,
      "note": 78,
      "start": 8.99,
      "duration": 0.1498,
      "velocity": 67,
      "chip": "ym2612"
    },
    {
      "channel": 0,
      "note": 85,
      "start": 9.1399,
      "duration": 0.15,
      "velocity": 67,
      "chip": "ym2612"
    },
    {
      "channel": 0,
      "note": 78,
      "start": 9.29,
      "duration": 0.1499,
      "velocity": 67,
      "chip": "ym2612"
    },
    {
      "channel": 0,
      "note": 85,
      "start": 9.4399,
      "duration": 0.1503,
      "velocity": 67,
      "chip": "ym2612"
    },
    {
      "channel": 0,
      "note": 78,
      "start": 9.5903,
      "duration": 0.1496,
      "velocity": 67,
      "chip": "ym2612"
    },
    {
      "channel": 1,
      "note": 85,
      "start": 9.5913,
      "duration": 1.1998,
      "velocity": 87,
      "chip": "ym2612"
    },
    {
      "channel": 2,
      "note": 78,
      "start": 9.5922,
      "duration": 1.1998,
      "velocity": 87,
      "chip": "ym2612"
    },
    {
      "channel": 0,
      "note": 85,
      "start": 9.7401,
      "duration": 0.1499,
      "velocity": 67,
      "chip": "ym2612"
    },
    {
      "channel": 0,
      "note": 78,
      "start": 9.8901,
      "duration": 0.1497,
      "velocity": 67,
      "chip": "ym2612"
    },
    {
      "channel": 4,
      "note": 85,
      "start": 9.8918,
      "duration": 1.1999,
      "velocity": 87,
      "chip": "ym2612"
    },
    {
      "channel": 0,
      "note": 85,
      "start": 10.0399,
      "duration": 0.15,
      "velocity": 67,
      "chip": "ym2612"
    },
    {
      "channel": 0,
      "note": 78,
      "start": 10.19,
      "duration": 0.1498,
      "velocity": 67,
      "chip": "ym2612"
    },
    {
      "channel": 0,
      "note": 85,
      "start": 10.3399,
      "duration": 0.15,
      "velocity": 67,
      "chip": "ym2612"
    },
    {
      "channel": 0,
      "note": 78,
      "start": 10.49,
      "duration": 0.1499,
      "velocity": 67,
      "chip": "ym2612"
    },
    {
      "channel": 0,
      "note": 85,
      "start": 10.6399,
      "duration": 0.1502,
      "velocity": 67,
      "chip": "ym2612"
    },
    {
      "channel": 0,
      "note": 78,
      "start": 10.7902,
      "duration": 0.1496,
      "velocity": 67,
      "chip": "ym2612"
    },
    {
      "channel": 1,
      "note": 78,
      "start": 10.7912,
      "duration": 3.6003,
      "velocity": 87,
      "chip": "ym2612"
    },
    {
      "channel": 2,
      "note": 72,
      "start": 10.7921,
      "duration": 3.6003,
      "velocity": 87,
      "chip": "ym2612"
    },
    {
      "channel": 0,
      "note": 85,
      "start": 10.9399,
      "duration": 0.1501,
      "velocity": 67,
      "chip": "ym2612"
    },
    {
      "channel": 0,
      "note": 78,
      "start": 11.0901,
      "duration": 0.1497,
      "velocity": 67,
      "chip": "ym2612"
    },
    {
      "channel": 4,
      "note": 78,
      "start": 11.0918,
      "duration": 3.5999,
      "velocity": 87,
      "chip": "ym2612"
    },
    {
      "channel": 0,
      "note": 85,
      "start": 11.2399,
      "duration": 0.15,
      "velocity": 67,
      "chip": "ym2612"
    },
    {
      "channel": 0,
      "note": 78,
      "start": 11.3899,
      "duration": 0.1499,
      "velocity": 67,
      "chip": "ym2612"
    },
    {
      "channel": 0,
      "note": 85,
      "start": 11.5399,
      "duration": 0.15,
      "velocity": 67,
      "chip": "ym2612"
    },
    {
      "channel": 0,
      "note": 78,
      "start": 11.6899,
      "duration": 0.15,
      "velocity": 67,
      "chip": "ym2612"
    },
    {
      "channel": 0,
      "note": 85,
      "start": 11.8399,
      "duration": 0.1503,
      "velocity": 67,
      "chip": "ym2612"
    },
    {
      "channel": 0,
      "note": 78,
      "start": 11.9902,
      "duration": 0.1497,
      "velocity": 67,
      "chip": "ym2612"
    },
    {
      "channel": 0,
      "note": 85,
      "start": 12.14,
      "duration": 0.1499,
      "velocity": 67,
      "chip": "ym2612"
    },
    {
      "channel": 0,
      "note": 78,
      "start": 12.29,
      "duration": 0.1498,
      "velocity": 67,
      "chip": "ym2612"
    },
    {
      "channel": 0,
      "note": 85,
      "start": 12.4399,
      "duration": 0.1499,
      "velocity": 67,
      "chip": "ym2612"
    },
    {
      "channel": 0,
      "note": 78,
      "start": 12.5899,
      "duration": 0.15,
      "velocity": 67,
      "chip": "ym2612"
    },
    {
      "channel": 0,
      "note": 85,
      "start": 12.7399,
      "duration": 0.1499,
      "velocity": 67,
      "chip": "ym2612"
    },
    {
      "channel": 0,
      "note": 78,
      "start": 12.8899,
      "duration": 0.1499,
      "velocity": 67,
      "chip": "ym2612"
    },
    {
      "channel": 0,
      "note": 85,
      "start": 13.0399,
      "duration": 0.15,
      "velocity": 67,
      "chip": "ym2612"
    },
    {
      "channel": 0,
      "note": 78,
      "start": 13.1899,
      "duration": 0.1499,
      "velocity": 67,
      "chip": "ym2612"
    },
    {
      "channel": 0,
      "note": 85,
      "start": 13.3399,
      "duration": 0.15,
      "velocity": 67,
      "chip": "ym2612"
    },
    {
      "channel": 0,
      "note": 78,
      "start": 13.4899,
      "duration": 0.1499,
      "velocity": 67,
      "chip": "ym2612"
    },
    {
      "channel": 0,
      "note": 85,
      "start": 13.6399,
      "duration": 0.1501,
      "velocity": 67,
      "chip": "ym2612"
    },
    {
      "channel": 0,
      "note": 78,
      "start": 13.7901,
      "duration": 0.1501,
      "velocity": 67,
      "chip": "ym2612"
    },
    {
      "channel": 3,
      "note": 77,
      "start": 13.7915,
      "duration": 0.0657,
      "velocity": 99,
      "chip": "ym2612"
    },
    {
      "channel": 3,
      "note": 78,
      "start": 13.8573,
      "duration": 0.0842,
      "velocity": 99,
      "chip": "ym2612"
    },
    {
      "channel": 0,
      "note": 85,
      "start": 13.9403,
      "duration": 0.1499,
      "velocity": 67,
      "chip": "ym2612"
    },
    {
      "channel": 3,
      "note": 79,
      "start": 13.9417,
      "duration": 0.0658,
      "velocity": 99,
      "chip": "ym2612"
    },
    {
      "channel": 5,
      "note": 77,
      "start": 13.9428,
      "duration": 0.0658,
      "velocity": 99,
      "chip": "ym2612"
    },
    {
      "channel": 3,
      "note": 80,
      "start": 14.0076,
      "duration": 0.084,
      "velocity": 99,
      "chip": "ym2612"
    },
    {
      "channel": 5,
      "note": 78,
      "start": 14.0087,
      "duration": 0.084,
      "velocity": 99,
      "chip": "ym2612"
    },
    {
      "channel": 0,
      "note": 78,
      "start": 14.0903,
      "duration": 0.1499,
      "velocity": 67,
      "chip": "ym2612"
    },
    {
      "channel": 3,
      "note": 81,
      "start": 14.0917,
      "duration": 0.0658,
      "velocity": 99,
      "chip": "ym2612"
    },
    {
      "channel": 5,
      "note": 79,
      "start": 14.0928,
      "duration": 0.0658,
      "velocity": 99,
      "chip": "ym2612"
    },
    {
      "channel": 3,
      "note": 82,
      "start": 14.1576,
      "duration": 0.084,
      "velocity": 99,
      "chip": "ym2612"
    },
    {
      "channel": 5,
      "note": 80,
      "start": 14.1587,
      "duration": 0.084,
      "velocity": 99,
      "chip": "ym2612"
    },
    {
      "channel": 0,
      "note": 85,
      "start": 14.2403,
      "duration": 0.1503,
      "velocity": 67,
      "chip": "ym2612"
    },
    {
      "channel": 3,
      "note": 83,
      "start": 14.2417,
      "duration": 0.0657,
      "velocity": 99,
      "chip": "ym2612"
    },
    {
      "channel": 5,
      "note": 81,
      "start": 14.2428,
      "duration": 0.0658,
      "velocity": 99,
      "chip": "ym2612"
    },
    {
      "channel": 3,
      "note": 84,
      "start": 14.3075,
      "duration": 0.0856,
      "velocity": 99,
      "chip": "ym2612"
    },
    {
      "channel": 5,
      "note": 82,
      "start": 14.3087,
      "duration": 0.0855,
      "velocity": 99,
      "chip": "ym2612"
    },
    {
      "channel": 0,
      "note": 78,
      "start": 14.3907,
      "duration": 0.1493,
      "velocity": 67,
      "chip": "ym2612"
    },
    {
      "channel": 1,
      "note": 85,
      "start": 14.3916,
      "duration": 1.1994,
      "velocity": 87,
      "chip": "ym2612"
    },
    {
      "channel": 2,
      "note": 78,
      "start": 14.3926,
      "duration": 1.1994,
      "velocity": 87,
      "chip": "ym2612"
    },
    {
      "channel": 5,
      "note": 83,
      "start": 14.3943,
      "duration": 0.0635,
      "velocity": 99,
      "chip": "ym2612"
    },
    {
      "channel": 5,
      "note": 84,
      "start": 14.4579,
      "duration": 0.0837,
      "velocity": 99,
      "chip": "ym2612"
    },
    {
      "channel": 0,
      "note": 85,
      "start": 14.5401,
      "duration": 0.1499,
      "velocity": 67,
      "chip": "ym2612"
    },
    {
      "channel": 0,
      "note": 78,
      "start": 14.6901,
      "duration": 0.1498,
      "velocity": 67,
      "chip": "ym2612"
    },
    {
      "channel": 4,
      "note": 85,
      "start": 14.6918,
      "duration": 1.1999,
      "velocity": 87,
      "chip": "ym2612"
    },
    {
      "channel": 0,
      "note": 85,
      "start": 14.84,
      "duration": 0.1499,
      "velocity": 67,
      "chip": "ym2612"
    },
    {
      "channel": 0,
      "note": 78,
      "start": 14.99,
      "duration": 0.1499,
      "velocity": 67,
      "chip": "ym2612"
    },
    {
      "channel": 0,
      "note": 85,
      "start": 15.14,
      "duration": 0.1499,
      "velocity": 67,
      "chip": "ym2612"
    },
    {
      "channel": 0,
      "note": 78,
      "start": 15.2899,
      "duration": 0.15,
      "velocity": 67,
      "chip": "ym2612"
    },
    {
      "channel": 0,
      "note": 85,
      "start": 15.4399,
      "duration": 0.1502,
      "velocity": 67,
      "chip": "ym2612"
    },
    {
      "channel": 0,
      "note": 78,
      "start": 15.5902,
      "duration": 0.1496,
      "velocity": 67,
      "chip": "ym2612"
    },
    {
      "channel": 1,
      "note": 84,
      "start": 15.5912,
      "duration": 1.2,
      "velocity": 87,
      "chip": "ym2612"
    },
    {
      "channel": 2,
      "note": 74,
      "start": 15.5921,
      "duration": 1.2,
      "velocity": 87,
      "chip": "ym2612"
    },
    {
      "channel": 0,
      "note": 85,
      "start": 15.74,
      "duration": 0.15,
      "velocity": 67,
      "chip": "ym2612"
    },
    {
      "channel": 0,
      "note": 78,
      "start": 15.8901,
      "duration": 0.1497,
      "velocity": 67,
      "chip": "ym2612"
    },
    {
      "channel": 4,
      "note": 84,
      "start": 15.8918,
      "duration": 1.1999,
      "velocity": 87,
      "chip": "ym2612"
    },
    {
      "channel": 0,
      "note": 85,
      "start": 16.0399,
      "duration": 0.15,
      "velocity": 67,
      "chip": "ym2612"
    },
    {
      "channel": 0,
      "note": 78,
      "start": 16.19,
      "duration": 0.1498,
      "velocity": 67,
      "chip": "ym2612"
    },
    {
      "channel": 0,
      "note": 85,
      "start": 16.3399,
      "duration": 0.15,
      "velocity": 67,
      "chip": "ym2612"
    },
    {
      "channel": 0,
      "note": 78,
      "start": 16.49,
      "duration": 0.1499,
      "velocity": 67,
      "chip": "ym2612"
    },
    {
      "channel": 0,
      "note": 85,
      "start": 16.6399,
      "duration": 0.1503,
      "velocity": 67,
      "chip": "ym2612"
    },
    {
      "channel": 0,
      "note": 78,
      "start": 16.7903,
      "duration": 0.1496,
      "velocity": 67,
      "chip": "ym2612"
    },
    {
      "channel": 1,
      "note": 85,
      "start": 16.7913,
      "duration": 1.1998,
      "velocity": 87,
      "chip": "ym2612"
    },
    {
      "channel": 2,
      "note": 78,
      "start": 16.7922,
      "duration": 1.1998,
      "velocity": 87,
      "chip": "ym2612"
    },
    {
      "channel": 0,
      "note": 85,
      "start": 16.9401,
      "duration": 0.1499,
      "velocity": 67,
      "chip": "ym2612"
    },
    {
      "channel": 0,
      "note": 78,
      "start": 17.0901,
      "duration": 0.1497,
      "velocity": 67,
      "chip": "ym2612"
    },
    {
      "channel": 4,
      "note": 85,
      "start": 17.0918,
      "duration": 1.1999,
      "velocity": 87,
      "chip": "ym2612"
    },
    {
      "channel": 0,
      "note": 85,
      "start": 17.2399,
      "duration": 0.15,
      "velocity": 67,
      "chip": "ym2612"
    },
    {
      "channel": 0,
      "note": 78,
      "start": 17.39,
      "duration": 0.1498,
      "velocity": 67,
      "chip": "ym2612"
    },
    {
      "channel": 0,
      "note": 85,
      "start": 17.5399,
      "duration": 0.15,
      "velocity": 67,
      "chip": "ym2612"
    },
    {
      "channel": 0,
      "note": 78,
      "start": 17.69,
      "duration": 0.1499,
      "velocity": 67,
      "chip": "ym2612"
    },
    {
      "channel": 0,
      "note": 85,
      "start": 17.8399,
      "duration": 0.1502,
      "velocity": 67,
      "chip": "ym2612"
    },
    {
      "channel": 0,
      "note": 78,
      "start": 17.9902,
      "duration": 0.1496,
      "velocity": 67,
      "chip": "ym2612"
    },
    {
      "channel": 1,
      "note": 84,
      "start": 17.9912,
      "duration": 1.2,
      "velocity": 87,
      "chip": "ym2612"
    },
    {
      "channel": 2,
      "note": 75,
      "start": 17.9921,
      "duration": 1.2,
      "velocity": 87,
      "chip": "ym2612"
    },
    {
      "channel": 0,
      "note": 85,
      "start": 18.1399,
      "duration": 0.1501,
      "velocity": 67,
      "chip": "ym2612"
    },
    {
      "channel": 0,
      "note": 78,
      "start": 18.2901,
      "duration": 0.1497,
      "velocity": 67,
      "chip": "ym2612"
    },
    {
      "channel": 4,
      "note": 84,
      "start": 18.2918,
      "duration": 1.1999,
      "velocity": 87,
      "chip": "ym2612"
    },
    {
      "channel": 0,
      "note": 85,
      "start": 18.4399,
      "duration": 0.15,
      "velocity": 67,
      "chip": "ym2612"
    },
    {
      "channel": 0,
      "note": 78,
      "start": 18.59,
      "duration": 0.1498,
      "velocity": 67,
      "chip": "ym2612"
    },
    {
      "channel": 0,
      "note": 85,
      "start": 18.7399,
      "duration": 0.15,
      "velocity": 67,
      "chip": "ym2612"
    },
    {
      "channel": 0,
      "note": 78,
      "start": 18.89,
      "duration": 0.1499,
      "velocity": 67,
      "chip": "ym2612"
    },
    {
      "channel": 0,
      "note": 85,
      "start": 19.0399,
      "duration": 0.1503,
      "velocity": 67,
      "chip": "ym2612"
    },
    {
      "channel": 0,
      "note": 78,
      "start": 19.1903,
      "duration": 0.1496,
      "velocity": 67,
      "chip": "ym2612"
    },
    {
      "channel": 1,
      "note": 85,
      "start": 19.1913,
      "duration": 1.1998,
      "velocity": 87,
      "chip": "ym2612"
    },
    {
      "channel": 2,
      "note": 78,
      "start": 19.1922,
      "duration": 1.1998,
      "velocity": 87,
      "chip": "ym2612"
    },
    {
      "channel": 0,
      "note": 85,
      "start": 19.3401,
      "duration": 0.1499,
      "velocity": 67,
      "chip": "ym2612"
    },
    {
      "channel": 0,
      "note": 78,
      "start": 19.4901,
      "duration": 0.1497,
      "velocity": 67,
      "chip": "ym2612"
    },
    {
      "channel": 4,
      "note": 85,
      "start": 19.4918,
      "duration": 1.1999,
      "velocity": 87,
      "chip": "ym2612"
    },
    {
      "channel": 0,
      "note": 85,
      "start": 19.6399,
      "duration": 0.15,
      "velocity": 67,
      "chip": "ym2612"
    },
    {
      "channel": 0,
      "note": 78,
      "start": 19.79,
      "duration": 0.1498,
      "velocity": 67,
      "chip": "ym2612"
    },
    {
      "channel": 0,
      "note": 85,
      "start": 19.9399,
      "duration": 0.15,
      "velocity": 67,
      "chip": "ym2612"
    },
    {
      "channel": 0,
      "note": 78,
      "start": 20.09,
      "duration": 0.1499,
      "velocity": 67,
      "chip": "ym2612"
    },
    {
      "channel": 0,
      "note": 85,
      "start": 20.2399,
      "duration": 0.1502,
      "velocity": 67,
      "chip": "ym2612"
    },
    {
      "channel": 0,
      "note": 78,
      "start": 20.3902,
      "duration": 0.1496,
      "velocity": 67,
      "chip": "ym2612"
    },
    {
      "channel": 1,
      "note": 86,
      "start": 20.3912,
      "duration": 3.6033,
      "velocity": 103,
      "chip": "ym2612"
    },
    {
      "channel": 2,
      "note": 72,
      "start": 20.3921,
      "duration": 3.6033,
      "velocity": 87,
      "chip": "ym2612"
    },
    {
      "channel": 0,
      "note": 85,
      "start": 20.5399,
      "duration": 0.1501,
      "velocity": 67,
      "chip": "ym2612"
    },
    {
      "channel": 0,
      "note": 78,
      "start": 20.6901,
      "duration": 0.1497,
      "velocity": 67,
      "chip": "ym2612"
    },
    {
      "channel": 4,
      "note": 86,
      "start": 20.6918,
      "duration": 3.6031,
      "velocity": 103,
      "chip": "ym2612"
    },
    {
      "channel": 0,
      "note": 85,
      "start": 20.8399,
      "duration": 0.15,
      "velocity": 67,
      "chip": "ym2612"
    },
    {
      "channel": 0,
      "note": 78,
      "start": 20.99,
      "duration": 0.1498,
      "velocity": 67,
      "chip": "ym2612"
    },
    {
      "channel": 0,
      "note": 85,
      "start": 21.1399,
      "duration": 0.15,
      "velocity": 67,
      "chip": "ym2612"
    },
    {
      "channel": 0,
      "note": 78,
      "start": 21.29,
      "duration": 0.1499,
      "velocity": 67,
      "chip": "ym2612"
    },
    {
      "channel": 0,
      "note": 85,
      "start": 21.4399,
      "duration": 0.1503,
      "velocity": 67,
      "chip": "ym2612"
    },
    {
      "channel": 0,
      "note": 78,
      "start": 21.5902,
      "duration": 0.1497,
      "velocity": 67,
      "chip": "ym2612"
    },
    {
      "channel": 0,
      "note": 85,
      "start": 21.74,
      "duration": 0.1499,
      "velocity": 67,
      "chip": "ym2612"
    },
    {
      "channel": 0,
      "note": 78,
      "start": 21.89,
      "duration": 0.1498,
      "velocity": 67,
      "chip": "ym2612"
    },
    {
      "channel": 0,
      "note": 85,
      "start": 22.0399,
      "duration": 0.1499,
      "velocity": 67,
      "chip": "ym2612"
    },
    {
      "channel": 0,
      "note": 78,
      "start": 22.1899,
      "duration": 0.15,
      "velocity": 67,
      "chip": "ym2612"
    },
    {
      "channel": 0,
      "note": 85,
      "start": 22.3399,
      "duration": 0.1499,
      "velocity": 67,
      "chip": "ym2612"
    },
    {
      "channel": 0,
      "note": 78,
      "start": 22.4899,
      "duration": 0.1499,
      "velocity": 67,
      "chip": "ym2612"
    },
    {
      "channel": 0,
      "note": 85,
      "start": 22.6399,
      "duration": 0.15,
      "velocity": 67,
      "chip": "ym2612"
    },
    {
      "channel": 0,
      "note": 78,
      "start": 22.7899,
      "duration": 0.1499,
      "velocity": 67,
      "chip": "ym2612"
    },
    {
      "channel": 0,
      "note": 85,
      "start": 22.9399,
      "duration": 0.15,
      "velocity": 67,
      "chip": "ym2612"
    },
    {
      "channel": 0,
      "note": 78,
      "start": 23.0899,
      "duration": 0.1499,
      "velocity": 67,
      "chip": "ym2612"
    },
    {
      "channel": 0,
      "note": 85,
      "start": 23.2399,
      "duration": 0.1501,
      "velocity": 67,
      "chip": "ym2612"
    },
    {
      "channel": 0,
      "note": 78,
      "start": 23.3901,
      "duration": 0.1501,
      "velocity": 67,
      "chip": "ym2612"
    },
    {
      "channel": 3,
      "note": 77,
      "start": 23.3915,
      "duration": 0.0657,
      "velocity": 99,
      "chip": "ym2612"
    },
    {
      "channel": 3,
      "note": 78,
      "start": 23.4573,
      "duration": 0.0842,
      "velocity": 99,
      "chip": "ym2612"
    },
    {
      "channel": 0,
      "note": 85,
      "start": 23.5403,
      "duration": 0.1499,
      "velocity": 67,
      "chip": "ym2612"
    },
    {
      "channel": 3,
      "note": 79,
      "start": 23.5417,
      "duration": 0.0658,
      "velocity": 99,
      "chip": "ym2612"
    },
    {
      "channel": 5,
      "note": 77,
      "start": 23.5428,
      "duration": 0.0658,
      "velocity": 99,
      "chip": "ym2612"
    },
    {
      "channel": 3,
      "note": 80,
      "start": 23.6076,
      "duration": 0.084,
      "velocity": 99,
      "chip": "ym2612"
    },
    {
      "channel": 5,
      "note": 78,
      "start": 23.6087,
      "duration": 0.084,
      "velocity": 99,
      "chip": "ym2612"
    },
    {
      "channel": 0,
      "note": 78,
      "start": 23.6903,
      "duration": 0.1499,
      "velocity": 67,
      "chip": "ym2612"
    },
    {
      "channel": 3,
      "note": 81,
      "start": 23.6917,
      "duration": 0.0658,
      "velocity": 99,
      "chip": "ym2612"
    },
    {
      "channel": 5,
      "note": 79,
      "start": 23.6928,
      "duration": 0.0658,
      "velocity": 99,
      "chip": "ym2612"
    },
    {
      "channel": 3,
      "note": 82,
      "start": 23.7576,
      "duration": 0.084,
      "velocity": 99,
      "chip": "ym2612"
    },
    {
      "channel": 5,
      "note": 80,
      "start": 23.7587,
      "duration": 0.084,
      "velocity": 99,
      "chip": "ym2612"
    },
    {
      "channel": 0,
      "note": 85,
      "start": 23.8403,
      "duration": 0.1506,
      "velocity": 67,
      "chip": "ym2612"
    },
    {
      "channel": 3,
      "note": 83,
      "start": 23.8417,
      "duration": 0.0657,
      "velocity": 99,
      "chip": "ym2612"
    },
    {
      "channel": 5,
      "note": 81,
      "start": 23.8428,
      "duration": 0.0658,
      "velocity": 99,
      "chip": "ym2612"
    },
    {
      "channel": 3,
      "note": 84,
      "start": 23.9075,
      "duration": 0.0889,
      "velocity": 99,
      "chip": "ym2612"
    },
    {
      "channel": 5,
      "note": 82,
      "start": 23.9087,
      "duration": 0.0889,
      "velocity": 99,
      "chip": "ym2612"
    },
    {
      "channel": 0,
      "note": 78,
      "start": 23.991,
      "duration": 0.1492,
      "velocity": 67,
      "chip": "ym2612"
    },
    {
      "channel": 1,
      "note": 62,
      "start": 23.9946,
      "duration": 1.7965,
      "velocity": 103,
      "chip": "ym2612"
    },
    {
      "channel": 2,
      "note": 66,
      "start": 23.9956,
      "duration": 1.7965,
      "velocity": 87,
      "chip": "ym2612"
    },
    {
      "channel": 3,
      "note": 85,
      "start": 23.9965,
      "duration": 2.3969,
      "velocity": 99,
      "chip": "ym2612"
    },
    {
      "channel": 5,
      "note": 83,
      "start": 23.9977,
      "duration": 0.0603,
      "velocity": 99,
      "chip": "ym2612"
    },
    {
      "channel": 5,
      "note": 84,
      "start": 24.0582,
      "duration": 0.0841,
      "velocity": 99,
      "chip": "ym2612"
    },
    {
      "channel": 0,
      "note": 85,
      "start": 24.1403,
      "duration": 0.15,
      "velocity": 67,
      "chip": "ym2612"
    },
    {
      "channel": 5,
      "note": 85,
      "start": 24.1424,
      "duration": 2.3999,
      "velocity": 99,
      "chip": "ym2612"
    },
    {
      "channel": 0,
      "note": 78,
      "start": 24.2904,
      "duration": 0.1495,
      "velocity": 67,
      "chip": "ym2612"
    },
    {
      "channel": 4,
      "note": 62,
      "start": 24.2951,
      "duration": 1.7983,
      "velocity": 103,
      "chip": "ym2612"
    },
    {
      "channel": 0,
      "note": 85,
      "start": 24.44,
      "duration": 0.1499,
      "velocity": 67,
      "chip": "ym2612"
    },
    {
      "channel": 0,
      "note": 78,
      "start": 24.59,
      "duration": 0.1499,
      "velocity": 67,
      "chip": "ym2612"
    },
    {
      "channel": 0,
      "note": 85,
      "start": 24.74,
      "duration": 0.1499,
      "velocity": 67,
      "chip": "ym2612"
    },
    {
      "channel": 0,
      "note": 78,
      "start": 24.89,
      "duration": 0.1498,
      "velocity": 67,
      "chip": "ym2612"
    },
    {
      "channel": 0,
      "note": 85,
      "start": 25.04,
      "duration": 0.1499,
      "velocity": 67,
      "chip": "ym2612"
    },
    {
      "channel": 0,
      "note": 78,
      "start": 25.19,
      "duration": 0.1499,
      "velocity": 67,
      "chip": "ym2612"
    },
    {
      "channel": 0,
      "note": 85,
      "start": 25.34,
      "duration": 0.1499,
      "velocity": 67,
      "chip": "ym2612"
    },
    {
      "channel": 0,
      "note": 78,
      "start": 25.49,
      "duration": 0.1499,
      "velocity": 67,
      "chip": "ym2612"
    },
    {
      "channel": 0,
      "note": 85,
      "start": 25.64,
      "duration": 0.1502,
      "velocity": 67,
      "chip": "ym2612"
    },
    {
      "channel": 0,
      "note": 78,
      "start": 25.7902,
      "duration": 0.1496,
      "velocity": 67,
      "chip": "ym2612"
    },
    {
      "channel": 1,
      "note": 63,
      "start": 25.7912,
      "duration": 0.3,
      "velocity": 103,
      "chip": "ym2612"
    },
    {
      "channel": 2,
      "note": 67,
      "start": 25.7921,
      "duration": 0.3,
      "velocity": 87,
      "chip": "ym2612"
    },
    {
      "channel": 0,
      "note": 85,
      "start": 25.94,
      "duration": 0.1503,
      "velocity": 67,
      "chip": "ym2612"
    },
    {
      "channel": 0,
      "note": 78,
      "start": 26.0904,
      "duration": 0.1494,
      "velocity": 67,
      "chip": "ym2612"
    },
    {
      "channel": 1,
      "note": 62,
      "start": 26.0914,
      "duration": 0.3001,
      "velocity": 103,
      "chip": "ym2612"
    },
    {
      "channel": 2,
      "note": 66,
      "start": 26.0923,
      "duration": 0.3001,
      "velocity": 87,
      "chip": "ym2612"
    },
    {
      "channel": 4,
      "note": 63,
      "start": 26.0935,
      "duration": 0.3009,
      "velocity": 103,
      "chip": "ym2612"
    },
    {
      "channel": 0,
      "note": 85,
      "start": 26.24,
      "duration": 0.1506,
      "velocity": 67,
      "chip": "ym2612"
    },
    {
      "channel": 0,
      "note": 81,
      "start": 26.3907,
      "duration": 0.1494,
      "velocity": 67,
      "chip": "ym2612"
    },
    {
      "channel": 1,
      "note": 65,
      "start": 26.3916,
      "duration": 1.1994,
      "velocity": 103,
      "chip": "ym2612"
    },
    {
      "channel": 2,
      "note": 65,
      "start": 26.3926,
      "duration": 1.7995,
      "velocity": 87,
      "chip": "ym2612"
    },
    {
      "channel": 3,
      "note": 84,
      "start": 26.3935,
      "duration": 2.3997,
      "velocity": 99,
      "chip": "ym2612"
    },
    {
      "channel": 4,
      "note": 62,
      "start": 26.3945,
      "duration": 0.2975,
      "velocity": 103,
      "chip": "ym2612"
    },
    {
      "channel": 0,
      "note": 90,
      "start": 26.5402,
      "duration": 0.1499,
      "velocity": 67,
      "chip": "ym2612"
    },
    {
      "channel": 5,
      "note": 84,
      "start": 26.5424,
      "duration": 2.3999,
      "velocity": 99,
      "chip": "ym2612"
    },
    {
      "channel": 0,
      "note": 81,
      "start": 26.6902,
      "duration": 0.1497,
      "velocity": 67,
      "chip": "ym2612"
    },
    {
      "channel": 4,
      "note": 65,
      "start": 26.6921,
      "duration": 1.1997,
      "velocity": 103,
      "chip": "ym2612"
    },
    {
      "channel": 0,
      "note": 90,
      "start": 26.84,
      "duration": 0.1499,
      "velocity": 67,
      "chip": "ym2612"
    },
    {
      "channel": 0,
      "note": 81,
      "start": 26.99,
      "duration": 0.1499,
      "velocity": 67,
      "chip": "ym2612"
    },
    {
      "channel": 0,
      "note": 90,
      "start": 27.14,
      "duration": 0.1498,
      "velocity": 67,
      "chip": "ym2612"
    },
    {
      "channel": 0,
      "note": 81,
      "start": 27.29,
      "duration": 0.1499,
      "velocity": 67,
      "chip": "ym2612"
    },
    {
      "channel": 0,
      "note": 90,
      "start": 27.44,
      "duration": 0.1501,
      "velocity": 67,
      "chip": "ym2612"
    },
    {
      "channel": 0,
      "note": 81,
      "start": 27.5901,
      "duration": 0.1498,
      "velocity": 67,
      "chip": "ym2612"
    },
    {
      "channel": 1,
      "note": 64,
      "start": 27.591,
      "duration": 0.6001,
      "velocity": 103,
      "chip": "ym2612"
    },
    {
      "channel": 0,
      "note": 90,
      "start": 27.7399,
      "duration": 0.1501,
      "velocity": 67,
      "chip": "ym2612"
    },
    {
      "channel": 0,
      "note": 81,
      "start": 27.8902,
      "duration": 0.1497,
      "velocity": 67,
      "chip": "ym2612"
    },
    {
      "channel": 4,
      "note": 64,
      "start": 27.8919,
      "duration": 0.6007,
      "velocity": 103,
      "chip": "ym2612"
    },
    {
      "channel": 0,
      "note": 90,
      "start": 28.04,
      "duration": 0.1502,
      "velocity": 67,
      "chip": "ym2612"
    },
    {
      "channel": 0,
      "note": 81,
      "start": 28.1903,
      "duration": 0.1496,
      "velocity": 67,
      "chip": "ym2612"
    },
    {
      "channel": 1,
      "note": 63,
      "start": 28.1912,
      "duration": 0.6001,
      "velocity": 103,
      "chip": "ym2612"
    },
    {
      "channel": 2,
      "note": 64,
      "start": 28.1922,
      "duration": 0.2993,
      "velocity": 87,
      "chip": "ym2612"
    },
    {
      "channel": 0,
      "note": 90,
      "start": 28.34,
      "duration": 0.1502,
      "velocity": 67,
      "chip": "ym2612"
    },
    {
      "channel": 0,
      "note": 81,
      "start": 28.4903,
      "duration": 0.1496,
      "velocity": 67,
      "chip": "ym2612"
    },
    {
      "channel": 2,
      "note": 65,
      "start": 28.4915,
      "duration": 0.3007,
      "velocity": 87,
      "chip": "ym2612"
    },
    {
      "channel": 4,
      "note": 63,
      "start": 28.4927,
      "duration": 0.5993,
      "velocity": 103,
      "chip": "ym2612"
    },
    {
      "channel": 0,
      "note": 90,
      "start": 28.64,
      "duration": 0.1504,
      "velocity": 67,
      "chip": "ym2612"
    },
    {
      "channel": 0,
      "note": 81,
      "start": 28.7905,
      "duration": 0.1495,
      "velocity": 67,
      "chip": "ym2612"
    },
    {
      "channel": 1,
      "note": 72,
      "start": 28.7914,
      "duration": 1.1998,
      "velocity": 103,
      "chip": "ym2612"
    },
    {
      "channel": 2,
      "note": 66,
      "start": 28.7924,
      "duration": 0.5989,
      "velocity": 87,
      "chip": "ym2612"
    },
    {
      "channel": 3,
      "note": 87,
      "start": 28.7933,
      "duration": 2.399,
      "velocity": 99,
      "chip": "ym2612"
    },
    {
      "channel": 0,
      "note": 90,
      "start": 28.9402,
      "duration": 0.1499,
      "velocity": 67,
      "chip": "ym2612"
    },
    {
      "channel": 5,
      "note": 87,
      "start": 28.9424,
      "duration": 2.3997,
      "velocity": 99,
      "chip": "ym2612"
    },
    {
      "channel": 0,
      "note": 81,
      "start": 29.0902,
      "duration": 0.1497,
      "velocity": 67,
      "chip": "ym2612"
    },
    {
      "channel": 4,
      "note": 72,
      "start": 29.0921,
      "duration": 1.1997,
      "velocity": 103,
      "chip": "ym2612"
    },
    {
      "channel": 0,
      "note": 90,
      "start": 29.24,
      "duration": 0.15,
      "velocity": 67,
      "chip": "ym2612"
    },
    {
      "channel": 0,
      "note": 81,
      "start": 29.3902,
      "duration": 0.1497,
      "velocity": 67,
      "chip": "ym2612"
    },
    {
      "channel": 2,
      "note": 67,
      "start": 29.3914,
      "duration": 0.6007,
      "velocity": 87,
      "chip": "ym2612"
    },
    {
      "channel": 0,
      "note": 90,
      "start": 29.54,
      "duration": 0.1499,
      "velocity": 67,
      "chip": "ym2612"
    },
    {
      "channel": 0,
      "note": 81,
      "start": 29.69,
      "duration": 0.1499,
      "velocity": 67,
      "chip": "ym2612"
    },
    {
      "channel": 0,
      "note": 90,
      "start": 29.84,
      "duration": 0.1502,
      "velocity": 67,
      "chip": "ym2612"
    },
    {
      "channel": 0,
      "note": 85,
      "start": 29.9903,
      "duration": 0.1495,
      "velocity": 67,
      "chip": "ym2612"
    },
    {
      "channel": 1,
      "note": 73,
      "start": 29.9913,
      "duration": 1.1999,
      "velocity": 103,
      "chip": "ym2612"
    },
    {
      "channel": 2,
      "note": 73,
      "start": 29.9922,
      "duration": 1.799,
      "velocity": 87,
      "chip": "ym2612"
    },
    {
      "channel": 0,
      "note": 90,
      "start": 30.14,
      "duration": 0.1501,
      "velocity": 67,
      "chip": "ym2612"
    },
    {
      "channel": 0,
      "note": 85,
      "start": 30.2902,
      "duration": 0.1497,
      "velocity": 67,
      "chip": "ym2612"
    },
    {
      "channel": 4,
      "note": 73,
      "start": 30.2919,
      "duration": 1.1999,
      "velocity": 103,
      "chip": "ym2612"
    },
    {
      "channel": 0,
      "note": 90,
      "start": 30.44,
      "duration": 0.1499,
      "velocity": 67,
      "chip": "ym2612"
    },
    {
      "channel": 0,
      "note": 85,
      "start": 30.59,
      "duration": 0.1499,
      "velocity": 67,
      "chip": "ym2612"
    },
    {
      "channel": 0,
      "note": 90,
      "start": 30.74,
      "duration": 0.1499,
      "velocity": 67,
      "chip": "ym2612"
    },
    {
      "channel": 0,
      "note": 85,
      "start": 30.89,
      "duration": 0.1499,
      "velocity": 67,
      "chip": "ym2612"
    },
    {
      "channel": 0,
      "note": 90,
      "start": 31.04,
      "duration": 0.1503,
      "velocity": 67,
      "chip": "ym2612"
    },
    {
      "channel": 0,
      "note": 85,
      "start": 31.1903,
      "duration": 0.1497,
      "velocity": 67,
      "chip": "ym2612"
    },
    {
      "channel": 1,
      "note": 76,
      "start": 31.1913,
      "duration": 2.4029,
      "velocity": 87,
      "chip": "ym2612"
    },
    {
      "channel": 3,
      "note": 86,
      "start": 31.1925,
      "duration": 2.4033,
      "velocity": 99,
      "chip": "ym2612"
    },
    {
      "channel": 0,
      "note": 90,
      "start": 31.3402,
      "duration": 0.1499,
      "velocity": 67,
      "chip": "ym2612"
    },
    {
      "channel": 5,
      "note": 86,
      "start": 31.3422,
      "duration": 2.4009,
      "velocity": 99,
      "chip": "ym2612"
    },
    {
      "channel": 0,
      "note": 85,
      "start": 31.4902,
      "duration": 0.1497,
      "velocity": 67,
      "chip": "ym2612"
    },
    {
      "channel": 4,
      "note": 76,
      "start": 31.492,
      "duration": 2.4041,
      "velocity": 87,
      "chip": "ym2612"
    },
    {
      "channel": 0,
      "note": 90,
      "start": 31.64,
      "duration": 0.1501,
      "velocity": 67,
      "chip": "ym2612"
    },
    {
      "channel": 0,
      "note": 85,
      "start": 31.7902,
      "duration": 0.1497,
      "velocity": 67,
      "chip": "ym2612"
    },
    {
      "channel": 2,
      "note": 72,
      "start": 31.7914,
      "duration": 0.5998,
      "velocity": 87,
      "chip": "ym2612"
    },
    {
      "channel": 0,
      "note": 90,
      "start": 31.94,
      "duration": 0.1499,
      "velocity": 67,
      "chip": "ym2612"
    },
    {
      "channel": 0,
      "note": 85,
      "start": 32.09,
      "duration": 0.1499,
      "velocity": 67,
      "chip": "ym2612"
    },
    {
      "channel": 0,
      "note": 90,
      "start": 32.24,
      "duration": 0.1501,
      "velocity": 67,
      "chip": "ym2612"
    },
    {
      "channel": 0,
      "note": 85,
      "start": 32.3901,
      "duration": 0.1498,
      "velocity": 67,
      "chip": "ym2612"
    },
    {
      "channel": 2,
      "note": 76,
      "start": 32.3913,
      "duration": 0.5999,
      "velocity": 87,
      "chip": "ym2612"
    },
    {
      "channel": 0,
      "note": 90,
      "start": 32.5399,
      "duration": 0.15,
      "velocity": 67,
      "chip": "ym2612"
    },
    {
      "channel": 0,
      "note": 85,
      "start": 32.69,
      "duration": 0.1499,
      "velocity": 67,
      "chip": "ym2612"
    },
    {
      "channel": 0,
      "note": 90,
      "start": 32.84,
      "duration": 0.15,
      "velocity": 67,
      "chip": "ym2612"
    },
    {
      "channel": 0,
      "note": 85,
      "start": 32.9901,
      "duration": 0.1498,
      "velocity": 67,
      "chip": "ym2612"
    },
    {
      "channel": 2,
      "note": 75,
      "start": 32.9912,
      "duration": 0.6039,
      "velocity": 87,
      "chip": "ym2612"
    },
    {
      "channel": 0,
      "note": 90,
      "start": 33.14,
      "duration": 0.1499,
      "velocity": 67,
      "chip": "ym2612"
    },
    {
      "channel": 0,
      "note": 91,
      "start": 33.29,
      "duration": 0.1499,
      "velocity": 67,
      "chip": "ym2612"
    },
    {
      "channel": 0,
      "note": 90,
      "start": 33.4399,
      "duration": 0.1507,
      "velocity": 67,
      "chip": "ym2612"
    },
    {
      "channel": 0,
      "note": 90,
      "start": 33.5907,
      "duration": 0.0659,
      "velocity": 67,
      "chip": "ym2612"
    },
    {
      "channel": 1,
      "note": 85,
      "start": 33.5943,
      "duration": 0.1469,
      "velocity": 87,
      "chip": "ym2612"
    },
    {
      "channel": 2,
      "note": 78,
      "start": 33.5952,
      "duration": 0.0785,
      "velocity": 87,
      "chip": "ym2612"
    },
    {
      "channel": 0,
      "note": 97,
      "start": 33.6566,
      "duration": 0.0836,
      "velocity": 67,
      "chip": "ym2612"
    },
    {
      "channel": 2,
      "note": 79,
      "start": 33.6739,
      "duration": 0.0683,
      "velocity": 87,
      "chip": "ym2612"
    },
    {
      "channel": 0,
      "note": 90,
      "start": 33.7403,
      "duration": 0.0662,
      "velocity": 67,
      "chip": "ym2612"
    },
    {
      "channel": 1,
      "note": 86,
      "start": 33.7413,
      "duration": 0.1501,
      "velocity": 87,
      "chip": "ym2612"
    },
    {
      "channel": 2,
      "note": 80,
      "start": 33.7422,
      "duration": 0.0816,
      "velocity": 87,
      "chip": "ym2612"
    },
    {
      "channel": 0,
      "note": 97,
      "start": 33.8066,
      "duration": 0.0839,
      "velocity": 67,
      "chip": "ym2612"
    },
    {
      "channel": 2,
      "note": 81,
      "start": 33.8239,
      "duration": 0.0685,
      "velocity": 87,
      "chip": "ym2612"
    },
    {
      "channel": 0,
      "note": 90,
      "start": 33.8905,
      "duration": 0.066,
      "velocity": 67,
      "chip": "ym2612"
    },
    {
      "channel": 1,
      "note": 85,
      "start": 33.8915,
      "duration": 0.1497,
      "velocity": 87,
      "chip": "ym2612"
    },
    {
      "channel": 2,
      "note": 82,
      "start": 33.8924,
      "duration": 0.0814,
      "velocity": 87,
      "chip": "ym2612"
    },
    {
      "channel": 4,
      "note": 85,
      "start": 33.8962,
      "duration": 0.147,
      "velocity": 87,
      "chip": "ym2612"
    },
    {
      "channel": 0,
      "note": 97,
      "start": 33.9566,
      "duration": 0.0836,
      "velocity": 67,
      "chip": "ym2612"
    },
    {
      "channel": 2,
      "note": 83,
      "start": 33.9739,
      "duration": 0.0683,
      "velocity": 87,
      "chip": "ym2612"
    },
    {
      "channel": 0,
      "note": 90,
      "start": 34.0403,
      "duration": 0.0662,
      "velocity": 67,
      "chip": "ym2612"
    },
    {
      "channel": 1,
      "note": 84,
      "start": 34.0413,
      "duration": 0.1499,
      "velocity": 87,
      "chip": "ym2612"
    },
    {
      "channel": 2,
      "note": 84,
      "start": 34.0422,
      "duration": 0.0815,
      "velocity": 87,
      "chip": "ym2612"
    },
    {
      "channel": 4,
      "note": 86,
      "start": 34.0433,
      "duration": 0.1494,
      "velocity": 87,
      "chip": "ym2612"
    },
    {
      "channel": 0,
      "note": 97,
      "start": 34.1066,
      "duration": 0.0837,
      "velocity": 67,
      "chip": "ym2612"
    },
    {
      "channel": 2,
      "note": 85,
      "start": 34.1239,
      "duration": 0.0679,
      "velocity": 87,
      "chip": "ym2612"
    },
    {
      "channel": 0,
      "note": 90,
      "start": 34.1903,
      "duration": 0.0661,
      "velocity": 67,
      "chip": "ym2612"
    },
    {
      "channel": 1,
      "note": 85,
      "start": 34.1913,
      "duration": 0.2997,
      "velocity": 87,
      "chip": "ym2612"
    },
    {
      "channel": 4,
      "note": 85,
      "start": 34.1929,
      "duration": 0.1485,
      "velocity": 87,
      "chip": "ym2612"
    },
    {
      "channel": 0,
      "note": 97,
      "start": 34.2566,
      "duration": 0.0833,
      "velocity": 67,
      "chip": "ym2612"
    },
    {
      "channel": 0,
      "note": 90,
      "start": 34.34,
      "duration": 0.0664,
      "velocity": 67,
      "chip": "ym2612"
    },
    {
      "channel": 4,
      "note": 84,
      "start": 34.3415,
      "duration": 0.1507,
      "velocity": 87,
      "chip": "ym2612"
    },
    {
      "channel": 0,
      "note": 97,
      "start": 34.4066,
      "duration": 0.0835,
      "velocity": 67,
      "chip": "ym2612"
    },
    {
      "channel": 0,
      "note": 90,
      "start": 34.4902,
      "duration": 0.0663,
      "velocity": 67,
      "chip": "ym2612"
    },
    {
      "channel": 1,
      "note": 86,
      "start": 34.4911,
      "duration": 0.1494,
      "velocity": 87,
      "chip": "ym2612"
    },
    {
      "channel": 4,
      "note": 85,
      "start": 34.4922,
      "duration": 0.2989,
      "velocity": 87,
      "chip": "ym2612"
    },
    {
      "channel": 0,
      "note": 97,
      "start": 34.5566,
      "duration": 0.0833,
      "velocity": 67,
      "chip": "ym2612"
    },
    {
      "channel": 0,
      "note": 90,
      "start": 34.64,
      "duration": 0.0664,
      "velocity": 67,
      "chip": "ym2612"
    },
    {
      "channel": 0,
      "note": 97,
      "start": 34.7065,
      "duration": 0.0834,
      "velocity": 67,
      "chip": "ym2612"
    },
    {
      "channel": 0,
      "note": 90,
      "start": 34.79,
      "duration": 0.0663,
      "velocity": 67,
      "chip": "ym2612"
    },
    {
      "channel": 4,
      "note": 86,
      "start": 34.7913,
      "duration": 0.1495,
      "velocity": 87,
      "chip": "ym2612"
    },
    {
      "channel": 0,
      "note": 97,
      "start": 34.8565,
      "duration": 0.0833,
      "velocity": 67,
      "chip": "ym2612"
    },
    {
      "channel": 0,
      "note": 90,
      "start": 34.94,
      "duration": 0.0664,
      "velocity": 67,
      "chip": "ym2612"
    },
    {
      "channel": 0,
      "note": 97,
      "start": 35.0064,
      "duration": 0.0833,
      "velocity": 67,
      "chip": "ym2612"
    },
    {
      "channel": 0,
      "note": 90,
      "start": 35.0898,
      "duration": 0.0665,
      "velocity": 67,
      "chip": "ym2612"
    },
    {
      "channel": 0,
      "note": 97,
      "start": 35.1564,
      "duration": 0.0833,
      "velocity": 67,
      "chip": "ym2612"
    },
    {
      "channel": 0,
      "note": 90,
      "start": 35.2398,
      "duration": 0.0665,
      "velocity": 67,
      "chip": "ym2612"
    },
    {
      "channel": 0,
      "note": 97,
      "start": 35.3065,
      "duration": 0.0834,
      "velocity": 67,
      "chip": "ym2612"
    },
    {
      "channel": 0,
      "note": 90,
      "start": 35.3901,
      "duration": 0.0663,
      "velocity": 67,
      "chip": "ym2612"
    },
    {
      "channel": 3,
      "note": 78,
      "start": 35.3912,
      "duration": 0.1501,
      "velocity": 99,
      "chip": "ym2612"
    },
    {
      "channel": 0,
      "note": 97,
      "start": 35.4566,
      "duration": 0.0836,
      "velocity": 67,
      "chip": "ym2612"
    },
    {
      "channel": 0,
      "note": 90,
      "start": 35.5402,
      "duration": 0.0662,
      "velocity": 67,
      "chip": "ym2612"
    },
    {
      "channel": 3,
      "note": 73,
      "start": 35.5414,
      "duration": 0.1498,
      "velocity": 99,
      "chip": "ym2612"
    },
    {
      "channel": 5,
      "note": 78,
      "start": 35.5425,
      "duration": 0.1498,
      "velocity": 99,
      "chip": "ym2612"
    },
    {
      "channel": 0,
      "note": 97,
      "start": 35.6066,
      "duration": 0.0835,
      "velocity": 67,
      "chip": "ym2612"
    },
    {
      "channel": 0,
      "note": 90,
      "start": 35.6902,
      "duration": 0.0662,
      "velocity": 67,
      "chip": "ym2612"
    },
    {
      "channel": 3,
      "note": 85,
      "start": 35.6914,
      "duration": 0.1499,
      "velocity": 99,
      "chip": "ym2612"
    },
    {
      "channel": 5,
      "note": 73,
      "start": 35.6924,
      "duration": 0.1499,
      "velocity": 99,
      "chip": "ym2612"
    },
    {
      "channel": 0,
      "note": 97,
      "start": 35.7565,
      "duration": 0.0836,
      "velocity": 67,
      "chip": "ym2612"
    },
    {
      "channel": 0,
      "note": 90,
      "start": 35.8402,
      "duration": 0.0662,
      "velocity": 67,
      "chip": "ym2612"
    },
    {
      "channel": 3,
      "note": 84,
      "start": 35.8414,
      "duration": 0.1516,
      "velocity": 99,
      "chip": "ym2612"
    },
    {
      "channel": 5,
      "note": 85,
      "start": 35.8424,
      "duration": 0.1515,
      "velocity": 99,
      "chip": "ym2612"
    },
    {
      "channel": 0,
      "note": 97,
      "start": 35.9066,
      "duration": 0.0839,
      "velocity": 67,
      "chip": "ym2612"
    },
    {
      "channel": 0,
      "note": 97,
      "start": 35.9905,
      "duration": 0.066,
      "velocity": 67,
      "chip": "ym2612"
    },
    {
      "channel": 1,
      "note": 85,
      "start": 35.9915,
      "duration": 0.1497,
      "velocity": 87,
      "chip": "ym2612"
    },
    {
      "channel": 2,
      "note": 85,
      "start": 35.9924,
      "duration": 0.0814,
      "velocity": 87,
      "chip": "ym2612"
    },
    {
      "channel": 5,
      "note": 84,
      "start": 35.994,
      "duration": 0.1489,
      "velocity": 99,
      "chip": "ym2612"
    },
    {
      "channel": 0,
      "note": 90,
      "start": 36.0566,
      "duration": 0.0836,
      "velocity": 67,
      "chip": "ym2612"
    },
    {
      "channel": 2,
      "note": 84,
      "start": 36.0739,
      "duration": 0.0683,
      "velocity": 87,
      "chip": "ym2612"
    },
    {
      "channel": 0,
      "note": 97,
      "start": 36.1403,
      "duration": 0.0662,
      "velocity": 67,
      "chip": "ym2612"
    },
    {
      "channel": 1,
      "note": 87,
      "start": 36.1412,
      "duration": 0.15,
      "velocity": 87,
      "chip": "ym2612"
    },
    {
      "channel": 2,
      "note": 83,
      "start": 36.1422,
      "duration": 0.0816,
      "velocity": 87,
      "chip": "ym2612"
    },
    {
      "channel": 0,
      "note": 90,
      "start": 36.2065,
      "duration": 0.0838,
      "velocity": 67,
      "chip": "ym2612"
    },
    {
      "channel": 2,
      "note": 82,
      "start": 36.2239,
      "duration": 0.0683,
      "velocity": 87,
      "chip": "ym2612"
    },
    {
      "channel": 0,
      "note": 97,
      "start": 36.2904,
      "duration": 0.0661,
      "velocity": 67,
      "chip": "ym2612"
    },
    {
      "channel": 1,
      "note": 86,
      "start": 36.2914,
      "duration": 0.1499,
      "velocity": 87,
      "chip": "ym2612"
    },
    {
      "channel": 2,
      "note": 81,
      "start": 36.2923,
      "duration": 0.0815,
      "velocity": 87,
      "chip": "ym2612"
    },
    {
      "channel": 4,
      "note": 85,
      "start": 36.2933,
      "duration": 0.1499,
      "velocity": 87,
      "chip": "ym2612"
    },
    {
      "channel": 0,
      "note": 90,
      "start": 36.3566,
      "duration": 0.0837,
      "velocity": 67,
      "chip": "ym2612"
    },
    {
      "channel": 2,
      "note": 80,
      "start": 36.3739,
      "duration": 0.0683,
      "velocity": 87,
      "chip": "ym2612"
    },
    {
      "channel": 0,
      "note": 97,
      "start": 36.4403,
      "duration": 0.0662,
      "velocity": 67,
      "chip": "ym2612"
    },
    {
      "channel": 1,
      "note": 89,
      "start": 36.4413,
      "duration": 0.1499,
      "velocity": 87,
      "chip": "ym2612"
    },
    {
      "channel": 2,
      "note": 79,
      "start": 36.4422,
      "duration": 0.0816,
      "velocity": 87,
      "chip": "ym2612"
    },
    {
      "channel": 4,
      "note": 87,
      "start": 36.4433,
      "duration": 0.1494,
      "velocity": 87,
      "chip": "ym2612"
    },
    {
      "channel": 0,
      "note": 90,
      "start": 36.5066,
      "duration": 0.0836,
      "velocity": 67,
      "chip": "ym2612"
    },
    {
      "channel": 2,
      "note": 78,
      "start": 36.5239,
      "duration": 0.0679,
      "velocity": 87,
      "chip": "ym2612"
    },
    {
      "channel": 0,
      "note": 97,
      "start": 36.5903,
      "duration": 0.0661,
      "velocity": 67,
      "chip": "ym2612"
    },
    {
      "channel": 1,
      "note": 88,
      "start": 36.5913,
      "duration": 0.2997,
      "velocity": 87,
      "chip": "ym2612"
    },
    {
      "channel": 4,
      "note": 86,
      "start": 36.5929,
      "duration": 0.1485,
      "velocity": 87,
      "chip": "ym2612"
    },
    {
      "channel": 0,
      "note": 90,
      "start": 36.6566,
      "duration": 0.0833,
      "velocity": 67,
      "chip": "ym2612"
    },
    {
      "channel": 0,
      "note": 97,
      "start": 36.74,
      "duration": 0.0664,
      "velocity": 67,
      "chip": "ym2612"
    },
    {
      "channel": 4,
      "note": 89,
      "start": 36.7415,
      "duration": 0.1507,
      "velocity": 87,
      "chip": "ym2612"
    },
    {
      "channel": 0,
      "note": 90,
      "start": 36.8066,
      "duration": 0.0835,
      "velocity": 67,
      "chip": "ym2612"
    },
    {
      "channel": 0,
      "note": 97,
      "start": 36.8902,
      "duration": 0.0663,
      "velocity": 67,
      "chip": "ym2612"
    },
    {
      "channel": 1,
      "note": 87,
      "start": 36.8911,
      "duration": 0.1494,
      "velocity": 87,
      "chip": "ym2612"
    },
    {
      "channel": 4,
      "note": 88,
      "start": 36.8922,
      "duration": 0.2989,
      "velocity": 87,
      "chip": "ym2612"
    },
    {
      "channel": 0,
      "note": 90,
      "start": 36.9566,
      "duration": 0.0833,
      "velocity": 67,
      "chip": "ym2612"
    },
    {
      "channel": 0,
      "note": 97,
      "start": 37.04,
      "duration": 0.0664,
      "velocity": 67,
      "chip": "ym2612"
    },
    {
      "channel": 0,
      "note": 90,
      "start": 37.1065,
      "duration": 0.0833,
      "velocity": 67,
      "chip": "ym2612"
    },
    {
      "channel": 0,
      "note": 97,
      "start": 37.19,
      "duration": 0.0664,
      "velocity": 67,
      "chip": "ym2612"
    },
    {
      "channel": 4,
      "note": 87,
      "start": 37.1912,
      "duration": 0.1496,
      "velocity": 87,
      "chip": "ym2612"
    },
    {
      "channel": 0,
      "note": 90,
      "start": 37.2565,
      "duration": 0.0833,
      "velocity": 67,
      "chip": "ym2612"
    },
    {
      "channel": 0,
      "note": 97,
      "start": 37.34,
      "duration": 0.0664,
      "velocity": 67,
      "chip": "ym2612"
    },
    {
      "channel": 0,
      "note": 90,
      "start": 37.4064,
      "duration": 0.0833,
      "velocity": 67,
      "chip": "ym2612"
    },
    {
      "channel": 0,
      "note": 97,
      "start": 37.4898,
      "duration": 0.0665,
      "velocity": 67,
      "chip": "ym2612"
    },
    {
      "channel": 0,
      "note": 90,
      "start": 37.5565,
      "duration": 0.0832,
      "velocity": 67,
      "chip": "ym2612"
    },
    {
      "channel": 0,
      "note": 97,
      "start": 37.6398,
      "duration": 0.0665,
      "velocity": 67,
      "chip": "ym2612"
    },
    {
      "channel": 0,
      "note": 90,
      "start": 37.7064,
      "duration": 0.0834,
      "velocity": 67,
      "chip": "ym2612"
    },
    {
      "channel": 0,
      "note": 97,
      "start": 37.79,
      "duration": 0.0664,
      "velocity": 67,
      "chip": "ym2612"
    },
    {
      "channel": 3,
      "note": 73,
      "start": 37.7912,
      "duration": 0.1501,
      "velocity": 99,
      "chip": "ym2612"
    },
    {
      "channel": 0,
      "note": 90,
      "start": 37.8566,
      "duration": 0.0836,
      "velocity": 67,
      "chip": "ym2612"
    },
    {
      "channel": 0,
      "note": 97,
      "start": 37.9402,
      "duration": 0.0662,
      "velocity": 67,
      "chip": "ym2612"
    },
    {
      "channel": 3,
      "note": 78,
      "start": 37.9414,
      "duration": 0.1498,
      "velocity": 99,
      "chip": "ym2612"
    },
    {
      "channel": 5,
      "note": 73,
      "start": 37.9425,
      "duration": 0.1498,
      "velocity": 99,
      "chip": "ym2612"
    },
    {
      "channel": 0,
      "note": 90,
      "start": 38.0066,
      "duration": 0.0835,
      "velocity": 67,
      "chip": "ym2612"
    },
    {
      "channel": 0,
      "note": 97,
      "start": 38.0902,
      "duration": 0.0662,
      "velocity": 67,
      "chip": "ym2612"
    },
    {
      "channel": 3,
      "note": 85,
      "start": 38.0914,
      "duration": 0.1499,
      "velocity": 99,
      "chip": "ym2612"
    },
    {
      "channel": 5,
      "note": 78,
      "start": 38.0924,
      "duration": 0.1499,
      "velocity": 99,
      "chip": "ym2612"
    },
    {
      "channel": 0,
      "note": 90,
      "start": 38.1565,
      "duration": 0.0836,
      "velocity": 67,
      "chip": "ym2612"
    },
    {
      "channel": 0,
      "note": 97,
      "start": 38.2402,
      "duration": 0.0662,
      "velocity": 67,
      "chip": "ym2612"
    },
    {
      "channel": 3,
      "note": 84,
      "start": 38.2414,
      "duration": 0.1574,
      "velocity": 99,
      "chip": "ym2612"
    },
    {
      "channel": 5,
      "note": 85,
      "start": 38.2424,
      "duration": 0.1574,
      "velocity": 99,
      "chip": "ym2612"
    },
    {
      "channel": 0,
      "note": 90,
      "start": 38.3066,
      "duration": 0.0845,
      "velocity": 67,
      "chip": "ym2612"
    },
    {
      "channel": 0,
      "note": 78,
      "start": 38.3912,
      "duration": 0.1488,
      "velocity": 67,
      "chip": "ym2612"
    },
    {
      "channel": 1,
      "note": 85,
      "start": 38.3947,
      "duration": 1.1882,
      "velocity": 87,
      "chip": "ym2612"
    },
    {
      "channel": 2,
      "note": 78,
      "start": 38.3984,
      "duration": 1.1846,
      "velocity": 87,
      "chip": "ym2612"
    },
    {
      "channel": 5,
      "note": 84,
      "start": 38.4,
      "duration": 0.1415,
      "velocity": 99,
      "chip": "ym2612"
    },
    {
      "channel": 0,
      "note": 85,
      "start": 38.5401,
      "duration": 0.1501,
      "velocity": 67,
      "chip": "ym2612"
    },
    {
      "channel": 0,
      "note": 78,
      "start": 38.6903,
      "duration": 0.1494,
      "velocity": 67,
      "chip": "ym2612"
    },
    {
      "channel": 4,
      "note": 85,
      "start": 38.6947,
      "duration": 0.8882,
      "velocity": 87,
      "chip": "ym2612"
    },
    {
      "channel": 0,
      "note": 85,
      "start": 38.8399,
      "duration": 0.15,
      "velocity": 67,
      "chip": "ym2612"
    },
    {
      "channel": 0,
      "note": 78,
      "start": 38.99,
      "duration": 0.1498,
      "velocity": 67,
      "chip": "ym2612"
    },
    {
      "channel": 0,
      "note": 85,
      "start": 39.1399,
      "duration": 0.15,
      "velocity": 67,
      "chip": "ym2612"
    },
    {
      "channel": 0,
      "note": 78,
      "start": 39.2899,
      "duration": 0.1499,
      "velocity": 67,
      "chip": "ym2612"
    },
    {
      "channel": 0,
      "note": 85,
      "start": 39.4399,
      "duration": 0.1431,
      "velocity": 67,
      "chip": "ym2612"
    }
  ]
}