{
  "track_name": "17 - Great Sea Power",
  "duration_sec": 66.018,
  "sample_rate": 44100,
  "note_count": 1224,
  "unique_pitches": 33,
  "pitch_range": 64,
  "avg_note_duration": 0.2129,
  "reconstruction_stats": {
    "notes_reconstructed": 1224,
    "keyon_events": 1224,
    "keyoff_events": 1221,
    "orphan_keyons": 3,
    "unique_pitches": 33,
    "pitch_range": 64,
    "avg_duration_sec": 0.2129
  },
  "metadata": {
    "source": "T\\Thunder Force IV\\17 - Great Sea Power.vgz"
  },
  "notes": [
    {
      "channel": 0,
      "note": 64,
      "start": 0.0,
      "duration": 0.0329,
      "velocity": 108,
      "chip": "ym2612"
    },
    {
      "channel": 1,
      "note": 21,
      "start": 0.0,
      "duration": 0.0971,
      "velocity": 108,
      "chip": "ym2612"
    },
    {
      "channel": 3,
      "note": 61,
      "start": 0.0,
      "duration": 0.0,
      "velocity": 127,
      "chip": "ym2612"
    },
    {
      "channel": 2,
      "note": 49,
      "start": 0.002,
      "duration": 3.0441,
      "velocity": 108,
      "chip": "ym2612"
    },
    {
      "channel": 3,
      "note": 61,
      "start": 0.007,
      "duration": 0.0906,
      "velocity": 127,
      "chip": "ym2612"
    },
    {
      "channel": 4,
      "note": 64,
      "start": 0.0087,
      "duration": 0.0256,
      "velocity": 108,
      "chip": "ym2612"
    },
    {
      "channel": 5,
      "note": 61,
      "start": 0.0136,
      "duration": 0.0209,
      "velocity": 127,
      "chip": "ym2612"
    },
    {
      "channel": 0,
      "note": 49,
      "start": 0.1462,
      "duration": 3.0284,
      "velocity": 108,
      "chip": "ym2612"
    },
    {
      "channel": 1,
      "note": 49,
      "start": 0.148,
      "duration": 0.0137,
      "velocity": 108,
      "chip": "ym2612"
    },
    {
      "channel": 5,
      "note": 61,
      "start": 0.1504,
      "duration": 0.0123,
      "velocity": 127,
      "chip": "ym2612"
    },
    {
      "channel": 4,
      "note": 49,
      "start": 0.211,
      "duration": 3.03,
      "velocity": 108,
      "chip": "ym2612"
    },
    {
      "channel": 1,
      "note": 49,
      "start": 0.2695,
      "duration": 0.0212,
      "velocity": 108,
      "chip": "ym2612"
    },
    {
      "channel": 3,
      "note": 61,
      "start": 0.2718,
      "duration": 0.0821,
      "velocity": 127,
      "chip": "ym2612"
    },
    {
      "channel": 5,
      "note": 61,
      "start": 0.2744,
      "duration": 0.0797,
      "velocity": 127,
      "chip": "ym2612"
    },
    {
      "channel": 1,
      "note": 49,
      "start": 0.3987,
      "duration": 0.083,
      "velocity": 108,
      "chip": "ym2612"
    },
    {
      "channel": 3,
      "note": 61,
      "start": 0.401,
      "duration": 0.0812,
      "velocity": 127,
      "chip": "ym2612"
    },
    {
      "channel": 5,
      "note": 61,
      "start": 0.4027,
      "duration": 0.0162,
      "velocity": 127,
      "chip": "ym2612"
    },
    {
      "channel": 1,
      "note": 61,
      "start": 0.526,
      "duration": 0.2122,
      "velocity": 108,
      "chip": "ym2612"
    },
    {
      "channel": 3,
      "note": 61,
      "start": 0.5314,
      "duration": 0.0788,
      "velocity": 127,
      "chip": "ym2612"
    },
    {
      "channel": 5,
      "note": 61,
      "start": 0.5332,
      "duration": 0.0773,
      "velocity": 127,
      "chip": "ym2612"
    },
    {
      "channel": 5,
      "note": 61,
      "start": 0.6574,
      "duration": 0.0181,
      "velocity": 127,
      "chip": "ym2612"
    },
    {
      "channel": 1,
      "note": 64,
      "start": 0.7824,
      "duration": 0.0202,
      "velocity": 108,
      "chip": "ym2612"
    },
    {
      "channel": 3,
      "note": 61,
      "start": 0.7879,
      "duration": 0.079,
      "velocity": 127,
      "chip": "ym2612"
    },
    {
      "channel": 5,
      "note": 61,
      "start": 0.7905,
      "duration": 0.0132,
      "velocity": 127,
      "chip": "ym2612"
    },
    {
      "channel": 5,
      "note": 61,
      "start": 0.8469,
      "duration": 0.0203,
      "velocity": 127,
      "chip": "ym2612"
    },
    {
      "channel": 1,
      "note": 59,
      "start": 0.9106,
      "duration": 0.2122,
      "velocity": 108,
      "chip": "ym2612"
    },
    {
      "channel": 3,
      "note": 61,
      "start": 0.9128,
      "duration": 0.0821,
      "velocity": 127,
      "chip": "ym2612"
    },
    {
      "channel": 5,
      "note": 61,
      "start": 0.9146,
      "duration": 0.0172,
      "velocity": 127,
      "chip": "ym2612"
    },
    {
      "channel": 5,
      "note": 61,
      "start": 0.976,
      "duration": 0.0192,
      "velocity": 127,
      "chip": "ym2612"
    },
    {
      "channel": 5,
      "note": 61,
      "start": 1.0421,
      "duration": 0.0826,
      "velocity": 127,
      "chip": "ym2612"
    },
    {
      "channel": 1,
      "note": 61,
      "start": 1.1678,
      "duration": 0.0195,
      "velocity": 108,
      "chip": "ym2612"
    },
    {
      "channel": 3,
      "note": 61,
      "start": 1.17,
      "duration": 0.0812,
      "velocity": 127,
      "chip": "ym2612"
    },
    {
      "channel": 5,
      "note": 61,
      "start": 1.1718,
      "duration": 0.0165,
      "velocity": 127,
      "chip": "ym2612"
    },
    {
      "channel": 1,
      "note": 56,
      "start": 1.2952,
      "duration": 0.0203,
      "velocity": 108,
      "chip": "ym2612"
    },
    {
      "channel": 3,
      "note": 61,
      "start": 1.2974,
      "duration": 0.0821,
      "velocity": 127,
      "chip": "ym2612"
    },
    {
      "channel": 5,
      "note": 61,
      "start": 1.2992,
      "duration": 0.0173,
      "velocity": 127,
      "chip": "ym2612"
    },
    {
      "channel": 5,
      "note": 61,
      "start": 1.3597,
      "duration": 0.0201,
      "velocity": 127,
      "chip": "ym2612"
    },
    {
      "channel": 1,
      "note": 56,
      "start": 1.4242,
      "duration": 0.2113,
      "velocity": 108,
      "chip": "ym2612"
    },
    {
      "channel": 5,
      "note": 61,
      "start": 1.4267,
      "duration": 0.2095,
      "velocity": 127,
      "chip": "ym2612"
    },
    {
      "channel": 3,
      "note": 61,
      "start": 1.5578,
      "duration": 0.0782,
      "velocity": 127,
      "chip": "ym2612"
    },
    {
      "channel": 1,
      "note": 71,
      "start": 1.6798,
      "duration": 0.084,
      "velocity": 108,
      "chip": "ym2612"
    },
    {
      "channel": 5,
      "note": 61,
      "start": 1.6823,
      "duration": 0.0198,
      "velocity": 127,
      "chip": "ym2612"
    },
    {
      "channel": 1,
      "note": 49,
      "start": 1.8089,
      "duration": 0.2113,
      "velocity": 108,
      "chip": "ym2612"
    },
    {
      "channel": 5,
      "note": 61,
      "start": 1.8113,
      "duration": 0.0179,
      "velocity": 127,
      "chip": "ym2612"
    },
    {
      "channel": 3,
      "note": 61,
      "start": 1.943,
      "duration": 0.0776,
      "velocity": 127,
      "chip": "ym2612"
    },
    {
      "channel": 5,
      "note": 61,
      "start": 1.9448,
      "duration": 0.0761,
      "velocity": 127,
      "chip": "ym2612"
    },
    {
      "channel": 1,
      "note": 68,
      "start": 2.0648,
      "duration": 0.0837,
      "velocity": 108,
      "chip": "ym2612"
    },
    {
      "channel": 3,
      "note": 61,
      "start": 2.0718,
      "duration": 0.077,
      "velocity": 127,
      "chip": "ym2612"
    },
    {
      "channel": 5,
      "note": 61,
      "start": 2.0778,
      "duration": 0.0078,
      "velocity": 127,
      "chip": "ym2612"
    },
    {
      "channel": 1,
      "note": 49,
      "start": 2.1941,
      "duration": 0.0188,
      "velocity": 108,
      "chip": "ym2612"
    },
    {
      "channel": 5,
      "note": 61,
      "start": 2.1966,
      "duration": 0.0174,
      "velocity": 127,
      "chip": "ym2612"
    },
    {
      "channel": 1,
      "note": 49,
      "start": 2.3209,
      "duration": 0.084,
      "velocity": 108,
      "chip": "ym2612"
    },
    {
      "channel": 3,
      "note": 61,
      "start": 2.3239,
      "duration": 0.0813,
      "velocity": 127,
      "chip": "ym2612"
    },
    {
      "channel": 5,
      "note": 61,
      "start": 2.3257,
      "duration": 0.0798,
      "velocity": 127,
      "chip": "ym2612"
    },
    {
      "channel": 1,
      "note": 59,
      "start": 2.449,
      "duration": 0.0211,
      "velocity": 108,
      "chip": "ym2612"
    },
    {
      "channel": 3,
      "note": 61,
      "start": 2.4513,
      "duration": 0.0821,
      "velocity": 127,
      "chip": "ym2612"
    },
    {
      "channel": 5,
      "note": 61,
      "start": 2.4531,
      "duration": 0.0181,
      "velocity": 127,
      "chip": "ym2612"
    },
    {
      "channel": 1,
      "note": 49,
      "start": 2.5773,
      "duration": 0.084,
      "velocity": 108,
      "chip": "ym2612"
    },
    {
      "channel": 3,
      "note": 61,
      "start": 2.5827,
      "duration": 0.079,
      "velocity": 127,
      "chip": "ym2612"
    },
    {
      "channel": 5,
      "note": 61,
      "start": 2.5845,
      "duration": 0.0774,
      "velocity": 127,
      "chip": "ym2612"
    },
    {
      "channel": 1,
      "note": 61,
      "start": 2.7058,
      "duration": 0.02,
      "velocity": 108,
      "chip": "ym2612"
    },
    {
      "channel": 5,
      "note": 61,
      "start": 2.7091,
      "duration": 0.0176,
      "velocity": 127,
      "chip": "ym2612"
    },
    {
      "channel": 1,
      "note": 49,
      "start": 2.8337,
      "duration": 0.0839,
      "velocity": 108,
      "chip": "ym2612"
    },
    {
      "channel": 3,
      "note": 61,
      "start": 2.8391,
      "duration": 0.0789,
      "velocity": 127,
      "chip": "ym2612"
    },
    {
      "channel": 5,
      "note": 61,
      "start": 2.8417,
      "duration": 0.0131,
      "velocity": 127,
      "chip": "ym2612"
    },
    {
      "channel": 5,
      "note": 61,
      "start": 2.8982,
      "duration": 0.0202,
      "velocity": 127,
      "chip": "ym2612"
    },
    {
      "channel": 1,
      "note": 64,
      "start": 2.9619,
      "duration": 0.084,
      "velocity": 108,
      "chip": "ym2612"
    },
    {
      "channel": 3,
      "note": 61,
      "start": 2.9641,
      "duration": 0.0822,
      "velocity": 127,
      "chip": "ym2612"
    },
    {
      "channel": 5,
      "note": 61,
      "start": 2.9659,
      "duration": 0.0172,
      "velocity": 127,
      "chip": "ym2612"
    },
    {
      "channel": 5,
      "note": 61,
      "start": 3.0264,
      "duration": 0.0203,
      "velocity": 127,
      "chip": "ym2612"
    },
    {
      "channel": 1,
      "note": 66,
      "start": 3.091,
      "duration": 0.2113,
      "velocity": 108,
      "chip": "ym2612"
    },
    {
      "channel": 2,
      "note": 49,
      "start": 3.0926,
      "duration": 0.4662,
      "velocity": 108,
      "chip": "ym2612"
    },
    {
      "channel": 5,
      "note": 61,
      "start": 3.095,
      "duration": 0.0807,
      "velocity": 127,
      "chip": "ym2612"
    },
    {
      "channel": 0,
      "note": 49,
      "start": 3.2183,
      "duration": 0.4685,
      "velocity": 108,
      "chip": "ym2612"
    },
    {
      "channel": 3,
      "note": 61,
      "start": 3.2221,
      "duration": 0.0806,
      "velocity": 127,
      "chip": "ym2612"
    },
    {
      "channel": 5,
      "note": 61,
      "start": 3.2248,
      "duration": 0.0165,
      "velocity": 127,
      "chip": "ym2612"
    },
    {
      "channel": 4,
      "note": 49,
      "start": 3.2828,
      "duration": 0.4695,
      "velocity": 108,
      "chip": "ym2612"
    },
    {
      "channel": 1,
      "note": 49,
      "start": 3.3465,
      "duration": 0.084,
      "velocity": 108,
      "chip": "ym2612"
    },
    {
      "channel": 3,
      "note": 61,
      "start": 3.3487,
      "duration": 0.0822,
      "velocity": 127,
      "chip": "ym2612"
    },
    {
      "channel": 5,
      "note": 61,
      "start": 3.3505,
      "duration": 0.0172,
      "velocity": 127,
      "chip": "ym2612"
    },
    {
      "channel": 5,
      "note": 61,
      "start": 3.411,
      "duration": 0.0202,
      "velocity": 127,
      "chip": "ym2612"
    },
    {
      "channel": 1,
      "note": 66,
      "start": 3.4758,
      "duration": 0.0192,
      "velocity": 108,
      "chip": "ym2612"
    },
    {
      "channel": 5,
      "note": 61,
      "start": 3.4783,
      "duration": 0.2093,
      "velocity": 127,
      "chip": "ym2612"
    },
    {
      "channel": 1,
      "note": 56,
      "start": 3.6029,
      "duration": 0.2122,
      "velocity": 108,
      "chip": "ym2612"
    },
    {
      "channel": 2,
      "note": 47,
      "start": 3.6046,
      "duration": 0.3389,
      "velocity": 108,
      "chip": "ym2612"
    },
    {
      "channel": 3,
      "note": 61,
      "start": 3.6107,
      "duration": 0.0765,
      "velocity": 127,
      "chip": "ym2612"
    },
    {
      "channel": 0,
      "note": 47,
      "start": 3.731,
      "duration": 0.3403,
      "velocity": 108,
      "chip": "ym2612"
    },
    {
      "channel": 5,
      "note": 61,
      "start": 3.7351,
      "duration": 0.0173,
      "velocity": 127,
      "chip": "ym2612"
    },
    {
      "channel": 4,
      "note": 47,
      "start": 3.796,
      "duration": 0.3627,
      "velocity": 108,
      "chip": "ym2612"
    },
    {
      "channel": 1,
      "note": 56,
      "start": 3.8594,
      "duration": 0.084,
      "velocity": 108,
      "chip": "ym2612"
    },
    {
      "channel": 5,
      "note": 61,
      "start": 3.8617,
      "duration": 0.0188,
      "velocity": 127,
      "chip": "ym2612"
    },
    {
      "channel": 1,
      "note": 64,
      "start": 3.9876,
      "duration": 0.1288,
      "velocity": 108,
      "chip": "ym2612"
    },
    {
      "channel": 2,
      "note": 50,
      "start": 3.9893,
      "duration": 3.1808,
      "velocity": 108,
      "chip": "ym2612"
    },
    {
      "channel": 3,
      "note": 61,
      "start": 3.9954,
      "duration": 0.0766,
      "velocity": 127,
      "chip": "ym2612"
    },
    {
      "channel": 5,
      "note": 61,
      "start": 3.9971,
      "duration": 0.0751,
      "velocity": 127,
      "chip": "ym2612"
    },
    {
      "channel": 0,
      "note": 50,
      "start": 4.1157,
      "duration": 3.1822,
      "velocity": 108,
      "chip": "ym2612"
    },
    {
      "channel": 3,
      "note": 61,
      "start": 4.129,
      "duration": 0.0925,
      "velocity": 127,
      "chip": "ym2612"
    },
    {
      "channel": 5,
      "note": 61,
      "start": 4.1342,
      "duration": 0.0246,
      "velocity": 127,
      "chip": "ym2612"
    },
    {
      "channel": 4,
      "note": 50,
      "start": 4.2015,
      "duration": 3.1618,
      "velocity": 108,
      "chip": "ym2612"
    },
    {
      "channel": 1,
      "note": 49,
      "start": 4.2671,
      "duration": 0.0185,
      "velocity": 108,
      "chip": "ym2612"
    },
    {
      "channel": 5,
      "note": 61,
      "start": 4.2696,
      "duration": 0.017,
      "velocity": 127,
      "chip": "ym2612"
    },
    {
      "channel": 1,
      "note": 49,
      "start": 4.3935,
      "duration": 0.0204,
      "velocity": 108,
      "chip": "ym2612"
    },
    {
      "channel": 3,
      "note": 61,
      "start": 4.3957,
      "duration": 0.0821,
      "velocity": 127,
      "chip": "ym2612"
    },
    {
      "channel": 5,
      "note": 61,
      "start": 4.3975,
      "duration": 0.0806,
      "velocity": 127,
      "chip": "ym2612"
    },
    {
      "channel": 1,
      "note": 49,
      "start": 4.5218,
      "duration": 0.084,
      "velocity": 108,
      "chip": "ym2612"
    },
    {
      "channel": 3,
      "note": 61,
      "start": 4.5248,
      "duration": 0.0813,
      "velocity": 127,
      "chip": "ym2612"
    },
    {
      "channel": 5,
      "note": 61,
      "start": 4.5266,
      "duration": 0.017,
      "velocity": 127,
      "chip": "ym2612"
    },
    {
      "channel": 1,
      "note": 61,
      "start": 4.65,
      "duration": 0.2121,
      "velocity": 108,
      "chip": "ym2612"
    },
    {
      "channel": 3,
      "note": 61,
      "start": 4.6554,
      "duration": 0.0789,
      "velocity": 127,
      "chip": "ym2612"
    },
    {
      "channel": 5,
      "note": 61,
      "start": 4.658,
      "duration": 0.0766,
      "velocity": 127,
      "chip": "ym2612"
    },
    {
      "channel": 5,
      "note": 61,
      "start": 4.7807,
      "duration": 0.0186,
      "velocity": 127,
      "chip": "ym2612"
    },
    {
      "channel": 1,
      "note": 64,
      "start": 4.9072,
      "duration": 0.0195,
      "velocity": 108,
      "chip": "ym2612"
    },
    {
      "channel": 3,
      "note": 61,
      "start": 4.9126,
      "duration": 0.0784,
      "velocity": 127,
      "chip": "ym2612"
    },
    {
      "channel": 5,
      "note": 61,
      "start": 4.9144,
      "duration": 0.0133,
      "velocity": 127,
      "chip": "ym2612"
    },
    {
      "channel": 5,
      "note": 61,
      "start": 4.9709,
      "duration": 0.0205,
      "velocity": 127,
      "chip": "ym2612"
    },
    {
      "channel": 1,
      "note": 59,
      "start": 5.0346,
      "duration": 0.2122,
      "velocity": 108,
      "chip": "ym2612"
    },
    {
      "channel": 3,
      "note": 61,
      "start": 5.0368,
      "duration": 0.0821,
      "velocity": 127,
      "chip": "ym2612"
    },
    {
      "channel": 5,
      "note": 61,
      "start": 5.0385,
      "duration": 0.0173,
      "velocity": 127,
      "chip": "ym2612"
    },
    {
      "channel": 5,
      "note": 61,
      "start": 5.099,
      "duration": 0.0201,
      "velocity": 127,
      "chip": "ym2612"
    },
    {
      "channel": 5,
      "note": 61,
      "start": 5.1651,
      "duration": 0.0825,
      "velocity": 127,
      "chip": "ym2612"
    },
    {
      "channel": 1,
      "note": 61,
      "start": 5.2919,
      "duration": 0.0201,
      "velocity": 108,
      "chip": "ym2612"
    },
    {
      "channel": 3,
      "note": 61,
      "start": 5.294,
      "duration": 0.0812,
      "velocity": 127,
      "chip": "ym2612"
    },
    {
      "channel": 5,
      "note": 61,
      "start": 5.2959,
      "duration": 0.0171,
      "velocity": 127,
      "chip": "ym2612"
    },
    {
      "channel": 1,
      "note": 56,
      "start": 5.4192,
      "duration": 0.0204,
      "velocity": 108,
      "chip": "ym2612"
    },
    {
      "channel": 3,
      "note": 61,
      "start": 5.4214,
      "duration": 0.0821,
      "velocity": 127,
      "chip": "ym2612"
    },
    {
      "channel": 5,
      "note": 61,
      "start": 5.424,
      "duration": 0.0174,
      "velocity": 127,
      "chip": "ym2612"
    },
    {
      "channel": 5,
      "note": 61,
      "start": 5.4837,
      "duration": 0.0201,
      "velocity": 127,
      "chip": "ym2612"
    },
    {
      "channel": 1,
      "note": 56,
      "start": 5.5476,
      "duration": 0.212,
      "velocity": 108,
      "chip": "ym2612"
    },
    {
      "channel": 5,
      "note": 61,
      "start": 5.55,
      "duration": 0.2102,
      "velocity": 127,
      "chip": "ym2612"
    },
    {
      "channel": 3,
      "note": 61,
      "start": 5.6809,
      "duration": 0.0791,
      "velocity": 127,
      "chip": "ym2612"
    },
    {
      "channel": 1,
      "note": 71,
      "start": 5.8038,
      "duration": 0.084,
      "velocity": 108,
      "chip": "ym2612"
    },
    {
      "channel": 5,
      "note": 61,
      "start": 5.807,
      "duration": 0.0183,
      "velocity": 127,
      "chip": "ym2612"
    },
    {
      "channel": 1,
      "note": 49,
      "start": 5.9321,
      "duration": 0.2122,
      "velocity": 108,
      "chip": "ym2612"
    },
    {
      "channel": 5,
      "note": 61,
      "start": 5.9344,
      "duration": 0.0187,
      "velocity": 127,
      "chip": "ym2612"
    },
    {
      "channel": 3,
      "note": 61,
      "start": 6.0655,
      "duration": 0.0791,
      "velocity": 127,
      "chip": "ym2612"
    },
    {
      "channel": 5,
      "note": 61,
      "start": 6.0673,
      "duration": 0.0776,
      "velocity": 127,
      "chip": "ym2612"
    },
    {
      "channel": 1,
      "note": 68,
      "start": 6.1888,
      "duration": 0.2118,
      "velocity": 108,
      "chip": "ym2612"
    },
    {
      "channel": 3,
      "note": 61,
      "start": 6.1966,
      "duration": 0.0761,
      "velocity": 127,
      "chip": "ym2612"
    },
    {
      "channel": 5,
      "note": 61,
      "start": 6.2018,
      "duration": 0.0078,
      "velocity": 127,
      "chip": "ym2612"
    },
    {
      "channel": 5,
      "note": 61,
      "start": 6.3206,
      "duration": 0.0172,
      "velocity": 127,
      "chip": "ym2612"
    },
    {
      "channel": 1,
      "note": 64,
      "start": 6.4449,
      "duration": 0.0203,
      "velocity": 108,
      "chip": "ym2612"
    },
    {
      "channel": 3,
      "note": 61,
      "start": 6.4471,
      "duration": 0.0821,
      "velocity": 127,
      "chip": "ym2612"
    },
    {
      "channel": 5,
      "note": 61,
      "start": 6.4489,
      "duration": 0.0805,
      "velocity": 127,
      "chip": "ym2612"
    },
    {
      "channel": 1,
      "note": 59,
      "start": 6.5739,
      "duration": 0.2114,
      "velocity": 108,
      "chip": "ym2612"
    },
    {
      "channel": 3,
      "note": 61,
      "start": 6.5761,
      "duration": 0.0816,
      "velocity": 127,
      "chip": "ym2612"
    },
    {
      "channel": 5,
      "note": 61,
      "start": 6.5779,
      "duration": 0.0164,
      "velocity": 127,
      "chip": "ym2612"
    },
    {
      "channel": 3,
      "note": 61,
      "start": 6.7074,
      "duration": 0.0782,
      "velocity": 127,
      "chip": "ym2612"
    },
    {
      "channel": 5,
      "note": 61,
      "start": 6.7092,
      "duration": 0.0767,
      "velocity": 127,
      "chip": "ym2612"
    },
    {
      "channel": 1,
      "note": 66,
      "start": 6.8295,
      "duration": 0.0207,
      "velocity": 108,
      "chip": "ym2612"
    },
    {
      "channel": 5,
      "note": 61,
      "start": 6.832,
      "duration": 0.0191,
      "velocity": 127,
      "chip": "ym2612"
    },
    {
      "channel": 1,
      "note": 61,
      "start": 6.9585,
      "duration": 0.2113,
      "velocity": 108,
      "chip": "ym2612"
    },
    {
      "channel": 3,
      "note": 61,
      "start": 6.9639,
      "duration": 0.078,
      "velocity": 127,
      "chip": "ym2612"
    },
    {
      "channel": 5,
      "note": 61,
      "start": 6.9657,
      "duration": 0.0131,
      "velocity": 127,
      "chip": "ym2612"
    },
    {
      "channel": 5,
      "note": 61,
      "start": 7.0222,
      "duration": 0.0201,
      "velocity": 127,
      "chip": "ym2612"
    },
    {
      "channel": 3,
      "note": 61,
      "start": 7.088,
      "duration": 0.0824,
      "velocity": 127,
      "chip": "ym2612"
    },
    {
      "channel": 5,
      "note": 61,
      "start": 7.0906,
      "duration": 0.0173,
      "velocity": 127,
      "chip": "ym2612"
    },
    {
      "channel": 5,
      "note": 61,
      "start": 7.1512,
      "duration": 0.0195,
      "velocity": 127,
      "chip": "ym2612"
    },
    {
      "channel": 1,
      "note": 49,
      "start": 7.2141,
      "duration": 0.0204,
      "velocity": 108,
      "chip": "ym2612"
    },
    {
      "channel": 2,
      "note": 52,
      "start": 7.2158,
      "duration": 0.4671,
      "velocity": 108,
      "chip": "ym2612"
    },
    {
      "channel": 5,
      "note": 61,
      "start": 7.2181,
      "duration": 0.0808,
      "velocity": 127,
      "chip": "ym2612"
    },
    {
      "channel": 0,
      "note": 52,
      "start": 7.3422,
      "duration": 0.4685,
      "velocity": 108,
      "chip": "ym2612"
    },
    {
      "channel": 1,
      "note": 49,
      "start": 7.344,
      "duration": 0.0823,
      "velocity": 108,
      "chip": "ym2612"
    },
    {
      "channel": 3,
      "note": 61,
      "start": 7.3462,
      "duration": 0.0805,
      "velocity": 127,
      "chip": "ym2612"
    },
    {
      "channel": 5,
      "note": 61,
      "start": 7.348,
      "duration": 0.0156,
      "velocity": 127,
      "chip": "ym2612"
    },
    {
      "channel": 4,
      "note": 52,
      "start": 7.4076,
      "duration": 0.4686,
      "velocity": 108,
      "chip": "ym2612"
    },
    {
      "channel": 1,
      "note": 61,
      "start": 7.4705,
      "duration": 0.0207,
      "velocity": 108,
      "chip": "ym2612"
    },
    {
      "channel": 3,
      "note": 61,
      "start": 7.4727,
      "duration": 0.0821,
      "velocity": 127,
      "chip": "ym2612"
    },
    {
      "channel": 5,
      "note": 61,
      "start": 7.4754,
      "duration": 0.0168,
      "velocity": 127,
      "chip": "ym2612"
    },
    {
      "channel": 5,
      "note": 61,
      "start": 7.535,
      "duration": 0.0201,
      "velocity": 127,
      "chip": "ym2612"
    },
    {
      "channel": 1,
      "note": 49,
      "start": 7.5987,
      "duration": 0.084,
      "velocity": 108,
      "chip": "ym2612"
    },
    {
      "channel": 5,
      "note": 61,
      "start": 7.6012,
      "duration": 0.2104,
      "velocity": 127,
      "chip": "ym2612"
    },
    {
      "channel": 1,
      "note": 64,
      "start": 7.7269,
      "duration": 0.0203,
      "velocity": 108,
      "chip": "ym2612"
    },
    {
      "channel": 2,
      "note": 47,
      "start": 7.7286,
      "duration": 0.3389,
      "velocity": 108,
      "chip": "ym2612"
    },
    {
      "channel": 3,
      "note": 61,
      "start": 7.7339,
      "duration": 0.0773,
      "velocity": 127,
      "chip": "ym2612"
    },
    {
      "channel": 0,
      "note": 47,
      "start": 7.855,
      "duration": 0.3404,
      "velocity": 108,
      "chip": "ym2612"
    },
    {
      "channel": 1,
      "note": 49,
      "start": 7.8576,
      "duration": 0.0815,
      "velocity": 108,
      "chip": "ym2612"
    },
    {
      "channel": 5,
      "note": 61,
      "start": 7.8601,
      "duration": 0.0163,
      "velocity": 127,
      "chip": "ym2612"
    },
    {
      "channel": 4,
      "note": 47,
      "start": 7.9206,
      "duration": 0.3616,
      "velocity": 108,
      "chip": "ym2612"
    },
    {
      "channel": 1,
      "note": 49,
      "start": 7.9833,
      "duration": 0.084,
      "velocity": 108,
      "chip": "ym2612"
    },
    {
      "channel": 5,
      "note": 61,
      "start": 7.9857,
      "duration": 0.0188,
      "velocity": 127,
      "chip": "ym2612"
    },
    {
      "channel": 1,
      "note": 68,
      "start": 8.1116,
      "duration": 0.1295,
      "velocity": 108,
      "chip": "ym2612"
    },
    {
      "channel": 2,
      "note": 49,
      "start": 8.1132,
      "duration": 3.1816,
      "velocity": 108,
      "chip": "ym2612"
    },
    {
      "channel": 3,
      "note": 61,
      "start": 8.1186,
      "duration": 0.0773,
      "velocity": 127,
      "chip": "ym2612"
    },
    {
      "channel": 5,
      "note": 61,
      "start": 8.1204,
      "duration": 0.0759,
      "velocity": 127,
      "chip": "ym2612"
    },
    {
      "channel": 0,
      "note": 49,
      "start": 8.2405,
      "duration": 3.1814,
      "velocity": 108,
      "chip": "ym2612"
    },
    {
      "channel": 3,
      "note": 61,
      "start": 8.2532,
      "duration": 0.0923,
      "velocity": 127,
      "chip": "ym2612"
    },
    {
      "channel": 5,
      "note": 61,
      "start": 8.2592,
      "duration": 0.0232,
      "velocity": 127,
      "chip": "ym2612"
    },
    {
      "channel": 4,
      "note": 49,
      "start": 8.3259,
      "duration": 3.1615,
      "velocity": 108,
      "chip": "ym2612"
    },
    {
      "channel": 1,
      "note": 49,
      "start": 8.3921,
      "duration": 0.0176,
      "velocity": 108,
      "chip": "ym2612"
    },
    {
      "channel": 5,
      "note": 61,
      "start": 8.3946,
      "duration": 0.016,
      "velocity": 127,
      "chip": "ym2612"
    },
    {
      "channel": 1,
      "note": 49,
      "start": 8.5175,
      "duration": 0.0204,
      "velocity": 108,
      "chip": "ym2612"
    },
    {
      "channel": 3,
      "note": 61,
      "start": 8.5197,
      "duration": 0.0821,
      "velocity": 127,
      "chip": "ym2612"
    },
    {
      "channel": 5,
      "note": 61,
      "start": 8.5215,
      "duration": 0.0806,
      "velocity": 127,
      "chip": "ym2612"
    },
    {
      "channel": 1,
      "note": 49,
      "start": 8.6457,
      "duration": 0.084,
      "velocity": 108,
      "chip": "ym2612"
    },
    {
      "channel": 3,
      "note": 61,
      "start": 8.648,
      "duration": 0.0821,
      "velocity": 127,
      "chip": "ym2612"
    },
    {
      "channel": 5,
      "note": 61,
      "start": 8.6498,
      "duration": 0.0172,
      "velocity": 127,
      "chip": "ym2612"
    },
    {
      "channel": 1,
      "note": 61,
      "start": 8.7748,
      "duration": 0.2113,
      "velocity": 108,
      "chip": "ym2612"
    },
    {
      "channel": 3,
      "note": 61,
      "start": 8.7802,
      "duration": 0.078,
      "velocity": 127,
      "chip": "ym2612"
    },
    {
      "channel": 5,
      "note": 61,
      "start": 8.782,
      "duration": 0.0766,
      "velocity": 127,
      "chip": "ym2612"
    },
    {
      "channel": 5,
      "note": 61,
      "start": 8.9045,
      "duration": 0.0198,
      "velocity": 127,
      "chip": "ym2612"
    },
    {
      "channel": 1,
      "note": 64,
      "start": 9.0304,
      "duration": 0.0203,
      "velocity": 108,
      "chip": "ym2612"
    },
    {
      "channel": 3,
      "note": 61,
      "start": 9.0358,
      "duration": 0.0789,
      "velocity": 127,
      "chip": "ym2612"
    },
    {
      "channel": 5,
      "note": 61,
      "start": 9.0376,
      "duration": 0.0141,
      "velocity": 127,
      "chip": "ym2612"
    },
    {
      "channel": 5,
      "note": 61,
      "start": 9.0948,
      "duration": 0.0201,
      "velocity": 127,
      "chip": "ym2612"
    },
    {
      "channel": 1,
      "note": 59,
      "start": 9.1592,
      "duration": 0.2116,
      "velocity": 108,
      "chip": "ym2612"
    },
    {
      "channel": 3,
      "note": 61,
      "start": 9.1613,
      "duration": 0.0815,
      "velocity": 127,
      "chip": "ym2612"
    },
    {
      "channel": 5,
      "note": 61,
      "start": 9.1631,
      "duration": 0.0167,
      "velocity": 127,
      "chip": "ym2612"
    },
    {
      "channel": 5,
      "note": 61,
      "start": 9.2246,
      "duration": 0.0185,
      "velocity": 127,
      "chip": "ym2612"
    },
    {
      "channel": 5,
      "note": 61,
      "start": 9.2891,
      "duration": 0.0825,
      "velocity": 127,
      "chip": "ym2612"
    },
    {
      "channel": 1,
      "note": 61,
      "start": 9.415,
      "duration": 0.0203,
      "velocity": 108,
      "chip": "ym2612"
    },
    {
      "channel": 3,
      "note": 61,
      "start": 9.4172,
      "duration": 0.0821,
      "velocity": 127,
      "chip": "ym2612"
    },
    {
      "channel": 5,
      "note": 61,
      "start": 9.419,
      "duration": 0.0173,
      "velocity": 127,
      "chip": "ym2612"
    },
    {
      "channel": 1,
      "note": 56,
      "start": 9.5431,
      "duration": 0.0204,
      "velocity": 108,
      "chip": "ym2612"
    },
    {
      "channel": 3,
      "note": 61,
      "start": 9.5454,
      "duration": 0.082,
      "velocity": 127,
      "chip": "ym2612"
    },
    {
      "channel": 5,
      "note": 61,
      "start": 9.5471,
      "duration": 0.0173,
      "velocity": 127,
      "chip": "ym2612"
    },
    {
      "channel": 5,
      "note": 61,
      "start": 9.6085,
      "duration": 0.0193,
      "velocity": 127,
      "chip": "ym2612"
    },
    {
      "channel": 1,
      "note": 56,
      "start": 9.6714,
      "duration": 0.2122,
      "velocity": 108,
      "chip": "ym2612"
    },
    {
      "channel": 5,
      "note": 61,
      "start": 9.6747,
      "duration": 0.2095,
      "velocity": 127,
      "chip": "ym2612"
    },
    {
      "channel": 3,
      "note": 61,
      "start": 9.8049,
      "duration": 0.0791,
      "velocity": 127,
      "chip": "ym2612"
    },
    {
      "channel": 1,
      "note": 71,
      "start": 9.9278,
      "duration": 0.084,
      "velocity": 108,
      "chip": "ym2612"
    },
    {
      "channel": 5,
      "note": 61,
      "start": 9.9302,
      "duration": 0.0187,
      "velocity": 127,
      "chip": "ym2612"
    },
    {
      "channel": 1,
      "note": 49,
      "start": 10.056,
      "duration": 0.2122,
      "velocity": 108,
      "chip": "ym2612"
    },
    {
      "channel": 5,
      "note": 61,
      "start": 10.0593,
      "duration": 0.0178,
      "velocity": 127,
      "chip": "ym2612"
    },
    {
      "channel": 3,
      "note": 61,
      "start": 10.1895,
      "duration": 0.0791,
      "velocity": 127,
      "chip": "ym2612"
    },
    {
      "channel": 5,
      "note": 61,
      "start": 10.1922,
      "duration": 0.0767,
      "velocity": 127,
      "chip": "ym2612"
    },
    {
      "channel": 1,
      "note": 68,
      "start": 10.3127,
      "duration": 0.0837,
      "velocity": 108,
      "chip": "ym2612"
    },
    {
      "channel": 3,
      "note": 61,
      "start": 10.3197,
      "duration": 0.077,
      "velocity": 127,
      "chip": "ym2612"
    },
    {
      "channel": 5,
      "note": 61,
      "start": 10.3258,
      "duration": 0.0078,
      "velocity": 127,
      "chip": "ym2612"
    },
    {
      "channel": 1,
      "note": 49,
      "start": 10.4429,
      "duration": 0.018,
      "velocity": 108,
      "chip": "ym2612"
    },
    {
      "channel": 5,
      "note": 61,
      "start": 10.4454,
      "duration": 0.0165,
      "velocity": 127,
      "chip": "ym2612"
    },
    {
      "channel": 1,
      "note": 49,
      "start": 10.5688,
      "duration": 0.084,
      "velocity": 108,
      "chip": "ym2612"
    },
    {
      "channel": 3,
      "note": 61,
      "start": 10.5711,
      "duration": 0.0821,
      "velocity": 127,
      "chip": "ym2612"
    },
    {
      "channel": 5,
      "note": 61,
      "start": 10.5729,
      "duration": 0.0807,
      "velocity": 127,
      "chip": "ym2612"
    },
    {
      "channel": 1,
      "note": 59,
      "start": 10.6971,
      "duration": 0.0202,
      "velocity": 108,
      "chip": "ym2612"
    },
    {
      "channel": 3,
      "note": 61,
      "start": 10.6993,
      "duration": 0.0821,
      "velocity": 127,
      "chip": "ym2612"
    },
    {
      "channel": 5,
      "note": 61,
      "start": 10.701,
      "duration": 0.0173,
      "velocity": 127,
      "chip": "ym2612"
    },
    {
      "channel": 1,
      "note": 49,
      "start": 10.8256,
      "duration": 0.0837,
      "velocity": 108,
      "chip": "ym2612"
    },
    {
      "channel": 3,
      "note": 61,
      "start": 10.831,
      "duration": 0.0786,
      "velocity": 127,
      "chip": "ym2612"
    },
    {
      "channel": 5,
      "note": 61,
      "start": 10.8328,
      "duration": 0.0772,
      "velocity": 127,
      "chip": "ym2612"
    },
    {
      "channel": 1,
      "note": 61,
      "start": 10.9534,
      "duration": 0.021,
      "velocity": 108,
      "chip": "ym2612"
    },
    {
      "channel": 5,
      "note": 61,
      "start": 10.9559,
      "duration": 0.0195,
      "velocity": 127,
      "chip": "ym2612"
    },
    {
      "channel": 1,
      "note": 49,
      "start": 11.0817,
      "duration": 0.0839,
      "velocity": 108,
      "chip": "ym2612"
    },
    {
      "channel": 3,
      "note": 61,
      "start": 11.0871,
      "duration": 0.0789,
      "velocity": 127,
      "chip": "ym2612"
    },
    {
      "channel": 5,
      "note": 61,
      "start": 11.0889,
      "duration": 0.0139,
      "velocity": 127,
      "chip": "ym2612"
    },
    {
      "channel": 5,
      "note": 61,
      "start": 11.1461,
      "duration": 0.0202,
      "velocity": 127,
      "chip": "ym2612"
    },
    {
      "channel": 1,
      "note": 64,
      "start": 11.2099,
      "duration": 0.0848,
      "velocity": 108,
      "chip": "ym2612"
    },
    {
      "channel": 3,
      "note": 61,
      "start": 11.212,
      "duration": 0.0831,
      "velocity": 127,
      "chip": "ym2612"
    },
    {
      "channel": 5,
      "note": 61,
      "start": 11.2138,
      "duration": 0.0172,
      "velocity": 127,
      "chip": "ym2612"
    },
    {
      "channel": 5,
      "note": 61,
      "start": 11.2751,
      "duration": 0.0204,
      "velocity": 127,
      "chip": "ym2612"
    },
    {
      "channel": 1,
      "note": 66,
      "start": 11.338,
      "duration": 0.2122,
      "velocity": 108,
      "chip": "ym2612"
    },
    {
      "channel": 2,
      "note": 49,
      "start": 11.3406,
      "duration": 0.4669,
      "velocity": 108,
      "chip": "ym2612"
    },
    {
      "channel": 5,
      "note": 61,
      "start": 11.3429,
      "duration": 0.081,
      "velocity": 127,
      "chip": "ym2612"
    },
    {
      "channel": 0,
      "note": 49,
      "start": 11.4662,
      "duration": 0.4685,
      "velocity": 108,
      "chip": "ym2612"
    },
    {
      "channel": 3,
      "note": 61,
      "start": 11.47,
      "duration": 0.0806,
      "velocity": 127,
      "chip": "ym2612"
    },
    {
      "channel": 5,
      "note": 61,
      "start": 11.4718,
      "duration": 0.0158,
      "velocity": 127,
      "chip": "ym2612"
    },
    {
      "channel": 4,
      "note": 49,
      "start": 11.531,
      "duration": 0.4692,
      "velocity": 108,
      "chip": "ym2612"
    },
    {
      "channel": 1,
      "note": 49,
      "start": 11.5945,
      "duration": 0.084,
      "velocity": 108,
      "chip": "ym2612"
    },
    {
      "channel": 3,
      "note": 61,
      "start": 11.5967,
      "duration": 0.0822,
      "velocity": 127,
      "chip": "ym2612"
    },
    {
      "channel": 5,
      "note": 61,
      "start": 11.5985,
      "duration": 0.0172,
      "velocity": 127,
      "chip": "ym2612"
    },
    {
      "channel": 5,
      "note": 61,
      "start": 11.6593,
      "duration": 0.0198,
      "velocity": 127,
      "chip": "ym2612"
    },
    {
      "channel": 1,
      "note": 66,
      "start": 11.7227,
      "duration": 0.0203,
      "velocity": 108,
      "chip": "ym2612"
    },
    {
      "channel": 5,
      "note": 61,
      "start": 11.7261,
      "duration": 0.2095,
      "velocity": 127,
      "chip": "ym2612"
    },
    {
      "channel": 1,
      "note": 56,
      "start": 11.8509,
      "duration": 0.2128,
      "velocity": 108,
      "chip": "ym2612"
    },
    {
      "channel": 2,
      "note": 47,
      "start": 11.8526,
      "duration": 0.3389,
      "velocity": 108,
      "chip": "ym2612"
    },
    {
      "channel": 3,
      "note": 61,
      "start": 11.8587,
      "duration": 0.0766,
      "velocity": 127,
      "chip": "ym2612"
    },
    {
      "channel": 0,
      "note": 47,
      "start": 11.979,
      "duration": 0.3403,
      "velocity": 108,
      "chip": "ym2612"
    },
    {
      "channel": 5,
      "note": 61,
      "start": 11.9831,
      "duration": 0.0173,
      "velocity": 127,
      "chip": "ym2612"
    },
    {
      "channel": 4,
      "note": 47,
      "start": 12.044,
      "duration": 0.3622,
      "velocity": 108,
      "chip": "ym2612"
    },
    {
      "channel": 1,
      "note": 56,
      "start": 12.1081,
      "duration": 0.0832,
      "velocity": 108,
      "chip": "ym2612"
    },
    {
      "channel": 5,
      "note": 61,
      "start": 12.1105,
      "duration": 0.0179,
      "velocity": 127,
      "chip": "ym2612"
    },
    {
      "channel": 1,
      "note": 64,
      "start": 12.2355,
      "duration": 0.1288,
      "velocity": 108,
      "chip": "ym2612"
    },
    {
      "channel": 2,
      "note": 50,
      "start": 12.2372,
      "duration": 2.1551,
      "velocity": 108,
      "chip": "ym2612"
    },
    {
      "channel": 3,
      "note": 61,
      "start": 12.2433,
      "duration": 0.0766,
      "velocity": 127,
      "chip": "ym2612"
    },
    {
      "channel": 5,
      "note": 61,
      "start": 12.2451,
      "duration": 0.0751,
      "velocity": 127,
      "chip": "ym2612"
    },
    {
      "channel": 0,
      "note": 50,
      "start": 12.3637,
      "duration": 2.1565,
      "velocity": 108,
      "chip": "ym2612"
    },
    {
      "channel": 3,
      "note": 61,
      "start": 12.377,
      "duration": 0.0925,
      "velocity": 127,
      "chip": "ym2612"
    },
    {
      "channel": 5,
      "note": 61,
      "start": 12.3822,
      "duration": 0.0251,
      "velocity": 127,
      "chip": "ym2612"
    },
    {
      "channel": 4,
      "note": 50,
      "start": 12.4495,
      "duration": 2.1363,
      "velocity": 108,
      "chip": "ym2612"
    },
    {
      "channel": 1,
      "note": 49,
      "start": 12.5151,
      "duration": 0.0185,
      "velocity": 108,
      "chip": "ym2612"
    },
    {
      "channel": 5,
      "note": 61,
      "start": 12.5176,
      "duration": 0.017,
      "velocity": 127,
      "chip": "ym2612"
    },
    {
      "channel": 1,
      "note": 49,
      "start": 12.6422,
      "duration": 0.0196,
      "velocity": 108,
      "chip": "ym2612"
    },
    {
      "channel": 3,
      "note": 61,
      "start": 12.6445,
      "duration": 0.0813,
      "velocity": 127,
      "chip": "ym2612"
    },
    {
      "channel": 5,
      "note": 61,
      "start": 12.6463,
      "duration": 0.0798,
      "velocity": 127,
      "chip": "ym2612"
    },
    {
      "channel": 1,
      "note": 49,
      "start": 12.7697,
      "duration": 0.084,
      "velocity": 108,
      "chip": "ym2612"
    },
    {
      "channel": 3,
      "note": 61,
      "start": 12.772,
      "duration": 0.0821,
      "velocity": 127,
      "chip": "ym2612"
    },
    {
      "channel": 5,
      "note": 61,
      "start": 12.7746,
      "duration": 0.0172,
      "velocity": 127,
      "chip": "ym2612"
    },
    {
      "channel": 1,
      "note": 61,
      "start": 12.8979,
      "duration": 0.2122,
      "velocity": 108,
      "chip": "ym2612"
    },
    {
      "channel": 3,
      "note": 61,
      "start": 12.9033,
      "duration": 0.079,
      "velocity": 127,
      "chip": "ym2612"
    },
    {
      "channel": 5,
      "note": 61,
      "start": 12.9051,
      "duration": 0.0775,
      "velocity": 127,
      "chip": "ym2612"
    },
    {
      "channel": 5,
      "note": 61,
      "start": 13.0286,
      "duration": 0.0187,
      "velocity": 127,
      "chip": "ym2612"
    },
    {
      "channel": 1,
      "note": 64,
      "start": 13.1543,
      "duration": 0.0203,
      "velocity": 108,
      "chip": "ym2612"
    },
    {
      "channel": 3,
      "note": 61,
      "start": 13.1606,
      "duration": 0.078,
      "velocity": 127,
      "chip": "ym2612"
    },
    {
      "channel": 5,
      "note": 61,
      "start": 13.1624,
      "duration": 0.0133,
      "velocity": 127,
      "chip": "ym2612"
    },
    {
      "channel": 5,
      "note": 61,
      "start": 13.2188,
      "duration": 0.0202,
      "velocity": 127,
      "chip": "ym2612"
    },
    {
      "channel": 1,
      "note": 59,
      "start": 13.2825,
      "duration": 0.2122,
      "velocity": 108,
      "chip": "ym2612"
    },
    {
      "channel": 3,
      "note": 61,
      "start": 13.2847,
      "duration": 0.0828,
      "velocity": 127,
      "chip": "ym2612"
    },
    {
      "channel": 5,
      "note": 61,
      "start": 13.2865,
      "duration": 0.0172,
      "velocity": 127,
      "chip": "ym2612"
    },
    {
      "channel": 5,
      "note": 61,
      "start": 13.347,
      "duration": 0.0208,
      "velocity": 127,
      "chip": "ym2612"
    },
    {
      "channel": 5,
      "note": 61,
      "start": 13.4131,
      "duration": 0.0826,
      "velocity": 127,
      "chip": "ym2612"
    },
    {
      "channel": 1,
      "note": 61,
      "start": 13.5389,
      "duration": 0.0204,
      "velocity": 108,
      "chip": "ym2612"
    },
    {
      "channel": 3,
      "note": 61,
      "start": 13.542,
      "duration": 0.0821,
      "velocity": 127,
      "chip": "ym2612"
    },
    {
      "channel": 5,
      "note": 61,
      "start": 13.5438,
      "duration": 0.0165,
      "velocity": 127,
      "chip": "ym2612"
    },
    {
      "channel": 1,
      "note": 56,
      "start": 13.6671,
      "duration": 0.0204,
      "velocity": 108,
      "chip": "ym2612"
    },
    {
      "channel": 3,
      "note": 61,
      "start": 13.6693,
      "duration": 0.0821,
      "velocity": 127,
      "chip": "ym2612"
    },
    {
      "channel": 5,
      "note": 61,
      "start": 13.6711,
      "duration": 0.0173,
      "velocity": 127,
      "chip": "ym2612"
    },
    {
      "channel": 5,
      "note": 61,
      "start": 13.7316,
      "duration": 0.0201,
      "velocity": 127,
      "chip": "ym2612"
    },
    {
      "channel": 1,
      "note": 56,
      "start": 13.7954,
      "duration": 0.2122,
      "velocity": 108,
      "chip": "ym2612"
    },
    {
      "channel": 5,
      "note": 61,
      "start": 13.7978,
      "duration": 0.2104,
      "velocity": 127,
      "chip": "ym2612"
    },
    {
      "channel": 3,
      "note": 61,
      "start": 13.9297,
      "duration": 0.0783,
      "velocity": 127,
      "chip": "ym2612"
    },
    {
      "channel": 1,
      "note": 71,
      "start": 14.0517,
      "duration": 0.0845,
      "velocity": 108,
      "chip": "ym2612"
    },
    {
      "channel": 5,
      "note": 61,
      "start": 14.0542,
      "duration": 0.0195,
      "velocity": 127,
      "chip": "ym2612"
    },
    {
      "channel": 1,
      "note": 49,
      "start": 14.18,
      "duration": 0.2122,
      "velocity": 108,
      "chip": "ym2612"
    },
    {
      "channel": 5,
      "note": 61,
      "start": 14.1824,
      "duration": 0.0188,
      "velocity": 127,
      "chip": "ym2612"
    },
    {
      "channel": 3,
      "note": 61,
      "start": 14.3142,
      "duration": 0.0785,
      "velocity": 127,
      "chip": "ym2612"
    },
    {
      "channel": 5,
      "note": 61,
      "start": 14.316,
      "duration": 0.077,
      "velocity": 127,
      "chip": "ym2612"
    },
    {
      "channel": 1,
      "note": 68,
      "start": 14.4378,
      "duration": 0.4676,
      "velocity": 108,
      "chip": "ym2612"
    },
    {
      "channel": 2,
      "note": 52,
      "start": 14.4395,
      "duration": 0.0182,
      "velocity": 108,
      "chip": "ym2612"
    },
    {
      "channel": 3,
      "note": 61,
      "start": 14.4461,
      "duration": 0.0746,
      "velocity": 127,
      "chip": "ym2612"
    },
    {
      "channel": 5,
      "note": 61,
      "start": 14.4482,
      "duration": 0.4591,
      "velocity": 127,
      "chip": "ym2612"
    },
    {
      "channel": 0,
      "note": 52,
      "start": 14.5645,
      "duration": 0.0198,
      "velocity": 108,
      "chip": "ym2612"
    },
    {
      "channel": 4,
      "note": 52,
      "start": 14.6295,
      "duration": 0.0199,
      "velocity": 108,
      "chip": "ym2612"
    },
    {
      "channel": 1,
      "note": 49,
      "start": 14.9493,
      "duration": 0.0415,
      "velocity": 108,
      "chip": "ym2612"
    },
    {
      "channel": 2,
      "note": 52,
      "start": 14.951,
      "duration": 0.9799,
      "velocity": 108,
      "chip": "ym2612"
    },
    {
      "channel": 3,
      "note": 61,
      "start": 14.9562,
      "duration": 0.0772,
      "velocity": 127,
      "chip": "ym2612"
    },
    {
      "channel": 5,
      "note": 61,
      "start": 14.9588,
      "duration": 0.0749,
      "velocity": 127,
      "chip": "ym2612"
    },
    {
      "channel": 0,
      "note": 52,
      "start": 15.0774,
      "duration": 1.366,
      "velocity": 108,
      "chip": "ym2612"
    },
    {
      "channel": 1,
      "note": 59,
      "start": 15.0791,
      "duration": 0.0186,
      "velocity": 108,
      "chip": "ym2612"
    },
    {
      "channel": 5,
      "note": 61,
      "start": 15.0816,
      "duration": 0.0171,
      "velocity": 127,
      "chip": "ym2612"
    },
    {
      "channel": 4,
      "note": 52,
      "start": 15.143,
      "duration": 1.3663,
      "velocity": 108,
      "chip": "ym2612"
    },
    {
      "channel": 1,
      "note": 49,
      "start": 15.2075,
      "duration": 0.083,
      "velocity": 108,
      "chip": "ym2612"
    },
    {
      "channel": 3,
      "note": 61,
      "start": 15.2129,
      "duration": 0.078,
      "velocity": 127,
      "chip": "ym2612"
    },
    {
      "channel": 5,
      "note": 61,
      "start": 15.2146,
      "duration": 0.0122,
      "velocity": 127,
      "chip": "ym2612"
    },
    {
      "channel": 5,
      "note": 61,
      "start": 15.2701,
      "duration": 0.021,
      "velocity": 127,
      "chip": "ym2612"
    },
    {
      "channel": 1,
      "note": 61,
      "start": 15.3339,
      "duration": 0.2122,
      "velocity": 108,
      "chip": "ym2612"
    },
    {
      "channel": 3,
      "note": 61,
      "start": 15.3361,
      "duration": 0.0821,
      "velocity": 127,
      "chip": "ym2612"
    },
    {
      "channel": 5,
      "note": 61,
      "start": 15.3379,
      "duration": 0.0172,
      "velocity": 127,
      "chip": "ym2612"
    },
    {
      "channel": 5,
      "note": 61,
      "start": 15.3983,
      "duration": 0.0201,
      "velocity": 127,
      "chip": "ym2612"
    },
    {
      "channel": 5,
      "note": 61,
      "start": 15.4629,
      "duration": 0.0841,
      "velocity": 127,
      "chip": "ym2612"
    },
    {
      "channel": 1,
      "note": 49,
      "start": 15.5911,
      "duration": 0.084,
      "velocity": 108,
      "chip": "ym2612"
    },
    {
      "channel": 3,
      "note": 61,
      "start": 15.5965,
      "duration": 0.079,
      "velocity": 127,
      "chip": "ym2612"
    },
    {
      "channel": 5,
      "note": 61,
      "start": 15.5983,
      "duration": 0.0132,
      "velocity": 127,
      "chip": "ym2612"
    },
    {
      "channel": 1,
      "note": 61,
      "start": 15.7185,
      "duration": 0.0839,
      "velocity": 108,
      "chip": "ym2612"
    },
    {
      "channel": 3,
      "note": 61,
      "start": 15.7207,
      "duration": 0.0821,
      "velocity": 127,
      "chip": "ym2612"
    },
    {
      "channel": 5,
      "note": 61,
      "start": 15.7225,
      "duration": 0.0181,
      "velocity": 127,
      "chip": "ym2612"
    },
    {
      "channel": 5,
      "note": 61,
      "start": 15.783,
      "duration": 0.0202,
      "velocity": 127,
      "chip": "ym2612"
    },
    {
      "channel": 1,
      "note": 51,
      "start": 15.8466,
      "duration": 0.084,
      "velocity": 108,
      "chip": "ym2612"
    },
    {
      "channel": 3,
      "note": 61,
      "start": 15.852,
      "duration": 0.0791,
      "velocity": 127,
      "chip": "ym2612"
    },
    {
      "channel": 5,
      "note": 61,
      "start": 15.8538,
      "duration": 0.2059,
      "velocity": 127,
      "chip": "ym2612"
    },
    {
      "channel": 1,
      "note": 63,
      "start": 15.9765,
      "duration": 0.0824,
      "velocity": 108,
      "chip": "ym2612"
    },
    {
      "channel": 2,
      "note": 52,
      "start": 15.9819,
      "duration": 0.0772,
      "velocity": 104,
      "chip": "ym2612"
    },
    {
      "channel": 3,
      "note": 61,
      "start": 15.984,
      "duration": 0.0754,
      "velocity": 127,
      "chip": "ym2612"
    },
    {
      "channel": 1,
      "note": 52,
      "start": 16.1031,
      "duration": 0.084,
      "velocity": 108,
      "chip": "ym2612"
    },
    {
      "channel": 2,
      "note": 64,
      "start": 16.1048,
      "duration": 0.0825,
      "velocity": 104,
      "chip": "ym2612"
    },
    {
      "channel": 3,
      "note": 61,
      "start": 16.1077,
      "duration": 0.0799,
      "velocity": 127,
      "chip": "ym2612"
    },
    {
      "channel": 5,
      "note": 61,
      "start": 16.1095,
      "duration": 0.016,
      "velocity": 127,
      "chip": "ym2612"
    },
    {
      "channel": 1,
      "note": 64,
      "start": 16.2312,
      "duration": 0.084,
      "velocity": 108,
      "chip": "ym2612"
    },
    {
      "channel": 2,
      "note": 66,
      "start": 16.233,
      "duration": 0.0825,
      "velocity": 104,
      "chip": "ym2612"
    },
    {
      "channel": 3,
      "note": 61,
      "start": 16.2351,
      "duration": 0.0807,
      "velocity": 127,
      "chip": "ym2612"
    },
    {
      "channel": 5,
      "note": 61,
      "start": 16.2368,
      "duration": 0.0161,
      "velocity": 127,
      "chip": "ym2612"
    },
    {
      "channel": 1,
      "note": 66,
      "start": 16.3595,
      "duration": 0.1291,
      "velocity": 108,
      "chip": "ym2612"
    },
    {
      "channel": 2,
      "note": 69,
      "start": 16.3613,
      "duration": 0.0824,
      "velocity": 104,
      "chip": "ym2612"
    },
    {
      "channel": 3,
      "note": 61,
      "start": 16.3634,
      "duration": 0.0806,
      "velocity": 127,
      "chip": "ym2612"
    },
    {
      "channel": 5,
      "note": 61,
      "start": 16.3689,
      "duration": 0.0754,
      "velocity": 104,
      "chip": "ym2612"
    },
    {
      "channel": 0,
      "note": 49,
      "start": 16.488,
      "duration": 4.058,
      "velocity": 108,
      "chip": "ym2612"
    },
    {
      "channel": 2,
      "note": 73,
      "start": 16.4957,
      "duration": 1.5082,
      "velocity": 104,
      "chip": "ym2612"
    },
    {
      "channel": 3,
      "note": 61,
      "start": 16.5015,
      "duration": 0.0705,
      "velocity": 127,
      "chip": "ym2612"
    },
    {
      "channel": 5,
      "note": 64,
      "start": 16.5033,
      "duration": 0.0691,
      "velocity": 104,
      "chip": "ym2612"
    },
    {
      "channel": 4,
      "note": 49,
      "start": 16.5526,
      "duration": 4.0593,
      "velocity": 108,
      "chip": "ym2612"
    },
    {
      "channel": 1,
      "note": 49,
      "start": 16.6159,
      "duration": 0.0203,
      "velocity": 108,
      "chip": "ym2612"
    },
    {
      "channel": 5,
      "note": 66,
      "start": 16.6184,
      "duration": 0.0824,
      "velocity": 104,
      "chip": "ym2612"
    },
    {
      "channel": 1,
      "note": 49,
      "start": 16.7445,
      "duration": 0.0199,
      "velocity": 108,
      "chip": "ym2612"
    },
    {
      "channel": 3,
      "note": 61,
      "start": 16.7468,
      "duration": 0.0817,
      "velocity": 127,
      "chip": "ym2612"
    },
    {
      "channel": 5,
      "note": 69,
      "start": 16.7486,
      "duration": 0.0801,
      "velocity": 104,
      "chip": "ym2612"
    },
    {
      "channel": 1,
      "note": 49,
      "start": 16.8723,
      "duration": 0.0848,
      "velocity": 108,
      "chip": "ym2612"
    },
    {
      "channel": 3,
      "note": 61,
      "start": 16.8754,
      "duration": 0.0822,
      "velocity": 127,
      "chip": "ym2612"
    },
    {
      "channel": 5,
      "note": 73,
      "start": 16.8773,
      "duration": 1.512,
      "velocity": 104,
      "chip": "ym2612"
    },
    {
      "channel": 1,
      "note": 61,
      "start": 17.0005,
      "duration": 0.2122,
      "velocity": 108,
      "chip": "ym2612"
    },
    {
      "channel": 3,
      "note": 61,
      "start": 17.006,
      "duration": 0.079,
      "velocity": 127,
      "chip": "ym2612"
    },
    {
      "channel": 1,
      "note": 64,
      "start": 17.2578,
      "duration": 0.0202,
      "velocity": 108,
      "chip": "ym2612"
    },
    {
      "channel": 3,
      "note": 61,
      "start": 17.2632,
      "duration": 0.078,
      "velocity": 127,
      "chip": "ym2612"
    },
    {
      "channel": 1,
      "note": 59,
      "start": 17.3852,
      "duration": 0.2122,
      "velocity": 108,
      "chip": "ym2612"
    },
    {
      "channel": 3,
      "note": 61,
      "start": 17.3874,
      "duration": 0.0838,
      "velocity": 127,
      "chip": "ym2612"
    },
    {
      "channel": 1,
      "note": 61,
      "start": 17.6422,
      "duration": 0.0197,
      "velocity": 108,
      "chip": "ym2612"
    },
    {
      "channel": 3,
      "note": 61,
      "start": 17.6466,
      "duration": 0.0812,
      "velocity": 127,
      "chip": "ym2612"
    },
    {
      "channel": 1,
      "note": 56,
      "start": 17.7697,
      "duration": 0.0212,
      "velocity": 108,
      "chip": "ym2612"
    },
    {
      "channel": 3,
      "note": 61,
      "start": 17.7748,
      "duration": 0.0812,
      "velocity": 127,
      "chip": "ym2612"
    },
    {
      "channel": 1,
      "note": 56,
      "start": 17.898,
      "duration": 0.2121,
      "velocity": 108,
      "chip": "ym2612"
    },
    {
      "channel": 2,
      "note": 75,
      "start": 18.0279,
      "duration": 0.3387,
      "velocity": 104,
      "chip": "ym2612"
    },
    {
      "channel": 3,
      "note": 61,
      "start": 18.0332,
      "duration": 0.0773,
      "velocity": 127,
      "chip": "ym2612"
    },
    {
      "channel": 1,
      "note": 71,
      "start": 18.1544,
      "duration": 0.084,
      "velocity": 108,
      "chip": "ym2612"
    },
    {
      "channel": 1,
      "note": 49,
      "start": 18.2829,
      "duration": 0.2119,
      "velocity": 108,
      "chip": "ym2612"
    },
    {
      "channel": 2,
      "note": 73,
      "start": 18.4125,
      "duration": 1.1081,
      "velocity": 104,
      "chip": "ym2612"
    },
    {
      "channel": 3,
      "note": 61,
      "start": 18.4179,
      "duration": 0.0777,
      "velocity": 127,
      "chip": "ym2612"
    },
    {
      "channel": 5,
      "note": 75,
      "start": 18.4198,
      "duration": 0.3322,
      "velocity": 104,
      "chip": "ym2612"
    },
    {
      "channel": 1,
      "note": 68,
      "start": 18.5416,
      "duration": 0.0822,
      "velocity": 108,
      "chip": "ym2612"
    },
    {
      "channel": 3,
      "note": 61,
      "start": 18.5477,
      "duration": 0.077,
      "velocity": 127,
      "chip": "ym2612"
    },
    {
      "channel": 1,
      "note": 49,
      "start": 18.6673,
      "duration": 0.0203,
      "velocity": 108,
      "chip": "ym2612"
    },
    {
      "channel": 1,
      "note": 49,
      "start": 18.7954,
      "duration": 0.084,
      "velocity": 108,
      "chip": "ym2612"
    },
    {
      "channel": 3,
      "note": 61,
      "start": 18.7977,
      "duration": 0.0821,
      "velocity": 127,
      "chip": "ym2612"
    },
    {
      "channel": 5,
      "note": 73,
      "start": 18.7996,
      "duration": 1.1062,
      "velocity": 104,
      "chip": "ym2612"
    },
    {
      "channel": 1,
      "note": 59,
      "start": 18.9244,
      "duration": 0.0195,
      "velocity": 108,
      "chip": "ym2612"
    },
    {
      "channel": 3,
      "note": 61,
      "start": 18.9267,
      "duration": 0.0813,
      "velocity": 127,
      "chip": "ym2612"
    },
    {
      "channel": 1,
      "note": 49,
      "start": 19.0519,
      "duration": 0.0839,
      "velocity": 108,
      "chip": "ym2612"
    },
    {
      "channel": 3,
      "note": 61,
      "start": 19.0581,
      "duration": 0.0781,
      "velocity": 127,
      "chip": "ym2612"
    },
    {
      "channel": 1,
      "note": 61,
      "start": 19.18,
      "duration": 0.0203,
      "velocity": 108,
      "chip": "ym2612"
    },
    {
      "channel": 1,
      "note": 49,
      "start": 19.3089,
      "duration": 0.0833,
      "velocity": 108,
      "chip": "ym2612"
    },
    {
      "channel": 3,
      "note": 61,
      "start": 19.3144,
      "duration": 0.0783,
      "velocity": 127,
      "chip": "ym2612"
    },
    {
      "channel": 1,
      "note": 64,
      "start": 19.4365,
      "duration": 0.084,
      "velocity": 108,
      "chip": "ym2612"
    },
    {
      "channel": 3,
      "note": 61,
      "start": 19.4387,
      "duration": 0.0822,
      "velocity": 127,
      "chip": "ym2612"
    },
    {
      "channel": 1,
      "note": 66,
      "start": 19.5647,
      "duration": 0.2122,
      "velocity": 108,
      "chip": "ym2612"
    },
    {
      "channel": 2,
      "note": 76,
      "start": 19.5666,
      "duration": 0.4668,
      "velocity": 104,
      "chip": "ym2612"
    },
    {
      "channel": 3,
      "note": 61,
      "start": 19.695,
      "duration": 0.0822,
      "velocity": 127,
      "chip": "ym2612"
    },
    {
      "channel": 1,
      "note": 49,
      "start": 19.8211,
      "duration": 0.084,
      "velocity": 108,
      "chip": "ym2612"
    },
    {
      "channel": 3,
      "note": 61,
      "start": 19.8241,
      "duration": 0.0814,
      "velocity": 127,
      "chip": "ym2612"
    },
    {
      "channel": 1,
      "note": 66,
      "start": 19.9493,
      "duration": 0.0203,
      "velocity": 108,
      "chip": "ym2612"
    },
    {
      "channel": 5,
      "note": 76,
      "start": 19.9519,
      "duration": 0.4669,
      "velocity": 104,
      "chip": "ym2612"
    },
    {
      "channel": 1,
      "note": 56,
      "start": 20.0775,
      "duration": 0.2131,
      "velocity": 108,
      "chip": "ym2612"
    },
    {
      "channel": 2,
      "note": 78,
      "start": 20.0792,
      "duration": 0.4671,
      "velocity": 104,
      "chip": "ym2612"
    },
    {
      "channel": 3,
      "note": 61,
      "start": 20.0846,
      "duration": 0.0772,
      "velocity": 127,
      "chip": "ym2612"
    },
    {
      "channel": 1,
      "note": 56,
      "start": 20.3339,
      "duration": 0.084,
      "velocity": 108,
      "chip": "ym2612"
    },
    {
      "channel": 1,
      "note": 64,
      "start": 20.4621,
      "duration": 0.1295,
      "velocity": 108,
      "chip": "ym2612"
    },
    {
      "channel": 3,
      "note": 61,
      "start": 20.4676,
      "duration": 0.0791,
      "velocity": 127,
      "chip": "ym2612"
    },
    {
      "channel": 5,
      "note": 78,
      "start": 20.4693,
      "duration": 0.462,
      "velocity": 104,
      "chip": "ym2612"
    },
    {
      "channel": 0,
      "note": 47,
      "start": 20.591,
      "duration": 4.0576,
      "velocity": 108,
      "chip": "ym2612"
    },
    {
      "channel": 2,
      "note": 80,
      "start": 20.598,
      "duration": 0.0765,
      "velocity": 104,
      "chip": "ym2612"
    },
    {
      "channel": 3,
      "note": 61,
      "start": 20.6034,
      "duration": 0.0714,
      "velocity": 127,
      "chip": "ym2612"
    },
    {
      "channel": 4,
      "note": 47,
      "start": 20.6555,
      "duration": 4.059,
      "velocity": 108,
      "chip": "ym2612"
    },
    {
      "channel": 1,
      "note": 49,
      "start": 20.7185,
      "duration": 0.0203,
      "velocity": 108,
      "chip": "ym2612"
    },
    {
      "channel": 2,
      "note": 75,
      "start": 20.7202,
      "duration": 0.0824,
      "velocity": 104,
      "chip": "ym2612"
    },
    {
      "channel": 1,
      "note": 49,
      "start": 20.8467,
      "duration": 0.0203,
      "velocity": 108,
      "chip": "ym2612"
    },
    {
      "channel": 2,
      "note": 76,
      "start": 20.8485,
      "duration": 1.7704,
      "velocity": 104,
      "chip": "ym2612"
    },
    {
      "channel": 3,
      "note": 61,
      "start": 20.8506,
      "duration": 0.0805,
      "velocity": 127,
      "chip": "ym2612"
    },
    {
      "channel": 1,
      "note": 49,
      "start": 20.9756,
      "duration": 0.0833,
      "velocity": 108,
      "chip": "ym2612"
    },
    {
      "channel": 3,
      "note": 61,
      "start": 20.9778,
      "duration": 0.0816,
      "velocity": 127,
      "chip": "ym2612"
    },
    {
      "channel": 5,
      "note": 80,
      "start": 20.9797,
      "duration": 0.08,
      "velocity": 104,
      "chip": "ym2612"
    },
    {
      "channel": 1,
      "note": 61,
      "start": 21.1031,
      "duration": 0.2122,
      "velocity": 108,
      "chip": "ym2612"
    },
    {
      "channel": 3,
      "note": 61,
      "start": 21.1094,
      "duration": 0.079,
      "velocity": 127,
      "chip": "ym2612"
    },
    {
      "channel": 5,
      "note": 75,
      "start": 21.1112,
      "duration": 0.0776,
      "velocity": 104,
      "chip": "ym2612"
    },
    {
      "channel": 5,
      "note": 76,
      "start": 21.2339,
      "duration": 1.7704,
      "velocity": 104,
      "chip": "ym2612"
    },
    {
      "channel": 1,
      "note": 64,
      "start": 21.36,
      "duration": 0.0199,
      "velocity": 108,
      "chip": "ym2612"
    },
    {
      "channel": 3,
      "note": 61,
      "start": 21.3654,
      "duration": 0.0784,
      "velocity": 127,
      "chip": "ym2612"
    },
    {
      "channel": 1,
      "note": 59,
      "start": 21.4878,
      "duration": 0.2122,
      "velocity": 108,
      "chip": "ym2612"
    },
    {
      "channel": 3,
      "note": 61,
      "start": 21.4908,
      "duration": 0.0812,
      "velocity": 127,
      "chip": "ym2612"
    },
    {
      "channel": 1,
      "note": 61,
      "start": 21.7442,
      "duration": 0.0202,
      "velocity": 108,
      "chip": "ym2612"
    },
    {
      "channel": 3,
      "note": 61,
      "start": 21.7464,
      "duration": 0.082,
      "velocity": 127,
      "chip": "ym2612"
    },
    {
      "channel": 1,
      "note": 56,
      "start": 21.8724,
      "duration": 0.0203,
      "velocity": 108,
      "chip": "ym2612"
    },
    {
      "channel": 3,
      "note": 61,
      "start": 21.8772,
      "duration": 0.0833,
      "velocity": 127,
      "chip": "ym2612"
    },
    {
      "channel": 1,
      "note": 56,
      "start": 22.0006,
      "duration": 0.2121,
      "velocity": 108,
      "chip": "ym2612"
    },
    {
      "channel": 3,
      "note": 61,
      "start": 22.1361,
      "duration": 0.0792,
      "velocity": 127,
      "chip": "ym2612"
    },
    {
      "channel": 1,
      "note": 71,
      "start": 22.2578,
      "duration": 0.0832,
      "velocity": 108,
      "chip": "ym2612"
    },
    {
      "channel": 1,
      "note": 49,
      "start": 22.3853,
      "duration": 0.2121,
      "velocity": 108,
      "chip": "ym2612"
    },
    {
      "channel": 3,
      "note": 61,
      "start": 22.5207,
      "duration": 0.0771,
      "velocity": 127,
      "chip": "ym2612"
    },
    {
      "channel": 1,
      "note": 68,
      "start": 22.644,
      "duration": 0.2097,
      "velocity": 108,
      "chip": "ym2612"
    },
    {
      "channel": 2,
      "note": 75,
      "start": 22.6459,
      "duration": 1.4902,
      "velocity": 104,
      "chip": "ym2612"
    },
    {
      "channel": 3,
      "note": 61,
      "start": 22.6513,
      "duration": 0.0753,
      "velocity": 127,
      "chip": "ym2612"
    },
    {
      "channel": 1,
      "note": 64,
      "start": 22.898,
      "duration": 0.0203,
      "velocity": 108,
      "chip": "ym2612"
    },
    {
      "channel": 3,
      "note": 61,
      "start": 22.9003,
      "duration": 0.082,
      "velocity": 127,
      "chip": "ym2612"
    },
    {
      "channel": 1,
      "note": 59,
      "start": 23.0262,
      "duration": 0.2122,
      "velocity": 108,
      "chip": "ym2612"
    },
    {
      "channel": 3,
      "note": 61,
      "start": 23.0284,
      "duration": 0.0821,
      "velocity": 127,
      "chip": "ym2612"
    },
    {
      "channel": 5,
      "note": 75,
      "start": 23.0304,
      "duration": 1.4912,
      "velocity": 104,
      "chip": "ym2612"
    },
    {
      "channel": 3,
      "note": 61,
      "start": 23.1606,
      "duration": 0.0783,
      "velocity": 127,
      "chip": "ym2612"
    },
    {
      "channel": 1,
      "note": 66,
      "start": 23.2827,
      "duration": 0.0203,
      "velocity": 108,
      "chip": "ym2612"
    },
    {
      "channel": 1,
      "note": 61,
      "start": 23.4109,
      "duration": 0.213,
      "velocity": 108,
      "chip": "ym2612"
    },
    {
      "channel": 3,
      "note": 61,
      "start": 23.4163,
      "duration": 0.0794,
      "velocity": 127,
      "chip": "ym2612"
    },
    {
      "channel": 3,
      "note": 61,
      "start": 23.5421,
      "duration": 0.0823,
      "velocity": 127,
      "chip": "ym2612"
    },
    {
      "channel": 1,
      "note": 49,
      "start": 23.6673,
      "duration": 0.0203,
      "velocity": 108,
      "chip": "ym2612"
    },
    {
      "channel": 1,
      "note": 49,
      "start": 23.7955,
      "duration": 0.084,
      "velocity": 108,
      "chip": "ym2612"
    },
    {
      "channel": 3,
      "note": 61,
      "start": 23.7977,
      "duration": 0.0821,
      "velocity": 127,
      "chip": "ym2612"
    },
    {
      "channel": 1,
      "note": 61,
      "start": 23.9245,
      "duration": 0.0195,
      "velocity": 108,
      "chip": "ym2612"
    },
    {
      "channel": 3,
      "note": 61,
      "start": 23.9267,
      "duration": 0.0812,
      "velocity": 127,
      "chip": "ym2612"
    },
    {
      "channel": 1,
      "note": 49,
      "start": 24.0519,
      "duration": 0.0839,
      "velocity": 108,
      "chip": "ym2612"
    },
    {
      "channel": 1,
      "note": 64,
      "start": 24.1801,
      "duration": 0.0203,
      "velocity": 108,
      "chip": "ym2612"
    },
    {
      "channel": 2,
      "note": 71,
      "start": 24.1819,
      "duration": 0.0826,
      "velocity": 104,
      "chip": "ym2612"
    },
    {
      "channel": 3,
      "note": 61,
      "start": 24.1872,
      "duration": 0.0776,
      "velocity": 127,
      "chip": "ym2612"
    },
    {
      "channel": 1,
      "note": 49,
      "start": 24.3089,
      "duration": 0.0834,
      "velocity": 108,
      "chip": "ym2612"
    },
    {
      "channel": 2,
      "note": 64,
      "start": 24.3106,
      "duration": 0.0819,
      "velocity": 104,
      "chip": "ym2612"
    },
    {
      "channel": 1,
      "note": 49,
      "start": 24.4365,
      "duration": 0.084,
      "velocity": 108,
      "chip": "ym2612"
    },
    {
      "channel": 2,
      "note": 66,
      "start": 24.4382,
      "duration": 0.0824,
      "velocity": 104,
      "chip": "ym2612"
    },
    {
      "channel": 1,
      "note": 68,
      "start": 24.5658,
      "duration": 0.1279,
      "velocity": 108,
      "chip": "ym2612"
    },
    {
      "channel": 2,
      "note": 69,
      "start": 24.5675,
      "duration": 0.0814,
      "velocity": 104,
      "chip": "ym2612"
    },
    {
      "channel": 3,
      "note": 61,
      "start": 24.5728,
      "duration": 0.0765,
      "velocity": 127,
      "chip": "ym2612"
    },
    {
      "channel": 5,
      "note": 71,
      "start": 24.5756,
      "duration": 0.074,
      "velocity": 104,
      "chip": "ym2612"
    },
    {
      "channel": 0,
      "note": 49,
      "start": 24.6931,
      "duration": 4.0581,
      "velocity": 108,
      "chip": "ym2612"
    },
    {
      "channel": 2,
      "note": 73,
      "start": 24.7001,
      "duration": 1.509,
      "velocity": 104,
      "chip": "ym2612"
    },
    {
      "channel": 3,
      "note": 61,
      "start": 24.7055,
      "duration": 0.0718,
      "velocity": 127,
      "chip": "ym2612"
    },
    {
      "channel": 5,
      "note": 64,
      "start": 24.7082,
      "duration": 0.0695,
      "velocity": 104,
      "chip": "ym2612"
    },
    {
      "channel": 4,
      "note": 49,
      "start": 24.7585,
      "duration": 4.0587,
      "velocity": 108,
      "chip": "ym2612"
    },
    {
      "channel": 1,
      "note": 49,
      "start": 24.8211,
      "duration": 0.0203,
      "velocity": 108,
      "chip": "ym2612"
    },
    {
      "channel": 5,
      "note": 66,
      "start": 24.8245,
      "duration": 0.0815,
      "velocity": 104,
      "chip": "ym2612"
    },
    {
      "channel": 1,
      "note": 49,
      "start": 24.9493,
      "duration": 0.0203,
      "velocity": 108,
      "chip": "ym2612"
    },
    {
      "channel": 3,
      "note": 61,
      "start": 24.9515,
      "duration": 0.0824,
      "velocity": 127,
      "chip": "ym2612"
    },
    {
      "channel": 5,
      "note": 69,
      "start": 24.9534,
      "duration": 0.0809,
      "velocity": 104,
      "chip": "ym2612"
    },
    {
      "channel": 1,
      "note": 49,
      "start": 25.0776,
      "duration": 0.084,
      "velocity": 108,
      "chip": "ym2612"
    },
    {
      "channel": 3,
      "note": 61,
      "start": 25.0798,
      "duration": 0.0822,
      "velocity": 127,
      "chip": "ym2612"
    },
    {
      "channel": 5,
      "note": 73,
      "start": 25.0816,
      "duration": 1.5128,
      "velocity": 104,
      "chip": "ym2612"
    },
    {
      "channel": 1,
      "note": 61,
      "start": 25.2058,
      "duration": 0.2121,
      "velocity": 108,
      "chip": "ym2612"
    },
    {
      "channel": 3,
      "note": 61,
      "start": 25.212,
      "duration": 0.0789,
      "velocity": 127,
      "chip": "ym2612"
    },
    {
      "channel": 1,
      "note": 64,
      "start": 25.4622,
      "duration": 0.0203,
      "velocity": 108,
      "chip": "ym2612"
    },
    {
      "channel": 3,
      "note": 61,
      "start": 25.4676,
      "duration": 0.0788,
      "velocity": 127,
      "chip": "ym2612"
    },
    {
      "channel": 1,
      "note": 59,
      "start": 25.5912,
      "duration": 0.2115,
      "velocity": 108,
      "chip": "ym2612"
    },
    {
      "channel": 3,
      "note": 61,
      "start": 25.5934,
      "duration": 0.083,
      "velocity": 127,
      "chip": "ym2612"
    },
    {
      "channel": 1,
      "note": 61,
      "start": 25.8468,
      "duration": 0.0202,
      "velocity": 108,
      "chip": "ym2612"
    },
    {
      "channel": 3,
      "note": 61,
      "start": 25.8512,
      "duration": 0.0818,
      "velocity": 127,
      "chip": "ym2612"
    },
    {
      "channel": 1,
      "note": 56,
      "start": 25.9756,
      "duration": 0.0197,
      "velocity": 108,
      "chip": "ym2612"
    },
    {
      "channel": 3,
      "note": 61,
      "start": 25.9797,
      "duration": 0.0815,
      "velocity": 127,
      "chip": "ym2612"
    },
    {
      "channel": 1,
      "note": 56,
      "start": 26.1039,
      "duration": 0.2114,
      "velocity": 108,
      "chip": "ym2612"
    },
    {
      "channel": 2,
      "note": 75,
      "start": 26.2332,
      "duration": 0.4671,
      "velocity": 104,
      "chip": "ym2612"
    },
    {
      "channel": 3,
      "note": 61,
      "start": 26.2384,
      "duration": 0.0773,
      "velocity": 127,
      "chip": "ym2612"
    },
    {
      "channel": 1,
      "note": 71,
      "start": 26.3596,
      "duration": 0.084,
      "velocity": 108,
      "chip": "ym2612"
    },
    {
      "channel": 1,
      "note": 49,
      "start": 26.4879,
      "duration": 0.2121,
      "velocity": 108,
      "chip": "ym2612"
    },
    {
      "channel": 3,
      "note": 61,
      "start": 26.6214,
      "duration": 0.0791,
      "velocity": 127,
      "chip": "ym2612"
    },
    {
      "channel": 5,
      "note": 75,
      "start": 26.6242,
      "duration": 0.4612,
      "velocity": 104,
      "chip": "ym2612"
    },
    {
      "channel": 1,
      "note": 68,
      "start": 26.746,
      "duration": 0.0822,
      "velocity": 108,
      "chip": "ym2612"
    },
    {
      "channel": 2,
      "note": 73,
      "start": 26.7478,
      "duration": 0.9781,
      "velocity": 104,
      "chip": "ym2612"
    },
    {
      "channel": 3,
      "note": 61,
      "start": 26.7532,
      "duration": 0.0754,
      "velocity": 127,
      "chip": "ym2612"
    },
    {
      "channel": 1,
      "note": 49,
      "start": 26.8738,
      "duration": 0.019,
      "velocity": 108,
      "chip": "ym2612"
    },
    {
      "channel": 1,
      "note": 49,
      "start": 27.0006,
      "duration": 0.084,
      "velocity": 108,
      "chip": "ym2612"
    },
    {
      "channel": 3,
      "note": 61,
      "start": 27.0029,
      "duration": 0.0821,
      "velocity": 127,
      "chip": "ym2612"
    },
    {
      "channel": 1,
      "note": 59,
      "start": 27.1288,
      "duration": 0.0204,
      "velocity": 108,
      "chip": "ym2612"
    },
    {
      "channel": 3,
      "note": 61,
      "start": 27.131,
      "duration": 0.0821,
      "velocity": 127,
      "chip": "ym2612"
    },
    {
      "channel": 5,
      "note": 73,
      "start": 27.1329,
      "duration": 0.9781,
      "velocity": 104,
      "chip": "ym2612"
    },
    {
      "channel": 1,
      "note": 49,
      "start": 27.2579,
      "duration": 0.0836,
      "velocity": 108,
      "chip": "ym2612"
    },
    {
      "channel": 3,
      "note": 61,
      "start": 27.2634,
      "duration": 0.0785,
      "velocity": 127,
      "chip": "ym2612"
    },
    {
      "channel": 1,
      "note": 61,
      "start": 27.3853,
      "duration": 0.022,
      "velocity": 108,
      "chip": "ym2612"
    },
    {
      "channel": 1,
      "note": 49,
      "start": 27.5135,
      "duration": 0.084,
      "velocity": 108,
      "chip": "ym2612"
    },
    {
      "channel": 3,
      "note": 61,
      "start": 27.5189,
      "duration": 0.0789,
      "velocity": 127,
      "chip": "ym2612"
    },
    {
      "channel": 1,
      "note": 64,
      "start": 27.6429,
      "duration": 0.0828,
      "velocity": 108,
      "chip": "ym2612"
    },
    {
      "channel": 3,
      "note": 61,
      "start": 27.6451,
      "duration": 0.081,
      "velocity": 127,
      "chip": "ym2612"
    },
    {
      "channel": 1,
      "note": 66,
      "start": 27.7699,
      "duration": 0.2122,
      "velocity": 108,
      "chip": "ym2612"
    },
    {
      "channel": 2,
      "note": 76,
      "start": 27.7716,
      "duration": 0.467,
      "velocity": 104,
      "chip": "ym2612"
    },
    {
      "channel": 3,
      "note": 61,
      "start": 27.9002,
      "duration": 0.0822,
      "velocity": 127,
      "chip": "ym2612"
    },
    {
      "channel": 1,
      "note": 49,
      "start": 28.0263,
      "duration": 0.084,
      "velocity": 108,
      "chip": "ym2612"
    },
    {
      "channel": 3,
      "note": 61,
      "start": 28.0285,
      "duration": 0.0822,
      "velocity": 127,
      "chip": "ym2612"
    },
    {
      "channel": 1,
      "note": 66,
      "start": 28.1545,
      "duration": 0.0209,
      "velocity": 108,
      "chip": "ym2612"
    },
    {
      "channel": 5,
      "note": 76,
      "start": 28.1579,
      "duration": 0.4671,
      "velocity": 104,
      "chip": "ym2612"
    },
    {
      "channel": 1,
      "note": 56,
      "start": 28.2827,
      "duration": 0.2122,
      "velocity": 108,
      "chip": "ym2612"
    },
    {
      "channel": 2,
      "note": 78,
      "start": 28.2844,
      "duration": 0.4671,
      "velocity": 104,
      "chip": "ym2612"
    },
    {
      "channel": 3,
      "note": 61,
      "start": 28.2906,
      "duration": 0.0764,
      "velocity": 127,
      "chip": "ym2612"
    },
    {
      "channel": 1,
      "note": 56,
      "start": 28.5391,
      "duration": 0.0849,
      "velocity": 108,
      "chip": "ym2612"
    },
    {
      "channel": 1,
      "note": 64,
      "start": 28.6673,
      "duration": 0.1288,
      "velocity": 108,
      "chip": "ym2612"
    },
    {
      "channel": 3,
      "note": 61,
      "start": 28.6728,
      "duration": 0.0791,
      "velocity": 127,
      "chip": "ym2612"
    },
    {
      "channel": 5,
      "note": 78,
      "start": 28.6754,
      "duration": 0.4612,
      "velocity": 104,
      "chip": "ym2612"
    },
    {
      "channel": 0,
      "note": 47,
      "start": 28.7955,
      "duration": 4.0591,
      "velocity": 108,
      "chip": "ym2612"
    },
    {
      "channel": 2,
      "note": 85,
      "start": 28.8024,
      "duration": 3.5394,
      "velocity": 104,
      "chip": "ym2612"
    },
    {
      "channel": 3,
      "note": 61,
      "start": 28.8087,
      "duration": 0.0712,
      "velocity": 127,
      "chip": "ym2612"
    },
    {
      "channel": 4,
      "note": 47,
      "start": 28.86,
      "duration": 4.0602,
      "velocity": 108,
      "chip": "ym2612"
    },
    {
      "channel": 1,
      "note": 49,
      "start": 28.9246,
      "duration": 0.0199,
      "velocity": 108,
      "chip": "ym2612"
    },
    {
      "channel": 1,
      "note": 49,
      "start": 29.052,
      "duration": 0.0203,
      "velocity": 108,
      "chip": "ym2612"
    },
    {
      "channel": 3,
      "note": 61,
      "start": 29.0542,
      "duration": 0.082,
      "velocity": 127,
      "chip": "ym2612"
    },
    {
      "channel": 1,
      "note": 49,
      "start": 29.1802,
      "duration": 0.0839,
      "velocity": 108,
      "chip": "ym2612"
    },
    {
      "channel": 3,
      "note": 61,
      "start": 29.1824,
      "duration": 0.0821,
      "velocity": 127,
      "chip": "ym2612"
    },
    {
      "channel": 5,
      "note": 85,
      "start": 29.1843,
      "duration": 3.5429,
      "velocity": 104,
      "chip": "ym2612"
    },
    {
      "channel": 1,
      "note": 61,
      "start": 29.3089,
      "duration": 0.2117,
      "velocity": 108,
      "chip": "ym2612"
    },
    {
      "channel": 3,
      "note": 61,
      "start": 29.3144,
      "duration": 0.0784,
      "velocity": 127,
      "chip": "ym2612"
    },
    {
      "channel": 1,
      "note": 64,
      "start": 29.5648,
      "duration": 0.0204,
      "velocity": 108,
      "chip": "ym2612"
    },
    {
      "channel": 3,
      "note": 61,
      "start": 29.5702,
      "duration": 0.0788,
      "velocity": 127,
      "chip": "ym2612"
    },
    {
      "channel": 1,
      "note": 59,
      "start": 29.693,
      "duration": 0.2122,
      "velocity": 108,
      "chip": "ym2612"
    },
    {
      "channel": 3,
      "note": 61,
      "start": 29.6952,
      "duration": 0.0838,
      "velocity": 127,
      "chip": "ym2612"
    },
    {
      "channel": 1,
      "note": 61,
      "start": 29.9494,
      "duration": 0.0203,
      "velocity": 108,
      "chip": "ym2612"
    },
    {
      "channel": 3,
      "note": 61,
      "start": 29.9538,
      "duration": 0.0819,
      "velocity": 127,
      "chip": "ym2612"
    },
    {
      "channel": 1,
      "note": 56,
      "start": 30.0776,
      "duration": 0.0203,
      "velocity": 108,
      "chip": "ym2612"
    },
    {
      "channel": 3,
      "note": 61,
      "start": 30.0817,
      "duration": 0.0821,
      "velocity": 127,
      "chip": "ym2612"
    },
    {
      "channel": 1,
      "note": 56,
      "start": 30.2058,
      "duration": 0.2122,
      "velocity": 108,
      "chip": "ym2612"
    },
    {
      "channel": 3,
      "note": 61,
      "start": 30.3418,
      "duration": 0.0771,
      "velocity": 127,
      "chip": "ym2612"
    },
    {
      "channel": 1,
      "note": 71,
      "start": 30.4622,
      "duration": 0.084,
      "velocity": 108,
      "chip": "ym2612"
    },
    {
      "channel": 1,
      "note": 49,
      "start": 30.5912,
      "duration": 0.2114,
      "velocity": 108,
      "chip": "ym2612"
    },
    {
      "channel": 3,
      "note": 61,
      "start": 30.7253,
      "duration": 0.0782,
      "velocity": 127,
      "chip": "ym2612"
    },
    {
      "channel": 1,
      "note": 68,
      "start": 30.8486,
      "duration": 0.2104,
      "velocity": 108,
      "chip": "ym2612"
    },
    {
      "channel": 3,
      "note": 61,
      "start": 30.8549,
      "duration": 0.0767,
      "velocity": 127,
      "chip": "ym2612"
    },
    {
      "channel": 1,
      "note": 64,
      "start": 31.1032,
      "duration": 0.0212,
      "velocity": 108,
      "chip": "ym2612"
    },
    {
      "channel": 3,
      "note": 61,
      "start": 31.1059,
      "duration": 0.0821,
      "velocity": 127,
      "chip": "ym2612"
    },
    {
      "channel": 1,
      "note": 59,
      "start": 31.2315,
      "duration": 0.2122,
      "velocity": 108,
      "chip": "ym2612"
    },
    {
      "channel": 3,
      "note": 61,
      "start": 31.2342,
      "duration": 0.0831,
      "velocity": 127,
      "chip": "ym2612"
    },
    {
      "channel": 3,
      "note": 61,
      "start": 31.3654,
      "duration": 0.0791,
      "velocity": 127,
      "chip": "ym2612"
    },
    {
      "channel": 1,
      "note": 66,
      "start": 31.4879,
      "duration": 0.0203,
      "velocity": 108,
      "chip": "ym2612"
    },
    {
      "channel": 1,
      "note": 61,
      "start": 31.6161,
      "duration": 0.2122,
      "velocity": 108,
      "chip": "ym2612"
    },
    {
      "channel": 3,
      "note": 61,
      "start": 31.622,
      "duration": 0.0789,
      "velocity": 127,
      "chip": "ym2612"
    },
    {
      "channel": 3,
      "note": 61,
      "start": 31.7501,
      "duration": 0.079,
      "velocity": 127,
      "chip": "ym2612"
    },
    {
      "channel": 1,
      "note": 49,
      "start": 31.8725,
      "duration": 0.0203,
      "velocity": 108,
      "chip": "ym2612"
    },
    {
      "channel": 1,
      "note": 49,
      "start": 32.0007,
      "duration": 0.0847,
      "velocity": 108,
      "chip": "ym2612"
    },
    {
      "channel": 3,
      "note": 61,
      "start": 32.0074,
      "duration": 0.0788,
      "velocity": 127,
      "chip": "ym2612"
    },
    {
      "channel": 1,
      "note": 61,
      "start": 32.129,
      "duration": 0.0202,
      "velocity": 108,
      "chip": "ym2612"
    },
    {
      "channel": 3,
      "note": 61,
      "start": 32.1347,
      "duration": 0.0789,
      "velocity": 127,
      "chip": "ym2612"
    },
    {
      "channel": 1,
      "note": 49,
      "start": 32.258,
      "duration": 0.0832,
      "velocity": 108,
      "chip": "ym2612"
    },
    {
      "channel": 3,
      "note": 61,
      "start": 32.2606,
      "duration": 0.0814,
      "velocity": 127,
      "chip": "ym2612"
    },
    {
      "channel": 1,
      "note": 64,
      "start": 32.3853,
      "duration": 0.0203,
      "velocity": 108,
      "chip": "ym2612"
    },
    {
      "channel": 2,
      "note": 71,
      "start": 32.3876,
      "duration": 0.0818,
      "velocity": 104,
      "chip": "ym2612"
    },
    {
      "channel": 3,
      "note": 61,
      "start": 32.3905,
      "duration": 0.0792,
      "velocity": 127,
      "chip": "ym2612"
    },
    {
      "channel": 1,
      "note": 49,
      "start": 32.5136,
      "duration": 0.0839,
      "velocity": 108,
      "chip": "ym2612"
    },
    {
      "channel": 2,
      "note": 59,
      "start": 32.5153,
      "duration": 0.0824,
      "velocity": 104,
      "chip": "ym2612"
    },
    {
      "channel": 3,
      "note": 76,
      "start": 32.5208,
      "duration": 0.0142,
      "velocity": 112,
      "chip": "ym2612"
    },
    {
      "channel": 3,
      "note": 76,
      "start": 32.5783,
      "duration": 0.0202,
      "velocity": 112,
      "chip": "ym2612"
    },
    {
      "channel": 1,
      "note": 49,
      "start": 32.6422,
      "duration": 0.0835,
      "velocity": 108,
      "chip": "ym2612"
    },
    {
      "channel": 2,
      "note": 66,
      "start": 32.644,
      "duration": 0.082,
      "velocity": 104,
      "chip": "ym2612"
    },
    {
      "channel": 3,
      "note": 71,
      "start": 32.6463,
      "duration": 0.0169,
      "velocity": 112,
      "chip": "ym2612"
    },
    {
      "channel": 1,
      "note": 68,
      "start": 32.77,
      "duration": 0.1292,
      "velocity": 108,
      "chip": "ym2612"
    },
    {
      "channel": 2,
      "note": 69,
      "start": 32.7717,
      "duration": 0.0832,
      "velocity": 104,
      "chip": "ym2612"
    },
    {
      "channel": 3,
      "note": 66,
      "start": 32.7749,
      "duration": 0.0175,
      "velocity": 112,
      "chip": "ym2612"
    },
    {
      "channel": 5,
      "note": 71,
      "start": 32.7772,
      "duration": 0.0785,
      "velocity": 104,
      "chip": "ym2612"
    },
    {
      "channel": 0,
      "note": 50,
      "start": 32.8985,
      "duration": 4.0588,
      "velocity": 108,
      "chip": "ym2612"
    },
    {
      "channel": 2,
      "note": 71,
      "start": 32.9062,
      "duration": 0.0761,
      "velocity": 104,
      "chip": "ym2612"
    },
    {
      "channel": 3,
      "note": 61,
      "start": 32.913,
      "duration": 0.0697,
      "velocity": 127,
      "chip": "ym2612"
    },
    {
      "channel": 5,
      "note": 59,
      "start": 32.9148,
      "duration": 0.0682,
      "velocity": 104,
      "chip": "ym2612"
    },
    {
      "channel": 4,
      "note": 50,
      "start": 32.963,
      "duration": 4.0593,
      "velocity": 108,
      "chip": "ym2612"
    },
    {
      "channel": 1,
      "note": 50,
      "start": 33.0264,
      "duration": 0.0203,
      "velocity": 108,
      "chip": "ym2612"
    },
    {
      "channel": 2,
      "note": 74,
      "start": 33.0281,
      "duration": 0.0824,
      "velocity": 104,
      "chip": "ym2612"
    },
    {
      "channel": 5,
      "note": 66,
      "start": 33.0305,
      "duration": 0.0809,
      "velocity": 104,
      "chip": "ym2612"
    },
    {
      "channel": 1,
      "note": 50,
      "start": 33.1546,
      "duration": 0.0203,
      "velocity": 108,
      "chip": "ym2612"
    },
    {
      "channel": 2,
      "note": 79,
      "start": 33.1571,
      "duration": 0.0815,
      "velocity": 104,
      "chip": "ym2612"
    },
    {
      "channel": 3,
      "note": 61,
      "start": 33.1592,
      "duration": 0.0798,
      "velocity": 127,
      "chip": "ym2612"
    },
    {
      "channel": 5,
      "note": 69,
      "start": 33.1611,
      "duration": 0.0782,
      "velocity": 104,
      "chip": "ym2612"
    },
    {
      "channel": 1,
      "note": 50,
      "start": 33.2828,
      "duration": 0.0839,
      "velocity": 108,
      "chip": "ym2612"
    },
    {
      "channel": 2,
      "note": 81,
      "start": 33.2847,
      "duration": 0.0823,
      "velocity": 104,
      "chip": "ym2612"
    },
    {
      "channel": 3,
      "note": 61,
      "start": 33.2868,
      "duration": 0.0805,
      "velocity": 127,
      "chip": "ym2612"
    },
    {
      "channel": 5,
      "note": 71,
      "start": 33.2893,
      "duration": 0.0783,
      "velocity": 104,
      "chip": "ym2612"
    },
    {
      "channel": 1,
      "note": 62,
      "start": 33.411,
      "duration": 0.2136,
      "velocity": 108,
      "chip": "ym2612"
    },
    {
      "channel": 2,
      "note": 74,
      "start": 33.4127,
      "duration": 0.0824,
      "velocity": 104,
      "chip": "ym2612"
    },
    {
      "channel": 3,
      "note": 61,
      "start": 33.4181,
      "duration": 0.0773,
      "velocity": 127,
      "chip": "ym2612"
    },
    {
      "channel": 5,
      "note": 74,
      "start": 33.4199,
      "duration": 0.0759,
      "velocity": 104,
      "chip": "ym2612"
    },
    {
      "channel": 2,
      "note": 79,
      "start": 33.5417,
      "duration": 0.0831,
      "velocity": 104,
      "chip": "ym2612"
    },
    {
      "channel": 5,
      "note": 79,
      "start": 33.5441,
      "duration": 0.0816,
      "velocity": 104,
      "chip": "ym2612"
    },
    {
      "channel": 1,
      "note": 65,
      "start": 33.6674,
      "duration": 0.0203,
      "velocity": 108,
      "chip": "ym2612"
    },
    {
      "channel": 2,
      "note": 81,
      "start": 33.6693,
      "duration": 0.0822,
      "velocity": 104,
      "chip": "ym2612"
    },
    {
      "channel": 3,
      "note": 61,
      "start": 33.6755,
      "duration": 0.0763,
      "velocity": 127,
      "chip": "ym2612"
    },
    {
      "channel": 5,
      "note": 81,
      "start": 33.6774,
      "duration": 0.0747,
      "velocity": 104,
      "chip": "ym2612"
    },
    {
      "channel": 1,
      "note": 60,
      "start": 33.7956,
      "duration": 0.2122,
      "velocity": 108,
      "chip": "ym2612"
    },
    {
      "channel": 2,
      "note": 74,
      "start": 33.7973,
      "duration": 0.0824,
      "velocity": 104,
      "chip": "ym2612"
    },
    {
      "channel": 3,
      "note": 61,
      "start": 33.7994,
      "duration": 0.0805,
      "velocity": 127,
      "chip": "ym2612"
    },
    {
      "channel": 5,
      "note": 74,
      "start": 33.8013,
      "duration": 0.079,
      "velocity": 104,
      "chip": "ym2612"
    },
    {
      "channel": 2,
      "note": 79,
      "start": 33.9262,
      "duration": 0.0817,
      "velocity": 104,
      "chip": "ym2612"
    },
    {
      "channel": 5,
      "note": 79,
      "start": 33.9286,
      "duration": 0.0802,
      "velocity": 104,
      "chip": "ym2612"
    },
    {
      "channel": 1,
      "note": 62,
      "start": 34.052,
      "duration": 0.0203,
      "velocity": 108,
      "chip": "ym2612"
    },
    {
      "channel": 2,
      "note": 81,
      "start": 34.0539,
      "duration": 0.0822,
      "velocity": 104,
      "chip": "ym2612"
    },
    {
      "channel": 3,
      "note": 61,
      "start": 34.056,
      "duration": 0.0804,
      "velocity": 127,
      "chip": "ym2612"
    },
    {
      "channel": 5,
      "note": 81,
      "start": 34.0589,
      "duration": 0.0778,
      "velocity": 104,
      "chip": "ym2612"
    },
    {
      "channel": 1,
      "note": 57,
      "start": 34.1802,
      "duration": 0.0203,
      "velocity": 108,
      "chip": "ym2612"
    },
    {
      "channel": 2,
      "note": 74,
      "start": 34.182,
      "duration": 0.0824,
      "velocity": 104,
      "chip": "ym2612"
    },
    {
      "channel": 3,
      "note": 61,
      "start": 34.184,
      "duration": 0.0806,
      "velocity": 127,
      "chip": "ym2612"
    },
    {
      "channel": 5,
      "note": 74,
      "start": 34.1859,
      "duration": 0.0791,
      "velocity": 104,
      "chip": "ym2612"
    },
    {
      "channel": 1,
      "note": 57,
      "start": 34.3089,
      "duration": 0.2117,
      "velocity": 108,
      "chip": "ym2612"
    },
    {
      "channel": 2,
      "note": 79,
      "start": 34.3106,
      "duration": 0.0822,
      "velocity": 104,
      "chip": "ym2612"
    },
    {
      "channel": 5,
      "note": 79,
      "start": 34.313,
      "duration": 0.0807,
      "velocity": 104,
      "chip": "ym2612"
    },
    {
      "channel": 2,
      "note": 81,
      "start": 34.4384,
      "duration": 0.0824,
      "velocity": 104,
      "chip": "ym2612"
    },
    {
      "channel": 3,
      "note": 61,
      "start": 34.4445,
      "duration": 0.0766,
      "velocity": 127,
      "chip": "ym2612"
    },
    {
      "channel": 5,
      "note": 81,
      "start": 34.4466,
      "duration": 0.0749,
      "velocity": 104,
      "chip": "ym2612"
    },
    {
      "channel": 1,
      "note": 72,
      "start": 34.5648,
      "duration": 0.084,
      "velocity": 108,
      "chip": "ym2612"
    },
    {
      "channel": 2,
      "note": 79,
      "start": 34.5666,
      "duration": 0.0824,
      "velocity": 104,
      "chip": "ym2612"
    },
    {
      "channel": 5,
      "note": 74,
      "start": 34.569,
      "duration": 0.0809,
      "velocity": 104,
      "chip": "ym2612"
    },
    {
      "channel": 1,
      "note": 50,
      "start": 34.6941,
      "duration": 0.2111,
      "velocity": 108,
      "chip": "ym2612"
    },
    {
      "channel": 2,
      "note": 77,
      "start": 34.6958,
      "duration": 0.0813,
      "velocity": 104,
      "chip": "ym2612"
    },
    {
      "channel": 5,
      "note": 79,
      "start": 34.6982,
      "duration": 0.0798,
      "velocity": 104,
      "chip": "ym2612"
    },
    {
      "channel": 2,
      "note": 76,
      "start": 34.8229,
      "duration": 0.0825,
      "velocity": 104,
      "chip": "ym2612"
    },
    {
      "channel": 3,
      "note": 61,
      "start": 34.829,
      "duration": 0.0767,
      "velocity": 127,
      "chip": "ym2612"
    },
    {
      "channel": 5,
      "note": 81,
      "start": 34.831,
      "duration": 0.0751,
      "velocity": 104,
      "chip": "ym2612"
    },
    {
      "channel": 1,
      "note": 69,
      "start": 34.9513,
      "duration": 0.0822,
      "velocity": 108,
      "chip": "ym2612"
    },
    {
      "channel": 2,
      "note": 72,
      "start": 34.9532,
      "duration": 0.0804,
      "velocity": 104,
      "chip": "ym2612"
    },
    {
      "channel": 3,
      "note": 61,
      "start": 34.9595,
      "duration": 0.0744,
      "velocity": 127,
      "chip": "ym2612"
    },
    {
      "channel": 5,
      "note": 79,
      "start": 34.9614,
      "duration": 0.0729,
      "velocity": 104,
      "chip": "ym2612"
    },
    {
      "channel": 1,
      "note": 50,
      "start": 35.0777,
      "duration": 0.0203,
      "velocity": 108,
      "chip": "ym2612"
    },
    {
      "channel": 2,
      "note": 74,
      "start": 35.0794,
      "duration": 0.0824,
      "velocity": 104,
      "chip": "ym2612"
    },
    {
      "channel": 5,
      "note": 77,
      "start": 35.0817,
      "duration": 0.0809,
      "velocity": 104,
      "chip": "ym2612"
    },
    {
      "channel": 1,
      "note": 50,
      "start": 35.2059,
      "duration": 0.0848,
      "velocity": 108,
      "chip": "ym2612"
    },
    {
      "channel": 2,
      "note": 79,
      "start": 35.2085,
      "duration": 0.0825,
      "velocity": 104,
      "chip": "ym2612"
    },
    {
      "channel": 3,
      "note": 61,
      "start": 35.2106,
      "duration": 0.0807,
      "velocity": 127,
      "chip": "ym2612"
    },
    {
      "channel": 5,
      "note": 76,
      "start": 35.2124,
      "duration": 0.0792,
      "velocity": 104,
      "chip": "ym2612"
    },
    {
      "channel": 1,
      "note": 60,
      "start": 35.3341,
      "duration": 0.0203,
      "velocity": 108,
      "chip": "ym2612"
    },
    {
      "channel": 2,
      "note": 81,
      "start": 35.3359,
      "duration": 0.0823,
      "velocity": 104,
      "chip": "ym2612"
    },
    {
      "channel": 3,
      "note": 61,
      "start": 35.338,
      "duration": 0.0804,
      "velocity": 127,
      "chip": "ym2612"
    },
    {
      "channel": 5,
      "note": 72,
      "start": 35.341,
      "duration": 0.0777,
      "velocity": 104,
      "chip": "ym2612"
    },
    {
      "channel": 1,
      "note": 50,
      "start": 35.4631,
      "duration": 0.0832,
      "velocity": 108,
      "chip": "ym2612"
    },
    {
      "channel": 2,
      "note": 74,
      "start": 35.4648,
      "duration": 0.0816,
      "velocity": 104,
      "chip": "ym2612"
    },
    {
      "channel": 3,
      "note": 61,
      "start": 35.4701,
      "duration": 0.0766,
      "velocity": 127,
      "chip": "ym2612"
    },
    {
      "channel": 5,
      "note": 74,
      "start": 35.472,
      "duration": 0.0751,
      "velocity": 104,
      "chip": "ym2612"
    },
    {
      "channel": 1,
      "note": 62,
      "start": 35.5913,
      "duration": 0.0195,
      "velocity": 108,
      "chip": "ym2612"
    },
    {
      "channel": 2,
      "note": 79,
      "start": 35.593,
      "duration": 0.0815,
      "velocity": 104,
      "chip": "ym2612"
    },
    {
      "channel": 5,
      "note": 79,
      "start": 35.5954,
      "duration": 0.08,
      "velocity": 104,
      "chip": "ym2612"
    },
    {
      "channel": 1,
      "note": 50,
      "start": 35.7187,
      "duration": 0.084,
      "velocity": 108,
      "chip": "ym2612"
    },
    {
      "channel": 2,
      "note": 81,
      "start": 35.7206,
      "duration": 0.0823,
      "velocity": 104,
      "chip": "ym2612"
    },
    {
      "channel": 3,
      "note": 61,
      "start": 35.7267,
      "duration": 0.0765,
      "velocity": 127,
      "chip": "ym2612"
    },
    {
      "channel": 5,
      "note": 81,
      "start": 35.7287,
      "duration": 0.0748,
      "velocity": 104,
      "chip": "ym2612"
    },
    {
      "channel": 1,
      "note": 65,
      "start": 35.8469,
      "duration": 0.084,
      "velocity": 108,
      "chip": "ym2612"
    },
    {
      "channel": 2,
      "note": 74,
      "start": 35.8486,
      "duration": 0.0826,
      "velocity": 104,
      "chip": "ym2612"
    },
    {
      "channel": 3,
      "note": 61,
      "start": 35.8507,
      "duration": 0.0807,
      "velocity": 127,
      "chip": "ym2612"
    },
    {
      "channel": 5,
      "note": 74,
      "start": 35.8526,
      "duration": 0.0792,
      "velocity": 104,
      "chip": "ym2612"
    },
    {
      "channel": 1,
      "note": 67,
      "start": 35.9756,
      "duration": 0.2117,
      "velocity": 108,
      "chip": "ym2612"
    },
    {
      "channel": 2,
      "note": 79,
      "start": 35.9773,
      "duration": 0.0819,
      "velocity": 104,
      "chip": "ym2612"
    },
    {
      "channel": 5,
      "note": 79,
      "start": 35.9797,
      "duration": 0.0804,
      "velocity": 104,
      "chip": "ym2612"
    },
    {
      "channel": 2,
      "note": 81,
      "start": 36.1051,
      "duration": 0.0824,
      "velocity": 104,
      "chip": "ym2612"
    },
    {
      "channel": 3,
      "note": 61,
      "start": 36.108,
      "duration": 0.0798,
      "velocity": 127,
      "chip": "ym2612"
    },
    {
      "channel": 5,
      "note": 81,
      "start": 36.1101,
      "duration": 0.078,
      "velocity": 104,
      "chip": "ym2612"
    },
    {
      "channel": 1,
      "note": 50,
      "start": 36.232,
      "duration": 0.0835,
      "velocity": 108,
      "chip": "ym2612"
    },
    {
      "channel": 2,
      "note": 74,
      "start": 36.2337,
      "duration": 0.082,
      "velocity": 104,
      "chip": "ym2612"
    },
    {
      "channel": 3,
      "note": 61,
      "start": 36.2358,
      "duration": 0.0802,
      "velocity": 127,
      "chip": "ym2612"
    },
    {
      "channel": 5,
      "note": 74,
      "start": 36.2377,
      "duration": 0.0787,
      "velocity": 104,
      "chip": "ym2612"
    },
    {
      "channel": 1,
      "note": 67,
      "start": 36.3598,
      "duration": 0.0203,
      "velocity": 108,
      "chip": "ym2612"
    },
    {
      "channel": 2,
      "note": 79,
      "start": 36.3615,
      "duration": 0.0824,
      "velocity": 104,
      "chip": "ym2612"
    },
    {
      "channel": 5,
      "note": 79,
      "start": 36.3638,
      "duration": 0.0809,
      "velocity": 104,
      "chip": "ym2612"
    },
    {
      "channel": 1,
      "note": 57,
      "start": 36.4879,
      "duration": 0.2122,
      "velocity": 108,
      "chip": "ym2612"
    },
    {
      "channel": 2,
      "note": 81,
      "start": 36.4906,
      "duration": 0.0814,
      "velocity": 104,
      "chip": "ym2612"
    },
    {
      "channel": 3,
      "note": 61,
      "start": 36.4959,
      "duration": 0.0764,
      "velocity": 127,
      "chip": "ym2612"
    },
    {
      "channel": 5,
      "note": 81,
      "start": 36.4979,
      "duration": 0.0747,
      "velocity": 104,
      "chip": "ym2612"
    },
    {
      "channel": 2,
      "note": 79,
      "start": 36.6178,
      "duration": 0.0826,
      "velocity": 104,
      "chip": "ym2612"
    },
    {
      "channel": 5,
      "note": 74,
      "start": 36.6201,
      "duration": 0.0811,
      "velocity": 104,
      "chip": "ym2612"
    },
    {
      "channel": 1,
      "note": 57,
      "start": 36.7444,
      "duration": 0.084,
      "velocity": 108,
      "chip": "ym2612"
    },
    {
      "channel": 2,
      "note": 77,
      "start": 36.7461,
      "duration": 0.0825,
      "velocity": 104,
      "chip": "ym2612"
    },
    {
      "channel": 5,
      "note": 79,
      "start": 36.7484,
      "duration": 0.081,
      "velocity": 104,
      "chip": "ym2612"
    },
    {
      "channel": 1,
      "note": 65,
      "start": 36.8726,
      "duration": 0.1291,
      "velocity": 108,
      "chip": "ym2612"
    },
    {
      "channel": 2,
      "note": 76,
      "start": 36.8751,
      "duration": 0.0825,
      "velocity": 104,
      "chip": "ym2612"
    },
    {
      "channel": 3,
      "note": 61,
      "start": 36.8804,
      "duration": 0.0775,
      "velocity": 127,
      "chip": "ym2612"
    },
    {
      "channel": 5,
      "note": 81,
      "start": 36.8824,
      "duration": 0.0758,
      "velocity": 104,
      "chip": "ym2612"
    },
    {
      "channel": 0,
      "note": 48,
      "start": 37.0012,
      "duration": 4.0579,
      "velocity": 108,
      "chip": "ym2612"
    },
    {
      "channel": 2,
      "note": 72,
      "start": 37.0094,
      "duration": 0.0756,
      "velocity": 104,
      "chip": "ym2612"
    },
    {
      "channel": 3,
      "note": 61,
      "start": 37.0148,
      "duration": 0.0704,
      "velocity": 127,
      "chip": "ym2612"
    },
    {
      "channel": 5,
      "note": 79,
      "start": 37.0166,
      "duration": 0.069,
      "velocity": 104,
      "chip": "ym2612"
    },
    {
      "channel": 4,
      "note": 48,
      "start": 37.0652,
      "duration": 4.0606,
      "velocity": 108,
      "chip": "ym2612"
    },
    {
      "channel": 1,
      "note": 50,
      "start": 37.129,
      "duration": 0.0203,
      "velocity": 108,
      "chip": "ym2612"
    },
    {
      "channel": 2,
      "note": 72,
      "start": 37.1307,
      "duration": 0.0823,
      "velocity": 104,
      "chip": "ym2612"
    },
    {
      "channel": 5,
      "note": 77,
      "start": 37.1331,
      "duration": 0.0809,
      "velocity": 104,
      "chip": "ym2612"
    },
    {
      "channel": 1,
      "note": 50,
      "start": 37.258,
      "duration": 0.0195,
      "velocity": 108,
      "chip": "ym2612"
    },
    {
      "channel": 2,
      "note": 76,
      "start": 37.2598,
      "duration": 0.0815,
      "velocity": 104,
      "chip": "ym2612"
    },
    {
      "channel": 3,
      "note": 61,
      "start": 37.2618,
      "duration": 0.0797,
      "velocity": 127,
      "chip": "ym2612"
    },
    {
      "channel": 5,
      "note": 76,
      "start": 37.2637,
      "duration": 0.0782,
      "velocity": 104,
      "chip": "ym2612"
    },
    {
      "channel": 1,
      "note": 50,
      "start": 37.3854,
      "duration": 0.084,
      "velocity": 108,
      "chip": "ym2612"
    },
    {
      "channel": 2,
      "note": 79,
      "start": 37.3871,
      "duration": 0.0825,
      "velocity": 104,
      "chip": "ym2612"
    },
    {
      "channel": 3,
      "note": 61,
      "start": 37.3892,
      "duration": 0.0807,
      "velocity": 127,
      "chip": "ym2612"
    },
    {
      "channel": 5,
      "note": 72,
      "start": 37.3923,
      "duration": 0.0779,
      "velocity": 104,
      "chip": "ym2612"
    },
    {
      "channel": 1,
      "note": 62,
      "start": 37.5136,
      "duration": 0.2122,
      "velocity": 108,
      "chip": "ym2612"
    },
    {
      "channel": 2,
      "note": 81,
      "start": 37.5154,
      "duration": 1.0016,
      "velocity": 104,
      "chip": "ym2612"
    },
    {
      "channel": 3,
      "note": 61,
      "start": 37.5207,
      "duration": 0.0773,
      "velocity": 127,
      "chip": "ym2612"
    },
    {
      "channel": 5,
      "note": 72,
      "start": 37.5225,
      "duration": 0.0758,
      "velocity": 104,
      "chip": "ym2612"
    },
    {
      "channel": 5,
      "note": 76,
      "start": 37.6447,
      "duration": 0.082,
      "velocity": 104,
      "chip": "ym2612"
    },
    {
      "channel": 1,
      "note": 65,
      "start": 37.7703,
      "duration": 0.0209,
      "velocity": 108,
      "chip": "ym2612"
    },
    {
      "channel": 3,
      "note": 61,
      "start": 37.7766,
      "duration": 0.0777,
      "velocity": 127,
      "chip": "ym2612"
    },
    {
      "channel": 5,
      "note": 79,
      "start": 37.7784,
      "duration": 0.0762,
      "velocity": 104,
      "chip": "ym2612"
    },
    {
      "channel": 1,
      "note": 60,
      "start": 37.8982,
      "duration": 0.2122,
      "velocity": 108,
      "chip": "ym2612"
    },
    {
      "channel": 3,
      "note": 61,
      "start": 37.9005,
      "duration": 0.0838,
      "velocity": 127,
      "chip": "ym2612"
    },
    {
      "channel": 5,
      "note": 81,
      "start": 37.9023,
      "duration": 1.0001,
      "velocity": 104,
      "chip": "ym2612"
    },
    {
      "channel": 1,
      "note": 62,
      "start": 38.1546,
      "duration": 0.0203,
      "velocity": 108,
      "chip": "ym2612"
    },
    {
      "channel": 3,
      "note": 61,
      "start": 38.1598,
      "duration": 0.0819,
      "velocity": 127,
      "chip": "ym2612"
    },
    {
      "channel": 1,
      "note": 57,
      "start": 38.2828,
      "duration": 0.0209,
      "velocity": 108,
      "chip": "ym2612"
    },
    {
      "channel": 3,
      "note": 61,
      "start": 38.287,
      "duration": 0.0821,
      "velocity": 127,
      "chip": "ym2612"
    },
    {
      "channel": 1,
      "note": 57,
      "start": 38.4111,
      "duration": 0.213,
      "velocity": 108,
      "chip": "ym2612"
    },
    {
      "channel": 2,
      "note": 84,
      "start": 38.542,
      "duration": 0.0823,
      "velocity": 104,
      "chip": "ym2612"
    },
    {
      "channel": 3,
      "note": 61,
      "start": 38.5473,
      "duration": 0.0773,
      "velocity": 127,
      "chip": "ym2612"
    },
    {
      "channel": 1,
      "note": 72,
      "start": 38.6674,
      "duration": 0.084,
      "velocity": 108,
      "chip": "ym2612"
    },
    {
      "channel": 2,
      "note": 72,
      "start": 38.6692,
      "duration": 0.0825,
      "velocity": 104,
      "chip": "ym2612"
    },
    {
      "channel": 1,
      "note": 50,
      "start": 38.7957,
      "duration": 0.2124,
      "velocity": 108,
      "chip": "ym2612"
    },
    {
      "channel": 2,
      "note": 74,
      "start": 38.7974,
      "duration": 0.0823,
      "velocity": 104,
      "chip": "ym2612"
    },
    {
      "channel": 2,
      "note": 76,
      "start": 38.9263,
      "duration": 0.082,
      "velocity": 104,
      "chip": "ym2612"
    },
    {
      "channel": 3,
      "note": 61,
      "start": 38.9316,
      "duration": 0.077,
      "velocity": 127,
      "chip": "ym2612"
    },
    {
      "channel": 5,
      "note": 84,
      "start": 38.9336,
      "duration": 0.0754,
      "velocity": 104,
      "chip": "ym2612"
    },
    {
      "channel": 1,
      "note": 69,
      "start": 39.0539,
      "duration": 0.2104,
      "velocity": 108,
      "chip": "ym2612"
    },
    {
      "channel": 2,
      "note": 79,
      "start": 39.0556,
      "duration": 2.0042,
      "velocity": 104,
      "chip": "ym2612"
    },
    {
      "channel": 3,
      "note": 61,
      "start": 39.0619,
      "duration": 0.0744,
      "velocity": 127,
      "chip": "ym2612"
    },
    {
      "channel": 5,
      "note": 72,
      "start": 39.0637,
      "duration": 0.0729,
      "velocity": 104,
      "chip": "ym2612"
    },
    {
      "channel": 5,
      "note": 74,
      "start": 39.1827,
      "duration": 0.0825,
      "velocity": 104,
      "chip": "ym2612"
    },
    {
      "channel": 1,
      "note": 65,
      "start": 39.3094,
      "duration": 0.0195,
      "velocity": 108,
      "chip": "ym2612"
    },
    {
      "channel": 3,
      "note": 61,
      "start": 39.3116,
      "duration": 0.0812,
      "velocity": 127,
      "chip": "ym2612"
    },
    {
      "channel": 5,
      "note": 76,
      "start": 39.3134,
      "duration": 0.0797,
      "velocity": 104,
      "chip": "ym2612"
    },
    {
      "channel": 1,
      "note": 60,
      "start": 39.4367,
      "duration": 0.2122,
      "velocity": 108,
      "chip": "ym2612"
    },
    {
      "channel": 3,
      "note": 61,
      "start": 39.4389,
      "duration": 0.082,
      "velocity": 127,
      "chip": "ym2612"
    },
    {
      "channel": 5,
      "note": 79,
      "start": 39.4416,
      "duration": 2.0043,
      "velocity": 104,
      "chip": "ym2612"
    },
    {
      "channel": 3,
      "note": 61,
      "start": 39.5702,
      "duration": 0.0791,
      "velocity": 127,
      "chip": "ym2612"
    },
    {
      "channel": 1,
      "note": 67,
      "start": 39.6931,
      "duration": 0.0203,
      "velocity": 108,
      "chip": "ym2612"
    },
    {
      "channel": 1,
      "note": 62,
      "start": 39.8213,
      "duration": 0.2122,
      "velocity": 108,
      "chip": "ym2612"
    },
    {
      "channel": 3,
      "note": 61,
      "start": 39.8276,
      "duration": 0.078,
      "velocity": 127,
      "chip": "ym2612"
    },
    {
      "channel": 3,
      "note": 61,
      "start": 39.9517,
      "duration": 0.0823,
      "velocity": 127,
      "chip": "ym2612"
    },
    {
      "channel": 1,
      "note": 50,
      "start": 40.0778,
      "duration": 0.0203,
      "velocity": 108,
      "chip": "ym2612"
    },
    {
      "channel": 1,
      "note": 50,
      "start": 40.2059,
      "duration": 0.0848,
      "velocity": 108,
      "chip": "ym2612"
    },
    {
      "channel": 3,
      "note": 61,
      "start": 40.2094,
      "duration": 0.0822,
      "velocity": 127,
      "chip": "ym2612"
    },
    {
      "channel": 1,
      "note": 62,
      "start": 40.3342,
      "duration": 0.0202,
      "velocity": 108,
      "chip": "ym2612"
    },
    {
      "channel": 3,
      "note": 61,
      "start": 40.3368,
      "duration": 0.082,
      "velocity": 127,
      "chip": "ym2612"
    },
    {
      "channel": 1,
      "note": 50,
      "start": 40.4624,
      "duration": 0.084,
      "velocity": 108,
      "chip": "ym2612"
    },
    {
      "channel": 1,
      "note": 65,
      "start": 40.5914,
      "duration": 0.0196,
      "velocity": 108,
      "chip": "ym2612"
    },
    {
      "channel": 3,
      "note": 61,
      "start": 40.5973,
      "duration": 0.078,
      "velocity": 127,
      "chip": "ym2612"
    },
    {
      "channel": 1,
      "note": 50,
      "start": 40.7188,
      "duration": 0.084,
      "velocity": 108,
      "chip": "ym2612"
    },
    {
      "channel": 1,
      "note": 50,
      "start": 40.847,
      "duration": 0.084,
      "velocity": 108,
      "chip": "ym2612"
    },
    {
      "channel": 1,
      "note": 69,
      "start": 40.9756,
      "duration": 0.1288,
      "velocity": 108,
      "chip": "ym2612"
    },
    {
      "channel": 3,
      "note": 61,
      "start": 40.9814,
      "duration": 0.0786,
      "velocity": 127,
      "chip": "ym2612"
    },
    {
      "channel": 0,
      "note": 49,
      "start": 41.1037,
      "duration": 4.058,
      "velocity": 108,
      "chip": "ym2612"
    },
    {
      "channel": 2,
      "note": 78,
      "start": 41.1127,
      "duration": 0.0749,
      "velocity": 104,
      "chip": "ym2612"
    },
    {
      "channel": 3,
      "note": 61,
      "start": 41.1182,
      "duration": 0.0697,
      "velocity": 127,
      "chip": "ym2612"
    },
    {
      "channel": 4,
      "note": 49,
      "start": 41.1682,
      "duration": 4.0593,
      "velocity": 108,
      "chip": "ym2612"
    },
    {
      "channel": 1,
      "note": 49,
      "start": 41.2316,
      "duration": 0.0203,
      "velocity": 108,
      "chip": "ym2612"
    },
    {
      "channel": 2,
      "note": 73,
      "start": 41.2333,
      "duration": 0.0823,
      "velocity": 104,
      "chip": "ym2612"
    },
    {
      "channel": 1,
      "note": 49,
      "start": 41.3598,
      "duration": 0.0203,
      "velocity": 108,
      "chip": "ym2612"
    },
    {
      "channel": 2,
      "note": 78,
      "start": 41.3615,
      "duration": 0.0834,
      "velocity": 104,
      "chip": "ym2612"
    },
    {
      "channel": 3,
      "note": 61,
      "start": 41.3636,
      "duration": 0.0815,
      "velocity": 127,
      "chip": "ym2612"
    },
    {
      "channel": 1,
      "note": 49,
      "start": 41.488,
      "duration": 0.0839,
      "velocity": 108,
      "chip": "ym2612"
    },
    {
      "channel": 2,
      "note": 80,
      "start": 41.4907,
      "duration": 0.0815,
      "velocity": 104,
      "chip": "ym2612"
    },
    {
      "channel": 3,
      "note": 61,
      "start": 41.4928,
      "duration": 0.0797,
      "velocity": 127,
      "chip": "ym2612"
    },
    {
      "channel": 5,
      "note": 78,
      "start": 41.4959,
      "duration": 0.0769,
      "velocity": 104,
      "chip": "ym2612"
    },
    {
      "channel": 1,
      "note": 61,
      "start": 41.6162,
      "duration": 0.2122,
      "velocity": 108,
      "chip": "ym2612"
    },
    {
      "channel": 2,
      "note": 73,
      "start": 41.6179,
      "duration": 0.0824,
      "velocity": 104,
      "chip": "ym2612"
    },
    {
      "channel": 3,
      "note": 61,
      "start": 41.6241,
      "duration": 0.0765,
      "velocity": 127,
      "chip": "ym2612"
    },
    {
      "channel": 5,
      "note": 73,
      "start": 41.6259,
      "duration": 0.0751,
      "velocity": 104,
      "chip": "ym2612"
    },
    {
      "channel": 2,
      "note": 78,
      "start": 41.7461,
      "duration": 0.0824,
      "velocity": 104,
      "chip": "ym2612"
    },
    {
      "channel": 5,
      "note": 78,
      "start": 41.7485,
      "duration": 0.081,
      "velocity": 104,
      "chip": "ym2612"
    },
    {
      "channel": 1,
      "note": 64,
      "start": 41.8727,
      "duration": 0.0203,
      "velocity": 108,
      "chip": "ym2612"
    },
    {
      "channel": 2,
      "note": 80,
      "start": 41.8753,
      "duration": 0.0822,
      "velocity": 104,
      "chip": "ym2612"
    },
    {
      "channel": 3,
      "note": 61,
      "start": 41.8807,
      "duration": 0.0771,
      "velocity": 127,
      "chip": "ym2612"
    },
    {
      "channel": 5,
      "note": 80,
      "start": 41.8827,
      "duration": 0.0755,
      "velocity": 104,
      "chip": "ym2612"
    },
    {
      "channel": 1,
      "note": 59,
      "start": 42.0008,
      "duration": 0.213,
      "velocity": 108,
      "chip": "ym2612"
    },
    {
      "channel": 2,
      "note": 73,
      "start": 42.0026,
      "duration": 0.0824,
      "velocity": 104,
      "chip": "ym2612"
    },
    {
      "channel": 3,
      "note": 61,
      "start": 42.0046,
      "duration": 0.0806,
      "velocity": 127,
      "chip": "ym2612"
    },
    {
      "channel": 5,
      "note": 73,
      "start": 42.0073,
      "duration": 0.0783,
      "velocity": 104,
      "chip": "ym2612"
    },
    {
      "channel": 2,
      "note": 78,
      "start": 42.1307,
      "duration": 0.0834,
      "velocity": 104,
      "chip": "ym2612"
    },
    {
      "channel": 5,
      "note": 78,
      "start": 42.133,
      "duration": 0.082,
      "velocity": 104,
      "chip": "ym2612"
    },
    {
      "channel": 1,
      "note": 61,
      "start": 42.2581,
      "duration": 0.0195,
      "velocity": 108,
      "chip": "ym2612"
    },
    {
      "channel": 2,
      "note": 80,
      "start": 42.2599,
      "duration": 0.0814,
      "velocity": 104,
      "chip": "ym2612"
    },
    {
      "channel": 3,
      "note": 61,
      "start": 42.262,
      "duration": 0.0796,
      "velocity": 127,
      "chip": "ym2612"
    },
    {
      "channel": 5,
      "note": 80,
      "start": 42.2641,
      "duration": 0.0779,
      "velocity": 104,
      "chip": "ym2612"
    },
    {
      "channel": 1,
      "note": 56,
      "start": 42.3854,
      "duration": 0.0204,
      "velocity": 108,
      "chip": "ym2612"
    },
    {
      "channel": 2,
      "note": 73,
      "start": 42.3872,
      "duration": 0.0824,
      "velocity": 104,
      "chip": "ym2612"
    },
    {
      "channel": 3,
      "note": 61,
      "start": 42.3893,
      "duration": 0.0806,
      "velocity": 127,
      "chip": "ym2612"
    },
    {
      "channel": 5,
      "note": 73,
      "start": 42.3919,
      "duration": 0.0783,
      "velocity": 104,
      "chip": "ym2612"
    },
    {
      "channel": 1,
      "note": 56,
      "start": 42.5137,
      "duration": 0.2121,
      "velocity": 108,
      "chip": "ym2612"
    },
    {
      "channel": 2,
      "note": 78,
      "start": 42.5154,
      "duration": 0.0823,
      "velocity": 104,
      "chip": "ym2612"
    },
    {
      "channel": 5,
      "note": 78,
      "start": 42.5178,
      "duration": 0.0809,
      "velocity": 104,
      "chip": "ym2612"
    },
    {
      "channel": 2,
      "note": 80,
      "start": 42.644,
      "duration": 0.0821,
      "velocity": 104,
      "chip": "ym2612"
    },
    {
      "channel": 3,
      "note": 61,
      "start": 42.6493,
      "duration": 0.077,
      "velocity": 127,
      "chip": "ym2612"
    },
    {
      "channel": 5,
      "note": 80,
      "start": 42.6513,
      "duration": 0.0754,
      "velocity": 104,
      "chip": "ym2612"
    },
    {
      "channel": 1,
      "note": 71,
      "start": 42.77,
      "duration": 0.084,
      "velocity": 108,
      "chip": "ym2612"
    },
    {
      "channel": 2,
      "note": 78,
      "start": 42.7718,
      "duration": 0.0825,
      "velocity": 104,
      "chip": "ym2612"
    },
    {
      "channel": 5,
      "note": 73,
      "start": 42.775,
      "duration": 0.0801,
      "velocity": 104,
      "chip": "ym2612"
    },
    {
      "channel": 1,
      "note": 49,
      "start": 42.8983,
      "duration": 0.2121,
      "velocity": 108,
      "chip": "ym2612"
    },
    {
      "channel": 2,
      "note": 76,
      "start": 42.9,
      "duration": 0.083,
      "velocity": 104,
      "chip": "ym2612"
    },
    {
      "channel": 5,
      "note": 78,
      "start": 42.9024,
      "duration": 0.0814,
      "velocity": 104,
      "chip": "ym2612"
    },
    {
      "channel": 2,
      "note": 75,
      "start": 43.0281,
      "duration": 0.0826,
      "velocity": 104,
      "chip": "ym2612"
    },
    {
      "channel": 3,
      "note": 61,
      "start": 43.0334,
      "duration": 0.0776,
      "velocity": 127,
      "chip": "ym2612"
    },
    {
      "channel": 5,
      "note": 80,
      "start": 43.0354,
      "duration": 0.0759,
      "velocity": 104,
      "chip": "ym2612"
    },
    {
      "channel": 1,
      "note": 68,
      "start": 43.1573,
      "duration": 0.0813,
      "velocity": 108,
      "chip": "ym2612"
    },
    {
      "channel": 2,
      "note": 71,
      "start": 43.1594,
      "duration": 0.0795,
      "velocity": 104,
      "chip": "ym2612"
    },
    {
      "channel": 3,
      "note": 61,
      "start": 43.1648,
      "duration": 0.0744,
      "velocity": 127,
      "chip": "ym2612"
    },
    {
      "channel": 5,
      "note": 78,
      "start": 43.1666,
      "duration": 0.0729,
      "velocity": 104,
      "chip": "ym2612"
    },
    {
      "channel": 1,
      "note": 49,
      "start": 43.2829,
      "duration": 0.0203,
      "velocity": 108,
      "chip": "ym2612"
    },
    {
      "channel": 2,
      "note": 73,
      "start": 43.2846,
      "duration": 0.0824,
      "velocity": 104,
      "chip": "ym2612"
    },
    {
      "channel": 5,
      "note": 76,
      "start": 43.287,
      "duration": 0.0808,
      "velocity": 104,
      "chip": "ym2612"
    },
    {
      "channel": 1,
      "note": 49,
      "start": 43.4111,
      "duration": 0.084,
      "velocity": 108,
      "chip": "ym2612"
    },
    {
      "channel": 2,
      "note": 78,
      "start": 43.4128,
      "duration": 0.0825,
      "velocity": 104,
      "chip": "ym2612"
    },
    {
      "channel": 3,
      "note": 61,
      "start": 43.4149,
      "duration": 0.0807,
      "velocity": 127,
      "chip": "ym2612"
    },
    {
      "channel": 5,
      "note": 75,
      "start": 43.4167,
      "duration": 0.0792,
      "velocity": 104,
      "chip": "ym2612"
    },
    {
      "channel": 1,
      "note": 59,
      "start": 43.5393,
      "duration": 0.0203,
      "velocity": 108,
      "chip": "ym2612"
    },
    {
      "channel": 2,
      "note": 80,
      "start": 43.5421,
      "duration": 0.0821,
      "velocity": 104,
      "chip": "ym2612"
    },
    {
      "channel": 3,
      "note": 61,
      "start": 43.5441,
      "duration": 0.0803,
      "velocity": 127,
      "chip": "ym2612"
    },
    {
      "channel": 5,
      "note": 71,
      "start": 43.5463,
      "duration": 0.0785,
      "velocity": 104,
      "chip": "ym2612"
    },
    {
      "channel": 1,
      "note": 49,
      "start": 43.6675,
      "duration": 0.0843,
      "velocity": 108,
      "chip": "ym2612"
    },
    {
      "channel": 2,
      "note": 73,
      "start": 43.6692,
      "duration": 0.0827,
      "velocity": 104,
      "chip": "ym2612"
    },
    {
      "channel": 3,
      "note": 61,
      "start": 43.6754,
      "duration": 0.0769,
      "velocity": 127,
      "chip": "ym2612"
    },
    {
      "channel": 5,
      "note": 73,
      "start": 43.6772,
      "duration": 0.0754,
      "velocity": 104,
      "chip": "ym2612"
    },
    {
      "channel": 1,
      "note": 61,
      "start": 43.7957,
      "duration": 0.0202,
      "velocity": 108,
      "chip": "ym2612"
    },
    {
      "channel": 2,
      "note": 78,
      "start": 43.7975,
      "duration": 0.0823,
      "velocity": 104,
      "chip": "ym2612"
    },
    {
      "channel": 5,
      "note": 78,
      "start": 43.7998,
      "duration": 0.0809,
      "velocity": 104,
      "chip": "ym2612"
    },
    {
      "channel": 1,
      "note": 49,
      "start": 43.9248,
      "duration": 0.0831,
      "velocity": 108,
      "chip": "ym2612"
    },
    {
      "channel": 2,
      "note": 80,
      "start": 43.9267,
      "duration": 0.0814,
      "velocity": 104,
      "chip": "ym2612"
    },
    {
      "channel": 3,
      "note": 61,
      "start": 43.932,
      "duration": 0.0765,
      "velocity": 127,
      "chip": "ym2612"
    },
    {
      "channel": 5,
      "note": 80,
      "start": 43.9339,
      "duration": 0.0748,
      "velocity": 104,
      "chip": "ym2612"
    },
    {
      "channel": 1,
      "note": 64,
      "start": 44.0532,
      "duration": 0.0829,
      "velocity": 108,
      "chip": "ym2612"
    },
    {
      "channel": 2,
      "note": 73,
      "start": 44.0549,
      "duration": 0.0814,
      "velocity": 104,
      "chip": "ym2612"
    },
    {
      "channel": 3,
      "note": 61,
      "start": 44.0579,
      "duration": 0.0787,
      "velocity": 127,
      "chip": "ym2612"
    },
    {
      "channel": 5,
      "note": 73,
      "start": 44.0597,
      "duration": 0.0772,
      "velocity": 104,
      "chip": "ym2612"
    },
    {
      "channel": 1,
      "note": 66,
      "start": 44.1804,
      "duration": 0.2121,
      "velocity": 108,
      "chip": "ym2612"
    },
    {
      "channel": 2,
      "note": 78,
      "start": 44.1821,
      "duration": 0.0824,
      "velocity": 104,
      "chip": "ym2612"
    },
    {
      "channel": 5,
      "note": 78,
      "start": 44.1844,
      "duration": 0.0809,
      "velocity": 104,
      "chip": "ym2612"
    },
    {
      "channel": 2,
      "note": 80,
      "start": 44.3107,
      "duration": 0.0821,
      "velocity": 104,
      "chip": "ym2612"
    },
    {
      "channel": 3,
      "note": 61,
      "start": 44.3128,
      "duration": 0.0802,
      "velocity": 127,
      "chip": "ym2612"
    },
    {
      "channel": 5,
      "note": 80,
      "start": 44.3148,
      "duration": 0.0786,
      "velocity": 104,
      "chip": "ym2612"
    },
    {
      "channel": 1,
      "note": 49,
      "start": 44.4367,
      "duration": 0.0844,
      "velocity": 108,
      "chip": "ym2612"
    },
    {
      "channel": 2,
      "note": 73,
      "start": 44.4384,
      "duration": 0.0829,
      "velocity": 104,
      "chip": "ym2612"
    },
    {
      "channel": 3,
      "note": 61,
      "start": 44.4414,
      "duration": 0.0802,
      "velocity": 127,
      "chip": "ym2612"
    },
    {
      "channel": 5,
      "note": 73,
      "start": 44.4432,
      "duration": 0.0788,
      "velocity": 104,
      "chip": "ym2612"
    },
    {
      "channel": 1,
      "note": 66,
      "start": 44.565,
      "duration": 0.0203,
      "velocity": 108,
      "chip": "ym2612"
    },
    {
      "channel": 2,
      "note": 78,
      "start": 44.5667,
      "duration": 0.0824,
      "velocity": 104,
      "chip": "ym2612"
    },
    {
      "channel": 5,
      "note": 78,
      "start": 44.5691,
      "duration": 0.0808,
      "velocity": 104,
      "chip": "ym2612"
    },
    {
      "channel": 1,
      "note": 56,
      "start": 44.6932,
      "duration": 0.2122,
      "velocity": 108,
      "chip": "ym2612"
    },
    {
      "channel": 2,
      "note": 80,
      "start": 44.6951,
      "duration": 0.0822,
      "velocity": 104,
      "chip": "ym2612"
    },
    {
      "channel": 3,
      "note": 61,
      "start": 44.7003,
      "duration": 0.0772,
      "velocity": 127,
      "chip": "ym2612"
    },
    {
      "channel": 5,
      "note": 80,
      "start": 44.7023,
      "duration": 0.0756,
      "velocity": 104,
      "chip": "ym2612"
    },
    {
      "channel": 2,
      "note": 78,
      "start": 44.8246,
      "duration": 0.081,
      "velocity": 104,
      "chip": "ym2612"
    },
    {
      "channel": 5,
      "note": 73,
      "start": 44.8269,
      "duration": 0.0803,
      "velocity": 104,
      "chip": "ym2612"
    },
    {
      "channel": 1,
      "note": 56,
      "start": 44.9496,
      "duration": 0.084,
      "velocity": 108,
      "chip": "ym2612"
    },
    {
      "channel": 2,
      "note": 76,
      "start": 44.9513,
      "duration": 0.0825,
      "velocity": 104,
      "chip": "ym2612"
    },
    {
      "channel": 5,
      "note": 78,
      "start": 44.9536,
      "duration": 0.081,
      "velocity": 104,
      "chip": "ym2612"
    },
    {
      "channel": 1,
      "note": 64,
      "start": 45.0778,
      "duration": 0.1295,
      "velocity": 108,
      "chip": "ym2612"
    },
    {
      "channel": 2,
      "note": 75,
      "start": 45.0795,
      "duration": 0.0824,
      "velocity": 104,
      "chip": "ym2612"
    },
    {
      "channel": 3,
      "note": 61,
      "start": 45.0848,
      "duration": 0.0775,
      "velocity": 127,
      "chip": "ym2612"
    },
    {
      "channel": 5,
      "note": 80,
      "start": 45.0868,
      "duration": 0.0758,
      "velocity": 104,
      "chip": "ym2612"
    },
    {
      "channel": 0,
      "note": 47,
      "start": 45.2059,
      "duration": 4.0583,
      "velocity": 108,
      "chip": "ym2612"
    },
    {
      "channel": 2,
      "note": 71,
      "start": 45.2141,
      "duration": 4.051,
      "velocity": 104,
      "chip": "ym2612"
    },
    {
      "channel": 3,
      "note": 61,
      "start": 45.2195,
      "duration": 0.0717,
      "velocity": 127,
      "chip": "ym2612"
    },
    {
      "channel": 5,
      "note": 78,
      "start": 45.2213,
      "duration": 0.0702,
      "velocity": 104,
      "chip": "ym2612"
    },
    {
      "channel": 4,
      "note": 47,
      "start": 45.2705,
      "duration": 4.0807,
      "velocity": 108,
      "chip": "ym2612"
    },
    {
      "channel": 1,
      "note": 49,
      "start": 45.3342,
      "duration": 0.0203,
      "velocity": 108,
      "chip": "ym2612"
    },
    {
      "channel": 5,
      "note": 76,
      "start": 45.3384,
      "duration": 0.0811,
      "velocity": 104,
      "chip": "ym2612"
    },
    {
      "channel": 1,
      "note": 49,
      "start": 45.4624,
      "duration": 0.0203,
      "velocity": 108,
      "chip": "ym2612"
    },
    {
      "channel": 3,
      "note": 61,
      "start": 45.4651,
      "duration": 0.0821,
      "velocity": 127,
      "chip": "ym2612"
    },
    {
      "channel": 5,
      "note": 75,
      "start": 45.4669,
      "duration": 0.0806,
      "velocity": 104,
      "chip": "ym2612"
    },
    {
      "channel": 1,
      "note": 49,
      "start": 45.5923,
      "duration": 0.0822,
      "velocity": 108,
      "chip": "ym2612"
    },
    {
      "channel": 3,
      "note": 61,
      "start": 45.595,
      "duration": 0.0805,
      "velocity": 127,
      "chip": "ym2612"
    },
    {
      "channel": 5,
      "note": 71,
      "start": 45.5972,
      "duration": 4.0746,
      "velocity": 104,
      "chip": "ym2612"
    },
    {
      "channel": 1,
      "note": 61,
      "start": 45.7188,
      "duration": 0.2122,
      "velocity": 108,
      "chip": "ym2612"
    },
    {
      "channel": 3,
      "note": 61,
      "start": 45.7255,
      "duration": 0.078,
      "velocity": 127,
      "chip": "ym2612"
    },
    {
      "channel": 1,
      "note": 64,
      "start": 45.9756,
      "duration": 0.02,
      "velocity": 108,
      "chip": "ym2612"
    },
    {
      "channel": 3,
      "note": 61,
      "start": 45.9814,
      "duration": 0.0786,
      "velocity": 127,
      "chip": "ym2612"
    },
    {
      "channel": 1,
      "note": 59,
      "start": 46.1034,
      "duration": 0.2122,
      "velocity": 108,
      "chip": "ym2612"
    },
    {
      "channel": 3,
      "note": 61,
      "start": 46.1061,
      "duration": 0.0821,
      "velocity": 127,
      "chip": "ym2612"
    },
    {
      "channel": 1,
      "note": 61,
      "start": 46.3604,
      "duration": 0.0197,
      "velocity": 108,
      "chip": "ym2612"
    },
    {
      "channel": 3,
      "note": 61,
      "start": 46.3631,
      "duration": 0.0814,
      "velocity": 127,
      "chip": "ym2612"
    },
    {
      "channel": 1,
      "note": 56,
      "start": 46.488,
      "duration": 0.0204,
      "velocity": 108,
      "chip": "ym2612"
    },
    {
      "channel": 3,
      "note": 61,
      "start": 46.4915,
      "duration": 0.0812,
      "velocity": 127,
      "chip": "ym2612"
    },
    {
      "channel": 1,
      "note": 56,
      "start": 46.6163,
      "duration": 0.2121,
      "velocity": 108,
      "chip": "ym2612"
    },
    {
      "channel": 3,
      "note": 61,
      "start": 46.7502,
      "duration": 0.0791,
      "velocity": 127,
      "chip": "ym2612"
    },
    {
      "channel": 1,
      "note": 71,
      "start": 46.8727,
      "duration": 0.0847,
      "velocity": 108,
      "chip": "ym2612"
    },
    {
      "channel": 1,
      "note": 49,
      "start": 47.0009,
      "duration": 0.2121,
      "velocity": 108,
      "chip": "ym2612"
    },
    {
      "channel": 3,
      "note": 61,
      "start": 47.1353,
      "duration": 0.0787,
      "velocity": 127,
      "chip": "ym2612"
    },
    {
      "channel": 1,
      "note": 68,
      "start": 47.2599,
      "duration": 0.2095,
      "velocity": 108,
      "chip": "ym2612"
    },
    {
      "channel": 3,
      "note": 61,
      "start": 47.2677,
      "duration": 0.0743,
      "velocity": 127,
      "chip": "ym2612"
    },
    {
      "channel": 1,
      "note": 64,
      "start": 47.5137,
      "duration": 0.0203,
      "velocity": 108,
      "chip": "ym2612"
    },
    {
      "channel": 3,
      "note": 61,
      "start": 47.5163,
      "duration": 0.0821,
      "velocity": 127,
      "chip": "ym2612"
    },
    {
      "channel": 1,
      "note": 59,
      "start": 47.6422,
      "duration": 0.2118,
      "velocity": 108,
      "chip": "ym2612"
    },
    {
      "channel": 3,
      "note": 61,
      "start": 47.6449,
      "duration": 0.0817,
      "velocity": 127,
      "chip": "ym2612"
    },
    {
      "channel": 3,
      "note": 61,
      "start": 47.7767,
      "duration": 0.0782,
      "velocity": 127,
      "chip": "ym2612"
    },
    {
      "channel": 1,
      "note": 66,
      "start": 47.8984,
      "duration": 0.0202,
      "velocity": 108,
      "chip": "ym2612"
    },
    {
      "channel": 1,
      "note": 61,
      "start": 48.0265,
      "duration": 0.2122,
      "velocity": 108,
      "chip": "ym2612"
    },
    {
      "channel": 3,
      "note": 61,
      "start": 48.0324,
      "duration": 0.0789,
      "velocity": 127,
      "chip": "ym2612"
    },
    {
      "channel": 3,
      "note": 61,
      "start": 48.1581,
      "duration": 0.0814,
      "velocity": 127,
      "chip": "ym2612"
    },
    {
      "channel": 1,
      "note": 49,
      "start": 48.283,
      "duration": 0.0203,
      "velocity": 108,
      "chip": "ym2612"
    },
    {
      "channel": 1,
      "note": 49,
      "start": 48.4111,
      "duration": 0.084,
      "velocity": 108,
      "chip": "ym2612"
    },
    {
      "channel": 3,
      "note": 61,
      "start": 48.417,
      "duration": 0.2078,
      "velocity": 127,
      "chip": "ym2612"
    },
    {
      "channel": 1,
      "note": 61,
      "start": 48.5394,
      "duration": 0.0202,
      "velocity": 108,
      "chip": "ym2612"
    },
    {
      "channel": 1,
      "note": 49,
      "start": 48.6676,
      "duration": 0.0839,
      "velocity": 108,
      "chip": "ym2612"
    },
    {
      "channel": 3,
      "note": 61,
      "start": 48.6703,
      "duration": 0.0821,
      "velocity": 127,
      "chip": "ym2612"
    },
    {
      "channel": 1,
      "note": 64,
      "start": 48.7958,
      "duration": 0.0203,
      "velocity": 108,
      "chip": "ym2612"
    },
    {
      "channel": 3,
      "note": 61,
      "start": 48.7984,
      "duration": 0.0821,
      "velocity": 127,
      "chip": "ym2612"
    },
    {
      "channel": 1,
      "note": 49,
      "start": 48.9248,
      "duration": 0.0832,
      "velocity": 108,
      "chip": "ym2612"
    },
    {
      "channel": 3,
      "note": 61,
      "start": 48.9275,
      "duration": 0.0813,
      "velocity": 127,
      "chip": "ym2612"
    },
    {
      "channel": 1,
      "note": 49,
      "start": 49.0522,
      "duration": 0.084,
      "velocity": 108,
      "chip": "ym2612"
    },
    {
      "channel": 3,
      "note": 61,
      "start": 49.0549,
      "duration": 0.0822,
      "velocity": 127,
      "chip": "ym2612"
    },
    {
      "channel": 1,
      "note": 68,
      "start": 49.1804,
      "duration": 0.1293,
      "velocity": 108,
      "chip": "ym2612"
    },
    {
      "channel": 3,
      "note": 61,
      "start": 49.1831,
      "duration": 0.0822,
      "velocity": 127,
      "chip": "ym2612"
    },
    {
      "channel": 0,
      "note": 64,
      "start": 49.3091,
      "duration": 0.0406,
      "velocity": 108,
      "chip": "ym2612"
    },
    {
      "channel": 2,
      "note": 49,
      "start": 49.3199,
      "duration": 0.3505,
      "velocity": 119,
      "chip": "ym2612"
    },
    {
      "channel": 3,
      "note": 61,
      "start": 49.3263,
      "duration": 0.088,
      "velocity": 127,
      "chip": "ym2612"
    },
    {
      "channel": 4,
      "note": 64,
      "start": 49.3947,
      "duration": 0.0198,
      "velocity": 108,
      "chip": "ym2612"
    },
    {
      "channel": 0,
      "note": 49,
      "start": 49.4625,
      "duration": 0.336,
      "velocity": 119,
      "chip": "ym2612"
    },
    {
      "channel": 1,
      "note": 49,
      "start": 49.4643,
      "duration": 0.0142,
      "velocity": 108,
      "chip": "ym2612"
    },
    {
      "channel": 4,
      "note": 49,
      "start": 49.5275,
      "duration": 0.3364,
      "velocity": 119,
      "chip": "ym2612"
    },
    {
      "channel": 1,
      "note": 49,
      "start": 49.5864,
      "duration": 0.0211,
      "velocity": 108,
      "chip": "ym2612"
    },
    {
      "channel": 1,
      "note": 49,
      "start": 49.7146,
      "duration": 0.084,
      "velocity": 108,
      "chip": "ym2612"
    },
    {
      "channel": 2,
      "note": 49,
      "start": 49.7163,
      "duration": 0.2105,
      "velocity": 119,
      "chip": "ym2612"
    },
    {
      "channel": 3,
      "note": 61,
      "start": 49.7184,
      "duration": 0.0807,
      "velocity": 127,
      "chip": "ym2612"
    },
    {
      "channel": 5,
      "note": 61,
      "start": 49.7249,
      "duration": 0.8437,
      "velocity": 127,
      "chip": "ym2612"
    },
    {
      "channel": 0,
      "note": 49,
      "start": 49.8428,
      "duration": 0.2121,
      "velocity": 119,
      "chip": "ym2612"
    },
    {
      "channel": 1,
      "note": 61,
      "start": 49.8445,
      "duration": 0.2106,
      "velocity": 108,
      "chip": "ym2612"
    },
    {
      "channel": 4,
      "note": 49,
      "start": 49.9085,
      "duration": 0.2118,
      "velocity": 119,
      "chip": "ym2612"
    },
    {
      "channel": 1,
      "note": 64,
      "start": 50.0993,
      "duration": 0.0203,
      "velocity": 108,
      "chip": "ym2612"
    },
    {
      "channel": 1,
      "note": 59,
      "start": 50.2274,
      "duration": 0.2132,
      "velocity": 108,
      "chip": "ym2612"
    },
    {
      "channel": 1,
      "note": 61,
      "start": 50.4839,
      "duration": 0.0208,
      "velocity": 108,
      "chip": "ym2612"
    },
    {
      "channel": 1,
      "note": 56,
      "start": 50.612,
      "duration": 0.0203,
      "velocity": 108,
      "chip": "ym2612"
    },
    {
      "channel": 3,
      "note": 61,
      "start": 50.617,
      "duration": 0.0793,
      "velocity": 127,
      "chip": "ym2612"
    },
    {
      "channel": 5,
      "note": 61,
      "start": 50.6188,
      "duration": 0.0146,
      "velocity": 127,
      "chip": "ym2612"
    },
    {
      "channel": 1,
      "note": 56,
      "start": 50.7411,
      "duration": 0.2113,
      "velocity": 108,
      "chip": "ym2612"
    },
    {
      "channel": 3,
      "note": 61,
      "start": 50.7433,
      "duration": 0.0812,
      "velocity": 127,
      "chip": "ym2612"
    },
    {
      "channel": 5,
      "note": 61,
      "start": 50.7451,
      "duration": 0.0163,
      "velocity": 127,
      "chip": "ym2612"
    },
    {
      "channel": 3,
      "note": 61,
      "start": 50.8746,
      "duration": 0.0783,
      "velocity": 127,
      "chip": "ym2612"
    },
    {
      "channel": 5,
      "note": 61,
      "start": 50.8764,
      "duration": 0.2051,
      "velocity": 127,
      "chip": "ym2612"
    },
    {
      "channel": 1,
      "note": 71,
      "start": 50.9966,
      "duration": 0.084,
      "velocity": 108,
      "chip": "ym2612"
    },
    {
      "channel": 1,
      "note": 49,
      "start": 51.1256,
      "duration": 0.2115,
      "velocity": 108,
      "chip": "ym2612"
    },
    {
      "channel": 3,
      "note": 61,
      "start": 51.131,
      "duration": 0.0782,
      "velocity": 127,
      "chip": "ym2612"
    },
    {
      "channel": 5,
      "note": 61,
      "start": 51.1328,
      "duration": 0.0133,
      "velocity": 127,
      "chip": "ym2612"
    },
    {
      "channel": 3,
      "note": 61,
      "start": 51.2552,
      "duration": 0.0822,
      "velocity": 127,
      "chip": "ym2612"
    },
    {
      "channel": 5,
      "note": 61,
      "start": 51.2578,
      "duration": 0.0177,
      "velocity": 127,
      "chip": "ym2612"
    },
    {
      "channel": 1,
      "note": 68,
      "start": 51.3849,
      "duration": 0.0804,
      "velocity": 108,
      "chip": "ym2612"
    },
    {
      "channel": 2,
      "note": 49,
      "start": 51.3908,
      "duration": 0.331,
      "velocity": 119,
      "chip": "ym2612"
    },
    {
      "channel": 3,
      "note": 61,
      "start": 51.3964,
      "duration": 0.0692,
      "velocity": 127,
      "chip": "ym2612"
    },
    {
      "channel": 5,
      "note": 61,
      "start": 51.3983,
      "duration": 0.3243,
      "velocity": 127,
      "chip": "ym2612"
    },
    {
      "channel": 0,
      "note": 49,
      "start": 51.5134,
      "duration": 0.3363,
      "velocity": 119,
      "chip": "ym2612"
    },
    {
      "channel": 1,
      "note": 49,
      "start": 51.5151,
      "duration": 0.0147,
      "velocity": 108,
      "chip": "ym2612"
    },
    {
      "channel": 4,
      "note": 49,
      "start": 51.5795,
      "duration": 0.3357,
      "velocity": 119,
      "chip": "ym2612"
    },
    {
      "channel": 1,
      "note": 49,
      "start": 51.6377,
      "duration": 0.0203,
      "velocity": 108,
      "chip": "ym2612"
    },
    {
      "channel": 1,
      "note": 49,
      "start": 51.7659,
      "duration": 0.0841,
      "velocity": 108,
      "chip": "ym2612"
    },
    {
      "channel": 2,
      "note": 49,
      "start": 51.7676,
      "duration": 0.2106,
      "velocity": 119,
      "chip": "ym2612"
    },
    {
      "channel": 3,
      "note": 61,
      "start": 51.7697,
      "duration": 0.0807,
      "velocity": 127,
      "chip": "ym2612"
    },
    {
      "channel": 5,
      "note": 61,
      "start": 51.7715,
      "duration": 0.8485,
      "velocity": 127,
      "chip": "ym2612"
    },
    {
      "channel": 0,
      "note": 49,
      "start": 51.894,
      "duration": 0.2122,
      "velocity": 119,
      "chip": "ym2612"
    },
    {
      "channel": 1,
      "note": 61,
      "start": 51.8958,
      "duration": 0.2115,
      "velocity": 108,
      "chip": "ym2612"
    },
    {
      "channel": 4,
      "note": 49,
      "start": 51.9597,
      "duration": 0.212,
      "velocity": 119,
      "chip": "ym2612"
    },
    {
      "channel": 1,
      "note": 64,
      "start": 52.1505,
      "duration": 0.0204,
      "velocity": 108,
      "chip": "ym2612"
    },
    {
      "channel": 1,
      "note": 59,
      "start": 52.2788,
      "duration": 0.2122,
      "velocity": 108,
      "chip": "ym2612"
    },
    {
      "channel": 1,
      "note": 61,
      "start": 52.5351,
      "duration": 0.0203,
      "velocity": 108,
      "chip": "ym2612"
    },
    {
      "channel": 1,
      "note": 56,
      "start": 52.6634,
      "duration": 0.0203,
      "velocity": 108,
      "chip": "ym2612"
    },
    {
      "channel": 3,
      "note": 61,
      "start": 52.6683,
      "duration": 0.0793,
      "velocity": 127,
      "chip": "ym2612"
    },
    {
      "channel": 5,
      "note": 61,
      "start": 52.6701,
      "duration": 0.0145,
      "velocity": 127,
      "chip": "ym2612"
    },
    {
      "channel": 1,
      "note": 56,
      "start": 52.7922,
      "duration": 0.2115,
      "velocity": 108,
      "chip": "ym2612"
    },
    {
      "channel": 3,
      "note": 61,
      "start": 52.7977,
      "duration": 0.0792,
      "velocity": 127,
      "chip": "ym2612"
    },
    {
      "channel": 5,
      "note": 61,
      "start": 52.7994,
      "duration": 0.0134,
      "velocity": 127,
      "chip": "ym2612"
    },
    {
      "channel": 3,
      "note": 61,
      "start": 52.9219,
      "duration": 0.0823,
      "velocity": 127,
      "chip": "ym2612"
    },
    {
      "channel": 5,
      "note": 61,
      "start": 52.9245,
      "duration": 0.2082,
      "velocity": 127,
      "chip": "ym2612"
    },
    {
      "channel": 1,
      "note": 71,
      "start": 53.048,
      "duration": 0.084,
      "velocity": 108,
      "chip": "ym2612"
    },
    {
      "channel": 3,
      "note": 61,
      "start": 53.0501,
      "duration": 0.0822,
      "velocity": 127,
      "chip": "ym2612"
    },
    {
      "channel": 1,
      "note": 49,
      "start": 53.1762,
      "duration": 0.2122,
      "velocity": 108,
      "chip": "ym2612"
    },
    {
      "channel": 3,
      "note": 61,
      "start": 53.1784,
      "duration": 0.082,
      "velocity": 127,
      "chip": "ym2612"
    },
    {
      "channel": 5,
      "note": 61,
      "start": 53.1802,
      "duration": 0.0172,
      "velocity": 127,
      "chip": "ym2612"
    },
    {
      "channel": 3,
      "note": 61,
      "start": 53.3073,
      "duration": 0.0814,
      "velocity": 127,
      "chip": "ym2612"
    },
    {
      "channel": 5,
      "note": 61,
      "start": 53.3091,
      "duration": 0.0165,
      "velocity": 127,
      "chip": "ym2612"
    },
    {
      "channel": 1,
      "note": 68,
      "start": 53.4361,
      "duration": 0.0804,
      "velocity": 108,
      "chip": "ym2612"
    },
    {
      "channel": 2,
      "note": 50,
      "start": 53.4381,
      "duration": 0.3358,
      "velocity": 119,
      "chip": "ym2612"
    },
    {
      "channel": 3,
      "note": 61,
      "start": 53.4445,
      "duration": 0.0724,
      "velocity": 127,
      "chip": "ym2612"
    },
    {
      "channel": 5,
      "note": 61,
      "start": 53.4464,
      "duration": 0.3283,
      "velocity": 127,
      "chip": "ym2612"
    },
    {
      "channel": 0,
      "note": 50,
      "start": 53.561,
      "duration": 0.3401,
      "velocity": 119,
      "chip": "ym2612"
    },
    {
      "channel": 1,
      "note": 49,
      "start": 53.5627,
      "duration": 0.0184,
      "velocity": 108,
      "chip": "ym2612"
    },
    {
      "channel": 4,
      "note": 50,
      "start": 53.6266,
      "duration": 0.3399,
      "velocity": 119,
      "chip": "ym2612"
    },
    {
      "channel": 1,
      "note": 49,
      "start": 53.689,
      "duration": 0.0203,
      "velocity": 108,
      "chip": "ym2612"
    },
    {
      "channel": 1,
      "note": 49,
      "start": 53.8173,
      "duration": 0.084,
      "velocity": 108,
      "chip": "ym2612"
    },
    {
      "channel": 2,
      "note": 50,
      "start": 53.8189,
      "duration": 0.2106,
      "velocity": 119,
      "chip": "ym2612"
    },
    {
      "channel": 3,
      "note": 61,
      "start": 53.821,
      "duration": 0.0807,
      "velocity": 127,
      "chip": "ym2612"
    },
    {
      "channel": 5,
      "note": 61,
      "start": 53.8229,
      "duration": 0.8484,
      "velocity": 127,
      "chip": "ym2612"
    },
    {
      "channel": 0,
      "note": 50,
      "start": 53.9454,
      "duration": 0.2121,
      "velocity": 119,
      "chip": "ym2612"
    },
    {
      "channel": 1,
      "note": 61,
      "start": 53.9471,
      "duration": 0.2106,
      "velocity": 108,
      "chip": "ym2612"
    },
    {
      "channel": 4,
      "note": 50,
      "start": 54.0102,
      "duration": 0.2137,
      "velocity": 119,
      "chip": "ym2612"
    },
    {
      "channel": 1,
      "note": 64,
      "start": 54.2019,
      "duration": 0.0203,
      "velocity": 108,
      "chip": "ym2612"
    },
    {
      "channel": 1,
      "note": 59,
      "start": 54.33,
      "duration": 0.2122,
      "velocity": 108,
      "chip": "ym2612"
    },
    {
      "channel": 1,
      "note": 61,
      "start": 54.5865,
      "duration": 0.0211,
      "velocity": 108,
      "chip": "ym2612"
    },
    {
      "channel": 1,
      "note": 56,
      "start": 54.7146,
      "duration": 0.0203,
      "velocity": 108,
      "chip": "ym2612"
    },
    {
      "channel": 3,
      "note": 61,
      "start": 54.7196,
      "duration": 0.0793,
      "velocity": 127,
      "chip": "ym2612"
    },
    {
      "channel": 5,
      "note": 61,
      "start": 54.7214,
      "duration": 0.0146,
      "velocity": 127,
      "chip": "ym2612"
    },
    {
      "channel": 1,
      "note": 56,
      "start": 54.8429,
      "duration": 0.2122,
      "velocity": 108,
      "chip": "ym2612"
    },
    {
      "channel": 3,
      "note": 61,
      "start": 54.8451,
      "duration": 0.082,
      "velocity": 127,
      "chip": "ym2612"
    },
    {
      "channel": 5,
      "note": 61,
      "start": 54.8468,
      "duration": 0.0172,
      "velocity": 127,
      "chip": "ym2612"
    },
    {
      "channel": 3,
      "note": 61,
      "start": 54.9772,
      "duration": 0.0783,
      "velocity": 127,
      "chip": "ym2612"
    },
    {
      "channel": 5,
      "note": 61,
      "start": 54.979,
      "duration": 0.2058,
      "velocity": 127,
      "chip": "ym2612"
    },
    {
      "channel": 1,
      "note": 71,
      "start": 55.0993,
      "duration": 0.0845,
      "velocity": 108,
      "chip": "ym2612"
    },
    {
      "channel": 1,
      "note": 49,
      "start": 55.2275,
      "duration": 0.2131,
      "velocity": 108,
      "chip": "ym2612"
    },
    {
      "channel": 3,
      "note": 61,
      "start": 55.2329,
      "duration": 0.0788,
      "velocity": 127,
      "chip": "ym2612"
    },
    {
      "channel": 5,
      "note": 61,
      "start": 55.2347,
      "duration": 0.014,
      "velocity": 127,
      "chip": "ym2612"
    },
    {
      "channel": 3,
      "note": 61,
      "start": 55.3586,
      "duration": 0.0824,
      "velocity": 127,
      "chip": "ym2612"
    },
    {
      "channel": 5,
      "note": 61,
      "start": 55.3604,
      "duration": 0.0165,
      "velocity": 127,
      "chip": "ym2612"
    },
    {
      "channel": 1,
      "note": 68,
      "start": 55.4842,
      "duration": 0.0837,
      "velocity": 108,
      "chip": "ym2612"
    },
    {
      "channel": 2,
      "note": 49,
      "start": 55.4893,
      "duration": 0.3352,
      "velocity": 119,
      "chip": "ym2612"
    },
    {
      "channel": 3,
      "note": 61,
      "start": 55.4957,
      "duration": 0.0725,
      "velocity": 127,
      "chip": "ym2612"
    },
    {
      "channel": 5,
      "note": 61,
      "start": 55.4977,
      "duration": 0.3277,
      "velocity": 127,
      "chip": "ym2612"
    },
    {
      "channel": 0,
      "note": 49,
      "start": 55.6155,
      "duration": 0.3372,
      "velocity": 119,
      "chip": "ym2612"
    },
    {
      "channel": 1,
      "note": 49,
      "start": 55.6173,
      "duration": 0.0151,
      "velocity": 108,
      "chip": "ym2612"
    },
    {
      "channel": 4,
      "note": 49,
      "start": 55.6805,
      "duration": 0.3373,
      "velocity": 119,
      "chip": "ym2612"
    },
    {
      "channel": 1,
      "note": 49,
      "start": 55.7412,
      "duration": 0.0831,
      "velocity": 108,
      "chip": "ym2612"
    },
    {
      "channel": 1,
      "note": 59,
      "start": 55.8685,
      "duration": 0.0203,
      "velocity": 108,
      "chip": "ym2612"
    },
    {
      "channel": 2,
      "note": 49,
      "start": 55.8702,
      "duration": 0.2107,
      "velocity": 119,
      "chip": "ym2612"
    },
    {
      "channel": 3,
      "note": 61,
      "start": 55.8723,
      "duration": 0.0809,
      "velocity": 127,
      "chip": "ym2612"
    },
    {
      "channel": 5,
      "note": 61,
      "start": 55.8749,
      "duration": 0.8477,
      "velocity": 127,
      "chip": "ym2612"
    },
    {
      "channel": 0,
      "note": 49,
      "start": 55.9967,
      "duration": 0.2121,
      "velocity": 119,
      "chip": "ym2612"
    },
    {
      "channel": 1,
      "note": 49,
      "start": 55.9984,
      "duration": 0.0823,
      "velocity": 108,
      "chip": "ym2612"
    },
    {
      "channel": 4,
      "note": 49,
      "start": 56.0616,
      "duration": 0.2135,
      "velocity": 119,
      "chip": "ym2612"
    },
    {
      "channel": 1,
      "note": 61,
      "start": 56.1256,
      "duration": 0.0197,
      "velocity": 108,
      "chip": "ym2612"
    },
    {
      "channel": 1,
      "note": 49,
      "start": 56.2541,
      "duration": 0.083,
      "velocity": 108,
      "chip": "ym2612"
    },
    {
      "channel": 1,
      "note": 64,
      "start": 56.3813,
      "duration": 0.084,
      "velocity": 108,
      "chip": "ym2612"
    },
    {
      "channel": 1,
      "note": 66,
      "start": 56.5095,
      "duration": 0.2122,
      "velocity": 108,
      "chip": "ym2612"
    },
    {
      "channel": 1,
      "note": 49,
      "start": 56.766,
      "duration": 0.084,
      "velocity": 108,
      "chip": "ym2612"
    },
    {
      "channel": 3,
      "note": 76,
      "start": 56.7713,
      "duration": 0.0157,
      "velocity": 112,
      "chip": "ym2612"
    },
    {
      "channel": 5,
      "note": 61,
      "start": 56.7739,
      "duration": 0.0134,
      "velocity": 127,
      "chip": "ym2612"
    },
    {
      "channel": 1,
      "note": 66,
      "start": 56.8941,
      "duration": 0.0204,
      "velocity": 108,
      "chip": "ym2612"
    },
    {
      "channel": 3,
      "note": 71,
      "start": 56.8966,
      "duration": 0.0187,
      "velocity": 112,
      "chip": "ym2612"
    },
    {
      "channel": 5,
      "note": 61,
      "start": 56.8983,
      "duration": 0.0173,
      "velocity": 127,
      "chip": "ym2612"
    },
    {
      "channel": 1,
      "note": 56,
      "start": 57.024,
      "duration": 0.2106,
      "velocity": 108,
      "chip": "ym2612"
    },
    {
      "channel": 3,
      "note": 66,
      "start": 57.0265,
      "duration": 0.0169,
      "velocity": 112,
      "chip": "ym2612"
    },
    {
      "channel": 5,
      "note": 61,
      "start": 57.0283,
      "duration": 0.2073,
      "velocity": 127,
      "chip": "ym2612"
    },
    {
      "channel": 3,
      "note": 76,
      "start": 57.1533,
      "duration": 0.0183,
      "velocity": 112,
      "chip": "ym2612"
    },
    {
      "channel": 1,
      "note": 56,
      "start": 57.2788,
      "duration": 0.084,
      "velocity": 108,
      "chip": "ym2612"
    },
    {
      "channel": 3,
      "note": 71,
      "start": 57.2812,
      "duration": 0.0186,
      "velocity": 112,
      "chip": "ym2612"
    },
    {
      "channel": 5,
      "note": 61,
      "start": 57.283,
      "duration": 0.0171,
      "velocity": 127,
      "chip": "ym2612"
    },
    {
      "channel": 1,
      "note": 64,
      "start": 57.4078,
      "duration": 0.1262,
      "velocity": 108,
      "chip": "ym2612"
    },
    {
      "channel": 3,
      "note": 66,
      "start": 57.4102,
      "duration": 0.0178,
      "velocity": 112,
      "chip": "ym2612"
    },
    {
      "channel": 5,
      "note": 61,
      "start": 57.412,
      "duration": 0.0163,
      "velocity": 127,
      "chip": "ym2612"
    },
    {
      "channel": 2,
      "note": 49,
      "start": 57.5446,
      "duration": 0.3311,
      "velocity": 119,
      "chip": "ym2612"
    },
    {
      "channel": 3,
      "note": 61,
      "start": 57.5506,
      "duration": 0.069,
      "velocity": 127,
      "chip": "ym2612"
    },
    {
      "channel": 5,
      "note": 61,
      "start": 57.5525,
      "duration": 0.324,
      "velocity": 127,
      "chip": "ym2612"
    },
    {
      "channel": 0,
      "note": 49,
      "start": 57.6669,
      "duration": 0.3368,
      "velocity": 119,
      "chip": "ym2612"
    },
    {
      "channel": 1,
      "note": 49,
      "start": 57.6686,
      "duration": 0.0151,
      "velocity": 108,
      "chip": "ym2612"
    },
    {
      "channel": 4,
      "note": 49,
      "start": 57.7317,
      "duration": 0.3373,
      "velocity": 119,
      "chip": "ym2612"
    },
    {
      "channel": 1,
      "note": 49,
      "start": 57.7929,
      "duration": 0.019,
      "velocity": 108,
      "chip": "ym2612"
    },
    {
      "channel": 1,
      "note": 49,
      "start": 57.9199,
      "duration": 0.084,
      "velocity": 108,
      "chip": "ym2612"
    },
    {
      "channel": 2,
      "note": 49,
      "start": 57.9215,
      "duration": 0.2106,
      "velocity": 119,
      "chip": "ym2612"
    },
    {
      "channel": 3,
      "note": 61,
      "start": 57.9244,
      "duration": 0.0799,
      "velocity": 127,
      "chip": "ym2612"
    },
    {
      "channel": 5,
      "note": 61,
      "start": 57.9262,
      "duration": 0.8485,
      "velocity": 127,
      "chip": "ym2612"
    },
    {
      "channel": 0,
      "note": 49,
      "start": 58.048,
      "duration": 0.2121,
      "velocity": 119,
      "chip": "ym2612"
    },
    {
      "channel": 1,
      "note": 61,
      "start": 58.0497,
      "duration": 0.2106,
      "velocity": 108,
      "chip": "ym2612"
    },
    {
      "channel": 4,
      "note": 49,
      "start": 58.1129,
      "duration": 0.2135,
      "velocity": 119,
      "chip": "ym2612"
    },
    {
      "channel": 1,
      "note": 64,
      "start": 58.3045,
      "duration": 0.0211,
      "velocity": 108,
      "chip": "ym2612"
    },
    {
      "channel": 1,
      "note": 59,
      "start": 58.4327,
      "duration": 0.2123,
      "velocity": 108,
      "chip": "ym2612"
    },
    {
      "channel": 1,
      "note": 61,
      "start": 58.6891,
      "duration": 0.0203,
      "velocity": 108,
      "chip": "ym2612"
    },
    {
      "channel": 1,
      "note": 56,
      "start": 58.8173,
      "duration": 0.0203,
      "velocity": 108,
      "chip": "ym2612"
    },
    {
      "channel": 3,
      "note": 61,
      "start": 58.8223,
      "duration": 0.0793,
      "velocity": 127,
      "chip": "ym2612"
    },
    {
      "channel": 5,
      "note": 61,
      "start": 58.8249,
      "duration": 0.0137,
      "velocity": 127,
      "chip": "ym2612"
    },
    {
      "channel": 1,
      "note": 56,
      "start": 58.9455,
      "duration": 0.2122,
      "velocity": 108,
      "chip": "ym2612"
    },
    {
      "channel": 3,
      "note": 61,
      "start": 58.9477,
      "duration": 0.082,
      "velocity": 127,
      "chip": "ym2612"
    },
    {
      "channel": 5,
      "note": 61,
      "start": 58.9494,
      "duration": 0.0172,
      "velocity": 127,
      "chip": "ym2612"
    },
    {
      "channel": 3,
      "note": 61,
      "start": 59.0798,
      "duration": 0.0782,
      "velocity": 127,
      "chip": "ym2612"
    },
    {
      "channel": 5,
      "note": 61,
      "start": 59.0816,
      "duration": 0.2051,
      "velocity": 127,
      "chip": "ym2612"
    },
    {
      "channel": 1,
      "note": 71,
      "start": 59.2019,
      "duration": 0.084,
      "velocity": 108,
      "chip": "ym2612"
    },
    {
      "channel": 1,
      "note": 49,
      "start": 59.3304,
      "duration": 0.2119,
      "velocity": 108,
      "chip": "ym2612"
    },
    {
      "channel": 3,
      "note": 61,
      "start": 59.3358,
      "duration": 0.0786,
      "velocity": 127,
      "chip": "ym2612"
    },
    {
      "channel": 5,
      "note": 61,
      "start": 59.3376,
      "duration": 0.0137,
      "velocity": 127,
      "chip": "ym2612"
    },
    {
      "channel": 3,
      "note": 61,
      "start": 59.461,
      "duration": 0.0816,
      "velocity": 127,
      "chip": "ym2612"
    },
    {
      "channel": 5,
      "note": 61,
      "start": 59.4628,
      "duration": 0.0167,
      "velocity": 127,
      "chip": "ym2612"
    },
    {
      "channel": 1,
      "note": 68,
      "start": 59.5909,
      "duration": 0.0796,
      "velocity": 108,
      "chip": "ym2612"
    },
    {
      "channel": 2,
      "note": 49,
      "start": 59.596,
      "duration": 0.331,
      "velocity": 119,
      "chip": "ym2612"
    },
    {
      "channel": 3,
      "note": 61,
      "start": 59.6016,
      "duration": 0.0693,
      "velocity": 127,
      "chip": "ym2612"
    },
    {
      "channel": 5,
      "note": 61,
      "start": 59.6035,
      "duration": 0.3244,
      "velocity": 127,
      "chip": "ym2612"
    },
    {
      "channel": 0,
      "note": 49,
      "start": 59.7181,
      "duration": 0.3368,
      "velocity": 119,
      "chip": "ym2612"
    },
    {
      "channel": 1,
      "note": 49,
      "start": 59.7199,
      "duration": 0.0151,
      "velocity": 108,
      "chip": "ym2612"
    },
    {
      "channel": 4,
      "note": 49,
      "start": 59.7831,
      "duration": 0.3373,
      "velocity": 119,
      "chip": "ym2612"
    },
    {
      "channel": 1,
      "note": 49,
      "start": 59.8429,
      "duration": 0.0209,
      "velocity": 108,
      "chip": "ym2612"
    },
    {
      "channel": 1,
      "note": 49,
      "start": 59.9711,
      "duration": 0.084,
      "velocity": 108,
      "chip": "ym2612"
    },
    {
      "channel": 2,
      "note": 49,
      "start": 59.9728,
      "duration": 0.2106,
      "velocity": 119,
      "chip": "ym2612"
    },
    {
      "channel": 3,
      "note": 61,
      "start": 59.9758,
      "duration": 0.0798,
      "velocity": 127,
      "chip": "ym2612"
    },
    {
      "channel": 5,
      "note": 61,
      "start": 59.9776,
      "duration": 0.8476,
      "velocity": 127,
      "chip": "ym2612"
    },
    {
      "channel": 0,
      "note": 49,
      "start": 60.0994,
      "duration": 0.212,
      "velocity": 119,
      "chip": "ym2612"
    },
    {
      "channel": 1,
      "note": 61,
      "start": 60.1012,
      "duration": 0.2105,
      "velocity": 108,
      "chip": "ym2612"
    },
    {
      "channel": 4,
      "note": 49,
      "start": 60.1642,
      "duration": 0.2127,
      "velocity": 119,
      "chip": "ym2612"
    },
    {
      "channel": 1,
      "note": 64,
      "start": 60.3558,
      "duration": 0.0203,
      "velocity": 108,
      "chip": "ym2612"
    },
    {
      "channel": 1,
      "note": 59,
      "start": 60.484,
      "duration": 0.2122,
      "velocity": 108,
      "chip": "ym2612"
    },
    {
      "channel": 1,
      "note": 61,
      "start": 60.7412,
      "duration": 0.0195,
      "velocity": 108,
      "chip": "ym2612"
    },
    {
      "channel": 1,
      "note": 56,
      "start": 60.8686,
      "duration": 0.0203,
      "velocity": 108,
      "chip": "ym2612"
    },
    {
      "channel": 3,
      "note": 61,
      "start": 60.8744,
      "duration": 0.0785,
      "velocity": 127,
      "chip": "ym2612"
    },
    {
      "channel": 5,
      "note": 61,
      "start": 60.8761,
      "duration": 0.0145,
      "velocity": 127,
      "chip": "ym2612"
    },
    {
      "channel": 1,
      "note": 56,
      "start": 60.9968,
      "duration": 0.2122,
      "velocity": 108,
      "chip": "ym2612"
    },
    {
      "channel": 3,
      "note": 61,
      "start": 61.0022,
      "duration": 0.0789,
      "velocity": 127,
      "chip": "ym2612"
    },
    {
      "channel": 5,
      "note": 61,
      "start": 61.0039,
      "duration": 0.014,
      "velocity": 127,
      "chip": "ym2612"
    },
    {
      "channel": 3,
      "note": 61,
      "start": 61.1277,
      "duration": 0.0817,
      "velocity": 127,
      "chip": "ym2612"
    },
    {
      "channel": 5,
      "note": 61,
      "start": 61.1295,
      "duration": 0.2084,
      "velocity": 127,
      "chip": "ym2612"
    },
    {
      "channel": 1,
      "note": 71,
      "start": 61.2532,
      "duration": 0.084,
      "velocity": 108,
      "chip": "ym2612"
    },
    {
      "channel": 3,
      "note": 61,
      "start": 61.2554,
      "duration": 0.0821,
      "velocity": 127,
      "chip": "ym2612"
    },
    {
      "channel": 1,
      "note": 49,
      "start": 61.3814,
      "duration": 0.2122,
      "velocity": 108,
      "chip": "ym2612"
    },
    {
      "channel": 3,
      "note": 61,
      "start": 61.3837,
      "duration": 0.082,
      "velocity": 127,
      "chip": "ym2612"
    },
    {
      "channel": 5,
      "note": 61,
      "start": 61.3854,
      "duration": 0.0172,
      "velocity": 127,
      "chip": "ym2612"
    },
    {
      "channel": 3,
      "note": 61,
      "start": 61.5117,
      "duration": 0.0822,
      "velocity": 127,
      "chip": "ym2612"
    },
    {
      "channel": 5,
      "note": 61,
      "start": 61.5135,
      "duration": 0.0173,
      "velocity": 127,
      "chip": "ym2612"
    },
    {
      "channel": 1,
      "note": 68,
      "start": 61.6422,
      "duration": 0.0795,
      "velocity": 108,
      "chip": "ym2612"
    },
    {
      "channel": 2,
      "note": 50,
      "start": 61.6442,
      "duration": 0.3341,
      "velocity": 119,
      "chip": "ym2612"
    },
    {
      "channel": 3,
      "note": 61,
      "start": 61.6498,
      "duration": 0.0724,
      "velocity": 127,
      "chip": "ym2612"
    },
    {
      "channel": 5,
      "note": 61,
      "start": 61.6517,
      "duration": 0.3274,
      "velocity": 127,
      "chip": "ym2612"
    },
    {
      "channel": 0,
      "note": 50,
      "start": 61.7662,
      "duration": 0.3409,
      "velocity": 119,
      "chip": "ym2612"
    },
    {
      "channel": 1,
      "note": 49,
      "start": 61.768,
      "duration": 0.0183,
      "velocity": 108,
      "chip": "ym2612"
    },
    {
      "channel": 4,
      "note": 50,
      "start": 61.8312,
      "duration": 0.3407,
      "velocity": 119,
      "chip": "ym2612"
    },
    {
      "channel": 1,
      "note": 49,
      "start": 61.8942,
      "duration": 0.0204,
      "velocity": 108,
      "chip": "ym2612"
    },
    {
      "channel": 1,
      "note": 49,
      "start": 62.0225,
      "duration": 0.0849,
      "velocity": 108,
      "chip": "ym2612"
    },
    {
      "channel": 2,
      "note": 50,
      "start": 62.0249,
      "duration": 0.2107,
      "velocity": 119,
      "chip": "ym2612"
    },
    {
      "channel": 3,
      "note": 61,
      "start": 62.0271,
      "duration": 0.0807,
      "velocity": 127,
      "chip": "ym2612"
    },
    {
      "channel": 5,
      "note": 61,
      "start": 62.0289,
      "duration": 0.8476,
      "velocity": 127,
      "chip": "ym2612"
    },
    {
      "channel": 0,
      "note": 50,
      "start": 62.1506,
      "duration": 0.2121,
      "velocity": 119,
      "chip": "ym2612"
    },
    {
      "channel": 1,
      "note": 61,
      "start": 62.1523,
      "duration": 0.2106,
      "velocity": 108,
      "chip": "ym2612"
    },
    {
      "channel": 4,
      "note": 50,
      "start": 62.2155,
      "duration": 0.2127,
      "velocity": 119,
      "chip": "ym2612"
    },
    {
      "channel": 1,
      "note": 64,
      "start": 62.4079,
      "duration": 0.0195,
      "velocity": 108,
      "chip": "ym2612"
    },
    {
      "channel": 1,
      "note": 59,
      "start": 62.5353,
      "duration": 0.2123,
      "velocity": 108,
      "chip": "ym2612"
    },
    {
      "channel": 1,
      "note": 61,
      "start": 62.7922,
      "duration": 0.0197,
      "velocity": 108,
      "chip": "ym2612"
    },
    {
      "channel": 1,
      "note": 56,
      "start": 62.9199,
      "duration": 0.0212,
      "velocity": 108,
      "chip": "ym2612"
    },
    {
      "channel": 3,
      "note": 61,
      "start": 62.9256,
      "duration": 0.0795,
      "velocity": 127,
      "chip": "ym2612"
    },
    {
      "channel": 5,
      "note": 61,
      "start": 62.9274,
      "duration": 0.0146,
      "velocity": 127,
      "chip": "ym2612"
    },
    {
      "channel": 1,
      "note": 56,
      "start": 63.0481,
      "duration": 0.2122,
      "velocity": 108,
      "chip": "ym2612"
    },
    {
      "channel": 3,
      "note": 61,
      "start": 63.0503,
      "duration": 0.0821,
      "velocity": 127,
      "chip": "ym2612"
    },
    {
      "channel": 5,
      "note": 61,
      "start": 63.052,
      "duration": 0.0172,
      "velocity": 127,
      "chip": "ym2612"
    },
    {
      "channel": 3,
      "note": 61,
      "start": 63.182,
      "duration": 0.0787,
      "velocity": 127,
      "chip": "ym2612"
    },
    {
      "channel": 5,
      "note": 61,
      "start": 63.1837,
      "duration": 0.2057,
      "velocity": 127,
      "chip": "ym2612"
    },
    {
      "channel": 1,
      "note": 71,
      "start": 63.3045,
      "duration": 0.084,
      "velocity": 108,
      "chip": "ym2612"
    },
    {
      "channel": 1,
      "note": 49,
      "start": 63.4327,
      "duration": 0.2122,
      "velocity": 108,
      "chip": "ym2612"
    },
    {
      "channel": 3,
      "note": 61,
      "start": 63.4381,
      "duration": 0.0789,
      "velocity": 127,
      "chip": "ym2612"
    },
    {
      "channel": 5,
      "note": 61,
      "start": 63.4407,
      "duration": 0.0132,
      "velocity": 127,
      "chip": "ym2612"
    },
    {
      "channel": 3,
      "note": 61,
      "start": 63.563,
      "duration": 0.0823,
      "velocity": 127,
      "chip": "ym2612"
    },
    {
      "channel": 5,
      "note": 61,
      "start": 63.5648,
      "duration": 0.0173,
      "velocity": 127,
      "chip": "ym2612"
    },
    {
      "channel": 1,
      "note": 68,
      "start": 63.6894,
      "duration": 0.2119,
      "velocity": 108,
      "chip": "ym2612"
    },
    {
      "channel": 2,
      "note": 49,
      "start": 63.6954,
      "duration": 0.3342,
      "velocity": 119,
      "chip": "ym2612"
    },
    {
      "channel": 3,
      "note": 61,
      "start": 63.701,
      "duration": 0.0739,
      "velocity": 127,
      "chip": "ym2612"
    },
    {
      "channel": 5,
      "note": 61,
      "start": 63.7071,
      "duration": 0.0042,
      "velocity": 127,
      "chip": "ym2612"
    },
    {
      "channel": 0,
      "note": 49,
      "start": 63.8208,
      "duration": 0.3368,
      "velocity": 119,
      "chip": "ym2612"
    },
    {
      "channel": 5,
      "note": 61,
      "start": 63.8257,
      "duration": 0.0128,
      "velocity": 127,
      "chip": "ym2612"
    },
    {
      "channel": 4,
      "note": 49,
      "start": 63.8857,
      "duration": 0.3382,
      "velocity": 119,
      "chip": "ym2612"
    },
    {
      "channel": 1,
      "note": 64,
      "start": 63.9456,
      "duration": 0.0203,
      "velocity": 108,
      "chip": "ym2612"
    },
    {
      "channel": 3,
      "note": 61,
      "start": 63.9478,
      "duration": 0.0821,
      "velocity": 127,
      "chip": "ym2612"
    },
    {
      "channel": 5,
      "note": 61,
      "start": 63.9496,
      "duration": 0.0807,
      "velocity": 127,
      "chip": "ym2612"
    },
    {
      "channel": 1,
      "note": 59,
      "start": 64.0746,
      "duration": 0.2113,
      "velocity": 108,
      "chip": "ym2612"
    },
    {
      "channel": 2,
      "note": 49,
      "start": 64.0763,
      "duration": 0.2099,
      "velocity": 119,
      "chip": "ym2612"
    },
    {
      "channel": 3,
      "note": 61,
      "start": 64.0784,
      "duration": 0.0798,
      "velocity": 127,
      "chip": "ym2612"
    },
    {
      "channel": 5,
      "note": 61,
      "start": 64.0802,
      "duration": 0.0148,
      "velocity": 127,
      "chip": "ym2612"
    },
    {
      "channel": 0,
      "note": 49,
      "start": 64.2019,
      "duration": 0.2121,
      "velocity": 119,
      "chip": "ym2612"
    },
    {
      "channel": 3,
      "note": 61,
      "start": 64.2098,
      "duration": 0.0766,
      "velocity": 127,
      "chip": "ym2612"
    },
    {
      "channel": 5,
      "note": 61,
      "start": 64.2115,
      "duration": 0.0752,
      "velocity": 127,
      "chip": "ym2612"
    },
    {
      "channel": 4,
      "note": 49,
      "start": 64.2663,
      "duration": 0.2131,
      "velocity": 119,
      "chip": "ym2612"
    },
    {
      "channel": 1,
      "note": 66,
      "start": 64.3302,
      "duration": 0.0204,
      "velocity": 108,
      "chip": "ym2612"
    },
    {
      "channel": 5,
      "note": 61,
      "start": 64.3327,
      "duration": 0.0188,
      "velocity": 127,
      "chip": "ym2612"
    },
    {
      "channel": 1,
      "note": 61,
      "start": 64.4589,
      "duration": 0.2117,
      "velocity": 108,
      "chip": "ym2612"
    },
    {
      "channel": 3,
      "note": 61,
      "start": 64.4643,
      "duration": 0.0789,
      "velocity": 127,
      "chip": "ym2612"
    },
    {
      "channel": 5,
      "note": 61,
      "start": 64.4661,
      "duration": 0.0136,
      "velocity": 127,
      "chip": "ym2612"
    },
    {
      "channel": 5,
      "note": 61,
      "start": 64.5229,
      "duration": 0.0207,
      "velocity": 127,
      "chip": "ym2612"
    },
    {
      "channel": 3,
      "note": 61,
      "start": 64.5887,
      "duration": 0.0822,
      "velocity": 127,
      "chip": "ym2612"
    },
    {
      "channel": 5,
      "note": 61,
      "start": 64.5913,
      "duration": 0.0174,
      "velocity": 127,
      "chip": "ym2612"
    },
    {
      "channel": 5,
      "note": 61,
      "start": 64.651,
      "duration": 0.0202,
      "velocity": 127,
      "chip": "ym2612"
    },
    {
      "channel": 1,
      "note": 49,
      "start": 64.7148,
      "duration": 0.0204,
      "velocity": 108,
      "chip": "ym2612"
    },
    {
      "channel": 5,
      "note": 61,
      "start": 64.7173,
      "duration": 0.0824,
      "velocity": 127,
      "chip": "ym2612"
    },
    {
      "channel": 1,
      "note": 49,
      "start": 64.843,
      "duration": 0.084,
      "velocity": 108,
      "chip": "ym2612"
    },
    {
      "channel": 3,
      "note": 61,
      "start": 64.8484,
      "duration": 0.2071,
      "velocity": 127,
      "chip": "ym2612"
    },
    {
      "channel": 5,
      "note": 61,
      "start": 64.8502,
      "duration": 0.0139,
      "velocity": 127,
      "chip": "ym2612"
    },
    {
      "channel": 1,
      "note": 61,
      "start": 64.9712,
      "duration": 0.0203,
      "velocity": 108,
      "chip": "ym2612"
    },
    {
      "channel": 5,
      "note": 61,
      "start": 64.9755,
      "duration": 0.0165,
      "velocity": 127,
      "chip": "ym2612"
    },
    {
      "channel": 5,
      "note": 61,
      "start": 65.0357,
      "duration": 0.02,
      "velocity": 127,
      "chip": "ym2612"
    },
    {
      "channel": 1,
      "note": 49,
      "start": 65.0994,
      "duration": 0.084,
      "velocity": 108,
      "chip": "ym2612"
    },
    {
      "channel": 3,
      "note": 61,
      "start": 65.1016,
      "duration": 0.0822,
      "velocity": 127,
      "chip": "ym2612"
    },
    {
      "channel": 5,
      "note": 61,
      "start": 65.1034,
      "duration": 0.2091,
      "velocity": 127,
      "chip": "ym2612"
    },
    {
      "channel": 1,
      "note": 64,
      "start": 65.2276,
      "duration": 0.0202,
      "velocity": 108,
      "chip": "ym2612"
    },
    {
      "channel": 3,
      "note": 61,
      "start": 65.2298,
      "duration": 0.0824,
      "velocity": 127,
      "chip": "ym2612"
    },
    {
      "channel": 1,
      "note": 49,
      "start": 65.3558,
      "duration": 0.0848,
      "velocity": 108,
      "chip": "ym2612"
    },
    {
      "channel": 3,
      "note": 61,
      "start": 65.3588,
      "duration": 0.0821,
      "velocity": 127,
      "chip": "ym2612"
    },
    {
      "channel": 5,
      "note": 61,
      "start": 65.3606,
      "duration": 0.0163,
      "velocity": 127,
      "chip": "ym2612"
    },
    {
      "channel": 1,
      "note": 49,
      "start": 65.484,
      "duration": 0.084,
      "velocity": 108,
      "chip": "ym2612"
    },
    {
      "channel": 3,
      "note": 61,
      "start": 65.4862,
      "duration": 0.0822,
      "velocity": 127,
      "chip": "ym2612"
    },
    {
      "channel": 5,
      "note": 61,
      "start": 65.488,
      "duration": 0.0172,
      "velocity": 127,
      "chip": "ym2612"
    },
    {
      "channel": 1,
      "note": 68,
      "start": 65.6133,
      "duration": 0.1259,
      "velocity": 108,
      "chip": "ym2612"
    },
    {
      "channel": 3,
      "note": 61,
      "start": 65.6155,
      "duration": 0.081,
      "velocity": 127,
      "chip": "ym2612"
    },
    {
      "channel": 5,
      "note": 61,
      "start": 65.6173,
      "duration": 0.0795,
      "velocity": 127,
      "chip": "ym2612"
    },
    {
      "channel": 2,
      "note": 49,
      "start": 65.7518,
      "duration": 0.2663,
      "velocity": 108,
      "chip": "ym2612"
    },
    {
      "channel": 3,
      "note": 61,
      "start": 65.7596,
      "duration": 0.0873,
      "velocity": 127,
      "chip": "ym2612"
    },
    {
      "channel": 5,
      "note": 61,
      "start": 65.7659,
      "duration": 0.0171,
      "velocity": 127,
      "chip": "ym2612"
    },
    {
      "channel": 0,
      "note": 49,
      "start": 65.8953,
      "duration": 0.1228,
      "velocity": 108,
      "chip": "ym2612"
    },
    {
      "channel": 1,
      "note": 49,
      "start": 65.897,
      "duration": 0.0133,
      "velocity": 108,
      "chip": "ym2612"
    },
    {
      "channel": 5,
      "note": 61,
      "start": 65.8994,
      "duration": 0.0118,
      "velocity": 127,
      "chip": "ym2612"
    },
    {
      "channel": 4,
      "note": 49,
      "start": 65.9602,
      "duration": 0.0579,
      "velocity": 108,
      "chip": "ym2612"
    }
  ]
}