{
  "track_name": "17 - Unknown Track 3",
  "duration_sec": 32.889,
  "sample_rate": 44100,
  "note_count": 574,
  "unique_pitches": 46,
  "pitch_range": 63,
  "avg_note_duration": 0.2474,
  "reconstruction_stats": {
    "notes_reconstructed": 574,
    "keyon_events": 574,
    "keyoff_events": 571,
    "orphan_keyons": 3,
    "unique_pitches": 46,
    "pitch_range": 63,
    "avg_duration_sec": 0.2474
  },
  "metadata": {
    "source": "F\\F1 Grand Prix\\17 - Unknown Track 3.vgz"
  },
  "notes": [
    {
      "channel": 4,
      "note": 56,
      "start": 0.0022,
      "duration": 0.2892,
      "velocity": 127,
      "chip": "ym2612"
    },
    {
      "channel": 4,
      "note": 56,
      "start": 0.333,
      "duration": 0.2907,
      "velocity": 127,
      "chip": "ym2612"
    },
    {
      "channel": 1,
      "note": 71,
      "start": 0.6669,
      "duration": 0.1506,
      "velocity": 58,
      "chip": "ym2612"
    },
    {
      "channel": 2,
      "note": 101,
      "start": 0.6685,
      "duration": 0.0659,
      "velocity": 106,
      "chip": "ym2612"
    },
    {
      "channel": 3,
      "note": 47,
      "start": 0.669,
      "duration": 0.2868,
      "velocity": 88,
      "chip": "ym2612"
    },
    {
      "channel": 4,
      "note": 45,
      "start": 0.6707,
      "duration": 0.2853,
      "velocity": 101,
      "chip": "ym2612"
    },
    {
      "channel": 5,
      "note": 76,
      "start": 0.6724,
      "duration": 0.1453,
      "velocity": 58,
      "chip": "ym2612"
    },
    {
      "channel": 2,
      "note": 102,
      "start": 0.7488,
      "duration": 0.7333,
      "velocity": 106,
      "chip": "ym2612"
    },
    {
      "channel": 1,
      "note": 73,
      "start": 0.8318,
      "duration": 0.2902,
      "velocity": 58,
      "chip": "ym2612"
    },
    {
      "channel": 5,
      "note": 78,
      "start": 0.832,
      "duration": 0.2901,
      "velocity": 58,
      "chip": "ym2612"
    },
    {
      "channel": 3,
      "note": 59,
      "start": 0.9976,
      "duration": 0.1522,
      "velocity": 88,
      "chip": "ym2612"
    },
    {
      "channel": 4,
      "note": 68,
      "start": 0.9996,
      "duration": 0.4408,
      "velocity": 127,
      "chip": "ym2612"
    },
    {
      "channel": 1,
      "note": 88,
      "start": 1.1636,
      "duration": 0.2906,
      "velocity": 58,
      "chip": "ym2612"
    },
    {
      "channel": 3,
      "note": 47,
      "start": 1.1638,
      "duration": 0.2906,
      "velocity": 88,
      "chip": "ym2612"
    },
    {
      "channel": 5,
      "note": 81,
      "start": 1.164,
      "duration": 0.2905,
      "velocity": 58,
      "chip": "ym2612"
    },
    {
      "channel": 1,
      "note": 71,
      "start": 1.4959,
      "duration": 0.1528,
      "velocity": 58,
      "chip": "ym2612"
    },
    {
      "channel": 2,
      "note": 100,
      "start": 1.4961,
      "duration": 0.1527,
      "velocity": 106,
      "chip": "ym2612"
    },
    {
      "channel": 3,
      "note": 47,
      "start": 1.4962,
      "duration": 0.1527,
      "velocity": 88,
      "chip": "ym2612"
    },
    {
      "channel": 4,
      "note": 45,
      "start": 1.4979,
      "duration": 0.1512,
      "velocity": 101,
      "chip": "ym2612"
    },
    {
      "channel": 5,
      "note": 76,
      "start": 1.4985,
      "duration": 0.1507,
      "velocity": 58,
      "chip": "ym2612"
    },
    {
      "channel": 1,
      "note": 71,
      "start": 1.662,
      "duration": 0.1522,
      "velocity": 58,
      "chip": "ym2612"
    },
    {
      "channel": 2,
      "note": 102,
      "start": 1.6622,
      "duration": 0.1522,
      "velocity": 106,
      "chip": "ym2612"
    },
    {
      "channel": 3,
      "note": 59,
      "start": 1.6624,
      "duration": 0.1521,
      "velocity": 88,
      "chip": "ym2612"
    },
    {
      "channel": 4,
      "note": 68,
      "start": 1.664,
      "duration": 0.2888,
      "velocity": 127,
      "chip": "ym2612"
    },
    {
      "channel": 5,
      "note": 76,
      "start": 1.6641,
      "duration": 0.1506,
      "velocity": 58,
      "chip": "ym2612"
    },
    {
      "channel": 1,
      "note": 73,
      "start": 1.8281,
      "duration": 0.1522,
      "velocity": 58,
      "chip": "ym2612"
    },
    {
      "channel": 2,
      "note": 96,
      "start": 1.8283,
      "duration": 0.069,
      "velocity": 106,
      "chip": "ym2612"
    },
    {
      "channel": 3,
      "note": 47,
      "start": 1.8285,
      "duration": 0.152,
      "velocity": 88,
      "chip": "ym2612"
    },
    {
      "channel": 5,
      "note": 78,
      "start": 1.8287,
      "duration": 0.1519,
      "velocity": 58,
      "chip": "ym2612"
    },
    {
      "channel": 2,
      "note": 97,
      "start": 1.9112,
      "duration": 0.5259,
      "velocity": 106,
      "chip": "ym2612"
    },
    {
      "channel": 3,
      "note": 49,
      "start": 1.9943,
      "duration": 0.2906,
      "velocity": 88,
      "chip": "ym2612"
    },
    {
      "channel": 4,
      "note": 45,
      "start": 1.996,
      "duration": 0.2891,
      "velocity": 101,
      "chip": "ym2612"
    },
    {
      "channel": 1,
      "note": 88,
      "start": 2.1605,
      "duration": 0.2906,
      "velocity": 58,
      "chip": "ym2612"
    },
    {
      "channel": 5,
      "note": 81,
      "start": 2.1607,
      "duration": 0.2905,
      "velocity": 58,
      "chip": "ym2612"
    },
    {
      "channel": 3,
      "note": 61,
      "start": 2.3266,
      "duration": 0.1522,
      "velocity": 88,
      "chip": "ym2612"
    },
    {
      "channel": 4,
      "note": 68,
      "start": 2.3282,
      "duration": 0.4413,
      "velocity": 127,
      "chip": "ym2612"
    },
    {
      "channel": 1,
      "note": 71,
      "start": 2.4927,
      "duration": 0.1522,
      "velocity": 58,
      "chip": "ym2612"
    },
    {
      "channel": 2,
      "note": 96,
      "start": 2.4928,
      "duration": 0.1522,
      "velocity": 106,
      "chip": "ym2612"
    },
    {
      "channel": 3,
      "note": 49,
      "start": 2.493,
      "duration": 0.2903,
      "velocity": 88,
      "chip": "ym2612"
    },
    {
      "channel": 5,
      "note": 76,
      "start": 2.4932,
      "duration": 0.1519,
      "velocity": 58,
      "chip": "ym2612"
    },
    {
      "channel": 1,
      "note": 90,
      "start": 2.6588,
      "duration": 0.2907,
      "velocity": 58,
      "chip": "ym2612"
    },
    {
      "channel": 2,
      "note": 95,
      "start": 2.659,
      "duration": 0.152,
      "velocity": 106,
      "chip": "ym2612"
    },
    {
      "channel": 5,
      "note": 83,
      "start": 2.6592,
      "duration": 0.2904,
      "velocity": 58,
      "chip": "ym2612"
    },
    {
      "channel": 2,
      "note": 93,
      "start": 2.8249,
      "duration": 0.1522,
      "velocity": 106,
      "chip": "ym2612"
    },
    {
      "channel": 3,
      "note": 49,
      "start": 2.825,
      "duration": 0.1522,
      "velocity": 88,
      "chip": "ym2612"
    },
    {
      "channel": 4,
      "note": 45,
      "start": 2.8267,
      "duration": 0.1507,
      "velocity": 101,
      "chip": "ym2612"
    },
    {
      "channel": 1,
      "note": 76,
      "start": 2.9911,
      "duration": 0.291,
      "velocity": 58,
      "chip": "ym2612"
    },
    {
      "channel": 2,
      "note": 90,
      "start": 2.9912,
      "duration": 0.152,
      "velocity": 106,
      "chip": "ym2612"
    },
    {
      "channel": 3,
      "note": 52,
      "start": 2.9914,
      "duration": 0.152,
      "velocity": 88,
      "chip": "ym2612"
    },
    {
      "channel": 4,
      "note": 68,
      "start": 2.9931,
      "duration": 0.2891,
      "velocity": 127,
      "chip": "ym2612"
    },
    {
      "channel": 5,
      "note": 69,
      "start": 2.9932,
      "duration": 0.289,
      "velocity": 58,
      "chip": "ym2612"
    },
    {
      "channel": 2,
      "note": 88,
      "start": 3.1572,
      "duration": 0.1522,
      "velocity": 106,
      "chip": "ym2612"
    },
    {
      "channel": 3,
      "note": 53,
      "start": 3.1574,
      "duration": 0.1521,
      "velocity": 88,
      "chip": "ym2612"
    },
    {
      "channel": 1,
      "note": 71,
      "start": 3.3233,
      "duration": 0.1522,
      "velocity": 58,
      "chip": "ym2612"
    },
    {
      "channel": 2,
      "note": 83,
      "start": 3.3235,
      "duration": 0.2905,
      "velocity": 106,
      "chip": "ym2612"
    },
    {
      "channel": 3,
      "note": 54,
      "start": 3.3237,
      "duration": 0.2904,
      "velocity": 88,
      "chip": "ym2612"
    },
    {
      "channel": 4,
      "note": 45,
      "start": 3.3253,
      "duration": 0.2889,
      "velocity": 101,
      "chip": "ym2612"
    },
    {
      "channel": 5,
      "note": 76,
      "start": 3.3255,
      "duration": 0.1502,
      "velocity": 58,
      "chip": "ym2612"
    },
    {
      "channel": 1,
      "note": 73,
      "start": 3.4894,
      "duration": 0.2906,
      "velocity": 58,
      "chip": "ym2612"
    },
    {
      "channel": 5,
      "note": 78,
      "start": 3.4897,
      "duration": 0.2906,
      "velocity": 58,
      "chip": "ym2612"
    },
    {
      "channel": 2,
      "note": 83,
      "start": 3.6555,
      "duration": 0.1523,
      "velocity": 106,
      "chip": "ym2612"
    },
    {
      "channel": 3,
      "note": 66,
      "start": 3.6557,
      "duration": 0.1522,
      "velocity": 88,
      "chip": "ym2612"
    },
    {
      "channel": 4,
      "note": 68,
      "start": 3.6573,
      "duration": 0.4415,
      "velocity": 127,
      "chip": "ym2612"
    },
    {
      "channel": 1,
      "note": 88,
      "start": 3.8217,
      "duration": 0.2907,
      "velocity": 58,
      "chip": "ym2612"
    },
    {
      "channel": 2,
      "note": 97,
      "start": 3.8218,
      "duration": 0.8167,
      "velocity": 106,
      "chip": "ym2612"
    },
    {
      "channel": 3,
      "note": 54,
      "start": 3.822,
      "duration": 0.2905,
      "velocity": 88,
      "chip": "ym2612"
    },
    {
      "channel": 5,
      "note": 81,
      "start": 3.8222,
      "duration": 0.2904,
      "velocity": 58,
      "chip": "ym2612"
    },
    {
      "channel": 1,
      "note": 71,
      "start": 4.1539,
      "duration": 0.1522,
      "velocity": 58,
      "chip": "ym2612"
    },
    {
      "channel": 3,
      "note": 54,
      "start": 4.154,
      "duration": 0.1522,
      "velocity": 88,
      "chip": "ym2612"
    },
    {
      "channel": 4,
      "note": 45,
      "start": 4.1557,
      "duration": 0.1507,
      "velocity": 101,
      "chip": "ym2612"
    },
    {
      "channel": 5,
      "note": 76,
      "start": 4.1559,
      "duration": 0.1506,
      "velocity": 58,
      "chip": "ym2612"
    },
    {
      "channel": 1,
      "note": 71,
      "start": 4.32,
      "duration": 0.1523,
      "velocity": 58,
      "chip": "ym2612"
    },
    {
      "channel": 3,
      "note": 66,
      "start": 4.3202,
      "duration": 0.1522,
      "velocity": 88,
      "chip": "ym2612"
    },
    {
      "channel": 4,
      "note": 68,
      "start": 4.3218,
      "duration": 0.2889,
      "velocity": 127,
      "chip": "ym2612"
    },
    {
      "channel": 5,
      "note": 76,
      "start": 4.3219,
      "duration": 0.1506,
      "velocity": 58,
      "chip": "ym2612"
    },
    {
      "channel": 1,
      "note": 73,
      "start": 4.4862,
      "duration": 0.1522,
      "velocity": 58,
      "chip": "ym2612"
    },
    {
      "channel": 3,
      "note": 54,
      "start": 4.4864,
      "duration": 0.1522,
      "velocity": 88,
      "chip": "ym2612"
    },
    {
      "channel": 5,
      "note": 78,
      "start": 4.4866,
      "duration": 0.1522,
      "velocity": 58,
      "chip": "ym2612"
    },
    {
      "channel": 3,
      "note": 54,
      "start": 4.6522,
      "duration": 0.2908,
      "velocity": 88,
      "chip": "ym2612"
    },
    {
      "channel": 4,
      "note": 45,
      "start": 4.6539,
      "duration": 0.2893,
      "velocity": 101,
      "chip": "ym2612"
    },
    {
      "channel": 1,
      "note": 88,
      "start": 4.8184,
      "duration": 0.2906,
      "velocity": 58,
      "chip": "ym2612"
    },
    {
      "channel": 2,
      "note": 85,
      "start": 4.8186,
      "duration": 0.152,
      "velocity": 106,
      "chip": "ym2612"
    },
    {
      "channel": 5,
      "note": 81,
      "start": 4.8188,
      "duration": 0.2904,
      "velocity": 58,
      "chip": "ym2612"
    },
    {
      "channel": 2,
      "note": 90,
      "start": 4.9846,
      "duration": 0.1522,
      "velocity": 106,
      "chip": "ym2612"
    },
    {
      "channel": 3,
      "note": 66,
      "start": 4.9848,
      "duration": 0.1522,
      "velocity": 88,
      "chip": "ym2612"
    },
    {
      "channel": 4,
      "note": 68,
      "start": 4.9864,
      "duration": 0.4411,
      "velocity": 127,
      "chip": "ym2612"
    },
    {
      "channel": 1,
      "note": 71,
      "start": 5.1507,
      "duration": 0.1522,
      "velocity": 58,
      "chip": "ym2612"
    },
    {
      "channel": 2,
      "note": 85,
      "start": 5.1509,
      "duration": 0.1521,
      "velocity": 106,
      "chip": "ym2612"
    },
    {
      "channel": 3,
      "note": 54,
      "start": 5.151,
      "duration": 0.2903,
      "velocity": 88,
      "chip": "ym2612"
    },
    {
      "channel": 5,
      "note": 76,
      "start": 5.1513,
      "duration": 0.1519,
      "velocity": 58,
      "chip": "ym2612"
    },
    {
      "channel": 1,
      "note": 90,
      "start": 5.3168,
      "duration": 0.2906,
      "velocity": 58,
      "chip": "ym2612"
    },
    {
      "channel": 2,
      "note": 92,
      "start": 5.317,
      "duration": 0.152,
      "velocity": 106,
      "chip": "ym2612"
    },
    {
      "channel": 5,
      "note": 83,
      "start": 5.3173,
      "duration": 0.2903,
      "velocity": 58,
      "chip": "ym2612"
    },
    {
      "channel": 2,
      "note": 85,
      "start": 5.483,
      "duration": 0.1522,
      "velocity": 106,
      "chip": "ym2612"
    },
    {
      "channel": 3,
      "note": 54,
      "start": 5.4831,
      "duration": 0.1522,
      "velocity": 88,
      "chip": "ym2612"
    },
    {
      "channel": 4,
      "note": 45,
      "start": 5.4848,
      "duration": 0.1507,
      "velocity": 101,
      "chip": "ym2612"
    },
    {
      "channel": 1,
      "note": 76,
      "start": 5.6491,
      "duration": 0.2907,
      "velocity": 58,
      "chip": "ym2612"
    },
    {
      "channel": 2,
      "note": 93,
      "start": 5.6492,
      "duration": 0.1521,
      "velocity": 106,
      "chip": "ym2612"
    },
    {
      "channel": 3,
      "note": 66,
      "start": 5.6494,
      "duration": 0.152,
      "velocity": 88,
      "chip": "ym2612"
    },
    {
      "channel": 4,
      "note": 68,
      "start": 5.651,
      "duration": 0.2889,
      "velocity": 127,
      "chip": "ym2612"
    },
    {
      "channel": 5,
      "note": 69,
      "start": 5.6512,
      "duration": 0.2888,
      "velocity": 58,
      "chip": "ym2612"
    },
    {
      "channel": 2,
      "note": 85,
      "start": 5.8154,
      "duration": 0.152,
      "velocity": 106,
      "chip": "ym2612"
    },
    {
      "channel": 3,
      "note": 54,
      "start": 5.8156,
      "duration": 0.1519,
      "velocity": 88,
      "chip": "ym2612"
    },
    {
      "channel": 1,
      "note": 71,
      "start": 5.9817,
      "duration": 0.1518,
      "velocity": 58,
      "chip": "ym2612"
    },
    {
      "channel": 2,
      "note": 101,
      "start": 5.9819,
      "duration": 0.0686,
      "velocity": 106,
      "chip": "ym2612"
    },
    {
      "channel": 3,
      "note": 47,
      "start": 5.9821,
      "duration": 0.2899,
      "velocity": 88,
      "chip": "ym2612"
    },
    {
      "channel": 4,
      "note": 45,
      "start": 5.9837,
      "duration": 0.2884,
      "velocity": 101,
      "chip": "ym2612"
    },
    {
      "channel": 5,
      "note": 76,
      "start": 5.9839,
      "duration": 0.1498,
      "velocity": 58,
      "chip": "ym2612"
    },
    {
      "channel": 2,
      "note": 102,
      "start": 6.0644,
      "duration": 0.7343,
      "velocity": 106,
      "chip": "ym2612"
    },
    {
      "channel": 1,
      "note": 73,
      "start": 6.1474,
      "duration": 0.2907,
      "velocity": 58,
      "chip": "ym2612"
    },
    {
      "channel": 5,
      "note": 78,
      "start": 6.1477,
      "duration": 0.2906,
      "velocity": 58,
      "chip": "ym2612"
    },
    {
      "channel": 3,
      "note": 59,
      "start": 6.3136,
      "duration": 0.1522,
      "velocity": 88,
      "chip": "ym2612"
    },
    {
      "channel": 4,
      "note": 68,
      "start": 6.3157,
      "duration": 0.4409,
      "velocity": 127,
      "chip": "ym2612"
    },
    {
      "channel": 1,
      "note": 88,
      "start": 6.4797,
      "duration": 0.2907,
      "velocity": 58,
      "chip": "ym2612"
    },
    {
      "channel": 3,
      "note": 47,
      "start": 6.4799,
      "duration": 0.2906,
      "velocity": 88,
      "chip": "ym2612"
    },
    {
      "channel": 5,
      "note": 81,
      "start": 6.4801,
      "duration": 0.2905,
      "velocity": 58,
      "chip": "ym2612"
    },
    {
      "channel": 1,
      "note": 71,
      "start": 6.812,
      "duration": 0.1522,
      "velocity": 58,
      "chip": "ym2612"
    },
    {
      "channel": 2,
      "note": 100,
      "start": 6.8122,
      "duration": 0.1521,
      "velocity": 106,
      "chip": "ym2612"
    },
    {
      "channel": 3,
      "note": 47,
      "start": 6.8123,
      "duration": 0.1521,
      "velocity": 88,
      "chip": "ym2612"
    },
    {
      "channel": 4,
      "note": 45,
      "start": 6.8139,
      "duration": 0.1506,
      "velocity": 101,
      "chip": "ym2612"
    },
    {
      "channel": 5,
      "note": 76,
      "start": 6.8141,
      "duration": 0.151,
      "velocity": 58,
      "chip": "ym2612"
    },
    {
      "channel": 1,
      "note": 71,
      "start": 6.978,
      "duration": 0.1523,
      "velocity": 58,
      "chip": "ym2612"
    },
    {
      "channel": 2,
      "note": 102,
      "start": 6.9782,
      "duration": 0.1522,
      "velocity": 106,
      "chip": "ym2612"
    },
    {
      "channel": 3,
      "note": 59,
      "start": 6.9784,
      "duration": 0.1522,
      "velocity": 88,
      "chip": "ym2612"
    },
    {
      "channel": 4,
      "note": 68,
      "start": 6.98,
      "duration": 0.2888,
      "velocity": 127,
      "chip": "ym2612"
    },
    {
      "channel": 5,
      "note": 76,
      "start": 6.9801,
      "duration": 0.1506,
      "velocity": 58,
      "chip": "ym2612"
    },
    {
      "channel": 1,
      "note": 73,
      "start": 7.1442,
      "duration": 0.1523,
      "velocity": 58,
      "chip": "ym2612"
    },
    {
      "channel": 2,
      "note": 96,
      "start": 7.1444,
      "duration": 0.069,
      "velocity": 106,
      "chip": "ym2612"
    },
    {
      "channel": 3,
      "note": 47,
      "start": 7.1446,
      "duration": 0.152,
      "velocity": 88,
      "chip": "ym2612"
    },
    {
      "channel": 5,
      "note": 78,
      "start": 7.1447,
      "duration": 0.152,
      "velocity": 58,
      "chip": "ym2612"
    },
    {
      "channel": 2,
      "note": 97,
      "start": 7.2273,
      "duration": 0.5259,
      "velocity": 106,
      "chip": "ym2612"
    },
    {
      "channel": 3,
      "note": 49,
      "start": 7.3103,
      "duration": 0.2906,
      "velocity": 88,
      "chip": "ym2612"
    },
    {
      "channel": 4,
      "note": 45,
      "start": 7.312,
      "duration": 0.2891,
      "velocity": 101,
      "chip": "ym2612"
    },
    {
      "channel": 1,
      "note": 88,
      "start": 7.4765,
      "duration": 0.2906,
      "velocity": 58,
      "chip": "ym2612"
    },
    {
      "channel": 5,
      "note": 81,
      "start": 7.4767,
      "duration": 0.2905,
      "velocity": 58,
      "chip": "ym2612"
    },
    {
      "channel": 3,
      "note": 61,
      "start": 7.6426,
      "duration": 0.1522,
      "velocity": 88,
      "chip": "ym2612"
    },
    {
      "channel": 4,
      "note": 68,
      "start": 7.6442,
      "duration": 0.4413,
      "velocity": 127,
      "chip": "ym2612"
    },
    {
      "channel": 1,
      "note": 71,
      "start": 7.8087,
      "duration": 0.1522,
      "velocity": 58,
      "chip": "ym2612"
    },
    {
      "channel": 2,
      "note": 96,
      "start": 7.8089,
      "duration": 0.1521,
      "velocity": 106,
      "chip": "ym2612"
    },
    {
      "channel": 3,
      "note": 49,
      "start": 7.8091,
      "duration": 0.2903,
      "velocity": 88,
      "chip": "ym2612"
    },
    {
      "channel": 5,
      "note": 76,
      "start": 7.8093,
      "duration": 0.1519,
      "velocity": 58,
      "chip": "ym2612"
    },
    {
      "channel": 1,
      "note": 90,
      "start": 7.9748,
      "duration": 0.2907,
      "velocity": 58,
      "chip": "ym2612"
    },
    {
      "channel": 2,
      "note": 95,
      "start": 7.975,
      "duration": 0.152,
      "velocity": 106,
      "chip": "ym2612"
    },
    {
      "channel": 5,
      "note": 83,
      "start": 7.9752,
      "duration": 0.2904,
      "velocity": 58,
      "chip": "ym2612"
    },
    {
      "channel": 2,
      "note": 93,
      "start": 8.141,
      "duration": 0.1522,
      "velocity": 106,
      "chip": "ym2612"
    },
    {
      "channel": 3,
      "note": 49,
      "start": 8.1411,
      "duration": 0.1522,
      "velocity": 88,
      "chip": "ym2612"
    },
    {
      "channel": 4,
      "note": 45,
      "start": 8.1428,
      "duration": 0.1507,
      "velocity": 101,
      "chip": "ym2612"
    },
    {
      "channel": 1,
      "note": 76,
      "start": 8.3071,
      "duration": 0.2907,
      "velocity": 58,
      "chip": "ym2612"
    },
    {
      "channel": 2,
      "note": 90,
      "start": 8.3072,
      "duration": 0.1521,
      "velocity": 106,
      "chip": "ym2612"
    },
    {
      "channel": 3,
      "note": 52,
      "start": 8.3074,
      "duration": 0.152,
      "velocity": 88,
      "chip": "ym2612"
    },
    {
      "channel": 4,
      "note": 68,
      "start": 8.309,
      "duration": 0.2888,
      "velocity": 127,
      "chip": "ym2612"
    },
    {
      "channel": 5,
      "note": 69,
      "start": 8.3093,
      "duration": 0.2892,
      "velocity": 58,
      "chip": "ym2612"
    },
    {
      "channel": 2,
      "note": 88,
      "start": 8.4732,
      "duration": 0.1522,
      "velocity": 106,
      "chip": "ym2612"
    },
    {
      "channel": 3,
      "note": 53,
      "start": 8.4734,
      "duration": 0.1522,
      "velocity": 88,
      "chip": "ym2612"
    },
    {
      "channel": 1,
      "note": 71,
      "start": 8.6393,
      "duration": 0.1522,
      "velocity": 58,
      "chip": "ym2612"
    },
    {
      "channel": 2,
      "note": 95,
      "start": 8.6395,
      "duration": 0.2905,
      "velocity": 106,
      "chip": "ym2612"
    },
    {
      "channel": 3,
      "note": 54,
      "start": 8.6397,
      "duration": 0.2905,
      "velocity": 88,
      "chip": "ym2612"
    },
    {
      "channel": 4,
      "note": 45,
      "start": 8.6413,
      "duration": 0.289,
      "velocity": 101,
      "chip": "ym2612"
    },
    {
      "channel": 5,
      "note": 76,
      "start": 8.6415,
      "duration": 0.1502,
      "velocity": 58,
      "chip": "ym2612"
    },
    {
      "channel": 1,
      "note": 73,
      "start": 8.8055,
      "duration": 0.2907,
      "velocity": 58,
      "chip": "ym2612"
    },
    {
      "channel": 5,
      "note": 78,
      "start": 8.8058,
      "duration": 0.2905,
      "velocity": 58,
      "chip": "ym2612"
    },
    {
      "channel": 2,
      "note": 93,
      "start": 8.9717,
      "duration": 0.1522,
      "velocity": 106,
      "chip": "ym2612"
    },
    {
      "channel": 3,
      "note": 66,
      "start": 8.9718,
      "duration": 0.1522,
      "velocity": 88,
      "chip": "ym2612"
    },
    {
      "channel": 4,
      "note": 68,
      "start": 8.9735,
      "duration": 0.4412,
      "velocity": 127,
      "chip": "ym2612"
    },
    {
      "channel": 1,
      "note": 88,
      "start": 9.1378,
      "duration": 0.2906,
      "velocity": 58,
      "chip": "ym2612"
    },
    {
      "channel": 2,
      "note": 90,
      "start": 9.1379,
      "duration": 0.4427,
      "velocity": 106,
      "chip": "ym2612"
    },
    {
      "channel": 3,
      "note": 54,
      "start": 9.1381,
      "duration": 0.2905,
      "velocity": 88,
      "chip": "ym2612"
    },
    {
      "channel": 5,
      "note": 81,
      "start": 9.1383,
      "duration": 0.2904,
      "velocity": 58,
      "chip": "ym2612"
    },
    {
      "channel": 1,
      "note": 71,
      "start": 9.47,
      "duration": 0.1522,
      "velocity": 58,
      "chip": "ym2612"
    },
    {
      "channel": 3,
      "note": 54,
      "start": 9.4701,
      "duration": 0.1522,
      "velocity": 88,
      "chip": "ym2612"
    },
    {
      "channel": 4,
      "note": 45,
      "start": 9.4718,
      "duration": 0.1507,
      "velocity": 101,
      "chip": "ym2612"
    },
    {
      "channel": 5,
      "note": 76,
      "start": 9.4719,
      "duration": 0.1507,
      "velocity": 58,
      "chip": "ym2612"
    },
    {
      "channel": 1,
      "note": 71,
      "start": 9.636,
      "duration": 0.1523,
      "velocity": 58,
      "chip": "ym2612"
    },
    {
      "channel": 2,
      "note": 89,
      "start": 9.6362,
      "duration": 0.069,
      "velocity": 106,
      "chip": "ym2612"
    },
    {
      "channel": 3,
      "note": 66,
      "start": 9.6364,
      "duration": 0.152,
      "velocity": 88,
      "chip": "ym2612"
    },
    {
      "channel": 4,
      "note": 68,
      "start": 9.6381,
      "duration": 0.2887,
      "velocity": 127,
      "chip": "ym2612"
    },
    {
      "channel": 5,
      "note": 76,
      "start": 9.6382,
      "duration": 0.1504,
      "velocity": 58,
      "chip": "ym2612"
    },
    {
      "channel": 2,
      "note": 90,
      "start": 9.7192,
      "duration": 0.4014,
      "velocity": 106,
      "chip": "ym2612"
    },
    {
      "channel": 1,
      "note": 73,
      "start": 9.8022,
      "duration": 0.1522,
      "velocity": 58,
      "chip": "ym2612"
    },
    {
      "channel": 3,
      "note": 54,
      "start": 9.8024,
      "duration": 0.1522,
      "velocity": 88,
      "chip": "ym2612"
    },
    {
      "channel": 5,
      "note": 78,
      "start": 9.8026,
      "duration": 0.1521,
      "velocity": 58,
      "chip": "ym2612"
    },
    {
      "channel": 3,
      "note": 54,
      "start": 9.9683,
      "duration": 0.2907,
      "velocity": 88,
      "chip": "ym2612"
    },
    {
      "channel": 4,
      "note": 45,
      "start": 9.9699,
      "duration": 0.2892,
      "velocity": 101,
      "chip": "ym2612"
    },
    {
      "channel": 1,
      "note": 88,
      "start": 10.1345,
      "duration": 0.2906,
      "velocity": 58,
      "chip": "ym2612"
    },
    {
      "channel": 2,
      "note": 89,
      "start": 10.1347,
      "duration": 0.069,
      "velocity": 106,
      "chip": "ym2612"
    },
    {
      "channel": 5,
      "note": 81,
      "start": 10.1349,
      "duration": 0.2903,
      "velocity": 58,
      "chip": "ym2612"
    },
    {
      "channel": 2,
      "note": 90,
      "start": 10.2176,
      "duration": 0.4015,
      "velocity": 106,
      "chip": "ym2612"
    },
    {
      "channel": 3,
      "note": 66,
      "start": 10.3007,
      "duration": 0.1522,
      "velocity": 88,
      "chip": "ym2612"
    },
    {
      "channel": 4,
      "note": 68,
      "start": 10.3023,
      "duration": 0.4413,
      "velocity": 127,
      "chip": "ym2612"
    },
    {
      "channel": 1,
      "note": 71,
      "start": 10.4667,
      "duration": 0.1523,
      "velocity": 58,
      "chip": "ym2612"
    },
    {
      "channel": 3,
      "note": 54,
      "start": 10.4669,
      "duration": 0.2905,
      "velocity": 88,
      "chip": "ym2612"
    },
    {
      "channel": 5,
      "note": 76,
      "start": 10.4671,
      "duration": 0.1521,
      "velocity": 58,
      "chip": "ym2612"
    },
    {
      "channel": 1,
      "note": 90,
      "start": 10.6329,
      "duration": 0.2907,
      "velocity": 58,
      "chip": "ym2612"
    },
    {
      "channel": 2,
      "note": 104,
      "start": 10.6331,
      "duration": 0.0689,
      "velocity": 106,
      "chip": "ym2612"
    },
    {
      "channel": 5,
      "note": 83,
      "start": 10.6333,
      "duration": 0.2904,
      "velocity": 58,
      "chip": "ym2612"
    },
    {
      "channel": 2,
      "note": 105,
      "start": 10.7159,
      "duration": 0.0692,
      "velocity": 106,
      "chip": "ym2612"
    },
    {
      "channel": 2,
      "note": 104,
      "start": 10.799,
      "duration": 0.0692,
      "velocity": 106,
      "chip": "ym2612"
    },
    {
      "channel": 3,
      "note": 54,
      "start": 10.7991,
      "duration": 0.1522,
      "velocity": 88,
      "chip": "ym2612"
    },
    {
      "channel": 4,
      "note": 45,
      "start": 10.8008,
      "duration": 0.1507,
      "velocity": 101,
      "chip": "ym2612"
    },
    {
      "channel": 2,
      "note": 100,
      "start": 10.8822,
      "duration": 0.0691,
      "velocity": 106,
      "chip": "ym2612"
    },
    {
      "channel": 1,
      "note": 76,
      "start": 10.9654,
      "duration": 0.2903,
      "velocity": 58,
      "chip": "ym2612"
    },
    {
      "channel": 2,
      "note": 95,
      "start": 10.9656,
      "duration": 0.0686,
      "velocity": 106,
      "chip": "ym2612"
    },
    {
      "channel": 3,
      "note": 66,
      "start": 10.9658,
      "duration": 0.1517,
      "velocity": 88,
      "chip": "ym2612"
    },
    {
      "channel": 4,
      "note": 68,
      "start": 10.9675,
      "duration": 0.2884,
      "velocity": 127,
      "chip": "ym2612"
    },
    {
      "channel": 5,
      "note": 69,
      "start": 10.9676,
      "duration": 0.2884,
      "velocity": 58,
      "chip": "ym2612"
    },
    {
      "channel": 2,
      "note": 93,
      "start": 11.0488,
      "duration": 0.0686,
      "velocity": 106,
      "chip": "ym2612"
    },
    {
      "channel": 2,
      "note": 92,
      "start": 11.1313,
      "duration": 0.0691,
      "velocity": 106,
      "chip": "ym2612"
    },
    {
      "channel": 3,
      "note": 54,
      "start": 11.1319,
      "duration": 0.1517,
      "velocity": 88,
      "chip": "ym2612"
    },
    {
      "channel": 2,
      "note": 88,
      "start": 11.2143,
      "duration": 0.0692,
      "velocity": 106,
      "chip": "ym2612"
    },
    {
      "channel": 1,
      "note": 71,
      "start": 11.2973,
      "duration": 0.1522,
      "velocity": 58,
      "chip": "ym2612"
    },
    {
      "channel": 2,
      "note": 101,
      "start": 11.2976,
      "duration": 0.069,
      "velocity": 106,
      "chip": "ym2612"
    },
    {
      "channel": 3,
      "note": 47,
      "start": 11.2977,
      "duration": 0.2903,
      "velocity": 88,
      "chip": "ym2612"
    },
    {
      "channel": 4,
      "note": 45,
      "start": 11.2998,
      "duration": 0.2883,
      "velocity": 101,
      "chip": "ym2612"
    },
    {
      "channel": 5,
      "note": 76,
      "start": 11.3,
      "duration": 0.1498,
      "velocity": 58,
      "chip": "ym2612"
    },
    {
      "channel": 2,
      "note": 102,
      "start": 11.3804,
      "duration": 0.7337,
      "velocity": 106,
      "chip": "ym2612"
    },
    {
      "channel": 1,
      "note": 73,
      "start": 11.4635,
      "duration": 0.2906,
      "velocity": 58,
      "chip": "ym2612"
    },
    {
      "channel": 5,
      "note": 78,
      "start": 11.4638,
      "duration": 0.2906,
      "velocity": 58,
      "chip": "ym2612"
    },
    {
      "channel": 3,
      "note": 59,
      "start": 11.6297,
      "duration": 0.1524,
      "velocity": 88,
      "chip": "ym2612"
    },
    {
      "channel": 4,
      "note": 68,
      "start": 11.6318,
      "duration": 0.4408,
      "velocity": 127,
      "chip": "ym2612"
    },
    {
      "channel": 1,
      "note": 88,
      "start": 11.7957,
      "duration": 0.2907,
      "velocity": 58,
      "chip": "ym2612"
    },
    {
      "channel": 3,
      "note": 47,
      "start": 11.796,
      "duration": 0.2906,
      "velocity": 88,
      "chip": "ym2612"
    },
    {
      "channel": 5,
      "note": 81,
      "start": 11.7961,
      "duration": 0.2906,
      "velocity": 58,
      "chip": "ym2612"
    },
    {
      "channel": 1,
      "note": 71,
      "start": 12.128,
      "duration": 0.1523,
      "velocity": 58,
      "chip": "ym2612"
    },
    {
      "channel": 2,
      "note": 100,
      "start": 12.1281,
      "duration": 0.1522,
      "velocity": 106,
      "chip": "ym2612"
    },
    {
      "channel": 3,
      "note": 47,
      "start": 12.1283,
      "duration": 0.1522,
      "velocity": 88,
      "chip": "ym2612"
    },
    {
      "channel": 4,
      "note": 45,
      "start": 12.1299,
      "duration": 0.1507,
      "velocity": 101,
      "chip": "ym2612"
    },
    {
      "channel": 5,
      "note": 76,
      "start": 12.1301,
      "duration": 0.1506,
      "velocity": 58,
      "chip": "ym2612"
    },
    {
      "channel": 1,
      "note": 71,
      "start": 12.294,
      "duration": 0.1523,
      "velocity": 58,
      "chip": "ym2612"
    },
    {
      "channel": 2,
      "note": 102,
      "start": 12.2942,
      "duration": 0.1522,
      "velocity": 106,
      "chip": "ym2612"
    },
    {
      "channel": 3,
      "note": 59,
      "start": 12.2944,
      "duration": 0.1522,
      "velocity": 88,
      "chip": "ym2612"
    },
    {
      "channel": 4,
      "note": 68,
      "start": 12.2961,
      "duration": 0.2888,
      "velocity": 127,
      "chip": "ym2612"
    },
    {
      "channel": 5,
      "note": 76,
      "start": 12.2961,
      "duration": 0.1506,
      "velocity": 58,
      "chip": "ym2612"
    },
    {
      "channel": 1,
      "note": 73,
      "start": 12.4603,
      "duration": 0.1522,
      "velocity": 58,
      "chip": "ym2612"
    },
    {
      "channel": 2,
      "note": 96,
      "start": 12.4605,
      "duration": 0.069,
      "velocity": 106,
      "chip": "ym2612"
    },
    {
      "channel": 3,
      "note": 47,
      "start": 12.4607,
      "duration": 0.152,
      "velocity": 88,
      "chip": "ym2612"
    },
    {
      "channel": 5,
      "note": 78,
      "start": 12.4608,
      "duration": 0.1519,
      "velocity": 58,
      "chip": "ym2612"
    },
    {
      "channel": 2,
      "note": 97,
      "start": 12.5434,
      "duration": 0.526,
      "velocity": 106,
      "chip": "ym2612"
    },
    {
      "channel": 3,
      "note": 49,
      "start": 12.6264,
      "duration": 0.2907,
      "velocity": 88,
      "chip": "ym2612"
    },
    {
      "channel": 4,
      "note": 45,
      "start": 12.6281,
      "duration": 0.2891,
      "velocity": 101,
      "chip": "ym2612"
    },
    {
      "channel": 1,
      "note": 88,
      "start": 12.7925,
      "duration": 0.2907,
      "velocity": 58,
      "chip": "ym2612"
    },
    {
      "channel": 5,
      "note": 81,
      "start": 12.7928,
      "duration": 0.2906,
      "velocity": 58,
      "chip": "ym2612"
    },
    {
      "channel": 3,
      "note": 61,
      "start": 12.9587,
      "duration": 0.1522,
      "velocity": 88,
      "chip": "ym2612"
    },
    {
      "channel": 4,
      "note": 68,
      "start": 12.9603,
      "duration": 0.4413,
      "velocity": 127,
      "chip": "ym2612"
    },
    {
      "channel": 1,
      "note": 71,
      "start": 13.1248,
      "duration": 0.1522,
      "velocity": 58,
      "chip": "ym2612"
    },
    {
      "channel": 2,
      "note": 96,
      "start": 13.1249,
      "duration": 0.1522,
      "velocity": 106,
      "chip": "ym2612"
    },
    {
      "channel": 3,
      "note": 49,
      "start": 13.1251,
      "duration": 0.2904,
      "velocity": 88,
      "chip": "ym2612"
    },
    {
      "channel": 5,
      "note": 76,
      "start": 13.1254,
      "duration": 0.1519,
      "velocity": 58,
      "chip": "ym2612"
    },
    {
      "channel": 1,
      "note": 90,
      "start": 13.2909,
      "duration": 0.2911,
      "velocity": 58,
      "chip": "ym2612"
    },
    {
      "channel": 2,
      "note": 95,
      "start": 13.2911,
      "duration": 0.152,
      "velocity": 106,
      "chip": "ym2612"
    },
    {
      "channel": 5,
      "note": 83,
      "start": 13.2913,
      "duration": 0.2908,
      "velocity": 58,
      "chip": "ym2612"
    },
    {
      "channel": 2,
      "note": 93,
      "start": 13.457,
      "duration": 0.1522,
      "velocity": 106,
      "chip": "ym2612"
    },
    {
      "channel": 3,
      "note": 49,
      "start": 13.4571,
      "duration": 0.1522,
      "velocity": 88,
      "chip": "ym2612"
    },
    {
      "channel": 4,
      "note": 45,
      "start": 13.4588,
      "duration": 0.1507,
      "velocity": 101,
      "chip": "ym2612"
    },
    {
      "channel": 1,
      "note": 76,
      "start": 13.6232,
      "duration": 0.2907,
      "velocity": 58,
      "chip": "ym2612"
    },
    {
      "channel": 2,
      "note": 90,
      "start": 13.6234,
      "duration": 0.152,
      "velocity": 106,
      "chip": "ym2612"
    },
    {
      "channel": 3,
      "note": 52,
      "start": 13.6235,
      "duration": 0.152,
      "velocity": 88,
      "chip": "ym2612"
    },
    {
      "channel": 4,
      "note": 68,
      "start": 13.6251,
      "duration": 0.2888,
      "velocity": 127,
      "chip": "ym2612"
    },
    {
      "channel": 5,
      "note": 69,
      "start": 13.6254,
      "duration": 0.2887,
      "velocity": 58,
      "chip": "ym2612"
    },
    {
      "channel": 2,
      "note": 88,
      "start": 13.7893,
      "duration": 0.1522,
      "velocity": 106,
      "chip": "ym2612"
    },
    {
      "channel": 3,
      "note": 53,
      "start": 13.7895,
      "duration": 0.1522,
      "velocity": 88,
      "chip": "ym2612"
    },
    {
      "channel": 1,
      "note": 71,
      "start": 13.9554,
      "duration": 0.1522,
      "velocity": 58,
      "chip": "ym2612"
    },
    {
      "channel": 2,
      "note": 83,
      "start": 13.9556,
      "duration": 0.2905,
      "velocity": 106,
      "chip": "ym2612"
    },
    {
      "channel": 3,
      "note": 54,
      "start": 13.9558,
      "duration": 0.2904,
      "velocity": 88,
      "chip": "ym2612"
    },
    {
      "channel": 4,
      "note": 45,
      "start": 13.9574,
      "duration": 0.2889,
      "velocity": 101,
      "chip": "ym2612"
    },
    {
      "channel": 5,
      "note": 76,
      "start": 13.9576,
      "duration": 0.1502,
      "velocity": 58,
      "chip": "ym2612"
    },
    {
      "channel": 1,
      "note": 73,
      "start": 14.1215,
      "duration": 0.2907,
      "velocity": 58,
      "chip": "ym2612"
    },
    {
      "channel": 5,
      "note": 78,
      "start": 14.1217,
      "duration": 0.2906,
      "velocity": 58,
      "chip": "ym2612"
    },
    {
      "channel": 2,
      "note": 83,
      "start": 14.2876,
      "duration": 0.1523,
      "velocity": 106,
      "chip": "ym2612"
    },
    {
      "channel": 3,
      "note": 66,
      "start": 14.2878,
      "duration": 0.1522,
      "velocity": 88,
      "chip": "ym2612"
    },
    {
      "channel": 4,
      "note": 68,
      "start": 14.2894,
      "duration": 0.4413,
      "velocity": 127,
      "chip": "ym2612"
    },
    {
      "channel": 1,
      "note": 88,
      "start": 14.4538,
      "duration": 0.2907,
      "velocity": 58,
      "chip": "ym2612"
    },
    {
      "channel": 2,
      "note": 97,
      "start": 14.454,
      "duration": 0.8167,
      "velocity": 106,
      "chip": "ym2612"
    },
    {
      "channel": 3,
      "note": 54,
      "start": 14.4541,
      "duration": 0.2905,
      "velocity": 88,
      "chip": "ym2612"
    },
    {
      "channel": 5,
      "note": 81,
      "start": 14.4544,
      "duration": 0.2904,
      "velocity": 58,
      "chip": "ym2612"
    },
    {
      "channel": 1,
      "note": 71,
      "start": 14.786,
      "duration": 0.1522,
      "velocity": 58,
      "chip": "ym2612"
    },
    {
      "channel": 3,
      "note": 54,
      "start": 14.7862,
      "duration": 0.1522,
      "velocity": 88,
      "chip": "ym2612"
    },
    {
      "channel": 4,
      "note": 45,
      "start": 14.7878,
      "duration": 0.1507,
      "velocity": 101,
      "chip": "ym2612"
    },
    {
      "channel": 5,
      "note": 76,
      "start": 14.788,
      "duration": 0.1506,
      "velocity": 58,
      "chip": "ym2612"
    },
    {
      "channel": 1,
      "note": 71,
      "start": 14.9521,
      "duration": 0.1522,
      "velocity": 58,
      "chip": "ym2612"
    },
    {
      "channel": 3,
      "note": 66,
      "start": 14.9523,
      "duration": 0.1522,
      "velocity": 88,
      "chip": "ym2612"
    },
    {
      "channel": 4,
      "note": 68,
      "start": 14.954,
      "duration": 0.2889,
      "velocity": 127,
      "chip": "ym2612"
    },
    {
      "channel": 5,
      "note": 76,
      "start": 14.9541,
      "duration": 0.1505,
      "velocity": 58,
      "chip": "ym2612"
    },
    {
      "channel": 1,
      "note": 73,
      "start": 15.1183,
      "duration": 0.1522,
      "velocity": 58,
      "chip": "ym2612"
    },
    {
      "channel": 3,
      "note": 54,
      "start": 15.1185,
      "duration": 0.1522,
      "velocity": 88,
      "chip": "ym2612"
    },
    {
      "channel": 5,
      "note": 78,
      "start": 15.1187,
      "duration": 0.1522,
      "velocity": 58,
      "chip": "ym2612"
    },
    {
      "channel": 3,
      "note": 54,
      "start": 15.2844,
      "duration": 0.2907,
      "velocity": 88,
      "chip": "ym2612"
    },
    {
      "channel": 4,
      "note": 45,
      "start": 15.286,
      "duration": 0.2892,
      "velocity": 101,
      "chip": "ym2612"
    },
    {
      "channel": 1,
      "note": 88,
      "start": 15.4505,
      "duration": 0.2906,
      "velocity": 58,
      "chip": "ym2612"
    },
    {
      "channel": 2,
      "note": 85,
      "start": 15.4507,
      "duration": 0.1521,
      "velocity": 106,
      "chip": "ym2612"
    },
    {
      "channel": 5,
      "note": 81,
      "start": 15.451,
      "duration": 0.2904,
      "velocity": 58,
      "chip": "ym2612"
    },
    {
      "channel": 2,
      "note": 90,
      "start": 15.6167,
      "duration": 0.1522,
      "velocity": 106,
      "chip": "ym2612"
    },
    {
      "channel": 3,
      "note": 66,
      "start": 15.6169,
      "duration": 0.1522,
      "velocity": 88,
      "chip": "ym2612"
    },
    {
      "channel": 4,
      "note": 68,
      "start": 15.6185,
      "duration": 0.4412,
      "velocity": 127,
      "chip": "ym2612"
    },
    {
      "channel": 1,
      "note": 71,
      "start": 15.7829,
      "duration": 0.1522,
      "velocity": 58,
      "chip": "ym2612"
    },
    {
      "channel": 2,
      "note": 85,
      "start": 15.783,
      "duration": 0.1521,
      "velocity": 106,
      "chip": "ym2612"
    },
    {
      "channel": 3,
      "note": 54,
      "start": 15.7832,
      "duration": 0.2903,
      "velocity": 88,
      "chip": "ym2612"
    },
    {
      "channel": 5,
      "note": 76,
      "start": 15.7834,
      "duration": 0.1519,
      "velocity": 58,
      "chip": "ym2612"
    },
    {
      "channel": 1,
      "note": 90,
      "start": 15.9489,
      "duration": 0.2907,
      "velocity": 58,
      "chip": "ym2612"
    },
    {
      "channel": 2,
      "note": 92,
      "start": 15.9491,
      "duration": 0.152,
      "velocity": 106,
      "chip": "ym2612"
    },
    {
      "channel": 5,
      "note": 83,
      "start": 15.9493,
      "duration": 0.2904,
      "velocity": 58,
      "chip": "ym2612"
    },
    {
      "channel": 2,
      "note": 85,
      "start": 16.1154,
      "duration": 0.1518,
      "velocity": 106,
      "chip": "ym2612"
    },
    {
      "channel": 3,
      "note": 54,
      "start": 16.1156,
      "duration": 0.1518,
      "velocity": 88,
      "chip": "ym2612"
    },
    {
      "channel": 4,
      "note": 45,
      "start": 16.1172,
      "duration": 0.1503,
      "velocity": 101,
      "chip": "ym2612"
    },
    {
      "channel": 1,
      "note": 76,
      "start": 16.2812,
      "duration": 0.2906,
      "velocity": 58,
      "chip": "ym2612"
    },
    {
      "channel": 2,
      "note": 93,
      "start": 16.2818,
      "duration": 0.1516,
      "velocity": 106,
      "chip": "ym2612"
    },
    {
      "channel": 3,
      "note": 66,
      "start": 16.282,
      "duration": 0.1515,
      "velocity": 88,
      "chip": "ym2612"
    },
    {
      "channel": 4,
      "note": 68,
      "start": 16.2837,
      "duration": 0.2884,
      "velocity": 127,
      "chip": "ym2612"
    },
    {
      "channel": 5,
      "note": 69,
      "start": 16.2838,
      "duration": 0.2883,
      "velocity": 58,
      "chip": "ym2612"
    },
    {
      "channel": 2,
      "note": 85,
      "start": 16.4473,
      "duration": 0.1522,
      "velocity": 106,
      "chip": "ym2612"
    },
    {
      "channel": 3,
      "note": 54,
      "start": 16.4475,
      "duration": 0.1522,
      "velocity": 88,
      "chip": "ym2612"
    },
    {
      "channel": 1,
      "note": 71,
      "start": 16.6134,
      "duration": 0.1522,
      "velocity": 58,
      "chip": "ym2612"
    },
    {
      "channel": 2,
      "note": 101,
      "start": 16.6136,
      "duration": 0.069,
      "velocity": 106,
      "chip": "ym2612"
    },
    {
      "channel": 3,
      "note": 47,
      "start": 16.6138,
      "duration": 0.2903,
      "velocity": 88,
      "chip": "ym2612"
    },
    {
      "channel": 4,
      "note": 45,
      "start": 16.6159,
      "duration": 0.2883,
      "velocity": 101,
      "chip": "ym2612"
    },
    {
      "channel": 5,
      "note": 76,
      "start": 16.6161,
      "duration": 0.1498,
      "velocity": 58,
      "chip": "ym2612"
    },
    {
      "channel": 2,
      "note": 102,
      "start": 16.6965,
      "duration": 0.7337,
      "velocity": 106,
      "chip": "ym2612"
    },
    {
      "channel": 1,
      "note": 73,
      "start": 16.7795,
      "duration": 0.2906,
      "velocity": 58,
      "chip": "ym2612"
    },
    {
      "channel": 5,
      "note": 78,
      "start": 16.7798,
      "duration": 0.2906,
      "velocity": 58,
      "chip": "ym2612"
    },
    {
      "channel": 3,
      "note": 59,
      "start": 16.9457,
      "duration": 0.1523,
      "velocity": 88,
      "chip": "ym2612"
    },
    {
      "channel": 4,
      "note": 68,
      "start": 16.9473,
      "duration": 0.4413,
      "velocity": 127,
      "chip": "ym2612"
    },
    {
      "channel": 1,
      "note": 88,
      "start": 17.1119,
      "duration": 0.2906,
      "velocity": 58,
      "chip": "ym2612"
    },
    {
      "channel": 3,
      "note": 47,
      "start": 17.112,
      "duration": 0.2906,
      "velocity": 88,
      "chip": "ym2612"
    },
    {
      "channel": 5,
      "note": 81,
      "start": 17.1122,
      "duration": 0.2905,
      "velocity": 58,
      "chip": "ym2612"
    },
    {
      "channel": 1,
      "note": 71,
      "start": 17.444,
      "duration": 0.1522,
      "velocity": 58,
      "chip": "ym2612"
    },
    {
      "channel": 2,
      "note": 100,
      "start": 17.4442,
      "duration": 0.1522,
      "velocity": 106,
      "chip": "ym2612"
    },
    {
      "channel": 3,
      "note": 47,
      "start": 17.4444,
      "duration": 0.1522,
      "velocity": 88,
      "chip": "ym2612"
    },
    {
      "channel": 4,
      "note": 45,
      "start": 17.446,
      "duration": 0.1506,
      "velocity": 101,
      "chip": "ym2612"
    },
    {
      "channel": 5,
      "note": 76,
      "start": 17.4462,
      "duration": 0.1506,
      "velocity": 58,
      "chip": "ym2612"
    },
    {
      "channel": 1,
      "note": 71,
      "start": 17.6101,
      "duration": 0.1523,
      "velocity": 58,
      "chip": "ym2612"
    },
    {
      "channel": 2,
      "note": 102,
      "start": 17.6103,
      "duration": 0.1522,
      "velocity": 106,
      "chip": "ym2612"
    },
    {
      "channel": 3,
      "note": 59,
      "start": 17.6105,
      "duration": 0.1522,
      "velocity": 88,
      "chip": "ym2612"
    },
    {
      "channel": 4,
      "note": 68,
      "start": 17.6122,
      "duration": 0.2887,
      "velocity": 127,
      "chip": "ym2612"
    },
    {
      "channel": 5,
      "note": 76,
      "start": 17.6123,
      "duration": 0.1505,
      "velocity": 58,
      "chip": "ym2612"
    },
    {
      "channel": 1,
      "note": 73,
      "start": 17.7763,
      "duration": 0.1523,
      "velocity": 58,
      "chip": "ym2612"
    },
    {
      "channel": 2,
      "note": 96,
      "start": 17.7765,
      "duration": 0.069,
      "velocity": 106,
      "chip": "ym2612"
    },
    {
      "channel": 3,
      "note": 47,
      "start": 17.7767,
      "duration": 0.152,
      "velocity": 88,
      "chip": "ym2612"
    },
    {
      "channel": 5,
      "note": 78,
      "start": 17.7769,
      "duration": 0.152,
      "velocity": 58,
      "chip": "ym2612"
    },
    {
      "channel": 2,
      "note": 97,
      "start": 17.8594,
      "duration": 0.526,
      "velocity": 106,
      "chip": "ym2612"
    },
    {
      "channel": 3,
      "note": 49,
      "start": 17.9424,
      "duration": 0.2907,
      "velocity": 88,
      "chip": "ym2612"
    },
    {
      "channel": 4,
      "note": 45,
      "start": 17.9441,
      "duration": 0.2891,
      "velocity": 101,
      "chip": "ym2612"
    },
    {
      "channel": 1,
      "note": 88,
      "start": 18.1086,
      "duration": 0.2906,
      "velocity": 58,
      "chip": "ym2612"
    },
    {
      "channel": 5,
      "note": 81,
      "start": 18.1088,
      "duration": 0.2906,
      "velocity": 58,
      "chip": "ym2612"
    },
    {
      "channel": 3,
      "note": 61,
      "start": 18.2747,
      "duration": 0.1522,
      "velocity": 88,
      "chip": "ym2612"
    },
    {
      "channel": 4,
      "note": 68,
      "start": 18.2763,
      "duration": 0.4414,
      "velocity": 127,
      "chip": "ym2612"
    },
    {
      "channel": 1,
      "note": 71,
      "start": 18.4409,
      "duration": 0.1522,
      "velocity": 58,
      "chip": "ym2612"
    },
    {
      "channel": 2,
      "note": 96,
      "start": 18.4411,
      "duration": 0.1522,
      "velocity": 106,
      "chip": "ym2612"
    },
    {
      "channel": 3,
      "note": 49,
      "start": 18.4412,
      "duration": 0.2908,
      "velocity": 88,
      "chip": "ym2612"
    },
    {
      "channel": 5,
      "note": 76,
      "start": 18.4414,
      "duration": 0.1519,
      "velocity": 58,
      "chip": "ym2612"
    },
    {
      "channel": 1,
      "note": 90,
      "start": 18.607,
      "duration": 0.2906,
      "velocity": 58,
      "chip": "ym2612"
    },
    {
      "channel": 2,
      "note": 95,
      "start": 18.6071,
      "duration": 0.152,
      "velocity": 106,
      "chip": "ym2612"
    },
    {
      "channel": 5,
      "note": 83,
      "start": 18.6074,
      "duration": 0.2904,
      "velocity": 58,
      "chip": "ym2612"
    },
    {
      "channel": 2,
      "note": 93,
      "start": 18.7731,
      "duration": 0.1522,
      "velocity": 106,
      "chip": "ym2612"
    },
    {
      "channel": 3,
      "note": 49,
      "start": 18.7732,
      "duration": 0.1522,
      "velocity": 88,
      "chip": "ym2612"
    },
    {
      "channel": 4,
      "note": 45,
      "start": 18.7749,
      "duration": 0.1507,
      "velocity": 101,
      "chip": "ym2612"
    },
    {
      "channel": 1,
      "note": 76,
      "start": 18.9392,
      "duration": 0.2907,
      "velocity": 58,
      "chip": "ym2612"
    },
    {
      "channel": 2,
      "note": 90,
      "start": 18.9393,
      "duration": 0.1521,
      "velocity": 106,
      "chip": "ym2612"
    },
    {
      "channel": 3,
      "note": 52,
      "start": 18.9395,
      "duration": 0.152,
      "velocity": 88,
      "chip": "ym2612"
    },
    {
      "channel": 4,
      "note": 68,
      "start": 18.9412,
      "duration": 0.2888,
      "velocity": 127,
      "chip": "ym2612"
    },
    {
      "channel": 5,
      "note": 69,
      "start": 18.9414,
      "duration": 0.2887,
      "velocity": 58,
      "chip": "ym2612"
    },
    {
      "channel": 2,
      "note": 88,
      "start": 19.1054,
      "duration": 0.1522,
      "velocity": 106,
      "chip": "ym2612"
    },
    {
      "channel": 3,
      "note": 53,
      "start": 19.1056,
      "duration": 0.1522,
      "velocity": 88,
      "chip": "ym2612"
    },
    {
      "channel": 1,
      "note": 71,
      "start": 19.2715,
      "duration": 0.1522,
      "velocity": 58,
      "chip": "ym2612"
    },
    {
      "channel": 2,
      "note": 95,
      "start": 19.2717,
      "duration": 0.2905,
      "velocity": 106,
      "chip": "ym2612"
    },
    {
      "channel": 3,
      "note": 54,
      "start": 19.2718,
      "duration": 0.2904,
      "velocity": 88,
      "chip": "ym2612"
    },
    {
      "channel": 4,
      "note": 45,
      "start": 19.2734,
      "duration": 0.2889,
      "velocity": 101,
      "chip": "ym2612"
    },
    {
      "channel": 5,
      "note": 76,
      "start": 19.2736,
      "duration": 0.1502,
      "velocity": 58,
      "chip": "ym2612"
    },
    {
      "channel": 1,
      "note": 73,
      "start": 19.4376,
      "duration": 0.2907,
      "velocity": 58,
      "chip": "ym2612"
    },
    {
      "channel": 5,
      "note": 78,
      "start": 19.4378,
      "duration": 0.2907,
      "velocity": 58,
      "chip": "ym2612"
    },
    {
      "channel": 2,
      "note": 93,
      "start": 19.6037,
      "duration": 0.1523,
      "velocity": 106,
      "chip": "ym2612"
    },
    {
      "channel": 3,
      "note": 66,
      "start": 19.6039,
      "duration": 0.1522,
      "velocity": 88,
      "chip": "ym2612"
    },
    {
      "channel": 4,
      "note": 68,
      "start": 19.6056,
      "duration": 0.4412,
      "velocity": 127,
      "chip": "ym2612"
    },
    {
      "channel": 1,
      "note": 88,
      "start": 19.7699,
      "duration": 0.2906,
      "velocity": 58,
      "chip": "ym2612"
    },
    {
      "channel": 2,
      "note": 90,
      "start": 19.77,
      "duration": 0.4428,
      "velocity": 106,
      "chip": "ym2612"
    },
    {
      "channel": 3,
      "note": 54,
      "start": 19.7702,
      "duration": 0.2905,
      "velocity": 88,
      "chip": "ym2612"
    },
    {
      "channel": 5,
      "note": 81,
      "start": 19.7705,
      "duration": 0.2903,
      "velocity": 58,
      "chip": "ym2612"
    },
    {
      "channel": 1,
      "note": 71,
      "start": 20.1021,
      "duration": 0.1522,
      "velocity": 58,
      "chip": "ym2612"
    },
    {
      "channel": 3,
      "note": 54,
      "start": 20.1022,
      "duration": 0.1522,
      "velocity": 88,
      "chip": "ym2612"
    },
    {
      "channel": 4,
      "note": 45,
      "start": 20.1039,
      "duration": 0.1507,
      "velocity": 101,
      "chip": "ym2612"
    },
    {
      "channel": 5,
      "note": 76,
      "start": 20.1041,
      "duration": 0.1506,
      "velocity": 58,
      "chip": "ym2612"
    },
    {
      "channel": 1,
      "note": 71,
      "start": 20.2682,
      "duration": 0.1523,
      "velocity": 58,
      "chip": "ym2612"
    },
    {
      "channel": 2,
      "note": 89,
      "start": 20.2683,
      "duration": 0.069,
      "velocity": 106,
      "chip": "ym2612"
    },
    {
      "channel": 3,
      "note": 66,
      "start": 20.2685,
      "duration": 0.1521,
      "velocity": 88,
      "chip": "ym2612"
    },
    {
      "channel": 4,
      "note": 68,
      "start": 20.2702,
      "duration": 0.2888,
      "velocity": 127,
      "chip": "ym2612"
    },
    {
      "channel": 5,
      "note": 76,
      "start": 20.2703,
      "duration": 0.1505,
      "velocity": 58,
      "chip": "ym2612"
    },
    {
      "channel": 2,
      "note": 90,
      "start": 20.3513,
      "duration": 0.4014,
      "velocity": 106,
      "chip": "ym2612"
    },
    {
      "channel": 1,
      "note": 73,
      "start": 20.4344,
      "duration": 0.1522,
      "velocity": 58,
      "chip": "ym2612"
    },
    {
      "channel": 3,
      "note": 54,
      "start": 20.4346,
      "duration": 0.1521,
      "velocity": 88,
      "chip": "ym2612"
    },
    {
      "channel": 5,
      "note": 78,
      "start": 20.4348,
      "duration": 0.1521,
      "velocity": 58,
      "chip": "ym2612"
    },
    {
      "channel": 3,
      "note": 54,
      "start": 20.6005,
      "duration": 0.2907,
      "velocity": 88,
      "chip": "ym2612"
    },
    {
      "channel": 4,
      "note": 45,
      "start": 20.6021,
      "duration": 0.2893,
      "velocity": 101,
      "chip": "ym2612"
    },
    {
      "channel": 1,
      "note": 88,
      "start": 20.7666,
      "duration": 0.2906,
      "velocity": 58,
      "chip": "ym2612"
    },
    {
      "channel": 2,
      "note": 89,
      "start": 20.7668,
      "duration": 0.069,
      "velocity": 106,
      "chip": "ym2612"
    },
    {
      "channel": 5,
      "note": 81,
      "start": 20.7671,
      "duration": 0.2903,
      "velocity": 58,
      "chip": "ym2612"
    },
    {
      "channel": 2,
      "note": 90,
      "start": 20.8497,
      "duration": 0.4015,
      "velocity": 106,
      "chip": "ym2612"
    },
    {
      "channel": 3,
      "note": 66,
      "start": 20.9328,
      "duration": 0.1522,
      "velocity": 88,
      "chip": "ym2612"
    },
    {
      "channel": 4,
      "note": 68,
      "start": 20.9344,
      "duration": 0.4413,
      "velocity": 127,
      "chip": "ym2612"
    },
    {
      "channel": 1,
      "note": 71,
      "start": 21.0989,
      "duration": 0.1522,
      "velocity": 58,
      "chip": "ym2612"
    },
    {
      "channel": 3,
      "note": 54,
      "start": 21.0991,
      "duration": 0.2905,
      "velocity": 88,
      "chip": "ym2612"
    },
    {
      "channel": 5,
      "note": 76,
      "start": 21.0993,
      "duration": 0.152,
      "velocity": 58,
      "chip": "ym2612"
    },
    {
      "channel": 1,
      "note": 90,
      "start": 21.2654,
      "duration": 0.2903,
      "velocity": 58,
      "chip": "ym2612"
    },
    {
      "channel": 2,
      "note": 104,
      "start": 21.2656,
      "duration": 0.0685,
      "velocity": 106,
      "chip": "ym2612"
    },
    {
      "channel": 5,
      "note": 83,
      "start": 21.2659,
      "duration": 0.2899,
      "velocity": 58,
      "chip": "ym2612"
    },
    {
      "channel": 2,
      "note": 105,
      "start": 21.3485,
      "duration": 0.0687,
      "velocity": 106,
      "chip": "ym2612"
    },
    {
      "channel": 2,
      "note": 104,
      "start": 21.4311,
      "duration": 0.0691,
      "velocity": 106,
      "chip": "ym2612"
    },
    {
      "channel": 3,
      "note": 54,
      "start": 21.4313,
      "duration": 0.1522,
      "velocity": 88,
      "chip": "ym2612"
    },
    {
      "channel": 4,
      "note": 45,
      "start": 21.4334,
      "duration": 0.1502,
      "velocity": 101,
      "chip": "ym2612"
    },
    {
      "channel": 2,
      "note": 100,
      "start": 21.5142,
      "duration": 0.0691,
      "velocity": 106,
      "chip": "ym2612"
    },
    {
      "channel": 1,
      "note": 76,
      "start": 21.5972,
      "duration": 0.2906,
      "velocity": 58,
      "chip": "ym2612"
    },
    {
      "channel": 2,
      "note": 95,
      "start": 21.5974,
      "duration": 0.069,
      "velocity": 106,
      "chip": "ym2612"
    },
    {
      "channel": 3,
      "note": 66,
      "start": 21.5976,
      "duration": 0.152,
      "velocity": 88,
      "chip": "ym2612"
    },
    {
      "channel": 4,
      "note": 68,
      "start": 21.5996,
      "duration": 0.2884,
      "velocity": 127,
      "chip": "ym2612"
    },
    {
      "channel": 5,
      "note": 69,
      "start": 21.5998,
      "duration": 0.2883,
      "velocity": 58,
      "chip": "ym2612"
    },
    {
      "channel": 2,
      "note": 93,
      "start": 21.6803,
      "duration": 0.0692,
      "velocity": 106,
      "chip": "ym2612"
    },
    {
      "channel": 2,
      "note": 92,
      "start": 21.7633,
      "duration": 0.0692,
      "velocity": 106,
      "chip": "ym2612"
    },
    {
      "channel": 3,
      "note": 54,
      "start": 21.7635,
      "duration": 0.1522,
      "velocity": 88,
      "chip": "ym2612"
    },
    {
      "channel": 2,
      "note": 88,
      "start": 21.8465,
      "duration": 0.0691,
      "velocity": 106,
      "chip": "ym2612"
    },
    {
      "channel": 1,
      "note": 88,
      "start": 21.9295,
      "duration": 1.1628,
      "velocity": 58,
      "chip": "ym2612"
    },
    {
      "channel": 2,
      "note": 93,
      "start": 21.9297,
      "duration": 0.5812,
      "velocity": 106,
      "chip": "ym2612"
    },
    {
      "channel": 3,
      "note": 53,
      "start": 21.9299,
      "duration": 0.2902,
      "velocity": 88,
      "chip": "ym2612"
    },
    {
      "channel": 4,
      "note": 45,
      "start": 21.932,
      "duration": 0.2884,
      "velocity": 101,
      "chip": "ym2612"
    },
    {
      "channel": 5,
      "note": 93,
      "start": 21.9322,
      "duration": 1.1606,
      "velocity": 58,
      "chip": "ym2612"
    },
    {
      "channel": 3,
      "note": 53,
      "start": 22.2617,
      "duration": 0.1523,
      "velocity": 88,
      "chip": "ym2612"
    },
    {
      "channel": 4,
      "note": 68,
      "start": 22.2633,
      "duration": 0.4414,
      "velocity": 127,
      "chip": "ym2612"
    },
    {
      "channel": 3,
      "note": 53,
      "start": 22.4278,
      "duration": 0.2908,
      "velocity": 88,
      "chip": "ym2612"
    },
    {
      "channel": 2,
      "note": 93,
      "start": 22.5939,
      "duration": 0.1523,
      "velocity": 106,
      "chip": "ym2612"
    },
    {
      "channel": 2,
      "note": 91,
      "start": 22.7601,
      "duration": 0.1522,
      "velocity": 106,
      "chip": "ym2612"
    },
    {
      "channel": 3,
      "note": 53,
      "start": 22.7603,
      "duration": 0.2905,
      "velocity": 88,
      "chip": "ym2612"
    },
    {
      "channel": 4,
      "note": 45,
      "start": 22.7619,
      "duration": 0.1506,
      "velocity": 101,
      "chip": "ym2612"
    },
    {
      "channel": 2,
      "note": 89,
      "start": 22.9263,
      "duration": 0.1522,
      "velocity": 106,
      "chip": "ym2612"
    },
    {
      "channel": 4,
      "note": 68,
      "start": 22.928,
      "duration": 0.289,
      "velocity": 127,
      "chip": "ym2612"
    },
    {
      "channel": 2,
      "note": 88,
      "start": 23.0925,
      "duration": 0.1521,
      "velocity": 106,
      "chip": "ym2612"
    },
    {
      "channel": 3,
      "note": 53,
      "start": 23.0927,
      "duration": 0.1521,
      "velocity": 88,
      "chip": "ym2612"
    },
    {
      "channel": 1,
      "note": 86,
      "start": 23.2585,
      "duration": 1.1629,
      "velocity": 58,
      "chip": "ym2612"
    },
    {
      "channel": 2,
      "note": 86,
      "start": 23.2587,
      "duration": 0.4428,
      "velocity": 106,
      "chip": "ym2612"
    },
    {
      "channel": 3,
      "note": 52,
      "start": 23.2589,
      "duration": 0.2903,
      "velocity": 88,
      "chip": "ym2612"
    },
    {
      "channel": 4,
      "note": 45,
      "start": 23.2605,
      "duration": 0.2888,
      "velocity": 101,
      "chip": "ym2612"
    },
    {
      "channel": 5,
      "note": 91,
      "start": 23.2607,
      "duration": 1.1609,
      "velocity": 58,
      "chip": "ym2612"
    },
    {
      "channel": 3,
      "note": 52,
      "start": 23.5907,
      "duration": 0.1522,
      "velocity": 88,
      "chip": "ym2612"
    },
    {
      "channel": 4,
      "note": 68,
      "start": 23.5924,
      "duration": 0.4414,
      "velocity": 127,
      "chip": "ym2612"
    },
    {
      "channel": 2,
      "note": 84,
      "start": 23.757,
      "duration": 0.4429,
      "velocity": 106,
      "chip": "ym2612"
    },
    {
      "channel": 3,
      "note": 52,
      "start": 23.7571,
      "duration": 0.2905,
      "velocity": 88,
      "chip": "ym2612"
    },
    {
      "channel": 3,
      "note": 52,
      "start": 24.0891,
      "duration": 0.2907,
      "velocity": 88,
      "chip": "ym2612"
    },
    {
      "channel": 4,
      "note": 45,
      "start": 24.0907,
      "duration": 0.1507,
      "velocity": 101,
      "chip": "ym2612"
    },
    {
      "channel": 2,
      "note": 86,
      "start": 24.2553,
      "duration": 0.2907,
      "velocity": 106,
      "chip": "ym2612"
    },
    {
      "channel": 4,
      "note": 68,
      "start": 24.257,
      "duration": 0.2891,
      "velocity": 127,
      "chip": "ym2612"
    },
    {
      "channel": 3,
      "note": 52,
      "start": 24.4215,
      "duration": 0.1522,
      "velocity": 88,
      "chip": "ym2612"
    },
    {
      "channel": 1,
      "note": 87,
      "start": 24.5876,
      "duration": 1.1628,
      "velocity": 58,
      "chip": "ym2612"
    },
    {
      "channel": 2,
      "note": 91,
      "start": 24.5878,
      "duration": 0.5812,
      "velocity": 106,
      "chip": "ym2612"
    },
    {
      "channel": 3,
      "note": 56,
      "start": 24.5879,
      "duration": 0.2903,
      "velocity": 88,
      "chip": "ym2612"
    },
    {
      "channel": 4,
      "note": 45,
      "start": 24.5895,
      "duration": 0.2888,
      "velocity": 101,
      "chip": "ym2612"
    },
    {
      "channel": 5,
      "note": 91,
      "start": 24.5897,
      "duration": 1.1611,
      "velocity": 58,
      "chip": "ym2612"
    },
    {
      "channel": 3,
      "note": 56,
      "start": 24.9198,
      "duration": 0.1523,
      "velocity": 88,
      "chip": "ym2612"
    },
    {
      "channel": 4,
      "note": 68,
      "start": 24.9214,
      "duration": 0.4413,
      "velocity": 127,
      "chip": "ym2612"
    },
    {
      "channel": 3,
      "note": 56,
      "start": 25.0859,
      "duration": 0.2907,
      "velocity": 88,
      "chip": "ym2612"
    },
    {
      "channel": 2,
      "note": 91,
      "start": 25.2519,
      "duration": 0.1524,
      "velocity": 106,
      "chip": "ym2612"
    },
    {
      "channel": 2,
      "note": 89,
      "start": 25.4182,
      "duration": 0.1522,
      "velocity": 106,
      "chip": "ym2612"
    },
    {
      "channel": 3,
      "note": 56,
      "start": 25.4183,
      "duration": 0.2906,
      "velocity": 88,
      "chip": "ym2612"
    },
    {
      "channel": 4,
      "note": 45,
      "start": 25.4199,
      "duration": 0.1506,
      "velocity": 101,
      "chip": "ym2612"
    },
    {
      "channel": 2,
      "note": 87,
      "start": 25.5842,
      "duration": 0.1522,
      "velocity": 106,
      "chip": "ym2612"
    },
    {
      "channel": 4,
      "note": 68,
      "start": 25.5859,
      "duration": 0.2891,
      "velocity": 127,
      "chip": "ym2612"
    },
    {
      "channel": 2,
      "note": 86,
      "start": 25.7505,
      "duration": 0.1521,
      "velocity": 106,
      "chip": "ym2612"
    },
    {
      "channel": 3,
      "note": 56,
      "start": 25.7507,
      "duration": 0.1521,
      "velocity": 88,
      "chip": "ym2612"
    },
    {
      "channel": 1,
      "note": 86,
      "start": 25.9166,
      "duration": 1.1628,
      "velocity": 58,
      "chip": "ym2612"
    },
    {
      "channel": 2,
      "note": 84,
      "start": 25.9168,
      "duration": 0.4427,
      "velocity": 106,
      "chip": "ym2612"
    },
    {
      "channel": 3,
      "note": 51,
      "start": 25.9169,
      "duration": 0.2903,
      "velocity": 88,
      "chip": "ym2612"
    },
    {
      "channel": 4,
      "note": 45,
      "start": 25.9185,
      "duration": 0.2889,
      "velocity": 101,
      "chip": "ym2612"
    },
    {
      "channel": 5,
      "note": 89,
      "start": 25.9187,
      "duration": 1.1609,
      "velocity": 58,
      "chip": "ym2612"
    },
    {
      "channel": 3,
      "note": 51,
      "start": 26.2488,
      "duration": 0.1523,
      "velocity": 88,
      "chip": "ym2612"
    },
    {
      "channel": 4,
      "note": 68,
      "start": 26.2504,
      "duration": 0.4414,
      "velocity": 127,
      "chip": "ym2612"
    },
    {
      "channel": 2,
      "note": 82,
      "start": 26.4154,
      "duration": 0.4424,
      "velocity": 106,
      "chip": "ym2612"
    },
    {
      "channel": 3,
      "note": 51,
      "start": 26.4156,
      "duration": 0.2901,
      "velocity": 88,
      "chip": "ym2612"
    },
    {
      "channel": 3,
      "note": 51,
      "start": 26.7472,
      "duration": 0.2907,
      "velocity": 88,
      "chip": "ym2612"
    },
    {
      "channel": 4,
      "note": 45,
      "start": 26.7492,
      "duration": 0.1502,
      "velocity": 101,
      "chip": "ym2612"
    },
    {
      "channel": 2,
      "note": 84,
      "start": 26.9133,
      "duration": 0.2907,
      "velocity": 106,
      "chip": "ym2612"
    },
    {
      "channel": 4,
      "note": 68,
      "start": 26.9154,
      "duration": 0.2888,
      "velocity": 127,
      "chip": "ym2612"
    },
    {
      "channel": 3,
      "note": 51,
      "start": 27.0795,
      "duration": 0.1525,
      "velocity": 88,
      "chip": "ym2612"
    },
    {
      "channel": 1,
      "note": 81,
      "start": 27.2456,
      "duration": 0.4429,
      "velocity": 58,
      "chip": "ym2612"
    },
    {
      "channel": 2,
      "note": 98,
      "start": 27.2458,
      "duration": 0.152,
      "velocity": 106,
      "chip": "ym2612"
    },
    {
      "channel": 3,
      "note": 52,
      "start": 27.246,
      "duration": 0.2903,
      "velocity": 88,
      "chip": "ym2612"
    },
    {
      "channel": 4,
      "note": 45,
      "start": 27.2476,
      "duration": 0.2888,
      "velocity": 101,
      "chip": "ym2612"
    },
    {
      "channel": 5,
      "note": 86,
      "start": 27.2477,
      "duration": 0.441,
      "velocity": 58,
      "chip": "ym2612"
    },
    {
      "channel": 2,
      "note": 86,
      "start": 27.4117,
      "duration": 0.1522,
      "velocity": 106,
      "chip": "ym2612"
    },
    {
      "channel": 2,
      "note": 93,
      "start": 27.5779,
      "duration": 0.1522,
      "velocity": 106,
      "chip": "ym2612"
    },
    {
      "channel": 3,
      "note": 52,
      "start": 27.578,
      "duration": 0.1522,
      "velocity": 88,
      "chip": "ym2612"
    },
    {
      "channel": 4,
      "note": 68,
      "start": 27.5796,
      "duration": 0.4412,
      "velocity": 127,
      "chip": "ym2612"
    },
    {
      "channel": 1,
      "note": 83,
      "start": 27.744,
      "duration": 0.8167,
      "velocity": 58,
      "chip": "ym2612"
    },
    {
      "channel": 2,
      "note": 100,
      "start": 27.7442,
      "duration": 0.152,
      "velocity": 106,
      "chip": "ym2612"
    },
    {
      "channel": 3,
      "note": 52,
      "start": 27.7443,
      "duration": 0.2903,
      "velocity": 88,
      "chip": "ym2612"
    },
    {
      "channel": 5,
      "note": 88,
      "start": 27.7445,
      "duration": 0.8166,
      "velocity": 58,
      "chip": "ym2612"
    },
    {
      "channel": 2,
      "note": 88,
      "start": 27.9101,
      "duration": 0.1522,
      "velocity": 106,
      "chip": "ym2612"
    },
    {
      "channel": 2,
      "note": 95,
      "start": 28.0762,
      "duration": 0.1522,
      "velocity": 106,
      "chip": "ym2612"
    },
    {
      "channel": 3,
      "note": 52,
      "start": 28.0763,
      "duration": 0.2905,
      "velocity": 88,
      "chip": "ym2612"
    },
    {
      "channel": 4,
      "note": 45,
      "start": 28.078,
      "duration": 0.1505,
      "velocity": 101,
      "chip": "ym2612"
    },
    {
      "channel": 2,
      "note": 100,
      "start": 28.2423,
      "duration": 0.1522,
      "velocity": 106,
      "chip": "ym2612"
    },
    {
      "channel": 4,
      "note": 68,
      "start": 28.244,
      "duration": 0.289,
      "velocity": 127,
      "chip": "ym2612"
    },
    {
      "channel": 2,
      "note": 88,
      "start": 28.4085,
      "duration": 0.1524,
      "velocity": 106,
      "chip": "ym2612"
    },
    {
      "channel": 3,
      "note": 52,
      "start": 28.4086,
      "duration": 0.1524,
      "velocity": 88,
      "chip": "ym2612"
    },
    {
      "channel": 1,
      "note": 84,
      "start": 28.5746,
      "duration": 0.4429,
      "velocity": 58,
      "chip": "ym2612"
    },
    {
      "channel": 2,
      "note": 101,
      "start": 28.5748,
      "duration": 0.152,
      "velocity": 106,
      "chip": "ym2612"
    },
    {
      "channel": 3,
      "note": 52,
      "start": 28.5749,
      "duration": 0.2905,
      "velocity": 88,
      "chip": "ym2612"
    },
    {
      "channel": 4,
      "note": 45,
      "start": 28.5766,
      "duration": 0.2889,
      "velocity": 101,
      "chip": "ym2612"
    },
    {
      "channel": 5,
      "note": 89,
      "start": 28.5767,
      "duration": 0.4409,
      "velocity": 58,
      "chip": "ym2612"
    },
    {
      "channel": 2,
      "note": 89,
      "start": 28.7407,
      "duration": 0.1522,
      "velocity": 106,
      "chip": "ym2612"
    },
    {
      "channel": 2,
      "note": 96,
      "start": 28.9068,
      "duration": 0.1522,
      "velocity": 106,
      "chip": "ym2612"
    },
    {
      "channel": 3,
      "note": 52,
      "start": 28.907,
      "duration": 0.1522,
      "velocity": 88,
      "chip": "ym2612"
    },
    {
      "channel": 4,
      "note": 68,
      "start": 28.9086,
      "duration": 0.4412,
      "velocity": 127,
      "chip": "ym2612"
    },
    {
      "channel": 1,
      "note": 86,
      "start": 29.0729,
      "duration": 0.8167,
      "velocity": 58,
      "chip": "ym2612"
    },
    {
      "channel": 2,
      "note": 103,
      "start": 29.0731,
      "duration": 0.1521,
      "velocity": 106,
      "chip": "ym2612"
    },
    {
      "channel": 3,
      "note": 52,
      "start": 29.0732,
      "duration": 0.2904,
      "velocity": 88,
      "chip": "ym2612"
    },
    {
      "channel": 5,
      "note": 91,
      "start": 29.0734,
      "duration": 0.8167,
      "velocity": 58,
      "chip": "ym2612"
    },
    {
      "channel": 2,
      "note": 91,
      "start": 29.2391,
      "duration": 0.1522,
      "velocity": 106,
      "chip": "ym2612"
    },
    {
      "channel": 2,
      "note": 98,
      "start": 29.4052,
      "duration": 0.1522,
      "velocity": 106,
      "chip": "ym2612"
    },
    {
      "channel": 3,
      "note": 52,
      "start": 29.4054,
      "duration": 0.2905,
      "velocity": 88,
      "chip": "ym2612"
    },
    {
      "channel": 4,
      "note": 45,
      "start": 29.407,
      "duration": 0.1505,
      "velocity": 101,
      "chip": "ym2612"
    },
    {
      "channel": 2,
      "note": 103,
      "start": 29.5713,
      "duration": 0.1522,
      "velocity": 106,
      "chip": "ym2612"
    },
    {
      "channel": 4,
      "note": 68,
      "start": 29.573,
      "duration": 0.289,
      "velocity": 127,
      "chip": "ym2612"
    },
    {
      "channel": 2,
      "note": 91,
      "start": 29.7375,
      "duration": 0.1523,
      "velocity": 106,
      "chip": "ym2612"
    },
    {
      "channel": 3,
      "note": 52,
      "start": 29.7376,
      "duration": 0.1523,
      "velocity": 88,
      "chip": "ym2612"
    },
    {
      "channel": 1,
      "note": 81,
      "start": 29.9036,
      "duration": 0.4429,
      "velocity": 58,
      "chip": "ym2612"
    },
    {
      "channel": 2,
      "note": 105,
      "start": 29.9038,
      "duration": 0.152,
      "velocity": 106,
      "chip": "ym2612"
    },
    {
      "channel": 3,
      "note": 52,
      "start": 29.9039,
      "duration": 0.2903,
      "velocity": 88,
      "chip": "ym2612"
    },
    {
      "channel": 4,
      "note": 45,
      "start": 29.9056,
      "duration": 0.2888,
      "velocity": 101,
      "chip": "ym2612"
    },
    {
      "channel": 5,
      "note": 86,
      "start": 29.9058,
      "duration": 0.441,
      "velocity": 58,
      "chip": "ym2612"
    },
    {
      "channel": 2,
      "note": 93,
      "start": 30.0697,
      "duration": 0.1523,
      "velocity": 106,
      "chip": "ym2612"
    },
    {
      "channel": 2,
      "note": 98,
      "start": 30.2358,
      "duration": 0.1522,
      "velocity": 106,
      "chip": "ym2612"
    },
    {
      "channel": 3,
      "note": 52,
      "start": 30.236,
      "duration": 0.1522,
      "velocity": 88,
      "chip": "ym2612"
    },
    {
      "channel": 4,
      "note": 68,
      "start": 30.2376,
      "duration": 0.4412,
      "velocity": 127,
      "chip": "ym2612"
    },
    {
      "channel": 1,
      "note": 83,
      "start": 30.402,
      "duration": 0.8167,
      "velocity": 58,
      "chip": "ym2612"
    },
    {
      "channel": 2,
      "note": 107,
      "start": 30.4021,
      "duration": 0.1521,
      "velocity": 106,
      "chip": "ym2612"
    },
    {
      "channel": 3,
      "note": 54,
      "start": 30.4023,
      "duration": 0.2903,
      "velocity": 88,
      "chip": "ym2612"
    },
    {
      "channel": 5,
      "note": 88,
      "start": 30.4026,
      "duration": 0.8165,
      "velocity": 58,
      "chip": "ym2612"
    },
    {
      "channel": 2,
      "note": 95,
      "start": 30.5682,
      "duration": 0.1522,
      "velocity": 106,
      "chip": "ym2612"
    },
    {
      "channel": 2,
      "note": 100,
      "start": 30.7342,
      "duration": 0.1522,
      "velocity": 106,
      "chip": "ym2612"
    },
    {
      "channel": 3,
      "note": 54,
      "start": 30.7344,
      "duration": 0.2905,
      "velocity": 88,
      "chip": "ym2612"
    },
    {
      "channel": 4,
      "note": 45,
      "start": 30.736,
      "duration": 0.1506,
      "velocity": 101,
      "chip": "ym2612"
    },
    {
      "channel": 2,
      "note": 107,
      "start": 30.9003,
      "duration": 0.1522,
      "velocity": 106,
      "chip": "ym2612"
    },
    {
      "channel": 4,
      "note": 68,
      "start": 30.902,
      "duration": 0.2891,
      "velocity": 127,
      "chip": "ym2612"
    },
    {
      "channel": 2,
      "note": 95,
      "start": 31.0665,
      "duration": 0.1523,
      "velocity": 106,
      "chip": "ym2612"
    },
    {
      "channel": 3,
      "note": 54,
      "start": 31.0666,
      "duration": 0.1523,
      "velocity": 88,
      "chip": "ym2612"
    },
    {
      "channel": 1,
      "note": 86,
      "start": 31.2326,
      "duration": 0.4429,
      "velocity": 58,
      "chip": "ym2612"
    },
    {
      "channel": 2,
      "note": 106,
      "start": 31.2328,
      "duration": 0.152,
      "velocity": 106,
      "chip": "ym2612"
    },
    {
      "channel": 3,
      "note": 48,
      "start": 31.233,
      "duration": 0.2903,
      "velocity": 88,
      "chip": "ym2612"
    },
    {
      "channel": 4,
      "note": 45,
      "start": 31.2346,
      "duration": 0.2889,
      "velocity": 101,
      "chip": "ym2612"
    },
    {
      "channel": 5,
      "note": 89,
      "start": 31.2348,
      "duration": 0.441,
      "velocity": 58,
      "chip": "ym2612"
    },
    {
      "channel": 2,
      "note": 94,
      "start": 31.3988,
      "duration": 0.1522,
      "velocity": 106,
      "chip": "ym2612"
    },
    {
      "channel": 2,
      "note": 101,
      "start": 31.5654,
      "duration": 0.1517,
      "velocity": 106,
      "chip": "ym2612"
    },
    {
      "channel": 3,
      "note": 48,
      "start": 31.5656,
      "duration": 0.1517,
      "velocity": 88,
      "chip": "ym2612"
    },
    {
      "channel": 4,
      "note": 68,
      "start": 31.5672,
      "duration": 0.4406,
      "velocity": 127,
      "chip": "ym2612"
    },
    {
      "channel": 1,
      "note": 88,
      "start": 31.7309,
      "duration": 0.2907,
      "velocity": 58,
      "chip": "ym2612"
    },
    {
      "channel": 2,
      "note": 108,
      "start": 31.7311,
      "duration": 0.2907,
      "velocity": 106,
      "chip": "ym2612"
    },
    {
      "channel": 3,
      "note": 50,
      "start": 31.7318,
      "duration": 0.2901,
      "velocity": 88,
      "chip": "ym2612"
    },
    {
      "channel": 5,
      "note": 91,
      "start": 31.732,
      "duration": 0.2901,
      "velocity": 58,
      "chip": "ym2612"
    },
    {
      "channel": 1,
      "note": 88,
      "start": 32.0632,
      "duration": 0.1522,
      "velocity": 58,
      "chip": "ym2612"
    },
    {
      "channel": 2,
      "note": 108,
      "start": 32.0633,
      "duration": 0.1522,
      "velocity": 106,
      "chip": "ym2612"
    },
    {
      "channel": 3,
      "note": 50,
      "start": 32.0634,
      "duration": 0.1522,
      "velocity": 88,
      "chip": "ym2612"
    },
    {
      "channel": 4,
      "note": 45,
      "start": 32.0656,
      "duration": 0.1502,
      "velocity": 101,
      "chip": "ym2612"
    },
    {
      "channel": 5,
      "note": 91,
      "start": 32.0657,
      "duration": 0.1502,
      "velocity": 58,
      "chip": "ym2612"
    },
    {
      "channel": 1,
      "note": 87,
      "start": 32.2294,
      "duration": 0.1525,
      "velocity": 58,
      "chip": "ym2612"
    },
    {
      "channel": 2,
      "note": 107,
      "start": 32.2296,
      "duration": 0.1525,
      "velocity": 106,
      "chip": "ym2612"
    },
    {
      "channel": 3,
      "note": 49,
      "start": 32.2298,
      "duration": 0.1524,
      "velocity": 88,
      "chip": "ym2612"
    },
    {
      "channel": 4,
      "note": 68,
      "start": 32.2318,
      "duration": 0.2882,
      "velocity": 127,
      "chip": "ym2612"
    },
    {
      "channel": 5,
      "note": 90,
      "start": 32.232,
      "duration": 0.1504,
      "velocity": 58,
      "chip": "ym2612"
    },
    {
      "channel": 1,
      "note": 81,
      "start": 32.3955,
      "duration": 0.1522,
      "velocity": 58,
      "chip": "ym2612"
    },
    {
      "channel": 2,
      "note": 105,
      "start": 32.3956,
      "duration": 0.1522,
      "velocity": 106,
      "chip": "ym2612"
    },
    {
      "channel": 3,
      "note": 48,
      "start": 32.3958,
      "duration": 0.1526,
      "velocity": 88,
      "chip": "ym2612"
    },
    {
      "channel": 5,
      "note": 89,
      "start": 32.3961,
      "duration": 0.1525,
      "velocity": 58,
      "chip": "ym2612"
    },
    {
      "channel": 1,
      "note": 71,
      "start": 32.5617,
      "duration": 0.1522,
      "velocity": 58,
      "chip": "ym2612"
    },
    {
      "channel": 2,
      "note": 101,
      "start": 32.5619,
      "duration": 0.0689,
      "velocity": 106,
      "chip": "ym2612"
    },
    {
      "channel": 3,
      "note": 47,
      "start": 32.562,
      "duration": 0.2903,
      "velocity": 88,
      "chip": "ym2612"
    },
    {
      "channel": 4,
      "note": 45,
      "start": 32.5636,
      "duration": 0.2888,
      "velocity": 101,
      "chip": "ym2612"
    },
    {
      "channel": 5,
      "note": 76,
      "start": 32.5638,
      "duration": 0.1502,
      "velocity": 58,
      "chip": "ym2612"
    },
    {
      "channel": 2,
      "note": 102,
      "start": 32.6447,
      "duration": 0.2441,
      "velocity": 106,
      "chip": "ym2612"
    },
    {
      "channel": 1,
      "note": 73,
      "start": 32.7278,
      "duration": 0.161,
      "velocity": 58,
      "chip": "ym2612"
    },
    {
      "channel": 5,
      "note": 78,
      "start": 32.728,
      "duration": 0.1608,
      "velocity": 58,
      "chip": "ym2612"
    }
  ]
}