{
  "track_name": "17 - Cursed City",
  "duration_sec": 59.788,
  "sample_rate": 44100,
  "note_count": 728,
  "unique_pitches": 48,
  "pitch_range": 78,
  "avg_note_duration": 0.4087,
  "reconstruction_stats": {
    "notes_reconstructed": 728,
    "keyon_events": 728,
    "keyoff_events": 634,
    "orphan_keyons": 5,
    "unique_pitches": 48,
    "pitch_range": 78,
    "avg_duration_sec": 0.4087
  },
  "metadata": {
    "source": "G\\Golden Axe III\\17 - Cursed City.vgz"
  },
  "notes": [
    {
      "channel": 0,
      "note": 76,
      "start": 0.0035,
      "duration": 0.0446,
      "velocity": 111,
      "chip": "ym2612"
    },
    {
      "channel": 1,
      "note": 49,
      "start": 0.0049,
      "duration": 0.0435,
      "velocity": 93,
      "chip": "ym2612"
    },
    {
      "channel": 2,
      "note": 76,
      "start": 0.0063,
      "duration": 0.0423,
      "velocity": 111,
      "chip": "ym2612"
    },
    {
      "channel": 4,
      "note": 68,
      "start": 0.0076,
      "duration": 0.0413,
      "velocity": 111,
      "chip": "ym2612"
    },
    {
      "channel": 3,
      "note": 49,
      "start": 0.0161,
      "duration": 0.0352,
      "velocity": 93,
      "chip": "ym2612"
    },
    {
      "channel": 0,
      "note": 75,
      "start": 0.0483,
      "duration": 0.0277,
      "velocity": 111,
      "chip": "ym2612"
    },
    {
      "channel": 1,
      "note": 51,
      "start": 0.0485,
      "duration": 0.0277,
      "velocity": 93,
      "chip": "ym2612"
    },
    {
      "channel": 2,
      "note": 75,
      "start": 0.0487,
      "duration": 0.0277,
      "velocity": 111,
      "chip": "ym2612"
    },
    {
      "channel": 4,
      "note": 66,
      "start": 0.0491,
      "duration": 0.0276,
      "velocity": 111,
      "chip": "ym2612"
    },
    {
      "channel": 3,
      "note": 51,
      "start": 0.0514,
      "duration": 0.032,
      "velocity": 93,
      "chip": "ym2612"
    },
    {
      "channel": 0,
      "note": 73,
      "start": 0.0762,
      "duration": 0.0998,
      "velocity": 111,
      "chip": "ym2612"
    },
    {
      "channel": 1,
      "note": 52,
      "start": 0.0764,
      "duration": 0.1,
      "velocity": 93,
      "chip": "ym2612"
    },
    {
      "channel": 2,
      "note": 73,
      "start": 0.0766,
      "duration": 0.0998,
      "velocity": 111,
      "chip": "ym2612"
    },
    {
      "channel": 4,
      "note": 64,
      "start": 0.0768,
      "duration": 0.0998,
      "velocity": 111,
      "chip": "ym2612"
    },
    {
      "channel": 3,
      "note": 52,
      "start": 0.0836,
      "duration": 0.099,
      "velocity": 93,
      "chip": "ym2612"
    },
    {
      "channel": 0,
      "note": 75,
      "start": 0.1762,
      "duration": 0.0131,
      "velocity": 111,
      "chip": "ym2612"
    },
    {
      "channel": 1,
      "note": 52,
      "start": 0.1763,
      "duration": 0.0307,
      "velocity": 93,
      "chip": "ym2612"
    },
    {
      "channel": 2,
      "note": 75,
      "start": 0.1766,
      "duration": 0.0131,
      "velocity": 111,
      "chip": "ym2612"
    },
    {
      "channel": 4,
      "note": 66,
      "start": 0.1768,
      "duration": 0.013,
      "velocity": 111,
      "chip": "ym2612"
    },
    {
      "channel": 3,
      "note": 52,
      "start": 0.1826,
      "duration": 0.0285,
      "velocity": 93,
      "chip": "ym2612"
    },
    {
      "channel": 0,
      "note": 76,
      "start": 0.1894,
      "duration": 0.0174,
      "velocity": 111,
      "chip": "ym2612"
    },
    {
      "channel": 2,
      "note": 76,
      "start": 0.1897,
      "duration": 0.0175,
      "velocity": 111,
      "chip": "ym2612"
    },
    {
      "channel": 4,
      "note": 68,
      "start": 0.19,
      "duration": 0.0175,
      "velocity": 111,
      "chip": "ym2612"
    },
    {
      "channel": 0,
      "note": 78,
      "start": 0.207,
      "duration": 0.0365,
      "velocity": 111,
      "chip": "ym2612"
    },
    {
      "channel": 1,
      "note": 54,
      "start": 0.2072,
      "duration": 0.0365,
      "velocity": 93,
      "chip": "ym2612"
    },
    {
      "channel": 2,
      "note": 78,
      "start": 0.2073,
      "duration": 0.0365,
      "velocity": 111,
      "chip": "ym2612"
    },
    {
      "channel": 4,
      "note": 69,
      "start": 0.2077,
      "duration": 0.0365,
      "velocity": 111,
      "chip": "ym2612"
    },
    {
      "channel": 3,
      "note": 54,
      "start": 0.2113,
      "duration": 0.0347,
      "velocity": 93,
      "chip": "ym2612"
    },
    {
      "channel": 0,
      "note": 80,
      "start": 0.2436,
      "duration": 0.0271,
      "velocity": 111,
      "chip": "ym2612"
    },
    {
      "channel": 1,
      "note": 56,
      "start": 0.2438,
      "duration": 0.0271,
      "velocity": 93,
      "chip": "ym2612"
    },
    {
      "channel": 2,
      "note": 80,
      "start": 0.244,
      "duration": 0.0271,
      "velocity": 111,
      "chip": "ym2612"
    },
    {
      "channel": 4,
      "note": 71,
      "start": 0.2444,
      "duration": 0.027,
      "velocity": 111,
      "chip": "ym2612"
    },
    {
      "channel": 3,
      "note": 56,
      "start": 0.2461,
      "duration": 0.0282,
      "velocity": 93,
      "chip": "ym2612"
    },
    {
      "channel": 0,
      "note": 71,
      "start": 0.2709,
      "duration": 0.089,
      "velocity": 111,
      "chip": "ym2612"
    },
    {
      "channel": 1,
      "note": 57,
      "start": 0.2711,
      "duration": 0.0892,
      "velocity": 93,
      "chip": "ym2612"
    },
    {
      "channel": 2,
      "note": 71,
      "start": 0.2713,
      "duration": 0.089,
      "velocity": 111,
      "chip": "ym2612"
    },
    {
      "channel": 4,
      "note": 63,
      "start": 0.2715,
      "duration": 0.0891,
      "velocity": 111,
      "chip": "ym2612"
    },
    {
      "channel": 3,
      "note": 57,
      "start": 0.2743,
      "duration": 0.0924,
      "velocity": 93,
      "chip": "ym2612"
    },
    {
      "channel": 0,
      "note": 69,
      "start": 0.3601,
      "duration": 0.0168,
      "velocity": 111,
      "chip": "ym2612"
    },
    {
      "channel": 1,
      "note": 57,
      "start": 0.3602,
      "duration": 0.0371,
      "velocity": 93,
      "chip": "ym2612"
    },
    {
      "channel": 2,
      "note": 69,
      "start": 0.3604,
      "duration": 0.0168,
      "velocity": 111,
      "chip": "ym2612"
    },
    {
      "channel": 4,
      "note": 61,
      "start": 0.3608,
      "duration": 0.0168,
      "velocity": 111,
      "chip": "ym2612"
    },
    {
      "channel": 3,
      "note": 57,
      "start": 0.3668,
      "duration": 0.0357,
      "velocity": 93,
      "chip": "ym2612"
    },
    {
      "channel": 0,
      "note": 71,
      "start": 0.3771,
      "duration": 0.02,
      "velocity": 111,
      "chip": "ym2612"
    },
    {
      "channel": 2,
      "note": 71,
      "start": 0.3774,
      "duration": 0.0202,
      "velocity": 111,
      "chip": "ym2612"
    },
    {
      "channel": 4,
      "note": 63,
      "start": 0.3777,
      "duration": 0.0201,
      "velocity": 111,
      "chip": "ym2612"
    },
    {
      "channel": 0,
      "note": 73,
      "start": 0.3973,
      "duration": 0.0949,
      "velocity": 111,
      "chip": "ym2612"
    },
    {
      "channel": 1,
      "note": 45,
      "start": 0.3975,
      "duration": 0.0949,
      "velocity": 93,
      "chip": "ym2612"
    },
    {
      "channel": 2,
      "note": 73,
      "start": 0.3976,
      "duration": 0.0948,
      "velocity": 111,
      "chip": "ym2612"
    },
    {
      "channel": 4,
      "note": 64,
      "start": 0.3979,
      "duration": 0.0948,
      "velocity": 111,
      "chip": "ym2612"
    },
    {
      "channel": 3,
      "note": 45,
      "start": 0.4025,
      "duration": 0.093,
      "velocity": 93,
      "chip": "ym2612"
    },
    {
      "channel": 0,
      "note": 73,
      "start": 0.4922,
      "duration": 0.0573,
      "velocity": 111,
      "chip": "ym2612"
    },
    {
      "channel": 1,
      "note": 45,
      "start": 0.4923,
      "duration": 0.0573,
      "velocity": 93,
      "chip": "ym2612"
    },
    {
      "channel": 2,
      "note": 73,
      "start": 0.4925,
      "duration": 0.0573,
      "velocity": 111,
      "chip": "ym2612"
    },
    {
      "channel": 4,
      "note": 64,
      "start": 0.4927,
      "duration": 0.0574,
      "velocity": 111,
      "chip": "ym2612"
    },
    {
      "channel": 3,
      "note": 45,
      "start": 0.4955,
      "duration": 0.058,
      "velocity": 93,
      "chip": "ym2612"
    },
    {
      "channel": 0,
      "note": 75,
      "start": 0.5496,
      "duration": 0.0223,
      "velocity": 111,
      "chip": "ym2612"
    },
    {
      "channel": 1,
      "note": 47,
      "start": 0.5498,
      "duration": 0.0223,
      "velocity": 93,
      "chip": "ym2612"
    },
    {
      "channel": 2,
      "note": 75,
      "start": 0.55,
      "duration": 0.0223,
      "velocity": 111,
      "chip": "ym2612"
    },
    {
      "channel": 4,
      "note": 66,
      "start": 0.5502,
      "duration": 0.0224,
      "velocity": 111,
      "chip": "ym2612"
    },
    {
      "channel": 3,
      "note": 47,
      "start": 0.5537,
      "duration": 0.0244,
      "velocity": 93,
      "chip": "ym2612"
    },
    {
      "channel": 0,
      "note": 76,
      "start": 0.572,
      "duration": 0.0965,
      "velocity": 111,
      "chip": "ym2612"
    },
    {
      "channel": 1,
      "note": 42,
      "start": 0.5722,
      "duration": 0.0965,
      "velocity": 93,
      "chip": "ym2612"
    },
    {
      "channel": 2,
      "note": 76,
      "start": 0.5724,
      "duration": 0.0965,
      "velocity": 111,
      "chip": "ym2612"
    },
    {
      "channel": 4,
      "note": 68,
      "start": 0.5727,
      "duration": 0.0964,
      "velocity": 111,
      "chip": "ym2612"
    },
    {
      "channel": 3,
      "note": 42,
      "start": 0.5782,
      "duration": 0.0971,
      "velocity": 93,
      "chip": "ym2612"
    },
    {
      "channel": 0,
      "note": 75,
      "start": 0.6687,
      "duration": 0.0424,
      "velocity": 111,
      "chip": "ym2612"
    },
    {
      "channel": 1,
      "note": 44,
      "start": 0.6688,
      "duration": 0.0935,
      "velocity": 93,
      "chip": "ym2612"
    },
    {
      "channel": 2,
      "note": 75,
      "start": 0.669,
      "duration": 0.0422,
      "velocity": 111,
      "chip": "ym2612"
    },
    {
      "channel": 4,
      "note": 66,
      "start": 0.6693,
      "duration": 0.0422,
      "velocity": 111,
      "chip": "ym2612"
    },
    {
      "channel": 3,
      "note": 44,
      "start": 0.6754,
      "duration": 0.0908,
      "velocity": 93,
      "chip": "ym2612"
    },
    {
      "channel": 0,
      "note": 73,
      "start": 0.7112,
      "duration": 0.0169,
      "velocity": 111,
      "chip": "ym2612"
    },
    {
      "channel": 2,
      "note": 73,
      "start": 0.7114,
      "duration": 0.0171,
      "velocity": 111,
      "chip": "ym2612"
    },
    {
      "channel": 4,
      "note": 64,
      "start": 0.7117,
      "duration": 0.0172,
      "velocity": 111,
      "chip": "ym2612"
    },
    {
      "channel": 0,
      "note": 71,
      "start": 0.7283,
      "duration": 0.0337,
      "velocity": 103,
      "chip": "ym2612"
    },
    {
      "channel": 2,
      "note": 71,
      "start": 0.7286,
      "duration": 0.034,
      "velocity": 111,
      "chip": "ym2612"
    },
    {
      "channel": 4,
      "note": 63,
      "start": 0.729,
      "duration": 0.0339,
      "velocity": 111,
      "chip": "ym2612"
    },
    {
      "channel": 0,
      "note": 83,
      "start": 0.7621,
      "duration": 0.0673,
      "velocity": 103,
      "chip": "ym2612"
    },
    {
      "channel": 1,
      "note": 61,
      "start": 0.7624,
      "duration": 0.0102,
      "velocity": 93,
      "chip": "ym2612"
    },
    {
      "channel": 3,
      "note": 61,
      "start": 0.7664,
      "duration": 0.0103,
      "velocity": 93,
      "chip": "ym2612"
    },
    {
      "channel": 1,
      "note": 49,
      "start": 0.7728,
      "duration": 0.0244,
      "velocity": 93,
      "chip": "ym2612"
    },
    {
      "channel": 2,
      "note": 83,
      "start": 0.7756,
      "duration": 0.0692,
      "velocity": 103,
      "chip": "ym2612"
    },
    {
      "channel": 3,
      "note": 49,
      "start": 0.7769,
      "duration": 0.024,
      "velocity": 93,
      "chip": "ym2612"
    },
    {
      "channel": 4,
      "note": 83,
      "start": 0.7808,
      "duration": 0.0688,
      "velocity": 111,
      "chip": "ym2612"
    },
    {
      "channel": 1,
      "note": 56,
      "start": 0.7973,
      "duration": 0.0113,
      "velocity": 93,
      "chip": "ym2612"
    },
    {
      "channel": 3,
      "note": 56,
      "start": 0.801,
      "duration": 0.0105,
      "velocity": 93,
      "chip": "ym2612"
    },
    {
      "channel": 1,
      "note": 54,
      "start": 0.8183,
      "duration": 0.0114,
      "velocity": 93,
      "chip": "ym2612"
    },
    {
      "channel": 3,
      "note": 54,
      "start": 0.8213,
      "duration": 0.0126,
      "velocity": 93,
      "chip": "ym2612"
    },
    {
      "channel": 0,
      "note": 82,
      "start": 0.8296,
      "duration": 0.0249,
      "velocity": 103,
      "chip": "ym2612"
    },
    {
      "channel": 1,
      "note": 59,
      "start": 0.8411,
      "duration": 0.0136,
      "velocity": 93,
      "chip": "ym2612"
    },
    {
      "channel": 2,
      "note": 82,
      "start": 0.8449,
      "duration": 0.0215,
      "velocity": 103,
      "chip": "ym2612"
    },
    {
      "channel": 3,
      "note": 59,
      "start": 0.8468,
      "duration": 0.0122,
      "velocity": 93,
      "chip": "ym2612"
    },
    {
      "channel": 4,
      "note": 82,
      "start": 0.8498,
      "duration": 0.0215,
      "velocity": 111,
      "chip": "ym2612"
    },
    {
      "channel": 0,
      "note": 83,
      "start": 0.8547,
      "duration": 0.0644,
      "velocity": 103,
      "chip": "ym2612"
    },
    {
      "channel": 1,
      "note": 54,
      "start": 0.8659,
      "duration": 0.0105,
      "velocity": 93,
      "chip": "ym2612"
    },
    {
      "channel": 2,
      "note": 83,
      "start": 0.8666,
      "duration": 0.0642,
      "velocity": 103,
      "chip": "ym2612"
    },
    {
      "channel": 3,
      "note": 54,
      "start": 0.8683,
      "duration": 0.0132,
      "velocity": 93,
      "chip": "ym2612"
    },
    {
      "channel": 4,
      "note": 83,
      "start": 0.8715,
      "duration": 0.0656,
      "velocity": 111,
      "chip": "ym2612"
    },
    {
      "channel": 1,
      "note": 56,
      "start": 0.8887,
      "duration": 0.011,
      "velocity": 93,
      "chip": "ym2612"
    },
    {
      "channel": 3,
      "note": 56,
      "start": 0.8919,
      "duration": 0.01,
      "velocity": 93,
      "chip": "ym2612"
    },
    {
      "channel": 1,
      "note": 42,
      "start": 0.9091,
      "duration": 0.0102,
      "velocity": 93,
      "chip": "ym2612"
    },
    {
      "channel": 3,
      "note": 42,
      "start": 0.912,
      "duration": 0.0106,
      "velocity": 93,
      "chip": "ym2612"
    },
    {
      "channel": 0,
      "note": 82,
      "start": 0.9192,
      "duration": 0.0224,
      "velocity": 103,
      "chip": "ym2612"
    },
    {
      "channel": 1,
      "note": 44,
      "start": 0.9194,
      "duration": 0.0105,
      "velocity": 93,
      "chip": "ym2612"
    },
    {
      "channel": 3,
      "note": 44,
      "start": 0.9227,
      "duration": 0.0112,
      "velocity": 93,
      "chip": "ym2612"
    },
    {
      "channel": 1,
      "note": 47,
      "start": 0.9301,
      "duration": 0.0117,
      "velocity": 93,
      "chip": "ym2612"
    },
    {
      "channel": 2,
      "note": 82,
      "start": 0.931,
      "duration": 0.0243,
      "velocity": 103,
      "chip": "ym2612"
    },
    {
      "channel": 3,
      "note": 47,
      "start": 0.934,
      "duration": 0.0123,
      "velocity": 93,
      "chip": "ym2612"
    },
    {
      "channel": 4,
      "note": 82,
      "start": 0.9373,
      "duration": 0.0216,
      "velocity": 111,
      "chip": "ym2612"
    },
    {
      "channel": 0,
      "note": 83,
      "start": 0.9417,
      "duration": 0.0346,
      "velocity": 103,
      "chip": "ym2612"
    },
    {
      "channel": 1,
      "note": 61,
      "start": 0.9419,
      "duration": 0.0116,
      "velocity": 93,
      "chip": "ym2612"
    },
    {
      "channel": 3,
      "note": 61,
      "start": 0.9464,
      "duration": 0.0103,
      "velocity": 93,
      "chip": "ym2612"
    },
    {
      "channel": 1,
      "note": 49,
      "start": 0.9536,
      "duration": 0.0229,
      "velocity": 93,
      "chip": "ym2612"
    },
    {
      "channel": 2,
      "note": 83,
      "start": 0.9554,
      "duration": 0.0352,
      "velocity": 103,
      "chip": "ym2612"
    },
    {
      "channel": 3,
      "note": 49,
      "start": 0.9569,
      "duration": 0.024,
      "velocity": 93,
      "chip": "ym2612"
    },
    {
      "channel": 4,
      "note": 83,
      "start": 0.9591,
      "duration": 0.0347,
      "velocity": 111,
      "chip": "ym2612"
    },
    {
      "channel": 0,
      "note": 82,
      "start": 0.9765,
      "duration": 0.0122,
      "velocity": 103,
      "chip": "ym2612"
    },
    {
      "channel": 1,
      "note": 56,
      "start": 0.9767,
      "duration": 0.0122,
      "velocity": 93,
      "chip": "ym2612"
    },
    {
      "channel": 3,
      "note": 56,
      "start": 0.981,
      "duration": 0.011,
      "velocity": 93,
      "chip": "ym2612"
    },
    {
      "channel": 0,
      "note": 80,
      "start": 0.9888,
      "duration": 0.0861,
      "velocity": 103,
      "chip": "ym2612"
    },
    {
      "channel": 2,
      "note": 82,
      "start": 0.9908,
      "duration": 0.0088,
      "velocity": 103,
      "chip": "ym2612"
    },
    {
      "channel": 4,
      "note": 82,
      "start": 0.9939,
      "duration": 0.0107,
      "velocity": 111,
      "chip": "ym2612"
    },
    {
      "channel": 1,
      "note": 54,
      "start": 0.9989,
      "duration": 0.0102,
      "velocity": 93,
      "chip": "ym2612"
    },
    {
      "channel": 2,
      "note": 80,
      "start": 0.9997,
      "duration": 0.0874,
      "velocity": 103,
      "chip": "ym2612"
    },
    {
      "channel": 3,
      "note": 54,
      "start": 1.002,
      "duration": 0.011,
      "velocity": 93,
      "chip": "ym2612"
    },
    {
      "channel": 4,
      "note": 80,
      "start": 1.0048,
      "duration": 0.0858,
      "velocity": 111,
      "chip": "ym2612"
    },
    {
      "channel": 1,
      "note": 59,
      "start": 1.019,
      "duration": 0.0115,
      "velocity": 93,
      "chip": "ym2612"
    },
    {
      "channel": 3,
      "note": 59,
      "start": 1.0225,
      "duration": 0.0116,
      "velocity": 93,
      "chip": "ym2612"
    },
    {
      "channel": 1,
      "note": 54,
      "start": 1.0413,
      "duration": 0.0114,
      "velocity": 93,
      "chip": "ym2612"
    },
    {
      "channel": 3,
      "note": 54,
      "start": 1.0444,
      "duration": 0.0116,
      "velocity": 93,
      "chip": "ym2612"
    },
    {
      "channel": 1,
      "note": 56,
      "start": 1.0633,
      "duration": 0.0116,
      "velocity": 93,
      "chip": "ym2612"
    },
    {
      "channel": 3,
      "note": 56,
      "start": 1.0673,
      "duration": 0.0109,
      "velocity": 93,
      "chip": "ym2612"
    },
    {
      "channel": 0,
      "note": 80,
      "start": 1.0749,
      "duration": 0.0466,
      "velocity": 103,
      "chip": "ym2612"
    },
    {
      "channel": 1,
      "note": 42,
      "start": 1.0853,
      "duration": 0.0111,
      "velocity": 93,
      "chip": "ym2612"
    },
    {
      "channel": 2,
      "note": 80,
      "start": 1.0871,
      "duration": 0.047,
      "velocity": 103,
      "chip": "ym2612"
    },
    {
      "channel": 3,
      "note": 42,
      "start": 1.0887,
      "duration": 0.0115,
      "velocity": 93,
      "chip": "ym2612"
    },
    {
      "channel": 4,
      "note": 80,
      "start": 1.0906,
      "duration": 0.0483,
      "velocity": 111,
      "chip": "ym2612"
    },
    {
      "channel": 1,
      "note": 44,
      "start": 1.0965,
      "duration": 0.0129,
      "velocity": 93,
      "chip": "ym2612"
    },
    {
      "channel": 3,
      "note": 44,
      "start": 1.1004,
      "duration": 0.0132,
      "velocity": 93,
      "chip": "ym2612"
    },
    {
      "channel": 1,
      "note": 47,
      "start": 1.1096,
      "duration": 0.0121,
      "velocity": 93,
      "chip": "ym2612"
    },
    {
      "channel": 3,
      "note": 47,
      "start": 1.1138,
      "duration": 0.0129,
      "velocity": 93,
      "chip": "ym2612"
    },
    {
      "channel": 0,
      "note": 88,
      "start": 1.1216,
      "duration": 0.0682,
      "velocity": 103,
      "chip": "ym2612"
    },
    {
      "channel": 1,
      "note": 61,
      "start": 1.1218,
      "duration": 0.0117,
      "velocity": 93,
      "chip": "ym2612"
    },
    {
      "channel": 3,
      "note": 61,
      "start": 1.1268,
      "duration": 0.0091,
      "velocity": 93,
      "chip": "ym2612"
    },
    {
      "channel": 1,
      "note": 49,
      "start": 1.1336,
      "duration": 0.0232,
      "velocity": 93,
      "chip": "ym2612"
    },
    {
      "channel": 2,
      "note": 88,
      "start": 1.1342,
      "duration": 0.0676,
      "velocity": 103,
      "chip": "ym2612"
    },
    {
      "channel": 3,
      "note": 49,
      "start": 1.1361,
      "duration": 0.0255,
      "velocity": 93,
      "chip": "ym2612"
    },
    {
      "channel": 4,
      "note": 88,
      "start": 1.139,
      "duration": 0.07,
      "velocity": 111,
      "chip": "ym2612"
    },
    {
      "channel": 1,
      "note": 56,
      "start": 1.157,
      "duration": 0.0125,
      "velocity": 93,
      "chip": "ym2612"
    },
    {
      "channel": 3,
      "note": 56,
      "start": 1.1617,
      "duration": 0.01,
      "velocity": 93,
      "chip": "ym2612"
    },
    {
      "channel": 1,
      "note": 54,
      "start": 1.1787,
      "duration": 0.0112,
      "velocity": 93,
      "chip": "ym2612"
    },
    {
      "channel": 3,
      "note": 54,
      "start": 1.1819,
      "duration": 0.0126,
      "velocity": 93,
      "chip": "ym2612"
    },
    {
      "channel": 0,
      "note": 87,
      "start": 1.1899,
      "duration": 0.011,
      "velocity": 103,
      "chip": "ym2612"
    },
    {
      "channel": 0,
      "note": 85,
      "start": 1.201,
      "duration": 0.0128,
      "velocity": 103,
      "chip": "ym2612"
    },
    {
      "channel": 1,
      "note": 59,
      "start": 1.2012,
      "duration": 0.0128,
      "velocity": 93,
      "chip": "ym2612"
    },
    {
      "channel": 2,
      "note": 87,
      "start": 1.202,
      "duration": 0.0149,
      "velocity": 103,
      "chip": "ym2612"
    },
    {
      "channel": 3,
      "note": 59,
      "start": 1.2057,
      "duration": 0.0129,
      "velocity": 93,
      "chip": "ym2612"
    },
    {
      "channel": 4,
      "note": 87,
      "start": 1.2091,
      "duration": 0.0121,
      "velocity": 111,
      "chip": "ym2612"
    },
    {
      "channel": 0,
      "note": 88,
      "start": 1.2139,
      "duration": 0.046,
      "velocity": 103,
      "chip": "ym2612"
    },
    {
      "channel": 2,
      "note": 85,
      "start": 1.217,
      "duration": 0.0103,
      "velocity": 103,
      "chip": "ym2612"
    },
    {
      "channel": 4,
      "note": 85,
      "start": 1.2213,
      "duration": 0.0098,
      "velocity": 111,
      "chip": "ym2612"
    },
    {
      "channel": 1,
      "note": 54,
      "start": 1.2256,
      "duration": 0.011,
      "velocity": 93,
      "chip": "ym2612"
    },
    {
      "channel": 2,
      "note": 88,
      "start": 1.2275,
      "duration": 0.0434,
      "velocity": 103,
      "chip": "ym2612"
    },
    {
      "channel": 3,
      "note": 54,
      "start": 1.2294,
      "duration": 0.0106,
      "velocity": 93,
      "chip": "ym2612"
    },
    {
      "channel": 4,
      "note": 88,
      "start": 1.2312,
      "duration": 0.0461,
      "velocity": 111,
      "chip": "ym2612"
    },
    {
      "channel": 1,
      "note": 56,
      "start": 1.2468,
      "duration": 0.0133,
      "velocity": 93,
      "chip": "ym2612"
    },
    {
      "channel": 3,
      "note": 56,
      "start": 1.252,
      "duration": 0.0113,
      "velocity": 93,
      "chip": "ym2612"
    },
    {
      "channel": 0,
      "note": 87,
      "start": 1.26,
      "duration": 0.0474,
      "velocity": 103,
      "chip": "ym2612"
    },
    {
      "channel": 1,
      "note": 42,
      "start": 1.2704,
      "duration": 0.0119,
      "velocity": 93,
      "chip": "ym2612"
    },
    {
      "channel": 2,
      "note": 87,
      "start": 1.2711,
      "duration": 0.0495,
      "velocity": 103,
      "chip": "ym2612"
    },
    {
      "channel": 3,
      "note": 42,
      "start": 1.2739,
      "duration": 0.0125,
      "velocity": 93,
      "chip": "ym2612"
    },
    {
      "channel": 4,
      "note": 87,
      "start": 1.2774,
      "duration": 0.0475,
      "velocity": 111,
      "chip": "ym2612"
    },
    {
      "channel": 1,
      "note": 44,
      "start": 1.2824,
      "duration": 0.0123,
      "velocity": 93,
      "chip": "ym2612"
    },
    {
      "channel": 3,
      "note": 44,
      "start": 1.2865,
      "duration": 0.0133,
      "velocity": 93,
      "chip": "ym2612"
    },
    {
      "channel": 1,
      "note": 47,
      "start": 1.2949,
      "duration": 0.0128,
      "velocity": 93,
      "chip": "ym2612"
    },
    {
      "channel": 3,
      "note": 47,
      "start": 1.3,
      "duration": 0.0116,
      "velocity": 93,
      "chip": "ym2612"
    },
    {
      "channel": 0,
      "note": 85,
      "start": 1.3076,
      "duration": 0.0909,
      "velocity": 103,
      "chip": "ym2612"
    },
    {
      "channel": 1,
      "note": 61,
      "start": 1.3078,
      "duration": 0.0111,
      "velocity": 93,
      "chip": "ym2612"
    },
    {
      "channel": 3,
      "note": 61,
      "start": 1.3117,
      "duration": 0.0104,
      "velocity": 93,
      "chip": "ym2612"
    },
    {
      "channel": 1,
      "note": 49,
      "start": 1.3191,
      "duration": 0.024,
      "velocity": 93,
      "chip": "ym2612"
    },
    {
      "channel": 2,
      "note": 85,
      "start": 1.3207,
      "duration": 0.0884,
      "velocity": 103,
      "chip": "ym2612"
    },
    {
      "channel": 3,
      "note": 49,
      "start": 1.3222,
      "duration": 0.0244,
      "velocity": 93,
      "chip": "ym2612"
    },
    {
      "channel": 4,
      "note": 85,
      "start": 1.3251,
      "duration": 0.0887,
      "velocity": 111,
      "chip": "ym2612"
    },
    {
      "channel": 1,
      "note": 56,
      "start": 1.3432,
      "duration": 0.0111,
      "velocity": 93,
      "chip": "ym2612"
    },
    {
      "channel": 3,
      "note": 56,
      "start": 1.3468,
      "duration": 0.0106,
      "velocity": 93,
      "chip": "ym2612"
    },
    {
      "channel": 1,
      "note": 54,
      "start": 1.3644,
      "duration": 0.0114,
      "velocity": 93,
      "chip": "ym2612"
    },
    {
      "channel": 3,
      "note": 54,
      "start": 1.3679,
      "duration": 0.0101,
      "velocity": 93,
      "chip": "ym2612"
    },
    {
      "channel": 1,
      "note": 59,
      "start": 1.3847,
      "duration": 0.0139,
      "velocity": 93,
      "chip": "ym2612"
    },
    {
      "channel": 3,
      "note": 59,
      "start": 1.3902,
      "duration": 0.0113,
      "velocity": 93,
      "chip": "ym2612"
    },
    {
      "channel": 0,
      "note": 85,
      "start": 1.3985,
      "duration": 0.0855,
      "velocity": 103,
      "chip": "ym2612"
    },
    {
      "channel": 1,
      "note": 54,
      "start": 1.4085,
      "duration": 0.0098,
      "velocity": 93,
      "chip": "ym2612"
    },
    {
      "channel": 2,
      "note": 85,
      "start": 1.4091,
      "duration": 0.0886,
      "velocity": 103,
      "chip": "ym2612"
    },
    {
      "channel": 3,
      "note": 54,
      "start": 1.4106,
      "duration": 0.0108,
      "velocity": 93,
      "chip": "ym2612"
    },
    {
      "channel": 4,
      "note": 85,
      "start": 1.4138,
      "duration": 0.0876,
      "velocity": 111,
      "chip": "ym2612"
    },
    {
      "channel": 1,
      "note": 56,
      "start": 1.4285,
      "duration": 0.0113,
      "velocity": 93,
      "chip": "ym2612"
    },
    {
      "channel": 3,
      "note": 56,
      "start": 1.4319,
      "duration": 0.01,
      "velocity": 93,
      "chip": "ym2612"
    },
    {
      "channel": 1,
      "note": 42,
      "start": 1.4488,
      "duration": 0.011,
      "velocity": 93,
      "chip": "ym2612"
    },
    {
      "channel": 3,
      "note": 42,
      "start": 1.452,
      "duration": 0.0114,
      "velocity": 93,
      "chip": "ym2612"
    },
    {
      "channel": 1,
      "note": 44,
      "start": 1.4599,
      "duration": 0.0126,
      "velocity": 93,
      "chip": "ym2612"
    },
    {
      "channel": 3,
      "note": 44,
      "start": 1.4637,
      "duration": 0.0124,
      "velocity": 93,
      "chip": "ym2612"
    },
    {
      "channel": 1,
      "note": 47,
      "start": 1.4727,
      "duration": 0.0115,
      "velocity": 93,
      "chip": "ym2612"
    },
    {
      "channel": 3,
      "note": 47,
      "start": 1.4761,
      "duration": 0.0123,
      "velocity": 93,
      "chip": "ym2612"
    },
    {
      "channel": 0,
      "note": 83,
      "start": 1.4842,
      "duration": 0.0682,
      "velocity": 103,
      "chip": "ym2612"
    },
    {
      "channel": 1,
      "note": 61,
      "start": 1.4844,
      "duration": 0.0118,
      "velocity": 93,
      "chip": "ym2612"
    },
    {
      "channel": 3,
      "note": 61,
      "start": 1.4885,
      "duration": 0.0107,
      "velocity": 93,
      "chip": "ym2612"
    },
    {
      "channel": 1,
      "note": 49,
      "start": 1.4963,
      "duration": 0.0229,
      "velocity": 93,
      "chip": "ym2612"
    },
    {
      "channel": 2,
      "note": 83,
      "start": 1.4979,
      "duration": 0.0659,
      "velocity": 103,
      "chip": "ym2612"
    },
    {
      "channel": 3,
      "note": 49,
      "start": 1.4994,
      "duration": 0.0241,
      "velocity": 93,
      "chip": "ym2612"
    },
    {
      "channel": 4,
      "note": 83,
      "start": 1.5015,
      "duration": 0.0662,
      "velocity": 111,
      "chip": "ym2612"
    },
    {
      "channel": 1,
      "note": 56,
      "start": 1.5194,
      "duration": 0.0125,
      "velocity": 93,
      "chip": "ym2612"
    },
    {
      "channel": 3,
      "note": 56,
      "start": 1.5237,
      "duration": 0.0113,
      "velocity": 93,
      "chip": "ym2612"
    },
    {
      "channel": 1,
      "note": 54,
      "start": 1.5418,
      "duration": 0.0108,
      "velocity": 93,
      "chip": "ym2612"
    },
    {
      "channel": 3,
      "note": 54,
      "start": 1.5454,
      "duration": 0.0108,
      "velocity": 93,
      "chip": "ym2612"
    },
    {
      "channel": 0,
      "note": 82,
      "start": 1.5525,
      "duration": 0.0207,
      "velocity": 103,
      "chip": "ym2612"
    },
    {
      "channel": 1,
      "note": 59,
      "start": 1.562,
      "duration": 0.0114,
      "velocity": 93,
      "chip": "ym2612"
    },
    {
      "channel": 2,
      "note": 82,
      "start": 1.564,
      "duration": 0.0201,
      "velocity": 103,
      "chip": "ym2612"
    },
    {
      "channel": 3,
      "note": 59,
      "start": 1.5654,
      "duration": 0.01,
      "velocity": 93,
      "chip": "ym2612"
    },
    {
      "channel": 4,
      "note": 82,
      "start": 1.5678,
      "duration": 0.021,
      "velocity": 111,
      "chip": "ym2612"
    },
    {
      "channel": 0,
      "note": 83,
      "start": 1.5733,
      "duration": 0.0595,
      "velocity": 103,
      "chip": "ym2612"
    },
    {
      "channel": 1,
      "note": 54,
      "start": 1.5827,
      "duration": 0.0107,
      "velocity": 93,
      "chip": "ym2612"
    },
    {
      "channel": 2,
      "note": 83,
      "start": 1.5842,
      "duration": 0.0649,
      "velocity": 103,
      "chip": "ym2612"
    },
    {
      "channel": 3,
      "note": 54,
      "start": 1.5861,
      "duration": 0.0103,
      "velocity": 93,
      "chip": "ym2612"
    },
    {
      "channel": 4,
      "note": 83,
      "start": 1.5889,
      "duration": 0.0651,
      "velocity": 111,
      "chip": "ym2612"
    },
    {
      "channel": 1,
      "note": 56,
      "start": 1.6034,
      "duration": 0.0093,
      "velocity": 93,
      "chip": "ym2612"
    },
    {
      "channel": 3,
      "note": 56,
      "start": 1.6054,
      "duration": 0.0103,
      "velocity": 93,
      "chip": "ym2612"
    },
    {
      "channel": 1,
      "note": 42,
      "start": 1.6219,
      "duration": 0.0111,
      "velocity": 93,
      "chip": "ym2612"
    },
    {
      "channel": 3,
      "note": 42,
      "start": 1.6251,
      "duration": 0.0124,
      "velocity": 93,
      "chip": "ym2612"
    },
    {
      "channel": 0,
      "note": 82,
      "start": 1.6329,
      "duration": 0.0257,
      "velocity": 103,
      "chip": "ym2612"
    },
    {
      "channel": 1,
      "note": 44,
      "start": 1.6331,
      "duration": 0.0132,
      "velocity": 93,
      "chip": "ym2612"
    },
    {
      "channel": 3,
      "note": 44,
      "start": 1.6376,
      "duration": 0.0132,
      "velocity": 93,
      "chip": "ym2612"
    },
    {
      "channel": 1,
      "note": 47,
      "start": 1.6464,
      "duration": 0.0124,
      "velocity": 93,
      "chip": "ym2612"
    },
    {
      "channel": 2,
      "note": 82,
      "start": 1.6493,
      "duration": 0.0225,
      "velocity": 103,
      "chip": "ym2612"
    },
    {
      "channel": 3,
      "note": 47,
      "start": 1.6509,
      "duration": 0.0128,
      "velocity": 93,
      "chip": "ym2612"
    },
    {
      "channel": 4,
      "note": 82,
      "start": 1.6542,
      "duration": 0.0222,
      "velocity": 111,
      "chip": "ym2612"
    },
    {
      "channel": 0,
      "note": 83,
      "start": 1.6588,
      "duration": 0.0342,
      "velocity": 103,
      "chip": "ym2612"
    },
    {
      "channel": 1,
      "note": 61,
      "start": 1.659,
      "duration": 0.0121,
      "velocity": 93,
      "chip": "ym2612"
    },
    {
      "channel": 3,
      "note": 61,
      "start": 1.6639,
      "duration": 0.0095,
      "velocity": 93,
      "chip": "ym2612"
    },
    {
      "channel": 1,
      "note": 49,
      "start": 1.6712,
      "duration": 0.0219,
      "velocity": 93,
      "chip": "ym2612"
    },
    {
      "channel": 2,
      "note": 83,
      "start": 1.6719,
      "duration": 0.0349,
      "velocity": 103,
      "chip": "ym2612"
    },
    {
      "channel": 3,
      "note": 49,
      "start": 1.6735,
      "duration": 0.0242,
      "velocity": 93,
      "chip": "ym2612"
    },
    {
      "channel": 4,
      "note": 83,
      "start": 1.6765,
      "duration": 0.0346,
      "velocity": 111,
      "chip": "ym2612"
    },
    {
      "channel": 0,
      "note": 82,
      "start": 1.6931,
      "duration": 0.0129,
      "velocity": 103,
      "chip": "ym2612"
    },
    {
      "channel": 1,
      "note": 56,
      "start": 1.6933,
      "duration": 0.0129,
      "velocity": 93,
      "chip": "ym2612"
    },
    {
      "channel": 3,
      "note": 56,
      "start": 1.6978,
      "duration": 0.0106,
      "velocity": 93,
      "chip": "ym2612"
    },
    {
      "channel": 0,
      "note": 80,
      "start": 1.7061,
      "duration": 0.0832,
      "velocity": 103,
      "chip": "ym2612"
    },
    {
      "channel": 2,
      "note": 82,
      "start": 1.707,
      "duration": 0.0102,
      "velocity": 103,
      "chip": "ym2612"
    },
    {
      "channel": 4,
      "note": 82,
      "start": 1.7112,
      "duration": 0.0104,
      "velocity": 111,
      "chip": "ym2612"
    },
    {
      "channel": 1,
      "note": 54,
      "start": 1.7156,
      "duration": 0.0104,
      "velocity": 93,
      "chip": "ym2612"
    },
    {
      "channel": 2,
      "note": 80,
      "start": 1.7173,
      "duration": 0.0834,
      "velocity": 103,
      "chip": "ym2612"
    },
    {
      "channel": 3,
      "note": 54,
      "start": 1.7189,
      "duration": 0.01,
      "velocity": 93,
      "chip": "ym2612"
    },
    {
      "channel": 4,
      "note": 80,
      "start": 1.7217,
      "duration": 0.0843,
      "velocity": 111,
      "chip": "ym2612"
    },
    {
      "channel": 1,
      "note": 59,
      "start": 1.736,
      "duration": 0.0107,
      "velocity": 93,
      "chip": "ym2612"
    },
    {
      "channel": 3,
      "note": 59,
      "start": 1.7385,
      "duration": 0.0124,
      "velocity": 93,
      "chip": "ym2612"
    },
    {
      "channel": 1,
      "note": 54,
      "start": 1.7578,
      "duration": 0.0103,
      "velocity": 93,
      "chip": "ym2612"
    },
    {
      "channel": 3,
      "note": 54,
      "start": 1.761,
      "duration": 0.0091,
      "velocity": 93,
      "chip": "ym2612"
    },
    {
      "channel": 1,
      "note": 56,
      "start": 1.7775,
      "duration": 0.0119,
      "velocity": 93,
      "chip": "ym2612"
    },
    {
      "channel": 3,
      "note": 56,
      "start": 1.7821,
      "duration": 0.0108,
      "velocity": 93,
      "chip": "ym2612"
    },
    {
      "channel": 0,
      "note": 80,
      "start": 1.7893,
      "duration": 0.0477,
      "velocity": 103,
      "chip": "ym2612"
    },
    {
      "channel": 1,
      "note": 42,
      "start": 1.8002,
      "duration": 0.0104,
      "velocity": 93,
      "chip": "ym2612"
    },
    {
      "channel": 2,
      "note": 80,
      "start": 1.8007,
      "duration": 0.0496,
      "velocity": 103,
      "chip": "ym2612"
    },
    {
      "channel": 3,
      "note": 42,
      "start": 1.8032,
      "duration": 0.0131,
      "velocity": 93,
      "chip": "ym2612"
    },
    {
      "channel": 4,
      "note": 80,
      "start": 1.806,
      "duration": 0.049,
      "velocity": 111,
      "chip": "ym2612"
    },
    {
      "channel": 1,
      "note": 44,
      "start": 1.8107,
      "duration": 0.0134,
      "velocity": 93,
      "chip": "ym2612"
    },
    {
      "channel": 3,
      "note": 44,
      "start": 1.8164,
      "duration": 0.0126,
      "velocity": 93,
      "chip": "ym2612"
    },
    {
      "channel": 1,
      "note": 47,
      "start": 1.8243,
      "duration": 0.0128,
      "velocity": 93,
      "chip": "ym2612"
    },
    {
      "channel": 3,
      "note": 47,
      "start": 1.8291,
      "duration": 0.0125,
      "velocity": 93,
      "chip": "ym2612"
    },
    {
      "channel": 0,
      "note": 76,
      "start": 1.8371,
      "duration": 0.0291,
      "velocity": 103,
      "chip": "ym2612"
    },
    {
      "channel": 1,
      "note": 42,
      "start": 1.8373,
      "duration": 0.0924,
      "velocity": 93,
      "chip": "ym2612"
    },
    {
      "channel": 3,
      "note": 42,
      "start": 1.8418,
      "duration": 0.0924,
      "velocity": 93,
      "chip": "ym2612"
    },
    {
      "channel": 2,
      "note": 76,
      "start": 1.8504,
      "duration": 0.0301,
      "velocity": 103,
      "chip": "ym2612"
    },
    {
      "channel": 4,
      "note": 76,
      "start": 1.8551,
      "duration": 0.03,
      "velocity": 111,
      "chip": "ym2612"
    },
    {
      "channel": 0,
      "note": 78,
      "start": 1.8664,
      "duration": 0.0306,
      "velocity": 103,
      "chip": "ym2612"
    },
    {
      "channel": 2,
      "note": 78,
      "start": 1.8806,
      "duration": 0.0308,
      "velocity": 103,
      "chip": "ym2612"
    },
    {
      "channel": 4,
      "note": 78,
      "start": 1.8852,
      "duration": 0.0297,
      "velocity": 111,
      "chip": "ym2612"
    },
    {
      "channel": 0,
      "note": 80,
      "start": 1.8971,
      "duration": 0.0323,
      "velocity": 103,
      "chip": "ym2612"
    },
    {
      "channel": 2,
      "note": 80,
      "start": 1.9116,
      "duration": 0.0314,
      "velocity": 103,
      "chip": "ym2612"
    },
    {
      "channel": 4,
      "note": 80,
      "start": 1.915,
      "duration": 0.0323,
      "velocity": 111,
      "chip": "ym2612"
    },
    {
      "channel": 0,
      "note": 78,
      "start": 1.9295,
      "duration": 0.03,
      "velocity": 103,
      "chip": "ym2612"
    },
    {
      "channel": 1,
      "note": 44,
      "start": 1.9298,
      "duration": 0.0941,
      "velocity": 93,
      "chip": "ym2612"
    },
    {
      "channel": 3,
      "note": 44,
      "start": 1.9343,
      "duration": 0.0939,
      "velocity": 93,
      "chip": "ym2612"
    },
    {
      "channel": 2,
      "note": 78,
      "start": 1.9431,
      "duration": 0.0311,
      "velocity": 103,
      "chip": "ym2612"
    },
    {
      "channel": 4,
      "note": 78,
      "start": 1.9475,
      "duration": 0.0312,
      "velocity": 111,
      "chip": "ym2612"
    },
    {
      "channel": 0,
      "note": 76,
      "start": 1.9597,
      "duration": 0.0328,
      "velocity": 103,
      "chip": "ym2612"
    },
    {
      "channel": 2,
      "note": 76,
      "start": 1.9743,
      "duration": 0.0328,
      "velocity": 103,
      "chip": "ym2612"
    },
    {
      "channel": 4,
      "note": 76,
      "start": 1.9788,
      "duration": 0.0311,
      "velocity": 111,
      "chip": "ym2612"
    },
    {
      "channel": 0,
      "note": 75,
      "start": 1.9926,
      "duration": 0.031,
      "velocity": 103,
      "chip": "ym2612"
    },
    {
      "channel": 2,
      "note": 75,
      "start": 2.0072,
      "duration": 0.0298,
      "velocity": 103,
      "chip": "ym2612"
    },
    {
      "channel": 4,
      "note": 75,
      "start": 2.0101,
      "duration": 0.0303,
      "velocity": 111,
      "chip": "ym2612"
    },
    {
      "channel": 0,
      "note": 73,
      "start": 2.0237,
      "duration": 0.0931,
      "velocity": 103,
      "chip": "ym2612"
    },
    {
      "channel": 1,
      "note": 37,
      "start": 2.0239,
      "duration": 0.0931,
      "velocity": 93,
      "chip": "ym2612"
    },
    {
      "channel": 3,
      "note": 37,
      "start": 2.0282,
      "duration": 0.091,
      "velocity": 93,
      "chip": "ym2612"
    },
    {
      "channel": 2,
      "note": 73,
      "start": 2.0371,
      "duration": 0.0918,
      "velocity": 103,
      "chip": "ym2612"
    },
    {
      "channel": 4,
      "note": 73,
      "start": 2.0405,
      "duration": 0.0928,
      "velocity": 111,
      "chip": "ym2612"
    },
    {
      "channel": 0,
      "note": 73,
      "start": 2.1168,
      "duration": 0.0893,
      "velocity": 103,
      "chip": "ym2612"
    },
    {
      "channel": 1,
      "note": 37,
      "start": 2.117,
      "duration": 0.0895,
      "velocity": 93,
      "chip": "ym2612"
    },
    {
      "channel": 3,
      "note": 37,
      "start": 2.1192,
      "duration": 0.0911,
      "velocity": 93,
      "chip": "ym2612"
    },
    {
      "channel": 2,
      "note": 73,
      "start": 2.1289,
      "duration": 0.0898,
      "velocity": 103,
      "chip": "ym2612"
    },
    {
      "channel": 4,
      "note": 73,
      "start": 2.1334,
      "duration": 0.0899,
      "velocity": 111,
      "chip": "ym2612"
    },
    {
      "channel": 0,
      "note": 80,
      "start": 2.2063,
      "duration": 0.0298,
      "velocity": 103,
      "chip": "ym2612"
    },
    {
      "channel": 1,
      "note": 42,
      "start": 2.2066,
      "duration": 0.0965,
      "velocity": 93,
      "chip": "ym2612"
    },
    {
      "channel": 3,
      "note": 42,
      "start": 2.2104,
      "duration": 0.0973,
      "velocity": 93,
      "chip": "ym2612"
    },
    {
      "channel": 2,
      "note": 80,
      "start": 2.2188,
      "duration": 0.0317,
      "velocity": 103,
      "chip": "ym2612"
    },
    {
      "channel": 4,
      "note": 80,
      "start": 2.2234,
      "duration": 0.0312,
      "velocity": 111,
      "chip": "ym2612"
    },
    {
      "channel": 0,
      "note": 81,
      "start": 2.2362,
      "duration": 0.0328,
      "velocity": 103,
      "chip": "ym2612"
    },
    {
      "channel": 2,
      "note": 81,
      "start": 2.2506,
      "duration": 0.0337,
      "velocity": 103,
      "chip": "ym2612"
    },
    {
      "channel": 4,
      "note": 81,
      "start": 2.2548,
      "duration": 0.0333,
      "velocity": 111,
      "chip": "ym2612"
    },
    {
      "channel": 0,
      "note": 83,
      "start": 2.2691,
      "duration": 0.0338,
      "velocity": 103,
      "chip": "ym2612"
    },
    {
      "channel": 2,
      "note": 83,
      "start": 2.2844,
      "duration": 0.0329,
      "velocity": 103,
      "chip": "ym2612"
    },
    {
      "channel": 4,
      "note": 83,
      "start": 2.2882,
      "duration": 0.0329,
      "velocity": 111,
      "chip": "ym2612"
    },
    {
      "channel": 0,
      "note": 85,
      "start": 2.303,
      "duration": 0.0318,
      "velocity": 103,
      "chip": "ym2612"
    },
    {
      "channel": 1,
      "note": 44,
      "start": 2.3031,
      "duration": 0.0989,
      "velocity": 93,
      "chip": "ym2612"
    },
    {
      "channel": 3,
      "note": 44,
      "start": 2.3077,
      "duration": 0.0974,
      "velocity": 93,
      "chip": "ym2612"
    },
    {
      "channel": 2,
      "note": 85,
      "start": 2.3175,
      "duration": 0.0311,
      "velocity": 103,
      "chip": "ym2612"
    },
    {
      "channel": 4,
      "note": 85,
      "start": 2.3212,
      "duration": 0.0331,
      "velocity": 111,
      "chip": "ym2612"
    },
    {
      "channel": 0,
      "note": 87,
      "start": 2.3349,
      "duration": 0.0316,
      "velocity": 103,
      "chip": "ym2612"
    },
    {
      "channel": 2,
      "note": 87,
      "start": 2.3486,
      "duration": 0.034,
      "velocity": 103,
      "chip": "ym2612"
    },
    {
      "channel": 4,
      "note": 87,
      "start": 2.3545,
      "duration": 0.0308,
      "velocity": 111,
      "chip": "ym2612"
    },
    {
      "channel": 0,
      "note": 88,
      "start": 2.3666,
      "duration": 0.0353,
      "velocity": 103,
      "chip": "ym2612"
    },
    {
      "channel": 2,
      "note": 88,
      "start": 2.3827,
      "duration": 0.0304,
      "velocity": 103,
      "chip": "ym2612"
    },
    {
      "channel": 4,
      "note": 88,
      "start": 2.3854,
      "duration": 0.0325,
      "velocity": 111,
      "chip": "ym2612"
    },
    {
      "channel": 0,
      "note": 90,
      "start": 2.4019,
      "duration": 0.0212,
      "velocity": 103,
      "chip": "ym2612"
    },
    {
      "channel": 1,
      "note": 61,
      "start": 2.4118,
      "duration": 0.0115,
      "velocity": 93,
      "chip": "ym2612"
    },
    {
      "channel": 2,
      "note": 90,
      "start": 2.4132,
      "duration": 0.0227,
      "velocity": 103,
      "chip": "ym2612"
    },
    {
      "channel": 3,
      "note": 61,
      "start": 2.4148,
      "duration": 0.0119,
      "velocity": 93,
      "chip": "ym2612"
    },
    {
      "channel": 4,
      "note": 90,
      "start": 2.418,
      "duration": 0.0242,
      "velocity": 111,
      "chip": "ym2612"
    },
    {
      "channel": 0,
      "note": 92,
      "start": 2.4233,
      "duration": 0.0115,
      "velocity": 103,
      "chip": "ym2612"
    },
    {
      "channel": 1,
      "note": 49,
      "start": 2.4234,
      "duration": 0.0115,
      "velocity": 93,
      "chip": "ym2612"
    },
    {
      "channel": 3,
      "note": 49,
      "start": 2.4269,
      "duration": 0.0118,
      "velocity": 93,
      "chip": "ym2612"
    },
    {
      "channel": 0,
      "note": 83,
      "start": 2.4349,
      "duration": 0.0123,
      "velocity": 103,
      "chip": "ym2612"
    },
    {
      "channel": 1,
      "note": 51,
      "start": 2.4351,
      "duration": 0.0122,
      "velocity": 93,
      "chip": "ym2612"
    },
    {
      "channel": 2,
      "note": 92,
      "start": 2.436,
      "duration": 0.0133,
      "velocity": 103,
      "chip": "ym2612"
    },
    {
      "channel": 3,
      "note": 51,
      "start": 2.4389,
      "duration": 0.0123,
      "velocity": 93,
      "chip": "ym2612"
    },
    {
      "channel": 4,
      "note": 92,
      "start": 2.4423,
      "duration": 0.0122,
      "velocity": 111,
      "chip": "ym2612"
    },
    {
      "channel": 0,
      "note": 83,
      "start": 2.4473,
      "duration": 0.1,
      "velocity": 103,
      "chip": "ym2612"
    },
    {
      "channel": 1,
      "note": 52,
      "start": 2.4475,
      "duration": 0.012,
      "velocity": 93,
      "chip": "ym2612"
    },
    {
      "channel": 2,
      "note": 83,
      "start": 2.4494,
      "duration": 0.0139,
      "velocity": 103,
      "chip": "ym2612"
    },
    {
      "channel": 3,
      "note": 52,
      "start": 2.4513,
      "duration": 0.0138,
      "velocity": 93,
      "chip": "ym2612"
    },
    {
      "channel": 4,
      "note": 83,
      "start": 2.4547,
      "duration": 0.0129,
      "velocity": 111,
      "chip": "ym2612"
    },
    {
      "channel": 1,
      "note": 51,
      "start": 2.4595,
      "duration": 0.0144,
      "velocity": 93,
      "chip": "ym2612"
    },
    {
      "channel": 2,
      "note": 83,
      "start": 2.4633,
      "duration": 0.0985,
      "velocity": 103,
      "chip": "ym2612"
    },
    {
      "channel": 3,
      "note": 51,
      "start": 2.4652,
      "duration": 0.011,
      "velocity": 93,
      "chip": "ym2612"
    },
    {
      "channel": 4,
      "note": 83,
      "start": 2.4676,
      "duration": 0.0993,
      "velocity": 111,
      "chip": "ym2612"
    },
    {
      "channel": 1,
      "note": 54,
      "start": 2.4845,
      "duration": 0.0112,
      "velocity": 93,
      "chip": "ym2612"
    },
    {
      "channel": 3,
      "note": 54,
      "start": 2.4877,
      "duration": 0.0125,
      "velocity": 93,
      "chip": "ym2612"
    },
    {
      "channel": 1,
      "note": 52,
      "start": 2.5081,
      "duration": 0.0099,
      "velocity": 93,
      "chip": "ym2612"
    },
    {
      "channel": 3,
      "note": 52,
      "start": 2.5102,
      "duration": 0.0136,
      "velocity": 93,
      "chip": "ym2612"
    },
    {
      "channel": 1,
      "note": 51,
      "start": 2.5182,
      "duration": 0.0151,
      "velocity": 93,
      "chip": "ym2612"
    },
    {
      "channel": 3,
      "note": 51,
      "start": 2.5239,
      "duration": 0.0149,
      "velocity": 93,
      "chip": "ym2612"
    },
    {
      "channel": 1,
      "note": 52,
      "start": 2.5335,
      "duration": 0.0138,
      "velocity": 93,
      "chip": "ym2612"
    },
    {
      "channel": 3,
      "note": 52,
      "start": 2.539,
      "duration": 0.0124,
      "velocity": 93,
      "chip": "ym2612"
    },
    {
      "channel": 0,
      "note": 83,
      "start": 2.5472,
      "duration": 0.0498,
      "velocity": 103,
      "chip": "ym2612"
    },
    {
      "channel": 1,
      "note": 51,
      "start": 2.5474,
      "duration": 0.0124,
      "velocity": 93,
      "chip": "ym2612"
    },
    {
      "channel": 3,
      "note": 51,
      "start": 2.5515,
      "duration": 0.0119,
      "velocity": 93,
      "chip": "ym2612"
    },
    {
      "channel": 1,
      "note": 49,
      "start": 2.5599,
      "duration": 0.0117,
      "velocity": 93,
      "chip": "ym2612"
    },
    {
      "channel": 2,
      "note": 83,
      "start": 2.5618,
      "duration": 0.0507,
      "velocity": 103,
      "chip": "ym2612"
    },
    {
      "channel": 3,
      "note": 49,
      "start": 2.5636,
      "duration": 0.0118,
      "velocity": 93,
      "chip": "ym2612"
    },
    {
      "channel": 4,
      "note": 83,
      "start": 2.567,
      "duration": 0.0492,
      "velocity": 111,
      "chip": "ym2612"
    },
    {
      "channel": 1,
      "note": 47,
      "start": 2.5718,
      "duration": 0.0135,
      "velocity": 93,
      "chip": "ym2612"
    },
    {
      "channel": 3,
      "note": 47,
      "start": 2.5756,
      "duration": 0.0136,
      "velocity": 93,
      "chip": "ym2612"
    },
    {
      "channel": 1,
      "note": 49,
      "start": 2.5854,
      "duration": 0.0121,
      "velocity": 93,
      "chip": "ym2612"
    },
    {
      "channel": 3,
      "note": 49,
      "start": 2.5893,
      "duration": 0.013,
      "velocity": 93,
      "chip": "ym2612"
    },
    {
      "channel": 0,
      "note": 80,
      "start": 2.5972,
      "duration": 0.0319,
      "velocity": 103,
      "chip": "ym2612"
    },
    {
      "channel": 1,
      "note": 42,
      "start": 2.5977,
      "duration": 0.097,
      "velocity": 93,
      "chip": "ym2612"
    },
    {
      "channel": 3,
      "note": 42,
      "start": 2.6024,
      "duration": 0.0959,
      "velocity": 93,
      "chip": "ym2612"
    },
    {
      "channel": 2,
      "note": 80,
      "start": 2.6127,
      "duration": 0.0307,
      "velocity": 103,
      "chip": "ym2612"
    },
    {
      "channel": 4,
      "note": 80,
      "start": 2.6163,
      "duration": 0.0326,
      "velocity": 111,
      "chip": "ym2612"
    },
    {
      "channel": 0,
      "note": 81,
      "start": 2.6292,
      "duration": 0.0313,
      "velocity": 103,
      "chip": "ym2612"
    },
    {
      "channel": 2,
      "note": 81,
      "start": 2.6436,
      "duration": 0.0323,
      "velocity": 103,
      "chip": "ym2612"
    },
    {
      "channel": 4,
      "note": 81,
      "start": 2.649,
      "duration": 0.029,
      "velocity": 111,
      "chip": "ym2612"
    },
    {
      "channel": 0,
      "note": 83,
      "start": 2.6607,
      "duration": 0.0338,
      "velocity": 103,
      "chip": "ym2612"
    },
    {
      "channel": 2,
      "note": 83,
      "start": 2.6761,
      "duration": 0.0325,
      "velocity": 103,
      "chip": "ym2612"
    },
    {
      "channel": 4,
      "note": 83,
      "start": 2.6781,
      "duration": 0.0352,
      "velocity": 111,
      "chip": "ym2612"
    },
    {
      "channel": 0,
      "note": 85,
      "start": 2.6946,
      "duration": 0.0328,
      "velocity": 103,
      "chip": "ym2612"
    },
    {
      "channel": 1,
      "note": 44,
      "start": 2.6947,
      "duration": 0.1026,
      "velocity": 93,
      "chip": "ym2612"
    },
    {
      "channel": 3,
      "note": 44,
      "start": 2.6984,
      "duration": 0.1043,
      "velocity": 93,
      "chip": "ym2612"
    },
    {
      "channel": 2,
      "note": 85,
      "start": 2.7088,
      "duration": 0.034,
      "velocity": 103,
      "chip": "ym2612"
    },
    {
      "channel": 4,
      "note": 85,
      "start": 2.7135,
      "duration": 0.0334,
      "velocity": 111,
      "chip": "ym2612"
    },
    {
      "channel": 0,
      "note": 87,
      "start": 2.7275,
      "duration": 0.0344,
      "velocity": 103,
      "chip": "ym2612"
    },
    {
      "channel": 2,
      "note": 87,
      "start": 2.7429,
      "duration": 0.035,
      "velocity": 103,
      "chip": "ym2612"
    },
    {
      "channel": 4,
      "note": 87,
      "start": 2.7471,
      "duration": 0.0344,
      "velocity": 111,
      "chip": "ym2612"
    },
    {
      "channel": 0,
      "note": 88,
      "start": 2.7621,
      "duration": 0.035,
      "velocity": 103,
      "chip": "ym2612"
    },
    {
      "channel": 2,
      "note": 88,
      "start": 2.778,
      "duration": 0.0327,
      "velocity": 103,
      "chip": "ym2612"
    },
    {
      "channel": 4,
      "note": 88,
      "start": 2.7815,
      "duration": 0.0342,
      "velocity": 111,
      "chip": "ym2612"
    },
    {
      "channel": 0,
      "note": 90,
      "start": 2.7972,
      "duration": 0.0229,
      "velocity": 103,
      "chip": "ym2612"
    },
    {
      "channel": 1,
      "note": 61,
      "start": 2.8101,
      "duration": 0.0102,
      "velocity": 93,
      "chip": "ym2612"
    },
    {
      "channel": 2,
      "note": 90,
      "start": 2.8108,
      "duration": 0.026,
      "velocity": 103,
      "chip": "ym2612"
    },
    {
      "channel": 3,
      "note": 61,
      "start": 2.8124,
      "duration": 0.0118,
      "velocity": 93,
      "chip": "ym2612"
    },
    {
      "channel": 4,
      "note": 90,
      "start": 2.8158,
      "duration": 0.0254,
      "velocity": 111,
      "chip": "ym2612"
    },
    {
      "channel": 0,
      "note": 92,
      "start": 2.8203,
      "duration": 0.0134,
      "velocity": 103,
      "chip": "ym2612"
    },
    {
      "channel": 1,
      "note": 49,
      "start": 2.8205,
      "duration": 0.0134,
      "velocity": 93,
      "chip": "ym2612"
    },
    {
      "channel": 3,
      "note": 49,
      "start": 2.8243,
      "duration": 0.0141,
      "velocity": 93,
      "chip": "ym2612"
    },
    {
      "channel": 0,
      "note": 95,
      "start": 2.8338,
      "duration": 0.0139,
      "velocity": 103,
      "chip": "ym2612"
    },
    {
      "channel": 1,
      "note": 51,
      "start": 2.834,
      "duration": 0.0138,
      "velocity": 93,
      "chip": "ym2612"
    },
    {
      "channel": 2,
      "note": 92,
      "start": 2.837,
      "duration": 0.0118,
      "velocity": 103,
      "chip": "ym2612"
    },
    {
      "channel": 3,
      "note": 51,
      "start": 2.8385,
      "duration": 0.012,
      "velocity": 93,
      "chip": "ym2612"
    },
    {
      "channel": 4,
      "note": 92,
      "start": 2.8414,
      "duration": 0.0127,
      "velocity": 111,
      "chip": "ym2612"
    },
    {
      "channel": 0,
      "note": 95,
      "start": 2.8478,
      "duration": 0.099,
      "velocity": 103,
      "chip": "ym2612"
    },
    {
      "channel": 1,
      "note": 52,
      "start": 2.848,
      "duration": 0.0114,
      "velocity": 93,
      "chip": "ym2612"
    },
    {
      "channel": 2,
      "note": 95,
      "start": 2.8489,
      "duration": 0.0138,
      "velocity": 103,
      "chip": "ym2612"
    },
    {
      "channel": 3,
      "note": 52,
      "start": 2.8507,
      "duration": 0.0138,
      "velocity": 93,
      "chip": "ym2612"
    },
    {
      "channel": 4,
      "note": 95,
      "start": 2.8542,
      "duration": 0.0135,
      "velocity": 111,
      "chip": "ym2612"
    },
    {
      "channel": 1,
      "note": 51,
      "start": 2.8595,
      "duration": 0.013,
      "velocity": 93,
      "chip": "ym2612"
    },
    {
      "channel": 2,
      "note": 95,
      "start": 2.8627,
      "duration": 0.0978,
      "velocity": 103,
      "chip": "ym2612"
    },
    {
      "channel": 3,
      "note": 51,
      "start": 2.8646,
      "duration": 0.0117,
      "velocity": 93,
      "chip": "ym2612"
    },
    {
      "channel": 4,
      "note": 95,
      "start": 2.8677,
      "duration": 0.0995,
      "velocity": 111,
      "chip": "ym2612"
    },
    {
      "channel": 1,
      "note": 54,
      "start": 2.8842,
      "duration": 0.0127,
      "velocity": 93,
      "chip": "ym2612"
    },
    {
      "channel": 3,
      "note": 54,
      "start": 2.8885,
      "duration": 0.0125,
      "velocity": 93,
      "chip": "ym2612"
    },
    {
      "channel": 1,
      "note": 52,
      "start": 2.9089,
      "duration": 0.0121,
      "velocity": 93,
      "chip": "ym2612"
    },
    {
      "channel": 3,
      "note": 52,
      "start": 2.9122,
      "duration": 0.0121,
      "velocity": 93,
      "chip": "ym2612"
    },
    {
      "channel": 1,
      "note": 51,
      "start": 2.9211,
      "duration": 0.0118,
      "velocity": 93,
      "chip": "ym2612"
    },
    {
      "channel": 3,
      "note": 51,
      "start": 2.9244,
      "duration": 0.0137,
      "velocity": 93,
      "chip": "ym2612"
    },
    {
      "channel": 1,
      "note": 52,
      "start": 2.933,
      "duration": 0.0138,
      "velocity": 93,
      "chip": "ym2612"
    },
    {
      "channel": 3,
      "note": 52,
      "start": 2.9383,
      "duration": 0.0132,
      "velocity": 93,
      "chip": "ym2612"
    },
    {
      "channel": 0,
      "note": 95,
      "start": 2.9468,
      "duration": 0.0534,
      "velocity": 103,
      "chip": "ym2612"
    },
    {
      "channel": 1,
      "note": 51,
      "start": 2.947,
      "duration": 0.0126,
      "velocity": 93,
      "chip": "ym2612"
    },
    {
      "channel": 3,
      "note": 51,
      "start": 2.9517,
      "duration": 0.012,
      "velocity": 93,
      "chip": "ym2612"
    },
    {
      "channel": 1,
      "note": 49,
      "start": 2.9597,
      "duration": 0.0125,
      "velocity": 93,
      "chip": "ym2612"
    },
    {
      "channel": 2,
      "note": 95,
      "start": 2.9605,
      "duration": 0.0541,
      "velocity": 103,
      "chip": "ym2612"
    },
    {
      "channel": 3,
      "note": 49,
      "start": 2.9639,
      "duration": 0.0142,
      "velocity": 93,
      "chip": "ym2612"
    },
    {
      "channel": 4,
      "note": 95,
      "start": 2.9672,
      "duration": 0.0525,
      "velocity": 111,
      "chip": "ym2612"
    },
    {
      "channel": 1,
      "note": 47,
      "start": 2.9724,
      "duration": 0.0148,
      "velocity": 93,
      "chip": "ym2612"
    },
    {
      "channel": 3,
      "note": 47,
      "start": 2.9782,
      "duration": 0.0139,
      "velocity": 93,
      "chip": "ym2612"
    },
    {
      "channel": 1,
      "note": 49,
      "start": 2.9873,
      "duration": 0.0134,
      "velocity": 93,
      "chip": "ym2612"
    },
    {
      "channel": 3,
      "note": 49,
      "start": 2.9922,
      "duration": 0.0125,
      "velocity": 93,
      "chip": "ym2612"
    },
    {
      "channel": 0,
      "note": 80,
      "start": 3.0003,
      "duration": 0.0315,
      "velocity": 103,
      "chip": "ym2612"
    },
    {
      "channel": 1,
      "note": 42,
      "start": 3.0008,
      "duration": 0.0987,
      "velocity": 93,
      "chip": "ym2612"
    },
    {
      "channel": 3,
      "note": 42,
      "start": 3.0049,
      "duration": 0.0978,
      "velocity": 93,
      "chip": "ym2612"
    },
    {
      "channel": 2,
      "note": 80,
      "start": 3.0147,
      "duration": 0.0305,
      "velocity": 103,
      "chip": "ym2612"
    },
    {
      "channel": 4,
      "note": 80,
      "start": 3.0199,
      "duration": 0.0298,
      "velocity": 111,
      "chip": "ym2612"
    },
    {
      "channel": 0,
      "note": 81,
      "start": 3.032,
      "duration": 0.0328,
      "velocity": 103,
      "chip": "ym2612"
    },
    {
      "channel": 2,
      "note": 81,
      "start": 3.0454,
      "duration": 0.0342,
      "velocity": 103,
      "chip": "ym2612"
    },
    {
      "channel": 4,
      "note": 81,
      "start": 3.0498,
      "duration": 0.0337,
      "velocity": 111,
      "chip": "ym2612"
    },
    {
      "channel": 0,
      "note": 83,
      "start": 3.0649,
      "duration": 0.0343,
      "velocity": 103,
      "chip": "ym2612"
    },
    {
      "channel": 2,
      "note": 83,
      "start": 3.0798,
      "duration": 0.0317,
      "velocity": 103,
      "chip": "ym2612"
    },
    {
      "channel": 4,
      "note": 83,
      "start": 3.0836,
      "duration": 0.0327,
      "velocity": 111,
      "chip": "ym2612"
    },
    {
      "channel": 0,
      "note": 85,
      "start": 3.0994,
      "duration": 0.0303,
      "velocity": 103,
      "chip": "ym2612"
    },
    {
      "channel": 1,
      "note": 44,
      "start": 3.0995,
      "duration": 0.096,
      "velocity": 93,
      "chip": "ym2612"
    },
    {
      "channel": 3,
      "note": 44,
      "start": 3.1027,
      "duration": 0.0976,
      "velocity": 93,
      "chip": "ym2612"
    },
    {
      "channel": 2,
      "note": 85,
      "start": 3.1117,
      "duration": 0.0335,
      "velocity": 103,
      "chip": "ym2612"
    },
    {
      "channel": 4,
      "note": 85,
      "start": 3.1165,
      "duration": 0.0328,
      "velocity": 111,
      "chip": "ym2612"
    },
    {
      "channel": 0,
      "note": 87,
      "start": 3.1298,
      "duration": 0.0332,
      "velocity": 103,
      "chip": "ym2612"
    },
    {
      "channel": 2,
      "note": 87,
      "start": 3.1453,
      "duration": 0.0324,
      "velocity": 103,
      "chip": "ym2612"
    },
    {
      "channel": 4,
      "note": 87,
      "start": 3.1494,
      "duration": 0.0315,
      "velocity": 111,
      "chip": "ym2612"
    },
    {
      "channel": 0,
      "note": 88,
      "start": 3.1632,
      "duration": 0.0322,
      "velocity": 103,
      "chip": "ym2612"
    },
    {
      "channel": 2,
      "note": 88,
      "start": 3.1778,
      "duration": 0.0311,
      "velocity": 103,
      "chip": "ym2612"
    },
    {
      "channel": 4,
      "note": 88,
      "start": 3.181,
      "duration": 0.0321,
      "velocity": 111,
      "chip": "ym2612"
    },
    {
      "channel": 0,
      "note": 90,
      "start": 3.1955,
      "duration": 0.0227,
      "velocity": 103,
      "chip": "ym2612"
    },
    {
      "channel": 1,
      "note": 61,
      "start": 3.2075,
      "duration": 0.0109,
      "velocity": 93,
      "chip": "ym2612"
    },
    {
      "channel": 2,
      "note": 90,
      "start": 3.2091,
      "duration": 0.0249,
      "velocity": 103,
      "chip": "ym2612"
    },
    {
      "channel": 3,
      "note": 61,
      "start": 3.211,
      "duration": 0.0112,
      "velocity": 93,
      "chip": "ym2612"
    },
    {
      "channel": 4,
      "note": 90,
      "start": 3.2133,
      "duration": 0.0257,
      "velocity": 111,
      "chip": "ym2612"
    },
    {
      "channel": 0,
      "note": 92,
      "start": 3.2184,
      "duration": 0.0125,
      "velocity": 103,
      "chip": "ym2612"
    },
    {
      "channel": 1,
      "note": 49,
      "start": 3.2186,
      "duration": 0.0125,
      "velocity": 93,
      "chip": "ym2612"
    },
    {
      "channel": 3,
      "note": 49,
      "start": 3.2223,
      "duration": 0.0134,
      "velocity": 93,
      "chip": "ym2612"
    },
    {
      "channel": 0,
      "note": 85,
      "start": 3.2311,
      "duration": 0.013,
      "velocity": 103,
      "chip": "ym2612"
    },
    {
      "channel": 1,
      "note": 51,
      "start": 3.2312,
      "duration": 0.0129,
      "velocity": 93,
      "chip": "ym2612"
    },
    {
      "channel": 2,
      "note": 92,
      "start": 3.2342,
      "duration": 0.0118,
      "velocity": 103,
      "chip": "ym2612"
    },
    {
      "channel": 3,
      "note": 51,
      "start": 3.2359,
      "duration": 0.0118,
      "velocity": 93,
      "chip": "ym2612"
    },
    {
      "channel": 4,
      "note": 92,
      "start": 3.2391,
      "duration": 0.0108,
      "velocity": 111,
      "chip": "ym2612"
    },
    {
      "channel": 0,
      "note": 85,
      "start": 3.2441,
      "duration": 0.0998,
      "velocity": 103,
      "chip": "ym2612"
    },
    {
      "channel": 1,
      "note": 52,
      "start": 3.2443,
      "duration": 0.0118,
      "velocity": 93,
      "chip": "ym2612"
    },
    {
      "channel": 2,
      "note": 85,
      "start": 3.2461,
      "duration": 0.011,
      "velocity": 103,
      "chip": "ym2612"
    },
    {
      "channel": 3,
      "note": 52,
      "start": 3.2478,
      "duration": 0.0129,
      "velocity": 93,
      "chip": "ym2612"
    },
    {
      "channel": 4,
      "note": 85,
      "start": 3.25,
      "duration": 0.0145,
      "velocity": 111,
      "chip": "ym2612"
    },
    {
      "channel": 1,
      "note": 51,
      "start": 3.2562,
      "duration": 0.0135,
      "velocity": 93,
      "chip": "ym2612"
    },
    {
      "channel": 2,
      "note": 85,
      "start": 3.2571,
      "duration": 0.1028,
      "velocity": 103,
      "chip": "ym2612"
    },
    {
      "channel": 3,
      "note": 51,
      "start": 3.2609,
      "duration": 0.0134,
      "velocity": 93,
      "chip": "ym2612"
    },
    {
      "channel": 4,
      "note": 85,
      "start": 3.2645,
      "duration": 0.0992,
      "velocity": 111,
      "chip": "ym2612"
    },
    {
      "channel": 1,
      "note": 54,
      "start": 3.283,
      "duration": 0.0126,
      "velocity": 93,
      "chip": "ym2612"
    },
    {
      "channel": 3,
      "note": 54,
      "start": 3.2867,
      "duration": 0.0122,
      "velocity": 93,
      "chip": "ym2612"
    },
    {
      "channel": 1,
      "note": 52,
      "start": 3.3054,
      "duration": 0.0112,
      "velocity": 93,
      "chip": "ym2612"
    },
    {
      "channel": 3,
      "note": 52,
      "start": 3.3088,
      "duration": 0.0134,
      "velocity": 93,
      "chip": "ym2612"
    },
    {
      "channel": 1,
      "note": 51,
      "start": 3.3168,
      "duration": 0.0148,
      "velocity": 93,
      "chip": "ym2612"
    },
    {
      "channel": 3,
      "note": 51,
      "start": 3.3224,
      "duration": 0.013,
      "velocity": 93,
      "chip": "ym2612"
    },
    {
      "channel": 1,
      "note": 52,
      "start": 3.3317,
      "duration": 0.0123,
      "velocity": 93,
      "chip": "ym2612"
    },
    {
      "channel": 3,
      "note": 52,
      "start": 3.3356,
      "duration": 0.0122,
      "velocity": 93,
      "chip": "ym2612"
    },
    {
      "channel": 0,
      "note": 92,
      "start": 3.344,
      "duration": 0.0523,
      "velocity": 103,
      "chip": "ym2612"
    },
    {
      "channel": 1,
      "note": 51,
      "start": 3.3442,
      "duration": 0.0121,
      "velocity": 93,
      "chip": "ym2612"
    },
    {
      "channel": 3,
      "note": 51,
      "start": 3.348,
      "duration": 0.0134,
      "velocity": 93,
      "chip": "ym2612"
    },
    {
      "channel": 1,
      "note": 49,
      "start": 3.3564,
      "duration": 0.0131,
      "velocity": 93,
      "chip": "ym2612"
    },
    {
      "channel": 2,
      "note": 92,
      "start": 3.36,
      "duration": 0.0496,
      "velocity": 103,
      "chip": "ym2612"
    },
    {
      "channel": 3,
      "note": 49,
      "start": 3.3617,
      "duration": 0.0112,
      "velocity": 93,
      "chip": "ym2612"
    },
    {
      "channel": 4,
      "note": 92,
      "start": 3.3639,
      "duration": 0.0506,
      "velocity": 111,
      "chip": "ym2612"
    },
    {
      "channel": 1,
      "note": 47,
      "start": 3.3696,
      "duration": 0.0128,
      "velocity": 93,
      "chip": "ym2612"
    },
    {
      "channel": 3,
      "note": 47,
      "start": 3.373,
      "duration": 0.0149,
      "velocity": 93,
      "chip": "ym2612"
    },
    {
      "channel": 1,
      "note": 49,
      "start": 3.3825,
      "duration": 0.0143,
      "velocity": 93,
      "chip": "ym2612"
    },
    {
      "channel": 3,
      "note": 49,
      "start": 3.388,
      "duration": 0.0127,
      "velocity": 93,
      "chip": "ym2612"
    },
    {
      "channel": 0,
      "note": 95,
      "start": 3.3964,
      "duration": 0.0732,
      "velocity": 103,
      "chip": "ym2612"
    },
    {
      "channel": 1,
      "note": 50,
      "start": 3.3968,
      "duration": 0.0986,
      "velocity": 93,
      "chip": "ym2612"
    },
    {
      "channel": 3,
      "note": 50,
      "start": 3.4007,
      "duration": 0.0998,
      "velocity": 93,
      "chip": "ym2612"
    },
    {
      "channel": 2,
      "note": 95,
      "start": 3.4098,
      "duration": 0.0736,
      "velocity": 103,
      "chip": "ym2612"
    },
    {
      "channel": 4,
      "note": 95,
      "start": 3.4147,
      "duration": 0.0753,
      "velocity": 111,
      "chip": "ym2612"
    },
    {
      "channel": 0,
      "note": 93,
      "start": 3.4697,
      "duration": 0.0128,
      "velocity": 103,
      "chip": "ym2612"
    },
    {
      "channel": 0,
      "note": 95,
      "start": 3.4827,
      "duration": 0.0124,
      "velocity": 103,
      "chip": "ym2612"
    },
    {
      "channel": 2,
      "note": 93,
      "start": 3.4835,
      "duration": 0.0148,
      "velocity": 103,
      "chip": "ym2612"
    },
    {
      "channel": 4,
      "note": 93,
      "start": 3.4901,
      "duration": 0.0133,
      "velocity": 111,
      "chip": "ym2612"
    },
    {
      "channel": 0,
      "note": 98,
      "start": 3.4952,
      "duration": 0.0607,
      "velocity": 103,
      "chip": "ym2612"
    },
    {
      "channel": 1,
      "note": 50,
      "start": 3.4953,
      "duration": 0.0983,
      "velocity": 93,
      "chip": "ym2612"
    },
    {
      "channel": 2,
      "note": 95,
      "start": 3.4985,
      "duration": 0.0122,
      "velocity": 103,
      "chip": "ym2612"
    },
    {
      "channel": 3,
      "note": 50,
      "start": 3.5005,
      "duration": 0.0967,
      "velocity": 93,
      "chip": "ym2612"
    },
    {
      "channel": 4,
      "note": 95,
      "start": 3.5036,
      "duration": 0.0111,
      "velocity": 111,
      "chip": "ym2612"
    },
    {
      "channel": 2,
      "note": 98,
      "start": 3.5108,
      "duration": 0.0582,
      "velocity": 103,
      "chip": "ym2612"
    },
    {
      "channel": 4,
      "note": 98,
      "start": 3.5148,
      "duration": 0.0589,
      "velocity": 111,
      "chip": "ym2612"
    },
    {
      "channel": 0,
      "note": 97,
      "start": 3.5561,
      "duration": 0.0103,
      "velocity": 103,
      "chip": "ym2612"
    },
    {
      "channel": 0,
      "note": 95,
      "start": 3.5665,
      "duration": 0.0129,
      "velocity": 103,
      "chip": "ym2612"
    },
    {
      "channel": 2,
      "note": 97,
      "start": 3.5692,
      "duration": 0.0137,
      "velocity": 103,
      "chip": "ym2612"
    },
    {
      "channel": 4,
      "note": 97,
      "start": 3.5738,
      "duration": 0.0132,
      "velocity": 111,
      "chip": "ym2612"
    },
    {
      "channel": 0,
      "note": 93,
      "start": 3.5795,
      "duration": 0.0139,
      "velocity": 103,
      "chip": "ym2612"
    },
    {
      "channel": 2,
      "note": 95,
      "start": 3.583,
      "duration": 0.0115,
      "velocity": 103,
      "chip": "ym2612"
    },
    {
      "channel": 4,
      "note": 95,
      "start": 3.5872,
      "duration": 0.0132,
      "velocity": 111,
      "chip": "ym2612"
    },
    {
      "channel": 0,
      "note": 92,
      "start": 3.5935,
      "duration": 0.0838,
      "velocity": 103,
      "chip": "ym2612"
    },
    {
      "channel": 1,
      "note": 44,
      "start": 3.5937,
      "duration": 0.097,
      "velocity": 93,
      "chip": "ym2612"
    },
    {
      "channel": 2,
      "note": 93,
      "start": 3.5946,
      "duration": 0.012,
      "velocity": 103,
      "chip": "ym2612"
    },
    {
      "channel": 3,
      "note": 44,
      "start": 3.5973,
      "duration": 0.0984,
      "velocity": 93,
      "chip": "ym2612"
    },
    {
      "channel": 4,
      "note": 93,
      "start": 3.6005,
      "duration": 0.0112,
      "velocity": 111,
      "chip": "ym2612"
    },
    {
      "channel": 2,
      "note": 92,
      "start": 3.6068,
      "duration": 0.0875,
      "velocity": 103,
      "chip": "ym2612"
    },
    {
      "channel": 4,
      "note": 92,
      "start": 3.6119,
      "duration": 0.086,
      "velocity": 111,
      "chip": "ym2612"
    },
    {
      "channel": 0,
      "note": 90,
      "start": 3.6775,
      "duration": 0.013,
      "velocity": 103,
      "chip": "ym2612"
    },
    {
      "channel": 0,
      "note": 92,
      "start": 3.6906,
      "duration": 0.101,
      "velocity": 103,
      "chip": "ym2612"
    },
    {
      "channel": 1,
      "note": 44,
      "start": 3.6908,
      "duration": 0.102,
      "velocity": 92,
      "chip": "ym2612"
    },
    {
      "channel": 2,
      "note": 90,
      "start": 3.6944,
      "duration": 0.0103,
      "velocity": 103,
      "chip": "ym2612"
    },
    {
      "channel": 3,
      "note": 44,
      "start": 3.6957,
      "duration": 0.1022,
      "velocity": 92,
      "chip": "ym2612"
    },
    {
      "channel": 4,
      "note": 90,
      "start": 3.6979,
      "duration": 0.012,
      "velocity": 111,
      "chip": "ym2612"
    },
    {
      "channel": 2,
      "note": 92,
      "start": 3.7049,
      "duration": 0.1036,
      "velocity": 103,
      "chip": "ym2612"
    },
    {
      "channel": 4,
      "note": 92,
      "start": 3.7101,
      "duration": 0.1022,
      "velocity": 111,
      "chip": "ym2612"
    },
    {
      "channel": 0,
      "note": 97,
      "start": 3.7917,
      "duration": 0.0134,
      "velocity": 103,
      "chip": "ym2612"
    },
    {
      "channel": 1,
      "note": 33,
      "start": 3.7929,
      "duration": 0.0995,
      "velocity": 92,
      "chip": "ym2612"
    },
    {
      "channel": 3,
      "note": 33,
      "start": 3.798,
      "duration": 0.0983,
      "velocity": 92,
      "chip": "ym2612"
    },
    {
      "channel": 0,
      "note": 100,
      "start": 3.8053,
      "duration": 0.0123,
      "velocity": 103,
      "chip": "ym2612"
    },
    {
      "channel": 2,
      "note": 97,
      "start": 3.8086,
      "duration": 0.0099,
      "velocity": 103,
      "chip": "ym2612"
    },
    {
      "channel": 4,
      "note": 97,
      "start": 3.8125,
      "duration": 0.0121,
      "velocity": 111,
      "chip": "ym2612"
    },
    {
      "channel": 0,
      "note": 104,
      "start": 3.8177,
      "duration": 0.0117,
      "velocity": 103,
      "chip": "ym2612"
    },
    {
      "channel": 2,
      "note": 100,
      "start": 3.8188,
      "duration": 0.0135,
      "velocity": 103,
      "chip": "ym2612"
    },
    {
      "channel": 4,
      "note": 100,
      "start": 3.8248,
      "duration": 0.0123,
      "velocity": 111,
      "chip": "ym2612"
    },
    {
      "channel": 0,
      "note": 102,
      "start": 3.8296,
      "duration": 0.1,
      "velocity": 103,
      "chip": "ym2612"
    },
    {
      "channel": 2,
      "note": 104,
      "start": 3.8325,
      "duration": 0.0115,
      "velocity": 103,
      "chip": "ym2612"
    },
    {
      "channel": 4,
      "note": 104,
      "start": 3.8373,
      "duration": 0.011,
      "velocity": 111,
      "chip": "ym2612"
    },
    {
      "channel": 2,
      "note": 102,
      "start": 3.8441,
      "duration": 0.1,
      "velocity": 103,
      "chip": "ym2612"
    },
    {
      "channel": 4,
      "note": 102,
      "start": 3.8483,
      "duration": 0.1009,
      "velocity": 111,
      "chip": "ym2612"
    },
    {
      "channel": 1,
      "note": 35,
      "start": 3.8925,
      "duration": 0.0977,
      "velocity": 92,
      "chip": "ym2612"
    },
    {
      "channel": 3,
      "note": 35,
      "start": 3.8965,
      "duration": 0.0975,
      "velocity": 92,
      "chip": "ym2612"
    },
    {
      "channel": 0,
      "note": 102,
      "start": 3.9295,
      "duration": 0.0122,
      "velocity": 103,
      "chip": "ym2612"
    },
    {
      "channel": 0,
      "note": 100,
      "start": 3.9419,
      "duration": 0.0232,
      "velocity": 103,
      "chip": "ym2612"
    },
    {
      "channel": 2,
      "note": 102,
      "start": 3.9441,
      "duration": 0.0121,
      "velocity": 103,
      "chip": "ym2612"
    },
    {
      "channel": 4,
      "note": 102,
      "start": 3.9492,
      "duration": 0.0107,
      "velocity": 111,
      "chip": "ym2612"
    },
    {
      "channel": 2,
      "note": 100,
      "start": 3.9563,
      "duration": 0.0247,
      "velocity": 103,
      "chip": "ym2612"
    },
    {
      "channel": 4,
      "note": 100,
      "start": 3.9601,
      "duration": 0.0253,
      "velocity": 111,
      "chip": "ym2612"
    },
    {
      "channel": 0,
      "note": 99,
      "start": 3.9653,
      "duration": 0.0247,
      "velocity": 103,
      "chip": "ym2612"
    },
    {
      "channel": 2,
      "note": 99,
      "start": 3.9811,
      "duration": 0.0208,
      "velocity": 103,
      "chip": "ym2612"
    },
    {
      "channel": 4,
      "note": 99,
      "start": 3.9856,
      "duration": 0.0219,
      "velocity": 111,
      "chip": "ym2612"
    },
    {
      "channel": 0,
      "note": 85,
      "start": 3.9901,
      "duration": 0.011,
      "velocity": 103,
      "chip": "ym2612"
    },
    {
      "channel": 1,
      "note": 30,
      "start": 3.9903,
      "duration": 0.0971,
      "velocity": 92,
      "chip": "ym2612"
    },
    {
      "channel": 3,
      "note": 30,
      "start": 3.9941,
      "duration": 0.0982,
      "velocity": 92,
      "chip": "ym2612"
    },
    {
      "channel": 0,
      "note": 88,
      "start": 4.0012,
      "duration": 0.0108,
      "velocity": 103,
      "chip": "ym2612"
    },
    {
      "channel": 2,
      "note": 85,
      "start": 4.0021,
      "duration": 0.0133,
      "velocity": 103,
      "chip": "ym2612"
    },
    {
      "channel": 4,
      "note": 85,
      "start": 4.0077,
      "duration": 0.0123,
      "velocity": 111,
      "chip": "ym2612"
    },
    {
      "channel": 0,
      "note": 92,
      "start": 4.0122,
      "duration": 0.0123,
      "velocity": 103,
      "chip": "ym2612"
    },
    {
      "channel": 2,
      "note": 88,
      "start": 4.0156,
      "duration": 0.012,
      "velocity": 103,
      "chip": "ym2612"
    },
    {
      "channel": 4,
      "note": 88,
      "start": 4.0201,
      "duration": 0.0111,
      "velocity": 111,
      "chip": "ym2612"
    },
    {
      "channel": 0,
      "note": 90,
      "start": 4.0246,
      "duration": 0.0983,
      "velocity": 103,
      "chip": "ym2612"
    },
    {
      "channel": 2,
      "note": 92,
      "start": 4.0278,
      "duration": 0.0102,
      "velocity": 103,
      "chip": "ym2612"
    },
    {
      "channel": 4,
      "note": 92,
      "start": 4.0314,
      "duration": 0.0118,
      "velocity": 111,
      "chip": "ym2612"
    },
    {
      "channel": 2,
      "note": 90,
      "start": 4.0382,
      "duration": 0.1005,
      "velocity": 103,
      "chip": "ym2612"
    },
    {
      "channel": 4,
      "note": 90,
      "start": 4.0434,
      "duration": 0.0996,
      "velocity": 111,
      "chip": "ym2612"
    },
    {
      "channel": 1,
      "note": 32,
      "start": 4.0876,
      "duration": 0.0996,
      "velocity": 92,
      "chip": "ym2612"
    },
    {
      "channel": 3,
      "note": 32,
      "start": 4.0925,
      "duration": 0.0981,
      "velocity": 92,
      "chip": "ym2612"
    },
    {
      "channel": 0,
      "note": 90,
      "start": 4.1229,
      "duration": 0.0131,
      "velocity": 103,
      "chip": "ym2612"
    },
    {
      "channel": 0,
      "note": 88,
      "start": 4.1361,
      "duration": 0.0241,
      "velocity": 103,
      "chip": "ym2612"
    },
    {
      "channel": 2,
      "note": 90,
      "start": 4.1387,
      "duration": 0.0105,
      "velocity": 103,
      "chip": "ym2612"
    },
    {
      "channel": 4,
      "note": 90,
      "start": 4.1429,
      "duration": 0.0127,
      "velocity": 111,
      "chip": "ym2612"
    },
    {
      "channel": 2,
      "note": 88,
      "start": 4.1493,
      "duration": 0.0278,
      "velocity": 103,
      "chip": "ym2612"
    },
    {
      "channel": 4,
      "note": 88,
      "start": 4.1559,
      "duration": 0.0251,
      "velocity": 111,
      "chip": "ym2612"
    },
    {
      "channel": 0,
      "note": 87,
      "start": 4.1604,
      "duration": 0.0266,
      "velocity": 103,
      "chip": "ym2612"
    },
    {
      "channel": 2,
      "note": 87,
      "start": 4.1773,
      "duration": 0.0236,
      "velocity": 103,
      "chip": "ym2612"
    },
    {
      "channel": 4,
      "note": 87,
      "start": 4.1811,
      "duration": 0.0241,
      "velocity": 111,
      "chip": "ym2612"
    },
    {
      "channel": 0,
      "note": 73,
      "start": 4.1871,
      "duration": 0.0103,
      "velocity": 103,
      "chip": "ym2612"
    },
    {
      "channel": 1,
      "note": 26,
      "start": 4.1874,
      "duration": 0.0962,
      "velocity": 92,
      "chip": "ym2612"
    },
    {
      "channel": 3,
      "note": 26,
      "start": 4.1908,
      "duration": 0.0975,
      "velocity": 92,
      "chip": "ym2612"
    },
    {
      "channel": 0,
      "note": 76,
      "start": 4.1977,
      "duration": 0.0124,
      "velocity": 103,
      "chip": "ym2612"
    },
    {
      "channel": 2,
      "note": 73,
      "start": 4.201,
      "duration": 0.0128,
      "velocity": 103,
      "chip": "ym2612"
    },
    {
      "channel": 4,
      "note": 73,
      "start": 4.2054,
      "duration": 0.0129,
      "velocity": 111,
      "chip": "ym2612"
    },
    {
      "channel": 0,
      "note": 80,
      "start": 4.2102,
      "duration": 0.0141,
      "velocity": 103,
      "chip": "ym2612"
    },
    {
      "channel": 2,
      "note": 76,
      "start": 4.2139,
      "duration": 0.0113,
      "velocity": 103,
      "chip": "ym2612"
    },
    {
      "channel": 4,
      "note": 76,
      "start": 4.2184,
      "duration": 0.0129,
      "velocity": 111,
      "chip": "ym2612"
    },
    {
      "channel": 0,
      "note": 78,
      "start": 4.2244,
      "duration": 0.0956,
      "velocity": 103,
      "chip": "ym2612"
    },
    {
      "channel": 2,
      "note": 80,
      "start": 4.2254,
      "duration": 0.0122,
      "velocity": 103,
      "chip": "ym2612"
    },
    {
      "channel": 4,
      "note": 80,
      "start": 4.2314,
      "duration": 0.011,
      "velocity": 111,
      "chip": "ym2612"
    },
    {
      "channel": 2,
      "note": 78,
      "start": 4.2378,
      "duration": 0.0968,
      "velocity": 103,
      "chip": "ym2612"
    },
    {
      "channel": 4,
      "note": 78,
      "start": 4.2425,
      "duration": 0.0981,
      "velocity": 111,
      "chip": "ym2612"
    },
    {
      "channel": 1,
      "note": 26,
      "start": 4.2836,
      "duration": 0.0983,
      "velocity": 92,
      "chip": "ym2612"
    },
    {
      "channel": 3,
      "note": 26,
      "start": 4.2883,
      "duration": 0.0981,
      "velocity": 92,
      "chip": "ym2612"
    },
    {
      "channel": 0,
      "note": 78,
      "start": 4.32,
      "duration": 0.0135,
      "velocity": 103,
      "chip": "ym2612"
    },
    {
      "channel": 0,
      "note": 76,
      "start": 4.3337,
      "duration": 0.0229,
      "velocity": 103,
      "chip": "ym2612"
    },
    {
      "channel": 2,
      "note": 78,
      "start": 4.3346,
      "duration": 0.013,
      "velocity": 103,
      "chip": "ym2612"
    },
    {
      "channel": 4,
      "note": 78,
      "start": 4.3406,
      "duration": 0.0117,
      "velocity": 111,
      "chip": "ym2612"
    },
    {
      "channel": 2,
      "note": 76,
      "start": 4.3477,
      "duration": 0.0237,
      "velocity": 103,
      "chip": "ym2612"
    },
    {
      "channel": 4,
      "note": 76,
      "start": 4.3525,
      "duration": 0.0248,
      "velocity": 111,
      "chip": "ym2612"
    },
    {
      "channel": 0,
      "note": 74,
      "start": 4.3568,
      "duration": 0.0249,
      "velocity": 103,
      "chip": "ym2612"
    },
    {
      "channel": 2,
      "note": 74,
      "start": 4.3716,
      "duration": 0.0247,
      "velocity": 103,
      "chip": "ym2612"
    },
    {
      "channel": 4,
      "note": 74,
      "start": 4.3774,
      "duration": 0.023,
      "velocity": 111,
      "chip": "ym2612"
    },
    {
      "channel": 0,
      "note": 73,
      "start": 4.3818,
      "duration": 0.0999,
      "velocity": 103,
      "chip": "ym2612"
    },
    {
      "channel": 1,
      "note": 32,
      "start": 4.382,
      "duration": 0.1,
      "velocity": 92,
      "chip": "ym2612"
    },
    {
      "channel": 3,
      "note": 32,
      "start": 4.3865,
      "duration": 0.1003,
      "velocity": 92,
      "chip": "ym2612"
    },
    {
      "channel": 2,
      "note": 73,
      "start": 4.3964,
      "duration": 0.1008,
      "velocity": 103,
      "chip": "ym2612"
    },
    {
      "channel": 4,
      "note": 73,
      "start": 4.4006,
      "duration": 0.1017,
      "velocity": 111,
      "chip": "ym2612"
    },
    {
      "channel": 0,
      "note": 72,
      "start": 4.4819,
      "duration": 0.0967,
      "velocity": 103,
      "chip": "ym2612"
    },
    {
      "channel": 1,
      "note": 32,
      "start": 4.482,
      "duration": 0.0978,
      "velocity": 93,
      "chip": "ym2612"
    },
    {
      "channel": 3,
      "note": 32,
      "start": 4.4868,
      "duration": 0.0988,
      "velocity": 93,
      "chip": "ym2612"
    },
    {
      "channel": 2,
      "note": 72,
      "start": 4.4973,
      "duration": 0.098,
      "velocity": 103,
      "chip": "ym2612"
    },
    {
      "channel": 4,
      "note": 72,
      "start": 4.5025,
      "duration": 0.0996,
      "velocity": 111,
      "chip": "ym2612"
    },
    {
      "channel": 0,
      "note": 73,
      "start": 4.5788,
      "duration": 0.1026,
      "velocity": 103,
      "chip": "ym2612"
    },
    {
      "channel": 1,
      "note": 61,
      "start": 4.5799,
      "duration": 0.0145,
      "velocity": 93,
      "chip": "ym2612"
    },
    {
      "channel": 3,
      "note": 61,
      "start": 4.5857,
      "duration": 0.0126,
      "velocity": 93,
      "chip": "ym2612"
    },
    {
      "channel": 1,
      "note": 49,
      "start": 4.5946,
      "duration": 0.0126,
      "velocity": 93,
      "chip": "ym2612"
    },
    {
      "channel": 2,
      "note": 73,
      "start": 4.5954,
      "duration": 0.1014,
      "velocity": 103,
      "chip": "ym2612"
    },
    {
      "channel": 3,
      "note": 49,
      "start": 4.5985,
      "duration": 0.0146,
      "velocity": 93,
      "chip": "ym2612"
    },
    {
      "channel": 4,
      "note": 73,
      "start": 4.6022,
      "duration": 0.0991,
      "velocity": 111,
      "chip": "ym2612"
    },
    {
      "channel": 1,
      "note": 49,
      "start": 4.6073,
      "duration": 0.0148,
      "velocity": 93,
      "chip": "ym2612"
    },
    {
      "channel": 3,
      "note": 49,
      "start": 4.6133,
      "duration": 0.0141,
      "velocity": 93,
      "chip": "ym2612"
    },
    {
      "channel": 1,
      "note": 56,
      "start": 4.6223,
      "duration": 0.014,
      "velocity": 93,
      "chip": "ym2612"
    },
    {
      "channel": 3,
      "note": 56,
      "start": 4.6275,
      "duration": 0.0113,
      "velocity": 93,
      "chip": "ym2612"
    },
    {
      "channel": 1,
      "note": 54,
      "start": 4.6455,
      "duration": 0.0108,
      "velocity": 93,
      "chip": "ym2612"
    },
    {
      "channel": 3,
      "note": 54,
      "start": 4.6489,
      "duration": 0.0122,
      "velocity": 93,
      "chip": "ym2612"
    },
    {
      "channel": 1,
      "note": 59,
      "start": 4.669,
      "duration": 0.0124,
      "velocity": 93,
      "chip": "ym2612"
    },
    {
      "channel": 3,
      "note": 59,
      "start": 4.6735,
      "duration": 0.0125,
      "velocity": 93,
      "chip": "ym2612"
    },
    {
      "channel": 0,
      "note": 73,
      "start": 4.6813,
      "duration": 0.099,
      "velocity": 103,
      "chip": "ym2612"
    },
    {
      "channel": 1,
      "note": 54,
      "start": 4.6941,
      "duration": 0.0131,
      "velocity": 93,
      "chip": "ym2612"
    },
    {
      "channel": 2,
      "note": 73,
      "start": 4.6969,
      "duration": 0.097,
      "velocity": 103,
      "chip": "ym2612"
    },
    {
      "channel": 3,
      "note": 54,
      "start": 4.6988,
      "duration": 0.012,
      "velocity": 93,
      "chip": "ym2612"
    },
    {
      "channel": 4,
      "note": 73,
      "start": 4.7013,
      "duration": 0.0973,
      "velocity": 111,
      "chip": "ym2612"
    },
    {
      "channel": 1,
      "note": 56,
      "start": 4.7183,
      "duration": 0.0135,
      "velocity": 93,
      "chip": "ym2612"
    },
    {
      "channel": 3,
      "note": 56,
      "start": 4.7234,
      "duration": 0.0117,
      "velocity": 93,
      "chip": "ym2612"
    },
    {
      "channel": 1,
      "note": 42,
      "start": 4.7426,
      "duration": 0.0107,
      "velocity": 93,
      "chip": "ym2612"
    },
    {
      "channel": 3,
      "note": 42,
      "start": 4.7451,
      "duration": 0.0127,
      "velocity": 93,
      "chip": "ym2612"
    },
    {
      "channel": 1,
      "note": 44,
      "start": 4.7535,
      "duration": 0.0139,
      "velocity": 93,
      "chip": "ym2612"
    },
    {
      "channel": 3,
      "note": 44,
      "start": 4.758,
      "duration": 0.0139,
      "velocity": 93,
      "chip": "ym2612"
    },
    {
      "channel": 1,
      "note": 47,
      "start": 4.7676,
      "duration": 0.0128,
      "velocity": 93,
      "chip": "ym2612"
    },
    {
      "channel": 3,
      "note": 47,
      "start": 4.7721,
      "duration": 0.012,
      "velocity": 93,
      "chip": "ym2612"
    },
    {
      "channel": 0,
      "note": 73,
      "start": 4.7803,
      "duration": 0.0871,
      "velocity": 103,
      "chip": "ym2612"
    },
    {
      "channel": 1,
      "note": 61,
      "start": 4.7805,
      "duration": 0.0108,
      "velocity": 93,
      "chip": "ym2612"
    },
    {
      "channel": 3,
      "note": 61,
      "start": 4.7843,
      "duration": 0.0114,
      "velocity": 93,
      "chip": "ym2612"
    },
    {
      "channel": 1,
      "note": 49,
      "start": 4.7914,
      "duration": 0.0115,
      "velocity": 93,
      "chip": "ym2612"
    },
    {
      "channel": 2,
      "note": 73,
      "start": 4.7939,
      "duration": 0.0845,
      "velocity": 103,
      "chip": "ym2612"
    },
    {
      "channel": 3,
      "note": 49,
      "start": 4.7958,
      "duration": 0.0106,
      "velocity": 93,
      "chip": "ym2612"
    },
    {
      "channel": 4,
      "note": 73,
      "start": 4.7986,
      "duration": 0.0839,
      "velocity": 111,
      "chip": "ym2612"
    },
    {
      "channel": 1,
      "note": 49,
      "start": 4.8031,
      "duration": 0.0112,
      "velocity": 93,
      "chip": "ym2612"
    },
    {
      "channel": 3,
      "note": 49,
      "start": 4.8065,
      "duration": 0.0111,
      "velocity": 93,
      "chip": "ym2612"
    },
    {
      "channel": 1,
      "note": 56,
      "start": 4.8144,
      "duration": 0.0105,
      "velocity": 93,
      "chip": "ym2612"
    },
    {
      "channel": 3,
      "note": 56,
      "start": 4.8177,
      "duration": 0.01,
      "velocity": 93,
      "chip": "ym2612"
    },
    {
      "channel": 1,
      "note": 54,
      "start": 4.8338,
      "duration": 0.011,
      "velocity": 93,
      "chip": "ym2612"
    },
    {
      "channel": 3,
      "note": 54,
      "start": 4.8377,
      "duration": 0.0105,
      "velocity": 93,
      "chip": "ym2612"
    },
    {
      "channel": 1,
      "note": 59,
      "start": 4.8548,
      "duration": 0.0127,
      "velocity": 93,
      "chip": "ym2612"
    },
    {
      "channel": 3,
      "note": 59,
      "start": 4.8596,
      "duration": 0.011,
      "velocity": 93,
      "chip": "ym2612"
    },
    {
      "channel": 0,
      "note": 73,
      "start": 4.8674,
      "duration": 0.0861,
      "velocity": 103,
      "chip": "ym2612"
    },
    {
      "channel": 1,
      "note": 54,
      "start": 4.8779,
      "duration": 0.0088,
      "velocity": 93,
      "chip": "ym2612"
    },
    {
      "channel": 2,
      "note": 73,
      "start": 4.8784,
      "duration": 0.091,
      "velocity": 103,
      "chip": "ym2612"
    },
    {
      "channel": 3,
      "note": 54,
      "start": 4.8798,
      "duration": 0.0111,
      "velocity": 93,
      "chip": "ym2612"
    },
    {
      "channel": 4,
      "note": 73,
      "start": 4.8826,
      "duration": 0.0907,
      "velocity": 111,
      "chip": "ym2612"
    },
    {
      "channel": 1,
      "note": 56,
      "start": 4.8976,
      "duration": 0.0111,
      "velocity": 93,
      "chip": "ym2612"
    },
    {
      "channel": 3,
      "note": 56,
      "start": 4.9007,
      "duration": 0.0105,
      "velocity": 93,
      "chip": "ym2612"
    },
    {
      "channel": 1,
      "note": 42,
      "start": 4.9183,
      "duration": 0.0097,
      "velocity": 93,
      "chip": "ym2612"
    },
    {
      "channel": 3,
      "note": 42,
      "start": 4.9215,
      "duration": 0.0113,
      "velocity": 93,
      "chip": "ym2612"
    },
    {
      "channel": 1,
      "note": 44,
      "start": 4.9281,
      "duration": 0.0136,
      "velocity": 93,
      "chip": "ym2612"
    },
    {
      "channel": 3,
      "note": 44,
      "start": 4.9331,
      "duration": 0.0124,
      "velocity": 93,
      "chip": "ym2612"
    },
    {
      "channel": 1,
      "note": 47,
      "start": 4.9419,
      "duration": 0.0117,
      "velocity": 93,
      "chip": "ym2612"
    },
    {
      "channel": 3,
      "note": 47,
      "start": 4.9457,
      "duration": 0.0123,
      "velocity": 93,
      "chip": "ym2612"
    },
    {
      "channel": 0,
      "note": 73,
      "start": 4.9535,
      "duration": 0.0956,
      "velocity": 103,
      "chip": "ym2612"
    },
    {
      "channel": 1,
      "note": 61,
      "start": 4.9537,
      "duration": 0.0121,
      "velocity": 93,
      "chip": "ym2612"
    },
    {
      "channel": 3,
      "note": 61,
      "start": 4.9582,
      "duration": 0.0126,
      "velocity": 93,
      "chip": "ym2612"
    },
    {
      "channel": 1,
      "note": 49,
      "start": 4.9659,
      "duration": 0.0129,
      "velocity": 93,
      "chip": "ym2612"
    },
    {
      "channel": 2,
      "note": 73,
      "start": 4.9693,
      "duration": 0.0922,
      "velocity": 103,
      "chip": "ym2612"
    },
    {
      "channel": 3,
      "note": 49,
      "start": 4.9709,
      "duration": 0.0121,
      "velocity": 93,
      "chip": "ym2612"
    },
    {
      "channel": 4,
      "note": 73,
      "start": 4.9732,
      "duration": 0.0929,
      "velocity": 111,
      "chip": "ym2612"
    },
    {
      "channel": 1,
      "note": 49,
      "start": 4.979,
      "duration": 0.0122,
      "velocity": 93,
      "chip": "ym2612"
    },
    {
      "channel": 3,
      "note": 49,
      "start": 4.9831,
      "duration": 0.0129,
      "velocity": 93,
      "chip": "ym2612"
    },
    {
      "channel": 1,
      "note": 56,
      "start": 4.9913,
      "duration": 0.0129,
      "velocity": 93,
      "chip": "ym2612"
    },
    {
      "channel": 3,
      "note": 56,
      "start": 4.9961,
      "duration": 0.012,
      "velocity": 93,
      "chip": "ym2612"
    },
    {
      "channel": 1,
      "note": 54,
      "start": 5.0151,
      "duration": 0.0106,
      "velocity": 93,
      "chip": "ym2612"
    },
    {
      "channel": 3,
      "note": 54,
      "start": 5.0177,
      "duration": 0.0127,
      "velocity": 93,
      "chip": "ym2612"
    },
    {
      "channel": 1,
      "note": 59,
      "start": 5.0377,
      "duration": 0.0115,
      "velocity": 93,
      "chip": "ym2612"
    },
    {
      "channel": 3,
      "note": 59,
      "start": 5.041,
      "duration": 0.0106,
      "velocity": 93,
      "chip": "ym2612"
    },
    {
      "channel": 0,
      "note": 73,
      "start": 5.0491,
      "duration": 0.0918,
      "velocity": 103,
      "chip": "ym2612"
    },
    {
      "channel": 1,
      "note": 54,
      "start": 5.058,
      "duration": 0.0128,
      "velocity": 93,
      "chip": "ym2612"
    },
    {
      "channel": 2,
      "note": 73,
      "start": 5.0615,
      "duration": 0.0914,
      "velocity": 103,
      "chip": "ym2612"
    },
    {
      "channel": 3,
      "note": 54,
      "start": 5.0631,
      "duration": 0.0112,
      "velocity": 93,
      "chip": "ym2612"
    },
    {
      "channel": 4,
      "note": 73,
      "start": 5.0662,
      "duration": 0.0938,
      "velocity": 111,
      "chip": "ym2612"
    },
    {
      "channel": 1,
      "note": 56,
      "start": 5.0811,
      "duration": 0.0108,
      "velocity": 93,
      "chip": "ym2612"
    },
    {
      "channel": 3,
      "note": 56,
      "start": 5.0837,
      "duration": 0.0115,
      "velocity": 93,
      "chip": "ym2612"
    },
    {
      "channel": 1,
      "note": 42,
      "start": 5.1027,
      "duration": 0.0123,
      "velocity": 93,
      "chip": "ym2612"
    },
    {
      "channel": 3,
      "note": 42,
      "start": 5.1068,
      "duration": 0.0128,
      "velocity": 93,
      "chip": "ym2612"
    },
    {
      "channel": 1,
      "note": 44,
      "start": 5.1151,
      "duration": 0.013,
      "velocity": 93,
      "chip": "ym2612"
    },
    {
      "channel": 3,
      "note": 44,
      "start": 5.1198,
      "duration": 0.0133,
      "velocity": 93,
      "chip": "ym2612"
    },
    {
      "channel": 1,
      "note": 47,
      "start": 5.1282,
      "duration": 0.0128,
      "velocity": 93,
      "chip": "ym2612"
    },
    {
      "channel": 3,
      "note": 47,
      "start": 5.1332,
      "duration": 0.0112,
      "velocity": 93,
      "chip": "ym2612"
    },
    {
      "channel": 0,
      "note": 73,
      "start": 5.1409,
      "duration": 0.0981,
      "velocity": 103,
      "chip": "ym2612"
    },
    {
      "channel": 1,
      "note": 61,
      "start": 5.1412,
      "duration": 0.0108,
      "velocity": 93,
      "chip": "ym2612"
    },
    {
      "channel": 3,
      "note": 61,
      "start": 5.1446,
      "duration": 0.0117,
      "velocity": 93,
      "chip": "ym2612"
    },
    {
      "channel": 1,
      "note": 49,
      "start": 5.1521,
      "duration": 0.0129,
      "velocity": 93,
      "chip": "ym2612"
    },
    {
      "channel": 2,
      "note": 73,
      "start": 5.1529,
      "duration": 0.0995,
      "velocity": 103,
      "chip": "ym2612"
    },
    {
      "channel": 3,
      "note": 49,
      "start": 5.1564,
      "duration": 0.0133,
      "velocity": 93,
      "chip": "ym2612"
    },
    {
      "channel": 4,
      "note": 73,
      "start": 5.16,
      "duration": 0.0964,
      "velocity": 111,
      "chip": "ym2612"
    },
    {
      "channel": 1,
      "note": 49,
      "start": 5.1651,
      "duration": 0.0146,
      "velocity": 93,
      "chip": "ym2612"
    },
    {
      "channel": 3,
      "note": 49,
      "start": 5.1699,
      "duration": 0.0147,
      "velocity": 93,
      "chip": "ym2612"
    },
    {
      "channel": 1,
      "note": 56,
      "start": 5.1799,
      "duration": 0.0133,
      "velocity": 93,
      "chip": "ym2612"
    },
    {
      "channel": 3,
      "note": 56,
      "start": 5.1848,
      "duration": 0.0112,
      "velocity": 93,
      "chip": "ym2612"
    },
    {
      "channel": 1,
      "note": 54,
      "start": 5.2034,
      "duration": 0.0118,
      "velocity": 93,
      "chip": "ym2612"
    },
    {
      "channel": 3,
      "note": 54,
      "start": 5.2069,
      "duration": 0.0135,
      "velocity": 93,
      "chip": "ym2612"
    },
    {
      "channel": 1,
      "note": 59,
      "start": 5.2282,
      "duration": 0.0109,
      "velocity": 93,
      "chip": "ym2612"
    },
    {
      "channel": 3,
      "note": 59,
      "start": 5.2308,
      "duration": 0.0125,
      "velocity": 93,
      "chip": "ym2612"
    },
    {
      "channel": 0,
      "note": 73,
      "start": 5.239,
      "duration": 0.0969,
      "velocity": 103,
      "chip": "ym2612"
    },
    {
      "channel": 1,
      "note": 54,
      "start": 5.2507,
      "duration": 0.0115,
      "velocity": 93,
      "chip": "ym2612"
    },
    {
      "channel": 2,
      "note": 73,
      "start": 5.2524,
      "duration": 0.0978,
      "velocity": 103,
      "chip": "ym2612"
    },
    {
      "channel": 3,
      "note": 54,
      "start": 5.2541,
      "duration": 0.0106,
      "velocity": 93,
      "chip": "ym2612"
    },
    {
      "channel": 4,
      "note": 73,
      "start": 5.2563,
      "duration": 54.5316,
      "velocity": 111,
      "chip": "ym2612"
    },
    {
      "channel": 1,
      "note": 56,
      "start": 5.2721,
      "duration": 0.0137,
      "velocity": 93,
      "chip": "ym2612"
    },
    {
      "channel": 3,
      "note": 56,
      "start": 5.2772,
      "duration": 0.0126,
      "velocity": 93,
      "chip": "ym2612"
    },
    {
      "channel": 1,
      "note": 42,
      "start": 5.2973,
      "duration": 0.011,
      "velocity": 93,
      "chip": "ym2612"
    },
    {
      "channel": 3,
      "note": 42,
      "start": 5.3,
      "duration": 0.0131,
      "velocity": 93,
      "chip": "ym2612"
    },
    {
      "channel": 1,
      "note": 44,
      "start": 5.3084,
      "duration": 0.0131,
      "velocity": 93,
      "chip": "ym2612"
    },
    {
      "channel": 3,
      "note": 44,
      "start": 5.3133,
      "duration": 0.0131,
      "velocity": 93,
      "chip": "ym2612"
    },
    {
      "channel": 1,
      "note": 47,
      "start": 5.3217,
      "duration": 0.0144,
      "velocity": 93,
      "chip": "ym2612"
    },
    {
      "channel": 3,
      "note": 47,
      "start": 5.3265,
      "duration": 0.0133,
      "velocity": 93,
      "chip": "ym2612"
    },
    {
      "channel": 0,
      "note": 83,
      "start": 5.3361,
      "duration": 54.4519,
      "velocity": 103,
      "chip": "ym2612"
    },
    {
      "channel": 1,
      "note": 61,
      "start": 5.3363,
      "duration": 0.011,
      "velocity": 93,
      "chip": "ym2612"
    },
    {
      "channel": 3,
      "note": 61,
      "start": 5.34,
      "duration": 0.012,
      "velocity": 93,
      "chip": "ym2612"
    },
    {
      "channel": 1,
      "note": 49,
      "start": 5.3474,
      "duration": 54.4405,
      "velocity": 93,
      "chip": "ym2612"
    },
    {
      "channel": 2,
      "note": 83,
      "start": 5.3503,
      "duration": 54.4376,
      "velocity": 103,
      "chip": "ym2612"
    },
    {
      "channel": 3,
      "note": 49,
      "start": 5.3521,
      "duration": 54.4358,
      "velocity": 93,
      "chip": "ym2612"
    }
  ]
}