{
  "track_name": "17 - Friday and a Soft Breeze",
  "duration_sec": 49.974,
  "sample_rate": 44100,
  "note_count": 872,
  "unique_pitches": 54,
  "pitch_range": 55,
  "avg_note_duration": 0.201,
  "reconstruction_stats": {
    "notes_reconstructed": 872,
    "keyon_events": 872,
    "keyoff_events": 870,
    "orphan_keyons": 2,
    "unique_pitches": 54,
    "pitch_range": 55,
    "avg_duration_sec": 0.201
  },
  "metadata": {
    "source": "L\\LandStalker\\17 - Friday and a Soft Breeze.vgz"
  },
  "notes": [
    {
      "channel": 0,
      "note": 86,
      "start": 0.0508,
      "duration": 0.104,
      "velocity": 93,
      "chip": "ym2612"
    },
    {
      "channel": 1,
      "note": 82,
      "start": 0.0532,
      "duration": 0.7519,
      "velocity": 93,
      "chip": "ym2612"
    },
    {
      "channel": 2,
      "note": 76,
      "start": 0.0565,
      "duration": 0.749,
      "velocity": 93,
      "chip": "ym2612"
    },
    {
      "channel": 3,
      "note": 53,
      "start": 0.0598,
      "duration": 0.7461,
      "velocity": 93,
      "chip": "ym2612"
    },
    {
      "channel": 0,
      "note": 82,
      "start": 0.1766,
      "duration": 0.1082,
      "velocity": 93,
      "chip": "ym2612"
    },
    {
      "channel": 4,
      "note": 85,
      "start": 0.1807,
      "duration": 0.1051,
      "velocity": 93,
      "chip": "ym2612"
    },
    {
      "channel": 0,
      "note": 78,
      "start": 0.3067,
      "duration": 0.1081,
      "velocity": 93,
      "chip": "ym2612"
    },
    {
      "channel": 4,
      "note": 86,
      "start": 0.3081,
      "duration": 0.1078,
      "velocity": 93,
      "chip": "ym2612"
    },
    {
      "channel": 0,
      "note": 85,
      "start": 0.4367,
      "duration": 0.1081,
      "velocity": 93,
      "chip": "ym2612"
    },
    {
      "channel": 4,
      "note": 82,
      "start": 0.4381,
      "duration": 0.1079,
      "velocity": 93,
      "chip": "ym2612"
    },
    {
      "channel": 0,
      "note": 82,
      "start": 0.5667,
      "duration": 0.1082,
      "velocity": 93,
      "chip": "ym2612"
    },
    {
      "channel": 4,
      "note": 78,
      "start": 0.5682,
      "duration": 0.1078,
      "velocity": 93,
      "chip": "ym2612"
    },
    {
      "channel": 0,
      "note": 76,
      "start": 0.6967,
      "duration": 0.1082,
      "velocity": 93,
      "chip": "ym2612"
    },
    {
      "channel": 4,
      "note": 85,
      "start": 0.6982,
      "duration": 0.108,
      "velocity": 93,
      "chip": "ym2612"
    },
    {
      "channel": 0,
      "note": 83,
      "start": 0.8267,
      "duration": 0.1081,
      "velocity": 93,
      "chip": "ym2612"
    },
    {
      "channel": 1,
      "note": 83,
      "start": 0.8273,
      "duration": 0.7579,
      "velocity": 93,
      "chip": "ym2612"
    },
    {
      "channel": 2,
      "note": 75,
      "start": 0.8278,
      "duration": 0.7577,
      "velocity": 93,
      "chip": "ym2612"
    },
    {
      "channel": 3,
      "note": 66,
      "start": 0.8284,
      "duration": 0.7574,
      "velocity": 93,
      "chip": "ym2612"
    },
    {
      "channel": 4,
      "note": 82,
      "start": 0.8291,
      "duration": 0.1068,
      "velocity": 93,
      "chip": "ym2612"
    },
    {
      "channel": 0,
      "note": 78,
      "start": 0.9567,
      "duration": 0.1082,
      "velocity": 93,
      "chip": "ym2612"
    },
    {
      "channel": 4,
      "note": 76,
      "start": 0.9581,
      "duration": 0.1078,
      "velocity": 93,
      "chip": "ym2612"
    },
    {
      "channel": 0,
      "note": 75,
      "start": 1.0868,
      "duration": 0.1081,
      "velocity": 93,
      "chip": "ym2612"
    },
    {
      "channel": 4,
      "note": 83,
      "start": 1.0882,
      "duration": 0.1078,
      "velocity": 93,
      "chip": "ym2612"
    },
    {
      "channel": 0,
      "note": 81,
      "start": 1.2168,
      "duration": 0.1081,
      "velocity": 93,
      "chip": "ym2612"
    },
    {
      "channel": 4,
      "note": 78,
      "start": 1.2183,
      "duration": 0.1078,
      "velocity": 93,
      "chip": "ym2612"
    },
    {
      "channel": 0,
      "note": 78,
      "start": 1.3468,
      "duration": 0.1082,
      "velocity": 93,
      "chip": "ym2612"
    },
    {
      "channel": 4,
      "note": 75,
      "start": 1.3483,
      "duration": 0.1078,
      "velocity": 93,
      "chip": "ym2612"
    },
    {
      "channel": 0,
      "note": 75,
      "start": 1.4768,
      "duration": 0.1081,
      "velocity": 93,
      "chip": "ym2612"
    },
    {
      "channel": 4,
      "note": 81,
      "start": 1.4783,
      "duration": 0.108,
      "velocity": 93,
      "chip": "ym2612"
    },
    {
      "channel": 0,
      "note": 80,
      "start": 1.6068,
      "duration": 0.1081,
      "velocity": 93,
      "chip": "ym2612"
    },
    {
      "channel": 1,
      "note": 85,
      "start": 1.6074,
      "duration": 0.7579,
      "velocity": 93,
      "chip": "ym2612"
    },
    {
      "channel": 2,
      "note": 77,
      "start": 1.6079,
      "duration": 0.7577,
      "velocity": 93,
      "chip": "ym2612"
    },
    {
      "channel": 3,
      "note": 66,
      "start": 1.6085,
      "duration": 0.7574,
      "velocity": 93,
      "chip": "ym2612"
    },
    {
      "channel": 4,
      "note": 78,
      "start": 1.6092,
      "duration": 0.1068,
      "velocity": 93,
      "chip": "ym2612"
    },
    {
      "channel": 0,
      "note": 73,
      "start": 1.7368,
      "duration": 0.1081,
      "velocity": 93,
      "chip": "ym2612"
    },
    {
      "channel": 4,
      "note": 75,
      "start": 1.7382,
      "duration": 0.1078,
      "velocity": 93,
      "chip": "ym2612"
    },
    {
      "channel": 0,
      "note": 71,
      "start": 1.8668,
      "duration": 0.1081,
      "velocity": 93,
      "chip": "ym2612"
    },
    {
      "channel": 4,
      "note": 80,
      "start": 1.8683,
      "duration": 0.1077,
      "velocity": 93,
      "chip": "ym2612"
    },
    {
      "channel": 0,
      "note": 77,
      "start": 1.9969,
      "duration": 0.1081,
      "velocity": 93,
      "chip": "ym2612"
    },
    {
      "channel": 4,
      "note": 73,
      "start": 1.9983,
      "duration": 0.1079,
      "velocity": 93,
      "chip": "ym2612"
    },
    {
      "channel": 0,
      "note": 71,
      "start": 2.1268,
      "duration": 0.1081,
      "velocity": 93,
      "chip": "ym2612"
    },
    {
      "channel": 4,
      "note": 71,
      "start": 2.1284,
      "duration": 0.1078,
      "velocity": 93,
      "chip": "ym2612"
    },
    {
      "channel": 0,
      "note": 68,
      "start": 2.2569,
      "duration": 0.1081,
      "velocity": 93,
      "chip": "ym2612"
    },
    {
      "channel": 4,
      "note": 77,
      "start": 2.2583,
      "duration": 0.108,
      "velocity": 93,
      "chip": "ym2612"
    },
    {
      "channel": 0,
      "note": 78,
      "start": 2.3869,
      "duration": 0.1081,
      "velocity": 93,
      "chip": "ym2612"
    },
    {
      "channel": 1,
      "note": 85,
      "start": 2.3874,
      "duration": 0.8663,
      "velocity": 93,
      "chip": "ym2612"
    },
    {
      "channel": 2,
      "note": 78,
      "start": 2.388,
      "duration": 0.7577,
      "velocity": 93,
      "chip": "ym2612"
    },
    {
      "channel": 3,
      "note": 71,
      "start": 2.3886,
      "duration": 0.2371,
      "velocity": 93,
      "chip": "ym2612"
    },
    {
      "channel": 4,
      "note": 71,
      "start": 2.3893,
      "duration": 0.1068,
      "velocity": 93,
      "chip": "ym2612"
    },
    {
      "channel": 4,
      "note": 68,
      "start": 2.5182,
      "duration": 0.108,
      "velocity": 93,
      "chip": "ym2612"
    },
    {
      "channel": 3,
      "note": 70,
      "start": 2.6476,
      "duration": 0.2382,
      "velocity": 93,
      "chip": "ym2612"
    },
    {
      "channel": 3,
      "note": 66,
      "start": 2.9078,
      "duration": 0.2383,
      "velocity": 93,
      "chip": "ym2612"
    },
    {
      "channel": 0,
      "note": 90,
      "start": 3.1691,
      "duration": 0.0843,
      "velocity": 83,
      "chip": "ym2612"
    },
    {
      "channel": 3,
      "note": 54,
      "start": 3.1751,
      "duration": 0.2308,
      "velocity": 93,
      "chip": "ym2612"
    },
    {
      "channel": 0,
      "note": 92,
      "start": 3.2753,
      "duration": 0.0648,
      "velocity": 83,
      "chip": "ym2612"
    },
    {
      "channel": 1,
      "note": 90,
      "start": 3.2781,
      "duration": 0.0842,
      "velocity": 83,
      "chip": "ym2612"
    },
    {
      "channel": 0,
      "note": 90,
      "start": 3.362,
      "duration": 0.0431,
      "velocity": 83,
      "chip": "ym2612"
    },
    {
      "channel": 1,
      "note": 92,
      "start": 3.3839,
      "duration": 0.0648,
      "velocity": 83,
      "chip": "ym2612"
    },
    {
      "channel": 0,
      "note": 92,
      "start": 3.427,
      "duration": 0.0431,
      "velocity": 83,
      "chip": "ym2612"
    },
    {
      "channel": 2,
      "note": 71,
      "start": 3.4277,
      "duration": 0.758,
      "velocity": 93,
      "chip": "ym2612"
    },
    {
      "channel": 3,
      "note": 59,
      "start": 3.4284,
      "duration": 0.2378,
      "velocity": 93,
      "chip": "ym2612"
    },
    {
      "channel": 1,
      "note": 90,
      "start": 3.4706,
      "duration": 0.0431,
      "velocity": 83,
      "chip": "ym2612"
    },
    {
      "channel": 0,
      "note": 90,
      "start": 3.492,
      "duration": 0.0431,
      "velocity": 83,
      "chip": "ym2612"
    },
    {
      "channel": 1,
      "note": 92,
      "start": 3.5356,
      "duration": 0.0431,
      "velocity": 83,
      "chip": "ym2612"
    },
    {
      "channel": 0,
      "note": 92,
      "start": 3.557,
      "duration": 0.0431,
      "velocity": 83,
      "chip": "ym2612"
    },
    {
      "channel": 1,
      "note": 90,
      "start": 3.6006,
      "duration": 0.0431,
      "velocity": 83,
      "chip": "ym2612"
    },
    {
      "channel": 0,
      "note": 90,
      "start": 3.622,
      "duration": 0.0431,
      "velocity": 83,
      "chip": "ym2612"
    },
    {
      "channel": 1,
      "note": 92,
      "start": 3.6656,
      "duration": 0.0431,
      "velocity": 83,
      "chip": "ym2612"
    },
    {
      "channel": 0,
      "note": 89,
      "start": 3.687,
      "duration": 0.0648,
      "velocity": 83,
      "chip": "ym2612"
    },
    {
      "channel": 3,
      "note": 63,
      "start": 3.6881,
      "duration": 0.2379,
      "velocity": 93,
      "chip": "ym2612"
    },
    {
      "channel": 1,
      "note": 90,
      "start": 3.7305,
      "duration": 0.0433,
      "velocity": 83,
      "chip": "ym2612"
    },
    {
      "channel": 1,
      "note": 89,
      "start": 3.7956,
      "duration": 0.0648,
      "velocity": 83,
      "chip": "ym2612"
    },
    {
      "channel": 0,
      "note": 90,
      "start": 3.9472,
      "duration": 0.0863,
      "velocity": 83,
      "chip": "ym2612"
    },
    {
      "channel": 3,
      "note": 54,
      "start": 3.9487,
      "duration": 0.2373,
      "velocity": 93,
      "chip": "ym2612"
    },
    {
      "channel": 0,
      "note": 92,
      "start": 4.0554,
      "duration": 0.0648,
      "velocity": 83,
      "chip": "ym2612"
    },
    {
      "channel": 1,
      "note": 90,
      "start": 4.0561,
      "duration": 0.0863,
      "velocity": 83,
      "chip": "ym2612"
    },
    {
      "channel": 0,
      "note": 90,
      "start": 4.142,
      "duration": 0.0431,
      "velocity": 83,
      "chip": "ym2612"
    },
    {
      "channel": 1,
      "note": 92,
      "start": 4.1639,
      "duration": 0.0648,
      "velocity": 83,
      "chip": "ym2612"
    },
    {
      "channel": 0,
      "note": 92,
      "start": 4.2071,
      "duration": 0.0431,
      "velocity": 83,
      "chip": "ym2612"
    },
    {
      "channel": 2,
      "note": 71,
      "start": 4.2078,
      "duration": 0.4979,
      "velocity": 93,
      "chip": "ym2612"
    },
    {
      "channel": 3,
      "note": 59,
      "start": 4.2085,
      "duration": 0.2378,
      "velocity": 93,
      "chip": "ym2612"
    },
    {
      "channel": 1,
      "note": 90,
      "start": 4.2506,
      "duration": 0.0431,
      "velocity": 83,
      "chip": "ym2612"
    },
    {
      "channel": 0,
      "note": 90,
      "start": 4.272,
      "duration": 0.0432,
      "velocity": 83,
      "chip": "ym2612"
    },
    {
      "channel": 1,
      "note": 92,
      "start": 4.3156,
      "duration": 0.0431,
      "velocity": 83,
      "chip": "ym2612"
    },
    {
      "channel": 0,
      "note": 92,
      "start": 4.3371,
      "duration": 0.0431,
      "velocity": 83,
      "chip": "ym2612"
    },
    {
      "channel": 1,
      "note": 90,
      "start": 4.3807,
      "duration": 0.0431,
      "velocity": 83,
      "chip": "ym2612"
    },
    {
      "channel": 0,
      "note": 90,
      "start": 4.4021,
      "duration": 0.0431,
      "velocity": 83,
      "chip": "ym2612"
    },
    {
      "channel": 1,
      "note": 92,
      "start": 4.4457,
      "duration": 0.0431,
      "velocity": 83,
      "chip": "ym2612"
    },
    {
      "channel": 0,
      "note": 89,
      "start": 4.4671,
      "duration": 0.0648,
      "velocity": 83,
      "chip": "ym2612"
    },
    {
      "channel": 3,
      "note": 63,
      "start": 4.4683,
      "duration": 0.2378,
      "velocity": 93,
      "chip": "ym2612"
    },
    {
      "channel": 1,
      "note": 90,
      "start": 4.5106,
      "duration": 0.0432,
      "velocity": 83,
      "chip": "ym2612"
    },
    {
      "channel": 1,
      "note": 89,
      "start": 4.5756,
      "duration": 0.0648,
      "velocity": 83,
      "chip": "ym2612"
    },
    {
      "channel": 0,
      "note": 90,
      "start": 4.7272,
      "duration": 0.0863,
      "velocity": 83,
      "chip": "ym2612"
    },
    {
      "channel": 3,
      "note": 54,
      "start": 4.7288,
      "duration": 0.2373,
      "velocity": 93,
      "chip": "ym2612"
    },
    {
      "channel": 0,
      "note": 92,
      "start": 4.8354,
      "duration": 0.0648,
      "velocity": 83,
      "chip": "ym2612"
    },
    {
      "channel": 1,
      "note": 90,
      "start": 4.8361,
      "duration": 0.0863,
      "velocity": 83,
      "chip": "ym2612"
    },
    {
      "channel": 0,
      "note": 90,
      "start": 4.9221,
      "duration": 0.0431,
      "velocity": 83,
      "chip": "ym2612"
    },
    {
      "channel": 1,
      "note": 92,
      "start": 4.944,
      "duration": 0.0648,
      "velocity": 83,
      "chip": "ym2612"
    },
    {
      "channel": 0,
      "note": 92,
      "start": 4.9871,
      "duration": 0.0431,
      "velocity": 83,
      "chip": "ym2612"
    },
    {
      "channel": 2,
      "note": 71,
      "start": 4.9879,
      "duration": 0.7579,
      "velocity": 93,
      "chip": "ym2612"
    },
    {
      "channel": 3,
      "note": 59,
      "start": 4.9885,
      "duration": 0.2378,
      "velocity": 93,
      "chip": "ym2612"
    },
    {
      "channel": 1,
      "note": 90,
      "start": 5.0307,
      "duration": 0.0431,
      "velocity": 83,
      "chip": "ym2612"
    },
    {
      "channel": 0,
      "note": 90,
      "start": 5.0522,
      "duration": 0.0431,
      "velocity": 83,
      "chip": "ym2612"
    },
    {
      "channel": 1,
      "note": 92,
      "start": 5.0957,
      "duration": 0.0431,
      "velocity": 83,
      "chip": "ym2612"
    },
    {
      "channel": 0,
      "note": 89,
      "start": 5.1171,
      "duration": 0.0431,
      "velocity": 83,
      "chip": "ym2612"
    },
    {
      "channel": 1,
      "note": 90,
      "start": 5.1607,
      "duration": 0.0431,
      "velocity": 83,
      "chip": "ym2612"
    },
    {
      "channel": 0,
      "note": 90,
      "start": 5.1821,
      "duration": 0.0431,
      "velocity": 83,
      "chip": "ym2612"
    },
    {
      "channel": 1,
      "note": 89,
      "start": 5.2257,
      "duration": 0.0431,
      "velocity": 83,
      "chip": "ym2612"
    },
    {
      "channel": 0,
      "note": 95,
      "start": 5.2471,
      "duration": 0.0648,
      "velocity": 83,
      "chip": "ym2612"
    },
    {
      "channel": 3,
      "note": 63,
      "start": 5.2482,
      "duration": 0.2379,
      "velocity": 93,
      "chip": "ym2612"
    },
    {
      "channel": 1,
      "note": 90,
      "start": 5.2907,
      "duration": 0.0433,
      "velocity": 83,
      "chip": "ym2612"
    },
    {
      "channel": 1,
      "note": 95,
      "start": 5.3557,
      "duration": 0.0648,
      "velocity": 83,
      "chip": "ym2612"
    },
    {
      "channel": 0,
      "note": 86,
      "start": 5.5073,
      "duration": 0.7581,
      "velocity": 83,
      "chip": "ym2612"
    },
    {
      "channel": 3,
      "note": 54,
      "start": 5.5087,
      "duration": 0.2375,
      "velocity": 93,
      "chip": "ym2612"
    },
    {
      "channel": 1,
      "note": 86,
      "start": 5.6159,
      "duration": 0.7581,
      "velocity": 83,
      "chip": "ym2612"
    },
    {
      "channel": 2,
      "note": 71,
      "start": 5.7678,
      "duration": 0.4982,
      "velocity": 93,
      "chip": "ym2612"
    },
    {
      "channel": 3,
      "note": 55,
      "start": 5.7684,
      "duration": 0.2377,
      "velocity": 93,
      "chip": "ym2612"
    },
    {
      "channel": 3,
      "note": 65,
      "start": 6.028,
      "duration": 0.2382,
      "velocity": 93,
      "chip": "ym2612"
    },
    {
      "channel": 0,
      "note": 85,
      "start": 6.2873,
      "duration": 0.1081,
      "velocity": 83,
      "chip": "ym2612"
    },
    {
      "channel": 2,
      "note": 83,
      "start": 6.29,
      "duration": 0.2359,
      "velocity": 93,
      "chip": "ym2612"
    },
    {
      "channel": 3,
      "note": 55,
      "start": 6.2906,
      "duration": 0.2356,
      "velocity": 93,
      "chip": "ym2612"
    },
    {
      "channel": 1,
      "note": 85,
      "start": 6.396,
      "duration": 0.108,
      "velocity": 83,
      "chip": "ym2612"
    },
    {
      "channel": 4,
      "note": 78,
      "start": 6.421,
      "duration": 0.2358,
      "velocity": 93,
      "chip": "ym2612"
    },
    {
      "channel": 0,
      "note": 87,
      "start": 6.5473,
      "duration": 0.1082,
      "velocity": 83,
      "chip": "ym2612"
    },
    {
      "channel": 2,
      "note": 82,
      "start": 6.548,
      "duration": 0.2378,
      "velocity": 93,
      "chip": "ym2612"
    },
    {
      "channel": 3,
      "note": 61,
      "start": 6.5487,
      "duration": 0.2375,
      "velocity": 93,
      "chip": "ym2612"
    },
    {
      "channel": 1,
      "note": 87,
      "start": 6.6559,
      "duration": 0.1081,
      "velocity": 83,
      "chip": "ym2612"
    },
    {
      "channel": 4,
      "note": 83,
      "start": 6.6784,
      "duration": 0.2385,
      "velocity": 93,
      "chip": "ym2612"
    },
    {
      "channel": 0,
      "note": 89,
      "start": 6.8073,
      "duration": 0.1081,
      "velocity": 83,
      "chip": "ym2612"
    },
    {
      "channel": 2,
      "note": 80,
      "start": 6.8081,
      "duration": 0.2379,
      "velocity": 93,
      "chip": "ym2612"
    },
    {
      "channel": 3,
      "note": 68,
      "start": 6.8087,
      "duration": 0.2376,
      "velocity": 93,
      "chip": "ym2612"
    },
    {
      "channel": 1,
      "note": 89,
      "start": 6.9159,
      "duration": 0.1081,
      "velocity": 83,
      "chip": "ym2612"
    },
    {
      "channel": 4,
      "note": 82,
      "start": 6.9384,
      "duration": 0.2384,
      "velocity": 93,
      "chip": "ym2612"
    },
    {
      "channel": 0,
      "note": 90,
      "start": 7.0673,
      "duration": 0.1081,
      "velocity": 83,
      "chip": "ym2612"
    },
    {
      "channel": 2,
      "note": 78,
      "start": 7.0681,
      "duration": 0.2378,
      "velocity": 93,
      "chip": "ym2612"
    },
    {
      "channel": 3,
      "note": 61,
      "start": 7.0688,
      "duration": 0.2375,
      "velocity": 93,
      "chip": "ym2612"
    },
    {
      "channel": 1,
      "note": 90,
      "start": 7.1759,
      "duration": 0.1081,
      "velocity": 83,
      "chip": "ym2612"
    },
    {
      "channel": 4,
      "note": 80,
      "start": 7.1984,
      "duration": 0.2385,
      "velocity": 93,
      "chip": "ym2612"
    },
    {
      "channel": 0,
      "note": 92,
      "start": 7.3273,
      "duration": 0.1081,
      "velocity": 83,
      "chip": "ym2612"
    },
    {
      "channel": 2,
      "note": 76,
      "start": 7.3281,
      "duration": 0.2378,
      "velocity": 93,
      "chip": "ym2612"
    },
    {
      "channel": 3,
      "note": 63,
      "start": 7.3288,
      "duration": 0.2375,
      "velocity": 93,
      "chip": "ym2612"
    },
    {
      "channel": 1,
      "note": 92,
      "start": 7.4359,
      "duration": 0.1081,
      "velocity": 83,
      "chip": "ym2612"
    },
    {
      "channel": 4,
      "note": 78,
      "start": 7.4584,
      "duration": 0.2385,
      "velocity": 93,
      "chip": "ym2612"
    },
    {
      "channel": 0,
      "note": 94,
      "start": 7.5873,
      "duration": 0.1081,
      "velocity": 83,
      "chip": "ym2612"
    },
    {
      "channel": 2,
      "note": 75,
      "start": 7.5881,
      "duration": 0.2379,
      "velocity": 93,
      "chip": "ym2612"
    },
    {
      "channel": 3,
      "note": 70,
      "start": 7.5888,
      "duration": 0.2375,
      "velocity": 93,
      "chip": "ym2612"
    },
    {
      "channel": 1,
      "note": 94,
      "start": 7.696,
      "duration": 0.1081,
      "velocity": 83,
      "chip": "ym2612"
    },
    {
      "channel": 4,
      "note": 76,
      "start": 7.7185,
      "duration": 0.2384,
      "velocity": 93,
      "chip": "ym2612"
    },
    {
      "channel": 0,
      "note": 95,
      "start": 7.8474,
      "duration": 0.1081,
      "velocity": 83,
      "chip": "ym2612"
    },
    {
      "channel": 2,
      "note": 74,
      "start": 7.8482,
      "duration": 0.2378,
      "velocity": 93,
      "chip": "ym2612"
    },
    {
      "channel": 3,
      "note": 63,
      "start": 7.8488,
      "duration": 0.2375,
      "velocity": 93,
      "chip": "ym2612"
    },
    {
      "channel": 1,
      "note": 95,
      "start": 7.956,
      "duration": 0.1081,
      "velocity": 83,
      "chip": "ym2612"
    },
    {
      "channel": 4,
      "note": 75,
      "start": 7.9785,
      "duration": 0.2385,
      "velocity": 93,
      "chip": "ym2612"
    },
    {
      "channel": 0,
      "note": 97,
      "start": 8.1074,
      "duration": 0.1082,
      "velocity": 83,
      "chip": "ym2612"
    },
    {
      "channel": 2,
      "note": 73,
      "start": 8.1081,
      "duration": 0.2379,
      "velocity": 93,
      "chip": "ym2612"
    },
    {
      "channel": 3,
      "note": 56,
      "start": 8.1088,
      "duration": 0.2376,
      "velocity": 93,
      "chip": "ym2612"
    },
    {
      "channel": 1,
      "note": 97,
      "start": 8.216,
      "duration": 0.1081,
      "velocity": 83,
      "chip": "ym2612"
    },
    {
      "channel": 4,
      "note": 74,
      "start": 8.2385,
      "duration": 0.2385,
      "velocity": 93,
      "chip": "ym2612"
    },
    {
      "channel": 0,
      "note": 100,
      "start": 8.3674,
      "duration": 0.1082,
      "velocity": 83,
      "chip": "ym2612"
    },
    {
      "channel": 2,
      "note": 71,
      "start": 8.3683,
      "duration": 0.2378,
      "velocity": 93,
      "chip": "ym2612"
    },
    {
      "channel": 3,
      "note": 66,
      "start": 8.3689,
      "duration": 0.2375,
      "velocity": 93,
      "chip": "ym2612"
    },
    {
      "channel": 1,
      "note": 100,
      "start": 8.4761,
      "duration": 0.1081,
      "velocity": 83,
      "chip": "ym2612"
    },
    {
      "channel": 4,
      "note": 73,
      "start": 8.4985,
      "duration": 0.2386,
      "velocity": 93,
      "chip": "ym2612"
    },
    {
      "channel": 0,
      "note": 90,
      "start": 8.6276,
      "duration": 0.0864,
      "velocity": 83,
      "chip": "ym2612"
    },
    {
      "channel": 2,
      "note": 70,
      "start": 8.6283,
      "duration": 0.2381,
      "velocity": 93,
      "chip": "ym2612"
    },
    {
      "channel": 3,
      "note": 55,
      "start": 8.6289,
      "duration": 0.4976,
      "velocity": 93,
      "chip": "ym2612"
    },
    {
      "channel": 1,
      "note": 90,
      "start": 8.7363,
      "duration": 0.0863,
      "velocity": 83,
      "chip": "ym2612"
    },
    {
      "channel": 4,
      "note": 71,
      "start": 8.7586,
      "duration": 0.2382,
      "velocity": 93,
      "chip": "ym2612"
    },
    {
      "channel": 0,
      "note": 101,
      "start": 8.8659,
      "duration": 0.0214,
      "velocity": 83,
      "chip": "ym2612"
    },
    {
      "channel": 2,
      "note": 82,
      "start": 8.888,
      "duration": 0.4982,
      "velocity": 93,
      "chip": "ym2612"
    },
    {
      "channel": 0,
      "note": 102,
      "start": 8.9092,
      "duration": 0.0864,
      "velocity": 83,
      "chip": "ym2612"
    },
    {
      "channel": 1,
      "note": 101,
      "start": 8.9744,
      "duration": 0.0216,
      "velocity": 83,
      "chip": "ym2612"
    },
    {
      "channel": 1,
      "note": 102,
      "start": 9.0179,
      "duration": 0.0863,
      "velocity": 83,
      "chip": "ym2612"
    },
    {
      "channel": 4,
      "note": 70,
      "start": 9.0191,
      "duration": 0.4986,
      "velocity": 93,
      "chip": "ym2612"
    },
    {
      "channel": 3,
      "note": 54,
      "start": 9.1485,
      "duration": 0.238,
      "velocity": 93,
      "chip": "ym2612"
    },
    {
      "channel": 0,
      "note": 90,
      "start": 9.4078,
      "duration": 0.0862,
      "velocity": 83,
      "chip": "ym2612"
    },
    {
      "channel": 3,
      "note": 66,
      "start": 9.4111,
      "duration": 0.2354,
      "velocity": 93,
      "chip": "ym2612"
    },
    {
      "channel": 0,
      "note": 92,
      "start": 9.5159,
      "duration": 0.0648,
      "velocity": 83,
      "chip": "ym2612"
    },
    {
      "channel": 1,
      "note": 90,
      "start": 9.5167,
      "duration": 0.0861,
      "velocity": 83,
      "chip": "ym2612"
    },
    {
      "channel": 0,
      "note": 90,
      "start": 9.6025,
      "duration": 0.0431,
      "velocity": 83,
      "chip": "ym2612"
    },
    {
      "channel": 1,
      "note": 92,
      "start": 9.6244,
      "duration": 0.0648,
      "velocity": 83,
      "chip": "ym2612"
    },
    {
      "channel": 0,
      "note": 92,
      "start": 9.6676,
      "duration": 0.0431,
      "velocity": 83,
      "chip": "ym2612"
    },
    {
      "channel": 2,
      "note": 71,
      "start": 9.6684,
      "duration": 0.7579,
      "velocity": 93,
      "chip": "ym2612"
    },
    {
      "channel": 3,
      "note": 59,
      "start": 9.669,
      "duration": 0.2378,
      "velocity": 93,
      "chip": "ym2612"
    },
    {
      "channel": 1,
      "note": 90,
      "start": 9.7111,
      "duration": 0.0431,
      "velocity": 83,
      "chip": "ym2612"
    },
    {
      "channel": 0,
      "note": 90,
      "start": 9.7326,
      "duration": 0.0431,
      "velocity": 83,
      "chip": "ym2612"
    },
    {
      "channel": 1,
      "note": 92,
      "start": 9.7761,
      "duration": 0.0431,
      "velocity": 83,
      "chip": "ym2612"
    },
    {
      "channel": 0,
      "note": 92,
      "start": 9.7976,
      "duration": 0.0431,
      "velocity": 83,
      "chip": "ym2612"
    },
    {
      "channel": 1,
      "note": 90,
      "start": 9.8412,
      "duration": 0.0432,
      "velocity": 83,
      "chip": "ym2612"
    },
    {
      "channel": 0,
      "note": 90,
      "start": 9.8626,
      "duration": 0.0431,
      "velocity": 83,
      "chip": "ym2612"
    },
    {
      "channel": 1,
      "note": 92,
      "start": 9.9062,
      "duration": 0.0431,
      "velocity": 83,
      "chip": "ym2612"
    },
    {
      "channel": 0,
      "note": 89,
      "start": 9.9276,
      "duration": 0.0648,
      "velocity": 83,
      "chip": "ym2612"
    },
    {
      "channel": 3,
      "note": 63,
      "start": 9.9287,
      "duration": 0.2378,
      "velocity": 93,
      "chip": "ym2612"
    },
    {
      "channel": 1,
      "note": 90,
      "start": 9.9712,
      "duration": 0.0433,
      "velocity": 83,
      "chip": "ym2612"
    },
    {
      "channel": 1,
      "note": 89,
      "start": 10.0361,
      "duration": 0.0649,
      "velocity": 83,
      "chip": "ym2612"
    },
    {
      "channel": 0,
      "note": 90,
      "start": 10.1877,
      "duration": 0.0864,
      "velocity": 83,
      "chip": "ym2612"
    },
    {
      "channel": 3,
      "note": 54,
      "start": 10.189,
      "duration": 0.2376,
      "velocity": 93,
      "chip": "ym2612"
    },
    {
      "channel": 0,
      "note": 92,
      "start": 10.2959,
      "duration": 0.0648,
      "velocity": 83,
      "chip": "ym2612"
    },
    {
      "channel": 1,
      "note": 90,
      "start": 10.2966,
      "duration": 0.0863,
      "velocity": 83,
      "chip": "ym2612"
    },
    {
      "channel": 0,
      "note": 90,
      "start": 10.3826,
      "duration": 0.0431,
      "velocity": 83,
      "chip": "ym2612"
    },
    {
      "channel": 1,
      "note": 92,
      "start": 10.4046,
      "duration": 0.0648,
      "velocity": 83,
      "chip": "ym2612"
    },
    {
      "channel": 0,
      "note": 92,
      "start": 10.4476,
      "duration": 0.0431,
      "velocity": 83,
      "chip": "ym2612"
    },
    {
      "channel": 2,
      "note": 71,
      "start": 10.4484,
      "duration": 0.4979,
      "velocity": 93,
      "chip": "ym2612"
    },
    {
      "channel": 3,
      "note": 59,
      "start": 10.449,
      "duration": 0.2378,
      "velocity": 93,
      "chip": "ym2612"
    },
    {
      "channel": 1,
      "note": 90,
      "start": 10.4912,
      "duration": 0.0432,
      "velocity": 83,
      "chip": "ym2612"
    },
    {
      "channel": 0,
      "note": 90,
      "start": 10.5127,
      "duration": 0.0431,
      "velocity": 83,
      "chip": "ym2612"
    },
    {
      "channel": 1,
      "note": 92,
      "start": 10.5562,
      "duration": 0.0431,
      "velocity": 83,
      "chip": "ym2612"
    },
    {
      "channel": 0,
      "note": 92,
      "start": 10.5776,
      "duration": 0.0432,
      "velocity": 83,
      "chip": "ym2612"
    },
    {
      "channel": 1,
      "note": 90,
      "start": 10.6212,
      "duration": 0.0431,
      "velocity": 83,
      "chip": "ym2612"
    },
    {
      "channel": 0,
      "note": 90,
      "start": 10.6426,
      "duration": 0.0432,
      "velocity": 83,
      "chip": "ym2612"
    },
    {
      "channel": 1,
      "note": 92,
      "start": 10.6863,
      "duration": 0.0431,
      "velocity": 83,
      "chip": "ym2612"
    },
    {
      "channel": 0,
      "note": 89,
      "start": 10.7076,
      "duration": 0.0649,
      "velocity": 83,
      "chip": "ym2612"
    },
    {
      "channel": 3,
      "note": 63,
      "start": 10.7087,
      "duration": 0.238,
      "velocity": 93,
      "chip": "ym2612"
    },
    {
      "channel": 1,
      "note": 90,
      "start": 10.7513,
      "duration": 0.0432,
      "velocity": 83,
      "chip": "ym2612"
    },
    {
      "channel": 1,
      "note": 89,
      "start": 10.8162,
      "duration": 0.0648,
      "velocity": 83,
      "chip": "ym2612"
    },
    {
      "channel": 0,
      "note": 90,
      "start": 10.9679,
      "duration": 0.0863,
      "velocity": 83,
      "chip": "ym2612"
    },
    {
      "channel": 3,
      "note": 54,
      "start": 10.9694,
      "duration": 0.2373,
      "velocity": 93,
      "chip": "ym2612"
    },
    {
      "channel": 0,
      "note": 92,
      "start": 11.0761,
      "duration": 0.0648,
      "velocity": 83,
      "chip": "ym2612"
    },
    {
      "channel": 1,
      "note": 90,
      "start": 11.0767,
      "duration": 0.0863,
      "velocity": 83,
      "chip": "ym2612"
    },
    {
      "channel": 0,
      "note": 90,
      "start": 11.1627,
      "duration": 0.0431,
      "velocity": 83,
      "chip": "ym2612"
    },
    {
      "channel": 1,
      "note": 92,
      "start": 11.1847,
      "duration": 0.0648,
      "velocity": 83,
      "chip": "ym2612"
    },
    {
      "channel": 0,
      "note": 92,
      "start": 11.2277,
      "duration": 0.0432,
      "velocity": 83,
      "chip": "ym2612"
    },
    {
      "channel": 2,
      "note": 71,
      "start": 11.2284,
      "duration": 0.758,
      "velocity": 93,
      "chip": "ym2612"
    },
    {
      "channel": 3,
      "note": 59,
      "start": 11.2291,
      "duration": 0.2378,
      "velocity": 93,
      "chip": "ym2612"
    },
    {
      "channel": 1,
      "note": 90,
      "start": 11.2713,
      "duration": 0.0431,
      "velocity": 83,
      "chip": "ym2612"
    },
    {
      "channel": 0,
      "note": 90,
      "start": 11.2927,
      "duration": 0.0431,
      "velocity": 83,
      "chip": "ym2612"
    },
    {
      "channel": 1,
      "note": 92,
      "start": 11.3363,
      "duration": 0.0431,
      "velocity": 83,
      "chip": "ym2612"
    },
    {
      "channel": 0,
      "note": 89,
      "start": 11.3578,
      "duration": 0.0431,
      "velocity": 83,
      "chip": "ym2612"
    },
    {
      "channel": 1,
      "note": 90,
      "start": 11.4014,
      "duration": 0.043,
      "velocity": 83,
      "chip": "ym2612"
    },
    {
      "channel": 0,
      "note": 90,
      "start": 11.4227,
      "duration": 0.0431,
      "velocity": 83,
      "chip": "ym2612"
    },
    {
      "channel": 1,
      "note": 89,
      "start": 11.4663,
      "duration": 0.0431,
      "velocity": 83,
      "chip": "ym2612"
    },
    {
      "channel": 0,
      "note": 95,
      "start": 11.4877,
      "duration": 0.0648,
      "velocity": 83,
      "chip": "ym2612"
    },
    {
      "channel": 3,
      "note": 63,
      "start": 11.4888,
      "duration": 0.2379,
      "velocity": 93,
      "chip": "ym2612"
    },
    {
      "channel": 1,
      "note": 90,
      "start": 11.5313,
      "duration": 0.0433,
      "velocity": 83,
      "chip": "ym2612"
    },
    {
      "channel": 1,
      "note": 95,
      "start": 11.5963,
      "duration": 0.0648,
      "velocity": 83,
      "chip": "ym2612"
    },
    {
      "channel": 0,
      "note": 98,
      "start": 11.7485,
      "duration": 0.7575,
      "velocity": 83,
      "chip": "ym2612"
    },
    {
      "channel": 3,
      "note": 54,
      "start": 11.7504,
      "duration": 0.2364,
      "velocity": 93,
      "chip": "ym2612"
    },
    {
      "channel": 1,
      "note": 98,
      "start": 11.8571,
      "duration": 0.7575,
      "velocity": 83,
      "chip": "ym2612"
    },
    {
      "channel": 2,
      "note": 71,
      "start": 12.0083,
      "duration": 0.4983,
      "velocity": 93,
      "chip": "ym2612"
    },
    {
      "channel": 3,
      "note": 56,
      "start": 12.0089,
      "duration": 0.2378,
      "velocity": 93,
      "chip": "ym2612"
    },
    {
      "channel": 3,
      "note": 65,
      "start": 12.2687,
      "duration": 0.2382,
      "velocity": 93,
      "chip": "ym2612"
    },
    {
      "channel": 2,
      "note": 75,
      "start": 12.5303,
      "duration": 0.4962,
      "velocity": 93,
      "chip": "ym2612"
    },
    {
      "channel": 3,
      "note": 56,
      "start": 12.5309,
      "duration": 0.7559,
      "velocity": 93,
      "chip": "ym2612"
    },
    {
      "channel": 4,
      "note": 82,
      "start": 12.6589,
      "duration": 0.4985,
      "velocity": 93,
      "chip": "ym2612"
    },
    {
      "channel": 0,
      "note": 99,
      "start": 12.788,
      "duration": 0.108,
      "velocity": 83,
      "chip": "ym2612"
    },
    {
      "channel": 1,
      "note": 99,
      "start": 12.8966,
      "duration": 0.108,
      "velocity": 83,
      "chip": "ym2612"
    },
    {
      "channel": 0,
      "note": 94,
      "start": 13.0479,
      "duration": 0.1082,
      "velocity": 83,
      "chip": "ym2612"
    },
    {
      "channel": 2,
      "note": 78,
      "start": 13.0487,
      "duration": 0.2378,
      "velocity": 93,
      "chip": "ym2612"
    },
    {
      "channel": 1,
      "note": 94,
      "start": 13.1565,
      "duration": 0.1081,
      "velocity": 83,
      "chip": "ym2612"
    },
    {
      "channel": 4,
      "note": 75,
      "start": 13.179,
      "duration": 0.2385,
      "velocity": 93,
      "chip": "ym2612"
    },
    {
      "channel": 0,
      "note": 95,
      "start": 13.3079,
      "duration": 0.1082,
      "velocity": 83,
      "chip": "ym2612"
    },
    {
      "channel": 2,
      "note": 80,
      "start": 13.3087,
      "duration": 0.4979,
      "velocity": 93,
      "chip": "ym2612"
    },
    {
      "channel": 3,
      "note": 54,
      "start": 13.3093,
      "duration": 0.7576,
      "velocity": 93,
      "chip": "ym2612"
    },
    {
      "channel": 1,
      "note": 95,
      "start": 13.4165,
      "duration": 0.1081,
      "velocity": 83,
      "chip": "ym2612"
    },
    {
      "channel": 4,
      "note": 78,
      "start": 13.4391,
      "duration": 0.4985,
      "velocity": 93,
      "chip": "ym2612"
    },
    {
      "channel": 0,
      "note": 91,
      "start": 13.568,
      "duration": 0.1081,
      "velocity": 83,
      "chip": "ym2612"
    },
    {
      "channel": 1,
      "note": 91,
      "start": 13.6765,
      "duration": 0.1082,
      "velocity": 83,
      "chip": "ym2612"
    },
    {
      "channel": 0,
      "note": 92,
      "start": 13.828,
      "duration": 0.1081,
      "velocity": 83,
      "chip": "ym2612"
    },
    {
      "channel": 2,
      "note": 83,
      "start": 13.8288,
      "duration": 0.2378,
      "velocity": 93,
      "chip": "ym2612"
    },
    {
      "channel": 1,
      "note": 92,
      "start": 13.9366,
      "duration": 0.1081,
      "velocity": 83,
      "chip": "ym2612"
    },
    {
      "channel": 4,
      "note": 80,
      "start": 13.9591,
      "duration": 0.2384,
      "velocity": 93,
      "chip": "ym2612"
    },
    {
      "channel": 0,
      "note": 89,
      "start": 14.088,
      "duration": 0.1081,
      "velocity": 83,
      "chip": "ym2612"
    },
    {
      "channel": 2,
      "note": 82,
      "start": 14.0888,
      "duration": 0.4979,
      "velocity": 93,
      "chip": "ym2612"
    },
    {
      "channel": 3,
      "note": 54,
      "start": 14.0894,
      "duration": 0.7576,
      "velocity": 93,
      "chip": "ym2612"
    },
    {
      "channel": 1,
      "note": 89,
      "start": 14.1966,
      "duration": 0.1081,
      "velocity": 83,
      "chip": "ym2612"
    },
    {
      "channel": 4,
      "note": 83,
      "start": 14.2191,
      "duration": 0.4985,
      "velocity": 93,
      "chip": "ym2612"
    },
    {
      "channel": 0,
      "note": 90,
      "start": 14.348,
      "duration": 0.1081,
      "velocity": 83,
      "chip": "ym2612"
    },
    {
      "channel": 1,
      "note": 90,
      "start": 14.4566,
      "duration": 0.1081,
      "velocity": 83,
      "chip": "ym2612"
    },
    {
      "channel": 0,
      "note": 82,
      "start": 14.6081,
      "duration": 0.1081,
      "velocity": 83,
      "chip": "ym2612"
    },
    {
      "channel": 2,
      "note": 85,
      "start": 14.6088,
      "duration": 0.2378,
      "velocity": 93,
      "chip": "ym2612"
    },
    {
      "channel": 1,
      "note": 82,
      "start": 14.7167,
      "duration": 0.1081,
      "velocity": 83,
      "chip": "ym2612"
    },
    {
      "channel": 4,
      "note": 82,
      "start": 14.7392,
      "duration": 0.2385,
      "velocity": 93,
      "chip": "ym2612"
    },
    {
      "channel": 0,
      "note": 83,
      "start": 14.8682,
      "duration": 0.238,
      "velocity": 83,
      "chip": "ym2612"
    },
    {
      "channel": 2,
      "note": 83,
      "start": 14.869,
      "duration": 1.0178,
      "velocity": 93,
      "chip": "ym2612"
    },
    {
      "channel": 3,
      "note": 54,
      "start": 14.8696,
      "duration": 0.7575,
      "velocity": 93,
      "chip": "ym2612"
    },
    {
      "channel": 1,
      "note": 83,
      "start": 14.9767,
      "duration": 0.2384,
      "velocity": 83,
      "chip": "ym2612"
    },
    {
      "channel": 4,
      "note": 85,
      "start": 14.9992,
      "duration": 1.0182,
      "velocity": 93,
      "chip": "ym2612"
    },
    {
      "channel": 0,
      "note": 71,
      "start": 15.1298,
      "duration": 0.0631,
      "velocity": 96,
      "chip": "ym2612"
    },
    {
      "channel": 0,
      "note": 73,
      "start": 15.2148,
      "duration": 0.0648,
      "velocity": 96,
      "chip": "ym2612"
    },
    {
      "channel": 1,
      "note": 71,
      "start": 15.2384,
      "duration": 0.0634,
      "velocity": 96,
      "chip": "ym2612"
    },
    {
      "channel": 0,
      "note": 75,
      "start": 15.3015,
      "duration": 0.0647,
      "velocity": 96,
      "chip": "ym2612"
    },
    {
      "channel": 1,
      "note": 73,
      "start": 15.3234,
      "duration": 0.0651,
      "velocity": 96,
      "chip": "ym2612"
    },
    {
      "channel": 0,
      "note": 76,
      "start": 15.3881,
      "duration": 0.0648,
      "velocity": 96,
      "chip": "ym2612"
    },
    {
      "channel": 1,
      "note": 75,
      "start": 15.41,
      "duration": 0.0651,
      "velocity": 96,
      "chip": "ym2612"
    },
    {
      "channel": 0,
      "note": 78,
      "start": 15.4748,
      "duration": 0.0648,
      "velocity": 96,
      "chip": "ym2612"
    },
    {
      "channel": 1,
      "note": 76,
      "start": 15.4967,
      "duration": 0.0651,
      "velocity": 96,
      "chip": "ym2612"
    },
    {
      "channel": 0,
      "note": 79,
      "start": 15.5615,
      "duration": 0.0648,
      "velocity": 96,
      "chip": "ym2612"
    },
    {
      "channel": 1,
      "note": 78,
      "start": 15.5833,
      "duration": 0.0651,
      "velocity": 96,
      "chip": "ym2612"
    },
    {
      "channel": 0,
      "note": 80,
      "start": 15.6482,
      "duration": 0.4981,
      "velocity": 96,
      "chip": "ym2612"
    },
    {
      "channel": 3,
      "note": 59,
      "start": 15.6493,
      "duration": 0.4979,
      "velocity": 93,
      "chip": "ym2612"
    },
    {
      "channel": 1,
      "note": 79,
      "start": 15.67,
      "duration": 0.0648,
      "velocity": 96,
      "chip": "ym2612"
    },
    {
      "channel": 1,
      "note": 80,
      "start": 15.7567,
      "duration": 0.4982,
      "velocity": 96,
      "chip": "ym2612"
    },
    {
      "channel": 2,
      "note": 76,
      "start": 15.9103,
      "duration": 0.1064,
      "velocity": 92,
      "chip": "ym2612"
    },
    {
      "channel": 2,
      "note": 80,
      "start": 16.0386,
      "duration": 0.1083,
      "velocity": 92,
      "chip": "ym2612"
    },
    {
      "channel": 4,
      "note": 83,
      "start": 16.0422,
      "duration": 0.1054,
      "velocity": 92,
      "chip": "ym2612"
    },
    {
      "channel": 0,
      "note": 80,
      "start": 16.1682,
      "duration": 0.4982,
      "velocity": 96,
      "chip": "ym2612"
    },
    {
      "channel": 2,
      "note": 83,
      "start": 16.169,
      "duration": 0.1081,
      "velocity": 92,
      "chip": "ym2612"
    },
    {
      "channel": 3,
      "note": 52,
      "start": 16.1696,
      "duration": 0.2375,
      "velocity": 93,
      "chip": "ym2612"
    },
    {
      "channel": 4,
      "note": 76,
      "start": 16.1703,
      "duration": 0.1074,
      "velocity": 92,
      "chip": "ym2612"
    },
    {
      "channel": 1,
      "note": 80,
      "start": 16.2767,
      "duration": 0.4982,
      "velocity": 96,
      "chip": "ym2612"
    },
    {
      "channel": 4,
      "note": 80,
      "start": 16.2994,
      "duration": 0.108,
      "velocity": 92,
      "chip": "ym2612"
    },
    {
      "channel": 3,
      "note": 64,
      "start": 16.429,
      "duration": 0.4982,
      "velocity": 93,
      "chip": "ym2612"
    },
    {
      "channel": 0,
      "note": 80,
      "start": 16.6882,
      "duration": 0.4982,
      "velocity": 96,
      "chip": "ym2612"
    },
    {
      "channel": 2,
      "note": 75,
      "start": 16.689,
      "duration": 0.1081,
      "velocity": 92,
      "chip": "ym2612"
    },
    {
      "channel": 1,
      "note": 80,
      "start": 16.7968,
      "duration": 0.4982,
      "velocity": 96,
      "chip": "ym2612"
    },
    {
      "channel": 2,
      "note": 79,
      "start": 16.8187,
      "duration": 0.1081,
      "velocity": 92,
      "chip": "ym2612"
    },
    {
      "channel": 4,
      "note": 83,
      "start": 16.8197,
      "duration": 0.108,
      "velocity": 92,
      "chip": "ym2612"
    },
    {
      "channel": 2,
      "note": 83,
      "start": 16.9487,
      "duration": 0.1082,
      "velocity": 92,
      "chip": "ym2612"
    },
    {
      "channel": 3,
      "note": 51,
      "start": 16.9493,
      "duration": 0.2379,
      "velocity": 93,
      "chip": "ym2612"
    },
    {
      "channel": 4,
      "note": 75,
      "start": 16.95,
      "duration": 0.1074,
      "velocity": 92,
      "chip": "ym2612"
    },
    {
      "channel": 4,
      "note": 79,
      "start": 17.0795,
      "duration": 0.1081,
      "velocity": 92,
      "chip": "ym2612"
    },
    {
      "channel": 0,
      "note": 80,
      "start": 17.2083,
      "duration": 0.0865,
      "velocity": 96,
      "chip": "ym2612"
    },
    {
      "channel": 3,
      "note": 63,
      "start": 17.2093,
      "duration": 0.498,
      "velocity": 93,
      "chip": "ym2612"
    },
    {
      "channel": 1,
      "note": 80,
      "start": 17.317,
      "duration": 0.0864,
      "velocity": 96,
      "chip": "ym2612"
    },
    {
      "channel": 0,
      "note": 80,
      "start": 17.4683,
      "duration": 0.2382,
      "velocity": 96,
      "chip": "ym2612"
    },
    {
      "channel": 2,
      "note": 74,
      "start": 17.4691,
      "duration": 0.1081,
      "velocity": 92,
      "chip": "ym2612"
    },
    {
      "channel": 1,
      "note": 80,
      "start": 17.5768,
      "duration": 0.2384,
      "velocity": 96,
      "chip": "ym2612"
    },
    {
      "channel": 2,
      "note": 78,
      "start": 17.5988,
      "duration": 0.1082,
      "velocity": 92,
      "chip": "ym2612"
    },
    {
      "channel": 4,
      "note": 83,
      "start": 17.5998,
      "duration": 0.108,
      "velocity": 92,
      "chip": "ym2612"
    },
    {
      "channel": 0,
      "note": 79,
      "start": 17.7283,
      "duration": 0.2382,
      "velocity": 96,
      "chip": "ym2612"
    },
    {
      "channel": 2,
      "note": 83,
      "start": 17.7291,
      "duration": 0.1082,
      "velocity": 92,
      "chip": "ym2612"
    },
    {
      "channel": 3,
      "note": 50,
      "start": 17.7297,
      "duration": 0.2376,
      "velocity": 93,
      "chip": "ym2612"
    },
    {
      "channel": 4,
      "note": 74,
      "start": 17.7304,
      "duration": 0.1074,
      "velocity": 92,
      "chip": "ym2612"
    },
    {
      "channel": 1,
      "note": 79,
      "start": 17.8369,
      "duration": 0.2382,
      "velocity": 96,
      "chip": "ym2612"
    },
    {
      "channel": 4,
      "note": 78,
      "start": 17.8595,
      "duration": 0.1082,
      "velocity": 92,
      "chip": "ym2612"
    },
    {
      "channel": 0,
      "note": 83,
      "start": 17.9884,
      "duration": 0.0864,
      "velocity": 96,
      "chip": "ym2612"
    },
    {
      "channel": 2,
      "note": 73,
      "start": 17.9891,
      "duration": 0.1083,
      "velocity": 92,
      "chip": "ym2612"
    },
    {
      "channel": 3,
      "note": 62,
      "start": 17.9898,
      "duration": 0.4976,
      "velocity": 93,
      "chip": "ym2612"
    },
    {
      "channel": 1,
      "note": 83,
      "start": 18.097,
      "duration": 0.0864,
      "velocity": 96,
      "chip": "ym2612"
    },
    {
      "channel": 2,
      "note": 77,
      "start": 18.1188,
      "duration": 0.1082,
      "velocity": 92,
      "chip": "ym2612"
    },
    {
      "channel": 4,
      "note": 83,
      "start": 18.1198,
      "duration": 0.1078,
      "velocity": 92,
      "chip": "ym2612"
    },
    {
      "channel": 0,
      "note": 77,
      "start": 18.2484,
      "duration": 0.4982,
      "velocity": 96,
      "chip": "ym2612"
    },
    {
      "channel": 2,
      "note": 80,
      "start": 18.2492,
      "duration": 0.1081,
      "velocity": 92,
      "chip": "ym2612"
    },
    {
      "channel": 4,
      "note": 73,
      "start": 18.2501,
      "duration": 0.1078,
      "velocity": 92,
      "chip": "ym2612"
    },
    {
      "channel": 1,
      "note": 77,
      "start": 18.3569,
      "duration": 0.4982,
      "velocity": 96,
      "chip": "ym2612"
    },
    {
      "channel": 2,
      "note": 83,
      "start": 18.3788,
      "duration": 0.1082,
      "velocity": 92,
      "chip": "ym2612"
    },
    {
      "channel": 4,
      "note": 77,
      "start": 18.3798,
      "duration": 0.108,
      "velocity": 92,
      "chip": "ym2612"
    },
    {
      "channel": 2,
      "note": 80,
      "start": 18.5088,
      "duration": 0.1081,
      "velocity": 92,
      "chip": "ym2612"
    },
    {
      "channel": 3,
      "note": 49,
      "start": 18.5095,
      "duration": 0.2379,
      "velocity": 93,
      "chip": "ym2612"
    },
    {
      "channel": 4,
      "note": 80,
      "start": 18.5102,
      "duration": 0.1075,
      "velocity": 92,
      "chip": "ym2612"
    },
    {
      "channel": 2,
      "note": 77,
      "start": 18.6389,
      "duration": 0.1082,
      "velocity": 92,
      "chip": "ym2612"
    },
    {
      "channel": 4,
      "note": 83,
      "start": 18.6398,
      "duration": 0.108,
      "velocity": 92,
      "chip": "ym2612"
    },
    {
      "channel": 0,
      "note": 78,
      "start": 18.7685,
      "duration": 0.4981,
      "velocity": 96,
      "chip": "ym2612"
    },
    {
      "channel": 3,
      "note": 61,
      "start": 18.7697,
      "duration": 0.4978,
      "velocity": 93,
      "chip": "ym2612"
    },
    {
      "channel": 4,
      "note": 80,
      "start": 18.7704,
      "duration": 0.1076,
      "velocity": 92,
      "chip": "ym2612"
    },
    {
      "channel": 1,
      "note": 78,
      "start": 18.877,
      "duration": 0.4982,
      "velocity": 96,
      "chip": "ym2612"
    },
    {
      "channel": 2,
      "note": 73,
      "start": 19.0289,
      "duration": 0.1082,
      "velocity": 92,
      "chip": "ym2612"
    },
    {
      "channel": 2,
      "note": 78,
      "start": 19.1589,
      "duration": 0.1082,
      "velocity": 92,
      "chip": "ym2612"
    },
    {
      "channel": 4,
      "note": 77,
      "start": 19.1599,
      "duration": 0.108,
      "velocity": 92,
      "chip": "ym2612"
    },
    {
      "channel": 0,
      "note": 78,
      "start": 19.2885,
      "duration": 0.4982,
      "velocity": 96,
      "chip": "ym2612"
    },
    {
      "channel": 2,
      "note": 81,
      "start": 19.2893,
      "duration": 0.1081,
      "velocity": 92,
      "chip": "ym2612"
    },
    {
      "channel": 3,
      "note": 54,
      "start": 19.2899,
      "duration": 0.2375,
      "velocity": 93,
      "chip": "ym2612"
    },
    {
      "channel": 4,
      "note": 73,
      "start": 19.2906,
      "duration": 0.1074,
      "velocity": 92,
      "chip": "ym2612"
    },
    {
      "channel": 1,
      "note": 78,
      "start": 19.3971,
      "duration": 0.4982,
      "velocity": 96,
      "chip": "ym2612"
    },
    {
      "channel": 4,
      "note": 78,
      "start": 19.4197,
      "duration": 0.108,
      "velocity": 92,
      "chip": "ym2612"
    },
    {
      "channel": 3,
      "note": 66,
      "start": 19.5495,
      "duration": 0.498,
      "velocity": 93,
      "chip": "ym2612"
    },
    {
      "channel": 0,
      "note": 78,
      "start": 19.8085,
      "duration": 0.4982,
      "velocity": 96,
      "chip": "ym2612"
    },
    {
      "channel": 2,
      "note": 73,
      "start": 19.8093,
      "duration": 0.1082,
      "velocity": 92,
      "chip": "ym2612"
    },
    {
      "channel": 1,
      "note": 78,
      "start": 19.9171,
      "duration": 0.4982,
      "velocity": 96,
      "chip": "ym2612"
    },
    {
      "channel": 2,
      "note": 77,
      "start": 19.939,
      "duration": 0.1081,
      "velocity": 92,
      "chip": "ym2612"
    },
    {
      "channel": 4,
      "note": 81,
      "start": 19.9399,
      "duration": 0.108,
      "velocity": 92,
      "chip": "ym2612"
    },
    {
      "channel": 2,
      "note": 81,
      "start": 20.069,
      "duration": 0.1081,
      "velocity": 92,
      "chip": "ym2612"
    },
    {
      "channel": 3,
      "note": 53,
      "start": 20.0697,
      "duration": 0.2378,
      "velocity": 93,
      "chip": "ym2612"
    },
    {
      "channel": 4,
      "note": 73,
      "start": 20.0704,
      "duration": 0.1074,
      "velocity": 92,
      "chip": "ym2612"
    },
    {
      "channel": 4,
      "note": 77,
      "start": 20.1998,
      "duration": 0.1081,
      "velocity": 92,
      "chip": "ym2612"
    },
    {
      "channel": 0,
      "note": 78,
      "start": 20.3286,
      "duration": 0.0865,
      "velocity": 96,
      "chip": "ym2612"
    },
    {
      "channel": 3,
      "note": 65,
      "start": 20.3296,
      "duration": 0.498,
      "velocity": 93,
      "chip": "ym2612"
    },
    {
      "channel": 1,
      "note": 78,
      "start": 20.4373,
      "duration": 0.0863,
      "velocity": 96,
      "chip": "ym2612"
    },
    {
      "channel": 0,
      "note": 78,
      "start": 20.5886,
      "duration": 0.2382,
      "velocity": 96,
      "chip": "ym2612"
    },
    {
      "channel": 2,
      "note": 73,
      "start": 20.5894,
      "duration": 0.1081,
      "velocity": 92,
      "chip": "ym2612"
    },
    {
      "channel": 1,
      "note": 78,
      "start": 20.6972,
      "duration": 0.2382,
      "velocity": 96,
      "chip": "ym2612"
    },
    {
      "channel": 2,
      "note": 76,
      "start": 20.7191,
      "duration": 0.1082,
      "velocity": 92,
      "chip": "ym2612"
    },
    {
      "channel": 4,
      "note": 81,
      "start": 20.72,
      "duration": 0.1079,
      "velocity": 92,
      "chip": "ym2612"
    },
    {
      "channel": 0,
      "note": 77,
      "start": 20.8486,
      "duration": 0.2382,
      "velocity": 96,
      "chip": "ym2612"
    },
    {
      "channel": 2,
      "note": 81,
      "start": 20.8494,
      "duration": 0.1082,
      "velocity": 92,
      "chip": "ym2612"
    },
    {
      "channel": 3,
      "note": 52,
      "start": 20.85,
      "duration": 0.2376,
      "velocity": 93,
      "chip": "ym2612"
    },
    {
      "channel": 4,
      "note": 73,
      "start": 20.8507,
      "duration": 0.1074,
      "velocity": 92,
      "chip": "ym2612"
    },
    {
      "channel": 1,
      "note": 77,
      "start": 20.9572,
      "duration": 0.2382,
      "velocity": 96,
      "chip": "ym2612"
    },
    {
      "channel": 4,
      "note": 76,
      "start": 20.9798,
      "duration": 0.1081,
      "velocity": 92,
      "chip": "ym2612"
    },
    {
      "channel": 0,
      "note": 80,
      "start": 21.1087,
      "duration": 0.0865,
      "velocity": 96,
      "chip": "ym2612"
    },
    {
      "channel": 2,
      "note": 75,
      "start": 21.1094,
      "duration": 0.1083,
      "velocity": 92,
      "chip": "ym2612"
    },
    {
      "channel": 3,
      "note": 64,
      "start": 21.11,
      "duration": 0.4976,
      "velocity": 93,
      "chip": "ym2612"
    },
    {
      "channel": 1,
      "note": 80,
      "start": 21.2174,
      "duration": 0.0863,
      "velocity": 96,
      "chip": "ym2612"
    },
    {
      "channel": 2,
      "note": 78,
      "start": 21.2391,
      "duration": 0.1082,
      "velocity": 92,
      "chip": "ym2612"
    },
    {
      "channel": 4,
      "note": 81,
      "start": 21.2401,
      "duration": 0.1079,
      "velocity": 92,
      "chip": "ym2612"
    },
    {
      "channel": 0,
      "note": 78,
      "start": 21.3686,
      "duration": 0.4982,
      "velocity": 96,
      "chip": "ym2612"
    },
    {
      "channel": 2,
      "note": 81,
      "start": 21.3694,
      "duration": 0.1082,
      "velocity": 92,
      "chip": "ym2612"
    },
    {
      "channel": 4,
      "note": 75,
      "start": 21.3704,
      "duration": 0.1078,
      "velocity": 92,
      "chip": "ym2612"
    },
    {
      "channel": 1,
      "note": 78,
      "start": 21.4772,
      "duration": 0.4982,
      "velocity": 96,
      "chip": "ym2612"
    },
    {
      "channel": 2,
      "note": 85,
      "start": 21.4992,
      "duration": 0.1081,
      "velocity": 92,
      "chip": "ym2612"
    },
    {
      "channel": 4,
      "note": 78,
      "start": 21.5001,
      "duration": 0.1079,
      "velocity": 92,
      "chip": "ym2612"
    },
    {
      "channel": 2,
      "note": 81,
      "start": 21.6291,
      "duration": 0.1082,
      "velocity": 92,
      "chip": "ym2612"
    },
    {
      "channel": 3,
      "note": 51,
      "start": 21.6298,
      "duration": 0.238,
      "velocity": 93,
      "chip": "ym2612"
    },
    {
      "channel": 4,
      "note": 81,
      "start": 21.6305,
      "duration": 0.1074,
      "velocity": 92,
      "chip": "ym2612"
    },
    {
      "channel": 2,
      "note": 78,
      "start": 21.7592,
      "duration": 0.1083,
      "velocity": 92,
      "chip": "ym2612"
    },
    {
      "channel": 4,
      "note": 85,
      "start": 21.7601,
      "duration": 0.108,
      "velocity": 92,
      "chip": "ym2612"
    },
    {
      "channel": 0,
      "note": 81,
      "start": 21.8888,
      "duration": 0.4981,
      "velocity": 96,
      "chip": "ym2612"
    },
    {
      "channel": 3,
      "note": 63,
      "start": 21.89,
      "duration": 0.4978,
      "velocity": 93,
      "chip": "ym2612"
    },
    {
      "channel": 4,
      "note": 81,
      "start": 21.8907,
      "duration": 0.1076,
      "velocity": 92,
      "chip": "ym2612"
    },
    {
      "channel": 1,
      "note": 81,
      "start": 21.9973,
      "duration": 0.4982,
      "velocity": 96,
      "chip": "ym2612"
    },
    {
      "channel": 2,
      "note": 73,
      "start": 22.1492,
      "duration": 0.1082,
      "velocity": 92,
      "chip": "ym2612"
    },
    {
      "channel": 2,
      "note": 76,
      "start": 22.2792,
      "duration": 0.1083,
      "velocity": 92,
      "chip": "ym2612"
    },
    {
      "channel": 4,
      "note": 78,
      "start": 22.2802,
      "duration": 0.108,
      "velocity": 92,
      "chip": "ym2612"
    },
    {
      "channel": 0,
      "note": 81,
      "start": 22.4088,
      "duration": 0.4982,
      "velocity": 96,
      "chip": "ym2612"
    },
    {
      "channel": 2,
      "note": 81,
      "start": 22.4095,
      "duration": 0.1082,
      "velocity": 92,
      "chip": "ym2612"
    },
    {
      "channel": 3,
      "note": 49,
      "start": 22.4102,
      "duration": 0.2375,
      "velocity": 93,
      "chip": "ym2612"
    },
    {
      "channel": 4,
      "note": 73,
      "start": 22.4109,
      "duration": 0.1075,
      "velocity": 92,
      "chip": "ym2612"
    },
    {
      "channel": 1,
      "note": 81,
      "start": 22.5174,
      "duration": 0.4982,
      "velocity": 96,
      "chip": "ym2612"
    },
    {
      "channel": 4,
      "note": 76,
      "start": 22.54,
      "duration": 0.108,
      "velocity": 92,
      "chip": "ym2612"
    },
    {
      "channel": 3,
      "note": 61,
      "start": 22.6696,
      "duration": 0.4982,
      "velocity": 93,
      "chip": "ym2612"
    },
    {
      "channel": 0,
      "note": 81,
      "start": 22.9288,
      "duration": 0.4982,
      "velocity": 96,
      "chip": "ym2612"
    },
    {
      "channel": 2,
      "note": 72,
      "start": 22.9296,
      "duration": 0.1081,
      "velocity": 92,
      "chip": "ym2612"
    },
    {
      "channel": 1,
      "note": 81,
      "start": 23.0374,
      "duration": 0.4982,
      "velocity": 96,
      "chip": "ym2612"
    },
    {
      "channel": 2,
      "note": 76,
      "start": 23.0593,
      "duration": 0.1081,
      "velocity": 92,
      "chip": "ym2612"
    },
    {
      "channel": 4,
      "note": 81,
      "start": 23.0602,
      "duration": 0.108,
      "velocity": 92,
      "chip": "ym2612"
    },
    {
      "channel": 2,
      "note": 81,
      "start": 23.1893,
      "duration": 0.1081,
      "velocity": 92,
      "chip": "ym2612"
    },
    {
      "channel": 3,
      "note": 48,
      "start": 23.19,
      "duration": 0.2378,
      "velocity": 93,
      "chip": "ym2612"
    },
    {
      "channel": 4,
      "note": 72,
      "start": 23.1907,
      "duration": 0.1074,
      "velocity": 92,
      "chip": "ym2612"
    },
    {
      "channel": 4,
      "note": 76,
      "start": 23.32,
      "duration": 0.1081,
      "velocity": 92,
      "chip": "ym2612"
    },
    {
      "channel": 0,
      "note": 81,
      "start": 23.4489,
      "duration": 0.0864,
      "velocity": 96,
      "chip": "ym2612"
    },
    {
      "channel": 3,
      "note": 60,
      "start": 23.4499,
      "duration": 0.498,
      "velocity": 93,
      "chip": "ym2612"
    },
    {
      "channel": 1,
      "note": 81,
      "start": 23.5576,
      "duration": 0.0864,
      "velocity": 96,
      "chip": "ym2612"
    },
    {
      "channel": 0,
      "note": 81,
      "start": 23.7089,
      "duration": 0.2382,
      "velocity": 96,
      "chip": "ym2612"
    },
    {
      "channel": 2,
      "note": 71,
      "start": 23.7097,
      "duration": 0.1083,
      "velocity": 92,
      "chip": "ym2612"
    },
    {
      "channel": 1,
      "note": 81,
      "start": 23.8175,
      "duration": 0.2382,
      "velocity": 96,
      "chip": "ym2612"
    },
    {
      "channel": 2,
      "note": 75,
      "start": 23.8394,
      "duration": 0.1082,
      "velocity": 92,
      "chip": "ym2612"
    },
    {
      "channel": 4,
      "note": 81,
      "start": 23.8403,
      "duration": 0.1081,
      "velocity": 92,
      "chip": "ym2612"
    },
    {
      "channel": 0,
      "note": 80,
      "start": 23.969,
      "duration": 0.2381,
      "velocity": 96,
      "chip": "ym2612"
    },
    {
      "channel": 2,
      "note": 81,
      "start": 23.9697,
      "duration": 0.1081,
      "velocity": 92,
      "chip": "ym2612"
    },
    {
      "channel": 3,
      "note": 47,
      "start": 23.9704,
      "duration": 0.2375,
      "velocity": 93,
      "chip": "ym2612"
    },
    {
      "channel": 4,
      "note": 71,
      "start": 23.9711,
      "duration": 0.1074,
      "velocity": 92,
      "chip": "ym2612"
    },
    {
      "channel": 1,
      "note": 80,
      "start": 24.0775,
      "duration": 0.2382,
      "velocity": 96,
      "chip": "ym2612"
    },
    {
      "channel": 4,
      "note": 75,
      "start": 24.1001,
      "duration": 0.1081,
      "velocity": 92,
      "chip": "ym2612"
    },
    {
      "channel": 0,
      "note": 78,
      "start": 24.2289,
      "duration": 0.2382,
      "velocity": 96,
      "chip": "ym2612"
    },
    {
      "channel": 2,
      "note": 73,
      "start": 24.2297,
      "duration": 0.1082,
      "velocity": 92,
      "chip": "ym2612"
    },
    {
      "channel": 3,
      "note": 59,
      "start": 24.2303,
      "duration": 0.4976,
      "velocity": 93,
      "chip": "ym2612"
    },
    {
      "channel": 1,
      "note": 78,
      "start": 24.3375,
      "duration": 0.2382,
      "velocity": 96,
      "chip": "ym2612"
    },
    {
      "channel": 2,
      "note": 75,
      "start": 24.3594,
      "duration": 0.1082,
      "velocity": 92,
      "chip": "ym2612"
    },
    {
      "channel": 4,
      "note": 81,
      "start": 24.3604,
      "duration": 0.1079,
      "velocity": 92,
      "chip": "ym2612"
    },
    {
      "channel": 0,
      "note": 76,
      "start": 24.489,
      "duration": 0.3681,
      "velocity": 96,
      "chip": "ym2612"
    },
    {
      "channel": 2,
      "note": 78,
      "start": 24.4898,
      "duration": 0.1081,
      "velocity": 92,
      "chip": "ym2612"
    },
    {
      "channel": 4,
      "note": 73,
      "start": 24.4907,
      "duration": 0.1078,
      "velocity": 92,
      "chip": "ym2612"
    },
    {
      "channel": 1,
      "note": 76,
      "start": 24.5975,
      "duration": 0.3683,
      "velocity": 96,
      "chip": "ym2612"
    },
    {
      "channel": 2,
      "note": 81,
      "start": 24.6195,
      "duration": 0.1082,
      "velocity": 92,
      "chip": "ym2612"
    },
    {
      "channel": 4,
      "note": 75,
      "start": 24.6204,
      "duration": 0.1079,
      "velocity": 92,
      "chip": "ym2612"
    },
    {
      "channel": 2,
      "note": 85,
      "start": 24.7494,
      "duration": 0.1082,
      "velocity": 92,
      "chip": "ym2612"
    },
    {
      "channel": 3,
      "note": 51,
      "start": 24.7501,
      "duration": 0.2382,
      "velocity": 93,
      "chip": "ym2612"
    },
    {
      "channel": 4,
      "note": 78,
      "start": 24.7508,
      "duration": 0.1075,
      "velocity": 92,
      "chip": "ym2612"
    },
    {
      "channel": 0,
      "note": 78,
      "start": 24.8791,
      "duration": 0.1081,
      "velocity": 96,
      "chip": "ym2612"
    },
    {
      "channel": 2,
      "note": 83,
      "start": 24.8798,
      "duration": 0.1081,
      "velocity": 92,
      "chip": "ym2612"
    },
    {
      "channel": 4,
      "note": 81,
      "start": 24.8807,
      "duration": 0.108,
      "velocity": 92,
      "chip": "ym2612"
    },
    {
      "channel": 1,
      "note": 78,
      "start": 24.9877,
      "duration": 0.1081,
      "velocity": 96,
      "chip": "ym2612"
    },
    {
      "channel": 0,
      "note": 80,
      "start": 25.009,
      "duration": 0.0865,
      "velocity": 96,
      "chip": "ym2612"
    },
    {
      "channel": 2,
      "note": 76,
      "start": 25.0098,
      "duration": 0.758,
      "velocity": 92,
      "chip": "ym2612"
    },
    {
      "channel": 3,
      "note": 63,
      "start": 25.0104,
      "duration": 0.4975,
      "velocity": 93,
      "chip": "ym2612"
    },
    {
      "channel": 4,
      "note": 85,
      "start": 25.0111,
      "duration": 0.1076,
      "velocity": 92,
      "chip": "ym2612"
    },
    {
      "channel": 1,
      "note": 80,
      "start": 25.1178,
      "duration": 0.0863,
      "velocity": 96,
      "chip": "ym2612"
    },
    {
      "channel": 4,
      "note": 83,
      "start": 25.1401,
      "duration": 0.7583,
      "velocity": 92,
      "chip": "ym2612"
    },
    {
      "channel": 0,
      "note": 83,
      "start": 25.269,
      "duration": 2.8384,
      "velocity": 96,
      "chip": "ym2612"
    },
    {
      "channel": 1,
      "note": 83,
      "start": 25.3776,
      "duration": 2.8384,
      "velocity": 96,
      "chip": "ym2612"
    },
    {
      "channel": 3,
      "note": 52,
      "start": 25.5299,
      "duration": 0.4981,
      "velocity": 93,
      "chip": "ym2612"
    },
    {
      "channel": 2,
      "note": 75,
      "start": 25.7896,
      "duration": 0.7582,
      "velocity": 92,
      "chip": "ym2612"
    },
    {
      "channel": 4,
      "note": 76,
      "start": 25.9202,
      "duration": 0.7582,
      "velocity": 92,
      "chip": "ym2612"
    },
    {
      "channel": 3,
      "note": 64,
      "start": 26.0499,
      "duration": 0.2382,
      "velocity": 93,
      "chip": "ym2612"
    },
    {
      "channel": 3,
      "note": 64,
      "start": 26.3101,
      "duration": 0.2381,
      "velocity": 93,
      "chip": "ym2612"
    },
    {
      "channel": 2,
      "note": 74,
      "start": 26.5697,
      "duration": 0.4983,
      "velocity": 92,
      "chip": "ym2612"
    },
    {
      "channel": 3,
      "note": 59,
      "start": 26.5704,
      "duration": 0.498,
      "velocity": 93,
      "chip": "ym2612"
    },
    {
      "channel": 4,
      "note": 75,
      "start": 26.7003,
      "duration": 0.4982,
      "velocity": 92,
      "chip": "ym2612"
    },
    {
      "channel": 2,
      "note": 71,
      "start": 27.0898,
      "duration": 0.2382,
      "velocity": 92,
      "chip": "ym2612"
    },
    {
      "channel": 3,
      "note": 52,
      "start": 27.0904,
      "duration": 0.2379,
      "velocity": 93,
      "chip": "ym2612"
    },
    {
      "channel": 4,
      "note": 74,
      "start": 27.2204,
      "duration": 0.2382,
      "velocity": 92,
      "chip": "ym2612"
    },
    {
      "channel": 2,
      "note": 68,
      "start": 27.3498,
      "duration": 0.7583,
      "velocity": 92,
      "chip": "ym2612"
    },
    {
      "channel": 3,
      "note": 64,
      "start": 27.3504,
      "duration": 0.1078,
      "velocity": 93,
      "chip": "ym2612"
    },
    {
      "channel": 3,
      "note": 52,
      "start": 27.4802,
      "duration": 0.108,
      "velocity": 93,
      "chip": "ym2612"
    },
    {
      "channel": 4,
      "note": 71,
      "start": 27.4809,
      "duration": 0.7579,
      "velocity": 92,
      "chip": "ym2612"
    },
    {
      "channel": 3,
      "note": 54,
      "start": 27.6102,
      "duration": 0.1081,
      "velocity": 93,
      "chip": "ym2612"
    },
    {
      "channel": 3,
      "note": 56,
      "start": 27.7401,
      "duration": 0.1081,
      "velocity": 93,
      "chip": "ym2612"
    },
    {
      "channel": 3,
      "note": 59,
      "start": 27.8702,
      "duration": 0.1081,
      "velocity": 93,
      "chip": "ym2612"
    },
    {
      "channel": 3,
      "note": 66,
      "start": 28.0002,
      "duration": 0.1082,
      "velocity": 93,
      "chip": "ym2612"
    },
    {
      "channel": 0,
      "note": 85,
      "start": 28.1293,
      "duration": 0.4982,
      "velocity": 96,
      "chip": "ym2612"
    },
    {
      "channel": 3,
      "note": 64,
      "start": 28.1306,
      "duration": 0.4978,
      "velocity": 93,
      "chip": "ym2612"
    },
    {
      "channel": 1,
      "note": 85,
      "start": 28.2379,
      "duration": 0.4982,
      "velocity": 96,
      "chip": "ym2612"
    },
    {
      "channel": 2,
      "note": 69,
      "start": 28.3898,
      "duration": 0.1081,
      "velocity": 92,
      "chip": "ym2612"
    },
    {
      "channel": 2,
      "note": 73,
      "start": 28.5198,
      "duration": 0.1083,
      "velocity": 92,
      "chip": "ym2612"
    },
    {
      "channel": 4,
      "note": 68,
      "start": 28.5207,
      "duration": 0.108,
      "velocity": 92,
      "chip": "ym2612"
    },
    {
      "channel": 0,
      "note": 85,
      "start": 28.6494,
      "duration": 0.4982,
      "velocity": 96,
      "chip": "ym2612"
    },
    {
      "channel": 2,
      "note": 76,
      "start": 28.6501,
      "duration": 0.1082,
      "velocity": 92,
      "chip": "ym2612"
    },
    {
      "channel": 3,
      "note": 57,
      "start": 28.6508,
      "duration": 0.2375,
      "velocity": 93,
      "chip": "ym2612"
    },
    {
      "channel": 4,
      "note": 69,
      "start": 28.6515,
      "duration": 0.1074,
      "velocity": 92,
      "chip": "ym2612"
    },
    {
      "channel": 1,
      "note": 85,
      "start": 28.758,
      "duration": 0.4981,
      "velocity": 96,
      "chip": "ym2612"
    },
    {
      "channel": 4,
      "note": 73,
      "start": 28.7806,
      "duration": 0.108,
      "velocity": 92,
      "chip": "ym2612"
    },
    {
      "channel": 3,
      "note": 69,
      "start": 28.9102,
      "duration": 0.4982,
      "velocity": 93,
      "chip": "ym2612"
    },
    {
      "channel": 0,
      "note": 85,
      "start": 29.1695,
      "duration": 0.4982,
      "velocity": 96,
      "chip": "ym2612"
    },
    {
      "channel": 2,
      "note": 68,
      "start": 29.1702,
      "duration": 0.1081,
      "velocity": 92,
      "chip": "ym2612"
    },
    {
      "channel": 1,
      "note": 85,
      "start": 29.278,
      "duration": 0.4982,
      "velocity": 96,
      "chip": "ym2612"
    },
    {
      "channel": 2,
      "note": 72,
      "start": 29.2999,
      "duration": 0.1082,
      "velocity": 92,
      "chip": "ym2612"
    },
    {
      "channel": 4,
      "note": 76,
      "start": 29.3008,
      "duration": 0.1079,
      "velocity": 92,
      "chip": "ym2612"
    },
    {
      "channel": 2,
      "note": 76,
      "start": 29.4299,
      "duration": 0.1081,
      "velocity": 92,
      "chip": "ym2612"
    },
    {
      "channel": 3,
      "note": 56,
      "start": 29.4305,
      "duration": 0.2379,
      "velocity": 93,
      "chip": "ym2612"
    },
    {
      "channel": 4,
      "note": 68,
      "start": 29.4312,
      "duration": 0.1074,
      "velocity": 92,
      "chip": "ym2612"
    },
    {
      "channel": 4,
      "note": 72,
      "start": 29.5606,
      "duration": 0.1082,
      "velocity": 92,
      "chip": "ym2612"
    },
    {
      "channel": 0,
      "note": 85,
      "start": 29.6895,
      "duration": 0.0865,
      "velocity": 96,
      "chip": "ym2612"
    },
    {
      "channel": 3,
      "note": 68,
      "start": 29.6906,
      "duration": 0.4979,
      "velocity": 93,
      "chip": "ym2612"
    },
    {
      "channel": 1,
      "note": 85,
      "start": 29.7982,
      "duration": 0.0864,
      "velocity": 96,
      "chip": "ym2612"
    },
    {
      "channel": 0,
      "note": 85,
      "start": 29.9495,
      "duration": 0.2382,
      "velocity": 96,
      "chip": "ym2612"
    },
    {
      "channel": 2,
      "note": 67,
      "start": 29.9502,
      "duration": 0.1081,
      "velocity": 92,
      "chip": "ym2612"
    },
    {
      "channel": 1,
      "note": 85,
      "start": 30.0581,
      "duration": 0.2382,
      "velocity": 96,
      "chip": "ym2612"
    },
    {
      "channel": 2,
      "note": 71,
      "start": 30.08,
      "duration": 0.1082,
      "velocity": 92,
      "chip": "ym2612"
    },
    {
      "channel": 4,
      "note": 76,
      "start": 30.0809,
      "duration": 0.108,
      "velocity": 92,
      "chip": "ym2612"
    },
    {
      "channel": 0,
      "note": 84,
      "start": 30.2095,
      "duration": 0.2382,
      "velocity": 96,
      "chip": "ym2612"
    },
    {
      "channel": 2,
      "note": 76,
      "start": 30.2103,
      "duration": 0.1082,
      "velocity": 92,
      "chip": "ym2612"
    },
    {
      "channel": 3,
      "note": 55,
      "start": 30.211,
      "duration": 0.2376,
      "velocity": 93,
      "chip": "ym2612"
    },
    {
      "channel": 4,
      "note": 67,
      "start": 30.2116,
      "duration": 0.1075,
      "velocity": 92,
      "chip": "ym2612"
    },
    {
      "channel": 1,
      "note": 84,
      "start": 30.3181,
      "duration": 0.2382,
      "velocity": 96,
      "chip": "ym2612"
    },
    {
      "channel": 4,
      "note": 71,
      "start": 30.3407,
      "duration": 0.1082,
      "velocity": 92,
      "chip": "ym2612"
    },
    {
      "channel": 0,
      "note": 88,
      "start": 30.4695,
      "duration": 0.0865,
      "velocity": 96,
      "chip": "ym2612"
    },
    {
      "channel": 2,
      "note": 66,
      "start": 30.4703,
      "duration": 0.1083,
      "velocity": 92,
      "chip": "ym2612"
    },
    {
      "channel": 3,
      "note": 67,
      "start": 30.4709,
      "duration": 0.4976,
      "velocity": 93,
      "chip": "ym2612"
    },
    {
      "channel": 1,
      "note": 88,
      "start": 30.5783,
      "duration": 0.0864,
      "velocity": 96,
      "chip": "ym2612"
    },
    {
      "channel": 2,
      "note": 70,
      "start": 30.6,
      "duration": 0.1082,
      "velocity": 92,
      "chip": "ym2612"
    },
    {
      "channel": 4,
      "note": 76,
      "start": 30.601,
      "duration": 0.1078,
      "velocity": 92,
      "chip": "ym2612"
    },
    {
      "channel": 0,
      "note": 82,
      "start": 30.7296,
      "duration": 0.4982,
      "velocity": 96,
      "chip": "ym2612"
    },
    {
      "channel": 2,
      "note": 73,
      "start": 30.7303,
      "duration": 0.1081,
      "velocity": 92,
      "chip": "ym2612"
    },
    {
      "channel": 4,
      "note": 66,
      "start": 30.7313,
      "duration": 0.1078,
      "velocity": 92,
      "chip": "ym2612"
    },
    {
      "channel": 1,
      "note": 82,
      "start": 30.8382,
      "duration": 0.4982,
      "velocity": 96,
      "chip": "ym2612"
    },
    {
      "channel": 2,
      "note": 76,
      "start": 30.86,
      "duration": 0.1082,
      "velocity": 92,
      "chip": "ym2612"
    },
    {
      "channel": 4,
      "note": 70,
      "start": 30.861,
      "duration": 0.108,
      "velocity": 92,
      "chip": "ym2612"
    },
    {
      "channel": 2,
      "note": 73,
      "start": 30.9901,
      "duration": 0.1082,
      "velocity": 92,
      "chip": "ym2612"
    },
    {
      "channel": 3,
      "note": 54,
      "start": 30.9907,
      "duration": 0.2379,
      "velocity": 93,
      "chip": "ym2612"
    },
    {
      "channel": 4,
      "note": 73,
      "start": 30.9914,
      "duration": 0.1075,
      "velocity": 92,
      "chip": "ym2612"
    },
    {
      "channel": 2,
      "note": 70,
      "start": 31.12,
      "duration": 0.1083,
      "velocity": 92,
      "chip": "ym2612"
    },
    {
      "channel": 4,
      "note": 76,
      "start": 31.121,
      "duration": 0.108,
      "velocity": 92,
      "chip": "ym2612"
    },
    {
      "channel": 0,
      "note": 83,
      "start": 31.2496,
      "duration": 0.4982,
      "velocity": 96,
      "chip": "ym2612"
    },
    {
      "channel": 3,
      "note": 66,
      "start": 31.2509,
      "duration": 0.4978,
      "velocity": 93,
      "chip": "ym2612"
    },
    {
      "channel": 4,
      "note": 73,
      "start": 31.2516,
      "duration": 0.1076,
      "velocity": 92,
      "chip": "ym2612"
    },
    {
      "channel": 1,
      "note": 83,
      "start": 31.3582,
      "duration": 0.4982,
      "velocity": 96,
      "chip": "ym2612"
    },
    {
      "channel": 2,
      "note": 71,
      "start": 31.5101,
      "duration": 0.1082,
      "velocity": 92,
      "chip": "ym2612"
    },
    {
      "channel": 2,
      "note": 74,
      "start": 31.6401,
      "duration": 0.1082,
      "velocity": 92,
      "chip": "ym2612"
    },
    {
      "channel": 4,
      "note": 70,
      "start": 31.641,
      "duration": 0.108,
      "velocity": 92,
      "chip": "ym2612"
    },
    {
      "channel": 0,
      "note": 83,
      "start": 31.7697,
      "duration": 0.4981,
      "velocity": 96,
      "chip": "ym2612"
    },
    {
      "channel": 2,
      "note": 78,
      "start": 31.7705,
      "duration": 0.1081,
      "velocity": 92,
      "chip": "ym2612"
    },
    {
      "channel": 3,
      "note": 59,
      "start": 31.7711,
      "duration": 0.2374,
      "velocity": 93,
      "chip": "ym2612"
    },
    {
      "channel": 4,
      "note": 71,
      "start": 31.7718,
      "duration": 0.1074,
      "velocity": 92,
      "chip": "ym2612"
    },
    {
      "channel": 1,
      "note": 83,
      "start": 31.8783,
      "duration": 0.4981,
      "velocity": 96,
      "chip": "ym2612"
    },
    {
      "channel": 4,
      "note": 74,
      "start": 31.9009,
      "duration": 0.108,
      "velocity": 92,
      "chip": "ym2612"
    },
    {
      "channel": 3,
      "note": 71,
      "start": 32.0305,
      "duration": 0.4981,
      "velocity": 93,
      "chip": "ym2612"
    },
    {
      "channel": 0,
      "note": 83,
      "start": 32.2897,
      "duration": 0.4982,
      "velocity": 96,
      "chip": "ym2612"
    },
    {
      "channel": 2,
      "note": 70,
      "start": 32.2905,
      "duration": 0.1082,
      "velocity": 92,
      "chip": "ym2612"
    },
    {
      "channel": 1,
      "note": 83,
      "start": 32.3983,
      "duration": 0.4982,
      "velocity": 96,
      "chip": "ym2612"
    },
    {
      "channel": 2,
      "note": 74,
      "start": 32.4202,
      "duration": 0.1081,
      "velocity": 92,
      "chip": "ym2612"
    },
    {
      "channel": 4,
      "note": 78,
      "start": 32.4211,
      "duration": 0.108,
      "velocity": 92,
      "chip": "ym2612"
    },
    {
      "channel": 2,
      "note": 78,
      "start": 32.5502,
      "duration": 0.1082,
      "velocity": 92,
      "chip": "ym2612"
    },
    {
      "channel": 3,
      "note": 58,
      "start": 32.5509,
      "duration": 0.2379,
      "velocity": 93,
      "chip": "ym2612"
    },
    {
      "channel": 4,
      "note": 70,
      "start": 32.5516,
      "duration": 0.1074,
      "velocity": 92,
      "chip": "ym2612"
    },
    {
      "channel": 4,
      "note": 74,
      "start": 32.681,
      "duration": 0.1081,
      "velocity": 92,
      "chip": "ym2612"
    },
    {
      "channel": 0,
      "note": 83,
      "start": 32.8097,
      "duration": 0.0865,
      "velocity": 96,
      "chip": "ym2612"
    },
    {
      "channel": 3,
      "note": 70,
      "start": 32.8108,
      "duration": 0.498,
      "velocity": 93,
      "chip": "ym2612"
    },
    {
      "channel": 1,
      "note": 83,
      "start": 32.9185,
      "duration": 0.0864,
      "velocity": 96,
      "chip": "ym2612"
    },
    {
      "channel": 0,
      "note": 83,
      "start": 33.0698,
      "duration": 0.2382,
      "velocity": 96,
      "chip": "ym2612"
    },
    {
      "channel": 2,
      "note": 69,
      "start": 33.0705,
      "duration": 0.1082,
      "velocity": 92,
      "chip": "ym2612"
    },
    {
      "channel": 1,
      "note": 83,
      "start": 33.1784,
      "duration": 0.2382,
      "velocity": 96,
      "chip": "ym2612"
    },
    {
      "channel": 2,
      "note": 74,
      "start": 33.2002,
      "duration": 0.1082,
      "velocity": 92,
      "chip": "ym2612"
    },
    {
      "channel": 4,
      "note": 78,
      "start": 33.2013,
      "duration": 0.1079,
      "velocity": 92,
      "chip": "ym2612"
    },
    {
      "channel": 0,
      "note": 82,
      "start": 33.3298,
      "duration": 0.2382,
      "velocity": 96,
      "chip": "ym2612"
    },
    {
      "channel": 2,
      "note": 78,
      "start": 33.3306,
      "duration": 0.1082,
      "velocity": 92,
      "chip": "ym2612"
    },
    {
      "channel": 3,
      "note": 57,
      "start": 33.3312,
      "duration": 0.2376,
      "velocity": 93,
      "chip": "ym2612"
    },
    {
      "channel": 4,
      "note": 69,
      "start": 33.3319,
      "duration": 0.1074,
      "velocity": 92,
      "chip": "ym2612"
    },
    {
      "channel": 1,
      "note": 82,
      "start": 33.4384,
      "duration": 0.2382,
      "velocity": 96,
      "chip": "ym2612"
    },
    {
      "channel": 4,
      "note": 74,
      "start": 33.4611,
      "duration": 0.1081,
      "velocity": 92,
      "chip": "ym2612"
    },
    {
      "channel": 0,
      "note": 85,
      "start": 33.5898,
      "duration": 0.0865,
      "velocity": 96,
      "chip": "ym2612"
    },
    {
      "channel": 2,
      "note": 68,
      "start": 33.5906,
      "duration": 0.1083,
      "velocity": 92,
      "chip": "ym2612"
    },
    {
      "channel": 3,
      "note": 69,
      "start": 33.5912,
      "duration": 0.4976,
      "velocity": 93,
      "chip": "ym2612"
    },
    {
      "channel": 1,
      "note": 85,
      "start": 33.6985,
      "duration": 0.0864,
      "velocity": 96,
      "chip": "ym2612"
    },
    {
      "channel": 2,
      "note": 71,
      "start": 33.7203,
      "duration": 0.1082,
      "velocity": 92,
      "chip": "ym2612"
    },
    {
      "channel": 4,
      "note": 78,
      "start": 33.7212,
      "duration": 0.1079,
      "velocity": 92,
      "chip": "ym2612"
    },
    {
      "channel": 0,
      "note": 83,
      "start": 33.8499,
      "duration": 0.4984,
      "velocity": 96,
      "chip": "ym2612"
    },
    {
      "channel": 2,
      "note": 74,
      "start": 33.8506,
      "duration": 0.1081,
      "velocity": 92,
      "chip": "ym2612"
    },
    {
      "channel": 4,
      "note": 68,
      "start": 33.8517,
      "duration": 0.1078,
      "velocity": 92,
      "chip": "ym2612"
    },
    {
      "channel": 1,
      "note": 83,
      "start": 33.9585,
      "duration": 0.4982,
      "velocity": 96,
      "chip": "ym2612"
    },
    {
      "channel": 2,
      "note": 78,
      "start": 33.9803,
      "duration": 0.1081,
      "velocity": 92,
      "chip": "ym2612"
    },
    {
      "channel": 4,
      "note": 71,
      "start": 33.9813,
      "duration": 0.1079,
      "velocity": 92,
      "chip": "ym2612"
    },
    {
      "channel": 2,
      "note": 74,
      "start": 34.1103,
      "duration": 0.1082,
      "velocity": 92,
      "chip": "ym2612"
    },
    {
      "channel": 3,
      "note": 56,
      "start": 34.111,
      "duration": 0.2382,
      "velocity": 93,
      "chip": "ym2612"
    },
    {
      "channel": 4,
      "note": 74,
      "start": 34.1116,
      "duration": 0.1075,
      "velocity": 92,
      "chip": "ym2612"
    },
    {
      "channel": 2,
      "note": 71,
      "start": 34.2403,
      "duration": 0.1085,
      "velocity": 92,
      "chip": "ym2612"
    },
    {
      "channel": 4,
      "note": 78,
      "start": 34.2413,
      "duration": 0.1082,
      "velocity": 92,
      "chip": "ym2612"
    },
    {
      "channel": 0,
      "note": 86,
      "start": 34.37,
      "duration": 0.4981,
      "velocity": 96,
      "chip": "ym2612"
    },
    {
      "channel": 3,
      "note": 68,
      "start": 34.3712,
      "duration": 0.4978,
      "velocity": 93,
      "chip": "ym2612"
    },
    {
      "channel": 4,
      "note": 74,
      "start": 34.3719,
      "duration": 0.1075,
      "velocity": 92,
      "chip": "ym2612"
    },
    {
      "channel": 1,
      "note": 86,
      "start": 34.4785,
      "duration": 0.4981,
      "velocity": 96,
      "chip": "ym2612"
    },
    {
      "channel": 2,
      "note": 69,
      "start": 34.6304,
      "duration": 0.1081,
      "velocity": 92,
      "chip": "ym2612"
    },
    {
      "channel": 2,
      "note": 74,
      "start": 34.7604,
      "duration": 0.1083,
      "velocity": 92,
      "chip": "ym2612"
    },
    {
      "channel": 4,
      "note": 71,
      "start": 34.7613,
      "duration": 0.108,
      "velocity": 92,
      "chip": "ym2612"
    },
    {
      "channel": 0,
      "note": 86,
      "start": 34.89,
      "duration": 0.4981,
      "velocity": 96,
      "chip": "ym2612"
    },
    {
      "channel": 2,
      "note": 78,
      "start": 34.8907,
      "duration": 0.1082,
      "velocity": 92,
      "chip": "ym2612"
    },
    {
      "channel": 3,
      "note": 54,
      "start": 34.8914,
      "duration": 0.2375,
      "velocity": 93,
      "chip": "ym2612"
    },
    {
      "channel": 4,
      "note": 69,
      "start": 34.892,
      "duration": 0.1075,
      "velocity": 92,
      "chip": "ym2612"
    },
    {
      "channel": 1,
      "note": 86,
      "start": 34.9985,
      "duration": 0.4982,
      "velocity": 96,
      "chip": "ym2612"
    },
    {
      "channel": 4,
      "note": 74,
      "start": 35.0212,
      "duration": 0.1081,
      "velocity": 92,
      "chip": "ym2612"
    },
    {
      "channel": 3,
      "note": 66,
      "start": 35.1508,
      "duration": 0.4982,
      "velocity": 93,
      "chip": "ym2612"
    },
    {
      "channel": 0,
      "note": 86,
      "start": 35.41,
      "duration": 0.4982,
      "velocity": 96,
      "chip": "ym2612"
    },
    {
      "channel": 2,
      "note": 69,
      "start": 35.4108,
      "duration": 0.1081,
      "velocity": 92,
      "chip": "ym2612"
    },
    {
      "channel": 1,
      "note": 86,
      "start": 35.5186,
      "duration": 0.4982,
      "velocity": 96,
      "chip": "ym2612"
    },
    {
      "channel": 2,
      "note": 74,
      "start": 35.5405,
      "duration": 0.1082,
      "velocity": 92,
      "chip": "ym2612"
    },
    {
      "channel": 4,
      "note": 78,
      "start": 35.5414,
      "duration": 0.108,
      "velocity": 92,
      "chip": "ym2612"
    },
    {
      "channel": 2,
      "note": 77,
      "start": 35.6705,
      "duration": 0.1081,
      "velocity": 92,
      "chip": "ym2612"
    },
    {
      "channel": 3,
      "note": 53,
      "start": 35.6711,
      "duration": 0.2379,
      "velocity": 93,
      "chip": "ym2612"
    },
    {
      "channel": 4,
      "note": 69,
      "start": 35.6718,
      "duration": 0.1075,
      "velocity": 92,
      "chip": "ym2612"
    },
    {
      "channel": 4,
      "note": 74,
      "start": 35.8013,
      "duration": 0.1081,
      "velocity": 92,
      "chip": "ym2612"
    },
    {
      "channel": 0,
      "note": 86,
      "start": 35.93,
      "duration": 0.0865,
      "velocity": 96,
      "chip": "ym2612"
    },
    {
      "channel": 2,
      "note": 76,
      "start": 35.9308,
      "duration": 0.1085,
      "velocity": 92,
      "chip": "ym2612"
    },
    {
      "channel": 3,
      "note": 65,
      "start": 35.9316,
      "duration": 0.4978,
      "velocity": 93,
      "chip": "ym2612"
    },
    {
      "channel": 1,
      "note": 86,
      "start": 36.0389,
      "duration": 0.0862,
      "velocity": 96,
      "chip": "ym2612"
    },
    {
      "channel": 4,
      "note": 77,
      "start": 36.0613,
      "duration": 0.108,
      "velocity": 92,
      "chip": "ym2612"
    },
    {
      "channel": 0,
      "note": 83,
      "start": 36.1901,
      "duration": 0.1081,
      "velocity": 96,
      "chip": "ym2612"
    },
    {
      "channel": 1,
      "note": 83,
      "start": 36.2987,
      "duration": 0.1081,
      "velocity": 96,
      "chip": "ym2612"
    },
    {
      "channel": 0,
      "note": 85,
      "start": 36.3201,
      "duration": 0.1081,
      "velocity": 96,
      "chip": "ym2612"
    },
    {
      "channel": 1,
      "note": 85,
      "start": 36.4288,
      "duration": 0.1081,
      "velocity": 96,
      "chip": "ym2612"
    },
    {
      "channel": 0,
      "note": 86,
      "start": 36.4501,
      "duration": 0.3465,
      "velocity": 96,
      "chip": "ym2612"
    },
    {
      "channel": 2,
      "note": 68,
      "start": 36.451,
      "duration": 0.1081,
      "velocity": 92,
      "chip": "ym2612"
    },
    {
      "channel": 3,
      "note": 52,
      "start": 36.4516,
      "duration": 0.4975,
      "velocity": 93,
      "chip": "ym2612"
    },
    {
      "channel": 1,
      "note": 86,
      "start": 36.5587,
      "duration": 0.3466,
      "velocity": 96,
      "chip": "ym2612"
    },
    {
      "channel": 2,
      "note": 69,
      "start": 36.5806,
      "duration": 0.1082,
      "velocity": 92,
      "chip": "ym2612"
    },
    {
      "channel": 4,
      "note": 76,
      "start": 36.5816,
      "duration": 0.1078,
      "velocity": 92,
      "chip": "ym2612"
    },
    {
      "channel": 2,
      "note": 71,
      "start": 36.7106,
      "duration": 0.1085,
      "velocity": 92,
      "chip": "ym2612"
    },
    {
      "channel": 4,
      "note": 68,
      "start": 36.7115,
      "duration": 0.1081,
      "velocity": 92,
      "chip": "ym2612"
    },
    {
      "channel": 2,
      "note": 73,
      "start": 36.8407,
      "duration": 0.1081,
      "velocity": 92,
      "chip": "ym2612"
    },
    {
      "channel": 4,
      "note": 69,
      "start": 36.8415,
      "duration": 0.108,
      "velocity": 92,
      "chip": "ym2612"
    },
    {
      "channel": 0,
      "note": 83,
      "start": 36.9702,
      "duration": 0.1081,
      "velocity": 96,
      "chip": "ym2612"
    },
    {
      "channel": 2,
      "note": 74,
      "start": 36.9709,
      "duration": 0.1082,
      "velocity": 92,
      "chip": "ym2612"
    },
    {
      "channel": 3,
      "note": 64,
      "start": 36.9716,
      "duration": 0.2379,
      "velocity": 93,
      "chip": "ym2612"
    },
    {
      "channel": 4,
      "note": 71,
      "start": 36.9723,
      "duration": 0.1074,
      "velocity": 92,
      "chip": "ym2612"
    },
    {
      "channel": 1,
      "note": 83,
      "start": 37.0788,
      "duration": 0.1081,
      "velocity": 96,
      "chip": "ym2612"
    },
    {
      "channel": 0,
      "note": 85,
      "start": 37.1002,
      "duration": 0.1082,
      "velocity": 96,
      "chip": "ym2612"
    },
    {
      "channel": 4,
      "note": 73,
      "start": 37.1018,
      "duration": 0.108,
      "velocity": 92,
      "chip": "ym2612"
    },
    {
      "channel": 1,
      "note": 85,
      "start": 37.2088,
      "duration": 0.1081,
      "velocity": 96,
      "chip": "ym2612"
    },
    {
      "channel": 0,
      "note": 86,
      "start": 37.2302,
      "duration": 0.3465,
      "velocity": 96,
      "chip": "ym2612"
    },
    {
      "channel": 2,
      "note": 74,
      "start": 37.231,
      "duration": 0.1081,
      "velocity": 92,
      "chip": "ym2612"
    },
    {
      "channel": 3,
      "note": 64,
      "start": 37.2316,
      "duration": 0.2375,
      "velocity": 93,
      "chip": "ym2612"
    },
    {
      "channel": 1,
      "note": 86,
      "start": 37.3388,
      "duration": 0.3466,
      "velocity": 96,
      "chip": "ym2612"
    },
    {
      "channel": 2,
      "note": 76,
      "start": 37.3606,
      "duration": 0.1082,
      "velocity": 92,
      "chip": "ym2612"
    },
    {
      "channel": 4,
      "note": 74,
      "start": 37.3616,
      "duration": 0.1079,
      "velocity": 92,
      "chip": "ym2612"
    },
    {
      "channel": 2,
      "note": 78,
      "start": 37.4907,
      "duration": 0.1085,
      "velocity": 92,
      "chip": "ym2612"
    },
    {
      "channel": 3,
      "note": 59,
      "start": 37.4915,
      "duration": 0.498,
      "velocity": 93,
      "chip": "ym2612"
    },
    {
      "channel": 4,
      "note": 74,
      "start": 37.4922,
      "duration": 0.1075,
      "velocity": 92,
      "chip": "ym2612"
    },
    {
      "channel": 2,
      "note": 76,
      "start": 37.6207,
      "duration": 0.1082,
      "velocity": 92,
      "chip": "ym2612"
    },
    {
      "channel": 4,
      "note": 76,
      "start": 37.6216,
      "duration": 0.1078,
      "velocity": 92,
      "chip": "ym2612"
    },
    {
      "channel": 0,
      "note": 83,
      "start": 37.7502,
      "duration": 0.1081,
      "velocity": 96,
      "chip": "ym2612"
    },
    {
      "channel": 2,
      "note": 74,
      "start": 37.7511,
      "duration": 0.1081,
      "velocity": 92,
      "chip": "ym2612"
    },
    {
      "channel": 4,
      "note": 78,
      "start": 37.752,
      "duration": 0.1078,
      "velocity": 92,
      "chip": "ym2612"
    },
    {
      "channel": 1,
      "note": 83,
      "start": 37.8588,
      "duration": 0.1081,
      "velocity": 96,
      "chip": "ym2612"
    },
    {
      "channel": 0,
      "note": 85,
      "start": 37.8802,
      "duration": 0.1081,
      "velocity": 96,
      "chip": "ym2612"
    },
    {
      "channel": 4,
      "note": 76,
      "start": 37.8819,
      "duration": 0.108,
      "velocity": 92,
      "chip": "ym2612"
    },
    {
      "channel": 1,
      "note": 85,
      "start": 37.9889,
      "duration": 0.1081,
      "velocity": 96,
      "chip": "ym2612"
    },
    {
      "channel": 0,
      "note": 86,
      "start": 38.0102,
      "duration": 0.3465,
      "velocity": 96,
      "chip": "ym2612"
    },
    {
      "channel": 2,
      "note": 68,
      "start": 38.011,
      "duration": 0.1082,
      "velocity": 92,
      "chip": "ym2612"
    },
    {
      "channel": 3,
      "note": 52,
      "start": 38.0116,
      "duration": 0.4977,
      "velocity": 93,
      "chip": "ym2612"
    },
    {
      "channel": 1,
      "note": 86,
      "start": 38.1188,
      "duration": 0.3465,
      "velocity": 96,
      "chip": "ym2612"
    },
    {
      "channel": 2,
      "note": 69,
      "start": 38.1407,
      "duration": 0.1082,
      "velocity": 92,
      "chip": "ym2612"
    },
    {
      "channel": 4,
      "note": 74,
      "start": 38.1417,
      "duration": 0.1078,
      "velocity": 92,
      "chip": "ym2612"
    },
    {
      "channel": 2,
      "note": 71,
      "start": 38.2707,
      "duration": 0.1085,
      "velocity": 92,
      "chip": "ym2612"
    },
    {
      "channel": 4,
      "note": 68,
      "start": 38.2717,
      "duration": 0.1081,
      "velocity": 92,
      "chip": "ym2612"
    },
    {
      "channel": 2,
      "note": 73,
      "start": 38.4008,
      "duration": 0.1082,
      "velocity": 92,
      "chip": "ym2612"
    },
    {
      "channel": 4,
      "note": 69,
      "start": 38.4017,
      "duration": 0.1079,
      "velocity": 92,
      "chip": "ym2612"
    },
    {
      "channel": 0,
      "note": 83,
      "start": 38.5303,
      "duration": 0.1081,
      "velocity": 96,
      "chip": "ym2612"
    },
    {
      "channel": 2,
      "note": 74,
      "start": 38.5311,
      "duration": 0.1082,
      "velocity": 92,
      "chip": "ym2612"
    },
    {
      "channel": 3,
      "note": 64,
      "start": 38.5317,
      "duration": 0.2379,
      "velocity": 93,
      "chip": "ym2612"
    },
    {
      "channel": 4,
      "note": 71,
      "start": 38.5324,
      "duration": 0.1074,
      "velocity": 92,
      "chip": "ym2612"
    },
    {
      "channel": 1,
      "note": 83,
      "start": 38.6389,
      "duration": 0.1081,
      "velocity": 96,
      "chip": "ym2612"
    },
    {
      "channel": 0,
      "note": 85,
      "start": 38.6603,
      "duration": 0.1082,
      "velocity": 96,
      "chip": "ym2612"
    },
    {
      "channel": 4,
      "note": 73,
      "start": 38.6618,
      "duration": 0.1081,
      "velocity": 92,
      "chip": "ym2612"
    },
    {
      "channel": 1,
      "note": 85,
      "start": 38.769,
      "duration": 0.1081,
      "velocity": 96,
      "chip": "ym2612"
    },
    {
      "channel": 0,
      "note": 86,
      "start": 38.7904,
      "duration": 0.3464,
      "velocity": 96,
      "chip": "ym2612"
    },
    {
      "channel": 2,
      "note": 74,
      "start": 38.7912,
      "duration": 0.1081,
      "velocity": 92,
      "chip": "ym2612"
    },
    {
      "channel": 3,
      "note": 64,
      "start": 38.7918,
      "duration": 0.2375,
      "velocity": 93,
      "chip": "ym2612"
    },
    {
      "channel": 1,
      "note": 86,
      "start": 38.8989,
      "duration": 0.3465,
      "velocity": 96,
      "chip": "ym2612"
    },
    {
      "channel": 2,
      "note": 76,
      "start": 38.9208,
      "duration": 0.1081,
      "velocity": 92,
      "chip": "ym2612"
    },
    {
      "channel": 4,
      "note": 74,
      "start": 38.9217,
      "duration": 0.1079,
      "velocity": 92,
      "chip": "ym2612"
    },
    {
      "channel": 2,
      "note": 78,
      "start": 39.0508,
      "duration": 0.1084,
      "velocity": 92,
      "chip": "ym2612"
    },
    {
      "channel": 3,
      "note": 59,
      "start": 39.0517,
      "duration": 0.888,
      "velocity": 93,
      "chip": "ym2612"
    },
    {
      "channel": 4,
      "note": 74,
      "start": 39.0524,
      "duration": 0.1074,
      "velocity": 92,
      "chip": "ym2612"
    },
    {
      "channel": 2,
      "note": 76,
      "start": 39.1809,
      "duration": 0.1081,
      "velocity": 92,
      "chip": "ym2612"
    },
    {
      "channel": 4,
      "note": 76,
      "start": 39.1817,
      "duration": 0.1079,
      "velocity": 92,
      "chip": "ym2612"
    },
    {
      "channel": 0,
      "note": 83,
      "start": 39.3104,
      "duration": 0.1081,
      "velocity": 96,
      "chip": "ym2612"
    },
    {
      "channel": 2,
      "note": 74,
      "start": 39.3112,
      "duration": 0.1081,
      "velocity": 92,
      "chip": "ym2612"
    },
    {
      "channel": 4,
      "note": 78,
      "start": 39.3121,
      "duration": 0.1078,
      "velocity": 92,
      "chip": "ym2612"
    },
    {
      "channel": 1,
      "note": 83,
      "start": 39.419,
      "duration": 0.1081,
      "velocity": 96,
      "chip": "ym2612"
    },
    {
      "channel": 0,
      "note": 85,
      "start": 39.4404,
      "duration": 0.1082,
      "velocity": 96,
      "chip": "ym2612"
    },
    {
      "channel": 2,
      "note": 73,
      "start": 39.4413,
      "duration": 0.1081,
      "velocity": 92,
      "chip": "ym2612"
    },
    {
      "channel": 4,
      "note": 76,
      "start": 39.4422,
      "duration": 0.1078,
      "velocity": 92,
      "chip": "ym2612"
    },
    {
      "channel": 1,
      "note": 85,
      "start": 39.549,
      "duration": 0.1081,
      "velocity": 96,
      "chip": "ym2612"
    },
    {
      "channel": 0,
      "note": 86,
      "start": 39.5704,
      "duration": 0.1081,
      "velocity": 96,
      "chip": "ym2612"
    },
    {
      "channel": 2,
      "note": 71,
      "start": 39.5712,
      "duration": 0.1082,
      "velocity": 92,
      "chip": "ym2612"
    },
    {
      "channel": 4,
      "note": 74,
      "start": 39.5723,
      "duration": 0.1078,
      "velocity": 92,
      "chip": "ym2612"
    },
    {
      "channel": 1,
      "note": 86,
      "start": 39.679,
      "duration": 0.1081,
      "velocity": 96,
      "chip": "ym2612"
    },
    {
      "channel": 0,
      "note": 88,
      "start": 39.7005,
      "duration": 0.1081,
      "velocity": 96,
      "chip": "ym2612"
    },
    {
      "channel": 2,
      "note": 69,
      "start": 39.7013,
      "duration": 0.1081,
      "velocity": 92,
      "chip": "ym2612"
    },
    {
      "channel": 4,
      "note": 73,
      "start": 39.7022,
      "duration": 0.1078,
      "velocity": 92,
      "chip": "ym2612"
    },
    {
      "channel": 1,
      "note": 88,
      "start": 39.809,
      "duration": 0.1082,
      "velocity": 96,
      "chip": "ym2612"
    },
    {
      "channel": 0,
      "note": 90,
      "start": 39.8305,
      "duration": 0.1081,
      "velocity": 96,
      "chip": "ym2612"
    },
    {
      "channel": 2,
      "note": 68,
      "start": 39.8312,
      "duration": 0.1082,
      "velocity": 92,
      "chip": "ym2612"
    },
    {
      "channel": 4,
      "note": 71,
      "start": 39.8322,
      "duration": 0.1079,
      "velocity": 92,
      "chip": "ym2612"
    },
    {
      "channel": 1,
      "note": 90,
      "start": 39.9391,
      "duration": 0.1081,
      "velocity": 96,
      "chip": "ym2612"
    },
    {
      "channel": 0,
      "note": 88,
      "start": 39.9604,
      "duration": 0.1081,
      "velocity": 96,
      "chip": "ym2612"
    },
    {
      "channel": 4,
      "note": 69,
      "start": 39.9621,
      "duration": 0.1079,
      "velocity": 92,
      "chip": "ym2612"
    },
    {
      "channel": 1,
      "note": 88,
      "start": 40.0691,
      "duration": 0.1081,
      "velocity": 96,
      "chip": "ym2612"
    },
    {
      "channel": 0,
      "note": 86,
      "start": 40.0905,
      "duration": 0.1081,
      "velocity": 96,
      "chip": "ym2612"
    },
    {
      "channel": 1,
      "note": 86,
      "start": 40.1991,
      "duration": 0.1081,
      "velocity": 96,
      "chip": "ym2612"
    },
    {
      "channel": 0,
      "note": 85,
      "start": 40.2205,
      "duration": 0.1081,
      "velocity": 96,
      "chip": "ym2612"
    },
    {
      "channel": 1,
      "note": 85,
      "start": 40.3291,
      "duration": 0.1081,
      "velocity": 96,
      "chip": "ym2612"
    },
    {
      "channel": 0,
      "note": 83,
      "start": 40.3505,
      "duration": 0.1081,
      "velocity": 96,
      "chip": "ym2612"
    },
    {
      "channel": 1,
      "note": 83,
      "start": 40.4591,
      "duration": 0.1081,
      "velocity": 96,
      "chip": "ym2612"
    },
    {
      "channel": 0,
      "note": 81,
      "start": 40.4805,
      "duration": 0.1081,
      "velocity": 96,
      "chip": "ym2612"
    },
    {
      "channel": 1,
      "note": 81,
      "start": 40.5891,
      "duration": 0.1081,
      "velocity": 96,
      "chip": "ym2612"
    },
    {
      "channel": 0,
      "note": 80,
      "start": 40.6105,
      "duration": 0.1082,
      "velocity": 96,
      "chip": "ym2612"
    },
    {
      "channel": 1,
      "note": 80,
      "start": 40.7191,
      "duration": 0.1081,
      "velocity": 96,
      "chip": "ym2612"
    },
    {
      "channel": 0,
      "note": 78,
      "start": 40.7405,
      "duration": 0.1081,
      "velocity": 96,
      "chip": "ym2612"
    },
    {
      "channel": 1,
      "note": 78,
      "start": 40.8491,
      "duration": 0.1081,
      "velocity": 96,
      "chip": "ym2612"
    },
    {
      "channel": 0,
      "note": 76,
      "start": 40.8705,
      "duration": 0.1081,
      "velocity": 96,
      "chip": "ym2612"
    },
    {
      "channel": 1,
      "note": 76,
      "start": 40.9791,
      "duration": 0.1081,
      "velocity": 96,
      "chip": "ym2612"
    },
    {
      "channel": 0,
      "note": 74,
      "start": 41.0005,
      "duration": 0.1081,
      "velocity": 96,
      "chip": "ym2612"
    },
    {
      "channel": 1,
      "note": 74,
      "start": 41.1092,
      "duration": 0.1081,
      "velocity": 96,
      "chip": "ym2612"
    },
    {
      "channel": 0,
      "note": 73,
      "start": 41.1306,
      "duration": 0.1082,
      "velocity": 96,
      "chip": "ym2612"
    },
    {
      "channel": 1,
      "note": 73,
      "start": 41.2392,
      "duration": 0.1081,
      "velocity": 96,
      "chip": "ym2612"
    },
    {
      "channel": 0,
      "note": 71,
      "start": 41.2606,
      "duration": 0.1082,
      "velocity": 96,
      "chip": "ym2612"
    },
    {
      "channel": 1,
      "note": 71,
      "start": 41.3692,
      "duration": 0.1081,
      "velocity": 96,
      "chip": "ym2612"
    },
    {
      "channel": 0,
      "note": 70,
      "start": 41.3906,
      "duration": 0.1081,
      "velocity": 96,
      "chip": "ym2612"
    },
    {
      "channel": 2,
      "note": 66,
      "start": 41.3914,
      "duration": 0.1082,
      "velocity": 92,
      "chip": "ym2612"
    },
    {
      "channel": 3,
      "note": 52,
      "start": 41.392,
      "duration": 0.7577,
      "velocity": 93,
      "chip": "ym2612"
    },
    {
      "channel": 1,
      "note": 70,
      "start": 41.4992,
      "duration": 0.1081,
      "velocity": 96,
      "chip": "ym2612"
    },
    {
      "channel": 2,
      "note": 64,
      "start": 41.5212,
      "duration": 0.1081,
      "velocity": 92,
      "chip": "ym2612"
    },
    {
      "channel": 4,
      "note": 68,
      "start": 41.5221,
      "duration": 0.1078,
      "velocity": 92,
      "chip": "ym2612"
    },
    {
      "channel": 2,
      "note": 63,
      "start": 41.6512,
      "duration": 0.1081,
      "velocity": 92,
      "chip": "ym2612"
    },
    {
      "channel": 4,
      "note": 66,
      "start": 41.6521,
      "duration": 0.1078,
      "velocity": 92,
      "chip": "ym2612"
    },
    {
      "channel": 2,
      "note": 61,
      "start": 41.781,
      "duration": 0.1082,
      "velocity": 92,
      "chip": "ym2612"
    },
    {
      "channel": 4,
      "note": 64,
      "start": 41.782,
      "duration": 0.1079,
      "velocity": 92,
      "chip": "ym2612"
    },
    {
      "channel": 2,
      "note": 59,
      "start": 41.9111,
      "duration": 0.1082,
      "velocity": 92,
      "chip": "ym2612"
    },
    {
      "channel": 4,
      "note": 63,
      "start": 41.9121,
      "duration": 0.1079,
      "velocity": 92,
      "chip": "ym2612"
    },
    {
      "channel": 2,
      "note": 58,
      "start": 42.0412,
      "duration": 0.1082,
      "velocity": 92,
      "chip": "ym2612"
    },
    {
      "channel": 4,
      "note": 61,
      "start": 42.0421,
      "duration": 0.108,
      "velocity": 92,
      "chip": "ym2612"
    },
    {
      "channel": 2,
      "note": 61,
      "start": 42.1712,
      "duration": 0.1081,
      "velocity": 92,
      "chip": "ym2612"
    },
    {
      "channel": 3,
      "note": 54,
      "start": 42.1718,
      "duration": 0.4979,
      "velocity": 93,
      "chip": "ym2612"
    },
    {
      "channel": 4,
      "note": 59,
      "start": 42.1725,
      "duration": 0.1074,
      "velocity": 92,
      "chip": "ym2612"
    },
    {
      "channel": 4,
      "note": 58,
      "start": 42.302,
      "duration": 0.1079,
      "velocity": 92,
      "chip": "ym2612"
    },
    {
      "channel": 3,
      "note": 54,
      "start": 42.6915,
      "duration": 0.2382,
      "velocity": 93,
      "chip": "ym2612"
    },
    {
      "channel": 3,
      "note": 61,
      "start": 42.9517,
      "duration": 0.238,
      "velocity": 93,
      "chip": "ym2612"
    },
    {
      "channel": 3,
      "note": 66,
      "start": 43.2117,
      "duration": 0.2381,
      "velocity": 93,
      "chip": "ym2612"
    },
    {
      "channel": 3,
      "note": 61,
      "start": 43.4717,
      "duration": 0.2382,
      "velocity": 93,
      "chip": "ym2612"
    },
    {
      "channel": 0,
      "note": 90,
      "start": 43.733,
      "duration": 0.0843,
      "velocity": 83,
      "chip": "ym2612"
    },
    {
      "channel": 3,
      "note": 54,
      "start": 43.7368,
      "duration": 0.233,
      "velocity": 93,
      "chip": "ym2612"
    },
    {
      "channel": 0,
      "note": 92,
      "start": 43.8391,
      "duration": 0.0648,
      "velocity": 83,
      "chip": "ym2612"
    },
    {
      "channel": 1,
      "note": 90,
      "start": 43.8419,
      "duration": 0.0844,
      "velocity": 83,
      "chip": "ym2612"
    },
    {
      "channel": 0,
      "note": 90,
      "start": 43.9258,
      "duration": 0.0431,
      "velocity": 83,
      "chip": "ym2612"
    },
    {
      "channel": 1,
      "note": 92,
      "start": 43.9477,
      "duration": 0.0648,
      "velocity": 83,
      "chip": "ym2612"
    },
    {
      "channel": 0,
      "note": 92,
      "start": 43.9908,
      "duration": 0.0431,
      "velocity": 83,
      "chip": "ym2612"
    },
    {
      "channel": 2,
      "note": 71,
      "start": 43.9916,
      "duration": 0.7579,
      "velocity": 93,
      "chip": "ym2612"
    },
    {
      "channel": 3,
      "note": 59,
      "start": 43.9922,
      "duration": 0.2378,
      "velocity": 93,
      "chip": "ym2612"
    },
    {
      "channel": 1,
      "note": 90,
      "start": 44.0345,
      "duration": 0.043,
      "velocity": 83,
      "chip": "ym2612"
    },
    {
      "channel": 0,
      "note": 90,
      "start": 44.0559,
      "duration": 0.0431,
      "velocity": 83,
      "chip": "ym2612"
    },
    {
      "channel": 1,
      "note": 92,
      "start": 44.0994,
      "duration": 0.0431,
      "velocity": 83,
      "chip": "ym2612"
    },
    {
      "channel": 0,
      "note": 92,
      "start": 44.1209,
      "duration": 0.0431,
      "velocity": 83,
      "chip": "ym2612"
    },
    {
      "channel": 1,
      "note": 90,
      "start": 44.1644,
      "duration": 0.0431,
      "velocity": 83,
      "chip": "ym2612"
    },
    {
      "channel": 0,
      "note": 90,
      "start": 44.1858,
      "duration": 0.0432,
      "velocity": 83,
      "chip": "ym2612"
    },
    {
      "channel": 1,
      "note": 92,
      "start": 44.2295,
      "duration": 0.0431,
      "velocity": 83,
      "chip": "ym2612"
    },
    {
      "channel": 0,
      "note": 89,
      "start": 44.2509,
      "duration": 0.0648,
      "velocity": 83,
      "chip": "ym2612"
    },
    {
      "channel": 3,
      "note": 63,
      "start": 44.252,
      "duration": 0.2378,
      "velocity": 93,
      "chip": "ym2612"
    },
    {
      "channel": 1,
      "note": 90,
      "start": 44.2944,
      "duration": 0.0433,
      "velocity": 83,
      "chip": "ym2612"
    },
    {
      "channel": 1,
      "note": 89,
      "start": 44.3594,
      "duration": 0.0648,
      "velocity": 83,
      "chip": "ym2612"
    },
    {
      "channel": 0,
      "note": 90,
      "start": 44.5111,
      "duration": 0.0863,
      "velocity": 83,
      "chip": "ym2612"
    },
    {
      "channel": 3,
      "note": 54,
      "start": 44.5123,
      "duration": 0.2375,
      "velocity": 93,
      "chip": "ym2612"
    },
    {
      "channel": 0,
      "note": 92,
      "start": 44.6192,
      "duration": 0.0648,
      "velocity": 83,
      "chip": "ym2612"
    },
    {
      "channel": 1,
      "note": 90,
      "start": 44.6199,
      "duration": 0.0863,
      "velocity": 83,
      "chip": "ym2612"
    },
    {
      "channel": 0,
      "note": 90,
      "start": 44.7059,
      "duration": 0.0431,
      "velocity": 83,
      "chip": "ym2612"
    },
    {
      "channel": 1,
      "note": 92,
      "start": 44.7278,
      "duration": 0.0648,
      "velocity": 83,
      "chip": "ym2612"
    },
    {
      "channel": 0,
      "note": 92,
      "start": 44.7709,
      "duration": 0.0431,
      "velocity": 83,
      "chip": "ym2612"
    },
    {
      "channel": 2,
      "note": 71,
      "start": 44.7717,
      "duration": 0.4979,
      "velocity": 93,
      "chip": "ym2612"
    },
    {
      "channel": 3,
      "note": 59,
      "start": 44.7723,
      "duration": 0.2378,
      "velocity": 93,
      "chip": "ym2612"
    },
    {
      "channel": 1,
      "note": 90,
      "start": 44.8145,
      "duration": 0.0431,
      "velocity": 83,
      "chip": "ym2612"
    },
    {
      "channel": 0,
      "note": 90,
      "start": 44.8359,
      "duration": 0.0431,
      "velocity": 83,
      "chip": "ym2612"
    },
    {
      "channel": 1,
      "note": 92,
      "start": 44.8795,
      "duration": 0.0431,
      "velocity": 83,
      "chip": "ym2612"
    },
    {
      "channel": 0,
      "note": 92,
      "start": 44.901,
      "duration": 0.0431,
      "velocity": 83,
      "chip": "ym2612"
    },
    {
      "channel": 1,
      "note": 90,
      "start": 44.9445,
      "duration": 0.0432,
      "velocity": 83,
      "chip": "ym2612"
    },
    {
      "channel": 0,
      "note": 90,
      "start": 44.9659,
      "duration": 0.0431,
      "velocity": 83,
      "chip": "ym2612"
    },
    {
      "channel": 1,
      "note": 92,
      "start": 45.0095,
      "duration": 0.0431,
      "velocity": 83,
      "chip": "ym2612"
    },
    {
      "channel": 0,
      "note": 89,
      "start": 45.0309,
      "duration": 0.0648,
      "velocity": 83,
      "chip": "ym2612"
    },
    {
      "channel": 3,
      "note": 63,
      "start": 45.032,
      "duration": 0.238,
      "velocity": 93,
      "chip": "ym2612"
    },
    {
      "channel": 1,
      "note": 90,
      "start": 45.0745,
      "duration": 0.0433,
      "velocity": 83,
      "chip": "ym2612"
    },
    {
      "channel": 1,
      "note": 89,
      "start": 45.1395,
      "duration": 0.0648,
      "velocity": 83,
      "chip": "ym2612"
    },
    {
      "channel": 0,
      "note": 90,
      "start": 45.2911,
      "duration": 0.0863,
      "velocity": 83,
      "chip": "ym2612"
    },
    {
      "channel": 3,
      "note": 54,
      "start": 45.2926,
      "duration": 0.2373,
      "velocity": 93,
      "chip": "ym2612"
    },
    {
      "channel": 0,
      "note": 92,
      "start": 45.3993,
      "duration": 0.0648,
      "velocity": 83,
      "chip": "ym2612"
    },
    {
      "channel": 1,
      "note": 90,
      "start": 45.3999,
      "duration": 0.0864,
      "velocity": 83,
      "chip": "ym2612"
    },
    {
      "channel": 0,
      "note": 90,
      "start": 45.486,
      "duration": 0.0431,
      "velocity": 83,
      "chip": "ym2612"
    },
    {
      "channel": 1,
      "note": 92,
      "start": 45.5079,
      "duration": 0.0648,
      "velocity": 83,
      "chip": "ym2612"
    },
    {
      "channel": 0,
      "note": 92,
      "start": 45.551,
      "duration": 0.0431,
      "velocity": 83,
      "chip": "ym2612"
    },
    {
      "channel": 2,
      "note": 71,
      "start": 45.5518,
      "duration": 0.7579,
      "velocity": 93,
      "chip": "ym2612"
    },
    {
      "channel": 3,
      "note": 59,
      "start": 45.5524,
      "duration": 0.2378,
      "velocity": 93,
      "chip": "ym2612"
    },
    {
      "channel": 1,
      "note": 90,
      "start": 45.5946,
      "duration": 0.0431,
      "velocity": 83,
      "chip": "ym2612"
    },
    {
      "channel": 0,
      "note": 90,
      "start": 45.616,
      "duration": 0.0431,
      "velocity": 83,
      "chip": "ym2612"
    },
    {
      "channel": 1,
      "note": 92,
      "start": 45.6596,
      "duration": 0.0431,
      "velocity": 83,
      "chip": "ym2612"
    },
    {
      "channel": 0,
      "note": 89,
      "start": 45.681,
      "duration": 0.0431,
      "velocity": 83,
      "chip": "ym2612"
    },
    {
      "channel": 1,
      "note": 90,
      "start": 45.7246,
      "duration": 0.0431,
      "velocity": 83,
      "chip": "ym2612"
    },
    {
      "channel": 0,
      "note": 90,
      "start": 45.746,
      "duration": 0.0431,
      "velocity": 83,
      "chip": "ym2612"
    },
    {
      "channel": 1,
      "note": 89,
      "start": 45.7896,
      "duration": 0.0431,
      "velocity": 83,
      "chip": "ym2612"
    },
    {
      "channel": 0,
      "note": 95,
      "start": 45.811,
      "duration": 0.0648,
      "velocity": 83,
      "chip": "ym2612"
    },
    {
      "channel": 3,
      "note": 63,
      "start": 45.8121,
      "duration": 0.2379,
      "velocity": 93,
      "chip": "ym2612"
    },
    {
      "channel": 1,
      "note": 90,
      "start": 45.8546,
      "duration": 0.0433,
      "velocity": 83,
      "chip": "ym2612"
    },
    {
      "channel": 1,
      "note": 95,
      "start": 45.9196,
      "duration": 0.0649,
      "velocity": 83,
      "chip": "ym2612"
    },
    {
      "channel": 0,
      "note": 86,
      "start": 46.0711,
      "duration": 0.7582,
      "velocity": 83,
      "chip": "ym2612"
    },
    {
      "channel": 3,
      "note": 54,
      "start": 46.0725,
      "duration": 0.2375,
      "velocity": 93,
      "chip": "ym2612"
    },
    {
      "channel": 1,
      "note": 86,
      "start": 46.1798,
      "duration": 0.7581,
      "velocity": 83,
      "chip": "ym2612"
    },
    {
      "channel": 2,
      "note": 71,
      "start": 46.3316,
      "duration": 0.4983,
      "velocity": 93,
      "chip": "ym2612"
    },
    {
      "channel": 3,
      "note": 55,
      "start": 46.3322,
      "duration": 0.2378,
      "velocity": 93,
      "chip": "ym2612"
    },
    {
      "channel": 3,
      "note": 65,
      "start": 46.5919,
      "duration": 0.2382,
      "velocity": 93,
      "chip": "ym2612"
    },
    {
      "channel": 0,
      "note": 85,
      "start": 46.8513,
      "duration": 0.108,
      "velocity": 83,
      "chip": "ym2612"
    },
    {
      "channel": 2,
      "note": 83,
      "start": 46.8539,
      "duration": 0.2358,
      "velocity": 93,
      "chip": "ym2612"
    },
    {
      "channel": 3,
      "note": 55,
      "start": 46.8546,
      "duration": 0.2355,
      "velocity": 93,
      "chip": "ym2612"
    },
    {
      "channel": 1,
      "note": 85,
      "start": 46.9599,
      "duration": 0.108,
      "velocity": 83,
      "chip": "ym2612"
    },
    {
      "channel": 4,
      "note": 61,
      "start": 46.9849,
      "duration": 0.2358,
      "velocity": 93,
      "chip": "ym2612"
    },
    {
      "channel": 0,
      "note": 87,
      "start": 47.1111,
      "duration": 0.1081,
      "velocity": 83,
      "chip": "ym2612"
    },
    {
      "channel": 2,
      "note": 82,
      "start": 47.1119,
      "duration": 0.2378,
      "velocity": 93,
      "chip": "ym2612"
    },
    {
      "channel": 3,
      "note": 61,
      "start": 47.1125,
      "duration": 0.2375,
      "velocity": 93,
      "chip": "ym2612"
    },
    {
      "channel": 1,
      "note": 87,
      "start": 47.2197,
      "duration": 0.1081,
      "velocity": 83,
      "chip": "ym2612"
    },
    {
      "channel": 4,
      "note": 83,
      "start": 47.2422,
      "duration": 0.2384,
      "velocity": 93,
      "chip": "ym2612"
    },
    {
      "channel": 0,
      "note": 89,
      "start": 47.3711,
      "duration": 0.1082,
      "velocity": 83,
      "chip": "ym2612"
    },
    {
      "channel": 2,
      "note": 80,
      "start": 47.3719,
      "duration": 0.2378,
      "velocity": 93,
      "chip": "ym2612"
    },
    {
      "channel": 3,
      "note": 68,
      "start": 47.3725,
      "duration": 0.2375,
      "velocity": 93,
      "chip": "ym2612"
    },
    {
      "channel": 1,
      "note": 89,
      "start": 47.4798,
      "duration": 0.1081,
      "velocity": 83,
      "chip": "ym2612"
    },
    {
      "channel": 4,
      "note": 82,
      "start": 47.5024,
      "duration": 0.2383,
      "velocity": 93,
      "chip": "ym2612"
    },
    {
      "channel": 0,
      "note": 90,
      "start": 47.6312,
      "duration": 0.1081,
      "velocity": 83,
      "chip": "ym2612"
    },
    {
      "channel": 2,
      "note": 78,
      "start": 47.6319,
      "duration": 0.2379,
      "velocity": 93,
      "chip": "ym2612"
    },
    {
      "channel": 3,
      "note": 61,
      "start": 47.6326,
      "duration": 0.2376,
      "velocity": 93,
      "chip": "ym2612"
    },
    {
      "channel": 1,
      "note": 90,
      "start": 47.7398,
      "duration": 0.1081,
      "velocity": 83,
      "chip": "ym2612"
    },
    {
      "channel": 4,
      "note": 80,
      "start": 47.7623,
      "duration": 0.2385,
      "velocity": 93,
      "chip": "ym2612"
    },
    {
      "channel": 0,
      "note": 92,
      "start": 47.8912,
      "duration": 0.1081,
      "velocity": 83,
      "chip": "ym2612"
    },
    {
      "channel": 2,
      "note": 76,
      "start": 47.892,
      "duration": 0.2378,
      "velocity": 93,
      "chip": "ym2612"
    },
    {
      "channel": 3,
      "note": 63,
      "start": 47.8926,
      "duration": 0.2375,
      "velocity": 93,
      "chip": "ym2612"
    },
    {
      "channel": 1,
      "note": 92,
      "start": 47.9998,
      "duration": 0.1081,
      "velocity": 83,
      "chip": "ym2612"
    },
    {
      "channel": 4,
      "note": 78,
      "start": 48.0223,
      "duration": 0.2385,
      "velocity": 93,
      "chip": "ym2612"
    },
    {
      "channel": 0,
      "note": 94,
      "start": 48.1513,
      "duration": 0.1081,
      "velocity": 83,
      "chip": "ym2612"
    },
    {
      "channel": 2,
      "note": 75,
      "start": 48.152,
      "duration": 0.2378,
      "velocity": 93,
      "chip": "ym2612"
    },
    {
      "channel": 3,
      "note": 70,
      "start": 48.1527,
      "duration": 0.2375,
      "velocity": 93,
      "chip": "ym2612"
    },
    {
      "channel": 1,
      "note": 94,
      "start": 48.2599,
      "duration": 0.1081,
      "velocity": 83,
      "chip": "ym2612"
    },
    {
      "channel": 4,
      "note": 76,
      "start": 48.2823,
      "duration": 0.2385,
      "velocity": 93,
      "chip": "ym2612"
    },
    {
      "channel": 0,
      "note": 95,
      "start": 48.4113,
      "duration": 0.1081,
      "velocity": 83,
      "chip": "ym2612"
    },
    {
      "channel": 2,
      "note": 74,
      "start": 48.412,
      "duration": 0.2378,
      "velocity": 93,
      "chip": "ym2612"
    },
    {
      "channel": 3,
      "note": 63,
      "start": 48.4127,
      "duration": 0.2375,
      "velocity": 93,
      "chip": "ym2612"
    },
    {
      "channel": 1,
      "note": 95,
      "start": 48.5198,
      "duration": 0.1081,
      "velocity": 83,
      "chip": "ym2612"
    },
    {
      "channel": 4,
      "note": 75,
      "start": 48.5423,
      "duration": 0.2385,
      "velocity": 93,
      "chip": "ym2612"
    },
    {
      "channel": 0,
      "note": 97,
      "start": 48.6713,
      "duration": 0.1081,
      "velocity": 83,
      "chip": "ym2612"
    },
    {
      "channel": 2,
      "note": 73,
      "start": 48.6721,
      "duration": 0.2378,
      "velocity": 93,
      "chip": "ym2612"
    },
    {
      "channel": 3,
      "note": 56,
      "start": 48.6727,
      "duration": 0.2375,
      "velocity": 93,
      "chip": "ym2612"
    },
    {
      "channel": 1,
      "note": 97,
      "start": 48.7799,
      "duration": 0.1081,
      "velocity": 83,
      "chip": "ym2612"
    },
    {
      "channel": 4,
      "note": 74,
      "start": 48.8025,
      "duration": 0.2384,
      "velocity": 93,
      "chip": "ym2612"
    },
    {
      "channel": 0,
      "note": 100,
      "start": 48.9313,
      "duration": 0.1081,
      "velocity": 83,
      "chip": "ym2612"
    },
    {
      "channel": 2,
      "note": 71,
      "start": 48.9321,
      "duration": 0.2378,
      "velocity": 93,
      "chip": "ym2612"
    },
    {
      "channel": 3,
      "note": 66,
      "start": 48.9327,
      "duration": 0.2375,
      "velocity": 93,
      "chip": "ym2612"
    },
    {
      "channel": 1,
      "note": 100,
      "start": 49.0399,
      "duration": 0.1081,
      "velocity": 83,
      "chip": "ym2612"
    },
    {
      "channel": 4,
      "note": 73,
      "start": 49.0624,
      "duration": 0.2387,
      "velocity": 93,
      "chip": "ym2612"
    },
    {
      "channel": 0,
      "note": 90,
      "start": 49.1914,
      "duration": 0.0864,
      "velocity": 83,
      "chip": "ym2612"
    },
    {
      "channel": 2,
      "note": 70,
      "start": 49.1922,
      "duration": 0.238,
      "velocity": 93,
      "chip": "ym2612"
    },
    {
      "channel": 3,
      "note": 55,
      "start": 49.1928,
      "duration": 0.4975,
      "velocity": 93,
      "chip": "ym2612"
    },
    {
      "channel": 1,
      "note": 90,
      "start": 49.3001,
      "duration": 0.0863,
      "velocity": 83,
      "chip": "ym2612"
    },
    {
      "channel": 4,
      "note": 71,
      "start": 49.3224,
      "duration": 0.2382,
      "velocity": 93,
      "chip": "ym2612"
    },
    {
      "channel": 0,
      "note": 101,
      "start": 49.4296,
      "duration": 0.0216,
      "velocity": 83,
      "chip": "ym2612"
    },
    {
      "channel": 2,
      "note": 82,
      "start": 49.4519,
      "duration": 0.4982,
      "velocity": 93,
      "chip": "ym2612"
    },
    {
      "channel": 0,
      "note": 102,
      "start": 49.473,
      "duration": 0.0865,
      "velocity": 83,
      "chip": "ym2612"
    },
    {
      "channel": 1,
      "note": 101,
      "start": 49.5382,
      "duration": 0.0216,
      "velocity": 83,
      "chip": "ym2612"
    },
    {
      "channel": 1,
      "note": 102,
      "start": 49.5817,
      "duration": 0.0864,
      "velocity": 83,
      "chip": "ym2612"
    },
    {
      "channel": 4,
      "note": 70,
      "start": 49.5829,
      "duration": 0.391,
      "velocity": 93,
      "chip": "ym2612"
    },
    {
      "channel": 3,
      "note": 54,
      "start": 49.7122,
      "duration": 0.2382,
      "velocity": 93,
      "chip": "ym2612"
    },
    {
      "channel": 0,
      "note": 90,
      "start": 49.9717,
      "duration": 0.0022,
      "velocity": 83,
      "chip": "ym2612"
    }
  ]
}