{
  "track_name": "17 - Track 24",
  "duration_sec": 98.708,
  "sample_rate": 44100,
  "note_count": 1053,
  "unique_pitches": 41,
  "pitch_range": 56,
  "avg_note_duration": 0.3386,
  "reconstruction_stats": {
    "notes_reconstructed": 1053,
    "keyon_events": 1053,
    "keyoff_events": 1049,
    "orphan_keyons": 4,
    "unique_pitches": 41,
    "pitch_range": 56,
    "avg_duration_sec": 0.3386
  },
  "metadata": {
    "source": "S\\Star Trek DS9 - Crossroads of Time\\17 - Track 24.vgz"
  },
  "notes": [
    {
      "channel": 0,
      "note": 68,
      "start": 0.0,
      "duration": 0.9993,
      "velocity": 97,
      "chip": "ym2612"
    },
    {
      "channel": 1,
      "note": 60,
      "start": 0.0,
      "duration": 2.0279,
      "velocity": 97,
      "chip": "ym2612"
    },
    {
      "channel": 3,
      "note": 60,
      "start": 0.0,
      "duration": 1.0047,
      "velocity": 97,
      "chip": "ym2612"
    },
    {
      "channel": 0,
      "note": 67,
      "start": 1.0041,
      "duration": 1.0187,
      "velocity": 97,
      "chip": "ym2612"
    },
    {
      "channel": 3,
      "note": 60,
      "start": 1.0095,
      "duration": 1.0237,
      "velocity": 97,
      "chip": "ym2612"
    },
    {
      "channel": 0,
      "note": 65,
      "start": 2.0275,
      "duration": 2.0416,
      "velocity": 97,
      "chip": "ym2612"
    },
    {
      "channel": 1,
      "note": 65,
      "start": 2.0326,
      "duration": 2.0418,
      "velocity": 97,
      "chip": "ym2612"
    },
    {
      "channel": 3,
      "note": 60,
      "start": 2.0379,
      "duration": 2.0418,
      "velocity": 97,
      "chip": "ym2612"
    },
    {
      "channel": 0,
      "note": 68,
      "start": 4.074,
      "duration": 1.0184,
      "velocity": 97,
      "chip": "ym2612"
    },
    {
      "channel": 1,
      "note": 60,
      "start": 4.0791,
      "duration": 1.515,
      "velocity": 97,
      "chip": "ym2612"
    },
    {
      "channel": 3,
      "note": 60,
      "start": 4.0844,
      "duration": 1.0133,
      "velocity": 97,
      "chip": "ym2612"
    },
    {
      "channel": 0,
      "note": 70,
      "start": 5.0971,
      "duration": 1.0185,
      "velocity": 97,
      "chip": "ym2612"
    },
    {
      "channel": 3,
      "note": 61,
      "start": 5.1024,
      "duration": 1.0238,
      "velocity": 97,
      "chip": "ym2612"
    },
    {
      "channel": 0,
      "note": 65,
      "start": 6.1203,
      "duration": 2.0417,
      "velocity": 97,
      "chip": "ym2612"
    },
    {
      "channel": 1,
      "note": 65,
      "start": 6.1256,
      "duration": 2.0416,
      "velocity": 97,
      "chip": "ym2612"
    },
    {
      "channel": 3,
      "note": 60,
      "start": 6.1309,
      "duration": 2.0416,
      "velocity": 97,
      "chip": "ym2612"
    },
    {
      "channel": 0,
      "note": 68,
      "start": 8.1668,
      "duration": 1.0186,
      "velocity": 97,
      "chip": "ym2612"
    },
    {
      "channel": 1,
      "note": 60,
      "start": 8.1719,
      "duration": 2.0418,
      "velocity": 97,
      "chip": "ym2612"
    },
    {
      "channel": 3,
      "note": 56,
      "start": 8.1774,
      "duration": 1.0134,
      "velocity": 97,
      "chip": "ym2612"
    },
    {
      "channel": 0,
      "note": 70,
      "start": 9.1902,
      "duration": 1.0184,
      "velocity": 97,
      "chip": "ym2612"
    },
    {
      "channel": 3,
      "note": 53,
      "start": 9.1955,
      "duration": 1.0235,
      "velocity": 97,
      "chip": "ym2612"
    },
    {
      "channel": 0,
      "note": 67,
      "start": 10.2133,
      "duration": 1.5301,
      "velocity": 97,
      "chip": "ym2612"
    },
    {
      "channel": 1,
      "note": 60,
      "start": 10.2184,
      "duration": 4.0774,
      "velocity": 97,
      "chip": "ym2612"
    },
    {
      "channel": 3,
      "note": 55,
      "start": 10.2238,
      "duration": 1.5249,
      "velocity": 97,
      "chip": "ym2612"
    },
    {
      "channel": 0,
      "note": 63,
      "start": 11.7482,
      "duration": 0.5069,
      "velocity": 97,
      "chip": "ym2612"
    },
    {
      "channel": 3,
      "note": 55,
      "start": 11.7536,
      "duration": 0.507,
      "velocity": 97,
      "chip": "ym2612"
    },
    {
      "channel": 0,
      "note": 65,
      "start": 12.26,
      "duration": 2.6982,
      "velocity": 97,
      "chip": "ym2612"
    },
    {
      "channel": 3,
      "note": 53,
      "start": 12.2653,
      "duration": 2.7033,
      "velocity": 97,
      "chip": "ym2612"
    },
    {
      "channel": 1,
      "note": 65,
      "start": 14.2998,
      "duration": 0.6639,
      "velocity": 97,
      "chip": "ym2612"
    },
    {
      "channel": 0,
      "note": 41,
      "start": 14.9632,
      "duration": 0.1239,
      "velocity": 87,
      "chip": "ym2612"
    },
    {
      "channel": 1,
      "note": 53,
      "start": 14.9683,
      "duration": 0.124,
      "velocity": 90,
      "chip": "ym2612"
    },
    {
      "channel": 3,
      "note": 53,
      "start": 14.9726,
      "duration": 0.125,
      "velocity": 106,
      "chip": "ym2612"
    },
    {
      "channel": 4,
      "note": 65,
      "start": 14.977,
      "duration": 0.3593,
      "velocity": 110,
      "chip": "ym2612"
    },
    {
      "channel": 0,
      "note": 41,
      "start": 15.0919,
      "duration": 0.241,
      "velocity": 87,
      "chip": "ym2612"
    },
    {
      "channel": 1,
      "note": 41,
      "start": 15.097,
      "duration": 0.2428,
      "velocity": 90,
      "chip": "ym2612"
    },
    {
      "channel": 3,
      "note": 56,
      "start": 15.1023,
      "duration": 0.2465,
      "velocity": 106,
      "chip": "ym2612"
    },
    {
      "channel": 1,
      "note": 41,
      "start": 15.3438,
      "duration": 0.0904,
      "velocity": 90,
      "chip": "ym2612"
    },
    {
      "channel": 2,
      "note": 53,
      "start": 15.3484,
      "duration": 0.078,
      "velocity": 85,
      "chip": "ym2612"
    },
    {
      "channel": 3,
      "note": 60,
      "start": 15.3532,
      "duration": 0.0858,
      "velocity": 106,
      "chip": "ym2612"
    },
    {
      "channel": 0,
      "note": 41,
      "start": 15.4341,
      "duration": 0.2317,
      "velocity": 87,
      "chip": "ym2612"
    },
    {
      "channel": 1,
      "note": 53,
      "start": 15.4386,
      "duration": 0.233,
      "velocity": 90,
      "chip": "ym2612"
    },
    {
      "channel": 3,
      "note": 65,
      "start": 15.4434,
      "duration": 0.2326,
      "velocity": 106,
      "chip": "ym2612"
    },
    {
      "channel": 4,
      "note": 65,
      "start": 15.448,
      "duration": 0.22,
      "velocity": 110,
      "chip": "ym2612"
    },
    {
      "channel": 1,
      "note": 41,
      "start": 15.6756,
      "duration": 0.1299,
      "velocity": 90,
      "chip": "ym2612"
    },
    {
      "channel": 3,
      "note": 53,
      "start": 15.6799,
      "duration": 0.13,
      "velocity": 106,
      "chip": "ym2612"
    },
    {
      "channel": 0,
      "note": 41,
      "start": 15.8054,
      "duration": 0.1194,
      "velocity": 87,
      "chip": "ym2612"
    },
    {
      "channel": 1,
      "note": 41,
      "start": 15.8095,
      "duration": 0.1213,
      "velocity": 90,
      "chip": "ym2612"
    },
    {
      "channel": 3,
      "note": 56,
      "start": 15.8139,
      "duration": 0.1255,
      "velocity": 106,
      "chip": "ym2612"
    },
    {
      "channel": 4,
      "note": 65,
      "start": 15.8185,
      "duration": 0.125,
      "velocity": 110,
      "chip": "ym2612"
    },
    {
      "channel": 1,
      "note": 55,
      "start": 15.9349,
      "duration": 0.0869,
      "velocity": 90,
      "chip": "ym2612"
    },
    {
      "channel": 2,
      "note": 53,
      "start": 15.9391,
      "duration": 0.0791,
      "velocity": 85,
      "chip": "ym2612"
    },
    {
      "channel": 3,
      "note": 60,
      "start": 15.9434,
      "duration": 0.0832,
      "velocity": 106,
      "chip": "ym2612"
    },
    {
      "channel": 4,
      "note": 67,
      "start": 15.9478,
      "duration": 0.0831,
      "velocity": 110,
      "chip": "ym2612"
    },
    {
      "channel": 1,
      "note": 56,
      "start": 16.0263,
      "duration": 0.2391,
      "velocity": 90,
      "chip": "ym2612"
    },
    {
      "channel": 3,
      "note": 65,
      "start": 16.0306,
      "duration": 0.2396,
      "velocity": 106,
      "chip": "ym2612"
    },
    {
      "channel": 4,
      "note": 68,
      "start": 16.0353,
      "duration": 0.2394,
      "velocity": 110,
      "chip": "ym2612"
    },
    {
      "channel": 0,
      "note": 41,
      "start": 16.2651,
      "duration": 0.1283,
      "velocity": 87,
      "chip": "ym2612"
    },
    {
      "channel": 1,
      "note": 53,
      "start": 16.2698,
      "duration": 0.1288,
      "velocity": 90,
      "chip": "ym2612"
    },
    {
      "channel": 3,
      "note": 53,
      "start": 16.2745,
      "duration": 0.1296,
      "velocity": 106,
      "chip": "ym2612"
    },
    {
      "channel": 4,
      "note": 70,
      "start": 16.279,
      "duration": 0.3797,
      "velocity": 110,
      "chip": "ym2612"
    },
    {
      "channel": 0,
      "note": 41,
      "start": 16.3982,
      "duration": 0.2411,
      "velocity": 87,
      "chip": "ym2612"
    },
    {
      "channel": 1,
      "note": 41,
      "start": 16.4035,
      "duration": 0.2422,
      "velocity": 90,
      "chip": "ym2612"
    },
    {
      "channel": 3,
      "note": 56,
      "start": 16.4088,
      "duration": 0.2453,
      "velocity": 106,
      "chip": "ym2612"
    },
    {
      "channel": 1,
      "note": 41,
      "start": 16.6496,
      "duration": 0.0921,
      "velocity": 90,
      "chip": "ym2612"
    },
    {
      "channel": 2,
      "note": 53,
      "start": 16.6538,
      "duration": 0.0805,
      "velocity": 85,
      "chip": "ym2612"
    },
    {
      "channel": 3,
      "note": 60,
      "start": 16.6585,
      "duration": 0.0881,
      "velocity": 106,
      "chip": "ym2612"
    },
    {
      "channel": 4,
      "note": 72,
      "start": 16.6629,
      "duration": 0.0878,
      "velocity": 110,
      "chip": "ym2612"
    },
    {
      "channel": 0,
      "note": 41,
      "start": 16.7414,
      "duration": 0.1472,
      "velocity": 87,
      "chip": "ym2612"
    },
    {
      "channel": 1,
      "note": 53,
      "start": 16.7461,
      "duration": 0.1471,
      "velocity": 90,
      "chip": "ym2612"
    },
    {
      "channel": 3,
      "note": 65,
      "start": 16.7505,
      "duration": 0.1471,
      "velocity": 106,
      "chip": "ym2612"
    },
    {
      "channel": 4,
      "note": 65,
      "start": 16.7548,
      "duration": 0.2793,
      "velocity": 110,
      "chip": "ym2612"
    },
    {
      "channel": 1,
      "note": 60,
      "start": 16.8973,
      "duration": 0.1283,
      "velocity": 90,
      "chip": "ym2612"
    },
    {
      "channel": 3,
      "note": 53,
      "start": 16.9015,
      "duration": 0.1285,
      "velocity": 106,
      "chip": "ym2612"
    },
    {
      "channel": 0,
      "note": 41,
      "start": 17.0254,
      "duration": 0.119,
      "velocity": 87,
      "chip": "ym2612"
    },
    {
      "channel": 1,
      "note": 58,
      "start": 17.0296,
      "duration": 0.1211,
      "velocity": 90,
      "chip": "ym2612"
    },
    {
      "channel": 3,
      "note": 56,
      "start": 17.034,
      "duration": 0.1259,
      "velocity": 106,
      "chip": "ym2612"
    },
    {
      "channel": 4,
      "note": 65,
      "start": 17.0384,
      "duration": 0.1256,
      "velocity": 110,
      "chip": "ym2612"
    },
    {
      "channel": 1,
      "note": 56,
      "start": 17.1549,
      "duration": 0.0873,
      "velocity": 90,
      "chip": "ym2612"
    },
    {
      "channel": 2,
      "note": 53,
      "start": 17.1596,
      "duration": 0.087,
      "velocity": 85,
      "chip": "ym2612"
    },
    {
      "channel": 3,
      "note": 60,
      "start": 17.1638,
      "duration": 0.0874,
      "velocity": 106,
      "chip": "ym2612"
    },
    {
      "channel": 4,
      "note": 63,
      "start": 17.1679,
      "duration": 0.3288,
      "velocity": 110,
      "chip": "ym2612"
    },
    {
      "channel": 1,
      "note": 58,
      "start": 17.2463,
      "duration": 0.242,
      "velocity": 90,
      "chip": "ym2612"
    },
    {
      "channel": 2,
      "note": 53,
      "start": 17.2509,
      "duration": 0.2275,
      "velocity": 85,
      "chip": "ym2612"
    },
    {
      "channel": 3,
      "note": 65,
      "start": 17.2555,
      "duration": 0.2369,
      "velocity": 106,
      "chip": "ym2612"
    },
    {
      "channel": 0,
      "note": 41,
      "start": 17.4881,
      "duration": 0.1265,
      "velocity": 87,
      "chip": "ym2612"
    },
    {
      "channel": 1,
      "note": 53,
      "start": 17.4921,
      "duration": 0.1276,
      "velocity": 90,
      "chip": "ym2612"
    },
    {
      "channel": 3,
      "note": 53,
      "start": 17.4964,
      "duration": 0.1288,
      "velocity": 106,
      "chip": "ym2612"
    },
    {
      "channel": 4,
      "note": 65,
      "start": 17.5006,
      "duration": 0.3629,
      "velocity": 110,
      "chip": "ym2612"
    },
    {
      "channel": 0,
      "note": 41,
      "start": 17.6193,
      "duration": 0.2411,
      "velocity": 87,
      "chip": "ym2612"
    },
    {
      "channel": 1,
      "note": 41,
      "start": 17.6246,
      "duration": 0.2426,
      "velocity": 90,
      "chip": "ym2612"
    },
    {
      "channel": 3,
      "note": 56,
      "start": 17.6299,
      "duration": 0.2462,
      "velocity": 106,
      "chip": "ym2612"
    },
    {
      "channel": 1,
      "note": 41,
      "start": 17.8713,
      "duration": 0.0886,
      "velocity": 90,
      "chip": "ym2612"
    },
    {
      "channel": 2,
      "note": 53,
      "start": 17.8758,
      "duration": 0.0773,
      "velocity": 85,
      "chip": "ym2612"
    },
    {
      "channel": 3,
      "note": 60,
      "start": 17.8805,
      "duration": 0.0837,
      "velocity": 106,
      "chip": "ym2612"
    },
    {
      "channel": 0,
      "note": 41,
      "start": 17.9597,
      "duration": 0.2311,
      "velocity": 87,
      "chip": "ym2612"
    },
    {
      "channel": 1,
      "note": 53,
      "start": 17.9639,
      "duration": 0.2334,
      "velocity": 90,
      "chip": "ym2612"
    },
    {
      "channel": 3,
      "note": 65,
      "start": 17.9687,
      "duration": 0.2327,
      "velocity": 106,
      "chip": "ym2612"
    },
    {
      "channel": 4,
      "note": 65,
      "start": 17.9728,
      "duration": 0.2204,
      "velocity": 110,
      "chip": "ym2612"
    },
    {
      "channel": 1,
      "note": 41,
      "start": 18.2011,
      "duration": 0.1297,
      "velocity": 90,
      "chip": "ym2612"
    },
    {
      "channel": 3,
      "note": 53,
      "start": 18.2055,
      "duration": 0.1295,
      "velocity": 106,
      "chip": "ym2612"
    },
    {
      "channel": 0,
      "note": 41,
      "start": 18.3305,
      "duration": 0.1183,
      "velocity": 87,
      "chip": "ym2612"
    },
    {
      "channel": 1,
      "note": 41,
      "start": 18.3347,
      "duration": 0.1205,
      "velocity": 90,
      "chip": "ym2612"
    },
    {
      "channel": 3,
      "note": 56,
      "start": 18.3389,
      "duration": 0.1248,
      "velocity": 106,
      "chip": "ym2612"
    },
    {
      "channel": 4,
      "note": 65,
      "start": 18.3435,
      "duration": 0.1247,
      "velocity": 110,
      "chip": "ym2612"
    },
    {
      "channel": 1,
      "note": 55,
      "start": 18.4592,
      "duration": 0.0856,
      "velocity": 90,
      "chip": "ym2612"
    },
    {
      "channel": 2,
      "note": 53,
      "start": 18.4634,
      "duration": 0.078,
      "velocity": 85,
      "chip": "ym2612"
    },
    {
      "channel": 3,
      "note": 60,
      "start": 18.468,
      "duration": 0.0816,
      "velocity": 106,
      "chip": "ym2612"
    },
    {
      "channel": 4,
      "note": 67,
      "start": 18.472,
      "duration": 0.0819,
      "velocity": 110,
      "chip": "ym2612"
    },
    {
      "channel": 1,
      "note": 56,
      "start": 18.5492,
      "duration": 0.239,
      "velocity": 90,
      "chip": "ym2612"
    },
    {
      "channel": 3,
      "note": 65,
      "start": 18.5536,
      "duration": 0.2391,
      "velocity": 106,
      "chip": "ym2612"
    },
    {
      "channel": 4,
      "note": 68,
      "start": 18.5578,
      "duration": 0.2395,
      "velocity": 110,
      "chip": "ym2612"
    },
    {
      "channel": 0,
      "note": 41,
      "start": 18.7881,
      "duration": 0.1286,
      "velocity": 87,
      "chip": "ym2612"
    },
    {
      "channel": 1,
      "note": 53,
      "start": 18.7924,
      "duration": 0.1295,
      "velocity": 90,
      "chip": "ym2612"
    },
    {
      "channel": 3,
      "note": 53,
      "start": 18.797,
      "duration": 0.1301,
      "velocity": 106,
      "chip": "ym2612"
    },
    {
      "channel": 4,
      "note": 70,
      "start": 18.8018,
      "duration": 0.3804,
      "velocity": 110,
      "chip": "ym2612"
    },
    {
      "channel": 0,
      "note": 41,
      "start": 18.9214,
      "duration": 0.2412,
      "velocity": 87,
      "chip": "ym2612"
    },
    {
      "channel": 1,
      "note": 41,
      "start": 18.9266,
      "duration": 0.2423,
      "velocity": 90,
      "chip": "ym2612"
    },
    {
      "channel": 3,
      "note": 56,
      "start": 18.932,
      "duration": 0.2458,
      "velocity": 106,
      "chip": "ym2612"
    },
    {
      "channel": 1,
      "note": 55,
      "start": 19.1728,
      "duration": 0.0918,
      "velocity": 90,
      "chip": "ym2612"
    },
    {
      "channel": 2,
      "note": 53,
      "start": 19.1774,
      "duration": 0.0797,
      "velocity": 85,
      "chip": "ym2612"
    },
    {
      "channel": 3,
      "note": 60,
      "start": 19.1821,
      "duration": 0.0868,
      "velocity": 106,
      "chip": "ym2612"
    },
    {
      "channel": 4,
      "note": 72,
      "start": 19.1861,
      "duration": 0.087,
      "velocity": 110,
      "chip": "ym2612"
    },
    {
      "channel": 0,
      "note": 41,
      "start": 19.2644,
      "duration": 0.228,
      "velocity": 87,
      "chip": "ym2612"
    },
    {
      "channel": 1,
      "note": 41,
      "start": 19.2685,
      "duration": 0.2291,
      "velocity": 90,
      "chip": "ym2612"
    },
    {
      "channel": 3,
      "note": 65,
      "start": 19.2727,
      "duration": 0.2292,
      "velocity": 106,
      "chip": "ym2612"
    },
    {
      "channel": 4,
      "note": 65,
      "start": 19.2771,
      "duration": 0.3207,
      "velocity": 110,
      "chip": "ym2612"
    },
    {
      "channel": 1,
      "note": 56,
      "start": 19.5015,
      "duration": 0.0879,
      "velocity": 90,
      "chip": "ym2612"
    },
    {
      "channel": 3,
      "note": 53,
      "start": 19.5058,
      "duration": 0.0878,
      "velocity": 106,
      "chip": "ym2612"
    },
    {
      "channel": 0,
      "note": 41,
      "start": 19.5888,
      "duration": 0.1218,
      "velocity": 87,
      "chip": "ym2612"
    },
    {
      "channel": 1,
      "note": 41,
      "start": 19.5933,
      "duration": 0.1244,
      "velocity": 90,
      "chip": "ym2612"
    },
    {
      "channel": 3,
      "note": 56,
      "start": 19.5976,
      "duration": 0.1293,
      "velocity": 106,
      "chip": "ym2612"
    },
    {
      "channel": 4,
      "note": 65,
      "start": 19.6022,
      "duration": 0.1292,
      "velocity": 110,
      "chip": "ym2612"
    },
    {
      "channel": 1,
      "note": 58,
      "start": 19.722,
      "duration": 0.0904,
      "velocity": 90,
      "chip": "ym2612"
    },
    {
      "channel": 2,
      "note": 53,
      "start": 19.7261,
      "duration": 0.0907,
      "velocity": 85,
      "chip": "ym2612"
    },
    {
      "channel": 3,
      "note": 60,
      "start": 19.7312,
      "duration": 0.0903,
      "velocity": 106,
      "chip": "ym2612"
    },
    {
      "channel": 4,
      "note": 63,
      "start": 19.7353,
      "duration": 0.1823,
      "velocity": 110,
      "chip": "ym2612"
    },
    {
      "channel": 1,
      "note": 41,
      "start": 19.8163,
      "duration": 0.0928,
      "velocity": 90,
      "chip": "ym2612"
    },
    {
      "channel": 2,
      "note": 53,
      "start": 19.8212,
      "duration": 0.0786,
      "velocity": 85,
      "chip": "ym2612"
    },
    {
      "channel": 3,
      "note": 65,
      "start": 19.8253,
      "duration": 0.0881,
      "velocity": 106,
      "chip": "ym2612"
    },
    {
      "channel": 0,
      "note": 42,
      "start": 19.9088,
      "duration": 0.1265,
      "velocity": 87,
      "chip": "ym2612"
    },
    {
      "channel": 1,
      "note": 54,
      "start": 19.913,
      "duration": 0.1275,
      "velocity": 90,
      "chip": "ym2612"
    },
    {
      "channel": 3,
      "note": 54,
      "start": 19.9173,
      "duration": 0.1284,
      "velocity": 106,
      "chip": "ym2612"
    },
    {
      "channel": 4,
      "note": 66,
      "start": 19.9221,
      "duration": 0.1053,
      "velocity": 110,
      "chip": "ym2612"
    },
    {
      "channel": 0,
      "note": 42,
      "start": 20.04,
      "duration": 0.2412,
      "velocity": 87,
      "chip": "ym2612"
    },
    {
      "channel": 1,
      "note": 42,
      "start": 20.0451,
      "duration": 0.2418,
      "velocity": 90,
      "chip": "ym2612"
    },
    {
      "channel": 3,
      "note": 58,
      "start": 20.0504,
      "duration": 0.2451,
      "velocity": 106,
      "chip": "ym2612"
    },
    {
      "channel": 1,
      "note": 42,
      "start": 20.2908,
      "duration": 0.0898,
      "velocity": 90,
      "chip": "ym2612"
    },
    {
      "channel": 2,
      "note": 54,
      "start": 20.2953,
      "duration": 0.0779,
      "velocity": 85,
      "chip": "ym2612"
    },
    {
      "channel": 3,
      "note": 61,
      "start": 20.2995,
      "duration": 0.0853,
      "velocity": 106,
      "chip": "ym2612"
    },
    {
      "channel": 0,
      "note": 42,
      "start": 20.3805,
      "duration": 0.2308,
      "velocity": 87,
      "chip": "ym2612"
    },
    {
      "channel": 1,
      "note": 54,
      "start": 20.3845,
      "duration": 0.233,
      "velocity": 90,
      "chip": "ym2612"
    },
    {
      "channel": 3,
      "note": 66,
      "start": 20.3887,
      "duration": 0.2334,
      "velocity": 106,
      "chip": "ym2612"
    },
    {
      "channel": 4,
      "note": 66,
      "start": 20.393,
      "duration": 0.2208,
      "velocity": 110,
      "chip": "ym2612"
    },
    {
      "channel": 1,
      "note": 42,
      "start": 20.6213,
      "duration": 0.1314,
      "velocity": 90,
      "chip": "ym2612"
    },
    {
      "channel": 3,
      "note": 54,
      "start": 20.6259,
      "duration": 0.1313,
      "velocity": 106,
      "chip": "ym2612"
    },
    {
      "channel": 0,
      "note": 42,
      "start": 20.7525,
      "duration": 0.1191,
      "velocity": 87,
      "chip": "ym2612"
    },
    {
      "channel": 1,
      "note": 42,
      "start": 20.7569,
      "duration": 0.1212,
      "velocity": 90,
      "chip": "ym2612"
    },
    {
      "channel": 3,
      "note": 58,
      "start": 20.7615,
      "duration": 0.1252,
      "velocity": 106,
      "chip": "ym2612"
    },
    {
      "channel": 4,
      "note": 66,
      "start": 20.7661,
      "duration": 0.1253,
      "velocity": 110,
      "chip": "ym2612"
    },
    {
      "channel": 1,
      "note": 56,
      "start": 20.8822,
      "duration": 0.0878,
      "velocity": 90,
      "chip": "ym2612"
    },
    {
      "channel": 2,
      "note": 54,
      "start": 20.8863,
      "duration": 0.0802,
      "velocity": 85,
      "chip": "ym2612"
    },
    {
      "channel": 3,
      "note": 61,
      "start": 20.8911,
      "duration": 0.0837,
      "velocity": 106,
      "chip": "ym2612"
    },
    {
      "channel": 4,
      "note": 68,
      "start": 20.8954,
      "duration": 0.0837,
      "velocity": 110,
      "chip": "ym2612"
    },
    {
      "channel": 1,
      "note": 58,
      "start": 20.9745,
      "duration": 0.2397,
      "velocity": 90,
      "chip": "ym2612"
    },
    {
      "channel": 3,
      "note": 66,
      "start": 20.9787,
      "duration": 0.2403,
      "velocity": 106,
      "chip": "ym2612"
    },
    {
      "channel": 4,
      "note": 66,
      "start": 20.983,
      "duration": 0.2401,
      "velocity": 110,
      "chip": "ym2612"
    },
    {
      "channel": 0,
      "note": 42,
      "start": 21.214,
      "duration": 0.1267,
      "velocity": 87,
      "chip": "ym2612"
    },
    {
      "channel": 1,
      "note": 54,
      "start": 21.2187,
      "duration": 0.1273,
      "velocity": 90,
      "chip": "ym2612"
    },
    {
      "channel": 3,
      "note": 54,
      "start": 21.2228,
      "duration": 0.1285,
      "velocity": 106,
      "chip": "ym2612"
    },
    {
      "channel": 4,
      "note": 70,
      "start": 21.227,
      "duration": 0.3791,
      "velocity": 110,
      "chip": "ym2612"
    },
    {
      "channel": 0,
      "note": 42,
      "start": 21.3455,
      "duration": 0.241,
      "velocity": 87,
      "chip": "ym2612"
    },
    {
      "channel": 1,
      "note": 42,
      "start": 21.3507,
      "duration": 0.2424,
      "velocity": 90,
      "chip": "ym2612"
    },
    {
      "channel": 3,
      "note": 58,
      "start": 21.356,
      "duration": 0.2455,
      "velocity": 106,
      "chip": "ym2612"
    },
    {
      "channel": 1,
      "note": 42,
      "start": 21.597,
      "duration": 0.0924,
      "velocity": 90,
      "chip": "ym2612"
    },
    {
      "channel": 2,
      "note": 54,
      "start": 21.6011,
      "duration": 0.0808,
      "velocity": 85,
      "chip": "ym2612"
    },
    {
      "channel": 3,
      "note": 61,
      "start": 21.6059,
      "duration": 0.0883,
      "velocity": 106,
      "chip": "ym2612"
    },
    {
      "channel": 4,
      "note": 68,
      "start": 21.6104,
      "duration": 0.0879,
      "velocity": 110,
      "chip": "ym2612"
    },
    {
      "channel": 0,
      "note": 42,
      "start": 21.6891,
      "duration": 0.2288,
      "velocity": 87,
      "chip": "ym2612"
    },
    {
      "channel": 1,
      "note": 49,
      "start": 21.6934,
      "duration": 0.23,
      "velocity": 90,
      "chip": "ym2612"
    },
    {
      "channel": 3,
      "note": 66,
      "start": 21.6981,
      "duration": 0.2299,
      "velocity": 106,
      "chip": "ym2612"
    },
    {
      "channel": 4,
      "note": 66,
      "start": 21.7022,
      "duration": 0.3651,
      "velocity": 110,
      "chip": "ym2612"
    },
    {
      "channel": 1,
      "note": 42,
      "start": 21.9277,
      "duration": 0.1308,
      "velocity": 90,
      "chip": "ym2612"
    },
    {
      "channel": 3,
      "note": 54,
      "start": 21.9319,
      "duration": 0.1308,
      "velocity": 106,
      "chip": "ym2612"
    },
    {
      "channel": 0,
      "note": 42,
      "start": 22.0583,
      "duration": 0.1188,
      "velocity": 87,
      "chip": "ym2612"
    },
    {
      "channel": 1,
      "note": 42,
      "start": 22.0624,
      "duration": 0.121,
      "velocity": 90,
      "chip": "ym2612"
    },
    {
      "channel": 3,
      "note": 58,
      "start": 22.067,
      "duration": 0.1253,
      "velocity": 106,
      "chip": "ym2612"
    },
    {
      "channel": 4,
      "note": 66,
      "start": 22.0716,
      "duration": 0.1253,
      "velocity": 110,
      "chip": "ym2612"
    },
    {
      "channel": 1,
      "note": 51,
      "start": 22.1873,
      "duration": 0.0876,
      "velocity": 90,
      "chip": "ym2612"
    },
    {
      "channel": 2,
      "note": 54,
      "start": 22.192,
      "duration": 0.0876,
      "velocity": 85,
      "chip": "ym2612"
    },
    {
      "channel": 3,
      "note": 61,
      "start": 22.1967,
      "duration": 0.087,
      "velocity": 106,
      "chip": "ym2612"
    },
    {
      "channel": 4,
      "note": 66,
      "start": 22.2007,
      "duration": 0.0872,
      "velocity": 110,
      "chip": "ym2612"
    },
    {
      "channel": 1,
      "note": 42,
      "start": 22.2793,
      "duration": 0.2401,
      "velocity": 90,
      "chip": "ym2612"
    },
    {
      "channel": 2,
      "note": 54,
      "start": 22.2835,
      "duration": 0.2263,
      "velocity": 85,
      "chip": "ym2612"
    },
    {
      "channel": 3,
      "note": 66,
      "start": 22.2876,
      "duration": 0.2365,
      "velocity": 106,
      "chip": "ym2612"
    },
    {
      "channel": 4,
      "note": 68,
      "start": 22.2918,
      "duration": 0.2368,
      "velocity": 110,
      "chip": "ym2612"
    },
    {
      "channel": 0,
      "note": 41,
      "start": 22.5192,
      "duration": 0.1266,
      "velocity": 87,
      "chip": "ym2612"
    },
    {
      "channel": 1,
      "note": 53,
      "start": 22.5233,
      "duration": 0.1276,
      "velocity": 90,
      "chip": "ym2612"
    },
    {
      "channel": 3,
      "note": 53,
      "start": 22.5284,
      "duration": 0.128,
      "velocity": 106,
      "chip": "ym2612"
    },
    {
      "channel": 4,
      "note": 65,
      "start": 22.533,
      "duration": 0.7711,
      "velocity": 110,
      "chip": "ym2612"
    },
    {
      "channel": 0,
      "note": 41,
      "start": 22.6505,
      "duration": 0.2412,
      "velocity": 87,
      "chip": "ym2612"
    },
    {
      "channel": 1,
      "note": 41,
      "start": 22.6558,
      "duration": 0.242,
      "velocity": 90,
      "chip": "ym2612"
    },
    {
      "channel": 3,
      "note": 56,
      "start": 22.6611,
      "duration": 0.245,
      "velocity": 106,
      "chip": "ym2612"
    },
    {
      "channel": 1,
      "note": 41,
      "start": 22.9016,
      "duration": 0.0892,
      "velocity": 90,
      "chip": "ym2612"
    },
    {
      "channel": 2,
      "note": 53,
      "start": 22.9058,
      "duration": 0.0778,
      "velocity": 85,
      "chip": "ym2612"
    },
    {
      "channel": 3,
      "note": 60,
      "start": 22.9106,
      "duration": 0.0854,
      "velocity": 106,
      "chip": "ym2612"
    },
    {
      "channel": 0,
      "note": 41,
      "start": 22.9906,
      "duration": 0.1648,
      "velocity": 87,
      "chip": "ym2612"
    },
    {
      "channel": 1,
      "note": 53,
      "start": 22.9956,
      "duration": 0.1662,
      "velocity": 90,
      "chip": "ym2612"
    },
    {
      "channel": 3,
      "note": 65,
      "start": 22.9999,
      "duration": 0.1665,
      "velocity": 106,
      "chip": "ym2612"
    },
    {
      "channel": 1,
      "note": 41,
      "start": 23.1661,
      "duration": 0.1293,
      "velocity": 90,
      "chip": "ym2612"
    },
    {
      "channel": 3,
      "note": 53,
      "start": 23.1703,
      "duration": 0.1295,
      "velocity": 106,
      "chip": "ym2612"
    },
    {
      "channel": 0,
      "note": 41,
      "start": 23.2951,
      "duration": 0.1185,
      "velocity": 87,
      "chip": "ym2612"
    },
    {
      "channel": 1,
      "note": 41,
      "start": 23.2994,
      "duration": 0.1205,
      "velocity": 90,
      "chip": "ym2612"
    },
    {
      "channel": 3,
      "note": 56,
      "start": 23.3038,
      "duration": 0.1253,
      "velocity": 106,
      "chip": "ym2612"
    },
    {
      "channel": 4,
      "note": 65,
      "start": 23.3084,
      "duration": 0.1248,
      "velocity": 110,
      "chip": "ym2612"
    },
    {
      "channel": 1,
      "note": 55,
      "start": 23.4242,
      "duration": 0.087,
      "velocity": 90,
      "chip": "ym2612"
    },
    {
      "channel": 2,
      "note": 53,
      "start": 23.4288,
      "duration": 0.0788,
      "velocity": 85,
      "chip": "ym2612"
    },
    {
      "channel": 3,
      "note": 60,
      "start": 23.433,
      "duration": 0.0832,
      "velocity": 106,
      "chip": "ym2612"
    },
    {
      "channel": 4,
      "note": 63,
      "start": 23.4371,
      "duration": 0.0834,
      "velocity": 110,
      "chip": "ym2612"
    },
    {
      "channel": 1,
      "note": 56,
      "start": 23.5159,
      "duration": 0.2388,
      "velocity": 90,
      "chip": "ym2612"
    },
    {
      "channel": 3,
      "note": 65,
      "start": 23.5201,
      "duration": 0.239,
      "velocity": 106,
      "chip": "ym2612"
    },
    {
      "channel": 4,
      "note": 65,
      "start": 23.5243,
      "duration": 0.239,
      "velocity": 110,
      "chip": "ym2612"
    },
    {
      "channel": 0,
      "note": 41,
      "start": 23.7546,
      "duration": 0.1242,
      "velocity": 87,
      "chip": "ym2612"
    },
    {
      "channel": 1,
      "note": 53,
      "start": 23.7587,
      "duration": 0.1241,
      "velocity": 90,
      "chip": "ym2612"
    },
    {
      "channel": 3,
      "note": 53,
      "start": 23.7631,
      "duration": 0.1246,
      "velocity": 106,
      "chip": "ym2612"
    },
    {
      "channel": 4,
      "note": 60,
      "start": 23.7672,
      "duration": 0.5379,
      "velocity": 110,
      "chip": "ym2612"
    },
    {
      "channel": 0,
      "note": 41,
      "start": 23.8826,
      "duration": 0.1193,
      "velocity": 87,
      "chip": "ym2612"
    },
    {
      "channel": 1,
      "note": 41,
      "start": 23.8868,
      "duration": 0.1207,
      "velocity": 90,
      "chip": "ym2612"
    },
    {
      "channel": 3,
      "note": 56,
      "start": 23.8915,
      "duration": 0.1245,
      "velocity": 106,
      "chip": "ym2612"
    },
    {
      "channel": 1,
      "note": 55,
      "start": 24.0115,
      "duration": 0.089,
      "velocity": 90,
      "chip": "ym2612"
    },
    {
      "channel": 2,
      "note": 53,
      "start": 24.0157,
      "duration": 0.0768,
      "velocity": 85,
      "chip": "ym2612"
    },
    {
      "channel": 3,
      "note": 60,
      "start": 24.0202,
      "duration": 0.085,
      "velocity": 106,
      "chip": "ym2612"
    },
    {
      "channel": 0,
      "note": 41,
      "start": 24.1003,
      "duration": 0.1172,
      "velocity": 87,
      "chip": "ym2612"
    },
    {
      "channel": 1,
      "note": 41,
      "start": 24.1049,
      "duration": 0.1179,
      "velocity": 90,
      "chip": "ym2612"
    },
    {
      "channel": 3,
      "note": 65,
      "start": 24.1092,
      "duration": 0.1178,
      "velocity": 106,
      "chip": "ym2612"
    },
    {
      "channel": 1,
      "note": 56,
      "start": 24.2266,
      "duration": 0.0866,
      "velocity": 90,
      "chip": "ym2612"
    },
    {
      "channel": 3,
      "note": 53,
      "start": 24.231,
      "duration": 0.087,
      "velocity": 106,
      "chip": "ym2612"
    },
    {
      "channel": 0,
      "note": 41,
      "start": 24.313,
      "duration": 0.1188,
      "velocity": 87,
      "chip": "ym2612"
    },
    {
      "channel": 1,
      "note": 41,
      "start": 24.3176,
      "duration": 0.1198,
      "velocity": 90,
      "chip": "ym2612"
    },
    {
      "channel": 3,
      "note": 56,
      "start": 24.3223,
      "duration": 0.1239,
      "velocity": 106,
      "chip": "ym2612"
    },
    {
      "channel": 1,
      "note": 55,
      "start": 24.4412,
      "duration": 0.0867,
      "velocity": 90,
      "chip": "ym2612"
    },
    {
      "channel": 2,
      "note": 53,
      "start": 24.4458,
      "duration": 0.0862,
      "velocity": 85,
      "chip": "ym2612"
    },
    {
      "channel": 3,
      "note": 60,
      "start": 24.4504,
      "duration": 0.0861,
      "velocity": 106,
      "chip": "ym2612"
    },
    {
      "channel": 1,
      "note": 41,
      "start": 24.5318,
      "duration": 0.0928,
      "velocity": 90,
      "chip": "ym2612"
    },
    {
      "channel": 2,
      "note": 53,
      "start": 24.5363,
      "duration": 0.0776,
      "velocity": 85,
      "chip": "ym2612"
    },
    {
      "channel": 3,
      "note": 65,
      "start": 24.5404,
      "duration": 0.0885,
      "velocity": 106,
      "chip": "ym2612"
    },
    {
      "channel": 0,
      "note": 41,
      "start": 24.6243,
      "duration": 0.1273,
      "velocity": 87,
      "chip": "ym2612"
    },
    {
      "channel": 1,
      "note": 53,
      "start": 24.6285,
      "duration": 0.1283,
      "velocity": 90,
      "chip": "ym2612"
    },
    {
      "channel": 3,
      "note": 53,
      "start": 24.6332,
      "duration": 0.1288,
      "velocity": 106,
      "chip": "ym2612"
    },
    {
      "channel": 4,
      "note": 65,
      "start": 24.6383,
      "duration": 0.3623,
      "velocity": 110,
      "chip": "ym2612"
    },
    {
      "channel": 0,
      "note": 41,
      "start": 24.7563,
      "duration": 0.2411,
      "velocity": 87,
      "chip": "ym2612"
    },
    {
      "channel": 1,
      "note": 41,
      "start": 24.7615,
      "duration": 0.2425,
      "velocity": 90,
      "chip": "ym2612"
    },
    {
      "channel": 3,
      "note": 56,
      "start": 24.7669,
      "duration": 0.2463,
      "velocity": 106,
      "chip": "ym2612"
    },
    {
      "channel": 1,
      "note": 41,
      "start": 25.0082,
      "duration": 0.09,
      "velocity": 90,
      "chip": "ym2612"
    },
    {
      "channel": 2,
      "note": 53,
      "start": 25.0129,
      "duration": 0.0776,
      "velocity": 85,
      "chip": "ym2612"
    },
    {
      "channel": 3,
      "note": 60,
      "start": 25.0172,
      "duration": 0.0855,
      "velocity": 106,
      "chip": "ym2612"
    },
    {
      "channel": 0,
      "note": 41,
      "start": 25.098,
      "duration": 0.1497,
      "velocity": 87,
      "chip": "ym2612"
    },
    {
      "channel": 1,
      "note": 53,
      "start": 25.1022,
      "duration": 0.1496,
      "velocity": 90,
      "chip": "ym2612"
    },
    {
      "channel": 3,
      "note": 65,
      "start": 25.1066,
      "duration": 0.1498,
      "velocity": 106,
      "chip": "ym2612"
    },
    {
      "channel": 4,
      "note": 65,
      "start": 25.1109,
      "duration": 0.1378,
      "velocity": 110,
      "chip": "ym2612"
    },
    {
      "channel": 1,
      "note": 41,
      "start": 25.2561,
      "duration": 0.1299,
      "velocity": 90,
      "chip": "ym2612"
    },
    {
      "channel": 3,
      "note": 53,
      "start": 25.2603,
      "duration": 0.1303,
      "velocity": 106,
      "chip": "ym2612"
    },
    {
      "channel": 0,
      "note": 41,
      "start": 25.3859,
      "duration": 0.1189,
      "velocity": 87,
      "chip": "ym2612"
    },
    {
      "channel": 1,
      "note": 41,
      "start": 25.3903,
      "duration": 0.1211,
      "velocity": 90,
      "chip": "ym2612"
    },
    {
      "channel": 3,
      "note": 56,
      "start": 25.3949,
      "duration": 0.1249,
      "velocity": 106,
      "chip": "ym2612"
    },
    {
      "channel": 4,
      "note": 65,
      "start": 25.3995,
      "duration": 0.1254,
      "velocity": 110,
      "chip": "ym2612"
    },
    {
      "channel": 1,
      "note": 55,
      "start": 25.5154,
      "duration": 0.0871,
      "velocity": 90,
      "chip": "ym2612"
    },
    {
      "channel": 2,
      "note": 53,
      "start": 25.5195,
      "duration": 0.0794,
      "velocity": 85,
      "chip": "ym2612"
    },
    {
      "channel": 3,
      "note": 60,
      "start": 25.5247,
      "duration": 0.0821,
      "velocity": 106,
      "chip": "ym2612"
    },
    {
      "channel": 4,
      "note": 67,
      "start": 25.5293,
      "duration": 0.0824,
      "velocity": 110,
      "chip": "ym2612"
    },
    {
      "channel": 1,
      "note": 56,
      "start": 25.6064,
      "duration": 0.2396,
      "velocity": 90,
      "chip": "ym2612"
    },
    {
      "channel": 3,
      "note": 65,
      "start": 25.6115,
      "duration": 0.2391,
      "velocity": 106,
      "chip": "ym2612"
    },
    {
      "channel": 4,
      "note": 68,
      "start": 25.6157,
      "duration": 0.2393,
      "velocity": 110,
      "chip": "ym2612"
    },
    {
      "channel": 0,
      "note": 41,
      "start": 25.8458,
      "duration": 0.1285,
      "velocity": 87,
      "chip": "ym2612"
    },
    {
      "channel": 1,
      "note": 53,
      "start": 25.8501,
      "duration": 0.1296,
      "velocity": 90,
      "chip": "ym2612"
    },
    {
      "channel": 3,
      "note": 53,
      "start": 25.8548,
      "duration": 0.1301,
      "velocity": 106,
      "chip": "ym2612"
    },
    {
      "channel": 4,
      "note": 70,
      "start": 25.8595,
      "duration": 0.3807,
      "velocity": 110,
      "chip": "ym2612"
    },
    {
      "channel": 0,
      "note": 41,
      "start": 25.9792,
      "duration": 0.241,
      "velocity": 87,
      "chip": "ym2612"
    },
    {
      "channel": 1,
      "note": 41,
      "start": 25.9844,
      "duration": 0.242,
      "velocity": 90,
      "chip": "ym2612"
    },
    {
      "channel": 3,
      "note": 56,
      "start": 25.9896,
      "duration": 0.246,
      "velocity": 106,
      "chip": "ym2612"
    },
    {
      "channel": 1,
      "note": 41,
      "start": 26.2303,
      "duration": 0.0924,
      "velocity": 90,
      "chip": "ym2612"
    },
    {
      "channel": 2,
      "note": 53,
      "start": 26.2352,
      "duration": 0.0793,
      "velocity": 85,
      "chip": "ym2612"
    },
    {
      "channel": 3,
      "note": 60,
      "start": 26.24,
      "duration": 0.0871,
      "velocity": 106,
      "chip": "ym2612"
    },
    {
      "channel": 4,
      "note": 72,
      "start": 26.2441,
      "duration": 0.0871,
      "velocity": 110,
      "chip": "ym2612"
    },
    {
      "channel": 0,
      "note": 41,
      "start": 26.3224,
      "duration": 0.2286,
      "velocity": 87,
      "chip": "ym2612"
    },
    {
      "channel": 1,
      "note": 53,
      "start": 26.3266,
      "duration": 0.2295,
      "velocity": 90,
      "chip": "ym2612"
    },
    {
      "channel": 3,
      "note": 65,
      "start": 26.331,
      "duration": 0.2293,
      "velocity": 106,
      "chip": "ym2612"
    },
    {
      "channel": 4,
      "note": 65,
      "start": 26.3354,
      "duration": 0.3641,
      "velocity": 110,
      "chip": "ym2612"
    },
    {
      "channel": 1,
      "note": 60,
      "start": 26.56,
      "duration": 0.131,
      "velocity": 90,
      "chip": "ym2612"
    },
    {
      "channel": 3,
      "note": 53,
      "start": 26.5642,
      "duration": 0.1311,
      "velocity": 106,
      "chip": "ym2612"
    },
    {
      "channel": 0,
      "note": 41,
      "start": 26.6908,
      "duration": 0.1183,
      "velocity": 87,
      "chip": "ym2612"
    },
    {
      "channel": 1,
      "note": 58,
      "start": 26.695,
      "duration": 0.1206,
      "velocity": 90,
      "chip": "ym2612"
    },
    {
      "channel": 3,
      "note": 56,
      "start": 26.6993,
      "duration": 0.1248,
      "velocity": 106,
      "chip": "ym2612"
    },
    {
      "channel": 4,
      "note": 65,
      "start": 26.7038,
      "duration": 0.1248,
      "velocity": 110,
      "chip": "ym2612"
    },
    {
      "channel": 1,
      "note": 56,
      "start": 26.8196,
      "duration": 0.0909,
      "velocity": 90,
      "chip": "ym2612"
    },
    {
      "channel": 2,
      "note": 53,
      "start": 26.8237,
      "duration": 0.0909,
      "velocity": 85,
      "chip": "ym2612"
    },
    {
      "channel": 3,
      "note": 60,
      "start": 26.8284,
      "duration": 0.0905,
      "velocity": 106,
      "chip": "ym2612"
    },
    {
      "channel": 4,
      "note": 63,
      "start": 26.8331,
      "duration": 0.1851,
      "velocity": 110,
      "chip": "ym2612"
    },
    {
      "channel": 1,
      "note": 58,
      "start": 26.9145,
      "duration": 0.0943,
      "velocity": 90,
      "chip": "ym2612"
    },
    {
      "channel": 2,
      "note": 53,
      "start": 26.9186,
      "duration": 0.0795,
      "velocity": 85,
      "chip": "ym2612"
    },
    {
      "channel": 3,
      "note": 65,
      "start": 26.9233,
      "duration": 0.0904,
      "velocity": 106,
      "chip": "ym2612"
    },
    {
      "channel": 0,
      "note": 41,
      "start": 27.0085,
      "duration": 0.1262,
      "velocity": 87,
      "chip": "ym2612"
    },
    {
      "channel": 1,
      "note": 53,
      "start": 27.0132,
      "duration": 0.1268,
      "velocity": 90,
      "chip": "ym2612"
    },
    {
      "channel": 3,
      "note": 53,
      "start": 27.018,
      "duration": 0.1274,
      "velocity": 106,
      "chip": "ym2612"
    },
    {
      "channel": 4,
      "note": 65,
      "start": 27.0221,
      "duration": 0.3614,
      "velocity": 110,
      "chip": "ym2612"
    },
    {
      "channel": 0,
      "note": 41,
      "start": 27.1396,
      "duration": 0.241,
      "velocity": 87,
      "chip": "ym2612"
    },
    {
      "channel": 1,
      "note": 41,
      "start": 27.1448,
      "duration": 0.2423,
      "velocity": 90,
      "chip": "ym2612"
    },
    {
      "channel": 3,
      "note": 56,
      "start": 27.1501,
      "duration": 0.2458,
      "velocity": 106,
      "chip": "ym2612"
    },
    {
      "channel": 1,
      "note": 41,
      "start": 27.3911,
      "duration": 0.0903,
      "velocity": 90,
      "chip": "ym2612"
    },
    {
      "channel": 2,
      "note": 53,
      "start": 27.3955,
      "duration": 0.0784,
      "velocity": 85,
      "chip": "ym2612"
    },
    {
      "channel": 3,
      "note": 60,
      "start": 27.4004,
      "duration": 0.0855,
      "velocity": 106,
      "chip": "ym2612"
    },
    {
      "channel": 0,
      "note": 41,
      "start": 27.4812,
      "duration": 0.2315,
      "velocity": 87,
      "chip": "ym2612"
    },
    {
      "channel": 1,
      "note": 53,
      "start": 27.4855,
      "duration": 0.233,
      "velocity": 90,
      "chip": "ym2612"
    },
    {
      "channel": 3,
      "note": 65,
      "start": 27.4899,
      "duration": 0.233,
      "velocity": 106,
      "chip": "ym2612"
    },
    {
      "channel": 4,
      "note": 65,
      "start": 27.4941,
      "duration": 0.2208,
      "velocity": 110,
      "chip": "ym2612"
    },
    {
      "channel": 1,
      "note": 41,
      "start": 27.7225,
      "duration": 0.1304,
      "velocity": 90,
      "chip": "ym2612"
    },
    {
      "channel": 3,
      "note": 53,
      "start": 27.7268,
      "duration": 0.1305,
      "velocity": 106,
      "chip": "ym2612"
    },
    {
      "channel": 0,
      "note": 41,
      "start": 27.8528,
      "duration": 0.1187,
      "velocity": 87,
      "chip": "ym2612"
    },
    {
      "channel": 1,
      "note": 41,
      "start": 27.8569,
      "duration": 0.121,
      "velocity": 90,
      "chip": "ym2612"
    },
    {
      "channel": 3,
      "note": 56,
      "start": 27.8612,
      "duration": 0.1251,
      "velocity": 106,
      "chip": "ym2612"
    },
    {
      "channel": 4,
      "note": 65,
      "start": 27.8658,
      "duration": 0.1248,
      "velocity": 110,
      "chip": "ym2612"
    },
    {
      "channel": 1,
      "note": 55,
      "start": 27.9819,
      "duration": 0.0858,
      "velocity": 90,
      "chip": "ym2612"
    },
    {
      "channel": 2,
      "note": 53,
      "start": 27.9861,
      "duration": 0.0783,
      "velocity": 85,
      "chip": "ym2612"
    },
    {
      "channel": 3,
      "note": 60,
      "start": 27.9903,
      "duration": 0.0822,
      "velocity": 106,
      "chip": "ym2612"
    },
    {
      "channel": 4,
      "note": 67,
      "start": 27.9944,
      "duration": 0.0824,
      "velocity": 110,
      "chip": "ym2612"
    },
    {
      "channel": 1,
      "note": 56,
      "start": 28.0722,
      "duration": 0.2384,
      "velocity": 90,
      "chip": "ym2612"
    },
    {
      "channel": 3,
      "note": 65,
      "start": 28.0764,
      "duration": 0.2386,
      "velocity": 106,
      "chip": "ym2612"
    },
    {
      "channel": 4,
      "note": 68,
      "start": 28.0806,
      "duration": 0.239,
      "velocity": 110,
      "chip": "ym2612"
    },
    {
      "channel": 0,
      "note": 41,
      "start": 28.3103,
      "duration": 0.1254,
      "velocity": 87,
      "chip": "ym2612"
    },
    {
      "channel": 1,
      "note": 53,
      "start": 28.3147,
      "duration": 0.1253,
      "velocity": 90,
      "chip": "ym2612"
    },
    {
      "channel": 3,
      "note": 53,
      "start": 28.3194,
      "duration": 0.1252,
      "velocity": 106,
      "chip": "ym2612"
    },
    {
      "channel": 4,
      "note": 70,
      "start": 28.3239,
      "duration": 0.2561,
      "velocity": 110,
      "chip": "ym2612"
    },
    {
      "channel": 0,
      "note": 41,
      "start": 28.4397,
      "duration": 0.1201,
      "velocity": 87,
      "chip": "ym2612"
    },
    {
      "channel": 1,
      "note": 41,
      "start": 28.4438,
      "duration": 0.1224,
      "velocity": 90,
      "chip": "ym2612"
    },
    {
      "channel": 3,
      "note": 56,
      "start": 28.4484,
      "duration": 0.1266,
      "velocity": 106,
      "chip": "ym2612"
    },
    {
      "channel": 1,
      "note": 55,
      "start": 28.5703,
      "duration": 0.0956,
      "velocity": 90,
      "chip": "ym2612"
    },
    {
      "channel": 2,
      "note": 53,
      "start": 28.5747,
      "duration": 0.0805,
      "velocity": 85,
      "chip": "ym2612"
    },
    {
      "channel": 3,
      "note": 60,
      "start": 28.5794,
      "duration": 0.0916,
      "velocity": 106,
      "chip": "ym2612"
    },
    {
      "channel": 4,
      "note": 72,
      "start": 28.5839,
      "duration": 0.0912,
      "velocity": 110,
      "chip": "ym2612"
    },
    {
      "channel": 0,
      "note": 41,
      "start": 28.6656,
      "duration": 0.1176,
      "velocity": 87,
      "chip": "ym2612"
    },
    {
      "channel": 1,
      "note": 41,
      "start": 28.6698,
      "duration": 0.1205,
      "velocity": 90,
      "chip": "ym2612"
    },
    {
      "channel": 3,
      "note": 65,
      "start": 28.6748,
      "duration": 0.1201,
      "velocity": 106,
      "chip": "ym2612"
    },
    {
      "channel": 4,
      "note": 65,
      "start": 28.679,
      "duration": 0.2555,
      "velocity": 110,
      "chip": "ym2612"
    },
    {
      "channel": 1,
      "note": 56,
      "start": 28.7946,
      "duration": 0.1312,
      "velocity": 90,
      "chip": "ym2612"
    },
    {
      "channel": 3,
      "note": 53,
      "start": 28.7988,
      "duration": 0.1314,
      "velocity": 106,
      "chip": "ym2612"
    },
    {
      "channel": 0,
      "note": 41,
      "start": 28.9256,
      "duration": 0.1172,
      "velocity": 87,
      "chip": "ym2612"
    },
    {
      "channel": 1,
      "note": 41,
      "start": 28.9298,
      "duration": 0.1195,
      "velocity": 90,
      "chip": "ym2612"
    },
    {
      "channel": 3,
      "note": 56,
      "start": 28.9341,
      "duration": 0.124,
      "velocity": 106,
      "chip": "ym2612"
    },
    {
      "channel": 4,
      "note": 65,
      "start": 28.9388,
      "duration": 0.1235,
      "velocity": 110,
      "chip": "ym2612"
    },
    {
      "channel": 1,
      "note": 58,
      "start": 29.0533,
      "duration": 0.0884,
      "velocity": 90,
      "chip": "ym2612"
    },
    {
      "channel": 2,
      "note": 53,
      "start": 29.0578,
      "duration": 0.0884,
      "velocity": 85,
      "chip": "ym2612"
    },
    {
      "channel": 3,
      "note": 60,
      "start": 29.0621,
      "duration": 0.0884,
      "velocity": 106,
      "chip": "ym2612"
    },
    {
      "channel": 4,
      "note": 63,
      "start": 29.0666,
      "duration": 0.1805,
      "velocity": 110,
      "chip": "ym2612"
    },
    {
      "channel": 1,
      "note": 41,
      "start": 29.1455,
      "duration": 0.0927,
      "velocity": 90,
      "chip": "ym2612"
    },
    {
      "channel": 2,
      "note": 53,
      "start": 29.1501,
      "duration": 0.0791,
      "velocity": 85,
      "chip": "ym2612"
    },
    {
      "channel": 3,
      "note": 65,
      "start": 29.1544,
      "duration": 0.0883,
      "velocity": 106,
      "chip": "ym2612"
    },
    {
      "channel": 0,
      "note": 42,
      "start": 29.238,
      "duration": 0.1254,
      "velocity": 87,
      "chip": "ym2612"
    },
    {
      "channel": 1,
      "note": 54,
      "start": 29.2422,
      "duration": 0.1264,
      "velocity": 90,
      "chip": "ym2612"
    },
    {
      "channel": 3,
      "note": 54,
      "start": 29.247,
      "duration": 0.1269,
      "velocity": 106,
      "chip": "ym2612"
    },
    {
      "channel": 4,
      "note": 66,
      "start": 29.2515,
      "duration": 0.1041,
      "velocity": 110,
      "chip": "ym2612"
    },
    {
      "channel": 0,
      "note": 42,
      "start": 29.3682,
      "duration": 0.2412,
      "velocity": 87,
      "chip": "ym2612"
    },
    {
      "channel": 1,
      "note": 42,
      "start": 29.3733,
      "duration": 0.2417,
      "velocity": 90,
      "chip": "ym2612"
    },
    {
      "channel": 3,
      "note": 58,
      "start": 29.3788,
      "duration": 0.2447,
      "velocity": 106,
      "chip": "ym2612"
    },
    {
      "channel": 1,
      "note": 42,
      "start": 29.6191,
      "duration": 0.0904,
      "velocity": 90,
      "chip": "ym2612"
    },
    {
      "channel": 2,
      "note": 54,
      "start": 29.6232,
      "duration": 0.078,
      "velocity": 85,
      "chip": "ym2612"
    },
    {
      "channel": 3,
      "note": 61,
      "start": 29.6275,
      "duration": 0.0866,
      "velocity": 106,
      "chip": "ym2612"
    },
    {
      "channel": 0,
      "note": 42,
      "start": 29.7092,
      "duration": 0.1778,
      "velocity": 87,
      "chip": "ym2612"
    },
    {
      "channel": 1,
      "note": 54,
      "start": 29.7138,
      "duration": 0.1795,
      "velocity": 90,
      "chip": "ym2612"
    },
    {
      "channel": 3,
      "note": 66,
      "start": 29.7181,
      "duration": 0.1793,
      "velocity": 106,
      "chip": "ym2612"
    },
    {
      "channel": 4,
      "note": 66,
      "start": 29.7222,
      "duration": 0.1665,
      "velocity": 110,
      "chip": "ym2612"
    },
    {
      "channel": 1,
      "note": 42,
      "start": 29.8972,
      "duration": 0.1287,
      "velocity": 90,
      "chip": "ym2612"
    },
    {
      "channel": 3,
      "note": 54,
      "start": 29.9015,
      "duration": 0.1287,
      "velocity": 106,
      "chip": "ym2612"
    },
    {
      "channel": 0,
      "note": 42,
      "start": 30.0256,
      "duration": 0.1188,
      "velocity": 87,
      "chip": "ym2612"
    },
    {
      "channel": 1,
      "note": 42,
      "start": 30.0298,
      "duration": 0.1207,
      "velocity": 90,
      "chip": "ym2612"
    },
    {
      "channel": 3,
      "note": 58,
      "start": 30.034,
      "duration": 0.1254,
      "velocity": 106,
      "chip": "ym2612"
    },
    {
      "channel": 4,
      "note": 66,
      "start": 30.0386,
      "duration": 0.1254,
      "velocity": 110,
      "chip": "ym2612"
    },
    {
      "channel": 1,
      "note": 56,
      "start": 30.1545,
      "duration": 0.088,
      "velocity": 90,
      "chip": "ym2612"
    },
    {
      "channel": 2,
      "note": 54,
      "start": 30.1591,
      "duration": 0.0802,
      "velocity": 85,
      "chip": "ym2612"
    },
    {
      "channel": 3,
      "note": 61,
      "start": 30.1639,
      "duration": 0.0829,
      "velocity": 106,
      "chip": "ym2612"
    },
    {
      "channel": 4,
      "note": 68,
      "start": 30.1679,
      "duration": 0.0832,
      "velocity": 110,
      "chip": "ym2612"
    },
    {
      "channel": 1,
      "note": 58,
      "start": 30.2463,
      "duration": 0.2393,
      "velocity": 90,
      "chip": "ym2612"
    },
    {
      "channel": 3,
      "note": 66,
      "start": 30.2508,
      "duration": 0.2392,
      "velocity": 106,
      "chip": "ym2612"
    },
    {
      "channel": 4,
      "note": 66,
      "start": 30.255,
      "duration": 0.2395,
      "velocity": 110,
      "chip": "ym2612"
    },
    {
      "channel": 0,
      "note": 42,
      "start": 30.4854,
      "duration": 0.1276,
      "velocity": 87,
      "chip": "ym2612"
    },
    {
      "channel": 1,
      "note": 54,
      "start": 30.4896,
      "duration": 0.1285,
      "velocity": 90,
      "chip": "ym2612"
    },
    {
      "channel": 3,
      "note": 54,
      "start": 30.4943,
      "duration": 0.1291,
      "velocity": 106,
      "chip": "ym2612"
    },
    {
      "channel": 4,
      "note": 70,
      "start": 30.4984,
      "duration": 0.3799,
      "velocity": 110,
      "chip": "ym2612"
    },
    {
      "channel": 0,
      "note": 42,
      "start": 30.6177,
      "duration": 0.2412,
      "velocity": 87,
      "chip": "ym2612"
    },
    {
      "channel": 1,
      "note": 42,
      "start": 30.6228,
      "duration": 0.2422,
      "velocity": 90,
      "chip": "ym2612"
    },
    {
      "channel": 3,
      "note": 58,
      "start": 30.6282,
      "duration": 0.246,
      "velocity": 106,
      "chip": "ym2612"
    },
    {
      "channel": 1,
      "note": 42,
      "start": 30.8693,
      "duration": 0.0927,
      "velocity": 90,
      "chip": "ym2612"
    },
    {
      "channel": 2,
      "note": 54,
      "start": 30.8739,
      "duration": 0.08,
      "velocity": 85,
      "chip": "ym2612"
    },
    {
      "channel": 3,
      "note": 61,
      "start": 30.8781,
      "duration": 0.0882,
      "velocity": 106,
      "chip": "ym2612"
    },
    {
      "channel": 4,
      "note": 68,
      "start": 30.8822,
      "duration": 0.0887,
      "velocity": 110,
      "chip": "ym2612"
    },
    {
      "channel": 0,
      "note": 42,
      "start": 30.9617,
      "duration": 0.2286,
      "velocity": 87,
      "chip": "ym2612"
    },
    {
      "channel": 1,
      "note": 49,
      "start": 30.9659,
      "duration": 0.2298,
      "velocity": 90,
      "chip": "ym2612"
    },
    {
      "channel": 3,
      "note": 66,
      "start": 30.9706,
      "duration": 0.2293,
      "velocity": 106,
      "chip": "ym2612"
    },
    {
      "channel": 4,
      "note": 66,
      "start": 30.9755,
      "duration": 0.3208,
      "velocity": 110,
      "chip": "ym2612"
    },
    {
      "channel": 1,
      "note": 42,
      "start": 31.1996,
      "duration": 0.088,
      "velocity": 90,
      "chip": "ym2612"
    },
    {
      "channel": 3,
      "note": 54,
      "start": 31.2037,
      "duration": 0.0885,
      "velocity": 106,
      "chip": "ym2612"
    },
    {
      "channel": 0,
      "note": 42,
      "start": 31.2874,
      "duration": 0.1189,
      "velocity": 87,
      "chip": "ym2612"
    },
    {
      "channel": 1,
      "note": 42,
      "start": 31.292,
      "duration": 0.1207,
      "velocity": 90,
      "chip": "ym2612"
    },
    {
      "channel": 3,
      "note": 58,
      "start": 31.2961,
      "duration": 0.1259,
      "velocity": 106,
      "chip": "ym2612"
    },
    {
      "channel": 4,
      "note": 66,
      "start": 31.3002,
      "duration": 0.1259,
      "velocity": 110,
      "chip": "ym2612"
    },
    {
      "channel": 1,
      "note": 51,
      "start": 31.4171,
      "duration": 0.089,
      "velocity": 90,
      "chip": "ym2612"
    },
    {
      "channel": 2,
      "note": 54,
      "start": 31.4212,
      "duration": 0.089,
      "velocity": 85,
      "chip": "ym2612"
    },
    {
      "channel": 3,
      "note": 61,
      "start": 31.4258,
      "duration": 0.0888,
      "velocity": 106,
      "chip": "ym2612"
    },
    {
      "channel": 4,
      "note": 66,
      "start": 31.4301,
      "duration": 0.0893,
      "velocity": 110,
      "chip": "ym2612"
    },
    {
      "channel": 1,
      "note": 42,
      "start": 31.5101,
      "duration": 0.0939,
      "velocity": 90,
      "chip": "ym2612"
    },
    {
      "channel": 2,
      "note": 54,
      "start": 31.5142,
      "duration": 0.0813,
      "velocity": 85,
      "chip": "ym2612"
    },
    {
      "channel": 3,
      "note": 66,
      "start": 31.5191,
      "duration": 0.0896,
      "velocity": 106,
      "chip": "ym2612"
    },
    {
      "channel": 4,
      "note": 68,
      "start": 31.5232,
      "duration": 0.0898,
      "velocity": 110,
      "chip": "ym2612"
    },
    {
      "channel": 0,
      "note": 41,
      "start": 31.6038,
      "duration": 0.1263,
      "velocity": 87,
      "chip": "ym2612"
    },
    {
      "channel": 1,
      "note": 53,
      "start": 31.6083,
      "duration": 0.1271,
      "velocity": 90,
      "chip": "ym2612"
    },
    {
      "channel": 3,
      "note": 53,
      "start": 31.6127,
      "duration": 0.1279,
      "velocity": 106,
      "chip": "ym2612"
    },
    {
      "channel": 4,
      "note": 65,
      "start": 31.6176,
      "duration": 0.7488,
      "velocity": 110,
      "chip": "ym2612"
    },
    {
      "channel": 0,
      "note": 41,
      "start": 31.7349,
      "duration": 0.241,
      "velocity": 87,
      "chip": "ym2612"
    },
    {
      "channel": 1,
      "note": 41,
      "start": 31.7401,
      "duration": 0.2422,
      "velocity": 90,
      "chip": "ym2612"
    },
    {
      "channel": 3,
      "note": 56,
      "start": 31.7454,
      "duration": 0.2452,
      "velocity": 106,
      "chip": "ym2612"
    },
    {
      "channel": 1,
      "note": 41,
      "start": 31.9861,
      "duration": 0.0897,
      "velocity": 90,
      "chip": "ym2612"
    },
    {
      "channel": 2,
      "note": 53,
      "start": 31.9903,
      "duration": 0.0782,
      "velocity": 85,
      "chip": "ym2612"
    },
    {
      "channel": 3,
      "note": 60,
      "start": 31.9949,
      "duration": 0.0858,
      "velocity": 106,
      "chip": "ym2612"
    },
    {
      "channel": 0,
      "note": 41,
      "start": 32.0757,
      "duration": 0.1436,
      "velocity": 87,
      "chip": "ym2612"
    },
    {
      "channel": 1,
      "note": 53,
      "start": 32.0802,
      "duration": 0.1441,
      "velocity": 90,
      "chip": "ym2612"
    },
    {
      "channel": 3,
      "note": 65,
      "start": 32.0846,
      "duration": 0.1439,
      "velocity": 106,
      "chip": "ym2612"
    },
    {
      "channel": 1,
      "note": 41,
      "start": 32.2282,
      "duration": 0.1296,
      "velocity": 90,
      "chip": "ym2612"
    },
    {
      "channel": 3,
      "note": 53,
      "start": 32.2326,
      "duration": 0.1295,
      "velocity": 106,
      "chip": "ym2612"
    },
    {
      "channel": 0,
      "note": 41,
      "start": 32.3576,
      "duration": 0.1183,
      "velocity": 87,
      "chip": "ym2612"
    },
    {
      "channel": 1,
      "note": 41,
      "start": 32.3617,
      "duration": 0.1209,
      "velocity": 90,
      "chip": "ym2612"
    },
    {
      "channel": 3,
      "note": 56,
      "start": 32.3661,
      "duration": 0.1256,
      "velocity": 106,
      "chip": "ym2612"
    },
    {
      "channel": 4,
      "note": 65,
      "start": 32.3707,
      "duration": 0.1255,
      "velocity": 110,
      "chip": "ym2612"
    },
    {
      "channel": 1,
      "note": 55,
      "start": 32.487,
      "duration": 0.0875,
      "velocity": 90,
      "chip": "ym2612"
    },
    {
      "channel": 2,
      "note": 53,
      "start": 32.4914,
      "duration": 0.0799,
      "velocity": 85,
      "chip": "ym2612"
    },
    {
      "channel": 3,
      "note": 60,
      "start": 32.496,
      "duration": 0.0831,
      "velocity": 106,
      "chip": "ym2612"
    },
    {
      "channel": 4,
      "note": 63,
      "start": 32.5002,
      "duration": 0.0832,
      "velocity": 110,
      "chip": "ym2612"
    },
    {
      "channel": 1,
      "note": 56,
      "start": 32.5788,
      "duration": 0.1499,
      "velocity": 90,
      "chip": "ym2612"
    },
    {
      "channel": 3,
      "note": 65,
      "start": 32.583,
      "duration": 0.1503,
      "velocity": 106,
      "chip": "ym2612"
    },
    {
      "channel": 4,
      "note": 65,
      "start": 32.5874,
      "duration": 0.15,
      "velocity": 110,
      "chip": "ym2612"
    },
    {
      "channel": 0,
      "note": 41,
      "start": 32.7285,
      "duration": 0.1246,
      "velocity": 87,
      "chip": "ym2612"
    },
    {
      "channel": 1,
      "note": 53,
      "start": 32.733,
      "duration": 0.1252,
      "velocity": 90,
      "chip": "ym2612"
    },
    {
      "channel": 3,
      "note": 53,
      "start": 32.7371,
      "duration": 0.1252,
      "velocity": 106,
      "chip": "ym2612"
    },
    {
      "channel": 4,
      "note": 60,
      "start": 32.7413,
      "duration": 0.5437,
      "velocity": 110,
      "chip": "ym2612"
    },
    {
      "channel": 0,
      "note": 41,
      "start": 32.858,
      "duration": 0.1192,
      "velocity": 87,
      "chip": "ym2612"
    },
    {
      "channel": 1,
      "note": 41,
      "start": 32.862,
      "duration": 0.1214,
      "velocity": 90,
      "chip": "ym2612"
    },
    {
      "channel": 3,
      "note": 56,
      "start": 32.8663,
      "duration": 0.1255,
      "velocity": 106,
      "chip": "ym2612"
    },
    {
      "channel": 1,
      "note": 55,
      "start": 32.9872,
      "duration": 0.0896,
      "velocity": 90,
      "chip": "ym2612"
    },
    {
      "channel": 2,
      "note": 53,
      "start": 32.9914,
      "duration": 0.0776,
      "velocity": 85,
      "chip": "ym2612"
    },
    {
      "channel": 3,
      "note": 60,
      "start": 32.9962,
      "duration": 0.0854,
      "velocity": 106,
      "chip": "ym2612"
    },
    {
      "channel": 0,
      "note": 41,
      "start": 33.0765,
      "duration": 0.118,
      "velocity": 87,
      "chip": "ym2612"
    },
    {
      "channel": 1,
      "note": 41,
      "start": 33.0812,
      "duration": 0.1184,
      "velocity": 90,
      "chip": "ym2612"
    },
    {
      "channel": 3,
      "note": 65,
      "start": 33.0854,
      "duration": 0.1189,
      "velocity": 106,
      "chip": "ym2612"
    },
    {
      "channel": 1,
      "note": 56,
      "start": 33.204,
      "duration": 0.0888,
      "velocity": 90,
      "chip": "ym2612"
    },
    {
      "channel": 3,
      "note": 53,
      "start": 33.2081,
      "duration": 0.0894,
      "velocity": 106,
      "chip": "ym2612"
    },
    {
      "channel": 0,
      "note": 41,
      "start": 33.2926,
      "duration": 0.1187,
      "velocity": 87,
      "chip": "ym2612"
    },
    {
      "channel": 1,
      "note": 41,
      "start": 33.2971,
      "duration": 0.12,
      "velocity": 90,
      "chip": "ym2612"
    },
    {
      "channel": 3,
      "note": 56,
      "start": 33.302,
      "duration": 0.1237,
      "velocity": 106,
      "chip": "ym2612"
    },
    {
      "channel": 1,
      "note": 55,
      "start": 33.421,
      "duration": 0.0863,
      "velocity": 90,
      "chip": "ym2612"
    },
    {
      "channel": 2,
      "note": 53,
      "start": 33.4254,
      "duration": 0.0865,
      "velocity": 85,
      "chip": "ym2612"
    },
    {
      "channel": 3,
      "note": 60,
      "start": 33.4295,
      "duration": 0.0866,
      "velocity": 106,
      "chip": "ym2612"
    },
    {
      "channel": 1,
      "note": 41,
      "start": 33.5114,
      "duration": 0.0921,
      "velocity": 90,
      "chip": "ym2612"
    },
    {
      "channel": 2,
      "note": 53,
      "start": 33.5158,
      "duration": 0.0919,
      "velocity": 85,
      "chip": "ym2612"
    },
    {
      "channel": 3,
      "note": 65,
      "start": 33.5201,
      "duration": 0.0923,
      "velocity": 106,
      "chip": "ym2612"
    },
    {
      "channel": 0,
      "note": 68,
      "start": 33.6032,
      "duration": 0.4953,
      "velocity": 97,
      "chip": "ym2612"
    },
    {
      "channel": 1,
      "note": 53,
      "start": 33.6074,
      "duration": 0.1161,
      "velocity": 90,
      "chip": "ym2612"
    },
    {
      "channel": 2,
      "note": 60,
      "start": 33.6121,
      "duration": 0.9976,
      "velocity": 97,
      "chip": "ym2612"
    },
    {
      "channel": 3,
      "note": 60,
      "start": 33.6168,
      "duration": 0.4907,
      "velocity": 97,
      "chip": "ym2612"
    },
    {
      "channel": 4,
      "note": 53,
      "start": 33.621,
      "duration": 0.002,
      "velocity": 99,
      "chip": "ym2612"
    },
    {
      "channel": 4,
      "note": 56,
      "start": 33.6553,
      "duration": 0.0079,
      "velocity": 99,
      "chip": "ym2612"
    },
    {
      "channel": 1,
      "note": 53,
      "start": 33.7278,
      "duration": 0.1184,
      "velocity": 90,
      "chip": "ym2612"
    },
    {
      "channel": 4,
      "note": 60,
      "start": 33.7322,
      "duration": 0.0014,
      "velocity": 99,
      "chip": "ym2612"
    },
    {
      "channel": 4,
      "note": 65,
      "start": 33.7719,
      "duration": 0.0078,
      "velocity": 99,
      "chip": "ym2612"
    },
    {
      "channel": 4,
      "note": 68,
      "start": 33.8552,
      "duration": 0.011,
      "velocity": 99,
      "chip": "ym2612"
    },
    {
      "channel": 4,
      "note": 72,
      "start": 33.8966,
      "duration": 0.0115,
      "velocity": 99,
      "chip": "ym2612"
    },
    {
      "channel": 1,
      "note": 51,
      "start": 33.9417,
      "duration": 0.1609,
      "velocity": 90,
      "chip": "ym2612"
    },
    {
      "channel": 4,
      "note": 77,
      "start": 33.9462,
      "duration": 0.1057,
      "velocity": 99,
      "chip": "ym2612"
    },
    {
      "channel": 4,
      "note": 72,
      "start": 34.0558,
      "duration": 0.0561,
      "velocity": 99,
      "chip": "ym2612"
    },
    {
      "channel": 0,
      "note": 67,
      "start": 34.1024,
      "duration": 0.4987,
      "velocity": 97,
      "chip": "ym2612"
    },
    {
      "channel": 1,
      "note": 53,
      "start": 34.1071,
      "duration": 0.1187,
      "velocity": 90,
      "chip": "ym2612"
    },
    {
      "channel": 3,
      "note": 60,
      "start": 34.1118,
      "duration": 0.5025,
      "velocity": 97,
      "chip": "ym2612"
    },
    {
      "channel": 4,
      "note": 77,
      "start": 34.1158,
      "duration": 0.0319,
      "velocity": 99,
      "chip": "ym2612"
    },
    {
      "channel": 4,
      "note": 73,
      "start": 34.1521,
      "duration": 0.0174,
      "velocity": 99,
      "chip": "ym2612"
    },
    {
      "channel": 1,
      "note": 46,
      "start": 34.2301,
      "duration": 0.1237,
      "velocity": 90,
      "chip": "ym2612"
    },
    {
      "channel": 4,
      "note": 70,
      "start": 34.2347,
      "duration": 0.0362,
      "velocity": 99,
      "chip": "ym2612"
    },
    {
      "channel": 4,
      "note": 65,
      "start": 34.2749,
      "duration": 0.008,
      "velocity": 99,
      "chip": "ym2612"
    },
    {
      "channel": 1,
      "note": 49,
      "start": 34.3577,
      "duration": 0.0855,
      "velocity": 90,
      "chip": "ym2612"
    },
    {
      "channel": 4,
      "note": 61,
      "start": 34.3623,
      "duration": 0.0067,
      "velocity": 99,
      "chip": "ym2612"
    },
    {
      "channel": 4,
      "note": 58,
      "start": 34.4022,
      "duration": 0.0078,
      "velocity": 99,
      "chip": "ym2612"
    },
    {
      "channel": 1,
      "note": 57,
      "start": 34.447,
      "duration": 0.1584,
      "velocity": 90,
      "chip": "ym2612"
    },
    {
      "channel": 4,
      "note": 53,
      "start": 34.4514,
      "duration": 0.0063,
      "velocity": 99,
      "chip": "ym2612"
    },
    {
      "channel": 4,
      "note": 49,
      "start": 34.5581,
      "duration": 0.0081,
      "velocity": 99,
      "chip": "ym2612"
    },
    {
      "channel": 0,
      "note": 65,
      "start": 34.6052,
      "duration": 0.8688,
      "velocity": 97,
      "chip": "ym2612"
    },
    {
      "channel": 1,
      "note": 53,
      "start": 34.6093,
      "duration": 0.1174,
      "velocity": 90,
      "chip": "ym2612"
    },
    {
      "channel": 2,
      "note": 65,
      "start": 34.6139,
      "duration": 0.8685,
      "velocity": 97,
      "chip": "ym2612"
    },
    {
      "channel": 3,
      "note": 60,
      "start": 34.6187,
      "duration": 0.8684,
      "velocity": 97,
      "chip": "ym2612"
    },
    {
      "channel": 4,
      "note": 65,
      "start": 34.6229,
      "duration": 0.0015,
      "velocity": 99,
      "chip": "ym2612"
    },
    {
      "channel": 4,
      "note": 68,
      "start": 34.6567,
      "duration": 0.0209,
      "velocity": 99,
      "chip": "ym2612"
    },
    {
      "channel": 1,
      "note": 53,
      "start": 34.7307,
      "duration": 0.1202,
      "velocity": 90,
      "chip": "ym2612"
    },
    {
      "channel": 4,
      "note": 72,
      "start": 34.7357,
      "duration": 0.0013,
      "velocity": 99,
      "chip": "ym2612"
    },
    {
      "channel": 4,
      "note": 77,
      "start": 34.7761,
      "duration": 0.008,
      "velocity": 99,
      "chip": "ym2612"
    },
    {
      "channel": 4,
      "note": 80,
      "start": 34.86,
      "duration": 0.0077,
      "velocity": 99,
      "chip": "ym2612"
    },
    {
      "channel": 4,
      "note": 84,
      "start": 34.902,
      "duration": 0.0082,
      "velocity": 99,
      "chip": "ym2612"
    },
    {
      "channel": 1,
      "note": 51,
      "start": 34.9481,
      "duration": 0.1239,
      "velocity": 90,
      "chip": "ym2612"
    },
    {
      "channel": 4,
      "note": 89,
      "start": 34.9524,
      "duration": 0.0359,
      "velocity": 99,
      "chip": "ym2612"
    },
    {
      "channel": 4,
      "note": 84,
      "start": 34.9927,
      "duration": 0.0047,
      "velocity": 99,
      "chip": "ym2612"
    },
    {
      "channel": 1,
      "note": 53,
      "start": 35.0764,
      "duration": 0.0861,
      "velocity": 90,
      "chip": "ym2612"
    },
    {
      "channel": 4,
      "note": 92,
      "start": 35.0807,
      "duration": 0.0095,
      "velocity": 99,
      "chip": "ym2612"
    },
    {
      "channel": 4,
      "note": 89,
      "start": 35.1205,
      "duration": 0.0178,
      "velocity": 99,
      "chip": "ym2612"
    },
    {
      "channel": 1,
      "note": 56,
      "start": 35.1668,
      "duration": 0.1231,
      "velocity": 90,
      "chip": "ym2612"
    },
    {
      "channel": 4,
      "note": 84,
      "start": 35.171,
      "duration": 0.0093,
      "velocity": 99,
      "chip": "ym2612"
    },
    {
      "channel": 4,
      "note": 89,
      "start": 35.2108,
      "duration": 0.0181,
      "velocity": 99,
      "chip": "ym2612"
    },
    {
      "channel": 1,
      "note": 55,
      "start": 35.2939,
      "duration": 0.0873,
      "velocity": 90,
      "chip": "ym2612"
    },
    {
      "channel": 4,
      "note": 84,
      "start": 35.2985,
      "duration": 0.0158,
      "velocity": 99,
      "chip": "ym2612"
    },
    {
      "channel": 4,
      "note": 80,
      "start": 35.338,
      "duration": 0.0078,
      "velocity": 99,
      "chip": "ym2612"
    },
    {
      "channel": 1,
      "note": 56,
      "start": 35.3851,
      "duration": 0.0931,
      "velocity": 90,
      "chip": "ym2612"
    },
    {
      "channel": 4,
      "note": 84,
      "start": 35.3895,
      "duration": 0.0096,
      "velocity": 99,
      "chip": "ym2612"
    },
    {
      "channel": 4,
      "note": 80,
      "start": 35.431,
      "duration": 0.0172,
      "velocity": 99,
      "chip": "ym2612"
    },
    {
      "channel": 0,
      "note": 68,
      "start": 35.478,
      "duration": 0.5818,
      "velocity": 97,
      "chip": "ym2612"
    },
    {
      "channel": 1,
      "note": 53,
      "start": 35.4822,
      "duration": 0.1183,
      "velocity": 90,
      "chip": "ym2612"
    },
    {
      "channel": 2,
      "note": 60,
      "start": 35.4868,
      "duration": 0.8241,
      "velocity": 97,
      "chip": "ym2612"
    },
    {
      "channel": 3,
      "note": 60,
      "start": 35.4916,
      "duration": 0.5767,
      "velocity": 97,
      "chip": "ym2612"
    },
    {
      "channel": 4,
      "note": 65,
      "start": 35.4958,
      "duration": 0.0295,
      "velocity": 99,
      "chip": "ym2612"
    },
    {
      "channel": 4,
      "note": 68,
      "start": 35.5291,
      "duration": 0.0216,
      "velocity": 99,
      "chip": "ym2612"
    },
    {
      "channel": 1,
      "note": 53,
      "start": 35.6044,
      "duration": 0.1192,
      "velocity": 90,
      "chip": "ym2612"
    },
    {
      "channel": 4,
      "note": 72,
      "start": 35.609,
      "duration": 0.0094,
      "velocity": 99,
      "chip": "ym2612"
    },
    {
      "channel": 4,
      "note": 77,
      "start": 35.6489,
      "duration": 0.0177,
      "velocity": 99,
      "chip": "ym2612"
    },
    {
      "channel": 4,
      "note": 72,
      "start": 35.7325,
      "duration": 0.0143,
      "velocity": 99,
      "chip": "ym2612"
    },
    {
      "channel": 4,
      "note": 68,
      "start": 35.7727,
      "duration": 0.0446,
      "velocity": 99,
      "chip": "ym2612"
    },
    {
      "channel": 1,
      "note": 51,
      "start": 35.817,
      "duration": 0.247,
      "velocity": 90,
      "chip": "ym2612"
    },
    {
      "channel": 4,
      "note": 65,
      "start": 35.8217,
      "duration": 0.0282,
      "velocity": 99,
      "chip": "ym2612"
    },
    {
      "channel": 4,
      "note": 60,
      "start": 35.9361,
      "duration": 0.0264,
      "velocity": 99,
      "chip": "ym2612"
    },
    {
      "channel": 0,
      "note": 70,
      "start": 36.0637,
      "duration": 0.5851,
      "velocity": 97,
      "chip": "ym2612"
    },
    {
      "channel": 1,
      "note": 53,
      "start": 36.068,
      "duration": 0.1193,
      "velocity": 90,
      "chip": "ym2612"
    },
    {
      "channel": 3,
      "note": 61,
      "start": 36.0727,
      "duration": 0.589,
      "velocity": 97,
      "chip": "ym2612"
    },
    {
      "channel": 4,
      "note": 70,
      "start": 36.0773,
      "duration": 0.0121,
      "velocity": 99,
      "chip": "ym2612"
    },
    {
      "channel": 4,
      "note": 65,
      "start": 36.1132,
      "duration": 0.0176,
      "velocity": 99,
      "chip": "ym2612"
    },
    {
      "channel": 1,
      "note": 46,
      "start": 36.1912,
      "duration": 0.1241,
      "velocity": 90,
      "chip": "ym2612"
    },
    {
      "channel": 4,
      "note": 61,
      "start": 36.196,
      "duration": 0.0132,
      "velocity": 99,
      "chip": "ym2612"
    },
    {
      "channel": 4,
      "note": 58,
      "start": 36.236,
      "duration": 0.008,
      "velocity": 99,
      "chip": "ym2612"
    },
    {
      "channel": 1,
      "note": 49,
      "start": 36.3198,
      "duration": 0.0855,
      "velocity": 90,
      "chip": "ym2612"
    },
    {
      "channel": 4,
      "note": 53,
      "start": 36.3244,
      "duration": 0.0064,
      "velocity": 99,
      "chip": "ym2612"
    },
    {
      "channel": 4,
      "note": 49,
      "start": 36.3646,
      "duration": 0.0079,
      "velocity": 99,
      "chip": "ym2612"
    },
    {
      "channel": 1,
      "note": 57,
      "start": 36.4093,
      "duration": 0.2442,
      "velocity": 90,
      "chip": "ym2612"
    },
    {
      "channel": 4,
      "note": 46,
      "start": 36.4136,
      "duration": 0.106,
      "velocity": 99,
      "chip": "ym2612"
    },
    {
      "channel": 4,
      "note": 49,
      "start": 36.5244,
      "duration": 0.0262,
      "velocity": 99,
      "chip": "ym2612"
    },
    {
      "channel": 0,
      "note": 65,
      "start": 36.6532,
      "duration": 1.0644,
      "velocity": 97,
      "chip": "ym2612"
    },
    {
      "channel": 1,
      "note": 53,
      "start": 36.6573,
      "duration": 0.1219,
      "velocity": 90,
      "chip": "ym2612"
    },
    {
      "channel": 2,
      "note": 65,
      "start": 36.6614,
      "duration": 1.0647,
      "velocity": 97,
      "chip": "ym2612"
    },
    {
      "channel": 3,
      "note": 60,
      "start": 36.6656,
      "duration": 1.065,
      "velocity": 97,
      "chip": "ym2612"
    },
    {
      "channel": 4,
      "note": 53,
      "start": 36.6701,
      "duration": 0.0042,
      "velocity": 99,
      "chip": "ym2612"
    },
    {
      "channel": 4,
      "note": 56,
      "start": 36.7048,
      "duration": 0.015,
      "velocity": 99,
      "chip": "ym2612"
    },
    {
      "channel": 1,
      "note": 53,
      "start": 36.784,
      "duration": 0.2411,
      "velocity": 90,
      "chip": "ym2612"
    },
    {
      "channel": 4,
      "note": 60,
      "start": 36.7893,
      "duration": 0.0108,
      "velocity": 99,
      "chip": "ym2612"
    },
    {
      "channel": 4,
      "note": 65,
      "start": 36.9069,
      "duration": 0.0263,
      "velocity": 99,
      "chip": "ym2612"
    },
    {
      "channel": 4,
      "note": 68,
      "start": 37.0338,
      "duration": 0.0112,
      "velocity": 99,
      "chip": "ym2612"
    },
    {
      "channel": 4,
      "note": 72,
      "start": 37.0752,
      "duration": 0.0079,
      "velocity": 99,
      "chip": "ym2612"
    },
    {
      "channel": 1,
      "note": 51,
      "start": 37.1205,
      "duration": 0.1556,
      "velocity": 90,
      "chip": "ym2612"
    },
    {
      "channel": 4,
      "note": 77,
      "start": 37.1249,
      "duration": 0.0092,
      "velocity": 99,
      "chip": "ym2612"
    },
    {
      "channel": 4,
      "note": 80,
      "start": 37.2346,
      "duration": 0.0048,
      "velocity": 99,
      "chip": "ym2612"
    },
    {
      "channel": 1,
      "note": 53,
      "start": 37.2808,
      "duration": 0.1252,
      "velocity": 90,
      "chip": "ym2612"
    },
    {
      "channel": 4,
      "note": 84,
      "start": 37.2851,
      "duration": 0.0017,
      "velocity": 99,
      "chip": "ym2612"
    },
    {
      "channel": 4,
      "note": 89,
      "start": 37.3257,
      "duration": 0.0046,
      "velocity": 99,
      "chip": "ym2612"
    },
    {
      "channel": 1,
      "note": 56,
      "start": 37.4103,
      "duration": 0.123,
      "velocity": 90,
      "chip": "ym2612"
    },
    {
      "channel": 4,
      "note": 92,
      "start": 37.4145,
      "duration": 0.0126,
      "velocity": 99,
      "chip": "ym2612"
    },
    {
      "channel": 4,
      "note": 89,
      "start": 37.4545,
      "duration": 0.0109,
      "velocity": 99,
      "chip": "ym2612"
    },
    {
      "channel": 1,
      "note": 55,
      "start": 37.5372,
      "duration": 0.0865,
      "velocity": 90,
      "chip": "ym2612"
    },
    {
      "channel": 4,
      "note": 84,
      "start": 37.542,
      "duration": 0.0063,
      "velocity": 99,
      "chip": "ym2612"
    },
    {
      "channel": 4,
      "note": 80,
      "start": 37.582,
      "duration": 0.0111,
      "velocity": 99,
      "chip": "ym2612"
    },
    {
      "channel": 1,
      "note": 56,
      "start": 37.6282,
      "duration": 0.0936,
      "velocity": 90,
      "chip": "ym2612"
    },
    {
      "channel": 4,
      "note": 77,
      "start": 37.6324,
      "duration": 0.003,
      "velocity": 99,
      "chip": "ym2612"
    },
    {
      "channel": 4,
      "note": 72,
      "start": 37.6729,
      "duration": 0.0049,
      "velocity": 99,
      "chip": "ym2612"
    },
    {
      "channel": 0,
      "note": 68,
      "start": 37.7215,
      "duration": 0.709,
      "velocity": 97,
      "chip": "ym2612"
    },
    {
      "channel": 1,
      "note": 49,
      "start": 37.7257,
      "duration": 0.1216,
      "velocity": 90,
      "chip": "ym2612"
    },
    {
      "channel": 2,
      "note": 60,
      "start": 37.7304,
      "duration": 1.2971,
      "velocity": 97,
      "chip": "ym2612"
    },
    {
      "channel": 3,
      "note": 56,
      "start": 37.7351,
      "duration": 0.7002,
      "velocity": 97,
      "chip": "ym2612"
    },
    {
      "channel": 4,
      "note": 49,
      "start": 37.7396,
      "duration": 0.0036,
      "velocity": 99,
      "chip": "ym2612"
    },
    {
      "channel": 4,
      "note": 53,
      "start": 37.7736,
      "duration": 0.0113,
      "velocity": 99,
      "chip": "ym2612"
    },
    {
      "channel": 1,
      "note": 49,
      "start": 37.852,
      "duration": 0.2412,
      "velocity": 90,
      "chip": "ym2612"
    },
    {
      "channel": 4,
      "note": 56,
      "start": 37.8575,
      "duration": 0.0108,
      "velocity": 99,
      "chip": "ym2612"
    },
    {
      "channel": 4,
      "note": 61,
      "start": 37.975,
      "duration": 0.0365,
      "velocity": 99,
      "chip": "ym2612"
    },
    {
      "channel": 4,
      "note": 65,
      "start": 38.1024,
      "duration": 0.0079,
      "velocity": 99,
      "chip": "ym2612"
    },
    {
      "channel": 4,
      "note": 68,
      "start": 38.1434,
      "duration": 0.0143,
      "velocity": 99,
      "chip": "ym2612"
    },
    {
      "channel": 1,
      "note": 49,
      "start": 38.1885,
      "duration": 0.2369,
      "velocity": 90,
      "chip": "ym2612"
    },
    {
      "channel": 4,
      "note": 73,
      "start": 38.1929,
      "duration": 0.1091,
      "velocity": 99,
      "chip": "ym2612"
    },
    {
      "channel": 4,
      "note": 68,
      "start": 38.3068,
      "duration": 0.1325,
      "velocity": 99,
      "chip": "ym2612"
    },
    {
      "channel": 0,
      "note": 70,
      "start": 38.4348,
      "duration": 0.5834,
      "velocity": 97,
      "chip": "ym2612"
    },
    {
      "channel": 3,
      "note": 53,
      "start": 38.4391,
      "duration": 0.5926,
      "velocity": 97,
      "chip": "ym2612"
    },
    {
      "channel": 4,
      "note": 73,
      "start": 38.4433,
      "duration": 0.014,
      "velocity": 99,
      "chip": "ym2612"
    },
    {
      "channel": 4,
      "note": 68,
      "start": 38.4808,
      "duration": 0.0115,
      "velocity": 99,
      "chip": "ym2612"
    },
    {
      "channel": 1,
      "note": 49,
      "start": 38.5621,
      "duration": 0.1237,
      "velocity": 90,
      "chip": "ym2612"
    },
    {
      "channel": 4,
      "note": 65,
      "start": 38.5667,
      "duration": 0.0064,
      "velocity": 99,
      "chip": "ym2612"
    },
    {
      "channel": 4,
      "note": 61,
      "start": 38.6066,
      "duration": 0.008,
      "velocity": 99,
      "chip": "ym2612"
    },
    {
      "channel": 1,
      "note": 53,
      "start": 38.6897,
      "duration": 0.0847,
      "velocity": 90,
      "chip": "ym2612"
    },
    {
      "channel": 4,
      "note": 56,
      "start": 38.6945,
      "duration": 0.006,
      "velocity": 99,
      "chip": "ym2612"
    },
    {
      "channel": 4,
      "note": 53,
      "start": 38.7338,
      "duration": 0.0112,
      "velocity": 99,
      "chip": "ym2612"
    },
    {
      "channel": 1,
      "note": 51,
      "start": 38.7784,
      "duration": 0.2444,
      "velocity": 90,
      "chip": "ym2612"
    },
    {
      "channel": 4,
      "note": 49,
      "start": 38.7826,
      "duration": 0.1063,
      "velocity": 99,
      "chip": "ym2612"
    },
    {
      "channel": 4,
      "note": 53,
      "start": 38.8936,
      "duration": 0.0264,
      "velocity": 99,
      "chip": "ym2612"
    },
    {
      "channel": 0,
      "note": 67,
      "start": 39.0226,
      "duration": 0.7531,
      "velocity": 97,
      "chip": "ym2612"
    },
    {
      "channel": 1,
      "note": 48,
      "start": 39.0271,
      "duration": 0.1178,
      "velocity": 90,
      "chip": "ym2612"
    },
    {
      "channel": 2,
      "note": 60,
      "start": 39.0315,
      "duration": 2.28,
      "velocity": 97,
      "chip": "ym2612"
    },
    {
      "channel": 3,
      "note": 55,
      "start": 39.0356,
      "duration": 0.7485,
      "velocity": 97,
      "chip": "ym2612"
    },
    {
      "channel": 4,
      "note": 60,
      "start": 39.0398,
      "duration": 0.0017,
      "velocity": 99,
      "chip": "ym2612"
    },
    {
      "channel": 4,
      "note": 63,
      "start": 39.0736,
      "duration": 0.0081,
      "velocity": 99,
      "chip": "ym2612"
    },
    {
      "channel": 1,
      "note": 48,
      "start": 39.1493,
      "duration": 0.1193,
      "velocity": 90,
      "chip": "ym2612"
    },
    {
      "channel": 4,
      "note": 67,
      "start": 39.1537,
      "duration": 0.0013,
      "velocity": 99,
      "chip": "ym2612"
    },
    {
      "channel": 4,
      "note": 72,
      "start": 39.1935,
      "duration": 0.0054,
      "velocity": 99,
      "chip": "ym2612"
    },
    {
      "channel": 4,
      "note": 75,
      "start": 39.2779,
      "duration": 0.0019,
      "velocity": 99,
      "chip": "ym2612"
    },
    {
      "channel": 4,
      "note": 79,
      "start": 39.3195,
      "duration": 0.005,
      "velocity": 99,
      "chip": "ym2612"
    },
    {
      "channel": 1,
      "note": 48,
      "start": 39.3648,
      "duration": 0.1553,
      "velocity": 90,
      "chip": "ym2612"
    },
    {
      "channel": 4,
      "note": 84,
      "start": 39.369,
      "duration": 0.0094,
      "velocity": 99,
      "chip": "ym2612"
    },
    {
      "channel": 4,
      "note": 87,
      "start": 39.4787,
      "duration": 0.008,
      "velocity": 99,
      "chip": "ym2612"
    },
    {
      "channel": 1,
      "note": 55,
      "start": 39.524,
      "duration": 0.1241,
      "velocity": 90,
      "chip": "ym2612"
    },
    {
      "channel": 4,
      "note": 91,
      "start": 39.5284,
      "duration": 0.0094,
      "velocity": 99,
      "chip": "ym2612"
    },
    {
      "channel": 4,
      "note": 87,
      "start": 39.5685,
      "duration": 0.0079,
      "velocity": 99,
      "chip": "ym2612"
    },
    {
      "channel": 1,
      "note": 48,
      "start": 39.6523,
      "duration": 0.1274,
      "velocity": 90,
      "chip": "ym2612"
    },
    {
      "channel": 4,
      "note": 84,
      "start": 39.6566,
      "duration": 0.0031,
      "velocity": 99,
      "chip": "ym2612"
    },
    {
      "channel": 4,
      "note": 87,
      "start": 39.6961,
      "duration": 0.011,
      "velocity": 99,
      "chip": "ym2612"
    },
    {
      "channel": 0,
      "note": 63,
      "start": 39.7795,
      "duration": 0.2224,
      "velocity": 97,
      "chip": "ym2612"
    },
    {
      "channel": 1,
      "note": 60,
      "start": 39.7837,
      "duration": 0.0875,
      "velocity": 90,
      "chip": "ym2612"
    },
    {
      "channel": 3,
      "note": 55,
      "start": 39.788,
      "duration": 0.2224,
      "velocity": 97,
      "chip": "ym2612"
    },
    {
      "channel": 4,
      "note": 84,
      "start": 39.7926,
      "duration": 0.0016,
      "velocity": 99,
      "chip": "ym2612"
    },
    {
      "channel": 4,
      "note": 79,
      "start": 39.8288,
      "duration": 0.0049,
      "velocity": 99,
      "chip": "ym2612"
    },
    {
      "channel": 1,
      "note": 58,
      "start": 39.8756,
      "duration": 0.1304,
      "velocity": 90,
      "chip": "ym2612"
    },
    {
      "channel": 4,
      "note": 75,
      "start": 39.8798,
      "duration": 0.0031,
      "velocity": 99,
      "chip": "ym2612"
    },
    {
      "channel": 4,
      "note": 72,
      "start": 39.9201,
      "duration": 0.0049,
      "velocity": 99,
      "chip": "ym2612"
    },
    {
      "channel": 0,
      "note": 65,
      "start": 40.0058,
      "duration": 2.0716,
      "velocity": 97,
      "chip": "ym2612"
    },
    {
      "channel": 1,
      "note": 53,
      "start": 40.01,
      "duration": 0.1229,
      "velocity": 90,
      "chip": "ym2612"
    },
    {
      "channel": 3,
      "note": 53,
      "start": 40.0146,
      "duration": 2.0767,
      "velocity": 97,
      "chip": "ym2612"
    },
    {
      "channel": 4,
      "note": 53,
      "start": 40.0194,
      "duration": 0.0054,
      "velocity": 99,
      "chip": "ym2612"
    },
    {
      "channel": 4,
      "note": 56,
      "start": 40.055,
      "duration": 0.0115,
      "velocity": 99,
      "chip": "ym2612"
    },
    {
      "channel": 1,
      "note": 53,
      "start": 40.1376,
      "duration": 0.2413,
      "velocity": 90,
      "chip": "ym2612"
    },
    {
      "channel": 4,
      "note": 60,
      "start": 40.143,
      "duration": 0.0019,
      "velocity": 99,
      "chip": "ym2612"
    },
    {
      "channel": 4,
      "note": 65,
      "start": 40.2607,
      "duration": 0.0262,
      "velocity": 99,
      "chip": "ym2612"
    },
    {
      "channel": 4,
      "note": 68,
      "start": 40.3877,
      "duration": 0.0111,
      "velocity": 99,
      "chip": "ym2612"
    },
    {
      "channel": 4,
      "note": 72,
      "start": 40.429,
      "duration": 0.0107,
      "velocity": 99,
      "chip": "ym2612"
    },
    {
      "channel": 1,
      "note": 51,
      "start": 40.4738,
      "duration": 0.2412,
      "velocity": 90,
      "chip": "ym2612"
    },
    {
      "channel": 4,
      "note": 77,
      "start": 40.4782,
      "duration": 0.1095,
      "velocity": 99,
      "chip": "ym2612"
    },
    {
      "channel": 4,
      "note": 72,
      "start": 40.5925,
      "duration": 0.016,
      "velocity": 99,
      "chip": "ym2612"
    },
    {
      "channel": 1,
      "note": 53,
      "start": 40.7192,
      "duration": 0.1258,
      "velocity": 90,
      "chip": "ym2612"
    },
    {
      "channel": 4,
      "note": 80,
      "start": 40.7239,
      "duration": 0.01,
      "velocity": 99,
      "chip": "ym2612"
    },
    {
      "channel": 4,
      "note": 77,
      "start": 40.7641,
      "duration": 0.0081,
      "velocity": 99,
      "chip": "ym2612"
    },
    {
      "channel": 1,
      "note": 56,
      "start": 40.8492,
      "duration": 0.1233,
      "velocity": 90,
      "chip": "ym2612"
    },
    {
      "channel": 4,
      "note": 72,
      "start": 40.8535,
      "duration": 0.003,
      "velocity": 99,
      "chip": "ym2612"
    },
    {
      "channel": 4,
      "note": 68,
      "start": 40.8929,
      "duration": 0.008,
      "velocity": 99,
      "chip": "ym2612"
    },
    {
      "channel": 1,
      "note": 55,
      "start": 40.9769,
      "duration": 0.0851,
      "velocity": 90,
      "chip": "ym2612"
    },
    {
      "channel": 4,
      "note": 72,
      "start": 40.9812,
      "duration": 0.0096,
      "velocity": 99,
      "chip": "ym2612"
    },
    {
      "channel": 4,
      "note": 68,
      "start": 41.0209,
      "duration": 0.011,
      "velocity": 99,
      "chip": "ym2612"
    },
    {
      "channel": 1,
      "note": 56,
      "start": 41.0659,
      "duration": 0.2409,
      "velocity": 90,
      "chip": "ym2612"
    },
    {
      "channel": 4,
      "note": 65,
      "start": 41.0706,
      "duration": 0.0267,
      "velocity": 99,
      "chip": "ym2612"
    },
    {
      "channel": 4,
      "note": 68,
      "start": 41.1837,
      "duration": 0.0466,
      "velocity": 99,
      "chip": "ym2612"
    },
    {
      "channel": 1,
      "note": 53,
      "start": 41.3111,
      "duration": 0.0877,
      "velocity": 90,
      "chip": "ym2612"
    },
    {
      "channel": 2,
      "note": 65,
      "start": 41.3153,
      "duration": 0.7714,
      "velocity": 97,
      "chip": "ym2612"
    },
    {
      "channel": 4,
      "note": 65,
      "start": 41.3199,
      "duration": 0.0077,
      "velocity": 99,
      "chip": "ym2612"
    },
    {
      "channel": 4,
      "note": 68,
      "start": 41.3579,
      "duration": 0.0083,
      "velocity": 99,
      "chip": "ym2612"
    },
    {
      "channel": 1,
      "note": 53,
      "start": 41.4028,
      "duration": 0.1204,
      "velocity": 90,
      "chip": "ym2612"
    },
    {
      "channel": 4,
      "note": 72,
      "start": 41.4074,
      "duration": 0.0012,
      "velocity": 99,
      "chip": "ym2612"
    },
    {
      "channel": 4,
      "note": 77,
      "start": 41.4862,
      "duration": 0.0079,
      "velocity": 99,
      "chip": "ym2612"
    },
    {
      "channel": 4,
      "note": 80,
      "start": 41.5326,
      "duration": 0.008,
      "velocity": 99,
      "chip": "ym2612"
    },
    {
      "channel": 4,
      "note": 84,
      "start": 41.5734,
      "duration": 0.0116,
      "velocity": 99,
      "chip": "ym2612"
    },
    {
      "channel": 1,
      "note": 51,
      "start": 41.6212,
      "duration": 0.0863,
      "velocity": 90,
      "chip": "ym2612"
    },
    {
      "channel": 4,
      "note": 89,
      "start": 41.6254,
      "duration": 0.0373,
      "velocity": 99,
      "chip": "ym2612"
    },
    {
      "channel": 4,
      "note": 84,
      "start": 41.6668,
      "duration": 0.0046,
      "velocity": 99,
      "chip": "ym2612"
    },
    {
      "channel": 1,
      "note": 53,
      "start": 41.7118,
      "duration": 0.0895,
      "velocity": 90,
      "chip": "ym2612"
    },
    {
      "channel": 4,
      "note": 92,
      "start": 41.7166,
      "duration": 0.0099,
      "velocity": 99,
      "chip": "ym2612"
    },
    {
      "channel": 4,
      "note": 89,
      "start": 41.7587,
      "duration": 0.0051,
      "velocity": 99,
      "chip": "ym2612"
    },
    {
      "channel": 1,
      "note": 60,
      "start": 41.8051,
      "duration": 0.0884,
      "velocity": 90,
      "chip": "ym2612"
    },
    {
      "channel": 4,
      "note": 84,
      "start": 41.8095,
      "duration": 0.0035,
      "velocity": 99,
      "chip": "ym2612"
    },
    {
      "channel": 4,
      "note": 80,
      "start": 41.8518,
      "duration": 0.0047,
      "velocity": 99,
      "chip": "ym2612"
    },
    {
      "channel": 1,
      "note": 58,
      "start": 41.898,
      "duration": 0.0856,
      "velocity": 90,
      "chip": "ym2612"
    },
    {
      "channel": 4,
      "note": 84,
      "start": 41.9022,
      "duration": 0.0097,
      "velocity": 99,
      "chip": "ym2612"
    },
    {
      "channel": 4,
      "note": 80,
      "start": 41.9421,
      "duration": 0.0115,
      "velocity": 99,
      "chip": "ym2612"
    },
    {
      "channel": 1,
      "note": 56,
      "start": 41.9875,
      "duration": 0.0944,
      "velocity": 90,
      "chip": "ym2612"
    },
    {
      "channel": 4,
      "note": 77,
      "start": 41.9917,
      "duration": 0.0066,
      "velocity": 99,
      "chip": "ym2612"
    },
    {
      "channel": 4,
      "note": 80,
      "start": 42.0317,
      "duration": 0.0144,
      "velocity": 99,
      "chip": "ym2612"
    },
    {
      "channel": 0,
      "note": 68,
      "start": 42.0817,
      "duration": 0.4968,
      "velocity": 97,
      "chip": "ym2612"
    },
    {
      "channel": 1,
      "note": 53,
      "start": 42.0864,
      "duration": 0.116,
      "velocity": 90,
      "chip": "ym2612"
    },
    {
      "channel": 2,
      "note": 60,
      "start": 42.0906,
      "duration": 1.0012,
      "velocity": 97,
      "chip": "ym2612"
    },
    {
      "channel": 3,
      "note": 60,
      "start": 42.0952,
      "duration": 0.4922,
      "velocity": 97,
      "chip": "ym2612"
    },
    {
      "channel": 4,
      "note": 53,
      "start": 42.0994,
      "duration": 0.0021,
      "velocity": 99,
      "chip": "ym2612"
    },
    {
      "channel": 4,
      "note": 56,
      "start": 42.134,
      "duration": 0.0081,
      "velocity": 99,
      "chip": "ym2612"
    },
    {
      "channel": 1,
      "note": 53,
      "start": 42.207,
      "duration": 0.119,
      "velocity": 90,
      "chip": "ym2612"
    },
    {
      "channel": 4,
      "note": 60,
      "start": 42.2112,
      "duration": 0.0015,
      "velocity": 99,
      "chip": "ym2612"
    },
    {
      "channel": 4,
      "note": 65,
      "start": 42.2523,
      "duration": 0.0086,
      "velocity": 99,
      "chip": "ym2612"
    },
    {
      "channel": 4,
      "note": 68,
      "start": 42.3353,
      "duration": 0.011,
      "velocity": 99,
      "chip": "ym2612"
    },
    {
      "channel": 4,
      "note": 72,
      "start": 42.3773,
      "duration": 0.0113,
      "velocity": 99,
      "chip": "ym2612"
    },
    {
      "channel": 1,
      "note": 51,
      "start": 42.4239,
      "duration": 0.1592,
      "velocity": 90,
      "chip": "ym2612"
    },
    {
      "channel": 4,
      "note": 77,
      "start": 42.4283,
      "duration": 0.1035,
      "velocity": 99,
      "chip": "ym2612"
    },
    {
      "channel": 4,
      "note": 72,
      "start": 42.5358,
      "duration": 0.0557,
      "velocity": 99,
      "chip": "ym2612"
    },
    {
      "channel": 0,
      "note": 67,
      "start": 42.583,
      "duration": 0.5,
      "velocity": 97,
      "chip": "ym2612"
    },
    {
      "channel": 1,
      "note": 53,
      "start": 42.587,
      "duration": 0.1191,
      "velocity": 90,
      "chip": "ym2612"
    },
    {
      "channel": 3,
      "note": 60,
      "start": 42.5912,
      "duration": 0.5053,
      "velocity": 97,
      "chip": "ym2612"
    },
    {
      "channel": 4,
      "note": 77,
      "start": 42.5956,
      "duration": 0.0326,
      "velocity": 99,
      "chip": "ym2612"
    },
    {
      "channel": 4,
      "note": 73,
      "start": 42.6321,
      "duration": 0.0182,
      "velocity": 99,
      "chip": "ym2612"
    },
    {
      "channel": 1,
      "note": 46,
      "start": 42.7105,
      "duration": 0.123,
      "velocity": 90,
      "chip": "ym2612"
    },
    {
      "channel": 4,
      "note": 70,
      "start": 42.7147,
      "duration": 0.036,
      "velocity": 99,
      "chip": "ym2612"
    },
    {
      "channel": 4,
      "note": 65,
      "start": 42.7546,
      "duration": 0.0082,
      "velocity": 99,
      "chip": "ym2612"
    },
    {
      "channel": 1,
      "note": 49,
      "start": 42.8373,
      "duration": 0.0884,
      "velocity": 90,
      "chip": "ym2612"
    },
    {
      "channel": 4,
      "note": 61,
      "start": 42.8419,
      "duration": 0.007,
      "velocity": 99,
      "chip": "ym2612"
    },
    {
      "channel": 4,
      "note": 58,
      "start": 42.8837,
      "duration": 0.0085,
      "velocity": 99,
      "chip": "ym2612"
    },
    {
      "channel": 1,
      "note": 57,
      "start": 42.9301,
      "duration": 0.1571,
      "velocity": 90,
      "chip": "ym2612"
    },
    {
      "channel": 4,
      "note": 53,
      "start": 42.9343,
      "duration": 0.0044,
      "velocity": 99,
      "chip": "ym2612"
    },
    {
      "channel": 4,
      "note": 49,
      "start": 43.0386,
      "duration": 0.0081,
      "velocity": 99,
      "chip": "ym2612"
    },
    {
      "channel": 0,
      "note": 65,
      "start": 43.087,
      "duration": 0.8739,
      "velocity": 97,
      "chip": "ym2612"
    },
    {
      "channel": 1,
      "note": 53,
      "start": 43.0915,
      "duration": 0.1185,
      "velocity": 90,
      "chip": "ym2612"
    },
    {
      "channel": 2,
      "note": 65,
      "start": 43.0963,
      "duration": 0.8729,
      "velocity": 97,
      "chip": "ym2612"
    },
    {
      "channel": 3,
      "note": 60,
      "start": 43.1004,
      "duration": 0.8734,
      "velocity": 97,
      "chip": "ym2612"
    },
    {
      "channel": 4,
      "note": 65,
      "start": 43.1051,
      "duration": 0.0021,
      "velocity": 99,
      "chip": "ym2612"
    },
    {
      "channel": 4,
      "note": 68,
      "start": 43.1412,
      "duration": 0.0213,
      "velocity": 99,
      "chip": "ym2612"
    },
    {
      "channel": 1,
      "note": 53,
      "start": 43.2139,
      "duration": 0.1188,
      "velocity": 90,
      "chip": "ym2612"
    },
    {
      "channel": 4,
      "note": 72,
      "start": 43.2186,
      "duration": 0.0015,
      "velocity": 99,
      "chip": "ym2612"
    },
    {
      "channel": 4,
      "note": 77,
      "start": 43.2592,
      "duration": 0.008,
      "velocity": 99,
      "chip": "ym2612"
    },
    {
      "channel": 4,
      "note": 80,
      "start": 43.342,
      "duration": 0.0083,
      "velocity": 99,
      "chip": "ym2612"
    },
    {
      "channel": 4,
      "note": 84,
      "start": 43.3844,
      "duration": 0.0085,
      "velocity": 99,
      "chip": "ym2612"
    },
    {
      "channel": 1,
      "note": 51,
      "start": 43.4315,
      "duration": 0.1241,
      "velocity": 90,
      "chip": "ym2612"
    },
    {
      "channel": 4,
      "note": 89,
      "start": 43.4366,
      "duration": 0.0364,
      "velocity": 99,
      "chip": "ym2612"
    },
    {
      "channel": 4,
      "note": 84,
      "start": 43.4778,
      "duration": 0.0048,
      "velocity": 99,
      "chip": "ym2612"
    },
    {
      "channel": 1,
      "note": 53,
      "start": 43.5604,
      "duration": 0.0878,
      "velocity": 90,
      "chip": "ym2612"
    },
    {
      "channel": 4,
      "note": 92,
      "start": 43.5647,
      "duration": 0.0097,
      "velocity": 99,
      "chip": "ym2612"
    },
    {
      "channel": 4,
      "note": 89,
      "start": 43.6054,
      "duration": 0.0182,
      "velocity": 99,
      "chip": "ym2612"
    },
    {
      "channel": 1,
      "note": 56,
      "start": 43.6521,
      "duration": 0.1217,
      "velocity": 90,
      "chip": "ym2612"
    },
    {
      "channel": 4,
      "note": 84,
      "start": 43.6563,
      "duration": 0.0093,
      "velocity": 99,
      "chip": "ym2612"
    },
    {
      "channel": 4,
      "note": 89,
      "start": 43.6961,
      "duration": 0.0178,
      "velocity": 99,
      "chip": "ym2612"
    },
    {
      "channel": 1,
      "note": 55,
      "start": 43.7781,
      "duration": 0.0876,
      "velocity": 90,
      "chip": "ym2612"
    },
    {
      "channel": 4,
      "note": 84,
      "start": 43.7824,
      "duration": 0.0159,
      "velocity": 99,
      "chip": "ym2612"
    },
    {
      "channel": 4,
      "note": 80,
      "start": 43.8232,
      "duration": 0.0083,
      "velocity": 99,
      "chip": "ym2612"
    },
    {
      "channel": 1,
      "note": 56,
      "start": 43.87,
      "duration": 0.0949,
      "velocity": 90,
      "chip": "ym2612"
    },
    {
      "channel": 4,
      "note": 84,
      "start": 43.8746,
      "duration": 0.009,
      "velocity": 99,
      "chip": "ym2612"
    },
    {
      "channel": 4,
      "note": 80,
      "start": 43.9151,
      "duration": 0.018,
      "velocity": 99,
      "chip": "ym2612"
    },
    {
      "channel": 0,
      "note": 68,
      "start": 43.9647,
      "duration": 0.5834,
      "velocity": 97,
      "chip": "ym2612"
    },
    {
      "channel": 1,
      "note": 53,
      "start": 43.9689,
      "duration": 0.1179,
      "velocity": 90,
      "chip": "ym2612"
    },
    {
      "channel": 2,
      "note": 60,
      "start": 43.9736,
      "duration": 0.8248,
      "velocity": 97,
      "chip": "ym2612"
    },
    {
      "channel": 3,
      "note": 60,
      "start": 43.9782,
      "duration": 0.5785,
      "velocity": 97,
      "chip": "ym2612"
    },
    {
      "channel": 4,
      "note": 65,
      "start": 43.9824,
      "duration": 0.0307,
      "velocity": 99,
      "chip": "ym2612"
    },
    {
      "channel": 4,
      "note": 68,
      "start": 44.0176,
      "duration": 0.0207,
      "velocity": 99,
      "chip": "ym2612"
    },
    {
      "channel": 1,
      "note": 53,
      "start": 44.0912,
      "duration": 0.1189,
      "velocity": 90,
      "chip": "ym2612"
    },
    {
      "channel": 4,
      "note": 72,
      "start": 44.0955,
      "duration": 0.01,
      "velocity": 99,
      "chip": "ym2612"
    },
    {
      "channel": 4,
      "note": 77,
      "start": 44.1371,
      "duration": 0.0176,
      "velocity": 99,
      "chip": "ym2612"
    },
    {
      "channel": 4,
      "note": 72,
      "start": 44.2199,
      "duration": 0.0141,
      "velocity": 99,
      "chip": "ym2612"
    },
    {
      "channel": 4,
      "note": 68,
      "start": 44.2615,
      "duration": 0.0465,
      "velocity": 99,
      "chip": "ym2612"
    },
    {
      "channel": 1,
      "note": 51,
      "start": 44.3078,
      "duration": 0.2445,
      "velocity": 90,
      "chip": "ym2612"
    },
    {
      "channel": 4,
      "note": 65,
      "start": 44.3124,
      "duration": 0.0255,
      "velocity": 99,
      "chip": "ym2612"
    },
    {
      "channel": 4,
      "note": 60,
      "start": 44.4241,
      "duration": 0.0262,
      "velocity": 99,
      "chip": "ym2612"
    },
    {
      "channel": 0,
      "note": 70,
      "start": 44.5521,
      "duration": 0.5834,
      "velocity": 97,
      "chip": "ym2612"
    },
    {
      "channel": 1,
      "note": 53,
      "start": 44.5564,
      "duration": 0.1186,
      "velocity": 90,
      "chip": "ym2612"
    },
    {
      "channel": 3,
      "note": 61,
      "start": 44.5606,
      "duration": 0.5873,
      "velocity": 97,
      "chip": "ym2612"
    },
    {
      "channel": 4,
      "note": 70,
      "start": 44.5646,
      "duration": 0.0123,
      "velocity": 99,
      "chip": "ym2612"
    },
    {
      "channel": 4,
      "note": 65,
      "start": 44.6023,
      "duration": 0.0177,
      "velocity": 99,
      "chip": "ym2612"
    },
    {
      "channel": 1,
      "note": 46,
      "start": 44.6794,
      "duration": 0.1239,
      "velocity": 90,
      "chip": "ym2612"
    },
    {
      "channel": 4,
      "note": 61,
      "start": 44.6837,
      "duration": 0.0125,
      "velocity": 99,
      "chip": "ym2612"
    },
    {
      "channel": 4,
      "note": 58,
      "start": 44.7242,
      "duration": 0.0083,
      "velocity": 99,
      "chip": "ym2612"
    },
    {
      "channel": 1,
      "note": 49,
      "start": 44.8072,
      "duration": 0.0866,
      "velocity": 90,
      "chip": "ym2612"
    },
    {
      "channel": 4,
      "note": 53,
      "start": 44.8118,
      "duration": 0.006,
      "velocity": 99,
      "chip": "ym2612"
    },
    {
      "channel": 4,
      "note": 49,
      "start": 44.8518,
      "duration": 0.0078,
      "velocity": 99,
      "chip": "ym2612"
    },
    {
      "channel": 1,
      "note": 57,
      "start": 44.8977,
      "duration": 0.2419,
      "velocity": 90,
      "chip": "ym2612"
    },
    {
      "channel": 4,
      "note": 46,
      "start": 44.902,
      "duration": 0.104,
      "velocity": 99,
      "chip": "ym2612"
    },
    {
      "channel": 4,
      "note": 49,
      "start": 45.0109,
      "duration": 0.0261,
      "velocity": 99,
      "chip": "ym2612"
    },
    {
      "channel": 0,
      "note": 65,
      "start": 45.1394,
      "duration": 1.0666,
      "velocity": 97,
      "chip": "ym2612"
    },
    {
      "channel": 1,
      "note": 53,
      "start": 45.1434,
      "duration": 0.1208,
      "velocity": 90,
      "chip": "ym2612"
    },
    {
      "channel": 2,
      "note": 65,
      "start": 45.1476,
      "duration": 1.0671,
      "velocity": 97,
      "chip": "ym2612"
    },
    {
      "channel": 3,
      "note": 60,
      "start": 45.1519,
      "duration": 1.0669,
      "velocity": 97,
      "chip": "ym2612"
    },
    {
      "channel": 4,
      "note": 53,
      "start": 45.1561,
      "duration": 0.0044,
      "velocity": 99,
      "chip": "ym2612"
    },
    {
      "channel": 4,
      "note": 56,
      "start": 45.1914,
      "duration": 0.0148,
      "velocity": 99,
      "chip": "ym2612"
    },
    {
      "channel": 1,
      "note": 53,
      "start": 45.269,
      "duration": 0.2412,
      "velocity": 90,
      "chip": "ym2612"
    },
    {
      "channel": 4,
      "note": 60,
      "start": 45.2743,
      "duration": 0.0109,
      "velocity": 99,
      "chip": "ym2612"
    },
    {
      "channel": 4,
      "note": 65,
      "start": 45.392,
      "duration": 0.0262,
      "velocity": 99,
      "chip": "ym2612"
    },
    {
      "channel": 4,
      "note": 68,
      "start": 45.5196,
      "duration": 0.0113,
      "velocity": 99,
      "chip": "ym2612"
    },
    {
      "channel": 4,
      "note": 72,
      "start": 45.5617,
      "duration": 0.0086,
      "velocity": 99,
      "chip": "ym2612"
    },
    {
      "channel": 1,
      "note": 51,
      "start": 45.6086,
      "duration": 0.155,
      "velocity": 90,
      "chip": "ym2612"
    },
    {
      "channel": 4,
      "note": 77,
      "start": 45.6129,
      "duration": 0.0069,
      "velocity": 99,
      "chip": "ym2612"
    },
    {
      "channel": 4,
      "note": 80,
      "start": 45.7207,
      "duration": 0.0048,
      "velocity": 99,
      "chip": "ym2612"
    },
    {
      "channel": 1,
      "note": 53,
      "start": 45.7675,
      "duration": 0.1252,
      "velocity": 90,
      "chip": "ym2612"
    },
    {
      "channel": 4,
      "note": 84,
      "start": 45.7719,
      "duration": 0.0018,
      "velocity": 99,
      "chip": "ym2612"
    },
    {
      "channel": 4,
      "note": 89,
      "start": 45.8132,
      "duration": 0.0047,
      "velocity": 99,
      "chip": "ym2612"
    },
    {
      "channel": 1,
      "note": 56,
      "start": 45.8966,
      "duration": 0.1235,
      "velocity": 90,
      "chip": "ym2612"
    },
    {
      "channel": 4,
      "note": 92,
      "start": 45.9013,
      "duration": 0.0123,
      "velocity": 99,
      "chip": "ym2612"
    },
    {
      "channel": 4,
      "note": 89,
      "start": 45.942,
      "duration": 0.011,
      "velocity": 99,
      "chip": "ym2612"
    },
    {
      "channel": 1,
      "note": 55,
      "start": 46.0246,
      "duration": 0.0885,
      "velocity": 90,
      "chip": "ym2612"
    },
    {
      "channel": 4,
      "note": 84,
      "start": 46.0288,
      "duration": 0.0063,
      "velocity": 99,
      "chip": "ym2612"
    },
    {
      "channel": 4,
      "note": 80,
      "start": 46.0697,
      "duration": 0.0112,
      "velocity": 99,
      "chip": "ym2612"
    },
    {
      "channel": 1,
      "note": 56,
      "start": 46.117,
      "duration": 0.0932,
      "velocity": 90,
      "chip": "ym2612"
    },
    {
      "channel": 4,
      "note": 77,
      "start": 46.1212,
      "duration": 0.0033,
      "velocity": 99,
      "chip": "ym2612"
    },
    {
      "channel": 4,
      "note": 72,
      "start": 46.1627,
      "duration": 0.0049,
      "velocity": 99,
      "chip": "ym2612"
    },
    {
      "channel": 0,
      "note": 68,
      "start": 46.2099,
      "duration": 0.7097,
      "velocity": 97,
      "chip": "ym2612"
    },
    {
      "channel": 1,
      "note": 49,
      "start": 46.2144,
      "duration": 0.1205,
      "velocity": 90,
      "chip": "ym2612"
    },
    {
      "channel": 2,
      "note": 60,
      "start": 46.2186,
      "duration": 1.2982,
      "velocity": 97,
      "chip": "ym2612"
    },
    {
      "channel": 3,
      "note": 56,
      "start": 46.2228,
      "duration": 0.7011,
      "velocity": 97,
      "chip": "ym2612"
    },
    {
      "channel": 4,
      "note": 49,
      "start": 46.227,
      "duration": 0.0044,
      "velocity": 99,
      "chip": "ym2612"
    },
    {
      "channel": 4,
      "note": 53,
      "start": 46.2626,
      "duration": 0.0112,
      "velocity": 99,
      "chip": "ym2612"
    },
    {
      "channel": 1,
      "note": 49,
      "start": 46.3397,
      "duration": 0.241,
      "velocity": 90,
      "chip": "ym2612"
    },
    {
      "channel": 4,
      "note": 56,
      "start": 46.3451,
      "duration": 0.0107,
      "velocity": 99,
      "chip": "ym2612"
    },
    {
      "channel": 4,
      "note": 61,
      "start": 46.4626,
      "duration": 0.0364,
      "velocity": 99,
      "chip": "ym2612"
    },
    {
      "channel": 4,
      "note": 65,
      "start": 46.5902,
      "duration": 0.0087,
      "velocity": 99,
      "chip": "ym2612"
    },
    {
      "channel": 4,
      "note": 68,
      "start": 46.6335,
      "duration": 0.0143,
      "velocity": 99,
      "chip": "ym2612"
    },
    {
      "channel": 1,
      "note": 49,
      "start": 46.6791,
      "duration": 0.2353,
      "velocity": 90,
      "chip": "ym2612"
    },
    {
      "channel": 4,
      "note": 73,
      "start": 46.6838,
      "duration": 0.1071,
      "velocity": 99,
      "chip": "ym2612"
    },
    {
      "channel": 4,
      "note": 68,
      "start": 46.7957,
      "duration": 0.1325,
      "velocity": 99,
      "chip": "ym2612"
    },
    {
      "channel": 0,
      "note": 70,
      "start": 46.9236,
      "duration": 0.5847,
      "velocity": 97,
      "chip": "ym2612"
    },
    {
      "channel": 3,
      "note": 53,
      "start": 46.9279,
      "duration": 0.5931,
      "velocity": 97,
      "chip": "ym2612"
    },
    {
      "channel": 4,
      "note": 73,
      "start": 46.9323,
      "duration": 0.0143,
      "velocity": 99,
      "chip": "ym2612"
    },
    {
      "channel": 4,
      "note": 68,
      "start": 46.9714,
      "duration": 0.0112,
      "velocity": 99,
      "chip": "ym2612"
    },
    {
      "channel": 1,
      "note": 49,
      "start": 47.0512,
      "duration": 0.1234,
      "velocity": 90,
      "chip": "ym2612"
    },
    {
      "channel": 4,
      "note": 65,
      "start": 47.0559,
      "duration": 0.0061,
      "velocity": 99,
      "chip": "ym2612"
    },
    {
      "channel": 4,
      "note": 61,
      "start": 47.0963,
      "duration": 0.0078,
      "velocity": 99,
      "chip": "ym2612"
    },
    {
      "channel": 1,
      "note": 53,
      "start": 47.1786,
      "duration": 0.0874,
      "velocity": 90,
      "chip": "ym2612"
    },
    {
      "channel": 4,
      "note": 56,
      "start": 47.1833,
      "duration": 0.0065,
      "velocity": 99,
      "chip": "ym2612"
    },
    {
      "channel": 4,
      "note": 53,
      "start": 47.2239,
      "duration": 0.0114,
      "velocity": 99,
      "chip": "ym2612"
    },
    {
      "channel": 1,
      "note": 51,
      "start": 47.27,
      "duration": 0.2425,
      "velocity": 90,
      "chip": "ym2612"
    },
    {
      "channel": 4,
      "note": 49,
      "start": 47.2742,
      "duration": 0.1046,
      "velocity": 99,
      "chip": "ym2612"
    },
    {
      "channel": 4,
      "note": 53,
      "start": 47.3834,
      "duration": 0.0262,
      "velocity": 99,
      "chip": "ym2612"
    },
    {
      "channel": 0,
      "note": 67,
      "start": 47.5122,
      "duration": 0.7548,
      "velocity": 97,
      "chip": "ym2612"
    },
    {
      "channel": 1,
      "note": 48,
      "start": 47.5165,
      "duration": 0.1188,
      "velocity": 90,
      "chip": "ym2612"
    },
    {
      "channel": 2,
      "note": 60,
      "start": 47.5208,
      "duration": 2.285,
      "velocity": 97,
      "chip": "ym2612"
    },
    {
      "channel": 3,
      "note": 55,
      "start": 47.5249,
      "duration": 0.751,
      "velocity": 97,
      "chip": "ym2612"
    },
    {
      "channel": 4,
      "note": 60,
      "start": 47.5296,
      "duration": 0.003,
      "velocity": 99,
      "chip": "ym2612"
    },
    {
      "channel": 4,
      "note": 63,
      "start": 47.5664,
      "duration": 0.008,
      "velocity": 99,
      "chip": "ym2612"
    },
    {
      "channel": 1,
      "note": 48,
      "start": 47.6399,
      "duration": 0.1178,
      "velocity": 90,
      "chip": "ym2612"
    },
    {
      "channel": 4,
      "note": 67,
      "start": 47.6441,
      "duration": 0.0015,
      "velocity": 99,
      "chip": "ym2612"
    },
    {
      "channel": 4,
      "note": 72,
      "start": 47.6849,
      "duration": 0.0045,
      "velocity": 99,
      "chip": "ym2612"
    },
    {
      "channel": 4,
      "note": 75,
      "start": 47.7672,
      "duration": 0.0022,
      "velocity": 99,
      "chip": "ym2612"
    },
    {
      "channel": 4,
      "note": 79,
      "start": 47.8099,
      "duration": 0.0051,
      "velocity": 99,
      "chip": "ym2612"
    },
    {
      "channel": 1,
      "note": 48,
      "start": 47.8562,
      "duration": 0.1545,
      "velocity": 90,
      "chip": "ym2612"
    },
    {
      "channel": 4,
      "note": 84,
      "start": 47.8605,
      "duration": 0.0068,
      "velocity": 99,
      "chip": "ym2612"
    },
    {
      "channel": 4,
      "note": 87,
      "start": 47.9685,
      "duration": 0.008,
      "velocity": 99,
      "chip": "ym2612"
    },
    {
      "channel": 1,
      "note": 55,
      "start": 48.0148,
      "duration": 0.125,
      "velocity": 90,
      "chip": "ym2612"
    },
    {
      "channel": 4,
      "note": 91,
      "start": 48.019,
      "duration": 0.0097,
      "velocity": 99,
      "chip": "ym2612"
    },
    {
      "channel": 4,
      "note": 87,
      "start": 48.0601,
      "duration": 0.0081,
      "velocity": 99,
      "chip": "ym2612"
    },
    {
      "channel": 1,
      "note": 48,
      "start": 48.1441,
      "duration": 0.1272,
      "velocity": 90,
      "chip": "ym2612"
    },
    {
      "channel": 4,
      "note": 84,
      "start": 48.1483,
      "duration": 0.0031,
      "velocity": 99,
      "chip": "ym2612"
    },
    {
      "channel": 4,
      "note": 87,
      "start": 48.1887,
      "duration": 0.0108,
      "velocity": 99,
      "chip": "ym2612"
    },
    {
      "channel": 0,
      "note": 63,
      "start": 48.2711,
      "duration": 0.2249,
      "velocity": 97,
      "chip": "ym2612"
    },
    {
      "channel": 1,
      "note": 60,
      "start": 48.2756,
      "duration": 0.0907,
      "velocity": 90,
      "chip": "ym2612"
    },
    {
      "channel": 3,
      "note": 55,
      "start": 48.2802,
      "duration": 0.2242,
      "velocity": 97,
      "chip": "ym2612"
    },
    {
      "channel": 4,
      "note": 84,
      "start": 48.2843,
      "duration": 0.0024,
      "velocity": 99,
      "chip": "ym2612"
    },
    {
      "channel": 4,
      "note": 79,
      "start": 48.3225,
      "duration": 0.0049,
      "velocity": 99,
      "chip": "ym2612"
    },
    {
      "channel": 1,
      "note": 58,
      "start": 48.3702,
      "duration": 0.13,
      "velocity": 90,
      "chip": "ym2612"
    },
    {
      "channel": 4,
      "note": 75,
      "start": 48.3745,
      "duration": 0.0032,
      "velocity": 99,
      "chip": "ym2612"
    },
    {
      "channel": 4,
      "note": 72,
      "start": 48.4154,
      "duration": 0.0048,
      "velocity": 99,
      "chip": "ym2612"
    },
    {
      "channel": 0,
      "note": 65,
      "start": 48.5,
      "duration": 2.0783,
      "velocity": 97,
      "chip": "ym2612"
    },
    {
      "channel": 1,
      "note": 53,
      "start": 48.5042,
      "duration": 0.1214,
      "velocity": 90,
      "chip": "ym2612"
    },
    {
      "channel": 3,
      "note": 53,
      "start": 48.5085,
      "duration": 2.0783,
      "velocity": 97,
      "chip": "ym2612"
    },
    {
      "channel": 4,
      "note": 53,
      "start": 48.5125,
      "duration": 0.0056,
      "velocity": 99,
      "chip": "ym2612"
    },
    {
      "channel": 4,
      "note": 56,
      "start": 48.549,
      "duration": 0.0114,
      "velocity": 99,
      "chip": "ym2612"
    },
    {
      "channel": 1,
      "note": 53,
      "start": 48.6303,
      "duration": 0.2411,
      "velocity": 90,
      "chip": "ym2612"
    },
    {
      "channel": 4,
      "note": 60,
      "start": 48.6357,
      "duration": 0.0023,
      "velocity": 99,
      "chip": "ym2612"
    },
    {
      "channel": 4,
      "note": 65,
      "start": 48.7535,
      "duration": 0.0261,
      "velocity": 99,
      "chip": "ym2612"
    },
    {
      "channel": 4,
      "note": 68,
      "start": 48.8807,
      "duration": 0.0111,
      "velocity": 99,
      "chip": "ym2612"
    },
    {
      "channel": 4,
      "note": 72,
      "start": 48.9232,
      "duration": 0.0115,
      "velocity": 99,
      "chip": "ym2612"
    },
    {
      "channel": 1,
      "note": 51,
      "start": 48.9699,
      "duration": 0.239,
      "velocity": 90,
      "chip": "ym2612"
    },
    {
      "channel": 4,
      "note": 77,
      "start": 48.9741,
      "duration": 0.1071,
      "velocity": 99,
      "chip": "ym2612"
    },
    {
      "channel": 4,
      "note": 72,
      "start": 49.0859,
      "duration": 0.016,
      "velocity": 99,
      "chip": "ym2612"
    },
    {
      "channel": 1,
      "note": 53,
      "start": 49.2129,
      "duration": 0.1262,
      "velocity": 90,
      "chip": "ym2612"
    },
    {
      "channel": 4,
      "note": 80,
      "start": 49.2178,
      "duration": 0.0103,
      "velocity": 99,
      "chip": "ym2612"
    },
    {
      "channel": 4,
      "note": 77,
      "start": 49.2587,
      "duration": 0.0082,
      "velocity": 99,
      "chip": "ym2612"
    },
    {
      "channel": 1,
      "note": 56,
      "start": 49.3437,
      "duration": 0.1234,
      "velocity": 90,
      "chip": "ym2612"
    },
    {
      "channel": 4,
      "note": 72,
      "start": 49.3479,
      "duration": 0.003,
      "velocity": 99,
      "chip": "ym2612"
    },
    {
      "channel": 4,
      "note": 68,
      "start": 49.3883,
      "duration": 0.0085,
      "velocity": 99,
      "chip": "ym2612"
    },
    {
      "channel": 1,
      "note": 55,
      "start": 49.471,
      "duration": 0.0876,
      "velocity": 90,
      "chip": "ym2612"
    },
    {
      "channel": 4,
      "note": 72,
      "start": 49.4756,
      "duration": 0.0095,
      "velocity": 99,
      "chip": "ym2612"
    },
    {
      "channel": 4,
      "note": 68,
      "start": 49.517,
      "duration": 0.0112,
      "velocity": 99,
      "chip": "ym2612"
    },
    {
      "channel": 1,
      "note": 56,
      "start": 49.5629,
      "duration": 0.2388,
      "velocity": 90,
      "chip": "ym2612"
    },
    {
      "channel": 4,
      "note": 65,
      "start": 49.5673,
      "duration": 0.0245,
      "velocity": 99,
      "chip": "ym2612"
    },
    {
      "channel": 4,
      "note": 68,
      "start": 49.6782,
      "duration": 0.0466,
      "velocity": 99,
      "chip": "ym2612"
    },
    {
      "channel": 1,
      "note": 53,
      "start": 49.8056,
      "duration": 0.0914,
      "velocity": 90,
      "chip": "ym2612"
    },
    {
      "channel": 2,
      "note": 65,
      "start": 49.8098,
      "duration": 0.7641,
      "velocity": 97,
      "chip": "ym2612"
    },
    {
      "channel": 4,
      "note": 65,
      "start": 49.8142,
      "duration": 0.0076,
      "velocity": 99,
      "chip": "ym2612"
    },
    {
      "channel": 4,
      "note": 68,
      "start": 49.8558,
      "duration": 0.0079,
      "velocity": 99,
      "chip": "ym2612"
    },
    {
      "channel": 1,
      "note": 53,
      "start": 49.9013,
      "duration": 0.1201,
      "velocity": 90,
      "chip": "ym2612"
    },
    {
      "channel": 4,
      "note": 72,
      "start": 49.9056,
      "duration": 0.0014,
      "velocity": 99,
      "chip": "ym2612"
    },
    {
      "channel": 4,
      "note": 77,
      "start": 49.984,
      "duration": 0.008,
      "velocity": 99,
      "chip": "ym2612"
    },
    {
      "channel": 4,
      "note": 80,
      "start": 50.0301,
      "duration": 0.0078,
      "velocity": 99,
      "chip": "ym2612"
    },
    {
      "channel": 4,
      "note": 84,
      "start": 50.0722,
      "duration": 0.0114,
      "velocity": 99,
      "chip": "ym2612"
    },
    {
      "channel": 1,
      "note": 51,
      "start": 50.1191,
      "duration": 0.0862,
      "velocity": 90,
      "chip": "ym2612"
    },
    {
      "channel": 4,
      "note": 89,
      "start": 50.1235,
      "duration": 0.0362,
      "velocity": 99,
      "chip": "ym2612"
    },
    {
      "channel": 4,
      "note": 84,
      "start": 50.164,
      "duration": 0.0047,
      "velocity": 99,
      "chip": "ym2612"
    },
    {
      "channel": 1,
      "note": 53,
      "start": 50.2094,
      "duration": 0.0906,
      "velocity": 90,
      "chip": "ym2612"
    },
    {
      "channel": 4,
      "note": 92,
      "start": 50.2137,
      "duration": 0.0095,
      "velocity": 99,
      "chip": "ym2612"
    },
    {
      "channel": 4,
      "note": 89,
      "start": 50.2557,
      "duration": 0.0051,
      "velocity": 99,
      "chip": "ym2612"
    },
    {
      "channel": 1,
      "note": 60,
      "start": 50.304,
      "duration": 0.0905,
      "velocity": 90,
      "chip": "ym2612"
    },
    {
      "channel": 4,
      "note": 84,
      "start": 50.3082,
      "duration": 0.0038,
      "velocity": 99,
      "chip": "ym2612"
    },
    {
      "channel": 4,
      "note": 80,
      "start": 50.3491,
      "duration": 0.0073,
      "velocity": 99,
      "chip": "ym2612"
    },
    {
      "channel": 1,
      "note": 58,
      "start": 50.3983,
      "duration": 0.086,
      "velocity": 90,
      "chip": "ym2612"
    },
    {
      "channel": 4,
      "note": 84,
      "start": 50.4028,
      "duration": 0.0096,
      "velocity": 99,
      "chip": "ym2612"
    },
    {
      "channel": 4,
      "note": 80,
      "start": 50.4428,
      "duration": 0.0107,
      "velocity": 99,
      "chip": "ym2612"
    },
    {
      "channel": 1,
      "note": 56,
      "start": 50.4883,
      "duration": 0.0942,
      "velocity": 90,
      "chip": "ym2612"
    },
    {
      "channel": 4,
      "note": 77,
      "start": 50.493,
      "duration": 0.006,
      "velocity": 99,
      "chip": "ym2612"
    },
    {
      "channel": 4,
      "note": 80,
      "start": 50.5332,
      "duration": 0.0151,
      "velocity": 99,
      "chip": "ym2612"
    },
    {
      "channel": 0,
      "note": 41,
      "start": 50.5823,
      "duration": 0.1266,
      "velocity": 87,
      "chip": "ym2612"
    },
    {
      "channel": 1,
      "note": 53,
      "start": 50.5864,
      "duration": 0.1275,
      "velocity": 90,
      "chip": "ym2612"
    },
    {
      "channel": 3,
      "note": 53,
      "start": 50.5909,
      "duration": 0.1284,
      "velocity": 85,
      "chip": "ym2612"
    },
    {
      "channel": 0,
      "note": 41,
      "start": 50.7135,
      "duration": 0.2461,
      "velocity": 87,
      "chip": "ym2612"
    },
    {
      "channel": 1,
      "note": 53,
      "start": 50.7187,
      "duration": 0.2451,
      "velocity": 90,
      "chip": "ym2612"
    },
    {
      "channel": 3,
      "note": 53,
      "start": 50.7241,
      "duration": 0.2444,
      "velocity": 85,
      "chip": "ym2612"
    },
    {
      "channel": 0,
      "note": 39,
      "start": 50.9635,
      "duration": 0.0845,
      "velocity": 87,
      "chip": "ym2612"
    },
    {
      "channel": 1,
      "note": 51,
      "start": 50.9678,
      "duration": 0.0845,
      "velocity": 90,
      "chip": "ym2612"
    },
    {
      "channel": 3,
      "note": 51,
      "start": 50.9724,
      "duration": 0.0841,
      "velocity": 85,
      "chip": "ym2612"
    },
    {
      "channel": 0,
      "note": 41,
      "start": 51.0521,
      "duration": 0.2388,
      "velocity": 87,
      "chip": "ym2612"
    },
    {
      "channel": 1,
      "note": 53,
      "start": 51.0561,
      "duration": 0.239,
      "velocity": 90,
      "chip": "ym2612"
    },
    {
      "channel": 3,
      "note": 53,
      "start": 51.0605,
      "duration": 0.2392,
      "velocity": 85,
      "chip": "ym2612"
    },
    {
      "channel": 0,
      "note": 41,
      "start": 51.2949,
      "duration": 0.1194,
      "velocity": 87,
      "chip": "ym2612"
    },
    {
      "channel": 1,
      "note": 53,
      "start": 51.299,
      "duration": 0.1162,
      "velocity": 90,
      "chip": "ym2612"
    },
    {
      "channel": 3,
      "note": 53,
      "start": 51.3036,
      "duration": 0.1126,
      "velocity": 85,
      "chip": "ym2612"
    },
    {
      "channel": 0,
      "note": 41,
      "start": 52.1505,
      "duration": 0.2459,
      "velocity": 87,
      "chip": "ym2612"
    },
    {
      "channel": 1,
      "note": 53,
      "start": 52.1556,
      "duration": 0.2452,
      "velocity": 90,
      "chip": "ym2612"
    },
    {
      "channel": 3,
      "note": 53,
      "start": 52.1609,
      "duration": 0.2445,
      "velocity": 85,
      "chip": "ym2612"
    },
    {
      "channel": 0,
      "note": 39,
      "start": 52.4006,
      "duration": 0.0853,
      "velocity": 87,
      "chip": "ym2612"
    },
    {
      "channel": 1,
      "note": 51,
      "start": 52.4046,
      "duration": 0.0854,
      "velocity": 90,
      "chip": "ym2612"
    },
    {
      "channel": 3,
      "note": 51,
      "start": 52.4093,
      "duration": 0.0851,
      "velocity": 85,
      "chip": "ym2612"
    },
    {
      "channel": 0,
      "note": 41,
      "start": 52.4898,
      "duration": 0.234,
      "velocity": 87,
      "chip": "ym2612"
    },
    {
      "channel": 1,
      "note": 53,
      "start": 52.4941,
      "duration": 0.2306,
      "velocity": 90,
      "chip": "ym2612"
    },
    {
      "channel": 3,
      "note": 53,
      "start": 52.4983,
      "duration": 0.2273,
      "velocity": 85,
      "chip": "ym2612"
    },
    {
      "channel": 0,
      "note": 44,
      "start": 52.8685,
      "duration": 0.5822,
      "velocity": 87,
      "chip": "ym2612"
    },
    {
      "channel": 1,
      "note": 56,
      "start": 52.8737,
      "duration": 0.5811,
      "velocity": 90,
      "chip": "ym2612"
    },
    {
      "channel": 3,
      "note": 56,
      "start": 52.8791,
      "duration": 0.5809,
      "velocity": 85,
      "chip": "ym2612"
    },
    {
      "channel": 0,
      "note": 41,
      "start": 53.4546,
      "duration": 0.1296,
      "velocity": 87,
      "chip": "ym2612"
    },
    {
      "channel": 1,
      "note": 53,
      "start": 53.4591,
      "duration": 0.1303,
      "velocity": 90,
      "chip": "ym2612"
    },
    {
      "channel": 3,
      "note": 53,
      "start": 53.4638,
      "duration": 0.1309,
      "velocity": 85,
      "chip": "ym2612"
    },
    {
      "channel": 0,
      "note": 41,
      "start": 53.589,
      "duration": 0.2459,
      "velocity": 87,
      "chip": "ym2612"
    },
    {
      "channel": 1,
      "note": 53,
      "start": 53.5941,
      "duration": 0.2453,
      "velocity": 90,
      "chip": "ym2612"
    },
    {
      "channel": 3,
      "note": 53,
      "start": 53.5994,
      "duration": 0.2442,
      "velocity": 85,
      "chip": "ym2612"
    },
    {
      "channel": 0,
      "note": 39,
      "start": 53.8392,
      "duration": 0.0849,
      "velocity": 87,
      "chip": "ym2612"
    },
    {
      "channel": 1,
      "note": 51,
      "start": 53.8432,
      "duration": 0.0853,
      "velocity": 90,
      "chip": "ym2612"
    },
    {
      "channel": 3,
      "note": 51,
      "start": 53.8476,
      "duration": 0.0858,
      "velocity": 85,
      "chip": "ym2612"
    },
    {
      "channel": 0,
      "note": 41,
      "start": 53.9283,
      "duration": 0.2399,
      "velocity": 87,
      "chip": "ym2612"
    },
    {
      "channel": 1,
      "note": 53,
      "start": 53.933,
      "duration": 0.2395,
      "velocity": 90,
      "chip": "ym2612"
    },
    {
      "channel": 3,
      "note": 53,
      "start": 53.9378,
      "duration": 0.2395,
      "velocity": 85,
      "chip": "ym2612"
    },
    {
      "channel": 0,
      "note": 41,
      "start": 54.1722,
      "duration": 0.1194,
      "velocity": 87,
      "chip": "ym2612"
    },
    {
      "channel": 1,
      "note": 53,
      "start": 54.1765,
      "duration": 0.116,
      "velocity": 90,
      "chip": "ym2612"
    },
    {
      "channel": 3,
      "note": 53,
      "start": 54.1811,
      "duration": 0.1123,
      "velocity": 85,
      "chip": "ym2612"
    },
    {
      "channel": 0,
      "note": 41,
      "start": 54.9741,
      "duration": 0.1232,
      "velocity": 87,
      "chip": "ym2612"
    },
    {
      "channel": 1,
      "note": 53,
      "start": 54.9783,
      "duration": 0.1233,
      "velocity": 90,
      "chip": "ym2612"
    },
    {
      "channel": 3,
      "note": 53,
      "start": 54.9827,
      "duration": 0.1237,
      "velocity": 85,
      "chip": "ym2612"
    },
    {
      "channel": 0,
      "note": 43,
      "start": 55.1013,
      "duration": 0.0858,
      "velocity": 87,
      "chip": "ym2612"
    },
    {
      "channel": 1,
      "note": 55,
      "start": 55.1055,
      "duration": 0.0858,
      "velocity": 90,
      "chip": "ym2612"
    },
    {
      "channel": 3,
      "note": 55,
      "start": 55.1102,
      "duration": 0.0853,
      "velocity": 85,
      "chip": "ym2612"
    },
    {
      "channel": 0,
      "note": 41,
      "start": 55.191,
      "duration": 0.1246,
      "velocity": 87,
      "chip": "ym2612"
    },
    {
      "channel": 1,
      "note": 53,
      "start": 55.1952,
      "duration": 0.1249,
      "velocity": 90,
      "chip": "ym2612"
    },
    {
      "channel": 3,
      "note": 53,
      "start": 55.1995,
      "duration": 0.125,
      "velocity": 85,
      "chip": "ym2612"
    },
    {
      "channel": 0,
      "note": 44,
      "start": 55.3195,
      "duration": 0.0861,
      "velocity": 87,
      "chip": "ym2612"
    },
    {
      "channel": 1,
      "note": 56,
      "start": 55.3241,
      "duration": 0.0857,
      "velocity": 90,
      "chip": "ym2612"
    },
    {
      "channel": 3,
      "note": 56,
      "start": 55.3285,
      "duration": 0.0855,
      "velocity": 85,
      "chip": "ym2612"
    },
    {
      "channel": 0,
      "note": 41,
      "start": 55.4096,
      "duration": 0.123,
      "velocity": 87,
      "chip": "ym2612"
    },
    {
      "channel": 1,
      "note": 53,
      "start": 55.4138,
      "duration": 0.1229,
      "velocity": 90,
      "chip": "ym2612"
    },
    {
      "channel": 3,
      "note": 53,
      "start": 55.418,
      "duration": 0.1232,
      "velocity": 85,
      "chip": "ym2612"
    },
    {
      "channel": 0,
      "note": 47,
      "start": 55.5364,
      "duration": 0.0967,
      "velocity": 87,
      "chip": "ym2612"
    },
    {
      "channel": 1,
      "note": 59,
      "start": 55.5405,
      "duration": 0.0968,
      "velocity": 90,
      "chip": "ym2612"
    },
    {
      "channel": 3,
      "note": 59,
      "start": 55.5452,
      "duration": 0.0971,
      "velocity": 85,
      "chip": "ym2612"
    },
    {
      "channel": 0,
      "note": 48,
      "start": 55.637,
      "duration": 0.1,
      "velocity": 87,
      "chip": "ym2612"
    },
    {
      "channel": 1,
      "note": 60,
      "start": 55.6413,
      "duration": 0.1002,
      "velocity": 90,
      "chip": "ym2612"
    },
    {
      "channel": 3,
      "note": 60,
      "start": 55.6461,
      "duration": 0.1036,
      "velocity": 85,
      "chip": "ym2612"
    },
    {
      "channel": 0,
      "note": 41,
      "start": 55.7414,
      "duration": 0.1272,
      "velocity": 87,
      "chip": "ym2612"
    },
    {
      "channel": 1,
      "note": 53,
      "start": 55.7454,
      "duration": 0.1284,
      "velocity": 90,
      "chip": "ym2612"
    },
    {
      "channel": 2,
      "note": 71,
      "start": 55.7494,
      "duration": 0.1107,
      "velocity": 127,
      "chip": "ym2612"
    },
    {
      "channel": 3,
      "note": 53,
      "start": 55.7537,
      "duration": 0.1257,
      "velocity": 85,
      "chip": "ym2612"
    },
    {
      "channel": 4,
      "note": 68,
      "start": 55.7584,
      "duration": 0.1263,
      "velocity": 89,
      "chip": "ym2612"
    },
    {
      "channel": 0,
      "note": 41,
      "start": 55.8734,
      "duration": 0.247,
      "velocity": 87,
      "chip": "ym2612"
    },
    {
      "channel": 1,
      "note": 53,
      "start": 55.8786,
      "duration": 0.2461,
      "velocity": 90,
      "chip": "ym2612"
    },
    {
      "channel": 3,
      "note": 53,
      "start": 55.8842,
      "duration": 0.2487,
      "velocity": 85,
      "chip": "ym2612"
    },
    {
      "channel": 4,
      "note": 68,
      "start": 55.8894,
      "duration": 0.248,
      "velocity": 89,
      "chip": "ym2612"
    },
    {
      "channel": 0,
      "note": 39,
      "start": 56.1244,
      "duration": 0.0891,
      "velocity": 87,
      "chip": "ym2612"
    },
    {
      "channel": 1,
      "note": 51,
      "start": 56.1286,
      "duration": 0.0893,
      "velocity": 90,
      "chip": "ym2612"
    },
    {
      "channel": 2,
      "note": 71,
      "start": 56.1327,
      "duration": 0.0776,
      "velocity": 127,
      "chip": "ym2612"
    },
    {
      "channel": 3,
      "note": 51,
      "start": 56.1372,
      "duration": 0.0854,
      "velocity": 85,
      "chip": "ym2612"
    },
    {
      "channel": 4,
      "note": 67,
      "start": 56.1415,
      "duration": 0.0854,
      "velocity": 89,
      "chip": "ym2612"
    },
    {
      "channel": 0,
      "note": 41,
      "start": 56.2178,
      "duration": 0.2314,
      "velocity": 87,
      "chip": "ym2612"
    },
    {
      "channel": 1,
      "note": 53,
      "start": 56.2218,
      "duration": 0.2319,
      "velocity": 90,
      "chip": "ym2612"
    },
    {
      "channel": 3,
      "note": 53,
      "start": 56.2266,
      "duration": 0.2356,
      "velocity": 85,
      "chip": "ym2612"
    },
    {
      "channel": 4,
      "note": 68,
      "start": 56.2308,
      "duration": 0.2358,
      "velocity": 89,
      "chip": "ym2612"
    },
    {
      "channel": 0,
      "note": 41,
      "start": 56.4535,
      "duration": 0.1172,
      "velocity": 87,
      "chip": "ym2612"
    },
    {
      "channel": 1,
      "note": 53,
      "start": 56.4581,
      "duration": 0.1135,
      "velocity": 90,
      "chip": "ym2612"
    },
    {
      "channel": 2,
      "note": 71,
      "start": 56.462,
      "duration": 0.1104,
      "velocity": 127,
      "chip": "ym2612"
    },
    {
      "channel": 3,
      "note": 53,
      "start": 56.4663,
      "duration": 0.107,
      "velocity": 85,
      "chip": "ym2612"
    },
    {
      "channel": 4,
      "note": 68,
      "start": 56.4706,
      "duration": 0.1037,
      "velocity": 89,
      "chip": "ym2612"
    },
    {
      "channel": 2,
      "note": 71,
      "start": 56.835,
      "duration": 0.0759,
      "velocity": 127,
      "chip": "ym2612"
    },
    {
      "channel": 2,
      "note": 71,
      "start": 57.1693,
      "duration": 0.1222,
      "velocity": 127,
      "chip": "ym2612"
    },
    {
      "channel": 0,
      "note": 41,
      "start": 57.3049,
      "duration": 0.2473,
      "velocity": 87,
      "chip": "ym2612"
    },
    {
      "channel": 1,
      "note": 53,
      "start": 57.31,
      "duration": 0.2466,
      "velocity": 90,
      "chip": "ym2612"
    },
    {
      "channel": 3,
      "note": 53,
      "start": 57.3158,
      "duration": 0.25,
      "velocity": 85,
      "chip": "ym2612"
    },
    {
      "channel": 4,
      "note": 68,
      "start": 57.3209,
      "duration": 0.249,
      "velocity": 89,
      "chip": "ym2612"
    },
    {
      "channel": 0,
      "note": 39,
      "start": 57.5564,
      "duration": 0.091,
      "velocity": 87,
      "chip": "ym2612"
    },
    {
      "channel": 1,
      "note": 51,
      "start": 57.5611,
      "duration": 0.0905,
      "velocity": 90,
      "chip": "ym2612"
    },
    {
      "channel": 2,
      "note": 71,
      "start": 57.5651,
      "duration": 0.0787,
      "velocity": 127,
      "chip": "ym2612"
    },
    {
      "channel": 3,
      "note": 51,
      "start": 57.5696,
      "duration": 0.0862,
      "velocity": 85,
      "chip": "ym2612"
    },
    {
      "channel": 4,
      "note": 67,
      "start": 57.5739,
      "duration": 0.0865,
      "velocity": 89,
      "chip": "ym2612"
    },
    {
      "channel": 0,
      "note": 41,
      "start": 57.6513,
      "duration": 0.2256,
      "velocity": 87,
      "chip": "ym2612"
    },
    {
      "channel": 1,
      "note": 53,
      "start": 57.6554,
      "duration": 0.2223,
      "velocity": 90,
      "chip": "ym2612"
    },
    {
      "channel": 3,
      "note": 53,
      "start": 57.6596,
      "duration": 0.2199,
      "velocity": 85,
      "chip": "ym2612"
    },
    {
      "channel": 4,
      "note": 68,
      "start": 57.6643,
      "duration": 0.2161,
      "velocity": 89,
      "chip": "ym2612"
    },
    {
      "channel": 2,
      "note": 71,
      "start": 57.8877,
      "duration": 0.1202,
      "velocity": 127,
      "chip": "ym2612"
    },
    {
      "channel": 0,
      "note": 44,
      "start": 58.0184,
      "duration": 0.457,
      "velocity": 87,
      "chip": "ym2612"
    },
    {
      "channel": 1,
      "note": 56,
      "start": 58.0227,
      "duration": 0.4573,
      "velocity": 90,
      "chip": "ym2612"
    },
    {
      "channel": 3,
      "note": 56,
      "start": 58.0272,
      "duration": 0.4618,
      "velocity": 85,
      "chip": "ym2612"
    },
    {
      "channel": 4,
      "note": 72,
      "start": 58.0312,
      "duration": 0.462,
      "velocity": 89,
      "chip": "ym2612"
    },
    {
      "channel": 2,
      "note": 71,
      "start": 58.1438,
      "duration": 0.0754,
      "velocity": 127,
      "chip": "ym2612"
    },
    {
      "channel": 0,
      "note": 41,
      "start": 58.4797,
      "duration": 0.1273,
      "velocity": 87,
      "chip": "ym2612"
    },
    {
      "channel": 1,
      "note": 53,
      "start": 58.4844,
      "duration": 0.1278,
      "velocity": 90,
      "chip": "ym2612"
    },
    {
      "channel": 2,
      "note": 71,
      "start": 58.4884,
      "duration": 0.1099,
      "velocity": 127,
      "chip": "ym2612"
    },
    {
      "channel": 3,
      "note": 53,
      "start": 58.4929,
      "duration": 0.1249,
      "velocity": 85,
      "chip": "ym2612"
    },
    {
      "channel": 4,
      "note": 68,
      "start": 58.4971,
      "duration": 0.1259,
      "velocity": 89,
      "chip": "ym2612"
    },
    {
      "channel": 0,
      "note": 41,
      "start": 58.6118,
      "duration": 0.2469,
      "velocity": 87,
      "chip": "ym2612"
    },
    {
      "channel": 1,
      "note": 53,
      "start": 58.617,
      "duration": 0.246,
      "velocity": 90,
      "chip": "ym2612"
    },
    {
      "channel": 3,
      "note": 53,
      "start": 58.6226,
      "duration": 0.2495,
      "velocity": 85,
      "chip": "ym2612"
    },
    {
      "channel": 4,
      "note": 68,
      "start": 58.6278,
      "duration": 0.2484,
      "velocity": 89,
      "chip": "ym2612"
    },
    {
      "channel": 0,
      "note": 39,
      "start": 58.8627,
      "duration": 0.0907,
      "velocity": 87,
      "chip": "ym2612"
    },
    {
      "channel": 1,
      "note": 51,
      "start": 58.8673,
      "duration": 0.0903,
      "velocity": 90,
      "chip": "ym2612"
    },
    {
      "channel": 2,
      "note": 71,
      "start": 58.8718,
      "duration": 0.0779,
      "velocity": 127,
      "chip": "ym2612"
    },
    {
      "channel": 3,
      "note": 51,
      "start": 58.8759,
      "duration": 0.0862,
      "velocity": 85,
      "chip": "ym2612"
    },
    {
      "channel": 4,
      "note": 67,
      "start": 58.8804,
      "duration": 0.0863,
      "velocity": 89,
      "chip": "ym2612"
    },
    {
      "channel": 0,
      "note": 41,
      "start": 58.9573,
      "duration": 0.2317,
      "velocity": 87,
      "chip": "ym2612"
    },
    {
      "channel": 1,
      "note": 53,
      "start": 58.9618,
      "duration": 0.2315,
      "velocity": 90,
      "chip": "ym2612"
    },
    {
      "channel": 3,
      "note": 53,
      "start": 58.9659,
      "duration": 0.2356,
      "velocity": 85,
      "chip": "ym2612"
    },
    {
      "channel": 4,
      "note": 68,
      "start": 58.9705,
      "duration": 0.2353,
      "velocity": 89,
      "chip": "ym2612"
    },
    {
      "channel": 0,
      "note": 41,
      "start": 59.1931,
      "duration": 0.1162,
      "velocity": 87,
      "chip": "ym2612"
    },
    {
      "channel": 1,
      "note": 53,
      "start": 59.1972,
      "duration": 0.1129,
      "velocity": 90,
      "chip": "ym2612"
    },
    {
      "channel": 2,
      "note": 71,
      "start": 59.2013,
      "duration": 0.1097,
      "velocity": 127,
      "chip": "ym2612"
    },
    {
      "channel": 3,
      "note": 53,
      "start": 59.2055,
      "duration": 0.1064,
      "velocity": 85,
      "chip": "ym2612"
    },
    {
      "channel": 4,
      "note": 68,
      "start": 59.2098,
      "duration": 0.103,
      "velocity": 89,
      "chip": "ym2612"
    },
    {
      "channel": 2,
      "note": 71,
      "start": 59.4493,
      "duration": 0.0755,
      "velocity": 127,
      "chip": "ym2612"
    },
    {
      "channel": 2,
      "note": 71,
      "start": 59.7849,
      "duration": 0.0773,
      "velocity": 127,
      "chip": "ym2612"
    },
    {
      "channel": 0,
      "note": 37,
      "start": 59.8698,
      "duration": 0.1262,
      "velocity": 87,
      "chip": "ym2612"
    },
    {
      "channel": 1,
      "note": 49,
      "start": 59.8739,
      "duration": 0.1263,
      "velocity": 90,
      "chip": "ym2612"
    },
    {
      "channel": 3,
      "note": 49,
      "start": 59.8785,
      "duration": 0.1299,
      "velocity": 85,
      "chip": "ym2612"
    },
    {
      "channel": 4,
      "note": 68,
      "start": 59.8827,
      "duration": 0.1301,
      "velocity": 89,
      "chip": "ym2612"
    },
    {
      "channel": 0,
      "note": 37,
      "start": 59.9999,
      "duration": 0.0935,
      "velocity": 87,
      "chip": "ym2612"
    },
    {
      "channel": 1,
      "note": 49,
      "start": 60.004,
      "duration": 0.0936,
      "velocity": 90,
      "chip": "ym2612"
    },
    {
      "channel": 2,
      "note": 71,
      "start": 60.0082,
      "duration": 0.0792,
      "velocity": 127,
      "chip": "ym2612"
    },
    {
      "channel": 3,
      "note": 49,
      "start": 60.0124,
      "duration": 0.0901,
      "velocity": 85,
      "chip": "ym2612"
    },
    {
      "channel": 4,
      "note": 68,
      "start": 60.017,
      "duration": 0.0896,
      "velocity": 89,
      "chip": "ym2612"
    },
    {
      "channel": 0,
      "note": 37,
      "start": 60.0973,
      "duration": 0.0874,
      "velocity": 87,
      "chip": "ym2612"
    },
    {
      "channel": 1,
      "note": 49,
      "start": 60.102,
      "duration": 0.087,
      "velocity": 90,
      "chip": "ym2612"
    },
    {
      "channel": 3,
      "note": 49,
      "start": 60.1063,
      "duration": 0.0869,
      "velocity": 85,
      "chip": "ym2612"
    },
    {
      "channel": 4,
      "note": 68,
      "start": 60.1107,
      "duration": 0.0868,
      "velocity": 89,
      "chip": "ym2612"
    },
    {
      "channel": 0,
      "note": 36,
      "start": 60.1888,
      "duration": 0.0967,
      "velocity": 87,
      "chip": "ym2612"
    },
    {
      "channel": 1,
      "note": 48,
      "start": 60.1929,
      "duration": 0.0967,
      "velocity": 90,
      "chip": "ym2612"
    },
    {
      "channel": 3,
      "note": 48,
      "start": 60.1972,
      "duration": 0.0971,
      "velocity": 85,
      "chip": "ym2612"
    },
    {
      "channel": 4,
      "note": 67,
      "start": 60.2018,
      "duration": 0.0967,
      "velocity": 89,
      "chip": "ym2612"
    },
    {
      "channel": 0,
      "note": 36,
      "start": 60.2894,
      "duration": 0.0893,
      "velocity": 87,
      "chip": "ym2612"
    },
    {
      "channel": 1,
      "note": 48,
      "start": 60.2939,
      "duration": 0.0889,
      "velocity": 90,
      "chip": "ym2612"
    },
    {
      "channel": 3,
      "note": 48,
      "start": 60.2983,
      "duration": 0.0893,
      "velocity": 85,
      "chip": "ym2612"
    },
    {
      "channel": 4,
      "note": 67,
      "start": 60.3025,
      "duration": 0.0892,
      "velocity": 89,
      "chip": "ym2612"
    },
    {
      "channel": 0,
      "note": 40,
      "start": 60.3826,
      "duration": 0.0888,
      "velocity": 87,
      "chip": "ym2612"
    },
    {
      "channel": 1,
      "note": 52,
      "start": 60.3871,
      "duration": 0.0885,
      "velocity": 90,
      "chip": "ym2612"
    },
    {
      "channel": 3,
      "note": 52,
      "start": 60.3915,
      "duration": 0.0889,
      "velocity": 85,
      "chip": "ym2612"
    },
    {
      "channel": 4,
      "note": 67,
      "start": 60.3956,
      "duration": 0.0889,
      "velocity": 89,
      "chip": "ym2612"
    },
    {
      "channel": 0,
      "note": 43,
      "start": 60.4754,
      "duration": 0.082,
      "velocity": 87,
      "chip": "ym2612"
    },
    {
      "channel": 1,
      "note": 55,
      "start": 60.4799,
      "duration": 0.0797,
      "velocity": 90,
      "chip": "ym2612"
    },
    {
      "channel": 3,
      "note": 55,
      "start": 60.4842,
      "duration": 0.078,
      "velocity": 85,
      "chip": "ym2612"
    },
    {
      "channel": 4,
      "note": 72,
      "start": 60.4884,
      "duration": 0.076,
      "velocity": 89,
      "chip": "ym2612"
    },
    {
      "channel": 0,
      "note": 41,
      "start": 60.5721,
      "duration": 0.1197,
      "velocity": 87,
      "chip": "ym2612"
    },
    {
      "channel": 1,
      "note": 53,
      "start": 60.5763,
      "duration": 0.1207,
      "velocity": 90,
      "chip": "ym2612"
    },
    {
      "channel": 3,
      "note": 53,
      "start": 60.5805,
      "duration": 0.122,
      "velocity": 106,
      "chip": "ym2612"
    },
    {
      "channel": 4,
      "note": 65,
      "start": 60.585,
      "duration": 38.1234,
      "velocity": 110,
      "chip": "ym2612"
    },
    {
      "channel": 0,
      "note": 41,
      "start": 60.6966,
      "duration": 38.0118,
      "velocity": 87,
      "chip": "ym2612"
    },
    {
      "channel": 1,
      "note": 41,
      "start": 60.7018,
      "duration": 38.0066,
      "velocity": 90,
      "chip": "ym2612"
    },
    {
      "channel": 3,
      "note": 56,
      "start": 60.7071,
      "duration": 38.0013,
      "velocity": 106,
      "chip": "ym2612"
    }
  ]
}