{
  "track_name": "17 - Ice Scream",
  "duration_sec": 75.714,
  "sample_rate": 44100,
  "note_count": 1514,
  "unique_pitches": 43,
  "pitch_range": 74,
  "avg_note_duration": 0.1464,
  "reconstruction_stats": {
    "notes_reconstructed": 1514,
    "keyon_events": 1514,
    "keyoff_events": 1447,
    "orphan_keyons": 3,
    "unique_pitches": 43,
    "pitch_range": 74,
    "avg_duration_sec": 0.1464
  },
  "metadata": {
    "source": "R\\Ristar\\17 - Ice Scream.vgz"
  },
  "notes": [
    {
      "channel": 0,
      "note": 40,
      "start": 0.0416,
      "duration": 0.0299,
      "velocity": 111,
      "chip": "ym2612"
    },
    {
      "channel": 3,
      "note": 59,
      "start": 0.0449,
      "duration": 0.2543,
      "velocity": 73,
      "chip": "ym2612"
    },
    {
      "channel": 4,
      "note": 74,
      "start": 0.0462,
      "duration": 0.2532,
      "velocity": 73,
      "chip": "ym2612"
    },
    {
      "channel": 1,
      "note": 90,
      "start": 0.0718,
      "duration": 0.0792,
      "velocity": 98,
      "chip": "ym2612"
    },
    {
      "channel": 1,
      "note": 90,
      "start": 0.2182,
      "duration": 0.0234,
      "velocity": 98,
      "chip": "ym2612"
    },
    {
      "channel": 0,
      "note": 40,
      "start": 0.2348,
      "duration": 0.008,
      "velocity": 111,
      "chip": "ym2612"
    },
    {
      "channel": 1,
      "note": 91,
      "start": 0.2433,
      "duration": 0.0445,
      "velocity": 98,
      "chip": "ym2612"
    },
    {
      "channel": 0,
      "note": 40,
      "start": 0.253,
      "duration": 0.0082,
      "velocity": 111,
      "chip": "ym2612"
    },
    {
      "channel": 2,
      "note": 90,
      "start": 0.2532,
      "duration": 0.0081,
      "velocity": 98,
      "chip": "ym2612"
    },
    {
      "channel": 0,
      "note": 40,
      "start": 0.263,
      "duration": 0.0093,
      "velocity": 111,
      "chip": "ym2612"
    },
    {
      "channel": 2,
      "note": 90,
      "start": 0.2678,
      "duration": 0.009,
      "velocity": 98,
      "chip": "ym2612"
    },
    {
      "channel": 0,
      "note": 40,
      "start": 0.2784,
      "duration": 0.0093,
      "velocity": 111,
      "chip": "ym2612"
    },
    {
      "channel": 2,
      "note": 91,
      "start": 0.2788,
      "duration": 0.2323,
      "velocity": 98,
      "chip": "ym2612"
    },
    {
      "channel": 0,
      "note": 40,
      "start": 0.2906,
      "duration": 0.0084,
      "velocity": 111,
      "chip": "ym2612"
    },
    {
      "channel": 1,
      "note": 90,
      "start": 0.2909,
      "duration": 0.0082,
      "velocity": 98,
      "chip": "ym2612"
    },
    {
      "channel": 3,
      "note": 58,
      "start": 0.2993,
      "duration": 0.4587,
      "velocity": 73,
      "chip": "ym2612"
    },
    {
      "channel": 4,
      "note": 74,
      "start": 0.2994,
      "duration": 0.4587,
      "velocity": 73,
      "chip": "ym2612"
    },
    {
      "channel": 0,
      "note": 40,
      "start": 0.3446,
      "duration": 0.1,
      "velocity": 111,
      "chip": "ym2612"
    },
    {
      "channel": 1,
      "note": 90,
      "start": 0.3452,
      "duration": 0.0996,
      "velocity": 98,
      "chip": "ym2612"
    },
    {
      "channel": 0,
      "note": 40,
      "start": 0.4616,
      "duration": 0.0996,
      "velocity": 111,
      "chip": "ym2612"
    },
    {
      "channel": 1,
      "note": 91,
      "start": 0.4622,
      "duration": 0.1225,
      "velocity": 98,
      "chip": "ym2612"
    },
    {
      "channel": 2,
      "note": 90,
      "start": 0.5448,
      "duration": 0.0242,
      "velocity": 98,
      "chip": "ym2612"
    },
    {
      "channel": 0,
      "note": 40,
      "start": 0.5689,
      "duration": 0.0085,
      "velocity": 111,
      "chip": "ym2612"
    },
    {
      "channel": 2,
      "note": 90,
      "start": 0.5747,
      "duration": 0.0085,
      "velocity": 98,
      "chip": "ym2612"
    },
    {
      "channel": 0,
      "note": 40,
      "start": 0.5791,
      "duration": 0.009,
      "velocity": 111,
      "chip": "ym2612"
    },
    {
      "channel": 2,
      "note": 91,
      "start": 0.5852,
      "duration": 0.0359,
      "velocity": 98,
      "chip": "ym2612"
    },
    {
      "channel": 1,
      "note": 90,
      "start": 0.5884,
      "duration": 0.0111,
      "velocity": 98,
      "chip": "ym2612"
    },
    {
      "channel": 0,
      "note": 40,
      "start": 0.5969,
      "duration": 0.0082,
      "velocity": 111,
      "chip": "ym2612"
    },
    {
      "channel": 1,
      "note": 90,
      "start": 0.6056,
      "duration": 0.0083,
      "velocity": 98,
      "chip": "ym2612"
    },
    {
      "channel": 0,
      "note": 40,
      "start": 0.6085,
      "duration": 0.008,
      "velocity": 111,
      "chip": "ym2612"
    },
    {
      "channel": 1,
      "note": 88,
      "start": 0.6169,
      "duration": 0.0076,
      "velocity": 98,
      "chip": "ym2612"
    },
    {
      "channel": 0,
      "note": 40,
      "start": 0.6228,
      "duration": 0.0171,
      "velocity": 111,
      "chip": "ym2612"
    },
    {
      "channel": 2,
      "note": 90,
      "start": 0.6231,
      "duration": 0.0177,
      "velocity": 98,
      "chip": "ym2612"
    },
    {
      "channel": 1,
      "note": 88,
      "start": 0.6406,
      "duration": 0.0995,
      "velocity": 98,
      "chip": "ym2612"
    },
    {
      "channel": 0,
      "note": 38,
      "start": 0.6573,
      "duration": 0.0999,
      "velocity": 111,
      "chip": "ym2612"
    },
    {
      "channel": 2,
      "note": 90,
      "start": 0.7073,
      "duration": 0.0551,
      "velocity": 98,
      "chip": "ym2612"
    },
    {
      "channel": 3,
      "note": 59,
      "start": 0.758,
      "duration": 0.2524,
      "velocity": 73,
      "chip": "ym2612"
    },
    {
      "channel": 4,
      "note": 73,
      "start": 0.7581,
      "duration": 0.2524,
      "velocity": 73,
      "chip": "ym2612"
    },
    {
      "channel": 0,
      "note": 38,
      "start": 0.7653,
      "duration": 0.0084,
      "velocity": 111,
      "chip": "ym2612"
    },
    {
      "channel": 2,
      "note": 88,
      "start": 0.7657,
      "duration": 0.008,
      "velocity": 98,
      "chip": "ym2612"
    },
    {
      "channel": 0,
      "note": 40,
      "start": 0.7753,
      "duration": 0.0088,
      "velocity": 111,
      "chip": "ym2612"
    },
    {
      "channel": 2,
      "note": 88,
      "start": 0.7801,
      "duration": 0.0172,
      "velocity": 98,
      "chip": "ym2612"
    },
    {
      "channel": 1,
      "note": 90,
      "start": 0.7844,
      "duration": 0.063,
      "velocity": 98,
      "chip": "ym2612"
    },
    {
      "channel": 0,
      "note": 40,
      "start": 0.8144,
      "duration": 0.0997,
      "velocity": 111,
      "chip": "ym2612"
    },
    {
      "channel": 1,
      "note": 90,
      "start": 0.9147,
      "duration": 0.0392,
      "velocity": 98,
      "chip": "ym2612"
    },
    {
      "channel": 0,
      "note": 40,
      "start": 0.9483,
      "duration": 0.0082,
      "velocity": 111,
      "chip": "ym2612"
    },
    {
      "channel": 0,
      "note": 40,
      "start": 0.9568,
      "duration": 0.008,
      "velocity": 111,
      "chip": "ym2612"
    },
    {
      "channel": 1,
      "note": 91,
      "start": 0.9572,
      "duration": 0.0411,
      "velocity": 98,
      "chip": "ym2612"
    },
    {
      "channel": 2,
      "note": 90,
      "start": 0.9632,
      "duration": 0.0081,
      "velocity": 98,
      "chip": "ym2612"
    },
    {
      "channel": 0,
      "note": 40,
      "start": 0.9712,
      "duration": 0.0082,
      "velocity": 111,
      "chip": "ym2612"
    },
    {
      "channel": 2,
      "note": 90,
      "start": 0.9765,
      "duration": 0.0117,
      "velocity": 98,
      "chip": "ym2612"
    },
    {
      "channel": 0,
      "note": 40,
      "start": 0.9812,
      "duration": 0.0115,
      "velocity": 111,
      "chip": "ym2612"
    },
    {
      "channel": 2,
      "note": 91,
      "start": 0.9912,
      "duration": 0.2322,
      "velocity": 98,
      "chip": "ym2612"
    },
    {
      "channel": 0,
      "note": 40,
      "start": 0.9983,
      "duration": 0.0031,
      "velocity": 111,
      "chip": "ym2612"
    },
    {
      "channel": 0,
      "note": 40,
      "start": 1.0015,
      "duration": 0.0087,
      "velocity": 111,
      "chip": "ym2612"
    },
    {
      "channel": 1,
      "note": 90,
      "start": 1.0017,
      "duration": 0.0085,
      "velocity": 98,
      "chip": "ym2612"
    },
    {
      "channel": 3,
      "note": 59,
      "start": 1.0104,
      "duration": 0.2914,
      "velocity": 73,
      "chip": "ym2612"
    },
    {
      "channel": 4,
      "note": 73,
      "start": 1.0106,
      "duration": 0.2914,
      "velocity": 73,
      "chip": "ym2612"
    },
    {
      "channel": 0,
      "note": 40,
      "start": 1.0402,
      "duration": 0.0997,
      "velocity": 111,
      "chip": "ym2612"
    },
    {
      "channel": 1,
      "note": 90,
      "start": 1.0408,
      "duration": 0.0993,
      "velocity": 98,
      "chip": "ym2612"
    },
    {
      "channel": 0,
      "note": 40,
      "start": 1.174,
      "duration": 0.0829,
      "velocity": 111,
      "chip": "ym2612"
    },
    {
      "channel": 1,
      "note": 91,
      "start": 1.1745,
      "duration": 0.1071,
      "velocity": 98,
      "chip": "ym2612"
    },
    {
      "channel": 2,
      "note": 90,
      "start": 1.2405,
      "duration": 0.0244,
      "velocity": 98,
      "chip": "ym2612"
    },
    {
      "channel": 0,
      "note": 40,
      "start": 1.2649,
      "duration": 0.0079,
      "velocity": 111,
      "chip": "ym2612"
    },
    {
      "channel": 2,
      "note": 90,
      "start": 1.2702,
      "duration": 0.009,
      "velocity": 98,
      "chip": "ym2612"
    },
    {
      "channel": 0,
      "note": 40,
      "start": 1.275,
      "duration": 0.0085,
      "velocity": 111,
      "chip": "ym2612"
    },
    {
      "channel": 2,
      "note": 91,
      "start": 1.282,
      "duration": 0.0305,
      "velocity": 98,
      "chip": "ym2612"
    },
    {
      "channel": 1,
      "note": 90,
      "start": 1.2839,
      "duration": 0.0088,
      "velocity": 98,
      "chip": "ym2612"
    },
    {
      "channel": 0,
      "note": 40,
      "start": 1.2914,
      "duration": 0.0067,
      "velocity": 111,
      "chip": "ym2612"
    },
    {
      "channel": 1,
      "note": 90,
      "start": 1.2985,
      "duration": 0.008,
      "velocity": 98,
      "chip": "ym2612"
    },
    {
      "channel": 0,
      "note": 40,
      "start": 1.3017,
      "duration": 0.007,
      "velocity": 111,
      "chip": "ym2612"
    },
    {
      "channel": 1,
      "note": 88,
      "start": 1.3091,
      "duration": 0.0078,
      "velocity": 98,
      "chip": "ym2612"
    },
    {
      "channel": 0,
      "note": 40,
      "start": 1.3141,
      "duration": 0.0072,
      "velocity": 111,
      "chip": "ym2612"
    },
    {
      "channel": 2,
      "note": 90,
      "start": 1.3144,
      "duration": 0.0075,
      "velocity": 98,
      "chip": "ym2612"
    },
    {
      "channel": 1,
      "note": 88,
      "start": 1.3218,
      "duration": 0.0953,
      "velocity": 98,
      "chip": "ym2612"
    },
    {
      "channel": 2,
      "note": 90,
      "start": 1.4007,
      "duration": 0.0399,
      "velocity": 98,
      "chip": "ym2612"
    },
    {
      "channel": 0,
      "note": 40,
      "start": 1.4341,
      "duration": 0.0276,
      "velocity": 111,
      "chip": "ym2612"
    },
    {
      "channel": 3,
      "note": 57,
      "start": 1.4347,
      "duration": 0.2577,
      "velocity": 73,
      "chip": "ym2612"
    },
    {
      "channel": 4,
      "note": 73,
      "start": 1.4349,
      "duration": 0.2577,
      "velocity": 73,
      "chip": "ym2612"
    },
    {
      "channel": 2,
      "note": 88,
      "start": 1.4436,
      "duration": 0.008,
      "velocity": 98,
      "chip": "ym2612"
    },
    {
      "channel": 2,
      "note": 88,
      "start": 1.4577,
      "duration": 0.0178,
      "velocity": 98,
      "chip": "ym2612"
    },
    {
      "channel": 1,
      "note": 90,
      "start": 1.462,
      "duration": 0.0635,
      "velocity": 98,
      "chip": "ym2612"
    },
    {
      "channel": 1,
      "note": 90,
      "start": 1.5928,
      "duration": 0.0394,
      "velocity": 98,
      "chip": "ym2612"
    },
    {
      "channel": 0,
      "note": 40,
      "start": 1.6261,
      "duration": 0.0086,
      "velocity": 111,
      "chip": "ym2612"
    },
    {
      "channel": 1,
      "note": 91,
      "start": 1.6354,
      "duration": 0.0467,
      "velocity": 98,
      "chip": "ym2612"
    },
    {
      "channel": 0,
      "note": 40,
      "start": 1.6444,
      "duration": 0.0084,
      "velocity": 111,
      "chip": "ym2612"
    },
    {
      "channel": 2,
      "note": 90,
      "start": 1.6446,
      "duration": 0.0082,
      "velocity": 98,
      "chip": "ym2612"
    },
    {
      "channel": 0,
      "note": 40,
      "start": 1.6558,
      "duration": 0.0079,
      "velocity": 111,
      "chip": "ym2612"
    },
    {
      "channel": 2,
      "note": 90,
      "start": 1.6595,
      "duration": 0.0113,
      "velocity": 98,
      "chip": "ym2612"
    },
    {
      "channel": 0,
      "note": 40,
      "start": 1.6736,
      "duration": 0.0084,
      "velocity": 111,
      "chip": "ym2612"
    },
    {
      "channel": 2,
      "note": 91,
      "start": 1.674,
      "duration": 0.2315,
      "velocity": 98,
      "chip": "ym2612"
    },
    {
      "channel": 0,
      "note": 40,
      "start": 1.6836,
      "duration": 0.0086,
      "velocity": 111,
      "chip": "ym2612"
    },
    {
      "channel": 1,
      "note": 90,
      "start": 1.6838,
      "duration": 0.0084,
      "velocity": 98,
      "chip": "ym2612"
    },
    {
      "channel": 3,
      "note": 56,
      "start": 1.6924,
      "duration": 0.4573,
      "velocity": 73,
      "chip": "ym2612"
    },
    {
      "channel": 4,
      "note": 73,
      "start": 1.6926,
      "duration": 0.4573,
      "velocity": 73,
      "chip": "ym2612"
    },
    {
      "channel": 0,
      "note": 40,
      "start": 1.7223,
      "duration": 0.0997,
      "velocity": 111,
      "chip": "ym2612"
    },
    {
      "channel": 1,
      "note": 90,
      "start": 1.7229,
      "duration": 0.0993,
      "velocity": 98,
      "chip": "ym2612"
    },
    {
      "channel": 0,
      "note": 40,
      "start": 1.8561,
      "duration": 0.0999,
      "velocity": 111,
      "chip": "ym2612"
    },
    {
      "channel": 1,
      "note": 91,
      "start": 1.8566,
      "duration": 0.1223,
      "velocity": 98,
      "chip": "ym2612"
    },
    {
      "channel": 2,
      "note": 90,
      "start": 1.9225,
      "duration": 0.0398,
      "velocity": 98,
      "chip": "ym2612"
    },
    {
      "channel": 0,
      "note": 40,
      "start": 1.9622,
      "duration": 0.0084,
      "velocity": 111,
      "chip": "ym2612"
    },
    {
      "channel": 2,
      "note": 90,
      "start": 1.9689,
      "duration": 0.0075,
      "velocity": 98,
      "chip": "ym2612"
    },
    {
      "channel": 0,
      "note": 40,
      "start": 1.9737,
      "duration": 0.0071,
      "velocity": 111,
      "chip": "ym2612"
    },
    {
      "channel": 2,
      "note": 91,
      "start": 1.9793,
      "duration": 0.0323,
      "velocity": 98,
      "chip": "ym2612"
    },
    {
      "channel": 1,
      "note": 90,
      "start": 1.9812,
      "duration": 0.0085,
      "velocity": 98,
      "chip": "ym2612"
    },
    {
      "channel": 0,
      "note": 40,
      "start": 1.9885,
      "duration": 0.0082,
      "velocity": 111,
      "chip": "ym2612"
    },
    {
      "channel": 1,
      "note": 90,
      "start": 1.9972,
      "duration": 0.0089,
      "velocity": 98,
      "chip": "ym2612"
    },
    {
      "channel": 0,
      "note": 40,
      "start": 1.999,
      "duration": 0.0084,
      "velocity": 111,
      "chip": "ym2612"
    },
    {
      "channel": 1,
      "note": 91,
      "start": 2.0078,
      "duration": 0.0084,
      "velocity": 98,
      "chip": "ym2612"
    },
    {
      "channel": 0,
      "note": 40,
      "start": 2.0132,
      "duration": 0.0085,
      "velocity": 111,
      "chip": "ym2612"
    },
    {
      "channel": 2,
      "note": 90,
      "start": 2.0135,
      "duration": 0.0088,
      "velocity": 98,
      "chip": "ym2612"
    },
    {
      "channel": 1,
      "note": 91,
      "start": 2.0223,
      "duration": 0.0929,
      "velocity": 98,
      "chip": "ym2612"
    },
    {
      "channel": 0,
      "note": 38,
      "start": 2.0491,
      "duration": 0.0998,
      "velocity": 111,
      "chip": "ym2612"
    },
    {
      "channel": 2,
      "note": 90,
      "start": 2.0993,
      "duration": 0.0544,
      "velocity": 98,
      "chip": "ym2612"
    },
    {
      "channel": 0,
      "note": 40,
      "start": 2.1492,
      "duration": 0.0092,
      "velocity": 111,
      "chip": "ym2612"
    },
    {
      "channel": 1,
      "note": 90,
      "start": 2.1496,
      "duration": 0.0089,
      "velocity": 98,
      "chip": "ym2612"
    },
    {
      "channel": 3,
      "note": 56,
      "start": 2.1498,
      "duration": 0.2501,
      "velocity": 73,
      "chip": "ym2612"
    },
    {
      "channel": 4,
      "note": 73,
      "start": 2.1499,
      "duration": 0.2501,
      "velocity": 73,
      "chip": "ym2612"
    },
    {
      "channel": 2,
      "note": 91,
      "start": 2.1556,
      "duration": 0.0096,
      "velocity": 98,
      "chip": "ym2612"
    },
    {
      "channel": 0,
      "note": 40,
      "start": 2.1647,
      "duration": 0.0089,
      "velocity": 111,
      "chip": "ym2612"
    },
    {
      "channel": 1,
      "note": 90,
      "start": 2.1651,
      "duration": 0.0085,
      "velocity": 98,
      "chip": "ym2612"
    },
    {
      "channel": 2,
      "note": 91,
      "start": 2.1708,
      "duration": 0.0172,
      "velocity": 98,
      "chip": "ym2612"
    },
    {
      "channel": 0,
      "note": 40,
      "start": 2.1757,
      "duration": 0.0622,
      "velocity": 111,
      "chip": "ym2612"
    },
    {
      "channel": 2,
      "note": 90,
      "start": 2.2219,
      "duration": 0.1,
      "velocity": 98,
      "chip": "ym2612"
    },
    {
      "channel": 0,
      "note": 40,
      "start": 2.3218,
      "duration": 0.0165,
      "velocity": 111,
      "chip": "ym2612"
    },
    {
      "channel": 0,
      "note": 40,
      "start": 2.3386,
      "duration": 0.0091,
      "velocity": 111,
      "chip": "ym2612"
    },
    {
      "channel": 1,
      "note": 81,
      "start": 2.339,
      "duration": 0.0089,
      "velocity": 98,
      "chip": "ym2612"
    },
    {
      "channel": 2,
      "note": 90,
      "start": 2.3437,
      "duration": 0.0089,
      "velocity": 98,
      "chip": "ym2612"
    },
    {
      "channel": 0,
      "note": 40,
      "start": 2.3545,
      "duration": 0.0084,
      "velocity": 111,
      "chip": "ym2612"
    },
    {
      "channel": 1,
      "note": 81,
      "start": 2.3549,
      "duration": 0.0081,
      "velocity": 98,
      "chip": "ym2612"
    },
    {
      "channel": 0,
      "note": 40,
      "start": 2.3666,
      "duration": 0.0082,
      "velocity": 111,
      "chip": "ym2612"
    },
    {
      "channel": 2,
      "note": 81,
      "start": 2.3724,
      "duration": 0.0091,
      "velocity": 98,
      "chip": "ym2612"
    },
    {
      "channel": 1,
      "note": 81,
      "start": 2.3752,
      "duration": 0.2715,
      "velocity": 98,
      "chip": "ym2612"
    },
    {
      "channel": 0,
      "note": 40,
      "start": 2.3814,
      "duration": 0.0083,
      "velocity": 111,
      "chip": "ym2612"
    },
    {
      "channel": 2,
      "note": 81,
      "start": 2.3872,
      "duration": 0.0086,
      "velocity": 98,
      "chip": "ym2612"
    },
    {
      "channel": 0,
      "note": 40,
      "start": 2.3915,
      "duration": 0.0081,
      "velocity": 111,
      "chip": "ym2612"
    },
    {
      "channel": 3,
      "note": 57,
      "start": 2.3999,
      "duration": 0.2704,
      "velocity": 73,
      "chip": "ym2612"
    },
    {
      "channel": 4,
      "note": 72,
      "start": 2.4,
      "duration": 0.2703,
      "velocity": 73,
      "chip": "ym2612"
    },
    {
      "channel": 0,
      "note": 40,
      "start": 2.4468,
      "duration": 0.0996,
      "velocity": 111,
      "chip": "ym2612"
    },
    {
      "channel": 2,
      "note": 81,
      "start": 2.4474,
      "duration": 0.2429,
      "velocity": 98,
      "chip": "ym2612"
    },
    {
      "channel": 0,
      "note": 40,
      "start": 2.5636,
      "duration": 0.0996,
      "velocity": 111,
      "chip": "ym2612"
    },
    {
      "channel": 0,
      "note": 40,
      "start": 2.6689,
      "duration": 0.0075,
      "velocity": 111,
      "chip": "ym2612"
    },
    {
      "channel": 0,
      "note": 40,
      "start": 2.6791,
      "duration": 0.0063,
      "velocity": 111,
      "chip": "ym2612"
    },
    {
      "channel": 3,
      "note": 55,
      "start": 2.6859,
      "duration": 0.0102,
      "velocity": 73,
      "chip": "ym2612"
    },
    {
      "channel": 4,
      "note": 71,
      "start": 2.6861,
      "duration": 0.01,
      "velocity": 73,
      "chip": "ym2612"
    },
    {
      "channel": 0,
      "note": 40,
      "start": 2.6921,
      "duration": 0.0076,
      "velocity": 111,
      "chip": "ym2612"
    },
    {
      "channel": 0,
      "note": 40,
      "start": 2.7018,
      "duration": 0.008,
      "velocity": 111,
      "chip": "ym2612"
    },
    {
      "channel": 3,
      "note": 57,
      "start": 2.7021,
      "duration": 0.0208,
      "velocity": 73,
      "chip": "ym2612"
    },
    {
      "channel": 4,
      "note": 73,
      "start": 2.7024,
      "duration": 0.0206,
      "velocity": 73,
      "chip": "ym2612"
    },
    {
      "channel": 0,
      "note": 40,
      "start": 2.7175,
      "duration": 0.0075,
      "velocity": 111,
      "chip": "ym2612"
    },
    {
      "channel": 0,
      "note": 40,
      "start": 2.7338,
      "duration": 0.0326,
      "velocity": 111,
      "chip": "ym2612"
    },
    {
      "channel": 3,
      "note": 59,
      "start": 2.7351,
      "duration": 0.2593,
      "velocity": 73,
      "chip": "ym2612"
    },
    {
      "channel": 4,
      "note": 74,
      "start": 2.7363,
      "duration": 0.2583,
      "velocity": 73,
      "chip": "ym2612"
    },
    {
      "channel": 1,
      "note": 90,
      "start": 2.7667,
      "duration": 0.0624,
      "velocity": 98,
      "chip": "ym2612"
    },
    {
      "channel": 1,
      "note": 90,
      "start": 2.913,
      "duration": 0.0235,
      "velocity": 98,
      "chip": "ym2612"
    },
    {
      "channel": 0,
      "note": 40,
      "start": 2.9297,
      "duration": 0.0086,
      "velocity": 111,
      "chip": "ym2612"
    },
    {
      "channel": 1,
      "note": 91,
      "start": 2.939,
      "duration": 0.0439,
      "velocity": 98,
      "chip": "ym2612"
    },
    {
      "channel": 0,
      "note": 40,
      "start": 2.9485,
      "duration": 0.0086,
      "velocity": 111,
      "chip": "ym2612"
    },
    {
      "channel": 2,
      "note": 90,
      "start": 2.9488,
      "duration": 0.0084,
      "velocity": 98,
      "chip": "ym2612"
    },
    {
      "channel": 0,
      "note": 40,
      "start": 2.9589,
      "duration": 0.0086,
      "velocity": 111,
      "chip": "ym2612"
    },
    {
      "channel": 2,
      "note": 90,
      "start": 2.9636,
      "duration": 0.0089,
      "velocity": 98,
      "chip": "ym2612"
    },
    {
      "channel": 0,
      "note": 40,
      "start": 2.9743,
      "duration": 0.0085,
      "velocity": 111,
      "chip": "ym2612"
    },
    {
      "channel": 2,
      "note": 91,
      "start": 2.9747,
      "duration": 0.2316,
      "velocity": 98,
      "chip": "ym2612"
    },
    {
      "channel": 0,
      "note": 40,
      "start": 2.9857,
      "duration": 0.0085,
      "velocity": 111,
      "chip": "ym2612"
    },
    {
      "channel": 1,
      "note": 90,
      "start": 2.9859,
      "duration": 0.0083,
      "velocity": 98,
      "chip": "ym2612"
    },
    {
      "channel": 3,
      "note": 58,
      "start": 2.9944,
      "duration": 0.4558,
      "velocity": 73,
      "chip": "ym2612"
    },
    {
      "channel": 4,
      "note": 74,
      "start": 2.9945,
      "duration": 0.4557,
      "velocity": 73,
      "chip": "ym2612"
    },
    {
      "channel": 0,
      "note": 40,
      "start": 3.0398,
      "duration": 0.0997,
      "velocity": 111,
      "chip": "ym2612"
    },
    {
      "channel": 1,
      "note": 90,
      "start": 3.0404,
      "duration": 0.0993,
      "velocity": 98,
      "chip": "ym2612"
    },
    {
      "channel": 0,
      "note": 40,
      "start": 3.1569,
      "duration": 0.0995,
      "velocity": 111,
      "chip": "ym2612"
    },
    {
      "channel": 1,
      "note": 91,
      "start": 3.1575,
      "duration": 0.1216,
      "velocity": 98,
      "chip": "ym2612"
    },
    {
      "channel": 2,
      "note": 90,
      "start": 3.24,
      "duration": 0.0235,
      "velocity": 98,
      "chip": "ym2612"
    },
    {
      "channel": 0,
      "note": 40,
      "start": 3.2634,
      "duration": 0.0084,
      "velocity": 111,
      "chip": "ym2612"
    },
    {
      "channel": 2,
      "note": 90,
      "start": 3.2695,
      "duration": 0.0082,
      "velocity": 98,
      "chip": "ym2612"
    },
    {
      "channel": 0,
      "note": 40,
      "start": 3.2736,
      "duration": 0.009,
      "velocity": 111,
      "chip": "ym2612"
    },
    {
      "channel": 2,
      "note": 91,
      "start": 3.2795,
      "duration": 0.0332,
      "velocity": 98,
      "chip": "ym2612"
    },
    {
      "channel": 1,
      "note": 90,
      "start": 3.2831,
      "duration": 0.0086,
      "velocity": 98,
      "chip": "ym2612"
    },
    {
      "channel": 0,
      "note": 40,
      "start": 3.289,
      "duration": 0.0084,
      "velocity": 111,
      "chip": "ym2612"
    },
    {
      "channel": 1,
      "note": 90,
      "start": 3.2979,
      "duration": 0.0086,
      "velocity": 98,
      "chip": "ym2612"
    },
    {
      "channel": 0,
      "note": 40,
      "start": 3.3009,
      "duration": 0.0084,
      "velocity": 111,
      "chip": "ym2612"
    },
    {
      "channel": 1,
      "note": 88,
      "start": 3.3097,
      "duration": 0.0078,
      "velocity": 98,
      "chip": "ym2612"
    },
    {
      "channel": 0,
      "note": 40,
      "start": 3.3158,
      "duration": 0.0166,
      "velocity": 111,
      "chip": "ym2612"
    },
    {
      "channel": 2,
      "note": 90,
      "start": 3.3161,
      "duration": 0.0171,
      "velocity": 98,
      "chip": "ym2612"
    },
    {
      "channel": 1,
      "note": 88,
      "start": 3.3331,
      "duration": 0.0995,
      "velocity": 98,
      "chip": "ym2612"
    },
    {
      "channel": 0,
      "note": 38,
      "start": 3.3498,
      "duration": 0.0996,
      "velocity": 111,
      "chip": "ym2612"
    },
    {
      "channel": 2,
      "note": 90,
      "start": 3.3998,
      "duration": 0.0565,
      "velocity": 98,
      "chip": "ym2612"
    },
    {
      "channel": 3,
      "note": 59,
      "start": 3.4501,
      "duration": 0.2541,
      "velocity": 73,
      "chip": "ym2612"
    },
    {
      "channel": 4,
      "note": 73,
      "start": 3.4503,
      "duration": 0.2541,
      "velocity": 73,
      "chip": "ym2612"
    },
    {
      "channel": 0,
      "note": 38,
      "start": 3.4593,
      "duration": 0.0069,
      "velocity": 111,
      "chip": "ym2612"
    },
    {
      "channel": 2,
      "note": 88,
      "start": 3.4597,
      "duration": 0.0066,
      "velocity": 98,
      "chip": "ym2612"
    },
    {
      "channel": 0,
      "note": 40,
      "start": 3.4693,
      "duration": 0.0084,
      "velocity": 111,
      "chip": "ym2612"
    },
    {
      "channel": 2,
      "note": 88,
      "start": 3.4738,
      "duration": 0.017,
      "velocity": 98,
      "chip": "ym2612"
    },
    {
      "channel": 1,
      "note": 90,
      "start": 3.478,
      "duration": 0.0627,
      "velocity": 98,
      "chip": "ym2612"
    },
    {
      "channel": 0,
      "note": 40,
      "start": 3.5078,
      "duration": 0.0997,
      "velocity": 111,
      "chip": "ym2612"
    },
    {
      "channel": 1,
      "note": 90,
      "start": 3.6082,
      "duration": 0.039,
      "velocity": 98,
      "chip": "ym2612"
    },
    {
      "channel": 0,
      "note": 40,
      "start": 3.6415,
      "duration": 0.0073,
      "velocity": 111,
      "chip": "ym2612"
    },
    {
      "channel": 0,
      "note": 40,
      "start": 3.6491,
      "duration": 0.011,
      "velocity": 111,
      "chip": "ym2612"
    },
    {
      "channel": 1,
      "note": 91,
      "start": 3.6497,
      "duration": 0.0428,
      "velocity": 98,
      "chip": "ym2612"
    },
    {
      "channel": 2,
      "note": 90,
      "start": 3.6588,
      "duration": 0.0088,
      "velocity": 98,
      "chip": "ym2612"
    },
    {
      "channel": 0,
      "note": 40,
      "start": 3.6675,
      "duration": 0.0088,
      "velocity": 111,
      "chip": "ym2612"
    },
    {
      "channel": 2,
      "note": 90,
      "start": 3.6733,
      "duration": 0.0094,
      "velocity": 98,
      "chip": "ym2612"
    },
    {
      "channel": 0,
      "note": 40,
      "start": 3.678,
      "duration": 0.0092,
      "velocity": 111,
      "chip": "ym2612"
    },
    {
      "channel": 2,
      "note": 91,
      "start": 3.6859,
      "duration": 0.2313,
      "velocity": 98,
      "chip": "ym2612"
    },
    {
      "channel": 0,
      "note": 40,
      "start": 3.6924,
      "duration": 0.003,
      "velocity": 111,
      "chip": "ym2612"
    },
    {
      "channel": 0,
      "note": 40,
      "start": 3.6956,
      "duration": 0.0083,
      "velocity": 111,
      "chip": "ym2612"
    },
    {
      "channel": 1,
      "note": 90,
      "start": 3.6958,
      "duration": 0.0082,
      "velocity": 98,
      "chip": "ym2612"
    },
    {
      "channel": 3,
      "note": 59,
      "start": 3.7042,
      "duration": 0.2911,
      "velocity": 73,
      "chip": "ym2612"
    },
    {
      "channel": 4,
      "note": 73,
      "start": 3.7043,
      "duration": 0.291,
      "velocity": 73,
      "chip": "ym2612"
    },
    {
      "channel": 0,
      "note": 40,
      "start": 3.7341,
      "duration": 0.0995,
      "velocity": 111,
      "chip": "ym2612"
    },
    {
      "channel": 1,
      "note": 90,
      "start": 3.7347,
      "duration": 0.0991,
      "velocity": 98,
      "chip": "ym2612"
    },
    {
      "channel": 0,
      "note": 40,
      "start": 3.8676,
      "duration": 0.0829,
      "velocity": 111,
      "chip": "ym2612"
    },
    {
      "channel": 1,
      "note": 91,
      "start": 3.8682,
      "duration": 0.107,
      "velocity": 98,
      "chip": "ym2612"
    },
    {
      "channel": 2,
      "note": 90,
      "start": 3.9341,
      "duration": 0.024,
      "velocity": 98,
      "chip": "ym2612"
    },
    {
      "channel": 0,
      "note": 40,
      "start": 3.958,
      "duration": 0.0085,
      "velocity": 111,
      "chip": "ym2612"
    },
    {
      "channel": 2,
      "note": 90,
      "start": 3.9637,
      "duration": 0.0087,
      "velocity": 98,
      "chip": "ym2612"
    },
    {
      "channel": 0,
      "note": 40,
      "start": 3.9682,
      "duration": 0.0089,
      "velocity": 111,
      "chip": "ym2612"
    },
    {
      "channel": 2,
      "note": 91,
      "start": 3.9757,
      "duration": 0.0304,
      "velocity": 98,
      "chip": "ym2612"
    },
    {
      "channel": 1,
      "note": 90,
      "start": 3.9775,
      "duration": 0.0087,
      "velocity": 98,
      "chip": "ym2612"
    },
    {
      "channel": 0,
      "note": 40,
      "start": 3.9846,
      "duration": 0.0074,
      "velocity": 111,
      "chip": "ym2612"
    },
    {
      "channel": 1,
      "note": 90,
      "start": 3.9924,
      "duration": 0.0076,
      "velocity": 98,
      "chip": "ym2612"
    },
    {
      "channel": 0,
      "note": 40,
      "start": 3.9952,
      "duration": 0.0068,
      "velocity": 111,
      "chip": "ym2612"
    },
    {
      "channel": 1,
      "note": 88,
      "start": 4.0024,
      "duration": 0.0076,
      "velocity": 98,
      "chip": "ym2612"
    },
    {
      "channel": 0,
      "note": 40,
      "start": 4.0076,
      "duration": 0.0069,
      "velocity": 111,
      "chip": "ym2612"
    },
    {
      "channel": 2,
      "note": 90,
      "start": 4.0078,
      "duration": 0.0073,
      "velocity": 98,
      "chip": "ym2612"
    },
    {
      "channel": 1,
      "note": 88,
      "start": 4.0149,
      "duration": 0.0952,
      "velocity": 98,
      "chip": "ym2612"
    },
    {
      "channel": 2,
      "note": 90,
      "start": 4.0774,
      "duration": 0.0568,
      "velocity": 98,
      "chip": "ym2612"
    },
    {
      "channel": 0,
      "note": 40,
      "start": 4.1275,
      "duration": 0.0282,
      "velocity": 111,
      "chip": "ym2612"
    },
    {
      "channel": 3,
      "note": 57,
      "start": 4.128,
      "duration": 0.2549,
      "velocity": 73,
      "chip": "ym2612"
    },
    {
      "channel": 4,
      "note": 73,
      "start": 4.1283,
      "duration": 0.2548,
      "velocity": 73,
      "chip": "ym2612"
    },
    {
      "channel": 2,
      "note": 88,
      "start": 4.1377,
      "duration": 0.0081,
      "velocity": 98,
      "chip": "ym2612"
    },
    {
      "channel": 2,
      "note": 88,
      "start": 4.1515,
      "duration": 0.0175,
      "velocity": 98,
      "chip": "ym2612"
    },
    {
      "channel": 1,
      "note": 90,
      "start": 4.1559,
      "duration": 0.0633,
      "velocity": 98,
      "chip": "ym2612"
    },
    {
      "channel": 1,
      "note": 90,
      "start": 4.2862,
      "duration": 0.0399,
      "velocity": 98,
      "chip": "ym2612"
    },
    {
      "channel": 0,
      "note": 40,
      "start": 4.3195,
      "duration": 0.0093,
      "velocity": 111,
      "chip": "ym2612"
    },
    {
      "channel": 1,
      "note": 91,
      "start": 4.3294,
      "duration": 0.0433,
      "velocity": 98,
      "chip": "ym2612"
    },
    {
      "channel": 0,
      "note": 40,
      "start": 4.3373,
      "duration": 0.0084,
      "velocity": 111,
      "chip": "ym2612"
    },
    {
      "channel": 2,
      "note": 90,
      "start": 4.3376,
      "duration": 0.0082,
      "velocity": 98,
      "chip": "ym2612"
    },
    {
      "channel": 0,
      "note": 40,
      "start": 4.3492,
      "duration": 0.0071,
      "velocity": 111,
      "chip": "ym2612"
    },
    {
      "channel": 2,
      "note": 90,
      "start": 4.3524,
      "duration": 0.0088,
      "velocity": 98,
      "chip": "ym2612"
    },
    {
      "channel": 0,
      "note": 40,
      "start": 4.3641,
      "duration": 0.0086,
      "velocity": 111,
      "chip": "ym2612"
    },
    {
      "channel": 2,
      "note": 91,
      "start": 4.3645,
      "duration": 0.2315,
      "velocity": 98,
      "chip": "ym2612"
    },
    {
      "channel": 0,
      "note": 40,
      "start": 4.3744,
      "duration": 0.0083,
      "velocity": 111,
      "chip": "ym2612"
    },
    {
      "channel": 1,
      "note": 90,
      "start": 4.3746,
      "duration": 0.0081,
      "velocity": 98,
      "chip": "ym2612"
    },
    {
      "channel": 3,
      "note": 56,
      "start": 4.3829,
      "duration": 0.4574,
      "velocity": 73,
      "chip": "ym2612"
    },
    {
      "channel": 4,
      "note": 73,
      "start": 4.3831,
      "duration": 0.4574,
      "velocity": 73,
      "chip": "ym2612"
    },
    {
      "channel": 0,
      "note": 40,
      "start": 4.4128,
      "duration": 0.0997,
      "velocity": 111,
      "chip": "ym2612"
    },
    {
      "channel": 1,
      "note": 90,
      "start": 4.4134,
      "duration": 0.0993,
      "velocity": 98,
      "chip": "ym2612"
    },
    {
      "channel": 0,
      "note": 40,
      "start": 4.5465,
      "duration": 0.0996,
      "velocity": 111,
      "chip": "ym2612"
    },
    {
      "channel": 1,
      "note": 91,
      "start": 4.5471,
      "duration": 0.1227,
      "velocity": 98,
      "chip": "ym2612"
    },
    {
      "channel": 2,
      "note": 90,
      "start": 4.6129,
      "duration": 0.0391,
      "velocity": 98,
      "chip": "ym2612"
    },
    {
      "channel": 0,
      "note": 40,
      "start": 4.652,
      "duration": 0.0089,
      "velocity": 111,
      "chip": "ym2612"
    },
    {
      "channel": 2,
      "note": 90,
      "start": 4.6595,
      "duration": 0.0075,
      "velocity": 98,
      "chip": "ym2612"
    },
    {
      "channel": 0,
      "note": 40,
      "start": 4.6626,
      "duration": 0.0091,
      "velocity": 111,
      "chip": "ym2612"
    },
    {
      "channel": 2,
      "note": 91,
      "start": 4.6702,
      "duration": 0.0322,
      "velocity": 98,
      "chip": "ym2612"
    },
    {
      "channel": 1,
      "note": 90,
      "start": 4.6721,
      "duration": 0.0083,
      "velocity": 98,
      "chip": "ym2612"
    },
    {
      "channel": 0,
      "note": 40,
      "start": 4.6793,
      "duration": 0.0078,
      "velocity": 111,
      "chip": "ym2612"
    },
    {
      "channel": 1,
      "note": 90,
      "start": 4.6876,
      "duration": 0.0083,
      "velocity": 98,
      "chip": "ym2612"
    },
    {
      "channel": 0,
      "note": 40,
      "start": 4.6894,
      "duration": 0.0082,
      "velocity": 111,
      "chip": "ym2612"
    },
    {
      "channel": 1,
      "note": 91,
      "start": 4.698,
      "duration": 0.0088,
      "velocity": 98,
      "chip": "ym2612"
    },
    {
      "channel": 0,
      "note": 40,
      "start": 4.7041,
      "duration": 0.0085,
      "velocity": 111,
      "chip": "ym2612"
    },
    {
      "channel": 2,
      "note": 90,
      "start": 4.7044,
      "duration": 0.0087,
      "velocity": 98,
      "chip": "ym2612"
    },
    {
      "channel": 1,
      "note": 91,
      "start": 4.713,
      "duration": 0.0929,
      "velocity": 98,
      "chip": "ym2612"
    },
    {
      "channel": 0,
      "note": 38,
      "start": 4.7398,
      "duration": 0.0997,
      "velocity": 111,
      "chip": "ym2612"
    },
    {
      "channel": 2,
      "note": 90,
      "start": 4.7897,
      "duration": 0.0552,
      "velocity": 98,
      "chip": "ym2612"
    },
    {
      "channel": 0,
      "note": 40,
      "start": 4.8398,
      "duration": 0.0092,
      "velocity": 111,
      "chip": "ym2612"
    },
    {
      "channel": 1,
      "note": 90,
      "start": 4.8402,
      "duration": 0.0088,
      "velocity": 98,
      "chip": "ym2612"
    },
    {
      "channel": 3,
      "note": 56,
      "start": 4.8403,
      "duration": 0.2507,
      "velocity": 73,
      "chip": "ym2612"
    },
    {
      "channel": 4,
      "note": 73,
      "start": 4.8405,
      "duration": 0.2507,
      "velocity": 73,
      "chip": "ym2612"
    },
    {
      "channel": 2,
      "note": 91,
      "start": 4.8466,
      "duration": 0.0082,
      "velocity": 98,
      "chip": "ym2612"
    },
    {
      "channel": 0,
      "note": 40,
      "start": 4.8543,
      "duration": 0.0093,
      "velocity": 111,
      "chip": "ym2612"
    },
    {
      "channel": 1,
      "note": 90,
      "start": 4.8547,
      "duration": 0.009,
      "velocity": 98,
      "chip": "ym2612"
    },
    {
      "channel": 2,
      "note": 91,
      "start": 4.8611,
      "duration": 0.0166,
      "velocity": 98,
      "chip": "ym2612"
    },
    {
      "channel": 0,
      "note": 40,
      "start": 4.8652,
      "duration": 0.0624,
      "velocity": 111,
      "chip": "ym2612"
    },
    {
      "channel": 2,
      "note": 90,
      "start": 4.9119,
      "duration": 0.0998,
      "velocity": 98,
      "chip": "ym2612"
    },
    {
      "channel": 0,
      "note": 40,
      "start": 5.0116,
      "duration": 0.0165,
      "velocity": 111,
      "chip": "ym2612"
    },
    {
      "channel": 0,
      "note": 40,
      "start": 5.0284,
      "duration": 0.0093,
      "velocity": 111,
      "chip": "ym2612"
    },
    {
      "channel": 1,
      "note": 81,
      "start": 5.0288,
      "duration": 0.0091,
      "velocity": 98,
      "chip": "ym2612"
    },
    {
      "channel": 2,
      "note": 90,
      "start": 5.0337,
      "duration": 0.0107,
      "velocity": 98,
      "chip": "ym2612"
    },
    {
      "channel": 0,
      "note": 40,
      "start": 5.046,
      "duration": 0.0082,
      "velocity": 111,
      "chip": "ym2612"
    },
    {
      "channel": 1,
      "note": 81,
      "start": 5.0464,
      "duration": 0.0079,
      "velocity": 98,
      "chip": "ym2612"
    },
    {
      "channel": 0,
      "note": 40,
      "start": 5.0577,
      "duration": 0.0081,
      "velocity": 111,
      "chip": "ym2612"
    },
    {
      "channel": 2,
      "note": 81,
      "start": 5.0633,
      "duration": 0.0092,
      "velocity": 98,
      "chip": "ym2612"
    },
    {
      "channel": 1,
      "note": 81,
      "start": 5.0662,
      "duration": 0.2551,
      "velocity": 98,
      "chip": "ym2612"
    },
    {
      "channel": 0,
      "note": 40,
      "start": 5.0724,
      "duration": 0.0087,
      "velocity": 111,
      "chip": "ym2612"
    },
    {
      "channel": 2,
      "note": 81,
      "start": 5.0781,
      "duration": 0.009,
      "velocity": 98,
      "chip": "ym2612"
    },
    {
      "channel": 0,
      "note": 40,
      "start": 5.0828,
      "duration": 0.0081,
      "velocity": 111,
      "chip": "ym2612"
    },
    {
      "channel": 3,
      "note": 57,
      "start": 5.0911,
      "duration": 0.2726,
      "velocity": 73,
      "chip": "ym2612"
    },
    {
      "channel": 4,
      "note": 72,
      "start": 5.0912,
      "duration": 0.2725,
      "velocity": 73,
      "chip": "ym2612"
    },
    {
      "channel": 0,
      "note": 40,
      "start": 5.1383,
      "duration": 0.0996,
      "velocity": 111,
      "chip": "ym2612"
    },
    {
      "channel": 2,
      "note": 81,
      "start": 5.1389,
      "duration": 0.2475,
      "velocity": 98,
      "chip": "ym2612"
    },
    {
      "channel": 0,
      "note": 40,
      "start": 5.2554,
      "duration": 0.0994,
      "velocity": 111,
      "chip": "ym2612"
    },
    {
      "channel": 1,
      "note": 81,
      "start": 5.3553,
      "duration": 0.0096,
      "velocity": 98,
      "chip": "ym2612"
    },
    {
      "channel": 0,
      "note": 40,
      "start": 5.3623,
      "duration": 0.0068,
      "velocity": 111,
      "chip": "ym2612"
    },
    {
      "channel": 0,
      "note": 40,
      "start": 5.3719,
      "duration": 0.007,
      "velocity": 111,
      "chip": "ym2612"
    },
    {
      "channel": 1,
      "note": 81,
      "start": 5.3721,
      "duration": 0.0046,
      "velocity": 98,
      "chip": "ym2612"
    },
    {
      "channel": 1,
      "note": 86,
      "start": 5.3793,
      "duration": 0.0103,
      "velocity": 98,
      "chip": "ym2612"
    },
    {
      "channel": 3,
      "note": 55,
      "start": 5.3796,
      "duration": 0.0125,
      "velocity": 73,
      "chip": "ym2612"
    },
    {
      "channel": 4,
      "note": 71,
      "start": 5.3798,
      "duration": 0.0123,
      "velocity": 73,
      "chip": "ym2612"
    },
    {
      "channel": 0,
      "note": 40,
      "start": 5.388,
      "duration": 0.0074,
      "velocity": 111,
      "chip": "ym2612"
    },
    {
      "channel": 2,
      "note": 81,
      "start": 5.3883,
      "duration": 0.0071,
      "velocity": 98,
      "chip": "ym2612"
    },
    {
      "channel": 0,
      "note": 40,
      "start": 5.3971,
      "duration": 0.0092,
      "velocity": 111,
      "chip": "ym2612"
    },
    {
      "channel": 1,
      "note": 85,
      "start": 5.3973,
      "duration": 0.0073,
      "velocity": 98,
      "chip": "ym2612"
    },
    {
      "channel": 3,
      "note": 57,
      "start": 5.3975,
      "duration": 0.0225,
      "velocity": 73,
      "chip": "ym2612"
    },
    {
      "channel": 4,
      "note": 73,
      "start": 5.3977,
      "duration": 0.0223,
      "velocity": 73,
      "chip": "ym2612"
    },
    {
      "channel": 2,
      "note": 81,
      "start": 5.4049,
      "duration": 0.0061,
      "velocity": 98,
      "chip": "ym2612"
    },
    {
      "channel": 1,
      "note": 86,
      "start": 5.4065,
      "duration": 0.0093,
      "velocity": 98,
      "chip": "ym2612"
    },
    {
      "channel": 0,
      "note": 40,
      "start": 5.4141,
      "duration": 0.0169,
      "velocity": 111,
      "chip": "ym2612"
    },
    {
      "channel": 2,
      "note": 86,
      "start": 5.4144,
      "duration": 0.0169,
      "velocity": 98,
      "chip": "ym2612"
    },
    {
      "channel": 1,
      "note": 88,
      "start": 5.4484,
      "duration": 0.005,
      "velocity": 98,
      "chip": "ym2612"
    },
    {
      "channel": 2,
      "note": 85,
      "start": 5.4537,
      "duration": 0.013,
      "velocity": 98,
      "chip": "ym2612"
    },
    {
      "channel": 0,
      "note": 40,
      "start": 5.4565,
      "duration": 0.0318,
      "velocity": 111,
      "chip": "ym2612"
    },
    {
      "channel": 1,
      "note": 33,
      "start": 5.4578,
      "duration": 0.0073,
      "velocity": 89,
      "chip": "ym2612"
    },
    {
      "channel": 3,
      "note": 59,
      "start": 5.4589,
      "duration": 0.2639,
      "velocity": 73,
      "chip": "ym2612"
    },
    {
      "channel": 4,
      "note": 74,
      "start": 5.4602,
      "duration": 0.2628,
      "velocity": 73,
      "chip": "ym2612"
    },
    {
      "channel": 1,
      "note": 35,
      "start": 5.4681,
      "duration": 0.0029,
      "velocity": 89,
      "chip": "ym2612"
    },
    {
      "channel": 2,
      "note": 86,
      "start": 5.4683,
      "duration": 0.0081,
      "velocity": 98,
      "chip": "ym2612"
    },
    {
      "channel": 1,
      "note": 38,
      "start": 5.4753,
      "duration": 0.0029,
      "velocity": 89,
      "chip": "ym2612"
    },
    {
      "channel": 1,
      "note": 40,
      "start": 5.4813,
      "duration": 0.0028,
      "velocity": 89,
      "chip": "ym2612"
    },
    {
      "channel": 2,
      "note": 88,
      "start": 5.4858,
      "duration": 0.0315,
      "velocity": 98,
      "chip": "ym2612"
    },
    {
      "channel": 1,
      "note": 45,
      "start": 5.4885,
      "duration": 0.0118,
      "velocity": 89,
      "chip": "ym2612"
    },
    {
      "channel": 1,
      "note": 47,
      "start": 5.5339,
      "duration": 0.0332,
      "velocity": 89,
      "chip": "ym2612"
    },
    {
      "channel": 2,
      "note": 33,
      "start": 5.5354,
      "duration": 0.0318,
      "velocity": 89,
      "chip": "ym2612"
    },
    {
      "channel": 1,
      "note": 50,
      "start": 5.6006,
      "duration": 0.0331,
      "velocity": 89,
      "chip": "ym2612"
    },
    {
      "channel": 2,
      "note": 35,
      "start": 5.601,
      "duration": 0.0328,
      "velocity": 89,
      "chip": "ym2612"
    },
    {
      "channel": 0,
      "note": 40,
      "start": 5.651,
      "duration": 0.0118,
      "velocity": 111,
      "chip": "ym2612"
    },
    {
      "channel": 1,
      "note": 52,
      "start": 5.6545,
      "duration": 0.0052,
      "velocity": 89,
      "chip": "ym2612"
    },
    {
      "channel": 2,
      "note": 38,
      "start": 5.6548,
      "duration": 0.005,
      "velocity": 89,
      "chip": "ym2612"
    },
    {
      "channel": 1,
      "note": 45,
      "start": 5.6632,
      "duration": 0.0056,
      "velocity": 89,
      "chip": "ym2612"
    },
    {
      "channel": 2,
      "note": 40,
      "start": 5.6635,
      "duration": 0.0053,
      "velocity": 89,
      "chip": "ym2612"
    },
    {
      "channel": 0,
      "note": 40,
      "start": 5.6736,
      "duration": 0.0091,
      "velocity": 111,
      "chip": "ym2612"
    },
    {
      "channel": 1,
      "note": 47,
      "start": 5.6739,
      "duration": 0.0033,
      "velocity": 89,
      "chip": "ym2612"
    },
    {
      "channel": 2,
      "note": 45,
      "start": 5.6741,
      "duration": 0.0031,
      "velocity": 89,
      "chip": "ym2612"
    },
    {
      "channel": 1,
      "note": 50,
      "start": 5.6802,
      "duration": 0.0027,
      "velocity": 89,
      "chip": "ym2612"
    },
    {
      "channel": 2,
      "note": 47,
      "start": 5.6804,
      "duration": 0.0025,
      "velocity": 89,
      "chip": "ym2612"
    },
    {
      "channel": 0,
      "note": 40,
      "start": 5.6845,
      "duration": 0.0092,
      "velocity": 111,
      "chip": "ym2612"
    },
    {
      "channel": 1,
      "note": 52,
      "start": 5.6861,
      "duration": 0.0032,
      "velocity": 89,
      "chip": "ym2612"
    },
    {
      "channel": 2,
      "note": 50,
      "start": 5.6864,
      "duration": 0.003,
      "velocity": 89,
      "chip": "ym2612"
    },
    {
      "channel": 1,
      "note": 57,
      "start": 5.6941,
      "duration": 0.0043,
      "velocity": 89,
      "chip": "ym2612"
    },
    {
      "channel": 2,
      "note": 52,
      "start": 5.6943,
      "duration": 0.0041,
      "velocity": 89,
      "chip": "ym2612"
    },
    {
      "channel": 0,
      "note": 40,
      "start": 5.7012,
      "duration": 0.0091,
      "velocity": 111,
      "chip": "ym2612"
    },
    {
      "channel": 1,
      "note": 59,
      "start": 5.7015,
      "duration": 0.003,
      "velocity": 89,
      "chip": "ym2612"
    },
    {
      "channel": 2,
      "note": 45,
      "start": 5.7017,
      "duration": 0.0029,
      "velocity": 89,
      "chip": "ym2612"
    },
    {
      "channel": 1,
      "note": 62,
      "start": 5.7086,
      "duration": 0.003,
      "velocity": 89,
      "chip": "ym2612"
    },
    {
      "channel": 2,
      "note": 47,
      "start": 5.7088,
      "duration": 0.0029,
      "velocity": 89,
      "chip": "ym2612"
    },
    {
      "channel": 0,
      "note": 40,
      "start": 5.7133,
      "duration": 0.0088,
      "velocity": 111,
      "chip": "ym2612"
    },
    {
      "channel": 1,
      "note": 64,
      "start": 5.7148,
      "duration": 0.003,
      "velocity": 89,
      "chip": "ym2612"
    },
    {
      "channel": 2,
      "note": 50,
      "start": 5.715,
      "duration": 0.0029,
      "velocity": 89,
      "chip": "ym2612"
    },
    {
      "channel": 1,
      "note": 57,
      "start": 5.7224,
      "duration": 0.0113,
      "velocity": 89,
      "chip": "ym2612"
    },
    {
      "channel": 2,
      "note": 52,
      "start": 5.7226,
      "duration": 0.0112,
      "velocity": 89,
      "chip": "ym2612"
    },
    {
      "channel": 3,
      "note": 58,
      "start": 5.7228,
      "duration": 0.4606,
      "velocity": 73,
      "chip": "ym2612"
    },
    {
      "channel": 4,
      "note": 74,
      "start": 5.723,
      "duration": 0.4606,
      "velocity": 73,
      "chip": "ym2612"
    },
    {
      "channel": 0,
      "note": 40,
      "start": 5.7675,
      "duration": 0.0999,
      "velocity": 111,
      "chip": "ym2612"
    },
    {
      "channel": 1,
      "note": 59,
      "start": 5.7678,
      "duration": 0.0327,
      "velocity": 89,
      "chip": "ym2612"
    },
    {
      "channel": 2,
      "note": 57,
      "start": 5.7682,
      "duration": 0.0324,
      "velocity": 89,
      "chip": "ym2612"
    },
    {
      "channel": 1,
      "note": 62,
      "start": 5.8341,
      "duration": 0.0335,
      "velocity": 89,
      "chip": "ym2612"
    },
    {
      "channel": 2,
      "note": 59,
      "start": 5.8345,
      "duration": 0.0332,
      "velocity": 89,
      "chip": "ym2612"
    },
    {
      "channel": 0,
      "note": 40,
      "start": 5.8845,
      "duration": 0.0996,
      "velocity": 111,
      "chip": "ym2612"
    },
    {
      "channel": 1,
      "note": 64,
      "start": 5.9176,
      "duration": 0.0332,
      "velocity": 89,
      "chip": "ym2612"
    },
    {
      "channel": 2,
      "note": 62,
      "start": 5.9179,
      "duration": 0.0329,
      "velocity": 89,
      "chip": "ym2612"
    },
    {
      "channel": 1,
      "note": 69,
      "start": 5.9846,
      "duration": 0.0029,
      "velocity": 89,
      "chip": "ym2612"
    },
    {
      "channel": 2,
      "note": 64,
      "start": 5.9848,
      "duration": 0.0028,
      "velocity": 89,
      "chip": "ym2612"
    },
    {
      "channel": 0,
      "note": 40,
      "start": 5.9946,
      "duration": 0.008,
      "velocity": 111,
      "chip": "ym2612"
    },
    {
      "channel": 1,
      "note": 71,
      "start": 5.9949,
      "duration": 0.003,
      "velocity": 89,
      "chip": "ym2612"
    },
    {
      "channel": 2,
      "note": 57,
      "start": 5.9951,
      "duration": 0.0028,
      "velocity": 89,
      "chip": "ym2612"
    },
    {
      "channel": 1,
      "note": 74,
      "start": 6.001,
      "duration": 0.003,
      "velocity": 89,
      "chip": "ym2612"
    },
    {
      "channel": 2,
      "note": 59,
      "start": 6.0012,
      "duration": 0.0028,
      "velocity": 89,
      "chip": "ym2612"
    },
    {
      "channel": 0,
      "note": 40,
      "start": 6.0057,
      "duration": 0.0085,
      "velocity": 111,
      "chip": "ym2612"
    },
    {
      "channel": 1,
      "note": 76,
      "start": 6.0072,
      "duration": 0.0031,
      "velocity": 89,
      "chip": "ym2612"
    },
    {
      "channel": 2,
      "note": 62,
      "start": 6.0074,
      "duration": 0.003,
      "velocity": 89,
      "chip": "ym2612"
    },
    {
      "channel": 1,
      "note": 81,
      "start": 6.0148,
      "duration": 0.0032,
      "velocity": 89,
      "chip": "ym2612"
    },
    {
      "channel": 2,
      "note": 64,
      "start": 6.0151,
      "duration": 0.003,
      "velocity": 89,
      "chip": "ym2612"
    },
    {
      "channel": 0,
      "note": 40,
      "start": 6.0211,
      "duration": 0.0092,
      "velocity": 111,
      "chip": "ym2612"
    },
    {
      "channel": 1,
      "note": 76,
      "start": 6.0213,
      "duration": 0.0034,
      "velocity": 89,
      "chip": "ym2612"
    },
    {
      "channel": 2,
      "note": 69,
      "start": 6.0215,
      "duration": 0.0033,
      "velocity": 89,
      "chip": "ym2612"
    },
    {
      "channel": 1,
      "note": 81,
      "start": 6.0288,
      "duration": 0.0028,
      "velocity": 89,
      "chip": "ym2612"
    },
    {
      "channel": 2,
      "note": 71,
      "start": 6.029,
      "duration": 0.0027,
      "velocity": 89,
      "chip": "ym2612"
    },
    {
      "channel": 0,
      "note": 40,
      "start": 6.0334,
      "duration": 0.0071,
      "velocity": 111,
      "chip": "ym2612"
    },
    {
      "channel": 1,
      "note": 76,
      "start": 6.0349,
      "duration": 0.0033,
      "velocity": 89,
      "chip": "ym2612"
    },
    {
      "channel": 2,
      "note": 74,
      "start": 6.0351,
      "duration": 0.0031,
      "velocity": 89,
      "chip": "ym2612"
    },
    {
      "channel": 1,
      "note": 81,
      "start": 6.0409,
      "duration": 0.0028,
      "velocity": 89,
      "chip": "ym2612"
    },
    {
      "channel": 2,
      "note": 76,
      "start": 6.0412,
      "duration": 0.0026,
      "velocity": 89,
      "chip": "ym2612"
    },
    {
      "channel": 0,
      "note": 40,
      "start": 6.0481,
      "duration": 0.0172,
      "velocity": 111,
      "chip": "ym2612"
    },
    {
      "channel": 1,
      "note": 76,
      "start": 6.0484,
      "duration": 0.0031,
      "velocity": 89,
      "chip": "ym2612"
    },
    {
      "channel": 2,
      "note": 81,
      "start": 6.0487,
      "duration": 0.0029,
      "velocity": 89,
      "chip": "ym2612"
    },
    {
      "channel": 1,
      "note": 81,
      "start": 6.0553,
      "duration": 0.0102,
      "velocity": 89,
      "chip": "ym2612"
    },
    {
      "channel": 2,
      "note": 76,
      "start": 6.0556,
      "duration": 0.01,
      "velocity": 89,
      "chip": "ym2612"
    },
    {
      "channel": 0,
      "note": 38,
      "start": 6.0826,
      "duration": 0.0999,
      "velocity": 111,
      "chip": "ym2612"
    },
    {
      "channel": 1,
      "note": 76,
      "start": 6.1156,
      "duration": 0.0332,
      "velocity": 89,
      "chip": "ym2612"
    },
    {
      "channel": 2,
      "note": 81,
      "start": 6.1161,
      "duration": 0.0327,
      "velocity": 89,
      "chip": "ym2612"
    },
    {
      "channel": 1,
      "note": 81,
      "start": 6.183,
      "duration": 0.0029,
      "velocity": 89,
      "chip": "ym2612"
    },
    {
      "channel": 2,
      "note": 76,
      "start": 6.1833,
      "duration": 0.0028,
      "velocity": 89,
      "chip": "ym2612"
    },
    {
      "channel": 3,
      "note": 59,
      "start": 6.1834,
      "duration": 0.2529,
      "velocity": 73,
      "chip": "ym2612"
    },
    {
      "channel": 4,
      "note": 73,
      "start": 6.1836,
      "duration": 0.2529,
      "velocity": 73,
      "chip": "ym2612"
    },
    {
      "channel": 0,
      "note": 38,
      "start": 6.1907,
      "duration": 0.0077,
      "velocity": 111,
      "chip": "ym2612"
    },
    {
      "channel": 1,
      "note": 76,
      "start": 6.1909,
      "duration": 0.0029,
      "velocity": 89,
      "chip": "ym2612"
    },
    {
      "channel": 2,
      "note": 81,
      "start": 6.1913,
      "duration": 0.0026,
      "velocity": 89,
      "chip": "ym2612"
    },
    {
      "channel": 1,
      "note": 81,
      "start": 6.1967,
      "duration": 0.0031,
      "velocity": 89,
      "chip": "ym2612"
    },
    {
      "channel": 2,
      "note": 76,
      "start": 6.1969,
      "duration": 0.0029,
      "velocity": 89,
      "chip": "ym2612"
    },
    {
      "channel": 0,
      "note": 40,
      "start": 6.2014,
      "duration": 0.0083,
      "velocity": 111,
      "chip": "ym2612"
    },
    {
      "channel": 1,
      "note": 76,
      "start": 6.203,
      "duration": 0.003,
      "velocity": 89,
      "chip": "ym2612"
    },
    {
      "channel": 2,
      "note": 81,
      "start": 6.2034,
      "duration": 0.0027,
      "velocity": 89,
      "chip": "ym2612"
    },
    {
      "channel": 1,
      "note": 81,
      "start": 6.2101,
      "duration": 0.0033,
      "velocity": 89,
      "chip": "ym2612"
    },
    {
      "channel": 2,
      "note": 76,
      "start": 6.2104,
      "duration": 0.0031,
      "velocity": 89,
      "chip": "ym2612"
    },
    {
      "channel": 0,
      "note": 40,
      "start": 6.2396,
      "duration": 0.0997,
      "velocity": 111,
      "chip": "ym2612"
    },
    {
      "channel": 1,
      "note": 76,
      "start": 6.24,
      "duration": 0.0327,
      "velocity": 89,
      "chip": "ym2612"
    },
    {
      "channel": 2,
      "note": 81,
      "start": 6.2405,
      "duration": 0.0323,
      "velocity": 89,
      "chip": "ym2612"
    },
    {
      "channel": 1,
      "note": 81,
      "start": 6.3232,
      "duration": 0.0329,
      "velocity": 89,
      "chip": "ym2612"
    },
    {
      "channel": 2,
      "note": 76,
      "start": 6.3236,
      "duration": 0.0327,
      "velocity": 89,
      "chip": "ym2612"
    },
    {
      "channel": 0,
      "note": 40,
      "start": 6.3736,
      "duration": 0.007,
      "velocity": 111,
      "chip": "ym2612"
    },
    {
      "channel": 1,
      "note": 76,
      "start": 6.3752,
      "duration": 0.0028,
      "velocity": 89,
      "chip": "ym2612"
    },
    {
      "channel": 2,
      "note": 81,
      "start": 6.3756,
      "duration": 0.0025,
      "velocity": 89,
      "chip": "ym2612"
    },
    {
      "channel": 0,
      "note": 40,
      "start": 6.3809,
      "duration": 0.0115,
      "velocity": 111,
      "chip": "ym2612"
    },
    {
      "channel": 1,
      "note": 81,
      "start": 6.3815,
      "duration": 0.0046,
      "velocity": 89,
      "chip": "ym2612"
    },
    {
      "channel": 2,
      "note": 76,
      "start": 6.3818,
      "duration": 0.0044,
      "velocity": 89,
      "chip": "ym2612"
    },
    {
      "channel": 1,
      "note": 76,
      "start": 6.3905,
      "duration": 0.0033,
      "velocity": 89,
      "chip": "ym2612"
    },
    {
      "channel": 2,
      "note": 81,
      "start": 6.3909,
      "duration": 0.003,
      "velocity": 89,
      "chip": "ym2612"
    },
    {
      "channel": 1,
      "note": 81,
      "start": 6.397,
      "duration": 0.0029,
      "velocity": 89,
      "chip": "ym2612"
    },
    {
      "channel": 2,
      "note": 76,
      "start": 6.3973,
      "duration": 0.0027,
      "velocity": 89,
      "chip": "ym2612"
    },
    {
      "channel": 0,
      "note": 40,
      "start": 6.3998,
      "duration": 0.0085,
      "velocity": 111,
      "chip": "ym2612"
    },
    {
      "channel": 1,
      "note": 76,
      "start": 6.4037,
      "duration": 0.0034,
      "velocity": 89,
      "chip": "ym2612"
    },
    {
      "channel": 2,
      "note": 81,
      "start": 6.404,
      "duration": 0.003,
      "velocity": 89,
      "chip": "ym2612"
    },
    {
      "channel": 0,
      "note": 40,
      "start": 6.41,
      "duration": 0.0084,
      "velocity": 111,
      "chip": "ym2612"
    },
    {
      "channel": 1,
      "note": 81,
      "start": 6.4104,
      "duration": 0.0027,
      "velocity": 89,
      "chip": "ym2612"
    },
    {
      "channel": 2,
      "note": 76,
      "start": 6.4107,
      "duration": 0.0025,
      "velocity": 89,
      "chip": "ym2612"
    },
    {
      "channel": 1,
      "note": 76,
      "start": 6.4169,
      "duration": 0.0034,
      "velocity": 89,
      "chip": "ym2612"
    },
    {
      "channel": 2,
      "note": 81,
      "start": 6.4173,
      "duration": 0.003,
      "velocity": 89,
      "chip": "ym2612"
    },
    {
      "channel": 1,
      "note": 81,
      "start": 6.4228,
      "duration": 0.0031,
      "velocity": 89,
      "chip": "ym2612"
    },
    {
      "channel": 2,
      "note": 76,
      "start": 6.423,
      "duration": 0.0029,
      "velocity": 89,
      "chip": "ym2612"
    },
    {
      "channel": 0,
      "note": 40,
      "start": 6.4246,
      "duration": 0.0027,
      "velocity": 111,
      "chip": "ym2612"
    },
    {
      "channel": 0,
      "note": 40,
      "start": 6.4274,
      "duration": 0.0081,
      "velocity": 111,
      "chip": "ym2612"
    },
    {
      "channel": 1,
      "note": 76,
      "start": 6.4289,
      "duration": 0.0026,
      "velocity": 89,
      "chip": "ym2612"
    },
    {
      "channel": 2,
      "note": 81,
      "start": 6.4292,
      "duration": 0.0023,
      "velocity": 89,
      "chip": "ym2612"
    },
    {
      "channel": 1,
      "note": 81,
      "start": 6.4359,
      "duration": 0.003,
      "velocity": 89,
      "chip": "ym2612"
    },
    {
      "channel": 2,
      "note": 76,
      "start": 6.4361,
      "duration": 0.0028,
      "velocity": 89,
      "chip": "ym2612"
    },
    {
      "channel": 3,
      "note": 59,
      "start": 6.4363,
      "duration": 0.2933,
      "velocity": 73,
      "chip": "ym2612"
    },
    {
      "channel": 4,
      "note": 73,
      "start": 6.4365,
      "duration": 0.2931,
      "velocity": 73,
      "chip": "ym2612"
    },
    {
      "channel": 0,
      "note": 40,
      "start": 6.4653,
      "duration": 0.0997,
      "velocity": 111,
      "chip": "ym2612"
    },
    {
      "channel": 1,
      "note": 76,
      "start": 6.4656,
      "duration": 0.0326,
      "velocity": 89,
      "chip": "ym2612"
    },
    {
      "channel": 2,
      "note": 81,
      "start": 6.4662,
      "duration": 0.0322,
      "velocity": 89,
      "chip": "ym2612"
    },
    {
      "channel": 1,
      "note": 81,
      "start": 6.549,
      "duration": 0.0327,
      "velocity": 89,
      "chip": "ym2612"
    },
    {
      "channel": 2,
      "note": 76,
      "start": 6.5494,
      "duration": 0.0325,
      "velocity": 89,
      "chip": "ym2612"
    },
    {
      "channel": 0,
      "note": 40,
      "start": 6.599,
      "duration": 0.0829,
      "velocity": 111,
      "chip": "ym2612"
    },
    {
      "channel": 1,
      "note": 76,
      "start": 6.6155,
      "duration": 0.033,
      "velocity": 89,
      "chip": "ym2612"
    },
    {
      "channel": 2,
      "note": 81,
      "start": 6.6161,
      "duration": 0.0326,
      "velocity": 89,
      "chip": "ym2612"
    },
    {
      "channel": 1,
      "note": 81,
      "start": 6.6825,
      "duration": 0.0032,
      "velocity": 89,
      "chip": "ym2612"
    },
    {
      "channel": 2,
      "note": 76,
      "start": 6.6827,
      "duration": 0.003,
      "velocity": 89,
      "chip": "ym2612"
    },
    {
      "channel": 0,
      "note": 40,
      "start": 6.6921,
      "duration": 0.0089,
      "velocity": 111,
      "chip": "ym2612"
    },
    {
      "channel": 1,
      "note": 76,
      "start": 6.6924,
      "duration": 0.0028,
      "velocity": 89,
      "chip": "ym2612"
    },
    {
      "channel": 2,
      "note": 81,
      "start": 6.6927,
      "duration": 0.0025,
      "velocity": 89,
      "chip": "ym2612"
    },
    {
      "channel": 1,
      "note": 81,
      "start": 6.6981,
      "duration": 0.003,
      "velocity": 89,
      "chip": "ym2612"
    },
    {
      "channel": 2,
      "note": 76,
      "start": 6.6983,
      "duration": 0.0028,
      "velocity": 89,
      "chip": "ym2612"
    },
    {
      "channel": 0,
      "note": 40,
      "start": 6.7029,
      "duration": 0.009,
      "velocity": 111,
      "chip": "ym2612"
    },
    {
      "channel": 1,
      "note": 76,
      "start": 6.7063,
      "duration": 0.003,
      "velocity": 89,
      "chip": "ym2612"
    },
    {
      "channel": 2,
      "note": 81,
      "start": 6.7067,
      "duration": 0.0028,
      "velocity": 89,
      "chip": "ym2612"
    },
    {
      "channel": 1,
      "note": 81,
      "start": 6.7126,
      "duration": 0.0028,
      "velocity": 89,
      "chip": "ym2612"
    },
    {
      "channel": 2,
      "note": 76,
      "start": 6.7127,
      "duration": 0.0027,
      "velocity": 89,
      "chip": "ym2612"
    },
    {
      "channel": 0,
      "note": 40,
      "start": 6.7182,
      "duration": 0.0083,
      "velocity": 111,
      "chip": "ym2612"
    },
    {
      "channel": 1,
      "note": 76,
      "start": 6.7184,
      "duration": 0.0029,
      "velocity": 89,
      "chip": "ym2612"
    },
    {
      "channel": 2,
      "note": 81,
      "start": 6.7188,
      "duration": 0.0027,
      "velocity": 89,
      "chip": "ym2612"
    },
    {
      "channel": 1,
      "note": 81,
      "start": 6.7251,
      "duration": 0.0027,
      "velocity": 89,
      "chip": "ym2612"
    },
    {
      "channel": 2,
      "note": 76,
      "start": 6.7253,
      "duration": 0.0026,
      "velocity": 89,
      "chip": "ym2612"
    },
    {
      "channel": 0,
      "note": 40,
      "start": 6.7294,
      "duration": 0.0072,
      "velocity": 111,
      "chip": "ym2612"
    },
    {
      "channel": 1,
      "note": 76,
      "start": 6.7309,
      "duration": 0.0027,
      "velocity": 89,
      "chip": "ym2612"
    },
    {
      "channel": 2,
      "note": 81,
      "start": 6.7313,
      "duration": 0.0024,
      "velocity": 89,
      "chip": "ym2612"
    },
    {
      "channel": 1,
      "note": 81,
      "start": 6.737,
      "duration": 0.0025,
      "velocity": 89,
      "chip": "ym2612"
    },
    {
      "channel": 2,
      "note": 76,
      "start": 6.7373,
      "duration": 0.0023,
      "velocity": 89,
      "chip": "ym2612"
    },
    {
      "channel": 0,
      "note": 40,
      "start": 6.7422,
      "duration": 0.0082,
      "velocity": 111,
      "chip": "ym2612"
    },
    {
      "channel": 1,
      "note": 76,
      "start": 6.7425,
      "duration": 0.0029,
      "velocity": 89,
      "chip": "ym2612"
    },
    {
      "channel": 2,
      "note": 81,
      "start": 6.7429,
      "duration": 0.0026,
      "velocity": 89,
      "chip": "ym2612"
    },
    {
      "channel": 1,
      "note": 81,
      "start": 6.7492,
      "duration": 0.0119,
      "velocity": 89,
      "chip": "ym2612"
    },
    {
      "channel": 2,
      "note": 76,
      "start": 6.7495,
      "duration": 0.0117,
      "velocity": 89,
      "chip": "ym2612"
    },
    {
      "channel": 1,
      "note": 76,
      "start": 6.7945,
      "duration": 0.0332,
      "velocity": 89,
      "chip": "ym2612"
    },
    {
      "channel": 2,
      "note": 81,
      "start": 6.7951,
      "duration": 0.0327,
      "velocity": 89,
      "chip": "ym2612"
    },
    {
      "channel": 0,
      "note": 40,
      "start": 6.8616,
      "duration": 0.0265,
      "velocity": 111,
      "chip": "ym2612"
    },
    {
      "channel": 1,
      "note": 81,
      "start": 6.8621,
      "duration": 0.0028,
      "velocity": 89,
      "chip": "ym2612"
    },
    {
      "channel": 2,
      "note": 76,
      "start": 6.8623,
      "duration": 0.0026,
      "velocity": 89,
      "chip": "ym2612"
    },
    {
      "channel": 3,
      "note": 57,
      "start": 6.8626,
      "duration": 0.253,
      "velocity": 73,
      "chip": "ym2612"
    },
    {
      "channel": 4,
      "note": 73,
      "start": 6.8628,
      "duration": 0.2529,
      "velocity": 73,
      "chip": "ym2612"
    },
    {
      "channel": 1,
      "note": 76,
      "start": 6.8692,
      "duration": 0.003,
      "velocity": 89,
      "chip": "ym2612"
    },
    {
      "channel": 2,
      "note": 81,
      "start": 6.8695,
      "duration": 0.0028,
      "velocity": 89,
      "chip": "ym2612"
    },
    {
      "channel": 1,
      "note": 74,
      "start": 6.8753,
      "duration": 0.0027,
      "velocity": 89,
      "chip": "ym2612"
    },
    {
      "channel": 2,
      "note": 76,
      "start": 6.8756,
      "duration": 0.0025,
      "velocity": 89,
      "chip": "ym2612"
    },
    {
      "channel": 1,
      "note": 73,
      "start": 6.8826,
      "duration": 0.003,
      "velocity": 89,
      "chip": "ym2612"
    },
    {
      "channel": 2,
      "note": 81,
      "start": 6.883,
      "duration": 0.0027,
      "velocity": 89,
      "chip": "ym2612"
    },
    {
      "channel": 1,
      "note": 76,
      "start": 6.8885,
      "duration": 0.0032,
      "velocity": 89,
      "chip": "ym2612"
    },
    {
      "channel": 2,
      "note": 76,
      "start": 6.8888,
      "duration": 0.0029,
      "velocity": 89,
      "chip": "ym2612"
    },
    {
      "channel": 1,
      "note": 74,
      "start": 6.9181,
      "duration": 0.033,
      "velocity": 89,
      "chip": "ym2612"
    },
    {
      "channel": 2,
      "note": 81,
      "start": 6.9188,
      "duration": 0.0324,
      "velocity": 89,
      "chip": "ym2612"
    },
    {
      "channel": 1,
      "note": 73,
      "start": 7.0015,
      "duration": 0.0335,
      "velocity": 89,
      "chip": "ym2612"
    },
    {
      "channel": 2,
      "note": 76,
      "start": 7.0018,
      "duration": 0.0332,
      "velocity": 89,
      "chip": "ym2612"
    },
    {
      "channel": 0,
      "note": 40,
      "start": 7.0517,
      "duration": 0.0095,
      "velocity": 111,
      "chip": "ym2612"
    },
    {
      "channel": 1,
      "note": 69,
      "start": 7.0538,
      "duration": 0.0032,
      "velocity": 89,
      "chip": "ym2612"
    },
    {
      "channel": 2,
      "note": 74,
      "start": 7.0541,
      "duration": 0.0029,
      "velocity": 89,
      "chip": "ym2612"
    },
    {
      "channel": 1,
      "note": 64,
      "start": 7.0617,
      "duration": 0.0031,
      "velocity": 89,
      "chip": "ym2612"
    },
    {
      "channel": 2,
      "note": 73,
      "start": 7.0619,
      "duration": 0.0029,
      "velocity": 89,
      "chip": "ym2612"
    },
    {
      "channel": 0,
      "note": 40,
      "start": 7.0681,
      "duration": 0.0083,
      "velocity": 111,
      "chip": "ym2612"
    },
    {
      "channel": 1,
      "note": 62,
      "start": 7.0683,
      "duration": 0.0028,
      "velocity": 89,
      "chip": "ym2612"
    },
    {
      "channel": 2,
      "note": 76,
      "start": 7.0686,
      "duration": 0.0025,
      "velocity": 89,
      "chip": "ym2612"
    },
    {
      "channel": 1,
      "note": 61,
      "start": 7.075,
      "duration": 0.0034,
      "velocity": 89,
      "chip": "ym2612"
    },
    {
      "channel": 2,
      "note": 74,
      "start": 7.0753,
      "duration": 0.0032,
      "velocity": 89,
      "chip": "ym2612"
    },
    {
      "channel": 0,
      "note": 40,
      "start": 7.0783,
      "duration": 0.0088,
      "velocity": 111,
      "chip": "ym2612"
    },
    {
      "channel": 1,
      "note": 57,
      "start": 7.0815,
      "duration": 0.0029,
      "velocity": 89,
      "chip": "ym2612"
    },
    {
      "channel": 2,
      "note": 73,
      "start": 7.0817,
      "duration": 0.0028,
      "velocity": 89,
      "chip": "ym2612"
    },
    {
      "channel": 1,
      "note": 52,
      "start": 7.0877,
      "duration": 0.0032,
      "velocity": 89,
      "chip": "ym2612"
    },
    {
      "channel": 2,
      "note": 69,
      "start": 7.088,
      "duration": 0.003,
      "velocity": 89,
      "chip": "ym2612"
    },
    {
      "channel": 0,
      "note": 40,
      "start": 7.0952,
      "duration": 0.009,
      "velocity": 111,
      "chip": "ym2612"
    },
    {
      "channel": 1,
      "note": 50,
      "start": 7.0954,
      "duration": 0.0034,
      "velocity": 89,
      "chip": "ym2612"
    },
    {
      "channel": 2,
      "note": 64,
      "start": 7.0957,
      "duration": 0.0031,
      "velocity": 89,
      "chip": "ym2612"
    },
    {
      "channel": 1,
      "note": 49,
      "start": 7.1017,
      "duration": 0.0026,
      "velocity": 89,
      "chip": "ym2612"
    },
    {
      "channel": 2,
      "note": 62,
      "start": 7.1019,
      "duration": 0.0024,
      "velocity": 89,
      "chip": "ym2612"
    },
    {
      "channel": 0,
      "note": 40,
      "start": 7.106,
      "duration": 0.0088,
      "velocity": 111,
      "chip": "ym2612"
    },
    {
      "channel": 1,
      "note": 45,
      "start": 7.1089,
      "duration": 0.0032,
      "velocity": 89,
      "chip": "ym2612"
    },
    {
      "channel": 2,
      "note": 61,
      "start": 7.1091,
      "duration": 0.0031,
      "velocity": 89,
      "chip": "ym2612"
    },
    {
      "channel": 1,
      "note": 40,
      "start": 7.1151,
      "duration": 0.0034,
      "velocity": 89,
      "chip": "ym2612"
    },
    {
      "channel": 2,
      "note": 57,
      "start": 7.1153,
      "duration": 0.0032,
      "velocity": 89,
      "chip": "ym2612"
    },
    {
      "channel": 3,
      "note": 56,
      "start": 7.1155,
      "duration": 0.4614,
      "velocity": 73,
      "chip": "ym2612"
    },
    {
      "channel": 4,
      "note": 73,
      "start": 7.1157,
      "duration": 0.4614,
      "velocity": 73,
      "chip": "ym2612"
    },
    {
      "channel": 0,
      "note": 40,
      "start": 7.1452,
      "duration": 0.0997,
      "velocity": 111,
      "chip": "ym2612"
    },
    {
      "channel": 1,
      "note": 45,
      "start": 7.1456,
      "duration": 0.0328,
      "velocity": 89,
      "chip": "ym2612"
    },
    {
      "channel": 2,
      "note": 52,
      "start": 7.1461,
      "duration": 0.0324,
      "velocity": 89,
      "chip": "ym2612"
    },
    {
      "channel": 1,
      "note": 50,
      "start": 7.2285,
      "duration": 0.0332,
      "velocity": 89,
      "chip": "ym2612"
    },
    {
      "channel": 2,
      "note": 50,
      "start": 7.2289,
      "duration": 0.0329,
      "velocity": 89,
      "chip": "ym2612"
    },
    {
      "channel": 0,
      "note": 40,
      "start": 7.2789,
      "duration": 0.0998,
      "velocity": 111,
      "chip": "ym2612"
    },
    {
      "channel": 1,
      "note": 52,
      "start": 7.2953,
      "duration": 0.0331,
      "velocity": 89,
      "chip": "ym2612"
    },
    {
      "channel": 2,
      "note": 49,
      "start": 7.2956,
      "duration": 0.0329,
      "velocity": 89,
      "chip": "ym2612"
    },
    {
      "channel": 1,
      "note": 57,
      "start": 7.3792,
      "duration": 0.0032,
      "velocity": 89,
      "chip": "ym2612"
    },
    {
      "channel": 2,
      "note": 45,
      "start": 7.3795,
      "duration": 0.003,
      "velocity": 89,
      "chip": "ym2612"
    },
    {
      "channel": 0,
      "note": 40,
      "start": 7.3854,
      "duration": 0.0093,
      "velocity": 111,
      "chip": "ym2612"
    },
    {
      "channel": 1,
      "note": 52,
      "start": 7.3856,
      "duration": 0.0029,
      "velocity": 89,
      "chip": "ym2612"
    },
    {
      "channel": 2,
      "note": 40,
      "start": 7.3859,
      "duration": 0.0027,
      "velocity": 89,
      "chip": "ym2612"
    },
    {
      "channel": 1,
      "note": 57,
      "start": 7.3915,
      "duration": 0.0033,
      "velocity": 89,
      "chip": "ym2612"
    },
    {
      "channel": 2,
      "note": 45,
      "start": 7.3917,
      "duration": 0.0031,
      "velocity": 89,
      "chip": "ym2612"
    },
    {
      "channel": 0,
      "note": 40,
      "start": 7.3966,
      "duration": 0.0085,
      "velocity": 111,
      "chip": "ym2612"
    },
    {
      "channel": 1,
      "note": 52,
      "start": 7.3996,
      "duration": 0.0029,
      "velocity": 89,
      "chip": "ym2612"
    },
    {
      "channel": 2,
      "note": 50,
      "start": 7.3998,
      "duration": 0.0027,
      "velocity": 89,
      "chip": "ym2612"
    },
    {
      "channel": 1,
      "note": 57,
      "start": 7.4054,
      "duration": 0.0029,
      "velocity": 89,
      "chip": "ym2612"
    },
    {
      "channel": 2,
      "note": 52,
      "start": 7.4056,
      "duration": 0.0027,
      "velocity": 89,
      "chip": "ym2612"
    },
    {
      "channel": 0,
      "note": 40,
      "start": 7.4133,
      "duration": 0.0093,
      "velocity": 111,
      "chip": "ym2612"
    },
    {
      "channel": 1,
      "note": 52,
      "start": 7.4135,
      "duration": 0.0031,
      "velocity": 89,
      "chip": "ym2612"
    },
    {
      "channel": 2,
      "note": 57,
      "start": 7.4137,
      "duration": 0.0029,
      "velocity": 89,
      "chip": "ym2612"
    },
    {
      "channel": 1,
      "note": 57,
      "start": 7.4196,
      "duration": 0.003,
      "velocity": 89,
      "chip": "ym2612"
    },
    {
      "channel": 2,
      "note": 52,
      "start": 7.4198,
      "duration": 0.0029,
      "velocity": 89,
      "chip": "ym2612"
    },
    {
      "channel": 0,
      "note": 40,
      "start": 7.4244,
      "duration": 0.0091,
      "velocity": 111,
      "chip": "ym2612"
    },
    {
      "channel": 1,
      "note": 52,
      "start": 7.4278,
      "duration": 0.0031,
      "velocity": 89,
      "chip": "ym2612"
    },
    {
      "channel": 2,
      "note": 57,
      "start": 7.4282,
      "duration": 0.0028,
      "velocity": 89,
      "chip": "ym2612"
    },
    {
      "channel": 1,
      "note": 57,
      "start": 7.4339,
      "duration": 0.0032,
      "velocity": 89,
      "chip": "ym2612"
    },
    {
      "channel": 2,
      "note": 52,
      "start": 7.4342,
      "duration": 0.003,
      "velocity": 89,
      "chip": "ym2612"
    },
    {
      "channel": 0,
      "note": 40,
      "start": 7.4403,
      "duration": 0.0095,
      "velocity": 111,
      "chip": "ym2612"
    },
    {
      "channel": 1,
      "note": 52,
      "start": 7.4405,
      "duration": 0.0033,
      "velocity": 89,
      "chip": "ym2612"
    },
    {
      "channel": 2,
      "note": 57,
      "start": 7.4408,
      "duration": 0.003,
      "velocity": 89,
      "chip": "ym2612"
    },
    {
      "channel": 1,
      "note": 57,
      "start": 7.4483,
      "duration": 0.0097,
      "velocity": 89,
      "chip": "ym2612"
    },
    {
      "channel": 2,
      "note": 52,
      "start": 7.4485,
      "duration": 0.0096,
      "velocity": 89,
      "chip": "ym2612"
    },
    {
      "channel": 0,
      "note": 38,
      "start": 7.4753,
      "duration": 0.0997,
      "velocity": 111,
      "chip": "ym2612"
    },
    {
      "channel": 1,
      "note": 52,
      "start": 7.4916,
      "duration": 0.0334,
      "velocity": 89,
      "chip": "ym2612"
    },
    {
      "channel": 2,
      "note": 57,
      "start": 7.4921,
      "duration": 0.0329,
      "velocity": 89,
      "chip": "ym2612"
    },
    {
      "channel": 0,
      "note": 40,
      "start": 7.5753,
      "duration": 0.0127,
      "velocity": 111,
      "chip": "ym2612"
    },
    {
      "channel": 1,
      "note": 86,
      "start": 7.5766,
      "duration": 0.0202,
      "velocity": 98,
      "chip": "ym2612"
    },
    {
      "channel": 2,
      "note": 52,
      "start": 7.5768,
      "duration": 0.0029,
      "velocity": 89,
      "chip": "ym2612"
    },
    {
      "channel": 3,
      "note": 56,
      "start": 7.577,
      "duration": 0.2543,
      "velocity": 73,
      "chip": "ym2612"
    },
    {
      "channel": 4,
      "note": 73,
      "start": 7.5771,
      "duration": 0.2544,
      "velocity": 73,
      "chip": "ym2612"
    },
    {
      "channel": 2,
      "note": 57,
      "start": 7.5855,
      "duration": 0.0026,
      "velocity": 89,
      "chip": "ym2612"
    },
    {
      "channel": 2,
      "note": 52,
      "start": 7.5913,
      "duration": 0.0027,
      "velocity": 89,
      "chip": "ym2612"
    },
    {
      "channel": 0,
      "note": 40,
      "start": 7.594,
      "duration": 0.0083,
      "velocity": 111,
      "chip": "ym2612"
    },
    {
      "channel": 2,
      "note": 57,
      "start": 7.5984,
      "duration": 0.0026,
      "velocity": 89,
      "chip": "ym2612"
    },
    {
      "channel": 0,
      "note": 40,
      "start": 7.6045,
      "duration": 0.0629,
      "velocity": 111,
      "chip": "ym2612"
    },
    {
      "channel": 2,
      "note": 52,
      "start": 7.6047,
      "duration": 0.0028,
      "velocity": 89,
      "chip": "ym2612"
    },
    {
      "channel": 2,
      "note": 86,
      "start": 7.6523,
      "duration": 0.1221,
      "velocity": 98,
      "chip": "ym2612"
    },
    {
      "channel": 0,
      "note": 40,
      "start": 7.7513,
      "duration": 0.0164,
      "velocity": 111,
      "chip": "ym2612"
    },
    {
      "channel": 0,
      "note": 40,
      "start": 7.768,
      "duration": 0.0076,
      "velocity": 111,
      "chip": "ym2612"
    },
    {
      "channel": 1,
      "note": 88,
      "start": 7.776,
      "duration": 0.0195,
      "velocity": 98,
      "chip": "ym2612"
    },
    {
      "channel": 0,
      "note": 40,
      "start": 7.7844,
      "duration": 0.0075,
      "velocity": 111,
      "chip": "ym2612"
    },
    {
      "channel": 0,
      "note": 40,
      "start": 7.7954,
      "duration": 0.0078,
      "velocity": 111,
      "chip": "ym2612"
    },
    {
      "channel": 0,
      "note": 40,
      "start": 7.8124,
      "duration": 0.0081,
      "velocity": 111,
      "chip": "ym2612"
    },
    {
      "channel": 2,
      "note": 88,
      "start": 7.8126,
      "duration": 0.0168,
      "velocity": 98,
      "chip": "ym2612"
    },
    {
      "channel": 0,
      "note": 40,
      "start": 7.8224,
      "duration": 0.0085,
      "velocity": 111,
      "chip": "ym2612"
    },
    {
      "channel": 1,
      "note": 83,
      "start": 7.8311,
      "duration": 0.1641,
      "velocity": 98,
      "chip": "ym2612"
    },
    {
      "channel": 3,
      "note": 57,
      "start": 7.8312,
      "duration": 0.2711,
      "velocity": 73,
      "chip": "ym2612"
    },
    {
      "channel": 4,
      "note": 72,
      "start": 7.8314,
      "duration": 0.271,
      "velocity": 73,
      "chip": "ym2612"
    },
    {
      "channel": 0,
      "note": 40,
      "start": 7.8782,
      "duration": 0.0997,
      "velocity": 111,
      "chip": "ym2612"
    },
    {
      "channel": 0,
      "note": 40,
      "start": 7.9952,
      "duration": 0.0996,
      "velocity": 111,
      "chip": "ym2612"
    },
    {
      "channel": 0,
      "note": 40,
      "start": 8.1008,
      "duration": 0.0075,
      "velocity": 111,
      "chip": "ym2612"
    },
    {
      "channel": 2,
      "note": 83,
      "start": 8.1011,
      "duration": 0.0144,
      "velocity": 98,
      "chip": "ym2612"
    },
    {
      "channel": 0,
      "note": 40,
      "start": 8.111,
      "duration": 0.0068,
      "velocity": 111,
      "chip": "ym2612"
    },
    {
      "channel": 1,
      "note": 81,
      "start": 8.1183,
      "duration": 0.0168,
      "velocity": 98,
      "chip": "ym2612"
    },
    {
      "channel": 3,
      "note": 55,
      "start": 8.1185,
      "duration": 0.01,
      "velocity": 73,
      "chip": "ym2612"
    },
    {
      "channel": 4,
      "note": 71,
      "start": 8.1188,
      "duration": 0.0098,
      "velocity": 73,
      "chip": "ym2612"
    },
    {
      "channel": 0,
      "note": 40,
      "start": 8.1246,
      "duration": 0.0071,
      "velocity": 111,
      "chip": "ym2612"
    },
    {
      "channel": 0,
      "note": 40,
      "start": 8.1336,
      "duration": 0.0079,
      "velocity": 111,
      "chip": "ym2612"
    },
    {
      "channel": 3,
      "note": 57,
      "start": 8.1338,
      "duration": 0.0213,
      "velocity": 73,
      "chip": "ym2612"
    },
    {
      "channel": 4,
      "note": 73,
      "start": 8.1341,
      "duration": 0.0211,
      "velocity": 73,
      "chip": "ym2612"
    },
    {
      "channel": 0,
      "note": 40,
      "start": 8.1494,
      "duration": 0.0082,
      "velocity": 111,
      "chip": "ym2612"
    },
    {
      "channel": 2,
      "note": 81,
      "start": 8.1497,
      "duration": 0.0151,
      "velocity": 98,
      "chip": "ym2612"
    },
    {
      "channel": 0,
      "note": 40,
      "start": 8.1662,
      "duration": 0.0307,
      "velocity": 111,
      "chip": "ym2612"
    },
    {
      "channel": 1,
      "note": 33,
      "start": 8.1674,
      "duration": 0.0047,
      "velocity": 89,
      "chip": "ym2612"
    },
    {
      "channel": 3,
      "note": 59,
      "start": 8.1676,
      "duration": 0.2555,
      "velocity": 73,
      "chip": "ym2612"
    },
    {
      "channel": 4,
      "note": 74,
      "start": 8.1679,
      "duration": 0.2554,
      "velocity": 73,
      "chip": "ym2612"
    },
    {
      "channel": 1,
      "note": 35,
      "start": 8.1776,
      "duration": 0.0029,
      "velocity": 89,
      "chip": "ym2612"
    },
    {
      "channel": 1,
      "note": 38,
      "start": 8.1844,
      "duration": 0.003,
      "velocity": 89,
      "chip": "ym2612"
    },
    {
      "channel": 1,
      "note": 40,
      "start": 8.1899,
      "duration": 0.0029,
      "velocity": 89,
      "chip": "ym2612"
    },
    {
      "channel": 1,
      "note": 45,
      "start": 8.1972,
      "duration": 0.0117,
      "velocity": 89,
      "chip": "ym2612"
    },
    {
      "channel": 1,
      "note": 47,
      "start": 8.2425,
      "duration": 0.0332,
      "velocity": 89,
      "chip": "ym2612"
    },
    {
      "channel": 2,
      "note": 33,
      "start": 8.2439,
      "duration": 0.0319,
      "velocity": 89,
      "chip": "ym2612"
    },
    {
      "channel": 1,
      "note": 50,
      "start": 8.3095,
      "duration": 0.0329,
      "velocity": 89,
      "chip": "ym2612"
    },
    {
      "channel": 2,
      "note": 35,
      "start": 8.3098,
      "duration": 0.0326,
      "velocity": 89,
      "chip": "ym2612"
    },
    {
      "channel": 0,
      "note": 40,
      "start": 8.3595,
      "duration": 0.0085,
      "velocity": 111,
      "chip": "ym2612"
    },
    {
      "channel": 1,
      "note": 52,
      "start": 8.3622,
      "duration": 0.0028,
      "velocity": 89,
      "chip": "ym2612"
    },
    {
      "channel": 2,
      "note": 38,
      "start": 8.3625,
      "duration": 0.0026,
      "velocity": 89,
      "chip": "ym2612"
    },
    {
      "channel": 1,
      "note": 45,
      "start": 8.3683,
      "duration": 0.0034,
      "velocity": 89,
      "chip": "ym2612"
    },
    {
      "channel": 2,
      "note": 40,
      "start": 8.3685,
      "duration": 0.0032,
      "velocity": 89,
      "chip": "ym2612"
    },
    {
      "channel": 0,
      "note": 40,
      "start": 8.3762,
      "duration": 0.0075,
      "velocity": 111,
      "chip": "ym2612"
    },
    {
      "channel": 1,
      "note": 47,
      "start": 8.3764,
      "duration": 0.003,
      "velocity": 89,
      "chip": "ym2612"
    },
    {
      "channel": 2,
      "note": 45,
      "start": 8.3766,
      "duration": 0.0029,
      "velocity": 89,
      "chip": "ym2612"
    },
    {
      "channel": 1,
      "note": 50,
      "start": 8.382,
      "duration": 0.0034,
      "velocity": 89,
      "chip": "ym2612"
    },
    {
      "channel": 2,
      "note": 47,
      "start": 8.3823,
      "duration": 0.0032,
      "velocity": 89,
      "chip": "ym2612"
    },
    {
      "channel": 0,
      "note": 40,
      "start": 8.3873,
      "duration": 0.0085,
      "velocity": 111,
      "chip": "ym2612"
    },
    {
      "channel": 1,
      "note": 52,
      "start": 8.389,
      "duration": 0.0032,
      "velocity": 89,
      "chip": "ym2612"
    },
    {
      "channel": 2,
      "note": 50,
      "start": 8.3892,
      "duration": 0.003,
      "velocity": 89,
      "chip": "ym2612"
    },
    {
      "channel": 1,
      "note": 57,
      "start": 8.3961,
      "duration": 0.0033,
      "velocity": 89,
      "chip": "ym2612"
    },
    {
      "channel": 2,
      "note": 52,
      "start": 8.3963,
      "duration": 0.0031,
      "velocity": 89,
      "chip": "ym2612"
    },
    {
      "channel": 0,
      "note": 40,
      "start": 8.4027,
      "duration": 0.009,
      "velocity": 111,
      "chip": "ym2612"
    },
    {
      "channel": 1,
      "note": 59,
      "start": 8.4029,
      "duration": 0.0029,
      "velocity": 89,
      "chip": "ym2612"
    },
    {
      "channel": 2,
      "note": 45,
      "start": 8.4031,
      "duration": 0.0028,
      "velocity": 89,
      "chip": "ym2612"
    },
    {
      "channel": 1,
      "note": 62,
      "start": 8.4102,
      "duration": 0.0029,
      "velocity": 89,
      "chip": "ym2612"
    },
    {
      "channel": 2,
      "note": 47,
      "start": 8.4105,
      "duration": 0.0026,
      "velocity": 89,
      "chip": "ym2612"
    },
    {
      "channel": 0,
      "note": 40,
      "start": 8.415,
      "duration": 0.0076,
      "velocity": 111,
      "chip": "ym2612"
    },
    {
      "channel": 1,
      "note": 64,
      "start": 8.4169,
      "duration": 0.0031,
      "velocity": 89,
      "chip": "ym2612"
    },
    {
      "channel": 2,
      "note": 50,
      "start": 8.4172,
      "duration": 0.0029,
      "velocity": 89,
      "chip": "ym2612"
    },
    {
      "channel": 1,
      "note": 57,
      "start": 8.4228,
      "duration": 0.0033,
      "velocity": 89,
      "chip": "ym2612"
    },
    {
      "channel": 2,
      "note": 52,
      "start": 8.423,
      "duration": 0.0032,
      "velocity": 89,
      "chip": "ym2612"
    },
    {
      "channel": 3,
      "note": 58,
      "start": 8.4232,
      "duration": 0.4624,
      "velocity": 73,
      "chip": "ym2612"
    },
    {
      "channel": 4,
      "note": 74,
      "start": 8.4233,
      "duration": 0.4625,
      "velocity": 73,
      "chip": "ym2612"
    },
    {
      "channel": 0,
      "note": 40,
      "start": 8.4695,
      "duration": 0.0996,
      "velocity": 111,
      "chip": "ym2612"
    },
    {
      "channel": 1,
      "note": 59,
      "start": 8.4698,
      "duration": 0.0327,
      "velocity": 89,
      "chip": "ym2612"
    },
    {
      "channel": 2,
      "note": 57,
      "start": 8.4701,
      "duration": 0.0324,
      "velocity": 89,
      "chip": "ym2612"
    },
    {
      "channel": 1,
      "note": 62,
      "start": 8.536,
      "duration": 0.0333,
      "velocity": 89,
      "chip": "ym2612"
    },
    {
      "channel": 2,
      "note": 59,
      "start": 8.5363,
      "duration": 0.033,
      "velocity": 89,
      "chip": "ym2612"
    },
    {
      "channel": 0,
      "note": 40,
      "start": 8.5864,
      "duration": 0.0996,
      "velocity": 111,
      "chip": "ym2612"
    },
    {
      "channel": 1,
      "note": 64,
      "start": 8.6194,
      "duration": 0.0335,
      "velocity": 89,
      "chip": "ym2612"
    },
    {
      "channel": 2,
      "note": 62,
      "start": 8.6198,
      "duration": 0.0333,
      "velocity": 89,
      "chip": "ym2612"
    },
    {
      "channel": 1,
      "note": 69,
      "start": 8.6864,
      "duration": 0.003,
      "velocity": 89,
      "chip": "ym2612"
    },
    {
      "channel": 2,
      "note": 64,
      "start": 8.6867,
      "duration": 0.0029,
      "velocity": 89,
      "chip": "ym2612"
    },
    {
      "channel": 0,
      "note": 40,
      "start": 8.6958,
      "duration": 0.0079,
      "velocity": 111,
      "chip": "ym2612"
    },
    {
      "channel": 1,
      "note": 71,
      "start": 8.6961,
      "duration": 0.0028,
      "velocity": 89,
      "chip": "ym2612"
    },
    {
      "channel": 2,
      "note": 57,
      "start": 8.6963,
      "duration": 0.0026,
      "velocity": 89,
      "chip": "ym2612"
    },
    {
      "channel": 1,
      "note": 74,
      "start": 8.7022,
      "duration": 0.0029,
      "velocity": 89,
      "chip": "ym2612"
    },
    {
      "channel": 2,
      "note": 59,
      "start": 8.7024,
      "duration": 0.0028,
      "velocity": 89,
      "chip": "ym2612"
    },
    {
      "channel": 0,
      "note": 40,
      "start": 8.7069,
      "duration": 0.0086,
      "velocity": 111,
      "chip": "ym2612"
    },
    {
      "channel": 1,
      "note": 76,
      "start": 8.7086,
      "duration": 0.0028,
      "velocity": 89,
      "chip": "ym2612"
    },
    {
      "channel": 2,
      "note": 62,
      "start": 8.7088,
      "duration": 0.0026,
      "velocity": 89,
      "chip": "ym2612"
    },
    {
      "channel": 1,
      "note": 81,
      "start": 8.7161,
      "duration": 0.0029,
      "velocity": 89,
      "chip": "ym2612"
    },
    {
      "channel": 2,
      "note": 64,
      "start": 8.7164,
      "duration": 0.0027,
      "velocity": 89,
      "chip": "ym2612"
    },
    {
      "channel": 0,
      "note": 40,
      "start": 8.7224,
      "duration": 0.0094,
      "velocity": 111,
      "chip": "ym2612"
    },
    {
      "channel": 1,
      "note": 76,
      "start": 8.7226,
      "duration": 0.0026,
      "velocity": 89,
      "chip": "ym2612"
    },
    {
      "channel": 2,
      "note": 69,
      "start": 8.7228,
      "duration": 0.0025,
      "velocity": 89,
      "chip": "ym2612"
    },
    {
      "channel": 1,
      "note": 81,
      "start": 8.7299,
      "duration": 0.0032,
      "velocity": 89,
      "chip": "ym2612"
    },
    {
      "channel": 2,
      "note": 71,
      "start": 8.7302,
      "duration": 0.003,
      "velocity": 89,
      "chip": "ym2612"
    },
    {
      "channel": 0,
      "note": 40,
      "start": 8.7348,
      "duration": 0.0077,
      "velocity": 111,
      "chip": "ym2612"
    },
    {
      "channel": 1,
      "note": 76,
      "start": 8.7366,
      "duration": 0.0032,
      "velocity": 89,
      "chip": "ym2612"
    },
    {
      "channel": 2,
      "note": 74,
      "start": 8.7369,
      "duration": 0.0029,
      "velocity": 89,
      "chip": "ym2612"
    },
    {
      "channel": 1,
      "note": 81,
      "start": 8.7429,
      "duration": 0.0032,
      "velocity": 89,
      "chip": "ym2612"
    },
    {
      "channel": 2,
      "note": 76,
      "start": 8.7431,
      "duration": 0.003,
      "velocity": 89,
      "chip": "ym2612"
    },
    {
      "channel": 0,
      "note": 40,
      "start": 8.7511,
      "duration": 0.0166,
      "velocity": 111,
      "chip": "ym2612"
    },
    {
      "channel": 1,
      "note": 76,
      "start": 8.7513,
      "duration": 0.0032,
      "velocity": 89,
      "chip": "ym2612"
    },
    {
      "channel": 2,
      "note": 81,
      "start": 8.7517,
      "duration": 0.0028,
      "velocity": 89,
      "chip": "ym2612"
    },
    {
      "channel": 1,
      "note": 81,
      "start": 8.7573,
      "duration": 0.0105,
      "velocity": 89,
      "chip": "ym2612"
    },
    {
      "channel": 2,
      "note": 76,
      "start": 8.7576,
      "duration": 0.0104,
      "velocity": 89,
      "chip": "ym2612"
    },
    {
      "channel": 0,
      "note": 38,
      "start": 8.7851,
      "duration": 0.0996,
      "velocity": 111,
      "chip": "ym2612"
    },
    {
      "channel": 1,
      "note": 76,
      "start": 8.8181,
      "duration": 0.0331,
      "velocity": 89,
      "chip": "ym2612"
    },
    {
      "channel": 2,
      "note": 81,
      "start": 8.8187,
      "duration": 0.0326,
      "velocity": 89,
      "chip": "ym2612"
    },
    {
      "channel": 1,
      "note": 81,
      "start": 8.8852,
      "duration": 0.0032,
      "velocity": 89,
      "chip": "ym2612"
    },
    {
      "channel": 2,
      "note": 76,
      "start": 8.8855,
      "duration": 0.003,
      "velocity": 89,
      "chip": "ym2612"
    },
    {
      "channel": 3,
      "note": 59,
      "start": 8.8856,
      "duration": 0.2564,
      "velocity": 73,
      "chip": "ym2612"
    },
    {
      "channel": 4,
      "note": 73,
      "start": 8.8858,
      "duration": 0.2564,
      "velocity": 73,
      "chip": "ym2612"
    },
    {
      "channel": 0,
      "note": 38,
      "start": 8.8955,
      "duration": 0.0077,
      "velocity": 111,
      "chip": "ym2612"
    },
    {
      "channel": 1,
      "note": 76,
      "start": 8.8957,
      "duration": 0.0031,
      "velocity": 89,
      "chip": "ym2612"
    },
    {
      "channel": 2,
      "note": 81,
      "start": 8.896,
      "duration": 0.0028,
      "velocity": 89,
      "chip": "ym2612"
    },
    {
      "channel": 1,
      "note": 81,
      "start": 8.9016,
      "duration": 0.0029,
      "velocity": 89,
      "chip": "ym2612"
    },
    {
      "channel": 2,
      "note": 76,
      "start": 8.9018,
      "duration": 0.0027,
      "velocity": 89,
      "chip": "ym2612"
    },
    {
      "channel": 0,
      "note": 40,
      "start": 8.9063,
      "duration": 0.0082,
      "velocity": 111,
      "chip": "ym2612"
    },
    {
      "channel": 1,
      "note": 76,
      "start": 8.9076,
      "duration": 0.0029,
      "velocity": 89,
      "chip": "ym2612"
    },
    {
      "channel": 2,
      "note": 81,
      "start": 8.908,
      "duration": 0.0026,
      "velocity": 89,
      "chip": "ym2612"
    },
    {
      "channel": 1,
      "note": 81,
      "start": 8.9148,
      "duration": 0.003,
      "velocity": 89,
      "chip": "ym2612"
    },
    {
      "channel": 2,
      "note": 76,
      "start": 8.915,
      "duration": 0.0029,
      "velocity": 89,
      "chip": "ym2612"
    },
    {
      "channel": 0,
      "note": 40,
      "start": 8.944,
      "duration": 0.0997,
      "velocity": 111,
      "chip": "ym2612"
    },
    {
      "channel": 1,
      "note": 76,
      "start": 8.9443,
      "duration": 0.0326,
      "velocity": 89,
      "chip": "ym2612"
    },
    {
      "channel": 2,
      "note": 81,
      "start": 8.9448,
      "duration": 0.0322,
      "velocity": 89,
      "chip": "ym2612"
    },
    {
      "channel": 1,
      "note": 81,
      "start": 9.0275,
      "duration": 0.033,
      "velocity": 89,
      "chip": "ym2612"
    },
    {
      "channel": 2,
      "note": 76,
      "start": 9.0278,
      "duration": 0.0327,
      "velocity": 89,
      "chip": "ym2612"
    },
    {
      "channel": 0,
      "note": 40,
      "start": 9.0777,
      "duration": 0.0078,
      "velocity": 111,
      "chip": "ym2612"
    },
    {
      "channel": 1,
      "note": 76,
      "start": 9.0796,
      "duration": 0.0031,
      "velocity": 89,
      "chip": "ym2612"
    },
    {
      "channel": 2,
      "note": 81,
      "start": 9.0801,
      "duration": 0.0026,
      "velocity": 89,
      "chip": "ym2612"
    },
    {
      "channel": 0,
      "note": 40,
      "start": 9.0858,
      "duration": 0.0112,
      "velocity": 111,
      "chip": "ym2612"
    },
    {
      "channel": 1,
      "note": 81,
      "start": 9.0863,
      "duration": 0.0048,
      "velocity": 89,
      "chip": "ym2612"
    },
    {
      "channel": 2,
      "note": 76,
      "start": 9.0866,
      "duration": 0.0045,
      "velocity": 89,
      "chip": "ym2612"
    },
    {
      "channel": 1,
      "note": 76,
      "start": 9.0951,
      "duration": 0.0034,
      "velocity": 89,
      "chip": "ym2612"
    },
    {
      "channel": 2,
      "note": 81,
      "start": 9.0955,
      "duration": 0.0031,
      "velocity": 89,
      "chip": "ym2612"
    },
    {
      "channel": 1,
      "note": 81,
      "start": 9.1015,
      "duration": 0.0038,
      "velocity": 89,
      "chip": "ym2612"
    },
    {
      "channel": 2,
      "note": 76,
      "start": 9.1017,
      "duration": 0.0037,
      "velocity": 89,
      "chip": "ym2612"
    },
    {
      "channel": 0,
      "note": 40,
      "start": 9.1052,
      "duration": 0.008,
      "velocity": 111,
      "chip": "ym2612"
    },
    {
      "channel": 1,
      "note": 76,
      "start": 9.1092,
      "duration": 0.0026,
      "velocity": 89,
      "chip": "ym2612"
    },
    {
      "channel": 2,
      "note": 81,
      "start": 9.1095,
      "duration": 0.0023,
      "velocity": 89,
      "chip": "ym2612"
    },
    {
      "channel": 0,
      "note": 40,
      "start": 9.1148,
      "duration": 0.009,
      "velocity": 111,
      "chip": "ym2612"
    },
    {
      "channel": 1,
      "note": 81,
      "start": 9.1152,
      "duration": 0.0031,
      "velocity": 89,
      "chip": "ym2612"
    },
    {
      "channel": 2,
      "note": 76,
      "start": 9.1154,
      "duration": 0.0029,
      "velocity": 89,
      "chip": "ym2612"
    },
    {
      "channel": 1,
      "note": 76,
      "start": 9.1209,
      "duration": 0.0029,
      "velocity": 89,
      "chip": "ym2612"
    },
    {
      "channel": 2,
      "note": 81,
      "start": 9.1213,
      "duration": 0.0025,
      "velocity": 89,
      "chip": "ym2612"
    },
    {
      "channel": 1,
      "note": 81,
      "start": 9.1279,
      "duration": 0.0031,
      "velocity": 89,
      "chip": "ym2612"
    },
    {
      "channel": 2,
      "note": 76,
      "start": 9.1282,
      "duration": 0.0029,
      "velocity": 89,
      "chip": "ym2612"
    },
    {
      "channel": 0,
      "note": 40,
      "start": 9.1297,
      "duration": 0.0031,
      "velocity": 111,
      "chip": "ym2612"
    },
    {
      "channel": 0,
      "note": 40,
      "start": 9.1329,
      "duration": 0.0083,
      "velocity": 111,
      "chip": "ym2612"
    },
    {
      "channel": 1,
      "note": 76,
      "start": 9.1346,
      "duration": 0.0027,
      "velocity": 89,
      "chip": "ym2612"
    },
    {
      "channel": 2,
      "note": 81,
      "start": 9.1349,
      "duration": 0.0024,
      "velocity": 89,
      "chip": "ym2612"
    },
    {
      "channel": 1,
      "note": 81,
      "start": 9.1416,
      "duration": 0.0031,
      "velocity": 89,
      "chip": "ym2612"
    },
    {
      "channel": 2,
      "note": 76,
      "start": 9.1418,
      "duration": 0.0029,
      "velocity": 89,
      "chip": "ym2612"
    },
    {
      "channel": 3,
      "note": 59,
      "start": 9.142,
      "duration": 0.2568,
      "velocity": 73,
      "chip": "ym2612"
    },
    {
      "channel": 4,
      "note": 73,
      "start": 9.1422,
      "duration": 0.2566,
      "velocity": 73,
      "chip": "ym2612"
    },
    {
      "channel": 0,
      "note": 40,
      "start": 9.1712,
      "duration": 0.0995,
      "velocity": 111,
      "chip": "ym2612"
    },
    {
      "channel": 1,
      "note": 76,
      "start": 9.1715,
      "duration": 0.0324,
      "velocity": 89,
      "chip": "ym2612"
    },
    {
      "channel": 2,
      "note": 81,
      "start": 9.172,
      "duration": 0.032,
      "velocity": 89,
      "chip": "ym2612"
    },
    {
      "channel": 1,
      "note": 81,
      "start": 9.2544,
      "duration": 0.033,
      "velocity": 89,
      "chip": "ym2612"
    },
    {
      "channel": 2,
      "note": 76,
      "start": 9.2548,
      "duration": 0.0327,
      "velocity": 89,
      "chip": "ym2612"
    },
    {
      "channel": 0,
      "note": 40,
      "start": 9.3046,
      "duration": 0.0829,
      "velocity": 111,
      "chip": "ym2612"
    },
    {
      "channel": 1,
      "note": 76,
      "start": 9.321,
      "duration": 0.0332,
      "velocity": 89,
      "chip": "ym2612"
    },
    {
      "channel": 2,
      "note": 81,
      "start": 9.3215,
      "duration": 0.0327,
      "velocity": 89,
      "chip": "ym2612"
    },
    {
      "channel": 1,
      "note": 81,
      "start": 9.3881,
      "duration": 0.0029,
      "velocity": 89,
      "chip": "ym2612"
    },
    {
      "channel": 2,
      "note": 76,
      "start": 9.3883,
      "duration": 0.0027,
      "velocity": 89,
      "chip": "ym2612"
    },
    {
      "channel": 0,
      "note": 40,
      "start": 9.397,
      "duration": 0.008,
      "velocity": 111,
      "chip": "ym2612"
    },
    {
      "channel": 1,
      "note": 76,
      "start": 9.3972,
      "duration": 0.0032,
      "velocity": 89,
      "chip": "ym2612"
    },
    {
      "channel": 2,
      "note": 81,
      "start": 9.3976,
      "duration": 0.0029,
      "velocity": 89,
      "chip": "ym2612"
    },
    {
      "channel": 1,
      "note": 81,
      "start": 9.4026,
      "duration": 0.0025,
      "velocity": 89,
      "chip": "ym2612"
    },
    {
      "channel": 2,
      "note": 76,
      "start": 9.4028,
      "duration": 0.0023,
      "velocity": 89,
      "chip": "ym2612"
    },
    {
      "channel": 0,
      "note": 40,
      "start": 9.4066,
      "duration": 0.0074,
      "velocity": 111,
      "chip": "ym2612"
    },
    {
      "channel": 1,
      "note": 76,
      "start": 9.4089,
      "duration": 0.0027,
      "velocity": 89,
      "chip": "ym2612"
    },
    {
      "channel": 2,
      "note": 81,
      "start": 9.4093,
      "duration": 0.0024,
      "velocity": 89,
      "chip": "ym2612"
    },
    {
      "channel": 1,
      "note": 81,
      "start": 9.4146,
      "duration": 0.0031,
      "velocity": 89,
      "chip": "ym2612"
    },
    {
      "channel": 2,
      "note": 76,
      "start": 9.4149,
      "duration": 0.0029,
      "velocity": 89,
      "chip": "ym2612"
    },
    {
      "channel": 3,
      "note": 59,
      "start": 9.4151,
      "duration": 0.0342,
      "velocity": 73,
      "chip": "ym2612"
    },
    {
      "channel": 4,
      "note": 74,
      "start": 9.4154,
      "duration": 0.0341,
      "velocity": 73,
      "chip": "ym2612"
    },
    {
      "channel": 0,
      "note": 40,
      "start": 9.4207,
      "duration": 0.0083,
      "velocity": 111,
      "chip": "ym2612"
    },
    {
      "channel": 1,
      "note": 76,
      "start": 9.4209,
      "duration": 0.0026,
      "velocity": 89,
      "chip": "ym2612"
    },
    {
      "channel": 2,
      "note": 81,
      "start": 9.4212,
      "duration": 0.0023,
      "velocity": 89,
      "chip": "ym2612"
    },
    {
      "channel": 1,
      "note": 81,
      "start": 9.4277,
      "duration": 0.0026,
      "velocity": 89,
      "chip": "ym2612"
    },
    {
      "channel": 2,
      "note": 76,
      "start": 9.428,
      "duration": 0.0024,
      "velocity": 89,
      "chip": "ym2612"
    },
    {
      "channel": 0,
      "note": 40,
      "start": 9.432,
      "duration": 0.0085,
      "velocity": 111,
      "chip": "ym2612"
    },
    {
      "channel": 1,
      "note": 76,
      "start": 9.4336,
      "duration": 0.0028,
      "velocity": 89,
      "chip": "ym2612"
    },
    {
      "channel": 2,
      "note": 81,
      "start": 9.434,
      "duration": 0.0025,
      "velocity": 89,
      "chip": "ym2612"
    },
    {
      "channel": 1,
      "note": 81,
      "start": 9.4409,
      "duration": 0.0035,
      "velocity": 89,
      "chip": "ym2612"
    },
    {
      "channel": 2,
      "note": 76,
      "start": 9.4411,
      "duration": 0.0033,
      "velocity": 89,
      "chip": "ym2612"
    },
    {
      "channel": 0,
      "note": 40,
      "start": 9.4473,
      "duration": 0.0082,
      "velocity": 111,
      "chip": "ym2612"
    },
    {
      "channel": 1,
      "note": 76,
      "start": 9.4476,
      "duration": 0.0031,
      "velocity": 89,
      "chip": "ym2612"
    },
    {
      "channel": 2,
      "note": 81,
      "start": 9.4479,
      "duration": 0.0028,
      "velocity": 89,
      "chip": "ym2612"
    },
    {
      "channel": 1,
      "note": 81,
      "start": 9.4543,
      "duration": 0.0109,
      "velocity": 89,
      "chip": "ym2612"
    },
    {
      "channel": 2,
      "note": 76,
      "start": 9.4546,
      "duration": 0.0107,
      "velocity": 89,
      "chip": "ym2612"
    },
    {
      "channel": 1,
      "note": 76,
      "start": 9.4982,
      "duration": 0.0332,
      "velocity": 89,
      "chip": "ym2612"
    },
    {
      "channel": 2,
      "note": 81,
      "start": 9.4987,
      "duration": 0.0327,
      "velocity": 89,
      "chip": "ym2612"
    },
    {
      "channel": 0,
      "note": 44,
      "start": 9.5653,
      "duration": 0.0276,
      "velocity": 111,
      "chip": "ym2612"
    },
    {
      "channel": 1,
      "note": 81,
      "start": 9.5657,
      "duration": 0.0038,
      "velocity": 89,
      "chip": "ym2612"
    },
    {
      "channel": 2,
      "note": 76,
      "start": 9.5659,
      "duration": 0.0037,
      "velocity": 89,
      "chip": "ym2612"
    },
    {
      "channel": 3,
      "note": 57,
      "start": 9.5661,
      "duration": 0.2537,
      "velocity": 73,
      "chip": "ym2612"
    },
    {
      "channel": 4,
      "note": 73,
      "start": 9.5673,
      "duration": 0.2527,
      "velocity": 73,
      "chip": "ym2612"
    },
    {
      "channel": 1,
      "note": 76,
      "start": 9.5737,
      "duration": 0.003,
      "velocity": 89,
      "chip": "ym2612"
    },
    {
      "channel": 2,
      "note": 81,
      "start": 9.5741,
      "duration": 0.0027,
      "velocity": 89,
      "chip": "ym2612"
    },
    {
      "channel": 1,
      "note": 74,
      "start": 9.5798,
      "duration": 0.0027,
      "velocity": 89,
      "chip": "ym2612"
    },
    {
      "channel": 2,
      "note": 76,
      "start": 9.5801,
      "duration": 0.0024,
      "velocity": 89,
      "chip": "ym2612"
    },
    {
      "channel": 1,
      "note": 73,
      "start": 9.5871,
      "duration": 0.0031,
      "velocity": 89,
      "chip": "ym2612"
    },
    {
      "channel": 2,
      "note": 81,
      "start": 9.5874,
      "duration": 0.0029,
      "velocity": 89,
      "chip": "ym2612"
    },
    {
      "channel": 1,
      "note": 76,
      "start": 9.5932,
      "duration": 0.0029,
      "velocity": 89,
      "chip": "ym2612"
    },
    {
      "channel": 2,
      "note": 76,
      "start": 9.5935,
      "duration": 0.0027,
      "velocity": 89,
      "chip": "ym2612"
    },
    {
      "channel": 1,
      "note": 74,
      "start": 9.6227,
      "duration": 0.0334,
      "velocity": 89,
      "chip": "ym2612"
    },
    {
      "channel": 2,
      "note": 81,
      "start": 9.6234,
      "duration": 0.0327,
      "velocity": 89,
      "chip": "ym2612"
    },
    {
      "channel": 1,
      "note": 73,
      "start": 9.7062,
      "duration": 0.0332,
      "velocity": 89,
      "chip": "ym2612"
    },
    {
      "channel": 2,
      "note": 76,
      "start": 9.7065,
      "duration": 0.0329,
      "velocity": 89,
      "chip": "ym2612"
    },
    {
      "channel": 0,
      "note": 44,
      "start": 9.7564,
      "duration": 0.0096,
      "velocity": 111,
      "chip": "ym2612"
    },
    {
      "channel": 1,
      "note": 69,
      "start": 9.7585,
      "duration": 0.0031,
      "velocity": 89,
      "chip": "ym2612"
    },
    {
      "channel": 2,
      "note": 74,
      "start": 9.7589,
      "duration": 0.0028,
      "velocity": 89,
      "chip": "ym2612"
    },
    {
      "channel": 1,
      "note": 64,
      "start": 9.7665,
      "duration": 0.0029,
      "velocity": 89,
      "chip": "ym2612"
    },
    {
      "channel": 2,
      "note": 73,
      "start": 9.7667,
      "duration": 0.0027,
      "velocity": 89,
      "chip": "ym2612"
    },
    {
      "channel": 0,
      "note": 44,
      "start": 9.7725,
      "duration": 0.0084,
      "velocity": 111,
      "chip": "ym2612"
    },
    {
      "channel": 1,
      "note": 62,
      "start": 9.7727,
      "duration": 0.0026,
      "velocity": 89,
      "chip": "ym2612"
    },
    {
      "channel": 2,
      "note": 76,
      "start": 9.773,
      "duration": 0.0024,
      "velocity": 89,
      "chip": "ym2612"
    },
    {
      "channel": 1,
      "note": 61,
      "start": 9.7783,
      "duration": 0.0026,
      "velocity": 89,
      "chip": "ym2612"
    },
    {
      "channel": 2,
      "note": 74,
      "start": 9.7785,
      "duration": 0.0025,
      "velocity": 89,
      "chip": "ym2612"
    },
    {
      "channel": 0,
      "note": 44,
      "start": 9.7828,
      "duration": 0.0089,
      "velocity": 111,
      "chip": "ym2612"
    },
    {
      "channel": 1,
      "note": 57,
      "start": 9.7858,
      "duration": 0.0031,
      "velocity": 89,
      "chip": "ym2612"
    },
    {
      "channel": 2,
      "note": 73,
      "start": 9.7861,
      "duration": 0.0029,
      "velocity": 89,
      "chip": "ym2612"
    },
    {
      "channel": 1,
      "note": 52,
      "start": 9.7921,
      "duration": 0.0034,
      "velocity": 89,
      "chip": "ym2612"
    },
    {
      "channel": 2,
      "note": 69,
      "start": 9.7924,
      "duration": 0.0033,
      "velocity": 89,
      "chip": "ym2612"
    },
    {
      "channel": 0,
      "note": 44,
      "start": 9.8002,
      "duration": 0.0084,
      "velocity": 111,
      "chip": "ym2612"
    },
    {
      "channel": 1,
      "note": 50,
      "start": 9.8005,
      "duration": 0.0028,
      "velocity": 89,
      "chip": "ym2612"
    },
    {
      "channel": 2,
      "note": 64,
      "start": 9.8009,
      "duration": 0.0025,
      "velocity": 89,
      "chip": "ym2612"
    },
    {
      "channel": 1,
      "note": 49,
      "start": 9.8062,
      "duration": 0.0025,
      "velocity": 89,
      "chip": "ym2612"
    },
    {
      "channel": 2,
      "note": 62,
      "start": 9.8065,
      "duration": 0.0023,
      "velocity": 89,
      "chip": "ym2612"
    },
    {
      "channel": 0,
      "note": 44,
      "start": 9.8105,
      "duration": 0.0086,
      "velocity": 111,
      "chip": "ym2612"
    },
    {
      "channel": 1,
      "note": 45,
      "start": 9.8134,
      "duration": 0.0027,
      "velocity": 89,
      "chip": "ym2612"
    },
    {
      "channel": 2,
      "note": 61,
      "start": 9.8137,
      "duration": 0.0025,
      "velocity": 89,
      "chip": "ym2612"
    },
    {
      "channel": 1,
      "note": 40,
      "start": 9.8193,
      "duration": 0.0033,
      "velocity": 89,
      "chip": "ym2612"
    },
    {
      "channel": 2,
      "note": 57,
      "start": 9.8196,
      "duration": 0.0031,
      "velocity": 89,
      "chip": "ym2612"
    },
    {
      "channel": 3,
      "note": 56,
      "start": 9.8198,
      "duration": 0.3105,
      "velocity": 73,
      "chip": "ym2612"
    },
    {
      "channel": 4,
      "note": 73,
      "start": 9.82,
      "duration": 0.3103,
      "velocity": 73,
      "chip": "ym2612"
    },
    {
      "channel": 0,
      "note": 44,
      "start": 9.8497,
      "duration": 0.0997,
      "velocity": 111,
      "chip": "ym2612"
    },
    {
      "channel": 1,
      "note": 45,
      "start": 9.85,
      "duration": 0.0326,
      "velocity": 89,
      "chip": "ym2612"
    },
    {
      "channel": 2,
      "note": 52,
      "start": 9.8505,
      "duration": 0.0322,
      "velocity": 89,
      "chip": "ym2612"
    },
    {
      "channel": 1,
      "note": 50,
      "start": 9.9329,
      "duration": 0.0333,
      "velocity": 89,
      "chip": "ym2612"
    },
    {
      "channel": 2,
      "note": 50,
      "start": 9.9333,
      "duration": 0.033,
      "velocity": 89,
      "chip": "ym2612"
    },
    {
      "channel": 0,
      "note": 44,
      "start": 9.9834,
      "duration": 0.0996,
      "velocity": 111,
      "chip": "ym2612"
    },
    {
      "channel": 1,
      "note": 52,
      "start": 10.0,
      "duration": 0.0329,
      "velocity": 89,
      "chip": "ym2612"
    },
    {
      "channel": 2,
      "note": 49,
      "start": 10.0003,
      "duration": 0.0326,
      "velocity": 89,
      "chip": "ym2612"
    },
    {
      "channel": 1,
      "note": 57,
      "start": 10.0834,
      "duration": 0.0033,
      "velocity": 89,
      "chip": "ym2612"
    },
    {
      "channel": 2,
      "note": 45,
      "start": 10.0836,
      "duration": 0.0032,
      "velocity": 89,
      "chip": "ym2612"
    },
    {
      "channel": 0,
      "note": 44,
      "start": 10.0898,
      "duration": 0.0094,
      "velocity": 111,
      "chip": "ym2612"
    },
    {
      "channel": 1,
      "note": 52,
      "start": 10.09,
      "duration": 0.003,
      "velocity": 89,
      "chip": "ym2612"
    },
    {
      "channel": 2,
      "note": 40,
      "start": 10.0902,
      "duration": 0.0029,
      "velocity": 89,
      "chip": "ym2612"
    },
    {
      "channel": 1,
      "note": 57,
      "start": 10.096,
      "duration": 0.0032,
      "velocity": 89,
      "chip": "ym2612"
    },
    {
      "channel": 2,
      "note": 45,
      "start": 10.0963,
      "duration": 0.003,
      "velocity": 89,
      "chip": "ym2612"
    },
    {
      "channel": 0,
      "note": 44,
      "start": 10.1008,
      "duration": 0.0093,
      "velocity": 111,
      "chip": "ym2612"
    },
    {
      "channel": 1,
      "note": 52,
      "start": 10.1041,
      "duration": 0.0033,
      "velocity": 89,
      "chip": "ym2612"
    },
    {
      "channel": 2,
      "note": 50,
      "start": 10.1044,
      "duration": 0.0031,
      "velocity": 89,
      "chip": "ym2612"
    },
    {
      "channel": 1,
      "note": 57,
      "start": 10.1107,
      "duration": 0.0029,
      "velocity": 89,
      "chip": "ym2612"
    },
    {
      "channel": 2,
      "note": 52,
      "start": 10.1109,
      "duration": 0.0028,
      "velocity": 89,
      "chip": "ym2612"
    },
    {
      "channel": 0,
      "note": 44,
      "start": 10.1182,
      "duration": 0.0099,
      "velocity": 111,
      "chip": "ym2612"
    },
    {
      "channel": 1,
      "note": 52,
      "start": 10.1184,
      "duration": 0.0032,
      "velocity": 89,
      "chip": "ym2612"
    },
    {
      "channel": 2,
      "note": 57,
      "start": 10.1186,
      "duration": 0.003,
      "velocity": 89,
      "chip": "ym2612"
    },
    {
      "channel": 1,
      "note": 57,
      "start": 10.1251,
      "duration": 0.0032,
      "velocity": 89,
      "chip": "ym2612"
    },
    {
      "channel": 2,
      "note": 52,
      "start": 10.1254,
      "duration": 0.003,
      "velocity": 89,
      "chip": "ym2612"
    },
    {
      "channel": 0,
      "note": 44,
      "start": 10.1302,
      "duration": 0.0077,
      "velocity": 111,
      "chip": "ym2612"
    },
    {
      "channel": 1,
      "note": 52,
      "start": 10.1329,
      "duration": 0.0023,
      "velocity": 89,
      "chip": "ym2612"
    },
    {
      "channel": 2,
      "note": 57,
      "start": 10.1331,
      "duration": 0.0021,
      "velocity": 89,
      "chip": "ym2612"
    },
    {
      "channel": 1,
      "note": 57,
      "start": 10.1383,
      "duration": 0.0026,
      "velocity": 89,
      "chip": "ym2612"
    },
    {
      "channel": 2,
      "note": 52,
      "start": 10.1385,
      "duration": 0.0025,
      "velocity": 89,
      "chip": "ym2612"
    },
    {
      "channel": 0,
      "note": 44,
      "start": 10.1438,
      "duration": 0.0077,
      "velocity": 111,
      "chip": "ym2612"
    },
    {
      "channel": 1,
      "note": 52,
      "start": 10.144,
      "duration": 0.0022,
      "velocity": 89,
      "chip": "ym2612"
    },
    {
      "channel": 2,
      "note": 57,
      "start": 10.1442,
      "duration": 0.002,
      "velocity": 89,
      "chip": "ym2612"
    },
    {
      "channel": 1,
      "note": 57,
      "start": 10.1499,
      "duration": 0.0119,
      "velocity": 89,
      "chip": "ym2612"
    },
    {
      "channel": 2,
      "note": 52,
      "start": 10.1502,
      "duration": 0.0117,
      "velocity": 89,
      "chip": "ym2612"
    },
    {
      "channel": 0,
      "note": 44,
      "start": 10.179,
      "duration": 0.0998,
      "velocity": 111,
      "chip": "ym2612"
    },
    {
      "channel": 1,
      "note": 52,
      "start": 10.1953,
      "duration": 0.0331,
      "velocity": 89,
      "chip": "ym2612"
    },
    {
      "channel": 2,
      "note": 57,
      "start": 10.1959,
      "duration": 0.0327,
      "velocity": 89,
      "chip": "ym2612"
    },
    {
      "channel": 0,
      "note": 46,
      "start": 10.279,
      "duration": 0.0122,
      "velocity": 111,
      "chip": "ym2612"
    },
    {
      "channel": 1,
      "note": 83,
      "start": 10.2804,
      "duration": 0.021,
      "velocity": 98,
      "chip": "ym2612"
    },
    {
      "channel": 2,
      "note": 52,
      "start": 10.2806,
      "duration": 0.0032,
      "velocity": 89,
      "chip": "ym2612"
    },
    {
      "channel": 3,
      "note": 59,
      "start": 10.2809,
      "duration": 0.219,
      "velocity": 73,
      "chip": "ym2612"
    },
    {
      "channel": 4,
      "note": 75,
      "start": 10.2811,
      "duration": 0.2188,
      "velocity": 73,
      "chip": "ym2612"
    },
    {
      "channel": 2,
      "note": 57,
      "start": 10.2898,
      "duration": 0.0029,
      "velocity": 89,
      "chip": "ym2612"
    },
    {
      "channel": 2,
      "note": 52,
      "start": 10.2956,
      "duration": 0.0029,
      "velocity": 89,
      "chip": "ym2612"
    },
    {
      "channel": 0,
      "note": 46,
      "start": 10.2984,
      "duration": 0.0087,
      "velocity": 111,
      "chip": "ym2612"
    },
    {
      "channel": 2,
      "note": 57,
      "start": 10.3032,
      "duration": 0.0024,
      "velocity": 89,
      "chip": "ym2612"
    },
    {
      "channel": 0,
      "note": 46,
      "start": 10.3087,
      "duration": 0.0622,
      "velocity": 111,
      "chip": "ym2612"
    },
    {
      "channel": 2,
      "note": 52,
      "start": 10.309,
      "duration": 0.0022,
      "velocity": 89,
      "chip": "ym2612"
    },
    {
      "channel": 2,
      "note": 83,
      "start": 10.3561,
      "duration": 0.1224,
      "velocity": 98,
      "chip": "ym2612"
    },
    {
      "channel": 0,
      "note": 46,
      "start": 10.4548,
      "duration": 0.0166,
      "velocity": 111,
      "chip": "ym2612"
    },
    {
      "channel": 0,
      "note": 46,
      "start": 10.4717,
      "duration": 0.008,
      "velocity": 111,
      "chip": "ym2612"
    },
    {
      "channel": 1,
      "note": 85,
      "start": 10.4802,
      "duration": 0.0196,
      "velocity": 98,
      "chip": "ym2612"
    },
    {
      "channel": 0,
      "note": 46,
      "start": 10.4884,
      "duration": 0.0085,
      "velocity": 111,
      "chip": "ym2612"
    },
    {
      "channel": 0,
      "note": 46,
      "start": 10.4997,
      "duration": 0.0066,
      "velocity": 111,
      "chip": "ym2612"
    },
    {
      "channel": 0,
      "note": 46,
      "start": 10.5142,
      "duration": 0.0065,
      "velocity": 111,
      "chip": "ym2612"
    },
    {
      "channel": 2,
      "note": 85,
      "start": 10.5145,
      "duration": 0.0132,
      "velocity": 98,
      "chip": "ym2612"
    },
    {
      "channel": 0,
      "note": 46,
      "start": 10.5222,
      "duration": 0.0065,
      "velocity": 111,
      "chip": "ym2612"
    },
    {
      "channel": 1,
      "note": 86,
      "start": 10.5292,
      "duration": 0.0183,
      "velocity": 98,
      "chip": "ym2612"
    },
    {
      "channel": 3,
      "note": 59,
      "start": 10.5294,
      "duration": 0.0327,
      "velocity": 73,
      "chip": "ym2612"
    },
    {
      "channel": 4,
      "note": 75,
      "start": 10.5296,
      "duration": 0.0326,
      "velocity": 73,
      "chip": "ym2612"
    },
    {
      "channel": 0,
      "note": 46,
      "start": 10.5373,
      "duration": 0.0078,
      "velocity": 111,
      "chip": "ym2612"
    },
    {
      "channel": 0,
      "note": 46,
      "start": 10.5474,
      "duration": 0.0076,
      "velocity": 111,
      "chip": "ym2612"
    },
    {
      "channel": 0,
      "note": 46,
      "start": 10.5606,
      "duration": 0.0068,
      "velocity": 111,
      "chip": "ym2612"
    },
    {
      "channel": 2,
      "note": 86,
      "start": 10.5608,
      "duration": 0.0137,
      "velocity": 98,
      "chip": "ym2612"
    },
    {
      "channel": 0,
      "note": 46,
      "start": 10.5703,
      "duration": 0.0063,
      "velocity": 111,
      "chip": "ym2612"
    },
    {
      "channel": 1,
      "note": 88,
      "start": 10.5768,
      "duration": 0.017,
      "velocity": 98,
      "chip": "ym2612"
    },
    {
      "channel": 3,
      "note": 59,
      "start": 10.5771,
      "duration": 0.0308,
      "velocity": 73,
      "chip": "ym2612"
    },
    {
      "channel": 4,
      "note": 75,
      "start": 10.5773,
      "duration": 0.0307,
      "velocity": 73,
      "chip": "ym2612"
    },
    {
      "channel": 0,
      "note": 46,
      "start": 10.5828,
      "duration": 0.0078,
      "velocity": 111,
      "chip": "ym2612"
    },
    {
      "channel": 0,
      "note": 46,
      "start": 10.5925,
      "duration": 0.0074,
      "velocity": 111,
      "chip": "ym2612"
    },
    {
      "channel": 0,
      "note": 46,
      "start": 10.6064,
      "duration": 0.0059,
      "velocity": 111,
      "chip": "ym2612"
    },
    {
      "channel": 2,
      "note": 88,
      "start": 10.6066,
      "duration": 0.0136,
      "velocity": 98,
      "chip": "ym2612"
    },
    {
      "channel": 0,
      "note": 40,
      "start": 10.6217,
      "duration": 0.0279,
      "velocity": 111,
      "chip": "ym2612"
    },
    {
      "channel": 1,
      "note": 86,
      "start": 10.6229,
      "duration": 0.0088,
      "velocity": 106,
      "chip": "ym2612"
    },
    {
      "channel": 3,
      "note": 59,
      "start": 10.6232,
      "duration": 0.2005,
      "velocity": 73,
      "chip": "ym2612"
    },
    {
      "channel": 4,
      "note": 74,
      "start": 10.6234,
      "duration": 0.2004,
      "velocity": 73,
      "chip": "ym2612"
    },
    {
      "channel": 1,
      "note": 85,
      "start": 10.6416,
      "duration": 0.0068,
      "velocity": 106,
      "chip": "ym2612"
    },
    {
      "channel": 2,
      "note": 86,
      "start": 10.6443,
      "duration": 0.0054,
      "velocity": 106,
      "chip": "ym2612"
    },
    {
      "channel": 2,
      "note": 85,
      "start": 10.7457,
      "duration": 0.0672,
      "velocity": 106,
      "chip": "ym2612"
    },
    {
      "channel": 0,
      "note": 40,
      "start": 10.8125,
      "duration": 0.0109,
      "velocity": 111,
      "chip": "ym2612"
    },
    {
      "channel": 1,
      "note": 83,
      "start": 10.8128,
      "duration": 0.0078,
      "velocity": 106,
      "chip": "ym2612"
    },
    {
      "channel": 0,
      "note": 40,
      "start": 10.8348,
      "duration": 0.0059,
      "velocity": 111,
      "chip": "ym2612"
    },
    {
      "channel": 2,
      "note": 83,
      "start": 10.8383,
      "duration": 0.0053,
      "velocity": 106,
      "chip": "ym2612"
    },
    {
      "channel": 0,
      "note": 40,
      "start": 10.8436,
      "duration": 0.007,
      "velocity": 111,
      "chip": "ym2612"
    },
    {
      "channel": 1,
      "note": 81,
      "start": 10.851,
      "duration": 0.0065,
      "velocity": 106,
      "chip": "ym2612"
    },
    {
      "channel": 3,
      "note": 59,
      "start": 10.8514,
      "duration": 0.3405,
      "velocity": 73,
      "chip": "ym2612"
    },
    {
      "channel": 4,
      "note": 74,
      "start": 10.8516,
      "duration": 0.3403,
      "velocity": 73,
      "chip": "ym2612"
    },
    {
      "channel": 0,
      "note": 40,
      "start": 10.8575,
      "duration": 0.0083,
      "velocity": 111,
      "chip": "ym2612"
    },
    {
      "channel": 0,
      "note": 40,
      "start": 10.8687,
      "duration": 0.0073,
      "velocity": 111,
      "chip": "ym2612"
    },
    {
      "channel": 2,
      "note": 81,
      "start": 10.8703,
      "duration": 0.0061,
      "velocity": 106,
      "chip": "ym2612"
    },
    {
      "channel": 0,
      "note": 40,
      "start": 10.8762,
      "duration": 0.0631,
      "velocity": 111,
      "chip": "ym2612"
    },
    {
      "channel": 1,
      "note": 79,
      "start": 10.8763,
      "duration": 0.0297,
      "velocity": 106,
      "chip": "ym2612"
    },
    {
      "channel": 0,
      "note": 40,
      "start": 11.0234,
      "duration": 0.0994,
      "velocity": 111,
      "chip": "ym2612"
    },
    {
      "channel": 2,
      "note": 79,
      "start": 11.0732,
      "duration": 0.0674,
      "velocity": 106,
      "chip": "ym2612"
    },
    {
      "channel": 0,
      "note": 40,
      "start": 11.1403,
      "duration": 0.0086,
      "velocity": 111,
      "chip": "ym2612"
    },
    {
      "channel": 1,
      "note": 78,
      "start": 11.1405,
      "duration": 0.0056,
      "velocity": 106,
      "chip": "ym2612"
    },
    {
      "channel": 0,
      "note": 40,
      "start": 11.1544,
      "duration": 0.0086,
      "velocity": 111,
      "chip": "ym2612"
    },
    {
      "channel": 2,
      "note": 78,
      "start": 11.1586,
      "duration": 0.006,
      "velocity": 106,
      "chip": "ym2612"
    },
    {
      "channel": 0,
      "note": 40,
      "start": 11.1665,
      "duration": 0.0085,
      "velocity": 111,
      "chip": "ym2612"
    },
    {
      "channel": 1,
      "note": 76,
      "start": 11.1667,
      "duration": 0.0052,
      "velocity": 106,
      "chip": "ym2612"
    },
    {
      "channel": 0,
      "note": 40,
      "start": 11.1808,
      "duration": 0.0089,
      "velocity": 111,
      "chip": "ym2612"
    },
    {
      "channel": 1,
      "note": 74,
      "start": 11.1836,
      "duration": 0.0062,
      "velocity": 106,
      "chip": "ym2612"
    },
    {
      "channel": 2,
      "note": 76,
      "start": 11.1852,
      "duration": 0.0064,
      "velocity": 106,
      "chip": "ym2612"
    },
    {
      "channel": 0,
      "note": 40,
      "start": 11.1915,
      "duration": 0.0084,
      "velocity": 111,
      "chip": "ym2612"
    },
    {
      "channel": 3,
      "note": 58,
      "start": 11.1918,
      "duration": 0.0246,
      "velocity": 73,
      "chip": "ym2612"
    },
    {
      "channel": 4,
      "note": 74,
      "start": 11.192,
      "duration": 0.0246,
      "velocity": 73,
      "chip": "ym2612"
    },
    {
      "channel": 2,
      "note": 74,
      "start": 11.2029,
      "duration": 0.0297,
      "velocity": 106,
      "chip": "ym2612"
    },
    {
      "channel": 0,
      "note": 40,
      "start": 11.2162,
      "duration": 0.0997,
      "velocity": 111,
      "chip": "ym2612"
    },
    {
      "channel": 0,
      "note": 44,
      "start": 11.3335,
      "duration": 0.0101,
      "velocity": 111,
      "chip": "ym2612"
    },
    {
      "channel": 1,
      "note": 86,
      "start": 11.3338,
      "duration": 0.0073,
      "velocity": 106,
      "chip": "ym2612"
    },
    {
      "channel": 3,
      "note": 57,
      "start": 11.334,
      "duration": 0.2019,
      "velocity": 73,
      "chip": "ym2612"
    },
    {
      "channel": 4,
      "note": 73,
      "start": 11.3342,
      "duration": 0.2017,
      "velocity": 73,
      "chip": "ym2612"
    },
    {
      "channel": 0,
      "note": 44,
      "start": 11.3494,
      "duration": 0.0088,
      "velocity": 111,
      "chip": "ym2612"
    },
    {
      "channel": 1,
      "note": 85,
      "start": 11.3521,
      "duration": 0.0061,
      "velocity": 106,
      "chip": "ym2612"
    },
    {
      "channel": 2,
      "note": 86,
      "start": 11.3538,
      "duration": 0.006,
      "velocity": 106,
      "chip": "ym2612"
    },
    {
      "channel": 2,
      "note": 85,
      "start": 11.4416,
      "duration": 0.0665,
      "velocity": 106,
      "chip": "ym2612"
    },
    {
      "channel": 0,
      "note": 44,
      "start": 11.5256,
      "duration": 0.01,
      "velocity": 111,
      "chip": "ym2612"
    },
    {
      "channel": 1,
      "note": 83,
      "start": 11.5258,
      "duration": 0.0084,
      "velocity": 106,
      "chip": "ym2612"
    },
    {
      "channel": 0,
      "note": 44,
      "start": 11.5451,
      "duration": 0.0069,
      "velocity": 111,
      "chip": "ym2612"
    },
    {
      "channel": 2,
      "note": 83,
      "start": 11.5485,
      "duration": 0.0052,
      "velocity": 106,
      "chip": "ym2612"
    },
    {
      "channel": 0,
      "note": 44,
      "start": 11.5537,
      "duration": 0.0073,
      "velocity": 111,
      "chip": "ym2612"
    },
    {
      "channel": 1,
      "note": 81,
      "start": 11.5615,
      "duration": 0.0061,
      "velocity": 106,
      "chip": "ym2612"
    },
    {
      "channel": 3,
      "note": 59,
      "start": 11.5617,
      "duration": 0.3298,
      "velocity": 73,
      "chip": "ym2612"
    },
    {
      "channel": 4,
      "note": 75,
      "start": 11.5619,
      "duration": 0.3297,
      "velocity": 73,
      "chip": "ym2612"
    },
    {
      "channel": 0,
      "note": 44,
      "start": 11.5675,
      "duration": 0.0078,
      "velocity": 111,
      "chip": "ym2612"
    },
    {
      "channel": 0,
      "note": 44,
      "start": 11.5784,
      "duration": 0.0086,
      "velocity": 111,
      "chip": "ym2612"
    },
    {
      "channel": 2,
      "note": 81,
      "start": 11.58,
      "duration": 0.0055,
      "velocity": 106,
      "chip": "ym2612"
    },
    {
      "channel": 0,
      "note": 46,
      "start": 11.5871,
      "duration": 0.063,
      "velocity": 111,
      "chip": "ym2612"
    },
    {
      "channel": 1,
      "note": 79,
      "start": 11.5873,
      "duration": 0.0295,
      "velocity": 106,
      "chip": "ym2612"
    },
    {
      "channel": 0,
      "note": 46,
      "start": 11.7173,
      "duration": 0.0997,
      "velocity": 111,
      "chip": "ym2612"
    },
    {
      "channel": 2,
      "note": 79,
      "start": 11.7672,
      "duration": 0.0673,
      "velocity": 106,
      "chip": "ym2612"
    },
    {
      "channel": 0,
      "note": 46,
      "start": 11.8342,
      "duration": 0.0111,
      "velocity": 111,
      "chip": "ym2612"
    },
    {
      "channel": 1,
      "note": 78,
      "start": 11.8345,
      "duration": 0.0083,
      "velocity": 106,
      "chip": "ym2612"
    },
    {
      "channel": 0,
      "note": 46,
      "start": 11.852,
      "duration": 0.0083,
      "velocity": 111,
      "chip": "ym2612"
    },
    {
      "channel": 2,
      "note": 78,
      "start": 11.8563,
      "duration": 0.0061,
      "velocity": 106,
      "chip": "ym2612"
    },
    {
      "channel": 1,
      "note": 76,
      "start": 11.8624,
      "duration": 0.0083,
      "velocity": 106,
      "chip": "ym2612"
    },
    {
      "channel": 0,
      "note": 46,
      "start": 11.8815,
      "duration": 0.0096,
      "velocity": 111,
      "chip": "ym2612"
    },
    {
      "channel": 1,
      "note": 74,
      "start": 11.8817,
      "duration": 0.0061,
      "velocity": 106,
      "chip": "ym2612"
    },
    {
      "channel": 2,
      "note": 76,
      "start": 11.8833,
      "duration": 0.0062,
      "velocity": 106,
      "chip": "ym2612"
    },
    {
      "channel": 1,
      "note": 74,
      "start": 11.8914,
      "duration": 0.0063,
      "velocity": 106,
      "chip": "ym2612"
    },
    {
      "channel": 3,
      "note": 58,
      "start": 11.8915,
      "duration": 0.0413,
      "velocity": 73,
      "chip": "ym2612"
    },
    {
      "channel": 4,
      "note": 75,
      "start": 11.8916,
      "duration": 0.0412,
      "velocity": 73,
      "chip": "ym2612"
    },
    {
      "channel": 0,
      "note": 46,
      "start": 11.8976,
      "duration": 0.0176,
      "velocity": 111,
      "chip": "ym2612"
    },
    {
      "channel": 2,
      "note": 74,
      "start": 11.9022,
      "duration": 0.0305,
      "velocity": 106,
      "chip": "ym2612"
    },
    {
      "channel": 0,
      "note": 46,
      "start": 11.9324,
      "duration": 0.0084,
      "velocity": 111,
      "chip": "ym2612"
    },
    {
      "channel": 1,
      "note": 74,
      "start": 11.9327,
      "duration": 0.0052,
      "velocity": 106,
      "chip": "ym2612"
    },
    {
      "channel": 2,
      "note": 74,
      "start": 11.9356,
      "duration": 0.0058,
      "velocity": 106,
      "chip": "ym2612"
    },
    {
      "channel": 0,
      "note": 44,
      "start": 11.9411,
      "duration": 0.0265,
      "velocity": 111,
      "chip": "ym2612"
    },
    {
      "channel": 1,
      "note": 86,
      "start": 11.9414,
      "duration": 0.0069,
      "velocity": 106,
      "chip": "ym2612"
    },
    {
      "channel": 3,
      "note": 66,
      "start": 11.9427,
      "duration": 0.2506,
      "velocity": 73,
      "chip": "ym2612"
    },
    {
      "channel": 4,
      "note": 74,
      "start": 11.9429,
      "duration": 0.2505,
      "velocity": 73,
      "chip": "ym2612"
    },
    {
      "channel": 2,
      "note": 74,
      "start": 11.9537,
      "duration": 0.0054,
      "velocity": 106,
      "chip": "ym2612"
    },
    {
      "channel": 2,
      "note": 86,
      "start": 11.9619,
      "duration": 0.0058,
      "velocity": 106,
      "chip": "ym2612"
    },
    {
      "channel": 0,
      "note": 44,
      "start": 12.132,
      "duration": 0.0081,
      "velocity": 111,
      "chip": "ym2612"
    },
    {
      "channel": 1,
      "note": 85,
      "start": 12.1322,
      "duration": 0.0054,
      "velocity": 106,
      "chip": "ym2612"
    },
    {
      "channel": 0,
      "note": 44,
      "start": 12.1461,
      "duration": 0.0083,
      "velocity": 111,
      "chip": "ym2612"
    },
    {
      "channel": 2,
      "note": 85,
      "start": 12.1502,
      "duration": 0.0062,
      "velocity": 106,
      "chip": "ym2612"
    },
    {
      "channel": 0,
      "note": 44,
      "start": 12.1563,
      "duration": 0.008,
      "velocity": 111,
      "chip": "ym2612"
    },
    {
      "channel": 1,
      "note": 83,
      "start": 12.1648,
      "duration": 0.0083,
      "velocity": 106,
      "chip": "ym2612"
    },
    {
      "channel": 0,
      "note": 44,
      "start": 12.1747,
      "duration": 0.0081,
      "velocity": 111,
      "chip": "ym2612"
    },
    {
      "channel": 0,
      "note": 44,
      "start": 12.1845,
      "duration": 0.0083,
      "velocity": 111,
      "chip": "ym2612"
    },
    {
      "channel": 2,
      "note": 83,
      "start": 12.1872,
      "duration": 0.0059,
      "velocity": 106,
      "chip": "ym2612"
    },
    {
      "channel": 0,
      "note": 44,
      "start": 12.1931,
      "duration": 0.0633,
      "velocity": 111,
      "chip": "ym2612"
    },
    {
      "channel": 3,
      "note": 65,
      "start": 12.1933,
      "duration": 0.3068,
      "velocity": 73,
      "chip": "ym2612"
    },
    {
      "channel": 4,
      "note": 74,
      "start": 12.1934,
      "duration": 0.3068,
      "velocity": 73,
      "chip": "ym2612"
    },
    {
      "channel": 0,
      "note": 44,
      "start": 12.3235,
      "duration": 0.0997,
      "velocity": 111,
      "chip": "ym2612"
    },
    {
      "channel": 1,
      "note": 81,
      "start": 12.3568,
      "duration": 0.0666,
      "velocity": 106,
      "chip": "ym2612"
    },
    {
      "channel": 0,
      "note": 44,
      "start": 12.4576,
      "duration": 0.0068,
      "velocity": 111,
      "chip": "ym2612"
    },
    {
      "channel": 2,
      "note": 81,
      "start": 12.467,
      "duration": 0.0066,
      "velocity": 106,
      "chip": "ym2612"
    },
    {
      "channel": 0,
      "note": 44,
      "start": 12.4719,
      "duration": 0.0085,
      "velocity": 111,
      "chip": "ym2612"
    },
    {
      "channel": 1,
      "note": 81,
      "start": 12.4735,
      "duration": 0.0056,
      "velocity": 106,
      "chip": "ym2612"
    },
    {
      "channel": 0,
      "note": 44,
      "start": 12.4823,
      "duration": 0.0086,
      "velocity": 111,
      "chip": "ym2612"
    },
    {
      "channel": 1,
      "note": 79,
      "start": 12.4825,
      "duration": 0.0057,
      "velocity": 106,
      "chip": "ym2612"
    },
    {
      "channel": 2,
      "note": 81,
      "start": 12.4935,
      "duration": 0.0065,
      "velocity": 106,
      "chip": "ym2612"
    },
    {
      "channel": 0,
      "note": 44,
      "start": 12.4983,
      "duration": 0.0072,
      "velocity": 111,
      "chip": "ym2612"
    },
    {
      "channel": 1,
      "note": 78,
      "start": 12.5,
      "duration": 0.0056,
      "velocity": 106,
      "chip": "ym2612"
    },
    {
      "channel": 2,
      "note": 79,
      "start": 12.5019,
      "duration": 0.0048,
      "velocity": 106,
      "chip": "ym2612"
    },
    {
      "channel": 0,
      "note": 44,
      "start": 12.5083,
      "duration": 0.0074,
      "velocity": 111,
      "chip": "ym2612"
    },
    {
      "channel": 1,
      "note": 76,
      "start": 12.5086,
      "duration": 0.0046,
      "velocity": 106,
      "chip": "ym2612"
    },
    {
      "channel": 2,
      "note": 78,
      "start": 12.5171,
      "duration": 0.0156,
      "velocity": 106,
      "chip": "ym2612"
    },
    {
      "channel": 0,
      "note": 44,
      "start": 12.521,
      "duration": 0.095,
      "velocity": 111,
      "chip": "ym2612"
    },
    {
      "channel": 1,
      "note": 74,
      "start": 12.5496,
      "duration": 0.0666,
      "velocity": 106,
      "chip": "ym2612"
    },
    {
      "channel": 2,
      "note": 76,
      "start": 12.5663,
      "duration": 0.0665,
      "velocity": 106,
      "chip": "ym2612"
    },
    {
      "channel": 0,
      "note": 46,
      "start": 12.6501,
      "duration": 0.0113,
      "velocity": 111,
      "chip": "ym2612"
    },
    {
      "channel": 1,
      "note": 81,
      "start": 12.6503,
      "duration": 0.0098,
      "velocity": 106,
      "chip": "ym2612"
    },
    {
      "channel": 3,
      "note": 57,
      "start": 12.6516,
      "duration": 0.2498,
      "velocity": 73,
      "chip": "ym2612"
    },
    {
      "channel": 4,
      "note": 73,
      "start": 12.6519,
      "duration": 0.2498,
      "velocity": 73,
      "chip": "ym2612"
    },
    {
      "channel": 2,
      "note": 74,
      "start": 12.6646,
      "duration": 0.0061,
      "velocity": 106,
      "chip": "ym2612"
    },
    {
      "channel": 0,
      "note": 46,
      "start": 12.6692,
      "duration": 0.0084,
      "velocity": 111,
      "chip": "ym2612"
    },
    {
      "channel": 2,
      "note": 81,
      "start": 12.6734,
      "duration": 0.0061,
      "velocity": 106,
      "chip": "ym2612"
    },
    {
      "channel": 0,
      "note": 46,
      "start": 12.843,
      "duration": 0.0083,
      "velocity": 111,
      "chip": "ym2612"
    },
    {
      "channel": 1,
      "note": 81,
      "start": 12.8433,
      "duration": 0.0055,
      "velocity": 106,
      "chip": "ym2612"
    },
    {
      "channel": 0,
      "note": 46,
      "start": 12.8583,
      "duration": 0.0084,
      "velocity": 111,
      "chip": "ym2612"
    },
    {
      "channel": 2,
      "note": 81,
      "start": 12.8624,
      "duration": 0.006,
      "velocity": 106,
      "chip": "ym2612"
    },
    {
      "channel": 0,
      "note": 46,
      "start": 12.8778,
      "duration": 0.0872,
      "velocity": 111,
      "chip": "ym2612"
    },
    {
      "channel": 1,
      "note": 76,
      "start": 12.8781,
      "duration": 0.3381,
      "velocity": 106,
      "chip": "ym2612"
    },
    {
      "channel": 2,
      "note": 76,
      "start": 12.8953,
      "duration": 0.3398,
      "velocity": 106,
      "chip": "ym2612"
    },
    {
      "channel": 3,
      "note": 56,
      "start": 12.9015,
      "duration": 0.2715,
      "velocity": 73,
      "chip": "ym2612"
    },
    {
      "channel": 4,
      "note": 73,
      "start": 12.9017,
      "duration": 0.2713,
      "velocity": 73,
      "chip": "ym2612"
    },
    {
      "channel": 0,
      "note": 44,
      "start": 13.188,
      "duration": 0.0099,
      "velocity": 111,
      "chip": "ym2612"
    },
    {
      "channel": 3,
      "note": 55,
      "start": 13.1884,
      "duration": 0.011,
      "velocity": 73,
      "chip": "ym2612"
    },
    {
      "channel": 4,
      "note": 71,
      "start": 13.1886,
      "duration": 0.0109,
      "velocity": 73,
      "chip": "ym2612"
    },
    {
      "channel": 0,
      "note": 44,
      "start": 13.2048,
      "duration": 0.0016,
      "velocity": 111,
      "chip": "ym2612"
    },
    {
      "channel": 0,
      "note": 46,
      "start": 13.2067,
      "duration": 0.0268,
      "velocity": 111,
      "chip": "ym2612"
    },
    {
      "channel": 3,
      "note": 57,
      "start": 13.2071,
      "duration": 0.0228,
      "velocity": 73,
      "chip": "ym2612"
    },
    {
      "channel": 4,
      "note": 73,
      "start": 13.2074,
      "duration": 0.0226,
      "velocity": 73,
      "chip": "ym2612"
    },
    {
      "channel": 1,
      "note": 76,
      "start": 13.2162,
      "duration": 0.0231,
      "velocity": 106,
      "chip": "ym2612"
    },
    {
      "channel": 2,
      "note": 76,
      "start": 13.2351,
      "duration": 0.0249,
      "velocity": 106,
      "chip": "ym2612"
    },
    {
      "channel": 0,
      "note": 40,
      "start": 13.242,
      "duration": 0.0252,
      "velocity": 111,
      "chip": "ym2612"
    },
    {
      "channel": 1,
      "note": 86,
      "start": 13.2423,
      "duration": 0.0061,
      "velocity": 106,
      "chip": "ym2612"
    },
    {
      "channel": 3,
      "note": 59,
      "start": 13.2427,
      "duration": 0.1989,
      "velocity": 73,
      "chip": "ym2612"
    },
    {
      "channel": 4,
      "note": 74,
      "start": 13.2429,
      "duration": 0.1987,
      "velocity": 73,
      "chip": "ym2612"
    },
    {
      "channel": 1,
      "note": 85,
      "start": 13.2599,
      "duration": 0.006,
      "velocity": 106,
      "chip": "ym2612"
    },
    {
      "channel": 2,
      "note": 86,
      "start": 13.2616,
      "duration": 0.0058,
      "velocity": 106,
      "chip": "ym2612"
    },
    {
      "channel": 2,
      "note": 85,
      "start": 13.3639,
      "duration": 0.0672,
      "velocity": 106,
      "chip": "ym2612"
    },
    {
      "channel": 0,
      "note": 40,
      "start": 13.4308,
      "duration": 0.0105,
      "velocity": 111,
      "chip": "ym2612"
    },
    {
      "channel": 1,
      "note": 83,
      "start": 13.431,
      "duration": 0.0075,
      "velocity": 106,
      "chip": "ym2612"
    },
    {
      "channel": 0,
      "note": 40,
      "start": 13.4504,
      "duration": 0.0055,
      "velocity": 111,
      "chip": "ym2612"
    },
    {
      "channel": 2,
      "note": 83,
      "start": 13.4527,
      "duration": 0.0048,
      "velocity": 106,
      "chip": "ym2612"
    },
    {
      "channel": 0,
      "note": 40,
      "start": 13.4588,
      "duration": 0.0068,
      "velocity": 111,
      "chip": "ym2612"
    },
    {
      "channel": 1,
      "note": 81,
      "start": 13.4661,
      "duration": 0.0066,
      "velocity": 106,
      "chip": "ym2612"
    },
    {
      "channel": 3,
      "note": 59,
      "start": 13.4663,
      "duration": 0.341,
      "velocity": 73,
      "chip": "ym2612"
    },
    {
      "channel": 4,
      "note": 74,
      "start": 13.4666,
      "duration": 0.3409,
      "velocity": 73,
      "chip": "ym2612"
    },
    {
      "channel": 0,
      "note": 40,
      "start": 13.4726,
      "duration": 0.008,
      "velocity": 111,
      "chip": "ym2612"
    },
    {
      "channel": 0,
      "note": 40,
      "start": 13.4833,
      "duration": 0.0078,
      "velocity": 111,
      "chip": "ym2612"
    },
    {
      "channel": 2,
      "note": 81,
      "start": 13.4853,
      "duration": 0.0062,
      "velocity": 106,
      "chip": "ym2612"
    },
    {
      "channel": 0,
      "note": 40,
      "start": 13.4912,
      "duration": 0.0635,
      "velocity": 111,
      "chip": "ym2612"
    },
    {
      "channel": 1,
      "note": 79,
      "start": 13.4914,
      "duration": 0.0299,
      "velocity": 106,
      "chip": "ym2612"
    },
    {
      "channel": 0,
      "note": 40,
      "start": 13.6383,
      "duration": 0.0998,
      "velocity": 111,
      "chip": "ym2612"
    },
    {
      "channel": 2,
      "note": 79,
      "start": 13.6883,
      "duration": 0.0674,
      "velocity": 106,
      "chip": "ym2612"
    },
    {
      "channel": 0,
      "note": 40,
      "start": 13.7554,
      "duration": 0.0084,
      "velocity": 111,
      "chip": "ym2612"
    },
    {
      "channel": 1,
      "note": 78,
      "start": 13.7556,
      "duration": 0.0057,
      "velocity": 106,
      "chip": "ym2612"
    },
    {
      "channel": 0,
      "note": 40,
      "start": 13.7696,
      "duration": 0.0084,
      "velocity": 111,
      "chip": "ym2612"
    },
    {
      "channel": 2,
      "note": 78,
      "start": 13.7739,
      "duration": 0.0056,
      "velocity": 106,
      "chip": "ym2612"
    },
    {
      "channel": 0,
      "note": 40,
      "start": 13.7818,
      "duration": 0.0082,
      "velocity": 111,
      "chip": "ym2612"
    },
    {
      "channel": 1,
      "note": 76,
      "start": 13.7821,
      "duration": 0.0056,
      "velocity": 106,
      "chip": "ym2612"
    },
    {
      "channel": 0,
      "note": 40,
      "start": 13.7961,
      "duration": 0.0089,
      "velocity": 111,
      "chip": "ym2612"
    },
    {
      "channel": 1,
      "note": 74,
      "start": 13.7987,
      "duration": 0.0063,
      "velocity": 106,
      "chip": "ym2612"
    },
    {
      "channel": 2,
      "note": 76,
      "start": 13.8005,
      "duration": 0.0067,
      "velocity": 106,
      "chip": "ym2612"
    },
    {
      "channel": 0,
      "note": 40,
      "start": 13.8071,
      "duration": 0.0089,
      "velocity": 111,
      "chip": "ym2612"
    },
    {
      "channel": 3,
      "note": 58,
      "start": 13.8073,
      "duration": 0.0251,
      "velocity": 73,
      "chip": "ym2612"
    },
    {
      "channel": 4,
      "note": 74,
      "start": 13.8075,
      "duration": 0.0249,
      "velocity": 73,
      "chip": "ym2612"
    },
    {
      "channel": 2,
      "note": 74,
      "start": 13.8191,
      "duration": 0.0293,
      "velocity": 106,
      "chip": "ym2612"
    },
    {
      "channel": 0,
      "note": 40,
      "start": 13.8321,
      "duration": 0.0997,
      "velocity": 111,
      "chip": "ym2612"
    },
    {
      "channel": 0,
      "note": 44,
      "start": 13.9492,
      "duration": 0.009,
      "velocity": 111,
      "chip": "ym2612"
    },
    {
      "channel": 1,
      "note": 86,
      "start": 13.9495,
      "duration": 0.006,
      "velocity": 106,
      "chip": "ym2612"
    },
    {
      "channel": 3,
      "note": 57,
      "start": 13.9497,
      "duration": 0.1841,
      "velocity": 73,
      "chip": "ym2612"
    },
    {
      "channel": 4,
      "note": 73,
      "start": 13.9499,
      "duration": 0.184,
      "velocity": 73,
      "chip": "ym2612"
    },
    {
      "channel": 0,
      "note": 44,
      "start": 13.9638,
      "duration": 0.0087,
      "velocity": 111,
      "chip": "ym2612"
    },
    {
      "channel": 1,
      "note": 85,
      "start": 13.9664,
      "duration": 0.0061,
      "velocity": 106,
      "chip": "ym2612"
    },
    {
      "channel": 2,
      "note": 86,
      "start": 13.9678,
      "duration": 0.0061,
      "velocity": 106,
      "chip": "ym2612"
    },
    {
      "channel": 2,
      "note": 85,
      "start": 14.0559,
      "duration": 0.0671,
      "velocity": 106,
      "chip": "ym2612"
    },
    {
      "channel": 0,
      "note": 44,
      "start": 14.1227,
      "duration": 0.0107,
      "velocity": 111,
      "chip": "ym2612"
    },
    {
      "channel": 1,
      "note": 83,
      "start": 14.123,
      "duration": 0.0075,
      "velocity": 106,
      "chip": "ym2612"
    },
    {
      "channel": 0,
      "note": 44,
      "start": 14.1422,
      "duration": 0.0072,
      "velocity": 111,
      "chip": "ym2612"
    },
    {
      "channel": 2,
      "note": 83,
      "start": 14.1455,
      "duration": 0.0058,
      "velocity": 106,
      "chip": "ym2612"
    },
    {
      "channel": 0,
      "note": 44,
      "start": 14.1511,
      "duration": 0.0069,
      "velocity": 111,
      "chip": "ym2612"
    },
    {
      "channel": 1,
      "note": 81,
      "start": 14.1584,
      "duration": 0.0064,
      "velocity": 106,
      "chip": "ym2612"
    },
    {
      "channel": 3,
      "note": 59,
      "start": 14.1586,
      "duration": 0.3412,
      "velocity": 73,
      "chip": "ym2612"
    },
    {
      "channel": 4,
      "note": 75,
      "start": 14.1589,
      "duration": 0.3412,
      "velocity": 73,
      "chip": "ym2612"
    },
    {
      "channel": 0,
      "note": 44,
      "start": 14.1648,
      "duration": 0.008,
      "velocity": 111,
      "chip": "ym2612"
    },
    {
      "channel": 0,
      "note": 44,
      "start": 14.1759,
      "duration": 0.0086,
      "velocity": 111,
      "chip": "ym2612"
    },
    {
      "channel": 2,
      "note": 81,
      "start": 14.1776,
      "duration": 0.0057,
      "velocity": 106,
      "chip": "ym2612"
    },
    {
      "channel": 0,
      "note": 46,
      "start": 14.1847,
      "duration": 0.0783,
      "velocity": 111,
      "chip": "ym2612"
    },
    {
      "channel": 1,
      "note": 79,
      "start": 14.1849,
      "duration": 0.0451,
      "velocity": 106,
      "chip": "ym2612"
    },
    {
      "channel": 0,
      "note": 46,
      "start": 14.3302,
      "duration": 0.0997,
      "velocity": 111,
      "chip": "ym2612"
    },
    {
      "channel": 2,
      "note": 79,
      "start": 14.3802,
      "duration": 0.0673,
      "velocity": 106,
      "chip": "ym2612"
    },
    {
      "channel": 0,
      "note": 46,
      "start": 14.4472,
      "duration": 0.0105,
      "velocity": 111,
      "chip": "ym2612"
    },
    {
      "channel": 1,
      "note": 78,
      "start": 14.4474,
      "duration": 0.0077,
      "velocity": 106,
      "chip": "ym2612"
    },
    {
      "channel": 0,
      "note": 46,
      "start": 14.4651,
      "duration": 0.0082,
      "velocity": 111,
      "chip": "ym2612"
    },
    {
      "channel": 2,
      "note": 78,
      "start": 14.4688,
      "duration": 0.0061,
      "velocity": 106,
      "chip": "ym2612"
    },
    {
      "channel": 1,
      "note": 76,
      "start": 14.4749,
      "duration": 0.0049,
      "velocity": 106,
      "chip": "ym2612"
    },
    {
      "channel": 0,
      "note": 46,
      "start": 14.4905,
      "duration": 0.0089,
      "velocity": 111,
      "chip": "ym2612"
    },
    {
      "channel": 1,
      "note": 74,
      "start": 14.4908,
      "duration": 0.0056,
      "velocity": 106,
      "chip": "ym2612"
    },
    {
      "channel": 2,
      "note": 76,
      "start": 14.4924,
      "duration": 0.0056,
      "velocity": 106,
      "chip": "ym2612"
    },
    {
      "channel": 1,
      "note": 74,
      "start": 14.4997,
      "duration": 0.0063,
      "velocity": 106,
      "chip": "ym2612"
    },
    {
      "channel": 3,
      "note": 58,
      "start": 14.4999,
      "duration": 0.0411,
      "velocity": 73,
      "chip": "ym2612"
    },
    {
      "channel": 4,
      "note": 75,
      "start": 14.5001,
      "duration": 0.0409,
      "velocity": 73,
      "chip": "ym2612"
    },
    {
      "channel": 0,
      "note": 46,
      "start": 14.5059,
      "duration": 0.017,
      "velocity": 111,
      "chip": "ym2612"
    },
    {
      "channel": 2,
      "note": 74,
      "start": 14.51,
      "duration": 0.0308,
      "velocity": 106,
      "chip": "ym2612"
    },
    {
      "channel": 0,
      "note": 46,
      "start": 14.5405,
      "duration": 0.0082,
      "velocity": 111,
      "chip": "ym2612"
    },
    {
      "channel": 1,
      "note": 74,
      "start": 14.5408,
      "duration": 0.0057,
      "velocity": 106,
      "chip": "ym2612"
    },
    {
      "channel": 2,
      "note": 74,
      "start": 14.5441,
      "duration": 0.0054,
      "velocity": 106,
      "chip": "ym2612"
    },
    {
      "channel": 0,
      "note": 44,
      "start": 14.549,
      "duration": 0.0274,
      "velocity": 111,
      "chip": "ym2612"
    },
    {
      "channel": 1,
      "note": 86,
      "start": 14.5493,
      "duration": 0.0068,
      "velocity": 106,
      "chip": "ym2612"
    },
    {
      "channel": 3,
      "note": 66,
      "start": 14.5507,
      "duration": 0.2517,
      "velocity": 73,
      "chip": "ym2612"
    },
    {
      "channel": 4,
      "note": 74,
      "start": 14.5509,
      "duration": 0.2516,
      "velocity": 73,
      "chip": "ym2612"
    },
    {
      "channel": 2,
      "note": 74,
      "start": 14.5616,
      "duration": 0.0056,
      "velocity": 106,
      "chip": "ym2612"
    },
    {
      "channel": 2,
      "note": 86,
      "start": 14.5706,
      "duration": 0.0058,
      "velocity": 106,
      "chip": "ym2612"
    },
    {
      "channel": 0,
      "note": 44,
      "start": 14.7403,
      "duration": 0.0085,
      "velocity": 111,
      "chip": "ym2612"
    },
    {
      "channel": 1,
      "note": 85,
      "start": 14.7406,
      "duration": 0.0058,
      "velocity": 106,
      "chip": "ym2612"
    },
    {
      "channel": 0,
      "note": 44,
      "start": 14.7549,
      "duration": 0.0089,
      "velocity": 111,
      "chip": "ym2612"
    },
    {
      "channel": 2,
      "note": 85,
      "start": 14.7593,
      "duration": 0.0065,
      "velocity": 106,
      "chip": "ym2612"
    },
    {
      "channel": 0,
      "note": 44,
      "start": 14.7656,
      "duration": 0.0085,
      "velocity": 111,
      "chip": "ym2612"
    },
    {
      "channel": 1,
      "note": 83,
      "start": 14.7746,
      "duration": 0.0064,
      "velocity": 106,
      "chip": "ym2612"
    },
    {
      "channel": 0,
      "note": 44,
      "start": 14.7827,
      "duration": 0.0088,
      "velocity": 111,
      "chip": "ym2612"
    },
    {
      "channel": 0,
      "note": 44,
      "start": 14.7931,
      "duration": 0.009,
      "velocity": 111,
      "chip": "ym2612"
    },
    {
      "channel": 2,
      "note": 83,
      "start": 14.7945,
      "duration": 0.0061,
      "velocity": 106,
      "chip": "ym2612"
    },
    {
      "channel": 0,
      "note": 44,
      "start": 14.8021,
      "duration": 0.0631,
      "velocity": 111,
      "chip": "ym2612"
    },
    {
      "channel": 3,
      "note": 65,
      "start": 14.8023,
      "duration": 0.309,
      "velocity": 73,
      "chip": "ym2612"
    },
    {
      "channel": 4,
      "note": 74,
      "start": 14.8025,
      "duration": 0.309,
      "velocity": 73,
      "chip": "ym2612"
    },
    {
      "channel": 0,
      "note": 44,
      "start": 14.9326,
      "duration": 0.0996,
      "velocity": 111,
      "chip": "ym2612"
    },
    {
      "channel": 1,
      "note": 81,
      "start": 14.9658,
      "duration": 0.0665,
      "velocity": 106,
      "chip": "ym2612"
    },
    {
      "channel": 0,
      "note": 44,
      "start": 15.0664,
      "duration": 0.0068,
      "velocity": 111,
      "chip": "ym2612"
    },
    {
      "channel": 2,
      "note": 81,
      "start": 15.0758,
      "duration": 0.0061,
      "velocity": 106,
      "chip": "ym2612"
    },
    {
      "channel": 0,
      "note": 44,
      "start": 15.0802,
      "duration": 0.0087,
      "velocity": 111,
      "chip": "ym2612"
    },
    {
      "channel": 1,
      "note": 81,
      "start": 15.0818,
      "duration": 0.0057,
      "velocity": 106,
      "chip": "ym2612"
    },
    {
      "channel": 0,
      "note": 44,
      "start": 15.0907,
      "duration": 0.0111,
      "velocity": 111,
      "chip": "ym2612"
    },
    {
      "channel": 1,
      "note": 79,
      "start": 15.091,
      "duration": 0.0082,
      "velocity": 106,
      "chip": "ym2612"
    },
    {
      "channel": 2,
      "note": 81,
      "start": 15.105,
      "duration": 0.0063,
      "velocity": 106,
      "chip": "ym2612"
    },
    {
      "channel": 0,
      "note": 44,
      "start": 15.1096,
      "duration": 0.0069,
      "velocity": 111,
      "chip": "ym2612"
    },
    {
      "channel": 1,
      "note": 78,
      "start": 15.1112,
      "duration": 0.0053,
      "velocity": 106,
      "chip": "ym2612"
    },
    {
      "channel": 2,
      "note": 79,
      "start": 15.1129,
      "duration": 0.0049,
      "velocity": 106,
      "chip": "ym2612"
    },
    {
      "channel": 0,
      "note": 44,
      "start": 15.1197,
      "duration": 0.0069,
      "velocity": 111,
      "chip": "ym2612"
    },
    {
      "channel": 1,
      "note": 76,
      "start": 15.12,
      "duration": 0.0044,
      "velocity": 106,
      "chip": "ym2612"
    },
    {
      "channel": 2,
      "note": 78,
      "start": 15.128,
      "duration": 0.0151,
      "velocity": 106,
      "chip": "ym2612"
    },
    {
      "channel": 0,
      "note": 44,
      "start": 15.1318,
      "duration": 0.0946,
      "velocity": 111,
      "chip": "ym2612"
    },
    {
      "channel": 1,
      "note": 74,
      "start": 15.16,
      "duration": 0.0666,
      "velocity": 106,
      "chip": "ym2612"
    },
    {
      "channel": 2,
      "note": 76,
      "start": 15.1768,
      "duration": 0.0665,
      "velocity": 106,
      "chip": "ym2612"
    },
    {
      "channel": 0,
      "note": 46,
      "start": 15.2605,
      "duration": 0.0111,
      "velocity": 111,
      "chip": "ym2612"
    },
    {
      "channel": 1,
      "note": 81,
      "start": 15.2607,
      "duration": 0.0095,
      "velocity": 106,
      "chip": "ym2612"
    },
    {
      "channel": 3,
      "note": 57,
      "start": 15.262,
      "duration": 0.2502,
      "velocity": 73,
      "chip": "ym2612"
    },
    {
      "channel": 4,
      "note": 73,
      "start": 15.2622,
      "duration": 0.2501,
      "velocity": 73,
      "chip": "ym2612"
    },
    {
      "channel": 2,
      "note": 74,
      "start": 15.2744,
      "duration": 0.0059,
      "velocity": 106,
      "chip": "ym2612"
    },
    {
      "channel": 0,
      "note": 46,
      "start": 15.2787,
      "duration": 0.0092,
      "velocity": 111,
      "chip": "ym2612"
    },
    {
      "channel": 2,
      "note": 81,
      "start": 15.2837,
      "duration": 0.0058,
      "velocity": 106,
      "chip": "ym2612"
    },
    {
      "channel": 0,
      "note": 46,
      "start": 15.4528,
      "duration": 0.0094,
      "velocity": 111,
      "chip": "ym2612"
    },
    {
      "channel": 1,
      "note": 81,
      "start": 15.4531,
      "duration": 0.0066,
      "velocity": 106,
      "chip": "ym2612"
    },
    {
      "channel": 0,
      "note": 46,
      "start": 15.4682,
      "duration": 0.0089,
      "velocity": 111,
      "chip": "ym2612"
    },
    {
      "channel": 2,
      "note": 81,
      "start": 15.4727,
      "duration": 0.0058,
      "velocity": 106,
      "chip": "ym2612"
    },
    {
      "channel": 0,
      "note": 46,
      "start": 15.4871,
      "duration": 0.0888,
      "velocity": 111,
      "chip": "ym2612"
    },
    {
      "channel": 1,
      "note": 76,
      "start": 15.4874,
      "duration": 0.339,
      "velocity": 106,
      "chip": "ym2612"
    },
    {
      "channel": 2,
      "note": 76,
      "start": 15.5063,
      "duration": 0.3385,
      "velocity": 106,
      "chip": "ym2612"
    },
    {
      "channel": 3,
      "note": 56,
      "start": 15.5122,
      "duration": 0.2722,
      "velocity": 73,
      "chip": "ym2612"
    },
    {
      "channel": 4,
      "note": 73,
      "start": 15.5124,
      "duration": 0.272,
      "velocity": 73,
      "chip": "ym2612"
    },
    {
      "channel": 0,
      "note": 44,
      "start": 15.7988,
      "duration": 0.0093,
      "velocity": 111,
      "chip": "ym2612"
    },
    {
      "channel": 3,
      "note": 55,
      "start": 15.7993,
      "duration": 0.0107,
      "velocity": 73,
      "chip": "ym2612"
    },
    {
      "channel": 4,
      "note": 71,
      "start": 15.7995,
      "duration": 0.0106,
      "velocity": 73,
      "chip": "ym2612"
    },
    {
      "channel": 0,
      "note": 44,
      "start": 15.8152,
      "duration": 0.0012,
      "velocity": 111,
      "chip": "ym2612"
    },
    {
      "channel": 0,
      "note": 46,
      "start": 15.8167,
      "duration": 0.0265,
      "velocity": 111,
      "chip": "ym2612"
    },
    {
      "channel": 3,
      "note": 57,
      "start": 15.8172,
      "duration": 0.0224,
      "velocity": 73,
      "chip": "ym2612"
    },
    {
      "channel": 4,
      "note": 73,
      "start": 15.8174,
      "duration": 0.0222,
      "velocity": 73,
      "chip": "ym2612"
    },
    {
      "channel": 1,
      "note": 76,
      "start": 15.8263,
      "duration": 0.0224,
      "velocity": 106,
      "chip": "ym2612"
    },
    {
      "channel": 2,
      "note": 76,
      "start": 15.8448,
      "duration": 0.0283,
      "velocity": 106,
      "chip": "ym2612"
    },
    {
      "channel": 0,
      "note": 40,
      "start": 15.8515,
      "duration": 0.0289,
      "velocity": 111,
      "chip": "ym2612"
    },
    {
      "channel": 3,
      "note": 59,
      "start": 15.8531,
      "duration": 0.0116,
      "velocity": 73,
      "chip": "ym2612"
    },
    {
      "channel": 4,
      "note": 74,
      "start": 15.8534,
      "duration": 0.0114,
      "velocity": 73,
      "chip": "ym2612"
    },
    {
      "channel": 3,
      "note": 59,
      "start": 15.8806,
      "duration": 0.0474,
      "velocity": 73,
      "chip": "ym2612"
    },
    {
      "channel": 4,
      "note": 74,
      "start": 15.881,
      "duration": 0.0471,
      "velocity": 73,
      "chip": "ym2612"
    },
    {
      "channel": 0,
      "note": 40,
      "start": 16.0451,
      "duration": 0.0073,
      "velocity": 111,
      "chip": "ym2612"
    },
    {
      "channel": 3,
      "note": 59,
      "start": 16.0531,
      "duration": 0.0072,
      "velocity": 73,
      "chip": "ym2612"
    },
    {
      "channel": 4,
      "note": 74,
      "start": 16.0534,
      "duration": 0.0069,
      "velocity": 73,
      "chip": "ym2612"
    },
    {
      "channel": 0,
      "note": 40,
      "start": 16.0591,
      "duration": 0.0077,
      "velocity": 111,
      "chip": "ym2612"
    },
    {
      "channel": 0,
      "note": 40,
      "start": 16.0694,
      "duration": 0.0072,
      "velocity": 111,
      "chip": "ym2612"
    },
    {
      "channel": 3,
      "note": 59,
      "start": 16.0772,
      "duration": 0.0076,
      "velocity": 73,
      "chip": "ym2612"
    },
    {
      "channel": 4,
      "note": 74,
      "start": 16.0776,
      "duration": 0.0072,
      "velocity": 73,
      "chip": "ym2612"
    },
    {
      "channel": 0,
      "note": 40,
      "start": 16.0833,
      "duration": 0.0074,
      "velocity": 111,
      "chip": "ym2612"
    },
    {
      "channel": 0,
      "note": 40,
      "start": 16.093,
      "duration": 0.0061,
      "velocity": 111,
      "chip": "ym2612"
    },
    {
      "channel": 3,
      "note": 59,
      "start": 16.0995,
      "duration": 0.0489,
      "velocity": 73,
      "chip": "ym2612"
    },
    {
      "channel": 4,
      "note": 74,
      "start": 16.0999,
      "duration": 0.0487,
      "velocity": 73,
      "chip": "ym2612"
    },
    {
      "channel": 0,
      "note": 40,
      "start": 16.1483,
      "duration": 0.0999,
      "velocity": 111,
      "chip": "ym2612"
    },
    {
      "channel": 0,
      "note": 40,
      "start": 16.2653,
      "duration": 0.0996,
      "velocity": 111,
      "chip": "ym2612"
    },
    {
      "channel": 3,
      "note": 59,
      "start": 16.3655,
      "duration": 0.01,
      "velocity": 73,
      "chip": "ym2612"
    },
    {
      "channel": 4,
      "note": 74,
      "start": 16.3659,
      "duration": 0.0097,
      "velocity": 73,
      "chip": "ym2612"
    },
    {
      "channel": 0,
      "note": 40,
      "start": 16.3739,
      "duration": 0.0071,
      "velocity": 111,
      "chip": "ym2612"
    },
    {
      "channel": 0,
      "note": 40,
      "start": 16.3839,
      "duration": 0.0072,
      "velocity": 111,
      "chip": "ym2612"
    },
    {
      "channel": 3,
      "note": 59,
      "start": 16.3914,
      "duration": 0.0077,
      "velocity": 73,
      "chip": "ym2612"
    },
    {
      "channel": 4,
      "note": 74,
      "start": 16.3917,
      "duration": 0.0075,
      "velocity": 73,
      "chip": "ym2612"
    },
    {
      "channel": 0,
      "note": 40,
      "start": 16.3974,
      "duration": 0.0072,
      "velocity": 111,
      "chip": "ym2612"
    },
    {
      "channel": 0,
      "note": 40,
      "start": 16.4061,
      "duration": 0.0074,
      "velocity": 111,
      "chip": "ym2612"
    },
    {
      "channel": 3,
      "note": 59,
      "start": 16.4138,
      "duration": 0.0072,
      "velocity": 73,
      "chip": "ym2612"
    },
    {
      "channel": 4,
      "note": 74,
      "start": 16.4142,
      "duration": 0.0069,
      "velocity": 73,
      "chip": "ym2612"
    },
    {
      "channel": 0,
      "note": 40,
      "start": 16.4209,
      "duration": 0.0182,
      "velocity": 111,
      "chip": "ym2612"
    },
    {
      "channel": 0,
      "note": 38,
      "start": 16.4566,
      "duration": 0.0998,
      "velocity": 111,
      "chip": "ym2612"
    },
    {
      "channel": 3,
      "note": 59,
      "start": 16.557,
      "duration": 0.0076,
      "velocity": 73,
      "chip": "ym2612"
    },
    {
      "channel": 4,
      "note": 74,
      "start": 16.5574,
      "duration": 0.0073,
      "velocity": 73,
      "chip": "ym2612"
    },
    {
      "channel": 0,
      "note": 38,
      "start": 16.5631,
      "duration": 0.008,
      "velocity": 111,
      "chip": "ym2612"
    },
    {
      "channel": 0,
      "note": 40,
      "start": 16.5735,
      "duration": 0.0073,
      "velocity": 111,
      "chip": "ym2612"
    },
    {
      "channel": 3,
      "note": 59,
      "start": 16.5812,
      "duration": 0.0639,
      "velocity": 73,
      "chip": "ym2612"
    },
    {
      "channel": 4,
      "note": 74,
      "start": 16.5815,
      "duration": 0.0635,
      "velocity": 73,
      "chip": "ym2612"
    },
    {
      "channel": 0,
      "note": 40,
      "start": 16.6285,
      "duration": 0.0997,
      "velocity": 111,
      "chip": "ym2612"
    },
    {
      "channel": 0,
      "note": 40,
      "start": 16.7456,
      "duration": 0.0071,
      "velocity": 111,
      "chip": "ym2612"
    },
    {
      "channel": 0,
      "note": 40,
      "start": 16.753,
      "duration": 0.0109,
      "velocity": 111,
      "chip": "ym2612"
    },
    {
      "channel": 3,
      "note": 59,
      "start": 16.7537,
      "duration": 0.009,
      "velocity": 73,
      "chip": "ym2612"
    },
    {
      "channel": 4,
      "note": 74,
      "start": 16.7542,
      "duration": 0.0085,
      "velocity": 73,
      "chip": "ym2612"
    },
    {
      "channel": 0,
      "note": 40,
      "start": 16.7697,
      "duration": 0.0073,
      "velocity": 111,
      "chip": "ym2612"
    },
    {
      "channel": 0,
      "note": 40,
      "start": 16.7786,
      "duration": 0.0117,
      "velocity": 111,
      "chip": "ym2612"
    },
    {
      "channel": 3,
      "note": 59,
      "start": 16.779,
      "duration": 0.01,
      "velocity": 73,
      "chip": "ym2612"
    },
    {
      "channel": 4,
      "note": 74,
      "start": 16.7793,
      "duration": 0.0097,
      "velocity": 73,
      "chip": "ym2612"
    },
    {
      "channel": 0,
      "note": 40,
      "start": 16.7956,
      "duration": 0.0024,
      "velocity": 111,
      "chip": "ym2612"
    },
    {
      "channel": 0,
      "note": 40,
      "start": 16.7981,
      "duration": 0.0075,
      "velocity": 111,
      "chip": "ym2612"
    },
    {
      "channel": 3,
      "note": 59,
      "start": 16.8061,
      "duration": 0.0641,
      "velocity": 73,
      "chip": "ym2612"
    },
    {
      "channel": 4,
      "note": 74,
      "start": 16.8065,
      "duration": 0.0638,
      "velocity": 73,
      "chip": "ym2612"
    },
    {
      "channel": 0,
      "note": 40,
      "start": 16.8538,
      "duration": 0.0996,
      "velocity": 111,
      "chip": "ym2612"
    },
    {
      "channel": 0,
      "note": 40,
      "start": 16.9708,
      "duration": 0.0995,
      "velocity": 111,
      "chip": "ym2612"
    },
    {
      "channel": 3,
      "note": 59,
      "start": 17.071,
      "duration": 0.0098,
      "velocity": 73,
      "chip": "ym2612"
    },
    {
      "channel": 4,
      "note": 74,
      "start": 17.0713,
      "duration": 0.0095,
      "velocity": 73,
      "chip": "ym2612"
    },
    {
      "channel": 0,
      "note": 40,
      "start": 17.0806,
      "duration": 0.0071,
      "velocity": 111,
      "chip": "ym2612"
    },
    {
      "channel": 0,
      "note": 40,
      "start": 17.0897,
      "duration": 0.0069,
      "velocity": 111,
      "chip": "ym2612"
    },
    {
      "channel": 3,
      "note": 59,
      "start": 17.0972,
      "duration": 0.01,
      "velocity": 73,
      "chip": "ym2612"
    },
    {
      "channel": 4,
      "note": 74,
      "start": 17.0976,
      "duration": 0.0097,
      "velocity": 73,
      "chip": "ym2612"
    },
    {
      "channel": 0,
      "note": 40,
      "start": 17.1057,
      "duration": 0.0074,
      "velocity": 111,
      "chip": "ym2612"
    },
    {
      "channel": 0,
      "note": 40,
      "start": 17.1157,
      "duration": 0.0075,
      "velocity": 111,
      "chip": "ym2612"
    },
    {
      "channel": 3,
      "note": 59,
      "start": 17.1236,
      "duration": 0.0075,
      "velocity": 73,
      "chip": "ym2612"
    },
    {
      "channel": 4,
      "note": 74,
      "start": 17.124,
      "duration": 0.0072,
      "velocity": 73,
      "chip": "ym2612"
    },
    {
      "channel": 0,
      "note": 40,
      "start": 17.1295,
      "duration": 0.0186,
      "velocity": 111,
      "chip": "ym2612"
    },
    {
      "channel": 0,
      "note": 40,
      "start": 17.2656,
      "duration": 0.0236,
      "velocity": 111,
      "chip": "ym2612"
    },
    {
      "channel": 1,
      "note": 98,
      "start": 17.2657,
      "duration": 0.0049,
      "velocity": 109,
      "chip": "ym2612"
    },
    {
      "channel": 3,
      "note": 57,
      "start": 17.2663,
      "duration": 0.0071,
      "velocity": 73,
      "chip": "ym2612"
    },
    {
      "channel": 4,
      "note": 73,
      "start": 17.2669,
      "duration": 0.0066,
      "velocity": 73,
      "chip": "ym2612"
    },
    {
      "channel": 2,
      "note": 98,
      "start": 17.2831,
      "duration": 0.0039,
      "velocity": 109,
      "chip": "ym2612"
    },
    {
      "channel": 1,
      "note": 90,
      "start": 17.2894,
      "duration": 0.0155,
      "velocity": 109,
      "chip": "ym2612"
    },
    {
      "channel": 3,
      "note": 57,
      "start": 17.2898,
      "duration": 0.0487,
      "velocity": 73,
      "chip": "ym2612"
    },
    {
      "channel": 4,
      "note": 73,
      "start": 17.2901,
      "duration": 0.0484,
      "velocity": 73,
      "chip": "ym2612"
    },
    {
      "channel": 0,
      "note": 40,
      "start": 17.4555,
      "duration": 0.0078,
      "velocity": 111,
      "chip": "ym2612"
    },
    {
      "channel": 2,
      "note": 90,
      "start": 17.4571,
      "duration": 0.0038,
      "velocity": 109,
      "chip": "ym2612"
    },
    {
      "channel": 1,
      "note": 97,
      "start": 17.4637,
      "duration": 0.0071,
      "velocity": 109,
      "chip": "ym2612"
    },
    {
      "channel": 3,
      "note": 57,
      "start": 17.4644,
      "duration": 0.0095,
      "velocity": 73,
      "chip": "ym2612"
    },
    {
      "channel": 4,
      "note": 73,
      "start": 17.4649,
      "duration": 0.009,
      "velocity": 73,
      "chip": "ym2612"
    },
    {
      "channel": 0,
      "note": 40,
      "start": 17.4725,
      "duration": 0.0073,
      "velocity": 111,
      "chip": "ym2612"
    },
    {
      "channel": 0,
      "note": 40,
      "start": 17.4814,
      "duration": 0.0077,
      "velocity": 111,
      "chip": "ym2612"
    },
    {
      "channel": 2,
      "note": 97,
      "start": 17.4841,
      "duration": 0.0038,
      "velocity": 109,
      "chip": "ym2612"
    },
    {
      "channel": 1,
      "note": 86,
      "start": 17.4895,
      "duration": 0.0045,
      "velocity": 109,
      "chip": "ym2612"
    },
    {
      "channel": 3,
      "note": 57,
      "start": 17.4899,
      "duration": 0.0075,
      "velocity": 73,
      "chip": "ym2612"
    },
    {
      "channel": 4,
      "note": 73,
      "start": 17.4902,
      "duration": 0.0072,
      "velocity": 73,
      "chip": "ym2612"
    },
    {
      "channel": 0,
      "note": 40,
      "start": 17.4973,
      "duration": 0.007,
      "velocity": 111,
      "chip": "ym2612"
    },
    {
      "channel": 0,
      "note": 40,
      "start": 17.5057,
      "duration": 0.008,
      "velocity": 111,
      "chip": "ym2612"
    },
    {
      "channel": 1,
      "note": 95,
      "start": 17.5059,
      "duration": 0.0039,
      "velocity": 109,
      "chip": "ym2612"
    },
    {
      "channel": 2,
      "note": 86,
      "start": 17.5072,
      "duration": 0.0043,
      "velocity": 109,
      "chip": "ym2612"
    },
    {
      "channel": 3,
      "note": 57,
      "start": 17.514,
      "duration": 0.0485,
      "velocity": 73,
      "chip": "ym2612"
    },
    {
      "channel": 4,
      "note": 73,
      "start": 17.5144,
      "duration": 0.0482,
      "velocity": 73,
      "chip": "ym2612"
    },
    {
      "channel": 0,
      "note": 40,
      "start": 17.5459,
      "duration": 0.0998,
      "velocity": 111,
      "chip": "ym2612"
    },
    {
      "channel": 2,
      "note": 95,
      "start": 17.596,
      "duration": 0.0499,
      "velocity": 109,
      "chip": "ym2612"
    },
    {
      "channel": 0,
      "note": 40,
      "start": 17.6796,
      "duration": 0.0998,
      "velocity": 111,
      "chip": "ym2612"
    },
    {
      "channel": 1,
      "note": 81,
      "start": 17.7799,
      "duration": 0.0075,
      "velocity": 109,
      "chip": "ym2612"
    },
    {
      "channel": 3,
      "note": 57,
      "start": 17.7804,
      "duration": 0.0103,
      "velocity": 73,
      "chip": "ym2612"
    },
    {
      "channel": 4,
      "note": 73,
      "start": 17.7807,
      "duration": 0.0101,
      "velocity": 73,
      "chip": "ym2612"
    },
    {
      "channel": 0,
      "note": 40,
      "start": 17.7892,
      "duration": 0.0076,
      "velocity": 111,
      "chip": "ym2612"
    },
    {
      "channel": 1,
      "note": 83,
      "start": 17.7906,
      "duration": 0.0034,
      "velocity": 109,
      "chip": "ym2612"
    },
    {
      "channel": 0,
      "note": 40,
      "start": 17.7985,
      "duration": 0.0078,
      "velocity": 111,
      "chip": "ym2612"
    },
    {
      "channel": 1,
      "note": 90,
      "start": 17.7988,
      "duration": 0.0039,
      "velocity": 109,
      "chip": "ym2612"
    },
    {
      "channel": 2,
      "note": 81,
      "start": 17.8012,
      "duration": 0.0039,
      "velocity": 109,
      "chip": "ym2612"
    },
    {
      "channel": 1,
      "note": 93,
      "start": 17.8068,
      "duration": 0.0054,
      "velocity": 109,
      "chip": "ym2612"
    },
    {
      "channel": 3,
      "note": 57,
      "start": 17.8071,
      "duration": 0.0085,
      "velocity": 73,
      "chip": "ym2612"
    },
    {
      "channel": 4,
      "note": 73,
      "start": 17.8075,
      "duration": 0.0081,
      "velocity": 73,
      "chip": "ym2612"
    },
    {
      "channel": 2,
      "note": 83,
      "start": 17.8104,
      "duration": 0.0051,
      "velocity": 109,
      "chip": "ym2612"
    },
    {
      "channel": 0,
      "note": 40,
      "start": 17.8154,
      "duration": 0.0065,
      "velocity": 111,
      "chip": "ym2612"
    },
    {
      "channel": 1,
      "note": 95,
      "start": 17.817,
      "duration": 0.0037,
      "velocity": 109,
      "chip": "ym2612"
    },
    {
      "channel": 2,
      "note": 90,
      "start": 17.8196,
      "duration": 0.0035,
      "velocity": 109,
      "chip": "ym2612"
    },
    {
      "channel": 0,
      "note": 40,
      "start": 17.8245,
      "duration": 0.0078,
      "velocity": 111,
      "chip": "ym2612"
    },
    {
      "channel": 1,
      "note": 102,
      "start": 17.8247,
      "duration": 0.0041,
      "velocity": 109,
      "chip": "ym2612"
    },
    {
      "channel": 2,
      "note": 93,
      "start": 17.8264,
      "duration": 0.0038,
      "velocity": 109,
      "chip": "ym2612"
    },
    {
      "channel": 1,
      "note": 107,
      "start": 17.8325,
      "duration": 0.0052,
      "velocity": 109,
      "chip": "ym2612"
    },
    {
      "channel": 3,
      "note": 57,
      "start": 17.8329,
      "duration": 0.0088,
      "velocity": 73,
      "chip": "ym2612"
    },
    {
      "channel": 4,
      "note": 73,
      "start": 17.8332,
      "duration": 0.0085,
      "velocity": 73,
      "chip": "ym2612"
    },
    {
      "channel": 2,
      "note": 95,
      "start": 17.8348,
      "duration": 0.005,
      "velocity": 109,
      "chip": "ym2612"
    },
    {
      "channel": 0,
      "note": 40,
      "start": 17.8397,
      "duration": 0.0088,
      "velocity": 111,
      "chip": "ym2612"
    },
    {
      "channel": 1,
      "note": 102,
      "start": 17.8431,
      "duration": 0.0039,
      "velocity": 109,
      "chip": "ym2612"
    },
    {
      "channel": 2,
      "note": 102,
      "start": 17.8446,
      "duration": 0.0041,
      "velocity": 109,
      "chip": "ym2612"
    },
    {
      "channel": 0,
      "note": 38,
      "start": 17.8766,
      "duration": 0.0831,
      "velocity": 111,
      "chip": "ym2612"
    },
    {
      "channel": 1,
      "note": 107,
      "start": 17.8769,
      "duration": 0.0493,
      "velocity": 109,
      "chip": "ym2612"
    },
    {
      "channel": 2,
      "note": 107,
      "start": 17.8929,
      "duration": 0.0498,
      "velocity": 109,
      "chip": "ym2612"
    },
    {
      "channel": 0,
      "note": 40,
      "start": 17.96,
      "duration": 0.0091,
      "velocity": 111,
      "chip": "ym2612"
    },
    {
      "channel": 1,
      "note": 102,
      "start": 17.9602,
      "duration": 0.0046,
      "velocity": 109,
      "chip": "ym2612"
    },
    {
      "channel": 3,
      "note": 57,
      "start": 17.9605,
      "duration": 0.0073,
      "velocity": 73,
      "chip": "ym2612"
    },
    {
      "channel": 4,
      "note": 73,
      "start": 17.9608,
      "duration": 0.007,
      "velocity": 73,
      "chip": "ym2612"
    },
    {
      "channel": 2,
      "note": 102,
      "start": 17.9633,
      "duration": 0.0044,
      "velocity": 109,
      "chip": "ym2612"
    },
    {
      "channel": 2,
      "note": 107,
      "start": 17.972,
      "duration": 0.004,
      "velocity": 109,
      "chip": "ym2612"
    },
    {
      "channel": 0,
      "note": 40,
      "start": 17.9759,
      "duration": 0.0078,
      "velocity": 111,
      "chip": "ym2612"
    },
    {
      "channel": 1,
      "note": 107,
      "start": 17.9773,
      "duration": 0.004,
      "velocity": 109,
      "chip": "ym2612"
    },
    {
      "channel": 2,
      "note": 102,
      "start": 17.9801,
      "duration": 0.0037,
      "velocity": 109,
      "chip": "ym2612"
    },
    {
      "channel": 0,
      "note": 40,
      "start": 17.9856,
      "duration": 0.0644,
      "velocity": 111,
      "chip": "ym2612"
    },
    {
      "channel": 1,
      "note": 102,
      "start": 17.986,
      "duration": 0.0139,
      "velocity": 109,
      "chip": "ym2612"
    },
    {
      "channel": 3,
      "note": 57,
      "start": 17.9863,
      "duration": 0.0471,
      "velocity": 73,
      "chip": "ym2612"
    },
    {
      "channel": 4,
      "note": 73,
      "start": 17.9867,
      "duration": 0.0468,
      "velocity": 73,
      "chip": "ym2612"
    },
    {
      "channel": 2,
      "note": 107,
      "start": 18.0837,
      "duration": 0.0499,
      "velocity": 109,
      "chip": "ym2612"
    },
    {
      "channel": 0,
      "note": 40,
      "start": 18.1174,
      "duration": 0.0329,
      "velocity": 111,
      "chip": "ym2612"
    },
    {
      "channel": 0,
      "note": 40,
      "start": 18.1507,
      "duration": 0.0085,
      "velocity": 111,
      "chip": "ym2612"
    },
    {
      "channel": 1,
      "note": 107,
      "start": 18.1509,
      "duration": 0.0051,
      "velocity": 109,
      "chip": "ym2612"
    },
    {
      "channel": 2,
      "note": 102,
      "start": 18.1529,
      "duration": 0.0044,
      "velocity": 109,
      "chip": "ym2612"
    },
    {
      "channel": 1,
      "note": 102,
      "start": 18.1596,
      "duration": 0.0047,
      "velocity": 109,
      "chip": "ym2612"
    },
    {
      "channel": 3,
      "note": 57,
      "start": 18.16,
      "duration": 0.0078,
      "velocity": 73,
      "chip": "ym2612"
    },
    {
      "channel": 4,
      "note": 73,
      "start": 18.1604,
      "duration": 0.0075,
      "velocity": 73,
      "chip": "ym2612"
    },
    {
      "channel": 0,
      "note": 40,
      "start": 18.1662,
      "duration": 0.0079,
      "velocity": 111,
      "chip": "ym2612"
    },
    {
      "channel": 2,
      "note": 107,
      "start": 18.1705,
      "duration": 0.0037,
      "velocity": 109,
      "chip": "ym2612"
    },
    {
      "channel": 0,
      "note": 40,
      "start": 18.1774,
      "duration": 0.007,
      "velocity": 111,
      "chip": "ym2612"
    },
    {
      "channel": 1,
      "note": 107,
      "start": 18.1777,
      "duration": 0.0042,
      "velocity": 109,
      "chip": "ym2612"
    },
    {
      "channel": 2,
      "note": 102,
      "start": 18.1793,
      "duration": 0.0038,
      "velocity": 109,
      "chip": "ym2612"
    },
    {
      "channel": 1,
      "note": 102,
      "start": 18.185,
      "duration": 0.0044,
      "velocity": 109,
      "chip": "ym2612"
    },
    {
      "channel": 3,
      "note": 57,
      "start": 18.1853,
      "duration": 0.0078,
      "velocity": 73,
      "chip": "ym2612"
    },
    {
      "channel": 4,
      "note": 73,
      "start": 18.1857,
      "duration": 0.0075,
      "velocity": 73,
      "chip": "ym2612"
    },
    {
      "channel": 0,
      "note": 40,
      "start": 18.1929,
      "duration": 0.0075,
      "velocity": 111,
      "chip": "ym2612"
    },
    {
      "channel": 2,
      "note": 107,
      "start": 18.1966,
      "duration": 0.004,
      "velocity": 109,
      "chip": "ym2612"
    },
    {
      "channel": 0,
      "note": 40,
      "start": 18.2021,
      "duration": 0.0083,
      "velocity": 111,
      "chip": "ym2612"
    },
    {
      "channel": 1,
      "note": 107,
      "start": 18.2024,
      "duration": 0.0044,
      "velocity": 109,
      "chip": "ym2612"
    },
    {
      "channel": 2,
      "note": 102,
      "start": 18.2051,
      "duration": 0.0042,
      "velocity": 109,
      "chip": "ym2612"
    },
    {
      "channel": 1,
      "note": 102,
      "start": 18.2108,
      "duration": 0.0145,
      "velocity": 109,
      "chip": "ym2612"
    },
    {
      "channel": 3,
      "note": 57,
      "start": 18.2112,
      "duration": 0.0481,
      "velocity": 73,
      "chip": "ym2612"
    },
    {
      "channel": 4,
      "note": 73,
      "start": 18.2116,
      "duration": 0.0478,
      "velocity": 73,
      "chip": "ym2612"
    },
    {
      "channel": 0,
      "note": 40,
      "start": 18.2591,
      "duration": 0.083,
      "velocity": 111,
      "chip": "ym2612"
    },
    {
      "channel": 2,
      "note": 107,
      "start": 18.2927,
      "duration": 0.0497,
      "velocity": 109,
      "chip": "ym2612"
    },
    {
      "channel": 0,
      "note": 40,
      "start": 18.3762,
      "duration": 0.0995,
      "velocity": 111,
      "chip": "ym2612"
    },
    {
      "channel": 1,
      "note": 107,
      "start": 18.3765,
      "duration": 0.0492,
      "velocity": 109,
      "chip": "ym2612"
    },
    {
      "channel": 2,
      "note": 102,
      "start": 18.3927,
      "duration": 0.0496,
      "velocity": 109,
      "chip": "ym2612"
    },
    {
      "channel": 1,
      "note": 102,
      "start": 18.4763,
      "duration": 0.0048,
      "velocity": 109,
      "chip": "ym2612"
    },
    {
      "channel": 3,
      "note": 57,
      "start": 18.4767,
      "duration": 0.0078,
      "velocity": 73,
      "chip": "ym2612"
    },
    {
      "channel": 4,
      "note": 73,
      "start": 18.477,
      "duration": 0.0076,
      "velocity": 73,
      "chip": "ym2612"
    },
    {
      "channel": 0,
      "note": 40,
      "start": 18.4829,
      "duration": 0.0079,
      "velocity": 111,
      "chip": "ym2612"
    },
    {
      "channel": 2,
      "note": 107,
      "start": 18.4867,
      "duration": 0.0041,
      "velocity": 109,
      "chip": "ym2612"
    },
    {
      "channel": 0,
      "note": 40,
      "start": 18.4936,
      "duration": 0.0063,
      "velocity": 111,
      "chip": "ym2612"
    },
    {
      "channel": 1,
      "note": 107,
      "start": 18.4938,
      "duration": 0.0037,
      "velocity": 109,
      "chip": "ym2612"
    },
    {
      "channel": 2,
      "note": 102,
      "start": 18.4951,
      "duration": 0.0037,
      "velocity": 109,
      "chip": "ym2612"
    },
    {
      "channel": 1,
      "note": 102,
      "start": 18.5004,
      "duration": 0.0046,
      "velocity": 109,
      "chip": "ym2612"
    },
    {
      "channel": 3,
      "note": 57,
      "start": 18.5008,
      "duration": 0.0073,
      "velocity": 73,
      "chip": "ym2612"
    },
    {
      "channel": 4,
      "note": 73,
      "start": 18.5011,
      "duration": 0.0071,
      "velocity": 73,
      "chip": "ym2612"
    },
    {
      "channel": 0,
      "note": 40,
      "start": 18.508,
      "duration": 0.0073,
      "velocity": 111,
      "chip": "ym2612"
    },
    {
      "channel": 2,
      "note": 107,
      "start": 18.5117,
      "duration": 0.0037,
      "velocity": 109,
      "chip": "ym2612"
    },
    {
      "channel": 0,
      "note": 40,
      "start": 18.5174,
      "duration": 0.0076,
      "velocity": 111,
      "chip": "ym2612"
    },
    {
      "channel": 1,
      "note": 107,
      "start": 18.5176,
      "duration": 0.0036,
      "velocity": 109,
      "chip": "ym2612"
    },
    {
      "channel": 2,
      "note": 102,
      "start": 18.5201,
      "duration": 0.0037,
      "velocity": 109,
      "chip": "ym2612"
    },
    {
      "channel": 1,
      "note": 102,
      "start": 18.5255,
      "duration": 0.0045,
      "velocity": 109,
      "chip": "ym2612"
    },
    {
      "channel": 3,
      "note": 57,
      "start": 18.5259,
      "duration": 0.0076,
      "velocity": 73,
      "chip": "ym2612"
    },
    {
      "channel": 4,
      "note": 73,
      "start": 18.5263,
      "duration": 0.0073,
      "velocity": 73,
      "chip": "ym2612"
    },
    {
      "channel": 0,
      "note": 40,
      "start": 18.5321,
      "duration": 0.0074,
      "velocity": 111,
      "chip": "ym2612"
    },
    {
      "channel": 2,
      "note": 107,
      "start": 18.5358,
      "duration": 0.0037,
      "velocity": 109,
      "chip": "ym2612"
    },
    {
      "channel": 1,
      "note": 107,
      "start": 18.5423,
      "duration": 0.0044,
      "velocity": 109,
      "chip": "ym2612"
    },
    {
      "channel": 2,
      "note": 102,
      "start": 18.5437,
      "duration": 0.0043,
      "velocity": 109,
      "chip": "ym2612"
    },
    {
      "channel": 0,
      "note": 40,
      "start": 18.5506,
      "duration": 0.0239,
      "velocity": 111,
      "chip": "ym2612"
    },
    {
      "channel": 3,
      "note": 59,
      "start": 18.5515,
      "duration": 0.0083,
      "velocity": 73,
      "chip": "ym2612"
    },
    {
      "channel": 4,
      "note": 74,
      "start": 18.5521,
      "duration": 0.0078,
      "velocity": 73,
      "chip": "ym2612"
    },
    {
      "channel": 2,
      "note": 107,
      "start": 18.5626,
      "duration": 0.0034,
      "velocity": 109,
      "chip": "ym2612"
    },
    {
      "channel": 3,
      "note": 59,
      "start": 18.5749,
      "duration": 0.0485,
      "velocity": 73,
      "chip": "ym2612"
    },
    {
      "channel": 4,
      "note": 74,
      "start": 18.5752,
      "duration": 0.0483,
      "velocity": 73,
      "chip": "ym2612"
    },
    {
      "channel": 0,
      "note": 40,
      "start": 18.7406,
      "duration": 0.0092,
      "velocity": 111,
      "chip": "ym2612"
    },
    {
      "channel": 3,
      "note": 59,
      "start": 18.7501,
      "duration": 0.0079,
      "velocity": 73,
      "chip": "ym2612"
    },
    {
      "channel": 4,
      "note": 74,
      "start": 18.7505,
      "duration": 0.0076,
      "velocity": 73,
      "chip": "ym2612"
    },
    {
      "channel": 0,
      "note": 40,
      "start": 18.7564,
      "duration": 0.007,
      "velocity": 111,
      "chip": "ym2612"
    },
    {
      "channel": 0,
      "note": 40,
      "start": 18.7668,
      "duration": 0.0066,
      "velocity": 111,
      "chip": "ym2612"
    },
    {
      "channel": 3,
      "note": 59,
      "start": 18.774,
      "duration": 0.0079,
      "velocity": 73,
      "chip": "ym2612"
    },
    {
      "channel": 4,
      "note": 74,
      "start": 18.7743,
      "duration": 0.0077,
      "velocity": 73,
      "chip": "ym2612"
    },
    {
      "channel": 0,
      "note": 40,
      "start": 18.7806,
      "duration": 0.007,
      "velocity": 111,
      "chip": "ym2612"
    },
    {
      "channel": 0,
      "note": 40,
      "start": 18.7891,
      "duration": 0.0074,
      "velocity": 111,
      "chip": "ym2612"
    },
    {
      "channel": 3,
      "note": 59,
      "start": 18.797,
      "duration": 0.0493,
      "velocity": 73,
      "chip": "ym2612"
    },
    {
      "channel": 4,
      "note": 74,
      "start": 18.7973,
      "duration": 0.049,
      "velocity": 73,
      "chip": "ym2612"
    },
    {
      "channel": 0,
      "note": 40,
      "start": 18.846,
      "duration": 0.0997,
      "velocity": 111,
      "chip": "ym2612"
    },
    {
      "channel": 0,
      "note": 40,
      "start": 18.963,
      "duration": 0.0997,
      "velocity": 111,
      "chip": "ym2612"
    },
    {
      "channel": 3,
      "note": 59,
      "start": 19.0634,
      "duration": 0.0071,
      "velocity": 73,
      "chip": "ym2612"
    },
    {
      "channel": 4,
      "note": 74,
      "start": 19.0638,
      "duration": 0.0068,
      "velocity": 73,
      "chip": "ym2612"
    },
    {
      "channel": 0,
      "note": 40,
      "start": 19.0691,
      "duration": 0.0077,
      "velocity": 111,
      "chip": "ym2612"
    },
    {
      "channel": 0,
      "note": 40,
      "start": 19.0794,
      "duration": 0.0075,
      "velocity": 111,
      "chip": "ym2612"
    },
    {
      "channel": 3,
      "note": 59,
      "start": 19.0875,
      "duration": 0.0073,
      "velocity": 73,
      "chip": "ym2612"
    },
    {
      "channel": 4,
      "note": 74,
      "start": 19.0878,
      "duration": 0.0071,
      "velocity": 73,
      "chip": "ym2612"
    },
    {
      "channel": 0,
      "note": 40,
      "start": 19.0933,
      "duration": 0.0076,
      "velocity": 111,
      "chip": "ym2612"
    },
    {
      "channel": 0,
      "note": 40,
      "start": 19.1026,
      "duration": 0.0073,
      "velocity": 111,
      "chip": "ym2612"
    },
    {
      "channel": 3,
      "note": 59,
      "start": 19.1102,
      "duration": 0.0077,
      "velocity": 73,
      "chip": "ym2612"
    },
    {
      "channel": 4,
      "note": 74,
      "start": 19.1107,
      "duration": 0.0073,
      "velocity": 73,
      "chip": "ym2612"
    },
    {
      "channel": 0,
      "note": 40,
      "start": 19.1179,
      "duration": 0.0182,
      "velocity": 111,
      "chip": "ym2612"
    },
    {
      "channel": 0,
      "note": 38,
      "start": 19.1534,
      "duration": 0.0996,
      "velocity": 111,
      "chip": "ym2612"
    },
    {
      "channel": 3,
      "note": 59,
      "start": 19.2537,
      "duration": 0.0077,
      "velocity": 73,
      "chip": "ym2612"
    },
    {
      "channel": 4,
      "note": 74,
      "start": 19.254,
      "duration": 0.0074,
      "velocity": 73,
      "chip": "ym2612"
    },
    {
      "channel": 0,
      "note": 38,
      "start": 19.2595,
      "duration": 0.0071,
      "velocity": 111,
      "chip": "ym2612"
    },
    {
      "channel": 0,
      "note": 40,
      "start": 19.2691,
      "duration": 0.0071,
      "velocity": 111,
      "chip": "ym2612"
    },
    {
      "channel": 3,
      "note": 59,
      "start": 19.2766,
      "duration": 0.0639,
      "velocity": 73,
      "chip": "ym2612"
    },
    {
      "channel": 4,
      "note": 74,
      "start": 19.2769,
      "duration": 0.0636,
      "velocity": 73,
      "chip": "ym2612"
    },
    {
      "channel": 0,
      "note": 40,
      "start": 19.324,
      "duration": 0.0997,
      "velocity": 111,
      "chip": "ym2612"
    },
    {
      "channel": 0,
      "note": 40,
      "start": 19.441,
      "duration": 0.0074,
      "velocity": 111,
      "chip": "ym2612"
    },
    {
      "channel": 0,
      "note": 40,
      "start": 19.4487,
      "duration": 0.0105,
      "velocity": 111,
      "chip": "ym2612"
    },
    {
      "channel": 3,
      "note": 59,
      "start": 19.4494,
      "duration": 0.0085,
      "velocity": 73,
      "chip": "ym2612"
    },
    {
      "channel": 4,
      "note": 74,
      "start": 19.45,
      "duration": 0.008,
      "velocity": 73,
      "chip": "ym2612"
    },
    {
      "channel": 0,
      "note": 40,
      "start": 19.4658,
      "duration": 0.0056,
      "velocity": 111,
      "chip": "ym2612"
    },
    {
      "channel": 0,
      "note": 40,
      "start": 19.474,
      "duration": 0.012,
      "velocity": 111,
      "chip": "ym2612"
    },
    {
      "channel": 3,
      "note": 59,
      "start": 19.4744,
      "duration": 0.0103,
      "velocity": 73,
      "chip": "ym2612"
    },
    {
      "channel": 4,
      "note": 74,
      "start": 19.4748,
      "duration": 0.01,
      "velocity": 73,
      "chip": "ym2612"
    },
    {
      "channel": 0,
      "note": 40,
      "start": 19.491,
      "duration": 0.0027,
      "velocity": 111,
      "chip": "ym2612"
    },
    {
      "channel": 0,
      "note": 40,
      "start": 19.4938,
      "duration": 0.0068,
      "velocity": 111,
      "chip": "ym2612"
    },
    {
      "channel": 3,
      "note": 59,
      "start": 19.5009,
      "duration": 0.064,
      "velocity": 73,
      "chip": "ym2612"
    },
    {
      "channel": 4,
      "note": 74,
      "start": 19.5013,
      "duration": 0.0637,
      "velocity": 73,
      "chip": "ym2612"
    },
    {
      "channel": 0,
      "note": 40,
      "start": 19.5488,
      "duration": 0.0994,
      "velocity": 111,
      "chip": "ym2612"
    },
    {
      "channel": 0,
      "note": 40,
      "start": 19.6655,
      "duration": 0.0996,
      "velocity": 111,
      "chip": "ym2612"
    },
    {
      "channel": 3,
      "note": 59,
      "start": 19.7657,
      "duration": 0.0098,
      "velocity": 73,
      "chip": "ym2612"
    },
    {
      "channel": 4,
      "note": 74,
      "start": 19.7661,
      "duration": 0.0095,
      "velocity": 73,
      "chip": "ym2612"
    },
    {
      "channel": 0,
      "note": 40,
      "start": 19.7755,
      "duration": 0.0072,
      "velocity": 111,
      "chip": "ym2612"
    },
    {
      "channel": 0,
      "note": 40,
      "start": 19.7841,
      "duration": 0.0075,
      "velocity": 111,
      "chip": "ym2612"
    },
    {
      "channel": 3,
      "note": 59,
      "start": 19.7923,
      "duration": 0.0071,
      "velocity": 73,
      "chip": "ym2612"
    },
    {
      "channel": 4,
      "note": 74,
      "start": 19.7926,
      "duration": 0.0069,
      "velocity": 73,
      "chip": "ym2612"
    },
    {
      "channel": 0,
      "note": 40,
      "start": 19.7978,
      "duration": 0.0077,
      "velocity": 111,
      "chip": "ym2612"
    },
    {
      "channel": 0,
      "note": 40,
      "start": 19.8078,
      "duration": 0.0068,
      "velocity": 111,
      "chip": "ym2612"
    },
    {
      "channel": 3,
      "note": 59,
      "start": 19.8149,
      "duration": 0.0078,
      "velocity": 73,
      "chip": "ym2612"
    },
    {
      "channel": 4,
      "note": 74,
      "start": 19.8153,
      "duration": 0.0076,
      "velocity": 73,
      "chip": "ym2612"
    },
    {
      "channel": 0,
      "note": 40,
      "start": 19.8212,
      "duration": 0.0189,
      "velocity": 111,
      "chip": "ym2612"
    },
    {
      "channel": 0,
      "note": 40,
      "start": 19.9576,
      "duration": 0.0251,
      "velocity": 111,
      "chip": "ym2612"
    },
    {
      "channel": 1,
      "note": 98,
      "start": 19.9578,
      "duration": 0.0065,
      "velocity": 109,
      "chip": "ym2612"
    },
    {
      "channel": 3,
      "note": 57,
      "start": 19.9583,
      "duration": 0.0092,
      "velocity": 73,
      "chip": "ym2612"
    },
    {
      "channel": 4,
      "note": 73,
      "start": 19.9589,
      "duration": 0.0087,
      "velocity": 73,
      "chip": "ym2612"
    },
    {
      "channel": 2,
      "note": 98,
      "start": 19.9771,
      "duration": 0.0037,
      "velocity": 109,
      "chip": "ym2612"
    },
    {
      "channel": 1,
      "note": 90,
      "start": 19.9829,
      "duration": 0.0152,
      "velocity": 109,
      "chip": "ym2612"
    },
    {
      "channel": 3,
      "note": 57,
      "start": 19.9834,
      "duration": 0.0483,
      "velocity": 73,
      "chip": "ym2612"
    },
    {
      "channel": 4,
      "note": 73,
      "start": 19.9838,
      "duration": 0.048,
      "velocity": 73,
      "chip": "ym2612"
    },
    {
      "channel": 0,
      "note": 40,
      "start": 20.1488,
      "duration": 0.0078,
      "velocity": 111,
      "chip": "ym2612"
    },
    {
      "channel": 2,
      "note": 90,
      "start": 20.1504,
      "duration": 0.0041,
      "velocity": 109,
      "chip": "ym2612"
    },
    {
      "channel": 1,
      "note": 97,
      "start": 20.1571,
      "duration": 0.0047,
      "velocity": 109,
      "chip": "ym2612"
    },
    {
      "channel": 3,
      "note": 57,
      "start": 20.1574,
      "duration": 0.0076,
      "velocity": 73,
      "chip": "ym2612"
    },
    {
      "channel": 4,
      "note": 73,
      "start": 20.1578,
      "duration": 0.0072,
      "velocity": 73,
      "chip": "ym2612"
    },
    {
      "channel": 0,
      "note": 40,
      "start": 20.1636,
      "duration": 0.0074,
      "velocity": 111,
      "chip": "ym2612"
    },
    {
      "channel": 0,
      "note": 40,
      "start": 20.1727,
      "duration": 0.0077,
      "velocity": 111,
      "chip": "ym2612"
    },
    {
      "channel": 2,
      "note": 97,
      "start": 20.1753,
      "duration": 0.0039,
      "velocity": 109,
      "chip": "ym2612"
    },
    {
      "channel": 1,
      "note": 86,
      "start": 20.1809,
      "duration": 0.0051,
      "velocity": 109,
      "chip": "ym2612"
    },
    {
      "channel": 3,
      "note": 57,
      "start": 20.1812,
      "duration": 0.0076,
      "velocity": 73,
      "chip": "ym2612"
    },
    {
      "channel": 4,
      "note": 73,
      "start": 20.1816,
      "duration": 0.0073,
      "velocity": 73,
      "chip": "ym2612"
    },
    {
      "channel": 0,
      "note": 40,
      "start": 20.1888,
      "duration": 0.0061,
      "velocity": 111,
      "chip": "ym2612"
    },
    {
      "channel": 0,
      "note": 40,
      "start": 20.1978,
      "duration": 0.0076,
      "velocity": 111,
      "chip": "ym2612"
    },
    {
      "channel": 1,
      "note": 95,
      "start": 20.198,
      "duration": 0.0039,
      "velocity": 109,
      "chip": "ym2612"
    },
    {
      "channel": 2,
      "note": 86,
      "start": 20.1993,
      "duration": 0.004,
      "velocity": 109,
      "chip": "ym2612"
    },
    {
      "channel": 3,
      "note": 57,
      "start": 20.2057,
      "duration": 0.0486,
      "velocity": 73,
      "chip": "ym2612"
    },
    {
      "channel": 4,
      "note": 73,
      "start": 20.206,
      "duration": 0.0483,
      "velocity": 73,
      "chip": "ym2612"
    },
    {
      "channel": 0,
      "note": 40,
      "start": 20.2378,
      "duration": 0.0997,
      "velocity": 111,
      "chip": "ym2612"
    },
    {
      "channel": 2,
      "note": 95,
      "start": 20.2878,
      "duration": 0.0499,
      "velocity": 109,
      "chip": "ym2612"
    },
    {
      "channel": 0,
      "note": 40,
      "start": 20.3715,
      "duration": 0.083,
      "velocity": 111,
      "chip": "ym2612"
    },
    {
      "channel": 1,
      "note": 81,
      "start": 20.4549,
      "duration": 0.0044,
      "velocity": 109,
      "chip": "ym2612"
    },
    {
      "channel": 3,
      "note": 57,
      "start": 20.4554,
      "duration": 0.0073,
      "velocity": 73,
      "chip": "ym2612"
    },
    {
      "channel": 4,
      "note": 73,
      "start": 20.4557,
      "duration": 0.0071,
      "velocity": 73,
      "chip": "ym2612"
    },
    {
      "channel": 0,
      "note": 40,
      "start": 20.4626,
      "duration": 0.0076,
      "velocity": 111,
      "chip": "ym2612"
    },
    {
      "channel": 1,
      "note": 83,
      "start": 20.4643,
      "duration": 0.0034,
      "velocity": 109,
      "chip": "ym2612"
    },
    {
      "channel": 0,
      "note": 40,
      "start": 20.4719,
      "duration": 0.0077,
      "velocity": 111,
      "chip": "ym2612"
    },
    {
      "channel": 1,
      "note": 90,
      "start": 20.4721,
      "duration": 0.0038,
      "velocity": 109,
      "chip": "ym2612"
    },
    {
      "channel": 2,
      "note": 81,
      "start": 20.4746,
      "duration": 0.0039,
      "velocity": 109,
      "chip": "ym2612"
    },
    {
      "channel": 1,
      "note": 93,
      "start": 20.48,
      "duration": 0.0053,
      "velocity": 109,
      "chip": "ym2612"
    },
    {
      "channel": 3,
      "note": 57,
      "start": 20.4803,
      "duration": 0.0085,
      "velocity": 73,
      "chip": "ym2612"
    },
    {
      "channel": 4,
      "note": 73,
      "start": 20.4807,
      "duration": 0.0082,
      "velocity": 73,
      "chip": "ym2612"
    },
    {
      "channel": 2,
      "note": 83,
      "start": 20.4837,
      "duration": 0.005,
      "velocity": 109,
      "chip": "ym2612"
    },
    {
      "channel": 0,
      "note": 40,
      "start": 20.4887,
      "duration": 0.0067,
      "velocity": 111,
      "chip": "ym2612"
    },
    {
      "channel": 1,
      "note": 95,
      "start": 20.4903,
      "duration": 0.0039,
      "velocity": 109,
      "chip": "ym2612"
    },
    {
      "channel": 2,
      "note": 90,
      "start": 20.4932,
      "duration": 0.0035,
      "velocity": 109,
      "chip": "ym2612"
    },
    {
      "channel": 0,
      "note": 40,
      "start": 20.4981,
      "duration": 0.0078,
      "velocity": 111,
      "chip": "ym2612"
    },
    {
      "channel": 1,
      "note": 102,
      "start": 20.4983,
      "duration": 0.0038,
      "velocity": 109,
      "chip": "ym2612"
    },
    {
      "channel": 2,
      "note": 93,
      "start": 20.4995,
      "duration": 0.0038,
      "velocity": 109,
      "chip": "ym2612"
    },
    {
      "channel": 1,
      "note": 107,
      "start": 20.5061,
      "duration": 0.0051,
      "velocity": 109,
      "chip": "ym2612"
    },
    {
      "channel": 3,
      "note": 57,
      "start": 20.5066,
      "duration": 0.0077,
      "velocity": 73,
      "chip": "ym2612"
    },
    {
      "channel": 4,
      "note": 73,
      "start": 20.5069,
      "duration": 0.0075,
      "velocity": 73,
      "chip": "ym2612"
    },
    {
      "channel": 2,
      "note": 95,
      "start": 20.5083,
      "duration": 0.0048,
      "velocity": 109,
      "chip": "ym2612"
    },
    {
      "channel": 0,
      "note": 40,
      "start": 20.513,
      "duration": 0.0079,
      "velocity": 111,
      "chip": "ym2612"
    },
    {
      "channel": 1,
      "note": 102,
      "start": 20.5156,
      "duration": 0.0037,
      "velocity": 109,
      "chip": "ym2612"
    },
    {
      "channel": 2,
      "note": 102,
      "start": 20.5169,
      "duration": 0.0041,
      "velocity": 109,
      "chip": "ym2612"
    },
    {
      "channel": 0,
      "note": 38,
      "start": 20.5487,
      "duration": 0.0831,
      "velocity": 111,
      "chip": "ym2612"
    },
    {
      "channel": 1,
      "note": 107,
      "start": 20.5491,
      "duration": 0.0491,
      "velocity": 109,
      "chip": "ym2612"
    },
    {
      "channel": 2,
      "note": 107,
      "start": 20.5651,
      "duration": 0.0498,
      "velocity": 109,
      "chip": "ym2612"
    },
    {
      "channel": 0,
      "note": 40,
      "start": 20.6321,
      "duration": 0.0098,
      "velocity": 111,
      "chip": "ym2612"
    },
    {
      "channel": 1,
      "note": 102,
      "start": 20.6323,
      "duration": 0.0051,
      "velocity": 109,
      "chip": "ym2612"
    },
    {
      "channel": 3,
      "note": 57,
      "start": 20.6326,
      "duration": 0.0081,
      "velocity": 73,
      "chip": "ym2612"
    },
    {
      "channel": 4,
      "note": 73,
      "start": 20.633,
      "duration": 0.0078,
      "velocity": 73,
      "chip": "ym2612"
    },
    {
      "channel": 2,
      "note": 102,
      "start": 20.6357,
      "duration": 0.005,
      "velocity": 109,
      "chip": "ym2612"
    },
    {
      "channel": 2,
      "note": 107,
      "start": 20.6446,
      "duration": 0.0043,
      "velocity": 109,
      "chip": "ym2612"
    },
    {
      "channel": 0,
      "note": 40,
      "start": 20.6488,
      "duration": 0.008,
      "velocity": 111,
      "chip": "ym2612"
    },
    {
      "channel": 1,
      "note": 107,
      "start": 20.6502,
      "duration": 0.0041,
      "velocity": 109,
      "chip": "ym2612"
    },
    {
      "channel": 2,
      "note": 102,
      "start": 20.6531,
      "duration": 0.0038,
      "velocity": 109,
      "chip": "ym2612"
    },
    {
      "channel": 0,
      "note": 40,
      "start": 20.6584,
      "duration": 0.0641,
      "velocity": 111,
      "chip": "ym2612"
    },
    {
      "channel": 1,
      "note": 102,
      "start": 20.6588,
      "duration": 0.0137,
      "velocity": 109,
      "chip": "ym2612"
    },
    {
      "channel": 3,
      "note": 57,
      "start": 20.6591,
      "duration": 0.0471,
      "velocity": 73,
      "chip": "ym2612"
    },
    {
      "channel": 4,
      "note": 73,
      "start": 20.6595,
      "duration": 0.0468,
      "velocity": 73,
      "chip": "ym2612"
    },
    {
      "channel": 2,
      "note": 107,
      "start": 20.7396,
      "duration": 0.0502,
      "velocity": 109,
      "chip": "ym2612"
    },
    {
      "channel": 0,
      "note": 40,
      "start": 20.7897,
      "duration": 0.0332,
      "velocity": 111,
      "chip": "ym2612"
    },
    {
      "channel": 0,
      "note": 40,
      "start": 20.8232,
      "duration": 0.0088,
      "velocity": 111,
      "chip": "ym2612"
    },
    {
      "channel": 1,
      "note": 107,
      "start": 20.8234,
      "duration": 0.0051,
      "velocity": 109,
      "chip": "ym2612"
    },
    {
      "channel": 2,
      "note": 102,
      "start": 20.8254,
      "duration": 0.0043,
      "velocity": 109,
      "chip": "ym2612"
    },
    {
      "channel": 1,
      "note": 102,
      "start": 20.8326,
      "duration": 0.0044,
      "velocity": 109,
      "chip": "ym2612"
    },
    {
      "channel": 3,
      "note": 57,
      "start": 20.8329,
      "duration": 0.0075,
      "velocity": 73,
      "chip": "ym2612"
    },
    {
      "channel": 4,
      "note": 73,
      "start": 20.8332,
      "duration": 0.0072,
      "velocity": 73,
      "chip": "ym2612"
    },
    {
      "channel": 0,
      "note": 40,
      "start": 20.8388,
      "duration": 0.008,
      "velocity": 111,
      "chip": "ym2612"
    },
    {
      "channel": 2,
      "note": 107,
      "start": 20.8432,
      "duration": 0.0037,
      "velocity": 109,
      "chip": "ym2612"
    },
    {
      "channel": 0,
      "note": 40,
      "start": 20.8495,
      "duration": 0.007,
      "velocity": 111,
      "chip": "ym2612"
    },
    {
      "channel": 1,
      "note": 107,
      "start": 20.8498,
      "duration": 0.0039,
      "velocity": 109,
      "chip": "ym2612"
    },
    {
      "channel": 2,
      "note": 102,
      "start": 20.8512,
      "duration": 0.0039,
      "velocity": 109,
      "chip": "ym2612"
    },
    {
      "channel": 1,
      "note": 102,
      "start": 20.8569,
      "duration": 0.0067,
      "velocity": 109,
      "chip": "ym2612"
    },
    {
      "channel": 3,
      "note": 57,
      "start": 20.8573,
      "duration": 0.0095,
      "velocity": 73,
      "chip": "ym2612"
    },
    {
      "channel": 4,
      "note": 73,
      "start": 20.8577,
      "duration": 0.0092,
      "velocity": 73,
      "chip": "ym2612"
    },
    {
      "channel": 0,
      "note": 40,
      "start": 20.8668,
      "duration": 0.0077,
      "velocity": 111,
      "chip": "ym2612"
    },
    {
      "channel": 2,
      "note": 107,
      "start": 20.8705,
      "duration": 0.0041,
      "velocity": 109,
      "chip": "ym2612"
    },
    {
      "channel": 0,
      "note": 40,
      "start": 20.8762,
      "duration": 0.0076,
      "velocity": 111,
      "chip": "ym2612"
    },
    {
      "channel": 1,
      "note": 107,
      "start": 20.8764,
      "duration": 0.0037,
      "velocity": 109,
      "chip": "ym2612"
    },
    {
      "channel": 2,
      "note": 102,
      "start": 20.879,
      "duration": 0.0036,
      "velocity": 109,
      "chip": "ym2612"
    },
    {
      "channel": 1,
      "note": 102,
      "start": 20.8842,
      "duration": 0.0048,
      "velocity": 109,
      "chip": "ym2612"
    },
    {
      "channel": 3,
      "note": 57,
      "start": 20.8846,
      "duration": 0.0074,
      "velocity": 73,
      "chip": "ym2612"
    },
    {
      "channel": 4,
      "note": 73,
      "start": 20.8849,
      "duration": 0.0072,
      "velocity": 73,
      "chip": "ym2612"
    },
    {
      "channel": 0,
      "note": 40,
      "start": 20.8906,
      "duration": 0.0075,
      "velocity": 111,
      "chip": "ym2612"
    },
    {
      "channel": 2,
      "note": 107,
      "start": 20.8945,
      "duration": 0.0037,
      "velocity": 109,
      "chip": "ym2612"
    },
    {
      "channel": 0,
      "note": 40,
      "start": 20.9013,
      "duration": 0.0079,
      "velocity": 111,
      "chip": "ym2612"
    },
    {
      "channel": 1,
      "note": 107,
      "start": 20.9015,
      "duration": 0.0041,
      "velocity": 109,
      "chip": "ym2612"
    },
    {
      "channel": 2,
      "note": 102,
      "start": 20.903,
      "duration": 0.0037,
      "velocity": 109,
      "chip": "ym2612"
    },
    {
      "channel": 1,
      "note": 102,
      "start": 20.9096,
      "duration": 0.0048,
      "velocity": 109,
      "chip": "ym2612"
    },
    {
      "channel": 3,
      "note": 57,
      "start": 20.9099,
      "duration": 0.0078,
      "velocity": 73,
      "chip": "ym2612"
    },
    {
      "channel": 4,
      "note": 73,
      "start": 20.9102,
      "duration": 0.0075,
      "velocity": 73,
      "chip": "ym2612"
    },
    {
      "channel": 0,
      "note": 40,
      "start": 20.9163,
      "duration": 0.0077,
      "velocity": 111,
      "chip": "ym2612"
    },
    {
      "channel": 2,
      "note": 107,
      "start": 20.9203,
      "duration": 0.0038,
      "velocity": 109,
      "chip": "ym2612"
    },
    {
      "channel": 0,
      "note": 40,
      "start": 20.9269,
      "duration": 0.0073,
      "velocity": 111,
      "chip": "ym2612"
    },
    {
      "channel": 1,
      "note": 107,
      "start": 20.9271,
      "duration": 0.0046,
      "velocity": 109,
      "chip": "ym2612"
    },
    {
      "channel": 2,
      "note": 102,
      "start": 20.9287,
      "duration": 0.0044,
      "velocity": 109,
      "chip": "ym2612"
    },
    {
      "channel": 1,
      "note": 102,
      "start": 20.9345,
      "duration": 0.0047,
      "velocity": 109,
      "chip": "ym2612"
    },
    {
      "channel": 3,
      "note": 57,
      "start": 20.9349,
      "duration": 0.0073,
      "velocity": 73,
      "chip": "ym2612"
    },
    {
      "channel": 4,
      "note": 73,
      "start": 20.9352,
      "duration": 0.007,
      "velocity": 73,
      "chip": "ym2612"
    },
    {
      "channel": 0,
      "note": 40,
      "start": 20.942,
      "duration": 0.0076,
      "velocity": 111,
      "chip": "ym2612"
    },
    {
      "channel": 2,
      "note": 107,
      "start": 20.9459,
      "duration": 0.0038,
      "velocity": 109,
      "chip": "ym2612"
    },
    {
      "channel": 0,
      "note": 40,
      "start": 20.9515,
      "duration": 0.0084,
      "velocity": 111,
      "chip": "ym2612"
    },
    {
      "channel": 1,
      "note": 107,
      "start": 20.9517,
      "duration": 0.0041,
      "velocity": 109,
      "chip": "ym2612"
    },
    {
      "channel": 2,
      "note": 102,
      "start": 20.9546,
      "duration": 0.0041,
      "velocity": 109,
      "chip": "ym2612"
    },
    {
      "channel": 1,
      "note": 102,
      "start": 20.9605,
      "duration": 0.0066,
      "velocity": 109,
      "chip": "ym2612"
    },
    {
      "channel": 3,
      "note": 57,
      "start": 20.9609,
      "duration": 0.0092,
      "velocity": 73,
      "chip": "ym2612"
    },
    {
      "channel": 4,
      "note": 73,
      "start": 20.9612,
      "duration": 0.0089,
      "velocity": 73,
      "chip": "ym2612"
    },
    {
      "channel": 0,
      "note": 40,
      "start": 20.9687,
      "duration": 0.0083,
      "velocity": 111,
      "chip": "ym2612"
    },
    {
      "channel": 2,
      "note": 107,
      "start": 20.9728,
      "duration": 0.0043,
      "velocity": 109,
      "chip": "ym2612"
    },
    {
      "channel": 1,
      "note": 107,
      "start": 20.9802,
      "duration": 0.0041,
      "velocity": 109,
      "chip": "ym2612"
    },
    {
      "channel": 2,
      "note": 102,
      "start": 20.9816,
      "duration": 0.0038,
      "velocity": 109,
      "chip": "ym2612"
    },
    {
      "channel": 0,
      "note": 40,
      "start": 20.988,
      "duration": 54.7263,
      "velocity": 111,
      "chip": "ym2612"
    },
    {
      "channel": 3,
      "note": 59,
      "start": 20.9921,
      "duration": 54.7222,
      "velocity": 73,
      "chip": "ym2612"
    },
    {
      "channel": 4,
      "note": 74,
      "start": 20.9935,
      "duration": 54.7207,
      "velocity": 73,
      "chip": "ym2612"
    }
  ]
}