{
  "track_name": "17 - Lowest Level",
  "duration_sec": 73.599,
  "sample_rate": 44100,
  "note_count": 465,
  "unique_pitches": 22,
  "pitch_range": 46,
  "avg_note_duration": 2.1009,
  "reconstruction_stats": {
    "notes_reconstructed": 465,
    "keyon_events": 465,
    "keyoff_events": 462,
    "orphan_keyons": 3,
    "unique_pitches": 22,
    "pitch_range": 46,
    "avg_duration_sec": 2.1009
  },
  "metadata": {
    "source": "T\\The Immortal\\17 - Lowest Level.vgz"
  },
  "notes": [
    {
      "channel": 0,
      "note": 55,
      "start": 0.0,
      "duration": 0.0,
      "velocity": 93,
      "chip": "ym2612"
    },
    {
      "channel": 0,
      "note": 57,
      "start": 0.0,
      "duration": 0.0,
      "velocity": 88,
      "chip": "ym2612"
    },
    {
      "channel": 0,
      "note": 60,
      "start": 0.0,
      "duration": 0.0,
      "velocity": 88,
      "chip": "ym2612"
    },
    {
      "channel": 0,
      "note": 63,
      "start": 0.0,
      "duration": 0.0,
      "velocity": 88,
      "chip": "ym2612"
    },
    {
      "channel": 0,
      "note": 61,
      "start": 0.0,
      "duration": 0.0,
      "velocity": 88,
      "chip": "ym2612"
    },
    {
      "channel": 0,
      "note": 58,
      "start": 0.0,
      "duration": 0.0,
      "velocity": 88,
      "chip": "ym2612"
    },
    {
      "channel": 0,
      "note": 60,
      "start": 0.0,
      "duration": 0.0,
      "velocity": 88,
      "chip": "ym2612"
    },
    {
      "channel": 0,
      "note": 58,
      "start": 0.0,
      "duration": 0.0,
      "velocity": 88,
      "chip": "ym2612"
    },
    {
      "channel": 0,
      "note": 60,
      "start": 0.0,
      "duration": 0.0,
      "velocity": 88,
      "chip": "ym2612"
    },
    {
      "channel": 0,
      "note": 63,
      "start": 0.0,
      "duration": 0.0,
      "velocity": 88,
      "chip": "ym2612"
    },
    {
      "channel": 0,
      "note": 61,
      "start": 0.0,
      "duration": 0.0,
      "velocity": 88,
      "chip": "ym2612"
    },
    {
      "channel": 0,
      "note": 65,
      "start": 0.0,
      "duration": 0.0,
      "velocity": 88,
      "chip": "ym2612"
    },
    {
      "channel": 0,
      "note": 67,
      "start": 0.0,
      "duration": 0.0,
      "velocity": 88,
      "chip": "ym2612"
    },
    {
      "channel": 0,
      "note": 61,
      "start": 0.0,
      "duration": 0.0,
      "velocity": 88,
      "chip": "ym2612"
    },
    {
      "channel": 0,
      "note": 60,
      "start": 0.0,
      "duration": 0.0,
      "velocity": 88,
      "chip": "ym2612"
    },
    {
      "channel": 0,
      "note": 63,
      "start": 0.0,
      "duration": 0.0,
      "velocity": 88,
      "chip": "ym2612"
    },
    {
      "channel": 0,
      "note": 61,
      "start": 0.0,
      "duration": 0.0,
      "velocity": 88,
      "chip": "ym2612"
    },
    {
      "channel": 0,
      "note": 58,
      "start": 0.0,
      "duration": 0.0,
      "velocity": 88,
      "chip": "ym2612"
    },
    {
      "channel": 0,
      "note": 60,
      "start": 0.0,
      "duration": 0.0,
      "velocity": 88,
      "chip": "ym2612"
    },
    {
      "channel": 0,
      "note": 58,
      "start": 0.0,
      "duration": 0.0,
      "velocity": 88,
      "chip": "ym2612"
    },
    {
      "channel": 0,
      "note": 60,
      "start": 0.0,
      "duration": 0.0,
      "velocity": 88,
      "chip": "ym2612"
    },
    {
      "channel": 0,
      "note": 63,
      "start": 0.0,
      "duration": 0.0,
      "velocity": 88,
      "chip": "ym2612"
    },
    {
      "channel": 0,
      "note": 61,
      "start": 0.0,
      "duration": 0.0,
      "velocity": 88,
      "chip": "ym2612"
    },
    {
      "channel": 0,
      "note": 65,
      "start": 0.0,
      "duration": 0.0,
      "velocity": 88,
      "chip": "ym2612"
    },
    {
      "channel": 0,
      "note": 67,
      "start": 0.0,
      "duration": 0.0,
      "velocity": 88,
      "chip": "ym2612"
    },
    {
      "channel": 0,
      "note": 61,
      "start": 0.0,
      "duration": 0.0,
      "velocity": 88,
      "chip": "ym2612"
    },
    {
      "channel": 0,
      "note": 60,
      "start": 0.0,
      "duration": 0.0,
      "velocity": 88,
      "chip": "ym2612"
    },
    {
      "channel": 0,
      "note": 63,
      "start": 0.0,
      "duration": 0.0,
      "velocity": 88,
      "chip": "ym2612"
    },
    {
      "channel": 0,
      "note": 61,
      "start": 0.0,
      "duration": 0.0,
      "velocity": 88,
      "chip": "ym2612"
    },
    {
      "channel": 0,
      "note": 58,
      "start": 0.0,
      "duration": 0.0,
      "velocity": 88,
      "chip": "ym2612"
    },
    {
      "channel": 0,
      "note": 60,
      "start": 0.0,
      "duration": 0.0,
      "velocity": 88,
      "chip": "ym2612"
    },
    {
      "channel": 0,
      "note": 58,
      "start": 0.0,
      "duration": 0.0,
      "velocity": 88,
      "chip": "ym2612"
    },
    {
      "channel": 0,
      "note": 60,
      "start": 0.0,
      "duration": 0.0,
      "velocity": 88,
      "chip": "ym2612"
    },
    {
      "channel": 0,
      "note": 63,
      "start": 0.0,
      "duration": 0.0,
      "velocity": 88,
      "chip": "ym2612"
    },
    {
      "channel": 0,
      "note": 61,
      "start": 0.0,
      "duration": 0.0,
      "velocity": 88,
      "chip": "ym2612"
    },
    {
      "channel": 0,
      "note": 65,
      "start": 0.0,
      "duration": 0.0,
      "velocity": 88,
      "chip": "ym2612"
    },
    {
      "channel": 0,
      "note": 67,
      "start": 0.0,
      "duration": 0.0,
      "velocity": 88,
      "chip": "ym2612"
    },
    {
      "channel": 0,
      "note": 61,
      "start": 0.0,
      "duration": 0.0,
      "velocity": 88,
      "chip": "ym2612"
    },
    {
      "channel": 0,
      "note": 60,
      "start": 0.0,
      "duration": 0.0,
      "velocity": 88,
      "chip": "ym2612"
    },
    {
      "channel": 0,
      "note": 63,
      "start": 0.0,
      "duration": 0.0,
      "velocity": 88,
      "chip": "ym2612"
    },
    {
      "channel": 0,
      "note": 61,
      "start": 0.0,
      "duration": 0.0,
      "velocity": 88,
      "chip": "ym2612"
    },
    {
      "channel": 0,
      "note": 58,
      "start": 0.0,
      "duration": 0.0,
      "velocity": 88,
      "chip": "ym2612"
    },
    {
      "channel": 0,
      "note": 60,
      "start": 0.0,
      "duration": 0.0,
      "velocity": 88,
      "chip": "ym2612"
    },
    {
      "channel": 0,
      "note": 58,
      "start": 0.0,
      "duration": 0.0,
      "velocity": 88,
      "chip": "ym2612"
    },
    {
      "channel": 0,
      "note": 60,
      "start": 0.0,
      "duration": 0.0,
      "velocity": 88,
      "chip": "ym2612"
    },
    {
      "channel": 0,
      "note": 63,
      "start": 0.0,
      "duration": 0.0,
      "velocity": 88,
      "chip": "ym2612"
    },
    {
      "channel": 0,
      "note": 61,
      "start": 0.0,
      "duration": 0.0,
      "velocity": 88,
      "chip": "ym2612"
    },
    {
      "channel": 0,
      "note": 65,
      "start": 0.0,
      "duration": 0.0,
      "velocity": 88,
      "chip": "ym2612"
    },
    {
      "channel": 0,
      "note": 67,
      "start": 0.0,
      "duration": 0.0,
      "velocity": 88,
      "chip": "ym2612"
    },
    {
      "channel": 0,
      "note": 61,
      "start": 0.0,
      "duration": 0.0,
      "velocity": 88,
      "chip": "ym2612"
    },
    {
      "channel": 0,
      "note": 60,
      "start": 0.0,
      "duration": 0.0,
      "velocity": 88,
      "chip": "ym2612"
    },
    {
      "channel": 0,
      "note": 63,
      "start": 0.0,
      "duration": 0.0,
      "velocity": 88,
      "chip": "ym2612"
    },
    {
      "channel": 0,
      "note": 61,
      "start": 0.0,
      "duration": 0.0,
      "velocity": 88,
      "chip": "ym2612"
    },
    {
      "channel": 0,
      "note": 58,
      "start": 0.0,
      "duration": 0.0,
      "velocity": 88,
      "chip": "ym2612"
    },
    {
      "channel": 0,
      "note": 60,
      "start": 0.0,
      "duration": 0.0,
      "velocity": 88,
      "chip": "ym2612"
    },
    {
      "channel": 0,
      "note": 58,
      "start": 0.0,
      "duration": 0.0,
      "velocity": 88,
      "chip": "ym2612"
    },
    {
      "channel": 0,
      "note": 60,
      "start": 0.0,
      "duration": 0.0,
      "velocity": 88,
      "chip": "ym2612"
    },
    {
      "channel": 0,
      "note": 63,
      "start": 0.0,
      "duration": 0.0,
      "velocity": 88,
      "chip": "ym2612"
    },
    {
      "channel": 0,
      "note": 61,
      "start": 0.0,
      "duration": 0.0,
      "velocity": 88,
      "chip": "ym2612"
    },
    {
      "channel": 0,
      "note": 65,
      "start": 0.0,
      "duration": 0.0,
      "velocity": 88,
      "chip": "ym2612"
    },
    {
      "channel": 0,
      "note": 67,
      "start": 0.0,
      "duration": 0.7488,
      "velocity": 88,
      "chip": "ym2612"
    },
    {
      "channel": 1,
      "note": 53,
      "start": 0.0,
      "duration": 0.0,
      "velocity": 75,
      "chip": "ym2612"
    },
    {
      "channel": 1,
      "note": 60,
      "start": 0.0,
      "duration": 0.0,
      "velocity": 75,
      "chip": "ym2612"
    },
    {
      "channel": 1,
      "note": 60,
      "start": 0.0,
      "duration": 0.0,
      "velocity": 75,
      "chip": "ym2612"
    },
    {
      "channel": 1,
      "note": 60,
      "start": 0.0,
      "duration": 0.0,
      "velocity": 75,
      "chip": "ym2612"
    },
    {
      "channel": 1,
      "note": 60,
      "start": 0.0,
      "duration": 0.0,
      "velocity": 75,
      "chip": "ym2612"
    },
    {
      "channel": 1,
      "note": 60,
      "start": 0.0,
      "duration": 0.0,
      "velocity": 75,
      "chip": "ym2612"
    },
    {
      "channel": 1,
      "note": 60,
      "start": 0.0,
      "duration": 0.0,
      "velocity": 75,
      "chip": "ym2612"
    },
    {
      "channel": 1,
      "note": 60,
      "start": 0.0,
      "duration": 0.0,
      "velocity": 75,
      "chip": "ym2612"
    },
    {
      "channel": 1,
      "note": 60,
      "start": 0.0,
      "duration": 0.0,
      "velocity": 75,
      "chip": "ym2612"
    },
    {
      "channel": 1,
      "note": 60,
      "start": 0.0,
      "duration": 0.0,
      "velocity": 75,
      "chip": "ym2612"
    },
    {
      "channel": 1,
      "note": 60,
      "start": 0.0,
      "duration": 0.0,
      "velocity": 75,
      "chip": "ym2612"
    },
    {
      "channel": 1,
      "note": 60,
      "start": 0.0,
      "duration": 0.0,
      "velocity": 75,
      "chip": "ym2612"
    },
    {
      "channel": 1,
      "note": 60,
      "start": 0.0,
      "duration": 0.0,
      "velocity": 75,
      "chip": "ym2612"
    },
    {
      "channel": 1,
      "note": 60,
      "start": 0.0,
      "duration": 0.0,
      "velocity": 75,
      "chip": "ym2612"
    },
    {
      "channel": 1,
      "note": 60,
      "start": 0.0,
      "duration": 0.0,
      "velocity": 75,
      "chip": "ym2612"
    },
    {
      "channel": 1,
      "note": 60,
      "start": 0.0,
      "duration": 0.0,
      "velocity": 75,
      "chip": "ym2612"
    },
    {
      "channel": 1,
      "note": 60,
      "start": 0.0,
      "duration": 0.0,
      "velocity": 75,
      "chip": "ym2612"
    },
    {
      "channel": 1,
      "note": 60,
      "start": 0.0,
      "duration": 0.0,
      "velocity": 75,
      "chip": "ym2612"
    },
    {
      "channel": 1,
      "note": 60,
      "start": 0.0,
      "duration": 0.0,
      "velocity": 75,
      "chip": "ym2612"
    },
    {
      "channel": 1,
      "note": 60,
      "start": 0.0,
      "duration": 0.0,
      "velocity": 75,
      "chip": "ym2612"
    },
    {
      "channel": 2,
      "note": 60,
      "start": 0.0,
      "duration": 0.0,
      "velocity": 88,
      "chip": "ym2612"
    },
    {
      "channel": 2,
      "note": 48,
      "start": 0.0,
      "duration": 0.0,
      "velocity": 88,
      "chip": "ym2612"
    },
    {
      "channel": 2,
      "note": 51,
      "start": 0.0,
      "duration": 0.0,
      "velocity": 88,
      "chip": "ym2612"
    },
    {
      "channel": 2,
      "note": 49,
      "start": 0.0,
      "duration": 0.0,
      "velocity": 88,
      "chip": "ym2612"
    },
    {
      "channel": 2,
      "note": 46,
      "start": 0.0,
      "duration": 0.0,
      "velocity": 88,
      "chip": "ym2612"
    },
    {
      "channel": 2,
      "note": 48,
      "start": 0.0,
      "duration": 0.0,
      "velocity": 88,
      "chip": "ym2612"
    },
    {
      "channel": 2,
      "note": 46,
      "start": 0.0,
      "duration": 0.0,
      "velocity": 88,
      "chip": "ym2612"
    },
    {
      "channel": 2,
      "note": 48,
      "start": 0.0,
      "duration": 0.0,
      "velocity": 88,
      "chip": "ym2612"
    },
    {
      "channel": 2,
      "note": 51,
      "start": 0.0,
      "duration": 0.0,
      "velocity": 88,
      "chip": "ym2612"
    },
    {
      "channel": 2,
      "note": 49,
      "start": 0.0,
      "duration": 0.0,
      "velocity": 88,
      "chip": "ym2612"
    },
    {
      "channel": 2,
      "note": 53,
      "start": 0.0,
      "duration": 0.0,
      "velocity": 88,
      "chip": "ym2612"
    },
    {
      "channel": 2,
      "note": 55,
      "start": 0.0,
      "duration": 0.0,
      "velocity": 88,
      "chip": "ym2612"
    },
    {
      "channel": 2,
      "note": 49,
      "start": 0.0,
      "duration": 0.0,
      "velocity": 88,
      "chip": "ym2612"
    },
    {
      "channel": 2,
      "note": 48,
      "start": 0.0,
      "duration": 0.0,
      "velocity": 88,
      "chip": "ym2612"
    },
    {
      "channel": 2,
      "note": 51,
      "start": 0.0,
      "duration": 0.0,
      "velocity": 88,
      "chip": "ym2612"
    },
    {
      "channel": 2,
      "note": 49,
      "start": 0.0,
      "duration": 0.0,
      "velocity": 88,
      "chip": "ym2612"
    },
    {
      "channel": 2,
      "note": 46,
      "start": 0.0,
      "duration": 0.0,
      "velocity": 88,
      "chip": "ym2612"
    },
    {
      "channel": 2,
      "note": 48,
      "start": 0.0,
      "duration": 0.0,
      "velocity": 88,
      "chip": "ym2612"
    },
    {
      "channel": 2,
      "note": 46,
      "start": 0.0,
      "duration": 0.0,
      "velocity": 88,
      "chip": "ym2612"
    },
    {
      "channel": 2,
      "note": 48,
      "start": 0.0,
      "duration": 0.0,
      "velocity": 88,
      "chip": "ym2612"
    },
    {
      "channel": 2,
      "note": 51,
      "start": 0.0,
      "duration": 0.0,
      "velocity": 88,
      "chip": "ym2612"
    },
    {
      "channel": 2,
      "note": 49,
      "start": 0.0,
      "duration": 0.0,
      "velocity": 88,
      "chip": "ym2612"
    },
    {
      "channel": 2,
      "note": 53,
      "start": 0.0,
      "duration": 0.0,
      "velocity": 88,
      "chip": "ym2612"
    },
    {
      "channel": 2,
      "note": 55,
      "start": 0.0,
      "duration": 0.0,
      "velocity": 88,
      "chip": "ym2612"
    },
    {
      "channel": 2,
      "note": 49,
      "start": 0.0,
      "duration": 0.0,
      "velocity": 88,
      "chip": "ym2612"
    },
    {
      "channel": 2,
      "note": 48,
      "start": 0.0,
      "duration": 0.0,
      "velocity": 88,
      "chip": "ym2612"
    },
    {
      "channel": 2,
      "note": 51,
      "start": 0.0,
      "duration": 0.0,
      "velocity": 88,
      "chip": "ym2612"
    },
    {
      "channel": 2,
      "note": 49,
      "start": 0.0,
      "duration": 0.0,
      "velocity": 88,
      "chip": "ym2612"
    },
    {
      "channel": 2,
      "note": 46,
      "start": 0.0,
      "duration": 0.0,
      "velocity": 88,
      "chip": "ym2612"
    },
    {
      "channel": 2,
      "note": 48,
      "start": 0.0,
      "duration": 0.0,
      "velocity": 88,
      "chip": "ym2612"
    },
    {
      "channel": 2,
      "note": 46,
      "start": 0.0,
      "duration": 0.0,
      "velocity": 88,
      "chip": "ym2612"
    },
    {
      "channel": 2,
      "note": 48,
      "start": 0.0,
      "duration": 0.0,
      "velocity": 88,
      "chip": "ym2612"
    },
    {
      "channel": 2,
      "note": 51,
      "start": 0.0,
      "duration": 0.0,
      "velocity": 88,
      "chip": "ym2612"
    },
    {
      "channel": 2,
      "note": 49,
      "start": 0.0,
      "duration": 0.0,
      "velocity": 88,
      "chip": "ym2612"
    },
    {
      "channel": 2,
      "note": 53,
      "start": 0.0,
      "duration": 0.0,
      "velocity": 88,
      "chip": "ym2612"
    },
    {
      "channel": 2,
      "note": 55,
      "start": 0.0,
      "duration": 0.0,
      "velocity": 88,
      "chip": "ym2612"
    },
    {
      "channel": 2,
      "note": 49,
      "start": 0.0,
      "duration": 0.0,
      "velocity": 88,
      "chip": "ym2612"
    },
    {
      "channel": 2,
      "note": 48,
      "start": 0.0,
      "duration": 0.0,
      "velocity": 88,
      "chip": "ym2612"
    },
    {
      "channel": 2,
      "note": 51,
      "start": 0.0,
      "duration": 0.0,
      "velocity": 88,
      "chip": "ym2612"
    },
    {
      "channel": 2,
      "note": 49,
      "start": 0.0,
      "duration": 0.0,
      "velocity": 88,
      "chip": "ym2612"
    },
    {
      "channel": 2,
      "note": 46,
      "start": 0.0,
      "duration": 0.0,
      "velocity": 88,
      "chip": "ym2612"
    },
    {
      "channel": 2,
      "note": 48,
      "start": 0.0,
      "duration": 0.0,
      "velocity": 88,
      "chip": "ym2612"
    },
    {
      "channel": 2,
      "note": 46,
      "start": 0.0,
      "duration": 0.0,
      "velocity": 88,
      "chip": "ym2612"
    },
    {
      "channel": 2,
      "note": 48,
      "start": 0.0,
      "duration": 0.0,
      "velocity": 88,
      "chip": "ym2612"
    },
    {
      "channel": 2,
      "note": 51,
      "start": 0.0,
      "duration": 0.0,
      "velocity": 88,
      "chip": "ym2612"
    },
    {
      "channel": 2,
      "note": 49,
      "start": 0.0,
      "duration": 0.0,
      "velocity": 88,
      "chip": "ym2612"
    },
    {
      "channel": 2,
      "note": 53,
      "start": 0.0,
      "duration": 0.0,
      "velocity": 88,
      "chip": "ym2612"
    },
    {
      "channel": 2,
      "note": 55,
      "start": 0.0,
      "duration": 0.0,
      "velocity": 88,
      "chip": "ym2612"
    },
    {
      "channel": 2,
      "note": 49,
      "start": 0.0,
      "duration": 0.0,
      "velocity": 88,
      "chip": "ym2612"
    },
    {
      "channel": 2,
      "note": 48,
      "start": 0.0,
      "duration": 0.0,
      "velocity": 88,
      "chip": "ym2612"
    },
    {
      "channel": 2,
      "note": 51,
      "start": 0.0,
      "duration": 0.0,
      "velocity": 88,
      "chip": "ym2612"
    },
    {
      "channel": 2,
      "note": 49,
      "start": 0.0,
      "duration": 0.0,
      "velocity": 88,
      "chip": "ym2612"
    },
    {
      "channel": 2,
      "note": 46,
      "start": 0.0,
      "duration": 0.0,
      "velocity": 88,
      "chip": "ym2612"
    },
    {
      "channel": 2,
      "note": 48,
      "start": 0.0,
      "duration": 0.0,
      "velocity": 88,
      "chip": "ym2612"
    },
    {
      "channel": 2,
      "note": 46,
      "start": 0.0,
      "duration": 0.0,
      "velocity": 88,
      "chip": "ym2612"
    },
    {
      "channel": 2,
      "note": 48,
      "start": 0.0,
      "duration": 0.0,
      "velocity": 88,
      "chip": "ym2612"
    },
    {
      "channel": 2,
      "note": 51,
      "start": 0.0,
      "duration": 0.0,
      "velocity": 88,
      "chip": "ym2612"
    },
    {
      "channel": 2,
      "note": 49,
      "start": 0.0,
      "duration": 0.0,
      "velocity": 88,
      "chip": "ym2612"
    },
    {
      "channel": 2,
      "note": 53,
      "start": 0.0,
      "duration": 0.0,
      "velocity": 88,
      "chip": "ym2612"
    },
    {
      "channel": 2,
      "note": 55,
      "start": 0.0,
      "duration": 0.749,
      "velocity": 88,
      "chip": "ym2612"
    },
    {
      "channel": 3,
      "note": -1,
      "start": 0.0,
      "duration": 0.0,
      "velocity": 109,
      "chip": "ym2612"
    },
    {
      "channel": 3,
      "note": 36,
      "start": 0.0,
      "duration": 0.0,
      "velocity": 109,
      "chip": "ym2612"
    },
    {
      "channel": 3,
      "note": 36,
      "start": 0.0,
      "duration": 0.0,
      "velocity": 109,
      "chip": "ym2612"
    },
    {
      "channel": 3,
      "note": 36,
      "start": 0.0,
      "duration": 0.0,
      "velocity": 109,
      "chip": "ym2612"
    },
    {
      "channel": 3,
      "note": 36,
      "start": 0.0,
      "duration": 0.0,
      "velocity": 109,
      "chip": "ym2612"
    },
    {
      "channel": 3,
      "note": 36,
      "start": 0.0,
      "duration": 0.0,
      "velocity": 109,
      "chip": "ym2612"
    },
    {
      "channel": 3,
      "note": 36,
      "start": 0.0,
      "duration": 0.0,
      "velocity": 109,
      "chip": "ym2612"
    },
    {
      "channel": 3,
      "note": 36,
      "start": 0.0,
      "duration": 0.0,
      "velocity": 109,
      "chip": "ym2612"
    },
    {
      "channel": 3,
      "note": 36,
      "start": 0.0,
      "duration": 0.0,
      "velocity": 109,
      "chip": "ym2612"
    },
    {
      "channel": 3,
      "note": 36,
      "start": 0.0,
      "duration": 0.0,
      "velocity": 109,
      "chip": "ym2612"
    },
    {
      "channel": 3,
      "note": 36,
      "start": 0.0,
      "duration": 0.0,
      "velocity": 109,
      "chip": "ym2612"
    },
    {
      "channel": 3,
      "note": 36,
      "start": 0.0,
      "duration": 0.0,
      "velocity": 109,
      "chip": "ym2612"
    },
    {
      "channel": 3,
      "note": 36,
      "start": 0.0,
      "duration": 0.0,
      "velocity": 109,
      "chip": "ym2612"
    },
    {
      "channel": 3,
      "note": 36,
      "start": 0.0,
      "duration": 6.4991,
      "velocity": 109,
      "chip": "ym2612"
    },
    {
      "channel": 4,
      "note": 21,
      "start": 0.0,
      "duration": 0.0,
      "velocity": 127,
      "chip": "ym2612"
    },
    {
      "channel": 4,
      "note": 30,
      "start": 0.0,
      "duration": 0.0,
      "velocity": 127,
      "chip": "ym2612"
    },
    {
      "channel": 4,
      "note": 30,
      "start": 0.0,
      "duration": 0.0,
      "velocity": 127,
      "chip": "ym2612"
    },
    {
      "channel": 4,
      "note": 42,
      "start": 0.0,
      "duration": 0.0,
      "velocity": 127,
      "chip": "ym2612"
    },
    {
      "channel": 4,
      "note": 30,
      "start": 0.0,
      "duration": 0.0,
      "velocity": 127,
      "chip": "ym2612"
    },
    {
      "channel": 4,
      "note": 30,
      "start": 0.0,
      "duration": 0.0,
      "velocity": 127,
      "chip": "ym2612"
    },
    {
      "channel": 4,
      "note": 30,
      "start": 0.0,
      "duration": 0.0,
      "velocity": 127,
      "chip": "ym2612"
    },
    {
      "channel": 4,
      "note": 30,
      "start": 0.0,
      "duration": 0.0,
      "velocity": 127,
      "chip": "ym2612"
    },
    {
      "channel": 4,
      "note": 42,
      "start": 0.0,
      "duration": 0.0,
      "velocity": 127,
      "chip": "ym2612"
    },
    {
      "channel": 4,
      "note": 23,
      "start": 0.0,
      "duration": 0.0,
      "velocity": 127,
      "chip": "ym2612"
    },
    {
      "channel": 4,
      "note": 42,
      "start": 0.0,
      "duration": 0.0,
      "velocity": 127,
      "chip": "ym2612"
    },
    {
      "channel": 4,
      "note": 30,
      "start": 0.0,
      "duration": 0.0,
      "velocity": 127,
      "chip": "ym2612"
    },
    {
      "channel": 4,
      "note": 30,
      "start": 0.0,
      "duration": 0.0,
      "velocity": 127,
      "chip": "ym2612"
    },
    {
      "channel": 4,
      "note": 30,
      "start": 0.0,
      "duration": 0.0,
      "velocity": 127,
      "chip": "ym2612"
    },
    {
      "channel": 4,
      "note": 42,
      "start": 0.0,
      "duration": 0.0,
      "velocity": 127,
      "chip": "ym2612"
    },
    {
      "channel": 4,
      "note": 30,
      "start": 0.0,
      "duration": 0.0,
      "velocity": 127,
      "chip": "ym2612"
    },
    {
      "channel": 4,
      "note": 30,
      "start": 0.0,
      "duration": 0.0,
      "velocity": 127,
      "chip": "ym2612"
    },
    {
      "channel": 4,
      "note": 30,
      "start": 0.0,
      "duration": 0.0,
      "velocity": 127,
      "chip": "ym2612"
    },
    {
      "channel": 4,
      "note": 30,
      "start": 0.0,
      "duration": 0.0,
      "velocity": 127,
      "chip": "ym2612"
    },
    {
      "channel": 4,
      "note": 42,
      "start": 0.0,
      "duration": 0.0,
      "velocity": 127,
      "chip": "ym2612"
    },
    {
      "channel": 4,
      "note": 23,
      "start": 0.0,
      "duration": 0.0,
      "velocity": 127,
      "chip": "ym2612"
    },
    {
      "channel": 4,
      "note": 42,
      "start": 0.0,
      "duration": 0.0,
      "velocity": 127,
      "chip": "ym2612"
    },
    {
      "channel": 4,
      "note": 30,
      "start": 0.0,
      "duration": 0.0,
      "velocity": 127,
      "chip": "ym2612"
    },
    {
      "channel": 4,
      "note": 30,
      "start": 0.0,
      "duration": 0.0,
      "velocity": 127,
      "chip": "ym2612"
    },
    {
      "channel": 4,
      "note": 30,
      "start": 0.0,
      "duration": 0.0,
      "velocity": 127,
      "chip": "ym2612"
    },
    {
      "channel": 4,
      "note": 42,
      "start": 0.0,
      "duration": 0.0,
      "velocity": 127,
      "chip": "ym2612"
    },
    {
      "channel": 4,
      "note": 30,
      "start": 0.0,
      "duration": 0.0,
      "velocity": 127,
      "chip": "ym2612"
    },
    {
      "channel": 4,
      "note": 30,
      "start": 0.0,
      "duration": 0.0,
      "velocity": 127,
      "chip": "ym2612"
    },
    {
      "channel": 4,
      "note": 30,
      "start": 0.0,
      "duration": 0.0,
      "velocity": 127,
      "chip": "ym2612"
    },
    {
      "channel": 4,
      "note": 30,
      "start": 0.0,
      "duration": 0.0,
      "velocity": 127,
      "chip": "ym2612"
    },
    {
      "channel": 4,
      "note": 42,
      "start": 0.0,
      "duration": 0.0,
      "velocity": 127,
      "chip": "ym2612"
    },
    {
      "channel": 4,
      "note": 23,
      "start": 0.0,
      "duration": 0.0,
      "velocity": 127,
      "chip": "ym2612"
    },
    {
      "channel": 4,
      "note": 42,
      "start": 0.0,
      "duration": 0.0,
      "velocity": 127,
      "chip": "ym2612"
    },
    {
      "channel": 4,
      "note": 30,
      "start": 0.0,
      "duration": 0.0,
      "velocity": 127,
      "chip": "ym2612"
    },
    {
      "channel": 4,
      "note": 30,
      "start": 0.0,
      "duration": 0.0,
      "velocity": 127,
      "chip": "ym2612"
    },
    {
      "channel": 4,
      "note": 30,
      "start": 0.0,
      "duration": 0.0,
      "velocity": 127,
      "chip": "ym2612"
    },
    {
      "channel": 4,
      "note": 42,
      "start": 0.0,
      "duration": 0.0,
      "velocity": 127,
      "chip": "ym2612"
    },
    {
      "channel": 4,
      "note": 30,
      "start": 0.0,
      "duration": 0.0,
      "velocity": 127,
      "chip": "ym2612"
    },
    {
      "channel": 4,
      "note": 30,
      "start": 0.0,
      "duration": 0.0,
      "velocity": 127,
      "chip": "ym2612"
    },
    {
      "channel": 4,
      "note": 30,
      "start": 0.0,
      "duration": 0.0,
      "velocity": 127,
      "chip": "ym2612"
    },
    {
      "channel": 4,
      "note": 30,
      "start": 0.0,
      "duration": 0.0,
      "velocity": 127,
      "chip": "ym2612"
    },
    {
      "channel": 4,
      "note": 42,
      "start": 0.0,
      "duration": 0.0,
      "velocity": 127,
      "chip": "ym2612"
    },
    {
      "channel": 4,
      "note": 23,
      "start": 0.0,
      "duration": 0.0,
      "velocity": 127,
      "chip": "ym2612"
    },
    {
      "channel": 4,
      "note": 42,
      "start": 0.0,
      "duration": 0.0,
      "velocity": 127,
      "chip": "ym2612"
    },
    {
      "channel": 4,
      "note": 30,
      "start": 0.0,
      "duration": 0.0,
      "velocity": 127,
      "chip": "ym2612"
    },
    {
      "channel": 4,
      "note": 30,
      "start": 0.0,
      "duration": 0.0,
      "velocity": 127,
      "chip": "ym2612"
    },
    {
      "channel": 4,
      "note": 30,
      "start": 0.0,
      "duration": 0.0,
      "velocity": 127,
      "chip": "ym2612"
    },
    {
      "channel": 4,
      "note": 42,
      "start": 0.0,
      "duration": 0.0,
      "velocity": 127,
      "chip": "ym2612"
    },
    {
      "channel": 4,
      "note": 30,
      "start": 0.0,
      "duration": 0.0,
      "velocity": 127,
      "chip": "ym2612"
    },
    {
      "channel": 4,
      "note": 30,
      "start": 0.0,
      "duration": 0.0,
      "velocity": 127,
      "chip": "ym2612"
    },
    {
      "channel": 4,
      "note": 30,
      "start": 0.0,
      "duration": 0.0,
      "velocity": 127,
      "chip": "ym2612"
    },
    {
      "channel": 4,
      "note": 30,
      "start": 0.0,
      "duration": 0.0,
      "velocity": 127,
      "chip": "ym2612"
    },
    {
      "channel": 4,
      "note": 42,
      "start": 0.0,
      "duration": 0.0,
      "velocity": 127,
      "chip": "ym2612"
    },
    {
      "channel": 4,
      "note": 23,
      "start": 0.0,
      "duration": 0.0,
      "velocity": 127,
      "chip": "ym2612"
    },
    {
      "channel": 4,
      "note": 42,
      "start": 0.0,
      "duration": 0.0,
      "velocity": 127,
      "chip": "ym2612"
    },
    {
      "channel": 4,
      "note": 30,
      "start": 0.0,
      "duration": 0.0,
      "velocity": 127,
      "chip": "ym2612"
    },
    {
      "channel": 4,
      "note": 30,
      "start": 0.0,
      "duration": 0.0,
      "velocity": 127,
      "chip": "ym2612"
    },
    {
      "channel": 4,
      "note": 30,
      "start": 0.0,
      "duration": 0.0,
      "velocity": 127,
      "chip": "ym2612"
    },
    {
      "channel": 4,
      "note": 42,
      "start": 0.0,
      "duration": 0.0,
      "velocity": 127,
      "chip": "ym2612"
    },
    {
      "channel": 4,
      "note": 30,
      "start": 0.0,
      "duration": 0.0,
      "velocity": 127,
      "chip": "ym2612"
    },
    {
      "channel": 4,
      "note": 30,
      "start": 0.0,
      "duration": 0.0,
      "velocity": 127,
      "chip": "ym2612"
    },
    {
      "channel": 4,
      "note": 30,
      "start": 0.0,
      "duration": 0.0,
      "velocity": 127,
      "chip": "ym2612"
    },
    {
      "channel": 4,
      "note": 30,
      "start": 0.0,
      "duration": 0.0,
      "velocity": 127,
      "chip": "ym2612"
    },
    {
      "channel": 4,
      "note": 42,
      "start": 0.0,
      "duration": 0.0,
      "velocity": 127,
      "chip": "ym2612"
    },
    {
      "channel": 4,
      "note": 23,
      "start": 0.0,
      "duration": 0.0,
      "velocity": 127,
      "chip": "ym2612"
    },
    {
      "channel": 4,
      "note": 42,
      "start": 0.0,
      "duration": 0.0,
      "velocity": 127,
      "chip": "ym2612"
    },
    {
      "channel": 4,
      "note": 30,
      "start": 0.0,
      "duration": 0.0,
      "velocity": 127,
      "chip": "ym2612"
    },
    {
      "channel": 4,
      "note": 30,
      "start": 0.0,
      "duration": 0.0,
      "velocity": 127,
      "chip": "ym2612"
    },
    {
      "channel": 4,
      "note": 30,
      "start": 0.0,
      "duration": 0.0,
      "velocity": 127,
      "chip": "ym2612"
    },
    {
      "channel": 4,
      "note": 42,
      "start": 0.0,
      "duration": 0.0,
      "velocity": 127,
      "chip": "ym2612"
    },
    {
      "channel": 4,
      "note": 30,
      "start": 0.0,
      "duration": 0.0,
      "velocity": 127,
      "chip": "ym2612"
    },
    {
      "channel": 4,
      "note": 30,
      "start": 0.0,
      "duration": 0.0,
      "velocity": 127,
      "chip": "ym2612"
    },
    {
      "channel": 4,
      "note": 30,
      "start": 0.0,
      "duration": 0.0,
      "velocity": 127,
      "chip": "ym2612"
    },
    {
      "channel": 4,
      "note": 30,
      "start": 0.0,
      "duration": 0.0,
      "velocity": 127,
      "chip": "ym2612"
    },
    {
      "channel": 4,
      "note": 42,
      "start": 0.0,
      "duration": 0.0,
      "velocity": 127,
      "chip": "ym2612"
    },
    {
      "channel": 4,
      "note": 23,
      "start": 0.0,
      "duration": 0.0,
      "velocity": 127,
      "chip": "ym2612"
    },
    {
      "channel": 4,
      "note": 42,
      "start": 0.0,
      "duration": 0.0,
      "velocity": 127,
      "chip": "ym2612"
    },
    {
      "channel": 4,
      "note": 30,
      "start": 0.0,
      "duration": 0.0,
      "velocity": 127,
      "chip": "ym2612"
    },
    {
      "channel": 4,
      "note": 30,
      "start": 0.0,
      "duration": 0.0,
      "velocity": 127,
      "chip": "ym2612"
    },
    {
      "channel": 4,
      "note": 30,
      "start": 0.0,
      "duration": 0.0,
      "velocity": 127,
      "chip": "ym2612"
    },
    {
      "channel": 4,
      "note": 42,
      "start": 0.0,
      "duration": 0.0,
      "velocity": 127,
      "chip": "ym2612"
    },
    {
      "channel": 4,
      "note": 30,
      "start": 0.0,
      "duration": 0.0,
      "velocity": 127,
      "chip": "ym2612"
    },
    {
      "channel": 4,
      "note": 30,
      "start": 0.0,
      "duration": 0.0,
      "velocity": 127,
      "chip": "ym2612"
    },
    {
      "channel": 4,
      "note": 30,
      "start": 0.0,
      "duration": 0.0,
      "velocity": 127,
      "chip": "ym2612"
    },
    {
      "channel": 4,
      "note": 30,
      "start": 0.0,
      "duration": 0.0,
      "velocity": 127,
      "chip": "ym2612"
    },
    {
      "channel": 4,
      "note": 42,
      "start": 0.0,
      "duration": 0.0,
      "velocity": 127,
      "chip": "ym2612"
    },
    {
      "channel": 4,
      "note": 23,
      "start": 0.0,
      "duration": 0.0,
      "velocity": 127,
      "chip": "ym2612"
    },
    {
      "channel": 4,
      "note": 42,
      "start": 0.0,
      "duration": 0.0,
      "velocity": 127,
      "chip": "ym2612"
    },
    {
      "channel": 4,
      "note": 30,
      "start": 0.0,
      "duration": 0.0,
      "velocity": 127,
      "chip": "ym2612"
    },
    {
      "channel": 4,
      "note": 30,
      "start": 0.0,
      "duration": 0.0,
      "velocity": 127,
      "chip": "ym2612"
    },
    {
      "channel": 4,
      "note": 30,
      "start": 0.0,
      "duration": 0.0,
      "velocity": 127,
      "chip": "ym2612"
    },
    {
      "channel": 4,
      "note": 42,
      "start": 0.0,
      "duration": 0.0,
      "velocity": 127,
      "chip": "ym2612"
    },
    {
      "channel": 4,
      "note": 30,
      "start": 0.0,
      "duration": 0.0,
      "velocity": 127,
      "chip": "ym2612"
    },
    {
      "channel": 4,
      "note": 30,
      "start": 0.0,
      "duration": 0.0,
      "velocity": 127,
      "chip": "ym2612"
    },
    {
      "channel": 4,
      "note": 30,
      "start": 0.0,
      "duration": 0.0,
      "velocity": 127,
      "chip": "ym2612"
    },
    {
      "channel": 4,
      "note": 30,
      "start": 0.0,
      "duration": 0.0,
      "velocity": 127,
      "chip": "ym2612"
    },
    {
      "channel": 4,
      "note": 42,
      "start": 0.0,
      "duration": 0.0,
      "velocity": 127,
      "chip": "ym2612"
    },
    {
      "channel": 4,
      "note": 23,
      "start": 0.0,
      "duration": 0.0,
      "velocity": 127,
      "chip": "ym2612"
    },
    {
      "channel": 4,
      "note": 42,
      "start": 0.0,
      "duration": 0.0,
      "velocity": 127,
      "chip": "ym2612"
    },
    {
      "channel": 4,
      "note": 30,
      "start": 0.0,
      "duration": 0.0,
      "velocity": 127,
      "chip": "ym2612"
    },
    {
      "channel": 4,
      "note": 30,
      "start": 0.0,
      "duration": 0.0,
      "velocity": 127,
      "chip": "ym2612"
    },
    {
      "channel": 4,
      "note": 30,
      "start": 0.0,
      "duration": 0.0,
      "velocity": 127,
      "chip": "ym2612"
    },
    {
      "channel": 4,
      "note": 42,
      "start": 0.0,
      "duration": 0.0,
      "velocity": 127,
      "chip": "ym2612"
    },
    {
      "channel": 4,
      "note": 30,
      "start": 0.0,
      "duration": 0.0,
      "velocity": 127,
      "chip": "ym2612"
    },
    {
      "channel": 4,
      "note": 30,
      "start": 0.0,
      "duration": 0.0,
      "velocity": 127,
      "chip": "ym2612"
    },
    {
      "channel": 4,
      "note": 30,
      "start": 0.0,
      "duration": 0.0,
      "velocity": 127,
      "chip": "ym2612"
    },
    {
      "channel": 4,
      "note": 30,
      "start": 0.0,
      "duration": 0.0,
      "velocity": 127,
      "chip": "ym2612"
    },
    {
      "channel": 4,
      "note": 42,
      "start": 0.0,
      "duration": 0.0,
      "velocity": 127,
      "chip": "ym2612"
    },
    {
      "channel": 4,
      "note": 23,
      "start": 0.0,
      "duration": 0.0,
      "velocity": 127,
      "chip": "ym2612"
    },
    {
      "channel": 4,
      "note": 42,
      "start": 0.0,
      "duration": 0.7492,
      "velocity": 127,
      "chip": "ym2612"
    },
    {
      "channel": 5,
      "note": 58,
      "start": 0.0,
      "duration": 0.0,
      "velocity": 63,
      "chip": "ym2612"
    },
    {
      "channel": 5,
      "note": 43,
      "start": 0.0,
      "duration": 0.0,
      "velocity": 63,
      "chip": "ym2612"
    },
    {
      "channel": 5,
      "note": 43,
      "start": 0.0,
      "duration": 0.0,
      "velocity": 63,
      "chip": "ym2612"
    },
    {
      "channel": 5,
      "note": 43,
      "start": 0.0,
      "duration": 0.0,
      "velocity": 63,
      "chip": "ym2612"
    },
    {
      "channel": 5,
      "note": 43,
      "start": 0.0,
      "duration": 0.0,
      "velocity": 63,
      "chip": "ym2612"
    },
    {
      "channel": 5,
      "note": 43,
      "start": 0.0,
      "duration": 0.0,
      "velocity": 63,
      "chip": "ym2612"
    },
    {
      "channel": 5,
      "note": 43,
      "start": 0.0,
      "duration": 0.0,
      "velocity": 63,
      "chip": "ym2612"
    },
    {
      "channel": 5,
      "note": 43,
      "start": 0.0,
      "duration": 0.0,
      "velocity": 63,
      "chip": "ym2612"
    },
    {
      "channel": 5,
      "note": 43,
      "start": 0.0,
      "duration": 0.0,
      "velocity": 63,
      "chip": "ym2612"
    },
    {
      "channel": 5,
      "note": 43,
      "start": 0.0,
      "duration": 0.0,
      "velocity": 63,
      "chip": "ym2612"
    },
    {
      "channel": 5,
      "note": 43,
      "start": 0.0,
      "duration": 0.0,
      "velocity": 63,
      "chip": "ym2612"
    },
    {
      "channel": 5,
      "note": 43,
      "start": 0.0,
      "duration": 0.0,
      "velocity": 63,
      "chip": "ym2612"
    },
    {
      "channel": 5,
      "note": 43,
      "start": 0.0,
      "duration": 0.0,
      "velocity": 63,
      "chip": "ym2612"
    },
    {
      "channel": 5,
      "note": 43,
      "start": 0.0,
      "duration": 0.0,
      "velocity": 63,
      "chip": "ym2612"
    },
    {
      "channel": 5,
      "note": 43,
      "start": 0.0,
      "duration": 0.0,
      "velocity": 63,
      "chip": "ym2612"
    },
    {
      "channel": 5,
      "note": 43,
      "start": 0.0,
      "duration": 0.0,
      "velocity": 63,
      "chip": "ym2612"
    },
    {
      "channel": 5,
      "note": 43,
      "start": 0.0,
      "duration": 0.0,
      "velocity": 63,
      "chip": "ym2612"
    },
    {
      "channel": 5,
      "note": 43,
      "start": 0.0,
      "duration": 0.0,
      "velocity": 63,
      "chip": "ym2612"
    },
    {
      "channel": 5,
      "note": 43,
      "start": 0.0,
      "duration": 0.0,
      "velocity": 63,
      "chip": "ym2612"
    },
    {
      "channel": 5,
      "note": 43,
      "start": 0.0,
      "duration": 0.0,
      "velocity": 63,
      "chip": "ym2612"
    },
    {
      "channel": 5,
      "note": 43,
      "start": 0.0,
      "duration": 0.0,
      "velocity": 63,
      "chip": "ym2612"
    },
    {
      "channel": 5,
      "note": 43,
      "start": 0.0,
      "duration": 0.0,
      "velocity": 63,
      "chip": "ym2612"
    },
    {
      "channel": 5,
      "note": 54,
      "start": 0.0,
      "duration": 0.0,
      "velocity": 63,
      "chip": "ym2612"
    },
    {
      "channel": 5,
      "note": 43,
      "start": 0.0,
      "duration": 0.0,
      "velocity": 63,
      "chip": "ym2612"
    },
    {
      "channel": 5,
      "note": 43,
      "start": 0.0,
      "duration": 0.0,
      "velocity": 63,
      "chip": "ym2612"
    },
    {
      "channel": 5,
      "note": 43,
      "start": 0.0,
      "duration": 0.0,
      "velocity": 63,
      "chip": "ym2612"
    },
    {
      "channel": 5,
      "note": 43,
      "start": 0.0,
      "duration": 0.0,
      "velocity": 63,
      "chip": "ym2612"
    },
    {
      "channel": 5,
      "note": 56,
      "start": 0.0,
      "duration": 0.0,
      "velocity": 63,
      "chip": "ym2612"
    },
    {
      "channel": 5,
      "note": 43,
      "start": 0.0,
      "duration": 0.0,
      "velocity": 63,
      "chip": "ym2612"
    },
    {
      "channel": 5,
      "note": 43,
      "start": 0.0,
      "duration": 0.0,
      "velocity": 63,
      "chip": "ym2612"
    },
    {
      "channel": 5,
      "note": 43,
      "start": 0.0,
      "duration": 0.0,
      "velocity": 63,
      "chip": "ym2612"
    },
    {
      "channel": 0,
      "note": 61,
      "start": 0.7682,
      "duration": 3.8138,
      "velocity": 88,
      "chip": "ym2612"
    },
    {
      "channel": 1,
      "note": 60,
      "start": 0.77,
      "duration": 5.729,
      "velocity": 75,
      "chip": "ym2612"
    },
    {
      "channel": 2,
      "note": 49,
      "start": 0.7716,
      "duration": 3.8106,
      "velocity": 88,
      "chip": "ym2612"
    },
    {
      "channel": 4,
      "note": 30,
      "start": 0.7734,
      "duration": 1.5089,
      "velocity": 127,
      "chip": "ym2612"
    },
    {
      "channel": 4,
      "note": 30,
      "start": 2.299,
      "duration": 1.5167,
      "velocity": 127,
      "chip": "ym2612"
    },
    {
      "channel": 4,
      "note": 30,
      "start": 3.8323,
      "duration": 1.5173,
      "velocity": 127,
      "chip": "ym2612"
    },
    {
      "channel": 0,
      "note": 60,
      "start": 4.5995,
      "duration": 0.7497,
      "velocity": 88,
      "chip": "ym2612"
    },
    {
      "channel": 2,
      "note": 48,
      "start": 4.5999,
      "duration": 0.7495,
      "velocity": 88,
      "chip": "ym2612"
    },
    {
      "channel": 0,
      "note": 63,
      "start": 5.3656,
      "duration": 0.7499,
      "velocity": 88,
      "chip": "ym2612"
    },
    {
      "channel": 2,
      "note": 51,
      "start": 5.3658,
      "duration": 0.7498,
      "velocity": 88,
      "chip": "ym2612"
    },
    {
      "channel": 4,
      "note": 42,
      "start": 5.3661,
      "duration": 1.5164,
      "velocity": 127,
      "chip": "ym2612"
    },
    {
      "channel": 5,
      "note": 43,
      "start": 6.0006,
      "duration": 0.4986,
      "velocity": 63,
      "chip": "ym2612"
    },
    {
      "channel": 0,
      "note": 61,
      "start": 6.1322,
      "duration": 0.7499,
      "velocity": 88,
      "chip": "ym2612"
    },
    {
      "channel": 2,
      "note": 49,
      "start": 6.1325,
      "duration": 0.7499,
      "velocity": 88,
      "chip": "ym2612"
    },
    {
      "channel": 0,
      "note": 58,
      "start": 6.8995,
      "duration": 5.3493,
      "velocity": 88,
      "chip": "ym2612"
    },
    {
      "channel": 1,
      "note": 60,
      "start": 6.9012,
      "duration": 5.7309,
      "velocity": 75,
      "chip": "ym2612"
    },
    {
      "channel": 2,
      "note": 46,
      "start": 6.9015,
      "duration": 5.3475,
      "velocity": 88,
      "chip": "ym2612"
    },
    {
      "channel": 3,
      "note": 36,
      "start": 6.9032,
      "duration": 8.7957,
      "velocity": 109,
      "chip": "ym2612"
    },
    {
      "channel": 4,
      "note": 30,
      "start": 6.9034,
      "duration": 1.5122,
      "velocity": 127,
      "chip": "ym2612"
    },
    {
      "channel": 4,
      "note": 30,
      "start": 8.4327,
      "duration": 1.5162,
      "velocity": 127,
      "chip": "ym2612"
    },
    {
      "channel": 4,
      "note": 30,
      "start": 9.9658,
      "duration": 0.7498,
      "velocity": 127,
      "chip": "ym2612"
    },
    {
      "channel": 4,
      "note": 30,
      "start": 10.7324,
      "duration": 0.367,
      "velocity": 127,
      "chip": "ym2612"
    },
    {
      "channel": 4,
      "note": 42,
      "start": 11.1157,
      "duration": 0.1833,
      "velocity": 127,
      "chip": "ym2612"
    },
    {
      "channel": 4,
      "note": 23,
      "start": 11.3156,
      "duration": 0.1666,
      "velocity": 127,
      "chip": "ym2612"
    },
    {
      "channel": 4,
      "note": 42,
      "start": 11.4991,
      "duration": 1.517,
      "velocity": 127,
      "chip": "ym2612"
    },
    {
      "channel": 0,
      "note": 60,
      "start": 12.2661,
      "duration": 0.7496,
      "velocity": 88,
      "chip": "ym2612"
    },
    {
      "channel": 2,
      "note": 48,
      "start": 12.2664,
      "duration": 0.7495,
      "velocity": 88,
      "chip": "ym2612"
    },
    {
      "channel": 0,
      "note": 58,
      "start": 13.0328,
      "duration": 3.8165,
      "velocity": 88,
      "chip": "ym2612"
    },
    {
      "channel": 1,
      "note": 60,
      "start": 13.0345,
      "duration": 5.7314,
      "velocity": 75,
      "chip": "ym2612"
    },
    {
      "channel": 2,
      "note": 46,
      "start": 13.0347,
      "duration": 3.8148,
      "velocity": 88,
      "chip": "ym2612"
    },
    {
      "channel": 4,
      "note": 30,
      "start": 13.0364,
      "duration": 1.5125,
      "velocity": 127,
      "chip": "ym2612"
    },
    {
      "channel": 4,
      "note": 30,
      "start": 14.5658,
      "duration": 1.5167,
      "velocity": 127,
      "chip": "ym2612"
    },
    {
      "channel": 3,
      "note": 36,
      "start": 16.1012,
      "duration": 8.7978,
      "velocity": 109,
      "chip": "ym2612"
    },
    {
      "channel": 4,
      "note": 30,
      "start": 16.1015,
      "duration": 1.5144,
      "velocity": 127,
      "chip": "ym2612"
    },
    {
      "channel": 5,
      "note": 43,
      "start": 16.6673,
      "duration": 0.4983,
      "velocity": 63,
      "chip": "ym2612"
    },
    {
      "channel": 0,
      "note": 60,
      "start": 16.8658,
      "duration": 0.7498,
      "velocity": 88,
      "chip": "ym2612"
    },
    {
      "channel": 2,
      "note": 48,
      "start": 16.866,
      "duration": 0.7496,
      "velocity": 88,
      "chip": "ym2612"
    },
    {
      "channel": 0,
      "note": 63,
      "start": 17.6324,
      "duration": 0.7497,
      "velocity": 88,
      "chip": "ym2612"
    },
    {
      "channel": 2,
      "note": 51,
      "start": 17.6326,
      "duration": 0.7496,
      "velocity": 88,
      "chip": "ym2612"
    },
    {
      "channel": 4,
      "note": 42,
      "start": 17.6329,
      "duration": 1.5162,
      "velocity": 127,
      "chip": "ym2612"
    },
    {
      "channel": 0,
      "note": 61,
      "start": 18.3988,
      "duration": 0.7499,
      "velocity": 88,
      "chip": "ym2612"
    },
    {
      "channel": 2,
      "note": 49,
      "start": 18.3992,
      "duration": 0.7498,
      "velocity": 88,
      "chip": "ym2612"
    },
    {
      "channel": 0,
      "note": 65,
      "start": 19.1659,
      "duration": 5.35,
      "velocity": 88,
      "chip": "ym2612"
    },
    {
      "channel": 1,
      "note": 60,
      "start": 19.1676,
      "duration": 5.7312,
      "velocity": 75,
      "chip": "ym2612"
    },
    {
      "channel": 2,
      "note": 53,
      "start": 19.1679,
      "duration": 5.3483,
      "velocity": 88,
      "chip": "ym2612"
    },
    {
      "channel": 4,
      "note": 30,
      "start": 19.1681,
      "duration": 1.5145,
      "velocity": 127,
      "chip": "ym2612"
    },
    {
      "channel": 4,
      "note": 30,
      "start": 20.6991,
      "duration": 1.5165,
      "velocity": 127,
      "chip": "ym2612"
    },
    {
      "channel": 4,
      "note": 30,
      "start": 22.2324,
      "duration": 0.7499,
      "velocity": 127,
      "chip": "ym2612"
    },
    {
      "channel": 4,
      "note": 30,
      "start": 22.9992,
      "duration": 0.3665,
      "velocity": 127,
      "chip": "ym2612"
    },
    {
      "channel": 4,
      "note": 42,
      "start": 23.3824,
      "duration": 0.1833,
      "velocity": 127,
      "chip": "ym2612"
    },
    {
      "channel": 4,
      "note": 23,
      "start": 23.5823,
      "duration": 0.1667,
      "velocity": 127,
      "chip": "ym2612"
    },
    {
      "channel": 4,
      "note": 42,
      "start": 23.7663,
      "duration": 1.5162,
      "velocity": 127,
      "chip": "ym2612"
    },
    {
      "channel": 0,
      "note": 67,
      "start": 24.5324,
      "duration": 0.7498,
      "velocity": 88,
      "chip": "ym2612"
    },
    {
      "channel": 2,
      "note": 55,
      "start": 24.5326,
      "duration": 0.7497,
      "velocity": 88,
      "chip": "ym2612"
    },
    {
      "channel": 0,
      "note": 61,
      "start": 25.3015,
      "duration": 3.814,
      "velocity": 88,
      "chip": "ym2612"
    },
    {
      "channel": 1,
      "note": 60,
      "start": 25.3032,
      "duration": 5.729,
      "velocity": 75,
      "chip": "ym2612"
    },
    {
      "channel": 2,
      "note": 49,
      "start": 25.3048,
      "duration": 3.8108,
      "velocity": 88,
      "chip": "ym2612"
    },
    {
      "channel": 3,
      "note": 36,
      "start": 25.3065,
      "duration": 8.7929,
      "velocity": 109,
      "chip": "ym2612"
    },
    {
      "channel": 4,
      "note": 30,
      "start": 25.3083,
      "duration": 1.5074,
      "velocity": 127,
      "chip": "ym2612"
    },
    {
      "channel": 4,
      "note": 30,
      "start": 26.8323,
      "duration": 1.517,
      "velocity": 127,
      "chip": "ym2612"
    },
    {
      "channel": 5,
      "note": 43,
      "start": 27.3339,
      "duration": 0.4984,
      "velocity": 63,
      "chip": "ym2612"
    },
    {
      "channel": 4,
      "note": 30,
      "start": 28.3657,
      "duration": 1.5167,
      "velocity": 127,
      "chip": "ym2612"
    },
    {
      "channel": 0,
      "note": 60,
      "start": 29.1324,
      "duration": 0.7498,
      "velocity": 88,
      "chip": "ym2612"
    },
    {
      "channel": 2,
      "note": 48,
      "start": 29.1326,
      "duration": 0.7497,
      "velocity": 88,
      "chip": "ym2612"
    },
    {
      "channel": 0,
      "note": 63,
      "start": 29.899,
      "duration": 0.7498,
      "velocity": 88,
      "chip": "ym2612"
    },
    {
      "channel": 2,
      "note": 51,
      "start": 29.8993,
      "duration": 0.7496,
      "velocity": 88,
      "chip": "ym2612"
    },
    {
      "channel": 4,
      "note": 42,
      "start": 29.8996,
      "duration": 1.5162,
      "velocity": 127,
      "chip": "ym2612"
    },
    {
      "channel": 0,
      "note": 61,
      "start": 30.6656,
      "duration": 0.7499,
      "velocity": 88,
      "chip": "ym2612"
    },
    {
      "channel": 2,
      "note": 49,
      "start": 30.6658,
      "duration": 0.7498,
      "velocity": 88,
      "chip": "ym2612"
    },
    {
      "channel": 0,
      "note": 58,
      "start": 31.4329,
      "duration": 5.3493,
      "velocity": 88,
      "chip": "ym2612"
    },
    {
      "channel": 1,
      "note": 60,
      "start": 31.4347,
      "duration": 5.7308,
      "velocity": 75,
      "chip": "ym2612"
    },
    {
      "channel": 2,
      "note": 46,
      "start": 31.435,
      "duration": 5.3473,
      "velocity": 88,
      "chip": "ym2612"
    },
    {
      "channel": 4,
      "note": 30,
      "start": 31.4352,
      "duration": 1.5138,
      "velocity": 127,
      "chip": "ym2612"
    },
    {
      "channel": 4,
      "note": 30,
      "start": 32.9657,
      "duration": 1.5167,
      "velocity": 127,
      "chip": "ym2612"
    },
    {
      "channel": 5,
      "note": 43,
      "start": 33.0007,
      "duration": 0.4983,
      "velocity": 63,
      "chip": "ym2612"
    },
    {
      "channel": 5,
      "note": 43,
      "start": 34.084,
      "duration": 0.4983,
      "velocity": 63,
      "chip": "ym2612"
    },
    {
      "channel": 3,
      "note": 36,
      "start": 34.5007,
      "duration": 8.7983,
      "velocity": 109,
      "chip": "ym2612"
    },
    {
      "channel": 4,
      "note": 30,
      "start": 34.501,
      "duration": 0.748,
      "velocity": 127,
      "chip": "ym2612"
    },
    {
      "channel": 5,
      "note": 43,
      "start": 35.0839,
      "duration": 0.4985,
      "velocity": 63,
      "chip": "ym2612"
    },
    {
      "channel": 4,
      "note": 30,
      "start": 35.2663,
      "duration": 0.3659,
      "velocity": 127,
      "chip": "ym2612"
    },
    {
      "channel": 4,
      "note": 42,
      "start": 35.6491,
      "duration": 0.1833,
      "velocity": 127,
      "chip": "ym2612"
    },
    {
      "channel": 4,
      "note": 23,
      "start": 35.8496,
      "duration": 0.1666,
      "velocity": 127,
      "chip": "ym2612"
    },
    {
      "channel": 4,
      "note": 42,
      "start": 36.0324,
      "duration": 1.5167,
      "velocity": 127,
      "chip": "ym2612"
    },
    {
      "channel": 0,
      "note": 60,
      "start": 36.7991,
      "duration": 0.7497,
      "velocity": 88,
      "chip": "ym2612"
    },
    {
      "channel": 2,
      "note": 48,
      "start": 36.7993,
      "duration": 0.7496,
      "velocity": 88,
      "chip": "ym2612"
    },
    {
      "channel": 0,
      "note": 58,
      "start": 37.5661,
      "duration": 3.816,
      "velocity": 88,
      "chip": "ym2612"
    },
    {
      "channel": 1,
      "note": 60,
      "start": 37.5679,
      "duration": 5.731,
      "velocity": 75,
      "chip": "ym2612"
    },
    {
      "channel": 2,
      "note": 46,
      "start": 37.5681,
      "duration": 3.8142,
      "velocity": 88,
      "chip": "ym2612"
    },
    {
      "channel": 4,
      "note": 30,
      "start": 37.5698,
      "duration": 1.5124,
      "velocity": 127,
      "chip": "ym2612"
    },
    {
      "channel": 5,
      "note": 43,
      "start": 37.6673,
      "duration": 0.3333,
      "velocity": 63,
      "chip": "ym2612"
    },
    {
      "channel": 5,
      "note": 50,
      "start": 38.0006,
      "duration": 0.4984,
      "velocity": 63,
      "chip": "ym2612"
    },
    {
      "channel": 4,
      "note": 30,
      "start": 39.0997,
      "duration": 1.516,
      "velocity": 127,
      "chip": "ym2612"
    },
    {
      "channel": 4,
      "note": 30,
      "start": 40.6323,
      "duration": 1.5167,
      "velocity": 127,
      "chip": "ym2612"
    },
    {
      "channel": 0,
      "note": 60,
      "start": 41.399,
      "duration": 0.7498,
      "velocity": 88,
      "chip": "ym2612"
    },
    {
      "channel": 2,
      "note": 48,
      "start": 41.3993,
      "duration": 0.7496,
      "velocity": 88,
      "chip": "ym2612"
    },
    {
      "channel": 0,
      "note": 63,
      "start": 42.1656,
      "duration": 0.7498,
      "velocity": 88,
      "chip": "ym2612"
    },
    {
      "channel": 2,
      "note": 51,
      "start": 42.1659,
      "duration": 0.7497,
      "velocity": 88,
      "chip": "ym2612"
    },
    {
      "channel": 4,
      "note": 42,
      "start": 42.1661,
      "duration": 1.5168,
      "velocity": 127,
      "chip": "ym2612"
    },
    {
      "channel": 0,
      "note": 61,
      "start": 42.9327,
      "duration": 0.7498,
      "velocity": 88,
      "chip": "ym2612"
    },
    {
      "channel": 2,
      "note": 49,
      "start": 42.9331,
      "duration": 0.7498,
      "velocity": 88,
      "chip": "ym2612"
    },
    {
      "channel": 0,
      "note": 65,
      "start": 43.6995,
      "duration": 5.3494,
      "velocity": 88,
      "chip": "ym2612"
    },
    {
      "channel": 1,
      "note": 60,
      "start": 43.7012,
      "duration": 5.7314,
      "velocity": 75,
      "chip": "ym2612"
    },
    {
      "channel": 2,
      "note": 53,
      "start": 43.7015,
      "duration": 5.3476,
      "velocity": 88,
      "chip": "ym2612"
    },
    {
      "channel": 3,
      "note": 36,
      "start": 43.7032,
      "duration": 8.7958,
      "velocity": 109,
      "chip": "ym2612"
    },
    {
      "channel": 4,
      "note": 30,
      "start": 43.7034,
      "duration": 1.5122,
      "velocity": 127,
      "chip": "ym2612"
    },
    {
      "channel": 4,
      "note": 30,
      "start": 45.2323,
      "duration": 1.5167,
      "velocity": 127,
      "chip": "ym2612"
    },
    {
      "channel": 4,
      "note": 30,
      "start": 46.7663,
      "duration": 0.7498,
      "velocity": 127,
      "chip": "ym2612"
    },
    {
      "channel": 4,
      "note": 30,
      "start": 47.5324,
      "duration": 0.3666,
      "velocity": 127,
      "chip": "ym2612"
    },
    {
      "channel": 4,
      "note": 42,
      "start": 47.9157,
      "duration": 0.1837,
      "velocity": 127,
      "chip": "ym2612"
    },
    {
      "channel": 4,
      "note": 23,
      "start": 48.1157,
      "duration": 0.1667,
      "velocity": 127,
      "chip": "ym2612"
    },
    {
      "channel": 4,
      "note": 42,
      "start": 48.299,
      "duration": 1.5168,
      "velocity": 127,
      "chip": "ym2612"
    },
    {
      "channel": 5,
      "note": 43,
      "start": 48.6673,
      "duration": 0.4984,
      "velocity": 63,
      "chip": "ym2612"
    },
    {
      "channel": 0,
      "note": 67,
      "start": 49.0658,
      "duration": 0.7497,
      "velocity": 88,
      "chip": "ym2612"
    },
    {
      "channel": 2,
      "note": 55,
      "start": 49.0661,
      "duration": 0.7496,
      "velocity": 88,
      "chip": "ym2612"
    },
    {
      "channel": 0,
      "note": 61,
      "start": 49.8345,
      "duration": 3.8144,
      "velocity": 88,
      "chip": "ym2612"
    },
    {
      "channel": 1,
      "note": 60,
      "start": 49.8362,
      "duration": 5.7293,
      "velocity": 75,
      "chip": "ym2612"
    },
    {
      "channel": 2,
      "note": 49,
      "start": 49.8378,
      "duration": 3.8111,
      "velocity": 88,
      "chip": "ym2612"
    },
    {
      "channel": 4,
      "note": 30,
      "start": 49.8396,
      "duration": 1.5097,
      "velocity": 127,
      "chip": "ym2612"
    },
    {
      "channel": 4,
      "note": 30,
      "start": 51.3656,
      "duration": 1.5167,
      "velocity": 127,
      "chip": "ym2612"
    },
    {
      "channel": 3,
      "note": 36,
      "start": 52.9007,
      "duration": 8.7983,
      "velocity": 109,
      "chip": "ym2612"
    },
    {
      "channel": 4,
      "note": 30,
      "start": 52.9009,
      "duration": 1.5148,
      "velocity": 127,
      "chip": "ym2612"
    },
    {
      "channel": 0,
      "note": 60,
      "start": 53.6658,
      "duration": 0.7497,
      "velocity": 88,
      "chip": "ym2612"
    },
    {
      "channel": 2,
      "note": 48,
      "start": 53.666,
      "duration": 0.7496,
      "velocity": 88,
      "chip": "ym2612"
    },
    {
      "channel": 0,
      "note": 63,
      "start": 54.4327,
      "duration": 0.7498,
      "velocity": 88,
      "chip": "ym2612"
    },
    {
      "channel": 2,
      "note": 51,
      "start": 54.433,
      "duration": 0.7496,
      "velocity": 88,
      "chip": "ym2612"
    },
    {
      "channel": 4,
      "note": 42,
      "start": 54.4333,
      "duration": 1.5159,
      "velocity": 127,
      "chip": "ym2612"
    },
    {
      "channel": 0,
      "note": 61,
      "start": 55.1989,
      "duration": 0.7499,
      "velocity": 88,
      "chip": "ym2612"
    },
    {
      "channel": 2,
      "note": 49,
      "start": 55.1992,
      "duration": 0.7499,
      "velocity": 88,
      "chip": "ym2612"
    },
    {
      "channel": 0,
      "note": 58,
      "start": 55.966,
      "duration": 5.3495,
      "velocity": 88,
      "chip": "ym2612"
    },
    {
      "channel": 1,
      "note": 60,
      "start": 55.9677,
      "duration": 5.7312,
      "velocity": 75,
      "chip": "ym2612"
    },
    {
      "channel": 2,
      "note": 46,
      "start": 55.9679,
      "duration": 5.3477,
      "velocity": 88,
      "chip": "ym2612"
    },
    {
      "channel": 4,
      "note": 30,
      "start": 55.9682,
      "duration": 1.5141,
      "velocity": 127,
      "chip": "ym2612"
    },
    {
      "channel": 4,
      "note": 30,
      "start": 57.499,
      "duration": 1.5172,
      "velocity": 127,
      "chip": "ym2612"
    },
    {
      "channel": 4,
      "note": 30,
      "start": 59.0324,
      "duration": 0.7499,
      "velocity": 127,
      "chip": "ym2612"
    },
    {
      "channel": 5,
      "note": 43,
      "start": 59.3339,
      "duration": 0.4985,
      "velocity": 63,
      "chip": "ym2612"
    },
    {
      "channel": 4,
      "note": 30,
      "start": 59.7992,
      "duration": 0.3665,
      "velocity": 127,
      "chip": "ym2612"
    },
    {
      "channel": 4,
      "note": 42,
      "start": 60.1829,
      "duration": 0.1827,
      "velocity": 127,
      "chip": "ym2612"
    },
    {
      "channel": 4,
      "note": 23,
      "start": 60.3823,
      "duration": 0.1667,
      "velocity": 127,
      "chip": "ym2612"
    },
    {
      "channel": 4,
      "note": 42,
      "start": 60.5657,
      "duration": 1.5169,
      "velocity": 127,
      "chip": "ym2612"
    },
    {
      "channel": 0,
      "note": 60,
      "start": 61.3324,
      "duration": 0.7498,
      "velocity": 88,
      "chip": "ym2612"
    },
    {
      "channel": 2,
      "note": 48,
      "start": 61.3327,
      "duration": 0.7497,
      "velocity": 88,
      "chip": "ym2612"
    },
    {
      "channel": 0,
      "note": 58,
      "start": 62.1001,
      "duration": 3.8153,
      "velocity": 88,
      "chip": "ym2612"
    },
    {
      "channel": 1,
      "note": 60,
      "start": 62.1019,
      "duration": 5.7304,
      "velocity": 75,
      "chip": "ym2612"
    },
    {
      "channel": 2,
      "note": 46,
      "start": 62.1022,
      "duration": 3.8134,
      "velocity": 88,
      "chip": "ym2612"
    },
    {
      "channel": 3,
      "note": 36,
      "start": 62.1038,
      "duration": 8.7951,
      "velocity": 109,
      "chip": "ym2612"
    },
    {
      "channel": 4,
      "note": 30,
      "start": 62.1055,
      "duration": 1.5101,
      "velocity": 127,
      "chip": "ym2612"
    },
    {
      "channel": 4,
      "note": 30,
      "start": 63.6324,
      "duration": 1.5166,
      "velocity": 127,
      "chip": "ym2612"
    },
    {
      "channel": 4,
      "note": 30,
      "start": 65.1657,
      "duration": 1.5172,
      "velocity": 127,
      "chip": "ym2612"
    },
    {
      "channel": 5,
      "note": 43,
      "start": 65.3339,
      "duration": 0.4985,
      "velocity": 63,
      "chip": "ym2612"
    },
    {
      "channel": 0,
      "note": 60,
      "start": 65.9328,
      "duration": 0.7498,
      "velocity": 88,
      "chip": "ym2612"
    },
    {
      "channel": 2,
      "note": 48,
      "start": 65.9331,
      "duration": 0.7497,
      "velocity": 88,
      "chip": "ym2612"
    },
    {
      "channel": 0,
      "note": 63,
      "start": 66.699,
      "duration": 0.7499,
      "velocity": 88,
      "chip": "ym2612"
    },
    {
      "channel": 2,
      "note": 51,
      "start": 66.6992,
      "duration": 0.7497,
      "velocity": 88,
      "chip": "ym2612"
    },
    {
      "channel": 4,
      "note": 42,
      "start": 66.6995,
      "duration": 1.5163,
      "velocity": 127,
      "chip": "ym2612"
    },
    {
      "channel": 5,
      "note": 43,
      "start": 67.084,
      "duration": 0.4983,
      "velocity": 63,
      "chip": "ym2612"
    },
    {
      "channel": 0,
      "note": 61,
      "start": 67.4656,
      "duration": 0.7499,
      "velocity": 88,
      "chip": "ym2612"
    },
    {
      "channel": 2,
      "note": 49,
      "start": 67.4659,
      "duration": 0.7498,
      "velocity": 88,
      "chip": "ym2612"
    },
    {
      "channel": 0,
      "note": 65,
      "start": 68.2327,
      "duration": 5.3494,
      "velocity": 88,
      "chip": "ym2612"
    },
    {
      "channel": 1,
      "note": 60,
      "start": 68.2343,
      "duration": 5.365,
      "velocity": 75,
      "chip": "ym2612"
    },
    {
      "channel": 2,
      "note": 53,
      "start": 68.2346,
      "duration": 5.3477,
      "velocity": 88,
      "chip": "ym2612"
    },
    {
      "channel": 4,
      "note": 30,
      "start": 68.2349,
      "duration": 1.514,
      "velocity": 127,
      "chip": "ym2612"
    },
    {
      "channel": 4,
      "note": 30,
      "start": 69.7663,
      "duration": 1.5161,
      "velocity": 127,
      "chip": "ym2612"
    },
    {
      "channel": 5,
      "note": 43,
      "start": 70.0007,
      "duration": 0.4983,
      "velocity": 63,
      "chip": "ym2612"
    },
    {
      "channel": 3,
      "note": 36,
      "start": 71.3008,
      "duration": 2.2985,
      "velocity": 109,
      "chip": "ym2612"
    },
    {
      "channel": 4,
      "note": 30,
      "start": 71.3011,
      "duration": 0.7478,
      "velocity": 127,
      "chip": "ym2612"
    },
    {
      "channel": 4,
      "note": 30,
      "start": 72.0658,
      "duration": 0.3672,
      "velocity": 127,
      "chip": "ym2612"
    },
    {
      "channel": 4,
      "note": 42,
      "start": 72.4491,
      "duration": 0.1833,
      "velocity": 127,
      "chip": "ym2612"
    },
    {
      "channel": 4,
      "note": 23,
      "start": 72.649,
      "duration": 0.1666,
      "velocity": 127,
      "chip": "ym2612"
    },
    {
      "channel": 4,
      "note": 42,
      "start": 72.8324,
      "duration": 0.7669,
      "velocity": 127,
      "chip": "ym2612"
    }
  ]
}