{
  "track_name": "17 - Final Boss Theme",
  "duration_sec": 78.589,
  "sample_rate": 44100,
  "note_count": 2614,
  "unique_pitches": 68,
  "pitch_range": 89,
  "avg_note_duration": 0.0636,
  "reconstruction_stats": {
    "notes_reconstructed": 2614,
    "keyon_events": 2614,
    "keyoff_events": 2612,
    "orphan_keyons": 2,
    "unique_pitches": 68,
    "pitch_range": 89,
    "avg_duration_sec": 0.0636
  },
  "metadata": {
    "source": "T\\Twinkle Tale\\17 - Final Boss Theme.vgz"
  },
  "notes": [
    {
      "channel": 1,
      "note": 80,
      "start": 0.0998,
      "duration": 0.0079,
      "velocity": 102,
      "chip": "ym2612"
    },
    {
      "channel": 2,
      "note": 32,
      "start": 0.1012,
      "duration": 0.0066,
      "velocity": 77,
      "chip": "ym2612"
    },
    {
      "channel": 0,
      "note": 80,
      "start": 0.1059,
      "duration": 0.0073,
      "velocity": 97,
      "chip": "ym2612"
    },
    {
      "channel": 1,
      "note": 82,
      "start": 0.1103,
      "duration": 0.0062,
      "velocity": 102,
      "chip": "ym2612"
    },
    {
      "channel": 2,
      "note": 32,
      "start": 0.1108,
      "duration": 0.0058,
      "velocity": 77,
      "chip": "ym2612"
    },
    {
      "channel": 0,
      "note": 82,
      "start": 0.1148,
      "duration": 0.0097,
      "velocity": 97,
      "chip": "ym2612"
    },
    {
      "channel": 1,
      "note": 83,
      "start": 0.1191,
      "duration": 0.0084,
      "velocity": 102,
      "chip": "ym2612"
    },
    {
      "channel": 2,
      "note": 32,
      "start": 0.1196,
      "duration": 0.008,
      "velocity": 77,
      "chip": "ym2612"
    },
    {
      "channel": 3,
      "note": 68,
      "start": 0.1209,
      "duration": 0.0068,
      "velocity": 97,
      "chip": "ym2612"
    },
    {
      "channel": 4,
      "note": 63,
      "start": 0.1222,
      "duration": 0.0056,
      "velocity": 97,
      "chip": "ym2612"
    },
    {
      "channel": 0,
      "note": 83,
      "start": 0.1257,
      "duration": 0.006,
      "velocity": 97,
      "chip": "ym2612"
    },
    {
      "channel": 1,
      "note": 82,
      "start": 0.1288,
      "duration": 0.0062,
      "velocity": 102,
      "chip": "ym2612"
    },
    {
      "channel": 2,
      "note": 32,
      "start": 0.1293,
      "duration": 0.0058,
      "velocity": 77,
      "chip": "ym2612"
    },
    {
      "channel": 0,
      "note": 82,
      "start": 0.1333,
      "duration": 0.0071,
      "velocity": 97,
      "chip": "ym2612"
    },
    {
      "channel": 1,
      "note": 83,
      "start": 0.1376,
      "duration": 0.0058,
      "velocity": 102,
      "chip": "ym2612"
    },
    {
      "channel": 2,
      "note": 32,
      "start": 0.1381,
      "duration": 0.0054,
      "velocity": 77,
      "chip": "ym2612"
    },
    {
      "channel": 0,
      "note": 83,
      "start": 0.1416,
      "duration": 0.0083,
      "velocity": 97,
      "chip": "ym2612"
    },
    {
      "channel": 1,
      "note": 85,
      "start": 0.1459,
      "duration": 0.0069,
      "velocity": 102,
      "chip": "ym2612"
    },
    {
      "channel": 2,
      "note": 32,
      "start": 0.1464,
      "duration": 0.0065,
      "velocity": 77,
      "chip": "ym2612"
    },
    {
      "channel": 3,
      "note": 66,
      "start": 0.1469,
      "duration": 0.0061,
      "velocity": 97,
      "chip": "ym2612"
    },
    {
      "channel": 4,
      "note": 61,
      "start": 0.1475,
      "duration": 0.0057,
      "velocity": 97,
      "chip": "ym2612"
    },
    {
      "channel": 0,
      "note": 85,
      "start": 0.151,
      "duration": 0.0059,
      "velocity": 97,
      "chip": "ym2612"
    },
    {
      "channel": 1,
      "note": 83,
      "start": 0.1543,
      "duration": 0.0055,
      "velocity": 102,
      "chip": "ym2612"
    },
    {
      "channel": 2,
      "note": 32,
      "start": 0.1548,
      "duration": 0.0051,
      "velocity": 77,
      "chip": "ym2612"
    },
    {
      "channel": 0,
      "note": 83,
      "start": 0.158,
      "duration": 0.0088,
      "velocity": 97,
      "chip": "ym2612"
    },
    {
      "channel": 1,
      "note": 85,
      "start": 0.1639,
      "duration": 0.0062,
      "velocity": 102,
      "chip": "ym2612"
    },
    {
      "channel": 2,
      "note": 32,
      "start": 0.1644,
      "duration": 0.0058,
      "velocity": 77,
      "chip": "ym2612"
    },
    {
      "channel": 0,
      "note": 85,
      "start": 0.1683,
      "duration": 0.0081,
      "velocity": 97,
      "chip": "ym2612"
    },
    {
      "channel": 1,
      "note": 87,
      "start": 0.1726,
      "duration": 0.0069,
      "velocity": 102,
      "chip": "ym2612"
    },
    {
      "channel": 2,
      "note": 32,
      "start": 0.1731,
      "duration": 0.0065,
      "velocity": 77,
      "chip": "ym2612"
    },
    {
      "channel": 3,
      "note": 68,
      "start": 0.1736,
      "duration": 0.0061,
      "velocity": 97,
      "chip": "ym2612"
    },
    {
      "channel": 4,
      "note": 63,
      "start": 0.1741,
      "duration": 0.0057,
      "velocity": 97,
      "chip": "ym2612"
    },
    {
      "channel": 0,
      "note": 87,
      "start": 0.1775,
      "duration": 0.0091,
      "velocity": 97,
      "chip": "ym2612"
    },
    {
      "channel": 1,
      "note": 85,
      "start": 0.1838,
      "duration": 0.0058,
      "velocity": 102,
      "chip": "ym2612"
    },
    {
      "channel": 2,
      "note": 32,
      "start": 0.1843,
      "duration": 0.0054,
      "velocity": 77,
      "chip": "ym2612"
    },
    {
      "channel": 0,
      "note": 85,
      "start": 0.1878,
      "duration": 0.0071,
      "velocity": 97,
      "chip": "ym2612"
    },
    {
      "channel": 1,
      "note": 87,
      "start": 0.1921,
      "duration": 0.0058,
      "velocity": 102,
      "chip": "ym2612"
    },
    {
      "channel": 2,
      "note": 32,
      "start": 0.1927,
      "duration": 0.0054,
      "velocity": 77,
      "chip": "ym2612"
    },
    {
      "channel": 0,
      "note": 87,
      "start": 0.196,
      "duration": 0.0068,
      "velocity": 97,
      "chip": "ym2612"
    },
    {
      "channel": 1,
      "note": 88,
      "start": 0.1991,
      "duration": 0.0066,
      "velocity": 102,
      "chip": "ym2612"
    },
    {
      "channel": 2,
      "note": 32,
      "start": 0.1997,
      "duration": 0.0062,
      "velocity": 77,
      "chip": "ym2612"
    },
    {
      "channel": 3,
      "note": 64,
      "start": 0.2002,
      "duration": 0.0059,
      "velocity": 97,
      "chip": "ym2612"
    },
    {
      "channel": 4,
      "note": 59,
      "start": 0.2007,
      "duration": 0.0054,
      "velocity": 97,
      "chip": "ym2612"
    },
    {
      "channel": 0,
      "note": 88,
      "start": 0.2039,
      "duration": 0.009,
      "velocity": 97,
      "chip": "ym2612"
    },
    {
      "channel": 1,
      "note": 87,
      "start": 0.21,
      "duration": 0.0059,
      "velocity": 102,
      "chip": "ym2612"
    },
    {
      "channel": 2,
      "note": 35,
      "start": 0.2105,
      "duration": 0.0055,
      "velocity": 77,
      "chip": "ym2612"
    },
    {
      "channel": 0,
      "note": 87,
      "start": 0.2141,
      "duration": 0.0083,
      "velocity": 97,
      "chip": "ym2612"
    },
    {
      "channel": 1,
      "note": 88,
      "start": 0.2184,
      "duration": 0.0073,
      "velocity": 102,
      "chip": "ym2612"
    },
    {
      "channel": 2,
      "note": 35,
      "start": 0.2189,
      "duration": 0.0068,
      "velocity": 77,
      "chip": "ym2612"
    },
    {
      "channel": 3,
      "note": 66,
      "start": 0.2194,
      "duration": 0.0242,
      "velocity": 97,
      "chip": "ym2612"
    },
    {
      "channel": 4,
      "note": 61,
      "start": 0.22,
      "duration": 0.0237,
      "velocity": 97,
      "chip": "ym2612"
    },
    {
      "channel": 0,
      "note": 88,
      "start": 0.2239,
      "duration": 0.0063,
      "velocity": 97,
      "chip": "ym2612"
    },
    {
      "channel": 1,
      "note": 90,
      "start": 0.2273,
      "duration": 0.0062,
      "velocity": 102,
      "chip": "ym2612"
    },
    {
      "channel": 2,
      "note": 35,
      "start": 0.2279,
      "duration": 0.0058,
      "velocity": 77,
      "chip": "ym2612"
    },
    {
      "channel": 0,
      "note": 90,
      "start": 0.2318,
      "duration": 0.0086,
      "velocity": 97,
      "chip": "ym2612"
    },
    {
      "channel": 1,
      "note": 88,
      "start": 0.2375,
      "duration": 0.0059,
      "velocity": 102,
      "chip": "ym2612"
    },
    {
      "channel": 2,
      "note": 35,
      "start": 0.238,
      "duration": 0.0054,
      "velocity": 77,
      "chip": "ym2612"
    },
    {
      "channel": 0,
      "note": 88,
      "start": 0.2416,
      "duration": 0.0073,
      "velocity": 97,
      "chip": "ym2612"
    },
    {
      "channel": 1,
      "note": 90,
      "start": 0.2459,
      "duration": 0.0061,
      "velocity": 102,
      "chip": "ym2612"
    },
    {
      "channel": 2,
      "note": 32,
      "start": 0.2463,
      "duration": 0.0057,
      "velocity": 77,
      "chip": "ym2612"
    },
    {
      "channel": 0,
      "note": 90,
      "start": 0.25,
      "duration": 0.0071,
      "velocity": 97,
      "chip": "ym2612"
    },
    {
      "channel": 1,
      "note": 92,
      "start": 0.2542,
      "duration": 0.0058,
      "velocity": 102,
      "chip": "ym2612"
    },
    {
      "channel": 2,
      "note": 32,
      "start": 0.2547,
      "duration": 0.0054,
      "velocity": 77,
      "chip": "ym2612"
    },
    {
      "channel": 0,
      "note": 92,
      "start": 0.2582,
      "duration": 0.0083,
      "velocity": 97,
      "chip": "ym2612"
    },
    {
      "channel": 1,
      "note": 90,
      "start": 0.2626,
      "duration": 0.0069,
      "velocity": 102,
      "chip": "ym2612"
    },
    {
      "channel": 2,
      "note": 32,
      "start": 0.2631,
      "duration": 0.0065,
      "velocity": 77,
      "chip": "ym2612"
    },
    {
      "channel": 3,
      "note": 68,
      "start": 0.2636,
      "duration": 0.0061,
      "velocity": 97,
      "chip": "ym2612"
    },
    {
      "channel": 4,
      "note": 63,
      "start": 0.2641,
      "duration": 0.0056,
      "velocity": 97,
      "chip": "ym2612"
    },
    {
      "channel": 0,
      "note": 90,
      "start": 0.2676,
      "duration": 0.0078,
      "velocity": 97,
      "chip": "ym2612"
    },
    {
      "channel": 1,
      "note": 92,
      "start": 0.2724,
      "duration": 0.0058,
      "velocity": 102,
      "chip": "ym2612"
    },
    {
      "channel": 2,
      "note": 32,
      "start": 0.273,
      "duration": 0.0054,
      "velocity": 77,
      "chip": "ym2612"
    },
    {
      "channel": 0,
      "note": 92,
      "start": 0.2765,
      "duration": 0.0071,
      "velocity": 97,
      "chip": "ym2612"
    },
    {
      "channel": 1,
      "note": 94,
      "start": 0.2808,
      "duration": 0.0062,
      "velocity": 102,
      "chip": "ym2612"
    },
    {
      "channel": 2,
      "note": 32,
      "start": 0.2813,
      "duration": 0.0058,
      "velocity": 77,
      "chip": "ym2612"
    },
    {
      "channel": 0,
      "note": 94,
      "start": 0.2851,
      "duration": 0.0083,
      "velocity": 97,
      "chip": "ym2612"
    },
    {
      "channel": 1,
      "note": 92,
      "start": 0.2895,
      "duration": 0.0072,
      "velocity": 102,
      "chip": "ym2612"
    },
    {
      "channel": 2,
      "note": 32,
      "start": 0.29,
      "duration": 0.0068,
      "velocity": 77,
      "chip": "ym2612"
    },
    {
      "channel": 3,
      "note": 66,
      "start": 0.2905,
      "duration": 0.0065,
      "velocity": 97,
      "chip": "ym2612"
    },
    {
      "channel": 4,
      "note": 61,
      "start": 0.2911,
      "duration": 0.006,
      "velocity": 97,
      "chip": "ym2612"
    },
    {
      "channel": 0,
      "note": 92,
      "start": 0.295,
      "duration": 0.009,
      "velocity": 97,
      "chip": "ym2612"
    },
    {
      "channel": 1,
      "note": 94,
      "start": 0.3011,
      "duration": 0.0058,
      "velocity": 102,
      "chip": "ym2612"
    },
    {
      "channel": 2,
      "note": 32,
      "start": 0.3016,
      "duration": 0.0054,
      "velocity": 77,
      "chip": "ym2612"
    },
    {
      "channel": 0,
      "note": 94,
      "start": 0.3051,
      "duration": 0.0086,
      "velocity": 97,
      "chip": "ym2612"
    },
    {
      "channel": 1,
      "note": 95,
      "start": 0.311,
      "duration": 0.0058,
      "velocity": 102,
      "chip": "ym2612"
    },
    {
      "channel": 2,
      "note": 32,
      "start": 0.3115,
      "duration": 0.0054,
      "velocity": 77,
      "chip": "ym2612"
    },
    {
      "channel": 0,
      "note": 95,
      "start": 0.3149,
      "duration": 0.0084,
      "velocity": 97,
      "chip": "ym2612"
    },
    {
      "channel": 1,
      "note": 97,
      "start": 0.3193,
      "duration": 0.0069,
      "velocity": 102,
      "chip": "ym2612"
    },
    {
      "channel": 2,
      "note": 32,
      "start": 0.3198,
      "duration": 0.0065,
      "velocity": 77,
      "chip": "ym2612"
    },
    {
      "channel": 3,
      "note": 68,
      "start": 0.3203,
      "duration": 0.0061,
      "velocity": 97,
      "chip": "ym2612"
    },
    {
      "channel": 4,
      "note": 63,
      "start": 0.3209,
      "duration": 0.0057,
      "velocity": 97,
      "chip": "ym2612"
    },
    {
      "channel": 0,
      "note": 97,
      "start": 0.3244,
      "duration": 0.009,
      "velocity": 97,
      "chip": "ym2612"
    },
    {
      "channel": 1,
      "note": 95,
      "start": 0.3304,
      "duration": 0.0057,
      "velocity": 102,
      "chip": "ym2612"
    },
    {
      "channel": 2,
      "note": 32,
      "start": 0.331,
      "duration": 0.0053,
      "velocity": 77,
      "chip": "ym2612"
    },
    {
      "channel": 0,
      "note": 95,
      "start": 0.3344,
      "duration": 0.0071,
      "velocity": 97,
      "chip": "ym2612"
    },
    {
      "channel": 1,
      "note": 94,
      "start": 0.3387,
      "duration": 0.0062,
      "velocity": 102,
      "chip": "ym2612"
    },
    {
      "channel": 2,
      "note": 27,
      "start": 0.3392,
      "duration": 0.0058,
      "velocity": 77,
      "chip": "ym2612"
    },
    {
      "channel": 0,
      "note": 94,
      "start": 0.3431,
      "duration": 0.0099,
      "velocity": 97,
      "chip": "ym2612"
    },
    {
      "channel": 1,
      "note": 95,
      "start": 0.349,
      "duration": 0.0073,
      "velocity": 102,
      "chip": "ym2612"
    },
    {
      "channel": 2,
      "note": 27,
      "start": 0.3495,
      "duration": 0.0069,
      "velocity": 77,
      "chip": "ym2612"
    },
    {
      "channel": 3,
      "note": 64,
      "start": 0.35,
      "duration": 0.0065,
      "velocity": 97,
      "chip": "ym2612"
    },
    {
      "channel": 4,
      "note": 59,
      "start": 0.3506,
      "duration": 0.0061,
      "velocity": 97,
      "chip": "ym2612"
    },
    {
      "channel": 0,
      "note": 95,
      "start": 0.3545,
      "duration": 0.0088,
      "velocity": 97,
      "chip": "ym2612"
    },
    {
      "channel": 1,
      "note": 94,
      "start": 0.3605,
      "duration": 0.0061,
      "velocity": 102,
      "chip": "ym2612"
    },
    {
      "channel": 2,
      "note": 28,
      "start": 0.361,
      "duration": 0.0057,
      "velocity": 77,
      "chip": "ym2612"
    },
    {
      "channel": 0,
      "note": 94,
      "start": 0.3648,
      "duration": 0.0083,
      "velocity": 97,
      "chip": "ym2612"
    },
    {
      "channel": 1,
      "note": 92,
      "start": 0.3692,
      "duration": 0.007,
      "velocity": 102,
      "chip": "ym2612"
    },
    {
      "channel": 2,
      "note": 28,
      "start": 0.3697,
      "duration": 0.0066,
      "velocity": 77,
      "chip": "ym2612"
    },
    {
      "channel": 3,
      "note": 66,
      "start": 0.3702,
      "duration": 0.0236,
      "velocity": 97,
      "chip": "ym2612"
    },
    {
      "channel": 4,
      "note": 61,
      "start": 0.3707,
      "duration": 0.0232,
      "velocity": 97,
      "chip": "ym2612"
    },
    {
      "channel": 0,
      "note": 92,
      "start": 0.3742,
      "duration": 0.0063,
      "velocity": 97,
      "chip": "ym2612"
    },
    {
      "channel": 1,
      "note": 94,
      "start": 0.3776,
      "duration": 0.0059,
      "velocity": 102,
      "chip": "ym2612"
    },
    {
      "channel": 2,
      "note": 30,
      "start": 0.3781,
      "duration": 0.0055,
      "velocity": 77,
      "chip": "ym2612"
    },
    {
      "channel": 0,
      "note": 94,
      "start": 0.3816,
      "duration": 0.0089,
      "velocity": 97,
      "chip": "ym2612"
    },
    {
      "channel": 1,
      "note": 92,
      "start": 0.3876,
      "duration": 0.0059,
      "velocity": 102,
      "chip": "ym2612"
    },
    {
      "channel": 2,
      "note": 30,
      "start": 0.3881,
      "duration": 0.0055,
      "velocity": 77,
      "chip": "ym2612"
    },
    {
      "channel": 0,
      "note": 92,
      "start": 0.3916,
      "duration": 0.0075,
      "velocity": 97,
      "chip": "ym2612"
    },
    {
      "channel": 1,
      "note": 90,
      "start": 0.3961,
      "duration": 0.0061,
      "velocity": 102,
      "chip": "ym2612"
    },
    {
      "channel": 2,
      "note": 32,
      "start": 0.3966,
      "duration": 0.0057,
      "velocity": 77,
      "chip": "ym2612"
    },
    {
      "channel": 0,
      "note": 90,
      "start": 0.4005,
      "duration": 0.0068,
      "velocity": 97,
      "chip": "ym2612"
    },
    {
      "channel": 1,
      "note": 92,
      "start": 0.4045,
      "duration": 0.0058,
      "velocity": 102,
      "chip": "ym2612"
    },
    {
      "channel": 2,
      "note": 32,
      "start": 0.405,
      "duration": 0.0054,
      "velocity": 77,
      "chip": "ym2612"
    },
    {
      "channel": 0,
      "note": 92,
      "start": 0.4084,
      "duration": 0.0083,
      "velocity": 97,
      "chip": "ym2612"
    },
    {
      "channel": 1,
      "note": 90,
      "start": 0.4128,
      "duration": 0.0069,
      "velocity": 102,
      "chip": "ym2612"
    },
    {
      "channel": 2,
      "note": 32,
      "start": 0.4134,
      "duration": 0.0065,
      "velocity": 77,
      "chip": "ym2612"
    },
    {
      "channel": 3,
      "note": 68,
      "start": 0.4139,
      "duration": 0.0061,
      "velocity": 97,
      "chip": "ym2612"
    },
    {
      "channel": 4,
      "note": 63,
      "start": 0.4144,
      "duration": 0.0057,
      "velocity": 97,
      "chip": "ym2612"
    },
    {
      "channel": 0,
      "note": 90,
      "start": 0.4179,
      "duration": 0.0076,
      "velocity": 97,
      "chip": "ym2612"
    },
    {
      "channel": 1,
      "note": 88,
      "start": 0.4226,
      "duration": 0.0058,
      "velocity": 102,
      "chip": "ym2612"
    },
    {
      "channel": 2,
      "note": 32,
      "start": 0.4232,
      "duration": 0.0054,
      "velocity": 77,
      "chip": "ym2612"
    },
    {
      "channel": 0,
      "note": 88,
      "start": 0.4267,
      "duration": 0.0072,
      "velocity": 97,
      "chip": "ym2612"
    },
    {
      "channel": 1,
      "note": 90,
      "start": 0.431,
      "duration": 0.0062,
      "velocity": 102,
      "chip": "ym2612"
    },
    {
      "channel": 2,
      "note": 32,
      "start": 0.4315,
      "duration": 0.0058,
      "velocity": 77,
      "chip": "ym2612"
    },
    {
      "channel": 0,
      "note": 90,
      "start": 0.4354,
      "duration": 0.0081,
      "velocity": 97,
      "chip": "ym2612"
    },
    {
      "channel": 1,
      "note": 88,
      "start": 0.4397,
      "duration": 0.0069,
      "velocity": 102,
      "chip": "ym2612"
    },
    {
      "channel": 2,
      "note": 32,
      "start": 0.4402,
      "duration": 0.0065,
      "velocity": 77,
      "chip": "ym2612"
    },
    {
      "channel": 3,
      "note": 66,
      "start": 0.4407,
      "duration": 0.0061,
      "velocity": 97,
      "chip": "ym2612"
    },
    {
      "channel": 4,
      "note": 61,
      "start": 0.4413,
      "duration": 0.0057,
      "velocity": 97,
      "chip": "ym2612"
    },
    {
      "channel": 0,
      "note": 88,
      "start": 0.4447,
      "duration": 0.0091,
      "velocity": 97,
      "chip": "ym2612"
    },
    {
      "channel": 1,
      "note": 87,
      "start": 0.451,
      "duration": 0.0058,
      "velocity": 102,
      "chip": "ym2612"
    },
    {
      "channel": 2,
      "note": 32,
      "start": 0.4515,
      "duration": 0.0054,
      "velocity": 77,
      "chip": "ym2612"
    },
    {
      "channel": 0,
      "note": 87,
      "start": 0.455,
      "duration": 0.0087,
      "velocity": 97,
      "chip": "ym2612"
    },
    {
      "channel": 1,
      "note": 88,
      "start": 0.4609,
      "duration": 0.0058,
      "velocity": 102,
      "chip": "ym2612"
    },
    {
      "channel": 2,
      "note": 32,
      "start": 0.4614,
      "duration": 0.0054,
      "velocity": 77,
      "chip": "ym2612"
    },
    {
      "channel": 0,
      "note": 88,
      "start": 0.4648,
      "duration": 0.0083,
      "velocity": 97,
      "chip": "ym2612"
    },
    {
      "channel": 1,
      "note": 87,
      "start": 0.4692,
      "duration": 0.0069,
      "velocity": 102,
      "chip": "ym2612"
    },
    {
      "channel": 2,
      "note": 32,
      "start": 0.4698,
      "duration": 0.0065,
      "velocity": 77,
      "chip": "ym2612"
    },
    {
      "channel": 3,
      "note": 68,
      "start": 0.4702,
      "duration": 0.0061,
      "velocity": 97,
      "chip": "ym2612"
    },
    {
      "channel": 4,
      "note": 63,
      "start": 0.4708,
      "duration": 0.0057,
      "velocity": 97,
      "chip": "ym2612"
    },
    {
      "channel": 0,
      "note": 87,
      "start": 0.4743,
      "duration": 0.0089,
      "velocity": 97,
      "chip": "ym2612"
    },
    {
      "channel": 1,
      "note": 85,
      "start": 0.4804,
      "duration": 0.0058,
      "velocity": 102,
      "chip": "ym2612"
    },
    {
      "channel": 2,
      "note": 32,
      "start": 0.4809,
      "duration": 0.0054,
      "velocity": 77,
      "chip": "ym2612"
    },
    {
      "channel": 0,
      "note": 85,
      "start": 0.4844,
      "duration": 0.0072,
      "velocity": 97,
      "chip": "ym2612"
    },
    {
      "channel": 1,
      "note": 87,
      "start": 0.4887,
      "duration": 0.0062,
      "velocity": 102,
      "chip": "ym2612"
    },
    {
      "channel": 2,
      "note": 32,
      "start": 0.4892,
      "duration": 0.0058,
      "velocity": 77,
      "chip": "ym2612"
    },
    {
      "channel": 0,
      "note": 87,
      "start": 0.4932,
      "duration": 0.0097,
      "velocity": 97,
      "chip": "ym2612"
    },
    {
      "channel": 1,
      "note": 85,
      "start": 0.499,
      "duration": 0.0069,
      "velocity": 102,
      "chip": "ym2612"
    },
    {
      "channel": 2,
      "note": 32,
      "start": 0.4996,
      "duration": 0.0065,
      "velocity": 77,
      "chip": "ym2612"
    },
    {
      "channel": 3,
      "note": 64,
      "start": 0.5001,
      "duration": 0.0061,
      "velocity": 97,
      "chip": "ym2612"
    },
    {
      "channel": 4,
      "note": 59,
      "start": 0.5006,
      "duration": 0.0057,
      "velocity": 97,
      "chip": "ym2612"
    },
    {
      "channel": 0,
      "note": 85,
      "start": 0.504,
      "duration": 0.009,
      "velocity": 97,
      "chip": "ym2612"
    },
    {
      "channel": 1,
      "note": 83,
      "start": 0.5103,
      "duration": 0.0059,
      "velocity": 102,
      "chip": "ym2612"
    },
    {
      "channel": 2,
      "note": 35,
      "start": 0.5108,
      "duration": 0.0055,
      "velocity": 77,
      "chip": "ym2612"
    },
    {
      "channel": 0,
      "note": 83,
      "start": 0.5143,
      "duration": 0.0083,
      "velocity": 97,
      "chip": "ym2612"
    },
    {
      "channel": 1,
      "note": 85,
      "start": 0.5187,
      "duration": 0.0069,
      "velocity": 102,
      "chip": "ym2612"
    },
    {
      "channel": 2,
      "note": 35,
      "start": 0.5192,
      "duration": 0.0065,
      "velocity": 77,
      "chip": "ym2612"
    },
    {
      "channel": 3,
      "note": 66,
      "start": 0.5197,
      "duration": 0.0229,
      "velocity": 97,
      "chip": "ym2612"
    },
    {
      "channel": 4,
      "note": 61,
      "start": 0.5203,
      "duration": 0.0224,
      "velocity": 97,
      "chip": "ym2612"
    },
    {
      "channel": 0,
      "note": 85,
      "start": 0.5238,
      "duration": 0.0059,
      "velocity": 97,
      "chip": "ym2612"
    },
    {
      "channel": 1,
      "note": 83,
      "start": 0.5269,
      "duration": 0.0057,
      "velocity": 102,
      "chip": "ym2612"
    },
    {
      "channel": 2,
      "note": 35,
      "start": 0.5274,
      "duration": 0.0053,
      "velocity": 77,
      "chip": "ym2612"
    },
    {
      "channel": 0,
      "note": 83,
      "start": 0.5307,
      "duration": 0.0087,
      "velocity": 97,
      "chip": "ym2612"
    },
    {
      "channel": 1,
      "note": 82,
      "start": 0.5367,
      "duration": 0.0057,
      "velocity": 102,
      "chip": "ym2612"
    },
    {
      "channel": 2,
      "note": 35,
      "start": 0.5372,
      "duration": 0.0053,
      "velocity": 77,
      "chip": "ym2612"
    },
    {
      "channel": 0,
      "note": 82,
      "start": 0.5405,
      "duration": 0.0075,
      "velocity": 97,
      "chip": "ym2612"
    },
    {
      "channel": 1,
      "note": 80,
      "start": 0.5449,
      "duration": 0.0064,
      "velocity": 102,
      "chip": "ym2612"
    },
    {
      "channel": 2,
      "note": 32,
      "start": 0.5455,
      "duration": 0.0059,
      "velocity": 77,
      "chip": "ym2612"
    },
    {
      "channel": 0,
      "note": 80,
      "start": 0.5495,
      "duration": 0.0069,
      "velocity": 97,
      "chip": "ym2612"
    },
    {
      "channel": 1,
      "note": 82,
      "start": 0.5536,
      "duration": 0.0062,
      "velocity": 102,
      "chip": "ym2612"
    },
    {
      "channel": 2,
      "note": 32,
      "start": 0.5541,
      "duration": 0.0058,
      "velocity": 77,
      "chip": "ym2612"
    },
    {
      "channel": 0,
      "note": 82,
      "start": 0.558,
      "duration": 0.0083,
      "velocity": 97,
      "chip": "ym2612"
    },
    {
      "channel": 1,
      "note": 83,
      "start": 0.5624,
      "duration": 0.007,
      "velocity": 102,
      "chip": "ym2612"
    },
    {
      "channel": 2,
      "note": 32,
      "start": 0.5629,
      "duration": 0.0066,
      "velocity": 77,
      "chip": "ym2612"
    },
    {
      "channel": 3,
      "note": 68,
      "start": 0.5634,
      "duration": 0.0062,
      "velocity": 97,
      "chip": "ym2612"
    },
    {
      "channel": 4,
      "note": 63,
      "start": 0.5639,
      "duration": 0.0058,
      "velocity": 97,
      "chip": "ym2612"
    },
    {
      "channel": 0,
      "note": 83,
      "start": 0.5674,
      "duration": 0.0078,
      "velocity": 97,
      "chip": "ym2612"
    },
    {
      "channel": 1,
      "note": 85,
      "start": 0.5723,
      "duration": 0.0058,
      "velocity": 102,
      "chip": "ym2612"
    },
    {
      "channel": 2,
      "note": 32,
      "start": 0.5729,
      "duration": 0.0054,
      "velocity": 77,
      "chip": "ym2612"
    },
    {
      "channel": 0,
      "note": 85,
      "start": 0.5763,
      "duration": 0.0071,
      "velocity": 97,
      "chip": "ym2612"
    },
    {
      "channel": 1,
      "note": 83,
      "start": 0.5807,
      "duration": 0.0058,
      "velocity": 102,
      "chip": "ym2612"
    },
    {
      "channel": 2,
      "note": 32,
      "start": 0.5812,
      "duration": 0.0054,
      "velocity": 77,
      "chip": "ym2612"
    },
    {
      "channel": 0,
      "note": 83,
      "start": 0.5846,
      "duration": 0.0083,
      "velocity": 97,
      "chip": "ym2612"
    },
    {
      "channel": 1,
      "note": 85,
      "start": 0.589,
      "duration": 0.0069,
      "velocity": 102,
      "chip": "ym2612"
    },
    {
      "channel": 2,
      "note": 32,
      "start": 0.5895,
      "duration": 0.0065,
      "velocity": 77,
      "chip": "ym2612"
    },
    {
      "channel": 3,
      "note": 66,
      "start": 0.59,
      "duration": 0.0061,
      "velocity": 97,
      "chip": "ym2612"
    },
    {
      "channel": 4,
      "note": 61,
      "start": 0.5906,
      "duration": 0.0057,
      "velocity": 97,
      "chip": "ym2612"
    },
    {
      "channel": 0,
      "note": 85,
      "start": 0.594,
      "duration": 0.0089,
      "velocity": 97,
      "chip": "ym2612"
    },
    {
      "channel": 1,
      "note": 87,
      "start": 0.6001,
      "duration": 0.0062,
      "velocity": 102,
      "chip": "ym2612"
    },
    {
      "channel": 2,
      "note": 32,
      "start": 0.6006,
      "duration": 0.0058,
      "velocity": 77,
      "chip": "ym2612"
    },
    {
      "channel": 0,
      "note": 87,
      "start": 0.6045,
      "duration": 0.0088,
      "velocity": 97,
      "chip": "ym2612"
    },
    {
      "channel": 1,
      "note": 85,
      "start": 0.6104,
      "duration": 0.0059,
      "velocity": 102,
      "chip": "ym2612"
    },
    {
      "channel": 2,
      "note": 32,
      "start": 0.611,
      "duration": 0.0054,
      "velocity": 77,
      "chip": "ym2612"
    },
    {
      "channel": 0,
      "note": 85,
      "start": 0.6144,
      "duration": 0.0083,
      "velocity": 97,
      "chip": "ym2612"
    },
    {
      "channel": 1,
      "note": 87,
      "start": 0.6188,
      "duration": 0.007,
      "velocity": 102,
      "chip": "ym2612"
    },
    {
      "channel": 2,
      "note": 32,
      "start": 0.6193,
      "duration": 0.0066,
      "velocity": 77,
      "chip": "ym2612"
    },
    {
      "channel": 3,
      "note": 68,
      "start": 0.6198,
      "duration": 0.0062,
      "velocity": 97,
      "chip": "ym2612"
    },
    {
      "channel": 4,
      "note": 63,
      "start": 0.6204,
      "duration": 0.0057,
      "velocity": 97,
      "chip": "ym2612"
    },
    {
      "channel": 0,
      "note": 87,
      "start": 0.6239,
      "duration": 0.0091,
      "velocity": 97,
      "chip": "ym2612"
    },
    {
      "channel": 1,
      "note": 88,
      "start": 0.6301,
      "duration": 0.0058,
      "velocity": 102,
      "chip": "ym2612"
    },
    {
      "channel": 2,
      "note": 32,
      "start": 0.6307,
      "duration": 0.0054,
      "velocity": 77,
      "chip": "ym2612"
    },
    {
      "channel": 0,
      "note": 88,
      "start": 0.6341,
      "duration": 0.0071,
      "velocity": 97,
      "chip": "ym2612"
    },
    {
      "channel": 1,
      "note": 87,
      "start": 0.6384,
      "duration": 0.0058,
      "velocity": 102,
      "chip": "ym2612"
    },
    {
      "channel": 2,
      "note": 27,
      "start": 0.6389,
      "duration": 0.0054,
      "velocity": 77,
      "chip": "ym2612"
    },
    {
      "channel": 0,
      "note": 87,
      "start": 0.6425,
      "duration": 0.0099,
      "velocity": 97,
      "chip": "ym2612"
    },
    {
      "channel": 1,
      "note": 88,
      "start": 0.6483,
      "duration": 0.0073,
      "velocity": 102,
      "chip": "ym2612"
    },
    {
      "channel": 2,
      "note": 27,
      "start": 0.6488,
      "duration": 0.0069,
      "velocity": 77,
      "chip": "ym2612"
    },
    {
      "channel": 3,
      "note": 64,
      "start": 0.6493,
      "duration": 0.0066,
      "velocity": 97,
      "chip": "ym2612"
    },
    {
      "channel": 4,
      "note": 59,
      "start": 0.6499,
      "duration": 0.0061,
      "velocity": 97,
      "chip": "ym2612"
    },
    {
      "channel": 0,
      "note": 88,
      "start": 0.6539,
      "duration": 0.0088,
      "velocity": 97,
      "chip": "ym2612"
    },
    {
      "channel": 1,
      "note": 90,
      "start": 0.6599,
      "duration": 0.0058,
      "velocity": 102,
      "chip": "ym2612"
    },
    {
      "channel": 2,
      "note": 28,
      "start": 0.6604,
      "duration": 0.0054,
      "velocity": 77,
      "chip": "ym2612"
    },
    {
      "channel": 0,
      "note": 90,
      "start": 0.6638,
      "duration": 0.0083,
      "velocity": 97,
      "chip": "ym2612"
    },
    {
      "channel": 1,
      "note": 92,
      "start": 0.6682,
      "duration": 0.0069,
      "velocity": 102,
      "chip": "ym2612"
    },
    {
      "channel": 2,
      "note": 28,
      "start": 0.6687,
      "duration": 0.0065,
      "velocity": 77,
      "chip": "ym2612"
    },
    {
      "channel": 3,
      "note": 66,
      "start": 0.6692,
      "duration": 0.0234,
      "velocity": 97,
      "chip": "ym2612"
    },
    {
      "channel": 4,
      "note": 61,
      "start": 0.6698,
      "duration": 0.0229,
      "velocity": 97,
      "chip": "ym2612"
    },
    {
      "channel": 0,
      "note": 92,
      "start": 0.6732,
      "duration": 0.0062,
      "velocity": 97,
      "chip": "ym2612"
    },
    {
      "channel": 1,
      "note": 90,
      "start": 0.6766,
      "duration": 0.0058,
      "velocity": 102,
      "chip": "ym2612"
    },
    {
      "channel": 2,
      "note": 30,
      "start": 0.6771,
      "duration": 0.0054,
      "velocity": 77,
      "chip": "ym2612"
    },
    {
      "channel": 0,
      "note": 90,
      "start": 0.6806,
      "duration": 0.0087,
      "velocity": 97,
      "chip": "ym2612"
    },
    {
      "channel": 1,
      "note": 88,
      "start": 0.6865,
      "duration": 0.0058,
      "velocity": 102,
      "chip": "ym2612"
    },
    {
      "channel": 2,
      "note": 30,
      "start": 0.687,
      "duration": 0.0054,
      "velocity": 77,
      "chip": "ym2612"
    },
    {
      "channel": 0,
      "note": 88,
      "start": 0.6905,
      "duration": 0.009,
      "velocity": 97,
      "chip": "ym2612"
    },
    {
      "channel": 1,
      "note": 80,
      "start": 0.6964,
      "duration": 0.0064,
      "velocity": 102,
      "chip": "ym2612"
    },
    {
      "channel": 2,
      "note": 32,
      "start": 0.697,
      "duration": 0.006,
      "velocity": 77,
      "chip": "ym2612"
    },
    {
      "channel": 0,
      "note": 80,
      "start": 0.701,
      "duration": 0.0069,
      "velocity": 97,
      "chip": "ym2612"
    },
    {
      "channel": 1,
      "note": 82,
      "start": 0.705,
      "duration": 0.0057,
      "velocity": 102,
      "chip": "ym2612"
    },
    {
      "channel": 2,
      "note": 32,
      "start": 0.7055,
      "duration": 0.0053,
      "velocity": 77,
      "chip": "ym2612"
    },
    {
      "channel": 0,
      "note": 82,
      "start": 0.709,
      "duration": 0.0083,
      "velocity": 97,
      "chip": "ym2612"
    },
    {
      "channel": 1,
      "note": 83,
      "start": 0.7133,
      "duration": 0.0073,
      "velocity": 102,
      "chip": "ym2612"
    },
    {
      "channel": 2,
      "note": 32,
      "start": 0.7138,
      "duration": 0.0069,
      "velocity": 77,
      "chip": "ym2612"
    },
    {
      "channel": 3,
      "note": 68,
      "start": 0.7143,
      "duration": 0.0065,
      "velocity": 97,
      "chip": "ym2612"
    },
    {
      "channel": 4,
      "note": 63,
      "start": 0.7149,
      "duration": 0.0061,
      "velocity": 97,
      "chip": "ym2612"
    },
    {
      "channel": 0,
      "note": 83,
      "start": 0.7188,
      "duration": 0.0076,
      "velocity": 97,
      "chip": "ym2612"
    },
    {
      "channel": 1,
      "note": 82,
      "start": 0.7236,
      "duration": 0.0059,
      "velocity": 102,
      "chip": "ym2612"
    },
    {
      "channel": 2,
      "note": 32,
      "start": 0.7241,
      "duration": 0.0054,
      "velocity": 77,
      "chip": "ym2612"
    },
    {
      "channel": 0,
      "note": 82,
      "start": 0.7276,
      "duration": 0.0071,
      "velocity": 97,
      "chip": "ym2612"
    },
    {
      "channel": 1,
      "note": 83,
      "start": 0.732,
      "duration": 0.0058,
      "velocity": 102,
      "chip": "ym2612"
    },
    {
      "channel": 2,
      "note": 32,
      "start": 0.7325,
      "duration": 0.0054,
      "velocity": 77,
      "chip": "ym2612"
    },
    {
      "channel": 0,
      "note": 83,
      "start": 0.7359,
      "duration": 0.0084,
      "velocity": 97,
      "chip": "ym2612"
    },
    {
      "channel": 1,
      "note": 85,
      "start": 0.7403,
      "duration": 0.0069,
      "velocity": 102,
      "chip": "ym2612"
    },
    {
      "channel": 2,
      "note": 32,
      "start": 0.7408,
      "duration": 0.0065,
      "velocity": 77,
      "chip": "ym2612"
    },
    {
      "channel": 3,
      "note": 66,
      "start": 0.7413,
      "duration": 0.0061,
      "velocity": 97,
      "chip": "ym2612"
    },
    {
      "channel": 4,
      "note": 61,
      "start": 0.7419,
      "duration": 0.0057,
      "velocity": 97,
      "chip": "ym2612"
    },
    {
      "channel": 0,
      "note": 85,
      "start": 0.7454,
      "duration": 0.009,
      "velocity": 97,
      "chip": "ym2612"
    },
    {
      "channel": 1,
      "note": 83,
      "start": 0.7514,
      "duration": 0.0057,
      "velocity": 102,
      "chip": "ym2612"
    },
    {
      "channel": 2,
      "note": 32,
      "start": 0.752,
      "duration": 0.0053,
      "velocity": 77,
      "chip": "ym2612"
    },
    {
      "channel": 0,
      "note": 83,
      "start": 0.7554,
      "duration": 0.0088,
      "velocity": 97,
      "chip": "ym2612"
    },
    {
      "channel": 1,
      "note": 85,
      "start": 0.7612,
      "duration": 0.0062,
      "velocity": 102,
      "chip": "ym2612"
    },
    {
      "channel": 2,
      "note": 32,
      "start": 0.7618,
      "duration": 0.0058,
      "velocity": 77,
      "chip": "ym2612"
    },
    {
      "channel": 0,
      "note": 85,
      "start": 0.7657,
      "duration": 0.0081,
      "velocity": 97,
      "chip": "ym2612"
    },
    {
      "channel": 1,
      "note": 87,
      "start": 0.77,
      "duration": 0.0069,
      "velocity": 102,
      "chip": "ym2612"
    },
    {
      "channel": 2,
      "note": 32,
      "start": 0.7705,
      "duration": 0.0065,
      "velocity": 77,
      "chip": "ym2612"
    },
    {
      "channel": 3,
      "note": 68,
      "start": 0.771,
      "duration": 0.0061,
      "velocity": 97,
      "chip": "ym2612"
    },
    {
      "channel": 4,
      "note": 63,
      "start": 0.7715,
      "duration": 0.0056,
      "velocity": 97,
      "chip": "ym2612"
    },
    {
      "channel": 0,
      "note": 87,
      "start": 0.775,
      "duration": 0.009,
      "velocity": 97,
      "chip": "ym2612"
    },
    {
      "channel": 1,
      "note": 85,
      "start": 0.7812,
      "duration": 0.0057,
      "velocity": 102,
      "chip": "ym2612"
    },
    {
      "channel": 2,
      "note": 32,
      "start": 0.7817,
      "duration": 0.0053,
      "velocity": 77,
      "chip": "ym2612"
    },
    {
      "channel": 0,
      "note": 85,
      "start": 0.7851,
      "duration": 0.0073,
      "velocity": 97,
      "chip": "ym2612"
    },
    {
      "channel": 1,
      "note": 87,
      "start": 0.7895,
      "duration": 0.0063,
      "velocity": 102,
      "chip": "ym2612"
    },
    {
      "channel": 2,
      "note": 32,
      "start": 0.79,
      "duration": 0.0059,
      "velocity": 77,
      "chip": "ym2612"
    },
    {
      "channel": 0,
      "note": 87,
      "start": 0.7939,
      "duration": 0.0099,
      "velocity": 97,
      "chip": "ym2612"
    },
    {
      "channel": 1,
      "note": 88,
      "start": 0.7999,
      "duration": 0.007,
      "velocity": 102,
      "chip": "ym2612"
    },
    {
      "channel": 2,
      "note": 32,
      "start": 0.8004,
      "duration": 0.0066,
      "velocity": 77,
      "chip": "ym2612"
    },
    {
      "channel": 3,
      "note": 64,
      "start": 0.8009,
      "duration": 0.0062,
      "velocity": 97,
      "chip": "ym2612"
    },
    {
      "channel": 4,
      "note": 59,
      "start": 0.8015,
      "duration": 0.0058,
      "velocity": 97,
      "chip": "ym2612"
    },
    {
      "channel": 0,
      "note": 88,
      "start": 0.8049,
      "duration": 0.009,
      "velocity": 97,
      "chip": "ym2612"
    },
    {
      "channel": 1,
      "note": 87,
      "start": 0.8112,
      "duration": 0.0059,
      "velocity": 102,
      "chip": "ym2612"
    },
    {
      "channel": 2,
      "note": 35,
      "start": 0.8117,
      "duration": 0.0055,
      "velocity": 77,
      "chip": "ym2612"
    },
    {
      "channel": 0,
      "note": 87,
      "start": 0.8152,
      "duration": 0.0083,
      "velocity": 97,
      "chip": "ym2612"
    },
    {
      "channel": 1,
      "note": 88,
      "start": 0.8196,
      "duration": 0.0069,
      "velocity": 102,
      "chip": "ym2612"
    },
    {
      "channel": 2,
      "note": 35,
      "start": 0.8202,
      "duration": 0.0065,
      "velocity": 77,
      "chip": "ym2612"
    },
    {
      "channel": 3,
      "note": 66,
      "start": 0.8207,
      "duration": 0.0229,
      "velocity": 97,
      "chip": "ym2612"
    },
    {
      "channel": 4,
      "note": 61,
      "start": 0.8212,
      "duration": 0.0224,
      "velocity": 97,
      "chip": "ym2612"
    },
    {
      "channel": 0,
      "note": 88,
      "start": 0.8247,
      "duration": 0.0059,
      "velocity": 97,
      "chip": "ym2612"
    },
    {
      "channel": 1,
      "note": 90,
      "start": 0.8278,
      "duration": 0.0057,
      "velocity": 102,
      "chip": "ym2612"
    },
    {
      "channel": 2,
      "note": 35,
      "start": 0.8283,
      "duration": 0.0053,
      "velocity": 77,
      "chip": "ym2612"
    },
    {
      "channel": 0,
      "note": 90,
      "start": 0.8317,
      "duration": 0.0087,
      "velocity": 97,
      "chip": "ym2612"
    },
    {
      "channel": 1,
      "note": 88,
      "start": 0.8376,
      "duration": 0.0057,
      "velocity": 102,
      "chip": "ym2612"
    },
    {
      "channel": 2,
      "note": 35,
      "start": 0.8381,
      "duration": 0.0053,
      "velocity": 77,
      "chip": "ym2612"
    },
    {
      "channel": 0,
      "note": 88,
      "start": 0.8415,
      "duration": 0.0075,
      "velocity": 97,
      "chip": "ym2612"
    },
    {
      "channel": 1,
      "note": 90,
      "start": 0.8459,
      "duration": 0.0063,
      "velocity": 102,
      "chip": "ym2612"
    },
    {
      "channel": 2,
      "note": 32,
      "start": 0.8464,
      "duration": 0.006,
      "velocity": 77,
      "chip": "ym2612"
    },
    {
      "channel": 0,
      "note": 90,
      "start": 0.8505,
      "duration": 0.0069,
      "velocity": 97,
      "chip": "ym2612"
    },
    {
      "channel": 1,
      "note": 92,
      "start": 0.8544,
      "duration": 0.0057,
      "velocity": 102,
      "chip": "ym2612"
    },
    {
      "channel": 2,
      "note": 32,
      "start": 0.8549,
      "duration": 0.0053,
      "velocity": 77,
      "chip": "ym2612"
    },
    {
      "channel": 0,
      "note": 92,
      "start": 0.8584,
      "duration": 0.0083,
      "velocity": 97,
      "chip": "ym2612"
    },
    {
      "channel": 1,
      "note": 90,
      "start": 0.8627,
      "duration": 0.0073,
      "velocity": 102,
      "chip": "ym2612"
    },
    {
      "channel": 2,
      "note": 32,
      "start": 0.8632,
      "duration": 0.0069,
      "velocity": 77,
      "chip": "ym2612"
    },
    {
      "channel": 3,
      "note": 68,
      "start": 0.8637,
      "duration": 0.0065,
      "velocity": 97,
      "chip": "ym2612"
    },
    {
      "channel": 4,
      "note": 63,
      "start": 0.8643,
      "duration": 0.0061,
      "velocity": 97,
      "chip": "ym2612"
    },
    {
      "channel": 0,
      "note": 90,
      "start": 0.8683,
      "duration": 0.0076,
      "velocity": 97,
      "chip": "ym2612"
    },
    {
      "channel": 1,
      "note": 92,
      "start": 0.873,
      "duration": 0.0059,
      "velocity": 102,
      "chip": "ym2612"
    },
    {
      "channel": 2,
      "note": 32,
      "start": 0.8735,
      "duration": 0.0054,
      "velocity": 77,
      "chip": "ym2612"
    },
    {
      "channel": 0,
      "note": 92,
      "start": 0.8771,
      "duration": 0.0071,
      "velocity": 97,
      "chip": "ym2612"
    },
    {
      "channel": 1,
      "note": 94,
      "start": 0.8814,
      "duration": 0.0058,
      "velocity": 102,
      "chip": "ym2612"
    },
    {
      "channel": 2,
      "note": 32,
      "start": 0.8819,
      "duration": 0.0054,
      "velocity": 77,
      "chip": "ym2612"
    },
    {
      "channel": 0,
      "note": 94,
      "start": 0.8853,
      "duration": 0.0083,
      "velocity": 97,
      "chip": "ym2612"
    },
    {
      "channel": 1,
      "note": 92,
      "start": 0.8897,
      "duration": 0.0069,
      "velocity": 102,
      "chip": "ym2612"
    },
    {
      "channel": 2,
      "note": 32,
      "start": 0.8902,
      "duration": 0.0065,
      "velocity": 77,
      "chip": "ym2612"
    },
    {
      "channel": 3,
      "note": 66,
      "start": 0.8907,
      "duration": 0.0061,
      "velocity": 97,
      "chip": "ym2612"
    },
    {
      "channel": 4,
      "note": 61,
      "start": 0.8913,
      "duration": 0.0057,
      "velocity": 97,
      "chip": "ym2612"
    },
    {
      "channel": 0,
      "note": 92,
      "start": 0.8948,
      "duration": 0.0089,
      "velocity": 97,
      "chip": "ym2612"
    },
    {
      "channel": 1,
      "note": 94,
      "start": 0.9008,
      "duration": 0.0058,
      "velocity": 102,
      "chip": "ym2612"
    },
    {
      "channel": 2,
      "note": 32,
      "start": 0.9014,
      "duration": 0.0054,
      "velocity": 77,
      "chip": "ym2612"
    },
    {
      "channel": 0,
      "note": 94,
      "start": 0.9049,
      "duration": 0.0087,
      "velocity": 97,
      "chip": "ym2612"
    },
    {
      "channel": 1,
      "note": 95,
      "start": 0.9108,
      "duration": 0.0062,
      "velocity": 102,
      "chip": "ym2612"
    },
    {
      "channel": 2,
      "note": 32,
      "start": 0.9113,
      "duration": 0.0058,
      "velocity": 77,
      "chip": "ym2612"
    },
    {
      "channel": 0,
      "note": 95,
      "start": 0.9152,
      "duration": 0.0083,
      "velocity": 97,
      "chip": "ym2612"
    },
    {
      "channel": 1,
      "note": 97,
      "start": 0.9195,
      "duration": 0.007,
      "velocity": 102,
      "chip": "ym2612"
    },
    {
      "channel": 2,
      "note": 32,
      "start": 0.92,
      "duration": 0.0066,
      "velocity": 77,
      "chip": "ym2612"
    },
    {
      "channel": 3,
      "note": 68,
      "start": 0.9205,
      "duration": 0.0062,
      "velocity": 97,
      "chip": "ym2612"
    },
    {
      "channel": 4,
      "note": 63,
      "start": 0.9211,
      "duration": 0.0058,
      "velocity": 97,
      "chip": "ym2612"
    },
    {
      "channel": 0,
      "note": 97,
      "start": 0.9246,
      "duration": 0.0091,
      "velocity": 97,
      "chip": "ym2612"
    },
    {
      "channel": 1,
      "note": 95,
      "start": 0.9308,
      "duration": 0.0058,
      "velocity": 102,
      "chip": "ym2612"
    },
    {
      "channel": 2,
      "note": 32,
      "start": 0.9314,
      "duration": 0.0054,
      "velocity": 77,
      "chip": "ym2612"
    },
    {
      "channel": 0,
      "note": 95,
      "start": 0.9349,
      "duration": 0.0071,
      "velocity": 97,
      "chip": "ym2612"
    },
    {
      "channel": 1,
      "note": 94,
      "start": 0.9392,
      "duration": 0.0058,
      "velocity": 102,
      "chip": "ym2612"
    },
    {
      "channel": 2,
      "note": 27,
      "start": 0.9397,
      "duration": 0.0054,
      "velocity": 77,
      "chip": "ym2612"
    },
    {
      "channel": 0,
      "note": 94,
      "start": 0.9431,
      "duration": 0.0068,
      "velocity": 97,
      "chip": "ym2612"
    },
    {
      "channel": 1,
      "note": 95,
      "start": 0.9462,
      "duration": 0.0066,
      "velocity": 102,
      "chip": "ym2612"
    },
    {
      "channel": 2,
      "note": 27,
      "start": 0.9467,
      "duration": 0.0062,
      "velocity": 77,
      "chip": "ym2612"
    },
    {
      "channel": 3,
      "note": 64,
      "start": 0.9472,
      "duration": 0.0059,
      "velocity": 97,
      "chip": "ym2612"
    },
    {
      "channel": 4,
      "note": 59,
      "start": 0.9478,
      "duration": 0.0054,
      "velocity": 97,
      "chip": "ym2612"
    },
    {
      "channel": 0,
      "note": 95,
      "start": 0.951,
      "duration": 0.009,
      "velocity": 97,
      "chip": "ym2612"
    },
    {
      "channel": 1,
      "note": 94,
      "start": 0.957,
      "duration": 0.0059,
      "velocity": 102,
      "chip": "ym2612"
    },
    {
      "channel": 2,
      "note": 28,
      "start": 0.9576,
      "duration": 0.0055,
      "velocity": 77,
      "chip": "ym2612"
    },
    {
      "channel": 0,
      "note": 94,
      "start": 0.9612,
      "duration": 0.0081,
      "velocity": 97,
      "chip": "ym2612"
    },
    {
      "channel": 1,
      "note": 92,
      "start": 0.9654,
      "duration": 0.007,
      "velocity": 102,
      "chip": "ym2612"
    },
    {
      "channel": 2,
      "note": 28,
      "start": 0.9659,
      "duration": 0.0066,
      "velocity": 77,
      "chip": "ym2612"
    },
    {
      "channel": 3,
      "note": 66,
      "start": 0.9664,
      "duration": 0.023,
      "velocity": 97,
      "chip": "ym2612"
    },
    {
      "channel": 4,
      "note": 61,
      "start": 0.967,
      "duration": 0.0226,
      "velocity": 97,
      "chip": "ym2612"
    },
    {
      "channel": 0,
      "note": 92,
      "start": 0.9705,
      "duration": 0.0058,
      "velocity": 97,
      "chip": "ym2612"
    },
    {
      "channel": 1,
      "note": 94,
      "start": 0.9736,
      "duration": 0.0058,
      "velocity": 102,
      "chip": "ym2612"
    },
    {
      "channel": 2,
      "note": 30,
      "start": 0.9741,
      "duration": 0.0054,
      "velocity": 77,
      "chip": "ym2612"
    },
    {
      "channel": 0,
      "note": 94,
      "start": 0.9775,
      "duration": 0.0087,
      "velocity": 97,
      "chip": "ym2612"
    },
    {
      "channel": 1,
      "note": 92,
      "start": 0.9835,
      "duration": 0.0057,
      "velocity": 102,
      "chip": "ym2612"
    },
    {
      "channel": 2,
      "note": 30,
      "start": 0.984,
      "duration": 0.0053,
      "velocity": 77,
      "chip": "ym2612"
    },
    {
      "channel": 0,
      "note": 92,
      "start": 0.9873,
      "duration": 0.0076,
      "velocity": 97,
      "chip": "ym2612"
    },
    {
      "channel": 1,
      "note": 90,
      "start": 0.9918,
      "duration": 0.0064,
      "velocity": 102,
      "chip": "ym2612"
    },
    {
      "channel": 2,
      "note": 32,
      "start": 0.9923,
      "duration": 0.006,
      "velocity": 77,
      "chip": "ym2612"
    },
    {
      "channel": 0,
      "note": 90,
      "start": 0.9964,
      "duration": 0.007,
      "velocity": 97,
      "chip": "ym2612"
    },
    {
      "channel": 1,
      "note": 92,
      "start": 1.0005,
      "duration": 0.0062,
      "velocity": 102,
      "chip": "ym2612"
    },
    {
      "channel": 2,
      "note": 32,
      "start": 1.001,
      "duration": 0.0058,
      "velocity": 77,
      "chip": "ym2612"
    },
    {
      "channel": 0,
      "note": 92,
      "start": 1.0049,
      "duration": 0.0081,
      "velocity": 97,
      "chip": "ym2612"
    },
    {
      "channel": 1,
      "note": 90,
      "start": 1.0092,
      "duration": 0.0069,
      "velocity": 102,
      "chip": "ym2612"
    },
    {
      "channel": 2,
      "note": 32,
      "start": 1.0097,
      "duration": 0.0065,
      "velocity": 77,
      "chip": "ym2612"
    },
    {
      "channel": 3,
      "note": 68,
      "start": 1.0102,
      "duration": 0.0061,
      "velocity": 97,
      "chip": "ym2612"
    },
    {
      "channel": 4,
      "note": 63,
      "start": 1.0108,
      "duration": 0.0057,
      "velocity": 97,
      "chip": "ym2612"
    },
    {
      "channel": 0,
      "note": 90,
      "start": 1.0142,
      "duration": 0.0078,
      "velocity": 97,
      "chip": "ym2612"
    },
    {
      "channel": 1,
      "note": 88,
      "start": 1.0191,
      "duration": 0.0058,
      "velocity": 102,
      "chip": "ym2612"
    },
    {
      "channel": 2,
      "note": 32,
      "start": 1.0196,
      "duration": 0.0054,
      "velocity": 77,
      "chip": "ym2612"
    },
    {
      "channel": 0,
      "note": 88,
      "start": 1.0231,
      "duration": 0.0071,
      "velocity": 97,
      "chip": "ym2612"
    },
    {
      "channel": 1,
      "note": 90,
      "start": 1.0274,
      "duration": 0.0058,
      "velocity": 102,
      "chip": "ym2612"
    },
    {
      "channel": 2,
      "note": 32,
      "start": 1.028,
      "duration": 0.0054,
      "velocity": 77,
      "chip": "ym2612"
    },
    {
      "channel": 0,
      "note": 90,
      "start": 1.0313,
      "duration": 0.0084,
      "velocity": 97,
      "chip": "ym2612"
    },
    {
      "channel": 1,
      "note": 88,
      "start": 1.0358,
      "duration": 0.0069,
      "velocity": 102,
      "chip": "ym2612"
    },
    {
      "channel": 2,
      "note": 32,
      "start": 1.0363,
      "duration": 0.0065,
      "velocity": 77,
      "chip": "ym2612"
    },
    {
      "channel": 3,
      "note": 66,
      "start": 1.0368,
      "duration": 0.0061,
      "velocity": 97,
      "chip": "ym2612"
    },
    {
      "channel": 4,
      "note": 61,
      "start": 1.0373,
      "duration": 0.0057,
      "velocity": 97,
      "chip": "ym2612"
    },
    {
      "channel": 0,
      "note": 88,
      "start": 1.0408,
      "duration": 0.009,
      "velocity": 97,
      "chip": "ym2612"
    },
    {
      "channel": 1,
      "note": 87,
      "start": 1.0469,
      "duration": 0.0057,
      "velocity": 102,
      "chip": "ym2612"
    },
    {
      "channel": 2,
      "note": 32,
      "start": 1.0474,
      "duration": 0.0053,
      "velocity": 77,
      "chip": "ym2612"
    },
    {
      "channel": 0,
      "note": 87,
      "start": 1.0509,
      "duration": 0.0088,
      "velocity": 97,
      "chip": "ym2612"
    },
    {
      "channel": 1,
      "note": 88,
      "start": 1.0567,
      "duration": 0.0062,
      "velocity": 102,
      "chip": "ym2612"
    },
    {
      "channel": 2,
      "note": 32,
      "start": 1.0572,
      "duration": 0.0058,
      "velocity": 77,
      "chip": "ym2612"
    },
    {
      "channel": 0,
      "note": 88,
      "start": 1.0611,
      "duration": 0.0081,
      "velocity": 97,
      "chip": "ym2612"
    },
    {
      "channel": 1,
      "note": 87,
      "start": 1.0654,
      "duration": 0.0069,
      "velocity": 102,
      "chip": "ym2612"
    },
    {
      "channel": 2,
      "note": 32,
      "start": 1.0659,
      "duration": 0.0065,
      "velocity": 77,
      "chip": "ym2612"
    },
    {
      "channel": 3,
      "note": 68,
      "start": 1.0664,
      "duration": 0.0061,
      "velocity": 97,
      "chip": "ym2612"
    },
    {
      "channel": 4,
      "note": 63,
      "start": 1.067,
      "duration": 0.0056,
      "velocity": 97,
      "chip": "ym2612"
    },
    {
      "channel": 0,
      "note": 87,
      "start": 1.0704,
      "duration": 0.009,
      "velocity": 97,
      "chip": "ym2612"
    },
    {
      "channel": 1,
      "note": 85,
      "start": 1.0766,
      "duration": 0.0057,
      "velocity": 102,
      "chip": "ym2612"
    },
    {
      "channel": 2,
      "note": 32,
      "start": 1.0772,
      "duration": 0.0053,
      "velocity": 77,
      "chip": "ym2612"
    },
    {
      "channel": 0,
      "note": 85,
      "start": 1.0806,
      "duration": 0.0073,
      "velocity": 97,
      "chip": "ym2612"
    },
    {
      "channel": 1,
      "note": 87,
      "start": 1.085,
      "duration": 0.0063,
      "velocity": 102,
      "chip": "ym2612"
    },
    {
      "channel": 2,
      "note": 32,
      "start": 1.0855,
      "duration": 0.0059,
      "velocity": 77,
      "chip": "ym2612"
    },
    {
      "channel": 0,
      "note": 87,
      "start": 1.0894,
      "duration": 0.0099,
      "velocity": 97,
      "chip": "ym2612"
    },
    {
      "channel": 1,
      "note": 85,
      "start": 1.0954,
      "duration": 0.007,
      "velocity": 102,
      "chip": "ym2612"
    },
    {
      "channel": 2,
      "note": 32,
      "start": 1.0959,
      "duration": 0.0066,
      "velocity": 77,
      "chip": "ym2612"
    },
    {
      "channel": 3,
      "note": 64,
      "start": 1.0964,
      "duration": 0.0062,
      "velocity": 97,
      "chip": "ym2612"
    },
    {
      "channel": 4,
      "note": 59,
      "start": 1.097,
      "duration": 0.0058,
      "velocity": 97,
      "chip": "ym2612"
    },
    {
      "channel": 0,
      "note": 85,
      "start": 1.1004,
      "duration": 0.009,
      "velocity": 97,
      "chip": "ym2612"
    },
    {
      "channel": 1,
      "note": 83,
      "start": 1.1067,
      "duration": 0.0059,
      "velocity": 102,
      "chip": "ym2612"
    },
    {
      "channel": 2,
      "note": 35,
      "start": 1.1072,
      "duration": 0.0055,
      "velocity": 77,
      "chip": "ym2612"
    },
    {
      "channel": 0,
      "note": 83,
      "start": 1.1107,
      "duration": 0.0083,
      "velocity": 97,
      "chip": "ym2612"
    },
    {
      "channel": 1,
      "note": 85,
      "start": 1.1151,
      "duration": 0.0069,
      "velocity": 102,
      "chip": "ym2612"
    },
    {
      "channel": 2,
      "note": 35,
      "start": 1.1156,
      "duration": 0.0065,
      "velocity": 77,
      "chip": "ym2612"
    },
    {
      "channel": 3,
      "note": 66,
      "start": 1.1161,
      "duration": 0.0229,
      "velocity": 97,
      "chip": "ym2612"
    },
    {
      "channel": 4,
      "note": 61,
      "start": 1.1167,
      "duration": 0.0224,
      "velocity": 97,
      "chip": "ym2612"
    },
    {
      "channel": 0,
      "note": 85,
      "start": 1.1202,
      "duration": 0.0059,
      "velocity": 97,
      "chip": "ym2612"
    },
    {
      "channel": 1,
      "note": 83,
      "start": 1.1233,
      "duration": 0.0057,
      "velocity": 102,
      "chip": "ym2612"
    },
    {
      "channel": 2,
      "note": 35,
      "start": 1.1238,
      "duration": 0.0053,
      "velocity": 77,
      "chip": "ym2612"
    },
    {
      "channel": 0,
      "note": 83,
      "start": 1.1271,
      "duration": 0.0087,
      "velocity": 97,
      "chip": "ym2612"
    },
    {
      "channel": 1,
      "note": 82,
      "start": 1.1331,
      "duration": 0.0057,
      "velocity": 102,
      "chip": "ym2612"
    },
    {
      "channel": 2,
      "note": 35,
      "start": 1.1336,
      "duration": 0.0053,
      "velocity": 77,
      "chip": "ym2612"
    },
    {
      "channel": 0,
      "note": 82,
      "start": 1.1369,
      "duration": 0.0075,
      "velocity": 97,
      "chip": "ym2612"
    },
    {
      "channel": 1,
      "note": 80,
      "start": 1.1413,
      "duration": 0.0064,
      "velocity": 102,
      "chip": "ym2612"
    },
    {
      "channel": 2,
      "note": 32,
      "start": 1.1419,
      "duration": 0.0059,
      "velocity": 77,
      "chip": "ym2612"
    },
    {
      "channel": 0,
      "note": 80,
      "start": 1.1459,
      "duration": 0.0069,
      "velocity": 97,
      "chip": "ym2612"
    },
    {
      "channel": 1,
      "note": 82,
      "start": 1.15,
      "duration": 0.0062,
      "velocity": 102,
      "chip": "ym2612"
    },
    {
      "channel": 2,
      "note": 32,
      "start": 1.1505,
      "duration": 0.0058,
      "velocity": 77,
      "chip": "ym2612"
    },
    {
      "channel": 0,
      "note": 82,
      "start": 1.1544,
      "duration": 0.0083,
      "velocity": 97,
      "chip": "ym2612"
    },
    {
      "channel": 1,
      "note": 83,
      "start": 1.1588,
      "duration": 0.007,
      "velocity": 102,
      "chip": "ym2612"
    },
    {
      "channel": 2,
      "note": 32,
      "start": 1.1593,
      "duration": 0.0066,
      "velocity": 77,
      "chip": "ym2612"
    },
    {
      "channel": 3,
      "note": 68,
      "start": 1.1598,
      "duration": 0.0062,
      "velocity": 97,
      "chip": "ym2612"
    },
    {
      "channel": 4,
      "note": 63,
      "start": 1.1603,
      "duration": 0.0058,
      "velocity": 97,
      "chip": "ym2612"
    },
    {
      "channel": 0,
      "note": 83,
      "start": 1.1638,
      "duration": 0.0078,
      "velocity": 97,
      "chip": "ym2612"
    },
    {
      "channel": 1,
      "note": 85,
      "start": 1.1687,
      "duration": 0.0058,
      "velocity": 102,
      "chip": "ym2612"
    },
    {
      "channel": 2,
      "note": 32,
      "start": 1.1693,
      "duration": 0.0054,
      "velocity": 77,
      "chip": "ym2612"
    },
    {
      "channel": 0,
      "note": 85,
      "start": 1.1727,
      "duration": 0.0071,
      "velocity": 97,
      "chip": "ym2612"
    },
    {
      "channel": 1,
      "note": 83,
      "start": 1.1771,
      "duration": 0.0058,
      "velocity": 102,
      "chip": "ym2612"
    },
    {
      "channel": 2,
      "note": 32,
      "start": 1.1776,
      "duration": 0.0054,
      "velocity": 77,
      "chip": "ym2612"
    },
    {
      "channel": 0,
      "note": 83,
      "start": 1.181,
      "duration": 0.0083,
      "velocity": 97,
      "chip": "ym2612"
    },
    {
      "channel": 1,
      "note": 85,
      "start": 1.1854,
      "duration": 0.0069,
      "velocity": 102,
      "chip": "ym2612"
    },
    {
      "channel": 2,
      "note": 32,
      "start": 1.1859,
      "duration": 0.0065,
      "velocity": 77,
      "chip": "ym2612"
    },
    {
      "channel": 3,
      "note": 66,
      "start": 1.1864,
      "duration": 0.0061,
      "velocity": 97,
      "chip": "ym2612"
    },
    {
      "channel": 4,
      "note": 61,
      "start": 1.187,
      "duration": 0.0057,
      "velocity": 97,
      "chip": "ym2612"
    },
    {
      "channel": 0,
      "note": 85,
      "start": 1.1904,
      "duration": 0.0089,
      "velocity": 97,
      "chip": "ym2612"
    },
    {
      "channel": 1,
      "note": 87,
      "start": 1.1965,
      "duration": 0.0062,
      "velocity": 102,
      "chip": "ym2612"
    },
    {
      "channel": 2,
      "note": 32,
      "start": 1.197,
      "duration": 0.0058,
      "velocity": 77,
      "chip": "ym2612"
    },
    {
      "channel": 0,
      "note": 87,
      "start": 1.2009,
      "duration": 0.0088,
      "velocity": 97,
      "chip": "ym2612"
    },
    {
      "channel": 1,
      "note": 85,
      "start": 1.2068,
      "duration": 0.0059,
      "velocity": 102,
      "chip": "ym2612"
    },
    {
      "channel": 2,
      "note": 32,
      "start": 1.2073,
      "duration": 0.0054,
      "velocity": 77,
      "chip": "ym2612"
    },
    {
      "channel": 0,
      "note": 85,
      "start": 1.2108,
      "duration": 0.0083,
      "velocity": 97,
      "chip": "ym2612"
    },
    {
      "channel": 1,
      "note": 87,
      "start": 1.2152,
      "duration": 0.007,
      "velocity": 102,
      "chip": "ym2612"
    },
    {
      "channel": 2,
      "note": 32,
      "start": 1.2157,
      "duration": 0.0066,
      "velocity": 77,
      "chip": "ym2612"
    },
    {
      "channel": 3,
      "note": 68,
      "start": 1.2162,
      "duration": 0.0062,
      "velocity": 97,
      "chip": "ym2612"
    },
    {
      "channel": 4,
      "note": 63,
      "start": 1.2168,
      "duration": 0.0057,
      "velocity": 97,
      "chip": "ym2612"
    },
    {
      "channel": 0,
      "note": 87,
      "start": 1.2203,
      "duration": 0.0091,
      "velocity": 97,
      "chip": "ym2612"
    },
    {
      "channel": 1,
      "note": 88,
      "start": 1.2265,
      "duration": 0.0058,
      "velocity": 102,
      "chip": "ym2612"
    },
    {
      "channel": 2,
      "note": 32,
      "start": 1.2271,
      "duration": 0.0054,
      "velocity": 77,
      "chip": "ym2612"
    },
    {
      "channel": 0,
      "note": 88,
      "start": 1.2305,
      "duration": 0.0071,
      "velocity": 97,
      "chip": "ym2612"
    },
    {
      "channel": 1,
      "note": 87,
      "start": 1.2348,
      "duration": 0.007,
      "velocity": 102,
      "chip": "ym2612"
    },
    {
      "channel": 2,
      "note": 27,
      "start": 1.2353,
      "duration": 0.0066,
      "velocity": 77,
      "chip": "ym2612"
    },
    {
      "channel": 0,
      "note": 87,
      "start": 1.2394,
      "duration": 0.0085,
      "velocity": 97,
      "chip": "ym2612"
    },
    {
      "channel": 1,
      "note": 88,
      "start": 1.244,
      "duration": 0.0069,
      "velocity": 102,
      "chip": "ym2612"
    },
    {
      "channel": 2,
      "note": 27,
      "start": 1.2446,
      "duration": 0.0065,
      "velocity": 77,
      "chip": "ym2612"
    },
    {
      "channel": 3,
      "note": 64,
      "start": 1.2451,
      "duration": 0.0061,
      "velocity": 97,
      "chip": "ym2612"
    },
    {
      "channel": 4,
      "note": 59,
      "start": 1.2456,
      "duration": 0.0057,
      "velocity": 97,
      "chip": "ym2612"
    },
    {
      "channel": 0,
      "note": 88,
      "start": 1.2491,
      "duration": 0.0089,
      "velocity": 97,
      "chip": "ym2612"
    },
    {
      "channel": 1,
      "note": 90,
      "start": 1.2537,
      "duration": 0.0073,
      "velocity": 102,
      "chip": "ym2612"
    },
    {
      "channel": 2,
      "note": 28,
      "start": 1.2542,
      "duration": 0.0069,
      "velocity": 77,
      "chip": "ym2612"
    },
    {
      "channel": 0,
      "note": 90,
      "start": 1.2592,
      "duration": 0.007,
      "velocity": 97,
      "chip": "ym2612"
    },
    {
      "channel": 1,
      "note": 92,
      "start": 1.2622,
      "duration": 0.0072,
      "velocity": 102,
      "chip": "ym2612"
    },
    {
      "channel": 2,
      "note": 28,
      "start": 1.2628,
      "duration": 0.0068,
      "velocity": 77,
      "chip": "ym2612"
    },
    {
      "channel": 3,
      "note": 66,
      "start": 1.2633,
      "duration": 0.0243,
      "velocity": 97,
      "chip": "ym2612"
    },
    {
      "channel": 4,
      "note": 61,
      "start": 1.2638,
      "duration": 0.0239,
      "velocity": 97,
      "chip": "ym2612"
    },
    {
      "channel": 0,
      "note": 92,
      "start": 1.2677,
      "duration": 0.0087,
      "velocity": 97,
      "chip": "ym2612"
    },
    {
      "channel": 1,
      "note": 90,
      "start": 1.2721,
      "duration": 0.0076,
      "velocity": 102,
      "chip": "ym2612"
    },
    {
      "channel": 2,
      "note": 30,
      "start": 1.2726,
      "duration": 0.0072,
      "velocity": 77,
      "chip": "ym2612"
    },
    {
      "channel": 0,
      "note": 90,
      "start": 1.278,
      "duration": 0.006,
      "velocity": 97,
      "chip": "ym2612"
    },
    {
      "channel": 1,
      "note": 88,
      "start": 1.2814,
      "duration": 0.0059,
      "velocity": 102,
      "chip": "ym2612"
    },
    {
      "channel": 2,
      "note": 30,
      "start": 1.282,
      "duration": 0.0055,
      "velocity": 77,
      "chip": "ym2612"
    },
    {
      "channel": 0,
      "note": 88,
      "start": 1.2856,
      "duration": 0.0023,
      "velocity": 97,
      "chip": "ym2612"
    },
    {
      "channel": 0,
      "note": 92,
      "start": 1.2902,
      "duration": 0.0049,
      "velocity": 102,
      "chip": "ym2612"
    },
    {
      "channel": 2,
      "note": 44,
      "start": 1.2916,
      "duration": 0.0067,
      "velocity": 72,
      "chip": "ym2612"
    },
    {
      "channel": 1,
      "note": 92,
      "start": 1.2939,
      "duration": 0.003,
      "velocity": 97,
      "chip": "ym2612"
    },
    {
      "channel": 0,
      "note": 95,
      "start": 1.296,
      "duration": 0.0025,
      "velocity": 102,
      "chip": "ym2612"
    },
    {
      "channel": 1,
      "note": 95,
      "start": 1.2976,
      "duration": 0.0056,
      "velocity": 97,
      "chip": "ym2612"
    },
    {
      "channel": 0,
      "note": 92,
      "start": 1.3013,
      "duration": 0.0036,
      "velocity": 102,
      "chip": "ym2612"
    },
    {
      "channel": 2,
      "note": 44,
      "start": 1.3018,
      "duration": 0.0064,
      "velocity": 72,
      "chip": "ym2612"
    },
    {
      "channel": 1,
      "note": 92,
      "start": 1.3038,
      "duration": 0.0029,
      "velocity": 97,
      "chip": "ym2612"
    },
    {
      "channel": 0,
      "note": 95,
      "start": 1.3058,
      "duration": 0.0026,
      "velocity": 102,
      "chip": "ym2612"
    },
    {
      "channel": 1,
      "note": 95,
      "start": 1.3074,
      "duration": 0.0078,
      "velocity": 97,
      "chip": "ym2612"
    },
    {
      "channel": 0,
      "note": 92,
      "start": 1.3123,
      "duration": 0.0047,
      "velocity": 102,
      "chip": "ym2612"
    },
    {
      "channel": 2,
      "note": 44,
      "start": 1.3128,
      "duration": 0.0075,
      "velocity": 72,
      "chip": "ym2612"
    },
    {
      "channel": 3,
      "note": 68,
      "start": 1.3133,
      "duration": 0.0071,
      "velocity": 97,
      "chip": "ym2612"
    },
    {
      "channel": 4,
      "note": 63,
      "start": 1.3139,
      "duration": 0.0067,
      "velocity": 97,
      "chip": "ym2612"
    },
    {
      "channel": 1,
      "note": 92,
      "start": 1.3159,
      "duration": 0.003,
      "velocity": 97,
      "chip": "ym2612"
    },
    {
      "channel": 0,
      "note": 95,
      "start": 1.318,
      "duration": 0.0027,
      "velocity": 102,
      "chip": "ym2612"
    },
    {
      "channel": 1,
      "note": 95,
      "start": 1.3196,
      "duration": 0.0044,
      "velocity": 97,
      "chip": "ym2612"
    },
    {
      "channel": 0,
      "note": 92,
      "start": 1.322,
      "duration": 0.0034,
      "velocity": 102,
      "chip": "ym2612"
    },
    {
      "channel": 2,
      "note": 44,
      "start": 1.3226,
      "duration": 0.0061,
      "velocity": 72,
      "chip": "ym2612"
    },
    {
      "channel": 1,
      "note": 92,
      "start": 1.3247,
      "duration": 0.0027,
      "velocity": 97,
      "chip": "ym2612"
    },
    {
      "channel": 0,
      "note": 95,
      "start": 1.3265,
      "duration": 0.0024,
      "velocity": 102,
      "chip": "ym2612"
    },
    {
      "channel": 1,
      "note": 95,
      "start": 1.328,
      "duration": 0.0066,
      "velocity": 97,
      "chip": "ym2612"
    },
    {
      "channel": 0,
      "note": 90,
      "start": 1.3326,
      "duration": 0.0035,
      "velocity": 102,
      "chip": "ym2612"
    },
    {
      "channel": 2,
      "note": 44,
      "start": 1.3332,
      "duration": 0.0066,
      "velocity": 72,
      "chip": "ym2612"
    },
    {
      "channel": 1,
      "note": 90,
      "start": 1.3354,
      "duration": 0.003,
      "velocity": 97,
      "chip": "ym2612"
    },
    {
      "channel": 0,
      "note": 94,
      "start": 1.3376,
      "duration": 0.0024,
      "velocity": 102,
      "chip": "ym2612"
    },
    {
      "channel": 1,
      "note": 94,
      "start": 1.339,
      "duration": 0.0076,
      "velocity": 97,
      "chip": "ym2612"
    },
    {
      "channel": 0,
      "note": 90,
      "start": 1.3437,
      "duration": 0.0044,
      "velocity": 102,
      "chip": "ym2612"
    },
    {
      "channel": 2,
      "note": 44,
      "start": 1.3442,
      "duration": 0.0076,
      "velocity": 72,
      "chip": "ym2612"
    },
    {
      "channel": 3,
      "note": 66,
      "start": 1.3447,
      "duration": 0.0073,
      "velocity": 97,
      "chip": "ym2612"
    },
    {
      "channel": 4,
      "note": 61,
      "start": 1.3453,
      "duration": 0.0068,
      "velocity": 97,
      "chip": "ym2612"
    },
    {
      "channel": 1,
      "note": 90,
      "start": 1.3473,
      "duration": 0.0031,
      "velocity": 97,
      "chip": "ym2612"
    },
    {
      "channel": 0,
      "note": 94,
      "start": 1.3496,
      "duration": 0.0027,
      "velocity": 102,
      "chip": "ym2612"
    },
    {
      "channel": 1,
      "note": 94,
      "start": 1.3511,
      "duration": 0.0056,
      "velocity": 97,
      "chip": "ym2612"
    },
    {
      "channel": 0,
      "note": 90,
      "start": 1.3548,
      "duration": 0.0033,
      "velocity": 102,
      "chip": "ym2612"
    },
    {
      "channel": 2,
      "note": 44,
      "start": 1.3553,
      "duration": 0.0061,
      "velocity": 72,
      "chip": "ym2612"
    },
    {
      "channel": 1,
      "note": 90,
      "start": 1.3573,
      "duration": 0.0027,
      "velocity": 97,
      "chip": "ym2612"
    },
    {
      "channel": 0,
      "note": 94,
      "start": 1.3592,
      "duration": 0.0025,
      "velocity": 102,
      "chip": "ym2612"
    },
    {
      "channel": 1,
      "note": 94,
      "start": 1.3607,
      "duration": 0.0053,
      "velocity": 97,
      "chip": "ym2612"
    },
    {
      "channel": 0,
      "note": 90,
      "start": 1.3642,
      "duration": 0.0036,
      "velocity": 102,
      "chip": "ym2612"
    },
    {
      "channel": 2,
      "note": 44,
      "start": 1.3647,
      "duration": 0.0064,
      "velocity": 72,
      "chip": "ym2612"
    },
    {
      "channel": 1,
      "note": 90,
      "start": 1.3667,
      "duration": 0.0029,
      "velocity": 97,
      "chip": "ym2612"
    },
    {
      "channel": 0,
      "note": 94,
      "start": 1.3688,
      "duration": 0.0025,
      "velocity": 102,
      "chip": "ym2612"
    },
    {
      "channel": 1,
      "note": 94,
      "start": 1.3703,
      "duration": 0.0077,
      "velocity": 97,
      "chip": "ym2612"
    },
    {
      "channel": 0,
      "note": 88,
      "start": 1.3751,
      "duration": 0.0048,
      "velocity": 102,
      "chip": "ym2612"
    },
    {
      "channel": 2,
      "note": 44,
      "start": 1.3757,
      "duration": 0.0076,
      "velocity": 72,
      "chip": "ym2612"
    },
    {
      "channel": 3,
      "note": 68,
      "start": 1.3762,
      "duration": 0.0073,
      "velocity": 97,
      "chip": "ym2612"
    },
    {
      "channel": 4,
      "note": 63,
      "start": 1.3767,
      "duration": 0.0068,
      "velocity": 97,
      "chip": "ym2612"
    },
    {
      "channel": 1,
      "note": 88,
      "start": 1.3788,
      "duration": 0.0031,
      "velocity": 97,
      "chip": "ym2612"
    },
    {
      "channel": 0,
      "note": 92,
      "start": 1.3809,
      "duration": 0.0028,
      "velocity": 102,
      "chip": "ym2612"
    },
    {
      "channel": 1,
      "note": 92,
      "start": 1.3825,
      "duration": 0.0056,
      "velocity": 97,
      "chip": "ym2612"
    },
    {
      "channel": 0,
      "note": 88,
      "start": 1.3863,
      "duration": 0.0036,
      "velocity": 102,
      "chip": "ym2612"
    },
    {
      "channel": 2,
      "note": 44,
      "start": 1.3868,
      "duration": 0.0064,
      "velocity": 72,
      "chip": "ym2612"
    },
    {
      "channel": 1,
      "note": 88,
      "start": 1.3888,
      "duration": 0.0029,
      "velocity": 97,
      "chip": "ym2612"
    },
    {
      "channel": 0,
      "note": 92,
      "start": 1.3909,
      "duration": 0.0025,
      "velocity": 102,
      "chip": "ym2612"
    },
    {
      "channel": 1,
      "note": 92,
      "start": 1.3924,
      "duration": 0.0067,
      "velocity": 97,
      "chip": "ym2612"
    },
    {
      "channel": 0,
      "note": 88,
      "start": 1.3972,
      "duration": 0.0036,
      "velocity": 102,
      "chip": "ym2612"
    },
    {
      "channel": 2,
      "note": 44,
      "start": 1.3978,
      "duration": 0.0063,
      "velocity": 72,
      "chip": "ym2612"
    },
    {
      "channel": 1,
      "note": 88,
      "start": 1.3998,
      "duration": 0.0029,
      "velocity": 97,
      "chip": "ym2612"
    },
    {
      "channel": 0,
      "note": 92,
      "start": 1.4018,
      "duration": 0.0025,
      "velocity": 102,
      "chip": "ym2612"
    },
    {
      "channel": 1,
      "note": 92,
      "start": 1.4033,
      "duration": 0.0064,
      "velocity": 97,
      "chip": "ym2612"
    },
    {
      "channel": 0,
      "note": 88,
      "start": 1.4068,
      "duration": 0.0047,
      "velocity": 102,
      "chip": "ym2612"
    },
    {
      "channel": 2,
      "note": 44,
      "start": 1.4073,
      "duration": 0.0076,
      "velocity": 72,
      "chip": "ym2612"
    },
    {
      "channel": 3,
      "note": 64,
      "start": 1.4078,
      "duration": 0.0073,
      "velocity": 97,
      "chip": "ym2612"
    },
    {
      "channel": 4,
      "note": 59,
      "start": 1.4084,
      "duration": 0.0068,
      "velocity": 97,
      "chip": "ym2612"
    },
    {
      "channel": 1,
      "note": 88,
      "start": 1.4104,
      "duration": 0.0031,
      "velocity": 97,
      "chip": "ym2612"
    },
    {
      "channel": 0,
      "note": 92,
      "start": 1.4125,
      "duration": 0.0028,
      "velocity": 102,
      "chip": "ym2612"
    },
    {
      "channel": 1,
      "note": 92,
      "start": 1.4141,
      "duration": 0.0057,
      "velocity": 97,
      "chip": "ym2612"
    },
    {
      "channel": 0,
      "note": 87,
      "start": 1.4179,
      "duration": 0.0034,
      "velocity": 102,
      "chip": "ym2612"
    },
    {
      "channel": 2,
      "note": 47,
      "start": 1.4184,
      "duration": 0.0063,
      "velocity": 72,
      "chip": "ym2612"
    },
    {
      "channel": 1,
      "note": 87,
      "start": 1.4205,
      "duration": 0.0028,
      "velocity": 97,
      "chip": "ym2612"
    },
    {
      "channel": 0,
      "note": 90,
      "start": 1.4224,
      "duration": 0.0026,
      "velocity": 102,
      "chip": "ym2612"
    },
    {
      "channel": 1,
      "note": 90,
      "start": 1.424,
      "duration": 0.0078,
      "velocity": 97,
      "chip": "ym2612"
    },
    {
      "channel": 0,
      "note": 87,
      "start": 1.4289,
      "duration": 0.0047,
      "velocity": 102,
      "chip": "ym2612"
    },
    {
      "channel": 2,
      "note": 47,
      "start": 1.4294,
      "duration": 0.0075,
      "velocity": 72,
      "chip": "ym2612"
    },
    {
      "channel": 3,
      "note": 66,
      "start": 1.43,
      "duration": 0.0264,
      "velocity": 97,
      "chip": "ym2612"
    },
    {
      "channel": 4,
      "note": 61,
      "start": 1.4305,
      "duration": 0.026,
      "velocity": 97,
      "chip": "ym2612"
    },
    {
      "channel": 1,
      "note": 87,
      "start": 1.4325,
      "duration": 0.003,
      "velocity": 97,
      "chip": "ym2612"
    },
    {
      "channel": 0,
      "note": 90,
      "start": 1.4346,
      "duration": 0.0026,
      "velocity": 102,
      "chip": "ym2612"
    },
    {
      "channel": 1,
      "note": 90,
      "start": 1.4362,
      "duration": 0.0057,
      "velocity": 97,
      "chip": "ym2612"
    },
    {
      "channel": 0,
      "note": 87,
      "start": 1.4399,
      "duration": 0.0034,
      "velocity": 102,
      "chip": "ym2612"
    },
    {
      "channel": 2,
      "note": 47,
      "start": 1.4404,
      "duration": 0.0061,
      "velocity": 72,
      "chip": "ym2612"
    },
    {
      "channel": 1,
      "note": 87,
      "start": 1.4425,
      "duration": 0.0027,
      "velocity": 97,
      "chip": "ym2612"
    },
    {
      "channel": 0,
      "note": 90,
      "start": 1.4443,
      "duration": 0.0024,
      "velocity": 102,
      "chip": "ym2612"
    },
    {
      "channel": 1,
      "note": 90,
      "start": 1.4459,
      "duration": 0.0051,
      "velocity": 97,
      "chip": "ym2612"
    },
    {
      "channel": 0,
      "note": 87,
      "start": 1.4491,
      "duration": 0.0033,
      "velocity": 102,
      "chip": "ym2612"
    },
    {
      "channel": 2,
      "note": 47,
      "start": 1.4497,
      "duration": 0.0065,
      "velocity": 72,
      "chip": "ym2612"
    },
    {
      "channel": 1,
      "note": 87,
      "start": 1.4517,
      "duration": 0.0031,
      "velocity": 97,
      "chip": "ym2612"
    },
    {
      "channel": 0,
      "note": 90,
      "start": 1.4539,
      "duration": 0.0027,
      "velocity": 102,
      "chip": "ym2612"
    },
    {
      "channel": 1,
      "note": 90,
      "start": 1.4554,
      "duration": 0.0069,
      "velocity": 97,
      "chip": "ym2612"
    },
    {
      "channel": 0,
      "note": 92,
      "start": 1.4602,
      "duration": 0.0039,
      "velocity": 102,
      "chip": "ym2612"
    },
    {
      "channel": 2,
      "note": 44,
      "start": 1.4608,
      "duration": 0.0067,
      "velocity": 72,
      "chip": "ym2612"
    },
    {
      "channel": 1,
      "note": 92,
      "start": 1.463,
      "duration": 0.003,
      "velocity": 97,
      "chip": "ym2612"
    },
    {
      "channel": 0,
      "note": 95,
      "start": 1.4652,
      "duration": 0.0025,
      "velocity": 102,
      "chip": "ym2612"
    },
    {
      "channel": 1,
      "note": 95,
      "start": 1.4668,
      "duration": 0.0064,
      "velocity": 97,
      "chip": "ym2612"
    },
    {
      "channel": 0,
      "note": 92,
      "start": 1.4713,
      "duration": 0.0036,
      "velocity": 102,
      "chip": "ym2612"
    },
    {
      "channel": 2,
      "note": 44,
      "start": 1.4718,
      "duration": 0.0063,
      "velocity": 72,
      "chip": "ym2612"
    },
    {
      "channel": 1,
      "note": 92,
      "start": 1.4739,
      "duration": 0.0029,
      "velocity": 97,
      "chip": "ym2612"
    },
    {
      "channel": 0,
      "note": 95,
      "start": 1.4759,
      "duration": 0.0025,
      "velocity": 102,
      "chip": "ym2612"
    },
    {
      "channel": 1,
      "note": 95,
      "start": 1.4774,
      "duration": 0.0077,
      "velocity": 97,
      "chip": "ym2612"
    },
    {
      "channel": 0,
      "note": 92,
      "start": 1.4822,
      "duration": 0.0047,
      "velocity": 102,
      "chip": "ym2612"
    },
    {
      "channel": 2,
      "note": 44,
      "start": 1.4827,
      "duration": 0.0076,
      "velocity": 72,
      "chip": "ym2612"
    },
    {
      "channel": 3,
      "note": 68,
      "start": 1.4832,
      "duration": 0.0072,
      "velocity": 97,
      "chip": "ym2612"
    },
    {
      "channel": 4,
      "note": 63,
      "start": 1.4838,
      "duration": 0.0068,
      "velocity": 97,
      "chip": "ym2612"
    },
    {
      "channel": 1,
      "note": 92,
      "start": 1.4858,
      "duration": 0.0031,
      "velocity": 97,
      "chip": "ym2612"
    },
    {
      "channel": 0,
      "note": 95,
      "start": 1.4879,
      "duration": 0.0027,
      "velocity": 102,
      "chip": "ym2612"
    },
    {
      "channel": 1,
      "note": 95,
      "start": 1.4895,
      "duration": 0.0044,
      "velocity": 97,
      "chip": "ym2612"
    },
    {
      "channel": 0,
      "note": 92,
      "start": 1.492,
      "duration": 0.0034,
      "velocity": 102,
      "chip": "ym2612"
    },
    {
      "channel": 2,
      "note": 44,
      "start": 1.4925,
      "duration": 0.0062,
      "velocity": 72,
      "chip": "ym2612"
    },
    {
      "channel": 1,
      "note": 92,
      "start": 1.4946,
      "duration": 0.0027,
      "velocity": 97,
      "chip": "ym2612"
    },
    {
      "channel": 0,
      "note": 95,
      "start": 1.4964,
      "duration": 0.0026,
      "velocity": 102,
      "chip": "ym2612"
    },
    {
      "channel": 1,
      "note": 95,
      "start": 1.498,
      "duration": 0.0068,
      "velocity": 97,
      "chip": "ym2612"
    },
    {
      "channel": 0,
      "note": 90,
      "start": 1.5028,
      "duration": 0.0034,
      "velocity": 102,
      "chip": "ym2612"
    },
    {
      "channel": 2,
      "note": 44,
      "start": 1.5033,
      "duration": 0.0062,
      "velocity": 72,
      "chip": "ym2612"
    },
    {
      "channel": 1,
      "note": 90,
      "start": 1.5055,
      "duration": 0.0027,
      "velocity": 97,
      "chip": "ym2612"
    },
    {
      "channel": 0,
      "note": 94,
      "start": 1.5073,
      "duration": 0.0025,
      "velocity": 102,
      "chip": "ym2612"
    },
    {
      "channel": 1,
      "note": 94,
      "start": 1.5088,
      "duration": 0.0078,
      "velocity": 97,
      "chip": "ym2612"
    },
    {
      "channel": 0,
      "note": 90,
      "start": 1.5136,
      "duration": 0.0044,
      "velocity": 102,
      "chip": "ym2612"
    },
    {
      "channel": 2,
      "note": 44,
      "start": 1.5141,
      "duration": 0.0073,
      "velocity": 72,
      "chip": "ym2612"
    },
    {
      "channel": 3,
      "note": 66,
      "start": 1.5146,
      "duration": 0.0069,
      "velocity": 97,
      "chip": "ym2612"
    },
    {
      "channel": 4,
      "note": 61,
      "start": 1.5152,
      "duration": 0.0065,
      "velocity": 97,
      "chip": "ym2612"
    },
    {
      "channel": 1,
      "note": 90,
      "start": 1.5173,
      "duration": 0.0027,
      "velocity": 97,
      "chip": "ym2612"
    },
    {
      "channel": 0,
      "note": 94,
      "start": 1.5191,
      "duration": 0.0027,
      "velocity": 102,
      "chip": "ym2612"
    },
    {
      "channel": 1,
      "note": 94,
      "start": 1.5207,
      "duration": 0.0056,
      "velocity": 97,
      "chip": "ym2612"
    },
    {
      "channel": 0,
      "note": 90,
      "start": 1.5242,
      "duration": 0.0034,
      "velocity": 102,
      "chip": "ym2612"
    },
    {
      "channel": 2,
      "note": 44,
      "start": 1.5248,
      "duration": 0.0061,
      "velocity": 72,
      "chip": "ym2612"
    },
    {
      "channel": 1,
      "note": 90,
      "start": 1.5269,
      "duration": 0.0026,
      "velocity": 97,
      "chip": "ym2612"
    },
    {
      "channel": 0,
      "note": 94,
      "start": 1.5287,
      "duration": 0.0024,
      "velocity": 102,
      "chip": "ym2612"
    },
    {
      "channel": 1,
      "note": 94,
      "start": 1.5302,
      "duration": 0.0053,
      "velocity": 97,
      "chip": "ym2612"
    },
    {
      "channel": 0,
      "note": 90,
      "start": 1.5335,
      "duration": 0.0035,
      "velocity": 102,
      "chip": "ym2612"
    },
    {
      "channel": 2,
      "note": 44,
      "start": 1.534,
      "duration": 0.0067,
      "velocity": 72,
      "chip": "ym2612"
    },
    {
      "channel": 1,
      "note": 90,
      "start": 1.5362,
      "duration": 0.0031,
      "velocity": 97,
      "chip": "ym2612"
    },
    {
      "channel": 0,
      "note": 94,
      "start": 1.5384,
      "duration": 0.0025,
      "velocity": 102,
      "chip": "ym2612"
    },
    {
      "channel": 1,
      "note": 94,
      "start": 1.54,
      "duration": 0.0076,
      "velocity": 97,
      "chip": "ym2612"
    },
    {
      "channel": 0,
      "note": 88,
      "start": 1.5446,
      "duration": 0.0044,
      "velocity": 102,
      "chip": "ym2612"
    },
    {
      "channel": 2,
      "note": 44,
      "start": 1.5451,
      "duration": 0.0076,
      "velocity": 72,
      "chip": "ym2612"
    },
    {
      "channel": 3,
      "note": 68,
      "start": 1.5456,
      "duration": 0.0073,
      "velocity": 97,
      "chip": "ym2612"
    },
    {
      "channel": 4,
      "note": 63,
      "start": 1.5462,
      "duration": 0.0068,
      "velocity": 97,
      "chip": "ym2612"
    },
    {
      "channel": 1,
      "note": 88,
      "start": 1.5483,
      "duration": 0.0031,
      "velocity": 97,
      "chip": "ym2612"
    },
    {
      "channel": 0,
      "note": 92,
      "start": 1.5505,
      "duration": 0.0027,
      "velocity": 102,
      "chip": "ym2612"
    },
    {
      "channel": 1,
      "note": 92,
      "start": 1.552,
      "duration": 0.0056,
      "velocity": 97,
      "chip": "ym2612"
    },
    {
      "channel": 0,
      "note": 88,
      "start": 1.5557,
      "duration": 0.0033,
      "velocity": 102,
      "chip": "ym2612"
    },
    {
      "channel": 2,
      "note": 44,
      "start": 1.5562,
      "duration": 0.0061,
      "velocity": 72,
      "chip": "ym2612"
    },
    {
      "channel": 1,
      "note": 88,
      "start": 1.5583,
      "duration": 0.0027,
      "velocity": 97,
      "chip": "ym2612"
    },
    {
      "channel": 0,
      "note": 92,
      "start": 1.5601,
      "duration": 0.0025,
      "velocity": 102,
      "chip": "ym2612"
    },
    {
      "channel": 1,
      "note": 92,
      "start": 1.5616,
      "duration": 0.0067,
      "velocity": 97,
      "chip": "ym2612"
    },
    {
      "channel": 0,
      "note": 88,
      "start": 1.5664,
      "duration": 0.0036,
      "velocity": 102,
      "chip": "ym2612"
    },
    {
      "channel": 2,
      "note": 44,
      "start": 1.567,
      "duration": 0.0063,
      "velocity": 72,
      "chip": "ym2612"
    },
    {
      "channel": 1,
      "note": 88,
      "start": 1.569,
      "duration": 0.0029,
      "velocity": 97,
      "chip": "ym2612"
    },
    {
      "channel": 0,
      "note": 92,
      "start": 1.571,
      "duration": 0.0025,
      "velocity": 102,
      "chip": "ym2612"
    },
    {
      "channel": 1,
      "note": 92,
      "start": 1.5725,
      "duration": 0.0064,
      "velocity": 97,
      "chip": "ym2612"
    },
    {
      "channel": 0,
      "note": 88,
      "start": 1.576,
      "duration": 0.0048,
      "velocity": 102,
      "chip": "ym2612"
    },
    {
      "channel": 2,
      "note": 44,
      "start": 1.5765,
      "duration": 0.0076,
      "velocity": 72,
      "chip": "ym2612"
    },
    {
      "channel": 3,
      "note": 64,
      "start": 1.577,
      "duration": 0.0073,
      "velocity": 97,
      "chip": "ym2612"
    },
    {
      "channel": 4,
      "note": 59,
      "start": 1.5776,
      "duration": 0.0068,
      "velocity": 97,
      "chip": "ym2612"
    },
    {
      "channel": 1,
      "note": 88,
      "start": 1.5796,
      "duration": 0.0031,
      "velocity": 97,
      "chip": "ym2612"
    },
    {
      "channel": 0,
      "note": 92,
      "start": 1.5817,
      "duration": 0.0028,
      "velocity": 102,
      "chip": "ym2612"
    },
    {
      "channel": 1,
      "note": 92,
      "start": 1.5834,
      "duration": 0.0057,
      "velocity": 97,
      "chip": "ym2612"
    },
    {
      "channel": 0,
      "note": 90,
      "start": 1.5871,
      "duration": 0.0034,
      "velocity": 102,
      "chip": "ym2612"
    },
    {
      "channel": 2,
      "note": 47,
      "start": 1.5876,
      "duration": 0.0063,
      "velocity": 72,
      "chip": "ym2612"
    },
    {
      "channel": 1,
      "note": 90,
      "start": 1.5897,
      "duration": 0.0028,
      "velocity": 97,
      "chip": "ym2612"
    },
    {
      "channel": 0,
      "note": 94,
      "start": 1.5916,
      "duration": 0.0026,
      "velocity": 102,
      "chip": "ym2612"
    },
    {
      "channel": 1,
      "note": 94,
      "start": 1.5932,
      "duration": 0.0078,
      "velocity": 97,
      "chip": "ym2612"
    },
    {
      "channel": 0,
      "note": 90,
      "start": 1.598,
      "duration": 0.0044,
      "velocity": 102,
      "chip": "ym2612"
    },
    {
      "channel": 2,
      "note": 47,
      "start": 1.5986,
      "duration": 0.0072,
      "velocity": 72,
      "chip": "ym2612"
    },
    {
      "channel": 3,
      "note": 66,
      "start": 1.5991,
      "duration": 0.0258,
      "velocity": 97,
      "chip": "ym2612"
    },
    {
      "channel": 4,
      "note": 61,
      "start": 1.5996,
      "duration": 0.0255,
      "velocity": 97,
      "chip": "ym2612"
    },
    {
      "channel": 1,
      "note": 90,
      "start": 1.6017,
      "duration": 0.0027,
      "velocity": 97,
      "chip": "ym2612"
    },
    {
      "channel": 0,
      "note": 94,
      "start": 1.6035,
      "duration": 0.0025,
      "velocity": 102,
      "chip": "ym2612"
    },
    {
      "channel": 1,
      "note": 94,
      "start": 1.6051,
      "duration": 0.0055,
      "velocity": 97,
      "chip": "ym2612"
    },
    {
      "channel": 0,
      "note": 90,
      "start": 1.6086,
      "duration": 0.0034,
      "velocity": 102,
      "chip": "ym2612"
    },
    {
      "channel": 2,
      "note": 47,
      "start": 1.6092,
      "duration": 0.0063,
      "velocity": 72,
      "chip": "ym2612"
    },
    {
      "channel": 1,
      "note": 90,
      "start": 1.6113,
      "duration": 0.0027,
      "velocity": 97,
      "chip": "ym2612"
    },
    {
      "channel": 0,
      "note": 94,
      "start": 1.613,
      "duration": 0.0026,
      "velocity": 102,
      "chip": "ym2612"
    },
    {
      "channel": 1,
      "note": 94,
      "start": 1.6147,
      "duration": 0.0052,
      "velocity": 97,
      "chip": "ym2612"
    },
    {
      "channel": 0,
      "note": 90,
      "start": 1.618,
      "duration": 0.0033,
      "velocity": 102,
      "chip": "ym2612"
    },
    {
      "channel": 2,
      "note": 47,
      "start": 1.6185,
      "duration": 0.0063,
      "velocity": 72,
      "chip": "ym2612"
    },
    {
      "channel": 1,
      "note": 90,
      "start": 1.6206,
      "duration": 0.0028,
      "velocity": 97,
      "chip": "ym2612"
    },
    {
      "channel": 0,
      "note": 94,
      "start": 1.6225,
      "duration": 0.0027,
      "velocity": 102,
      "chip": "ym2612"
    },
    {
      "channel": 1,
      "note": 94,
      "start": 1.6241,
      "duration": 0.0069,
      "velocity": 97,
      "chip": "ym2612"
    },
    {
      "channel": 0,
      "note": 92,
      "start": 1.6289,
      "duration": 0.0035,
      "velocity": 102,
      "chip": "ym2612"
    },
    {
      "channel": 2,
      "note": 44,
      "start": 1.6295,
      "duration": 0.0063,
      "velocity": 72,
      "chip": "ym2612"
    },
    {
      "channel": 1,
      "note": 92,
      "start": 1.6317,
      "duration": 0.0027,
      "velocity": 97,
      "chip": "ym2612"
    },
    {
      "channel": 0,
      "note": 95,
      "start": 1.6335,
      "duration": 0.0025,
      "velocity": 102,
      "chip": "ym2612"
    },
    {
      "channel": 1,
      "note": 95,
      "start": 1.635,
      "duration": 0.0065,
      "velocity": 97,
      "chip": "ym2612"
    },
    {
      "channel": 0,
      "note": 92,
      "start": 1.6396,
      "duration": 0.0034,
      "velocity": 102,
      "chip": "ym2612"
    },
    {
      "channel": 2,
      "note": 44,
      "start": 1.6401,
      "duration": 0.0062,
      "velocity": 72,
      "chip": "ym2612"
    },
    {
      "channel": 1,
      "note": 92,
      "start": 1.6422,
      "duration": 0.0027,
      "velocity": 97,
      "chip": "ym2612"
    },
    {
      "channel": 0,
      "note": 95,
      "start": 1.644,
      "duration": 0.0025,
      "velocity": 102,
      "chip": "ym2612"
    },
    {
      "channel": 1,
      "note": 95,
      "start": 1.6456,
      "duration": 0.0077,
      "velocity": 97,
      "chip": "ym2612"
    },
    {
      "channel": 0,
      "note": 92,
      "start": 1.6503,
      "duration": 0.0044,
      "velocity": 102,
      "chip": "ym2612"
    },
    {
      "channel": 2,
      "note": 44,
      "start": 1.6508,
      "duration": 0.0073,
      "velocity": 72,
      "chip": "ym2612"
    },
    {
      "channel": 3,
      "note": 68,
      "start": 1.6513,
      "duration": 0.007,
      "velocity": 97,
      "chip": "ym2612"
    },
    {
      "channel": 4,
      "note": 63,
      "start": 1.6519,
      "duration": 0.0065,
      "velocity": 97,
      "chip": "ym2612"
    },
    {
      "channel": 1,
      "note": 92,
      "start": 1.654,
      "duration": 0.0027,
      "velocity": 97,
      "chip": "ym2612"
    },
    {
      "channel": 0,
      "note": 95,
      "start": 1.6557,
      "duration": 0.0028,
      "velocity": 102,
      "chip": "ym2612"
    },
    {
      "channel": 1,
      "note": 95,
      "start": 1.6574,
      "duration": 0.0041,
      "velocity": 97,
      "chip": "ym2612"
    },
    {
      "channel": 0,
      "note": 92,
      "start": 1.6596,
      "duration": 0.0034,
      "velocity": 102,
      "chip": "ym2612"
    },
    {
      "channel": 2,
      "note": 44,
      "start": 1.6601,
      "duration": 0.0065,
      "velocity": 72,
      "chip": "ym2612"
    },
    {
      "channel": 1,
      "note": 92,
      "start": 1.6622,
      "duration": 0.0031,
      "velocity": 97,
      "chip": "ym2612"
    },
    {
      "channel": 0,
      "note": 95,
      "start": 1.6644,
      "duration": 0.0024,
      "velocity": 102,
      "chip": "ym2612"
    },
    {
      "channel": 1,
      "note": 95,
      "start": 1.6659,
      "duration": 0.0066,
      "velocity": 97,
      "chip": "ym2612"
    },
    {
      "channel": 0,
      "note": 90,
      "start": 1.6707,
      "duration": 0.0032,
      "velocity": 102,
      "chip": "ym2612"
    },
    {
      "channel": 2,
      "note": 44,
      "start": 1.6712,
      "duration": 0.0061,
      "velocity": 72,
      "chip": "ym2612"
    },
    {
      "channel": 1,
      "note": 90,
      "start": 1.6732,
      "duration": 0.0027,
      "velocity": 97,
      "chip": "ym2612"
    },
    {
      "channel": 0,
      "note": 94,
      "start": 1.6751,
      "duration": 0.0025,
      "velocity": 102,
      "chip": "ym2612"
    },
    {
      "channel": 1,
      "note": 94,
      "start": 1.6766,
      "duration": 0.0078,
      "velocity": 97,
      "chip": "ym2612"
    },
    {
      "channel": 0,
      "note": 90,
      "start": 1.6814,
      "duration": 0.0044,
      "velocity": 102,
      "chip": "ym2612"
    },
    {
      "channel": 2,
      "note": 44,
      "start": 1.6819,
      "duration": 0.0074,
      "velocity": 72,
      "chip": "ym2612"
    },
    {
      "channel": 3,
      "note": 66,
      "start": 1.6824,
      "duration": 0.007,
      "velocity": 97,
      "chip": "ym2612"
    },
    {
      "channel": 4,
      "note": 61,
      "start": 1.683,
      "duration": 0.0066,
      "velocity": 97,
      "chip": "ym2612"
    },
    {
      "channel": 1,
      "note": 90,
      "start": 1.6851,
      "duration": 0.0028,
      "velocity": 97,
      "chip": "ym2612"
    },
    {
      "channel": 0,
      "note": 94,
      "start": 1.6869,
      "duration": 0.0027,
      "velocity": 102,
      "chip": "ym2612"
    },
    {
      "channel": 1,
      "note": 94,
      "start": 1.6885,
      "duration": 0.0056,
      "velocity": 97,
      "chip": "ym2612"
    },
    {
      "channel": 0,
      "note": 90,
      "start": 1.6923,
      "duration": 0.0036,
      "velocity": 102,
      "chip": "ym2612"
    },
    {
      "channel": 2,
      "note": 44,
      "start": 1.6928,
      "duration": 0.0065,
      "velocity": 72,
      "chip": "ym2612"
    },
    {
      "channel": 1,
      "note": 90,
      "start": 1.6949,
      "duration": 0.003,
      "velocity": 97,
      "chip": "ym2612"
    },
    {
      "channel": 0,
      "note": 94,
      "start": 1.6969,
      "duration": 0.0026,
      "velocity": 102,
      "chip": "ym2612"
    },
    {
      "channel": 1,
      "note": 94,
      "start": 1.6985,
      "duration": 0.0054,
      "velocity": 97,
      "chip": "ym2612"
    },
    {
      "channel": 0,
      "note": 90,
      "start": 1.702,
      "duration": 0.0036,
      "velocity": 102,
      "chip": "ym2612"
    },
    {
      "channel": 2,
      "note": 44,
      "start": 1.7026,
      "duration": 0.0065,
      "velocity": 72,
      "chip": "ym2612"
    },
    {
      "channel": 1,
      "note": 90,
      "start": 1.7046,
      "duration": 0.003,
      "velocity": 97,
      "chip": "ym2612"
    },
    {
      "channel": 0,
      "note": 94,
      "start": 1.7067,
      "duration": 0.0026,
      "velocity": 102,
      "chip": "ym2612"
    },
    {
      "channel": 1,
      "note": 94,
      "start": 1.7083,
      "duration": 0.0078,
      "velocity": 97,
      "chip": "ym2612"
    },
    {
      "channel": 0,
      "note": 88,
      "start": 1.7131,
      "duration": 0.0044,
      "velocity": 102,
      "chip": "ym2612"
    },
    {
      "channel": 2,
      "note": 44,
      "start": 1.7137,
      "duration": 0.0071,
      "velocity": 72,
      "chip": "ym2612"
    },
    {
      "channel": 3,
      "note": 68,
      "start": 1.7141,
      "duration": 0.0068,
      "velocity": 97,
      "chip": "ym2612"
    },
    {
      "channel": 4,
      "note": 63,
      "start": 1.7147,
      "duration": 0.0063,
      "velocity": 97,
      "chip": "ym2612"
    },
    {
      "channel": 1,
      "note": 88,
      "start": 1.7168,
      "duration": 0.0027,
      "velocity": 97,
      "chip": "ym2612"
    },
    {
      "channel": 0,
      "note": 92,
      "start": 1.7185,
      "duration": 0.0026,
      "velocity": 102,
      "chip": "ym2612"
    },
    {
      "channel": 1,
      "note": 92,
      "start": 1.7201,
      "duration": 0.0055,
      "velocity": 97,
      "chip": "ym2612"
    },
    {
      "channel": 0,
      "note": 88,
      "start": 1.7236,
      "duration": 0.0034,
      "velocity": 102,
      "chip": "ym2612"
    },
    {
      "channel": 2,
      "note": 44,
      "start": 1.7241,
      "duration": 0.0063,
      "velocity": 72,
      "chip": "ym2612"
    },
    {
      "channel": 1,
      "note": 88,
      "start": 1.7263,
      "duration": 0.0027,
      "velocity": 97,
      "chip": "ym2612"
    },
    {
      "channel": 0,
      "note": 92,
      "start": 1.7281,
      "duration": 0.0025,
      "velocity": 102,
      "chip": "ym2612"
    },
    {
      "channel": 1,
      "note": 92,
      "start": 1.7296,
      "duration": 0.0068,
      "velocity": 97,
      "chip": "ym2612"
    },
    {
      "channel": 0,
      "note": 88,
      "start": 1.7344,
      "duration": 0.0034,
      "velocity": 102,
      "chip": "ym2612"
    },
    {
      "channel": 2,
      "note": 44,
      "start": 1.735,
      "duration": 0.0062,
      "velocity": 72,
      "chip": "ym2612"
    },
    {
      "channel": 1,
      "note": 88,
      "start": 1.7371,
      "duration": 0.0027,
      "velocity": 97,
      "chip": "ym2612"
    },
    {
      "channel": 0,
      "note": 92,
      "start": 1.7389,
      "duration": 0.0025,
      "velocity": 102,
      "chip": "ym2612"
    },
    {
      "channel": 1,
      "note": 92,
      "start": 1.7405,
      "duration": 0.0065,
      "velocity": 97,
      "chip": "ym2612"
    },
    {
      "channel": 0,
      "note": 88,
      "start": 1.7439,
      "duration": 0.0044,
      "velocity": 102,
      "chip": "ym2612"
    },
    {
      "channel": 2,
      "note": 44,
      "start": 1.7444,
      "duration": 0.0072,
      "velocity": 72,
      "chip": "ym2612"
    },
    {
      "channel": 3,
      "note": 64,
      "start": 1.7449,
      "duration": 0.0068,
      "velocity": 97,
      "chip": "ym2612"
    },
    {
      "channel": 4,
      "note": 59,
      "start": 1.7455,
      "duration": 0.0064,
      "velocity": 97,
      "chip": "ym2612"
    },
    {
      "channel": 1,
      "note": 88,
      "start": 1.7476,
      "duration": 0.0027,
      "velocity": 97,
      "chip": "ym2612"
    },
    {
      "channel": 0,
      "note": 92,
      "start": 1.7494,
      "duration": 0.0026,
      "velocity": 102,
      "chip": "ym2612"
    },
    {
      "channel": 1,
      "note": 92,
      "start": 1.751,
      "duration": 0.0054,
      "velocity": 97,
      "chip": "ym2612"
    },
    {
      "channel": 0,
      "note": 87,
      "start": 1.7545,
      "duration": 0.0037,
      "velocity": 102,
      "chip": "ym2612"
    },
    {
      "channel": 2,
      "note": 47,
      "start": 1.755,
      "duration": 0.0064,
      "velocity": 72,
      "chip": "ym2612"
    },
    {
      "channel": 1,
      "note": 87,
      "start": 1.757,
      "duration": 0.003,
      "velocity": 97,
      "chip": "ym2612"
    },
    {
      "channel": 0,
      "note": 90,
      "start": 1.7591,
      "duration": 0.0025,
      "velocity": 102,
      "chip": "ym2612"
    },
    {
      "channel": 1,
      "note": 90,
      "start": 1.7607,
      "duration": 0.0078,
      "velocity": 97,
      "chip": "ym2612"
    },
    {
      "channel": 0,
      "note": 87,
      "start": 1.7655,
      "duration": 0.0044,
      "velocity": 102,
      "chip": "ym2612"
    },
    {
      "channel": 2,
      "note": 47,
      "start": 1.766,
      "duration": 0.0072,
      "velocity": 72,
      "chip": "ym2612"
    },
    {
      "channel": 3,
      "note": 66,
      "start": 1.7666,
      "duration": 0.0261,
      "velocity": 97,
      "chip": "ym2612"
    },
    {
      "channel": 4,
      "note": 61,
      "start": 1.7671,
      "duration": 0.0258,
      "velocity": 97,
      "chip": "ym2612"
    },
    {
      "channel": 1,
      "note": 87,
      "start": 1.7692,
      "duration": 0.0027,
      "velocity": 97,
      "chip": "ym2612"
    },
    {
      "channel": 0,
      "note": 90,
      "start": 1.771,
      "duration": 0.0024,
      "velocity": 102,
      "chip": "ym2612"
    },
    {
      "channel": 1,
      "note": 90,
      "start": 1.7725,
      "duration": 0.0054,
      "velocity": 97,
      "chip": "ym2612"
    },
    {
      "channel": 0,
      "note": 87,
      "start": 1.7761,
      "duration": 0.0033,
      "velocity": 102,
      "chip": "ym2612"
    },
    {
      "channel": 2,
      "note": 47,
      "start": 1.7766,
      "duration": 0.0064,
      "velocity": 72,
      "chip": "ym2612"
    },
    {
      "channel": 1,
      "note": 87,
      "start": 1.7786,
      "duration": 0.003,
      "velocity": 97,
      "chip": "ym2612"
    },
    {
      "channel": 0,
      "note": 90,
      "start": 1.7807,
      "duration": 0.0024,
      "velocity": 102,
      "chip": "ym2612"
    },
    {
      "channel": 1,
      "note": 90,
      "start": 1.7822,
      "duration": 0.0054,
      "velocity": 97,
      "chip": "ym2612"
    },
    {
      "channel": 0,
      "note": 87,
      "start": 1.7857,
      "duration": 0.0033,
      "velocity": 102,
      "chip": "ym2612"
    },
    {
      "channel": 2,
      "note": 47,
      "start": 1.7862,
      "duration": 0.0063,
      "velocity": 72,
      "chip": "ym2612"
    },
    {
      "channel": 1,
      "note": 87,
      "start": 1.7883,
      "duration": 0.0028,
      "velocity": 97,
      "chip": "ym2612"
    },
    {
      "channel": 0,
      "note": 90,
      "start": 1.7902,
      "duration": 0.0028,
      "velocity": 102,
      "chip": "ym2612"
    },
    {
      "channel": 1,
      "note": 90,
      "start": 1.7918,
      "duration": 0.0069,
      "velocity": 97,
      "chip": "ym2612"
    },
    {
      "channel": 0,
      "note": 92,
      "start": 1.7966,
      "duration": 0.0036,
      "velocity": 102,
      "chip": "ym2612"
    },
    {
      "channel": 2,
      "note": 44,
      "start": 1.7972,
      "duration": 0.0065,
      "velocity": 72,
      "chip": "ym2612"
    },
    {
      "channel": 1,
      "note": 92,
      "start": 1.7994,
      "duration": 0.0028,
      "velocity": 97,
      "chip": "ym2612"
    },
    {
      "channel": 0,
      "note": 95,
      "start": 1.8012,
      "duration": 0.0026,
      "velocity": 102,
      "chip": "ym2612"
    },
    {
      "channel": 1,
      "note": 95,
      "start": 1.8029,
      "duration": 0.0065,
      "velocity": 97,
      "chip": "ym2612"
    },
    {
      "channel": 0,
      "note": 92,
      "start": 1.8075,
      "duration": 0.0036,
      "velocity": 102,
      "chip": "ym2612"
    },
    {
      "channel": 2,
      "note": 44,
      "start": 1.808,
      "duration": 0.0065,
      "velocity": 72,
      "chip": "ym2612"
    },
    {
      "channel": 1,
      "note": 92,
      "start": 1.8101,
      "duration": 0.003,
      "velocity": 97,
      "chip": "ym2612"
    },
    {
      "channel": 0,
      "note": 95,
      "start": 1.8121,
      "duration": 0.0026,
      "velocity": 102,
      "chip": "ym2612"
    },
    {
      "channel": 1,
      "note": 95,
      "start": 1.8137,
      "duration": 0.0078,
      "velocity": 97,
      "chip": "ym2612"
    },
    {
      "channel": 0,
      "note": 92,
      "start": 1.8186,
      "duration": 0.0044,
      "velocity": 102,
      "chip": "ym2612"
    },
    {
      "channel": 2,
      "note": 44,
      "start": 1.8191,
      "duration": 0.0072,
      "velocity": 72,
      "chip": "ym2612"
    },
    {
      "channel": 3,
      "note": 68,
      "start": 1.8196,
      "duration": 0.0068,
      "velocity": 97,
      "chip": "ym2612"
    },
    {
      "channel": 4,
      "note": 63,
      "start": 1.8202,
      "duration": 0.0064,
      "velocity": 97,
      "chip": "ym2612"
    },
    {
      "channel": 1,
      "note": 92,
      "start": 1.8222,
      "duration": 0.0027,
      "velocity": 97,
      "chip": "ym2612"
    },
    {
      "channel": 0,
      "note": 95,
      "start": 1.824,
      "duration": 0.0027,
      "velocity": 102,
      "chip": "ym2612"
    },
    {
      "channel": 1,
      "note": 95,
      "start": 1.8256,
      "duration": 0.0044,
      "velocity": 97,
      "chip": "ym2612"
    },
    {
      "channel": 0,
      "note": 92,
      "start": 1.828,
      "duration": 0.0034,
      "velocity": 102,
      "chip": "ym2612"
    },
    {
      "channel": 2,
      "note": 44,
      "start": 1.8286,
      "duration": 0.0062,
      "velocity": 72,
      "chip": "ym2612"
    },
    {
      "channel": 1,
      "note": 92,
      "start": 1.8307,
      "duration": 0.0027,
      "velocity": 97,
      "chip": "ym2612"
    },
    {
      "channel": 0,
      "note": 95,
      "start": 1.8325,
      "duration": 0.0025,
      "velocity": 102,
      "chip": "ym2612"
    },
    {
      "channel": 1,
      "note": 95,
      "start": 1.834,
      "duration": 0.0068,
      "velocity": 97,
      "chip": "ym2612"
    },
    {
      "channel": 0,
      "note": 90,
      "start": 1.8388,
      "duration": 0.0034,
      "velocity": 102,
      "chip": "ym2612"
    },
    {
      "channel": 2,
      "note": 44,
      "start": 1.8394,
      "duration": 0.0062,
      "velocity": 72,
      "chip": "ym2612"
    },
    {
      "channel": 1,
      "note": 90,
      "start": 1.8415,
      "duration": 0.0027,
      "velocity": 97,
      "chip": "ym2612"
    },
    {
      "channel": 0,
      "note": 94,
      "start": 1.8433,
      "duration": 0.0025,
      "velocity": 102,
      "chip": "ym2612"
    },
    {
      "channel": 1,
      "note": 94,
      "start": 1.8449,
      "duration": 0.0078,
      "velocity": 97,
      "chip": "ym2612"
    },
    {
      "channel": 0,
      "note": 90,
      "start": 1.8496,
      "duration": 0.0044,
      "velocity": 102,
      "chip": "ym2612"
    },
    {
      "channel": 2,
      "note": 44,
      "start": 1.8502,
      "duration": 0.0073,
      "velocity": 72,
      "chip": "ym2612"
    },
    {
      "channel": 3,
      "note": 66,
      "start": 1.8507,
      "duration": 0.0069,
      "velocity": 97,
      "chip": "ym2612"
    },
    {
      "channel": 4,
      "note": 61,
      "start": 1.8512,
      "duration": 0.0065,
      "velocity": 97,
      "chip": "ym2612"
    },
    {
      "channel": 1,
      "note": 90,
      "start": 1.8533,
      "duration": 0.0027,
      "velocity": 97,
      "chip": "ym2612"
    },
    {
      "channel": 0,
      "note": 94,
      "start": 1.8551,
      "duration": 0.0027,
      "velocity": 102,
      "chip": "ym2612"
    },
    {
      "channel": 1,
      "note": 94,
      "start": 1.8567,
      "duration": 0.0056,
      "velocity": 97,
      "chip": "ym2612"
    },
    {
      "channel": 0,
      "note": 90,
      "start": 1.8602,
      "duration": 0.0034,
      "velocity": 102,
      "chip": "ym2612"
    },
    {
      "channel": 2,
      "note": 44,
      "start": 1.8608,
      "duration": 0.0061,
      "velocity": 72,
      "chip": "ym2612"
    },
    {
      "channel": 1,
      "note": 90,
      "start": 1.8629,
      "duration": 0.0026,
      "velocity": 97,
      "chip": "ym2612"
    },
    {
      "channel": 0,
      "note": 94,
      "start": 1.8647,
      "duration": 0.0024,
      "velocity": 102,
      "chip": "ym2612"
    },
    {
      "channel": 1,
      "note": 94,
      "start": 1.8662,
      "duration": 0.0053,
      "velocity": 97,
      "chip": "ym2612"
    },
    {
      "channel": 0,
      "note": 90,
      "start": 1.8695,
      "duration": 0.0035,
      "velocity": 102,
      "chip": "ym2612"
    },
    {
      "channel": 2,
      "note": 44,
      "start": 1.87,
      "duration": 0.0067,
      "velocity": 72,
      "chip": "ym2612"
    },
    {
      "channel": 1,
      "note": 90,
      "start": 1.8722,
      "duration": 0.0031,
      "velocity": 97,
      "chip": "ym2612"
    },
    {
      "channel": 0,
      "note": 94,
      "start": 1.8744,
      "duration": 0.0025,
      "velocity": 102,
      "chip": "ym2612"
    },
    {
      "channel": 1,
      "note": 94,
      "start": 1.876,
      "duration": 0.0076,
      "velocity": 97,
      "chip": "ym2612"
    },
    {
      "channel": 0,
      "note": 88,
      "start": 1.8806,
      "duration": 0.0044,
      "velocity": 102,
      "chip": "ym2612"
    },
    {
      "channel": 2,
      "note": 44,
      "start": 1.8811,
      "duration": 0.0076,
      "velocity": 72,
      "chip": "ym2612"
    },
    {
      "channel": 3,
      "note": 68,
      "start": 1.8816,
      "duration": 0.0073,
      "velocity": 97,
      "chip": "ym2612"
    },
    {
      "channel": 4,
      "note": 63,
      "start": 1.8822,
      "duration": 0.0068,
      "velocity": 97,
      "chip": "ym2612"
    },
    {
      "channel": 1,
      "note": 88,
      "start": 1.8843,
      "duration": 0.0031,
      "velocity": 97,
      "chip": "ym2612"
    },
    {
      "channel": 0,
      "note": 92,
      "start": 1.8865,
      "duration": 0.0027,
      "velocity": 102,
      "chip": "ym2612"
    },
    {
      "channel": 1,
      "note": 92,
      "start": 1.888,
      "duration": 0.0056,
      "velocity": 97,
      "chip": "ym2612"
    },
    {
      "channel": 0,
      "note": 88,
      "start": 1.8917,
      "duration": 0.0033,
      "velocity": 102,
      "chip": "ym2612"
    },
    {
      "channel": 2,
      "note": 44,
      "start": 1.8922,
      "duration": 0.0061,
      "velocity": 72,
      "chip": "ym2612"
    },
    {
      "channel": 1,
      "note": 88,
      "start": 1.8943,
      "duration": 0.0027,
      "velocity": 97,
      "chip": "ym2612"
    },
    {
      "channel": 0,
      "note": 92,
      "start": 1.8961,
      "duration": 0.0025,
      "velocity": 102,
      "chip": "ym2612"
    },
    {
      "channel": 1,
      "note": 92,
      "start": 1.8976,
      "duration": 0.0067,
      "velocity": 97,
      "chip": "ym2612"
    },
    {
      "channel": 0,
      "note": 88,
      "start": 1.9024,
      "duration": 0.0036,
      "velocity": 102,
      "chip": "ym2612"
    },
    {
      "channel": 2,
      "note": 44,
      "start": 1.903,
      "duration": 0.0063,
      "velocity": 72,
      "chip": "ym2612"
    },
    {
      "channel": 1,
      "note": 88,
      "start": 1.905,
      "duration": 0.0029,
      "velocity": 97,
      "chip": "ym2612"
    },
    {
      "channel": 0,
      "note": 92,
      "start": 1.907,
      "duration": 0.0025,
      "velocity": 102,
      "chip": "ym2612"
    },
    {
      "channel": 1,
      "note": 92,
      "start": 1.9085,
      "duration": 0.0064,
      "velocity": 97,
      "chip": "ym2612"
    },
    {
      "channel": 0,
      "note": 88,
      "start": 1.912,
      "duration": 0.0048,
      "velocity": 102,
      "chip": "ym2612"
    },
    {
      "channel": 2,
      "note": 44,
      "start": 1.9125,
      "duration": 0.0076,
      "velocity": 72,
      "chip": "ym2612"
    },
    {
      "channel": 3,
      "note": 64,
      "start": 1.913,
      "duration": 0.0073,
      "velocity": 97,
      "chip": "ym2612"
    },
    {
      "channel": 4,
      "note": 59,
      "start": 1.9136,
      "duration": 0.0068,
      "velocity": 97,
      "chip": "ym2612"
    },
    {
      "channel": 1,
      "note": 88,
      "start": 1.9156,
      "duration": 0.0031,
      "velocity": 97,
      "chip": "ym2612"
    },
    {
      "channel": 0,
      "note": 92,
      "start": 1.9178,
      "duration": 0.0028,
      "velocity": 102,
      "chip": "ym2612"
    },
    {
      "channel": 1,
      "note": 92,
      "start": 1.9194,
      "duration": 0.0057,
      "velocity": 97,
      "chip": "ym2612"
    },
    {
      "channel": 0,
      "note": 90,
      "start": 1.9231,
      "duration": 0.0034,
      "velocity": 102,
      "chip": "ym2612"
    },
    {
      "channel": 2,
      "note": 47,
      "start": 1.9237,
      "duration": 0.0063,
      "velocity": 72,
      "chip": "ym2612"
    },
    {
      "channel": 1,
      "note": 90,
      "start": 1.9257,
      "duration": 0.0028,
      "velocity": 97,
      "chip": "ym2612"
    },
    {
      "channel": 0,
      "note": 94,
      "start": 1.9276,
      "duration": 0.0026,
      "velocity": 102,
      "chip": "ym2612"
    },
    {
      "channel": 1,
      "note": 94,
      "start": 1.9292,
      "duration": 0.0078,
      "velocity": 97,
      "chip": "ym2612"
    },
    {
      "channel": 0,
      "note": 90,
      "start": 1.9341,
      "duration": 0.0044,
      "velocity": 102,
      "chip": "ym2612"
    },
    {
      "channel": 2,
      "note": 47,
      "start": 1.9346,
      "duration": 0.0072,
      "velocity": 72,
      "chip": "ym2612"
    },
    {
      "channel": 3,
      "note": 66,
      "start": 1.9351,
      "duration": 0.0258,
      "velocity": 97,
      "chip": "ym2612"
    },
    {
      "channel": 4,
      "note": 61,
      "start": 1.9356,
      "duration": 0.0255,
      "velocity": 97,
      "chip": "ym2612"
    },
    {
      "channel": 1,
      "note": 90,
      "start": 1.9377,
      "duration": 0.0027,
      "velocity": 97,
      "chip": "ym2612"
    },
    {
      "channel": 0,
      "note": 94,
      "start": 1.9395,
      "duration": 0.0025,
      "velocity": 102,
      "chip": "ym2612"
    },
    {
      "channel": 1,
      "note": 94,
      "start": 1.9411,
      "duration": 0.0055,
      "velocity": 97,
      "chip": "ym2612"
    },
    {
      "channel": 0,
      "note": 90,
      "start": 1.9446,
      "duration": 0.0034,
      "velocity": 102,
      "chip": "ym2612"
    },
    {
      "channel": 2,
      "note": 47,
      "start": 1.9452,
      "duration": 0.0063,
      "velocity": 72,
      "chip": "ym2612"
    },
    {
      "channel": 1,
      "note": 90,
      "start": 1.9473,
      "duration": 0.0027,
      "velocity": 97,
      "chip": "ym2612"
    },
    {
      "channel": 0,
      "note": 94,
      "start": 1.949,
      "duration": 0.0026,
      "velocity": 102,
      "chip": "ym2612"
    },
    {
      "channel": 1,
      "note": 94,
      "start": 1.9507,
      "duration": 0.0052,
      "velocity": 97,
      "chip": "ym2612"
    },
    {
      "channel": 0,
      "note": 90,
      "start": 1.954,
      "duration": 0.0033,
      "velocity": 102,
      "chip": "ym2612"
    },
    {
      "channel": 2,
      "note": 47,
      "start": 1.9545,
      "duration": 0.0063,
      "velocity": 72,
      "chip": "ym2612"
    },
    {
      "channel": 1,
      "note": 90,
      "start": 1.9566,
      "duration": 0.0028,
      "velocity": 97,
      "chip": "ym2612"
    },
    {
      "channel": 0,
      "note": 94,
      "start": 1.9585,
      "duration": 0.0027,
      "velocity": 102,
      "chip": "ym2612"
    },
    {
      "channel": 1,
      "note": 94,
      "start": 1.9601,
      "duration": 0.0056,
      "velocity": 97,
      "chip": "ym2612"
    },
    {
      "channel": 0,
      "note": 95,
      "start": 1.9636,
      "duration": 0.0035,
      "velocity": 102,
      "chip": "ym2612"
    },
    {
      "channel": 2,
      "note": 44,
      "start": 1.9641,
      "duration": 0.0063,
      "velocity": 72,
      "chip": "ym2612"
    },
    {
      "channel": 1,
      "note": 95,
      "start": 1.9663,
      "duration": 0.0027,
      "velocity": 97,
      "chip": "ym2612"
    },
    {
      "channel": 0,
      "note": 99,
      "start": 1.9681,
      "duration": 0.0025,
      "velocity": 102,
      "chip": "ym2612"
    },
    {
      "channel": 1,
      "note": 99,
      "start": 1.9697,
      "duration": 0.0064,
      "velocity": 97,
      "chip": "ym2612"
    },
    {
      "channel": 0,
      "note": 95,
      "start": 1.9741,
      "duration": 0.0035,
      "velocity": 102,
      "chip": "ym2612"
    },
    {
      "channel": 2,
      "note": 44,
      "start": 1.9747,
      "duration": 0.0066,
      "velocity": 72,
      "chip": "ym2612"
    },
    {
      "channel": 1,
      "note": 95,
      "start": 1.9768,
      "duration": 0.003,
      "velocity": 97,
      "chip": "ym2612"
    },
    {
      "channel": 0,
      "note": 99,
      "start": 1.979,
      "duration": 0.0024,
      "velocity": 102,
      "chip": "ym2612"
    },
    {
      "channel": 1,
      "note": 99,
      "start": 1.9805,
      "duration": 0.0077,
      "velocity": 97,
      "chip": "ym2612"
    },
    {
      "channel": 0,
      "note": 95,
      "start": 1.9852,
      "duration": 0.0044,
      "velocity": 102,
      "chip": "ym2612"
    },
    {
      "channel": 2,
      "note": 44,
      "start": 1.9857,
      "duration": 0.0074,
      "velocity": 72,
      "chip": "ym2612"
    },
    {
      "channel": 3,
      "note": 68,
      "start": 1.9863,
      "duration": 0.0069,
      "velocity": 97,
      "chip": "ym2612"
    },
    {
      "channel": 4,
      "note": 63,
      "start": 1.9868,
      "duration": 0.0066,
      "velocity": 97,
      "chip": "ym2612"
    },
    {
      "channel": 1,
      "note": 95,
      "start": 1.9889,
      "duration": 0.0027,
      "velocity": 97,
      "chip": "ym2612"
    },
    {
      "channel": 0,
      "note": 99,
      "start": 1.9907,
      "duration": 0.0027,
      "velocity": 102,
      "chip": "ym2612"
    },
    {
      "channel": 1,
      "note": 99,
      "start": 1.9923,
      "duration": 0.0044,
      "velocity": 97,
      "chip": "ym2612"
    },
    {
      "channel": 0,
      "note": 95,
      "start": 1.9948,
      "duration": 0.0036,
      "velocity": 102,
      "chip": "ym2612"
    },
    {
      "channel": 2,
      "note": 44,
      "start": 1.9953,
      "duration": 0.0065,
      "velocity": 72,
      "chip": "ym2612"
    },
    {
      "channel": 1,
      "note": 95,
      "start": 1.9973,
      "duration": 0.003,
      "velocity": 97,
      "chip": "ym2612"
    },
    {
      "channel": 0,
      "note": 99,
      "start": 1.9994,
      "duration": 0.0026,
      "velocity": 102,
      "chip": "ym2612"
    },
    {
      "channel": 1,
      "note": 99,
      "start": 2.001,
      "duration": 0.0068,
      "velocity": 97,
      "chip": "ym2612"
    },
    {
      "channel": 0,
      "note": 94,
      "start": 2.0059,
      "duration": 0.0034,
      "velocity": 102,
      "chip": "ym2612"
    },
    {
      "channel": 2,
      "note": 44,
      "start": 2.0064,
      "duration": 0.0063,
      "velocity": 72,
      "chip": "ym2612"
    },
    {
      "channel": 1,
      "note": 94,
      "start": 2.0085,
      "duration": 0.0027,
      "velocity": 97,
      "chip": "ym2612"
    },
    {
      "channel": 0,
      "note": 97,
      "start": 2.0103,
      "duration": 0.0025,
      "velocity": 102,
      "chip": "ym2612"
    },
    {
      "channel": 1,
      "note": 97,
      "start": 2.0119,
      "duration": 0.0077,
      "velocity": 97,
      "chip": "ym2612"
    },
    {
      "channel": 0,
      "note": 94,
      "start": 2.0166,
      "duration": 0.0044,
      "velocity": 102,
      "chip": "ym2612"
    },
    {
      "channel": 2,
      "note": 44,
      "start": 2.0171,
      "duration": 0.0073,
      "velocity": 72,
      "chip": "ym2612"
    },
    {
      "channel": 3,
      "note": 66,
      "start": 2.0177,
      "duration": 0.0069,
      "velocity": 97,
      "chip": "ym2612"
    },
    {
      "channel": 4,
      "note": 61,
      "start": 2.0182,
      "duration": 0.0065,
      "velocity": 97,
      "chip": "ym2612"
    },
    {
      "channel": 1,
      "note": 94,
      "start": 2.0203,
      "duration": 0.0027,
      "velocity": 97,
      "chip": "ym2612"
    },
    {
      "channel": 0,
      "note": 97,
      "start": 2.022,
      "duration": 0.0028,
      "velocity": 102,
      "chip": "ym2612"
    },
    {
      "channel": 1,
      "note": 97,
      "start": 2.0237,
      "duration": 0.0056,
      "velocity": 97,
      "chip": "ym2612"
    },
    {
      "channel": 0,
      "note": 94,
      "start": 2.0273,
      "duration": 0.0035,
      "velocity": 102,
      "chip": "ym2612"
    },
    {
      "channel": 2,
      "note": 44,
      "start": 2.0278,
      "duration": 0.0067,
      "velocity": 72,
      "chip": "ym2612"
    },
    {
      "channel": 1,
      "note": 94,
      "start": 2.03,
      "duration": 0.0031,
      "velocity": 97,
      "chip": "ym2612"
    },
    {
      "channel": 0,
      "note": 97,
      "start": 2.0322,
      "duration": 0.0024,
      "velocity": 102,
      "chip": "ym2612"
    },
    {
      "channel": 1,
      "note": 97,
      "start": 2.0337,
      "duration": 0.0052,
      "velocity": 97,
      "chip": "ym2612"
    },
    {
      "channel": 0,
      "note": 94,
      "start": 2.0371,
      "duration": 0.0037,
      "velocity": 102,
      "chip": "ym2612"
    },
    {
      "channel": 2,
      "note": 44,
      "start": 2.0376,
      "duration": 0.0064,
      "velocity": 72,
      "chip": "ym2612"
    },
    {
      "channel": 1,
      "note": 94,
      "start": 2.0396,
      "duration": 0.003,
      "velocity": 97,
      "chip": "ym2612"
    },
    {
      "channel": 0,
      "note": 97,
      "start": 2.0417,
      "duration": 0.0025,
      "velocity": 102,
      "chip": "ym2612"
    },
    {
      "channel": 1,
      "note": 97,
      "start": 2.0433,
      "duration": 0.0077,
      "velocity": 97,
      "chip": "ym2612"
    },
    {
      "channel": 0,
      "note": 92,
      "start": 2.0481,
      "duration": 0.0047,
      "velocity": 102,
      "chip": "ym2612"
    },
    {
      "channel": 2,
      "note": 44,
      "start": 2.0486,
      "duration": 0.0076,
      "velocity": 72,
      "chip": "ym2612"
    },
    {
      "channel": 3,
      "note": 68,
      "start": 2.0491,
      "duration": 0.0072,
      "velocity": 97,
      "chip": "ym2612"
    },
    {
      "channel": 4,
      "note": 63,
      "start": 2.0497,
      "duration": 0.0068,
      "velocity": 97,
      "chip": "ym2612"
    },
    {
      "channel": 1,
      "note": 92,
      "start": 2.0517,
      "duration": 0.0031,
      "velocity": 97,
      "chip": "ym2612"
    },
    {
      "channel": 0,
      "note": 95,
      "start": 2.0538,
      "duration": 0.0027,
      "velocity": 102,
      "chip": "ym2612"
    },
    {
      "channel": 1,
      "note": 95,
      "start": 2.0554,
      "duration": 0.0056,
      "velocity": 97,
      "chip": "ym2612"
    },
    {
      "channel": 0,
      "note": 92,
      "start": 2.0592,
      "duration": 0.0036,
      "velocity": 102,
      "chip": "ym2612"
    },
    {
      "channel": 2,
      "note": 44,
      "start": 2.0597,
      "duration": 0.0065,
      "velocity": 72,
      "chip": "ym2612"
    },
    {
      "channel": 1,
      "note": 92,
      "start": 2.0617,
      "duration": 0.003,
      "velocity": 97,
      "chip": "ym2612"
    },
    {
      "channel": 0,
      "note": 95,
      "start": 2.0638,
      "duration": 0.0026,
      "velocity": 102,
      "chip": "ym2612"
    },
    {
      "channel": 1,
      "note": 95,
      "start": 2.0654,
      "duration": 0.0068,
      "velocity": 97,
      "chip": "ym2612"
    },
    {
      "channel": 0,
      "note": 92,
      "start": 2.0702,
      "duration": 0.0034,
      "velocity": 102,
      "chip": "ym2612"
    },
    {
      "channel": 2,
      "note": 44,
      "start": 2.0708,
      "duration": 0.0063,
      "velocity": 72,
      "chip": "ym2612"
    },
    {
      "channel": 1,
      "note": 92,
      "start": 2.0729,
      "duration": 0.0027,
      "velocity": 97,
      "chip": "ym2612"
    },
    {
      "channel": 0,
      "note": 95,
      "start": 2.0746,
      "duration": 0.0026,
      "velocity": 102,
      "chip": "ym2612"
    },
    {
      "channel": 1,
      "note": 95,
      "start": 2.0762,
      "duration": 0.0065,
      "velocity": 97,
      "chip": "ym2612"
    },
    {
      "channel": 0,
      "note": 92,
      "start": 2.0798,
      "duration": 0.0046,
      "velocity": 102,
      "chip": "ym2612"
    },
    {
      "channel": 2,
      "note": 44,
      "start": 2.0803,
      "duration": 0.0075,
      "velocity": 72,
      "chip": "ym2612"
    },
    {
      "channel": 3,
      "note": 64,
      "start": 2.0808,
      "duration": 0.0071,
      "velocity": 97,
      "chip": "ym2612"
    },
    {
      "channel": 4,
      "note": 59,
      "start": 2.0814,
      "duration": 0.0067,
      "velocity": 97,
      "chip": "ym2612"
    },
    {
      "channel": 1,
      "note": 92,
      "start": 2.0834,
      "duration": 0.003,
      "velocity": 97,
      "chip": "ym2612"
    },
    {
      "channel": 0,
      "note": 95,
      "start": 2.0854,
      "duration": 0.0027,
      "velocity": 102,
      "chip": "ym2612"
    },
    {
      "channel": 1,
      "note": 95,
      "start": 2.0871,
      "duration": 0.0056,
      "velocity": 97,
      "chip": "ym2612"
    },
    {
      "channel": 0,
      "note": 90,
      "start": 2.0908,
      "duration": 0.0033,
      "velocity": 102,
      "chip": "ym2612"
    },
    {
      "channel": 2,
      "note": 47,
      "start": 2.0913,
      "duration": 0.0062,
      "velocity": 72,
      "chip": "ym2612"
    },
    {
      "channel": 1,
      "note": 90,
      "start": 2.0933,
      "duration": 0.0027,
      "velocity": 97,
      "chip": "ym2612"
    },
    {
      "channel": 0,
      "note": 94,
      "start": 2.0952,
      "duration": 0.0025,
      "velocity": 102,
      "chip": "ym2612"
    },
    {
      "channel": 1,
      "note": 94,
      "start": 2.0967,
      "duration": 0.0077,
      "velocity": 97,
      "chip": "ym2612"
    },
    {
      "channel": 0,
      "note": 90,
      "start": 2.1014,
      "duration": 0.0045,
      "velocity": 102,
      "chip": "ym2612"
    },
    {
      "channel": 2,
      "note": 47,
      "start": 2.1019,
      "duration": 0.0073,
      "velocity": 72,
      "chip": "ym2612"
    },
    {
      "channel": 3,
      "note": 66,
      "start": 2.1025,
      "duration": 0.0262,
      "velocity": 97,
      "chip": "ym2612"
    },
    {
      "channel": 4,
      "note": 61,
      "start": 2.103,
      "duration": 0.0259,
      "velocity": 97,
      "chip": "ym2612"
    },
    {
      "channel": 1,
      "note": 90,
      "start": 2.1051,
      "duration": 0.0027,
      "velocity": 97,
      "chip": "ym2612"
    },
    {
      "channel": 0,
      "note": 94,
      "start": 2.1069,
      "duration": 0.0026,
      "velocity": 102,
      "chip": "ym2612"
    },
    {
      "channel": 1,
      "note": 94,
      "start": 2.1085,
      "duration": 0.0055,
      "velocity": 97,
      "chip": "ym2612"
    },
    {
      "channel": 0,
      "note": 90,
      "start": 2.1121,
      "duration": 0.0033,
      "velocity": 102,
      "chip": "ym2612"
    },
    {
      "channel": 2,
      "note": 47,
      "start": 2.1127,
      "duration": 0.0063,
      "velocity": 72,
      "chip": "ym2612"
    },
    {
      "channel": 1,
      "note": 90,
      "start": 2.1147,
      "duration": 0.0027,
      "velocity": 97,
      "chip": "ym2612"
    },
    {
      "channel": 0,
      "note": 94,
      "start": 2.1166,
      "duration": 0.0025,
      "velocity": 102,
      "chip": "ym2612"
    },
    {
      "channel": 1,
      "note": 94,
      "start": 2.1181,
      "duration": 0.0054,
      "velocity": 97,
      "chip": "ym2612"
    },
    {
      "channel": 0,
      "note": 90,
      "start": 2.1216,
      "duration": 0.0036,
      "velocity": 102,
      "chip": "ym2612"
    },
    {
      "channel": 2,
      "note": 47,
      "start": 2.1222,
      "duration": 0.0064,
      "velocity": 72,
      "chip": "ym2612"
    },
    {
      "channel": 1,
      "note": 90,
      "start": 2.1242,
      "duration": 0.003,
      "velocity": 97,
      "chip": "ym2612"
    },
    {
      "channel": 0,
      "note": 94,
      "start": 2.1262,
      "duration": 0.0027,
      "velocity": 102,
      "chip": "ym2612"
    },
    {
      "channel": 1,
      "note": 94,
      "start": 2.1278,
      "duration": 0.0068,
      "velocity": 97,
      "chip": "ym2612"
    },
    {
      "channel": 0,
      "note": 95,
      "start": 2.1325,
      "duration": 0.0035,
      "velocity": 102,
      "chip": "ym2612"
    },
    {
      "channel": 2,
      "note": 44,
      "start": 2.1331,
      "duration": 0.0062,
      "velocity": 72,
      "chip": "ym2612"
    },
    {
      "channel": 1,
      "note": 95,
      "start": 2.1353,
      "duration": 0.0026,
      "velocity": 97,
      "chip": "ym2612"
    },
    {
      "channel": 0,
      "note": 99,
      "start": 2.1371,
      "duration": 0.0024,
      "velocity": 102,
      "chip": "ym2612"
    },
    {
      "channel": 1,
      "note": 99,
      "start": 2.1386,
      "duration": 0.0063,
      "velocity": 97,
      "chip": "ym2612"
    },
    {
      "channel": 0,
      "note": 95,
      "start": 2.143,
      "duration": 0.0035,
      "velocity": 102,
      "chip": "ym2612"
    },
    {
      "channel": 2,
      "note": 44,
      "start": 2.1435,
      "duration": 0.0066,
      "velocity": 72,
      "chip": "ym2612"
    },
    {
      "channel": 1,
      "note": 95,
      "start": 2.1456,
      "duration": 0.003,
      "velocity": 97,
      "chip": "ym2612"
    },
    {
      "channel": 0,
      "note": 99,
      "start": 2.1479,
      "duration": 0.0024,
      "velocity": 102,
      "chip": "ym2612"
    },
    {
      "channel": 1,
      "note": 99,
      "start": 2.1493,
      "duration": 0.0076,
      "velocity": 97,
      "chip": "ym2612"
    },
    {
      "channel": 0,
      "note": 95,
      "start": 2.154,
      "duration": 0.0044,
      "velocity": 102,
      "chip": "ym2612"
    },
    {
      "channel": 2,
      "note": 44,
      "start": 2.1545,
      "duration": 0.0074,
      "velocity": 72,
      "chip": "ym2612"
    },
    {
      "channel": 3,
      "note": 68,
      "start": 2.1551,
      "duration": 0.007,
      "velocity": 97,
      "chip": "ym2612"
    },
    {
      "channel": 4,
      "note": 63,
      "start": 2.1556,
      "duration": 0.0066,
      "velocity": 97,
      "chip": "ym2612"
    },
    {
      "channel": 1,
      "note": 95,
      "start": 2.1576,
      "duration": 0.0028,
      "velocity": 97,
      "chip": "ym2612"
    },
    {
      "channel": 0,
      "note": 99,
      "start": 2.1596,
      "duration": 0.0027,
      "velocity": 102,
      "chip": "ym2612"
    },
    {
      "channel": 1,
      "note": 99,
      "start": 2.1611,
      "duration": 0.0044,
      "velocity": 97,
      "chip": "ym2612"
    },
    {
      "channel": 0,
      "note": 95,
      "start": 2.1637,
      "duration": 0.0036,
      "velocity": 102,
      "chip": "ym2612"
    },
    {
      "channel": 2,
      "note": 44,
      "start": 2.1642,
      "duration": 0.0063,
      "velocity": 72,
      "chip": "ym2612"
    },
    {
      "channel": 1,
      "note": 95,
      "start": 2.1662,
      "duration": 0.0029,
      "velocity": 97,
      "chip": "ym2612"
    },
    {
      "channel": 0,
      "note": 99,
      "start": 2.1683,
      "duration": 0.0025,
      "velocity": 102,
      "chip": "ym2612"
    },
    {
      "channel": 1,
      "note": 99,
      "start": 2.1698,
      "duration": 0.0067,
      "velocity": 97,
      "chip": "ym2612"
    },
    {
      "channel": 0,
      "note": 94,
      "start": 2.1746,
      "duration": 0.0036,
      "velocity": 102,
      "chip": "ym2612"
    },
    {
      "channel": 2,
      "note": 44,
      "start": 2.1751,
      "duration": 0.0065,
      "velocity": 72,
      "chip": "ym2612"
    },
    {
      "channel": 1,
      "note": 94,
      "start": 2.1771,
      "duration": 0.003,
      "velocity": 97,
      "chip": "ym2612"
    },
    {
      "channel": 0,
      "note": 97,
      "start": 2.1792,
      "duration": 0.0026,
      "velocity": 102,
      "chip": "ym2612"
    },
    {
      "channel": 1,
      "note": 97,
      "start": 2.1808,
      "duration": 0.0078,
      "velocity": 97,
      "chip": "ym2612"
    },
    {
      "channel": 0,
      "note": 94,
      "start": 2.1857,
      "duration": 0.0047,
      "velocity": 102,
      "chip": "ym2612"
    },
    {
      "channel": 2,
      "note": 44,
      "start": 2.1862,
      "duration": 0.0075,
      "velocity": 72,
      "chip": "ym2612"
    },
    {
      "channel": 3,
      "note": 66,
      "start": 2.1868,
      "duration": 0.0071,
      "velocity": 97,
      "chip": "ym2612"
    },
    {
      "channel": 4,
      "note": 61,
      "start": 2.1873,
      "duration": 0.0067,
      "velocity": 97,
      "chip": "ym2612"
    },
    {
      "channel": 1,
      "note": 94,
      "start": 2.1893,
      "duration": 0.003,
      "velocity": 97,
      "chip": "ym2612"
    },
    {
      "channel": 0,
      "note": 97,
      "start": 2.1914,
      "duration": 0.0027,
      "velocity": 102,
      "chip": "ym2612"
    },
    {
      "channel": 1,
      "note": 97,
      "start": 2.1929,
      "duration": 0.0056,
      "velocity": 97,
      "chip": "ym2612"
    },
    {
      "channel": 0,
      "note": 94,
      "start": 2.1965,
      "duration": 0.0034,
      "velocity": 102,
      "chip": "ym2612"
    },
    {
      "channel": 2,
      "note": 44,
      "start": 2.1971,
      "duration": 0.0061,
      "velocity": 72,
      "chip": "ym2612"
    },
    {
      "channel": 1,
      "note": 94,
      "start": 2.1992,
      "duration": 0.0027,
      "velocity": 97,
      "chip": "ym2612"
    },
    {
      "channel": 0,
      "note": 97,
      "start": 2.201,
      "duration": 0.0024,
      "velocity": 102,
      "chip": "ym2612"
    },
    {
      "channel": 1,
      "note": 97,
      "start": 2.2025,
      "duration": 0.0052,
      "velocity": 97,
      "chip": "ym2612"
    },
    {
      "channel": 0,
      "note": 94,
      "start": 2.2058,
      "duration": 0.0035,
      "velocity": 102,
      "chip": "ym2612"
    },
    {
      "channel": 2,
      "note": 44,
      "start": 2.2063,
      "duration": 0.0065,
      "velocity": 72,
      "chip": "ym2612"
    },
    {
      "channel": 1,
      "note": 94,
      "start": 2.2084,
      "duration": 0.003,
      "velocity": 97,
      "chip": "ym2612"
    },
    {
      "channel": 0,
      "note": 97,
      "start": 2.2107,
      "duration": 0.0024,
      "velocity": 102,
      "chip": "ym2612"
    },
    {
      "channel": 1,
      "note": 97,
      "start": 2.2121,
      "duration": 0.0077,
      "velocity": 97,
      "chip": "ym2612"
    },
    {
      "channel": 0,
      "note": 92,
      "start": 2.2168,
      "duration": 0.0045,
      "velocity": 102,
      "chip": "ym2612"
    },
    {
      "channel": 2,
      "note": 44,
      "start": 2.2173,
      "duration": 0.0076,
      "velocity": 72,
      "chip": "ym2612"
    },
    {
      "channel": 3,
      "note": 68,
      "start": 2.2178,
      "duration": 0.0073,
      "velocity": 97,
      "chip": "ym2612"
    },
    {
      "channel": 4,
      "note": 63,
      "start": 2.2183,
      "duration": 0.0068,
      "velocity": 97,
      "chip": "ym2612"
    },
    {
      "channel": 1,
      "note": 92,
      "start": 2.2205,
      "duration": 0.003,
      "velocity": 97,
      "chip": "ym2612"
    },
    {
      "channel": 0,
      "note": 95,
      "start": 2.2227,
      "duration": 0.0027,
      "velocity": 102,
      "chip": "ym2612"
    },
    {
      "channel": 1,
      "note": 95,
      "start": 2.2242,
      "duration": 0.0055,
      "velocity": 97,
      "chip": "ym2612"
    },
    {
      "channel": 0,
      "note": 92,
      "start": 2.2278,
      "duration": 0.0034,
      "velocity": 102,
      "chip": "ym2612"
    },
    {
      "channel": 2,
      "note": 44,
      "start": 2.2283,
      "duration": 0.0065,
      "velocity": 72,
      "chip": "ym2612"
    },
    {
      "channel": 1,
      "note": 92,
      "start": 2.2303,
      "duration": 0.0031,
      "velocity": 97,
      "chip": "ym2612"
    },
    {
      "channel": 0,
      "note": 95,
      "start": 2.2326,
      "duration": 0.0024,
      "velocity": 102,
      "chip": "ym2612"
    },
    {
      "channel": 1,
      "note": 95,
      "start": 2.2341,
      "duration": 0.0066,
      "velocity": 97,
      "chip": "ym2612"
    },
    {
      "channel": 0,
      "note": 92,
      "start": 2.2389,
      "duration": 0.0032,
      "velocity": 102,
      "chip": "ym2612"
    },
    {
      "channel": 2,
      "note": 44,
      "start": 2.2394,
      "duration": 0.0061,
      "velocity": 72,
      "chip": "ym2612"
    },
    {
      "channel": 1,
      "note": 92,
      "start": 2.2414,
      "duration": 0.0027,
      "velocity": 97,
      "chip": "ym2612"
    },
    {
      "channel": 0,
      "note": 95,
      "start": 2.2432,
      "duration": 0.0025,
      "velocity": 102,
      "chip": "ym2612"
    },
    {
      "channel": 1,
      "note": 95,
      "start": 2.2448,
      "duration": 0.0065,
      "velocity": 97,
      "chip": "ym2612"
    },
    {
      "channel": 0,
      "note": 92,
      "start": 2.2483,
      "duration": 0.0044,
      "velocity": 102,
      "chip": "ym2612"
    },
    {
      "channel": 2,
      "note": 44,
      "start": 2.2488,
      "duration": 0.0074,
      "velocity": 72,
      "chip": "ym2612"
    },
    {
      "channel": 3,
      "note": 64,
      "start": 2.2493,
      "duration": 0.007,
      "velocity": 97,
      "chip": "ym2612"
    },
    {
      "channel": 4,
      "note": 59,
      "start": 2.2498,
      "duration": 0.0066,
      "velocity": 97,
      "chip": "ym2612"
    },
    {
      "channel": 1,
      "note": 92,
      "start": 2.2519,
      "duration": 0.0028,
      "velocity": 97,
      "chip": "ym2612"
    },
    {
      "channel": 0,
      "note": 95,
      "start": 2.2538,
      "duration": 0.0027,
      "velocity": 102,
      "chip": "ym2612"
    },
    {
      "channel": 1,
      "note": 95,
      "start": 2.2554,
      "duration": 0.0056,
      "velocity": 97,
      "chip": "ym2612"
    },
    {
      "channel": 0,
      "note": 94,
      "start": 2.2591,
      "duration": 0.0033,
      "velocity": 102,
      "chip": "ym2612"
    },
    {
      "channel": 2,
      "note": 47,
      "start": 2.2596,
      "duration": 0.0063,
      "velocity": 72,
      "chip": "ym2612"
    },
    {
      "channel": 1,
      "note": 94,
      "start": 2.2617,
      "duration": 0.0028,
      "velocity": 97,
      "chip": "ym2612"
    },
    {
      "channel": 0,
      "note": 97,
      "start": 2.2636,
      "duration": 0.0025,
      "velocity": 102,
      "chip": "ym2612"
    },
    {
      "channel": 1,
      "note": 97,
      "start": 2.2651,
      "duration": 0.0078,
      "velocity": 97,
      "chip": "ym2612"
    },
    {
      "channel": 0,
      "note": 94,
      "start": 2.27,
      "duration": 0.0044,
      "velocity": 102,
      "chip": "ym2612"
    },
    {
      "channel": 2,
      "note": 47,
      "start": 2.2705,
      "duration": 0.0073,
      "velocity": 72,
      "chip": "ym2612"
    },
    {
      "channel": 3,
      "note": 66,
      "start": 2.271,
      "duration": 0.0263,
      "velocity": 97,
      "chip": "ym2612"
    },
    {
      "channel": 4,
      "note": 61,
      "start": 2.2715,
      "duration": 0.0259,
      "velocity": 97,
      "chip": "ym2612"
    },
    {
      "channel": 1,
      "note": 94,
      "start": 2.2737,
      "duration": 0.0027,
      "velocity": 97,
      "chip": "ym2612"
    },
    {
      "channel": 0,
      "note": 97,
      "start": 2.2754,
      "duration": 0.0026,
      "velocity": 102,
      "chip": "ym2612"
    },
    {
      "channel": 1,
      "note": 97,
      "start": 2.2771,
      "duration": 0.0055,
      "velocity": 97,
      "chip": "ym2612"
    },
    {
      "channel": 0,
      "note": 94,
      "start": 2.2806,
      "duration": 0.0037,
      "velocity": 102,
      "chip": "ym2612"
    },
    {
      "channel": 2,
      "note": 47,
      "start": 2.2812,
      "duration": 0.0066,
      "velocity": 72,
      "chip": "ym2612"
    },
    {
      "channel": 1,
      "note": 94,
      "start": 2.2832,
      "duration": 0.0031,
      "velocity": 97,
      "chip": "ym2612"
    },
    {
      "channel": 0,
      "note": 97,
      "start": 2.2854,
      "duration": 0.0026,
      "velocity": 102,
      "chip": "ym2612"
    },
    {
      "channel": 1,
      "note": 97,
      "start": 2.287,
      "duration": 0.0054,
      "velocity": 97,
      "chip": "ym2612"
    },
    {
      "channel": 0,
      "note": 94,
      "start": 2.2905,
      "duration": 0.0034,
      "velocity": 102,
      "chip": "ym2612"
    },
    {
      "channel": 2,
      "note": 47,
      "start": 2.291,
      "duration": 0.0062,
      "velocity": 72,
      "chip": "ym2612"
    },
    {
      "channel": 1,
      "note": 94,
      "start": 2.2931,
      "duration": 0.0027,
      "velocity": 97,
      "chip": "ym2612"
    },
    {
      "channel": 0,
      "note": 97,
      "start": 2.2948,
      "duration": 0.0027,
      "velocity": 102,
      "chip": "ym2612"
    },
    {
      "channel": 1,
      "note": 97,
      "start": 2.2964,
      "duration": 0.0068,
      "velocity": 97,
      "chip": "ym2612"
    },
    {
      "channel": 0,
      "note": 95,
      "start": 2.3011,
      "duration": 0.0036,
      "velocity": 102,
      "chip": "ym2612"
    },
    {
      "channel": 2,
      "note": 44,
      "start": 2.3017,
      "duration": 0.0064,
      "velocity": 72,
      "chip": "ym2612"
    },
    {
      "channel": 1,
      "note": 95,
      "start": 2.304,
      "duration": 0.0027,
      "velocity": 97,
      "chip": "ym2612"
    },
    {
      "channel": 0,
      "note": 99,
      "start": 2.3058,
      "duration": 0.0025,
      "velocity": 102,
      "chip": "ym2612"
    },
    {
      "channel": 1,
      "note": 99,
      "start": 2.3073,
      "duration": 0.0063,
      "velocity": 97,
      "chip": "ym2612"
    },
    {
      "channel": 0,
      "note": 95,
      "start": 2.3118,
      "duration": 0.0036,
      "velocity": 102,
      "chip": "ym2612"
    },
    {
      "channel": 2,
      "note": 44,
      "start": 2.3123,
      "duration": 0.0064,
      "velocity": 72,
      "chip": "ym2612"
    },
    {
      "channel": 1,
      "note": 95,
      "start": 2.3143,
      "duration": 0.0029,
      "velocity": 97,
      "chip": "ym2612"
    },
    {
      "channel": 0,
      "note": 99,
      "start": 2.3164,
      "duration": 0.0026,
      "velocity": 102,
      "chip": "ym2612"
    },
    {
      "channel": 1,
      "note": 99,
      "start": 2.318,
      "duration": 0.0078,
      "velocity": 97,
      "chip": "ym2612"
    },
    {
      "channel": 0,
      "note": 95,
      "start": 2.3228,
      "duration": 0.0047,
      "velocity": 102,
      "chip": "ym2612"
    },
    {
      "channel": 2,
      "note": 44,
      "start": 2.3234,
      "duration": 0.0075,
      "velocity": 72,
      "chip": "ym2612"
    },
    {
      "channel": 3,
      "note": 68,
      "start": 2.3239,
      "duration": 0.0071,
      "velocity": 97,
      "chip": "ym2612"
    },
    {
      "channel": 4,
      "note": 63,
      "start": 2.3244,
      "duration": 0.0067,
      "velocity": 97,
      "chip": "ym2612"
    },
    {
      "channel": 1,
      "note": 95,
      "start": 2.3265,
      "duration": 0.003,
      "velocity": 97,
      "chip": "ym2612"
    },
    {
      "channel": 0,
      "note": 99,
      "start": 2.3285,
      "duration": 0.0027,
      "velocity": 102,
      "chip": "ym2612"
    },
    {
      "channel": 1,
      "note": 99,
      "start": 2.3301,
      "duration": 0.0045,
      "velocity": 97,
      "chip": "ym2612"
    },
    {
      "channel": 0,
      "note": 95,
      "start": 2.3326,
      "duration": 0.0034,
      "velocity": 102,
      "chip": "ym2612"
    },
    {
      "channel": 2,
      "note": 44,
      "start": 2.3331,
      "duration": 0.0061,
      "velocity": 72,
      "chip": "ym2612"
    },
    {
      "channel": 1,
      "note": 95,
      "start": 2.3353,
      "duration": 0.0027,
      "velocity": 97,
      "chip": "ym2612"
    },
    {
      "channel": 0,
      "note": 99,
      "start": 2.3371,
      "duration": 0.0024,
      "velocity": 102,
      "chip": "ym2612"
    },
    {
      "channel": 1,
      "note": 99,
      "start": 2.3386,
      "duration": 0.0066,
      "velocity": 97,
      "chip": "ym2612"
    },
    {
      "channel": 0,
      "note": 94,
      "start": 2.3432,
      "duration": 0.0035,
      "velocity": 102,
      "chip": "ym2612"
    },
    {
      "channel": 2,
      "note": 44,
      "start": 2.3437,
      "duration": 0.0066,
      "velocity": 72,
      "chip": "ym2612"
    },
    {
      "channel": 1,
      "note": 94,
      "start": 2.3459,
      "duration": 0.003,
      "velocity": 97,
      "chip": "ym2612"
    },
    {
      "channel": 0,
      "note": 97,
      "start": 2.3481,
      "duration": 0.0024,
      "velocity": 102,
      "chip": "ym2612"
    },
    {
      "channel": 1,
      "note": 97,
      "start": 2.3495,
      "duration": 0.0077,
      "velocity": 97,
      "chip": "ym2612"
    },
    {
      "channel": 0,
      "note": 94,
      "start": 2.3542,
      "duration": 0.0044,
      "velocity": 102,
      "chip": "ym2612"
    },
    {
      "channel": 2,
      "note": 44,
      "start": 2.3547,
      "duration": 0.0074,
      "velocity": 72,
      "chip": "ym2612"
    },
    {
      "channel": 3,
      "note": 66,
      "start": 2.3553,
      "duration": 0.0069,
      "velocity": 97,
      "chip": "ym2612"
    },
    {
      "channel": 4,
      "note": 61,
      "start": 2.3558,
      "duration": 0.0066,
      "velocity": 97,
      "chip": "ym2612"
    },
    {
      "channel": 1,
      "note": 94,
      "start": 2.3579,
      "duration": 0.0027,
      "velocity": 97,
      "chip": "ym2612"
    },
    {
      "channel": 0,
      "note": 97,
      "start": 2.3598,
      "duration": 0.0027,
      "velocity": 102,
      "chip": "ym2612"
    },
    {
      "channel": 1,
      "note": 97,
      "start": 2.3613,
      "duration": 0.0056,
      "velocity": 97,
      "chip": "ym2612"
    },
    {
      "channel": 0,
      "note": 94,
      "start": 2.365,
      "duration": 0.0036,
      "velocity": 102,
      "chip": "ym2612"
    },
    {
      "channel": 2,
      "note": 44,
      "start": 2.3656,
      "duration": 0.0064,
      "velocity": 72,
      "chip": "ym2612"
    },
    {
      "channel": 1,
      "note": 94,
      "start": 2.3676,
      "duration": 0.0029,
      "velocity": 97,
      "chip": "ym2612"
    },
    {
      "channel": 0,
      "note": 97,
      "start": 2.3696,
      "duration": 0.0026,
      "velocity": 102,
      "chip": "ym2612"
    },
    {
      "channel": 1,
      "note": 97,
      "start": 2.3712,
      "duration": 0.0055,
      "velocity": 97,
      "chip": "ym2612"
    },
    {
      "channel": 0,
      "note": 94,
      "start": 2.3747,
      "duration": 0.0034,
      "velocity": 102,
      "chip": "ym2612"
    },
    {
      "channel": 2,
      "note": 44,
      "start": 2.3753,
      "duration": 0.0063,
      "velocity": 72,
      "chip": "ym2612"
    },
    {
      "channel": 1,
      "note": 94,
      "start": 2.3774,
      "duration": 0.0027,
      "velocity": 97,
      "chip": "ym2612"
    },
    {
      "channel": 0,
      "note": 97,
      "start": 2.3791,
      "duration": 0.0026,
      "velocity": 102,
      "chip": "ym2612"
    },
    {
      "channel": 1,
      "note": 97,
      "start": 2.3807,
      "duration": 0.0078,
      "velocity": 97,
      "chip": "ym2612"
    },
    {
      "channel": 0,
      "note": 92,
      "start": 2.3856,
      "duration": 0.0044,
      "velocity": 102,
      "chip": "ym2612"
    },
    {
      "channel": 2,
      "note": 44,
      "start": 2.3861,
      "duration": 0.0072,
      "velocity": 72,
      "chip": "ym2612"
    },
    {
      "channel": 3,
      "note": 68,
      "start": 2.3866,
      "duration": 0.0068,
      "velocity": 97,
      "chip": "ym2612"
    },
    {
      "channel": 4,
      "note": 63,
      "start": 2.3872,
      "duration": 0.0064,
      "velocity": 97,
      "chip": "ym2612"
    },
    {
      "channel": 1,
      "note": 92,
      "start": 2.3892,
      "duration": 0.0027,
      "velocity": 97,
      "chip": "ym2612"
    },
    {
      "channel": 0,
      "note": 95,
      "start": 2.391,
      "duration": 0.0027,
      "velocity": 102,
      "chip": "ym2612"
    },
    {
      "channel": 1,
      "note": 95,
      "start": 2.3926,
      "duration": 0.0055,
      "velocity": 97,
      "chip": "ym2612"
    },
    {
      "channel": 0,
      "note": 92,
      "start": 2.3961,
      "duration": 0.0034,
      "velocity": 102,
      "chip": "ym2612"
    },
    {
      "channel": 2,
      "note": 44,
      "start": 2.3966,
      "duration": 0.0061,
      "velocity": 72,
      "chip": "ym2612"
    },
    {
      "channel": 1,
      "note": 92,
      "start": 2.3988,
      "duration": 0.0027,
      "velocity": 97,
      "chip": "ym2612"
    },
    {
      "channel": 0,
      "note": 95,
      "start": 2.4006,
      "duration": 0.0024,
      "velocity": 102,
      "chip": "ym2612"
    },
    {
      "channel": 1,
      "note": 95,
      "start": 2.4022,
      "duration": 0.0066,
      "velocity": 97,
      "chip": "ym2612"
    },
    {
      "channel": 0,
      "note": 92,
      "start": 2.4067,
      "duration": 0.0035,
      "velocity": 102,
      "chip": "ym2612"
    },
    {
      "channel": 2,
      "note": 44,
      "start": 2.4073,
      "duration": 0.0066,
      "velocity": 72,
      "chip": "ym2612"
    },
    {
      "channel": 1,
      "note": 92,
      "start": 2.4095,
      "duration": 0.003,
      "velocity": 97,
      "chip": "ym2612"
    },
    {
      "channel": 0,
      "note": 95,
      "start": 2.4117,
      "duration": 0.0024,
      "velocity": 102,
      "chip": "ym2612"
    },
    {
      "channel": 1,
      "note": 95,
      "start": 2.4132,
      "duration": 0.0063,
      "velocity": 97,
      "chip": "ym2612"
    },
    {
      "channel": 0,
      "note": 92,
      "start": 2.4165,
      "duration": 0.0044,
      "velocity": 102,
      "chip": "ym2612"
    },
    {
      "channel": 2,
      "note": 44,
      "start": 2.417,
      "duration": 0.0076,
      "velocity": 72,
      "chip": "ym2612"
    },
    {
      "channel": 3,
      "note": 64,
      "start": 2.4175,
      "duration": 0.0073,
      "velocity": 97,
      "chip": "ym2612"
    },
    {
      "channel": 4,
      "note": 59,
      "start": 2.418,
      "duration": 0.0068,
      "velocity": 97,
      "chip": "ym2612"
    },
    {
      "channel": 1,
      "note": 92,
      "start": 2.4201,
      "duration": 0.0031,
      "velocity": 97,
      "chip": "ym2612"
    },
    {
      "channel": 0,
      "note": 95,
      "start": 2.4223,
      "duration": 0.0027,
      "velocity": 102,
      "chip": "ym2612"
    },
    {
      "channel": 1,
      "note": 95,
      "start": 2.4239,
      "duration": 0.0055,
      "velocity": 97,
      "chip": "ym2612"
    },
    {
      "channel": 0,
      "note": 90,
      "start": 2.4276,
      "duration": 0.0036,
      "velocity": 102,
      "chip": "ym2612"
    },
    {
      "channel": 2,
      "note": 47,
      "start": 2.4281,
      "duration": 0.0064,
      "velocity": 72,
      "chip": "ym2612"
    },
    {
      "channel": 1,
      "note": 90,
      "start": 2.4301,
      "duration": 0.003,
      "velocity": 97,
      "chip": "ym2612"
    },
    {
      "channel": 0,
      "note": 94,
      "start": 2.4322,
      "duration": 0.0025,
      "velocity": 102,
      "chip": "ym2612"
    },
    {
      "channel": 1,
      "note": 94,
      "start": 2.4338,
      "duration": 0.0077,
      "velocity": 97,
      "chip": "ym2612"
    },
    {
      "channel": 0,
      "note": 90,
      "start": 2.4386,
      "duration": 0.0047,
      "velocity": 102,
      "chip": "ym2612"
    },
    {
      "channel": 2,
      "note": 47,
      "start": 2.4391,
      "duration": 0.0076,
      "velocity": 72,
      "chip": "ym2612"
    },
    {
      "channel": 3,
      "note": 66,
      "start": 2.4397,
      "duration": 0.0265,
      "velocity": 97,
      "chip": "ym2612"
    },
    {
      "channel": 4,
      "note": 61,
      "start": 2.4402,
      "duration": 0.0261,
      "velocity": 97,
      "chip": "ym2612"
    },
    {
      "channel": 1,
      "note": 90,
      "start": 2.4422,
      "duration": 0.0031,
      "velocity": 97,
      "chip": "ym2612"
    },
    {
      "channel": 0,
      "note": 94,
      "start": 2.4443,
      "duration": 0.0026,
      "velocity": 102,
      "chip": "ym2612"
    },
    {
      "channel": 1,
      "note": 94,
      "start": 2.4459,
      "duration": 0.0057,
      "velocity": 97,
      "chip": "ym2612"
    },
    {
      "channel": 0,
      "note": 90,
      "start": 2.4497,
      "duration": 0.0034,
      "velocity": 102,
      "chip": "ym2612"
    },
    {
      "channel": 2,
      "note": 47,
      "start": 2.4502,
      "duration": 0.0062,
      "velocity": 72,
      "chip": "ym2612"
    },
    {
      "channel": 1,
      "note": 90,
      "start": 2.4523,
      "duration": 0.0027,
      "velocity": 97,
      "chip": "ym2612"
    },
    {
      "channel": 0,
      "note": 94,
      "start": 2.4541,
      "duration": 0.0025,
      "velocity": 102,
      "chip": "ym2612"
    },
    {
      "channel": 1,
      "note": 94,
      "start": 2.4557,
      "duration": 0.0052,
      "velocity": 97,
      "chip": "ym2612"
    },
    {
      "channel": 0,
      "note": 90,
      "start": 2.459,
      "duration": 0.0034,
      "velocity": 102,
      "chip": "ym2612"
    },
    {
      "channel": 2,
      "note": 47,
      "start": 2.4595,
      "duration": 0.0065,
      "velocity": 72,
      "chip": "ym2612"
    },
    {
      "channel": 1,
      "note": 90,
      "start": 2.4615,
      "duration": 0.0031,
      "velocity": 97,
      "chip": "ym2612"
    },
    {
      "channel": 0,
      "note": 94,
      "start": 2.4638,
      "duration": 0.0027,
      "velocity": 102,
      "chip": "ym2612"
    },
    {
      "channel": 1,
      "note": 94,
      "start": 2.4653,
      "duration": 0.0069,
      "velocity": 97,
      "chip": "ym2612"
    },
    {
      "channel": 0,
      "note": 95,
      "start": 2.4701,
      "duration": 0.0039,
      "velocity": 102,
      "chip": "ym2612"
    },
    {
      "channel": 2,
      "note": 44,
      "start": 2.4706,
      "duration": 0.0066,
      "velocity": 72,
      "chip": "ym2612"
    },
    {
      "channel": 1,
      "note": 95,
      "start": 2.4729,
      "duration": 0.003,
      "velocity": 97,
      "chip": "ym2612"
    },
    {
      "channel": 0,
      "note": 99,
      "start": 2.475,
      "duration": 0.0025,
      "velocity": 102,
      "chip": "ym2612"
    },
    {
      "channel": 1,
      "note": 99,
      "start": 2.4766,
      "duration": 0.0064,
      "velocity": 97,
      "chip": "ym2612"
    },
    {
      "channel": 0,
      "note": 95,
      "start": 2.4811,
      "duration": 0.0036,
      "velocity": 102,
      "chip": "ym2612"
    },
    {
      "channel": 2,
      "note": 44,
      "start": 2.4816,
      "duration": 0.0065,
      "velocity": 72,
      "chip": "ym2612"
    },
    {
      "channel": 1,
      "note": 95,
      "start": 2.4837,
      "duration": 0.003,
      "velocity": 97,
      "chip": "ym2612"
    },
    {
      "channel": 0,
      "note": 99,
      "start": 2.4857,
      "duration": 0.0026,
      "velocity": 102,
      "chip": "ym2612"
    },
    {
      "channel": 1,
      "note": 99,
      "start": 2.4873,
      "duration": 0.0078,
      "velocity": 97,
      "chip": "ym2612"
    },
    {
      "channel": 0,
      "note": 95,
      "start": 2.4922,
      "duration": 0.0044,
      "velocity": 102,
      "chip": "ym2612"
    },
    {
      "channel": 2,
      "note": 44,
      "start": 2.4927,
      "duration": 0.0072,
      "velocity": 72,
      "chip": "ym2612"
    },
    {
      "channel": 3,
      "note": 68,
      "start": 2.4932,
      "duration": 0.0068,
      "velocity": 97,
      "chip": "ym2612"
    },
    {
      "channel": 4,
      "note": 63,
      "start": 2.4937,
      "duration": 0.0064,
      "velocity": 97,
      "chip": "ym2612"
    },
    {
      "channel": 1,
      "note": 95,
      "start": 2.4958,
      "duration": 0.0027,
      "velocity": 97,
      "chip": "ym2612"
    },
    {
      "channel": 0,
      "note": 99,
      "start": 2.4976,
      "duration": 0.0027,
      "velocity": 102,
      "chip": "ym2612"
    },
    {
      "channel": 1,
      "note": 99,
      "start": 2.4992,
      "duration": 0.0044,
      "velocity": 97,
      "chip": "ym2612"
    },
    {
      "channel": 0,
      "note": 95,
      "start": 2.5016,
      "duration": 0.0035,
      "velocity": 102,
      "chip": "ym2612"
    },
    {
      "channel": 2,
      "note": 44,
      "start": 2.5021,
      "duration": 0.0066,
      "velocity": 72,
      "chip": "ym2612"
    },
    {
      "channel": 1,
      "note": 95,
      "start": 2.5043,
      "duration": 0.003,
      "velocity": 97,
      "chip": "ym2612"
    },
    {
      "channel": 0,
      "note": 99,
      "start": 2.5065,
      "duration": 0.0024,
      "velocity": 102,
      "chip": "ym2612"
    },
    {
      "channel": 1,
      "note": 99,
      "start": 2.508,
      "duration": 0.0065,
      "velocity": 97,
      "chip": "ym2612"
    },
    {
      "channel": 0,
      "note": 94,
      "start": 2.5126,
      "duration": 0.0033,
      "velocity": 102,
      "chip": "ym2612"
    },
    {
      "channel": 2,
      "note": 44,
      "start": 2.5132,
      "duration": 0.0062,
      "velocity": 72,
      "chip": "ym2612"
    },
    {
      "channel": 1,
      "note": 94,
      "start": 2.5152,
      "duration": 0.0027,
      "velocity": 97,
      "chip": "ym2612"
    },
    {
      "channel": 0,
      "note": 97,
      "start": 2.517,
      "duration": 0.0025,
      "velocity": 102,
      "chip": "ym2612"
    },
    {
      "channel": 1,
      "note": 97,
      "start": 2.5186,
      "duration": 0.0077,
      "velocity": 97,
      "chip": "ym2612"
    },
    {
      "channel": 0,
      "note": 94,
      "start": 2.5234,
      "duration": 0.0047,
      "velocity": 102,
      "chip": "ym2612"
    },
    {
      "channel": 2,
      "note": 44,
      "start": 2.5239,
      "duration": 0.0076,
      "velocity": 72,
      "chip": "ym2612"
    },
    {
      "channel": 3,
      "note": 66,
      "start": 2.5245,
      "duration": 0.0072,
      "velocity": 97,
      "chip": "ym2612"
    },
    {
      "channel": 4,
      "note": 61,
      "start": 2.525,
      "duration": 0.0068,
      "velocity": 97,
      "chip": "ym2612"
    },
    {
      "channel": 1,
      "note": 94,
      "start": 2.527,
      "duration": 0.0031,
      "velocity": 97,
      "chip": "ym2612"
    },
    {
      "channel": 0,
      "note": 97,
      "start": 2.5291,
      "duration": 0.0027,
      "velocity": 102,
      "chip": "ym2612"
    },
    {
      "channel": 1,
      "note": 97,
      "start": 2.5307,
      "duration": 0.0057,
      "velocity": 97,
      "chip": "ym2612"
    },
    {
      "channel": 0,
      "note": 94,
      "start": 2.5345,
      "duration": 0.0034,
      "velocity": 102,
      "chip": "ym2612"
    },
    {
      "channel": 2,
      "note": 44,
      "start": 2.535,
      "duration": 0.0063,
      "velocity": 72,
      "chip": "ym2612"
    },
    {
      "channel": 1,
      "note": 94,
      "start": 2.5371,
      "duration": 0.0027,
      "velocity": 97,
      "chip": "ym2612"
    },
    {
      "channel": 0,
      "note": 97,
      "start": 2.5389,
      "duration": 0.0025,
      "velocity": 102,
      "chip": "ym2612"
    },
    {
      "channel": 1,
      "note": 97,
      "start": 2.5405,
      "duration": 0.0053,
      "velocity": 97,
      "chip": "ym2612"
    },
    {
      "channel": 0,
      "note": 94,
      "start": 2.5438,
      "duration": 0.0035,
      "velocity": 102,
      "chip": "ym2612"
    },
    {
      "channel": 2,
      "note": 44,
      "start": 2.5444,
      "duration": 0.0065,
      "velocity": 72,
      "chip": "ym2612"
    },
    {
      "channel": 1,
      "note": 94,
      "start": 2.5465,
      "duration": 0.003,
      "velocity": 97,
      "chip": "ym2612"
    },
    {
      "channel": 0,
      "note": 97,
      "start": 2.5487,
      "duration": 0.0024,
      "velocity": 102,
      "chip": "ym2612"
    },
    {
      "channel": 1,
      "note": 97,
      "start": 2.5502,
      "duration": 0.0077,
      "velocity": 97,
      "chip": "ym2612"
    },
    {
      "channel": 0,
      "note": 92,
      "start": 2.5548,
      "duration": 0.0045,
      "velocity": 102,
      "chip": "ym2612"
    },
    {
      "channel": 2,
      "note": 44,
      "start": 2.5554,
      "duration": 0.0076,
      "velocity": 72,
      "chip": "ym2612"
    },
    {
      "channel": 3,
      "note": 68,
      "start": 2.5559,
      "duration": 0.0073,
      "velocity": 97,
      "chip": "ym2612"
    },
    {
      "channel": 4,
      "note": 63,
      "start": 2.5564,
      "duration": 0.0068,
      "velocity": 97,
      "chip": "ym2612"
    },
    {
      "channel": 1,
      "note": 92,
      "start": 2.5586,
      "duration": 0.003,
      "velocity": 97,
      "chip": "ym2612"
    },
    {
      "channel": 0,
      "note": 95,
      "start": 2.5607,
      "duration": 0.0027,
      "velocity": 102,
      "chip": "ym2612"
    },
    {
      "channel": 1,
      "note": 95,
      "start": 2.5623,
      "duration": 0.0055,
      "velocity": 97,
      "chip": "ym2612"
    },
    {
      "channel": 0,
      "note": 92,
      "start": 2.5658,
      "duration": 0.0034,
      "velocity": 102,
      "chip": "ym2612"
    },
    {
      "channel": 2,
      "note": 44,
      "start": 2.5663,
      "duration": 0.0065,
      "velocity": 72,
      "chip": "ym2612"
    },
    {
      "channel": 1,
      "note": 92,
      "start": 2.5684,
      "duration": 0.0031,
      "velocity": 97,
      "chip": "ym2612"
    },
    {
      "channel": 0,
      "note": 95,
      "start": 2.5706,
      "duration": 0.0024,
      "velocity": 102,
      "chip": "ym2612"
    },
    {
      "channel": 1,
      "note": 95,
      "start": 2.5722,
      "duration": 0.0066,
      "velocity": 97,
      "chip": "ym2612"
    },
    {
      "channel": 0,
      "note": 92,
      "start": 2.5769,
      "duration": 0.0032,
      "velocity": 102,
      "chip": "ym2612"
    },
    {
      "channel": 2,
      "note": 44,
      "start": 2.5775,
      "duration": 0.0064,
      "velocity": 72,
      "chip": "ym2612"
    },
    {
      "channel": 1,
      "note": 92,
      "start": 2.5795,
      "duration": 0.003,
      "velocity": 97,
      "chip": "ym2612"
    },
    {
      "channel": 0,
      "note": 95,
      "start": 2.5813,
      "duration": 0.0027,
      "velocity": 102,
      "chip": "ym2612"
    },
    {
      "channel": 1,
      "note": 95,
      "start": 2.5831,
      "duration": 0.0054,
      "velocity": 97,
      "chip": "ym2612"
    },
    {
      "channel": 0,
      "note": 92,
      "start": 2.5855,
      "duration": 0.0044,
      "velocity": 102,
      "chip": "ym2612"
    },
    {
      "channel": 2,
      "note": 44,
      "start": 2.586,
      "duration": 0.0073,
      "velocity": 72,
      "chip": "ym2612"
    },
    {
      "channel": 3,
      "note": 64,
      "start": 2.5865,
      "duration": 0.0069,
      "velocity": 97,
      "chip": "ym2612"
    },
    {
      "channel": 4,
      "note": 59,
      "start": 2.5871,
      "duration": 0.0065,
      "velocity": 97,
      "chip": "ym2612"
    },
    {
      "channel": 1,
      "note": 92,
      "start": 2.5892,
      "duration": 0.0027,
      "velocity": 97,
      "chip": "ym2612"
    },
    {
      "channel": 0,
      "note": 95,
      "start": 2.5909,
      "duration": 0.0027,
      "velocity": 102,
      "chip": "ym2612"
    },
    {
      "channel": 1,
      "note": 95,
      "start": 2.5925,
      "duration": 0.0052,
      "velocity": 97,
      "chip": "ym2612"
    },
    {
      "channel": 0,
      "note": 94,
      "start": 2.5947,
      "duration": 0.0048,
      "velocity": 102,
      "chip": "ym2612"
    },
    {
      "channel": 2,
      "note": 44,
      "start": 2.5952,
      "duration": 0.0079,
      "velocity": 72,
      "chip": "ym2612"
    },
    {
      "channel": 1,
      "note": 94,
      "start": 2.5984,
      "duration": 0.0033,
      "velocity": 97,
      "chip": "ym2612"
    },
    {
      "channel": 0,
      "note": 97,
      "start": 2.6009,
      "duration": 0.0024,
      "velocity": 102,
      "chip": "ym2612"
    },
    {
      "channel": 1,
      "note": 97,
      "start": 2.6024,
      "duration": 0.0074,
      "velocity": 97,
      "chip": "ym2612"
    },
    {
      "channel": 0,
      "note": 94,
      "start": 2.6053,
      "duration": 0.0059,
      "velocity": 102,
      "chip": "ym2612"
    },
    {
      "channel": 2,
      "note": 44,
      "start": 2.6058,
      "duration": 0.0088,
      "velocity": 72,
      "chip": "ym2612"
    },
    {
      "channel": 3,
      "note": 66,
      "start": 2.6064,
      "duration": 0.0278,
      "velocity": 97,
      "chip": "ym2612"
    },
    {
      "channel": 4,
      "note": 61,
      "start": 2.6069,
      "duration": 0.0274,
      "velocity": 97,
      "chip": "ym2612"
    },
    {
      "channel": 1,
      "note": 94,
      "start": 2.6104,
      "duration": 0.0027,
      "velocity": 97,
      "chip": "ym2612"
    },
    {
      "channel": 0,
      "note": 97,
      "start": 2.6123,
      "duration": 0.0025,
      "velocity": 102,
      "chip": "ym2612"
    },
    {
      "channel": 1,
      "note": 97,
      "start": 2.6138,
      "duration": 0.0053,
      "velocity": 97,
      "chip": "ym2612"
    },
    {
      "channel": 0,
      "note": 94,
      "start": 2.6158,
      "duration": 0.005,
      "velocity": 102,
      "chip": "ym2612"
    },
    {
      "channel": 2,
      "note": 44,
      "start": 2.6163,
      "duration": 0.0079,
      "velocity": 72,
      "chip": "ym2612"
    },
    {
      "channel": 1,
      "note": 94,
      "start": 2.6198,
      "duration": 0.003,
      "velocity": 97,
      "chip": "ym2612"
    },
    {
      "channel": 0,
      "note": 97,
      "start": 2.6219,
      "duration": 0.0026,
      "velocity": 102,
      "chip": "ym2612"
    },
    {
      "channel": 1,
      "note": 97,
      "start": 2.6235,
      "duration": 0.0058,
      "velocity": 97,
      "chip": "ym2612"
    },
    {
      "channel": 0,
      "note": 94,
      "start": 2.6259,
      "duration": 0.0048,
      "velocity": 102,
      "chip": "ym2612"
    },
    {
      "channel": 2,
      "note": 44,
      "start": 2.6264,
      "duration": 0.0077,
      "velocity": 72,
      "chip": "ym2612"
    },
    {
      "channel": 1,
      "note": 94,
      "start": 2.63,
      "duration": 0.0027,
      "velocity": 97,
      "chip": "ym2612"
    },
    {
      "channel": 0,
      "note": 97,
      "start": 2.6317,
      "duration": 0.0027,
      "velocity": 102,
      "chip": "ym2612"
    },
    {
      "channel": 1,
      "note": 97,
      "start": 2.6333,
      "duration": 0.0117,
      "velocity": 97,
      "chip": "ym2612"
    },
    {
      "channel": 0,
      "note": 71,
      "start": 2.6366,
      "duration": 0.1004,
      "velocity": 97,
      "chip": "ym2612"
    },
    {
      "channel": 2,
      "note": 44,
      "start": 2.6373,
      "duration": 0.005,
      "velocity": 72,
      "chip": "ym2612"
    },
    {
      "channel": 1,
      "note": 71,
      "start": 2.6451,
      "duration": 0.1002,
      "velocity": 97,
      "chip": "ym2612"
    },
    {
      "channel": 2,
      "note": 44,
      "start": 2.6456,
      "duration": 0.0051,
      "velocity": 72,
      "chip": "ym2612"
    },
    {
      "channel": 2,
      "note": 44,
      "start": 2.6531,
      "duration": 0.0063,
      "velocity": 72,
      "chip": "ym2612"
    },
    {
      "channel": 3,
      "note": 68,
      "start": 2.6536,
      "duration": 0.0059,
      "velocity": 97,
      "chip": "ym2612"
    },
    {
      "channel": 4,
      "note": 63,
      "start": 2.6542,
      "duration": 0.0054,
      "velocity": 97,
      "chip": "ym2612"
    },
    {
      "channel": 2,
      "note": 44,
      "start": 2.6636,
      "duration": 0.005,
      "velocity": 72,
      "chip": "ym2612"
    },
    {
      "channel": 2,
      "note": 44,
      "start": 2.6722,
      "duration": 0.005,
      "velocity": 72,
      "chip": "ym2612"
    },
    {
      "channel": 2,
      "note": 44,
      "start": 2.681,
      "duration": 0.0061,
      "velocity": 72,
      "chip": "ym2612"
    },
    {
      "channel": 3,
      "note": 66,
      "start": 2.6815,
      "duration": 0.0057,
      "velocity": 97,
      "chip": "ym2612"
    },
    {
      "channel": 4,
      "note": 61,
      "start": 2.6821,
      "duration": 0.0053,
      "velocity": 97,
      "chip": "ym2612"
    },
    {
      "channel": 2,
      "note": 44,
      "start": 2.6896,
      "duration": 0.0052,
      "velocity": 72,
      "chip": "ym2612"
    },
    {
      "channel": 2,
      "note": 44,
      "start": 2.6972,
      "duration": 0.0051,
      "velocity": 72,
      "chip": "ym2612"
    },
    {
      "channel": 2,
      "note": 44,
      "start": 2.706,
      "duration": 0.0061,
      "velocity": 72,
      "chip": "ym2612"
    },
    {
      "channel": 3,
      "note": 68,
      "start": 2.7065,
      "duration": 0.0057,
      "velocity": 97,
      "chip": "ym2612"
    },
    {
      "channel": 4,
      "note": 63,
      "start": 2.7071,
      "duration": 0.0053,
      "velocity": 97,
      "chip": "ym2612"
    },
    {
      "channel": 2,
      "note": 44,
      "start": 2.7147,
      "duration": 0.005,
      "velocity": 72,
      "chip": "ym2612"
    },
    {
      "channel": 2,
      "note": 44,
      "start": 2.7234,
      "duration": 0.005,
      "velocity": 72,
      "chip": "ym2612"
    },
    {
      "channel": 2,
      "note": 44,
      "start": 2.7308,
      "duration": 0.0063,
      "velocity": 72,
      "chip": "ym2612"
    },
    {
      "channel": 3,
      "note": 64,
      "start": 2.7313,
      "duration": 0.0059,
      "velocity": 97,
      "chip": "ym2612"
    },
    {
      "channel": 4,
      "note": 59,
      "start": 2.7319,
      "duration": 0.0055,
      "velocity": 97,
      "chip": "ym2612"
    },
    {
      "channel": 0,
      "note": 73,
      "start": 2.7396,
      "duration": 0.0293,
      "velocity": 97,
      "chip": "ym2612"
    },
    {
      "channel": 2,
      "note": 44,
      "start": 2.7402,
      "duration": 0.0052,
      "velocity": 72,
      "chip": "ym2612"
    },
    {
      "channel": 1,
      "note": 73,
      "start": 2.7485,
      "duration": 0.0298,
      "velocity": 97,
      "chip": "ym2612"
    },
    {
      "channel": 2,
      "note": 44,
      "start": 2.749,
      "duration": 0.0062,
      "velocity": 72,
      "chip": "ym2612"
    },
    {
      "channel": 3,
      "note": 66,
      "start": 2.7495,
      "duration": 0.0203,
      "velocity": 97,
      "chip": "ym2612"
    },
    {
      "channel": 4,
      "note": 61,
      "start": 2.7501,
      "duration": 0.0199,
      "velocity": 97,
      "chip": "ym2612"
    },
    {
      "channel": 2,
      "note": 44,
      "start": 2.7573,
      "duration": 0.0051,
      "velocity": 72,
      "chip": "ym2612"
    },
    {
      "channel": 2,
      "note": 44,
      "start": 2.7647,
      "duration": 0.005,
      "velocity": 72,
      "chip": "ym2612"
    },
    {
      "channel": 0,
      "note": 75,
      "start": 2.7733,
      "duration": 0.0318,
      "velocity": 97,
      "chip": "ym2612"
    },
    {
      "channel": 2,
      "note": 44,
      "start": 2.7738,
      "duration": 0.0052,
      "velocity": 72,
      "chip": "ym2612"
    },
    {
      "channel": 1,
      "note": 75,
      "start": 2.7817,
      "duration": 0.0323,
      "velocity": 97,
      "chip": "ym2612"
    },
    {
      "channel": 2,
      "note": 44,
      "start": 2.7823,
      "duration": 0.0051,
      "velocity": 72,
      "chip": "ym2612"
    },
    {
      "channel": 2,
      "note": 44,
      "start": 2.7905,
      "duration": 0.0063,
      "velocity": 72,
      "chip": "ym2612"
    },
    {
      "channel": 3,
      "note": 68,
      "start": 2.791,
      "duration": 0.0059,
      "velocity": 97,
      "chip": "ym2612"
    },
    {
      "channel": 4,
      "note": 63,
      "start": 2.7916,
      "duration": 0.0054,
      "velocity": 97,
      "chip": "ym2612"
    },
    {
      "channel": 2,
      "note": 44,
      "start": 2.801,
      "duration": 0.0048,
      "velocity": 72,
      "chip": "ym2612"
    },
    {
      "channel": 0,
      "note": 73,
      "start": 2.8093,
      "duration": 0.029,
      "velocity": 97,
      "chip": "ym2612"
    },
    {
      "channel": 2,
      "note": 44,
      "start": 2.8098,
      "duration": 0.0051,
      "velocity": 72,
      "chip": "ym2612"
    },
    {
      "channel": 1,
      "note": 73,
      "start": 2.8178,
      "duration": 0.0309,
      "velocity": 97,
      "chip": "ym2612"
    },
    {
      "channel": 2,
      "note": 44,
      "start": 2.8184,
      "duration": 0.0062,
      "velocity": 72,
      "chip": "ym2612"
    },
    {
      "channel": 3,
      "note": 66,
      "start": 2.8189,
      "duration": 0.0059,
      "velocity": 97,
      "chip": "ym2612"
    },
    {
      "channel": 4,
      "note": 61,
      "start": 2.8194,
      "duration": 0.0054,
      "velocity": 97,
      "chip": "ym2612"
    },
    {
      "channel": 2,
      "note": 44,
      "start": 2.8267,
      "duration": 0.005,
      "velocity": 72,
      "chip": "ym2612"
    },
    {
      "channel": 2,
      "note": 44,
      "start": 2.8341,
      "duration": 0.0049,
      "velocity": 72,
      "chip": "ym2612"
    },
    {
      "channel": 0,
      "note": 71,
      "start": 2.8424,
      "duration": 0.0145,
      "velocity": 97,
      "chip": "ym2612"
    },
    {
      "channel": 2,
      "note": 44,
      "start": 2.843,
      "duration": 0.0064,
      "velocity": 72,
      "chip": "ym2612"
    },
    {
      "channel": 3,
      "note": 68,
      "start": 2.8435,
      "duration": 0.006,
      "velocity": 97,
      "chip": "ym2612"
    },
    {
      "channel": 4,
      "note": 63,
      "start": 2.8441,
      "duration": 0.0056,
      "velocity": 97,
      "chip": "ym2612"
    },
    {
      "channel": 1,
      "note": 71,
      "start": 2.8513,
      "duration": 0.0144,
      "velocity": 97,
      "chip": "ym2612"
    },
    {
      "channel": 2,
      "note": 44,
      "start": 2.8518,
      "duration": 0.0052,
      "velocity": 72,
      "chip": "ym2612"
    },
    {
      "channel": 0,
      "note": 68,
      "start": 2.8601,
      "duration": 0.0455,
      "velocity": 97,
      "chip": "ym2612"
    },
    {
      "channel": 2,
      "note": 44,
      "start": 2.8607,
      "duration": 0.0051,
      "velocity": 72,
      "chip": "ym2612"
    },
    {
      "channel": 1,
      "note": 68,
      "start": 2.8676,
      "duration": 0.0474,
      "velocity": 97,
      "chip": "ym2612"
    },
    {
      "channel": 2,
      "note": 44,
      "start": 2.8682,
      "duration": 0.0063,
      "velocity": 72,
      "chip": "ym2612"
    },
    {
      "channel": 3,
      "note": 64,
      "start": 2.8687,
      "duration": 0.0059,
      "velocity": 97,
      "chip": "ym2612"
    },
    {
      "channel": 4,
      "note": 59,
      "start": 2.8692,
      "duration": 0.0055,
      "velocity": 97,
      "chip": "ym2612"
    },
    {
      "channel": 2,
      "note": 44,
      "start": 2.8764,
      "duration": 0.005,
      "velocity": 72,
      "chip": "ym2612"
    },
    {
      "channel": 2,
      "note": 44,
      "start": 2.8851,
      "duration": 0.0062,
      "velocity": 72,
      "chip": "ym2612"
    },
    {
      "channel": 3,
      "note": 66,
      "start": 2.8856,
      "duration": 0.021,
      "velocity": 97,
      "chip": "ym2612"
    },
    {
      "channel": 4,
      "note": 61,
      "start": 2.8862,
      "duration": 0.0206,
      "velocity": 97,
      "chip": "ym2612"
    },
    {
      "channel": 2,
      "note": 44,
      "start": 2.8939,
      "duration": 0.0051,
      "velocity": 72,
      "chip": "ym2612"
    },
    {
      "channel": 2,
      "note": 44,
      "start": 2.9014,
      "duration": 0.0051,
      "velocity": 72,
      "chip": "ym2612"
    },
    {
      "channel": 0,
      "note": 70,
      "start": 2.9101,
      "duration": 0.1339,
      "velocity": 97,
      "chip": "ym2612"
    },
    {
      "channel": 2,
      "note": 42,
      "start": 2.9107,
      "duration": 0.0051,
      "velocity": 72,
      "chip": "ym2612"
    },
    {
      "channel": 1,
      "note": 70,
      "start": 2.9186,
      "duration": 0.1351,
      "velocity": 97,
      "chip": "ym2612"
    },
    {
      "channel": 2,
      "note": 42,
      "start": 2.9192,
      "duration": 0.0051,
      "velocity": 72,
      "chip": "ym2612"
    },
    {
      "channel": 2,
      "note": 42,
      "start": 2.9273,
      "duration": 0.0062,
      "velocity": 72,
      "chip": "ym2612"
    },
    {
      "channel": 3,
      "note": 66,
      "start": 2.9278,
      "duration": 0.0058,
      "velocity": 97,
      "chip": "ym2612"
    },
    {
      "channel": 4,
      "note": 61,
      "start": 2.9284,
      "duration": 0.0054,
      "velocity": 97,
      "chip": "ym2612"
    },
    {
      "channel": 2,
      "note": 42,
      "start": 2.9377,
      "duration": 0.0049,
      "velocity": 72,
      "chip": "ym2612"
    },
    {
      "channel": 2,
      "note": 42,
      "start": 2.9465,
      "duration": 0.0052,
      "velocity": 72,
      "chip": "ym2612"
    },
    {
      "channel": 2,
      "note": 42,
      "start": 2.9553,
      "duration": 0.0062,
      "velocity": 72,
      "chip": "ym2612"
    },
    {
      "channel": 3,
      "note": 64,
      "start": 2.9559,
      "duration": 0.0059,
      "velocity": 97,
      "chip": "ym2612"
    },
    {
      "channel": 4,
      "note": 59,
      "start": 2.9564,
      "duration": 0.0054,
      "velocity": 97,
      "chip": "ym2612"
    },
    {
      "channel": 2,
      "note": 42,
      "start": 2.9642,
      "duration": 0.005,
      "velocity": 72,
      "chip": "ym2612"
    },
    {
      "channel": 2,
      "note": 42,
      "start": 2.9715,
      "duration": 0.005,
      "velocity": 72,
      "chip": "ym2612"
    },
    {
      "channel": 2,
      "note": 42,
      "start": 2.9803,
      "duration": 0.0061,
      "velocity": 72,
      "chip": "ym2612"
    },
    {
      "channel": 3,
      "note": 66,
      "start": 2.9808,
      "duration": 0.0057,
      "velocity": 97,
      "chip": "ym2612"
    },
    {
      "channel": 4,
      "note": 61,
      "start": 2.9814,
      "duration": 0.0053,
      "velocity": 97,
      "chip": "ym2612"
    },
    {
      "channel": 2,
      "note": 42,
      "start": 2.9889,
      "duration": 0.0052,
      "velocity": 72,
      "chip": "ym2612"
    },
    {
      "channel": 2,
      "note": 42,
      "start": 2.9978,
      "duration": 0.0051,
      "velocity": 72,
      "chip": "ym2612"
    },
    {
      "channel": 2,
      "note": 42,
      "start": 3.0052,
      "duration": 0.0061,
      "velocity": 72,
      "chip": "ym2612"
    },
    {
      "channel": 3,
      "note": 63,
      "start": 3.0058,
      "duration": 0.0058,
      "velocity": 97,
      "chip": "ym2612"
    },
    {
      "channel": 4,
      "note": 58,
      "start": 3.0063,
      "duration": 0.0053,
      "velocity": 97,
      "chip": "ym2612"
    },
    {
      "channel": 2,
      "note": 42,
      "start": 3.014,
      "duration": 0.005,
      "velocity": 72,
      "chip": "ym2612"
    },
    {
      "channel": 2,
      "note": 42,
      "start": 3.0227,
      "duration": 0.0062,
      "velocity": 72,
      "chip": "ym2612"
    },
    {
      "channel": 3,
      "note": 64,
      "start": 3.0232,
      "duration": 0.0211,
      "velocity": 97,
      "chip": "ym2612"
    },
    {
      "channel": 4,
      "note": 59,
      "start": 3.0238,
      "duration": 0.0207,
      "velocity": 97,
      "chip": "ym2612"
    },
    {
      "channel": 2,
      "note": 42,
      "start": 3.0315,
      "duration": 0.0051,
      "velocity": 72,
      "chip": "ym2612"
    },
    {
      "channel": 2,
      "note": 42,
      "start": 3.039,
      "duration": 0.0052,
      "velocity": 72,
      "chip": "ym2612"
    },
    {
      "channel": 0,
      "note": 73,
      "start": 3.0478,
      "duration": 0.1182,
      "velocity": 97,
      "chip": "ym2612"
    },
    {
      "channel": 2,
      "note": 42,
      "start": 3.0483,
      "duration": 0.0055,
      "velocity": 72,
      "chip": "ym2612"
    },
    {
      "channel": 1,
      "note": 73,
      "start": 3.0566,
      "duration": 0.1176,
      "velocity": 97,
      "chip": "ym2612"
    },
    {
      "channel": 2,
      "note": 42,
      "start": 3.0572,
      "duration": 0.0051,
      "velocity": 72,
      "chip": "ym2612"
    },
    {
      "channel": 2,
      "note": 42,
      "start": 3.0654,
      "duration": 0.0062,
      "velocity": 72,
      "chip": "ym2612"
    },
    {
      "channel": 3,
      "note": 66,
      "start": 3.0659,
      "duration": 0.0058,
      "velocity": 97,
      "chip": "ym2612"
    },
    {
      "channel": 4,
      "note": 61,
      "start": 3.0665,
      "duration": 0.0054,
      "velocity": 97,
      "chip": "ym2612"
    },
    {
      "channel": 2,
      "note": 42,
      "start": 3.0757,
      "duration": 0.005,
      "velocity": 72,
      "chip": "ym2612"
    },
    {
      "channel": 2,
      "note": 42,
      "start": 3.0844,
      "duration": 0.005,
      "velocity": 72,
      "chip": "ym2612"
    },
    {
      "channel": 2,
      "note": 42,
      "start": 3.0931,
      "duration": 0.0062,
      "velocity": 72,
      "chip": "ym2612"
    },
    {
      "channel": 3,
      "note": 64,
      "start": 3.0936,
      "duration": 0.0058,
      "velocity": 97,
      "chip": "ym2612"
    },
    {
      "channel": 4,
      "note": 59,
      "start": 3.0942,
      "duration": 0.0054,
      "velocity": 97,
      "chip": "ym2612"
    },
    {
      "channel": 2,
      "note": 42,
      "start": 3.1019,
      "duration": 0.005,
      "velocity": 72,
      "chip": "ym2612"
    },
    {
      "channel": 2,
      "note": 42,
      "start": 3.1093,
      "duration": 0.0052,
      "velocity": 72,
      "chip": "ym2612"
    },
    {
      "channel": 2,
      "note": 42,
      "start": 3.1182,
      "duration": 0.0061,
      "velocity": 72,
      "chip": "ym2612"
    },
    {
      "channel": 3,
      "note": 66,
      "start": 3.1187,
      "duration": 0.0057,
      "velocity": 97,
      "chip": "ym2612"
    },
    {
      "channel": 4,
      "note": 61,
      "start": 3.1193,
      "duration": 0.0053,
      "velocity": 97,
      "chip": "ym2612"
    },
    {
      "channel": 2,
      "note": 42,
      "start": 3.1269,
      "duration": 0.005,
      "velocity": 72,
      "chip": "ym2612"
    },
    {
      "channel": 2,
      "note": 42,
      "start": 3.1356,
      "duration": 0.005,
      "velocity": 72,
      "chip": "ym2612"
    },
    {
      "channel": 2,
      "note": 42,
      "start": 3.1431,
      "duration": 0.0061,
      "velocity": 72,
      "chip": "ym2612"
    },
    {
      "channel": 3,
      "note": 63,
      "start": 3.1436,
      "duration": 0.0057,
      "velocity": 97,
      "chip": "ym2612"
    },
    {
      "channel": 4,
      "note": 58,
      "start": 3.1441,
      "duration": 0.0053,
      "velocity": 97,
      "chip": "ym2612"
    },
    {
      "channel": 2,
      "note": 42,
      "start": 3.1517,
      "duration": 0.0051,
      "velocity": 72,
      "chip": "ym2612"
    },
    {
      "channel": 2,
      "note": 42,
      "start": 3.1605,
      "duration": 0.0062,
      "velocity": 72,
      "chip": "ym2612"
    },
    {
      "channel": 3,
      "note": 64,
      "start": 3.161,
      "duration": 0.0224,
      "velocity": 97,
      "chip": "ym2612"
    },
    {
      "channel": 4,
      "note": 59,
      "start": 3.1616,
      "duration": 0.022,
      "velocity": 97,
      "chip": "ym2612"
    },
    {
      "channel": 0,
      "note": 64,
      "start": 3.1691,
      "duration": 0.0059,
      "velocity": 97,
      "chip": "ym2612"
    },
    {
      "channel": 2,
      "note": 42,
      "start": 3.1697,
      "duration": 0.0054,
      "velocity": 72,
      "chip": "ym2612"
    },
    {
      "channel": 0,
      "note": 66,
      "start": 3.1767,
      "duration": 0.0064,
      "velocity": 97,
      "chip": "ym2612"
    },
    {
      "channel": 1,
      "note": 64,
      "start": 3.1773,
      "duration": 0.0059,
      "velocity": 97,
      "chip": "ym2612"
    },
    {
      "channel": 2,
      "note": 42,
      "start": 3.1778,
      "duration": 0.0055,
      "velocity": 72,
      "chip": "ym2612"
    },
    {
      "channel": 0,
      "note": 68,
      "start": 3.1873,
      "duration": 0.0985,
      "velocity": 97,
      "chip": "ym2612"
    },
    {
      "channel": 1,
      "note": 66,
      "start": 3.1878,
      "duration": 0.0058,
      "velocity": 97,
      "chip": "ym2612"
    },
    {
      "channel": 2,
      "note": 40,
      "start": 3.1883,
      "duration": 0.0053,
      "velocity": 72,
      "chip": "ym2612"
    },
    {
      "channel": 1,
      "note": 68,
      "start": 3.1961,
      "duration": 0.0979,
      "velocity": 97,
      "chip": "ym2612"
    },
    {
      "channel": 2,
      "note": 40,
      "start": 3.1966,
      "duration": 0.0051,
      "velocity": 72,
      "chip": "ym2612"
    },
    {
      "channel": 2,
      "note": 40,
      "start": 3.2047,
      "duration": 0.0062,
      "velocity": 72,
      "chip": "ym2612"
    },
    {
      "channel": 3,
      "note": 64,
      "start": 3.2053,
      "duration": 0.0058,
      "velocity": 97,
      "chip": "ym2612"
    },
    {
      "channel": 4,
      "note": 59,
      "start": 3.2058,
      "duration": 0.0054,
      "velocity": 97,
      "chip": "ym2612"
    },
    {
      "channel": 2,
      "note": 40,
      "start": 3.2126,
      "duration": 0.0047,
      "velocity": 72,
      "chip": "ym2612"
    },
    {
      "channel": 2,
      "note": 40,
      "start": 3.221,
      "duration": 0.0052,
      "velocity": 72,
      "chip": "ym2612"
    },
    {
      "channel": 2,
      "note": 40,
      "start": 3.2299,
      "duration": 0.0062,
      "velocity": 72,
      "chip": "ym2612"
    },
    {
      "channel": 3,
      "note": 63,
      "start": 3.2304,
      "duration": 0.0058,
      "velocity": 97,
      "chip": "ym2612"
    },
    {
      "channel": 4,
      "note": 58,
      "start": 3.231,
      "duration": 0.0054,
      "velocity": 97,
      "chip": "ym2612"
    },
    {
      "channel": 2,
      "note": 40,
      "start": 3.2387,
      "duration": 0.005,
      "velocity": 72,
      "chip": "ym2612"
    },
    {
      "channel": 2,
      "note": 40,
      "start": 3.246,
      "duration": 0.005,
      "velocity": 72,
      "chip": "ym2612"
    },
    {
      "channel": 2,
      "note": 40,
      "start": 3.2548,
      "duration": 0.0061,
      "velocity": 72,
      "chip": "ym2612"
    },
    {
      "channel": 3,
      "note": 64,
      "start": 3.2553,
      "duration": 0.0057,
      "velocity": 97,
      "chip": "ym2612"
    },
    {
      "channel": 4,
      "note": 59,
      "start": 3.2559,
      "duration": 0.0053,
      "velocity": 97,
      "chip": "ym2612"
    },
    {
      "channel": 2,
      "note": 40,
      "start": 3.2634,
      "duration": 0.0052,
      "velocity": 72,
      "chip": "ym2612"
    },
    {
      "channel": 2,
      "note": 40,
      "start": 3.2723,
      "duration": 0.005,
      "velocity": 72,
      "chip": "ym2612"
    },
    {
      "channel": 2,
      "note": 40,
      "start": 3.2796,
      "duration": 0.0062,
      "velocity": 72,
      "chip": "ym2612"
    },
    {
      "channel": 3,
      "note": 61,
      "start": 3.2802,
      "duration": 0.0058,
      "velocity": 97,
      "chip": "ym2612"
    },
    {
      "channel": 4,
      "note": 56,
      "start": 3.2807,
      "duration": 0.0054,
      "velocity": 97,
      "chip": "ym2612"
    },
    {
      "channel": 0,
      "note": 70,
      "start": 3.2883,
      "duration": 0.0293,
      "velocity": 97,
      "chip": "ym2612"
    },
    {
      "channel": 2,
      "note": 40,
      "start": 3.2889,
      "duration": 0.0052,
      "velocity": 72,
      "chip": "ym2612"
    },
    {
      "channel": 1,
      "note": 70,
      "start": 3.2971,
      "duration": 0.0296,
      "velocity": 97,
      "chip": "ym2612"
    },
    {
      "channel": 2,
      "note": 40,
      "start": 3.2976,
      "duration": 0.0062,
      "velocity": 72,
      "chip": "ym2612"
    },
    {
      "channel": 3,
      "note": 63,
      "start": 3.2981,
      "duration": 0.0203,
      "velocity": 97,
      "chip": "ym2612"
    },
    {
      "channel": 4,
      "note": 58,
      "start": 3.2987,
      "duration": 0.0199,
      "velocity": 97,
      "chip": "ym2612"
    },
    {
      "channel": 2,
      "note": 40,
      "start": 3.3058,
      "duration": 0.005,
      "velocity": 72,
      "chip": "ym2612"
    },
    {
      "channel": 2,
      "note": 40,
      "start": 3.3132,
      "duration": 0.0051,
      "velocity": 72,
      "chip": "ym2612"
    },
    {
      "channel": 0,
      "note": 71,
      "start": 3.3219,
      "duration": 0.0316,
      "velocity": 97,
      "chip": "ym2612"
    },
    {
      "channel": 2,
      "note": 40,
      "start": 3.3225,
      "duration": 0.0049,
      "velocity": 72,
      "chip": "ym2612"
    },
    {
      "channel": 1,
      "note": 71,
      "start": 3.3302,
      "duration": 0.0323,
      "velocity": 97,
      "chip": "ym2612"
    },
    {
      "channel": 2,
      "note": 40,
      "start": 3.3308,
      "duration": 0.005,
      "velocity": 72,
      "chip": "ym2612"
    },
    {
      "channel": 2,
      "note": 40,
      "start": 3.339,
      "duration": 0.0063,
      "velocity": 72,
      "chip": "ym2612"
    },
    {
      "channel": 3,
      "note": 64,
      "start": 3.3395,
      "duration": 0.0059,
      "velocity": 97,
      "chip": "ym2612"
    },
    {
      "channel": 4,
      "note": 59,
      "start": 3.3401,
      "duration": 0.0054,
      "velocity": 97,
      "chip": "ym2612"
    },
    {
      "channel": 2,
      "note": 40,
      "start": 3.3495,
      "duration": 0.0048,
      "velocity": 72,
      "chip": "ym2612"
    },
    {
      "channel": 0,
      "note": 70,
      "start": 3.3578,
      "duration": 0.029,
      "velocity": 97,
      "chip": "ym2612"
    },
    {
      "channel": 2,
      "note": 40,
      "start": 3.3583,
      "duration": 0.005,
      "velocity": 72,
      "chip": "ym2612"
    },
    {
      "channel": 1,
      "note": 70,
      "start": 3.3663,
      "duration": 0.031,
      "velocity": 97,
      "chip": "ym2612"
    },
    {
      "channel": 2,
      "note": 40,
      "start": 3.3668,
      "duration": 0.0062,
      "velocity": 72,
      "chip": "ym2612"
    },
    {
      "channel": 3,
      "note": 63,
      "start": 3.3673,
      "duration": 0.0059,
      "velocity": 97,
      "chip": "ym2612"
    },
    {
      "channel": 4,
      "note": 58,
      "start": 3.3679,
      "duration": 0.0054,
      "velocity": 97,
      "chip": "ym2612"
    },
    {
      "channel": 2,
      "note": 40,
      "start": 3.3751,
      "duration": 0.0052,
      "velocity": 72,
      "chip": "ym2612"
    },
    {
      "channel": 2,
      "note": 40,
      "start": 3.3827,
      "duration": 0.0048,
      "velocity": 72,
      "chip": "ym2612"
    },
    {
      "channel": 0,
      "note": 68,
      "start": 3.391,
      "duration": 0.0302,
      "velocity": 97,
      "chip": "ym2612"
    },
    {
      "channel": 2,
      "note": 40,
      "start": 3.3916,
      "duration": 0.0063,
      "velocity": 72,
      "chip": "ym2612"
    },
    {
      "channel": 3,
      "note": 64,
      "start": 3.3921,
      "duration": 0.0059,
      "velocity": 97,
      "chip": "ym2612"
    },
    {
      "channel": 4,
      "note": 59,
      "start": 3.3927,
      "duration": 0.0055,
      "velocity": 97,
      "chip": "ym2612"
    },
    {
      "channel": 1,
      "note": 68,
      "start": 3.3998,
      "duration": 0.0294,
      "velocity": 97,
      "chip": "ym2612"
    },
    {
      "channel": 2,
      "note": 40,
      "start": 3.4003,
      "duration": 0.0051,
      "velocity": 72,
      "chip": "ym2612"
    },
    {
      "channel": 2,
      "note": 40,
      "start": 3.4086,
      "duration": 0.005,
      "velocity": 72,
      "chip": "ym2612"
    },
    {
      "channel": 2,
      "note": 40,
      "start": 3.416,
      "duration": 0.006,
      "velocity": 72,
      "chip": "ym2612"
    },
    {
      "channel": 3,
      "note": 61,
      "start": 3.4165,
      "duration": 0.0056,
      "velocity": 97,
      "chip": "ym2612"
    },
    {
      "channel": 4,
      "note": 56,
      "start": 3.417,
      "duration": 0.0052,
      "velocity": 97,
      "chip": "ym2612"
    },
    {
      "channel": 0,
      "note": 64,
      "start": 3.4244,
      "duration": 0.0291,
      "velocity": 97,
      "chip": "ym2612"
    },
    {
      "channel": 2,
      "note": 40,
      "start": 3.425,
      "duration": 0.0049,
      "velocity": 72,
      "chip": "ym2612"
    },
    {
      "channel": 1,
      "note": 64,
      "start": 3.4328,
      "duration": 0.0297,
      "velocity": 97,
      "chip": "ym2612"
    },
    {
      "channel": 2,
      "note": 40,
      "start": 3.4334,
      "duration": 0.0062,
      "velocity": 72,
      "chip": "ym2612"
    },
    {
      "channel": 3,
      "note": 63,
      "start": 3.4339,
      "duration": 0.0204,
      "velocity": 97,
      "chip": "ym2612"
    },
    {
      "channel": 4,
      "note": 58,
      "start": 3.4344,
      "duration": 0.02,
      "velocity": 97,
      "chip": "ym2612"
    },
    {
      "channel": 2,
      "note": 40,
      "start": 3.4417,
      "duration": 0.005,
      "velocity": 72,
      "chip": "ym2612"
    },
    {
      "channel": 2,
      "note": 40,
      "start": 3.449,
      "duration": 0.0051,
      "velocity": 72,
      "chip": "ym2612"
    },
    {
      "channel": 0,
      "note": 66,
      "start": 3.4577,
      "duration": 0.1368,
      "velocity": 97,
      "chip": "ym2612"
    },
    {
      "channel": 2,
      "note": 39,
      "start": 3.4583,
      "duration": 0.0049,
      "velocity": 72,
      "chip": "ym2612"
    },
    {
      "channel": 1,
      "note": 66,
      "start": 3.4661,
      "duration": 0.1373,
      "velocity": 97,
      "chip": "ym2612"
    },
    {
      "channel": 2,
      "note": 39,
      "start": 3.4666,
      "duration": 0.0051,
      "velocity": 72,
      "chip": "ym2612"
    },
    {
      "channel": 2,
      "note": 39,
      "start": 3.4748,
      "duration": 0.0063,
      "velocity": 72,
      "chip": "ym2612"
    },
    {
      "channel": 3,
      "note": 63,
      "start": 3.4753,
      "duration": 0.0059,
      "velocity": 97,
      "chip": "ym2612"
    },
    {
      "channel": 4,
      "note": 58,
      "start": 3.4759,
      "duration": 0.0054,
      "velocity": 97,
      "chip": "ym2612"
    },
    {
      "channel": 2,
      "note": 39,
      "start": 3.4852,
      "duration": 0.005,
      "velocity": 72,
      "chip": "ym2612"
    },
    {
      "channel": 2,
      "note": 39,
      "start": 3.4939,
      "duration": 0.005,
      "velocity": 72,
      "chip": "ym2612"
    },
    {
      "channel": 2,
      "note": 39,
      "start": 3.5027,
      "duration": 0.0061,
      "velocity": 72,
      "chip": "ym2612"
    },
    {
      "channel": 3,
      "note": 61,
      "start": 3.5032,
      "duration": 0.0058,
      "velocity": 97,
      "chip": "ym2612"
    },
    {
      "channel": 4,
      "note": 56,
      "start": 3.5037,
      "duration": 0.0054,
      "velocity": 97,
      "chip": "ym2612"
    },
    {
      "channel": 2,
      "note": 39,
      "start": 3.5113,
      "duration": 0.0052,
      "velocity": 72,
      "chip": "ym2612"
    },
    {
      "channel": 2,
      "note": 39,
      "start": 3.5188,
      "duration": 0.005,
      "velocity": 72,
      "chip": "ym2612"
    },
    {
      "channel": 2,
      "note": 39,
      "start": 3.5275,
      "duration": 0.0062,
      "velocity": 72,
      "chip": "ym2612"
    },
    {
      "channel": 3,
      "note": 63,
      "start": 3.528,
      "duration": 0.0058,
      "velocity": 97,
      "chip": "ym2612"
    },
    {
      "channel": 4,
      "note": 58,
      "start": 3.5285,
      "duration": 0.0054,
      "velocity": 97,
      "chip": "ym2612"
    },
    {
      "channel": 2,
      "note": 39,
      "start": 3.5363,
      "duration": 0.005,
      "velocity": 72,
      "chip": "ym2612"
    },
    {
      "channel": 2,
      "note": 39,
      "start": 3.545,
      "duration": 0.0052,
      "velocity": 72,
      "chip": "ym2612"
    },
    {
      "channel": 2,
      "note": 39,
      "start": 3.5525,
      "duration": 0.0061,
      "velocity": 72,
      "chip": "ym2612"
    },
    {
      "channel": 3,
      "note": 59,
      "start": 3.5531,
      "duration": 0.0058,
      "velocity": 97,
      "chip": "ym2612"
    },
    {
      "channel": 4,
      "note": 54,
      "start": 3.5536,
      "duration": 0.0053,
      "velocity": 97,
      "chip": "ym2612"
    },
    {
      "channel": 2,
      "note": 39,
      "start": 3.5613,
      "duration": 0.005,
      "velocity": 72,
      "chip": "ym2612"
    },
    {
      "channel": 2,
      "note": 39,
      "start": 3.57,
      "duration": 0.006,
      "velocity": 72,
      "chip": "ym2612"
    },
    {
      "channel": 3,
      "note": 61,
      "start": 3.5705,
      "duration": 0.0204,
      "velocity": 97,
      "chip": "ym2612"
    },
    {
      "channel": 4,
      "note": 56,
      "start": 3.571,
      "duration": 0.02,
      "velocity": 97,
      "chip": "ym2612"
    },
    {
      "channel": 2,
      "note": 39,
      "start": 3.5785,
      "duration": 0.0049,
      "velocity": 72,
      "chip": "ym2612"
    },
    {
      "channel": 2,
      "note": 39,
      "start": 3.5858,
      "duration": 0.0049,
      "velocity": 72,
      "chip": "ym2612"
    },
    {
      "channel": 0,
      "note": 70,
      "start": 3.5946,
      "duration": 0.1313,
      "velocity": 97,
      "chip": "ym2612"
    },
    {
      "channel": 2,
      "note": 39,
      "start": 3.5952,
      "duration": 0.0052,
      "velocity": 72,
      "chip": "ym2612"
    },
    {
      "channel": 1,
      "note": 70,
      "start": 3.6033,
      "duration": 0.1328,
      "velocity": 97,
      "chip": "ym2612"
    },
    {
      "channel": 2,
      "note": 39,
      "start": 3.6038,
      "duration": 0.0051,
      "velocity": 72,
      "chip": "ym2612"
    },
    {
      "channel": 2,
      "note": 39,
      "start": 3.6119,
      "duration": 0.0062,
      "velocity": 72,
      "chip": "ym2612"
    },
    {
      "channel": 3,
      "note": 63,
      "start": 3.6124,
      "duration": 0.0058,
      "velocity": 97,
      "chip": "ym2612"
    },
    {
      "channel": 4,
      "note": 58,
      "start": 3.613,
      "duration": 0.0054,
      "velocity": 97,
      "chip": "ym2612"
    },
    {
      "channel": 2,
      "note": 39,
      "start": 3.6223,
      "duration": 0.005,
      "velocity": 72,
      "chip": "ym2612"
    },
    {
      "channel": 2,
      "note": 39,
      "start": 3.6311,
      "duration": 0.0051,
      "velocity": 72,
      "chip": "ym2612"
    },
    {
      "channel": 2,
      "note": 39,
      "start": 3.6399,
      "duration": 0.0061,
      "velocity": 72,
      "chip": "ym2612"
    },
    {
      "channel": 3,
      "note": 61,
      "start": 3.6404,
      "duration": 0.0057,
      "velocity": 97,
      "chip": "ym2612"
    },
    {
      "channel": 4,
      "note": 56,
      "start": 3.6409,
      "duration": 0.0054,
      "velocity": 97,
      "chip": "ym2612"
    },
    {
      "channel": 2,
      "note": 39,
      "start": 3.6486,
      "duration": 0.005,
      "velocity": 72,
      "chip": "ym2612"
    },
    {
      "channel": 2,
      "note": 39,
      "start": 3.656,
      "duration": 0.0049,
      "velocity": 72,
      "chip": "ym2612"
    },
    {
      "channel": 2,
      "note": 39,
      "start": 3.6647,
      "duration": 0.0062,
      "velocity": 72,
      "chip": "ym2612"
    },
    {
      "channel": 3,
      "note": 63,
      "start": 3.6653,
      "duration": 0.0059,
      "velocity": 97,
      "chip": "ym2612"
    },
    {
      "channel": 4,
      "note": 58,
      "start": 3.6658,
      "duration": 0.0054,
      "velocity": 97,
      "chip": "ym2612"
    },
    {
      "channel": 2,
      "note": 39,
      "start": 3.6736,
      "duration": 0.005,
      "velocity": 72,
      "chip": "ym2612"
    },
    {
      "channel": 2,
      "note": 39,
      "start": 3.6822,
      "duration": 0.0065,
      "velocity": 72,
      "chip": "ym2612"
    },
    {
      "channel": 2,
      "note": 39,
      "start": 3.6915,
      "duration": 0.0061,
      "velocity": 72,
      "chip": "ym2612"
    },
    {
      "channel": 3,
      "note": 59,
      "start": 3.6921,
      "duration": 0.0057,
      "velocity": 97,
      "chip": "ym2612"
    },
    {
      "channel": 4,
      "note": 54,
      "start": 3.6926,
      "duration": 0.0053,
      "velocity": 97,
      "chip": "ym2612"
    },
    {
      "channel": 2,
      "note": 39,
      "start": 3.6993,
      "duration": 0.005,
      "velocity": 72,
      "chip": "ym2612"
    },
    {
      "channel": 2,
      "note": 39,
      "start": 3.7058,
      "duration": 0.0076,
      "velocity": 72,
      "chip": "ym2612"
    },
    {
      "channel": 3,
      "note": 61,
      "start": 3.7063,
      "duration": 0.0199,
      "velocity": 97,
      "chip": "ym2612"
    },
    {
      "channel": 4,
      "note": 56,
      "start": 3.7069,
      "duration": 0.0195,
      "velocity": 97,
      "chip": "ym2612"
    },
    {
      "channel": 2,
      "note": 39,
      "start": 3.7147,
      "duration": 0.0049,
      "velocity": 72,
      "chip": "ym2612"
    },
    {
      "channel": 2,
      "note": 39,
      "start": 3.721,
      "duration": 0.0051,
      "velocity": 72,
      "chip": "ym2612"
    },
    {
      "channel": 0,
      "note": 71,
      "start": 3.7302,
      "duration": 0.1017,
      "velocity": 97,
      "chip": "ym2612"
    },
    {
      "channel": 2,
      "note": 44,
      "start": 3.7307,
      "duration": 0.0055,
      "velocity": 72,
      "chip": "ym2612"
    },
    {
      "channel": 1,
      "note": 71,
      "start": 3.739,
      "duration": 0.1012,
      "velocity": 97,
      "chip": "ym2612"
    },
    {
      "channel": 2,
      "note": 44,
      "start": 3.7395,
      "duration": 0.0053,
      "velocity": 72,
      "chip": "ym2612"
    },
    {
      "channel": 2,
      "note": 44,
      "start": 3.7479,
      "duration": 0.0062,
      "velocity": 72,
      "chip": "ym2612"
    },
    {
      "channel": 3,
      "note": 68,
      "start": 3.7484,
      "duration": 0.0059,
      "velocity": 97,
      "chip": "ym2612"
    },
    {
      "channel": 4,
      "note": 63,
      "start": 3.749,
      "duration": 0.0054,
      "velocity": 97,
      "chip": "ym2612"
    },
    {
      "channel": 2,
      "note": 44,
      "start": 3.7583,
      "duration": 0.005,
      "velocity": 72,
      "chip": "ym2612"
    },
    {
      "channel": 2,
      "note": 44,
      "start": 3.767,
      "duration": 0.005,
      "velocity": 72,
      "chip": "ym2612"
    },
    {
      "channel": 2,
      "note": 44,
      "start": 3.7758,
      "duration": 0.0061,
      "velocity": 72,
      "chip": "ym2612"
    },
    {
      "channel": 3,
      "note": 66,
      "start": 3.7763,
      "duration": 0.0057,
      "velocity": 97,
      "chip": "ym2612"
    },
    {
      "channel": 4,
      "note": 61,
      "start": 3.7768,
      "duration": 0.0053,
      "velocity": 97,
      "chip": "ym2612"
    },
    {
      "channel": 2,
      "note": 44,
      "start": 3.7844,
      "duration": 0.0052,
      "velocity": 72,
      "chip": "ym2612"
    },
    {
      "channel": 2,
      "note": 44,
      "start": 3.7919,
      "duration": 0.005,
      "velocity": 72,
      "chip": "ym2612"
    },
    {
      "channel": 2,
      "note": 44,
      "start": 3.8005,
      "duration": 0.0062,
      "velocity": 72,
      "chip": "ym2612"
    },
    {
      "channel": 3,
      "note": 68,
      "start": 3.8011,
      "duration": 0.0058,
      "velocity": 97,
      "chip": "ym2612"
    },
    {
      "channel": 4,
      "note": 63,
      "start": 3.8016,
      "duration": 0.0054,
      "velocity": 97,
      "chip": "ym2612"
    },
    {
      "channel": 2,
      "note": 44,
      "start": 3.8094,
      "duration": 0.005,
      "velocity": 72,
      "chip": "ym2612"
    },
    {
      "channel": 2,
      "note": 44,
      "start": 3.8181,
      "duration": 0.0052,
      "velocity": 72,
      "chip": "ym2612"
    },
    {
      "channel": 2,
      "note": 44,
      "start": 3.8256,
      "duration": 0.0063,
      "velocity": 72,
      "chip": "ym2612"
    },
    {
      "channel": 3,
      "note": 64,
      "start": 3.8261,
      "duration": 0.0059,
      "velocity": 97,
      "chip": "ym2612"
    },
    {
      "channel": 4,
      "note": 59,
      "start": 3.8267,
      "duration": 0.0055,
      "velocity": 97,
      "chip": "ym2612"
    },
    {
      "channel": 0,
      "note": 73,
      "start": 3.8344,
      "duration": 0.0289,
      "velocity": 97,
      "chip": "ym2612"
    },
    {
      "channel": 2,
      "note": 44,
      "start": 3.835,
      "duration": 0.0053,
      "velocity": 72,
      "chip": "ym2612"
    },
    {
      "channel": 1,
      "note": 73,
      "start": 3.8434,
      "duration": 0.0292,
      "velocity": 97,
      "chip": "ym2612"
    },
    {
      "channel": 2,
      "note": 44,
      "start": 3.8439,
      "duration": 0.0061,
      "velocity": 72,
      "chip": "ym2612"
    },
    {
      "channel": 3,
      "note": 66,
      "start": 3.8444,
      "duration": 0.0198,
      "velocity": 97,
      "chip": "ym2612"
    },
    {
      "channel": 4,
      "note": 61,
      "start": 3.845,
      "duration": 0.0193,
      "velocity": 97,
      "chip": "ym2612"
    },
    {
      "channel": 2,
      "note": 44,
      "start": 3.852,
      "duration": 0.005,
      "velocity": 72,
      "chip": "ym2612"
    },
    {
      "channel": 2,
      "note": 44,
      "start": 3.8594,
      "duration": 0.0046,
      "velocity": 72,
      "chip": "ym2612"
    },
    {
      "channel": 0,
      "note": 75,
      "start": 3.8677,
      "duration": 0.0316,
      "velocity": 97,
      "chip": "ym2612"
    },
    {
      "channel": 2,
      "note": 44,
      "start": 3.8683,
      "duration": 0.005,
      "velocity": 72,
      "chip": "ym2612"
    },
    {
      "channel": 1,
      "note": 75,
      "start": 3.8761,
      "duration": 0.0324,
      "velocity": 97,
      "chip": "ym2612"
    },
    {
      "channel": 2,
      "note": 44,
      "start": 3.8767,
      "duration": 0.0051,
      "velocity": 72,
      "chip": "ym2612"
    },
    {
      "channel": 2,
      "note": 44,
      "start": 3.8848,
      "duration": 0.0061,
      "velocity": 72,
      "chip": "ym2612"
    },
    {
      "channel": 3,
      "note": 68,
      "start": 3.8854,
      "duration": 0.0058,
      "velocity": 97,
      "chip": "ym2612"
    },
    {
      "channel": 4,
      "note": 63,
      "start": 3.8859,
      "duration": 0.0053,
      "velocity": 97,
      "chip": "ym2612"
    },
    {
      "channel": 2,
      "note": 44,
      "start": 3.8952,
      "duration": 0.0049,
      "velocity": 72,
      "chip": "ym2612"
    },
    {
      "channel": 0,
      "note": 73,
      "start": 3.9037,
      "duration": 0.0287,
      "velocity": 97,
      "chip": "ym2612"
    },
    {
      "channel": 2,
      "note": 44,
      "start": 3.9042,
      "duration": 0.005,
      "velocity": 72,
      "chip": "ym2612"
    },
    {
      "channel": 1,
      "note": 73,
      "start": 3.9122,
      "duration": 0.0305,
      "velocity": 97,
      "chip": "ym2612"
    },
    {
      "channel": 2,
      "note": 44,
      "start": 3.9127,
      "duration": 0.0062,
      "velocity": 72,
      "chip": "ym2612"
    },
    {
      "channel": 3,
      "note": 66,
      "start": 3.9132,
      "duration": 0.0058,
      "velocity": 97,
      "chip": "ym2612"
    },
    {
      "channel": 4,
      "note": 61,
      "start": 3.9138,
      "duration": 0.0054,
      "velocity": 97,
      "chip": "ym2612"
    },
    {
      "channel": 2,
      "note": 44,
      "start": 3.921,
      "duration": 0.0051,
      "velocity": 72,
      "chip": "ym2612"
    },
    {
      "channel": 2,
      "note": 44,
      "start": 3.9284,
      "duration": 0.0048,
      "velocity": 72,
      "chip": "ym2612"
    },
    {
      "channel": 0,
      "note": 71,
      "start": 3.9368,
      "duration": 0.0142,
      "velocity": 97,
      "chip": "ym2612"
    },
    {
      "channel": 2,
      "note": 44,
      "start": 3.9373,
      "duration": 0.0061,
      "velocity": 72,
      "chip": "ym2612"
    },
    {
      "channel": 3,
      "note": 68,
      "start": 3.9378,
      "duration": 0.0057,
      "velocity": 97,
      "chip": "ym2612"
    },
    {
      "channel": 4,
      "note": 63,
      "start": 3.9384,
      "duration": 0.0053,
      "velocity": 97,
      "chip": "ym2612"
    },
    {
      "channel": 1,
      "note": 71,
      "start": 3.9453,
      "duration": 0.0144,
      "velocity": 97,
      "chip": "ym2612"
    },
    {
      "channel": 2,
      "note": 44,
      "start": 3.9459,
      "duration": 0.0052,
      "velocity": 72,
      "chip": "ym2612"
    },
    {
      "channel": 0,
      "note": 75,
      "start": 3.954,
      "duration": 0.0455,
      "velocity": 97,
      "chip": "ym2612"
    },
    {
      "channel": 2,
      "note": 44,
      "start": 3.9546,
      "duration": 0.0052,
      "velocity": 72,
      "chip": "ym2612"
    },
    {
      "channel": 1,
      "note": 75,
      "start": 3.9617,
      "duration": 0.047,
      "velocity": 97,
      "chip": "ym2612"
    },
    {
      "channel": 2,
      "note": 44,
      "start": 3.9622,
      "duration": 0.0061,
      "velocity": 72,
      "chip": "ym2612"
    },
    {
      "channel": 3,
      "note": 64,
      "start": 3.9627,
      "duration": 0.0057,
      "velocity": 97,
      "chip": "ym2612"
    },
    {
      "channel": 4,
      "note": 59,
      "start": 3.9633,
      "duration": 0.0053,
      "velocity": 97,
      "chip": "ym2612"
    },
    {
      "channel": 2,
      "note": 44,
      "start": 3.9703,
      "duration": 0.0051,
      "velocity": 72,
      "chip": "ym2612"
    },
    {
      "channel": 2,
      "note": 44,
      "start": 3.9791,
      "duration": 0.0062,
      "velocity": 72,
      "chip": "ym2612"
    },
    {
      "channel": 3,
      "note": 66,
      "start": 3.9796,
      "duration": 0.0208,
      "velocity": 97,
      "chip": "ym2612"
    },
    {
      "channel": 4,
      "note": 61,
      "start": 3.9802,
      "duration": 0.0204,
      "velocity": 97,
      "chip": "ym2612"
    },
    {
      "channel": 2,
      "note": 44,
      "start": 3.9879,
      "duration": 0.0052,
      "velocity": 72,
      "chip": "ym2612"
    },
    {
      "channel": 2,
      "note": 44,
      "start": 3.9955,
      "duration": 0.0048,
      "velocity": 72,
      "chip": "ym2612"
    },
    {
      "channel": 0,
      "note": 76,
      "start": 4.0039,
      "duration": 0.1334,
      "velocity": 97,
      "chip": "ym2612"
    },
    {
      "channel": 2,
      "note": 42,
      "start": 4.0045,
      "duration": 0.005,
      "velocity": 72,
      "chip": "ym2612"
    },
    {
      "channel": 1,
      "note": 76,
      "start": 4.0124,
      "duration": 0.1344,
      "velocity": 97,
      "chip": "ym2612"
    },
    {
      "channel": 2,
      "note": 42,
      "start": 4.0129,
      "duration": 0.0051,
      "velocity": 72,
      "chip": "ym2612"
    },
    {
      "channel": 2,
      "note": 42,
      "start": 4.0211,
      "duration": 0.0063,
      "velocity": 72,
      "chip": "ym2612"
    },
    {
      "channel": 3,
      "note": 66,
      "start": 4.0216,
      "duration": 0.0059,
      "velocity": 97,
      "chip": "ym2612"
    },
    {
      "channel": 4,
      "note": 61,
      "start": 4.0222,
      "duration": 0.0055,
      "velocity": 97,
      "chip": "ym2612"
    },
    {
      "channel": 2,
      "note": 42,
      "start": 4.0316,
      "duration": 0.005,
      "velocity": 72,
      "chip": "ym2612"
    },
    {
      "channel": 2,
      "note": 42,
      "start": 4.0403,
      "duration": 0.005,
      "velocity": 72,
      "chip": "ym2612"
    },
    {
      "channel": 2,
      "note": 42,
      "start": 4.0491,
      "duration": 0.0061,
      "velocity": 72,
      "chip": "ym2612"
    },
    {
      "channel": 3,
      "note": 64,
      "start": 4.0496,
      "duration": 0.0057,
      "velocity": 97,
      "chip": "ym2612"
    },
    {
      "channel": 4,
      "note": 59,
      "start": 4.0502,
      "duration": 0.0053,
      "velocity": 97,
      "chip": "ym2612"
    },
    {
      "channel": 2,
      "note": 42,
      "start": 4.0577,
      "duration": 0.0052,
      "velocity": 72,
      "chip": "ym2612"
    },
    {
      "channel": 2,
      "note": 42,
      "start": 4.0652,
      "duration": 0.005,
      "velocity": 72,
      "chip": "ym2612"
    },
    {
      "channel": 2,
      "note": 42,
      "start": 4.0739,
      "duration": 0.0062,
      "velocity": 72,
      "chip": "ym2612"
    },
    {
      "channel": 3,
      "note": 66,
      "start": 4.0744,
      "duration": 0.0058,
      "velocity": 97,
      "chip": "ym2612"
    },
    {
      "channel": 4,
      "note": 61,
      "start": 4.0749,
      "duration": 0.0054,
      "velocity": 97,
      "chip": "ym2612"
    },
    {
      "channel": 2,
      "note": 42,
      "start": 4.0827,
      "duration": 0.005,
      "velocity": 72,
      "chip": "ym2612"
    },
    {
      "channel": 2,
      "note": 42,
      "start": 4.0914,
      "duration": 0.0052,
      "velocity": 72,
      "chip": "ym2612"
    },
    {
      "channel": 2,
      "note": 42,
      "start": 4.0989,
      "duration": 0.0062,
      "velocity": 72,
      "chip": "ym2612"
    },
    {
      "channel": 3,
      "note": 63,
      "start": 4.0995,
      "duration": 0.0058,
      "velocity": 97,
      "chip": "ym2612"
    },
    {
      "channel": 4,
      "note": 58,
      "start": 4.1,
      "duration": 0.0054,
      "velocity": 97,
      "chip": "ym2612"
    },
    {
      "channel": 2,
      "note": 42,
      "start": 4.1078,
      "duration": 0.005,
      "velocity": 72,
      "chip": "ym2612"
    },
    {
      "channel": 2,
      "note": 42,
      "start": 4.1164,
      "duration": 0.0061,
      "velocity": 72,
      "chip": "ym2612"
    },
    {
      "channel": 3,
      "note": 64,
      "start": 4.1169,
      "duration": 0.0206,
      "velocity": 97,
      "chip": "ym2612"
    },
    {
      "channel": 4,
      "note": 59,
      "start": 4.1175,
      "duration": 0.0202,
      "velocity": 97,
      "chip": "ym2612"
    },
    {
      "channel": 2,
      "note": 42,
      "start": 4.1251,
      "duration": 0.005,
      "velocity": 72,
      "chip": "ym2612"
    },
    {
      "channel": 2,
      "note": 42,
      "start": 4.1324,
      "duration": 0.005,
      "velocity": 72,
      "chip": "ym2612"
    },
    {
      "channel": 0,
      "note": 73,
      "start": 4.141,
      "duration": 0.118,
      "velocity": 97,
      "chip": "ym2612"
    },
    {
      "channel": 2,
      "note": 42,
      "start": 4.1416,
      "duration": 0.0053,
      "velocity": 72,
      "chip": "ym2612"
    },
    {
      "channel": 1,
      "note": 73,
      "start": 4.1498,
      "duration": 0.1172,
      "velocity": 97,
      "chip": "ym2612"
    },
    {
      "channel": 2,
      "note": 42,
      "start": 4.1504,
      "duration": 0.0051,
      "velocity": 72,
      "chip": "ym2612"
    },
    {
      "channel": 2,
      "note": 42,
      "start": 4.1585,
      "duration": 0.0061,
      "velocity": 72,
      "chip": "ym2612"
    },
    {
      "channel": 3,
      "note": 66,
      "start": 4.159,
      "duration": 0.0058,
      "velocity": 97,
      "chip": "ym2612"
    },
    {
      "channel": 4,
      "note": 61,
      "start": 4.1596,
      "duration": 0.0053,
      "velocity": 97,
      "chip": "ym2612"
    },
    {
      "channel": 2,
      "note": 42,
      "start": 4.1688,
      "duration": 0.005,
      "velocity": 72,
      "chip": "ym2612"
    },
    {
      "channel": 2,
      "note": 42,
      "start": 4.1776,
      "duration": 0.0051,
      "velocity": 72,
      "chip": "ym2612"
    },
    {
      "channel": 2,
      "note": 42,
      "start": 4.1864,
      "duration": 0.0063,
      "velocity": 72,
      "chip": "ym2612"
    },
    {
      "channel": 3,
      "note": 64,
      "start": 4.1869,
      "duration": 0.0059,
      "velocity": 97,
      "chip": "ym2612"
    },
    {
      "channel": 4,
      "note": 59,
      "start": 4.1875,
      "duration": 0.0055,
      "velocity": 97,
      "chip": "ym2612"
    },
    {
      "channel": 2,
      "note": 42,
      "start": 4.1953,
      "duration": 0.005,
      "velocity": 72,
      "chip": "ym2612"
    },
    {
      "channel": 2,
      "note": 42,
      "start": 4.2027,
      "duration": 0.005,
      "velocity": 72,
      "chip": "ym2612"
    },
    {
      "channel": 2,
      "note": 42,
      "start": 4.2114,
      "duration": 0.0061,
      "velocity": 72,
      "chip": "ym2612"
    },
    {
      "channel": 3,
      "note": 66,
      "start": 4.2119,
      "duration": 0.0057,
      "velocity": 97,
      "chip": "ym2612"
    },
    {
      "channel": 4,
      "note": 61,
      "start": 4.2125,
      "duration": 0.0053,
      "velocity": 97,
      "chip": "ym2612"
    },
    {
      "channel": 2,
      "note": 42,
      "start": 4.22,
      "duration": 0.0052,
      "velocity": 72,
      "chip": "ym2612"
    },
    {
      "channel": 2,
      "note": 42,
      "start": 4.2289,
      "duration": 0.005,
      "velocity": 72,
      "chip": "ym2612"
    },
    {
      "channel": 2,
      "note": 42,
      "start": 4.2363,
      "duration": 0.0061,
      "velocity": 72,
      "chip": "ym2612"
    },
    {
      "channel": 3,
      "note": 63,
      "start": 4.2368,
      "duration": 0.0057,
      "velocity": 97,
      "chip": "ym2612"
    },
    {
      "channel": 4,
      "note": 58,
      "start": 4.2373,
      "duration": 0.0053,
      "velocity": 97,
      "chip": "ym2612"
    },
    {
      "channel": 2,
      "note": 42,
      "start": 4.245,
      "duration": 0.005,
      "velocity": 72,
      "chip": "ym2612"
    },
    {
      "channel": 2,
      "note": 42,
      "start": 4.2538,
      "duration": 0.0059,
      "velocity": 72,
      "chip": "ym2612"
    },
    {
      "channel": 3,
      "note": 64,
      "start": 4.2543,
      "duration": 0.0215,
      "velocity": 97,
      "chip": "ym2612"
    },
    {
      "channel": 4,
      "note": 59,
      "start": 4.2549,
      "duration": 0.0211,
      "velocity": 97,
      "chip": "ym2612"
    },
    {
      "channel": 0,
      "note": 75,
      "start": 4.2622,
      "duration": 0.0055,
      "velocity": 97,
      "chip": "ym2612"
    },
    {
      "channel": 2,
      "note": 42,
      "start": 4.2627,
      "duration": 0.0051,
      "velocity": 72,
      "chip": "ym2612"
    },
    {
      "channel": 0,
      "note": 76,
      "start": 4.2693,
      "duration": 0.0062,
      "velocity": 97,
      "chip": "ym2612"
    },
    {
      "channel": 1,
      "note": 75,
      "start": 4.2699,
      "duration": 0.0058,
      "velocity": 97,
      "chip": "ym2612"
    },
    {
      "channel": 2,
      "note": 42,
      "start": 4.2704,
      "duration": 0.0054,
      "velocity": 72,
      "chip": "ym2612"
    },
    {
      "channel": 0,
      "note": 75,
      "start": 4.2797,
      "duration": 0.1015,
      "velocity": 97,
      "chip": "ym2612"
    },
    {
      "channel": 1,
      "note": 76,
      "start": 4.2803,
      "duration": 0.0058,
      "velocity": 97,
      "chip": "ym2612"
    },
    {
      "channel": 2,
      "note": 40,
      "start": 4.2808,
      "duration": 0.0054,
      "velocity": 72,
      "chip": "ym2612"
    },
    {
      "channel": 1,
      "note": 75,
      "start": 4.2885,
      "duration": 0.1009,
      "velocity": 97,
      "chip": "ym2612"
    },
    {
      "channel": 2,
      "note": 40,
      "start": 4.2891,
      "duration": 0.0051,
      "velocity": 72,
      "chip": "ym2612"
    },
    {
      "channel": 2,
      "note": 40,
      "start": 4.2973,
      "duration": 0.0061,
      "velocity": 72,
      "chip": "ym2612"
    },
    {
      "channel": 3,
      "note": 64,
      "start": 4.2978,
      "duration": 0.0057,
      "velocity": 97,
      "chip": "ym2612"
    },
    {
      "channel": 4,
      "note": 59,
      "start": 4.2984,
      "duration": 0.0053,
      "velocity": 97,
      "chip": "ym2612"
    },
    {
      "channel": 2,
      "note": 40,
      "start": 4.3076,
      "duration": 0.0052,
      "velocity": 72,
      "chip": "ym2612"
    },
    {
      "channel": 2,
      "note": 40,
      "start": 4.3165,
      "duration": 0.005,
      "velocity": 72,
      "chip": "ym2612"
    },
    {
      "channel": 2,
      "note": 40,
      "start": 4.3251,
      "duration": 0.0062,
      "velocity": 72,
      "chip": "ym2612"
    },
    {
      "channel": 3,
      "note": 63,
      "start": 4.3256,
      "duration": 0.0058,
      "velocity": 97,
      "chip": "ym2612"
    },
    {
      "channel": 4,
      "note": 58,
      "start": 4.3262,
      "duration": 0.0054,
      "velocity": 97,
      "chip": "ym2612"
    },
    {
      "channel": 2,
      "note": 40,
      "start": 4.3339,
      "duration": 0.005,
      "velocity": 72,
      "chip": "ym2612"
    },
    {
      "channel": 2,
      "note": 40,
      "start": 4.3413,
      "duration": 0.0052,
      "velocity": 72,
      "chip": "ym2612"
    },
    {
      "channel": 2,
      "note": 40,
      "start": 4.3502,
      "duration": 0.0063,
      "velocity": 72,
      "chip": "ym2612"
    },
    {
      "channel": 3,
      "note": 64,
      "start": 4.3507,
      "duration": 0.0059,
      "velocity": 97,
      "chip": "ym2612"
    },
    {
      "channel": 4,
      "note": 59,
      "start": 4.3513,
      "duration": 0.0055,
      "velocity": 97,
      "chip": "ym2612"
    },
    {
      "channel": 2,
      "note": 40,
      "start": 4.3591,
      "duration": 0.005,
      "velocity": 72,
      "chip": "ym2612"
    },
    {
      "channel": 2,
      "note": 40,
      "start": 4.3678,
      "duration": 0.005,
      "velocity": 72,
      "chip": "ym2612"
    },
    {
      "channel": 2,
      "note": 40,
      "start": 4.3752,
      "duration": 0.0061,
      "velocity": 72,
      "chip": "ym2612"
    },
    {
      "channel": 3,
      "note": 61,
      "start": 4.3757,
      "duration": 0.0057,
      "velocity": 97,
      "chip": "ym2612"
    },
    {
      "channel": 4,
      "note": 56,
      "start": 4.3763,
      "duration": 0.0053,
      "velocity": 97,
      "chip": "ym2612"
    },
    {
      "channel": 0,
      "note": 73,
      "start": 4.3837,
      "duration": 0.0293,
      "velocity": 97,
      "chip": "ym2612"
    },
    {
      "channel": 2,
      "note": 40,
      "start": 4.3843,
      "duration": 0.0052,
      "velocity": 72,
      "chip": "ym2612"
    },
    {
      "channel": 1,
      "note": 73,
      "start": 4.3927,
      "duration": 0.0298,
      "velocity": 97,
      "chip": "ym2612"
    },
    {
      "channel": 2,
      "note": 40,
      "start": 4.3932,
      "duration": 0.0062,
      "velocity": 72,
      "chip": "ym2612"
    },
    {
      "channel": 3,
      "note": 63,
      "start": 4.3937,
      "duration": 0.0203,
      "velocity": 97,
      "chip": "ym2612"
    },
    {
      "channel": 4,
      "note": 58,
      "start": 4.3943,
      "duration": 0.0199,
      "velocity": 97,
      "chip": "ym2612"
    },
    {
      "channel": 2,
      "note": 40,
      "start": 4.4014,
      "duration": 0.0051,
      "velocity": 72,
      "chip": "ym2612"
    },
    {
      "channel": 2,
      "note": 40,
      "start": 4.4089,
      "duration": 0.005,
      "velocity": 72,
      "chip": "ym2612"
    },
    {
      "channel": 0,
      "note": 71,
      "start": 4.4174,
      "duration": 0.0318,
      "velocity": 97,
      "chip": "ym2612"
    },
    {
      "channel": 2,
      "note": 40,
      "start": 4.418,
      "duration": 0.0052,
      "velocity": 72,
      "chip": "ym2612"
    },
    {
      "channel": 1,
      "note": 71,
      "start": 4.4259,
      "duration": 0.0323,
      "velocity": 97,
      "chip": "ym2612"
    },
    {
      "channel": 2,
      "note": 40,
      "start": 4.4265,
      "duration": 0.0051,
      "velocity": 72,
      "chip": "ym2612"
    },
    {
      "channel": 2,
      "note": 40,
      "start": 4.4347,
      "duration": 0.0063,
      "velocity": 72,
      "chip": "ym2612"
    },
    {
      "channel": 3,
      "note": 64,
      "start": 4.4352,
      "duration": 0.0059,
      "velocity": 97,
      "chip": "ym2612"
    },
    {
      "channel": 4,
      "note": 59,
      "start": 4.4358,
      "duration": 0.0054,
      "velocity": 97,
      "chip": "ym2612"
    },
    {
      "channel": 2,
      "note": 40,
      "start": 4.4451,
      "duration": 0.0048,
      "velocity": 72,
      "chip": "ym2612"
    },
    {
      "channel": 0,
      "note": 73,
      "start": 4.4534,
      "duration": 0.029,
      "velocity": 97,
      "chip": "ym2612"
    },
    {
      "channel": 2,
      "note": 40,
      "start": 4.454,
      "duration": 0.0051,
      "velocity": 72,
      "chip": "ym2612"
    },
    {
      "channel": 1,
      "note": 73,
      "start": 4.462,
      "duration": 0.0309,
      "velocity": 97,
      "chip": "ym2612"
    },
    {
      "channel": 2,
      "note": 40,
      "start": 4.4625,
      "duration": 0.0062,
      "velocity": 72,
      "chip": "ym2612"
    },
    {
      "channel": 3,
      "note": 63,
      "start": 4.463,
      "duration": 0.0059,
      "velocity": 97,
      "chip": "ym2612"
    },
    {
      "channel": 4,
      "note": 58,
      "start": 4.4636,
      "duration": 0.0054,
      "velocity": 97,
      "chip": "ym2612"
    },
    {
      "channel": 2,
      "note": 40,
      "start": 4.4708,
      "duration": 0.005,
      "velocity": 72,
      "chip": "ym2612"
    },
    {
      "channel": 2,
      "note": 40,
      "start": 4.4782,
      "duration": 0.0049,
      "velocity": 72,
      "chip": "ym2612"
    },
    {
      "channel": 0,
      "note": 76,
      "start": 4.4866,
      "duration": 0.0302,
      "velocity": 97,
      "chip": "ym2612"
    },
    {
      "channel": 2,
      "note": 40,
      "start": 4.4872,
      "duration": 0.0064,
      "velocity": 72,
      "chip": "ym2612"
    },
    {
      "channel": 3,
      "note": 64,
      "start": 4.4877,
      "duration": 0.006,
      "velocity": 97,
      "chip": "ym2612"
    },
    {
      "channel": 4,
      "note": 59,
      "start": 4.4883,
      "duration": 0.0056,
      "velocity": 97,
      "chip": "ym2612"
    },
    {
      "channel": 1,
      "note": 76,
      "start": 4.4955,
      "duration": 0.0294,
      "velocity": 97,
      "chip": "ym2612"
    },
    {
      "channel": 2,
      "note": 40,
      "start": 4.496,
      "duration": 0.0051,
      "velocity": 72,
      "chip": "ym2612"
    },
    {
      "channel": 2,
      "note": 40,
      "start": 4.5043,
      "duration": 0.005,
      "velocity": 72,
      "chip": "ym2612"
    },
    {
      "channel": 2,
      "note": 40,
      "start": 4.5117,
      "duration": 0.006,
      "velocity": 72,
      "chip": "ym2612"
    },
    {
      "channel": 3,
      "note": 61,
      "start": 4.5122,
      "duration": 0.0056,
      "velocity": 97,
      "chip": "ym2612"
    },
    {
      "channel": 4,
      "note": 56,
      "start": 4.5127,
      "duration": 0.0052,
      "velocity": 97,
      "chip": "ym2612"
    },
    {
      "channel": 0,
      "note": 80,
      "start": 4.52,
      "duration": 0.0291,
      "velocity": 97,
      "chip": "ym2612"
    },
    {
      "channel": 2,
      "note": 40,
      "start": 4.5206,
      "duration": 0.005,
      "velocity": 72,
      "chip": "ym2612"
    },
    {
      "channel": 1,
      "note": 80,
      "start": 4.5286,
      "duration": 0.0298,
      "velocity": 97,
      "chip": "ym2612"
    },
    {
      "channel": 2,
      "note": 40,
      "start": 4.5291,
      "duration": 0.0062,
      "velocity": 72,
      "chip": "ym2612"
    },
    {
      "channel": 3,
      "note": 63,
      "start": 4.5296,
      "duration": 0.0204,
      "velocity": 97,
      "chip": "ym2612"
    },
    {
      "channel": 4,
      "note": 58,
      "start": 4.5302,
      "duration": 0.02,
      "velocity": 97,
      "chip": "ym2612"
    },
    {
      "channel": 2,
      "note": 40,
      "start": 4.5375,
      "duration": 0.0051,
      "velocity": 72,
      "chip": "ym2612"
    },
    {
      "channel": 2,
      "note": 40,
      "start": 4.545,
      "duration": 0.0049,
      "velocity": 72,
      "chip": "ym2612"
    },
    {
      "channel": 0,
      "note": 82,
      "start": 4.5535,
      "duration": 0.2659,
      "velocity": 97,
      "chip": "ym2612"
    },
    {
      "channel": 2,
      "note": 42,
      "start": 4.5541,
      "duration": 0.0051,
      "velocity": 72,
      "chip": "ym2612"
    },
    {
      "channel": 1,
      "note": 82,
      "start": 4.562,
      "duration": 0.2579,
      "velocity": 97,
      "chip": "ym2612"
    },
    {
      "channel": 2,
      "note": 42,
      "start": 4.5625,
      "duration": 0.005,
      "velocity": 72,
      "chip": "ym2612"
    },
    {
      "channel": 2,
      "note": 42,
      "start": 4.5706,
      "duration": 0.0062,
      "velocity": 72,
      "chip": "ym2612"
    },
    {
      "channel": 3,
      "note": 66,
      "start": 4.5712,
      "duration": 0.0058,
      "velocity": 97,
      "chip": "ym2612"
    },
    {
      "channel": 4,
      "note": 61,
      "start": 4.5717,
      "duration": 0.0054,
      "velocity": 97,
      "chip": "ym2612"
    },
    {
      "channel": 2,
      "note": 42,
      "start": 4.5785,
      "duration": 0.0047,
      "velocity": 72,
      "chip": "ym2612"
    },
    {
      "channel": 2,
      "note": 42,
      "start": 4.5869,
      "duration": 0.0052,
      "velocity": 72,
      "chip": "ym2612"
    },
    {
      "channel": 2,
      "note": 42,
      "start": 4.5958,
      "duration": 0.0063,
      "velocity": 72,
      "chip": "ym2612"
    },
    {
      "channel": 3,
      "note": 64,
      "start": 4.5963,
      "duration": 0.0059,
      "velocity": 97,
      "chip": "ym2612"
    },
    {
      "channel": 4,
      "note": 59,
      "start": 4.5969,
      "duration": 0.0055,
      "velocity": 97,
      "chip": "ym2612"
    },
    {
      "channel": 2,
      "note": 42,
      "start": 4.6047,
      "duration": 0.005,
      "velocity": 72,
      "chip": "ym2612"
    },
    {
      "channel": 2,
      "note": 42,
      "start": 4.6121,
      "duration": 0.005,
      "velocity": 72,
      "chip": "ym2612"
    },
    {
      "channel": 2,
      "note": 42,
      "start": 4.6208,
      "duration": 0.0061,
      "velocity": 72,
      "chip": "ym2612"
    },
    {
      "channel": 3,
      "note": 66,
      "start": 4.6214,
      "duration": 0.0057,
      "velocity": 97,
      "chip": "ym2612"
    },
    {
      "channel": 4,
      "note": 61,
      "start": 4.6219,
      "duration": 0.0053,
      "velocity": 97,
      "chip": "ym2612"
    },
    {
      "channel": 2,
      "note": 42,
      "start": 4.6295,
      "duration": 0.0052,
      "velocity": 72,
      "chip": "ym2612"
    },
    {
      "channel": 2,
      "note": 42,
      "start": 4.6383,
      "duration": 0.005,
      "velocity": 72,
      "chip": "ym2612"
    },
    {
      "channel": 2,
      "note": 42,
      "start": 4.6457,
      "duration": 0.0062,
      "velocity": 72,
      "chip": "ym2612"
    },
    {
      "channel": 3,
      "note": 63,
      "start": 4.6462,
      "duration": 0.0058,
      "velocity": 97,
      "chip": "ym2612"
    },
    {
      "channel": 4,
      "note": 58,
      "start": 4.6468,
      "duration": 0.0054,
      "velocity": 97,
      "chip": "ym2612"
    },
    {
      "channel": 2,
      "note": 42,
      "start": 4.6545,
      "duration": 0.005,
      "velocity": 72,
      "chip": "ym2612"
    },
    {
      "channel": 2,
      "note": 42,
      "start": 4.6632,
      "duration": 0.0062,
      "velocity": 72,
      "chip": "ym2612"
    },
    {
      "channel": 3,
      "note": 64,
      "start": 4.6637,
      "duration": 0.021,
      "velocity": 97,
      "chip": "ym2612"
    },
    {
      "channel": 4,
      "note": 59,
      "start": 4.6643,
      "duration": 0.0206,
      "velocity": 97,
      "chip": "ym2612"
    },
    {
      "channel": 2,
      "note": 42,
      "start": 4.672,
      "duration": 0.0051,
      "velocity": 72,
      "chip": "ym2612"
    },
    {
      "channel": 2,
      "note": 42,
      "start": 4.6795,
      "duration": 0.0051,
      "velocity": 72,
      "chip": "ym2612"
    },
    {
      "channel": 2,
      "note": 42,
      "start": 4.6884,
      "duration": 0.0053,
      "velocity": 72,
      "chip": "ym2612"
    },
    {
      "channel": 2,
      "note": 42,
      "start": 4.6972,
      "duration": 0.0051,
      "velocity": 72,
      "chip": "ym2612"
    },
    {
      "channel": 2,
      "note": 42,
      "start": 4.7059,
      "duration": 0.0062,
      "velocity": 72,
      "chip": "ym2612"
    },
    {
      "channel": 3,
      "note": 66,
      "start": 4.7065,
      "duration": 0.0058,
      "velocity": 97,
      "chip": "ym2612"
    },
    {
      "channel": 4,
      "note": 61,
      "start": 4.707,
      "duration": 0.0054,
      "velocity": 97,
      "chip": "ym2612"
    },
    {
      "channel": 2,
      "note": 42,
      "start": 4.7163,
      "duration": 0.0049,
      "velocity": 72,
      "chip": "ym2612"
    },
    {
      "channel": 2,
      "note": 42,
      "start": 4.7251,
      "duration": 0.0052,
      "velocity": 72,
      "chip": "ym2612"
    },
    {
      "channel": 2,
      "note": 42,
      "start": 4.7339,
      "duration": 0.0062,
      "velocity": 72,
      "chip": "ym2612"
    },
    {
      "channel": 3,
      "note": 64,
      "start": 4.7345,
      "duration": 0.0059,
      "velocity": 97,
      "chip": "ym2612"
    },
    {
      "channel": 4,
      "note": 59,
      "start": 4.735,
      "duration": 0.0054,
      "velocity": 97,
      "chip": "ym2612"
    },
    {
      "channel": 2,
      "note": 42,
      "start": 4.7428,
      "duration": 0.005,
      "velocity": 72,
      "chip": "ym2612"
    },
    {
      "channel": 2,
      "note": 42,
      "start": 4.7501,
      "duration": 0.005,
      "velocity": 72,
      "chip": "ym2612"
    },
    {
      "channel": 2,
      "note": 42,
      "start": 4.7589,
      "duration": 0.0061,
      "velocity": 72,
      "chip": "ym2612"
    },
    {
      "channel": 3,
      "note": 66,
      "start": 4.7594,
      "duration": 0.0057,
      "velocity": 97,
      "chip": "ym2612"
    },
    {
      "channel": 4,
      "note": 61,
      "start": 4.76,
      "duration": 0.0053,
      "velocity": 97,
      "chip": "ym2612"
    },
    {
      "channel": 2,
      "note": 42,
      "start": 4.7675,
      "duration": 0.0052,
      "velocity": 72,
      "chip": "ym2612"
    },
    {
      "channel": 2,
      "note": 42,
      "start": 4.7764,
      "duration": 0.0065,
      "velocity": 72,
      "chip": "ym2612"
    },
    {
      "channel": 2,
      "note": 42,
      "start": 4.7858,
      "duration": 0.0063,
      "velocity": 72,
      "chip": "ym2612"
    },
    {
      "channel": 3,
      "note": 63,
      "start": 4.7863,
      "duration": 0.0059,
      "velocity": 97,
      "chip": "ym2612"
    },
    {
      "channel": 4,
      "note": 58,
      "start": 4.7869,
      "duration": 0.0054,
      "velocity": 97,
      "chip": "ym2612"
    },
    {
      "channel": 2,
      "note": 42,
      "start": 4.7934,
      "duration": 0.005,
      "velocity": 72,
      "chip": "ym2612"
    },
    {
      "channel": 2,
      "note": 42,
      "start": 4.7994,
      "duration": 0.0076,
      "velocity": 72,
      "chip": "ym2612"
    },
    {
      "channel": 3,
      "note": 64,
      "start": 4.7999,
      "duration": 0.0197,
      "velocity": 97,
      "chip": "ym2612"
    },
    {
      "channel": 4,
      "note": 59,
      "start": 4.8005,
      "duration": 0.0192,
      "velocity": 97,
      "chip": "ym2612"
    },
    {
      "channel": 2,
      "note": 42,
      "start": 4.808,
      "duration": 0.0051,
      "velocity": 72,
      "chip": "ym2612"
    },
    {
      "channel": 2,
      "note": 42,
      "start": 4.8142,
      "duration": 0.0052,
      "velocity": 72,
      "chip": "ym2612"
    },
    {
      "channel": 0,
      "note": 80,
      "start": 4.8234,
      "duration": 0.0359,
      "velocity": 97,
      "chip": "ym2612"
    },
    {
      "channel": 1,
      "note": 83,
      "start": 4.8241,
      "duration": 0.0354,
      "velocity": 97,
      "chip": "ym2612"
    },
    {
      "channel": 2,
      "note": 47,
      "start": 4.8246,
      "duration": 0.0081,
      "velocity": 72,
      "chip": "ym2612"
    },
    {
      "channel": 3,
      "note": 78,
      "start": 4.826,
      "duration": 0.0069,
      "velocity": 97,
      "chip": "ym2612"
    },
    {
      "channel": 4,
      "note": 78,
      "start": 4.831,
      "duration": 0.0071,
      "velocity": 97,
      "chip": "ym2612"
    },
    {
      "channel": 2,
      "note": 47,
      "start": 4.8352,
      "duration": 0.0061,
      "velocity": 72,
      "chip": "ym2612"
    },
    {
      "channel": 3,
      "note": 83,
      "start": 4.8357,
      "duration": 0.0058,
      "velocity": 97,
      "chip": "ym2612"
    },
    {
      "channel": 4,
      "note": 83,
      "start": 4.8397,
      "duration": 0.0071,
      "velocity": 97,
      "chip": "ym2612"
    },
    {
      "channel": 2,
      "note": 47,
      "start": 4.8439,
      "duration": 0.0062,
      "velocity": 72,
      "chip": "ym2612"
    },
    {
      "channel": 3,
      "note": 87,
      "start": 4.8444,
      "duration": 0.0058,
      "velocity": 97,
      "chip": "ym2612"
    },
    {
      "channel": 4,
      "note": 87,
      "start": 4.8483,
      "duration": 0.0087,
      "velocity": 97,
      "chip": "ym2612"
    },
    {
      "channel": 2,
      "note": 47,
      "start": 4.8541,
      "duration": 0.0062,
      "velocity": 72,
      "chip": "ym2612"
    },
    {
      "channel": 3,
      "note": 90,
      "start": 4.8546,
      "duration": 0.0058,
      "velocity": 97,
      "chip": "ym2612"
    },
    {
      "channel": 4,
      "note": 90,
      "start": 4.8586,
      "duration": 0.0079,
      "velocity": 97,
      "chip": "ym2612"
    },
    {
      "channel": 0,
      "note": 82,
      "start": 4.8624,
      "duration": 0.0151,
      "velocity": 97,
      "chip": "ym2612"
    },
    {
      "channel": 1,
      "note": 78,
      "start": 4.863,
      "duration": 0.0174,
      "velocity": 97,
      "chip": "ym2612"
    },
    {
      "channel": 2,
      "note": 47,
      "start": 4.8635,
      "duration": 0.0063,
      "velocity": 72,
      "chip": "ym2612"
    },
    {
      "channel": 3,
      "note": 95,
      "start": 4.8641,
      "duration": 0.0058,
      "velocity": 97,
      "chip": "ym2612"
    },
    {
      "channel": 4,
      "note": 95,
      "start": 4.868,
      "duration": 0.0061,
      "velocity": 97,
      "chip": "ym2612"
    },
    {
      "channel": 2,
      "note": 47,
      "start": 4.8712,
      "duration": 0.0063,
      "velocity": 72,
      "chip": "ym2612"
    },
    {
      "channel": 3,
      "note": 99,
      "start": 4.8718,
      "duration": 0.0059,
      "velocity": 97,
      "chip": "ym2612"
    },
    {
      "channel": 4,
      "note": 99,
      "start": 4.8757,
      "duration": 0.0083,
      "velocity": 97,
      "chip": "ym2612"
    },
    {
      "channel": 0,
      "note": 83,
      "start": 4.8798,
      "duration": 0.0318,
      "velocity": 97,
      "chip": "ym2612"
    },
    {
      "channel": 1,
      "note": 80,
      "start": 4.8804,
      "duration": 0.0313,
      "velocity": 97,
      "chip": "ym2612"
    },
    {
      "channel": 2,
      "note": 47,
      "start": 4.881,
      "duration": 0.0063,
      "velocity": 72,
      "chip": "ym2612"
    },
    {
      "channel": 3,
      "note": 102,
      "start": 4.8815,
      "duration": 0.0058,
      "velocity": 97,
      "chip": "ym2612"
    },
    {
      "channel": 4,
      "note": 102,
      "start": 4.8855,
      "duration": 0.0073,
      "velocity": 97,
      "chip": "ym2612"
    },
    {
      "channel": 2,
      "note": 47,
      "start": 4.89,
      "duration": 0.0062,
      "velocity": 72,
      "chip": "ym2612"
    },
    {
      "channel": 3,
      "note": 107,
      "start": 4.8905,
      "duration": 0.0058,
      "velocity": 97,
      "chip": "ym2612"
    },
    {
      "channel": 4,
      "note": 107,
      "start": 4.8944,
      "duration": 0.007,
      "velocity": 97,
      "chip": "ym2612"
    },
    {
      "channel": 2,
      "note": 47,
      "start": 4.8985,
      "duration": 0.0058,
      "velocity": 72,
      "chip": "ym2612"
    },
    {
      "channel": 3,
      "note": 111,
      "start": 4.8991,
      "duration": 0.0054,
      "velocity": 97,
      "chip": "ym2612"
    },
    {
      "channel": 4,
      "note": 111,
      "start": 4.9025,
      "duration": 0.0072,
      "velocity": 97,
      "chip": "ym2612"
    },
    {
      "channel": 2,
      "note": 47,
      "start": 4.9068,
      "duration": 0.0057,
      "velocity": 72,
      "chip": "ym2612"
    },
    {
      "channel": 3,
      "note": 114,
      "start": 4.9073,
      "duration": 0.0052,
      "velocity": 97,
      "chip": "ym2612"
    },
    {
      "channel": 4,
      "note": 114,
      "start": 4.9107,
      "duration": 0.0079,
      "velocity": 97,
      "chip": "ym2612"
    },
    {
      "channel": 0,
      "note": 78,
      "start": 4.9146,
      "duration": 0.0164,
      "velocity": 97,
      "chip": "ym2612"
    },
    {
      "channel": 1,
      "note": 82,
      "start": 4.9152,
      "duration": 0.0187,
      "velocity": 97,
      "chip": "ym2612"
    },
    {
      "channel": 2,
      "note": 47,
      "start": 4.9157,
      "duration": 0.0061,
      "velocity": 72,
      "chip": "ym2612"
    },
    {
      "channel": 3,
      "note": 111,
      "start": 4.9163,
      "duration": 0.0057,
      "velocity": 97,
      "chip": "ym2612"
    },
    {
      "channel": 4,
      "note": 111,
      "start": 4.9202,
      "duration": 0.0075,
      "velocity": 97,
      "chip": "ym2612"
    },
    {
      "channel": 2,
      "note": 47,
      "start": 4.9248,
      "duration": 0.0063,
      "velocity": 72,
      "chip": "ym2612"
    },
    {
      "channel": 3,
      "note": 107,
      "start": 4.9254,
      "duration": 0.0059,
      "velocity": 97,
      "chip": "ym2612"
    },
    {
      "channel": 4,
      "note": 107,
      "start": 4.9293,
      "duration": 0.0081,
      "velocity": 97,
      "chip": "ym2612"
    },
    {
      "channel": 0,
      "note": 76,
      "start": 4.9334,
      "duration": 0.0145,
      "velocity": 97,
      "chip": "ym2612"
    },
    {
      "channel": 1,
      "note": 80,
      "start": 4.934,
      "duration": 0.0168,
      "velocity": 97,
      "chip": "ym2612"
    },
    {
      "channel": 2,
      "note": 47,
      "start": 4.9345,
      "duration": 0.0059,
      "velocity": 72,
      "chip": "ym2612"
    },
    {
      "channel": 3,
      "note": 102,
      "start": 4.935,
      "duration": 0.0055,
      "velocity": 97,
      "chip": "ym2612"
    },
    {
      "channel": 4,
      "note": 102,
      "start": 4.9385,
      "duration": 0.0061,
      "velocity": 97,
      "chip": "ym2612"
    },
    {
      "channel": 2,
      "note": 47,
      "start": 4.942,
      "duration": 0.006,
      "velocity": 72,
      "chip": "ym2612"
    },
    {
      "channel": 3,
      "note": 99,
      "start": 4.9425,
      "duration": 0.0056,
      "velocity": 97,
      "chip": "ym2612"
    },
    {
      "channel": 4,
      "note": 99,
      "start": 4.9462,
      "duration": 0.0081,
      "velocity": 97,
      "chip": "ym2612"
    },
    {
      "channel": 0,
      "note": 78,
      "start": 4.9502,
      "duration": 0.0156,
      "velocity": 97,
      "chip": "ym2612"
    },
    {
      "channel": 1,
      "note": 82,
      "start": 4.9508,
      "duration": 0.0181,
      "velocity": 97,
      "chip": "ym2612"
    },
    {
      "channel": 2,
      "note": 47,
      "start": 4.9513,
      "duration": 0.0059,
      "velocity": 72,
      "chip": "ym2612"
    },
    {
      "channel": 3,
      "note": 95,
      "start": 4.9519,
      "duration": 0.0055,
      "velocity": 97,
      "chip": "ym2612"
    },
    {
      "channel": 4,
      "note": 95,
      "start": 4.9554,
      "duration": 0.0074,
      "velocity": 97,
      "chip": "ym2612"
    },
    {
      "channel": 2,
      "note": 47,
      "start": 4.9601,
      "duration": 0.0059,
      "velocity": 72,
      "chip": "ym2612"
    },
    {
      "channel": 3,
      "note": 90,
      "start": 4.9606,
      "duration": 0.0055,
      "velocity": 97,
      "chip": "ym2612"
    },
    {
      "channel": 4,
      "note": 90,
      "start": 4.964,
      "duration": 0.0086,
      "velocity": 97,
      "chip": "ym2612"
    },
    {
      "channel": 0,
      "note": 80,
      "start": 4.9684,
      "duration": 0.0344,
      "velocity": 97,
      "chip": "ym2612"
    },
    {
      "channel": 1,
      "note": 83,
      "start": 4.969,
      "duration": 0.0339,
      "velocity": 97,
      "chip": "ym2612"
    },
    {
      "channel": 2,
      "note": 47,
      "start": 4.9696,
      "duration": 0.0064,
      "velocity": 72,
      "chip": "ym2612"
    },
    {
      "channel": 3,
      "note": 78,
      "start": 4.9702,
      "duration": 0.0059,
      "velocity": 97,
      "chip": "ym2612"
    },
    {
      "channel": 4,
      "note": 78,
      "start": 4.9742,
      "duration": 0.0085,
      "velocity": 97,
      "chip": "ym2612"
    },
    {
      "channel": 2,
      "note": 47,
      "start": 4.9799,
      "duration": 0.0057,
      "velocity": 72,
      "chip": "ym2612"
    },
    {
      "channel": 3,
      "note": 83,
      "start": 4.9804,
      "duration": 0.0053,
      "velocity": 97,
      "chip": "ym2612"
    },
    {
      "channel": 4,
      "note": 83,
      "start": 4.9838,
      "duration": 0.007,
      "velocity": 97,
      "chip": "ym2612"
    },
    {
      "channel": 2,
      "note": 47,
      "start": 4.988,
      "duration": 0.0059,
      "velocity": 72,
      "chip": "ym2612"
    },
    {
      "channel": 3,
      "note": 87,
      "start": 4.9886,
      "duration": 0.0055,
      "velocity": 97,
      "chip": "ym2612"
    },
    {
      "channel": 4,
      "note": 87,
      "start": 4.9922,
      "duration": 0.0086,
      "velocity": 97,
      "chip": "ym2612"
    },
    {
      "channel": 2,
      "note": 47,
      "start": 4.998,
      "duration": 0.0056,
      "velocity": 72,
      "chip": "ym2612"
    },
    {
      "channel": 3,
      "note": 90,
      "start": 4.9985,
      "duration": 0.0052,
      "velocity": 97,
      "chip": "ym2612"
    },
    {
      "channel": 4,
      "note": 90,
      "start": 5.002,
      "duration": 0.0079,
      "velocity": 97,
      "chip": "ym2612"
    },
    {
      "channel": 0,
      "note": 78,
      "start": 5.0058,
      "duration": 0.0139,
      "velocity": 97,
      "chip": "ym2612"
    },
    {
      "channel": 1,
      "note": 82,
      "start": 5.0064,
      "duration": 0.0134,
      "velocity": 97,
      "chip": "ym2612"
    },
    {
      "channel": 2,
      "note": 47,
      "start": 5.0069,
      "duration": 0.0059,
      "velocity": 72,
      "chip": "ym2612"
    },
    {
      "channel": 3,
      "note": 95,
      "start": 5.0074,
      "duration": 0.0054,
      "velocity": 97,
      "chip": "ym2612"
    },
    {
      "channel": 4,
      "note": 95,
      "start": 5.011,
      "duration": 0.0057,
      "velocity": 97,
      "chip": "ym2612"
    },
    {
      "channel": 2,
      "note": 47,
      "start": 5.0139,
      "duration": 0.006,
      "velocity": 72,
      "chip": "ym2612"
    },
    {
      "channel": 3,
      "note": 99,
      "start": 5.0144,
      "duration": 0.0056,
      "velocity": 97,
      "chip": "ym2612"
    },
    {
      "channel": 4,
      "note": 99,
      "start": 5.0178,
      "duration": 0.0082,
      "velocity": 97,
      "chip": "ym2612"
    },
    {
      "channel": 0,
      "note": 80,
      "start": 5.0222,
      "duration": 0.0319,
      "velocity": 97,
      "chip": "ym2612"
    },
    {
      "channel": 1,
      "note": 83,
      "start": 5.0227,
      "duration": 0.0315,
      "velocity": 97,
      "chip": "ym2612"
    },
    {
      "channel": 2,
      "note": 47,
      "start": 5.0232,
      "duration": 0.0058,
      "velocity": 72,
      "chip": "ym2612"
    },
    {
      "channel": 3,
      "note": 102,
      "start": 5.0238,
      "duration": 0.0054,
      "velocity": 97,
      "chip": "ym2612"
    },
    {
      "channel": 4,
      "note": 102,
      "start": 5.0271,
      "duration": 0.0077,
      "velocity": 97,
      "chip": "ym2612"
    },
    {
      "channel": 2,
      "note": 47,
      "start": 5.032,
      "duration": 0.0062,
      "velocity": 72,
      "chip": "ym2612"
    },
    {
      "channel": 3,
      "note": 107,
      "start": 5.0325,
      "duration": 0.0057,
      "velocity": 97,
      "chip": "ym2612"
    },
    {
      "channel": 4,
      "note": 107,
      "start": 5.0364,
      "duration": 0.0069,
      "velocity": 97,
      "chip": "ym2612"
    },
    {
      "channel": 2,
      "note": 47,
      "start": 5.0405,
      "duration": 0.0061,
      "velocity": 72,
      "chip": "ym2612"
    },
    {
      "channel": 3,
      "note": 111,
      "start": 5.0411,
      "duration": 0.0056,
      "velocity": 97,
      "chip": "ym2612"
    },
    {
      "channel": 4,
      "note": 111,
      "start": 5.0448,
      "duration": 0.0069,
      "velocity": 97,
      "chip": "ym2612"
    },
    {
      "channel": 2,
      "note": 47,
      "start": 5.0489,
      "duration": 0.0059,
      "velocity": 72,
      "chip": "ym2612"
    },
    {
      "channel": 3,
      "note": 114,
      "start": 5.0495,
      "duration": 0.0055,
      "velocity": 97,
      "chip": "ym2612"
    },
    {
      "channel": 4,
      "note": 114,
      "start": 5.0529,
      "duration": 0.0081,
      "velocity": 97,
      "chip": "ym2612"
    },
    {
      "channel": 0,
      "note": 78,
      "start": 5.057,
      "duration": 0.0161,
      "velocity": 97,
      "chip": "ym2612"
    },
    {
      "channel": 1,
      "note": 82,
      "start": 5.0576,
      "duration": 0.0156,
      "velocity": 97,
      "chip": "ym2612"
    },
    {
      "channel": 2,
      "note": 47,
      "start": 5.0581,
      "duration": 0.0059,
      "velocity": 72,
      "chip": "ym2612"
    },
    {
      "channel": 3,
      "note": 111,
      "start": 5.0587,
      "duration": 0.0054,
      "velocity": 97,
      "chip": "ym2612"
    },
    {
      "channel": 4,
      "note": 111,
      "start": 5.0621,
      "duration": 0.0077,
      "velocity": 97,
      "chip": "ym2612"
    },
    {
      "channel": 2,
      "note": 47,
      "start": 5.0669,
      "duration": 0.0064,
      "velocity": 72,
      "chip": "ym2612"
    },
    {
      "channel": 3,
      "note": 107,
      "start": 5.0675,
      "duration": 0.006,
      "velocity": 97,
      "chip": "ym2612"
    },
    {
      "channel": 4,
      "note": 107,
      "start": 5.0714,
      "duration": 0.008,
      "velocity": 97,
      "chip": "ym2612"
    },
    {
      "channel": 0,
      "note": 76,
      "start": 5.0754,
      "duration": 0.0148,
      "velocity": 97,
      "chip": "ym2612"
    },
    {
      "channel": 1,
      "note": 80,
      "start": 5.076,
      "duration": 0.0143,
      "velocity": 97,
      "chip": "ym2612"
    },
    {
      "channel": 2,
      "note": 47,
      "start": 5.0765,
      "duration": 0.0061,
      "velocity": 72,
      "chip": "ym2612"
    },
    {
      "channel": 3,
      "note": 102,
      "start": 5.0771,
      "duration": 0.0057,
      "velocity": 97,
      "chip": "ym2612"
    },
    {
      "channel": 4,
      "note": 102,
      "start": 5.081,
      "duration": 0.006,
      "velocity": 97,
      "chip": "ym2612"
    },
    {
      "channel": 2,
      "note": 47,
      "start": 5.0841,
      "duration": 0.0063,
      "velocity": 72,
      "chip": "ym2612"
    },
    {
      "channel": 3,
      "note": 99,
      "start": 5.0847,
      "duration": 0.0059,
      "velocity": 97,
      "chip": "ym2612"
    },
    {
      "channel": 4,
      "note": 99,
      "start": 5.0884,
      "duration": 0.0081,
      "velocity": 97,
      "chip": "ym2612"
    },
    {
      "channel": 0,
      "note": 78,
      "start": 5.0925,
      "duration": 0.016,
      "velocity": 97,
      "chip": "ym2612"
    },
    {
      "channel": 1,
      "note": 82,
      "start": 5.0931,
      "duration": 0.0155,
      "velocity": 97,
      "chip": "ym2612"
    },
    {
      "channel": 2,
      "note": 47,
      "start": 5.0936,
      "duration": 0.0061,
      "velocity": 72,
      "chip": "ym2612"
    },
    {
      "channel": 3,
      "note": 95,
      "start": 5.0942,
      "duration": 0.0057,
      "velocity": 97,
      "chip": "ym2612"
    },
    {
      "channel": 4,
      "note": 95,
      "start": 5.098,
      "duration": 0.0073,
      "velocity": 97,
      "chip": "ym2612"
    },
    {
      "channel": 2,
      "note": 47,
      "start": 5.1026,
      "duration": 0.0062,
      "velocity": 72,
      "chip": "ym2612"
    },
    {
      "channel": 3,
      "note": 90,
      "start": 5.1031,
      "duration": 0.0058,
      "velocity": 97,
      "chip": "ym2612"
    },
    {
      "channel": 4,
      "note": 90,
      "start": 5.1067,
      "duration": 0.0085,
      "velocity": 97,
      "chip": "ym2612"
    },
    {
      "channel": 0,
      "note": 76,
      "start": 5.111,
      "duration": 0.1399,
      "velocity": 97,
      "chip": "ym2612"
    },
    {
      "channel": 1,
      "note": 80,
      "start": 5.1116,
      "duration": 0.1394,
      "velocity": 97,
      "chip": "ym2612"
    },
    {
      "channel": 2,
      "note": 46,
      "start": 5.1122,
      "duration": 0.0064,
      "velocity": 72,
      "chip": "ym2612"
    },
    {
      "channel": 3,
      "note": 78,
      "start": 5.1127,
      "duration": 0.006,
      "velocity": 97,
      "chip": "ym2612"
    },
    {
      "channel": 4,
      "note": 78,
      "start": 5.1168,
      "duration": 0.0084,
      "velocity": 97,
      "chip": "ym2612"
    },
    {
      "channel": 2,
      "note": 46,
      "start": 5.1225,
      "duration": 0.0059,
      "velocity": 72,
      "chip": "ym2612"
    },
    {
      "channel": 3,
      "note": 82,
      "start": 5.123,
      "duration": 0.0055,
      "velocity": 97,
      "chip": "ym2612"
    },
    {
      "channel": 4,
      "note": 82,
      "start": 5.1267,
      "duration": 0.007,
      "velocity": 97,
      "chip": "ym2612"
    },
    {
      "channel": 2,
      "note": 46,
      "start": 5.1309,
      "duration": 0.0059,
      "velocity": 72,
      "chip": "ym2612"
    },
    {
      "channel": 3,
      "note": 85,
      "start": 5.1315,
      "duration": 0.0055,
      "velocity": 97,
      "chip": "ym2612"
    },
    {
      "channel": 4,
      "note": 85,
      "start": 5.1351,
      "duration": 0.0086,
      "velocity": 97,
      "chip": "ym2612"
    },
    {
      "channel": 2,
      "note": 46,
      "start": 5.1409,
      "duration": 0.0056,
      "velocity": 72,
      "chip": "ym2612"
    },
    {
      "channel": 3,
      "note": 90,
      "start": 5.1414,
      "duration": 0.0053,
      "velocity": 97,
      "chip": "ym2612"
    },
    {
      "channel": 4,
      "note": 90,
      "start": 5.1448,
      "duration": 0.007,
      "velocity": 97,
      "chip": "ym2612"
    },
    {
      "channel": 2,
      "note": 46,
      "start": 5.149,
      "duration": 0.0057,
      "velocity": 72,
      "chip": "ym2612"
    },
    {
      "channel": 3,
      "note": 94,
      "start": 5.1496,
      "duration": 0.0053,
      "velocity": 97,
      "chip": "ym2612"
    },
    {
      "channel": 4,
      "note": 94,
      "start": 5.153,
      "duration": 0.0071,
      "velocity": 97,
      "chip": "ym2612"
    },
    {
      "channel": 2,
      "note": 46,
      "start": 5.1572,
      "duration": 0.0057,
      "velocity": 72,
      "chip": "ym2612"
    },
    {
      "channel": 3,
      "note": 97,
      "start": 5.1577,
      "duration": 0.0053,
      "velocity": 97,
      "chip": "ym2612"
    },
    {
      "channel": 4,
      "note": 97,
      "start": 5.1612,
      "duration": 0.0071,
      "velocity": 97,
      "chip": "ym2612"
    },
    {
      "channel": 2,
      "note": 46,
      "start": 5.1654,
      "duration": 0.0059,
      "velocity": 72,
      "chip": "ym2612"
    },
    {
      "channel": 3,
      "note": 102,
      "start": 5.1659,
      "duration": 0.0055,
      "velocity": 97,
      "chip": "ym2612"
    },
    {
      "channel": 4,
      "note": 102,
      "start": 5.1694,
      "duration": 0.0088,
      "velocity": 97,
      "chip": "ym2612"
    },
    {
      "channel": 2,
      "note": 46,
      "start": 5.1753,
      "duration": 0.0061,
      "velocity": 72,
      "chip": "ym2612"
    },
    {
      "channel": 3,
      "note": 106,
      "start": 5.1759,
      "duration": 0.0056,
      "velocity": 97,
      "chip": "ym2612"
    },
    {
      "channel": 4,
      "note": 106,
      "start": 5.1797,
      "duration": 0.007,
      "velocity": 97,
      "chip": "ym2612"
    },
    {
      "channel": 2,
      "note": 46,
      "start": 5.1839,
      "duration": 0.0062,
      "velocity": 72,
      "chip": "ym2612"
    },
    {
      "channel": 3,
      "note": 109,
      "start": 5.1844,
      "duration": 0.0058,
      "velocity": 97,
      "chip": "ym2612"
    },
    {
      "channel": 4,
      "note": 109,
      "start": 5.1883,
      "duration": 0.0069,
      "velocity": 97,
      "chip": "ym2612"
    },
    {
      "channel": 2,
      "note": 46,
      "start": 5.1924,
      "duration": 0.0059,
      "velocity": 72,
      "chip": "ym2612"
    },
    {
      "channel": 3,
      "note": 106,
      "start": 5.193,
      "duration": 0.0055,
      "velocity": 97,
      "chip": "ym2612"
    },
    {
      "channel": 4,
      "note": 106,
      "start": 5.1966,
      "duration": 0.0071,
      "velocity": 97,
      "chip": "ym2612"
    },
    {
      "channel": 2,
      "note": 46,
      "start": 5.2009,
      "duration": 0.0057,
      "velocity": 72,
      "chip": "ym2612"
    },
    {
      "channel": 3,
      "note": 102,
      "start": 5.2014,
      "duration": 0.0053,
      "velocity": 97,
      "chip": "ym2612"
    },
    {
      "channel": 4,
      "note": 102,
      "start": 5.2048,
      "duration": 0.0087,
      "velocity": 97,
      "chip": "ym2612"
    },
    {
      "channel": 2,
      "note": 46,
      "start": 5.2106,
      "duration": 0.0057,
      "velocity": 72,
      "chip": "ym2612"
    },
    {
      "channel": 3,
      "note": 97,
      "start": 5.2111,
      "duration": 0.0053,
      "velocity": 97,
      "chip": "ym2612"
    },
    {
      "channel": 4,
      "note": 97,
      "start": 5.2145,
      "duration": 0.0071,
      "velocity": 97,
      "chip": "ym2612"
    },
    {
      "channel": 2,
      "note": 46,
      "start": 5.2188,
      "duration": 0.0057,
      "velocity": 72,
      "chip": "ym2612"
    },
    {
      "channel": 3,
      "note": 94,
      "start": 5.2193,
      "duration": 0.0053,
      "velocity": 97,
      "chip": "ym2612"
    },
    {
      "channel": 4,
      "note": 94,
      "start": 5.2227,
      "duration": 0.007,
      "velocity": 97,
      "chip": "ym2612"
    },
    {
      "channel": 2,
      "note": 46,
      "start": 5.2269,
      "duration": 0.0059,
      "velocity": 72,
      "chip": "ym2612"
    },
    {
      "channel": 3,
      "note": 90,
      "start": 5.2275,
      "duration": 0.0055,
      "velocity": 97,
      "chip": "ym2612"
    },
    {
      "channel": 4,
      "note": 90,
      "start": 5.2311,
      "duration": 0.0071,
      "velocity": 97,
      "chip": "ym2612"
    },
    {
      "channel": 2,
      "note": 46,
      "start": 5.2354,
      "duration": 0.0056,
      "velocity": 72,
      "chip": "ym2612"
    },
    {
      "channel": 3,
      "note": 85,
      "start": 5.2359,
      "duration": 0.0053,
      "velocity": 97,
      "chip": "ym2612"
    },
    {
      "channel": 4,
      "note": 85,
      "start": 5.2393,
      "duration": 0.0086,
      "velocity": 97,
      "chip": "ym2612"
    },
    {
      "channel": 2,
      "note": 46,
      "start": 5.2451,
      "duration": 0.0061,
      "velocity": 72,
      "chip": "ym2612"
    },
    {
      "channel": 3,
      "note": 82,
      "start": 5.2456,
      "duration": 0.0056,
      "velocity": 97,
      "chip": "ym2612"
    },
    {
      "channel": 4,
      "note": 82,
      "start": 5.249,
      "duration": 0.0084,
      "velocity": 97,
      "chip": "ym2612"
    },
    {
      "channel": 0,
      "note": 73,
      "start": 5.2534,
      "duration": 0.1403,
      "velocity": 97,
      "chip": "ym2612"
    },
    {
      "channel": 1,
      "note": 78,
      "start": 5.2539,
      "duration": 0.1399,
      "velocity": 97,
      "chip": "ym2612"
    },
    {
      "channel": 2,
      "note": 46,
      "start": 5.2545,
      "duration": 0.0061,
      "velocity": 72,
      "chip": "ym2612"
    },
    {
      "channel": 3,
      "note": 78,
      "start": 5.2551,
      "duration": 0.0057,
      "velocity": 97,
      "chip": "ym2612"
    },
    {
      "channel": 4,
      "note": 78,
      "start": 5.2589,
      "duration": 0.0086,
      "velocity": 97,
      "chip": "ym2612"
    },
    {
      "channel": 2,
      "note": 46,
      "start": 5.2647,
      "duration": 0.0057,
      "velocity": 72,
      "chip": "ym2612"
    },
    {
      "channel": 3,
      "note": 82,
      "start": 5.2652,
      "duration": 0.0054,
      "velocity": 97,
      "chip": "ym2612"
    },
    {
      "channel": 4,
      "note": 82,
      "start": 5.2686,
      "duration": 0.0071,
      "velocity": 97,
      "chip": "ym2612"
    },
    {
      "channel": 2,
      "note": 46,
      "start": 5.2729,
      "duration": 0.0057,
      "velocity": 72,
      "chip": "ym2612"
    },
    {
      "channel": 3,
      "note": 85,
      "start": 5.2735,
      "duration": 0.0054,
      "velocity": 97,
      "chip": "ym2612"
    },
    {
      "channel": 4,
      "note": 85,
      "start": 5.2769,
      "duration": 0.0087,
      "velocity": 97,
      "chip": "ym2612"
    },
    {
      "channel": 2,
      "note": 46,
      "start": 5.2827,
      "duration": 0.0058,
      "velocity": 72,
      "chip": "ym2612"
    },
    {
      "channel": 3,
      "note": 90,
      "start": 5.2833,
      "duration": 0.0054,
      "velocity": 97,
      "chip": "ym2612"
    },
    {
      "channel": 4,
      "note": 90,
      "start": 5.2867,
      "duration": 0.0072,
      "velocity": 97,
      "chip": "ym2612"
    },
    {
      "channel": 2,
      "note": 46,
      "start": 5.291,
      "duration": 0.0058,
      "velocity": 72,
      "chip": "ym2612"
    },
    {
      "channel": 3,
      "note": 94,
      "start": 5.2915,
      "duration": 0.0054,
      "velocity": 97,
      "chip": "ym2612"
    },
    {
      "channel": 4,
      "note": 94,
      "start": 5.2949,
      "duration": 0.0072,
      "velocity": 97,
      "chip": "ym2612"
    },
    {
      "channel": 2,
      "note": 46,
      "start": 5.2993,
      "duration": 0.0058,
      "velocity": 72,
      "chip": "ym2612"
    },
    {
      "channel": 3,
      "note": 97,
      "start": 5.2998,
      "duration": 0.0054,
      "velocity": 97,
      "chip": "ym2612"
    },
    {
      "channel": 4,
      "note": 97,
      "start": 5.3032,
      "duration": 0.0073,
      "velocity": 97,
      "chip": "ym2612"
    },
    {
      "channel": 2,
      "note": 46,
      "start": 5.3075,
      "duration": 0.0062,
      "velocity": 72,
      "chip": "ym2612"
    },
    {
      "channel": 3,
      "note": 102,
      "start": 5.308,
      "duration": 0.0058,
      "velocity": 97,
      "chip": "ym2612"
    },
    {
      "channel": 4,
      "note": 102,
      "start": 5.312,
      "duration": 0.0085,
      "velocity": 97,
      "chip": "ym2612"
    },
    {
      "channel": 2,
      "note": 46,
      "start": 5.3176,
      "duration": 0.0062,
      "velocity": 72,
      "chip": "ym2612"
    },
    {
      "channel": 3,
      "note": 106,
      "start": 5.3182,
      "duration": 0.0058,
      "velocity": 97,
      "chip": "ym2612"
    },
    {
      "channel": 4,
      "note": 106,
      "start": 5.3221,
      "duration": 0.007,
      "velocity": 97,
      "chip": "ym2612"
    },
    {
      "channel": 2,
      "note": 46,
      "start": 5.3262,
      "duration": 0.0058,
      "velocity": 72,
      "chip": "ym2612"
    },
    {
      "channel": 3,
      "note": 109,
      "start": 5.3268,
      "duration": 0.0054,
      "velocity": 97,
      "chip": "ym2612"
    },
    {
      "channel": 4,
      "note": 109,
      "start": 5.3302,
      "duration": 0.0071,
      "velocity": 97,
      "chip": "ym2612"
    },
    {
      "channel": 2,
      "note": 46,
      "start": 5.3345,
      "duration": 0.0057,
      "velocity": 72,
      "chip": "ym2612"
    },
    {
      "channel": 3,
      "note": 106,
      "start": 5.3351,
      "duration": 0.0053,
      "velocity": 97,
      "chip": "ym2612"
    },
    {
      "channel": 4,
      "note": 106,
      "start": 5.3383,
      "duration": 0.0073,
      "velocity": 97,
      "chip": "ym2612"
    },
    {
      "channel": 2,
      "note": 46,
      "start": 5.3427,
      "duration": 0.0062,
      "velocity": 72,
      "chip": "ym2612"
    },
    {
      "channel": 3,
      "note": 102,
      "start": 5.3432,
      "duration": 0.0058,
      "velocity": 97,
      "chip": "ym2612"
    },
    {
      "channel": 4,
      "note": 102,
      "start": 5.3471,
      "duration": 0.0085,
      "velocity": 97,
      "chip": "ym2612"
    },
    {
      "channel": 2,
      "note": 46,
      "start": 5.3528,
      "duration": 0.0062,
      "velocity": 72,
      "chip": "ym2612"
    },
    {
      "channel": 3,
      "note": 97,
      "start": 5.3533,
      "duration": 0.0058,
      "velocity": 97,
      "chip": "ym2612"
    },
    {
      "channel": 4,
      "note": 97,
      "start": 5.3572,
      "duration": 0.0069,
      "velocity": 97,
      "chip": "ym2612"
    },
    {
      "channel": 2,
      "note": 46,
      "start": 5.3613,
      "duration": 0.006,
      "velocity": 72,
      "chip": "ym2612"
    },
    {
      "channel": 3,
      "note": 94,
      "start": 5.3619,
      "duration": 0.0055,
      "velocity": 97,
      "chip": "ym2612"
    },
    {
      "channel": 4,
      "note": 94,
      "start": 5.3655,
      "duration": 0.007,
      "velocity": 97,
      "chip": "ym2612"
    },
    {
      "channel": 2,
      "note": 46,
      "start": 5.3698,
      "duration": 0.0059,
      "velocity": 72,
      "chip": "ym2612"
    },
    {
      "channel": 3,
      "note": 90,
      "start": 5.3703,
      "duration": 0.0055,
      "velocity": 97,
      "chip": "ym2612"
    },
    {
      "channel": 4,
      "note": 90,
      "start": 5.3739,
      "duration": 0.0071,
      "velocity": 97,
      "chip": "ym2612"
    },
    {
      "channel": 2,
      "note": 46,
      "start": 5.3782,
      "duration": 0.0056,
      "velocity": 72,
      "chip": "ym2612"
    },
    {
      "channel": 3,
      "note": 85,
      "start": 5.3787,
      "duration": 0.0053,
      "velocity": 97,
      "chip": "ym2612"
    },
    {
      "channel": 4,
      "note": 85,
      "start": 5.3821,
      "duration": 0.0086,
      "velocity": 97,
      "chip": "ym2612"
    },
    {
      "channel": 2,
      "note": 46,
      "start": 5.3879,
      "duration": 0.0061,
      "velocity": 72,
      "chip": "ym2612"
    },
    {
      "channel": 3,
      "note": 82,
      "start": 5.3884,
      "duration": 0.0056,
      "velocity": 97,
      "chip": "ym2612"
    },
    {
      "channel": 4,
      "note": 82,
      "start": 5.3919,
      "duration": 0.01,
      "velocity": 97,
      "chip": "ym2612"
    },
    {
      "channel": 0,
      "note": 76,
      "start": 5.3978,
      "duration": 0.0341,
      "velocity": 97,
      "chip": "ym2612"
    },
    {
      "channel": 1,
      "note": 80,
      "start": 5.3983,
      "duration": 0.0336,
      "velocity": 97,
      "chip": "ym2612"
    },
    {
      "channel": 2,
      "note": 44,
      "start": 5.3989,
      "duration": 0.0062,
      "velocity": 72,
      "chip": "ym2612"
    },
    {
      "channel": 3,
      "note": 76,
      "start": 5.3995,
      "duration": 0.0057,
      "velocity": 97,
      "chip": "ym2612"
    },
    {
      "channel": 4,
      "note": 76,
      "start": 5.4033,
      "duration": 0.0087,
      "velocity": 97,
      "chip": "ym2612"
    },
    {
      "channel": 2,
      "note": 44,
      "start": 5.4092,
      "duration": 0.0057,
      "velocity": 72,
      "chip": "ym2612"
    },
    {
      "channel": 3,
      "note": 80,
      "start": 5.4097,
      "duration": 0.0053,
      "velocity": 97,
      "chip": "ym2612"
    },
    {
      "channel": 4,
      "note": 80,
      "start": 5.4131,
      "duration": 0.0071,
      "velocity": 97,
      "chip": "ym2612"
    },
    {
      "channel": 2,
      "note": 44,
      "start": 5.4173,
      "duration": 0.0057,
      "velocity": 72,
      "chip": "ym2612"
    },
    {
      "channel": 3,
      "note": 83,
      "start": 5.4179,
      "duration": 0.0053,
      "velocity": 97,
      "chip": "ym2612"
    },
    {
      "channel": 4,
      "note": 83,
      "start": 5.4213,
      "duration": 0.0086,
      "velocity": 97,
      "chip": "ym2612"
    },
    {
      "channel": 2,
      "note": 44,
      "start": 5.4271,
      "duration": 0.0056,
      "velocity": 72,
      "chip": "ym2612"
    },
    {
      "channel": 3,
      "note": 88,
      "start": 5.4276,
      "duration": 0.0053,
      "velocity": 97,
      "chip": "ym2612"
    },
    {
      "channel": 4,
      "note": 88,
      "start": 5.431,
      "duration": 0.0079,
      "velocity": 97,
      "chip": "ym2612"
    },
    {
      "channel": 0,
      "note": 75,
      "start": 5.4349,
      "duration": 0.0143,
      "velocity": 97,
      "chip": "ym2612"
    },
    {
      "channel": 1,
      "note": 78,
      "start": 5.4355,
      "duration": 0.0138,
      "velocity": 97,
      "chip": "ym2612"
    },
    {
      "channel": 2,
      "note": 44,
      "start": 5.436,
      "duration": 0.0058,
      "velocity": 72,
      "chip": "ym2612"
    },
    {
      "channel": 3,
      "note": 92,
      "start": 5.4365,
      "duration": 0.0054,
      "velocity": 97,
      "chip": "ym2612"
    },
    {
      "channel": 4,
      "note": 92,
      "start": 5.44,
      "duration": 0.006,
      "velocity": 97,
      "chip": "ym2612"
    },
    {
      "channel": 2,
      "note": 44,
      "start": 5.4432,
      "duration": 0.0062,
      "velocity": 72,
      "chip": "ym2612"
    },
    {
      "channel": 3,
      "note": 95,
      "start": 5.4438,
      "duration": 0.0058,
      "velocity": 97,
      "chip": "ym2612"
    },
    {
      "channel": 4,
      "note": 95,
      "start": 5.4474,
      "duration": 0.0083,
      "velocity": 97,
      "chip": "ym2612"
    },
    {
      "channel": 0,
      "note": 76,
      "start": 5.4516,
      "duration": 0.0313,
      "velocity": 97,
      "chip": "ym2612"
    },
    {
      "channel": 1,
      "note": 80,
      "start": 5.4522,
      "duration": 0.0309,
      "velocity": 97,
      "chip": "ym2612"
    },
    {
      "channel": 2,
      "note": 44,
      "start": 5.4527,
      "duration": 0.0058,
      "velocity": 72,
      "chip": "ym2612"
    },
    {
      "channel": 3,
      "note": 100,
      "start": 5.4533,
      "duration": 0.0054,
      "velocity": 97,
      "chip": "ym2612"
    },
    {
      "channel": 4,
      "note": 100,
      "start": 5.4567,
      "duration": 0.0074,
      "velocity": 97,
      "chip": "ym2612"
    },
    {
      "channel": 2,
      "note": 44,
      "start": 5.4613,
      "duration": 0.0056,
      "velocity": 72,
      "chip": "ym2612"
    },
    {
      "channel": 3,
      "note": 104,
      "start": 5.4619,
      "duration": 0.0053,
      "velocity": 97,
      "chip": "ym2612"
    },
    {
      "channel": 4,
      "note": 104,
      "start": 5.4653,
      "duration": 0.0071,
      "velocity": 97,
      "chip": "ym2612"
    },
    {
      "channel": 2,
      "note": 44,
      "start": 5.4695,
      "duration": 0.0059,
      "velocity": 72,
      "chip": "ym2612"
    },
    {
      "channel": 3,
      "note": 107,
      "start": 5.47,
      "duration": 0.0055,
      "velocity": 97,
      "chip": "ym2612"
    },
    {
      "channel": 4,
      "note": 107,
      "start": 5.4735,
      "duration": 0.0072,
      "velocity": 97,
      "chip": "ym2612"
    },
    {
      "channel": 2,
      "note": 44,
      "start": 5.4778,
      "duration": 0.0059,
      "velocity": 72,
      "chip": "ym2612"
    },
    {
      "channel": 3,
      "note": 104,
      "start": 5.4783,
      "duration": 0.0056,
      "velocity": 97,
      "chip": "ym2612"
    },
    {
      "channel": 4,
      "note": 104,
      "start": 5.4817,
      "duration": 0.0081,
      "velocity": 97,
      "chip": "ym2612"
    },
    {
      "channel": 0,
      "note": 75,
      "start": 5.4859,
      "duration": 0.016,
      "velocity": 97,
      "chip": "ym2612"
    },
    {
      "channel": 1,
      "note": 78,
      "start": 5.4865,
      "duration": 0.0155,
      "velocity": 97,
      "chip": "ym2612"
    },
    {
      "channel": 2,
      "note": 44,
      "start": 5.487,
      "duration": 0.0058,
      "velocity": 72,
      "chip": "ym2612"
    },
    {
      "channel": 3,
      "note": 100,
      "start": 5.4876,
      "duration": 0.0054,
      "velocity": 97,
      "chip": "ym2612"
    },
    {
      "channel": 4,
      "note": 100,
      "start": 5.4909,
      "duration": 0.0078,
      "velocity": 97,
      "chip": "ym2612"
    },
    {
      "channel": 2,
      "note": 44,
      "start": 5.4958,
      "duration": 0.0064,
      "velocity": 72,
      "chip": "ym2612"
    },
    {
      "channel": 3,
      "note": 95,
      "start": 5.4963,
      "duration": 0.006,
      "velocity": 97,
      "chip": "ym2612"
    },
    {
      "channel": 4,
      "note": 95,
      "start": 5.5002,
      "duration": 0.0081,
      "velocity": 97,
      "chip": "ym2612"
    },
    {
      "channel": 0,
      "note": 73,
      "start": 5.5043,
      "duration": 0.015,
      "velocity": 97,
      "chip": "ym2612"
    },
    {
      "channel": 1,
      "note": 76,
      "start": 5.5049,
      "duration": 0.0146,
      "velocity": 97,
      "chip": "ym2612"
    },
    {
      "channel": 2,
      "note": 44,
      "start": 5.5054,
      "duration": 0.0062,
      "velocity": 72,
      "chip": "ym2612"
    },
    {
      "channel": 3,
      "note": 92,
      "start": 5.506,
      "duration": 0.0057,
      "velocity": 97,
      "chip": "ym2612"
    },
    {
      "channel": 4,
      "note": 92,
      "start": 5.5099,
      "duration": 0.0062,
      "velocity": 97,
      "chip": "ym2612"
    },
    {
      "channel": 2,
      "note": 44,
      "start": 5.5132,
      "duration": 0.0064,
      "velocity": 72,
      "chip": "ym2612"
    },
    {
      "channel": 3,
      "note": 88,
      "start": 5.5137,
      "duration": 0.006,
      "velocity": 97,
      "chip": "ym2612"
    },
    {
      "channel": 4,
      "note": 88,
      "start": 5.5177,
      "duration": 0.0081,
      "velocity": 97,
      "chip": "ym2612"
    },
    {
      "channel": 0,
      "note": 75,
      "start": 5.5218,
      "duration": 0.0156,
      "velocity": 97,
      "chip": "ym2612"
    },
    {
      "channel": 1,
      "note": 78,
      "start": 5.5224,
      "duration": 0.0151,
      "velocity": 97,
      "chip": "ym2612"
    },
    {
      "channel": 2,
      "note": 44,
      "start": 5.5229,
      "duration": 0.0059,
      "velocity": 72,
      "chip": "ym2612"
    },
    {
      "channel": 3,
      "note": 83,
      "start": 5.5234,
      "duration": 0.0054,
      "velocity": 97,
      "chip": "ym2612"
    },
    {
      "channel": 4,
      "note": 83,
      "start": 5.5268,
      "duration": 0.0076,
      "velocity": 97,
      "chip": "ym2612"
    },
    {
      "channel": 2,
      "note": 44,
      "start": 5.5317,
      "duration": 0.0059,
      "velocity": 72,
      "chip": "ym2612"
    },
    {
      "channel": 3,
      "note": 80,
      "start": 5.5322,
      "duration": 0.0055,
      "velocity": 97,
      "chip": "ym2612"
    },
    {
      "channel": 4,
      "note": 80,
      "start": 5.5355,
      "duration": 0.0084,
      "velocity": 97,
      "chip": "ym2612"
    },
    {
      "channel": 0,
      "note": 76,
      "start": 5.5399,
      "duration": 0.0346,
      "velocity": 97,
      "chip": "ym2612"
    },
    {
      "channel": 1,
      "note": 80,
      "start": 5.5405,
      "duration": 0.0342,
      "velocity": 97,
      "chip": "ym2612"
    },
    {
      "channel": 2,
      "note": 44,
      "start": 5.541,
      "duration": 0.0061,
      "velocity": 72,
      "chip": "ym2612"
    },
    {
      "channel": 3,
      "note": 76,
      "start": 5.5416,
      "duration": 0.0057,
      "velocity": 97,
      "chip": "ym2612"
    },
    {
      "channel": 4,
      "note": 76,
      "start": 5.5454,
      "duration": 0.0087,
      "velocity": 97,
      "chip": "ym2612"
    },
    {
      "channel": 2,
      "note": 44,
      "start": 5.5513,
      "duration": 0.0058,
      "velocity": 72,
      "chip": "ym2612"
    },
    {
      "channel": 3,
      "note": 80,
      "start": 5.5518,
      "duration": 0.0054,
      "velocity": 97,
      "chip": "ym2612"
    },
    {
      "channel": 4,
      "note": 80,
      "start": 5.5552,
      "duration": 0.0071,
      "velocity": 97,
      "chip": "ym2612"
    },
    {
      "channel": 2,
      "note": 44,
      "start": 5.5595,
      "duration": 0.0058,
      "velocity": 72,
      "chip": "ym2612"
    },
    {
      "channel": 3,
      "note": 83,
      "start": 5.56,
      "duration": 0.0054,
      "velocity": 97,
      "chip": "ym2612"
    },
    {
      "channel": 4,
      "note": 83,
      "start": 5.5635,
      "duration": 0.0087,
      "velocity": 97,
      "chip": "ym2612"
    },
    {
      "channel": 2,
      "note": 44,
      "start": 5.5694,
      "duration": 0.0059,
      "velocity": 72,
      "chip": "ym2612"
    },
    {
      "channel": 3,
      "note": 88,
      "start": 5.5699,
      "duration": 0.0055,
      "velocity": 97,
      "chip": "ym2612"
    },
    {
      "channel": 4,
      "note": 88,
      "start": 5.5733,
      "duration": 0.0082,
      "velocity": 97,
      "chip": "ym2612"
    },
    {
      "channel": 0,
      "note": 75,
      "start": 5.5775,
      "duration": 0.0142,
      "velocity": 97,
      "chip": "ym2612"
    },
    {
      "channel": 1,
      "note": 78,
      "start": 5.5781,
      "duration": 0.0137,
      "velocity": 97,
      "chip": "ym2612"
    },
    {
      "channel": 2,
      "note": 44,
      "start": 5.5786,
      "duration": 0.0058,
      "velocity": 72,
      "chip": "ym2612"
    },
    {
      "channel": 3,
      "note": 92,
      "start": 5.5791,
      "duration": 0.0054,
      "velocity": 97,
      "chip": "ym2612"
    },
    {
      "channel": 4,
      "note": 92,
      "start": 5.5826,
      "duration": 0.0061,
      "velocity": 97,
      "chip": "ym2612"
    },
    {
      "channel": 2,
      "note": 44,
      "start": 5.5859,
      "duration": 0.006,
      "velocity": 72,
      "chip": "ym2612"
    },
    {
      "channel": 3,
      "note": 95,
      "start": 5.5864,
      "duration": 0.0056,
      "velocity": 97,
      "chip": "ym2612"
    },
    {
      "channel": 4,
      "note": 95,
      "start": 5.5898,
      "duration": 0.0082,
      "velocity": 97,
      "chip": "ym2612"
    },
    {
      "channel": 0,
      "note": 76,
      "start": 5.5941,
      "duration": 0.032,
      "velocity": 97,
      "chip": "ym2612"
    },
    {
      "channel": 1,
      "note": 80,
      "start": 5.5947,
      "duration": 0.0315,
      "velocity": 97,
      "chip": "ym2612"
    },
    {
      "channel": 2,
      "note": 44,
      "start": 5.5952,
      "duration": 0.0059,
      "velocity": 72,
      "chip": "ym2612"
    },
    {
      "channel": 3,
      "note": 100,
      "start": 5.5958,
      "duration": 0.0055,
      "velocity": 97,
      "chip": "ym2612"
    },
    {
      "channel": 4,
      "note": 100,
      "start": 5.5992,
      "duration": 0.0077,
      "velocity": 97,
      "chip": "ym2612"
    },
    {
      "channel": 2,
      "note": 44,
      "start": 5.604,
      "duration": 0.0058,
      "velocity": 72,
      "chip": "ym2612"
    },
    {
      "channel": 3,
      "note": 104,
      "start": 5.6046,
      "duration": 0.0054,
      "velocity": 97,
      "chip": "ym2612"
    },
    {
      "channel": 4,
      "note": 104,
      "start": 5.608,
      "duration": 0.0073,
      "velocity": 97,
      "chip": "ym2612"
    },
    {
      "channel": 2,
      "note": 44,
      "start": 5.6123,
      "duration": 0.0062,
      "velocity": 72,
      "chip": "ym2612"
    },
    {
      "channel": 3,
      "note": 107,
      "start": 5.6128,
      "duration": 0.0058,
      "velocity": 97,
      "chip": "ym2612"
    },
    {
      "channel": 4,
      "note": 107,
      "start": 5.6168,
      "duration": 0.0069,
      "velocity": 97,
      "chip": "ym2612"
    },
    {
      "channel": 2,
      "note": 44,
      "start": 5.6208,
      "duration": 0.0061,
      "velocity": 72,
      "chip": "ym2612"
    },
    {
      "channel": 3,
      "note": 104,
      "start": 5.6214,
      "duration": 0.0057,
      "velocity": 97,
      "chip": "ym2612"
    },
    {
      "channel": 4,
      "note": 104,
      "start": 5.6253,
      "duration": 0.0078,
      "velocity": 97,
      "chip": "ym2612"
    },
    {
      "channel": 0,
      "note": 75,
      "start": 5.6291,
      "duration": 0.016,
      "velocity": 97,
      "chip": "ym2612"
    },
    {
      "channel": 1,
      "note": 78,
      "start": 5.6297,
      "duration": 0.0155,
      "velocity": 97,
      "chip": "ym2612"
    },
    {
      "channel": 2,
      "note": 44,
      "start": 5.6302,
      "duration": 0.0061,
      "velocity": 72,
      "chip": "ym2612"
    },
    {
      "channel": 3,
      "note": 100,
      "start": 5.6308,
      "duration": 0.0057,
      "velocity": 97,
      "chip": "ym2612"
    },
    {
      "channel": 4,
      "note": 100,
      "start": 5.6345,
      "duration": 0.0073,
      "velocity": 97,
      "chip": "ym2612"
    },
    {
      "channel": 2,
      "note": 44,
      "start": 5.6391,
      "duration": 0.0062,
      "velocity": 72,
      "chip": "ym2612"
    },
    {
      "channel": 3,
      "note": 95,
      "start": 5.6397,
      "duration": 0.0058,
      "velocity": 97,
      "chip": "ym2612"
    },
    {
      "channel": 4,
      "note": 95,
      "start": 5.6433,
      "duration": 0.0082,
      "velocity": 97,
      "chip": "ym2612"
    },
    {
      "channel": 0,
      "note": 73,
      "start": 5.6475,
      "duration": 0.0146,
      "velocity": 97,
      "chip": "ym2612"
    },
    {
      "channel": 1,
      "note": 76,
      "start": 5.6481,
      "duration": 0.0142,
      "velocity": 97,
      "chip": "ym2612"
    },
    {
      "channel": 2,
      "note": 44,
      "start": 5.6486,
      "duration": 0.0061,
      "velocity": 72,
      "chip": "ym2612"
    },
    {
      "channel": 3,
      "note": 92,
      "start": 5.6492,
      "duration": 0.0057,
      "velocity": 97,
      "chip": "ym2612"
    },
    {
      "channel": 4,
      "note": 92,
      "start": 5.6529,
      "duration": 0.006,
      "velocity": 97,
      "chip": "ym2612"
    },
    {
      "channel": 2,
      "note": 44,
      "start": 5.6562,
      "duration": 0.0062,
      "velocity": 72,
      "chip": "ym2612"
    },
    {
      "channel": 3,
      "note": 88,
      "start": 5.6567,
      "duration": 0.0058,
      "velocity": 97,
      "chip": "ym2612"
    },
    {
      "channel": 4,
      "note": 88,
      "start": 5.6604,
      "duration": 0.0082,
      "velocity": 97,
      "chip": "ym2612"
    },
    {
      "channel": 0,
      "note": 75,
      "start": 5.6646,
      "duration": 0.016,
      "velocity": 97,
      "chip": "ym2612"
    },
    {
      "channel": 1,
      "note": 78,
      "start": 5.6652,
      "duration": 0.0155,
      "velocity": 97,
      "chip": "ym2612"
    },
    {
      "channel": 2,
      "note": 44,
      "start": 5.6657,
      "duration": 0.0061,
      "velocity": 72,
      "chip": "ym2612"
    },
    {
      "channel": 3,
      "note": 83,
      "start": 5.6663,
      "duration": 0.0057,
      "velocity": 97,
      "chip": "ym2612"
    },
    {
      "channel": 4,
      "note": 83,
      "start": 5.67,
      "duration": 0.0073,
      "velocity": 97,
      "chip": "ym2612"
    },
    {
      "channel": 2,
      "note": 44,
      "start": 5.6746,
      "duration": 0.0062,
      "velocity": 72,
      "chip": "ym2612"
    },
    {
      "channel": 3,
      "note": 80,
      "start": 5.6751,
      "duration": 0.0058,
      "velocity": 97,
      "chip": "ym2612"
    },
    {
      "channel": 4,
      "note": 80,
      "start": 5.6789,
      "duration": 0.0084,
      "velocity": 97,
      "chip": "ym2612"
    },
    {
      "channel": 0,
      "note": 78,
      "start": 5.6831,
      "duration": 0.1404,
      "velocity": 97,
      "chip": "ym2612"
    },
    {
      "channel": 1,
      "note": 82,
      "start": 5.6837,
      "duration": 0.1399,
      "velocity": 97,
      "chip": "ym2612"
    },
    {
      "channel": 2,
      "note": 46,
      "start": 5.6843,
      "duration": 0.0063,
      "velocity": 72,
      "chip": "ym2612"
    },
    {
      "channel": 3,
      "note": 78,
      "start": 5.6849,
      "duration": 0.0059,
      "velocity": 97,
      "chip": "ym2612"
    },
    {
      "channel": 4,
      "note": 78,
      "start": 5.6888,
      "duration": 0.0084,
      "velocity": 97,
      "chip": "ym2612"
    },
    {
      "channel": 2,
      "note": 46,
      "start": 5.6945,
      "duration": 0.006,
      "velocity": 72,
      "chip": "ym2612"
    },
    {
      "channel": 3,
      "note": 82,
      "start": 5.6951,
      "duration": 0.0056,
      "velocity": 97,
      "chip": "ym2612"
    },
    {
      "channel": 4,
      "note": 82,
      "start": 5.6987,
      "duration": 0.007,
      "velocity": 97,
      "chip": "ym2612"
    },
    {
      "channel": 2,
      "note": 46,
      "start": 5.703,
      "duration": 0.0059,
      "velocity": 72,
      "chip": "ym2612"
    },
    {
      "channel": 3,
      "note": 85,
      "start": 5.7035,
      "duration": 0.0055,
      "velocity": 97,
      "chip": "ym2612"
    },
    {
      "channel": 4,
      "note": 85,
      "start": 5.7071,
      "duration": 0.0085,
      "velocity": 97,
      "chip": "ym2612"
    },
    {
      "channel": 2,
      "note": 46,
      "start": 5.713,
      "duration": 0.0059,
      "velocity": 72,
      "chip": "ym2612"
    },
    {
      "channel": 3,
      "note": 90,
      "start": 5.7135,
      "duration": 0.0056,
      "velocity": 97,
      "chip": "ym2612"
    },
    {
      "channel": 4,
      "note": 90,
      "start": 5.7171,
      "duration": 0.007,
      "velocity": 97,
      "chip": "ym2612"
    },
    {
      "channel": 2,
      "note": 46,
      "start": 5.7214,
      "duration": 0.0056,
      "velocity": 72,
      "chip": "ym2612"
    },
    {
      "channel": 3,
      "note": 94,
      "start": 5.7219,
      "duration": 0.0052,
      "velocity": 97,
      "chip": "ym2612"
    },
    {
      "channel": 4,
      "note": 94,
      "start": 5.7252,
      "duration": 0.0071,
      "velocity": 97,
      "chip": "ym2612"
    },
    {
      "channel": 2,
      "note": 46,
      "start": 5.7295,
      "duration": 0.0057,
      "velocity": 72,
      "chip": "ym2612"
    },
    {
      "channel": 3,
      "note": 97,
      "start": 5.73,
      "duration": 0.0053,
      "velocity": 97,
      "chip": "ym2612"
    },
    {
      "channel": 4,
      "note": 97,
      "start": 5.7334,
      "duration": 0.0071,
      "velocity": 97,
      "chip": "ym2612"
    },
    {
      "channel": 2,
      "note": 46,
      "start": 5.7376,
      "duration": 0.0057,
      "velocity": 72,
      "chip": "ym2612"
    },
    {
      "channel": 3,
      "note": 102,
      "start": 5.7381,
      "duration": 0.0053,
      "velocity": 97,
      "chip": "ym2612"
    },
    {
      "channel": 4,
      "note": 102,
      "start": 5.7415,
      "duration": 0.0087,
      "velocity": 97,
      "chip": "ym2612"
    },
    {
      "channel": 2,
      "note": 46,
      "start": 5.7474,
      "duration": 0.0057,
      "velocity": 72,
      "chip": "ym2612"
    },
    {
      "channel": 3,
      "note": 106,
      "start": 5.7479,
      "duration": 0.0053,
      "velocity": 97,
      "chip": "ym2612"
    },
    {
      "channel": 4,
      "note": 106,
      "start": 5.7513,
      "duration": 0.007,
      "velocity": 97,
      "chip": "ym2612"
    },
    {
      "channel": 2,
      "note": 46,
      "start": 5.7556,
      "duration": 0.0057,
      "velocity": 72,
      "chip": "ym2612"
    },
    {
      "channel": 3,
      "note": 109,
      "start": 5.7561,
      "duration": 0.0053,
      "velocity": 97,
      "chip": "ym2612"
    },
    {
      "channel": 4,
      "note": 109,
      "start": 5.7594,
      "duration": 0.0073,
      "velocity": 97,
      "chip": "ym2612"
    },
    {
      "channel": 2,
      "note": 46,
      "start": 5.7638,
      "duration": 0.0061,
      "velocity": 72,
      "chip": "ym2612"
    },
    {
      "channel": 3,
      "note": 106,
      "start": 5.7643,
      "duration": 0.0057,
      "velocity": 97,
      "chip": "ym2612"
    },
    {
      "channel": 4,
      "note": 106,
      "start": 5.7682,
      "duration": 0.0071,
      "velocity": 97,
      "chip": "ym2612"
    },
    {
      "channel": 2,
      "note": 46,
      "start": 5.7724,
      "duration": 0.0062,
      "velocity": 72,
      "chip": "ym2612"
    },
    {
      "channel": 3,
      "note": 102,
      "start": 5.7729,
      "duration": 0.0058,
      "velocity": 97,
      "chip": "ym2612"
    },
    {
      "channel": 4,
      "note": 102,
      "start": 5.7769,
      "duration": 0.0085,
      "velocity": 97,
      "chip": "ym2612"
    },
    {
      "channel": 2,
      "note": 46,
      "start": 5.7825,
      "duration": 0.0062,
      "velocity": 72,
      "chip": "ym2612"
    },
    {
      "channel": 3,
      "note": 97,
      "start": 5.7831,
      "duration": 0.0058,
      "velocity": 97,
      "chip": "ym2612"
    },
    {
      "channel": 4,
      "note": 97,
      "start": 5.787,
      "duration": 0.0069,
      "velocity": 97,
      "chip": "ym2612"
    },
    {
      "channel": 2,
      "note": 46,
      "start": 5.7911,
      "duration": 0.006,
      "velocity": 72,
      "chip": "ym2612"
    },
    {
      "channel": 3,
      "note": 94,
      "start": 5.7917,
      "duration": 0.0055,
      "velocity": 97,
      "chip": "ym2612"
    },
    {
      "channel": 4,
      "note": 94,
      "start": 5.7953,
      "duration": 0.007,
      "velocity": 97,
      "chip": "ym2612"
    },
    {
      "channel": 2,
      "note": 46,
      "start": 5.7995,
      "duration": 0.0059,
      "velocity": 72,
      "chip": "ym2612"
    },
    {
      "channel": 3,
      "note": 90,
      "start": 5.8001,
      "duration": 0.0055,
      "velocity": 97,
      "chip": "ym2612"
    },
    {
      "channel": 4,
      "note": 90,
      "start": 5.8037,
      "duration": 0.0071,
      "velocity": 97,
      "chip": "ym2612"
    },
    {
      "channel": 2,
      "note": 46,
      "start": 5.808,
      "duration": 0.0056,
      "velocity": 72,
      "chip": "ym2612"
    },
    {
      "channel": 3,
      "note": 85,
      "start": 5.8085,
      "duration": 0.0053,
      "velocity": 97,
      "chip": "ym2612"
    },
    {
      "channel": 4,
      "note": 85,
      "start": 5.8119,
      "duration": 0.0086,
      "velocity": 97,
      "chip": "ym2612"
    },
    {
      "channel": 2,
      "note": 46,
      "start": 5.8177,
      "duration": 0.0061,
      "velocity": 72,
      "chip": "ym2612"
    },
    {
      "channel": 3,
      "note": 82,
      "start": 5.8182,
      "duration": 0.0056,
      "velocity": 97,
      "chip": "ym2612"
    },
    {
      "channel": 4,
      "note": 82,
      "start": 5.8217,
      "duration": 0.0085,
      "velocity": 97,
      "chip": "ym2612"
    },
    {
      "channel": 0,
      "note": 82,
      "start": 5.826,
      "duration": 0.1349,
      "velocity": 97,
      "chip": "ym2612"
    },
    {
      "channel": 1,
      "note": 85,
      "start": 5.8266,
      "duration": 0.1344,
      "velocity": 97,
      "chip": "ym2612"
    },
    {
      "channel": 2,
      "note": 46,
      "start": 5.8271,
      "duration": 0.0063,
      "velocity": 72,
      "chip": "ym2612"
    },
    {
      "channel": 3,
      "note": 78,
      "start": 5.8278,
      "duration": 0.0058,
      "velocity": 97,
      "chip": "ym2612"
    },
    {
      "channel": 4,
      "note": 78,
      "start": 5.8316,
      "duration": 0.0088,
      "velocity": 97,
      "chip": "ym2612"
    },
    {
      "channel": 2,
      "note": 46,
      "start": 5.8375,
      "duration": 0.0061,
      "velocity": 72,
      "chip": "ym2612"
    },
    {
      "channel": 3,
      "note": 82,
      "start": 5.838,
      "duration": 0.0057,
      "velocity": 97,
      "chip": "ym2612"
    },
    {
      "channel": 4,
      "note": 82,
      "start": 5.842,
      "duration": 0.0071,
      "velocity": 97,
      "chip": "ym2612"
    },
    {
      "channel": 2,
      "note": 46,
      "start": 5.8461,
      "duration": 0.0061,
      "velocity": 72,
      "chip": "ym2612"
    },
    {
      "channel": 3,
      "note": 85,
      "start": 5.8467,
      "duration": 0.0058,
      "velocity": 97,
      "chip": "ym2612"
    },
    {
      "channel": 4,
      "note": 85,
      "start": 5.8506,
      "duration": 0.0087,
      "velocity": 97,
      "chip": "ym2612"
    },
    {
      "channel": 2,
      "note": 46,
      "start": 5.8563,
      "duration": 0.0062,
      "velocity": 72,
      "chip": "ym2612"
    },
    {
      "channel": 3,
      "note": 90,
      "start": 5.8569,
      "duration": 0.0058,
      "velocity": 97,
      "chip": "ym2612"
    },
    {
      "channel": 4,
      "note": 90,
      "start": 5.8608,
      "duration": 0.007,
      "velocity": 97,
      "chip": "ym2612"
    },
    {
      "channel": 2,
      "note": 46,
      "start": 5.865,
      "duration": 0.0061,
      "velocity": 72,
      "chip": "ym2612"
    },
    {
      "channel": 3,
      "note": 94,
      "start": 5.8655,
      "duration": 0.0057,
      "velocity": 97,
      "chip": "ym2612"
    },
    {
      "channel": 4,
      "note": 94,
      "start": 5.8694,
      "duration": 0.0069,
      "velocity": 97,
      "chip": "ym2612"
    },
    {
      "channel": 2,
      "note": 46,
      "start": 5.8735,
      "duration": 0.0061,
      "velocity": 72,
      "chip": "ym2612"
    },
    {
      "channel": 3,
      "note": 97,
      "start": 5.874,
      "duration": 0.0057,
      "velocity": 97,
      "chip": "ym2612"
    },
    {
      "channel": 4,
      "note": 97,
      "start": 5.8778,
      "duration": 0.0069,
      "velocity": 97,
      "chip": "ym2612"
    },
    {
      "channel": 2,
      "note": 46,
      "start": 5.8819,
      "duration": 0.0056,
      "velocity": 72,
      "chip": "ym2612"
    },
    {
      "channel": 3,
      "note": 102,
      "start": 5.8824,
      "duration": 0.0052,
      "velocity": 97,
      "chip": "ym2612"
    },
    {
      "channel": 4,
      "note": 102,
      "start": 5.8857,
      "duration": 0.0087,
      "velocity": 97,
      "chip": "ym2612"
    },
    {
      "channel": 2,
      "note": 46,
      "start": 5.8916,
      "duration": 0.0057,
      "velocity": 72,
      "chip": "ym2612"
    },
    {
      "channel": 3,
      "note": 106,
      "start": 5.8921,
      "duration": 0.0053,
      "velocity": 97,
      "chip": "ym2612"
    },
    {
      "channel": 4,
      "note": 106,
      "start": 5.8955,
      "duration": 0.007,
      "velocity": 97,
      "chip": "ym2612"
    },
    {
      "channel": 2,
      "note": 46,
      "start": 5.8998,
      "duration": 0.0057,
      "velocity": 72,
      "chip": "ym2612"
    },
    {
      "channel": 3,
      "note": 109,
      "start": 5.9003,
      "duration": 0.0053,
      "velocity": 97,
      "chip": "ym2612"
    },
    {
      "channel": 4,
      "note": 109,
      "start": 5.9036,
      "duration": 0.0073,
      "velocity": 97,
      "chip": "ym2612"
    },
    {
      "channel": 2,
      "note": 46,
      "start": 5.908,
      "duration": 0.0061,
      "velocity": 72,
      "chip": "ym2612"
    },
    {
      "channel": 3,
      "note": 106,
      "start": 5.9085,
      "duration": 0.0057,
      "velocity": 97,
      "chip": "ym2612"
    },
    {
      "channel": 4,
      "note": 106,
      "start": 5.9124,
      "duration": 0.0071,
      "velocity": 97,
      "chip": "ym2612"
    },
    {
      "channel": 2,
      "note": 46,
      "start": 5.9166,
      "duration": 0.0069,
      "velocity": 72,
      "chip": "ym2612"
    },
    {
      "channel": 3,
      "note": 102,
      "start": 5.9171,
      "duration": 0.0065,
      "velocity": 97,
      "chip": "ym2612"
    },
    {
      "channel": 4,
      "note": 102,
      "start": 5.9213,
      "duration": 0.0072,
      "velocity": 97,
      "chip": "ym2612"
    },
    {
      "channel": 2,
      "note": 46,
      "start": 5.9257,
      "duration": 0.0058,
      "velocity": 72,
      "chip": "ym2612"
    },
    {
      "channel": 3,
      "note": 97,
      "start": 5.9263,
      "duration": 0.0054,
      "velocity": 97,
      "chip": "ym2612"
    },
    {
      "channel": 4,
      "note": 97,
      "start": 5.9297,
      "duration": 0.0059,
      "velocity": 97,
      "chip": "ym2612"
    },
    {
      "channel": 2,
      "note": 46,
      "start": 5.9327,
      "duration": 0.0058,
      "velocity": 72,
      "chip": "ym2612"
    },
    {
      "channel": 3,
      "note": 94,
      "start": 5.9332,
      "duration": 0.0054,
      "velocity": 97,
      "chip": "ym2612"
    },
    {
      "channel": 4,
      "note": 94,
      "start": 5.9366,
      "duration": 0.0061,
      "velocity": 97,
      "chip": "ym2612"
    },
    {
      "channel": 2,
      "note": 46,
      "start": 5.9401,
      "duration": 0.0059,
      "velocity": 72,
      "chip": "ym2612"
    },
    {
      "channel": 3,
      "note": 90,
      "start": 5.9406,
      "duration": 0.0055,
      "velocity": 97,
      "chip": "ym2612"
    },
    {
      "channel": 4,
      "note": 90,
      "start": 5.9443,
      "duration": 0.0059,
      "velocity": 97,
      "chip": "ym2612"
    },
    {
      "channel": 2,
      "note": 46,
      "start": 5.9476,
      "duration": 0.0059,
      "velocity": 72,
      "chip": "ym2612"
    },
    {
      "channel": 3,
      "note": 85,
      "start": 5.9481,
      "duration": 0.0055,
      "velocity": 97,
      "chip": "ym2612"
    },
    {
      "channel": 4,
      "note": 85,
      "start": 5.9517,
      "duration": 0.0059,
      "velocity": 97,
      "chip": "ym2612"
    },
    {
      "channel": 2,
      "note": 46,
      "start": 5.955,
      "duration": 0.0061,
      "velocity": 72,
      "chip": "ym2612"
    },
    {
      "channel": 3,
      "note": 82,
      "start": 5.9556,
      "duration": 0.0057,
      "velocity": 97,
      "chip": "ym2612"
    },
    {
      "channel": 4,
      "note": 82,
      "start": 5.9592,
      "duration": 0.0087,
      "velocity": 97,
      "chip": "ym2612"
    },
    {
      "channel": 0,
      "note": 80,
      "start": 5.9638,
      "duration": 0.0348,
      "velocity": 97,
      "chip": "ym2612"
    },
    {
      "channel": 1,
      "note": 83,
      "start": 5.9643,
      "duration": 0.0343,
      "velocity": 97,
      "chip": "ym2612"
    },
    {
      "channel": 2,
      "note": 47,
      "start": 5.9649,
      "duration": 0.0064,
      "velocity": 72,
      "chip": "ym2612"
    },
    {
      "channel": 3,
      "note": 78,
      "start": 5.9656,
      "duration": 0.0059,
      "velocity": 97,
      "chip": "ym2612"
    },
    {
      "channel": 4,
      "note": 78,
      "start": 5.9696,
      "duration": 0.0085,
      "velocity": 97,
      "chip": "ym2612"
    },
    {
      "channel": 2,
      "note": 47,
      "start": 5.9753,
      "duration": 0.0057,
      "velocity": 72,
      "chip": "ym2612"
    },
    {
      "channel": 3,
      "note": 83,
      "start": 5.9758,
      "duration": 0.0054,
      "velocity": 97,
      "chip": "ym2612"
    },
    {
      "channel": 4,
      "note": 83,
      "start": 5.9792,
      "duration": 0.0072,
      "velocity": 97,
      "chip": "ym2612"
    },
    {
      "channel": 2,
      "note": 47,
      "start": 5.9835,
      "duration": 0.0058,
      "velocity": 72,
      "chip": "ym2612"
    },
    {
      "channel": 3,
      "note": 87,
      "start": 5.984,
      "duration": 0.0054,
      "velocity": 97,
      "chip": "ym2612"
    },
    {
      "channel": 4,
      "note": 87,
      "start": 5.9874,
      "duration": 0.0088,
      "velocity": 97,
      "chip": "ym2612"
    },
    {
      "channel": 2,
      "note": 47,
      "start": 5.9934,
      "duration": 0.006,
      "velocity": 72,
      "chip": "ym2612"
    },
    {
      "channel": 3,
      "note": 90,
      "start": 5.9939,
      "duration": 0.0056,
      "velocity": 97,
      "chip": "ym2612"
    },
    {
      "channel": 4,
      "note": 90,
      "start": 5.9973,
      "duration": 0.0081,
      "velocity": 97,
      "chip": "ym2612"
    },
    {
      "channel": 0,
      "note": 82,
      "start": 6.0015,
      "duration": 0.0147,
      "velocity": 97,
      "chip": "ym2612"
    },
    {
      "channel": 1,
      "note": 78,
      "start": 6.0021,
      "duration": 0.0142,
      "velocity": 97,
      "chip": "ym2612"
    },
    {
      "channel": 2,
      "note": 47,
      "start": 6.0026,
      "duration": 0.0058,
      "velocity": 72,
      "chip": "ym2612"
    },
    {
      "channel": 3,
      "note": 95,
      "start": 6.0031,
      "duration": 0.0054,
      "velocity": 97,
      "chip": "ym2612"
    },
    {
      "channel": 4,
      "note": 95,
      "start": 6.0065,
      "duration": 0.0064,
      "velocity": 97,
      "chip": "ym2612"
    },
    {
      "channel": 2,
      "note": 47,
      "start": 6.01,
      "duration": 0.0064,
      "velocity": 72,
      "chip": "ym2612"
    },
    {
      "channel": 3,
      "note": 99,
      "start": 6.0105,
      "duration": 0.006,
      "velocity": 97,
      "chip": "ym2612"
    },
    {
      "channel": 4,
      "note": 99,
      "start": 6.0145,
      "duration": 0.008,
      "velocity": 97,
      "chip": "ym2612"
    },
    {
      "channel": 0,
      "note": 83,
      "start": 6.0185,
      "duration": 0.0316,
      "velocity": 97,
      "chip": "ym2612"
    },
    {
      "channel": 1,
      "note": 80,
      "start": 6.0191,
      "duration": 0.0311,
      "velocity": 97,
      "chip": "ym2612"
    },
    {
      "channel": 2,
      "note": 47,
      "start": 6.0196,
      "duration": 0.0061,
      "velocity": 72,
      "chip": "ym2612"
    },
    {
      "channel": 3,
      "note": 102,
      "start": 6.0201,
      "duration": 0.0057,
      "velocity": 97,
      "chip": "ym2612"
    },
    {
      "channel": 4,
      "note": 102,
      "start": 6.024,
      "duration": 0.0074,
      "velocity": 97,
      "chip": "ym2612"
    },
    {
      "channel": 2,
      "note": 47,
      "start": 6.0285,
      "duration": 0.0061,
      "velocity": 72,
      "chip": "ym2612"
    },
    {
      "channel": 3,
      "note": 107,
      "start": 6.0291,
      "duration": 0.0056,
      "velocity": 97,
      "chip": "ym2612"
    },
    {
      "channel": 4,
      "note": 107,
      "start": 6.0328,
      "duration": 0.007,
      "velocity": 97,
      "chip": "ym2612"
    },
    {
      "channel": 2,
      "note": 47,
      "start": 6.037,
      "duration": 0.0057,
      "velocity": 72,
      "chip": "ym2612"
    },
    {
      "channel": 3,
      "note": 111,
      "start": 6.0376,
      "duration": 0.0053,
      "velocity": 97,
      "chip": "ym2612"
    },
    {
      "channel": 4,
      "note": 111,
      "start": 6.0409,
      "duration": 0.0071,
      "velocity": 97,
      "chip": "ym2612"
    },
    {
      "channel": 2,
      "note": 47,
      "start": 6.0452,
      "duration": 0.0057,
      "velocity": 72,
      "chip": "ym2612"
    },
    {
      "channel": 3,
      "note": 114,
      "start": 6.0458,
      "duration": 0.0052,
      "velocity": 97,
      "chip": "ym2612"
    },
    {
      "channel": 4,
      "note": 114,
      "start": 6.0491,
      "duration": 0.0079,
      "velocity": 97,
      "chip": "ym2612"
    },
    {
      "channel": 0,
      "note": 78,
      "start": 6.053,
      "duration": 0.016,
      "velocity": 97,
      "chip": "ym2612"
    },
    {
      "channel": 1,
      "note": 82,
      "start": 6.0536,
      "duration": 0.0156,
      "velocity": 97,
      "chip": "ym2612"
    },
    {
      "channel": 2,
      "note": 47,
      "start": 6.0541,
      "duration": 0.0058,
      "velocity": 72,
      "chip": "ym2612"
    },
    {
      "channel": 3,
      "note": 111,
      "start": 6.0547,
      "duration": 0.0054,
      "velocity": 97,
      "chip": "ym2612"
    },
    {
      "channel": 4,
      "note": 111,
      "start": 6.0581,
      "duration": 0.0076,
      "velocity": 97,
      "chip": "ym2612"
    },
    {
      "channel": 2,
      "note": 47,
      "start": 6.0629,
      "duration": 0.0064,
      "velocity": 72,
      "chip": "ym2612"
    },
    {
      "channel": 3,
      "note": 107,
      "start": 6.0634,
      "duration": 0.006,
      "velocity": 97,
      "chip": "ym2612"
    },
    {
      "channel": 4,
      "note": 107,
      "start": 6.0673,
      "duration": 0.0081,
      "velocity": 97,
      "chip": "ym2612"
    },
    {
      "channel": 0,
      "note": 76,
      "start": 6.0714,
      "duration": 0.0143,
      "velocity": 97,
      "chip": "ym2612"
    },
    {
      "channel": 1,
      "note": 80,
      "start": 6.072,
      "duration": 0.0138,
      "velocity": 97,
      "chip": "ym2612"
    },
    {
      "channel": 2,
      "note": 47,
      "start": 6.0725,
      "duration": 0.0061,
      "velocity": 72,
      "chip": "ym2612"
    },
    {
      "channel": 3,
      "note": 102,
      "start": 6.0731,
      "duration": 0.0057,
      "velocity": 97,
      "chip": "ym2612"
    },
    {
      "channel": 4,
      "note": 102,
      "start": 6.0768,
      "duration": 0.006,
      "velocity": 97,
      "chip": "ym2612"
    },
    {
      "channel": 2,
      "note": 47,
      "start": 6.0801,
      "duration": 0.0058,
      "velocity": 72,
      "chip": "ym2612"
    },
    {
      "channel": 3,
      "note": 99,
      "start": 6.0806,
      "duration": 0.0054,
      "velocity": 97,
      "chip": "ym2612"
    },
    {
      "channel": 4,
      "note": 99,
      "start": 6.0839,
      "duration": 0.0082,
      "velocity": 97,
      "chip": "ym2612"
    },
    {
      "channel": 0,
      "note": 78,
      "start": 6.0881,
      "duration": 0.016,
      "velocity": 97,
      "chip": "ym2612"
    },
    {
      "channel": 1,
      "note": 82,
      "start": 6.0887,
      "duration": 0.0156,
      "velocity": 97,
      "chip": "ym2612"
    },
    {
      "channel": 2,
      "note": 47,
      "start": 6.0892,
      "duration": 0.0062,
      "velocity": 72,
      "chip": "ym2612"
    },
    {
      "channel": 3,
      "note": 95,
      "start": 6.0898,
      "duration": 0.0057,
      "velocity": 97,
      "chip": "ym2612"
    },
    {
      "channel": 4,
      "note": 95,
      "start": 6.0936,
      "duration": 0.0074,
      "velocity": 97,
      "chip": "ym2612"
    },
    {
      "channel": 2,
      "note": 47,
      "start": 6.0982,
      "duration": 0.0062,
      "velocity": 72,
      "chip": "ym2612"
    },
    {
      "channel": 3,
      "note": 90,
      "start": 6.0987,
      "duration": 0.0058,
      "velocity": 97,
      "chip": "ym2612"
    },
    {
      "channel": 4,
      "note": 90,
      "start": 6.1024,
      "duration": 0.0085,
      "velocity": 97,
      "chip": "ym2612"
    },
    {
      "channel": 0,
      "note": 80,
      "start": 6.1066,
      "duration": 0.0348,
      "velocity": 97,
      "chip": "ym2612"
    },
    {
      "channel": 1,
      "note": 83,
      "start": 6.1072,
      "duration": 0.0344,
      "velocity": 97,
      "chip": "ym2612"
    },
    {
      "channel": 2,
      "note": 47,
      "start": 6.1078,
      "duration": 0.0064,
      "velocity": 72,
      "chip": "ym2612"
    },
    {
      "channel": 3,
      "note": 78,
      "start": 6.1084,
      "duration": 0.0059,
      "velocity": 97,
      "chip": "ym2612"
    },
    {
      "channel": 4,
      "note": 78,
      "start": 6.1124,
      "duration": 0.0084,
      "velocity": 97,
      "chip": "ym2612"
    },
    {
      "channel": 2,
      "note": 47,
      "start": 6.1182,
      "duration": 0.0059,
      "velocity": 72,
      "chip": "ym2612"
    },
    {
      "channel": 3,
      "note": 83,
      "start": 6.1187,
      "duration": 0.0055,
      "velocity": 97,
      "chip": "ym2612"
    },
    {
      "channel": 4,
      "note": 83,
      "start": 6.1223,
      "duration": 0.0071,
      "velocity": 97,
      "chip": "ym2612"
    },
    {
      "channel": 2,
      "note": 47,
      "start": 6.1266,
      "duration": 0.0056,
      "velocity": 72,
      "chip": "ym2612"
    },
    {
      "channel": 3,
      "note": 87,
      "start": 6.1271,
      "duration": 0.0053,
      "velocity": 97,
      "chip": "ym2612"
    },
    {
      "channel": 4,
      "note": 87,
      "start": 6.1305,
      "duration": 0.0086,
      "velocity": 97,
      "chip": "ym2612"
    },
    {
      "channel": 2,
      "note": 47,
      "start": 6.1363,
      "duration": 0.006,
      "velocity": 72,
      "chip": "ym2612"
    },
    {
      "channel": 3,
      "note": 90,
      "start": 6.1368,
      "duration": 0.0056,
      "velocity": 97,
      "chip": "ym2612"
    },
    {
      "channel": 4,
      "note": 90,
      "start": 6.1403,
      "duration": 0.0081,
      "velocity": 97,
      "chip": "ym2612"
    },
    {
      "channel": 0,
      "note": 82,
      "start": 6.1444,
      "duration": 0.0142,
      "velocity": 97,
      "chip": "ym2612"
    },
    {
      "channel": 1,
      "note": 85,
      "start": 6.145,
      "duration": 0.0137,
      "velocity": 97,
      "chip": "ym2612"
    },
    {
      "channel": 2,
      "note": 47,
      "start": 6.1455,
      "duration": 0.0059,
      "velocity": 72,
      "chip": "ym2612"
    },
    {
      "channel": 3,
      "note": 95,
      "start": 6.1461,
      "duration": 0.0054,
      "velocity": 97,
      "chip": "ym2612"
    },
    {
      "channel": 4,
      "note": 95,
      "start": 6.1495,
      "duration": 0.0062,
      "velocity": 97,
      "chip": "ym2612"
    },
    {
      "channel": 2,
      "note": 47,
      "start": 6.1528,
      "duration": 0.006,
      "velocity": 72,
      "chip": "ym2612"
    },
    {
      "channel": 3,
      "note": 99,
      "start": 6.1534,
      "duration": 0.0056,
      "velocity": 97,
      "chip": "ym2612"
    },
    {
      "channel": 4,
      "note": 99,
      "start": 6.1568,
      "duration": 0.0083,
      "velocity": 97,
      "chip": "ym2612"
    },
    {
      "channel": 0,
      "note": 83,
      "start": 6.161,
      "duration": 0.0318,
      "velocity": 97,
      "chip": "ym2612"
    },
    {
      "channel": 1,
      "note": 87,
      "start": 6.1616,
      "duration": 0.0313,
      "velocity": 97,
      "chip": "ym2612"
    },
    {
      "channel": 2,
      "note": 47,
      "start": 6.1621,
      "duration": 0.0062,
      "velocity": 72,
      "chip": "ym2612"
    },
    {
      "channel": 3,
      "note": 102,
      "start": 6.1627,
      "duration": 0.0058,
      "velocity": 97,
      "chip": "ym2612"
    },
    {
      "channel": 4,
      "note": 102,
      "start": 6.1666,
      "duration": 0.0073,
      "velocity": 97,
      "chip": "ym2612"
    },
    {
      "channel": 2,
      "note": 47,
      "start": 6.1712,
      "duration": 0.0062,
      "velocity": 72,
      "chip": "ym2612"
    },
    {
      "channel": 3,
      "note": 107,
      "start": 6.1717,
      "duration": 0.0058,
      "velocity": 97,
      "chip": "ym2612"
    },
    {
      "channel": 4,
      "note": 107,
      "start": 6.1756,
      "duration": 0.007,
      "velocity": 97,
      "chip": "ym2612"
    },
    {
      "channel": 2,
      "note": 47,
      "start": 6.1797,
      "duration": 0.0058,
      "velocity": 72,
      "chip": "ym2612"
    },
    {
      "channel": 3,
      "note": 111,
      "start": 6.1803,
      "duration": 0.0054,
      "velocity": 97,
      "chip": "ym2612"
    },
    {
      "channel": 4,
      "note": 111,
      "start": 6.1837,
      "duration": 0.0072,
      "velocity": 97,
      "chip": "ym2612"
    },
    {
      "channel": 2,
      "note": 47,
      "start": 6.188,
      "duration": 0.0057,
      "velocity": 72,
      "chip": "ym2612"
    },
    {
      "channel": 3,
      "note": 114,
      "start": 6.1885,
      "duration": 0.0052,
      "velocity": 97,
      "chip": "ym2612"
    },
    {
      "channel": 4,
      "note": 114,
      "start": 6.1919,
      "duration": 0.008,
      "velocity": 97,
      "chip": "ym2612"
    },
    {
      "channel": 0,
      "note": 82,
      "start": 6.1958,
      "duration": 0.0164,
      "velocity": 97,
      "chip": "ym2612"
    },
    {
      "channel": 1,
      "note": 85,
      "start": 6.1964,
      "duration": 0.016,
      "velocity": 97,
      "chip": "ym2612"
    },
    {
      "channel": 2,
      "note": 47,
      "start": 6.1969,
      "duration": 0.0062,
      "velocity": 72,
      "chip": "ym2612"
    },
    {
      "channel": 3,
      "note": 111,
      "start": 6.1975,
      "duration": 0.0058,
      "velocity": 97,
      "chip": "ym2612"
    },
    {
      "channel": 4,
      "note": 111,
      "start": 6.2014,
      "duration": 0.0075,
      "velocity": 97,
      "chip": "ym2612"
    },
    {
      "channel": 2,
      "note": 47,
      "start": 6.2061,
      "duration": 0.0064,
      "velocity": 72,
      "chip": "ym2612"
    },
    {
      "channel": 3,
      "note": 107,
      "start": 6.2066,
      "duration": 0.006,
      "velocity": 97,
      "chip": "ym2612"
    },
    {
      "channel": 4,
      "note": 107,
      "start": 6.2105,
      "duration": 0.0081,
      "velocity": 97,
      "chip": "ym2612"
    },
    {
      "channel": 0,
      "note": 83,
      "start": 6.2146,
      "duration": 0.0141,
      "velocity": 97,
      "chip": "ym2612"
    },
    {
      "channel": 1,
      "note": 87,
      "start": 6.2152,
      "duration": 0.0136,
      "velocity": 97,
      "chip": "ym2612"
    },
    {
      "channel": 2,
      "note": 47,
      "start": 6.2157,
      "duration": 0.0062,
      "velocity": 72,
      "chip": "ym2612"
    },
    {
      "channel": 3,
      "note": 102,
      "start": 6.2163,
      "duration": 0.0057,
      "velocity": 97,
      "chip": "ym2612"
    },
    {
      "channel": 4,
      "note": 102,
      "start": 6.22,
      "duration": 0.0058,
      "velocity": 97,
      "chip": "ym2612"
    },
    {
      "channel": 2,
      "note": 47,
      "start": 6.223,
      "duration": 0.0059,
      "velocity": 72,
      "chip": "ym2612"
    },
    {
      "channel": 3,
      "note": 99,
      "start": 6.2235,
      "duration": 0.0055,
      "velocity": 97,
      "chip": "ym2612"
    },
    {
      "channel": 4,
      "note": 99,
      "start": 6.2269,
      "duration": 0.0083,
      "velocity": 97,
      "chip": "ym2612"
    },
    {
      "channel": 0,
      "note": 85,
      "start": 6.2311,
      "duration": 0.0156,
      "velocity": 97,
      "chip": "ym2612"
    },
    {
      "channel": 1,
      "note": 88,
      "start": 6.2317,
      "duration": 0.0151,
      "velocity": 97,
      "chip": "ym2612"
    },
    {
      "channel": 2,
      "note": 47,
      "start": 6.2322,
      "duration": 0.0059,
      "velocity": 72,
      "chip": "ym2612"
    },
    {
      "channel": 3,
      "note": 95,
      "start": 6.2328,
      "duration": 0.0055,
      "velocity": 97,
      "chip": "ym2612"
    },
    {
      "channel": 4,
      "note": 95,
      "start": 6.2363,
      "duration": 0.0074,
      "velocity": 97,
      "chip": "ym2612"
    },
    {
      "channel": 2,
      "note": 47,
      "start": 6.241,
      "duration": 0.006,
      "velocity": 72,
      "chip": "ym2612"
    },
    {
      "channel": 3,
      "note": 90,
      "start": 6.2415,
      "duration": 0.0056,
      "velocity": 97,
      "chip": "ym2612"
    },
    {
      "channel": 4,
      "note": 90,
      "start": 6.2449,
      "duration": 0.0085,
      "velocity": 97,
      "chip": "ym2612"
    },
    {
      "channel": 0,
      "note": 87,
      "start": 6.2493,
      "duration": 0.1417,
      "velocity": 97,
      "chip": "ym2612"
    },
    {
      "channel": 1,
      "note": 90,
      "start": 6.2498,
      "duration": 0.1412,
      "velocity": 97,
      "chip": "ym2612"
    },
    {
      "channel": 2,
      "note": 46,
      "start": 6.2504,
      "duration": 0.0063,
      "velocity": 72,
      "chip": "ym2612"
    },
    {
      "channel": 3,
      "note": 78,
      "start": 6.251,
      "duration": 0.0058,
      "velocity": 97,
      "chip": "ym2612"
    },
    {
      "channel": 4,
      "note": 78,
      "start": 6.2549,
      "duration": 0.0088,
      "velocity": 97,
      "chip": "ym2612"
    },
    {
      "channel": 2,
      "note": 46,
      "start": 6.2608,
      "duration": 0.0061,
      "velocity": 72,
      "chip": "ym2612"
    },
    {
      "channel": 3,
      "note": 82,
      "start": 6.2613,
      "duration": 0.0057,
      "velocity": 97,
      "chip": "ym2612"
    },
    {
      "channel": 4,
      "note": 82,
      "start": 6.2652,
      "duration": 0.0071,
      "velocity": 97,
      "chip": "ym2612"
    },
    {
      "channel": 2,
      "note": 46,
      "start": 6.2694,
      "duration": 0.0061,
      "velocity": 72,
      "chip": "ym2612"
    },
    {
      "channel": 3,
      "note": 85,
      "start": 6.2699,
      "duration": 0.0058,
      "velocity": 97,
      "chip": "ym2612"
    },
    {
      "channel": 4,
      "note": 85,
      "start": 6.2739,
      "duration": 0.0087,
      "velocity": 97,
      "chip": "ym2612"
    },
    {
      "channel": 2,
      "note": 46,
      "start": 6.2796,
      "duration": 0.0062,
      "velocity": 72,
      "chip": "ym2612"
    },
    {
      "channel": 3,
      "note": 90,
      "start": 6.2801,
      "duration": 0.0058,
      "velocity": 97,
      "chip": "ym2612"
    },
    {
      "channel": 4,
      "note": 90,
      "start": 6.2841,
      "duration": 0.007,
      "velocity": 97,
      "chip": "ym2612"
    },
    {
      "channel": 2,
      "note": 46,
      "start": 6.2883,
      "duration": 0.0061,
      "velocity": 72,
      "chip": "ym2612"
    },
    {
      "channel": 3,
      "note": 94,
      "start": 6.2888,
      "duration": 0.0057,
      "velocity": 97,
      "chip": "ym2612"
    },
    {
      "channel": 4,
      "note": 94,
      "start": 6.2927,
      "duration": 0.0069,
      "velocity": 97,
      "chip": "ym2612"
    },
    {
      "channel": 2,
      "note": 46,
      "start": 6.2967,
      "duration": 0.0061,
      "velocity": 72,
      "chip": "ym2612"
    },
    {
      "channel": 3,
      "note": 97,
      "start": 6.2973,
      "duration": 0.0057,
      "velocity": 97,
      "chip": "ym2612"
    },
    {
      "channel": 4,
      "note": 97,
      "start": 6.301,
      "duration": 0.0069,
      "velocity": 97,
      "chip": "ym2612"
    },
    {
      "channel": 2,
      "note": 46,
      "start": 6.3052,
      "duration": 0.0056,
      "velocity": 72,
      "chip": "ym2612"
    },
    {
      "channel": 3,
      "note": 102,
      "start": 6.3057,
      "duration": 0.0052,
      "velocity": 97,
      "chip": "ym2612"
    },
    {
      "channel": 4,
      "note": 102,
      "start": 6.309,
      "duration": 0.0087,
      "velocity": 97,
      "chip": "ym2612"
    },
    {
      "channel": 2,
      "note": 46,
      "start": 6.3148,
      "duration": 0.0057,
      "velocity": 72,
      "chip": "ym2612"
    },
    {
      "channel": 3,
      "note": 106,
      "start": 6.3154,
      "duration": 0.0053,
      "velocity": 97,
      "chip": "ym2612"
    },
    {
      "channel": 4,
      "note": 106,
      "start": 6.3188,
      "duration": 0.007,
      "velocity": 97,
      "chip": "ym2612"
    },
    {
      "channel": 2,
      "note": 46,
      "start": 6.323,
      "duration": 0.0057,
      "velocity": 72,
      "chip": "ym2612"
    },
    {
      "channel": 3,
      "note": 109,
      "start": 6.3236,
      "duration": 0.0053,
      "velocity": 97,
      "chip": "ym2612"
    },
    {
      "channel": 4,
      "note": 109,
      "start": 6.3269,
      "duration": 0.0073,
      "velocity": 97,
      "chip": "ym2612"
    },
    {
      "channel": 2,
      "note": 46,
      "start": 6.3312,
      "duration": 0.0061,
      "velocity": 72,
      "chip": "ym2612"
    },
    {
      "channel": 3,
      "note": 106,
      "start": 6.3318,
      "duration": 0.0057,
      "velocity": 97,
      "chip": "ym2612"
    },
    {
      "channel": 4,
      "note": 106,
      "start": 6.3357,
      "duration": 0.0071,
      "velocity": 97,
      "chip": "ym2612"
    },
    {
      "channel": 2,
      "note": 46,
      "start": 6.3399,
      "duration": 0.0062,
      "velocity": 72,
      "chip": "ym2612"
    },
    {
      "channel": 3,
      "note": 102,
      "start": 6.3404,
      "duration": 0.0058,
      "velocity": 97,
      "chip": "ym2612"
    },
    {
      "channel": 4,
      "note": 102,
      "start": 6.3444,
      "duration": 0.0085,
      "velocity": 97,
      "chip": "ym2612"
    },
    {
      "channel": 2,
      "note": 46,
      "start": 6.35,
      "duration": 0.0062,
      "velocity": 72,
      "chip": "ym2612"
    },
    {
      "channel": 3,
      "note": 97,
      "start": 6.3505,
      "duration": 0.0058,
      "velocity": 97,
      "chip": "ym2612"
    },
    {
      "channel": 4,
      "note": 97,
      "start": 6.3544,
      "duration": 0.0069,
      "velocity": 97,
      "chip": "ym2612"
    },
    {
      "channel": 2,
      "note": 46,
      "start": 6.3586,
      "duration": 0.006,
      "velocity": 72,
      "chip": "ym2612"
    },
    {
      "channel": 3,
      "note": 94,
      "start": 6.3591,
      "duration": 0.0055,
      "velocity": 97,
      "chip": "ym2612"
    },
    {
      "channel": 4,
      "note": 94,
      "start": 6.3627,
      "duration": 0.007,
      "velocity": 97,
      "chip": "ym2612"
    },
    {
      "channel": 2,
      "note": 46,
      "start": 6.367,
      "duration": 0.0059,
      "velocity": 72,
      "chip": "ym2612"
    },
    {
      "channel": 3,
      "note": 90,
      "start": 6.3675,
      "duration": 0.0055,
      "velocity": 97,
      "chip": "ym2612"
    },
    {
      "channel": 4,
      "note": 90,
      "start": 6.3712,
      "duration": 0.0071,
      "velocity": 97,
      "chip": "ym2612"
    },
    {
      "channel": 2,
      "note": 46,
      "start": 6.3754,
      "duration": 0.0056,
      "velocity": 72,
      "chip": "ym2612"
    },
    {
      "channel": 3,
      "note": 85,
      "start": 6.3759,
      "duration": 0.0053,
      "velocity": 97,
      "chip": "ym2612"
    },
    {
      "channel": 4,
      "note": 85,
      "start": 6.3793,
      "duration": 0.0086,
      "velocity": 97,
      "chip": "ym2612"
    },
    {
      "channel": 2,
      "note": 46,
      "start": 6.3851,
      "duration": 0.0061,
      "velocity": 72,
      "chip": "ym2612"
    },
    {
      "channel": 3,
      "note": 82,
      "start": 6.3856,
      "duration": 0.0056,
      "velocity": 97,
      "chip": "ym2612"
    },
    {
      "channel": 4,
      "note": 82,
      "start": 6.3891,
      "duration": 0.0085,
      "velocity": 97,
      "chip": "ym2612"
    },
    {
      "channel": 0,
      "note": 82,
      "start": 6.3934,
      "duration": 0.1257,
      "velocity": 97,
      "chip": "ym2612"
    },
    {
      "channel": 1,
      "note": 85,
      "start": 6.394,
      "duration": 0.1258,
      "velocity": 97,
      "chip": "ym2612"
    },
    {
      "channel": 2,
      "note": 46,
      "start": 6.3946,
      "duration": 0.0063,
      "velocity": 72,
      "chip": "ym2612"
    },
    {
      "channel": 3,
      "note": 78,
      "start": 6.3952,
      "duration": 0.0058,
      "velocity": 97,
      "chip": "ym2612"
    },
    {
      "channel": 4,
      "note": 78,
      "start": 6.3991,
      "duration": 0.0088,
      "velocity": 97,
      "chip": "ym2612"
    },
    {
      "channel": 2,
      "note": 46,
      "start": 6.405,
      "duration": 0.0061,
      "velocity": 72,
      "chip": "ym2612"
    },
    {
      "channel": 3,
      "note": 82,
      "start": 6.4055,
      "duration": 0.0057,
      "velocity": 97,
      "chip": "ym2612"
    },
    {
      "channel": 4,
      "note": 82,
      "start": 6.4094,
      "duration": 0.0071,
      "velocity": 97,
      "chip": "ym2612"
    },
    {
      "channel": 2,
      "note": 46,
      "start": 6.4136,
      "duration": 0.0061,
      "velocity": 72,
      "chip": "ym2612"
    },
    {
      "channel": 3,
      "note": 85,
      "start": 6.4141,
      "duration": 0.0058,
      "velocity": 97,
      "chip": "ym2612"
    },
    {
      "channel": 4,
      "note": 85,
      "start": 6.4181,
      "duration": 0.0087,
      "velocity": 97,
      "chip": "ym2612"
    },
    {
      "channel": 2,
      "note": 46,
      "start": 6.4238,
      "duration": 0.0062,
      "velocity": 72,
      "chip": "ym2612"
    },
    {
      "channel": 3,
      "note": 90,
      "start": 6.4243,
      "duration": 0.0058,
      "velocity": 97,
      "chip": "ym2612"
    },
    {
      "channel": 4,
      "note": 90,
      "start": 6.4283,
      "duration": 0.007,
      "velocity": 97,
      "chip": "ym2612"
    },
    {
      "channel": 2,
      "note": 46,
      "start": 6.4325,
      "duration": 0.0061,
      "velocity": 72,
      "chip": "ym2612"
    },
    {
      "channel": 3,
      "note": 94,
      "start": 6.433,
      "duration": 0.0057,
      "velocity": 97,
      "chip": "ym2612"
    },
    {
      "channel": 4,
      "note": 94,
      "start": 6.4369,
      "duration": 0.0069,
      "velocity": 97,
      "chip": "ym2612"
    },
    {
      "channel": 2,
      "note": 46,
      "start": 6.4409,
      "duration": 0.0061,
      "velocity": 72,
      "chip": "ym2612"
    },
    {
      "channel": 3,
      "note": 97,
      "start": 6.4415,
      "duration": 0.0057,
      "velocity": 97,
      "chip": "ym2612"
    },
    {
      "channel": 4,
      "note": 97,
      "start": 6.4452,
      "duration": 0.0069,
      "velocity": 97,
      "chip": "ym2612"
    },
    {
      "channel": 2,
      "note": 46,
      "start": 6.4494,
      "duration": 0.0056,
      "velocity": 72,
      "chip": "ym2612"
    },
    {
      "channel": 3,
      "note": 102,
      "start": 6.4499,
      "duration": 0.0052,
      "velocity": 97,
      "chip": "ym2612"
    },
    {
      "channel": 4,
      "note": 102,
      "start": 6.4532,
      "duration": 0.0087,
      "velocity": 97,
      "chip": "ym2612"
    },
    {
      "channel": 2,
      "note": 46,
      "start": 6.459,
      "duration": 0.0057,
      "velocity": 72,
      "chip": "ym2612"
    },
    {
      "channel": 3,
      "note": 106,
      "start": 6.4596,
      "duration": 0.0053,
      "velocity": 97,
      "chip": "ym2612"
    },
    {
      "channel": 4,
      "note": 106,
      "start": 6.463,
      "duration": 0.007,
      "velocity": 97,
      "chip": "ym2612"
    },
    {
      "channel": 2,
      "note": 46,
      "start": 6.4672,
      "duration": 0.0057,
      "velocity": 72,
      "chip": "ym2612"
    },
    {
      "channel": 3,
      "note": 109,
      "start": 6.4678,
      "duration": 0.0053,
      "velocity": 97,
      "chip": "ym2612"
    },
    {
      "channel": 4,
      "note": 109,
      "start": 6.4711,
      "duration": 0.0073,
      "velocity": 97,
      "chip": "ym2612"
    },
    {
      "channel": 2,
      "note": 46,
      "start": 6.4754,
      "duration": 0.0061,
      "velocity": 72,
      "chip": "ym2612"
    },
    {
      "channel": 3,
      "note": 106,
      "start": 6.476,
      "duration": 0.0057,
      "velocity": 97,
      "chip": "ym2612"
    },
    {
      "channel": 4,
      "note": 106,
      "start": 6.4799,
      "duration": 0.0071,
      "velocity": 97,
      "chip": "ym2612"
    },
    {
      "channel": 2,
      "note": 46,
      "start": 6.4841,
      "duration": 0.0062,
      "velocity": 72,
      "chip": "ym2612"
    },
    {
      "channel": 3,
      "note": 102,
      "start": 6.4846,
      "duration": 0.0058,
      "velocity": 97,
      "chip": "ym2612"
    },
    {
      "channel": 4,
      "note": 102,
      "start": 6.4885,
      "duration": 0.0085,
      "velocity": 97,
      "chip": "ym2612"
    },
    {
      "channel": 2,
      "note": 46,
      "start": 6.4942,
      "duration": 0.0062,
      "velocity": 72,
      "chip": "ym2612"
    },
    {
      "channel": 3,
      "note": 97,
      "start": 6.4947,
      "duration": 0.0058,
      "velocity": 97,
      "chip": "ym2612"
    },
    {
      "channel": 4,
      "note": 97,
      "start": 6.4986,
      "duration": 0.0069,
      "velocity": 97,
      "chip": "ym2612"
    },
    {
      "channel": 2,
      "note": 46,
      "start": 6.5028,
      "duration": 0.006,
      "velocity": 72,
      "chip": "ym2612"
    },
    {
      "channel": 3,
      "note": 94,
      "start": 6.5033,
      "duration": 0.0055,
      "velocity": 97,
      "chip": "ym2612"
    },
    {
      "channel": 4,
      "note": 94,
      "start": 6.5069,
      "duration": 0.007,
      "velocity": 97,
      "chip": "ym2612"
    },
    {
      "channel": 2,
      "note": 46,
      "start": 6.5112,
      "duration": 0.0059,
      "velocity": 72,
      "chip": "ym2612"
    },
    {
      "channel": 3,
      "note": 90,
      "start": 6.5117,
      "duration": 0.0055,
      "velocity": 97,
      "chip": "ym2612"
    },
    {
      "channel": 4,
      "note": 90,
      "start": 6.5154,
      "duration": 0.0084,
      "velocity": 97,
      "chip": "ym2612"
    },
    {
      "channel": 0,
      "note": 83,
      "start": 6.5197,
      "duration": 0.0069,
      "velocity": 97,
      "chip": "ym2612"
    },
    {
      "channel": 1,
      "note": 87,
      "start": 6.5203,
      "duration": 0.0064,
      "velocity": 97,
      "chip": "ym2612"
    },
    {
      "channel": 2,
      "note": 46,
      "start": 6.5209,
      "duration": 0.006,
      "velocity": 72,
      "chip": "ym2612"
    },
    {
      "channel": 3,
      "note": 85,
      "start": 6.5214,
      "duration": 0.0056,
      "velocity": 97,
      "chip": "ym2612"
    },
    {
      "channel": 4,
      "note": 85,
      "start": 6.5249,
      "duration": 0.0085,
      "velocity": 97,
      "chip": "ym2612"
    },
    {
      "channel": 0,
      "note": 85,
      "start": 6.5293,
      "duration": 0.0071,
      "velocity": 97,
      "chip": "ym2612"
    },
    {
      "channel": 1,
      "note": 88,
      "start": 6.5299,
      "duration": 0.0066,
      "velocity": 97,
      "chip": "ym2612"
    },
    {
      "channel": 2,
      "note": 46,
      "start": 6.5304,
      "duration": 0.0062,
      "velocity": 72,
      "chip": "ym2612"
    },
    {
      "channel": 3,
      "note": 82,
      "start": 6.531,
      "duration": 0.0058,
      "velocity": 97,
      "chip": "ym2612"
    },
    {
      "channel": 4,
      "note": 82,
      "start": 6.5346,
      "duration": 0.0087,
      "velocity": 97,
      "chip": "ym2612"
    },
    {
      "channel": 0,
      "note": 83,
      "start": 6.5393,
      "duration": 0.0695,
      "velocity": 97,
      "chip": "ym2612"
    },
    {
      "channel": 1,
      "note": 87,
      "start": 6.5398,
      "duration": 0.0691,
      "velocity": 97,
      "chip": "ym2612"
    },
    {
      "channel": 2,
      "note": 49,
      "start": 6.5404,
      "duration": 0.0061,
      "velocity": 72,
      "chip": "ym2612"
    },
    {
      "channel": 3,
      "note": 80,
      "start": 6.5411,
      "duration": 0.0056,
      "velocity": 97,
      "chip": "ym2612"
    },
    {
      "channel": 4,
      "note": 80,
      "start": 6.5448,
      "duration": 0.0086,
      "velocity": 97,
      "chip": "ym2612"
    },
    {
      "channel": 2,
      "note": 49,
      "start": 6.5506,
      "duration": 0.0057,
      "velocity": 72,
      "chip": "ym2612"
    },
    {
      "channel": 3,
      "note": 85,
      "start": 6.5511,
      "duration": 0.0054,
      "velocity": 97,
      "chip": "ym2612"
    },
    {
      "channel": 4,
      "note": 85,
      "start": 6.5545,
      "duration": 0.0071,
      "velocity": 97,
      "chip": "ym2612"
    },
    {
      "channel": 2,
      "note": 49,
      "start": 6.5588,
      "duration": 0.0057,
      "velocity": 72,
      "chip": "ym2612"
    },
    {
      "channel": 3,
      "note": 88,
      "start": 6.5594,
      "duration": 0.0054,
      "velocity": 97,
      "chip": "ym2612"
    },
    {
      "channel": 4,
      "note": 88,
      "start": 6.5628,
      "duration": 0.0087,
      "velocity": 97,
      "chip": "ym2612"
    },
    {
      "channel": 2,
      "note": 49,
      "start": 6.5686,
      "duration": 0.0058,
      "velocity": 72,
      "chip": "ym2612"
    },
    {
      "channel": 3,
      "note": 92,
      "start": 6.5692,
      "duration": 0.0054,
      "velocity": 97,
      "chip": "ym2612"
    },
    {
      "channel": 4,
      "note": 92,
      "start": 6.5726,
      "duration": 0.0072,
      "velocity": 97,
      "chip": "ym2612"
    },
    {
      "channel": 2,
      "note": 49,
      "start": 6.5769,
      "duration": 0.0058,
      "velocity": 72,
      "chip": "ym2612"
    },
    {
      "channel": 3,
      "note": 97,
      "start": 6.5774,
      "duration": 0.0054,
      "velocity": 97,
      "chip": "ym2612"
    },
    {
      "channel": 4,
      "note": 97,
      "start": 6.5808,
      "duration": 0.0072,
      "velocity": 97,
      "chip": "ym2612"
    },
    {
      "channel": 2,
      "note": 49,
      "start": 6.5852,
      "duration": 0.0058,
      "velocity": 72,
      "chip": "ym2612"
    },
    {
      "channel": 3,
      "note": 100,
      "start": 6.5857,
      "duration": 0.0054,
      "velocity": 97,
      "chip": "ym2612"
    },
    {
      "channel": 4,
      "note": 100,
      "start": 6.5891,
      "duration": 0.0073,
      "velocity": 97,
      "chip": "ym2612"
    },
    {
      "channel": 2,
      "note": 49,
      "start": 6.5934,
      "duration": 0.0062,
      "velocity": 72,
      "chip": "ym2612"
    },
    {
      "channel": 3,
      "note": 104,
      "start": 6.5939,
      "duration": 0.0058,
      "velocity": 97,
      "chip": "ym2612"
    },
    {
      "channel": 4,
      "note": 104,
      "start": 6.5979,
      "duration": 0.0085,
      "velocity": 97,
      "chip": "ym2612"
    },
    {
      "channel": 2,
      "note": 49,
      "start": 6.6035,
      "duration": 0.0062,
      "velocity": 72,
      "chip": "ym2612"
    },
    {
      "channel": 3,
      "note": 109,
      "start": 6.6041,
      "duration": 0.0058,
      "velocity": 97,
      "chip": "ym2612"
    },
    {
      "channel": 4,
      "note": 109,
      "start": 6.608,
      "duration": 0.008,
      "velocity": 97,
      "chip": "ym2612"
    },
    {
      "channel": 0,
      "note": 85,
      "start": 6.612,
      "duration": 0.0213,
      "velocity": 97,
      "chip": "ym2612"
    },
    {
      "channel": 1,
      "note": 88,
      "start": 6.6125,
      "duration": 0.0213,
      "velocity": 97,
      "chip": "ym2612"
    },
    {
      "channel": 2,
      "note": 49,
      "start": 6.613,
      "duration": 0.0061,
      "velocity": 72,
      "chip": "ym2612"
    },
    {
      "channel": 3,
      "note": 112,
      "start": 6.6136,
      "duration": 0.0057,
      "velocity": 97,
      "chip": "ym2612"
    },
    {
      "channel": 4,
      "note": 112,
      "start": 6.6174,
      "duration": 0.0058,
      "velocity": 97,
      "chip": "ym2612"
    },
    {
      "channel": 2,
      "note": 49,
      "start": 6.6203,
      "duration": 0.0057,
      "velocity": 72,
      "chip": "ym2612"
    },
    {
      "channel": 3,
      "note": 116,
      "start": 6.6209,
      "duration": 0.0053,
      "velocity": 97,
      "chip": "ym2612"
    },
    {
      "channel": 4,
      "note": 116,
      "start": 6.6243,
      "duration": 0.007,
      "velocity": 97,
      "chip": "ym2612"
    },
    {
      "channel": 2,
      "note": 49,
      "start": 6.6285,
      "duration": 0.0067,
      "velocity": 72,
      "chip": "ym2612"
    },
    {
      "channel": 3,
      "note": 112,
      "start": 6.6291,
      "duration": 0.0063,
      "velocity": 97,
      "chip": "ym2612"
    },
    {
      "channel": 4,
      "note": 112,
      "start": 6.6324,
      "duration": 0.0085,
      "velocity": 97,
      "chip": "ym2612"
    },
    {
      "channel": 0,
      "note": 83,
      "start": 6.6337,
      "duration": 0.0241,
      "velocity": 97,
      "chip": "ym2612"
    },
    {
      "channel": 1,
      "note": 87,
      "start": 6.6344,
      "duration": 0.0241,
      "velocity": 97,
      "chip": "ym2612"
    },
    {
      "channel": 2,
      "note": 49,
      "start": 6.638,
      "duration": 0.0062,
      "velocity": 72,
      "chip": "ym2612"
    },
    {
      "channel": 3,
      "note": 109,
      "start": 6.6385,
      "duration": 0.0057,
      "velocity": 97,
      "chip": "ym2612"
    },
    {
      "channel": 4,
      "note": 109,
      "start": 6.6425,
      "duration": 0.0069,
      "velocity": 97,
      "chip": "ym2612"
    },
    {
      "channel": 2,
      "note": 49,
      "start": 6.6465,
      "duration": 0.0062,
      "velocity": 72,
      "chip": "ym2612"
    },
    {
      "channel": 3,
      "note": 104,
      "start": 6.647,
      "duration": 0.0058,
      "velocity": 97,
      "chip": "ym2612"
    },
    {
      "channel": 4,
      "note": 104,
      "start": 6.6509,
      "duration": 0.0082,
      "velocity": 97,
      "chip": "ym2612"
    },
    {
      "channel": 2,
      "note": 49,
      "start": 6.6551,
      "duration": 0.007,
      "velocity": 72,
      "chip": "ym2612"
    },
    {
      "channel": 3,
      "note": 100,
      "start": 6.6556,
      "duration": 0.0066,
      "velocity": 97,
      "chip": "ym2612"
    },
    {
      "channel": 0,
      "note": 80,
      "start": 6.6583,
      "duration": 0.0253,
      "velocity": 97,
      "chip": "ym2612"
    },
    {
      "channel": 1,
      "note": 83,
      "start": 6.6589,
      "duration": 0.0253,
      "velocity": 97,
      "chip": "ym2612"
    },
    {
      "channel": 4,
      "note": 100,
      "start": 6.6603,
      "duration": 0.0087,
      "velocity": 97,
      "chip": "ym2612"
    },
    {
      "channel": 2,
      "note": 49,
      "start": 6.6661,
      "duration": 0.0057,
      "velocity": 72,
      "chip": "ym2612"
    },
    {
      "channel": 3,
      "note": 97,
      "start": 6.6666,
      "duration": 0.0053,
      "velocity": 97,
      "chip": "ym2612"
    },
    {
      "channel": 4,
      "note": 97,
      "start": 6.67,
      "duration": 0.0087,
      "velocity": 97,
      "chip": "ym2612"
    },
    {
      "channel": 2,
      "note": 49,
      "start": 6.6759,
      "duration": 0.0056,
      "velocity": 72,
      "chip": "ym2612"
    },
    {
      "channel": 3,
      "note": 92,
      "start": 6.6764,
      "duration": 0.0053,
      "velocity": 97,
      "chip": "ym2612"
    },
    {
      "channel": 4,
      "note": 92,
      "start": 6.6798,
      "duration": 0.0085,
      "velocity": 97,
      "chip": "ym2612"
    },
    {
      "channel": 0,
      "note": 78,
      "start": 6.6841,
      "duration": 0.0345,
      "velocity": 97,
      "chip": "ym2612"
    },
    {
      "channel": 1,
      "note": 82,
      "start": 6.6849,
      "duration": 0.034,
      "velocity": 97,
      "chip": "ym2612"
    },
    {
      "channel": 2,
      "note": 49,
      "start": 6.6854,
      "duration": 0.0061,
      "velocity": 72,
      "chip": "ym2612"
    },
    {
      "channel": 3,
      "note": 80,
      "start": 6.686,
      "duration": 0.0057,
      "velocity": 97,
      "chip": "ym2612"
    },
    {
      "channel": 4,
      "note": 80,
      "start": 6.6898,
      "duration": 0.0085,
      "velocity": 97,
      "chip": "ym2612"
    },
    {
      "channel": 2,
      "note": 49,
      "start": 6.6954,
      "duration": 0.0058,
      "velocity": 72,
      "chip": "ym2612"
    },
    {
      "channel": 3,
      "note": 85,
      "start": 6.6959,
      "duration": 0.0054,
      "velocity": 97,
      "chip": "ym2612"
    },
    {
      "channel": 4,
      "note": 85,
      "start": 6.6993,
      "duration": 0.0072,
      "velocity": 97,
      "chip": "ym2612"
    },
    {
      "channel": 2,
      "note": 49,
      "start": 6.7037,
      "duration": 0.0058,
      "velocity": 72,
      "chip": "ym2612"
    },
    {
      "channel": 3,
      "note": 88,
      "start": 6.7042,
      "duration": 0.0054,
      "velocity": 97,
      "chip": "ym2612"
    },
    {
      "channel": 4,
      "note": 88,
      "start": 6.7076,
      "duration": 0.0088,
      "velocity": 97,
      "chip": "ym2612"
    },
    {
      "channel": 2,
      "note": 49,
      "start": 6.7136,
      "duration": 0.0059,
      "velocity": 72,
      "chip": "ym2612"
    },
    {
      "channel": 3,
      "note": 92,
      "start": 6.7141,
      "duration": 0.0056,
      "velocity": 97,
      "chip": "ym2612"
    },
    {
      "channel": 4,
      "note": 92,
      "start": 6.7175,
      "duration": 0.0081,
      "velocity": 97,
      "chip": "ym2612"
    },
    {
      "channel": 0,
      "note": 82,
      "start": 6.7217,
      "duration": 0.0324,
      "velocity": 97,
      "chip": "ym2612"
    },
    {
      "channel": 1,
      "note": 85,
      "start": 6.7223,
      "duration": 0.0319,
      "velocity": 97,
      "chip": "ym2612"
    },
    {
      "channel": 2,
      "note": 49,
      "start": 6.7228,
      "duration": 0.0057,
      "velocity": 72,
      "chip": "ym2612"
    },
    {
      "channel": 3,
      "note": 97,
      "start": 6.7233,
      "duration": 0.0053,
      "velocity": 97,
      "chip": "ym2612"
    },
    {
      "channel": 4,
      "note": 97,
      "start": 6.7266,
      "duration": 0.0064,
      "velocity": 97,
      "chip": "ym2612"
    },
    {
      "channel": 2,
      "note": 49,
      "start": 6.7301,
      "duration": 0.0062,
      "velocity": 72,
      "chip": "ym2612"
    },
    {
      "channel": 3,
      "note": 100,
      "start": 6.7307,
      "duration": 0.0058,
      "velocity": 97,
      "chip": "ym2612"
    },
    {
      "channel": 4,
      "note": 100,
      "start": 6.7346,
      "duration": 0.0069,
      "velocity": 97,
      "chip": "ym2612"
    },
    {
      "channel": 2,
      "note": 49,
      "start": 6.7387,
      "duration": 0.0062,
      "velocity": 72,
      "chip": "ym2612"
    },
    {
      "channel": 3,
      "note": 104,
      "start": 6.7392,
      "duration": 0.0058,
      "velocity": 97,
      "chip": "ym2612"
    },
    {
      "channel": 4,
      "note": 104,
      "start": 6.7431,
      "duration": 0.0086,
      "velocity": 97,
      "chip": "ym2612"
    },
    {
      "channel": 2,
      "note": 49,
      "start": 6.7488,
      "duration": 0.006,
      "velocity": 72,
      "chip": "ym2612"
    },
    {
      "channel": 3,
      "note": 109,
      "start": 6.7494,
      "duration": 0.0056,
      "velocity": 97,
      "chip": "ym2612"
    },
    {
      "channel": 4,
      "note": 109,
      "start": 6.7528,
      "duration": 0.0081,
      "velocity": 97,
      "chip": "ym2612"
    },
    {
      "channel": 0,
      "note": 85,
      "start": 6.757,
      "duration": 0.0321,
      "velocity": 97,
      "chip": "ym2612"
    },
    {
      "channel": 1,
      "note": 88,
      "start": 6.7576,
      "duration": 0.0316,
      "velocity": 97,
      "chip": "ym2612"
    },
    {
      "channel": 2,
      "note": 49,
      "start": 6.7581,
      "duration": 0.0057,
      "velocity": 72,
      "chip": "ym2612"
    },
    {
      "channel": 3,
      "note": 112,
      "start": 6.7586,
      "duration": 0.0053,
      "velocity": 97,
      "chip": "ym2612"
    },
    {
      "channel": 4,
      "note": 112,
      "start": 6.762,
      "duration": 0.0063,
      "velocity": 97,
      "chip": "ym2612"
    },
    {
      "channel": 2,
      "note": 49,
      "start": 6.7654,
      "duration": 0.0062,
      "velocity": 72,
      "chip": "ym2612"
    },
    {
      "channel": 3,
      "note": 116,
      "start": 6.7659,
      "duration": 0.0057,
      "velocity": 97,
      "chip": "ym2612"
    },
    {
      "channel": 4,
      "note": 116,
      "start": 6.7699,
      "duration": 0.0069,
      "velocity": 97,
      "chip": "ym2612"
    },
    {
      "channel": 2,
      "note": 49,
      "start": 6.7739,
      "duration": 0.0061,
      "velocity": 72,
      "chip": "ym2612"
    },
    {
      "channel": 3,
      "note": 112,
      "start": 6.7745,
      "duration": 0.0056,
      "velocity": 97,
      "chip": "ym2612"
    },
    {
      "channel": 4,
      "note": 112,
      "start": 6.7782,
      "duration": 0.0085,
      "velocity": 97,
      "chip": "ym2612"
    },
    {
      "channel": 2,
      "note": 49,
      "start": 6.7839,
      "duration": 0.0059,
      "velocity": 72,
      "chip": "ym2612"
    },
    {
      "channel": 3,
      "note": 109,
      "start": 6.7845,
      "duration": 0.0055,
      "velocity": 97,
      "chip": "ym2612"
    },
    {
      "channel": 4,
      "note": 109,
      "start": 6.7878,
      "duration": 0.0081,
      "velocity": 97,
      "chip": "ym2612"
    },
    {
      "channel": 0,
      "note": 88,
      "start": 6.792,
      "duration": 0.0323,
      "velocity": 97,
      "chip": "ym2612"
    },
    {
      "channel": 1,
      "note": 92,
      "start": 6.7926,
      "duration": 0.0319,
      "velocity": 97,
      "chip": "ym2612"
    },
    {
      "channel": 2,
      "note": 49,
      "start": 6.7931,
      "duration": 0.0059,
      "velocity": 72,
      "chip": "ym2612"
    },
    {
      "channel": 3,
      "note": 104,
      "start": 6.7937,
      "duration": 0.0054,
      "velocity": 97,
      "chip": "ym2612"
    },
    {
      "channel": 4,
      "note": 104,
      "start": 6.7971,
      "duration": 0.0061,
      "velocity": 97,
      "chip": "ym2612"
    },
    {
      "channel": 2,
      "note": 49,
      "start": 6.8004,
      "duration": 0.0061,
      "velocity": 72,
      "chip": "ym2612"
    },
    {
      "channel": 3,
      "note": 100,
      "start": 6.8009,
      "duration": 0.0057,
      "velocity": 97,
      "chip": "ym2612"
    },
    {
      "channel": 4,
      "note": 100,
      "start": 6.8048,
      "duration": 0.0071,
      "velocity": 97,
      "chip": "ym2612"
    },
    {
      "channel": 2,
      "note": 49,
      "start": 6.809,
      "duration": 0.0062,
      "velocity": 72,
      "chip": "ym2612"
    },
    {
      "channel": 3,
      "note": 97,
      "start": 6.8095,
      "duration": 0.0058,
      "velocity": 97,
      "chip": "ym2612"
    },
    {
      "channel": 4,
      "note": 97,
      "start": 6.8134,
      "duration": 0.0085,
      "velocity": 97,
      "chip": "ym2612"
    },
    {
      "channel": 2,
      "note": 49,
      "start": 6.8191,
      "duration": 0.0061,
      "velocity": 72,
      "chip": "ym2612"
    },
    {
      "channel": 3,
      "note": 92,
      "start": 6.8196,
      "duration": 0.0057,
      "velocity": 97,
      "chip": "ym2612"
    },
    {
      "channel": 4,
      "note": 92,
      "start": 6.8235,
      "duration": 0.0095,
      "velocity": 97,
      "chip": "ym2612"
    },
    {
      "channel": 0,
      "note": 30,
      "start": 6.8282,
      "duration": 0.0057,
      "velocity": 117,
      "chip": "ym2612"
    },
    {
      "channel": 1,
      "note": 90,
      "start": 6.8288,
      "duration": 0.3277,
      "velocity": 97,
      "chip": "ym2612"
    },
    {
      "channel": 2,
      "note": 51,
      "start": 6.8293,
      "duration": 0.0082,
      "velocity": 72,
      "chip": "ym2612"
    },
    {
      "channel": 3,
      "note": 94,
      "start": 6.8307,
      "duration": 0.326,
      "velocity": 97,
      "chip": "ym2612"
    },
    {
      "channel": 0,
      "note": 31,
      "start": 6.8344,
      "duration": 0.004,
      "velocity": 117,
      "chip": "ym2612"
    },
    {
      "channel": 4,
      "note": 34,
      "start": 6.8358,
      "duration": 0.0038,
      "velocity": 117,
      "chip": "ym2612"
    },
    {
      "channel": 0,
      "note": 32,
      "start": 6.8389,
      "duration": 0.0041,
      "velocity": 117,
      "chip": "ym2612"
    },
    {
      "channel": 2,
      "note": 51,
      "start": 6.8394,
      "duration": 0.0066,
      "velocity": 72,
      "chip": "ym2612"
    },
    {
      "channel": 4,
      "note": 35,
      "start": 6.8401,
      "duration": 0.0036,
      "velocity": 117,
      "chip": "ym2612"
    },
    {
      "channel": 0,
      "note": 33,
      "start": 6.8436,
      "duration": 0.006,
      "velocity": 117,
      "chip": "ym2612"
    },
    {
      "channel": 4,
      "note": 36,
      "start": 6.8443,
      "duration": 0.0065,
      "velocity": 117,
      "chip": "ym2612"
    },
    {
      "channel": 0,
      "note": 34,
      "start": 6.85,
      "duration": 0.0044,
      "velocity": 117,
      "chip": "ym2612"
    },
    {
      "channel": 2,
      "note": 51,
      "start": 6.8505,
      "duration": 0.007,
      "velocity": 72,
      "chip": "ym2612"
    },
    {
      "channel": 4,
      "note": 37,
      "start": 6.8512,
      "duration": 0.0039,
      "velocity": 117,
      "chip": "ym2612"
    },
    {
      "channel": 0,
      "note": 35,
      "start": 6.8549,
      "duration": 0.0049,
      "velocity": 117,
      "chip": "ym2612"
    },
    {
      "channel": 4,
      "note": 38,
      "start": 6.8556,
      "duration": 0.0054,
      "velocity": 117,
      "chip": "ym2612"
    },
    {
      "channel": 0,
      "note": 36,
      "start": 6.8603,
      "duration": 0.0045,
      "velocity": 117,
      "chip": "ym2612"
    },
    {
      "channel": 2,
      "note": 51,
      "start": 6.8608,
      "duration": 0.0069,
      "velocity": 72,
      "chip": "ym2612"
    },
    {
      "channel": 4,
      "note": 39,
      "start": 6.8615,
      "duration": 0.0039,
      "velocity": 117,
      "chip": "ym2612"
    },
    {
      "channel": 0,
      "note": 37,
      "start": 6.8653,
      "duration": 0.0059,
      "velocity": 117,
      "chip": "ym2612"
    },
    {
      "channel": 4,
      "note": 40,
      "start": 6.866,
      "duration": 0.0064,
      "velocity": 117,
      "chip": "ym2612"
    },
    {
      "channel": 0,
      "note": 38,
      "start": 6.8717,
      "duration": 0.0045,
      "velocity": 117,
      "chip": "ym2612"
    },
    {
      "channel": 2,
      "note": 51,
      "start": 6.8722,
      "duration": 0.007,
      "velocity": 72,
      "chip": "ym2612"
    },
    {
      "channel": 4,
      "note": 41,
      "start": 6.8729,
      "duration": 0.004,
      "velocity": 117,
      "chip": "ym2612"
    },
    {
      "channel": 0,
      "note": 39,
      "start": 6.8767,
      "duration": 0.0033,
      "velocity": 117,
      "chip": "ym2612"
    },
    {
      "channel": 4,
      "note": 42,
      "start": 6.8774,
      "duration": 0.0038,
      "velocity": 117,
      "chip": "ym2612"
    },
    {
      "channel": 0,
      "note": 40,
      "start": 6.8805,
      "duration": 0.0044,
      "velocity": 117,
      "chip": "ym2612"
    },
    {
      "channel": 2,
      "note": 51,
      "start": 6.881,
      "duration": 0.0068,
      "velocity": 72,
      "chip": "ym2612"
    },
    {
      "channel": 4,
      "note": 43,
      "start": 6.8817,
      "duration": 0.0039,
      "velocity": 117,
      "chip": "ym2612"
    },
    {
      "channel": 0,
      "note": 41,
      "start": 6.8854,
      "duration": 0.0033,
      "velocity": 117,
      "chip": "ym2612"
    },
    {
      "channel": 4,
      "note": 44,
      "start": 6.8861,
      "duration": 0.0038,
      "velocity": 117,
      "chip": "ym2612"
    },
    {
      "channel": 0,
      "note": 42,
      "start": 6.8891,
      "duration": 0.0042,
      "velocity": 117,
      "chip": "ym2612"
    },
    {
      "channel": 2,
      "note": 51,
      "start": 6.8896,
      "duration": 0.0066,
      "velocity": 72,
      "chip": "ym2612"
    },
    {
      "channel": 4,
      "note": 45,
      "start": 6.8903,
      "duration": 0.0037,
      "velocity": 117,
      "chip": "ym2612"
    },
    {
      "channel": 0,
      "note": 43,
      "start": 6.8938,
      "duration": 0.0046,
      "velocity": 117,
      "chip": "ym2612"
    },
    {
      "channel": 4,
      "note": 46,
      "start": 6.8945,
      "duration": 0.0051,
      "velocity": 117,
      "chip": "ym2612"
    },
    {
      "channel": 0,
      "note": 44,
      "start": 6.8989,
      "duration": 0.0044,
      "velocity": 117,
      "chip": "ym2612"
    },
    {
      "channel": 2,
      "note": 51,
      "start": 6.8994,
      "duration": 0.0068,
      "velocity": 72,
      "chip": "ym2612"
    },
    {
      "channel": 4,
      "note": 47,
      "start": 6.9001,
      "duration": 0.0039,
      "velocity": 117,
      "chip": "ym2612"
    },
    {
      "channel": 0,
      "note": 45,
      "start": 6.9038,
      "duration": 0.0059,
      "velocity": 117,
      "chip": "ym2612"
    },
    {
      "channel": 4,
      "note": 48,
      "start": 6.9045,
      "duration": 0.0064,
      "velocity": 117,
      "chip": "ym2612"
    },
    {
      "channel": 0,
      "note": 46,
      "start": 6.9102,
      "duration": 0.0045,
      "velocity": 117,
      "chip": "ym2612"
    },
    {
      "channel": 2,
      "note": 51,
      "start": 6.9107,
      "duration": 0.0071,
      "velocity": 72,
      "chip": "ym2612"
    },
    {
      "channel": 4,
      "note": 49,
      "start": 6.9114,
      "duration": 0.004,
      "velocity": 117,
      "chip": "ym2612"
    },
    {
      "channel": 0,
      "note": 47,
      "start": 6.9152,
      "duration": 0.0034,
      "velocity": 117,
      "chip": "ym2612"
    },
    {
      "channel": 4,
      "note": 50,
      "start": 6.9159,
      "duration": 0.0039,
      "velocity": 117,
      "chip": "ym2612"
    },
    {
      "channel": 0,
      "note": 48,
      "start": 6.9191,
      "duration": 0.0041,
      "velocity": 117,
      "chip": "ym2612"
    },
    {
      "channel": 2,
      "note": 51,
      "start": 6.9196,
      "duration": 0.0066,
      "velocity": 72,
      "chip": "ym2612"
    },
    {
      "channel": 4,
      "note": 51,
      "start": 6.9203,
      "duration": 0.0036,
      "velocity": 117,
      "chip": "ym2612"
    },
    {
      "channel": 0,
      "note": 49,
      "start": 6.9237,
      "duration": 0.006,
      "velocity": 117,
      "chip": "ym2612"
    },
    {
      "channel": 4,
      "note": 52,
      "start": 6.9244,
      "duration": 0.0065,
      "velocity": 117,
      "chip": "ym2612"
    },
    {
      "channel": 0,
      "note": 50,
      "start": 6.9302,
      "duration": 0.0043,
      "velocity": 117,
      "chip": "ym2612"
    },
    {
      "channel": 2,
      "note": 51,
      "start": 6.9307,
      "duration": 0.0068,
      "velocity": 72,
      "chip": "ym2612"
    },
    {
      "channel": 4,
      "note": 53,
      "start": 6.9314,
      "duration": 0.0038,
      "velocity": 117,
      "chip": "ym2612"
    },
    {
      "channel": 0,
      "note": 51,
      "start": 6.9351,
      "duration": 0.0046,
      "velocity": 117,
      "chip": "ym2612"
    },
    {
      "channel": 4,
      "note": 54,
      "start": 6.9358,
      "duration": 0.0051,
      "velocity": 117,
      "chip": "ym2612"
    },
    {
      "channel": 0,
      "note": 52,
      "start": 6.9402,
      "duration": 0.0044,
      "velocity": 117,
      "chip": "ym2612"
    },
    {
      "channel": 2,
      "note": 51,
      "start": 6.9407,
      "duration": 0.007,
      "velocity": 72,
      "chip": "ym2612"
    },
    {
      "channel": 4,
      "note": 55,
      "start": 6.9414,
      "duration": 0.0039,
      "velocity": 117,
      "chip": "ym2612"
    },
    {
      "channel": 0,
      "note": 53,
      "start": 6.9451,
      "duration": 0.0033,
      "velocity": 117,
      "chip": "ym2612"
    },
    {
      "channel": 4,
      "note": 57,
      "start": 6.9458,
      "duration": 0.0038,
      "velocity": 117,
      "chip": "ym2612"
    },
    {
      "channel": 0,
      "note": 54,
      "start": 6.9489,
      "duration": 0.0041,
      "velocity": 117,
      "chip": "ym2612"
    },
    {
      "channel": 2,
      "note": 51,
      "start": 6.9494,
      "duration": 0.0066,
      "velocity": 72,
      "chip": "ym2612"
    },
    {
      "channel": 4,
      "note": 58,
      "start": 6.9501,
      "duration": 0.0036,
      "velocity": 117,
      "chip": "ym2612"
    },
    {
      "channel": 0,
      "note": 55,
      "start": 6.9535,
      "duration": 0.006,
      "velocity": 117,
      "chip": "ym2612"
    },
    {
      "channel": 4,
      "note": 59,
      "start": 6.9542,
      "duration": 0.0065,
      "velocity": 117,
      "chip": "ym2612"
    },
    {
      "channel": 0,
      "note": 57,
      "start": 6.96,
      "duration": 0.0044,
      "velocity": 117,
      "chip": "ym2612"
    },
    {
      "channel": 2,
      "note": 51,
      "start": 6.9605,
      "duration": 0.0068,
      "velocity": 72,
      "chip": "ym2612"
    },
    {
      "channel": 4,
      "note": 60,
      "start": 6.9612,
      "duration": 0.0039,
      "velocity": 117,
      "chip": "ym2612"
    },
    {
      "channel": 0,
      "note": 58,
      "start": 6.9649,
      "duration": 0.0059,
      "velocity": 117,
      "chip": "ym2612"
    },
    {
      "channel": 4,
      "note": 61,
      "start": 6.9656,
      "duration": 0.0064,
      "velocity": 117,
      "chip": "ym2612"
    },
    {
      "channel": 0,
      "note": 59,
      "start": 6.9714,
      "duration": 0.0044,
      "velocity": 117,
      "chip": "ym2612"
    },
    {
      "channel": 2,
      "note": 51,
      "start": 6.9719,
      "duration": 0.0068,
      "velocity": 72,
      "chip": "ym2612"
    },
    {
      "channel": 4,
      "note": 62,
      "start": 6.9726,
      "duration": 0.0039,
      "velocity": 117,
      "chip": "ym2612"
    },
    {
      "channel": 0,
      "note": 60,
      "start": 6.9763,
      "duration": 0.0047,
      "velocity": 117,
      "chip": "ym2612"
    },
    {
      "channel": 4,
      "note": 63,
      "start": 6.977,
      "duration": 0.0052,
      "velocity": 117,
      "chip": "ym2612"
    },
    {
      "channel": 0,
      "note": 61,
      "start": 6.9815,
      "duration": 0.0046,
      "velocity": 117,
      "chip": "ym2612"
    },
    {
      "channel": 2,
      "note": 51,
      "start": 6.982,
      "duration": 0.0072,
      "velocity": 72,
      "chip": "ym2612"
    },
    {
      "channel": 4,
      "note": 64,
      "start": 6.9827,
      "duration": 0.0041,
      "velocity": 117,
      "chip": "ym2612"
    },
    {
      "channel": 0,
      "note": 62,
      "start": 6.9866,
      "duration": 0.0061,
      "velocity": 117,
      "chip": "ym2612"
    },
    {
      "channel": 4,
      "note": 65,
      "start": 6.9873,
      "duration": 0.0068,
      "velocity": 117,
      "chip": "ym2612"
    },
    {
      "channel": 0,
      "note": 63,
      "start": 6.9932,
      "duration": 0.0046,
      "velocity": 117,
      "chip": "ym2612"
    },
    {
      "channel": 2,
      "note": 51,
      "start": 6.9939,
      "duration": 0.0071,
      "velocity": 72,
      "chip": "ym2612"
    },
    {
      "channel": 4,
      "note": 66,
      "start": 6.9946,
      "duration": 0.0039,
      "velocity": 117,
      "chip": "ym2612"
    },
    {
      "channel": 0,
      "note": 64,
      "start": 6.9984,
      "duration": 0.0057,
      "velocity": 117,
      "chip": "ym2612"
    },
    {
      "channel": 4,
      "note": 65,
      "start": 6.9991,
      "duration": 0.0062,
      "velocity": 117,
      "chip": "ym2612"
    },
    {
      "channel": 0,
      "note": 65,
      "start": 7.0046,
      "duration": 0.0043,
      "velocity": 117,
      "chip": "ym2612"
    },
    {
      "channel": 2,
      "note": 51,
      "start": 7.0051,
      "duration": 0.0068,
      "velocity": 72,
      "chip": "ym2612"
    },
    {
      "channel": 4,
      "note": 64,
      "start": 7.0058,
      "duration": 0.0038,
      "velocity": 117,
      "chip": "ym2612"
    },
    {
      "channel": 0,
      "note": 66,
      "start": 7.0094,
      "duration": 0.0059,
      "velocity": 117,
      "chip": "ym2612"
    },
    {
      "channel": 4,
      "note": 63,
      "start": 7.0101,
      "duration": 0.0064,
      "velocity": 117,
      "chip": "ym2612"
    },
    {
      "channel": 0,
      "note": 65,
      "start": 7.0159,
      "duration": 0.0044,
      "velocity": 117,
      "chip": "ym2612"
    },
    {
      "channel": 2,
      "note": 51,
      "start": 7.0164,
      "duration": 0.0071,
      "velocity": 72,
      "chip": "ym2612"
    },
    {
      "channel": 4,
      "note": 62,
      "start": 7.0171,
      "duration": 0.0039,
      "velocity": 117,
      "chip": "ym2612"
    },
    {
      "channel": 0,
      "note": 64,
      "start": 7.0208,
      "duration": 0.0049,
      "velocity": 117,
      "chip": "ym2612"
    },
    {
      "channel": 4,
      "note": 61,
      "start": 7.0215,
      "duration": 0.0054,
      "velocity": 117,
      "chip": "ym2612"
    },
    {
      "channel": 0,
      "note": 63,
      "start": 7.0262,
      "duration": 0.0045,
      "velocity": 117,
      "chip": "ym2612"
    },
    {
      "channel": 2,
      "note": 51,
      "start": 7.0267,
      "duration": 0.0069,
      "velocity": 72,
      "chip": "ym2612"
    },
    {
      "channel": 4,
      "note": 60,
      "start": 7.0274,
      "duration": 0.004,
      "velocity": 117,
      "chip": "ym2612"
    },
    {
      "channel": 0,
      "note": 62,
      "start": 7.0312,
      "duration": 0.0059,
      "velocity": 117,
      "chip": "ym2612"
    },
    {
      "channel": 4,
      "note": 59,
      "start": 7.0319,
      "duration": 0.0064,
      "velocity": 117,
      "chip": "ym2612"
    },
    {
      "channel": 0,
      "note": 61,
      "start": 7.0376,
      "duration": 0.0045,
      "velocity": 117,
      "chip": "ym2612"
    },
    {
      "channel": 2,
      "note": 51,
      "start": 7.0381,
      "duration": 0.007,
      "velocity": 72,
      "chip": "ym2612"
    },
    {
      "channel": 4,
      "note": 58,
      "start": 7.0388,
      "duration": 0.0039,
      "velocity": 117,
      "chip": "ym2612"
    },
    {
      "channel": 0,
      "note": 60,
      "start": 7.0426,
      "duration": 0.006,
      "velocity": 117,
      "chip": "ym2612"
    },
    {
      "channel": 4,
      "note": 57,
      "start": 7.0433,
      "duration": 0.0065,
      "velocity": 117,
      "chip": "ym2612"
    },
    {
      "channel": 0,
      "note": 59,
      "start": 7.0491,
      "duration": 0.0043,
      "velocity": 117,
      "chip": "ym2612"
    },
    {
      "channel": 2,
      "note": 51,
      "start": 7.0496,
      "duration": 0.0067,
      "velocity": 72,
      "chip": "ym2612"
    },
    {
      "channel": 4,
      "note": 56,
      "start": 7.0503,
      "duration": 0.0038,
      "velocity": 117,
      "chip": "ym2612"
    },
    {
      "channel": 0,
      "note": 58,
      "start": 7.0539,
      "duration": 0.0033,
      "velocity": 117,
      "chip": "ym2612"
    },
    {
      "channel": 4,
      "note": 55,
      "start": 7.0546,
      "duration": 0.0038,
      "velocity": 117,
      "chip": "ym2612"
    },
    {
      "channel": 0,
      "note": 57,
      "start": 7.0577,
      "duration": 0.0042,
      "velocity": 117,
      "chip": "ym2612"
    },
    {
      "channel": 2,
      "note": 51,
      "start": 7.0582,
      "duration": 0.0066,
      "velocity": 72,
      "chip": "ym2612"
    },
    {
      "channel": 4,
      "note": 54,
      "start": 7.0589,
      "duration": 0.0037,
      "velocity": 117,
      "chip": "ym2612"
    },
    {
      "channel": 0,
      "note": 56,
      "start": 7.0624,
      "duration": 0.0046,
      "velocity": 117,
      "chip": "ym2612"
    },
    {
      "channel": 4,
      "note": 53,
      "start": 7.0631,
      "duration": 0.0051,
      "velocity": 117,
      "chip": "ym2612"
    },
    {
      "channel": 0,
      "note": 55,
      "start": 7.0675,
      "duration": 0.0044,
      "velocity": 117,
      "chip": "ym2612"
    },
    {
      "channel": 2,
      "note": 51,
      "start": 7.068,
      "duration": 0.0068,
      "velocity": 72,
      "chip": "ym2612"
    },
    {
      "channel": 4,
      "note": 52,
      "start": 7.0687,
      "duration": 0.0039,
      "velocity": 117,
      "chip": "ym2612"
    },
    {
      "channel": 0,
      "note": 54,
      "start": 7.0724,
      "duration": 0.0059,
      "velocity": 117,
      "chip": "ym2612"
    },
    {
      "channel": 4,
      "note": 51,
      "start": 7.0731,
      "duration": 0.0064,
      "velocity": 117,
      "chip": "ym2612"
    },
    {
      "channel": 0,
      "note": 53,
      "start": 7.0788,
      "duration": 0.0045,
      "velocity": 117,
      "chip": "ym2612"
    },
    {
      "channel": 2,
      "note": 51,
      "start": 7.0793,
      "duration": 0.0071,
      "velocity": 72,
      "chip": "ym2612"
    },
    {
      "channel": 4,
      "note": 50,
      "start": 7.08,
      "duration": 0.004,
      "velocity": 117,
      "chip": "ym2612"
    },
    {
      "channel": 0,
      "note": 52,
      "start": 7.0838,
      "duration": 0.0034,
      "velocity": 117,
      "chip": "ym2612"
    },
    {
      "channel": 4,
      "note": 49,
      "start": 7.0845,
      "duration": 0.0039,
      "velocity": 117,
      "chip": "ym2612"
    },
    {
      "channel": 0,
      "note": 51,
      "start": 7.0877,
      "duration": 0.0041,
      "velocity": 117,
      "chip": "ym2612"
    },
    {
      "channel": 2,
      "note": 51,
      "start": 7.0882,
      "duration": 0.0066,
      "velocity": 72,
      "chip": "ym2612"
    },
    {
      "channel": 4,
      "note": 48,
      "start": 7.0889,
      "duration": 0.0036,
      "velocity": 117,
      "chip": "ym2612"
    },
    {
      "channel": 0,
      "note": 50,
      "start": 7.0923,
      "duration": 0.006,
      "velocity": 117,
      "chip": "ym2612"
    },
    {
      "channel": 4,
      "note": 47,
      "start": 7.093,
      "duration": 0.0065,
      "velocity": 117,
      "chip": "ym2612"
    },
    {
      "channel": 0,
      "note": 49,
      "start": 7.0988,
      "duration": 0.0043,
      "velocity": 117,
      "chip": "ym2612"
    },
    {
      "channel": 2,
      "note": 51,
      "start": 7.0993,
      "duration": 0.007,
      "velocity": 72,
      "chip": "ym2612"
    },
    {
      "channel": 4,
      "note": 46,
      "start": 7.1,
      "duration": 0.0038,
      "velocity": 117,
      "chip": "ym2612"
    },
    {
      "channel": 0,
      "note": 48,
      "start": 7.1036,
      "duration": 0.0038,
      "velocity": 117,
      "chip": "ym2612"
    },
    {
      "channel": 4,
      "note": 45,
      "start": 7.1043,
      "duration": 0.0043,
      "velocity": 117,
      "chip": "ym2612"
    },
    {
      "channel": 0,
      "note": 47,
      "start": 7.1079,
      "duration": 0.0044,
      "velocity": 117,
      "chip": "ym2612"
    },
    {
      "channel": 2,
      "note": 51,
      "start": 7.1084,
      "duration": 0.007,
      "velocity": 72,
      "chip": "ym2612"
    },
    {
      "channel": 4,
      "note": 44,
      "start": 7.1091,
      "duration": 0.0039,
      "velocity": 117,
      "chip": "ym2612"
    },
    {
      "channel": 0,
      "note": 46,
      "start": 7.1127,
      "duration": 0.0034,
      "velocity": 117,
      "chip": "ym2612"
    },
    {
      "channel": 4,
      "note": 43,
      "start": 7.1134,
      "duration": 0.0039,
      "velocity": 117,
      "chip": "ym2612"
    },
    {
      "channel": 0,
      "note": 45,
      "start": 7.1167,
      "duration": 0.0041,
      "velocity": 117,
      "chip": "ym2612"
    },
    {
      "channel": 2,
      "note": 51,
      "start": 7.1172,
      "duration": 0.0066,
      "velocity": 72,
      "chip": "ym2612"
    },
    {
      "channel": 4,
      "note": 42,
      "start": 7.1179,
      "duration": 0.0036,
      "velocity": 117,
      "chip": "ym2612"
    },
    {
      "channel": 0,
      "note": 44,
      "start": 7.1213,
      "duration": 0.0043,
      "velocity": 117,
      "chip": "ym2612"
    },
    {
      "channel": 4,
      "note": 41,
      "start": 7.122,
      "duration": 0.0048,
      "velocity": 117,
      "chip": "ym2612"
    },
    {
      "channel": 0,
      "note": 43,
      "start": 7.1261,
      "duration": 0.0058,
      "velocity": 117,
      "chip": "ym2612"
    },
    {
      "channel": 2,
      "note": 51,
      "start": 7.1266,
      "duration": 0.0082,
      "velocity": 72,
      "chip": "ym2612"
    },
    {
      "channel": 4,
      "note": 40,
      "start": 7.1273,
      "duration": 0.0053,
      "velocity": 117,
      "chip": "ym2612"
    },
    {
      "channel": 0,
      "note": 42,
      "start": 7.1324,
      "duration": 0.0043,
      "velocity": 117,
      "chip": "ym2612"
    },
    {
      "channel": 4,
      "note": 39,
      "start": 7.1331,
      "duration": 0.0048,
      "velocity": 117,
      "chip": "ym2612"
    },
    {
      "channel": 0,
      "note": 41,
      "start": 7.1372,
      "duration": 0.0059,
      "velocity": 117,
      "chip": "ym2612"
    },
    {
      "channel": 2,
      "note": 51,
      "start": 7.1377,
      "duration": 0.0084,
      "velocity": 72,
      "chip": "ym2612"
    },
    {
      "channel": 4,
      "note": 38,
      "start": 7.1384,
      "duration": 0.0054,
      "velocity": 117,
      "chip": "ym2612"
    },
    {
      "channel": 0,
      "note": 40,
      "start": 7.1436,
      "duration": 0.0035,
      "velocity": 117,
      "chip": "ym2612"
    },
    {
      "channel": 4,
      "note": 37,
      "start": 7.1443,
      "duration": 0.004,
      "velocity": 117,
      "chip": "ym2612"
    },
    {
      "channel": 0,
      "note": 39,
      "start": 7.1476,
      "duration": 0.0058,
      "velocity": 117,
      "chip": "ym2612"
    },
    {
      "channel": 2,
      "note": 51,
      "start": 7.1481,
      "duration": 0.0085,
      "velocity": 72,
      "chip": "ym2612"
    },
    {
      "channel": 4,
      "note": 36,
      "start": 7.1488,
      "duration": 0.0053,
      "velocity": 117,
      "chip": "ym2612"
    },
    {
      "channel": 0,
      "note": 38,
      "start": 7.1539,
      "duration": 0.0038,
      "velocity": 117,
      "chip": "ym2612"
    },
    {
      "channel": 4,
      "note": 35,
      "start": 7.1546,
      "duration": 0.0063,
      "velocity": 117,
      "chip": "ym2612"
    },
    {
      "channel": 1,
      "note": 80,
      "start": 7.1592,
      "duration": 0.0089,
      "velocity": 102,
      "chip": "ym2612"
    },
    {
      "channel": 2,
      "note": 32,
      "start": 7.1605,
      "duration": 0.0076,
      "velocity": 77,
      "chip": "ym2612"
    },
    {
      "channel": 4,
      "note": 34,
      "start": 7.1613,
      "duration": 71.4275,
      "velocity": 117,
      "chip": "ym2612"
    },
    {
      "channel": 0,
      "note": 80,
      "start": 7.1663,
      "duration": 0.0065,
      "velocity": 97,
      "chip": "ym2612"
    },
    {
      "channel": 1,
      "note": 82,
      "start": 7.1698,
      "duration": 0.0058,
      "velocity": 102,
      "chip": "ym2612"
    },
    {
      "channel": 2,
      "note": 32,
      "start": 7.1704,
      "duration": 0.0054,
      "velocity": 77,
      "chip": "ym2612"
    },
    {
      "channel": 0,
      "note": 82,
      "start": 7.1739,
      "duration": 71.4149,
      "velocity": 97,
      "chip": "ym2612"
    }
  ]
}