{
  "track_name": "17 - The Gate Keeper",
  "duration_sec": 40.046,
  "sample_rate": 44100,
  "note_count": 926,
  "unique_pitches": 39,
  "pitch_range": 58,
  "avg_note_duration": 0.2593,
  "reconstruction_stats": {
    "notes_reconstructed": 926,
    "keyon_events": 926,
    "keyoff_events": 920,
    "orphan_keyons": 6,
    "unique_pitches": 39,
    "pitch_range": 58,
    "avg_duration_sec": 0.2593
  },
  "metadata": {
    "source": "W\\Wiz 'n' Liz\\17 - The Gate Keeper.vgz"
  },
  "notes": [
    {
      "channel": 0,
      "note": 79,
      "start": 0.0,
      "duration": 0.049,
      "velocity": 97,
      "chip": "ym2612"
    },
    {
      "channel": 1,
      "note": 79,
      "start": 0.0,
      "duration": 0.2307,
      "velocity": 97,
      "chip": "ym2612"
    },
    {
      "channel": 2,
      "note": 79,
      "start": 0.0,
      "duration": 0.0512,
      "velocity": 74,
      "chip": "ym2612"
    },
    {
      "channel": 3,
      "note": 79,
      "start": 0.0,
      "duration": 0.2334,
      "velocity": 74,
      "chip": "ym2612"
    },
    {
      "channel": 4,
      "note": 79,
      "start": 0.0,
      "duration": 40.0459,
      "velocity": 1,
      "chip": "ym2612"
    },
    {
      "channel": 5,
      "note": 79,
      "start": 0.0,
      "duration": 40.0459,
      "velocity": 1,
      "chip": "ym2612"
    },
    {
      "channel": 0,
      "note": 43,
      "start": 0.0492,
      "duration": 1.5268,
      "velocity": 97,
      "chip": "ym2612"
    },
    {
      "channel": 2,
      "note": 86,
      "start": 0.0514,
      "duration": 0.0794,
      "velocity": 74,
      "chip": "ym2612"
    },
    {
      "channel": 2,
      "note": 85,
      "start": 0.1309,
      "duration": 0.1002,
      "velocity": 74,
      "chip": "ym2612"
    },
    {
      "channel": 1,
      "note": 43,
      "start": 0.2308,
      "duration": 1.5277,
      "velocity": 97,
      "chip": "ym2612"
    },
    {
      "channel": 2,
      "note": 79,
      "start": 0.2314,
      "duration": 0.0977,
      "velocity": 74,
      "chip": "ym2612"
    },
    {
      "channel": 3,
      "note": 86,
      "start": 0.2335,
      "duration": 0.0961,
      "velocity": 74,
      "chip": "ym2612"
    },
    {
      "channel": 2,
      "note": 89,
      "start": 0.3293,
      "duration": 0.0998,
      "velocity": 74,
      "chip": "ym2612"
    },
    {
      "channel": 3,
      "note": 85,
      "start": 0.3298,
      "duration": 0.0998,
      "velocity": 74,
      "chip": "ym2612"
    },
    {
      "channel": 2,
      "note": 88,
      "start": 0.4293,
      "duration": 0.0822,
      "velocity": 74,
      "chip": "ym2612"
    },
    {
      "channel": 3,
      "note": 79,
      "start": 0.4298,
      "duration": 0.0822,
      "velocity": 74,
      "chip": "ym2612"
    },
    {
      "channel": 2,
      "note": 84,
      "start": 0.5116,
      "duration": 0.0998,
      "velocity": 74,
      "chip": "ym2612"
    },
    {
      "channel": 3,
      "note": 89,
      "start": 0.5122,
      "duration": 0.0998,
      "velocity": 74,
      "chip": "ym2612"
    },
    {
      "channel": 2,
      "note": 80,
      "start": 0.6115,
      "duration": 0.0999,
      "velocity": 74,
      "chip": "ym2612"
    },
    {
      "channel": 3,
      "note": 88,
      "start": 0.6121,
      "duration": 0.0998,
      "velocity": 74,
      "chip": "ym2612"
    },
    {
      "channel": 2,
      "note": 81,
      "start": 0.7115,
      "duration": 0.0999,
      "velocity": 74,
      "chip": "ym2612"
    },
    {
      "channel": 3,
      "note": 84,
      "start": 0.7121,
      "duration": 0.0999,
      "velocity": 74,
      "chip": "ym2612"
    },
    {
      "channel": 2,
      "note": 86,
      "start": 0.8116,
      "duration": 0.0821,
      "velocity": 74,
      "chip": "ym2612"
    },
    {
      "channel": 3,
      "note": 80,
      "start": 0.8122,
      "duration": 0.0821,
      "velocity": 74,
      "chip": "ym2612"
    },
    {
      "channel": 2,
      "note": 85,
      "start": 0.8939,
      "duration": 0.0998,
      "velocity": 74,
      "chip": "ym2612"
    },
    {
      "channel": 3,
      "note": 81,
      "start": 0.8945,
      "duration": 0.0998,
      "velocity": 74,
      "chip": "ym2612"
    },
    {
      "channel": 2,
      "note": 79,
      "start": 0.9938,
      "duration": 0.0999,
      "velocity": 74,
      "chip": "ym2612"
    },
    {
      "channel": 3,
      "note": 86,
      "start": 0.9944,
      "duration": 0.0998,
      "velocity": 74,
      "chip": "ym2612"
    },
    {
      "channel": 2,
      "note": 89,
      "start": 1.0938,
      "duration": 0.0999,
      "velocity": 74,
      "chip": "ym2612"
    },
    {
      "channel": 3,
      "note": 85,
      "start": 1.0944,
      "duration": 0.0999,
      "velocity": 74,
      "chip": "ym2612"
    },
    {
      "channel": 2,
      "note": 88,
      "start": 1.1939,
      "duration": 0.0822,
      "velocity": 74,
      "chip": "ym2612"
    },
    {
      "channel": 3,
      "note": 79,
      "start": 1.1945,
      "duration": 0.0822,
      "velocity": 74,
      "chip": "ym2612"
    },
    {
      "channel": 2,
      "note": 84,
      "start": 1.2762,
      "duration": 0.0998,
      "velocity": 74,
      "chip": "ym2612"
    },
    {
      "channel": 3,
      "note": 89,
      "start": 1.2768,
      "duration": 0.0998,
      "velocity": 74,
      "chip": "ym2612"
    },
    {
      "channel": 2,
      "note": 80,
      "start": 1.3762,
      "duration": 0.0999,
      "velocity": 74,
      "chip": "ym2612"
    },
    {
      "channel": 3,
      "note": 88,
      "start": 1.3767,
      "duration": 0.0998,
      "velocity": 74,
      "chip": "ym2612"
    },
    {
      "channel": 2,
      "note": 81,
      "start": 1.4762,
      "duration": 0.1005,
      "velocity": 74,
      "chip": "ym2612"
    },
    {
      "channel": 3,
      "note": 84,
      "start": 1.4767,
      "duration": 0.1004,
      "velocity": 74,
      "chip": "ym2612"
    },
    {
      "channel": 0,
      "note": 44,
      "start": 1.5762,
      "duration": 0.7647,
      "velocity": 97,
      "chip": "ym2612"
    },
    {
      "channel": 2,
      "note": 86,
      "start": 1.5767,
      "duration": 0.0819,
      "velocity": 74,
      "chip": "ym2612"
    },
    {
      "channel": 3,
      "note": 80,
      "start": 1.5773,
      "duration": 0.0818,
      "velocity": 74,
      "chip": "ym2612"
    },
    {
      "channel": 2,
      "note": 85,
      "start": 1.6588,
      "duration": 0.1003,
      "velocity": 74,
      "chip": "ym2612"
    },
    {
      "channel": 3,
      "note": 81,
      "start": 1.6593,
      "duration": 0.1003,
      "velocity": 74,
      "chip": "ym2612"
    },
    {
      "channel": 1,
      "note": 44,
      "start": 1.7587,
      "duration": 0.764,
      "velocity": 97,
      "chip": "ym2612"
    },
    {
      "channel": 2,
      "note": 79,
      "start": 1.7593,
      "duration": 0.0993,
      "velocity": 74,
      "chip": "ym2612"
    },
    {
      "channel": 3,
      "note": 86,
      "start": 1.7599,
      "duration": 0.0993,
      "velocity": 74,
      "chip": "ym2612"
    },
    {
      "channel": 2,
      "note": 89,
      "start": 1.8588,
      "duration": 0.0998,
      "velocity": 74,
      "chip": "ym2612"
    },
    {
      "channel": 3,
      "note": 85,
      "start": 1.8593,
      "duration": 0.0998,
      "velocity": 74,
      "chip": "ym2612"
    },
    {
      "channel": 2,
      "note": 88,
      "start": 1.9588,
      "duration": 0.0822,
      "velocity": 74,
      "chip": "ym2612"
    },
    {
      "channel": 3,
      "note": 79,
      "start": 1.9593,
      "duration": 0.0822,
      "velocity": 74,
      "chip": "ym2612"
    },
    {
      "channel": 2,
      "note": 84,
      "start": 2.0411,
      "duration": 0.0998,
      "velocity": 74,
      "chip": "ym2612"
    },
    {
      "channel": 3,
      "note": 89,
      "start": 2.0417,
      "duration": 0.0998,
      "velocity": 74,
      "chip": "ym2612"
    },
    {
      "channel": 2,
      "note": 80,
      "start": 2.141,
      "duration": 0.0999,
      "velocity": 74,
      "chip": "ym2612"
    },
    {
      "channel": 3,
      "note": 88,
      "start": 2.1416,
      "duration": 0.0998,
      "velocity": 74,
      "chip": "ym2612"
    },
    {
      "channel": 2,
      "note": 81,
      "start": 2.241,
      "duration": 0.1004,
      "velocity": 74,
      "chip": "ym2612"
    },
    {
      "channel": 3,
      "note": 84,
      "start": 2.2416,
      "duration": 0.1004,
      "velocity": 74,
      "chip": "ym2612"
    },
    {
      "channel": 0,
      "note": 50,
      "start": 2.341,
      "duration": 0.7144,
      "velocity": 97,
      "chip": "ym2612"
    },
    {
      "channel": 2,
      "note": 86,
      "start": 2.3416,
      "duration": 0.0812,
      "velocity": 74,
      "chip": "ym2612"
    },
    {
      "channel": 3,
      "note": 80,
      "start": 2.3422,
      "duration": 0.0812,
      "velocity": 74,
      "chip": "ym2612"
    },
    {
      "channel": 2,
      "note": 85,
      "start": 2.423,
      "duration": 0.1003,
      "velocity": 74,
      "chip": "ym2612"
    },
    {
      "channel": 3,
      "note": 81,
      "start": 2.4236,
      "duration": 0.1003,
      "velocity": 74,
      "chip": "ym2612"
    },
    {
      "channel": 1,
      "note": 50,
      "start": 2.5229,
      "duration": 0.7144,
      "velocity": 97,
      "chip": "ym2612"
    },
    {
      "channel": 2,
      "note": 79,
      "start": 2.5235,
      "duration": 0.0993,
      "velocity": 74,
      "chip": "ym2612"
    },
    {
      "channel": 3,
      "note": 86,
      "start": 2.5241,
      "duration": 0.0993,
      "velocity": 74,
      "chip": "ym2612"
    },
    {
      "channel": 2,
      "note": 89,
      "start": 2.623,
      "duration": 0.0998,
      "velocity": 74,
      "chip": "ym2612"
    },
    {
      "channel": 3,
      "note": 85,
      "start": 2.6236,
      "duration": 0.0998,
      "velocity": 74,
      "chip": "ym2612"
    },
    {
      "channel": 2,
      "note": 88,
      "start": 2.723,
      "duration": 0.0834,
      "velocity": 74,
      "chip": "ym2612"
    },
    {
      "channel": 3,
      "note": 79,
      "start": 2.7236,
      "duration": 0.0834,
      "velocity": 74,
      "chip": "ym2612"
    },
    {
      "channel": 2,
      "note": 84,
      "start": 2.8066,
      "duration": 0.0821,
      "velocity": 74,
      "chip": "ym2612"
    },
    {
      "channel": 3,
      "note": 89,
      "start": 2.8072,
      "duration": 0.0821,
      "velocity": 74,
      "chip": "ym2612"
    },
    {
      "channel": 2,
      "note": 80,
      "start": 2.8888,
      "duration": 0.0844,
      "velocity": 74,
      "chip": "ym2612"
    },
    {
      "channel": 3,
      "note": 88,
      "start": 2.8893,
      "duration": 0.0844,
      "velocity": 74,
      "chip": "ym2612"
    },
    {
      "channel": 2,
      "note": 81,
      "start": 2.9734,
      "duration": 0.0826,
      "velocity": 74,
      "chip": "ym2612"
    },
    {
      "channel": 3,
      "note": 84,
      "start": 2.974,
      "duration": 0.0826,
      "velocity": 74,
      "chip": "ym2612"
    },
    {
      "channel": 0,
      "note": 46,
      "start": 3.0555,
      "duration": 1.5287,
      "velocity": 97,
      "chip": "ym2612"
    },
    {
      "channel": 2,
      "note": 86,
      "start": 3.0561,
      "duration": 0.0812,
      "velocity": 74,
      "chip": "ym2612"
    },
    {
      "channel": 3,
      "note": 80,
      "start": 3.0567,
      "duration": 0.0812,
      "velocity": 74,
      "chip": "ym2612"
    },
    {
      "channel": 2,
      "note": 85,
      "start": 3.1375,
      "duration": 0.1003,
      "velocity": 74,
      "chip": "ym2612"
    },
    {
      "channel": 3,
      "note": 81,
      "start": 3.1381,
      "duration": 0.1003,
      "velocity": 74,
      "chip": "ym2612"
    },
    {
      "channel": 1,
      "note": 46,
      "start": 3.2375,
      "duration": 1.5293,
      "velocity": 97,
      "chip": "ym2612"
    },
    {
      "channel": 2,
      "note": 79,
      "start": 3.238,
      "duration": 0.0993,
      "velocity": 74,
      "chip": "ym2612"
    },
    {
      "channel": 3,
      "note": 86,
      "start": 3.2386,
      "duration": 0.0993,
      "velocity": 74,
      "chip": "ym2612"
    },
    {
      "channel": 2,
      "note": 89,
      "start": 3.3375,
      "duration": 0.0998,
      "velocity": 74,
      "chip": "ym2612"
    },
    {
      "channel": 3,
      "note": 85,
      "start": 3.3381,
      "duration": 0.0998,
      "velocity": 74,
      "chip": "ym2612"
    },
    {
      "channel": 2,
      "note": 88,
      "start": 3.4375,
      "duration": 0.0821,
      "velocity": 74,
      "chip": "ym2612"
    },
    {
      "channel": 3,
      "note": 79,
      "start": 3.4381,
      "duration": 0.0821,
      "velocity": 74,
      "chip": "ym2612"
    },
    {
      "channel": 2,
      "note": 84,
      "start": 3.5198,
      "duration": 0.0998,
      "velocity": 74,
      "chip": "ym2612"
    },
    {
      "channel": 3,
      "note": 89,
      "start": 3.5203,
      "duration": 0.0998,
      "velocity": 74,
      "chip": "ym2612"
    },
    {
      "channel": 2,
      "note": 80,
      "start": 3.6197,
      "duration": 0.0999,
      "velocity": 74,
      "chip": "ym2612"
    },
    {
      "channel": 3,
      "note": 88,
      "start": 3.6203,
      "duration": 0.0998,
      "velocity": 74,
      "chip": "ym2612"
    },
    {
      "channel": 2,
      "note": 81,
      "start": 3.7197,
      "duration": 0.0999,
      "velocity": 74,
      "chip": "ym2612"
    },
    {
      "channel": 3,
      "note": 84,
      "start": 3.7203,
      "duration": 0.0999,
      "velocity": 74,
      "chip": "ym2612"
    },
    {
      "channel": 2,
      "note": 86,
      "start": 3.8198,
      "duration": 0.0822,
      "velocity": 74,
      "chip": "ym2612"
    },
    {
      "channel": 3,
      "note": 80,
      "start": 3.8203,
      "duration": 0.0822,
      "velocity": 74,
      "chip": "ym2612"
    },
    {
      "channel": 2,
      "note": 85,
      "start": 3.9021,
      "duration": 0.0998,
      "velocity": 74,
      "chip": "ym2612"
    },
    {
      "channel": 3,
      "note": 81,
      "start": 3.9027,
      "duration": 0.0998,
      "velocity": 74,
      "chip": "ym2612"
    },
    {
      "channel": 2,
      "note": 79,
      "start": 4.002,
      "duration": 0.0999,
      "velocity": 74,
      "chip": "ym2612"
    },
    {
      "channel": 3,
      "note": 86,
      "start": 4.0026,
      "duration": 0.0998,
      "velocity": 74,
      "chip": "ym2612"
    },
    {
      "channel": 2,
      "note": 89,
      "start": 4.102,
      "duration": 0.0999,
      "velocity": 74,
      "chip": "ym2612"
    },
    {
      "channel": 3,
      "note": 85,
      "start": 4.1026,
      "duration": 0.0999,
      "velocity": 74,
      "chip": "ym2612"
    },
    {
      "channel": 2,
      "note": 88,
      "start": 4.2021,
      "duration": 0.0822,
      "velocity": 74,
      "chip": "ym2612"
    },
    {
      "channel": 3,
      "note": 79,
      "start": 4.2027,
      "duration": 0.0822,
      "velocity": 74,
      "chip": "ym2612"
    },
    {
      "channel": 2,
      "note": 84,
      "start": 4.2844,
      "duration": 0.0998,
      "velocity": 74,
      "chip": "ym2612"
    },
    {
      "channel": 3,
      "note": 89,
      "start": 4.285,
      "duration": 0.0998,
      "velocity": 74,
      "chip": "ym2612"
    },
    {
      "channel": 2,
      "note": 80,
      "start": 4.3844,
      "duration": 0.0999,
      "velocity": 74,
      "chip": "ym2612"
    },
    {
      "channel": 3,
      "note": 88,
      "start": 4.3849,
      "duration": 0.0998,
      "velocity": 74,
      "chip": "ym2612"
    },
    {
      "channel": 2,
      "note": 81,
      "start": 4.4844,
      "duration": 0.1005,
      "velocity": 74,
      "chip": "ym2612"
    },
    {
      "channel": 3,
      "note": 84,
      "start": 4.4849,
      "duration": 0.1004,
      "velocity": 74,
      "chip": "ym2612"
    },
    {
      "channel": 0,
      "note": 51,
      "start": 4.5844,
      "duration": 1.4815,
      "velocity": 97,
      "chip": "ym2612"
    },
    {
      "channel": 2,
      "note": 86,
      "start": 4.5849,
      "duration": 0.0819,
      "velocity": 74,
      "chip": "ym2612"
    },
    {
      "channel": 3,
      "note": 80,
      "start": 4.5855,
      "duration": 0.0818,
      "velocity": 74,
      "chip": "ym2612"
    },
    {
      "channel": 2,
      "note": 85,
      "start": 4.667,
      "duration": 0.1003,
      "velocity": 74,
      "chip": "ym2612"
    },
    {
      "channel": 3,
      "note": 81,
      "start": 4.6676,
      "duration": 0.1003,
      "velocity": 74,
      "chip": "ym2612"
    },
    {
      "channel": 1,
      "note": 51,
      "start": 4.7669,
      "duration": 1.4817,
      "velocity": 97,
      "chip": "ym2612"
    },
    {
      "channel": 2,
      "note": 79,
      "start": 4.7675,
      "duration": 0.0993,
      "velocity": 74,
      "chip": "ym2612"
    },
    {
      "channel": 3,
      "note": 86,
      "start": 4.7681,
      "duration": 0.0993,
      "velocity": 74,
      "chip": "ym2612"
    },
    {
      "channel": 2,
      "note": 89,
      "start": 4.867,
      "duration": 0.0998,
      "velocity": 74,
      "chip": "ym2612"
    },
    {
      "channel": 3,
      "note": 85,
      "start": 4.8676,
      "duration": 0.0998,
      "velocity": 74,
      "chip": "ym2612"
    },
    {
      "channel": 2,
      "note": 88,
      "start": 4.967,
      "duration": 0.0844,
      "velocity": 74,
      "chip": "ym2612"
    },
    {
      "channel": 3,
      "note": 79,
      "start": 4.9676,
      "duration": 0.0844,
      "velocity": 74,
      "chip": "ym2612"
    },
    {
      "channel": 2,
      "note": 84,
      "start": 5.0516,
      "duration": 0.0998,
      "velocity": 74,
      "chip": "ym2612"
    },
    {
      "channel": 3,
      "note": 89,
      "start": 5.0521,
      "duration": 0.0998,
      "velocity": 74,
      "chip": "ym2612"
    },
    {
      "channel": 2,
      "note": 80,
      "start": 5.1515,
      "duration": 0.0999,
      "velocity": 74,
      "chip": "ym2612"
    },
    {
      "channel": 3,
      "note": 88,
      "start": 5.1521,
      "duration": 0.0998,
      "velocity": 74,
      "chip": "ym2612"
    },
    {
      "channel": 2,
      "note": 81,
      "start": 5.2515,
      "duration": 0.0999,
      "velocity": 74,
      "chip": "ym2612"
    },
    {
      "channel": 3,
      "note": 84,
      "start": 5.2521,
      "duration": 0.0999,
      "velocity": 74,
      "chip": "ym2612"
    },
    {
      "channel": 2,
      "note": 86,
      "start": 5.3516,
      "duration": 0.0844,
      "velocity": 74,
      "chip": "ym2612"
    },
    {
      "channel": 3,
      "note": 80,
      "start": 5.3521,
      "duration": 0.0844,
      "velocity": 74,
      "chip": "ym2612"
    },
    {
      "channel": 2,
      "note": 85,
      "start": 5.4361,
      "duration": 0.0998,
      "velocity": 74,
      "chip": "ym2612"
    },
    {
      "channel": 3,
      "note": 81,
      "start": 5.4367,
      "duration": 0.0998,
      "velocity": 74,
      "chip": "ym2612"
    },
    {
      "channel": 2,
      "note": 79,
      "start": 5.5361,
      "duration": 0.0999,
      "velocity": 74,
      "chip": "ym2612"
    },
    {
      "channel": 3,
      "note": 86,
      "start": 5.5366,
      "duration": 0.0998,
      "velocity": 74,
      "chip": "ym2612"
    },
    {
      "channel": 2,
      "note": 89,
      "start": 5.6361,
      "duration": 0.0999,
      "velocity": 74,
      "chip": "ym2612"
    },
    {
      "channel": 3,
      "note": 85,
      "start": 5.6366,
      "duration": 0.0999,
      "velocity": 74,
      "chip": "ym2612"
    },
    {
      "channel": 2,
      "note": 88,
      "start": 5.7361,
      "duration": 0.0822,
      "velocity": 74,
      "chip": "ym2612"
    },
    {
      "channel": 3,
      "note": 79,
      "start": 5.7367,
      "duration": 0.0822,
      "velocity": 74,
      "chip": "ym2612"
    },
    {
      "channel": 2,
      "note": 84,
      "start": 5.8185,
      "duration": 0.0826,
      "velocity": 74,
      "chip": "ym2612"
    },
    {
      "channel": 3,
      "note": 89,
      "start": 5.819,
      "duration": 0.0826,
      "velocity": 74,
      "chip": "ym2612"
    },
    {
      "channel": 2,
      "note": 80,
      "start": 5.9013,
      "duration": 0.0822,
      "velocity": 74,
      "chip": "ym2612"
    },
    {
      "channel": 3,
      "note": 88,
      "start": 5.9019,
      "duration": 0.0821,
      "velocity": 74,
      "chip": "ym2612"
    },
    {
      "channel": 2,
      "note": 81,
      "start": 5.9836,
      "duration": 0.083,
      "velocity": 74,
      "chip": "ym2612"
    },
    {
      "channel": 3,
      "note": 84,
      "start": 5.9841,
      "duration": 0.083,
      "velocity": 74,
      "chip": "ym2612"
    },
    {
      "channel": 0,
      "note": 50,
      "start": 6.0661,
      "duration": 1.5317,
      "velocity": 97,
      "chip": "ym2612"
    },
    {
      "channel": 2,
      "note": 86,
      "start": 6.0667,
      "duration": 0.0836,
      "velocity": 74,
      "chip": "ym2612"
    },
    {
      "channel": 3,
      "note": 88,
      "start": 6.0673,
      "duration": 0.0835,
      "velocity": 74,
      "chip": "ym2612"
    },
    {
      "channel": 2,
      "note": 85,
      "start": 6.1505,
      "duration": 0.0987,
      "velocity": 74,
      "chip": "ym2612"
    },
    {
      "channel": 3,
      "note": 84,
      "start": 6.151,
      "duration": 0.0987,
      "velocity": 74,
      "chip": "ym2612"
    },
    {
      "channel": 1,
      "note": 50,
      "start": 6.2488,
      "duration": 1.5318,
      "velocity": 97,
      "chip": "ym2612"
    },
    {
      "channel": 2,
      "note": 79,
      "start": 6.2493,
      "duration": 0.0993,
      "velocity": 74,
      "chip": "ym2612"
    },
    {
      "channel": 3,
      "note": 86,
      "start": 6.2499,
      "duration": 0.0993,
      "velocity": 74,
      "chip": "ym2612"
    },
    {
      "channel": 2,
      "note": 89,
      "start": 6.3488,
      "duration": 0.0998,
      "velocity": 74,
      "chip": "ym2612"
    },
    {
      "channel": 3,
      "note": 85,
      "start": 6.3494,
      "duration": 0.0998,
      "velocity": 74,
      "chip": "ym2612"
    },
    {
      "channel": 2,
      "note": 88,
      "start": 6.4488,
      "duration": 0.0821,
      "velocity": 74,
      "chip": "ym2612"
    },
    {
      "channel": 3,
      "note": 79,
      "start": 6.4494,
      "duration": 0.0821,
      "velocity": 74,
      "chip": "ym2612"
    },
    {
      "channel": 2,
      "note": 84,
      "start": 6.5311,
      "duration": 0.0998,
      "velocity": 74,
      "chip": "ym2612"
    },
    {
      "channel": 3,
      "note": 89,
      "start": 6.5316,
      "duration": 0.0998,
      "velocity": 74,
      "chip": "ym2612"
    },
    {
      "channel": 2,
      "note": 80,
      "start": 6.631,
      "duration": 0.0999,
      "velocity": 74,
      "chip": "ym2612"
    },
    {
      "channel": 3,
      "note": 88,
      "start": 6.6316,
      "duration": 0.0998,
      "velocity": 74,
      "chip": "ym2612"
    },
    {
      "channel": 2,
      "note": 81,
      "start": 6.731,
      "duration": 0.0999,
      "velocity": 74,
      "chip": "ym2612"
    },
    {
      "channel": 3,
      "note": 84,
      "start": 6.7316,
      "duration": 0.0999,
      "velocity": 74,
      "chip": "ym2612"
    },
    {
      "channel": 2,
      "note": 86,
      "start": 6.8311,
      "duration": 0.0844,
      "velocity": 74,
      "chip": "ym2612"
    },
    {
      "channel": 3,
      "note": 80,
      "start": 6.8316,
      "duration": 0.0844,
      "velocity": 74,
      "chip": "ym2612"
    },
    {
      "channel": 2,
      "note": 85,
      "start": 6.9156,
      "duration": 0.0998,
      "velocity": 74,
      "chip": "ym2612"
    },
    {
      "channel": 3,
      "note": 81,
      "start": 6.9162,
      "duration": 0.0998,
      "velocity": 74,
      "chip": "ym2612"
    },
    {
      "channel": 2,
      "note": 79,
      "start": 7.0156,
      "duration": 0.0999,
      "velocity": 74,
      "chip": "ym2612"
    },
    {
      "channel": 3,
      "note": 86,
      "start": 7.0161,
      "duration": 0.0998,
      "velocity": 74,
      "chip": "ym2612"
    },
    {
      "channel": 2,
      "note": 89,
      "start": 7.1156,
      "duration": 0.0999,
      "velocity": 74,
      "chip": "ym2612"
    },
    {
      "channel": 3,
      "note": 85,
      "start": 7.1161,
      "duration": 0.0999,
      "velocity": 74,
      "chip": "ym2612"
    },
    {
      "channel": 2,
      "note": 88,
      "start": 7.2156,
      "duration": 0.0822,
      "velocity": 74,
      "chip": "ym2612"
    },
    {
      "channel": 3,
      "note": 79,
      "start": 7.2162,
      "duration": 0.0822,
      "velocity": 74,
      "chip": "ym2612"
    },
    {
      "channel": 2,
      "note": 84,
      "start": 7.298,
      "duration": 0.0998,
      "velocity": 74,
      "chip": "ym2612"
    },
    {
      "channel": 3,
      "note": 89,
      "start": 7.2985,
      "duration": 0.0998,
      "velocity": 74,
      "chip": "ym2612"
    },
    {
      "channel": 2,
      "note": 80,
      "start": 7.3979,
      "duration": 0.0999,
      "velocity": 74,
      "chip": "ym2612"
    },
    {
      "channel": 3,
      "note": 88,
      "start": 7.3985,
      "duration": 0.0998,
      "velocity": 74,
      "chip": "ym2612"
    },
    {
      "channel": 2,
      "note": 81,
      "start": 7.4979,
      "duration": 0.1004,
      "velocity": 74,
      "chip": "ym2612"
    },
    {
      "channel": 3,
      "note": 84,
      "start": 7.4985,
      "duration": 0.1004,
      "velocity": 74,
      "chip": "ym2612"
    },
    {
      "channel": 0,
      "note": 46,
      "start": 7.5978,
      "duration": 0.7673,
      "velocity": 97,
      "chip": "ym2612"
    },
    {
      "channel": 2,
      "note": 86,
      "start": 7.5985,
      "duration": 0.0823,
      "velocity": 74,
      "chip": "ym2612"
    },
    {
      "channel": 3,
      "note": 80,
      "start": 7.5991,
      "duration": 0.0822,
      "velocity": 74,
      "chip": "ym2612"
    },
    {
      "channel": 2,
      "note": 85,
      "start": 7.6809,
      "duration": 0.1003,
      "velocity": 74,
      "chip": "ym2612"
    },
    {
      "channel": 3,
      "note": 81,
      "start": 7.6815,
      "duration": 0.1003,
      "velocity": 74,
      "chip": "ym2612"
    },
    {
      "channel": 1,
      "note": 46,
      "start": 7.7808,
      "duration": 0.7673,
      "velocity": 97,
      "chip": "ym2612"
    },
    {
      "channel": 2,
      "note": 79,
      "start": 7.7814,
      "duration": 0.0993,
      "velocity": 74,
      "chip": "ym2612"
    },
    {
      "channel": 3,
      "note": 86,
      "start": 7.782,
      "duration": 0.0993,
      "velocity": 74,
      "chip": "ym2612"
    },
    {
      "channel": 2,
      "note": 89,
      "start": 7.8809,
      "duration": 0.0998,
      "velocity": 74,
      "chip": "ym2612"
    },
    {
      "channel": 3,
      "note": 85,
      "start": 7.8815,
      "duration": 0.0998,
      "velocity": 74,
      "chip": "ym2612"
    },
    {
      "channel": 2,
      "note": 88,
      "start": 7.9809,
      "duration": 0.0843,
      "velocity": 74,
      "chip": "ym2612"
    },
    {
      "channel": 3,
      "note": 79,
      "start": 7.9814,
      "duration": 0.0844,
      "velocity": 74,
      "chip": "ym2612"
    },
    {
      "channel": 2,
      "note": 84,
      "start": 8.0654,
      "duration": 0.0998,
      "velocity": 74,
      "chip": "ym2612"
    },
    {
      "channel": 3,
      "note": 89,
      "start": 8.066,
      "duration": 0.0998,
      "velocity": 74,
      "chip": "ym2612"
    },
    {
      "channel": 2,
      "note": 80,
      "start": 8.1654,
      "duration": 0.0999,
      "velocity": 74,
      "chip": "ym2612"
    },
    {
      "channel": 3,
      "note": 88,
      "start": 8.1659,
      "duration": 0.0998,
      "velocity": 74,
      "chip": "ym2612"
    },
    {
      "channel": 2,
      "note": 81,
      "start": 8.2654,
      "duration": 0.1004,
      "velocity": 74,
      "chip": "ym2612"
    },
    {
      "channel": 3,
      "note": 84,
      "start": 8.2659,
      "duration": 0.1004,
      "velocity": 74,
      "chip": "ym2612"
    },
    {
      "channel": 0,
      "note": 52,
      "start": 8.3653,
      "duration": 0.7121,
      "velocity": 97,
      "chip": "ym2612"
    },
    {
      "channel": 2,
      "note": 86,
      "start": 8.3659,
      "duration": 0.0823,
      "velocity": 74,
      "chip": "ym2612"
    },
    {
      "channel": 3,
      "note": 80,
      "start": 8.3665,
      "duration": 0.0822,
      "velocity": 74,
      "chip": "ym2612"
    },
    {
      "channel": 2,
      "note": 85,
      "start": 8.4483,
      "duration": 0.1003,
      "velocity": 74,
      "chip": "ym2612"
    },
    {
      "channel": 3,
      "note": 81,
      "start": 8.4489,
      "duration": 0.1003,
      "velocity": 74,
      "chip": "ym2612"
    },
    {
      "channel": 1,
      "note": 52,
      "start": 8.5483,
      "duration": 0.712,
      "velocity": 97,
      "chip": "ym2612"
    },
    {
      "channel": 2,
      "note": 79,
      "start": 8.5488,
      "duration": 0.0994,
      "velocity": 74,
      "chip": "ym2612"
    },
    {
      "channel": 3,
      "note": 86,
      "start": 8.5494,
      "duration": 0.0994,
      "velocity": 74,
      "chip": "ym2612"
    },
    {
      "channel": 2,
      "note": 89,
      "start": 8.6483,
      "duration": 0.0998,
      "velocity": 74,
      "chip": "ym2612"
    },
    {
      "channel": 3,
      "note": 85,
      "start": 8.6489,
      "duration": 0.0998,
      "velocity": 74,
      "chip": "ym2612"
    },
    {
      "channel": 2,
      "note": 88,
      "start": 8.7483,
      "duration": 0.0822,
      "velocity": 74,
      "chip": "ym2612"
    },
    {
      "channel": 3,
      "note": 79,
      "start": 8.7489,
      "duration": 0.0822,
      "velocity": 74,
      "chip": "ym2612"
    },
    {
      "channel": 2,
      "note": 84,
      "start": 8.8307,
      "duration": 0.0822,
      "velocity": 74,
      "chip": "ym2612"
    },
    {
      "channel": 3,
      "note": 89,
      "start": 8.8312,
      "duration": 0.0822,
      "velocity": 74,
      "chip": "ym2612"
    },
    {
      "channel": 2,
      "note": 80,
      "start": 8.913,
      "duration": 0.0822,
      "velocity": 74,
      "chip": "ym2612"
    },
    {
      "channel": 3,
      "note": 88,
      "start": 8.9136,
      "duration": 0.0822,
      "velocity": 74,
      "chip": "ym2612"
    },
    {
      "channel": 2,
      "note": 81,
      "start": 8.9954,
      "duration": 0.0826,
      "velocity": 74,
      "chip": "ym2612"
    },
    {
      "channel": 3,
      "note": 84,
      "start": 8.9959,
      "duration": 0.0826,
      "velocity": 74,
      "chip": "ym2612"
    },
    {
      "channel": 0,
      "note": 48,
      "start": 9.0775,
      "duration": 1.5321,
      "velocity": 97,
      "chip": "ym2612"
    },
    {
      "channel": 2,
      "note": 86,
      "start": 9.0781,
      "duration": 0.0823,
      "velocity": 74,
      "chip": "ym2612"
    },
    {
      "channel": 3,
      "note": 80,
      "start": 9.0787,
      "duration": 0.0822,
      "velocity": 74,
      "chip": "ym2612"
    },
    {
      "channel": 2,
      "note": 85,
      "start": 9.1606,
      "duration": 0.1003,
      "velocity": 74,
      "chip": "ym2612"
    },
    {
      "channel": 3,
      "note": 81,
      "start": 9.1611,
      "duration": 0.1003,
      "velocity": 74,
      "chip": "ym2612"
    },
    {
      "channel": 1,
      "note": 48,
      "start": 9.2605,
      "duration": 1.532,
      "velocity": 97,
      "chip": "ym2612"
    },
    {
      "channel": 2,
      "note": 79,
      "start": 9.261,
      "duration": 0.0994,
      "velocity": 74,
      "chip": "ym2612"
    },
    {
      "channel": 3,
      "note": 86,
      "start": 9.2616,
      "duration": 0.0994,
      "velocity": 74,
      "chip": "ym2612"
    },
    {
      "channel": 2,
      "note": 89,
      "start": 9.3606,
      "duration": 0.0998,
      "velocity": 74,
      "chip": "ym2612"
    },
    {
      "channel": 3,
      "note": 85,
      "start": 9.3611,
      "duration": 0.0998,
      "velocity": 74,
      "chip": "ym2612"
    },
    {
      "channel": 2,
      "note": 88,
      "start": 9.4606,
      "duration": 0.0822,
      "velocity": 74,
      "chip": "ym2612"
    },
    {
      "channel": 3,
      "note": 79,
      "start": 9.4611,
      "duration": 0.0822,
      "velocity": 74,
      "chip": "ym2612"
    },
    {
      "channel": 2,
      "note": 84,
      "start": 9.5429,
      "duration": 0.0998,
      "velocity": 74,
      "chip": "ym2612"
    },
    {
      "channel": 3,
      "note": 89,
      "start": 9.5435,
      "duration": 0.0998,
      "velocity": 74,
      "chip": "ym2612"
    },
    {
      "channel": 2,
      "note": 80,
      "start": 9.6428,
      "duration": 0.0999,
      "velocity": 74,
      "chip": "ym2612"
    },
    {
      "channel": 3,
      "note": 88,
      "start": 9.6434,
      "duration": 0.0998,
      "velocity": 74,
      "chip": "ym2612"
    },
    {
      "channel": 2,
      "note": 81,
      "start": 9.7428,
      "duration": 0.0999,
      "velocity": 74,
      "chip": "ym2612"
    },
    {
      "channel": 3,
      "note": 84,
      "start": 9.7434,
      "duration": 0.0999,
      "velocity": 74,
      "chip": "ym2612"
    },
    {
      "channel": 2,
      "note": 86,
      "start": 9.8429,
      "duration": 0.0844,
      "velocity": 74,
      "chip": "ym2612"
    },
    {
      "channel": 3,
      "note": 80,
      "start": 9.8435,
      "duration": 0.0844,
      "velocity": 74,
      "chip": "ym2612"
    },
    {
      "channel": 2,
      "note": 85,
      "start": 9.9275,
      "duration": 0.0998,
      "velocity": 74,
      "chip": "ym2612"
    },
    {
      "channel": 3,
      "note": 81,
      "start": 9.9281,
      "duration": 0.0998,
      "velocity": 74,
      "chip": "ym2612"
    },
    {
      "channel": 2,
      "note": 79,
      "start": 10.0275,
      "duration": 0.0999,
      "velocity": 74,
      "chip": "ym2612"
    },
    {
      "channel": 3,
      "note": 86,
      "start": 10.028,
      "duration": 0.0998,
      "velocity": 74,
      "chip": "ym2612"
    },
    {
      "channel": 2,
      "note": 89,
      "start": 10.1275,
      "duration": 0.0999,
      "velocity": 74,
      "chip": "ym2612"
    },
    {
      "channel": 3,
      "note": 85,
      "start": 10.128,
      "duration": 0.0999,
      "velocity": 74,
      "chip": "ym2612"
    },
    {
      "channel": 2,
      "note": 88,
      "start": 10.2275,
      "duration": 0.0821,
      "velocity": 74,
      "chip": "ym2612"
    },
    {
      "channel": 3,
      "note": 79,
      "start": 10.2281,
      "duration": 0.0821,
      "velocity": 74,
      "chip": "ym2612"
    },
    {
      "channel": 2,
      "note": 84,
      "start": 10.3098,
      "duration": 0.0998,
      "velocity": 74,
      "chip": "ym2612"
    },
    {
      "channel": 3,
      "note": 89,
      "start": 10.3104,
      "duration": 0.0998,
      "velocity": 74,
      "chip": "ym2612"
    },
    {
      "channel": 2,
      "note": 80,
      "start": 10.4098,
      "duration": 0.0999,
      "velocity": 74,
      "chip": "ym2612"
    },
    {
      "channel": 3,
      "note": 88,
      "start": 10.4103,
      "duration": 0.0998,
      "velocity": 74,
      "chip": "ym2612"
    },
    {
      "channel": 2,
      "note": 81,
      "start": 10.5098,
      "duration": 0.1004,
      "velocity": 74,
      "chip": "ym2612"
    },
    {
      "channel": 3,
      "note": 84,
      "start": 10.5103,
      "duration": 0.1004,
      "velocity": 74,
      "chip": "ym2612"
    },
    {
      "channel": 0,
      "note": 42,
      "start": 10.6097,
      "duration": 1.4814,
      "velocity": 108,
      "chip": "ym2612"
    },
    {
      "channel": 2,
      "note": 86,
      "start": 10.6103,
      "duration": 0.0823,
      "velocity": 74,
      "chip": "ym2612"
    },
    {
      "channel": 3,
      "note": 80,
      "start": 10.6109,
      "duration": 0.0822,
      "velocity": 74,
      "chip": "ym2612"
    },
    {
      "channel": 2,
      "note": 85,
      "start": 10.6927,
      "duration": 0.1003,
      "velocity": 74,
      "chip": "ym2612"
    },
    {
      "channel": 3,
      "note": 81,
      "start": 10.6933,
      "duration": 0.1003,
      "velocity": 74,
      "chip": "ym2612"
    },
    {
      "channel": 1,
      "note": 42,
      "start": 10.7927,
      "duration": 1.3005,
      "velocity": 112,
      "chip": "ym2612"
    },
    {
      "channel": 2,
      "note": 79,
      "start": 10.7932,
      "duration": 0.0993,
      "velocity": 74,
      "chip": "ym2612"
    },
    {
      "channel": 3,
      "note": 86,
      "start": 10.7938,
      "duration": 0.0993,
      "velocity": 74,
      "chip": "ym2612"
    },
    {
      "channel": 2,
      "note": 89,
      "start": 10.8927,
      "duration": 0.0998,
      "velocity": 74,
      "chip": "ym2612"
    },
    {
      "channel": 3,
      "note": 85,
      "start": 10.8933,
      "duration": 0.0998,
      "velocity": 74,
      "chip": "ym2612"
    },
    {
      "channel": 2,
      "note": 88,
      "start": 10.9927,
      "duration": 0.0822,
      "velocity": 74,
      "chip": "ym2612"
    },
    {
      "channel": 3,
      "note": 79,
      "start": 10.9933,
      "duration": 0.0822,
      "velocity": 74,
      "chip": "ym2612"
    },
    {
      "channel": 2,
      "note": 84,
      "start": 11.0751,
      "duration": 0.0998,
      "velocity": 74,
      "chip": "ym2612"
    },
    {
      "channel": 3,
      "note": 89,
      "start": 11.0756,
      "duration": 0.0998,
      "velocity": 74,
      "chip": "ym2612"
    },
    {
      "channel": 2,
      "note": 80,
      "start": 11.175,
      "duration": 0.0999,
      "velocity": 74,
      "chip": "ym2612"
    },
    {
      "channel": 3,
      "note": 88,
      "start": 11.1756,
      "duration": 0.0998,
      "velocity": 74,
      "chip": "ym2612"
    },
    {
      "channel": 2,
      "note": 81,
      "start": 11.275,
      "duration": 0.0999,
      "velocity": 74,
      "chip": "ym2612"
    },
    {
      "channel": 3,
      "note": 84,
      "start": 11.2756,
      "duration": 0.0999,
      "velocity": 74,
      "chip": "ym2612"
    },
    {
      "channel": 2,
      "note": 86,
      "start": 11.3751,
      "duration": 0.0822,
      "velocity": 74,
      "chip": "ym2612"
    },
    {
      "channel": 3,
      "note": 80,
      "start": 11.3756,
      "duration": 0.0822,
      "velocity": 74,
      "chip": "ym2612"
    },
    {
      "channel": 2,
      "note": 85,
      "start": 11.4574,
      "duration": 0.0998,
      "velocity": 74,
      "chip": "ym2612"
    },
    {
      "channel": 3,
      "note": 81,
      "start": 11.458,
      "duration": 0.0998,
      "velocity": 74,
      "chip": "ym2612"
    },
    {
      "channel": 2,
      "note": 79,
      "start": 11.5573,
      "duration": 0.0999,
      "velocity": 74,
      "chip": "ym2612"
    },
    {
      "channel": 3,
      "note": 86,
      "start": 11.5579,
      "duration": 0.0998,
      "velocity": 74,
      "chip": "ym2612"
    },
    {
      "channel": 2,
      "note": 89,
      "start": 11.6573,
      "duration": 0.0999,
      "velocity": 74,
      "chip": "ym2612"
    },
    {
      "channel": 3,
      "note": 85,
      "start": 11.6579,
      "duration": 0.0999,
      "velocity": 74,
      "chip": "ym2612"
    },
    {
      "channel": 2,
      "note": 88,
      "start": 11.7574,
      "duration": 0.0822,
      "velocity": 74,
      "chip": "ym2612"
    },
    {
      "channel": 3,
      "note": 79,
      "start": 11.758,
      "duration": 0.0822,
      "velocity": 74,
      "chip": "ym2612"
    },
    {
      "channel": 2,
      "note": 84,
      "start": 11.8398,
      "duration": 0.0822,
      "velocity": 74,
      "chip": "ym2612"
    },
    {
      "channel": 3,
      "note": 89,
      "start": 11.8403,
      "duration": 0.0822,
      "velocity": 74,
      "chip": "ym2612"
    },
    {
      "channel": 2,
      "note": 80,
      "start": 11.9221,
      "duration": 0.0844,
      "velocity": 74,
      "chip": "ym2612"
    },
    {
      "channel": 3,
      "note": 88,
      "start": 11.9226,
      "duration": 0.0844,
      "velocity": 74,
      "chip": "ym2612"
    },
    {
      "channel": 2,
      "note": 81,
      "start": 12.0066,
      "duration": 0.0872,
      "velocity": 74,
      "chip": "ym2612"
    },
    {
      "channel": 3,
      "note": 84,
      "start": 12.0072,
      "duration": 0.0872,
      "velocity": 74,
      "chip": "ym2612"
    },
    {
      "channel": 0,
      "note": 38,
      "start": 12.0912,
      "duration": 0.2812,
      "velocity": 108,
      "chip": "ym2612"
    },
    {
      "channel": 1,
      "note": 50,
      "start": 12.0933,
      "duration": 0.179,
      "velocity": 112,
      "chip": "ym2612"
    },
    {
      "channel": 2,
      "note": 86,
      "start": 12.094,
      "duration": 0.0801,
      "velocity": 74,
      "chip": "ym2612"
    },
    {
      "channel": 3,
      "note": 88,
      "start": 12.0945,
      "duration": 0.0801,
      "velocity": 74,
      "chip": "ym2612"
    },
    {
      "channel": 2,
      "note": 85,
      "start": 12.1742,
      "duration": 0.0987,
      "velocity": 74,
      "chip": "ym2612"
    },
    {
      "channel": 3,
      "note": 84,
      "start": 12.1747,
      "duration": 0.0987,
      "velocity": 74,
      "chip": "ym2612"
    },
    {
      "channel": 1,
      "note": 62,
      "start": 12.2725,
      "duration": 0.1003,
      "velocity": 112,
      "chip": "ym2612"
    },
    {
      "channel": 2,
      "note": 79,
      "start": 12.2731,
      "duration": 0.1003,
      "velocity": 74,
      "chip": "ym2612"
    },
    {
      "channel": 3,
      "note": 86,
      "start": 12.2737,
      "duration": 0.1003,
      "velocity": 74,
      "chip": "ym2612"
    },
    {
      "channel": 0,
      "note": 38,
      "start": 12.3724,
      "duration": 0.2659,
      "velocity": 108,
      "chip": "ym2612"
    },
    {
      "channel": 1,
      "note": 50,
      "start": 12.373,
      "duration": 0.1776,
      "velocity": 112,
      "chip": "ym2612"
    },
    {
      "channel": 2,
      "note": 89,
      "start": 12.3736,
      "duration": 0.0988,
      "velocity": 74,
      "chip": "ym2612"
    },
    {
      "channel": 3,
      "note": 85,
      "start": 12.3742,
      "duration": 0.0989,
      "velocity": 74,
      "chip": "ym2612"
    },
    {
      "channel": 2,
      "note": 88,
      "start": 12.4727,
      "duration": 0.0785,
      "velocity": 74,
      "chip": "ym2612"
    },
    {
      "channel": 3,
      "note": 79,
      "start": 12.4732,
      "duration": 0.0785,
      "velocity": 74,
      "chip": "ym2612"
    },
    {
      "channel": 1,
      "note": 62,
      "start": 12.5508,
      "duration": 0.0881,
      "velocity": 112,
      "chip": "ym2612"
    },
    {
      "channel": 2,
      "note": 84,
      "start": 12.5513,
      "duration": 0.0882,
      "velocity": 74,
      "chip": "ym2612"
    },
    {
      "channel": 3,
      "note": 89,
      "start": 12.5519,
      "duration": 0.0881,
      "velocity": 74,
      "chip": "ym2612"
    },
    {
      "channel": 0,
      "note": 50,
      "start": 12.6385,
      "duration": 0.0833,
      "velocity": 108,
      "chip": "ym2612"
    },
    {
      "channel": 1,
      "note": 50,
      "start": 12.6391,
      "duration": 0.0833,
      "velocity": 112,
      "chip": "ym2612"
    },
    {
      "channel": 2,
      "note": 80,
      "start": 12.6396,
      "duration": 0.0833,
      "velocity": 74,
      "chip": "ym2612"
    },
    {
      "channel": 3,
      "note": 88,
      "start": 12.6402,
      "duration": 0.0833,
      "velocity": 74,
      "chip": "ym2612"
    },
    {
      "channel": 0,
      "note": 50,
      "start": 12.722,
      "duration": 0.0998,
      "velocity": 108,
      "chip": "ym2612"
    },
    {
      "channel": 1,
      "note": 62,
      "start": 12.7225,
      "duration": 0.0998,
      "velocity": 112,
      "chip": "ym2612"
    },
    {
      "channel": 2,
      "note": 81,
      "start": 12.7231,
      "duration": 0.0998,
      "velocity": 74,
      "chip": "ym2612"
    },
    {
      "channel": 3,
      "note": 84,
      "start": 12.7236,
      "duration": 0.0998,
      "velocity": 74,
      "chip": "ym2612"
    },
    {
      "channel": 0,
      "note": 38,
      "start": 12.822,
      "duration": 0.2998,
      "velocity": 108,
      "chip": "ym2612"
    },
    {
      "channel": 1,
      "note": 50,
      "start": 12.8225,
      "duration": 0.1993,
      "velocity": 112,
      "chip": "ym2612"
    },
    {
      "channel": 2,
      "note": 86,
      "start": 12.8231,
      "duration": 0.0988,
      "velocity": 74,
      "chip": "ym2612"
    },
    {
      "channel": 3,
      "note": 80,
      "start": 12.8236,
      "duration": 0.0988,
      "velocity": 74,
      "chip": "ym2612"
    },
    {
      "channel": 2,
      "note": 85,
      "start": 12.922,
      "duration": 0.1003,
      "velocity": 74,
      "chip": "ym2612"
    },
    {
      "channel": 3,
      "note": 81,
      "start": 12.9226,
      "duration": 0.1003,
      "velocity": 74,
      "chip": "ym2612"
    },
    {
      "channel": 1,
      "note": 62,
      "start": 13.022,
      "duration": 0.1003,
      "velocity": 112,
      "chip": "ym2612"
    },
    {
      "channel": 2,
      "note": 79,
      "start": 13.0225,
      "duration": 0.1003,
      "velocity": 74,
      "chip": "ym2612"
    },
    {
      "channel": 3,
      "note": 86,
      "start": 13.0231,
      "duration": 0.1003,
      "velocity": 74,
      "chip": "ym2612"
    },
    {
      "channel": 0,
      "note": 38,
      "start": 13.1219,
      "duration": 0.2659,
      "velocity": 108,
      "chip": "ym2612"
    },
    {
      "channel": 1,
      "note": 50,
      "start": 13.1225,
      "duration": 0.1776,
      "velocity": 112,
      "chip": "ym2612"
    },
    {
      "channel": 2,
      "note": 89,
      "start": 13.1231,
      "duration": 0.0988,
      "velocity": 74,
      "chip": "ym2612"
    },
    {
      "channel": 3,
      "note": 85,
      "start": 13.1236,
      "duration": 0.0989,
      "velocity": 74,
      "chip": "ym2612"
    },
    {
      "channel": 2,
      "note": 88,
      "start": 13.2221,
      "duration": 0.0785,
      "velocity": 74,
      "chip": "ym2612"
    },
    {
      "channel": 3,
      "note": 79,
      "start": 13.2227,
      "duration": 0.0785,
      "velocity": 74,
      "chip": "ym2612"
    },
    {
      "channel": 1,
      "note": 62,
      "start": 13.3003,
      "duration": 0.0881,
      "velocity": 112,
      "chip": "ym2612"
    },
    {
      "channel": 2,
      "note": 84,
      "start": 13.3008,
      "duration": 0.0881,
      "velocity": 74,
      "chip": "ym2612"
    },
    {
      "channel": 3,
      "note": 89,
      "start": 13.3014,
      "duration": 0.0881,
      "velocity": 74,
      "chip": "ym2612"
    },
    {
      "channel": 0,
      "note": 50,
      "start": 13.388,
      "duration": 0.0998,
      "velocity": 108,
      "chip": "ym2612"
    },
    {
      "channel": 1,
      "note": 50,
      "start": 13.3885,
      "duration": 0.0998,
      "velocity": 112,
      "chip": "ym2612"
    },
    {
      "channel": 2,
      "note": 80,
      "start": 13.3891,
      "duration": 0.0998,
      "velocity": 74,
      "chip": "ym2612"
    },
    {
      "channel": 3,
      "note": 88,
      "start": 13.3896,
      "duration": 0.0998,
      "velocity": 74,
      "chip": "ym2612"
    },
    {
      "channel": 0,
      "note": 50,
      "start": 13.4879,
      "duration": 0.0999,
      "velocity": 108,
      "chip": "ym2612"
    },
    {
      "channel": 1,
      "note": 62,
      "start": 13.4885,
      "duration": 0.0999,
      "velocity": 112,
      "chip": "ym2612"
    },
    {
      "channel": 2,
      "note": 81,
      "start": 13.4891,
      "duration": 0.0999,
      "velocity": 74,
      "chip": "ym2612"
    },
    {
      "channel": 3,
      "note": 84,
      "start": 13.4896,
      "duration": 0.0998,
      "velocity": 74,
      "chip": "ym2612"
    },
    {
      "channel": 0,
      "note": 38,
      "start": 13.588,
      "duration": 0.2833,
      "velocity": 108,
      "chip": "ym2612"
    },
    {
      "channel": 1,
      "note": 50,
      "start": 13.5885,
      "duration": 0.1827,
      "velocity": 112,
      "chip": "ym2612"
    },
    {
      "channel": 2,
      "note": 86,
      "start": 13.5891,
      "duration": 0.0823,
      "velocity": 74,
      "chip": "ym2612"
    },
    {
      "channel": 3,
      "note": 80,
      "start": 13.5896,
      "duration": 0.0823,
      "velocity": 74,
      "chip": "ym2612"
    },
    {
      "channel": 2,
      "note": 85,
      "start": 13.6716,
      "duration": 0.1002,
      "velocity": 74,
      "chip": "ym2612"
    },
    {
      "channel": 3,
      "note": 81,
      "start": 13.6721,
      "duration": 0.1002,
      "velocity": 74,
      "chip": "ym2612"
    },
    {
      "channel": 1,
      "note": 62,
      "start": 13.7714,
      "duration": 0.1004,
      "velocity": 112,
      "chip": "ym2612"
    },
    {
      "channel": 2,
      "note": 79,
      "start": 13.772,
      "duration": 0.1004,
      "velocity": 74,
      "chip": "ym2612"
    },
    {
      "channel": 3,
      "note": 86,
      "start": 13.7725,
      "duration": 0.1004,
      "velocity": 74,
      "chip": "ym2612"
    },
    {
      "channel": 0,
      "note": 38,
      "start": 13.8714,
      "duration": 0.2658,
      "velocity": 108,
      "chip": "ym2612"
    },
    {
      "channel": 1,
      "note": 50,
      "start": 13.872,
      "duration": 0.1776,
      "velocity": 112,
      "chip": "ym2612"
    },
    {
      "channel": 2,
      "note": 89,
      "start": 13.8725,
      "duration": 0.0988,
      "velocity": 74,
      "chip": "ym2612"
    },
    {
      "channel": 3,
      "note": 85,
      "start": 13.8731,
      "duration": 0.0989,
      "velocity": 74,
      "chip": "ym2612"
    },
    {
      "channel": 2,
      "note": 88,
      "start": 13.9716,
      "duration": 0.0785,
      "velocity": 74,
      "chip": "ym2612"
    },
    {
      "channel": 3,
      "note": 79,
      "start": 13.9721,
      "duration": 0.0785,
      "velocity": 74,
      "chip": "ym2612"
    },
    {
      "channel": 1,
      "note": 62,
      "start": 14.0497,
      "duration": 0.0881,
      "velocity": 112,
      "chip": "ym2612"
    },
    {
      "channel": 2,
      "note": 84,
      "start": 14.0502,
      "duration": 0.0881,
      "velocity": 74,
      "chip": "ym2612"
    },
    {
      "channel": 3,
      "note": 89,
      "start": 14.0508,
      "duration": 0.0881,
      "velocity": 74,
      "chip": "ym2612"
    },
    {
      "channel": 0,
      "note": 50,
      "start": 14.1374,
      "duration": 0.0833,
      "velocity": 108,
      "chip": "ym2612"
    },
    {
      "channel": 1,
      "note": 50,
      "start": 14.138,
      "duration": 0.0833,
      "velocity": 112,
      "chip": "ym2612"
    },
    {
      "channel": 2,
      "note": 80,
      "start": 14.1385,
      "duration": 0.0833,
      "velocity": 74,
      "chip": "ym2612"
    },
    {
      "channel": 3,
      "note": 88,
      "start": 14.1391,
      "duration": 0.0833,
      "velocity": 74,
      "chip": "ym2612"
    },
    {
      "channel": 0,
      "note": 50,
      "start": 14.2209,
      "duration": 0.0998,
      "velocity": 108,
      "chip": "ym2612"
    },
    {
      "channel": 1,
      "note": 62,
      "start": 14.2214,
      "duration": 0.0998,
      "velocity": 112,
      "chip": "ym2612"
    },
    {
      "channel": 2,
      "note": 81,
      "start": 14.222,
      "duration": 0.0998,
      "velocity": 74,
      "chip": "ym2612"
    },
    {
      "channel": 3,
      "note": 84,
      "start": 14.2225,
      "duration": 0.0998,
      "velocity": 74,
      "chip": "ym2612"
    },
    {
      "channel": 0,
      "note": 39,
      "start": 14.3209,
      "duration": 0.2824,
      "velocity": 108,
      "chip": "ym2612"
    },
    {
      "channel": 1,
      "note": 51,
      "start": 14.3214,
      "duration": 0.1994,
      "velocity": 112,
      "chip": "ym2612"
    },
    {
      "channel": 2,
      "note": 86,
      "start": 14.322,
      "duration": 0.0988,
      "velocity": 74,
      "chip": "ym2612"
    },
    {
      "channel": 3,
      "note": 80,
      "start": 14.3225,
      "duration": 0.0988,
      "velocity": 74,
      "chip": "ym2612"
    },
    {
      "channel": 2,
      "note": 85,
      "start": 14.4209,
      "duration": 0.1003,
      "velocity": 74,
      "chip": "ym2612"
    },
    {
      "channel": 3,
      "note": 81,
      "start": 14.4215,
      "duration": 0.1003,
      "velocity": 74,
      "chip": "ym2612"
    },
    {
      "channel": 1,
      "note": 63,
      "start": 14.5209,
      "duration": 0.0829,
      "velocity": 112,
      "chip": "ym2612"
    },
    {
      "channel": 2,
      "note": 79,
      "start": 14.5214,
      "duration": 0.0829,
      "velocity": 74,
      "chip": "ym2612"
    },
    {
      "channel": 3,
      "note": 86,
      "start": 14.522,
      "duration": 0.0829,
      "velocity": 74,
      "chip": "ym2612"
    },
    {
      "channel": 0,
      "note": 51,
      "start": 14.6034,
      "duration": 0.1626,
      "velocity": 108,
      "chip": "ym2612"
    },
    {
      "channel": 1,
      "note": 51,
      "start": 14.604,
      "duration": 0.1625,
      "velocity": 112,
      "chip": "ym2612"
    },
    {
      "channel": 2,
      "note": 89,
      "start": 14.6045,
      "duration": 0.0823,
      "velocity": 74,
      "chip": "ym2612"
    },
    {
      "channel": 3,
      "note": 85,
      "start": 14.6051,
      "duration": 0.0823,
      "velocity": 74,
      "chip": "ym2612"
    },
    {
      "channel": 2,
      "note": 88,
      "start": 14.687,
      "duration": 0.0801,
      "velocity": 74,
      "chip": "ym2612"
    },
    {
      "channel": 3,
      "note": 79,
      "start": 14.6876,
      "duration": 0.0801,
      "velocity": 74,
      "chip": "ym2612"
    },
    {
      "channel": 0,
      "note": 39,
      "start": 14.7661,
      "duration": 0.0804,
      "velocity": 108,
      "chip": "ym2612"
    },
    {
      "channel": 1,
      "note": 63,
      "start": 14.7667,
      "duration": 0.0804,
      "velocity": 112,
      "chip": "ym2612"
    },
    {
      "channel": 2,
      "note": 84,
      "start": 14.7673,
      "duration": 0.0803,
      "velocity": 74,
      "chip": "ym2612"
    },
    {
      "channel": 3,
      "note": 89,
      "start": 14.7678,
      "duration": 0.0804,
      "velocity": 74,
      "chip": "ym2612"
    },
    {
      "channel": 0,
      "note": 35,
      "start": 14.8466,
      "duration": 0.158,
      "velocity": 108,
      "chip": "ym2612"
    },
    {
      "channel": 1,
      "note": 47,
      "start": 14.8471,
      "duration": 0.0787,
      "velocity": 112,
      "chip": "ym2612"
    },
    {
      "channel": 2,
      "note": 80,
      "start": 14.8477,
      "duration": 0.0787,
      "velocity": 74,
      "chip": "ym2612"
    },
    {
      "channel": 3,
      "note": 88,
      "start": 14.8483,
      "duration": 0.0787,
      "velocity": 74,
      "chip": "ym2612"
    },
    {
      "channel": 1,
      "note": 59,
      "start": 14.926,
      "duration": 0.0792,
      "velocity": 112,
      "chip": "ym2612"
    },
    {
      "channel": 2,
      "note": 81,
      "start": 14.9266,
      "duration": 0.0792,
      "velocity": 74,
      "chip": "ym2612"
    },
    {
      "channel": 3,
      "note": 84,
      "start": 14.9271,
      "duration": 0.0792,
      "velocity": 74,
      "chip": "ym2612"
    },
    {
      "channel": 0,
      "note": 38,
      "start": 15.0048,
      "duration": 0.2836,
      "velocity": 108,
      "chip": "ym2612"
    },
    {
      "channel": 1,
      "note": 50,
      "start": 15.0054,
      "duration": 0.183,
      "velocity": 112,
      "chip": "ym2612"
    },
    {
      "channel": 2,
      "note": 86,
      "start": 15.0059,
      "duration": 0.0825,
      "velocity": 74,
      "chip": "ym2612"
    },
    {
      "channel": 3,
      "note": 80,
      "start": 15.0065,
      "duration": 0.0826,
      "velocity": 74,
      "chip": "ym2612"
    },
    {
      "channel": 2,
      "note": 85,
      "start": 15.0887,
      "duration": 0.1002,
      "velocity": 74,
      "chip": "ym2612"
    },
    {
      "channel": 3,
      "note": 81,
      "start": 15.0893,
      "duration": 0.1002,
      "velocity": 74,
      "chip": "ym2612"
    },
    {
      "channel": 1,
      "note": 62,
      "start": 15.1885,
      "duration": 0.1003,
      "velocity": 112,
      "chip": "ym2612"
    },
    {
      "channel": 2,
      "note": 79,
      "start": 15.1891,
      "duration": 0.1003,
      "velocity": 74,
      "chip": "ym2612"
    },
    {
      "channel": 3,
      "note": 86,
      "start": 15.1897,
      "duration": 0.1003,
      "velocity": 74,
      "chip": "ym2612"
    },
    {
      "channel": 0,
      "note": 38,
      "start": 15.2885,
      "duration": 0.2659,
      "velocity": 108,
      "chip": "ym2612"
    },
    {
      "channel": 1,
      "note": 50,
      "start": 15.2891,
      "duration": 0.1776,
      "velocity": 112,
      "chip": "ym2612"
    },
    {
      "channel": 2,
      "note": 89,
      "start": 15.2896,
      "duration": 0.0988,
      "velocity": 74,
      "chip": "ym2612"
    },
    {
      "channel": 3,
      "note": 85,
      "start": 15.2902,
      "duration": 0.0989,
      "velocity": 74,
      "chip": "ym2612"
    },
    {
      "channel": 2,
      "note": 88,
      "start": 15.3887,
      "duration": 0.0785,
      "velocity": 74,
      "chip": "ym2612"
    },
    {
      "channel": 3,
      "note": 79,
      "start": 15.3893,
      "duration": 0.0785,
      "velocity": 74,
      "chip": "ym2612"
    },
    {
      "channel": 1,
      "note": 62,
      "start": 15.4668,
      "duration": 0.0881,
      "velocity": 112,
      "chip": "ym2612"
    },
    {
      "channel": 2,
      "note": 84,
      "start": 15.4673,
      "duration": 0.0882,
      "velocity": 74,
      "chip": "ym2612"
    },
    {
      "channel": 3,
      "note": 89,
      "start": 15.4679,
      "duration": 0.0881,
      "velocity": 74,
      "chip": "ym2612"
    },
    {
      "channel": 0,
      "note": 50,
      "start": 15.5546,
      "duration": 0.0833,
      "velocity": 108,
      "chip": "ym2612"
    },
    {
      "channel": 1,
      "note": 50,
      "start": 15.5551,
      "duration": 0.0833,
      "velocity": 112,
      "chip": "ym2612"
    },
    {
      "channel": 2,
      "note": 80,
      "start": 15.5556,
      "duration": 0.0833,
      "velocity": 74,
      "chip": "ym2612"
    },
    {
      "channel": 3,
      "note": 88,
      "start": 15.5562,
      "duration": 0.0833,
      "velocity": 74,
      "chip": "ym2612"
    },
    {
      "channel": 0,
      "note": 50,
      "start": 15.638,
      "duration": 0.0998,
      "velocity": 108,
      "chip": "ym2612"
    },
    {
      "channel": 1,
      "note": 62,
      "start": 15.6386,
      "duration": 0.0998,
      "velocity": 112,
      "chip": "ym2612"
    },
    {
      "channel": 2,
      "note": 81,
      "start": 15.6391,
      "duration": 0.0998,
      "velocity": 74,
      "chip": "ym2612"
    },
    {
      "channel": 3,
      "note": 84,
      "start": 15.6397,
      "duration": 0.0998,
      "velocity": 74,
      "chip": "ym2612"
    },
    {
      "channel": 0,
      "note": 38,
      "start": 15.7379,
      "duration": 0.2999,
      "velocity": 108,
      "chip": "ym2612"
    },
    {
      "channel": 1,
      "note": 50,
      "start": 15.7385,
      "duration": 0.1993,
      "velocity": 112,
      "chip": "ym2612"
    },
    {
      "channel": 2,
      "note": 86,
      "start": 15.7391,
      "duration": 0.0988,
      "velocity": 74,
      "chip": "ym2612"
    },
    {
      "channel": 3,
      "note": 80,
      "start": 15.7397,
      "duration": 0.0989,
      "velocity": 74,
      "chip": "ym2612"
    },
    {
      "channel": 2,
      "note": 85,
      "start": 15.8381,
      "duration": 0.1003,
      "velocity": 74,
      "chip": "ym2612"
    },
    {
      "channel": 3,
      "note": 81,
      "start": 15.8386,
      "duration": 0.1003,
      "velocity": 74,
      "chip": "ym2612"
    },
    {
      "channel": 1,
      "note": 62,
      "start": 15.938,
      "duration": 0.1003,
      "velocity": 112,
      "chip": "ym2612"
    },
    {
      "channel": 2,
      "note": 79,
      "start": 15.9386,
      "duration": 0.1003,
      "velocity": 74,
      "chip": "ym2612"
    },
    {
      "channel": 3,
      "note": 86,
      "start": 15.9392,
      "duration": 0.1003,
      "velocity": 74,
      "chip": "ym2612"
    },
    {
      "channel": 0,
      "note": 38,
      "start": 16.0379,
      "duration": 0.2659,
      "velocity": 108,
      "chip": "ym2612"
    },
    {
      "channel": 1,
      "note": 50,
      "start": 16.0385,
      "duration": 0.1776,
      "velocity": 112,
      "chip": "ym2612"
    },
    {
      "channel": 2,
      "note": 89,
      "start": 16.0391,
      "duration": 0.0988,
      "velocity": 74,
      "chip": "ym2612"
    },
    {
      "channel": 3,
      "note": 85,
      "start": 16.0397,
      "duration": 0.0989,
      "velocity": 74,
      "chip": "ym2612"
    },
    {
      "channel": 2,
      "note": 88,
      "start": 16.1381,
      "duration": 0.0785,
      "velocity": 74,
      "chip": "ym2612"
    },
    {
      "channel": 3,
      "note": 79,
      "start": 16.1387,
      "duration": 0.0785,
      "velocity": 74,
      "chip": "ym2612"
    },
    {
      "channel": 1,
      "note": 62,
      "start": 16.2163,
      "duration": 0.0881,
      "velocity": 112,
      "chip": "ym2612"
    },
    {
      "channel": 2,
      "note": 84,
      "start": 16.2168,
      "duration": 0.0881,
      "velocity": 74,
      "chip": "ym2612"
    },
    {
      "channel": 3,
      "note": 89,
      "start": 16.2174,
      "duration": 0.0881,
      "velocity": 74,
      "chip": "ym2612"
    },
    {
      "channel": 0,
      "note": 50,
      "start": 16.304,
      "duration": 0.0998,
      "velocity": 108,
      "chip": "ym2612"
    },
    {
      "channel": 1,
      "note": 50,
      "start": 16.3045,
      "duration": 0.0998,
      "velocity": 112,
      "chip": "ym2612"
    },
    {
      "channel": 2,
      "note": 80,
      "start": 16.3051,
      "duration": 0.0998,
      "velocity": 74,
      "chip": "ym2612"
    },
    {
      "channel": 3,
      "note": 88,
      "start": 16.3057,
      "duration": 0.0998,
      "velocity": 74,
      "chip": "ym2612"
    },
    {
      "channel": 0,
      "note": 50,
      "start": 16.4039,
      "duration": 0.0999,
      "velocity": 108,
      "chip": "ym2612"
    },
    {
      "channel": 1,
      "note": 62,
      "start": 16.4045,
      "duration": 0.0999,
      "velocity": 112,
      "chip": "ym2612"
    },
    {
      "channel": 2,
      "note": 81,
      "start": 16.4051,
      "duration": 0.0999,
      "velocity": 74,
      "chip": "ym2612"
    },
    {
      "channel": 3,
      "note": 84,
      "start": 16.4057,
      "duration": 0.0999,
      "velocity": 74,
      "chip": "ym2612"
    },
    {
      "channel": 0,
      "note": 38,
      "start": 16.504,
      "duration": 0.2839,
      "velocity": 108,
      "chip": "ym2612"
    },
    {
      "channel": 1,
      "note": 50,
      "start": 16.5046,
      "duration": 0.1833,
      "velocity": 112,
      "chip": "ym2612"
    },
    {
      "channel": 2,
      "note": 86,
      "start": 16.5051,
      "duration": 0.0829,
      "velocity": 74,
      "chip": "ym2612"
    },
    {
      "channel": 3,
      "note": 80,
      "start": 16.5057,
      "duration": 0.0829,
      "velocity": 74,
      "chip": "ym2612"
    },
    {
      "channel": 2,
      "note": 85,
      "start": 16.5882,
      "duration": 0.1002,
      "velocity": 74,
      "chip": "ym2612"
    },
    {
      "channel": 3,
      "note": 81,
      "start": 16.5888,
      "duration": 0.1002,
      "velocity": 74,
      "chip": "ym2612"
    },
    {
      "channel": 1,
      "note": 62,
      "start": 16.688,
      "duration": 0.1003,
      "velocity": 112,
      "chip": "ym2612"
    },
    {
      "channel": 2,
      "note": 79,
      "start": 16.6886,
      "duration": 0.1003,
      "velocity": 74,
      "chip": "ym2612"
    },
    {
      "channel": 3,
      "note": 86,
      "start": 16.6892,
      "duration": 0.1003,
      "velocity": 74,
      "chip": "ym2612"
    },
    {
      "channel": 0,
      "note": 38,
      "start": 16.788,
      "duration": 0.2659,
      "velocity": 108,
      "chip": "ym2612"
    },
    {
      "channel": 1,
      "note": 50,
      "start": 16.7886,
      "duration": 0.1776,
      "velocity": 112,
      "chip": "ym2612"
    },
    {
      "channel": 2,
      "note": 89,
      "start": 16.7891,
      "duration": 0.0988,
      "velocity": 74,
      "chip": "ym2612"
    },
    {
      "channel": 3,
      "note": 85,
      "start": 16.7897,
      "duration": 0.0989,
      "velocity": 74,
      "chip": "ym2612"
    },
    {
      "channel": 2,
      "note": 88,
      "start": 16.8882,
      "duration": 0.0785,
      "velocity": 74,
      "chip": "ym2612"
    },
    {
      "channel": 3,
      "note": 79,
      "start": 16.8888,
      "duration": 0.0785,
      "velocity": 74,
      "chip": "ym2612"
    },
    {
      "channel": 1,
      "note": 62,
      "start": 16.9663,
      "duration": 0.0881,
      "velocity": 112,
      "chip": "ym2612"
    },
    {
      "channel": 2,
      "note": 84,
      "start": 16.9668,
      "duration": 0.0882,
      "velocity": 74,
      "chip": "ym2612"
    },
    {
      "channel": 3,
      "note": 89,
      "start": 16.9674,
      "duration": 0.0881,
      "velocity": 74,
      "chip": "ym2612"
    },
    {
      "channel": 0,
      "note": 50,
      "start": 17.0541,
      "duration": 0.0833,
      "velocity": 108,
      "chip": "ym2612"
    },
    {
      "channel": 1,
      "note": 50,
      "start": 17.0546,
      "duration": 0.0833,
      "velocity": 112,
      "chip": "ym2612"
    },
    {
      "channel": 2,
      "note": 80,
      "start": 17.0551,
      "duration": 0.0833,
      "velocity": 74,
      "chip": "ym2612"
    },
    {
      "channel": 3,
      "note": 88,
      "start": 17.0557,
      "duration": 0.0833,
      "velocity": 74,
      "chip": "ym2612"
    },
    {
      "channel": 0,
      "note": 50,
      "start": 17.1375,
      "duration": 0.0998,
      "velocity": 108,
      "chip": "ym2612"
    },
    {
      "channel": 1,
      "note": 62,
      "start": 17.1381,
      "duration": 0.0998,
      "velocity": 112,
      "chip": "ym2612"
    },
    {
      "channel": 2,
      "note": 81,
      "start": 17.1386,
      "duration": 0.0998,
      "velocity": 74,
      "chip": "ym2612"
    },
    {
      "channel": 3,
      "note": 84,
      "start": 17.1392,
      "duration": 0.0998,
      "velocity": 74,
      "chip": "ym2612"
    },
    {
      "channel": 0,
      "note": 39,
      "start": 17.2375,
      "duration": 0.1998,
      "velocity": 108,
      "chip": "ym2612"
    },
    {
      "channel": 1,
      "note": 51,
      "start": 17.238,
      "duration": 0.0994,
      "velocity": 112,
      "chip": "ym2612"
    },
    {
      "channel": 2,
      "note": 86,
      "start": 17.2386,
      "duration": 0.0993,
      "velocity": 74,
      "chip": "ym2612"
    },
    {
      "channel": 3,
      "note": 80,
      "start": 17.2392,
      "duration": 0.0993,
      "velocity": 74,
      "chip": "ym2612"
    },
    {
      "channel": 1,
      "note": 63,
      "start": 17.3375,
      "duration": 0.1004,
      "velocity": 112,
      "chip": "ym2612"
    },
    {
      "channel": 2,
      "note": 85,
      "start": 17.3381,
      "duration": 0.1004,
      "velocity": 74,
      "chip": "ym2612"
    },
    {
      "channel": 3,
      "note": 81,
      "start": 17.3387,
      "duration": 0.1004,
      "velocity": 74,
      "chip": "ym2612"
    },
    {
      "channel": 0,
      "note": 51,
      "start": 17.4375,
      "duration": 0.0838,
      "velocity": 108,
      "chip": "ym2612"
    },
    {
      "channel": 1,
      "note": 51,
      "start": 17.4381,
      "duration": 0.0838,
      "velocity": 112,
      "chip": "ym2612"
    },
    {
      "channel": 2,
      "note": 79,
      "start": 17.4386,
      "duration": 0.0839,
      "velocity": 74,
      "chip": "ym2612"
    },
    {
      "channel": 3,
      "note": 86,
      "start": 17.4392,
      "duration": 0.0838,
      "velocity": 74,
      "chip": "ym2612"
    },
    {
      "channel": 0,
      "note": 41,
      "start": 17.5215,
      "duration": 0.1639,
      "velocity": 108,
      "chip": "ym2612"
    },
    {
      "channel": 1,
      "note": 53,
      "start": 17.5221,
      "duration": 0.0828,
      "velocity": 112,
      "chip": "ym2612"
    },
    {
      "channel": 2,
      "note": 89,
      "start": 17.5226,
      "duration": 0.0828,
      "velocity": 74,
      "chip": "ym2612"
    },
    {
      "channel": 3,
      "note": 85,
      "start": 17.5232,
      "duration": 0.0828,
      "velocity": 74,
      "chip": "ym2612"
    },
    {
      "channel": 1,
      "note": 65,
      "start": 17.605,
      "duration": 0.0809,
      "velocity": 112,
      "chip": "ym2612"
    },
    {
      "channel": 2,
      "note": 88,
      "start": 17.6056,
      "duration": 0.0809,
      "velocity": 74,
      "chip": "ym2612"
    },
    {
      "channel": 3,
      "note": 79,
      "start": 17.6062,
      "duration": 0.0809,
      "velocity": 74,
      "chip": "ym2612"
    },
    {
      "channel": 0,
      "note": 53,
      "start": 17.6856,
      "duration": 0.0784,
      "velocity": 108,
      "chip": "ym2612"
    },
    {
      "channel": 1,
      "note": 53,
      "start": 17.6861,
      "duration": 0.0785,
      "velocity": 112,
      "chip": "ym2612"
    },
    {
      "channel": 2,
      "note": 84,
      "start": 17.6866,
      "duration": 0.0785,
      "velocity": 74,
      "chip": "ym2612"
    },
    {
      "channel": 3,
      "note": 89,
      "start": 17.6872,
      "duration": 0.0784,
      "velocity": 74,
      "chip": "ym2612"
    },
    {
      "channel": 0,
      "note": 42,
      "start": 17.7642,
      "duration": 0.1603,
      "velocity": 108,
      "chip": "ym2612"
    },
    {
      "channel": 1,
      "note": 54,
      "start": 17.7647,
      "duration": 0.079,
      "velocity": 112,
      "chip": "ym2612"
    },
    {
      "channel": 2,
      "note": 80,
      "start": 17.7653,
      "duration": 0.0791,
      "velocity": 74,
      "chip": "ym2612"
    },
    {
      "channel": 3,
      "note": 88,
      "start": 17.7658,
      "duration": 0.079,
      "velocity": 74,
      "chip": "ym2612"
    },
    {
      "channel": 1,
      "note": 66,
      "start": 17.8439,
      "duration": 0.0811,
      "velocity": 112,
      "chip": "ym2612"
    },
    {
      "channel": 2,
      "note": 81,
      "start": 17.8444,
      "duration": 0.0813,
      "velocity": 74,
      "chip": "ym2612"
    },
    {
      "channel": 3,
      "note": 84,
      "start": 17.845,
      "duration": 0.0813,
      "velocity": 74,
      "chip": "ym2612"
    },
    {
      "channel": 0,
      "note": 38,
      "start": 17.9246,
      "duration": 0.2816,
      "velocity": 108,
      "chip": "ym2612"
    },
    {
      "channel": 1,
      "note": 50,
      "start": 17.9253,
      "duration": 0.181,
      "velocity": 112,
      "chip": "ym2612"
    },
    {
      "channel": 2,
      "note": 86,
      "start": 17.9259,
      "duration": 0.0821,
      "velocity": 74,
      "chip": "ym2612"
    },
    {
      "channel": 3,
      "note": 88,
      "start": 17.9265,
      "duration": 0.082,
      "velocity": 74,
      "chip": "ym2612"
    },
    {
      "channel": 2,
      "note": 85,
      "start": 18.0081,
      "duration": 0.0987,
      "velocity": 74,
      "chip": "ym2612"
    },
    {
      "channel": 3,
      "note": 84,
      "start": 18.0087,
      "duration": 0.0987,
      "velocity": 74,
      "chip": "ym2612"
    },
    {
      "channel": 1,
      "note": 62,
      "start": 18.1064,
      "duration": 0.1004,
      "velocity": 112,
      "chip": "ym2612"
    },
    {
      "channel": 2,
      "note": 79,
      "start": 18.107,
      "duration": 0.1004,
      "velocity": 74,
      "chip": "ym2612"
    },
    {
      "channel": 3,
      "note": 86,
      "start": 18.1075,
      "duration": 0.1004,
      "velocity": 74,
      "chip": "ym2612"
    },
    {
      "channel": 0,
      "note": 38,
      "start": 18.2064,
      "duration": 0.2658,
      "velocity": 108,
      "chip": "ym2612"
    },
    {
      "channel": 1,
      "note": 50,
      "start": 18.207,
      "duration": 0.1776,
      "velocity": 112,
      "chip": "ym2612"
    },
    {
      "channel": 2,
      "note": 89,
      "start": 18.2075,
      "duration": 0.0988,
      "velocity": 74,
      "chip": "ym2612"
    },
    {
      "channel": 3,
      "note": 85,
      "start": 18.2081,
      "duration": 0.0989,
      "velocity": 74,
      "chip": "ym2612"
    },
    {
      "channel": 2,
      "note": 88,
      "start": 18.3066,
      "duration": 0.0785,
      "velocity": 74,
      "chip": "ym2612"
    },
    {
      "channel": 3,
      "note": 79,
      "start": 18.3071,
      "duration": 0.0785,
      "velocity": 74,
      "chip": "ym2612"
    },
    {
      "channel": 1,
      "note": 62,
      "start": 18.3847,
      "duration": 0.0881,
      "velocity": 112,
      "chip": "ym2612"
    },
    {
      "channel": 2,
      "note": 84,
      "start": 18.3852,
      "duration": 0.0882,
      "velocity": 74,
      "chip": "ym2612"
    },
    {
      "channel": 3,
      "note": 89,
      "start": 18.3858,
      "duration": 0.0881,
      "velocity": 74,
      "chip": "ym2612"
    },
    {
      "channel": 0,
      "note": 50,
      "start": 18.4724,
      "duration": 0.0833,
      "velocity": 108,
      "chip": "ym2612"
    },
    {
      "channel": 1,
      "note": 50,
      "start": 18.473,
      "duration": 0.0833,
      "velocity": 112,
      "chip": "ym2612"
    },
    {
      "channel": 2,
      "note": 80,
      "start": 18.4735,
      "duration": 0.0833,
      "velocity": 74,
      "chip": "ym2612"
    },
    {
      "channel": 3,
      "note": 88,
      "start": 18.4741,
      "duration": 0.0833,
      "velocity": 74,
      "chip": "ym2612"
    },
    {
      "channel": 0,
      "note": 50,
      "start": 18.5559,
      "duration": 0.0998,
      "velocity": 108,
      "chip": "ym2612"
    },
    {
      "channel": 1,
      "note": 62,
      "start": 18.5565,
      "duration": 0.0998,
      "velocity": 112,
      "chip": "ym2612"
    },
    {
      "channel": 2,
      "note": 81,
      "start": 18.557,
      "duration": 0.0998,
      "velocity": 74,
      "chip": "ym2612"
    },
    {
      "channel": 3,
      "note": 84,
      "start": 18.5576,
      "duration": 0.0998,
      "velocity": 74,
      "chip": "ym2612"
    },
    {
      "channel": 0,
      "note": 38,
      "start": 18.6558,
      "duration": 0.2999,
      "velocity": 108,
      "chip": "ym2612"
    },
    {
      "channel": 1,
      "note": 50,
      "start": 18.6564,
      "duration": 0.1993,
      "velocity": 112,
      "chip": "ym2612"
    },
    {
      "channel": 2,
      "note": 86,
      "start": 18.657,
      "duration": 0.0988,
      "velocity": 74,
      "chip": "ym2612"
    },
    {
      "channel": 3,
      "note": 80,
      "start": 18.6576,
      "duration": 0.0988,
      "velocity": 74,
      "chip": "ym2612"
    },
    {
      "channel": 2,
      "note": 85,
      "start": 18.756,
      "duration": 0.1003,
      "velocity": 74,
      "chip": "ym2612"
    },
    {
      "channel": 3,
      "note": 81,
      "start": 18.7565,
      "duration": 0.1003,
      "velocity": 74,
      "chip": "ym2612"
    },
    {
      "channel": 1,
      "note": 62,
      "start": 18.8559,
      "duration": 0.1004,
      "velocity": 112,
      "chip": "ym2612"
    },
    {
      "channel": 2,
      "note": 79,
      "start": 18.8564,
      "duration": 0.1004,
      "velocity": 74,
      "chip": "ym2612"
    },
    {
      "channel": 3,
      "note": 86,
      "start": 18.857,
      "duration": 0.1004,
      "velocity": 74,
      "chip": "ym2612"
    },
    {
      "channel": 0,
      "note": 38,
      "start": 18.9559,
      "duration": 0.2659,
      "velocity": 108,
      "chip": "ym2612"
    },
    {
      "channel": 1,
      "note": 50,
      "start": 18.9564,
      "duration": 0.1776,
      "velocity": 112,
      "chip": "ym2612"
    },
    {
      "channel": 2,
      "note": 89,
      "start": 18.957,
      "duration": 0.0988,
      "velocity": 74,
      "chip": "ym2612"
    },
    {
      "channel": 3,
      "note": 85,
      "start": 18.9576,
      "duration": 0.0989,
      "velocity": 74,
      "chip": "ym2612"
    },
    {
      "channel": 2,
      "note": 88,
      "start": 19.056,
      "duration": 0.0785,
      "velocity": 74,
      "chip": "ym2612"
    },
    {
      "channel": 3,
      "note": 79,
      "start": 19.0566,
      "duration": 0.0785,
      "velocity": 74,
      "chip": "ym2612"
    },
    {
      "channel": 1,
      "note": 62,
      "start": 19.1342,
      "duration": 0.0881,
      "velocity": 112,
      "chip": "ym2612"
    },
    {
      "channel": 2,
      "note": 84,
      "start": 19.1347,
      "duration": 0.0881,
      "velocity": 74,
      "chip": "ym2612"
    },
    {
      "channel": 3,
      "note": 89,
      "start": 19.1353,
      "duration": 0.0881,
      "velocity": 74,
      "chip": "ym2612"
    },
    {
      "channel": 0,
      "note": 50,
      "start": 19.2219,
      "duration": 0.0998,
      "velocity": 108,
      "chip": "ym2612"
    },
    {
      "channel": 1,
      "note": 50,
      "start": 19.2224,
      "duration": 0.0998,
      "velocity": 112,
      "chip": "ym2612"
    },
    {
      "channel": 2,
      "note": 80,
      "start": 19.223,
      "duration": 0.0998,
      "velocity": 74,
      "chip": "ym2612"
    },
    {
      "channel": 3,
      "note": 88,
      "start": 19.2236,
      "duration": 0.0998,
      "velocity": 74,
      "chip": "ym2612"
    },
    {
      "channel": 0,
      "note": 50,
      "start": 19.3219,
      "duration": 0.0999,
      "velocity": 108,
      "chip": "ym2612"
    },
    {
      "channel": 1,
      "note": 62,
      "start": 19.3224,
      "duration": 0.0999,
      "velocity": 112,
      "chip": "ym2612"
    },
    {
      "channel": 2,
      "note": 81,
      "start": 19.323,
      "duration": 0.0999,
      "velocity": 74,
      "chip": "ym2612"
    },
    {
      "channel": 3,
      "note": 84,
      "start": 19.3236,
      "duration": 0.0999,
      "velocity": 74,
      "chip": "ym2612"
    },
    {
      "channel": 0,
      "note": 38,
      "start": 19.4219,
      "duration": 0.2838,
      "velocity": 108,
      "chip": "ym2612"
    },
    {
      "channel": 1,
      "note": 50,
      "start": 19.4225,
      "duration": 0.1832,
      "velocity": 112,
      "chip": "ym2612"
    },
    {
      "channel": 2,
      "note": 86,
      "start": 19.423,
      "duration": 0.0828,
      "velocity": 74,
      "chip": "ym2612"
    },
    {
      "channel": 3,
      "note": 80,
      "start": 19.4236,
      "duration": 0.0828,
      "velocity": 74,
      "chip": "ym2612"
    },
    {
      "channel": 2,
      "note": 85,
      "start": 19.506,
      "duration": 0.1002,
      "velocity": 74,
      "chip": "ym2612"
    },
    {
      "channel": 3,
      "note": 81,
      "start": 19.5066,
      "duration": 0.1002,
      "velocity": 74,
      "chip": "ym2612"
    },
    {
      "channel": 1,
      "note": 62,
      "start": 19.6059,
      "duration": 0.1003,
      "velocity": 112,
      "chip": "ym2612"
    },
    {
      "channel": 2,
      "note": 79,
      "start": 19.6064,
      "duration": 0.1004,
      "velocity": 74,
      "chip": "ym2612"
    },
    {
      "channel": 3,
      "note": 86,
      "start": 19.607,
      "duration": 0.1004,
      "velocity": 74,
      "chip": "ym2612"
    },
    {
      "channel": 0,
      "note": 38,
      "start": 19.7058,
      "duration": 0.2659,
      "velocity": 108,
      "chip": "ym2612"
    },
    {
      "channel": 1,
      "note": 50,
      "start": 19.7064,
      "duration": 0.1776,
      "velocity": 112,
      "chip": "ym2612"
    },
    {
      "channel": 2,
      "note": 89,
      "start": 19.707,
      "duration": 0.0988,
      "velocity": 74,
      "chip": "ym2612"
    },
    {
      "channel": 3,
      "note": 85,
      "start": 19.7076,
      "duration": 0.0989,
      "velocity": 74,
      "chip": "ym2612"
    },
    {
      "channel": 2,
      "note": 88,
      "start": 19.806,
      "duration": 0.0785,
      "velocity": 74,
      "chip": "ym2612"
    },
    {
      "channel": 3,
      "note": 79,
      "start": 19.8066,
      "duration": 0.0785,
      "velocity": 74,
      "chip": "ym2612"
    },
    {
      "channel": 1,
      "note": 62,
      "start": 19.8842,
      "duration": 0.0881,
      "velocity": 112,
      "chip": "ym2612"
    },
    {
      "channel": 2,
      "note": 84,
      "start": 19.8847,
      "duration": 0.0882,
      "velocity": 74,
      "chip": "ym2612"
    },
    {
      "channel": 3,
      "note": 89,
      "start": 19.8853,
      "duration": 0.0881,
      "velocity": 74,
      "chip": "ym2612"
    },
    {
      "channel": 0,
      "note": 50,
      "start": 19.9719,
      "duration": 0.0833,
      "velocity": 108,
      "chip": "ym2612"
    },
    {
      "channel": 1,
      "note": 50,
      "start": 19.9725,
      "duration": 0.0833,
      "velocity": 112,
      "chip": "ym2612"
    },
    {
      "channel": 2,
      "note": 80,
      "start": 19.973,
      "duration": 0.0833,
      "velocity": 74,
      "chip": "ym2612"
    },
    {
      "channel": 3,
      "note": 88,
      "start": 19.9736,
      "duration": 0.0833,
      "velocity": 74,
      "chip": "ym2612"
    },
    {
      "channel": 0,
      "note": 50,
      "start": 20.0554,
      "duration": 0.0998,
      "velocity": 108,
      "chip": "ym2612"
    },
    {
      "channel": 1,
      "note": 62,
      "start": 20.0559,
      "duration": 0.0998,
      "velocity": 112,
      "chip": "ym2612"
    },
    {
      "channel": 2,
      "note": 81,
      "start": 20.0564,
      "duration": 0.0998,
      "velocity": 74,
      "chip": "ym2612"
    },
    {
      "channel": 3,
      "note": 84,
      "start": 20.057,
      "duration": 0.0998,
      "velocity": 74,
      "chip": "ym2612"
    },
    {
      "channel": 0,
      "note": 39,
      "start": 20.1554,
      "duration": 0.2827,
      "velocity": 108,
      "chip": "ym2612"
    },
    {
      "channel": 1,
      "note": 51,
      "start": 20.1559,
      "duration": 0.1994,
      "velocity": 112,
      "chip": "ym2612"
    },
    {
      "channel": 2,
      "note": 86,
      "start": 20.1564,
      "duration": 0.0988,
      "velocity": 74,
      "chip": "ym2612"
    },
    {
      "channel": 3,
      "note": 80,
      "start": 20.157,
      "duration": 0.0988,
      "velocity": 74,
      "chip": "ym2612"
    },
    {
      "channel": 2,
      "note": 85,
      "start": 20.2554,
      "duration": 0.1003,
      "velocity": 74,
      "chip": "ym2612"
    },
    {
      "channel": 3,
      "note": 81,
      "start": 20.256,
      "duration": 0.1003,
      "velocity": 74,
      "chip": "ym2612"
    },
    {
      "channel": 1,
      "note": 63,
      "start": 20.3554,
      "duration": 0.0833,
      "velocity": 112,
      "chip": "ym2612"
    },
    {
      "channel": 2,
      "note": 79,
      "start": 20.3559,
      "duration": 0.0833,
      "velocity": 74,
      "chip": "ym2612"
    },
    {
      "channel": 3,
      "note": 86,
      "start": 20.3565,
      "duration": 0.0832,
      "velocity": 74,
      "chip": "ym2612"
    },
    {
      "channel": 0,
      "note": 51,
      "start": 20.4383,
      "duration": 0.1618,
      "velocity": 108,
      "chip": "ym2612"
    },
    {
      "channel": 1,
      "note": 51,
      "start": 20.4388,
      "duration": 0.1618,
      "velocity": 112,
      "chip": "ym2612"
    },
    {
      "channel": 2,
      "note": 89,
      "start": 20.4394,
      "duration": 0.0815,
      "velocity": 74,
      "chip": "ym2612"
    },
    {
      "channel": 3,
      "note": 85,
      "start": 20.4399,
      "duration": 0.0816,
      "velocity": 74,
      "chip": "ym2612"
    },
    {
      "channel": 2,
      "note": 88,
      "start": 20.5211,
      "duration": 0.0801,
      "velocity": 74,
      "chip": "ym2612"
    },
    {
      "channel": 3,
      "note": 79,
      "start": 20.5217,
      "duration": 0.0801,
      "velocity": 74,
      "chip": "ym2612"
    },
    {
      "channel": 0,
      "note": 39,
      "start": 20.6002,
      "duration": 0.0803,
      "velocity": 108,
      "chip": "ym2612"
    },
    {
      "channel": 1,
      "note": 63,
      "start": 20.6008,
      "duration": 0.0803,
      "velocity": 112,
      "chip": "ym2612"
    },
    {
      "channel": 2,
      "note": 84,
      "start": 20.6014,
      "duration": 0.0802,
      "velocity": 74,
      "chip": "ym2612"
    },
    {
      "channel": 3,
      "note": 89,
      "start": 20.6019,
      "duration": 0.0803,
      "velocity": 74,
      "chip": "ym2612"
    },
    {
      "channel": 0,
      "note": 35,
      "start": 20.6807,
      "duration": 0.1574,
      "velocity": 108,
      "chip": "ym2612"
    },
    {
      "channel": 1,
      "note": 47,
      "start": 20.6812,
      "duration": 0.078,
      "velocity": 112,
      "chip": "ym2612"
    },
    {
      "channel": 2,
      "note": 80,
      "start": 20.6818,
      "duration": 0.078,
      "velocity": 74,
      "chip": "ym2612"
    },
    {
      "channel": 3,
      "note": 88,
      "start": 20.6824,
      "duration": 0.078,
      "velocity": 74,
      "chip": "ym2612"
    },
    {
      "channel": 1,
      "note": 59,
      "start": 20.7594,
      "duration": 0.0792,
      "velocity": 112,
      "chip": "ym2612"
    },
    {
      "channel": 2,
      "note": 81,
      "start": 20.76,
      "duration": 0.0792,
      "velocity": 74,
      "chip": "ym2612"
    },
    {
      "channel": 3,
      "note": 84,
      "start": 20.7605,
      "duration": 0.0793,
      "velocity": 74,
      "chip": "ym2612"
    },
    {
      "channel": 0,
      "note": 38,
      "start": 20.8382,
      "duration": 0.2836,
      "velocity": 108,
      "chip": "ym2612"
    },
    {
      "channel": 1,
      "note": 50,
      "start": 20.8388,
      "duration": 0.183,
      "velocity": 112,
      "chip": "ym2612"
    },
    {
      "channel": 2,
      "note": 86,
      "start": 20.8394,
      "duration": 0.0825,
      "velocity": 74,
      "chip": "ym2612"
    },
    {
      "channel": 3,
      "note": 80,
      "start": 20.8399,
      "duration": 0.0826,
      "velocity": 74,
      "chip": "ym2612"
    },
    {
      "channel": 2,
      "note": 85,
      "start": 20.9221,
      "duration": 0.1002,
      "velocity": 74,
      "chip": "ym2612"
    },
    {
      "channel": 3,
      "note": 81,
      "start": 20.9227,
      "duration": 0.1002,
      "velocity": 74,
      "chip": "ym2612"
    },
    {
      "channel": 1,
      "note": 62,
      "start": 21.022,
      "duration": 0.1003,
      "velocity": 112,
      "chip": "ym2612"
    },
    {
      "channel": 2,
      "note": 79,
      "start": 21.0225,
      "duration": 0.1003,
      "velocity": 74,
      "chip": "ym2612"
    },
    {
      "channel": 3,
      "note": 86,
      "start": 21.0231,
      "duration": 0.1003,
      "velocity": 74,
      "chip": "ym2612"
    },
    {
      "channel": 0,
      "note": 38,
      "start": 21.1219,
      "duration": 0.2659,
      "velocity": 108,
      "chip": "ym2612"
    },
    {
      "channel": 1,
      "note": 50,
      "start": 21.1225,
      "duration": 0.1776,
      "velocity": 112,
      "chip": "ym2612"
    },
    {
      "channel": 2,
      "note": 89,
      "start": 21.1231,
      "duration": 0.0988,
      "velocity": 74,
      "chip": "ym2612"
    },
    {
      "channel": 3,
      "note": 85,
      "start": 21.1236,
      "duration": 0.0989,
      "velocity": 74,
      "chip": "ym2612"
    },
    {
      "channel": 2,
      "note": 88,
      "start": 21.2221,
      "duration": 0.0785,
      "velocity": 74,
      "chip": "ym2612"
    },
    {
      "channel": 3,
      "note": 79,
      "start": 21.2227,
      "duration": 0.0785,
      "velocity": 74,
      "chip": "ym2612"
    },
    {
      "channel": 1,
      "note": 62,
      "start": 21.3003,
      "duration": 0.0881,
      "velocity": 112,
      "chip": "ym2612"
    },
    {
      "channel": 2,
      "note": 84,
      "start": 21.3008,
      "duration": 0.0882,
      "velocity": 74,
      "chip": "ym2612"
    },
    {
      "channel": 3,
      "note": 89,
      "start": 21.3014,
      "duration": 0.0881,
      "velocity": 74,
      "chip": "ym2612"
    },
    {
      "channel": 0,
      "note": 50,
      "start": 21.388,
      "duration": 0.0833,
      "velocity": 108,
      "chip": "ym2612"
    },
    {
      "channel": 1,
      "note": 50,
      "start": 21.3885,
      "duration": 0.0833,
      "velocity": 112,
      "chip": "ym2612"
    },
    {
      "channel": 2,
      "note": 80,
      "start": 21.3891,
      "duration": 0.0833,
      "velocity": 74,
      "chip": "ym2612"
    },
    {
      "channel": 3,
      "note": 88,
      "start": 21.3896,
      "duration": 0.0833,
      "velocity": 74,
      "chip": "ym2612"
    },
    {
      "channel": 0,
      "note": 50,
      "start": 21.4714,
      "duration": 0.0998,
      "velocity": 108,
      "chip": "ym2612"
    },
    {
      "channel": 1,
      "note": 62,
      "start": 21.472,
      "duration": 0.0998,
      "velocity": 112,
      "chip": "ym2612"
    },
    {
      "channel": 2,
      "note": 81,
      "start": 21.4725,
      "duration": 0.0998,
      "velocity": 74,
      "chip": "ym2612"
    },
    {
      "channel": 3,
      "note": 84,
      "start": 21.4731,
      "duration": 0.0998,
      "velocity": 74,
      "chip": "ym2612"
    },
    {
      "channel": 0,
      "note": 38,
      "start": 21.5714,
      "duration": 0.2999,
      "velocity": 108,
      "chip": "ym2612"
    },
    {
      "channel": 1,
      "note": 50,
      "start": 21.572,
      "duration": 0.1993,
      "velocity": 112,
      "chip": "ym2612"
    },
    {
      "channel": 2,
      "note": 86,
      "start": 21.5725,
      "duration": 0.0988,
      "velocity": 74,
      "chip": "ym2612"
    },
    {
      "channel": 3,
      "note": 80,
      "start": 21.5731,
      "duration": 0.0988,
      "velocity": 74,
      "chip": "ym2612"
    },
    {
      "channel": 2,
      "note": 85,
      "start": 21.6715,
      "duration": 0.1003,
      "velocity": 74,
      "chip": "ym2612"
    },
    {
      "channel": 3,
      "note": 81,
      "start": 21.6721,
      "duration": 0.1003,
      "velocity": 74,
      "chip": "ym2612"
    },
    {
      "channel": 1,
      "note": 62,
      "start": 21.7714,
      "duration": 0.1003,
      "velocity": 112,
      "chip": "ym2612"
    },
    {
      "channel": 2,
      "note": 79,
      "start": 21.772,
      "duration": 0.1004,
      "velocity": 74,
      "chip": "ym2612"
    },
    {
      "channel": 3,
      "note": 86,
      "start": 21.7725,
      "duration": 0.1004,
      "velocity": 74,
      "chip": "ym2612"
    },
    {
      "channel": 0,
      "note": 38,
      "start": 21.8714,
      "duration": 0.2659,
      "velocity": 108,
      "chip": "ym2612"
    },
    {
      "channel": 1,
      "note": 50,
      "start": 21.872,
      "duration": 0.1776,
      "velocity": 112,
      "chip": "ym2612"
    },
    {
      "channel": 2,
      "note": 89,
      "start": 21.8725,
      "duration": 0.0988,
      "velocity": 74,
      "chip": "ym2612"
    },
    {
      "channel": 3,
      "note": 85,
      "start": 21.8731,
      "duration": 0.0989,
      "velocity": 74,
      "chip": "ym2612"
    },
    {
      "channel": 2,
      "note": 88,
      "start": 21.9716,
      "duration": 0.0785,
      "velocity": 74,
      "chip": "ym2612"
    },
    {
      "channel": 3,
      "note": 79,
      "start": 21.9721,
      "duration": 0.0785,
      "velocity": 74,
      "chip": "ym2612"
    },
    {
      "channel": 1,
      "note": 62,
      "start": 22.0497,
      "duration": 0.088,
      "velocity": 112,
      "chip": "ym2612"
    },
    {
      "channel": 2,
      "note": 84,
      "start": 22.0502,
      "duration": 0.0881,
      "velocity": 74,
      "chip": "ym2612"
    },
    {
      "channel": 3,
      "note": 89,
      "start": 22.0508,
      "duration": 0.0881,
      "velocity": 74,
      "chip": "ym2612"
    },
    {
      "channel": 0,
      "note": 50,
      "start": 22.1374,
      "duration": 0.0999,
      "velocity": 108,
      "chip": "ym2612"
    },
    {
      "channel": 1,
      "note": 50,
      "start": 22.138,
      "duration": 0.0999,
      "velocity": 112,
      "chip": "ym2612"
    },
    {
      "channel": 2,
      "note": 80,
      "start": 22.1385,
      "duration": 0.0998,
      "velocity": 74,
      "chip": "ym2612"
    },
    {
      "channel": 3,
      "note": 88,
      "start": 22.1391,
      "duration": 0.0998,
      "velocity": 74,
      "chip": "ym2612"
    },
    {
      "channel": 0,
      "note": 50,
      "start": 22.2374,
      "duration": 0.0998,
      "velocity": 108,
      "chip": "ym2612"
    },
    {
      "channel": 1,
      "note": 62,
      "start": 22.238,
      "duration": 0.0999,
      "velocity": 112,
      "chip": "ym2612"
    },
    {
      "channel": 2,
      "note": 81,
      "start": 22.2385,
      "duration": 0.0999,
      "velocity": 74,
      "chip": "ym2612"
    },
    {
      "channel": 3,
      "note": 84,
      "start": 22.2391,
      "duration": 0.0999,
      "velocity": 74,
      "chip": "ym2612"
    },
    {
      "channel": 0,
      "note": 38,
      "start": 22.3374,
      "duration": 0.2839,
      "velocity": 108,
      "chip": "ym2612"
    },
    {
      "channel": 1,
      "note": 50,
      "start": 22.338,
      "duration": 0.1833,
      "velocity": 112,
      "chip": "ym2612"
    },
    {
      "channel": 2,
      "note": 86,
      "start": 22.3385,
      "duration": 0.0829,
      "velocity": 74,
      "chip": "ym2612"
    },
    {
      "channel": 3,
      "note": 80,
      "start": 22.3391,
      "duration": 0.0829,
      "velocity": 74,
      "chip": "ym2612"
    },
    {
      "channel": 2,
      "note": 85,
      "start": 22.4216,
      "duration": 0.1002,
      "velocity": 74,
      "chip": "ym2612"
    },
    {
      "channel": 3,
      "note": 81,
      "start": 22.4222,
      "duration": 0.1002,
      "velocity": 74,
      "chip": "ym2612"
    },
    {
      "channel": 1,
      "note": 62,
      "start": 22.5215,
      "duration": 0.1003,
      "velocity": 112,
      "chip": "ym2612"
    },
    {
      "channel": 2,
      "note": 79,
      "start": 22.522,
      "duration": 0.1003,
      "velocity": 74,
      "chip": "ym2612"
    },
    {
      "channel": 3,
      "note": 86,
      "start": 22.5226,
      "duration": 0.1003,
      "velocity": 74,
      "chip": "ym2612"
    },
    {
      "channel": 0,
      "note": 38,
      "start": 22.6214,
      "duration": 0.2659,
      "velocity": 108,
      "chip": "ym2612"
    },
    {
      "channel": 1,
      "note": 50,
      "start": 22.622,
      "duration": 0.1776,
      "velocity": 112,
      "chip": "ym2612"
    },
    {
      "channel": 2,
      "note": 89,
      "start": 22.6226,
      "duration": 0.0988,
      "velocity": 74,
      "chip": "ym2612"
    },
    {
      "channel": 3,
      "note": 85,
      "start": 22.6231,
      "duration": 0.0989,
      "velocity": 74,
      "chip": "ym2612"
    },
    {
      "channel": 2,
      "note": 88,
      "start": 22.7216,
      "duration": 0.0785,
      "velocity": 74,
      "chip": "ym2612"
    },
    {
      "channel": 3,
      "note": 79,
      "start": 22.7222,
      "duration": 0.0785,
      "velocity": 74,
      "chip": "ym2612"
    },
    {
      "channel": 1,
      "note": 62,
      "start": 22.7998,
      "duration": 0.0881,
      "velocity": 112,
      "chip": "ym2612"
    },
    {
      "channel": 2,
      "note": 84,
      "start": 22.8003,
      "duration": 0.0882,
      "velocity": 74,
      "chip": "ym2612"
    },
    {
      "channel": 3,
      "note": 89,
      "start": 22.8009,
      "duration": 0.0881,
      "velocity": 74,
      "chip": "ym2612"
    },
    {
      "channel": 0,
      "note": 50,
      "start": 22.8875,
      "duration": 0.0833,
      "velocity": 108,
      "chip": "ym2612"
    },
    {
      "channel": 1,
      "note": 50,
      "start": 22.888,
      "duration": 0.0833,
      "velocity": 112,
      "chip": "ym2612"
    },
    {
      "channel": 2,
      "note": 80,
      "start": 22.8886,
      "duration": 0.0833,
      "velocity": 74,
      "chip": "ym2612"
    },
    {
      "channel": 3,
      "note": 88,
      "start": 22.8891,
      "duration": 0.0833,
      "velocity": 74,
      "chip": "ym2612"
    },
    {
      "channel": 0,
      "note": 50,
      "start": 22.9709,
      "duration": 0.0998,
      "velocity": 108,
      "chip": "ym2612"
    },
    {
      "channel": 1,
      "note": 62,
      "start": 22.9715,
      "duration": 0.0998,
      "velocity": 112,
      "chip": "ym2612"
    },
    {
      "channel": 2,
      "note": 81,
      "start": 22.972,
      "duration": 0.0998,
      "velocity": 74,
      "chip": "ym2612"
    },
    {
      "channel": 3,
      "note": 84,
      "start": 22.9726,
      "duration": 0.0998,
      "velocity": 74,
      "chip": "ym2612"
    },
    {
      "channel": 0,
      "note": 39,
      "start": 23.0709,
      "duration": 0.1998,
      "velocity": 108,
      "chip": "ym2612"
    },
    {
      "channel": 1,
      "note": 51,
      "start": 23.0715,
      "duration": 0.0994,
      "velocity": 112,
      "chip": "ym2612"
    },
    {
      "channel": 2,
      "note": 86,
      "start": 23.072,
      "duration": 0.0993,
      "velocity": 74,
      "chip": "ym2612"
    },
    {
      "channel": 3,
      "note": 80,
      "start": 23.0726,
      "duration": 0.0993,
      "velocity": 74,
      "chip": "ym2612"
    },
    {
      "channel": 1,
      "note": 63,
      "start": 23.1709,
      "duration": 0.1004,
      "velocity": 112,
      "chip": "ym2612"
    },
    {
      "channel": 2,
      "note": 85,
      "start": 23.1715,
      "duration": 0.1004,
      "velocity": 74,
      "chip": "ym2612"
    },
    {
      "channel": 3,
      "note": 81,
      "start": 23.1721,
      "duration": 0.1004,
      "velocity": 74,
      "chip": "ym2612"
    },
    {
      "channel": 0,
      "note": 51,
      "start": 23.2709,
      "duration": 0.0839,
      "velocity": 108,
      "chip": "ym2612"
    },
    {
      "channel": 1,
      "note": 51,
      "start": 23.2715,
      "duration": 0.0839,
      "velocity": 112,
      "chip": "ym2612"
    },
    {
      "channel": 2,
      "note": 79,
      "start": 23.272,
      "duration": 0.0839,
      "velocity": 74,
      "chip": "ym2612"
    },
    {
      "channel": 3,
      "note": 86,
      "start": 23.2726,
      "duration": 0.0839,
      "velocity": 74,
      "chip": "ym2612"
    },
    {
      "channel": 0,
      "note": 41,
      "start": 23.355,
      "duration": 0.1617,
      "velocity": 108,
      "chip": "ym2612"
    },
    {
      "channel": 1,
      "note": 53,
      "start": 23.3555,
      "duration": 0.0828,
      "velocity": 112,
      "chip": "ym2612"
    },
    {
      "channel": 2,
      "note": 89,
      "start": 23.3561,
      "duration": 0.0828,
      "velocity": 74,
      "chip": "ym2612"
    },
    {
      "channel": 3,
      "note": 85,
      "start": 23.3566,
      "duration": 0.0828,
      "velocity": 74,
      "chip": "ym2612"
    },
    {
      "channel": 1,
      "note": 65,
      "start": 23.4385,
      "duration": 0.0786,
      "velocity": 112,
      "chip": "ym2612"
    },
    {
      "channel": 2,
      "note": 88,
      "start": 23.439,
      "duration": 0.0787,
      "velocity": 74,
      "chip": "ym2612"
    },
    {
      "channel": 3,
      "note": 79,
      "start": 23.4396,
      "duration": 0.0787,
      "velocity": 74,
      "chip": "ym2612"
    },
    {
      "channel": 0,
      "note": 53,
      "start": 23.5167,
      "duration": 0.0794,
      "velocity": 108,
      "chip": "ym2612"
    },
    {
      "channel": 1,
      "note": 53,
      "start": 23.5173,
      "duration": 0.0794,
      "velocity": 112,
      "chip": "ym2612"
    },
    {
      "channel": 2,
      "note": 84,
      "start": 23.5179,
      "duration": 0.0794,
      "velocity": 74,
      "chip": "ym2612"
    },
    {
      "channel": 3,
      "note": 89,
      "start": 23.5185,
      "duration": 0.0794,
      "velocity": 74,
      "chip": "ym2612"
    },
    {
      "channel": 0,
      "note": 42,
      "start": 23.5963,
      "duration": 0.1602,
      "velocity": 108,
      "chip": "ym2612"
    },
    {
      "channel": 1,
      "note": 54,
      "start": 23.5969,
      "duration": 0.079,
      "velocity": 112,
      "chip": "ym2612"
    },
    {
      "channel": 2,
      "note": 80,
      "start": 23.5974,
      "duration": 0.079,
      "velocity": 74,
      "chip": "ym2612"
    },
    {
      "channel": 3,
      "note": 88,
      "start": 23.598,
      "duration": 0.079,
      "velocity": 74,
      "chip": "ym2612"
    },
    {
      "channel": 1,
      "note": 66,
      "start": 23.6761,
      "duration": 0.0811,
      "velocity": 112,
      "chip": "ym2612"
    },
    {
      "channel": 2,
      "note": 81,
      "start": 23.6766,
      "duration": 0.0827,
      "velocity": 107,
      "chip": "ym2612"
    },
    {
      "channel": 3,
      "note": 84,
      "start": 23.6772,
      "duration": 0.0843,
      "velocity": 107,
      "chip": "ym2612"
    },
    {
      "channel": 0,
      "note": 38,
      "start": 23.7568,
      "duration": 0.2829,
      "velocity": 108,
      "chip": "ym2612"
    },
    {
      "channel": 1,
      "note": 50,
      "start": 23.7574,
      "duration": 0.1823,
      "velocity": 112,
      "chip": "ym2612"
    },
    {
      "channel": 2,
      "note": 74,
      "start": 23.7595,
      "duration": 0.1807,
      "velocity": 107,
      "chip": "ym2612"
    },
    {
      "channel": 3,
      "note": 69,
      "start": 23.7617,
      "duration": 0.1791,
      "velocity": 107,
      "chip": "ym2612"
    },
    {
      "channel": 1,
      "note": 62,
      "start": 23.9399,
      "duration": 0.1003,
      "velocity": 112,
      "chip": "ym2612"
    },
    {
      "channel": 2,
      "note": 77,
      "start": 23.9405,
      "duration": 0.1994,
      "velocity": 107,
      "chip": "ym2612"
    },
    {
      "channel": 3,
      "note": 72,
      "start": 23.941,
      "duration": 0.1994,
      "velocity": 107,
      "chip": "ym2612"
    },
    {
      "channel": 0,
      "note": 38,
      "start": 24.0398,
      "duration": 0.265,
      "velocity": 108,
      "chip": "ym2612"
    },
    {
      "channel": 1,
      "note": 50,
      "start": 24.0404,
      "duration": 0.1776,
      "velocity": 112,
      "chip": "ym2612"
    },
    {
      "channel": 2,
      "note": 74,
      "start": 24.14,
      "duration": 0.1659,
      "velocity": 107,
      "chip": "ym2612"
    },
    {
      "channel": 3,
      "note": 69,
      "start": 24.1406,
      "duration": 0.1659,
      "velocity": 107,
      "chip": "ym2612"
    },
    {
      "channel": 1,
      "note": 62,
      "start": 24.2182,
      "duration": 0.0872,
      "velocity": 112,
      "chip": "ym2612"
    },
    {
      "channel": 0,
      "note": 50,
      "start": 24.305,
      "duration": 0.0833,
      "velocity": 108,
      "chip": "ym2612"
    },
    {
      "channel": 1,
      "note": 50,
      "start": 24.3056,
      "duration": 0.0833,
      "velocity": 112,
      "chip": "ym2612"
    },
    {
      "channel": 2,
      "note": 80,
      "start": 24.3061,
      "duration": 0.3827,
      "velocity": 107,
      "chip": "ym2612"
    },
    {
      "channel": 3,
      "note": 75,
      "start": 24.3067,
      "duration": 0.3827,
      "velocity": 107,
      "chip": "ym2612"
    },
    {
      "channel": 0,
      "note": 50,
      "start": 24.3885,
      "duration": 0.0998,
      "velocity": 108,
      "chip": "ym2612"
    },
    {
      "channel": 1,
      "note": 62,
      "start": 24.389,
      "duration": 0.0997,
      "velocity": 112,
      "chip": "ym2612"
    },
    {
      "channel": 0,
      "note": 38,
      "start": 24.4883,
      "duration": 0.2999,
      "velocity": 108,
      "chip": "ym2612"
    },
    {
      "channel": 1,
      "note": 50,
      "start": 24.4889,
      "duration": 0.1994,
      "velocity": 112,
      "chip": "ym2612"
    },
    {
      "channel": 1,
      "note": 62,
      "start": 24.6885,
      "duration": 0.1004,
      "velocity": 112,
      "chip": "ym2612"
    },
    {
      "channel": 2,
      "note": 81,
      "start": 24.689,
      "duration": 4.2288,
      "velocity": 107,
      "chip": "ym2612"
    },
    {
      "channel": 3,
      "note": 76,
      "start": 24.6895,
      "duration": 4.2288,
      "velocity": 107,
      "chip": "ym2612"
    },
    {
      "channel": 0,
      "note": 38,
      "start": 24.7885,
      "duration": 0.2663,
      "velocity": 108,
      "chip": "ym2612"
    },
    {
      "channel": 1,
      "note": 50,
      "start": 24.789,
      "duration": 0.1789,
      "velocity": 112,
      "chip": "ym2612"
    },
    {
      "channel": 1,
      "note": 62,
      "start": 24.968,
      "duration": 0.0872,
      "velocity": 112,
      "chip": "ym2612"
    },
    {
      "channel": 0,
      "note": 50,
      "start": 25.0549,
      "duration": 0.0998,
      "velocity": 108,
      "chip": "ym2612"
    },
    {
      "channel": 1,
      "note": 50,
      "start": 25.0554,
      "duration": 0.0999,
      "velocity": 112,
      "chip": "ym2612"
    },
    {
      "channel": 0,
      "note": 50,
      "start": 25.1549,
      "duration": 0.0998,
      "velocity": 108,
      "chip": "ym2612"
    },
    {
      "channel": 1,
      "note": 62,
      "start": 25.1554,
      "duration": 0.0999,
      "velocity": 112,
      "chip": "ym2612"
    },
    {
      "channel": 0,
      "note": 38,
      "start": 25.2549,
      "duration": 0.2843,
      "velocity": 108,
      "chip": "ym2612"
    },
    {
      "channel": 1,
      "note": 50,
      "start": 25.2555,
      "duration": 0.1837,
      "velocity": 112,
      "chip": "ym2612"
    },
    {
      "channel": 1,
      "note": 62,
      "start": 25.4394,
      "duration": 0.1003,
      "velocity": 112,
      "chip": "ym2612"
    },
    {
      "channel": 0,
      "note": 38,
      "start": 25.5394,
      "duration": 0.266,
      "velocity": 108,
      "chip": "ym2612"
    },
    {
      "channel": 1,
      "note": 50,
      "start": 25.5399,
      "duration": 0.1786,
      "velocity": 112,
      "chip": "ym2612"
    },
    {
      "channel": 1,
      "note": 62,
      "start": 25.7187,
      "duration": 0.0872,
      "velocity": 112,
      "chip": "ym2612"
    },
    {
      "channel": 0,
      "note": 50,
      "start": 25.8056,
      "duration": 0.0843,
      "velocity": 108,
      "chip": "ym2612"
    },
    {
      "channel": 1,
      "note": 50,
      "start": 25.8062,
      "duration": 0.0843,
      "velocity": 112,
      "chip": "ym2612"
    },
    {
      "channel": 0,
      "note": 50,
      "start": 25.8901,
      "duration": 0.0998,
      "velocity": 108,
      "chip": "ym2612"
    },
    {
      "channel": 1,
      "note": 62,
      "start": 25.8907,
      "duration": 0.0997,
      "velocity": 112,
      "chip": "ym2612"
    },
    {
      "channel": 0,
      "note": 39,
      "start": 25.99,
      "duration": 0.2828,
      "velocity": 108,
      "chip": "ym2612"
    },
    {
      "channel": 1,
      "note": 51,
      "start": 25.9906,
      "duration": 0.1994,
      "velocity": 112,
      "chip": "ym2612"
    },
    {
      "channel": 1,
      "note": 63,
      "start": 26.1901,
      "duration": 0.0834,
      "velocity": 112,
      "chip": "ym2612"
    },
    {
      "channel": 0,
      "note": 51,
      "start": 26.2731,
      "duration": 0.1633,
      "velocity": 108,
      "chip": "ym2612"
    },
    {
      "channel": 1,
      "note": 51,
      "start": 26.2737,
      "duration": 0.1632,
      "velocity": 112,
      "chip": "ym2612"
    },
    {
      "channel": 0,
      "note": 39,
      "start": 26.4365,
      "duration": 0.0813,
      "velocity": 108,
      "chip": "ym2612"
    },
    {
      "channel": 1,
      "note": 63,
      "start": 26.4371,
      "duration": 0.0813,
      "velocity": 112,
      "chip": "ym2612"
    },
    {
      "channel": 0,
      "note": 35,
      "start": 26.518,
      "duration": 0.1618,
      "velocity": 108,
      "chip": "ym2612"
    },
    {
      "channel": 1,
      "note": 47,
      "start": 26.5186,
      "duration": 0.0808,
      "velocity": 112,
      "chip": "ym2612"
    },
    {
      "channel": 1,
      "note": 59,
      "start": 26.5996,
      "duration": 0.0808,
      "velocity": 112,
      "chip": "ym2612"
    },
    {
      "channel": 0,
      "note": 38,
      "start": 26.68,
      "duration": 0.2843,
      "velocity": 108,
      "chip": "ym2612"
    },
    {
      "channel": 1,
      "note": 50,
      "start": 26.6806,
      "duration": 0.1837,
      "velocity": 112,
      "chip": "ym2612"
    },
    {
      "channel": 1,
      "note": 62,
      "start": 26.8645,
      "duration": 0.1003,
      "velocity": 112,
      "chip": "ym2612"
    },
    {
      "channel": 0,
      "note": 38,
      "start": 26.9645,
      "duration": 0.2661,
      "velocity": 108,
      "chip": "ym2612"
    },
    {
      "channel": 1,
      "note": 50,
      "start": 26.965,
      "duration": 0.1787,
      "velocity": 112,
      "chip": "ym2612"
    },
    {
      "channel": 1,
      "note": 62,
      "start": 27.1439,
      "duration": 0.0872,
      "velocity": 112,
      "chip": "ym2612"
    },
    {
      "channel": 0,
      "note": 50,
      "start": 27.2307,
      "duration": 0.0843,
      "velocity": 108,
      "chip": "ym2612"
    },
    {
      "channel": 1,
      "note": 50,
      "start": 27.2313,
      "duration": 0.0843,
      "velocity": 112,
      "chip": "ym2612"
    },
    {
      "channel": 0,
      "note": 50,
      "start": 27.3152,
      "duration": 0.0998,
      "velocity": 108,
      "chip": "ym2612"
    },
    {
      "channel": 1,
      "note": 62,
      "start": 27.3158,
      "duration": 0.0997,
      "velocity": 112,
      "chip": "ym2612"
    },
    {
      "channel": 0,
      "note": 38,
      "start": 27.4152,
      "duration": 0.2999,
      "velocity": 108,
      "chip": "ym2612"
    },
    {
      "channel": 1,
      "note": 50,
      "start": 27.4158,
      "duration": 0.1993,
      "velocity": 112,
      "chip": "ym2612"
    },
    {
      "channel": 1,
      "note": 62,
      "start": 27.6152,
      "duration": 0.1003,
      "velocity": 112,
      "chip": "ym2612"
    },
    {
      "channel": 0,
      "note": 38,
      "start": 27.7152,
      "duration": 0.2659,
      "velocity": 108,
      "chip": "ym2612"
    },
    {
      "channel": 1,
      "note": 50,
      "start": 27.7158,
      "duration": 0.1785,
      "velocity": 112,
      "chip": "ym2612"
    },
    {
      "channel": 1,
      "note": 62,
      "start": 27.8945,
      "duration": 0.0872,
      "velocity": 112,
      "chip": "ym2612"
    },
    {
      "channel": 0,
      "note": 50,
      "start": 27.9813,
      "duration": 0.0999,
      "velocity": 108,
      "chip": "ym2612"
    },
    {
      "channel": 1,
      "note": 50,
      "start": 27.9818,
      "duration": 0.0998,
      "velocity": 112,
      "chip": "ym2612"
    },
    {
      "channel": 0,
      "note": 50,
      "start": 28.0813,
      "duration": 0.0999,
      "velocity": 108,
      "chip": "ym2612"
    },
    {
      "channel": 1,
      "note": 62,
      "start": 28.0818,
      "duration": 0.0999,
      "velocity": 112,
      "chip": "ym2612"
    },
    {
      "channel": 0,
      "note": 38,
      "start": 28.1813,
      "duration": 0.2843,
      "velocity": 108,
      "chip": "ym2612"
    },
    {
      "channel": 1,
      "note": 50,
      "start": 28.1819,
      "duration": 0.1837,
      "velocity": 112,
      "chip": "ym2612"
    },
    {
      "channel": 1,
      "note": 62,
      "start": 28.3658,
      "duration": 0.1003,
      "velocity": 112,
      "chip": "ym2612"
    },
    {
      "channel": 0,
      "note": 38,
      "start": 28.4658,
      "duration": 0.2663,
      "velocity": 108,
      "chip": "ym2612"
    },
    {
      "channel": 1,
      "note": 50,
      "start": 28.4663,
      "duration": 0.1786,
      "velocity": 112,
      "chip": "ym2612"
    },
    {
      "channel": 1,
      "note": 62,
      "start": 28.6451,
      "duration": 0.0875,
      "velocity": 112,
      "chip": "ym2612"
    },
    {
      "channel": 0,
      "note": 50,
      "start": 28.7323,
      "duration": 0.0844,
      "velocity": 108,
      "chip": "ym2612"
    },
    {
      "channel": 1,
      "note": 50,
      "start": 28.7329,
      "duration": 0.0844,
      "velocity": 112,
      "chip": "ym2612"
    },
    {
      "channel": 0,
      "note": 50,
      "start": 28.8168,
      "duration": 0.0999,
      "velocity": 108,
      "chip": "ym2612"
    },
    {
      "channel": 1,
      "note": 62,
      "start": 28.8174,
      "duration": 0.0999,
      "velocity": 112,
      "chip": "ym2612"
    },
    {
      "channel": 0,
      "note": 39,
      "start": 28.9169,
      "duration": 0.1998,
      "velocity": 108,
      "chip": "ym2612"
    },
    {
      "channel": 1,
      "note": 51,
      "start": 28.9174,
      "duration": 0.0994,
      "velocity": 112,
      "chip": "ym2612"
    },
    {
      "channel": 2,
      "note": 84,
      "start": 28.918,
      "duration": 0.0993,
      "velocity": 107,
      "chip": "ym2612"
    },
    {
      "channel": 3,
      "note": 75,
      "start": 28.9185,
      "duration": 0.0993,
      "velocity": 107,
      "chip": "ym2612"
    },
    {
      "channel": 1,
      "note": 63,
      "start": 29.0169,
      "duration": 0.1004,
      "velocity": 112,
      "chip": "ym2612"
    },
    {
      "channel": 2,
      "note": 82,
      "start": 29.0175,
      "duration": 0.1004,
      "velocity": 107,
      "chip": "ym2612"
    },
    {
      "channel": 3,
      "note": 74,
      "start": 29.018,
      "duration": 0.1003,
      "velocity": 107,
      "chip": "ym2612"
    },
    {
      "channel": 0,
      "note": 51,
      "start": 29.1169,
      "duration": 0.0833,
      "velocity": 108,
      "chip": "ym2612"
    },
    {
      "channel": 1,
      "note": 51,
      "start": 29.1175,
      "duration": 0.0833,
      "velocity": 112,
      "chip": "ym2612"
    },
    {
      "channel": 2,
      "note": 79,
      "start": 29.118,
      "duration": 0.1651,
      "velocity": 107,
      "chip": "ym2612"
    },
    {
      "channel": 3,
      "note": 70,
      "start": 29.1185,
      "duration": 0.1651,
      "velocity": 107,
      "chip": "ym2612"
    },
    {
      "channel": 0,
      "note": 41,
      "start": 29.2003,
      "duration": 0.1627,
      "velocity": 108,
      "chip": "ym2612"
    },
    {
      "channel": 1,
      "note": 53,
      "start": 29.2009,
      "duration": 0.0816,
      "velocity": 112,
      "chip": "ym2612"
    },
    {
      "channel": 1,
      "note": 65,
      "start": 29.2827,
      "duration": 0.0809,
      "velocity": 112,
      "chip": "ym2612"
    },
    {
      "channel": 2,
      "note": 82,
      "start": 29.2832,
      "duration": 0.0809,
      "velocity": 107,
      "chip": "ym2612"
    },
    {
      "channel": 3,
      "note": 77,
      "start": 29.2838,
      "duration": 0.0809,
      "velocity": 107,
      "chip": "ym2612"
    },
    {
      "channel": 0,
      "note": 53,
      "start": 29.3632,
      "duration": 0.0784,
      "velocity": 108,
      "chip": "ym2612"
    },
    {
      "channel": 1,
      "note": 53,
      "start": 29.3637,
      "duration": 0.0785,
      "velocity": 112,
      "chip": "ym2612"
    },
    {
      "channel": 2,
      "note": 81,
      "start": 29.3643,
      "duration": 0.0784,
      "velocity": 107,
      "chip": "ym2612"
    },
    {
      "channel": 3,
      "note": 76,
      "start": 29.3649,
      "duration": 0.0784,
      "velocity": 107,
      "chip": "ym2612"
    },
    {
      "channel": 0,
      "note": 42,
      "start": 29.4418,
      "duration": 0.1592,
      "velocity": 108,
      "chip": "ym2612"
    },
    {
      "channel": 1,
      "note": 54,
      "start": 29.4424,
      "duration": 0.079,
      "velocity": 112,
      "chip": "ym2612"
    },
    {
      "channel": 2,
      "note": 78,
      "start": 29.4429,
      "duration": 0.1593,
      "velocity": 107,
      "chip": "ym2612"
    },
    {
      "channel": 3,
      "note": 73,
      "start": 29.4434,
      "duration": 0.1594,
      "velocity": 107,
      "chip": "ym2612"
    },
    {
      "channel": 1,
      "note": 66,
      "start": 29.5215,
      "duration": 0.08,
      "velocity": 112,
      "chip": "ym2612"
    },
    {
      "channel": 0,
      "note": 38,
      "start": 29.6011,
      "duration": 0.2816,
      "velocity": 108,
      "chip": "ym2612"
    },
    {
      "channel": 1,
      "note": 50,
      "start": 29.6017,
      "duration": 0.181,
      "velocity": 112,
      "chip": "ym2612"
    },
    {
      "channel": 2,
      "note": 81,
      "start": 29.6024,
      "duration": 2.9139,
      "velocity": 107,
      "chip": "ym2612"
    },
    {
      "channel": 3,
      "note": 74,
      "start": 29.6029,
      "duration": 2.9139,
      "velocity": 107,
      "chip": "ym2612"
    },
    {
      "channel": 1,
      "note": 62,
      "start": 29.7829,
      "duration": 0.1003,
      "velocity": 112,
      "chip": "ym2612"
    },
    {
      "channel": 0,
      "note": 38,
      "start": 29.8828,
      "duration": 0.2661,
      "velocity": 108,
      "chip": "ym2612"
    },
    {
      "channel": 1,
      "note": 50,
      "start": 29.8834,
      "duration": 0.1787,
      "velocity": 112,
      "chip": "ym2612"
    },
    {
      "channel": 1,
      "note": 62,
      "start": 30.0622,
      "duration": 0.0872,
      "velocity": 112,
      "chip": "ym2612"
    },
    {
      "channel": 0,
      "note": 50,
      "start": 30.1491,
      "duration": 0.0844,
      "velocity": 108,
      "chip": "ym2612"
    },
    {
      "channel": 1,
      "note": 50,
      "start": 30.1497,
      "duration": 0.0844,
      "velocity": 112,
      "chip": "ym2612"
    },
    {
      "channel": 0,
      "note": 50,
      "start": 30.2337,
      "duration": 0.0998,
      "velocity": 108,
      "chip": "ym2612"
    },
    {
      "channel": 1,
      "note": 62,
      "start": 30.2342,
      "duration": 0.0997,
      "velocity": 112,
      "chip": "ym2612"
    },
    {
      "channel": 0,
      "note": 38,
      "start": 30.3336,
      "duration": 0.2999,
      "velocity": 108,
      "chip": "ym2612"
    },
    {
      "channel": 1,
      "note": 50,
      "start": 30.3342,
      "duration": 0.1993,
      "velocity": 112,
      "chip": "ym2612"
    },
    {
      "channel": 1,
      "note": 62,
      "start": 30.5337,
      "duration": 0.1003,
      "velocity": 112,
      "chip": "ym2612"
    },
    {
      "channel": 0,
      "note": 38,
      "start": 30.6336,
      "duration": 0.2664,
      "velocity": 108,
      "chip": "ym2612"
    },
    {
      "channel": 1,
      "note": 50,
      "start": 30.6342,
      "duration": 0.179,
      "velocity": 112,
      "chip": "ym2612"
    },
    {
      "channel": 1,
      "note": 62,
      "start": 30.8134,
      "duration": 0.0872,
      "velocity": 112,
      "chip": "ym2612"
    },
    {
      "channel": 0,
      "note": 50,
      "start": 30.9002,
      "duration": 0.0998,
      "velocity": 108,
      "chip": "ym2612"
    },
    {
      "channel": 1,
      "note": 50,
      "start": 30.9007,
      "duration": 0.0999,
      "velocity": 112,
      "chip": "ym2612"
    },
    {
      "channel": 0,
      "note": 50,
      "start": 31.0002,
      "duration": 0.0998,
      "velocity": 108,
      "chip": "ym2612"
    },
    {
      "channel": 1,
      "note": 62,
      "start": 31.0007,
      "duration": 0.0999,
      "velocity": 112,
      "chip": "ym2612"
    },
    {
      "channel": 0,
      "note": 38,
      "start": 31.1002,
      "duration": 0.2833,
      "velocity": 108,
      "chip": "ym2612"
    },
    {
      "channel": 1,
      "note": 50,
      "start": 31.1007,
      "duration": 0.1828,
      "velocity": 112,
      "chip": "ym2612"
    },
    {
      "channel": 1,
      "note": 62,
      "start": 31.2837,
      "duration": 0.1003,
      "velocity": 112,
      "chip": "ym2612"
    },
    {
      "channel": 0,
      "note": 38,
      "start": 31.3836,
      "duration": 0.2658,
      "velocity": 108,
      "chip": "ym2612"
    },
    {
      "channel": 1,
      "note": 50,
      "start": 31.3842,
      "duration": 0.1784,
      "velocity": 112,
      "chip": "ym2612"
    },
    {
      "channel": 1,
      "note": 62,
      "start": 31.5628,
      "duration": 0.0872,
      "velocity": 112,
      "chip": "ym2612"
    },
    {
      "channel": 0,
      "note": 50,
      "start": 31.6496,
      "duration": 0.0843,
      "velocity": 108,
      "chip": "ym2612"
    },
    {
      "channel": 1,
      "note": 50,
      "start": 31.6502,
      "duration": 0.0843,
      "velocity": 112,
      "chip": "ym2612"
    },
    {
      "channel": 0,
      "note": 50,
      "start": 31.7341,
      "duration": 0.0998,
      "velocity": 108,
      "chip": "ym2612"
    },
    {
      "channel": 1,
      "note": 62,
      "start": 31.7347,
      "duration": 0.0997,
      "velocity": 112,
      "chip": "ym2612"
    },
    {
      "channel": 0,
      "note": 39,
      "start": 31.8341,
      "duration": 0.283,
      "velocity": 108,
      "chip": "ym2612"
    },
    {
      "channel": 1,
      "note": 51,
      "start": 31.8347,
      "duration": 0.1994,
      "velocity": 112,
      "chip": "ym2612"
    },
    {
      "channel": 1,
      "note": 63,
      "start": 32.0341,
      "duration": 0.0835,
      "velocity": 112,
      "chip": "ym2612"
    },
    {
      "channel": 0,
      "note": 51,
      "start": 32.1173,
      "duration": 0.1618,
      "velocity": 108,
      "chip": "ym2612"
    },
    {
      "channel": 1,
      "note": 51,
      "start": 32.1178,
      "duration": 0.1618,
      "velocity": 112,
      "chip": "ym2612"
    },
    {
      "channel": 0,
      "note": 39,
      "start": 32.2793,
      "duration": 0.078,
      "velocity": 108,
      "chip": "ym2612"
    },
    {
      "channel": 1,
      "note": 63,
      "start": 32.2798,
      "duration": 0.0779,
      "velocity": 112,
      "chip": "ym2612"
    },
    {
      "channel": 0,
      "note": 35,
      "start": 32.3573,
      "duration": 0.1578,
      "velocity": 108,
      "chip": "ym2612"
    },
    {
      "channel": 1,
      "note": 47,
      "start": 32.3579,
      "duration": 0.0774,
      "velocity": 112,
      "chip": "ym2612"
    },
    {
      "channel": 1,
      "note": 59,
      "start": 32.4355,
      "duration": 0.0802,
      "velocity": 112,
      "chip": "ym2612"
    },
    {
      "channel": 0,
      "note": 38,
      "start": 32.5153,
      "duration": 0.2834,
      "velocity": 108,
      "chip": "ym2612"
    },
    {
      "channel": 1,
      "note": 50,
      "start": 32.5159,
      "duration": 0.1828,
      "velocity": 112,
      "chip": "ym2612"
    },
    {
      "channel": 2,
      "note": 86,
      "start": 32.5165,
      "duration": 2.9286,
      "velocity": 74,
      "chip": "ym2612"
    },
    {
      "channel": 3,
      "note": 93,
      "start": 32.5171,
      "duration": 3.1101,
      "velocity": 74,
      "chip": "ym2612"
    },
    {
      "channel": 1,
      "note": 62,
      "start": 32.6989,
      "duration": 0.1003,
      "velocity": 112,
      "chip": "ym2612"
    },
    {
      "channel": 0,
      "note": 38,
      "start": 32.7988,
      "duration": 0.2661,
      "velocity": 108,
      "chip": "ym2612"
    },
    {
      "channel": 1,
      "note": 50,
      "start": 32.7994,
      "duration": 0.1787,
      "velocity": 112,
      "chip": "ym2612"
    },
    {
      "channel": 1,
      "note": 62,
      "start": 32.9783,
      "duration": 0.0872,
      "velocity": 112,
      "chip": "ym2612"
    },
    {
      "channel": 0,
      "note": 50,
      "start": 33.0651,
      "duration": 0.0843,
      "velocity": 108,
      "chip": "ym2612"
    },
    {
      "channel": 1,
      "note": 50,
      "start": 33.0657,
      "duration": 0.0843,
      "velocity": 112,
      "chip": "ym2612"
    },
    {
      "channel": 0,
      "note": 50,
      "start": 33.1496,
      "duration": 0.0998,
      "velocity": 108,
      "chip": "ym2612"
    },
    {
      "channel": 1,
      "note": 62,
      "start": 33.1502,
      "duration": 0.0997,
      "velocity": 112,
      "chip": "ym2612"
    },
    {
      "channel": 0,
      "note": 38,
      "start": 33.2496,
      "duration": 0.2999,
      "velocity": 108,
      "chip": "ym2612"
    },
    {
      "channel": 1,
      "note": 50,
      "start": 33.2501,
      "duration": 0.1993,
      "velocity": 112,
      "chip": "ym2612"
    },
    {
      "channel": 1,
      "note": 62,
      "start": 33.4496,
      "duration": 0.1003,
      "velocity": 112,
      "chip": "ym2612"
    },
    {
      "channel": 0,
      "note": 38,
      "start": 33.5496,
      "duration": 0.2658,
      "velocity": 108,
      "chip": "ym2612"
    },
    {
      "channel": 1,
      "note": 50,
      "start": 33.5501,
      "duration": 0.1784,
      "velocity": 112,
      "chip": "ym2612"
    },
    {
      "channel": 1,
      "note": 62,
      "start": 33.7287,
      "duration": 0.0872,
      "velocity": 112,
      "chip": "ym2612"
    },
    {
      "channel": 0,
      "note": 50,
      "start": 33.8156,
      "duration": 0.0998,
      "velocity": 108,
      "chip": "ym2612"
    },
    {
      "channel": 1,
      "note": 50,
      "start": 33.8161,
      "duration": 0.0999,
      "velocity": 112,
      "chip": "ym2612"
    },
    {
      "channel": 0,
      "note": 50,
      "start": 33.9156,
      "duration": 0.0998,
      "velocity": 108,
      "chip": "ym2612"
    },
    {
      "channel": 1,
      "note": 62,
      "start": 33.9161,
      "duration": 0.0999,
      "velocity": 112,
      "chip": "ym2612"
    },
    {
      "channel": 0,
      "note": 38,
      "start": 34.0156,
      "duration": 0.2844,
      "velocity": 108,
      "chip": "ym2612"
    },
    {
      "channel": 1,
      "note": 50,
      "start": 34.0162,
      "duration": 0.1838,
      "velocity": 112,
      "chip": "ym2612"
    },
    {
      "channel": 1,
      "note": 62,
      "start": 34.2001,
      "duration": 0.1003,
      "velocity": 112,
      "chip": "ym2612"
    },
    {
      "channel": 0,
      "note": 38,
      "start": 34.3001,
      "duration": 0.2661,
      "velocity": 108,
      "chip": "ym2612"
    },
    {
      "channel": 1,
      "note": 50,
      "start": 34.3007,
      "duration": 0.1787,
      "velocity": 112,
      "chip": "ym2612"
    },
    {
      "channel": 1,
      "note": 62,
      "start": 34.4795,
      "duration": 0.0872,
      "velocity": 112,
      "chip": "ym2612"
    },
    {
      "channel": 0,
      "note": 50,
      "start": 34.5663,
      "duration": 0.0843,
      "velocity": 108,
      "chip": "ym2612"
    },
    {
      "channel": 1,
      "note": 50,
      "start": 34.5669,
      "duration": 0.0843,
      "velocity": 112,
      "chip": "ym2612"
    },
    {
      "channel": 0,
      "note": 50,
      "start": 34.6509,
      "duration": 0.0998,
      "velocity": 108,
      "chip": "ym2612"
    },
    {
      "channel": 1,
      "note": 62,
      "start": 34.6515,
      "duration": 0.0997,
      "velocity": 112,
      "chip": "ym2612"
    },
    {
      "channel": 0,
      "note": 39,
      "start": 34.7508,
      "duration": 0.1999,
      "velocity": 108,
      "chip": "ym2612"
    },
    {
      "channel": 1,
      "note": 51,
      "start": 34.7514,
      "duration": 0.0994,
      "velocity": 112,
      "chip": "ym2612"
    },
    {
      "channel": 1,
      "note": 63,
      "start": 34.8509,
      "duration": 0.1004,
      "velocity": 112,
      "chip": "ym2612"
    },
    {
      "channel": 0,
      "note": 51,
      "start": 34.9509,
      "duration": 0.0843,
      "velocity": 108,
      "chip": "ym2612"
    },
    {
      "channel": 1,
      "note": 51,
      "start": 34.9515,
      "duration": 0.0843,
      "velocity": 112,
      "chip": "ym2612"
    },
    {
      "channel": 0,
      "note": 41,
      "start": 35.0354,
      "duration": 0.1642,
      "velocity": 108,
      "chip": "ym2612"
    },
    {
      "channel": 1,
      "note": 53,
      "start": 35.036,
      "duration": 0.0839,
      "velocity": 112,
      "chip": "ym2612"
    },
    {
      "channel": 1,
      "note": 65,
      "start": 35.12,
      "duration": 0.0801,
      "velocity": 112,
      "chip": "ym2612"
    },
    {
      "channel": 0,
      "note": 53,
      "start": 35.1997,
      "duration": 0.0807,
      "velocity": 108,
      "chip": "ym2612"
    },
    {
      "channel": 1,
      "note": 53,
      "start": 35.2003,
      "duration": 0.0806,
      "velocity": 112,
      "chip": "ym2612"
    },
    {
      "channel": 0,
      "note": 42,
      "start": 35.2806,
      "duration": 0.1622,
      "velocity": 97,
      "chip": "ym2612"
    },
    {
      "channel": 1,
      "note": 54,
      "start": 35.2812,
      "duration": 0.081,
      "velocity": 112,
      "chip": "ym2612"
    },
    {
      "channel": 1,
      "note": 66,
      "start": 35.3624,
      "duration": 0.2621,
      "velocity": 97,
      "chip": "ym2612"
    },
    {
      "channel": 0,
      "note": 43,
      "start": 35.443,
      "duration": 4.6029,
      "velocity": 97,
      "chip": "ym2612"
    },
    {
      "channel": 2,
      "note": 86,
      "start": 35.4452,
      "duration": 0.0794,
      "velocity": 74,
      "chip": "ym2612"
    },
    {
      "channel": 2,
      "note": 85,
      "start": 35.5247,
      "duration": 0.1002,
      "velocity": 74,
      "chip": "ym2612"
    },
    {
      "channel": 1,
      "note": 43,
      "start": 35.6246,
      "duration": 4.4212,
      "velocity": 97,
      "chip": "ym2612"
    },
    {
      "channel": 2,
      "note": 79,
      "start": 35.6252,
      "duration": 0.0977,
      "velocity": 74,
      "chip": "ym2612"
    },
    {
      "channel": 3,
      "note": 86,
      "start": 35.6273,
      "duration": 0.0961,
      "velocity": 74,
      "chip": "ym2612"
    },
    {
      "channel": 2,
      "note": 89,
      "start": 35.7231,
      "duration": 0.0998,
      "velocity": 74,
      "chip": "ym2612"
    },
    {
      "channel": 3,
      "note": 85,
      "start": 35.7237,
      "duration": 0.0998,
      "velocity": 74,
      "chip": "ym2612"
    },
    {
      "channel": 2,
      "note": 88,
      "start": 35.8231,
      "duration": 0.0821,
      "velocity": 74,
      "chip": "ym2612"
    },
    {
      "channel": 3,
      "note": 79,
      "start": 35.8237,
      "duration": 0.0821,
      "velocity": 74,
      "chip": "ym2612"
    },
    {
      "channel": 2,
      "note": 84,
      "start": 35.9054,
      "duration": 0.0998,
      "velocity": 74,
      "chip": "ym2612"
    },
    {
      "channel": 3,
      "note": 89,
      "start": 35.9059,
      "duration": 0.0998,
      "velocity": 74,
      "chip": "ym2612"
    },
    {
      "channel": 2,
      "note": 80,
      "start": 36.0053,
      "duration": 0.0999,
      "velocity": 74,
      "chip": "ym2612"
    },
    {
      "channel": 3,
      "note": 88,
      "start": 36.0059,
      "duration": 0.0998,
      "velocity": 74,
      "chip": "ym2612"
    },
    {
      "channel": 2,
      "note": 81,
      "start": 36.1053,
      "duration": 0.0999,
      "velocity": 74,
      "chip": "ym2612"
    },
    {
      "channel": 3,
      "note": 84,
      "start": 36.1059,
      "duration": 0.0999,
      "velocity": 74,
      "chip": "ym2612"
    },
    {
      "channel": 2,
      "note": 86,
      "start": 36.2054,
      "duration": 0.0843,
      "velocity": 74,
      "chip": "ym2612"
    },
    {
      "channel": 3,
      "note": 80,
      "start": 36.2059,
      "duration": 0.0844,
      "velocity": 74,
      "chip": "ym2612"
    },
    {
      "channel": 2,
      "note": 85,
      "start": 36.2899,
      "duration": 0.0998,
      "velocity": 74,
      "chip": "ym2612"
    },
    {
      "channel": 3,
      "note": 81,
      "start": 36.2905,
      "duration": 0.0998,
      "velocity": 74,
      "chip": "ym2612"
    },
    {
      "channel": 2,
      "note": 79,
      "start": 36.3898,
      "duration": 0.0999,
      "velocity": 74,
      "chip": "ym2612"
    },
    {
      "channel": 3,
      "note": 86,
      "start": 36.3904,
      "duration": 0.0998,
      "velocity": 74,
      "chip": "ym2612"
    },
    {
      "channel": 2,
      "note": 89,
      "start": 36.4898,
      "duration": 0.0999,
      "velocity": 74,
      "chip": "ym2612"
    },
    {
      "channel": 3,
      "note": 85,
      "start": 36.4904,
      "duration": 0.0999,
      "velocity": 74,
      "chip": "ym2612"
    },
    {
      "channel": 2,
      "note": 88,
      "start": 36.5899,
      "duration": 0.0844,
      "velocity": 74,
      "chip": "ym2612"
    },
    {
      "channel": 3,
      "note": 79,
      "start": 36.5905,
      "duration": 0.0844,
      "velocity": 74,
      "chip": "ym2612"
    },
    {
      "channel": 2,
      "note": 84,
      "start": 36.6745,
      "duration": 0.0998,
      "velocity": 74,
      "chip": "ym2612"
    },
    {
      "channel": 3,
      "note": 89,
      "start": 36.6751,
      "duration": 0.0998,
      "velocity": 74,
      "chip": "ym2612"
    },
    {
      "channel": 2,
      "note": 80,
      "start": 36.7744,
      "duration": 0.0999,
      "velocity": 74,
      "chip": "ym2612"
    },
    {
      "channel": 3,
      "note": 88,
      "start": 36.775,
      "duration": 0.0998,
      "velocity": 74,
      "chip": "ym2612"
    },
    {
      "channel": 2,
      "note": 81,
      "start": 36.8744,
      "duration": 3.1714,
      "velocity": 74,
      "chip": "ym2612"
    },
    {
      "channel": 3,
      "note": 84,
      "start": 36.875,
      "duration": 3.1708,
      "velocity": 74,
      "chip": "ym2612"
    }
  ]
}