{
  "track_name": "17 - Wrestling",
  "duration_sec": 37.199,
  "sample_rate": 44100,
  "note_count": 606,
  "unique_pitches": 16,
  "pitch_range": 27,
  "avg_note_duration": 0.1209,
  "reconstruction_stats": {
    "notes_reconstructed": 606,
    "keyon_events": 606,
    "keyoff_events": 606,
    "orphan_keyons": 0,
    "unique_pitches": 16,
    "pitch_range": 27,
    "avg_duration_sec": 0.1209
  },
  "metadata": {
    "source": "R\\Ren & Stimpy - Stimpy's Invention\\17 - Wrestling.vgz"
  },
  "notes": [
    {
      "channel": 3,
      "note": 49,
      "start": 0.0059,
      "duration": 0.0558,
      "velocity": 115,
      "chip": "ym2612"
    },
    {
      "channel": 0,
      "note": 56,
      "start": 0.0088,
      "duration": 0.0529,
      "velocity": 115,
      "chip": "ym2612"
    },
    {
      "channel": 1,
      "note": 50,
      "start": 0.0143,
      "duration": 0.085,
      "velocity": 115,
      "chip": "ym2612"
    },
    {
      "channel": 0,
      "note": 56,
      "start": 0.1031,
      "duration": 0.037,
      "velocity": 115,
      "chip": "ym2612"
    },
    {
      "channel": 3,
      "note": 52,
      "start": 0.1056,
      "duration": 0.0346,
      "velocity": 115,
      "chip": "ym2612"
    },
    {
      "channel": 1,
      "note": 49,
      "start": 0.1079,
      "duration": 0.1144,
      "velocity": 115,
      "chip": "ym2612"
    },
    {
      "channel": 0,
      "note": 49,
      "start": 0.2255,
      "duration": 0.1135,
      "velocity": 115,
      "chip": "ym2612"
    },
    {
      "channel": 3,
      "note": 56,
      "start": 0.2282,
      "duration": 0.111,
      "velocity": 115,
      "chip": "ym2612"
    },
    {
      "channel": 1,
      "note": 50,
      "start": 0.2308,
      "duration": 0.2082,
      "velocity": 115,
      "chip": "ym2612"
    },
    {
      "channel": 0,
      "note": 52,
      "start": 0.4422,
      "duration": 0.0968,
      "velocity": 115,
      "chip": "ym2612"
    },
    {
      "channel": 3,
      "note": 56,
      "start": 0.4449,
      "duration": 0.0944,
      "velocity": 115,
      "chip": "ym2612"
    },
    {
      "channel": 1,
      "note": 49,
      "start": 0.4475,
      "duration": 0.1915,
      "velocity": 115,
      "chip": "ym2612"
    },
    {
      "channel": 0,
      "note": 49,
      "start": 0.6422,
      "duration": 0.1134,
      "velocity": 115,
      "chip": "ym2612"
    },
    {
      "channel": 3,
      "note": 56,
      "start": 0.6449,
      "duration": 0.1109,
      "velocity": 115,
      "chip": "ym2612"
    },
    {
      "channel": 1,
      "note": 50,
      "start": 0.6475,
      "duration": 0.2082,
      "velocity": 115,
      "chip": "ym2612"
    },
    {
      "channel": 0,
      "note": 52,
      "start": 0.8592,
      "duration": 0.0963,
      "velocity": 115,
      "chip": "ym2612"
    },
    {
      "channel": 3,
      "note": 56,
      "start": 0.8619,
      "duration": 0.0938,
      "velocity": 115,
      "chip": "ym2612"
    },
    {
      "channel": 1,
      "note": 49,
      "start": 0.8649,
      "duration": 0.1907,
      "velocity": 115,
      "chip": "ym2612"
    },
    {
      "channel": 0,
      "note": 49,
      "start": 1.0588,
      "duration": 0.1134,
      "velocity": 115,
      "chip": "ym2612"
    },
    {
      "channel": 3,
      "note": 56,
      "start": 1.0615,
      "duration": 0.1109,
      "velocity": 115,
      "chip": "ym2612"
    },
    {
      "channel": 1,
      "note": 50,
      "start": 1.0641,
      "duration": 0.2082,
      "velocity": 115,
      "chip": "ym2612"
    },
    {
      "channel": 0,
      "note": 52,
      "start": 1.2755,
      "duration": 0.0969,
      "velocity": 115,
      "chip": "ym2612"
    },
    {
      "channel": 3,
      "note": 56,
      "start": 1.2781,
      "duration": 0.0944,
      "velocity": 115,
      "chip": "ym2612"
    },
    {
      "channel": 1,
      "note": 49,
      "start": 1.2807,
      "duration": 0.2083,
      "velocity": 115,
      "chip": "ym2612"
    },
    {
      "channel": 0,
      "note": 49,
      "start": 1.4922,
      "duration": 0.0967,
      "velocity": 115,
      "chip": "ym2612"
    },
    {
      "channel": 3,
      "note": 56,
      "start": 1.4949,
      "duration": 0.0942,
      "velocity": 115,
      "chip": "ym2612"
    },
    {
      "channel": 1,
      "note": 50,
      "start": 1.4975,
      "duration": 0.1915,
      "velocity": 115,
      "chip": "ym2612"
    },
    {
      "channel": 4,
      "note": 73,
      "start": 1.5025,
      "duration": 0.0868,
      "velocity": 115,
      "chip": "ym2612"
    },
    {
      "channel": 4,
      "note": 73,
      "start": 1.5928,
      "duration": 0.0964,
      "velocity": 115,
      "chip": "ym2612"
    },
    {
      "channel": 0,
      "note": 56,
      "start": 1.6927,
      "duration": 0.0963,
      "velocity": 115,
      "chip": "ym2612"
    },
    {
      "channel": 3,
      "note": 52,
      "start": 1.6954,
      "duration": 0.0938,
      "velocity": 115,
      "chip": "ym2612"
    },
    {
      "channel": 1,
      "note": 49,
      "start": 1.698,
      "duration": 0.2076,
      "velocity": 115,
      "chip": "ym2612"
    },
    {
      "channel": 4,
      "note": 73,
      "start": 1.701,
      "duration": 0.0882,
      "velocity": 115,
      "chip": "ym2612"
    },
    {
      "channel": 4,
      "note": 73,
      "start": 1.7933,
      "duration": 0.1125,
      "velocity": 115,
      "chip": "ym2612"
    },
    {
      "channel": 0,
      "note": 49,
      "start": 1.9089,
      "duration": 0.0966,
      "velocity": 115,
      "chip": "ym2612"
    },
    {
      "channel": 3,
      "note": 56,
      "start": 1.9116,
      "duration": 0.0941,
      "velocity": 115,
      "chip": "ym2612"
    },
    {
      "channel": 1,
      "note": 50,
      "start": 1.9142,
      "duration": 0.1914,
      "velocity": 115,
      "chip": "ym2612"
    },
    {
      "channel": 4,
      "note": 73,
      "start": 1.9173,
      "duration": 0.0887,
      "velocity": 115,
      "chip": "ym2612"
    },
    {
      "channel": 4,
      "note": 73,
      "start": 2.0096,
      "duration": 0.0962,
      "velocity": 115,
      "chip": "ym2612"
    },
    {
      "channel": 0,
      "note": 52,
      "start": 2.1089,
      "duration": 0.0966,
      "velocity": 115,
      "chip": "ym2612"
    },
    {
      "channel": 3,
      "note": 56,
      "start": 2.1116,
      "duration": 0.0941,
      "velocity": 115,
      "chip": "ym2612"
    },
    {
      "channel": 1,
      "note": 49,
      "start": 2.1142,
      "duration": 0.2081,
      "velocity": 115,
      "chip": "ym2612"
    },
    {
      "channel": 4,
      "note": 73,
      "start": 2.1173,
      "duration": 0.0887,
      "velocity": 115,
      "chip": "ym2612"
    },
    {
      "channel": 4,
      "note": 73,
      "start": 2.2095,
      "duration": 0.113,
      "velocity": 115,
      "chip": "ym2612"
    },
    {
      "channel": 0,
      "note": 49,
      "start": 2.3256,
      "duration": 0.0967,
      "velocity": 115,
      "chip": "ym2612"
    },
    {
      "channel": 3,
      "note": 56,
      "start": 2.3283,
      "duration": 0.0942,
      "velocity": 115,
      "chip": "ym2612"
    },
    {
      "channel": 1,
      "note": 50,
      "start": 2.3309,
      "duration": 0.1914,
      "velocity": 115,
      "chip": "ym2612"
    },
    {
      "channel": 4,
      "note": 73,
      "start": 2.334,
      "duration": 0.0887,
      "velocity": 115,
      "chip": "ym2612"
    },
    {
      "channel": 4,
      "note": 73,
      "start": 2.4263,
      "duration": 0.0963,
      "velocity": 115,
      "chip": "ym2612"
    },
    {
      "channel": 0,
      "note": 52,
      "start": 2.526,
      "duration": 0.1129,
      "velocity": 115,
      "chip": "ym2612"
    },
    {
      "channel": 3,
      "note": 56,
      "start": 2.5287,
      "duration": 0.1104,
      "velocity": 115,
      "chip": "ym2612"
    },
    {
      "channel": 1,
      "note": 49,
      "start": 2.5313,
      "duration": 0.2076,
      "velocity": 115,
      "chip": "ym2612"
    },
    {
      "channel": 4,
      "note": 73,
      "start": 2.5344,
      "duration": 0.1049,
      "velocity": 115,
      "chip": "ym2612"
    },
    {
      "channel": 4,
      "note": 73,
      "start": 2.6429,
      "duration": 0.0962,
      "velocity": 115,
      "chip": "ym2612"
    },
    {
      "channel": 0,
      "note": 49,
      "start": 2.7422,
      "duration": 0.0966,
      "velocity": 115,
      "chip": "ym2612"
    },
    {
      "channel": 3,
      "note": 56,
      "start": 2.7449,
      "duration": 0.0941,
      "velocity": 115,
      "chip": "ym2612"
    },
    {
      "channel": 1,
      "note": 50,
      "start": 2.7475,
      "duration": 0.1914,
      "velocity": 115,
      "chip": "ym2612"
    },
    {
      "channel": 4,
      "note": 73,
      "start": 2.7506,
      "duration": 0.0887,
      "velocity": 115,
      "chip": "ym2612"
    },
    {
      "channel": 4,
      "note": 73,
      "start": 2.8429,
      "duration": 0.0962,
      "velocity": 115,
      "chip": "ym2612"
    },
    {
      "channel": 0,
      "note": 52,
      "start": 2.9422,
      "duration": 0.1133,
      "velocity": 115,
      "chip": "ym2612"
    },
    {
      "channel": 3,
      "note": 56,
      "start": 2.9449,
      "duration": 0.1108,
      "velocity": 115,
      "chip": "ym2612"
    },
    {
      "channel": 1,
      "note": 49,
      "start": 2.9478,
      "duration": 0.2078,
      "velocity": 115,
      "chip": "ym2612"
    },
    {
      "channel": 4,
      "note": 73,
      "start": 2.9508,
      "duration": 0.1051,
      "velocity": 115,
      "chip": "ym2612"
    },
    {
      "channel": 4,
      "note": 73,
      "start": 3.0598,
      "duration": 0.096,
      "velocity": 115,
      "chip": "ym2612"
    },
    {
      "channel": 0,
      "note": 49,
      "start": 3.1589,
      "duration": 0.0966,
      "velocity": 115,
      "chip": "ym2612"
    },
    {
      "channel": 3,
      "note": 56,
      "start": 3.1616,
      "duration": 0.0942,
      "velocity": 115,
      "chip": "ym2612"
    },
    {
      "channel": 2,
      "note": 75,
      "start": 3.1663,
      "duration": 0.0898,
      "velocity": 101,
      "chip": "ym2612"
    },
    {
      "channel": 5,
      "note": 71,
      "start": 3.1692,
      "duration": 0.0868,
      "velocity": 101,
      "chip": "ym2612"
    },
    {
      "channel": 5,
      "note": 73,
      "start": 3.2599,
      "duration": 0.096,
      "velocity": 101,
      "chip": "ym2612"
    },
    {
      "channel": 2,
      "note": 68,
      "start": 3.2628,
      "duration": 0.0932,
      "velocity": 101,
      "chip": "ym2612"
    },
    {
      "channel": 0,
      "note": 56,
      "start": 3.3594,
      "duration": 0.113,
      "velocity": 115,
      "chip": "ym2612"
    },
    {
      "channel": 3,
      "note": 52,
      "start": 3.362,
      "duration": 0.1105,
      "velocity": 115,
      "chip": "ym2612"
    },
    {
      "channel": 5,
      "note": 71,
      "start": 3.3651,
      "duration": 0.1076,
      "velocity": 101,
      "chip": "ym2612"
    },
    {
      "channel": 2,
      "note": 75,
      "start": 3.368,
      "duration": 0.1049,
      "velocity": 101,
      "chip": "ym2612"
    },
    {
      "channel": 5,
      "note": 68,
      "start": 3.4762,
      "duration": 0.0963,
      "velocity": 101,
      "chip": "ym2612"
    },
    {
      "channel": 2,
      "note": 73,
      "start": 3.4793,
      "duration": 0.0934,
      "velocity": 101,
      "chip": "ym2612"
    },
    {
      "channel": 0,
      "note": 49,
      "start": 3.5756,
      "duration": 0.0966,
      "velocity": 115,
      "chip": "ym2612"
    },
    {
      "channel": 3,
      "note": 56,
      "start": 3.5783,
      "duration": 0.0941,
      "velocity": 115,
      "chip": "ym2612"
    },
    {
      "channel": 0,
      "note": 52,
      "start": 3.7753,
      "duration": 0.1136,
      "velocity": 115,
      "chip": "ym2612"
    },
    {
      "channel": 3,
      "note": 56,
      "start": 3.7781,
      "duration": 0.111,
      "velocity": 115,
      "chip": "ym2612"
    },
    {
      "channel": 0,
      "note": 49,
      "start": 3.9921,
      "duration": 0.0968,
      "velocity": 115,
      "chip": "ym2612"
    },
    {
      "channel": 3,
      "note": 56,
      "start": 3.9949,
      "duration": 0.0942,
      "velocity": 115,
      "chip": "ym2612"
    },
    {
      "channel": 0,
      "note": 52,
      "start": 4.2092,
      "duration": 0.0965,
      "velocity": 115,
      "chip": "ym2612"
    },
    {
      "channel": 3,
      "note": 56,
      "start": 4.2119,
      "duration": 0.094,
      "velocity": 115,
      "chip": "ym2612"
    },
    {
      "channel": 0,
      "note": 49,
      "start": 4.4087,
      "duration": 0.0969,
      "velocity": 115,
      "chip": "ym2612"
    },
    {
      "channel": 3,
      "note": 56,
      "start": 4.4115,
      "duration": 0.0944,
      "velocity": 115,
      "chip": "ym2612"
    },
    {
      "channel": 0,
      "note": 52,
      "start": 4.6255,
      "duration": 0.0968,
      "velocity": 115,
      "chip": "ym2612"
    },
    {
      "channel": 3,
      "note": 56,
      "start": 4.6282,
      "duration": 0.0942,
      "velocity": 115,
      "chip": "ym2612"
    },
    {
      "channel": 0,
      "note": 61,
      "start": 4.8253,
      "duration": 0.0969,
      "velocity": 115,
      "chip": "ym2612"
    },
    {
      "channel": 3,
      "note": 54,
      "start": 4.8281,
      "duration": 0.0943,
      "velocity": 115,
      "chip": "ym2612"
    },
    {
      "channel": 5,
      "note": 68,
      "start": 4.8311,
      "duration": 0.0917,
      "velocity": 101,
      "chip": "ym2612"
    },
    {
      "channel": 2,
      "note": 71,
      "start": 4.8339,
      "duration": 0.0889,
      "velocity": 101,
      "chip": "ym2612"
    },
    {
      "channel": 4,
      "note": 73,
      "start": 4.8373,
      "duration": 0.0853,
      "velocity": 115,
      "chip": "ym2612"
    },
    {
      "channel": 5,
      "note": 73,
      "start": 4.9266,
      "duration": 0.1127,
      "velocity": 101,
      "chip": "ym2612"
    },
    {
      "channel": 2,
      "note": 68,
      "start": 4.9295,
      "duration": 0.1099,
      "velocity": 101,
      "chip": "ym2612"
    },
    {
      "channel": 4,
      "note": 73,
      "start": 4.9324,
      "duration": 0.1067,
      "velocity": 115,
      "chip": "ym2612"
    },
    {
      "channel": 0,
      "note": 57,
      "start": 5.0428,
      "duration": 0.0961,
      "velocity": 115,
      "chip": "ym2612"
    },
    {
      "channel": 3,
      "note": 61,
      "start": 5.0455,
      "duration": 0.0936,
      "velocity": 115,
      "chip": "ym2612"
    },
    {
      "channel": 5,
      "note": 71,
      "start": 5.0485,
      "duration": 0.0909,
      "velocity": 101,
      "chip": "ym2612"
    },
    {
      "channel": 2,
      "note": 68,
      "start": 5.0514,
      "duration": 0.0882,
      "velocity": 101,
      "chip": "ym2612"
    },
    {
      "channel": 4,
      "note": 73,
      "start": 5.0543,
      "duration": 0.085,
      "velocity": 115,
      "chip": "ym2612"
    },
    {
      "channel": 5,
      "note": 73,
      "start": 5.1429,
      "duration": 0.0963,
      "velocity": 101,
      "chip": "ym2612"
    },
    {
      "channel": 2,
      "note": 68,
      "start": 5.1459,
      "duration": 0.0934,
      "velocity": 101,
      "chip": "ym2612"
    },
    {
      "channel": 4,
      "note": 73,
      "start": 5.1489,
      "duration": 0.0901,
      "velocity": 115,
      "chip": "ym2612"
    },
    {
      "channel": 0,
      "note": 61,
      "start": 5.2423,
      "duration": 0.1133,
      "velocity": 115,
      "chip": "ym2612"
    },
    {
      "channel": 3,
      "note": 54,
      "start": 5.2451,
      "duration": 0.1108,
      "velocity": 115,
      "chip": "ym2612"
    },
    {
      "channel": 4,
      "note": 73,
      "start": 5.2482,
      "duration": 0.1078,
      "velocity": 115,
      "chip": "ym2612"
    },
    {
      "channel": 4,
      "note": 73,
      "start": 5.3596,
      "duration": 0.0961,
      "velocity": 115,
      "chip": "ym2612"
    },
    {
      "channel": 0,
      "note": 61,
      "start": 5.4589,
      "duration": 0.0968,
      "velocity": 115,
      "chip": "ym2612"
    },
    {
      "channel": 3,
      "note": 57,
      "start": 5.4615,
      "duration": 0.0944,
      "velocity": 115,
      "chip": "ym2612"
    },
    {
      "channel": 4,
      "note": 73,
      "start": 5.4646,
      "duration": 0.0913,
      "velocity": 115,
      "chip": "ym2612"
    },
    {
      "channel": 4,
      "note": 73,
      "start": 5.5596,
      "duration": 0.0961,
      "velocity": 115,
      "chip": "ym2612"
    },
    {
      "channel": 0,
      "note": 61,
      "start": 5.6589,
      "duration": 0.1135,
      "velocity": 115,
      "chip": "ym2612"
    },
    {
      "channel": 3,
      "note": 54,
      "start": 5.6615,
      "duration": 0.111,
      "velocity": 115,
      "chip": "ym2612"
    },
    {
      "channel": 4,
      "note": 73,
      "start": 5.6646,
      "duration": 0.108,
      "velocity": 115,
      "chip": "ym2612"
    },
    {
      "channel": 4,
      "note": 73,
      "start": 5.7763,
      "duration": 0.0961,
      "velocity": 115,
      "chip": "ym2612"
    },
    {
      "channel": 0,
      "note": 61,
      "start": 5.8759,
      "duration": 0.0964,
      "velocity": 115,
      "chip": "ym2612"
    },
    {
      "channel": 3,
      "note": 57,
      "start": 5.8786,
      "duration": 0.0938,
      "velocity": 115,
      "chip": "ym2612"
    },
    {
      "channel": 4,
      "note": 73,
      "start": 5.8817,
      "duration": 0.0909,
      "velocity": 115,
      "chip": "ym2612"
    },
    {
      "channel": 4,
      "note": 73,
      "start": 5.9762,
      "duration": 0.0963,
      "velocity": 115,
      "chip": "ym2612"
    },
    {
      "channel": 0,
      "note": 61,
      "start": 6.0756,
      "duration": 0.1133,
      "velocity": 115,
      "chip": "ym2612"
    },
    {
      "channel": 3,
      "note": 54,
      "start": 6.0783,
      "duration": 0.1108,
      "velocity": 115,
      "chip": "ym2612"
    },
    {
      "channel": 4,
      "note": 73,
      "start": 6.0814,
      "duration": 0.1079,
      "velocity": 115,
      "chip": "ym2612"
    },
    {
      "channel": 4,
      "note": 73,
      "start": 6.1929,
      "duration": 0.0962,
      "velocity": 115,
      "chip": "ym2612"
    },
    {
      "channel": 0,
      "note": 61,
      "start": 6.2922,
      "duration": 0.0966,
      "velocity": 115,
      "chip": "ym2612"
    },
    {
      "channel": 3,
      "note": 57,
      "start": 6.2949,
      "duration": 0.0941,
      "velocity": 115,
      "chip": "ym2612"
    },
    {
      "channel": 4,
      "note": 73,
      "start": 6.298,
      "duration": 0.0912,
      "velocity": 115,
      "chip": "ym2612"
    },
    {
      "channel": 4,
      "note": 73,
      "start": 6.3935,
      "duration": 0.0956,
      "velocity": 115,
      "chip": "ym2612"
    },
    {
      "channel": 0,
      "note": 61,
      "start": 6.4922,
      "duration": 0.1134,
      "velocity": 115,
      "chip": "ym2612"
    },
    {
      "channel": 3,
      "note": 54,
      "start": 6.4949,
      "duration": 0.1109,
      "velocity": 115,
      "chip": "ym2612"
    },
    {
      "channel": 0,
      "note": 57,
      "start": 6.7092,
      "duration": 0.0964,
      "velocity": 115,
      "chip": "ym2612"
    },
    {
      "channel": 3,
      "note": 61,
      "start": 6.7119,
      "duration": 0.094,
      "velocity": 115,
      "chip": "ym2612"
    },
    {
      "channel": 0,
      "note": 61,
      "start": 6.9255,
      "duration": 0.0968,
      "velocity": 115,
      "chip": "ym2612"
    },
    {
      "channel": 3,
      "note": 54,
      "start": 6.9281,
      "duration": 0.0944,
      "velocity": 115,
      "chip": "ym2612"
    },
    {
      "channel": 1,
      "note": 61,
      "start": 6.9331,
      "duration": 0.1892,
      "velocity": 96,
      "chip": "ym2612"
    },
    {
      "channel": 5,
      "note": 61,
      "start": 7.0778,
      "duration": 0.1947,
      "velocity": 96,
      "chip": "ym2612"
    },
    {
      "channel": 0,
      "note": 61,
      "start": 7.1255,
      "duration": 0.0968,
      "velocity": 115,
      "chip": "ym2612"
    },
    {
      "channel": 3,
      "note": 57,
      "start": 7.1282,
      "duration": 0.0943,
      "velocity": 115,
      "chip": "ym2612"
    },
    {
      "channel": 1,
      "note": 61,
      "start": 7.1311,
      "duration": 0.2078,
      "velocity": 96,
      "chip": "ym2612"
    },
    {
      "channel": 5,
      "note": 61,
      "start": 7.2761,
      "duration": 0.2131,
      "velocity": 96,
      "chip": "ym2612"
    },
    {
      "channel": 0,
      "note": 61,
      "start": 7.3421,
      "duration": 0.0968,
      "velocity": 115,
      "chip": "ym2612"
    },
    {
      "channel": 3,
      "note": 54,
      "start": 7.3449,
      "duration": 0.0943,
      "velocity": 115,
      "chip": "ym2612"
    },
    {
      "channel": 1,
      "note": 64,
      "start": 7.3483,
      "duration": 0.4073,
      "velocity": 96,
      "chip": "ym2612"
    },
    {
      "channel": 5,
      "note": 64,
      "start": 7.4934,
      "duration": 0.4124,
      "velocity": 96,
      "chip": "ym2612"
    },
    {
      "channel": 0,
      "note": 61,
      "start": 7.5427,
      "duration": 0.0963,
      "velocity": 115,
      "chip": "ym2612"
    },
    {
      "channel": 3,
      "note": 57,
      "start": 7.5454,
      "duration": 0.0938,
      "velocity": 115,
      "chip": "ym2612"
    },
    {
      "channel": 0,
      "note": 61,
      "start": 7.7588,
      "duration": 0.0968,
      "velocity": 115,
      "chip": "ym2612"
    },
    {
      "channel": 3,
      "note": 54,
      "start": 7.7615,
      "duration": 0.0943,
      "velocity": 115,
      "chip": "ym2612"
    },
    {
      "channel": 1,
      "note": 61,
      "start": 7.7646,
      "duration": 0.4076,
      "velocity": 96,
      "chip": "ym2612"
    },
    {
      "channel": 5,
      "note": 61,
      "start": 7.9096,
      "duration": 0.4129,
      "velocity": 96,
      "chip": "ym2612"
    },
    {
      "channel": 0,
      "note": 61,
      "start": 7.9588,
      "duration": 0.1135,
      "velocity": 115,
      "chip": "ym2612"
    },
    {
      "channel": 3,
      "note": 57,
      "start": 7.9615,
      "duration": 0.111,
      "velocity": 115,
      "chip": "ym2612"
    },
    {
      "channel": 0,
      "note": 49,
      "start": 8.1755,
      "duration": 0.0969,
      "velocity": 115,
      "chip": "ym2612"
    },
    {
      "channel": 3,
      "note": 56,
      "start": 8.1782,
      "duration": 0.0944,
      "velocity": 115,
      "chip": "ym2612"
    },
    {
      "channel": 4,
      "note": 73,
      "start": 8.1815,
      "duration": 0.0912,
      "velocity": 115,
      "chip": "ym2612"
    },
    {
      "channel": 4,
      "note": 73,
      "start": 8.2763,
      "duration": 0.0961,
      "velocity": 115,
      "chip": "ym2612"
    },
    {
      "channel": 0,
      "note": 56,
      "start": 8.3759,
      "duration": 0.1131,
      "velocity": 115,
      "chip": "ym2612"
    },
    {
      "channel": 3,
      "note": 52,
      "start": 8.3785,
      "duration": 0.1107,
      "velocity": 115,
      "chip": "ym2612"
    },
    {
      "channel": 4,
      "note": 73,
      "start": 8.3816,
      "duration": 0.1077,
      "velocity": 115,
      "chip": "ym2612"
    },
    {
      "channel": 4,
      "note": 73,
      "start": 8.4929,
      "duration": 0.0961,
      "velocity": 115,
      "chip": "ym2612"
    },
    {
      "channel": 0,
      "note": 49,
      "start": 8.5922,
      "duration": 0.0968,
      "velocity": 115,
      "chip": "ym2612"
    },
    {
      "channel": 3,
      "note": 56,
      "start": 8.5949,
      "duration": 0.0944,
      "velocity": 115,
      "chip": "ym2612"
    },
    {
      "channel": 4,
      "note": 73,
      "start": 8.598,
      "duration": 0.0913,
      "velocity": 115,
      "chip": "ym2612"
    },
    {
      "channel": 4,
      "note": 73,
      "start": 8.6929,
      "duration": 0.0961,
      "velocity": 115,
      "chip": "ym2612"
    },
    {
      "channel": 0,
      "note": 52,
      "start": 8.7922,
      "duration": 0.1134,
      "velocity": 115,
      "chip": "ym2612"
    },
    {
      "channel": 3,
      "note": 56,
      "start": 8.7949,
      "duration": 0.111,
      "velocity": 115,
      "chip": "ym2612"
    },
    {
      "channel": 4,
      "note": 73,
      "start": 8.798,
      "duration": 0.108,
      "velocity": 115,
      "chip": "ym2612"
    },
    {
      "channel": 4,
      "note": 73,
      "start": 8.9096,
      "duration": 0.0961,
      "velocity": 115,
      "chip": "ym2612"
    },
    {
      "channel": 0,
      "note": 49,
      "start": 9.0089,
      "duration": 0.0968,
      "velocity": 115,
      "chip": "ym2612"
    },
    {
      "channel": 3,
      "note": 56,
      "start": 9.0115,
      "duration": 0.0944,
      "velocity": 115,
      "chip": "ym2612"
    },
    {
      "channel": 4,
      "note": 73,
      "start": 9.0146,
      "duration": 0.0913,
      "velocity": 115,
      "chip": "ym2612"
    },
    {
      "channel": 4,
      "note": 73,
      "start": 9.1096,
      "duration": 0.0961,
      "velocity": 115,
      "chip": "ym2612"
    },
    {
      "channel": 0,
      "note": 52,
      "start": 9.2092,
      "duration": 0.1131,
      "velocity": 115,
      "chip": "ym2612"
    },
    {
      "channel": 3,
      "note": 56,
      "start": 9.2119,
      "duration": 0.1106,
      "velocity": 115,
      "chip": "ym2612"
    },
    {
      "channel": 4,
      "note": 73,
      "start": 9.215,
      "duration": 0.1076,
      "velocity": 115,
      "chip": "ym2612"
    },
    {
      "channel": 4,
      "note": 73,
      "start": 9.3262,
      "duration": 0.0961,
      "velocity": 115,
      "chip": "ym2612"
    },
    {
      "channel": 0,
      "note": 49,
      "start": 9.4255,
      "duration": 0.0968,
      "velocity": 115,
      "chip": "ym2612"
    },
    {
      "channel": 3,
      "note": 56,
      "start": 9.4281,
      "duration": 0.0943,
      "velocity": 115,
      "chip": "ym2612"
    },
    {
      "channel": 4,
      "note": 73,
      "start": 9.4313,
      "duration": 0.0913,
      "velocity": 115,
      "chip": "ym2612"
    },
    {
      "channel": 4,
      "note": 73,
      "start": 9.5266,
      "duration": 0.1125,
      "velocity": 115,
      "chip": "ym2612"
    },
    {
      "channel": 0,
      "note": 52,
      "start": 9.6422,
      "duration": 0.0966,
      "velocity": 115,
      "chip": "ym2612"
    },
    {
      "channel": 3,
      "note": 56,
      "start": 9.6449,
      "duration": 0.0941,
      "velocity": 115,
      "chip": "ym2612"
    },
    {
      "channel": 4,
      "note": 73,
      "start": 9.648,
      "duration": 0.0912,
      "velocity": 115,
      "chip": "ym2612"
    },
    {
      "channel": 4,
      "note": 73,
      "start": 9.7432,
      "duration": 0.0959,
      "velocity": 115,
      "chip": "ym2612"
    },
    {
      "channel": 0,
      "note": 49,
      "start": 9.8421,
      "duration": 0.0969,
      "velocity": 115,
      "chip": "ym2612"
    },
    {
      "channel": 3,
      "note": 56,
      "start": 9.8449,
      "duration": 0.0944,
      "velocity": 115,
      "chip": "ym2612"
    },
    {
      "channel": 2,
      "note": 75,
      "start": 9.848,
      "duration": 0.0915,
      "velocity": 101,
      "chip": "ym2612"
    },
    {
      "channel": 1,
      "note": 71,
      "start": 9.8512,
      "duration": 0.088,
      "velocity": 101,
      "chip": "ym2612"
    },
    {
      "channel": 1,
      "note": 73,
      "start": 9.9428,
      "duration": 0.1129,
      "velocity": 101,
      "chip": "ym2612"
    },
    {
      "channel": 2,
      "note": 68,
      "start": 9.9456,
      "duration": 0.1103,
      "velocity": 101,
      "chip": "ym2612"
    },
    {
      "channel": 0,
      "note": 56,
      "start": 10.0593,
      "duration": 0.0963,
      "velocity": 115,
      "chip": "ym2612"
    },
    {
      "channel": 3,
      "note": 52,
      "start": 10.062,
      "duration": 0.0939,
      "velocity": 115,
      "chip": "ym2612"
    },
    {
      "channel": 1,
      "note": 71,
      "start": 10.0648,
      "duration": 0.0908,
      "velocity": 101,
      "chip": "ym2612"
    },
    {
      "channel": 2,
      "note": 75,
      "start": 10.0677,
      "duration": 0.0884,
      "velocity": 101,
      "chip": "ym2612"
    },
    {
      "channel": 1,
      "note": 68,
      "start": 10.1593,
      "duration": 0.0963,
      "velocity": 101,
      "chip": "ym2612"
    },
    {
      "channel": 2,
      "note": 73,
      "start": 10.1624,
      "duration": 0.0935,
      "velocity": 101,
      "chip": "ym2612"
    },
    {
      "channel": 0,
      "note": 49,
      "start": 10.2589,
      "duration": 0.0968,
      "velocity": 115,
      "chip": "ym2612"
    },
    {
      "channel": 3,
      "note": 56,
      "start": 10.2616,
      "duration": 0.0942,
      "velocity": 115,
      "chip": "ym2612"
    },
    {
      "channel": 0,
      "note": 52,
      "start": 10.4754,
      "duration": 0.0969,
      "velocity": 115,
      "chip": "ym2612"
    },
    {
      "channel": 3,
      "note": 56,
      "start": 10.4781,
      "duration": 0.0944,
      "velocity": 115,
      "chip": "ym2612"
    },
    {
      "channel": 0,
      "note": 49,
      "start": 10.6754,
      "duration": 0.1136,
      "velocity": 115,
      "chip": "ym2612"
    },
    {
      "channel": 3,
      "note": 56,
      "start": 10.6781,
      "duration": 0.1111,
      "velocity": 115,
      "chip": "ym2612"
    },
    {
      "channel": 0,
      "note": 52,
      "start": 10.8925,
      "duration": 0.0964,
      "velocity": 115,
      "chip": "ym2612"
    },
    {
      "channel": 3,
      "note": 56,
      "start": 10.8952,
      "duration": 0.094,
      "velocity": 115,
      "chip": "ym2612"
    },
    {
      "channel": 0,
      "note": 49,
      "start": 11.0921,
      "duration": 0.1136,
      "velocity": 115,
      "chip": "ym2612"
    },
    {
      "channel": 3,
      "note": 56,
      "start": 11.0948,
      "duration": 0.1111,
      "velocity": 115,
      "chip": "ym2612"
    },
    {
      "channel": 0,
      "note": 52,
      "start": 11.3087,
      "duration": 0.0969,
      "velocity": 115,
      "chip": "ym2612"
    },
    {
      "channel": 3,
      "note": 56,
      "start": 11.3115,
      "duration": 0.0944,
      "velocity": 115,
      "chip": "ym2612"
    },
    {
      "channel": 0,
      "note": 61,
      "start": 11.5087,
      "duration": 0.1136,
      "velocity": 115,
      "chip": "ym2612"
    },
    {
      "channel": 3,
      "note": 54,
      "start": 11.5115,
      "duration": 0.1111,
      "velocity": 115,
      "chip": "ym2612"
    },
    {
      "channel": 1,
      "note": 68,
      "start": 11.5143,
      "duration": 0.1081,
      "velocity": 101,
      "chip": "ym2612"
    },
    {
      "channel": 2,
      "note": 71,
      "start": 11.5176,
      "duration": 0.1054,
      "velocity": 101,
      "chip": "ym2612"
    },
    {
      "channel": 4,
      "note": 73,
      "start": 11.5206,
      "duration": 0.1022,
      "velocity": 115,
      "chip": "ym2612"
    },
    {
      "channel": 1,
      "note": 73,
      "start": 11.6262,
      "duration": 0.0961,
      "velocity": 101,
      "chip": "ym2612"
    },
    {
      "channel": 2,
      "note": 68,
      "start": 11.6291,
      "duration": 0.0936,
      "velocity": 101,
      "chip": "ym2612"
    },
    {
      "channel": 4,
      "note": 73,
      "start": 11.632,
      "duration": 0.0905,
      "velocity": 115,
      "chip": "ym2612"
    },
    {
      "channel": 0,
      "note": 57,
      "start": 11.726,
      "duration": 0.0963,
      "velocity": 115,
      "chip": "ym2612"
    },
    {
      "channel": 3,
      "note": 61,
      "start": 11.7287,
      "duration": 0.0938,
      "velocity": 115,
      "chip": "ym2612"
    },
    {
      "channel": 1,
      "note": 71,
      "start": 11.7316,
      "duration": 0.0908,
      "velocity": 101,
      "chip": "ym2612"
    },
    {
      "channel": 2,
      "note": 68,
      "start": 11.7345,
      "duration": 0.0884,
      "velocity": 101,
      "chip": "ym2612"
    },
    {
      "channel": 4,
      "note": 73,
      "start": 11.7373,
      "duration": 0.0854,
      "velocity": 115,
      "chip": "ym2612"
    },
    {
      "channel": 1,
      "note": 73,
      "start": 11.8261,
      "duration": 0.0962,
      "velocity": 101,
      "chip": "ym2612"
    },
    {
      "channel": 2,
      "note": 68,
      "start": 11.8292,
      "duration": 0.0936,
      "velocity": 101,
      "chip": "ym2612"
    },
    {
      "channel": 4,
      "note": 73,
      "start": 11.8321,
      "duration": 0.0905,
      "velocity": 115,
      "chip": "ym2612"
    },
    {
      "channel": 0,
      "note": 61,
      "start": 11.9257,
      "duration": 0.1132,
      "velocity": 115,
      "chip": "ym2612"
    },
    {
      "channel": 3,
      "note": 54,
      "start": 11.9285,
      "duration": 0.1106,
      "velocity": 115,
      "chip": "ym2612"
    },
    {
      "channel": 4,
      "note": 73,
      "start": 11.9316,
      "duration": 0.1077,
      "velocity": 115,
      "chip": "ym2612"
    },
    {
      "channel": 4,
      "note": 73,
      "start": 12.0429,
      "duration": 0.0962,
      "velocity": 115,
      "chip": "ym2612"
    },
    {
      "channel": 0,
      "note": 61,
      "start": 12.1421,
      "duration": 0.0968,
      "velocity": 115,
      "chip": "ym2612"
    },
    {
      "channel": 3,
      "note": 57,
      "start": 12.1449,
      "duration": 0.0944,
      "velocity": 115,
      "chip": "ym2612"
    },
    {
      "channel": 4,
      "note": 73,
      "start": 12.148,
      "duration": 0.0913,
      "velocity": 115,
      "chip": "ym2612"
    },
    {
      "channel": 4,
      "note": 73,
      "start": 12.2429,
      "duration": 0.1128,
      "velocity": 115,
      "chip": "ym2612"
    },
    {
      "channel": 0,
      "note": 61,
      "start": 12.3589,
      "duration": 0.0968,
      "velocity": 115,
      "chip": "ym2612"
    },
    {
      "channel": 3,
      "note": 54,
      "start": 12.3615,
      "duration": 0.0944,
      "velocity": 115,
      "chip": "ym2612"
    },
    {
      "channel": 4,
      "note": 73,
      "start": 12.3646,
      "duration": 0.0913,
      "velocity": 115,
      "chip": "ym2612"
    },
    {
      "channel": 4,
      "note": 73,
      "start": 12.4596,
      "duration": 0.0962,
      "velocity": 115,
      "chip": "ym2612"
    },
    {
      "channel": 0,
      "note": 61,
      "start": 12.5592,
      "duration": 0.0963,
      "velocity": 115,
      "chip": "ym2612"
    },
    {
      "channel": 3,
      "note": 57,
      "start": 12.562,
      "duration": 0.0938,
      "velocity": 115,
      "chip": "ym2612"
    },
    {
      "channel": 4,
      "note": 73,
      "start": 12.5655,
      "duration": 0.0905,
      "velocity": 115,
      "chip": "ym2612"
    },
    {
      "channel": 4,
      "note": 73,
      "start": 12.6596,
      "duration": 0.1128,
      "velocity": 115,
      "chip": "ym2612"
    },
    {
      "channel": 0,
      "note": 61,
      "start": 12.7755,
      "duration": 0.0968,
      "velocity": 115,
      "chip": "ym2612"
    },
    {
      "channel": 3,
      "note": 54,
      "start": 12.7781,
      "duration": 0.0943,
      "velocity": 115,
      "chip": "ym2612"
    },
    {
      "channel": 4,
      "note": 73,
      "start": 12.7812,
      "duration": 0.0914,
      "velocity": 115,
      "chip": "ym2612"
    },
    {
      "channel": 4,
      "note": 73,
      "start": 12.8762,
      "duration": 0.0961,
      "velocity": 115,
      "chip": "ym2612"
    },
    {
      "channel": 0,
      "note": 61,
      "start": 12.9755,
      "duration": 0.0968,
      "velocity": 115,
      "chip": "ym2612"
    },
    {
      "channel": 3,
      "note": 57,
      "start": 12.9782,
      "duration": 0.0942,
      "velocity": 115,
      "chip": "ym2612"
    },
    {
      "channel": 4,
      "note": 73,
      "start": 12.9813,
      "duration": 0.0913,
      "velocity": 115,
      "chip": "ym2612"
    },
    {
      "channel": 4,
      "note": 73,
      "start": 13.0765,
      "duration": 0.1126,
      "velocity": 115,
      "chip": "ym2612"
    },
    {
      "channel": 0,
      "note": 61,
      "start": 13.1921,
      "duration": 0.0968,
      "velocity": 115,
      "chip": "ym2612"
    },
    {
      "channel": 3,
      "note": 54,
      "start": 13.1949,
      "duration": 0.0942,
      "velocity": 115,
      "chip": "ym2612"
    },
    {
      "channel": 0,
      "note": 57,
      "start": 13.3924,
      "duration": 0.1132,
      "velocity": 115,
      "chip": "ym2612"
    },
    {
      "channel": 3,
      "note": 61,
      "start": 13.3952,
      "duration": 0.1106,
      "velocity": 115,
      "chip": "ym2612"
    },
    {
      "channel": 0,
      "note": 61,
      "start": 13.6088,
      "duration": 0.0968,
      "velocity": 115,
      "chip": "ym2612"
    },
    {
      "channel": 3,
      "note": 54,
      "start": 13.6115,
      "duration": 0.0944,
      "velocity": 115,
      "chip": "ym2612"
    },
    {
      "channel": 5,
      "note": 61,
      "start": 13.6148,
      "duration": 0.1909,
      "velocity": 96,
      "chip": "ym2612"
    },
    {
      "channel": 1,
      "note": 61,
      "start": 13.7597,
      "duration": 0.2125,
      "velocity": 96,
      "chip": "ym2612"
    },
    {
      "channel": 0,
      "note": 61,
      "start": 13.8088,
      "duration": 0.1135,
      "velocity": 115,
      "chip": "ym2612"
    },
    {
      "channel": 3,
      "note": 57,
      "start": 13.8115,
      "duration": 0.1111,
      "velocity": 115,
      "chip": "ym2612"
    },
    {
      "channel": 5,
      "note": 61,
      "start": 13.8145,
      "duration": 0.2079,
      "velocity": 96,
      "chip": "ym2612"
    },
    {
      "channel": 1,
      "note": 61,
      "start": 13.9758,
      "duration": 0.1966,
      "velocity": 96,
      "chip": "ym2612"
    },
    {
      "channel": 0,
      "note": 61,
      "start": 14.0255,
      "duration": 0.0968,
      "velocity": 115,
      "chip": "ym2612"
    },
    {
      "channel": 3,
      "note": 54,
      "start": 14.0281,
      "duration": 0.0943,
      "velocity": 115,
      "chip": "ym2612"
    },
    {
      "channel": 5,
      "note": 64,
      "start": 14.0315,
      "duration": 0.4076,
      "velocity": 96,
      "chip": "ym2612"
    },
    {
      "channel": 1,
      "note": 64,
      "start": 14.1762,
      "duration": 0.4128,
      "velocity": 96,
      "chip": "ym2612"
    },
    {
      "channel": 0,
      "note": 61,
      "start": 14.2259,
      "duration": 0.1131,
      "velocity": 115,
      "chip": "ym2612"
    },
    {
      "channel": 3,
      "note": 57,
      "start": 14.2285,
      "duration": 0.1107,
      "velocity": 115,
      "chip": "ym2612"
    },
    {
      "channel": 0,
      "note": 61,
      "start": 14.4421,
      "duration": 0.0969,
      "velocity": 115,
      "chip": "ym2612"
    },
    {
      "channel": 3,
      "note": 54,
      "start": 14.4448,
      "duration": 0.0944,
      "velocity": 115,
      "chip": "ym2612"
    },
    {
      "channel": 5,
      "note": 61,
      "start": 14.4481,
      "duration": 0.4076,
      "velocity": 96,
      "chip": "ym2612"
    },
    {
      "channel": 1,
      "note": 61,
      "start": 14.5928,
      "duration": 0.4128,
      "velocity": 96,
      "chip": "ym2612"
    },
    {
      "channel": 0,
      "note": 61,
      "start": 14.6421,
      "duration": 0.1136,
      "velocity": 115,
      "chip": "ym2612"
    },
    {
      "channel": 3,
      "note": 57,
      "start": 14.6447,
      "duration": 0.1111,
      "velocity": 115,
      "chip": "ym2612"
    },
    {
      "channel": 0,
      "note": 49,
      "start": 14.8588,
      "duration": 0.0968,
      "velocity": 115,
      "chip": "ym2612"
    },
    {
      "channel": 3,
      "note": 56,
      "start": 14.8615,
      "duration": 0.0943,
      "velocity": 115,
      "chip": "ym2612"
    },
    {
      "channel": 4,
      "note": 73,
      "start": 14.8648,
      "duration": 0.0912,
      "velocity": 115,
      "chip": "ym2612"
    },
    {
      "channel": 4,
      "note": 73,
      "start": 14.9595,
      "duration": 0.113,
      "velocity": 115,
      "chip": "ym2612"
    },
    {
      "channel": 0,
      "note": 56,
      "start": 15.0759,
      "duration": 0.0964,
      "velocity": 115,
      "chip": "ym2612"
    },
    {
      "channel": 3,
      "note": 52,
      "start": 15.0786,
      "duration": 0.0939,
      "velocity": 115,
      "chip": "ym2612"
    },
    {
      "channel": 4,
      "note": 73,
      "start": 15.0818,
      "duration": 0.0909,
      "velocity": 115,
      "chip": "ym2612"
    },
    {
      "channel": 4,
      "note": 73,
      "start": 15.1763,
      "duration": 0.0961,
      "velocity": 115,
      "chip": "ym2612"
    },
    {
      "channel": 0,
      "note": 49,
      "start": 15.2755,
      "duration": 0.0968,
      "velocity": 115,
      "chip": "ym2612"
    },
    {
      "channel": 3,
      "note": 56,
      "start": 15.2782,
      "duration": 0.0944,
      "velocity": 115,
      "chip": "ym2612"
    },
    {
      "channel": 4,
      "note": 73,
      "start": 15.2813,
      "duration": 0.0913,
      "velocity": 115,
      "chip": "ym2612"
    },
    {
      "channel": 4,
      "note": 73,
      "start": 15.3763,
      "duration": 0.1128,
      "velocity": 115,
      "chip": "ym2612"
    },
    {
      "channel": 0,
      "note": 52,
      "start": 15.4922,
      "duration": 0.0968,
      "velocity": 115,
      "chip": "ym2612"
    },
    {
      "channel": 3,
      "note": 56,
      "start": 15.4949,
      "duration": 0.0944,
      "velocity": 115,
      "chip": "ym2612"
    },
    {
      "channel": 4,
      "note": 73,
      "start": 15.498,
      "duration": 0.0913,
      "velocity": 115,
      "chip": "ym2612"
    },
    {
      "channel": 4,
      "note": 73,
      "start": 15.5933,
      "duration": 0.0957,
      "velocity": 115,
      "chip": "ym2612"
    },
    {
      "channel": 0,
      "note": 49,
      "start": 15.6921,
      "duration": 0.0968,
      "velocity": 115,
      "chip": "ym2612"
    },
    {
      "channel": 3,
      "note": 56,
      "start": 15.6949,
      "duration": 0.0944,
      "velocity": 115,
      "chip": "ym2612"
    },
    {
      "channel": 4,
      "note": 73,
      "start": 15.698,
      "duration": 0.0913,
      "velocity": 115,
      "chip": "ym2612"
    },
    {
      "channel": 4,
      "note": 73,
      "start": 15.7929,
      "duration": 0.1128,
      "velocity": 115,
      "chip": "ym2612"
    },
    {
      "channel": 0,
      "note": 52,
      "start": 15.9092,
      "duration": 0.0964,
      "velocity": 115,
      "chip": "ym2612"
    },
    {
      "channel": 3,
      "note": 56,
      "start": 15.9119,
      "duration": 0.0938,
      "velocity": 115,
      "chip": "ym2612"
    },
    {
      "channel": 4,
      "note": 73,
      "start": 15.915,
      "duration": 0.0909,
      "velocity": 115,
      "chip": "ym2612"
    },
    {
      "channel": 4,
      "note": 73,
      "start": 16.0095,
      "duration": 0.0963,
      "velocity": 115,
      "chip": "ym2612"
    },
    {
      "channel": 0,
      "note": 49,
      "start": 16.1089,
      "duration": 0.1133,
      "velocity": 115,
      "chip": "ym2612"
    },
    {
      "channel": 3,
      "note": 56,
      "start": 16.1116,
      "duration": 0.1108,
      "velocity": 115,
      "chip": "ym2612"
    },
    {
      "channel": 4,
      "note": 73,
      "start": 16.1147,
      "duration": 0.1079,
      "velocity": 115,
      "chip": "ym2612"
    },
    {
      "channel": 4,
      "note": 73,
      "start": 16.2262,
      "duration": 0.0962,
      "velocity": 115,
      "chip": "ym2612"
    },
    {
      "channel": 0,
      "note": 52,
      "start": 16.3256,
      "duration": 0.0966,
      "velocity": 115,
      "chip": "ym2612"
    },
    {
      "channel": 3,
      "note": 56,
      "start": 16.3283,
      "duration": 0.0941,
      "velocity": 115,
      "chip": "ym2612"
    },
    {
      "channel": 4,
      "note": 73,
      "start": 16.3314,
      "duration": 0.0912,
      "velocity": 115,
      "chip": "ym2612"
    },
    {
      "channel": 4,
      "note": 73,
      "start": 16.4265,
      "duration": 0.0959,
      "velocity": 115,
      "chip": "ym2612"
    },
    {
      "channel": 0,
      "note": 61,
      "start": 16.5255,
      "duration": 0.1134,
      "velocity": 115,
      "chip": "ym2612"
    },
    {
      "channel": 3,
      "note": 54,
      "start": 16.5281,
      "duration": 0.1109,
      "velocity": 115,
      "chip": "ym2612"
    },
    {
      "channel": 2,
      "note": 73,
      "start": 16.6449,
      "duration": 0.0942,
      "velocity": 79,
      "chip": "ym2612"
    },
    {
      "channel": 0,
      "note": 57,
      "start": 16.7425,
      "duration": 0.0965,
      "velocity": 115,
      "chip": "ym2612"
    },
    {
      "channel": 3,
      "note": 61,
      "start": 16.7452,
      "duration": 0.094,
      "velocity": 115,
      "chip": "ym2612"
    },
    {
      "channel": 2,
      "note": 73,
      "start": 16.8433,
      "duration": 0.096,
      "velocity": 79,
      "chip": "ym2612"
    },
    {
      "channel": 0,
      "note": 61,
      "start": 16.9422,
      "duration": 0.1133,
      "velocity": 115,
      "chip": "ym2612"
    },
    {
      "channel": 3,
      "note": 54,
      "start": 16.9449,
      "duration": 0.1108,
      "velocity": 115,
      "chip": "ym2612"
    },
    {
      "channel": 0,
      "note": 61,
      "start": 17.1587,
      "duration": 0.0969,
      "velocity": 115,
      "chip": "ym2612"
    },
    {
      "channel": 3,
      "note": 57,
      "start": 17.1614,
      "duration": 0.0945,
      "velocity": 115,
      "chip": "ym2612"
    },
    {
      "channel": 0,
      "note": 61,
      "start": 17.3587,
      "duration": 0.1136,
      "velocity": 115,
      "chip": "ym2612"
    },
    {
      "channel": 3,
      "note": 54,
      "start": 17.3615,
      "duration": 0.1111,
      "velocity": 115,
      "chip": "ym2612"
    },
    {
      "channel": 2,
      "note": 73,
      "start": 17.477,
      "duration": 0.0956,
      "velocity": 79,
      "chip": "ym2612"
    },
    {
      "channel": 0,
      "note": 61,
      "start": 17.5759,
      "duration": 0.0963,
      "velocity": 115,
      "chip": "ym2612"
    },
    {
      "channel": 3,
      "note": 57,
      "start": 17.5786,
      "duration": 0.0938,
      "velocity": 115,
      "chip": "ym2612"
    },
    {
      "channel": 2,
      "note": 73,
      "start": 17.6766,
      "duration": 0.1125,
      "velocity": 79,
      "chip": "ym2612"
    },
    {
      "channel": 0,
      "note": 61,
      "start": 17.7921,
      "duration": 0.0968,
      "velocity": 115,
      "chip": "ym2612"
    },
    {
      "channel": 3,
      "note": 54,
      "start": 17.7949,
      "duration": 0.0942,
      "velocity": 115,
      "chip": "ym2612"
    },
    {
      "channel": 0,
      "note": 61,
      "start": 17.9921,
      "duration": 0.0968,
      "velocity": 115,
      "chip": "ym2612"
    },
    {
      "channel": 3,
      "note": 57,
      "start": 17.9949,
      "duration": 0.0943,
      "velocity": 115,
      "chip": "ym2612"
    },
    {
      "channel": 0,
      "note": 56,
      "start": 18.2087,
      "duration": 0.0969,
      "velocity": 115,
      "chip": "ym2612"
    },
    {
      "channel": 3,
      "note": 63,
      "start": 18.2114,
      "duration": 0.0943,
      "velocity": 115,
      "chip": "ym2612"
    },
    {
      "channel": 0,
      "note": 63,
      "start": 18.4092,
      "duration": 0.0965,
      "velocity": 115,
      "chip": "ym2612"
    },
    {
      "channel": 3,
      "note": 59,
      "start": 18.4119,
      "duration": 0.094,
      "velocity": 115,
      "chip": "ym2612"
    },
    {
      "channel": 0,
      "note": 56,
      "start": 18.6255,
      "duration": 0.0968,
      "velocity": 115,
      "chip": "ym2612"
    },
    {
      "channel": 3,
      "note": 63,
      "start": 18.6282,
      "duration": 0.0944,
      "velocity": 115,
      "chip": "ym2612"
    },
    {
      "channel": 5,
      "note": 56,
      "start": 18.6318,
      "duration": 0.3076,
      "velocity": 96,
      "chip": "ym2612"
    },
    {
      "channel": 1,
      "note": 68,
      "start": 18.6368,
      "duration": 0.3022,
      "velocity": 101,
      "chip": "ym2612"
    },
    {
      "channel": 0,
      "note": 59,
      "start": 18.8254,
      "duration": 0.1136,
      "velocity": 115,
      "chip": "ym2612"
    },
    {
      "channel": 3,
      "note": 63,
      "start": 18.8281,
      "duration": 0.1111,
      "velocity": 115,
      "chip": "ym2612"
    },
    {
      "channel": 5,
      "note": 56,
      "start": 18.9432,
      "duration": 0.0961,
      "velocity": 96,
      "chip": "ym2612"
    },
    {
      "channel": 1,
      "note": 68,
      "start": 18.9468,
      "duration": 0.0922,
      "velocity": 101,
      "chip": "ym2612"
    },
    {
      "channel": 0,
      "note": 56,
      "start": 19.0422,
      "duration": 0.0967,
      "velocity": 115,
      "chip": "ym2612"
    },
    {
      "channel": 3,
      "note": 63,
      "start": 19.045,
      "duration": 0.0941,
      "velocity": 115,
      "chip": "ym2612"
    },
    {
      "channel": 5,
      "note": 61,
      "start": 19.0484,
      "duration": 0.8242,
      "velocity": 96,
      "chip": "ym2612"
    },
    {
      "channel": 1,
      "note": 73,
      "start": 19.0518,
      "duration": 0.8205,
      "velocity": 101,
      "chip": "ym2612"
    },
    {
      "channel": 0,
      "note": 59,
      "start": 19.2425,
      "duration": 0.113,
      "velocity": 115,
      "chip": "ym2612"
    },
    {
      "channel": 3,
      "note": 63,
      "start": 19.2452,
      "duration": 0.1105,
      "velocity": 115,
      "chip": "ym2612"
    },
    {
      "channel": 0,
      "note": 56,
      "start": 19.4588,
      "duration": 0.0968,
      "velocity": 115,
      "chip": "ym2612"
    },
    {
      "channel": 3,
      "note": 63,
      "start": 19.4615,
      "duration": 0.0944,
      "velocity": 115,
      "chip": "ym2612"
    },
    {
      "channel": 0,
      "note": 59,
      "start": 19.6587,
      "duration": 0.1136,
      "velocity": 115,
      "chip": "ym2612"
    },
    {
      "channel": 3,
      "note": 63,
      "start": 19.6614,
      "duration": 0.1111,
      "velocity": 115,
      "chip": "ym2612"
    },
    {
      "channel": 0,
      "note": 61,
      "start": 19.8756,
      "duration": 0.0966,
      "velocity": 115,
      "chip": "ym2612"
    },
    {
      "channel": 3,
      "note": 54,
      "start": 19.8783,
      "duration": 0.0941,
      "velocity": 115,
      "chip": "ym2612"
    },
    {
      "channel": 2,
      "note": 73,
      "start": 19.9766,
      "duration": 0.096,
      "velocity": 79,
      "chip": "ym2612"
    },
    {
      "channel": 0,
      "note": 57,
      "start": 20.0759,
      "duration": 0.113,
      "velocity": 115,
      "chip": "ym2612"
    },
    {
      "channel": 3,
      "note": 61,
      "start": 20.0786,
      "duration": 0.1106,
      "velocity": 115,
      "chip": "ym2612"
    },
    {
      "channel": 2,
      "note": 73,
      "start": 20.1932,
      "duration": 0.0959,
      "velocity": 79,
      "chip": "ym2612"
    },
    {
      "channel": 0,
      "note": 61,
      "start": 20.2922,
      "duration": 0.0968,
      "velocity": 115,
      "chip": "ym2612"
    },
    {
      "channel": 3,
      "note": 54,
      "start": 20.2949,
      "duration": 0.0943,
      "velocity": 115,
      "chip": "ym2612"
    },
    {
      "channel": 0,
      "note": 61,
      "start": 20.5087,
      "duration": 0.0968,
      "velocity": 115,
      "chip": "ym2612"
    },
    {
      "channel": 3,
      "note": 57,
      "start": 20.5115,
      "duration": 0.0943,
      "velocity": 115,
      "chip": "ym2612"
    },
    {
      "channel": 0,
      "note": 61,
      "start": 20.7087,
      "duration": 0.0969,
      "velocity": 115,
      "chip": "ym2612"
    },
    {
      "channel": 3,
      "note": 54,
      "start": 20.7114,
      "duration": 0.0944,
      "velocity": 115,
      "chip": "ym2612"
    },
    {
      "channel": 2,
      "note": 73,
      "start": 20.8099,
      "duration": 0.1127,
      "velocity": 79,
      "chip": "ym2612"
    },
    {
      "channel": 0,
      "note": 61,
      "start": 20.9259,
      "duration": 0.0964,
      "velocity": 115,
      "chip": "ym2612"
    },
    {
      "channel": 3,
      "note": 57,
      "start": 20.9286,
      "duration": 0.0938,
      "velocity": 115,
      "chip": "ym2612"
    },
    {
      "channel": 2,
      "note": 73,
      "start": 21.0267,
      "duration": 0.0959,
      "velocity": 79,
      "chip": "ym2612"
    },
    {
      "channel": 0,
      "note": 61,
      "start": 21.1256,
      "duration": 0.0968,
      "velocity": 115,
      "chip": "ym2612"
    },
    {
      "channel": 3,
      "note": 54,
      "start": 21.1283,
      "duration": 0.0943,
      "velocity": 115,
      "chip": "ym2612"
    },
    {
      "channel": 0,
      "note": 61,
      "start": 21.3421,
      "duration": 0.0969,
      "velocity": 115,
      "chip": "ym2612"
    },
    {
      "channel": 3,
      "note": 57,
      "start": 21.3448,
      "duration": 0.0944,
      "velocity": 115,
      "chip": "ym2612"
    },
    {
      "channel": 0,
      "note": 56,
      "start": 21.5421,
      "duration": 0.1136,
      "velocity": 115,
      "chip": "ym2612"
    },
    {
      "channel": 3,
      "note": 63,
      "start": 21.5447,
      "duration": 0.1111,
      "velocity": 115,
      "chip": "ym2612"
    },
    {
      "channel": 0,
      "note": 63,
      "start": 21.7594,
      "duration": 0.0963,
      "velocity": 115,
      "chip": "ym2612"
    },
    {
      "channel": 3,
      "note": 59,
      "start": 21.762,
      "duration": 0.0938,
      "velocity": 115,
      "chip": "ym2612"
    },
    {
      "channel": 0,
      "note": 56,
      "start": 21.9587,
      "duration": 0.1136,
      "velocity": 115,
      "chip": "ym2612"
    },
    {
      "channel": 3,
      "note": 63,
      "start": 21.9614,
      "duration": 0.1111,
      "velocity": 115,
      "chip": "ym2612"
    },
    {
      "channel": 5,
      "note": 64,
      "start": 21.9647,
      "duration": 0.3081,
      "velocity": 96,
      "chip": "ym2612"
    },
    {
      "channel": 1,
      "note": 76,
      "start": 21.968,
      "duration": 0.3045,
      "velocity": 101,
      "chip": "ym2612"
    },
    {
      "channel": 0,
      "note": 59,
      "start": 22.1754,
      "duration": 0.0969,
      "velocity": 115,
      "chip": "ym2612"
    },
    {
      "channel": 3,
      "note": 63,
      "start": 22.1781,
      "duration": 0.0945,
      "velocity": 115,
      "chip": "ym2612"
    },
    {
      "channel": 5,
      "note": 59,
      "start": 22.2765,
      "duration": 0.096,
      "velocity": 96,
      "chip": "ym2612"
    },
    {
      "channel": 1,
      "note": 71,
      "start": 22.2797,
      "duration": 0.0925,
      "velocity": 101,
      "chip": "ym2612"
    },
    {
      "channel": 0,
      "note": 56,
      "start": 22.3755,
      "duration": 0.1134,
      "velocity": 115,
      "chip": "ym2612"
    },
    {
      "channel": 3,
      "note": 63,
      "start": 22.3783,
      "duration": 0.1108,
      "velocity": 115,
      "chip": "ym2612"
    },
    {
      "channel": 5,
      "note": 61,
      "start": 22.382,
      "duration": 0.7906,
      "velocity": 96,
      "chip": "ym2612"
    },
    {
      "channel": 1,
      "note": 73,
      "start": 22.3854,
      "duration": 0.787,
      "velocity": 101,
      "chip": "ym2612"
    },
    {
      "channel": 0,
      "note": 59,
      "start": 22.5925,
      "duration": 0.0964,
      "velocity": 115,
      "chip": "ym2612"
    },
    {
      "channel": 3,
      "note": 63,
      "start": 22.5952,
      "duration": 0.0939,
      "velocity": 115,
      "chip": "ym2612"
    },
    {
      "channel": 0,
      "note": 56,
      "start": 22.8088,
      "duration": 0.0969,
      "velocity": 115,
      "chip": "ym2612"
    },
    {
      "channel": 3,
      "note": 63,
      "start": 22.8115,
      "duration": 0.0944,
      "velocity": 115,
      "chip": "ym2612"
    },
    {
      "channel": 0,
      "note": 59,
      "start": 23.0089,
      "duration": 0.0967,
      "velocity": 115,
      "chip": "ym2612"
    },
    {
      "channel": 3,
      "note": 63,
      "start": 23.0115,
      "duration": 0.0942,
      "velocity": 115,
      "chip": "ym2612"
    },
    {
      "channel": 0,
      "note": 61,
      "start": 23.2254,
      "duration": 0.0969,
      "velocity": 115,
      "chip": "ym2612"
    },
    {
      "channel": 3,
      "note": 54,
      "start": 23.2281,
      "duration": 0.0944,
      "velocity": 115,
      "chip": "ym2612"
    },
    {
      "channel": 2,
      "note": 73,
      "start": 23.3266,
      "duration": 0.0959,
      "velocity": 79,
      "chip": "ym2612"
    },
    {
      "channel": 0,
      "note": 57,
      "start": 23.4259,
      "duration": 0.0963,
      "velocity": 115,
      "chip": "ym2612"
    },
    {
      "channel": 3,
      "note": 61,
      "start": 23.4286,
      "duration": 0.0938,
      "velocity": 115,
      "chip": "ym2612"
    },
    {
      "channel": 2,
      "note": 73,
      "start": 23.5269,
      "duration": 0.1123,
      "velocity": 79,
      "chip": "ym2612"
    },
    {
      "channel": 0,
      "note": 61,
      "start": 23.6421,
      "duration": 0.0968,
      "velocity": 115,
      "chip": "ym2612"
    },
    {
      "channel": 3,
      "note": 54,
      "start": 23.6449,
      "duration": 0.0942,
      "velocity": 115,
      "chip": "ym2612"
    },
    {
      "channel": 0,
      "note": 61,
      "start": 23.842,
      "duration": 0.097,
      "velocity": 115,
      "chip": "ym2612"
    },
    {
      "channel": 3,
      "note": 57,
      "start": 23.8447,
      "duration": 0.0944,
      "velocity": 115,
      "chip": "ym2612"
    },
    {
      "channel": 0,
      "note": 61,
      "start": 24.0587,
      "duration": 0.0969,
      "velocity": 115,
      "chip": "ym2612"
    },
    {
      "channel": 3,
      "note": 54,
      "start": 24.0614,
      "duration": 0.0944,
      "velocity": 115,
      "chip": "ym2612"
    },
    {
      "channel": 2,
      "note": 73,
      "start": 24.1599,
      "duration": 0.096,
      "velocity": 79,
      "chip": "ym2612"
    },
    {
      "channel": 0,
      "note": 61,
      "start": 24.2592,
      "duration": 0.1131,
      "velocity": 115,
      "chip": "ym2612"
    },
    {
      "channel": 3,
      "note": 57,
      "start": 24.262,
      "duration": 0.1105,
      "velocity": 115,
      "chip": "ym2612"
    },
    {
      "channel": 2,
      "note": 73,
      "start": 24.3767,
      "duration": 0.0959,
      "velocity": 79,
      "chip": "ym2612"
    },
    {
      "channel": 0,
      "note": 61,
      "start": 24.4755,
      "duration": 0.0968,
      "velocity": 115,
      "chip": "ym2612"
    },
    {
      "channel": 3,
      "note": 54,
      "start": 24.4782,
      "duration": 0.0943,
      "velocity": 115,
      "chip": "ym2612"
    },
    {
      "channel": 0,
      "note": 61,
      "start": 24.6753,
      "duration": 0.1136,
      "velocity": 115,
      "chip": "ym2612"
    },
    {
      "channel": 3,
      "note": 57,
      "start": 24.6781,
      "duration": 0.1111,
      "velocity": 115,
      "chip": "ym2612"
    },
    {
      "channel": 0,
      "note": 56,
      "start": 24.892,
      "duration": 0.0969,
      "velocity": 115,
      "chip": "ym2612"
    },
    {
      "channel": 3,
      "note": 63,
      "start": 24.8947,
      "duration": 0.0943,
      "velocity": 115,
      "chip": "ym2612"
    },
    {
      "channel": 0,
      "note": 63,
      "start": 25.0925,
      "duration": 0.113,
      "velocity": 115,
      "chip": "ym2612"
    },
    {
      "channel": 3,
      "note": 59,
      "start": 25.0952,
      "duration": 0.1105,
      "velocity": 115,
      "chip": "ym2612"
    },
    {
      "channel": 0,
      "note": 56,
      "start": 25.3087,
      "duration": 0.0969,
      "velocity": 115,
      "chip": "ym2612"
    },
    {
      "channel": 3,
      "note": 63,
      "start": 25.3115,
      "duration": 0.0944,
      "velocity": 115,
      "chip": "ym2612"
    },
    {
      "channel": 5,
      "note": 56,
      "start": 25.3147,
      "duration": 0.3081,
      "velocity": 96,
      "chip": "ym2612"
    },
    {
      "channel": 1,
      "note": 68,
      "start": 25.3183,
      "duration": 0.3041,
      "velocity": 101,
      "chip": "ym2612"
    },
    {
      "channel": 0,
      "note": 59,
      "start": 25.5255,
      "duration": 0.0969,
      "velocity": 115,
      "chip": "ym2612"
    },
    {
      "channel": 3,
      "note": 63,
      "start": 25.5281,
      "duration": 0.0945,
      "velocity": 115,
      "chip": "ym2612"
    },
    {
      "channel": 5,
      "note": 56,
      "start": 25.6265,
      "duration": 0.0961,
      "velocity": 96,
      "chip": "ym2612"
    },
    {
      "channel": 1,
      "note": 68,
      "start": 25.6298,
      "duration": 0.0925,
      "velocity": 101,
      "chip": "ym2612"
    },
    {
      "channel": 0,
      "note": 56,
      "start": 25.7256,
      "duration": 0.0966,
      "velocity": 115,
      "chip": "ym2612"
    },
    {
      "channel": 3,
      "note": 63,
      "start": 25.7283,
      "duration": 0.0941,
      "velocity": 115,
      "chip": "ym2612"
    },
    {
      "channel": 5,
      "note": 61,
      "start": 25.7317,
      "duration": 0.8242,
      "velocity": 96,
      "chip": "ym2612"
    },
    {
      "channel": 1,
      "note": 73,
      "start": 25.7351,
      "duration": 0.8205,
      "velocity": 101,
      "chip": "ym2612"
    },
    {
      "channel": 0,
      "note": 59,
      "start": 25.9427,
      "duration": 0.0963,
      "velocity": 115,
      "chip": "ym2612"
    },
    {
      "channel": 3,
      "note": 63,
      "start": 25.9454,
      "duration": 0.0938,
      "velocity": 115,
      "chip": "ym2612"
    },
    {
      "channel": 0,
      "note": 56,
      "start": 26.1421,
      "duration": 0.0968,
      "velocity": 115,
      "chip": "ym2612"
    },
    {
      "channel": 3,
      "note": 63,
      "start": 26.1448,
      "duration": 0.0943,
      "velocity": 115,
      "chip": "ym2612"
    },
    {
      "channel": 0,
      "note": 59,
      "start": 26.3589,
      "duration": 0.0968,
      "velocity": 115,
      "chip": "ym2612"
    },
    {
      "channel": 3,
      "note": 63,
      "start": 26.3615,
      "duration": 0.0944,
      "velocity": 115,
      "chip": "ym2612"
    },
    {
      "channel": 0,
      "note": 61,
      "start": 26.5589,
      "duration": 0.0966,
      "velocity": 115,
      "chip": "ym2612"
    },
    {
      "channel": 3,
      "note": 54,
      "start": 26.5617,
      "duration": 0.0941,
      "velocity": 115,
      "chip": "ym2612"
    },
    {
      "channel": 2,
      "note": 73,
      "start": 26.6598,
      "duration": 0.1127,
      "velocity": 79,
      "chip": "ym2612"
    },
    {
      "channel": 0,
      "note": 57,
      "start": 26.7759,
      "duration": 0.0964,
      "velocity": 115,
      "chip": "ym2612"
    },
    {
      "channel": 3,
      "note": 61,
      "start": 26.7786,
      "duration": 0.094,
      "velocity": 115,
      "chip": "ym2612"
    },
    {
      "channel": 2,
      "note": 73,
      "start": 26.8766,
      "duration": 0.0959,
      "velocity": 79,
      "chip": "ym2612"
    },
    {
      "channel": 0,
      "note": 61,
      "start": 26.9755,
      "duration": 0.1134,
      "velocity": 115,
      "chip": "ym2612"
    },
    {
      "channel": 3,
      "note": 54,
      "start": 26.9782,
      "duration": 0.1109,
      "velocity": 115,
      "chip": "ym2612"
    },
    {
      "channel": 0,
      "note": 61,
      "start": 27.1921,
      "duration": 0.0969,
      "velocity": 115,
      "chip": "ym2612"
    },
    {
      "channel": 3,
      "note": 57,
      "start": 27.1947,
      "duration": 0.0945,
      "velocity": 115,
      "chip": "ym2612"
    },
    {
      "channel": 0,
      "note": 61,
      "start": 27.3921,
      "duration": 0.1136,
      "velocity": 115,
      "chip": "ym2612"
    },
    {
      "channel": 3,
      "note": 54,
      "start": 27.3947,
      "duration": 0.1111,
      "velocity": 115,
      "chip": "ym2612"
    },
    {
      "channel": 2,
      "note": 73,
      "start": 27.5099,
      "duration": 0.096,
      "velocity": 79,
      "chip": "ym2612"
    },
    {
      "channel": 0,
      "note": 61,
      "start": 27.6092,
      "duration": 0.0963,
      "velocity": 115,
      "chip": "ym2612"
    },
    {
      "channel": 3,
      "note": 57,
      "start": 27.612,
      "duration": 0.0938,
      "velocity": 115,
      "chip": "ym2612"
    },
    {
      "channel": 2,
      "note": 73,
      "start": 27.7099,
      "duration": 0.0959,
      "velocity": 79,
      "chip": "ym2612"
    },
    {
      "channel": 0,
      "note": 61,
      "start": 27.8088,
      "duration": 0.1134,
      "velocity": 115,
      "chip": "ym2612"
    },
    {
      "channel": 3,
      "note": 54,
      "start": 27.8115,
      "duration": 0.1109,
      "velocity": 115,
      "chip": "ym2612"
    },
    {
      "channel": 0,
      "note": 61,
      "start": 28.0254,
      "duration": 0.0968,
      "velocity": 115,
      "chip": "ym2612"
    },
    {
      "channel": 3,
      "note": 57,
      "start": 28.0281,
      "duration": 0.0943,
      "velocity": 115,
      "chip": "ym2612"
    },
    {
      "channel": 0,
      "note": 56,
      "start": 28.2421,
      "duration": 0.0969,
      "velocity": 115,
      "chip": "ym2612"
    },
    {
      "channel": 3,
      "note": 63,
      "start": 28.2448,
      "duration": 0.0944,
      "velocity": 115,
      "chip": "ym2612"
    },
    {
      "channel": 0,
      "note": 63,
      "start": 28.4425,
      "duration": 0.0964,
      "velocity": 115,
      "chip": "ym2612"
    },
    {
      "channel": 3,
      "note": 59,
      "start": 28.4452,
      "duration": 0.094,
      "velocity": 115,
      "chip": "ym2612"
    },
    {
      "channel": 0,
      "note": 56,
      "start": 28.6587,
      "duration": 0.0968,
      "velocity": 115,
      "chip": "ym2612"
    },
    {
      "channel": 3,
      "note": 63,
      "start": 28.6615,
      "duration": 0.0943,
      "velocity": 115,
      "chip": "ym2612"
    },
    {
      "channel": 5,
      "note": 54,
      "start": 28.6647,
      "duration": 0.2914,
      "velocity": 96,
      "chip": "ym2612"
    },
    {
      "channel": 1,
      "note": 66,
      "start": 28.668,
      "duration": 0.2878,
      "velocity": 101,
      "chip": "ym2612"
    },
    {
      "channel": 0,
      "note": 59,
      "start": 28.8588,
      "duration": 0.0969,
      "velocity": 115,
      "chip": "ym2612"
    },
    {
      "channel": 3,
      "note": 63,
      "start": 28.8615,
      "duration": 0.0945,
      "velocity": 115,
      "chip": "ym2612"
    },
    {
      "channel": 5,
      "note": 54,
      "start": 28.9602,
      "duration": 0.1124,
      "velocity": 96,
      "chip": "ym2612"
    },
    {
      "channel": 1,
      "note": 66,
      "start": 28.9634,
      "duration": 0.1089,
      "velocity": 101,
      "chip": "ym2612"
    },
    {
      "channel": 0,
      "note": 56,
      "start": 29.0756,
      "duration": 0.0966,
      "velocity": 115,
      "chip": "ym2612"
    },
    {
      "channel": 3,
      "note": 63,
      "start": 29.0783,
      "duration": 0.0941,
      "velocity": 115,
      "chip": "ym2612"
    },
    {
      "channel": 5,
      "note": 56,
      "start": 29.0816,
      "duration": 0.4076,
      "velocity": 96,
      "chip": "ym2612"
    },
    {
      "channel": 1,
      "note": 68,
      "start": 29.0852,
      "duration": 0.4038,
      "velocity": 101,
      "chip": "ym2612"
    },
    {
      "channel": 0,
      "note": 59,
      "start": 29.2759,
      "duration": 0.0964,
      "velocity": 115,
      "chip": "ym2612"
    },
    {
      "channel": 3,
      "note": 63,
      "start": 29.2785,
      "duration": 0.0939,
      "velocity": 115,
      "chip": "ym2612"
    },
    {
      "channel": 0,
      "note": 56,
      "start": 29.4923,
      "duration": 0.0966,
      "velocity": 115,
      "chip": "ym2612"
    },
    {
      "channel": 3,
      "note": 63,
      "start": 29.495,
      "duration": 0.0941,
      "velocity": 115,
      "chip": "ym2612"
    },
    {
      "channel": 5,
      "note": 56,
      "start": 29.4982,
      "duration": 0.3911,
      "velocity": 96,
      "chip": "ym2612"
    },
    {
      "channel": 1,
      "note": 68,
      "start": 29.5012,
      "duration": 0.3878,
      "velocity": 101,
      "chip": "ym2612"
    },
    {
      "channel": 0,
      "note": 59,
      "start": 29.6921,
      "duration": 0.1135,
      "velocity": 115,
      "chip": "ym2612"
    },
    {
      "channel": 3,
      "note": 63,
      "start": 29.6948,
      "duration": 0.1111,
      "velocity": 115,
      "chip": "ym2612"
    },
    {
      "channel": 0,
      "note": 49,
      "start": 29.9112,
      "duration": 0.0944,
      "velocity": 115,
      "chip": "ym2612"
    },
    {
      "channel": 3,
      "note": 56,
      "start": 29.9139,
      "duration": 0.0919,
      "velocity": 115,
      "chip": "ym2612"
    },
    {
      "channel": 4,
      "note": 50,
      "start": 29.9195,
      "duration": 0.1863,
      "velocity": 115,
      "chip": "ym2612"
    },
    {
      "channel": 0,
      "note": 56,
      "start": 30.1089,
      "duration": 0.1134,
      "velocity": 115,
      "chip": "ym2612"
    },
    {
      "channel": 3,
      "note": 52,
      "start": 30.1116,
      "duration": 0.1108,
      "velocity": 115,
      "chip": "ym2612"
    },
    {
      "channel": 4,
      "note": 49,
      "start": 30.1143,
      "duration": 0.2082,
      "velocity": 115,
      "chip": "ym2612"
    },
    {
      "channel": 0,
      "note": 49,
      "start": 30.3259,
      "duration": 0.0963,
      "velocity": 115,
      "chip": "ym2612"
    },
    {
      "channel": 3,
      "note": 56,
      "start": 30.3286,
      "duration": 0.0938,
      "velocity": 115,
      "chip": "ym2612"
    },
    {
      "channel": 4,
      "note": 50,
      "start": 30.3313,
      "duration": 0.1912,
      "velocity": 115,
      "chip": "ym2612"
    },
    {
      "channel": 0,
      "note": 52,
      "start": 30.5255,
      "duration": 0.1134,
      "velocity": 115,
      "chip": "ym2612"
    },
    {
      "channel": 3,
      "note": 56,
      "start": 30.5283,
      "duration": 0.111,
      "velocity": 115,
      "chip": "ym2612"
    },
    {
      "channel": 4,
      "note": 49,
      "start": 30.5309,
      "duration": 0.2082,
      "velocity": 115,
      "chip": "ym2612"
    },
    {
      "channel": 0,
      "note": 49,
      "start": 30.7422,
      "duration": 0.0966,
      "velocity": 115,
      "chip": "ym2612"
    },
    {
      "channel": 3,
      "note": 56,
      "start": 30.7449,
      "duration": 0.0941,
      "velocity": 115,
      "chip": "ym2612"
    },
    {
      "channel": 4,
      "note": 50,
      "start": 30.7477,
      "duration": 0.2081,
      "velocity": 115,
      "chip": "ym2612"
    },
    {
      "channel": 0,
      "note": 52,
      "start": 30.9589,
      "duration": 0.0968,
      "velocity": 115,
      "chip": "ym2612"
    },
    {
      "channel": 3,
      "note": 56,
      "start": 30.9616,
      "duration": 0.0943,
      "velocity": 115,
      "chip": "ym2612"
    },
    {
      "channel": 4,
      "note": 49,
      "start": 30.9643,
      "duration": 0.1915,
      "velocity": 115,
      "chip": "ym2612"
    },
    {
      "channel": 0,
      "note": 49,
      "start": 31.1592,
      "duration": 0.0964,
      "velocity": 115,
      "chip": "ym2612"
    },
    {
      "channel": 3,
      "note": 56,
      "start": 31.162,
      "duration": 0.0939,
      "velocity": 115,
      "chip": "ym2612"
    },
    {
      "channel": 4,
      "note": 50,
      "start": 31.1646,
      "duration": 0.2078,
      "velocity": 115,
      "chip": "ym2612"
    },
    {
      "channel": 0,
      "note": 52,
      "start": 31.3756,
      "duration": 0.0967,
      "velocity": 115,
      "chip": "ym2612"
    },
    {
      "channel": 3,
      "note": 56,
      "start": 31.3783,
      "duration": 0.0943,
      "velocity": 115,
      "chip": "ym2612"
    },
    {
      "channel": 4,
      "note": 49,
      "start": 31.3814,
      "duration": 0.1911,
      "velocity": 115,
      "chip": "ym2612"
    },
    {
      "channel": 0,
      "note": 49,
      "start": 31.5756,
      "duration": 0.0967,
      "velocity": 115,
      "chip": "ym2612"
    },
    {
      "channel": 3,
      "note": 56,
      "start": 31.5783,
      "duration": 0.0943,
      "velocity": 115,
      "chip": "ym2612"
    },
    {
      "channel": 4,
      "note": 50,
      "start": 31.581,
      "duration": 0.2081,
      "velocity": 115,
      "chip": "ym2612"
    },
    {
      "channel": 2,
      "note": 73,
      "start": 31.586,
      "duration": 0.0868,
      "velocity": 115,
      "chip": "ym2612"
    },
    {
      "channel": 2,
      "note": 73,
      "start": 31.6764,
      "duration": 0.1129,
      "velocity": 115,
      "chip": "ym2612"
    },
    {
      "channel": 0,
      "note": 56,
      "start": 31.7923,
      "duration": 0.0966,
      "velocity": 115,
      "chip": "ym2612"
    },
    {
      "channel": 3,
      "note": 52,
      "start": 31.795,
      "duration": 0.0941,
      "velocity": 115,
      "chip": "ym2612"
    },
    {
      "channel": 4,
      "note": 49,
      "start": 31.7977,
      "duration": 0.1913,
      "velocity": 115,
      "chip": "ym2612"
    },
    {
      "channel": 2,
      "note": 73,
      "start": 31.8009,
      "duration": 0.0885,
      "velocity": 115,
      "chip": "ym2612"
    },
    {
      "channel": 2,
      "note": 73,
      "start": 31.893,
      "duration": 0.0963,
      "velocity": 115,
      "chip": "ym2612"
    },
    {
      "channel": 0,
      "note": 49,
      "start": 31.9926,
      "duration": 0.0963,
      "velocity": 115,
      "chip": "ym2612"
    },
    {
      "channel": 3,
      "note": 56,
      "start": 31.9953,
      "duration": 0.0939,
      "velocity": 115,
      "chip": "ym2612"
    },
    {
      "channel": 4,
      "note": 50,
      "start": 31.998,
      "duration": 0.2076,
      "velocity": 115,
      "chip": "ym2612"
    },
    {
      "channel": 2,
      "note": 73,
      "start": 32.0012,
      "duration": 0.0882,
      "velocity": 115,
      "chip": "ym2612"
    },
    {
      "channel": 2,
      "note": 73,
      "start": 32.0935,
      "duration": 0.1124,
      "velocity": 115,
      "chip": "ym2612"
    },
    {
      "channel": 0,
      "note": 52,
      "start": 32.2089,
      "duration": 0.0968,
      "velocity": 115,
      "chip": "ym2612"
    },
    {
      "channel": 3,
      "note": 56,
      "start": 32.2116,
      "duration": 0.0943,
      "velocity": 115,
      "chip": "ym2612"
    },
    {
      "channel": 4,
      "note": 49,
      "start": 32.2143,
      "duration": 0.1915,
      "velocity": 115,
      "chip": "ym2612"
    },
    {
      "channel": 2,
      "note": 73,
      "start": 32.2174,
      "duration": 0.0887,
      "velocity": 115,
      "chip": "ym2612"
    },
    {
      "channel": 2,
      "note": 73,
      "start": 32.3098,
      "duration": 0.0962,
      "velocity": 115,
      "chip": "ym2612"
    },
    {
      "channel": 0,
      "note": 49,
      "start": 32.4089,
      "duration": 0.1134,
      "velocity": 115,
      "chip": "ym2612"
    },
    {
      "channel": 3,
      "note": 56,
      "start": 32.4117,
      "duration": 0.1108,
      "velocity": 115,
      "chip": "ym2612"
    },
    {
      "channel": 4,
      "note": 50,
      "start": 32.4143,
      "duration": 0.2081,
      "velocity": 115,
      "chip": "ym2612"
    },
    {
      "channel": 2,
      "note": 73,
      "start": 32.4175,
      "duration": 0.1052,
      "velocity": 115,
      "chip": "ym2612"
    },
    {
      "channel": 2,
      "note": 73,
      "start": 32.5263,
      "duration": 0.0963,
      "velocity": 115,
      "chip": "ym2612"
    },
    {
      "channel": 0,
      "note": 52,
      "start": 32.6256,
      "duration": 0.0966,
      "velocity": 115,
      "chip": "ym2612"
    },
    {
      "channel": 3,
      "note": 56,
      "start": 32.6283,
      "duration": 0.0941,
      "velocity": 115,
      "chip": "ym2612"
    },
    {
      "channel": 4,
      "note": 49,
      "start": 32.631,
      "duration": 0.1913,
      "velocity": 115,
      "chip": "ym2612"
    },
    {
      "channel": 2,
      "note": 73,
      "start": 32.6342,
      "duration": 0.0885,
      "velocity": 115,
      "chip": "ym2612"
    },
    {
      "channel": 2,
      "note": 73,
      "start": 32.7263,
      "duration": 0.0962,
      "velocity": 115,
      "chip": "ym2612"
    },
    {
      "channel": 0,
      "note": 49,
      "start": 32.8259,
      "duration": 0.113,
      "velocity": 115,
      "chip": "ym2612"
    },
    {
      "channel": 3,
      "note": 56,
      "start": 32.8286,
      "duration": 0.1105,
      "velocity": 115,
      "chip": "ym2612"
    },
    {
      "channel": 4,
      "note": 50,
      "start": 32.8313,
      "duration": 0.2078,
      "velocity": 115,
      "chip": "ym2612"
    },
    {
      "channel": 2,
      "note": 73,
      "start": 32.8345,
      "duration": 0.1048,
      "velocity": 115,
      "chip": "ym2612"
    },
    {
      "channel": 2,
      "note": 73,
      "start": 32.943,
      "duration": 0.0963,
      "velocity": 115,
      "chip": "ym2612"
    },
    {
      "channel": 0,
      "note": 52,
      "start": 33.0422,
      "duration": 0.0967,
      "velocity": 115,
      "chip": "ym2612"
    },
    {
      "channel": 3,
      "note": 56,
      "start": 33.045,
      "duration": 0.0941,
      "velocity": 115,
      "chip": "ym2612"
    },
    {
      "channel": 4,
      "note": 49,
      "start": 33.048,
      "duration": 0.1911,
      "velocity": 115,
      "chip": "ym2612"
    },
    {
      "channel": 2,
      "note": 73,
      "start": 33.0512,
      "duration": 0.0882,
      "velocity": 115,
      "chip": "ym2612"
    },
    {
      "channel": 2,
      "note": 73,
      "start": 33.1433,
      "duration": 0.0959,
      "velocity": 115,
      "chip": "ym2612"
    },
    {
      "channel": 0,
      "note": 49,
      "start": 33.2422,
      "duration": 0.1133,
      "velocity": 115,
      "chip": "ym2612"
    },
    {
      "channel": 3,
      "note": 56,
      "start": 33.245,
      "duration": 0.1108,
      "velocity": 115,
      "chip": "ym2612"
    },
    {
      "channel": 1,
      "note": 75,
      "start": 33.2496,
      "duration": 0.106,
      "velocity": 101,
      "chip": "ym2612"
    },
    {
      "channel": 5,
      "note": 71,
      "start": 33.2525,
      "duration": 0.1035,
      "velocity": 101,
      "chip": "ym2612"
    },
    {
      "channel": 1,
      "note": 73,
      "start": 33.3593,
      "duration": 0.0964,
      "velocity": 101,
      "chip": "ym2612"
    },
    {
      "channel": 5,
      "note": 68,
      "start": 33.3625,
      "duration": 0.0934,
      "velocity": 101,
      "chip": "ym2612"
    },
    {
      "channel": 0,
      "note": 56,
      "start": 33.459,
      "duration": 0.0966,
      "velocity": 115,
      "chip": "ym2612"
    },
    {
      "channel": 3,
      "note": 52,
      "start": 33.4617,
      "duration": 0.0942,
      "velocity": 115,
      "chip": "ym2612"
    },
    {
      "channel": 1,
      "note": 71,
      "start": 33.4645,
      "duration": 0.0912,
      "velocity": 101,
      "chip": "ym2612"
    },
    {
      "channel": 5,
      "note": 75,
      "start": 33.4673,
      "duration": 0.0887,
      "velocity": 101,
      "chip": "ym2612"
    },
    {
      "channel": 1,
      "note": 68,
      "start": 33.5594,
      "duration": 0.113,
      "velocity": 101,
      "chip": "ym2612"
    },
    {
      "channel": 5,
      "note": 73,
      "start": 33.5624,
      "duration": 0.1102,
      "velocity": 101,
      "chip": "ym2612"
    },
    {
      "channel": 0,
      "note": 49,
      "start": 33.676,
      "duration": 0.0963,
      "velocity": 115,
      "chip": "ym2612"
    },
    {
      "channel": 3,
      "note": 56,
      "start": 33.6787,
      "duration": 0.0938,
      "velocity": 115,
      "chip": "ym2612"
    },
    {
      "channel": 0,
      "note": 52,
      "start": 33.8754,
      "duration": 0.0969,
      "velocity": 115,
      "chip": "ym2612"
    },
    {
      "channel": 3,
      "note": 56,
      "start": 33.8781,
      "duration": 0.0944,
      "velocity": 115,
      "chip": "ym2612"
    },
    {
      "channel": 0,
      "note": 49,
      "start": 34.0921,
      "duration": 0.0969,
      "velocity": 115,
      "chip": "ym2612"
    },
    {
      "channel": 3,
      "note": 56,
      "start": 34.0947,
      "duration": 0.0944,
      "velocity": 115,
      "chip": "ym2612"
    },
    {
      "channel": 0,
      "note": 52,
      "start": 34.292,
      "duration": 0.097,
      "velocity": 115,
      "chip": "ym2612"
    },
    {
      "channel": 3,
      "note": 56,
      "start": 34.2947,
      "duration": 0.0944,
      "velocity": 115,
      "chip": "ym2612"
    },
    {
      "channel": 0,
      "note": 49,
      "start": 34.509,
      "duration": 0.0966,
      "velocity": 115,
      "chip": "ym2612"
    },
    {
      "channel": 3,
      "note": 56,
      "start": 34.5118,
      "duration": 0.0941,
      "velocity": 115,
      "chip": "ym2612"
    },
    {
      "channel": 0,
      "note": 52,
      "start": 34.7088,
      "duration": 0.0969,
      "velocity": 115,
      "chip": "ym2612"
    },
    {
      "channel": 3,
      "note": 56,
      "start": 34.7115,
      "duration": 0.0944,
      "velocity": 115,
      "chip": "ym2612"
    },
    {
      "channel": 0,
      "note": 61,
      "start": 34.9255,
      "duration": 0.0969,
      "velocity": 115,
      "chip": "ym2612"
    },
    {
      "channel": 3,
      "note": 54,
      "start": 34.9282,
      "duration": 0.0944,
      "velocity": 115,
      "chip": "ym2612"
    },
    {
      "channel": 1,
      "note": 68,
      "start": 34.9311,
      "duration": 0.0914,
      "velocity": 101,
      "chip": "ym2612"
    },
    {
      "channel": 5,
      "note": 71,
      "start": 34.9338,
      "duration": 0.0891,
      "velocity": 101,
      "chip": "ym2612"
    },
    {
      "channel": 2,
      "note": 73,
      "start": 34.937,
      "duration": 0.0859,
      "velocity": 115,
      "chip": "ym2612"
    },
    {
      "channel": 1,
      "note": 73,
      "start": 35.0262,
      "duration": 0.0962,
      "velocity": 101,
      "chip": "ym2612"
    },
    {
      "channel": 5,
      "note": 68,
      "start": 35.0293,
      "duration": 0.0933,
      "velocity": 101,
      "chip": "ym2612"
    },
    {
      "channel": 2,
      "note": 73,
      "start": 35.0324,
      "duration": 0.0903,
      "velocity": 115,
      "chip": "ym2612"
    },
    {
      "channel": 0,
      "note": 57,
      "start": 35.1257,
      "duration": 0.1132,
      "velocity": 115,
      "chip": "ym2612"
    },
    {
      "channel": 3,
      "note": 61,
      "start": 35.1285,
      "duration": 0.1107,
      "velocity": 115,
      "chip": "ym2612"
    },
    {
      "channel": 1,
      "note": 71,
      "start": 35.1313,
      "duration": 0.1078,
      "velocity": 101,
      "chip": "ym2612"
    },
    {
      "channel": 5,
      "note": 68,
      "start": 35.1341,
      "duration": 0.1054,
      "velocity": 101,
      "chip": "ym2612"
    },
    {
      "channel": 2,
      "note": 73,
      "start": 35.1375,
      "duration": 0.1021,
      "velocity": 115,
      "chip": "ym2612"
    },
    {
      "channel": 1,
      "note": 73,
      "start": 35.2428,
      "duration": 0.0962,
      "velocity": 101,
      "chip": "ym2612"
    },
    {
      "channel": 5,
      "note": 68,
      "start": 35.2458,
      "duration": 0.0934,
      "velocity": 101,
      "chip": "ym2612"
    },
    {
      "channel": 2,
      "note": 73,
      "start": 35.2488,
      "duration": 0.0905,
      "velocity": 115,
      "chip": "ym2612"
    },
    {
      "channel": 0,
      "note": 61,
      "start": 35.3427,
      "duration": 0.0962,
      "velocity": 115,
      "chip": "ym2612"
    },
    {
      "channel": 3,
      "note": 54,
      "start": 35.3454,
      "duration": 0.0938,
      "velocity": 115,
      "chip": "ym2612"
    },
    {
      "channel": 2,
      "note": 73,
      "start": 35.3487,
      "duration": 0.0907,
      "velocity": 115,
      "chip": "ym2612"
    },
    {
      "channel": 2,
      "note": 73,
      "start": 35.443,
      "duration": 0.0963,
      "velocity": 115,
      "chip": "ym2612"
    },
    {
      "channel": 0,
      "note": 61,
      "start": 35.5422,
      "duration": 0.1133,
      "velocity": 115,
      "chip": "ym2612"
    },
    {
      "channel": 3,
      "note": 57,
      "start": 35.5449,
      "duration": 0.1108,
      "velocity": 115,
      "chip": "ym2612"
    },
    {
      "channel": 2,
      "note": 73,
      "start": 35.5482,
      "duration": 0.1078,
      "velocity": 115,
      "chip": "ym2612"
    },
    {
      "channel": 2,
      "note": 73,
      "start": 35.6597,
      "duration": 0.0962,
      "velocity": 115,
      "chip": "ym2612"
    },
    {
      "channel": 0,
      "note": 61,
      "start": 35.7589,
      "duration": 0.0966,
      "velocity": 115,
      "chip": "ym2612"
    },
    {
      "channel": 3,
      "note": 54,
      "start": 35.7616,
      "duration": 0.0941,
      "velocity": 115,
      "chip": "ym2612"
    },
    {
      "channel": 2,
      "note": 73,
      "start": 35.7649,
      "duration": 0.0911,
      "velocity": 115,
      "chip": "ym2612"
    },
    {
      "channel": 2,
      "note": 73,
      "start": 35.8597,
      "duration": 0.0963,
      "velocity": 115,
      "chip": "ym2612"
    },
    {
      "channel": 0,
      "note": 61,
      "start": 35.9589,
      "duration": 0.1133,
      "velocity": 115,
      "chip": "ym2612"
    },
    {
      "channel": 3,
      "note": 57,
      "start": 35.9617,
      "duration": 0.1107,
      "velocity": 115,
      "chip": "ym2612"
    },
    {
      "channel": 2,
      "note": 73,
      "start": 35.965,
      "duration": 0.1077,
      "velocity": 115,
      "chip": "ym2612"
    },
    {
      "channel": 2,
      "note": 73,
      "start": 36.0763,
      "duration": 0.0961,
      "velocity": 115,
      "chip": "ym2612"
    },
    {
      "channel": 0,
      "note": 61,
      "start": 36.1759,
      "duration": 0.0964,
      "velocity": 115,
      "chip": "ym2612"
    },
    {
      "channel": 3,
      "note": 54,
      "start": 36.1785,
      "duration": 0.0939,
      "velocity": 115,
      "chip": "ym2612"
    },
    {
      "channel": 2,
      "note": 73,
      "start": 36.1818,
      "duration": 0.0908,
      "velocity": 115,
      "chip": "ym2612"
    },
    {
      "channel": 2,
      "note": 73,
      "start": 36.2763,
      "duration": 0.1129,
      "velocity": 115,
      "chip": "ym2612"
    },
    {
      "channel": 0,
      "note": 61,
      "start": 36.3922,
      "duration": 0.0968,
      "velocity": 115,
      "chip": "ym2612"
    },
    {
      "channel": 3,
      "note": 57,
      "start": 36.3949,
      "duration": 0.0942,
      "velocity": 115,
      "chip": "ym2612"
    },
    {
      "channel": 2,
      "note": 73,
      "start": 36.3982,
      "duration": 0.0912,
      "velocity": 115,
      "chip": "ym2612"
    },
    {
      "channel": 2,
      "note": 73,
      "start": 36.4934,
      "duration": 0.0958,
      "velocity": 115,
      "chip": "ym2612"
    },
    {
      "channel": 0,
      "note": 61,
      "start": 36.5922,
      "duration": 0.0966,
      "velocity": 115,
      "chip": "ym2612"
    },
    {
      "channel": 3,
      "note": 54,
      "start": 36.5949,
      "duration": 0.0941,
      "velocity": 115,
      "chip": "ym2612"
    },
    {
      "channel": 0,
      "note": 57,
      "start": 36.8087,
      "duration": 0.0969,
      "velocity": 115,
      "chip": "ym2612"
    },
    {
      "channel": 3,
      "note": 61,
      "start": 36.8114,
      "duration": 0.0943,
      "velocity": 115,
      "chip": "ym2612"
    }
  ]
}