{
  "track_name": "17 - A Cradle Song of Pepelogoo",
  "duration_sec": 59.525,
  "sample_rate": 44100,
  "note_count": 332,
  "unique_pitches": 31,
  "pitch_range": 56,
  "avg_note_duration": 0.8234,
  "reconstruction_stats": {
    "notes_reconstructed": 332,
    "keyon_events": 332,
    "keyoff_events": 329,
    "orphan_keyons": 3,
    "unique_pitches": 31,
    "pitch_range": 56,
    "avg_duration_sec": 0.8234
  },
  "metadata": {
    "source": "M\\Monster World IV\\17 - A Cradle Song of Pepelogoo.vgz"
  },
  "notes": [
    {
      "channel": 0,
      "note": 42,
      "start": 0.0,
      "duration": 0.5864,
      "velocity": 93,
      "chip": "ym2612"
    },
    {
      "channel": 3,
      "note": 82,
      "start": 0.002,
      "duration": 0.5849,
      "velocity": 83,
      "chip": "ym2612"
    },
    {
      "channel": 1,
      "note": 82,
      "start": 0.1207,
      "duration": 0.587,
      "velocity": 93,
      "chip": "ym2612"
    },
    {
      "channel": 4,
      "note": 78,
      "start": 0.2928,
      "duration": 0.5925,
      "velocity": 83,
      "chip": "ym2612"
    },
    {
      "channel": 0,
      "note": 85,
      "start": 0.633,
      "duration": 0.6485,
      "velocity": 93,
      "chip": "ym2612"
    },
    {
      "channel": 3,
      "note": 97,
      "start": 0.6346,
      "duration": 0.648,
      "velocity": 83,
      "chip": "ym2612"
    },
    {
      "channel": 1,
      "note": 85,
      "start": 0.7543,
      "duration": 0.6475,
      "velocity": 93,
      "chip": "ym2612"
    },
    {
      "channel": 4,
      "note": 97,
      "start": 0.9264,
      "duration": 0.63,
      "velocity": 83,
      "chip": "ym2612"
    },
    {
      "channel": 0,
      "note": 86,
      "start": 1.2848,
      "duration": 0.8856,
      "velocity": 93,
      "chip": "ym2612"
    },
    {
      "channel": 3,
      "note": 98,
      "start": 1.2868,
      "duration": 0.8837,
      "velocity": 83,
      "chip": "ym2612"
    },
    {
      "channel": 1,
      "note": 86,
      "start": 1.406,
      "duration": 0.8856,
      "velocity": 93,
      "chip": "ym2612"
    },
    {
      "channel": 4,
      "note": 98,
      "start": 1.5609,
      "duration": 0.8856,
      "velocity": 83,
      "chip": "ym2612"
    },
    {
      "channel": 0,
      "note": 85,
      "start": 2.2283,
      "duration": 0.1307,
      "velocity": 93,
      "chip": "ym2612"
    },
    {
      "channel": 3,
      "note": 97,
      "start": 2.23,
      "duration": 0.1291,
      "velocity": 83,
      "chip": "ym2612"
    },
    {
      "channel": 1,
      "note": 85,
      "start": 2.3494,
      "duration": 0.1309,
      "velocity": 93,
      "chip": "ym2612"
    },
    {
      "channel": 0,
      "note": 83,
      "start": 2.3999,
      "duration": 0.1307,
      "velocity": 93,
      "chip": "ym2612"
    },
    {
      "channel": 3,
      "note": 95,
      "start": 2.4016,
      "duration": 0.1291,
      "velocity": 83,
      "chip": "ym2612"
    },
    {
      "channel": 1,
      "note": 83,
      "start": 2.5212,
      "duration": 0.1307,
      "velocity": 93,
      "chip": "ym2612"
    },
    {
      "channel": 4,
      "note": 97,
      "start": 2.5229,
      "duration": 0.1291,
      "velocity": 83,
      "chip": "ym2612"
    },
    {
      "channel": 0,
      "note": 81,
      "start": 2.5547,
      "duration": 0.6309,
      "velocity": 93,
      "chip": "ym2612"
    },
    {
      "channel": 3,
      "note": 93,
      "start": 2.5564,
      "duration": 0.6305,
      "velocity": 83,
      "chip": "ym2612"
    },
    {
      "channel": 1,
      "note": 81,
      "start": 2.6754,
      "duration": 0.6309,
      "velocity": 93,
      "chip": "ym2612"
    },
    {
      "channel": 4,
      "note": 95,
      "start": 2.6771,
      "duration": 0.1295,
      "velocity": 83,
      "chip": "ym2612"
    },
    {
      "channel": 4,
      "note": 93,
      "start": 2.8303,
      "duration": 0.6299,
      "velocity": 83,
      "chip": "ym2612"
    },
    {
      "channel": 0,
      "note": 81,
      "start": 3.189,
      "duration": 0.6317,
      "velocity": 93,
      "chip": "ym2612"
    },
    {
      "channel": 3,
      "note": 93,
      "start": 3.1907,
      "duration": 0.6311,
      "velocity": 83,
      "chip": "ym2612"
    },
    {
      "channel": 1,
      "note": 81,
      "start": 3.3101,
      "duration": 0.6307,
      "velocity": 93,
      "chip": "ym2612"
    },
    {
      "channel": 4,
      "note": 93,
      "start": 3.4651,
      "duration": 0.63,
      "velocity": 83,
      "chip": "ym2612"
    },
    {
      "channel": 0,
      "note": 85,
      "start": 3.8238,
      "duration": 0.588,
      "velocity": 93,
      "chip": "ym2612"
    },
    {
      "channel": 3,
      "note": 97,
      "start": 3.8256,
      "duration": 0.5864,
      "velocity": 83,
      "chip": "ym2612"
    },
    {
      "channel": 1,
      "note": 85,
      "start": 3.9448,
      "duration": 0.5884,
      "velocity": 93,
      "chip": "ym2612"
    },
    {
      "channel": 4,
      "note": 97,
      "start": 4.0997,
      "duration": 0.5883,
      "velocity": 83,
      "chip": "ym2612"
    },
    {
      "channel": 0,
      "note": 83,
      "start": 4.4584,
      "duration": 0.6316,
      "velocity": 93,
      "chip": "ym2612"
    },
    {
      "channel": 3,
      "note": 95,
      "start": 4.4601,
      "duration": 0.6309,
      "velocity": 83,
      "chip": "ym2612"
    },
    {
      "channel": 1,
      "note": 83,
      "start": 4.5795,
      "duration": 0.6307,
      "velocity": 93,
      "chip": "ym2612"
    },
    {
      "channel": 4,
      "note": 95,
      "start": 4.7345,
      "duration": 0.6471,
      "velocity": 83,
      "chip": "ym2612"
    },
    {
      "channel": 0,
      "note": 86,
      "start": 5.0936,
      "duration": 0.6308,
      "velocity": 93,
      "chip": "ym2612"
    },
    {
      "channel": 3,
      "note": 98,
      "start": 5.0952,
      "duration": 0.6303,
      "velocity": 83,
      "chip": "ym2612"
    },
    {
      "channel": 1,
      "note": 86,
      "start": 5.2142,
      "duration": 0.6304,
      "velocity": 93,
      "chip": "ym2612"
    },
    {
      "channel": 4,
      "note": 98,
      "start": 5.3869,
      "duration": 0.6295,
      "velocity": 83,
      "chip": "ym2612"
    },
    {
      "channel": 0,
      "note": 86,
      "start": 5.7278,
      "duration": 0.8912,
      "velocity": 93,
      "chip": "ym2612"
    },
    {
      "channel": 3,
      "note": 98,
      "start": 5.7295,
      "duration": 0.8897,
      "velocity": 83,
      "chip": "ym2612"
    },
    {
      "channel": 1,
      "note": 86,
      "start": 5.849,
      "duration": 0.8914,
      "velocity": 93,
      "chip": "ym2612"
    },
    {
      "channel": 4,
      "note": 98,
      "start": 6.0216,
      "duration": 0.8906,
      "velocity": 83,
      "chip": "ym2612"
    },
    {
      "channel": 0,
      "note": 81,
      "start": 6.6887,
      "duration": 0.2735,
      "velocity": 93,
      "chip": "ym2612"
    },
    {
      "channel": 3,
      "note": 93,
      "start": 6.6904,
      "duration": 0.2719,
      "velocity": 83,
      "chip": "ym2612"
    },
    {
      "channel": 1,
      "note": 81,
      "start": 6.8096,
      "duration": 0.2738,
      "velocity": 93,
      "chip": "ym2612"
    },
    {
      "channel": 4,
      "note": 93,
      "start": 6.9637,
      "duration": 0.2747,
      "velocity": 83,
      "chip": "ym2612"
    },
    {
      "channel": 0,
      "note": 78,
      "start": 7.0144,
      "duration": 0.6315,
      "velocity": 93,
      "chip": "ym2612"
    },
    {
      "channel": 3,
      "note": 90,
      "start": 7.0161,
      "duration": 0.631,
      "velocity": 83,
      "chip": "ym2612"
    },
    {
      "channel": 1,
      "note": 78,
      "start": 7.1355,
      "duration": 0.6309,
      "velocity": 93,
      "chip": "ym2612"
    },
    {
      "channel": 4,
      "note": 90,
      "start": 7.2904,
      "duration": 0.6304,
      "velocity": 83,
      "chip": "ym2612"
    },
    {
      "channel": 0,
      "note": 83,
      "start": 7.6497,
      "duration": 0.9478,
      "velocity": 93,
      "chip": "ym2612"
    },
    {
      "channel": 3,
      "note": 95,
      "start": 7.6515,
      "duration": 0.9462,
      "velocity": 83,
      "chip": "ym2612"
    },
    {
      "channel": 1,
      "note": 83,
      "start": 7.7705,
      "duration": 0.9392,
      "velocity": 93,
      "chip": "ym2612"
    },
    {
      "channel": 4,
      "note": 95,
      "start": 7.9252,
      "duration": 0.9483,
      "velocity": 83,
      "chip": "ym2612"
    },
    {
      "channel": 0,
      "note": 85,
      "start": 8.6098,
      "duration": 0.1307,
      "velocity": 93,
      "chip": "ym2612"
    },
    {
      "channel": 3,
      "note": 97,
      "start": 8.6115,
      "duration": 0.1291,
      "velocity": 83,
      "chip": "ym2612"
    },
    {
      "channel": 1,
      "note": 85,
      "start": 8.7137,
      "duration": 0.1309,
      "velocity": 93,
      "chip": "ym2612"
    },
    {
      "channel": 0,
      "note": 83,
      "start": 8.7642,
      "duration": 0.1307,
      "velocity": 93,
      "chip": "ym2612"
    },
    {
      "channel": 3,
      "note": 95,
      "start": 8.7659,
      "duration": 0.1291,
      "velocity": 83,
      "chip": "ym2612"
    },
    {
      "channel": 1,
      "note": 83,
      "start": 8.8853,
      "duration": 0.1309,
      "velocity": 93,
      "chip": "ym2612"
    },
    {
      "channel": 4,
      "note": 97,
      "start": 8.8873,
      "duration": 0.1291,
      "velocity": 83,
      "chip": "ym2612"
    },
    {
      "channel": 0,
      "note": 81,
      "start": 8.9185,
      "duration": 0.5882,
      "velocity": 93,
      "chip": "ym2612"
    },
    {
      "channel": 3,
      "note": 93,
      "start": 8.9205,
      "duration": 0.5863,
      "velocity": 83,
      "chip": "ym2612"
    },
    {
      "channel": 1,
      "note": 81,
      "start": 9.0396,
      "duration": 0.5883,
      "velocity": 93,
      "chip": "ym2612"
    },
    {
      "channel": 4,
      "note": 95,
      "start": 9.0413,
      "duration": 0.1298,
      "velocity": 83,
      "chip": "ym2612"
    },
    {
      "channel": 4,
      "note": 93,
      "start": 9.1946,
      "duration": 0.5881,
      "velocity": 83,
      "chip": "ym2612"
    },
    {
      "channel": 0,
      "note": 83,
      "start": 9.5535,
      "duration": 0.5936,
      "velocity": 93,
      "chip": "ym2612"
    },
    {
      "channel": 3,
      "note": 95,
      "start": 9.5553,
      "duration": 0.592,
      "velocity": 83,
      "chip": "ym2612"
    },
    {
      "channel": 1,
      "note": 83,
      "start": 9.6743,
      "duration": 0.5941,
      "velocity": 93,
      "chip": "ym2612"
    },
    {
      "channel": 4,
      "note": 95,
      "start": 9.8293,
      "duration": 0.5941,
      "velocity": 83,
      "chip": "ym2612"
    },
    {
      "channel": 0,
      "note": 76,
      "start": 10.1897,
      "duration": 0.5864,
      "velocity": 93,
      "chip": "ym2612"
    },
    {
      "channel": 3,
      "note": 88,
      "start": 10.1915,
      "duration": 0.5848,
      "velocity": 83,
      "chip": "ym2612"
    },
    {
      "channel": 5,
      "note": 46,
      "start": 10.1956,
      "duration": 2.5333,
      "velocity": 89,
      "chip": "ym2612"
    },
    {
      "channel": 2,
      "note": 82,
      "start": 10.517,
      "duration": 1.9018,
      "velocity": 89,
      "chip": "ym2612"
    },
    {
      "channel": 0,
      "note": 85,
      "start": 10.8249,
      "duration": 0.6478,
      "velocity": 93,
      "chip": "ym2612"
    },
    {
      "channel": 3,
      "note": 97,
      "start": 10.8266,
      "duration": 0.6473,
      "velocity": 83,
      "chip": "ym2612"
    },
    {
      "channel": 4,
      "note": 88,
      "start": 10.8301,
      "duration": 0.3086,
      "velocity": 89,
      "chip": "ym2612"
    },
    {
      "channel": 1,
      "note": 76,
      "start": 11.1526,
      "duration": 0.6253,
      "velocity": 89,
      "chip": "ym2612"
    },
    {
      "channel": 4,
      "note": 71,
      "start": 11.1547,
      "duration": 0.6232,
      "velocity": 89,
      "chip": "ym2612"
    },
    {
      "channel": 0,
      "note": 86,
      "start": 11.4759,
      "duration": 0.8841,
      "velocity": 93,
      "chip": "ym2612"
    },
    {
      "channel": 3,
      "note": 98,
      "start": 11.4776,
      "duration": 0.8826,
      "velocity": 83,
      "chip": "ym2612"
    },
    {
      "channel": 1,
      "note": 73,
      "start": 11.7845,
      "duration": 0.9483,
      "velocity": 89,
      "chip": "ym2612"
    },
    {
      "channel": 4,
      "note": 69,
      "start": 11.7863,
      "duration": 0.9466,
      "velocity": 89,
      "chip": "ym2612"
    },
    {
      "channel": 0,
      "note": 85,
      "start": 12.4207,
      "duration": 0.128,
      "velocity": 93,
      "chip": "ym2612"
    },
    {
      "channel": 3,
      "note": 97,
      "start": 12.4224,
      "duration": 0.1265,
      "velocity": 83,
      "chip": "ym2612"
    },
    {
      "channel": 2,
      "note": 64,
      "start": 12.4255,
      "duration": 0.3032,
      "velocity": 89,
      "chip": "ym2612"
    },
    {
      "channel": 0,
      "note": 83,
      "start": 12.5906,
      "duration": 0.1298,
      "velocity": 93,
      "chip": "ym2612"
    },
    {
      "channel": 3,
      "note": 95,
      "start": 12.5923,
      "duration": 0.1283,
      "velocity": 83,
      "chip": "ym2612"
    },
    {
      "channel": 0,
      "note": 81,
      "start": 12.7466,
      "duration": 0.63,
      "velocity": 93,
      "chip": "ym2612"
    },
    {
      "channel": 3,
      "note": 93,
      "start": 12.7483,
      "duration": 0.6293,
      "velocity": 83,
      "chip": "ym2612"
    },
    {
      "channel": 5,
      "note": 57,
      "start": 12.7518,
      "duration": 2.5314,
      "velocity": 89,
      "chip": "ym2612"
    },
    {
      "channel": 2,
      "note": 64,
      "start": 13.0563,
      "duration": 2.2221,
      "velocity": 89,
      "chip": "ym2612"
    },
    {
      "channel": 0,
      "note": 81,
      "start": 13.3805,
      "duration": 0.6305,
      "velocity": 93,
      "chip": "ym2612"
    },
    {
      "channel": 3,
      "note": 93,
      "start": 13.3822,
      "duration": 0.63,
      "velocity": 83,
      "chip": "ym2612"
    },
    {
      "channel": 4,
      "note": 69,
      "start": 13.3846,
      "duration": 0.31,
      "velocity": 89,
      "chip": "ym2612"
    },
    {
      "channel": 1,
      "note": 76,
      "start": 13.7078,
      "duration": 0.626,
      "velocity": 89,
      "chip": "ym2612"
    },
    {
      "channel": 4,
      "note": 68,
      "start": 13.7096,
      "duration": 0.6243,
      "velocity": 89,
      "chip": "ym2612"
    },
    {
      "channel": 0,
      "note": 85,
      "start": 14.0142,
      "duration": 0.5873,
      "velocity": 93,
      "chip": "ym2612"
    },
    {
      "channel": 3,
      "note": 97,
      "start": 14.0159,
      "duration": 0.5858,
      "velocity": 83,
      "chip": "ym2612"
    },
    {
      "channel": 1,
      "note": 69,
      "start": 14.3407,
      "duration": 0.6324,
      "velocity": 89,
      "chip": "ym2612"
    },
    {
      "channel": 4,
      "note": 66,
      "start": 14.3426,
      "duration": 0.9508,
      "velocity": 89,
      "chip": "ym2612"
    },
    {
      "channel": 0,
      "note": 83,
      "start": 14.6491,
      "duration": 0.6307,
      "velocity": 93,
      "chip": "ym2612"
    },
    {
      "channel": 3,
      "note": 95,
      "start": 14.6507,
      "duration": 0.6301,
      "velocity": 83,
      "chip": "ym2612"
    },
    {
      "channel": 1,
      "note": 71,
      "start": 14.9765,
      "duration": 0.3167,
      "velocity": 89,
      "chip": "ym2612"
    },
    {
      "channel": 0,
      "note": 86,
      "start": 15.2848,
      "duration": 0.6304,
      "velocity": 93,
      "chip": "ym2612"
    },
    {
      "channel": 3,
      "note": 98,
      "start": 15.2869,
      "duration": 0.6295,
      "velocity": 83,
      "chip": "ym2612"
    },
    {
      "channel": 5,
      "note": 52,
      "start": 15.2907,
      "duration": 2.5329,
      "velocity": 89,
      "chip": "ym2612"
    },
    {
      "channel": 4,
      "note": 68,
      "start": 15.6127,
      "duration": 0.3048,
      "velocity": 89,
      "chip": "ym2612"
    },
    {
      "channel": 2,
      "note": 59,
      "start": 15.6146,
      "duration": 1.8973,
      "velocity": 89,
      "chip": "ym2612"
    },
    {
      "channel": 0,
      "note": 86,
      "start": 15.9193,
      "duration": 0.8894,
      "velocity": 93,
      "chip": "ym2612"
    },
    {
      "channel": 3,
      "note": 98,
      "start": 15.9213,
      "duration": 0.8876,
      "velocity": 83,
      "chip": "ym2612"
    },
    {
      "channel": 4,
      "note": 62,
      "start": 15.9236,
      "duration": 0.3097,
      "velocity": 89,
      "chip": "ym2612"
    },
    {
      "channel": 1,
      "note": 76,
      "start": 16.2455,
      "duration": 0.6271,
      "velocity": 89,
      "chip": "ym2612"
    },
    {
      "channel": 4,
      "note": 64,
      "start": 16.2474,
      "duration": 0.6254,
      "velocity": 89,
      "chip": "ym2612"
    },
    {
      "channel": 0,
      "note": 81,
      "start": 16.8803,
      "duration": 0.2715,
      "velocity": 93,
      "chip": "ym2612"
    },
    {
      "channel": 3,
      "note": 93,
      "start": 16.882,
      "duration": 0.2699,
      "velocity": 83,
      "chip": "ym2612"
    },
    {
      "channel": 1,
      "note": 69,
      "start": 16.8838,
      "duration": 0.9442,
      "velocity": 89,
      "chip": "ym2612"
    },
    {
      "channel": 4,
      "note": 62,
      "start": 16.8856,
      "duration": 0.9426,
      "velocity": 89,
      "chip": "ym2612"
    },
    {
      "channel": 0,
      "note": 78,
      "start": 17.2055,
      "duration": 0.6314,
      "velocity": 93,
      "chip": "ym2612"
    },
    {
      "channel": 3,
      "note": 90,
      "start": 17.2072,
      "duration": 0.631,
      "velocity": 83,
      "chip": "ym2612"
    },
    {
      "channel": 2,
      "note": 57,
      "start": 17.5164,
      "duration": 0.3072,
      "velocity": 89,
      "chip": "ym2612"
    },
    {
      "channel": 0,
      "note": 83,
      "start": 17.842,
      "duration": 0.9452,
      "velocity": 93,
      "chip": "ym2612"
    },
    {
      "channel": 3,
      "note": 95,
      "start": 17.8437,
      "duration": 0.9437,
      "velocity": 83,
      "chip": "ym2612"
    },
    {
      "channel": 5,
      "note": 50,
      "start": 17.8472,
      "duration": 2.5372,
      "velocity": 89,
      "chip": "ym2612"
    },
    {
      "channel": 2,
      "note": 54,
      "start": 18.1502,
      "duration": 0.6337,
      "velocity": 89,
      "chip": "ym2612"
    },
    {
      "channel": 1,
      "note": 74,
      "start": 18.4757,
      "duration": 0.6328,
      "velocity": 89,
      "chip": "ym2612"
    },
    {
      "channel": 4,
      "note": 66,
      "start": 18.4776,
      "duration": 0.632,
      "velocity": 89,
      "chip": "ym2612"
    },
    {
      "channel": 0,
      "note": 85,
      "start": 18.8014,
      "duration": 0.1288,
      "velocity": 93,
      "chip": "ym2612"
    },
    {
      "channel": 3,
      "note": 97,
      "start": 18.8031,
      "duration": 0.1272,
      "velocity": 83,
      "chip": "ym2612"
    },
    {
      "channel": 2,
      "note": 59,
      "start": 18.8066,
      "duration": 0.629,
      "velocity": 89,
      "chip": "ym2612"
    },
    {
      "channel": 0,
      "note": 86,
      "start": 18.9548,
      "duration": 0.1298,
      "velocity": 93,
      "chip": "ym2612"
    },
    {
      "channel": 3,
      "note": 98,
      "start": 18.9565,
      "duration": 0.1282,
      "velocity": 83,
      "chip": "ym2612"
    },
    {
      "channel": 0,
      "note": 85,
      "start": 19.1115,
      "duration": 0.5906,
      "velocity": 93,
      "chip": "ym2612"
    },
    {
      "channel": 3,
      "note": 97,
      "start": 19.1132,
      "duration": 0.5891,
      "velocity": 83,
      "chip": "ym2612"
    },
    {
      "channel": 1,
      "note": 68,
      "start": 19.1149,
      "duration": 0.6286,
      "velocity": 89,
      "chip": "ym2612"
    },
    {
      "channel": 4,
      "note": 64,
      "start": 19.1168,
      "duration": 0.627,
      "velocity": 89,
      "chip": "ym2612"
    },
    {
      "channel": 2,
      "note": 59,
      "start": 19.4425,
      "duration": 0.9522,
      "velocity": 89,
      "chip": "ym2612"
    },
    {
      "channel": 0,
      "note": 83,
      "start": 19.7508,
      "duration": 0.2887,
      "velocity": 93,
      "chip": "ym2612"
    },
    {
      "channel": 3,
      "note": 95,
      "start": 19.7524,
      "duration": 0.2872,
      "velocity": 83,
      "chip": "ym2612"
    },
    {
      "channel": 1,
      "note": 69,
      "start": 19.7545,
      "duration": 0.6345,
      "velocity": 89,
      "chip": "ym2612"
    },
    {
      "channel": 4,
      "note": 66,
      "start": 19.7563,
      "duration": 0.3078,
      "velocity": 89,
      "chip": "ym2612"
    },
    {
      "channel": 0,
      "note": 81,
      "start": 20.0772,
      "duration": 0.2882,
      "velocity": 93,
      "chip": "ym2612"
    },
    {
      "channel": 3,
      "note": 93,
      "start": 20.0789,
      "duration": 0.2867,
      "velocity": 83,
      "chip": "ym2612"
    },
    {
      "channel": 4,
      "note": 64,
      "start": 20.0813,
      "duration": 0.3078,
      "velocity": 89,
      "chip": "ym2612"
    },
    {
      "channel": 0,
      "note": 80,
      "start": 20.3861,
      "duration": 2.078,
      "velocity": 93,
      "chip": "ym2612"
    },
    {
      "channel": 3,
      "note": 92,
      "start": 20.3881,
      "duration": 2.0761,
      "velocity": 83,
      "chip": "ym2612"
    },
    {
      "channel": 5,
      "note": 52,
      "start": 20.391,
      "duration": 2.5327,
      "velocity": 89,
      "chip": "ym2612"
    },
    {
      "channel": 4,
      "note": 76,
      "start": 20.7119,
      "duration": 0.3038,
      "velocity": 89,
      "chip": "ym2612"
    },
    {
      "channel": 2,
      "note": 59,
      "start": 20.7139,
      "duration": 1.9,
      "velocity": 89,
      "chip": "ym2612"
    },
    {
      "channel": 4,
      "note": 62,
      "start": 21.0202,
      "duration": 0.3133,
      "velocity": 89,
      "chip": "ym2612"
    },
    {
      "channel": 1,
      "note": 71,
      "start": 21.3465,
      "duration": 0.6268,
      "velocity": 89,
      "chip": "ym2612"
    },
    {
      "channel": 4,
      "note": 64,
      "start": 21.3483,
      "duration": 0.6251,
      "velocity": 89,
      "chip": "ym2612"
    },
    {
      "channel": 1,
      "note": 69,
      "start": 21.9801,
      "duration": 0.9481,
      "velocity": 89,
      "chip": "ym2612"
    },
    {
      "channel": 4,
      "note": 62,
      "start": 21.9819,
      "duration": 0.9464,
      "velocity": 89,
      "chip": "ym2612"
    },
    {
      "channel": 0,
      "note": 81,
      "start": 22.6156,
      "duration": 0.1343,
      "velocity": 93,
      "chip": "ym2612"
    },
    {
      "channel": 3,
      "note": 93,
      "start": 22.6174,
      "duration": 0.1326,
      "velocity": 83,
      "chip": "ym2612"
    },
    {
      "channel": 2,
      "note": 57,
      "start": 22.6208,
      "duration": 0.3026,
      "velocity": 89,
      "chip": "ym2612"
    },
    {
      "channel": 0,
      "note": 81,
      "start": 22.7859,
      "duration": 0.1356,
      "velocity": 93,
      "chip": "ym2612"
    },
    {
      "channel": 3,
      "note": 93,
      "start": 22.7877,
      "duration": 0.1339,
      "velocity": 83,
      "chip": "ym2612"
    },
    {
      "channel": 5,
      "note": 50,
      "start": 22.9437,
      "duration": 2.5337,
      "velocity": 89,
      "chip": "ym2612"
    },
    {
      "channel": 2,
      "note": 54,
      "start": 23.2512,
      "duration": 2.2229,
      "velocity": 89,
      "chip": "ym2612"
    },
    {
      "channel": 4,
      "note": 66,
      "start": 23.5765,
      "duration": 0.3055,
      "velocity": 89,
      "chip": "ym2612"
    },
    {
      "channel": 1,
      "note": 74,
      "start": 23.885,
      "duration": 0.6328,
      "velocity": 89,
      "chip": "ym2612"
    },
    {
      "channel": 4,
      "note": 68,
      "start": 23.8871,
      "duration": 0.6309,
      "velocity": 89,
      "chip": "ym2612"
    },
    {
      "channel": 1,
      "note": 69,
      "start": 24.5376,
      "duration": 0.6302,
      "velocity": 89,
      "chip": "ym2612"
    },
    {
      "channel": 4,
      "note": 66,
      "start": 24.5393,
      "duration": 0.9456,
      "velocity": 89,
      "chip": "ym2612"
    },
    {
      "channel": 1,
      "note": 71,
      "start": 25.1712,
      "duration": 0.308,
      "velocity": 89,
      "chip": "ym2612"
    },
    {
      "channel": 5,
      "note": 52,
      "start": 25.4818,
      "duration": 2.5378,
      "velocity": 89,
      "chip": "ym2612"
    },
    {
      "channel": 4,
      "note": 68,
      "start": 25.807,
      "duration": 0.3039,
      "velocity": 89,
      "chip": "ym2612"
    },
    {
      "channel": 2,
      "note": 59,
      "start": 25.8088,
      "duration": 1.8982,
      "velocity": 89,
      "chip": "ym2612"
    },
    {
      "channel": 4,
      "note": 62,
      "start": 26.115,
      "duration": 0.3136,
      "velocity": 89,
      "chip": "ym2612"
    },
    {
      "channel": 1,
      "note": 76,
      "start": 26.4412,
      "duration": 0.6269,
      "velocity": 89,
      "chip": "ym2612"
    },
    {
      "channel": 4,
      "note": 64,
      "start": 26.443,
      "duration": 0.6252,
      "velocity": 89,
      "chip": "ym2612"
    },
    {
      "channel": 1,
      "note": 69,
      "start": 27.0754,
      "duration": 0.9479,
      "velocity": 89,
      "chip": "ym2612"
    },
    {
      "channel": 4,
      "note": 62,
      "start": 27.0773,
      "duration": 0.9462,
      "velocity": 89,
      "chip": "ym2612"
    },
    {
      "channel": 2,
      "note": 57,
      "start": 27.7112,
      "duration": 0.3125,
      "velocity": 89,
      "chip": "ym2612"
    },
    {
      "channel": 0,
      "note": 81,
      "start": 28.038,
      "duration": 2.5328,
      "velocity": 91,
      "chip": "ym2612"
    },
    {
      "channel": 5,
      "note": 50,
      "start": 28.042,
      "duration": 1.5788,
      "velocity": 89,
      "chip": "ym2612"
    },
    {
      "channel": 3,
      "note": 93,
      "start": 28.156,
      "duration": 2.5354,
      "velocity": 91,
      "chip": "ym2612"
    },
    {
      "channel": 2,
      "note": 54,
      "start": 28.3456,
      "duration": 0.6276,
      "velocity": 89,
      "chip": "ym2612"
    },
    {
      "channel": 1,
      "note": 74,
      "start": 28.6712,
      "duration": 0.6306,
      "velocity": 89,
      "chip": "ym2612"
    },
    {
      "channel": 4,
      "note": 66,
      "start": 28.673,
      "duration": 0.6298,
      "velocity": 89,
      "chip": "ym2612"
    },
    {
      "channel": 2,
      "note": 61,
      "start": 28.9798,
      "duration": 1.5889,
      "velocity": 89,
      "chip": "ym2612"
    },
    {
      "channel": 1,
      "note": 69,
      "start": 29.306,
      "duration": 0.6269,
      "velocity": 89,
      "chip": "ym2612"
    },
    {
      "channel": 4,
      "note": 66,
      "start": 29.3078,
      "duration": 0.6253,
      "velocity": 89,
      "chip": "ym2612"
    },
    {
      "channel": 5,
      "note": 54,
      "start": 29.6328,
      "duration": 0.9401,
      "velocity": 89,
      "chip": "ym2612"
    },
    {
      "channel": 1,
      "note": 68,
      "start": 29.9394,
      "duration": 0.6375,
      "velocity": 89,
      "chip": "ym2612"
    },
    {
      "channel": 4,
      "note": 64,
      "start": 29.9413,
      "duration": 0.3128,
      "velocity": 89,
      "chip": "ym2612"
    },
    {
      "channel": 4,
      "note": 66,
      "start": 30.2661,
      "duration": 0.3109,
      "velocity": 89,
      "chip": "ym2612"
    },
    {
      "channel": 0,
      "note": 81,
      "start": 30.5755,
      "duration": 3.4949,
      "velocity": 99,
      "chip": "ym2612"
    },
    {
      "channel": 5,
      "note": 52,
      "start": 30.5787,
      "duration": 2.5357,
      "velocity": 89,
      "chip": "ym2612"
    },
    {
      "channel": 3,
      "note": 81,
      "start": 30.6948,
      "duration": 3.4959,
      "velocity": 99,
      "chip": "ym2612"
    },
    {
      "channel": 4,
      "note": 64,
      "start": 30.9014,
      "duration": 0.6274,
      "velocity": 89,
      "chip": "ym2612"
    },
    {
      "channel": 2,
      "note": 61,
      "start": 30.9035,
      "duration": 0.6254,
      "velocity": 89,
      "chip": "ym2612"
    },
    {
      "channel": 1,
      "note": 73,
      "start": 31.2089,
      "duration": 1.5888,
      "velocity": 89,
      "chip": "ym2612"
    },
    {
      "channel": 4,
      "note": 64,
      "start": 31.5355,
      "duration": 0.6311,
      "velocity": 89,
      "chip": "ym2612"
    },
    {
      "channel": 2,
      "note": 61,
      "start": 31.5376,
      "duration": 0.6301,
      "velocity": 89,
      "chip": "ym2612"
    },
    {
      "channel": 4,
      "note": 71,
      "start": 32.1715,
      "duration": 0.9465,
      "velocity": 89,
      "chip": "ym2612"
    },
    {
      "channel": 2,
      "note": 62,
      "start": 32.1734,
      "duration": 0.9447,
      "velocity": 89,
      "chip": "ym2612"
    },
    {
      "channel": 1,
      "note": 69,
      "start": 32.8044,
      "duration": 0.3134,
      "velocity": 89,
      "chip": "ym2612"
    },
    {
      "channel": 5,
      "note": 57,
      "start": 33.1325,
      "duration": 2.5356,
      "velocity": 89,
      "chip": "ym2612"
    },
    {
      "channel": 4,
      "note": 64,
      "start": 33.4404,
      "duration": 0.3134,
      "velocity": 89,
      "chip": "ym2612"
    },
    {
      "channel": 2,
      "note": 73,
      "start": 33.4422,
      "duration": 1.9013,
      "velocity": 89,
      "chip": "ym2612"
    },
    {
      "channel": 4,
      "note": 62,
      "start": 33.7654,
      "duration": 0.3073,
      "velocity": 89,
      "chip": "ym2612"
    },
    {
      "channel": 0,
      "note": 76,
      "start": 34.0745,
      "duration": 0.1674,
      "velocity": 99,
      "chip": "ym2612"
    },
    {
      "channel": 1,
      "note": 52,
      "start": 34.0767,
      "duration": 0.6309,
      "velocity": 89,
      "chip": "ym2612"
    },
    {
      "channel": 4,
      "note": 64,
      "start": 34.0785,
      "duration": 0.6291,
      "velocity": 89,
      "chip": "ym2612"
    },
    {
      "channel": 3,
      "note": 76,
      "start": 34.1933,
      "duration": 0.1685,
      "velocity": 99,
      "chip": "ym2612"
    },
    {
      "channel": 0,
      "note": 76,
      "start": 34.2442,
      "duration": 0.1522,
      "velocity": 99,
      "chip": "ym2612"
    },
    {
      "channel": 3,
      "note": 76,
      "start": 34.3647,
      "duration": 0.1519,
      "velocity": 99,
      "chip": "ym2612"
    },
    {
      "channel": 0,
      "note": 76,
      "start": 34.3986,
      "duration": 0.4776,
      "velocity": 99,
      "chip": "ym2612"
    },
    {
      "channel": 3,
      "note": 76,
      "start": 34.5192,
      "duration": 0.4775,
      "velocity": 99,
      "chip": "ym2612"
    },
    {
      "channel": 1,
      "note": 69,
      "start": 34.727,
      "duration": 0.9496,
      "velocity": 89,
      "chip": "ym2612"
    },
    {
      "channel": 4,
      "note": 62,
      "start": 34.7287,
      "duration": 0.948,
      "velocity": 89,
      "chip": "ym2612"
    },
    {
      "channel": 0,
      "note": 74,
      "start": 34.8789,
      "duration": 0.4784,
      "velocity": 99,
      "chip": "ym2612"
    },
    {
      "channel": 3,
      "note": 74,
      "start": 34.9995,
      "duration": 0.478,
      "velocity": 99,
      "chip": "ym2612"
    },
    {
      "channel": 0,
      "note": 73,
      "start": 35.3605,
      "duration": 0.305,
      "velocity": 99,
      "chip": "ym2612"
    },
    {
      "channel": 2,
      "note": 57,
      "start": 35.364,
      "duration": 0.3129,
      "velocity": 89,
      "chip": "ym2612"
    },
    {
      "channel": 3,
      "note": 73,
      "start": 35.4801,
      "duration": 0.3058,
      "velocity": 99,
      "chip": "ym2612"
    },
    {
      "channel": 0,
      "note": 71,
      "start": 35.6696,
      "duration": 3.8217,
      "velocity": 99,
      "chip": "ym2612"
    },
    {
      "channel": 5,
      "note": 50,
      "start": 35.6743,
      "duration": 2.5349,
      "velocity": 89,
      "chip": "ym2612"
    },
    {
      "channel": 3,
      "note": 71,
      "start": 35.7886,
      "duration": 3.8229,
      "velocity": 99,
      "chip": "ym2612"
    },
    {
      "channel": 4,
      "note": 66,
      "start": 35.9964,
      "duration": 0.6273,
      "velocity": 89,
      "chip": "ym2612"
    },
    {
      "channel": 2,
      "note": 54,
      "start": 35.9983,
      "duration": 0.6255,
      "velocity": 89,
      "chip": "ym2612"
    },
    {
      "channel": 1,
      "note": 74,
      "start": 36.304,
      "duration": 1.5885,
      "velocity": 89,
      "chip": "ym2612"
    },
    {
      "channel": 4,
      "note": 64,
      "start": 36.6304,
      "duration": 0.631,
      "velocity": 89,
      "chip": "ym2612"
    },
    {
      "channel": 2,
      "note": 61,
      "start": 36.6323,
      "duration": 0.6303,
      "velocity": 89,
      "chip": "ym2612"
    },
    {
      "channel": 4,
      "note": 71,
      "start": 37.2661,
      "duration": 0.9468,
      "velocity": 89,
      "chip": "ym2612"
    },
    {
      "channel": 2,
      "note": 62,
      "start": 37.268,
      "duration": 0.945,
      "velocity": 89,
      "chip": "ym2612"
    },
    {
      "channel": 1,
      "note": 69,
      "start": 37.8991,
      "duration": 0.3137,
      "velocity": 89,
      "chip": "ym2612"
    },
    {
      "channel": 5,
      "note": 57,
      "start": 38.2282,
      "duration": 2.5349,
      "velocity": 89,
      "chip": "ym2612"
    },
    {
      "channel": 4,
      "note": 64,
      "start": 38.535,
      "duration": 0.3133,
      "velocity": 89,
      "chip": "ym2612"
    },
    {
      "channel": 2,
      "note": 73,
      "start": 38.5371,
      "duration": 1.9016,
      "velocity": 89,
      "chip": "ym2612"
    },
    {
      "channel": 4,
      "note": 62,
      "start": 38.8603,
      "duration": 0.306,
      "velocity": 89,
      "chip": "ym2612"
    },
    {
      "channel": 1,
      "note": 52,
      "start": 39.1691,
      "duration": 0.6333,
      "velocity": 89,
      "chip": "ym2612"
    },
    {
      "channel": 4,
      "note": 64,
      "start": 39.1713,
      "duration": 0.6312,
      "velocity": 89,
      "chip": "ym2612"
    },
    {
      "channel": 0,
      "note": 73,
      "start": 39.4936,
      "duration": 0.4778,
      "velocity": 99,
      "chip": "ym2612"
    },
    {
      "channel": 3,
      "note": 73,
      "start": 39.614,
      "duration": 0.4775,
      "velocity": 99,
      "chip": "ym2612"
    },
    {
      "channel": 1,
      "note": 69,
      "start": 39.8219,
      "duration": 0.9498,
      "velocity": 89,
      "chip": "ym2612"
    },
    {
      "channel": 4,
      "note": 62,
      "start": 39.8236,
      "duration": 0.9482,
      "velocity": 89,
      "chip": "ym2612"
    },
    {
      "channel": 0,
      "note": 69,
      "start": 39.9738,
      "duration": 0.478,
      "velocity": 99,
      "chip": "ym2612"
    },
    {
      "channel": 3,
      "note": 69,
      "start": 40.0943,
      "duration": 0.4783,
      "velocity": 99,
      "chip": "ym2612"
    },
    {
      "channel": 0,
      "note": 68,
      "start": 40.4553,
      "duration": 0.3054,
      "velocity": 99,
      "chip": "ym2612"
    },
    {
      "channel": 2,
      "note": 57,
      "start": 40.4588,
      "duration": 0.3132,
      "velocity": 89,
      "chip": "ym2612"
    },
    {
      "channel": 3,
      "note": 68,
      "start": 40.5752,
      "duration": 0.3057,
      "velocity": 99,
      "chip": "ym2612"
    },
    {
      "channel": 0,
      "note": 66,
      "start": 40.7647,
      "duration": 3.4951,
      "velocity": 99,
      "chip": "ym2612"
    },
    {
      "channel": 5,
      "note": 50,
      "start": 40.7692,
      "duration": 2.5352,
      "velocity": 89,
      "chip": "ym2612"
    },
    {
      "channel": 3,
      "note": 66,
      "start": 40.8834,
      "duration": 3.4968,
      "velocity": 99,
      "chip": "ym2612"
    },
    {
      "channel": 4,
      "note": 66,
      "start": 41.0916,
      "duration": 0.627,
      "velocity": 89,
      "chip": "ym2612"
    },
    {
      "channel": 2,
      "note": 54,
      "start": 41.0934,
      "duration": 0.6253,
      "velocity": 89,
      "chip": "ym2612"
    },
    {
      "channel": 1,
      "note": 74,
      "start": 41.3986,
      "duration": 1.5891,
      "velocity": 89,
      "chip": "ym2612"
    },
    {
      "channel": 4,
      "note": 64,
      "start": 41.7253,
      "duration": 0.6314,
      "velocity": 89,
      "chip": "ym2612"
    },
    {
      "channel": 2,
      "note": 61,
      "start": 41.7272,
      "duration": 0.6305,
      "velocity": 89,
      "chip": "ym2612"
    },
    {
      "channel": 4,
      "note": 71,
      "start": 42.3613,
      "duration": 0.9464,
      "velocity": 89,
      "chip": "ym2612"
    },
    {
      "channel": 2,
      "note": 62,
      "start": 42.3632,
      "duration": 0.9447,
      "velocity": 89,
      "chip": "ym2612"
    },
    {
      "channel": 1,
      "note": 69,
      "start": 42.9939,
      "duration": 0.3137,
      "velocity": 89,
      "chip": "ym2612"
    },
    {
      "channel": 5,
      "note": 57,
      "start": 43.3225,
      "duration": 2.5356,
      "velocity": 89,
      "chip": "ym2612"
    },
    {
      "channel": 4,
      "note": 64,
      "start": 43.6299,
      "duration": 0.3133,
      "velocity": 89,
      "chip": "ym2612"
    },
    {
      "channel": 2,
      "note": 73,
      "start": 43.6317,
      "duration": 1.9016,
      "velocity": 89,
      "chip": "ym2612"
    },
    {
      "channel": 4,
      "note": 62,
      "start": 43.9554,
      "duration": 0.3068,
      "velocity": 89,
      "chip": "ym2612"
    },
    {
      "channel": 0,
      "note": 64,
      "start": 44.264,
      "duration": 0.1676,
      "velocity": 99,
      "chip": "ym2612"
    },
    {
      "channel": 1,
      "note": 52,
      "start": 44.2661,
      "duration": 0.6312,
      "velocity": 89,
      "chip": "ym2612"
    },
    {
      "channel": 4,
      "note": 64,
      "start": 44.2679,
      "duration": 0.6295,
      "velocity": 89,
      "chip": "ym2612"
    },
    {
      "channel": 3,
      "note": 64,
      "start": 44.3829,
      "duration": 0.1686,
      "velocity": 99,
      "chip": "ym2612"
    },
    {
      "channel": 0,
      "note": 64,
      "start": 44.4339,
      "duration": 0.1522,
      "velocity": 99,
      "chip": "ym2612"
    },
    {
      "channel": 3,
      "note": 64,
      "start": 44.5547,
      "duration": 0.1519,
      "velocity": 99,
      "chip": "ym2612"
    },
    {
      "channel": 0,
      "note": 64,
      "start": 44.5885,
      "duration": 0.4774,
      "velocity": 99,
      "chip": "ym2612"
    },
    {
      "channel": 3,
      "note": 64,
      "start": 44.7092,
      "duration": 0.4772,
      "velocity": 99,
      "chip": "ym2612"
    },
    {
      "channel": 1,
      "note": 69,
      "start": 44.9165,
      "duration": 0.9499,
      "velocity": 89,
      "chip": "ym2612"
    },
    {
      "channel": 4,
      "note": 62,
      "start": 44.9182,
      "duration": 0.9483,
      "velocity": 89,
      "chip": "ym2612"
    },
    {
      "channel": 0,
      "note": 62,
      "start": 45.0686,
      "duration": 0.4781,
      "velocity": 99,
      "chip": "ym2612"
    },
    {
      "channel": 3,
      "note": 62,
      "start": 45.1892,
      "duration": 0.478,
      "velocity": 99,
      "chip": "ym2612"
    },
    {
      "channel": 0,
      "note": 61,
      "start": 45.5499,
      "duration": 0.3057,
      "velocity": 99,
      "chip": "ym2612"
    },
    {
      "channel": 2,
      "note": 57,
      "start": 45.5537,
      "duration": 0.3129,
      "velocity": 89,
      "chip": "ym2612"
    },
    {
      "channel": 3,
      "note": 61,
      "start": 45.6698,
      "duration": 0.3058,
      "velocity": 99,
      "chip": "ym2612"
    },
    {
      "channel": 0,
      "note": 59,
      "start": 45.8596,
      "duration": 4.782,
      "velocity": 99,
      "chip": "ym2612"
    },
    {
      "channel": 5,
      "note": 50,
      "start": 45.8641,
      "duration": 2.5349,
      "velocity": 89,
      "chip": "ym2612"
    },
    {
      "channel": 3,
      "note": 59,
      "start": 45.9783,
      "duration": 4.7839,
      "velocity": 99,
      "chip": "ym2612"
    },
    {
      "channel": 4,
      "note": 66,
      "start": 46.1861,
      "duration": 0.6273,
      "velocity": 89,
      "chip": "ym2612"
    },
    {
      "channel": 2,
      "note": 54,
      "start": 46.1883,
      "duration": 0.6253,
      "velocity": 89,
      "chip": "ym2612"
    },
    {
      "channel": 1,
      "note": 74,
      "start": 46.4934,
      "duration": 1.5888,
      "velocity": 89,
      "chip": "ym2612"
    },
    {
      "channel": 4,
      "note": 64,
      "start": 46.8204,
      "duration": 0.6307,
      "velocity": 89,
      "chip": "ym2612"
    },
    {
      "channel": 2,
      "note": 61,
      "start": 46.8222,
      "duration": 0.63,
      "velocity": 89,
      "chip": "ym2612"
    },
    {
      "channel": 4,
      "note": 71,
      "start": 47.4561,
      "duration": 0.9466,
      "velocity": 89,
      "chip": "ym2612"
    },
    {
      "channel": 2,
      "note": 62,
      "start": 47.458,
      "duration": 0.9448,
      "velocity": 89,
      "chip": "ym2612"
    },
    {
      "channel": 1,
      "note": 69,
      "start": 48.0889,
      "duration": 0.3135,
      "velocity": 89,
      "chip": "ym2612"
    },
    {
      "channel": 5,
      "note": 57,
      "start": 48.4177,
      "duration": 2.5346,
      "velocity": 89,
      "chip": "ym2612"
    },
    {
      "channel": 4,
      "note": 64,
      "start": 48.725,
      "duration": 0.3134,
      "velocity": 89,
      "chip": "ym2612"
    },
    {
      "channel": 2,
      "note": 73,
      "start": 48.7268,
      "duration": 1.9013,
      "velocity": 89,
      "chip": "ym2612"
    },
    {
      "channel": 4,
      "note": 62,
      "start": 49.05,
      "duration": 0.3063,
      "velocity": 89,
      "chip": "ym2612"
    },
    {
      "channel": 1,
      "note": 52,
      "start": 49.3591,
      "duration": 0.633,
      "velocity": 89,
      "chip": "ym2612"
    },
    {
      "channel": 4,
      "note": 64,
      "start": 49.361,
      "duration": 0.6313,
      "velocity": 89,
      "chip": "ym2612"
    },
    {
      "channel": 1,
      "note": 69,
      "start": 50.0116,
      "duration": 0.9473,
      "velocity": 89,
      "chip": "ym2612"
    },
    {
      "channel": 4,
      "note": 62,
      "start": 50.0133,
      "duration": 0.9457,
      "velocity": 89,
      "chip": "ym2612"
    },
    {
      "channel": 0,
      "note": 64,
      "start": 50.6448,
      "duration": 0.1511,
      "velocity": 99,
      "chip": "ym2612"
    },
    {
      "channel": 2,
      "note": 57,
      "start": 50.6483,
      "duration": 0.3108,
      "velocity": 89,
      "chip": "ym2612"
    },
    {
      "channel": 3,
      "note": 64,
      "start": 50.7646,
      "duration": 0.1516,
      "velocity": 99,
      "chip": "ym2612"
    },
    {
      "channel": 0,
      "note": 64,
      "start": 50.7982,
      "duration": 0.1517,
      "velocity": 99,
      "chip": "ym2612"
    },
    {
      "channel": 3,
      "note": 64,
      "start": 50.9188,
      "duration": 0.151,
      "velocity": 99,
      "chip": "ym2612"
    },
    {
      "channel": 5,
      "note": 50,
      "start": 50.957,
      "duration": 2.5359,
      "velocity": 89,
      "chip": "ym2612"
    },
    {
      "channel": 4,
      "note": 66,
      "start": 51.2794,
      "duration": 0.628,
      "velocity": 89,
      "chip": "ym2612"
    },
    {
      "channel": 2,
      "note": 54,
      "start": 51.2812,
      "duration": 0.6263,
      "velocity": 89,
      "chip": "ym2612"
    },
    {
      "channel": 1,
      "note": 74,
      "start": 51.5876,
      "duration": 1.5885,
      "velocity": 89,
      "chip": "ym2612"
    },
    {
      "channel": 4,
      "note": 64,
      "start": 51.914,
      "duration": 0.6309,
      "velocity": 89,
      "chip": "ym2612"
    },
    {
      "channel": 2,
      "note": 61,
      "start": 51.9159,
      "duration": 0.6302,
      "velocity": 89,
      "chip": "ym2612"
    },
    {
      "channel": 4,
      "note": 71,
      "start": 52.5489,
      "duration": 0.9477,
      "velocity": 89,
      "chip": "ym2612"
    },
    {
      "channel": 2,
      "note": 62,
      "start": 52.5507,
      "duration": 0.946,
      "velocity": 89,
      "chip": "ym2612"
    },
    {
      "channel": 1,
      "note": 69,
      "start": 53.1827,
      "duration": 0.3137,
      "velocity": 89,
      "chip": "ym2612"
    },
    {
      "channel": 5,
      "note": 57,
      "start": 53.5105,
      "duration": 2.535,
      "velocity": 89,
      "chip": "ym2612"
    },
    {
      "channel": 4,
      "note": 64,
      "start": 53.8181,
      "duration": 0.3139,
      "velocity": 89,
      "chip": "ym2612"
    },
    {
      "channel": 2,
      "note": 73,
      "start": 53.8202,
      "duration": 1.9019,
      "velocity": 89,
      "chip": "ym2612"
    },
    {
      "channel": 4,
      "note": 62,
      "start": 54.144,
      "duration": 0.3059,
      "velocity": 89,
      "chip": "ym2612"
    },
    {
      "channel": 1,
      "note": 52,
      "start": 54.4521,
      "duration": 0.6339,
      "velocity": 89,
      "chip": "ym2612"
    },
    {
      "channel": 4,
      "note": 64,
      "start": 54.4543,
      "duration": 0.6319,
      "velocity": 89,
      "chip": "ym2612"
    },
    {
      "channel": 1,
      "note": 69,
      "start": 55.1044,
      "duration": 0.948,
      "velocity": 89,
      "chip": "ym2612"
    },
    {
      "channel": 4,
      "note": 62,
      "start": 55.1061,
      "duration": 0.9464,
      "velocity": 89,
      "chip": "ym2612"
    },
    {
      "channel": 2,
      "note": 57,
      "start": 55.7401,
      "duration": 0.3126,
      "velocity": 89,
      "chip": "ym2612"
    },
    {
      "channel": 5,
      "note": 50,
      "start": 56.0497,
      "duration": 2.5383,
      "velocity": 89,
      "chip": "ym2612"
    },
    {
      "channel": 4,
      "note": 66,
      "start": 56.3742,
      "duration": 0.628,
      "velocity": 89,
      "chip": "ym2612"
    },
    {
      "channel": 2,
      "note": 54,
      "start": 56.3761,
      "duration": 0.6263,
      "velocity": 89,
      "chip": "ym2612"
    },
    {
      "channel": 1,
      "note": 74,
      "start": 56.6822,
      "duration": 1.5888,
      "velocity": 89,
      "chip": "ym2612"
    },
    {
      "channel": 4,
      "note": 64,
      "start": 57.0089,
      "duration": 0.6312,
      "velocity": 89,
      "chip": "ym2612"
    },
    {
      "channel": 2,
      "note": 61,
      "start": 57.0107,
      "duration": 0.6305,
      "velocity": 89,
      "chip": "ym2612"
    },
    {
      "channel": 4,
      "note": 71,
      "start": 57.6439,
      "duration": 0.9475,
      "velocity": 89,
      "chip": "ym2612"
    },
    {
      "channel": 2,
      "note": 62,
      "start": 57.6458,
      "duration": 0.9458,
      "velocity": 89,
      "chip": "ym2612"
    },
    {
      "channel": 1,
      "note": 69,
      "start": 58.2776,
      "duration": 0.3137,
      "velocity": 89,
      "chip": "ym2612"
    },
    {
      "channel": 5,
      "note": 57,
      "start": 58.6056,
      "duration": 0.9198,
      "velocity": 89,
      "chip": "ym2612"
    },
    {
      "channel": 4,
      "note": 64,
      "start": 58.9129,
      "duration": 0.3139,
      "velocity": 89,
      "chip": "ym2612"
    },
    {
      "channel": 2,
      "note": 73,
      "start": 58.9148,
      "duration": 0.6107,
      "velocity": 89,
      "chip": "ym2612"
    },
    {
      "channel": 4,
      "note": 62,
      "start": 59.2388,
      "duration": 0.2866,
      "velocity": 89,
      "chip": "ym2612"
    }
  ]
}