{
  "track_name": "17 - Suspicious Beauty",
  "duration_sec": 41.808,
  "sample_rate": 44100,
  "note_count": 899,
  "unique_pitches": 34,
  "pitch_range": 47,
  "avg_note_duration": 0.1977,
  "reconstruction_stats": {
    "notes_reconstructed": 899,
    "keyon_events": 899,
    "keyoff_events": 898,
    "orphan_keyons": 1,
    "unique_pitches": 34,
    "pitch_range": 47,
    "avg_duration_sec": 0.1977
  },
  "metadata": {
    "source": "E\\Elemental Master\\17 - Suspicious Beauty.vgz"
  },
  "notes": [
    {
      "channel": 0,
      "note": 54,
      "start": 0.0,
      "duration": 0.0,
      "velocity": 107,
      "chip": "ym2612"
    },
    {
      "channel": 0,
      "note": 66,
      "start": 0.0,
      "duration": 0.0,
      "velocity": 107,
      "chip": "ym2612"
    },
    {
      "channel": 1,
      "note": 54,
      "start": 0.0,
      "duration": 0.0,
      "velocity": 99,
      "chip": "ym2612"
    },
    {
      "channel": 1,
      "note": 54,
      "start": 0.0,
      "duration": 0.0,
      "velocity": 99,
      "chip": "ym2612"
    },
    {
      "channel": 2,
      "note": 66,
      "start": 0.0,
      "duration": 0.0,
      "velocity": 109,
      "chip": "ym2612"
    },
    {
      "channel": 3,
      "note": 64,
      "start": 0.0,
      "duration": 0.0,
      "velocity": 127,
      "chip": "ym2612"
    },
    {
      "channel": 5,
      "note": 42,
      "start": 0.0,
      "duration": 0.0,
      "velocity": 107,
      "chip": "ym2612"
    },
    {
      "channel": 5,
      "note": 61,
      "start": 0.0,
      "duration": 0.0,
      "velocity": 107,
      "chip": "ym2612"
    },
    {
      "channel": 0,
      "note": 59,
      "start": 0.0002,
      "duration": 0.0879,
      "velocity": 97,
      "chip": "ym2612"
    },
    {
      "channel": 0,
      "note": 60,
      "start": 0.131,
      "duration": 0.0819,
      "velocity": 97,
      "chip": "ym2612"
    },
    {
      "channel": 0,
      "note": 63,
      "start": 0.2556,
      "duration": 0.0817,
      "velocity": 97,
      "chip": "ym2612"
    },
    {
      "channel": 4,
      "note": 59,
      "start": 0.2579,
      "duration": 0.0799,
      "velocity": 97,
      "chip": "ym2612"
    },
    {
      "channel": 0,
      "note": 67,
      "start": 0.3802,
      "duration": 0.0817,
      "velocity": 97,
      "chip": "ym2612"
    },
    {
      "channel": 4,
      "note": 60,
      "start": 0.3821,
      "duration": 0.0803,
      "velocity": 97,
      "chip": "ym2612"
    },
    {
      "channel": 0,
      "note": 66,
      "start": 0.5048,
      "duration": 0.7046,
      "velocity": 97,
      "chip": "ym2612"
    },
    {
      "channel": 1,
      "note": 48,
      "start": 0.5067,
      "duration": 0.4536,
      "velocity": 97,
      "chip": "ym2612"
    },
    {
      "channel": 2,
      "note": 87,
      "start": 0.5088,
      "duration": 0.4518,
      "velocity": 87,
      "chip": "ym2612"
    },
    {
      "channel": 3,
      "note": 40,
      "start": 0.5138,
      "duration": 1.9421,
      "velocity": 127,
      "chip": "ym2612"
    },
    {
      "channel": 4,
      "note": 63,
      "start": 0.5154,
      "duration": 0.0715,
      "velocity": 97,
      "chip": "ym2612"
    },
    {
      "channel": 4,
      "note": 67,
      "start": 0.6298,
      "duration": 0.0817,
      "velocity": 97,
      "chip": "ym2612"
    },
    {
      "channel": 4,
      "note": 66,
      "start": 0.7544,
      "duration": 0.7048,
      "velocity": 97,
      "chip": "ym2612"
    },
    {
      "channel": 5,
      "note": 83,
      "start": 0.7565,
      "duration": 0.4535,
      "velocity": 87,
      "chip": "ym2612"
    },
    {
      "channel": 1,
      "note": 55,
      "start": 1.0033,
      "duration": 0.4554,
      "velocity": 97,
      "chip": "ym2612"
    },
    {
      "channel": 2,
      "note": 72,
      "start": 1.0049,
      "duration": 0.454,
      "velocity": 87,
      "chip": "ym2612"
    },
    {
      "channel": 0,
      "note": 63,
      "start": 1.2523,
      "duration": 0.7046,
      "velocity": 97,
      "chip": "ym2612"
    },
    {
      "channel": 5,
      "note": 72,
      "start": 1.2545,
      "duration": 0.4539,
      "velocity": 87,
      "chip": "ym2612"
    },
    {
      "channel": 1,
      "note": 54,
      "start": 1.5016,
      "duration": 0.4556,
      "velocity": 97,
      "chip": "ym2612"
    },
    {
      "channel": 2,
      "note": 79,
      "start": 1.5033,
      "duration": 0.4541,
      "velocity": 87,
      "chip": "ym2612"
    },
    {
      "channel": 4,
      "note": 63,
      "start": 1.5051,
      "duration": 0.7017,
      "velocity": 97,
      "chip": "ym2612"
    },
    {
      "channel": 5,
      "note": 79,
      "start": 1.7514,
      "duration": 0.4556,
      "velocity": 87,
      "chip": "ym2612"
    },
    {
      "channel": 0,
      "note": 62,
      "start": 2.0001,
      "duration": 0.2061,
      "velocity": 97,
      "chip": "ym2612"
    },
    {
      "channel": 1,
      "note": 51,
      "start": 2.0017,
      "duration": 0.4538,
      "velocity": 97,
      "chip": "ym2612"
    },
    {
      "channel": 2,
      "note": 78,
      "start": 2.0034,
      "duration": 0.4523,
      "velocity": 87,
      "chip": "ym2612"
    },
    {
      "channel": 0,
      "note": 60,
      "start": 2.2491,
      "duration": 1.7013,
      "velocity": 97,
      "chip": "ym2612"
    },
    {
      "channel": 4,
      "note": 62,
      "start": 2.251,
      "duration": 0.205,
      "velocity": 97,
      "chip": "ym2612"
    },
    {
      "channel": 5,
      "note": 78,
      "start": 2.2528,
      "duration": 0.4524,
      "velocity": 87,
      "chip": "ym2612"
    },
    {
      "channel": 1,
      "note": 48,
      "start": 2.4984,
      "duration": 0.4555,
      "velocity": 97,
      "chip": "ym2612"
    },
    {
      "channel": 2,
      "note": 75,
      "start": 2.5,
      "duration": 0.454,
      "velocity": 87,
      "chip": "ym2612"
    },
    {
      "channel": 3,
      "note": 40,
      "start": 2.5017,
      "duration": 1.9482,
      "velocity": 127,
      "chip": "ym2612"
    },
    {
      "channel": 4,
      "note": 60,
      "start": 2.5033,
      "duration": 1.697,
      "velocity": 97,
      "chip": "ym2612"
    },
    {
      "channel": 5,
      "note": 75,
      "start": 2.7481,
      "duration": 0.4554,
      "velocity": 87,
      "chip": "ym2612"
    },
    {
      "channel": 1,
      "note": 47,
      "start": 2.9968,
      "duration": 0.4554,
      "velocity": 97,
      "chip": "ym2612"
    },
    {
      "channel": 2,
      "note": 72,
      "start": 2.9984,
      "duration": 0.454,
      "velocity": 87,
      "chip": "ym2612"
    },
    {
      "channel": 5,
      "note": 72,
      "start": 3.2465,
      "duration": 0.4554,
      "velocity": 87,
      "chip": "ym2612"
    },
    {
      "channel": 1,
      "note": 48,
      "start": 3.4951,
      "duration": 0.4556,
      "velocity": 97,
      "chip": "ym2612"
    },
    {
      "channel": 2,
      "note": 71,
      "start": 3.4968,
      "duration": 0.4541,
      "velocity": 87,
      "chip": "ym2612"
    },
    {
      "channel": 5,
      "note": 71,
      "start": 3.7449,
      "duration": 0.4555,
      "velocity": 87,
      "chip": "ym2612"
    },
    {
      "channel": 0,
      "note": 59,
      "start": 3.9937,
      "duration": 0.0814,
      "velocity": 97,
      "chip": "ym2612"
    },
    {
      "channel": 1,
      "note": 50,
      "start": 3.9953,
      "duration": 0.4542,
      "velocity": 97,
      "chip": "ym2612"
    },
    {
      "channel": 2,
      "note": 72,
      "start": 3.997,
      "duration": 0.4527,
      "velocity": 87,
      "chip": "ym2612"
    },
    {
      "channel": 0,
      "note": 60,
      "start": 4.118,
      "duration": 0.0817,
      "velocity": 97,
      "chip": "ym2612"
    },
    {
      "channel": 0,
      "note": 63,
      "start": 4.2427,
      "duration": 0.0816,
      "velocity": 97,
      "chip": "ym2612"
    },
    {
      "channel": 4,
      "note": 59,
      "start": 4.2449,
      "duration": 0.08,
      "velocity": 97,
      "chip": "ym2612"
    },
    {
      "channel": 5,
      "note": 72,
      "start": 4.2466,
      "duration": 0.4521,
      "velocity": 87,
      "chip": "ym2612"
    },
    {
      "channel": 0,
      "note": 67,
      "start": 4.3672,
      "duration": 0.0821,
      "velocity": 97,
      "chip": "ym2612"
    },
    {
      "channel": 4,
      "note": 60,
      "start": 4.3692,
      "duration": 0.081,
      "velocity": 97,
      "chip": "ym2612"
    },
    {
      "channel": 0,
      "note": 66,
      "start": 4.4918,
      "duration": 0.7046,
      "velocity": 97,
      "chip": "ym2612"
    },
    {
      "channel": 1,
      "note": 48,
      "start": 4.4934,
      "duration": 0.4539,
      "velocity": 97,
      "chip": "ym2612"
    },
    {
      "channel": 2,
      "note": 74,
      "start": 4.4951,
      "duration": 0.4525,
      "velocity": 87,
      "chip": "ym2612"
    },
    {
      "channel": 3,
      "note": 40,
      "start": 4.4967,
      "duration": 1.9461,
      "velocity": 127,
      "chip": "ym2612"
    },
    {
      "channel": 4,
      "note": 63,
      "start": 4.4983,
      "duration": 0.0756,
      "velocity": 97,
      "chip": "ym2612"
    },
    {
      "channel": 4,
      "note": 67,
      "start": 4.6168,
      "duration": 0.0817,
      "velocity": 97,
      "chip": "ym2612"
    },
    {
      "channel": 4,
      "note": 66,
      "start": 4.7415,
      "duration": 0.7048,
      "velocity": 97,
      "chip": "ym2612"
    },
    {
      "channel": 5,
      "note": 74,
      "start": 4.7432,
      "duration": 0.4539,
      "velocity": 87,
      "chip": "ym2612"
    },
    {
      "channel": 1,
      "note": 55,
      "start": 4.9903,
      "duration": 0.4555,
      "velocity": 97,
      "chip": "ym2612"
    },
    {
      "channel": 2,
      "note": 72,
      "start": 4.992,
      "duration": 0.4539,
      "velocity": 87,
      "chip": "ym2612"
    },
    {
      "channel": 0,
      "note": 63,
      "start": 5.2394,
      "duration": 0.7046,
      "velocity": 97,
      "chip": "ym2612"
    },
    {
      "channel": 5,
      "note": 72,
      "start": 5.2416,
      "duration": 0.4538,
      "velocity": 87,
      "chip": "ym2612"
    },
    {
      "channel": 1,
      "note": 54,
      "start": 5.4886,
      "duration": 0.4556,
      "velocity": 97,
      "chip": "ym2612"
    },
    {
      "channel": 2,
      "note": 79,
      "start": 5.4904,
      "duration": 0.4541,
      "velocity": 87,
      "chip": "ym2612"
    },
    {
      "channel": 4,
      "note": 63,
      "start": 5.4921,
      "duration": 0.7017,
      "velocity": 97,
      "chip": "ym2612"
    },
    {
      "channel": 5,
      "note": 79,
      "start": 5.7384,
      "duration": 0.4556,
      "velocity": 87,
      "chip": "ym2612"
    },
    {
      "channel": 0,
      "note": 62,
      "start": 5.987,
      "duration": 0.2062,
      "velocity": 97,
      "chip": "ym2612"
    },
    {
      "channel": 1,
      "note": 60,
      "start": 5.9889,
      "duration": 0.4536,
      "velocity": 97,
      "chip": "ym2612"
    },
    {
      "channel": 2,
      "note": 78,
      "start": 5.9909,
      "duration": 0.9502,
      "velocity": 87,
      "chip": "ym2612"
    },
    {
      "channel": 0,
      "note": 60,
      "start": 6.2366,
      "duration": 1.701,
      "velocity": 97,
      "chip": "ym2612"
    },
    {
      "channel": 4,
      "note": 62,
      "start": 6.2385,
      "duration": 0.2046,
      "velocity": 97,
      "chip": "ym2612"
    },
    {
      "channel": 5,
      "note": 78,
      "start": 6.2405,
      "duration": 0.95,
      "velocity": 87,
      "chip": "ym2612"
    },
    {
      "channel": 1,
      "note": 60,
      "start": 6.4855,
      "duration": 0.4554,
      "velocity": 97,
      "chip": "ym2612"
    },
    {
      "channel": 3,
      "note": 40,
      "start": 6.4906,
      "duration": 0.4507,
      "velocity": 127,
      "chip": "ym2612"
    },
    {
      "channel": 4,
      "note": 60,
      "start": 6.4923,
      "duration": 1.695,
      "velocity": 97,
      "chip": "ym2612"
    },
    {
      "channel": 1,
      "note": 55,
      "start": 6.9838,
      "duration": 0.4555,
      "velocity": 97,
      "chip": "ym2612"
    },
    {
      "channel": 2,
      "note": 84,
      "start": 6.9855,
      "duration": 0.4539,
      "velocity": 87,
      "chip": "ym2612"
    },
    {
      "channel": 3,
      "note": 40,
      "start": 6.9872,
      "duration": 0.4525,
      "velocity": 127,
      "chip": "ym2612"
    },
    {
      "channel": 5,
      "note": 84,
      "start": 7.2336,
      "duration": 0.4553,
      "velocity": 87,
      "chip": "ym2612"
    },
    {
      "channel": 1,
      "note": 54,
      "start": 7.4822,
      "duration": 0.4556,
      "velocity": 97,
      "chip": "ym2612"
    },
    {
      "channel": 2,
      "note": 79,
      "start": 7.4839,
      "duration": 0.4542,
      "velocity": 87,
      "chip": "ym2612"
    },
    {
      "channel": 3,
      "note": 40,
      "start": 7.4855,
      "duration": 0.4527,
      "velocity": 127,
      "chip": "ym2612"
    },
    {
      "channel": 5,
      "note": 79,
      "start": 7.7319,
      "duration": 0.4556,
      "velocity": 87,
      "chip": "ym2612"
    },
    {
      "channel": 0,
      "note": 59,
      "start": 7.9807,
      "duration": 0.0814,
      "velocity": 97,
      "chip": "ym2612"
    },
    {
      "channel": 1,
      "note": 55,
      "start": 7.9823,
      "duration": 0.4538,
      "velocity": 97,
      "chip": "ym2612"
    },
    {
      "channel": 2,
      "note": 78,
      "start": 7.9841,
      "duration": 0.4523,
      "velocity": 87,
      "chip": "ym2612"
    },
    {
      "channel": 3,
      "note": 40,
      "start": 7.9857,
      "duration": 0.4508,
      "velocity": 127,
      "chip": "ym2612"
    },
    {
      "channel": 0,
      "note": 60,
      "start": 8.1051,
      "duration": 0.0817,
      "velocity": 97,
      "chip": "ym2612"
    },
    {
      "channel": 0,
      "note": 63,
      "start": 8.2297,
      "duration": 0.0817,
      "velocity": 97,
      "chip": "ym2612"
    },
    {
      "channel": 4,
      "note": 59,
      "start": 8.2319,
      "duration": 0.08,
      "velocity": 97,
      "chip": "ym2612"
    },
    {
      "channel": 5,
      "note": 78,
      "start": 8.2336,
      "duration": 0.4527,
      "velocity": 87,
      "chip": "ym2612"
    },
    {
      "channel": 0,
      "note": 67,
      "start": 8.3542,
      "duration": 0.0817,
      "velocity": 97,
      "chip": "ym2612"
    },
    {
      "channel": 4,
      "note": 60,
      "start": 8.3562,
      "duration": 0.0805,
      "velocity": 97,
      "chip": "ym2612"
    },
    {
      "channel": 0,
      "note": 66,
      "start": 8.4789,
      "duration": 0.7046,
      "velocity": 97,
      "chip": "ym2612"
    },
    {
      "channel": 1,
      "note": 48,
      "start": 8.4808,
      "duration": 0.4536,
      "velocity": 97,
      "chip": "ym2612"
    },
    {
      "channel": 2,
      "note": 79,
      "start": 8.4828,
      "duration": 0.4518,
      "velocity": 87,
      "chip": "ym2612"
    },
    {
      "channel": 3,
      "note": 40,
      "start": 8.4878,
      "duration": 1.9422,
      "velocity": 127,
      "chip": "ym2612"
    },
    {
      "channel": 4,
      "note": 63,
      "start": 8.4895,
      "duration": 0.0715,
      "velocity": 97,
      "chip": "ym2612"
    },
    {
      "channel": 4,
      "note": 67,
      "start": 8.6039,
      "duration": 0.0823,
      "velocity": 97,
      "chip": "ym2612"
    },
    {
      "channel": 4,
      "note": 66,
      "start": 8.7285,
      "duration": 0.7048,
      "velocity": 97,
      "chip": "ym2612"
    },
    {
      "channel": 5,
      "note": 79,
      "start": 8.7305,
      "duration": 0.4537,
      "velocity": 87,
      "chip": "ym2612"
    },
    {
      "channel": 1,
      "note": 55,
      "start": 8.9773,
      "duration": 0.4555,
      "velocity": 97,
      "chip": "ym2612"
    },
    {
      "channel": 2,
      "note": 72,
      "start": 8.979,
      "duration": 0.454,
      "velocity": 87,
      "chip": "ym2612"
    },
    {
      "channel": 0,
      "note": 63,
      "start": 9.2264,
      "duration": 0.7046,
      "velocity": 97,
      "chip": "ym2612"
    },
    {
      "channel": 5,
      "note": 72,
      "start": 9.2285,
      "duration": 0.4539,
      "velocity": 87,
      "chip": "ym2612"
    },
    {
      "channel": 1,
      "note": 54,
      "start": 9.4757,
      "duration": 0.4555,
      "velocity": 97,
      "chip": "ym2612"
    },
    {
      "channel": 2,
      "note": 79,
      "start": 9.4774,
      "duration": 0.4541,
      "velocity": 87,
      "chip": "ym2612"
    },
    {
      "channel": 4,
      "note": 63,
      "start": 9.4791,
      "duration": 0.7017,
      "velocity": 97,
      "chip": "ym2612"
    },
    {
      "channel": 5,
      "note": 79,
      "start": 9.7255,
      "duration": 0.4556,
      "velocity": 87,
      "chip": "ym2612"
    },
    {
      "channel": 0,
      "note": 62,
      "start": 9.9741,
      "duration": 0.2062,
      "velocity": 97,
      "chip": "ym2612"
    },
    {
      "channel": 1,
      "note": 51,
      "start": 9.9757,
      "duration": 0.4539,
      "velocity": 97,
      "chip": "ym2612"
    },
    {
      "channel": 2,
      "note": 78,
      "start": 9.9773,
      "duration": 0.4525,
      "velocity": 87,
      "chip": "ym2612"
    },
    {
      "channel": 0,
      "note": 60,
      "start": 10.2232,
      "duration": 1.7014,
      "velocity": 97,
      "chip": "ym2612"
    },
    {
      "channel": 4,
      "note": 62,
      "start": 10.2252,
      "duration": 0.205,
      "velocity": 97,
      "chip": "ym2612"
    },
    {
      "channel": 5,
      "note": 78,
      "start": 10.2269,
      "duration": 0.4523,
      "velocity": 87,
      "chip": "ym2612"
    },
    {
      "channel": 1,
      "note": 48,
      "start": 10.4731,
      "duration": 0.4549,
      "velocity": 97,
      "chip": "ym2612"
    },
    {
      "channel": 2,
      "note": 75,
      "start": 10.4748,
      "duration": 0.4534,
      "velocity": 87,
      "chip": "ym2612"
    },
    {
      "channel": 3,
      "note": 40,
      "start": 10.4764,
      "duration": 1.9472,
      "velocity": 127,
      "chip": "ym2612"
    },
    {
      "channel": 4,
      "note": 60,
      "start": 10.478,
      "duration": 1.6963,
      "velocity": 97,
      "chip": "ym2612"
    },
    {
      "channel": 5,
      "note": 75,
      "start": 10.7222,
      "duration": 0.4554,
      "velocity": 87,
      "chip": "ym2612"
    },
    {
      "channel": 1,
      "note": 47,
      "start": 10.9708,
      "duration": 0.4555,
      "velocity": 97,
      "chip": "ym2612"
    },
    {
      "channel": 2,
      "note": 72,
      "start": 10.9726,
      "duration": 0.4539,
      "velocity": 87,
      "chip": "ym2612"
    },
    {
      "channel": 5,
      "note": 72,
      "start": 11.2206,
      "duration": 0.4554,
      "velocity": 87,
      "chip": "ym2612"
    },
    {
      "channel": 1,
      "note": 48,
      "start": 11.4693,
      "duration": 0.4555,
      "velocity": 97,
      "chip": "ym2612"
    },
    {
      "channel": 2,
      "note": 71,
      "start": 11.471,
      "duration": 0.4541,
      "velocity": 87,
      "chip": "ym2612"
    },
    {
      "channel": 5,
      "note": 71,
      "start": 11.719,
      "duration": 0.4555,
      "velocity": 87,
      "chip": "ym2612"
    },
    {
      "channel": 0,
      "note": 59,
      "start": 11.9678,
      "duration": 0.0814,
      "velocity": 97,
      "chip": "ym2612"
    },
    {
      "channel": 1,
      "note": 50,
      "start": 11.9694,
      "duration": 0.4537,
      "velocity": 97,
      "chip": "ym2612"
    },
    {
      "channel": 2,
      "note": 72,
      "start": 11.9711,
      "duration": 0.4524,
      "velocity": 87,
      "chip": "ym2612"
    },
    {
      "channel": 0,
      "note": 60,
      "start": 12.0921,
      "duration": 0.0816,
      "velocity": 97,
      "chip": "ym2612"
    },
    {
      "channel": 0,
      "note": 63,
      "start": 12.2167,
      "duration": 0.0817,
      "velocity": 97,
      "chip": "ym2612"
    },
    {
      "channel": 4,
      "note": 59,
      "start": 12.2189,
      "duration": 0.08,
      "velocity": 97,
      "chip": "ym2612"
    },
    {
      "channel": 5,
      "note": 72,
      "start": 12.2206,
      "duration": 0.4522,
      "velocity": 87,
      "chip": "ym2612"
    },
    {
      "channel": 0,
      "note": 67,
      "start": 12.3413,
      "duration": 0.0817,
      "velocity": 97,
      "chip": "ym2612"
    },
    {
      "channel": 4,
      "note": 60,
      "start": 12.3433,
      "duration": 0.0805,
      "velocity": 97,
      "chip": "ym2612"
    },
    {
      "channel": 0,
      "note": 66,
      "start": 12.4659,
      "duration": 0.7046,
      "velocity": 97,
      "chip": "ym2612"
    },
    {
      "channel": 1,
      "note": 48,
      "start": 12.4675,
      "duration": 0.4547,
      "velocity": 97,
      "chip": "ym2612"
    },
    {
      "channel": 2,
      "note": 74,
      "start": 12.4693,
      "duration": 0.4532,
      "velocity": 87,
      "chip": "ym2612"
    },
    {
      "channel": 3,
      "note": 40,
      "start": 12.4708,
      "duration": 1.9461,
      "velocity": 127,
      "chip": "ym2612"
    },
    {
      "channel": 4,
      "note": 63,
      "start": 12.4725,
      "duration": 0.0755,
      "velocity": 97,
      "chip": "ym2612"
    },
    {
      "channel": 4,
      "note": 67,
      "start": 12.5909,
      "duration": 0.0817,
      "velocity": 97,
      "chip": "ym2612"
    },
    {
      "channel": 4,
      "note": 66,
      "start": 12.7156,
      "duration": 0.7048,
      "velocity": 97,
      "chip": "ym2612"
    },
    {
      "channel": 5,
      "note": 74,
      "start": 12.7173,
      "duration": 0.454,
      "velocity": 87,
      "chip": "ym2612"
    },
    {
      "channel": 1,
      "note": 55,
      "start": 12.9644,
      "duration": 0.4554,
      "velocity": 97,
      "chip": "ym2612"
    },
    {
      "channel": 2,
      "note": 72,
      "start": 12.9661,
      "duration": 0.454,
      "velocity": 87,
      "chip": "ym2612"
    },
    {
      "channel": 0,
      "note": 63,
      "start": 13.2134,
      "duration": 0.7046,
      "velocity": 97,
      "chip": "ym2612"
    },
    {
      "channel": 5,
      "note": 72,
      "start": 13.2156,
      "duration": 0.4539,
      "velocity": 87,
      "chip": "ym2612"
    },
    {
      "channel": 1,
      "note": 54,
      "start": 13.4627,
      "duration": 0.4556,
      "velocity": 97,
      "chip": "ym2612"
    },
    {
      "channel": 2,
      "note": 79,
      "start": 13.4644,
      "duration": 0.4541,
      "velocity": 87,
      "chip": "ym2612"
    },
    {
      "channel": 4,
      "note": 63,
      "start": 13.4661,
      "duration": 0.7018,
      "velocity": 97,
      "chip": "ym2612"
    },
    {
      "channel": 5,
      "note": 79,
      "start": 13.7125,
      "duration": 0.4557,
      "velocity": 87,
      "chip": "ym2612"
    },
    {
      "channel": 0,
      "note": 62,
      "start": 13.9611,
      "duration": 0.2062,
      "velocity": 97,
      "chip": "ym2612"
    },
    {
      "channel": 1,
      "note": 51,
      "start": 13.963,
      "duration": 0.4536,
      "velocity": 97,
      "chip": "ym2612"
    },
    {
      "channel": 2,
      "note": 78,
      "start": 13.965,
      "duration": 0.2027,
      "velocity": 87,
      "chip": "ym2612"
    },
    {
      "channel": 0,
      "note": 60,
      "start": 14.2103,
      "duration": 3.1966,
      "velocity": 97,
      "chip": "ym2612"
    },
    {
      "channel": 2,
      "note": 75,
      "start": 14.2121,
      "duration": 3.1951,
      "velocity": 87,
      "chip": "ym2612"
    },
    {
      "channel": 4,
      "note": 62,
      "start": 14.2138,
      "duration": 0.2034,
      "velocity": 97,
      "chip": "ym2612"
    },
    {
      "channel": 5,
      "note": 78,
      "start": 14.2158,
      "duration": 0.2015,
      "velocity": 87,
      "chip": "ym2612"
    },
    {
      "channel": 1,
      "note": 48,
      "start": 14.461,
      "duration": 2.9461,
      "velocity": 97,
      "chip": "ym2612"
    },
    {
      "channel": 3,
      "note": 40,
      "start": 14.4631,
      "duration": 0.2029,
      "velocity": 127,
      "chip": "ym2612"
    },
    {
      "channel": 4,
      "note": 60,
      "start": 14.4648,
      "duration": 2.9429,
      "velocity": 97,
      "chip": "ym2612"
    },
    {
      "channel": 5,
      "note": 75,
      "start": 14.4665,
      "duration": 2.9413,
      "velocity": 87,
      "chip": "ym2612"
    },
    {
      "channel": 3,
      "note": 40,
      "start": 14.7097,
      "duration": 0.0809,
      "velocity": 127,
      "chip": "ym2612"
    },
    {
      "channel": 3,
      "note": 40,
      "start": 14.8338,
      "duration": 0.206,
      "velocity": 127,
      "chip": "ym2612"
    },
    {
      "channel": 3,
      "note": 40,
      "start": 15.0828,
      "duration": 0.0817,
      "velocity": 127,
      "chip": "ym2612"
    },
    {
      "channel": 3,
      "note": 40,
      "start": 15.2076,
      "duration": 0.206,
      "velocity": 127,
      "chip": "ym2612"
    },
    {
      "channel": 3,
      "note": 40,
      "start": 15.4565,
      "duration": 0.0817,
      "velocity": 127,
      "chip": "ym2612"
    },
    {
      "channel": 3,
      "note": 40,
      "start": 15.5814,
      "duration": 0.206,
      "velocity": 127,
      "chip": "ym2612"
    },
    {
      "channel": 3,
      "note": 40,
      "start": 15.8307,
      "duration": 0.0813,
      "velocity": 127,
      "chip": "ym2612"
    },
    {
      "channel": 3,
      "note": 40,
      "start": 15.9552,
      "duration": 0.206,
      "velocity": 127,
      "chip": "ym2612"
    },
    {
      "channel": 3,
      "note": 40,
      "start": 16.2056,
      "duration": 0.0802,
      "velocity": 127,
      "chip": "ym2612"
    },
    {
      "channel": 3,
      "note": 40,
      "start": 16.329,
      "duration": 0.206,
      "velocity": 127,
      "chip": "ym2612"
    },
    {
      "channel": 3,
      "note": 40,
      "start": 16.5779,
      "duration": 0.0817,
      "velocity": 127,
      "chip": "ym2612"
    },
    {
      "channel": 3,
      "note": 40,
      "start": 16.7027,
      "duration": 0.2061,
      "velocity": 127,
      "chip": "ym2612"
    },
    {
      "channel": 3,
      "note": 40,
      "start": 16.9517,
      "duration": 0.0816,
      "velocity": 127,
      "chip": "ym2612"
    },
    {
      "channel": 3,
      "note": 40,
      "start": 17.0765,
      "duration": 0.2061,
      "velocity": 127,
      "chip": "ym2612"
    },
    {
      "channel": 3,
      "note": 40,
      "start": 17.3255,
      "duration": 0.082,
      "velocity": 127,
      "chip": "ym2612"
    },
    {
      "channel": 0,
      "note": 60,
      "start": 17.4534,
      "duration": 0.0364,
      "velocity": 113,
      "chip": "ym2612"
    },
    {
      "channel": 1,
      "note": 60,
      "start": 17.4587,
      "duration": 0.3427,
      "velocity": 101,
      "chip": "ym2612"
    },
    {
      "channel": 2,
      "note": 55,
      "start": 17.4641,
      "duration": 0.0261,
      "velocity": 113,
      "chip": "ym2612"
    },
    {
      "channel": 3,
      "note": 64,
      "start": 17.4701,
      "duration": 0.0208,
      "velocity": 127,
      "chip": "ym2612"
    },
    {
      "channel": 4,
      "note": 60,
      "start": 17.4757,
      "duration": 0.0155,
      "velocity": 120,
      "chip": "ym2612"
    },
    {
      "channel": 5,
      "note": 55,
      "start": 17.4815,
      "duration": 0.0099,
      "velocity": 120,
      "chip": "ym2612"
    },
    {
      "channel": 0,
      "note": 60,
      "start": 17.5952,
      "duration": 0.0196,
      "velocity": 113,
      "chip": "ym2612"
    },
    {
      "channel": 2,
      "note": 55,
      "start": 17.5971,
      "duration": 0.0179,
      "velocity": 113,
      "chip": "ym2612"
    },
    {
      "channel": 3,
      "note": 64,
      "start": 17.6023,
      "duration": 0.0135,
      "velocity": 127,
      "chip": "ym2612"
    },
    {
      "channel": 4,
      "note": 60,
      "start": 17.604,
      "duration": 0.012,
      "velocity": 120,
      "chip": "ym2612"
    },
    {
      "channel": 5,
      "note": 55,
      "start": 17.6058,
      "duration": 0.0104,
      "velocity": 120,
      "chip": "ym2612"
    },
    {
      "channel": 0,
      "note": 60,
      "start": 17.7206,
      "duration": 0.0185,
      "velocity": 113,
      "chip": "ym2612"
    },
    {
      "channel": 2,
      "note": 55,
      "start": 17.7224,
      "duration": 0.0169,
      "velocity": 113,
      "chip": "ym2612"
    },
    {
      "channel": 3,
      "note": 64,
      "start": 17.7245,
      "duration": 0.0156,
      "velocity": 127,
      "chip": "ym2612"
    },
    {
      "channel": 4,
      "note": 60,
      "start": 17.7263,
      "duration": 0.014,
      "velocity": 120,
      "chip": "ym2612"
    },
    {
      "channel": 5,
      "note": 55,
      "start": 17.728,
      "duration": 0.0125,
      "velocity": 120,
      "chip": "ym2612"
    },
    {
      "channel": 0,
      "note": 72,
      "start": 17.8444,
      "duration": 0.3309,
      "velocity": 113,
      "chip": "ym2612"
    },
    {
      "channel": 1,
      "note": 59,
      "start": 17.846,
      "duration": 0.3294,
      "velocity": 101,
      "chip": "ym2612"
    },
    {
      "channel": 2,
      "note": 67,
      "start": 17.8478,
      "duration": 0.3279,
      "velocity": 113,
      "chip": "ym2612"
    },
    {
      "channel": 3,
      "note": 64,
      "start": 17.8531,
      "duration": 0.0114,
      "velocity": 127,
      "chip": "ym2612"
    },
    {
      "channel": 4,
      "note": 72,
      "start": 17.8549,
      "duration": 0.3216,
      "velocity": 120,
      "chip": "ym2612"
    },
    {
      "channel": 5,
      "note": 67,
      "start": 17.8566,
      "duration": 0.32,
      "velocity": 120,
      "chip": "ym2612"
    },
    {
      "channel": 0,
      "note": 60,
      "start": 18.2182,
      "duration": 0.0192,
      "velocity": 113,
      "chip": "ym2612"
    },
    {
      "channel": 1,
      "note": 58,
      "start": 18.2198,
      "duration": 0.3292,
      "velocity": 101,
      "chip": "ym2612"
    },
    {
      "channel": 2,
      "note": 55,
      "start": 18.2216,
      "duration": 0.0162,
      "velocity": 113,
      "chip": "ym2612"
    },
    {
      "channel": 3,
      "note": 64,
      "start": 18.2271,
      "duration": 0.0115,
      "velocity": 127,
      "chip": "ym2612"
    },
    {
      "channel": 4,
      "note": 60,
      "start": 18.2288,
      "duration": 0.0099,
      "velocity": 120,
      "chip": "ym2612"
    },
    {
      "channel": 5,
      "note": 55,
      "start": 18.2306,
      "duration": 0.0083,
      "velocity": 120,
      "chip": "ym2612"
    },
    {
      "channel": 0,
      "note": 60,
      "start": 18.3428,
      "duration": 0.0193,
      "velocity": 113,
      "chip": "ym2612"
    },
    {
      "channel": 2,
      "note": 55,
      "start": 18.3447,
      "duration": 0.0176,
      "velocity": 113,
      "chip": "ym2612"
    },
    {
      "channel": 3,
      "note": 64,
      "start": 18.3499,
      "duration": 0.0132,
      "velocity": 127,
      "chip": "ym2612"
    },
    {
      "channel": 4,
      "note": 60,
      "start": 18.3516,
      "duration": 0.0117,
      "velocity": 120,
      "chip": "ym2612"
    },
    {
      "channel": 5,
      "note": 55,
      "start": 18.3534,
      "duration": 0.01,
      "velocity": 120,
      "chip": "ym2612"
    },
    {
      "channel": 0,
      "note": 60,
      "start": 18.4674,
      "duration": 0.0192,
      "velocity": 113,
      "chip": "ym2612"
    },
    {
      "channel": 2,
      "note": 55,
      "start": 18.4693,
      "duration": 0.0177,
      "velocity": 113,
      "chip": "ym2612"
    },
    {
      "channel": 3,
      "note": 64,
      "start": 18.4713,
      "duration": 0.0164,
      "velocity": 127,
      "chip": "ym2612"
    },
    {
      "channel": 4,
      "note": 60,
      "start": 18.4731,
      "duration": 0.0148,
      "velocity": 120,
      "chip": "ym2612"
    },
    {
      "channel": 5,
      "note": 55,
      "start": 18.4748,
      "duration": 0.0132,
      "velocity": 120,
      "chip": "ym2612"
    },
    {
      "channel": 0,
      "note": 75,
      "start": 18.592,
      "duration": 0.3307,
      "velocity": 113,
      "chip": "ym2612"
    },
    {
      "channel": 1,
      "note": 59,
      "start": 18.5936,
      "duration": 0.3293,
      "velocity": 101,
      "chip": "ym2612"
    },
    {
      "channel": 2,
      "note": 71,
      "start": 18.5953,
      "duration": 0.3278,
      "velocity": 113,
      "chip": "ym2612"
    },
    {
      "channel": 3,
      "note": 64,
      "start": 18.6007,
      "duration": 0.0114,
      "velocity": 127,
      "chip": "ym2612"
    },
    {
      "channel": 4,
      "note": 75,
      "start": 18.6024,
      "duration": 0.3214,
      "velocity": 120,
      "chip": "ym2612"
    },
    {
      "channel": 5,
      "note": 71,
      "start": 18.6042,
      "duration": 0.3198,
      "velocity": 120,
      "chip": "ym2612"
    },
    {
      "channel": 0,
      "note": 60,
      "start": 18.9658,
      "duration": 0.0192,
      "velocity": 113,
      "chip": "ym2612"
    },
    {
      "channel": 1,
      "note": 60,
      "start": 18.9674,
      "duration": 0.3292,
      "velocity": 101,
      "chip": "ym2612"
    },
    {
      "channel": 2,
      "note": 55,
      "start": 18.9691,
      "duration": 0.0162,
      "velocity": 113,
      "chip": "ym2612"
    },
    {
      "channel": 3,
      "note": 64,
      "start": 18.9746,
      "duration": 0.0115,
      "velocity": 127,
      "chip": "ym2612"
    },
    {
      "channel": 4,
      "note": 60,
      "start": 18.9764,
      "duration": 0.0099,
      "velocity": 120,
      "chip": "ym2612"
    },
    {
      "channel": 5,
      "note": 55,
      "start": 18.9781,
      "duration": 0.0083,
      "velocity": 120,
      "chip": "ym2612"
    },
    {
      "channel": 0,
      "note": 60,
      "start": 19.0904,
      "duration": 0.0191,
      "velocity": 113,
      "chip": "ym2612"
    },
    {
      "channel": 2,
      "note": 55,
      "start": 19.0923,
      "duration": 0.0176,
      "velocity": 113,
      "chip": "ym2612"
    },
    {
      "channel": 3,
      "note": 64,
      "start": 19.0975,
      "duration": 0.0132,
      "velocity": 127,
      "chip": "ym2612"
    },
    {
      "channel": 4,
      "note": 60,
      "start": 19.0993,
      "duration": 0.0116,
      "velocity": 120,
      "chip": "ym2612"
    },
    {
      "channel": 5,
      "note": 55,
      "start": 19.101,
      "duration": 0.01,
      "velocity": 120,
      "chip": "ym2612"
    },
    {
      "channel": 0,
      "note": 60,
      "start": 19.215,
      "duration": 0.0192,
      "velocity": 113,
      "chip": "ym2612"
    },
    {
      "channel": 2,
      "note": 55,
      "start": 19.2168,
      "duration": 0.0177,
      "velocity": 113,
      "chip": "ym2612"
    },
    {
      "channel": 3,
      "note": 64,
      "start": 19.2189,
      "duration": 0.0163,
      "velocity": 127,
      "chip": "ym2612"
    },
    {
      "channel": 4,
      "note": 60,
      "start": 19.2206,
      "duration": 0.0148,
      "velocity": 120,
      "chip": "ym2612"
    },
    {
      "channel": 5,
      "note": 55,
      "start": 19.2224,
      "duration": 0.0132,
      "velocity": 120,
      "chip": "ym2612"
    },
    {
      "channel": 0,
      "note": 78,
      "start": 19.3395,
      "duration": 0.3307,
      "velocity": 113,
      "chip": "ym2612"
    },
    {
      "channel": 1,
      "note": 59,
      "start": 19.3412,
      "duration": 0.3293,
      "velocity": 101,
      "chip": "ym2612"
    },
    {
      "channel": 2,
      "note": 72,
      "start": 19.343,
      "duration": 0.3277,
      "velocity": 113,
      "chip": "ym2612"
    },
    {
      "channel": 3,
      "note": 64,
      "start": 19.3483,
      "duration": 0.0114,
      "velocity": 127,
      "chip": "ym2612"
    },
    {
      "channel": 4,
      "note": 78,
      "start": 19.35,
      "duration": 0.3214,
      "velocity": 120,
      "chip": "ym2612"
    },
    {
      "channel": 5,
      "note": 72,
      "start": 19.3518,
      "duration": 0.3198,
      "velocity": 120,
      "chip": "ym2612"
    },
    {
      "channel": 0,
      "note": 79,
      "start": 19.7134,
      "duration": 0.3306,
      "velocity": 113,
      "chip": "ym2612"
    },
    {
      "channel": 1,
      "note": 55,
      "start": 19.7154,
      "duration": 0.3288,
      "velocity": 101,
      "chip": "ym2612"
    },
    {
      "channel": 2,
      "note": 75,
      "start": 19.7173,
      "duration": 0.3272,
      "velocity": 113,
      "chip": "ym2612"
    },
    {
      "channel": 3,
      "note": 64,
      "start": 19.7195,
      "duration": 0.0139,
      "velocity": 127,
      "chip": "ym2612"
    },
    {
      "channel": 4,
      "note": 79,
      "start": 19.7214,
      "duration": 0.3238,
      "velocity": 120,
      "chip": "ym2612"
    },
    {
      "channel": 5,
      "note": 75,
      "start": 19.7234,
      "duration": 0.3221,
      "velocity": 120,
      "chip": "ym2612"
    },
    {
      "channel": 3,
      "note": 64,
      "start": 19.8418,
      "duration": 0.0162,
      "velocity": 127,
      "chip": "ym2612"
    },
    {
      "channel": 3,
      "note": 64,
      "start": 19.9664,
      "duration": 0.0162,
      "velocity": 127,
      "chip": "ym2612"
    },
    {
      "channel": 0,
      "note": 71,
      "start": 20.087,
      "duration": 0.3309,
      "velocity": 113,
      "chip": "ym2612"
    },
    {
      "channel": 1,
      "note": 59,
      "start": 20.0886,
      "duration": 0.3295,
      "velocity": 101,
      "chip": "ym2612"
    },
    {
      "channel": 2,
      "note": 67,
      "start": 20.0902,
      "duration": 0.328,
      "velocity": 113,
      "chip": "ym2612"
    },
    {
      "channel": 3,
      "note": 64,
      "start": 20.0954,
      "duration": 0.0118,
      "velocity": 127,
      "chip": "ym2612"
    },
    {
      "channel": 4,
      "note": 71,
      "start": 20.0971,
      "duration": 0.3219,
      "velocity": 120,
      "chip": "ym2612"
    },
    {
      "channel": 5,
      "note": 67,
      "start": 20.0987,
      "duration": 0.3205,
      "velocity": 120,
      "chip": "ym2612"
    },
    {
      "channel": 3,
      "note": 64,
      "start": 20.2124,
      "duration": 0.0194,
      "velocity": 127,
      "chip": "ym2612"
    },
    {
      "channel": 3,
      "note": 64,
      "start": 20.3369,
      "duration": 0.0195,
      "velocity": 127,
      "chip": "ym2612"
    },
    {
      "channel": 0,
      "note": 60,
      "start": 20.4612,
      "duration": 0.019,
      "velocity": 113,
      "chip": "ym2612"
    },
    {
      "channel": 1,
      "note": 60,
      "start": 20.4631,
      "duration": 0.3286,
      "velocity": 101,
      "chip": "ym2612"
    },
    {
      "channel": 2,
      "note": 55,
      "start": 20.4652,
      "duration": 0.0153,
      "velocity": 113,
      "chip": "ym2612"
    },
    {
      "channel": 3,
      "note": 64,
      "start": 20.4709,
      "duration": 0.0103,
      "velocity": 127,
      "chip": "ym2612"
    },
    {
      "channel": 4,
      "note": 60,
      "start": 20.473,
      "duration": 0.0084,
      "velocity": 120,
      "chip": "ym2612"
    },
    {
      "channel": 5,
      "note": 55,
      "start": 20.4751,
      "duration": 0.0065,
      "velocity": 120,
      "chip": "ym2612"
    },
    {
      "channel": 0,
      "note": 60,
      "start": 20.5855,
      "duration": 0.0192,
      "velocity": 113,
      "chip": "ym2612"
    },
    {
      "channel": 2,
      "note": 55,
      "start": 20.5874,
      "duration": 0.0177,
      "velocity": 113,
      "chip": "ym2612"
    },
    {
      "channel": 3,
      "note": 64,
      "start": 20.5927,
      "duration": 0.0131,
      "velocity": 127,
      "chip": "ym2612"
    },
    {
      "channel": 4,
      "note": 60,
      "start": 20.5944,
      "duration": 0.0116,
      "velocity": 120,
      "chip": "ym2612"
    },
    {
      "channel": 5,
      "note": 55,
      "start": 20.5961,
      "duration": 0.01,
      "velocity": 120,
      "chip": "ym2612"
    },
    {
      "channel": 0,
      "note": 60,
      "start": 20.7101,
      "duration": 0.02,
      "velocity": 113,
      "chip": "ym2612"
    },
    {
      "channel": 2,
      "note": 55,
      "start": 20.712,
      "duration": 0.0184,
      "velocity": 113,
      "chip": "ym2612"
    },
    {
      "channel": 3,
      "note": 64,
      "start": 20.714,
      "duration": 0.0172,
      "velocity": 127,
      "chip": "ym2612"
    },
    {
      "channel": 4,
      "note": 60,
      "start": 20.7157,
      "duration": 0.0156,
      "velocity": 120,
      "chip": "ym2612"
    },
    {
      "channel": 5,
      "note": 55,
      "start": 20.7175,
      "duration": 0.0141,
      "velocity": 120,
      "chip": "ym2612"
    },
    {
      "channel": 0,
      "note": 72,
      "start": 20.8347,
      "duration": 0.3307,
      "velocity": 113,
      "chip": "ym2612"
    },
    {
      "channel": 1,
      "note": 59,
      "start": 20.8363,
      "duration": 0.3293,
      "velocity": 101,
      "chip": "ym2612"
    },
    {
      "channel": 2,
      "note": 67,
      "start": 20.8381,
      "duration": 0.3277,
      "velocity": 113,
      "chip": "ym2612"
    },
    {
      "channel": 3,
      "note": 64,
      "start": 20.8434,
      "duration": 0.0114,
      "velocity": 127,
      "chip": "ym2612"
    },
    {
      "channel": 4,
      "note": 72,
      "start": 20.8451,
      "duration": 0.3215,
      "velocity": 120,
      "chip": "ym2612"
    },
    {
      "channel": 5,
      "note": 67,
      "start": 20.8469,
      "duration": 0.3198,
      "velocity": 120,
      "chip": "ym2612"
    },
    {
      "channel": 0,
      "note": 60,
      "start": 21.2085,
      "duration": 0.0192,
      "velocity": 113,
      "chip": "ym2612"
    },
    {
      "channel": 1,
      "note": 58,
      "start": 21.2101,
      "duration": 0.3292,
      "velocity": 101,
      "chip": "ym2612"
    },
    {
      "channel": 2,
      "note": 55,
      "start": 21.2119,
      "duration": 0.0162,
      "velocity": 113,
      "chip": "ym2612"
    },
    {
      "channel": 3,
      "note": 64,
      "start": 21.2173,
      "duration": 0.0115,
      "velocity": 127,
      "chip": "ym2612"
    },
    {
      "channel": 4,
      "note": 60,
      "start": 21.219,
      "duration": 0.0099,
      "velocity": 120,
      "chip": "ym2612"
    },
    {
      "channel": 5,
      "note": 55,
      "start": 21.2208,
      "duration": 0.0083,
      "velocity": 120,
      "chip": "ym2612"
    },
    {
      "channel": 0,
      "note": 60,
      "start": 21.3331,
      "duration": 0.0192,
      "velocity": 113,
      "chip": "ym2612"
    },
    {
      "channel": 2,
      "note": 55,
      "start": 21.3349,
      "duration": 0.0176,
      "velocity": 113,
      "chip": "ym2612"
    },
    {
      "channel": 3,
      "note": 64,
      "start": 21.3402,
      "duration": 0.0131,
      "velocity": 127,
      "chip": "ym2612"
    },
    {
      "channel": 4,
      "note": 60,
      "start": 21.342,
      "duration": 0.0116,
      "velocity": 120,
      "chip": "ym2612"
    },
    {
      "channel": 5,
      "note": 55,
      "start": 21.3437,
      "duration": 0.01,
      "velocity": 120,
      "chip": "ym2612"
    },
    {
      "channel": 0,
      "note": 60,
      "start": 21.4577,
      "duration": 0.0191,
      "velocity": 113,
      "chip": "ym2612"
    },
    {
      "channel": 2,
      "note": 55,
      "start": 21.4596,
      "duration": 0.0176,
      "velocity": 113,
      "chip": "ym2612"
    },
    {
      "channel": 3,
      "note": 64,
      "start": 21.4616,
      "duration": 0.0163,
      "velocity": 127,
      "chip": "ym2612"
    },
    {
      "channel": 4,
      "note": 60,
      "start": 21.4634,
      "duration": 0.0148,
      "velocity": 120,
      "chip": "ym2612"
    },
    {
      "channel": 5,
      "note": 55,
      "start": 21.4652,
      "duration": 0.0132,
      "velocity": 120,
      "chip": "ym2612"
    },
    {
      "channel": 0,
      "note": 75,
      "start": 21.5823,
      "duration": 0.3307,
      "velocity": 113,
      "chip": "ym2612"
    },
    {
      "channel": 1,
      "note": 59,
      "start": 21.5839,
      "duration": 0.3293,
      "velocity": 101,
      "chip": "ym2612"
    },
    {
      "channel": 2,
      "note": 71,
      "start": 21.5856,
      "duration": 0.3277,
      "velocity": 113,
      "chip": "ym2612"
    },
    {
      "channel": 3,
      "note": 64,
      "start": 21.5909,
      "duration": 0.0114,
      "velocity": 127,
      "chip": "ym2612"
    },
    {
      "channel": 4,
      "note": 75,
      "start": 21.5927,
      "duration": 0.3214,
      "velocity": 120,
      "chip": "ym2612"
    },
    {
      "channel": 5,
      "note": 71,
      "start": 21.5945,
      "duration": 0.3199,
      "velocity": 120,
      "chip": "ym2612"
    },
    {
      "channel": 0,
      "note": 60,
      "start": 21.9561,
      "duration": 0.0192,
      "velocity": 113,
      "chip": "ym2612"
    },
    {
      "channel": 1,
      "note": 60,
      "start": 21.9577,
      "duration": 0.3292,
      "velocity": 101,
      "chip": "ym2612"
    },
    {
      "channel": 2,
      "note": 55,
      "start": 21.9595,
      "duration": 0.0161,
      "velocity": 113,
      "chip": "ym2612"
    },
    {
      "channel": 3,
      "note": 64,
      "start": 21.9649,
      "duration": 0.0115,
      "velocity": 127,
      "chip": "ym2612"
    },
    {
      "channel": 4,
      "note": 60,
      "start": 21.9666,
      "duration": 0.0099,
      "velocity": 120,
      "chip": "ym2612"
    },
    {
      "channel": 5,
      "note": 55,
      "start": 21.9684,
      "duration": 0.0083,
      "velocity": 120,
      "chip": "ym2612"
    },
    {
      "channel": 0,
      "note": 60,
      "start": 22.0807,
      "duration": 0.0192,
      "velocity": 113,
      "chip": "ym2612"
    },
    {
      "channel": 2,
      "note": 55,
      "start": 22.0825,
      "duration": 0.0176,
      "velocity": 113,
      "chip": "ym2612"
    },
    {
      "channel": 3,
      "note": 64,
      "start": 22.0878,
      "duration": 0.0132,
      "velocity": 127,
      "chip": "ym2612"
    },
    {
      "channel": 4,
      "note": 60,
      "start": 22.0895,
      "duration": 0.0116,
      "velocity": 120,
      "chip": "ym2612"
    },
    {
      "channel": 5,
      "note": 55,
      "start": 22.0913,
      "duration": 0.01,
      "velocity": 120,
      "chip": "ym2612"
    },
    {
      "channel": 0,
      "note": 60,
      "start": 22.2052,
      "duration": 0.0192,
      "velocity": 113,
      "chip": "ym2612"
    },
    {
      "channel": 2,
      "note": 55,
      "start": 22.2072,
      "duration": 0.0176,
      "velocity": 113,
      "chip": "ym2612"
    },
    {
      "channel": 3,
      "note": 64,
      "start": 22.2092,
      "duration": 0.0163,
      "velocity": 127,
      "chip": "ym2612"
    },
    {
      "channel": 4,
      "note": 60,
      "start": 22.211,
      "duration": 0.0148,
      "velocity": 120,
      "chip": "ym2612"
    },
    {
      "channel": 5,
      "note": 55,
      "start": 22.2127,
      "duration": 0.0132,
      "velocity": 120,
      "chip": "ym2612"
    },
    {
      "channel": 0,
      "note": 78,
      "start": 22.3299,
      "duration": 0.3307,
      "velocity": 113,
      "chip": "ym2612"
    },
    {
      "channel": 1,
      "note": 59,
      "start": 22.3315,
      "duration": 0.3293,
      "velocity": 101,
      "chip": "ym2612"
    },
    {
      "channel": 2,
      "note": 72,
      "start": 22.3332,
      "duration": 0.3277,
      "velocity": 113,
      "chip": "ym2612"
    },
    {
      "channel": 3,
      "note": 64,
      "start": 22.3385,
      "duration": 0.0114,
      "velocity": 127,
      "chip": "ym2612"
    },
    {
      "channel": 4,
      "note": 78,
      "start": 22.3403,
      "duration": 0.3214,
      "velocity": 120,
      "chip": "ym2612"
    },
    {
      "channel": 5,
      "note": 72,
      "start": 22.3421,
      "duration": 0.3198,
      "velocity": 120,
      "chip": "ym2612"
    },
    {
      "channel": 0,
      "note": 82,
      "start": 22.7038,
      "duration": 0.3305,
      "velocity": 113,
      "chip": "ym2612"
    },
    {
      "channel": 1,
      "note": 70,
      "start": 22.7061,
      "duration": 0.3285,
      "velocity": 101,
      "chip": "ym2612"
    },
    {
      "channel": 2,
      "note": 75,
      "start": 22.708,
      "duration": 0.3268,
      "velocity": 113,
      "chip": "ym2612"
    },
    {
      "channel": 3,
      "note": 64,
      "start": 22.7102,
      "duration": 0.0136,
      "velocity": 127,
      "chip": "ym2612"
    },
    {
      "channel": 4,
      "note": 82,
      "start": 22.7121,
      "duration": 0.3234,
      "velocity": 120,
      "chip": "ym2612"
    },
    {
      "channel": 5,
      "note": 75,
      "start": 22.714,
      "duration": 0.3217,
      "velocity": 120,
      "chip": "ym2612"
    },
    {
      "channel": 3,
      "note": 64,
      "start": 22.8336,
      "duration": 0.0152,
      "velocity": 127,
      "chip": "ym2612"
    },
    {
      "channel": 3,
      "note": 64,
      "start": 22.9582,
      "duration": 0.0153,
      "velocity": 127,
      "chip": "ym2612"
    },
    {
      "channel": 0,
      "note": 81,
      "start": 23.0778,
      "duration": 0.3303,
      "velocity": 113,
      "chip": "ym2612"
    },
    {
      "channel": 1,
      "note": 69,
      "start": 23.0798,
      "duration": 0.3286,
      "velocity": 101,
      "chip": "ym2612"
    },
    {
      "channel": 2,
      "note": 74,
      "start": 23.0814,
      "duration": 0.3272,
      "velocity": 113,
      "chip": "ym2612"
    },
    {
      "channel": 3,
      "note": 64,
      "start": 23.0866,
      "duration": 0.0109,
      "velocity": 127,
      "chip": "ym2612"
    },
    {
      "channel": 4,
      "note": 81,
      "start": 23.0883,
      "duration": 0.3211,
      "velocity": 120,
      "chip": "ym2612"
    },
    {
      "channel": 5,
      "note": 74,
      "start": 23.0898,
      "duration": 0.3197,
      "velocity": 120,
      "chip": "ym2612"
    },
    {
      "channel": 3,
      "note": 64,
      "start": 23.2042,
      "duration": 0.0183,
      "velocity": 127,
      "chip": "ym2612"
    },
    {
      "channel": 3,
      "note": 64,
      "start": 23.3288,
      "duration": 0.0183,
      "velocity": 127,
      "chip": "ym2612"
    },
    {
      "channel": 0,
      "note": 60,
      "start": 23.4515,
      "duration": 0.019,
      "velocity": 113,
      "chip": "ym2612"
    },
    {
      "channel": 1,
      "note": 60,
      "start": 23.4538,
      "duration": 0.3282,
      "velocity": 101,
      "chip": "ym2612"
    },
    {
      "channel": 2,
      "note": 55,
      "start": 23.4558,
      "duration": 0.0149,
      "velocity": 113,
      "chip": "ym2612"
    },
    {
      "channel": 3,
      "note": 64,
      "start": 23.4615,
      "duration": 0.0099,
      "velocity": 127,
      "chip": "ym2612"
    },
    {
      "channel": 4,
      "note": 60,
      "start": 23.4637,
      "duration": 0.008,
      "velocity": 120,
      "chip": "ym2612"
    },
    {
      "channel": 5,
      "note": 55,
      "start": 23.4657,
      "duration": 0.0062,
      "velocity": 120,
      "chip": "ym2612"
    },
    {
      "channel": 0,
      "note": 60,
      "start": 23.5758,
      "duration": 0.0192,
      "velocity": 113,
      "chip": "ym2612"
    },
    {
      "channel": 2,
      "note": 55,
      "start": 23.5777,
      "duration": 0.0176,
      "velocity": 113,
      "chip": "ym2612"
    },
    {
      "channel": 3,
      "note": 64,
      "start": 23.5829,
      "duration": 0.0132,
      "velocity": 127,
      "chip": "ym2612"
    },
    {
      "channel": 4,
      "note": 60,
      "start": 23.5846,
      "duration": 0.0117,
      "velocity": 120,
      "chip": "ym2612"
    },
    {
      "channel": 5,
      "note": 55,
      "start": 23.5864,
      "duration": 0.01,
      "velocity": 120,
      "chip": "ym2612"
    },
    {
      "channel": 0,
      "note": 60,
      "start": 23.7004,
      "duration": 0.0192,
      "velocity": 113,
      "chip": "ym2612"
    },
    {
      "channel": 2,
      "note": 55,
      "start": 23.7023,
      "duration": 0.0177,
      "velocity": 113,
      "chip": "ym2612"
    },
    {
      "channel": 3,
      "note": 64,
      "start": 23.7043,
      "duration": 0.0163,
      "velocity": 127,
      "chip": "ym2612"
    },
    {
      "channel": 4,
      "note": 60,
      "start": 23.7061,
      "duration": 0.0148,
      "velocity": 120,
      "chip": "ym2612"
    },
    {
      "channel": 5,
      "note": 55,
      "start": 23.7078,
      "duration": 0.0133,
      "velocity": 120,
      "chip": "ym2612"
    },
    {
      "channel": 0,
      "note": 72,
      "start": 23.825,
      "duration": 0.3307,
      "velocity": 113,
      "chip": "ym2612"
    },
    {
      "channel": 1,
      "note": 59,
      "start": 23.8267,
      "duration": 0.3293,
      "velocity": 101,
      "chip": "ym2612"
    },
    {
      "channel": 2,
      "note": 67,
      "start": 23.8284,
      "duration": 0.3277,
      "velocity": 113,
      "chip": "ym2612"
    },
    {
      "channel": 3,
      "note": 64,
      "start": 23.8337,
      "duration": 0.0114,
      "velocity": 127,
      "chip": "ym2612"
    },
    {
      "channel": 4,
      "note": 72,
      "start": 23.8355,
      "duration": 0.3214,
      "velocity": 120,
      "chip": "ym2612"
    },
    {
      "channel": 5,
      "note": 67,
      "start": 23.8372,
      "duration": 0.3199,
      "velocity": 120,
      "chip": "ym2612"
    },
    {
      "channel": 0,
      "note": 60,
      "start": 24.199,
      "duration": 0.019,
      "velocity": 113,
      "chip": "ym2612"
    },
    {
      "channel": 1,
      "note": 58,
      "start": 24.2007,
      "duration": 0.329,
      "velocity": 101,
      "chip": "ym2612"
    },
    {
      "channel": 2,
      "note": 55,
      "start": 24.2024,
      "duration": 0.0158,
      "velocity": 113,
      "chip": "ym2612"
    },
    {
      "channel": 3,
      "note": 64,
      "start": 24.2078,
      "duration": 0.0112,
      "velocity": 127,
      "chip": "ym2612"
    },
    {
      "channel": 4,
      "note": 60,
      "start": 24.2096,
      "duration": 0.0096,
      "velocity": 120,
      "chip": "ym2612"
    },
    {
      "channel": 5,
      "note": 55,
      "start": 24.2114,
      "duration": 0.008,
      "velocity": 120,
      "chip": "ym2612"
    },
    {
      "channel": 0,
      "note": 60,
      "start": 24.3234,
      "duration": 0.0192,
      "velocity": 113,
      "chip": "ym2612"
    },
    {
      "channel": 2,
      "note": 55,
      "start": 24.3253,
      "duration": 0.0176,
      "velocity": 113,
      "chip": "ym2612"
    },
    {
      "channel": 3,
      "note": 64,
      "start": 24.3305,
      "duration": 0.0132,
      "velocity": 127,
      "chip": "ym2612"
    },
    {
      "channel": 4,
      "note": 60,
      "start": 24.3323,
      "duration": 0.0116,
      "velocity": 120,
      "chip": "ym2612"
    },
    {
      "channel": 5,
      "note": 55,
      "start": 24.3341,
      "duration": 0.01,
      "velocity": 120,
      "chip": "ym2612"
    },
    {
      "channel": 0,
      "note": 60,
      "start": 24.4479,
      "duration": 0.0193,
      "velocity": 113,
      "chip": "ym2612"
    },
    {
      "channel": 2,
      "note": 55,
      "start": 24.4498,
      "duration": 0.0177,
      "velocity": 113,
      "chip": "ym2612"
    },
    {
      "channel": 3,
      "note": 64,
      "start": 24.4519,
      "duration": 0.0163,
      "velocity": 127,
      "chip": "ym2612"
    },
    {
      "channel": 4,
      "note": 60,
      "start": 24.4537,
      "duration": 0.0148,
      "velocity": 120,
      "chip": "ym2612"
    },
    {
      "channel": 5,
      "note": 55,
      "start": 24.4554,
      "duration": 0.0132,
      "velocity": 120,
      "chip": "ym2612"
    },
    {
      "channel": 0,
      "note": 75,
      "start": 24.5725,
      "duration": 0.3307,
      "velocity": 113,
      "chip": "ym2612"
    },
    {
      "channel": 1,
      "note": 59,
      "start": 24.5742,
      "duration": 0.3293,
      "velocity": 101,
      "chip": "ym2612"
    },
    {
      "channel": 2,
      "note": 71,
      "start": 24.576,
      "duration": 0.3277,
      "velocity": 113,
      "chip": "ym2612"
    },
    {
      "channel": 3,
      "note": 64,
      "start": 24.5813,
      "duration": 0.0114,
      "velocity": 127,
      "chip": "ym2612"
    },
    {
      "channel": 4,
      "note": 75,
      "start": 24.583,
      "duration": 0.3214,
      "velocity": 120,
      "chip": "ym2612"
    },
    {
      "channel": 5,
      "note": 71,
      "start": 24.5848,
      "duration": 0.3198,
      "velocity": 120,
      "chip": "ym2612"
    },
    {
      "channel": 0,
      "note": 60,
      "start": 24.9463,
      "duration": 0.0192,
      "velocity": 113,
      "chip": "ym2612"
    },
    {
      "channel": 1,
      "note": 60,
      "start": 24.948,
      "duration": 0.3292,
      "velocity": 101,
      "chip": "ym2612"
    },
    {
      "channel": 2,
      "note": 55,
      "start": 24.9498,
      "duration": 0.0161,
      "velocity": 113,
      "chip": "ym2612"
    },
    {
      "channel": 3,
      "note": 64,
      "start": 24.9552,
      "duration": 0.0115,
      "velocity": 127,
      "chip": "ym2612"
    },
    {
      "channel": 4,
      "note": 60,
      "start": 24.957,
      "duration": 0.0098,
      "velocity": 120,
      "chip": "ym2612"
    },
    {
      "channel": 5,
      "note": 55,
      "start": 24.9588,
      "duration": 0.0082,
      "velocity": 120,
      "chip": "ym2612"
    },
    {
      "channel": 0,
      "note": 60,
      "start": 25.071,
      "duration": 0.0192,
      "velocity": 113,
      "chip": "ym2612"
    },
    {
      "channel": 2,
      "note": 55,
      "start": 25.0729,
      "duration": 0.0176,
      "velocity": 113,
      "chip": "ym2612"
    },
    {
      "channel": 3,
      "note": 64,
      "start": 25.0781,
      "duration": 0.0132,
      "velocity": 127,
      "chip": "ym2612"
    },
    {
      "channel": 4,
      "note": 60,
      "start": 25.0799,
      "duration": 0.0116,
      "velocity": 120,
      "chip": "ym2612"
    },
    {
      "channel": 5,
      "note": 55,
      "start": 25.0817,
      "duration": 0.01,
      "velocity": 120,
      "chip": "ym2612"
    },
    {
      "channel": 0,
      "note": 60,
      "start": 25.1955,
      "duration": 0.0192,
      "velocity": 113,
      "chip": "ym2612"
    },
    {
      "channel": 2,
      "note": 55,
      "start": 25.1974,
      "duration": 0.0176,
      "velocity": 113,
      "chip": "ym2612"
    },
    {
      "channel": 3,
      "note": 64,
      "start": 25.1995,
      "duration": 0.0163,
      "velocity": 127,
      "chip": "ym2612"
    },
    {
      "channel": 4,
      "note": 60,
      "start": 25.2012,
      "duration": 0.0147,
      "velocity": 120,
      "chip": "ym2612"
    },
    {
      "channel": 5,
      "note": 55,
      "start": 25.203,
      "duration": 0.0132,
      "velocity": 120,
      "chip": "ym2612"
    },
    {
      "channel": 0,
      "note": 78,
      "start": 25.3201,
      "duration": 0.3307,
      "velocity": 113,
      "chip": "ym2612"
    },
    {
      "channel": 1,
      "note": 59,
      "start": 25.3218,
      "duration": 0.3293,
      "velocity": 101,
      "chip": "ym2612"
    },
    {
      "channel": 2,
      "note": 72,
      "start": 25.3236,
      "duration": 0.3277,
      "velocity": 113,
      "chip": "ym2612"
    },
    {
      "channel": 3,
      "note": 64,
      "start": 25.3288,
      "duration": 0.0114,
      "velocity": 127,
      "chip": "ym2612"
    },
    {
      "channel": 4,
      "note": 78,
      "start": 25.3306,
      "duration": 0.3214,
      "velocity": 120,
      "chip": "ym2612"
    },
    {
      "channel": 5,
      "note": 72,
      "start": 25.3324,
      "duration": 0.3198,
      "velocity": 120,
      "chip": "ym2612"
    },
    {
      "channel": 0,
      "note": 79,
      "start": 25.6941,
      "duration": 0.3306,
      "velocity": 113,
      "chip": "ym2612"
    },
    {
      "channel": 1,
      "note": 55,
      "start": 25.696,
      "duration": 0.3288,
      "velocity": 101,
      "chip": "ym2612"
    },
    {
      "channel": 2,
      "note": 75,
      "start": 25.6979,
      "duration": 0.3271,
      "velocity": 113,
      "chip": "ym2612"
    },
    {
      "channel": 3,
      "note": 64,
      "start": 25.7002,
      "duration": 0.0139,
      "velocity": 127,
      "chip": "ym2612"
    },
    {
      "channel": 4,
      "note": 79,
      "start": 25.7021,
      "duration": 0.3237,
      "velocity": 120,
      "chip": "ym2612"
    },
    {
      "channel": 5,
      "note": 75,
      "start": 25.704,
      "duration": 0.322,
      "velocity": 120,
      "chip": "ym2612"
    },
    {
      "channel": 3,
      "note": 64,
      "start": 25.8223,
      "duration": 0.0163,
      "velocity": 127,
      "chip": "ym2612"
    },
    {
      "channel": 3,
      "note": 64,
      "start": 25.9469,
      "duration": 0.0163,
      "velocity": 127,
      "chip": "ym2612"
    },
    {
      "channel": 0,
      "note": 71,
      "start": 26.0675,
      "duration": 0.3309,
      "velocity": 113,
      "chip": "ym2612"
    },
    {
      "channel": 1,
      "note": 59,
      "start": 26.0692,
      "duration": 0.3295,
      "velocity": 101,
      "chip": "ym2612"
    },
    {
      "channel": 2,
      "note": 67,
      "start": 26.0708,
      "duration": 0.328,
      "velocity": 113,
      "chip": "ym2612"
    },
    {
      "channel": 3,
      "note": 64,
      "start": 26.0761,
      "duration": 0.0125,
      "velocity": 127,
      "chip": "ym2612"
    },
    {
      "channel": 4,
      "note": 71,
      "start": 26.0777,
      "duration": 0.3219,
      "velocity": 120,
      "chip": "ym2612"
    },
    {
      "channel": 5,
      "note": 67,
      "start": 26.0793,
      "duration": 0.3205,
      "velocity": 120,
      "chip": "ym2612"
    },
    {
      "channel": 3,
      "note": 64,
      "start": 26.193,
      "duration": 0.0194,
      "velocity": 127,
      "chip": "ym2612"
    },
    {
      "channel": 3,
      "note": 64,
      "start": 26.3175,
      "duration": 0.0195,
      "velocity": 127,
      "chip": "ym2612"
    },
    {
      "channel": 0,
      "note": 60,
      "start": 26.4418,
      "duration": 0.0189,
      "velocity": 113,
      "chip": "ym2612"
    },
    {
      "channel": 1,
      "note": 60,
      "start": 26.4438,
      "duration": 0.3285,
      "velocity": 101,
      "chip": "ym2612"
    },
    {
      "channel": 2,
      "note": 55,
      "start": 26.4458,
      "duration": 0.0152,
      "velocity": 113,
      "chip": "ym2612"
    },
    {
      "channel": 3,
      "note": 64,
      "start": 26.4516,
      "duration": 0.0102,
      "velocity": 127,
      "chip": "ym2612"
    },
    {
      "channel": 4,
      "note": 60,
      "start": 26.4536,
      "duration": 0.0084,
      "velocity": 120,
      "chip": "ym2612"
    },
    {
      "channel": 5,
      "note": 55,
      "start": 26.4556,
      "duration": 0.0066,
      "velocity": 120,
      "chip": "ym2612"
    },
    {
      "channel": 0,
      "note": 60,
      "start": 26.5661,
      "duration": 0.0193,
      "velocity": 113,
      "chip": "ym2612"
    },
    {
      "channel": 2,
      "note": 55,
      "start": 26.568,
      "duration": 0.0177,
      "velocity": 113,
      "chip": "ym2612"
    },
    {
      "channel": 3,
      "note": 64,
      "start": 26.5732,
      "duration": 0.0132,
      "velocity": 127,
      "chip": "ym2612"
    },
    {
      "channel": 4,
      "note": 60,
      "start": 26.575,
      "duration": 0.0116,
      "velocity": 120,
      "chip": "ym2612"
    },
    {
      "channel": 5,
      "note": 55,
      "start": 26.5768,
      "duration": 0.01,
      "velocity": 120,
      "chip": "ym2612"
    },
    {
      "channel": 0,
      "note": 60,
      "start": 26.6907,
      "duration": 0.0192,
      "velocity": 113,
      "chip": "ym2612"
    },
    {
      "channel": 2,
      "note": 55,
      "start": 26.6926,
      "duration": 0.0176,
      "velocity": 113,
      "chip": "ym2612"
    },
    {
      "channel": 3,
      "note": 64,
      "start": 26.6946,
      "duration": 0.0163,
      "velocity": 127,
      "chip": "ym2612"
    },
    {
      "channel": 4,
      "note": 60,
      "start": 26.6963,
      "duration": 0.0148,
      "velocity": 120,
      "chip": "ym2612"
    },
    {
      "channel": 5,
      "note": 55,
      "start": 26.6981,
      "duration": 0.0132,
      "velocity": 120,
      "chip": "ym2612"
    },
    {
      "channel": 0,
      "note": 72,
      "start": 26.8153,
      "duration": 0.3307,
      "velocity": 113,
      "chip": "ym2612"
    },
    {
      "channel": 1,
      "note": 59,
      "start": 26.817,
      "duration": 0.3293,
      "velocity": 101,
      "chip": "ym2612"
    },
    {
      "channel": 2,
      "note": 67,
      "start": 26.8187,
      "duration": 0.3277,
      "velocity": 113,
      "chip": "ym2612"
    },
    {
      "channel": 3,
      "note": 64,
      "start": 26.824,
      "duration": 0.0114,
      "velocity": 127,
      "chip": "ym2612"
    },
    {
      "channel": 4,
      "note": 72,
      "start": 26.8257,
      "duration": 0.3214,
      "velocity": 120,
      "chip": "ym2612"
    },
    {
      "channel": 5,
      "note": 67,
      "start": 26.8275,
      "duration": 0.3199,
      "velocity": 120,
      "chip": "ym2612"
    },
    {
      "channel": 0,
      "note": 60,
      "start": 27.1891,
      "duration": 0.0195,
      "velocity": 113,
      "chip": "ym2612"
    },
    {
      "channel": 1,
      "note": 58,
      "start": 27.1907,
      "duration": 0.3291,
      "velocity": 101,
      "chip": "ym2612"
    },
    {
      "channel": 2,
      "note": 55,
      "start": 27.1925,
      "duration": 0.0164,
      "velocity": 113,
      "chip": "ym2612"
    },
    {
      "channel": 3,
      "note": 64,
      "start": 27.1979,
      "duration": 0.0117,
      "velocity": 127,
      "chip": "ym2612"
    },
    {
      "channel": 4,
      "note": 60,
      "start": 27.1997,
      "duration": 0.0101,
      "velocity": 120,
      "chip": "ym2612"
    },
    {
      "channel": 5,
      "note": 55,
      "start": 27.2015,
      "duration": 0.0086,
      "velocity": 120,
      "chip": "ym2612"
    },
    {
      "channel": 0,
      "note": 60,
      "start": 27.3144,
      "duration": 0.0185,
      "velocity": 113,
      "chip": "ym2612"
    },
    {
      "channel": 2,
      "note": 55,
      "start": 27.3163,
      "duration": 0.0168,
      "velocity": 113,
      "chip": "ym2612"
    },
    {
      "channel": 3,
      "note": 64,
      "start": 27.3215,
      "duration": 0.0124,
      "velocity": 127,
      "chip": "ym2612"
    },
    {
      "channel": 4,
      "note": 60,
      "start": 27.3232,
      "duration": 0.0109,
      "velocity": 120,
      "chip": "ym2612"
    },
    {
      "channel": 5,
      "note": 55,
      "start": 27.3251,
      "duration": 0.0092,
      "velocity": 120,
      "chip": "ym2612"
    },
    {
      "channel": 0,
      "note": 60,
      "start": 27.4383,
      "duration": 0.0192,
      "velocity": 113,
      "chip": "ym2612"
    },
    {
      "channel": 2,
      "note": 55,
      "start": 27.4402,
      "duration": 0.0176,
      "velocity": 113,
      "chip": "ym2612"
    },
    {
      "channel": 3,
      "note": 64,
      "start": 27.4422,
      "duration": 0.0163,
      "velocity": 127,
      "chip": "ym2612"
    },
    {
      "channel": 4,
      "note": 60,
      "start": 27.4439,
      "duration": 0.0148,
      "velocity": 120,
      "chip": "ym2612"
    },
    {
      "channel": 5,
      "note": 55,
      "start": 27.4457,
      "duration": 0.0132,
      "velocity": 120,
      "chip": "ym2612"
    },
    {
      "channel": 0,
      "note": 75,
      "start": 27.5628,
      "duration": 0.3307,
      "velocity": 113,
      "chip": "ym2612"
    },
    {
      "channel": 1,
      "note": 59,
      "start": 27.5645,
      "duration": 0.3293,
      "velocity": 101,
      "chip": "ym2612"
    },
    {
      "channel": 2,
      "note": 71,
      "start": 27.5663,
      "duration": 0.3277,
      "velocity": 113,
      "chip": "ym2612"
    },
    {
      "channel": 3,
      "note": 64,
      "start": 27.5715,
      "duration": 0.0114,
      "velocity": 127,
      "chip": "ym2612"
    },
    {
      "channel": 4,
      "note": 75,
      "start": 27.5733,
      "duration": 0.3214,
      "velocity": 120,
      "chip": "ym2612"
    },
    {
      "channel": 5,
      "note": 71,
      "start": 27.5751,
      "duration": 0.3198,
      "velocity": 120,
      "chip": "ym2612"
    },
    {
      "channel": 0,
      "note": 72,
      "start": 27.9367,
      "duration": 0.7048,
      "velocity": 113,
      "chip": "ym2612"
    },
    {
      "channel": 1,
      "note": 60,
      "start": 27.9384,
      "duration": 0.7038,
      "velocity": 101,
      "chip": "ym2612"
    },
    {
      "channel": 2,
      "note": 67,
      "start": 27.9403,
      "duration": 0.7025,
      "velocity": 113,
      "chip": "ym2612"
    },
    {
      "channel": 3,
      "note": 64,
      "start": 27.9425,
      "duration": 0.0143,
      "velocity": 127,
      "chip": "ym2612"
    },
    {
      "channel": 4,
      "note": 72,
      "start": 27.9444,
      "duration": 0.6996,
      "velocity": 120,
      "chip": "ym2612"
    },
    {
      "channel": 5,
      "note": 67,
      "start": 27.9462,
      "duration": 0.6985,
      "velocity": 120,
      "chip": "ym2612"
    },
    {
      "channel": 3,
      "note": 64,
      "start": 28.1897,
      "duration": 0.0163,
      "velocity": 127,
      "chip": "ym2612"
    },
    {
      "channel": 3,
      "note": 64,
      "start": 28.4374,
      "duration": 0.019,
      "velocity": 127,
      "chip": "ym2612"
    },
    {
      "channel": 0,
      "note": 70,
      "start": 28.6845,
      "duration": 0.0812,
      "velocity": 113,
      "chip": "ym2612"
    },
    {
      "channel": 1,
      "note": 58,
      "start": 28.6866,
      "duration": 0.0793,
      "velocity": 101,
      "chip": "ym2612"
    },
    {
      "channel": 2,
      "note": 65,
      "start": 28.6887,
      "duration": 0.0775,
      "velocity": 113,
      "chip": "ym2612"
    },
    {
      "channel": 3,
      "note": 73,
      "start": 28.6942,
      "duration": 0.01,
      "velocity": 127,
      "chip": "ym2612"
    },
    {
      "channel": 4,
      "note": 70,
      "start": 28.6963,
      "duration": 0.0708,
      "velocity": 120,
      "chip": "ym2612"
    },
    {
      "channel": 5,
      "note": 65,
      "start": 28.6984,
      "duration": 0.0689,
      "velocity": 120,
      "chip": "ym2612"
    },
    {
      "channel": 3,
      "note": 73,
      "start": 28.7472,
      "duration": 0.0197,
      "velocity": 127,
      "chip": "ym2612"
    },
    {
      "channel": 0,
      "note": 58,
      "start": 28.8088,
      "duration": 0.0193,
      "velocity": 113,
      "chip": "ym2612"
    },
    {
      "channel": 1,
      "note": 58,
      "start": 28.8104,
      "duration": 0.0801,
      "velocity": 101,
      "chip": "ym2612"
    },
    {
      "channel": 2,
      "note": 53,
      "start": 28.8121,
      "duration": 0.0163,
      "velocity": 113,
      "chip": "ym2612"
    },
    {
      "channel": 3,
      "note": 73,
      "start": 28.8141,
      "duration": 0.0149,
      "velocity": 127,
      "chip": "ym2612"
    },
    {
      "channel": 4,
      "note": 58,
      "start": 28.8158,
      "duration": 0.0135,
      "velocity": 120,
      "chip": "ym2612"
    },
    {
      "channel": 5,
      "note": 53,
      "start": 28.8175,
      "duration": 0.012,
      "velocity": 120,
      "chip": "ym2612"
    },
    {
      "channel": 0,
      "note": 58,
      "start": 28.9333,
      "duration": 0.0193,
      "velocity": 113,
      "chip": "ym2612"
    },
    {
      "channel": 1,
      "note": 58,
      "start": 28.9349,
      "duration": 0.0801,
      "velocity": 101,
      "chip": "ym2612"
    },
    {
      "channel": 2,
      "note": 53,
      "start": 28.9366,
      "duration": 0.0164,
      "velocity": 113,
      "chip": "ym2612"
    },
    {
      "channel": 3,
      "note": 73,
      "start": 28.9386,
      "duration": 0.0151,
      "velocity": 127,
      "chip": "ym2612"
    },
    {
      "channel": 4,
      "note": 58,
      "start": 28.9403,
      "duration": 0.0136,
      "velocity": 120,
      "chip": "ym2612"
    },
    {
      "channel": 5,
      "note": 53,
      "start": 28.942,
      "duration": 0.0122,
      "velocity": 120,
      "chip": "ym2612"
    },
    {
      "channel": 0,
      "note": 71,
      "start": 29.0579,
      "duration": 0.0816,
      "velocity": 113,
      "chip": "ym2612"
    },
    {
      "channel": 1,
      "note": 59,
      "start": 29.0596,
      "duration": 0.0801,
      "velocity": 101,
      "chip": "ym2612"
    },
    {
      "channel": 2,
      "note": 66,
      "start": 29.0613,
      "duration": 0.0787,
      "velocity": 113,
      "chip": "ym2612"
    },
    {
      "channel": 3,
      "note": 64,
      "start": 29.0636,
      "duration": 0.0145,
      "velocity": 127,
      "chip": "ym2612"
    },
    {
      "channel": 4,
      "note": 71,
      "start": 29.0653,
      "duration": 0.0756,
      "velocity": 120,
      "chip": "ym2612"
    },
    {
      "channel": 5,
      "note": 66,
      "start": 29.067,
      "duration": 0.0742,
      "velocity": 120,
      "chip": "ym2612"
    },
    {
      "channel": 3,
      "note": 64,
      "start": 29.1209,
      "duration": 0.0198,
      "velocity": 127,
      "chip": "ym2612"
    },
    {
      "channel": 0,
      "note": 59,
      "start": 29.1825,
      "duration": 0.0193,
      "velocity": 113,
      "chip": "ym2612"
    },
    {
      "channel": 1,
      "note": 59,
      "start": 29.1842,
      "duration": 0.08,
      "velocity": 101,
      "chip": "ym2612"
    },
    {
      "channel": 2,
      "note": 54,
      "start": 29.1859,
      "duration": 0.0163,
      "velocity": 113,
      "chip": "ym2612"
    },
    {
      "channel": 3,
      "note": 64,
      "start": 29.1879,
      "duration": 0.015,
      "velocity": 127,
      "chip": "ym2612"
    },
    {
      "channel": 4,
      "note": 59,
      "start": 29.1896,
      "duration": 0.0135,
      "velocity": 120,
      "chip": "ym2612"
    },
    {
      "channel": 5,
      "note": 54,
      "start": 29.1913,
      "duration": 0.012,
      "velocity": 120,
      "chip": "ym2612"
    },
    {
      "channel": 0,
      "note": 59,
      "start": 29.3071,
      "duration": 0.0193,
      "velocity": 113,
      "chip": "ym2612"
    },
    {
      "channel": 1,
      "note": 59,
      "start": 29.3088,
      "duration": 0.0801,
      "velocity": 101,
      "chip": "ym2612"
    },
    {
      "channel": 2,
      "note": 54,
      "start": 29.3103,
      "duration": 0.0164,
      "velocity": 113,
      "chip": "ym2612"
    },
    {
      "channel": 3,
      "note": 64,
      "start": 29.3124,
      "duration": 0.0151,
      "velocity": 127,
      "chip": "ym2612"
    },
    {
      "channel": 4,
      "note": 59,
      "start": 29.3141,
      "duration": 0.0136,
      "velocity": 120,
      "chip": "ym2612"
    },
    {
      "channel": 5,
      "note": 54,
      "start": 29.3157,
      "duration": 0.0122,
      "velocity": 120,
      "chip": "ym2612"
    },
    {
      "channel": 0,
      "note": 72,
      "start": 29.4355,
      "duration": 2.5905,
      "velocity": 93,
      "chip": "ym2612"
    },
    {
      "channel": 1,
      "note": 60,
      "start": 29.4376,
      "duration": 0.0966,
      "velocity": 101,
      "chip": "ym2612"
    },
    {
      "channel": 2,
      "note": 72,
      "start": 29.4428,
      "duration": 0.2168,
      "velocity": 113,
      "chip": "ym2612"
    },
    {
      "channel": 3,
      "note": 64,
      "start": 29.4487,
      "duration": 0.024,
      "velocity": 127,
      "chip": "ym2612"
    },
    {
      "channel": 4,
      "note": 67,
      "start": 29.4542,
      "duration": 2.8221,
      "velocity": 93,
      "chip": "ym2612"
    },
    {
      "channel": 5,
      "note": 67,
      "start": 29.4596,
      "duration": 0.201,
      "velocity": 113,
      "chip": "ym2612"
    },
    {
      "channel": 1,
      "note": 60,
      "start": 29.5773,
      "duration": 0.0821,
      "velocity": 101,
      "chip": "ym2612"
    },
    {
      "channel": 3,
      "note": 64,
      "start": 29.5827,
      "duration": 0.0146,
      "velocity": 127,
      "chip": "ym2612"
    },
    {
      "channel": 1,
      "note": 60,
      "start": 29.702,
      "duration": 0.0815,
      "velocity": 101,
      "chip": "ym2612"
    },
    {
      "channel": 2,
      "note": 60,
      "start": 29.7037,
      "duration": 0.0175,
      "velocity": 113,
      "chip": "ym2612"
    },
    {
      "channel": 3,
      "note": 64,
      "start": 29.7058,
      "duration": 0.0162,
      "velocity": 127,
      "chip": "ym2612"
    },
    {
      "channel": 5,
      "note": 55,
      "start": 29.7077,
      "duration": 0.0146,
      "velocity": 113,
      "chip": "ym2612"
    },
    {
      "channel": 1,
      "note": 60,
      "start": 29.8265,
      "duration": 0.0815,
      "velocity": 101,
      "chip": "ym2612"
    },
    {
      "channel": 2,
      "note": 60,
      "start": 29.8283,
      "duration": 0.0176,
      "velocity": 113,
      "chip": "ym2612"
    },
    {
      "channel": 3,
      "note": 64,
      "start": 29.8336,
      "duration": 0.013,
      "velocity": 127,
      "chip": "ym2612"
    },
    {
      "channel": 5,
      "note": 55,
      "start": 29.8355,
      "duration": 0.0115,
      "velocity": 113,
      "chip": "ym2612"
    },
    {
      "channel": 1,
      "note": 60,
      "start": 29.9511,
      "duration": 0.0815,
      "velocity": 101,
      "chip": "ym2612"
    },
    {
      "channel": 2,
      "note": 60,
      "start": 29.9529,
      "duration": 0.0176,
      "velocity": 113,
      "chip": "ym2612"
    },
    {
      "channel": 3,
      "note": 64,
      "start": 29.9582,
      "duration": 0.0131,
      "velocity": 127,
      "chip": "ym2612"
    },
    {
      "channel": 5,
      "note": 55,
      "start": 29.9601,
      "duration": 0.0115,
      "velocity": 113,
      "chip": "ym2612"
    },
    {
      "channel": 1,
      "note": 60,
      "start": 30.0757,
      "duration": 0.0814,
      "velocity": 101,
      "chip": "ym2612"
    },
    {
      "channel": 2,
      "note": 60,
      "start": 30.0776,
      "duration": 0.0174,
      "velocity": 113,
      "chip": "ym2612"
    },
    {
      "channel": 3,
      "note": 64,
      "start": 30.0828,
      "duration": 0.013,
      "velocity": 127,
      "chip": "ym2612"
    },
    {
      "channel": 5,
      "note": 55,
      "start": 30.0848,
      "duration": 0.0113,
      "velocity": 113,
      "chip": "ym2612"
    },
    {
      "channel": 1,
      "note": 60,
      "start": 30.2003,
      "duration": 0.0815,
      "velocity": 101,
      "chip": "ym2612"
    },
    {
      "channel": 2,
      "note": 75,
      "start": 30.2021,
      "duration": 0.2045,
      "velocity": 113,
      "chip": "ym2612"
    },
    {
      "channel": 3,
      "note": 64,
      "start": 30.2075,
      "duration": 0.0132,
      "velocity": 127,
      "chip": "ym2612"
    },
    {
      "channel": 5,
      "note": 70,
      "start": 30.2095,
      "duration": 0.198,
      "velocity": 113,
      "chip": "ym2612"
    },
    {
      "channel": 1,
      "note": 60,
      "start": 30.3258,
      "duration": 0.0805,
      "velocity": 101,
      "chip": "ym2612"
    },
    {
      "channel": 3,
      "note": 64,
      "start": 30.3311,
      "duration": 0.0137,
      "velocity": 127,
      "chip": "ym2612"
    },
    {
      "channel": 1,
      "note": 60,
      "start": 30.4495,
      "duration": 0.0815,
      "velocity": 101,
      "chip": "ym2612"
    },
    {
      "channel": 2,
      "note": 60,
      "start": 30.4513,
      "duration": 0.0175,
      "velocity": 113,
      "chip": "ym2612"
    },
    {
      "channel": 3,
      "note": 64,
      "start": 30.4533,
      "duration": 0.0162,
      "velocity": 127,
      "chip": "ym2612"
    },
    {
      "channel": 5,
      "note": 55,
      "start": 30.4552,
      "duration": 0.0146,
      "velocity": 113,
      "chip": "ym2612"
    },
    {
      "channel": 1,
      "note": 60,
      "start": 30.5741,
      "duration": 0.0815,
      "velocity": 101,
      "chip": "ym2612"
    },
    {
      "channel": 2,
      "note": 60,
      "start": 30.5759,
      "duration": 0.0174,
      "velocity": 113,
      "chip": "ym2612"
    },
    {
      "channel": 3,
      "note": 64,
      "start": 30.5811,
      "duration": 0.013,
      "velocity": 127,
      "chip": "ym2612"
    },
    {
      "channel": 5,
      "note": 55,
      "start": 30.583,
      "duration": 0.0114,
      "velocity": 113,
      "chip": "ym2612"
    },
    {
      "channel": 1,
      "note": 60,
      "start": 30.6986,
      "duration": 0.0818,
      "velocity": 101,
      "chip": "ym2612"
    },
    {
      "channel": 2,
      "note": 60,
      "start": 30.7005,
      "duration": 0.0175,
      "velocity": 113,
      "chip": "ym2612"
    },
    {
      "channel": 3,
      "note": 64,
      "start": 30.7057,
      "duration": 0.013,
      "velocity": 127,
      "chip": "ym2612"
    },
    {
      "channel": 5,
      "note": 55,
      "start": 30.7076,
      "duration": 0.0115,
      "velocity": 113,
      "chip": "ym2612"
    },
    {
      "channel": 1,
      "note": 60,
      "start": 30.8232,
      "duration": 0.0815,
      "velocity": 101,
      "chip": "ym2612"
    },
    {
      "channel": 2,
      "note": 60,
      "start": 30.8251,
      "duration": 0.0175,
      "velocity": 113,
      "chip": "ym2612"
    },
    {
      "channel": 3,
      "note": 64,
      "start": 30.8304,
      "duration": 0.013,
      "velocity": 127,
      "chip": "ym2612"
    },
    {
      "channel": 5,
      "note": 55,
      "start": 30.8323,
      "duration": 0.0114,
      "velocity": 113,
      "chip": "ym2612"
    },
    {
      "channel": 1,
      "note": 60,
      "start": 30.9479,
      "duration": 0.0815,
      "velocity": 101,
      "chip": "ym2612"
    },
    {
      "channel": 2,
      "note": 74,
      "start": 30.9497,
      "duration": 0.2045,
      "velocity": 113,
      "chip": "ym2612"
    },
    {
      "channel": 3,
      "note": 64,
      "start": 30.9551,
      "duration": 0.0128,
      "velocity": 127,
      "chip": "ym2612"
    },
    {
      "channel": 5,
      "note": 69,
      "start": 30.957,
      "duration": 0.1981,
      "velocity": 113,
      "chip": "ym2612"
    },
    {
      "channel": 1,
      "note": 60,
      "start": 31.0724,
      "duration": 0.0815,
      "velocity": 101,
      "chip": "ym2612"
    },
    {
      "channel": 3,
      "note": 64,
      "start": 31.0778,
      "duration": 0.0146,
      "velocity": 127,
      "chip": "ym2612"
    },
    {
      "channel": 1,
      "note": 60,
      "start": 31.197,
      "duration": 0.0815,
      "velocity": 101,
      "chip": "ym2612"
    },
    {
      "channel": 2,
      "note": 60,
      "start": 31.1989,
      "duration": 0.0175,
      "velocity": 113,
      "chip": "ym2612"
    },
    {
      "channel": 3,
      "note": 64,
      "start": 31.2009,
      "duration": 0.0161,
      "velocity": 127,
      "chip": "ym2612"
    },
    {
      "channel": 5,
      "note": 55,
      "start": 31.2028,
      "duration": 0.0146,
      "velocity": 113,
      "chip": "ym2612"
    },
    {
      "channel": 1,
      "note": 60,
      "start": 31.3217,
      "duration": 0.0815,
      "velocity": 101,
      "chip": "ym2612"
    },
    {
      "channel": 2,
      "note": 60,
      "start": 31.3235,
      "duration": 0.0176,
      "velocity": 113,
      "chip": "ym2612"
    },
    {
      "channel": 3,
      "note": 64,
      "start": 31.3287,
      "duration": 0.0131,
      "velocity": 127,
      "chip": "ym2612"
    },
    {
      "channel": 5,
      "note": 55,
      "start": 31.3306,
      "duration": 0.0116,
      "velocity": 113,
      "chip": "ym2612"
    },
    {
      "channel": 1,
      "note": 60,
      "start": 31.4483,
      "duration": 0.0794,
      "velocity": 101,
      "chip": "ym2612"
    },
    {
      "channel": 2,
      "note": 60,
      "start": 31.4501,
      "duration": 0.0159,
      "velocity": 113,
      "chip": "ym2612"
    },
    {
      "channel": 3,
      "note": 64,
      "start": 31.4553,
      "duration": 0.0115,
      "velocity": 127,
      "chip": "ym2612"
    },
    {
      "channel": 5,
      "note": 55,
      "start": 31.4588,
      "duration": 0.0088,
      "velocity": 113,
      "chip": "ym2612"
    },
    {
      "channel": 1,
      "note": 60,
      "start": 31.5708,
      "duration": 0.0815,
      "velocity": 101,
      "chip": "ym2612"
    },
    {
      "channel": 2,
      "note": 60,
      "start": 31.5727,
      "duration": 0.0174,
      "velocity": 113,
      "chip": "ym2612"
    },
    {
      "channel": 3,
      "note": 64,
      "start": 31.578,
      "duration": 0.0129,
      "velocity": 127,
      "chip": "ym2612"
    },
    {
      "channel": 5,
      "note": 55,
      "start": 31.5799,
      "duration": 0.0113,
      "velocity": 113,
      "chip": "ym2612"
    },
    {
      "channel": 1,
      "note": 60,
      "start": 31.6954,
      "duration": 0.0815,
      "velocity": 101,
      "chip": "ym2612"
    },
    {
      "channel": 2,
      "note": 73,
      "start": 31.6972,
      "duration": 0.2045,
      "velocity": 113,
      "chip": "ym2612"
    },
    {
      "channel": 3,
      "note": 64,
      "start": 31.7029,
      "duration": 0.0124,
      "velocity": 127,
      "chip": "ym2612"
    },
    {
      "channel": 5,
      "note": 68,
      "start": 31.7049,
      "duration": 0.1978,
      "velocity": 113,
      "chip": "ym2612"
    },
    {
      "channel": 1,
      "note": 60,
      "start": 31.82,
      "duration": 0.0815,
      "velocity": 101,
      "chip": "ym2612"
    },
    {
      "channel": 3,
      "note": 64,
      "start": 31.8254,
      "duration": 0.0146,
      "velocity": 127,
      "chip": "ym2612"
    },
    {
      "channel": 1,
      "note": 60,
      "start": 31.9446,
      "duration": 0.0815,
      "velocity": 101,
      "chip": "ym2612"
    },
    {
      "channel": 2,
      "note": 60,
      "start": 31.9465,
      "duration": 0.0174,
      "velocity": 113,
      "chip": "ym2612"
    },
    {
      "channel": 3,
      "note": 64,
      "start": 31.9485,
      "duration": 0.0162,
      "velocity": 127,
      "chip": "ym2612"
    },
    {
      "channel": 5,
      "note": 55,
      "start": 31.9504,
      "duration": 0.0146,
      "velocity": 113,
      "chip": "ym2612"
    },
    {
      "channel": 0,
      "note": 71,
      "start": 32.0693,
      "duration": 0.0813,
      "velocity": 93,
      "chip": "ym2612"
    },
    {
      "channel": 1,
      "note": 60,
      "start": 32.0712,
      "duration": 0.0796,
      "velocity": 101,
      "chip": "ym2612"
    },
    {
      "channel": 2,
      "note": 60,
      "start": 32.0729,
      "duration": 0.0156,
      "velocity": 113,
      "chip": "ym2612"
    },
    {
      "channel": 3,
      "note": 64,
      "start": 32.0782,
      "duration": 0.0111,
      "velocity": 127,
      "chip": "ym2612"
    },
    {
      "channel": 5,
      "note": 55,
      "start": 32.0801,
      "duration": 0.0095,
      "velocity": 113,
      "chip": "ym2612"
    },
    {
      "channel": 0,
      "note": 72,
      "start": 32.1937,
      "duration": 0.0815,
      "velocity": 93,
      "chip": "ym2612"
    },
    {
      "channel": 1,
      "note": 60,
      "start": 32.1954,
      "duration": 0.08,
      "velocity": 101,
      "chip": "ym2612"
    },
    {
      "channel": 2,
      "note": 60,
      "start": 32.1972,
      "duration": 0.0159,
      "velocity": 113,
      "chip": "ym2612"
    },
    {
      "channel": 3,
      "note": 64,
      "start": 32.1993,
      "duration": 0.0146,
      "velocity": 127,
      "chip": "ym2612"
    },
    {
      "channel": 5,
      "note": 55,
      "start": 32.2012,
      "duration": 0.013,
      "velocity": 113,
      "chip": "ym2612"
    },
    {
      "channel": 0,
      "note": 75,
      "start": 32.3182,
      "duration": 0.0815,
      "velocity": 93,
      "chip": "ym2612"
    },
    {
      "channel": 1,
      "note": 60,
      "start": 32.3201,
      "duration": 0.0799,
      "velocity": 101,
      "chip": "ym2612"
    },
    {
      "channel": 2,
      "note": 60,
      "start": 32.3219,
      "duration": 0.016,
      "velocity": 113,
      "chip": "ym2612"
    },
    {
      "channel": 3,
      "note": 64,
      "start": 32.3239,
      "duration": 0.0146,
      "velocity": 127,
      "chip": "ym2612"
    },
    {
      "channel": 4,
      "note": 71,
      "start": 32.3261,
      "duration": 0.0748,
      "velocity": 93,
      "chip": "ym2612"
    },
    {
      "channel": 5,
      "note": 55,
      "start": 32.3278,
      "duration": 0.0111,
      "velocity": 113,
      "chip": "ym2612"
    },
    {
      "channel": 0,
      "note": 79,
      "start": 32.4428,
      "duration": 0.2061,
      "velocity": 93,
      "chip": "ym2612"
    },
    {
      "channel": 1,
      "note": 60,
      "start": 32.4447,
      "duration": 0.0798,
      "velocity": 101,
      "chip": "ym2612"
    },
    {
      "channel": 2,
      "note": 72,
      "start": 32.4467,
      "duration": 0.2027,
      "velocity": 113,
      "chip": "ym2612"
    },
    {
      "channel": 3,
      "note": 64,
      "start": 32.4524,
      "duration": 0.0106,
      "velocity": 127,
      "chip": "ym2612"
    },
    {
      "channel": 4,
      "note": 72,
      "start": 32.4542,
      "duration": 0.0712,
      "velocity": 93,
      "chip": "ym2612"
    },
    {
      "channel": 5,
      "note": 67,
      "start": 32.4562,
      "duration": 0.1942,
      "velocity": 113,
      "chip": "ym2612"
    },
    {
      "channel": 1,
      "note": 60,
      "start": 32.5678,
      "duration": 0.0814,
      "velocity": 101,
      "chip": "ym2612"
    },
    {
      "channel": 3,
      "note": 64,
      "start": 32.5732,
      "duration": 0.0144,
      "velocity": 127,
      "chip": "ym2612"
    },
    {
      "channel": 4,
      "note": 75,
      "start": 32.5749,
      "duration": 0.0753,
      "velocity": 93,
      "chip": "ym2612"
    },
    {
      "channel": 0,
      "note": 78,
      "start": 32.692,
      "duration": 0.2061,
      "velocity": 93,
      "chip": "ym2612"
    },
    {
      "channel": 1,
      "note": 60,
      "start": 32.6938,
      "duration": 0.0799,
      "velocity": 101,
      "chip": "ym2612"
    },
    {
      "channel": 2,
      "note": 60,
      "start": 32.6956,
      "duration": 0.0158,
      "velocity": 113,
      "chip": "ym2612"
    },
    {
      "channel": 3,
      "note": 64,
      "start": 32.6977,
      "duration": 0.0146,
      "velocity": 127,
      "chip": "ym2612"
    },
    {
      "channel": 4,
      "note": 79,
      "start": 32.6994,
      "duration": 0.1999,
      "velocity": 93,
      "chip": "ym2612"
    },
    {
      "channel": 5,
      "note": 55,
      "start": 32.7012,
      "duration": 0.0113,
      "velocity": 113,
      "chip": "ym2612"
    },
    {
      "channel": 1,
      "note": 60,
      "start": 32.8168,
      "duration": 0.0815,
      "velocity": 101,
      "chip": "ym2612"
    },
    {
      "channel": 2,
      "note": 60,
      "start": 32.8186,
      "duration": 0.0175,
      "velocity": 113,
      "chip": "ym2612"
    },
    {
      "channel": 3,
      "note": 64,
      "start": 32.8239,
      "duration": 0.013,
      "velocity": 127,
      "chip": "ym2612"
    },
    {
      "channel": 5,
      "note": 55,
      "start": 32.8258,
      "duration": 0.0114,
      "velocity": 113,
      "chip": "ym2612"
    },
    {
      "channel": 0,
      "note": 75,
      "start": 32.9412,
      "duration": 0.2061,
      "velocity": 93,
      "chip": "ym2612"
    },
    {
      "channel": 1,
      "note": 60,
      "start": 32.943,
      "duration": 0.0798,
      "velocity": 101,
      "chip": "ym2612"
    },
    {
      "channel": 2,
      "note": 60,
      "start": 32.9448,
      "duration": 0.0159,
      "velocity": 113,
      "chip": "ym2612"
    },
    {
      "channel": 3,
      "note": 64,
      "start": 32.95,
      "duration": 0.0115,
      "velocity": 127,
      "chip": "ym2612"
    },
    {
      "channel": 4,
      "note": 78,
      "start": 32.9517,
      "duration": 0.1967,
      "velocity": 93,
      "chip": "ym2612"
    },
    {
      "channel": 5,
      "note": 55,
      "start": 32.9535,
      "duration": 0.0083,
      "velocity": 113,
      "chip": "ym2612"
    },
    {
      "channel": 1,
      "note": 60,
      "start": 33.066,
      "duration": 0.0816,
      "velocity": 101,
      "chip": "ym2612"
    },
    {
      "channel": 2,
      "note": 60,
      "start": 33.0678,
      "duration": 0.0175,
      "velocity": 113,
      "chip": "ym2612"
    },
    {
      "channel": 3,
      "note": 64,
      "start": 33.0731,
      "duration": 0.013,
      "velocity": 127,
      "chip": "ym2612"
    },
    {
      "channel": 5,
      "note": 55,
      "start": 33.075,
      "duration": 0.0113,
      "velocity": 113,
      "chip": "ym2612"
    },
    {
      "channel": 0,
      "note": 78,
      "start": 33.1904,
      "duration": 0.2061,
      "velocity": 93,
      "chip": "ym2612"
    },
    {
      "channel": 1,
      "note": 60,
      "start": 33.1922,
      "duration": 0.0798,
      "velocity": 101,
      "chip": "ym2612"
    },
    {
      "channel": 2,
      "note": 75,
      "start": 33.1941,
      "duration": 0.2029,
      "velocity": 113,
      "chip": "ym2612"
    },
    {
      "channel": 3,
      "note": 64,
      "start": 33.1995,
      "duration": 0.0111,
      "velocity": 127,
      "chip": "ym2612"
    },
    {
      "channel": 4,
      "note": 75,
      "start": 33.2012,
      "duration": 0.1966,
      "velocity": 93,
      "chip": "ym2612"
    },
    {
      "channel": 5,
      "note": 70,
      "start": 33.2029,
      "duration": 0.1951,
      "velocity": 113,
      "chip": "ym2612"
    },
    {
      "channel": 1,
      "note": 60,
      "start": 33.3152,
      "duration": 0.0816,
      "velocity": 101,
      "chip": "ym2612"
    },
    {
      "channel": 3,
      "note": 64,
      "start": 33.3205,
      "duration": 0.0146,
      "velocity": 127,
      "chip": "ym2612"
    },
    {
      "channel": 0,
      "note": 75,
      "start": 33.4396,
      "duration": 0.2061,
      "velocity": 93,
      "chip": "ym2612"
    },
    {
      "channel": 1,
      "note": 60,
      "start": 33.4415,
      "duration": 0.0799,
      "velocity": 101,
      "chip": "ym2612"
    },
    {
      "channel": 2,
      "note": 60,
      "start": 33.4432,
      "duration": 0.0159,
      "velocity": 113,
      "chip": "ym2612"
    },
    {
      "channel": 3,
      "note": 64,
      "start": 33.4453,
      "duration": 0.0146,
      "velocity": 127,
      "chip": "ym2612"
    },
    {
      "channel": 4,
      "note": 78,
      "start": 33.447,
      "duration": 0.1999,
      "velocity": 93,
      "chip": "ym2612"
    },
    {
      "channel": 5,
      "note": 55,
      "start": 33.4488,
      "duration": 0.0113,
      "velocity": 113,
      "chip": "ym2612"
    },
    {
      "channel": 1,
      "note": 60,
      "start": 33.5644,
      "duration": 0.0816,
      "velocity": 101,
      "chip": "ym2612"
    },
    {
      "channel": 2,
      "note": 60,
      "start": 33.5662,
      "duration": 0.0175,
      "velocity": 113,
      "chip": "ym2612"
    },
    {
      "channel": 3,
      "note": 64,
      "start": 33.5714,
      "duration": 0.013,
      "velocity": 127,
      "chip": "ym2612"
    },
    {
      "channel": 5,
      "note": 55,
      "start": 33.5734,
      "duration": 0.0114,
      "velocity": 113,
      "chip": "ym2612"
    },
    {
      "channel": 0,
      "note": 71,
      "start": 33.6888,
      "duration": 0.207,
      "velocity": 93,
      "chip": "ym2612"
    },
    {
      "channel": 1,
      "note": 60,
      "start": 33.6906,
      "duration": 0.0798,
      "velocity": 101,
      "chip": "ym2612"
    },
    {
      "channel": 2,
      "note": 60,
      "start": 33.6924,
      "duration": 0.0158,
      "velocity": 113,
      "chip": "ym2612"
    },
    {
      "channel": 3,
      "note": 64,
      "start": 33.6976,
      "duration": 0.0114,
      "velocity": 127,
      "chip": "ym2612"
    },
    {
      "channel": 4,
      "note": 75,
      "start": 33.6993,
      "duration": 0.1975,
      "velocity": 93,
      "chip": "ym2612"
    },
    {
      "channel": 5,
      "note": 55,
      "start": 33.7011,
      "duration": 0.0082,
      "velocity": 113,
      "chip": "ym2612"
    },
    {
      "channel": 1,
      "note": 60,
      "start": 33.8136,
      "duration": 0.0824,
      "velocity": 101,
      "chip": "ym2612"
    },
    {
      "channel": 2,
      "note": 60,
      "start": 33.8154,
      "duration": 0.0175,
      "velocity": 113,
      "chip": "ym2612"
    },
    {
      "channel": 3,
      "note": 64,
      "start": 33.8206,
      "duration": 0.013,
      "velocity": 127,
      "chip": "ym2612"
    },
    {
      "channel": 5,
      "note": 55,
      "start": 33.8225,
      "duration": 0.0114,
      "velocity": 113,
      "chip": "ym2612"
    },
    {
      "channel": 0,
      "note": 72,
      "start": 33.938,
      "duration": 1.0787,
      "velocity": 93,
      "chip": "ym2612"
    },
    {
      "channel": 1,
      "note": 60,
      "start": 33.9402,
      "duration": 0.0794,
      "velocity": 101,
      "chip": "ym2612"
    },
    {
      "channel": 2,
      "note": 74,
      "start": 33.9421,
      "duration": 0.2023,
      "velocity": 113,
      "chip": "ym2612"
    },
    {
      "channel": 3,
      "note": 64,
      "start": 33.9475,
      "duration": 0.0106,
      "velocity": 127,
      "chip": "ym2612"
    },
    {
      "channel": 4,
      "note": 71,
      "start": 33.9492,
      "duration": 0.196,
      "velocity": 93,
      "chip": "ym2612"
    },
    {
      "channel": 5,
      "note": 69,
      "start": 33.951,
      "duration": 0.1945,
      "velocity": 113,
      "chip": "ym2612"
    },
    {
      "channel": 1,
      "note": 59,
      "start": 34.0626,
      "duration": 0.0817,
      "velocity": 101,
      "chip": "ym2612"
    },
    {
      "channel": 3,
      "note": 64,
      "start": 34.0679,
      "duration": 0.0147,
      "velocity": 127,
      "chip": "ym2612"
    },
    {
      "channel": 1,
      "note": 58,
      "start": 34.1872,
      "duration": 0.0817,
      "velocity": 101,
      "chip": "ym2612"
    },
    {
      "channel": 2,
      "note": 60,
      "start": 34.189,
      "duration": 0.0177,
      "velocity": 113,
      "chip": "ym2612"
    },
    {
      "channel": 3,
      "note": 64,
      "start": 34.1911,
      "duration": 0.0163,
      "velocity": 127,
      "chip": "ym2612"
    },
    {
      "channel": 4,
      "note": 72,
      "start": 34.1928,
      "duration": 1.0738,
      "velocity": 93,
      "chip": "ym2612"
    },
    {
      "channel": 5,
      "note": 55,
      "start": 34.1946,
      "duration": 0.0131,
      "velocity": 113,
      "chip": "ym2612"
    },
    {
      "channel": 1,
      "note": 60,
      "start": 34.3119,
      "duration": 0.0815,
      "velocity": 101,
      "chip": "ym2612"
    },
    {
      "channel": 2,
      "note": 60,
      "start": 34.3137,
      "duration": 0.0176,
      "velocity": 113,
      "chip": "ym2612"
    },
    {
      "channel": 3,
      "note": 64,
      "start": 34.319,
      "duration": 0.013,
      "velocity": 127,
      "chip": "ym2612"
    },
    {
      "channel": 5,
      "note": 55,
      "start": 34.3209,
      "duration": 0.0114,
      "velocity": 113,
      "chip": "ym2612"
    },
    {
      "channel": 1,
      "note": 59,
      "start": 34.4363,
      "duration": 0.0817,
      "velocity": 101,
      "chip": "ym2612"
    },
    {
      "channel": 2,
      "note": 60,
      "start": 34.4382,
      "duration": 0.0183,
      "velocity": 113,
      "chip": "ym2612"
    },
    {
      "channel": 3,
      "note": 64,
      "start": 34.4434,
      "duration": 0.0139,
      "velocity": 127,
      "chip": "ym2612"
    },
    {
      "channel": 5,
      "note": 55,
      "start": 34.4453,
      "duration": 0.0123,
      "velocity": 113,
      "chip": "ym2612"
    },
    {
      "channel": 1,
      "note": 58,
      "start": 34.561,
      "duration": 0.0815,
      "velocity": 101,
      "chip": "ym2612"
    },
    {
      "channel": 2,
      "note": 60,
      "start": 34.5628,
      "duration": 0.0176,
      "velocity": 113,
      "chip": "ym2612"
    },
    {
      "channel": 3,
      "note": 64,
      "start": 34.5681,
      "duration": 0.013,
      "velocity": 127,
      "chip": "ym2612"
    },
    {
      "channel": 5,
      "note": 55,
      "start": 34.57,
      "duration": 0.0115,
      "velocity": 113,
      "chip": "ym2612"
    },
    {
      "channel": 1,
      "note": 60,
      "start": 34.6857,
      "duration": 0.0815,
      "velocity": 101,
      "chip": "ym2612"
    },
    {
      "channel": 2,
      "note": 73,
      "start": 34.6875,
      "duration": 0.2045,
      "velocity": 113,
      "chip": "ym2612"
    },
    {
      "channel": 3,
      "note": 73,
      "start": 34.6935,
      "duration": 0.0122,
      "velocity": 127,
      "chip": "ym2612"
    },
    {
      "channel": 5,
      "note": 68,
      "start": 34.6954,
      "duration": 0.1975,
      "velocity": 113,
      "chip": "ym2612"
    },
    {
      "channel": 1,
      "note": 59,
      "start": 34.8101,
      "duration": 0.0816,
      "velocity": 101,
      "chip": "ym2612"
    },
    {
      "channel": 3,
      "note": 73,
      "start": 34.8123,
      "duration": 0.0179,
      "velocity": 127,
      "chip": "ym2612"
    },
    {
      "channel": 1,
      "note": 58,
      "start": 34.9347,
      "duration": 0.0823,
      "velocity": 101,
      "chip": "ym2612"
    },
    {
      "channel": 2,
      "note": 60,
      "start": 34.9366,
      "duration": 0.0177,
      "velocity": 113,
      "chip": "ym2612"
    },
    {
      "channel": 3,
      "note": 69,
      "start": 34.9388,
      "duration": 0.0162,
      "velocity": 127,
      "chip": "ym2612"
    },
    {
      "channel": 5,
      "note": 55,
      "start": 34.9408,
      "duration": 0.0146,
      "velocity": 113,
      "chip": "ym2612"
    },
    {
      "channel": 0,
      "note": 71,
      "start": 35.0593,
      "duration": 0.0815,
      "velocity": 93,
      "chip": "ym2612"
    },
    {
      "channel": 1,
      "note": 55,
      "start": 35.0611,
      "duration": 0.08,
      "velocity": 101,
      "chip": "ym2612"
    },
    {
      "channel": 2,
      "note": 60,
      "start": 35.0629,
      "duration": 0.016,
      "velocity": 113,
      "chip": "ym2612"
    },
    {
      "channel": 3,
      "note": 69,
      "start": 35.065,
      "duration": 0.0146,
      "velocity": 127,
      "chip": "ym2612"
    },
    {
      "channel": 5,
      "note": 55,
      "start": 35.0669,
      "duration": 0.013,
      "velocity": 113,
      "chip": "ym2612"
    },
    {
      "channel": 0,
      "note": 72,
      "start": 35.1839,
      "duration": 0.0815,
      "velocity": 93,
      "chip": "ym2612"
    },
    {
      "channel": 1,
      "note": 55,
      "start": 35.1855,
      "duration": 0.0801,
      "velocity": 101,
      "chip": "ym2612"
    },
    {
      "channel": 2,
      "note": 60,
      "start": 35.1874,
      "duration": 0.016,
      "velocity": 113,
      "chip": "ym2612"
    },
    {
      "channel": 3,
      "note": 64,
      "start": 35.1897,
      "duration": 0.0145,
      "velocity": 127,
      "chip": "ym2612"
    },
    {
      "channel": 5,
      "note": 55,
      "start": 35.1916,
      "duration": 0.0129,
      "velocity": 113,
      "chip": "ym2612"
    },
    {
      "channel": 0,
      "note": 75,
      "start": 35.3085,
      "duration": 0.0816,
      "velocity": 93,
      "chip": "ym2612"
    },
    {
      "channel": 1,
      "note": 55,
      "start": 35.3101,
      "duration": 0.0802,
      "velocity": 101,
      "chip": "ym2612"
    },
    {
      "channel": 2,
      "note": 60,
      "start": 35.3119,
      "duration": 0.0161,
      "velocity": 113,
      "chip": "ym2612"
    },
    {
      "channel": 3,
      "note": 64,
      "start": 35.314,
      "duration": 0.0148,
      "velocity": 127,
      "chip": "ym2612"
    },
    {
      "channel": 4,
      "note": 71,
      "start": 35.3157,
      "duration": 0.0755,
      "velocity": 93,
      "chip": "ym2612"
    },
    {
      "channel": 5,
      "note": 55,
      "start": 35.3175,
      "duration": 0.0116,
      "velocity": 113,
      "chip": "ym2612"
    },
    {
      "channel": 0,
      "note": 79,
      "start": 35.4331,
      "duration": 0.7047,
      "velocity": 93,
      "chip": "ym2612"
    },
    {
      "channel": 1,
      "note": 60,
      "start": 35.4352,
      "duration": 0.0796,
      "velocity": 101,
      "chip": "ym2612"
    },
    {
      "channel": 2,
      "note": 72,
      "start": 35.4373,
      "duration": 0.2023,
      "velocity": 113,
      "chip": "ym2612"
    },
    {
      "channel": 3,
      "note": 64,
      "start": 35.4433,
      "duration": 0.01,
      "velocity": 127,
      "chip": "ym2612"
    },
    {
      "channel": 4,
      "note": 72,
      "start": 35.445,
      "duration": 0.0707,
      "velocity": 93,
      "chip": "ym2612"
    },
    {
      "channel": 5,
      "note": 67,
      "start": 35.447,
      "duration": 0.1936,
      "velocity": 113,
      "chip": "ym2612"
    },
    {
      "channel": 1,
      "note": 60,
      "start": 35.5579,
      "duration": 0.0815,
      "velocity": 101,
      "chip": "ym2612"
    },
    {
      "channel": 3,
      "note": 64,
      "start": 35.5633,
      "duration": 0.0149,
      "velocity": 127,
      "chip": "ym2612"
    },
    {
      "channel": 4,
      "note": 75,
      "start": 35.565,
      "duration": 0.0754,
      "velocity": 93,
      "chip": "ym2612"
    },
    {
      "channel": 1,
      "note": 60,
      "start": 35.6832,
      "duration": 0.0807,
      "velocity": 101,
      "chip": "ym2612"
    },
    {
      "channel": 2,
      "note": 60,
      "start": 35.685,
      "duration": 0.0168,
      "velocity": 113,
      "chip": "ym2612"
    },
    {
      "channel": 3,
      "note": 64,
      "start": 35.6871,
      "duration": 0.0155,
      "velocity": 127,
      "chip": "ym2612"
    },
    {
      "channel": 4,
      "note": 79,
      "start": 35.6888,
      "duration": 0.6992,
      "velocity": 93,
      "chip": "ym2612"
    },
    {
      "channel": 5,
      "note": 55,
      "start": 35.6907,
      "duration": 0.0122,
      "velocity": 113,
      "chip": "ym2612"
    },
    {
      "channel": 1,
      "note": 60,
      "start": 35.8071,
      "duration": 0.0815,
      "velocity": 101,
      "chip": "ym2612"
    },
    {
      "channel": 2,
      "note": 60,
      "start": 35.8089,
      "duration": 0.0174,
      "velocity": 113,
      "chip": "ym2612"
    },
    {
      "channel": 3,
      "note": 64,
      "start": 35.8141,
      "duration": 0.013,
      "velocity": 127,
      "chip": "ym2612"
    },
    {
      "channel": 5,
      "note": 55,
      "start": 35.8161,
      "duration": 0.0113,
      "velocity": 113,
      "chip": "ym2612"
    },
    {
      "channel": 1,
      "note": 60,
      "start": 35.9317,
      "duration": 0.0815,
      "velocity": 101,
      "chip": "ym2612"
    },
    {
      "channel": 2,
      "note": 60,
      "start": 35.9335,
      "duration": 0.0176,
      "velocity": 113,
      "chip": "ym2612"
    },
    {
      "channel": 3,
      "note": 64,
      "start": 35.9387,
      "duration": 0.0131,
      "velocity": 127,
      "chip": "ym2612"
    },
    {
      "channel": 5,
      "note": 55,
      "start": 35.9406,
      "duration": 0.0115,
      "velocity": 113,
      "chip": "ym2612"
    },
    {
      "channel": 1,
      "note": 60,
      "start": 36.0563,
      "duration": 0.0817,
      "velocity": 101,
      "chip": "ym2612"
    },
    {
      "channel": 2,
      "note": 60,
      "start": 36.0582,
      "duration": 0.0174,
      "velocity": 113,
      "chip": "ym2612"
    },
    {
      "channel": 3,
      "note": 64,
      "start": 36.0634,
      "duration": 0.0129,
      "velocity": 127,
      "chip": "ym2612"
    },
    {
      "channel": 5,
      "note": 55,
      "start": 36.0654,
      "duration": 0.0113,
      "velocity": 113,
      "chip": "ym2612"
    },
    {
      "channel": 0,
      "note": 78,
      "start": 36.1807,
      "duration": 0.7045,
      "velocity": 93,
      "chip": "ym2612"
    },
    {
      "channel": 1,
      "note": 60,
      "start": 36.1825,
      "duration": 0.0799,
      "velocity": 101,
      "chip": "ym2612"
    },
    {
      "channel": 2,
      "note": 75,
      "start": 36.1843,
      "duration": 0.2029,
      "velocity": 113,
      "chip": "ym2612"
    },
    {
      "channel": 3,
      "note": 64,
      "start": 36.1897,
      "duration": 0.0111,
      "velocity": 127,
      "chip": "ym2612"
    },
    {
      "channel": 5,
      "note": 70,
      "start": 36.1917,
      "duration": 0.1964,
      "velocity": 113,
      "chip": "ym2612"
    },
    {
      "channel": 1,
      "note": 60,
      "start": 36.3054,
      "duration": 0.0815,
      "velocity": 101,
      "chip": "ym2612"
    },
    {
      "channel": 3,
      "note": 64,
      "start": 36.3108,
      "duration": 0.0146,
      "velocity": 127,
      "chip": "ym2612"
    },
    {
      "channel": 1,
      "note": 60,
      "start": 36.43,
      "duration": 0.0815,
      "velocity": 101,
      "chip": "ym2612"
    },
    {
      "channel": 2,
      "note": 60,
      "start": 36.4319,
      "duration": 0.0174,
      "velocity": 113,
      "chip": "ym2612"
    },
    {
      "channel": 3,
      "note": 64,
      "start": 36.4339,
      "duration": 0.0161,
      "velocity": 127,
      "chip": "ym2612"
    },
    {
      "channel": 4,
      "note": 78,
      "start": 36.4356,
      "duration": 0.6999,
      "velocity": 93,
      "chip": "ym2612"
    },
    {
      "channel": 5,
      "note": 55,
      "start": 36.4374,
      "duration": 0.013,
      "velocity": 113,
      "chip": "ym2612"
    },
    {
      "channel": 1,
      "note": 60,
      "start": 36.5547,
      "duration": 0.0815,
      "velocity": 101,
      "chip": "ym2612"
    },
    {
      "channel": 2,
      "note": 60,
      "start": 36.5565,
      "duration": 0.0175,
      "velocity": 113,
      "chip": "ym2612"
    },
    {
      "channel": 3,
      "note": 64,
      "start": 36.5617,
      "duration": 0.013,
      "velocity": 127,
      "chip": "ym2612"
    },
    {
      "channel": 5,
      "note": 55,
      "start": 36.5637,
      "duration": 0.0114,
      "velocity": 113,
      "chip": "ym2612"
    },
    {
      "channel": 1,
      "note": 60,
      "start": 36.6792,
      "duration": 0.0815,
      "velocity": 101,
      "chip": "ym2612"
    },
    {
      "channel": 2,
      "note": 60,
      "start": 36.6811,
      "duration": 0.0176,
      "velocity": 113,
      "chip": "ym2612"
    },
    {
      "channel": 3,
      "note": 64,
      "start": 36.6863,
      "duration": 0.0131,
      "velocity": 127,
      "chip": "ym2612"
    },
    {
      "channel": 5,
      "note": 55,
      "start": 36.6882,
      "duration": 0.0115,
      "velocity": 113,
      "chip": "ym2612"
    },
    {
      "channel": 1,
      "note": 60,
      "start": 36.8043,
      "duration": 0.0811,
      "velocity": 101,
      "chip": "ym2612"
    },
    {
      "channel": 2,
      "note": 60,
      "start": 36.8061,
      "duration": 0.017,
      "velocity": 113,
      "chip": "ym2612"
    },
    {
      "channel": 3,
      "note": 64,
      "start": 36.8114,
      "duration": 0.0124,
      "velocity": 127,
      "chip": "ym2612"
    },
    {
      "channel": 5,
      "note": 55,
      "start": 36.8133,
      "duration": 0.0109,
      "velocity": 113,
      "chip": "ym2612"
    },
    {
      "channel": 0,
      "note": 75,
      "start": 36.9282,
      "duration": 0.7046,
      "velocity": 93,
      "chip": "ym2612"
    },
    {
      "channel": 1,
      "note": 60,
      "start": 36.93,
      "duration": 0.0799,
      "velocity": 101,
      "chip": "ym2612"
    },
    {
      "channel": 2,
      "note": 74,
      "start": 36.9318,
      "duration": 0.2029,
      "velocity": 113,
      "chip": "ym2612"
    },
    {
      "channel": 3,
      "note": 64,
      "start": 36.9372,
      "duration": 0.0111,
      "velocity": 127,
      "chip": "ym2612"
    },
    {
      "channel": 5,
      "note": 69,
      "start": 36.9392,
      "duration": 0.1965,
      "velocity": 113,
      "chip": "ym2612"
    },
    {
      "channel": 1,
      "note": 60,
      "start": 37.053,
      "duration": 0.0815,
      "velocity": 101,
      "chip": "ym2612"
    },
    {
      "channel": 3,
      "note": 64,
      "start": 37.0584,
      "duration": 0.0146,
      "velocity": 127,
      "chip": "ym2612"
    },
    {
      "channel": 1,
      "note": 60,
      "start": 37.1776,
      "duration": 0.0815,
      "velocity": 101,
      "chip": "ym2612"
    },
    {
      "channel": 2,
      "note": 60,
      "start": 37.1794,
      "duration": 0.0175,
      "velocity": 113,
      "chip": "ym2612"
    },
    {
      "channel": 3,
      "note": 64,
      "start": 37.1815,
      "duration": 0.0162,
      "velocity": 127,
      "chip": "ym2612"
    },
    {
      "channel": 4,
      "note": 75,
      "start": 37.1832,
      "duration": 0.6999,
      "velocity": 93,
      "chip": "ym2612"
    },
    {
      "channel": 5,
      "note": 55,
      "start": 37.185,
      "duration": 0.013,
      "velocity": 113,
      "chip": "ym2612"
    },
    {
      "channel": 1,
      "note": 60,
      "start": 37.3022,
      "duration": 0.0815,
      "velocity": 101,
      "chip": "ym2612"
    },
    {
      "channel": 2,
      "note": 60,
      "start": 37.304,
      "duration": 0.0175,
      "velocity": 113,
      "chip": "ym2612"
    },
    {
      "channel": 3,
      "note": 64,
      "start": 37.3093,
      "duration": 0.013,
      "velocity": 127,
      "chip": "ym2612"
    },
    {
      "channel": 5,
      "note": 55,
      "start": 37.3112,
      "duration": 0.0114,
      "velocity": 113,
      "chip": "ym2612"
    },
    {
      "channel": 1,
      "note": 60,
      "start": 37.4268,
      "duration": 0.0816,
      "velocity": 101,
      "chip": "ym2612"
    },
    {
      "channel": 2,
      "note": 60,
      "start": 37.4286,
      "duration": 0.0176,
      "velocity": 113,
      "chip": "ym2612"
    },
    {
      "channel": 3,
      "note": 64,
      "start": 37.4338,
      "duration": 0.0131,
      "velocity": 127,
      "chip": "ym2612"
    },
    {
      "channel": 5,
      "note": 55,
      "start": 37.4357,
      "duration": 0.0116,
      "velocity": 113,
      "chip": "ym2612"
    },
    {
      "channel": 1,
      "note": 60,
      "start": 37.5515,
      "duration": 0.0815,
      "velocity": 101,
      "chip": "ym2612"
    },
    {
      "channel": 2,
      "note": 60,
      "start": 37.5533,
      "duration": 0.0174,
      "velocity": 113,
      "chip": "ym2612"
    },
    {
      "channel": 3,
      "note": 64,
      "start": 37.5585,
      "duration": 0.0129,
      "velocity": 127,
      "chip": "ym2612"
    },
    {
      "channel": 5,
      "note": 55,
      "start": 37.5605,
      "duration": 0.0113,
      "velocity": 113,
      "chip": "ym2612"
    },
    {
      "channel": 0,
      "note": 74,
      "start": 37.6759,
      "duration": 0.3307,
      "velocity": 93,
      "chip": "ym2612"
    },
    {
      "channel": 1,
      "note": 60,
      "start": 37.6776,
      "duration": 0.0798,
      "velocity": 101,
      "chip": "ym2612"
    },
    {
      "channel": 2,
      "note": 73,
      "start": 37.6794,
      "duration": 0.2029,
      "velocity": 113,
      "chip": "ym2612"
    },
    {
      "channel": 3,
      "note": 64,
      "start": 37.6851,
      "duration": 0.0108,
      "velocity": 127,
      "chip": "ym2612"
    },
    {
      "channel": 5,
      "note": 68,
      "start": 37.6871,
      "duration": 0.1963,
      "velocity": 113,
      "chip": "ym2612"
    },
    {
      "channel": 1,
      "note": 60,
      "start": 37.8006,
      "duration": 0.0815,
      "velocity": 101,
      "chip": "ym2612"
    },
    {
      "channel": 3,
      "note": 64,
      "start": 37.8059,
      "duration": 0.0146,
      "velocity": 127,
      "chip": "ym2612"
    },
    {
      "channel": 1,
      "note": 60,
      "start": 37.9253,
      "duration": 0.0816,
      "velocity": 101,
      "chip": "ym2612"
    },
    {
      "channel": 2,
      "note": 60,
      "start": 37.9271,
      "duration": 0.0174,
      "velocity": 113,
      "chip": "ym2612"
    },
    {
      "channel": 3,
      "note": 64,
      "start": 37.9292,
      "duration": 0.0161,
      "velocity": 127,
      "chip": "ym2612"
    },
    {
      "channel": 4,
      "note": 74,
      "start": 37.9309,
      "duration": 0.3259,
      "velocity": 93,
      "chip": "ym2612"
    },
    {
      "channel": 5,
      "note": 55,
      "start": 37.9327,
      "duration": 0.0129,
      "velocity": 113,
      "chip": "ym2612"
    },
    {
      "channel": 0,
      "note": 71,
      "start": 38.0496,
      "duration": 0.3307,
      "velocity": 93,
      "chip": "ym2612"
    },
    {
      "channel": 1,
      "note": 60,
      "start": 38.0514,
      "duration": 0.0799,
      "velocity": 101,
      "chip": "ym2612"
    },
    {
      "channel": 2,
      "note": 60,
      "start": 38.0532,
      "duration": 0.0159,
      "velocity": 113,
      "chip": "ym2612"
    },
    {
      "channel": 3,
      "note": 64,
      "start": 38.0585,
      "duration": 0.0114,
      "velocity": 127,
      "chip": "ym2612"
    },
    {
      "channel": 5,
      "note": 55,
      "start": 38.0604,
      "duration": 0.0098,
      "velocity": 113,
      "chip": "ym2612"
    },
    {
      "channel": 1,
      "note": 60,
      "start": 38.1744,
      "duration": 0.0815,
      "velocity": 101,
      "chip": "ym2612"
    },
    {
      "channel": 2,
      "note": 60,
      "start": 38.1762,
      "duration": 0.0175,
      "velocity": 113,
      "chip": "ym2612"
    },
    {
      "channel": 3,
      "note": 64,
      "start": 38.1783,
      "duration": 0.0161,
      "velocity": 127,
      "chip": "ym2612"
    },
    {
      "channel": 5,
      "note": 55,
      "start": 38.1802,
      "duration": 0.0146,
      "velocity": 113,
      "chip": "ym2612"
    },
    {
      "channel": 1,
      "note": 60,
      "start": 38.299,
      "duration": 0.0816,
      "velocity": 101,
      "chip": "ym2612"
    },
    {
      "channel": 2,
      "note": 60,
      "start": 38.3008,
      "duration": 0.0175,
      "velocity": 113,
      "chip": "ym2612"
    },
    {
      "channel": 3,
      "note": 64,
      "start": 38.3028,
      "duration": 0.0162,
      "velocity": 127,
      "chip": "ym2612"
    },
    {
      "channel": 4,
      "note": 71,
      "start": 38.3046,
      "duration": 0.3261,
      "velocity": 93,
      "chip": "ym2612"
    },
    {
      "channel": 5,
      "note": 55,
      "start": 38.3063,
      "duration": 0.013,
      "velocity": 113,
      "chip": "ym2612"
    },
    {
      "channel": 0,
      "note": 72,
      "start": 38.4234,
      "duration": 2.9472,
      "velocity": 93,
      "chip": "ym2612"
    },
    {
      "channel": 1,
      "note": 60,
      "start": 38.4253,
      "duration": 0.0798,
      "velocity": 101,
      "chip": "ym2612"
    },
    {
      "channel": 2,
      "note": 72,
      "start": 38.4273,
      "duration": 0.2025,
      "velocity": 113,
      "chip": "ym2612"
    },
    {
      "channel": 3,
      "note": 64,
      "start": 38.433,
      "duration": 0.0105,
      "velocity": 127,
      "chip": "ym2612"
    },
    {
      "channel": 5,
      "note": 67,
      "start": 38.4353,
      "duration": 0.1956,
      "velocity": 113,
      "chip": "ym2612"
    },
    {
      "channel": 1,
      "note": 60,
      "start": 38.5482,
      "duration": 0.0815,
      "velocity": 101,
      "chip": "ym2612"
    },
    {
      "channel": 3,
      "note": 64,
      "start": 38.5535,
      "duration": 0.0146,
      "velocity": 127,
      "chip": "ym2612"
    },
    {
      "channel": 1,
      "note": 60,
      "start": 38.6729,
      "duration": 0.0814,
      "velocity": 101,
      "chip": "ym2612"
    },
    {
      "channel": 2,
      "note": 60,
      "start": 38.6747,
      "duration": 0.0182,
      "velocity": 113,
      "chip": "ym2612"
    },
    {
      "channel": 3,
      "note": 64,
      "start": 38.6768,
      "duration": 0.0168,
      "velocity": 127,
      "chip": "ym2612"
    },
    {
      "channel": 4,
      "note": 72,
      "start": 38.6785,
      "duration": 2.6932,
      "velocity": 93,
      "chip": "ym2612"
    },
    {
      "channel": 5,
      "note": 55,
      "start": 38.6802,
      "duration": 0.0137,
      "velocity": 113,
      "chip": "ym2612"
    },
    {
      "channel": 1,
      "note": 60,
      "start": 38.7974,
      "duration": 0.0815,
      "velocity": 101,
      "chip": "ym2612"
    },
    {
      "channel": 2,
      "note": 60,
      "start": 38.7991,
      "duration": 0.0176,
      "velocity": 113,
      "chip": "ym2612"
    },
    {
      "channel": 3,
      "note": 64,
      "start": 38.8044,
      "duration": 0.013,
      "velocity": 127,
      "chip": "ym2612"
    },
    {
      "channel": 5,
      "note": 55,
      "start": 38.8063,
      "duration": 0.0115,
      "velocity": 113,
      "chip": "ym2612"
    },
    {
      "channel": 1,
      "note": 60,
      "start": 38.922,
      "duration": 0.0816,
      "velocity": 101,
      "chip": "ym2612"
    },
    {
      "channel": 2,
      "note": 60,
      "start": 38.9238,
      "duration": 0.0176,
      "velocity": 113,
      "chip": "ym2612"
    },
    {
      "channel": 3,
      "note": 64,
      "start": 38.929,
      "duration": 0.013,
      "velocity": 127,
      "chip": "ym2612"
    },
    {
      "channel": 5,
      "note": 55,
      "start": 38.931,
      "duration": 0.0115,
      "velocity": 113,
      "chip": "ym2612"
    },
    {
      "channel": 1,
      "note": 60,
      "start": 39.0466,
      "duration": 0.0814,
      "velocity": 101,
      "chip": "ym2612"
    },
    {
      "channel": 2,
      "note": 60,
      "start": 39.0484,
      "duration": 0.0175,
      "velocity": 113,
      "chip": "ym2612"
    },
    {
      "channel": 3,
      "note": 64,
      "start": 39.0537,
      "duration": 0.0129,
      "velocity": 127,
      "chip": "ym2612"
    },
    {
      "channel": 5,
      "note": 55,
      "start": 39.0556,
      "duration": 0.0114,
      "velocity": 113,
      "chip": "ym2612"
    },
    {
      "channel": 1,
      "note": 60,
      "start": 39.1712,
      "duration": 0.0821,
      "velocity": 101,
      "chip": "ym2612"
    },
    {
      "channel": 2,
      "note": 71,
      "start": 39.1729,
      "duration": 0.2045,
      "velocity": 113,
      "chip": "ym2612"
    },
    {
      "channel": 3,
      "note": 64,
      "start": 39.1784,
      "duration": 0.0127,
      "velocity": 127,
      "chip": "ym2612"
    },
    {
      "channel": 5,
      "note": 66,
      "start": 39.1803,
      "duration": 0.198,
      "velocity": 113,
      "chip": "ym2612"
    },
    {
      "channel": 1,
      "note": 60,
      "start": 39.2957,
      "duration": 0.0815,
      "velocity": 101,
      "chip": "ym2612"
    },
    {
      "channel": 3,
      "note": 64,
      "start": 39.301,
      "duration": 0.0146,
      "velocity": 127,
      "chip": "ym2612"
    },
    {
      "channel": 1,
      "note": 60,
      "start": 39.4203,
      "duration": 0.0815,
      "velocity": 101,
      "chip": "ym2612"
    },
    {
      "channel": 2,
      "note": 60,
      "start": 39.4222,
      "duration": 0.0175,
      "velocity": 113,
      "chip": "ym2612"
    },
    {
      "channel": 3,
      "note": 64,
      "start": 39.4242,
      "duration": 0.0162,
      "velocity": 127,
      "chip": "ym2612"
    },
    {
      "channel": 5,
      "note": 55,
      "start": 39.4262,
      "duration": 0.0146,
      "velocity": 113,
      "chip": "ym2612"
    },
    {
      "channel": 1,
      "note": 60,
      "start": 39.5466,
      "duration": 0.0802,
      "velocity": 101,
      "chip": "ym2612"
    },
    {
      "channel": 2,
      "note": 60,
      "start": 39.5484,
      "duration": 0.0162,
      "velocity": 113,
      "chip": "ym2612"
    },
    {
      "channel": 3,
      "note": 64,
      "start": 39.5537,
      "duration": 0.0118,
      "velocity": 127,
      "chip": "ym2612"
    },
    {
      "channel": 5,
      "note": 55,
      "start": 39.5556,
      "duration": 0.0102,
      "velocity": 113,
      "chip": "ym2612"
    },
    {
      "channel": 1,
      "note": 60,
      "start": 39.6699,
      "duration": 0.0815,
      "velocity": 101,
      "chip": "ym2612"
    },
    {
      "channel": 2,
      "note": 60,
      "start": 39.6718,
      "duration": 0.0175,
      "velocity": 113,
      "chip": "ym2612"
    },
    {
      "channel": 3,
      "note": 64,
      "start": 39.677,
      "duration": 0.013,
      "velocity": 127,
      "chip": "ym2612"
    },
    {
      "channel": 5,
      "note": 55,
      "start": 39.6789,
      "duration": 0.0115,
      "velocity": 113,
      "chip": "ym2612"
    },
    {
      "channel": 1,
      "note": 60,
      "start": 39.7946,
      "duration": 0.0815,
      "velocity": 101,
      "chip": "ym2612"
    },
    {
      "channel": 2,
      "note": 60,
      "start": 39.7963,
      "duration": 0.018,
      "velocity": 113,
      "chip": "ym2612"
    },
    {
      "channel": 3,
      "note": 64,
      "start": 39.8016,
      "duration": 0.0134,
      "velocity": 127,
      "chip": "ym2612"
    },
    {
      "channel": 5,
      "note": 55,
      "start": 39.8052,
      "duration": 0.0106,
      "velocity": 113,
      "chip": "ym2612"
    },
    {
      "channel": 1,
      "note": 60,
      "start": 39.9222,
      "duration": 0.0784,
      "velocity": 101,
      "chip": "ym2612"
    },
    {
      "channel": 2,
      "note": 72,
      "start": 39.9241,
      "duration": 1.4471,
      "velocity": 113,
      "chip": "ym2612"
    },
    {
      "channel": 3,
      "note": 64,
      "start": 39.9298,
      "duration": 0.1954,
      "velocity": 127,
      "chip": "ym2612"
    },
    {
      "channel": 5,
      "note": 67,
      "start": 39.9322,
      "duration": 1.4396,
      "velocity": 113,
      "chip": "ym2612"
    },
    {
      "channel": 1,
      "note": 72,
      "start": 40.0436,
      "duration": 0.0812,
      "velocity": 101,
      "chip": "ym2612"
    },
    {
      "channel": 3,
      "note": 64,
      "start": 40.1686,
      "duration": 0.2061,
      "velocity": 127,
      "chip": "ym2612"
    },
    {
      "channel": 1,
      "note": 71,
      "start": 40.2923,
      "duration": 0.0819,
      "velocity": 101,
      "chip": "ym2612"
    },
    {
      "channel": 3,
      "note": 64,
      "start": 40.418,
      "duration": 0.2057,
      "velocity": 127,
      "chip": "ym2612"
    },
    {
      "channel": 1,
      "note": 70,
      "start": 40.5416,
      "duration": 0.0816,
      "velocity": 101,
      "chip": "ym2612"
    },
    {
      "channel": 3,
      "note": 64,
      "start": 40.6685,
      "duration": 0.2047,
      "velocity": 127,
      "chip": "ym2612"
    },
    {
      "channel": 1,
      "note": 67,
      "start": 40.7907,
      "duration": 0.0816,
      "velocity": 101,
      "chip": "ym2612"
    },
    {
      "channel": 3,
      "note": 64,
      "start": 40.9168,
      "duration": 0.2057,
      "velocity": 127,
      "chip": "ym2612"
    },
    {
      "channel": 1,
      "note": 66,
      "start": 41.0405,
      "duration": 0.081,
      "velocity": 101,
      "chip": "ym2612"
    },
    {
      "channel": 3,
      "note": 64,
      "start": 41.1658,
      "duration": 0.2057,
      "velocity": 127,
      "chip": "ym2612"
    },
    {
      "channel": 1,
      "note": 63,
      "start": 41.2891,
      "duration": 0.0817,
      "velocity": 101,
      "chip": "ym2612"
    },
    {
      "channel": 0,
      "note": 60,
      "start": 41.4183,
      "duration": 0.0359,
      "velocity": 113,
      "chip": "ym2612"
    },
    {
      "channel": 1,
      "note": 60,
      "start": 41.4245,
      "duration": 0.3408,
      "velocity": 101,
      "chip": "ym2612"
    },
    {
      "channel": 2,
      "note": 55,
      "start": 41.4307,
      "duration": 0.024,
      "velocity": 113,
      "chip": "ym2612"
    },
    {
      "channel": 3,
      "note": 64,
      "start": 41.4379,
      "duration": 0.0174,
      "velocity": 127,
      "chip": "ym2612"
    },
    {
      "channel": 4,
      "note": 60,
      "start": 41.4446,
      "duration": 0.011,
      "velocity": 120,
      "chip": "ym2612"
    },
    {
      "channel": 5,
      "note": 55,
      "start": 41.451,
      "duration": 0.0048,
      "velocity": 120,
      "chip": "ym2612"
    },
    {
      "channel": 0,
      "note": 60,
      "start": 41.5591,
      "duration": 0.0192,
      "velocity": 113,
      "chip": "ym2612"
    },
    {
      "channel": 2,
      "note": 55,
      "start": 41.561,
      "duration": 0.0176,
      "velocity": 113,
      "chip": "ym2612"
    },
    {
      "channel": 3,
      "note": 64,
      "start": 41.5663,
      "duration": 0.0131,
      "velocity": 127,
      "chip": "ym2612"
    },
    {
      "channel": 4,
      "note": 60,
      "start": 41.568,
      "duration": 0.0115,
      "velocity": 120,
      "chip": "ym2612"
    },
    {
      "channel": 5,
      "note": 55,
      "start": 41.5699,
      "duration": 0.0099,
      "velocity": 120,
      "chip": "ym2612"
    },
    {
      "channel": 0,
      "note": 60,
      "start": 41.6837,
      "duration": 0.02,
      "velocity": 113,
      "chip": "ym2612"
    },
    {
      "channel": 2,
      "note": 55,
      "start": 41.6856,
      "duration": 0.0184,
      "velocity": 113,
      "chip": "ym2612"
    },
    {
      "channel": 3,
      "note": 64,
      "start": 41.6876,
      "duration": 0.0171,
      "velocity": 127,
      "chip": "ym2612"
    },
    {
      "channel": 4,
      "note": 60,
      "start": 41.6894,
      "duration": 0.0155,
      "velocity": 120,
      "chip": "ym2612"
    },
    {
      "channel": 5,
      "note": 55,
      "start": 41.6912,
      "duration": 0.0139,
      "velocity": 120,
      "chip": "ym2612"
    },
    {
      "channel": 0,
      "note": 72,
      "start": 41.8083,
      "duration": 0.0,
      "velocity": 113,
      "chip": "ym2612"
    }
  ]
}