{
  "track_name": "17 - North Town",
  "duration_sec": 22.445,
  "sample_rate": 44100,
  "note_count": 119,
  "unique_pitches": 18,
  "pitch_range": 49,
  "avg_note_duration": 0.0725,
  "reconstruction_stats": {
    "notes_reconstructed": 119,
    "keyon_events": 119,
    "keyoff_events": 119,
    "orphan_keyons": 0,
    "unique_pitches": 18,
    "pitch_range": 49,
    "avg_duration_sec": 0.0725
  },
  "metadata": {
    "source": "T\\Traysia\\17 - North Town.vgm"
  },
  "notes": [
    {
      "channel": 2,
      "note": -1,
      "start": 0.0073,
      "duration": 0.0394,
      "velocity": 90,
      "chip": "ym2612"
    },
    {
      "channel": 1,
      "note": -1,
      "start": 0.0102,
      "duration": 0.0704,
      "velocity": 97,
      "chip": "ym2612"
    },
    {
      "channel": 3,
      "note": -1,
      "start": 0.0131,
      "duration": 0.137,
      "velocity": 97,
      "chip": "ym2612"
    },
    {
      "channel": 5,
      "note": -1,
      "start": 0.0164,
      "duration": 0.0312,
      "velocity": 90,
      "chip": "ym2612"
    },
    {
      "channel": 2,
      "note": 87,
      "start": 0.0501,
      "duration": 0.0317,
      "velocity": 90,
      "chip": "ym2612"
    },
    {
      "channel": 5,
      "note": 90,
      "start": 0.0516,
      "duration": 0.0312,
      "velocity": 90,
      "chip": "ym2612"
    },
    {
      "channel": 2,
      "note": 78,
      "start": 0.0852,
      "duration": 0.0323,
      "velocity": 90,
      "chip": "ym2612"
    },
    {
      "channel": 1,
      "note": 48,
      "start": 0.0861,
      "duration": 0.0652,
      "velocity": 97,
      "chip": "ym2612"
    },
    {
      "channel": 5,
      "note": 84,
      "start": 0.0873,
      "duration": 0.0312,
      "velocity": 90,
      "chip": "ym2612"
    },
    {
      "channel": 2,
      "note": 84,
      "start": 0.1209,
      "duration": 0.0316,
      "velocity": 90,
      "chip": "ym2612"
    },
    {
      "channel": 5,
      "note": 87,
      "start": 0.1224,
      "duration": 0.0311,
      "velocity": 90,
      "chip": "ym2612"
    },
    {
      "channel": 2,
      "note": 78,
      "start": 0.1559,
      "duration": 0.0332,
      "velocity": 90,
      "chip": "ym2612"
    },
    {
      "channel": 1,
      "note": 42,
      "start": 0.1567,
      "duration": 0.1354,
      "velocity": 97,
      "chip": "ym2612"
    },
    {
      "channel": 3,
      "note": 60,
      "start": 0.1575,
      "duration": 0.135,
      "velocity": 97,
      "chip": "ym2612"
    },
    {
      "channel": 5,
      "note": 84,
      "start": 0.1585,
      "duration": 0.0316,
      "velocity": 90,
      "chip": "ym2612"
    },
    {
      "channel": 2,
      "note": 87,
      "start": 0.1925,
      "duration": 0.032,
      "velocity": 90,
      "chip": "ym2612"
    },
    {
      "channel": 5,
      "note": 90,
      "start": 0.194,
      "duration": 0.0315,
      "velocity": 90,
      "chip": "ym2612"
    },
    {
      "channel": 2,
      "note": 78,
      "start": 0.228,
      "duration": 0.0316,
      "velocity": 90,
      "chip": "ym2612"
    },
    {
      "channel": 5,
      "note": 84,
      "start": 0.2294,
      "duration": 0.0311,
      "velocity": 90,
      "chip": "ym2612"
    },
    {
      "channel": 2,
      "note": 84,
      "start": 0.263,
      "duration": 0.0318,
      "velocity": 90,
      "chip": "ym2612"
    },
    {
      "channel": 5,
      "note": 87,
      "start": 0.2645,
      "duration": 0.0313,
      "velocity": 90,
      "chip": "ym2612"
    },
    {
      "channel": 2,
      "note": 78,
      "start": 0.2985,
      "duration": 0.0333,
      "velocity": 90,
      "chip": "ym2612"
    },
    {
      "channel": 1,
      "note": 47,
      "start": 0.2993,
      "duration": 0.0668,
      "velocity": 97,
      "chip": "ym2612"
    },
    {
      "channel": 3,
      "note": 66,
      "start": 0.3002,
      "duration": 0.1384,
      "velocity": 97,
      "chip": "ym2612"
    },
    {
      "channel": 5,
      "note": 84,
      "start": 0.3015,
      "duration": 0.0312,
      "velocity": 90,
      "chip": "ym2612"
    },
    {
      "channel": 2,
      "note": 87,
      "start": 0.3351,
      "duration": 0.0323,
      "velocity": 90,
      "chip": "ym2612"
    },
    {
      "channel": 5,
      "note": 90,
      "start": 0.3366,
      "duration": 0.0318,
      "velocity": 90,
      "chip": "ym2612"
    },
    {
      "channel": 2,
      "note": 78,
      "start": 0.371,
      "duration": 0.0336,
      "velocity": 90,
      "chip": "ym2612"
    },
    {
      "channel": 1,
      "note": 48,
      "start": 0.3717,
      "duration": 0.0682,
      "velocity": 97,
      "chip": "ym2612"
    },
    {
      "channel": 5,
      "note": 84,
      "start": 0.373,
      "duration": 0.0326,
      "velocity": 90,
      "chip": "ym2612"
    },
    {
      "channel": 2,
      "note": 84,
      "start": 0.4081,
      "duration": 0.0331,
      "velocity": 90,
      "chip": "ym2612"
    },
    {
      "channel": 5,
      "note": 87,
      "start": 0.4095,
      "duration": 0.0326,
      "velocity": 90,
      "chip": "ym2612"
    },
    {
      "channel": 2,
      "note": 78,
      "start": 0.4447,
      "duration": 0.0341,
      "velocity": 90,
      "chip": "ym2612"
    },
    {
      "channel": 1,
      "note": 42,
      "start": 0.4454,
      "duration": 0.1393,
      "velocity": 97,
      "chip": "ym2612"
    },
    {
      "channel": 3,
      "note": 60,
      "start": 0.4463,
      "duration": 0.1388,
      "velocity": 97,
      "chip": "ym2612"
    },
    {
      "channel": 5,
      "note": 84,
      "start": 0.4472,
      "duration": 0.0326,
      "velocity": 90,
      "chip": "ym2612"
    },
    {
      "channel": 2,
      "note": 87,
      "start": 0.4823,
      "duration": 0.0325,
      "velocity": 90,
      "chip": "ym2612"
    },
    {
      "channel": 5,
      "note": 90,
      "start": 0.4838,
      "duration": 0.0321,
      "velocity": 90,
      "chip": "ym2612"
    },
    {
      "channel": 2,
      "note": 78,
      "start": 0.5184,
      "duration": 0.0325,
      "velocity": 90,
      "chip": "ym2612"
    },
    {
      "channel": 5,
      "note": 84,
      "start": 0.5199,
      "duration": 0.0321,
      "velocity": 90,
      "chip": "ym2612"
    },
    {
      "channel": 2,
      "note": 84,
      "start": 0.5544,
      "duration": 0.033,
      "velocity": 90,
      "chip": "ym2612"
    },
    {
      "channel": 5,
      "note": 87,
      "start": 0.5559,
      "duration": 0.0326,
      "velocity": 90,
      "chip": "ym2612"
    },
    {
      "channel": 0,
      "note": -1,
      "start": 0.5926,
      "duration": 0.0686,
      "velocity": 105,
      "chip": "ym2612"
    },
    {
      "channel": 1,
      "note": 41,
      "start": 0.5939,
      "duration": 0.2851,
      "velocity": 97,
      "chip": "ym2612"
    },
    {
      "channel": 3,
      "note": 66,
      "start": 0.5947,
      "duration": 0.1379,
      "velocity": 97,
      "chip": "ym2612"
    },
    {
      "channel": 4,
      "note": -1,
      "start": 0.5976,
      "duration": 0.0646,
      "velocity": 105,
      "chip": "ym2612"
    },
    {
      "channel": 0,
      "note": 72,
      "start": 0.6661,
      "duration": 0.0674,
      "velocity": 105,
      "chip": "ym2612"
    },
    {
      "channel": 2,
      "note": 78,
      "start": 0.6669,
      "duration": 0.0669,
      "velocity": 90,
      "chip": "ym2612"
    },
    {
      "channel": 4,
      "note": 84,
      "start": 0.6681,
      "duration": 0.0664,
      "velocity": 105,
      "chip": "ym2612"
    },
    {
      "channel": 5,
      "note": 84,
      "start": 0.6689,
      "duration": 0.0659,
      "velocity": 90,
      "chip": "ym2612"
    },
    {
      "channel": 0,
      "note": 66,
      "start": 0.7384,
      "duration": 0.0998,
      "velocity": 105,
      "chip": "ym2612"
    },
    {
      "channel": 3,
      "note": 60,
      "start": 0.7398,
      "duration": 0.1363,
      "velocity": 97,
      "chip": "ym2612"
    },
    {
      "channel": 4,
      "note": 78,
      "start": 0.7406,
      "duration": 0.0986,
      "velocity": 105,
      "chip": "ym2612"
    },
    {
      "channel": 2,
      "note": 87,
      "start": 0.8086,
      "duration": 0.0685,
      "velocity": 90,
      "chip": "ym2612"
    },
    {
      "channel": 5,
      "note": 90,
      "start": 0.81,
      "duration": 0.068,
      "velocity": 90,
      "chip": "ym2612"
    },
    {
      "channel": 0,
      "note": 71,
      "start": 0.8446,
      "duration": 0.0152,
      "velocity": 105,
      "chip": "ym2612"
    },
    {
      "channel": 4,
      "note": 83,
      "start": 0.8461,
      "duration": 0.0147,
      "velocity": 105,
      "chip": "ym2612"
    },
    {
      "channel": 0,
      "note": 72,
      "start": 0.8632,
      "duration": 0.0152,
      "velocity": 105,
      "chip": "ym2612"
    },
    {
      "channel": 4,
      "note": 84,
      "start": 0.8647,
      "duration": 0.0148,
      "velocity": 105,
      "chip": "ym2612"
    },
    {
      "channel": 0,
      "note": 73,
      "start": 0.8819,
      "duration": 0.0661,
      "velocity": 105,
      "chip": "ym2612"
    },
    {
      "channel": 1,
      "note": 42,
      "start": 0.8832,
      "duration": 0.2799,
      "velocity": 97,
      "chip": "ym2612"
    },
    {
      "channel": 3,
      "note": 66,
      "start": 0.8841,
      "duration": 0.1354,
      "velocity": 97,
      "chip": "ym2612"
    },
    {
      "channel": 4,
      "note": 85,
      "start": 0.8849,
      "duration": 0.064,
      "velocity": 105,
      "chip": "ym2612"
    },
    {
      "channel": 0,
      "note": 72,
      "start": 0.9528,
      "duration": 0.0674,
      "velocity": 105,
      "chip": "ym2612"
    },
    {
      "channel": 2,
      "note": 84,
      "start": 0.9537,
      "duration": 0.0669,
      "velocity": 90,
      "chip": "ym2612"
    },
    {
      "channel": 4,
      "note": 84,
      "start": 0.9549,
      "duration": 0.0664,
      "velocity": 105,
      "chip": "ym2612"
    },
    {
      "channel": 5,
      "note": 89,
      "start": 0.9556,
      "duration": 0.066,
      "velocity": 90,
      "chip": "ym2612"
    },
    {
      "channel": 0,
      "note": 66,
      "start": 1.0252,
      "duration": 0.1343,
      "velocity": 105,
      "chip": "ym2612"
    },
    {
      "channel": 3,
      "note": 60,
      "start": 1.0266,
      "duration": 0.1337,
      "velocity": 97,
      "chip": "ym2612"
    },
    {
      "channel": 4,
      "note": 78,
      "start": 1.0274,
      "duration": 0.1332,
      "velocity": 105,
      "chip": "ym2612"
    },
    {
      "channel": 2,
      "note": 87,
      "start": 1.095,
      "duration": 0.0663,
      "velocity": 90,
      "chip": "ym2612"
    },
    {
      "channel": 5,
      "note": 90,
      "start": 1.0964,
      "duration": 0.0659,
      "velocity": 90,
      "chip": "ym2612"
    },
    {
      "channel": 0,
      "note": 65,
      "start": 1.1659,
      "duration": 0.0648,
      "velocity": 105,
      "chip": "ym2612"
    },
    {
      "channel": 1,
      "note": 41,
      "start": 1.1673,
      "duration": 0.2815,
      "velocity": 97,
      "chip": "ym2612"
    },
    {
      "channel": 3,
      "note": 66,
      "start": 1.1681,
      "duration": 0.1342,
      "velocity": 97,
      "chip": "ym2612"
    },
    {
      "channel": 4,
      "note": 77,
      "start": 1.169,
      "duration": 0.0627,
      "velocity": 105,
      "chip": "ym2612"
    },
    {
      "channel": 0,
      "note": 72,
      "start": 1.2356,
      "duration": 0.0676,
      "velocity": 105,
      "chip": "ym2612"
    },
    {
      "channel": 2,
      "note": 84,
      "start": 1.2364,
      "duration": 0.0671,
      "velocity": 90,
      "chip": "ym2612"
    },
    {
      "channel": 4,
      "note": 84,
      "start": 1.2376,
      "duration": 0.0666,
      "velocity": 105,
      "chip": "ym2612"
    },
    {
      "channel": 5,
      "note": 89,
      "start": 1.2384,
      "duration": 0.0661,
      "velocity": 90,
      "chip": "ym2612"
    },
    {
      "channel": 0,
      "note": 66,
      "start": 1.3081,
      "duration": 0.0998,
      "velocity": 105,
      "chip": "ym2612"
    },
    {
      "channel": 3,
      "note": 60,
      "start": 1.3095,
      "duration": 0.1364,
      "velocity": 97,
      "chip": "ym2612"
    },
    {
      "channel": 4,
      "note": 78,
      "start": 1.3103,
      "duration": 0.0986,
      "velocity": 105,
      "chip": "ym2612"
    },
    {
      "channel": 2,
      "note": 87,
      "start": 1.3785,
      "duration": 0.0684,
      "velocity": 90,
      "chip": "ym2612"
    },
    {
      "channel": 5,
      "note": 90,
      "start": 1.3799,
      "duration": 0.0679,
      "velocity": 90,
      "chip": "ym2612"
    },
    {
      "channel": 0,
      "note": 71,
      "start": 1.4143,
      "duration": 0.0153,
      "velocity": 105,
      "chip": "ym2612"
    },
    {
      "channel": 4,
      "note": 83,
      "start": 1.4158,
      "duration": 0.0148,
      "velocity": 105,
      "chip": "ym2612"
    },
    {
      "channel": 0,
      "note": 72,
      "start": 1.433,
      "duration": 0.0152,
      "velocity": 105,
      "chip": "ym2612"
    },
    {
      "channel": 4,
      "note": 84,
      "start": 1.4344,
      "duration": 0.0148,
      "velocity": 105,
      "chip": "ym2612"
    },
    {
      "channel": 0,
      "note": 73,
      "start": 1.4517,
      "duration": 0.2788,
      "velocity": 105,
      "chip": "ym2612"
    },
    {
      "channel": 1,
      "note": 42,
      "start": 1.453,
      "duration": 0.278,
      "velocity": 97,
      "chip": "ym2612"
    },
    {
      "channel": 3,
      "note": 66,
      "start": 1.4538,
      "duration": 0.1336,
      "velocity": 97,
      "chip": "ym2612"
    },
    {
      "channel": 4,
      "note": 85,
      "start": 1.4547,
      "duration": 0.2768,
      "velocity": 105,
      "chip": "ym2612"
    },
    {
      "channel": 2,
      "note": 84,
      "start": 1.5222,
      "duration": 0.0662,
      "velocity": 90,
      "chip": "ym2612"
    },
    {
      "channel": 5,
      "note": 89,
      "start": 1.5237,
      "duration": 0.0658,
      "velocity": 90,
      "chip": "ym2612"
    },
    {
      "channel": 3,
      "note": 60,
      "start": 1.5939,
      "duration": 0.1342,
      "velocity": 97,
      "chip": "ym2612"
    },
    {
      "channel": 2,
      "note": 87,
      "start": 1.6629,
      "duration": 0.0661,
      "velocity": 90,
      "chip": "ym2612"
    },
    {
      "channel": 5,
      "note": 90,
      "start": 1.6644,
      "duration": 0.0657,
      "velocity": 90,
      "chip": "ym2612"
    },
    {
      "channel": 2,
      "note": 84,
      "start": 1.7369,
      "duration": 0.0406,
      "velocity": 90,
      "chip": "ym2612"
    },
    {
      "channel": 1,
      "note": 41,
      "start": 1.7399,
      "duration": 0.0724,
      "velocity": 97,
      "chip": "ym2612"
    },
    {
      "channel": 3,
      "note": 66,
      "start": 1.7429,
      "duration": 0.1413,
      "velocity": 97,
      "chip": "ym2612"
    },
    {
      "channel": 5,
      "note": 89,
      "start": 1.7464,
      "duration": 0.0321,
      "velocity": 90,
      "chip": "ym2612"
    },
    {
      "channel": 2,
      "note": 87,
      "start": 1.781,
      "duration": 0.0326,
      "velocity": 90,
      "chip": "ym2612"
    },
    {
      "channel": 5,
      "note": 90,
      "start": 1.7824,
      "duration": 0.0321,
      "velocity": 90,
      "chip": "ym2612"
    },
    {
      "channel": 2,
      "note": 78,
      "start": 1.817,
      "duration": 0.0331,
      "velocity": 90,
      "chip": "ym2612"
    },
    {
      "channel": 1,
      "note": 48,
      "start": 1.8178,
      "duration": 0.0677,
      "velocity": 97,
      "chip": "ym2612"
    },
    {
      "channel": 5,
      "note": 84,
      "start": 1.8191,
      "duration": 0.0321,
      "velocity": 90,
      "chip": "ym2612"
    },
    {
      "channel": 2,
      "note": 84,
      "start": 1.8537,
      "duration": 0.0331,
      "velocity": 90,
      "chip": "ym2612"
    },
    {
      "channel": 5,
      "note": 87,
      "start": 1.8551,
      "duration": 0.0326,
      "velocity": 90,
      "chip": "ym2612"
    },
    {
      "channel": 2,
      "note": 78,
      "start": 1.8903,
      "duration": 0.0341,
      "velocity": 90,
      "chip": "ym2612"
    },
    {
      "channel": 1,
      "note": 42,
      "start": 1.8911,
      "duration": 0.1388,
      "velocity": 97,
      "chip": "ym2612"
    },
    {
      "channel": 3,
      "note": 60,
      "start": 1.8919,
      "duration": 0.1383,
      "velocity": 97,
      "chip": "ym2612"
    },
    {
      "channel": 5,
      "note": 84,
      "start": 1.8928,
      "duration": 0.0326,
      "velocity": 90,
      "chip": "ym2612"
    },
    {
      "channel": 2,
      "note": 87,
      "start": 1.9279,
      "duration": 0.0325,
      "velocity": 90,
      "chip": "ym2612"
    },
    {
      "channel": 5,
      "note": 90,
      "start": 1.9294,
      "duration": 0.0321,
      "velocity": 90,
      "chip": "ym2612"
    },
    {
      "channel": 2,
      "note": 78,
      "start": 1.964,
      "duration": 0.0325,
      "velocity": 90,
      "chip": "ym2612"
    },
    {
      "channel": 5,
      "note": 84,
      "start": 1.9655,
      "duration": 0.0321,
      "velocity": 90,
      "chip": "ym2612"
    },
    {
      "channel": 2,
      "note": 84,
      "start": 2.0,
      "duration": 0.0326,
      "velocity": 90,
      "chip": "ym2612"
    },
    {
      "channel": 5,
      "note": 87,
      "start": 2.0015,
      "duration": 0.0321,
      "velocity": 90,
      "chip": "ym2612"
    }
  ]
}