{
  "track_name": "17 - China Dragon",
  "duration_sec": 32.571,
  "sample_rate": 44100,
  "note_count": 985,
  "unique_pitches": 19,
  "pitch_range": 79,
  "avg_note_duration": 0.1316,
  "reconstruction_stats": {
    "notes_reconstructed": 985,
    "keyon_events": 985,
    "keyoff_events": 981,
    "orphan_keyons": 4,
    "unique_pitches": 19,
    "pitch_range": 79,
    "avg_duration_sec": 0.1316
  },
  "metadata": {
    "source": "S\\Sorcerian (Genesis)\\17 - China Dragon.vgz"
  },
  "notes": [
    {
      "channel": 1,
      "note": 112,
      "start": 0.0,
      "duration": 0.0,
      "velocity": 1,
      "chip": "ym2612"
    },
    {
      "channel": 1,
      "note": 56,
      "start": 0.0,
      "duration": 0.0783,
      "velocity": 91,
      "chip": "ym2612"
    },
    {
      "channel": 3,
      "note": 79,
      "start": 0.0,
      "duration": 0.0,
      "velocity": 1,
      "chip": "ym2612"
    },
    {
      "channel": 5,
      "note": 33,
      "start": 0.0045,
      "duration": 0.0747,
      "velocity": 102,
      "chip": "ym2612"
    },
    {
      "channel": 2,
      "note": 56,
      "start": 0.0078,
      "duration": 0.0719,
      "velocity": 120,
      "chip": "ym2612"
    },
    {
      "channel": 1,
      "note": 56,
      "start": 0.0789,
      "duration": 0.1102,
      "velocity": 91,
      "chip": "ym2612"
    },
    {
      "channel": 5,
      "note": 33,
      "start": 0.0796,
      "duration": 0.1103,
      "velocity": 102,
      "chip": "ym2612"
    },
    {
      "channel": 2,
      "note": 56,
      "start": 0.0803,
      "duration": 0.1102,
      "velocity": 120,
      "chip": "ym2612"
    },
    {
      "channel": 1,
      "note": 56,
      "start": 0.1896,
      "duration": 0.1106,
      "velocity": 91,
      "chip": "ym2612"
    },
    {
      "channel": 5,
      "note": 33,
      "start": 0.1904,
      "duration": 0.1107,
      "velocity": 102,
      "chip": "ym2612"
    },
    {
      "channel": 2,
      "note": 56,
      "start": 0.1911,
      "duration": 0.1105,
      "velocity": 120,
      "chip": "ym2612"
    },
    {
      "channel": 1,
      "note": 56,
      "start": 0.3007,
      "duration": 0.1113,
      "velocity": 91,
      "chip": "ym2612"
    },
    {
      "channel": 5,
      "note": 33,
      "start": 0.3015,
      "duration": 0.1135,
      "velocity": 83,
      "chip": "ym2612"
    },
    {
      "channel": 2,
      "note": 56,
      "start": 0.3022,
      "duration": 0.1137,
      "velocity": 120,
      "chip": "ym2612"
    },
    {
      "channel": 5,
      "note": 98,
      "start": 0.4157,
      "duration": 0.0914,
      "velocity": 83,
      "chip": "ym2612"
    },
    {
      "channel": 2,
      "note": 63,
      "start": 0.4165,
      "duration": 0.0912,
      "velocity": 120,
      "chip": "ym2612"
    },
    {
      "channel": 5,
      "note": 98,
      "start": 0.5075,
      "duration": 0.1111,
      "velocity": 83,
      "chip": "ym2612"
    },
    {
      "channel": 2,
      "note": 63,
      "start": 0.5082,
      "duration": 0.111,
      "velocity": 120,
      "chip": "ym2612"
    },
    {
      "channel": 1,
      "note": 68,
      "start": 0.6183,
      "duration": 0.1105,
      "velocity": 91,
      "chip": "ym2612"
    },
    {
      "channel": 5,
      "note": 98,
      "start": 0.6191,
      "duration": 0.1106,
      "velocity": 83,
      "chip": "ym2612"
    },
    {
      "channel": 2,
      "note": 63,
      "start": 0.6198,
      "duration": 0.1105,
      "velocity": 120,
      "chip": "ym2612"
    },
    {
      "channel": 1,
      "note": 68,
      "start": 0.7294,
      "duration": 0.1105,
      "velocity": 91,
      "chip": "ym2612"
    },
    {
      "channel": 5,
      "note": 98,
      "start": 0.7301,
      "duration": 0.1102,
      "velocity": 83,
      "chip": "ym2612"
    },
    {
      "channel": 2,
      "note": 63,
      "start": 0.7308,
      "duration": 0.1099,
      "velocity": 120,
      "chip": "ym2612"
    },
    {
      "channel": 2,
      "note": 68,
      "start": 0.8413,
      "duration": 0.0944,
      "velocity": 120,
      "chip": "ym2612"
    },
    {
      "channel": 2,
      "note": 68,
      "start": 0.9363,
      "duration": 0.111,
      "velocity": 120,
      "chip": "ym2612"
    },
    {
      "channel": 1,
      "note": 63,
      "start": 1.0469,
      "duration": 0.1106,
      "velocity": 91,
      "chip": "ym2612"
    },
    {
      "channel": 2,
      "note": 68,
      "start": 1.0478,
      "duration": 0.1106,
      "velocity": 120,
      "chip": "ym2612"
    },
    {
      "channel": 1,
      "note": 66,
      "start": 1.158,
      "duration": 0.1106,
      "velocity": 91,
      "chip": "ym2612"
    },
    {
      "channel": 2,
      "note": 68,
      "start": 1.159,
      "duration": 0.1106,
      "velocity": 120,
      "chip": "ym2612"
    },
    {
      "channel": 1,
      "note": 61,
      "start": 1.2691,
      "duration": 0.0947,
      "velocity": 91,
      "chip": "ym2612"
    },
    {
      "channel": 2,
      "note": 68,
      "start": 1.2702,
      "duration": 0.0946,
      "velocity": 120,
      "chip": "ym2612"
    },
    {
      "channel": 1,
      "note": 63,
      "start": 1.3644,
      "duration": 0.1105,
      "velocity": 91,
      "chip": "ym2612"
    },
    {
      "channel": 2,
      "note": 63,
      "start": 1.3654,
      "duration": 0.1105,
      "velocity": 120,
      "chip": "ym2612"
    },
    {
      "channel": 1,
      "note": 57,
      "start": 1.4755,
      "duration": 0.1106,
      "velocity": 91,
      "chip": "ym2612"
    },
    {
      "channel": 2,
      "note": 61,
      "start": 1.4778,
      "duration": 0.1092,
      "velocity": 120,
      "chip": "ym2612"
    },
    {
      "channel": 1,
      "note": 61,
      "start": 1.5866,
      "duration": 0.1106,
      "velocity": 91,
      "chip": "ym2612"
    },
    {
      "channel": 2,
      "note": 57,
      "start": 1.5876,
      "duration": 0.1139,
      "velocity": 120,
      "chip": "ym2612"
    },
    {
      "channel": 1,
      "note": 56,
      "start": 1.6978,
      "duration": 0.0946,
      "velocity": 91,
      "chip": "ym2612"
    },
    {
      "channel": 5,
      "note": 33,
      "start": 1.7014,
      "duration": 0.0933,
      "velocity": 102,
      "chip": "ym2612"
    },
    {
      "channel": 2,
      "note": 56,
      "start": 1.7022,
      "duration": 0.0931,
      "velocity": 120,
      "chip": "ym2612"
    },
    {
      "channel": 1,
      "note": 56,
      "start": 1.7931,
      "duration": 0.1105,
      "velocity": 91,
      "chip": "ym2612"
    },
    {
      "channel": 5,
      "note": 33,
      "start": 1.7951,
      "duration": 0.1094,
      "velocity": 102,
      "chip": "ym2612"
    },
    {
      "channel": 2,
      "note": 56,
      "start": 1.7959,
      "duration": 0.1092,
      "velocity": 120,
      "chip": "ym2612"
    },
    {
      "channel": 1,
      "note": 56,
      "start": 1.9041,
      "duration": 0.1106,
      "velocity": 91,
      "chip": "ym2612"
    },
    {
      "channel": 5,
      "note": 33,
      "start": 1.9049,
      "duration": 0.1107,
      "velocity": 102,
      "chip": "ym2612"
    },
    {
      "channel": 2,
      "note": 56,
      "start": 1.9056,
      "duration": 0.1106,
      "velocity": 120,
      "chip": "ym2612"
    },
    {
      "channel": 1,
      "note": 56,
      "start": 2.0153,
      "duration": 0.1105,
      "velocity": 91,
      "chip": "ym2612"
    },
    {
      "channel": 5,
      "note": 33,
      "start": 2.016,
      "duration": 0.1142,
      "velocity": 83,
      "chip": "ym2612"
    },
    {
      "channel": 2,
      "note": 56,
      "start": 2.0167,
      "duration": 0.1143,
      "velocity": 120,
      "chip": "ym2612"
    },
    {
      "channel": 5,
      "note": 98,
      "start": 2.1308,
      "duration": 0.0907,
      "velocity": 83,
      "chip": "ym2612"
    },
    {
      "channel": 2,
      "note": 63,
      "start": 2.1315,
      "duration": 0.0906,
      "velocity": 120,
      "chip": "ym2612"
    },
    {
      "channel": 5,
      "note": 98,
      "start": 2.2219,
      "duration": 0.1112,
      "velocity": 83,
      "chip": "ym2612"
    },
    {
      "channel": 2,
      "note": 63,
      "start": 2.2227,
      "duration": 0.111,
      "velocity": 120,
      "chip": "ym2612"
    },
    {
      "channel": 1,
      "note": 68,
      "start": 2.3328,
      "duration": 0.1118,
      "velocity": 91,
      "chip": "ym2612"
    },
    {
      "channel": 5,
      "note": 98,
      "start": 2.3336,
      "duration": 0.112,
      "velocity": 83,
      "chip": "ym2612"
    },
    {
      "channel": 2,
      "note": 63,
      "start": 2.3343,
      "duration": 0.1118,
      "velocity": 120,
      "chip": "ym2612"
    },
    {
      "channel": 1,
      "note": 68,
      "start": 2.4452,
      "duration": 0.1092,
      "velocity": 91,
      "chip": "ym2612"
    },
    {
      "channel": 5,
      "note": 98,
      "start": 2.446,
      "duration": 0.1089,
      "velocity": 83,
      "chip": "ym2612"
    },
    {
      "channel": 2,
      "note": 63,
      "start": 2.4467,
      "duration": 0.1085,
      "velocity": 120,
      "chip": "ym2612"
    },
    {
      "channel": 2,
      "note": 68,
      "start": 2.5558,
      "duration": 0.0945,
      "velocity": 120,
      "chip": "ym2612"
    },
    {
      "channel": 2,
      "note": 68,
      "start": 2.6509,
      "duration": 0.1118,
      "velocity": 120,
      "chip": "ym2612"
    },
    {
      "channel": 1,
      "note": 63,
      "start": 2.7622,
      "duration": 0.1098,
      "velocity": 91,
      "chip": "ym2612"
    },
    {
      "channel": 2,
      "note": 68,
      "start": 2.7632,
      "duration": 0.1097,
      "velocity": 120,
      "chip": "ym2612"
    },
    {
      "channel": 1,
      "note": 66,
      "start": 2.8726,
      "duration": 0.1105,
      "velocity": 91,
      "chip": "ym2612"
    },
    {
      "channel": 2,
      "note": 68,
      "start": 2.8735,
      "duration": 0.1106,
      "velocity": 120,
      "chip": "ym2612"
    },
    {
      "channel": 1,
      "note": 61,
      "start": 2.9837,
      "duration": 0.0946,
      "velocity": 91,
      "chip": "ym2612"
    },
    {
      "channel": 2,
      "note": 68,
      "start": 2.9846,
      "duration": 0.0946,
      "velocity": 120,
      "chip": "ym2612"
    },
    {
      "channel": 1,
      "note": 63,
      "start": 3.0789,
      "duration": 0.1106,
      "velocity": 91,
      "chip": "ym2612"
    },
    {
      "channel": 2,
      "note": 63,
      "start": 3.0799,
      "duration": 0.1106,
      "velocity": 120,
      "chip": "ym2612"
    },
    {
      "channel": 1,
      "note": 57,
      "start": 3.1901,
      "duration": 0.1105,
      "velocity": 91,
      "chip": "ym2612"
    },
    {
      "channel": 2,
      "note": 61,
      "start": 3.191,
      "duration": 0.1105,
      "velocity": 120,
      "chip": "ym2612"
    },
    {
      "channel": 1,
      "note": 61,
      "start": 3.3011,
      "duration": 0.1139,
      "velocity": 91,
      "chip": "ym2612"
    },
    {
      "channel": 2,
      "note": 57,
      "start": 3.3022,
      "duration": 0.1231,
      "velocity": 120,
      "chip": "ym2612"
    },
    {
      "channel": 0,
      "note": 92,
      "start": 3.4149,
      "duration": 1.7114,
      "velocity": 105,
      "chip": "ym2612"
    },
    {
      "channel": 1,
      "note": 56,
      "start": 3.4156,
      "duration": 0.0916,
      "velocity": 91,
      "chip": "ym2612"
    },
    {
      "channel": 5,
      "note": 33,
      "start": 3.4252,
      "duration": 0.0829,
      "velocity": 102,
      "chip": "ym2612"
    },
    {
      "channel": 2,
      "note": 56,
      "start": 3.426,
      "duration": 0.0827,
      "velocity": 120,
      "chip": "ym2612"
    },
    {
      "channel": 1,
      "note": 56,
      "start": 3.5078,
      "duration": 0.1105,
      "velocity": 91,
      "chip": "ym2612"
    },
    {
      "channel": 5,
      "note": 33,
      "start": 3.5086,
      "duration": 0.1107,
      "velocity": 102,
      "chip": "ym2612"
    },
    {
      "channel": 2,
      "note": 56,
      "start": 3.5093,
      "duration": 0.1106,
      "velocity": 120,
      "chip": "ym2612"
    },
    {
      "channel": 1,
      "note": 56,
      "start": 3.6189,
      "duration": 0.1106,
      "velocity": 91,
      "chip": "ym2612"
    },
    {
      "channel": 5,
      "note": 33,
      "start": 3.6197,
      "duration": 0.1107,
      "velocity": 102,
      "chip": "ym2612"
    },
    {
      "channel": 2,
      "note": 56,
      "start": 3.6205,
      "duration": 0.1105,
      "velocity": 120,
      "chip": "ym2612"
    },
    {
      "channel": 1,
      "note": 56,
      "start": 3.7301,
      "duration": 0.1106,
      "velocity": 91,
      "chip": "ym2612"
    },
    {
      "channel": 5,
      "note": 33,
      "start": 3.7308,
      "duration": 0.1159,
      "velocity": 83,
      "chip": "ym2612"
    },
    {
      "channel": 2,
      "note": 56,
      "start": 3.7316,
      "duration": 0.1159,
      "velocity": 120,
      "chip": "ym2612"
    },
    {
      "channel": 3,
      "note": 80,
      "start": 3.8417,
      "duration": 0.6347,
      "velocity": 105,
      "chip": "ym2612"
    },
    {
      "channel": 4,
      "note": 75,
      "start": 3.8426,
      "duration": 0.6356,
      "velocity": 105,
      "chip": "ym2612"
    },
    {
      "channel": 5,
      "note": 98,
      "start": 3.8474,
      "duration": 0.0896,
      "velocity": 83,
      "chip": "ym2612"
    },
    {
      "channel": 2,
      "note": 63,
      "start": 3.8481,
      "duration": 0.0895,
      "velocity": 120,
      "chip": "ym2612"
    },
    {
      "channel": 5,
      "note": 98,
      "start": 3.9374,
      "duration": 0.1113,
      "velocity": 83,
      "chip": "ym2612"
    },
    {
      "channel": 2,
      "note": 63,
      "start": 3.9382,
      "duration": 0.1111,
      "velocity": 120,
      "chip": "ym2612"
    },
    {
      "channel": 1,
      "note": 68,
      "start": 4.0476,
      "duration": 0.1105,
      "velocity": 91,
      "chip": "ym2612"
    },
    {
      "channel": 5,
      "note": 98,
      "start": 4.0491,
      "duration": 0.112,
      "velocity": 83,
      "chip": "ym2612"
    },
    {
      "channel": 2,
      "note": 63,
      "start": 4.0499,
      "duration": 0.1118,
      "velocity": 120,
      "chip": "ym2612"
    },
    {
      "channel": 1,
      "note": 68,
      "start": 4.1588,
      "duration": 0.1105,
      "velocity": 91,
      "chip": "ym2612"
    },
    {
      "channel": 5,
      "note": 98,
      "start": 4.1616,
      "duration": 0.109,
      "velocity": 83,
      "chip": "ym2612"
    },
    {
      "channel": 2,
      "note": 63,
      "start": 4.1623,
      "duration": 0.1086,
      "velocity": 120,
      "chip": "ym2612"
    },
    {
      "channel": 2,
      "note": 68,
      "start": 4.2715,
      "duration": 0.0943,
      "velocity": 120,
      "chip": "ym2612"
    },
    {
      "channel": 2,
      "note": 68,
      "start": 4.3664,
      "duration": 0.1122,
      "velocity": 120,
      "chip": "ym2612"
    },
    {
      "channel": 1,
      "note": 63,
      "start": 4.4763,
      "duration": 0.1106,
      "velocity": 91,
      "chip": "ym2612"
    },
    {
      "channel": 2,
      "note": 68,
      "start": 4.4791,
      "duration": 0.1087,
      "velocity": 120,
      "chip": "ym2612"
    },
    {
      "channel": 1,
      "note": 66,
      "start": 4.5874,
      "duration": 0.1105,
      "velocity": 91,
      "chip": "ym2612"
    },
    {
      "channel": 2,
      "note": 68,
      "start": 4.5883,
      "duration": 0.1106,
      "velocity": 120,
      "chip": "ym2612"
    },
    {
      "channel": 1,
      "note": 61,
      "start": 4.6985,
      "duration": 0.0959,
      "velocity": 91,
      "chip": "ym2612"
    },
    {
      "channel": 2,
      "note": 68,
      "start": 4.6995,
      "duration": 0.096,
      "velocity": 120,
      "chip": "ym2612"
    },
    {
      "channel": 1,
      "note": 63,
      "start": 4.795,
      "duration": 0.1093,
      "velocity": 91,
      "chip": "ym2612"
    },
    {
      "channel": 2,
      "note": 63,
      "start": 4.7961,
      "duration": 0.1093,
      "velocity": 120,
      "chip": "ym2612"
    },
    {
      "channel": 1,
      "note": 57,
      "start": 4.9049,
      "duration": 0.1106,
      "velocity": 91,
      "chip": "ym2612"
    },
    {
      "channel": 2,
      "note": 61,
      "start": 4.906,
      "duration": 0.1105,
      "velocity": 120,
      "chip": "ym2612"
    },
    {
      "channel": 1,
      "note": 61,
      "start": 5.0161,
      "duration": 0.1123,
      "velocity": 91,
      "chip": "ym2612"
    },
    {
      "channel": 2,
      "note": 57,
      "start": 5.017,
      "duration": 0.1225,
      "velocity": 120,
      "chip": "ym2612"
    },
    {
      "channel": 0,
      "note": 90,
      "start": 5.1282,
      "duration": 3.4272,
      "velocity": 105,
      "chip": "ym2612"
    },
    {
      "channel": 1,
      "note": 56,
      "start": 5.129,
      "duration": 0.0928,
      "velocity": 91,
      "chip": "ym2612"
    },
    {
      "channel": 3,
      "note": 92,
      "start": 5.1325,
      "duration": 0.09,
      "velocity": 74,
      "chip": "ym2612"
    },
    {
      "channel": 4,
      "note": 87,
      "start": 5.136,
      "duration": 0.0873,
      "velocity": 74,
      "chip": "ym2612"
    },
    {
      "channel": 5,
      "note": 33,
      "start": 5.1394,
      "duration": 0.0847,
      "velocity": 102,
      "chip": "ym2612"
    },
    {
      "channel": 2,
      "note": 56,
      "start": 5.1401,
      "duration": 0.0845,
      "velocity": 120,
      "chip": "ym2612"
    },
    {
      "channel": 1,
      "note": 56,
      "start": 5.2224,
      "duration": 0.1105,
      "velocity": 91,
      "chip": "ym2612"
    },
    {
      "channel": 3,
      "note": 90,
      "start": 5.2232,
      "duration": 0.1105,
      "velocity": 74,
      "chip": "ym2612"
    },
    {
      "channel": 4,
      "note": 85,
      "start": 5.2239,
      "duration": 0.1105,
      "velocity": 74,
      "chip": "ym2612"
    },
    {
      "channel": 5,
      "note": 33,
      "start": 5.2245,
      "duration": 0.1107,
      "velocity": 102,
      "chip": "ym2612"
    },
    {
      "channel": 2,
      "note": 56,
      "start": 5.2252,
      "duration": 0.1106,
      "velocity": 120,
      "chip": "ym2612"
    },
    {
      "channel": 1,
      "note": 56,
      "start": 5.3334,
      "duration": 0.1118,
      "velocity": 91,
      "chip": "ym2612"
    },
    {
      "channel": 3,
      "note": 92,
      "start": 5.3342,
      "duration": 0.2239,
      "velocity": 100,
      "chip": "ym2612"
    },
    {
      "channel": 4,
      "note": 87,
      "start": 5.335,
      "duration": 0.2279,
      "velocity": 100,
      "chip": "ym2612"
    },
    {
      "channel": 5,
      "note": 33,
      "start": 5.3356,
      "duration": 0.1111,
      "velocity": 102,
      "chip": "ym2612"
    },
    {
      "channel": 2,
      "note": 56,
      "start": 5.3363,
      "duration": 0.111,
      "velocity": 120,
      "chip": "ym2612"
    },
    {
      "channel": 1,
      "note": 56,
      "start": 5.4459,
      "duration": 0.1093,
      "velocity": 91,
      "chip": "ym2612"
    },
    {
      "channel": 5,
      "note": 33,
      "start": 5.4471,
      "duration": 0.1192,
      "velocity": 83,
      "chip": "ym2612"
    },
    {
      "channel": 2,
      "note": 56,
      "start": 5.4479,
      "duration": 0.1191,
      "velocity": 120,
      "chip": "ym2612"
    },
    {
      "channel": 3,
      "note": 80,
      "start": 5.5588,
      "duration": 0.0919,
      "velocity": 100,
      "chip": "ym2612"
    },
    {
      "channel": 4,
      "note": 75,
      "start": 5.5635,
      "duration": 0.0879,
      "velocity": 100,
      "chip": "ym2612"
    },
    {
      "channel": 5,
      "note": 98,
      "start": 5.5669,
      "duration": 0.0852,
      "velocity": 83,
      "chip": "ym2612"
    },
    {
      "channel": 2,
      "note": 63,
      "start": 5.5676,
      "duration": 0.0852,
      "velocity": 120,
      "chip": "ym2612"
    },
    {
      "channel": 3,
      "note": 80,
      "start": 5.6513,
      "duration": 0.1115,
      "velocity": 100,
      "chip": "ym2612"
    },
    {
      "channel": 4,
      "note": 75,
      "start": 5.652,
      "duration": 0.1114,
      "velocity": 100,
      "chip": "ym2612"
    },
    {
      "channel": 5,
      "note": 98,
      "start": 5.6526,
      "duration": 0.1116,
      "velocity": 83,
      "chip": "ym2612"
    },
    {
      "channel": 2,
      "note": 63,
      "start": 5.6534,
      "duration": 0.1114,
      "velocity": 120,
      "chip": "ym2612"
    },
    {
      "channel": 1,
      "note": 68,
      "start": 5.7625,
      "duration": 0.1101,
      "velocity": 91,
      "chip": "ym2612"
    },
    {
      "channel": 3,
      "note": 80,
      "start": 5.7633,
      "duration": 0.1101,
      "velocity": 100,
      "chip": "ym2612"
    },
    {
      "channel": 4,
      "note": 75,
      "start": 5.764,
      "duration": 0.1101,
      "velocity": 100,
      "chip": "ym2612"
    },
    {
      "channel": 5,
      "note": 98,
      "start": 5.7646,
      "duration": 0.1102,
      "velocity": 83,
      "chip": "ym2612"
    },
    {
      "channel": 2,
      "note": 63,
      "start": 5.7653,
      "duration": 0.1101,
      "velocity": 120,
      "chip": "ym2612"
    },
    {
      "channel": 1,
      "note": 68,
      "start": 5.8732,
      "duration": 0.1106,
      "velocity": 91,
      "chip": "ym2612"
    },
    {
      "channel": 3,
      "note": 80,
      "start": 5.874,
      "duration": 0.1129,
      "velocity": 74,
      "chip": "ym2612"
    },
    {
      "channel": 4,
      "note": 75,
      "start": 5.8747,
      "duration": 0.1156,
      "velocity": 74,
      "chip": "ym2612"
    },
    {
      "channel": 5,
      "note": 98,
      "start": 5.8753,
      "duration": 0.1158,
      "velocity": 83,
      "chip": "ym2612"
    },
    {
      "channel": 2,
      "note": 63,
      "start": 5.876,
      "duration": 0.1154,
      "velocity": 120,
      "chip": "ym2612"
    },
    {
      "channel": 3,
      "note": 85,
      "start": 5.9875,
      "duration": 0.0919,
      "velocity": 74,
      "chip": "ym2612"
    },
    {
      "channel": 4,
      "note": 80,
      "start": 5.991,
      "duration": 0.0892,
      "velocity": 74,
      "chip": "ym2612"
    },
    {
      "channel": 2,
      "note": 68,
      "start": 5.992,
      "duration": 0.089,
      "velocity": 120,
      "chip": "ym2612"
    },
    {
      "channel": 3,
      "note": 83,
      "start": 6.08,
      "duration": 0.1109,
      "velocity": 74,
      "chip": "ym2612"
    },
    {
      "channel": 4,
      "note": 78,
      "start": 6.0807,
      "duration": 0.111,
      "velocity": 74,
      "chip": "ym2612"
    },
    {
      "channel": 2,
      "note": 68,
      "start": 6.0815,
      "duration": 0.111,
      "velocity": 120,
      "chip": "ym2612"
    },
    {
      "channel": 1,
      "note": 63,
      "start": 6.1908,
      "duration": 0.1105,
      "velocity": 91,
      "chip": "ym2612"
    },
    {
      "channel": 3,
      "note": 85,
      "start": 6.1915,
      "duration": 0.2243,
      "velocity": 100,
      "chip": "ym2612"
    },
    {
      "channel": 4,
      "note": 80,
      "start": 6.1923,
      "duration": 0.227,
      "velocity": 100,
      "chip": "ym2612"
    },
    {
      "channel": 2,
      "note": 68,
      "start": 6.1931,
      "duration": 0.1097,
      "velocity": 120,
      "chip": "ym2612"
    },
    {
      "channel": 1,
      "note": 66,
      "start": 6.3019,
      "duration": 0.1105,
      "velocity": 91,
      "chip": "ym2612"
    },
    {
      "channel": 2,
      "note": 68,
      "start": 6.3034,
      "duration": 0.1167,
      "velocity": 120,
      "chip": "ym2612"
    },
    {
      "channel": 1,
      "note": 61,
      "start": 6.413,
      "duration": 0.0947,
      "velocity": 91,
      "chip": "ym2612"
    },
    {
      "channel": 3,
      "note": 68,
      "start": 6.4165,
      "duration": 0.0919,
      "velocity": 100,
      "chip": "ym2612"
    },
    {
      "channel": 4,
      "note": 63,
      "start": 6.4199,
      "duration": 0.0892,
      "velocity": 100,
      "chip": "ym2612"
    },
    {
      "channel": 2,
      "note": 68,
      "start": 6.4207,
      "duration": 0.0905,
      "velocity": 120,
      "chip": "ym2612"
    },
    {
      "channel": 1,
      "note": 63,
      "start": 6.5083,
      "duration": 0.1106,
      "velocity": 91,
      "chip": "ym2612"
    },
    {
      "channel": 3,
      "note": 68,
      "start": 6.509,
      "duration": 0.1106,
      "velocity": 100,
      "chip": "ym2612"
    },
    {
      "channel": 4,
      "note": 63,
      "start": 6.5097,
      "duration": 0.1105,
      "velocity": 100,
      "chip": "ym2612"
    },
    {
      "channel": 2,
      "note": 63,
      "start": 6.5118,
      "duration": 0.1093,
      "velocity": 120,
      "chip": "ym2612"
    },
    {
      "channel": 1,
      "note": 57,
      "start": 6.6194,
      "duration": 0.1106,
      "velocity": 91,
      "chip": "ym2612"
    },
    {
      "channel": 3,
      "note": 68,
      "start": 6.6201,
      "duration": 0.1106,
      "velocity": 100,
      "chip": "ym2612"
    },
    {
      "channel": 4,
      "note": 63,
      "start": 6.6209,
      "duration": 0.1105,
      "velocity": 100,
      "chip": "ym2612"
    },
    {
      "channel": 2,
      "note": 61,
      "start": 6.6217,
      "duration": 0.1106,
      "velocity": 120,
      "chip": "ym2612"
    },
    {
      "channel": 1,
      "note": 61,
      "start": 6.7305,
      "duration": 0.1106,
      "velocity": 91,
      "chip": "ym2612"
    },
    {
      "channel": 3,
      "note": 68,
      "start": 6.7312,
      "duration": 0.1147,
      "velocity": 74,
      "chip": "ym2612"
    },
    {
      "channel": 4,
      "note": 63,
      "start": 6.732,
      "duration": 0.1174,
      "velocity": 74,
      "chip": "ym2612"
    },
    {
      "channel": 2,
      "note": 57,
      "start": 6.7328,
      "duration": 0.1208,
      "velocity": 120,
      "chip": "ym2612"
    },
    {
      "channel": 1,
      "note": 56,
      "start": 6.8417,
      "duration": 0.0946,
      "velocity": 91,
      "chip": "ym2612"
    },
    {
      "channel": 3,
      "note": 92,
      "start": 6.8466,
      "duration": 0.0905,
      "velocity": 74,
      "chip": "ym2612"
    },
    {
      "channel": 4,
      "note": 87,
      "start": 6.85,
      "duration": 0.0878,
      "velocity": 74,
      "chip": "ym2612"
    },
    {
      "channel": 5,
      "note": 33,
      "start": 6.8534,
      "duration": 0.0852,
      "velocity": 102,
      "chip": "ym2612"
    },
    {
      "channel": 2,
      "note": 56,
      "start": 6.8542,
      "duration": 0.085,
      "velocity": 120,
      "chip": "ym2612"
    },
    {
      "channel": 1,
      "note": 56,
      "start": 6.9369,
      "duration": 0.1105,
      "velocity": 91,
      "chip": "ym2612"
    },
    {
      "channel": 3,
      "note": 90,
      "start": 6.9377,
      "duration": 0.1104,
      "velocity": 74,
      "chip": "ym2612"
    },
    {
      "channel": 4,
      "note": 85,
      "start": 6.9385,
      "duration": 0.1104,
      "velocity": 74,
      "chip": "ym2612"
    },
    {
      "channel": 5,
      "note": 33,
      "start": 6.939,
      "duration": 0.1106,
      "velocity": 102,
      "chip": "ym2612"
    },
    {
      "channel": 2,
      "note": 56,
      "start": 6.9398,
      "duration": 0.1105,
      "velocity": 120,
      "chip": "ym2612"
    },
    {
      "channel": 1,
      "note": 56,
      "start": 7.048,
      "duration": 0.1105,
      "velocity": 91,
      "chip": "ym2612"
    },
    {
      "channel": 3,
      "note": 92,
      "start": 7.0488,
      "duration": 0.2212,
      "velocity": 74,
      "chip": "ym2612"
    },
    {
      "channel": 4,
      "note": 87,
      "start": 7.0495,
      "duration": 0.2207,
      "velocity": 74,
      "chip": "ym2612"
    },
    {
      "channel": 5,
      "note": 33,
      "start": 7.0501,
      "duration": 0.1112,
      "velocity": 102,
      "chip": "ym2612"
    },
    {
      "channel": 2,
      "note": 56,
      "start": 7.0508,
      "duration": 0.1111,
      "velocity": 120,
      "chip": "ym2612"
    },
    {
      "channel": 1,
      "note": 56,
      "start": 7.1591,
      "duration": 0.1105,
      "velocity": 91,
      "chip": "ym2612"
    },
    {
      "channel": 5,
      "note": 33,
      "start": 7.1617,
      "duration": 0.1115,
      "velocity": 83,
      "chip": "ym2612"
    },
    {
      "channel": 2,
      "note": 56,
      "start": 7.1624,
      "duration": 0.1115,
      "velocity": 120,
      "chip": "ym2612"
    },
    {
      "channel": 5,
      "note": 98,
      "start": 7.2738,
      "duration": 0.0916,
      "velocity": 83,
      "chip": "ym2612"
    },
    {
      "channel": 2,
      "note": 63,
      "start": 7.2745,
      "duration": 0.0915,
      "velocity": 120,
      "chip": "ym2612"
    },
    {
      "channel": 5,
      "note": 98,
      "start": 7.3659,
      "duration": 0.1124,
      "velocity": 83,
      "chip": "ym2612"
    },
    {
      "channel": 2,
      "note": 63,
      "start": 7.3666,
      "duration": 0.1123,
      "velocity": 120,
      "chip": "ym2612"
    },
    {
      "channel": 1,
      "note": 68,
      "start": 7.478,
      "duration": 0.1092,
      "velocity": 91,
      "chip": "ym2612"
    },
    {
      "channel": 5,
      "note": 98,
      "start": 7.4787,
      "duration": 0.1094,
      "velocity": 83,
      "chip": "ym2612"
    },
    {
      "channel": 2,
      "note": 63,
      "start": 7.4794,
      "duration": 0.1092,
      "velocity": 120,
      "chip": "ym2612"
    },
    {
      "channel": 1,
      "note": 68,
      "start": 7.5878,
      "duration": 0.1106,
      "velocity": 91,
      "chip": "ym2612"
    },
    {
      "channel": 5,
      "note": 98,
      "start": 7.5885,
      "duration": 0.1171,
      "velocity": 83,
      "chip": "ym2612"
    },
    {
      "channel": 2,
      "note": 63,
      "start": 7.5892,
      "duration": 0.1167,
      "velocity": 120,
      "chip": "ym2612"
    },
    {
      "channel": 3,
      "note": 92,
      "start": 7.702,
      "duration": 0.0932,
      "velocity": 100,
      "chip": "ym2612"
    },
    {
      "channel": 4,
      "note": 87,
      "start": 7.7055,
      "duration": 0.0905,
      "velocity": 100,
      "chip": "ym2612"
    },
    {
      "channel": 2,
      "note": 68,
      "start": 7.7065,
      "duration": 0.0903,
      "velocity": 120,
      "chip": "ym2612"
    },
    {
      "channel": 3,
      "note": 92,
      "start": 7.7958,
      "duration": 0.1097,
      "velocity": 100,
      "chip": "ym2612"
    },
    {
      "channel": 4,
      "note": 87,
      "start": 7.7966,
      "duration": 0.1097,
      "velocity": 100,
      "chip": "ym2612"
    },
    {
      "channel": 2,
      "note": 68,
      "start": 7.7974,
      "duration": 0.1097,
      "velocity": 120,
      "chip": "ym2612"
    },
    {
      "channel": 1,
      "note": 63,
      "start": 7.9053,
      "duration": 0.1105,
      "velocity": 91,
      "chip": "ym2612"
    },
    {
      "channel": 3,
      "note": 92,
      "start": 7.9061,
      "duration": 0.1104,
      "velocity": 100,
      "chip": "ym2612"
    },
    {
      "channel": 4,
      "note": 87,
      "start": 7.9068,
      "duration": 0.1105,
      "velocity": 100,
      "chip": "ym2612"
    },
    {
      "channel": 2,
      "note": 68,
      "start": 7.9076,
      "duration": 0.1105,
      "velocity": 120,
      "chip": "ym2612"
    },
    {
      "channel": 1,
      "note": 66,
      "start": 8.0164,
      "duration": 0.1118,
      "velocity": 91,
      "chip": "ym2612"
    },
    {
      "channel": 3,
      "note": 92,
      "start": 8.0172,
      "duration": 0.1146,
      "velocity": 74,
      "chip": "ym2612"
    },
    {
      "channel": 4,
      "note": 87,
      "start": 8.0179,
      "duration": 0.1173,
      "velocity": 74,
      "chip": "ym2612"
    },
    {
      "channel": 2,
      "note": 68,
      "start": 8.0187,
      "duration": 0.1174,
      "velocity": 120,
      "chip": "ym2612"
    },
    {
      "channel": 1,
      "note": 61,
      "start": 8.1288,
      "duration": 0.0934,
      "velocity": 91,
      "chip": "ym2612"
    },
    {
      "channel": 3,
      "note": 87,
      "start": 8.1323,
      "duration": 0.0906,
      "velocity": 74,
      "chip": "ym2612"
    },
    {
      "channel": 4,
      "note": 82,
      "start": 8.1358,
      "duration": 0.0879,
      "velocity": 74,
      "chip": "ym2612"
    },
    {
      "channel": 2,
      "note": 68,
      "start": 8.1366,
      "duration": 0.0879,
      "velocity": 120,
      "chip": "ym2612"
    },
    {
      "channel": 1,
      "note": 63,
      "start": 8.2228,
      "duration": 0.1105,
      "velocity": 91,
      "chip": "ym2612"
    },
    {
      "channel": 3,
      "note": 85,
      "start": 8.2236,
      "duration": 0.1105,
      "velocity": 74,
      "chip": "ym2612"
    },
    {
      "channel": 4,
      "note": 80,
      "start": 8.2243,
      "duration": 0.1106,
      "velocity": 74,
      "chip": "ym2612"
    },
    {
      "channel": 2,
      "note": 63,
      "start": 8.2251,
      "duration": 0.1106,
      "velocity": 120,
      "chip": "ym2612"
    },
    {
      "channel": 1,
      "note": 57,
      "start": 8.334,
      "duration": 0.1113,
      "velocity": 91,
      "chip": "ym2612"
    },
    {
      "channel": 3,
      "note": 87,
      "start": 8.3347,
      "duration": 0.225,
      "velocity": 100,
      "chip": "ym2612"
    },
    {
      "channel": 4,
      "note": 82,
      "start": 8.3355,
      "duration": 0.229,
      "velocity": 100,
      "chip": "ym2612"
    },
    {
      "channel": 2,
      "note": 61,
      "start": 8.3363,
      "duration": 0.1105,
      "velocity": 120,
      "chip": "ym2612"
    },
    {
      "channel": 1,
      "note": 61,
      "start": 8.4459,
      "duration": 0.1104,
      "velocity": 91,
      "chip": "ym2612"
    },
    {
      "channel": 2,
      "note": 57,
      "start": 8.4474,
      "duration": 0.1213,
      "velocity": 120,
      "chip": "ym2612"
    },
    {
      "channel": 0,
      "note": 87,
      "start": 8.556,
      "duration": 1.7138,
      "velocity": 105,
      "chip": "ym2612"
    },
    {
      "channel": 1,
      "note": 56,
      "start": 8.5568,
      "duration": 0.0944,
      "velocity": 91,
      "chip": "ym2612"
    },
    {
      "channel": 3,
      "note": 68,
      "start": 8.5616,
      "duration": 0.0903,
      "velocity": 100,
      "chip": "ym2612"
    },
    {
      "channel": 4,
      "note": 63,
      "start": 8.5651,
      "duration": 0.0876,
      "velocity": 100,
      "chip": "ym2612"
    },
    {
      "channel": 5,
      "note": 33,
      "start": 8.5684,
      "duration": 0.0849,
      "velocity": 102,
      "chip": "ym2612"
    },
    {
      "channel": 2,
      "note": 56,
      "start": 8.5693,
      "duration": 0.0847,
      "velocity": 120,
      "chip": "ym2612"
    },
    {
      "channel": 1,
      "note": 56,
      "start": 8.6518,
      "duration": 0.1104,
      "velocity": 91,
      "chip": "ym2612"
    },
    {
      "channel": 3,
      "note": 68,
      "start": 8.6525,
      "duration": 0.1104,
      "velocity": 100,
      "chip": "ym2612"
    },
    {
      "channel": 4,
      "note": 63,
      "start": 8.6532,
      "duration": 0.1104,
      "velocity": 100,
      "chip": "ym2612"
    },
    {
      "channel": 5,
      "note": 33,
      "start": 8.6538,
      "duration": 0.1105,
      "velocity": 102,
      "chip": "ym2612"
    },
    {
      "channel": 2,
      "note": 56,
      "start": 8.6546,
      "duration": 0.1104,
      "velocity": 120,
      "chip": "ym2612"
    },
    {
      "channel": 1,
      "note": 56,
      "start": 8.7627,
      "duration": 0.1104,
      "velocity": 91,
      "chip": "ym2612"
    },
    {
      "channel": 3,
      "note": 68,
      "start": 8.7634,
      "duration": 0.1104,
      "velocity": 100,
      "chip": "ym2612"
    },
    {
      "channel": 4,
      "note": 63,
      "start": 8.7642,
      "duration": 0.1104,
      "velocity": 100,
      "chip": "ym2612"
    },
    {
      "channel": 5,
      "note": 33,
      "start": 8.7647,
      "duration": 0.1106,
      "velocity": 102,
      "chip": "ym2612"
    },
    {
      "channel": 2,
      "note": 56,
      "start": 8.7655,
      "duration": 0.1104,
      "velocity": 120,
      "chip": "ym2612"
    },
    {
      "channel": 1,
      "note": 56,
      "start": 8.8737,
      "duration": 0.1105,
      "velocity": 91,
      "chip": "ym2612"
    },
    {
      "channel": 3,
      "note": 68,
      "start": 8.8744,
      "duration": 0.1128,
      "velocity": 74,
      "chip": "ym2612"
    },
    {
      "channel": 4,
      "note": 63,
      "start": 8.8752,
      "duration": 0.1156,
      "velocity": 74,
      "chip": "ym2612"
    },
    {
      "channel": 5,
      "note": 33,
      "start": 8.8758,
      "duration": 0.1197,
      "velocity": 83,
      "chip": "ym2612"
    },
    {
      "channel": 2,
      "note": 56,
      "start": 8.8778,
      "duration": 0.1185,
      "velocity": 120,
      "chip": "ym2612"
    },
    {
      "channel": 3,
      "note": 92,
      "start": 8.9879,
      "duration": 0.0919,
      "velocity": 74,
      "chip": "ym2612"
    },
    {
      "channel": 4,
      "note": 87,
      "start": 8.9914,
      "duration": 0.0892,
      "velocity": 74,
      "chip": "ym2612"
    },
    {
      "channel": 5,
      "note": 98,
      "start": 8.9961,
      "duration": 0.0853,
      "velocity": 83,
      "chip": "ym2612"
    },
    {
      "channel": 2,
      "note": 63,
      "start": 8.9968,
      "duration": 0.0851,
      "velocity": 120,
      "chip": "ym2612"
    },
    {
      "channel": 3,
      "note": 90,
      "start": 9.0805,
      "duration": 0.111,
      "velocity": 74,
      "chip": "ym2612"
    },
    {
      "channel": 4,
      "note": 85,
      "start": 9.0812,
      "duration": 0.1109,
      "velocity": 74,
      "chip": "ym2612"
    },
    {
      "channel": 5,
      "note": 98,
      "start": 9.0818,
      "duration": 0.1111,
      "velocity": 83,
      "chip": "ym2612"
    },
    {
      "channel": 2,
      "note": 63,
      "start": 9.0825,
      "duration": 0.1123,
      "velocity": 120,
      "chip": "ym2612"
    },
    {
      "channel": 1,
      "note": 68,
      "start": 9.1913,
      "duration": 0.1105,
      "velocity": 91,
      "chip": "ym2612"
    },
    {
      "channel": 3,
      "note": 92,
      "start": 9.192,
      "duration": 0.2239,
      "velocity": 100,
      "chip": "ym2612"
    },
    {
      "channel": 4,
      "note": 87,
      "start": 9.1928,
      "duration": 0.2266,
      "velocity": 100,
      "chip": "ym2612"
    },
    {
      "channel": 5,
      "note": 98,
      "start": 9.1947,
      "duration": 0.1085,
      "velocity": 83,
      "chip": "ym2612"
    },
    {
      "channel": 2,
      "note": 63,
      "start": 9.1954,
      "duration": 0.1084,
      "velocity": 120,
      "chip": "ym2612"
    },
    {
      "channel": 1,
      "note": 68,
      "start": 9.3023,
      "duration": 0.1106,
      "velocity": 91,
      "chip": "ym2612"
    },
    {
      "channel": 5,
      "note": 98,
      "start": 9.3036,
      "duration": 0.1166,
      "velocity": 83,
      "chip": "ym2612"
    },
    {
      "channel": 2,
      "note": 63,
      "start": 9.3044,
      "duration": 0.1161,
      "velocity": 120,
      "chip": "ym2612"
    },
    {
      "channel": 3,
      "note": 80,
      "start": 9.4165,
      "duration": 0.0919,
      "velocity": 100,
      "chip": "ym2612"
    },
    {
      "channel": 4,
      "note": 75,
      "start": 9.42,
      "duration": 0.0891,
      "velocity": 100,
      "chip": "ym2612"
    },
    {
      "channel": 2,
      "note": 68,
      "start": 9.421,
      "duration": 0.0903,
      "velocity": 120,
      "chip": "ym2612"
    },
    {
      "channel": 3,
      "note": 80,
      "start": 9.509,
      "duration": 0.1109,
      "velocity": 100,
      "chip": "ym2612"
    },
    {
      "channel": 4,
      "note": 75,
      "start": 9.5098,
      "duration": 0.1109,
      "velocity": 100,
      "chip": "ym2612"
    },
    {
      "channel": 2,
      "note": 68,
      "start": 9.5119,
      "duration": 0.1097,
      "velocity": 120,
      "chip": "ym2612"
    },
    {
      "channel": 1,
      "note": 63,
      "start": 9.6198,
      "duration": 0.1105,
      "velocity": 91,
      "chip": "ym2612"
    },
    {
      "channel": 3,
      "note": 80,
      "start": 9.6206,
      "duration": 0.1105,
      "velocity": 100,
      "chip": "ym2612"
    },
    {
      "channel": 4,
      "note": 75,
      "start": 9.6213,
      "duration": 0.1106,
      "velocity": 100,
      "chip": "ym2612"
    },
    {
      "channel": 2,
      "note": 68,
      "start": 9.6221,
      "duration": 0.1105,
      "velocity": 120,
      "chip": "ym2612"
    },
    {
      "channel": 1,
      "note": 66,
      "start": 9.731,
      "duration": 0.1105,
      "velocity": 91,
      "chip": "ym2612"
    },
    {
      "channel": 3,
      "note": 80,
      "start": 9.7317,
      "duration": 0.1105,
      "velocity": 100,
      "chip": "ym2612"
    },
    {
      "channel": 4,
      "note": 75,
      "start": 9.7324,
      "duration": 0.1101,
      "velocity": 100,
      "chip": "ym2612"
    },
    {
      "channel": 2,
      "note": 68,
      "start": 9.7333,
      "duration": 0.1097,
      "velocity": 120,
      "chip": "ym2612"
    },
    {
      "channel": 1,
      "note": 61,
      "start": 9.8421,
      "duration": 0.0946,
      "velocity": 91,
      "chip": "ym2612"
    },
    {
      "channel": 2,
      "note": 68,
      "start": 9.8448,
      "duration": 0.0929,
      "velocity": 120,
      "chip": "ym2612"
    },
    {
      "channel": 1,
      "note": 63,
      "start": 9.9374,
      "duration": 0.1106,
      "velocity": 91,
      "chip": "ym2612"
    },
    {
      "channel": 2,
      "note": 63,
      "start": 9.9383,
      "duration": 0.1106,
      "velocity": 120,
      "chip": "ym2612"
    },
    {
      "channel": 1,
      "note": 57,
      "start": 10.0486,
      "duration": 0.1105,
      "velocity": 91,
      "chip": "ym2612"
    },
    {
      "channel": 2,
      "note": 61,
      "start": 10.0495,
      "duration": 0.1119,
      "velocity": 120,
      "chip": "ym2612"
    },
    {
      "channel": 1,
      "note": 61,
      "start": 10.1597,
      "duration": 0.1109,
      "velocity": 91,
      "chip": "ym2612"
    },
    {
      "channel": 2,
      "note": 57,
      "start": 10.162,
      "duration": 0.113,
      "velocity": 120,
      "chip": "ym2612"
    },
    {
      "channel": 0,
      "note": 85,
      "start": 10.2705,
      "duration": 1.7139,
      "velocity": 105,
      "chip": "ym2612"
    },
    {
      "channel": 1,
      "note": 56,
      "start": 10.2713,
      "duration": 0.0941,
      "velocity": 91,
      "chip": "ym2612"
    },
    {
      "channel": 5,
      "note": 33,
      "start": 10.2748,
      "duration": 0.0915,
      "velocity": 102,
      "chip": "ym2612"
    },
    {
      "channel": 2,
      "note": 56,
      "start": 10.2756,
      "duration": 0.0912,
      "velocity": 120,
      "chip": "ym2612"
    },
    {
      "channel": 1,
      "note": 56,
      "start": 10.366,
      "duration": 0.1118,
      "velocity": 91,
      "chip": "ym2612"
    },
    {
      "channel": 5,
      "note": 33,
      "start": 10.3667,
      "duration": 0.112,
      "velocity": 102,
      "chip": "ym2612"
    },
    {
      "channel": 2,
      "note": 56,
      "start": 10.3674,
      "duration": 0.1119,
      "velocity": 120,
      "chip": "ym2612"
    },
    {
      "channel": 1,
      "note": 56,
      "start": 10.4784,
      "duration": 0.1093,
      "velocity": 91,
      "chip": "ym2612"
    },
    {
      "channel": 5,
      "note": 33,
      "start": 10.4791,
      "duration": 0.1095,
      "velocity": 102,
      "chip": "ym2612"
    },
    {
      "channel": 2,
      "note": 56,
      "start": 10.4799,
      "duration": 0.1093,
      "velocity": 120,
      "chip": "ym2612"
    },
    {
      "channel": 1,
      "note": 56,
      "start": 10.5883,
      "duration": 0.1105,
      "velocity": 91,
      "chip": "ym2612"
    },
    {
      "channel": 5,
      "note": 33,
      "start": 10.589,
      "duration": 0.1188,
      "velocity": 83,
      "chip": "ym2612"
    },
    {
      "channel": 2,
      "note": 56,
      "start": 10.5898,
      "duration": 0.1189,
      "velocity": 120,
      "chip": "ym2612"
    },
    {
      "channel": 5,
      "note": 98,
      "start": 10.7085,
      "duration": 0.0876,
      "velocity": 83,
      "chip": "ym2612"
    },
    {
      "channel": 2,
      "note": 63,
      "start": 10.7092,
      "duration": 0.0875,
      "velocity": 120,
      "chip": "ym2612"
    },
    {
      "channel": 5,
      "note": 98,
      "start": 10.7966,
      "duration": 0.1095,
      "velocity": 83,
      "chip": "ym2612"
    },
    {
      "channel": 2,
      "note": 63,
      "start": 10.7973,
      "duration": 0.1093,
      "velocity": 120,
      "chip": "ym2612"
    },
    {
      "channel": 1,
      "note": 68,
      "start": 10.9057,
      "duration": 0.1106,
      "velocity": 91,
      "chip": "ym2612"
    },
    {
      "channel": 5,
      "note": 98,
      "start": 10.9065,
      "duration": 0.1107,
      "velocity": 83,
      "chip": "ym2612"
    },
    {
      "channel": 2,
      "note": 63,
      "start": 10.9072,
      "duration": 0.1106,
      "velocity": 120,
      "chip": "ym2612"
    },
    {
      "channel": 1,
      "note": 68,
      "start": 11.0168,
      "duration": 0.1117,
      "velocity": 91,
      "chip": "ym2612"
    },
    {
      "channel": 5,
      "note": 98,
      "start": 11.0176,
      "duration": 0.1131,
      "velocity": 83,
      "chip": "ym2612"
    },
    {
      "channel": 2,
      "note": 63,
      "start": 11.0184,
      "duration": 0.1127,
      "velocity": 120,
      "chip": "ym2612"
    },
    {
      "channel": 3,
      "note": 80,
      "start": 11.1296,
      "duration": 0.6336,
      "velocity": 105,
      "chip": "ym2612"
    },
    {
      "channel": 4,
      "note": 75,
      "start": 11.1305,
      "duration": 0.6331,
      "velocity": 105,
      "chip": "ym2612"
    },
    {
      "channel": 2,
      "note": 68,
      "start": 11.1316,
      "duration": 0.0922,
      "velocity": 120,
      "chip": "ym2612"
    },
    {
      "channel": 2,
      "note": 68,
      "start": 11.2244,
      "duration": 0.1111,
      "velocity": 120,
      "chip": "ym2612"
    },
    {
      "channel": 1,
      "note": 63,
      "start": 11.3343,
      "duration": 0.1113,
      "velocity": 91,
      "chip": "ym2612"
    },
    {
      "channel": 2,
      "note": 68,
      "start": 11.3361,
      "duration": 0.1112,
      "velocity": 120,
      "chip": "ym2612"
    },
    {
      "channel": 1,
      "note": 66,
      "start": 11.4462,
      "duration": 0.1098,
      "velocity": 91,
      "chip": "ym2612"
    },
    {
      "channel": 2,
      "note": 68,
      "start": 11.448,
      "duration": 0.1098,
      "velocity": 120,
      "chip": "ym2612"
    },
    {
      "channel": 1,
      "note": 61,
      "start": 11.5566,
      "duration": 0.0947,
      "velocity": 91,
      "chip": "ym2612"
    },
    {
      "channel": 2,
      "note": 68,
      "start": 11.5584,
      "duration": 0.0946,
      "velocity": 120,
      "chip": "ym2612"
    },
    {
      "channel": 1,
      "note": 63,
      "start": 11.6519,
      "duration": 0.1105,
      "velocity": 91,
      "chip": "ym2612"
    },
    {
      "channel": 2,
      "note": 63,
      "start": 11.6536,
      "duration": 0.1104,
      "velocity": 120,
      "chip": "ym2612"
    },
    {
      "channel": 1,
      "note": 57,
      "start": 11.763,
      "duration": 0.1105,
      "velocity": 91,
      "chip": "ym2612"
    },
    {
      "channel": 2,
      "note": 61,
      "start": 11.7646,
      "duration": 0.1099,
      "velocity": 120,
      "chip": "ym2612"
    },
    {
      "channel": 1,
      "note": 61,
      "start": 11.8741,
      "duration": 0.1106,
      "velocity": 91,
      "chip": "ym2612"
    },
    {
      "channel": 2,
      "note": 57,
      "start": 11.8751,
      "duration": 0.1141,
      "velocity": 120,
      "chip": "ym2612"
    },
    {
      "channel": 1,
      "note": 56,
      "start": 11.9854,
      "duration": 0.0944,
      "velocity": 91,
      "chip": "ym2612"
    },
    {
      "channel": 5,
      "note": 33,
      "start": 11.9889,
      "duration": 0.0917,
      "velocity": 102,
      "chip": "ym2612"
    },
    {
      "channel": 2,
      "note": 56,
      "start": 11.9897,
      "duration": 0.0915,
      "velocity": 120,
      "chip": "ym2612"
    },
    {
      "channel": 1,
      "note": 56,
      "start": 12.0803,
      "duration": 0.1106,
      "velocity": 91,
      "chip": "ym2612"
    },
    {
      "channel": 5,
      "note": 33,
      "start": 12.081,
      "duration": 0.1107,
      "velocity": 102,
      "chip": "ym2612"
    },
    {
      "channel": 2,
      "note": 56,
      "start": 12.0817,
      "duration": 0.1106,
      "velocity": 120,
      "chip": "ym2612"
    },
    {
      "channel": 1,
      "note": 56,
      "start": 12.1914,
      "duration": 0.1105,
      "velocity": 91,
      "chip": "ym2612"
    },
    {
      "channel": 5,
      "note": 33,
      "start": 12.1922,
      "duration": 0.1107,
      "velocity": 102,
      "chip": "ym2612"
    },
    {
      "channel": 2,
      "note": 56,
      "start": 12.1929,
      "duration": 0.1106,
      "velocity": 120,
      "chip": "ym2612"
    },
    {
      "channel": 1,
      "note": 56,
      "start": 12.3025,
      "duration": 0.1105,
      "velocity": 91,
      "chip": "ym2612"
    },
    {
      "channel": 5,
      "note": 33,
      "start": 12.3033,
      "duration": 0.1196,
      "velocity": 83,
      "chip": "ym2612"
    },
    {
      "channel": 2,
      "note": 56,
      "start": 12.304,
      "duration": 0.1197,
      "velocity": 120,
      "chip": "ym2612"
    },
    {
      "channel": 3,
      "note": 92,
      "start": 12.4166,
      "duration": 0.0923,
      "velocity": 74,
      "chip": "ym2612"
    },
    {
      "channel": 4,
      "note": 87,
      "start": 12.4202,
      "duration": 0.0896,
      "velocity": 74,
      "chip": "ym2612"
    },
    {
      "channel": 5,
      "note": 98,
      "start": 12.4235,
      "duration": 0.0882,
      "velocity": 83,
      "chip": "ym2612"
    },
    {
      "channel": 2,
      "note": 63,
      "start": 12.4242,
      "duration": 0.0881,
      "velocity": 120,
      "chip": "ym2612"
    },
    {
      "channel": 3,
      "note": 90,
      "start": 12.5095,
      "duration": 0.1107,
      "velocity": 74,
      "chip": "ym2612"
    },
    {
      "channel": 4,
      "note": 85,
      "start": 12.5116,
      "duration": 0.1093,
      "velocity": 74,
      "chip": "ym2612"
    },
    {
      "channel": 5,
      "note": 98,
      "start": 12.5122,
      "duration": 0.1095,
      "velocity": 83,
      "chip": "ym2612"
    },
    {
      "channel": 2,
      "note": 63,
      "start": 12.5129,
      "duration": 0.1094,
      "velocity": 120,
      "chip": "ym2612"
    },
    {
      "channel": 1,
      "note": 68,
      "start": 12.62,
      "duration": 0.1105,
      "velocity": 91,
      "chip": "ym2612"
    },
    {
      "channel": 3,
      "note": 92,
      "start": 12.6208,
      "duration": 0.2253,
      "velocity": 100,
      "chip": "ym2612"
    },
    {
      "channel": 4,
      "note": 87,
      "start": 12.6215,
      "duration": 0.228,
      "velocity": 100,
      "chip": "ym2612"
    },
    {
      "channel": 5,
      "note": 98,
      "start": 12.6222,
      "duration": 0.1098,
      "velocity": 83,
      "chip": "ym2612"
    },
    {
      "channel": 2,
      "note": 63,
      "start": 12.6229,
      "duration": 0.1097,
      "velocity": 120,
      "chip": "ym2612"
    },
    {
      "channel": 1,
      "note": 68,
      "start": 12.7312,
      "duration": 0.1106,
      "velocity": 91,
      "chip": "ym2612"
    },
    {
      "channel": 5,
      "note": 98,
      "start": 12.7324,
      "duration": 0.1179,
      "velocity": 83,
      "chip": "ym2612"
    },
    {
      "channel": 2,
      "note": 63,
      "start": 12.7331,
      "duration": 0.1175,
      "velocity": 120,
      "chip": "ym2612"
    },
    {
      "channel": 3,
      "note": 80,
      "start": 12.8467,
      "duration": 0.0906,
      "velocity": 100,
      "chip": "ym2612"
    },
    {
      "channel": 4,
      "note": 75,
      "start": 12.8501,
      "duration": 0.0879,
      "velocity": 100,
      "chip": "ym2612"
    },
    {
      "channel": 2,
      "note": 68,
      "start": 12.8512,
      "duration": 0.0877,
      "velocity": 120,
      "chip": "ym2612"
    },
    {
      "channel": 3,
      "note": 80,
      "start": 12.9378,
      "duration": 0.1109,
      "velocity": 100,
      "chip": "ym2612"
    },
    {
      "channel": 4,
      "note": 75,
      "start": 12.9386,
      "duration": 0.1109,
      "velocity": 100,
      "chip": "ym2612"
    },
    {
      "channel": 2,
      "note": 68,
      "start": 12.9394,
      "duration": 0.1109,
      "velocity": 120,
      "chip": "ym2612"
    },
    {
      "channel": 1,
      "note": 63,
      "start": 13.0486,
      "duration": 0.1106,
      "velocity": 91,
      "chip": "ym2612"
    },
    {
      "channel": 3,
      "note": 80,
      "start": 13.0493,
      "duration": 0.1119,
      "velocity": 100,
      "chip": "ym2612"
    },
    {
      "channel": 4,
      "note": 75,
      "start": 13.0501,
      "duration": 0.1119,
      "velocity": 100,
      "chip": "ym2612"
    },
    {
      "channel": 2,
      "note": 68,
      "start": 13.0509,
      "duration": 0.112,
      "velocity": 120,
      "chip": "ym2612"
    },
    {
      "channel": 1,
      "note": 66,
      "start": 13.1598,
      "duration": 0.1105,
      "velocity": 91,
      "chip": "ym2612"
    },
    {
      "channel": 3,
      "note": 80,
      "start": 13.1618,
      "duration": 0.112,
      "velocity": 74,
      "chip": "ym2612"
    },
    {
      "channel": 4,
      "note": 75,
      "start": 13.1626,
      "duration": 0.116,
      "velocity": 74,
      "chip": "ym2612"
    },
    {
      "channel": 2,
      "note": 68,
      "start": 13.1634,
      "duration": 0.116,
      "velocity": 120,
      "chip": "ym2612"
    },
    {
      "channel": 1,
      "note": 61,
      "start": 13.2709,
      "duration": 0.0947,
      "velocity": 91,
      "chip": "ym2612"
    },
    {
      "channel": 3,
      "note": 85,
      "start": 13.2744,
      "duration": 0.0919,
      "velocity": 74,
      "chip": "ym2612"
    },
    {
      "channel": 4,
      "note": 80,
      "start": 13.2792,
      "duration": 0.0878,
      "velocity": 74,
      "chip": "ym2612"
    },
    {
      "channel": 2,
      "note": 68,
      "start": 13.28,
      "duration": 0.0878,
      "velocity": 120,
      "chip": "ym2612"
    },
    {
      "channel": 1,
      "note": 63,
      "start": 13.3661,
      "duration": 0.1119,
      "velocity": 91,
      "chip": "ym2612"
    },
    {
      "channel": 3,
      "note": 83,
      "start": 13.3669,
      "duration": 0.1118,
      "velocity": 74,
      "chip": "ym2612"
    },
    {
      "channel": 4,
      "note": 78,
      "start": 13.3676,
      "duration": 0.1119,
      "velocity": 74,
      "chip": "ym2612"
    },
    {
      "channel": 2,
      "note": 63,
      "start": 13.3684,
      "duration": 0.1119,
      "velocity": 120,
      "chip": "ym2612"
    },
    {
      "channel": 1,
      "note": 57,
      "start": 13.4786,
      "duration": 0.1092,
      "velocity": 91,
      "chip": "ym2612"
    },
    {
      "channel": 3,
      "note": 85,
      "start": 13.4794,
      "duration": 0.2231,
      "velocity": 100,
      "chip": "ym2612"
    },
    {
      "channel": 4,
      "note": 80,
      "start": 13.4801,
      "duration": 0.2258,
      "velocity": 100,
      "chip": "ym2612"
    },
    {
      "channel": 2,
      "note": 61,
      "start": 13.481,
      "duration": 0.1083,
      "velocity": 120,
      "chip": "ym2612"
    },
    {
      "channel": 1,
      "note": 61,
      "start": 13.5884,
      "duration": 0.1106,
      "velocity": 91,
      "chip": "ym2612"
    },
    {
      "channel": 2,
      "note": 57,
      "start": 13.5899,
      "duration": 0.1215,
      "velocity": 120,
      "chip": "ym2612"
    },
    {
      "channel": 1,
      "note": 56,
      "start": 13.6996,
      "duration": 0.0954,
      "velocity": 91,
      "chip": "ym2612"
    },
    {
      "channel": 3,
      "note": 68,
      "start": 13.703,
      "duration": 0.0926,
      "velocity": 100,
      "chip": "ym2612"
    },
    {
      "channel": 4,
      "note": 63,
      "start": 13.7065,
      "duration": 0.0899,
      "velocity": 100,
      "chip": "ym2612"
    },
    {
      "channel": 5,
      "note": 33,
      "start": 13.7112,
      "duration": 0.0859,
      "velocity": 102,
      "chip": "ym2612"
    },
    {
      "channel": 2,
      "note": 56,
      "start": 13.712,
      "duration": 0.0857,
      "velocity": 120,
      "chip": "ym2612"
    },
    {
      "channel": 1,
      "note": 56,
      "start": 13.7955,
      "duration": 0.1098,
      "velocity": 91,
      "chip": "ym2612"
    },
    {
      "channel": 3,
      "note": 68,
      "start": 13.7962,
      "duration": 0.1098,
      "velocity": 100,
      "chip": "ym2612"
    },
    {
      "channel": 4,
      "note": 63,
      "start": 13.797,
      "duration": 0.1098,
      "velocity": 100,
      "chip": "ym2612"
    },
    {
      "channel": 5,
      "note": 33,
      "start": 13.7976,
      "duration": 0.1099,
      "velocity": 102,
      "chip": "ym2612"
    },
    {
      "channel": 2,
      "note": 56,
      "start": 13.7983,
      "duration": 0.1098,
      "velocity": 120,
      "chip": "ym2612"
    },
    {
      "channel": 1,
      "note": 56,
      "start": 13.9059,
      "duration": 0.1106,
      "velocity": 91,
      "chip": "ym2612"
    },
    {
      "channel": 3,
      "note": 68,
      "start": 13.9066,
      "duration": 0.1106,
      "velocity": 100,
      "chip": "ym2612"
    },
    {
      "channel": 4,
      "note": 63,
      "start": 13.9074,
      "duration": 0.1106,
      "velocity": 100,
      "chip": "ym2612"
    },
    {
      "channel": 5,
      "note": 33,
      "start": 13.9079,
      "duration": 0.1107,
      "velocity": 102,
      "chip": "ym2612"
    },
    {
      "channel": 2,
      "note": 56,
      "start": 13.9087,
      "duration": 0.1105,
      "velocity": 120,
      "chip": "ym2612"
    },
    {
      "channel": 1,
      "note": 56,
      "start": 14.017,
      "duration": 0.1117,
      "velocity": 91,
      "chip": "ym2612"
    },
    {
      "channel": 3,
      "note": 68,
      "start": 14.0177,
      "duration": 0.114,
      "velocity": 74,
      "chip": "ym2612"
    },
    {
      "channel": 4,
      "note": 63,
      "start": 14.0185,
      "duration": 0.1167,
      "velocity": 74,
      "chip": "ym2612"
    },
    {
      "channel": 5,
      "note": 33,
      "start": 14.0191,
      "duration": 0.1195,
      "velocity": 83,
      "chip": "ym2612"
    },
    {
      "channel": 2,
      "note": 56,
      "start": 14.0198,
      "duration": 0.1195,
      "velocity": 120,
      "chip": "ym2612"
    },
    {
      "channel": 3,
      "note": 92,
      "start": 14.1324,
      "duration": 0.0908,
      "velocity": 74,
      "chip": "ym2612"
    },
    {
      "channel": 4,
      "note": 87,
      "start": 14.1359,
      "duration": 0.088,
      "velocity": 74,
      "chip": "ym2612"
    },
    {
      "channel": 5,
      "note": 98,
      "start": 14.1392,
      "duration": 0.0854,
      "velocity": 83,
      "chip": "ym2612"
    },
    {
      "channel": 2,
      "note": 63,
      "start": 14.1399,
      "duration": 0.0853,
      "velocity": 120,
      "chip": "ym2612"
    },
    {
      "channel": 3,
      "note": 90,
      "start": 14.2238,
      "duration": 0.1109,
      "velocity": 74,
      "chip": "ym2612"
    },
    {
      "channel": 4,
      "note": 85,
      "start": 14.2245,
      "duration": 0.1109,
      "velocity": 74,
      "chip": "ym2612"
    },
    {
      "channel": 5,
      "note": 98,
      "start": 14.2251,
      "duration": 0.1111,
      "velocity": 83,
      "chip": "ym2612"
    },
    {
      "channel": 2,
      "note": 63,
      "start": 14.2258,
      "duration": 0.111,
      "velocity": 120,
      "chip": "ym2612"
    },
    {
      "channel": 1,
      "note": 68,
      "start": 14.3345,
      "duration": 0.1105,
      "velocity": 91,
      "chip": "ym2612"
    },
    {
      "channel": 3,
      "note": 92,
      "start": 14.3353,
      "duration": 0.2213,
      "velocity": 74,
      "chip": "ym2612"
    },
    {
      "channel": 4,
      "note": 87,
      "start": 14.3361,
      "duration": 0.2209,
      "velocity": 74,
      "chip": "ym2612"
    },
    {
      "channel": 5,
      "note": 98,
      "start": 14.3366,
      "duration": 0.1099,
      "velocity": 83,
      "chip": "ym2612"
    },
    {
      "channel": 2,
      "note": 63,
      "start": 14.3373,
      "duration": 0.1098,
      "velocity": 120,
      "chip": "ym2612"
    },
    {
      "channel": 1,
      "note": 68,
      "start": 14.4457,
      "duration": 0.1106,
      "velocity": 91,
      "chip": "ym2612"
    },
    {
      "channel": 5,
      "note": 98,
      "start": 14.4469,
      "duration": 0.1103,
      "velocity": 83,
      "chip": "ym2612"
    },
    {
      "channel": 2,
      "note": 63,
      "start": 14.4477,
      "duration": 0.1099,
      "velocity": 120,
      "chip": "ym2612"
    },
    {
      "channel": 2,
      "note": 68,
      "start": 14.5581,
      "duration": 0.0939,
      "velocity": 120,
      "chip": "ym2612"
    },
    {
      "channel": 2,
      "note": 68,
      "start": 14.6527,
      "duration": 0.111,
      "velocity": 120,
      "chip": "ym2612"
    },
    {
      "channel": 1,
      "note": 63,
      "start": 14.7632,
      "duration": 0.1105,
      "velocity": 91,
      "chip": "ym2612"
    },
    {
      "channel": 2,
      "note": 68,
      "start": 14.7642,
      "duration": 0.1105,
      "velocity": 120,
      "chip": "ym2612"
    },
    {
      "channel": 1,
      "note": 66,
      "start": 14.8743,
      "duration": 0.1106,
      "velocity": 91,
      "chip": "ym2612"
    },
    {
      "channel": 2,
      "note": 68,
      "start": 14.8752,
      "duration": 0.1174,
      "velocity": 120,
      "chip": "ym2612"
    },
    {
      "channel": 1,
      "note": 61,
      "start": 14.9855,
      "duration": 0.0946,
      "velocity": 91,
      "chip": "ym2612"
    },
    {
      "channel": 3,
      "note": 92,
      "start": 14.989,
      "duration": 0.0919,
      "velocity": 100,
      "chip": "ym2612"
    },
    {
      "channel": 4,
      "note": 87,
      "start": 14.9924,
      "duration": 0.0892,
      "velocity": 100,
      "chip": "ym2612"
    },
    {
      "channel": 2,
      "note": 68,
      "start": 14.9946,
      "duration": 0.0878,
      "velocity": 120,
      "chip": "ym2612"
    },
    {
      "channel": 1,
      "note": 63,
      "start": 15.0807,
      "duration": 0.1106,
      "velocity": 91,
      "chip": "ym2612"
    },
    {
      "channel": 3,
      "note": 92,
      "start": 15.0814,
      "duration": 0.1106,
      "velocity": 100,
      "chip": "ym2612"
    },
    {
      "channel": 4,
      "note": 87,
      "start": 15.0822,
      "duration": 0.1106,
      "velocity": 100,
      "chip": "ym2612"
    },
    {
      "channel": 2,
      "note": 63,
      "start": 15.083,
      "duration": 0.1119,
      "velocity": 120,
      "chip": "ym2612"
    },
    {
      "channel": 1,
      "note": 57,
      "start": 15.1918,
      "duration": 0.1106,
      "velocity": 91,
      "chip": "ym2612"
    },
    {
      "channel": 3,
      "note": 92,
      "start": 15.1926,
      "duration": 0.1106,
      "velocity": 100,
      "chip": "ym2612"
    },
    {
      "channel": 4,
      "note": 87,
      "start": 15.1946,
      "duration": 0.1093,
      "velocity": 100,
      "chip": "ym2612"
    },
    {
      "channel": 2,
      "note": 61,
      "start": 15.1955,
      "duration": 0.1093,
      "velocity": 120,
      "chip": "ym2612"
    },
    {
      "channel": 1,
      "note": 61,
      "start": 15.303,
      "duration": 0.1108,
      "velocity": 91,
      "chip": "ym2612"
    },
    {
      "channel": 3,
      "note": 92,
      "start": 15.3037,
      "duration": 0.1136,
      "velocity": 74,
      "chip": "ym2612"
    },
    {
      "channel": 4,
      "note": 87,
      "start": 15.3045,
      "duration": 0.1163,
      "velocity": 74,
      "chip": "ym2612"
    },
    {
      "channel": 2,
      "note": 57,
      "start": 15.3053,
      "duration": 0.1197,
      "velocity": 120,
      "chip": "ym2612"
    },
    {
      "channel": 1,
      "note": 56,
      "start": 15.4144,
      "duration": 0.0944,
      "velocity": 91,
      "chip": "ym2612"
    },
    {
      "channel": 3,
      "note": 87,
      "start": 15.4179,
      "duration": 0.0915,
      "velocity": 74,
      "chip": "ym2612"
    },
    {
      "channel": 4,
      "note": 82,
      "start": 15.4214,
      "duration": 0.0902,
      "velocity": 74,
      "chip": "ym2612"
    },
    {
      "channel": 5,
      "note": 33,
      "start": 15.4248,
      "duration": 0.0875,
      "velocity": 102,
      "chip": "ym2612"
    },
    {
      "channel": 2,
      "note": 56,
      "start": 15.4256,
      "duration": 0.0874,
      "velocity": 120,
      "chip": "ym2612"
    },
    {
      "channel": 1,
      "note": 56,
      "start": 15.5093,
      "duration": 0.1106,
      "velocity": 91,
      "chip": "ym2612"
    },
    {
      "channel": 3,
      "note": 85,
      "start": 15.5114,
      "duration": 0.1092,
      "velocity": 74,
      "chip": "ym2612"
    },
    {
      "channel": 4,
      "note": 80,
      "start": 15.5122,
      "duration": 0.1092,
      "velocity": 74,
      "chip": "ym2612"
    },
    {
      "channel": 5,
      "note": 33,
      "start": 15.5128,
      "duration": 0.1094,
      "velocity": 102,
      "chip": "ym2612"
    },
    {
      "channel": 2,
      "note": 56,
      "start": 15.5135,
      "duration": 0.1092,
      "velocity": 120,
      "chip": "ym2612"
    },
    {
      "channel": 1,
      "note": 56,
      "start": 15.6205,
      "duration": 0.1105,
      "velocity": 91,
      "chip": "ym2612"
    },
    {
      "channel": 3,
      "note": 87,
      "start": 15.6212,
      "duration": 0.2253,
      "velocity": 100,
      "chip": "ym2612"
    },
    {
      "channel": 4,
      "note": 82,
      "start": 15.622,
      "duration": 0.2279,
      "velocity": 100,
      "chip": "ym2612"
    },
    {
      "channel": 5,
      "note": 33,
      "start": 15.6226,
      "duration": 0.1099,
      "velocity": 102,
      "chip": "ym2612"
    },
    {
      "channel": 2,
      "note": 56,
      "start": 15.6233,
      "duration": 0.1098,
      "velocity": 120,
      "chip": "ym2612"
    },
    {
      "channel": 1,
      "note": 56,
      "start": 15.7316,
      "duration": 0.1105,
      "velocity": 91,
      "chip": "ym2612"
    },
    {
      "channel": 5,
      "note": 33,
      "start": 15.7329,
      "duration": 0.1204,
      "velocity": 83,
      "chip": "ym2612"
    },
    {
      "channel": 2,
      "note": 56,
      "start": 15.7337,
      "duration": 0.1204,
      "velocity": 120,
      "chip": "ym2612"
    },
    {
      "channel": 3,
      "note": 68,
      "start": 15.8471,
      "duration": 0.0906,
      "velocity": 100,
      "chip": "ym2612"
    },
    {
      "channel": 4,
      "note": 63,
      "start": 15.8506,
      "duration": 0.0878,
      "velocity": 100,
      "chip": "ym2612"
    },
    {
      "channel": 5,
      "note": 98,
      "start": 15.8539,
      "duration": 0.0852,
      "velocity": 83,
      "chip": "ym2612"
    },
    {
      "channel": 2,
      "note": 63,
      "start": 15.8546,
      "duration": 0.0851,
      "velocity": 120,
      "chip": "ym2612"
    },
    {
      "channel": 3,
      "note": 68,
      "start": 15.9382,
      "duration": 0.111,
      "velocity": 100,
      "chip": "ym2612"
    },
    {
      "channel": 4,
      "note": 63,
      "start": 15.939,
      "duration": 0.111,
      "velocity": 100,
      "chip": "ym2612"
    },
    {
      "channel": 5,
      "note": 98,
      "start": 15.9395,
      "duration": 0.1111,
      "velocity": 83,
      "chip": "ym2612"
    },
    {
      "channel": 2,
      "note": 63,
      "start": 15.9403,
      "duration": 0.111,
      "velocity": 120,
      "chip": "ym2612"
    },
    {
      "channel": 1,
      "note": 68,
      "start": 16.0491,
      "duration": 0.1106,
      "velocity": 91,
      "chip": "ym2612"
    },
    {
      "channel": 3,
      "note": 68,
      "start": 16.0498,
      "duration": 0.1119,
      "velocity": 100,
      "chip": "ym2612"
    },
    {
      "channel": 4,
      "note": 63,
      "start": 16.0506,
      "duration": 0.1118,
      "velocity": 100,
      "chip": "ym2612"
    },
    {
      "channel": 5,
      "note": 98,
      "start": 16.0511,
      "duration": 0.112,
      "velocity": 83,
      "chip": "ym2612"
    },
    {
      "channel": 2,
      "note": 63,
      "start": 16.0519,
      "duration": 0.1118,
      "velocity": 120,
      "chip": "ym2612"
    },
    {
      "channel": 1,
      "note": 68,
      "start": 16.1615,
      "duration": 0.1092,
      "velocity": 91,
      "chip": "ym2612"
    },
    {
      "channel": 3,
      "note": 68,
      "start": 16.1623,
      "duration": 0.1115,
      "velocity": 74,
      "chip": "ym2612"
    },
    {
      "channel": 4,
      "note": 63,
      "start": 16.163,
      "duration": 0.1156,
      "velocity": 74,
      "chip": "ym2612"
    },
    {
      "channel": 5,
      "note": 98,
      "start": 16.1636,
      "duration": 0.1157,
      "velocity": 83,
      "chip": "ym2612"
    },
    {
      "channel": 2,
      "note": 63,
      "start": 16.1643,
      "duration": 0.1153,
      "velocity": 120,
      "chip": "ym2612"
    },
    {
      "channel": 3,
      "note": 92,
      "start": 16.2744,
      "duration": 0.0922,
      "velocity": 74,
      "chip": "ym2612"
    },
    {
      "channel": 4,
      "note": 87,
      "start": 16.2792,
      "duration": 0.0882,
      "velocity": 74,
      "chip": "ym2612"
    },
    {
      "channel": 2,
      "note": 68,
      "start": 16.2802,
      "duration": 0.088,
      "velocity": 120,
      "chip": "ym2612"
    },
    {
      "channel": 3,
      "note": 90,
      "start": 16.3672,
      "duration": 0.1119,
      "velocity": 74,
      "chip": "ym2612"
    },
    {
      "channel": 4,
      "note": 85,
      "start": 16.3679,
      "duration": 0.1119,
      "velocity": 74,
      "chip": "ym2612"
    },
    {
      "channel": 2,
      "note": 68,
      "start": 16.3688,
      "duration": 0.1119,
      "velocity": 120,
      "chip": "ym2612"
    },
    {
      "channel": 1,
      "note": 63,
      "start": 16.4789,
      "duration": 0.1094,
      "velocity": 91,
      "chip": "ym2612"
    },
    {
      "channel": 3,
      "note": 92,
      "start": 16.4796,
      "duration": 0.2232,
      "velocity": 100,
      "chip": "ym2612"
    },
    {
      "channel": 4,
      "note": 87,
      "start": 16.4804,
      "duration": 0.226,
      "velocity": 100,
      "chip": "ym2612"
    },
    {
      "channel": 2,
      "note": 68,
      "start": 16.4812,
      "duration": 0.1085,
      "velocity": 120,
      "chip": "ym2612"
    },
    {
      "channel": 1,
      "note": 66,
      "start": 16.5889,
      "duration": 0.1105,
      "velocity": 91,
      "chip": "ym2612"
    },
    {
      "channel": 2,
      "note": 68,
      "start": 16.5904,
      "duration": 0.1168,
      "velocity": 120,
      "chip": "ym2612"
    },
    {
      "channel": 1,
      "note": 61,
      "start": 16.7,
      "duration": 0.0949,
      "velocity": 91,
      "chip": "ym2612"
    },
    {
      "channel": 3,
      "note": 80,
      "start": 16.7035,
      "duration": 0.0922,
      "velocity": 100,
      "chip": "ym2612"
    },
    {
      "channel": 4,
      "note": 75,
      "start": 16.7069,
      "duration": 0.0895,
      "velocity": 100,
      "chip": "ym2612"
    },
    {
      "channel": 2,
      "note": 68,
      "start": 16.7078,
      "duration": 0.0894,
      "velocity": 120,
      "chip": "ym2612"
    },
    {
      "channel": 1,
      "note": 63,
      "start": 16.7955,
      "duration": 0.1106,
      "velocity": 91,
      "chip": "ym2612"
    },
    {
      "channel": 3,
      "note": 80,
      "start": 16.7962,
      "duration": 0.1106,
      "velocity": 100,
      "chip": "ym2612"
    },
    {
      "channel": 4,
      "note": 75,
      "start": 16.797,
      "duration": 0.1105,
      "velocity": 100,
      "chip": "ym2612"
    },
    {
      "channel": 2,
      "note": 63,
      "start": 16.7978,
      "duration": 0.1106,
      "velocity": 120,
      "chip": "ym2612"
    },
    {
      "channel": 1,
      "note": 57,
      "start": 16.9067,
      "duration": 0.1102,
      "velocity": 91,
      "chip": "ym2612"
    },
    {
      "channel": 3,
      "note": 80,
      "start": 16.9074,
      "duration": 0.1102,
      "velocity": 100,
      "chip": "ym2612"
    },
    {
      "channel": 4,
      "note": 75,
      "start": 16.9082,
      "duration": 0.1102,
      "velocity": 100,
      "chip": "ym2612"
    },
    {
      "channel": 2,
      "note": 61,
      "start": 16.909,
      "duration": 0.1102,
      "velocity": 120,
      "chip": "ym2612"
    },
    {
      "channel": 1,
      "note": 61,
      "start": 17.0175,
      "duration": 0.1109,
      "velocity": 91,
      "chip": "ym2612"
    },
    {
      "channel": 3,
      "note": 80,
      "start": 17.0182,
      "duration": 0.111,
      "velocity": 100,
      "chip": "ym2612"
    },
    {
      "channel": 4,
      "note": 75,
      "start": 17.0189,
      "duration": 0.1106,
      "velocity": 100,
      "chip": "ym2612"
    },
    {
      "channel": 2,
      "note": 57,
      "start": 17.0198,
      "duration": 0.1135,
      "velocity": 120,
      "chip": "ym2612"
    },
    {
      "channel": 1,
      "note": 56,
      "start": 17.129,
      "duration": 0.0943,
      "velocity": 91,
      "chip": "ym2612"
    },
    {
      "channel": 5,
      "note": 33,
      "start": 17.133,
      "duration": 0.0912,
      "velocity": 102,
      "chip": "ym2612"
    },
    {
      "channel": 2,
      "note": 56,
      "start": 17.1338,
      "duration": 0.0909,
      "velocity": 120,
      "chip": "ym2612"
    },
    {
      "channel": 1,
      "note": 56,
      "start": 17.2238,
      "duration": 0.1106,
      "velocity": 91,
      "chip": "ym2612"
    },
    {
      "channel": 5,
      "note": 33,
      "start": 17.2246,
      "duration": 0.1107,
      "velocity": 102,
      "chip": "ym2612"
    },
    {
      "channel": 2,
      "note": 56,
      "start": 17.2253,
      "duration": 0.1106,
      "velocity": 120,
      "chip": "ym2612"
    },
    {
      "channel": 1,
      "note": 56,
      "start": 17.335,
      "duration": 0.1106,
      "velocity": 91,
      "chip": "ym2612"
    },
    {
      "channel": 5,
      "note": 33,
      "start": 17.3358,
      "duration": 0.1107,
      "velocity": 102,
      "chip": "ym2612"
    },
    {
      "channel": 2,
      "note": 56,
      "start": 17.3365,
      "duration": 0.1105,
      "velocity": 120,
      "chip": "ym2612"
    },
    {
      "channel": 1,
      "note": 56,
      "start": 17.4462,
      "duration": 0.1104,
      "velocity": 91,
      "chip": "ym2612"
    },
    {
      "channel": 5,
      "note": 33,
      "start": 17.4469,
      "duration": 0.1128,
      "velocity": 83,
      "chip": "ym2612"
    },
    {
      "channel": 2,
      "note": 56,
      "start": 17.4476,
      "duration": 0.1142,
      "velocity": 120,
      "chip": "ym2612"
    },
    {
      "channel": 5,
      "note": 98,
      "start": 17.5616,
      "duration": 0.0907,
      "velocity": 83,
      "chip": "ym2612"
    },
    {
      "channel": 2,
      "note": 63,
      "start": 17.5624,
      "duration": 0.0905,
      "velocity": 120,
      "chip": "ym2612"
    },
    {
      "channel": 5,
      "note": 98,
      "start": 17.6528,
      "duration": 0.1112,
      "velocity": 83,
      "chip": "ym2612"
    },
    {
      "channel": 2,
      "note": 63,
      "start": 17.6535,
      "duration": 0.1111,
      "velocity": 120,
      "chip": "ym2612"
    },
    {
      "channel": 1,
      "note": 68,
      "start": 17.7637,
      "duration": 0.1105,
      "velocity": 91,
      "chip": "ym2612"
    },
    {
      "channel": 5,
      "note": 98,
      "start": 17.7644,
      "duration": 0.1106,
      "velocity": 83,
      "chip": "ym2612"
    },
    {
      "channel": 2,
      "note": 63,
      "start": 17.7651,
      "duration": 0.1105,
      "velocity": 120,
      "chip": "ym2612"
    },
    {
      "channel": 1,
      "note": 68,
      "start": 17.8747,
      "duration": 0.1115,
      "velocity": 91,
      "chip": "ym2612"
    },
    {
      "channel": 5,
      "note": 98,
      "start": 17.8755,
      "duration": 0.1173,
      "velocity": 83,
      "chip": "ym2612"
    },
    {
      "channel": 2,
      "note": 63,
      "start": 17.8762,
      "duration": 0.1169,
      "velocity": 120,
      "chip": "ym2612"
    },
    {
      "channel": 0,
      "note": 92,
      "start": 17.9861,
      "duration": 1.7137,
      "velocity": 105,
      "chip": "ym2612"
    },
    {
      "channel": 2,
      "note": 68,
      "start": 17.995,
      "duration": 0.0864,
      "velocity": 120,
      "chip": "ym2612"
    },
    {
      "channel": 2,
      "note": 68,
      "start": 18.0819,
      "duration": 0.1111,
      "velocity": 120,
      "chip": "ym2612"
    },
    {
      "channel": 1,
      "note": 63,
      "start": 18.1926,
      "duration": 0.1105,
      "velocity": 91,
      "chip": "ym2612"
    },
    {
      "channel": 2,
      "note": 68,
      "start": 18.1949,
      "duration": 0.1092,
      "velocity": 120,
      "chip": "ym2612"
    },
    {
      "channel": 1,
      "note": 66,
      "start": 18.3037,
      "duration": 0.1106,
      "velocity": 91,
      "chip": "ym2612"
    },
    {
      "channel": 2,
      "note": 68,
      "start": 18.3047,
      "duration": 0.1122,
      "velocity": 120,
      "chip": "ym2612"
    },
    {
      "channel": 1,
      "note": 61,
      "start": 18.4148,
      "duration": 0.0946,
      "velocity": 91,
      "chip": "ym2612"
    },
    {
      "channel": 3,
      "note": 80,
      "start": 18.4157,
      "duration": 0.6343,
      "velocity": 105,
      "chip": "ym2612"
    },
    {
      "channel": 4,
      "note": 75,
      "start": 18.4166,
      "duration": 0.6337,
      "velocity": 105,
      "chip": "ym2612"
    },
    {
      "channel": 2,
      "note": 68,
      "start": 18.4174,
      "duration": 0.0949,
      "velocity": 120,
      "chip": "ym2612"
    },
    {
      "channel": 1,
      "note": 63,
      "start": 18.5113,
      "duration": 0.1093,
      "velocity": 91,
      "chip": "ym2612"
    },
    {
      "channel": 2,
      "note": 63,
      "start": 18.5129,
      "duration": 0.1094,
      "velocity": 120,
      "chip": "ym2612"
    },
    {
      "channel": 1,
      "note": 57,
      "start": 18.6212,
      "duration": 0.1105,
      "velocity": 91,
      "chip": "ym2612"
    },
    {
      "channel": 2,
      "note": 61,
      "start": 18.6229,
      "duration": 0.1106,
      "velocity": 120,
      "chip": "ym2612"
    },
    {
      "channel": 1,
      "note": 61,
      "start": 18.7323,
      "duration": 0.1106,
      "velocity": 91,
      "chip": "ym2612"
    },
    {
      "channel": 2,
      "note": 57,
      "start": 18.734,
      "duration": 0.1153,
      "velocity": 120,
      "chip": "ym2612"
    },
    {
      "channel": 1,
      "note": 56,
      "start": 18.8449,
      "duration": 0.0932,
      "velocity": 91,
      "chip": "ym2612"
    },
    {
      "channel": 5,
      "note": 33,
      "start": 18.8492,
      "duration": 0.0905,
      "velocity": 102,
      "chip": "ym2612"
    },
    {
      "channel": 2,
      "note": 56,
      "start": 18.85,
      "duration": 0.0903,
      "velocity": 120,
      "chip": "ym2612"
    },
    {
      "channel": 1,
      "note": 56,
      "start": 18.9387,
      "duration": 0.1106,
      "velocity": 91,
      "chip": "ym2612"
    },
    {
      "channel": 5,
      "note": 33,
      "start": 18.9401,
      "duration": 0.1106,
      "velocity": 102,
      "chip": "ym2612"
    },
    {
      "channel": 2,
      "note": 56,
      "start": 18.9409,
      "duration": 0.1104,
      "velocity": 120,
      "chip": "ym2612"
    },
    {
      "channel": 1,
      "note": 56,
      "start": 19.0498,
      "duration": 0.1118,
      "velocity": 91,
      "chip": "ym2612"
    },
    {
      "channel": 5,
      "note": 33,
      "start": 19.0512,
      "duration": 0.1113,
      "velocity": 102,
      "chip": "ym2612"
    },
    {
      "channel": 2,
      "note": 56,
      "start": 19.0519,
      "duration": 0.1112,
      "velocity": 120,
      "chip": "ym2612"
    },
    {
      "channel": 1,
      "note": 56,
      "start": 19.1622,
      "duration": 0.1093,
      "velocity": 91,
      "chip": "ym2612"
    },
    {
      "channel": 5,
      "note": 33,
      "start": 19.163,
      "duration": 0.1116,
      "velocity": 83,
      "chip": "ym2612"
    },
    {
      "channel": 2,
      "note": 56,
      "start": 19.1637,
      "duration": 0.1117,
      "velocity": 120,
      "chip": "ym2612"
    },
    {
      "channel": 5,
      "note": 98,
      "start": 19.2752,
      "duration": 0.0921,
      "velocity": 83,
      "chip": "ym2612"
    },
    {
      "channel": 2,
      "note": 63,
      "start": 19.2759,
      "duration": 0.0919,
      "velocity": 120,
      "chip": "ym2612"
    },
    {
      "channel": 5,
      "note": 98,
      "start": 19.3677,
      "duration": 0.112,
      "velocity": 83,
      "chip": "ym2612"
    },
    {
      "channel": 2,
      "note": 63,
      "start": 19.3684,
      "duration": 0.1118,
      "velocity": 120,
      "chip": "ym2612"
    },
    {
      "channel": 1,
      "note": 68,
      "start": 19.4793,
      "duration": 0.1097,
      "velocity": 91,
      "chip": "ym2612"
    },
    {
      "channel": 5,
      "note": 98,
      "start": 19.4801,
      "duration": 0.1099,
      "velocity": 83,
      "chip": "ym2612"
    },
    {
      "channel": 2,
      "note": 63,
      "start": 19.4808,
      "duration": 0.1098,
      "velocity": 120,
      "chip": "ym2612"
    },
    {
      "channel": 1,
      "note": 68,
      "start": 19.5896,
      "duration": 0.111,
      "velocity": 91,
      "chip": "ym2612"
    },
    {
      "channel": 5,
      "note": 98,
      "start": 19.5904,
      "duration": 0.1175,
      "velocity": 83,
      "chip": "ym2612"
    },
    {
      "channel": 2,
      "note": 63,
      "start": 19.5912,
      "duration": 0.117,
      "velocity": 120,
      "chip": "ym2612"
    },
    {
      "channel": 0,
      "note": 90,
      "start": 19.7004,
      "duration": 3.4284,
      "velocity": 105,
      "chip": "ym2612"
    },
    {
      "channel": 3,
      "note": 92,
      "start": 19.7042,
      "duration": 0.0915,
      "velocity": 74,
      "chip": "ym2612"
    },
    {
      "channel": 4,
      "note": 87,
      "start": 19.7078,
      "duration": 0.0887,
      "velocity": 74,
      "chip": "ym2612"
    },
    {
      "channel": 2,
      "note": 68,
      "start": 19.7088,
      "duration": 0.0885,
      "velocity": 120,
      "chip": "ym2612"
    },
    {
      "channel": 3,
      "note": 90,
      "start": 19.7963,
      "duration": 0.1109,
      "velocity": 74,
      "chip": "ym2612"
    },
    {
      "channel": 4,
      "note": 85,
      "start": 19.7971,
      "duration": 0.111,
      "velocity": 74,
      "chip": "ym2612"
    },
    {
      "channel": 2,
      "note": 68,
      "start": 19.7979,
      "duration": 0.1109,
      "velocity": 120,
      "chip": "ym2612"
    },
    {
      "channel": 1,
      "note": 63,
      "start": 19.9071,
      "duration": 0.1106,
      "velocity": 91,
      "chip": "ym2612"
    },
    {
      "channel": 3,
      "note": 92,
      "start": 19.9078,
      "duration": 0.2244,
      "velocity": 100,
      "chip": "ym2612"
    },
    {
      "channel": 4,
      "note": 87,
      "start": 19.9086,
      "duration": 0.2271,
      "velocity": 100,
      "chip": "ym2612"
    },
    {
      "channel": 2,
      "note": 68,
      "start": 19.9094,
      "duration": 0.1097,
      "velocity": 120,
      "chip": "ym2612"
    },
    {
      "channel": 1,
      "note": 66,
      "start": 20.0182,
      "duration": 0.1105,
      "velocity": 91,
      "chip": "ym2612"
    },
    {
      "channel": 2,
      "note": 68,
      "start": 20.0197,
      "duration": 0.1168,
      "velocity": 120,
      "chip": "ym2612"
    },
    {
      "channel": 1,
      "note": 61,
      "start": 20.1293,
      "duration": 0.0949,
      "velocity": 91,
      "chip": "ym2612"
    },
    {
      "channel": 3,
      "note": 80,
      "start": 20.1328,
      "duration": 0.0921,
      "velocity": 100,
      "chip": "ym2612"
    },
    {
      "channel": 4,
      "note": 75,
      "start": 20.1363,
      "duration": 0.0894,
      "velocity": 100,
      "chip": "ym2612"
    },
    {
      "channel": 2,
      "note": 68,
      "start": 20.1371,
      "duration": 0.0907,
      "velocity": 120,
      "chip": "ym2612"
    },
    {
      "channel": 1,
      "note": 63,
      "start": 20.2247,
      "duration": 0.1104,
      "velocity": 91,
      "chip": "ym2612"
    },
    {
      "channel": 3,
      "note": 80,
      "start": 20.2255,
      "duration": 0.1103,
      "velocity": 100,
      "chip": "ym2612"
    },
    {
      "channel": 4,
      "note": 75,
      "start": 20.2263,
      "duration": 0.1103,
      "velocity": 100,
      "chip": "ym2612"
    },
    {
      "channel": 2,
      "note": 63,
      "start": 20.2284,
      "duration": 0.109,
      "velocity": 120,
      "chip": "ym2612"
    },
    {
      "channel": 1,
      "note": 57,
      "start": 20.3357,
      "duration": 0.1106,
      "velocity": 91,
      "chip": "ym2612"
    },
    {
      "channel": 3,
      "note": 80,
      "start": 20.3364,
      "duration": 0.1105,
      "velocity": 100,
      "chip": "ym2612"
    },
    {
      "channel": 4,
      "note": 75,
      "start": 20.3372,
      "duration": 0.1105,
      "velocity": 100,
      "chip": "ym2612"
    },
    {
      "channel": 2,
      "note": 61,
      "start": 20.338,
      "duration": 0.1106,
      "velocity": 120,
      "chip": "ym2612"
    },
    {
      "channel": 1,
      "note": 61,
      "start": 20.4468,
      "duration": 0.1106,
      "velocity": 91,
      "chip": "ym2612"
    },
    {
      "channel": 3,
      "note": 80,
      "start": 20.4476,
      "duration": 0.1146,
      "velocity": 74,
      "chip": "ym2612"
    },
    {
      "channel": 4,
      "note": 75,
      "start": 20.4483,
      "duration": 0.1174,
      "velocity": 74,
      "chip": "ym2612"
    },
    {
      "channel": 2,
      "note": 57,
      "start": 20.4491,
      "duration": 0.1208,
      "velocity": 120,
      "chip": "ym2612"
    },
    {
      "channel": 1,
      "note": 56,
      "start": 20.558,
      "duration": 0.0946,
      "velocity": 91,
      "chip": "ym2612"
    },
    {
      "channel": 3,
      "note": 85,
      "start": 20.5628,
      "duration": 0.0905,
      "velocity": 74,
      "chip": "ym2612"
    },
    {
      "channel": 4,
      "note": 80,
      "start": 20.5663,
      "duration": 0.0878,
      "velocity": 74,
      "chip": "ym2612"
    },
    {
      "channel": 5,
      "note": 33,
      "start": 20.5697,
      "duration": 0.0852,
      "velocity": 102,
      "chip": "ym2612"
    },
    {
      "channel": 2,
      "note": 56,
      "start": 20.5705,
      "duration": 0.085,
      "velocity": 120,
      "chip": "ym2612"
    },
    {
      "channel": 1,
      "note": 56,
      "start": 20.6532,
      "duration": 0.1107,
      "velocity": 91,
      "chip": "ym2612"
    },
    {
      "channel": 3,
      "note": 83,
      "start": 20.654,
      "duration": 0.1107,
      "velocity": 74,
      "chip": "ym2612"
    },
    {
      "channel": 4,
      "note": 78,
      "start": 20.6547,
      "duration": 0.1108,
      "velocity": 74,
      "chip": "ym2612"
    },
    {
      "channel": 5,
      "note": 33,
      "start": 20.6553,
      "duration": 0.111,
      "velocity": 102,
      "chip": "ym2612"
    },
    {
      "channel": 2,
      "note": 56,
      "start": 20.656,
      "duration": 0.1108,
      "velocity": 120,
      "chip": "ym2612"
    },
    {
      "channel": 1,
      "note": 56,
      "start": 20.7646,
      "duration": 0.1103,
      "velocity": 91,
      "chip": "ym2612"
    },
    {
      "channel": 3,
      "note": 85,
      "start": 20.7653,
      "duration": 0.2237,
      "velocity": 100,
      "chip": "ym2612"
    },
    {
      "channel": 4,
      "note": 80,
      "start": 20.7661,
      "duration": 0.2263,
      "velocity": 100,
      "chip": "ym2612"
    },
    {
      "channel": 5,
      "note": 33,
      "start": 20.7667,
      "duration": 0.1096,
      "velocity": 102,
      "chip": "ym2612"
    },
    {
      "channel": 2,
      "note": 56,
      "start": 20.7674,
      "duration": 0.1108,
      "velocity": 120,
      "chip": "ym2612"
    },
    {
      "channel": 1,
      "note": 56,
      "start": 20.8754,
      "duration": 0.1105,
      "velocity": 91,
      "chip": "ym2612"
    },
    {
      "channel": 5,
      "note": 33,
      "start": 20.878,
      "duration": 0.119,
      "velocity": 83,
      "chip": "ym2612"
    },
    {
      "channel": 2,
      "note": 56,
      "start": 20.8788,
      "duration": 0.1191,
      "velocity": 120,
      "chip": "ym2612"
    },
    {
      "channel": 3,
      "note": 68,
      "start": 20.9895,
      "duration": 0.092,
      "velocity": 100,
      "chip": "ym2612"
    },
    {
      "channel": 4,
      "note": 63,
      "start": 20.9931,
      "duration": 0.0893,
      "velocity": 100,
      "chip": "ym2612"
    },
    {
      "channel": 5,
      "note": 98,
      "start": 20.9977,
      "duration": 0.0853,
      "velocity": 83,
      "chip": "ym2612"
    },
    {
      "channel": 2,
      "note": 63,
      "start": 20.9985,
      "duration": 0.0852,
      "velocity": 120,
      "chip": "ym2612"
    },
    {
      "channel": 3,
      "note": 68,
      "start": 21.0821,
      "duration": 0.1123,
      "velocity": 100,
      "chip": "ym2612"
    },
    {
      "channel": 4,
      "note": 63,
      "start": 21.0829,
      "duration": 0.1123,
      "velocity": 100,
      "chip": "ym2612"
    },
    {
      "channel": 5,
      "note": 98,
      "start": 21.0834,
      "duration": 0.1125,
      "velocity": 83,
      "chip": "ym2612"
    },
    {
      "channel": 2,
      "note": 63,
      "start": 21.0842,
      "duration": 0.1123,
      "velocity": 120,
      "chip": "ym2612"
    },
    {
      "channel": 1,
      "note": 68,
      "start": 21.193,
      "duration": 0.1105,
      "velocity": 91,
      "chip": "ym2612"
    },
    {
      "channel": 3,
      "note": 68,
      "start": 21.195,
      "duration": 0.1092,
      "velocity": 100,
      "chip": "ym2612"
    },
    {
      "channel": 4,
      "note": 63,
      "start": 21.1958,
      "duration": 0.1092,
      "velocity": 100,
      "chip": "ym2612"
    },
    {
      "channel": 5,
      "note": 98,
      "start": 21.1964,
      "duration": 0.1093,
      "velocity": 83,
      "chip": "ym2612"
    },
    {
      "channel": 2,
      "note": 63,
      "start": 21.1971,
      "duration": 0.1092,
      "velocity": 120,
      "chip": "ym2612"
    },
    {
      "channel": 1,
      "note": 68,
      "start": 21.3041,
      "duration": 0.1106,
      "velocity": 91,
      "chip": "ym2612"
    },
    {
      "channel": 3,
      "note": 68,
      "start": 21.3048,
      "duration": 0.1129,
      "velocity": 74,
      "chip": "ym2612"
    },
    {
      "channel": 4,
      "note": 63,
      "start": 21.3055,
      "duration": 0.1157,
      "velocity": 74,
      "chip": "ym2612"
    },
    {
      "channel": 5,
      "note": 98,
      "start": 21.3062,
      "duration": 0.1158,
      "velocity": 83,
      "chip": "ym2612"
    },
    {
      "channel": 2,
      "note": 63,
      "start": 21.3068,
      "duration": 0.1155,
      "velocity": 120,
      "chip": "ym2612"
    },
    {
      "channel": 3,
      "note": 92,
      "start": 21.4183,
      "duration": 0.0932,
      "velocity": 74,
      "chip": "ym2612"
    },
    {
      "channel": 4,
      "note": 87,
      "start": 21.4218,
      "duration": 0.0905,
      "velocity": 74,
      "chip": "ym2612"
    },
    {
      "channel": 2,
      "note": 68,
      "start": 21.4229,
      "duration": 0.0902,
      "velocity": 120,
      "chip": "ym2612"
    },
    {
      "channel": 3,
      "note": 90,
      "start": 21.5121,
      "duration": 0.1097,
      "velocity": 74,
      "chip": "ym2612"
    },
    {
      "channel": 4,
      "note": 85,
      "start": 21.5128,
      "duration": 0.1097,
      "velocity": 74,
      "chip": "ym2612"
    },
    {
      "channel": 2,
      "note": 68,
      "start": 21.5137,
      "duration": 0.1097,
      "velocity": 120,
      "chip": "ym2612"
    },
    {
      "channel": 1,
      "note": 63,
      "start": 21.6216,
      "duration": 0.1106,
      "velocity": 91,
      "chip": "ym2612"
    },
    {
      "channel": 3,
      "note": 92,
      "start": 21.6224,
      "duration": 0.223,
      "velocity": 74,
      "chip": "ym2612"
    },
    {
      "channel": 4,
      "note": 87,
      "start": 21.6232,
      "duration": 0.2225,
      "velocity": 74,
      "chip": "ym2612"
    },
    {
      "channel": 2,
      "note": 68,
      "start": 21.624,
      "duration": 0.1097,
      "velocity": 120,
      "chip": "ym2612"
    },
    {
      "channel": 1,
      "note": 66,
      "start": 21.7327,
      "duration": 0.1119,
      "velocity": 91,
      "chip": "ym2612"
    },
    {
      "channel": 2,
      "note": 68,
      "start": 21.7343,
      "duration": 0.1118,
      "velocity": 120,
      "chip": "ym2612"
    },
    {
      "channel": 1,
      "note": 61,
      "start": 21.8452,
      "duration": 0.0934,
      "velocity": 91,
      "chip": "ym2612"
    },
    {
      "channel": 2,
      "note": 68,
      "start": 21.8467,
      "duration": 0.0929,
      "velocity": 120,
      "chip": "ym2612"
    },
    {
      "channel": 1,
      "note": 63,
      "start": 21.9392,
      "duration": 0.1105,
      "velocity": 91,
      "chip": "ym2612"
    },
    {
      "channel": 2,
      "note": 63,
      "start": 21.9401,
      "duration": 0.1105,
      "velocity": 120,
      "chip": "ym2612"
    },
    {
      "channel": 1,
      "note": 57,
      "start": 22.0502,
      "duration": 0.1116,
      "velocity": 91,
      "chip": "ym2612"
    },
    {
      "channel": 2,
      "note": 61,
      "start": 22.0512,
      "duration": 0.1117,
      "velocity": 120,
      "chip": "ym2612"
    },
    {
      "channel": 1,
      "note": 61,
      "start": 22.1624,
      "duration": 0.1095,
      "velocity": 91,
      "chip": "ym2612"
    },
    {
      "channel": 2,
      "note": 57,
      "start": 22.1635,
      "duration": 0.1209,
      "velocity": 120,
      "chip": "ym2612"
    },
    {
      "channel": 1,
      "note": 56,
      "start": 22.2725,
      "duration": 0.0947,
      "velocity": 91,
      "chip": "ym2612"
    },
    {
      "channel": 3,
      "note": 92,
      "start": 22.276,
      "duration": 0.0919,
      "velocity": 100,
      "chip": "ym2612"
    },
    {
      "channel": 4,
      "note": 87,
      "start": 22.2808,
      "duration": 0.0879,
      "velocity": 100,
      "chip": "ym2612"
    },
    {
      "channel": 5,
      "note": 33,
      "start": 22.2841,
      "duration": 0.0853,
      "velocity": 102,
      "chip": "ym2612"
    },
    {
      "channel": 2,
      "note": 56,
      "start": 22.285,
      "duration": 0.0851,
      "velocity": 120,
      "chip": "ym2612"
    },
    {
      "channel": 1,
      "note": 56,
      "start": 22.3678,
      "duration": 0.1112,
      "velocity": 91,
      "chip": "ym2612"
    },
    {
      "channel": 3,
      "note": 92,
      "start": 22.3686,
      "duration": 0.1111,
      "velocity": 100,
      "chip": "ym2612"
    },
    {
      "channel": 4,
      "note": 87,
      "start": 22.3693,
      "duration": 0.1111,
      "velocity": 100,
      "chip": "ym2612"
    },
    {
      "channel": 5,
      "note": 33,
      "start": 22.3699,
      "duration": 0.1113,
      "velocity": 102,
      "chip": "ym2612"
    },
    {
      "channel": 2,
      "note": 56,
      "start": 22.3706,
      "duration": 0.1112,
      "velocity": 120,
      "chip": "ym2612"
    },
    {
      "channel": 1,
      "note": 56,
      "start": 22.4796,
      "duration": 0.1099,
      "velocity": 91,
      "chip": "ym2612"
    },
    {
      "channel": 3,
      "note": 92,
      "start": 22.4803,
      "duration": 0.1098,
      "velocity": 100,
      "chip": "ym2612"
    },
    {
      "channel": 4,
      "note": 87,
      "start": 22.4811,
      "duration": 0.1099,
      "velocity": 100,
      "chip": "ym2612"
    },
    {
      "channel": 5,
      "note": 33,
      "start": 22.4817,
      "duration": 0.11,
      "velocity": 102,
      "chip": "ym2612"
    },
    {
      "channel": 2,
      "note": 56,
      "start": 22.4824,
      "duration": 0.1099,
      "velocity": 120,
      "chip": "ym2612"
    },
    {
      "channel": 1,
      "note": 56,
      "start": 22.59,
      "duration": 0.1106,
      "velocity": 91,
      "chip": "ym2612"
    },
    {
      "channel": 3,
      "note": 92,
      "start": 22.5908,
      "duration": 0.1128,
      "velocity": 74,
      "chip": "ym2612"
    },
    {
      "channel": 4,
      "note": 87,
      "start": 22.5915,
      "duration": 0.1156,
      "velocity": 74,
      "chip": "ym2612"
    },
    {
      "channel": 5,
      "note": 33,
      "start": 22.5922,
      "duration": 0.1196,
      "velocity": 83,
      "chip": "ym2612"
    },
    {
      "channel": 2,
      "note": 56,
      "start": 22.5929,
      "duration": 0.1197,
      "velocity": 120,
      "chip": "ym2612"
    },
    {
      "channel": 3,
      "note": 87,
      "start": 22.7042,
      "duration": 0.0919,
      "velocity": 74,
      "chip": "ym2612"
    },
    {
      "channel": 4,
      "note": 82,
      "start": 22.7077,
      "duration": 0.0892,
      "velocity": 74,
      "chip": "ym2612"
    },
    {
      "channel": 5,
      "note": 98,
      "start": 22.7124,
      "duration": 0.0852,
      "velocity": 83,
      "chip": "ym2612"
    },
    {
      "channel": 2,
      "note": 63,
      "start": 22.7131,
      "duration": 0.0851,
      "velocity": 120,
      "chip": "ym2612"
    },
    {
      "channel": 3,
      "note": 85,
      "start": 22.7967,
      "duration": 0.1109,
      "velocity": 74,
      "chip": "ym2612"
    },
    {
      "channel": 4,
      "note": 80,
      "start": 22.7974,
      "duration": 0.111,
      "velocity": 74,
      "chip": "ym2612"
    },
    {
      "channel": 5,
      "note": 98,
      "start": 22.798,
      "duration": 0.1111,
      "velocity": 83,
      "chip": "ym2612"
    },
    {
      "channel": 2,
      "note": 63,
      "start": 22.7988,
      "duration": 0.111,
      "velocity": 120,
      "chip": "ym2612"
    },
    {
      "channel": 1,
      "note": 68,
      "start": 22.9075,
      "duration": 0.1105,
      "velocity": 91,
      "chip": "ym2612"
    },
    {
      "channel": 3,
      "note": 87,
      "start": 22.9083,
      "duration": 0.2245,
      "velocity": 100,
      "chip": "ym2612"
    },
    {
      "channel": 4,
      "note": 82,
      "start": 22.909,
      "duration": 0.2272,
      "velocity": 100,
      "chip": "ym2612"
    },
    {
      "channel": 5,
      "note": 98,
      "start": 22.9096,
      "duration": 0.1099,
      "velocity": 83,
      "chip": "ym2612"
    },
    {
      "channel": 2,
      "note": 63,
      "start": 22.9116,
      "duration": 0.1085,
      "velocity": 120,
      "chip": "ym2612"
    },
    {
      "channel": 1,
      "note": 68,
      "start": 23.0186,
      "duration": 0.1111,
      "velocity": 91,
      "chip": "ym2612"
    },
    {
      "channel": 5,
      "note": 98,
      "start": 23.0199,
      "duration": 0.117,
      "velocity": 83,
      "chip": "ym2612"
    },
    {
      "channel": 2,
      "note": 63,
      "start": 23.0207,
      "duration": 0.1166,
      "velocity": 120,
      "chip": "ym2612"
    },
    {
      "channel": 0,
      "note": 87,
      "start": 23.1296,
      "duration": 1.7151,
      "velocity": 105,
      "chip": "ym2612"
    },
    {
      "channel": 3,
      "note": 68,
      "start": 23.1333,
      "duration": 0.0914,
      "velocity": 100,
      "chip": "ym2612"
    },
    {
      "channel": 4,
      "note": 63,
      "start": 23.1368,
      "duration": 0.0887,
      "velocity": 100,
      "chip": "ym2612"
    },
    {
      "channel": 2,
      "note": 68,
      "start": 23.1378,
      "duration": 0.0885,
      "velocity": 120,
      "chip": "ym2612"
    },
    {
      "channel": 3,
      "note": 68,
      "start": 23.2254,
      "duration": 0.1109,
      "velocity": 100,
      "chip": "ym2612"
    },
    {
      "channel": 4,
      "note": 63,
      "start": 23.2261,
      "duration": 0.1109,
      "velocity": 100,
      "chip": "ym2612"
    },
    {
      "channel": 2,
      "note": 68,
      "start": 23.2282,
      "duration": 0.1096,
      "velocity": 120,
      "chip": "ym2612"
    },
    {
      "channel": 1,
      "note": 63,
      "start": 23.3361,
      "duration": 0.1106,
      "velocity": 91,
      "chip": "ym2612"
    },
    {
      "channel": 3,
      "note": 68,
      "start": 23.3369,
      "duration": 0.1105,
      "velocity": 100,
      "chip": "ym2612"
    },
    {
      "channel": 4,
      "note": 63,
      "start": 23.3376,
      "duration": 0.1106,
      "velocity": 100,
      "chip": "ym2612"
    },
    {
      "channel": 2,
      "note": 68,
      "start": 23.3384,
      "duration": 0.1106,
      "velocity": 120,
      "chip": "ym2612"
    },
    {
      "channel": 1,
      "note": 66,
      "start": 23.4473,
      "duration": 0.1106,
      "velocity": 91,
      "chip": "ym2612"
    },
    {
      "channel": 3,
      "note": 68,
      "start": 23.448,
      "duration": 0.1146,
      "velocity": 74,
      "chip": "ym2612"
    },
    {
      "channel": 4,
      "note": 63,
      "start": 23.4487,
      "duration": 0.1174,
      "velocity": 74,
      "chip": "ym2612"
    },
    {
      "channel": 2,
      "note": 68,
      "start": 23.4495,
      "duration": 0.1174,
      "velocity": 120,
      "chip": "ym2612"
    },
    {
      "channel": 1,
      "note": 61,
      "start": 23.5584,
      "duration": 0.0946,
      "velocity": 91,
      "chip": "ym2612"
    },
    {
      "channel": 3,
      "note": 92,
      "start": 23.5632,
      "duration": 0.0906,
      "velocity": 74,
      "chip": "ym2612"
    },
    {
      "channel": 4,
      "note": 87,
      "start": 23.5667,
      "duration": 0.0878,
      "velocity": 74,
      "chip": "ym2612"
    },
    {
      "channel": 2,
      "note": 68,
      "start": 23.5676,
      "duration": 0.0878,
      "velocity": 120,
      "chip": "ym2612"
    },
    {
      "channel": 1,
      "note": 63,
      "start": 23.6537,
      "duration": 0.1106,
      "velocity": 91,
      "chip": "ym2612"
    },
    {
      "channel": 3,
      "note": 90,
      "start": 23.6544,
      "duration": 0.1105,
      "velocity": 74,
      "chip": "ym2612"
    },
    {
      "channel": 4,
      "note": 85,
      "start": 23.6552,
      "duration": 0.1105,
      "velocity": 74,
      "chip": "ym2612"
    },
    {
      "channel": 2,
      "note": 63,
      "start": 23.656,
      "duration": 0.1106,
      "velocity": 120,
      "chip": "ym2612"
    },
    {
      "channel": 1,
      "note": 57,
      "start": 23.7648,
      "duration": 0.1105,
      "velocity": 91,
      "chip": "ym2612"
    },
    {
      "channel": 3,
      "note": 92,
      "start": 23.7656,
      "duration": 0.2244,
      "velocity": 100,
      "chip": "ym2612"
    },
    {
      "channel": 4,
      "note": 87,
      "start": 23.7663,
      "duration": 0.2284,
      "velocity": 100,
      "chip": "ym2612"
    },
    {
      "channel": 2,
      "note": 61,
      "start": 23.7672,
      "duration": 0.111,
      "velocity": 120,
      "chip": "ym2612"
    },
    {
      "channel": 1,
      "note": 61,
      "start": 23.8759,
      "duration": 0.1107,
      "velocity": 91,
      "chip": "ym2612"
    },
    {
      "channel": 2,
      "note": 57,
      "start": 23.8787,
      "duration": 0.1202,
      "velocity": 120,
      "chip": "ym2612"
    },
    {
      "channel": 1,
      "note": 56,
      "start": 23.9871,
      "duration": 0.0946,
      "velocity": 91,
      "chip": "ym2612"
    },
    {
      "channel": 3,
      "note": 80,
      "start": 23.9906,
      "duration": 0.0918,
      "velocity": 100,
      "chip": "ym2612"
    },
    {
      "channel": 4,
      "note": 75,
      "start": 23.9954,
      "duration": 0.0878,
      "velocity": 100,
      "chip": "ym2612"
    },
    {
      "channel": 5,
      "note": 33,
      "start": 23.9988,
      "duration": 0.0852,
      "velocity": 102,
      "chip": "ym2612"
    },
    {
      "channel": 2,
      "note": 56,
      "start": 23.9995,
      "duration": 0.085,
      "velocity": 120,
      "chip": "ym2612"
    },
    {
      "channel": 1,
      "note": 56,
      "start": 24.0823,
      "duration": 0.1105,
      "velocity": 91,
      "chip": "ym2612"
    },
    {
      "channel": 3,
      "note": 80,
      "start": 24.0831,
      "duration": 0.1118,
      "velocity": 100,
      "chip": "ym2612"
    },
    {
      "channel": 4,
      "note": 75,
      "start": 24.0838,
      "duration": 0.1118,
      "velocity": 100,
      "chip": "ym2612"
    },
    {
      "channel": 5,
      "note": 33,
      "start": 24.0844,
      "duration": 0.1119,
      "velocity": 102,
      "chip": "ym2612"
    },
    {
      "channel": 2,
      "note": 56,
      "start": 24.0851,
      "duration": 0.1118,
      "velocity": 120,
      "chip": "ym2612"
    },
    {
      "channel": 1,
      "note": 56,
      "start": 24.1947,
      "duration": 0.1093,
      "velocity": 91,
      "chip": "ym2612"
    },
    {
      "channel": 3,
      "note": 80,
      "start": 24.1954,
      "duration": 0.1093,
      "velocity": 100,
      "chip": "ym2612"
    },
    {
      "channel": 4,
      "note": 75,
      "start": 24.1962,
      "duration": 0.1093,
      "velocity": 100,
      "chip": "ym2612"
    },
    {
      "channel": 5,
      "note": 33,
      "start": 24.1967,
      "duration": 0.1095,
      "velocity": 102,
      "chip": "ym2612"
    },
    {
      "channel": 2,
      "note": 56,
      "start": 24.1975,
      "duration": 0.1093,
      "velocity": 120,
      "chip": "ym2612"
    },
    {
      "channel": 1,
      "note": 56,
      "start": 24.3046,
      "duration": 0.1105,
      "velocity": 91,
      "chip": "ym2612"
    },
    {
      "channel": 3,
      "note": 80,
      "start": 24.3053,
      "duration": 0.11,
      "velocity": 100,
      "chip": "ym2612"
    },
    {
      "channel": 4,
      "note": 75,
      "start": 24.306,
      "duration": 0.1097,
      "velocity": 100,
      "chip": "ym2612"
    },
    {
      "channel": 5,
      "note": 33,
      "start": 24.3067,
      "duration": 0.112,
      "velocity": 83,
      "chip": "ym2612"
    },
    {
      "channel": 2,
      "note": 56,
      "start": 24.3074,
      "duration": 0.1121,
      "velocity": 120,
      "chip": "ym2612"
    },
    {
      "channel": 5,
      "note": 98,
      "start": 24.4193,
      "duration": 0.0929,
      "velocity": 83,
      "chip": "ym2612"
    },
    {
      "channel": 2,
      "note": 63,
      "start": 24.42,
      "duration": 0.0927,
      "velocity": 120,
      "chip": "ym2612"
    },
    {
      "channel": 5,
      "note": 98,
      "start": 24.5126,
      "duration": 0.1101,
      "velocity": 83,
      "chip": "ym2612"
    },
    {
      "channel": 2,
      "note": 63,
      "start": 24.5133,
      "duration": 0.11,
      "velocity": 120,
      "chip": "ym2612"
    },
    {
      "channel": 1,
      "note": 68,
      "start": 24.6224,
      "duration": 0.1103,
      "velocity": 91,
      "chip": "ym2612"
    },
    {
      "channel": 5,
      "note": 98,
      "start": 24.6232,
      "duration": 0.1105,
      "velocity": 83,
      "chip": "ym2612"
    },
    {
      "channel": 2,
      "note": 63,
      "start": 24.6238,
      "duration": 0.1104,
      "velocity": 120,
      "chip": "ym2612"
    },
    {
      "channel": 1,
      "note": 68,
      "start": 24.7333,
      "duration": 0.1122,
      "velocity": 91,
      "chip": "ym2612"
    },
    {
      "channel": 5,
      "note": 98,
      "start": 24.7341,
      "duration": 0.1119,
      "velocity": 83,
      "chip": "ym2612"
    },
    {
      "channel": 2,
      "note": 63,
      "start": 24.7348,
      "duration": 0.1115,
      "velocity": 120,
      "chip": "ym2612"
    },
    {
      "channel": 0,
      "note": 85,
      "start": 24.8454,
      "duration": 1.7126,
      "velocity": 105,
      "chip": "ym2612"
    },
    {
      "channel": 2,
      "note": 68,
      "start": 24.8469,
      "duration": 0.0926,
      "velocity": 120,
      "chip": "ym2612"
    },
    {
      "channel": 2,
      "note": 68,
      "start": 24.9401,
      "duration": 0.111,
      "velocity": 120,
      "chip": "ym2612"
    },
    {
      "channel": 1,
      "note": 63,
      "start": 25.0506,
      "duration": 0.1117,
      "velocity": 91,
      "chip": "ym2612"
    },
    {
      "channel": 2,
      "note": 68,
      "start": 25.0516,
      "duration": 0.1117,
      "velocity": 120,
      "chip": "ym2612"
    },
    {
      "channel": 1,
      "note": 66,
      "start": 25.1629,
      "duration": 0.1095,
      "velocity": 91,
      "chip": "ym2612"
    },
    {
      "channel": 2,
      "note": 68,
      "start": 25.1639,
      "duration": 0.1168,
      "velocity": 120,
      "chip": "ym2612"
    },
    {
      "channel": 1,
      "note": 61,
      "start": 25.2729,
      "duration": 0.0946,
      "velocity": 91,
      "chip": "ym2612"
    },
    {
      "channel": 2,
      "note": 68,
      "start": 25.2813,
      "duration": 0.0873,
      "velocity": 120,
      "chip": "ym2612"
    },
    {
      "channel": 1,
      "note": 63,
      "start": 25.3681,
      "duration": 0.1106,
      "velocity": 91,
      "chip": "ym2612"
    },
    {
      "channel": 2,
      "note": 63,
      "start": 25.3691,
      "duration": 0.1106,
      "velocity": 120,
      "chip": "ym2612"
    },
    {
      "channel": 1,
      "note": 57,
      "start": 25.4793,
      "duration": 0.1106,
      "velocity": 91,
      "chip": "ym2612"
    },
    {
      "channel": 2,
      "note": 61,
      "start": 25.4803,
      "duration": 0.1106,
      "velocity": 120,
      "chip": "ym2612"
    },
    {
      "channel": 1,
      "note": 61,
      "start": 25.5905,
      "duration": 0.1106,
      "velocity": 91,
      "chip": "ym2612"
    },
    {
      "channel": 2,
      "note": 57,
      "start": 25.5914,
      "duration": 0.1156,
      "velocity": 120,
      "chip": "ym2612"
    },
    {
      "channel": 1,
      "note": 56,
      "start": 25.7016,
      "duration": 0.0947,
      "velocity": 91,
      "chip": "ym2612"
    },
    {
      "channel": 3,
      "note": 80,
      "start": 25.7026,
      "duration": 0.6342,
      "velocity": 105,
      "chip": "ym2612"
    },
    {
      "channel": 4,
      "note": 75,
      "start": 25.7035,
      "duration": 0.6337,
      "velocity": 105,
      "chip": "ym2612"
    },
    {
      "channel": 5,
      "note": 33,
      "start": 25.7068,
      "duration": 0.0908,
      "velocity": 102,
      "chip": "ym2612"
    },
    {
      "channel": 2,
      "note": 56,
      "start": 25.7076,
      "duration": 0.0907,
      "velocity": 120,
      "chip": "ym2612"
    },
    {
      "channel": 1,
      "note": 56,
      "start": 25.7969,
      "duration": 0.1104,
      "velocity": 91,
      "chip": "ym2612"
    },
    {
      "channel": 5,
      "note": 33,
      "start": 25.7981,
      "duration": 0.1108,
      "velocity": 102,
      "chip": "ym2612"
    },
    {
      "channel": 2,
      "note": 56,
      "start": 25.7989,
      "duration": 0.1106,
      "velocity": 120,
      "chip": "ym2612"
    },
    {
      "channel": 1,
      "note": 56,
      "start": 25.9079,
      "duration": 0.1106,
      "velocity": 91,
      "chip": "ym2612"
    },
    {
      "channel": 5,
      "note": 33,
      "start": 25.9094,
      "duration": 0.1107,
      "velocity": 102,
      "chip": "ym2612"
    },
    {
      "channel": 2,
      "note": 56,
      "start": 25.9114,
      "duration": 0.1093,
      "velocity": 120,
      "chip": "ym2612"
    },
    {
      "channel": 1,
      "note": 56,
      "start": 26.0191,
      "duration": 0.1106,
      "velocity": 91,
      "chip": "ym2612"
    },
    {
      "channel": 5,
      "note": 33,
      "start": 26.0205,
      "duration": 0.1129,
      "velocity": 83,
      "chip": "ym2612"
    },
    {
      "channel": 2,
      "note": 56,
      "start": 26.0213,
      "duration": 0.1129,
      "velocity": 120,
      "chip": "ym2612"
    },
    {
      "channel": 5,
      "note": 98,
      "start": 26.1341,
      "duration": 0.092,
      "velocity": 83,
      "chip": "ym2612"
    },
    {
      "channel": 2,
      "note": 63,
      "start": 26.1348,
      "duration": 0.0932,
      "velocity": 120,
      "chip": "ym2612"
    },
    {
      "channel": 5,
      "note": 98,
      "start": 26.2278,
      "duration": 0.1097,
      "velocity": 83,
      "chip": "ym2612"
    },
    {
      "channel": 2,
      "note": 63,
      "start": 26.2285,
      "duration": 0.1095,
      "velocity": 120,
      "chip": "ym2612"
    },
    {
      "channel": 1,
      "note": 68,
      "start": 26.3366,
      "duration": 0.1105,
      "velocity": 91,
      "chip": "ym2612"
    },
    {
      "channel": 5,
      "note": 98,
      "start": 26.338,
      "duration": 0.1101,
      "velocity": 83,
      "chip": "ym2612"
    },
    {
      "channel": 2,
      "note": 63,
      "start": 26.3387,
      "duration": 0.11,
      "velocity": 120,
      "chip": "ym2612"
    },
    {
      "channel": 1,
      "note": 68,
      "start": 26.4477,
      "duration": 0.1106,
      "velocity": 91,
      "chip": "ym2612"
    },
    {
      "channel": 5,
      "note": 98,
      "start": 26.4485,
      "duration": 0.1102,
      "velocity": 83,
      "chip": "ym2612"
    },
    {
      "channel": 2,
      "note": 63,
      "start": 26.4492,
      "duration": 0.1098,
      "velocity": 120,
      "chip": "ym2612"
    },
    {
      "channel": 2,
      "note": 68,
      "start": 26.5596,
      "duration": 0.0942,
      "velocity": 120,
      "chip": "ym2612"
    },
    {
      "channel": 2,
      "note": 68,
      "start": 26.6544,
      "duration": 0.1109,
      "velocity": 120,
      "chip": "ym2612"
    },
    {
      "channel": 1,
      "note": 63,
      "start": 26.7649,
      "duration": 0.1105,
      "velocity": 91,
      "chip": "ym2612"
    },
    {
      "channel": 2,
      "note": 68,
      "start": 26.766,
      "duration": 0.1118,
      "velocity": 120,
      "chip": "ym2612"
    },
    {
      "channel": 1,
      "note": 66,
      "start": 26.8761,
      "duration": 0.1105,
      "velocity": 91,
      "chip": "ym2612"
    },
    {
      "channel": 2,
      "note": 68,
      "start": 26.8784,
      "duration": 0.1174,
      "velocity": 120,
      "chip": "ym2612"
    },
    {
      "channel": 1,
      "note": 61,
      "start": 26.9872,
      "duration": 0.0946,
      "velocity": 91,
      "chip": "ym2612"
    },
    {
      "channel": 3,
      "note": 92,
      "start": 26.9907,
      "duration": 0.0919,
      "velocity": 74,
      "chip": "ym2612"
    },
    {
      "channel": 4,
      "note": 87,
      "start": 26.9955,
      "duration": 0.0878,
      "velocity": 74,
      "chip": "ym2612"
    },
    {
      "channel": 2,
      "note": 68,
      "start": 26.9963,
      "duration": 0.0879,
      "velocity": 120,
      "chip": "ym2612"
    },
    {
      "channel": 1,
      "note": 63,
      "start": 27.0825,
      "duration": 0.1105,
      "velocity": 91,
      "chip": "ym2612"
    },
    {
      "channel": 3,
      "note": 90,
      "start": 27.0833,
      "duration": 0.1118,
      "velocity": 74,
      "chip": "ym2612"
    },
    {
      "channel": 4,
      "note": 85,
      "start": 27.084,
      "duration": 0.1118,
      "velocity": 74,
      "chip": "ym2612"
    },
    {
      "channel": 2,
      "note": 63,
      "start": 27.0848,
      "duration": 0.1118,
      "velocity": 120,
      "chip": "ym2612"
    },
    {
      "channel": 1,
      "note": 57,
      "start": 27.1949,
      "duration": 0.1093,
      "velocity": 91,
      "chip": "ym2612"
    },
    {
      "channel": 3,
      "note": 92,
      "start": 27.1957,
      "duration": 0.2231,
      "velocity": 100,
      "chip": "ym2612"
    },
    {
      "channel": 4,
      "note": 87,
      "start": 27.1964,
      "duration": 0.2258,
      "velocity": 100,
      "chip": "ym2612"
    },
    {
      "channel": 2,
      "note": 61,
      "start": 27.1973,
      "duration": 0.1084,
      "velocity": 120,
      "chip": "ym2612"
    },
    {
      "channel": 1,
      "note": 61,
      "start": 27.3048,
      "duration": 0.1106,
      "velocity": 91,
      "chip": "ym2612"
    },
    {
      "channel": 2,
      "note": 57,
      "start": 27.3063,
      "duration": 0.1201,
      "velocity": 120,
      "chip": "ym2612"
    },
    {
      "channel": 1,
      "note": 56,
      "start": 27.4159,
      "duration": 0.0958,
      "velocity": 91,
      "chip": "ym2612"
    },
    {
      "channel": 3,
      "note": 80,
      "start": 27.4194,
      "duration": 0.093,
      "velocity": 100,
      "chip": "ym2612"
    },
    {
      "channel": 4,
      "note": 75,
      "start": 27.4228,
      "duration": 0.0903,
      "velocity": 100,
      "chip": "ym2612"
    },
    {
      "channel": 5,
      "note": 33,
      "start": 27.4262,
      "duration": 0.0877,
      "velocity": 102,
      "chip": "ym2612"
    },
    {
      "channel": 2,
      "note": 56,
      "start": 27.4283,
      "duration": 0.0862,
      "velocity": 120,
      "chip": "ym2612"
    },
    {
      "channel": 1,
      "note": 56,
      "start": 27.5123,
      "duration": 0.1093,
      "velocity": 91,
      "chip": "ym2612"
    },
    {
      "channel": 3,
      "note": 80,
      "start": 27.513,
      "duration": 0.1093,
      "velocity": 100,
      "chip": "ym2612"
    },
    {
      "channel": 4,
      "note": 75,
      "start": 27.5137,
      "duration": 0.1094,
      "velocity": 100,
      "chip": "ym2612"
    },
    {
      "channel": 5,
      "note": 33,
      "start": 27.5144,
      "duration": 0.1094,
      "velocity": 102,
      "chip": "ym2612"
    },
    {
      "channel": 2,
      "note": 56,
      "start": 27.5151,
      "duration": 0.1094,
      "velocity": 120,
      "chip": "ym2612"
    },
    {
      "channel": 1,
      "note": 56,
      "start": 27.6222,
      "duration": 0.1105,
      "velocity": 91,
      "chip": "ym2612"
    },
    {
      "channel": 3,
      "note": 80,
      "start": 27.6229,
      "duration": 0.1106,
      "velocity": 100,
      "chip": "ym2612"
    },
    {
      "channel": 4,
      "note": 75,
      "start": 27.6237,
      "duration": 0.1106,
      "velocity": 100,
      "chip": "ym2612"
    },
    {
      "channel": 5,
      "note": 33,
      "start": 27.6242,
      "duration": 0.1107,
      "velocity": 102,
      "chip": "ym2612"
    },
    {
      "channel": 2,
      "note": 56,
      "start": 27.625,
      "duration": 0.1106,
      "velocity": 120,
      "chip": "ym2612"
    },
    {
      "channel": 1,
      "note": 56,
      "start": 27.7333,
      "duration": 0.112,
      "velocity": 91,
      "chip": "ym2612"
    },
    {
      "channel": 3,
      "note": 80,
      "start": 27.7341,
      "duration": 0.1143,
      "velocity": 74,
      "chip": "ym2612"
    },
    {
      "channel": 4,
      "note": 75,
      "start": 27.7349,
      "duration": 0.1171,
      "velocity": 74,
      "chip": "ym2612"
    },
    {
      "channel": 5,
      "note": 33,
      "start": 27.7354,
      "duration": 0.1198,
      "velocity": 83,
      "chip": "ym2612"
    },
    {
      "channel": 2,
      "note": 56,
      "start": 27.7362,
      "duration": 0.1198,
      "velocity": 120,
      "chip": "ym2612"
    },
    {
      "channel": 3,
      "note": 85,
      "start": 27.849,
      "duration": 0.0905,
      "velocity": 74,
      "chip": "ym2612"
    },
    {
      "channel": 4,
      "note": 80,
      "start": 27.8525,
      "duration": 0.0877,
      "velocity": 74,
      "chip": "ym2612"
    },
    {
      "channel": 5,
      "note": 98,
      "start": 27.8559,
      "duration": 0.085,
      "velocity": 83,
      "chip": "ym2612"
    },
    {
      "channel": 2,
      "note": 63,
      "start": 27.8566,
      "duration": 0.0849,
      "velocity": 120,
      "chip": "ym2612"
    },
    {
      "channel": 3,
      "note": 83,
      "start": 27.94,
      "duration": 0.1111,
      "velocity": 74,
      "chip": "ym2612"
    },
    {
      "channel": 4,
      "note": 78,
      "start": 27.9408,
      "duration": 0.1111,
      "velocity": 74,
      "chip": "ym2612"
    },
    {
      "channel": 5,
      "note": 98,
      "start": 27.9413,
      "duration": 0.1112,
      "velocity": 83,
      "chip": "ym2612"
    },
    {
      "channel": 2,
      "note": 63,
      "start": 27.9421,
      "duration": 0.1111,
      "velocity": 120,
      "chip": "ym2612"
    },
    {
      "channel": 1,
      "note": 68,
      "start": 28.0509,
      "duration": 0.1107,
      "velocity": 91,
      "chip": "ym2612"
    },
    {
      "channel": 3,
      "note": 85,
      "start": 28.0516,
      "duration": 0.2239,
      "velocity": 100,
      "chip": "ym2612"
    },
    {
      "channel": 4,
      "note": 80,
      "start": 28.0524,
      "duration": 0.2279,
      "velocity": 100,
      "chip": "ym2612"
    },
    {
      "channel": 5,
      "note": 98,
      "start": 28.053,
      "duration": 0.11,
      "velocity": 83,
      "chip": "ym2612"
    },
    {
      "channel": 2,
      "note": 63,
      "start": 28.0537,
      "duration": 0.1099,
      "velocity": 120,
      "chip": "ym2612"
    },
    {
      "channel": 1,
      "note": 68,
      "start": 28.1623,
      "duration": 0.1102,
      "velocity": 91,
      "chip": "ym2612"
    },
    {
      "channel": 5,
      "note": 98,
      "start": 28.1635,
      "duration": 0.1176,
      "velocity": 83,
      "chip": "ym2612"
    },
    {
      "channel": 2,
      "note": 63,
      "start": 28.1642,
      "duration": 0.1172,
      "velocity": 120,
      "chip": "ym2612"
    },
    {
      "channel": 3,
      "note": 68,
      "start": 28.2761,
      "duration": 0.0919,
      "velocity": 100,
      "chip": "ym2612"
    },
    {
      "channel": 4,
      "note": 63,
      "start": 28.2809,
      "duration": 0.0878,
      "velocity": 100,
      "chip": "ym2612"
    },
    {
      "channel": 2,
      "note": 68,
      "start": 28.282,
      "duration": 0.0876,
      "velocity": 120,
      "chip": "ym2612"
    },
    {
      "channel": 3,
      "note": 68,
      "start": 28.3686,
      "duration": 0.1112,
      "velocity": 100,
      "chip": "ym2612"
    },
    {
      "channel": 4,
      "note": 63,
      "start": 28.3693,
      "duration": 0.1112,
      "velocity": 100,
      "chip": "ym2612"
    },
    {
      "channel": 2,
      "note": 68,
      "start": 28.3702,
      "duration": 0.1112,
      "velocity": 120,
      "chip": "ym2612"
    },
    {
      "channel": 1,
      "note": 63,
      "start": 28.4796,
      "duration": 0.1104,
      "velocity": 91,
      "chip": "ym2612"
    },
    {
      "channel": 3,
      "note": 68,
      "start": 28.4804,
      "duration": 0.1104,
      "velocity": 100,
      "chip": "ym2612"
    },
    {
      "channel": 4,
      "note": 63,
      "start": 28.4811,
      "duration": 0.1104,
      "velocity": 100,
      "chip": "ym2612"
    },
    {
      "channel": 2,
      "note": 68,
      "start": 28.4819,
      "duration": 0.1104,
      "velocity": 120,
      "chip": "ym2612"
    },
    {
      "channel": 1,
      "note": 66,
      "start": 28.5906,
      "duration": 0.1106,
      "velocity": 91,
      "chip": "ym2612"
    },
    {
      "channel": 3,
      "note": 68,
      "start": 28.5913,
      "duration": 0.1133,
      "velocity": 74,
      "chip": "ym2612"
    },
    {
      "channel": 4,
      "note": 63,
      "start": 28.5921,
      "duration": 0.116,
      "velocity": 74,
      "chip": "ym2612"
    },
    {
      "channel": 2,
      "note": 68,
      "start": 28.5929,
      "duration": 0.116,
      "velocity": 120,
      "chip": "ym2612"
    },
    {
      "channel": 1,
      "note": 61,
      "start": 28.7018,
      "duration": 0.0946,
      "velocity": 91,
      "chip": "ym2612"
    },
    {
      "channel": 3,
      "note": 92,
      "start": 28.7053,
      "duration": 0.0919,
      "velocity": 74,
      "chip": "ym2612"
    },
    {
      "channel": 4,
      "note": 87,
      "start": 28.7088,
      "duration": 0.0891,
      "velocity": 74,
      "chip": "ym2612"
    },
    {
      "channel": 2,
      "note": 68,
      "start": 28.7096,
      "duration": 0.0891,
      "velocity": 120,
      "chip": "ym2612"
    },
    {
      "channel": 1,
      "note": 63,
      "start": 28.797,
      "duration": 0.1105,
      "velocity": 91,
      "chip": "ym2612"
    },
    {
      "channel": 3,
      "note": 90,
      "start": 28.7978,
      "duration": 0.1106,
      "velocity": 74,
      "chip": "ym2612"
    },
    {
      "channel": 4,
      "note": 85,
      "start": 28.7985,
      "duration": 0.1106,
      "velocity": 74,
      "chip": "ym2612"
    },
    {
      "channel": 2,
      "note": 63,
      "start": 28.7993,
      "duration": 0.112,
      "velocity": 120,
      "chip": "ym2612"
    },
    {
      "channel": 1,
      "note": 57,
      "start": 28.9082,
      "duration": 0.1107,
      "velocity": 91,
      "chip": "ym2612"
    },
    {
      "channel": 3,
      "note": 92,
      "start": 28.909,
      "duration": 0.2217,
      "velocity": 74,
      "chip": "ym2612"
    },
    {
      "channel": 4,
      "note": 87,
      "start": 28.9097,
      "duration": 0.2212,
      "velocity": 74,
      "chip": "ym2612"
    },
    {
      "channel": 2,
      "note": 61,
      "start": 28.9118,
      "duration": 0.1086,
      "velocity": 120,
      "chip": "ym2612"
    },
    {
      "channel": 1,
      "note": 61,
      "start": 29.0195,
      "duration": 0.1104,
      "velocity": 91,
      "chip": "ym2612"
    },
    {
      "channel": 2,
      "note": 57,
      "start": 29.021,
      "duration": 0.1137,
      "velocity": 120,
      "chip": "ym2612"
    },
    {
      "channel": 1,
      "note": 56,
      "start": 29.1305,
      "duration": 0.0945,
      "velocity": 91,
      "chip": "ym2612"
    },
    {
      "channel": 5,
      "note": 33,
      "start": 29.1345,
      "duration": 0.0914,
      "velocity": 102,
      "chip": "ym2612"
    },
    {
      "channel": 2,
      "note": 56,
      "start": 29.1353,
      "duration": 0.0925,
      "velocity": 120,
      "chip": "ym2612"
    },
    {
      "channel": 1,
      "note": 56,
      "start": 29.2256,
      "duration": 0.1107,
      "velocity": 91,
      "chip": "ym2612"
    },
    {
      "channel": 5,
      "note": 33,
      "start": 29.2263,
      "duration": 0.1108,
      "velocity": 102,
      "chip": "ym2612"
    },
    {
      "channel": 2,
      "note": 56,
      "start": 29.2284,
      "duration": 0.1093,
      "velocity": 120,
      "chip": "ym2612"
    },
    {
      "channel": 1,
      "note": 56,
      "start": 29.3368,
      "duration": 0.1104,
      "velocity": 91,
      "chip": "ym2612"
    },
    {
      "channel": 5,
      "note": 33,
      "start": 29.3376,
      "duration": 0.1106,
      "velocity": 102,
      "chip": "ym2612"
    },
    {
      "channel": 2,
      "note": 56,
      "start": 29.3383,
      "duration": 0.1104,
      "velocity": 120,
      "chip": "ym2612"
    },
    {
      "channel": 1,
      "note": 56,
      "start": 29.4478,
      "duration": 0.111,
      "velocity": 91,
      "chip": "ym2612"
    },
    {
      "channel": 5,
      "note": 33,
      "start": 29.4486,
      "duration": 0.1214,
      "velocity": 83,
      "chip": "ym2612"
    },
    {
      "channel": 2,
      "note": 56,
      "start": 29.4493,
      "duration": 0.1215,
      "velocity": 120,
      "chip": "ym2612"
    },
    {
      "channel": 3,
      "note": 92,
      "start": 29.5638,
      "duration": 0.0902,
      "velocity": 100,
      "chip": "ym2612"
    },
    {
      "channel": 4,
      "note": 87,
      "start": 29.5673,
      "duration": 0.0875,
      "velocity": 100,
      "chip": "ym2612"
    },
    {
      "channel": 5,
      "note": 98,
      "start": 29.5707,
      "duration": 0.0849,
      "velocity": 83,
      "chip": "ym2612"
    },
    {
      "channel": 2,
      "note": 63,
      "start": 29.5714,
      "duration": 0.0847,
      "velocity": 120,
      "chip": "ym2612"
    },
    {
      "channel": 3,
      "note": 92,
      "start": 29.6546,
      "duration": 0.111,
      "velocity": 100,
      "chip": "ym2612"
    },
    {
      "channel": 4,
      "note": 87,
      "start": 29.6553,
      "duration": 0.111,
      "velocity": 100,
      "chip": "ym2612"
    },
    {
      "channel": 5,
      "note": 98,
      "start": 29.656,
      "duration": 0.1111,
      "velocity": 83,
      "chip": "ym2612"
    },
    {
      "channel": 2,
      "note": 63,
      "start": 29.6567,
      "duration": 0.111,
      "velocity": 120,
      "chip": "ym2612"
    },
    {
      "channel": 1,
      "note": 68,
      "start": 29.7654,
      "duration": 0.1105,
      "velocity": 91,
      "chip": "ym2612"
    },
    {
      "channel": 3,
      "note": 92,
      "start": 29.7661,
      "duration": 0.1118,
      "velocity": 100,
      "chip": "ym2612"
    },
    {
      "channel": 4,
      "note": 87,
      "start": 29.7669,
      "duration": 0.1118,
      "velocity": 100,
      "chip": "ym2612"
    },
    {
      "channel": 5,
      "note": 98,
      "start": 29.7675,
      "duration": 0.112,
      "velocity": 83,
      "chip": "ym2612"
    },
    {
      "channel": 2,
      "note": 63,
      "start": 29.7682,
      "duration": 0.1119,
      "velocity": 120,
      "chip": "ym2612"
    },
    {
      "channel": 1,
      "note": 68,
      "start": 29.8778,
      "duration": 0.1095,
      "velocity": 91,
      "chip": "ym2612"
    },
    {
      "channel": 3,
      "note": 92,
      "start": 29.8785,
      "duration": 0.1118,
      "velocity": 74,
      "chip": "ym2612"
    },
    {
      "channel": 4,
      "note": 87,
      "start": 29.8793,
      "duration": 0.1159,
      "velocity": 74,
      "chip": "ym2612"
    },
    {
      "channel": 5,
      "note": 98,
      "start": 29.88,
      "duration": 0.116,
      "velocity": 83,
      "chip": "ym2612"
    },
    {
      "channel": 2,
      "note": 63,
      "start": 29.8807,
      "duration": 0.1156,
      "velocity": 120,
      "chip": "ym2612"
    },
    {
      "channel": 3,
      "note": 87,
      "start": 29.991,
      "duration": 0.0916,
      "velocity": 74,
      "chip": "ym2612"
    },
    {
      "channel": 4,
      "note": 82,
      "start": 29.9959,
      "duration": 0.0875,
      "velocity": 74,
      "chip": "ym2612"
    },
    {
      "channel": 2,
      "note": 68,
      "start": 29.9969,
      "duration": 0.0873,
      "velocity": 120,
      "chip": "ym2612"
    },
    {
      "channel": 3,
      "note": 85,
      "start": 30.0832,
      "duration": 0.1123,
      "velocity": 74,
      "chip": "ym2612"
    },
    {
      "channel": 4,
      "note": 80,
      "start": 30.084,
      "duration": 0.1123,
      "velocity": 74,
      "chip": "ym2612"
    },
    {
      "channel": 2,
      "note": 68,
      "start": 30.0848,
      "duration": 0.1123,
      "velocity": 120,
      "chip": "ym2612"
    },
    {
      "channel": 1,
      "note": 63,
      "start": 30.1954,
      "duration": 0.1092,
      "velocity": 91,
      "chip": "ym2612"
    },
    {
      "channel": 3,
      "note": 87,
      "start": 30.1961,
      "duration": 0.223,
      "velocity": 100,
      "chip": "ym2612"
    },
    {
      "channel": 4,
      "note": 82,
      "start": 30.1969,
      "duration": 0.2257,
      "velocity": 100,
      "chip": "ym2612"
    },
    {
      "channel": 2,
      "note": 68,
      "start": 30.1977,
      "duration": 0.1084,
      "velocity": 120,
      "chip": "ym2612"
    },
    {
      "channel": 1,
      "note": 66,
      "start": 30.3051,
      "duration": 0.1105,
      "velocity": 91,
      "chip": "ym2612"
    },
    {
      "channel": 2,
      "note": 68,
      "start": 30.3067,
      "duration": 0.1167,
      "velocity": 120,
      "chip": "ym2612"
    },
    {
      "channel": 1,
      "note": 61,
      "start": 30.4163,
      "duration": 0.0955,
      "velocity": 91,
      "chip": "ym2612"
    },
    {
      "channel": 3,
      "note": 68,
      "start": 30.4197,
      "duration": 0.0928,
      "velocity": 100,
      "chip": "ym2612"
    },
    {
      "channel": 4,
      "note": 63,
      "start": 30.4232,
      "duration": 0.0901,
      "velocity": 100,
      "chip": "ym2612"
    },
    {
      "channel": 2,
      "note": 68,
      "start": 30.424,
      "duration": 0.0901,
      "velocity": 120,
      "chip": "ym2612"
    },
    {
      "channel": 1,
      "note": 63,
      "start": 30.5123,
      "duration": 0.1097,
      "velocity": 91,
      "chip": "ym2612"
    },
    {
      "channel": 3,
      "note": 68,
      "start": 30.5131,
      "duration": 0.1098,
      "velocity": 100,
      "chip": "ym2612"
    },
    {
      "channel": 4,
      "note": 63,
      "start": 30.5138,
      "duration": 0.1097,
      "velocity": 100,
      "chip": "ym2612"
    },
    {
      "channel": 2,
      "note": 63,
      "start": 30.5146,
      "duration": 0.1097,
      "velocity": 120,
      "chip": "ym2612"
    },
    {
      "channel": 1,
      "note": 57,
      "start": 30.6226,
      "duration": 0.1106,
      "velocity": 91,
      "chip": "ym2612"
    },
    {
      "channel": 3,
      "note": 68,
      "start": 30.6234,
      "duration": 0.1106,
      "velocity": 100,
      "chip": "ym2612"
    },
    {
      "channel": 4,
      "note": 63,
      "start": 30.6241,
      "duration": 0.1105,
      "velocity": 100,
      "chip": "ym2612"
    },
    {
      "channel": 2,
      "note": 61,
      "start": 30.6249,
      "duration": 0.1106,
      "velocity": 120,
      "chip": "ym2612"
    },
    {
      "channel": 1,
      "note": 61,
      "start": 30.7338,
      "duration": 0.1113,
      "velocity": 91,
      "chip": "ym2612"
    },
    {
      "channel": 3,
      "note": 68,
      "start": 30.7345,
      "duration": 0.1139,
      "velocity": 74,
      "chip": "ym2612"
    },
    {
      "channel": 4,
      "note": 63,
      "start": 30.7352,
      "duration": 0.1167,
      "velocity": 74,
      "chip": "ym2612"
    },
    {
      "channel": 2,
      "note": 57,
      "start": 30.7361,
      "duration": 0.1201,
      "velocity": 120,
      "chip": "ym2612"
    },
    {
      "channel": 1,
      "note": 56,
      "start": 30.8456,
      "duration": 0.094,
      "velocity": 91,
      "chip": "ym2612"
    },
    {
      "channel": 3,
      "note": 92,
      "start": 30.8491,
      "duration": 0.0912,
      "velocity": 74,
      "chip": "ym2612"
    },
    {
      "channel": 4,
      "note": 87,
      "start": 30.8526,
      "duration": 0.0885,
      "velocity": 74,
      "chip": "ym2612"
    },
    {
      "channel": 5,
      "note": 33,
      "start": 30.856,
      "duration": 0.0859,
      "velocity": 102,
      "chip": "ym2612"
    },
    {
      "channel": 2,
      "note": 56,
      "start": 30.8567,
      "duration": 0.0857,
      "velocity": 120,
      "chip": "ym2612"
    },
    {
      "channel": 1,
      "note": 56,
      "start": 30.9402,
      "duration": 0.1106,
      "velocity": 91,
      "chip": "ym2612"
    },
    {
      "channel": 3,
      "note": 90,
      "start": 30.941,
      "duration": 0.1105,
      "velocity": 74,
      "chip": "ym2612"
    },
    {
      "channel": 4,
      "note": 85,
      "start": 30.9417,
      "duration": 0.1105,
      "velocity": 74,
      "chip": "ym2612"
    },
    {
      "channel": 5,
      "note": 33,
      "start": 30.9423,
      "duration": 0.1107,
      "velocity": 102,
      "chip": "ym2612"
    },
    {
      "channel": 2,
      "note": 56,
      "start": 30.943,
      "duration": 0.1106,
      "velocity": 120,
      "chip": "ym2612"
    },
    {
      "channel": 1,
      "note": 56,
      "start": 31.0513,
      "duration": 0.1106,
      "velocity": 91,
      "chip": "ym2612"
    },
    {
      "channel": 3,
      "note": 92,
      "start": 31.0521,
      "duration": 0.2239,
      "velocity": 100,
      "chip": "ym2612"
    },
    {
      "channel": 4,
      "note": 87,
      "start": 31.0529,
      "duration": 0.2279,
      "velocity": 100,
      "chip": "ym2612"
    },
    {
      "channel": 5,
      "note": 33,
      "start": 31.0534,
      "duration": 0.1099,
      "velocity": 102,
      "chip": "ym2612"
    },
    {
      "channel": 2,
      "note": 56,
      "start": 31.0541,
      "duration": 0.1097,
      "velocity": 120,
      "chip": "ym2612"
    },
    {
      "channel": 1,
      "note": 56,
      "start": 31.1624,
      "duration": 0.1105,
      "velocity": 91,
      "chip": "ym2612"
    },
    {
      "channel": 5,
      "note": 33,
      "start": 31.1637,
      "duration": 0.1204,
      "velocity": 83,
      "chip": "ym2612"
    },
    {
      "channel": 2,
      "note": 56,
      "start": 31.1644,
      "duration": 0.1205,
      "velocity": 120,
      "chip": "ym2612"
    },
    {
      "channel": 3,
      "note": 80,
      "start": 31.2779,
      "duration": 0.0907,
      "velocity": 100,
      "chip": "ym2612"
    },
    {
      "channel": 4,
      "note": 75,
      "start": 31.2814,
      "duration": 0.0879,
      "velocity": 100,
      "chip": "ym2612"
    },
    {
      "channel": 5,
      "note": 98,
      "start": 31.2848,
      "duration": 0.0852,
      "velocity": 83,
      "chip": "ym2612"
    },
    {
      "channel": 2,
      "note": 63,
      "start": 31.2855,
      "duration": 0.0852,
      "velocity": 120,
      "chip": "ym2612"
    },
    {
      "channel": 3,
      "note": 80,
      "start": 31.3691,
      "duration": 0.1109,
      "velocity": 100,
      "chip": "ym2612"
    },
    {
      "channel": 4,
      "note": 75,
      "start": 31.3699,
      "duration": 0.1109,
      "velocity": 100,
      "chip": "ym2612"
    },
    {
      "channel": 5,
      "note": 98,
      "start": 31.3705,
      "duration": 0.1111,
      "velocity": 83,
      "chip": "ym2612"
    },
    {
      "channel": 2,
      "note": 63,
      "start": 31.3712,
      "duration": 0.111,
      "velocity": 120,
      "chip": "ym2612"
    },
    {
      "channel": 1,
      "note": 68,
      "start": 31.48,
      "duration": 0.1105,
      "velocity": 91,
      "chip": "ym2612"
    },
    {
      "channel": 3,
      "note": 80,
      "start": 31.4807,
      "duration": 0.1106,
      "velocity": 100,
      "chip": "ym2612"
    },
    {
      "channel": 4,
      "note": 75,
      "start": 31.4814,
      "duration": 0.1106,
      "velocity": 100,
      "chip": "ym2612"
    },
    {
      "channel": 5,
      "note": 98,
      "start": 31.482,
      "duration": 0.1107,
      "velocity": 83,
      "chip": "ym2612"
    },
    {
      "channel": 2,
      "note": 63,
      "start": 31.4827,
      "duration": 0.1119,
      "velocity": 120,
      "chip": "ym2612"
    },
    {
      "channel": 1,
      "note": 68,
      "start": 31.5911,
      "duration": 0.1105,
      "velocity": 91,
      "chip": "ym2612"
    },
    {
      "channel": 3,
      "note": 80,
      "start": 31.5918,
      "duration": 0.1101,
      "velocity": 100,
      "chip": "ym2612"
    },
    {
      "channel": 4,
      "note": 75,
      "start": 31.5926,
      "duration": 0.1097,
      "velocity": 100,
      "chip": "ym2612"
    },
    {
      "channel": 5,
      "note": 98,
      "start": 31.5945,
      "duration": 0.1081,
      "velocity": 83,
      "chip": "ym2612"
    },
    {
      "channel": 2,
      "note": 63,
      "start": 31.5952,
      "duration": 0.1077,
      "velocity": 120,
      "chip": "ym2612"
    },
    {
      "channel": 2,
      "note": 68,
      "start": 31.7035,
      "duration": 0.0939,
      "velocity": 120,
      "chip": "ym2612"
    },
    {
      "channel": 2,
      "note": 68,
      "start": 31.798,
      "duration": 0.1109,
      "velocity": 120,
      "chip": "ym2612"
    },
    {
      "channel": 1,
      "note": 63,
      "start": 31.9086,
      "duration": 0.1106,
      "velocity": 91,
      "chip": "ym2612"
    },
    {
      "channel": 2,
      "note": 68,
      "start": 31.9095,
      "duration": 0.1106,
      "velocity": 120,
      "chip": "ym2612"
    },
    {
      "channel": 1,
      "note": 66,
      "start": 32.0197,
      "duration": 0.1106,
      "velocity": 91,
      "chip": "ym2612"
    },
    {
      "channel": 2,
      "note": 68,
      "start": 32.0207,
      "duration": 0.1106,
      "velocity": 120,
      "chip": "ym2612"
    },
    {
      "channel": 1,
      "note": 61,
      "start": 32.1308,
      "duration": 0.0946,
      "velocity": 91,
      "chip": "ym2612"
    },
    {
      "channel": 2,
      "note": 68,
      "start": 32.1318,
      "duration": 0.0947,
      "velocity": 120,
      "chip": "ym2612"
    },
    {
      "channel": 1,
      "note": 63,
      "start": 32.2261,
      "duration": 0.1106,
      "velocity": 91,
      "chip": "ym2612"
    },
    {
      "channel": 2,
      "note": 63,
      "start": 32.2284,
      "duration": 0.1093,
      "velocity": 120,
      "chip": "ym2612"
    },
    {
      "channel": 1,
      "note": 57,
      "start": 32.3373,
      "duration": 0.1104,
      "velocity": 91,
      "chip": "ym2612"
    },
    {
      "channel": 2,
      "note": 61,
      "start": 32.3382,
      "duration": 0.1105,
      "velocity": 120,
      "chip": "ym2612"
    },
    {
      "channel": 1,
      "note": 61,
      "start": 32.4483,
      "duration": 0.1129,
      "velocity": 91,
      "chip": "ym2612"
    },
    {
      "channel": 2,
      "note": 57,
      "start": 32.4493,
      "duration": 0.122,
      "velocity": 120,
      "chip": "ym2612"
    },
    {
      "channel": 0,
      "note": 92,
      "start": 32.5597,
      "duration": 0.0117,
      "velocity": 105,
      "chip": "ym2612"
    },
    {
      "channel": 1,
      "note": 56,
      "start": 32.5617,
      "duration": 0.0096,
      "velocity": 91,
      "chip": "ym2612"
    },
    {
      "channel": 5,
      "note": 33,
      "start": 32.5713,
      "duration": 0.0,
      "velocity": 102,
      "chip": "ym2612"
    }
  ]
}