{
  "track_name": "17 - Stage 4-3",
  "duration_sec": 56.034,
  "sample_rate": 44100,
  "note_count": 742,
  "unique_pitches": 25,
  "pitch_range": 94,
  "avg_note_duration": 0.1588,
  "reconstruction_stats": {
    "notes_reconstructed": 742,
    "keyon_events": 742,
    "keyoff_events": 740,
    "orphan_keyons": 2,
    "unique_pitches": 25,
    "pitch_range": 94,
    "avg_duration_sec": 0.1588
  },
  "metadata": {
    "source": "M\\Mega Turrican\\17 - Stage 4-3.vgz"
  },
  "notes": [
    {
      "channel": 4,
      "note": 2,
      "start": 0.001,
      "duration": 0.0049,
      "velocity": 109,
      "chip": "ym2612"
    },
    {
      "channel": 1,
      "note": 0,
      "start": 0.0038,
      "duration": 0.0046,
      "velocity": 109,
      "chip": "ym2612"
    },
    {
      "channel": 4,
      "note": 0,
      "start": 0.0062,
      "duration": 0.0049,
      "velocity": 109,
      "chip": "ym2612"
    },
    {
      "channel": 1,
      "note": 0,
      "start": 0.0088,
      "duration": 0.0049,
      "velocity": 109,
      "chip": "ym2612"
    },
    {
      "channel": 4,
      "note": 2,
      "start": 0.0114,
      "duration": 0.0049,
      "velocity": 109,
      "chip": "ym2612"
    },
    {
      "channel": 1,
      "note": 0,
      "start": 0.014,
      "duration": 0.0057,
      "velocity": 109,
      "chip": "ym2612"
    },
    {
      "channel": 4,
      "note": 0,
      "start": 0.0166,
      "duration": 0.0057,
      "velocity": 109,
      "chip": "ym2612"
    },
    {
      "channel": 2,
      "note": 86,
      "start": 0.0186,
      "duration": 0.1058,
      "velocity": 112,
      "chip": "ym2612"
    },
    {
      "channel": 1,
      "note": 0,
      "start": 0.02,
      "duration": 0.0049,
      "velocity": 109,
      "chip": "ym2612"
    },
    {
      "channel": 4,
      "note": 2,
      "start": 0.0227,
      "duration": 0.0049,
      "velocity": 109,
      "chip": "ym2612"
    },
    {
      "channel": 1,
      "note": 0,
      "start": 0.0253,
      "duration": 0.0049,
      "velocity": 109,
      "chip": "ym2612"
    },
    {
      "channel": 4,
      "note": 0,
      "start": 0.0279,
      "duration": 0.0049,
      "velocity": 109,
      "chip": "ym2612"
    },
    {
      "channel": 1,
      "note": 0,
      "start": 0.0305,
      "duration": 0.005,
      "velocity": 109,
      "chip": "ym2612"
    },
    {
      "channel": 4,
      "note": 2,
      "start": 0.0331,
      "duration": 0.0049,
      "velocity": 109,
      "chip": "ym2612"
    },
    {
      "channel": 1,
      "note": 0,
      "start": 0.0357,
      "duration": 0.0049,
      "velocity": 109,
      "chip": "ym2612"
    },
    {
      "channel": 4,
      "note": 0,
      "start": 0.0383,
      "duration": 0.0049,
      "velocity": 109,
      "chip": "ym2612"
    },
    {
      "channel": 1,
      "note": 0,
      "start": 0.041,
      "duration": 0.0056,
      "velocity": 109,
      "chip": "ym2612"
    },
    {
      "channel": 4,
      "note": 2,
      "start": 0.0441,
      "duration": 0.005,
      "velocity": 109,
      "chip": "ym2612"
    },
    {
      "channel": 3,
      "note": 48,
      "start": 0.0445,
      "duration": 0.0413,
      "velocity": 127,
      "chip": "ym2612"
    },
    {
      "channel": 1,
      "note": 0,
      "start": 0.0469,
      "duration": 0.0049,
      "velocity": 109,
      "chip": "ym2612"
    },
    {
      "channel": 4,
      "note": 0,
      "start": 0.0495,
      "duration": 0.005,
      "velocity": 109,
      "chip": "ym2612"
    },
    {
      "channel": 1,
      "note": 0,
      "start": 0.0521,
      "duration": 0.005,
      "velocity": 109,
      "chip": "ym2612"
    },
    {
      "channel": 4,
      "note": 2,
      "start": 0.0548,
      "duration": 0.0049,
      "velocity": 109,
      "chip": "ym2612"
    },
    {
      "channel": 1,
      "note": 0,
      "start": 0.0574,
      "duration": 0.0049,
      "velocity": 109,
      "chip": "ym2612"
    },
    {
      "channel": 4,
      "note": 0,
      "start": 0.06,
      "duration": 0.0049,
      "velocity": 109,
      "chip": "ym2612"
    },
    {
      "channel": 1,
      "note": 0,
      "start": 0.0626,
      "duration": 0.0049,
      "velocity": 109,
      "chip": "ym2612"
    },
    {
      "channel": 4,
      "note": 2,
      "start": 0.0652,
      "duration": 0.0049,
      "velocity": 109,
      "chip": "ym2612"
    },
    {
      "channel": 1,
      "note": 0,
      "start": 0.0678,
      "duration": 0.0049,
      "velocity": 109,
      "chip": "ym2612"
    },
    {
      "channel": 4,
      "note": 0,
      "start": 0.0704,
      "duration": 0.0049,
      "velocity": 109,
      "chip": "ym2612"
    },
    {
      "channel": 1,
      "note": 0,
      "start": 0.073,
      "duration": 0.0049,
      "velocity": 109,
      "chip": "ym2612"
    },
    {
      "channel": 4,
      "note": 2,
      "start": 0.0756,
      "duration": 0.0049,
      "velocity": 109,
      "chip": "ym2612"
    },
    {
      "channel": 1,
      "note": 0,
      "start": 0.0783,
      "duration": 0.0049,
      "velocity": 109,
      "chip": "ym2612"
    },
    {
      "channel": 4,
      "note": 0,
      "start": 0.0809,
      "duration": 0.0049,
      "velocity": 109,
      "chip": "ym2612"
    },
    {
      "channel": 1,
      "note": 0,
      "start": 0.0835,
      "duration": 0.0051,
      "velocity": 109,
      "chip": "ym2612"
    },
    {
      "channel": 3,
      "note": 54,
      "start": 0.0861,
      "duration": 0.0426,
      "velocity": 127,
      "chip": "ym2612"
    },
    {
      "channel": 4,
      "note": 2,
      "start": 0.0862,
      "duration": 0.005,
      "velocity": 109,
      "chip": "ym2612"
    },
    {
      "channel": 1,
      "note": 0,
      "start": 0.0889,
      "duration": 0.0049,
      "velocity": 109,
      "chip": "ym2612"
    },
    {
      "channel": 4,
      "note": 0,
      "start": 0.0915,
      "duration": 0.0049,
      "velocity": 109,
      "chip": "ym2612"
    },
    {
      "channel": 1,
      "note": 0,
      "start": 0.0941,
      "duration": 0.0049,
      "velocity": 109,
      "chip": "ym2612"
    },
    {
      "channel": 4,
      "note": 2,
      "start": 0.0967,
      "duration": 0.0049,
      "velocity": 109,
      "chip": "ym2612"
    },
    {
      "channel": 1,
      "note": 0,
      "start": 0.0993,
      "duration": 0.0049,
      "velocity": 109,
      "chip": "ym2612"
    },
    {
      "channel": 4,
      "note": 0,
      "start": 0.1019,
      "duration": 0.0049,
      "velocity": 109,
      "chip": "ym2612"
    },
    {
      "channel": 1,
      "note": 0,
      "start": 0.1045,
      "duration": 0.0049,
      "velocity": 109,
      "chip": "ym2612"
    },
    {
      "channel": 4,
      "note": 2,
      "start": 0.1071,
      "duration": 0.0057,
      "velocity": 109,
      "chip": "ym2612"
    },
    {
      "channel": 1,
      "note": 0,
      "start": 0.1098,
      "duration": 0.0057,
      "velocity": 109,
      "chip": "ym2612"
    },
    {
      "channel": 0,
      "note": 79,
      "start": 0.1122,
      "duration": 0.3211,
      "velocity": 112,
      "chip": "ym2612"
    },
    {
      "channel": 4,
      "note": 0,
      "start": 0.1132,
      "duration": 0.0049,
      "velocity": 109,
      "chip": "ym2612"
    },
    {
      "channel": 1,
      "note": 0,
      "start": 0.1157,
      "duration": 0.005,
      "velocity": 109,
      "chip": "ym2612"
    },
    {
      "channel": 4,
      "note": 2,
      "start": 0.1184,
      "duration": 0.0049,
      "velocity": 109,
      "chip": "ym2612"
    },
    {
      "channel": 1,
      "note": 0,
      "start": 0.121,
      "duration": 0.0051,
      "velocity": 109,
      "chip": "ym2612"
    },
    {
      "channel": 4,
      "note": 0,
      "start": 0.1236,
      "duration": 0.0051,
      "velocity": 109,
      "chip": "ym2612"
    },
    {
      "channel": 2,
      "note": 82,
      "start": 0.1248,
      "duration": 0.6182,
      "velocity": 112,
      "chip": "ym2612"
    },
    {
      "channel": 1,
      "note": 0,
      "start": 0.1264,
      "duration": 0.0051,
      "velocity": 109,
      "chip": "ym2612"
    },
    {
      "channel": 3,
      "note": 48,
      "start": 0.129,
      "duration": 0.0416,
      "velocity": 127,
      "chip": "ym2612"
    },
    {
      "channel": 4,
      "note": 2,
      "start": 0.1291,
      "duration": 0.005,
      "velocity": 109,
      "chip": "ym2612"
    },
    {
      "channel": 1,
      "note": 0,
      "start": 0.1318,
      "duration": 0.0049,
      "velocity": 109,
      "chip": "ym2612"
    },
    {
      "channel": 4,
      "note": 0,
      "start": 0.1344,
      "duration": 0.0049,
      "velocity": 109,
      "chip": "ym2612"
    },
    {
      "channel": 1,
      "note": 0,
      "start": 0.137,
      "duration": 0.0049,
      "velocity": 109,
      "chip": "ym2612"
    },
    {
      "channel": 4,
      "note": 2,
      "start": 0.1396,
      "duration": 0.0049,
      "velocity": 109,
      "chip": "ym2612"
    },
    {
      "channel": 1,
      "note": 0,
      "start": 0.1422,
      "duration": 0.0049,
      "velocity": 109,
      "chip": "ym2612"
    },
    {
      "channel": 4,
      "note": 0,
      "start": 0.1449,
      "duration": 0.0049,
      "velocity": 109,
      "chip": "ym2612"
    },
    {
      "channel": 1,
      "note": 0,
      "start": 0.1475,
      "duration": 0.0049,
      "velocity": 109,
      "chip": "ym2612"
    },
    {
      "channel": 4,
      "note": 2,
      "start": 0.1501,
      "duration": 0.0049,
      "velocity": 109,
      "chip": "ym2612"
    },
    {
      "channel": 1,
      "note": 0,
      "start": 0.1527,
      "duration": 0.0049,
      "velocity": 109,
      "chip": "ym2612"
    },
    {
      "channel": 4,
      "note": 0,
      "start": 0.1553,
      "duration": 0.0049,
      "velocity": 109,
      "chip": "ym2612"
    },
    {
      "channel": 1,
      "note": 0,
      "start": 0.1579,
      "duration": 0.0049,
      "velocity": 109,
      "chip": "ym2612"
    },
    {
      "channel": 4,
      "note": 2,
      "start": 0.1605,
      "duration": 0.0049,
      "velocity": 109,
      "chip": "ym2612"
    },
    {
      "channel": 1,
      "note": 0,
      "start": 0.1631,
      "duration": 0.0049,
      "velocity": 109,
      "chip": "ym2612"
    },
    {
      "channel": 4,
      "note": 0,
      "start": 0.1657,
      "duration": 0.0049,
      "velocity": 109,
      "chip": "ym2612"
    },
    {
      "channel": 1,
      "note": 0,
      "start": 0.1683,
      "duration": 0.0192,
      "velocity": 109,
      "chip": "ym2612"
    },
    {
      "channel": 3,
      "note": 42,
      "start": 0.1727,
      "duration": 0.2246,
      "velocity": 127,
      "chip": "ym2612"
    },
    {
      "channel": 4,
      "note": 2,
      "start": 0.1728,
      "duration": 0.03,
      "velocity": 109,
      "chip": "ym2612"
    },
    {
      "channel": 1,
      "note": 0,
      "start": 0.1896,
      "duration": 0.0171,
      "velocity": 109,
      "chip": "ym2612"
    },
    {
      "channel": 4,
      "note": 0,
      "start": 0.203,
      "duration": 0.0064,
      "velocity": 109,
      "chip": "ym2612"
    },
    {
      "channel": 1,
      "note": 0,
      "start": 0.207,
      "duration": 0.0199,
      "velocity": 109,
      "chip": "ym2612"
    },
    {
      "channel": 4,
      "note": 2,
      "start": 0.2117,
      "duration": 0.0317,
      "velocity": 109,
      "chip": "ym2612"
    },
    {
      "channel": 1,
      "note": 0,
      "start": 0.229,
      "duration": 0.032,
      "velocity": 109,
      "chip": "ym2612"
    },
    {
      "channel": 4,
      "note": 0,
      "start": 0.2454,
      "duration": 0.0273,
      "velocity": 109,
      "chip": "ym2612"
    },
    {
      "channel": 1,
      "note": 0,
      "start": 0.2613,
      "duration": 0.0281,
      "velocity": 109,
      "chip": "ym2612"
    },
    {
      "channel": 4,
      "note": 2,
      "start": 0.2748,
      "duration": 0.0311,
      "velocity": 109,
      "chip": "ym2612"
    },
    {
      "channel": 1,
      "note": 0,
      "start": 0.2917,
      "duration": 0.032,
      "velocity": 109,
      "chip": "ym2612"
    },
    {
      "channel": 4,
      "note": 0,
      "start": 0.308,
      "duration": 0.0196,
      "velocity": 109,
      "chip": "ym2612"
    },
    {
      "channel": 1,
      "note": 0,
      "start": 0.324,
      "duration": 0.0206,
      "velocity": 109,
      "chip": "ym2612"
    },
    {
      "channel": 4,
      "note": 2,
      "start": 0.3298,
      "duration": 0.033,
      "velocity": 109,
      "chip": "ym2612"
    },
    {
      "channel": 1,
      "note": 0,
      "start": 0.3467,
      "duration": 0.0334,
      "velocity": 109,
      "chip": "ym2612"
    },
    {
      "channel": 4,
      "note": 0,
      "start": 0.365,
      "duration": 0.0322,
      "velocity": 109,
      "chip": "ym2612"
    },
    {
      "channel": 1,
      "note": 0,
      "start": 0.3824,
      "duration": 0.0176,
      "velocity": 109,
      "chip": "ym2612"
    },
    {
      "channel": 3,
      "note": 48,
      "start": 0.3976,
      "duration": 0.0532,
      "velocity": 127,
      "chip": "ym2612"
    },
    {
      "channel": 4,
      "note": 2,
      "start": 0.3976,
      "duration": 0.0052,
      "velocity": 109,
      "chip": "ym2612"
    },
    {
      "channel": 1,
      "note": 0,
      "start": 0.4004,
      "duration": 0.0074,
      "velocity": 109,
      "chip": "ym2612"
    },
    {
      "channel": 4,
      "note": 0,
      "start": 0.4031,
      "duration": 0.0081,
      "velocity": 109,
      "chip": "ym2612"
    },
    {
      "channel": 1,
      "note": 0,
      "start": 0.4088,
      "duration": 0.0093,
      "velocity": 109,
      "chip": "ym2612"
    },
    {
      "channel": 4,
      "note": 2,
      "start": 0.4123,
      "duration": 0.0085,
      "velocity": 109,
      "chip": "ym2612"
    },
    {
      "channel": 1,
      "note": 0,
      "start": 0.4183,
      "duration": 0.0071,
      "velocity": 109,
      "chip": "ym2612"
    },
    {
      "channel": 4,
      "note": 0,
      "start": 0.421,
      "duration": 0.008,
      "velocity": 109,
      "chip": "ym2612"
    },
    {
      "channel": 1,
      "note": 0,
      "start": 0.4258,
      "duration": 0.0059,
      "velocity": 109,
      "chip": "ym2612"
    },
    {
      "channel": 4,
      "note": 2,
      "start": 0.4293,
      "duration": 0.0052,
      "velocity": 109,
      "chip": "ym2612"
    },
    {
      "channel": 1,
      "note": 0,
      "start": 0.432,
      "duration": 0.0053,
      "velocity": 109,
      "chip": "ym2612"
    },
    {
      "channel": 0,
      "note": 86,
      "start": 0.4337,
      "duration": 0.3405,
      "velocity": 112,
      "chip": "ym2612"
    },
    {
      "channel": 4,
      "note": 0,
      "start": 0.4348,
      "duration": 0.0051,
      "velocity": 109,
      "chip": "ym2612"
    },
    {
      "channel": 1,
      "note": 0,
      "start": 0.4376,
      "duration": 0.0052,
      "velocity": 109,
      "chip": "ym2612"
    },
    {
      "channel": 4,
      "note": 2,
      "start": 0.4403,
      "duration": 0.0052,
      "velocity": 109,
      "chip": "ym2612"
    },
    {
      "channel": 1,
      "note": 0,
      "start": 0.4431,
      "duration": 0.005,
      "velocity": 109,
      "chip": "ym2612"
    },
    {
      "channel": 4,
      "note": 0,
      "start": 0.4457,
      "duration": 0.0051,
      "velocity": 109,
      "chip": "ym2612"
    },
    {
      "channel": 1,
      "note": 0,
      "start": 0.4484,
      "duration": 0.0053,
      "velocity": 109,
      "chip": "ym2612"
    },
    {
      "channel": 3,
      "note": 49,
      "start": 0.4512,
      "duration": 0.0442,
      "velocity": 127,
      "chip": "ym2612"
    },
    {
      "channel": 4,
      "note": 2,
      "start": 0.4512,
      "duration": 0.0052,
      "velocity": 109,
      "chip": "ym2612"
    },
    {
      "channel": 1,
      "note": 0,
      "start": 0.454,
      "duration": 0.0051,
      "velocity": 109,
      "chip": "ym2612"
    },
    {
      "channel": 4,
      "note": 0,
      "start": 0.4567,
      "duration": 0.0052,
      "velocity": 109,
      "chip": "ym2612"
    },
    {
      "channel": 1,
      "note": 0,
      "start": 0.4594,
      "duration": 0.0052,
      "velocity": 109,
      "chip": "ym2612"
    },
    {
      "channel": 4,
      "note": 2,
      "start": 0.4623,
      "duration": 0.0051,
      "velocity": 109,
      "chip": "ym2612"
    },
    {
      "channel": 1,
      "note": 0,
      "start": 0.465,
      "duration": 0.0052,
      "velocity": 109,
      "chip": "ym2612"
    },
    {
      "channel": 4,
      "note": 0,
      "start": 0.4677,
      "duration": 0.0052,
      "velocity": 109,
      "chip": "ym2612"
    },
    {
      "channel": 1,
      "note": 0,
      "start": 0.4705,
      "duration": 0.0051,
      "velocity": 109,
      "chip": "ym2612"
    },
    {
      "channel": 4,
      "note": 2,
      "start": 0.4732,
      "duration": 0.0052,
      "velocity": 109,
      "chip": "ym2612"
    },
    {
      "channel": 1,
      "note": 0,
      "start": 0.476,
      "duration": 0.0051,
      "velocity": 109,
      "chip": "ym2612"
    },
    {
      "channel": 4,
      "note": 0,
      "start": 0.4787,
      "duration": 0.0051,
      "velocity": 109,
      "chip": "ym2612"
    },
    {
      "channel": 1,
      "note": 0,
      "start": 0.4814,
      "duration": 0.0051,
      "velocity": 109,
      "chip": "ym2612"
    },
    {
      "channel": 4,
      "note": 2,
      "start": 0.4841,
      "duration": 0.0052,
      "velocity": 109,
      "chip": "ym2612"
    },
    {
      "channel": 1,
      "note": 0,
      "start": 0.4869,
      "duration": 0.0051,
      "velocity": 109,
      "chip": "ym2612"
    },
    {
      "channel": 4,
      "note": 0,
      "start": 0.4896,
      "duration": 0.0058,
      "velocity": 109,
      "chip": "ym2612"
    },
    {
      "channel": 1,
      "note": 0,
      "start": 0.4923,
      "duration": 0.0196,
      "velocity": 109,
      "chip": "ym2612"
    },
    {
      "channel": 3,
      "note": 48,
      "start": 0.4975,
      "duration": 0.2454,
      "velocity": 127,
      "chip": "ym2612"
    },
    {
      "channel": 4,
      "note": 2,
      "start": 0.4975,
      "duration": 0.0316,
      "velocity": 109,
      "chip": "ym2612"
    },
    {
      "channel": 1,
      "note": 0,
      "start": 0.5139,
      "duration": 0.0187,
      "velocity": 109,
      "chip": "ym2612"
    },
    {
      "channel": 4,
      "note": 0,
      "start": 0.5295,
      "duration": 0.0058,
      "velocity": 109,
      "chip": "ym2612"
    },
    {
      "channel": 1,
      "note": 0,
      "start": 0.5329,
      "duration": 0.0199,
      "velocity": 109,
      "chip": "ym2612"
    },
    {
      "channel": 4,
      "note": 2,
      "start": 0.5375,
      "duration": 0.0322,
      "velocity": 109,
      "chip": "ym2612"
    },
    {
      "channel": 1,
      "note": 0,
      "start": 0.5551,
      "duration": 0.0326,
      "velocity": 109,
      "chip": "ym2612"
    },
    {
      "channel": 4,
      "note": 0,
      "start": 0.5718,
      "duration": 0.0344,
      "velocity": 109,
      "chip": "ym2612"
    },
    {
      "channel": 1,
      "note": 0,
      "start": 0.5898,
      "duration": 0.0334,
      "velocity": 109,
      "chip": "ym2612"
    },
    {
      "channel": 4,
      "note": 2,
      "start": 0.6084,
      "duration": 0.0318,
      "velocity": 109,
      "chip": "ym2612"
    },
    {
      "channel": 1,
      "note": 0,
      "start": 0.6256,
      "duration": 0.0317,
      "velocity": 109,
      "chip": "ym2612"
    },
    {
      "channel": 4,
      "note": 0,
      "start": 0.6422,
      "duration": 0.019,
      "velocity": 109,
      "chip": "ym2612"
    },
    {
      "channel": 1,
      "note": 0,
      "start": 0.6588,
      "duration": 0.0185,
      "velocity": 109,
      "chip": "ym2612"
    },
    {
      "channel": 4,
      "note": 2,
      "start": 0.6632,
      "duration": 0.0321,
      "velocity": 109,
      "chip": "ym2612"
    },
    {
      "channel": 1,
      "note": 0,
      "start": 0.6793,
      "duration": 0.0337,
      "velocity": 109,
      "chip": "ym2612"
    },
    {
      "channel": 4,
      "note": 0,
      "start": 0.6973,
      "duration": 0.0456,
      "velocity": 109,
      "chip": "ym2612"
    },
    {
      "channel": 1,
      "note": 0,
      "start": 0.7151,
      "duration": 0.0313,
      "velocity": 109,
      "chip": "ym2612"
    },
    {
      "channel": 3,
      "note": 47,
      "start": 0.7439,
      "duration": 0.1981,
      "velocity": 127,
      "chip": "ym2612"
    },
    {
      "channel": 4,
      "note": 2,
      "start": 0.7439,
      "duration": 0.0051,
      "velocity": 109,
      "chip": "ym2612"
    },
    {
      "channel": 2,
      "note": 47,
      "start": 0.7443,
      "duration": 0.1979,
      "velocity": 127,
      "chip": "ym2612"
    },
    {
      "channel": 1,
      "note": 0,
      "start": 0.7467,
      "duration": 0.0065,
      "velocity": 109,
      "chip": "ym2612"
    },
    {
      "channel": 4,
      "note": 0,
      "start": 0.7494,
      "duration": 0.0065,
      "velocity": 109,
      "chip": "ym2612"
    },
    {
      "channel": 1,
      "note": 0,
      "start": 0.7535,
      "duration": 0.0065,
      "velocity": 109,
      "chip": "ym2612"
    },
    {
      "channel": 4,
      "note": 2,
      "start": 0.7562,
      "duration": 0.0066,
      "velocity": 109,
      "chip": "ym2612"
    },
    {
      "channel": 1,
      "note": 0,
      "start": 0.7603,
      "duration": 0.0051,
      "velocity": 109,
      "chip": "ym2612"
    },
    {
      "channel": 4,
      "note": 0,
      "start": 0.7631,
      "duration": 0.0066,
      "velocity": 109,
      "chip": "ym2612"
    },
    {
      "channel": 1,
      "note": 0,
      "start": 0.7658,
      "duration": 0.0066,
      "velocity": 109,
      "chip": "ym2612"
    },
    {
      "channel": 4,
      "note": 2,
      "start": 0.77,
      "duration": 0.0054,
      "velocity": 109,
      "chip": "ym2612"
    },
    {
      "channel": 1,
      "note": 0,
      "start": 0.7728,
      "duration": 0.0053,
      "velocity": 109,
      "chip": "ym2612"
    },
    {
      "channel": 0,
      "note": 74,
      "start": 0.7745,
      "duration": 0.0172,
      "velocity": 112,
      "chip": "ym2612"
    },
    {
      "channel": 4,
      "note": 0,
      "start": 0.7757,
      "duration": 0.0051,
      "velocity": 109,
      "chip": "ym2612"
    },
    {
      "channel": 1,
      "note": 0,
      "start": 0.7784,
      "duration": 0.0051,
      "velocity": 109,
      "chip": "ym2612"
    },
    {
      "channel": 4,
      "note": 2,
      "start": 0.7811,
      "duration": 0.0051,
      "velocity": 109,
      "chip": "ym2612"
    },
    {
      "channel": 1,
      "note": 0,
      "start": 0.7838,
      "duration": 0.0052,
      "velocity": 109,
      "chip": "ym2612"
    },
    {
      "channel": 4,
      "note": 0,
      "start": 0.7866,
      "duration": 0.0647,
      "velocity": 109,
      "chip": "ym2612"
    },
    {
      "channel": 1,
      "note": 0,
      "start": 0.7893,
      "duration": 0.0788,
      "velocity": 109,
      "chip": "ym2612"
    },
    {
      "channel": 0,
      "note": 91,
      "start": 0.7929,
      "duration": 0.0008,
      "velocity": 127,
      "chip": "ym2612"
    },
    {
      "channel": 0,
      "note": 93,
      "start": 0.7941,
      "duration": 0.0011,
      "velocity": 127,
      "chip": "ym2612"
    },
    {
      "channel": 0,
      "note": 92,
      "start": 0.7956,
      "duration": 0.0011,
      "velocity": 127,
      "chip": "ym2612"
    },
    {
      "channel": 0,
      "note": 94,
      "start": 0.7971,
      "duration": 0.0011,
      "velocity": 127,
      "chip": "ym2612"
    },
    {
      "channel": 0,
      "note": 92,
      "start": 0.7986,
      "duration": 0.0011,
      "velocity": 127,
      "chip": "ym2612"
    },
    {
      "channel": 0,
      "note": 93,
      "start": 0.8001,
      "duration": 0.0011,
      "velocity": 127,
      "chip": "ym2612"
    },
    {
      "channel": 0,
      "note": 92,
      "start": 0.8015,
      "duration": 0.0011,
      "velocity": 127,
      "chip": "ym2612"
    },
    {
      "channel": 0,
      "note": 93,
      "start": 0.803,
      "duration": 0.0011,
      "velocity": 127,
      "chip": "ym2612"
    },
    {
      "channel": 0,
      "note": 91,
      "start": 0.8045,
      "duration": 0.0011,
      "velocity": 127,
      "chip": "ym2612"
    },
    {
      "channel": 0,
      "note": 93,
      "start": 0.8059,
      "duration": 0.001,
      "velocity": 127,
      "chip": "ym2612"
    },
    {
      "channel": 0,
      "note": 92,
      "start": 0.8073,
      "duration": 0.0011,
      "velocity": 127,
      "chip": "ym2612"
    },
    {
      "channel": 0,
      "note": 94,
      "start": 0.8087,
      "duration": 0.0011,
      "velocity": 127,
      "chip": "ym2612"
    },
    {
      "channel": 0,
      "note": 92,
      "start": 0.8102,
      "duration": 0.0011,
      "velocity": 127,
      "chip": "ym2612"
    },
    {
      "channel": 0,
      "note": 93,
      "start": 0.8115,
      "duration": 0.0011,
      "velocity": 127,
      "chip": "ym2612"
    },
    {
      "channel": 0,
      "note": 92,
      "start": 0.813,
      "duration": 0.0011,
      "velocity": 127,
      "chip": "ym2612"
    },
    {
      "channel": 0,
      "note": 93,
      "start": 0.8145,
      "duration": 0.0078,
      "velocity": 127,
      "chip": "ym2612"
    },
    {
      "channel": 0,
      "note": 91,
      "start": 0.8246,
      "duration": 0.0064,
      "velocity": 127,
      "chip": "ym2612"
    },
    {
      "channel": 0,
      "note": 93,
      "start": 0.833,
      "duration": 0.0119,
      "velocity": 127,
      "chip": "ym2612"
    },
    {
      "channel": 0,
      "note": 92,
      "start": 0.8472,
      "duration": 0.0064,
      "velocity": 127,
      "chip": "ym2612"
    },
    {
      "channel": 0,
      "note": 94,
      "start": 0.8556,
      "duration": 0.0068,
      "velocity": 127,
      "chip": "ym2612"
    },
    {
      "channel": 0,
      "note": 92,
      "start": 0.8641,
      "duration": 0.0081,
      "velocity": 127,
      "chip": "ym2612"
    },
    {
      "channel": 0,
      "note": 93,
      "start": 0.8728,
      "duration": 0.0073,
      "velocity": 127,
      "chip": "ym2612"
    },
    {
      "channel": 0,
      "note": 92,
      "start": 0.8805,
      "duration": 0.001,
      "velocity": 127,
      "chip": "ym2612"
    },
    {
      "channel": 0,
      "note": 93,
      "start": 0.8819,
      "duration": 0.001,
      "velocity": 127,
      "chip": "ym2612"
    },
    {
      "channel": 0,
      "note": 91,
      "start": 0.885,
      "duration": 0.0059,
      "velocity": 127,
      "chip": "ym2612"
    },
    {
      "channel": 0,
      "note": 93,
      "start": 0.8928,
      "duration": 0.0058,
      "velocity": 127,
      "chip": "ym2612"
    },
    {
      "channel": 0,
      "note": 92,
      "start": 0.899,
      "duration": 0.0011,
      "velocity": 127,
      "chip": "ym2612"
    },
    {
      "channel": 0,
      "note": 94,
      "start": 0.9007,
      "duration": 0.0074,
      "velocity": 127,
      "chip": "ym2612"
    },
    {
      "channel": 0,
      "note": 92,
      "start": 0.9104,
      "duration": 0.0063,
      "velocity": 127,
      "chip": "ym2612"
    },
    {
      "channel": 0,
      "note": 93,
      "start": 0.9187,
      "duration": 0.007,
      "velocity": 127,
      "chip": "ym2612"
    },
    {
      "channel": 0,
      "note": 92,
      "start": 0.9278,
      "duration": 0.0061,
      "velocity": 127,
      "chip": "ym2612"
    },
    {
      "channel": 0,
      "note": 93,
      "start": 0.9359,
      "duration": 0.0062,
      "velocity": 127,
      "chip": "ym2612"
    },
    {
      "channel": 3,
      "note": 48,
      "start": 0.9431,
      "duration": 0.0085,
      "velocity": 127,
      "chip": "ym2612"
    },
    {
      "channel": 4,
      "note": 2,
      "start": 0.9431,
      "duration": 0.0056,
      "velocity": 109,
      "chip": "ym2612"
    },
    {
      "channel": 0,
      "note": 91,
      "start": 0.9432,
      "duration": 0.0011,
      "velocity": 127,
      "chip": "ym2612"
    },
    {
      "channel": 2,
      "note": 60,
      "start": 0.9436,
      "duration": 0.0539,
      "velocity": 117,
      "chip": "ym2612"
    },
    {
      "channel": 0,
      "note": 93,
      "start": 0.9447,
      "duration": 0.0011,
      "velocity": 127,
      "chip": "ym2612"
    },
    {
      "channel": 0,
      "note": 92,
      "start": 0.9462,
      "duration": 0.0011,
      "velocity": 127,
      "chip": "ym2612"
    },
    {
      "channel": 1,
      "note": 0,
      "start": 0.9462,
      "duration": 0.0056,
      "velocity": 109,
      "chip": "ym2612"
    },
    {
      "channel": 0,
      "note": 94,
      "start": 0.9477,
      "duration": 0.0011,
      "velocity": 127,
      "chip": "ym2612"
    },
    {
      "channel": 0,
      "note": 92,
      "start": 0.9492,
      "duration": 0.0011,
      "velocity": 127,
      "chip": "ym2612"
    },
    {
      "channel": 4,
      "note": 0,
      "start": 0.9492,
      "duration": 0.0057,
      "velocity": 109,
      "chip": "ym2612"
    },
    {
      "channel": 0,
      "note": 93,
      "start": 0.9506,
      "duration": 0.0011,
      "velocity": 127,
      "chip": "ym2612"
    },
    {
      "channel": 0,
      "note": 92,
      "start": 0.9522,
      "duration": 0.0012,
      "velocity": 127,
      "chip": "ym2612"
    },
    {
      "channel": 3,
      "note": 48,
      "start": 0.9522,
      "duration": 0.0026,
      "velocity": 127,
      "chip": "ym2612"
    },
    {
      "channel": 1,
      "note": 0,
      "start": 0.9522,
      "duration": 0.0069,
      "velocity": 109,
      "chip": "ym2612"
    },
    {
      "channel": 0,
      "note": 93,
      "start": 0.9537,
      "duration": 0.0012,
      "velocity": 127,
      "chip": "ym2612"
    },
    {
      "channel": 3,
      "note": 46,
      "start": 0.9566,
      "duration": 0.0025,
      "velocity": 127,
      "chip": "ym2612"
    },
    {
      "channel": 0,
      "note": 91,
      "start": 0.9566,
      "duration": 0.0011,
      "velocity": 127,
      "chip": "ym2612"
    },
    {
      "channel": 4,
      "note": 2,
      "start": 0.9566,
      "duration": 0.0067,
      "velocity": 109,
      "chip": "ym2612"
    },
    {
      "channel": 0,
      "note": 93,
      "start": 0.9581,
      "duration": 0.001,
      "velocity": 127,
      "chip": "ym2612"
    },
    {
      "channel": 0,
      "note": 92,
      "start": 0.9608,
      "duration": 0.0011,
      "velocity": 127,
      "chip": "ym2612"
    },
    {
      "channel": 1,
      "note": 0,
      "start": 0.9608,
      "duration": 0.0055,
      "velocity": 109,
      "chip": "ym2612"
    },
    {
      "channel": 3,
      "note": 48,
      "start": 0.9608,
      "duration": 0.0084,
      "velocity": 127,
      "chip": "ym2612"
    },
    {
      "channel": 0,
      "note": 94,
      "start": 0.9623,
      "duration": 0.001,
      "velocity": 127,
      "chip": "ym2612"
    },
    {
      "channel": 0,
      "note": 92,
      "start": 0.9637,
      "duration": 0.0011,
      "velocity": 127,
      "chip": "ym2612"
    },
    {
      "channel": 4,
      "note": 0,
      "start": 0.9637,
      "duration": 0.0055,
      "velocity": 109,
      "chip": "ym2612"
    },
    {
      "channel": 0,
      "note": 93,
      "start": 0.9651,
      "duration": 0.001,
      "velocity": 127,
      "chip": "ym2612"
    },
    {
      "channel": 0,
      "note": 92,
      "start": 0.9666,
      "duration": 0.0011,
      "velocity": 127,
      "chip": "ym2612"
    },
    {
      "channel": 1,
      "note": 0,
      "start": 0.9666,
      "duration": 0.0056,
      "velocity": 109,
      "chip": "ym2612"
    },
    {
      "channel": 0,
      "note": 93,
      "start": 0.9681,
      "duration": 0.0012,
      "velocity": 127,
      "chip": "ym2612"
    },
    {
      "channel": 3,
      "note": 46,
      "start": 0.9696,
      "duration": 0.0024,
      "velocity": 127,
      "chip": "ym2612"
    },
    {
      "channel": 4,
      "note": 2,
      "start": 0.9696,
      "duration": 0.0054,
      "velocity": 109,
      "chip": "ym2612"
    },
    {
      "channel": 0,
      "note": 91,
      "start": 0.9697,
      "duration": 0.001,
      "velocity": 127,
      "chip": "ym2612"
    },
    {
      "channel": 0,
      "note": 93,
      "start": 0.9711,
      "duration": 0.001,
      "velocity": 127,
      "chip": "ym2612"
    },
    {
      "channel": 0,
      "note": 92,
      "start": 0.9725,
      "duration": 0.0011,
      "velocity": 127,
      "chip": "ym2612"
    },
    {
      "channel": 1,
      "note": 0,
      "start": 0.9725,
      "duration": 0.0069,
      "velocity": 109,
      "chip": "ym2612"
    },
    {
      "channel": 3,
      "note": 48,
      "start": 0.9725,
      "duration": 0.0025,
      "velocity": 127,
      "chip": "ym2612"
    },
    {
      "channel": 0,
      "note": 94,
      "start": 0.9739,
      "duration": 0.0011,
      "velocity": 127,
      "chip": "ym2612"
    },
    {
      "channel": 3,
      "note": 46,
      "start": 0.9767,
      "duration": 0.0026,
      "velocity": 127,
      "chip": "ym2612"
    },
    {
      "channel": 0,
      "note": 92,
      "start": 0.9768,
      "duration": 0.0011,
      "velocity": 127,
      "chip": "ym2612"
    },
    {
      "channel": 4,
      "note": 0,
      "start": 0.9768,
      "duration": 0.0068,
      "velocity": 109,
      "chip": "ym2612"
    },
    {
      "channel": 0,
      "note": 93,
      "start": 0.9782,
      "duration": 0.0012,
      "velocity": 127,
      "chip": "ym2612"
    },
    {
      "channel": 0,
      "note": 92,
      "start": 0.981,
      "duration": 0.0011,
      "velocity": 127,
      "chip": "ym2612"
    },
    {
      "channel": 3,
      "note": 51,
      "start": 0.981,
      "duration": 0.0162,
      "velocity": 127,
      "chip": "ym2612"
    },
    {
      "channel": 1,
      "note": 0,
      "start": 0.9811,
      "duration": 0.0055,
      "velocity": 109,
      "chip": "ym2612"
    },
    {
      "channel": 0,
      "note": 93,
      "start": 0.9825,
      "duration": 0.0011,
      "velocity": 127,
      "chip": "ym2612"
    },
    {
      "channel": 4,
      "note": 2,
      "start": 0.984,
      "duration": 0.0055,
      "velocity": 109,
      "chip": "ym2612"
    },
    {
      "channel": 0,
      "note": 91,
      "start": 0.984,
      "duration": 0.0011,
      "velocity": 127,
      "chip": "ym2612"
    },
    {
      "channel": 0,
      "note": 93,
      "start": 0.9854,
      "duration": 0.0011,
      "velocity": 127,
      "chip": "ym2612"
    },
    {
      "channel": 0,
      "note": 92,
      "start": 0.9869,
      "duration": 0.0011,
      "velocity": 127,
      "chip": "ym2612"
    },
    {
      "channel": 1,
      "note": 0,
      "start": 0.9869,
      "duration": 0.0055,
      "velocity": 109,
      "chip": "ym2612"
    },
    {
      "channel": 0,
      "note": 94,
      "start": 0.9884,
      "duration": 0.0011,
      "velocity": 127,
      "chip": "ym2612"
    },
    {
      "channel": 0,
      "note": 92,
      "start": 0.9898,
      "duration": 0.0011,
      "velocity": 127,
      "chip": "ym2612"
    },
    {
      "channel": 4,
      "note": 0,
      "start": 0.9898,
      "duration": 0.0074,
      "velocity": 109,
      "chip": "ym2612"
    },
    {
      "channel": 0,
      "note": 93,
      "start": 0.9913,
      "duration": 0.0011,
      "velocity": 127,
      "chip": "ym2612"
    },
    {
      "channel": 0,
      "note": 92,
      "start": 0.9928,
      "duration": 0.0011,
      "velocity": 127,
      "chip": "ym2612"
    },
    {
      "channel": 1,
      "note": 0,
      "start": 0.9928,
      "duration": 0.0083,
      "velocity": 109,
      "chip": "ym2612"
    },
    {
      "channel": 0,
      "note": 93,
      "start": 0.9942,
      "duration": 0.0031,
      "velocity": 127,
      "chip": "ym2612"
    },
    {
      "channel": 0,
      "note": 91,
      "start": 0.9984,
      "duration": 0.0012,
      "velocity": 127,
      "chip": "ym2612"
    },
    {
      "channel": 4,
      "note": 2,
      "start": 0.9984,
      "duration": 0.0056,
      "velocity": 109,
      "chip": "ym2612"
    },
    {
      "channel": 2,
      "note": 48,
      "start": 0.9985,
      "duration": 0.5272,
      "velocity": 117,
      "chip": "ym2612"
    },
    {
      "channel": 3,
      "note": 48,
      "start": 0.9988,
      "duration": 0.1694,
      "velocity": 127,
      "chip": "ym2612"
    },
    {
      "channel": 0,
      "note": 93,
      "start": 0.9999,
      "duration": 0.0011,
      "velocity": 127,
      "chip": "ym2612"
    },
    {
      "channel": 0,
      "note": 92,
      "start": 1.0014,
      "duration": 0.0011,
      "velocity": 127,
      "chip": "ym2612"
    },
    {
      "channel": 1,
      "note": 0,
      "start": 1.0014,
      "duration": 0.0056,
      "velocity": 109,
      "chip": "ym2612"
    },
    {
      "channel": 0,
      "note": 94,
      "start": 1.0029,
      "duration": 0.0011,
      "velocity": 127,
      "chip": "ym2612"
    },
    {
      "channel": 4,
      "note": 0,
      "start": 1.0044,
      "duration": 0.0055,
      "velocity": 109,
      "chip": "ym2612"
    },
    {
      "channel": 0,
      "note": 92,
      "start": 1.0045,
      "duration": 0.001,
      "velocity": 127,
      "chip": "ym2612"
    },
    {
      "channel": 0,
      "note": 93,
      "start": 1.0058,
      "duration": 0.0011,
      "velocity": 127,
      "chip": "ym2612"
    },
    {
      "channel": 0,
      "note": 92,
      "start": 1.0073,
      "duration": 0.0011,
      "velocity": 127,
      "chip": "ym2612"
    },
    {
      "channel": 1,
      "note": 0,
      "start": 1.0073,
      "duration": 0.0056,
      "velocity": 109,
      "chip": "ym2612"
    },
    {
      "channel": 0,
      "note": 93,
      "start": 1.0088,
      "duration": 0.0012,
      "velocity": 127,
      "chip": "ym2612"
    },
    {
      "channel": 0,
      "note": 91,
      "start": 1.0103,
      "duration": 0.0011,
      "velocity": 127,
      "chip": "ym2612"
    },
    {
      "channel": 4,
      "note": 2,
      "start": 1.0103,
      "duration": 0.0055,
      "velocity": 109,
      "chip": "ym2612"
    },
    {
      "channel": 0,
      "note": 93,
      "start": 1.0118,
      "duration": 0.001,
      "velocity": 127,
      "chip": "ym2612"
    },
    {
      "channel": 0,
      "note": 92,
      "start": 1.0133,
      "duration": 0.0011,
      "velocity": 127,
      "chip": "ym2612"
    },
    {
      "channel": 1,
      "note": 0,
      "start": 1.0133,
      "duration": 0.0054,
      "velocity": 109,
      "chip": "ym2612"
    },
    {
      "channel": 0,
      "note": 94,
      "start": 1.0147,
      "duration": 0.0011,
      "velocity": 127,
      "chip": "ym2612"
    },
    {
      "channel": 0,
      "note": 92,
      "start": 1.0162,
      "duration": 0.0011,
      "velocity": 127,
      "chip": "ym2612"
    },
    {
      "channel": 4,
      "note": 0,
      "start": 1.0162,
      "duration": 0.012,
      "velocity": 109,
      "chip": "ym2612"
    },
    {
      "channel": 0,
      "note": 93,
      "start": 1.0176,
      "duration": 0.0011,
      "velocity": 127,
      "chip": "ym2612"
    },
    {
      "channel": 0,
      "note": 92,
      "start": 1.0191,
      "duration": 0.0011,
      "velocity": 127,
      "chip": "ym2612"
    },
    {
      "channel": 1,
      "note": 0,
      "start": 1.0191,
      "duration": 0.0268,
      "velocity": 109,
      "chip": "ym2612"
    },
    {
      "channel": 0,
      "note": 93,
      "start": 1.0206,
      "duration": 0.0076,
      "velocity": 127,
      "chip": "ym2612"
    },
    {
      "channel": 0,
      "note": 91,
      "start": 1.0305,
      "duration": 0.0063,
      "velocity": 127,
      "chip": "ym2612"
    },
    {
      "channel": 4,
      "note": 2,
      "start": 1.0305,
      "duration": 0.0451,
      "velocity": 109,
      "chip": "ym2612"
    },
    {
      "channel": 0,
      "note": 93,
      "start": 1.0389,
      "duration": 0.0069,
      "velocity": 127,
      "chip": "ym2612"
    },
    {
      "channel": 0,
      "note": 92,
      "start": 1.048,
      "duration": 0.0125,
      "velocity": 127,
      "chip": "ym2612"
    },
    {
      "channel": 1,
      "note": 0,
      "start": 1.048,
      "duration": 0.0452,
      "velocity": 109,
      "chip": "ym2612"
    },
    {
      "channel": 0,
      "note": 94,
      "start": 1.0643,
      "duration": 0.0114,
      "velocity": 127,
      "chip": "ym2612"
    },
    {
      "channel": 0,
      "note": 92,
      "start": 1.0777,
      "duration": 0.0077,
      "velocity": 127,
      "chip": "ym2612"
    },
    {
      "channel": 4,
      "note": 0,
      "start": 1.0777,
      "duration": 0.0232,
      "velocity": 109,
      "chip": "ym2612"
    },
    {
      "channel": 0,
      "note": 93,
      "start": 1.0861,
      "duration": 0.0071,
      "velocity": 127,
      "chip": "ym2612"
    },
    {
      "channel": 0,
      "note": 92,
      "start": 1.0953,
      "duration": 0.0041,
      "velocity": 127,
      "chip": "ym2612"
    },
    {
      "channel": 1,
      "note": 0,
      "start": 1.0953,
      "duration": 0.022,
      "velocity": 109,
      "chip": "ym2612"
    },
    {
      "channel": 0,
      "note": 93,
      "start": 1.0997,
      "duration": 0.0011,
      "velocity": 127,
      "chip": "ym2612"
    },
    {
      "channel": 4,
      "note": 2,
      "start": 1.1031,
      "duration": 0.0315,
      "velocity": 109,
      "chip": "ym2612"
    },
    {
      "channel": 0,
      "note": 91,
      "start": 1.1031,
      "duration": 0.006,
      "velocity": 127,
      "chip": "ym2612"
    },
    {
      "channel": 0,
      "note": 93,
      "start": 1.1111,
      "duration": 0.0061,
      "velocity": 127,
      "chip": "ym2612"
    },
    {
      "channel": 0,
      "note": 92,
      "start": 1.1192,
      "duration": 0.0077,
      "velocity": 127,
      "chip": "ym2612"
    },
    {
      "channel": 1,
      "note": 0,
      "start": 1.1192,
      "duration": 0.032,
      "velocity": 109,
      "chip": "ym2612"
    },
    {
      "channel": 0,
      "note": 94,
      "start": 1.1273,
      "duration": 0.0073,
      "velocity": 127,
      "chip": "ym2612"
    },
    {
      "channel": 0,
      "note": 92,
      "start": 1.1369,
      "duration": 0.0061,
      "velocity": 127,
      "chip": "ym2612"
    },
    {
      "channel": 4,
      "note": 0,
      "start": 1.1369,
      "duration": 0.0314,
      "velocity": 109,
      "chip": "ym2612"
    },
    {
      "channel": 0,
      "note": 93,
      "start": 1.1449,
      "duration": 0.0062,
      "velocity": 127,
      "chip": "ym2612"
    },
    {
      "channel": 0,
      "note": 92,
      "start": 1.1533,
      "duration": 0.0061,
      "velocity": 127,
      "chip": "ym2612"
    },
    {
      "channel": 1,
      "note": 0,
      "start": 1.1534,
      "duration": 0.02,
      "velocity": 109,
      "chip": "ym2612"
    },
    {
      "channel": 0,
      "note": 93,
      "start": 1.1614,
      "duration": 0.0068,
      "velocity": 127,
      "chip": "ym2612"
    },
    {
      "channel": 0,
      "note": 91,
      "start": 1.1706,
      "duration": 0.0012,
      "velocity": 127,
      "chip": "ym2612"
    },
    {
      "channel": 4,
      "note": 2,
      "start": 1.1706,
      "duration": 0.0057,
      "velocity": 109,
      "chip": "ym2612"
    },
    {
      "channel": 3,
      "note": 55,
      "start": 1.171,
      "duration": 0.0023,
      "velocity": 127,
      "chip": "ym2612"
    },
    {
      "channel": 0,
      "note": 93,
      "start": 1.1721,
      "duration": 0.0012,
      "velocity": 127,
      "chip": "ym2612"
    },
    {
      "channel": 0,
      "note": 92,
      "start": 1.1737,
      "duration": 0.0011,
      "velocity": 127,
      "chip": "ym2612"
    },
    {
      "channel": 3,
      "note": 55,
      "start": 1.1737,
      "duration": 0.0025,
      "velocity": 127,
      "chip": "ym2612"
    },
    {
      "channel": 1,
      "note": 0,
      "start": 1.1738,
      "duration": 0.0055,
      "velocity": 109,
      "chip": "ym2612"
    },
    {
      "channel": 0,
      "note": 94,
      "start": 1.1752,
      "duration": 0.0011,
      "velocity": 127,
      "chip": "ym2612"
    },
    {
      "channel": 0,
      "note": 92,
      "start": 1.1767,
      "duration": 0.0011,
      "velocity": 127,
      "chip": "ym2612"
    },
    {
      "channel": 3,
      "note": 67,
      "start": 1.1767,
      "duration": 0.0025,
      "velocity": 127,
      "chip": "ym2612"
    },
    {
      "channel": 4,
      "note": 0,
      "start": 1.1767,
      "duration": 0.0069,
      "velocity": 109,
      "chip": "ym2612"
    },
    {
      "channel": 0,
      "note": 93,
      "start": 1.1782,
      "duration": 0.0011,
      "velocity": 127,
      "chip": "ym2612"
    },
    {
      "channel": 0,
      "note": 92,
      "start": 1.181,
      "duration": 0.0011,
      "velocity": 127,
      "chip": "ym2612"
    },
    {
      "channel": 1,
      "note": 0,
      "start": 1.181,
      "duration": 0.007,
      "velocity": 109,
      "chip": "ym2612"
    },
    {
      "channel": 3,
      "note": 67,
      "start": 1.181,
      "duration": 0.0026,
      "velocity": 127,
      "chip": "ym2612"
    },
    {
      "channel": 0,
      "note": 93,
      "start": 1.1825,
      "duration": 0.0012,
      "velocity": 127,
      "chip": "ym2612"
    },
    {
      "channel": 0,
      "note": 91,
      "start": 1.1853,
      "duration": 0.0012,
      "velocity": 127,
      "chip": "ym2612"
    },
    {
      "channel": 3,
      "note": 55,
      "start": 1.1853,
      "duration": 0.0026,
      "velocity": 127,
      "chip": "ym2612"
    },
    {
      "channel": 4,
      "note": 2,
      "start": 1.1853,
      "duration": 0.007,
      "velocity": 109,
      "chip": "ym2612"
    },
    {
      "channel": 0,
      "note": 93,
      "start": 1.1868,
      "duration": 0.0011,
      "velocity": 127,
      "chip": "ym2612"
    },
    {
      "channel": 3,
      "note": 55,
      "start": 1.1896,
      "duration": 0.0026,
      "velocity": 127,
      "chip": "ym2612"
    },
    {
      "channel": 0,
      "note": 92,
      "start": 1.1896,
      "duration": 0.0012,
      "velocity": 127,
      "chip": "ym2612"
    },
    {
      "channel": 1,
      "note": 0,
      "start": 1.1896,
      "duration": 0.0069,
      "velocity": 109,
      "chip": "ym2612"
    },
    {
      "channel": 0,
      "note": 94,
      "start": 1.1911,
      "duration": 0.0012,
      "velocity": 127,
      "chip": "ym2612"
    },
    {
      "channel": 3,
      "note": 67,
      "start": 1.1927,
      "duration": 0.0038,
      "velocity": 127,
      "chip": "ym2612"
    },
    {
      "channel": 4,
      "note": 0,
      "start": 1.1927,
      "duration": 0.0067,
      "velocity": 109,
      "chip": "ym2612"
    },
    {
      "channel": 0,
      "note": 92,
      "start": 1.1927,
      "duration": 0.0011,
      "velocity": 127,
      "chip": "ym2612"
    },
    {
      "channel": 0,
      "note": 93,
      "start": 1.1941,
      "duration": 0.0024,
      "velocity": 127,
      "chip": "ym2612"
    },
    {
      "channel": 0,
      "note": 92,
      "start": 1.197,
      "duration": 0.0011,
      "velocity": 127,
      "chip": "ym2612"
    },
    {
      "channel": 3,
      "note": 67,
      "start": 1.197,
      "duration": 0.0025,
      "velocity": 127,
      "chip": "ym2612"
    },
    {
      "channel": 1,
      "note": 0,
      "start": 1.197,
      "duration": 0.0068,
      "velocity": 109,
      "chip": "ym2612"
    },
    {
      "channel": 0,
      "note": 93,
      "start": 1.1984,
      "duration": 0.001,
      "velocity": 127,
      "chip": "ym2612"
    },
    {
      "channel": 3,
      "note": 56,
      "start": 1.1999,
      "duration": 0.0039,
      "velocity": 127,
      "chip": "ym2612"
    },
    {
      "channel": 0,
      "note": 91,
      "start": 1.1999,
      "duration": 0.0011,
      "velocity": 127,
      "chip": "ym2612"
    },
    {
      "channel": 4,
      "note": 2,
      "start": 1.1999,
      "duration": 0.0068,
      "velocity": 109,
      "chip": "ym2612"
    },
    {
      "channel": 0,
      "note": 93,
      "start": 1.2013,
      "duration": 0.0024,
      "velocity": 127,
      "chip": "ym2612"
    },
    {
      "channel": 0,
      "note": 92,
      "start": 1.2042,
      "duration": 0.0011,
      "velocity": 127,
      "chip": "ym2612"
    },
    {
      "channel": 3,
      "note": 56,
      "start": 1.2042,
      "duration": 0.0025,
      "velocity": 127,
      "chip": "ym2612"
    },
    {
      "channel": 1,
      "note": 0,
      "start": 1.2042,
      "duration": 0.0056,
      "velocity": 109,
      "chip": "ym2612"
    },
    {
      "channel": 0,
      "note": 94,
      "start": 1.2056,
      "duration": 0.0011,
      "velocity": 127,
      "chip": "ym2612"
    },
    {
      "channel": 0,
      "note": 92,
      "start": 1.2071,
      "duration": 0.0011,
      "velocity": 127,
      "chip": "ym2612"
    },
    {
      "channel": 3,
      "note": 68,
      "start": 1.2071,
      "duration": 0.0026,
      "velocity": 127,
      "chip": "ym2612"
    },
    {
      "channel": 4,
      "note": 0,
      "start": 1.2071,
      "duration": 0.0056,
      "velocity": 109,
      "chip": "ym2612"
    },
    {
      "channel": 0,
      "note": 93,
      "start": 1.2086,
      "duration": 0.0011,
      "velocity": 127,
      "chip": "ym2612"
    },
    {
      "channel": 0,
      "note": 92,
      "start": 1.2102,
      "duration": 0.0011,
      "velocity": 127,
      "chip": "ym2612"
    },
    {
      "channel": 3,
      "note": 68,
      "start": 1.2102,
      "duration": 0.0025,
      "velocity": 127,
      "chip": "ym2612"
    },
    {
      "channel": 1,
      "note": 0,
      "start": 1.2102,
      "duration": 0.0056,
      "velocity": 109,
      "chip": "ym2612"
    },
    {
      "channel": 0,
      "note": 93,
      "start": 1.2116,
      "duration": 0.0011,
      "velocity": 127,
      "chip": "ym2612"
    },
    {
      "channel": 3,
      "note": 56,
      "start": 1.2132,
      "duration": 0.0025,
      "velocity": 127,
      "chip": "ym2612"
    },
    {
      "channel": 4,
      "note": 2,
      "start": 1.2132,
      "duration": 0.0055,
      "velocity": 109,
      "chip": "ym2612"
    },
    {
      "channel": 0,
      "note": 91,
      "start": 1.2132,
      "duration": 0.0011,
      "velocity": 127,
      "chip": "ym2612"
    },
    {
      "channel": 0,
      "note": 93,
      "start": 1.2146,
      "duration": 0.0011,
      "velocity": 127,
      "chip": "ym2612"
    },
    {
      "channel": 0,
      "note": 92,
      "start": 1.2161,
      "duration": 0.0011,
      "velocity": 127,
      "chip": "ym2612"
    },
    {
      "channel": 3,
      "note": 56,
      "start": 1.2161,
      "duration": 0.0025,
      "velocity": 127,
      "chip": "ym2612"
    },
    {
      "channel": 1,
      "note": 0,
      "start": 1.2162,
      "duration": 0.0056,
      "velocity": 109,
      "chip": "ym2612"
    },
    {
      "channel": 0,
      "note": 94,
      "start": 1.2175,
      "duration": 0.0012,
      "velocity": 127,
      "chip": "ym2612"
    },
    {
      "channel": 3,
      "note": 68,
      "start": 1.2191,
      "duration": 0.0026,
      "velocity": 127,
      "chip": "ym2612"
    },
    {
      "channel": 0,
      "note": 92,
      "start": 1.2192,
      "duration": 0.0011,
      "velocity": 127,
      "chip": "ym2612"
    },
    {
      "channel": 4,
      "note": 0,
      "start": 1.2192,
      "duration": 0.0057,
      "velocity": 109,
      "chip": "ym2612"
    },
    {
      "channel": 0,
      "note": 93,
      "start": 1.2206,
      "duration": 0.0012,
      "velocity": 127,
      "chip": "ym2612"
    },
    {
      "channel": 3,
      "note": 68,
      "start": 1.2222,
      "duration": 0.0027,
      "velocity": 127,
      "chip": "ym2612"
    },
    {
      "channel": 0,
      "note": 92,
      "start": 1.2222,
      "duration": 0.0011,
      "velocity": 127,
      "chip": "ym2612"
    },
    {
      "channel": 1,
      "note": 0,
      "start": 1.2222,
      "duration": 0.0058,
      "velocity": 109,
      "chip": "ym2612"
    },
    {
      "channel": 0,
      "note": 93,
      "start": 1.2237,
      "duration": 0.0012,
      "velocity": 127,
      "chip": "ym2612"
    },
    {
      "channel": 3,
      "note": 55,
      "start": 1.2253,
      "duration": 0.0026,
      "velocity": 127,
      "chip": "ym2612"
    },
    {
      "channel": 4,
      "note": 2,
      "start": 1.2253,
      "duration": 0.0056,
      "velocity": 109,
      "chip": "ym2612"
    },
    {
      "channel": 0,
      "note": 91,
      "start": 1.2254,
      "duration": 0.0011,
      "velocity": 127,
      "chip": "ym2612"
    },
    {
      "channel": 0,
      "note": 93,
      "start": 1.2268,
      "duration": 0.0011,
      "velocity": 127,
      "chip": "ym2612"
    },
    {
      "channel": 0,
      "note": 92,
      "start": 1.2284,
      "duration": 0.0011,
      "velocity": 127,
      "chip": "ym2612"
    },
    {
      "channel": 3,
      "note": 55,
      "start": 1.2284,
      "duration": 0.0025,
      "velocity": 127,
      "chip": "ym2612"
    },
    {
      "channel": 1,
      "note": 0,
      "start": 1.2284,
      "duration": 0.0062,
      "velocity": 109,
      "chip": "ym2612"
    },
    {
      "channel": 0,
      "note": 94,
      "start": 1.2299,
      "duration": 0.0011,
      "velocity": 127,
      "chip": "ym2612"
    },
    {
      "channel": 3,
      "note": 67,
      "start": 1.2314,
      "duration": 0.0032,
      "velocity": 127,
      "chip": "ym2612"
    },
    {
      "channel": 4,
      "note": 0,
      "start": 1.2314,
      "duration": 0.0061,
      "velocity": 109,
      "chip": "ym2612"
    },
    {
      "channel": 0,
      "note": 92,
      "start": 1.2314,
      "duration": 0.0011,
      "velocity": 127,
      "chip": "ym2612"
    },
    {
      "channel": 0,
      "note": 93,
      "start": 1.2329,
      "duration": 0.0017,
      "velocity": 127,
      "chip": "ym2612"
    },
    {
      "channel": 0,
      "note": 92,
      "start": 1.235,
      "duration": 0.0011,
      "velocity": 127,
      "chip": "ym2612"
    },
    {
      "channel": 1,
      "note": 0,
      "start": 1.235,
      "duration": 0.0057,
      "velocity": 109,
      "chip": "ym2612"
    },
    {
      "channel": 3,
      "note": 67,
      "start": 1.235,
      "duration": 0.0025,
      "velocity": 127,
      "chip": "ym2612"
    },
    {
      "channel": 0,
      "note": 93,
      "start": 1.2364,
      "duration": 0.0011,
      "velocity": 127,
      "chip": "ym2612"
    },
    {
      "channel": 3,
      "note": 55,
      "start": 1.238,
      "duration": 0.0026,
      "velocity": 127,
      "chip": "ym2612"
    },
    {
      "channel": 4,
      "note": 2,
      "start": 1.238,
      "duration": 0.0055,
      "velocity": 109,
      "chip": "ym2612"
    },
    {
      "channel": 0,
      "note": 91,
      "start": 1.238,
      "duration": 0.001,
      "velocity": 127,
      "chip": "ym2612"
    },
    {
      "channel": 0,
      "note": 93,
      "start": 1.2395,
      "duration": 0.0011,
      "velocity": 127,
      "chip": "ym2612"
    },
    {
      "channel": 0,
      "note": 92,
      "start": 1.241,
      "duration": 0.0011,
      "velocity": 127,
      "chip": "ym2612"
    },
    {
      "channel": 3,
      "note": 55,
      "start": 1.241,
      "duration": 0.0025,
      "velocity": 127,
      "chip": "ym2612"
    },
    {
      "channel": 1,
      "note": 0,
      "start": 1.2411,
      "duration": 0.0069,
      "velocity": 109,
      "chip": "ym2612"
    },
    {
      "channel": 0,
      "note": 94,
      "start": 1.2424,
      "duration": 0.001,
      "velocity": 127,
      "chip": "ym2612"
    },
    {
      "channel": 0,
      "note": 92,
      "start": 1.2439,
      "duration": 0.0011,
      "velocity": 127,
      "chip": "ym2612"
    },
    {
      "channel": 3,
      "note": 67,
      "start": 1.2439,
      "duration": 0.0039,
      "velocity": 127,
      "chip": "ym2612"
    },
    {
      "channel": 4,
      "note": 0,
      "start": 1.2439,
      "duration": 0.0068,
      "velocity": 109,
      "chip": "ym2612"
    },
    {
      "channel": 0,
      "note": 93,
      "start": 1.2454,
      "duration": 0.0024,
      "velocity": 127,
      "chip": "ym2612"
    },
    {
      "channel": 0,
      "note": 92,
      "start": 1.2483,
      "duration": 0.0011,
      "velocity": 127,
      "chip": "ym2612"
    },
    {
      "channel": 3,
      "note": 67,
      "start": 1.2483,
      "duration": 0.0025,
      "velocity": 127,
      "chip": "ym2612"
    },
    {
      "channel": 1,
      "note": 0,
      "start": 1.2483,
      "duration": 0.0056,
      "velocity": 109,
      "chip": "ym2612"
    },
    {
      "channel": 0,
      "note": 93,
      "start": 1.2497,
      "duration": 0.0011,
      "velocity": 127,
      "chip": "ym2612"
    },
    {
      "channel": 3,
      "note": 61,
      "start": 1.2512,
      "duration": 0.0026,
      "velocity": 127,
      "chip": "ym2612"
    },
    {
      "channel": 0,
      "note": 91,
      "start": 1.2512,
      "duration": 0.0011,
      "velocity": 127,
      "chip": "ym2612"
    },
    {
      "channel": 4,
      "note": 2,
      "start": 1.2512,
      "duration": 0.0057,
      "velocity": 109,
      "chip": "ym2612"
    },
    {
      "channel": 0,
      "note": 93,
      "start": 1.2527,
      "duration": 0.0012,
      "velocity": 127,
      "chip": "ym2612"
    },
    {
      "channel": 3,
      "note": 61,
      "start": 1.2543,
      "duration": 0.0026,
      "velocity": 127,
      "chip": "ym2612"
    },
    {
      "channel": 0,
      "note": 92,
      "start": 1.2544,
      "duration": 0.0011,
      "velocity": 127,
      "chip": "ym2612"
    },
    {
      "channel": 1,
      "note": 0,
      "start": 1.2544,
      "duration": 0.0069,
      "velocity": 109,
      "chip": "ym2612"
    },
    {
      "channel": 0,
      "note": 94,
      "start": 1.2559,
      "duration": 0.001,
      "velocity": 127,
      "chip": "ym2612"
    },
    {
      "channel": 3,
      "note": 73,
      "start": 1.2586,
      "duration": 0.0025,
      "velocity": 127,
      "chip": "ym2612"
    },
    {
      "channel": 0,
      "note": 92,
      "start": 1.2587,
      "duration": 0.001,
      "velocity": 127,
      "chip": "ym2612"
    },
    {
      "channel": 4,
      "note": 0,
      "start": 1.2587,
      "duration": 0.0057,
      "velocity": 109,
      "chip": "ym2612"
    },
    {
      "channel": 0,
      "note": 93,
      "start": 1.2601,
      "duration": 0.0011,
      "velocity": 127,
      "chip": "ym2612"
    },
    {
      "channel": 0,
      "note": 92,
      "start": 1.2618,
      "duration": 0.0011,
      "velocity": 127,
      "chip": "ym2612"
    },
    {
      "channel": 3,
      "note": 73,
      "start": 1.2618,
      "duration": 0.0026,
      "velocity": 127,
      "chip": "ym2612"
    },
    {
      "channel": 1,
      "note": 0,
      "start": 1.2619,
      "duration": 0.0056,
      "velocity": 109,
      "chip": "ym2612"
    },
    {
      "channel": 0,
      "note": 93,
      "start": 1.2633,
      "duration": 0.0012,
      "velocity": 127,
      "chip": "ym2612"
    },
    {
      "channel": 3,
      "note": 61,
      "start": 1.2649,
      "duration": 0.0025,
      "velocity": 127,
      "chip": "ym2612"
    },
    {
      "channel": 4,
      "note": 2,
      "start": 1.2649,
      "duration": 0.0055,
      "velocity": 109,
      "chip": "ym2612"
    },
    {
      "channel": 0,
      "note": 91,
      "start": 1.2649,
      "duration": 0.001,
      "velocity": 127,
      "chip": "ym2612"
    },
    {
      "channel": 0,
      "note": 93,
      "start": 1.2663,
      "duration": 0.0011,
      "velocity": 127,
      "chip": "ym2612"
    },
    {
      "channel": 0,
      "note": 92,
      "start": 1.2678,
      "duration": 0.0011,
      "velocity": 127,
      "chip": "ym2612"
    },
    {
      "channel": 1,
      "note": 0,
      "start": 1.2678,
      "duration": 0.0057,
      "velocity": 109,
      "chip": "ym2612"
    },
    {
      "channel": 3,
      "note": 61,
      "start": 1.2678,
      "duration": 0.0026,
      "velocity": 127,
      "chip": "ym2612"
    },
    {
      "channel": 0,
      "note": 94,
      "start": 1.2693,
      "duration": 0.0011,
      "velocity": 127,
      "chip": "ym2612"
    },
    {
      "channel": 0,
      "note": 92,
      "start": 1.2709,
      "duration": 0.0011,
      "velocity": 127,
      "chip": "ym2612"
    },
    {
      "channel": 3,
      "note": 73,
      "start": 1.2709,
      "duration": 0.0026,
      "velocity": 127,
      "chip": "ym2612"
    },
    {
      "channel": 4,
      "note": 0,
      "start": 1.2709,
      "duration": 0.0063,
      "velocity": 109,
      "chip": "ym2612"
    },
    {
      "channel": 0,
      "note": 93,
      "start": 1.2723,
      "duration": 0.0011,
      "velocity": 127,
      "chip": "ym2612"
    },
    {
      "channel": 0,
      "note": 92,
      "start": 1.2739,
      "duration": 0.0011,
      "velocity": 127,
      "chip": "ym2612"
    },
    {
      "channel": 3,
      "note": 73,
      "start": 1.2739,
      "duration": 0.0033,
      "velocity": 127,
      "chip": "ym2612"
    },
    {
      "channel": 1,
      "note": 0,
      "start": 1.2739,
      "duration": 0.021,
      "velocity": 109,
      "chip": "ym2612"
    },
    {
      "channel": 0,
      "note": 93,
      "start": 1.2753,
      "duration": 0.0019,
      "velocity": 127,
      "chip": "ym2612"
    },
    {
      "channel": 0,
      "note": 91,
      "start": 1.2799,
      "duration": 0.0064,
      "velocity": 127,
      "chip": "ym2612"
    },
    {
      "channel": 4,
      "note": 2,
      "start": 1.2799,
      "duration": 0.0318,
      "velocity": 109,
      "chip": "ym2612"
    },
    {
      "channel": 3,
      "note": 48,
      "start": 1.282,
      "duration": 0.033,
      "velocity": 127,
      "chip": "ym2612"
    },
    {
      "channel": 0,
      "note": 93,
      "start": 1.2884,
      "duration": 0.0064,
      "velocity": 127,
      "chip": "ym2612"
    },
    {
      "channel": 0,
      "note": 92,
      "start": 1.2969,
      "duration": 0.0078,
      "velocity": 127,
      "chip": "ym2612"
    },
    {
      "channel": 1,
      "note": 0,
      "start": 1.2969,
      "duration": 0.0182,
      "velocity": 109,
      "chip": "ym2612"
    },
    {
      "channel": 0,
      "note": 94,
      "start": 1.3054,
      "duration": 0.0063,
      "velocity": 127,
      "chip": "ym2612"
    },
    {
      "channel": 0,
      "note": 92,
      "start": 1.3121,
      "duration": 0.0015,
      "velocity": 127,
      "chip": "ym2612"
    },
    {
      "channel": 4,
      "note": 0,
      "start": 1.3121,
      "duration": 0.0059,
      "velocity": 109,
      "chip": "ym2612"
    },
    {
      "channel": 0,
      "note": 93,
      "start": 1.3139,
      "duration": 0.0011,
      "velocity": 127,
      "chip": "ym2612"
    },
    {
      "channel": 0,
      "note": 92,
      "start": 1.3154,
      "duration": 0.0011,
      "velocity": 127,
      "chip": "ym2612"
    },
    {
      "channel": 3,
      "note": 48,
      "start": 1.3154,
      "duration": 0.0026,
      "velocity": 127,
      "chip": "ym2612"
    },
    {
      "channel": 1,
      "note": 0,
      "start": 1.3155,
      "duration": 0.019,
      "velocity": 109,
      "chip": "ym2612"
    },
    {
      "channel": 0,
      "note": 93,
      "start": 1.3169,
      "duration": 0.0011,
      "velocity": 127,
      "chip": "ym2612"
    },
    {
      "channel": 3,
      "note": 46,
      "start": 1.3202,
      "duration": 0.0141,
      "velocity": 127,
      "chip": "ym2612"
    },
    {
      "channel": 0,
      "note": 91,
      "start": 1.3203,
      "duration": 0.0059,
      "velocity": 127,
      "chip": "ym2612"
    },
    {
      "channel": 4,
      "note": 2,
      "start": 1.3203,
      "duration": 0.0306,
      "velocity": 109,
      "chip": "ym2612"
    },
    {
      "channel": 0,
      "note": 93,
      "start": 1.3281,
      "duration": 0.0063,
      "velocity": 127,
      "chip": "ym2612"
    },
    {
      "channel": 0,
      "note": 92,
      "start": 1.3366,
      "duration": 0.0061,
      "velocity": 127,
      "chip": "ym2612"
    },
    {
      "channel": 1,
      "note": 0,
      "start": 1.3366,
      "duration": 0.032,
      "velocity": 109,
      "chip": "ym2612"
    },
    {
      "channel": 3,
      "note": 48,
      "start": 1.3366,
      "duration": 0.0431,
      "velocity": 127,
      "chip": "ym2612"
    },
    {
      "channel": 0,
      "note": 94,
      "start": 1.3447,
      "duration": 0.0061,
      "velocity": 127,
      "chip": "ym2612"
    },
    {
      "channel": 0,
      "note": 92,
      "start": 1.3529,
      "duration": 0.0078,
      "velocity": 127,
      "chip": "ym2612"
    },
    {
      "channel": 4,
      "note": 0,
      "start": 1.3529,
      "duration": 0.0268,
      "velocity": 109,
      "chip": "ym2612"
    },
    {
      "channel": 0,
      "note": 93,
      "start": 1.3611,
      "duration": 0.0074,
      "velocity": 127,
      "chip": "ym2612"
    },
    {
      "channel": 0,
      "note": 92,
      "start": 1.3689,
      "duration": 0.0028,
      "velocity": 127,
      "chip": "ym2612"
    },
    {
      "channel": 1,
      "note": 0,
      "start": 1.369,
      "duration": 0.0418,
      "velocity": 109,
      "chip": "ym2612"
    },
    {
      "channel": 0,
      "note": 93,
      "start": 1.372,
      "duration": 0.0076,
      "velocity": 127,
      "chip": "ym2612"
    },
    {
      "channel": 3,
      "note": 46,
      "start": 1.382,
      "duration": 0.0286,
      "velocity": 127,
      "chip": "ym2612"
    },
    {
      "channel": 0,
      "note": 91,
      "start": 1.3821,
      "duration": 0.013,
      "velocity": 127,
      "chip": "ym2612"
    },
    {
      "channel": 4,
      "note": 2,
      "start": 1.3821,
      "duration": 0.0458,
      "velocity": 109,
      "chip": "ym2612"
    },
    {
      "channel": 0,
      "note": 93,
      "start": 1.3989,
      "duration": 0.0118,
      "velocity": 127,
      "chip": "ym2612"
    },
    {
      "channel": 0,
      "note": 92,
      "start": 1.4131,
      "duration": 0.0063,
      "velocity": 127,
      "chip": "ym2612"
    },
    {
      "channel": 1,
      "note": 0,
      "start": 1.4131,
      "duration": 0.0347,
      "velocity": 109,
      "chip": "ym2612"
    },
    {
      "channel": 3,
      "note": 48,
      "start": 1.4131,
      "duration": 0.0148,
      "velocity": 127,
      "chip": "ym2612"
    },
    {
      "channel": 0,
      "note": 94,
      "start": 1.4215,
      "duration": 0.0064,
      "velocity": 127,
      "chip": "ym2612"
    },
    {
      "channel": 3,
      "note": 46,
      "start": 1.4301,
      "duration": 0.0176,
      "velocity": 127,
      "chip": "ym2612"
    },
    {
      "channel": 0,
      "note": 92,
      "start": 1.4301,
      "duration": 0.008,
      "velocity": 127,
      "chip": "ym2612"
    },
    {
      "channel": 4,
      "note": 0,
      "start": 1.4301,
      "duration": 0.0209,
      "velocity": 109,
      "chip": "ym2612"
    },
    {
      "channel": 0,
      "note": 93,
      "start": 1.4385,
      "duration": 0.0092,
      "velocity": 127,
      "chip": "ym2612"
    },
    {
      "channel": 3,
      "note": 51,
      "start": 1.4484,
      "duration": 0.0771,
      "velocity": 127,
      "chip": "ym2612"
    },
    {
      "channel": 0,
      "note": 92,
      "start": 1.4485,
      "duration": 0.0011,
      "velocity": 127,
      "chip": "ym2612"
    },
    {
      "channel": 1,
      "note": 0,
      "start": 1.4485,
      "duration": 0.0191,
      "velocity": 109,
      "chip": "ym2612"
    },
    {
      "channel": 0,
      "note": 93,
      "start": 1.4499,
      "duration": 0.0011,
      "velocity": 127,
      "chip": "ym2612"
    },
    {
      "channel": 0,
      "note": 91,
      "start": 1.4534,
      "duration": 0.0061,
      "velocity": 127,
      "chip": "ym2612"
    },
    {
      "channel": 4,
      "note": 2,
      "start": 1.4534,
      "duration": 0.0321,
      "velocity": 109,
      "chip": "ym2612"
    },
    {
      "channel": 0,
      "note": 93,
      "start": 1.4614,
      "duration": 0.0061,
      "velocity": 127,
      "chip": "ym2612"
    },
    {
      "channel": 0,
      "note": 92,
      "start": 1.4696,
      "duration": 0.0078,
      "velocity": 127,
      "chip": "ym2612"
    },
    {
      "channel": 1,
      "note": 0,
      "start": 1.4696,
      "duration": 0.039,
      "velocity": 109,
      "chip": "ym2612"
    },
    {
      "channel": 0,
      "note": 94,
      "start": 1.4778,
      "duration": 0.0076,
      "velocity": 127,
      "chip": "ym2612"
    },
    {
      "channel": 0,
      "note": 92,
      "start": 1.4877,
      "duration": 0.0115,
      "velocity": 127,
      "chip": "ym2612"
    },
    {
      "channel": 4,
      "note": 0,
      "start": 1.4877,
      "duration": 0.0379,
      "velocity": 109,
      "chip": "ym2612"
    },
    {
      "channel": 0,
      "note": 93,
      "start": 1.5012,
      "duration": 0.0073,
      "velocity": 127,
      "chip": "ym2612"
    },
    {
      "channel": 0,
      "note": 92,
      "start": 1.5108,
      "duration": 0.0063,
      "velocity": 127,
      "chip": "ym2612"
    },
    {
      "channel": 1,
      "note": 0,
      "start": 1.5108,
      "duration": 0.0185,
      "velocity": 109,
      "chip": "ym2612"
    },
    {
      "channel": 0,
      "note": 93,
      "start": 1.5192,
      "duration": 0.0063,
      "velocity": 127,
      "chip": "ym2612"
    },
    {
      "channel": 4,
      "note": 2,
      "start": 1.5266,
      "duration": 0.0056,
      "velocity": 109,
      "chip": "ym2612"
    },
    {
      "channel": 0,
      "note": 91,
      "start": 1.5266,
      "duration": 0.0011,
      "velocity": 127,
      "chip": "ym2612"
    },
    {
      "channel": 2,
      "note": 54,
      "start": 1.5267,
      "duration": 0.0562,
      "velocity": 117,
      "chip": "ym2612"
    },
    {
      "channel": 3,
      "note": 54,
      "start": 1.527,
      "duration": 0.0558,
      "velocity": 127,
      "chip": "ym2612"
    },
    {
      "channel": 0,
      "note": 93,
      "start": 1.5281,
      "duration": 0.0011,
      "velocity": 127,
      "chip": "ym2612"
    },
    {
      "channel": 0,
      "note": 92,
      "start": 1.5297,
      "duration": 0.0011,
      "velocity": 127,
      "chip": "ym2612"
    },
    {
      "channel": 1,
      "note": 0,
      "start": 1.5297,
      "duration": 0.0103,
      "velocity": 109,
      "chip": "ym2612"
    },
    {
      "channel": 0,
      "note": 94,
      "start": 1.5311,
      "duration": 0.0011,
      "velocity": 127,
      "chip": "ym2612"
    },
    {
      "channel": 0,
      "note": 92,
      "start": 1.5331,
      "duration": 0.0021,
      "velocity": 127,
      "chip": "ym2612"
    },
    {
      "channel": 4,
      "note": 0,
      "start": 1.5331,
      "duration": 0.0097,
      "velocity": 109,
      "chip": "ym2612"
    },
    {
      "channel": 0,
      "note": 93,
      "start": 1.5378,
      "duration": 0.002,
      "velocity": 127,
      "chip": "ym2612"
    },
    {
      "channel": 0,
      "note": 92,
      "start": 1.5402,
      "duration": 0.0011,
      "velocity": 127,
      "chip": "ym2612"
    },
    {
      "channel": 1,
      "note": 0,
      "start": 1.5402,
      "duration": 0.0055,
      "velocity": 109,
      "chip": "ym2612"
    },
    {
      "channel": 0,
      "note": 93,
      "start": 1.5417,
      "duration": 0.0011,
      "velocity": 127,
      "chip": "ym2612"
    },
    {
      "channel": 0,
      "note": 91,
      "start": 1.5432,
      "duration": 0.0011,
      "velocity": 127,
      "chip": "ym2612"
    },
    {
      "channel": 4,
      "note": 2,
      "start": 1.5432,
      "duration": 0.0055,
      "velocity": 109,
      "chip": "ym2612"
    },
    {
      "channel": 0,
      "note": 93,
      "start": 1.5446,
      "duration": 0.0011,
      "velocity": 127,
      "chip": "ym2612"
    },
    {
      "channel": 0,
      "note": 92,
      "start": 1.5461,
      "duration": 0.0011,
      "velocity": 127,
      "chip": "ym2612"
    },
    {
      "channel": 1,
      "note": 0,
      "start": 1.5461,
      "duration": 0.0085,
      "velocity": 109,
      "chip": "ym2612"
    },
    {
      "channel": 0,
      "note": 94,
      "start": 1.5476,
      "duration": 0.0011,
      "velocity": 127,
      "chip": "ym2612"
    },
    {
      "channel": 0,
      "note": 92,
      "start": 1.549,
      "duration": 0.0033,
      "velocity": 127,
      "chip": "ym2612"
    },
    {
      "channel": 4,
      "note": 0,
      "start": 1.549,
      "duration": 0.0084,
      "velocity": 109,
      "chip": "ym2612"
    },
    {
      "channel": 0,
      "note": 93,
      "start": 1.5534,
      "duration": 0.0011,
      "velocity": 127,
      "chip": "ym2612"
    },
    {
      "channel": 0,
      "note": 92,
      "start": 1.5549,
      "duration": 0.0011,
      "velocity": 127,
      "chip": "ym2612"
    },
    {
      "channel": 1,
      "note": 0,
      "start": 1.5549,
      "duration": 0.0056,
      "velocity": 109,
      "chip": "ym2612"
    },
    {
      "channel": 0,
      "note": 93,
      "start": 1.5563,
      "duration": 0.0011,
      "velocity": 127,
      "chip": "ym2612"
    },
    {
      "channel": 0,
      "note": 91,
      "start": 1.5578,
      "duration": 0.0011,
      "velocity": 127,
      "chip": "ym2612"
    },
    {
      "channel": 4,
      "note": 2,
      "start": 1.5578,
      "duration": 0.0055,
      "velocity": 109,
      "chip": "ym2612"
    },
    {
      "channel": 0,
      "note": 93,
      "start": 1.5593,
      "duration": 0.0011,
      "velocity": 127,
      "chip": "ym2612"
    },
    {
      "channel": 0,
      "note": 92,
      "start": 1.5607,
      "duration": 0.0011,
      "velocity": 127,
      "chip": "ym2612"
    },
    {
      "channel": 1,
      "note": 0,
      "start": 1.5607,
      "duration": 0.0068,
      "velocity": 109,
      "chip": "ym2612"
    },
    {
      "channel": 0,
      "note": 94,
      "start": 1.5622,
      "duration": 0.0011,
      "velocity": 127,
      "chip": "ym2612"
    },
    {
      "channel": 0,
      "note": 92,
      "start": 1.565,
      "duration": 0.0011,
      "velocity": 127,
      "chip": "ym2612"
    },
    {
      "channel": 4,
      "note": 0,
      "start": 1.565,
      "duration": 0.0054,
      "velocity": 109,
      "chip": "ym2612"
    },
    {
      "channel": 0,
      "note": 93,
      "start": 1.5664,
      "duration": 0.0011,
      "velocity": 127,
      "chip": "ym2612"
    },
    {
      "channel": 0,
      "note": 92,
      "start": 1.5679,
      "duration": 0.0011,
      "velocity": 127,
      "chip": "ym2612"
    },
    {
      "channel": 1,
      "note": 0,
      "start": 1.5679,
      "duration": 0.0054,
      "velocity": 109,
      "chip": "ym2612"
    },
    {
      "channel": 0,
      "note": 93,
      "start": 1.5693,
      "duration": 0.001,
      "velocity": 127,
      "chip": "ym2612"
    },
    {
      "channel": 0,
      "note": 91,
      "start": 1.5708,
      "duration": 0.0011,
      "velocity": 127,
      "chip": "ym2612"
    },
    {
      "channel": 4,
      "note": 2,
      "start": 1.5708,
      "duration": 0.0054,
      "velocity": 109,
      "chip": "ym2612"
    },
    {
      "channel": 0,
      "note": 93,
      "start": 1.5722,
      "duration": 0.001,
      "velocity": 127,
      "chip": "ym2612"
    },
    {
      "channel": 0,
      "note": 92,
      "start": 1.5737,
      "duration": 0.0011,
      "velocity": 127,
      "chip": "ym2612"
    },
    {
      "channel": 1,
      "note": 0,
      "start": 1.5737,
      "duration": 0.0056,
      "velocity": 109,
      "chip": "ym2612"
    },
    {
      "channel": 0,
      "note": 94,
      "start": 1.5752,
      "duration": 0.0011,
      "velocity": 127,
      "chip": "ym2612"
    },
    {
      "channel": 0,
      "note": 92,
      "start": 1.5766,
      "duration": 0.0011,
      "velocity": 127,
      "chip": "ym2612"
    },
    {
      "channel": 4,
      "note": 0,
      "start": 1.5766,
      "duration": 0.0062,
      "velocity": 109,
      "chip": "ym2612"
    },
    {
      "channel": 0,
      "note": 93,
      "start": 1.5781,
      "duration": 0.0011,
      "velocity": 127,
      "chip": "ym2612"
    },
    {
      "channel": 0,
      "note": 92,
      "start": 1.5796,
      "duration": 0.0011,
      "velocity": 127,
      "chip": "ym2612"
    },
    {
      "channel": 1,
      "note": 0,
      "start": 1.5796,
      "duration": 0.021,
      "velocity": 109,
      "chip": "ym2612"
    },
    {
      "channel": 0,
      "note": 93,
      "start": 1.5811,
      "duration": 0.0017,
      "velocity": 127,
      "chip": "ym2612"
    },
    {
      "channel": 0,
      "note": 91,
      "start": 1.5863,
      "duration": 0.0063,
      "velocity": 127,
      "chip": "ym2612"
    },
    {
      "channel": 4,
      "note": 2,
      "start": 1.5863,
      "duration": 0.0321,
      "velocity": 109,
      "chip": "ym2612"
    },
    {
      "channel": 3,
      "note": 55,
      "start": 1.5879,
      "duration": 0.0127,
      "velocity": 127,
      "chip": "ym2612"
    },
    {
      "channel": 2,
      "note": 72,
      "start": 1.588,
      "duration": 0.3368,
      "velocity": 112,
      "chip": "ym2612"
    },
    {
      "channel": 0,
      "note": 93,
      "start": 1.5945,
      "duration": 0.0061,
      "velocity": 127,
      "chip": "ym2612"
    },
    {
      "channel": 3,
      "note": 55,
      "start": 1.6027,
      "duration": 0.0156,
      "velocity": 127,
      "chip": "ym2612"
    },
    {
      "channel": 0,
      "note": 92,
      "start": 1.6028,
      "duration": 0.0066,
      "velocity": 127,
      "chip": "ym2612"
    },
    {
      "channel": 1,
      "note": 0,
      "start": 1.6028,
      "duration": 0.02,
      "velocity": 109,
      "chip": "ym2612"
    },
    {
      "channel": 0,
      "note": 94,
      "start": 1.6109,
      "duration": 0.0075,
      "velocity": 127,
      "chip": "ym2612"
    },
    {
      "channel": 0,
      "note": 92,
      "start": 1.62,
      "duration": 0.0011,
      "velocity": 127,
      "chip": "ym2612"
    },
    {
      "channel": 3,
      "note": 67,
      "start": 1.62,
      "duration": 0.0026,
      "velocity": 127,
      "chip": "ym2612"
    },
    {
      "channel": 4,
      "note": 0,
      "start": 1.62,
      "duration": 0.0056,
      "velocity": 109,
      "chip": "ym2612"
    },
    {
      "channel": 0,
      "note": 93,
      "start": 1.6215,
      "duration": 0.0011,
      "velocity": 127,
      "chip": "ym2612"
    },
    {
      "channel": 0,
      "note": 92,
      "start": 1.6231,
      "duration": 0.0011,
      "velocity": 127,
      "chip": "ym2612"
    },
    {
      "channel": 1,
      "note": 0,
      "start": 1.6231,
      "duration": 0.0201,
      "velocity": 109,
      "chip": "ym2612"
    },
    {
      "channel": 3,
      "note": 67,
      "start": 1.6231,
      "duration": 0.0026,
      "velocity": 127,
      "chip": "ym2612"
    },
    {
      "channel": 0,
      "note": 93,
      "start": 1.6246,
      "duration": 0.0012,
      "velocity": 127,
      "chip": "ym2612"
    },
    {
      "channel": 3,
      "note": 55,
      "start": 1.628,
      "duration": 0.0151,
      "velocity": 127,
      "chip": "ym2612"
    },
    {
      "channel": 0,
      "note": 91,
      "start": 1.628,
      "duration": 0.0062,
      "velocity": 127,
      "chip": "ym2612"
    },
    {
      "channel": 4,
      "note": 2,
      "start": 1.628,
      "duration": 0.0314,
      "velocity": 109,
      "chip": "ym2612"
    },
    {
      "channel": 0,
      "note": 93,
      "start": 1.6363,
      "duration": 0.0067,
      "velocity": 127,
      "chip": "ym2612"
    },
    {
      "channel": 3,
      "note": 55,
      "start": 1.6453,
      "duration": 0.0141,
      "velocity": 127,
      "chip": "ym2612"
    },
    {
      "channel": 0,
      "note": 92,
      "start": 1.6453,
      "duration": 0.006,
      "velocity": 127,
      "chip": "ym2612"
    },
    {
      "channel": 1,
      "note": 0,
      "start": 1.6453,
      "duration": 0.0319,
      "velocity": 109,
      "chip": "ym2612"
    },
    {
      "channel": 0,
      "note": 94,
      "start": 1.6533,
      "duration": 0.0062,
      "velocity": 127,
      "chip": "ym2612"
    },
    {
      "channel": 3,
      "note": 67,
      "start": 1.6615,
      "duration": 0.0156,
      "velocity": 127,
      "chip": "ym2612"
    },
    {
      "channel": 4,
      "note": 0,
      "start": 1.6615,
      "duration": 0.0284,
      "velocity": 109,
      "chip": "ym2612"
    },
    {
      "channel": 0,
      "note": 92,
      "start": 1.6616,
      "duration": 0.0077,
      "velocity": 127,
      "chip": "ym2612"
    },
    {
      "channel": 0,
      "note": 93,
      "start": 1.6696,
      "duration": 0.0075,
      "velocity": 127,
      "chip": "ym2612"
    },
    {
      "channel": 0,
      "note": 92,
      "start": 1.6776,
      "duration": 0.0029,
      "velocity": 127,
      "chip": "ym2612"
    },
    {
      "channel": 1,
      "note": 0,
      "start": 1.6776,
      "duration": 0.0429,
      "velocity": 109,
      "chip": "ym2612"
    },
    {
      "channel": 3,
      "note": 67,
      "start": 1.6776,
      "duration": 0.0124,
      "velocity": 127,
      "chip": "ym2612"
    },
    {
      "channel": 0,
      "note": 93,
      "start": 1.6808,
      "duration": 0.0093,
      "velocity": 127,
      "chip": "ym2612"
    },
    {
      "channel": 3,
      "note": 56,
      "start": 1.6923,
      "duration": 0.028,
      "velocity": 127,
      "chip": "ym2612"
    },
    {
      "channel": 0,
      "note": 91,
      "start": 1.6924,
      "duration": 0.0124,
      "velocity": 127,
      "chip": "ym2612"
    },
    {
      "channel": 4,
      "note": 2,
      "start": 1.6924,
      "duration": 0.045,
      "velocity": 109,
      "chip": "ym2612"
    },
    {
      "channel": 0,
      "note": 93,
      "start": 1.7086,
      "duration": 0.0117,
      "velocity": 127,
      "chip": "ym2612"
    },
    {
      "channel": 3,
      "note": 56,
      "start": 1.7227,
      "duration": 0.0146,
      "velocity": 127,
      "chip": "ym2612"
    },
    {
      "channel": 0,
      "note": 92,
      "start": 1.7228,
      "duration": 0.0062,
      "velocity": 127,
      "chip": "ym2612"
    },
    {
      "channel": 1,
      "note": 0,
      "start": 1.7228,
      "duration": 0.0299,
      "velocity": 109,
      "chip": "ym2612"
    },
    {
      "channel": 0,
      "note": 94,
      "start": 1.7311,
      "duration": 0.0063,
      "velocity": 127,
      "chip": "ym2612"
    },
    {
      "channel": 3,
      "note": 68,
      "start": 1.7396,
      "duration": 0.013,
      "velocity": 127,
      "chip": "ym2612"
    },
    {
      "channel": 4,
      "note": 0,
      "start": 1.7396,
      "duration": 0.0177,
      "velocity": 109,
      "chip": "ym2612"
    },
    {
      "channel": 0,
      "note": 92,
      "start": 1.7397,
      "duration": 0.008,
      "velocity": 127,
      "chip": "ym2612"
    },
    {
      "channel": 0,
      "note": 93,
      "start": 1.748,
      "duration": 0.0046,
      "velocity": 127,
      "chip": "ym2612"
    },
    {
      "channel": 0,
      "note": 92,
      "start": 1.7531,
      "duration": 0.0027,
      "velocity": 127,
      "chip": "ym2612"
    },
    {
      "channel": 1,
      "note": 0,
      "start": 1.7531,
      "duration": 0.0346,
      "velocity": 109,
      "chip": "ym2612"
    },
    {
      "channel": 3,
      "note": 68,
      "start": 1.7531,
      "duration": 0.0042,
      "velocity": 127,
      "chip": "ym2612"
    },
    {
      "channel": 0,
      "note": 93,
      "start": 1.7561,
      "duration": 0.0011,
      "velocity": 127,
      "chip": "ym2612"
    },
    {
      "channel": 0,
      "note": 91,
      "start": 1.7595,
      "duration": 0.013,
      "velocity": 127,
      "chip": "ym2612"
    },
    {
      "channel": 3,
      "note": 56,
      "start": 1.7595,
      "duration": 0.028,
      "velocity": 127,
      "chip": "ym2612"
    },
    {
      "channel": 4,
      "note": 2,
      "start": 1.7595,
      "duration": 0.0476,
      "velocity": 109,
      "chip": "ym2612"
    },
    {
      "channel": 0,
      "note": 93,
      "start": 1.7763,
      "duration": 0.0113,
      "velocity": 127,
      "chip": "ym2612"
    },
    {
      "channel": 0,
      "note": 92,
      "start": 1.7897,
      "duration": 0.0078,
      "velocity": 127,
      "chip": "ym2612"
    },
    {
      "channel": 3,
      "note": 56,
      "start": 1.7897,
      "duration": 0.0174,
      "velocity": 127,
      "chip": "ym2612"
    },
    {
      "channel": 1,
      "note": 0,
      "start": 1.7897,
      "duration": 0.0351,
      "velocity": 109,
      "chip": "ym2612"
    },
    {
      "channel": 0,
      "note": 94,
      "start": 1.7978,
      "duration": 0.0093,
      "velocity": 127,
      "chip": "ym2612"
    },
    {
      "channel": 0,
      "note": 92,
      "start": 1.8095,
      "duration": 0.0063,
      "velocity": 127,
      "chip": "ym2612"
    },
    {
      "channel": 3,
      "note": 68,
      "start": 1.8095,
      "duration": 0.0152,
      "velocity": 127,
      "chip": "ym2612"
    },
    {
      "channel": 4,
      "note": 0,
      "start": 1.8095,
      "duration": 0.0316,
      "velocity": 109,
      "chip": "ym2612"
    },
    {
      "channel": 0,
      "note": 93,
      "start": 1.8178,
      "duration": 0.0069,
      "velocity": 127,
      "chip": "ym2612"
    },
    {
      "channel": 0,
      "note": 92,
      "start": 1.827,
      "duration": 0.0059,
      "velocity": 127,
      "chip": "ym2612"
    },
    {
      "channel": 3,
      "note": 68,
      "start": 1.827,
      "duration": 0.0141,
      "velocity": 127,
      "chip": "ym2612"
    },
    {
      "channel": 1,
      "note": 0,
      "start": 1.8271,
      "duration": 0.0311,
      "velocity": 109,
      "chip": "ym2612"
    },
    {
      "channel": 0,
      "note": 93,
      "start": 1.8349,
      "duration": 0.0062,
      "velocity": 127,
      "chip": "ym2612"
    },
    {
      "channel": 3,
      "note": 55,
      "start": 1.8437,
      "duration": 0.0144,
      "velocity": 127,
      "chip": "ym2612"
    },
    {
      "channel": 4,
      "note": 2,
      "start": 1.8437,
      "duration": 0.0322,
      "velocity": 109,
      "chip": "ym2612"
    },
    {
      "channel": 0,
      "note": 91,
      "start": 1.8438,
      "duration": 0.0061,
      "velocity": 127,
      "chip": "ym2612"
    },
    {
      "channel": 0,
      "note": 93,
      "start": 1.8519,
      "duration": 0.0063,
      "velocity": 127,
      "chip": "ym2612"
    },
    {
      "channel": 0,
      "note": 92,
      "start": 1.8602,
      "duration": 0.0078,
      "velocity": 127,
      "chip": "ym2612"
    },
    {
      "channel": 3,
      "note": 55,
      "start": 1.8602,
      "duration": 0.0157,
      "velocity": 127,
      "chip": "ym2612"
    },
    {
      "channel": 1,
      "note": 0,
      "start": 1.8603,
      "duration": 0.0198,
      "velocity": 109,
      "chip": "ym2612"
    },
    {
      "channel": 0,
      "note": 94,
      "start": 1.8684,
      "duration": 0.0076,
      "velocity": 127,
      "chip": "ym2612"
    },
    {
      "channel": 0,
      "note": 92,
      "start": 1.8774,
      "duration": 0.0011,
      "velocity": 127,
      "chip": "ym2612"
    },
    {
      "channel": 3,
      "note": 67,
      "start": 1.8774,
      "duration": 0.0025,
      "velocity": 127,
      "chip": "ym2612"
    },
    {
      "channel": 4,
      "note": 0,
      "start": 1.8774,
      "duration": 0.0055,
      "velocity": 109,
      "chip": "ym2612"
    },
    {
      "channel": 0,
      "note": 93,
      "start": 1.8789,
      "duration": 0.001,
      "velocity": 127,
      "chip": "ym2612"
    },
    {
      "channel": 0,
      "note": 92,
      "start": 1.8804,
      "duration": 0.0011,
      "velocity": 127,
      "chip": "ym2612"
    },
    {
      "channel": 3,
      "note": 67,
      "start": 1.8804,
      "duration": 0.0025,
      "velocity": 127,
      "chip": "ym2612"
    },
    {
      "channel": 1,
      "note": 0,
      "start": 1.8804,
      "duration": 0.019,
      "velocity": 109,
      "chip": "ym2612"
    },
    {
      "channel": 0,
      "note": 93,
      "start": 1.8818,
      "duration": 0.001,
      "velocity": 127,
      "chip": "ym2612"
    },
    {
      "channel": 3,
      "note": 55,
      "start": 1.8852,
      "duration": 0.0141,
      "velocity": 127,
      "chip": "ym2612"
    },
    {
      "channel": 4,
      "note": 2,
      "start": 1.8852,
      "duration": 0.0314,
      "velocity": 109,
      "chip": "ym2612"
    },
    {
      "channel": 0,
      "note": 91,
      "start": 1.8852,
      "duration": 0.0059,
      "velocity": 127,
      "chip": "ym2612"
    },
    {
      "channel": 0,
      "note": 93,
      "start": 1.8931,
      "duration": 0.0062,
      "velocity": 127,
      "chip": "ym2612"
    },
    {
      "channel": 0,
      "note": 92,
      "start": 1.9017,
      "duration": 0.0063,
      "velocity": 127,
      "chip": "ym2612"
    },
    {
      "channel": 1,
      "note": 0,
      "start": 1.9017,
      "duration": 0.0331,
      "velocity": 109,
      "chip": "ym2612"
    },
    {
      "channel": 3,
      "note": 55,
      "start": 1.9017,
      "duration": 0.0149,
      "velocity": 127,
      "chip": "ym2612"
    },
    {
      "channel": 0,
      "note": 94,
      "start": 1.9101,
      "duration": 0.0065,
      "velocity": 127,
      "chip": "ym2612"
    },
    {
      "channel": 3,
      "note": 67,
      "start": 1.9188,
      "duration": 0.016,
      "velocity": 127,
      "chip": "ym2612"
    },
    {
      "channel": 4,
      "note": 0,
      "start": 1.9188,
      "duration": 0.0277,
      "velocity": 109,
      "chip": "ym2612"
    },
    {
      "channel": 0,
      "note": 92,
      "start": 1.9188,
      "duration": 0.008,
      "velocity": 127,
      "chip": "ym2612"
    },
    {
      "channel": 2,
      "note": 91,
      "start": 1.9269,
      "duration": 0.5253,
      "velocity": 112,
      "chip": "ym2612"
    },
    {
      "channel": 0,
      "note": 93,
      "start": 1.9273,
      "duration": 0.0075,
      "velocity": 127,
      "chip": "ym2612"
    },
    {
      "channel": 0,
      "note": 92,
      "start": 1.9352,
      "duration": 0.0046,
      "velocity": 127,
      "chip": "ym2612"
    },
    {
      "channel": 1,
      "note": 0,
      "start": 1.9352,
      "duration": 0.034,
      "velocity": 109,
      "chip": "ym2612"
    },
    {
      "channel": 3,
      "note": 67,
      "start": 1.9352,
      "duration": 0.0113,
      "velocity": 127,
      "chip": "ym2612"
    },
    {
      "channel": 0,
      "note": 93,
      "start": 1.9402,
      "duration": 0.0064,
      "velocity": 127,
      "chip": "ym2612"
    },
    {
      "channel": 0,
      "note": 91,
      "start": 1.9488,
      "duration": 0.0065,
      "velocity": 127,
      "chip": "ym2612"
    },
    {
      "channel": 3,
      "note": 61,
      "start": 1.9488,
      "duration": 0.0203,
      "velocity": 127,
      "chip": "ym2612"
    },
    {
      "channel": 4,
      "note": 2,
      "start": 1.9488,
      "duration": 0.0378,
      "velocity": 109,
      "chip": "ym2612"
    },
    {
      "channel": 0,
      "note": 93,
      "start": 1.9574,
      "duration": 0.0117,
      "velocity": 127,
      "chip": "ym2612"
    },
    {
      "channel": 3,
      "note": 61,
      "start": 1.9716,
      "duration": 0.0151,
      "velocity": 127,
      "chip": "ym2612"
    },
    {
      "channel": 0,
      "note": 92,
      "start": 1.9716,
      "duration": 0.0063,
      "velocity": 127,
      "chip": "ym2612"
    },
    {
      "channel": 1,
      "note": 0,
      "start": 1.9716,
      "duration": 0.033,
      "velocity": 109,
      "chip": "ym2612"
    },
    {
      "channel": 0,
      "note": 94,
      "start": 1.98,
      "duration": 0.0067,
      "velocity": 127,
      "chip": "ym2612"
    },
    {
      "channel": 3,
      "note": 73,
      "start": 1.9886,
      "duration": 0.016,
      "velocity": 127,
      "chip": "ym2612"
    },
    {
      "channel": 4,
      "note": 0,
      "start": 1.9886,
      "duration": 0.0191,
      "velocity": 109,
      "chip": "ym2612"
    },
    {
      "channel": 0,
      "note": 92,
      "start": 1.9886,
      "duration": 0.008,
      "velocity": 127,
      "chip": "ym2612"
    },
    {
      "channel": 0,
      "note": 93,
      "start": 1.997,
      "duration": 0.0076,
      "velocity": 127,
      "chip": "ym2612"
    },
    {
      "channel": 3,
      "note": 73,
      "start": 2.005,
      "duration": 0.0027,
      "velocity": 127,
      "chip": "ym2612"
    },
    {
      "channel": 0,
      "note": 92,
      "start": 2.0051,
      "duration": 0.0011,
      "velocity": 127,
      "chip": "ym2612"
    },
    {
      "channel": 1,
      "note": 0,
      "start": 2.0051,
      "duration": 0.0195,
      "velocity": 109,
      "chip": "ym2612"
    },
    {
      "channel": 0,
      "note": 93,
      "start": 2.0065,
      "duration": 0.0012,
      "velocity": 127,
      "chip": "ym2612"
    },
    {
      "channel": 3,
      "note": 61,
      "start": 2.01,
      "duration": 0.0145,
      "velocity": 127,
      "chip": "ym2612"
    },
    {
      "channel": 0,
      "note": 91,
      "start": 2.01,
      "duration": 0.0063,
      "velocity": 127,
      "chip": "ym2612"
    },
    {
      "channel": 4,
      "note": 2,
      "start": 2.01,
      "duration": 0.0338,
      "velocity": 109,
      "chip": "ym2612"
    },
    {
      "channel": 0,
      "note": 93,
      "start": 2.0184,
      "duration": 0.0061,
      "velocity": 127,
      "chip": "ym2612"
    },
    {
      "channel": 3,
      "note": 61,
      "start": 2.0266,
      "duration": 0.0172,
      "velocity": 127,
      "chip": "ym2612"
    },
    {
      "channel": 0,
      "note": 92,
      "start": 2.0266,
      "duration": 0.0077,
      "velocity": 127,
      "chip": "ym2612"
    },
    {
      "channel": 1,
      "note": 0,
      "start": 2.0266,
      "duration": 0.0398,
      "velocity": 109,
      "chip": "ym2612"
    },
    {
      "channel": 0,
      "note": 94,
      "start": 2.0346,
      "duration": 0.0092,
      "velocity": 127,
      "chip": "ym2612"
    },
    {
      "channel": 3,
      "note": 73,
      "start": 2.0461,
      "duration": 0.0202,
      "velocity": 127,
      "chip": "ym2612"
    },
    {
      "channel": 0,
      "note": 92,
      "start": 2.0462,
      "duration": 0.0113,
      "velocity": 127,
      "chip": "ym2612"
    },
    {
      "channel": 4,
      "note": 0,
      "start": 2.0462,
      "duration": 0.0881,
      "velocity": 109,
      "chip": "ym2612"
    },
    {
      "channel": 0,
      "note": 93,
      "start": 2.0595,
      "duration": 0.0068,
      "velocity": 127,
      "chip": "ym2612"
    },
    {
      "channel": 0,
      "note": 92,
      "start": 2.0688,
      "duration": 0.0063,
      "velocity": 127,
      "chip": "ym2612"
    },
    {
      "channel": 3,
      "note": 73,
      "start": 2.0688,
      "duration": 0.4097,
      "velocity": 127,
      "chip": "ym2612"
    },
    {
      "channel": 1,
      "note": 0,
      "start": 2.0688,
      "duration": 0.0841,
      "velocity": 109,
      "chip": "ym2612"
    },
    {
      "channel": 0,
      "note": 93,
      "start": 2.0771,
      "duration": 0.0064,
      "velocity": 127,
      "chip": "ym2612"
    },
    {
      "channel": 0,
      "note": 91,
      "start": 2.0838,
      "duration": 0.0011,
      "velocity": 127,
      "chip": "ym2612"
    },
    {
      "channel": 0,
      "note": 93,
      "start": 2.0853,
      "duration": 0.0011,
      "velocity": 127,
      "chip": "ym2612"
    },
    {
      "channel": 0,
      "note": 92,
      "start": 2.0868,
      "duration": 0.0011,
      "velocity": 127,
      "chip": "ym2612"
    },
    {
      "channel": 0,
      "note": 94,
      "start": 2.0883,
      "duration": 0.0011,
      "velocity": 127,
      "chip": "ym2612"
    },
    {
      "channel": 0,
      "note": 92,
      "start": 2.0898,
      "duration": 0.0011,
      "velocity": 127,
      "chip": "ym2612"
    },
    {
      "channel": 0,
      "note": 93,
      "start": 2.0913,
      "duration": 0.0011,
      "velocity": 127,
      "chip": "ym2612"
    },
    {
      "channel": 0,
      "note": 92,
      "start": 2.0928,
      "duration": 0.0011,
      "velocity": 127,
      "chip": "ym2612"
    },
    {
      "channel": 0,
      "note": 93,
      "start": 2.0943,
      "duration": 0.0011,
      "velocity": 127,
      "chip": "ym2612"
    },
    {
      "channel": 0,
      "note": 91,
      "start": 2.0957,
      "duration": 0.0011,
      "velocity": 127,
      "chip": "ym2612"
    },
    {
      "channel": 0,
      "note": 93,
      "start": 2.0971,
      "duration": 0.0011,
      "velocity": 127,
      "chip": "ym2612"
    },
    {
      "channel": 0,
      "note": 92,
      "start": 2.0985,
      "duration": 0.0011,
      "velocity": 127,
      "chip": "ym2612"
    },
    {
      "channel": 0,
      "note": 94,
      "start": 2.1,
      "duration": 0.0011,
      "velocity": 127,
      "chip": "ym2612"
    },
    {
      "channel": 0,
      "note": 92,
      "start": 2.1015,
      "duration": 0.0011,
      "velocity": 127,
      "chip": "ym2612"
    },
    {
      "channel": 0,
      "note": 93,
      "start": 2.103,
      "duration": 0.0011,
      "velocity": 127,
      "chip": "ym2612"
    },
    {
      "channel": 0,
      "note": 92,
      "start": 2.1044,
      "duration": 0.0011,
      "velocity": 127,
      "chip": "ym2612"
    },
    {
      "channel": 0,
      "note": 93,
      "start": 2.1059,
      "duration": 0.0061,
      "velocity": 127,
      "chip": "ym2612"
    },
    {
      "channel": 0,
      "note": 91,
      "start": 2.1144,
      "duration": 0.0063,
      "velocity": 127,
      "chip": "ym2612"
    },
    {
      "channel": 0,
      "note": 93,
      "start": 2.1228,
      "duration": 0.0069,
      "velocity": 127,
      "chip": "ym2612"
    },
    {
      "channel": 0,
      "note": 92,
      "start": 2.132,
      "duration": 0.0064,
      "velocity": 127,
      "chip": "ym2612"
    },
    {
      "channel": 0,
      "note": 94,
      "start": 2.1404,
      "duration": 0.0065,
      "velocity": 127,
      "chip": "ym2612"
    },
    {
      "channel": 0,
      "note": 92,
      "start": 2.149,
      "duration": 0.008,
      "velocity": 127,
      "chip": "ym2612"
    },
    {
      "channel": 0,
      "note": 93,
      "start": 2.1576,
      "duration": 0.0075,
      "velocity": 127,
      "chip": "ym2612"
    },
    {
      "channel": 0,
      "note": 92,
      "start": 2.1654,
      "duration": 0.0026,
      "velocity": 127,
      "chip": "ym2612"
    },
    {
      "channel": 0,
      "note": 93,
      "start": 2.1684,
      "duration": 0.0014,
      "velocity": 127,
      "chip": "ym2612"
    },
    {
      "channel": 0,
      "note": 91,
      "start": 2.1718,
      "duration": 0.0061,
      "velocity": 127,
      "chip": "ym2612"
    },
    {
      "channel": 0,
      "note": 93,
      "start": 2.1798,
      "duration": 0.0061,
      "velocity": 127,
      "chip": "ym2612"
    },
    {
      "channel": 0,
      "note": 92,
      "start": 2.188,
      "duration": 0.0077,
      "velocity": 127,
      "chip": "ym2612"
    },
    {
      "channel": 0,
      "note": 94,
      "start": 2.1963,
      "duration": 0.0073,
      "velocity": 127,
      "chip": "ym2612"
    },
    {
      "channel": 0,
      "note": 92,
      "start": 2.2059,
      "duration": 0.0063,
      "velocity": 127,
      "chip": "ym2612"
    },
    {
      "channel": 0,
      "note": 93,
      "start": 2.2143,
      "duration": 0.0071,
      "velocity": 127,
      "chip": "ym2612"
    },
    {
      "channel": 0,
      "note": 92,
      "start": 2.2236,
      "duration": 0.013,
      "velocity": 127,
      "chip": "ym2612"
    },
    {
      "channel": 0,
      "note": 93,
      "start": 2.2403,
      "duration": 0.0119,
      "velocity": 127,
      "chip": "ym2612"
    },
    {
      "channel": 0,
      "note": 91,
      "start": 2.2527,
      "duration": 0.0011,
      "velocity": 127,
      "chip": "ym2612"
    },
    {
      "channel": 0,
      "note": 93,
      "start": 2.2541,
      "duration": 0.0011,
      "velocity": 127,
      "chip": "ym2612"
    },
    {
      "channel": 0,
      "note": 92,
      "start": 2.2555,
      "duration": 0.0011,
      "velocity": 127,
      "chip": "ym2612"
    },
    {
      "channel": 0,
      "note": 94,
      "start": 2.257,
      "duration": 0.0011,
      "velocity": 127,
      "chip": "ym2612"
    },
    {
      "channel": 0,
      "note": 92,
      "start": 2.2585,
      "duration": 0.0011,
      "velocity": 127,
      "chip": "ym2612"
    },
    {
      "channel": 0,
      "note": 93,
      "start": 2.26,
      "duration": 0.0011,
      "velocity": 127,
      "chip": "ym2612"
    },
    {
      "channel": 0,
      "note": 92,
      "start": 2.2615,
      "duration": 0.0011,
      "velocity": 127,
      "chip": "ym2612"
    },
    {
      "channel": 0,
      "note": 93,
      "start": 2.2629,
      "duration": 0.0011,
      "velocity": 127,
      "chip": "ym2612"
    },
    {
      "channel": 0,
      "note": 91,
      "start": 2.2644,
      "duration": 0.0011,
      "velocity": 127,
      "chip": "ym2612"
    },
    {
      "channel": 0,
      "note": 93,
      "start": 2.2659,
      "duration": 0.0011,
      "velocity": 127,
      "chip": "ym2612"
    },
    {
      "channel": 0,
      "note": 92,
      "start": 2.2674,
      "duration": 0.0011,
      "velocity": 127,
      "chip": "ym2612"
    },
    {
      "channel": 0,
      "note": 94,
      "start": 2.2689,
      "duration": 0.0011,
      "velocity": 127,
      "chip": "ym2612"
    },
    {
      "channel": 0,
      "note": 92,
      "start": 2.2704,
      "duration": 0.0011,
      "velocity": 127,
      "chip": "ym2612"
    },
    {
      "channel": 0,
      "note": 93,
      "start": 2.2718,
      "duration": 0.0011,
      "velocity": 127,
      "chip": "ym2612"
    },
    {
      "channel": 0,
      "note": 92,
      "start": 2.2733,
      "duration": 0.0011,
      "velocity": 127,
      "chip": "ym2612"
    },
    {
      "channel": 0,
      "note": 93,
      "start": 2.2748,
      "duration": 0.0079,
      "velocity": 127,
      "chip": "ym2612"
    },
    {
      "channel": 0,
      "note": 91,
      "start": 2.2849,
      "duration": 0.0061,
      "velocity": 127,
      "chip": "ym2612"
    },
    {
      "channel": 0,
      "note": 93,
      "start": 2.2929,
      "duration": 0.0069,
      "velocity": 127,
      "chip": "ym2612"
    },
    {
      "channel": 0,
      "note": 92,
      "start": 2.3021,
      "duration": 0.0064,
      "velocity": 127,
      "chip": "ym2612"
    },
    {
      "channel": 0,
      "note": 94,
      "start": 2.3106,
      "duration": 0.0068,
      "velocity": 127,
      "chip": "ym2612"
    },
    {
      "channel": 0,
      "note": 92,
      "start": 2.319,
      "duration": 0.0081,
      "velocity": 127,
      "chip": "ym2612"
    },
    {
      "channel": 0,
      "note": 93,
      "start": 2.3278,
      "duration": 0.0074,
      "velocity": 127,
      "chip": "ym2612"
    },
    {
      "channel": 0,
      "note": 92,
      "start": 2.3356,
      "duration": 0.0011,
      "velocity": 127,
      "chip": "ym2612"
    },
    {
      "channel": 0,
      "note": 93,
      "start": 2.3371,
      "duration": 0.0011,
      "velocity": 127,
      "chip": "ym2612"
    },
    {
      "channel": 0,
      "note": 91,
      "start": 2.3405,
      "duration": 0.0063,
      "velocity": 127,
      "chip": "ym2612"
    },
    {
      "channel": 0,
      "note": 93,
      "start": 2.3489,
      "duration": 0.0064,
      "velocity": 127,
      "chip": "ym2612"
    },
    {
      "channel": 0,
      "note": 92,
      "start": 2.3574,
      "duration": 0.008,
      "velocity": 127,
      "chip": "ym2612"
    },
    {
      "channel": 0,
      "note": 94,
      "start": 2.3658,
      "duration": 0.0028,
      "velocity": 127,
      "chip": "ym2612"
    },
    {
      "channel": 0,
      "note": 92,
      "start": 2.3709,
      "duration": 0.0061,
      "velocity": 127,
      "chip": "ym2612"
    },
    {
      "channel": 0,
      "note": 93,
      "start": 2.3791,
      "duration": 0.0072,
      "velocity": 127,
      "chip": "ym2612"
    },
    {
      "channel": 0,
      "note": 92,
      "start": 2.3884,
      "duration": 0.0061,
      "velocity": 127,
      "chip": "ym2612"
    },
    {
      "channel": 0,
      "note": 93,
      "start": 2.3964,
      "duration": 0.0327,
      "velocity": 127,
      "chip": "ym2612"
    },
    {
      "channel": 4,
      "note": 2,
      "start": 2.4045,
      "duration": 0.0285,
      "velocity": 109,
      "chip": "ym2612"
    },
    {
      "channel": 1,
      "note": 0,
      "start": 2.4203,
      "duration": 0.0227,
      "velocity": 109,
      "chip": "ym2612"
    },
    {
      "channel": 4,
      "note": 0,
      "start": 2.4334,
      "duration": 0.0123,
      "velocity": 109,
      "chip": "ym2612"
    },
    {
      "channel": 1,
      "note": 0,
      "start": 2.4433,
      "duration": 0.0051,
      "velocity": 109,
      "chip": "ym2612"
    },
    {
      "channel": 4,
      "note": 2,
      "start": 2.446,
      "duration": 0.0051,
      "velocity": 109,
      "chip": "ym2612"
    },
    {
      "channel": 1,
      "note": 0,
      "start": 2.4487,
      "duration": 0.0052,
      "velocity": 109,
      "chip": "ym2612"
    },
    {
      "channel": 4,
      "note": 0,
      "start": 2.4514,
      "duration": 0.0053,
      "velocity": 109,
      "chip": "ym2612"
    },
    {
      "channel": 2,
      "note": 86,
      "start": 2.4526,
      "duration": 53.5815,
      "velocity": 112,
      "chip": "ym2612"
    },
    {
      "channel": 1,
      "note": 0,
      "start": 2.4542,
      "duration": 0.0052,
      "velocity": 109,
      "chip": "ym2612"
    },
    {
      "channel": 4,
      "note": 2,
      "start": 2.4571,
      "duration": 0.005,
      "velocity": 109,
      "chip": "ym2612"
    },
    {
      "channel": 1,
      "note": 0,
      "start": 2.4597,
      "duration": 0.0051,
      "velocity": 109,
      "chip": "ym2612"
    },
    {
      "channel": 4,
      "note": 0,
      "start": 2.4624,
      "duration": 0.0052,
      "velocity": 109,
      "chip": "ym2612"
    },
    {
      "channel": 1,
      "note": 0,
      "start": 2.4652,
      "duration": 0.0052,
      "velocity": 109,
      "chip": "ym2612"
    },
    {
      "channel": 4,
      "note": 2,
      "start": 2.4679,
      "duration": 0.0051,
      "velocity": 109,
      "chip": "ym2612"
    },
    {
      "channel": 1,
      "note": 0,
      "start": 2.4707,
      "duration": 0.0051,
      "velocity": 109,
      "chip": "ym2612"
    },
    {
      "channel": 4,
      "note": 0,
      "start": 2.4734,
      "duration": 0.0051,
      "velocity": 109,
      "chip": "ym2612"
    },
    {
      "channel": 1,
      "note": 0,
      "start": 2.4761,
      "duration": 53.558,
      "velocity": 109,
      "chip": "ym2612"
    }
  ]
}