{
  "track_name": "17 - Ending (Hard Mode)",
  "duration_sec": 45.01,
  "sample_rate": 44100,
  "note_count": 926,
  "unique_pitches": 49,
  "pitch_range": 51,
  "avg_note_duration": 0.1541,
  "reconstruction_stats": {
    "notes_reconstructed": 926,
    "keyon_events": 926,
    "keyoff_events": 923,
    "orphan_keyons": 3,
    "unique_pitches": 49,
    "pitch_range": 51,
    "avg_duration_sec": 0.1541
  },
  "metadata": {
    "source": "T\\Teenage Mutant Ninja Turtles - The Hyperstone Heist\\17 - Ending (Hard Mode).vgz"
  },
  "notes": [
    {
      "channel": 0,
      "note": 57,
      "start": 0.2015,
      "duration": 0.0388,
      "velocity": 111,
      "chip": "ym2612"
    },
    {
      "channel": 1,
      "note": 81,
      "start": 0.2022,
      "duration": 0.0236,
      "velocity": 103,
      "chip": "ym2612"
    },
    {
      "channel": 2,
      "note": 76,
      "start": 0.2027,
      "duration": 0.0232,
      "velocity": 90,
      "chip": "ym2612"
    },
    {
      "channel": 4,
      "note": 81,
      "start": 0.2039,
      "duration": 0.0373,
      "velocity": 119,
      "chip": "ym2612"
    },
    {
      "channel": 3,
      "note": 81,
      "start": 0.2269,
      "duration": 0.0397,
      "velocity": 100,
      "chip": "ym2612"
    },
    {
      "channel": 1,
      "note": 76,
      "start": 0.2308,
      "duration": 0.0097,
      "velocity": 103,
      "chip": "ym2612"
    },
    {
      "channel": 2,
      "note": 71,
      "start": 0.2314,
      "duration": 0.0093,
      "velocity": 90,
      "chip": "ym2612"
    },
    {
      "channel": 0,
      "note": 55,
      "start": 0.2588,
      "duration": 0.0984,
      "velocity": 111,
      "chip": "ym2612"
    },
    {
      "channel": 1,
      "note": 78,
      "start": 0.2594,
      "duration": 0.0272,
      "velocity": 103,
      "chip": "ym2612"
    },
    {
      "channel": 2,
      "note": 73,
      "start": 0.2603,
      "duration": 0.0265,
      "velocity": 90,
      "chip": "ym2612"
    },
    {
      "channel": 4,
      "note": 81,
      "start": 0.2622,
      "duration": 0.0256,
      "velocity": 127,
      "chip": "ym2612"
    },
    {
      "channel": 3,
      "note": 76,
      "start": 0.272,
      "duration": 0.0083,
      "velocity": 100,
      "chip": "ym2612"
    },
    {
      "channel": 3,
      "note": 78,
      "start": 0.2876,
      "duration": 0.1105,
      "velocity": 100,
      "chip": "ym2612"
    },
    {
      "channel": 1,
      "note": 81,
      "start": 0.2919,
      "duration": 0.0656,
      "velocity": 103,
      "chip": "ym2612"
    },
    {
      "channel": 2,
      "note": 76,
      "start": 0.2925,
      "duration": 0.0652,
      "velocity": 90,
      "chip": "ym2612"
    },
    {
      "channel": 4,
      "note": 81,
      "start": 0.2932,
      "duration": 0.0649,
      "velocity": 127,
      "chip": "ym2612"
    },
    {
      "channel": 0,
      "note": 54,
      "start": 0.3911,
      "duration": 0.1503,
      "velocity": 111,
      "chip": "ym2612"
    },
    {
      "channel": 4,
      "note": 81,
      "start": 0.3937,
      "duration": 0.1485,
      "velocity": 119,
      "chip": "ym2612"
    },
    {
      "channel": 3,
      "note": 81,
      "start": 0.402,
      "duration": 0.007,
      "velocity": 100,
      "chip": "ym2612"
    },
    {
      "channel": 1,
      "note": 76,
      "start": 0.4583,
      "duration": 0.0833,
      "velocity": 103,
      "chip": "ym2612"
    },
    {
      "channel": 2,
      "note": 71,
      "start": 0.4589,
      "duration": 0.0829,
      "velocity": 90,
      "chip": "ym2612"
    },
    {
      "channel": 0,
      "note": 52,
      "start": 0.5753,
      "duration": 0.0803,
      "velocity": 111,
      "chip": "ym2612"
    },
    {
      "channel": 1,
      "note": 78,
      "start": 0.5759,
      "duration": 0.0243,
      "velocity": 103,
      "chip": "ym2612"
    },
    {
      "channel": 2,
      "note": 73,
      "start": 0.5765,
      "duration": 0.0239,
      "velocity": 90,
      "chip": "ym2612"
    },
    {
      "channel": 4,
      "note": 81,
      "start": 0.5783,
      "duration": 0.0231,
      "velocity": 127,
      "chip": "ym2612"
    },
    {
      "channel": 3,
      "note": 76,
      "start": 0.5874,
      "duration": 0.0083,
      "velocity": 100,
      "chip": "ym2612"
    },
    {
      "channel": 3,
      "note": 78,
      "start": 0.6012,
      "duration": 0.0968,
      "velocity": 100,
      "chip": "ym2612"
    },
    {
      "channel": 1,
      "note": 81,
      "start": 0.6051,
      "duration": 0.0507,
      "velocity": 103,
      "chip": "ym2612"
    },
    {
      "channel": 2,
      "note": 76,
      "start": 0.6057,
      "duration": 0.0503,
      "velocity": 90,
      "chip": "ym2612"
    },
    {
      "channel": 4,
      "note": 81,
      "start": 0.6065,
      "duration": 0.05,
      "velocity": 127,
      "chip": "ym2612"
    },
    {
      "channel": 0,
      "note": 50,
      "start": 0.6895,
      "duration": 0.0971,
      "velocity": 111,
      "chip": "ym2612"
    },
    {
      "channel": 1,
      "note": 84,
      "start": 0.6902,
      "duration": 0.0074,
      "velocity": 103,
      "chip": "ym2612"
    },
    {
      "channel": 2,
      "note": 79,
      "start": 0.6908,
      "duration": 0.0071,
      "velocity": 90,
      "chip": "ym2612"
    },
    {
      "channel": 4,
      "note": 81,
      "start": 0.6927,
      "duration": 0.0947,
      "velocity": 119,
      "chip": "ym2612"
    },
    {
      "channel": 1,
      "note": 86,
      "start": 0.7044,
      "duration": 0.0051,
      "velocity": 103,
      "chip": "ym2612"
    },
    {
      "channel": 2,
      "note": 81,
      "start": 0.705,
      "duration": 0.0047,
      "velocity": 90,
      "chip": "ym2612"
    },
    {
      "channel": 3,
      "note": 81,
      "start": 0.7058,
      "duration": 0.01,
      "velocity": 100,
      "chip": "ym2612"
    },
    {
      "channel": 1,
      "note": 84,
      "start": 0.715,
      "duration": 0.0271,
      "velocity": 103,
      "chip": "ym2612"
    },
    {
      "channel": 2,
      "note": 79,
      "start": 0.7156,
      "duration": 0.0268,
      "velocity": 90,
      "chip": "ym2612"
    },
    {
      "channel": 3,
      "note": 84,
      "start": 0.7432,
      "duration": 0.0338,
      "velocity": 100,
      "chip": "ym2612"
    },
    {
      "channel": 1,
      "note": 81,
      "start": 0.7762,
      "duration": 0.0106,
      "velocity": 103,
      "chip": "ym2612"
    },
    {
      "channel": 2,
      "note": 76,
      "start": 0.7767,
      "duration": 0.0102,
      "velocity": 90,
      "chip": "ym2612"
    },
    {
      "channel": 3,
      "note": 86,
      "start": 0.7822,
      "duration": 0.005,
      "velocity": 100,
      "chip": "ym2612"
    },
    {
      "channel": 0,
      "note": 54,
      "start": 0.7935,
      "duration": 0.0971,
      "velocity": 111,
      "chip": "ym2612"
    },
    {
      "channel": 1,
      "note": 83,
      "start": 0.7941,
      "duration": 0.0251,
      "velocity": 103,
      "chip": "ym2612"
    },
    {
      "channel": 2,
      "note": 78,
      "start": 0.7947,
      "duration": 0.0247,
      "velocity": 90,
      "chip": "ym2612"
    },
    {
      "channel": 3,
      "note": 84,
      "start": 0.7955,
      "duration": 0.0062,
      "velocity": 100,
      "chip": "ym2612"
    },
    {
      "channel": 4,
      "note": 81,
      "start": 0.7972,
      "duration": 0.0232,
      "velocity": 127,
      "chip": "ym2612"
    },
    {
      "channel": 3,
      "note": 81,
      "start": 0.807,
      "duration": 0.0083,
      "velocity": 100,
      "chip": "ym2612"
    },
    {
      "channel": 3,
      "note": 83,
      "start": 0.8203,
      "duration": 0.1125,
      "velocity": 100,
      "chip": "ym2612"
    },
    {
      "channel": 1,
      "note": 81,
      "start": 0.8258,
      "duration": 0.065,
      "velocity": 103,
      "chip": "ym2612"
    },
    {
      "channel": 2,
      "note": 76,
      "start": 0.8263,
      "duration": 0.0647,
      "velocity": 90,
      "chip": "ym2612"
    },
    {
      "channel": 4,
      "note": 81,
      "start": 0.8271,
      "duration": 0.0643,
      "velocity": 127,
      "chip": "ym2612"
    },
    {
      "channel": 0,
      "note": 57,
      "start": 0.9246,
      "duration": 0.079,
      "velocity": 111,
      "chip": "ym2612"
    },
    {
      "channel": 1,
      "note": 88,
      "start": 0.9252,
      "duration": 0.0347,
      "velocity": 103,
      "chip": "ym2612"
    },
    {
      "channel": 2,
      "note": 83,
      "start": 0.9258,
      "duration": 0.0343,
      "velocity": 90,
      "chip": "ym2612"
    },
    {
      "channel": 4,
      "note": 81,
      "start": 0.9277,
      "duration": 0.0766,
      "velocity": 119,
      "chip": "ym2612"
    },
    {
      "channel": 3,
      "note": 81,
      "start": 0.9373,
      "duration": 0.009,
      "velocity": 100,
      "chip": "ym2612"
    },
    {
      "channel": 3,
      "note": 88,
      "start": 0.9609,
      "duration": 0.0578,
      "velocity": 100,
      "chip": "ym2612"
    },
    {
      "channel": 1,
      "note": 81,
      "start": 0.9939,
      "duration": 0.0999,
      "velocity": 103,
      "chip": "ym2612"
    },
    {
      "channel": 2,
      "note": 76,
      "start": 0.9945,
      "duration": 0.0995,
      "velocity": 90,
      "chip": "ym2612"
    },
    {
      "channel": 0,
      "note": 50,
      "start": 1.0121,
      "duration": 0.0814,
      "velocity": 111,
      "chip": "ym2612"
    },
    {
      "channel": 4,
      "note": 81,
      "start": 1.0143,
      "duration": 0.0224,
      "velocity": 127,
      "chip": "ym2612"
    },
    {
      "channel": 3,
      "note": 81,
      "start": 1.024,
      "duration": 0.1273,
      "velocity": 100,
      "chip": "ym2612"
    },
    {
      "channel": 4,
      "note": 81,
      "start": 1.0412,
      "duration": 0.0532,
      "velocity": 127,
      "chip": "ym2612"
    },
    {
      "channel": 0,
      "note": 51,
      "start": 1.1275,
      "duration": 0.0272,
      "velocity": 111,
      "chip": "ym2612"
    },
    {
      "channel": 1,
      "note": 83,
      "start": 1.1297,
      "duration": 0.0211,
      "velocity": 100,
      "chip": "ym2612"
    },
    {
      "channel": 2,
      "note": 78,
      "start": 1.1316,
      "duration": 0.0194,
      "velocity": 100,
      "chip": "ym2612"
    },
    {
      "channel": 3,
      "note": 83,
      "start": 1.1563,
      "duration": 0.0186,
      "velocity": 100,
      "chip": "ym2612"
    },
    {
      "channel": 0,
      "note": 51,
      "start": 1.16,
      "duration": 0.0231,
      "velocity": 111,
      "chip": "ym2612"
    },
    {
      "channel": 1,
      "note": 83,
      "start": 1.1607,
      "duration": 0.0182,
      "velocity": 100,
      "chip": "ym2612"
    },
    {
      "channel": 2,
      "note": 78,
      "start": 1.1614,
      "duration": 0.0177,
      "velocity": 100,
      "chip": "ym2612"
    },
    {
      "channel": 3,
      "note": 83,
      "start": 1.1843,
      "duration": 0.0201,
      "velocity": 100,
      "chip": "ym2612"
    },
    {
      "channel": 0,
      "note": 51,
      "start": 1.1897,
      "duration": 0.024,
      "velocity": 111,
      "chip": "ym2612"
    },
    {
      "channel": 1,
      "note": 83,
      "start": 1.1904,
      "duration": 0.0195,
      "velocity": 100,
      "chip": "ym2612"
    },
    {
      "channel": 2,
      "note": 78,
      "start": 1.191,
      "duration": 0.0191,
      "velocity": 100,
      "chip": "ym2612"
    },
    {
      "channel": 3,
      "note": 83,
      "start": 1.2149,
      "duration": 0.0214,
      "velocity": 100,
      "chip": "ym2612"
    },
    {
      "channel": 0,
      "note": 51,
      "start": 1.222,
      "duration": 0.0222,
      "velocity": 111,
      "chip": "ym2612"
    },
    {
      "channel": 1,
      "note": 83,
      "start": 1.2227,
      "duration": 0.0175,
      "velocity": 100,
      "chip": "ym2612"
    },
    {
      "channel": 2,
      "note": 78,
      "start": 1.2234,
      "duration": 0.0171,
      "velocity": 100,
      "chip": "ym2612"
    },
    {
      "channel": 3,
      "note": 83,
      "start": 1.2455,
      "duration": 0.0202,
      "velocity": 100,
      "chip": "ym2612"
    },
    {
      "channel": 0,
      "note": 51,
      "start": 1.2515,
      "duration": 0.0229,
      "velocity": 111,
      "chip": "ym2612"
    },
    {
      "channel": 1,
      "note": 83,
      "start": 1.2522,
      "duration": 0.0188,
      "velocity": 100,
      "chip": "ym2612"
    },
    {
      "channel": 2,
      "note": 78,
      "start": 1.2528,
      "duration": 0.0185,
      "velocity": 100,
      "chip": "ym2612"
    },
    {
      "channel": 3,
      "note": 83,
      "start": 1.2756,
      "duration": 0.0218,
      "velocity": 100,
      "chip": "ym2612"
    },
    {
      "channel": 0,
      "note": 51,
      "start": 1.2826,
      "duration": 0.022,
      "velocity": 111,
      "chip": "ym2612"
    },
    {
      "channel": 1,
      "note": 83,
      "start": 1.2833,
      "duration": 0.0175,
      "velocity": 100,
      "chip": "ym2612"
    },
    {
      "channel": 2,
      "note": 78,
      "start": 1.284,
      "duration": 0.0171,
      "velocity": 100,
      "chip": "ym2612"
    },
    {
      "channel": 3,
      "note": 83,
      "start": 1.3058,
      "duration": 0.0206,
      "velocity": 100,
      "chip": "ym2612"
    },
    {
      "channel": 0,
      "note": 52,
      "start": 1.3113,
      "duration": 0.0102,
      "velocity": 111,
      "chip": "ym2612"
    },
    {
      "channel": 1,
      "note": 88,
      "start": 1.312,
      "duration": 0.0097,
      "velocity": 100,
      "chip": "ym2612"
    },
    {
      "channel": 2,
      "note": 83,
      "start": 1.3127,
      "duration": 0.0092,
      "velocity": 100,
      "chip": "ym2612"
    },
    {
      "channel": 3,
      "note": 88,
      "start": 1.3355,
      "duration": 0.0395,
      "velocity": 100,
      "chip": "ym2612"
    },
    {
      "channel": 0,
      "note": 58,
      "start": 1.4423,
      "duration": 0.1508,
      "velocity": 111,
      "chip": "ym2612"
    },
    {
      "channel": 1,
      "note": 88,
      "start": 1.443,
      "duration": 0.1504,
      "velocity": 100,
      "chip": "ym2612"
    },
    {
      "channel": 2,
      "note": 80,
      "start": 1.4436,
      "duration": 0.0803,
      "velocity": 100,
      "chip": "ym2612"
    },
    {
      "channel": 3,
      "note": 88,
      "start": 1.4661,
      "duration": 0.1277,
      "velocity": 100,
      "chip": "ym2612"
    },
    {
      "channel": 4,
      "note": 81,
      "start": 1.5525,
      "duration": 0.0415,
      "velocity": 119,
      "chip": "ym2612"
    },
    {
      "channel": 0,
      "note": 45,
      "start": 1.6273,
      "duration": 0.1521,
      "velocity": 111,
      "chip": "ym2612"
    },
    {
      "channel": 1,
      "note": 73,
      "start": 1.6291,
      "duration": 0.0498,
      "velocity": 103,
      "chip": "ym2612"
    },
    {
      "channel": 4,
      "note": 81,
      "start": 1.633,
      "duration": 0.1472,
      "velocity": 119,
      "chip": "ym2612"
    },
    {
      "channel": 3,
      "note": 73,
      "start": 1.6503,
      "duration": 0.1643,
      "velocity": 101,
      "chip": "ym2612"
    },
    {
      "channel": 1,
      "note": 76,
      "start": 1.713,
      "duration": 0.0666,
      "velocity": 103,
      "chip": "ym2612"
    },
    {
      "channel": 2,
      "note": 72,
      "start": 1.7135,
      "duration": 0.0663,
      "velocity": 90,
      "chip": "ym2612"
    },
    {
      "channel": 0,
      "note": 55,
      "start": 1.8133,
      "duration": 0.0981,
      "velocity": 111,
      "chip": "ym2612"
    },
    {
      "channel": 1,
      "note": 78,
      "start": 1.814,
      "duration": 0.0248,
      "velocity": 103,
      "chip": "ym2612"
    },
    {
      "channel": 2,
      "note": 73,
      "start": 1.8145,
      "duration": 0.0245,
      "velocity": 90,
      "chip": "ym2612"
    },
    {
      "channel": 4,
      "note": 81,
      "start": 1.8154,
      "duration": 0.0969,
      "velocity": 119,
      "chip": "ym2612"
    },
    {
      "channel": 3,
      "note": 76,
      "start": 1.821,
      "duration": 0.0085,
      "velocity": 101,
      "chip": "ym2612"
    },
    {
      "channel": 3,
      "note": 78,
      "start": 1.8345,
      "duration": 0.1123,
      "velocity": 101,
      "chip": "ym2612"
    },
    {
      "channel": 1,
      "note": 76,
      "start": 1.8432,
      "duration": 0.0685,
      "velocity": 103,
      "chip": "ym2612"
    },
    {
      "channel": 2,
      "note": 76,
      "start": 1.8438,
      "duration": 0.068,
      "velocity": 90,
      "chip": "ym2612"
    },
    {
      "channel": 0,
      "note": 54,
      "start": 1.9454,
      "duration": 0.1361,
      "velocity": 111,
      "chip": "ym2612"
    },
    {
      "channel": 1,
      "note": 81,
      "start": 1.9461,
      "duration": 0.035,
      "velocity": 103,
      "chip": "ym2612"
    },
    {
      "channel": 2,
      "note": 78,
      "start": 1.9466,
      "duration": 0.0347,
      "velocity": 90,
      "chip": "ym2612"
    },
    {
      "channel": 4,
      "note": 81,
      "start": 1.9475,
      "duration": 0.1347,
      "velocity": 119,
      "chip": "ym2612"
    },
    {
      "channel": 3,
      "note": 76,
      "start": 1.9531,
      "duration": 0.0083,
      "velocity": 101,
      "chip": "ym2612"
    },
    {
      "channel": 3,
      "note": 81,
      "start": 1.9672,
      "duration": 0.1492,
      "velocity": 101,
      "chip": "ym2612"
    },
    {
      "channel": 1,
      "note": 81,
      "start": 2.0151,
      "duration": 0.0665,
      "velocity": 103,
      "chip": "ym2612"
    },
    {
      "channel": 2,
      "note": 81,
      "start": 2.0156,
      "duration": 0.0662,
      "velocity": 90,
      "chip": "ym2612"
    },
    {
      "channel": 0,
      "note": 52,
      "start": 2.1153,
      "duration": 0.0984,
      "velocity": 111,
      "chip": "ym2612"
    },
    {
      "channel": 2,
      "note": 83,
      "start": 2.1162,
      "duration": 0.0244,
      "velocity": 90,
      "chip": "ym2612"
    },
    {
      "channel": 4,
      "note": 81,
      "start": 2.1171,
      "duration": 0.0973,
      "velocity": 119,
      "chip": "ym2612"
    },
    {
      "channel": 3,
      "note": 81,
      "start": 2.1224,
      "duration": 0.01,
      "velocity": 101,
      "chip": "ym2612"
    },
    {
      "channel": 1,
      "note": 84,
      "start": 2.1474,
      "duration": 0.1063,
      "velocity": 103,
      "chip": "ym2612"
    },
    {
      "channel": 2,
      "note": 81,
      "start": 2.1482,
      "duration": 0.0659,
      "velocity": 90,
      "chip": "ym2612"
    },
    {
      "channel": 0,
      "note": 50,
      "start": 2.2476,
      "duration": 0.0963,
      "velocity": 111,
      "chip": "ym2612"
    },
    {
      "channel": 2,
      "note": 84,
      "start": 2.2487,
      "duration": 0.0957,
      "velocity": 90,
      "chip": "ym2612"
    },
    {
      "channel": 4,
      "note": 81,
      "start": 2.2495,
      "duration": 0.0959,
      "velocity": 119,
      "chip": "ym2612"
    },
    {
      "channel": 3,
      "note": 84,
      "start": 2.255,
      "duration": 0.0296,
      "velocity": 101,
      "chip": "ym2612"
    },
    {
      "channel": 1,
      "note": 86,
      "start": 2.2593,
      "duration": 0.0044,
      "velocity": 103,
      "chip": "ym2612"
    },
    {
      "channel": 1,
      "note": 84,
      "start": 2.2693,
      "duration": 0.0149,
      "velocity": 103,
      "chip": "ym2612"
    },
    {
      "channel": 1,
      "note": 81,
      "start": 2.335,
      "duration": 0.0092,
      "velocity": 103,
      "chip": "ym2612"
    },
    {
      "channel": 3,
      "note": 86,
      "start": 2.336,
      "duration": 0.0042,
      "velocity": 101,
      "chip": "ym2612"
    },
    {
      "channel": 3,
      "note": 84,
      "start": 2.3452,
      "duration": 0.0077,
      "velocity": 101,
      "chip": "ym2612"
    },
    {
      "channel": 0,
      "note": 54,
      "start": 2.3515,
      "duration": 0.0818,
      "velocity": 111,
      "chip": "ym2612"
    },
    {
      "channel": 1,
      "note": 83,
      "start": 2.3522,
      "duration": 0.025,
      "velocity": 103,
      "chip": "ym2612"
    },
    {
      "channel": 2,
      "note": 84,
      "start": 2.3527,
      "duration": 0.0811,
      "velocity": 90,
      "chip": "ym2612"
    },
    {
      "channel": 4,
      "note": 81,
      "start": 2.3537,
      "duration": 0.0806,
      "velocity": 119,
      "chip": "ym2612"
    },
    {
      "channel": 3,
      "note": 81,
      "start": 2.3592,
      "duration": 0.0085,
      "velocity": 101,
      "chip": "ym2612"
    },
    {
      "channel": 3,
      "note": 83,
      "start": 2.3729,
      "duration": 0.1126,
      "velocity": 101,
      "chip": "ym2612"
    },
    {
      "channel": 1,
      "note": 81,
      "start": 2.3822,
      "duration": 0.0515,
      "velocity": 103,
      "chip": "ym2612"
    },
    {
      "channel": 0,
      "note": 55,
      "start": 2.4841,
      "duration": 0.0782,
      "velocity": 111,
      "chip": "ym2612"
    },
    {
      "channel": 1,
      "note": 84,
      "start": 2.4847,
      "duration": 0.034,
      "velocity": 103,
      "chip": "ym2612"
    },
    {
      "channel": 2,
      "note": 84,
      "start": 2.4853,
      "duration": 0.0337,
      "velocity": 90,
      "chip": "ym2612"
    },
    {
      "channel": 4,
      "note": 81,
      "start": 2.4862,
      "duration": 0.0769,
      "velocity": 119,
      "chip": "ym2612"
    },
    {
      "channel": 3,
      "note": 81,
      "start": 2.4914,
      "duration": 0.0083,
      "velocity": 101,
      "chip": "ym2612"
    },
    {
      "channel": 3,
      "note": 84,
      "start": 2.5049,
      "duration": 0.0654,
      "velocity": 101,
      "chip": "ym2612"
    },
    {
      "channel": 1,
      "note": 81,
      "start": 2.5527,
      "duration": 0.0098,
      "velocity": 103,
      "chip": "ym2612"
    },
    {
      "channel": 2,
      "note": 81,
      "start": 2.5532,
      "duration": 0.0095,
      "velocity": 90,
      "chip": "ym2612"
    },
    {
      "channel": 0,
      "note": 56,
      "start": 2.5688,
      "duration": 0.0985,
      "velocity": 111,
      "chip": "ym2612"
    },
    {
      "channel": 1,
      "note": 78,
      "start": 2.5695,
      "duration": 0.0266,
      "velocity": 103,
      "chip": "ym2612"
    },
    {
      "channel": 2,
      "note": 78,
      "start": 2.57,
      "duration": 0.0262,
      "velocity": 90,
      "chip": "ym2612"
    },
    {
      "channel": 4,
      "note": 81,
      "start": 2.571,
      "duration": 0.0971,
      "velocity": 119,
      "chip": "ym2612"
    },
    {
      "channel": 3,
      "note": 81,
      "start": 2.5765,
      "duration": 0.0085,
      "velocity": 101,
      "chip": "ym2612"
    },
    {
      "channel": 3,
      "note": 78,
      "start": 2.5922,
      "duration": 0.1106,
      "velocity": 101,
      "chip": "ym2612"
    },
    {
      "channel": 1,
      "note": 81,
      "start": 2.6009,
      "duration": 0.0666,
      "velocity": 103,
      "chip": "ym2612"
    },
    {
      "channel": 2,
      "note": 81,
      "start": 2.6016,
      "duration": 0.0661,
      "velocity": 90,
      "chip": "ym2612"
    },
    {
      "channel": 0,
      "note": 57,
      "start": 2.7012,
      "duration": 0.1529,
      "velocity": 111,
      "chip": "ym2612"
    },
    {
      "channel": 1,
      "note": 84,
      "start": 2.702,
      "duration": 0.1523,
      "velocity": 103,
      "chip": "ym2612"
    },
    {
      "channel": 2,
      "note": 85,
      "start": 2.7025,
      "duration": 0.1522,
      "velocity": 90,
      "chip": "ym2612"
    },
    {
      "channel": 4,
      "note": 81,
      "start": 2.7035,
      "duration": 0.152,
      "velocity": 119,
      "chip": "ym2612"
    },
    {
      "channel": 3,
      "note": 81,
      "start": 2.7093,
      "duration": 0.0083,
      "velocity": 101,
      "chip": "ym2612"
    },
    {
      "channel": 3,
      "note": 84,
      "start": 2.7239,
      "duration": 0.1835,
      "velocity": 101,
      "chip": "ym2612"
    },
    {
      "channel": 0,
      "note": 55,
      "start": 2.888,
      "duration": 0.0812,
      "velocity": 111,
      "chip": "ym2612"
    },
    {
      "channel": 1,
      "note": 85,
      "start": 2.8899,
      "duration": 0.0119,
      "velocity": 68,
      "chip": "ym2612"
    },
    {
      "channel": 2,
      "note": 93,
      "start": 2.8917,
      "duration": 0.0103,
      "velocity": 68,
      "chip": "ym2612"
    },
    {
      "channel": 4,
      "note": 81,
      "start": 2.8932,
      "duration": 0.0765,
      "velocity": 119,
      "chip": "ym2612"
    },
    {
      "channel": 3,
      "note": 85,
      "start": 2.914,
      "duration": 0.0083,
      "velocity": 60,
      "chip": "ym2612"
    },
    {
      "channel": 0,
      "note": 54,
      "start": 3.0031,
      "duration": 0.1531,
      "velocity": 111,
      "chip": "ym2612"
    },
    {
      "channel": 1,
      "note": 86,
      "start": 3.0037,
      "duration": 0.0116,
      "velocity": 68,
      "chip": "ym2612"
    },
    {
      "channel": 2,
      "note": 93,
      "start": 3.0043,
      "duration": 0.0113,
      "velocity": 68,
      "chip": "ym2612"
    },
    {
      "channel": 4,
      "note": 81,
      "start": 3.0054,
      "duration": 0.1513,
      "velocity": 119,
      "chip": "ym2612"
    },
    {
      "channel": 3,
      "note": 86,
      "start": 3.0254,
      "duration": 0.0641,
      "velocity": 60,
      "chip": "ym2612"
    },
    {
      "channel": 0,
      "note": 53,
      "start": 3.1902,
      "duration": 0.0976,
      "velocity": 111,
      "chip": "ym2612"
    },
    {
      "channel": 4,
      "note": 81,
      "start": 3.1911,
      "duration": 0.0972,
      "velocity": 119,
      "chip": "ym2612"
    },
    {
      "channel": 0,
      "note": 52,
      "start": 3.3217,
      "duration": 0.0796,
      "velocity": 111,
      "chip": "ym2612"
    },
    {
      "channel": 1,
      "note": 87,
      "start": 3.3223,
      "duration": 0.0103,
      "velocity": 68,
      "chip": "ym2612"
    },
    {
      "channel": 2,
      "note": 93,
      "start": 3.3229,
      "duration": 0.01,
      "velocity": 68,
      "chip": "ym2612"
    },
    {
      "channel": 4,
      "note": 81,
      "start": 3.3237,
      "duration": 0.0781,
      "velocity": 119,
      "chip": "ym2612"
    },
    {
      "channel": 3,
      "note": 87,
      "start": 3.3425,
      "duration": 0.0487,
      "velocity": 60,
      "chip": "ym2612"
    },
    {
      "channel": 0,
      "note": 50,
      "start": 3.4072,
      "duration": 0.0814,
      "velocity": 111,
      "chip": "ym2612"
    },
    {
      "channel": 4,
      "note": 81,
      "start": 3.4081,
      "duration": 0.0812,
      "velocity": 119,
      "chip": "ym2612"
    },
    {
      "channel": 1,
      "note": 88,
      "start": 3.4314,
      "duration": 0.0574,
      "velocity": 68,
      "chip": "ym2612"
    },
    {
      "channel": 2,
      "note": 93,
      "start": 3.432,
      "duration": 0.057,
      "velocity": 68,
      "chip": "ym2612"
    },
    {
      "channel": 0,
      "note": 49,
      "start": 3.5224,
      "duration": 0.0971,
      "velocity": 111,
      "chip": "ym2612"
    },
    {
      "channel": 4,
      "note": 81,
      "start": 3.5239,
      "duration": 0.0963,
      "velocity": 119,
      "chip": "ym2612"
    },
    {
      "channel": 3,
      "note": 88,
      "start": 3.5284,
      "duration": 0.0096,
      "velocity": 60,
      "chip": "ym2612"
    },
    {
      "channel": 1,
      "note": 93,
      "start": 3.6088,
      "duration": 0.0108,
      "velocity": 101,
      "chip": "ym2612"
    },
    {
      "channel": 2,
      "note": 88,
      "start": 3.6107,
      "duration": 0.0092,
      "velocity": 101,
      "chip": "ym2612"
    },
    {
      "channel": 0,
      "note": 45,
      "start": 3.6268,
      "duration": 0.0962,
      "velocity": 111,
      "chip": "ym2612"
    },
    {
      "channel": 4,
      "note": 81,
      "start": 3.6282,
      "duration": 0.0953,
      "velocity": 119,
      "chip": "ym2612"
    },
    {
      "channel": 3,
      "note": 93,
      "start": 3.6346,
      "duration": 0.0071,
      "velocity": 101,
      "chip": "ym2612"
    },
    {
      "channel": 0,
      "note": 50,
      "start": 3.7569,
      "duration": 0.1359,
      "velocity": 111,
      "chip": "ym2612"
    },
    {
      "channel": 1,
      "note": 84,
      "start": 3.7587,
      "duration": 0.1343,
      "velocity": 103,
      "chip": "ym2612"
    },
    {
      "channel": 2,
      "note": 69,
      "start": 3.7608,
      "duration": 0.1324,
      "velocity": 90,
      "chip": "ym2612"
    },
    {
      "channel": 4,
      "note": 81,
      "start": 3.7616,
      "duration": 0.1321,
      "velocity": 119,
      "chip": "ym2612"
    },
    {
      "channel": 3,
      "note": 84,
      "start": 3.7809,
      "duration": 0.1784,
      "velocity": 103,
      "chip": "ym2612"
    },
    {
      "channel": 0,
      "note": 54,
      "start": 3.9435,
      "duration": 0.0822,
      "velocity": 111,
      "chip": "ym2612"
    },
    {
      "channel": 1,
      "note": 81,
      "start": 3.9444,
      "duration": 0.0238,
      "velocity": 103,
      "chip": "ym2612"
    },
    {
      "channel": 2,
      "note": 74,
      "start": 3.9449,
      "duration": 0.0235,
      "velocity": 90,
      "chip": "ym2612"
    },
    {
      "channel": 4,
      "note": 81,
      "start": 3.9459,
      "duration": 0.0807,
      "velocity": 119,
      "chip": "ym2612"
    },
    {
      "channel": 3,
      "note": 81,
      "start": 3.9644,
      "duration": 0.0967,
      "velocity": 103,
      "chip": "ym2612"
    },
    {
      "channel": 1,
      "note": 78,
      "start": 3.9732,
      "duration": 0.0528,
      "velocity": 103,
      "chip": "ym2612"
    },
    {
      "channel": 2,
      "note": 77,
      "start": 3.9737,
      "duration": 0.0524,
      "velocity": 90,
      "chip": "ym2612"
    },
    {
      "channel": 0,
      "note": 57,
      "start": 4.0597,
      "duration": 0.1524,
      "velocity": 111,
      "chip": "ym2612"
    },
    {
      "channel": 1,
      "note": 81,
      "start": 4.0604,
      "duration": 0.0513,
      "velocity": 103,
      "chip": "ym2612"
    },
    {
      "channel": 2,
      "note": 78,
      "start": 4.0609,
      "duration": 0.051,
      "velocity": 90,
      "chip": "ym2612"
    },
    {
      "channel": 4,
      "note": 81,
      "start": 4.0618,
      "duration": 0.1511,
      "velocity": 119,
      "chip": "ym2612"
    },
    {
      "channel": 3,
      "note": 78,
      "start": 4.0671,
      "duration": 0.0099,
      "velocity": 103,
      "chip": "ym2612"
    },
    {
      "channel": 3,
      "note": 81,
      "start": 4.0828,
      "duration": 0.1645,
      "velocity": 103,
      "chip": "ym2612"
    },
    {
      "channel": 1,
      "note": 83,
      "start": 4.1457,
      "duration": 0.0666,
      "velocity": 103,
      "chip": "ym2612"
    },
    {
      "channel": 2,
      "note": 81,
      "start": 4.1463,
      "duration": 0.0662,
      "velocity": 90,
      "chip": "ym2612"
    },
    {
      "channel": 0,
      "note": 59,
      "start": 4.246,
      "duration": 0.0974,
      "velocity": 111,
      "chip": "ym2612"
    },
    {
      "channel": 1,
      "note": 81,
      "start": 4.2466,
      "duration": 0.024,
      "velocity": 103,
      "chip": "ym2612"
    },
    {
      "channel": 2,
      "note": 83,
      "start": 4.2471,
      "duration": 0.0237,
      "velocity": 90,
      "chip": "ym2612"
    },
    {
      "channel": 4,
      "note": 81,
      "start": 4.2481,
      "duration": 0.0961,
      "velocity": 119,
      "chip": "ym2612"
    },
    {
      "channel": 3,
      "note": 83,
      "start": 4.2536,
      "duration": 0.0082,
      "velocity": 103,
      "chip": "ym2612"
    },
    {
      "channel": 3,
      "note": 81,
      "start": 4.2664,
      "duration": 0.1118,
      "velocity": 103,
      "chip": "ym2612"
    },
    {
      "channel": 1,
      "note": 84,
      "start": 4.277,
      "duration": 0.1339,
      "velocity": 103,
      "chip": "ym2612"
    },
    {
      "channel": 2,
      "note": 81,
      "start": 4.2775,
      "duration": 0.0662,
      "velocity": 90,
      "chip": "ym2612"
    },
    {
      "channel": 0,
      "note": 60,
      "start": 4.3773,
      "duration": 0.0771,
      "velocity": 111,
      "chip": "ym2612"
    },
    {
      "channel": 2,
      "note": 84,
      "start": 4.378,
      "duration": 0.0767,
      "velocity": 90,
      "chip": "ym2612"
    },
    {
      "channel": 4,
      "note": 81,
      "start": 4.3789,
      "duration": 0.0763,
      "velocity": 119,
      "chip": "ym2612"
    },
    {
      "channel": 3,
      "note": 84,
      "start": 4.3843,
      "duration": 0.0779,
      "velocity": 103,
      "chip": "ym2612"
    },
    {
      "channel": 1,
      "note": 83,
      "start": 4.4449,
      "duration": 0.0097,
      "velocity": 103,
      "chip": "ym2612"
    },
    {
      "channel": 0,
      "note": 59,
      "start": 4.4608,
      "duration": 0.0974,
      "velocity": 111,
      "chip": "ym2612"
    },
    {
      "channel": 1,
      "note": 81,
      "start": 4.4614,
      "duration": 0.0259,
      "velocity": 103,
      "chip": "ym2612"
    },
    {
      "channel": 2,
      "note": 84,
      "start": 4.462,
      "duration": 0.0966,
      "velocity": 90,
      "chip": "ym2612"
    },
    {
      "channel": 4,
      "note": 81,
      "start": 4.4629,
      "duration": 0.0961,
      "velocity": 119,
      "chip": "ym2612"
    },
    {
      "channel": 3,
      "note": 83,
      "start": 4.4701,
      "duration": 0.0086,
      "velocity": 103,
      "chip": "ym2612"
    },
    {
      "channel": 3,
      "note": 81,
      "start": 4.4835,
      "duration": 0.1101,
      "velocity": 103,
      "chip": "ym2612"
    },
    {
      "channel": 1,
      "note": 78,
      "start": 4.4919,
      "duration": 0.0665,
      "velocity": 103,
      "chip": "ym2612"
    },
    {
      "channel": 0,
      "note": 57,
      "start": 4.5921,
      "duration": 0.0947,
      "velocity": 111,
      "chip": "ym2612"
    },
    {
      "channel": 1,
      "note": 81,
      "start": 4.5928,
      "duration": 0.0512,
      "velocity": 103,
      "chip": "ym2612"
    },
    {
      "channel": 2,
      "note": 72,
      "start": 4.5933,
      "duration": 0.0508,
      "velocity": 90,
      "chip": "ym2612"
    },
    {
      "channel": 4,
      "note": 81,
      "start": 4.5942,
      "duration": 0.0933,
      "velocity": 119,
      "chip": "ym2612"
    },
    {
      "channel": 3,
      "note": 78,
      "start": 4.6,
      "duration": 0.0083,
      "velocity": 103,
      "chip": "ym2612"
    },
    {
      "channel": 3,
      "note": 81,
      "start": 4.6152,
      "duration": 0.0794,
      "velocity": 103,
      "chip": "ym2612"
    },
    {
      "channel": 1,
      "note": 81,
      "start": 4.678,
      "duration": 0.0089,
      "velocity": 103,
      "chip": "ym2612"
    },
    {
      "channel": 2,
      "note": 69,
      "start": 4.6785,
      "duration": 0.0086,
      "velocity": 90,
      "chip": "ym2612"
    },
    {
      "channel": 0,
      "note": 54,
      "start": 4.6929,
      "duration": 0.0989,
      "velocity": 111,
      "chip": "ym2612"
    },
    {
      "channel": 1,
      "note": 83,
      "start": 4.6935,
      "duration": 0.0247,
      "velocity": 103,
      "chip": "ym2612"
    },
    {
      "channel": 2,
      "note": 72,
      "start": 4.6941,
      "duration": 0.0247,
      "velocity": 90,
      "chip": "ym2612"
    },
    {
      "channel": 4,
      "note": 81,
      "start": 4.6953,
      "duration": 0.0973,
      "velocity": 119,
      "chip": "ym2612"
    },
    {
      "channel": 3,
      "note": 81,
      "start": 4.7004,
      "duration": 0.0087,
      "velocity": 103,
      "chip": "ym2612"
    },
    {
      "channel": 3,
      "note": 83,
      "start": 4.7144,
      "duration": 0.1127,
      "velocity": 103,
      "chip": "ym2612"
    },
    {
      "channel": 1,
      "note": 81,
      "start": 4.7233,
      "duration": 0.0687,
      "velocity": 103,
      "chip": "ym2612"
    },
    {
      "channel": 2,
      "note": 72,
      "start": 4.7238,
      "duration": 0.0684,
      "velocity": 90,
      "chip": "ym2612"
    },
    {
      "channel": 0,
      "note": 45,
      "start": 4.8258,
      "duration": 0.1344,
      "velocity": 111,
      "chip": "ym2612"
    },
    {
      "channel": 1,
      "note": 88,
      "start": 4.8263,
      "duration": 0.0335,
      "velocity": 103,
      "chip": "ym2612"
    },
    {
      "channel": 2,
      "note": 73,
      "start": 4.8269,
      "duration": 0.0331,
      "velocity": 90,
      "chip": "ym2612"
    },
    {
      "channel": 4,
      "note": 81,
      "start": 4.8278,
      "duration": 0.1332,
      "velocity": 119,
      "chip": "ym2612"
    },
    {
      "channel": 3,
      "note": 81,
      "start": 4.8333,
      "duration": 0.008,
      "velocity": 103,
      "chip": "ym2612"
    },
    {
      "channel": 3,
      "note": 88,
      "start": 4.8464,
      "duration": 0.1516,
      "velocity": 103,
      "chip": "ym2612"
    },
    {
      "channel": 1,
      "note": 81,
      "start": 4.8937,
      "duration": 0.0667,
      "velocity": 103,
      "chip": "ym2612"
    },
    {
      "channel": 2,
      "note": 73,
      "start": 4.8943,
      "duration": 0.0663,
      "velocity": 90,
      "chip": "ym2612"
    },
    {
      "channel": 0,
      "note": 49,
      "start": 4.9941,
      "duration": 0.0959,
      "velocity": 111,
      "chip": "ym2612"
    },
    {
      "channel": 1,
      "note": 85,
      "start": 4.996,
      "duration": 0.0129,
      "velocity": 68,
      "chip": "ym2612"
    },
    {
      "channel": 2,
      "note": 93,
      "start": 4.9978,
      "duration": 0.0112,
      "velocity": 68,
      "chip": "ym2612"
    },
    {
      "channel": 4,
      "note": 81,
      "start": 4.9988,
      "duration": 0.0916,
      "velocity": 119,
      "chip": "ym2612"
    },
    {
      "channel": 3,
      "note": 81,
      "start": 5.0055,
      "duration": 0.0085,
      "velocity": 103,
      "chip": "ym2612"
    },
    {
      "channel": 3,
      "note": 85,
      "start": 5.0195,
      "duration": 0.0071,
      "velocity": 60,
      "chip": "ym2612"
    },
    {
      "channel": 0,
      "note": 52,
      "start": 5.1238,
      "duration": 0.1518,
      "velocity": 111,
      "chip": "ym2612"
    },
    {
      "channel": 1,
      "note": 86,
      "start": 5.1245,
      "duration": 0.0093,
      "velocity": 68,
      "chip": "ym2612"
    },
    {
      "channel": 2,
      "note": 93,
      "start": 5.125,
      "duration": 0.0089,
      "velocity": 68,
      "chip": "ym2612"
    },
    {
      "channel": 4,
      "note": 81,
      "start": 5.1258,
      "duration": 0.1503,
      "velocity": 119,
      "chip": "ym2612"
    },
    {
      "channel": 3,
      "note": 86,
      "start": 5.143,
      "duration": 0.066,
      "velocity": 60,
      "chip": "ym2612"
    },
    {
      "channel": 0,
      "note": 54,
      "start": 5.3095,
      "duration": 0.098,
      "velocity": 111,
      "chip": "ym2612"
    },
    {
      "channel": 4,
      "note": 81,
      "start": 5.3105,
      "duration": 0.0975,
      "velocity": 119,
      "chip": "ym2612"
    },
    {
      "channel": 0,
      "note": 55,
      "start": 5.4414,
      "duration": 0.0762,
      "velocity": 111,
      "chip": "ym2612"
    },
    {
      "channel": 1,
      "note": 87,
      "start": 5.442,
      "duration": 0.0091,
      "velocity": 68,
      "chip": "ym2612"
    },
    {
      "channel": 2,
      "note": 93,
      "start": 5.4426,
      "duration": 0.0088,
      "velocity": 68,
      "chip": "ym2612"
    },
    {
      "channel": 4,
      "note": 81,
      "start": 5.4434,
      "duration": 0.0747,
      "velocity": 119,
      "chip": "ym2612"
    },
    {
      "channel": 3,
      "note": 87,
      "start": 5.4604,
      "duration": 0.0488,
      "velocity": 60,
      "chip": "ym2612"
    },
    {
      "channel": 0,
      "note": 54,
      "start": 5.5253,
      "duration": 0.0977,
      "velocity": 111,
      "chip": "ym2612"
    },
    {
      "channel": 4,
      "note": 81,
      "start": 5.5262,
      "duration": 0.0975,
      "velocity": 119,
      "chip": "ym2612"
    },
    {
      "channel": 1,
      "note": 88,
      "start": 5.5566,
      "duration": 0.0666,
      "velocity": 68,
      "chip": "ym2612"
    },
    {
      "channel": 2,
      "note": 93,
      "start": 5.5571,
      "duration": 0.0662,
      "velocity": 68,
      "chip": "ym2612"
    },
    {
      "channel": 0,
      "note": 52,
      "start": 5.6569,
      "duration": 0.0356,
      "velocity": 111,
      "chip": "ym2612"
    },
    {
      "channel": 4,
      "note": 81,
      "start": 5.6587,
      "duration": 0.0979,
      "velocity": 119,
      "chip": "ym2612"
    },
    {
      "channel": 3,
      "note": 88,
      "start": 5.6636,
      "duration": 0.0079,
      "velocity": 60,
      "chip": "ym2612"
    },
    {
      "channel": 0,
      "note": 57,
      "start": 5.7435,
      "duration": 0.0123,
      "velocity": 111,
      "chip": "ym2612"
    },
    {
      "channel": 1,
      "note": 93,
      "start": 5.7455,
      "duration": 0.0987,
      "velocity": 103,
      "chip": "ym2612"
    },
    {
      "channel": 2,
      "note": 88,
      "start": 5.7475,
      "duration": 0.0088,
      "velocity": 101,
      "chip": "ym2612"
    },
    {
      "channel": 0,
      "note": 45,
      "start": 5.7626,
      "duration": 0.0814,
      "velocity": 111,
      "chip": "ym2612"
    },
    {
      "channel": 2,
      "note": 81,
      "start": 5.7637,
      "duration": 0.081,
      "velocity": 101,
      "chip": "ym2612"
    },
    {
      "channel": 4,
      "note": 81,
      "start": 5.7645,
      "duration": 0.0812,
      "velocity": 119,
      "chip": "ym2612"
    },
    {
      "channel": 3,
      "note": 93,
      "start": 5.7717,
      "duration": 0.1428,
      "velocity": 103,
      "chip": "ym2612"
    },
    {
      "channel": 0,
      "note": 52,
      "start": 5.8947,
      "duration": 0.1368,
      "velocity": 111,
      "chip": "ym2612"
    },
    {
      "channel": 1,
      "note": 83,
      "start": 5.8957,
      "duration": 0.1361,
      "velocity": 103,
      "chip": "ym2612"
    },
    {
      "channel": 2,
      "note": 92,
      "start": 5.8974,
      "duration": 0.4513,
      "velocity": 90,
      "chip": "ym2612"
    },
    {
      "channel": 4,
      "note": 81,
      "start": 5.8986,
      "duration": 0.1338,
      "velocity": 119,
      "chip": "ym2612"
    },
    {
      "channel": 3,
      "note": 83,
      "start": 5.9206,
      "duration": 0.1609,
      "velocity": 103,
      "chip": "ym2612"
    },
    {
      "channel": 0,
      "note": 59,
      "start": 6.0655,
      "duration": 0.0966,
      "velocity": 111,
      "chip": "ym2612"
    },
    {
      "channel": 1,
      "note": 83,
      "start": 6.0661,
      "duration": 0.0961,
      "velocity": 103,
      "chip": "ym2612"
    },
    {
      "channel": 4,
      "note": 81,
      "start": 6.0672,
      "duration": 0.0958,
      "velocity": 119,
      "chip": "ym2612"
    },
    {
      "channel": 3,
      "note": 83,
      "start": 6.0865,
      "duration": 0.1244,
      "velocity": 103,
      "chip": "ym2612"
    },
    {
      "channel": 0,
      "note": 64,
      "start": 6.196,
      "duration": 0.1523,
      "velocity": 111,
      "chip": "ym2612"
    },
    {
      "channel": 1,
      "note": 83,
      "start": 6.1966,
      "duration": 0.1519,
      "velocity": 103,
      "chip": "ym2612"
    },
    {
      "channel": 4,
      "note": 81,
      "start": 6.1977,
      "duration": 0.1515,
      "velocity": 119,
      "chip": "ym2612"
    },
    {
      "channel": 3,
      "note": 83,
      "start": 6.2167,
      "duration": 0.18,
      "velocity": 103,
      "chip": "ym2612"
    },
    {
      "channel": 0,
      "note": 63,
      "start": 6.3823,
      "duration": 0.0807,
      "velocity": 111,
      "chip": "ym2612"
    },
    {
      "channel": 1,
      "note": 83,
      "start": 6.3829,
      "duration": 0.0804,
      "velocity": 103,
      "chip": "ym2612"
    },
    {
      "channel": 2,
      "note": 91,
      "start": 6.3834,
      "duration": 0.08,
      "velocity": 90,
      "chip": "ym2612"
    },
    {
      "channel": 4,
      "note": 81,
      "start": 6.3843,
      "duration": 0.0795,
      "velocity": 119,
      "chip": "ym2612"
    },
    {
      "channel": 3,
      "note": 83,
      "start": 6.4017,
      "duration": 0.1128,
      "velocity": 103,
      "chip": "ym2612"
    },
    {
      "channel": 0,
      "note": 62,
      "start": 6.4969,
      "duration": 0.1525,
      "velocity": 111,
      "chip": "ym2612"
    },
    {
      "channel": 1,
      "note": 84,
      "start": 6.4975,
      "duration": 0.152,
      "velocity": 103,
      "chip": "ym2612"
    },
    {
      "channel": 2,
      "note": 90,
      "start": 6.4981,
      "duration": 0.4706,
      "velocity": 90,
      "chip": "ym2612"
    },
    {
      "channel": 4,
      "note": 81,
      "start": 6.499,
      "duration": 0.1512,
      "velocity": 119,
      "chip": "ym2612"
    },
    {
      "channel": 3,
      "note": 84,
      "start": 6.5197,
      "duration": 0.1791,
      "velocity": 103,
      "chip": "ym2612"
    },
    {
      "channel": 0,
      "note": 60,
      "start": 6.6833,
      "duration": 0.0989,
      "velocity": 111,
      "chip": "ym2612"
    },
    {
      "channel": 1,
      "note": 81,
      "start": 6.6842,
      "duration": 0.0257,
      "velocity": 103,
      "chip": "ym2612"
    },
    {
      "channel": 4,
      "note": 81,
      "start": 6.6852,
      "duration": 0.0977,
      "velocity": 119,
      "chip": "ym2612"
    },
    {
      "channel": 3,
      "note": 81,
      "start": 6.7059,
      "duration": 0.1111,
      "velocity": 103,
      "chip": "ym2612"
    },
    {
      "channel": 1,
      "note": 78,
      "start": 6.7158,
      "duration": 0.0666,
      "velocity": 103,
      "chip": "ym2612"
    },
    {
      "channel": 0,
      "note": 57,
      "start": 6.816,
      "duration": 0.1523,
      "velocity": 111,
      "chip": "ym2612"
    },
    {
      "channel": 1,
      "note": 81,
      "start": 6.8167,
      "duration": 0.0345,
      "velocity": 103,
      "chip": "ym2612"
    },
    {
      "channel": 4,
      "note": 81,
      "start": 6.8178,
      "duration": 0.1513,
      "velocity": 119,
      "chip": "ym2612"
    },
    {
      "channel": 3,
      "note": 78,
      "start": 6.8236,
      "duration": 0.0087,
      "velocity": 103,
      "chip": "ym2612"
    },
    {
      "channel": 3,
      "note": 81,
      "start": 6.8371,
      "duration": 0.1661,
      "velocity": 103,
      "chip": "ym2612"
    },
    {
      "channel": 1,
      "note": 78,
      "start": 6.8852,
      "duration": 0.1979,
      "velocity": 103,
      "chip": "ym2612"
    },
    {
      "channel": 0,
      "note": 50,
      "start": 7.0023,
      "duration": 0.0806,
      "velocity": 111,
      "chip": "ym2612"
    },
    {
      "channel": 2,
      "note": 91,
      "start": 7.0031,
      "duration": 0.0802,
      "velocity": 90,
      "chip": "ym2612"
    },
    {
      "channel": 4,
      "note": 81,
      "start": 7.0039,
      "duration": 0.0798,
      "velocity": 119,
      "chip": "ym2612"
    },
    {
      "channel": 3,
      "note": 78,
      "start": 7.0095,
      "duration": 0.1266,
      "velocity": 103,
      "chip": "ym2612"
    },
    {
      "channel": 0,
      "note": 52,
      "start": 7.1169,
      "duration": 0.0288,
      "velocity": 111,
      "chip": "ym2612"
    },
    {
      "channel": 1,
      "note": 83,
      "start": 7.1176,
      "duration": 0.0284,
      "velocity": 103,
      "chip": "ym2612"
    },
    {
      "channel": 2,
      "note": 92,
      "start": 7.1182,
      "duration": 0.028,
      "velocity": 90,
      "chip": "ym2612"
    },
    {
      "channel": 4,
      "note": 81,
      "start": 7.1203,
      "duration": 0.0414,
      "velocity": 127,
      "chip": "ym2612"
    },
    {
      "channel": 3,
      "note": 83,
      "start": 7.1424,
      "duration": 0.0231,
      "velocity": 103,
      "chip": "ym2612"
    },
    {
      "channel": 0,
      "note": 59,
      "start": 7.1503,
      "duration": 0.0252,
      "velocity": 111,
      "chip": "ym2612"
    },
    {
      "channel": 1,
      "note": 83,
      "start": 7.151,
      "duration": 0.0247,
      "velocity": 103,
      "chip": "ym2612"
    },
    {
      "channel": 2,
      "note": 92,
      "start": 7.1517,
      "duration": 0.0242,
      "velocity": 90,
      "chip": "ym2612"
    },
    {
      "channel": 4,
      "note": 81,
      "start": 7.1662,
      "duration": 0.0418,
      "velocity": 127,
      "chip": "ym2612"
    },
    {
      "channel": 3,
      "note": 83,
      "start": 7.1717,
      "duration": 0.0271,
      "velocity": 103,
      "chip": "ym2612"
    },
    {
      "channel": 0,
      "note": 52,
      "start": 7.1816,
      "duration": 0.0256,
      "velocity": 111,
      "chip": "ym2612"
    },
    {
      "channel": 1,
      "note": 83,
      "start": 7.1823,
      "duration": 0.0251,
      "velocity": 103,
      "chip": "ym2612"
    },
    {
      "channel": 2,
      "note": 92,
      "start": 7.183,
      "duration": 0.0246,
      "velocity": 90,
      "chip": "ym2612"
    },
    {
      "channel": 3,
      "note": 83,
      "start": 7.2041,
      "duration": 0.0226,
      "velocity": 103,
      "chip": "ym2612"
    },
    {
      "channel": 0,
      "note": 52,
      "start": 7.2117,
      "duration": 0.0238,
      "velocity": 111,
      "chip": "ym2612"
    },
    {
      "channel": 1,
      "note": 83,
      "start": 7.2124,
      "duration": 0.0233,
      "velocity": 103,
      "chip": "ym2612"
    },
    {
      "channel": 2,
      "note": 92,
      "start": 7.213,
      "duration": 0.0229,
      "velocity": 90,
      "chip": "ym2612"
    },
    {
      "channel": 4,
      "note": 81,
      "start": 7.2138,
      "duration": 0.0397,
      "velocity": 127,
      "chip": "ym2612"
    },
    {
      "channel": 3,
      "note": 83,
      "start": 7.2321,
      "duration": 0.0255,
      "velocity": 103,
      "chip": "ym2612"
    },
    {
      "channel": 0,
      "note": 59,
      "start": 7.24,
      "duration": 0.027,
      "velocity": 111,
      "chip": "ym2612"
    },
    {
      "channel": 1,
      "note": 83,
      "start": 7.2407,
      "duration": 0.0265,
      "velocity": 103,
      "chip": "ym2612"
    },
    {
      "channel": 2,
      "note": 92,
      "start": 7.2413,
      "duration": 0.026,
      "velocity": 90,
      "chip": "ym2612"
    },
    {
      "channel": 4,
      "note": 81,
      "start": 7.2582,
      "duration": 0.0394,
      "velocity": 127,
      "chip": "ym2612"
    },
    {
      "channel": 3,
      "note": 83,
      "start": 7.2635,
      "duration": 0.0241,
      "velocity": 103,
      "chip": "ym2612"
    },
    {
      "channel": 0,
      "note": 64,
      "start": 7.2716,
      "duration": 0.0251,
      "velocity": 111,
      "chip": "ym2612"
    },
    {
      "channel": 1,
      "note": 83,
      "start": 7.2727,
      "duration": 0.0242,
      "velocity": 103,
      "chip": "ym2612"
    },
    {
      "channel": 2,
      "note": 92,
      "start": 7.2734,
      "duration": 0.0237,
      "velocity": 90,
      "chip": "ym2612"
    },
    {
      "channel": 3,
      "note": 83,
      "start": 7.2929,
      "duration": 0.0278,
      "velocity": 103,
      "chip": "ym2612"
    },
    {
      "channel": 0,
      "note": 62,
      "start": 7.3024,
      "duration": 0.0117,
      "velocity": 111,
      "chip": "ym2612"
    },
    {
      "channel": 1,
      "note": 84,
      "start": 7.3032,
      "duration": 0.0112,
      "velocity": 103,
      "chip": "ym2612"
    },
    {
      "channel": 2,
      "note": 93,
      "start": 7.3038,
      "duration": 0.0257,
      "velocity": 90,
      "chip": "ym2612"
    },
    {
      "channel": 4,
      "note": 81,
      "start": 7.3057,
      "duration": 0.3249,
      "velocity": 119,
      "chip": "ym2612"
    },
    {
      "channel": 3,
      "note": 84,
      "start": 7.3256,
      "duration": 0.0086,
      "velocity": 103,
      "chip": "ym2612"
    },
    {
      "channel": 1,
      "note": 69,
      "start": 7.4359,
      "duration": 0.034,
      "velocity": 87,
      "chip": "ym2612"
    },
    {
      "channel": 2,
      "note": 92,
      "start": 7.4366,
      "duration": 0.0077,
      "velocity": 90,
      "chip": "ym2612"
    },
    {
      "channel": 2,
      "note": 91,
      "start": 7.448,
      "duration": 0.0089,
      "velocity": 90,
      "chip": "ym2612"
    },
    {
      "channel": 3,
      "note": 69,
      "start": 7.4532,
      "duration": 0.0521,
      "velocity": 87,
      "chip": "ym2612"
    },
    {
      "channel": 2,
      "note": 90,
      "start": 7.4626,
      "duration": 0.0075,
      "velocity": 90,
      "chip": "ym2612"
    },
    {
      "channel": 1,
      "note": 72,
      "start": 7.4922,
      "duration": 0.225,
      "velocity": 87,
      "chip": "ym2612"
    },
    {
      "channel": 2,
      "note": 89,
      "start": 7.4928,
      "duration": 0.0067,
      "velocity": 90,
      "chip": "ym2612"
    },
    {
      "channel": 2,
      "note": 88,
      "start": 7.5052,
      "duration": 0.0241,
      "velocity": 90,
      "chip": "ym2612"
    },
    {
      "channel": 3,
      "note": 72,
      "start": 7.5101,
      "duration": 0.3425,
      "velocity": 87,
      "chip": "ym2612"
    },
    {
      "channel": 2,
      "note": 87,
      "start": 7.5632,
      "duration": 0.0667,
      "velocity": 90,
      "chip": "ym2612"
    },
    {
      "channel": 2,
      "note": 86,
      "start": 7.6806,
      "duration": 0.0105,
      "velocity": 90,
      "chip": "ym2612"
    },
    {
      "channel": 4,
      "note": 81,
      "start": 7.6828,
      "duration": 0.009,
      "velocity": 127,
      "chip": "ym2612"
    },
    {
      "channel": 2,
      "note": 85,
      "start": 7.6979,
      "duration": 0.02,
      "velocity": 90,
      "chip": "ym2612"
    },
    {
      "channel": 4,
      "note": 81,
      "start": 7.6989,
      "duration": 0.0196,
      "velocity": 127,
      "chip": "ym2612"
    },
    {
      "channel": 1,
      "note": 69,
      "start": 7.7514,
      "duration": 0.2533,
      "velocity": 87,
      "chip": "ym2612"
    },
    {
      "channel": 2,
      "note": 84,
      "start": 7.7519,
      "duration": 0.0662,
      "velocity": 90,
      "chip": "ym2612"
    },
    {
      "channel": 4,
      "note": 81,
      "start": 7.754,
      "duration": 0.0646,
      "velocity": 119,
      "chip": "ym2612"
    },
    {
      "channel": 0,
      "note": 57,
      "start": 7.8517,
      "duration": 0.1528,
      "velocity": 111,
      "chip": "ym2612"
    },
    {
      "channel": 2,
      "note": 83,
      "start": 7.8524,
      "duration": 0.0107,
      "velocity": 90,
      "chip": "ym2612"
    },
    {
      "channel": 4,
      "note": 81,
      "start": 7.8536,
      "duration": 0.1518,
      "velocity": 119,
      "chip": "ym2612"
    },
    {
      "channel": 3,
      "note": 69,
      "start": 7.8592,
      "duration": 0.1984,
      "velocity": 87,
      "chip": "ym2612"
    },
    {
      "channel": 2,
      "note": 82,
      "start": 7.8685,
      "duration": 0.0357,
      "velocity": 90,
      "chip": "ym2612"
    },
    {
      "channel": 2,
      "note": 81,
      "start": 7.9382,
      "duration": 0.0667,
      "velocity": 90,
      "chip": "ym2612"
    },
    {
      "channel": 0,
      "note": 55,
      "start": 8.0384,
      "duration": 0.0982,
      "velocity": 111,
      "chip": "ym2612"
    },
    {
      "channel": 1,
      "note": 76,
      "start": 8.0402,
      "duration": 0.0121,
      "velocity": 87,
      "chip": "ym2612"
    },
    {
      "channel": 2,
      "note": 69,
      "start": 8.0423,
      "duration": 0.0102,
      "velocity": 87,
      "chip": "ym2612"
    },
    {
      "channel": 4,
      "note": 81,
      "start": 8.0432,
      "duration": 0.0946,
      "velocity": 119,
      "chip": "ym2612"
    },
    {
      "channel": 1,
      "note": 76,
      "start": 8.0569,
      "duration": 0.0106,
      "velocity": 87,
      "chip": "ym2612"
    },
    {
      "channel": 2,
      "note": 69,
      "start": 8.0574,
      "duration": 0.0102,
      "velocity": 87,
      "chip": "ym2612"
    },
    {
      "channel": 3,
      "note": 76,
      "start": 8.0638,
      "duration": 0.0095,
      "velocity": 87,
      "chip": "ym2612"
    },
    {
      "channel": 1,
      "note": 76,
      "start": 8.0722,
      "duration": 0.0649,
      "velocity": 87,
      "chip": "ym2612"
    },
    {
      "channel": 2,
      "note": 69,
      "start": 8.0731,
      "duration": 0.0643,
      "velocity": 87,
      "chip": "ym2612"
    },
    {
      "channel": 3,
      "note": 76,
      "start": 8.1045,
      "duration": 0.0678,
      "velocity": 87,
      "chip": "ym2612"
    },
    {
      "channel": 0,
      "note": 54,
      "start": 8.1709,
      "duration": 0.1361,
      "velocity": 111,
      "chip": "ym2612"
    },
    {
      "channel": 1,
      "note": 75,
      "start": 8.1715,
      "duration": 0.0111,
      "velocity": 87,
      "chip": "ym2612"
    },
    {
      "channel": 2,
      "note": 68,
      "start": 8.1722,
      "duration": 0.0107,
      "velocity": 87,
      "chip": "ym2612"
    },
    {
      "channel": 4,
      "note": 81,
      "start": 8.1731,
      "duration": 0.1348,
      "velocity": 119,
      "chip": "ym2612"
    },
    {
      "channel": 3,
      "note": 76,
      "start": 8.179,
      "duration": 0.0092,
      "velocity": 87,
      "chip": "ym2612"
    },
    {
      "channel": 1,
      "note": 76,
      "start": 8.1874,
      "duration": 0.0191,
      "velocity": 87,
      "chip": "ym2612"
    },
    {
      "channel": 2,
      "note": 69,
      "start": 8.188,
      "duration": 0.0187,
      "velocity": 87,
      "chip": "ym2612"
    },
    {
      "channel": 3,
      "note": 75,
      "start": 8.1939,
      "duration": 0.0474,
      "velocity": 87,
      "chip": "ym2612"
    },
    {
      "channel": 1,
      "note": 76,
      "start": 8.2405,
      "duration": 0.0667,
      "velocity": 87,
      "chip": "ym2612"
    },
    {
      "channel": 2,
      "note": 69,
      "start": 8.2411,
      "duration": 0.0663,
      "velocity": 87,
      "chip": "ym2612"
    },
    {
      "channel": 3,
      "note": 76,
      "start": 8.2745,
      "duration": 0.0679,
      "velocity": 87,
      "chip": "ym2612"
    },
    {
      "channel": 0,
      "note": 53,
      "start": 8.3409,
      "duration": 0.0969,
      "velocity": 111,
      "chip": "ym2612"
    },
    {
      "channel": 1,
      "note": 75,
      "start": 8.3416,
      "duration": 0.0123,
      "velocity": 87,
      "chip": "ym2612"
    },
    {
      "channel": 2,
      "note": 68,
      "start": 8.3422,
      "duration": 0.0119,
      "velocity": 87,
      "chip": "ym2612"
    },
    {
      "channel": 4,
      "note": 81,
      "start": 8.3432,
      "duration": 0.0955,
      "velocity": 119,
      "chip": "ym2612"
    },
    {
      "channel": 3,
      "note": 76,
      "start": 8.3498,
      "duration": 0.0093,
      "velocity": 87,
      "chip": "ym2612"
    },
    {
      "channel": 1,
      "note": 76,
      "start": 8.3584,
      "duration": 0.009,
      "velocity": 87,
      "chip": "ym2612"
    },
    {
      "channel": 2,
      "note": 69,
      "start": 8.359,
      "duration": 0.0086,
      "velocity": 87,
      "chip": "ym2612"
    },
    {
      "channel": 3,
      "note": 75,
      "start": 8.3639,
      "duration": 0.0092,
      "velocity": 87,
      "chip": "ym2612"
    },
    {
      "channel": 1,
      "note": 76,
      "start": 8.3723,
      "duration": 0.0657,
      "velocity": 87,
      "chip": "ym2612"
    },
    {
      "channel": 2,
      "note": 69,
      "start": 8.3728,
      "duration": 0.0654,
      "velocity": 87,
      "chip": "ym2612"
    },
    {
      "channel": 3,
      "note": 76,
      "start": 8.4054,
      "duration": 0.0679,
      "velocity": 87,
      "chip": "ym2612"
    },
    {
      "channel": 0,
      "note": 52,
      "start": 8.4717,
      "duration": 0.151,
      "velocity": 111,
      "chip": "ym2612"
    },
    {
      "channel": 1,
      "note": 75,
      "start": 8.4724,
      "duration": 0.0105,
      "velocity": 87,
      "chip": "ym2612"
    },
    {
      "channel": 2,
      "note": 68,
      "start": 8.4731,
      "duration": 0.01,
      "velocity": 87,
      "chip": "ym2612"
    },
    {
      "channel": 4,
      "note": 81,
      "start": 8.474,
      "duration": 0.1496,
      "velocity": 119,
      "chip": "ym2612"
    },
    {
      "channel": 3,
      "note": 76,
      "start": 8.4793,
      "duration": 0.0089,
      "velocity": 87,
      "chip": "ym2612"
    },
    {
      "channel": 1,
      "note": 76,
      "start": 8.4875,
      "duration": 0.0348,
      "velocity": 87,
      "chip": "ym2612"
    },
    {
      "channel": 2,
      "note": 69,
      "start": 8.488,
      "duration": 0.0345,
      "velocity": 87,
      "chip": "ym2612"
    },
    {
      "channel": 3,
      "note": 75,
      "start": 8.4947,
      "duration": 0.0624,
      "velocity": 87,
      "chip": "ym2612"
    },
    {
      "channel": 1,
      "note": 76,
      "start": 8.5563,
      "duration": 0.0666,
      "velocity": 87,
      "chip": "ym2612"
    },
    {
      "channel": 2,
      "note": 69,
      "start": 8.5569,
      "duration": 0.0663,
      "velocity": 87,
      "chip": "ym2612"
    },
    {
      "channel": 3,
      "note": 76,
      "start": 8.5902,
      "duration": 0.0679,
      "velocity": 87,
      "chip": "ym2612"
    },
    {
      "channel": 0,
      "note": 50,
      "start": 8.6566,
      "duration": 0.0986,
      "velocity": 111,
      "chip": "ym2612"
    },
    {
      "channel": 1,
      "note": 75,
      "start": 8.6573,
      "duration": 0.0108,
      "velocity": 87,
      "chip": "ym2612"
    },
    {
      "channel": 2,
      "note": 68,
      "start": 8.6579,
      "duration": 0.0104,
      "velocity": 87,
      "chip": "ym2612"
    },
    {
      "channel": 4,
      "note": 81,
      "start": 8.6589,
      "duration": 0.0972,
      "velocity": 119,
      "chip": "ym2612"
    },
    {
      "channel": 3,
      "note": 76,
      "start": 8.6639,
      "duration": 0.01,
      "velocity": 87,
      "chip": "ym2612"
    },
    {
      "channel": 1,
      "note": 76,
      "start": 8.6731,
      "duration": 0.0101,
      "velocity": 87,
      "chip": "ym2612"
    },
    {
      "channel": 2,
      "note": 69,
      "start": 8.6737,
      "duration": 0.0098,
      "velocity": 87,
      "chip": "ym2612"
    },
    {
      "channel": 3,
      "note": 75,
      "start": 8.6789,
      "duration": 0.01,
      "velocity": 87,
      "chip": "ym2612"
    },
    {
      "channel": 1,
      "note": 76,
      "start": 8.6881,
      "duration": 0.0673,
      "velocity": 87,
      "chip": "ym2612"
    },
    {
      "channel": 2,
      "note": 69,
      "start": 8.6887,
      "duration": 0.0669,
      "velocity": 87,
      "chip": "ym2612"
    },
    {
      "channel": 3,
      "note": 76,
      "start": 8.7061,
      "duration": 0.0845,
      "velocity": 87,
      "chip": "ym2612"
    },
    {
      "channel": 0,
      "note": 49,
      "start": 8.7891,
      "duration": 0.1344,
      "velocity": 111,
      "chip": "ym2612"
    },
    {
      "channel": 1,
      "note": 75,
      "start": 8.7898,
      "duration": 0.01,
      "velocity": 87,
      "chip": "ym2612"
    },
    {
      "channel": 2,
      "note": 69,
      "start": 8.7904,
      "duration": 0.0096,
      "velocity": 87,
      "chip": "ym2612"
    },
    {
      "channel": 4,
      "note": 81,
      "start": 8.7913,
      "duration": 0.133,
      "velocity": 119,
      "chip": "ym2612"
    },
    {
      "channel": 3,
      "note": 76,
      "start": 8.7966,
      "duration": 0.0084,
      "velocity": 87,
      "chip": "ym2612"
    },
    {
      "channel": 1,
      "note": 74,
      "start": 8.8043,
      "duration": 0.0187,
      "velocity": 87,
      "chip": "ym2612"
    },
    {
      "channel": 2,
      "note": 69,
      "start": 8.8049,
      "duration": 0.0184,
      "velocity": 87,
      "chip": "ym2612"
    },
    {
      "channel": 3,
      "note": 75,
      "start": 8.8099,
      "duration": 0.0478,
      "velocity": 87,
      "chip": "ym2612"
    },
    {
      "channel": 1,
      "note": 72,
      "start": 8.857,
      "duration": 0.0667,
      "velocity": 87,
      "chip": "ym2612"
    },
    {
      "channel": 2,
      "note": 69,
      "start": 8.8576,
      "duration": 0.0663,
      "velocity": 87,
      "chip": "ym2612"
    },
    {
      "channel": 3,
      "note": 74,
      "start": 8.891,
      "duration": 0.0678,
      "velocity": 87,
      "chip": "ym2612"
    },
    {
      "channel": 0,
      "note": 47,
      "start": 8.9573,
      "duration": 0.0973,
      "velocity": 111,
      "chip": "ym2612"
    },
    {
      "channel": 1,
      "note": 69,
      "start": 8.958,
      "duration": 0.0968,
      "velocity": 87,
      "chip": "ym2612"
    },
    {
      "channel": 2,
      "note": 64,
      "start": 8.9585,
      "duration": 0.0964,
      "velocity": 87,
      "chip": "ym2612"
    },
    {
      "channel": 4,
      "note": 81,
      "start": 8.9595,
      "duration": 0.096,
      "velocity": 119,
      "chip": "ym2612"
    },
    {
      "channel": 3,
      "note": 72,
      "start": 8.9641,
      "duration": 0.0104,
      "velocity": 87,
      "chip": "ym2612"
    },
    {
      "channel": 3,
      "note": 69,
      "start": 8.9792,
      "duration": 0.1252,
      "velocity": 87,
      "chip": "ym2612"
    },
    {
      "channel": 0,
      "note": 45,
      "start": 9.0885,
      "duration": 0.1518,
      "velocity": 111,
      "chip": "ym2612"
    },
    {
      "channel": 1,
      "note": 75,
      "start": 9.0891,
      "duration": 0.0098,
      "velocity": 87,
      "chip": "ym2612"
    },
    {
      "channel": 2,
      "note": 72,
      "start": 9.0897,
      "duration": 0.0094,
      "velocity": 87,
      "chip": "ym2612"
    },
    {
      "channel": 4,
      "note": 81,
      "start": 9.0909,
      "duration": 0.1505,
      "velocity": 119,
      "chip": "ym2612"
    },
    {
      "channel": 1,
      "note": 76,
      "start": 9.1033,
      "duration": 0.0365,
      "velocity": 87,
      "chip": "ym2612"
    },
    {
      "channel": 2,
      "note": 73,
      "start": 9.1039,
      "duration": 0.0362,
      "velocity": 87,
      "chip": "ym2612"
    },
    {
      "channel": 3,
      "note": 75,
      "start": 9.11,
      "duration": 0.065,
      "velocity": 87,
      "chip": "ym2612"
    },
    {
      "channel": 1,
      "note": 81,
      "start": 9.1743,
      "duration": 0.0665,
      "velocity": 87,
      "chip": "ym2612"
    },
    {
      "channel": 2,
      "note": 76,
      "start": 9.1748,
      "duration": 0.0662,
      "velocity": 87,
      "chip": "ym2612"
    },
    {
      "channel": 3,
      "note": 76,
      "start": 9.2083,
      "duration": 0.0677,
      "velocity": 87,
      "chip": "ym2612"
    },
    {
      "channel": 0,
      "note": 49,
      "start": 9.2745,
      "duration": 0.0793,
      "velocity": 111,
      "chip": "ym2612"
    },
    {
      "channel": 1,
      "note": 75,
      "start": 9.2752,
      "duration": 0.0099,
      "velocity": 87,
      "chip": "ym2612"
    },
    {
      "channel": 2,
      "note": 72,
      "start": 9.2758,
      "duration": 0.0096,
      "velocity": 87,
      "chip": "ym2612"
    },
    {
      "channel": 4,
      "note": 81,
      "start": 9.2767,
      "duration": 0.078,
      "velocity": 119,
      "chip": "ym2612"
    },
    {
      "channel": 3,
      "note": 81,
      "start": 9.2817,
      "duration": 0.0087,
      "velocity": 87,
      "chip": "ym2612"
    },
    {
      "channel": 1,
      "note": 76,
      "start": 9.2897,
      "duration": 0.0097,
      "velocity": 87,
      "chip": "ym2612"
    },
    {
      "channel": 2,
      "note": 73,
      "start": 9.2902,
      "duration": 0.0094,
      "velocity": 87,
      "chip": "ym2612"
    },
    {
      "channel": 3,
      "note": 75,
      "start": 9.2951,
      "duration": 0.0092,
      "velocity": 87,
      "chip": "ym2612"
    },
    {
      "channel": 1,
      "note": 81,
      "start": 9.3036,
      "duration": 0.0505,
      "velocity": 87,
      "chip": "ym2612"
    },
    {
      "channel": 2,
      "note": 76,
      "start": 9.3041,
      "duration": 0.0502,
      "velocity": 87,
      "chip": "ym2612"
    },
    {
      "channel": 3,
      "note": 76,
      "start": 9.3215,
      "duration": 0.0845,
      "velocity": 87,
      "chip": "ym2612"
    },
    {
      "channel": 0,
      "note": 50,
      "start": 9.4046,
      "duration": 0.1353,
      "velocity": 111,
      "chip": "ym2612"
    },
    {
      "channel": 1,
      "note": 75,
      "start": 9.4053,
      "duration": 0.0113,
      "velocity": 87,
      "chip": "ym2612"
    },
    {
      "channel": 2,
      "note": 72,
      "start": 9.4058,
      "duration": 0.011,
      "velocity": 87,
      "chip": "ym2612"
    },
    {
      "channel": 4,
      "note": 81,
      "start": 9.4067,
      "duration": 0.1341,
      "velocity": 119,
      "chip": "ym2612"
    },
    {
      "channel": 3,
      "note": 81,
      "start": 9.4125,
      "duration": 0.0093,
      "velocity": 87,
      "chip": "ym2612"
    },
    {
      "channel": 1,
      "note": 74,
      "start": 9.421,
      "duration": 0.0185,
      "velocity": 87,
      "chip": "ym2612"
    },
    {
      "channel": 2,
      "note": 71,
      "start": 9.4216,
      "duration": 0.0182,
      "velocity": 87,
      "chip": "ym2612"
    },
    {
      "channel": 3,
      "note": 75,
      "start": 9.427,
      "duration": 0.0472,
      "velocity": 87,
      "chip": "ym2612"
    },
    {
      "channel": 1,
      "note": 72,
      "start": 9.4736,
      "duration": 0.0666,
      "velocity": 87,
      "chip": "ym2612"
    },
    {
      "channel": 2,
      "note": 69,
      "start": 9.4741,
      "duration": 0.0663,
      "velocity": 87,
      "chip": "ym2612"
    },
    {
      "channel": 3,
      "note": 74,
      "start": 9.5076,
      "duration": 0.0676,
      "velocity": 87,
      "chip": "ym2612"
    },
    {
      "channel": 0,
      "note": 51,
      "start": 9.5739,
      "duration": 0.0963,
      "velocity": 111,
      "chip": "ym2612"
    },
    {
      "channel": 1,
      "note": 69,
      "start": 9.5744,
      "duration": 0.0099,
      "velocity": 87,
      "chip": "ym2612"
    },
    {
      "channel": 2,
      "note": 64,
      "start": 9.575,
      "duration": 0.0095,
      "velocity": 87,
      "chip": "ym2612"
    },
    {
      "channel": 4,
      "note": 81,
      "start": 9.576,
      "duration": 0.0951,
      "velocity": 119,
      "chip": "ym2612"
    },
    {
      "channel": 3,
      "note": 72,
      "start": 9.581,
      "duration": 0.0102,
      "velocity": 87,
      "chip": "ym2612"
    },
    {
      "channel": 1,
      "note": 72,
      "start": 9.5905,
      "duration": 0.0095,
      "velocity": 87,
      "chip": "ym2612"
    },
    {
      "channel": 2,
      "note": 67,
      "start": 9.591,
      "duration": 0.0093,
      "velocity": 87,
      "chip": "ym2612"
    },
    {
      "channel": 3,
      "note": 69,
      "start": 9.5962,
      "duration": 0.009,
      "velocity": 87,
      "chip": "ym2612"
    },
    {
      "channel": 1,
      "note": 69,
      "start": 9.6045,
      "duration": 0.066,
      "velocity": 87,
      "chip": "ym2612"
    },
    {
      "channel": 2,
      "note": 64,
      "start": 9.605,
      "duration": 0.0657,
      "velocity": 87,
      "chip": "ym2612"
    },
    {
      "channel": 3,
      "note": 72,
      "start": 9.6379,
      "duration": 0.0676,
      "velocity": 87,
      "chip": "ym2612"
    },
    {
      "channel": 0,
      "note": 52,
      "start": 9.7041,
      "duration": 0.0974,
      "velocity": 111,
      "chip": "ym2612"
    },
    {
      "channel": 1,
      "note": 72,
      "start": 9.7047,
      "duration": 0.0352,
      "velocity": 87,
      "chip": "ym2612"
    },
    {
      "channel": 2,
      "note": 57,
      "start": 9.7053,
      "duration": 0.0349,
      "velocity": 87,
      "chip": "ym2612"
    },
    {
      "channel": 4,
      "note": 81,
      "start": 9.7063,
      "duration": 0.0962,
      "velocity": 119,
      "chip": "ym2612"
    },
    {
      "channel": 3,
      "note": 69,
      "start": 9.7116,
      "duration": 0.0087,
      "velocity": 87,
      "chip": "ym2612"
    },
    {
      "channel": 3,
      "note": 72,
      "start": 9.7253,
      "duration": 0.0825,
      "velocity": 87,
      "chip": "ym2612"
    },
    {
      "channel": 1,
      "note": 69,
      "start": 9.7907,
      "duration": 0.0111,
      "velocity": 87,
      "chip": "ym2612"
    },
    {
      "channel": 2,
      "note": 64,
      "start": 9.7912,
      "duration": 0.0107,
      "velocity": 87,
      "chip": "ym2612"
    },
    {
      "channel": 0,
      "note": 64,
      "start": 9.8064,
      "duration": 0.0248,
      "velocity": 111,
      "chip": "ym2612"
    },
    {
      "channel": 1,
      "note": 63,
      "start": 9.8071,
      "duration": 0.0242,
      "velocity": 87,
      "chip": "ym2612"
    },
    {
      "channel": 2,
      "note": 60,
      "start": 9.8077,
      "duration": 0.0239,
      "velocity": 87,
      "chip": "ym2612"
    },
    {
      "channel": 4,
      "note": 81,
      "start": 9.8085,
      "duration": 0.0381,
      "velocity": 119,
      "chip": "ym2612"
    },
    {
      "channel": 3,
      "note": 69,
      "start": 9.8141,
      "duration": 0.0079,
      "velocity": 87,
      "chip": "ym2612"
    },
    {
      "channel": 3,
      "note": 63,
      "start": 9.827,
      "duration": 0.0229,
      "velocity": 87,
      "chip": "ym2612"
    },
    {
      "channel": 0,
      "note": 52,
      "start": 9.8357,
      "duration": 0.1028,
      "velocity": 111,
      "chip": "ym2612"
    },
    {
      "channel": 1,
      "note": 62,
      "start": 9.8363,
      "duration": 0.1116,
      "velocity": 87,
      "chip": "ym2612"
    },
    {
      "channel": 2,
      "note": 59,
      "start": 9.8369,
      "duration": 0.1112,
      "velocity": 87,
      "chip": "ym2612"
    },
    {
      "channel": 4,
      "note": 81,
      "start": 9.8506,
      "duration": 0.0507,
      "velocity": 119,
      "chip": "ym2612"
    },
    {
      "channel": 3,
      "note": 62,
      "start": 9.857,
      "duration": 0.0913,
      "velocity": 87,
      "chip": "ym2612"
    },
    {
      "channel": 4,
      "note": 81,
      "start": 9.9093,
      "duration": 0.0392,
      "velocity": 119,
      "chip": "ym2612"
    },
    {
      "channel": 0,
      "note": 45,
      "start": 9.9535,
      "duration": 0.1529,
      "velocity": 111,
      "chip": "ym2612"
    },
    {
      "channel": 1,
      "note": 62,
      "start": 9.9556,
      "duration": 0.5526,
      "velocity": 87,
      "chip": "ym2612"
    },
    {
      "channel": 3,
      "note": 62,
      "start": 9.9595,
      "duration": 0.5491,
      "velocity": 100,
      "chip": "ym2612"
    },
    {
      "channel": 4,
      "note": 81,
      "start": 9.9613,
      "duration": 0.0117,
      "velocity": 127,
      "chip": "ym2612"
    },
    {
      "channel": 4,
      "note": 81,
      "start": 9.9789,
      "duration": 0.0121,
      "velocity": 127,
      "chip": "ym2612"
    },
    {
      "channel": 4,
      "note": 81,
      "start": 10.024,
      "duration": 0.0835,
      "velocity": 127,
      "chip": "ym2612"
    },
    {
      "channel": 2,
      "note": 59,
      "start": 10.0742,
      "duration": 0.5368,
      "velocity": 87,
      "chip": "ym2612"
    },
    {
      "channel": 0,
      "note": 55,
      "start": 10.1402,
      "duration": 0.0824,
      "velocity": 111,
      "chip": "ym2612"
    },
    {
      "channel": 4,
      "note": 81,
      "start": 10.1429,
      "duration": 0.0258,
      "velocity": 119,
      "chip": "ym2612"
    },
    {
      "channel": 4,
      "note": 81,
      "start": 10.1748,
      "duration": 0.0486,
      "velocity": 127,
      "chip": "ym2612"
    },
    {
      "channel": 0,
      "note": 54,
      "start": 10.2566,
      "duration": 0.1529,
      "velocity": 111,
      "chip": "ym2612"
    },
    {
      "channel": 4,
      "note": 81,
      "start": 10.258,
      "duration": 0.012,
      "velocity": 127,
      "chip": "ym2612"
    },
    {
      "channel": 4,
      "note": 81,
      "start": 10.2749,
      "duration": 0.0348,
      "velocity": 127,
      "chip": "ym2612"
    },
    {
      "channel": 4,
      "note": 81,
      "start": 10.3435,
      "duration": 0.0667,
      "velocity": 127,
      "chip": "ym2612"
    },
    {
      "channel": 0,
      "note": 52,
      "start": 10.4433,
      "duration": 0.0983,
      "velocity": 111,
      "chip": "ym2612"
    },
    {
      "channel": 4,
      "note": 81,
      "start": 10.4456,
      "duration": 0.024,
      "velocity": 119,
      "chip": "ym2612"
    },
    {
      "channel": 4,
      "note": 81,
      "start": 10.4768,
      "duration": 0.0655,
      "velocity": 127,
      "chip": "ym2612"
    },
    {
      "channel": 0,
      "note": 50,
      "start": 10.5755,
      "duration": 0.0855,
      "velocity": 111,
      "chip": "ym2612"
    },
    {
      "channel": 1,
      "note": 69,
      "start": 10.5762,
      "duration": 0.0344,
      "velocity": 87,
      "chip": "ym2612"
    },
    {
      "channel": 3,
      "note": 69,
      "start": 10.5771,
      "duration": 0.0341,
      "velocity": 100,
      "chip": "ym2612"
    },
    {
      "channel": 4,
      "note": 81,
      "start": 10.578,
      "duration": 0.0126,
      "velocity": 127,
      "chip": "ym2612"
    },
    {
      "channel": 4,
      "note": 81,
      "start": 10.5968,
      "duration": 0.0148,
      "velocity": 127,
      "chip": "ym2612"
    },
    {
      "channel": 1,
      "note": 66,
      "start": 10.6446,
      "duration": 0.0166,
      "velocity": 87,
      "chip": "ym2612"
    },
    {
      "channel": 3,
      "note": 66,
      "start": 10.6455,
      "duration": 0.0169,
      "velocity": 100,
      "chip": "ym2612"
    },
    {
      "channel": 4,
      "note": 81,
      "start": 10.6461,
      "duration": 0.0169,
      "velocity": 127,
      "chip": "ym2612"
    },
    {
      "channel": 2,
      "note": 69,
      "start": 10.652,
      "duration": 0.0406,
      "velocity": 87,
      "chip": "ym2612"
    },
    {
      "channel": 0,
      "note": 54,
      "start": 10.67,
      "duration": 0.0818,
      "velocity": 111,
      "chip": "ym2612"
    },
    {
      "channel": 1,
      "note": 69,
      "start": 10.6706,
      "duration": 0.0331,
      "velocity": 87,
      "chip": "ym2612"
    },
    {
      "channel": 3,
      "note": 69,
      "start": 10.6719,
      "duration": 0.033,
      "velocity": 100,
      "chip": "ym2612"
    },
    {
      "channel": 4,
      "note": 81,
      "start": 10.6739,
      "duration": 0.0312,
      "velocity": 119,
      "chip": "ym2612"
    },
    {
      "channel": 2,
      "note": 66,
      "start": 10.6988,
      "duration": 0.011,
      "velocity": 87,
      "chip": "ym2612"
    },
    {
      "channel": 1,
      "note": 71,
      "start": 10.7097,
      "duration": 0.0427,
      "velocity": 87,
      "chip": "ym2612"
    },
    {
      "channel": 3,
      "note": 71,
      "start": 10.7109,
      "duration": 0.0426,
      "velocity": 100,
      "chip": "ym2612"
    },
    {
      "channel": 4,
      "note": 81,
      "start": 10.7126,
      "duration": 0.0415,
      "velocity": 127,
      "chip": "ym2612"
    },
    {
      "channel": 2,
      "note": 69,
      "start": 10.72,
      "duration": 0.0903,
      "velocity": 87,
      "chip": "ym2612"
    },
    {
      "channel": 0,
      "note": 55,
      "start": 10.7861,
      "duration": 0.099,
      "velocity": 111,
      "chip": "ym2612"
    },
    {
      "channel": 1,
      "note": 69,
      "start": 10.7866,
      "duration": 0.0522,
      "velocity": 87,
      "chip": "ym2612"
    },
    {
      "channel": 3,
      "note": 69,
      "start": 10.7878,
      "duration": 0.0518,
      "velocity": 100,
      "chip": "ym2612"
    },
    {
      "channel": 4,
      "note": 81,
      "start": 10.7887,
      "duration": 0.0163,
      "velocity": 127,
      "chip": "ym2612"
    },
    {
      "channel": 4,
      "note": 81,
      "start": 10.8118,
      "duration": 0.0281,
      "velocity": 127,
      "chip": "ym2612"
    },
    {
      "channel": 2,
      "note": 71,
      "start": 10.8178,
      "duration": 0.0552,
      "velocity": 87,
      "chip": "ym2612"
    },
    {
      "channel": 1,
      "note": 72,
      "start": 10.8729,
      "duration": 0.0318,
      "velocity": 87,
      "chip": "ym2612"
    },
    {
      "channel": 3,
      "note": 72,
      "start": 10.8741,
      "duration": 0.0315,
      "velocity": 100,
      "chip": "ym2612"
    },
    {
      "channel": 4,
      "note": 81,
      "start": 10.8746,
      "duration": 0.0115,
      "velocity": 127,
      "chip": "ym2612"
    },
    {
      "channel": 2,
      "note": 69,
      "start": 10.8807,
      "duration": 0.0293,
      "velocity": 87,
      "chip": "ym2612"
    },
    {
      "channel": 0,
      "note": 56,
      "start": 10.8922,
      "duration": 0.0979,
      "velocity": 111,
      "chip": "ym2612"
    },
    {
      "channel": 4,
      "note": 81,
      "start": 10.8949,
      "duration": 0.0254,
      "velocity": 119,
      "chip": "ym2612"
    },
    {
      "channel": 1,
      "note": 72,
      "start": 10.9098,
      "duration": 0.0805,
      "velocity": 87,
      "chip": "ym2612"
    },
    {
      "channel": 3,
      "note": 72,
      "start": 10.9107,
      "duration": 0.0801,
      "velocity": 100,
      "chip": "ym2612"
    },
    {
      "channel": 2,
      "note": 72,
      "start": 10.9149,
      "duration": 0.1099,
      "velocity": 87,
      "chip": "ym2612"
    },
    {
      "channel": 4,
      "note": 81,
      "start": 10.9281,
      "duration": 0.0629,
      "velocity": 127,
      "chip": "ym2612"
    },
    {
      "channel": 0,
      "note": 57,
      "start": 11.0241,
      "duration": 0.1356,
      "velocity": 111,
      "chip": "ym2612"
    },
    {
      "channel": 1,
      "note": 72,
      "start": 11.0247,
      "duration": 0.1352,
      "velocity": 87,
      "chip": "ym2612"
    },
    {
      "channel": 3,
      "note": 72,
      "start": 11.0256,
      "duration": 0.1348,
      "velocity": 100,
      "chip": "ym2612"
    },
    {
      "channel": 4,
      "note": 81,
      "start": 11.0265,
      "duration": 0.0104,
      "velocity": 127,
      "chip": "ym2612"
    },
    {
      "channel": 2,
      "note": 72,
      "start": 11.0327,
      "duration": 0.0604,
      "velocity": 87,
      "chip": "ym2612"
    },
    {
      "channel": 4,
      "note": 81,
      "start": 11.042,
      "duration": 0.0179,
      "velocity": 127,
      "chip": "ym2612"
    },
    {
      "channel": 4,
      "note": 81,
      "start": 11.0939,
      "duration": 0.0667,
      "velocity": 127,
      "chip": "ym2612"
    },
    {
      "channel": 2,
      "note": 72,
      "start": 11.1271,
      "duration": 0.1201,
      "velocity": 87,
      "chip": "ym2612"
    },
    {
      "channel": 0,
      "note": 55,
      "start": 11.2105,
      "duration": 0.0814,
      "velocity": 111,
      "chip": "ym2612"
    },
    {
      "channel": 1,
      "note": 72,
      "start": 11.211,
      "duration": 0.0308,
      "velocity": 87,
      "chip": "ym2612"
    },
    {
      "channel": 3,
      "note": 72,
      "start": 11.2119,
      "duration": 0.0305,
      "velocity": 100,
      "chip": "ym2612"
    },
    {
      "channel": 4,
      "note": 81,
      "start": 11.2136,
      "duration": 0.0292,
      "velocity": 119,
      "chip": "ym2612"
    },
    {
      "channel": 1,
      "note": 69,
      "start": 11.2471,
      "duration": 0.0449,
      "velocity": 87,
      "chip": "ym2612"
    },
    {
      "channel": 3,
      "note": 69,
      "start": 11.248,
      "duration": 0.0452,
      "velocity": 100,
      "chip": "ym2612"
    },
    {
      "channel": 4,
      "note": 81,
      "start": 11.2497,
      "duration": 0.0441,
      "velocity": 127,
      "chip": "ym2612"
    },
    {
      "channel": 2,
      "note": 72,
      "start": 11.2596,
      "duration": 0.09,
      "velocity": 87,
      "chip": "ym2612"
    },
    {
      "channel": 0,
      "note": 54,
      "start": 11.3258,
      "duration": 0.1512,
      "velocity": 111,
      "chip": "ym2612"
    },
    {
      "channel": 1,
      "note": 66,
      "start": 11.3264,
      "duration": 0.0502,
      "velocity": 87,
      "chip": "ym2612"
    },
    {
      "channel": 3,
      "note": 66,
      "start": 11.3277,
      "duration": 0.0496,
      "velocity": 100,
      "chip": "ym2612"
    },
    {
      "channel": 4,
      "note": 81,
      "start": 11.3286,
      "duration": 0.0138,
      "velocity": 127,
      "chip": "ym2612"
    },
    {
      "channel": 4,
      "note": 81,
      "start": 11.3511,
      "duration": 0.0265,
      "velocity": 127,
      "chip": "ym2612"
    },
    {
      "channel": 2,
      "note": 69,
      "start": 11.3571,
      "duration": 0.0536,
      "velocity": 87,
      "chip": "ym2612"
    },
    {
      "channel": 1,
      "note": 69,
      "start": 11.4105,
      "duration": 0.0666,
      "velocity": 87,
      "chip": "ym2612"
    },
    {
      "channel": 3,
      "note": 69,
      "start": 11.4117,
      "duration": 0.0662,
      "velocity": 100,
      "chip": "ym2612"
    },
    {
      "channel": 4,
      "note": 81,
      "start": 11.4124,
      "duration": 0.0658,
      "velocity": 127,
      "chip": "ym2612"
    },
    {
      "channel": 2,
      "note": 66,
      "start": 11.4444,
      "duration": 0.089,
      "velocity": 87,
      "chip": "ym2612"
    },
    {
      "channel": 0,
      "note": 53,
      "start": 11.5109,
      "duration": 0.0988,
      "velocity": 111,
      "chip": "ym2612"
    },
    {
      "channel": 1,
      "note": 69,
      "start": 11.5114,
      "duration": 0.0331,
      "velocity": 87,
      "chip": "ym2612"
    },
    {
      "channel": 3,
      "note": 69,
      "start": 11.5126,
      "duration": 0.0323,
      "velocity": 100,
      "chip": "ym2612"
    },
    {
      "channel": 4,
      "note": 81,
      "start": 11.5147,
      "duration": 0.0304,
      "velocity": 119,
      "chip": "ym2612"
    },
    {
      "channel": 2,
      "note": 69,
      "start": 11.5397,
      "duration": 0.0098,
      "velocity": 87,
      "chip": "ym2612"
    },
    {
      "channel": 1,
      "note": 71,
      "start": 11.5494,
      "duration": 0.0605,
      "velocity": 87,
      "chip": "ym2612"
    },
    {
      "channel": 3,
      "note": 71,
      "start": 11.5502,
      "duration": 0.0608,
      "velocity": 100,
      "chip": "ym2612"
    },
    {
      "channel": 4,
      "note": 81,
      "start": 11.5522,
      "duration": 0.0597,
      "velocity": 127,
      "chip": "ym2612"
    },
    {
      "channel": 2,
      "note": 69,
      "start": 11.5774,
      "duration": 0.088,
      "velocity": 87,
      "chip": "ym2612"
    },
    {
      "channel": 0,
      "note": 52,
      "start": 11.6436,
      "duration": 0.0844,
      "velocity": 111,
      "chip": "ym2612"
    },
    {
      "channel": 1,
      "note": 69,
      "start": 11.6441,
      "duration": 0.0353,
      "velocity": 87,
      "chip": "ym2612"
    },
    {
      "channel": 3,
      "note": 69,
      "start": 11.6457,
      "duration": 0.0346,
      "velocity": 100,
      "chip": "ym2612"
    },
    {
      "channel": 4,
      "note": 81,
      "start": 11.6466,
      "duration": 0.0137,
      "velocity": 127,
      "chip": "ym2612"
    },
    {
      "channel": 4,
      "note": 81,
      "start": 11.6669,
      "duration": 0.0136,
      "velocity": 127,
      "chip": "ym2612"
    },
    {
      "channel": 2,
      "note": 71,
      "start": 11.673,
      "duration": 0.0406,
      "velocity": 87,
      "chip": "ym2612"
    },
    {
      "channel": 1,
      "note": 73,
      "start": 11.7135,
      "duration": 0.0146,
      "velocity": 87,
      "chip": "ym2612"
    },
    {
      "channel": 3,
      "note": 73,
      "start": 11.7147,
      "duration": 0.0146,
      "velocity": 100,
      "chip": "ym2612"
    },
    {
      "channel": 4,
      "note": 81,
      "start": 11.7153,
      "duration": 0.0146,
      "velocity": 127,
      "chip": "ym2612"
    },
    {
      "channel": 2,
      "note": 69,
      "start": 11.7222,
      "duration": 0.0382,
      "velocity": 87,
      "chip": "ym2612"
    },
    {
      "channel": 0,
      "note": 50,
      "start": 11.7351,
      "duration": 0.0979,
      "velocity": 111,
      "chip": "ym2612"
    },
    {
      "channel": 1,
      "note": 76,
      "start": 11.7358,
      "duration": 0.036,
      "velocity": 87,
      "chip": "ym2612"
    },
    {
      "channel": 3,
      "note": 76,
      "start": 11.7369,
      "duration": 0.0357,
      "velocity": 100,
      "chip": "ym2612"
    },
    {
      "channel": 4,
      "note": 81,
      "start": 11.7386,
      "duration": 0.0342,
      "velocity": 119,
      "chip": "ym2612"
    },
    {
      "channel": 2,
      "note": 73,
      "start": 11.7666,
      "duration": 0.0107,
      "velocity": 87,
      "chip": "ym2612"
    },
    {
      "channel": 1,
      "note": 72,
      "start": 11.7772,
      "duration": 0.2939,
      "velocity": 87,
      "chip": "ym2612"
    },
    {
      "channel": 3,
      "note": 72,
      "start": 11.7784,
      "duration": 0.2931,
      "velocity": 100,
      "chip": "ym2612"
    },
    {
      "channel": 4,
      "note": 81,
      "start": 11.7801,
      "duration": 0.0549,
      "velocity": 127,
      "chip": "ym2612"
    },
    {
      "channel": 2,
      "note": 76,
      "start": 11.8007,
      "duration": 0.0866,
      "velocity": 87,
      "chip": "ym2612"
    },
    {
      "channel": 0,
      "note": 49,
      "start": 11.867,
      "duration": 0.0966,
      "velocity": 111,
      "chip": "ym2612"
    },
    {
      "channel": 4,
      "note": 81,
      "start": 11.8696,
      "duration": 0.0141,
      "velocity": 127,
      "chip": "ym2612"
    },
    {
      "channel": 4,
      "note": 81,
      "start": 11.8886,
      "duration": 0.0309,
      "velocity": 127,
      "chip": "ym2612"
    },
    {
      "channel": 2,
      "note": 72,
      "start": 11.8949,
      "duration": 0.279,
      "velocity": 87,
      "chip": "ym2612"
    },
    {
      "channel": 4,
      "note": 81,
      "start": 11.9534,
      "duration": 0.0114,
      "velocity": 127,
      "chip": "ym2612"
    },
    {
      "channel": 0,
      "note": 45,
      "start": 11.9724,
      "duration": 0.0985,
      "velocity": 111,
      "chip": "ym2612"
    },
    {
      "channel": 4,
      "note": 81,
      "start": 11.9749,
      "duration": 0.0232,
      "velocity": 119,
      "chip": "ym2612"
    },
    {
      "channel": 4,
      "note": 81,
      "start": 12.0042,
      "duration": 0.0675,
      "velocity": 127,
      "chip": "ym2612"
    },
    {
      "channel": 0,
      "note": 50,
      "start": 12.1048,
      "duration": 0.1354,
      "velocity": 111,
      "chip": "ym2612"
    },
    {
      "channel": 1,
      "note": 69,
      "start": 12.1054,
      "duration": 0.2663,
      "velocity": 87,
      "chip": "ym2612"
    },
    {
      "channel": 3,
      "note": 69,
      "start": 12.1063,
      "duration": 0.2659,
      "velocity": 100,
      "chip": "ym2612"
    },
    {
      "channel": 4,
      "note": 81,
      "start": 12.1072,
      "duration": 0.0121,
      "velocity": 127,
      "chip": "ym2612"
    },
    {
      "channel": 4,
      "note": 81,
      "start": 12.1255,
      "duration": 0.0156,
      "velocity": 127,
      "chip": "ym2612"
    },
    {
      "channel": 4,
      "note": 81,
      "start": 12.1751,
      "duration": 0.067,
      "velocity": 127,
      "chip": "ym2612"
    },
    {
      "channel": 2,
      "note": 69,
      "start": 12.208,
      "duration": 0.2841,
      "velocity": 87,
      "chip": "ym2612"
    },
    {
      "channel": 0,
      "note": 54,
      "start": 12.2741,
      "duration": 0.0973,
      "velocity": 111,
      "chip": "ym2612"
    },
    {
      "channel": 4,
      "note": 81,
      "start": 12.2775,
      "duration": 0.0293,
      "velocity": 119,
      "chip": "ym2612"
    },
    {
      "channel": 4,
      "note": 81,
      "start": 12.3136,
      "duration": 0.059,
      "velocity": 127,
      "chip": "ym2612"
    },
    {
      "channel": 0,
      "note": 57,
      "start": 12.4054,
      "duration": 0.1529,
      "velocity": 111,
      "chip": "ym2612"
    },
    {
      "channel": 1,
      "note": 79,
      "start": 12.4061,
      "duration": 0.0518,
      "velocity": 87,
      "chip": "ym2612"
    },
    {
      "channel": 3,
      "note": 79,
      "start": 12.407,
      "duration": 0.0514,
      "velocity": 100,
      "chip": "ym2612"
    },
    {
      "channel": 4,
      "note": 81,
      "start": 12.4083,
      "duration": 0.0123,
      "velocity": 127,
      "chip": "ym2612"
    },
    {
      "channel": 4,
      "note": 81,
      "start": 12.4276,
      "duration": 0.0311,
      "velocity": 127,
      "chip": "ym2612"
    },
    {
      "channel": 1,
      "note": 76,
      "start": 12.4919,
      "duration": 0.114,
      "velocity": 87,
      "chip": "ym2612"
    },
    {
      "channel": 3,
      "note": 76,
      "start": 12.4932,
      "duration": 0.1131,
      "velocity": 100,
      "chip": "ym2612"
    },
    {
      "channel": 4,
      "note": 81,
      "start": 12.4938,
      "duration": 0.0667,
      "velocity": 127,
      "chip": "ym2612"
    },
    {
      "channel": 2,
      "note": 79,
      "start": 12.5264,
      "duration": 0.0846,
      "velocity": 87,
      "chip": "ym2612"
    },
    {
      "channel": 0,
      "note": 59,
      "start": 12.5922,
      "duration": 0.0981,
      "velocity": 111,
      "chip": "ym2612"
    },
    {
      "channel": 4,
      "note": 81,
      "start": 12.5959,
      "duration": 0.0285,
      "velocity": 119,
      "chip": "ym2612"
    },
    {
      "channel": 1,
      "note": 75,
      "start": 12.6108,
      "duration": 0.0797,
      "velocity": 87,
      "chip": "ym2612"
    },
    {
      "channel": 3,
      "note": 75,
      "start": 12.6117,
      "duration": 0.0792,
      "velocity": 100,
      "chip": "ym2612"
    },
    {
      "channel": 2,
      "note": 76,
      "start": 12.6171,
      "duration": 0.1079,
      "velocity": 87,
      "chip": "ym2612"
    },
    {
      "channel": 4,
      "note": 81,
      "start": 12.6326,
      "duration": 0.0586,
      "velocity": 127,
      "chip": "ym2612"
    },
    {
      "channel": 0,
      "note": 60,
      "start": 12.7243,
      "duration": 0.0824,
      "velocity": 111,
      "chip": "ym2612"
    },
    {
      "channel": 1,
      "note": 74,
      "start": 12.7249,
      "duration": 0.0345,
      "velocity": 87,
      "chip": "ym2612"
    },
    {
      "channel": 3,
      "note": 74,
      "start": 12.7257,
      "duration": 0.0341,
      "velocity": 100,
      "chip": "ym2612"
    },
    {
      "channel": 4,
      "note": 81,
      "start": 12.7267,
      "duration": 0.0134,
      "velocity": 127,
      "chip": "ym2612"
    },
    {
      "channel": 2,
      "note": 75,
      "start": 12.7328,
      "duration": 0.0607,
      "velocity": 87,
      "chip": "ym2612"
    },
    {
      "channel": 4,
      "note": 81,
      "start": 12.7475,
      "duration": 0.0125,
      "velocity": 127,
      "chip": "ym2612"
    },
    {
      "channel": 1,
      "note": 72,
      "start": 12.7934,
      "duration": 0.0342,
      "velocity": 87,
      "chip": "ym2612"
    },
    {
      "channel": 3,
      "note": 72,
      "start": 12.7942,
      "duration": 0.034,
      "velocity": 100,
      "chip": "ym2612"
    },
    {
      "channel": 4,
      "note": 81,
      "start": 12.7948,
      "duration": 0.0137,
      "velocity": 127,
      "chip": "ym2612"
    },
    {
      "channel": 2,
      "note": 74,
      "start": 12.8007,
      "duration": 0.0342,
      "velocity": 87,
      "chip": "ym2612"
    },
    {
      "channel": 0,
      "note": 59,
      "start": 12.814,
      "duration": 0.0981,
      "velocity": 111,
      "chip": "ym2612"
    },
    {
      "channel": 4,
      "note": 81,
      "start": 12.8174,
      "duration": 0.0309,
      "velocity": 119,
      "chip": "ym2612"
    },
    {
      "channel": 1,
      "note": 69,
      "start": 12.8348,
      "duration": 0.0777,
      "velocity": 87,
      "chip": "ym2612"
    },
    {
      "channel": 3,
      "note": 69,
      "start": 12.8356,
      "duration": 0.0772,
      "velocity": 100,
      "chip": "ym2612"
    },
    {
      "channel": 2,
      "note": 72,
      "start": 12.8411,
      "duration": 0.1059,
      "velocity": 87,
      "chip": "ym2612"
    },
    {
      "channel": 4,
      "note": 81,
      "start": 12.8563,
      "duration": 0.0567,
      "velocity": 127,
      "chip": "ym2612"
    },
    {
      "channel": 0,
      "note": 57,
      "start": 12.9461,
      "duration": 0.0967,
      "velocity": 111,
      "chip": "ym2612"
    },
    {
      "channel": 1,
      "note": 66,
      "start": 12.9469,
      "duration": 0.0961,
      "velocity": 87,
      "chip": "ym2612"
    },
    {
      "channel": 3,
      "note": 66,
      "start": 12.9479,
      "duration": 0.0962,
      "velocity": 100,
      "chip": "ym2612"
    },
    {
      "channel": 4,
      "note": 81,
      "start": 12.9488,
      "duration": 0.014,
      "velocity": 127,
      "chip": "ym2612"
    },
    {
      "channel": 2,
      "note": 69,
      "start": 12.9554,
      "duration": 0.0758,
      "velocity": 87,
      "chip": "ym2612"
    },
    {
      "channel": 4,
      "note": 81,
      "start": 12.9694,
      "duration": 0.0123,
      "velocity": 127,
      "chip": "ym2612"
    },
    {
      "channel": 4,
      "note": 81,
      "start": 13.0324,
      "duration": 0.0122,
      "velocity": 127,
      "chip": "ym2612"
    },
    {
      "channel": 2,
      "note": 66,
      "start": 13.0378,
      "duration": 0.0485,
      "velocity": 87,
      "chip": "ym2612"
    },
    {
      "channel": 0,
      "note": 54,
      "start": 13.0494,
      "duration": 0.0806,
      "velocity": 111,
      "chip": "ym2612"
    },
    {
      "channel": 1,
      "note": 60,
      "start": 13.0501,
      "duration": 0.0307,
      "velocity": 87,
      "chip": "ym2612"
    },
    {
      "channel": 3,
      "note": 60,
      "start": 13.0514,
      "duration": 0.03,
      "velocity": 100,
      "chip": "ym2612"
    },
    {
      "channel": 4,
      "note": 81,
      "start": 13.0531,
      "duration": 0.0285,
      "velocity": 119,
      "chip": "ym2612"
    },
    {
      "channel": 1,
      "note": 69,
      "start": 13.0861,
      "duration": 0.044,
      "velocity": 87,
      "chip": "ym2612"
    },
    {
      "channel": 3,
      "note": 69,
      "start": 13.0873,
      "duration": 0.044,
      "velocity": 100,
      "chip": "ym2612"
    },
    {
      "channel": 4,
      "note": 81,
      "start": 13.089,
      "duration": 0.0429,
      "velocity": 127,
      "chip": "ym2612"
    },
    {
      "channel": 2,
      "note": 60,
      "start": 13.0978,
      "duration": 0.1021,
      "velocity": 87,
      "chip": "ym2612"
    },
    {
      "channel": 0,
      "note": 45,
      "start": 13.1806,
      "duration": 0.1352,
      "velocity": 111,
      "chip": "ym2612"
    },
    {
      "channel": 1,
      "note": 60,
      "start": 13.1812,
      "duration": 0.0342,
      "velocity": 87,
      "chip": "ym2612"
    },
    {
      "channel": 3,
      "note": 60,
      "start": 13.1824,
      "duration": 0.0338,
      "velocity": 100,
      "chip": "ym2612"
    },
    {
      "channel": 4,
      "note": 81,
      "start": 13.1833,
      "duration": 0.0131,
      "velocity": 127,
      "chip": "ym2612"
    },
    {
      "channel": 4,
      "note": 81,
      "start": 13.201,
      "duration": 0.0154,
      "velocity": 127,
      "chip": "ym2612"
    },
    {
      "channel": 2,
      "note": 69,
      "start": 13.2062,
      "duration": 0.0433,
      "velocity": 87,
      "chip": "ym2612"
    },
    {
      "channel": 1,
      "note": 61,
      "start": 13.2494,
      "duration": 0.0666,
      "velocity": 87,
      "chip": "ym2612"
    },
    {
      "channel": 3,
      "note": 61,
      "start": 13.2506,
      "duration": 0.0665,
      "velocity": 100,
      "chip": "ym2612"
    },
    {
      "channel": 4,
      "note": 81,
      "start": 13.2515,
      "duration": 0.0662,
      "velocity": 127,
      "chip": "ym2612"
    },
    {
      "channel": 2,
      "note": 60,
      "start": 13.2835,
      "duration": 0.087,
      "velocity": 87,
      "chip": "ym2612"
    },
    {
      "channel": 0,
      "note": 49,
      "start": 13.3497,
      "duration": 0.0987,
      "velocity": 111,
      "chip": "ym2612"
    },
    {
      "channel": 1,
      "note": 64,
      "start": 13.3503,
      "duration": 0.032,
      "velocity": 87,
      "chip": "ym2612"
    },
    {
      "channel": 3,
      "note": 64,
      "start": 13.3518,
      "duration": 0.0316,
      "velocity": 100,
      "chip": "ym2612"
    },
    {
      "channel": 4,
      "note": 81,
      "start": 13.3535,
      "duration": 0.0301,
      "velocity": 119,
      "chip": "ym2612"
    },
    {
      "channel": 2,
      "note": 61,
      "start": 13.3779,
      "duration": 0.0105,
      "velocity": 87,
      "chip": "ym2612"
    },
    {
      "channel": 1,
      "note": 66,
      "start": 13.3882,
      "duration": 0.0604,
      "velocity": 87,
      "chip": "ym2612"
    },
    {
      "channel": 3,
      "note": 66,
      "start": 13.3895,
      "duration": 0.0602,
      "velocity": 100,
      "chip": "ym2612"
    },
    {
      "channel": 4,
      "note": 81,
      "start": 13.3911,
      "duration": 0.0592,
      "velocity": 127,
      "chip": "ym2612"
    },
    {
      "channel": 2,
      "note": 64,
      "start": 13.416,
      "duration": 0.0861,
      "velocity": 87,
      "chip": "ym2612"
    },
    {
      "channel": 0,
      "note": 52,
      "start": 13.4823,
      "duration": 0.1512,
      "velocity": 111,
      "chip": "ym2612"
    },
    {
      "channel": 1,
      "note": 69,
      "start": 13.483,
      "duration": 0.0334,
      "velocity": 87,
      "chip": "ym2612"
    },
    {
      "channel": 3,
      "note": 69,
      "start": 13.4842,
      "duration": 0.033,
      "velocity": 100,
      "chip": "ym2612"
    },
    {
      "channel": 4,
      "note": 81,
      "start": 13.4851,
      "duration": 0.0123,
      "velocity": 127,
      "chip": "ym2612"
    },
    {
      "channel": 4,
      "note": 81,
      "start": 13.5036,
      "duration": 0.0138,
      "velocity": 127,
      "chip": "ym2612"
    },
    {
      "channel": 2,
      "note": 66,
      "start": 13.5088,
      "duration": 0.0416,
      "velocity": 87,
      "chip": "ym2612"
    },
    {
      "channel": 1,
      "note": 66,
      "start": 13.5504,
      "duration": 0.0834,
      "velocity": 87,
      "chip": "ym2612"
    },
    {
      "channel": 3,
      "note": 66,
      "start": 13.5516,
      "duration": 0.0833,
      "velocity": 100,
      "chip": "ym2612"
    },
    {
      "channel": 4,
      "note": 81,
      "start": 13.5521,
      "duration": 0.0833,
      "velocity": 127,
      "chip": "ym2612"
    },
    {
      "channel": 2,
      "note": 69,
      "start": 13.6014,
      "duration": 0.088,
      "velocity": 87,
      "chip": "ym2612"
    },
    {
      "channel": 0,
      "note": 54,
      "start": 13.6675,
      "duration": 0.0802,
      "velocity": 111,
      "chip": "ym2612"
    },
    {
      "channel": 1,
      "note": 57,
      "start": 13.6682,
      "duration": 0.0797,
      "velocity": 87,
      "chip": "ym2612"
    },
    {
      "channel": 3,
      "note": 57,
      "start": 13.6695,
      "duration": 0.0794,
      "velocity": 100,
      "chip": "ym2612"
    },
    {
      "channel": 4,
      "note": 81,
      "start": 13.6712,
      "duration": 0.0303,
      "velocity": 119,
      "chip": "ym2612"
    },
    {
      "channel": 2,
      "note": 66,
      "start": 13.6945,
      "duration": 0.0116,
      "velocity": 87,
      "chip": "ym2612"
    },
    {
      "channel": 4,
      "note": 81,
      "start": 13.7086,
      "duration": 0.0407,
      "velocity": 127,
      "chip": "ym2612"
    },
    {
      "channel": 2,
      "note": 57,
      "start": 13.7154,
      "duration": 0.1518,
      "velocity": 87,
      "chip": "ym2612"
    },
    {
      "channel": 0,
      "note": 55,
      "start": 13.7816,
      "duration": 0.0966,
      "velocity": 111,
      "chip": "ym2612"
    },
    {
      "channel": 1,
      "note": 60,
      "start": 13.7822,
      "duration": 0.0961,
      "velocity": 87,
      "chip": "ym2612"
    },
    {
      "channel": 3,
      "note": 60,
      "start": 13.7834,
      "duration": 0.0957,
      "velocity": 100,
      "chip": "ym2612"
    },
    {
      "channel": 4,
      "note": 81,
      "start": 13.7844,
      "duration": 0.0152,
      "velocity": 127,
      "chip": "ym2612"
    },
    {
      "channel": 4,
      "note": 81,
      "start": 13.8065,
      "duration": 0.0278,
      "velocity": 127,
      "chip": "ym2612"
    },
    {
      "channel": 4,
      "note": 81,
      "start": 13.8683,
      "duration": 0.0111,
      "velocity": 127,
      "chip": "ym2612"
    },
    {
      "channel": 2,
      "note": 60,
      "start": 13.8734,
      "duration": 0.0486,
      "velocity": 87,
      "chip": "ym2612"
    },
    {
      "channel": 0,
      "note": 54,
      "start": 13.8851,
      "duration": 0.0982,
      "velocity": 111,
      "chip": "ym2612"
    },
    {
      "channel": 1,
      "note": 57,
      "start": 13.8857,
      "duration": 0.0317,
      "velocity": 87,
      "chip": "ym2612"
    },
    {
      "channel": 3,
      "note": 57,
      "start": 13.8868,
      "duration": 0.031,
      "velocity": 100,
      "chip": "ym2612"
    },
    {
      "channel": 4,
      "note": 81,
      "start": 13.8886,
      "duration": 0.0295,
      "velocity": 119,
      "chip": "ym2612"
    },
    {
      "channel": 1,
      "note": 59,
      "start": 13.9219,
      "duration": 0.0615,
      "velocity": 87,
      "chip": "ym2612"
    },
    {
      "channel": 3,
      "note": 59,
      "start": 13.9227,
      "duration": 0.0618,
      "velocity": 100,
      "chip": "ym2612"
    },
    {
      "channel": 4,
      "note": 81,
      "start": 13.9244,
      "duration": 0.0607,
      "velocity": 127,
      "chip": "ym2612"
    },
    {
      "channel": 2,
      "note": 57,
      "start": 13.9509,
      "duration": 0.0846,
      "velocity": 87,
      "chip": "ym2612"
    },
    {
      "channel": 0,
      "note": 52,
      "start": 14.0171,
      "duration": 0.0346,
      "velocity": 111,
      "chip": "ym2612"
    },
    {
      "channel": 1,
      "note": 60,
      "start": 14.0177,
      "duration": 0.0342,
      "velocity": 87,
      "chip": "ym2612"
    },
    {
      "channel": 3,
      "note": 60,
      "start": 14.0189,
      "duration": 0.0338,
      "velocity": 100,
      "chip": "ym2612"
    },
    {
      "channel": 4,
      "note": 81,
      "start": 14.0198,
      "duration": 0.0122,
      "velocity": 127,
      "chip": "ym2612"
    },
    {
      "channel": 4,
      "note": 81,
      "start": 14.0367,
      "duration": 0.0163,
      "velocity": 127,
      "chip": "ym2612"
    },
    {
      "channel": 2,
      "note": 59,
      "start": 14.0419,
      "duration": 0.0446,
      "velocity": 87,
      "chip": "ym2612"
    },
    {
      "channel": 0,
      "note": 57,
      "start": 14.0857,
      "duration": 0.0171,
      "velocity": 111,
      "chip": "ym2612"
    },
    {
      "channel": 1,
      "note": 61,
      "start": 14.0863,
      "duration": 0.1064,
      "velocity": 87,
      "chip": "ym2612"
    },
    {
      "channel": 3,
      "note": 61,
      "start": 14.0876,
      "duration": 0.1056,
      "velocity": 100,
      "chip": "ym2612"
    },
    {
      "channel": 4,
      "note": 81,
      "start": 14.0881,
      "duration": 0.0165,
      "velocity": 127,
      "chip": "ym2612"
    },
    {
      "channel": 2,
      "note": 60,
      "start": 14.0944,
      "duration": 0.0323,
      "velocity": 87,
      "chip": "ym2612"
    },
    {
      "channel": 0,
      "note": 45,
      "start": 14.1107,
      "duration": 0.0819,
      "velocity": 111,
      "chip": "ym2612"
    },
    {
      "channel": 4,
      "note": 81,
      "start": 14.1131,
      "duration": 0.024,
      "velocity": 119,
      "chip": "ym2612"
    },
    {
      "channel": 2,
      "note": 61,
      "start": 14.1314,
      "duration": 0.1818,
      "velocity": 87,
      "chip": "ym2612"
    },
    {
      "channel": 4,
      "note": 81,
      "start": 14.1441,
      "duration": 0.0494,
      "velocity": 127,
      "chip": "ym2612"
    },
    {
      "channel": 0,
      "note": 52,
      "start": 14.2265,
      "duration": 0.1534,
      "velocity": 111,
      "chip": "ym2612"
    },
    {
      "channel": 1,
      "note": 69,
      "start": 14.2274,
      "duration": 0.1527,
      "velocity": 87,
      "chip": "ym2612"
    },
    {
      "channel": 3,
      "note": 69,
      "start": 14.2283,
      "duration": 0.1526,
      "velocity": 100,
      "chip": "ym2612"
    },
    {
      "channel": 4,
      "note": 81,
      "start": 14.2293,
      "duration": 0.0156,
      "velocity": 127,
      "chip": "ym2612"
    },
    {
      "channel": 4,
      "note": 81,
      "start": 14.2509,
      "duration": 0.0292,
      "velocity": 127,
      "chip": "ym2612"
    },
    {
      "channel": 4,
      "note": 81,
      "start": 14.3141,
      "duration": 0.0671,
      "velocity": 127,
      "chip": "ym2612"
    },
    {
      "channel": 2,
      "note": 69,
      "start": 14.3473,
      "duration": 0.1033,
      "velocity": 87,
      "chip": "ym2612"
    },
    {
      "channel": 0,
      "note": 59,
      "start": 14.4139,
      "duration": 0.0971,
      "velocity": 111,
      "chip": "ym2612"
    },
    {
      "channel": 1,
      "note": 68,
      "start": 14.4145,
      "duration": 0.0318,
      "velocity": 87,
      "chip": "ym2612"
    },
    {
      "channel": 3,
      "note": 68,
      "start": 14.4157,
      "duration": 0.031,
      "velocity": 100,
      "chip": "ym2612"
    },
    {
      "channel": 4,
      "note": 81,
      "start": 14.4175,
      "duration": 0.0295,
      "velocity": 119,
      "chip": "ym2612"
    },
    {
      "channel": 1,
      "note": 71,
      "start": 14.4505,
      "duration": 0.2304,
      "velocity": 87,
      "chip": "ym2612"
    },
    {
      "channel": 3,
      "note": 71,
      "start": 14.4514,
      "duration": 0.2299,
      "velocity": 100,
      "chip": "ym2612"
    },
    {
      "channel": 4,
      "note": 81,
      "start": 14.4531,
      "duration": 0.0598,
      "velocity": 127,
      "chip": "ym2612"
    },
    {
      "channel": 2,
      "note": 68,
      "start": 14.4788,
      "duration": 0.0828,
      "velocity": 87,
      "chip": "ym2612"
    },
    {
      "channel": 0,
      "note": 64,
      "start": 14.5449,
      "duration": 0.1358,
      "velocity": 111,
      "chip": "ym2612"
    },
    {
      "channel": 4,
      "note": 81,
      "start": 14.5474,
      "duration": 0.01,
      "velocity": 127,
      "chip": "ym2612"
    },
    {
      "channel": 4,
      "note": 81,
      "start": 14.5627,
      "duration": 0.0185,
      "velocity": 127,
      "chip": "ym2612"
    },
    {
      "channel": 2,
      "note": 71,
      "start": 14.5679,
      "duration": 0.1956,
      "velocity": 87,
      "chip": "ym2612"
    },
    {
      "channel": 4,
      "note": 81,
      "start": 14.6151,
      "duration": 0.0664,
      "velocity": 127,
      "chip": "ym2612"
    },
    {
      "channel": 0,
      "note": 63,
      "start": 14.7314,
      "duration": 0.0799,
      "velocity": 111,
      "chip": "ym2612"
    },
    {
      "channel": 1,
      "note": 64,
      "start": 14.732,
      "duration": 0.0795,
      "velocity": 87,
      "chip": "ym2612"
    },
    {
      "channel": 3,
      "note": 64,
      "start": 14.7328,
      "duration": 0.0795,
      "velocity": 100,
      "chip": "ym2612"
    },
    {
      "channel": 4,
      "note": 81,
      "start": 14.7345,
      "duration": 0.0255,
      "velocity": 119,
      "chip": "ym2612"
    },
    {
      "channel": 4,
      "note": 81,
      "start": 14.7655,
      "duration": 0.047,
      "velocity": 127,
      "chip": "ym2612"
    },
    {
      "channel": 2,
      "note": 64,
      "start": 14.7787,
      "duration": 0.1528,
      "velocity": 87,
      "chip": "ym2612"
    },
    {
      "channel": 0,
      "note": 62,
      "start": 14.8452,
      "duration": 0.0994,
      "velocity": 111,
      "chip": "ym2612"
    },
    {
      "channel": 1,
      "note": 65,
      "start": 14.8458,
      "duration": 0.0515,
      "velocity": 87,
      "chip": "ym2612"
    },
    {
      "channel": 3,
      "note": 65,
      "start": 14.847,
      "duration": 0.0507,
      "velocity": 100,
      "chip": "ym2612"
    },
    {
      "channel": 4,
      "note": 81,
      "start": 14.8479,
      "duration": 0.0132,
      "velocity": 127,
      "chip": "ym2612"
    },
    {
      "channel": 4,
      "note": 81,
      "start": 14.8685,
      "duration": 0.0295,
      "velocity": 127,
      "chip": "ym2612"
    },
    {
      "channel": 1,
      "note": 66,
      "start": 14.9313,
      "duration": 0.0135,
      "velocity": 87,
      "chip": "ym2612"
    },
    {
      "channel": 3,
      "note": 66,
      "start": 14.9322,
      "duration": 0.0137,
      "velocity": 100,
      "chip": "ym2612"
    },
    {
      "channel": 4,
      "note": 81,
      "start": 14.9328,
      "duration": 0.0137,
      "velocity": 127,
      "chip": "ym2612"
    },
    {
      "channel": 2,
      "note": 65,
      "start": 14.9391,
      "duration": 0.034,
      "velocity": 87,
      "chip": "ym2612"
    },
    {
      "channel": 0,
      "note": 60,
      "start": 14.9523,
      "duration": 0.0985,
      "velocity": 111,
      "chip": "ym2612"
    },
    {
      "channel": 1,
      "note": 69,
      "start": 14.9529,
      "duration": 0.0304,
      "velocity": 87,
      "chip": "ym2612"
    },
    {
      "channel": 3,
      "note": 69,
      "start": 14.9541,
      "duration": 0.03,
      "velocity": 100,
      "chip": "ym2612"
    },
    {
      "channel": 4,
      "note": 81,
      "start": 14.9559,
      "duration": 0.0285,
      "velocity": 119,
      "chip": "ym2612"
    },
    {
      "channel": 2,
      "note": 66,
      "start": 14.9784,
      "duration": 0.0128,
      "velocity": 87,
      "chip": "ym2612"
    },
    {
      "channel": 1,
      "note": 72,
      "start": 14.9911,
      "duration": 0.0599,
      "velocity": 87,
      "chip": "ym2612"
    },
    {
      "channel": 3,
      "note": 72,
      "start": 14.9923,
      "duration": 0.0599,
      "velocity": 100,
      "chip": "ym2612"
    },
    {
      "channel": 4,
      "note": 81,
      "start": 14.9942,
      "duration": 0.0585,
      "velocity": 127,
      "chip": "ym2612"
    },
    {
      "channel": 2,
      "note": 69,
      "start": 15.0185,
      "duration": 0.0866,
      "velocity": 87,
      "chip": "ym2612"
    },
    {
      "channel": 0,
      "note": 57,
      "start": 15.0848,
      "duration": 0.0832,
      "velocity": 111,
      "chip": "ym2612"
    },
    {
      "channel": 1,
      "note": 69,
      "start": 15.0853,
      "duration": 0.0345,
      "velocity": 87,
      "chip": "ym2612"
    },
    {
      "channel": 3,
      "note": 69,
      "start": 15.0865,
      "duration": 0.0341,
      "velocity": 100,
      "chip": "ym2612"
    },
    {
      "channel": 4,
      "note": 81,
      "start": 15.0878,
      "duration": 0.0125,
      "velocity": 127,
      "chip": "ym2612"
    },
    {
      "channel": 4,
      "note": 81,
      "start": 15.1064,
      "duration": 0.0145,
      "velocity": 127,
      "chip": "ym2612"
    },
    {
      "channel": 2,
      "note": 72,
      "start": 15.111,
      "duration": 0.0429,
      "velocity": 87,
      "chip": "ym2612"
    },
    {
      "channel": 1,
      "note": 72,
      "start": 15.1538,
      "duration": 0.0143,
      "velocity": 87,
      "chip": "ym2612"
    },
    {
      "channel": 3,
      "note": 72,
      "start": 15.1554,
      "duration": 0.0142,
      "velocity": 100,
      "chip": "ym2612"
    },
    {
      "channel": 4,
      "note": 81,
      "start": 15.156,
      "duration": 0.0142,
      "velocity": 127,
      "chip": "ym2612"
    },
    {
      "channel": 2,
      "note": 69,
      "start": 15.1625,
      "duration": 0.0374,
      "velocity": 87,
      "chip": "ym2612"
    },
    {
      "channel": 0,
      "note": 50,
      "start": 15.1756,
      "duration": 0.0994,
      "velocity": 111,
      "chip": "ym2612"
    },
    {
      "channel": 1,
      "note": 69,
      "start": 15.1763,
      "duration": 0.0337,
      "velocity": 87,
      "chip": "ym2612"
    },
    {
      "channel": 3,
      "note": 69,
      "start": 15.1775,
      "duration": 0.0332,
      "velocity": 100,
      "chip": "ym2612"
    },
    {
      "channel": 4,
      "note": 81,
      "start": 15.1792,
      "duration": 0.0317,
      "velocity": 119,
      "chip": "ym2612"
    },
    {
      "channel": 2,
      "note": 72,
      "start": 15.205,
      "duration": 0.0108,
      "velocity": 87,
      "chip": "ym2612"
    },
    {
      "channel": 1,
      "note": 66,
      "start": 15.2156,
      "duration": 0.0595,
      "velocity": 87,
      "chip": "ym2612"
    },
    {
      "channel": 3,
      "note": 66,
      "start": 15.2168,
      "duration": 0.0595,
      "velocity": 100,
      "chip": "ym2612"
    },
    {
      "channel": 4,
      "note": 81,
      "start": 15.2186,
      "duration": 0.0584,
      "velocity": 127,
      "chip": "ym2612"
    },
    {
      "channel": 2,
      "note": 69,
      "start": 15.2429,
      "duration": 0.0863,
      "velocity": 87,
      "chip": "ym2612"
    },
    {
      "channel": 0,
      "note": 52,
      "start": 15.309,
      "duration": 0.0984,
      "velocity": 111,
      "chip": "ym2612"
    },
    {
      "channel": 1,
      "note": 67,
      "start": 15.3096,
      "duration": 0.0507,
      "velocity": 87,
      "chip": "ym2612"
    },
    {
      "channel": 3,
      "note": 67,
      "start": 15.3108,
      "duration": 0.0503,
      "velocity": 100,
      "chip": "ym2612"
    },
    {
      "channel": 4,
      "note": 81,
      "start": 15.3116,
      "duration": 0.0978,
      "velocity": 127,
      "chip": "ym2612"
    },
    {
      "channel": 2,
      "note": 66,
      "start": 15.3364,
      "duration": 0.0581,
      "velocity": 87,
      "chip": "ym2612"
    },
    {
      "channel": 1,
      "note": 68,
      "start": 15.3943,
      "duration": 0.0133,
      "velocity": 87,
      "chip": "ym2612"
    },
    {
      "channel": 3,
      "note": 68,
      "start": 15.3956,
      "duration": 0.0131,
      "velocity": 100,
      "chip": "ym2612"
    },
    {
      "channel": 2,
      "note": 67,
      "start": 15.4019,
      "duration": 0.0333,
      "velocity": 87,
      "chip": "ym2612"
    },
    {
      "channel": 0,
      "note": 59,
      "start": 15.4151,
      "duration": 0.052,
      "velocity": 111,
      "chip": "ym2612"
    },
    {
      "channel": 1,
      "note": 71,
      "start": 15.4157,
      "duration": 0.0288,
      "velocity": 87,
      "chip": "ym2612"
    },
    {
      "channel": 3,
      "note": 71,
      "start": 15.4168,
      "duration": 0.0284,
      "velocity": 100,
      "chip": "ym2612"
    },
    {
      "channel": 4,
      "note": 81,
      "start": 15.4175,
      "duration": 0.0515,
      "velocity": 127,
      "chip": "ym2612"
    },
    {
      "channel": 2,
      "note": 68,
      "start": 15.4404,
      "duration": 0.0104,
      "velocity": 87,
      "chip": "ym2612"
    },
    {
      "channel": 1,
      "note": 76,
      "start": 15.4506,
      "duration": 0.0167,
      "velocity": 87,
      "chip": "ym2612"
    },
    {
      "channel": 3,
      "note": 76,
      "start": 15.4519,
      "duration": 0.0165,
      "velocity": 100,
      "chip": "ym2612"
    },
    {
      "channel": 2,
      "note": 71,
      "start": 15.4612,
      "duration": 0.0359,
      "velocity": 87,
      "chip": "ym2612"
    },
    {
      "channel": 0,
      "note": 52,
      "start": 15.4771,
      "duration": 0.0531,
      "velocity": 111,
      "chip": "ym2612"
    },
    {
      "channel": 1,
      "note": 64,
      "start": 15.4777,
      "duration": 0.0304,
      "velocity": 87,
      "chip": "ym2612"
    },
    {
      "channel": 3,
      "note": 64,
      "start": 15.4789,
      "duration": 0.03,
      "velocity": 100,
      "chip": "ym2612"
    },
    {
      "channel": 4,
      "note": 81,
      "start": 15.4795,
      "duration": 0.0525,
      "velocity": 127,
      "chip": "ym2612"
    },
    {
      "channel": 2,
      "note": 76,
      "start": 15.5034,
      "duration": 0.01,
      "velocity": 87,
      "chip": "ym2612"
    },
    {
      "channel": 1,
      "note": 75,
      "start": 15.5134,
      "duration": 0.0169,
      "velocity": 87,
      "chip": "ym2612"
    },
    {
      "channel": 3,
      "note": 75,
      "start": 15.5146,
      "duration": 0.0168,
      "velocity": 100,
      "chip": "ym2612"
    },
    {
      "channel": 2,
      "note": 64,
      "start": 15.5227,
      "duration": 0.0385,
      "velocity": 87,
      "chip": "ym2612"
    },
    {
      "channel": 0,
      "note": 51,
      "start": 15.5378,
      "duration": 0.0978,
      "velocity": 111,
      "chip": "ym2612"
    },
    {
      "channel": 1,
      "note": 64,
      "start": 15.5384,
      "duration": 0.032,
      "velocity": 87,
      "chip": "ym2612"
    },
    {
      "channel": 3,
      "note": 64,
      "start": 15.5396,
      "duration": 0.0315,
      "velocity": 100,
      "chip": "ym2612"
    },
    {
      "channel": 4,
      "note": 81,
      "start": 15.5402,
      "duration": 0.0972,
      "velocity": 127,
      "chip": "ym2612"
    },
    {
      "channel": 2,
      "note": 75,
      "start": 15.5656,
      "duration": 0.0106,
      "velocity": 87,
      "chip": "ym2612"
    },
    {
      "channel": 1,
      "note": 74,
      "start": 15.5761,
      "duration": 0.0596,
      "velocity": 87,
      "chip": "ym2612"
    },
    {
      "channel": 3,
      "note": 74,
      "start": 15.5773,
      "duration": 0.0595,
      "velocity": 100,
      "chip": "ym2612"
    },
    {
      "channel": 2,
      "note": 64,
      "start": 15.6032,
      "duration": 0.0868,
      "velocity": 87,
      "chip": "ym2612"
    },
    {
      "channel": 0,
      "note": 50,
      "start": 15.6694,
      "duration": 0.1528,
      "velocity": 111,
      "chip": "ym2612"
    },
    {
      "channel": 1,
      "note": 64,
      "start": 15.67,
      "duration": 0.0517,
      "velocity": 87,
      "chip": "ym2612"
    },
    {
      "channel": 3,
      "note": 64,
      "start": 15.6712,
      "duration": 0.0513,
      "velocity": 100,
      "chip": "ym2612"
    },
    {
      "channel": 4,
      "note": 81,
      "start": 15.672,
      "duration": 0.1525,
      "velocity": 127,
      "chip": "ym2612"
    },
    {
      "channel": 2,
      "note": 74,
      "start": 15.6963,
      "duration": 0.0596,
      "velocity": 87,
      "chip": "ym2612"
    },
    {
      "channel": 1,
      "note": 72,
      "start": 15.7558,
      "duration": 0.0666,
      "velocity": 87,
      "chip": "ym2612"
    },
    {
      "channel": 3,
      "note": 72,
      "start": 15.7573,
      "duration": 0.0665,
      "velocity": 100,
      "chip": "ym2612"
    },
    {
      "channel": 2,
      "note": 64,
      "start": 15.79,
      "duration": 0.0872,
      "velocity": 87,
      "chip": "ym2612"
    },
    {
      "channel": 0,
      "note": 42,
      "start": 15.8561,
      "duration": 0.099,
      "velocity": 111,
      "chip": "ym2612"
    },
    {
      "channel": 1,
      "note": 69,
      "start": 15.8567,
      "duration": 0.0309,
      "velocity": 87,
      "chip": "ym2612"
    },
    {
      "channel": 3,
      "note": 69,
      "start": 15.8583,
      "duration": 0.03,
      "velocity": 100,
      "chip": "ym2612"
    },
    {
      "channel": 4,
      "note": 81,
      "start": 15.859,
      "duration": 0.098,
      "velocity": 127,
      "chip": "ym2612"
    },
    {
      "channel": 2,
      "note": 72,
      "start": 15.8827,
      "duration": 0.0107,
      "velocity": 87,
      "chip": "ym2612"
    },
    {
      "channel": 1,
      "note": 66,
      "start": 15.8933,
      "duration": 0.062,
      "velocity": 87,
      "chip": "ym2612"
    },
    {
      "channel": 3,
      "note": 66,
      "start": 15.8945,
      "duration": 0.062,
      "velocity": 100,
      "chip": "ym2612"
    },
    {
      "channel": 2,
      "note": 69,
      "start": 15.9062,
      "duration": 0.1025,
      "velocity": 87,
      "chip": "ym2612"
    },
    {
      "channel": 0,
      "note": 43,
      "start": 15.989,
      "duration": 0.0497,
      "velocity": 111,
      "chip": "ym2612"
    },
    {
      "channel": 1,
      "note": 64,
      "start": 15.9896,
      "duration": 0.0297,
      "velocity": 87,
      "chip": "ym2612"
    },
    {
      "channel": 3,
      "note": 64,
      "start": 15.9908,
      "duration": 0.0293,
      "velocity": 100,
      "chip": "ym2612"
    },
    {
      "channel": 4,
      "note": 81,
      "start": 15.9915,
      "duration": 0.0491,
      "velocity": 127,
      "chip": "ym2612"
    },
    {
      "channel": 2,
      "note": 66,
      "start": 16.0151,
      "duration": 0.011,
      "velocity": 87,
      "chip": "ym2612"
    },
    {
      "channel": 1,
      "note": 66,
      "start": 16.026,
      "duration": 0.0129,
      "velocity": 87,
      "chip": "ym2612"
    },
    {
      "channel": 3,
      "note": 66,
      "start": 16.0272,
      "duration": 0.0127,
      "velocity": 100,
      "chip": "ym2612"
    },
    {
      "channel": 2,
      "note": 64,
      "start": 16.0336,
      "duration": 0.037,
      "velocity": 87,
      "chip": "ym2612"
    },
    {
      "channel": 0,
      "note": 44,
      "start": 16.0461,
      "duration": 0.0979,
      "velocity": 111,
      "chip": "ym2612"
    },
    {
      "channel": 1,
      "note": 69,
      "start": 16.0469,
      "duration": 0.0974,
      "velocity": 87,
      "chip": "ym2612"
    },
    {
      "channel": 3,
      "note": 69,
      "start": 16.0482,
      "duration": 0.0971,
      "velocity": 100,
      "chip": "ym2612"
    },
    {
      "channel": 4,
      "note": 81,
      "start": 16.05,
      "duration": 0.0157,
      "velocity": 119,
      "chip": "ym2612"
    },
    {
      "channel": 4,
      "note": 81,
      "start": 16.0728,
      "duration": 0.0111,
      "velocity": 127,
      "chip": "ym2612"
    },
    {
      "channel": 2,
      "note": 66,
      "start": 16.0768,
      "duration": 0.0117,
      "velocity": 87,
      "chip": "ym2612"
    },
    {
      "channel": 4,
      "note": 81,
      "start": 16.09,
      "duration": 0.0558,
      "velocity": 127,
      "chip": "ym2612"
    },
    {
      "channel": 2,
      "note": 69,
      "start": 16.1118,
      "duration": 0.1515,
      "velocity": 87,
      "chip": "ym2612"
    },
    {
      "channel": 0,
      "note": 57,
      "start": 16.178,
      "duration": 0.152,
      "velocity": 111,
      "chip": "ym2612"
    },
    {
      "channel": 1,
      "note": 72,
      "start": 16.1787,
      "duration": 0.5522,
      "velocity": 87,
      "chip": "ym2612"
    },
    {
      "channel": 3,
      "note": 72,
      "start": 16.18,
      "duration": 0.5513,
      "velocity": 100,
      "chip": "ym2612"
    },
    {
      "channel": 4,
      "note": 81,
      "start": 16.1817,
      "duration": 0.1495,
      "velocity": 119,
      "chip": "ym2612"
    },
    {
      "channel": 2,
      "note": 72,
      "start": 16.2974,
      "duration": 0.5236,
      "velocity": 87,
      "chip": "ym2612"
    },
    {
      "channel": 0,
      "note": 67,
      "start": 16.364,
      "duration": 0.0823,
      "velocity": 111,
      "chip": "ym2612"
    },
    {
      "channel": 4,
      "note": 81,
      "start": 16.3666,
      "duration": 0.0805,
      "velocity": 127,
      "chip": "ym2612"
    },
    {
      "channel": 0,
      "note": 66,
      "start": 16.4969,
      "duration": 0.1352,
      "velocity": 111,
      "chip": "ym2612"
    },
    {
      "channel": 4,
      "note": 81,
      "start": 16.4995,
      "duration": 0.1335,
      "velocity": 119,
      "chip": "ym2612"
    },
    {
      "channel": 0,
      "note": 65,
      "start": 16.6661,
      "duration": 0.0982,
      "velocity": 111,
      "chip": "ym2612"
    },
    {
      "channel": 4,
      "note": 81,
      "start": 16.6683,
      "duration": 0.0971,
      "velocity": 127,
      "chip": "ym2612"
    },
    {
      "channel": 0,
      "note": 64,
      "start": 16.7985,
      "duration": 0.0389,
      "velocity": 111,
      "chip": "ym2612"
    },
    {
      "channel": 4,
      "note": 81,
      "start": 16.8003,
      "duration": 0.0211,
      "velocity": 127,
      "chip": "ym2612"
    },
    {
      "channel": 4,
      "note": 81,
      "start": 16.8266,
      "duration": 0.0228,
      "velocity": 127,
      "chip": "ym2612"
    },
    {
      "channel": 0,
      "note": 62,
      "start": 16.8414,
      "duration": 0.0326,
      "velocity": 111,
      "chip": "ym2612"
    },
    {
      "channel": 4,
      "note": 81,
      "start": 16.8539,
      "duration": 0.0206,
      "velocity": 127,
      "chip": "ym2612"
    },
    {
      "channel": 0,
      "note": 61,
      "start": 16.8793,
      "duration": 0.0347,
      "velocity": 111,
      "chip": "ym2612"
    },
    {
      "channel": 4,
      "note": 81,
      "start": 16.8801,
      "duration": 0.022,
      "velocity": 127,
      "chip": "ym2612"
    },
    {
      "channel": 4,
      "note": 81,
      "start": 16.9062,
      "duration": 0.0205,
      "velocity": 127,
      "chip": "ym2612"
    },
    {
      "channel": 0,
      "note": 59,
      "start": 16.919,
      "duration": 0.0358,
      "velocity": 111,
      "chip": "ym2612"
    },
    {
      "channel": 4,
      "note": 81,
      "start": 16.9327,
      "duration": 0.0226,
      "velocity": 127,
      "chip": "ym2612"
    },
    {
      "channel": 0,
      "note": 45,
      "start": 16.9595,
      "duration": 0.1546,
      "velocity": 111,
      "chip": "ym2612"
    },
    {
      "channel": 1,
      "note": 73,
      "start": 16.9614,
      "duration": 0.0356,
      "velocity": 103,
      "chip": "ym2612"
    },
    {
      "channel": 4,
      "note": 81,
      "start": 16.9671,
      "duration": 0.1479,
      "velocity": 119,
      "chip": "ym2612"
    },
    {
      "channel": 3,
      "note": 73,
      "start": 16.9873,
      "duration": 0.1621,
      "velocity": 101,
      "chip": "ym2612"
    },
    {
      "channel": 1,
      "note": 76,
      "start": 17.031,
      "duration": 0.0834,
      "velocity": 103,
      "chip": "ym2612"
    },
    {
      "channel": 2,
      "note": 72,
      "start": 17.0316,
      "duration": 0.0829,
      "velocity": 90,
      "chip": "ym2612"
    },
    {
      "channel": 0,
      "note": 55,
      "start": 17.148,
      "duration": 0.081,
      "velocity": 111,
      "chip": "ym2612"
    },
    {
      "channel": 1,
      "note": 78,
      "start": 17.1487,
      "duration": 0.0234,
      "velocity": 103,
      "chip": "ym2612"
    },
    {
      "channel": 2,
      "note": 73,
      "start": 17.1493,
      "duration": 0.023,
      "velocity": 90,
      "chip": "ym2612"
    },
    {
      "channel": 4,
      "note": 81,
      "start": 17.1502,
      "duration": 0.0797,
      "velocity": 119,
      "chip": "ym2612"
    },
    {
      "channel": 3,
      "note": 76,
      "start": 17.1551,
      "duration": 0.0086,
      "velocity": 101,
      "chip": "ym2612"
    },
    {
      "channel": 3,
      "note": 78,
      "start": 17.1683,
      "duration": 0.0965,
      "velocity": 101,
      "chip": "ym2612"
    },
    {
      "channel": 1,
      "note": 76,
      "start": 17.1771,
      "duration": 0.0522,
      "velocity": 103,
      "chip": "ym2612"
    },
    {
      "channel": 2,
      "note": 76,
      "start": 17.1776,
      "duration": 0.0518,
      "velocity": 90,
      "chip": "ym2612"
    },
    {
      "channel": 0,
      "note": 54,
      "start": 17.2629,
      "duration": 0.1533,
      "velocity": 111,
      "chip": "ym2612"
    },
    {
      "channel": 1,
      "note": 81,
      "start": 17.2637,
      "duration": 0.0521,
      "velocity": 103,
      "chip": "ym2612"
    },
    {
      "channel": 2,
      "note": 78,
      "start": 17.2646,
      "duration": 0.0514,
      "velocity": 90,
      "chip": "ym2612"
    },
    {
      "channel": 4,
      "note": 81,
      "start": 17.2655,
      "duration": 0.1516,
      "velocity": 119,
      "chip": "ym2612"
    },
    {
      "channel": 3,
      "note": 76,
      "start": 17.2706,
      "duration": 0.0107,
      "velocity": 101,
      "chip": "ym2612"
    },
    {
      "channel": 3,
      "note": 81,
      "start": 17.2867,
      "duration": 0.1646,
      "velocity": 101,
      "chip": "ym2612"
    },
    {
      "channel": 1,
      "note": 81,
      "start": 17.3499,
      "duration": 0.0666,
      "velocity": 103,
      "chip": "ym2612"
    },
    {
      "channel": 2,
      "note": 81,
      "start": 17.3505,
      "duration": 0.0661,
      "velocity": 90,
      "chip": "ym2612"
    },
    {
      "channel": 0,
      "note": 52,
      "start": 17.4502,
      "duration": 27.56,
      "velocity": 111,
      "chip": "ym2612"
    },
    {
      "channel": 2,
      "note": 83,
      "start": 17.4511,
      "duration": 27.559,
      "velocity": 90,
      "chip": "ym2612"
    },
    {
      "channel": 4,
      "note": 81,
      "start": 17.4521,
      "duration": 27.5581,
      "velocity": 119,
      "chip": "ym2612"
    }
  ]
}