{
  "track_name": "17 - Old Wood",
  "duration_sec": 41.7,
  "sample_rate": 44100,
  "note_count": 448,
  "unique_pitches": 24,
  "pitch_range": 33,
  "avg_note_duration": 0.4123,
  "reconstruction_stats": {
    "notes_reconstructed": 448,
    "keyon_events": 448,
    "keyoff_events": 446,
    "orphan_keyons": 2,
    "unique_pitches": 24,
    "pitch_range": 33,
    "avg_duration_sec": 0.4123
  },
  "metadata": {
    "source": "S\\Sorcerer's Kingdom\\17 - Old Wood.vgm"
  },
  "notes": [
    {
      "channel": 0,
      "note": 71,
      "start": 0.0067,
      "duration": 0.2474,
      "velocity": 91,
      "chip": "ym2612"
    },
    {
      "channel": 1,
      "note": 83,
      "start": 0.0068,
      "duration": 0.2983,
      "velocity": 74,
      "chip": "ym2612"
    },
    {
      "channel": 0,
      "note": 76,
      "start": 0.3051,
      "duration": 0.249,
      "velocity": 91,
      "chip": "ym2612"
    },
    {
      "channel": 1,
      "note": 88,
      "start": 0.3052,
      "duration": 0.3001,
      "velocity": 74,
      "chip": "ym2612"
    },
    {
      "channel": 0,
      "note": 78,
      "start": 0.6052,
      "duration": 0.2487,
      "velocity": 91,
      "chip": "ym2612"
    },
    {
      "channel": 1,
      "note": 90,
      "start": 0.6053,
      "duration": 0.3036,
      "velocity": 74,
      "chip": "ym2612"
    },
    {
      "channel": 0,
      "note": 80,
      "start": 0.9089,
      "duration": 1.4452,
      "velocity": 91,
      "chip": "ym2612"
    },
    {
      "channel": 1,
      "note": 92,
      "start": 0.909,
      "duration": 0.2956,
      "velocity": 74,
      "chip": "ym2612"
    },
    {
      "channel": 2,
      "note": 68,
      "start": 0.9091,
      "duration": 2.0964,
      "velocity": 76,
      "chip": "ym2612"
    },
    {
      "channel": 3,
      "note": 80,
      "start": 0.9091,
      "duration": 2.3983,
      "velocity": 102,
      "chip": "ym2612"
    },
    {
      "channel": 1,
      "note": 83,
      "start": 1.2046,
      "duration": 0.3,
      "velocity": 74,
      "chip": "ym2612"
    },
    {
      "channel": 1,
      "note": 88,
      "start": 1.5046,
      "duration": 0.3,
      "velocity": 74,
      "chip": "ym2612"
    },
    {
      "channel": 1,
      "note": 92,
      "start": 1.8047,
      "duration": 0.6006,
      "velocity": 74,
      "chip": "ym2612"
    },
    {
      "channel": 0,
      "note": 80,
      "start": 2.4052,
      "duration": 0.2488,
      "velocity": 91,
      "chip": "ym2612"
    },
    {
      "channel": 1,
      "note": 92,
      "start": 2.4052,
      "duration": 0.3001,
      "velocity": 74,
      "chip": "ym2612"
    },
    {
      "channel": 0,
      "note": 81,
      "start": 2.7052,
      "duration": 0.2488,
      "velocity": 91,
      "chip": "ym2612"
    },
    {
      "channel": 1,
      "note": 93,
      "start": 2.7053,
      "duration": 0.3001,
      "velocity": 74,
      "chip": "ym2612"
    },
    {
      "channel": 0,
      "note": 80,
      "start": 3.0054,
      "duration": 0.2487,
      "velocity": 91,
      "chip": "ym2612"
    },
    {
      "channel": 1,
      "note": 92,
      "start": 3.0055,
      "duration": 0.3018,
      "velocity": 74,
      "chip": "ym2612"
    },
    {
      "channel": 0,
      "note": 78,
      "start": 3.3072,
      "duration": 1.4468,
      "velocity": 91,
      "chip": "ym2612"
    },
    {
      "channel": 1,
      "note": 90,
      "start": 3.3073,
      "duration": 0.2972,
      "velocity": 74,
      "chip": "ym2612"
    },
    {
      "channel": 2,
      "note": 66,
      "start": 3.3074,
      "duration": 2.098,
      "velocity": 76,
      "chip": "ym2612"
    },
    {
      "channel": 3,
      "note": 91,
      "start": 3.3075,
      "duration": 2.3999,
      "velocity": 102,
      "chip": "ym2612"
    },
    {
      "channel": 1,
      "note": 83,
      "start": 3.6046,
      "duration": 0.3,
      "velocity": 74,
      "chip": "ym2612"
    },
    {
      "channel": 1,
      "note": 88,
      "start": 3.9046,
      "duration": 0.3,
      "velocity": 74,
      "chip": "ym2612"
    },
    {
      "channel": 1,
      "note": 90,
      "start": 4.2046,
      "duration": 0.6006,
      "velocity": 74,
      "chip": "ym2612"
    },
    {
      "channel": 0,
      "note": 80,
      "start": 4.8051,
      "duration": 0.2489,
      "velocity": 91,
      "chip": "ym2612"
    },
    {
      "channel": 1,
      "note": 92,
      "start": 4.8052,
      "duration": 0.3,
      "velocity": 74,
      "chip": "ym2612"
    },
    {
      "channel": 0,
      "note": 75,
      "start": 5.1051,
      "duration": 0.2488,
      "velocity": 91,
      "chip": "ym2612"
    },
    {
      "channel": 1,
      "note": 87,
      "start": 5.1052,
      "duration": 0.3,
      "velocity": 74,
      "chip": "ym2612"
    },
    {
      "channel": 0,
      "note": 78,
      "start": 5.4052,
      "duration": 0.2487,
      "velocity": 91,
      "chip": "ym2612"
    },
    {
      "channel": 1,
      "note": 90,
      "start": 5.4053,
      "duration": 0.3019,
      "velocity": 74,
      "chip": "ym2612"
    },
    {
      "channel": 0,
      "note": 76,
      "start": 5.7072,
      "duration": 1.4468,
      "velocity": 91,
      "chip": "ym2612"
    },
    {
      "channel": 1,
      "note": 88,
      "start": 5.7073,
      "duration": 0.2973,
      "velocity": 74,
      "chip": "ym2612"
    },
    {
      "channel": 2,
      "note": 64,
      "start": 5.7073,
      "duration": 2.098,
      "velocity": 76,
      "chip": "ym2612"
    },
    {
      "channel": 3,
      "note": 89,
      "start": 5.7075,
      "duration": 2.3999,
      "velocity": 102,
      "chip": "ym2612"
    },
    {
      "channel": 1,
      "note": 83,
      "start": 6.0046,
      "duration": 0.3,
      "velocity": 74,
      "chip": "ym2612"
    },
    {
      "channel": 1,
      "note": 87,
      "start": 6.3046,
      "duration": 0.3,
      "velocity": 74,
      "chip": "ym2612"
    },
    {
      "channel": 1,
      "note": 88,
      "start": 6.6046,
      "duration": 0.6006,
      "velocity": 74,
      "chip": "ym2612"
    },
    {
      "channel": 0,
      "note": 76,
      "start": 7.2051,
      "duration": 0.2488,
      "velocity": 91,
      "chip": "ym2612"
    },
    {
      "channel": 1,
      "note": 88,
      "start": 7.2052,
      "duration": 0.3,
      "velocity": 74,
      "chip": "ym2612"
    },
    {
      "channel": 0,
      "note": 75,
      "start": 7.5051,
      "duration": 0.2488,
      "velocity": 91,
      "chip": "ym2612"
    },
    {
      "channel": 1,
      "note": 87,
      "start": 7.5052,
      "duration": 0.3,
      "velocity": 74,
      "chip": "ym2612"
    },
    {
      "channel": 0,
      "note": 76,
      "start": 7.8052,
      "duration": 0.2487,
      "velocity": 91,
      "chip": "ym2612"
    },
    {
      "channel": 1,
      "note": 88,
      "start": 7.8053,
      "duration": 0.3019,
      "velocity": 74,
      "chip": "ym2612"
    },
    {
      "channel": 0,
      "note": 78,
      "start": 8.1072,
      "duration": 1.4468,
      "velocity": 91,
      "chip": "ym2612"
    },
    {
      "channel": 1,
      "note": 90,
      "start": 8.1073,
      "duration": 0.2973,
      "velocity": 74,
      "chip": "ym2612"
    },
    {
      "channel": 2,
      "note": 66,
      "start": 8.1073,
      "duration": 2.098,
      "velocity": 76,
      "chip": "ym2612"
    },
    {
      "channel": 3,
      "note": 89,
      "start": 8.1074,
      "duration": 2.4001,
      "velocity": 102,
      "chip": "ym2612"
    },
    {
      "channel": 1,
      "note": 83,
      "start": 8.4046,
      "duration": 0.3,
      "velocity": 74,
      "chip": "ym2612"
    },
    {
      "channel": 1,
      "note": 88,
      "start": 8.7046,
      "duration": 0.3,
      "velocity": 74,
      "chip": "ym2612"
    },
    {
      "channel": 1,
      "note": 90,
      "start": 9.0046,
      "duration": 0.3005,
      "velocity": 74,
      "chip": "ym2612"
    },
    {
      "channel": 1,
      "note": 95,
      "start": 9.3051,
      "duration": 0.3001,
      "velocity": 74,
      "chip": "ym2612"
    },
    {
      "channel": 0,
      "note": 71,
      "start": 9.6051,
      "duration": 0.2488,
      "velocity": 91,
      "chip": "ym2612"
    },
    {
      "channel": 1,
      "note": 93,
      "start": 9.6052,
      "duration": 0.3,
      "velocity": 74,
      "chip": "ym2612"
    },
    {
      "channel": 0,
      "note": 76,
      "start": 9.9052,
      "duration": 0.2488,
      "velocity": 91,
      "chip": "ym2612"
    },
    {
      "channel": 1,
      "note": 92,
      "start": 9.9052,
      "duration": 0.3,
      "velocity": 74,
      "chip": "ym2612"
    },
    {
      "channel": 0,
      "note": 78,
      "start": 10.2052,
      "duration": 0.2487,
      "velocity": 91,
      "chip": "ym2612"
    },
    {
      "channel": 1,
      "note": 90,
      "start": 10.2053,
      "duration": 0.302,
      "velocity": 74,
      "chip": "ym2612"
    },
    {
      "channel": 0,
      "note": 80,
      "start": 10.5072,
      "duration": 1.4468,
      "velocity": 91,
      "chip": "ym2612"
    },
    {
      "channel": 1,
      "note": 92,
      "start": 10.5073,
      "duration": 0.2973,
      "velocity": 74,
      "chip": "ym2612"
    },
    {
      "channel": 2,
      "note": 68,
      "start": 10.5074,
      "duration": 2.0981,
      "velocity": 76,
      "chip": "ym2612"
    },
    {
      "channel": 3,
      "note": 91,
      "start": 10.5075,
      "duration": 2.3999,
      "velocity": 102,
      "chip": "ym2612"
    },
    {
      "channel": 1,
      "note": 83,
      "start": 10.8047,
      "duration": 0.2999,
      "velocity": 74,
      "chip": "ym2612"
    },
    {
      "channel": 1,
      "note": 88,
      "start": 11.1046,
      "duration": 0.3,
      "velocity": 74,
      "chip": "ym2612"
    },
    {
      "channel": 1,
      "note": 92,
      "start": 11.4047,
      "duration": 0.6006,
      "velocity": 74,
      "chip": "ym2612"
    },
    {
      "channel": 0,
      "note": 80,
      "start": 12.0052,
      "duration": 0.2488,
      "velocity": 91,
      "chip": "ym2612"
    },
    {
      "channel": 1,
      "note": 92,
      "start": 12.0052,
      "duration": 0.3001,
      "velocity": 74,
      "chip": "ym2612"
    },
    {
      "channel": 0,
      "note": 81,
      "start": 12.3052,
      "duration": 0.2488,
      "velocity": 91,
      "chip": "ym2612"
    },
    {
      "channel": 1,
      "note": 93,
      "start": 12.3053,
      "duration": 0.3001,
      "velocity": 74,
      "chip": "ym2612"
    },
    {
      "channel": 0,
      "note": 80,
      "start": 12.6054,
      "duration": 0.2487,
      "velocity": 91,
      "chip": "ym2612"
    },
    {
      "channel": 1,
      "note": 92,
      "start": 12.6055,
      "duration": 0.3018,
      "velocity": 74,
      "chip": "ym2612"
    },
    {
      "channel": 0,
      "note": 78,
      "start": 12.9072,
      "duration": 1.1468,
      "velocity": 91,
      "chip": "ym2612"
    },
    {
      "channel": 1,
      "note": 90,
      "start": 12.9073,
      "duration": 0.2972,
      "velocity": 74,
      "chip": "ym2612"
    },
    {
      "channel": 2,
      "note": 66,
      "start": 12.9074,
      "duration": 2.098,
      "velocity": 76,
      "chip": "ym2612"
    },
    {
      "channel": 3,
      "note": 91,
      "start": 12.9075,
      "duration": 2.4,
      "velocity": 102,
      "chip": "ym2612"
    },
    {
      "channel": 1,
      "note": 83,
      "start": 13.2046,
      "duration": 0.3,
      "velocity": 74,
      "chip": "ym2612"
    },
    {
      "channel": 1,
      "note": 88,
      "start": 13.5046,
      "duration": 0.3004,
      "velocity": 74,
      "chip": "ym2612"
    },
    {
      "channel": 1,
      "note": 90,
      "start": 13.8051,
      "duration": 0.3002,
      "velocity": 74,
      "chip": "ym2612"
    },
    {
      "channel": 0,
      "note": 83,
      "start": 14.1052,
      "duration": 0.2488,
      "velocity": 91,
      "chip": "ym2612"
    },
    {
      "channel": 1,
      "note": 95,
      "start": 14.1053,
      "duration": 0.2999,
      "velocity": 74,
      "chip": "ym2612"
    },
    {
      "channel": 0,
      "note": 81,
      "start": 14.4051,
      "duration": 0.2489,
      "velocity": 91,
      "chip": "ym2612"
    },
    {
      "channel": 1,
      "note": 93,
      "start": 14.4052,
      "duration": 0.3,
      "velocity": 74,
      "chip": "ym2612"
    },
    {
      "channel": 0,
      "note": 80,
      "start": 14.7052,
      "duration": 0.2488,
      "velocity": 91,
      "chip": "ym2612"
    },
    {
      "channel": 1,
      "note": 92,
      "start": 14.7053,
      "duration": 0.2999,
      "velocity": 74,
      "chip": "ym2612"
    },
    {
      "channel": 0,
      "note": 78,
      "start": 15.0052,
      "duration": 0.2487,
      "velocity": 91,
      "chip": "ym2612"
    },
    {
      "channel": 1,
      "note": 90,
      "start": 15.0053,
      "duration": 0.302,
      "velocity": 74,
      "chip": "ym2612"
    },
    {
      "channel": 0,
      "note": 80,
      "start": 15.3072,
      "duration": 1.4468,
      "velocity": 91,
      "chip": "ym2612"
    },
    {
      "channel": 1,
      "note": 92,
      "start": 15.3073,
      "duration": 0.2972,
      "velocity": 74,
      "chip": "ym2612"
    },
    {
      "channel": 2,
      "note": 68,
      "start": 15.3074,
      "duration": 2.0981,
      "velocity": 76,
      "chip": "ym2612"
    },
    {
      "channel": 3,
      "note": 91,
      "start": 15.3075,
      "duration": 2.4016,
      "velocity": 102,
      "chip": "ym2612"
    },
    {
      "channel": 1,
      "note": 90,
      "start": 15.6046,
      "duration": 0.3,
      "velocity": 74,
      "chip": "ym2612"
    },
    {
      "channel": 1,
      "note": 92,
      "start": 15.9047,
      "duration": 0.2999,
      "velocity": 74,
      "chip": "ym2612"
    },
    {
      "channel": 1,
      "note": 93,
      "start": 16.2047,
      "duration": 0.6006,
      "velocity": 74,
      "chip": "ym2612"
    },
    {
      "channel": 0,
      "note": 80,
      "start": 16.8052,
      "duration": 0.2488,
      "velocity": 91,
      "chip": "ym2612"
    },
    {
      "channel": 1,
      "note": 93,
      "start": 16.8052,
      "duration": 0.3,
      "velocity": 74,
      "chip": "ym2612"
    },
    {
      "channel": 0,
      "note": 78,
      "start": 17.1052,
      "duration": 0.2488,
      "velocity": 91,
      "chip": "ym2612"
    },
    {
      "channel": 1,
      "note": 92,
      "start": 17.1053,
      "duration": 0.3001,
      "velocity": 74,
      "chip": "ym2612"
    },
    {
      "channel": 0,
      "note": 80,
      "start": 17.4054,
      "duration": 0.2487,
      "velocity": 91,
      "chip": "ym2612"
    },
    {
      "channel": 1,
      "note": 93,
      "start": 17.4054,
      "duration": 0.3034,
      "velocity": 74,
      "chip": "ym2612"
    },
    {
      "channel": 0,
      "note": 81,
      "start": 17.7088,
      "duration": 1.0453,
      "velocity": 91,
      "chip": "ym2612"
    },
    {
      "channel": 1,
      "note": 93,
      "start": 17.7089,
      "duration": 0.2957,
      "velocity": 74,
      "chip": "ym2612"
    },
    {
      "channel": 2,
      "note": 69,
      "start": 17.709,
      "duration": 1.0452,
      "velocity": 76,
      "chip": "ym2612"
    },
    {
      "channel": 3,
      "note": 93,
      "start": 17.7091,
      "duration": 1.1978,
      "velocity": 102,
      "chip": "ym2612"
    },
    {
      "channel": 1,
      "note": 92,
      "start": 18.0047,
      "duration": 0.2999,
      "velocity": 74,
      "chip": "ym2612"
    },
    {
      "channel": 1,
      "note": 93,
      "start": 18.3047,
      "duration": 0.2999,
      "velocity": 74,
      "chip": "ym2612"
    },
    {
      "channel": 1,
      "note": 95,
      "start": 18.6046,
      "duration": 0.3022,
      "velocity": 74,
      "chip": "ym2612"
    },
    {
      "channel": 0,
      "note": 83,
      "start": 18.9068,
      "duration": 1.0473,
      "velocity": 91,
      "chip": "ym2612"
    },
    {
      "channel": 1,
      "note": 97,
      "start": 18.9069,
      "duration": 0.2977,
      "velocity": 74,
      "chip": "ym2612"
    },
    {
      "channel": 2,
      "note": 71,
      "start": 18.907,
      "duration": 1.0472,
      "velocity": 76,
      "chip": "ym2612"
    },
    {
      "channel": 3,
      "note": 94,
      "start": 18.907,
      "duration": 1.2013,
      "velocity": 102,
      "chip": "ym2612"
    },
    {
      "channel": 1,
      "note": 83,
      "start": 19.2047,
      "duration": 0.2999,
      "velocity": 74,
      "chip": "ym2612"
    },
    {
      "channel": 1,
      "note": 95,
      "start": 19.5047,
      "duration": 0.6036,
      "velocity": 74,
      "chip": "ym2612"
    },
    {
      "channel": 0,
      "note": 85,
      "start": 20.1082,
      "duration": 1.0457,
      "velocity": 91,
      "chip": "ym2612"
    },
    {
      "channel": 1,
      "note": 97,
      "start": 20.1083,
      "duration": 0.1976,
      "velocity": 74,
      "chip": "ym2612"
    },
    {
      "channel": 2,
      "note": 73,
      "start": 20.1084,
      "duration": 2.0966,
      "velocity": 76,
      "chip": "ym2612"
    },
    {
      "channel": 3,
      "note": 96,
      "start": 20.1084,
      "duration": 2.3994,
      "velocity": 102,
      "chip": "ym2612"
    },
    {
      "channel": 4,
      "note": 97,
      "start": 20.2054,
      "duration": 0.1651,
      "velocity": 85,
      "chip": "ym2612"
    },
    {
      "channel": 1,
      "note": 95,
      "start": 20.306,
      "duration": 0.1989,
      "velocity": 74,
      "chip": "ym2612"
    },
    {
      "channel": 5,
      "note": 97,
      "start": 20.3061,
      "duration": 0.1644,
      "velocity": 85,
      "chip": "ym2612"
    },
    {
      "channel": 4,
      "note": 95,
      "start": 20.4044,
      "duration": 0.1662,
      "velocity": 85,
      "chip": "ym2612"
    },
    {
      "channel": 1,
      "note": 93,
      "start": 20.505,
      "duration": 0.2003,
      "velocity": 74,
      "chip": "ym2612"
    },
    {
      "channel": 5,
      "note": 95,
      "start": 20.5051,
      "duration": 0.1655,
      "velocity": 85,
      "chip": "ym2612"
    },
    {
      "channel": 4,
      "note": 93,
      "start": 20.6044,
      "duration": 0.1662,
      "velocity": 85,
      "chip": "ym2612"
    },
    {
      "channel": 1,
      "note": 97,
      "start": 20.7054,
      "duration": 0.2,
      "velocity": 74,
      "chip": "ym2612"
    },
    {
      "channel": 5,
      "note": 93,
      "start": 20.7055,
      "duration": 0.1651,
      "velocity": 85,
      "chip": "ym2612"
    },
    {
      "channel": 4,
      "note": 97,
      "start": 20.8048,
      "duration": 0.1658,
      "velocity": 85,
      "chip": "ym2612"
    },
    {
      "channel": 1,
      "note": 95,
      "start": 20.9054,
      "duration": 0.1995,
      "velocity": 74,
      "chip": "ym2612"
    },
    {
      "channel": 5,
      "note": 97,
      "start": 20.9055,
      "duration": 0.1651,
      "velocity": 85,
      "chip": "ym2612"
    },
    {
      "channel": 4,
      "note": 95,
      "start": 21.0044,
      "duration": 0.1662,
      "velocity": 85,
      "chip": "ym2612"
    },
    {
      "channel": 1,
      "note": 93,
      "start": 21.105,
      "duration": 0.201,
      "velocity": 74,
      "chip": "ym2612"
    },
    {
      "channel": 5,
      "note": 95,
      "start": 21.1051,
      "duration": 0.1654,
      "velocity": 85,
      "chip": "ym2612"
    },
    {
      "channel": 4,
      "note": 93,
      "start": 21.2044,
      "duration": 0.1662,
      "velocity": 85,
      "chip": "ym2612"
    },
    {
      "channel": 0,
      "note": 85,
      "start": 21.3059,
      "duration": 0.248,
      "velocity": 91,
      "chip": "ym2612"
    },
    {
      "channel": 1,
      "note": 97,
      "start": 21.306,
      "duration": 0.1994,
      "velocity": 74,
      "chip": "ym2612"
    },
    {
      "channel": 5,
      "note": 93,
      "start": 21.3061,
      "duration": 0.1645,
      "velocity": 85,
      "chip": "ym2612"
    },
    {
      "channel": 4,
      "note": 97,
      "start": 21.4048,
      "duration": 0.1658,
      "velocity": 85,
      "chip": "ym2612"
    },
    {
      "channel": 1,
      "note": 95,
      "start": 21.5054,
      "duration": 0.1995,
      "velocity": 74,
      "chip": "ym2612"
    },
    {
      "channel": 5,
      "note": 97,
      "start": 21.5055,
      "duration": 0.1651,
      "velocity": 85,
      "chip": "ym2612"
    },
    {
      "channel": 0,
      "note": 83,
      "start": 21.6049,
      "duration": 0.249,
      "velocity": 91,
      "chip": "ym2612"
    },
    {
      "channel": 4,
      "note": 95,
      "start": 21.6049,
      "duration": 0.1656,
      "velocity": 85,
      "chip": "ym2612"
    },
    {
      "channel": 1,
      "note": 93,
      "start": 21.705,
      "duration": 0.201,
      "velocity": 74,
      "chip": "ym2612"
    },
    {
      "channel": 5,
      "note": 95,
      "start": 21.7051,
      "duration": 0.1654,
      "velocity": 85,
      "chip": "ym2612"
    },
    {
      "channel": 4,
      "note": 93,
      "start": 21.8044,
      "duration": 0.1662,
      "velocity": 85,
      "chip": "ym2612"
    },
    {
      "channel": 0,
      "note": 81,
      "start": 21.9059,
      "duration": 0.248,
      "velocity": 91,
      "chip": "ym2612"
    },
    {
      "channel": 1,
      "note": 97,
      "start": 21.906,
      "duration": 0.1994,
      "velocity": 74,
      "chip": "ym2612"
    },
    {
      "channel": 5,
      "note": 93,
      "start": 21.9061,
      "duration": 0.1645,
      "velocity": 85,
      "chip": "ym2612"
    },
    {
      "channel": 4,
      "note": 97,
      "start": 22.0048,
      "duration": 0.1658,
      "velocity": 85,
      "chip": "ym2612"
    },
    {
      "channel": 1,
      "note": 95,
      "start": 22.1054,
      "duration": 0.1995,
      "velocity": 74,
      "chip": "ym2612"
    },
    {
      "channel": 5,
      "note": 97,
      "start": 22.1055,
      "duration": 0.1651,
      "velocity": 85,
      "chip": "ym2612"
    },
    {
      "channel": 0,
      "note": 85,
      "start": 22.2049,
      "duration": 0.2489,
      "velocity": 91,
      "chip": "ym2612"
    },
    {
      "channel": 4,
      "note": 95,
      "start": 22.2051,
      "duration": 0.1655,
      "velocity": 85,
      "chip": "ym2612"
    },
    {
      "channel": 1,
      "note": 93,
      "start": 22.305,
      "duration": 0.2027,
      "velocity": 74,
      "chip": "ym2612"
    },
    {
      "channel": 5,
      "note": 95,
      "start": 22.3051,
      "duration": 0.1655,
      "velocity": 85,
      "chip": "ym2612"
    },
    {
      "channel": 4,
      "note": 93,
      "start": 22.4044,
      "duration": 0.1662,
      "velocity": 85,
      "chip": "ym2612"
    },
    {
      "channel": 0,
      "note": 83,
      "start": 22.5077,
      "duration": 1.0462,
      "velocity": 91,
      "chip": "ym2612"
    },
    {
      "channel": 1,
      "note": 95,
      "start": 22.5077,
      "duration": 0.1977,
      "velocity": 74,
      "chip": "ym2612"
    },
    {
      "channel": 2,
      "note": 71,
      "start": 22.5078,
      "duration": 2.0973,
      "velocity": 76,
      "chip": "ym2612"
    },
    {
      "channel": 3,
      "note": 96,
      "start": 22.5079,
      "duration": 2.4,
      "velocity": 102,
      "chip": "ym2612"
    },
    {
      "channel": 5,
      "note": 93,
      "start": 22.508,
      "duration": 0.1626,
      "velocity": 85,
      "chip": "ym2612"
    },
    {
      "channel": 4,
      "note": 95,
      "start": 22.6049,
      "duration": 0.1657,
      "velocity": 85,
      "chip": "ym2612"
    },
    {
      "channel": 1,
      "note": 93,
      "start": 22.7054,
      "duration": 0.1995,
      "velocity": 74,
      "chip": "ym2612"
    },
    {
      "channel": 5,
      "note": 95,
      "start": 22.7056,
      "duration": 0.1651,
      "velocity": 85,
      "chip": "ym2612"
    },
    {
      "channel": 4,
      "note": 93,
      "start": 22.8044,
      "duration": 0.1662,
      "velocity": 85,
      "chip": "ym2612"
    },
    {
      "channel": 1,
      "note": 92,
      "start": 22.9051,
      "duration": 0.2004,
      "velocity": 74,
      "chip": "ym2612"
    },
    {
      "channel": 5,
      "note": 93,
      "start": 22.9051,
      "duration": 0.1655,
      "velocity": 85,
      "chip": "ym2612"
    },
    {
      "channel": 4,
      "note": 92,
      "start": 23.0044,
      "duration": 0.1661,
      "velocity": 85,
      "chip": "ym2612"
    },
    {
      "channel": 1,
      "note": 95,
      "start": 23.1055,
      "duration": 0.1999,
      "velocity": 74,
      "chip": "ym2612"
    },
    {
      "channel": 5,
      "note": 92,
      "start": 23.1056,
      "duration": 0.1651,
      "velocity": 85,
      "chip": "ym2612"
    },
    {
      "channel": 4,
      "note": 95,
      "start": 23.2048,
      "duration": 0.1658,
      "velocity": 85,
      "chip": "ym2612"
    },
    {
      "channel": 1,
      "note": 93,
      "start": 23.3054,
      "duration": 0.1995,
      "velocity": 74,
      "chip": "ym2612"
    },
    {
      "channel": 5,
      "note": 95,
      "start": 23.3055,
      "duration": 0.1651,
      "velocity": 85,
      "chip": "ym2612"
    },
    {
      "channel": 4,
      "note": 93,
      "start": 23.4044,
      "duration": 0.1662,
      "velocity": 85,
      "chip": "ym2612"
    },
    {
      "channel": 1,
      "note": 92,
      "start": 23.5051,
      "duration": 0.201,
      "velocity": 74,
      "chip": "ym2612"
    },
    {
      "channel": 5,
      "note": 93,
      "start": 23.5051,
      "duration": 0.1655,
      "velocity": 85,
      "chip": "ym2612"
    },
    {
      "channel": 4,
      "note": 92,
      "start": 23.6044,
      "duration": 0.1661,
      "velocity": 85,
      "chip": "ym2612"
    },
    {
      "channel": 0,
      "note": 83,
      "start": 23.7059,
      "duration": 0.2479,
      "velocity": 91,
      "chip": "ym2612"
    },
    {
      "channel": 1,
      "note": 95,
      "start": 23.7061,
      "duration": 0.1993,
      "velocity": 74,
      "chip": "ym2612"
    },
    {
      "channel": 5,
      "note": 92,
      "start": 23.7061,
      "duration": 0.1644,
      "velocity": 85,
      "chip": "ym2612"
    },
    {
      "channel": 4,
      "note": 95,
      "start": 23.8048,
      "duration": 0.1658,
      "velocity": 85,
      "chip": "ym2612"
    },
    {
      "channel": 1,
      "note": 93,
      "start": 23.9054,
      "duration": 0.1995,
      "velocity": 74,
      "chip": "ym2612"
    },
    {
      "channel": 5,
      "note": 95,
      "start": 23.9055,
      "duration": 0.1651,
      "velocity": 85,
      "chip": "ym2612"
    },
    {
      "channel": 0,
      "note": 81,
      "start": 24.0049,
      "duration": 0.249,
      "velocity": 91,
      "chip": "ym2612"
    },
    {
      "channel": 4,
      "note": 93,
      "start": 24.0049,
      "duration": 0.1656,
      "velocity": 85,
      "chip": "ym2612"
    },
    {
      "channel": 1,
      "note": 92,
      "start": 24.1051,
      "duration": 0.201,
      "velocity": 74,
      "chip": "ym2612"
    },
    {
      "channel": 5,
      "note": 93,
      "start": 24.1051,
      "duration": 0.1655,
      "velocity": 85,
      "chip": "ym2612"
    },
    {
      "channel": 4,
      "note": 92,
      "start": 24.2044,
      "duration": 0.1662,
      "velocity": 85,
      "chip": "ym2612"
    },
    {
      "channel": 0,
      "note": 80,
      "start": 24.306,
      "duration": 0.2478,
      "velocity": 91,
      "chip": "ym2612"
    },
    {
      "channel": 1,
      "note": 95,
      "start": 24.3061,
      "duration": 0.1992,
      "velocity": 74,
      "chip": "ym2612"
    },
    {
      "channel": 5,
      "note": 92,
      "start": 24.3062,
      "duration": 0.1644,
      "velocity": 85,
      "chip": "ym2612"
    },
    {
      "channel": 4,
      "note": 95,
      "start": 24.4048,
      "duration": 0.1658,
      "velocity": 85,
      "chip": "ym2612"
    },
    {
      "channel": 1,
      "note": 93,
      "start": 24.5054,
      "duration": 0.1995,
      "velocity": 74,
      "chip": "ym2612"
    },
    {
      "channel": 5,
      "note": 95,
      "start": 24.5055,
      "duration": 0.1651,
      "velocity": 85,
      "chip": "ym2612"
    },
    {
      "channel": 0,
      "note": 83,
      "start": 24.605,
      "duration": 0.2489,
      "velocity": 91,
      "chip": "ym2612"
    },
    {
      "channel": 4,
      "note": 93,
      "start": 24.6051,
      "duration": 0.1654,
      "velocity": 85,
      "chip": "ym2612"
    },
    {
      "channel": 1,
      "note": 92,
      "start": 24.7051,
      "duration": 0.2027,
      "velocity": 74,
      "chip": "ym2612"
    },
    {
      "channel": 5,
      "note": 93,
      "start": 24.7051,
      "duration": 0.1654,
      "velocity": 85,
      "chip": "ym2612"
    },
    {
      "channel": 4,
      "note": 92,
      "start": 24.8044,
      "duration": 0.1661,
      "velocity": 85,
      "chip": "ym2612"
    },
    {
      "channel": 0,
      "note": 81,
      "start": 24.9077,
      "duration": 1.0461,
      "velocity": 91,
      "chip": "ym2612"
    },
    {
      "channel": 1,
      "note": 93,
      "start": 24.9078,
      "duration": 0.1976,
      "velocity": 74,
      "chip": "ym2612"
    },
    {
      "channel": 2,
      "note": 69,
      "start": 24.9078,
      "duration": 2.0973,
      "velocity": 76,
      "chip": "ym2612"
    },
    {
      "channel": 3,
      "note": 94,
      "start": 24.908,
      "duration": 2.4001,
      "velocity": 102,
      "chip": "ym2612"
    },
    {
      "channel": 5,
      "note": 92,
      "start": 24.908,
      "duration": 0.1625,
      "velocity": 85,
      "chip": "ym2612"
    },
    {
      "channel": 4,
      "note": 93,
      "start": 25.0048,
      "duration": 0.1658,
      "velocity": 85,
      "chip": "ym2612"
    },
    {
      "channel": 1,
      "note": 92,
      "start": 25.1055,
      "duration": 0.1995,
      "velocity": 74,
      "chip": "ym2612"
    },
    {
      "channel": 5,
      "note": 93,
      "start": 25.1056,
      "duration": 0.165,
      "velocity": 85,
      "chip": "ym2612"
    },
    {
      "channel": 4,
      "note": 92,
      "start": 25.2044,
      "duration": 0.1661,
      "velocity": 85,
      "chip": "ym2612"
    },
    {
      "channel": 1,
      "note": 90,
      "start": 25.3051,
      "duration": 0.2002,
      "velocity": 74,
      "chip": "ym2612"
    },
    {
      "channel": 5,
      "note": 92,
      "start": 25.3052,
      "duration": 0.1654,
      "velocity": 85,
      "chip": "ym2612"
    },
    {
      "channel": 4,
      "note": 90,
      "start": 25.4044,
      "duration": 0.1662,
      "velocity": 85,
      "chip": "ym2612"
    },
    {
      "channel": 1,
      "note": 93,
      "start": 25.5054,
      "duration": 0.2001,
      "velocity": 74,
      "chip": "ym2612"
    },
    {
      "channel": 5,
      "note": 90,
      "start": 25.5055,
      "duration": 0.1651,
      "velocity": 85,
      "chip": "ym2612"
    },
    {
      "channel": 4,
      "note": 93,
      "start": 25.6048,
      "duration": 0.1658,
      "velocity": 85,
      "chip": "ym2612"
    },
    {
      "channel": 1,
      "note": 92,
      "start": 25.7054,
      "duration": 0.1995,
      "velocity": 74,
      "chip": "ym2612"
    },
    {
      "channel": 5,
      "note": 93,
      "start": 25.7056,
      "duration": 0.1651,
      "velocity": 85,
      "chip": "ym2612"
    },
    {
      "channel": 4,
      "note": 92,
      "start": 25.8044,
      "duration": 0.1661,
      "velocity": 85,
      "chip": "ym2612"
    },
    {
      "channel": 1,
      "note": 90,
      "start": 25.9051,
      "duration": 0.2009,
      "velocity": 74,
      "chip": "ym2612"
    },
    {
      "channel": 5,
      "note": 92,
      "start": 25.9052,
      "duration": 0.1654,
      "velocity": 85,
      "chip": "ym2612"
    },
    {
      "channel": 4,
      "note": 90,
      "start": 26.0044,
      "duration": 0.1662,
      "velocity": 85,
      "chip": "ym2612"
    },
    {
      "channel": 0,
      "note": 81,
      "start": 26.1059,
      "duration": 0.248,
      "velocity": 91,
      "chip": "ym2612"
    },
    {
      "channel": 1,
      "note": 93,
      "start": 26.1059,
      "duration": 0.1995,
      "velocity": 74,
      "chip": "ym2612"
    },
    {
      "channel": 5,
      "note": 90,
      "start": 26.1061,
      "duration": 0.1645,
      "velocity": 85,
      "chip": "ym2612"
    },
    {
      "channel": 4,
      "note": 93,
      "start": 26.2047,
      "duration": 0.1658,
      "velocity": 85,
      "chip": "ym2612"
    },
    {
      "channel": 1,
      "note": 92,
      "start": 26.3055,
      "duration": 0.1995,
      "velocity": 74,
      "chip": "ym2612"
    },
    {
      "channel": 5,
      "note": 93,
      "start": 26.3056,
      "duration": 0.1651,
      "velocity": 85,
      "chip": "ym2612"
    },
    {
      "channel": 0,
      "note": 80,
      "start": 26.405,
      "duration": 0.2489,
      "velocity": 91,
      "chip": "ym2612"
    },
    {
      "channel": 4,
      "note": 92,
      "start": 26.4051,
      "duration": 0.1654,
      "velocity": 85,
      "chip": "ym2612"
    },
    {
      "channel": 1,
      "note": 90,
      "start": 26.5051,
      "duration": 0.2009,
      "velocity": 74,
      "chip": "ym2612"
    },
    {
      "channel": 5,
      "note": 92,
      "start": 26.5052,
      "duration": 0.1654,
      "velocity": 85,
      "chip": "ym2612"
    },
    {
      "channel": 4,
      "note": 90,
      "start": 26.6044,
      "duration": 0.1662,
      "velocity": 85,
      "chip": "ym2612"
    },
    {
      "channel": 0,
      "note": 78,
      "start": 26.7059,
      "duration": 0.248,
      "velocity": 91,
      "chip": "ym2612"
    },
    {
      "channel": 1,
      "note": 93,
      "start": 26.7059,
      "duration": 0.1994,
      "velocity": 74,
      "chip": "ym2612"
    },
    {
      "channel": 5,
      "note": 90,
      "start": 26.7061,
      "duration": 0.1645,
      "velocity": 85,
      "chip": "ym2612"
    },
    {
      "channel": 4,
      "note": 93,
      "start": 26.8047,
      "duration": 0.1658,
      "velocity": 85,
      "chip": "ym2612"
    },
    {
      "channel": 1,
      "note": 92,
      "start": 26.9054,
      "duration": 0.1995,
      "velocity": 74,
      "chip": "ym2612"
    },
    {
      "channel": 5,
      "note": 93,
      "start": 26.9056,
      "duration": 0.165,
      "velocity": 85,
      "chip": "ym2612"
    },
    {
      "channel": 0,
      "note": 81,
      "start": 27.0051,
      "duration": 0.2488,
      "velocity": 91,
      "chip": "ym2612"
    },
    {
      "channel": 4,
      "note": 92,
      "start": 27.0052,
      "duration": 0.1654,
      "velocity": 85,
      "chip": "ym2612"
    },
    {
      "channel": 1,
      "note": 90,
      "start": 27.1051,
      "duration": 0.2028,
      "velocity": 74,
      "chip": "ym2612"
    },
    {
      "channel": 5,
      "note": 92,
      "start": 27.1051,
      "duration": 0.1654,
      "velocity": 85,
      "chip": "ym2612"
    },
    {
      "channel": 4,
      "note": 90,
      "start": 27.2044,
      "duration": 0.1662,
      "velocity": 85,
      "chip": "ym2612"
    },
    {
      "channel": 0,
      "note": 80,
      "start": 27.3078,
      "duration": 0.2461,
      "velocity": 91,
      "chip": "ym2612"
    },
    {
      "channel": 1,
      "note": 92,
      "start": 27.3079,
      "duration": 0.1975,
      "velocity": 74,
      "chip": "ym2612"
    },
    {
      "channel": 2,
      "note": 68,
      "start": 27.308,
      "duration": 2.0959,
      "velocity": 76,
      "chip": "ym2612"
    },
    {
      "channel": 3,
      "note": 93,
      "start": 27.3081,
      "duration": 2.4006,
      "velocity": 102,
      "chip": "ym2612"
    },
    {
      "channel": 5,
      "note": 90,
      "start": 27.3082,
      "duration": 0.1625,
      "velocity": 85,
      "chip": "ym2612"
    },
    {
      "channel": 4,
      "note": 92,
      "start": 27.4049,
      "duration": 0.1658,
      "velocity": 85,
      "chip": "ym2612"
    },
    {
      "channel": 1,
      "note": 90,
      "start": 27.5055,
      "duration": 0.1994,
      "velocity": 74,
      "chip": "ym2612"
    },
    {
      "channel": 5,
      "note": 92,
      "start": 27.5056,
      "duration": 0.1649,
      "velocity": 85,
      "chip": "ym2612"
    },
    {
      "channel": 0,
      "note": 78,
      "start": 27.6049,
      "duration": 0.249,
      "velocity": 91,
      "chip": "ym2612"
    },
    {
      "channel": 4,
      "note": 90,
      "start": 27.605,
      "duration": 0.1656,
      "velocity": 85,
      "chip": "ym2612"
    },
    {
      "channel": 1,
      "note": 88,
      "start": 27.705,
      "duration": 0.201,
      "velocity": 74,
      "chip": "ym2612"
    },
    {
      "channel": 5,
      "note": 90,
      "start": 27.7051,
      "duration": 0.1655,
      "velocity": 85,
      "chip": "ym2612"
    },
    {
      "channel": 4,
      "note": 88,
      "start": 27.8044,
      "duration": 0.1662,
      "velocity": 85,
      "chip": "ym2612"
    },
    {
      "channel": 0,
      "note": 76,
      "start": 27.9059,
      "duration": 0.248,
      "velocity": 91,
      "chip": "ym2612"
    },
    {
      "channel": 1,
      "note": 92,
      "start": 27.906,
      "duration": 0.1994,
      "velocity": 74,
      "chip": "ym2612"
    },
    {
      "channel": 5,
      "note": 88,
      "start": 27.9061,
      "duration": 0.1645,
      "velocity": 85,
      "chip": "ym2612"
    },
    {
      "channel": 4,
      "note": 92,
      "start": 28.0048,
      "duration": 0.1658,
      "velocity": 85,
      "chip": "ym2612"
    },
    {
      "channel": 1,
      "note": 90,
      "start": 28.1054,
      "duration": 0.1995,
      "velocity": 74,
      "chip": "ym2612"
    },
    {
      "channel": 5,
      "note": 92,
      "start": 28.1056,
      "duration": 0.165,
      "velocity": 85,
      "chip": "ym2612"
    },
    {
      "channel": 0,
      "note": 75,
      "start": 28.2049,
      "duration": 0.249,
      "velocity": 91,
      "chip": "ym2612"
    },
    {
      "channel": 4,
      "note": 90,
      "start": 28.205,
      "duration": 0.1656,
      "velocity": 85,
      "chip": "ym2612"
    },
    {
      "channel": 1,
      "note": 88,
      "start": 28.305,
      "duration": 0.2015,
      "velocity": 74,
      "chip": "ym2612"
    },
    {
      "channel": 5,
      "note": 90,
      "start": 28.3051,
      "duration": 0.1655,
      "velocity": 85,
      "chip": "ym2612"
    },
    {
      "channel": 4,
      "note": 88,
      "start": 28.4044,
      "duration": 0.1662,
      "velocity": 85,
      "chip": "ym2612"
    },
    {
      "channel": 0,
      "note": 76,
      "start": 28.5065,
      "duration": 0.2474,
      "velocity": 91,
      "chip": "ym2612"
    },
    {
      "channel": 1,
      "note": 87,
      "start": 28.5065,
      "duration": 0.1986,
      "velocity": 74,
      "chip": "ym2612"
    },
    {
      "channel": 5,
      "note": 88,
      "start": 28.5066,
      "duration": 0.1639,
      "velocity": 85,
      "chip": "ym2612"
    },
    {
      "channel": 4,
      "note": 87,
      "start": 28.6046,
      "duration": 0.166,
      "velocity": 85,
      "chip": "ym2612"
    },
    {
      "channel": 1,
      "note": 88,
      "start": 28.7052,
      "duration": 0.1997,
      "velocity": 74,
      "chip": "ym2612"
    },
    {
      "channel": 5,
      "note": 87,
      "start": 28.7052,
      "duration": 0.1653,
      "velocity": 85,
      "chip": "ym2612"
    },
    {
      "channel": 0,
      "note": 78,
      "start": 28.8049,
      "duration": 0.249,
      "velocity": 91,
      "chip": "ym2612"
    },
    {
      "channel": 4,
      "note": 88,
      "start": 28.805,
      "duration": 0.1656,
      "velocity": 85,
      "chip": "ym2612"
    },
    {
      "channel": 1,
      "note": 90,
      "start": 28.905,
      "duration": 0.2006,
      "velocity": 74,
      "chip": "ym2612"
    },
    {
      "channel": 5,
      "note": 88,
      "start": 28.9051,
      "duration": 0.1655,
      "velocity": 85,
      "chip": "ym2612"
    },
    {
      "channel": 4,
      "note": 90,
      "start": 29.0044,
      "duration": 0.1663,
      "velocity": 85,
      "chip": "ym2612"
    },
    {
      "channel": 0,
      "note": 80,
      "start": 29.1055,
      "duration": 0.5151,
      "velocity": 91,
      "chip": "ym2612"
    },
    {
      "channel": 1,
      "note": 92,
      "start": 29.1056,
      "duration": 0.603,
      "velocity": 74,
      "chip": "ym2612"
    },
    {
      "channel": 5,
      "note": 90,
      "start": 29.1058,
      "duration": 0.1649,
      "velocity": 85,
      "chip": "ym2612"
    },
    {
      "channel": 4,
      "note": 92,
      "start": 29.2044,
      "duration": 0.5162,
      "velocity": 85,
      "chip": "ym2612"
    },
    {
      "channel": 5,
      "note": 92,
      "start": 29.3044,
      "duration": 0.5162,
      "velocity": 85,
      "chip": "ym2612"
    },
    {
      "channel": 0,
      "note": 85,
      "start": 29.7085,
      "duration": 1.0453,
      "velocity": 91,
      "chip": "ym2612"
    },
    {
      "channel": 1,
      "note": 97,
      "start": 29.7087,
      "duration": 0.1965,
      "velocity": 74,
      "chip": "ym2612"
    },
    {
      "channel": 2,
      "note": 73,
      "start": 29.7088,
      "duration": 2.0962,
      "velocity": 76,
      "chip": "ym2612"
    },
    {
      "channel": 3,
      "note": 95,
      "start": 29.7088,
      "duration": 2.399,
      "velocity": 102,
      "chip": "ym2612"
    },
    {
      "channel": 4,
      "note": 97,
      "start": 29.8046,
      "duration": 0.166,
      "velocity": 85,
      "chip": "ym2612"
    },
    {
      "channel": 1,
      "note": 95,
      "start": 29.9052,
      "duration": 0.1997,
      "velocity": 74,
      "chip": "ym2612"
    },
    {
      "channel": 5,
      "note": 97,
      "start": 29.9054,
      "duration": 0.1652,
      "velocity": 85,
      "chip": "ym2612"
    },
    {
      "channel": 4,
      "note": 95,
      "start": 30.0044,
      "duration": 0.1662,
      "velocity": 85,
      "chip": "ym2612"
    },
    {
      "channel": 1,
      "note": 93,
      "start": 30.105,
      "duration": 0.2003,
      "velocity": 74,
      "chip": "ym2612"
    },
    {
      "channel": 5,
      "note": 95,
      "start": 30.1051,
      "duration": 0.1654,
      "velocity": 85,
      "chip": "ym2612"
    },
    {
      "channel": 4,
      "note": 93,
      "start": 30.2044,
      "duration": 0.1662,
      "velocity": 85,
      "chip": "ym2612"
    },
    {
      "channel": 1,
      "note": 97,
      "start": 30.3054,
      "duration": 0.2,
      "velocity": 74,
      "chip": "ym2612"
    },
    {
      "channel": 5,
      "note": 93,
      "start": 30.3055,
      "duration": 0.1651,
      "velocity": 85,
      "chip": "ym2612"
    },
    {
      "channel": 4,
      "note": 97,
      "start": 30.4048,
      "duration": 0.1658,
      "velocity": 85,
      "chip": "ym2612"
    },
    {
      "channel": 1,
      "note": 95,
      "start": 30.5054,
      "duration": 0.1995,
      "velocity": 74,
      "chip": "ym2612"
    },
    {
      "channel": 5,
      "note": 97,
      "start": 30.5055,
      "duration": 0.1651,
      "velocity": 85,
      "chip": "ym2612"
    },
    {
      "channel": 4,
      "note": 95,
      "start": 30.6044,
      "duration": 0.1662,
      "velocity": 85,
      "chip": "ym2612"
    },
    {
      "channel": 1,
      "note": 93,
      "start": 30.705,
      "duration": 0.201,
      "velocity": 74,
      "chip": "ym2612"
    },
    {
      "channel": 5,
      "note": 95,
      "start": 30.7051,
      "duration": 0.1654,
      "velocity": 85,
      "chip": "ym2612"
    },
    {
      "channel": 4,
      "note": 93,
      "start": 30.8044,
      "duration": 0.1662,
      "velocity": 85,
      "chip": "ym2612"
    },
    {
      "channel": 0,
      "note": 85,
      "start": 30.9059,
      "duration": 0.248,
      "velocity": 91,
      "chip": "ym2612"
    },
    {
      "channel": 1,
      "note": 97,
      "start": 30.906,
      "duration": 0.1994,
      "velocity": 74,
      "chip": "ym2612"
    },
    {
      "channel": 5,
      "note": 93,
      "start": 30.9061,
      "duration": 0.1645,
      "velocity": 85,
      "chip": "ym2612"
    },
    {
      "channel": 4,
      "note": 97,
      "start": 31.0048,
      "duration": 0.1658,
      "velocity": 85,
      "chip": "ym2612"
    },
    {
      "channel": 1,
      "note": 95,
      "start": 31.1054,
      "duration": 0.1995,
      "velocity": 74,
      "chip": "ym2612"
    },
    {
      "channel": 5,
      "note": 97,
      "start": 31.1055,
      "duration": 0.1651,
      "velocity": 85,
      "chip": "ym2612"
    },
    {
      "channel": 0,
      "note": 83,
      "start": 31.2049,
      "duration": 0.249,
      "velocity": 91,
      "chip": "ym2612"
    },
    {
      "channel": 4,
      "note": 95,
      "start": 31.2049,
      "duration": 0.1656,
      "velocity": 85,
      "chip": "ym2612"
    },
    {
      "channel": 1,
      "note": 93,
      "start": 31.305,
      "duration": 0.201,
      "velocity": 74,
      "chip": "ym2612"
    },
    {
      "channel": 5,
      "note": 95,
      "start": 31.3051,
      "duration": 0.1654,
      "velocity": 85,
      "chip": "ym2612"
    },
    {
      "channel": 4,
      "note": 93,
      "start": 31.4044,
      "duration": 0.1662,
      "velocity": 85,
      "chip": "ym2612"
    },
    {
      "channel": 0,
      "note": 81,
      "start": 31.5059,
      "duration": 0.248,
      "velocity": 91,
      "chip": "ym2612"
    },
    {
      "channel": 1,
      "note": 97,
      "start": 31.506,
      "duration": 0.1994,
      "velocity": 74,
      "chip": "ym2612"
    },
    {
      "channel": 5,
      "note": 93,
      "start": 31.5061,
      "duration": 0.1645,
      "velocity": 85,
      "chip": "ym2612"
    },
    {
      "channel": 4,
      "note": 97,
      "start": 31.6048,
      "duration": 0.1658,
      "velocity": 85,
      "chip": "ym2612"
    },
    {
      "channel": 1,
      "note": 95,
      "start": 31.7054,
      "duration": 0.1995,
      "velocity": 74,
      "chip": "ym2612"
    },
    {
      "channel": 5,
      "note": 97,
      "start": 31.7055,
      "duration": 0.1651,
      "velocity": 85,
      "chip": "ym2612"
    },
    {
      "channel": 0,
      "note": 85,
      "start": 31.8049,
      "duration": 0.2489,
      "velocity": 91,
      "chip": "ym2612"
    },
    {
      "channel": 4,
      "note": 95,
      "start": 31.8051,
      "duration": 0.1655,
      "velocity": 85,
      "chip": "ym2612"
    },
    {
      "channel": 1,
      "note": 93,
      "start": 31.905,
      "duration": 0.2027,
      "velocity": 74,
      "chip": "ym2612"
    },
    {
      "channel": 5,
      "note": 95,
      "start": 31.9051,
      "duration": 0.1655,
      "velocity": 85,
      "chip": "ym2612"
    },
    {
      "channel": 4,
      "note": 93,
      "start": 32.0044,
      "duration": 0.1662,
      "velocity": 85,
      "chip": "ym2612"
    },
    {
      "channel": 0,
      "note": 83,
      "start": 32.1077,
      "duration": 1.0462,
      "velocity": 91,
      "chip": "ym2612"
    },
    {
      "channel": 1,
      "note": 95,
      "start": 32.1077,
      "duration": 0.1977,
      "velocity": 74,
      "chip": "ym2612"
    },
    {
      "channel": 2,
      "note": 71,
      "start": 32.1078,
      "duration": 2.0973,
      "velocity": 76,
      "chip": "ym2612"
    },
    {
      "channel": 3,
      "note": 96,
      "start": 32.1079,
      "duration": 2.4,
      "velocity": 102,
      "chip": "ym2612"
    },
    {
      "channel": 5,
      "note": 93,
      "start": 32.108,
      "duration": 0.1626,
      "velocity": 85,
      "chip": "ym2612"
    },
    {
      "channel": 4,
      "note": 95,
      "start": 32.2049,
      "duration": 0.1657,
      "velocity": 85,
      "chip": "ym2612"
    },
    {
      "channel": 1,
      "note": 93,
      "start": 32.3054,
      "duration": 0.1995,
      "velocity": 74,
      "chip": "ym2612"
    },
    {
      "channel": 5,
      "note": 95,
      "start": 32.3056,
      "duration": 0.1651,
      "velocity": 85,
      "chip": "ym2612"
    },
    {
      "channel": 4,
      "note": 93,
      "start": 32.4044,
      "duration": 0.1662,
      "velocity": 85,
      "chip": "ym2612"
    },
    {
      "channel": 1,
      "note": 92,
      "start": 32.5051,
      "duration": 0.2004,
      "velocity": 74,
      "chip": "ym2612"
    },
    {
      "channel": 5,
      "note": 93,
      "start": 32.5051,
      "duration": 0.1655,
      "velocity": 85,
      "chip": "ym2612"
    },
    {
      "channel": 4,
      "note": 92,
      "start": 32.6044,
      "duration": 0.1661,
      "velocity": 85,
      "chip": "ym2612"
    },
    {
      "channel": 1,
      "note": 95,
      "start": 32.7055,
      "duration": 0.1999,
      "velocity": 74,
      "chip": "ym2612"
    },
    {
      "channel": 5,
      "note": 92,
      "start": 32.7056,
      "duration": 0.165,
      "velocity": 85,
      "chip": "ym2612"
    },
    {
      "channel": 4,
      "note": 95,
      "start": 32.8048,
      "duration": 0.1658,
      "velocity": 85,
      "chip": "ym2612"
    },
    {
      "channel": 1,
      "note": 93,
      "start": 32.9054,
      "duration": 0.1995,
      "velocity": 74,
      "chip": "ym2612"
    },
    {
      "channel": 5,
      "note": 95,
      "start": 32.9055,
      "duration": 0.1651,
      "velocity": 85,
      "chip": "ym2612"
    },
    {
      "channel": 4,
      "note": 93,
      "start": 33.0044,
      "duration": 0.1662,
      "velocity": 85,
      "chip": "ym2612"
    },
    {
      "channel": 1,
      "note": 92,
      "start": 33.1051,
      "duration": 0.201,
      "velocity": 74,
      "chip": "ym2612"
    },
    {
      "channel": 5,
      "note": 93,
      "start": 33.1051,
      "duration": 0.1655,
      "velocity": 85,
      "chip": "ym2612"
    },
    {
      "channel": 4,
      "note": 92,
      "start": 33.2044,
      "duration": 0.1661,
      "velocity": 85,
      "chip": "ym2612"
    },
    {
      "channel": 0,
      "note": 83,
      "start": 33.3059,
      "duration": 0.2479,
      "velocity": 91,
      "chip": "ym2612"
    },
    {
      "channel": 1,
      "note": 95,
      "start": 33.3061,
      "duration": 0.1993,
      "velocity": 74,
      "chip": "ym2612"
    },
    {
      "channel": 5,
      "note": 92,
      "start": 33.3061,
      "duration": 0.1645,
      "velocity": 85,
      "chip": "ym2612"
    },
    {
      "channel": 4,
      "note": 95,
      "start": 33.4048,
      "duration": 0.1658,
      "velocity": 85,
      "chip": "ym2612"
    },
    {
      "channel": 1,
      "note": 93,
      "start": 33.5054,
      "duration": 0.1995,
      "velocity": 74,
      "chip": "ym2612"
    },
    {
      "channel": 5,
      "note": 95,
      "start": 33.5055,
      "duration": 0.1651,
      "velocity": 85,
      "chip": "ym2612"
    },
    {
      "channel": 0,
      "note": 81,
      "start": 33.6049,
      "duration": 0.249,
      "velocity": 91,
      "chip": "ym2612"
    },
    {
      "channel": 4,
      "note": 93,
      "start": 33.6049,
      "duration": 0.1656,
      "velocity": 85,
      "chip": "ym2612"
    },
    {
      "channel": 1,
      "note": 92,
      "start": 33.7051,
      "duration": 0.201,
      "velocity": 74,
      "chip": "ym2612"
    },
    {
      "channel": 5,
      "note": 93,
      "start": 33.7051,
      "duration": 0.1655,
      "velocity": 85,
      "chip": "ym2612"
    },
    {
      "channel": 4,
      "note": 92,
      "start": 33.8044,
      "duration": 0.1661,
      "velocity": 85,
      "chip": "ym2612"
    },
    {
      "channel": 0,
      "note": 80,
      "start": 33.906,
      "duration": 0.2478,
      "velocity": 91,
      "chip": "ym2612"
    },
    {
      "channel": 1,
      "note": 95,
      "start": 33.9061,
      "duration": 0.1992,
      "velocity": 74,
      "chip": "ym2612"
    },
    {
      "channel": 5,
      "note": 92,
      "start": 33.9062,
      "duration": 0.1644,
      "velocity": 85,
      "chip": "ym2612"
    },
    {
      "channel": 4,
      "note": 95,
      "start": 34.0048,
      "duration": 0.1658,
      "velocity": 85,
      "chip": "ym2612"
    },
    {
      "channel": 1,
      "note": 93,
      "start": 34.1054,
      "duration": 0.1995,
      "velocity": 74,
      "chip": "ym2612"
    },
    {
      "channel": 5,
      "note": 95,
      "start": 34.1055,
      "duration": 0.1651,
      "velocity": 85,
      "chip": "ym2612"
    },
    {
      "channel": 0,
      "note": 83,
      "start": 34.205,
      "duration": 0.2489,
      "velocity": 91,
      "chip": "ym2612"
    },
    {
      "channel": 4,
      "note": 93,
      "start": 34.2051,
      "duration": 0.1654,
      "velocity": 85,
      "chip": "ym2612"
    },
    {
      "channel": 1,
      "note": 92,
      "start": 34.3051,
      "duration": 0.2027,
      "velocity": 74,
      "chip": "ym2612"
    },
    {
      "channel": 5,
      "note": 93,
      "start": 34.3051,
      "duration": 0.1654,
      "velocity": 85,
      "chip": "ym2612"
    },
    {
      "channel": 4,
      "note": 92,
      "start": 34.4044,
      "duration": 0.1661,
      "velocity": 85,
      "chip": "ym2612"
    },
    {
      "channel": 0,
      "note": 81,
      "start": 34.5077,
      "duration": 1.0461,
      "velocity": 91,
      "chip": "ym2612"
    },
    {
      "channel": 1,
      "note": 93,
      "start": 34.5078,
      "duration": 0.1976,
      "velocity": 74,
      "chip": "ym2612"
    },
    {
      "channel": 2,
      "note": 69,
      "start": 34.5078,
      "duration": 2.0973,
      "velocity": 76,
      "chip": "ym2612"
    },
    {
      "channel": 3,
      "note": 94,
      "start": 34.508,
      "duration": 2.4005,
      "velocity": 102,
      "chip": "ym2612"
    },
    {
      "channel": 5,
      "note": 92,
      "start": 34.508,
      "duration": 0.1625,
      "velocity": 85,
      "chip": "ym2612"
    },
    {
      "channel": 4,
      "note": 93,
      "start": 34.6049,
      "duration": 0.1657,
      "velocity": 85,
      "chip": "ym2612"
    },
    {
      "channel": 1,
      "note": 92,
      "start": 34.7055,
      "duration": 0.1995,
      "velocity": 74,
      "chip": "ym2612"
    },
    {
      "channel": 5,
      "note": 93,
      "start": 34.7056,
      "duration": 0.165,
      "velocity": 85,
      "chip": "ym2612"
    },
    {
      "channel": 4,
      "note": 92,
      "start": 34.8044,
      "duration": 0.1661,
      "velocity": 85,
      "chip": "ym2612"
    },
    {
      "channel": 1,
      "note": 90,
      "start": 34.9051,
      "duration": 0.2002,
      "velocity": 74,
      "chip": "ym2612"
    },
    {
      "channel": 5,
      "note": 92,
      "start": 34.9052,
      "duration": 0.1654,
      "velocity": 85,
      "chip": "ym2612"
    },
    {
      "channel": 4,
      "note": 90,
      "start": 35.0044,
      "duration": 0.1662,
      "velocity": 85,
      "chip": "ym2612"
    },
    {
      "channel": 1,
      "note": 93,
      "start": 35.1054,
      "duration": 0.2001,
      "velocity": 74,
      "chip": "ym2612"
    },
    {
      "channel": 5,
      "note": 90,
      "start": 35.1054,
      "duration": 0.1651,
      "velocity": 85,
      "chip": "ym2612"
    },
    {
      "channel": 4,
      "note": 93,
      "start": 35.2048,
      "duration": 0.1658,
      "velocity": 85,
      "chip": "ym2612"
    },
    {
      "channel": 1,
      "note": 92,
      "start": 35.3054,
      "duration": 0.1995,
      "velocity": 74,
      "chip": "ym2612"
    },
    {
      "channel": 5,
      "note": 93,
      "start": 35.3056,
      "duration": 0.1651,
      "velocity": 85,
      "chip": "ym2612"
    },
    {
      "channel": 4,
      "note": 92,
      "start": 35.4045,
      "duration": 0.1661,
      "velocity": 85,
      "chip": "ym2612"
    },
    {
      "channel": 1,
      "note": 90,
      "start": 35.5051,
      "duration": 0.2009,
      "velocity": 74,
      "chip": "ym2612"
    },
    {
      "channel": 5,
      "note": 92,
      "start": 35.5052,
      "duration": 0.1654,
      "velocity": 85,
      "chip": "ym2612"
    },
    {
      "channel": 4,
      "note": 90,
      "start": 35.6044,
      "duration": 0.1662,
      "velocity": 85,
      "chip": "ym2612"
    },
    {
      "channel": 0,
      "note": 81,
      "start": 35.7059,
      "duration": 0.248,
      "velocity": 91,
      "chip": "ym2612"
    },
    {
      "channel": 1,
      "note": 93,
      "start": 35.7059,
      "duration": 0.1995,
      "velocity": 74,
      "chip": "ym2612"
    },
    {
      "channel": 5,
      "note": 90,
      "start": 35.7061,
      "duration": 0.1645,
      "velocity": 85,
      "chip": "ym2612"
    },
    {
      "channel": 4,
      "note": 93,
      "start": 35.8047,
      "duration": 0.1658,
      "velocity": 85,
      "chip": "ym2612"
    },
    {
      "channel": 1,
      "note": 92,
      "start": 35.9054,
      "duration": 0.1995,
      "velocity": 74,
      "chip": "ym2612"
    },
    {
      "channel": 5,
      "note": 93,
      "start": 35.9056,
      "duration": 0.1651,
      "velocity": 85,
      "chip": "ym2612"
    },
    {
      "channel": 0,
      "note": 80,
      "start": 36.005,
      "duration": 0.2489,
      "velocity": 91,
      "chip": "ym2612"
    },
    {
      "channel": 4,
      "note": 92,
      "start": 36.0051,
      "duration": 0.1654,
      "velocity": 85,
      "chip": "ym2612"
    },
    {
      "channel": 1,
      "note": 90,
      "start": 36.1051,
      "duration": 0.2009,
      "velocity": 74,
      "chip": "ym2612"
    },
    {
      "channel": 5,
      "note": 92,
      "start": 36.1052,
      "duration": 0.1654,
      "velocity": 85,
      "chip": "ym2612"
    },
    {
      "channel": 4,
      "note": 90,
      "start": 36.2044,
      "duration": 0.1662,
      "velocity": 85,
      "chip": "ym2612"
    },
    {
      "channel": 0,
      "note": 78,
      "start": 36.3059,
      "duration": 0.248,
      "velocity": 91,
      "chip": "ym2612"
    },
    {
      "channel": 1,
      "note": 93,
      "start": 36.3059,
      "duration": 0.1995,
      "velocity": 74,
      "chip": "ym2612"
    },
    {
      "channel": 5,
      "note": 90,
      "start": 36.3061,
      "duration": 0.1645,
      "velocity": 85,
      "chip": "ym2612"
    },
    {
      "channel": 4,
      "note": 93,
      "start": 36.4047,
      "duration": 0.1658,
      "velocity": 85,
      "chip": "ym2612"
    },
    {
      "channel": 1,
      "note": 92,
      "start": 36.5054,
      "duration": 0.1995,
      "velocity": 74,
      "chip": "ym2612"
    },
    {
      "channel": 5,
      "note": 93,
      "start": 36.5056,
      "duration": 0.165,
      "velocity": 85,
      "chip": "ym2612"
    },
    {
      "channel": 0,
      "note": 81,
      "start": 36.6051,
      "duration": 0.2488,
      "velocity": 91,
      "chip": "ym2612"
    },
    {
      "channel": 4,
      "note": 92,
      "start": 36.6052,
      "duration": 0.1654,
      "velocity": 85,
      "chip": "ym2612"
    },
    {
      "channel": 1,
      "note": 90,
      "start": 36.7051,
      "duration": 0.2032,
      "velocity": 74,
      "chip": "ym2612"
    },
    {
      "channel": 5,
      "note": 92,
      "start": 36.7051,
      "duration": 0.1654,
      "velocity": 85,
      "chip": "ym2612"
    },
    {
      "channel": 4,
      "note": 90,
      "start": 36.8044,
      "duration": 0.1662,
      "velocity": 85,
      "chip": "ym2612"
    },
    {
      "channel": 0,
      "note": 83,
      "start": 36.9082,
      "duration": 1.4456,
      "velocity": 91,
      "chip": "ym2612"
    },
    {
      "channel": 1,
      "note": 83,
      "start": 36.9084,
      "duration": 0.1968,
      "velocity": 74,
      "chip": "ym2612"
    },
    {
      "channel": 2,
      "note": 64,
      "start": 36.9084,
      "duration": 2.096,
      "velocity": 76,
      "chip": "ym2612"
    },
    {
      "channel": 3,
      "note": 91,
      "start": 36.9085,
      "duration": 2.4008,
      "velocity": 102,
      "chip": "ym2612"
    },
    {
      "channel": 5,
      "note": 90,
      "start": 36.9086,
      "duration": 0.1619,
      "velocity": 85,
      "chip": "ym2612"
    },
    {
      "channel": 4,
      "note": 83,
      "start": 37.0046,
      "duration": 0.166,
      "velocity": 85,
      "chip": "ym2612"
    },
    {
      "channel": 1,
      "note": 85,
      "start": 37.1052,
      "duration": 0.1997,
      "velocity": 74,
      "chip": "ym2612"
    },
    {
      "channel": 5,
      "note": 83,
      "start": 37.1053,
      "duration": 0.1652,
      "velocity": 85,
      "chip": "ym2612"
    },
    {
      "channel": 4,
      "note": 85,
      "start": 37.2043,
      "duration": 0.1662,
      "velocity": 85,
      "chip": "ym2612"
    },
    {
      "channel": 1,
      "note": 87,
      "start": 37.3049,
      "duration": 0.2,
      "velocity": 74,
      "chip": "ym2612"
    },
    {
      "channel": 5,
      "note": 85,
      "start": 37.3051,
      "duration": 0.1655,
      "velocity": 85,
      "chip": "ym2612"
    },
    {
      "channel": 4,
      "note": 87,
      "start": 37.4043,
      "duration": 0.1662,
      "velocity": 85,
      "chip": "ym2612"
    },
    {
      "channel": 1,
      "note": 88,
      "start": 37.5049,
      "duration": 0.2,
      "velocity": 74,
      "chip": "ym2612"
    },
    {
      "channel": 5,
      "note": 87,
      "start": 37.5051,
      "duration": 0.1655,
      "velocity": 85,
      "chip": "ym2612"
    },
    {
      "channel": 4,
      "note": 88,
      "start": 37.6043,
      "duration": 0.1663,
      "velocity": 85,
      "chip": "ym2612"
    },
    {
      "channel": 1,
      "note": 90,
      "start": 37.7049,
      "duration": 0.2,
      "velocity": 74,
      "chip": "ym2612"
    },
    {
      "channel": 5,
      "note": 88,
      "start": 37.7051,
      "duration": 0.1655,
      "velocity": 85,
      "chip": "ym2612"
    },
    {
      "channel": 4,
      "note": 90,
      "start": 37.8043,
      "duration": 0.1662,
      "velocity": 85,
      "chip": "ym2612"
    },
    {
      "channel": 1,
      "note": 81,
      "start": 37.905,
      "duration": 0.2004,
      "velocity": 74,
      "chip": "ym2612"
    },
    {
      "channel": 5,
      "note": 90,
      "start": 37.9051,
      "duration": 0.1654,
      "velocity": 85,
      "chip": "ym2612"
    },
    {
      "channel": 4,
      "note": 81,
      "start": 38.0044,
      "duration": 0.1662,
      "velocity": 85,
      "chip": "ym2612"
    },
    {
      "channel": 1,
      "note": 83,
      "start": 38.1054,
      "duration": 1.2037,
      "velocity": 74,
      "chip": "ym2612"
    },
    {
      "channel": 5,
      "note": 81,
      "start": 38.1056,
      "duration": 0.165,
      "velocity": 85,
      "chip": "ym2612"
    },
    {
      "channel": 0,
      "note": 71,
      "start": 38.4045,
      "duration": 0.2493,
      "velocity": 91,
      "chip": "ym2612"
    },
    {
      "channel": 0,
      "note": 76,
      "start": 38.7045,
      "duration": 0.2493,
      "velocity": 91,
      "chip": "ym2612"
    },
    {
      "channel": 0,
      "note": 78,
      "start": 39.0044,
      "duration": 0.2494,
      "velocity": 91,
      "chip": "ym2612"
    },
    {
      "channel": 0,
      "note": 80,
      "start": 39.3091,
      "duration": 1.4448,
      "velocity": 91,
      "chip": "ym2612"
    },
    {
      "channel": 1,
      "note": 92,
      "start": 39.3092,
      "duration": 0.2952,
      "velocity": 74,
      "chip": "ym2612"
    },
    {
      "channel": 2,
      "note": 68,
      "start": 39.3093,
      "duration": 2.0961,
      "velocity": 76,
      "chip": "ym2612"
    },
    {
      "channel": 3,
      "note": 90,
      "start": 39.3094,
      "duration": 2.391,
      "velocity": 102,
      "chip": "ym2612"
    },
    {
      "channel": 1,
      "note": 83,
      "start": 39.6044,
      "duration": 0.2999,
      "velocity": 74,
      "chip": "ym2612"
    },
    {
      "channel": 1,
      "note": 88,
      "start": 39.9044,
      "duration": 0.3,
      "velocity": 74,
      "chip": "ym2612"
    },
    {
      "channel": 1,
      "note": 92,
      "start": 40.2045,
      "duration": 0.6006,
      "velocity": 74,
      "chip": "ym2612"
    },
    {
      "channel": 0,
      "note": 80,
      "start": 40.805,
      "duration": 0.2489,
      "velocity": 91,
      "chip": "ym2612"
    },
    {
      "channel": 1,
      "note": 92,
      "start": 40.8051,
      "duration": 0.3,
      "velocity": 74,
      "chip": "ym2612"
    },
    {
      "channel": 0,
      "note": 81,
      "start": 41.1051,
      "duration": 0.2488,
      "velocity": 91,
      "chip": "ym2612"
    },
    {
      "channel": 1,
      "note": 93,
      "start": 41.1051,
      "duration": 0.3001,
      "velocity": 74,
      "chip": "ym2612"
    },
    {
      "channel": 0,
      "note": 80,
      "start": 41.4052,
      "duration": 0.2487,
      "velocity": 91,
      "chip": "ym2612"
    },
    {
      "channel": 1,
      "note": 92,
      "start": 41.4053,
      "duration": 0.2951,
      "velocity": 74,
      "chip": "ym2612"
    }
  ]
}