{
  "track_name": "17 - Flying Battery Zone Act 1",
  "duration_sec": 41.183,
  "sample_rate": 44100,
  "note_count": 756,
  "unique_pitches": 35,
  "pitch_range": 55,
  "avg_note_duration": 0.1732,
  "reconstruction_stats": {
    "notes_reconstructed": 756,
    "keyon_events": 756,
    "keyoff_events": 753,
    "orphan_keyons": 3,
    "unique_pitches": 35,
    "pitch_range": 55,
    "avg_duration_sec": 0.1732
  },
  "metadata": {
    "source": "S\\Sonic 3 & Knuckles\\17 - Flying Battery Zone Act 1.vgz"
  },
  "notes": [
    {
      "channel": 0,
      "note": 80,
      "start": 0.0,
      "duration": 0.0,
      "velocity": 79,
      "chip": "ym2612"
    },
    {
      "channel": 0,
      "note": 79,
      "start": 0.0,
      "duration": 0.0,
      "velocity": 79,
      "chip": "ym2612"
    },
    {
      "channel": 0,
      "note": 78,
      "start": 0.0,
      "duration": 0.0,
      "velocity": 1,
      "chip": "ym2612"
    },
    {
      "channel": 1,
      "note": 59,
      "start": 0.0,
      "duration": 0.0131,
      "velocity": 91,
      "chip": "ym2612"
    },
    {
      "channel": 4,
      "note": 88,
      "start": 0.0,
      "duration": 0.0,
      "velocity": 79,
      "chip": "ym2612"
    },
    {
      "channel": 4,
      "note": 87,
      "start": 0.0,
      "duration": 0.0,
      "velocity": 79,
      "chip": "ym2612"
    },
    {
      "channel": 4,
      "note": 86,
      "start": 0.0,
      "duration": 0.0,
      "velocity": 1,
      "chip": "ym2612"
    },
    {
      "channel": 1,
      "note": 61,
      "start": 0.0137,
      "duration": 0.0257,
      "velocity": 91,
      "chip": "ym2612"
    },
    {
      "channel": 1,
      "note": 54,
      "start": 0.04,
      "duration": 0.0063,
      "velocity": 91,
      "chip": "ym2612"
    },
    {
      "channel": 1,
      "note": 54,
      "start": 0.0661,
      "duration": 0.0062,
      "velocity": 91,
      "chip": "ym2612"
    },
    {
      "channel": 1,
      "note": 54,
      "start": 0.0947,
      "duration": 0.1237,
      "velocity": 91,
      "chip": "ym2612"
    },
    {
      "channel": 2,
      "note": 78,
      "start": 0.0975,
      "duration": 0.1873,
      "velocity": 92,
      "chip": "ym2612"
    },
    {
      "channel": 3,
      "note": 73,
      "start": 0.1003,
      "duration": 0.1848,
      "velocity": 92,
      "chip": "ym2612"
    },
    {
      "channel": 0,
      "note": 102,
      "start": 0.2182,
      "duration": 1.4789,
      "velocity": 73,
      "chip": "ym2612"
    },
    {
      "channel": 1,
      "note": 64,
      "start": 0.2189,
      "duration": 0.0989,
      "velocity": 91,
      "chip": "ym2612"
    },
    {
      "channel": 1,
      "note": 66,
      "start": 0.3184,
      "duration": 0.0997,
      "velocity": 91,
      "chip": "ym2612"
    },
    {
      "channel": 1,
      "note": 54,
      "start": 0.4188,
      "duration": 0.0107,
      "velocity": 91,
      "chip": "ym2612"
    },
    {
      "channel": 2,
      "note": 76,
      "start": 0.4195,
      "duration": 0.0654,
      "velocity": 92,
      "chip": "ym2612"
    },
    {
      "channel": 3,
      "note": 73,
      "start": 0.4203,
      "duration": 0.0649,
      "velocity": 92,
      "chip": "ym2612"
    },
    {
      "channel": 4,
      "note": 102,
      "start": 0.431,
      "duration": 1.5336,
      "velocity": 73,
      "chip": "ym2612"
    },
    {
      "channel": 1,
      "note": 54,
      "start": 0.4507,
      "duration": 0.0175,
      "velocity": 91,
      "chip": "ym2612"
    },
    {
      "channel": 1,
      "note": 54,
      "start": 0.5187,
      "duration": 0.0494,
      "velocity": 91,
      "chip": "ym2612"
    },
    {
      "channel": 1,
      "note": 53,
      "start": 0.619,
      "duration": 0.1254,
      "velocity": 91,
      "chip": "ym2612"
    },
    {
      "channel": 2,
      "note": 73,
      "start": 0.6198,
      "duration": 0.1749,
      "velocity": 92,
      "chip": "ym2612"
    },
    {
      "channel": 3,
      "note": 69,
      "start": 0.6206,
      "duration": 0.1744,
      "velocity": 92,
      "chip": "ym2612"
    },
    {
      "channel": 1,
      "note": 64,
      "start": 0.745,
      "duration": 0.0994,
      "velocity": 91,
      "chip": "ym2612"
    },
    {
      "channel": 1,
      "note": 65,
      "start": 0.845,
      "duration": 0.0996,
      "velocity": 91,
      "chip": "ym2612"
    },
    {
      "channel": 2,
      "note": 71,
      "start": 0.8458,
      "duration": 0.1246,
      "velocity": 92,
      "chip": "ym2612"
    },
    {
      "channel": 3,
      "note": 66,
      "start": 0.8465,
      "duration": 0.1242,
      "velocity": 92,
      "chip": "ym2612"
    },
    {
      "channel": 1,
      "note": 53,
      "start": 0.9453,
      "duration": 0.0111,
      "velocity": 91,
      "chip": "ym2612"
    },
    {
      "channel": 1,
      "note": 53,
      "start": 0.9779,
      "duration": 0.0167,
      "velocity": 91,
      "chip": "ym2612"
    },
    {
      "channel": 2,
      "note": 69,
      "start": 0.9787,
      "duration": 0.0667,
      "velocity": 92,
      "chip": "ym2612"
    },
    {
      "channel": 3,
      "note": 61,
      "start": 0.9794,
      "duration": 0.0663,
      "velocity": 92,
      "chip": "ym2612"
    },
    {
      "channel": 1,
      "note": 53,
      "start": 1.0452,
      "duration": 0.0494,
      "velocity": 91,
      "chip": "ym2612"
    },
    {
      "channel": 1,
      "note": 52,
      "start": 1.1455,
      "duration": 0.1253,
      "velocity": 91,
      "chip": "ym2612"
    },
    {
      "channel": 2,
      "note": 69,
      "start": 1.1717,
      "duration": 0.3001,
      "velocity": 92,
      "chip": "ym2612"
    },
    {
      "channel": 3,
      "note": 66,
      "start": 1.1724,
      "duration": 0.3001,
      "velocity": 92,
      "chip": "ym2612"
    },
    {
      "channel": 1,
      "note": 52,
      "start": 1.2714,
      "duration": 0.0994,
      "velocity": 91,
      "chip": "ym2612"
    },
    {
      "channel": 1,
      "note": 64,
      "start": 1.3714,
      "duration": 0.0996,
      "velocity": 91,
      "chip": "ym2612"
    },
    {
      "channel": 1,
      "note": 52,
      "start": 1.4716,
      "duration": 0.0121,
      "velocity": 91,
      "chip": "ym2612"
    },
    {
      "channel": 2,
      "note": 71,
      "start": 1.4723,
      "duration": 0.017,
      "velocity": 92,
      "chip": "ym2612"
    },
    {
      "channel": 3,
      "note": 68,
      "start": 1.4731,
      "duration": 0.0165,
      "velocity": 92,
      "chip": "ym2612"
    },
    {
      "channel": 1,
      "note": 52,
      "start": 1.5034,
      "duration": 0.0178,
      "velocity": 91,
      "chip": "ym2612"
    },
    {
      "channel": 2,
      "note": 73,
      "start": 1.5042,
      "duration": 0.0677,
      "velocity": 92,
      "chip": "ym2612"
    },
    {
      "channel": 3,
      "note": 69,
      "start": 1.5049,
      "duration": 0.0673,
      "velocity": 92,
      "chip": "ym2612"
    },
    {
      "channel": 1,
      "note": 52,
      "start": 1.5718,
      "duration": 0.0494,
      "velocity": 91,
      "chip": "ym2612"
    },
    {
      "channel": 1,
      "note": 53,
      "start": 1.6721,
      "duration": 0.1258,
      "velocity": 91,
      "chip": "ym2612"
    },
    {
      "channel": 2,
      "note": 71,
      "start": 1.6729,
      "duration": 0.2251,
      "velocity": 92,
      "chip": "ym2612"
    },
    {
      "channel": 3,
      "note": 68,
      "start": 1.6736,
      "duration": 0.2251,
      "velocity": 92,
      "chip": "ym2612"
    },
    {
      "channel": 0,
      "note": 100,
      "start": 1.6977,
      "duration": 0.0994,
      "velocity": 73,
      "chip": "ym2612"
    },
    {
      "channel": 0,
      "note": 97,
      "start": 1.7977,
      "duration": 0.0994,
      "velocity": 73,
      "chip": "ym2612"
    },
    {
      "channel": 1,
      "note": 65,
      "start": 1.7984,
      "duration": 0.0656,
      "velocity": 91,
      "chip": "ym2612"
    },
    {
      "channel": 0,
      "note": 95,
      "start": 1.8977,
      "duration": 0.0996,
      "velocity": 73,
      "chip": "ym2612"
    },
    {
      "channel": 2,
      "note": 69,
      "start": 1.8985,
      "duration": 0.1002,
      "velocity": 92,
      "chip": "ym2612"
    },
    {
      "channel": 3,
      "note": 66,
      "start": 1.8993,
      "duration": 0.0998,
      "velocity": 92,
      "chip": "ym2612"
    },
    {
      "channel": 4,
      "note": 100,
      "start": 1.9653,
      "duration": 0.0429,
      "velocity": 73,
      "chip": "ym2612"
    },
    {
      "channel": 0,
      "note": 97,
      "start": 1.9979,
      "duration": 0.0141,
      "velocity": 73,
      "chip": "ym2612"
    },
    {
      "channel": 1,
      "note": 53,
      "start": 1.9986,
      "duration": 0.0091,
      "velocity": 91,
      "chip": "ym2612"
    },
    {
      "channel": 4,
      "note": 97,
      "start": 2.0088,
      "duration": 0.012,
      "velocity": 73,
      "chip": "ym2612"
    },
    {
      "channel": 0,
      "note": 95,
      "start": 2.0127,
      "duration": 0.012,
      "velocity": 73,
      "chip": "ym2612"
    },
    {
      "channel": 4,
      "note": 95,
      "start": 2.0214,
      "duration": 0.0429,
      "velocity": 73,
      "chip": "ym2612"
    },
    {
      "channel": 0,
      "note": 93,
      "start": 2.0252,
      "duration": 0.072,
      "velocity": 73,
      "chip": "ym2612"
    },
    {
      "channel": 1,
      "note": 53,
      "start": 2.026,
      "duration": 0.0215,
      "velocity": 91,
      "chip": "ym2612"
    },
    {
      "channel": 4,
      "note": 97,
      "start": 2.065,
      "duration": 0.0994,
      "velocity": 73,
      "chip": "ym2612"
    },
    {
      "channel": 0,
      "note": 90,
      "start": 2.0978,
      "duration": 0.0998,
      "velocity": 73,
      "chip": "ym2612"
    },
    {
      "channel": 1,
      "note": 53,
      "start": 2.0985,
      "duration": 0.049,
      "velocity": 91,
      "chip": "ym2612"
    },
    {
      "channel": 4,
      "note": 95,
      "start": 2.165,
      "duration": 0.0517,
      "velocity": 73,
      "chip": "ym2612"
    },
    {
      "channel": 0,
      "note": 95,
      "start": 2.1982,
      "duration": 0.0117,
      "velocity": 73,
      "chip": "ym2612"
    },
    {
      "channel": 1,
      "note": 54,
      "start": 2.1989,
      "duration": 0.1253,
      "velocity": 91,
      "chip": "ym2612"
    },
    {
      "channel": 2,
      "note": 73,
      "start": 2.2017,
      "duration": 0.0223,
      "velocity": 102,
      "chip": "ym2612"
    },
    {
      "channel": 3,
      "note": 69,
      "start": 2.2045,
      "duration": 0.0197,
      "velocity": 102,
      "chip": "ym2612"
    },
    {
      "channel": 0,
      "note": 96,
      "start": 2.2105,
      "duration": 0.1129,
      "velocity": 73,
      "chip": "ym2612"
    },
    {
      "channel": 4,
      "note": 93,
      "start": 2.2173,
      "duration": 0.0734,
      "velocity": 73,
      "chip": "ym2612"
    },
    {
      "channel": 4,
      "note": 90,
      "start": 2.2914,
      "duration": 0.0999,
      "velocity": 73,
      "chip": "ym2612"
    },
    {
      "channel": 0,
      "note": 90,
      "start": 2.324,
      "duration": 0.1996,
      "velocity": 73,
      "chip": "ym2612"
    },
    {
      "channel": 1,
      "note": 64,
      "start": 2.3248,
      "duration": 0.0989,
      "velocity": 91,
      "chip": "ym2612"
    },
    {
      "channel": 2,
      "note": 85,
      "start": 2.3255,
      "duration": 0.3995,
      "velocity": 102,
      "chip": "ym2612"
    },
    {
      "channel": 3,
      "note": 81,
      "start": 2.3262,
      "duration": 0.3995,
      "velocity": 102,
      "chip": "ym2612"
    },
    {
      "channel": 4,
      "note": 95,
      "start": 2.3918,
      "duration": 0.0332,
      "velocity": 73,
      "chip": "ym2612"
    },
    {
      "channel": 1,
      "note": 66,
      "start": 2.4243,
      "duration": 0.0997,
      "velocity": 91,
      "chip": "ym2612"
    },
    {
      "channel": 4,
      "note": 96,
      "start": 2.4256,
      "duration": 0.1104,
      "velocity": 73,
      "chip": "ym2612"
    },
    {
      "channel": 1,
      "note": 59,
      "start": 2.5245,
      "duration": 0.0161,
      "velocity": 91,
      "chip": "ym2612"
    },
    {
      "channel": 4,
      "note": 90,
      "start": 2.5367,
      "duration": 0.0548,
      "velocity": 73,
      "chip": "ym2612"
    },
    {
      "channel": 1,
      "note": 61,
      "start": 2.5412,
      "duration": 0.0156,
      "velocity": 91,
      "chip": "ym2612"
    },
    {
      "channel": 1,
      "note": 54,
      "start": 2.5573,
      "duration": 0.0166,
      "velocity": 91,
      "chip": "ym2612"
    },
    {
      "channel": 1,
      "note": 54,
      "start": 2.6245,
      "duration": 0.0494,
      "velocity": 91,
      "chip": "ym2612"
    },
    {
      "channel": 1,
      "note": 54,
      "start": 2.7249,
      "duration": 0.1254,
      "velocity": 91,
      "chip": "ym2612"
    },
    {
      "channel": 2,
      "note": 74,
      "start": 2.7256,
      "duration": 0.0249,
      "velocity": 102,
      "chip": "ym2612"
    },
    {
      "channel": 3,
      "note": 69,
      "start": 2.7263,
      "duration": 0.0245,
      "velocity": 102,
      "chip": "ym2612"
    },
    {
      "channel": 1,
      "note": 54,
      "start": 2.8508,
      "duration": 0.0494,
      "velocity": 91,
      "chip": "ym2612"
    },
    {
      "channel": 2,
      "note": 86,
      "start": 2.8516,
      "duration": 0.4001,
      "velocity": 102,
      "chip": "ym2612"
    },
    {
      "channel": 3,
      "note": 81,
      "start": 2.8523,
      "duration": 0.4001,
      "velocity": 102,
      "chip": "ym2612"
    },
    {
      "channel": 1,
      "note": 54,
      "start": 2.9508,
      "duration": 0.1139,
      "velocity": 91,
      "chip": "ym2612"
    },
    {
      "channel": 1,
      "note": 54,
      "start": 3.0653,
      "duration": 0.0851,
      "velocity": 91,
      "chip": "ym2612"
    },
    {
      "channel": 1,
      "note": 54,
      "start": 3.1509,
      "duration": 0.0494,
      "velocity": 91,
      "chip": "ym2612"
    },
    {
      "channel": 1,
      "note": 54,
      "start": 3.2515,
      "duration": 0.0252,
      "velocity": 91,
      "chip": "ym2612"
    },
    {
      "channel": 2,
      "note": 75,
      "start": 3.2523,
      "duration": 0.0251,
      "velocity": 102,
      "chip": "ym2612"
    },
    {
      "channel": 3,
      "note": 69,
      "start": 3.253,
      "duration": 0.0247,
      "velocity": 102,
      "chip": "ym2612"
    },
    {
      "channel": 1,
      "note": 59,
      "start": 3.2772,
      "duration": 0.0994,
      "velocity": 91,
      "chip": "ym2612"
    },
    {
      "channel": 1,
      "note": 61,
      "start": 3.3772,
      "duration": 0.0994,
      "velocity": 91,
      "chip": "ym2612"
    },
    {
      "channel": 2,
      "note": 87,
      "start": 3.378,
      "duration": 0.4005,
      "velocity": 102,
      "chip": "ym2612"
    },
    {
      "channel": 3,
      "note": 81,
      "start": 3.3788,
      "duration": 0.4005,
      "velocity": 102,
      "chip": "ym2612"
    },
    {
      "channel": 1,
      "note": 64,
      "start": 3.4772,
      "duration": 0.0996,
      "velocity": 91,
      "chip": "ym2612"
    },
    {
      "channel": 1,
      "note": 66,
      "start": 3.5775,
      "duration": 0.0143,
      "velocity": 91,
      "chip": "ym2612"
    },
    {
      "channel": 1,
      "note": 54,
      "start": 3.5923,
      "duration": 0.0845,
      "velocity": 91,
      "chip": "ym2612"
    },
    {
      "channel": 1,
      "note": 54,
      "start": 3.6774,
      "duration": 0.0494,
      "velocity": 91,
      "chip": "ym2612"
    },
    {
      "channel": 0,
      "note": 95,
      "start": 3.7776,
      "duration": 0.0253,
      "velocity": 73,
      "chip": "ym2612"
    },
    {
      "channel": 1,
      "note": 54,
      "start": 3.7784,
      "duration": 0.009,
      "velocity": 91,
      "chip": "ym2612"
    },
    {
      "channel": 2,
      "note": 74,
      "start": 3.7791,
      "duration": 0.0253,
      "velocity": 102,
      "chip": "ym2612"
    },
    {
      "channel": 3,
      "note": 69,
      "start": 3.7799,
      "duration": 0.0248,
      "velocity": 102,
      "chip": "ym2612"
    },
    {
      "channel": 0,
      "note": 96,
      "start": 3.8035,
      "duration": 0.0994,
      "velocity": 73,
      "chip": "ym2612"
    },
    {
      "channel": 1,
      "note": 64,
      "start": 3.8042,
      "duration": 0.0994,
      "velocity": 91,
      "chip": "ym2612"
    },
    {
      "channel": 0,
      "note": 95,
      "start": 3.9035,
      "duration": 0.0994,
      "velocity": 73,
      "chip": "ym2612"
    },
    {
      "channel": 1,
      "note": 66,
      "start": 3.9042,
      "duration": 0.0994,
      "velocity": 91,
      "chip": "ym2612"
    },
    {
      "channel": 2,
      "note": 86,
      "start": 3.9049,
      "duration": 0.2751,
      "velocity": 92,
      "chip": "ym2612"
    },
    {
      "channel": 3,
      "note": 81,
      "start": 3.9057,
      "duration": 0.2773,
      "velocity": 92,
      "chip": "ym2612"
    },
    {
      "channel": 4,
      "note": 95,
      "start": 3.9713,
      "duration": 0.0994,
      "velocity": 73,
      "chip": "ym2612"
    },
    {
      "channel": 0,
      "note": 96,
      "start": 4.0035,
      "duration": 0.0996,
      "velocity": 73,
      "chip": "ym2612"
    },
    {
      "channel": 1,
      "note": 54,
      "start": 4.0042,
      "duration": 0.0996,
      "velocity": 91,
      "chip": "ym2612"
    },
    {
      "channel": 4,
      "note": 96,
      "start": 4.0713,
      "duration": 0.0456,
      "velocity": 73,
      "chip": "ym2612"
    },
    {
      "channel": 0,
      "note": 100,
      "start": 4.1037,
      "duration": 0.0179,
      "velocity": 73,
      "chip": "ym2612"
    },
    {
      "channel": 1,
      "note": 59,
      "start": 4.1044,
      "duration": 0.018,
      "velocity": 91,
      "chip": "ym2612"
    },
    {
      "channel": 4,
      "note": 95,
      "start": 4.1175,
      "duration": 0.0177,
      "velocity": 73,
      "chip": "ym2612"
    },
    {
      "channel": 0,
      "note": 102,
      "start": 4.1222,
      "duration": 0.018,
      "velocity": 73,
      "chip": "ym2612"
    },
    {
      "channel": 1,
      "note": 61,
      "start": 4.123,
      "duration": 0.018,
      "velocity": 91,
      "chip": "ym2612"
    },
    {
      "channel": 4,
      "note": 96,
      "start": 4.1358,
      "duration": 0.0181,
      "velocity": 73,
      "chip": "ym2612"
    },
    {
      "channel": 0,
      "note": 105,
      "start": 4.1408,
      "duration": 0.0178,
      "velocity": 73,
      "chip": "ym2612"
    },
    {
      "channel": 1,
      "note": 54,
      "start": 4.1415,
      "duration": 0.0356,
      "velocity": 91,
      "chip": "ym2612"
    },
    {
      "channel": 4,
      "note": 100,
      "start": 4.1545,
      "duration": 0.0173,
      "velocity": 73,
      "chip": "ym2612"
    },
    {
      "channel": 0,
      "note": 102,
      "start": 4.1592,
      "duration": 0.0176,
      "velocity": 73,
      "chip": "ym2612"
    },
    {
      "channel": 4,
      "note": 102,
      "start": 4.1724,
      "duration": 0.0209,
      "velocity": 73,
      "chip": "ym2612"
    },
    {
      "channel": 1,
      "note": 54,
      "start": 4.1778,
      "duration": 0.1246,
      "velocity": 91,
      "chip": "ym2612"
    },
    {
      "channel": 2,
      "note": 78,
      "start": 4.1807,
      "duration": 0.1882,
      "velocity": 92,
      "chip": "ym2612"
    },
    {
      "channel": 3,
      "note": 73,
      "start": 4.1836,
      "duration": 0.1856,
      "velocity": 92,
      "chip": "ym2612"
    },
    {
      "channel": 4,
      "note": 105,
      "start": 4.1939,
      "duration": 0.0753,
      "velocity": 73,
      "chip": "ym2612"
    },
    {
      "channel": 4,
      "note": 102,
      "start": 4.2698,
      "duration": 0.0996,
      "velocity": 73,
      "chip": "ym2612"
    },
    {
      "channel": 0,
      "note": 102,
      "start": 4.3022,
      "duration": 1.479,
      "velocity": 73,
      "chip": "ym2612"
    },
    {
      "channel": 1,
      "note": 64,
      "start": 4.303,
      "duration": 0.0989,
      "velocity": 91,
      "chip": "ym2612"
    },
    {
      "channel": 1,
      "note": 66,
      "start": 4.4025,
      "duration": 0.0997,
      "velocity": 91,
      "chip": "ym2612"
    },
    {
      "channel": 1,
      "note": 54,
      "start": 4.5028,
      "duration": 0.0108,
      "velocity": 91,
      "chip": "ym2612"
    },
    {
      "channel": 2,
      "note": 76,
      "start": 4.5035,
      "duration": 0.0655,
      "velocity": 92,
      "chip": "ym2612"
    },
    {
      "channel": 3,
      "note": 73,
      "start": 4.5043,
      "duration": 0.0651,
      "velocity": 92,
      "chip": "ym2612"
    },
    {
      "channel": 4,
      "note": 102,
      "start": 4.5151,
      "duration": 1.5336,
      "velocity": 73,
      "chip": "ym2612"
    },
    {
      "channel": 1,
      "note": 54,
      "start": 4.5349,
      "duration": 0.0173,
      "velocity": 91,
      "chip": "ym2612"
    },
    {
      "channel": 1,
      "note": 54,
      "start": 4.6028,
      "duration": 0.0494,
      "velocity": 91,
      "chip": "ym2612"
    },
    {
      "channel": 1,
      "note": 53,
      "start": 4.7031,
      "duration": 0.1254,
      "velocity": 91,
      "chip": "ym2612"
    },
    {
      "channel": 2,
      "note": 73,
      "start": 4.7039,
      "duration": 0.1749,
      "velocity": 92,
      "chip": "ym2612"
    },
    {
      "channel": 3,
      "note": 69,
      "start": 4.7046,
      "duration": 0.1744,
      "velocity": 92,
      "chip": "ym2612"
    },
    {
      "channel": 1,
      "note": 64,
      "start": 4.8291,
      "duration": 0.0994,
      "velocity": 91,
      "chip": "ym2612"
    },
    {
      "channel": 1,
      "note": 65,
      "start": 4.9291,
      "duration": 0.0996,
      "velocity": 91,
      "chip": "ym2612"
    },
    {
      "channel": 2,
      "note": 71,
      "start": 4.9298,
      "duration": 0.1246,
      "velocity": 92,
      "chip": "ym2612"
    },
    {
      "channel": 3,
      "note": 66,
      "start": 4.9305,
      "duration": 0.1242,
      "velocity": 92,
      "chip": "ym2612"
    },
    {
      "channel": 1,
      "note": 53,
      "start": 5.0293,
      "duration": 0.0111,
      "velocity": 91,
      "chip": "ym2612"
    },
    {
      "channel": 1,
      "note": 53,
      "start": 5.062,
      "duration": 0.0167,
      "velocity": 91,
      "chip": "ym2612"
    },
    {
      "channel": 2,
      "note": 69,
      "start": 5.0627,
      "duration": 0.0667,
      "velocity": 92,
      "chip": "ym2612"
    },
    {
      "channel": 3,
      "note": 61,
      "start": 5.0634,
      "duration": 0.0663,
      "velocity": 92,
      "chip": "ym2612"
    },
    {
      "channel": 1,
      "note": 53,
      "start": 5.1293,
      "duration": 0.0494,
      "velocity": 91,
      "chip": "ym2612"
    },
    {
      "channel": 1,
      "note": 52,
      "start": 5.2296,
      "duration": 0.1253,
      "velocity": 91,
      "chip": "ym2612"
    },
    {
      "channel": 2,
      "note": 69,
      "start": 5.2557,
      "duration": 0.3001,
      "velocity": 92,
      "chip": "ym2612"
    },
    {
      "channel": 3,
      "note": 66,
      "start": 5.2564,
      "duration": 0.3001,
      "velocity": 92,
      "chip": "ym2612"
    },
    {
      "channel": 1,
      "note": 52,
      "start": 5.3554,
      "duration": 0.0994,
      "velocity": 91,
      "chip": "ym2612"
    },
    {
      "channel": 1,
      "note": 64,
      "start": 5.4554,
      "duration": 0.0996,
      "velocity": 91,
      "chip": "ym2612"
    },
    {
      "channel": 1,
      "note": 52,
      "start": 5.5557,
      "duration": 0.0121,
      "velocity": 91,
      "chip": "ym2612"
    },
    {
      "channel": 2,
      "note": 71,
      "start": 5.5564,
      "duration": 0.017,
      "velocity": 92,
      "chip": "ym2612"
    },
    {
      "channel": 3,
      "note": 68,
      "start": 5.5571,
      "duration": 0.0165,
      "velocity": 92,
      "chip": "ym2612"
    },
    {
      "channel": 1,
      "note": 52,
      "start": 5.5875,
      "duration": 0.0178,
      "velocity": 91,
      "chip": "ym2612"
    },
    {
      "channel": 2,
      "note": 73,
      "start": 5.5882,
      "duration": 0.0677,
      "velocity": 92,
      "chip": "ym2612"
    },
    {
      "channel": 3,
      "note": 69,
      "start": 5.5889,
      "duration": 0.0673,
      "velocity": 92,
      "chip": "ym2612"
    },
    {
      "channel": 1,
      "note": 52,
      "start": 5.6558,
      "duration": 0.0494,
      "velocity": 91,
      "chip": "ym2612"
    },
    {
      "channel": 1,
      "note": 53,
      "start": 5.7561,
      "duration": 0.1258,
      "velocity": 91,
      "chip": "ym2612"
    },
    {
      "channel": 2,
      "note": 71,
      "start": 5.7569,
      "duration": 0.2251,
      "velocity": 92,
      "chip": "ym2612"
    },
    {
      "channel": 3,
      "note": 68,
      "start": 5.7576,
      "duration": 0.2251,
      "velocity": 92,
      "chip": "ym2612"
    },
    {
      "channel": 0,
      "note": 100,
      "start": 5.7817,
      "duration": 0.0994,
      "velocity": 73,
      "chip": "ym2612"
    },
    {
      "channel": 0,
      "note": 97,
      "start": 5.8817,
      "duration": 0.0994,
      "velocity": 73,
      "chip": "ym2612"
    },
    {
      "channel": 1,
      "note": 65,
      "start": 5.8825,
      "duration": 0.0656,
      "velocity": 91,
      "chip": "ym2612"
    },
    {
      "channel": 0,
      "note": 95,
      "start": 5.9817,
      "duration": 0.0996,
      "velocity": 73,
      "chip": "ym2612"
    },
    {
      "channel": 2,
      "note": 69,
      "start": 5.9826,
      "duration": 0.1002,
      "velocity": 92,
      "chip": "ym2612"
    },
    {
      "channel": 3,
      "note": 66,
      "start": 5.9833,
      "duration": 0.0998,
      "velocity": 92,
      "chip": "ym2612"
    },
    {
      "channel": 4,
      "note": 100,
      "start": 6.0494,
      "duration": 0.0429,
      "velocity": 73,
      "chip": "ym2612"
    },
    {
      "channel": 0,
      "note": 97,
      "start": 6.082,
      "duration": 0.0141,
      "velocity": 73,
      "chip": "ym2612"
    },
    {
      "channel": 1,
      "note": 53,
      "start": 6.0827,
      "duration": 0.0091,
      "velocity": 91,
      "chip": "ym2612"
    },
    {
      "channel": 4,
      "note": 97,
      "start": 6.0929,
      "duration": 0.012,
      "velocity": 73,
      "chip": "ym2612"
    },
    {
      "channel": 0,
      "note": 95,
      "start": 6.0967,
      "duration": 0.012,
      "velocity": 73,
      "chip": "ym2612"
    },
    {
      "channel": 4,
      "note": 95,
      "start": 6.1055,
      "duration": 0.0429,
      "velocity": 73,
      "chip": "ym2612"
    },
    {
      "channel": 0,
      "note": 93,
      "start": 6.1093,
      "duration": 0.072,
      "velocity": 73,
      "chip": "ym2612"
    },
    {
      "channel": 1,
      "note": 53,
      "start": 6.11,
      "duration": 0.0215,
      "velocity": 91,
      "chip": "ym2612"
    },
    {
      "channel": 4,
      "note": 97,
      "start": 6.149,
      "duration": 0.0994,
      "velocity": 73,
      "chip": "ym2612"
    },
    {
      "channel": 0,
      "note": 90,
      "start": 6.1818,
      "duration": 0.0998,
      "velocity": 73,
      "chip": "ym2612"
    },
    {
      "channel": 1,
      "note": 53,
      "start": 6.1825,
      "duration": 0.049,
      "velocity": 91,
      "chip": "ym2612"
    },
    {
      "channel": 4,
      "note": 95,
      "start": 6.249,
      "duration": 0.0517,
      "velocity": 73,
      "chip": "ym2612"
    },
    {
      "channel": 0,
      "note": 95,
      "start": 6.2822,
      "duration": 0.0117,
      "velocity": 73,
      "chip": "ym2612"
    },
    {
      "channel": 1,
      "note": 54,
      "start": 6.2829,
      "duration": 0.1253,
      "velocity": 91,
      "chip": "ym2612"
    },
    {
      "channel": 2,
      "note": 73,
      "start": 6.2857,
      "duration": 0.0223,
      "velocity": 102,
      "chip": "ym2612"
    },
    {
      "channel": 3,
      "note": 69,
      "start": 6.2886,
      "duration": 0.0197,
      "velocity": 102,
      "chip": "ym2612"
    },
    {
      "channel": 0,
      "note": 96,
      "start": 6.2946,
      "duration": 0.1129,
      "velocity": 73,
      "chip": "ym2612"
    },
    {
      "channel": 4,
      "note": 93,
      "start": 6.3014,
      "duration": 0.0734,
      "velocity": 73,
      "chip": "ym2612"
    },
    {
      "channel": 4,
      "note": 90,
      "start": 6.3754,
      "duration": 0.0999,
      "velocity": 73,
      "chip": "ym2612"
    },
    {
      "channel": 0,
      "note": 90,
      "start": 6.408,
      "duration": 0.1996,
      "velocity": 73,
      "chip": "ym2612"
    },
    {
      "channel": 1,
      "note": 64,
      "start": 6.4088,
      "duration": 0.0989,
      "velocity": 91,
      "chip": "ym2612"
    },
    {
      "channel": 2,
      "note": 85,
      "start": 6.4096,
      "duration": 0.3996,
      "velocity": 102,
      "chip": "ym2612"
    },
    {
      "channel": 3,
      "note": 81,
      "start": 6.4103,
      "duration": 0.3996,
      "velocity": 102,
      "chip": "ym2612"
    },
    {
      "channel": 4,
      "note": 95,
      "start": 6.4759,
      "duration": 0.0332,
      "velocity": 73,
      "chip": "ym2612"
    },
    {
      "channel": 1,
      "note": 66,
      "start": 6.5083,
      "duration": 0.0997,
      "velocity": 91,
      "chip": "ym2612"
    },
    {
      "channel": 4,
      "note": 96,
      "start": 6.5097,
      "duration": 0.1104,
      "velocity": 73,
      "chip": "ym2612"
    },
    {
      "channel": 1,
      "note": 59,
      "start": 6.6086,
      "duration": 0.0161,
      "velocity": 91,
      "chip": "ym2612"
    },
    {
      "channel": 4,
      "note": 90,
      "start": 6.6207,
      "duration": 0.0548,
      "velocity": 73,
      "chip": "ym2612"
    },
    {
      "channel": 1,
      "note": 61,
      "start": 6.6253,
      "duration": 0.0156,
      "velocity": 91,
      "chip": "ym2612"
    },
    {
      "channel": 1,
      "note": 54,
      "start": 6.6414,
      "duration": 0.0166,
      "velocity": 91,
      "chip": "ym2612"
    },
    {
      "channel": 1,
      "note": 54,
      "start": 6.7086,
      "duration": 0.0494,
      "velocity": 91,
      "chip": "ym2612"
    },
    {
      "channel": 1,
      "note": 54,
      "start": 6.809,
      "duration": 0.1253,
      "velocity": 91,
      "chip": "ym2612"
    },
    {
      "channel": 2,
      "note": 74,
      "start": 6.8098,
      "duration": 0.0248,
      "velocity": 102,
      "chip": "ym2612"
    },
    {
      "channel": 3,
      "note": 69,
      "start": 6.8105,
      "duration": 0.0244,
      "velocity": 102,
      "chip": "ym2612"
    },
    {
      "channel": 1,
      "note": 54,
      "start": 6.9349,
      "duration": 0.0493,
      "velocity": 91,
      "chip": "ym2612"
    },
    {
      "channel": 2,
      "note": 86,
      "start": 6.9356,
      "duration": 0.4004,
      "velocity": 102,
      "chip": "ym2612"
    },
    {
      "channel": 3,
      "note": 81,
      "start": 6.9364,
      "duration": 0.4004,
      "velocity": 102,
      "chip": "ym2612"
    },
    {
      "channel": 1,
      "note": 54,
      "start": 7.0348,
      "duration": 0.1139,
      "velocity": 91,
      "chip": "ym2612"
    },
    {
      "channel": 1,
      "note": 54,
      "start": 7.1493,
      "duration": 0.0851,
      "velocity": 91,
      "chip": "ym2612"
    },
    {
      "channel": 1,
      "note": 54,
      "start": 7.2349,
      "duration": 0.0494,
      "velocity": 91,
      "chip": "ym2612"
    },
    {
      "channel": 0,
      "note": 85,
      "start": 7.3352,
      "duration": 0.0252,
      "velocity": 73,
      "chip": "ym2612"
    },
    {
      "channel": 1,
      "note": 54,
      "start": 7.3359,
      "duration": 0.0252,
      "velocity": 91,
      "chip": "ym2612"
    },
    {
      "channel": 2,
      "note": 75,
      "start": 7.3367,
      "duration": 0.0252,
      "velocity": 102,
      "chip": "ym2612"
    },
    {
      "channel": 3,
      "note": 69,
      "start": 7.3374,
      "duration": 0.0248,
      "velocity": 102,
      "chip": "ym2612"
    },
    {
      "channel": 0,
      "note": 88,
      "start": 7.361,
      "duration": 0.0994,
      "velocity": 73,
      "chip": "ym2612"
    },
    {
      "channel": 1,
      "note": 59,
      "start": 7.3617,
      "duration": 0.0994,
      "velocity": 91,
      "chip": "ym2612"
    },
    {
      "channel": 0,
      "note": 85,
      "start": 7.461,
      "duration": 0.0994,
      "velocity": 73,
      "chip": "ym2612"
    },
    {
      "channel": 1,
      "note": 61,
      "start": 7.4617,
      "duration": 0.0994,
      "velocity": 91,
      "chip": "ym2612"
    },
    {
      "channel": 2,
      "note": 87,
      "start": 7.4625,
      "duration": 0.4,
      "velocity": 102,
      "chip": "ym2612"
    },
    {
      "channel": 3,
      "note": 81,
      "start": 7.4633,
      "duration": 0.3999,
      "velocity": 102,
      "chip": "ym2612"
    },
    {
      "channel": 4,
      "note": 85,
      "start": 7.5289,
      "duration": 0.0994,
      "velocity": 73,
      "chip": "ym2612"
    },
    {
      "channel": 0,
      "note": 88,
      "start": 7.561,
      "duration": 0.0996,
      "velocity": 73,
      "chip": "ym2612"
    },
    {
      "channel": 1,
      "note": 64,
      "start": 7.5617,
      "duration": 0.0997,
      "velocity": 91,
      "chip": "ym2612"
    },
    {
      "channel": 4,
      "note": 88,
      "start": 7.6289,
      "duration": 0.0454,
      "velocity": 73,
      "chip": "ym2612"
    },
    {
      "channel": 0,
      "note": 90,
      "start": 7.6613,
      "duration": 0.0177,
      "velocity": 73,
      "chip": "ym2612"
    },
    {
      "channel": 1,
      "note": 66,
      "start": 7.662,
      "duration": 0.0177,
      "velocity": 91,
      "chip": "ym2612"
    },
    {
      "channel": 4,
      "note": 85,
      "start": 7.6749,
      "duration": 0.0176,
      "velocity": 73,
      "chip": "ym2612"
    },
    {
      "channel": 0,
      "note": 88,
      "start": 7.6796,
      "duration": 0.0177,
      "velocity": 73,
      "chip": "ym2612"
    },
    {
      "channel": 1,
      "note": 54,
      "start": 7.6803,
      "duration": 0.0812,
      "velocity": 91,
      "chip": "ym2612"
    },
    {
      "channel": 4,
      "note": 88,
      "start": 7.6932,
      "duration": 0.0355,
      "velocity": 73,
      "chip": "ym2612"
    },
    {
      "channel": 0,
      "note": 90,
      "start": 7.6978,
      "duration": 0.0629,
      "velocity": 73,
      "chip": "ym2612"
    },
    {
      "channel": 4,
      "note": 90,
      "start": 7.7294,
      "duration": 0.0992,
      "velocity": 73,
      "chip": "ym2612"
    },
    {
      "channel": 0,
      "note": 93,
      "start": 7.7613,
      "duration": 0.0998,
      "velocity": 73,
      "chip": "ym2612"
    },
    {
      "channel": 1,
      "note": 54,
      "start": 7.7621,
      "duration": 0.0489,
      "velocity": 91,
      "chip": "ym2612"
    },
    {
      "channel": 4,
      "note": 88,
      "start": 7.8291,
      "duration": 0.0462,
      "velocity": 73,
      "chip": "ym2612"
    },
    {
      "channel": 0,
      "note": 96,
      "start": 7.8616,
      "duration": 0.0254,
      "velocity": 73,
      "chip": "ym2612"
    },
    {
      "channel": 1,
      "note": 54,
      "start": 7.8624,
      "duration": 0.0097,
      "velocity": 91,
      "chip": "ym2612"
    },
    {
      "channel": 2,
      "note": 74,
      "start": 7.8631,
      "duration": 0.0254,
      "velocity": 102,
      "chip": "ym2612"
    },
    {
      "channel": 3,
      "note": 69,
      "start": 7.8639,
      "duration": 0.0249,
      "velocity": 102,
      "chip": "ym2612"
    },
    {
      "channel": 4,
      "note": 90,
      "start": 7.876,
      "duration": 0.0784,
      "velocity": 73,
      "chip": "ym2612"
    },
    {
      "channel": 0,
      "note": 97,
      "start": 7.8876,
      "duration": 0.0994,
      "velocity": 73,
      "chip": "ym2612"
    },
    {
      "channel": 1,
      "note": 64,
      "start": 7.8883,
      "duration": 0.0994,
      "velocity": 91,
      "chip": "ym2612"
    },
    {
      "channel": 4,
      "note": 93,
      "start": 7.955,
      "duration": 0.0998,
      "velocity": 73,
      "chip": "ym2612"
    },
    {
      "channel": 0,
      "note": 95,
      "start": 7.9876,
      "duration": 0.0994,
      "velocity": 73,
      "chip": "ym2612"
    },
    {
      "channel": 1,
      "note": 66,
      "start": 7.9883,
      "duration": 0.0994,
      "velocity": 91,
      "chip": "ym2612"
    },
    {
      "channel": 2,
      "note": 86,
      "start": 7.989,
      "duration": 0.2776,
      "velocity": 92,
      "chip": "ym2612"
    },
    {
      "channel": 3,
      "note": 81,
      "start": 7.9898,
      "duration": 0.2798,
      "velocity": 92,
      "chip": "ym2612"
    },
    {
      "channel": 4,
      "note": 96,
      "start": 8.0554,
      "duration": 0.0994,
      "velocity": 73,
      "chip": "ym2612"
    },
    {
      "channel": 0,
      "note": 93,
      "start": 8.0876,
      "duration": 0.0996,
      "velocity": 73,
      "chip": "ym2612"
    },
    {
      "channel": 1,
      "note": 54,
      "start": 8.0883,
      "duration": 0.0996,
      "velocity": 91,
      "chip": "ym2612"
    },
    {
      "channel": 4,
      "note": 97,
      "start": 8.1554,
      "duration": 0.0456,
      "velocity": 73,
      "chip": "ym2612"
    },
    {
      "channel": 0,
      "note": 102,
      "start": 8.1878,
      "duration": 0.0179,
      "velocity": 73,
      "chip": "ym2612"
    },
    {
      "channel": 1,
      "note": 59,
      "start": 8.1885,
      "duration": 0.018,
      "velocity": 91,
      "chip": "ym2612"
    },
    {
      "channel": 4,
      "note": 95,
      "start": 8.2016,
      "duration": 0.0177,
      "velocity": 73,
      "chip": "ym2612"
    },
    {
      "channel": 0,
      "note": 100,
      "start": 8.2063,
      "duration": 0.018,
      "velocity": 73,
      "chip": "ym2612"
    },
    {
      "channel": 1,
      "note": 61,
      "start": 8.2071,
      "duration": 0.018,
      "velocity": 91,
      "chip": "ym2612"
    },
    {
      "channel": 4,
      "note": 93,
      "start": 8.2199,
      "duration": 0.0181,
      "velocity": 73,
      "chip": "ym2612"
    },
    {
      "channel": 0,
      "note": 97,
      "start": 8.2249,
      "duration": 0.0178,
      "velocity": 73,
      "chip": "ym2612"
    },
    {
      "channel": 1,
      "note": 54,
      "start": 8.2256,
      "duration": 0.0382,
      "velocity": 91,
      "chip": "ym2612"
    },
    {
      "channel": 4,
      "note": 102,
      "start": 8.2386,
      "duration": 0.0173,
      "velocity": 73,
      "chip": "ym2612"
    },
    {
      "channel": 0,
      "note": 93,
      "start": 8.2433,
      "duration": 0.0196,
      "velocity": 87,
      "chip": "ym2612"
    },
    {
      "channel": 4,
      "note": 100,
      "start": 8.2565,
      "duration": 0.0245,
      "velocity": 73,
      "chip": "ym2612"
    },
    {
      "channel": 0,
      "note": 73,
      "start": 8.2635,
      "duration": 0.8491,
      "velocity": 87,
      "chip": "ym2612"
    },
    {
      "channel": 1,
      "note": 54,
      "start": 8.2644,
      "duration": 0.1219,
      "velocity": 91,
      "chip": "ym2612"
    },
    {
      "channel": 2,
      "note": 78,
      "start": 8.2672,
      "duration": 0.186,
      "velocity": 92,
      "chip": "ym2612"
    },
    {
      "channel": 3,
      "note": 73,
      "start": 8.2702,
      "duration": 0.1834,
      "velocity": 92,
      "chip": "ym2612"
    },
    {
      "channel": 4,
      "note": 97,
      "start": 8.2816,
      "duration": 0.0722,
      "velocity": 73,
      "chip": "ym2612"
    },
    {
      "channel": 4,
      "note": 93,
      "start": 8.3543,
      "duration": 0.1017,
      "velocity": 87,
      "chip": "ym2612"
    },
    {
      "channel": 1,
      "note": 64,
      "start": 8.3868,
      "duration": 0.0994,
      "velocity": 91,
      "chip": "ym2612"
    },
    {
      "channel": 4,
      "note": 73,
      "start": 8.4565,
      "duration": 0.7236,
      "velocity": 87,
      "chip": "ym2612"
    },
    {
      "channel": 1,
      "note": 66,
      "start": 8.4868,
      "duration": 0.0996,
      "velocity": 91,
      "chip": "ym2612"
    },
    {
      "channel": 1,
      "note": 54,
      "start": 8.5871,
      "duration": 0.0116,
      "velocity": 91,
      "chip": "ym2612"
    },
    {
      "channel": 2,
      "note": 76,
      "start": 8.5878,
      "duration": 0.0655,
      "velocity": 92,
      "chip": "ym2612"
    },
    {
      "channel": 3,
      "note": 73,
      "start": 8.5886,
      "duration": 0.0651,
      "velocity": 92,
      "chip": "ym2612"
    },
    {
      "channel": 1,
      "note": 54,
      "start": 8.6204,
      "duration": 0.0162,
      "velocity": 91,
      "chip": "ym2612"
    },
    {
      "channel": 1,
      "note": 54,
      "start": 8.6871,
      "duration": 0.0494,
      "velocity": 91,
      "chip": "ym2612"
    },
    {
      "channel": 1,
      "note": 53,
      "start": 8.7875,
      "duration": 0.1254,
      "velocity": 91,
      "chip": "ym2612"
    },
    {
      "channel": 2,
      "note": 73,
      "start": 8.7882,
      "duration": 0.1749,
      "velocity": 92,
      "chip": "ym2612"
    },
    {
      "channel": 3,
      "note": 69,
      "start": 8.789,
      "duration": 0.1744,
      "velocity": 92,
      "chip": "ym2612"
    },
    {
      "channel": 1,
      "note": 64,
      "start": 8.9134,
      "duration": 0.0994,
      "velocity": 91,
      "chip": "ym2612"
    },
    {
      "channel": 1,
      "note": 65,
      "start": 9.0134,
      "duration": 0.1,
      "velocity": 91,
      "chip": "ym2612"
    },
    {
      "channel": 2,
      "note": 71,
      "start": 9.0142,
      "duration": 0.1246,
      "velocity": 92,
      "chip": "ym2612"
    },
    {
      "channel": 3,
      "note": 66,
      "start": 9.0149,
      "duration": 0.1242,
      "velocity": 92,
      "chip": "ym2612"
    },
    {
      "channel": 0,
      "note": 73,
      "start": 9.1133,
      "duration": 0.0164,
      "velocity": 87,
      "chip": "ym2612"
    },
    {
      "channel": 1,
      "note": 53,
      "start": 9.114,
      "duration": 0.0108,
      "velocity": 91,
      "chip": "ym2612"
    },
    {
      "channel": 0,
      "note": 78,
      "start": 9.1303,
      "duration": 0.0107,
      "velocity": 87,
      "chip": "ym2612"
    },
    {
      "channel": 1,
      "note": 53,
      "start": 9.1456,
      "duration": 0.0172,
      "velocity": 91,
      "chip": "ym2612"
    },
    {
      "channel": 2,
      "note": 69,
      "start": 9.1464,
      "duration": 0.0677,
      "velocity": 92,
      "chip": "ym2612"
    },
    {
      "channel": 3,
      "note": 61,
      "start": 9.1471,
      "duration": 0.0673,
      "velocity": 92,
      "chip": "ym2612"
    },
    {
      "channel": 4,
      "note": 73,
      "start": 9.1806,
      "duration": 0.0992,
      "velocity": 87,
      "chip": "ym2612"
    },
    {
      "channel": 0,
      "note": 73,
      "start": 9.2133,
      "duration": 0.7524,
      "velocity": 87,
      "chip": "ym2612"
    },
    {
      "channel": 1,
      "note": 53,
      "start": 9.214,
      "duration": 0.049,
      "velocity": 91,
      "chip": "ym2612"
    },
    {
      "channel": 4,
      "note": 78,
      "start": 9.2805,
      "duration": 0.0397,
      "velocity": 87,
      "chip": "ym2612"
    },
    {
      "channel": 1,
      "note": 52,
      "start": 9.3139,
      "duration": 0.1254,
      "velocity": 91,
      "chip": "ym2612"
    },
    {
      "channel": 2,
      "note": 69,
      "start": 9.3402,
      "duration": 0.3001,
      "velocity": 92,
      "chip": "ym2612"
    },
    {
      "channel": 3,
      "note": 66,
      "start": 9.3409,
      "duration": 0.3001,
      "velocity": 92,
      "chip": "ym2612"
    },
    {
      "channel": 4,
      "note": 73,
      "start": 9.4075,
      "duration": 0.7698,
      "velocity": 87,
      "chip": "ym2612"
    },
    {
      "channel": 1,
      "note": 52,
      "start": 9.4399,
      "duration": 0.0994,
      "velocity": 91,
      "chip": "ym2612"
    },
    {
      "channel": 1,
      "note": 64,
      "start": 9.5399,
      "duration": 0.0996,
      "velocity": 91,
      "chip": "ym2612"
    },
    {
      "channel": 1,
      "note": 52,
      "start": 9.6401,
      "duration": 0.0121,
      "velocity": 91,
      "chip": "ym2612"
    },
    {
      "channel": 2,
      "note": 71,
      "start": 9.6408,
      "duration": 0.017,
      "velocity": 92,
      "chip": "ym2612"
    },
    {
      "channel": 3,
      "note": 68,
      "start": 9.6416,
      "duration": 0.0165,
      "velocity": 92,
      "chip": "ym2612"
    },
    {
      "channel": 1,
      "note": 52,
      "start": 9.6719,
      "duration": 0.0178,
      "velocity": 91,
      "chip": "ym2612"
    },
    {
      "channel": 2,
      "note": 73,
      "start": 9.6727,
      "duration": 0.0677,
      "velocity": 92,
      "chip": "ym2612"
    },
    {
      "channel": 3,
      "note": 69,
      "start": 9.6734,
      "duration": 0.0673,
      "velocity": 92,
      "chip": "ym2612"
    },
    {
      "channel": 1,
      "note": 52,
      "start": 9.7403,
      "duration": 0.0494,
      "velocity": 91,
      "chip": "ym2612"
    },
    {
      "channel": 1,
      "note": 53,
      "start": 9.8406,
      "duration": 0.1257,
      "velocity": 91,
      "chip": "ym2612"
    },
    {
      "channel": 2,
      "note": 71,
      "start": 9.8414,
      "duration": 0.2244,
      "velocity": 92,
      "chip": "ym2612"
    },
    {
      "channel": 3,
      "note": 68,
      "start": 9.8421,
      "duration": 0.2244,
      "velocity": 92,
      "chip": "ym2612"
    },
    {
      "channel": 0,
      "note": 71,
      "start": 9.9662,
      "duration": 0.0828,
      "velocity": 87,
      "chip": "ym2612"
    },
    {
      "channel": 1,
      "note": 65,
      "start": 9.967,
      "duration": 0.0656,
      "velocity": 91,
      "chip": "ym2612"
    },
    {
      "channel": 2,
      "note": 69,
      "start": 10.0663,
      "duration": 0.101,
      "velocity": 92,
      "chip": "ym2612"
    },
    {
      "channel": 3,
      "note": 66,
      "start": 10.0671,
      "duration": 0.1005,
      "velocity": 92,
      "chip": "ym2612"
    },
    {
      "channel": 0,
      "note": 69,
      "start": 10.1665,
      "duration": 0.0127,
      "velocity": 87,
      "chip": "ym2612"
    },
    {
      "channel": 1,
      "note": 53,
      "start": 10.1672,
      "duration": 0.0096,
      "velocity": 91,
      "chip": "ym2612"
    },
    {
      "channel": 4,
      "note": 71,
      "start": 10.1778,
      "duration": 0.0087,
      "velocity": 87,
      "chip": "ym2612"
    },
    {
      "channel": 0,
      "note": 68,
      "start": 10.1916,
      "duration": 0.0576,
      "velocity": 87,
      "chip": "ym2612"
    },
    {
      "channel": 1,
      "note": 53,
      "start": 10.1923,
      "duration": 0.0238,
      "velocity": 91,
      "chip": "ym2612"
    },
    {
      "channel": 4,
      "note": 69,
      "start": 10.2336,
      "duration": 0.0828,
      "velocity": 87,
      "chip": "ym2612"
    },
    {
      "channel": 1,
      "note": 53,
      "start": 10.2664,
      "duration": 0.0494,
      "velocity": 91,
      "chip": "ym2612"
    },
    {
      "channel": 0,
      "note": 69,
      "start": 10.3667,
      "duration": 0.2254,
      "velocity": 87,
      "chip": "ym2612"
    },
    {
      "channel": 1,
      "note": 54,
      "start": 10.3675,
      "duration": 0.125,
      "velocity": 91,
      "chip": "ym2612"
    },
    {
      "channel": 2,
      "note": 73,
      "start": 10.3703,
      "duration": 0.0224,
      "velocity": 102,
      "chip": "ym2612"
    },
    {
      "channel": 3,
      "note": 69,
      "start": 10.3731,
      "duration": 0.0198,
      "velocity": 102,
      "chip": "ym2612"
    },
    {
      "channel": 4,
      "note": 68,
      "start": 10.3846,
      "duration": 0.0582,
      "velocity": 87,
      "chip": "ym2612"
    },
    {
      "channel": 1,
      "note": 64,
      "start": 10.493,
      "duration": 0.0998,
      "velocity": 91,
      "chip": "ym2612"
    },
    {
      "channel": 2,
      "note": 85,
      "start": 10.4938,
      "duration": 0.3997,
      "velocity": 102,
      "chip": "ym2612"
    },
    {
      "channel": 3,
      "note": 81,
      "start": 10.4946,
      "duration": 0.3997,
      "velocity": 102,
      "chip": "ym2612"
    },
    {
      "channel": 4,
      "note": 69,
      "start": 10.5606,
      "duration": 0.1607,
      "velocity": 87,
      "chip": "ym2612"
    },
    {
      "channel": 0,
      "note": 66,
      "start": 10.5927,
      "duration": 0.0996,
      "velocity": 87,
      "chip": "ym2612"
    },
    {
      "channel": 1,
      "note": 66,
      "start": 10.5934,
      "duration": 0.0993,
      "velocity": 91,
      "chip": "ym2612"
    },
    {
      "channel": 1,
      "note": 59,
      "start": 10.6932,
      "duration": 0.0158,
      "velocity": 91,
      "chip": "ym2612"
    },
    {
      "channel": 1,
      "note": 61,
      "start": 10.7095,
      "duration": 0.0164,
      "velocity": 91,
      "chip": "ym2612"
    },
    {
      "channel": 4,
      "note": 66,
      "start": 10.7219,
      "duration": 0.038,
      "velocity": 87,
      "chip": "ym2612"
    },
    {
      "channel": 1,
      "note": 54,
      "start": 10.7265,
      "duration": 0.016,
      "velocity": 91,
      "chip": "ym2612"
    },
    {
      "channel": 1,
      "note": 54,
      "start": 10.793,
      "duration": 0.0494,
      "velocity": 91,
      "chip": "ym2612"
    },
    {
      "channel": 1,
      "note": 54,
      "start": 10.8933,
      "duration": 0.1254,
      "velocity": 91,
      "chip": "ym2612"
    },
    {
      "channel": 2,
      "note": 74,
      "start": 10.8941,
      "duration": 0.0249,
      "velocity": 102,
      "chip": "ym2612"
    },
    {
      "channel": 3,
      "note": 69,
      "start": 10.8948,
      "duration": 0.0245,
      "velocity": 102,
      "chip": "ym2612"
    },
    {
      "channel": 1,
      "note": 54,
      "start": 11.0193,
      "duration": 0.0494,
      "velocity": 91,
      "chip": "ym2612"
    },
    {
      "channel": 2,
      "note": 86,
      "start": 11.02,
      "duration": 0.4001,
      "velocity": 102,
      "chip": "ym2612"
    },
    {
      "channel": 3,
      "note": 81,
      "start": 11.0208,
      "duration": 0.4001,
      "velocity": 102,
      "chip": "ym2612"
    },
    {
      "channel": 1,
      "note": 54,
      "start": 11.1193,
      "duration": 0.1139,
      "velocity": 91,
      "chip": "ym2612"
    },
    {
      "channel": 1,
      "note": 54,
      "start": 11.2337,
      "duration": 0.0851,
      "velocity": 91,
      "chip": "ym2612"
    },
    {
      "channel": 1,
      "note": 54,
      "start": 11.3194,
      "duration": 0.0494,
      "velocity": 91,
      "chip": "ym2612"
    },
    {
      "channel": 1,
      "note": 54,
      "start": 11.42,
      "duration": 0.0252,
      "velocity": 91,
      "chip": "ym2612"
    },
    {
      "channel": 2,
      "note": 75,
      "start": 11.4207,
      "duration": 0.0251,
      "velocity": 102,
      "chip": "ym2612"
    },
    {
      "channel": 3,
      "note": 69,
      "start": 11.4215,
      "duration": 0.0247,
      "velocity": 102,
      "chip": "ym2612"
    },
    {
      "channel": 1,
      "note": 59,
      "start": 11.4457,
      "duration": 0.0994,
      "velocity": 91,
      "chip": "ym2612"
    },
    {
      "channel": 1,
      "note": 61,
      "start": 11.5457,
      "duration": 0.0994,
      "velocity": 91,
      "chip": "ym2612"
    },
    {
      "channel": 2,
      "note": 87,
      "start": 11.5465,
      "duration": 0.3998,
      "velocity": 102,
      "chip": "ym2612"
    },
    {
      "channel": 3,
      "note": 81,
      "start": 11.5473,
      "duration": 0.3998,
      "velocity": 102,
      "chip": "ym2612"
    },
    {
      "channel": 1,
      "note": 64,
      "start": 11.6457,
      "duration": 0.0996,
      "velocity": 91,
      "chip": "ym2612"
    },
    {
      "channel": 1,
      "note": 66,
      "start": 11.746,
      "duration": 0.0143,
      "velocity": 91,
      "chip": "ym2612"
    },
    {
      "channel": 1,
      "note": 54,
      "start": 11.7608,
      "duration": 0.0845,
      "velocity": 91,
      "chip": "ym2612"
    },
    {
      "channel": 1,
      "note": 54,
      "start": 11.8459,
      "duration": 0.0494,
      "velocity": 91,
      "chip": "ym2612"
    },
    {
      "channel": 1,
      "note": 54,
      "start": 11.9462,
      "duration": 0.0085,
      "velocity": 91,
      "chip": "ym2612"
    },
    {
      "channel": 2,
      "note": 74,
      "start": 11.947,
      "duration": 0.0253,
      "velocity": 102,
      "chip": "ym2612"
    },
    {
      "channel": 3,
      "note": 69,
      "start": 11.9477,
      "duration": 0.0249,
      "velocity": 102,
      "chip": "ym2612"
    },
    {
      "channel": 1,
      "note": 64,
      "start": 11.9721,
      "duration": 0.0994,
      "velocity": 91,
      "chip": "ym2612"
    },
    {
      "channel": 1,
      "note": 66,
      "start": 12.0721,
      "duration": 0.0994,
      "velocity": 91,
      "chip": "ym2612"
    },
    {
      "channel": 2,
      "note": 86,
      "start": 12.0729,
      "duration": 0.4027,
      "velocity": 92,
      "chip": "ym2612"
    },
    {
      "channel": 3,
      "note": 81,
      "start": 12.0737,
      "duration": 0.405,
      "velocity": 92,
      "chip": "ym2612"
    },
    {
      "channel": 1,
      "note": 54,
      "start": 12.1721,
      "duration": 0.0996,
      "velocity": 91,
      "chip": "ym2612"
    },
    {
      "channel": 1,
      "note": 59,
      "start": 12.2724,
      "duration": 0.0143,
      "velocity": 91,
      "chip": "ym2612"
    },
    {
      "channel": 1,
      "note": 61,
      "start": 12.2872,
      "duration": 0.0141,
      "velocity": 91,
      "chip": "ym2612"
    },
    {
      "channel": 1,
      "note": 54,
      "start": 12.3018,
      "duration": 0.171,
      "velocity": 91,
      "chip": "ym2612"
    },
    {
      "channel": 0,
      "note": 73,
      "start": 12.4725,
      "duration": 0.8521,
      "velocity": 87,
      "chip": "ym2612"
    },
    {
      "channel": 1,
      "note": 54,
      "start": 12.4734,
      "duration": 0.1249,
      "velocity": 91,
      "chip": "ym2612"
    },
    {
      "channel": 2,
      "note": 78,
      "start": 12.4763,
      "duration": 0.1889,
      "velocity": 92,
      "chip": "ym2612"
    },
    {
      "channel": 3,
      "note": 73,
      "start": 12.4792,
      "duration": 0.1863,
      "velocity": 92,
      "chip": "ym2612"
    },
    {
      "channel": 1,
      "note": 64,
      "start": 12.5988,
      "duration": 0.0994,
      "velocity": 91,
      "chip": "ym2612"
    },
    {
      "channel": 4,
      "note": 73,
      "start": 12.6664,
      "duration": 0.7257,
      "velocity": 87,
      "chip": "ym2612"
    },
    {
      "channel": 1,
      "note": 66,
      "start": 12.6988,
      "duration": 0.0996,
      "velocity": 91,
      "chip": "ym2612"
    },
    {
      "channel": 1,
      "note": 54,
      "start": 12.799,
      "duration": 0.0116,
      "velocity": 91,
      "chip": "ym2612"
    },
    {
      "channel": 2,
      "note": 76,
      "start": 12.7998,
      "duration": 0.0655,
      "velocity": 92,
      "chip": "ym2612"
    },
    {
      "channel": 3,
      "note": 73,
      "start": 12.8005,
      "duration": 0.0651,
      "velocity": 92,
      "chip": "ym2612"
    },
    {
      "channel": 1,
      "note": 54,
      "start": 12.8324,
      "duration": 0.0162,
      "velocity": 91,
      "chip": "ym2612"
    },
    {
      "channel": 1,
      "note": 54,
      "start": 12.8991,
      "duration": 0.0494,
      "velocity": 91,
      "chip": "ym2612"
    },
    {
      "channel": 1,
      "note": 53,
      "start": 12.9994,
      "duration": 0.1254,
      "velocity": 91,
      "chip": "ym2612"
    },
    {
      "channel": 2,
      "note": 73,
      "start": 13.0002,
      "duration": 0.1749,
      "velocity": 92,
      "chip": "ym2612"
    },
    {
      "channel": 3,
      "note": 69,
      "start": 13.0009,
      "duration": 0.1745,
      "velocity": 92,
      "chip": "ym2612"
    },
    {
      "channel": 1,
      "note": 64,
      "start": 13.1254,
      "duration": 0.0994,
      "velocity": 91,
      "chip": "ym2612"
    },
    {
      "channel": 1,
      "note": 65,
      "start": 13.2254,
      "duration": 0.1,
      "velocity": 91,
      "chip": "ym2612"
    },
    {
      "channel": 2,
      "note": 71,
      "start": 13.2261,
      "duration": 0.1246,
      "velocity": 92,
      "chip": "ym2612"
    },
    {
      "channel": 3,
      "note": 66,
      "start": 13.2268,
      "duration": 0.1242,
      "velocity": 92,
      "chip": "ym2612"
    },
    {
      "channel": 0,
      "note": 73,
      "start": 13.3252,
      "duration": 0.0164,
      "velocity": 87,
      "chip": "ym2612"
    },
    {
      "channel": 1,
      "note": 53,
      "start": 13.3259,
      "duration": 0.0108,
      "velocity": 91,
      "chip": "ym2612"
    },
    {
      "channel": 0,
      "note": 78,
      "start": 13.3423,
      "duration": 0.0106,
      "velocity": 87,
      "chip": "ym2612"
    },
    {
      "channel": 1,
      "note": 53,
      "start": 13.3574,
      "duration": 0.0173,
      "velocity": 91,
      "chip": "ym2612"
    },
    {
      "channel": 2,
      "note": 69,
      "start": 13.3582,
      "duration": 0.0679,
      "velocity": 92,
      "chip": "ym2612"
    },
    {
      "channel": 3,
      "note": 61,
      "start": 13.3589,
      "duration": 0.0675,
      "velocity": 92,
      "chip": "ym2612"
    },
    {
      "channel": 4,
      "note": 73,
      "start": 13.3926,
      "duration": 0.0992,
      "velocity": 87,
      "chip": "ym2612"
    },
    {
      "channel": 0,
      "note": 73,
      "start": 13.4252,
      "duration": 0.7524,
      "velocity": 87,
      "chip": "ym2612"
    },
    {
      "channel": 1,
      "note": 53,
      "start": 13.4259,
      "duration": 0.049,
      "velocity": 91,
      "chip": "ym2612"
    },
    {
      "channel": 4,
      "note": 78,
      "start": 13.4924,
      "duration": 0.0397,
      "velocity": 87,
      "chip": "ym2612"
    },
    {
      "channel": 1,
      "note": 52,
      "start": 13.5259,
      "duration": 0.1256,
      "velocity": 91,
      "chip": "ym2612"
    },
    {
      "channel": 2,
      "note": 69,
      "start": 13.5522,
      "duration": 0.3002,
      "velocity": 92,
      "chip": "ym2612"
    },
    {
      "channel": 3,
      "note": 66,
      "start": 13.5529,
      "duration": 0.3002,
      "velocity": 92,
      "chip": "ym2612"
    },
    {
      "channel": 4,
      "note": 73,
      "start": 13.6194,
      "duration": 0.7698,
      "velocity": 87,
      "chip": "ym2612"
    },
    {
      "channel": 1,
      "note": 52,
      "start": 13.652,
      "duration": 0.0994,
      "velocity": 91,
      "chip": "ym2612"
    },
    {
      "channel": 1,
      "note": 64,
      "start": 13.752,
      "duration": 0.0996,
      "velocity": 91,
      "chip": "ym2612"
    },
    {
      "channel": 1,
      "note": 52,
      "start": 13.8522,
      "duration": 0.0122,
      "velocity": 91,
      "chip": "ym2612"
    },
    {
      "channel": 2,
      "note": 71,
      "start": 13.8529,
      "duration": 0.0169,
      "velocity": 92,
      "chip": "ym2612"
    },
    {
      "channel": 3,
      "note": 68,
      "start": 13.8537,
      "duration": 0.0166,
      "velocity": 92,
      "chip": "ym2612"
    },
    {
      "channel": 1,
      "note": 52,
      "start": 13.884,
      "duration": 0.0177,
      "velocity": 91,
      "chip": "ym2612"
    },
    {
      "channel": 2,
      "note": 73,
      "start": 13.8848,
      "duration": 0.0676,
      "velocity": 92,
      "chip": "ym2612"
    },
    {
      "channel": 3,
      "note": 69,
      "start": 13.8855,
      "duration": 0.0672,
      "velocity": 92,
      "chip": "ym2612"
    },
    {
      "channel": 1,
      "note": 52,
      "start": 13.9523,
      "duration": 0.0494,
      "velocity": 91,
      "chip": "ym2612"
    },
    {
      "channel": 1,
      "note": 53,
      "start": 14.0526,
      "duration": 0.1257,
      "velocity": 91,
      "chip": "ym2612"
    },
    {
      "channel": 2,
      "note": 71,
      "start": 14.0534,
      "duration": 0.2244,
      "velocity": 92,
      "chip": "ym2612"
    },
    {
      "channel": 3,
      "note": 68,
      "start": 14.0541,
      "duration": 0.2244,
      "velocity": 92,
      "chip": "ym2612"
    },
    {
      "channel": 0,
      "note": 71,
      "start": 14.1782,
      "duration": 0.0828,
      "velocity": 87,
      "chip": "ym2612"
    },
    {
      "channel": 1,
      "note": 65,
      "start": 14.1789,
      "duration": 0.0656,
      "velocity": 91,
      "chip": "ym2612"
    },
    {
      "channel": 2,
      "note": 69,
      "start": 14.2783,
      "duration": 0.101,
      "velocity": 92,
      "chip": "ym2612"
    },
    {
      "channel": 3,
      "note": 66,
      "start": 14.2791,
      "duration": 0.1005,
      "velocity": 92,
      "chip": "ym2612"
    },
    {
      "channel": 0,
      "note": 69,
      "start": 14.3784,
      "duration": 0.0127,
      "velocity": 87,
      "chip": "ym2612"
    },
    {
      "channel": 1,
      "note": 53,
      "start": 14.3791,
      "duration": 0.0096,
      "velocity": 91,
      "chip": "ym2612"
    },
    {
      "channel": 4,
      "note": 71,
      "start": 14.3898,
      "duration": 0.0087,
      "velocity": 87,
      "chip": "ym2612"
    },
    {
      "channel": 0,
      "note": 68,
      "start": 14.4036,
      "duration": 0.0576,
      "velocity": 87,
      "chip": "ym2612"
    },
    {
      "channel": 1,
      "note": 53,
      "start": 14.4043,
      "duration": 0.0238,
      "velocity": 91,
      "chip": "ym2612"
    },
    {
      "channel": 4,
      "note": 69,
      "start": 14.4455,
      "duration": 0.0828,
      "velocity": 87,
      "chip": "ym2612"
    },
    {
      "channel": 1,
      "note": 53,
      "start": 14.4784,
      "duration": 0.0494,
      "velocity": 91,
      "chip": "ym2612"
    },
    {
      "channel": 0,
      "note": 69,
      "start": 14.5787,
      "duration": 0.2254,
      "velocity": 87,
      "chip": "ym2612"
    },
    {
      "channel": 1,
      "note": 54,
      "start": 14.5794,
      "duration": 0.125,
      "velocity": 91,
      "chip": "ym2612"
    },
    {
      "channel": 2,
      "note": 73,
      "start": 14.5822,
      "duration": 0.0224,
      "velocity": 102,
      "chip": "ym2612"
    },
    {
      "channel": 3,
      "note": 69,
      "start": 14.5851,
      "duration": 0.0198,
      "velocity": 102,
      "chip": "ym2612"
    },
    {
      "channel": 4,
      "note": 68,
      "start": 14.5965,
      "duration": 0.0582,
      "velocity": 87,
      "chip": "ym2612"
    },
    {
      "channel": 1,
      "note": 64,
      "start": 14.705,
      "duration": 0.0998,
      "velocity": 91,
      "chip": "ym2612"
    },
    {
      "channel": 2,
      "note": 85,
      "start": 14.7058,
      "duration": 0.3995,
      "velocity": 102,
      "chip": "ym2612"
    },
    {
      "channel": 3,
      "note": 81,
      "start": 14.7066,
      "duration": 0.3995,
      "velocity": 102,
      "chip": "ym2612"
    },
    {
      "channel": 4,
      "note": 69,
      "start": 14.7726,
      "duration": 0.1607,
      "velocity": 87,
      "chip": "ym2612"
    },
    {
      "channel": 0,
      "note": 73,
      "start": 14.8046,
      "duration": 0.0996,
      "velocity": 87,
      "chip": "ym2612"
    },
    {
      "channel": 1,
      "note": 66,
      "start": 14.8053,
      "duration": 0.0993,
      "velocity": 91,
      "chip": "ym2612"
    },
    {
      "channel": 1,
      "note": 59,
      "start": 14.9051,
      "duration": 0.0158,
      "velocity": 91,
      "chip": "ym2612"
    },
    {
      "channel": 1,
      "note": 61,
      "start": 14.9215,
      "duration": 0.0163,
      "velocity": 91,
      "chip": "ym2612"
    },
    {
      "channel": 4,
      "note": 73,
      "start": 14.9339,
      "duration": 0.0379,
      "velocity": 87,
      "chip": "ym2612"
    },
    {
      "channel": 1,
      "note": 54,
      "start": 14.9384,
      "duration": 0.0159,
      "velocity": 91,
      "chip": "ym2612"
    },
    {
      "channel": 1,
      "note": 54,
      "start": 15.0049,
      "duration": 0.0494,
      "velocity": 91,
      "chip": "ym2612"
    },
    {
      "channel": 1,
      "note": 54,
      "start": 15.1052,
      "duration": 0.1254,
      "velocity": 91,
      "chip": "ym2612"
    },
    {
      "channel": 2,
      "note": 74,
      "start": 15.1059,
      "duration": 0.0249,
      "velocity": 102,
      "chip": "ym2612"
    },
    {
      "channel": 3,
      "note": 69,
      "start": 15.1066,
      "duration": 0.0245,
      "velocity": 102,
      "chip": "ym2612"
    },
    {
      "channel": 1,
      "note": 54,
      "start": 15.2311,
      "duration": 0.0494,
      "velocity": 91,
      "chip": "ym2612"
    },
    {
      "channel": 2,
      "note": 86,
      "start": 15.2319,
      "duration": 0.4001,
      "velocity": 102,
      "chip": "ym2612"
    },
    {
      "channel": 3,
      "note": 81,
      "start": 15.2327,
      "duration": 0.4001,
      "velocity": 102,
      "chip": "ym2612"
    },
    {
      "channel": 1,
      "note": 54,
      "start": 15.3311,
      "duration": 0.1139,
      "velocity": 91,
      "chip": "ym2612"
    },
    {
      "channel": 1,
      "note": 54,
      "start": 15.4456,
      "duration": 0.0851,
      "velocity": 91,
      "chip": "ym2612"
    },
    {
      "channel": 1,
      "note": 54,
      "start": 15.5312,
      "duration": 0.0494,
      "velocity": 91,
      "chip": "ym2612"
    },
    {
      "channel": 1,
      "note": 54,
      "start": 15.6318,
      "duration": 0.0252,
      "velocity": 91,
      "chip": "ym2612"
    },
    {
      "channel": 2,
      "note": 75,
      "start": 15.6326,
      "duration": 0.0251,
      "velocity": 102,
      "chip": "ym2612"
    },
    {
      "channel": 3,
      "note": 69,
      "start": 15.6333,
      "duration": 0.0247,
      "velocity": 102,
      "chip": "ym2612"
    },
    {
      "channel": 1,
      "note": 59,
      "start": 15.6576,
      "duration": 0.0994,
      "velocity": 91,
      "chip": "ym2612"
    },
    {
      "channel": 1,
      "note": 61,
      "start": 15.7576,
      "duration": 0.0994,
      "velocity": 91,
      "chip": "ym2612"
    },
    {
      "channel": 2,
      "note": 87,
      "start": 15.7583,
      "duration": 0.3999,
      "velocity": 102,
      "chip": "ym2612"
    },
    {
      "channel": 3,
      "note": 81,
      "start": 15.7591,
      "duration": 0.3999,
      "velocity": 102,
      "chip": "ym2612"
    },
    {
      "channel": 1,
      "note": 64,
      "start": 15.8576,
      "duration": 0.0996,
      "velocity": 91,
      "chip": "ym2612"
    },
    {
      "channel": 1,
      "note": 66,
      "start": 15.9578,
      "duration": 0.0143,
      "velocity": 91,
      "chip": "ym2612"
    },
    {
      "channel": 1,
      "note": 54,
      "start": 15.9726,
      "duration": 0.0846,
      "velocity": 91,
      "chip": "ym2612"
    },
    {
      "channel": 1,
      "note": 54,
      "start": 16.0578,
      "duration": 0.0494,
      "velocity": 91,
      "chip": "ym2612"
    },
    {
      "channel": 1,
      "note": 54,
      "start": 16.1581,
      "duration": 0.0084,
      "velocity": 91,
      "chip": "ym2612"
    },
    {
      "channel": 2,
      "note": 74,
      "start": 16.1588,
      "duration": 0.0253,
      "velocity": 102,
      "chip": "ym2612"
    },
    {
      "channel": 3,
      "note": 69,
      "start": 16.1595,
      "duration": 0.0249,
      "velocity": 102,
      "chip": "ym2612"
    },
    {
      "channel": 1,
      "note": 64,
      "start": 16.184,
      "duration": 0.1003,
      "velocity": 91,
      "chip": "ym2612"
    },
    {
      "channel": 0,
      "note": 85,
      "start": 16.2842,
      "duration": 0.0305,
      "velocity": 87,
      "chip": "ym2612"
    },
    {
      "channel": 1,
      "note": 66,
      "start": 16.2849,
      "duration": 0.0152,
      "velocity": 91,
      "chip": "ym2612"
    },
    {
      "channel": 2,
      "note": 86,
      "start": 16.2856,
      "duration": 0.1039,
      "velocity": 94,
      "chip": "ym2612"
    },
    {
      "channel": 3,
      "note": 81,
      "start": 16.2864,
      "duration": 0.1056,
      "velocity": 94,
      "chip": "ym2612"
    },
    {
      "channel": 1,
      "note": 54,
      "start": 16.3006,
      "duration": 0.0148,
      "velocity": 91,
      "chip": "ym2612"
    },
    {
      "channel": 0,
      "note": 83,
      "start": 16.3153,
      "duration": 0.0349,
      "velocity": 87,
      "chip": "ym2612"
    },
    {
      "channel": 1,
      "note": 59,
      "start": 16.316,
      "duration": 0.0165,
      "velocity": 91,
      "chip": "ym2612"
    },
    {
      "channel": 4,
      "note": 85,
      "start": 16.3281,
      "duration": 0.0358,
      "velocity": 87,
      "chip": "ym2612"
    },
    {
      "channel": 1,
      "note": 61,
      "start": 16.3331,
      "duration": 0.0178,
      "velocity": 91,
      "chip": "ym2612"
    },
    {
      "channel": 0,
      "note": 81,
      "start": 16.3508,
      "duration": 0.035,
      "velocity": 87,
      "chip": "ym2612"
    },
    {
      "channel": 1,
      "note": 54,
      "start": 16.3515,
      "duration": 0.0352,
      "velocity": 91,
      "chip": "ym2612"
    },
    {
      "channel": 4,
      "note": 83,
      "start": 16.3645,
      "duration": 0.0377,
      "velocity": 87,
      "chip": "ym2612"
    },
    {
      "channel": 0,
      "note": 81,
      "start": 16.3864,
      "duration": 0.1432,
      "velocity": 87,
      "chip": "ym2612"
    },
    {
      "channel": 1,
      "note": 50,
      "start": 16.3872,
      "duration": 0.0248,
      "velocity": 91,
      "chip": "ym2612"
    },
    {
      "channel": 4,
      "note": 81,
      "start": 16.4027,
      "duration": 0.1223,
      "velocity": 87,
      "chip": "ym2612"
    },
    {
      "channel": 1,
      "note": 62,
      "start": 16.4126,
      "duration": 0.1177,
      "velocity": 91,
      "chip": "ym2612"
    },
    {
      "channel": 2,
      "note": 81,
      "start": 16.5133,
      "duration": 0.1115,
      "velocity": 94,
      "chip": "ym2612"
    },
    {
      "channel": 3,
      "note": 78,
      "start": 16.5139,
      "duration": 0.1111,
      "velocity": 94,
      "chip": "ym2612"
    },
    {
      "channel": 4,
      "note": 81,
      "start": 16.5256,
      "duration": 0.0576,
      "velocity": 87,
      "chip": "ym2612"
    },
    {
      "channel": 0,
      "note": 78,
      "start": 16.5302,
      "duration": 0.0581,
      "velocity": 87,
      "chip": "ym2612"
    },
    {
      "channel": 1,
      "note": 50,
      "start": 16.5309,
      "duration": 0.0076,
      "velocity": 91,
      "chip": "ym2612"
    },
    {
      "channel": 1,
      "note": 50,
      "start": 16.5523,
      "duration": 0.0172,
      "velocity": 91,
      "chip": "ym2612"
    },
    {
      "channel": 1,
      "note": 62,
      "start": 16.5701,
      "duration": 0.0365,
      "velocity": 91,
      "chip": "ym2612"
    },
    {
      "channel": 4,
      "note": 78,
      "start": 16.5838,
      "duration": 0.0512,
      "velocity": 87,
      "chip": "ym2612"
    },
    {
      "channel": 0,
      "note": 85,
      "start": 16.5889,
      "duration": 0.2359,
      "velocity": 87,
      "chip": "ym2612"
    },
    {
      "channel": 1,
      "note": 50,
      "start": 16.6072,
      "duration": 0.0084,
      "velocity": 91,
      "chip": "ym2612"
    },
    {
      "channel": 1,
      "note": 50,
      "start": 16.6246,
      "duration": 0.1244,
      "velocity": 91,
      "chip": "ym2612"
    },
    {
      "channel": 4,
      "note": 85,
      "start": 16.6356,
      "duration": 0.2305,
      "velocity": 87,
      "chip": "ym2612"
    },
    {
      "channel": 1,
      "note": 62,
      "start": 16.7497,
      "duration": 0.0171,
      "velocity": 91,
      "chip": "ym2612"
    },
    {
      "channel": 2,
      "note": 81,
      "start": 16.7504,
      "duration": 0.0167,
      "velocity": 94,
      "chip": "ym2612"
    },
    {
      "channel": 3,
      "note": 78,
      "start": 16.7511,
      "duration": 0.0162,
      "velocity": 94,
      "chip": "ym2612"
    },
    {
      "channel": 1,
      "note": 50,
      "start": 16.789,
      "duration": 0.0365,
      "velocity": 91,
      "chip": "ym2612"
    },
    {
      "channel": 2,
      "note": 80,
      "start": 16.7897,
      "duration": 0.0173,
      "velocity": 94,
      "chip": "ym2612"
    },
    {
      "channel": 3,
      "note": 76,
      "start": 16.7904,
      "duration": 0.0174,
      "velocity": 94,
      "chip": "ym2612"
    },
    {
      "channel": 2,
      "note": 81,
      "start": 16.8076,
      "duration": 0.0186,
      "velocity": 94,
      "chip": "ym2612"
    },
    {
      "channel": 3,
      "note": 78,
      "start": 16.8083,
      "duration": 0.0183,
      "velocity": 94,
      "chip": "ym2612"
    },
    {
      "channel": 0,
      "note": 83,
      "start": 16.8254,
      "duration": 0.0157,
      "velocity": 87,
      "chip": "ym2612"
    },
    {
      "channel": 1,
      "note": 62,
      "start": 16.8261,
      "duration": 0.0157,
      "velocity": 91,
      "chip": "ym2612"
    },
    {
      "channel": 0,
      "note": 81,
      "start": 16.8417,
      "duration": 0.0129,
      "velocity": 87,
      "chip": "ym2612"
    },
    {
      "channel": 0,
      "note": 83,
      "start": 16.8553,
      "duration": 0.1076,
      "velocity": 87,
      "chip": "ym2612"
    },
    {
      "channel": 1,
      "note": 52,
      "start": 16.856,
      "duration": 0.0238,
      "velocity": 91,
      "chip": "ym2612"
    },
    {
      "channel": 4,
      "note": 83,
      "start": 16.8667,
      "duration": 0.0802,
      "velocity": 87,
      "chip": "ym2612"
    },
    {
      "channel": 1,
      "note": 64,
      "start": 16.8805,
      "duration": 0.1157,
      "velocity": 91,
      "chip": "ym2612"
    },
    {
      "channel": 4,
      "note": 81,
      "start": 16.9475,
      "duration": 0.0436,
      "velocity": 87,
      "chip": "ym2612"
    },
    {
      "channel": 2,
      "note": 83,
      "start": 16.9808,
      "duration": 0.1047,
      "velocity": 94,
      "chip": "ym2612"
    },
    {
      "channel": 3,
      "note": 80,
      "start": 16.9815,
      "duration": 0.1043,
      "velocity": 94,
      "chip": "ym2612"
    },
    {
      "channel": 4,
      "note": 83,
      "start": 16.9918,
      "duration": 0.0379,
      "velocity": 87,
      "chip": "ym2612"
    },
    {
      "channel": 0,
      "note": 80,
      "start": 16.9961,
      "duration": 0.0377,
      "velocity": 87,
      "chip": "ym2612"
    },
    {
      "channel": 1,
      "note": 52,
      "start": 16.9968,
      "duration": 0.0075,
      "velocity": 91,
      "chip": "ym2612"
    },
    {
      "channel": 1,
      "note": 52,
      "start": 17.0201,
      "duration": 0.0163,
      "velocity": 91,
      "chip": "ym2612"
    },
    {
      "channel": 1,
      "note": 64,
      "start": 17.037,
      "duration": 0.0343,
      "velocity": 91,
      "chip": "ym2612"
    },
    {
      "channel": 4,
      "note": 80,
      "start": 17.0481,
      "duration": 0.0333,
      "velocity": 87,
      "chip": "ym2612"
    },
    {
      "channel": 0,
      "note": 76,
      "start": 17.0536,
      "duration": 0.1068,
      "velocity": 87,
      "chip": "ym2612"
    },
    {
      "channel": 1,
      "note": 52,
      "start": 17.0719,
      "duration": 0.0084,
      "velocity": 91,
      "chip": "ym2612"
    },
    {
      "channel": 1,
      "note": 52,
      "start": 17.0885,
      "duration": 0.0396,
      "velocity": 91,
      "chip": "ym2612"
    },
    {
      "channel": 4,
      "note": 76,
      "start": 17.099,
      "duration": 0.1093,
      "velocity": 87,
      "chip": "ym2612"
    },
    {
      "channel": 1,
      "note": 64,
      "start": 17.1287,
      "duration": 0.0176,
      "velocity": 91,
      "chip": "ym2612"
    },
    {
      "channel": 2,
      "note": 83,
      "start": 17.1295,
      "duration": 0.0171,
      "velocity": 94,
      "chip": "ym2612"
    },
    {
      "channel": 3,
      "note": 80,
      "start": 17.1302,
      "duration": 0.0167,
      "velocity": 94,
      "chip": "ym2612"
    },
    {
      "channel": 0,
      "note": 80,
      "start": 17.161,
      "duration": 0.0361,
      "velocity": 87,
      "chip": "ym2612"
    },
    {
      "channel": 1,
      "note": 52,
      "start": 17.1617,
      "duration": 0.0361,
      "velocity": 91,
      "chip": "ym2612"
    },
    {
      "channel": 2,
      "note": 81,
      "start": 17.1624,
      "duration": 0.0167,
      "velocity": 94,
      "chip": "ym2612"
    },
    {
      "channel": 3,
      "note": 78,
      "start": 17.1632,
      "duration": 0.0168,
      "velocity": 94,
      "chip": "ym2612"
    },
    {
      "channel": 2,
      "note": 83,
      "start": 17.1798,
      "duration": 0.0188,
      "velocity": 94,
      "chip": "ym2612"
    },
    {
      "channel": 3,
      "note": 80,
      "start": 17.1805,
      "duration": 0.0183,
      "velocity": 94,
      "chip": "ym2612"
    },
    {
      "channel": 0,
      "note": 78,
      "start": 17.1977,
      "duration": 0.0391,
      "velocity": 87,
      "chip": "ym2612"
    },
    {
      "channel": 1,
      "note": 64,
      "start": 17.1984,
      "duration": 0.0143,
      "velocity": 91,
      "chip": "ym2612"
    },
    {
      "channel": 4,
      "note": 80,
      "start": 17.2089,
      "duration": 0.0398,
      "velocity": 87,
      "chip": "ym2612"
    },
    {
      "channel": 0,
      "note": 77,
      "start": 17.2373,
      "duration": 0.1432,
      "velocity": 87,
      "chip": "ym2612"
    },
    {
      "channel": 1,
      "note": 53,
      "start": 17.2381,
      "duration": 0.0248,
      "velocity": 91,
      "chip": "ym2612"
    },
    {
      "channel": 4,
      "note": 78,
      "start": 17.2492,
      "duration": 0.1268,
      "velocity": 87,
      "chip": "ym2612"
    },
    {
      "channel": 1,
      "note": 65,
      "start": 17.2636,
      "duration": 0.1177,
      "velocity": 91,
      "chip": "ym2612"
    },
    {
      "channel": 2,
      "note": 83,
      "start": 17.3642,
      "duration": 0.1036,
      "velocity": 94,
      "chip": "ym2612"
    },
    {
      "channel": 3,
      "note": 80,
      "start": 17.3649,
      "duration": 0.1032,
      "velocity": 94,
      "chip": "ym2612"
    },
    {
      "channel": 4,
      "note": 77,
      "start": 17.3766,
      "duration": 0.0549,
      "velocity": 87,
      "chip": "ym2612"
    },
    {
      "channel": 0,
      "note": 80,
      "start": 17.3811,
      "duration": 0.0212,
      "velocity": 87,
      "chip": "ym2612"
    },
    {
      "channel": 1,
      "note": 53,
      "start": 17.3818,
      "duration": 0.0076,
      "velocity": 91,
      "chip": "ym2612"
    },
    {
      "channel": 1,
      "note": 53,
      "start": 17.4032,
      "duration": 0.0158,
      "velocity": 91,
      "chip": "ym2612"
    },
    {
      "channel": 1,
      "note": 65,
      "start": 17.4196,
      "duration": 0.0349,
      "velocity": 91,
      "chip": "ym2612"
    },
    {
      "channel": 4,
      "note": 80,
      "start": 17.432,
      "duration": 0.0174,
      "velocity": 87,
      "chip": "ym2612"
    },
    {
      "channel": 0,
      "note": 83,
      "start": 17.4368,
      "duration": 0.1581,
      "velocity": 87,
      "chip": "ym2612"
    },
    {
      "channel": 1,
      "note": 53,
      "start": 17.4551,
      "duration": 0.0077,
      "velocity": 91,
      "chip": "ym2612"
    },
    {
      "channel": 1,
      "note": 53,
      "start": 17.4709,
      "duration": 0.1249,
      "velocity": 91,
      "chip": "ym2612"
    },
    {
      "channel": 4,
      "note": 83,
      "start": 17.4802,
      "duration": 0.1682,
      "velocity": 87,
      "chip": "ym2612"
    },
    {
      "channel": 0,
      "note": 86,
      "start": 17.5956,
      "duration": 0.0169,
      "velocity": 87,
      "chip": "ym2612"
    },
    {
      "channel": 1,
      "note": 65,
      "start": 17.5963,
      "duration": 0.0165,
      "velocity": 91,
      "chip": "ym2612"
    },
    {
      "channel": 2,
      "note": 83,
      "start": 17.5971,
      "duration": 0.0161,
      "velocity": 94,
      "chip": "ym2612"
    },
    {
      "channel": 3,
      "note": 80,
      "start": 17.5978,
      "duration": 0.0156,
      "velocity": 94,
      "chip": "ym2612"
    },
    {
      "channel": 0,
      "note": 85,
      "start": 17.6351,
      "duration": 0.0178,
      "velocity": 87,
      "chip": "ym2612"
    },
    {
      "channel": 1,
      "note": 53,
      "start": 17.6358,
      "duration": 0.0332,
      "velocity": 91,
      "chip": "ym2612"
    },
    {
      "channel": 2,
      "note": 81,
      "start": 17.6366,
      "duration": 0.0169,
      "velocity": 94,
      "chip": "ym2612"
    },
    {
      "channel": 3,
      "note": 78,
      "start": 17.6373,
      "duration": 0.0169,
      "velocity": 94,
      "chip": "ym2612"
    },
    {
      "channel": 4,
      "note": 86,
      "start": 17.649,
      "duration": 0.0154,
      "velocity": 87,
      "chip": "ym2612"
    },
    {
      "channel": 2,
      "note": 83,
      "start": 17.654,
      "duration": 0.0157,
      "velocity": 94,
      "chip": "ym2612"
    },
    {
      "channel": 3,
      "note": 80,
      "start": 17.6548,
      "duration": 0.0153,
      "velocity": 94,
      "chip": "ym2612"
    },
    {
      "channel": 0,
      "note": 83,
      "start": 17.6689,
      "duration": 0.0139,
      "velocity": 87,
      "chip": "ym2612"
    },
    {
      "channel": 1,
      "note": 65,
      "start": 17.6696,
      "duration": 0.0135,
      "velocity": 91,
      "chip": "ym2612"
    },
    {
      "channel": 4,
      "note": 85,
      "start": 17.6787,
      "duration": 0.0119,
      "velocity": 87,
      "chip": "ym2612"
    },
    {
      "channel": 0,
      "note": 85,
      "start": 17.6944,
      "duration": 0.1365,
      "velocity": 87,
      "chip": "ym2612"
    },
    {
      "channel": 1,
      "note": 54,
      "start": 17.6951,
      "duration": 0.0249,
      "velocity": 91,
      "chip": "ym2612"
    },
    {
      "channel": 4,
      "note": 83,
      "start": 17.7054,
      "duration": 0.0817,
      "velocity": 87,
      "chip": "ym2612"
    },
    {
      "channel": 1,
      "note": 66,
      "start": 17.7206,
      "duration": 0.1158,
      "velocity": 91,
      "chip": "ym2612"
    },
    {
      "channel": 2,
      "note": 85,
      "start": 17.8212,
      "duration": 0.0397,
      "velocity": 94,
      "chip": "ym2612"
    },
    {
      "channel": 3,
      "note": 81,
      "start": 17.822,
      "duration": 0.0397,
      "velocity": 94,
      "chip": "ym2612"
    },
    {
      "channel": 4,
      "note": 85,
      "start": 17.8327,
      "duration": 0.0524,
      "velocity": 87,
      "chip": "ym2612"
    },
    {
      "channel": 1,
      "note": 54,
      "start": 17.837,
      "duration": 0.007,
      "velocity": 91,
      "chip": "ym2612"
    },
    {
      "channel": 0,
      "note": 83,
      "start": 17.8601,
      "duration": 0.0436,
      "velocity": 87,
      "chip": "ym2612"
    },
    {
      "channel": 1,
      "note": 54,
      "start": 17.8608,
      "duration": 0.0166,
      "velocity": 91,
      "chip": "ym2612"
    },
    {
      "channel": 2,
      "note": 85,
      "start": 17.8615,
      "duration": 0.0167,
      "velocity": 94,
      "chip": "ym2612"
    },
    {
      "channel": 3,
      "note": 81,
      "start": 17.8623,
      "duration": 0.0167,
      "velocity": 94,
      "chip": "ym2612"
    },
    {
      "channel": 1,
      "note": 66,
      "start": 17.878,
      "duration": 0.0315,
      "velocity": 91,
      "chip": "ym2612"
    },
    {
      "channel": 2,
      "note": 85,
      "start": 17.8788,
      "duration": 0.0168,
      "velocity": 94,
      "chip": "ym2612"
    },
    {
      "channel": 3,
      "note": 81,
      "start": 17.8795,
      "duration": 0.0164,
      "velocity": 94,
      "chip": "ym2612"
    },
    {
      "channel": 4,
      "note": 83,
      "start": 17.905,
      "duration": 0.0527,
      "velocity": 87,
      "chip": "ym2612"
    },
    {
      "channel": 1,
      "note": 54,
      "start": 17.9101,
      "duration": 0.0081,
      "velocity": 91,
      "chip": "ym2612"
    },
    {
      "channel": 2,
      "note": 85,
      "start": 17.9108,
      "duration": 0.0157,
      "velocity": 94,
      "chip": "ym2612"
    },
    {
      "channel": 3,
      "note": 81,
      "start": 17.9116,
      "duration": 0.0152,
      "velocity": 94,
      "chip": "ym2612"
    },
    {
      "channel": 0,
      "note": 81,
      "start": 17.9257,
      "duration": 0.0502,
      "velocity": 87,
      "chip": "ym2612"
    },
    {
      "channel": 1,
      "note": 52,
      "start": 17.9264,
      "duration": 0.0405,
      "velocity": 91,
      "chip": "ym2612"
    },
    {
      "channel": 2,
      "note": 85,
      "start": 17.9514,
      "duration": 0.0163,
      "velocity": 94,
      "chip": "ym2612"
    },
    {
      "channel": 3,
      "note": 81,
      "start": 17.9521,
      "duration": 0.016,
      "velocity": 94,
      "chip": "ym2612"
    },
    {
      "channel": 1,
      "note": 64,
      "start": 17.9676,
      "duration": 0.0136,
      "velocity": 91,
      "chip": "ym2612"
    },
    {
      "channel": 4,
      "note": 81,
      "start": 17.9772,
      "duration": 0.0424,
      "velocity": 87,
      "chip": "ym2612"
    },
    {
      "channel": 2,
      "note": 85,
      "start": 17.982,
      "duration": 0.0152,
      "velocity": 94,
      "chip": "ym2612"
    },
    {
      "channel": 3,
      "note": 81,
      "start": 17.9828,
      "duration": 0.0152,
      "velocity": 94,
      "chip": "ym2612"
    },
    {
      "channel": 0,
      "note": 80,
      "start": 17.9964,
      "duration": 0.0432,
      "velocity": 87,
      "chip": "ym2612"
    },
    {
      "channel": 1,
      "note": 52,
      "start": 17.9971,
      "duration": 0.0314,
      "velocity": 91,
      "chip": "ym2612"
    },
    {
      "channel": 2,
      "note": 85,
      "start": 17.9979,
      "duration": 0.0164,
      "velocity": 94,
      "chip": "ym2612"
    },
    {
      "channel": 3,
      "note": 81,
      "start": 17.9986,
      "duration": 0.016,
      "velocity": 94,
      "chip": "ym2612"
    },
    {
      "channel": 1,
      "note": 64,
      "start": 18.0292,
      "duration": 0.0159,
      "velocity": 91,
      "chip": "ym2612"
    },
    {
      "channel": 2,
      "note": 85,
      "start": 18.0299,
      "duration": 0.0155,
      "velocity": 94,
      "chip": "ym2612"
    },
    {
      "channel": 3,
      "note": 81,
      "start": 18.0306,
      "duration": 0.015,
      "velocity": 94,
      "chip": "ym2612"
    },
    {
      "channel": 4,
      "note": 80,
      "start": 18.0414,
      "duration": 0.0861,
      "velocity": 87,
      "chip": "ym2612"
    },
    {
      "channel": 0,
      "note": 81,
      "start": 18.0682,
      "duration": 0.1424,
      "velocity": 87,
      "chip": "ym2612"
    },
    {
      "channel": 1,
      "note": 50,
      "start": 18.0689,
      "duration": 0.0249,
      "velocity": 91,
      "chip": "ym2612"
    },
    {
      "channel": 1,
      "note": 62,
      "start": 18.0944,
      "duration": 0.1169,
      "velocity": 91,
      "chip": "ym2612"
    },
    {
      "channel": 2,
      "note": 81,
      "start": 18.195,
      "duration": 0.1116,
      "velocity": 94,
      "chip": "ym2612"
    },
    {
      "channel": 3,
      "note": 78,
      "start": 18.1957,
      "duration": 0.1112,
      "velocity": 94,
      "chip": "ym2612"
    },
    {
      "channel": 4,
      "note": 81,
      "start": 18.2066,
      "duration": 0.0585,
      "velocity": 87,
      "chip": "ym2612"
    },
    {
      "channel": 0,
      "note": 78,
      "start": 18.2112,
      "duration": 0.059,
      "velocity": 87,
      "chip": "ym2612"
    },
    {
      "channel": 1,
      "note": 50,
      "start": 18.2119,
      "duration": 0.0076,
      "velocity": 91,
      "chip": "ym2612"
    },
    {
      "channel": 1,
      "note": 50,
      "start": 18.2342,
      "duration": 0.0172,
      "velocity": 91,
      "chip": "ym2612"
    },
    {
      "channel": 1,
      "note": 62,
      "start": 18.252,
      "duration": 0.0365,
      "velocity": 91,
      "chip": "ym2612"
    },
    {
      "channel": 4,
      "note": 78,
      "start": 18.2657,
      "duration": 0.0512,
      "velocity": 87,
      "chip": "ym2612"
    },
    {
      "channel": 0,
      "note": 85,
      "start": 18.2708,
      "duration": 0.2269,
      "velocity": 87,
      "chip": "ym2612"
    },
    {
      "channel": 1,
      "note": 50,
      "start": 18.289,
      "duration": 0.0084,
      "velocity": 91,
      "chip": "ym2612"
    },
    {
      "channel": 1,
      "note": 50,
      "start": 18.3065,
      "duration": 0.1244,
      "velocity": 91,
      "chip": "ym2612"
    },
    {
      "channel": 4,
      "note": 85,
      "start": 18.3175,
      "duration": 0.2236,
      "velocity": 87,
      "chip": "ym2612"
    },
    {
      "channel": 1,
      "note": 62,
      "start": 18.4315,
      "duration": 0.0171,
      "velocity": 91,
      "chip": "ym2612"
    },
    {
      "channel": 2,
      "note": 81,
      "start": 18.4323,
      "duration": 0.0167,
      "velocity": 94,
      "chip": "ym2612"
    },
    {
      "channel": 3,
      "note": 78,
      "start": 18.433,
      "duration": 0.0162,
      "velocity": 94,
      "chip": "ym2612"
    },
    {
      "channel": 1,
      "note": 50,
      "start": 18.4709,
      "duration": 0.0365,
      "velocity": 91,
      "chip": "ym2612"
    },
    {
      "channel": 2,
      "note": 80,
      "start": 18.4716,
      "duration": 0.0173,
      "velocity": 94,
      "chip": "ym2612"
    },
    {
      "channel": 3,
      "note": 76,
      "start": 18.4723,
      "duration": 0.0174,
      "velocity": 94,
      "chip": "ym2612"
    },
    {
      "channel": 2,
      "note": 81,
      "start": 18.4895,
      "duration": 0.0186,
      "velocity": 94,
      "chip": "ym2612"
    },
    {
      "channel": 3,
      "note": 78,
      "start": 18.4902,
      "duration": 0.0183,
      "velocity": 94,
      "chip": "ym2612"
    },
    {
      "channel": 0,
      "note": 83,
      "start": 18.5073,
      "duration": 0.0157,
      "velocity": 87,
      "chip": "ym2612"
    },
    {
      "channel": 1,
      "note": 62,
      "start": 18.508,
      "duration": 0.0157,
      "velocity": 91,
      "chip": "ym2612"
    },
    {
      "channel": 0,
      "note": 81,
      "start": 18.5236,
      "duration": 0.0129,
      "velocity": 87,
      "chip": "ym2612"
    },
    {
      "channel": 0,
      "note": 83,
      "start": 18.5372,
      "duration": 0.1076,
      "velocity": 87,
      "chip": "ym2612"
    },
    {
      "channel": 1,
      "note": 52,
      "start": 18.5379,
      "duration": 0.0238,
      "velocity": 91,
      "chip": "ym2612"
    },
    {
      "channel": 4,
      "note": 83,
      "start": 18.5478,
      "duration": 0.081,
      "velocity": 87,
      "chip": "ym2612"
    },
    {
      "channel": 1,
      "note": 64,
      "start": 18.5623,
      "duration": 0.1157,
      "velocity": 91,
      "chip": "ym2612"
    },
    {
      "channel": 4,
      "note": 81,
      "start": 18.6294,
      "duration": 0.0436,
      "velocity": 87,
      "chip": "ym2612"
    },
    {
      "channel": 2,
      "note": 83,
      "start": 18.6626,
      "duration": 0.1047,
      "velocity": 94,
      "chip": "ym2612"
    },
    {
      "channel": 3,
      "note": 80,
      "start": 18.6633,
      "duration": 0.1043,
      "velocity": 94,
      "chip": "ym2612"
    },
    {
      "channel": 4,
      "note": 83,
      "start": 18.6737,
      "duration": 0.0379,
      "velocity": 87,
      "chip": "ym2612"
    },
    {
      "channel": 0,
      "note": 80,
      "start": 18.6779,
      "duration": 0.0377,
      "velocity": 87,
      "chip": "ym2612"
    },
    {
      "channel": 1,
      "note": 52,
      "start": 18.6786,
      "duration": 0.0075,
      "velocity": 91,
      "chip": "ym2612"
    },
    {
      "channel": 1,
      "note": 52,
      "start": 18.702,
      "duration": 0.0163,
      "velocity": 91,
      "chip": "ym2612"
    },
    {
      "channel": 1,
      "note": 64,
      "start": 18.7189,
      "duration": 0.0343,
      "velocity": 91,
      "chip": "ym2612"
    },
    {
      "channel": 4,
      "note": 80,
      "start": 18.7299,
      "duration": 0.0333,
      "velocity": 87,
      "chip": "ym2612"
    },
    {
      "channel": 0,
      "note": 76,
      "start": 18.7354,
      "duration": 0.1071,
      "velocity": 87,
      "chip": "ym2612"
    },
    {
      "channel": 1,
      "note": 52,
      "start": 18.7537,
      "duration": 0.0084,
      "velocity": 91,
      "chip": "ym2612"
    },
    {
      "channel": 1,
      "note": 52,
      "start": 18.7704,
      "duration": 0.0399,
      "velocity": 91,
      "chip": "ym2612"
    },
    {
      "channel": 4,
      "note": 76,
      "start": 18.7807,
      "duration": 0.1098,
      "velocity": 87,
      "chip": "ym2612"
    },
    {
      "channel": 1,
      "note": 64,
      "start": 18.8109,
      "duration": 0.0175,
      "velocity": 91,
      "chip": "ym2612"
    },
    {
      "channel": 2,
      "note": 83,
      "start": 18.8117,
      "duration": 0.017,
      "velocity": 94,
      "chip": "ym2612"
    },
    {
      "channel": 3,
      "note": 80,
      "start": 18.8124,
      "duration": 0.0166,
      "velocity": 94,
      "chip": "ym2612"
    },
    {
      "channel": 0,
      "note": 80,
      "start": 18.8432,
      "duration": 0.0361,
      "velocity": 87,
      "chip": "ym2612"
    },
    {
      "channel": 1,
      "note": 52,
      "start": 18.8439,
      "duration": 0.0361,
      "velocity": 91,
      "chip": "ym2612"
    },
    {
      "channel": 2,
      "note": 81,
      "start": 18.8446,
      "duration": 0.0167,
      "velocity": 94,
      "chip": "ym2612"
    },
    {
      "channel": 3,
      "note": 78,
      "start": 18.8453,
      "duration": 0.0168,
      "velocity": 94,
      "chip": "ym2612"
    },
    {
      "channel": 2,
      "note": 83,
      "start": 18.862,
      "duration": 0.0188,
      "velocity": 94,
      "chip": "ym2612"
    },
    {
      "channel": 3,
      "note": 80,
      "start": 18.8627,
      "duration": 0.0183,
      "velocity": 94,
      "chip": "ym2612"
    },
    {
      "channel": 0,
      "note": 78,
      "start": 18.8799,
      "duration": 0.0391,
      "velocity": 87,
      "chip": "ym2612"
    },
    {
      "channel": 1,
      "note": 64,
      "start": 18.8806,
      "duration": 0.0143,
      "velocity": 91,
      "chip": "ym2612"
    },
    {
      "channel": 4,
      "note": 80,
      "start": 18.8911,
      "duration": 0.0399,
      "velocity": 87,
      "chip": "ym2612"
    },
    {
      "channel": 0,
      "note": 77,
      "start": 18.9195,
      "duration": 0.1432,
      "velocity": 87,
      "chip": "ym2612"
    },
    {
      "channel": 1,
      "note": 53,
      "start": 18.9203,
      "duration": 0.0248,
      "velocity": 91,
      "chip": "ym2612"
    },
    {
      "channel": 4,
      "note": 78,
      "start": 18.9315,
      "duration": 0.1266,
      "velocity": 87,
      "chip": "ym2612"
    },
    {
      "channel": 1,
      "note": 65,
      "start": 18.9458,
      "duration": 0.1177,
      "velocity": 91,
      "chip": "ym2612"
    },
    {
      "channel": 2,
      "note": 83,
      "start": 19.0464,
      "duration": 0.1036,
      "velocity": 94,
      "chip": "ym2612"
    },
    {
      "channel": 3,
      "note": 80,
      "start": 19.0471,
      "duration": 0.1032,
      "velocity": 94,
      "chip": "ym2612"
    },
    {
      "channel": 4,
      "note": 77,
      "start": 19.0588,
      "duration": 0.0549,
      "velocity": 87,
      "chip": "ym2612"
    },
    {
      "channel": 0,
      "note": 80,
      "start": 19.0633,
      "duration": 0.0212,
      "velocity": 87,
      "chip": "ym2612"
    },
    {
      "channel": 1,
      "note": 53,
      "start": 19.064,
      "duration": 0.0076,
      "velocity": 91,
      "chip": "ym2612"
    },
    {
      "channel": 1,
      "note": 53,
      "start": 19.0854,
      "duration": 0.0158,
      "velocity": 91,
      "chip": "ym2612"
    },
    {
      "channel": 1,
      "note": 65,
      "start": 19.1018,
      "duration": 0.0349,
      "velocity": 91,
      "chip": "ym2612"
    },
    {
      "channel": 4,
      "note": 80,
      "start": 19.1142,
      "duration": 0.0174,
      "velocity": 87,
      "chip": "ym2612"
    },
    {
      "channel": 0,
      "note": 83,
      "start": 19.119,
      "duration": 0.1581,
      "velocity": 87,
      "chip": "ym2612"
    },
    {
      "channel": 1,
      "note": 53,
      "start": 19.1372,
      "duration": 0.0077,
      "velocity": 91,
      "chip": "ym2612"
    },
    {
      "channel": 1,
      "note": 53,
      "start": 19.1531,
      "duration": 0.1249,
      "velocity": 91,
      "chip": "ym2612"
    },
    {
      "channel": 4,
      "note": 83,
      "start": 19.1623,
      "duration": 0.1682,
      "velocity": 87,
      "chip": "ym2612"
    },
    {
      "channel": 0,
      "note": 86,
      "start": 19.2778,
      "duration": 0.0169,
      "velocity": 87,
      "chip": "ym2612"
    },
    {
      "channel": 1,
      "note": 65,
      "start": 19.2785,
      "duration": 0.0165,
      "velocity": 91,
      "chip": "ym2612"
    },
    {
      "channel": 2,
      "note": 83,
      "start": 19.2793,
      "duration": 0.0161,
      "velocity": 94,
      "chip": "ym2612"
    },
    {
      "channel": 3,
      "note": 80,
      "start": 19.28,
      "duration": 0.0156,
      "velocity": 94,
      "chip": "ym2612"
    },
    {
      "channel": 0,
      "note": 85,
      "start": 19.3173,
      "duration": 0.0178,
      "velocity": 87,
      "chip": "ym2612"
    },
    {
      "channel": 1,
      "note": 53,
      "start": 19.318,
      "duration": 0.0332,
      "velocity": 91,
      "chip": "ym2612"
    },
    {
      "channel": 2,
      "note": 81,
      "start": 19.3187,
      "duration": 0.0169,
      "velocity": 94,
      "chip": "ym2612"
    },
    {
      "channel": 3,
      "note": 78,
      "start": 19.3194,
      "duration": 0.0169,
      "velocity": 94,
      "chip": "ym2612"
    },
    {
      "channel": 4,
      "note": 86,
      "start": 19.3312,
      "duration": 0.0154,
      "velocity": 87,
      "chip": "ym2612"
    },
    {
      "channel": 2,
      "note": 83,
      "start": 19.3362,
      "duration": 0.0157,
      "velocity": 94,
      "chip": "ym2612"
    },
    {
      "channel": 3,
      "note": 80,
      "start": 19.3369,
      "duration": 0.0153,
      "velocity": 94,
      "chip": "ym2612"
    },
    {
      "channel": 0,
      "note": 83,
      "start": 19.3511,
      "duration": 0.0139,
      "velocity": 87,
      "chip": "ym2612"
    },
    {
      "channel": 1,
      "note": 65,
      "start": 19.3518,
      "duration": 0.0135,
      "velocity": 91,
      "chip": "ym2612"
    },
    {
      "channel": 4,
      "note": 85,
      "start": 19.3609,
      "duration": 0.0119,
      "velocity": 87,
      "chip": "ym2612"
    },
    {
      "channel": 0,
      "note": 85,
      "start": 19.3766,
      "duration": 0.0253,
      "velocity": 87,
      "chip": "ym2612"
    },
    {
      "channel": 1,
      "note": 54,
      "start": 19.3773,
      "duration": 0.0253,
      "velocity": 91,
      "chip": "ym2612"
    },
    {
      "channel": 4,
      "note": 83,
      "start": 19.3876,
      "duration": 0.0817,
      "velocity": 87,
      "chip": "ym2612"
    },
    {
      "channel": 0,
      "note": 83,
      "start": 19.4025,
      "duration": 0.0996,
      "velocity": 87,
      "chip": "ym2612"
    },
    {
      "channel": 1,
      "note": 66,
      "start": 19.4032,
      "duration": 0.1157,
      "velocity": 91,
      "chip": "ym2612"
    },
    {
      "channel": 0,
      "note": 85,
      "start": 19.5027,
      "duration": 0.4858,
      "velocity": 87,
      "chip": "ym2612"
    },
    {
      "channel": 2,
      "note": 85,
      "start": 19.5038,
      "duration": 0.0389,
      "velocity": 94,
      "chip": "ym2612"
    },
    {
      "channel": 3,
      "note": 81,
      "start": 19.5045,
      "duration": 0.0388,
      "velocity": 94,
      "chip": "ym2612"
    },
    {
      "channel": 4,
      "note": 85,
      "start": 19.5148,
      "duration": 0.0155,
      "velocity": 87,
      "chip": "ym2612"
    },
    {
      "channel": 1,
      "note": 54,
      "start": 19.5195,
      "duration": 0.0076,
      "velocity": 91,
      "chip": "ym2612"
    },
    {
      "channel": 4,
      "note": 83,
      "start": 19.531,
      "duration": 0.0241,
      "velocity": 87,
      "chip": "ym2612"
    },
    {
      "channel": 1,
      "note": 54,
      "start": 19.5425,
      "duration": 0.0175,
      "velocity": 91,
      "chip": "ym2612"
    },
    {
      "channel": 2,
      "note": 85,
      "start": 19.5432,
      "duration": 0.0176,
      "velocity": 94,
      "chip": "ym2612"
    },
    {
      "channel": 3,
      "note": 81,
      "start": 19.544,
      "duration": 0.0175,
      "velocity": 94,
      "chip": "ym2612"
    },
    {
      "channel": 4,
      "note": 85,
      "start": 19.5557,
      "duration": 0.5,
      "velocity": 87,
      "chip": "ym2612"
    },
    {
      "channel": 1,
      "note": 66,
      "start": 19.5606,
      "duration": 0.0327,
      "velocity": 91,
      "chip": "ym2612"
    },
    {
      "channel": 2,
      "note": 85,
      "start": 19.5614,
      "duration": 0.0176,
      "velocity": 94,
      "chip": "ym2612"
    },
    {
      "channel": 3,
      "note": 81,
      "start": 19.5621,
      "duration": 0.0171,
      "velocity": 94,
      "chip": "ym2612"
    },
    {
      "channel": 1,
      "note": 54,
      "start": 19.594,
      "duration": 0.0094,
      "velocity": 91,
      "chip": "ym2612"
    },
    {
      "channel": 2,
      "note": 85,
      "start": 19.5947,
      "duration": 0.0177,
      "velocity": 94,
      "chip": "ym2612"
    },
    {
      "channel": 3,
      "note": 81,
      "start": 19.5954,
      "duration": 0.0172,
      "velocity": 94,
      "chip": "ym2612"
    },
    {
      "channel": 1,
      "note": 54,
      "start": 19.6122,
      "duration": 0.0438,
      "velocity": 91,
      "chip": "ym2612"
    },
    {
      "channel": 2,
      "note": 85,
      "start": 19.6387,
      "duration": 0.0181,
      "velocity": 94,
      "chip": "ym2612"
    },
    {
      "channel": 3,
      "note": 81,
      "start": 19.6394,
      "duration": 0.0177,
      "velocity": 94,
      "chip": "ym2612"
    },
    {
      "channel": 1,
      "note": 66,
      "start": 19.6567,
      "duration": 0.0158,
      "velocity": 91,
      "chip": "ym2612"
    },
    {
      "channel": 2,
      "note": 85,
      "start": 19.6734,
      "duration": 0.0179,
      "velocity": 94,
      "chip": "ym2612"
    },
    {
      "channel": 3,
      "note": 81,
      "start": 19.6741,
      "duration": 0.018,
      "velocity": 94,
      "chip": "ym2612"
    },
    {
      "channel": 1,
      "note": 54,
      "start": 19.6912,
      "duration": 0.0331,
      "velocity": 91,
      "chip": "ym2612"
    },
    {
      "channel": 2,
      "note": 85,
      "start": 19.6919,
      "duration": 0.0174,
      "velocity": 94,
      "chip": "ym2612"
    },
    {
      "channel": 3,
      "note": 81,
      "start": 19.6926,
      "duration": 0.017,
      "velocity": 94,
      "chip": "ym2612"
    },
    {
      "channel": 1,
      "note": 66,
      "start": 19.7249,
      "duration": 0.0179,
      "velocity": 91,
      "chip": "ym2612"
    },
    {
      "channel": 2,
      "note": 85,
      "start": 19.7256,
      "duration": 0.0176,
      "velocity": 94,
      "chip": "ym2612"
    },
    {
      "channel": 3,
      "note": 81,
      "start": 19.7264,
      "duration": 0.017,
      "velocity": 94,
      "chip": "ym2612"
    },
    {
      "channel": 1,
      "note": 54,
      "start": 19.7646,
      "duration": 0.0253,
      "velocity": 91,
      "chip": "ym2612"
    },
    {
      "channel": 1,
      "note": 54,
      "start": 19.8907,
      "duration": 0.018,
      "velocity": 91,
      "chip": "ym2612"
    },
    {
      "channel": 2,
      "note": 85,
      "start": 19.8914,
      "duration": 0.0175,
      "velocity": 94,
      "chip": "ym2612"
    },
    {
      "channel": 3,
      "note": 81,
      "start": 19.8922,
      "duration": 0.017,
      "velocity": 94,
      "chip": "ym2612"
    },
    {
      "channel": 1,
      "note": 54,
      "start": 19.9233,
      "duration": 0.0179,
      "velocity": 91,
      "chip": "ym2612"
    },
    {
      "channel": 2,
      "note": 85,
      "start": 19.924,
      "duration": 0.0176,
      "velocity": 94,
      "chip": "ym2612"
    },
    {
      "channel": 3,
      "note": 81,
      "start": 19.9248,
      "duration": 0.017,
      "velocity": 94,
      "chip": "ym2612"
    },
    {
      "channel": 1,
      "note": 54,
      "start": 19.9558,
      "duration": 0.0093,
      "velocity": 91,
      "chip": "ym2612"
    },
    {
      "channel": 2,
      "note": 85,
      "start": 19.9565,
      "duration": 0.0177,
      "velocity": 94,
      "chip": "ym2612"
    },
    {
      "channel": 3,
      "note": 81,
      "start": 19.9573,
      "duration": 0.0172,
      "velocity": 94,
      "chip": "ym2612"
    },
    {
      "channel": 1,
      "note": 54,
      "start": 19.974,
      "duration": 0.008,
      "velocity": 91,
      "chip": "ym2612"
    },
    {
      "channel": 1,
      "note": 54,
      "start": 19.9894,
      "duration": 0.0083,
      "velocity": 91,
      "chip": "ym2612"
    },
    {
      "channel": 2,
      "note": 85,
      "start": 19.9901,
      "duration": 0.0154,
      "velocity": 94,
      "chip": "ym2612"
    },
    {
      "channel": 3,
      "note": 81,
      "start": 19.9909,
      "duration": 0.015,
      "velocity": 94,
      "chip": "ym2612"
    },
    {
      "channel": 1,
      "note": 66,
      "start": 20.0054,
      "duration": 0.0065,
      "velocity": 91,
      "chip": "ym2612"
    },
    {
      "channel": 1,
      "note": 64,
      "start": 20.0186,
      "duration": 0.07,
      "velocity": 91,
      "chip": "ym2612"
    },
    {
      "channel": 1,
      "note": 66,
      "start": 20.0892,
      "duration": 0.0994,
      "velocity": 91,
      "chip": "ym2612"
    },
    {
      "channel": 1,
      "note": 59,
      "start": 20.1892,
      "duration": 0.0994,
      "velocity": 91,
      "chip": "ym2612"
    },
    {
      "channel": 1,
      "note": 61,
      "start": 20.2892,
      "duration": 0.0994,
      "velocity": 91,
      "chip": "ym2612"
    },
    {
      "channel": 1,
      "note": 54,
      "start": 20.3892,
      "duration": 0.0494,
      "velocity": 91,
      "chip": "ym2612"
    },
    {
      "channel": 1,
      "note": 54,
      "start": 20.4892,
      "duration": 0.0494,
      "velocity": 91,
      "chip": "ym2612"
    },
    {
      "channel": 1,
      "note": 54,
      "start": 20.5919,
      "duration": 0.1237,
      "velocity": 91,
      "chip": "ym2612"
    },
    {
      "channel": 2,
      "note": 78,
      "start": 20.5948,
      "duration": 0.1873,
      "velocity": 92,
      "chip": "ym2612"
    },
    {
      "channel": 3,
      "note": 73,
      "start": 20.5976,
      "duration": 0.1847,
      "velocity": 92,
      "chip": "ym2612"
    },
    {
      "channel": 0,
      "note": 102,
      "start": 20.7154,
      "duration": 20.4675,
      "velocity": 73,
      "chip": "ym2612"
    },
    {
      "channel": 1,
      "note": 64,
      "start": 20.7161,
      "duration": 0.0989,
      "velocity": 91,
      "chip": "ym2612"
    },
    {
      "channel": 1,
      "note": 66,
      "start": 20.8156,
      "duration": 0.0997,
      "velocity": 91,
      "chip": "ym2612"
    },
    {
      "channel": 1,
      "note": 54,
      "start": 20.916,
      "duration": 0.0107,
      "velocity": 91,
      "chip": "ym2612"
    },
    {
      "channel": 2,
      "note": 76,
      "start": 20.9167,
      "duration": 0.0654,
      "velocity": 92,
      "chip": "ym2612"
    },
    {
      "channel": 3,
      "note": 73,
      "start": 20.9175,
      "duration": 0.0649,
      "velocity": 92,
      "chip": "ym2612"
    },
    {
      "channel": 4,
      "note": 102,
      "start": 20.9282,
      "duration": 20.2546,
      "velocity": 73,
      "chip": "ym2612"
    },
    {
      "channel": 1,
      "note": 54,
      "start": 20.9479,
      "duration": 0.0175,
      "velocity": 91,
      "chip": "ym2612"
    },
    {
      "channel": 1,
      "note": 54,
      "start": 21.0159,
      "duration": 0.0494,
      "velocity": 91,
      "chip": "ym2612"
    },
    {
      "channel": 1,
      "note": 53,
      "start": 21.1163,
      "duration": 20.0666,
      "velocity": 91,
      "chip": "ym2612"
    }
  ]
}