{
  "track_name": "17 - Fiddler's Green (Sailor's Bar)",
  "duration_sec": 35.91,
  "sample_rate": 44100,
  "note_count": 684,
  "unique_pitches": 45,
  "pitch_range": 65,
  "avg_note_duration": 0.173,
  "reconstruction_stats": {
    "notes_reconstructed": 684,
    "keyon_events": 684,
    "keyoff_events": 680,
    "orphan_keyons": 4,
    "unique_pitches": 45,
    "pitch_range": 65,
    "avg_duration_sec": 0.173
  },
  "metadata": {
    "source": "D\\Daikoukai Jidai II\\17 - Fiddler's Green (Sailor's Bar).vgz"
  },
  "notes": [
    {
      "channel": 0,
      "note": 80,
      "start": 0.0076,
      "duration": 0.1203,
      "velocity": 99,
      "chip": "ym2612"
    },
    {
      "channel": 4,
      "note": 68,
      "start": 0.0129,
      "duration": 0.1151,
      "velocity": 79,
      "chip": "ym2612"
    },
    {
      "channel": 5,
      "note": 68,
      "start": 0.0148,
      "duration": 0.2698,
      "velocity": 120,
      "chip": "ym2612"
    },
    {
      "channel": 1,
      "note": 80,
      "start": 0.0153,
      "duration": 0.1155,
      "velocity": 99,
      "chip": "ym2612"
    },
    {
      "channel": 2,
      "note": 80,
      "start": 0.0268,
      "duration": 0.1272,
      "velocity": 99,
      "chip": "ym2612"
    },
    {
      "channel": 0,
      "note": 84,
      "start": 0.1369,
      "duration": 0.1214,
      "velocity": 99,
      "chip": "ym2612"
    },
    {
      "channel": 4,
      "note": 72,
      "start": 0.1374,
      "duration": 0.121,
      "velocity": 79,
      "chip": "ym2612"
    },
    {
      "channel": 1,
      "note": 84,
      "start": 0.1427,
      "duration": 0.1214,
      "velocity": 99,
      "chip": "ym2612"
    },
    {
      "channel": 2,
      "note": 84,
      "start": 0.1602,
      "duration": 0.1213,
      "velocity": 99,
      "chip": "ym2612"
    },
    {
      "channel": 0,
      "note": 85,
      "start": 0.2588,
      "duration": 0.1212,
      "velocity": 99,
      "chip": "ym2612"
    },
    {
      "channel": 4,
      "note": 73,
      "start": 0.2593,
      "duration": 0.1208,
      "velocity": 79,
      "chip": "ym2612"
    },
    {
      "channel": 1,
      "note": 85,
      "start": 0.2648,
      "duration": 0.121,
      "velocity": 99,
      "chip": "ym2612"
    },
    {
      "channel": 2,
      "note": 85,
      "start": 0.2819,
      "duration": 0.1271,
      "velocity": 99,
      "chip": "ym2612"
    },
    {
      "channel": 5,
      "note": 68,
      "start": 0.2992,
      "duration": 0.0634,
      "velocity": 120,
      "chip": "ym2612"
    },
    {
      "channel": 0,
      "note": 87,
      "start": 0.3924,
      "duration": 0.1267,
      "velocity": 99,
      "chip": "ym2612"
    },
    {
      "channel": 4,
      "note": 75,
      "start": 0.3929,
      "duration": 0.1263,
      "velocity": 79,
      "chip": "ym2612"
    },
    {
      "channel": 1,
      "note": 87,
      "start": 0.3977,
      "duration": 0.1272,
      "velocity": 99,
      "chip": "ym2612"
    },
    {
      "channel": 2,
      "note": 87,
      "start": 0.4151,
      "duration": 0.133,
      "velocity": 99,
      "chip": "ym2612"
    },
    {
      "channel": 5,
      "note": 68,
      "start": 0.4731,
      "duration": 0.0808,
      "velocity": 120,
      "chip": "ym2612"
    },
    {
      "channel": 0,
      "note": 88,
      "start": 0.5254,
      "duration": 0.1908,
      "velocity": 99,
      "chip": "ym2612"
    },
    {
      "channel": 4,
      "note": 76,
      "start": 0.5258,
      "duration": 0.1324,
      "velocity": 79,
      "chip": "ym2612"
    },
    {
      "channel": 1,
      "note": 88,
      "start": 0.531,
      "duration": 0.1909,
      "velocity": 99,
      "chip": "ym2612"
    },
    {
      "channel": 2,
      "note": 88,
      "start": 0.5485,
      "duration": 0.4517,
      "velocity": 99,
      "chip": "ym2612"
    },
    {
      "channel": 5,
      "note": 68,
      "start": 0.5601,
      "duration": 0.2604,
      "velocity": 120,
      "chip": "ym2612"
    },
    {
      "channel": 5,
      "note": 68,
      "start": 0.8383,
      "duration": 0.0634,
      "velocity": 120,
      "chip": "ym2612"
    },
    {
      "channel": 0,
      "note": 80,
      "start": 0.9773,
      "duration": 0.1272,
      "velocity": 99,
      "chip": "ym2612"
    },
    {
      "channel": 4,
      "note": 68,
      "start": 0.9778,
      "duration": 0.1268,
      "velocity": 79,
      "chip": "ym2612"
    },
    {
      "channel": 1,
      "note": 80,
      "start": 0.9831,
      "duration": 0.1272,
      "velocity": 99,
      "chip": "ym2612"
    },
    {
      "channel": 2,
      "note": 80,
      "start": 1.0006,
      "duration": 0.1387,
      "velocity": 99,
      "chip": "ym2612"
    },
    {
      "channel": 5,
      "note": 68,
      "start": 1.047,
      "duration": 0.0577,
      "velocity": 120,
      "chip": "ym2612"
    },
    {
      "channel": 0,
      "note": 82,
      "start": 1.1164,
      "duration": 0.2199,
      "velocity": 99,
      "chip": "ym2612"
    },
    {
      "channel": 4,
      "note": 70,
      "start": 1.1169,
      "duration": 0.2431,
      "velocity": 79,
      "chip": "ym2612"
    },
    {
      "channel": 5,
      "note": 68,
      "start": 1.1175,
      "duration": 0.2594,
      "velocity": 120,
      "chip": "ym2612"
    },
    {
      "channel": 1,
      "note": 82,
      "start": 1.1222,
      "duration": 0.2199,
      "velocity": 99,
      "chip": "ym2612"
    },
    {
      "channel": 2,
      "note": 82,
      "start": 1.1397,
      "duration": 0.243,
      "velocity": 99,
      "chip": "ym2612"
    },
    {
      "channel": 0,
      "note": 87,
      "start": 1.3599,
      "duration": 0.1678,
      "velocity": 99,
      "chip": "ym2612"
    },
    {
      "channel": 4,
      "note": 75,
      "start": 1.3604,
      "duration": 0.15,
      "velocity": 79,
      "chip": "ym2612"
    },
    {
      "channel": 1,
      "note": 87,
      "start": 1.3657,
      "duration": 0.1678,
      "velocity": 99,
      "chip": "ym2612"
    },
    {
      "channel": 2,
      "note": 87,
      "start": 1.3832,
      "duration": 0.1681,
      "velocity": 99,
      "chip": "ym2612"
    },
    {
      "channel": 5,
      "note": 68,
      "start": 1.3949,
      "duration": 0.0515,
      "velocity": 120,
      "chip": "ym2612"
    },
    {
      "channel": 0,
      "note": 84,
      "start": 1.528,
      "duration": 0.1272,
      "velocity": 99,
      "chip": "ym2612"
    },
    {
      "channel": 4,
      "note": 72,
      "start": 1.5285,
      "duration": 0.1035,
      "velocity": 79,
      "chip": "ym2612"
    },
    {
      "channel": 1,
      "note": 84,
      "start": 1.5338,
      "duration": 0.1271,
      "velocity": 99,
      "chip": "ym2612"
    },
    {
      "channel": 2,
      "note": 84,
      "start": 1.5518,
      "duration": 0.7003,
      "velocity": 99,
      "chip": "ym2612"
    },
    {
      "channel": 5,
      "note": 68,
      "start": 1.5859,
      "duration": 0.0692,
      "velocity": 120,
      "chip": "ym2612"
    },
    {
      "channel": 5,
      "note": 68,
      "start": 1.6729,
      "duration": 0.2431,
      "velocity": 120,
      "chip": "ym2612"
    },
    {
      "channel": 5,
      "note": 68,
      "start": 1.9395,
      "duration": 0.0634,
      "velocity": 120,
      "chip": "ym2612"
    },
    {
      "channel": 5,
      "note": 68,
      "start": 2.1482,
      "duration": 0.0577,
      "velocity": 120,
      "chip": "ym2612"
    },
    {
      "channel": 5,
      "note": 68,
      "start": 2.2177,
      "duration": 0.2606,
      "velocity": 120,
      "chip": "ym2612"
    },
    {
      "channel": 0,
      "note": 84,
      "start": 2.3568,
      "duration": 0.1214,
      "velocity": 99,
      "chip": "ym2612"
    },
    {
      "channel": 1,
      "note": 84,
      "start": 2.3626,
      "duration": 0.1214,
      "velocity": 99,
      "chip": "ym2612"
    },
    {
      "channel": 4,
      "note": 72,
      "start": 2.3684,
      "duration": 0.1214,
      "velocity": 79,
      "chip": "ym2612"
    },
    {
      "channel": 2,
      "note": 84,
      "start": 2.38,
      "duration": 0.1272,
      "velocity": 99,
      "chip": "ym2612"
    },
    {
      "channel": 0,
      "note": 85,
      "start": 2.4846,
      "duration": 0.121,
      "velocity": 99,
      "chip": "ym2612"
    },
    {
      "channel": 1,
      "note": 85,
      "start": 2.4902,
      "duration": 0.1213,
      "velocity": 99,
      "chip": "ym2612"
    },
    {
      "channel": 4,
      "note": 73,
      "start": 2.4906,
      "duration": 0.1151,
      "velocity": 79,
      "chip": "ym2612"
    },
    {
      "channel": 5,
      "note": 68,
      "start": 2.4959,
      "duration": 0.0634,
      "velocity": 120,
      "chip": "ym2612"
    },
    {
      "channel": 2,
      "note": 85,
      "start": 2.5076,
      "duration": 0.1271,
      "velocity": 99,
      "chip": "ym2612"
    },
    {
      "channel": 0,
      "note": 87,
      "start": 2.6119,
      "duration": 0.1155,
      "velocity": 99,
      "chip": "ym2612"
    },
    {
      "channel": 1,
      "note": 87,
      "start": 2.6176,
      "duration": 0.1156,
      "velocity": 99,
      "chip": "ym2612"
    },
    {
      "channel": 4,
      "note": 75,
      "start": 2.6293,
      "duration": 0.1155,
      "velocity": 79,
      "chip": "ym2612"
    },
    {
      "channel": 2,
      "note": 87,
      "start": 2.6351,
      "duration": 0.1387,
      "velocity": 99,
      "chip": "ym2612"
    },
    {
      "channel": 5,
      "note": 68,
      "start": 2.6872,
      "duration": 0.075,
      "velocity": 120,
      "chip": "ym2612"
    },
    {
      "channel": 0,
      "note": 88,
      "start": 2.7509,
      "duration": 0.1914,
      "velocity": 99,
      "chip": "ym2612"
    },
    {
      "channel": 1,
      "note": 88,
      "start": 2.7567,
      "duration": 0.1909,
      "velocity": 99,
      "chip": "ym2612"
    },
    {
      "channel": 4,
      "note": 76,
      "start": 2.7683,
      "duration": 0.1214,
      "velocity": 79,
      "chip": "ym2612"
    },
    {
      "channel": 2,
      "note": 88,
      "start": 2.7744,
      "duration": 0.4514,
      "velocity": 99,
      "chip": "ym2612"
    },
    {
      "channel": 5,
      "note": 68,
      "start": 2.7749,
      "duration": 0.2597,
      "velocity": 120,
      "chip": "ym2612"
    },
    {
      "channel": 5,
      "note": 68,
      "start": 3.0523,
      "duration": 0.0634,
      "velocity": 120,
      "chip": "ym2612"
    },
    {
      "channel": 0,
      "note": 80,
      "start": 3.203,
      "duration": 0.1156,
      "velocity": 99,
      "chip": "ym2612"
    },
    {
      "channel": 4,
      "note": 68,
      "start": 3.2034,
      "duration": 0.1267,
      "velocity": 79,
      "chip": "ym2612"
    },
    {
      "channel": 1,
      "note": 80,
      "start": 3.2088,
      "duration": 0.1157,
      "velocity": 99,
      "chip": "ym2612"
    },
    {
      "channel": 2,
      "note": 80,
      "start": 3.2263,
      "duration": 0.1388,
      "velocity": 99,
      "chip": "ym2612"
    },
    {
      "channel": 5,
      "note": 68,
      "start": 3.2436,
      "duration": 0.0751,
      "velocity": 120,
      "chip": "ym2612"
    },
    {
      "channel": 5,
      "note": 68,
      "start": 3.3306,
      "duration": 0.2603,
      "velocity": 120,
      "chip": "ym2612"
    },
    {
      "channel": 0,
      "note": 82,
      "start": 3.3421,
      "duration": 0.2431,
      "velocity": 99,
      "chip": "ym2612"
    },
    {
      "channel": 4,
      "note": 70,
      "start": 3.3426,
      "duration": 0.2485,
      "velocity": 79,
      "chip": "ym2612"
    },
    {
      "channel": 1,
      "note": 82,
      "start": 3.3479,
      "duration": 0.2433,
      "velocity": 99,
      "chip": "ym2612"
    },
    {
      "channel": 2,
      "note": 82,
      "start": 3.3655,
      "duration": 0.2776,
      "velocity": 99,
      "chip": "ym2612"
    },
    {
      "channel": 5,
      "note": 68,
      "start": 3.6088,
      "duration": 0.0634,
      "velocity": 120,
      "chip": "ym2612"
    },
    {
      "channel": 0,
      "note": 87,
      "start": 3.6203,
      "duration": 0.1272,
      "velocity": 99,
      "chip": "ym2612"
    },
    {
      "channel": 4,
      "note": 75,
      "start": 3.6208,
      "duration": 0.1268,
      "velocity": 79,
      "chip": "ym2612"
    },
    {
      "channel": 1,
      "note": 87,
      "start": 3.6261,
      "duration": 0.1272,
      "velocity": 99,
      "chip": "ym2612"
    },
    {
      "channel": 2,
      "note": 87,
      "start": 3.6436,
      "duration": 0.1387,
      "velocity": 99,
      "chip": "ym2612"
    },
    {
      "channel": 0,
      "note": 85,
      "start": 3.7594,
      "duration": 0.1272,
      "velocity": 99,
      "chip": "ym2612"
    },
    {
      "channel": 4,
      "note": 73,
      "start": 3.7599,
      "duration": 0.1268,
      "velocity": 79,
      "chip": "ym2612"
    },
    {
      "channel": 1,
      "note": 85,
      "start": 3.7652,
      "duration": 0.1272,
      "velocity": 99,
      "chip": "ym2612"
    },
    {
      "channel": 2,
      "note": 85,
      "start": 3.7827,
      "duration": 0.1387,
      "velocity": 99,
      "chip": "ym2612"
    },
    {
      "channel": 5,
      "note": 68,
      "start": 3.7945,
      "duration": 0.0752,
      "velocity": 120,
      "chip": "ym2612"
    },
    {
      "channel": 5,
      "note": 68,
      "start": 3.8871,
      "duration": 0.2313,
      "velocity": 120,
      "chip": "ym2612"
    },
    {
      "channel": 0,
      "note": 84,
      "start": 3.8985,
      "duration": 0.1214,
      "velocity": 99,
      "chip": "ym2612"
    },
    {
      "channel": 4,
      "note": 72,
      "start": 3.899,
      "duration": 0.121,
      "velocity": 79,
      "chip": "ym2612"
    },
    {
      "channel": 1,
      "note": 84,
      "start": 3.9046,
      "duration": 0.1211,
      "velocity": 99,
      "chip": "ym2612"
    },
    {
      "channel": 2,
      "note": 84,
      "start": 3.9218,
      "duration": 0.1388,
      "velocity": 99,
      "chip": "ym2612"
    },
    {
      "channel": 0,
      "note": 82,
      "start": 4.0376,
      "duration": 0.1214,
      "velocity": 99,
      "chip": "ym2612"
    },
    {
      "channel": 4,
      "note": 70,
      "start": 4.0381,
      "duration": 0.121,
      "velocity": 79,
      "chip": "ym2612"
    },
    {
      "channel": 1,
      "note": 82,
      "start": 4.0434,
      "duration": 0.1214,
      "velocity": 99,
      "chip": "ym2612"
    },
    {
      "channel": 2,
      "note": 82,
      "start": 4.061,
      "duration": 0.1386,
      "velocity": 99,
      "chip": "ym2612"
    },
    {
      "channel": 5,
      "note": 68,
      "start": 4.142,
      "duration": 0.0576,
      "velocity": 120,
      "chip": "ym2612"
    },
    {
      "channel": 0,
      "note": 84,
      "start": 4.1767,
      "duration": 0.1214,
      "velocity": 99,
      "chip": "ym2612"
    },
    {
      "channel": 4,
      "note": 72,
      "start": 4.1772,
      "duration": 0.121,
      "velocity": 79,
      "chip": "ym2612"
    },
    {
      "channel": 1,
      "note": 84,
      "start": 4.1825,
      "duration": 0.1214,
      "velocity": 99,
      "chip": "ym2612"
    },
    {
      "channel": 2,
      "note": 84,
      "start": 4.2001,
      "duration": 0.1385,
      "velocity": 99,
      "chip": "ym2612"
    },
    {
      "channel": 0,
      "note": 83,
      "start": 4.3158,
      "duration": 0.3474,
      "velocity": 99,
      "chip": "ym2612"
    },
    {
      "channel": 4,
      "note": 71,
      "start": 4.3163,
      "duration": 0.1392,
      "velocity": 98,
      "chip": "ym2612"
    },
    {
      "channel": 1,
      "note": 83,
      "start": 4.3216,
      "duration": 0.3474,
      "velocity": 99,
      "chip": "ym2612"
    },
    {
      "channel": 5,
      "note": 68,
      "start": 4.3275,
      "duration": 0.0344,
      "velocity": 120,
      "chip": "ym2612"
    },
    {
      "channel": 2,
      "note": 83,
      "start": 4.3391,
      "duration": 0.3705,
      "velocity": 99,
      "chip": "ym2612"
    },
    {
      "channel": 5,
      "note": 68,
      "start": 4.4146,
      "duration": 0.2199,
      "velocity": 120,
      "chip": "ym2612"
    },
    {
      "channel": 4,
      "note": 47,
      "start": 4.4559,
      "duration": 0.1146,
      "velocity": 98,
      "chip": "ym2612"
    },
    {
      "channel": 0,
      "note": 85,
      "start": 4.6868,
      "duration": 0.1156,
      "velocity": 99,
      "chip": "ym2612"
    },
    {
      "channel": 1,
      "note": 85,
      "start": 4.6926,
      "duration": 0.1156,
      "velocity": 99,
      "chip": "ym2612"
    },
    {
      "channel": 2,
      "note": 85,
      "start": 4.7101,
      "duration": 0.2779,
      "velocity": 99,
      "chip": "ym2612"
    },
    {
      "channel": 5,
      "note": 68,
      "start": 4.7216,
      "duration": 0.0866,
      "velocity": 120,
      "chip": "ym2612"
    },
    {
      "channel": 4,
      "note": 47,
      "start": 4.7332,
      "duration": 0.1155,
      "velocity": 98,
      "chip": "ym2612"
    },
    {
      "channel": 0,
      "note": 88,
      "start": 4.965,
      "duration": 0.1214,
      "velocity": 99,
      "chip": "ym2612"
    },
    {
      "channel": 1,
      "note": 88,
      "start": 4.9708,
      "duration": 0.1214,
      "velocity": 99,
      "chip": "ym2612"
    },
    {
      "channel": 2,
      "note": 88,
      "start": 4.9884,
      "duration": 0.2951,
      "velocity": 99,
      "chip": "ym2612"
    },
    {
      "channel": 5,
      "note": 68,
      "start": 4.9998,
      "duration": 0.1039,
      "velocity": 120,
      "chip": "ym2612"
    },
    {
      "channel": 4,
      "note": 45,
      "start": 5.0114,
      "duration": 0.1155,
      "velocity": 98,
      "chip": "ym2612"
    },
    {
      "channel": 0,
      "note": 90,
      "start": 5.2606,
      "duration": 0.1329,
      "velocity": 99,
      "chip": "ym2612"
    },
    {
      "channel": 1,
      "note": 90,
      "start": 5.2664,
      "duration": 0.133,
      "velocity": 99,
      "chip": "ym2612"
    },
    {
      "channel": 5,
      "note": 68,
      "start": 5.278,
      "duration": 0.1387,
      "velocity": 120,
      "chip": "ym2612"
    },
    {
      "channel": 2,
      "note": 90,
      "start": 5.2839,
      "duration": 0.3068,
      "velocity": 99,
      "chip": "ym2612"
    },
    {
      "channel": 4,
      "note": 45,
      "start": 5.2896,
      "duration": 0.1155,
      "velocity": 98,
      "chip": "ym2612"
    },
    {
      "channel": 5,
      "note": 68,
      "start": 5.5562,
      "duration": 0.0924,
      "velocity": 120,
      "chip": "ym2612"
    },
    {
      "channel": 0,
      "note": 92,
      "start": 5.5678,
      "duration": 0.1157,
      "velocity": 99,
      "chip": "ym2612"
    },
    {
      "channel": 4,
      "note": 44,
      "start": 5.5683,
      "duration": 0.1153,
      "velocity": 98,
      "chip": "ym2612"
    },
    {
      "channel": 1,
      "note": 92,
      "start": 5.5736,
      "duration": 0.1156,
      "velocity": 99,
      "chip": "ym2612"
    },
    {
      "channel": 2,
      "note": 92,
      "start": 5.5911,
      "duration": 0.1329,
      "velocity": 99,
      "chip": "ym2612"
    },
    {
      "channel": 0,
      "note": 95,
      "start": 5.7011,
      "duration": 0.162,
      "velocity": 99,
      "chip": "ym2612"
    },
    {
      "channel": 1,
      "note": 95,
      "start": 5.7069,
      "duration": 0.162,
      "velocity": 99,
      "chip": "ym2612"
    },
    {
      "channel": 2,
      "note": 95,
      "start": 5.7246,
      "duration": 0.2833,
      "velocity": 99,
      "chip": "ym2612"
    },
    {
      "channel": 5,
      "note": 68,
      "start": 5.8348,
      "duration": 0.15,
      "velocity": 120,
      "chip": "ym2612"
    },
    {
      "channel": 4,
      "note": 44,
      "start": 5.846,
      "duration": 0.1155,
      "velocity": 98,
      "chip": "ym2612"
    },
    {
      "channel": 0,
      "note": 97,
      "start": 5.9852,
      "duration": 0.1155,
      "velocity": 99,
      "chip": "ym2612"
    },
    {
      "channel": 1,
      "note": 97,
      "start": 5.9909,
      "duration": 0.1156,
      "velocity": 99,
      "chip": "ym2612"
    },
    {
      "channel": 2,
      "note": 97,
      "start": 6.0084,
      "duration": 0.2951,
      "velocity": 99,
      "chip": "ym2612"
    },
    {
      "channel": 5,
      "note": 68,
      "start": 6.1126,
      "duration": 0.1213,
      "velocity": 120,
      "chip": "ym2612"
    },
    {
      "channel": 4,
      "note": 37,
      "start": 6.1245,
      "duration": 0.1153,
      "velocity": 98,
      "chip": "ym2612"
    },
    {
      "channel": 0,
      "note": 100,
      "start": 6.2807,
      "duration": 0.0866,
      "velocity": 99,
      "chip": "ym2612"
    },
    {
      "channel": 1,
      "note": 100,
      "start": 6.2865,
      "duration": 0.0866,
      "velocity": 99,
      "chip": "ym2612"
    },
    {
      "channel": 2,
      "note": 100,
      "start": 6.3039,
      "duration": 0.2662,
      "velocity": 99,
      "chip": "ym2612"
    },
    {
      "channel": 5,
      "note": 68,
      "start": 6.3908,
      "duration": 0.1387,
      "velocity": 120,
      "chip": "ym2612"
    },
    {
      "channel": 4,
      "note": 37,
      "start": 6.4024,
      "duration": 0.1155,
      "velocity": 98,
      "chip": "ym2612"
    },
    {
      "channel": 0,
      "note": 91,
      "start": 6.5473,
      "duration": 0.3766,
      "velocity": 99,
      "chip": "ym2612"
    },
    {
      "channel": 1,
      "note": 91,
      "start": 6.5531,
      "duration": 0.3764,
      "velocity": 99,
      "chip": "ym2612"
    },
    {
      "channel": 2,
      "note": 91,
      "start": 6.5707,
      "duration": 0.411,
      "velocity": 99,
      "chip": "ym2612"
    },
    {
      "channel": 5,
      "note": 68,
      "start": 6.669,
      "duration": 0.1213,
      "velocity": 120,
      "chip": "ym2612"
    },
    {
      "channel": 4,
      "note": 42,
      "start": 6.6807,
      "duration": 0.1155,
      "velocity": 98,
      "chip": "ym2612"
    },
    {
      "channel": 5,
      "note": 68,
      "start": 6.9473,
      "duration": 0.1039,
      "velocity": 120,
      "chip": "ym2612"
    },
    {
      "channel": 0,
      "note": 90,
      "start": 6.9588,
      "duration": 0.1388,
      "velocity": 99,
      "chip": "ym2612"
    },
    {
      "channel": 4,
      "note": 42,
      "start": 6.9593,
      "duration": 0.1153,
      "velocity": 98,
      "chip": "ym2612"
    },
    {
      "channel": 1,
      "note": 90,
      "start": 6.9649,
      "duration": 0.1385,
      "velocity": 99,
      "chip": "ym2612"
    },
    {
      "channel": 2,
      "note": 90,
      "start": 6.9821,
      "duration": 0.1387,
      "velocity": 99,
      "chip": "ym2612"
    },
    {
      "channel": 0,
      "note": 88,
      "start": 7.098,
      "duration": 0.1387,
      "velocity": 99,
      "chip": "ym2612"
    },
    {
      "channel": 1,
      "note": 88,
      "start": 7.1038,
      "duration": 0.1387,
      "velocity": 99,
      "chip": "ym2612"
    },
    {
      "channel": 2,
      "note": 88,
      "start": 7.1212,
      "duration": 0.1387,
      "velocity": 99,
      "chip": "ym2612"
    },
    {
      "channel": 5,
      "note": 68,
      "start": 7.2255,
      "duration": 0.1039,
      "velocity": 120,
      "chip": "ym2612"
    },
    {
      "channel": 0,
      "note": 90,
      "start": 7.2371,
      "duration": 0.1213,
      "velocity": 99,
      "chip": "ym2612"
    },
    {
      "channel": 4,
      "note": 35,
      "start": 7.2376,
      "duration": 0.115,
      "velocity": 98,
      "chip": "ym2612"
    },
    {
      "channel": 1,
      "note": 90,
      "start": 7.2429,
      "duration": 0.1215,
      "velocity": 99,
      "chip": "ym2612"
    },
    {
      "channel": 2,
      "note": 90,
      "start": 7.2603,
      "duration": 0.1387,
      "velocity": 99,
      "chip": "ym2612"
    },
    {
      "channel": 0,
      "note": 88,
      "start": 7.3761,
      "duration": 0.1214,
      "velocity": 99,
      "chip": "ym2612"
    },
    {
      "channel": 1,
      "note": 88,
      "start": 7.3819,
      "duration": 0.1214,
      "velocity": 99,
      "chip": "ym2612"
    },
    {
      "channel": 2,
      "note": 88,
      "start": 7.3994,
      "duration": 0.1388,
      "velocity": 99,
      "chip": "ym2612"
    },
    {
      "channel": 5,
      "note": 68,
      "start": 7.5038,
      "duration": 0.1039,
      "velocity": 120,
      "chip": "ym2612"
    },
    {
      "channel": 0,
      "note": 85,
      "start": 7.5152,
      "duration": 0.1214,
      "velocity": 99,
      "chip": "ym2612"
    },
    {
      "channel": 4,
      "note": 35,
      "start": 7.5157,
      "duration": 0.1151,
      "velocity": 98,
      "chip": "ym2612"
    },
    {
      "channel": 1,
      "note": 85,
      "start": 7.521,
      "duration": 0.1214,
      "velocity": 99,
      "chip": "ym2612"
    },
    {
      "channel": 2,
      "note": 85,
      "start": 7.5386,
      "duration": 0.1385,
      "velocity": 99,
      "chip": "ym2612"
    },
    {
      "channel": 0,
      "note": 88,
      "start": 7.6546,
      "duration": 0.1385,
      "velocity": 99,
      "chip": "ym2612"
    },
    {
      "channel": 1,
      "note": 88,
      "start": 7.6601,
      "duration": 0.1388,
      "velocity": 99,
      "chip": "ym2612"
    },
    {
      "channel": 2,
      "note": 88,
      "start": 7.6776,
      "duration": 0.4169,
      "velocity": 99,
      "chip": "ym2612"
    },
    {
      "channel": 5,
      "note": 68,
      "start": 7.7819,
      "duration": 0.1097,
      "velocity": 120,
      "chip": "ym2612"
    },
    {
      "channel": 4,
      "note": 40,
      "start": 7.7936,
      "duration": 0.1154,
      "velocity": 98,
      "chip": "ym2612"
    },
    {
      "channel": 5,
      "note": 68,
      "start": 8.0601,
      "duration": 0.1329,
      "velocity": 120,
      "chip": "ym2612"
    },
    {
      "channel": 4,
      "note": 47,
      "start": 8.0717,
      "duration": 0.1155,
      "velocity": 98,
      "chip": "ym2612"
    },
    {
      "channel": 5,
      "note": 68,
      "start": 8.3383,
      "duration": 0.0344,
      "velocity": 120,
      "chip": "ym2612"
    },
    {
      "channel": 4,
      "note": 52,
      "start": 8.3499,
      "duration": 0.1156,
      "velocity": 98,
      "chip": "ym2612"
    },
    {
      "channel": 5,
      "note": 68,
      "start": 8.4426,
      "duration": 0.0402,
      "velocity": 120,
      "chip": "ym2612"
    },
    {
      "channel": 5,
      "note": 68,
      "start": 8.5295,
      "duration": 0.0518,
      "velocity": 120,
      "chip": "ym2612"
    },
    {
      "channel": 5,
      "note": 68,
      "start": 8.6165,
      "duration": 0.1271,
      "velocity": 120,
      "chip": "ym2612"
    },
    {
      "channel": 0,
      "note": 80,
      "start": 8.9063,
      "duration": 0.1214,
      "velocity": 99,
      "chip": "ym2612"
    },
    {
      "channel": 4,
      "note": 68,
      "start": 8.9076,
      "duration": 0.1202,
      "velocity": 79,
      "chip": "ym2612"
    },
    {
      "channel": 1,
      "note": 80,
      "start": 8.9121,
      "duration": 0.1214,
      "velocity": 99,
      "chip": "ym2612"
    },
    {
      "channel": 5,
      "note": 68,
      "start": 8.9125,
      "duration": 0.26,
      "velocity": 120,
      "chip": "ym2612"
    },
    {
      "channel": 2,
      "note": 80,
      "start": 8.9296,
      "duration": 0.1271,
      "velocity": 99,
      "chip": "ym2612"
    },
    {
      "channel": 0,
      "note": 84,
      "start": 9.0339,
      "duration": 0.1213,
      "velocity": 99,
      "chip": "ym2612"
    },
    {
      "channel": 4,
      "note": 72,
      "start": 9.0346,
      "duration": 0.1207,
      "velocity": 79,
      "chip": "ym2612"
    },
    {
      "channel": 1,
      "note": 84,
      "start": 9.0396,
      "duration": 0.1215,
      "velocity": 99,
      "chip": "ym2612"
    },
    {
      "channel": 2,
      "note": 84,
      "start": 9.0571,
      "duration": 0.1273,
      "velocity": 99,
      "chip": "ym2612"
    },
    {
      "channel": 0,
      "note": 85,
      "start": 9.1615,
      "duration": 0.1212,
      "velocity": 99,
      "chip": "ym2612"
    },
    {
      "channel": 4,
      "note": 73,
      "start": 9.162,
      "duration": 0.1208,
      "velocity": 79,
      "chip": "ym2612"
    },
    {
      "channel": 1,
      "note": 85,
      "start": 9.1671,
      "duration": 0.1214,
      "velocity": 99,
      "chip": "ym2612"
    },
    {
      "channel": 2,
      "note": 85,
      "start": 9.1848,
      "duration": 0.1268,
      "velocity": 99,
      "chip": "ym2612"
    },
    {
      "channel": 5,
      "note": 68,
      "start": 9.1903,
      "duration": 0.0692,
      "velocity": 120,
      "chip": "ym2612"
    },
    {
      "channel": 0,
      "note": 87,
      "start": 9.2889,
      "duration": 0.1387,
      "velocity": 99,
      "chip": "ym2612"
    },
    {
      "channel": 4,
      "note": 75,
      "start": 9.2893,
      "duration": 0.1266,
      "velocity": 79,
      "chip": "ym2612"
    },
    {
      "channel": 1,
      "note": 87,
      "start": 9.2949,
      "duration": 0.139,
      "velocity": 99,
      "chip": "ym2612"
    },
    {
      "channel": 2,
      "note": 87,
      "start": 9.3121,
      "duration": 0.1387,
      "velocity": 99,
      "chip": "ym2612"
    },
    {
      "channel": 5,
      "note": 68,
      "start": 9.3644,
      "duration": 0.0573,
      "velocity": 120,
      "chip": "ym2612"
    },
    {
      "channel": 0,
      "note": 88,
      "start": 9.428,
      "duration": 0.1677,
      "velocity": 99,
      "chip": "ym2612"
    },
    {
      "channel": 4,
      "note": 76,
      "start": 9.4284,
      "duration": 0.1267,
      "velocity": 79,
      "chip": "ym2612"
    },
    {
      "channel": 1,
      "note": 88,
      "start": 9.4345,
      "duration": 0.167,
      "velocity": 99,
      "chip": "ym2612"
    },
    {
      "channel": 2,
      "note": 88,
      "start": 9.4512,
      "duration": 0.4516,
      "velocity": 99,
      "chip": "ym2612"
    },
    {
      "channel": 5,
      "note": 68,
      "start": 9.4517,
      "duration": 0.2657,
      "velocity": 120,
      "chip": "ym2612"
    },
    {
      "channel": 5,
      "note": 68,
      "start": 9.7293,
      "duration": 0.0752,
      "velocity": 120,
      "chip": "ym2612"
    },
    {
      "channel": 0,
      "note": 80,
      "start": 9.88,
      "duration": 0.1272,
      "velocity": 99,
      "chip": "ym2612"
    },
    {
      "channel": 4,
      "note": 68,
      "start": 9.8805,
      "duration": 0.1268,
      "velocity": 79,
      "chip": "ym2612"
    },
    {
      "channel": 1,
      "note": 80,
      "start": 9.8858,
      "duration": 0.1272,
      "velocity": 99,
      "chip": "ym2612"
    },
    {
      "channel": 2,
      "note": 80,
      "start": 9.9033,
      "duration": 0.1387,
      "velocity": 99,
      "chip": "ym2612"
    },
    {
      "channel": 5,
      "note": 68,
      "start": 9.9149,
      "duration": 0.0807,
      "velocity": 120,
      "chip": "ym2612"
    },
    {
      "channel": 5,
      "note": 68,
      "start": 10.0078,
      "duration": 0.2601,
      "velocity": 120,
      "chip": "ym2612"
    },
    {
      "channel": 0,
      "note": 82,
      "start": 10.0191,
      "duration": 0.1967,
      "velocity": 99,
      "chip": "ym2612"
    },
    {
      "channel": 4,
      "note": 70,
      "start": 10.0195,
      "duration": 0.2485,
      "velocity": 79,
      "chip": "ym2612"
    },
    {
      "channel": 1,
      "note": 82,
      "start": 10.0249,
      "duration": 0.1967,
      "velocity": 99,
      "chip": "ym2612"
    },
    {
      "channel": 2,
      "note": 82,
      "start": 10.0424,
      "duration": 0.2546,
      "velocity": 99,
      "chip": "ym2612"
    },
    {
      "channel": 0,
      "note": 87,
      "start": 10.2744,
      "duration": 0.1676,
      "velocity": 99,
      "chip": "ym2612"
    },
    {
      "channel": 4,
      "note": 75,
      "start": 10.2748,
      "duration": 0.167,
      "velocity": 79,
      "chip": "ym2612"
    },
    {
      "channel": 1,
      "note": 87,
      "start": 10.28,
      "duration": 0.1677,
      "velocity": 99,
      "chip": "ym2612"
    },
    {
      "channel": 5,
      "note": 68,
      "start": 10.2857,
      "duration": 0.075,
      "velocity": 120,
      "chip": "ym2612"
    },
    {
      "channel": 2,
      "note": 87,
      "start": 10.2974,
      "duration": 0.1677,
      "velocity": 99,
      "chip": "ym2612"
    },
    {
      "channel": 0,
      "note": 84,
      "start": 10.4424,
      "duration": 0.1386,
      "velocity": 99,
      "chip": "ym2612"
    },
    {
      "channel": 4,
      "note": 72,
      "start": 10.4428,
      "duration": 0.1034,
      "velocity": 79,
      "chip": "ym2612"
    },
    {
      "channel": 1,
      "note": 84,
      "start": 10.448,
      "duration": 0.1387,
      "velocity": 99,
      "chip": "ym2612"
    },
    {
      "channel": 2,
      "note": 84,
      "start": 10.4655,
      "duration": 0.4632,
      "velocity": 99,
      "chip": "ym2612"
    },
    {
      "channel": 5,
      "note": 68,
      "start": 10.477,
      "duration": 0.0808,
      "velocity": 120,
      "chip": "ym2612"
    },
    {
      "channel": 5,
      "note": 68,
      "start": 10.5639,
      "duration": 0.2315,
      "velocity": 120,
      "chip": "ym2612"
    },
    {
      "channel": 5,
      "note": 68,
      "start": 10.8422,
      "duration": 0.0576,
      "velocity": 120,
      "chip": "ym2612"
    },
    {
      "channel": 5,
      "note": 68,
      "start": 11.0276,
      "duration": 0.0868,
      "velocity": 120,
      "chip": "ym2612"
    },
    {
      "channel": 5,
      "note": 68,
      "start": 11.1204,
      "duration": 0.2605,
      "velocity": 120,
      "chip": "ym2612"
    },
    {
      "channel": 0,
      "note": 84,
      "start": 11.2594,
      "duration": 0.1215,
      "velocity": 99,
      "chip": "ym2612"
    },
    {
      "channel": 4,
      "note": 72,
      "start": 11.2599,
      "duration": 0.1211,
      "velocity": 79,
      "chip": "ym2612"
    },
    {
      "channel": 1,
      "note": 84,
      "start": 11.2652,
      "duration": 0.1214,
      "velocity": 99,
      "chip": "ym2612"
    },
    {
      "channel": 2,
      "note": 84,
      "start": 11.2826,
      "duration": 0.1272,
      "velocity": 99,
      "chip": "ym2612"
    },
    {
      "channel": 0,
      "note": 85,
      "start": 11.3871,
      "duration": 0.1213,
      "velocity": 99,
      "chip": "ym2612"
    },
    {
      "channel": 4,
      "note": 73,
      "start": 11.3875,
      "duration": 0.1209,
      "velocity": 79,
      "chip": "ym2612"
    },
    {
      "channel": 1,
      "note": 85,
      "start": 11.3927,
      "duration": 0.1216,
      "velocity": 99,
      "chip": "ym2612"
    },
    {
      "channel": 5,
      "note": 68,
      "start": 11.3986,
      "duration": 0.0692,
      "velocity": 120,
      "chip": "ym2612"
    },
    {
      "channel": 2,
      "note": 85,
      "start": 11.4102,
      "duration": 0.1271,
      "velocity": 99,
      "chip": "ym2612"
    },
    {
      "channel": 0,
      "note": 87,
      "start": 11.5148,
      "duration": 0.1385,
      "velocity": 99,
      "chip": "ym2612"
    },
    {
      "channel": 4,
      "note": 75,
      "start": 11.5153,
      "duration": 0.138,
      "velocity": 79,
      "chip": "ym2612"
    },
    {
      "channel": 1,
      "note": 87,
      "start": 11.5203,
      "duration": 0.1387,
      "velocity": 99,
      "chip": "ym2612"
    },
    {
      "channel": 2,
      "note": 87,
      "start": 11.5378,
      "duration": 0.1387,
      "velocity": 99,
      "chip": "ym2612"
    },
    {
      "channel": 5,
      "note": 68,
      "start": 11.5841,
      "duration": 0.0808,
      "velocity": 120,
      "chip": "ym2612"
    },
    {
      "channel": 0,
      "note": 88,
      "start": 11.6537,
      "duration": 0.1618,
      "velocity": 99,
      "chip": "ym2612"
    },
    {
      "channel": 4,
      "note": 76,
      "start": 11.6544,
      "duration": 0.1147,
      "velocity": 79,
      "chip": "ym2612"
    },
    {
      "channel": 1,
      "note": 88,
      "start": 11.6594,
      "duration": 0.1619,
      "velocity": 99,
      "chip": "ym2612"
    },
    {
      "channel": 5,
      "note": 68,
      "start": 11.6711,
      "duration": 0.2603,
      "velocity": 120,
      "chip": "ym2612"
    },
    {
      "channel": 2,
      "note": 88,
      "start": 11.6769,
      "duration": 0.4516,
      "velocity": 99,
      "chip": "ym2612"
    },
    {
      "channel": 5,
      "note": 68,
      "start": 11.9492,
      "duration": 0.0692,
      "velocity": 120,
      "chip": "ym2612"
    },
    {
      "channel": 0,
      "note": 80,
      "start": 12.1056,
      "duration": 0.1156,
      "velocity": 99,
      "chip": "ym2612"
    },
    {
      "channel": 4,
      "note": 68,
      "start": 12.1061,
      "duration": 0.0804,
      "velocity": 79,
      "chip": "ym2612"
    },
    {
      "channel": 1,
      "note": 80,
      "start": 12.1115,
      "duration": 0.1156,
      "velocity": 99,
      "chip": "ym2612"
    },
    {
      "channel": 2,
      "note": 80,
      "start": 12.1289,
      "duration": 0.1387,
      "velocity": 99,
      "chip": "ym2612"
    },
    {
      "channel": 5,
      "note": 68,
      "start": 12.1463,
      "duration": 0.0634,
      "velocity": 120,
      "chip": "ym2612"
    },
    {
      "channel": 5,
      "note": 68,
      "start": 12.2332,
      "duration": 0.2604,
      "velocity": 120,
      "chip": "ym2612"
    },
    {
      "channel": 0,
      "note": 82,
      "start": 12.2451,
      "duration": 0.2487,
      "velocity": 99,
      "chip": "ym2612"
    },
    {
      "channel": 4,
      "note": 70,
      "start": 12.2456,
      "duration": 0.2482,
      "velocity": 79,
      "chip": "ym2612"
    },
    {
      "channel": 1,
      "note": 82,
      "start": 12.2506,
      "duration": 0.2489,
      "velocity": 99,
      "chip": "ym2612"
    },
    {
      "channel": 2,
      "note": 82,
      "start": 12.268,
      "duration": 0.2778,
      "velocity": 99,
      "chip": "ym2612"
    },
    {
      "channel": 5,
      "note": 68,
      "start": 12.5114,
      "duration": 0.0692,
      "velocity": 120,
      "chip": "ym2612"
    },
    {
      "channel": 0,
      "note": 87,
      "start": 12.523,
      "duration": 0.1272,
      "velocity": 99,
      "chip": "ym2612"
    },
    {
      "channel": 4,
      "note": 75,
      "start": 12.5234,
      "duration": 0.1268,
      "velocity": 79,
      "chip": "ym2612"
    },
    {
      "channel": 1,
      "note": 87,
      "start": 12.5288,
      "duration": 0.1272,
      "velocity": 99,
      "chip": "ym2612"
    },
    {
      "channel": 2,
      "note": 87,
      "start": 12.5463,
      "duration": 0.1386,
      "velocity": 99,
      "chip": "ym2612"
    },
    {
      "channel": 0,
      "note": 85,
      "start": 12.6621,
      "duration": 0.1272,
      "velocity": 99,
      "chip": "ym2612"
    },
    {
      "channel": 4,
      "note": 73,
      "start": 12.6625,
      "duration": 0.1268,
      "velocity": 79,
      "chip": "ym2612"
    },
    {
      "channel": 1,
      "note": 85,
      "start": 12.6679,
      "duration": 0.1272,
      "velocity": 99,
      "chip": "ym2612"
    },
    {
      "channel": 2,
      "note": 85,
      "start": 12.6854,
      "duration": 0.1387,
      "velocity": 99,
      "chip": "ym2612"
    },
    {
      "channel": 5,
      "note": 68,
      "start": 12.7027,
      "duration": 0.0868,
      "velocity": 120,
      "chip": "ym2612"
    },
    {
      "channel": 5,
      "note": 68,
      "start": 12.79,
      "duration": 0.26,
      "velocity": 120,
      "chip": "ym2612"
    },
    {
      "channel": 0,
      "note": 84,
      "start": 12.8012,
      "duration": 0.1214,
      "velocity": 99,
      "chip": "ym2612"
    },
    {
      "channel": 4,
      "note": 72,
      "start": 12.8016,
      "duration": 0.121,
      "velocity": 79,
      "chip": "ym2612"
    },
    {
      "channel": 1,
      "note": 84,
      "start": 12.807,
      "duration": 0.1214,
      "velocity": 99,
      "chip": "ym2612"
    },
    {
      "channel": 2,
      "note": 84,
      "start": 12.8247,
      "duration": 0.1384,
      "velocity": 99,
      "chip": "ym2612"
    },
    {
      "channel": 0,
      "note": 82,
      "start": 12.9403,
      "duration": 0.1214,
      "velocity": 99,
      "chip": "ym2612"
    },
    {
      "channel": 4,
      "note": 70,
      "start": 12.9407,
      "duration": 0.121,
      "velocity": 79,
      "chip": "ym2612"
    },
    {
      "channel": 1,
      "note": 82,
      "start": 12.9461,
      "duration": 0.1214,
      "velocity": 99,
      "chip": "ym2612"
    },
    {
      "channel": 2,
      "note": 82,
      "start": 12.9636,
      "duration": 0.1388,
      "velocity": 99,
      "chip": "ym2612"
    },
    {
      "channel": 5,
      "note": 68,
      "start": 13.0679,
      "duration": 0.2603,
      "velocity": 120,
      "chip": "ym2612"
    },
    {
      "channel": 0,
      "note": 84,
      "start": 13.0794,
      "duration": 0.1214,
      "velocity": 99,
      "chip": "ym2612"
    },
    {
      "channel": 4,
      "note": 72,
      "start": 13.0798,
      "duration": 0.121,
      "velocity": 79,
      "chip": "ym2612"
    },
    {
      "channel": 1,
      "note": 84,
      "start": 13.0852,
      "duration": 0.1214,
      "velocity": 99,
      "chip": "ym2612"
    },
    {
      "channel": 2,
      "note": 84,
      "start": 13.1028,
      "duration": 0.1385,
      "velocity": 99,
      "chip": "ym2612"
    },
    {
      "channel": 0,
      "note": 83,
      "start": 13.2185,
      "duration": 0.3996,
      "velocity": 99,
      "chip": "ym2612"
    },
    {
      "channel": 4,
      "note": 71,
      "start": 13.219,
      "duration": 0.1391,
      "velocity": 98,
      "chip": "ym2612"
    },
    {
      "channel": 1,
      "note": 83,
      "start": 13.2246,
      "duration": 0.3993,
      "velocity": 99,
      "chip": "ym2612"
    },
    {
      "channel": 2,
      "note": 83,
      "start": 13.2418,
      "duration": 0.4169,
      "velocity": 99,
      "chip": "ym2612"
    },
    {
      "channel": 5,
      "note": 68,
      "start": 13.346,
      "duration": 0.046,
      "velocity": 120,
      "chip": "ym2612"
    },
    {
      "channel": 4,
      "note": 47,
      "start": 13.3585,
      "duration": 0.1146,
      "velocity": 98,
      "chip": "ym2612"
    },
    {
      "channel": 5,
      "note": 68,
      "start": 13.6246,
      "duration": 0.1094,
      "velocity": 120,
      "chip": "ym2612"
    },
    {
      "channel": 0,
      "note": 85,
      "start": 13.6358,
      "duration": 0.0866,
      "velocity": 99,
      "chip": "ym2612"
    },
    {
      "channel": 3,
      "note": 80,
      "start": 13.6363,
      "duration": 0.2658,
      "velocity": 109,
      "chip": "ym2612"
    },
    {
      "channel": 4,
      "note": 47,
      "start": 13.6369,
      "duration": 0.1145,
      "velocity": 98,
      "chip": "ym2612"
    },
    {
      "channel": 1,
      "note": 85,
      "start": 13.6416,
      "duration": 0.0866,
      "velocity": 99,
      "chip": "ym2612"
    },
    {
      "channel": 2,
      "note": 85,
      "start": 13.6591,
      "duration": 0.2778,
      "velocity": 99,
      "chip": "ym2612"
    },
    {
      "channel": 5,
      "note": 68,
      "start": 13.9027,
      "duration": 0.0573,
      "velocity": 120,
      "chip": "ym2612"
    },
    {
      "channel": 0,
      "note": 88,
      "start": 13.914,
      "duration": 0.1214,
      "velocity": 99,
      "chip": "ym2612"
    },
    {
      "channel": 3,
      "note": 79,
      "start": 13.9147,
      "duration": 0.2655,
      "velocity": 109,
      "chip": "ym2612"
    },
    {
      "channel": 4,
      "note": 46,
      "start": 13.9153,
      "duration": 0.1144,
      "velocity": 98,
      "chip": "ym2612"
    },
    {
      "channel": 1,
      "note": 88,
      "start": 13.9198,
      "duration": 0.1214,
      "velocity": 99,
      "chip": "ym2612"
    },
    {
      "channel": 2,
      "note": 88,
      "start": 13.9373,
      "duration": 0.2778,
      "velocity": 99,
      "chip": "ym2612"
    },
    {
      "channel": 5,
      "note": 68,
      "start": 14.181,
      "duration": 0.0978,
      "velocity": 120,
      "chip": "ym2612"
    },
    {
      "channel": 0,
      "note": 90,
      "start": 14.1922,
      "duration": 0.1156,
      "velocity": 99,
      "chip": "ym2612"
    },
    {
      "channel": 4,
      "note": 46,
      "start": 14.1927,
      "duration": 0.1151,
      "velocity": 98,
      "chip": "ym2612"
    },
    {
      "channel": 1,
      "note": 90,
      "start": 14.198,
      "duration": 0.1156,
      "velocity": 99,
      "chip": "ym2612"
    },
    {
      "channel": 2,
      "note": 90,
      "start": 14.2155,
      "duration": 0.2779,
      "velocity": 99,
      "chip": "ym2612"
    },
    {
      "channel": 5,
      "note": 68,
      "start": 14.4589,
      "duration": 0.0634,
      "velocity": 120,
      "chip": "ym2612"
    },
    {
      "channel": 0,
      "note": 92,
      "start": 14.4704,
      "duration": 0.1272,
      "velocity": 99,
      "chip": "ym2612"
    },
    {
      "channel": 3,
      "note": 78,
      "start": 14.4709,
      "duration": 0.544,
      "velocity": 109,
      "chip": "ym2612"
    },
    {
      "channel": 4,
      "note": 45,
      "start": 14.4714,
      "duration": 0.1146,
      "velocity": 98,
      "chip": "ym2612"
    },
    {
      "channel": 1,
      "note": 92,
      "start": 14.4762,
      "duration": 0.1271,
      "velocity": 99,
      "chip": "ym2612"
    },
    {
      "channel": 2,
      "note": 92,
      "start": 14.4938,
      "duration": 0.1385,
      "velocity": 99,
      "chip": "ym2612"
    },
    {
      "channel": 0,
      "note": 95,
      "start": 14.6095,
      "duration": 0.133,
      "velocity": 99,
      "chip": "ym2612"
    },
    {
      "channel": 1,
      "note": 95,
      "start": 14.6153,
      "duration": 0.1329,
      "velocity": 99,
      "chip": "ym2612"
    },
    {
      "channel": 2,
      "note": 95,
      "start": 14.6328,
      "duration": 0.2778,
      "velocity": 99,
      "chip": "ym2612"
    },
    {
      "channel": 5,
      "note": 68,
      "start": 14.7371,
      "duration": 0.1039,
      "velocity": 120,
      "chip": "ym2612"
    },
    {
      "channel": 4,
      "note": 45,
      "start": 14.7488,
      "duration": 0.1156,
      "velocity": 98,
      "chip": "ym2612"
    },
    {
      "channel": 0,
      "note": 97,
      "start": 14.8877,
      "duration": 0.133,
      "velocity": 99,
      "chip": "ym2612"
    },
    {
      "channel": 1,
      "note": 97,
      "start": 14.8935,
      "duration": 0.1329,
      "velocity": 99,
      "chip": "ym2612"
    },
    {
      "channel": 2,
      "note": 97,
      "start": 14.911,
      "duration": 0.2779,
      "velocity": 99,
      "chip": "ym2612"
    },
    {
      "channel": 5,
      "note": 68,
      "start": 15.0154,
      "duration": 0.0692,
      "velocity": 120,
      "chip": "ym2612"
    },
    {
      "channel": 3,
      "note": 77,
      "start": 15.027,
      "duration": 0.2777,
      "velocity": 109,
      "chip": "ym2612"
    },
    {
      "channel": 4,
      "note": 44,
      "start": 15.0276,
      "duration": 0.1148,
      "velocity": 98,
      "chip": "ym2612"
    },
    {
      "channel": 0,
      "note": 100,
      "start": 15.1659,
      "duration": 0.0924,
      "velocity": 99,
      "chip": "ym2612"
    },
    {
      "channel": 1,
      "note": 100,
      "start": 15.1717,
      "duration": 0.0926,
      "velocity": 99,
      "chip": "ym2612"
    },
    {
      "channel": 2,
      "note": 100,
      "start": 15.1893,
      "duration": 0.2776,
      "velocity": 99,
      "chip": "ym2612"
    },
    {
      "channel": 5,
      "note": 68,
      "start": 15.2935,
      "duration": 0.0924,
      "velocity": 120,
      "chip": "ym2612"
    },
    {
      "channel": 3,
      "note": 61,
      "start": 15.3052,
      "duration": 0.2777,
      "velocity": 109,
      "chip": "ym2612"
    },
    {
      "channel": 4,
      "note": 37,
      "start": 15.3057,
      "duration": 0.115,
      "velocity": 98,
      "chip": "ym2612"
    },
    {
      "channel": 0,
      "note": 91,
      "start": 15.4444,
      "duration": 0.3935,
      "velocity": 99,
      "chip": "ym2612"
    },
    {
      "channel": 1,
      "note": 91,
      "start": 15.45,
      "duration": 0.3938,
      "velocity": 99,
      "chip": "ym2612"
    },
    {
      "channel": 2,
      "note": 91,
      "start": 15.4674,
      "duration": 0.4171,
      "velocity": 99,
      "chip": "ym2612"
    },
    {
      "channel": 5,
      "note": 68,
      "start": 15.5717,
      "duration": 0.0692,
      "velocity": 120,
      "chip": "ym2612"
    },
    {
      "channel": 3,
      "note": 76,
      "start": 15.5834,
      "duration": 0.5444,
      "velocity": 109,
      "chip": "ym2612"
    },
    {
      "channel": 4,
      "note": 42,
      "start": 15.5839,
      "duration": 0.1149,
      "velocity": 98,
      "chip": "ym2612"
    },
    {
      "channel": 5,
      "note": 68,
      "start": 15.8499,
      "duration": 0.0924,
      "velocity": 120,
      "chip": "ym2612"
    },
    {
      "channel": 0,
      "note": 90,
      "start": 15.8615,
      "duration": 0.1272,
      "velocity": 99,
      "chip": "ym2612"
    },
    {
      "channel": 4,
      "note": 42,
      "start": 15.862,
      "duration": 0.1151,
      "velocity": 98,
      "chip": "ym2612"
    },
    {
      "channel": 1,
      "note": 90,
      "start": 15.8673,
      "duration": 0.1273,
      "velocity": 99,
      "chip": "ym2612"
    },
    {
      "channel": 2,
      "note": 90,
      "start": 15.885,
      "duration": 0.1384,
      "velocity": 99,
      "chip": "ym2612"
    },
    {
      "channel": 0,
      "note": 88,
      "start": 16.0006,
      "duration": 0.1273,
      "velocity": 99,
      "chip": "ym2612"
    },
    {
      "channel": 1,
      "note": 88,
      "start": 16.0064,
      "duration": 0.1272,
      "velocity": 99,
      "chip": "ym2612"
    },
    {
      "channel": 2,
      "note": 88,
      "start": 16.0239,
      "duration": 0.1387,
      "velocity": 99,
      "chip": "ym2612"
    },
    {
      "channel": 5,
      "note": 68,
      "start": 16.1285,
      "duration": 0.0688,
      "velocity": 120,
      "chip": "ym2612"
    },
    {
      "channel": 0,
      "note": 90,
      "start": 16.1397,
      "duration": 0.1214,
      "velocity": 99,
      "chip": "ym2612"
    },
    {
      "channel": 3,
      "note": 75,
      "start": 16.1402,
      "duration": 0.5443,
      "velocity": 109,
      "chip": "ym2612"
    },
    {
      "channel": 4,
      "note": 35,
      "start": 16.1407,
      "duration": 0.1146,
      "velocity": 98,
      "chip": "ym2612"
    },
    {
      "channel": 1,
      "note": 90,
      "start": 16.1455,
      "duration": 0.1214,
      "velocity": 99,
      "chip": "ym2612"
    },
    {
      "channel": 2,
      "note": 90,
      "start": 16.163,
      "duration": 0.1386,
      "velocity": 99,
      "chip": "ym2612"
    },
    {
      "channel": 0,
      "note": 88,
      "start": 16.2788,
      "duration": 0.1214,
      "velocity": 99,
      "chip": "ym2612"
    },
    {
      "channel": 1,
      "note": 88,
      "start": 16.2848,
      "duration": 0.1211,
      "velocity": 99,
      "chip": "ym2612"
    },
    {
      "channel": 2,
      "note": 88,
      "start": 16.3021,
      "duration": 0.1387,
      "velocity": 99,
      "chip": "ym2612"
    },
    {
      "channel": 5,
      "note": 68,
      "start": 16.4064,
      "duration": 0.1096,
      "velocity": 120,
      "chip": "ym2612"
    },
    {
      "channel": 0,
      "note": 85,
      "start": 16.4179,
      "duration": 0.1214,
      "velocity": 99,
      "chip": "ym2612"
    },
    {
      "channel": 4,
      "note": 35,
      "start": 16.4187,
      "duration": 0.1148,
      "velocity": 98,
      "chip": "ym2612"
    },
    {
      "channel": 1,
      "note": 85,
      "start": 16.4237,
      "duration": 0.1214,
      "velocity": 99,
      "chip": "ym2612"
    },
    {
      "channel": 2,
      "note": 85,
      "start": 16.4412,
      "duration": 0.1388,
      "velocity": 99,
      "chip": "ym2612"
    },
    {
      "channel": 0,
      "note": 88,
      "start": 16.557,
      "duration": 0.1274,
      "velocity": 99,
      "chip": "ym2612"
    },
    {
      "channel": 1,
      "note": 88,
      "start": 16.5628,
      "duration": 0.1272,
      "velocity": 99,
      "chip": "ym2612"
    },
    {
      "channel": 2,
      "note": 88,
      "start": 16.5804,
      "duration": 0.4168,
      "velocity": 99,
      "chip": "ym2612"
    },
    {
      "channel": 5,
      "note": 68,
      "start": 16.6851,
      "duration": 0.0918,
      "velocity": 120,
      "chip": "ym2612"
    },
    {
      "channel": 3,
      "note": 76,
      "start": 16.6961,
      "duration": 0.4169,
      "velocity": 109,
      "chip": "ym2612"
    },
    {
      "channel": 4,
      "note": 40,
      "start": 16.6966,
      "duration": 0.1151,
      "velocity": 98,
      "chip": "ym2612"
    },
    {
      "channel": 5,
      "note": 68,
      "start": 16.9627,
      "duration": 0.0866,
      "velocity": 120,
      "chip": "ym2612"
    },
    {
      "channel": 4,
      "note": 47,
      "start": 16.9746,
      "duration": 0.1153,
      "velocity": 98,
      "chip": "ym2612"
    },
    {
      "channel": 3,
      "note": 76,
      "start": 17.1135,
      "duration": 0.5444,
      "velocity": 109,
      "chip": "ym2612"
    },
    {
      "channel": 0,
      "note": 90,
      "start": 17.2177,
      "duration": 0.1562,
      "velocity": 99,
      "chip": "ym2612"
    },
    {
      "channel": 1,
      "note": 90,
      "start": 17.2235,
      "duration": 0.1562,
      "velocity": 99,
      "chip": "ym2612"
    },
    {
      "channel": 2,
      "note": 90,
      "start": 17.2409,
      "duration": 0.1561,
      "velocity": 99,
      "chip": "ym2612"
    },
    {
      "channel": 4,
      "note": 52,
      "start": 17.2526,
      "duration": 0.1155,
      "velocity": 98,
      "chip": "ym2612"
    },
    {
      "channel": 0,
      "note": 91,
      "start": 17.3745,
      "duration": 0.179,
      "velocity": 99,
      "chip": "ym2612"
    },
    {
      "channel": 1,
      "note": 91,
      "start": 17.3801,
      "duration": 0.1793,
      "velocity": 99,
      "chip": "ym2612"
    },
    {
      "channel": 2,
      "note": 91,
      "start": 17.3975,
      "duration": 0.2951,
      "velocity": 99,
      "chip": "ym2612"
    },
    {
      "channel": 0,
      "note": 88,
      "start": 17.6698,
      "duration": 0.5793,
      "velocity": 99,
      "chip": "ym2612"
    },
    {
      "channel": 1,
      "note": 88,
      "start": 17.6756,
      "duration": 0.5792,
      "velocity": 99,
      "chip": "ym2612"
    },
    {
      "channel": 2,
      "note": 88,
      "start": 17.6931,
      "duration": 0.6835,
      "velocity": 99,
      "chip": "ym2612"
    },
    {
      "channel": 5,
      "note": 68,
      "start": 17.7974,
      "duration": 0.2025,
      "velocity": 120,
      "chip": "ym2612"
    },
    {
      "channel": 4,
      "note": 45,
      "start": 17.809,
      "duration": 0.1156,
      "velocity": 98,
      "chip": "ym2612"
    },
    {
      "channel": 5,
      "note": 68,
      "start": 18.0756,
      "duration": 0.0518,
      "velocity": 120,
      "chip": "ym2612"
    },
    {
      "channel": 4,
      "note": 47,
      "start": 18.0872,
      "duration": 0.1156,
      "velocity": 98,
      "chip": "ym2612"
    },
    {
      "channel": 0,
      "note": 90,
      "start": 18.3537,
      "duration": 0.1677,
      "velocity": 99,
      "chip": "ym2612"
    },
    {
      "channel": 5,
      "note": 68,
      "start": 18.3546,
      "duration": 0.0973,
      "velocity": 120,
      "chip": "ym2612"
    },
    {
      "channel": 1,
      "note": 90,
      "start": 18.3595,
      "duration": 0.1677,
      "velocity": 99,
      "chip": "ym2612"
    },
    {
      "channel": 4,
      "note": 48,
      "start": 18.3654,
      "duration": 0.1155,
      "velocity": 98,
      "chip": "ym2612"
    },
    {
      "channel": 2,
      "note": 90,
      "start": 18.377,
      "duration": 0.185,
      "velocity": 99,
      "chip": "ym2612"
    },
    {
      "channel": 0,
      "note": 91,
      "start": 18.5392,
      "duration": 0.1619,
      "velocity": 99,
      "chip": "ym2612"
    },
    {
      "channel": 1,
      "note": 91,
      "start": 18.545,
      "duration": 0.162,
      "velocity": 99,
      "chip": "ym2612"
    },
    {
      "channel": 2,
      "note": 91,
      "start": 18.5625,
      "duration": 0.2778,
      "velocity": 99,
      "chip": "ym2612"
    },
    {
      "channel": 5,
      "note": 68,
      "start": 18.632,
      "duration": 0.0402,
      "velocity": 120,
      "chip": "ym2612"
    },
    {
      "channel": 4,
      "note": 49,
      "start": 18.6436,
      "duration": 0.1155,
      "velocity": 98,
      "chip": "ym2612"
    },
    {
      "channel": 0,
      "note": 93,
      "start": 18.8174,
      "duration": 0.5851,
      "velocity": 99,
      "chip": "ym2612"
    },
    {
      "channel": 1,
      "note": 93,
      "start": 18.8232,
      "duration": 0.5851,
      "velocity": 99,
      "chip": "ym2612"
    },
    {
      "channel": 2,
      "note": 93,
      "start": 18.8407,
      "duration": 0.6894,
      "velocity": 99,
      "chip": "ym2612"
    },
    {
      "channel": 5,
      "note": 68,
      "start": 18.9102,
      "duration": 0.0634,
      "velocity": 120,
      "chip": "ym2612"
    },
    {
      "channel": 4,
      "note": 50,
      "start": 18.9218,
      "duration": 0.1155,
      "velocity": 98,
      "chip": "ym2612"
    },
    {
      "channel": 5,
      "note": 68,
      "start": 19.1884,
      "duration": 0.0981,
      "velocity": 120,
      "chip": "ym2612"
    },
    {
      "channel": 4,
      "note": 45,
      "start": 19.2,
      "duration": 0.1155,
      "velocity": 98,
      "chip": "ym2612"
    },
    {
      "channel": 5,
      "note": 68,
      "start": 19.4666,
      "duration": 0.0634,
      "velocity": 120,
      "chip": "ym2612"
    },
    {
      "channel": 4,
      "note": 38,
      "start": 19.4782,
      "duration": 0.1156,
      "velocity": 98,
      "chip": "ym2612"
    },
    {
      "channel": 0,
      "note": 91,
      "start": 19.5071,
      "duration": 0.162,
      "velocity": 99,
      "chip": "ym2612"
    },
    {
      "channel": 1,
      "note": 91,
      "start": 19.5129,
      "duration": 0.162,
      "velocity": 99,
      "chip": "ym2612"
    },
    {
      "channel": 2,
      "note": 91,
      "start": 19.5305,
      "duration": 0.1617,
      "velocity": 99,
      "chip": "ym2612"
    },
    {
      "channel": 5,
      "note": 68,
      "start": 19.6231,
      "duration": 0.0981,
      "velocity": 120,
      "chip": "ym2612"
    },
    {
      "channel": 0,
      "note": 90,
      "start": 19.6695,
      "duration": 0.1677,
      "velocity": 99,
      "chip": "ym2612"
    },
    {
      "channel": 1,
      "note": 90,
      "start": 19.6753,
      "duration": 0.1676,
      "velocity": 99,
      "chip": "ym2612"
    },
    {
      "channel": 2,
      "note": 90,
      "start": 19.6927,
      "duration": 0.2951,
      "velocity": 99,
      "chip": "ym2612"
    },
    {
      "channel": 4,
      "note": 45,
      "start": 19.7564,
      "duration": 0.1155,
      "velocity": 98,
      "chip": "ym2612"
    },
    {
      "channel": 5,
      "note": 68,
      "start": 19.9013,
      "duration": 0.046,
      "velocity": 120,
      "chip": "ym2612"
    },
    {
      "channel": 0,
      "note": 95,
      "start": 19.965,
      "duration": 1.4081,
      "velocity": 99,
      "chip": "ym2612"
    },
    {
      "channel": 1,
      "note": 95,
      "start": 19.9708,
      "duration": 1.4081,
      "velocity": 99,
      "chip": "ym2612"
    },
    {
      "channel": 2,
      "note": 95,
      "start": 19.9883,
      "duration": 1.7383,
      "velocity": 99,
      "chip": "ym2612"
    },
    {
      "channel": 5,
      "note": 68,
      "start": 20.023,
      "duration": 0.0982,
      "velocity": 120,
      "chip": "ym2612"
    },
    {
      "channel": 4,
      "note": 43,
      "start": 20.0349,
      "duration": 0.1153,
      "velocity": 98,
      "chip": "ym2612"
    },
    {
      "channel": 5,
      "note": 68,
      "start": 20.3012,
      "duration": 0.1098,
      "velocity": 120,
      "chip": "ym2612"
    },
    {
      "channel": 4,
      "note": 45,
      "start": 20.3129,
      "duration": 0.1155,
      "velocity": 98,
      "chip": "ym2612"
    },
    {
      "channel": 5,
      "note": 68,
      "start": 20.5794,
      "duration": 0.1271,
      "velocity": 120,
      "chip": "ym2612"
    },
    {
      "channel": 4,
      "note": 47,
      "start": 20.5911,
      "duration": 0.1156,
      "velocity": 98,
      "chip": "ym2612"
    },
    {
      "channel": 5,
      "note": 68,
      "start": 20.8576,
      "duration": 0.1098,
      "velocity": 120,
      "chip": "ym2612"
    },
    {
      "channel": 4,
      "note": 48,
      "start": 20.8693,
      "duration": 0.1156,
      "velocity": 98,
      "chip": "ym2612"
    },
    {
      "channel": 5,
      "note": 68,
      "start": 21.1359,
      "duration": 0.1098,
      "velocity": 120,
      "chip": "ym2612"
    },
    {
      "channel": 4,
      "note": 50,
      "start": 21.1475,
      "duration": 0.1155,
      "velocity": 98,
      "chip": "ym2612"
    },
    {
      "channel": 5,
      "note": 68,
      "start": 21.4141,
      "duration": 0.075,
      "velocity": 120,
      "chip": "ym2612"
    },
    {
      "channel": 4,
      "note": 52,
      "start": 21.4257,
      "duration": 0.1155,
      "velocity": 98,
      "chip": "ym2612"
    },
    {
      "channel": 5,
      "note": 68,
      "start": 21.5705,
      "duration": 0.0924,
      "velocity": 120,
      "chip": "ym2612"
    },
    {
      "channel": 0,
      "note": 94,
      "start": 21.7038,
      "duration": 0.1793,
      "velocity": 99,
      "chip": "ym2612"
    },
    {
      "channel": 4,
      "note": 54,
      "start": 21.7046,
      "duration": 0.1148,
      "velocity": 98,
      "chip": "ym2612"
    },
    {
      "channel": 1,
      "note": 94,
      "start": 21.7096,
      "duration": 0.1793,
      "velocity": 99,
      "chip": "ym2612"
    },
    {
      "channel": 2,
      "note": 94,
      "start": 21.7271,
      "duration": 0.1793,
      "velocity": 99,
      "chip": "ym2612"
    },
    {
      "channel": 5,
      "note": 68,
      "start": 21.8488,
      "duration": 0.0866,
      "velocity": 120,
      "chip": "ym2612"
    },
    {
      "channel": 0,
      "note": 95,
      "start": 21.8836,
      "duration": 0.1503,
      "velocity": 99,
      "chip": "ym2612"
    },
    {
      "channel": 1,
      "note": 95,
      "start": 21.8894,
      "duration": 0.1503,
      "velocity": 99,
      "chip": "ym2612"
    },
    {
      "channel": 2,
      "note": 95,
      "start": 21.9068,
      "duration": 0.2546,
      "velocity": 99,
      "chip": "ym2612"
    },
    {
      "channel": 5,
      "note": 68,
      "start": 21.9532,
      "duration": 0.0981,
      "velocity": 120,
      "chip": "ym2612"
    },
    {
      "channel": 4,
      "note": 55,
      "start": 21.9821,
      "duration": 0.1155,
      "velocity": 98,
      "chip": "ym2612"
    },
    {
      "channel": 0,
      "note": 92,
      "start": 22.1385,
      "duration": 0.5966,
      "velocity": 99,
      "chip": "ym2612"
    },
    {
      "channel": 1,
      "note": 92,
      "start": 22.1447,
      "duration": 0.5963,
      "velocity": 99,
      "chip": "ym2612"
    },
    {
      "channel": 2,
      "note": 92,
      "start": 22.1618,
      "duration": 0.6835,
      "velocity": 99,
      "chip": "ym2612"
    },
    {
      "channel": 5,
      "note": 68,
      "start": 22.2487,
      "duration": 0.1213,
      "velocity": 120,
      "chip": "ym2612"
    },
    {
      "channel": 4,
      "note": 37,
      "start": 22.2603,
      "duration": 0.1156,
      "velocity": 98,
      "chip": "ym2612"
    },
    {
      "channel": 5,
      "note": 68,
      "start": 22.5269,
      "duration": 0.1098,
      "velocity": 120,
      "chip": "ym2612"
    },
    {
      "channel": 4,
      "note": 39,
      "start": 22.5385,
      "duration": 0.1155,
      "velocity": 98,
      "chip": "ym2612"
    },
    {
      "channel": 5,
      "note": 68,
      "start": 22.8051,
      "duration": 0.1271,
      "velocity": 120,
      "chip": "ym2612"
    },
    {
      "channel": 4,
      "note": 40,
      "start": 22.8167,
      "duration": 0.1156,
      "velocity": 98,
      "chip": "ym2612"
    },
    {
      "channel": 0,
      "note": 94,
      "start": 22.8225,
      "duration": 0.1793,
      "velocity": 99,
      "chip": "ym2612"
    },
    {
      "channel": 1,
      "note": 94,
      "start": 22.8283,
      "duration": 0.1794,
      "velocity": 99,
      "chip": "ym2612"
    },
    {
      "channel": 2,
      "note": 94,
      "start": 22.8457,
      "duration": 0.1792,
      "velocity": 99,
      "chip": "ym2612"
    },
    {
      "channel": 0,
      "note": 95,
      "start": 23.0022,
      "duration": 0.1735,
      "velocity": 99,
      "chip": "ym2612"
    },
    {
      "channel": 1,
      "note": 95,
      "start": 23.008,
      "duration": 0.1735,
      "velocity": 99,
      "chip": "ym2612"
    },
    {
      "channel": 2,
      "note": 95,
      "start": 23.0254,
      "duration": 0.2662,
      "velocity": 99,
      "chip": "ym2612"
    },
    {
      "channel": 5,
      "note": 68,
      "start": 23.0833,
      "duration": 0.1039,
      "velocity": 120,
      "chip": "ym2612"
    },
    {
      "channel": 4,
      "note": 41,
      "start": 23.0949,
      "duration": 0.1155,
      "velocity": 98,
      "chip": "ym2612"
    },
    {
      "channel": 0,
      "note": 97,
      "start": 23.2688,
      "duration": 0.6024,
      "velocity": 99,
      "chip": "ym2612"
    },
    {
      "channel": 1,
      "note": 97,
      "start": 23.2748,
      "duration": 0.6022,
      "velocity": 99,
      "chip": "ym2612"
    },
    {
      "channel": 2,
      "note": 97,
      "start": 23.292,
      "duration": 0.6719,
      "velocity": 99,
      "chip": "ym2612"
    },
    {
      "channel": 5,
      "note": 68,
      "start": 23.3615,
      "duration": 0.0866,
      "velocity": 120,
      "chip": "ym2612"
    },
    {
      "channel": 4,
      "note": 42,
      "start": 23.3732,
      "duration": 0.1155,
      "velocity": 98,
      "chip": "ym2612"
    },
    {
      "channel": 5,
      "note": 68,
      "start": 23.6397,
      "duration": 0.1329,
      "velocity": 120,
      "chip": "ym2612"
    },
    {
      "channel": 4,
      "note": 43,
      "start": 23.6514,
      "duration": 0.1156,
      "velocity": 98,
      "chip": "ym2612"
    },
    {
      "channel": 5,
      "note": 68,
      "start": 23.9179,
      "duration": 0.1218,
      "velocity": 120,
      "chip": "ym2612"
    },
    {
      "channel": 4,
      "note": 44,
      "start": 23.9295,
      "duration": 0.1155,
      "velocity": 98,
      "chip": "ym2612"
    },
    {
      "channel": 0,
      "note": 95,
      "start": 23.9411,
      "duration": 0.1851,
      "velocity": 99,
      "chip": "ym2612"
    },
    {
      "channel": 1,
      "note": 95,
      "start": 23.9469,
      "duration": 0.1851,
      "velocity": 99,
      "chip": "ym2612"
    },
    {
      "channel": 2,
      "note": 95,
      "start": 23.9646,
      "duration": 0.1848,
      "velocity": 99,
      "chip": "ym2612"
    },
    {
      "channel": 0,
      "note": 94,
      "start": 24.1266,
      "duration": 0.1503,
      "velocity": 99,
      "chip": "ym2612"
    },
    {
      "channel": 1,
      "note": 94,
      "start": 24.1324,
      "duration": 0.1503,
      "velocity": 99,
      "chip": "ym2612"
    },
    {
      "channel": 2,
      "note": 94,
      "start": 24.1498,
      "duration": 0.2488,
      "velocity": 99,
      "chip": "ym2612"
    },
    {
      "channel": 5,
      "note": 68,
      "start": 24.1961,
      "duration": 0.0867,
      "velocity": 120,
      "chip": "ym2612"
    },
    {
      "channel": 4,
      "note": 46,
      "start": 24.2078,
      "duration": 0.1155,
      "velocity": 98,
      "chip": "ym2612"
    },
    {
      "channel": 0,
      "note": 99,
      "start": 24.3758,
      "duration": 1.1009,
      "velocity": 99,
      "chip": "ym2612"
    },
    {
      "channel": 1,
      "note": 99,
      "start": 24.3816,
      "duration": 1.1009,
      "velocity": 99,
      "chip": "ym2612"
    },
    {
      "channel": 2,
      "note": 99,
      "start": 24.3991,
      "duration": 1.2226,
      "velocity": 99,
      "chip": "ym2612"
    },
    {
      "channel": 5,
      "note": 68,
      "start": 24.4746,
      "duration": 0.1037,
      "velocity": 120,
      "chip": "ym2612"
    },
    {
      "channel": 4,
      "note": 47,
      "start": 24.486,
      "duration": 0.1155,
      "velocity": 98,
      "chip": "ym2612"
    },
    {
      "channel": 5,
      "note": 68,
      "start": 24.7526,
      "duration": 0.1329,
      "velocity": 120,
      "chip": "ym2612"
    },
    {
      "channel": 4,
      "note": 42,
      "start": 24.7644,
      "duration": 0.1153,
      "velocity": 98,
      "chip": "ym2612"
    },
    {
      "channel": 5,
      "note": 68,
      "start": 25.0308,
      "duration": 0.1273,
      "velocity": 120,
      "chip": "ym2612"
    },
    {
      "channel": 4,
      "note": 35,
      "start": 25.0424,
      "duration": 0.1157,
      "velocity": 98,
      "chip": "ym2612"
    },
    {
      "channel": 5,
      "note": 68,
      "start": 25.309,
      "duration": 0.1039,
      "velocity": 120,
      "chip": "ym2612"
    },
    {
      "channel": 4,
      "note": 47,
      "start": 25.3206,
      "duration": 0.1155,
      "velocity": 98,
      "chip": "ym2612"
    },
    {
      "channel": 5,
      "note": 68,
      "start": 25.5872,
      "duration": 0.0981,
      "velocity": 120,
      "chip": "ym2612"
    },
    {
      "channel": 0,
      "note": 100,
      "start": 25.5988,
      "duration": 0.3648,
      "velocity": 99,
      "chip": "ym2612"
    },
    {
      "channel": 4,
      "note": 45,
      "start": 25.5993,
      "duration": 0.1153,
      "velocity": 98,
      "chip": "ym2612"
    },
    {
      "channel": 1,
      "note": 100,
      "start": 25.6048,
      "duration": 0.3646,
      "velocity": 99,
      "chip": "ym2612"
    },
    {
      "channel": 2,
      "note": 100,
      "start": 25.6221,
      "duration": 0.4341,
      "velocity": 99,
      "chip": "ym2612"
    },
    {
      "channel": 5,
      "note": 68,
      "start": 26.0049,
      "duration": 0.0978,
      "velocity": 120,
      "chip": "ym2612"
    },
    {
      "channel": 4,
      "note": 44,
      "start": 26.0161,
      "duration": 0.4169,
      "velocity": 98,
      "chip": "ym2612"
    },
    {
      "channel": 0,
      "note": 99,
      "start": 26.0334,
      "duration": 0.3358,
      "velocity": 99,
      "chip": "ym2612"
    },
    {
      "channel": 1,
      "note": 99,
      "start": 26.0393,
      "duration": 0.3358,
      "velocity": 99,
      "chip": "ym2612"
    },
    {
      "channel": 2,
      "note": 99,
      "start": 26.0567,
      "duration": 0.6778,
      "velocity": 99,
      "chip": "ym2612"
    },
    {
      "channel": 5,
      "note": 68,
      "start": 26.7,
      "duration": 0.1387,
      "velocity": 120,
      "chip": "ym2612"
    },
    {
      "channel": 0,
      "note": 80,
      "start": 26.7116,
      "duration": 0.1214,
      "velocity": 99,
      "chip": "ym2612"
    },
    {
      "channel": 4,
      "note": 68,
      "start": 26.7129,
      "duration": 0.1202,
      "velocity": 79,
      "chip": "ym2612"
    },
    {
      "channel": 1,
      "note": 80,
      "start": 26.7174,
      "duration": 0.1215,
      "velocity": 99,
      "chip": "ym2612"
    },
    {
      "channel": 2,
      "note": 80,
      "start": 26.735,
      "duration": 0.1272,
      "velocity": 99,
      "chip": "ym2612"
    },
    {
      "channel": 0,
      "note": 84,
      "start": 26.8393,
      "duration": 0.1212,
      "velocity": 99,
      "chip": "ym2612"
    },
    {
      "channel": 4,
      "note": 72,
      "start": 26.8397,
      "duration": 0.1208,
      "velocity": 79,
      "chip": "ym2612"
    },
    {
      "channel": 1,
      "note": 84,
      "start": 26.8449,
      "duration": 0.1214,
      "velocity": 99,
      "chip": "ym2612"
    },
    {
      "channel": 2,
      "note": 84,
      "start": 26.8626,
      "duration": 0.1268,
      "velocity": 99,
      "chip": "ym2612"
    },
    {
      "channel": 0,
      "note": 85,
      "start": 26.9667,
      "duration": 0.1213,
      "velocity": 99,
      "chip": "ym2612"
    },
    {
      "channel": 4,
      "note": 73,
      "start": 26.9671,
      "duration": 0.1209,
      "velocity": 79,
      "chip": "ym2612"
    },
    {
      "channel": 1,
      "note": 85,
      "start": 26.9725,
      "duration": 0.1215,
      "velocity": 99,
      "chip": "ym2612"
    },
    {
      "channel": 5,
      "note": 68,
      "start": 26.9782,
      "duration": 0.0518,
      "velocity": 120,
      "chip": "ym2612"
    },
    {
      "channel": 2,
      "note": 85,
      "start": 26.9899,
      "duration": 0.1271,
      "velocity": 99,
      "chip": "ym2612"
    },
    {
      "channel": 0,
      "note": 87,
      "start": 27.0947,
      "duration": 0.1266,
      "velocity": 99,
      "chip": "ym2612"
    },
    {
      "channel": 4,
      "note": 75,
      "start": 27.0951,
      "duration": 0.1263,
      "velocity": 79,
      "chip": "ym2612"
    },
    {
      "channel": 1,
      "note": 87,
      "start": 27.0999,
      "duration": 0.1272,
      "velocity": 99,
      "chip": "ym2612"
    },
    {
      "channel": 2,
      "note": 87,
      "start": 27.1174,
      "duration": 0.1387,
      "velocity": 99,
      "chip": "ym2612"
    },
    {
      "channel": 5,
      "note": 68,
      "start": 27.1695,
      "duration": 0.0634,
      "velocity": 120,
      "chip": "ym2612"
    },
    {
      "channel": 0,
      "note": 88,
      "start": 27.2333,
      "duration": 0.2082,
      "velocity": 99,
      "chip": "ym2612"
    },
    {
      "channel": 4,
      "note": 76,
      "start": 27.2338,
      "duration": 0.2079,
      "velocity": 79,
      "chip": "ym2612"
    },
    {
      "channel": 1,
      "note": 88,
      "start": 27.239,
      "duration": 0.2083,
      "velocity": 99,
      "chip": "ym2612"
    },
    {
      "channel": 2,
      "note": 88,
      "start": 27.2565,
      "duration": 0.4517,
      "velocity": 99,
      "chip": "ym2612"
    },
    {
      "channel": 5,
      "note": 68,
      "start": 27.257,
      "duration": 0.1034,
      "velocity": 120,
      "chip": "ym2612"
    },
    {
      "channel": 5,
      "note": 68,
      "start": 27.5349,
      "duration": 0.0689,
      "velocity": 120,
      "chip": "ym2612"
    },
    {
      "channel": 0,
      "note": 80,
      "start": 27.6853,
      "duration": 0.1272,
      "velocity": 99,
      "chip": "ym2612"
    },
    {
      "channel": 4,
      "note": 68,
      "start": 27.6858,
      "duration": 0.1268,
      "velocity": 79,
      "chip": "ym2612"
    },
    {
      "channel": 1,
      "note": 80,
      "start": 27.6911,
      "duration": 0.1272,
      "velocity": 99,
      "chip": "ym2612"
    },
    {
      "channel": 2,
      "note": 80,
      "start": 27.7087,
      "duration": 0.1385,
      "velocity": 99,
      "chip": "ym2612"
    },
    {
      "channel": 5,
      "note": 68,
      "start": 27.7259,
      "duration": 0.075,
      "velocity": 120,
      "chip": "ym2612"
    },
    {
      "channel": 5,
      "note": 68,
      "start": 27.813,
      "duration": 0.0922,
      "velocity": 120,
      "chip": "ym2612"
    },
    {
      "channel": 0,
      "note": 82,
      "start": 27.8246,
      "duration": 0.2139,
      "velocity": 99,
      "chip": "ym2612"
    },
    {
      "channel": 4,
      "note": 70,
      "start": 27.8251,
      "duration": 0.2424,
      "velocity": 79,
      "chip": "ym2612"
    },
    {
      "channel": 1,
      "note": 82,
      "start": 27.8302,
      "duration": 0.2144,
      "velocity": 99,
      "chip": "ym2612"
    },
    {
      "channel": 2,
      "note": 82,
      "start": 27.8477,
      "duration": 0.2604,
      "velocity": 99,
      "chip": "ym2612"
    },
    {
      "channel": 0,
      "note": 87,
      "start": 28.0852,
      "duration": 0.1736,
      "velocity": 99,
      "chip": "ym2612"
    },
    {
      "channel": 4,
      "note": 75,
      "start": 28.0857,
      "duration": 0.1557,
      "velocity": 79,
      "chip": "ym2612"
    },
    {
      "channel": 1,
      "note": 87,
      "start": 28.091,
      "duration": 0.1736,
      "velocity": 99,
      "chip": "ym2612"
    },
    {
      "channel": 5,
      "note": 68,
      "start": 28.0916,
      "duration": 0.0686,
      "velocity": 120,
      "chip": "ym2612"
    },
    {
      "channel": 2,
      "note": 87,
      "start": 28.1085,
      "duration": 0.1734,
      "velocity": 99,
      "chip": "ym2612"
    },
    {
      "channel": 0,
      "note": 84,
      "start": 28.2592,
      "duration": 0.1446,
      "velocity": 99,
      "chip": "ym2612"
    },
    {
      "channel": 4,
      "note": 72,
      "start": 28.2596,
      "duration": 0.0919,
      "velocity": 79,
      "chip": "ym2612"
    },
    {
      "channel": 1,
      "note": 84,
      "start": 28.265,
      "duration": 0.1445,
      "velocity": 99,
      "chip": "ym2612"
    },
    {
      "channel": 5,
      "note": 68,
      "start": 28.2708,
      "duration": 0.0691,
      "velocity": 120,
      "chip": "ym2612"
    },
    {
      "channel": 2,
      "note": 84,
      "start": 28.2824,
      "duration": 0.4632,
      "velocity": 99,
      "chip": "ym2612"
    },
    {
      "channel": 5,
      "note": 68,
      "start": 28.3751,
      "duration": 0.1039,
      "velocity": 120,
      "chip": "ym2612"
    },
    {
      "channel": 5,
      "note": 68,
      "start": 28.6533,
      "duration": 0.0692,
      "velocity": 120,
      "chip": "ym2612"
    },
    {
      "channel": 5,
      "note": 68,
      "start": 28.8448,
      "duration": 0.0689,
      "velocity": 120,
      "chip": "ym2612"
    },
    {
      "channel": 5,
      "note": 68,
      "start": 28.9257,
      "duration": 0.104,
      "velocity": 120,
      "chip": "ym2612"
    },
    {
      "channel": 0,
      "note": 84,
      "start": 29.0649,
      "duration": 0.1212,
      "velocity": 99,
      "chip": "ym2612"
    },
    {
      "channel": 4,
      "note": 72,
      "start": 29.0654,
      "duration": 0.1209,
      "velocity": 79,
      "chip": "ym2612"
    },
    {
      "channel": 1,
      "note": 84,
      "start": 29.0705,
      "duration": 0.1214,
      "velocity": 99,
      "chip": "ym2612"
    },
    {
      "channel": 2,
      "note": 84,
      "start": 29.0879,
      "duration": 0.1272,
      "velocity": 99,
      "chip": "ym2612"
    },
    {
      "channel": 0,
      "note": 85,
      "start": 29.1924,
      "duration": 0.1213,
      "velocity": 99,
      "chip": "ym2612"
    },
    {
      "channel": 4,
      "note": 73,
      "start": 29.1928,
      "duration": 0.1209,
      "velocity": 79,
      "chip": "ym2612"
    },
    {
      "channel": 1,
      "note": 85,
      "start": 29.1981,
      "duration": 0.1214,
      "velocity": 99,
      "chip": "ym2612"
    },
    {
      "channel": 5,
      "note": 68,
      "start": 29.2039,
      "duration": 0.0808,
      "velocity": 120,
      "chip": "ym2612"
    },
    {
      "channel": 2,
      "note": 85,
      "start": 29.2156,
      "duration": 0.1271,
      "velocity": 99,
      "chip": "ym2612"
    },
    {
      "channel": 0,
      "note": 87,
      "start": 29.3199,
      "duration": 0.1271,
      "velocity": 99,
      "chip": "ym2612"
    },
    {
      "channel": 4,
      "note": 75,
      "start": 29.3203,
      "duration": 0.1267,
      "velocity": 79,
      "chip": "ym2612"
    },
    {
      "channel": 1,
      "note": 87,
      "start": 29.3256,
      "duration": 0.1272,
      "velocity": 99,
      "chip": "ym2612"
    },
    {
      "channel": 2,
      "note": 87,
      "start": 29.3431,
      "duration": 0.1387,
      "velocity": 99,
      "chip": "ym2612"
    },
    {
      "channel": 5,
      "note": 68,
      "start": 29.4068,
      "duration": 0.1736,
      "velocity": 120,
      "chip": "ym2612"
    },
    {
      "channel": 0,
      "note": 88,
      "start": 29.4589,
      "duration": 0.1619,
      "velocity": 99,
      "chip": "ym2612"
    },
    {
      "channel": 4,
      "note": 76,
      "start": 29.4593,
      "duration": 0.1209,
      "velocity": 79,
      "chip": "ym2612"
    },
    {
      "channel": 1,
      "note": 88,
      "start": 29.4649,
      "duration": 0.1617,
      "velocity": 99,
      "chip": "ym2612"
    },
    {
      "channel": 2,
      "note": 88,
      "start": 29.4822,
      "duration": 0.4516,
      "velocity": 99,
      "chip": "ym2612"
    },
    {
      "channel": 5,
      "note": 68,
      "start": 29.7661,
      "duration": 0.075,
      "velocity": 120,
      "chip": "ym2612"
    },
    {
      "channel": 0,
      "note": 80,
      "start": 29.911,
      "duration": 0.1272,
      "velocity": 99,
      "chip": "ym2612"
    },
    {
      "channel": 4,
      "note": 68,
      "start": 29.9114,
      "duration": 0.1268,
      "velocity": 79,
      "chip": "ym2612"
    },
    {
      "channel": 1,
      "note": 80,
      "start": 29.9168,
      "duration": 0.1271,
      "velocity": 99,
      "chip": "ym2612"
    },
    {
      "channel": 2,
      "note": 80,
      "start": 29.9345,
      "duration": 0.1384,
      "velocity": 99,
      "chip": "ym2612"
    },
    {
      "channel": 5,
      "note": 68,
      "start": 29.9516,
      "duration": 0.0751,
      "velocity": 120,
      "chip": "ym2612"
    },
    {
      "channel": 5,
      "note": 68,
      "start": 30.0387,
      "duration": 0.0864,
      "velocity": 120,
      "chip": "ym2612"
    },
    {
      "channel": 0,
      "note": 82,
      "start": 30.0501,
      "duration": 0.2431,
      "velocity": 99,
      "chip": "ym2612"
    },
    {
      "channel": 4,
      "note": 70,
      "start": 30.0505,
      "duration": 0.2427,
      "velocity": 79,
      "chip": "ym2612"
    },
    {
      "channel": 1,
      "note": 82,
      "start": 30.0559,
      "duration": 0.2436,
      "velocity": 99,
      "chip": "ym2612"
    },
    {
      "channel": 2,
      "note": 82,
      "start": 30.0734,
      "duration": 0.2778,
      "velocity": 99,
      "chip": "ym2612"
    },
    {
      "channel": 5,
      "note": 68,
      "start": 30.3167,
      "duration": 0.075,
      "velocity": 120,
      "chip": "ym2612"
    },
    {
      "channel": 0,
      "note": 87,
      "start": 30.3283,
      "duration": 0.1272,
      "velocity": 99,
      "chip": "ym2612"
    },
    {
      "channel": 4,
      "note": 75,
      "start": 30.3287,
      "duration": 0.1268,
      "velocity": 79,
      "chip": "ym2612"
    },
    {
      "channel": 1,
      "note": 87,
      "start": 30.3341,
      "duration": 0.1272,
      "velocity": 99,
      "chip": "ym2612"
    },
    {
      "channel": 2,
      "note": 87,
      "start": 30.3516,
      "duration": 0.1388,
      "velocity": 99,
      "chip": "ym2612"
    },
    {
      "channel": 0,
      "note": 85,
      "start": 30.4674,
      "duration": 0.1272,
      "velocity": 99,
      "chip": "ym2612"
    },
    {
      "channel": 4,
      "note": 73,
      "start": 30.4678,
      "duration": 0.1268,
      "velocity": 79,
      "chip": "ym2612"
    },
    {
      "channel": 1,
      "note": 85,
      "start": 30.4732,
      "duration": 0.1272,
      "velocity": 99,
      "chip": "ym2612"
    },
    {
      "channel": 2,
      "note": 85,
      "start": 30.4908,
      "duration": 0.1386,
      "velocity": 99,
      "chip": "ym2612"
    },
    {
      "channel": 5,
      "note": 68,
      "start": 30.5022,
      "duration": 0.0866,
      "velocity": 120,
      "chip": "ym2612"
    },
    {
      "channel": 5,
      "note": 68,
      "start": 30.5951,
      "duration": 0.098,
      "velocity": 120,
      "chip": "ym2612"
    },
    {
      "channel": 0,
      "note": 84,
      "start": 30.6065,
      "duration": 0.1214,
      "velocity": 99,
      "chip": "ym2612"
    },
    {
      "channel": 4,
      "note": 72,
      "start": 30.6069,
      "duration": 0.121,
      "velocity": 79,
      "chip": "ym2612"
    },
    {
      "channel": 1,
      "note": 84,
      "start": 30.6123,
      "duration": 0.1214,
      "velocity": 99,
      "chip": "ym2612"
    },
    {
      "channel": 2,
      "note": 84,
      "start": 30.6298,
      "duration": 0.1387,
      "velocity": 99,
      "chip": "ym2612"
    },
    {
      "channel": 0,
      "note": 82,
      "start": 30.7456,
      "duration": 0.1214,
      "velocity": 99,
      "chip": "ym2612"
    },
    {
      "channel": 4,
      "note": 70,
      "start": 30.7461,
      "duration": 0.121,
      "velocity": 79,
      "chip": "ym2612"
    },
    {
      "channel": 1,
      "note": 82,
      "start": 30.7514,
      "duration": 0.1214,
      "velocity": 99,
      "chip": "ym2612"
    },
    {
      "channel": 2,
      "note": 82,
      "start": 30.7689,
      "duration": 0.1387,
      "velocity": 99,
      "chip": "ym2612"
    },
    {
      "channel": 5,
      "note": 68,
      "start": 30.8733,
      "duration": 0.0632,
      "velocity": 120,
      "chip": "ym2612"
    },
    {
      "channel": 0,
      "note": 84,
      "start": 30.8849,
      "duration": 0.1212,
      "velocity": 99,
      "chip": "ym2612"
    },
    {
      "channel": 4,
      "note": 72,
      "start": 30.8854,
      "duration": 0.1208,
      "velocity": 79,
      "chip": "ym2612"
    },
    {
      "channel": 1,
      "note": 84,
      "start": 30.8905,
      "duration": 0.1214,
      "velocity": 99,
      "chip": "ym2612"
    },
    {
      "channel": 2,
      "note": 84,
      "start": 30.908,
      "duration": 0.1387,
      "velocity": 99,
      "chip": "ym2612"
    },
    {
      "channel": 0,
      "note": 83,
      "start": 31.0238,
      "duration": 0.3822,
      "velocity": 99,
      "chip": "ym2612"
    },
    {
      "channel": 4,
      "note": 71,
      "start": 31.0246,
      "duration": 0.1388,
      "velocity": 98,
      "chip": "ym2612"
    },
    {
      "channel": 1,
      "note": 83,
      "start": 31.0296,
      "duration": 0.3822,
      "velocity": 99,
      "chip": "ym2612"
    },
    {
      "channel": 5,
      "note": 68,
      "start": 31.0301,
      "duration": 0.0919,
      "velocity": 120,
      "chip": "ym2612"
    },
    {
      "channel": 2,
      "note": 83,
      "start": 31.0471,
      "duration": 0.4168,
      "velocity": 99,
      "chip": "ym2612"
    },
    {
      "channel": 4,
      "note": 47,
      "start": 31.1639,
      "duration": 0.2422,
      "velocity": 98,
      "chip": "ym2612"
    },
    {
      "channel": 5,
      "note": 68,
      "start": 31.4295,
      "duration": 0.0924,
      "velocity": 120,
      "chip": "ym2612"
    },
    {
      "channel": 0,
      "note": 85,
      "start": 31.4411,
      "duration": 0.1329,
      "velocity": 99,
      "chip": "ym2612"
    },
    {
      "channel": 4,
      "note": 47,
      "start": 31.4416,
      "duration": 0.144,
      "velocity": 98,
      "chip": "ym2612"
    },
    {
      "channel": 1,
      "note": 85,
      "start": 31.4469,
      "duration": 0.1329,
      "velocity": 99,
      "chip": "ym2612"
    },
    {
      "channel": 2,
      "note": 85,
      "start": 31.4646,
      "duration": 0.2775,
      "velocity": 99,
      "chip": "ym2612"
    },
    {
      "channel": 5,
      "note": 68,
      "start": 31.7078,
      "duration": 0.0924,
      "velocity": 120,
      "chip": "ym2612"
    },
    {
      "channel": 0,
      "note": 88,
      "start": 31.7193,
      "duration": 0.162,
      "velocity": 99,
      "chip": "ym2612"
    },
    {
      "channel": 4,
      "note": 45,
      "start": 31.7198,
      "duration": 0.1324,
      "velocity": 98,
      "chip": "ym2612"
    },
    {
      "channel": 1,
      "note": 88,
      "start": 31.7251,
      "duration": 0.1619,
      "velocity": 99,
      "chip": "ym2612"
    },
    {
      "channel": 2,
      "note": 88,
      "start": 31.7426,
      "duration": 0.2778,
      "velocity": 99,
      "chip": "ym2612"
    },
    {
      "channel": 5,
      "note": 68,
      "start": 31.986,
      "duration": 0.0984,
      "velocity": 120,
      "chip": "ym2612"
    },
    {
      "channel": 0,
      "note": 90,
      "start": 31.9975,
      "duration": 0.1329,
      "velocity": 99,
      "chip": "ym2612"
    },
    {
      "channel": 4,
      "note": 45,
      "start": 31.998,
      "duration": 0.1382,
      "velocity": 98,
      "chip": "ym2612"
    },
    {
      "channel": 1,
      "note": 90,
      "start": 32.0033,
      "duration": 0.1331,
      "velocity": 99,
      "chip": "ym2612"
    },
    {
      "channel": 2,
      "note": 90,
      "start": 32.0208,
      "duration": 0.2778,
      "velocity": 99,
      "chip": "ym2612"
    },
    {
      "channel": 5,
      "note": 68,
      "start": 32.2645,
      "duration": 0.0805,
      "velocity": 120,
      "chip": "ym2612"
    },
    {
      "channel": 0,
      "note": 92,
      "start": 32.2757,
      "duration": 0.1156,
      "velocity": 99,
      "chip": "ym2612"
    },
    {
      "channel": 4,
      "note": 44,
      "start": 32.2763,
      "duration": 0.1151,
      "velocity": 98,
      "chip": "ym2612"
    },
    {
      "channel": 1,
      "note": 92,
      "start": 32.2815,
      "duration": 0.1156,
      "velocity": 99,
      "chip": "ym2612"
    },
    {
      "channel": 2,
      "note": 92,
      "start": 32.299,
      "duration": 0.1387,
      "velocity": 99,
      "chip": "ym2612"
    },
    {
      "channel": 0,
      "note": 95,
      "start": 32.4149,
      "duration": 0.1561,
      "velocity": 99,
      "chip": "ym2612"
    },
    {
      "channel": 1,
      "note": 95,
      "start": 32.4206,
      "duration": 0.1563,
      "velocity": 99,
      "chip": "ym2612"
    },
    {
      "channel": 2,
      "note": 95,
      "start": 32.4381,
      "duration": 0.2604,
      "velocity": 99,
      "chip": "ym2612"
    },
    {
      "channel": 5,
      "note": 68,
      "start": 32.5424,
      "duration": 0.0982,
      "velocity": 120,
      "chip": "ym2612"
    },
    {
      "channel": 4,
      "note": 44,
      "start": 32.554,
      "duration": 0.1155,
      "velocity": 98,
      "chip": "ym2612"
    },
    {
      "channel": 0,
      "note": 97,
      "start": 32.6757,
      "duration": 0.1214,
      "velocity": 99,
      "chip": "ym2612"
    },
    {
      "channel": 1,
      "note": 97,
      "start": 32.6815,
      "duration": 0.1214,
      "velocity": 99,
      "chip": "ym2612"
    },
    {
      "channel": 2,
      "note": 97,
      "start": 32.699,
      "duration": 0.2778,
      "velocity": 99,
      "chip": "ym2612"
    },
    {
      "channel": 5,
      "note": 68,
      "start": 32.8206,
      "duration": 0.0808,
      "velocity": 120,
      "chip": "ym2612"
    },
    {
      "channel": 4,
      "note": 37,
      "start": 32.8322,
      "duration": 0.1155,
      "velocity": 98,
      "chip": "ym2612"
    },
    {
      "channel": 0,
      "note": 100,
      "start": 32.9539,
      "duration": 0.1098,
      "velocity": 99,
      "chip": "ym2612"
    },
    {
      "channel": 1,
      "note": 100,
      "start": 32.9597,
      "duration": 0.1098,
      "velocity": 99,
      "chip": "ym2612"
    },
    {
      "channel": 2,
      "note": 100,
      "start": 32.9771,
      "duration": 0.2778,
      "velocity": 99,
      "chip": "ym2612"
    },
    {
      "channel": 5,
      "note": 68,
      "start": 33.0988,
      "duration": 0.0981,
      "velocity": 120,
      "chip": "ym2612"
    },
    {
      "channel": 4,
      "note": 37,
      "start": 33.1104,
      "duration": 0.1097,
      "velocity": 98,
      "chip": "ym2612"
    },
    {
      "channel": 0,
      "note": 91,
      "start": 33.2322,
      "duration": 0.4053,
      "velocity": 99,
      "chip": "ym2612"
    },
    {
      "channel": 1,
      "note": 91,
      "start": 33.2379,
      "duration": 0.4054,
      "velocity": 99,
      "chip": "ym2612"
    },
    {
      "channel": 2,
      "note": 91,
      "start": 33.2554,
      "duration": 0.4343,
      "velocity": 99,
      "chip": "ym2612"
    },
    {
      "channel": 5,
      "note": 68,
      "start": 33.377,
      "duration": 0.0808,
      "velocity": 120,
      "chip": "ym2612"
    },
    {
      "channel": 4,
      "note": 42,
      "start": 33.3886,
      "duration": 0.1387,
      "velocity": 98,
      "chip": "ym2612"
    },
    {
      "channel": 5,
      "note": 68,
      "start": 33.6552,
      "duration": 0.0981,
      "velocity": 120,
      "chip": "ym2612"
    },
    {
      "channel": 0,
      "note": 90,
      "start": 33.6668,
      "duration": 0.1272,
      "velocity": 99,
      "chip": "ym2612"
    },
    {
      "channel": 4,
      "note": 42,
      "start": 33.6673,
      "duration": 0.1208,
      "velocity": 98,
      "chip": "ym2612"
    },
    {
      "channel": 1,
      "note": 90,
      "start": 33.6726,
      "duration": 0.1271,
      "velocity": 99,
      "chip": "ym2612"
    },
    {
      "channel": 2,
      "note": 90,
      "start": 33.6901,
      "duration": 0.1387,
      "velocity": 99,
      "chip": "ym2612"
    },
    {
      "channel": 0,
      "note": 88,
      "start": 33.8059,
      "duration": 0.1272,
      "velocity": 99,
      "chip": "ym2612"
    },
    {
      "channel": 1,
      "note": 88,
      "start": 33.8117,
      "duration": 0.1272,
      "velocity": 99,
      "chip": "ym2612"
    },
    {
      "channel": 2,
      "note": 88,
      "start": 33.8292,
      "duration": 0.1388,
      "velocity": 99,
      "chip": "ym2612"
    },
    {
      "channel": 5,
      "note": 68,
      "start": 33.9335,
      "duration": 0.0923,
      "velocity": 120,
      "chip": "ym2612"
    },
    {
      "channel": 0,
      "note": 90,
      "start": 33.945,
      "duration": 0.1214,
      "velocity": 99,
      "chip": "ym2612"
    },
    {
      "channel": 4,
      "note": 35,
      "start": 33.9455,
      "duration": 0.1266,
      "velocity": 98,
      "chip": "ym2612"
    },
    {
      "channel": 1,
      "note": 90,
      "start": 33.9508,
      "duration": 0.1215,
      "velocity": 99,
      "chip": "ym2612"
    },
    {
      "channel": 2,
      "note": 90,
      "start": 33.9684,
      "duration": 0.1385,
      "velocity": 99,
      "chip": "ym2612"
    },
    {
      "channel": 0,
      "note": 88,
      "start": 34.0841,
      "duration": 0.1214,
      "velocity": 99,
      "chip": "ym2612"
    },
    {
      "channel": 1,
      "note": 88,
      "start": 34.0899,
      "duration": 0.1213,
      "velocity": 99,
      "chip": "ym2612"
    },
    {
      "channel": 2,
      "note": 88,
      "start": 34.1074,
      "duration": 0.1387,
      "velocity": 99,
      "chip": "ym2612"
    },
    {
      "channel": 5,
      "note": 68,
      "start": 34.2117,
      "duration": 0.098,
      "velocity": 120,
      "chip": "ym2612"
    },
    {
      "channel": 0,
      "note": 85,
      "start": 34.2232,
      "duration": 0.1214,
      "velocity": 99,
      "chip": "ym2612"
    },
    {
      "channel": 4,
      "note": 35,
      "start": 34.2237,
      "duration": 0.1324,
      "velocity": 98,
      "chip": "ym2612"
    },
    {
      "channel": 1,
      "note": 85,
      "start": 34.229,
      "duration": 0.1214,
      "velocity": 99,
      "chip": "ym2612"
    },
    {
      "channel": 2,
      "note": 85,
      "start": 34.2465,
      "duration": 0.1387,
      "velocity": 99,
      "chip": "ym2612"
    },
    {
      "channel": 0,
      "note": 88,
      "start": 34.3623,
      "duration": 0.1272,
      "velocity": 99,
      "chip": "ym2612"
    },
    {
      "channel": 1,
      "note": 88,
      "start": 34.3681,
      "duration": 0.1272,
      "velocity": 99,
      "chip": "ym2612"
    },
    {
      "channel": 2,
      "note": 88,
      "start": 34.3856,
      "duration": 0.4169,
      "velocity": 99,
      "chip": "ym2612"
    },
    {
      "channel": 5,
      "note": 68,
      "start": 34.4899,
      "duration": 0.0575,
      "velocity": 120,
      "chip": "ym2612"
    },
    {
      "channel": 4,
      "note": 40,
      "start": 34.5015,
      "duration": 0.1097,
      "velocity": 98,
      "chip": "ym2612"
    },
    {
      "channel": 5,
      "note": 68,
      "start": 34.7333,
      "duration": 0.0924,
      "velocity": 120,
      "chip": "ym2612"
    },
    {
      "channel": 4,
      "note": 47,
      "start": 34.7797,
      "duration": 0.1213,
      "velocity": 98,
      "chip": "ym2612"
    },
    {
      "channel": 4,
      "note": 52,
      "start": 35.0579,
      "duration": 0.1503,
      "velocity": 98,
      "chip": "ym2612"
    },
    {
      "channel": 5,
      "note": 68,
      "start": 35.2027,
      "duration": 0.0518,
      "velocity": 120,
      "chip": "ym2612"
    },
    {
      "channel": 5,
      "note": 68,
      "start": 35.3247,
      "duration": 0.0805,
      "velocity": 120,
      "chip": "ym2612"
    },
    {
      "channel": 0,
      "note": 80,
      "start": 35.6156,
      "duration": 0.12,
      "velocity": 99,
      "chip": "ym2612"
    },
    {
      "channel": 4,
      "note": 68,
      "start": 35.6208,
      "duration": 0.1149,
      "velocity": 79,
      "chip": "ym2612"
    },
    {
      "channel": 5,
      "note": 68,
      "start": 35.6226,
      "duration": 0.2695,
      "velocity": 120,
      "chip": "ym2612"
    },
    {
      "channel": 1,
      "note": 80,
      "start": 35.6231,
      "duration": 0.1183,
      "velocity": 99,
      "chip": "ym2612"
    },
    {
      "channel": 2,
      "note": 80,
      "start": 35.6374,
      "duration": 0.1272,
      "velocity": 99,
      "chip": "ym2612"
    },
    {
      "channel": 0,
      "note": 84,
      "start": 35.7476,
      "duration": 0.1214,
      "velocity": 99,
      "chip": "ym2612"
    },
    {
      "channel": 4,
      "note": 72,
      "start": 35.748,
      "duration": 0.121,
      "velocity": 79,
      "chip": "ym2612"
    },
    {
      "channel": 1,
      "note": 84,
      "start": 35.7534,
      "duration": 0.1214,
      "velocity": 99,
      "chip": "ym2612"
    },
    {
      "channel": 2,
      "note": 84,
      "start": 35.7707,
      "duration": 0.1215,
      "velocity": 99,
      "chip": "ym2612"
    },
    {
      "channel": 0,
      "note": 85,
      "start": 35.8695,
      "duration": 0.04,
      "velocity": 99,
      "chip": "ym2612"
    },
    {
      "channel": 4,
      "note": 73,
      "start": 35.8699,
      "duration": 0.0396,
      "velocity": 79,
      "chip": "ym2612"
    },
    {
      "channel": 1,
      "note": 85,
      "start": 35.8751,
      "duration": 0.0344,
      "velocity": 99,
      "chip": "ym2612"
    },
    {
      "channel": 2,
      "note": 85,
      "start": 35.8926,
      "duration": 0.0169,
      "velocity": 99,
      "chip": "ym2612"
    }
  ]
}