{
  "track_name": "17 - Ending Theme (Part 2)",
  "duration_sec": 138.326,
  "sample_rate": 44100,
  "note_count": 2743,
  "unique_pitches": 55,
  "pitch_range": 75,
  "avg_note_duration": 0.2192,
  "reconstruction_stats": {
    "notes_reconstructed": 2743,
    "keyon_events": 2743,
    "keyoff_events": 2743,
    "orphan_keyons": 0,
    "unique_pitches": 55,
    "pitch_range": 75,
    "avg_duration_sec": 0.2192
  },
  "metadata": {
    "source": "T\\The Great Circus Mystery\\17 - Ending Theme (Part 2).vgz"
  },
  "notes": [
    {
      "channel": 4,
      "note": 78,
      "start": 0.0,
      "duration": 0.0,
      "velocity": 73,
      "chip": "ym2612"
    },
    {
      "channel": 4,
      "note": 83,
      "start": 0.0,
      "duration": 0.0,
      "velocity": 73,
      "chip": "ym2612"
    },
    {
      "channel": 4,
      "note": 87,
      "start": 0.0,
      "duration": 0.0,
      "velocity": 73,
      "chip": "ym2612"
    },
    {
      "channel": 4,
      "note": 88,
      "start": 0.0,
      "duration": 0.0,
      "velocity": 73,
      "chip": "ym2612"
    },
    {
      "channel": 5,
      "note": 85,
      "start": 0.0,
      "duration": 0.0,
      "velocity": 73,
      "chip": "ym2612"
    },
    {
      "channel": 5,
      "note": 90,
      "start": 0.0,
      "duration": 0.0,
      "velocity": 73,
      "chip": "ym2612"
    },
    {
      "channel": 5,
      "note": 94,
      "start": 0.0,
      "duration": 0.0,
      "velocity": 73,
      "chip": "ym2612"
    },
    {
      "channel": 5,
      "note": 95,
      "start": 0.0,
      "duration": 0.0,
      "velocity": 73,
      "chip": "ym2612"
    },
    {
      "channel": 0,
      "note": 49,
      "start": 0.0022,
      "duration": 1.9869,
      "velocity": 97,
      "chip": "ym2612"
    },
    {
      "channel": 2,
      "note": 104,
      "start": 0.0049,
      "duration": 0.0634,
      "velocity": 95,
      "chip": "ym2612"
    },
    {
      "channel": 3,
      "note": 80,
      "start": 0.0078,
      "duration": 1.4266,
      "velocity": 100,
      "chip": "ym2612"
    },
    {
      "channel": 4,
      "note": 73,
      "start": 0.0102,
      "duration": 1.4246,
      "velocity": 100,
      "chip": "ym2612"
    },
    {
      "channel": 5,
      "note": 80,
      "start": 0.0545,
      "duration": 1.4303,
      "velocity": 100,
      "chip": "ym2612"
    },
    {
      "channel": 2,
      "note": 101,
      "start": 0.1363,
      "duration": 0.0667,
      "velocity": 95,
      "chip": "ym2612"
    },
    {
      "channel": 1,
      "note": 105,
      "start": 0.2727,
      "duration": 0.4863,
      "velocity": 80,
      "chip": "ym2612"
    },
    {
      "channel": 2,
      "note": 97,
      "start": 0.2736,
      "duration": 0.0644,
      "velocity": 95,
      "chip": "ym2612"
    },
    {
      "channel": 2,
      "note": 92,
      "start": 0.3902,
      "duration": 0.0667,
      "velocity": 95,
      "chip": "ym2612"
    },
    {
      "channel": 2,
      "note": 104,
      "start": 0.5248,
      "duration": 0.0659,
      "velocity": 95,
      "chip": "ym2612"
    },
    {
      "channel": 2,
      "note": 101,
      "start": 0.6426,
      "duration": 0.0667,
      "velocity": 95,
      "chip": "ym2612"
    },
    {
      "channel": 1,
      "note": 105,
      "start": 0.7766,
      "duration": 0.488,
      "velocity": 80,
      "chip": "ym2612"
    },
    {
      "channel": 2,
      "note": 97,
      "start": 0.7776,
      "duration": 0.066,
      "velocity": 95,
      "chip": "ym2612"
    },
    {
      "channel": 2,
      "note": 92,
      "start": 0.8955,
      "duration": 0.0667,
      "velocity": 95,
      "chip": "ym2612"
    },
    {
      "channel": 2,
      "note": 104,
      "start": 1.0304,
      "duration": 0.0659,
      "velocity": 95,
      "chip": "ym2612"
    },
    {
      "channel": 2,
      "note": 101,
      "start": 1.1482,
      "duration": 0.0667,
      "velocity": 95,
      "chip": "ym2612"
    },
    {
      "channel": 1,
      "note": 105,
      "start": 1.2823,
      "duration": 0.2351,
      "velocity": 80,
      "chip": "ym2612"
    },
    {
      "channel": 2,
      "note": 97,
      "start": 1.2832,
      "duration": 0.066,
      "velocity": 95,
      "chip": "ym2612"
    },
    {
      "channel": 2,
      "note": 92,
      "start": 1.4011,
      "duration": 0.0667,
      "velocity": 95,
      "chip": "ym2612"
    },
    {
      "channel": 1,
      "note": 105,
      "start": 1.5351,
      "duration": 0.2351,
      "velocity": 80,
      "chip": "ym2612"
    },
    {
      "channel": 2,
      "note": 104,
      "start": 1.5361,
      "duration": 0.0658,
      "velocity": 95,
      "chip": "ym2612"
    },
    {
      "channel": 3,
      "note": 80,
      "start": 1.5372,
      "duration": 0.0987,
      "velocity": 100,
      "chip": "ym2612"
    },
    {
      "channel": 4,
      "note": 73,
      "start": 1.5386,
      "duration": 0.0978,
      "velocity": 100,
      "chip": "ym2612"
    },
    {
      "channel": 5,
      "note": 80,
      "start": 1.5706,
      "duration": 0.0998,
      "velocity": 100,
      "chip": "ym2612"
    },
    {
      "channel": 2,
      "note": 101,
      "start": 1.6538,
      "duration": 0.0668,
      "velocity": 95,
      "chip": "ym2612"
    },
    {
      "channel": 3,
      "note": 77,
      "start": 1.6549,
      "duration": 0.0999,
      "velocity": 100,
      "chip": "ym2612"
    },
    {
      "channel": 4,
      "note": 68,
      "start": 1.6564,
      "duration": 0.0993,
      "velocity": 100,
      "chip": "ym2612"
    },
    {
      "channel": 5,
      "note": 77,
      "start": 1.7047,
      "duration": 0.1008,
      "velocity": 100,
      "chip": "ym2612"
    },
    {
      "channel": 1,
      "note": 105,
      "start": 1.7879,
      "duration": 0.4878,
      "velocity": 80,
      "chip": "ym2612"
    },
    {
      "channel": 2,
      "note": 97,
      "start": 1.7892,
      "duration": 0.0655,
      "velocity": 95,
      "chip": "ym2612"
    },
    {
      "channel": 3,
      "note": 73,
      "start": 1.7903,
      "duration": 0.0988,
      "velocity": 100,
      "chip": "ym2612"
    },
    {
      "channel": 4,
      "note": 65,
      "start": 1.7914,
      "duration": 0.098,
      "velocity": 100,
      "chip": "ym2612"
    },
    {
      "channel": 5,
      "note": 73,
      "start": 1.8237,
      "duration": 0.0998,
      "velocity": 100,
      "chip": "ym2612"
    },
    {
      "channel": 2,
      "note": 92,
      "start": 1.907,
      "duration": 0.0667,
      "velocity": 95,
      "chip": "ym2612"
    },
    {
      "channel": 3,
      "note": 77,
      "start": 1.9082,
      "duration": 0.0992,
      "velocity": 100,
      "chip": "ym2612"
    },
    {
      "channel": 4,
      "note": 68,
      "start": 1.9093,
      "duration": 0.0985,
      "velocity": 100,
      "chip": "ym2612"
    },
    {
      "channel": 5,
      "note": 77,
      "start": 1.9578,
      "duration": 0.1001,
      "velocity": 100,
      "chip": "ym2612"
    },
    {
      "channel": 0,
      "note": 47,
      "start": 2.0402,
      "duration": 1.9712,
      "velocity": 97,
      "chip": "ym2612"
    },
    {
      "channel": 2,
      "note": 104,
      "start": 2.0424,
      "duration": 0.0651,
      "velocity": 95,
      "chip": "ym2612"
    },
    {
      "channel": 3,
      "note": 80,
      "start": 2.0436,
      "duration": 1.4136,
      "velocity": 100,
      "chip": "ym2612"
    },
    {
      "channel": 4,
      "note": 73,
      "start": 2.0448,
      "duration": 1.4128,
      "velocity": 100,
      "chip": "ym2612"
    },
    {
      "channel": 5,
      "note": 80,
      "start": 2.0762,
      "duration": 1.4311,
      "velocity": 100,
      "chip": "ym2612"
    },
    {
      "channel": 2,
      "note": 101,
      "start": 2.1594,
      "duration": 0.0668,
      "velocity": 95,
      "chip": "ym2612"
    },
    {
      "channel": 1,
      "note": 105,
      "start": 2.2935,
      "duration": 0.4878,
      "velocity": 80,
      "chip": "ym2612"
    },
    {
      "channel": 2,
      "note": 97,
      "start": 2.2945,
      "duration": 0.0658,
      "velocity": 95,
      "chip": "ym2612"
    },
    {
      "channel": 2,
      "note": 92,
      "start": 2.4123,
      "duration": 0.0667,
      "velocity": 95,
      "chip": "ym2612"
    },
    {
      "channel": 2,
      "note": 104,
      "start": 2.5472,
      "duration": 0.0659,
      "velocity": 95,
      "chip": "ym2612"
    },
    {
      "channel": 2,
      "note": 101,
      "start": 2.665,
      "duration": 0.0668,
      "velocity": 95,
      "chip": "ym2612"
    },
    {
      "channel": 1,
      "note": 105,
      "start": 2.7991,
      "duration": 0.5048,
      "velocity": 80,
      "chip": "ym2612"
    },
    {
      "channel": 2,
      "note": 97,
      "start": 2.8,
      "duration": 0.066,
      "velocity": 95,
      "chip": "ym2612"
    },
    {
      "channel": 2,
      "note": 92,
      "start": 2.9179,
      "duration": 0.0667,
      "velocity": 95,
      "chip": "ym2612"
    },
    {
      "channel": 2,
      "note": 104,
      "start": 3.0528,
      "duration": 0.0666,
      "velocity": 95,
      "chip": "ym2612"
    },
    {
      "channel": 2,
      "note": 101,
      "start": 3.1707,
      "duration": 0.0667,
      "velocity": 95,
      "chip": "ym2612"
    },
    {
      "channel": 1,
      "note": 105,
      "start": 3.3047,
      "duration": 0.2519,
      "velocity": 80,
      "chip": "ym2612"
    },
    {
      "channel": 2,
      "note": 97,
      "start": 3.306,
      "duration": 0.0666,
      "velocity": 95,
      "chip": "ym2612"
    },
    {
      "channel": 2,
      "note": 92,
      "start": 3.4239,
      "duration": 0.0665,
      "velocity": 95,
      "chip": "ym2612"
    },
    {
      "channel": 1,
      "note": 105,
      "start": 3.5575,
      "duration": 0.2519,
      "velocity": 80,
      "chip": "ym2612"
    },
    {
      "channel": 2,
      "note": 104,
      "start": 3.5586,
      "duration": 0.0664,
      "velocity": 95,
      "chip": "ym2612"
    },
    {
      "channel": 3,
      "note": 85,
      "start": 3.5598,
      "duration": 0.0986,
      "velocity": 100,
      "chip": "ym2612"
    },
    {
      "channel": 4,
      "note": 80,
      "start": 3.561,
      "duration": 0.0978,
      "velocity": 100,
      "chip": "ym2612"
    },
    {
      "channel": 5,
      "note": 85,
      "start": 3.593,
      "duration": 0.0997,
      "velocity": 100,
      "chip": "ym2612"
    },
    {
      "channel": 2,
      "note": 101,
      "start": 3.6763,
      "duration": 0.0667,
      "velocity": 95,
      "chip": "ym2612"
    },
    {
      "channel": 3,
      "note": 84,
      "start": 3.6774,
      "duration": 0.0999,
      "velocity": 100,
      "chip": "ym2612"
    },
    {
      "channel": 4,
      "note": 78,
      "start": 3.6785,
      "duration": 0.0991,
      "velocity": 100,
      "chip": "ym2612"
    },
    {
      "channel": 5,
      "note": 84,
      "start": 3.7271,
      "duration": 0.1005,
      "velocity": 100,
      "chip": "ym2612"
    },
    {
      "channel": 1,
      "note": 105,
      "start": 3.8104,
      "duration": 0.5046,
      "velocity": 80,
      "chip": "ym2612"
    },
    {
      "channel": 2,
      "note": 97,
      "start": 3.8113,
      "duration": 0.0665,
      "velocity": 95,
      "chip": "ym2612"
    },
    {
      "channel": 3,
      "note": 83,
      "start": 3.8124,
      "duration": 0.0987,
      "velocity": 100,
      "chip": "ym2612"
    },
    {
      "channel": 4,
      "note": 77,
      "start": 3.8136,
      "duration": 0.098,
      "velocity": 100,
      "chip": "ym2612"
    },
    {
      "channel": 5,
      "note": 83,
      "start": 3.8458,
      "duration": 0.0998,
      "velocity": 100,
      "chip": "ym2612"
    },
    {
      "channel": 2,
      "note": 92,
      "start": 3.9291,
      "duration": 0.0667,
      "velocity": 95,
      "chip": "ym2612"
    },
    {
      "channel": 3,
      "note": 82,
      "start": 3.9302,
      "duration": 0.0996,
      "velocity": 100,
      "chip": "ym2612"
    },
    {
      "channel": 4,
      "note": 75,
      "start": 3.9313,
      "duration": 0.0989,
      "velocity": 100,
      "chip": "ym2612"
    },
    {
      "channel": 5,
      "note": 82,
      "start": 3.9799,
      "duration": 0.1005,
      "velocity": 100,
      "chip": "ym2612"
    },
    {
      "channel": 0,
      "note": 46,
      "start": 4.0626,
      "duration": 1.9712,
      "velocity": 97,
      "chip": "ym2612"
    },
    {
      "channel": 2,
      "note": 104,
      "start": 4.0649,
      "duration": 0.0658,
      "velocity": 95,
      "chip": "ym2612"
    },
    {
      "channel": 3,
      "note": 80,
      "start": 4.0661,
      "duration": 1.4132,
      "velocity": 100,
      "chip": "ym2612"
    },
    {
      "channel": 4,
      "note": 73,
      "start": 4.0673,
      "duration": 1.4124,
      "velocity": 100,
      "chip": "ym2612"
    },
    {
      "channel": 5,
      "note": 80,
      "start": 4.0987,
      "duration": 1.431,
      "velocity": 100,
      "chip": "ym2612"
    },
    {
      "channel": 2,
      "note": 101,
      "start": 4.1819,
      "duration": 0.0667,
      "velocity": 95,
      "chip": "ym2612"
    },
    {
      "channel": 1,
      "note": 105,
      "start": 4.3161,
      "duration": 0.5046,
      "velocity": 80,
      "chip": "ym2612"
    },
    {
      "channel": 2,
      "note": 97,
      "start": 4.3169,
      "duration": 0.0665,
      "velocity": 95,
      "chip": "ym2612"
    },
    {
      "channel": 2,
      "note": 92,
      "start": 4.4347,
      "duration": 0.0667,
      "velocity": 95,
      "chip": "ym2612"
    },
    {
      "channel": 2,
      "note": 104,
      "start": 4.5696,
      "duration": 0.0667,
      "velocity": 95,
      "chip": "ym2612"
    },
    {
      "channel": 2,
      "note": 101,
      "start": 4.6875,
      "duration": 0.0667,
      "velocity": 95,
      "chip": "ym2612"
    },
    {
      "channel": 1,
      "note": 105,
      "start": 4.8216,
      "duration": 0.5046,
      "velocity": 80,
      "chip": "ym2612"
    },
    {
      "channel": 2,
      "note": 97,
      "start": 4.8228,
      "duration": 0.0666,
      "velocity": 95,
      "chip": "ym2612"
    },
    {
      "channel": 2,
      "note": 92,
      "start": 4.9407,
      "duration": 0.0665,
      "velocity": 95,
      "chip": "ym2612"
    },
    {
      "channel": 2,
      "note": 104,
      "start": 5.0753,
      "duration": 0.0666,
      "velocity": 95,
      "chip": "ym2612"
    },
    {
      "channel": 2,
      "note": 101,
      "start": 5.1931,
      "duration": 0.0667,
      "velocity": 95,
      "chip": "ym2612"
    },
    {
      "channel": 1,
      "note": 105,
      "start": 5.3272,
      "duration": 0.2518,
      "velocity": 80,
      "chip": "ym2612"
    },
    {
      "channel": 2,
      "note": 97,
      "start": 5.3281,
      "duration": 0.0666,
      "velocity": 95,
      "chip": "ym2612"
    },
    {
      "channel": 2,
      "note": 92,
      "start": 5.4459,
      "duration": 0.0667,
      "velocity": 95,
      "chip": "ym2612"
    },
    {
      "channel": 1,
      "note": 105,
      "start": 5.58,
      "duration": 0.2519,
      "velocity": 80,
      "chip": "ym2612"
    },
    {
      "channel": 2,
      "note": 104,
      "start": 5.581,
      "duration": 0.0665,
      "velocity": 95,
      "chip": "ym2612"
    },
    {
      "channel": 3,
      "note": 80,
      "start": 5.5822,
      "duration": 0.0994,
      "velocity": 100,
      "chip": "ym2612"
    },
    {
      "channel": 4,
      "note": 73,
      "start": 5.5833,
      "duration": 0.0986,
      "velocity": 100,
      "chip": "ym2612"
    },
    {
      "channel": 5,
      "note": 80,
      "start": 5.6154,
      "duration": 0.0998,
      "velocity": 100,
      "chip": "ym2612"
    },
    {
      "channel": 2,
      "note": 101,
      "start": 5.6987,
      "duration": 0.0667,
      "velocity": 95,
      "chip": "ym2612"
    },
    {
      "channel": 3,
      "note": 77,
      "start": 5.6998,
      "duration": 0.0999,
      "velocity": 100,
      "chip": "ym2612"
    },
    {
      "channel": 4,
      "note": 68,
      "start": 5.701,
      "duration": 0.0991,
      "velocity": 100,
      "chip": "ym2612"
    },
    {
      "channel": 5,
      "note": 77,
      "start": 5.7495,
      "duration": 0.1005,
      "velocity": 100,
      "chip": "ym2612"
    },
    {
      "channel": 1,
      "note": 105,
      "start": 5.8328,
      "duration": 0.5046,
      "velocity": 80,
      "chip": "ym2612"
    },
    {
      "channel": 2,
      "note": 97,
      "start": 5.8337,
      "duration": 0.0665,
      "velocity": 95,
      "chip": "ym2612"
    },
    {
      "channel": 3,
      "note": 73,
      "start": 5.8348,
      "duration": 0.0995,
      "velocity": 100,
      "chip": "ym2612"
    },
    {
      "channel": 4,
      "note": 65,
      "start": 5.836,
      "duration": 0.0987,
      "velocity": 100,
      "chip": "ym2612"
    },
    {
      "channel": 5,
      "note": 73,
      "start": 5.8843,
      "duration": 0.1012,
      "velocity": 100,
      "chip": "ym2612"
    },
    {
      "channel": 2,
      "note": 92,
      "start": 5.9684,
      "duration": 0.066,
      "velocity": 95,
      "chip": "ym2612"
    },
    {
      "channel": 3,
      "note": 77,
      "start": 5.9695,
      "duration": 0.0989,
      "velocity": 100,
      "chip": "ym2612"
    },
    {
      "channel": 4,
      "note": 68,
      "start": 5.9706,
      "duration": 0.0981,
      "velocity": 100,
      "chip": "ym2612"
    },
    {
      "channel": 5,
      "note": 77,
      "start": 6.0023,
      "duration": 0.1005,
      "velocity": 100,
      "chip": "ym2612"
    },
    {
      "channel": 0,
      "note": 42,
      "start": 6.0849,
      "duration": 0.9937,
      "velocity": 97,
      "chip": "ym2612"
    },
    {
      "channel": 2,
      "note": 109,
      "start": 6.0872,
      "duration": 0.0659,
      "velocity": 95,
      "chip": "ym2612"
    },
    {
      "channel": 3,
      "note": 73,
      "start": 6.0883,
      "duration": 0.0988,
      "velocity": 100,
      "chip": "ym2612"
    },
    {
      "channel": 4,
      "note": 66,
      "start": 6.0898,
      "duration": 0.0977,
      "velocity": 100,
      "chip": "ym2612"
    },
    {
      "channel": 5,
      "note": 73,
      "start": 6.1371,
      "duration": 0.1012,
      "velocity": 100,
      "chip": "ym2612"
    },
    {
      "channel": 2,
      "note": 108,
      "start": 6.2211,
      "duration": 0.066,
      "velocity": 95,
      "chip": "ym2612"
    },
    {
      "channel": 3,
      "note": 70,
      "start": 6.2227,
      "duration": 0.0986,
      "velocity": 100,
      "chip": "ym2612"
    },
    {
      "channel": 4,
      "note": 61,
      "start": 6.2237,
      "duration": 0.0979,
      "velocity": 100,
      "chip": "ym2612"
    },
    {
      "channel": 5,
      "note": 70,
      "start": 6.2555,
      "duration": 0.1005,
      "velocity": 100,
      "chip": "ym2612"
    },
    {
      "channel": 1,
      "note": 105,
      "start": 6.3388,
      "duration": 0.5043,
      "velocity": 80,
      "chip": "ym2612"
    },
    {
      "channel": 2,
      "note": 106,
      "start": 6.3397,
      "duration": 0.0665,
      "velocity": 95,
      "chip": "ym2612"
    },
    {
      "channel": 3,
      "note": 73,
      "start": 6.3408,
      "duration": 0.0994,
      "velocity": 100,
      "chip": "ym2612"
    },
    {
      "channel": 4,
      "note": 66,
      "start": 6.342,
      "duration": 0.0987,
      "velocity": 100,
      "chip": "ym2612"
    },
    {
      "channel": 5,
      "note": 73,
      "start": 6.3903,
      "duration": 0.1011,
      "velocity": 100,
      "chip": "ym2612"
    },
    {
      "channel": 2,
      "note": 104,
      "start": 6.4743,
      "duration": 0.0656,
      "velocity": 95,
      "chip": "ym2612"
    },
    {
      "channel": 3,
      "note": 78,
      "start": 6.4754,
      "duration": 0.0986,
      "velocity": 100,
      "chip": "ym2612"
    },
    {
      "channel": 4,
      "note": 70,
      "start": 6.4765,
      "duration": 0.0979,
      "velocity": 100,
      "chip": "ym2612"
    },
    {
      "channel": 5,
      "note": 78,
      "start": 6.508,
      "duration": 0.1003,
      "velocity": 100,
      "chip": "ym2612"
    },
    {
      "channel": 2,
      "note": 102,
      "start": 6.592,
      "duration": 0.0667,
      "velocity": 95,
      "chip": "ym2612"
    },
    {
      "channel": 3,
      "note": 82,
      "start": 6.5931,
      "duration": 0.0996,
      "velocity": 100,
      "chip": "ym2612"
    },
    {
      "channel": 4,
      "note": 73,
      "start": 6.5942,
      "duration": 0.0989,
      "velocity": 100,
      "chip": "ym2612"
    },
    {
      "channel": 5,
      "note": 82,
      "start": 6.6428,
      "duration": 0.1012,
      "velocity": 100,
      "chip": "ym2612"
    },
    {
      "channel": 2,
      "note": 101,
      "start": 6.7267,
      "duration": 0.066,
      "velocity": 95,
      "chip": "ym2612"
    },
    {
      "channel": 3,
      "note": 78,
      "start": 6.7278,
      "duration": 0.099,
      "velocity": 100,
      "chip": "ym2612"
    },
    {
      "channel": 4,
      "note": 70,
      "start": 6.7289,
      "duration": 0.0983,
      "velocity": 100,
      "chip": "ym2612"
    },
    {
      "channel": 5,
      "note": 78,
      "start": 6.7607,
      "duration": 0.1005,
      "velocity": 100,
      "chip": "ym2612"
    },
    {
      "channel": 1,
      "note": 105,
      "start": 6.844,
      "duration": 0.5047,
      "velocity": 80,
      "chip": "ym2612"
    },
    {
      "channel": 2,
      "note": 99,
      "start": 6.8449,
      "duration": 0.0666,
      "velocity": 95,
      "chip": "ym2612"
    },
    {
      "channel": 3,
      "note": 82,
      "start": 6.846,
      "duration": 0.0995,
      "velocity": 100,
      "chip": "ym2612"
    },
    {
      "channel": 4,
      "note": 73,
      "start": 6.8471,
      "duration": 0.0988,
      "velocity": 100,
      "chip": "ym2612"
    },
    {
      "channel": 5,
      "note": 82,
      "start": 6.8955,
      "duration": 0.1012,
      "velocity": 100,
      "chip": "ym2612"
    },
    {
      "channel": 2,
      "note": 97,
      "start": 6.9795,
      "duration": 0.0661,
      "velocity": 95,
      "chip": "ym2612"
    },
    {
      "channel": 3,
      "note": 85,
      "start": 6.9806,
      "duration": 0.099,
      "velocity": 100,
      "chip": "ym2612"
    },
    {
      "channel": 4,
      "note": 78,
      "start": 6.9817,
      "duration": 0.0983,
      "velocity": 100,
      "chip": "ym2612"
    },
    {
      "channel": 5,
      "note": 85,
      "start": 7.0135,
      "duration": 0.1005,
      "velocity": 100,
      "chip": "ym2612"
    },
    {
      "channel": 0,
      "note": 44,
      "start": 7.0962,
      "duration": 0.9937,
      "velocity": 97,
      "chip": "ym2612"
    },
    {
      "channel": 2,
      "note": 96,
      "start": 7.0984,
      "duration": 0.0659,
      "velocity": 95,
      "chip": "ym2612"
    },
    {
      "channel": 3,
      "note": 87,
      "start": 7.0995,
      "duration": 0.0988,
      "velocity": 100,
      "chip": "ym2612"
    },
    {
      "channel": 4,
      "note": 80,
      "start": 7.1006,
      "duration": 0.0981,
      "velocity": 100,
      "chip": "ym2612"
    },
    {
      "channel": 5,
      "note": 87,
      "start": 7.1483,
      "duration": 0.1005,
      "velocity": 100,
      "chip": "ym2612"
    },
    {
      "channel": 2,
      "note": 94,
      "start": 7.2323,
      "duration": 0.0661,
      "velocity": 95,
      "chip": "ym2612"
    },
    {
      "channel": 3,
      "note": 84,
      "start": 7.2334,
      "duration": 0.099,
      "velocity": 100,
      "chip": "ym2612"
    },
    {
      "channel": 4,
      "note": 75,
      "start": 7.2346,
      "duration": 0.0983,
      "velocity": 100,
      "chip": "ym2612"
    },
    {
      "channel": 5,
      "note": 84,
      "start": 7.267,
      "duration": 0.0998,
      "velocity": 100,
      "chip": "ym2612"
    },
    {
      "channel": 1,
      "note": 105,
      "start": 7.3496,
      "duration": 0.2519,
      "velocity": 80,
      "chip": "ym2612"
    },
    {
      "channel": 2,
      "note": 92,
      "start": 7.3505,
      "duration": 0.0666,
      "velocity": 95,
      "chip": "ym2612"
    },
    {
      "channel": 3,
      "note": 80,
      "start": 7.3516,
      "duration": 0.0995,
      "velocity": 100,
      "chip": "ym2612"
    },
    {
      "channel": 4,
      "note": 72,
      "start": 7.3528,
      "duration": 0.0987,
      "velocity": 100,
      "chip": "ym2612"
    },
    {
      "channel": 5,
      "note": 80,
      "start": 7.4011,
      "duration": 0.1005,
      "velocity": 100,
      "chip": "ym2612"
    },
    {
      "channel": 2,
      "note": 90,
      "start": 7.4851,
      "duration": 0.0661,
      "velocity": 95,
      "chip": "ym2612"
    },
    {
      "channel": 3,
      "note": 75,
      "start": 7.4862,
      "duration": 0.099,
      "velocity": 100,
      "chip": "ym2612"
    },
    {
      "channel": 4,
      "note": 68,
      "start": 7.4873,
      "duration": 0.0983,
      "velocity": 100,
      "chip": "ym2612"
    },
    {
      "channel": 5,
      "note": 75,
      "start": 7.5198,
      "duration": 0.0998,
      "velocity": 100,
      "chip": "ym2612"
    },
    {
      "channel": 1,
      "note": 105,
      "start": 7.6024,
      "duration": 0.2519,
      "velocity": 80,
      "chip": "ym2612"
    },
    {
      "channel": 2,
      "note": 89,
      "start": 7.6033,
      "duration": 0.0666,
      "velocity": 95,
      "chip": "ym2612"
    },
    {
      "channel": 3,
      "note": 72,
      "start": 7.6044,
      "duration": 0.0995,
      "velocity": 100,
      "chip": "ym2612"
    },
    {
      "channel": 4,
      "note": 63,
      "start": 7.6059,
      "duration": 0.0984,
      "velocity": 100,
      "chip": "ym2612"
    },
    {
      "channel": 5,
      "note": 72,
      "start": 7.654,
      "duration": 0.1004,
      "velocity": 100,
      "chip": "ym2612"
    },
    {
      "channel": 2,
      "note": 87,
      "start": 7.7379,
      "duration": 0.0661,
      "velocity": 95,
      "chip": "ym2612"
    },
    {
      "channel": 3,
      "note": 68,
      "start": 7.7394,
      "duration": 0.0987,
      "velocity": 100,
      "chip": "ym2612"
    },
    {
      "channel": 4,
      "note": 60,
      "start": 7.7405,
      "duration": 0.0981,
      "velocity": 100,
      "chip": "ym2612"
    },
    {
      "channel": 5,
      "note": 68,
      "start": 7.773,
      "duration": 0.0997,
      "velocity": 100,
      "chip": "ym2612"
    },
    {
      "channel": 1,
      "note": 105,
      "start": 7.8556,
      "duration": 0.5043,
      "velocity": 80,
      "chip": "ym2612"
    },
    {
      "channel": 2,
      "note": 85,
      "start": 7.8565,
      "duration": 0.0665,
      "velocity": 95,
      "chip": "ym2612"
    },
    {
      "channel": 3,
      "note": 72,
      "start": 7.8576,
      "duration": 0.0995,
      "velocity": 100,
      "chip": "ym2612"
    },
    {
      "channel": 4,
      "note": 63,
      "start": 7.8587,
      "duration": 0.0987,
      "velocity": 100,
      "chip": "ym2612"
    },
    {
      "channel": 5,
      "note": 72,
      "start": 7.9071,
      "duration": 0.1003,
      "velocity": 100,
      "chip": "ym2612"
    },
    {
      "channel": 2,
      "note": 84,
      "start": 7.991,
      "duration": 0.0658,
      "velocity": 95,
      "chip": "ym2612"
    },
    {
      "channel": 3,
      "note": 75,
      "start": 7.9921,
      "duration": 0.0987,
      "velocity": 100,
      "chip": "ym2612"
    },
    {
      "channel": 4,
      "note": 68,
      "start": 7.9932,
      "duration": 0.0981,
      "velocity": 100,
      "chip": "ym2612"
    },
    {
      "channel": 5,
      "note": 75,
      "start": 8.0254,
      "duration": 0.0998,
      "velocity": 100,
      "chip": "ym2612"
    },
    {
      "channel": 0,
      "note": 49,
      "start": 8.1075,
      "duration": 0.4037,
      "velocity": 97,
      "chip": "ym2612"
    },
    {
      "channel": 2,
      "note": 104,
      "start": 8.1098,
      "duration": 0.0656,
      "velocity": 95,
      "chip": "ym2612"
    },
    {
      "channel": 3,
      "note": 92,
      "start": 8.1123,
      "duration": 0.4,
      "velocity": 94,
      "chip": "ym2612"
    },
    {
      "channel": 4,
      "note": 73,
      "start": 8.1148,
      "duration": 0.3978,
      "velocity": 94,
      "chip": "ym2612"
    },
    {
      "channel": 5,
      "note": 92,
      "start": 8.1609,
      "duration": 0.3863,
      "velocity": 94,
      "chip": "ym2612"
    },
    {
      "channel": 2,
      "note": 101,
      "start": 8.2435,
      "duration": 0.0661,
      "velocity": 95,
      "chip": "ym2612"
    },
    {
      "channel": 1,
      "note": 105,
      "start": 8.3609,
      "duration": 0.5046,
      "velocity": 80,
      "chip": "ym2612"
    },
    {
      "channel": 2,
      "note": 97,
      "start": 8.3618,
      "duration": 0.0665,
      "velocity": 95,
      "chip": "ym2612"
    },
    {
      "channel": 2,
      "note": 92,
      "start": 8.4964,
      "duration": 0.066,
      "velocity": 95,
      "chip": "ym2612"
    },
    {
      "channel": 0,
      "note": 44,
      "start": 8.613,
      "duration": 0.4038,
      "velocity": 97,
      "chip": "ym2612"
    },
    {
      "channel": 2,
      "note": 104,
      "start": 8.6153,
      "duration": 0.0658,
      "velocity": 95,
      "chip": "ym2612"
    },
    {
      "channel": 3,
      "note": 89,
      "start": 8.6164,
      "duration": 0.0987,
      "velocity": 94,
      "chip": "ym2612"
    },
    {
      "channel": 4,
      "note": 68,
      "start": 8.6175,
      "duration": 0.098,
      "velocity": 94,
      "chip": "ym2612"
    },
    {
      "channel": 5,
      "note": 89,
      "start": 8.6652,
      "duration": 0.1004,
      "velocity": 94,
      "chip": "ym2612"
    },
    {
      "channel": 2,
      "note": 101,
      "start": 8.7491,
      "duration": 0.0668,
      "velocity": 95,
      "chip": "ym2612"
    },
    {
      "channel": 1,
      "note": 105,
      "start": 8.8664,
      "duration": 0.5047,
      "velocity": 80,
      "chip": "ym2612"
    },
    {
      "channel": 2,
      "note": 97,
      "start": 8.8673,
      "duration": 0.0665,
      "velocity": 95,
      "chip": "ym2612"
    },
    {
      "channel": 3,
      "note": 85,
      "start": 8.8684,
      "duration": 0.4022,
      "velocity": 94,
      "chip": "ym2612"
    },
    {
      "channel": 4,
      "note": 65,
      "start": 8.8695,
      "duration": 0.4014,
      "velocity": 94,
      "chip": "ym2612"
    },
    {
      "channel": 5,
      "note": 85,
      "start": 8.918,
      "duration": 0.387,
      "velocity": 94,
      "chip": "ym2612"
    },
    {
      "channel": 2,
      "note": 92,
      "start": 9.002,
      "duration": 0.0667,
      "velocity": 95,
      "chip": "ym2612"
    },
    {
      "channel": 0,
      "note": 49,
      "start": 9.1186,
      "duration": 0.4039,
      "velocity": 97,
      "chip": "ym2612"
    },
    {
      "channel": 2,
      "note": 104,
      "start": 9.1209,
      "duration": 0.0658,
      "velocity": 95,
      "chip": "ym2612"
    },
    {
      "channel": 2,
      "note": 101,
      "start": 9.2547,
      "duration": 0.0668,
      "velocity": 95,
      "chip": "ym2612"
    },
    {
      "channel": 1,
      "note": 105,
      "start": 9.3724,
      "duration": 0.2523,
      "velocity": 80,
      "chip": "ym2612"
    },
    {
      "channel": 2,
      "note": 97,
      "start": 9.3732,
      "duration": 0.0666,
      "velocity": 95,
      "chip": "ym2612"
    },
    {
      "channel": 3,
      "note": 85,
      "start": 9.3744,
      "duration": 0.2003,
      "velocity": 94,
      "chip": "ym2612"
    },
    {
      "channel": 4,
      "note": 65,
      "start": 9.3755,
      "duration": 0.1995,
      "velocity": 94,
      "chip": "ym2612"
    },
    {
      "channel": 5,
      "note": 85,
      "start": 9.4239,
      "duration": 0.2055,
      "velocity": 94,
      "chip": "ym2612"
    },
    {
      "channel": 2,
      "note": 92,
      "start": 9.5078,
      "duration": 0.0665,
      "velocity": 95,
      "chip": "ym2612"
    },
    {
      "channel": 0,
      "note": 44,
      "start": 9.6242,
      "duration": 0.4038,
      "velocity": 97,
      "chip": "ym2612"
    },
    {
      "channel": 1,
      "note": 105,
      "start": 9.6256,
      "duration": 0.2511,
      "velocity": 80,
      "chip": "ym2612"
    },
    {
      "channel": 2,
      "note": 104,
      "start": 9.6266,
      "duration": 0.0657,
      "velocity": 95,
      "chip": "ym2612"
    },
    {
      "channel": 3,
      "note": 84,
      "start": 9.6278,
      "duration": 0.1998,
      "velocity": 94,
      "chip": "ym2612"
    },
    {
      "channel": 4,
      "note": 64,
      "start": 9.6289,
      "duration": 0.199,
      "velocity": 94,
      "chip": "ym2612"
    },
    {
      "channel": 5,
      "note": 84,
      "start": 9.6764,
      "duration": 0.2048,
      "velocity": 94,
      "chip": "ym2612"
    },
    {
      "channel": 2,
      "note": 101,
      "start": 9.7604,
      "duration": 0.0667,
      "velocity": 95,
      "chip": "ym2612"
    },
    {
      "channel": 1,
      "note": 105,
      "start": 9.8776,
      "duration": 0.5046,
      "velocity": 80,
      "chip": "ym2612"
    },
    {
      "channel": 2,
      "note": 97,
      "start": 9.8786,
      "duration": 0.0666,
      "velocity": 95,
      "chip": "ym2612"
    },
    {
      "channel": 3,
      "note": 85,
      "start": 9.8797,
      "duration": 0.2006,
      "velocity": 94,
      "chip": "ym2612"
    },
    {
      "channel": 4,
      "note": 65,
      "start": 9.8808,
      "duration": 0.1999,
      "velocity": 94,
      "chip": "ym2612"
    },
    {
      "channel": 5,
      "note": 85,
      "start": 9.9292,
      "duration": 0.2056,
      "velocity": 94,
      "chip": "ym2612"
    },
    {
      "channel": 2,
      "note": 92,
      "start": 10.0132,
      "duration": 0.0667,
      "velocity": 95,
      "chip": "ym2612"
    },
    {
      "channel": 0,
      "note": 48,
      "start": 10.1298,
      "duration": 0.4038,
      "velocity": 97,
      "chip": "ym2612"
    },
    {
      "channel": 2,
      "note": 104,
      "start": 10.1321,
      "duration": 0.0658,
      "velocity": 95,
      "chip": "ym2612"
    },
    {
      "channel": 3,
      "note": 87,
      "start": 10.1332,
      "duration": 0.4015,
      "velocity": 94,
      "chip": "ym2612"
    },
    {
      "channel": 4,
      "note": 68,
      "start": 10.1343,
      "duration": 0.4007,
      "velocity": 94,
      "chip": "ym2612"
    },
    {
      "channel": 5,
      "note": 87,
      "start": 10.182,
      "duration": 0.387,
      "velocity": 94,
      "chip": "ym2612"
    },
    {
      "channel": 2,
      "note": 99,
      "start": 10.266,
      "duration": 0.0667,
      "velocity": 95,
      "chip": "ym2612"
    },
    {
      "channel": 1,
      "note": 105,
      "start": 10.3833,
      "duration": 0.5046,
      "velocity": 80,
      "chip": "ym2612"
    },
    {
      "channel": 2,
      "note": 96,
      "start": 10.3842,
      "duration": 0.0665,
      "velocity": 95,
      "chip": "ym2612"
    },
    {
      "channel": 2,
      "note": 92,
      "start": 10.5188,
      "duration": 0.0667,
      "velocity": 95,
      "chip": "ym2612"
    },
    {
      "channel": 0,
      "note": 44,
      "start": 10.6354,
      "duration": 0.4038,
      "velocity": 97,
      "chip": "ym2612"
    },
    {
      "channel": 2,
      "note": 104,
      "start": 10.6377,
      "duration": 0.0658,
      "velocity": 95,
      "chip": "ym2612"
    },
    {
      "channel": 3,
      "note": 84,
      "start": 10.6391,
      "duration": 0.0985,
      "velocity": 94,
      "chip": "ym2612"
    },
    {
      "channel": 4,
      "note": 63,
      "start": 10.6402,
      "duration": 0.0977,
      "velocity": 94,
      "chip": "ym2612"
    },
    {
      "channel": 5,
      "note": 84,
      "start": 10.6876,
      "duration": 0.1005,
      "velocity": 94,
      "chip": "ym2612"
    },
    {
      "channel": 2,
      "note": 99,
      "start": 10.7716,
      "duration": 0.0667,
      "velocity": 95,
      "chip": "ym2612"
    },
    {
      "channel": 1,
      "note": 105,
      "start": 10.8891,
      "duration": 0.5043,
      "velocity": 80,
      "chip": "ym2612"
    },
    {
      "channel": 2,
      "note": 96,
      "start": 10.8901,
      "duration": 0.0666,
      "velocity": 95,
      "chip": "ym2612"
    },
    {
      "channel": 3,
      "note": 80,
      "start": 10.8912,
      "duration": 0.4018,
      "velocity": 94,
      "chip": "ym2612"
    },
    {
      "channel": 4,
      "note": 60,
      "start": 10.8924,
      "duration": 0.401,
      "velocity": 94,
      "chip": "ym2612"
    },
    {
      "channel": 5,
      "note": 80,
      "start": 10.9407,
      "duration": 0.4042,
      "velocity": 94,
      "chip": "ym2612"
    },
    {
      "channel": 2,
      "note": 92,
      "start": 11.0244,
      "duration": 0.0667,
      "velocity": 95,
      "chip": "ym2612"
    },
    {
      "channel": 0,
      "note": 48,
      "start": 11.141,
      "duration": 0.4039,
      "velocity": 97,
      "chip": "ym2612"
    },
    {
      "channel": 2,
      "note": 104,
      "start": 11.1433,
      "duration": 0.0658,
      "velocity": 95,
      "chip": "ym2612"
    },
    {
      "channel": 2,
      "note": 99,
      "start": 11.2772,
      "duration": 0.0667,
      "velocity": 95,
      "chip": "ym2612"
    },
    {
      "channel": 1,
      "note": 105,
      "start": 11.3944,
      "duration": 0.2518,
      "velocity": 80,
      "chip": "ym2612"
    },
    {
      "channel": 2,
      "note": 96,
      "start": 11.3954,
      "duration": 0.0665,
      "velocity": 95,
      "chip": "ym2612"
    },
    {
      "channel": 3,
      "note": 80,
      "start": 11.3965,
      "duration": 0.2006,
      "velocity": 94,
      "chip": "ym2612"
    },
    {
      "channel": 4,
      "note": 60,
      "start": 11.3976,
      "duration": 0.1999,
      "velocity": 94,
      "chip": "ym2612"
    },
    {
      "channel": 5,
      "note": 80,
      "start": 11.4459,
      "duration": 0.2016,
      "velocity": 94,
      "chip": "ym2612"
    },
    {
      "channel": 2,
      "note": 92,
      "start": 11.53,
      "duration": 0.0667,
      "velocity": 95,
      "chip": "ym2612"
    },
    {
      "channel": 0,
      "note": 44,
      "start": 11.6634,
      "duration": 0.387,
      "velocity": 97,
      "chip": "ym2612"
    },
    {
      "channel": 1,
      "note": 105,
      "start": 11.6648,
      "duration": 0.2343,
      "velocity": 80,
      "chip": "ym2612"
    },
    {
      "channel": 2,
      "note": 104,
      "start": 11.6658,
      "duration": 0.0651,
      "velocity": 95,
      "chip": "ym2612"
    },
    {
      "channel": 3,
      "note": 84,
      "start": 11.6669,
      "duration": 0.183,
      "velocity": 94,
      "chip": "ym2612"
    },
    {
      "channel": 4,
      "note": 63,
      "start": 11.668,
      "duration": 0.1823,
      "velocity": 94,
      "chip": "ym2612"
    },
    {
      "channel": 5,
      "note": 84,
      "start": 11.6988,
      "duration": 0.2017,
      "velocity": 94,
      "chip": "ym2612"
    },
    {
      "channel": 2,
      "note": 99,
      "start": 11.7828,
      "duration": 0.0667,
      "velocity": 95,
      "chip": "ym2612"
    },
    {
      "channel": 1,
      "note": 105,
      "start": 11.9168,
      "duration": 0.4879,
      "velocity": 80,
      "chip": "ym2612"
    },
    {
      "channel": 2,
      "note": 96,
      "start": 11.9178,
      "duration": 0.0659,
      "velocity": 95,
      "chip": "ym2612"
    },
    {
      "channel": 3,
      "note": 87,
      "start": 11.9189,
      "duration": 0.1838,
      "velocity": 94,
      "chip": "ym2612"
    },
    {
      "channel": 4,
      "note": 68,
      "start": 11.9201,
      "duration": 0.183,
      "velocity": 94,
      "chip": "ym2612"
    },
    {
      "channel": 5,
      "note": 87,
      "start": 11.9515,
      "duration": 0.2015,
      "velocity": 94,
      "chip": "ym2612"
    },
    {
      "channel": 2,
      "note": 92,
      "start": 12.0356,
      "duration": 0.0667,
      "velocity": 95,
      "chip": "ym2612"
    },
    {
      "channel": 0,
      "note": 46,
      "start": 12.169,
      "duration": 0.387,
      "velocity": 97,
      "chip": "ym2612"
    },
    {
      "channel": 2,
      "note": 106,
      "start": 12.1713,
      "duration": 0.0651,
      "velocity": 95,
      "chip": "ym2612"
    },
    {
      "channel": 3,
      "note": 85,
      "start": 12.1728,
      "duration": 0.1831,
      "velocity": 94,
      "chip": "ym2612"
    },
    {
      "channel": 4,
      "note": 65,
      "start": 12.1739,
      "duration": 0.1823,
      "velocity": 94,
      "chip": "ym2612"
    },
    {
      "channel": 5,
      "note": 85,
      "start": 12.2044,
      "duration": 0.202,
      "velocity": 94,
      "chip": "ym2612"
    },
    {
      "channel": 2,
      "note": 101,
      "start": 12.2884,
      "duration": 0.0671,
      "velocity": 95,
      "chip": "ym2612"
    },
    {
      "channel": 1,
      "note": 105,
      "start": 12.4229,
      "duration": 0.4875,
      "velocity": 80,
      "chip": "ym2612"
    },
    {
      "channel": 2,
      "note": 97,
      "start": 12.4237,
      "duration": 0.0659,
      "velocity": 95,
      "chip": "ym2612"
    },
    {
      "channel": 3,
      "note": 82,
      "start": 12.4248,
      "duration": 0.1995,
      "velocity": 94,
      "chip": "ym2612"
    },
    {
      "channel": 4,
      "note": 61,
      "start": 12.426,
      "duration": 0.1988,
      "velocity": 94,
      "chip": "ym2612"
    },
    {
      "channel": 5,
      "note": 82,
      "start": 12.4575,
      "duration": 0.2011,
      "velocity": 94,
      "chip": "ym2612"
    },
    {
      "channel": 2,
      "note": 94,
      "start": 12.5412,
      "duration": 0.0667,
      "velocity": 95,
      "chip": "ym2612"
    },
    {
      "channel": 0,
      "note": 41,
      "start": 12.6746,
      "duration": 0.387,
      "velocity": 97,
      "chip": "ym2612"
    },
    {
      "channel": 2,
      "note": 106,
      "start": 12.6769,
      "duration": 0.0651,
      "velocity": 95,
      "chip": "ym2612"
    },
    {
      "channel": 3,
      "note": 85,
      "start": 12.678,
      "duration": 0.0981,
      "velocity": 94,
      "chip": "ym2612"
    },
    {
      "channel": 4,
      "note": 65,
      "start": 12.6792,
      "duration": 0.0973,
      "velocity": 94,
      "chip": "ym2612"
    },
    {
      "channel": 5,
      "note": 85,
      "start": 12.71,
      "duration": 0.1005,
      "velocity": 94,
      "chip": "ym2612"
    },
    {
      "channel": 2,
      "note": 101,
      "start": 12.794,
      "duration": 0.0667,
      "velocity": 95,
      "chip": "ym2612"
    },
    {
      "channel": 1,
      "note": 105,
      "start": 12.928,
      "duration": 0.4879,
      "velocity": 80,
      "chip": "ym2612"
    },
    {
      "channel": 2,
      "note": 97,
      "start": 12.9289,
      "duration": 0.066,
      "velocity": 95,
      "chip": "ym2612"
    },
    {
      "channel": 3,
      "note": 77,
      "start": 12.93,
      "duration": 0.3854,
      "velocity": 94,
      "chip": "ym2612"
    },
    {
      "channel": 4,
      "note": 58,
      "start": 12.9311,
      "duration": 0.3847,
      "velocity": 94,
      "chip": "ym2612"
    },
    {
      "channel": 5,
      "note": 77,
      "start": 12.9628,
      "duration": 0.4046,
      "velocity": 94,
      "chip": "ym2612"
    },
    {
      "channel": 2,
      "note": 94,
      "start": 13.0468,
      "duration": 0.0667,
      "velocity": 95,
      "chip": "ym2612"
    },
    {
      "channel": 0,
      "note": 46,
      "start": 13.1803,
      "duration": 0.387,
      "velocity": 97,
      "chip": "ym2612"
    },
    {
      "channel": 2,
      "note": 106,
      "start": 13.1825,
      "duration": 0.0651,
      "velocity": 95,
      "chip": "ym2612"
    },
    {
      "channel": 2,
      "note": 101,
      "start": 13.2996,
      "duration": 0.0668,
      "velocity": 95,
      "chip": "ym2612"
    },
    {
      "channel": 1,
      "note": 105,
      "start": 13.4336,
      "duration": 0.2351,
      "velocity": 80,
      "chip": "ym2612"
    },
    {
      "channel": 2,
      "note": 97,
      "start": 13.4345,
      "duration": 0.066,
      "velocity": 95,
      "chip": "ym2612"
    },
    {
      "channel": 3,
      "note": 77,
      "start": 13.4356,
      "duration": 0.2,
      "velocity": 94,
      "chip": "ym2612"
    },
    {
      "channel": 4,
      "note": 58,
      "start": 13.4367,
      "duration": 0.1992,
      "velocity": 94,
      "chip": "ym2612"
    },
    {
      "channel": 5,
      "note": 77,
      "start": 13.4691,
      "duration": 0.2009,
      "velocity": 94,
      "chip": "ym2612"
    },
    {
      "channel": 2,
      "note": 94,
      "start": 13.5524,
      "duration": 0.0667,
      "velocity": 95,
      "chip": "ym2612"
    },
    {
      "channel": 0,
      "note": 41,
      "start": 13.6859,
      "duration": 0.387,
      "velocity": 97,
      "chip": "ym2612"
    },
    {
      "channel": 1,
      "note": 105,
      "start": 13.6872,
      "duration": 0.2344,
      "velocity": 80,
      "chip": "ym2612"
    },
    {
      "channel": 2,
      "note": 106,
      "start": 13.6883,
      "duration": 0.065,
      "velocity": 95,
      "chip": "ym2612"
    },
    {
      "channel": 3,
      "note": 82,
      "start": 13.6897,
      "duration": 0.1989,
      "velocity": 94,
      "chip": "ym2612"
    },
    {
      "channel": 4,
      "note": 61,
      "start": 13.6909,
      "duration": 0.1983,
      "velocity": 94,
      "chip": "ym2612"
    },
    {
      "channel": 5,
      "note": 82,
      "start": 13.7223,
      "duration": 0.2009,
      "velocity": 94,
      "chip": "ym2612"
    },
    {
      "channel": 2,
      "note": 101,
      "start": 13.8056,
      "duration": 0.0667,
      "velocity": 95,
      "chip": "ym2612"
    },
    {
      "channel": 1,
      "note": 105,
      "start": 13.9396,
      "duration": 0.4875,
      "velocity": 80,
      "chip": "ym2612"
    },
    {
      "channel": 2,
      "note": 97,
      "start": 13.9405,
      "duration": 0.0658,
      "velocity": 95,
      "chip": "ym2612"
    },
    {
      "channel": 3,
      "note": 85,
      "start": 13.9416,
      "duration": 0.1995,
      "velocity": 94,
      "chip": "ym2612"
    },
    {
      "channel": 4,
      "note": 65,
      "start": 13.9428,
      "duration": 0.1988,
      "velocity": 94,
      "chip": "ym2612"
    },
    {
      "channel": 5,
      "note": 85,
      "start": 13.9751,
      "duration": 0.2005,
      "velocity": 94,
      "chip": "ym2612"
    },
    {
      "channel": 2,
      "note": 94,
      "start": 14.058,
      "duration": 0.0667,
      "velocity": 95,
      "chip": "ym2612"
    },
    {
      "channel": 0,
      "note": 44,
      "start": 14.1915,
      "duration": 0.387,
      "velocity": 97,
      "chip": "ym2612"
    },
    {
      "channel": 2,
      "note": 104,
      "start": 14.1937,
      "duration": 0.0651,
      "velocity": 95,
      "chip": "ym2612"
    },
    {
      "channel": 2,
      "note": 99,
      "start": 14.3108,
      "duration": 0.0668,
      "velocity": 95,
      "chip": "ym2612"
    },
    {
      "channel": 1,
      "note": 105,
      "start": 14.4449,
      "duration": 0.5046,
      "velocity": 80,
      "chip": "ym2612"
    },
    {
      "channel": 2,
      "note": 96,
      "start": 14.4459,
      "duration": 0.0665,
      "velocity": 95,
      "chip": "ym2612"
    },
    {
      "channel": 3,
      "note": 84,
      "start": 14.447,
      "duration": 0.1998,
      "velocity": 94,
      "chip": "ym2612"
    },
    {
      "channel": 4,
      "note": 63,
      "start": 14.4481,
      "duration": 0.199,
      "velocity": 94,
      "chip": "ym2612"
    },
    {
      "channel": 5,
      "note": 84,
      "start": 14.4803,
      "duration": 0.2008,
      "velocity": 94,
      "chip": "ym2612"
    },
    {
      "channel": 2,
      "note": 92,
      "start": 14.5636,
      "duration": 0.0667,
      "velocity": 95,
      "chip": "ym2612"
    },
    {
      "channel": 0,
      "note": 51,
      "start": 14.6971,
      "duration": 0.387,
      "velocity": 97,
      "chip": "ym2612"
    },
    {
      "channel": 2,
      "note": 104,
      "start": 14.6994,
      "duration": 0.0658,
      "velocity": 95,
      "chip": "ym2612"
    },
    {
      "channel": 2,
      "note": 99,
      "start": 14.8164,
      "duration": 0.0667,
      "velocity": 95,
      "chip": "ym2612"
    },
    {
      "channel": 1,
      "note": 105,
      "start": 14.9505,
      "duration": 0.5051,
      "velocity": 80,
      "chip": "ym2612"
    },
    {
      "channel": 2,
      "note": 96,
      "start": 14.9514,
      "duration": 0.0665,
      "velocity": 95,
      "chip": "ym2612"
    },
    {
      "channel": 3,
      "note": 84,
      "start": 14.9526,
      "duration": 0.1998,
      "velocity": 94,
      "chip": "ym2612"
    },
    {
      "channel": 4,
      "note": 63,
      "start": 14.9537,
      "duration": 0.199,
      "velocity": 94,
      "chip": "ym2612"
    },
    {
      "channel": 5,
      "note": 84,
      "start": 14.9859,
      "duration": 0.2008,
      "velocity": 94,
      "chip": "ym2612"
    },
    {
      "channel": 2,
      "note": 92,
      "start": 15.0692,
      "duration": 0.0667,
      "velocity": 95,
      "chip": "ym2612"
    },
    {
      "channel": 0,
      "note": 44,
      "start": 15.2027,
      "duration": 0.387,
      "velocity": 97,
      "chip": "ym2612"
    },
    {
      "channel": 2,
      "note": 104,
      "start": 15.205,
      "duration": 0.0658,
      "velocity": 95,
      "chip": "ym2612"
    },
    {
      "channel": 3,
      "note": 80,
      "start": 15.2064,
      "duration": 0.1991,
      "velocity": 94,
      "chip": "ym2612"
    },
    {
      "channel": 4,
      "note": 60,
      "start": 15.2075,
      "duration": 0.1984,
      "velocity": 94,
      "chip": "ym2612"
    },
    {
      "channel": 5,
      "note": 80,
      "start": 15.2391,
      "duration": 0.2008,
      "velocity": 94,
      "chip": "ym2612"
    },
    {
      "channel": 2,
      "note": 99,
      "start": 15.3224,
      "duration": 0.0668,
      "velocity": 95,
      "chip": "ym2612"
    },
    {
      "channel": 1,
      "note": 105,
      "start": 15.4564,
      "duration": 0.2523,
      "velocity": 80,
      "chip": "ym2612"
    },
    {
      "channel": 2,
      "note": 96,
      "start": 15.4574,
      "duration": 0.0663,
      "velocity": 95,
      "chip": "ym2612"
    },
    {
      "channel": 3,
      "note": 84,
      "start": 15.4585,
      "duration": 0.1995,
      "velocity": 94,
      "chip": "ym2612"
    },
    {
      "channel": 4,
      "note": 63,
      "start": 15.4596,
      "duration": 0.1988,
      "velocity": 94,
      "chip": "ym2612"
    },
    {
      "channel": 5,
      "note": 84,
      "start": 15.4919,
      "duration": 0.2004,
      "velocity": 94,
      "chip": "ym2612"
    },
    {
      "channel": 2,
      "note": 92,
      "start": 15.5748,
      "duration": 0.0667,
      "velocity": 95,
      "chip": "ym2612"
    },
    {
      "channel": 0,
      "note": 51,
      "start": 15.7083,
      "duration": 0.3869,
      "velocity": 97,
      "chip": "ym2612"
    },
    {
      "channel": 1,
      "note": 105,
      "start": 15.7097,
      "duration": 0.2511,
      "velocity": 80,
      "chip": "ym2612"
    },
    {
      "channel": 2,
      "note": 104,
      "start": 15.7107,
      "duration": 0.0656,
      "velocity": 95,
      "chip": "ym2612"
    },
    {
      "channel": 3,
      "note": 87,
      "start": 15.7119,
      "duration": 0.199,
      "velocity": 94,
      "chip": "ym2612"
    },
    {
      "channel": 4,
      "note": 68,
      "start": 15.713,
      "duration": 0.1982,
      "velocity": 94,
      "chip": "ym2612"
    },
    {
      "channel": 5,
      "note": 87,
      "start": 15.7443,
      "duration": 0.2008,
      "velocity": 94,
      "chip": "ym2612"
    },
    {
      "channel": 2,
      "note": 99,
      "start": 15.8276,
      "duration": 0.0667,
      "velocity": 95,
      "chip": "ym2612"
    },
    {
      "channel": 1,
      "note": 105,
      "start": 15.9617,
      "duration": 0.5046,
      "velocity": 80,
      "chip": "ym2612"
    },
    {
      "channel": 2,
      "note": 96,
      "start": 15.9627,
      "duration": 0.0666,
      "velocity": 95,
      "chip": "ym2612"
    },
    {
      "channel": 3,
      "note": 92,
      "start": 15.9638,
      "duration": 0.1998,
      "velocity": 94,
      "chip": "ym2612"
    },
    {
      "channel": 4,
      "note": 72,
      "start": 15.965,
      "duration": 0.199,
      "velocity": 94,
      "chip": "ym2612"
    },
    {
      "channel": 5,
      "note": 92,
      "start": 15.9972,
      "duration": 0.2007,
      "velocity": 94,
      "chip": "ym2612"
    },
    {
      "channel": 2,
      "note": 92,
      "start": 16.0804,
      "duration": 0.0667,
      "velocity": 95,
      "chip": "ym2612"
    },
    {
      "channel": 0,
      "note": 42,
      "start": 16.2139,
      "duration": 0.4038,
      "velocity": 97,
      "chip": "ym2612"
    },
    {
      "channel": 2,
      "note": 102,
      "start": 16.2161,
      "duration": 0.0659,
      "velocity": 95,
      "chip": "ym2612"
    },
    {
      "channel": 3,
      "note": 90,
      "start": 16.2173,
      "duration": 0.4022,
      "velocity": 94,
      "chip": "ym2612"
    },
    {
      "channel": 4,
      "note": 73,
      "start": 16.2183,
      "duration": 0.4015,
      "velocity": 94,
      "chip": "ym2612"
    },
    {
      "channel": 5,
      "note": 90,
      "start": 16.2499,
      "duration": 0.4039,
      "velocity": 94,
      "chip": "ym2612"
    },
    {
      "channel": 2,
      "note": 97,
      "start": 16.3332,
      "duration": 0.0667,
      "velocity": 95,
      "chip": "ym2612"
    },
    {
      "channel": 1,
      "note": 105,
      "start": 16.4674,
      "duration": 0.505,
      "velocity": 80,
      "chip": "ym2612"
    },
    {
      "channel": 2,
      "note": 94,
      "start": 16.4683,
      "duration": 0.0665,
      "velocity": 95,
      "chip": "ym2612"
    },
    {
      "channel": 2,
      "note": 90,
      "start": 16.586,
      "duration": 0.0667,
      "velocity": 95,
      "chip": "ym2612"
    },
    {
      "channel": 0,
      "note": 46,
      "start": 16.7195,
      "duration": 0.4038,
      "velocity": 97,
      "chip": "ym2612"
    },
    {
      "channel": 2,
      "note": 102,
      "start": 16.7219,
      "duration": 0.0657,
      "velocity": 95,
      "chip": "ym2612"
    },
    {
      "channel": 3,
      "note": 85,
      "start": 16.7232,
      "duration": 0.0984,
      "velocity": 94,
      "chip": "ym2612"
    },
    {
      "channel": 4,
      "note": 70,
      "start": 16.7243,
      "duration": 0.098,
      "velocity": 94,
      "chip": "ym2612"
    },
    {
      "channel": 5,
      "note": 85,
      "start": 16.7559,
      "duration": 0.0998,
      "velocity": 94,
      "chip": "ym2612"
    },
    {
      "channel": 2,
      "note": 97,
      "start": 16.8392,
      "duration": 0.0667,
      "velocity": 95,
      "chip": "ym2612"
    },
    {
      "channel": 1,
      "note": 105,
      "start": 16.9732,
      "duration": 0.5043,
      "velocity": 80,
      "chip": "ym2612"
    },
    {
      "channel": 2,
      "note": 94,
      "start": 16.9742,
      "duration": 0.0662,
      "velocity": 95,
      "chip": "ym2612"
    },
    {
      "channel": 3,
      "note": 90,
      "start": 16.9753,
      "duration": 0.4025,
      "velocity": 94,
      "chip": "ym2612"
    },
    {
      "channel": 4,
      "note": 73,
      "start": 16.9764,
      "duration": 0.4018,
      "velocity": 94,
      "chip": "ym2612"
    },
    {
      "channel": 5,
      "note": 90,
      "start": 17.0087,
      "duration": 0.4034,
      "velocity": 94,
      "chip": "ym2612"
    },
    {
      "channel": 2,
      "note": 90,
      "start": 17.0916,
      "duration": 0.0667,
      "velocity": 95,
      "chip": "ym2612"
    },
    {
      "channel": 0,
      "note": 42,
      "start": 17.2251,
      "duration": 0.4039,
      "velocity": 97,
      "chip": "ym2612"
    },
    {
      "channel": 2,
      "note": 102,
      "start": 17.2274,
      "duration": 0.0659,
      "velocity": 95,
      "chip": "ym2612"
    },
    {
      "channel": 2,
      "note": 97,
      "start": 17.3613,
      "duration": 0.066,
      "velocity": 95,
      "chip": "ym2612"
    },
    {
      "channel": 1,
      "note": 105,
      "start": 17.4785,
      "duration": 0.2527,
      "velocity": 80,
      "chip": "ym2612"
    },
    {
      "channel": 2,
      "note": 94,
      "start": 17.4794,
      "duration": 0.0666,
      "velocity": 95,
      "chip": "ym2612"
    },
    {
      "channel": 3,
      "note": 94,
      "start": 17.4805,
      "duration": 0.2,
      "velocity": 94,
      "chip": "ym2612"
    },
    {
      "channel": 4,
      "note": 78,
      "start": 17.4816,
      "duration": 0.1992,
      "velocity": 94,
      "chip": "ym2612"
    },
    {
      "channel": 5,
      "note": 94,
      "start": 17.53,
      "duration": 0.1847,
      "velocity": 94,
      "chip": "ym2612"
    },
    {
      "channel": 2,
      "note": 90,
      "start": 17.6141,
      "duration": 0.066,
      "velocity": 95,
      "chip": "ym2612"
    },
    {
      "channel": 0,
      "note": 46,
      "start": 17.7307,
      "duration": 0.4039,
      "velocity": 97,
      "chip": "ym2612"
    },
    {
      "channel": 1,
      "note": 105,
      "start": 17.7321,
      "duration": 0.2511,
      "velocity": 80,
      "chip": "ym2612"
    },
    {
      "channel": 2,
      "note": 102,
      "start": 17.7332,
      "duration": 0.0657,
      "velocity": 95,
      "chip": "ym2612"
    },
    {
      "channel": 3,
      "note": 92,
      "start": 17.7342,
      "duration": 0.199,
      "velocity": 94,
      "chip": "ym2612"
    },
    {
      "channel": 4,
      "note": 73,
      "start": 17.7354,
      "duration": 0.1983,
      "velocity": 94,
      "chip": "ym2612"
    },
    {
      "channel": 5,
      "note": 92,
      "start": 17.7828,
      "duration": 0.1847,
      "velocity": 94,
      "chip": "ym2612"
    },
    {
      "channel": 2,
      "note": 97,
      "start": 17.8669,
      "duration": 0.066,
      "velocity": 95,
      "chip": "ym2612"
    },
    {
      "channel": 1,
      "note": 105,
      "start": 17.9842,
      "duration": 0.505,
      "velocity": 80,
      "chip": "ym2612"
    },
    {
      "channel": 2,
      "note": 94,
      "start": 17.9851,
      "duration": 0.0665,
      "velocity": 95,
      "chip": "ym2612"
    },
    {
      "channel": 3,
      "note": 90,
      "start": 17.9861,
      "duration": 0.2,
      "velocity": 94,
      "chip": "ym2612"
    },
    {
      "channel": 4,
      "note": 70,
      "start": 17.9873,
      "duration": 0.1992,
      "velocity": 94,
      "chip": "ym2612"
    },
    {
      "channel": 5,
      "note": 90,
      "start": 18.0356,
      "duration": 0.206,
      "velocity": 94,
      "chip": "ym2612"
    },
    {
      "channel": 2,
      "note": 90,
      "start": 18.1197,
      "duration": 0.066,
      "velocity": 95,
      "chip": "ym2612"
    },
    {
      "channel": 0,
      "note": 41,
      "start": 18.2363,
      "duration": 0.4038,
      "velocity": 97,
      "chip": "ym2612"
    },
    {
      "channel": 2,
      "note": 104,
      "start": 18.239,
      "duration": 0.0654,
      "velocity": 95,
      "chip": "ym2612"
    },
    {
      "channel": 3,
      "note": 89,
      "start": 18.24,
      "duration": 0.4019,
      "velocity": 94,
      "chip": "ym2612"
    },
    {
      "channel": 4,
      "note": 73,
      "start": 18.2412,
      "duration": 0.4011,
      "velocity": 94,
      "chip": "ym2612"
    },
    {
      "channel": 5,
      "note": 89,
      "start": 18.2888,
      "duration": 0.3873,
      "velocity": 94,
      "chip": "ym2612"
    },
    {
      "channel": 2,
      "note": 101,
      "start": 18.3729,
      "duration": 0.066,
      "velocity": 95,
      "chip": "ym2612"
    },
    {
      "channel": 1,
      "note": 105,
      "start": 18.4902,
      "duration": 0.5043,
      "velocity": 80,
      "chip": "ym2612"
    },
    {
      "channel": 2,
      "note": 97,
      "start": 18.491,
      "duration": 0.0662,
      "velocity": 95,
      "chip": "ym2612"
    },
    {
      "channel": 2,
      "note": 92,
      "start": 18.6253,
      "duration": 0.066,
      "velocity": 95,
      "chip": "ym2612"
    },
    {
      "channel": 0,
      "note": 44,
      "start": 18.7419,
      "duration": 0.4039,
      "velocity": 97,
      "chip": "ym2612"
    },
    {
      "channel": 2,
      "note": 104,
      "start": 18.7442,
      "duration": 0.0658,
      "velocity": 95,
      "chip": "ym2612"
    },
    {
      "channel": 3,
      "note": 85,
      "start": 18.7452,
      "duration": 0.0988,
      "velocity": 94,
      "chip": "ym2612"
    },
    {
      "channel": 4,
      "note": 68,
      "start": 18.7464,
      "duration": 0.098,
      "velocity": 94,
      "chip": "ym2612"
    },
    {
      "channel": 5,
      "note": 85,
      "start": 18.794,
      "duration": 0.1005,
      "velocity": 94,
      "chip": "ym2612"
    },
    {
      "channel": 2,
      "note": 101,
      "start": 18.8781,
      "duration": 0.0661,
      "velocity": 95,
      "chip": "ym2612"
    },
    {
      "channel": 1,
      "note": 105,
      "start": 18.9953,
      "duration": 0.5047,
      "velocity": 80,
      "chip": "ym2612"
    },
    {
      "channel": 2,
      "note": 97,
      "start": 18.9962,
      "duration": 0.0666,
      "velocity": 95,
      "chip": "ym2612"
    },
    {
      "channel": 3,
      "note": 89,
      "start": 18.9973,
      "duration": 0.4022,
      "velocity": 94,
      "chip": "ym2612"
    },
    {
      "channel": 4,
      "note": 73,
      "start": 18.9985,
      "duration": 0.4014,
      "velocity": 94,
      "chip": "ym2612"
    },
    {
      "channel": 5,
      "note": 89,
      "start": 19.0468,
      "duration": 0.3877,
      "velocity": 94,
      "chip": "ym2612"
    },
    {
      "channel": 2,
      "note": 92,
      "start": 19.1309,
      "duration": 0.066,
      "velocity": 95,
      "chip": "ym2612"
    },
    {
      "channel": 0,
      "note": 41,
      "start": 19.2475,
      "duration": 0.4038,
      "velocity": 97,
      "chip": "ym2612"
    },
    {
      "channel": 2,
      "note": 104,
      "start": 19.2498,
      "duration": 0.0658,
      "velocity": 95,
      "chip": "ym2612"
    },
    {
      "channel": 2,
      "note": 101,
      "start": 19.3837,
      "duration": 0.0661,
      "velocity": 95,
      "chip": "ym2612"
    },
    {
      "channel": 1,
      "note": 105,
      "start": 19.5009,
      "duration": 0.2527,
      "velocity": 80,
      "chip": "ym2612"
    },
    {
      "channel": 2,
      "note": 97,
      "start": 19.5018,
      "duration": 0.0666,
      "velocity": 95,
      "chip": "ym2612"
    },
    {
      "channel": 3,
      "note": 92,
      "start": 19.5029,
      "duration": 0.1999,
      "velocity": 94,
      "chip": "ym2612"
    },
    {
      "channel": 4,
      "note": 77,
      "start": 19.504,
      "duration": 0.1992,
      "velocity": 94,
      "chip": "ym2612"
    },
    {
      "channel": 5,
      "note": 92,
      "start": 19.5525,
      "duration": 0.2061,
      "velocity": 94,
      "chip": "ym2612"
    },
    {
      "channel": 2,
      "note": 92,
      "start": 19.6365,
      "duration": 0.066,
      "velocity": 95,
      "chip": "ym2612"
    },
    {
      "channel": 0,
      "note": 44,
      "start": 19.7531,
      "duration": 0.4038,
      "velocity": 97,
      "chip": "ym2612"
    },
    {
      "channel": 1,
      "note": 105,
      "start": 19.7545,
      "duration": 0.2515,
      "velocity": 80,
      "chip": "ym2612"
    },
    {
      "channel": 2,
      "note": 104,
      "start": 19.7559,
      "duration": 0.0653,
      "velocity": 95,
      "chip": "ym2612"
    },
    {
      "channel": 3,
      "note": 90,
      "start": 19.757,
      "duration": 0.199,
      "velocity": 94,
      "chip": "ym2612"
    },
    {
      "channel": 4,
      "note": 73,
      "start": 19.7582,
      "duration": 0.1983,
      "velocity": 94,
      "chip": "ym2612"
    },
    {
      "channel": 5,
      "note": 90,
      "start": 19.8057,
      "duration": 0.2049,
      "velocity": 94,
      "chip": "ym2612"
    },
    {
      "channel": 2,
      "note": 101,
      "start": 19.8897,
      "duration": 0.066,
      "velocity": 95,
      "chip": "ym2612"
    },
    {
      "channel": 1,
      "note": 105,
      "start": 20.007,
      "duration": 0.5043,
      "velocity": 80,
      "chip": "ym2612"
    },
    {
      "channel": 2,
      "note": 97,
      "start": 20.0078,
      "duration": 0.0661,
      "velocity": 95,
      "chip": "ym2612"
    },
    {
      "channel": 3,
      "note": 89,
      "start": 20.009,
      "duration": 0.2003,
      "velocity": 94,
      "chip": "ym2612"
    },
    {
      "channel": 4,
      "note": 68,
      "start": 20.0101,
      "duration": 0.1995,
      "velocity": 94,
      "chip": "ym2612"
    },
    {
      "channel": 5,
      "note": 89,
      "start": 20.0581,
      "duration": 0.2056,
      "velocity": 94,
      "chip": "ym2612"
    },
    {
      "channel": 2,
      "note": 92,
      "start": 20.1421,
      "duration": 0.0667,
      "velocity": 95,
      "chip": "ym2612"
    },
    {
      "channel": 0,
      "note": 51,
      "start": 20.2587,
      "duration": 0.4038,
      "velocity": 97,
      "chip": "ym2612"
    },
    {
      "channel": 2,
      "note": 106,
      "start": 20.261,
      "duration": 0.0659,
      "velocity": 95,
      "chip": "ym2612"
    },
    {
      "channel": 3,
      "note": 90,
      "start": 20.2621,
      "duration": 0.4015,
      "velocity": 94,
      "chip": "ym2612"
    },
    {
      "channel": 4,
      "note": 70,
      "start": 20.2632,
      "duration": 0.4007,
      "velocity": 94,
      "chip": "ym2612"
    },
    {
      "channel": 5,
      "note": 90,
      "start": 20.3109,
      "duration": 0.3869,
      "velocity": 94,
      "chip": "ym2612"
    },
    {
      "channel": 2,
      "note": 102,
      "start": 20.3949,
      "duration": 0.0668,
      "velocity": 95,
      "chip": "ym2612"
    },
    {
      "channel": 1,
      "note": 105,
      "start": 20.5122,
      "duration": 0.5046,
      "velocity": 80,
      "chip": "ym2612"
    },
    {
      "channel": 2,
      "note": 99,
      "start": 20.5131,
      "duration": 0.0665,
      "velocity": 95,
      "chip": "ym2612"
    },
    {
      "channel": 2,
      "note": 94,
      "start": 20.6477,
      "duration": 0.0667,
      "velocity": 95,
      "chip": "ym2612"
    },
    {
      "channel": 0,
      "note": 42,
      "start": 20.7643,
      "duration": 0.4038,
      "velocity": 97,
      "chip": "ym2612"
    },
    {
      "channel": 2,
      "note": 106,
      "start": 20.7666,
      "duration": 0.0658,
      "velocity": 95,
      "chip": "ym2612"
    },
    {
      "channel": 3,
      "note": 90,
      "start": 20.7677,
      "duration": 0.4015,
      "velocity": 94,
      "chip": "ym2612"
    },
    {
      "channel": 4,
      "note": 70,
      "start": 20.7688,
      "duration": 0.4007,
      "velocity": 94,
      "chip": "ym2612"
    },
    {
      "channel": 5,
      "note": 90,
      "start": 20.8165,
      "duration": 0.3869,
      "velocity": 94,
      "chip": "ym2612"
    },
    {
      "channel": 2,
      "note": 102,
      "start": 20.9005,
      "duration": 0.0667,
      "velocity": 95,
      "chip": "ym2612"
    },
    {
      "channel": 1,
      "note": 105,
      "start": 21.0177,
      "duration": 0.505,
      "velocity": 80,
      "chip": "ym2612"
    },
    {
      "channel": 2,
      "note": 99,
      "start": 21.0187,
      "duration": 0.0665,
      "velocity": 95,
      "chip": "ym2612"
    },
    {
      "channel": 2,
      "note": 94,
      "start": 21.1533,
      "duration": 0.0667,
      "velocity": 95,
      "chip": "ym2612"
    },
    {
      "channel": 0,
      "note": 51,
      "start": 21.2699,
      "duration": 0.4038,
      "velocity": 97,
      "chip": "ym2612"
    },
    {
      "channel": 2,
      "note": 106,
      "start": 21.2725,
      "duration": 0.0655,
      "velocity": 95,
      "chip": "ym2612"
    },
    {
      "channel": 3,
      "note": 89,
      "start": 21.2736,
      "duration": 0.4011,
      "velocity": 94,
      "chip": "ym2612"
    },
    {
      "channel": 4,
      "note": 68,
      "start": 21.2748,
      "duration": 0.4004,
      "velocity": 94,
      "chip": "ym2612"
    },
    {
      "channel": 5,
      "note": 89,
      "start": 21.3225,
      "duration": 0.3865,
      "velocity": 94,
      "chip": "ym2612"
    },
    {
      "channel": 2,
      "note": 102,
      "start": 21.4064,
      "duration": 0.0668,
      "velocity": 95,
      "chip": "ym2612"
    },
    {
      "channel": 1,
      "note": 105,
      "start": 21.5236,
      "duration": 0.2523,
      "velocity": 80,
      "chip": "ym2612"
    },
    {
      "channel": 2,
      "note": 99,
      "start": 21.5245,
      "duration": 0.0663,
      "velocity": 95,
      "chip": "ym2612"
    },
    {
      "channel": 2,
      "note": 94,
      "start": 21.6589,
      "duration": 0.0667,
      "velocity": 95,
      "chip": "ym2612"
    },
    {
      "channel": 0,
      "note": 42,
      "start": 21.7755,
      "duration": 0.4038,
      "velocity": 97,
      "chip": "ym2612"
    },
    {
      "channel": 1,
      "note": 105,
      "start": 21.7769,
      "duration": 0.2511,
      "velocity": 80,
      "chip": "ym2612"
    },
    {
      "channel": 2,
      "note": 106,
      "start": 21.7779,
      "duration": 0.0657,
      "velocity": 95,
      "chip": "ym2612"
    },
    {
      "channel": 3,
      "note": 87,
      "start": 21.7791,
      "duration": 0.4013,
      "velocity": 94,
      "chip": "ym2612"
    },
    {
      "channel": 4,
      "note": 66,
      "start": 21.7802,
      "duration": 0.4005,
      "velocity": 94,
      "chip": "ym2612"
    },
    {
      "channel": 5,
      "note": 87,
      "start": 21.8277,
      "duration": 0.387,
      "velocity": 94,
      "chip": "ym2612"
    },
    {
      "channel": 2,
      "note": 102,
      "start": 21.9117,
      "duration": 0.0667,
      "velocity": 95,
      "chip": "ym2612"
    },
    {
      "channel": 1,
      "note": 105,
      "start": 22.029,
      "duration": 0.5046,
      "velocity": 80,
      "chip": "ym2612"
    },
    {
      "channel": 2,
      "note": 99,
      "start": 22.0299,
      "duration": 0.0666,
      "velocity": 95,
      "chip": "ym2612"
    },
    {
      "channel": 2,
      "note": 94,
      "start": 22.1645,
      "duration": 0.0667,
      "velocity": 95,
      "chip": "ym2612"
    },
    {
      "channel": 0,
      "note": 44,
      "start": 22.2811,
      "duration": 0.4039,
      "velocity": 97,
      "chip": "ym2612"
    },
    {
      "channel": 2,
      "note": 109,
      "start": 22.2834,
      "duration": 0.0658,
      "velocity": 95,
      "chip": "ym2612"
    },
    {
      "channel": 3,
      "note": 85,
      "start": 22.2845,
      "duration": 0.4015,
      "velocity": 94,
      "chip": "ym2612"
    },
    {
      "channel": 4,
      "note": 68,
      "start": 22.2857,
      "duration": 0.6038,
      "velocity": 94,
      "chip": "ym2612"
    },
    {
      "channel": 5,
      "note": 85,
      "start": 22.3333,
      "duration": 0.4046,
      "velocity": 94,
      "chip": "ym2612"
    },
    {
      "channel": 2,
      "note": 108,
      "start": 22.4173,
      "duration": 0.0667,
      "velocity": 95,
      "chip": "ym2612"
    },
    {
      "channel": 1,
      "note": 105,
      "start": 22.5346,
      "duration": 0.5048,
      "velocity": 80,
      "chip": "ym2612"
    },
    {
      "channel": 2,
      "note": 106,
      "start": 22.5356,
      "duration": 0.0665,
      "velocity": 95,
      "chip": "ym2612"
    },
    {
      "channel": 2,
      "note": 104,
      "start": 22.6701,
      "duration": 0.0667,
      "velocity": 95,
      "chip": "ym2612"
    },
    {
      "channel": 0,
      "note": 51,
      "start": 22.7867,
      "duration": 0.4038,
      "velocity": 97,
      "chip": "ym2612"
    },
    {
      "channel": 2,
      "note": 102,
      "start": 22.7892,
      "duration": 0.0656,
      "velocity": 95,
      "chip": "ym2612"
    },
    {
      "channel": 2,
      "note": 101,
      "start": 22.9232,
      "duration": 0.0668,
      "velocity": 95,
      "chip": "ym2612"
    },
    {
      "channel": 1,
      "note": 105,
      "start": 23.057,
      "duration": 0.4878,
      "velocity": 80,
      "chip": "ym2612"
    },
    {
      "channel": 2,
      "note": 99,
      "start": 23.0578,
      "duration": 0.066,
      "velocity": 95,
      "chip": "ym2612"
    },
    {
      "channel": 3,
      "note": 84,
      "start": 23.059,
      "duration": 1.2111,
      "velocity": 94,
      "chip": "ym2612"
    },
    {
      "channel": 4,
      "note": 63,
      "start": 23.0601,
      "duration": 1.2105,
      "velocity": 94,
      "chip": "ym2612"
    },
    {
      "channel": 5,
      "note": 84,
      "start": 23.0917,
      "duration": 1.2127,
      "velocity": 94,
      "chip": "ym2612"
    },
    {
      "channel": 2,
      "note": 97,
      "start": 23.1757,
      "duration": 0.0667,
      "velocity": 95,
      "chip": "ym2612"
    },
    {
      "channel": 0,
      "note": 44,
      "start": 23.3092,
      "duration": 0.1847,
      "velocity": 97,
      "chip": "ym2612"
    },
    {
      "channel": 2,
      "note": 96,
      "start": 23.3113,
      "duration": 0.0653,
      "velocity": 95,
      "chip": "ym2612"
    },
    {
      "channel": 2,
      "note": 94,
      "start": 23.4285,
      "duration": 0.0668,
      "velocity": 95,
      "chip": "ym2612"
    },
    {
      "channel": 0,
      "note": 44,
      "start": 23.562,
      "duration": 0.1847,
      "velocity": 97,
      "chip": "ym2612"
    },
    {
      "channel": 1,
      "note": 105,
      "start": 23.5633,
      "duration": 0.2343,
      "velocity": 80,
      "chip": "ym2612"
    },
    {
      "channel": 2,
      "note": 92,
      "start": 23.5642,
      "duration": 0.0652,
      "velocity": 95,
      "chip": "ym2612"
    },
    {
      "channel": 2,
      "note": 90,
      "start": 23.6813,
      "duration": 0.0668,
      "velocity": 95,
      "chip": "ym2612"
    },
    {
      "channel": 0,
      "note": 46,
      "start": 23.8148,
      "duration": 0.2016,
      "velocity": 97,
      "chip": "ym2612"
    },
    {
      "channel": 1,
      "note": 105,
      "start": 23.8161,
      "duration": 0.2343,
      "velocity": 80,
      "chip": "ym2612"
    },
    {
      "channel": 2,
      "note": 89,
      "start": 23.817,
      "duration": 0.0652,
      "velocity": 95,
      "chip": "ym2612"
    },
    {
      "channel": 2,
      "note": 87,
      "start": 23.9341,
      "duration": 0.0667,
      "velocity": 95,
      "chip": "ym2612"
    },
    {
      "channel": 0,
      "note": 48,
      "start": 24.0676,
      "duration": 0.2016,
      "velocity": 97,
      "chip": "ym2612"
    },
    {
      "channel": 1,
      "note": 105,
      "start": 24.069,
      "duration": 0.4871,
      "velocity": 80,
      "chip": "ym2612"
    },
    {
      "channel": 2,
      "note": 85,
      "start": 24.0699,
      "duration": 0.0651,
      "velocity": 95,
      "chip": "ym2612"
    },
    {
      "channel": 2,
      "note": 84,
      "start": 24.1869,
      "duration": 0.0667,
      "velocity": 95,
      "chip": "ym2612"
    },
    {
      "channel": 0,
      "note": 49,
      "start": 24.3206,
      "duration": 0.3868,
      "velocity": 97,
      "chip": "ym2612"
    },
    {
      "channel": 2,
      "note": 104,
      "start": 24.3233,
      "duration": 0.0645,
      "velocity": 95,
      "chip": "ym2612"
    },
    {
      "channel": 3,
      "note": 92,
      "start": 24.3258,
      "duration": 0.3826,
      "velocity": 94,
      "chip": "ym2612"
    },
    {
      "channel": 4,
      "note": 73,
      "start": 24.3271,
      "duration": 0.3817,
      "velocity": 94,
      "chip": "ym2612"
    },
    {
      "channel": 5,
      "note": 92,
      "start": 24.3575,
      "duration": 0.4028,
      "velocity": 94,
      "chip": "ym2612"
    },
    {
      "channel": 2,
      "note": 101,
      "start": 24.4401,
      "duration": 0.0667,
      "velocity": 95,
      "chip": "ym2612"
    },
    {
      "channel": 1,
      "note": 105,
      "start": 24.5738,
      "duration": 0.4878,
      "velocity": 80,
      "chip": "ym2612"
    },
    {
      "channel": 2,
      "note": 97,
      "start": 24.5747,
      "duration": 0.0659,
      "velocity": 95,
      "chip": "ym2612"
    },
    {
      "channel": 2,
      "note": 92,
      "start": 24.6926,
      "duration": 0.0667,
      "velocity": 95,
      "chip": "ym2612"
    },
    {
      "channel": 0,
      "note": 44,
      "start": 24.826,
      "duration": 0.387,
      "velocity": 97,
      "chip": "ym2612"
    },
    {
      "channel": 2,
      "note": 104,
      "start": 24.8283,
      "duration": 0.0651,
      "velocity": 95,
      "chip": "ym2612"
    },
    {
      "channel": 3,
      "note": 89,
      "start": 24.8294,
      "duration": 0.098,
      "velocity": 94,
      "chip": "ym2612"
    },
    {
      "channel": 4,
      "note": 68,
      "start": 24.8305,
      "duration": 0.0973,
      "velocity": 94,
      "chip": "ym2612"
    },
    {
      "channel": 5,
      "note": 89,
      "start": 24.862,
      "duration": 0.0998,
      "velocity": 94,
      "chip": "ym2612"
    },
    {
      "channel": 2,
      "note": 101,
      "start": 24.9453,
      "duration": 0.0668,
      "velocity": 95,
      "chip": "ym2612"
    },
    {
      "channel": 1,
      "note": 105,
      "start": 25.0793,
      "duration": 0.4879,
      "velocity": 80,
      "chip": "ym2612"
    },
    {
      "channel": 2,
      "note": 97,
      "start": 25.0802,
      "duration": 0.066,
      "velocity": 95,
      "chip": "ym2612"
    },
    {
      "channel": 3,
      "note": 85,
      "start": 25.0813,
      "duration": 0.3854,
      "velocity": 94,
      "chip": "ym2612"
    },
    {
      "channel": 4,
      "note": 65,
      "start": 25.0825,
      "duration": 0.3847,
      "velocity": 94,
      "chip": "ym2612"
    },
    {
      "channel": 5,
      "note": 85,
      "start": 25.1149,
      "duration": 0.4039,
      "velocity": 94,
      "chip": "ym2612"
    },
    {
      "channel": 2,
      "note": 92,
      "start": 25.1982,
      "duration": 0.0667,
      "velocity": 95,
      "chip": "ym2612"
    },
    {
      "channel": 0,
      "note": 49,
      "start": 25.3316,
      "duration": 0.387,
      "velocity": 97,
      "chip": "ym2612"
    },
    {
      "channel": 2,
      "note": 104,
      "start": 25.3339,
      "duration": 0.0651,
      "velocity": 95,
      "chip": "ym2612"
    },
    {
      "channel": 2,
      "note": 101,
      "start": 25.4509,
      "duration": 0.0668,
      "velocity": 95,
      "chip": "ym2612"
    },
    {
      "channel": 1,
      "note": 105,
      "start": 25.5849,
      "duration": 0.2351,
      "velocity": 80,
      "chip": "ym2612"
    },
    {
      "channel": 2,
      "note": 97,
      "start": 25.5858,
      "duration": 0.066,
      "velocity": 95,
      "chip": "ym2612"
    },
    {
      "channel": 3,
      "note": 85,
      "start": 25.5869,
      "duration": 0.2,
      "velocity": 94,
      "chip": "ym2612"
    },
    {
      "channel": 4,
      "note": 65,
      "start": 25.588,
      "duration": 0.1993,
      "velocity": 94,
      "chip": "ym2612"
    },
    {
      "channel": 5,
      "note": 85,
      "start": 25.6204,
      "duration": 0.2009,
      "velocity": 94,
      "chip": "ym2612"
    },
    {
      "channel": 2,
      "note": 92,
      "start": 25.7038,
      "duration": 0.0667,
      "velocity": 95,
      "chip": "ym2612"
    },
    {
      "channel": 0,
      "note": 44,
      "start": 25.8372,
      "duration": 0.387,
      "velocity": 97,
      "chip": "ym2612"
    },
    {
      "channel": 1,
      "note": 105,
      "start": 25.8389,
      "duration": 0.234,
      "velocity": 80,
      "chip": "ym2612"
    },
    {
      "channel": 2,
      "note": 104,
      "start": 25.8399,
      "duration": 0.0647,
      "velocity": 95,
      "chip": "ym2612"
    },
    {
      "channel": 3,
      "note": 84,
      "start": 25.841,
      "duration": 0.1989,
      "velocity": 94,
      "chip": "ym2612"
    },
    {
      "channel": 4,
      "note": 64,
      "start": 25.8422,
      "duration": 0.1982,
      "velocity": 94,
      "chip": "ym2612"
    },
    {
      "channel": 5,
      "note": 84,
      "start": 25.8736,
      "duration": 0.2005,
      "velocity": 94,
      "chip": "ym2612"
    },
    {
      "channel": 2,
      "note": 101,
      "start": 25.9569,
      "duration": 0.0667,
      "velocity": 95,
      "chip": "ym2612"
    },
    {
      "channel": 1,
      "note": 105,
      "start": 26.0906,
      "duration": 0.5047,
      "velocity": 80,
      "chip": "ym2612"
    },
    {
      "channel": 2,
      "note": 97,
      "start": 26.0915,
      "duration": 0.0666,
      "velocity": 95,
      "chip": "ym2612"
    },
    {
      "channel": 3,
      "note": 85,
      "start": 26.0926,
      "duration": 0.1999,
      "velocity": 94,
      "chip": "ym2612"
    },
    {
      "channel": 4,
      "note": 65,
      "start": 26.0937,
      "duration": 0.1992,
      "velocity": 94,
      "chip": "ym2612"
    },
    {
      "channel": 5,
      "note": 85,
      "start": 26.126,
      "duration": 0.2008,
      "velocity": 94,
      "chip": "ym2612"
    },
    {
      "channel": 2,
      "note": 92,
      "start": 26.2094,
      "duration": 0.0667,
      "velocity": 95,
      "chip": "ym2612"
    },
    {
      "channel": 0,
      "note": 48,
      "start": 26.3428,
      "duration": 0.387,
      "velocity": 97,
      "chip": "ym2612"
    },
    {
      "channel": 2,
      "note": 104,
      "start": 26.3451,
      "duration": 0.0659,
      "velocity": 95,
      "chip": "ym2612"
    },
    {
      "channel": 3,
      "note": 87,
      "start": 26.3462,
      "duration": 0.3846,
      "velocity": 94,
      "chip": "ym2612"
    },
    {
      "channel": 4,
      "note": 68,
      "start": 26.3473,
      "duration": 0.3838,
      "velocity": 94,
      "chip": "ym2612"
    },
    {
      "channel": 5,
      "note": 87,
      "start": 26.3788,
      "duration": 0.4039,
      "velocity": 94,
      "chip": "ym2612"
    },
    {
      "channel": 2,
      "note": 99,
      "start": 26.4622,
      "duration": 0.0667,
      "velocity": 95,
      "chip": "ym2612"
    },
    {
      "channel": 1,
      "note": 105,
      "start": 26.5963,
      "duration": 0.5046,
      "velocity": 80,
      "chip": "ym2612"
    },
    {
      "channel": 2,
      "note": 96,
      "start": 26.5973,
      "duration": 0.0664,
      "velocity": 95,
      "chip": "ym2612"
    },
    {
      "channel": 2,
      "note": 92,
      "start": 26.715,
      "duration": 0.0667,
      "velocity": 95,
      "chip": "ym2612"
    },
    {
      "channel": 0,
      "note": 44,
      "start": 26.8484,
      "duration": 0.387,
      "velocity": 97,
      "chip": "ym2612"
    },
    {
      "channel": 2,
      "note": 104,
      "start": 26.8507,
      "duration": 0.0658,
      "velocity": 95,
      "chip": "ym2612"
    },
    {
      "channel": 3,
      "note": 84,
      "start": 26.8518,
      "duration": 0.098,
      "velocity": 94,
      "chip": "ym2612"
    },
    {
      "channel": 4,
      "note": 63,
      "start": 26.8529,
      "duration": 0.0973,
      "velocity": 94,
      "chip": "ym2612"
    },
    {
      "channel": 5,
      "note": 84,
      "start": 26.8844,
      "duration": 0.0997,
      "velocity": 94,
      "chip": "ym2612"
    },
    {
      "channel": 2,
      "note": 99,
      "start": 26.9678,
      "duration": 0.0667,
      "velocity": 95,
      "chip": "ym2612"
    },
    {
      "channel": 1,
      "note": 105,
      "start": 27.1018,
      "duration": 0.5047,
      "velocity": 80,
      "chip": "ym2612"
    },
    {
      "channel": 2,
      "note": 96,
      "start": 27.1028,
      "duration": 0.0665,
      "velocity": 95,
      "chip": "ym2612"
    },
    {
      "channel": 3,
      "note": 80,
      "start": 27.1039,
      "duration": 0.3856,
      "velocity": 94,
      "chip": "ym2612"
    },
    {
      "channel": 4,
      "note": 60,
      "start": 27.1051,
      "duration": 0.3849,
      "velocity": 94,
      "chip": "ym2612"
    },
    {
      "channel": 5,
      "note": 80,
      "start": 27.1372,
      "duration": 0.4041,
      "velocity": 94,
      "chip": "ym2612"
    },
    {
      "channel": 2,
      "note": 92,
      "start": 27.2206,
      "duration": 0.0667,
      "velocity": 95,
      "chip": "ym2612"
    },
    {
      "channel": 0,
      "note": 48,
      "start": 27.354,
      "duration": 0.387,
      "velocity": 97,
      "chip": "ym2612"
    },
    {
      "channel": 2,
      "note": 104,
      "start": 27.3566,
      "duration": 0.0658,
      "velocity": 95,
      "chip": "ym2612"
    },
    {
      "channel": 2,
      "note": 99,
      "start": 27.4737,
      "duration": 0.0667,
      "velocity": 95,
      "chip": "ym2612"
    },
    {
      "channel": 1,
      "note": 105,
      "start": 27.6074,
      "duration": 0.2527,
      "velocity": 80,
      "chip": "ym2612"
    },
    {
      "channel": 2,
      "note": 96,
      "start": 27.6083,
      "duration": 0.0666,
      "velocity": 95,
      "chip": "ym2612"
    },
    {
      "channel": 3,
      "note": 80,
      "start": 27.6095,
      "duration": 0.1999,
      "velocity": 94,
      "chip": "ym2612"
    },
    {
      "channel": 4,
      "note": 60,
      "start": 27.6106,
      "duration": 0.1991,
      "velocity": 94,
      "chip": "ym2612"
    },
    {
      "channel": 5,
      "note": 80,
      "start": 27.6428,
      "duration": 0.2008,
      "velocity": 94,
      "chip": "ym2612"
    },
    {
      "channel": 2,
      "note": 92,
      "start": 27.7262,
      "duration": 0.0667,
      "velocity": 95,
      "chip": "ym2612"
    },
    {
      "channel": 0,
      "note": 44,
      "start": 27.8596,
      "duration": 0.4038,
      "velocity": 97,
      "chip": "ym2612"
    },
    {
      "channel": 1,
      "note": 105,
      "start": 27.861,
      "duration": 0.2511,
      "velocity": 80,
      "chip": "ym2612"
    },
    {
      "channel": 2,
      "note": 104,
      "start": 27.862,
      "duration": 0.0657,
      "velocity": 95,
      "chip": "ym2612"
    },
    {
      "channel": 3,
      "note": 84,
      "start": 27.8632,
      "duration": 0.199,
      "velocity": 94,
      "chip": "ym2612"
    },
    {
      "channel": 4,
      "note": 63,
      "start": 27.8643,
      "duration": 0.1983,
      "velocity": 94,
      "chip": "ym2612"
    },
    {
      "channel": 5,
      "note": 84,
      "start": 27.8956,
      "duration": 0.2009,
      "velocity": 94,
      "chip": "ym2612"
    },
    {
      "channel": 2,
      "note": 99,
      "start": 27.979,
      "duration": 0.0667,
      "velocity": 95,
      "chip": "ym2612"
    },
    {
      "channel": 1,
      "note": 105,
      "start": 28.1131,
      "duration": 0.5046,
      "velocity": 80,
      "chip": "ym2612"
    },
    {
      "channel": 2,
      "note": 96,
      "start": 28.114,
      "duration": 0.0665,
      "velocity": 95,
      "chip": "ym2612"
    },
    {
      "channel": 3,
      "note": 87,
      "start": 28.1152,
      "duration": 0.1998,
      "velocity": 94,
      "chip": "ym2612"
    },
    {
      "channel": 4,
      "note": 68,
      "start": 28.1163,
      "duration": 0.199,
      "velocity": 94,
      "chip": "ym2612"
    },
    {
      "channel": 5,
      "note": 87,
      "start": 28.1484,
      "duration": 0.2008,
      "velocity": 94,
      "chip": "ym2612"
    },
    {
      "channel": 2,
      "note": 92,
      "start": 28.2318,
      "duration": 0.0667,
      "velocity": 95,
      "chip": "ym2612"
    },
    {
      "channel": 0,
      "note": 46,
      "start": 28.3652,
      "duration": 0.4039,
      "velocity": 97,
      "chip": "ym2612"
    },
    {
      "channel": 2,
      "note": 106,
      "start": 28.3675,
      "duration": 0.0659,
      "velocity": 95,
      "chip": "ym2612"
    },
    {
      "channel": 3,
      "note": 85,
      "start": 28.3686,
      "duration": 0.1992,
      "velocity": 94,
      "chip": "ym2612"
    },
    {
      "channel": 4,
      "note": 65,
      "start": 28.3698,
      "duration": 0.1984,
      "velocity": 94,
      "chip": "ym2612"
    },
    {
      "channel": 5,
      "note": 85,
      "start": 28.4012,
      "duration": 0.2009,
      "velocity": 94,
      "chip": "ym2612"
    },
    {
      "channel": 2,
      "note": 101,
      "start": 28.4846,
      "duration": 0.0667,
      "velocity": 95,
      "chip": "ym2612"
    },
    {
      "channel": 1,
      "note": 105,
      "start": 28.6187,
      "duration": 0.5046,
      "velocity": 80,
      "chip": "ym2612"
    },
    {
      "channel": 2,
      "note": 97,
      "start": 28.6197,
      "duration": 0.0665,
      "velocity": 95,
      "chip": "ym2612"
    },
    {
      "channel": 3,
      "note": 82,
      "start": 28.6207,
      "duration": 0.1998,
      "velocity": 94,
      "chip": "ym2612"
    },
    {
      "channel": 4,
      "note": 61,
      "start": 28.6222,
      "duration": 0.1987,
      "velocity": 94,
      "chip": "ym2612"
    },
    {
      "channel": 5,
      "note": 82,
      "start": 28.654,
      "duration": 0.2008,
      "velocity": 94,
      "chip": "ym2612"
    },
    {
      "channel": 2,
      "note": 94,
      "start": 28.7374,
      "duration": 0.0667,
      "velocity": 95,
      "chip": "ym2612"
    },
    {
      "channel": 0,
      "note": 41,
      "start": 28.8708,
      "duration": 0.4039,
      "velocity": 97,
      "chip": "ym2612"
    },
    {
      "channel": 2,
      "note": 106,
      "start": 28.8735,
      "duration": 0.0658,
      "velocity": 95,
      "chip": "ym2612"
    },
    {
      "channel": 3,
      "note": 85,
      "start": 28.8746,
      "duration": 0.0987,
      "velocity": 94,
      "chip": "ym2612"
    },
    {
      "channel": 4,
      "note": 65,
      "start": 28.8757,
      "duration": 0.098,
      "velocity": 94,
      "chip": "ym2612"
    },
    {
      "channel": 5,
      "note": 85,
      "start": 28.9234,
      "duration": 0.1012,
      "velocity": 94,
      "chip": "ym2612"
    },
    {
      "channel": 2,
      "note": 101,
      "start": 29.0074,
      "duration": 0.0656,
      "velocity": 95,
      "chip": "ym2612"
    },
    {
      "channel": 1,
      "note": 105,
      "start": 29.1243,
      "duration": 0.5047,
      "velocity": 80,
      "chip": "ym2612"
    },
    {
      "channel": 2,
      "note": 97,
      "start": 29.1251,
      "duration": 0.0666,
      "velocity": 95,
      "chip": "ym2612"
    },
    {
      "channel": 3,
      "note": 77,
      "start": 29.1262,
      "duration": 0.4029,
      "velocity": 94,
      "chip": "ym2612"
    },
    {
      "channel": 4,
      "note": 58,
      "start": 29.1274,
      "duration": 0.4022,
      "velocity": 94,
      "chip": "ym2612"
    },
    {
      "channel": 5,
      "note": 77,
      "start": 29.1758,
      "duration": 0.3877,
      "velocity": 94,
      "chip": "ym2612"
    },
    {
      "channel": 2,
      "note": 94,
      "start": 29.2599,
      "duration": 0.066,
      "velocity": 95,
      "chip": "ym2612"
    },
    {
      "channel": 0,
      "note": 46,
      "start": 29.3764,
      "duration": 0.4039,
      "velocity": 97,
      "chip": "ym2612"
    },
    {
      "channel": 2,
      "note": 106,
      "start": 29.3787,
      "duration": 0.0659,
      "velocity": 95,
      "chip": "ym2612"
    },
    {
      "channel": 2,
      "note": 101,
      "start": 29.5126,
      "duration": 0.066,
      "velocity": 95,
      "chip": "ym2612"
    },
    {
      "channel": 1,
      "note": 105,
      "start": 29.6299,
      "duration": 0.2527,
      "velocity": 80,
      "chip": "ym2612"
    },
    {
      "channel": 2,
      "note": 97,
      "start": 29.6307,
      "duration": 0.0666,
      "velocity": 95,
      "chip": "ym2612"
    },
    {
      "channel": 3,
      "note": 77,
      "start": 29.6319,
      "duration": 0.2,
      "velocity": 94,
      "chip": "ym2612"
    },
    {
      "channel": 4,
      "note": 58,
      "start": 29.633,
      "duration": 0.1992,
      "velocity": 94,
      "chip": "ym2612"
    },
    {
      "channel": 5,
      "note": 77,
      "start": 29.6814,
      "duration": 0.2059,
      "velocity": 94,
      "chip": "ym2612"
    },
    {
      "channel": 2,
      "note": 94,
      "start": 29.7655,
      "duration": 0.066,
      "velocity": 95,
      "chip": "ym2612"
    },
    {
      "channel": 0,
      "note": 41,
      "start": 29.8821,
      "duration": 0.4038,
      "velocity": 97,
      "chip": "ym2612"
    },
    {
      "channel": 1,
      "note": 105,
      "start": 29.8834,
      "duration": 0.2511,
      "velocity": 80,
      "chip": "ym2612"
    },
    {
      "channel": 2,
      "note": 106,
      "start": 29.8845,
      "duration": 0.0656,
      "velocity": 95,
      "chip": "ym2612"
    },
    {
      "channel": 3,
      "note": 82,
      "start": 29.8856,
      "duration": 0.199,
      "velocity": 94,
      "chip": "ym2612"
    },
    {
      "channel": 4,
      "note": 61,
      "start": 29.8867,
      "duration": 0.1983,
      "velocity": 94,
      "chip": "ym2612"
    },
    {
      "channel": 5,
      "note": 82,
      "start": 29.9342,
      "duration": 0.2053,
      "velocity": 94,
      "chip": "ym2612"
    },
    {
      "channel": 2,
      "note": 101,
      "start": 30.0182,
      "duration": 0.066,
      "velocity": 95,
      "chip": "ym2612"
    },
    {
      "channel": 1,
      "note": 105,
      "start": 30.1355,
      "duration": 0.5046,
      "velocity": 80,
      "chip": "ym2612"
    },
    {
      "channel": 2,
      "note": 97,
      "start": 30.1364,
      "duration": 0.0665,
      "velocity": 95,
      "chip": "ym2612"
    },
    {
      "channel": 3,
      "note": 85,
      "start": 30.1376,
      "duration": 0.1999,
      "velocity": 94,
      "chip": "ym2612"
    },
    {
      "channel": 4,
      "note": 65,
      "start": 30.139,
      "duration": 0.1988,
      "velocity": 94,
      "chip": "ym2612"
    },
    {
      "channel": 5,
      "note": 85,
      "start": 30.187,
      "duration": 0.2044,
      "velocity": 94,
      "chip": "ym2612"
    },
    {
      "channel": 2,
      "note": 94,
      "start": 30.2711,
      "duration": 0.066,
      "velocity": 95,
      "chip": "ym2612"
    },
    {
      "channel": 0,
      "note": 44,
      "start": 30.3877,
      "duration": 0.4038,
      "velocity": 97,
      "chip": "ym2612"
    },
    {
      "channel": 2,
      "note": 104,
      "start": 30.3903,
      "duration": 0.0658,
      "velocity": 95,
      "chip": "ym2612"
    },
    {
      "channel": 2,
      "note": 99,
      "start": 30.5242,
      "duration": 0.0657,
      "velocity": 95,
      "chip": "ym2612"
    },
    {
      "channel": 1,
      "note": 105,
      "start": 30.6412,
      "duration": 0.5046,
      "velocity": 80,
      "chip": "ym2612"
    },
    {
      "channel": 2,
      "note": 96,
      "start": 30.6421,
      "duration": 0.0664,
      "velocity": 95,
      "chip": "ym2612"
    },
    {
      "channel": 3,
      "note": 84,
      "start": 30.6432,
      "duration": 0.1998,
      "velocity": 94,
      "chip": "ym2612"
    },
    {
      "channel": 4,
      "note": 63,
      "start": 30.6444,
      "duration": 0.199,
      "velocity": 94,
      "chip": "ym2612"
    },
    {
      "channel": 5,
      "note": 84,
      "start": 30.6926,
      "duration": 0.2041,
      "velocity": 94,
      "chip": "ym2612"
    },
    {
      "channel": 2,
      "note": 92,
      "start": 30.7766,
      "duration": 0.066,
      "velocity": 95,
      "chip": "ym2612"
    },
    {
      "channel": 0,
      "note": 51,
      "start": 30.8933,
      "duration": 0.4038,
      "velocity": 97,
      "chip": "ym2612"
    },
    {
      "channel": 2,
      "note": 104,
      "start": 30.8956,
      "duration": 0.0658,
      "velocity": 95,
      "chip": "ym2612"
    },
    {
      "channel": 2,
      "note": 99,
      "start": 31.0294,
      "duration": 0.0661,
      "velocity": 95,
      "chip": "ym2612"
    },
    {
      "channel": 1,
      "note": 105,
      "start": 31.1466,
      "duration": 0.5047,
      "velocity": 80,
      "chip": "ym2612"
    },
    {
      "channel": 2,
      "note": 96,
      "start": 31.1476,
      "duration": 0.0666,
      "velocity": 95,
      "chip": "ym2612"
    },
    {
      "channel": 3,
      "note": 84,
      "start": 31.1487,
      "duration": 0.1999,
      "velocity": 94,
      "chip": "ym2612"
    },
    {
      "channel": 4,
      "note": 63,
      "start": 31.1498,
      "duration": 0.1992,
      "velocity": 94,
      "chip": "ym2612"
    },
    {
      "channel": 5,
      "note": 84,
      "start": 31.1982,
      "duration": 0.2056,
      "velocity": 94,
      "chip": "ym2612"
    },
    {
      "channel": 2,
      "note": 92,
      "start": 31.2822,
      "duration": 0.066,
      "velocity": 95,
      "chip": "ym2612"
    },
    {
      "channel": 0,
      "note": 44,
      "start": 31.3989,
      "duration": 0.4038,
      "velocity": 97,
      "chip": "ym2612"
    },
    {
      "channel": 2,
      "note": 104,
      "start": 31.4011,
      "duration": 0.0658,
      "velocity": 95,
      "chip": "ym2612"
    },
    {
      "channel": 3,
      "note": 80,
      "start": 31.4022,
      "duration": 0.1992,
      "velocity": 94,
      "chip": "ym2612"
    },
    {
      "channel": 4,
      "note": 60,
      "start": 31.4034,
      "duration": 0.1985,
      "velocity": 94,
      "chip": "ym2612"
    },
    {
      "channel": 5,
      "note": 80,
      "start": 31.451,
      "duration": 0.2053,
      "velocity": 94,
      "chip": "ym2612"
    },
    {
      "channel": 2,
      "note": 99,
      "start": 31.535,
      "duration": 0.0661,
      "velocity": 95,
      "chip": "ym2612"
    },
    {
      "channel": 1,
      "note": 105,
      "start": 31.6522,
      "duration": 0.2527,
      "velocity": 80,
      "chip": "ym2612"
    },
    {
      "channel": 2,
      "note": 96,
      "start": 31.6532,
      "duration": 0.0666,
      "velocity": 95,
      "chip": "ym2612"
    },
    {
      "channel": 3,
      "note": 84,
      "start": 31.6544,
      "duration": 0.2006,
      "velocity": 94,
      "chip": "ym2612"
    },
    {
      "channel": 4,
      "note": 63,
      "start": 31.6558,
      "duration": 0.1999,
      "velocity": 94,
      "chip": "ym2612"
    },
    {
      "channel": 5,
      "note": 84,
      "start": 31.7038,
      "duration": 0.2061,
      "velocity": 94,
      "chip": "ym2612"
    },
    {
      "channel": 2,
      "note": 92,
      "start": 31.7878,
      "duration": 0.0668,
      "velocity": 95,
      "chip": "ym2612"
    },
    {
      "channel": 0,
      "note": 51,
      "start": 31.9045,
      "duration": 0.4038,
      "velocity": 97,
      "chip": "ym2612"
    },
    {
      "channel": 1,
      "note": 105,
      "start": 31.9062,
      "duration": 0.2508,
      "velocity": 80,
      "chip": "ym2612"
    },
    {
      "channel": 2,
      "note": 104,
      "start": 31.9073,
      "duration": 0.0656,
      "velocity": 95,
      "chip": "ym2612"
    },
    {
      "channel": 3,
      "note": 87,
      "start": 31.9083,
      "duration": 0.1994,
      "velocity": 94,
      "chip": "ym2612"
    },
    {
      "channel": 4,
      "note": 68,
      "start": 31.9095,
      "duration": 0.1987,
      "velocity": 94,
      "chip": "ym2612"
    },
    {
      "channel": 5,
      "note": 87,
      "start": 31.957,
      "duration": 0.2047,
      "velocity": 94,
      "chip": "ym2612"
    },
    {
      "channel": 2,
      "note": 99,
      "start": 32.041,
      "duration": 0.0664,
      "velocity": 95,
      "chip": "ym2612"
    },
    {
      "channel": 1,
      "note": 105,
      "start": 32.1579,
      "duration": 0.5046,
      "velocity": 80,
      "chip": "ym2612"
    },
    {
      "channel": 2,
      "note": 96,
      "start": 32.1589,
      "duration": 0.0665,
      "velocity": 95,
      "chip": "ym2612"
    },
    {
      "channel": 3,
      "note": 92,
      "start": 32.16,
      "duration": 0.2006,
      "velocity": 94,
      "chip": "ym2612"
    },
    {
      "channel": 4,
      "note": 72,
      "start": 32.1612,
      "duration": 0.1998,
      "velocity": 94,
      "chip": "ym2612"
    },
    {
      "channel": 5,
      "note": 92,
      "start": 32.2095,
      "duration": 0.2055,
      "velocity": 94,
      "chip": "ym2612"
    },
    {
      "channel": 2,
      "note": 92,
      "start": 32.2935,
      "duration": 0.0667,
      "velocity": 95,
      "chip": "ym2612"
    },
    {
      "channel": 0,
      "note": 42,
      "start": 32.4101,
      "duration": 0.4038,
      "velocity": 97,
      "chip": "ym2612"
    },
    {
      "channel": 2,
      "note": 102,
      "start": 32.4123,
      "duration": 0.0659,
      "velocity": 95,
      "chip": "ym2612"
    },
    {
      "channel": 3,
      "note": 90,
      "start": 32.4134,
      "duration": 0.4015,
      "velocity": 94,
      "chip": "ym2612"
    },
    {
      "channel": 4,
      "note": 73,
      "start": 32.4146,
      "duration": 0.4007,
      "velocity": 94,
      "chip": "ym2612"
    },
    {
      "channel": 5,
      "note": 90,
      "start": 32.4622,
      "duration": 0.3869,
      "velocity": 94,
      "chip": "ym2612"
    },
    {
      "channel": 2,
      "note": 97,
      "start": 32.5463,
      "duration": 0.0667,
      "velocity": 95,
      "chip": "ym2612"
    },
    {
      "channel": 1,
      "note": 105,
      "start": 32.6636,
      "duration": 0.5046,
      "velocity": 80,
      "chip": "ym2612"
    },
    {
      "channel": 2,
      "note": 94,
      "start": 32.6645,
      "duration": 0.0665,
      "velocity": 95,
      "chip": "ym2612"
    },
    {
      "channel": 2,
      "note": 90,
      "start": 32.7991,
      "duration": 0.0667,
      "velocity": 95,
      "chip": "ym2612"
    },
    {
      "channel": 0,
      "note": 46,
      "start": 32.9157,
      "duration": 0.4038,
      "velocity": 97,
      "chip": "ym2612"
    },
    {
      "channel": 2,
      "note": 102,
      "start": 32.918,
      "duration": 0.0658,
      "velocity": 95,
      "chip": "ym2612"
    },
    {
      "channel": 3,
      "note": 85,
      "start": 32.919,
      "duration": 0.0988,
      "velocity": 94,
      "chip": "ym2612"
    },
    {
      "channel": 4,
      "note": 70,
      "start": 32.9202,
      "duration": 0.098,
      "velocity": 94,
      "chip": "ym2612"
    },
    {
      "channel": 5,
      "note": 85,
      "start": 32.9678,
      "duration": 0.1005,
      "velocity": 94,
      "chip": "ym2612"
    },
    {
      "channel": 2,
      "note": 97,
      "start": 33.0519,
      "duration": 0.0667,
      "velocity": 95,
      "chip": "ym2612"
    },
    {
      "channel": 1,
      "note": 105,
      "start": 33.169,
      "duration": 0.5047,
      "velocity": 80,
      "chip": "ym2612"
    },
    {
      "channel": 2,
      "note": 94,
      "start": 33.17,
      "duration": 0.0666,
      "velocity": 95,
      "chip": "ym2612"
    },
    {
      "channel": 3,
      "note": 90,
      "start": 33.1711,
      "duration": 0.4024,
      "velocity": 94,
      "chip": "ym2612"
    },
    {
      "channel": 4,
      "note": 73,
      "start": 33.1725,
      "duration": 0.4013,
      "velocity": 94,
      "chip": "ym2612"
    },
    {
      "channel": 5,
      "note": 90,
      "start": 33.2206,
      "duration": 0.387,
      "velocity": 94,
      "chip": "ym2612"
    },
    {
      "channel": 2,
      "note": 90,
      "start": 33.3047,
      "duration": 0.0667,
      "velocity": 95,
      "chip": "ym2612"
    },
    {
      "channel": 0,
      "note": 42,
      "start": 33.4213,
      "duration": 0.4038,
      "velocity": 97,
      "chip": "ym2612"
    },
    {
      "channel": 2,
      "note": 102,
      "start": 33.4239,
      "duration": 0.0658,
      "velocity": 95,
      "chip": "ym2612"
    },
    {
      "channel": 2,
      "note": 97,
      "start": 33.5577,
      "duration": 0.0665,
      "velocity": 95,
      "chip": "ym2612"
    },
    {
      "channel": 1,
      "note": 105,
      "start": 33.6747,
      "duration": 0.2527,
      "velocity": 80,
      "chip": "ym2612"
    },
    {
      "channel": 2,
      "note": 94,
      "start": 33.6756,
      "duration": 0.0666,
      "velocity": 95,
      "chip": "ym2612"
    },
    {
      "channel": 3,
      "note": 94,
      "start": 33.6767,
      "duration": 0.2007,
      "velocity": 94,
      "chip": "ym2612"
    },
    {
      "channel": 4,
      "note": 78,
      "start": 33.6778,
      "duration": 0.1999,
      "velocity": 94,
      "chip": "ym2612"
    },
    {
      "channel": 5,
      "note": 94,
      "start": 33.7262,
      "duration": 0.2058,
      "velocity": 94,
      "chip": "ym2612"
    },
    {
      "channel": 2,
      "note": 90,
      "start": 33.8103,
      "duration": 0.0667,
      "velocity": 95,
      "chip": "ym2612"
    },
    {
      "channel": 0,
      "note": 46,
      "start": 33.9269,
      "duration": 0.4038,
      "velocity": 97,
      "chip": "ym2612"
    },
    {
      "channel": 1,
      "note": 105,
      "start": 33.9283,
      "duration": 0.2511,
      "velocity": 80,
      "chip": "ym2612"
    },
    {
      "channel": 2,
      "note": 102,
      "start": 33.9293,
      "duration": 0.0656,
      "velocity": 95,
      "chip": "ym2612"
    },
    {
      "channel": 3,
      "note": 92,
      "start": 33.9304,
      "duration": 0.1998,
      "velocity": 94,
      "chip": "ym2612"
    },
    {
      "channel": 4,
      "note": 73,
      "start": 33.9316,
      "duration": 0.199,
      "velocity": 94,
      "chip": "ym2612"
    },
    {
      "channel": 5,
      "note": 92,
      "start": 33.979,
      "duration": 0.205,
      "velocity": 94,
      "chip": "ym2612"
    },
    {
      "channel": 2,
      "note": 97,
      "start": 34.0631,
      "duration": 0.0667,
      "velocity": 95,
      "chip": "ym2612"
    },
    {
      "channel": 1,
      "note": 105,
      "start": 34.1804,
      "duration": 0.5046,
      "velocity": 80,
      "chip": "ym2612"
    },
    {
      "channel": 2,
      "note": 94,
      "start": 34.1812,
      "duration": 0.0666,
      "velocity": 95,
      "chip": "ym2612"
    },
    {
      "channel": 3,
      "note": 90,
      "start": 34.1823,
      "duration": 0.2006,
      "velocity": 94,
      "chip": "ym2612"
    },
    {
      "channel": 4,
      "note": 70,
      "start": 34.1835,
      "duration": 0.1999,
      "velocity": 94,
      "chip": "ym2612"
    },
    {
      "channel": 5,
      "note": 90,
      "start": 34.2318,
      "duration": 0.2056,
      "velocity": 94,
      "chip": "ym2612"
    },
    {
      "channel": 2,
      "note": 90,
      "start": 34.3159,
      "duration": 0.0667,
      "velocity": 95,
      "chip": "ym2612"
    },
    {
      "channel": 0,
      "note": 41,
      "start": 34.4325,
      "duration": 0.4038,
      "velocity": 97,
      "chip": "ym2612"
    },
    {
      "channel": 2,
      "note": 104,
      "start": 34.4348,
      "duration": 0.0658,
      "velocity": 95,
      "chip": "ym2612"
    },
    {
      "channel": 3,
      "note": 89,
      "start": 34.4358,
      "duration": 0.4015,
      "velocity": 94,
      "chip": "ym2612"
    },
    {
      "channel": 4,
      "note": 73,
      "start": 34.4371,
      "duration": 0.4006,
      "velocity": 94,
      "chip": "ym2612"
    },
    {
      "channel": 5,
      "note": 89,
      "start": 34.4846,
      "duration": 0.4049,
      "velocity": 94,
      "chip": "ym2612"
    },
    {
      "channel": 2,
      "note": 101,
      "start": 34.5687,
      "duration": 0.0667,
      "velocity": 95,
      "chip": "ym2612"
    },
    {
      "channel": 1,
      "note": 105,
      "start": 34.7028,
      "duration": 0.4878,
      "velocity": 80,
      "chip": "ym2612"
    },
    {
      "channel": 2,
      "note": 97,
      "start": 34.7037,
      "duration": 0.0659,
      "velocity": 95,
      "chip": "ym2612"
    },
    {
      "channel": 2,
      "note": 92,
      "start": 34.8215,
      "duration": 0.0667,
      "velocity": 95,
      "chip": "ym2612"
    },
    {
      "channel": 0,
      "note": 44,
      "start": 34.9549,
      "duration": 0.387,
      "velocity": 97,
      "chip": "ym2612"
    },
    {
      "channel": 2,
      "note": 104,
      "start": 34.9576,
      "duration": 0.0651,
      "velocity": 95,
      "chip": "ym2612"
    },
    {
      "channel": 3,
      "note": 85,
      "start": 34.9587,
      "duration": 0.098,
      "velocity": 94,
      "chip": "ym2612"
    },
    {
      "channel": 4,
      "note": 68,
      "start": 34.9598,
      "duration": 0.0972,
      "velocity": 94,
      "chip": "ym2612"
    },
    {
      "channel": 5,
      "note": 85,
      "start": 34.9906,
      "duration": 0.1001,
      "velocity": 94,
      "chip": "ym2612"
    },
    {
      "channel": 2,
      "note": 101,
      "start": 35.0744,
      "duration": 0.0666,
      "velocity": 95,
      "chip": "ym2612"
    },
    {
      "channel": 1,
      "note": 105,
      "start": 35.2082,
      "duration": 0.488,
      "velocity": 80,
      "chip": "ym2612"
    },
    {
      "channel": 2,
      "note": 97,
      "start": 35.2092,
      "duration": 0.066,
      "velocity": 95,
      "chip": "ym2612"
    },
    {
      "channel": 3,
      "note": 89,
      "start": 35.2103,
      "duration": 0.3854,
      "velocity": 94,
      "chip": "ym2612"
    },
    {
      "channel": 4,
      "note": 73,
      "start": 35.2114,
      "duration": 0.3847,
      "velocity": 94,
      "chip": "ym2612"
    },
    {
      "channel": 5,
      "note": 89,
      "start": 35.243,
      "duration": 0.4046,
      "velocity": 94,
      "chip": "ym2612"
    },
    {
      "channel": 2,
      "note": 92,
      "start": 35.3271,
      "duration": 0.0667,
      "velocity": 95,
      "chip": "ym2612"
    },
    {
      "channel": 0,
      "note": 41,
      "start": 35.4605,
      "duration": 0.387,
      "velocity": 97,
      "chip": "ym2612"
    },
    {
      "channel": 2,
      "note": 104,
      "start": 35.4628,
      "duration": 0.0651,
      "velocity": 95,
      "chip": "ym2612"
    },
    {
      "channel": 2,
      "note": 101,
      "start": 35.5799,
      "duration": 0.0667,
      "velocity": 95,
      "chip": "ym2612"
    },
    {
      "channel": 1,
      "note": 105,
      "start": 35.7139,
      "duration": 0.2351,
      "velocity": 80,
      "chip": "ym2612"
    },
    {
      "channel": 2,
      "note": 97,
      "start": 35.7148,
      "duration": 0.066,
      "velocity": 95,
      "chip": "ym2612"
    },
    {
      "channel": 3,
      "note": 92,
      "start": 35.7159,
      "duration": 0.2,
      "velocity": 94,
      "chip": "ym2612"
    },
    {
      "channel": 4,
      "note": 77,
      "start": 35.717,
      "duration": 0.1992,
      "velocity": 94,
      "chip": "ym2612"
    },
    {
      "channel": 5,
      "note": 92,
      "start": 35.7487,
      "duration": 0.2016,
      "velocity": 94,
      "chip": "ym2612"
    },
    {
      "channel": 2,
      "note": 92,
      "start": 35.8327,
      "duration": 0.0667,
      "velocity": 95,
      "chip": "ym2612"
    },
    {
      "channel": 0,
      "note": 44,
      "start": 35.9661,
      "duration": 0.387,
      "velocity": 97,
      "chip": "ym2612"
    },
    {
      "channel": 1,
      "note": 105,
      "start": 35.9675,
      "duration": 0.2343,
      "velocity": 80,
      "chip": "ym2612"
    },
    {
      "channel": 2,
      "note": 104,
      "start": 35.9685,
      "duration": 0.0651,
      "velocity": 95,
      "chip": "ym2612"
    },
    {
      "channel": 3,
      "note": 90,
      "start": 35.9696,
      "duration": 0.199,
      "velocity": 94,
      "chip": "ym2612"
    },
    {
      "channel": 4,
      "note": 73,
      "start": 35.9707,
      "duration": 0.1983,
      "velocity": 94,
      "chip": "ym2612"
    },
    {
      "channel": 5,
      "note": 90,
      "start": 36.0022,
      "duration": 0.2009,
      "velocity": 94,
      "chip": "ym2612"
    },
    {
      "channel": 2,
      "note": 101,
      "start": 36.0854,
      "duration": 0.0668,
      "velocity": 95,
      "chip": "ym2612"
    },
    {
      "channel": 1,
      "note": 105,
      "start": 36.2195,
      "duration": 0.4878,
      "velocity": 80,
      "chip": "ym2612"
    },
    {
      "channel": 2,
      "note": 97,
      "start": 36.2204,
      "duration": 0.0659,
      "velocity": 95,
      "chip": "ym2612"
    },
    {
      "channel": 3,
      "note": 89,
      "start": 36.2215,
      "duration": 0.1999,
      "velocity": 94,
      "chip": "ym2612"
    },
    {
      "channel": 4,
      "note": 68,
      "start": 36.223,
      "duration": 0.1991,
      "velocity": 94,
      "chip": "ym2612"
    },
    {
      "channel": 5,
      "note": 89,
      "start": 36.255,
      "duration": 0.2011,
      "velocity": 94,
      "chip": "ym2612"
    },
    {
      "channel": 2,
      "note": 92,
      "start": 36.3383,
      "duration": 0.0667,
      "velocity": 95,
      "chip": "ym2612"
    },
    {
      "channel": 0,
      "note": 51,
      "start": 36.4719,
      "duration": 0.3868,
      "velocity": 97,
      "chip": "ym2612"
    },
    {
      "channel": 2,
      "note": 106,
      "start": 36.4744,
      "duration": 0.0651,
      "velocity": 95,
      "chip": "ym2612"
    },
    {
      "channel": 3,
      "note": 90,
      "start": 36.4755,
      "duration": 0.3843,
      "velocity": 94,
      "chip": "ym2612"
    },
    {
      "channel": 4,
      "note": 70,
      "start": 36.4766,
      "duration": 0.3835,
      "velocity": 94,
      "chip": "ym2612"
    },
    {
      "channel": 5,
      "note": 90,
      "start": 36.5082,
      "duration": 0.4034,
      "velocity": 94,
      "chip": "ym2612"
    },
    {
      "channel": 2,
      "note": 102,
      "start": 36.5911,
      "duration": 0.0667,
      "velocity": 95,
      "chip": "ym2612"
    },
    {
      "channel": 1,
      "note": 105,
      "start": 36.7251,
      "duration": 0.4878,
      "velocity": 80,
      "chip": "ym2612"
    },
    {
      "channel": 2,
      "note": 99,
      "start": 36.7261,
      "duration": 0.0659,
      "velocity": 95,
      "chip": "ym2612"
    },
    {
      "channel": 2,
      "note": 94,
      "start": 36.8439,
      "duration": 0.0667,
      "velocity": 95,
      "chip": "ym2612"
    },
    {
      "channel": 0,
      "note": 42,
      "start": 36.9774,
      "duration": 0.387,
      "velocity": 97,
      "chip": "ym2612"
    },
    {
      "channel": 2,
      "note": 106,
      "start": 36.9797,
      "duration": 0.0651,
      "velocity": 95,
      "chip": "ym2612"
    },
    {
      "channel": 3,
      "note": 90,
      "start": 36.9807,
      "duration": 0.3846,
      "velocity": 94,
      "chip": "ym2612"
    },
    {
      "channel": 4,
      "note": 70,
      "start": 36.9819,
      "duration": 0.3839,
      "velocity": 94,
      "chip": "ym2612"
    },
    {
      "channel": 5,
      "note": 90,
      "start": 37.0134,
      "duration": 0.4038,
      "velocity": 94,
      "chip": "ym2612"
    },
    {
      "channel": 2,
      "note": 102,
      "start": 37.0966,
      "duration": 0.0668,
      "velocity": 95,
      "chip": "ym2612"
    },
    {
      "channel": 1,
      "note": 105,
      "start": 37.2307,
      "duration": 0.4879,
      "velocity": 80,
      "chip": "ym2612"
    },
    {
      "channel": 2,
      "note": 99,
      "start": 37.2316,
      "duration": 0.066,
      "velocity": 95,
      "chip": "ym2612"
    },
    {
      "channel": 2,
      "note": 94,
      "start": 37.3495,
      "duration": 0.0667,
      "velocity": 95,
      "chip": "ym2612"
    },
    {
      "channel": 0,
      "note": 51,
      "start": 37.483,
      "duration": 0.387,
      "velocity": 97,
      "chip": "ym2612"
    },
    {
      "channel": 2,
      "note": 106,
      "start": 37.4852,
      "duration": 0.0659,
      "velocity": 95,
      "chip": "ym2612"
    },
    {
      "channel": 3,
      "note": 89,
      "start": 37.4863,
      "duration": 0.3846,
      "velocity": 94,
      "chip": "ym2612"
    },
    {
      "channel": 4,
      "note": 68,
      "start": 37.4875,
      "duration": 0.3839,
      "velocity": 94,
      "chip": "ym2612"
    },
    {
      "channel": 5,
      "note": 89,
      "start": 37.519,
      "duration": 0.4042,
      "velocity": 94,
      "chip": "ym2612"
    },
    {
      "channel": 2,
      "note": 102,
      "start": 37.6022,
      "duration": 0.0668,
      "velocity": 95,
      "chip": "ym2612"
    },
    {
      "channel": 1,
      "note": 105,
      "start": 37.7363,
      "duration": 0.2531,
      "velocity": 80,
      "chip": "ym2612"
    },
    {
      "channel": 2,
      "note": 99,
      "start": 37.7372,
      "duration": 0.0667,
      "velocity": 95,
      "chip": "ym2612"
    },
    {
      "channel": 2,
      "note": 94,
      "start": 37.8552,
      "duration": 0.0669,
      "velocity": 95,
      "chip": "ym2612"
    },
    {
      "channel": 0,
      "note": 42,
      "start": 37.9889,
      "duration": 0.3866,
      "velocity": 97,
      "chip": "ym2612"
    },
    {
      "channel": 1,
      "note": 105,
      "start": 37.9903,
      "duration": 0.2507,
      "velocity": 80,
      "chip": "ym2612"
    },
    {
      "channel": 2,
      "note": 106,
      "start": 37.9914,
      "duration": 0.0656,
      "velocity": 95,
      "chip": "ym2612"
    },
    {
      "channel": 3,
      "note": 87,
      "start": 37.9924,
      "duration": 0.3841,
      "velocity": 94,
      "chip": "ym2612"
    },
    {
      "channel": 4,
      "note": 66,
      "start": 37.9936,
      "duration": 0.3833,
      "velocity": 94,
      "chip": "ym2612"
    },
    {
      "channel": 5,
      "note": 87,
      "start": 38.0249,
      "duration": 0.4035,
      "velocity": 94,
      "chip": "ym2612"
    },
    {
      "channel": 2,
      "note": 102,
      "start": 38.1079,
      "duration": 0.0667,
      "velocity": 95,
      "chip": "ym2612"
    },
    {
      "channel": 1,
      "note": 105,
      "start": 38.242,
      "duration": 0.5046,
      "velocity": 80,
      "chip": "ym2612"
    },
    {
      "channel": 2,
      "note": 99,
      "start": 38.2429,
      "duration": 0.0665,
      "velocity": 95,
      "chip": "ym2612"
    },
    {
      "channel": 2,
      "note": 94,
      "start": 38.3607,
      "duration": 0.0667,
      "velocity": 95,
      "chip": "ym2612"
    },
    {
      "channel": 0,
      "note": 44,
      "start": 38.4942,
      "duration": 0.387,
      "velocity": 97,
      "chip": "ym2612"
    },
    {
      "channel": 2,
      "note": 109,
      "start": 38.4964,
      "duration": 0.0659,
      "velocity": 95,
      "chip": "ym2612"
    },
    {
      "channel": 3,
      "note": 85,
      "start": 38.4975,
      "duration": 0.3847,
      "velocity": 94,
      "chip": "ym2612"
    },
    {
      "channel": 4,
      "note": 68,
      "start": 38.4987,
      "duration": 0.5859,
      "velocity": 94,
      "chip": "ym2612"
    },
    {
      "channel": 5,
      "note": 85,
      "start": 38.5302,
      "duration": 0.4039,
      "velocity": 94,
      "chip": "ym2612"
    },
    {
      "channel": 2,
      "note": 108,
      "start": 38.6135,
      "duration": 0.0667,
      "velocity": 95,
      "chip": "ym2612"
    },
    {
      "channel": 1,
      "note": 105,
      "start": 38.7477,
      "duration": 0.5046,
      "velocity": 80,
      "chip": "ym2612"
    },
    {
      "channel": 2,
      "note": 106,
      "start": 38.7485,
      "duration": 0.0665,
      "velocity": 95,
      "chip": "ym2612"
    },
    {
      "channel": 2,
      "note": 104,
      "start": 38.8663,
      "duration": 0.0667,
      "velocity": 95,
      "chip": "ym2612"
    },
    {
      "channel": 0,
      "note": 51,
      "start": 38.9998,
      "duration": 0.387,
      "velocity": 97,
      "chip": "ym2612"
    },
    {
      "channel": 2,
      "note": 102,
      "start": 39.0019,
      "duration": 0.066,
      "velocity": 95,
      "chip": "ym2612"
    },
    {
      "channel": 2,
      "note": 101,
      "start": 39.1191,
      "duration": 0.0667,
      "velocity": 95,
      "chip": "ym2612"
    },
    {
      "channel": 1,
      "note": 105,
      "start": 39.2531,
      "duration": 0.5055,
      "velocity": 80,
      "chip": "ym2612"
    },
    {
      "channel": 2,
      "note": 99,
      "start": 39.2541,
      "duration": 0.0666,
      "velocity": 95,
      "chip": "ym2612"
    },
    {
      "channel": 3,
      "note": 84,
      "start": 39.2556,
      "duration": 1.2108,
      "velocity": 94,
      "chip": "ym2612"
    },
    {
      "channel": 4,
      "note": 63,
      "start": 39.2566,
      "duration": 1.2102,
      "velocity": 94,
      "chip": "ym2612"
    },
    {
      "channel": 5,
      "note": 84,
      "start": 39.289,
      "duration": 1.2116,
      "velocity": 94,
      "chip": "ym2612"
    },
    {
      "channel": 2,
      "note": 97,
      "start": 39.3722,
      "duration": 0.0667,
      "velocity": 95,
      "chip": "ym2612"
    },
    {
      "channel": 0,
      "note": 44,
      "start": 39.5057,
      "duration": 0.2012,
      "velocity": 97,
      "chip": "ym2612"
    },
    {
      "channel": 2,
      "note": 96,
      "start": 39.5079,
      "duration": 0.0658,
      "velocity": 95,
      "chip": "ym2612"
    },
    {
      "channel": 2,
      "note": 94,
      "start": 39.6247,
      "duration": 0.0667,
      "velocity": 95,
      "chip": "ym2612"
    },
    {
      "channel": 0,
      "note": 44,
      "start": 39.7582,
      "duration": 0.2016,
      "velocity": 97,
      "chip": "ym2612"
    },
    {
      "channel": 1,
      "note": 105,
      "start": 39.7596,
      "duration": 0.2518,
      "velocity": 80,
      "chip": "ym2612"
    },
    {
      "channel": 2,
      "note": 92,
      "start": 39.7605,
      "duration": 0.0658,
      "velocity": 95,
      "chip": "ym2612"
    },
    {
      "channel": 2,
      "note": 90,
      "start": 39.8775,
      "duration": 0.0667,
      "velocity": 95,
      "chip": "ym2612"
    },
    {
      "channel": 0,
      "note": 46,
      "start": 40.011,
      "duration": 0.2016,
      "velocity": 97,
      "chip": "ym2612"
    },
    {
      "channel": 1,
      "note": 105,
      "start": 40.0124,
      "duration": 0.2519,
      "velocity": 80,
      "chip": "ym2612"
    },
    {
      "channel": 2,
      "note": 89,
      "start": 40.0132,
      "duration": 0.0659,
      "velocity": 95,
      "chip": "ym2612"
    },
    {
      "channel": 2,
      "note": 87,
      "start": 40.1303,
      "duration": 0.0667,
      "velocity": 95,
      "chip": "ym2612"
    },
    {
      "channel": 0,
      "note": 48,
      "start": 40.2638,
      "duration": 0.2016,
      "velocity": 97,
      "chip": "ym2612"
    },
    {
      "channel": 1,
      "note": 105,
      "start": 40.2652,
      "duration": 0.5038,
      "velocity": 80,
      "chip": "ym2612"
    },
    {
      "channel": 2,
      "note": 85,
      "start": 40.2661,
      "duration": 0.0658,
      "velocity": 95,
      "chip": "ym2612"
    },
    {
      "channel": 2,
      "note": 84,
      "start": 40.4,
      "duration": 0.0661,
      "velocity": 95,
      "chip": "ym2612"
    },
    {
      "channel": 0,
      "note": 54,
      "start": 40.5168,
      "duration": 0.4037,
      "velocity": 97,
      "chip": "ym2612"
    },
    {
      "channel": 2,
      "note": 90,
      "start": 40.519,
      "duration": 0.0657,
      "velocity": 95,
      "chip": "ym2612"
    },
    {
      "channel": 3,
      "note": 82,
      "start": 40.5215,
      "duration": 0.401,
      "velocity": 100,
      "chip": "ym2612"
    },
    {
      "channel": 4,
      "note": 73,
      "start": 40.5243,
      "duration": 0.3986,
      "velocity": 100,
      "chip": "ym2612"
    },
    {
      "channel": 5,
      "note": 82,
      "start": 40.5701,
      "duration": 0.3866,
      "velocity": 100,
      "chip": "ym2612"
    },
    {
      "channel": 2,
      "note": 85,
      "start": 40.6528,
      "duration": 0.066,
      "velocity": 95,
      "chip": "ym2612"
    },
    {
      "channel": 1,
      "note": 105,
      "start": 40.7701,
      "duration": 0.5046,
      "velocity": 80,
      "chip": "ym2612"
    },
    {
      "channel": 2,
      "note": 90,
      "start": 40.771,
      "duration": 0.0665,
      "velocity": 95,
      "chip": "ym2612"
    },
    {
      "channel": 2,
      "note": 94,
      "start": 40.9059,
      "duration": 0.0656,
      "velocity": 95,
      "chip": "ym2612"
    },
    {
      "channel": 0,
      "note": 49,
      "start": 41.0225,
      "duration": 0.4035,
      "velocity": 97,
      "chip": "ym2612"
    },
    {
      "channel": 2,
      "note": 90,
      "start": 41.0246,
      "duration": 0.0658,
      "velocity": 95,
      "chip": "ym2612"
    },
    {
      "channel": 3,
      "note": 85,
      "start": 41.0258,
      "duration": 0.0985,
      "velocity": 100,
      "chip": "ym2612"
    },
    {
      "channel": 4,
      "note": 77,
      "start": 41.0269,
      "duration": 0.0978,
      "velocity": 100,
      "chip": "ym2612"
    },
    {
      "channel": 5,
      "note": 85,
      "start": 41.0746,
      "duration": 0.1009,
      "velocity": 100,
      "chip": "ym2612"
    },
    {
      "channel": 2,
      "note": 94,
      "start": 41.1583,
      "duration": 0.066,
      "velocity": 95,
      "chip": "ym2612"
    },
    {
      "channel": 1,
      "note": 105,
      "start": 41.2756,
      "duration": 0.5047,
      "velocity": 80,
      "chip": "ym2612"
    },
    {
      "channel": 2,
      "note": 97,
      "start": 41.2765,
      "duration": 0.0666,
      "velocity": 95,
      "chip": "ym2612"
    },
    {
      "channel": 3,
      "note": 84,
      "start": 41.2776,
      "duration": 0.4029,
      "velocity": 100,
      "chip": "ym2612"
    },
    {
      "channel": 4,
      "note": 75,
      "start": 41.2787,
      "duration": 0.4022,
      "velocity": 100,
      "chip": "ym2612"
    },
    {
      "channel": 5,
      "note": 84,
      "start": 41.3271,
      "duration": 0.3877,
      "velocity": 100,
      "chip": "ym2612"
    },
    {
      "channel": 2,
      "note": 94,
      "start": 41.4112,
      "duration": 0.066,
      "velocity": 95,
      "chip": "ym2612"
    },
    {
      "channel": 0,
      "note": 54,
      "start": 41.5278,
      "duration": 0.4038,
      "velocity": 97,
      "chip": "ym2612"
    },
    {
      "channel": 2,
      "note": 97,
      "start": 41.5299,
      "duration": 0.066,
      "velocity": 95,
      "chip": "ym2612"
    },
    {
      "channel": 2,
      "note": 102,
      "start": 41.6639,
      "duration": 0.066,
      "velocity": 95,
      "chip": "ym2612"
    },
    {
      "channel": 1,
      "note": 105,
      "start": 41.7812,
      "duration": 0.2527,
      "velocity": 80,
      "chip": "ym2612"
    },
    {
      "channel": 2,
      "note": 97,
      "start": 41.7821,
      "duration": 0.0666,
      "velocity": 95,
      "chip": "ym2612"
    },
    {
      "channel": 3,
      "note": 82,
      "start": 41.7832,
      "duration": 0.1999,
      "velocity": 100,
      "chip": "ym2612"
    },
    {
      "channel": 4,
      "note": 73,
      "start": 41.7843,
      "duration": 0.1992,
      "velocity": 100,
      "chip": "ym2612"
    },
    {
      "channel": 5,
      "note": 82,
      "start": 41.8327,
      "duration": 0.2059,
      "velocity": 100,
      "chip": "ym2612"
    },
    {
      "channel": 2,
      "note": 102,
      "start": 41.9168,
      "duration": 0.066,
      "velocity": 95,
      "chip": "ym2612"
    },
    {
      "channel": 0,
      "note": 49,
      "start": 42.0334,
      "duration": 0.4038,
      "velocity": 97,
      "chip": "ym2612"
    },
    {
      "channel": 1,
      "note": 105,
      "start": 42.0348,
      "duration": 0.2511,
      "velocity": 80,
      "chip": "ym2612"
    },
    {
      "channel": 2,
      "note": 106,
      "start": 42.0357,
      "duration": 0.0658,
      "velocity": 95,
      "chip": "ym2612"
    },
    {
      "channel": 3,
      "note": 80,
      "start": 42.0368,
      "duration": 0.1992,
      "velocity": 100,
      "chip": "ym2612"
    },
    {
      "channel": 4,
      "note": 72,
      "start": 42.0379,
      "duration": 0.1985,
      "velocity": 100,
      "chip": "ym2612"
    },
    {
      "channel": 5,
      "note": 80,
      "start": 42.0855,
      "duration": 0.2053,
      "velocity": 100,
      "chip": "ym2612"
    },
    {
      "channel": 2,
      "note": 102,
      "start": 42.1695,
      "duration": 0.0661,
      "velocity": 95,
      "chip": "ym2612"
    },
    {
      "channel": 1,
      "note": 105,
      "start": 42.2868,
      "duration": 0.5046,
      "velocity": 80,
      "chip": "ym2612"
    },
    {
      "channel": 2,
      "note": 97,
      "start": 42.2877,
      "duration": 0.0666,
      "velocity": 95,
      "chip": "ym2612"
    },
    {
      "channel": 3,
      "note": 78,
      "start": 42.2892,
      "duration": 0.1999,
      "velocity": 100,
      "chip": "ym2612"
    },
    {
      "channel": 4,
      "note": 70,
      "start": 42.2903,
      "duration": 0.1992,
      "velocity": 100,
      "chip": "ym2612"
    },
    {
      "channel": 5,
      "note": 78,
      "start": 42.3384,
      "duration": 0.2057,
      "velocity": 100,
      "chip": "ym2612"
    },
    {
      "channel": 2,
      "note": 94,
      "start": 42.4227,
      "duration": 0.0657,
      "velocity": 95,
      "chip": "ym2612"
    },
    {
      "channel": 0,
      "note": 53,
      "start": 42.5393,
      "duration": 0.4035,
      "velocity": 97,
      "chip": "ym2612"
    },
    {
      "channel": 2,
      "note": 89,
      "start": 42.5415,
      "duration": 0.0656,
      "velocity": 95,
      "chip": "ym2612"
    },
    {
      "channel": 3,
      "note": 80,
      "start": 42.5426,
      "duration": 0.4013,
      "velocity": 100,
      "chip": "ym2612"
    },
    {
      "channel": 4,
      "note": 72,
      "start": 42.5437,
      "duration": 0.4006,
      "velocity": 100,
      "chip": "ym2612"
    },
    {
      "channel": 5,
      "note": 80,
      "start": 42.5914,
      "duration": 0.3874,
      "velocity": 100,
      "chip": "ym2612"
    },
    {
      "channel": 2,
      "note": 85,
      "start": 42.6751,
      "duration": 0.0661,
      "velocity": 95,
      "chip": "ym2612"
    },
    {
      "channel": 1,
      "note": 105,
      "start": 42.7925,
      "duration": 0.5046,
      "velocity": 80,
      "chip": "ym2612"
    },
    {
      "channel": 2,
      "note": 89,
      "start": 42.7934,
      "duration": 0.0665,
      "velocity": 95,
      "chip": "ym2612"
    },
    {
      "channel": 2,
      "note": 92,
      "start": 42.9279,
      "duration": 0.066,
      "velocity": 95,
      "chip": "ym2612"
    },
    {
      "channel": 0,
      "note": 49,
      "start": 43.0446,
      "duration": 0.4038,
      "velocity": 97,
      "chip": "ym2612"
    },
    {
      "channel": 2,
      "note": 89,
      "start": 43.0467,
      "duration": 0.066,
      "velocity": 95,
      "chip": "ym2612"
    },
    {
      "channel": 3,
      "note": 84,
      "start": 43.0478,
      "duration": 0.0989,
      "velocity": 100,
      "chip": "ym2612"
    },
    {
      "channel": 4,
      "note": 75,
      "start": 43.0489,
      "duration": 0.0982,
      "velocity": 100,
      "chip": "ym2612"
    },
    {
      "channel": 5,
      "note": 84,
      "start": 43.0968,
      "duration": 0.1004,
      "velocity": 100,
      "chip": "ym2612"
    },
    {
      "channel": 2,
      "note": 92,
      "start": 43.1807,
      "duration": 0.0668,
      "velocity": 95,
      "chip": "ym2612"
    },
    {
      "channel": 1,
      "note": 105,
      "start": 43.298,
      "duration": 0.5047,
      "velocity": 80,
      "chip": "ym2612"
    },
    {
      "channel": 2,
      "note": 97,
      "start": 43.2989,
      "duration": 0.0666,
      "velocity": 95,
      "chip": "ym2612"
    },
    {
      "channel": 3,
      "note": 82,
      "start": 43.3,
      "duration": 0.4022,
      "velocity": 100,
      "chip": "ym2612"
    },
    {
      "channel": 4,
      "note": 73,
      "start": 43.3012,
      "duration": 0.4014,
      "velocity": 100,
      "chip": "ym2612"
    },
    {
      "channel": 5,
      "note": 82,
      "start": 43.3496,
      "duration": 0.387,
      "velocity": 100,
      "chip": "ym2612"
    },
    {
      "channel": 2,
      "note": 92,
      "start": 43.4335,
      "duration": 0.0667,
      "velocity": 95,
      "chip": "ym2612"
    },
    {
      "channel": 0,
      "note": 53,
      "start": 43.5502,
      "duration": 0.4038,
      "velocity": 97,
      "chip": "ym2612"
    },
    {
      "channel": 2,
      "note": 97,
      "start": 43.5523,
      "duration": 0.066,
      "velocity": 95,
      "chip": "ym2612"
    },
    {
      "channel": 2,
      "note": 101,
      "start": 43.6863,
      "duration": 0.0668,
      "velocity": 95,
      "chip": "ym2612"
    },
    {
      "channel": 1,
      "note": 105,
      "start": 43.8036,
      "duration": 0.2531,
      "velocity": 80,
      "chip": "ym2612"
    },
    {
      "channel": 2,
      "note": 97,
      "start": 43.8045,
      "duration": 0.0665,
      "velocity": 95,
      "chip": "ym2612"
    },
    {
      "channel": 3,
      "note": 80,
      "start": 43.8059,
      "duration": 0.2007,
      "velocity": 100,
      "chip": "ym2612"
    },
    {
      "channel": 4,
      "note": 72,
      "start": 43.8071,
      "duration": 0.1999,
      "velocity": 100,
      "chip": "ym2612"
    },
    {
      "channel": 5,
      "note": 80,
      "start": 43.8556,
      "duration": 0.2056,
      "velocity": 100,
      "chip": "ym2612"
    },
    {
      "channel": 2,
      "note": 101,
      "start": 43.9395,
      "duration": 0.0667,
      "velocity": 95,
      "chip": "ym2612"
    },
    {
      "channel": 0,
      "note": 49,
      "start": 44.0561,
      "duration": 0.4035,
      "velocity": 97,
      "chip": "ym2612"
    },
    {
      "channel": 1,
      "note": 105,
      "start": 44.0575,
      "duration": 0.2508,
      "velocity": 80,
      "chip": "ym2612"
    },
    {
      "channel": 2,
      "note": 104,
      "start": 44.0585,
      "duration": 0.0654,
      "velocity": 95,
      "chip": "ym2612"
    },
    {
      "channel": 3,
      "note": 78,
      "start": 44.0596,
      "duration": 0.1995,
      "velocity": 100,
      "chip": "ym2612"
    },
    {
      "channel": 4,
      "note": 70,
      "start": 44.0607,
      "duration": 0.1988,
      "velocity": 100,
      "chip": "ym2612"
    },
    {
      "channel": 5,
      "note": 78,
      "start": 44.108,
      "duration": 0.2049,
      "velocity": 100,
      "chip": "ym2612"
    },
    {
      "channel": 2,
      "note": 101,
      "start": 44.192,
      "duration": 0.0667,
      "velocity": 95,
      "chip": "ym2612"
    },
    {
      "channel": 1,
      "note": 105,
      "start": 44.3093,
      "duration": 0.5046,
      "velocity": 80,
      "chip": "ym2612"
    },
    {
      "channel": 2,
      "note": 97,
      "start": 44.3102,
      "duration": 0.0665,
      "velocity": 95,
      "chip": "ym2612"
    },
    {
      "channel": 3,
      "note": 77,
      "start": 44.3113,
      "duration": 0.2006,
      "velocity": 100,
      "chip": "ym2612"
    },
    {
      "channel": 4,
      "note": 68,
      "start": 44.3124,
      "duration": 0.1999,
      "velocity": 100,
      "chip": "ym2612"
    },
    {
      "channel": 5,
      "note": 77,
      "start": 44.3608,
      "duration": 0.2054,
      "velocity": 100,
      "chip": "ym2612"
    },
    {
      "channel": 2,
      "note": 92,
      "start": 44.4448,
      "duration": 0.0667,
      "velocity": 95,
      "chip": "ym2612"
    },
    {
      "channel": 0,
      "note": 51,
      "start": 44.5614,
      "duration": 0.4038,
      "velocity": 97,
      "chip": "ym2612"
    },
    {
      "channel": 2,
      "note": 87,
      "start": 44.5635,
      "duration": 0.066,
      "velocity": 95,
      "chip": "ym2612"
    },
    {
      "channel": 3,
      "note": 78,
      "start": 44.5646,
      "duration": 0.4016,
      "velocity": 100,
      "chip": "ym2612"
    },
    {
      "channel": 4,
      "note": 70,
      "start": 44.5657,
      "duration": 0.4009,
      "velocity": 100,
      "chip": "ym2612"
    },
    {
      "channel": 5,
      "note": 78,
      "start": 44.6136,
      "duration": 0.387,
      "velocity": 100,
      "chip": "ym2612"
    },
    {
      "channel": 2,
      "note": 84,
      "start": 44.6976,
      "duration": 0.0667,
      "velocity": 95,
      "chip": "ym2612"
    },
    {
      "channel": 1,
      "note": 105,
      "start": 44.8149,
      "duration": 0.5046,
      "velocity": 80,
      "chip": "ym2612"
    },
    {
      "channel": 2,
      "note": 87,
      "start": 44.8158,
      "duration": 0.0665,
      "velocity": 95,
      "chip": "ym2612"
    },
    {
      "channel": 2,
      "note": 92,
      "start": 44.9504,
      "duration": 0.0667,
      "velocity": 95,
      "chip": "ym2612"
    },
    {
      "channel": 0,
      "note": 48,
      "start": 45.067,
      "duration": 0.4038,
      "velocity": 97,
      "chip": "ym2612"
    },
    {
      "channel": 2,
      "note": 87,
      "start": 45.0692,
      "duration": 0.066,
      "velocity": 95,
      "chip": "ym2612"
    },
    {
      "channel": 3,
      "note": 82,
      "start": 45.0702,
      "duration": 0.0988,
      "velocity": 100,
      "chip": "ym2612"
    },
    {
      "channel": 4,
      "note": 73,
      "start": 45.0713,
      "duration": 0.0981,
      "velocity": 100,
      "chip": "ym2612"
    },
    {
      "channel": 5,
      "note": 82,
      "start": 45.1192,
      "duration": 0.1005,
      "velocity": 100,
      "chip": "ym2612"
    },
    {
      "channel": 2,
      "note": 92,
      "start": 45.2032,
      "duration": 0.0667,
      "velocity": 95,
      "chip": "ym2612"
    },
    {
      "channel": 1,
      "note": 105,
      "start": 45.3204,
      "duration": 0.5046,
      "velocity": 80,
      "chip": "ym2612"
    },
    {
      "channel": 2,
      "note": 96,
      "start": 45.3213,
      "duration": 0.0666,
      "velocity": 95,
      "chip": "ym2612"
    },
    {
      "channel": 3,
      "note": 80,
      "start": 45.3228,
      "duration": 0.4019,
      "velocity": 100,
      "chip": "ym2612"
    },
    {
      "channel": 4,
      "note": 72,
      "start": 45.3239,
      "duration": 0.4011,
      "velocity": 100,
      "chip": "ym2612"
    },
    {
      "channel": 5,
      "note": 80,
      "start": 45.3724,
      "duration": 0.4042,
      "velocity": 100,
      "chip": "ym2612"
    },
    {
      "channel": 2,
      "note": 92,
      "start": 45.4563,
      "duration": 0.0667,
      "velocity": 95,
      "chip": "ym2612"
    },
    {
      "channel": 0,
      "note": 51,
      "start": 45.573,
      "duration": 0.4034,
      "velocity": 97,
      "chip": "ym2612"
    },
    {
      "channel": 2,
      "note": 96,
      "start": 45.5751,
      "duration": 0.0656,
      "velocity": 95,
      "chip": "ym2612"
    },
    {
      "channel": 2,
      "note": 99,
      "start": 45.7088,
      "duration": 0.0667,
      "velocity": 95,
      "chip": "ym2612"
    },
    {
      "channel": 1,
      "note": 105,
      "start": 45.826,
      "duration": 0.2519,
      "velocity": 80,
      "chip": "ym2612"
    },
    {
      "channel": 2,
      "note": 96,
      "start": 45.8269,
      "duration": 0.0666,
      "velocity": 95,
      "chip": "ym2612"
    },
    {
      "channel": 3,
      "note": 78,
      "start": 45.828,
      "duration": 0.2007,
      "velocity": 100,
      "chip": "ym2612"
    },
    {
      "channel": 4,
      "note": 70,
      "start": 45.8292,
      "duration": 0.1999,
      "velocity": 100,
      "chip": "ym2612"
    },
    {
      "channel": 5,
      "note": 78,
      "start": 45.8776,
      "duration": 0.2016,
      "velocity": 100,
      "chip": "ym2612"
    },
    {
      "channel": 2,
      "note": 99,
      "start": 45.9616,
      "duration": 0.0667,
      "velocity": 95,
      "chip": "ym2612"
    },
    {
      "channel": 0,
      "note": 48,
      "start": 46.0951,
      "duration": 0.387,
      "velocity": 97,
      "chip": "ym2612"
    },
    {
      "channel": 1,
      "note": 105,
      "start": 46.0963,
      "duration": 0.2344,
      "velocity": 80,
      "chip": "ym2612"
    },
    {
      "channel": 2,
      "note": 104,
      "start": 46.0973,
      "duration": 0.0652,
      "velocity": 95,
      "chip": "ym2612"
    },
    {
      "channel": 3,
      "note": 77,
      "start": 46.0984,
      "duration": 0.1831,
      "velocity": 100,
      "chip": "ym2612"
    },
    {
      "channel": 4,
      "note": 68,
      "start": 46.0995,
      "duration": 0.1824,
      "velocity": 100,
      "chip": "ym2612"
    },
    {
      "channel": 5,
      "note": 77,
      "start": 46.1304,
      "duration": 0.2017,
      "velocity": 100,
      "chip": "ym2612"
    },
    {
      "channel": 2,
      "note": 99,
      "start": 46.2144,
      "duration": 0.0667,
      "velocity": 95,
      "chip": "ym2612"
    },
    {
      "channel": 1,
      "note": 105,
      "start": 46.3484,
      "duration": 0.4878,
      "velocity": 80,
      "chip": "ym2612"
    },
    {
      "channel": 2,
      "note": 96,
      "start": 46.3494,
      "duration": 0.0659,
      "velocity": 95,
      "chip": "ym2612"
    },
    {
      "channel": 3,
      "note": 75,
      "start": 46.3505,
      "duration": 0.1838,
      "velocity": 100,
      "chip": "ym2612"
    },
    {
      "channel": 4,
      "note": 66,
      "start": 46.3516,
      "duration": 0.1831,
      "velocity": 100,
      "chip": "ym2612"
    },
    {
      "channel": 5,
      "note": 75,
      "start": 46.3832,
      "duration": 0.2015,
      "velocity": 100,
      "chip": "ym2612"
    },
    {
      "channel": 2,
      "note": 92,
      "start": 46.4672,
      "duration": 0.0667,
      "velocity": 95,
      "chip": "ym2612"
    },
    {
      "channel": 0,
      "note": 53,
      "start": 46.6007,
      "duration": 0.387,
      "velocity": 97,
      "chip": "ym2612"
    },
    {
      "channel": 2,
      "note": 89,
      "start": 46.6028,
      "duration": 0.0653,
      "velocity": 95,
      "chip": "ym2612"
    },
    {
      "channel": 3,
      "note": 77,
      "start": 46.6039,
      "duration": 0.0982,
      "velocity": 100,
      "chip": "ym2612"
    },
    {
      "channel": 4,
      "note": 68,
      "start": 46.6051,
      "duration": 0.0974,
      "velocity": 100,
      "chip": "ym2612"
    },
    {
      "channel": 5,
      "note": 77,
      "start": 46.636,
      "duration": 0.1005,
      "velocity": 100,
      "chip": "ym2612"
    },
    {
      "channel": 2,
      "note": 85,
      "start": 46.72,
      "duration": 0.0667,
      "velocity": 95,
      "chip": "ym2612"
    },
    {
      "channel": 1,
      "note": 105,
      "start": 46.8541,
      "duration": 0.4879,
      "velocity": 80,
      "chip": "ym2612"
    },
    {
      "channel": 2,
      "note": 89,
      "start": 46.855,
      "duration": 0.0659,
      "velocity": 95,
      "chip": "ym2612"
    },
    {
      "channel": 3,
      "note": 77,
      "start": 46.8564,
      "duration": 0.1999,
      "velocity": 100,
      "chip": "ym2612"
    },
    {
      "channel": 4,
      "note": 68,
      "start": 46.8575,
      "duration": 0.1992,
      "velocity": 100,
      "chip": "ym2612"
    },
    {
      "channel": 5,
      "note": 77,
      "start": 46.8891,
      "duration": 0.2014,
      "velocity": 100,
      "chip": "ym2612"
    },
    {
      "channel": 2,
      "note": 92,
      "start": 46.9732,
      "duration": 0.0667,
      "velocity": 95,
      "chip": "ym2612"
    },
    {
      "channel": 0,
      "note": 49,
      "start": 47.1064,
      "duration": 0.3868,
      "velocity": 97,
      "chip": "ym2612"
    },
    {
      "channel": 2,
      "note": 89,
      "start": 47.1085,
      "duration": 0.0651,
      "velocity": 95,
      "chip": "ym2612"
    },
    {
      "channel": 3,
      "note": 73,
      "start": 47.1096,
      "duration": 0.1992,
      "velocity": 100,
      "chip": "ym2612"
    },
    {
      "channel": 4,
      "note": 65,
      "start": 47.1108,
      "duration": 0.1984,
      "velocity": 100,
      "chip": "ym2612"
    },
    {
      "channel": 5,
      "note": 73,
      "start": 47.1416,
      "duration": 0.2016,
      "velocity": 100,
      "chip": "ym2612"
    },
    {
      "channel": 2,
      "note": 92,
      "start": 47.2256,
      "duration": 0.0667,
      "velocity": 95,
      "chip": "ym2612"
    },
    {
      "channel": 1,
      "note": 105,
      "start": 47.3596,
      "duration": 0.4879,
      "velocity": 80,
      "chip": "ym2612"
    },
    {
      "channel": 2,
      "note": 97,
      "start": 47.3605,
      "duration": 0.066,
      "velocity": 95,
      "chip": "ym2612"
    },
    {
      "channel": 3,
      "note": 80,
      "start": 47.3616,
      "duration": 0.0989,
      "velocity": 100,
      "chip": "ym2612"
    },
    {
      "channel": 4,
      "note": 73,
      "start": 47.3627,
      "duration": 0.0982,
      "velocity": 100,
      "chip": "ym2612"
    },
    {
      "channel": 5,
      "note": 80,
      "start": 47.3944,
      "duration": 0.1005,
      "velocity": 100,
      "chip": "ym2612"
    },
    {
      "channel": 2,
      "note": 92,
      "start": 47.4784,
      "duration": 0.0667,
      "velocity": 95,
      "chip": "ym2612"
    },
    {
      "channel": 0,
      "note": 49,
      "start": 47.612,
      "duration": 0.2015,
      "velocity": 97,
      "chip": "ym2612"
    },
    {
      "channel": 2,
      "note": 97,
      "start": 47.6141,
      "duration": 0.0652,
      "velocity": 95,
      "chip": "ym2612"
    },
    {
      "channel": 3,
      "note": 80,
      "start": 47.6152,
      "duration": 0.1993,
      "velocity": 100,
      "chip": "ym2612"
    },
    {
      "channel": 4,
      "note": 73,
      "start": 47.6163,
      "duration": 0.1985,
      "velocity": 100,
      "chip": "ym2612"
    },
    {
      "channel": 5,
      "note": 80,
      "start": 47.6479,
      "duration": 0.2009,
      "velocity": 100,
      "chip": "ym2612"
    },
    {
      "channel": 2,
      "note": 101,
      "start": 47.7312,
      "duration": 0.0668,
      "velocity": 95,
      "chip": "ym2612"
    },
    {
      "channel": 0,
      "note": 49,
      "start": 47.8646,
      "duration": 0.2017,
      "velocity": 97,
      "chip": "ym2612"
    },
    {
      "channel": 1,
      "note": 105,
      "start": 47.866,
      "duration": 0.2343,
      "velocity": 80,
      "chip": "ym2612"
    },
    {
      "channel": 2,
      "note": 97,
      "start": 47.8669,
      "duration": 0.0652,
      "velocity": 95,
      "chip": "ym2612"
    },
    {
      "channel": 3,
      "note": 77,
      "start": 47.868,
      "duration": 0.1993,
      "velocity": 100,
      "chip": "ym2612"
    },
    {
      "channel": 4,
      "note": 68,
      "start": 47.8691,
      "duration": 0.1985,
      "velocity": 100,
      "chip": "ym2612"
    },
    {
      "channel": 5,
      "note": 77,
      "start": 47.9007,
      "duration": 0.2009,
      "velocity": 100,
      "chip": "ym2612"
    },
    {
      "channel": 2,
      "note": 101,
      "start": 47.984,
      "duration": 0.0668,
      "velocity": 95,
      "chip": "ym2612"
    },
    {
      "channel": 0,
      "note": 51,
      "start": 48.1175,
      "duration": 0.2016,
      "velocity": 97,
      "chip": "ym2612"
    },
    {
      "channel": 1,
      "note": 105,
      "start": 48.1188,
      "duration": 0.2343,
      "velocity": 80,
      "chip": "ym2612"
    },
    {
      "channel": 2,
      "note": 104,
      "start": 48.1198,
      "duration": 0.0651,
      "velocity": 95,
      "chip": "ym2612"
    },
    {
      "channel": 3,
      "note": 85,
      "start": 48.1209,
      "duration": 0.1992,
      "velocity": 100,
      "chip": "ym2612"
    },
    {
      "channel": 4,
      "note": 77,
      "start": 48.1223,
      "duration": 0.1982,
      "velocity": 100,
      "chip": "ym2612"
    },
    {
      "channel": 5,
      "note": 85,
      "start": 48.1535,
      "duration": 0.2009,
      "velocity": 100,
      "chip": "ym2612"
    },
    {
      "channel": 2,
      "note": 101,
      "start": 48.2368,
      "duration": 0.0668,
      "velocity": 95,
      "chip": "ym2612"
    },
    {
      "channel": 0,
      "note": 53,
      "start": 48.3703,
      "duration": 0.2019,
      "velocity": 97,
      "chip": "ym2612"
    },
    {
      "channel": 1,
      "note": 105,
      "start": 48.3717,
      "duration": 0.4871,
      "velocity": 80,
      "chip": "ym2612"
    },
    {
      "channel": 2,
      "note": 104,
      "start": 48.3729,
      "duration": 0.0648,
      "velocity": 95,
      "chip": "ym2612"
    },
    {
      "channel": 3,
      "note": 80,
      "start": 48.374,
      "duration": 0.1993,
      "velocity": 100,
      "chip": "ym2612"
    },
    {
      "channel": 4,
      "note": 73,
      "start": 48.3751,
      "duration": 0.1985,
      "velocity": 100,
      "chip": "ym2612"
    },
    {
      "channel": 5,
      "note": 80,
      "start": 48.4067,
      "duration": 0.2006,
      "velocity": 100,
      "chip": "ym2612"
    },
    {
      "channel": 2,
      "note": 109,
      "start": 48.49,
      "duration": 0.0667,
      "velocity": 95,
      "chip": "ym2612"
    },
    {
      "channel": 0,
      "note": 54,
      "start": 48.6232,
      "duration": 0.3868,
      "velocity": 97,
      "chip": "ym2612"
    },
    {
      "channel": 2,
      "note": 90,
      "start": 48.6255,
      "duration": 0.0649,
      "velocity": 95,
      "chip": "ym2612"
    },
    {
      "channel": 3,
      "note": 78,
      "start": 48.6266,
      "duration": 0.3845,
      "velocity": 100,
      "chip": "ym2612"
    },
    {
      "channel": 4,
      "note": 70,
      "start": 48.6277,
      "duration": 0.3838,
      "velocity": 100,
      "chip": "ym2612"
    },
    {
      "channel": 5,
      "note": 78,
      "start": 48.6591,
      "duration": 0.4038,
      "velocity": 100,
      "chip": "ym2612"
    },
    {
      "channel": 2,
      "note": 85,
      "start": 48.7424,
      "duration": 0.0668,
      "velocity": 95,
      "chip": "ym2612"
    },
    {
      "channel": 1,
      "note": 105,
      "start": 48.8765,
      "duration": 0.5047,
      "velocity": 80,
      "chip": "ym2612"
    },
    {
      "channel": 2,
      "note": 90,
      "start": 48.8774,
      "duration": 0.0665,
      "velocity": 95,
      "chip": "ym2612"
    },
    {
      "channel": 2,
      "note": 94,
      "start": 48.9952,
      "duration": 0.0667,
      "velocity": 95,
      "chip": "ym2612"
    },
    {
      "channel": 0,
      "note": 49,
      "start": 49.1287,
      "duration": 0.387,
      "velocity": 97,
      "chip": "ym2612"
    },
    {
      "channel": 2,
      "note": 90,
      "start": 49.1308,
      "duration": 0.066,
      "velocity": 95,
      "chip": "ym2612"
    },
    {
      "channel": 3,
      "note": 73,
      "start": 49.132,
      "duration": 0.0982,
      "velocity": 100,
      "chip": "ym2612"
    },
    {
      "channel": 4,
      "note": 66,
      "start": 49.133,
      "duration": 0.0975,
      "velocity": 100,
      "chip": "ym2612"
    },
    {
      "channel": 5,
      "note": 73,
      "start": 49.1647,
      "duration": 0.0998,
      "velocity": 100,
      "chip": "ym2612"
    },
    {
      "channel": 2,
      "note": 94,
      "start": 49.248,
      "duration": 0.0668,
      "velocity": 95,
      "chip": "ym2612"
    },
    {
      "channel": 1,
      "note": 105,
      "start": 49.3821,
      "duration": 0.5047,
      "velocity": 80,
      "chip": "ym2612"
    },
    {
      "channel": 2,
      "note": 97,
      "start": 49.383,
      "duration": 0.0665,
      "velocity": 95,
      "chip": "ym2612"
    },
    {
      "channel": 3,
      "note": 78,
      "start": 49.3841,
      "duration": 0.3853,
      "velocity": 100,
      "chip": "ym2612"
    },
    {
      "channel": 4,
      "note": 70,
      "start": 49.3853,
      "duration": 0.3845,
      "velocity": 100,
      "chip": "ym2612"
    },
    {
      "channel": 5,
      "note": 78,
      "start": 49.4175,
      "duration": 0.4039,
      "velocity": 100,
      "chip": "ym2612"
    },
    {
      "channel": 2,
      "note": 94,
      "start": 49.5008,
      "duration": 0.0667,
      "velocity": 95,
      "chip": "ym2612"
    },
    {
      "channel": 0,
      "note": 54,
      "start": 49.6343,
      "duration": 0.387,
      "velocity": 97,
      "chip": "ym2612"
    },
    {
      "channel": 2,
      "note": 97,
      "start": 49.6364,
      "duration": 0.066,
      "velocity": 95,
      "chip": "ym2612"
    },
    {
      "channel": 2,
      "note": 102,
      "start": 49.7537,
      "duration": 0.0667,
      "velocity": 95,
      "chip": "ym2612"
    },
    {
      "channel": 1,
      "note": 105,
      "start": 49.8877,
      "duration": 0.2527,
      "velocity": 80,
      "chip": "ym2612"
    },
    {
      "channel": 2,
      "note": 97,
      "start": 49.889,
      "duration": 0.0666,
      "velocity": 95,
      "chip": "ym2612"
    },
    {
      "channel": 3,
      "note": 82,
      "start": 49.8901,
      "duration": 0.1999,
      "velocity": 100,
      "chip": "ym2612"
    },
    {
      "channel": 4,
      "note": 73,
      "start": 49.8912,
      "duration": 0.1992,
      "velocity": 100,
      "chip": "ym2612"
    },
    {
      "channel": 5,
      "note": 82,
      "start": 49.9235,
      "duration": 0.2005,
      "velocity": 100,
      "chip": "ym2612"
    },
    {
      "channel": 2,
      "note": 102,
      "start": 50.0068,
      "duration": 0.0667,
      "velocity": 95,
      "chip": "ym2612"
    },
    {
      "channel": 0,
      "note": 49,
      "start": 50.1399,
      "duration": 0.387,
      "velocity": 97,
      "chip": "ym2612"
    },
    {
      "channel": 1,
      "note": 105,
      "start": 50.1413,
      "duration": 0.2511,
      "velocity": 80,
      "chip": "ym2612"
    },
    {
      "channel": 2,
      "note": 106,
      "start": 50.1423,
      "duration": 0.0657,
      "velocity": 95,
      "chip": "ym2612"
    },
    {
      "channel": 3,
      "note": 84,
      "start": 50.1433,
      "duration": 0.1991,
      "velocity": 100,
      "chip": "ym2612"
    },
    {
      "channel": 4,
      "note": 75,
      "start": 50.1445,
      "duration": 0.1983,
      "velocity": 100,
      "chip": "ym2612"
    },
    {
      "channel": 5,
      "note": 84,
      "start": 50.1759,
      "duration": 0.2008,
      "velocity": 100,
      "chip": "ym2612"
    },
    {
      "channel": 2,
      "note": 102,
      "start": 50.2593,
      "duration": 0.0667,
      "velocity": 95,
      "chip": "ym2612"
    },
    {
      "channel": 1,
      "note": 105,
      "start": 50.3933,
      "duration": 0.5046,
      "velocity": 80,
      "chip": "ym2612"
    },
    {
      "channel": 2,
      "note": 97,
      "start": 50.3943,
      "duration": 0.0665,
      "velocity": 95,
      "chip": "ym2612"
    },
    {
      "channel": 3,
      "note": 85,
      "start": 50.3954,
      "duration": 0.1998,
      "velocity": 100,
      "chip": "ym2612"
    },
    {
      "channel": 4,
      "note": 77,
      "start": 50.3965,
      "duration": 0.1991,
      "velocity": 100,
      "chip": "ym2612"
    },
    {
      "channel": 5,
      "note": 85,
      "start": 50.4287,
      "duration": 0.2008,
      "velocity": 100,
      "chip": "ym2612"
    },
    {
      "channel": 2,
      "note": 94,
      "start": 50.512,
      "duration": 0.0667,
      "velocity": 95,
      "chip": "ym2612"
    },
    {
      "channel": 0,
      "note": 53,
      "start": 50.6455,
      "duration": 0.4038,
      "velocity": 97,
      "chip": "ym2612"
    },
    {
      "channel": 2,
      "note": 89,
      "start": 50.6476,
      "duration": 0.066,
      "velocity": 95,
      "chip": "ym2612"
    },
    {
      "channel": 3,
      "note": 77,
      "start": 50.6488,
      "duration": 0.4023,
      "velocity": 100,
      "chip": "ym2612"
    },
    {
      "channel": 4,
      "note": 68,
      "start": 50.6498,
      "duration": 0.4016,
      "velocity": 100,
      "chip": "ym2612"
    },
    {
      "channel": 5,
      "note": 77,
      "start": 50.6815,
      "duration": 0.4039,
      "velocity": 100,
      "chip": "ym2612"
    },
    {
      "channel": 2,
      "note": 85,
      "start": 50.7649,
      "duration": 0.0667,
      "velocity": 95,
      "chip": "ym2612"
    },
    {
      "channel": 1,
      "note": 105,
      "start": 50.899,
      "duration": 0.5046,
      "velocity": 80,
      "chip": "ym2612"
    },
    {
      "channel": 2,
      "note": 89,
      "start": 50.8999,
      "duration": 0.0666,
      "velocity": 95,
      "chip": "ym2612"
    },
    {
      "channel": 2,
      "note": 92,
      "start": 51.0176,
      "duration": 0.0667,
      "velocity": 95,
      "chip": "ym2612"
    },
    {
      "channel": 0,
      "note": 49,
      "start": 51.1511,
      "duration": 0.4038,
      "velocity": 97,
      "chip": "ym2612"
    },
    {
      "channel": 2,
      "note": 89,
      "start": 51.1533,
      "duration": 0.066,
      "velocity": 95,
      "chip": "ym2612"
    },
    {
      "channel": 3,
      "note": 73,
      "start": 51.1544,
      "duration": 0.0988,
      "velocity": 100,
      "chip": "ym2612"
    },
    {
      "channel": 4,
      "note": 65,
      "start": 51.1558,
      "duration": 0.0978,
      "velocity": 100,
      "chip": "ym2612"
    },
    {
      "channel": 5,
      "note": 73,
      "start": 51.1871,
      "duration": 0.0998,
      "velocity": 100,
      "chip": "ym2612"
    },
    {
      "channel": 2,
      "note": 92,
      "start": 51.2704,
      "duration": 0.0667,
      "velocity": 95,
      "chip": "ym2612"
    },
    {
      "channel": 1,
      "note": 105,
      "start": 51.4045,
      "duration": 0.5047,
      "velocity": 80,
      "chip": "ym2612"
    },
    {
      "channel": 2,
      "note": 97,
      "start": 51.4057,
      "duration": 0.0666,
      "velocity": 95,
      "chip": "ym2612"
    },
    {
      "channel": 3,
      "note": 77,
      "start": 51.4069,
      "duration": 0.4025,
      "velocity": 100,
      "chip": "ym2612"
    },
    {
      "channel": 4,
      "note": 68,
      "start": 51.408,
      "duration": 0.4018,
      "velocity": 100,
      "chip": "ym2612"
    },
    {
      "channel": 5,
      "note": 77,
      "start": 51.4403,
      "duration": 0.4035,
      "velocity": 100,
      "chip": "ym2612"
    },
    {
      "channel": 2,
      "note": 92,
      "start": 51.5236,
      "duration": 0.0668,
      "velocity": 95,
      "chip": "ym2612"
    },
    {
      "channel": 0,
      "note": 53,
      "start": 51.6567,
      "duration": 0.4038,
      "velocity": 97,
      "chip": "ym2612"
    },
    {
      "channel": 2,
      "note": 97,
      "start": 51.6589,
      "duration": 0.066,
      "velocity": 95,
      "chip": "ym2612"
    },
    {
      "channel": 2,
      "note": 101,
      "start": 51.776,
      "duration": 0.0667,
      "velocity": 95,
      "chip": "ym2612"
    },
    {
      "channel": 1,
      "note": 105,
      "start": 51.9101,
      "duration": 0.2526,
      "velocity": 80,
      "chip": "ym2612"
    },
    {
      "channel": 2,
      "note": 97,
      "start": 51.911,
      "duration": 0.0666,
      "velocity": 95,
      "chip": "ym2612"
    },
    {
      "channel": 3,
      "note": 77,
      "start": 51.9121,
      "duration": 0.2,
      "velocity": 100,
      "chip": "ym2612"
    },
    {
      "channel": 4,
      "note": 68,
      "start": 51.9132,
      "duration": 0.1993,
      "velocity": 100,
      "chip": "ym2612"
    },
    {
      "channel": 5,
      "note": 77,
      "start": 51.9617,
      "duration": 0.1847,
      "velocity": 100,
      "chip": "ym2612"
    },
    {
      "channel": 2,
      "note": 101,
      "start": 52.0457,
      "duration": 0.066,
      "velocity": 95,
      "chip": "ym2612"
    },
    {
      "channel": 0,
      "note": 49,
      "start": 52.1623,
      "duration": 0.4039,
      "velocity": 97,
      "chip": "ym2612"
    },
    {
      "channel": 1,
      "note": 105,
      "start": 52.1637,
      "duration": 0.2511,
      "velocity": 80,
      "chip": "ym2612"
    },
    {
      "channel": 2,
      "note": 104,
      "start": 52.1646,
      "duration": 0.0658,
      "velocity": 95,
      "chip": "ym2612"
    },
    {
      "channel": 3,
      "note": 80,
      "start": 52.1657,
      "duration": 0.1992,
      "velocity": 100,
      "chip": "ym2612"
    },
    {
      "channel": 4,
      "note": 73,
      "start": 52.1669,
      "duration": 0.1984,
      "velocity": 100,
      "chip": "ym2612"
    },
    {
      "channel": 5,
      "note": 80,
      "start": 52.2145,
      "duration": 0.1847,
      "velocity": 100,
      "chip": "ym2612"
    },
    {
      "channel": 2,
      "note": 101,
      "start": 52.2985,
      "duration": 0.066,
      "velocity": 95,
      "chip": "ym2612"
    },
    {
      "channel": 1,
      "note": 105,
      "start": 52.4158,
      "duration": 0.5046,
      "velocity": 80,
      "chip": "ym2612"
    },
    {
      "channel": 2,
      "note": 97,
      "start": 52.4167,
      "duration": 0.0665,
      "velocity": 95,
      "chip": "ym2612"
    },
    {
      "channel": 3,
      "note": 85,
      "start": 52.4178,
      "duration": 0.1999,
      "velocity": 100,
      "chip": "ym2612"
    },
    {
      "channel": 4,
      "note": 77,
      "start": 52.4189,
      "duration": 0.1992,
      "velocity": 100,
      "chip": "ym2612"
    },
    {
      "channel": 5,
      "note": 85,
      "start": 52.4673,
      "duration": 0.1847,
      "velocity": 100,
      "chip": "ym2612"
    },
    {
      "channel": 2,
      "note": 92,
      "start": 52.5514,
      "duration": 0.066,
      "velocity": 95,
      "chip": "ym2612"
    },
    {
      "channel": 0,
      "note": 51,
      "start": 52.6679,
      "duration": 0.404,
      "velocity": 97,
      "chip": "ym2612"
    },
    {
      "channel": 2,
      "note": 87,
      "start": 52.6701,
      "duration": 0.066,
      "velocity": 95,
      "chip": "ym2612"
    },
    {
      "channel": 3,
      "note": 75,
      "start": 52.6711,
      "duration": 0.1994,
      "velocity": 100,
      "chip": "ym2612"
    },
    {
      "channel": 4,
      "note": 68,
      "start": 52.6726,
      "duration": 0.1983,
      "velocity": 100,
      "chip": "ym2612"
    },
    {
      "channel": 5,
      "note": 75,
      "start": 52.7201,
      "duration": 0.2053,
      "velocity": 100,
      "chip": "ym2612"
    },
    {
      "channel": 2,
      "note": 84,
      "start": 52.8041,
      "duration": 0.066,
      "velocity": 95,
      "chip": "ym2612"
    },
    {
      "channel": 1,
      "note": 105,
      "start": 52.9215,
      "duration": 0.5046,
      "velocity": 80,
      "chip": "ym2612"
    },
    {
      "channel": 2,
      "note": 87,
      "start": 52.9227,
      "duration": 0.0665,
      "velocity": 95,
      "chip": "ym2612"
    },
    {
      "channel": 3,
      "note": 72,
      "start": 52.9238,
      "duration": 0.1996,
      "velocity": 100,
      "chip": "ym2612"
    },
    {
      "channel": 4,
      "note": 63,
      "start": 52.925,
      "duration": 0.1988,
      "velocity": 100,
      "chip": "ym2612"
    },
    {
      "channel": 5,
      "note": 72,
      "start": 52.9733,
      "duration": 0.205,
      "velocity": 100,
      "chip": "ym2612"
    },
    {
      "channel": 2,
      "note": 92,
      "start": 53.0573,
      "duration": 0.0658,
      "velocity": 95,
      "chip": "ym2612"
    },
    {
      "channel": 0,
      "note": 48,
      "start": 53.1736,
      "duration": 0.4038,
      "velocity": 97,
      "chip": "ym2612"
    },
    {
      "channel": 2,
      "note": 87,
      "start": 53.1756,
      "duration": 0.066,
      "velocity": 95,
      "chip": "ym2612"
    },
    {
      "channel": 3,
      "note": 75,
      "start": 53.1767,
      "duration": 0.1994,
      "velocity": 100,
      "chip": "ym2612"
    },
    {
      "channel": 4,
      "note": 68,
      "start": 53.1779,
      "duration": 0.1987,
      "velocity": 100,
      "chip": "ym2612"
    },
    {
      "channel": 5,
      "note": 75,
      "start": 53.2256,
      "duration": 0.2049,
      "velocity": 100,
      "chip": "ym2612"
    },
    {
      "channel": 2,
      "note": 92,
      "start": 53.3097,
      "duration": 0.0661,
      "velocity": 95,
      "chip": "ym2612"
    },
    {
      "channel": 1,
      "note": 105,
      "start": 53.4269,
      "duration": 0.5047,
      "velocity": 80,
      "chip": "ym2612"
    },
    {
      "channel": 2,
      "note": 96,
      "start": 53.4278,
      "duration": 0.0666,
      "velocity": 95,
      "chip": "ym2612"
    },
    {
      "channel": 3,
      "note": 80,
      "start": 53.429,
      "duration": 0.2,
      "velocity": 100,
      "chip": "ym2612"
    },
    {
      "channel": 4,
      "note": 72,
      "start": 53.4301,
      "duration": 0.1992,
      "velocity": 100,
      "chip": "ym2612"
    },
    {
      "channel": 5,
      "note": 80,
      "start": 53.4785,
      "duration": 0.2039,
      "velocity": 100,
      "chip": "ym2612"
    },
    {
      "channel": 2,
      "note": 92,
      "start": 53.5625,
      "duration": 0.066,
      "velocity": 95,
      "chip": "ym2612"
    },
    {
      "channel": 0,
      "note": 51,
      "start": 53.6792,
      "duration": 0.4038,
      "velocity": 97,
      "chip": "ym2612"
    },
    {
      "channel": 2,
      "note": 96,
      "start": 53.6812,
      "duration": 0.066,
      "velocity": 95,
      "chip": "ym2612"
    },
    {
      "channel": 2,
      "note": 99,
      "start": 53.8153,
      "duration": 0.0661,
      "velocity": 95,
      "chip": "ym2612"
    },
    {
      "channel": 1,
      "note": 105,
      "start": 53.9325,
      "duration": 0.2527,
      "velocity": 80,
      "chip": "ym2612"
    },
    {
      "channel": 2,
      "note": 96,
      "start": 53.9334,
      "duration": 0.0666,
      "velocity": 95,
      "chip": "ym2612"
    },
    {
      "channel": 3,
      "note": 84,
      "start": 53.9345,
      "duration": 0.2,
      "velocity": 100,
      "chip": "ym2612"
    },
    {
      "channel": 4,
      "note": 75,
      "start": 53.9356,
      "duration": 0.1992,
      "velocity": 100,
      "chip": "ym2612"
    },
    {
      "channel": 5,
      "note": 84,
      "start": 53.9841,
      "duration": 0.206,
      "velocity": 100,
      "chip": "ym2612"
    },
    {
      "channel": 2,
      "note": 99,
      "start": 54.0681,
      "duration": 0.066,
      "velocity": 95,
      "chip": "ym2612"
    },
    {
      "channel": 0,
      "note": 48,
      "start": 54.1848,
      "duration": 0.4042,
      "velocity": 97,
      "chip": "ym2612"
    },
    {
      "channel": 1,
      "note": 105,
      "start": 54.1861,
      "duration": 0.2511,
      "velocity": 80,
      "chip": "ym2612"
    },
    {
      "channel": 2,
      "note": 104,
      "start": 54.1871,
      "duration": 0.0658,
      "velocity": 95,
      "chip": "ym2612"
    },
    {
      "channel": 3,
      "note": 85,
      "start": 54.1882,
      "duration": 0.1992,
      "velocity": 100,
      "chip": "ym2612"
    },
    {
      "channel": 4,
      "note": 77,
      "start": 54.1897,
      "duration": 0.1981,
      "velocity": 100,
      "chip": "ym2612"
    },
    {
      "channel": 5,
      "note": 85,
      "start": 54.2369,
      "duration": 0.2052,
      "velocity": 100,
      "chip": "ym2612"
    },
    {
      "channel": 2,
      "note": 99,
      "start": 54.3209,
      "duration": 0.0661,
      "velocity": 95,
      "chip": "ym2612"
    },
    {
      "channel": 1,
      "note": 105,
      "start": 54.4382,
      "duration": 0.5046,
      "velocity": 80,
      "chip": "ym2612"
    },
    {
      "channel": 2,
      "note": 96,
      "start": 54.4395,
      "duration": 0.0666,
      "velocity": 95,
      "chip": "ym2612"
    },
    {
      "channel": 3,
      "note": 87,
      "start": 54.4406,
      "duration": 0.1995,
      "velocity": 100,
      "chip": "ym2612"
    },
    {
      "channel": 4,
      "note": 78,
      "start": 54.4417,
      "duration": 0.1988,
      "velocity": 100,
      "chip": "ym2612"
    },
    {
      "channel": 5,
      "note": 87,
      "start": 54.49,
      "duration": 0.2036,
      "velocity": 100,
      "chip": "ym2612"
    },
    {
      "channel": 2,
      "note": 92,
      "start": 54.5741,
      "duration": 0.0656,
      "velocity": 95,
      "chip": "ym2612"
    },
    {
      "channel": 0,
      "note": 53,
      "start": 54.6903,
      "duration": 0.4038,
      "velocity": 97,
      "chip": "ym2612"
    },
    {
      "channel": 2,
      "note": 89,
      "start": 54.6924,
      "duration": 0.066,
      "velocity": 95,
      "chip": "ym2612"
    },
    {
      "channel": 2,
      "note": 85,
      "start": 54.8265,
      "duration": 0.0668,
      "velocity": 95,
      "chip": "ym2612"
    },
    {
      "channel": 1,
      "note": 105,
      "start": 54.9439,
      "duration": 0.5046,
      "velocity": 80,
      "chip": "ym2612"
    },
    {
      "channel": 2,
      "note": 89,
      "start": 54.9447,
      "duration": 0.0665,
      "velocity": 95,
      "chip": "ym2612"
    },
    {
      "channel": 3,
      "note": 89,
      "start": 54.9459,
      "duration": 0.2006,
      "velocity": 100,
      "chip": "ym2612"
    },
    {
      "channel": 4,
      "note": 80,
      "start": 54.947,
      "duration": 0.1998,
      "velocity": 100,
      "chip": "ym2612"
    },
    {
      "channel": 5,
      "note": 89,
      "start": 54.9953,
      "duration": 0.2039,
      "velocity": 100,
      "chip": "ym2612"
    },
    {
      "channel": 2,
      "note": 92,
      "start": 55.0793,
      "duration": 0.0668,
      "velocity": 95,
      "chip": "ym2612"
    },
    {
      "channel": 0,
      "note": 49,
      "start": 55.1959,
      "duration": 0.4038,
      "velocity": 97,
      "chip": "ym2612"
    },
    {
      "channel": 2,
      "note": 89,
      "start": 55.198,
      "duration": 0.066,
      "velocity": 95,
      "chip": "ym2612"
    },
    {
      "channel": 2,
      "note": 92,
      "start": 55.3321,
      "duration": 0.0668,
      "velocity": 95,
      "chip": "ym2612"
    },
    {
      "channel": 1,
      "note": 105,
      "start": 55.4493,
      "duration": 0.5055,
      "velocity": 80,
      "chip": "ym2612"
    },
    {
      "channel": 2,
      "note": 97,
      "start": 55.4503,
      "duration": 0.0665,
      "velocity": 95,
      "chip": "ym2612"
    },
    {
      "channel": 3,
      "note": 87,
      "start": 55.4514,
      "duration": 0.2007,
      "velocity": 100,
      "chip": "ym2612"
    },
    {
      "channel": 4,
      "note": 78,
      "start": 55.4525,
      "duration": 0.1999,
      "velocity": 100,
      "chip": "ym2612"
    },
    {
      "channel": 5,
      "note": 87,
      "start": 55.5009,
      "duration": 0.204,
      "velocity": 100,
      "chip": "ym2612"
    },
    {
      "channel": 2,
      "note": 92,
      "start": 55.5849,
      "duration": 0.0667,
      "velocity": 95,
      "chip": "ym2612"
    },
    {
      "channel": 0,
      "note": 53,
      "start": 55.7017,
      "duration": 0.2015,
      "velocity": 97,
      "chip": "ym2612"
    },
    {
      "channel": 2,
      "note": 97,
      "start": 55.7038,
      "duration": 0.0659,
      "velocity": 95,
      "chip": "ym2612"
    },
    {
      "channel": 2,
      "note": 101,
      "start": 55.8377,
      "duration": 0.0668,
      "velocity": 95,
      "chip": "ym2612"
    },
    {
      "channel": 0,
      "note": 49,
      "start": 55.9544,
      "duration": 0.2016,
      "velocity": 97,
      "chip": "ym2612"
    },
    {
      "channel": 1,
      "note": 105,
      "start": 55.9561,
      "duration": 0.2515,
      "velocity": 80,
      "chip": "ym2612"
    },
    {
      "channel": 2,
      "note": 97,
      "start": 55.957,
      "duration": 0.0658,
      "velocity": 95,
      "chip": "ym2612"
    },
    {
      "channel": 3,
      "note": 85,
      "start": 55.9581,
      "duration": 0.1996,
      "velocity": 100,
      "chip": "ym2612"
    },
    {
      "channel": 4,
      "note": 77,
      "start": 55.9592,
      "duration": 0.1989,
      "velocity": 100,
      "chip": "ym2612"
    },
    {
      "channel": 5,
      "note": 85,
      "start": 56.0069,
      "duration": 0.2053,
      "velocity": 100,
      "chip": "ym2612"
    },
    {
      "channel": 2,
      "note": 101,
      "start": 56.0909,
      "duration": 0.0665,
      "velocity": 95,
      "chip": "ym2612"
    },
    {
      "channel": 0,
      "note": 44,
      "start": 56.2071,
      "duration": 0.2016,
      "velocity": 97,
      "chip": "ym2612"
    },
    {
      "channel": 1,
      "note": 105,
      "start": 56.2085,
      "duration": 0.2518,
      "velocity": 80,
      "chip": "ym2612"
    },
    {
      "channel": 2,
      "note": 104,
      "start": 56.2095,
      "duration": 0.0658,
      "velocity": 95,
      "chip": "ym2612"
    },
    {
      "channel": 3,
      "note": 80,
      "start": 56.2106,
      "duration": 0.4013,
      "velocity": 100,
      "chip": "ym2612"
    },
    {
      "channel": 4,
      "note": 73,
      "start": 56.2117,
      "duration": 0.4006,
      "velocity": 100,
      "chip": "ym2612"
    },
    {
      "channel": 5,
      "note": 80,
      "start": 56.2593,
      "duration": 0.387,
      "velocity": 100,
      "chip": "ym2612"
    },
    {
      "channel": 2,
      "note": 101,
      "start": 56.3433,
      "duration": 0.0668,
      "velocity": 95,
      "chip": "ym2612"
    },
    {
      "channel": 0,
      "note": 49,
      "start": 56.46,
      "duration": 0.2016,
      "velocity": 97,
      "chip": "ym2612"
    },
    {
      "channel": 1,
      "note": 105,
      "start": 56.4614,
      "duration": 0.5038,
      "velocity": 80,
      "chip": "ym2612"
    },
    {
      "channel": 2,
      "note": 104,
      "start": 56.4623,
      "duration": 0.0658,
      "velocity": 95,
      "chip": "ym2612"
    },
    {
      "channel": 2,
      "note": 109,
      "start": 56.5961,
      "duration": 0.0668,
      "velocity": 95,
      "chip": "ym2612"
    },
    {
      "channel": 0,
      "note": 49,
      "start": 56.713,
      "duration": 0.4036,
      "velocity": 97,
      "chip": "ym2612"
    },
    {
      "channel": 2,
      "note": 104,
      "start": 56.7155,
      "duration": 0.0654,
      "velocity": 95,
      "chip": "ym2612"
    },
    {
      "channel": 3,
      "note": 92,
      "start": 56.718,
      "duration": 0.3996,
      "velocity": 94,
      "chip": "ym2612"
    },
    {
      "channel": 4,
      "note": 73,
      "start": 56.7206,
      "duration": 0.3974,
      "velocity": 94,
      "chip": "ym2612"
    },
    {
      "channel": 5,
      "note": 92,
      "start": 56.7664,
      "duration": 0.4031,
      "velocity": 94,
      "chip": "ym2612"
    },
    {
      "channel": 2,
      "note": 101,
      "start": 56.8489,
      "duration": 0.0667,
      "velocity": 95,
      "chip": "ym2612"
    },
    {
      "channel": 1,
      "note": 105,
      "start": 56.9662,
      "duration": 0.5046,
      "velocity": 80,
      "chip": "ym2612"
    },
    {
      "channel": 2,
      "note": 97,
      "start": 56.9672,
      "duration": 0.0665,
      "velocity": 95,
      "chip": "ym2612"
    },
    {
      "channel": 2,
      "note": 92,
      "start": 57.1017,
      "duration": 0.0667,
      "velocity": 95,
      "chip": "ym2612"
    },
    {
      "channel": 0,
      "note": 44,
      "start": 57.2183,
      "duration": 0.4041,
      "velocity": 97,
      "chip": "ym2612"
    },
    {
      "channel": 2,
      "note": 104,
      "start": 57.2206,
      "duration": 0.0658,
      "velocity": 95,
      "chip": "ym2612"
    },
    {
      "channel": 3,
      "note": 89,
      "start": 57.2217,
      "duration": 0.0988,
      "velocity": 94,
      "chip": "ym2612"
    },
    {
      "channel": 4,
      "note": 68,
      "start": 57.2232,
      "duration": 0.0976,
      "velocity": 94,
      "chip": "ym2612"
    },
    {
      "channel": 5,
      "note": 89,
      "start": 57.2705,
      "duration": 0.1005,
      "velocity": 94,
      "chip": "ym2612"
    },
    {
      "channel": 2,
      "note": 101,
      "start": 57.3545,
      "duration": 0.0667,
      "velocity": 95,
      "chip": "ym2612"
    },
    {
      "channel": 1,
      "note": 105,
      "start": 57.4719,
      "duration": 0.5045,
      "velocity": 80,
      "chip": "ym2612"
    },
    {
      "channel": 2,
      "note": 97,
      "start": 57.473,
      "duration": 0.0666,
      "velocity": 95,
      "chip": "ym2612"
    },
    {
      "channel": 3,
      "note": 85,
      "start": 57.4741,
      "duration": 0.4018,
      "velocity": 94,
      "chip": "ym2612"
    },
    {
      "channel": 4,
      "note": 65,
      "start": 57.4753,
      "duration": 0.4011,
      "velocity": 94,
      "chip": "ym2612"
    },
    {
      "channel": 5,
      "note": 85,
      "start": 57.5237,
      "duration": 0.4042,
      "velocity": 94,
      "chip": "ym2612"
    },
    {
      "channel": 2,
      "note": 92,
      "start": 57.6077,
      "duration": 0.0663,
      "velocity": 95,
      "chip": "ym2612"
    },
    {
      "channel": 0,
      "note": 49,
      "start": 57.7408,
      "duration": 0.387,
      "velocity": 97,
      "chip": "ym2612"
    },
    {
      "channel": 2,
      "note": 104,
      "start": 57.7431,
      "duration": 0.0651,
      "velocity": 95,
      "chip": "ym2612"
    },
    {
      "channel": 2,
      "note": 101,
      "start": 57.8601,
      "duration": 0.0667,
      "velocity": 95,
      "chip": "ym2612"
    },
    {
      "channel": 1,
      "note": 105,
      "start": 57.9941,
      "duration": 0.2351,
      "velocity": 80,
      "chip": "ym2612"
    },
    {
      "channel": 2,
      "note": 97,
      "start": 57.9951,
      "duration": 0.066,
      "velocity": 95,
      "chip": "ym2612"
    },
    {
      "channel": 3,
      "note": 85,
      "start": 57.9961,
      "duration": 0.1839,
      "velocity": 94,
      "chip": "ym2612"
    },
    {
      "channel": 4,
      "note": 65,
      "start": 57.9973,
      "duration": 0.1832,
      "velocity": 94,
      "chip": "ym2612"
    },
    {
      "channel": 5,
      "note": 85,
      "start": 58.0289,
      "duration": 0.2016,
      "velocity": 94,
      "chip": "ym2612"
    },
    {
      "channel": 2,
      "note": 92,
      "start": 58.113,
      "duration": 0.0667,
      "velocity": 95,
      "chip": "ym2612"
    },
    {
      "channel": 0,
      "note": 44,
      "start": 58.2464,
      "duration": 0.387,
      "velocity": 97,
      "chip": "ym2612"
    },
    {
      "channel": 1,
      "note": 105,
      "start": 58.2477,
      "duration": 0.2344,
      "velocity": 80,
      "chip": "ym2612"
    },
    {
      "channel": 2,
      "note": 104,
      "start": 58.2488,
      "duration": 0.0651,
      "velocity": 95,
      "chip": "ym2612"
    },
    {
      "channel": 3,
      "note": 84,
      "start": 58.2499,
      "duration": 0.199,
      "velocity": 94,
      "chip": "ym2612"
    },
    {
      "channel": 4,
      "note": 64,
      "start": 58.251,
      "duration": 0.1983,
      "velocity": 94,
      "chip": "ym2612"
    },
    {
      "channel": 5,
      "note": 84,
      "start": 58.2818,
      "duration": 0.2016,
      "velocity": 94,
      "chip": "ym2612"
    },
    {
      "channel": 2,
      "note": 101,
      "start": 58.3657,
      "duration": 0.0667,
      "velocity": 95,
      "chip": "ym2612"
    },
    {
      "channel": 1,
      "note": 105,
      "start": 58.4998,
      "duration": 0.4879,
      "velocity": 80,
      "chip": "ym2612"
    },
    {
      "channel": 2,
      "note": 97,
      "start": 58.5007,
      "duration": 0.0659,
      "velocity": 95,
      "chip": "ym2612"
    },
    {
      "channel": 3,
      "note": 85,
      "start": 58.5018,
      "duration": 0.2,
      "velocity": 94,
      "chip": "ym2612"
    },
    {
      "channel": 4,
      "note": 65,
      "start": 58.5029,
      "duration": 0.1992,
      "velocity": 94,
      "chip": "ym2612"
    },
    {
      "channel": 5,
      "note": 85,
      "start": 58.5345,
      "duration": 0.2015,
      "velocity": 94,
      "chip": "ym2612"
    },
    {
      "channel": 2,
      "note": 92,
      "start": 58.6186,
      "duration": 0.0667,
      "velocity": 95,
      "chip": "ym2612"
    },
    {
      "channel": 0,
      "note": 48,
      "start": 58.752,
      "duration": 0.3871,
      "velocity": 97,
      "chip": "ym2612"
    },
    {
      "channel": 2,
      "note": 104,
      "start": 58.7543,
      "duration": 0.0651,
      "velocity": 95,
      "chip": "ym2612"
    },
    {
      "channel": 3,
      "note": 87,
      "start": 58.7557,
      "duration": 0.3844,
      "velocity": 94,
      "chip": "ym2612"
    },
    {
      "channel": 4,
      "note": 68,
      "start": 58.7569,
      "duration": 0.3836,
      "velocity": 94,
      "chip": "ym2612"
    },
    {
      "channel": 5,
      "note": 87,
      "start": 58.7873,
      "duration": 0.4046,
      "velocity": 94,
      "chip": "ym2612"
    },
    {
      "channel": 2,
      "note": 99,
      "start": 58.8713,
      "duration": 0.0667,
      "velocity": 95,
      "chip": "ym2612"
    },
    {
      "channel": 1,
      "note": 105,
      "start": 59.0058,
      "duration": 0.4875,
      "velocity": 80,
      "chip": "ym2612"
    },
    {
      "channel": 2,
      "note": 96,
      "start": 59.0068,
      "duration": 0.0659,
      "velocity": 95,
      "chip": "ym2612"
    },
    {
      "channel": 2,
      "note": 92,
      "start": 59.1244,
      "duration": 0.0665,
      "velocity": 95,
      "chip": "ym2612"
    },
    {
      "channel": 0,
      "note": 44,
      "start": 59.2576,
      "duration": 0.387,
      "velocity": 97,
      "chip": "ym2612"
    },
    {
      "channel": 2,
      "note": 104,
      "start": 59.2599,
      "duration": 0.0651,
      "velocity": 95,
      "chip": "ym2612"
    },
    {
      "channel": 3,
      "note": 84,
      "start": 59.261,
      "duration": 0.0981,
      "velocity": 94,
      "chip": "ym2612"
    },
    {
      "channel": 4,
      "note": 63,
      "start": 59.2621,
      "duration": 0.0973,
      "velocity": 94,
      "chip": "ym2612"
    },
    {
      "channel": 5,
      "note": 84,
      "start": 59.2937,
      "duration": 0.0998,
      "velocity": 94,
      "chip": "ym2612"
    },
    {
      "channel": 2,
      "note": 99,
      "start": 59.3769,
      "duration": 0.0668,
      "velocity": 95,
      "chip": "ym2612"
    },
    {
      "channel": 1,
      "note": 105,
      "start": 59.511,
      "duration": 0.4879,
      "velocity": 80,
      "chip": "ym2612"
    },
    {
      "channel": 2,
      "note": 96,
      "start": 59.5119,
      "duration": 0.0659,
      "velocity": 95,
      "chip": "ym2612"
    },
    {
      "channel": 3,
      "note": 80,
      "start": 59.513,
      "duration": 0.3854,
      "velocity": 94,
      "chip": "ym2612"
    },
    {
      "channel": 4,
      "note": 60,
      "start": 59.5141,
      "duration": 0.3846,
      "velocity": 94,
      "chip": "ym2612"
    },
    {
      "channel": 5,
      "note": 80,
      "start": 59.5465,
      "duration": 0.4039,
      "velocity": 94,
      "chip": "ym2612"
    },
    {
      "channel": 2,
      "note": 92,
      "start": 59.6297,
      "duration": 0.0667,
      "velocity": 95,
      "chip": "ym2612"
    },
    {
      "channel": 0,
      "note": 48,
      "start": 59.7632,
      "duration": 0.387,
      "velocity": 97,
      "chip": "ym2612"
    },
    {
      "channel": 2,
      "note": 104,
      "start": 59.7655,
      "duration": 0.0651,
      "velocity": 95,
      "chip": "ym2612"
    },
    {
      "channel": 2,
      "note": 99,
      "start": 59.8825,
      "duration": 0.0668,
      "velocity": 95,
      "chip": "ym2612"
    },
    {
      "channel": 1,
      "note": 105,
      "start": 60.0166,
      "duration": 0.2351,
      "velocity": 80,
      "chip": "ym2612"
    },
    {
      "channel": 2,
      "note": 96,
      "start": 60.0175,
      "duration": 0.0659,
      "velocity": 95,
      "chip": "ym2612"
    },
    {
      "channel": 3,
      "note": 80,
      "start": 60.0186,
      "duration": 0.1999,
      "velocity": 94,
      "chip": "ym2612"
    },
    {
      "channel": 4,
      "note": 60,
      "start": 60.0198,
      "duration": 0.1992,
      "velocity": 94,
      "chip": "ym2612"
    },
    {
      "channel": 5,
      "note": 80,
      "start": 60.0521,
      "duration": 0.2009,
      "velocity": 94,
      "chip": "ym2612"
    },
    {
      "channel": 2,
      "note": 92,
      "start": 60.1353,
      "duration": 0.0667,
      "velocity": 95,
      "chip": "ym2612"
    },
    {
      "channel": 0,
      "note": 44,
      "start": 60.2688,
      "duration": 0.387,
      "velocity": 97,
      "chip": "ym2612"
    },
    {
      "channel": 1,
      "note": 105,
      "start": 60.2701,
      "duration": 0.2344,
      "velocity": 80,
      "chip": "ym2612"
    },
    {
      "channel": 2,
      "note": 104,
      "start": 60.2712,
      "duration": 0.065,
      "velocity": 95,
      "chip": "ym2612"
    },
    {
      "channel": 3,
      "note": 84,
      "start": 60.2727,
      "duration": 0.1987,
      "velocity": 94,
      "chip": "ym2612"
    },
    {
      "channel": 4,
      "note": 63,
      "start": 60.2738,
      "duration": 0.1981,
      "velocity": 94,
      "chip": "ym2612"
    },
    {
      "channel": 5,
      "note": 84,
      "start": 60.3049,
      "duration": 0.2013,
      "velocity": 94,
      "chip": "ym2612"
    },
    {
      "channel": 2,
      "note": 99,
      "start": 60.3881,
      "duration": 0.0668,
      "velocity": 95,
      "chip": "ym2612"
    },
    {
      "channel": 1,
      "note": 105,
      "start": 60.5225,
      "duration": 0.5044,
      "velocity": 80,
      "chip": "ym2612"
    },
    {
      "channel": 2,
      "note": 96,
      "start": 60.5235,
      "duration": 0.0666,
      "velocity": 95,
      "chip": "ym2612"
    },
    {
      "channel": 3,
      "note": 87,
      "start": 60.5246,
      "duration": 0.1995,
      "velocity": 94,
      "chip": "ym2612"
    },
    {
      "channel": 4,
      "note": 68,
      "start": 60.5257,
      "duration": 0.1988,
      "velocity": 94,
      "chip": "ym2612"
    },
    {
      "channel": 5,
      "note": 87,
      "start": 60.558,
      "duration": 0.2005,
      "velocity": 94,
      "chip": "ym2612"
    },
    {
      "channel": 2,
      "note": 92,
      "start": 60.6411,
      "duration": 0.0666,
      "velocity": 95,
      "chip": "ym2612"
    },
    {
      "channel": 0,
      "note": 46,
      "start": 60.7744,
      "duration": 0.387,
      "velocity": 97,
      "chip": "ym2612"
    },
    {
      "channel": 2,
      "note": 106,
      "start": 60.7767,
      "duration": 0.0659,
      "velocity": 95,
      "chip": "ym2612"
    },
    {
      "channel": 3,
      "note": 85,
      "start": 60.7778,
      "duration": 0.1992,
      "velocity": 94,
      "chip": "ym2612"
    },
    {
      "channel": 4,
      "note": 65,
      "start": 60.7789,
      "duration": 0.1985,
      "velocity": 94,
      "chip": "ym2612"
    },
    {
      "channel": 5,
      "note": 85,
      "start": 60.8105,
      "duration": 0.2008,
      "velocity": 94,
      "chip": "ym2612"
    },
    {
      "channel": 2,
      "note": 101,
      "start": 60.8937,
      "duration": 0.0668,
      "velocity": 95,
      "chip": "ym2612"
    },
    {
      "channel": 1,
      "note": 105,
      "start": 61.0279,
      "duration": 0.5046,
      "velocity": 80,
      "chip": "ym2612"
    },
    {
      "channel": 2,
      "note": 97,
      "start": 61.0288,
      "duration": 0.0665,
      "velocity": 95,
      "chip": "ym2612"
    },
    {
      "channel": 3,
      "note": 82,
      "start": 61.03,
      "duration": 0.1998,
      "velocity": 94,
      "chip": "ym2612"
    },
    {
      "channel": 4,
      "note": 61,
      "start": 61.0311,
      "duration": 0.199,
      "velocity": 94,
      "chip": "ym2612"
    },
    {
      "channel": 5,
      "note": 82,
      "start": 61.0632,
      "duration": 0.2008,
      "velocity": 94,
      "chip": "ym2612"
    },
    {
      "channel": 2,
      "note": 94,
      "start": 61.1466,
      "duration": 0.0667,
      "velocity": 95,
      "chip": "ym2612"
    },
    {
      "channel": 0,
      "note": 41,
      "start": 61.28,
      "duration": 0.387,
      "velocity": 97,
      "chip": "ym2612"
    },
    {
      "channel": 2,
      "note": 106,
      "start": 61.2823,
      "duration": 0.0658,
      "velocity": 95,
      "chip": "ym2612"
    },
    {
      "channel": 3,
      "note": 85,
      "start": 61.2834,
      "duration": 0.098,
      "velocity": 94,
      "chip": "ym2612"
    },
    {
      "channel": 4,
      "note": 65,
      "start": 61.2846,
      "duration": 0.0973,
      "velocity": 94,
      "chip": "ym2612"
    },
    {
      "channel": 5,
      "note": 85,
      "start": 61.3161,
      "duration": 0.0998,
      "velocity": 94,
      "chip": "ym2612"
    },
    {
      "channel": 2,
      "note": 101,
      "start": 61.3994,
      "duration": 0.0667,
      "velocity": 95,
      "chip": "ym2612"
    },
    {
      "channel": 1,
      "note": 105,
      "start": 61.5334,
      "duration": 0.5047,
      "velocity": 80,
      "chip": "ym2612"
    },
    {
      "channel": 2,
      "note": 97,
      "start": 61.5344,
      "duration": 0.0665,
      "velocity": 95,
      "chip": "ym2612"
    },
    {
      "channel": 3,
      "note": 77,
      "start": 61.5354,
      "duration": 0.3854,
      "velocity": 94,
      "chip": "ym2612"
    },
    {
      "channel": 4,
      "note": 58,
      "start": 61.5366,
      "duration": 0.3846,
      "velocity": 94,
      "chip": "ym2612"
    },
    {
      "channel": 5,
      "note": 77,
      "start": 61.5688,
      "duration": 0.4042,
      "velocity": 94,
      "chip": "ym2612"
    },
    {
      "channel": 2,
      "note": 94,
      "start": 61.6522,
      "duration": 0.0667,
      "velocity": 95,
      "chip": "ym2612"
    },
    {
      "channel": 0,
      "note": 46,
      "start": 61.7856,
      "duration": 0.387,
      "velocity": 97,
      "chip": "ym2612"
    },
    {
      "channel": 2,
      "note": 106,
      "start": 61.7879,
      "duration": 0.0658,
      "velocity": 95,
      "chip": "ym2612"
    },
    {
      "channel": 2,
      "note": 101,
      "start": 61.905,
      "duration": 0.0667,
      "velocity": 95,
      "chip": "ym2612"
    },
    {
      "channel": 1,
      "note": 105,
      "start": 62.0394,
      "duration": 0.2523,
      "velocity": 80,
      "chip": "ym2612"
    },
    {
      "channel": 2,
      "note": 97,
      "start": 62.0403,
      "duration": 0.0666,
      "velocity": 95,
      "chip": "ym2612"
    },
    {
      "channel": 3,
      "note": 77,
      "start": 62.0414,
      "duration": 0.1995,
      "velocity": 94,
      "chip": "ym2612"
    },
    {
      "channel": 4,
      "note": 58,
      "start": 62.0425,
      "duration": 0.1988,
      "velocity": 94,
      "chip": "ym2612"
    },
    {
      "channel": 5,
      "note": 77,
      "start": 62.0748,
      "duration": 0.2005,
      "velocity": 94,
      "chip": "ym2612"
    },
    {
      "channel": 2,
      "note": 94,
      "start": 62.1578,
      "duration": 0.0667,
      "velocity": 95,
      "chip": "ym2612"
    },
    {
      "channel": 0,
      "note": 41,
      "start": 62.2912,
      "duration": 0.4038,
      "velocity": 97,
      "chip": "ym2612"
    },
    {
      "channel": 1,
      "note": 105,
      "start": 62.2926,
      "duration": 0.2511,
      "velocity": 80,
      "chip": "ym2612"
    },
    {
      "channel": 2,
      "note": 106,
      "start": 62.2937,
      "duration": 0.0657,
      "velocity": 95,
      "chip": "ym2612"
    },
    {
      "channel": 3,
      "note": 82,
      "start": 62.2947,
      "duration": 0.199,
      "velocity": 94,
      "chip": "ym2612"
    },
    {
      "channel": 4,
      "note": 61,
      "start": 62.2959,
      "duration": 0.1983,
      "velocity": 94,
      "chip": "ym2612"
    },
    {
      "channel": 5,
      "note": 82,
      "start": 62.3273,
      "duration": 0.2009,
      "velocity": 94,
      "chip": "ym2612"
    },
    {
      "channel": 2,
      "note": 101,
      "start": 62.4106,
      "duration": 0.0667,
      "velocity": 95,
      "chip": "ym2612"
    },
    {
      "channel": 1,
      "note": 105,
      "start": 62.5447,
      "duration": 0.5046,
      "velocity": 80,
      "chip": "ym2612"
    },
    {
      "channel": 2,
      "note": 97,
      "start": 62.5456,
      "duration": 0.0666,
      "velocity": 95,
      "chip": "ym2612"
    },
    {
      "channel": 3,
      "note": 85,
      "start": 62.5467,
      "duration": 0.1999,
      "velocity": 94,
      "chip": "ym2612"
    },
    {
      "channel": 4,
      "note": 65,
      "start": 62.5478,
      "duration": 0.1991,
      "velocity": 94,
      "chip": "ym2612"
    },
    {
      "channel": 5,
      "note": 85,
      "start": 62.58,
      "duration": 0.2008,
      "velocity": 94,
      "chip": "ym2612"
    },
    {
      "channel": 2,
      "note": 94,
      "start": 62.6634,
      "duration": 0.0667,
      "velocity": 95,
      "chip": "ym2612"
    },
    {
      "channel": 0,
      "note": 44,
      "start": 62.7968,
      "duration": 0.4039,
      "velocity": 97,
      "chip": "ym2612"
    },
    {
      "channel": 2,
      "note": 104,
      "start": 62.7991,
      "duration": 0.0658,
      "velocity": 95,
      "chip": "ym2612"
    },
    {
      "channel": 2,
      "note": 99,
      "start": 62.9162,
      "duration": 0.0667,
      "velocity": 95,
      "chip": "ym2612"
    },
    {
      "channel": 1,
      "note": 105,
      "start": 63.0503,
      "duration": 0.5046,
      "velocity": 80,
      "chip": "ym2612"
    },
    {
      "channel": 2,
      "note": 96,
      "start": 63.0513,
      "duration": 0.0665,
      "velocity": 95,
      "chip": "ym2612"
    },
    {
      "channel": 3,
      "note": 84,
      "start": 63.0524,
      "duration": 0.1998,
      "velocity": 94,
      "chip": "ym2612"
    },
    {
      "channel": 4,
      "note": 63,
      "start": 63.0536,
      "duration": 0.199,
      "velocity": 94,
      "chip": "ym2612"
    },
    {
      "channel": 5,
      "note": 84,
      "start": 63.0856,
      "duration": 0.2008,
      "velocity": 94,
      "chip": "ym2612"
    },
    {
      "channel": 2,
      "note": 92,
      "start": 63.169,
      "duration": 0.0667,
      "velocity": 95,
      "chip": "ym2612"
    },
    {
      "channel": 0,
      "note": 51,
      "start": 63.3024,
      "duration": 0.4039,
      "velocity": 97,
      "chip": "ym2612"
    },
    {
      "channel": 2,
      "note": 104,
      "start": 63.3047,
      "duration": 0.0659,
      "velocity": 95,
      "chip": "ym2612"
    },
    {
      "channel": 2,
      "note": 99,
      "start": 63.439,
      "duration": 0.0656,
      "velocity": 95,
      "chip": "ym2612"
    },
    {
      "channel": 1,
      "note": 105,
      "start": 63.5562,
      "duration": 0.5043,
      "velocity": 80,
      "chip": "ym2612"
    },
    {
      "channel": 2,
      "note": 96,
      "start": 63.5571,
      "duration": 0.0665,
      "velocity": 95,
      "chip": "ym2612"
    },
    {
      "channel": 3,
      "note": 84,
      "start": 63.5583,
      "duration": 0.1995,
      "velocity": 94,
      "chip": "ym2612"
    },
    {
      "channel": 4,
      "note": 63,
      "start": 63.5594,
      "duration": 0.1988,
      "velocity": 94,
      "chip": "ym2612"
    },
    {
      "channel": 5,
      "note": 84,
      "start": 63.6078,
      "duration": 0.1843,
      "velocity": 94,
      "chip": "ym2612"
    },
    {
      "channel": 2,
      "note": 92,
      "start": 63.6914,
      "duration": 0.066,
      "velocity": 95,
      "chip": "ym2612"
    },
    {
      "channel": 0,
      "note": 44,
      "start": 63.808,
      "duration": 0.4039,
      "velocity": 97,
      "chip": "ym2612"
    },
    {
      "channel": 2,
      "note": 104,
      "start": 63.8103,
      "duration": 0.0659,
      "velocity": 95,
      "chip": "ym2612"
    },
    {
      "channel": 3,
      "note": 80,
      "start": 63.8114,
      "duration": 0.1992,
      "velocity": 94,
      "chip": "ym2612"
    },
    {
      "channel": 4,
      "note": 60,
      "start": 63.8126,
      "duration": 0.1985,
      "velocity": 94,
      "chip": "ym2612"
    },
    {
      "channel": 5,
      "note": 80,
      "start": 63.8602,
      "duration": 0.1847,
      "velocity": 94,
      "chip": "ym2612"
    },
    {
      "channel": 2,
      "note": 99,
      "start": 63.9442,
      "duration": 0.066,
      "velocity": 95,
      "chip": "ym2612"
    },
    {
      "channel": 1,
      "note": 105,
      "start": 64.0615,
      "duration": 0.2527,
      "velocity": 80,
      "chip": "ym2612"
    },
    {
      "channel": 2,
      "note": 96,
      "start": 64.0624,
      "duration": 0.0665,
      "velocity": 95,
      "chip": "ym2612"
    },
    {
      "channel": 3,
      "note": 84,
      "start": 64.0635,
      "duration": 0.1999,
      "velocity": 94,
      "chip": "ym2612"
    },
    {
      "channel": 4,
      "note": 63,
      "start": 64.0646,
      "duration": 0.1992,
      "velocity": 94,
      "chip": "ym2612"
    },
    {
      "channel": 5,
      "note": 84,
      "start": 64.113,
      "duration": 0.2058,
      "velocity": 94,
      "chip": "ym2612"
    },
    {
      "channel": 2,
      "note": 92,
      "start": 64.197,
      "duration": 0.066,
      "velocity": 95,
      "chip": "ym2612"
    },
    {
      "channel": 0,
      "note": 51,
      "start": 64.3137,
      "duration": 0.4038,
      "velocity": 97,
      "chip": "ym2612"
    },
    {
      "channel": 1,
      "note": 105,
      "start": 64.315,
      "duration": 0.2511,
      "velocity": 80,
      "chip": "ym2612"
    },
    {
      "channel": 2,
      "note": 104,
      "start": 64.3161,
      "duration": 0.0656,
      "velocity": 95,
      "chip": "ym2612"
    },
    {
      "channel": 3,
      "note": 87,
      "start": 64.3172,
      "duration": 0.199,
      "velocity": 94,
      "chip": "ym2612"
    },
    {
      "channel": 4,
      "note": 68,
      "start": 64.3183,
      "duration": 0.1983,
      "velocity": 94,
      "chip": "ym2612"
    },
    {
      "channel": 5,
      "note": 87,
      "start": 64.3658,
      "duration": 0.205,
      "velocity": 94,
      "chip": "ym2612"
    },
    {
      "channel": 2,
      "note": 99,
      "start": 64.4498,
      "duration": 0.066,
      "velocity": 95,
      "chip": "ym2612"
    },
    {
      "channel": 1,
      "note": 105,
      "start": 64.5671,
      "duration": 0.5048,
      "velocity": 80,
      "chip": "ym2612"
    },
    {
      "channel": 2,
      "note": 96,
      "start": 64.5681,
      "duration": 0.0665,
      "velocity": 95,
      "chip": "ym2612"
    },
    {
      "channel": 3,
      "note": 92,
      "start": 64.5692,
      "duration": 0.1998,
      "velocity": 94,
      "chip": "ym2612"
    },
    {
      "channel": 4,
      "note": 72,
      "start": 64.5704,
      "duration": 0.199,
      "velocity": 94,
      "chip": "ym2612"
    },
    {
      "channel": 5,
      "note": 92,
      "start": 64.6187,
      "duration": 0.2059,
      "velocity": 94,
      "chip": "ym2612"
    },
    {
      "channel": 2,
      "note": 92,
      "start": 64.7026,
      "duration": 0.066,
      "velocity": 95,
      "chip": "ym2612"
    },
    {
      "channel": 0,
      "note": 42,
      "start": 64.8193,
      "duration": 0.4038,
      "velocity": 97,
      "chip": "ym2612"
    },
    {
      "channel": 2,
      "note": 102,
      "start": 64.8215,
      "duration": 0.0659,
      "velocity": 95,
      "chip": "ym2612"
    },
    {
      "channel": 3,
      "note": 90,
      "start": 64.823,
      "duration": 0.4011,
      "velocity": 94,
      "chip": "ym2612"
    },
    {
      "channel": 4,
      "note": 73,
      "start": 64.8241,
      "duration": 0.4004,
      "velocity": 94,
      "chip": "ym2612"
    },
    {
      "channel": 5,
      "note": 90,
      "start": 64.8714,
      "duration": 0.3877,
      "velocity": 94,
      "chip": "ym2612"
    },
    {
      "channel": 2,
      "note": 97,
      "start": 64.9558,
      "duration": 0.0656,
      "velocity": 95,
      "chip": "ym2612"
    },
    {
      "channel": 1,
      "note": 105,
      "start": 65.0731,
      "duration": 0.5043,
      "velocity": 80,
      "chip": "ym2612"
    },
    {
      "channel": 2,
      "note": 94,
      "start": 65.074,
      "duration": 0.0663,
      "velocity": 95,
      "chip": "ym2612"
    },
    {
      "channel": 2,
      "note": 90,
      "start": 65.2082,
      "duration": 0.066,
      "velocity": 95,
      "chip": "ym2612"
    },
    {
      "channel": 0,
      "note": 46,
      "start": 65.3249,
      "duration": 0.4038,
      "velocity": 97,
      "chip": "ym2612"
    },
    {
      "channel": 2,
      "note": 102,
      "start": 65.3272,
      "duration": 0.0658,
      "velocity": 95,
      "chip": "ym2612"
    },
    {
      "channel": 3,
      "note": 85,
      "start": 65.3283,
      "duration": 0.0987,
      "velocity": 94,
      "chip": "ym2612"
    },
    {
      "channel": 4,
      "note": 70,
      "start": 65.3294,
      "duration": 0.098,
      "velocity": 94,
      "chip": "ym2612"
    },
    {
      "channel": 5,
      "note": 85,
      "start": 65.377,
      "duration": 0.1005,
      "velocity": 94,
      "chip": "ym2612"
    },
    {
      "channel": 2,
      "note": 97,
      "start": 65.461,
      "duration": 0.0661,
      "velocity": 95,
      "chip": "ym2612"
    },
    {
      "channel": 1,
      "note": 105,
      "start": 65.5783,
      "duration": 0.5047,
      "velocity": 80,
      "chip": "ym2612"
    },
    {
      "channel": 2,
      "note": 94,
      "start": 65.5792,
      "duration": 0.0666,
      "velocity": 95,
      "chip": "ym2612"
    },
    {
      "channel": 3,
      "note": 90,
      "start": 65.5803,
      "duration": 0.4022,
      "velocity": 94,
      "chip": "ym2612"
    },
    {
      "channel": 4,
      "note": 73,
      "start": 65.5814,
      "duration": 0.4015,
      "velocity": 94,
      "chip": "ym2612"
    },
    {
      "channel": 5,
      "note": 90,
      "start": 65.6299,
      "duration": 0.3876,
      "velocity": 94,
      "chip": "ym2612"
    },
    {
      "channel": 2,
      "note": 90,
      "start": 65.7138,
      "duration": 0.066,
      "velocity": 95,
      "chip": "ym2612"
    },
    {
      "channel": 0,
      "note": 42,
      "start": 65.8305,
      "duration": 0.4038,
      "velocity": 97,
      "chip": "ym2612"
    },
    {
      "channel": 2,
      "note": 102,
      "start": 65.8327,
      "duration": 0.0658,
      "velocity": 95,
      "chip": "ym2612"
    },
    {
      "channel": 2,
      "note": 97,
      "start": 65.9666,
      "duration": 0.0661,
      "velocity": 95,
      "chip": "ym2612"
    },
    {
      "channel": 1,
      "note": 105,
      "start": 66.0839,
      "duration": 0.2527,
      "velocity": 80,
      "chip": "ym2612"
    },
    {
      "channel": 2,
      "note": 94,
      "start": 66.0848,
      "duration": 0.0666,
      "velocity": 95,
      "chip": "ym2612"
    },
    {
      "channel": 3,
      "note": 94,
      "start": 66.0859,
      "duration": 0.2007,
      "velocity": 94,
      "chip": "ym2612"
    },
    {
      "channel": 4,
      "note": 78,
      "start": 66.0871,
      "duration": 0.1999,
      "velocity": 94,
      "chip": "ym2612"
    },
    {
      "channel": 5,
      "note": 94,
      "start": 66.1354,
      "duration": 0.2061,
      "velocity": 94,
      "chip": "ym2612"
    },
    {
      "channel": 2,
      "note": 90,
      "start": 66.2194,
      "duration": 0.0667,
      "velocity": 95,
      "chip": "ym2612"
    },
    {
      "channel": 0,
      "note": 46,
      "start": 66.3361,
      "duration": 0.4038,
      "velocity": 97,
      "chip": "ym2612"
    },
    {
      "channel": 1,
      "note": 105,
      "start": 66.3375,
      "duration": 0.2515,
      "velocity": 80,
      "chip": "ym2612"
    },
    {
      "channel": 2,
      "note": 102,
      "start": 66.3389,
      "duration": 0.0653,
      "velocity": 95,
      "chip": "ym2612"
    },
    {
      "channel": 3,
      "note": 92,
      "start": 66.34,
      "duration": 0.1998,
      "velocity": 94,
      "chip": "ym2612"
    },
    {
      "channel": 4,
      "note": 73,
      "start": 66.3411,
      "duration": 0.199,
      "velocity": 94,
      "chip": "ym2612"
    },
    {
      "channel": 5,
      "note": 92,
      "start": 66.3883,
      "duration": 0.2053,
      "velocity": 94,
      "chip": "ym2612"
    },
    {
      "channel": 2,
      "note": 97,
      "start": 66.4726,
      "duration": 0.0667,
      "velocity": 95,
      "chip": "ym2612"
    },
    {
      "channel": 1,
      "note": 105,
      "start": 66.5899,
      "duration": 0.5043,
      "velocity": 80,
      "chip": "ym2612"
    },
    {
      "channel": 2,
      "note": 94,
      "start": 66.5908,
      "duration": 0.0663,
      "velocity": 95,
      "chip": "ym2612"
    },
    {
      "channel": 3,
      "note": 90,
      "start": 66.592,
      "duration": 0.2002,
      "velocity": 94,
      "chip": "ym2612"
    },
    {
      "channel": 4,
      "note": 70,
      "start": 66.593,
      "duration": 0.1996,
      "velocity": 94,
      "chip": "ym2612"
    },
    {
      "channel": 5,
      "note": 90,
      "start": 66.6413,
      "duration": 0.2053,
      "velocity": 94,
      "chip": "ym2612"
    },
    {
      "channel": 2,
      "note": 90,
      "start": 66.725,
      "duration": 0.0667,
      "velocity": 95,
      "chip": "ym2612"
    },
    {
      "channel": 0,
      "note": 41,
      "start": 66.8417,
      "duration": 0.4038,
      "velocity": 97,
      "chip": "ym2612"
    },
    {
      "channel": 2,
      "note": 104,
      "start": 66.8439,
      "duration": 0.0658,
      "velocity": 95,
      "chip": "ym2612"
    },
    {
      "channel": 3,
      "note": 89,
      "start": 66.8451,
      "duration": 0.4015,
      "velocity": 94,
      "chip": "ym2612"
    },
    {
      "channel": 4,
      "note": 73,
      "start": 66.8462,
      "duration": 0.4007,
      "velocity": 94,
      "chip": "ym2612"
    },
    {
      "channel": 5,
      "note": 89,
      "start": 66.8939,
      "duration": 0.3869,
      "velocity": 94,
      "chip": "ym2612"
    },
    {
      "channel": 2,
      "note": 101,
      "start": 66.9779,
      "duration": 0.0667,
      "velocity": 95,
      "chip": "ym2612"
    },
    {
      "channel": 1,
      "note": 105,
      "start": 67.0952,
      "duration": 0.5046,
      "velocity": 80,
      "chip": "ym2612"
    },
    {
      "channel": 2,
      "note": 97,
      "start": 67.0961,
      "duration": 0.0665,
      "velocity": 95,
      "chip": "ym2612"
    },
    {
      "channel": 2,
      "note": 92,
      "start": 67.2307,
      "duration": 0.0667,
      "velocity": 95,
      "chip": "ym2612"
    },
    {
      "channel": 0,
      "note": 44,
      "start": 67.3473,
      "duration": 0.4038,
      "velocity": 97,
      "chip": "ym2612"
    },
    {
      "channel": 2,
      "note": 104,
      "start": 67.3496,
      "duration": 0.0658,
      "velocity": 95,
      "chip": "ym2612"
    },
    {
      "channel": 3,
      "note": 85,
      "start": 67.3507,
      "duration": 0.0988,
      "velocity": 94,
      "chip": "ym2612"
    },
    {
      "channel": 4,
      "note": 68,
      "start": 67.3518,
      "duration": 0.098,
      "velocity": 94,
      "chip": "ym2612"
    },
    {
      "channel": 5,
      "note": 85,
      "start": 67.3995,
      "duration": 0.1004,
      "velocity": 94,
      "chip": "ym2612"
    },
    {
      "channel": 2,
      "note": 101,
      "start": 67.4835,
      "duration": 0.0667,
      "velocity": 95,
      "chip": "ym2612"
    },
    {
      "channel": 1,
      "note": 105,
      "start": 67.6007,
      "duration": 0.5051,
      "velocity": 80,
      "chip": "ym2612"
    },
    {
      "channel": 2,
      "note": 97,
      "start": 67.6016,
      "duration": 0.0665,
      "velocity": 95,
      "chip": "ym2612"
    },
    {
      "channel": 3,
      "note": 89,
      "start": 67.6027,
      "duration": 0.4022,
      "velocity": 94,
      "chip": "ym2612"
    },
    {
      "channel": 4,
      "note": 73,
      "start": 67.6038,
      "duration": 0.4018,
      "velocity": 94,
      "chip": "ym2612"
    },
    {
      "channel": 5,
      "note": 89,
      "start": 67.6522,
      "duration": 0.3873,
      "velocity": 94,
      "chip": "ym2612"
    },
    {
      "channel": 2,
      "note": 92,
      "start": 67.7363,
      "duration": 0.0667,
      "velocity": 95,
      "chip": "ym2612"
    },
    {
      "channel": 0,
      "note": 41,
      "start": 67.8529,
      "duration": 0.4038,
      "velocity": 97,
      "chip": "ym2612"
    },
    {
      "channel": 2,
      "note": 104,
      "start": 67.8555,
      "duration": 0.0655,
      "velocity": 95,
      "chip": "ym2612"
    },
    {
      "channel": 2,
      "note": 101,
      "start": 67.9894,
      "duration": 0.0668,
      "velocity": 95,
      "chip": "ym2612"
    },
    {
      "channel": 1,
      "note": 105,
      "start": 68.1066,
      "duration": 0.2523,
      "velocity": 80,
      "chip": "ym2612"
    },
    {
      "channel": 2,
      "note": 97,
      "start": 68.1075,
      "duration": 0.0663,
      "velocity": 95,
      "chip": "ym2612"
    },
    {
      "channel": 3,
      "note": 92,
      "start": 68.1087,
      "duration": 0.2003,
      "velocity": 94,
      "chip": "ym2612"
    },
    {
      "channel": 4,
      "note": 77,
      "start": 68.1098,
      "duration": 0.1995,
      "velocity": 94,
      "chip": "ym2612"
    },
    {
      "channel": 5,
      "note": 92,
      "start": 68.158,
      "duration": 0.2056,
      "velocity": 94,
      "chip": "ym2612"
    },
    {
      "channel": 2,
      "note": 92,
      "start": 68.2419,
      "duration": 0.0667,
      "velocity": 95,
      "chip": "ym2612"
    },
    {
      "channel": 0,
      "note": 44,
      "start": 68.3585,
      "duration": 0.4039,
      "velocity": 97,
      "chip": "ym2612"
    },
    {
      "channel": 1,
      "note": 105,
      "start": 68.3599,
      "duration": 0.2511,
      "velocity": 80,
      "chip": "ym2612"
    },
    {
      "channel": 2,
      "note": 104,
      "start": 68.361,
      "duration": 0.0657,
      "velocity": 95,
      "chip": "ym2612"
    },
    {
      "channel": 3,
      "note": 90,
      "start": 68.362,
      "duration": 0.1998,
      "velocity": 94,
      "chip": "ym2612"
    },
    {
      "channel": 4,
      "note": 73,
      "start": 68.3632,
      "duration": 0.199,
      "velocity": 94,
      "chip": "ym2612"
    },
    {
      "channel": 5,
      "note": 90,
      "start": 68.4106,
      "duration": 0.205,
      "velocity": 94,
      "chip": "ym2612"
    },
    {
      "channel": 2,
      "note": 101,
      "start": 68.4947,
      "duration": 0.0667,
      "velocity": 95,
      "chip": "ym2612"
    },
    {
      "channel": 1,
      "note": 105,
      "start": 68.612,
      "duration": 0.5046,
      "velocity": 80,
      "chip": "ym2612"
    },
    {
      "channel": 2,
      "note": 97,
      "start": 68.6129,
      "duration": 0.0665,
      "velocity": 95,
      "chip": "ym2612"
    },
    {
      "channel": 3,
      "note": 89,
      "start": 68.6139,
      "duration": 0.2006,
      "velocity": 94,
      "chip": "ym2612"
    },
    {
      "channel": 4,
      "note": 68,
      "start": 68.6151,
      "duration": 0.1999,
      "velocity": 94,
      "chip": "ym2612"
    },
    {
      "channel": 5,
      "note": 89,
      "start": 68.6634,
      "duration": 0.2056,
      "velocity": 94,
      "chip": "ym2612"
    },
    {
      "channel": 2,
      "note": 92,
      "start": 68.7475,
      "duration": 0.0667,
      "velocity": 95,
      "chip": "ym2612"
    },
    {
      "channel": 0,
      "note": 51,
      "start": 68.8641,
      "duration": 0.4038,
      "velocity": 97,
      "chip": "ym2612"
    },
    {
      "channel": 2,
      "note": 106,
      "start": 68.8664,
      "duration": 0.0658,
      "velocity": 95,
      "chip": "ym2612"
    },
    {
      "channel": 3,
      "note": 90,
      "start": 68.8675,
      "duration": 0.4015,
      "velocity": 94,
      "chip": "ym2612"
    },
    {
      "channel": 4,
      "note": 70,
      "start": 68.8686,
      "duration": 0.4007,
      "velocity": 94,
      "chip": "ym2612"
    },
    {
      "channel": 5,
      "note": 90,
      "start": 68.9162,
      "duration": 0.4046,
      "velocity": 94,
      "chip": "ym2612"
    },
    {
      "channel": 2,
      "note": 102,
      "start": 69.0003,
      "duration": 0.0667,
      "velocity": 95,
      "chip": "ym2612"
    },
    {
      "channel": 1,
      "note": 105,
      "start": 69.1344,
      "duration": 0.4882,
      "velocity": 80,
      "chip": "ym2612"
    },
    {
      "channel": 2,
      "note": 99,
      "start": 69.1353,
      "duration": 0.0659,
      "velocity": 95,
      "chip": "ym2612"
    },
    {
      "channel": 2,
      "note": 94,
      "start": 69.2531,
      "duration": 0.0667,
      "velocity": 95,
      "chip": "ym2612"
    },
    {
      "channel": 0,
      "note": 42,
      "start": 69.3865,
      "duration": 0.387,
      "velocity": 97,
      "chip": "ym2612"
    },
    {
      "channel": 2,
      "note": 106,
      "start": 69.3892,
      "duration": 0.0648,
      "velocity": 95,
      "chip": "ym2612"
    },
    {
      "channel": 3,
      "note": 90,
      "start": 69.3903,
      "duration": 0.3843,
      "velocity": 94,
      "chip": "ym2612"
    },
    {
      "channel": 4,
      "note": 70,
      "start": 69.3914,
      "duration": 0.3835,
      "velocity": 94,
      "chip": "ym2612"
    },
    {
      "channel": 5,
      "note": 90,
      "start": 69.4222,
      "duration": 0.4042,
      "velocity": 94,
      "chip": "ym2612"
    },
    {
      "channel": 2,
      "note": 102,
      "start": 69.5063,
      "duration": 0.0667,
      "velocity": 95,
      "chip": "ym2612"
    },
    {
      "channel": 1,
      "note": 105,
      "start": 69.6402,
      "duration": 0.4876,
      "velocity": 80,
      "chip": "ym2612"
    },
    {
      "channel": 2,
      "note": 99,
      "start": 69.6411,
      "duration": 0.0656,
      "velocity": 95,
      "chip": "ym2612"
    },
    {
      "channel": 2,
      "note": 94,
      "start": 69.7587,
      "duration": 0.0667,
      "velocity": 95,
      "chip": "ym2612"
    },
    {
      "channel": 0,
      "note": 51,
      "start": 69.8921,
      "duration": 0.387,
      "velocity": 97,
      "chip": "ym2612"
    },
    {
      "channel": 2,
      "note": 106,
      "start": 69.8944,
      "duration": 0.0651,
      "velocity": 95,
      "chip": "ym2612"
    },
    {
      "channel": 3,
      "note": 89,
      "start": 69.8955,
      "duration": 0.3847,
      "velocity": 94,
      "chip": "ym2612"
    },
    {
      "channel": 4,
      "note": 68,
      "start": 69.8966,
      "duration": 0.3839,
      "velocity": 94,
      "chip": "ym2612"
    },
    {
      "channel": 5,
      "note": 89,
      "start": 69.9274,
      "duration": 0.4046,
      "velocity": 94,
      "chip": "ym2612"
    },
    {
      "channel": 2,
      "note": 102,
      "start": 70.0115,
      "duration": 0.0667,
      "velocity": 95,
      "chip": "ym2612"
    },
    {
      "channel": 1,
      "note": 105,
      "start": 70.1454,
      "duration": 0.2351,
      "velocity": 80,
      "chip": "ym2612"
    },
    {
      "channel": 2,
      "note": 99,
      "start": 70.1464,
      "duration": 0.066,
      "velocity": 95,
      "chip": "ym2612"
    },
    {
      "channel": 2,
      "note": 94,
      "start": 70.2643,
      "duration": 0.0667,
      "velocity": 95,
      "chip": "ym2612"
    },
    {
      "channel": 0,
      "note": 42,
      "start": 70.3978,
      "duration": 0.387,
      "velocity": 97,
      "chip": "ym2612"
    },
    {
      "channel": 1,
      "note": 105,
      "start": 70.3991,
      "duration": 0.2344,
      "velocity": 80,
      "chip": "ym2612"
    },
    {
      "channel": 2,
      "note": 106,
      "start": 70.4001,
      "duration": 0.065,
      "velocity": 95,
      "chip": "ym2612"
    },
    {
      "channel": 3,
      "note": 87,
      "start": 70.4012,
      "duration": 0.3845,
      "velocity": 94,
      "chip": "ym2612"
    },
    {
      "channel": 4,
      "note": 66,
      "start": 70.4024,
      "duration": 0.3838,
      "velocity": 94,
      "chip": "ym2612"
    },
    {
      "channel": 5,
      "note": 87,
      "start": 70.4331,
      "duration": 0.4045,
      "velocity": 94,
      "chip": "ym2612"
    },
    {
      "channel": 2,
      "note": 102,
      "start": 70.5171,
      "duration": 0.0667,
      "velocity": 95,
      "chip": "ym2612"
    },
    {
      "channel": 1,
      "note": 105,
      "start": 70.6512,
      "duration": 0.4882,
      "velocity": 80,
      "chip": "ym2612"
    },
    {
      "channel": 2,
      "note": 99,
      "start": 70.6521,
      "duration": 0.0659,
      "velocity": 95,
      "chip": "ym2612"
    },
    {
      "channel": 2,
      "note": 94,
      "start": 70.7699,
      "duration": 0.0667,
      "velocity": 95,
      "chip": "ym2612"
    },
    {
      "channel": 0,
      "note": 44,
      "start": 70.9034,
      "duration": 0.3869,
      "velocity": 97,
      "chip": "ym2612"
    },
    {
      "channel": 2,
      "note": 109,
      "start": 70.9059,
      "duration": 0.0648,
      "velocity": 95,
      "chip": "ym2612"
    },
    {
      "channel": 3,
      "note": 85,
      "start": 70.9071,
      "duration": 0.3843,
      "velocity": 94,
      "chip": "ym2612"
    },
    {
      "channel": 4,
      "note": 68,
      "start": 70.9082,
      "duration": 0.5863,
      "velocity": 94,
      "chip": "ym2612"
    },
    {
      "channel": 5,
      "note": 85,
      "start": 70.9397,
      "duration": 0.4035,
      "velocity": 94,
      "chip": "ym2612"
    },
    {
      "channel": 2,
      "note": 108,
      "start": 71.023,
      "duration": 0.0667,
      "velocity": 95,
      "chip": "ym2612"
    },
    {
      "channel": 1,
      "note": 105,
      "start": 71.157,
      "duration": 0.4876,
      "velocity": 80,
      "chip": "ym2612"
    },
    {
      "channel": 2,
      "note": 106,
      "start": 71.1579,
      "duration": 0.0656,
      "velocity": 95,
      "chip": "ym2612"
    },
    {
      "channel": 2,
      "note": 104,
      "start": 71.2755,
      "duration": 0.0667,
      "velocity": 95,
      "chip": "ym2612"
    },
    {
      "channel": 0,
      "note": 51,
      "start": 71.409,
      "duration": 0.387,
      "velocity": 97,
      "chip": "ym2612"
    },
    {
      "channel": 2,
      "note": 102,
      "start": 71.4111,
      "duration": 0.0653,
      "velocity": 95,
      "chip": "ym2612"
    },
    {
      "channel": 2,
      "note": 101,
      "start": 71.5283,
      "duration": 0.0668,
      "velocity": 95,
      "chip": "ym2612"
    },
    {
      "channel": 1,
      "note": 105,
      "start": 71.6623,
      "duration": 0.4879,
      "velocity": 80,
      "chip": "ym2612"
    },
    {
      "channel": 2,
      "note": 99,
      "start": 71.6632,
      "duration": 0.066,
      "velocity": 95,
      "chip": "ym2612"
    },
    {
      "channel": 3,
      "note": 84,
      "start": 71.6644,
      "duration": 1.2112,
      "velocity": 94,
      "chip": "ym2612"
    },
    {
      "channel": 4,
      "note": 63,
      "start": 71.6654,
      "duration": 1.2106,
      "velocity": 94,
      "chip": "ym2612"
    },
    {
      "channel": 5,
      "note": 84,
      "start": 71.6978,
      "duration": 1.212,
      "velocity": 94,
      "chip": "ym2612"
    },
    {
      "channel": 2,
      "note": 97,
      "start": 71.7811,
      "duration": 0.0667,
      "velocity": 95,
      "chip": "ym2612"
    },
    {
      "channel": 0,
      "note": 44,
      "start": 71.9146,
      "duration": 0.2016,
      "velocity": 97,
      "chip": "ym2612"
    },
    {
      "channel": 2,
      "note": 96,
      "start": 71.9168,
      "duration": 0.0659,
      "velocity": 95,
      "chip": "ym2612"
    },
    {
      "channel": 2,
      "note": 94,
      "start": 72.0339,
      "duration": 0.0668,
      "velocity": 95,
      "chip": "ym2612"
    },
    {
      "channel": 0,
      "note": 44,
      "start": 72.1674,
      "duration": 0.2016,
      "velocity": 97,
      "chip": "ym2612"
    },
    {
      "channel": 1,
      "note": 105,
      "start": 72.1687,
      "duration": 0.252,
      "velocity": 80,
      "chip": "ym2612"
    },
    {
      "channel": 2,
      "note": 92,
      "start": 72.1695,
      "duration": 0.0659,
      "velocity": 95,
      "chip": "ym2612"
    },
    {
      "channel": 2,
      "note": 90,
      "start": 72.2867,
      "duration": 0.0668,
      "velocity": 95,
      "chip": "ym2612"
    },
    {
      "channel": 0,
      "note": 46,
      "start": 72.4202,
      "duration": 0.2017,
      "velocity": 97,
      "chip": "ym2612"
    },
    {
      "channel": 1,
      "note": 105,
      "start": 72.4216,
      "duration": 0.252,
      "velocity": 80,
      "chip": "ym2612"
    },
    {
      "channel": 2,
      "note": 89,
      "start": 72.4228,
      "duration": 0.0655,
      "velocity": 95,
      "chip": "ym2612"
    },
    {
      "channel": 2,
      "note": 87,
      "start": 72.5398,
      "duration": 0.0667,
      "velocity": 95,
      "chip": "ym2612"
    },
    {
      "channel": 0,
      "note": 48,
      "start": 72.6731,
      "duration": 0.2015,
      "velocity": 97,
      "chip": "ym2612"
    },
    {
      "channel": 1,
      "note": 105,
      "start": 72.6745,
      "duration": 0.5037,
      "velocity": 80,
      "chip": "ym2612"
    },
    {
      "channel": 2,
      "note": 85,
      "start": 72.6754,
      "duration": 0.0656,
      "velocity": 95,
      "chip": "ym2612"
    },
    {
      "channel": 2,
      "note": 84,
      "start": 72.7923,
      "duration": 0.0667,
      "velocity": 95,
      "chip": "ym2612"
    },
    {
      "channel": 0,
      "note": 49,
      "start": 72.926,
      "duration": 0.3868,
      "velocity": 97,
      "chip": "ym2612"
    },
    {
      "channel": 2,
      "note": 104,
      "start": 72.9283,
      "duration": 0.0656,
      "velocity": 95,
      "chip": "ym2612"
    },
    {
      "channel": 3,
      "note": 92,
      "start": 72.9308,
      "duration": 0.3829,
      "velocity": 94,
      "chip": "ym2612"
    },
    {
      "channel": 4,
      "note": 73,
      "start": 72.9321,
      "duration": 0.3821,
      "velocity": 94,
      "chip": "ym2612"
    },
    {
      "channel": 5,
      "note": 92,
      "start": 72.9632,
      "duration": 0.4024,
      "velocity": 94,
      "chip": "ym2612"
    },
    {
      "channel": 2,
      "note": 101,
      "start": 73.0451,
      "duration": 0.0667,
      "velocity": 95,
      "chip": "ym2612"
    },
    {
      "channel": 1,
      "note": 105,
      "start": 73.1793,
      "duration": 0.5046,
      "velocity": 80,
      "chip": "ym2612"
    },
    {
      "channel": 2,
      "note": 97,
      "start": 73.1802,
      "duration": 0.0665,
      "velocity": 95,
      "chip": "ym2612"
    },
    {
      "channel": 2,
      "note": 92,
      "start": 73.2979,
      "duration": 0.0667,
      "velocity": 95,
      "chip": "ym2612"
    },
    {
      "channel": 0,
      "note": 44,
      "start": 73.4314,
      "duration": 0.387,
      "velocity": 97,
      "chip": "ym2612"
    },
    {
      "channel": 2,
      "note": 104,
      "start": 73.4337,
      "duration": 0.0658,
      "velocity": 95,
      "chip": "ym2612"
    },
    {
      "channel": 3,
      "note": 89,
      "start": 73.4348,
      "duration": 0.0988,
      "velocity": 94,
      "chip": "ym2612"
    },
    {
      "channel": 4,
      "note": 68,
      "start": 73.4359,
      "duration": 0.098,
      "velocity": 94,
      "chip": "ym2612"
    },
    {
      "channel": 5,
      "note": 89,
      "start": 73.4674,
      "duration": 0.0998,
      "velocity": 94,
      "chip": "ym2612"
    },
    {
      "channel": 2,
      "note": 101,
      "start": 73.5507,
      "duration": 0.0667,
      "velocity": 95,
      "chip": "ym2612"
    },
    {
      "channel": 1,
      "note": 105,
      "start": 73.6848,
      "duration": 0.5047,
      "velocity": 80,
      "chip": "ym2612"
    },
    {
      "channel": 2,
      "note": 97,
      "start": 73.6857,
      "duration": 0.0666,
      "velocity": 95,
      "chip": "ym2612"
    },
    {
      "channel": 3,
      "note": 85,
      "start": 73.6868,
      "duration": 0.4032,
      "velocity": 94,
      "chip": "ym2612"
    },
    {
      "channel": 4,
      "note": 65,
      "start": 73.6879,
      "duration": 0.4025,
      "velocity": 94,
      "chip": "ym2612"
    },
    {
      "channel": 5,
      "note": 85,
      "start": 73.7202,
      "duration": 0.4042,
      "velocity": 94,
      "chip": "ym2612"
    },
    {
      "channel": 2,
      "note": 92,
      "start": 73.8035,
      "duration": 0.0667,
      "velocity": 95,
      "chip": "ym2612"
    },
    {
      "channel": 0,
      "note": 49,
      "start": 73.937,
      "duration": 0.4038,
      "velocity": 97,
      "chip": "ym2612"
    },
    {
      "channel": 2,
      "note": 104,
      "start": 73.9396,
      "duration": 0.0656,
      "velocity": 95,
      "chip": "ym2612"
    },
    {
      "channel": 2,
      "note": 101,
      "start": 74.0566,
      "duration": 0.0668,
      "velocity": 95,
      "chip": "ym2612"
    },
    {
      "channel": 1,
      "note": 105,
      "start": 74.1904,
      "duration": 0.2527,
      "velocity": 80,
      "chip": "ym2612"
    },
    {
      "channel": 2,
      "note": 97,
      "start": 74.1913,
      "duration": 0.0666,
      "velocity": 95,
      "chip": "ym2612"
    },
    {
      "channel": 3,
      "note": 85,
      "start": 74.1924,
      "duration": 0.1999,
      "velocity": 94,
      "chip": "ym2612"
    },
    {
      "channel": 4,
      "note": 65,
      "start": 74.1935,
      "duration": 0.1992,
      "velocity": 94,
      "chip": "ym2612"
    },
    {
      "channel": 5,
      "note": 85,
      "start": 74.2258,
      "duration": 0.2008,
      "velocity": 94,
      "chip": "ym2612"
    },
    {
      "channel": 2,
      "note": 92,
      "start": 74.3092,
      "duration": 0.0667,
      "velocity": 95,
      "chip": "ym2612"
    },
    {
      "channel": 0,
      "note": 44,
      "start": 74.4426,
      "duration": 0.4038,
      "velocity": 97,
      "chip": "ym2612"
    },
    {
      "channel": 1,
      "note": 105,
      "start": 74.444,
      "duration": 0.2511,
      "velocity": 80,
      "chip": "ym2612"
    },
    {
      "channel": 2,
      "note": 104,
      "start": 74.4451,
      "duration": 0.0656,
      "velocity": 95,
      "chip": "ym2612"
    },
    {
      "channel": 3,
      "note": 84,
      "start": 74.4462,
      "duration": 0.1989,
      "velocity": 94,
      "chip": "ym2612"
    },
    {
      "channel": 4,
      "note": 64,
      "start": 74.4473,
      "duration": 0.1982,
      "velocity": 94,
      "chip": "ym2612"
    },
    {
      "channel": 5,
      "note": 84,
      "start": 74.4786,
      "duration": 0.2008,
      "velocity": 94,
      "chip": "ym2612"
    },
    {
      "channel": 2,
      "note": 101,
      "start": 74.5619,
      "duration": 0.0667,
      "velocity": 95,
      "chip": "ym2612"
    },
    {
      "channel": 1,
      "note": 105,
      "start": 74.696,
      "duration": 0.5046,
      "velocity": 80,
      "chip": "ym2612"
    },
    {
      "channel": 2,
      "note": 97,
      "start": 74.697,
      "duration": 0.0666,
      "velocity": 95,
      "chip": "ym2612"
    },
    {
      "channel": 3,
      "note": 85,
      "start": 74.698,
      "duration": 0.1999,
      "velocity": 94,
      "chip": "ym2612"
    },
    {
      "channel": 4,
      "note": 65,
      "start": 74.6992,
      "duration": 0.1992,
      "velocity": 94,
      "chip": "ym2612"
    },
    {
      "channel": 5,
      "note": 85,
      "start": 74.7314,
      "duration": 0.2008,
      "velocity": 94,
      "chip": "ym2612"
    },
    {
      "channel": 2,
      "note": 92,
      "start": 74.8316,
      "duration": 0.066,
      "velocity": 95,
      "chip": "ym2612"
    },
    {
      "channel": 0,
      "note": 48,
      "start": 74.9482,
      "duration": 0.4039,
      "velocity": 97,
      "chip": "ym2612"
    },
    {
      "channel": 2,
      "note": 104,
      "start": 74.9505,
      "duration": 0.0658,
      "velocity": 95,
      "chip": "ym2612"
    },
    {
      "channel": 3,
      "note": 87,
      "start": 74.9515,
      "duration": 0.4022,
      "velocity": 94,
      "chip": "ym2612"
    },
    {
      "channel": 4,
      "note": 68,
      "start": 74.9527,
      "duration": 0.4015,
      "velocity": 94,
      "chip": "ym2612"
    },
    {
      "channel": 5,
      "note": 87,
      "start": 75.0003,
      "duration": 0.3877,
      "velocity": 94,
      "chip": "ym2612"
    },
    {
      "channel": 2,
      "note": 99,
      "start": 75.0844,
      "duration": 0.066,
      "velocity": 95,
      "chip": "ym2612"
    },
    {
      "channel": 1,
      "note": 105,
      "start": 75.2017,
      "duration": 0.5046,
      "velocity": 80,
      "chip": "ym2612"
    },
    {
      "channel": 2,
      "note": 96,
      "start": 75.2026,
      "duration": 0.0665,
      "velocity": 95,
      "chip": "ym2612"
    },
    {
      "channel": 2,
      "note": 92,
      "start": 75.3372,
      "duration": 0.066,
      "velocity": 95,
      "chip": "ym2612"
    },
    {
      "channel": 0,
      "note": 44,
      "start": 75.4538,
      "duration": 0.4039,
      "velocity": 97,
      "chip": "ym2612"
    },
    {
      "channel": 2,
      "note": 104,
      "start": 75.4564,
      "duration": 0.0659,
      "velocity": 95,
      "chip": "ym2612"
    },
    {
      "channel": 3,
      "note": 84,
      "start": 75.4575,
      "duration": 0.0987,
      "velocity": 94,
      "chip": "ym2612"
    },
    {
      "channel": 4,
      "note": 63,
      "start": 75.4587,
      "duration": 0.098,
      "velocity": 94,
      "chip": "ym2612"
    },
    {
      "channel": 5,
      "note": 84,
      "start": 75.5063,
      "duration": 0.1011,
      "velocity": 94,
      "chip": "ym2612"
    },
    {
      "channel": 2,
      "note": 99,
      "start": 75.5903,
      "duration": 0.066,
      "velocity": 95,
      "chip": "ym2612"
    },
    {
      "channel": 1,
      "note": 105,
      "start": 75.7072,
      "duration": 0.5047,
      "velocity": 80,
      "chip": "ym2612"
    },
    {
      "channel": 2,
      "note": 96,
      "start": 75.7082,
      "duration": 0.0665,
      "velocity": 95,
      "chip": "ym2612"
    },
    {
      "channel": 3,
      "note": 80,
      "start": 75.7093,
      "duration": 0.4029,
      "velocity": 94,
      "chip": "ym2612"
    },
    {
      "channel": 4,
      "note": 60,
      "start": 75.7104,
      "duration": 0.4021,
      "velocity": 94,
      "chip": "ym2612"
    },
    {
      "channel": 5,
      "note": 80,
      "start": 75.7587,
      "duration": 0.3877,
      "velocity": 94,
      "chip": "ym2612"
    },
    {
      "channel": 2,
      "note": 92,
      "start": 75.8428,
      "duration": 0.066,
      "velocity": 95,
      "chip": "ym2612"
    },
    {
      "channel": 0,
      "note": 48,
      "start": 75.9594,
      "duration": 0.4038,
      "velocity": 97,
      "chip": "ym2612"
    },
    {
      "channel": 2,
      "note": 104,
      "start": 75.9617,
      "duration": 0.0659,
      "velocity": 95,
      "chip": "ym2612"
    },
    {
      "channel": 2,
      "note": 99,
      "start": 76.0956,
      "duration": 0.066,
      "velocity": 95,
      "chip": "ym2612"
    },
    {
      "channel": 1,
      "note": 105,
      "start": 76.2128,
      "duration": 0.2527,
      "velocity": 80,
      "chip": "ym2612"
    },
    {
      "channel": 2,
      "note": 96,
      "start": 76.2138,
      "duration": 0.0665,
      "velocity": 95,
      "chip": "ym2612"
    },
    {
      "channel": 3,
      "note": 80,
      "start": 76.2149,
      "duration": 0.1999,
      "velocity": 94,
      "chip": "ym2612"
    },
    {
      "channel": 4,
      "note": 60,
      "start": 76.216,
      "duration": 0.1992,
      "velocity": 94,
      "chip": "ym2612"
    },
    {
      "channel": 5,
      "note": 80,
      "start": 76.2643,
      "duration": 0.2059,
      "velocity": 94,
      "chip": "ym2612"
    },
    {
      "channel": 2,
      "note": 92,
      "start": 76.3484,
      "duration": 0.066,
      "velocity": 95,
      "chip": "ym2612"
    },
    {
      "channel": 0,
      "note": 44,
      "start": 76.465,
      "duration": 0.4038,
      "velocity": 97,
      "chip": "ym2612"
    },
    {
      "channel": 1,
      "note": 105,
      "start": 76.4664,
      "duration": 0.2511,
      "velocity": 80,
      "chip": "ym2612"
    },
    {
      "channel": 2,
      "note": 104,
      "start": 76.4675,
      "duration": 0.0656,
      "velocity": 95,
      "chip": "ym2612"
    },
    {
      "channel": 3,
      "note": 84,
      "start": 76.4686,
      "duration": 0.199,
      "velocity": 94,
      "chip": "ym2612"
    },
    {
      "channel": 4,
      "note": 63,
      "start": 76.4698,
      "duration": 0.1983,
      "velocity": 94,
      "chip": "ym2612"
    },
    {
      "channel": 5,
      "note": 84,
      "start": 76.5171,
      "duration": 0.2053,
      "velocity": 94,
      "chip": "ym2612"
    },
    {
      "channel": 2,
      "note": 99,
      "start": 76.6012,
      "duration": 0.0661,
      "velocity": 95,
      "chip": "ym2612"
    },
    {
      "channel": 1,
      "note": 105,
      "start": 76.7185,
      "duration": 0.5046,
      "velocity": 80,
      "chip": "ym2612"
    },
    {
      "channel": 2,
      "note": 96,
      "start": 76.7194,
      "duration": 0.0665,
      "velocity": 95,
      "chip": "ym2612"
    },
    {
      "channel": 3,
      "note": 87,
      "start": 76.7205,
      "duration": 0.1999,
      "velocity": 94,
      "chip": "ym2612"
    },
    {
      "channel": 4,
      "note": 68,
      "start": 76.7217,
      "duration": 0.1991,
      "velocity": 94,
      "chip": "ym2612"
    },
    {
      "channel": 5,
      "note": 87,
      "start": 76.7699,
      "duration": 0.206,
      "velocity": 94,
      "chip": "ym2612"
    },
    {
      "channel": 2,
      "note": 92,
      "start": 76.854,
      "duration": 0.066,
      "velocity": 95,
      "chip": "ym2612"
    },
    {
      "channel": 0,
      "note": 46,
      "start": 76.9706,
      "duration": 0.4038,
      "velocity": 97,
      "chip": "ym2612"
    },
    {
      "channel": 2,
      "note": 106,
      "start": 76.9732,
      "duration": 0.0658,
      "velocity": 95,
      "chip": "ym2612"
    },
    {
      "channel": 3,
      "note": 85,
      "start": 76.9743,
      "duration": 0.1991,
      "velocity": 94,
      "chip": "ym2612"
    },
    {
      "channel": 4,
      "note": 65,
      "start": 76.9755,
      "duration": 0.1983,
      "velocity": 94,
      "chip": "ym2612"
    },
    {
      "channel": 5,
      "note": 85,
      "start": 77.0231,
      "duration": 0.2046,
      "velocity": 94,
      "chip": "ym2612"
    },
    {
      "channel": 2,
      "note": 101,
      "start": 77.1071,
      "duration": 0.0659,
      "velocity": 95,
      "chip": "ym2612"
    },
    {
      "channel": 1,
      "note": 105,
      "start": 77.2241,
      "duration": 0.5046,
      "velocity": 80,
      "chip": "ym2612"
    },
    {
      "channel": 2,
      "note": 97,
      "start": 77.225,
      "duration": 0.0665,
      "velocity": 95,
      "chip": "ym2612"
    },
    {
      "channel": 3,
      "note": 82,
      "start": 77.2262,
      "duration": 0.1998,
      "velocity": 94,
      "chip": "ym2612"
    },
    {
      "channel": 4,
      "note": 61,
      "start": 77.2273,
      "duration": 0.1991,
      "velocity": 94,
      "chip": "ym2612"
    },
    {
      "channel": 5,
      "note": 82,
      "start": 77.2756,
      "duration": 0.2056,
      "velocity": 94,
      "chip": "ym2612"
    },
    {
      "channel": 2,
      "note": 94,
      "start": 77.3596,
      "duration": 0.066,
      "velocity": 95,
      "chip": "ym2612"
    },
    {
      "channel": 0,
      "note": 41,
      "start": 77.4762,
      "duration": 0.4038,
      "velocity": 97,
      "chip": "ym2612"
    },
    {
      "channel": 2,
      "note": 106,
      "start": 77.4785,
      "duration": 0.0658,
      "velocity": 95,
      "chip": "ym2612"
    },
    {
      "channel": 3,
      "note": 85,
      "start": 77.4796,
      "duration": 0.0987,
      "velocity": 94,
      "chip": "ym2612"
    },
    {
      "channel": 4,
      "note": 65,
      "start": 77.4807,
      "duration": 0.098,
      "velocity": 94,
      "chip": "ym2612"
    },
    {
      "channel": 5,
      "note": 85,
      "start": 77.5284,
      "duration": 0.1005,
      "velocity": 94,
      "chip": "ym2612"
    },
    {
      "channel": 2,
      "note": 101,
      "start": 77.6124,
      "duration": 0.0661,
      "velocity": 95,
      "chip": "ym2612"
    },
    {
      "channel": 1,
      "note": 105,
      "start": 77.7296,
      "duration": 0.5047,
      "velocity": 80,
      "chip": "ym2612"
    },
    {
      "channel": 2,
      "note": 97,
      "start": 77.7305,
      "duration": 0.0666,
      "velocity": 95,
      "chip": "ym2612"
    },
    {
      "channel": 3,
      "note": 77,
      "start": 77.7316,
      "duration": 0.4022,
      "velocity": 94,
      "chip": "ym2612"
    },
    {
      "channel": 4,
      "note": 58,
      "start": 77.7328,
      "duration": 0.4014,
      "velocity": 94,
      "chip": "ym2612"
    },
    {
      "channel": 5,
      "note": 77,
      "start": 77.7812,
      "duration": 0.387,
      "velocity": 94,
      "chip": "ym2612"
    },
    {
      "channel": 2,
      "note": 94,
      "start": 77.8652,
      "duration": 0.0667,
      "velocity": 95,
      "chip": "ym2612"
    },
    {
      "channel": 0,
      "note": 46,
      "start": 77.9818,
      "duration": 0.4038,
      "velocity": 97,
      "chip": "ym2612"
    },
    {
      "channel": 2,
      "note": 106,
      "start": 77.9841,
      "duration": 0.0658,
      "velocity": 95,
      "chip": "ym2612"
    },
    {
      "channel": 2,
      "note": 101,
      "start": 78.118,
      "duration": 0.0668,
      "velocity": 95,
      "chip": "ym2612"
    },
    {
      "channel": 1,
      "note": 105,
      "start": 78.2352,
      "duration": 0.2527,
      "velocity": 80,
      "chip": "ym2612"
    },
    {
      "channel": 2,
      "note": 97,
      "start": 78.2361,
      "duration": 0.0666,
      "velocity": 95,
      "chip": "ym2612"
    },
    {
      "channel": 3,
      "note": 77,
      "start": 78.2372,
      "duration": 0.2007,
      "velocity": 94,
      "chip": "ym2612"
    },
    {
      "channel": 4,
      "note": 58,
      "start": 78.2384,
      "duration": 0.1999,
      "velocity": 94,
      "chip": "ym2612"
    },
    {
      "channel": 5,
      "note": 77,
      "start": 78.2868,
      "duration": 0.2062,
      "velocity": 94,
      "chip": "ym2612"
    },
    {
      "channel": 2,
      "note": 94,
      "start": 78.3708,
      "duration": 0.0667,
      "velocity": 95,
      "chip": "ym2612"
    },
    {
      "channel": 0,
      "note": 41,
      "start": 78.4874,
      "duration": 0.4038,
      "velocity": 97,
      "chip": "ym2612"
    },
    {
      "channel": 1,
      "note": 105,
      "start": 78.4891,
      "duration": 0.2508,
      "velocity": 80,
      "chip": "ym2612"
    },
    {
      "channel": 2,
      "note": 106,
      "start": 78.4902,
      "duration": 0.0656,
      "velocity": 95,
      "chip": "ym2612"
    },
    {
      "channel": 3,
      "note": 82,
      "start": 78.4913,
      "duration": 0.1995,
      "velocity": 94,
      "chip": "ym2612"
    },
    {
      "channel": 4,
      "note": 61,
      "start": 78.4924,
      "duration": 0.1988,
      "velocity": 94,
      "chip": "ym2612"
    },
    {
      "channel": 5,
      "note": 82,
      "start": 78.54,
      "duration": 0.2045,
      "velocity": 94,
      "chip": "ym2612"
    },
    {
      "channel": 2,
      "note": 101,
      "start": 78.6239,
      "duration": 0.0665,
      "velocity": 95,
      "chip": "ym2612"
    },
    {
      "channel": 1,
      "note": 105,
      "start": 78.7409,
      "duration": 0.5046,
      "velocity": 80,
      "chip": "ym2612"
    },
    {
      "channel": 2,
      "note": 97,
      "start": 78.7418,
      "duration": 0.0665,
      "velocity": 95,
      "chip": "ym2612"
    },
    {
      "channel": 3,
      "note": 85,
      "start": 78.7429,
      "duration": 0.2006,
      "velocity": 94,
      "chip": "ym2612"
    },
    {
      "channel": 4,
      "note": 65,
      "start": 78.744,
      "duration": 0.1999,
      "velocity": 94,
      "chip": "ym2612"
    },
    {
      "channel": 5,
      "note": 85,
      "start": 78.7924,
      "duration": 0.204,
      "velocity": 94,
      "chip": "ym2612"
    },
    {
      "channel": 2,
      "note": 94,
      "start": 78.8764,
      "duration": 0.0667,
      "velocity": 95,
      "chip": "ym2612"
    },
    {
      "channel": 0,
      "note": 44,
      "start": 78.993,
      "duration": 0.4038,
      "velocity": 97,
      "chip": "ym2612"
    },
    {
      "channel": 2,
      "note": 104,
      "start": 78.9952,
      "duration": 0.0659,
      "velocity": 95,
      "chip": "ym2612"
    },
    {
      "channel": 2,
      "note": 99,
      "start": 79.1292,
      "duration": 0.0667,
      "velocity": 95,
      "chip": "ym2612"
    },
    {
      "channel": 1,
      "note": 105,
      "start": 79.2465,
      "duration": 0.5046,
      "velocity": 80,
      "chip": "ym2612"
    },
    {
      "channel": 2,
      "note": 96,
      "start": 79.2475,
      "duration": 0.0665,
      "velocity": 95,
      "chip": "ym2612"
    },
    {
      "channel": 3,
      "note": 84,
      "start": 79.2485,
      "duration": 0.2006,
      "velocity": 94,
      "chip": "ym2612"
    },
    {
      "channel": 4,
      "note": 63,
      "start": 79.2497,
      "duration": 0.1998,
      "velocity": 94,
      "chip": "ym2612"
    },
    {
      "channel": 5,
      "note": 84,
      "start": 79.298,
      "duration": 0.2041,
      "velocity": 94,
      "chip": "ym2612"
    },
    {
      "channel": 2,
      "note": 92,
      "start": 79.382,
      "duration": 0.0667,
      "velocity": 95,
      "chip": "ym2612"
    },
    {
      "channel": 0,
      "note": 51,
      "start": 79.4986,
      "duration": 0.4038,
      "velocity": 97,
      "chip": "ym2612"
    },
    {
      "channel": 2,
      "note": 104,
      "start": 79.5009,
      "duration": 0.0659,
      "velocity": 95,
      "chip": "ym2612"
    },
    {
      "channel": 2,
      "note": 99,
      "start": 79.6348,
      "duration": 0.0667,
      "velocity": 95,
      "chip": "ym2612"
    },
    {
      "channel": 1,
      "note": 105,
      "start": 79.752,
      "duration": 0.5047,
      "velocity": 80,
      "chip": "ym2612"
    },
    {
      "channel": 2,
      "note": 96,
      "start": 79.7529,
      "duration": 0.0666,
      "velocity": 95,
      "chip": "ym2612"
    },
    {
      "channel": 3,
      "note": 84,
      "start": 79.7541,
      "duration": 0.2006,
      "velocity": 94,
      "chip": "ym2612"
    },
    {
      "channel": 4,
      "note": 63,
      "start": 79.7556,
      "duration": 0.1997,
      "velocity": 94,
      "chip": "ym2612"
    },
    {
      "channel": 5,
      "note": 84,
      "start": 79.8036,
      "duration": 0.206,
      "velocity": 94,
      "chip": "ym2612"
    },
    {
      "channel": 2,
      "note": 92,
      "start": 79.8876,
      "duration": 0.0667,
      "velocity": 95,
      "chip": "ym2612"
    },
    {
      "channel": 0,
      "note": 44,
      "start": 80.0042,
      "duration": 0.4039,
      "velocity": 97,
      "chip": "ym2612"
    },
    {
      "channel": 2,
      "note": 104,
      "start": 80.0069,
      "duration": 0.0658,
      "velocity": 95,
      "chip": "ym2612"
    },
    {
      "channel": 3,
      "note": 80,
      "start": 80.008,
      "duration": 0.1996,
      "velocity": 94,
      "chip": "ym2612"
    },
    {
      "channel": 4,
      "note": 60,
      "start": 80.0091,
      "duration": 0.1989,
      "velocity": 94,
      "chip": "ym2612"
    },
    {
      "channel": 5,
      "note": 80,
      "start": 80.0568,
      "duration": 0.2046,
      "velocity": 94,
      "chip": "ym2612"
    },
    {
      "channel": 2,
      "note": 99,
      "start": 80.1407,
      "duration": 0.0664,
      "velocity": 95,
      "chip": "ym2612"
    },
    {
      "channel": 1,
      "note": 105,
      "start": 80.2577,
      "duration": 0.2527,
      "velocity": 80,
      "chip": "ym2612"
    },
    {
      "channel": 2,
      "note": 96,
      "start": 80.2586,
      "duration": 0.0665,
      "velocity": 95,
      "chip": "ym2612"
    },
    {
      "channel": 3,
      "note": 84,
      "start": 80.2597,
      "duration": 0.2006,
      "velocity": 94,
      "chip": "ym2612"
    },
    {
      "channel": 4,
      "note": 63,
      "start": 80.2608,
      "duration": 0.1999,
      "velocity": 94,
      "chip": "ym2612"
    },
    {
      "channel": 5,
      "note": 84,
      "start": 80.3092,
      "duration": 0.2059,
      "velocity": 94,
      "chip": "ym2612"
    },
    {
      "channel": 2,
      "note": 92,
      "start": 80.3932,
      "duration": 0.0667,
      "velocity": 95,
      "chip": "ym2612"
    },
    {
      "channel": 0,
      "note": 51,
      "start": 80.5098,
      "duration": 0.4038,
      "velocity": 97,
      "chip": "ym2612"
    },
    {
      "channel": 1,
      "note": 105,
      "start": 80.5112,
      "duration": 0.2511,
      "velocity": 80,
      "chip": "ym2612"
    },
    {
      "channel": 2,
      "note": 104,
      "start": 80.5123,
      "duration": 0.0656,
      "velocity": 95,
      "chip": "ym2612"
    },
    {
      "channel": 3,
      "note": 87,
      "start": 80.5134,
      "duration": 0.1998,
      "velocity": 94,
      "chip": "ym2612"
    },
    {
      "channel": 4,
      "note": 68,
      "start": 80.5146,
      "duration": 0.199,
      "velocity": 94,
      "chip": "ym2612"
    },
    {
      "channel": 5,
      "note": 87,
      "start": 80.562,
      "duration": 0.2017,
      "velocity": 94,
      "chip": "ym2612"
    },
    {
      "channel": 2,
      "note": 99,
      "start": 80.646,
      "duration": 0.0667,
      "velocity": 95,
      "chip": "ym2612"
    },
    {
      "channel": 1,
      "note": 105,
      "start": 80.78,
      "duration": 0.4878,
      "velocity": 80,
      "chip": "ym2612"
    },
    {
      "channel": 2,
      "note": 96,
      "start": 80.781,
      "duration": 0.0659,
      "velocity": 95,
      "chip": "ym2612"
    },
    {
      "channel": 3,
      "note": 92,
      "start": 80.7822,
      "duration": 0.1838,
      "velocity": 94,
      "chip": "ym2612"
    },
    {
      "channel": 4,
      "note": 72,
      "start": 80.7833,
      "duration": 0.183,
      "velocity": 94,
      "chip": "ym2612"
    },
    {
      "channel": 5,
      "note": 92,
      "start": 80.8149,
      "duration": 0.2015,
      "velocity": 94,
      "chip": "ym2612"
    },
    {
      "channel": 2,
      "note": 92,
      "start": 80.8988,
      "duration": 0.0667,
      "velocity": 95,
      "chip": "ym2612"
    },
    {
      "channel": 0,
      "note": 42,
      "start": 81.0323,
      "duration": 0.387,
      "velocity": 97,
      "chip": "ym2612"
    },
    {
      "channel": 2,
      "note": 102,
      "start": 81.0346,
      "duration": 0.0651,
      "velocity": 95,
      "chip": "ym2612"
    },
    {
      "channel": 3,
      "note": 90,
      "start": 81.0356,
      "duration": 0.3847,
      "velocity": 94,
      "chip": "ym2612"
    },
    {
      "channel": 4,
      "note": 73,
      "start": 81.0368,
      "duration": 0.3839,
      "velocity": 94,
      "chip": "ym2612"
    },
    {
      "channel": 5,
      "note": 90,
      "start": 81.0676,
      "duration": 0.4049,
      "velocity": 94,
      "chip": "ym2612"
    },
    {
      "channel": 2,
      "note": 97,
      "start": 81.1516,
      "duration": 0.0667,
      "velocity": 95,
      "chip": "ym2612"
    },
    {
      "channel": 1,
      "note": 105,
      "start": 81.2857,
      "duration": 0.4878,
      "velocity": 80,
      "chip": "ym2612"
    },
    {
      "channel": 2,
      "note": 94,
      "start": 81.2866,
      "duration": 0.0659,
      "velocity": 95,
      "chip": "ym2612"
    },
    {
      "channel": 2,
      "note": 90,
      "start": 81.4044,
      "duration": 0.0667,
      "velocity": 95,
      "chip": "ym2612"
    },
    {
      "channel": 0,
      "note": 46,
      "start": 81.5379,
      "duration": 0.387,
      "velocity": 97,
      "chip": "ym2612"
    },
    {
      "channel": 2,
      "note": 102,
      "start": 81.5405,
      "duration": 0.0651,
      "velocity": 95,
      "chip": "ym2612"
    },
    {
      "channel": 3,
      "note": 85,
      "start": 81.5416,
      "duration": 0.098,
      "velocity": 94,
      "chip": "ym2612"
    },
    {
      "channel": 4,
      "note": 70,
      "start": 81.5428,
      "duration": 0.0973,
      "velocity": 94,
      "chip": "ym2612"
    },
    {
      "channel": 5,
      "note": 85,
      "start": 81.5736,
      "duration": 0.1004,
      "velocity": 94,
      "chip": "ym2612"
    },
    {
      "channel": 2,
      "note": 97,
      "start": 81.6576,
      "duration": 0.0663,
      "velocity": 95,
      "chip": "ym2612"
    },
    {
      "channel": 1,
      "note": 105,
      "start": 81.7912,
      "duration": 0.488,
      "velocity": 80,
      "chip": "ym2612"
    },
    {
      "channel": 2,
      "note": 94,
      "start": 81.7921,
      "duration": 0.066,
      "velocity": 95,
      "chip": "ym2612"
    },
    {
      "channel": 3,
      "note": 90,
      "start": 81.7932,
      "duration": 0.3854,
      "velocity": 94,
      "chip": "ym2612"
    },
    {
      "channel": 4,
      "note": 73,
      "start": 81.7944,
      "duration": 0.3847,
      "velocity": 94,
      "chip": "ym2612"
    },
    {
      "channel": 5,
      "note": 90,
      "start": 81.826,
      "duration": 0.4045,
      "velocity": 94,
      "chip": "ym2612"
    },
    {
      "channel": 2,
      "note": 90,
      "start": 81.91,
      "duration": 0.0667,
      "velocity": 95,
      "chip": "ym2612"
    },
    {
      "channel": 0,
      "note": 42,
      "start": 82.0435,
      "duration": 0.387,
      "velocity": 97,
      "chip": "ym2612"
    },
    {
      "channel": 2,
      "note": 102,
      "start": 82.0458,
      "duration": 0.0651,
      "velocity": 95,
      "chip": "ym2612"
    },
    {
      "channel": 2,
      "note": 97,
      "start": 82.1628,
      "duration": 0.0667,
      "velocity": 95,
      "chip": "ym2612"
    },
    {
      "channel": 1,
      "note": 105,
      "start": 82.2968,
      "duration": 0.235,
      "velocity": 80,
      "chip": "ym2612"
    },
    {
      "channel": 2,
      "note": 94,
      "start": 82.2977,
      "duration": 0.066,
      "velocity": 95,
      "chip": "ym2612"
    },
    {
      "channel": 3,
      "note": 94,
      "start": 82.2988,
      "duration": 0.2,
      "velocity": 94,
      "chip": "ym2612"
    },
    {
      "channel": 4,
      "note": 78,
      "start": 82.3,
      "duration": 0.1992,
      "velocity": 94,
      "chip": "ym2612"
    },
    {
      "channel": 5,
      "note": 94,
      "start": 82.3323,
      "duration": 0.2009,
      "velocity": 94,
      "chip": "ym2612"
    },
    {
      "channel": 2,
      "note": 90,
      "start": 82.4156,
      "duration": 0.0667,
      "velocity": 95,
      "chip": "ym2612"
    },
    {
      "channel": 0,
      "note": 46,
      "start": 82.5491,
      "duration": 0.387,
      "velocity": 97,
      "chip": "ym2612"
    },
    {
      "channel": 1,
      "note": 105,
      "start": 82.5504,
      "duration": 0.2344,
      "velocity": 80,
      "chip": "ym2612"
    },
    {
      "channel": 2,
      "note": 102,
      "start": 82.5515,
      "duration": 0.065,
      "velocity": 95,
      "chip": "ym2612"
    },
    {
      "channel": 3,
      "note": 92,
      "start": 82.5526,
      "duration": 0.199,
      "velocity": 94,
      "chip": "ym2612"
    },
    {
      "channel": 4,
      "note": 73,
      "start": 82.5537,
      "duration": 0.1983,
      "velocity": 94,
      "chip": "ym2612"
    },
    {
      "channel": 5,
      "note": 92,
      "start": 82.5851,
      "duration": 0.2009,
      "velocity": 94,
      "chip": "ym2612"
    },
    {
      "channel": 2,
      "note": 97,
      "start": 82.6684,
      "duration": 0.0668,
      "velocity": 95,
      "chip": "ym2612"
    },
    {
      "channel": 1,
      "note": 105,
      "start": 82.8025,
      "duration": 0.4878,
      "velocity": 80,
      "chip": "ym2612"
    },
    {
      "channel": 2,
      "note": 94,
      "start": 82.8034,
      "duration": 0.0659,
      "velocity": 95,
      "chip": "ym2612"
    },
    {
      "channel": 3,
      "note": 90,
      "start": 82.8045,
      "duration": 0.1999,
      "velocity": 94,
      "chip": "ym2612"
    },
    {
      "channel": 4,
      "note": 70,
      "start": 82.806,
      "duration": 0.1988,
      "velocity": 94,
      "chip": "ym2612"
    },
    {
      "channel": 5,
      "note": 90,
      "start": 82.8379,
      "duration": 0.2011,
      "velocity": 94,
      "chip": "ym2612"
    },
    {
      "channel": 2,
      "note": 90,
      "start": 82.9212,
      "duration": 0.0667,
      "velocity": 95,
      "chip": "ym2612"
    },
    {
      "channel": 0,
      "note": 41,
      "start": 83.0547,
      "duration": 0.387,
      "velocity": 97,
      "chip": "ym2612"
    },
    {
      "channel": 2,
      "note": 104,
      "start": 83.0573,
      "duration": 0.0651,
      "velocity": 95,
      "chip": "ym2612"
    },
    {
      "channel": 3,
      "note": 89,
      "start": 83.0584,
      "duration": 0.3843,
      "velocity": 94,
      "chip": "ym2612"
    },
    {
      "channel": 4,
      "note": 73,
      "start": 83.0596,
      "duration": 0.3835,
      "velocity": 94,
      "chip": "ym2612"
    },
    {
      "channel": 5,
      "note": 89,
      "start": 83.0911,
      "duration": 0.4034,
      "velocity": 94,
      "chip": "ym2612"
    },
    {
      "channel": 2,
      "note": 101,
      "start": 83.1744,
      "duration": 0.0664,
      "velocity": 95,
      "chip": "ym2612"
    },
    {
      "channel": 1,
      "note": 105,
      "start": 83.3081,
      "duration": 0.5047,
      "velocity": 80,
      "chip": "ym2612"
    },
    {
      "channel": 2,
      "note": 97,
      "start": 83.309,
      "duration": 0.0659,
      "velocity": 95,
      "chip": "ym2612"
    },
    {
      "channel": 2,
      "note": 92,
      "start": 83.4269,
      "duration": 0.0667,
      "velocity": 95,
      "chip": "ym2612"
    },
    {
      "channel": 0,
      "note": 44,
      "start": 83.5603,
      "duration": 0.387,
      "velocity": 97,
      "chip": "ym2612"
    },
    {
      "channel": 2,
      "note": 104,
      "start": 83.5626,
      "duration": 0.0658,
      "velocity": 95,
      "chip": "ym2612"
    },
    {
      "channel": 3,
      "note": 85,
      "start": 83.5637,
      "duration": 0.098,
      "velocity": 94,
      "chip": "ym2612"
    },
    {
      "channel": 4,
      "note": 68,
      "start": 83.5649,
      "duration": 0.0973,
      "velocity": 94,
      "chip": "ym2612"
    },
    {
      "channel": 5,
      "note": 85,
      "start": 83.5963,
      "duration": 0.0998,
      "velocity": 94,
      "chip": "ym2612"
    },
    {
      "channel": 2,
      "note": 101,
      "start": 83.6796,
      "duration": 0.0668,
      "velocity": 95,
      "chip": "ym2612"
    },
    {
      "channel": 1,
      "note": 105,
      "start": 83.8137,
      "duration": 0.5047,
      "velocity": 80,
      "chip": "ym2612"
    },
    {
      "channel": 2,
      "note": 97,
      "start": 83.8146,
      "duration": 0.0665,
      "velocity": 95,
      "chip": "ym2612"
    },
    {
      "channel": 3,
      "note": 89,
      "start": 83.8157,
      "duration": 0.3853,
      "velocity": 94,
      "chip": "ym2612"
    },
    {
      "channel": 4,
      "note": 73,
      "start": 83.8169,
      "duration": 0.3846,
      "velocity": 94,
      "chip": "ym2612"
    },
    {
      "channel": 5,
      "note": 89,
      "start": 83.8491,
      "duration": 0.4039,
      "velocity": 94,
      "chip": "ym2612"
    },
    {
      "channel": 2,
      "note": 92,
      "start": 83.9325,
      "duration": 0.0667,
      "velocity": 95,
      "chip": "ym2612"
    },
    {
      "channel": 0,
      "note": 41,
      "start": 84.0659,
      "duration": 0.387,
      "velocity": 97,
      "chip": "ym2612"
    },
    {
      "channel": 2,
      "note": 104,
      "start": 84.0682,
      "duration": 0.0658,
      "velocity": 95,
      "chip": "ym2612"
    },
    {
      "channel": 2,
      "note": 101,
      "start": 84.1853,
      "duration": 0.0667,
      "velocity": 95,
      "chip": "ym2612"
    },
    {
      "channel": 1,
      "note": 105,
      "start": 84.3193,
      "duration": 0.2531,
      "velocity": 80,
      "chip": "ym2612"
    },
    {
      "channel": 2,
      "note": 97,
      "start": 84.3202,
      "duration": 0.0665,
      "velocity": 95,
      "chip": "ym2612"
    },
    {
      "channel": 3,
      "note": 92,
      "start": 84.3213,
      "duration": 0.1999,
      "velocity": 94,
      "chip": "ym2612"
    },
    {
      "channel": 4,
      "note": 77,
      "start": 84.3229,
      "duration": 0.1987,
      "velocity": 94,
      "chip": "ym2612"
    },
    {
      "channel": 5,
      "note": 92,
      "start": 84.3547,
      "duration": 0.2012,
      "velocity": 94,
      "chip": "ym2612"
    },
    {
      "channel": 2,
      "note": 92,
      "start": 84.438,
      "duration": 0.0667,
      "velocity": 95,
      "chip": "ym2612"
    },
    {
      "channel": 0,
      "note": 44,
      "start": 84.5715,
      "duration": 0.387,
      "velocity": 97,
      "chip": "ym2612"
    },
    {
      "channel": 1,
      "note": 105,
      "start": 84.5732,
      "duration": 0.2507,
      "velocity": 80,
      "chip": "ym2612"
    },
    {
      "channel": 2,
      "note": 104,
      "start": 84.5743,
      "duration": 0.0656,
      "velocity": 95,
      "chip": "ym2612"
    },
    {
      "channel": 3,
      "note": 90,
      "start": 84.5754,
      "duration": 0.1987,
      "velocity": 94,
      "chip": "ym2612"
    },
    {
      "channel": 4,
      "note": 73,
      "start": 84.5766,
      "duration": 0.1979,
      "velocity": 94,
      "chip": "ym2612"
    },
    {
      "channel": 5,
      "note": 90,
      "start": 84.6079,
      "duration": 0.2004,
      "velocity": 94,
      "chip": "ym2612"
    },
    {
      "channel": 2,
      "note": 101,
      "start": 84.691,
      "duration": 0.0666,
      "velocity": 95,
      "chip": "ym2612"
    },
    {
      "channel": 1,
      "note": 105,
      "start": 84.825,
      "duration": 0.5046,
      "velocity": 80,
      "chip": "ym2612"
    },
    {
      "channel": 2,
      "note": 97,
      "start": 84.8259,
      "duration": 0.0665,
      "velocity": 95,
      "chip": "ym2612"
    },
    {
      "channel": 3,
      "note": 89,
      "start": 84.827,
      "duration": 0.1998,
      "velocity": 94,
      "chip": "ym2612"
    },
    {
      "channel": 4,
      "note": 68,
      "start": 84.8281,
      "duration": 0.1991,
      "velocity": 94,
      "chip": "ym2612"
    },
    {
      "channel": 5,
      "note": 89,
      "start": 84.8603,
      "duration": 0.2008,
      "velocity": 94,
      "chip": "ym2612"
    },
    {
      "channel": 2,
      "note": 92,
      "start": 84.9437,
      "duration": 0.0667,
      "velocity": 95,
      "chip": "ym2612"
    },
    {
      "channel": 0,
      "note": 51,
      "start": 85.0771,
      "duration": 0.387,
      "velocity": 97,
      "chip": "ym2612"
    },
    {
      "channel": 2,
      "note": 106,
      "start": 85.0793,
      "duration": 0.0659,
      "velocity": 95,
      "chip": "ym2612"
    },
    {
      "channel": 3,
      "note": 90,
      "start": 85.0804,
      "duration": 0.3847,
      "velocity": 94,
      "chip": "ym2612"
    },
    {
      "channel": 4,
      "note": 70,
      "start": 85.0816,
      "duration": 0.3839,
      "velocity": 94,
      "chip": "ym2612"
    },
    {
      "channel": 5,
      "note": 90,
      "start": 85.1131,
      "duration": 0.4039,
      "velocity": 94,
      "chip": "ym2612"
    },
    {
      "channel": 2,
      "note": 102,
      "start": 85.1965,
      "duration": 0.0667,
      "velocity": 95,
      "chip": "ym2612"
    },
    {
      "channel": 1,
      "note": 105,
      "start": 85.3306,
      "duration": 0.5046,
      "velocity": 80,
      "chip": "ym2612"
    },
    {
      "channel": 2,
      "note": 99,
      "start": 85.3315,
      "duration": 0.0665,
      "velocity": 95,
      "chip": "ym2612"
    },
    {
      "channel": 2,
      "note": 94,
      "start": 85.4493,
      "duration": 0.0667,
      "velocity": 95,
      "chip": "ym2612"
    },
    {
      "channel": 0,
      "note": 42,
      "start": 85.5827,
      "duration": 0.4038,
      "velocity": 97,
      "chip": "ym2612"
    },
    {
      "channel": 2,
      "note": 106,
      "start": 85.585,
      "duration": 0.0658,
      "velocity": 95,
      "chip": "ym2612"
    },
    {
      "channel": 3,
      "note": 90,
      "start": 85.5861,
      "duration": 0.4022,
      "velocity": 94,
      "chip": "ym2612"
    },
    {
      "channel": 4,
      "note": 70,
      "start": 85.5872,
      "duration": 0.4018,
      "velocity": 94,
      "chip": "ym2612"
    },
    {
      "channel": 5,
      "note": 90,
      "start": 85.6187,
      "duration": 0.4042,
      "velocity": 94,
      "chip": "ym2612"
    },
    {
      "channel": 2,
      "note": 102,
      "start": 85.7021,
      "duration": 0.0667,
      "velocity": 95,
      "chip": "ym2612"
    },
    {
      "channel": 1,
      "note": 105,
      "start": 85.8361,
      "duration": 0.5046,
      "velocity": 80,
      "chip": "ym2612"
    },
    {
      "channel": 2,
      "note": 99,
      "start": 85.8371,
      "duration": 0.0666,
      "velocity": 95,
      "chip": "ym2612"
    },
    {
      "channel": 2,
      "note": 94,
      "start": 85.9549,
      "duration": 0.0667,
      "velocity": 95,
      "chip": "ym2612"
    },
    {
      "channel": 0,
      "note": 51,
      "start": 86.0883,
      "duration": 0.4038,
      "velocity": 97,
      "chip": "ym2612"
    },
    {
      "channel": 2,
      "note": 106,
      "start": 86.0909,
      "duration": 0.0658,
      "velocity": 95,
      "chip": "ym2612"
    },
    {
      "channel": 3,
      "note": 89,
      "start": 86.092,
      "duration": 0.4019,
      "velocity": 94,
      "chip": "ym2612"
    },
    {
      "channel": 4,
      "note": 68,
      "start": 86.0932,
      "duration": 0.4011,
      "velocity": 94,
      "chip": "ym2612"
    },
    {
      "channel": 5,
      "note": 89,
      "start": 86.1247,
      "duration": 0.4034,
      "velocity": 94,
      "chip": "ym2612"
    },
    {
      "channel": 2,
      "note": 102,
      "start": 86.2078,
      "duration": 0.0666,
      "velocity": 95,
      "chip": "ym2612"
    },
    {
      "channel": 1,
      "note": 105,
      "start": 86.3417,
      "duration": 0.2527,
      "velocity": 80,
      "chip": "ym2612"
    },
    {
      "channel": 2,
      "note": 99,
      "start": 86.3426,
      "duration": 0.0666,
      "velocity": 95,
      "chip": "ym2612"
    },
    {
      "channel": 2,
      "note": 94,
      "start": 86.4773,
      "duration": 0.066,
      "velocity": 95,
      "chip": "ym2612"
    },
    {
      "channel": 0,
      "note": 42,
      "start": 86.5939,
      "duration": 0.4039,
      "velocity": 97,
      "chip": "ym2612"
    },
    {
      "channel": 1,
      "note": 105,
      "start": 86.5953,
      "duration": 0.2511,
      "velocity": 80,
      "chip": "ym2612"
    },
    {
      "channel": 2,
      "note": 106,
      "start": 86.5964,
      "duration": 0.0656,
      "velocity": 95,
      "chip": "ym2612"
    },
    {
      "channel": 3,
      "note": 87,
      "start": 86.5975,
      "duration": 0.402,
      "velocity": 94,
      "chip": "ym2612"
    },
    {
      "channel": 4,
      "note": 66,
      "start": 86.5986,
      "duration": 0.4013,
      "velocity": 94,
      "chip": "ym2612"
    },
    {
      "channel": 5,
      "note": 87,
      "start": 86.6461,
      "duration": 0.3877,
      "velocity": 94,
      "chip": "ym2612"
    },
    {
      "channel": 2,
      "note": 102,
      "start": 86.7301,
      "duration": 0.066,
      "velocity": 95,
      "chip": "ym2612"
    },
    {
      "channel": 1,
      "note": 105,
      "start": 86.8474,
      "duration": 0.5046,
      "velocity": 80,
      "chip": "ym2612"
    },
    {
      "channel": 2,
      "note": 99,
      "start": 86.8483,
      "duration": 0.0666,
      "velocity": 95,
      "chip": "ym2612"
    },
    {
      "channel": 2,
      "note": 94,
      "start": 86.983,
      "duration": 0.066,
      "velocity": 95,
      "chip": "ym2612"
    },
    {
      "channel": 0,
      "note": 44,
      "start": 87.0995,
      "duration": 0.4039,
      "velocity": 97,
      "chip": "ym2612"
    },
    {
      "channel": 2,
      "note": 109,
      "start": 87.1017,
      "duration": 0.0659,
      "velocity": 95,
      "chip": "ym2612"
    },
    {
      "channel": 3,
      "note": 85,
      "start": 87.1029,
      "duration": 0.4024,
      "velocity": 94,
      "chip": "ym2612"
    },
    {
      "channel": 4,
      "note": 68,
      "start": 87.104,
      "duration": 0.5863,
      "velocity": 94,
      "chip": "ym2612"
    },
    {
      "channel": 5,
      "note": 85,
      "start": 87.1517,
      "duration": 0.388,
      "velocity": 94,
      "chip": "ym2612"
    },
    {
      "channel": 2,
      "note": 108,
      "start": 87.2357,
      "duration": 0.066,
      "velocity": 95,
      "chip": "ym2612"
    },
    {
      "channel": 1,
      "note": 105,
      "start": 87.353,
      "duration": 0.5046,
      "velocity": 80,
      "chip": "ym2612"
    },
    {
      "channel": 2,
      "note": 106,
      "start": 87.354,
      "duration": 0.0665,
      "velocity": 95,
      "chip": "ym2612"
    },
    {
      "channel": 2,
      "note": 104,
      "start": 87.4889,
      "duration": 0.0656,
      "velocity": 95,
      "chip": "ym2612"
    },
    {
      "channel": 0,
      "note": 51,
      "start": 87.6055,
      "duration": 0.4035,
      "velocity": 97,
      "chip": "ym2612"
    },
    {
      "channel": 2,
      "note": 102,
      "start": 87.6077,
      "duration": 0.066,
      "velocity": 95,
      "chip": "ym2612"
    },
    {
      "channel": 2,
      "note": 101,
      "start": 87.7413,
      "duration": 0.0661,
      "velocity": 95,
      "chip": "ym2612"
    },
    {
      "channel": 1,
      "note": 105,
      "start": 87.8585,
      "duration": 0.5055,
      "velocity": 80,
      "chip": "ym2612"
    },
    {
      "channel": 2,
      "note": 99,
      "start": 87.8594,
      "duration": 0.0666,
      "velocity": 95,
      "chip": "ym2612"
    },
    {
      "channel": 3,
      "note": 84,
      "start": 87.8606,
      "duration": 1.2115,
      "velocity": 94,
      "chip": "ym2612"
    },
    {
      "channel": 4,
      "note": 63,
      "start": 87.8617,
      "duration": 1.2109,
      "velocity": 94,
      "chip": "ym2612"
    },
    {
      "channel": 5,
      "note": 84,
      "start": 87.9101,
      "duration": 1.2199,
      "velocity": 94,
      "chip": "ym2612"
    },
    {
      "channel": 2,
      "note": 97,
      "start": 87.9941,
      "duration": 0.066,
      "velocity": 95,
      "chip": "ym2612"
    },
    {
      "channel": 0,
      "note": 44,
      "start": 88.1108,
      "duration": 0.2016,
      "velocity": 97,
      "chip": "ym2612"
    },
    {
      "channel": 2,
      "note": 96,
      "start": 88.1129,
      "duration": 0.0659,
      "velocity": 95,
      "chip": "ym2612"
    },
    {
      "channel": 2,
      "note": 94,
      "start": 88.2469,
      "duration": 0.0661,
      "velocity": 95,
      "chip": "ym2612"
    },
    {
      "channel": 0,
      "note": 44,
      "start": 88.3636,
      "duration": 0.2016,
      "velocity": 97,
      "chip": "ym2612"
    },
    {
      "channel": 1,
      "note": 105,
      "start": 88.3649,
      "duration": 0.2519,
      "velocity": 80,
      "chip": "ym2612"
    },
    {
      "channel": 2,
      "note": 92,
      "start": 88.3659,
      "duration": 0.0658,
      "velocity": 95,
      "chip": "ym2612"
    },
    {
      "channel": 2,
      "note": 90,
      "start": 88.4997,
      "duration": 0.0661,
      "velocity": 95,
      "chip": "ym2612"
    },
    {
      "channel": 0,
      "note": 46,
      "start": 88.6164,
      "duration": 0.2016,
      "velocity": 97,
      "chip": "ym2612"
    },
    {
      "channel": 1,
      "note": 105,
      "start": 88.6177,
      "duration": 0.2519,
      "velocity": 80,
      "chip": "ym2612"
    },
    {
      "channel": 2,
      "note": 89,
      "start": 88.6187,
      "duration": 0.0658,
      "velocity": 95,
      "chip": "ym2612"
    },
    {
      "channel": 2,
      "note": 87,
      "start": 88.7525,
      "duration": 0.0661,
      "velocity": 95,
      "chip": "ym2612"
    },
    {
      "channel": 0,
      "note": 48,
      "start": 88.8692,
      "duration": 0.2016,
      "velocity": 97,
      "chip": "ym2612"
    },
    {
      "channel": 1,
      "note": 105,
      "start": 88.8706,
      "duration": 0.5039,
      "velocity": 80,
      "chip": "ym2612"
    },
    {
      "channel": 2,
      "note": 85,
      "start": 88.8715,
      "duration": 0.0657,
      "velocity": 95,
      "chip": "ym2612"
    },
    {
      "channel": 2,
      "note": 84,
      "start": 89.0057,
      "duration": 0.0658,
      "velocity": 95,
      "chip": "ym2612"
    },
    {
      "channel": 0,
      "note": 54,
      "start": 89.1224,
      "duration": 0.4034,
      "velocity": 97,
      "chip": "ym2612"
    },
    {
      "channel": 2,
      "note": 90,
      "start": 89.1247,
      "duration": 0.0657,
      "velocity": 95,
      "chip": "ym2612"
    },
    {
      "channel": 3,
      "note": 82,
      "start": 89.1272,
      "duration": 0.3996,
      "velocity": 100,
      "chip": "ym2612"
    },
    {
      "channel": 4,
      "note": 73,
      "start": 89.1296,
      "duration": 0.3976,
      "velocity": 100,
      "chip": "ym2612"
    },
    {
      "channel": 5,
      "note": 82,
      "start": 89.1759,
      "duration": 0.3852,
      "velocity": 100,
      "chip": "ym2612"
    },
    {
      "channel": 2,
      "note": 85,
      "start": 89.2581,
      "duration": 0.0668,
      "velocity": 95,
      "chip": "ym2612"
    },
    {
      "channel": 1,
      "note": 105,
      "start": 89.3755,
      "duration": 0.5046,
      "velocity": 80,
      "chip": "ym2612"
    },
    {
      "channel": 2,
      "note": 90,
      "start": 89.3763,
      "duration": 0.0665,
      "velocity": 95,
      "chip": "ym2612"
    },
    {
      "channel": 2,
      "note": 94,
      "start": 89.5109,
      "duration": 0.0667,
      "velocity": 95,
      "chip": "ym2612"
    },
    {
      "channel": 0,
      "note": 49,
      "start": 89.6276,
      "duration": 0.4038,
      "velocity": 97,
      "chip": "ym2612"
    },
    {
      "channel": 2,
      "note": 90,
      "start": 89.6297,
      "duration": 0.066,
      "velocity": 95,
      "chip": "ym2612"
    },
    {
      "channel": 3,
      "note": 85,
      "start": 89.6308,
      "duration": 0.0988,
      "velocity": 100,
      "chip": "ym2612"
    },
    {
      "channel": 4,
      "note": 77,
      "start": 89.6319,
      "duration": 0.0982,
      "velocity": 100,
      "chip": "ym2612"
    },
    {
      "channel": 5,
      "note": 85,
      "start": 89.6797,
      "duration": 0.1005,
      "velocity": 100,
      "chip": "ym2612"
    },
    {
      "channel": 2,
      "note": 94,
      "start": 89.7637,
      "duration": 0.0668,
      "velocity": 95,
      "chip": "ym2612"
    },
    {
      "channel": 1,
      "note": 105,
      "start": 89.8809,
      "duration": 0.5047,
      "velocity": 80,
      "chip": "ym2612"
    },
    {
      "channel": 2,
      "note": 97,
      "start": 89.8819,
      "duration": 0.0666,
      "velocity": 95,
      "chip": "ym2612"
    },
    {
      "channel": 3,
      "note": 84,
      "start": 89.883,
      "duration": 0.4022,
      "velocity": 100,
      "chip": "ym2612"
    },
    {
      "channel": 4,
      "note": 75,
      "start": 89.8841,
      "duration": 0.4014,
      "velocity": 100,
      "chip": "ym2612"
    },
    {
      "channel": 5,
      "note": 84,
      "start": 89.9325,
      "duration": 0.387,
      "velocity": 100,
      "chip": "ym2612"
    },
    {
      "channel": 2,
      "note": 94,
      "start": 90.0165,
      "duration": 0.0667,
      "velocity": 95,
      "chip": "ym2612"
    },
    {
      "channel": 0,
      "note": 54,
      "start": 90.1332,
      "duration": 0.4038,
      "velocity": 97,
      "chip": "ym2612"
    },
    {
      "channel": 2,
      "note": 97,
      "start": 90.1353,
      "duration": 0.066,
      "velocity": 95,
      "chip": "ym2612"
    },
    {
      "channel": 2,
      "note": 102,
      "start": 90.2694,
      "duration": 0.0667,
      "velocity": 95,
      "chip": "ym2612"
    },
    {
      "channel": 1,
      "note": 105,
      "start": 90.3865,
      "duration": 0.2531,
      "velocity": 80,
      "chip": "ym2612"
    },
    {
      "channel": 2,
      "note": 97,
      "start": 90.3875,
      "duration": 0.0666,
      "velocity": 95,
      "chip": "ym2612"
    },
    {
      "channel": 3,
      "note": 82,
      "start": 90.3889,
      "duration": 0.2008,
      "velocity": 100,
      "chip": "ym2612"
    },
    {
      "channel": 4,
      "note": 73,
      "start": 90.39,
      "duration": 0.2,
      "velocity": 100,
      "chip": "ym2612"
    },
    {
      "channel": 5,
      "note": 82,
      "start": 90.4381,
      "duration": 0.2061,
      "velocity": 100,
      "chip": "ym2612"
    },
    {
      "channel": 2,
      "note": 102,
      "start": 90.5225,
      "duration": 0.0667,
      "velocity": 95,
      "chip": "ym2612"
    },
    {
      "channel": 0,
      "note": 49,
      "start": 90.6391,
      "duration": 0.4034,
      "velocity": 97,
      "chip": "ym2612"
    },
    {
      "channel": 1,
      "note": 105,
      "start": 90.6405,
      "duration": 0.2508,
      "velocity": 80,
      "chip": "ym2612"
    },
    {
      "channel": 2,
      "note": 106,
      "start": 90.6414,
      "duration": 0.0656,
      "velocity": 95,
      "chip": "ym2612"
    },
    {
      "channel": 3,
      "note": 80,
      "start": 90.6426,
      "duration": 0.1995,
      "velocity": 100,
      "chip": "ym2612"
    },
    {
      "channel": 4,
      "note": 72,
      "start": 90.6437,
      "duration": 0.1988,
      "velocity": 100,
      "chip": "ym2612"
    },
    {
      "channel": 5,
      "note": 80,
      "start": 90.6913,
      "duration": 0.2045,
      "velocity": 100,
      "chip": "ym2612"
    },
    {
      "channel": 2,
      "note": 102,
      "start": 90.775,
      "duration": 0.0667,
      "velocity": 95,
      "chip": "ym2612"
    },
    {
      "channel": 1,
      "note": 105,
      "start": 90.8922,
      "duration": 0.5046,
      "velocity": 80,
      "chip": "ym2612"
    },
    {
      "channel": 2,
      "note": 97,
      "start": 90.8932,
      "duration": 0.0665,
      "velocity": 95,
      "chip": "ym2612"
    },
    {
      "channel": 3,
      "note": 78,
      "start": 90.8942,
      "duration": 0.2006,
      "velocity": 100,
      "chip": "ym2612"
    },
    {
      "channel": 4,
      "note": 70,
      "start": 90.8954,
      "duration": 0.1999,
      "velocity": 100,
      "chip": "ym2612"
    },
    {
      "channel": 5,
      "note": 78,
      "start": 90.9437,
      "duration": 0.2054,
      "velocity": 100,
      "chip": "ym2612"
    },
    {
      "channel": 2,
      "note": 94,
      "start": 91.0278,
      "duration": 0.0667,
      "velocity": 95,
      "chip": "ym2612"
    },
    {
      "channel": 0,
      "note": 53,
      "start": 91.1444,
      "duration": 0.4038,
      "velocity": 97,
      "chip": "ym2612"
    },
    {
      "channel": 2,
      "note": 89,
      "start": 91.1465,
      "duration": 0.066,
      "velocity": 95,
      "chip": "ym2612"
    },
    {
      "channel": 3,
      "note": 80,
      "start": 91.1476,
      "duration": 0.4016,
      "velocity": 100,
      "chip": "ym2612"
    },
    {
      "channel": 4,
      "note": 72,
      "start": 91.1487,
      "duration": 0.4009,
      "velocity": 100,
      "chip": "ym2612"
    },
    {
      "channel": 5,
      "note": 80,
      "start": 91.1965,
      "duration": 0.4046,
      "velocity": 100,
      "chip": "ym2612"
    },
    {
      "channel": 2,
      "note": 85,
      "start": 91.2805,
      "duration": 0.0667,
      "velocity": 95,
      "chip": "ym2612"
    },
    {
      "channel": 1,
      "note": 105,
      "start": 91.3978,
      "duration": 0.5046,
      "velocity": 80,
      "chip": "ym2612"
    },
    {
      "channel": 2,
      "note": 89,
      "start": 91.3988,
      "duration": 0.0665,
      "velocity": 95,
      "chip": "ym2612"
    },
    {
      "channel": 2,
      "note": 92,
      "start": 91.5334,
      "duration": 0.0667,
      "velocity": 95,
      "chip": "ym2612"
    },
    {
      "channel": 0,
      "note": 49,
      "start": 91.65,
      "duration": 0.4038,
      "velocity": 97,
      "chip": "ym2612"
    },
    {
      "channel": 2,
      "note": 89,
      "start": 91.6521,
      "duration": 0.066,
      "velocity": 95,
      "chip": "ym2612"
    },
    {
      "channel": 3,
      "note": 84,
      "start": 91.6532,
      "duration": 0.0989,
      "velocity": 100,
      "chip": "ym2612"
    },
    {
      "channel": 4,
      "note": 75,
      "start": 91.6543,
      "duration": 0.0982,
      "velocity": 100,
      "chip": "ym2612"
    },
    {
      "channel": 5,
      "note": 84,
      "start": 91.7021,
      "duration": 0.1005,
      "velocity": 100,
      "chip": "ym2612"
    },
    {
      "channel": 2,
      "note": 92,
      "start": 91.7861,
      "duration": 0.0667,
      "velocity": 95,
      "chip": "ym2612"
    },
    {
      "channel": 1,
      "note": 105,
      "start": 91.9034,
      "duration": 0.5046,
      "velocity": 80,
      "chip": "ym2612"
    },
    {
      "channel": 2,
      "note": 97,
      "start": 91.9043,
      "duration": 0.0666,
      "velocity": 95,
      "chip": "ym2612"
    },
    {
      "channel": 3,
      "note": 82,
      "start": 91.9057,
      "duration": 0.4019,
      "velocity": 100,
      "chip": "ym2612"
    },
    {
      "channel": 4,
      "note": 73,
      "start": 91.9069,
      "duration": 0.4011,
      "velocity": 100,
      "chip": "ym2612"
    },
    {
      "channel": 5,
      "note": 82,
      "start": 91.9549,
      "duration": 0.4046,
      "velocity": 100,
      "chip": "ym2612"
    },
    {
      "channel": 2,
      "note": 92,
      "start": 92.0393,
      "duration": 0.0667,
      "velocity": 95,
      "chip": "ym2612"
    },
    {
      "channel": 0,
      "note": 53,
      "start": 92.1728,
      "duration": 0.3866,
      "velocity": 97,
      "chip": "ym2612"
    },
    {
      "channel": 2,
      "note": 97,
      "start": 92.1749,
      "duration": 0.0649,
      "velocity": 95,
      "chip": "ym2612"
    },
    {
      "channel": 2,
      "note": 101,
      "start": 92.2917,
      "duration": 0.0667,
      "velocity": 95,
      "chip": "ym2612"
    },
    {
      "channel": 1,
      "note": 105,
      "start": 92.4257,
      "duration": 0.2351,
      "velocity": 80,
      "chip": "ym2612"
    },
    {
      "channel": 2,
      "note": 97,
      "start": 92.4267,
      "duration": 0.066,
      "velocity": 95,
      "chip": "ym2612"
    },
    {
      "channel": 3,
      "note": 80,
      "start": 92.4278,
      "duration": 0.1839,
      "velocity": 100,
      "chip": "ym2612"
    },
    {
      "channel": 4,
      "note": 72,
      "start": 92.4288,
      "duration": 0.1832,
      "velocity": 100,
      "chip": "ym2612"
    },
    {
      "channel": 5,
      "note": 80,
      "start": 92.4605,
      "duration": 0.2016,
      "velocity": 100,
      "chip": "ym2612"
    },
    {
      "channel": 2,
      "note": 101,
      "start": 92.5446,
      "duration": 0.0667,
      "velocity": 95,
      "chip": "ym2612"
    },
    {
      "channel": 0,
      "note": 49,
      "start": 92.678,
      "duration": 0.387,
      "velocity": 97,
      "chip": "ym2612"
    },
    {
      "channel": 1,
      "note": 105,
      "start": 92.6793,
      "duration": 0.2343,
      "velocity": 80,
      "chip": "ym2612"
    },
    {
      "channel": 2,
      "note": 104,
      "start": 92.6803,
      "duration": 0.0651,
      "velocity": 95,
      "chip": "ym2612"
    },
    {
      "channel": 3,
      "note": 78,
      "start": 92.6814,
      "duration": 0.1831,
      "velocity": 100,
      "chip": "ym2612"
    },
    {
      "channel": 4,
      "note": 70,
      "start": 92.6825,
      "duration": 0.1824,
      "velocity": 100,
      "chip": "ym2612"
    },
    {
      "channel": 5,
      "note": 78,
      "start": 92.7133,
      "duration": 0.2017,
      "velocity": 100,
      "chip": "ym2612"
    },
    {
      "channel": 2,
      "note": 101,
      "start": 92.7973,
      "duration": 0.0667,
      "velocity": 95,
      "chip": "ym2612"
    },
    {
      "channel": 1,
      "note": 105,
      "start": 92.9314,
      "duration": 0.4878,
      "velocity": 80,
      "chip": "ym2612"
    },
    {
      "channel": 2,
      "note": 97,
      "start": 92.9323,
      "duration": 0.0659,
      "velocity": 95,
      "chip": "ym2612"
    },
    {
      "channel": 3,
      "note": 77,
      "start": 92.9334,
      "duration": 0.1999,
      "velocity": 100,
      "chip": "ym2612"
    },
    {
      "channel": 4,
      "note": 68,
      "start": 92.9345,
      "duration": 0.1993,
      "velocity": 100,
      "chip": "ym2612"
    },
    {
      "channel": 5,
      "note": 77,
      "start": 92.9661,
      "duration": 0.2015,
      "velocity": 100,
      "chip": "ym2612"
    },
    {
      "channel": 2,
      "note": 92,
      "start": 93.0502,
      "duration": 0.0667,
      "velocity": 95,
      "chip": "ym2612"
    },
    {
      "channel": 0,
      "note": 51,
      "start": 93.1836,
      "duration": 0.387,
      "velocity": 97,
      "chip": "ym2612"
    },
    {
      "channel": 2,
      "note": 87,
      "start": 93.1858,
      "duration": 0.0653,
      "velocity": 95,
      "chip": "ym2612"
    },
    {
      "channel": 3,
      "note": 78,
      "start": 93.1868,
      "duration": 0.3848,
      "velocity": 100,
      "chip": "ym2612"
    },
    {
      "channel": 4,
      "note": 70,
      "start": 93.188,
      "duration": 0.3844,
      "velocity": 100,
      "chip": "ym2612"
    },
    {
      "channel": 5,
      "note": 78,
      "start": 93.2189,
      "duration": 0.4049,
      "velocity": 100,
      "chip": "ym2612"
    },
    {
      "channel": 2,
      "note": 84,
      "start": 93.3029,
      "duration": 0.0667,
      "velocity": 95,
      "chip": "ym2612"
    },
    {
      "channel": 1,
      "note": 105,
      "start": 93.4371,
      "duration": 0.4878,
      "velocity": 80,
      "chip": "ym2612"
    },
    {
      "channel": 2,
      "note": 87,
      "start": 93.4379,
      "duration": 0.0659,
      "velocity": 95,
      "chip": "ym2612"
    },
    {
      "channel": 2,
      "note": 92,
      "start": 93.5561,
      "duration": 0.0667,
      "velocity": 95,
      "chip": "ym2612"
    },
    {
      "channel": 0,
      "note": 48,
      "start": 93.6896,
      "duration": 0.3866,
      "velocity": 97,
      "chip": "ym2612"
    },
    {
      "channel": 2,
      "note": 87,
      "start": 93.6917,
      "duration": 0.0649,
      "velocity": 95,
      "chip": "ym2612"
    },
    {
      "channel": 3,
      "note": 82,
      "start": 93.6928,
      "duration": 0.0978,
      "velocity": 100,
      "chip": "ym2612"
    },
    {
      "channel": 4,
      "note": 73,
      "start": 93.6939,
      "duration": 0.0971,
      "velocity": 100,
      "chip": "ym2612"
    },
    {
      "channel": 5,
      "note": 82,
      "start": 93.7254,
      "duration": 0.0996,
      "velocity": 100,
      "chip": "ym2612"
    },
    {
      "channel": 2,
      "note": 92,
      "start": 93.8085,
      "duration": 0.0668,
      "velocity": 95,
      "chip": "ym2612"
    },
    {
      "channel": 1,
      "note": 105,
      "start": 93.9426,
      "duration": 0.4879,
      "velocity": 80,
      "chip": "ym2612"
    },
    {
      "channel": 2,
      "note": 96,
      "start": 93.9435,
      "duration": 0.066,
      "velocity": 95,
      "chip": "ym2612"
    },
    {
      "channel": 3,
      "note": 80,
      "start": 93.9446,
      "duration": 0.3854,
      "velocity": 100,
      "chip": "ym2612"
    },
    {
      "channel": 4,
      "note": 72,
      "start": 93.9457,
      "duration": 0.3847,
      "velocity": 100,
      "chip": "ym2612"
    },
    {
      "channel": 5,
      "note": 80,
      "start": 93.9781,
      "duration": 0.4039,
      "velocity": 100,
      "chip": "ym2612"
    },
    {
      "channel": 2,
      "note": 92,
      "start": 94.0613,
      "duration": 0.0667,
      "velocity": 95,
      "chip": "ym2612"
    },
    {
      "channel": 0,
      "note": 51,
      "start": 94.1949,
      "duration": 0.387,
      "velocity": 97,
      "chip": "ym2612"
    },
    {
      "channel": 2,
      "note": 96,
      "start": 94.197,
      "duration": 0.0653,
      "velocity": 95,
      "chip": "ym2612"
    },
    {
      "channel": 2,
      "note": 99,
      "start": 94.3141,
      "duration": 0.0668,
      "velocity": 95,
      "chip": "ym2612"
    },
    {
      "channel": 1,
      "note": 105,
      "start": 94.4482,
      "duration": 0.235,
      "velocity": 80,
      "chip": "ym2612"
    },
    {
      "channel": 2,
      "note": 96,
      "start": 94.4491,
      "duration": 0.066,
      "velocity": 95,
      "chip": "ym2612"
    },
    {
      "channel": 3,
      "note": 78,
      "start": 94.4501,
      "duration": 0.2,
      "velocity": 100,
      "chip": "ym2612"
    },
    {
      "channel": 4,
      "note": 70,
      "start": 94.4513,
      "duration": 0.1992,
      "velocity": 100,
      "chip": "ym2612"
    },
    {
      "channel": 5,
      "note": 78,
      "start": 94.4837,
      "duration": 0.2009,
      "velocity": 100,
      "chip": "ym2612"
    },
    {
      "channel": 2,
      "note": 99,
      "start": 94.5669,
      "duration": 0.0667,
      "velocity": 95,
      "chip": "ym2612"
    },
    {
      "channel": 0,
      "note": 48,
      "start": 94.7005,
      "duration": 0.3869,
      "velocity": 97,
      "chip": "ym2612"
    },
    {
      "channel": 1,
      "note": 105,
      "start": 94.7017,
      "duration": 0.2344,
      "velocity": 80,
      "chip": "ym2612"
    },
    {
      "channel": 2,
      "note": 104,
      "start": 94.7027,
      "duration": 0.0651,
      "velocity": 95,
      "chip": "ym2612"
    },
    {
      "channel": 3,
      "note": 77,
      "start": 94.7038,
      "duration": 0.1992,
      "velocity": 100,
      "chip": "ym2612"
    },
    {
      "channel": 4,
      "note": 68,
      "start": 94.7049,
      "duration": 0.1985,
      "velocity": 100,
      "chip": "ym2612"
    },
    {
      "channel": 5,
      "note": 77,
      "start": 94.7365,
      "duration": 0.2009,
      "velocity": 100,
      "chip": "ym2612"
    },
    {
      "channel": 2,
      "note": 99,
      "start": 94.8198,
      "duration": 0.0668,
      "velocity": 95,
      "chip": "ym2612"
    },
    {
      "channel": 1,
      "note": 105,
      "start": 94.9538,
      "duration": 0.5047,
      "velocity": 80,
      "chip": "ym2612"
    },
    {
      "channel": 2,
      "note": 96,
      "start": 94.9548,
      "duration": 0.0666,
      "velocity": 95,
      "chip": "ym2612"
    },
    {
      "channel": 3,
      "note": 75,
      "start": 94.9563,
      "duration": 0.1999,
      "velocity": 100,
      "chip": "ym2612"
    },
    {
      "channel": 4,
      "note": 66,
      "start": 94.9573,
      "duration": 0.1992,
      "velocity": 100,
      "chip": "ym2612"
    },
    {
      "channel": 5,
      "note": 75,
      "start": 94.9897,
      "duration": 0.2007,
      "velocity": 100,
      "chip": "ym2612"
    },
    {
      "channel": 2,
      "note": 92,
      "start": 95.0729,
      "duration": 0.0667,
      "velocity": 95,
      "chip": "ym2612"
    },
    {
      "channel": 0,
      "note": 53,
      "start": 95.2064,
      "duration": 0.3866,
      "velocity": 97,
      "chip": "ym2612"
    },
    {
      "channel": 2,
      "note": 89,
      "start": 95.2085,
      "duration": 0.0656,
      "velocity": 95,
      "chip": "ym2612"
    },
    {
      "channel": 3,
      "note": 77,
      "start": 95.2096,
      "duration": 0.0978,
      "velocity": 100,
      "chip": "ym2612"
    },
    {
      "channel": 4,
      "note": 68,
      "start": 95.2107,
      "duration": 0.0971,
      "velocity": 100,
      "chip": "ym2612"
    },
    {
      "channel": 5,
      "note": 77,
      "start": 95.2421,
      "duration": 0.0998,
      "velocity": 100,
      "chip": "ym2612"
    },
    {
      "channel": 2,
      "note": 85,
      "start": 95.3253,
      "duration": 0.0668,
      "velocity": 95,
      "chip": "ym2612"
    },
    {
      "channel": 1,
      "note": 105,
      "start": 95.4596,
      "duration": 0.5046,
      "velocity": 80,
      "chip": "ym2612"
    },
    {
      "channel": 2,
      "note": 89,
      "start": 95.4605,
      "duration": 0.0665,
      "velocity": 95,
      "chip": "ym2612"
    },
    {
      "channel": 3,
      "note": 77,
      "start": 95.4615,
      "duration": 0.1998,
      "velocity": 100,
      "chip": "ym2612"
    },
    {
      "channel": 4,
      "note": 68,
      "start": 95.4627,
      "duration": 0.199,
      "velocity": 100,
      "chip": "ym2612"
    },
    {
      "channel": 5,
      "note": 77,
      "start": 95.4949,
      "duration": 0.2007,
      "velocity": 100,
      "chip": "ym2612"
    },
    {
      "channel": 2,
      "note": 92,
      "start": 95.5781,
      "duration": 0.0667,
      "velocity": 95,
      "chip": "ym2612"
    },
    {
      "channel": 0,
      "note": 49,
      "start": 95.7117,
      "duration": 0.387,
      "velocity": 97,
      "chip": "ym2612"
    },
    {
      "channel": 2,
      "note": 89,
      "start": 95.7138,
      "duration": 0.066,
      "velocity": 95,
      "chip": "ym2612"
    },
    {
      "channel": 3,
      "note": 73,
      "start": 95.7149,
      "duration": 0.1993,
      "velocity": 100,
      "chip": "ym2612"
    },
    {
      "channel": 4,
      "note": 65,
      "start": 95.716,
      "duration": 0.1986,
      "velocity": 100,
      "chip": "ym2612"
    },
    {
      "channel": 5,
      "note": 73,
      "start": 95.7477,
      "duration": 0.2008,
      "velocity": 100,
      "chip": "ym2612"
    },
    {
      "channel": 2,
      "note": 92,
      "start": 95.831,
      "duration": 0.0667,
      "velocity": 95,
      "chip": "ym2612"
    },
    {
      "channel": 1,
      "note": 105,
      "start": 95.965,
      "duration": 0.5055,
      "velocity": 80,
      "chip": "ym2612"
    },
    {
      "channel": 2,
      "note": 97,
      "start": 95.966,
      "duration": 0.0665,
      "velocity": 95,
      "chip": "ym2612"
    },
    {
      "channel": 3,
      "note": 80,
      "start": 95.9671,
      "duration": 0.0988,
      "velocity": 100,
      "chip": "ym2612"
    },
    {
      "channel": 4,
      "note": 73,
      "start": 95.9681,
      "duration": 0.0981,
      "velocity": 100,
      "chip": "ym2612"
    },
    {
      "channel": 5,
      "note": 80,
      "start": 96.0005,
      "duration": 0.0998,
      "velocity": 100,
      "chip": "ym2612"
    },
    {
      "channel": 2,
      "note": 92,
      "start": 96.0838,
      "duration": 0.0667,
      "velocity": 95,
      "chip": "ym2612"
    },
    {
      "channel": 0,
      "note": 49,
      "start": 96.2173,
      "duration": 0.2015,
      "velocity": 97,
      "chip": "ym2612"
    },
    {
      "channel": 2,
      "note": 97,
      "start": 96.2194,
      "duration": 0.0659,
      "velocity": 95,
      "chip": "ym2612"
    },
    {
      "channel": 3,
      "note": 80,
      "start": 96.2206,
      "duration": 0.1993,
      "velocity": 100,
      "chip": "ym2612"
    },
    {
      "channel": 4,
      "note": 73,
      "start": 96.2217,
      "duration": 0.1986,
      "velocity": 100,
      "chip": "ym2612"
    },
    {
      "channel": 5,
      "note": 80,
      "start": 96.2533,
      "duration": 0.2008,
      "velocity": 100,
      "chip": "ym2612"
    },
    {
      "channel": 2,
      "note": 101,
      "start": 96.3366,
      "duration": 0.0667,
      "velocity": 95,
      "chip": "ym2612"
    },
    {
      "channel": 0,
      "note": 49,
      "start": 96.4701,
      "duration": 0.2016,
      "velocity": 97,
      "chip": "ym2612"
    },
    {
      "channel": 1,
      "note": 105,
      "start": 96.4714,
      "duration": 0.2522,
      "velocity": 80,
      "chip": "ym2612"
    },
    {
      "channel": 2,
      "note": 97,
      "start": 96.4727,
      "duration": 0.0654,
      "velocity": 95,
      "chip": "ym2612"
    },
    {
      "channel": 3,
      "note": 77,
      "start": 96.4737,
      "duration": 0.1993,
      "velocity": 100,
      "chip": "ym2612"
    },
    {
      "channel": 4,
      "note": 68,
      "start": 96.4749,
      "duration": 0.1985,
      "velocity": 100,
      "chip": "ym2612"
    },
    {
      "channel": 5,
      "note": 77,
      "start": 96.5064,
      "duration": 0.2008,
      "velocity": 100,
      "chip": "ym2612"
    },
    {
      "channel": 2,
      "note": 101,
      "start": 96.5897,
      "duration": 0.0667,
      "velocity": 95,
      "chip": "ym2612"
    },
    {
      "channel": 0,
      "note": 51,
      "start": 96.723,
      "duration": 0.2014,
      "velocity": 97,
      "chip": "ym2612"
    },
    {
      "channel": 1,
      "note": 105,
      "start": 96.7244,
      "duration": 0.2517,
      "velocity": 80,
      "chip": "ym2612"
    },
    {
      "channel": 2,
      "note": 104,
      "start": 96.7254,
      "duration": 0.0655,
      "velocity": 95,
      "chip": "ym2612"
    },
    {
      "channel": 3,
      "note": 85,
      "start": 96.7265,
      "duration": 0.199,
      "velocity": 100,
      "chip": "ym2612"
    },
    {
      "channel": 4,
      "note": 77,
      "start": 96.7276,
      "duration": 0.1982,
      "velocity": 100,
      "chip": "ym2612"
    },
    {
      "channel": 5,
      "note": 85,
      "start": 96.7589,
      "duration": 0.2008,
      "velocity": 100,
      "chip": "ym2612"
    },
    {
      "channel": 2,
      "note": 101,
      "start": 96.8422,
      "duration": 0.0667,
      "velocity": 95,
      "chip": "ym2612"
    },
    {
      "channel": 0,
      "note": 53,
      "start": 96.9756,
      "duration": 0.2016,
      "velocity": 97,
      "chip": "ym2612"
    },
    {
      "channel": 1,
      "note": 105,
      "start": 96.9771,
      "duration": 0.5039,
      "velocity": 80,
      "chip": "ym2612"
    },
    {
      "channel": 2,
      "note": 104,
      "start": 96.978,
      "duration": 0.0658,
      "velocity": 95,
      "chip": "ym2612"
    },
    {
      "channel": 3,
      "note": 80,
      "start": 96.9791,
      "duration": 0.1992,
      "velocity": 100,
      "chip": "ym2612"
    },
    {
      "channel": 4,
      "note": 73,
      "start": 96.9802,
      "duration": 0.1985,
      "velocity": 100,
      "chip": "ym2612"
    },
    {
      "channel": 5,
      "note": 80,
      "start": 97.0117,
      "duration": 0.2008,
      "velocity": 100,
      "chip": "ym2612"
    },
    {
      "channel": 2,
      "note": 109,
      "start": 97.095,
      "duration": 0.0667,
      "velocity": 95,
      "chip": "ym2612"
    },
    {
      "channel": 0,
      "note": 54,
      "start": 97.2286,
      "duration": 0.4038,
      "velocity": 97,
      "chip": "ym2612"
    },
    {
      "channel": 2,
      "note": 90,
      "start": 97.2309,
      "duration": 0.0657,
      "velocity": 95,
      "chip": "ym2612"
    },
    {
      "channel": 3,
      "note": 78,
      "start": 97.232,
      "duration": 0.402,
      "velocity": 100,
      "chip": "ym2612"
    },
    {
      "channel": 4,
      "note": 70,
      "start": 97.2331,
      "duration": 0.4013,
      "velocity": 100,
      "chip": "ym2612"
    },
    {
      "channel": 5,
      "note": 78,
      "start": 97.2645,
      "duration": 0.4039,
      "velocity": 100,
      "chip": "ym2612"
    },
    {
      "channel": 2,
      "note": 85,
      "start": 97.3478,
      "duration": 0.0667,
      "velocity": 95,
      "chip": "ym2612"
    },
    {
      "channel": 1,
      "note": 105,
      "start": 97.482,
      "duration": 0.5046,
      "velocity": 80,
      "chip": "ym2612"
    },
    {
      "channel": 2,
      "note": 90,
      "start": 97.4829,
      "duration": 0.0665,
      "velocity": 95,
      "chip": "ym2612"
    },
    {
      "channel": 2,
      "note": 94,
      "start": 97.6006,
      "duration": 0.0667,
      "velocity": 95,
      "chip": "ym2612"
    },
    {
      "channel": 0,
      "note": 49,
      "start": 97.7341,
      "duration": 0.4038,
      "velocity": 97,
      "chip": "ym2612"
    },
    {
      "channel": 2,
      "note": 90,
      "start": 97.7362,
      "duration": 0.066,
      "velocity": 95,
      "chip": "ym2612"
    },
    {
      "channel": 3,
      "note": 73,
      "start": 97.7373,
      "duration": 0.0989,
      "velocity": 100,
      "chip": "ym2612"
    },
    {
      "channel": 4,
      "note": 66,
      "start": 97.7384,
      "duration": 0.0982,
      "velocity": 100,
      "chip": "ym2612"
    },
    {
      "channel": 5,
      "note": 73,
      "start": 97.7701,
      "duration": 0.1013,
      "velocity": 100,
      "chip": "ym2612"
    },
    {
      "channel": 2,
      "note": 94,
      "start": 97.8702,
      "duration": 0.066,
      "velocity": 95,
      "chip": "ym2612"
    },
    {
      "channel": 1,
      "note": 105,
      "start": 97.9875,
      "duration": 0.5046,
      "velocity": 80,
      "chip": "ym2612"
    },
    {
      "channel": 2,
      "note": 97,
      "start": 97.9884,
      "duration": 0.0666,
      "velocity": 95,
      "chip": "ym2612"
    },
    {
      "channel": 3,
      "note": 78,
      "start": 97.9898,
      "duration": 0.4025,
      "velocity": 100,
      "chip": "ym2612"
    },
    {
      "channel": 4,
      "note": 70,
      "start": 97.9909,
      "duration": 0.4018,
      "velocity": 100,
      "chip": "ym2612"
    },
    {
      "channel": 5,
      "note": 78,
      "start": 98.0394,
      "duration": 0.3873,
      "velocity": 100,
      "chip": "ym2612"
    },
    {
      "channel": 2,
      "note": 94,
      "start": 98.1234,
      "duration": 0.0661,
      "velocity": 95,
      "chip": "ym2612"
    },
    {
      "channel": 0,
      "note": 54,
      "start": 98.2398,
      "duration": 0.4038,
      "velocity": 97,
      "chip": "ym2612"
    },
    {
      "channel": 2,
      "note": 97,
      "start": 98.2419,
      "duration": 0.0659,
      "velocity": 95,
      "chip": "ym2612"
    },
    {
      "channel": 2,
      "note": 102,
      "start": 98.3759,
      "duration": 0.066,
      "velocity": 95,
      "chip": "ym2612"
    },
    {
      "channel": 1,
      "note": 105,
      "start": 98.4931,
      "duration": 0.2527,
      "velocity": 80,
      "chip": "ym2612"
    },
    {
      "channel": 2,
      "note": 97,
      "start": 98.494,
      "duration": 0.0666,
      "velocity": 95,
      "chip": "ym2612"
    },
    {
      "channel": 3,
      "note": 82,
      "start": 98.4951,
      "duration": 0.2,
      "velocity": 100,
      "chip": "ym2612"
    },
    {
      "channel": 4,
      "note": 73,
      "start": 98.4962,
      "duration": 0.1992,
      "velocity": 100,
      "chip": "ym2612"
    },
    {
      "channel": 5,
      "note": 82,
      "start": 98.5446,
      "duration": 0.2057,
      "velocity": 100,
      "chip": "ym2612"
    },
    {
      "channel": 2,
      "note": 102,
      "start": 98.6286,
      "duration": 0.066,
      "velocity": 95,
      "chip": "ym2612"
    },
    {
      "channel": 0,
      "note": 49,
      "start": 98.7452,
      "duration": 0.4039,
      "velocity": 97,
      "chip": "ym2612"
    },
    {
      "channel": 1,
      "note": 105,
      "start": 98.7466,
      "duration": 0.2512,
      "velocity": 80,
      "chip": "ym2612"
    },
    {
      "channel": 2,
      "note": 106,
      "start": 98.7476,
      "duration": 0.0658,
      "velocity": 95,
      "chip": "ym2612"
    },
    {
      "channel": 3,
      "note": 84,
      "start": 98.7487,
      "duration": 0.1992,
      "velocity": 100,
      "chip": "ym2612"
    },
    {
      "channel": 4,
      "note": 75,
      "start": 98.7498,
      "duration": 0.1984,
      "velocity": 100,
      "chip": "ym2612"
    },
    {
      "channel": 5,
      "note": 84,
      "start": 98.7974,
      "duration": 0.2049,
      "velocity": 100,
      "chip": "ym2612"
    },
    {
      "channel": 2,
      "note": 102,
      "start": 98.8815,
      "duration": 0.066,
      "velocity": 95,
      "chip": "ym2612"
    },
    {
      "channel": 1,
      "note": 105,
      "start": 98.9988,
      "duration": 0.5046,
      "velocity": 80,
      "chip": "ym2612"
    },
    {
      "channel": 2,
      "note": 97,
      "start": 98.9996,
      "duration": 0.0665,
      "velocity": 95,
      "chip": "ym2612"
    },
    {
      "channel": 3,
      "note": 85,
      "start": 99.0008,
      "duration": 0.1999,
      "velocity": 100,
      "chip": "ym2612"
    },
    {
      "channel": 4,
      "note": 77,
      "start": 99.0019,
      "duration": 0.1992,
      "velocity": 100,
      "chip": "ym2612"
    },
    {
      "channel": 5,
      "note": 85,
      "start": 99.0502,
      "duration": 0.2059,
      "velocity": 100,
      "chip": "ym2612"
    },
    {
      "channel": 2,
      "note": 94,
      "start": 99.1343,
      "duration": 0.066,
      "velocity": 95,
      "chip": "ym2612"
    },
    {
      "channel": 0,
      "note": 53,
      "start": 99.2509,
      "duration": 0.4038,
      "velocity": 97,
      "chip": "ym2612"
    },
    {
      "channel": 2,
      "note": 89,
      "start": 99.253,
      "duration": 0.066,
      "velocity": 95,
      "chip": "ym2612"
    },
    {
      "channel": 3,
      "note": 77,
      "start": 99.2541,
      "duration": 0.402,
      "velocity": 100,
      "chip": "ym2612"
    },
    {
      "channel": 4,
      "note": 68,
      "start": 99.2556,
      "duration": 0.4009,
      "velocity": 100,
      "chip": "ym2612"
    },
    {
      "channel": 5,
      "note": 77,
      "start": 99.303,
      "duration": 0.388,
      "velocity": 100,
      "chip": "ym2612"
    },
    {
      "channel": 2,
      "note": 85,
      "start": 99.3871,
      "duration": 0.066,
      "velocity": 95,
      "chip": "ym2612"
    },
    {
      "channel": 1,
      "note": 105,
      "start": 99.5044,
      "duration": 0.5046,
      "velocity": 80,
      "chip": "ym2612"
    },
    {
      "channel": 2,
      "note": 89,
      "start": 99.5056,
      "duration": 0.0663,
      "velocity": 95,
      "chip": "ym2612"
    },
    {
      "channel": 2,
      "note": 92,
      "start": 99.6402,
      "duration": 0.066,
      "velocity": 95,
      "chip": "ym2612"
    },
    {
      "channel": 0,
      "note": 49,
      "start": 99.7565,
      "duration": 0.4038,
      "velocity": 97,
      "chip": "ym2612"
    },
    {
      "channel": 2,
      "note": 89,
      "start": 99.7586,
      "duration": 0.066,
      "velocity": 95,
      "chip": "ym2612"
    },
    {
      "channel": 3,
      "note": 73,
      "start": 99.7598,
      "duration": 0.0989,
      "velocity": 100,
      "chip": "ym2612"
    },
    {
      "channel": 4,
      "note": 65,
      "start": 99.7608,
      "duration": 0.0981,
      "velocity": 100,
      "chip": "ym2612"
    },
    {
      "channel": 5,
      "note": 73,
      "start": 99.8086,
      "duration": 0.1005,
      "velocity": 100,
      "chip": "ym2612"
    },
    {
      "channel": 2,
      "note": 92,
      "start": 99.8926,
      "duration": 0.0661,
      "velocity": 95,
      "chip": "ym2612"
    },
    {
      "channel": 1,
      "note": 105,
      "start": 100.0099,
      "duration": 0.5047,
      "velocity": 80,
      "chip": "ym2612"
    },
    {
      "channel": 2,
      "note": 97,
      "start": 100.0108,
      "duration": 0.0666,
      "velocity": 95,
      "chip": "ym2612"
    },
    {
      "channel": 3,
      "note": 77,
      "start": 100.0119,
      "duration": 0.4022,
      "velocity": 100,
      "chip": "ym2612"
    },
    {
      "channel": 4,
      "note": 68,
      "start": 100.013,
      "duration": 0.4015,
      "velocity": 100,
      "chip": "ym2612"
    },
    {
      "channel": 5,
      "note": 77,
      "start": 100.0614,
      "duration": 0.3877,
      "velocity": 100,
      "chip": "ym2612"
    },
    {
      "channel": 2,
      "note": 92,
      "start": 100.1454,
      "duration": 0.066,
      "velocity": 95,
      "chip": "ym2612"
    },
    {
      "channel": 0,
      "note": 53,
      "start": 100.2621,
      "duration": 0.4038,
      "velocity": 97,
      "chip": "ym2612"
    },
    {
      "channel": 2,
      "note": 97,
      "start": 100.2642,
      "duration": 0.066,
      "velocity": 95,
      "chip": "ym2612"
    },
    {
      "channel": 2,
      "note": 101,
      "start": 100.3982,
      "duration": 0.0661,
      "velocity": 95,
      "chip": "ym2612"
    },
    {
      "channel": 1,
      "note": 105,
      "start": 100.5155,
      "duration": 0.2527,
      "velocity": 80,
      "chip": "ym2612"
    },
    {
      "channel": 2,
      "note": 97,
      "start": 100.5164,
      "duration": 0.0666,
      "velocity": 95,
      "chip": "ym2612"
    },
    {
      "channel": 3,
      "note": 77,
      "start": 100.5175,
      "duration": 0.2007,
      "velocity": 100,
      "chip": "ym2612"
    },
    {
      "channel": 4,
      "note": 68,
      "start": 100.5186,
      "duration": 0.2,
      "velocity": 100,
      "chip": "ym2612"
    },
    {
      "channel": 5,
      "note": 77,
      "start": 100.5671,
      "duration": 0.206,
      "velocity": 100,
      "chip": "ym2612"
    },
    {
      "channel": 2,
      "note": 101,
      "start": 100.651,
      "duration": 0.0667,
      "velocity": 95,
      "chip": "ym2612"
    },
    {
      "channel": 0,
      "note": 49,
      "start": 100.7677,
      "duration": 0.4038,
      "velocity": 97,
      "chip": "ym2612"
    },
    {
      "channel": 1,
      "note": 105,
      "start": 100.769,
      "duration": 0.2511,
      "velocity": 80,
      "chip": "ym2612"
    },
    {
      "channel": 2,
      "note": 104,
      "start": 100.77,
      "duration": 0.0658,
      "velocity": 95,
      "chip": "ym2612"
    },
    {
      "channel": 3,
      "note": 80,
      "start": 100.7711,
      "duration": 0.1999,
      "velocity": 100,
      "chip": "ym2612"
    },
    {
      "channel": 4,
      "note": 73,
      "start": 100.7726,
      "duration": 0.1988,
      "velocity": 100,
      "chip": "ym2612"
    },
    {
      "channel": 5,
      "note": 80,
      "start": 100.8199,
      "duration": 0.2053,
      "velocity": 100,
      "chip": "ym2612"
    },
    {
      "channel": 2,
      "note": 101,
      "start": 100.9038,
      "duration": 0.0668,
      "velocity": 95,
      "chip": "ym2612"
    },
    {
      "channel": 1,
      "note": 105,
      "start": 101.0211,
      "duration": 0.5046,
      "velocity": 80,
      "chip": "ym2612"
    },
    {
      "channel": 2,
      "note": 97,
      "start": 101.0224,
      "duration": 0.0666,
      "velocity": 95,
      "chip": "ym2612"
    },
    {
      "channel": 3,
      "note": 85,
      "start": 101.0236,
      "duration": 0.2005,
      "velocity": 100,
      "chip": "ym2612"
    },
    {
      "channel": 4,
      "note": 77,
      "start": 101.0246,
      "duration": 0.1998,
      "velocity": 100,
      "chip": "ym2612"
    },
    {
      "channel": 5,
      "note": 85,
      "start": 101.073,
      "duration": 0.2051,
      "velocity": 100,
      "chip": "ym2612"
    },
    {
      "channel": 2,
      "note": 92,
      "start": 101.157,
      "duration": 0.0667,
      "velocity": 95,
      "chip": "ym2612"
    },
    {
      "channel": 0,
      "note": 51,
      "start": 101.2733,
      "duration": 0.4038,
      "velocity": 97,
      "chip": "ym2612"
    },
    {
      "channel": 2,
      "note": 87,
      "start": 101.2755,
      "duration": 0.0659,
      "velocity": 95,
      "chip": "ym2612"
    },
    {
      "channel": 3,
      "note": 75,
      "start": 101.2766,
      "duration": 0.2001,
      "velocity": 100,
      "chip": "ym2612"
    },
    {
      "channel": 4,
      "note": 68,
      "start": 101.2776,
      "duration": 0.1994,
      "velocity": 100,
      "chip": "ym2612"
    },
    {
      "channel": 5,
      "note": 75,
      "start": 101.3255,
      "duration": 0.205,
      "velocity": 100,
      "chip": "ym2612"
    },
    {
      "channel": 2,
      "note": 84,
      "start": 101.4094,
      "duration": 0.0668,
      "velocity": 95,
      "chip": "ym2612"
    },
    {
      "channel": 1,
      "note": 105,
      "start": 101.5268,
      "duration": 0.5046,
      "velocity": 80,
      "chip": "ym2612"
    },
    {
      "channel": 2,
      "note": 87,
      "start": 101.5277,
      "duration": 0.0665,
      "velocity": 95,
      "chip": "ym2612"
    },
    {
      "channel": 3,
      "note": 72,
      "start": 101.5288,
      "duration": 0.2006,
      "velocity": 100,
      "chip": "ym2612"
    },
    {
      "channel": 4,
      "note": 63,
      "start": 101.53,
      "duration": 0.1998,
      "velocity": 100,
      "chip": "ym2612"
    },
    {
      "channel": 5,
      "note": 72,
      "start": 101.5783,
      "duration": 0.2054,
      "velocity": 100,
      "chip": "ym2612"
    },
    {
      "channel": 2,
      "note": 92,
      "start": 101.6622,
      "duration": 0.0667,
      "velocity": 95,
      "chip": "ym2612"
    },
    {
      "channel": 0,
      "note": 48,
      "start": 101.7789,
      "duration": 0.4038,
      "velocity": 97,
      "chip": "ym2612"
    },
    {
      "channel": 2,
      "note": 87,
      "start": 101.781,
      "duration": 0.066,
      "velocity": 95,
      "chip": "ym2612"
    },
    {
      "channel": 3,
      "note": 75,
      "start": 101.7822,
      "duration": 0.2,
      "velocity": 100,
      "chip": "ym2612"
    },
    {
      "channel": 4,
      "note": 68,
      "start": 101.7832,
      "duration": 0.1994,
      "velocity": 100,
      "chip": "ym2612"
    },
    {
      "channel": 5,
      "note": 75,
      "start": 101.8311,
      "duration": 0.2049,
      "velocity": 100,
      "chip": "ym2612"
    },
    {
      "channel": 2,
      "note": 92,
      "start": 101.9151,
      "duration": 0.0667,
      "velocity": 95,
      "chip": "ym2612"
    },
    {
      "channel": 1,
      "note": 105,
      "start": 102.0323,
      "duration": 0.5047,
      "velocity": 80,
      "chip": "ym2612"
    },
    {
      "channel": 2,
      "note": 96,
      "start": 102.0332,
      "duration": 0.0666,
      "velocity": 95,
      "chip": "ym2612"
    },
    {
      "channel": 3,
      "note": 80,
      "start": 102.0344,
      "duration": 0.2006,
      "velocity": 100,
      "chip": "ym2612"
    },
    {
      "channel": 4,
      "note": 72,
      "start": 102.0354,
      "duration": 0.2,
      "velocity": 100,
      "chip": "ym2612"
    },
    {
      "channel": 5,
      "note": 80,
      "start": 102.0839,
      "duration": 0.2038,
      "velocity": 100,
      "chip": "ym2612"
    },
    {
      "channel": 2,
      "note": 92,
      "start": 102.1679,
      "duration": 0.0667,
      "velocity": 95,
      "chip": "ym2612"
    },
    {
      "channel": 0,
      "note": 51,
      "start": 102.2845,
      "duration": 0.4038,
      "velocity": 97,
      "chip": "ym2612"
    },
    {
      "channel": 2,
      "note": 96,
      "start": 102.2866,
      "duration": 0.066,
      "velocity": 95,
      "chip": "ym2612"
    },
    {
      "channel": 2,
      "note": 99,
      "start": 102.4207,
      "duration": 0.0667,
      "velocity": 95,
      "chip": "ym2612"
    },
    {
      "channel": 1,
      "note": 105,
      "start": 102.5379,
      "duration": 0.2527,
      "velocity": 80,
      "chip": "ym2612"
    },
    {
      "channel": 2,
      "note": 96,
      "start": 102.5391,
      "duration": 0.0666,
      "velocity": 95,
      "chip": "ym2612"
    },
    {
      "channel": 3,
      "note": 84,
      "start": 102.5403,
      "duration": 0.2005,
      "velocity": 100,
      "chip": "ym2612"
    },
    {
      "channel": 4,
      "note": 75,
      "start": 102.5414,
      "duration": 0.1998,
      "velocity": 100,
      "chip": "ym2612"
    },
    {
      "channel": 5,
      "note": 84,
      "start": 102.5898,
      "duration": 0.2053,
      "velocity": 100,
      "chip": "ym2612"
    },
    {
      "channel": 2,
      "note": 99,
      "start": 102.6738,
      "duration": 0.0666,
      "velocity": 95,
      "chip": "ym2612"
    },
    {
      "channel": 0,
      "note": 48,
      "start": 102.7901,
      "duration": 0.4038,
      "velocity": 97,
      "chip": "ym2612"
    },
    {
      "channel": 1,
      "note": 105,
      "start": 102.7915,
      "duration": 0.2511,
      "velocity": 80,
      "chip": "ym2612"
    },
    {
      "channel": 2,
      "note": 104,
      "start": 102.7924,
      "duration": 0.0658,
      "velocity": 95,
      "chip": "ym2612"
    },
    {
      "channel": 3,
      "note": 85,
      "start": 102.7935,
      "duration": 0.1999,
      "velocity": 100,
      "chip": "ym2612"
    },
    {
      "channel": 4,
      "note": 77,
      "start": 102.7947,
      "duration": 0.1991,
      "velocity": 100,
      "chip": "ym2612"
    },
    {
      "channel": 5,
      "note": 85,
      "start": 102.8423,
      "duration": 0.2049,
      "velocity": 100,
      "chip": "ym2612"
    },
    {
      "channel": 2,
      "note": 99,
      "start": 102.9263,
      "duration": 0.0667,
      "velocity": 95,
      "chip": "ym2612"
    },
    {
      "channel": 1,
      "note": 105,
      "start": 103.0436,
      "duration": 0.5046,
      "velocity": 80,
      "chip": "ym2612"
    },
    {
      "channel": 2,
      "note": 96,
      "start": 103.0446,
      "duration": 0.0665,
      "velocity": 95,
      "chip": "ym2612"
    },
    {
      "channel": 3,
      "note": 87,
      "start": 103.0456,
      "duration": 0.2006,
      "velocity": 100,
      "chip": "ym2612"
    },
    {
      "channel": 4,
      "note": 78,
      "start": 103.0468,
      "duration": 0.1998,
      "velocity": 100,
      "chip": "ym2612"
    },
    {
      "channel": 5,
      "note": 87,
      "start": 103.0951,
      "duration": 0.2039,
      "velocity": 100,
      "chip": "ym2612"
    },
    {
      "channel": 2,
      "note": 92,
      "start": 103.1791,
      "duration": 0.0667,
      "velocity": 95,
      "chip": "ym2612"
    },
    {
      "channel": 0,
      "note": 53,
      "start": 103.2957,
      "duration": 0.4038,
      "velocity": 97,
      "chip": "ym2612"
    },
    {
      "channel": 2,
      "note": 89,
      "start": 103.2978,
      "duration": 0.066,
      "velocity": 95,
      "chip": "ym2612"
    },
    {
      "channel": 2,
      "note": 85,
      "start": 103.4319,
      "duration": 0.0667,
      "velocity": 95,
      "chip": "ym2612"
    },
    {
      "channel": 1,
      "note": 105,
      "start": 103.5492,
      "duration": 0.5046,
      "velocity": 80,
      "chip": "ym2612"
    },
    {
      "channel": 2,
      "note": 89,
      "start": 103.5501,
      "duration": 0.0665,
      "velocity": 95,
      "chip": "ym2612"
    },
    {
      "channel": 3,
      "note": 89,
      "start": 103.5512,
      "duration": 0.2006,
      "velocity": 100,
      "chip": "ym2612"
    },
    {
      "channel": 4,
      "note": 80,
      "start": 103.5524,
      "duration": 0.1998,
      "velocity": 100,
      "chip": "ym2612"
    },
    {
      "channel": 5,
      "note": 89,
      "start": 103.6007,
      "duration": 0.2015,
      "velocity": 100,
      "chip": "ym2612"
    },
    {
      "channel": 2,
      "note": 92,
      "start": 103.6847,
      "duration": 0.0667,
      "velocity": 95,
      "chip": "ym2612"
    },
    {
      "channel": 0,
      "note": 49,
      "start": 103.8181,
      "duration": 0.3873,
      "velocity": 97,
      "chip": "ym2612"
    },
    {
      "channel": 2,
      "note": 89,
      "start": 103.8202,
      "duration": 0.0653,
      "velocity": 95,
      "chip": "ym2612"
    },
    {
      "channel": 2,
      "note": 92,
      "start": 103.9375,
      "duration": 0.0667,
      "velocity": 95,
      "chip": "ym2612"
    },
    {
      "channel": 1,
      "note": 105,
      "start": 104.0715,
      "duration": 0.4879,
      "velocity": 80,
      "chip": "ym2612"
    },
    {
      "channel": 2,
      "note": 97,
      "start": 104.0727,
      "duration": 0.0657,
      "velocity": 95,
      "chip": "ym2612"
    },
    {
      "channel": 3,
      "note": 87,
      "start": 104.0738,
      "duration": 0.1837,
      "velocity": 100,
      "chip": "ym2612"
    },
    {
      "channel": 4,
      "note": 78,
      "start": 104.075,
      "duration": 0.1829,
      "velocity": 100,
      "chip": "ym2612"
    },
    {
      "channel": 5,
      "note": 87,
      "start": 104.1066,
      "duration": 0.2011,
      "velocity": 100,
      "chip": "ym2612"
    },
    {
      "channel": 2,
      "note": 92,
      "start": 104.1907,
      "duration": 0.0664,
      "velocity": 95,
      "chip": "ym2612"
    },
    {
      "channel": 0,
      "note": 53,
      "start": 104.3239,
      "duration": 0.2015,
      "velocity": 97,
      "chip": "ym2612"
    },
    {
      "channel": 2,
      "note": 97,
      "start": 104.326,
      "duration": 0.0652,
      "velocity": 95,
      "chip": "ym2612"
    },
    {
      "channel": 2,
      "note": 101,
      "start": 104.4431,
      "duration": 0.0667,
      "velocity": 95,
      "chip": "ym2612"
    },
    {
      "channel": 0,
      "note": 49,
      "start": 104.5766,
      "duration": 0.2016,
      "velocity": 97,
      "chip": "ym2612"
    },
    {
      "channel": 1,
      "note": 105,
      "start": 104.5779,
      "duration": 0.2343,
      "velocity": 80,
      "chip": "ym2612"
    },
    {
      "channel": 2,
      "note": 97,
      "start": 104.5788,
      "duration": 0.0652,
      "velocity": 95,
      "chip": "ym2612"
    },
    {
      "channel": 3,
      "note": 85,
      "start": 104.5799,
      "duration": 0.1993,
      "velocity": 100,
      "chip": "ym2612"
    },
    {
      "channel": 4,
      "note": 77,
      "start": 104.581,
      "duration": 0.1985,
      "velocity": 100,
      "chip": "ym2612"
    },
    {
      "channel": 5,
      "note": 85,
      "start": 104.6119,
      "duration": 0.2017,
      "velocity": 100,
      "chip": "ym2612"
    },
    {
      "channel": 2,
      "note": 101,
      "start": 104.6959,
      "duration": 0.0667,
      "velocity": 95,
      "chip": "ym2612"
    },
    {
      "channel": 0,
      "note": 44,
      "start": 104.8293,
      "duration": 0.2016,
      "velocity": 97,
      "chip": "ym2612"
    },
    {
      "channel": 1,
      "note": 105,
      "start": 104.8307,
      "duration": 0.2343,
      "velocity": 80,
      "chip": "ym2612"
    },
    {
      "channel": 2,
      "note": 104,
      "start": 104.8316,
      "duration": 0.0651,
      "velocity": 95,
      "chip": "ym2612"
    },
    {
      "channel": 3,
      "note": 80,
      "start": 104.8327,
      "duration": 0.3846,
      "velocity": 100,
      "chip": "ym2612"
    },
    {
      "channel": 4,
      "note": 73,
      "start": 104.8338,
      "duration": 0.3839,
      "velocity": 100,
      "chip": "ym2612"
    },
    {
      "channel": 5,
      "note": 80,
      "start": 104.8646,
      "duration": 0.4046,
      "velocity": 100,
      "chip": "ym2612"
    },
    {
      "channel": 2,
      "note": 101,
      "start": 104.9487,
      "duration": 0.0667,
      "velocity": 95,
      "chip": "ym2612"
    },
    {
      "channel": 0,
      "note": 49,
      "start": 105.0822,
      "duration": 0.2015,
      "velocity": 97,
      "chip": "ym2612"
    },
    {
      "channel": 1,
      "note": 105,
      "start": 105.0835,
      "duration": 0.4871,
      "velocity": 80,
      "chip": "ym2612"
    },
    {
      "channel": 2,
      "note": 104,
      "start": 105.0844,
      "duration": 0.0651,
      "velocity": 95,
      "chip": "ym2612"
    },
    {
      "channel": 2,
      "note": 109,
      "start": 105.2015,
      "duration": 0.0667,
      "velocity": 95,
      "chip": "ym2612"
    },
    {
      "channel": 0,
      "note": 54,
      "start": 105.3351,
      "duration": 0.3872,
      "velocity": 97,
      "chip": "ym2612"
    },
    {
      "channel": 2,
      "note": 90,
      "start": 105.3374,
      "duration": 0.065,
      "velocity": 95,
      "chip": "ym2612"
    },
    {
      "channel": 3,
      "note": 82,
      "start": 105.339,
      "duration": 0.3844,
      "velocity": 100,
      "chip": "ym2612"
    },
    {
      "channel": 4,
      "note": 73,
      "start": 105.3402,
      "duration": 0.3836,
      "velocity": 100,
      "chip": "ym2612"
    },
    {
      "channel": 5,
      "note": 82,
      "start": 105.3711,
      "duration": 0.4038,
      "velocity": 100,
      "chip": "ym2612"
    },
    {
      "channel": 2,
      "note": 85,
      "start": 105.4543,
      "duration": 0.0668,
      "velocity": 95,
      "chip": "ym2612"
    },
    {
      "channel": 1,
      "note": 105,
      "start": 105.5884,
      "duration": 0.4878,
      "velocity": 80,
      "chip": "ym2612"
    },
    {
      "channel": 2,
      "note": 90,
      "start": 105.5897,
      "duration": 0.0659,
      "velocity": 95,
      "chip": "ym2612"
    },
    {
      "channel": 2,
      "note": 94,
      "start": 105.7075,
      "duration": 0.0663,
      "velocity": 95,
      "chip": "ym2612"
    },
    {
      "channel": 0,
      "note": 49,
      "start": 105.8406,
      "duration": 0.387,
      "velocity": 97,
      "chip": "ym2612"
    },
    {
      "channel": 2,
      "note": 90,
      "start": 105.8427,
      "duration": 0.0653,
      "velocity": 95,
      "chip": "ym2612"
    },
    {
      "channel": 3,
      "note": 85,
      "start": 105.8439,
      "duration": 0.0981,
      "velocity": 100,
      "chip": "ym2612"
    },
    {
      "channel": 4,
      "note": 77,
      "start": 105.8449,
      "duration": 0.0975,
      "velocity": 100,
      "chip": "ym2612"
    },
    {
      "channel": 5,
      "note": 85,
      "start": 105.8766,
      "duration": 0.0997,
      "velocity": 100,
      "chip": "ym2612"
    },
    {
      "channel": 2,
      "note": 94,
      "start": 105.9599,
      "duration": 0.0668,
      "velocity": 95,
      "chip": "ym2612"
    },
    {
      "channel": 1,
      "note": 105,
      "start": 106.0939,
      "duration": 0.4879,
      "velocity": 80,
      "chip": "ym2612"
    },
    {
      "channel": 2,
      "note": 97,
      "start": 106.0948,
      "duration": 0.066,
      "velocity": 95,
      "chip": "ym2612"
    },
    {
      "channel": 3,
      "note": 84,
      "start": 106.0959,
      "duration": 0.3854,
      "velocity": 100,
      "chip": "ym2612"
    },
    {
      "channel": 4,
      "note": 75,
      "start": 106.097,
      "duration": 0.3847,
      "velocity": 100,
      "chip": "ym2612"
    },
    {
      "channel": 5,
      "note": 84,
      "start": 106.1294,
      "duration": 0.4039,
      "velocity": 100,
      "chip": "ym2612"
    },
    {
      "channel": 2,
      "note": 94,
      "start": 106.2127,
      "duration": 0.0667,
      "velocity": 95,
      "chip": "ym2612"
    },
    {
      "channel": 0,
      "note": 54,
      "start": 106.3462,
      "duration": 0.3869,
      "velocity": 97,
      "chip": "ym2612"
    },
    {
      "channel": 2,
      "note": 97,
      "start": 106.3483,
      "duration": 0.0653,
      "velocity": 95,
      "chip": "ym2612"
    },
    {
      "channel": 2,
      "note": 102,
      "start": 106.4655,
      "duration": 0.0668,
      "velocity": 95,
      "chip": "ym2612"
    },
    {
      "channel": 1,
      "note": 105,
      "start": 106.5995,
      "duration": 0.2527,
      "velocity": 80,
      "chip": "ym2612"
    },
    {
      "channel": 2,
      "note": 97,
      "start": 106.6004,
      "duration": 0.0667,
      "velocity": 95,
      "chip": "ym2612"
    },
    {
      "channel": 3,
      "note": 82,
      "start": 106.6015,
      "duration": 0.2,
      "velocity": 100,
      "chip": "ym2612"
    },
    {
      "channel": 4,
      "note": 73,
      "start": 106.6026,
      "duration": 0.1992,
      "velocity": 100,
      "chip": "ym2612"
    },
    {
      "channel": 5,
      "note": 82,
      "start": 106.635,
      "duration": 0.2008,
      "velocity": 100,
      "chip": "ym2612"
    },
    {
      "channel": 2,
      "note": 102,
      "start": 106.7183,
      "duration": 0.0667,
      "velocity": 95,
      "chip": "ym2612"
    },
    {
      "channel": 0,
      "note": 49,
      "start": 106.8518,
      "duration": 0.3873,
      "velocity": 97,
      "chip": "ym2612"
    },
    {
      "channel": 1,
      "note": 105,
      "start": 106.8531,
      "duration": 0.2512,
      "velocity": 80,
      "chip": "ym2612"
    },
    {
      "channel": 2,
      "note": 106,
      "start": 106.8541,
      "duration": 0.0658,
      "velocity": 95,
      "chip": "ym2612"
    },
    {
      "channel": 3,
      "note": 80,
      "start": 106.8556,
      "duration": 0.1988,
      "velocity": 100,
      "chip": "ym2612"
    },
    {
      "channel": 4,
      "note": 72,
      "start": 106.8567,
      "duration": 0.198,
      "velocity": 100,
      "chip": "ym2612"
    },
    {
      "channel": 5,
      "note": 80,
      "start": 106.8878,
      "duration": 0.2012,
      "velocity": 100,
      "chip": "ym2612"
    },
    {
      "channel": 2,
      "note": 102,
      "start": 106.9711,
      "duration": 0.0668,
      "velocity": 95,
      "chip": "ym2612"
    },
    {
      "channel": 1,
      "note": 105,
      "start": 107.1056,
      "duration": 0.5043,
      "velocity": 80,
      "chip": "ym2612"
    },
    {
      "channel": 2,
      "note": 97,
      "start": 107.1065,
      "duration": 0.0665,
      "velocity": 95,
      "chip": "ym2612"
    },
    {
      "channel": 3,
      "note": 78,
      "start": 107.1077,
      "duration": 0.1994,
      "velocity": 100,
      "chip": "ym2612"
    },
    {
      "channel": 4,
      "note": 70,
      "start": 107.1087,
      "duration": 0.1987,
      "velocity": 100,
      "chip": "ym2612"
    },
    {
      "channel": 5,
      "note": 78,
      "start": 107.141,
      "duration": 0.2004,
      "velocity": 100,
      "chip": "ym2612"
    },
    {
      "channel": 2,
      "note": 94,
      "start": 107.2243,
      "duration": 0.0663,
      "velocity": 95,
      "chip": "ym2612"
    },
    {
      "channel": 0,
      "note": 53,
      "start": 107.3574,
      "duration": 0.387,
      "velocity": 97,
      "chip": "ym2612"
    },
    {
      "channel": 2,
      "note": 89,
      "start": 107.3595,
      "duration": 0.066,
      "velocity": 95,
      "chip": "ym2612"
    },
    {
      "channel": 3,
      "note": 80,
      "start": 107.3606,
      "duration": 0.3847,
      "velocity": 100,
      "chip": "ym2612"
    },
    {
      "channel": 4,
      "note": 72,
      "start": 107.3617,
      "duration": 0.384,
      "velocity": 100,
      "chip": "ym2612"
    },
    {
      "channel": 5,
      "note": 80,
      "start": 107.3934,
      "duration": 0.4039,
      "velocity": 100,
      "chip": "ym2612"
    },
    {
      "channel": 2,
      "note": 85,
      "start": 107.4767,
      "duration": 0.0667,
      "velocity": 95,
      "chip": "ym2612"
    },
    {
      "channel": 1,
      "note": 105,
      "start": 107.6109,
      "duration": 0.5046,
      "velocity": 80,
      "chip": "ym2612"
    },
    {
      "channel": 2,
      "note": 89,
      "start": 107.6118,
      "duration": 0.0665,
      "velocity": 95,
      "chip": "ym2612"
    },
    {
      "channel": 2,
      "note": 92,
      "start": 107.7295,
      "duration": 0.0667,
      "velocity": 95,
      "chip": "ym2612"
    },
    {
      "channel": 0,
      "note": 49,
      "start": 107.863,
      "duration": 0.387,
      "velocity": 97,
      "chip": "ym2612"
    },
    {
      "channel": 2,
      "note": 89,
      "start": 107.8651,
      "duration": 0.066,
      "velocity": 95,
      "chip": "ym2612"
    },
    {
      "channel": 3,
      "note": 84,
      "start": 107.8662,
      "duration": 0.0989,
      "velocity": 100,
      "chip": "ym2612"
    },
    {
      "channel": 4,
      "note": 75,
      "start": 107.8673,
      "duration": 0.0982,
      "velocity": 100,
      "chip": "ym2612"
    },
    {
      "channel": 5,
      "note": 84,
      "start": 107.899,
      "duration": 0.0998,
      "velocity": 100,
      "chip": "ym2612"
    },
    {
      "channel": 2,
      "note": 92,
      "start": 107.9823,
      "duration": 0.0667,
      "velocity": 95,
      "chip": "ym2612"
    },
    {
      "channel": 1,
      "note": 105,
      "start": 108.1164,
      "duration": 0.5047,
      "velocity": 80,
      "chip": "ym2612"
    },
    {
      "channel": 2,
      "note": 97,
      "start": 108.1173,
      "duration": 0.0665,
      "velocity": 95,
      "chip": "ym2612"
    },
    {
      "channel": 3,
      "note": 82,
      "start": 108.1184,
      "duration": 0.3854,
      "velocity": 100,
      "chip": "ym2612"
    },
    {
      "channel": 4,
      "note": 73,
      "start": 108.1195,
      "duration": 0.3847,
      "velocity": 100,
      "chip": "ym2612"
    },
    {
      "channel": 5,
      "note": 82,
      "start": 108.1518,
      "duration": 0.4042,
      "velocity": 100,
      "chip": "ym2612"
    },
    {
      "channel": 2,
      "note": 92,
      "start": 108.2351,
      "duration": 0.0667,
      "velocity": 95,
      "chip": "ym2612"
    },
    {
      "channel": 0,
      "note": 53,
      "start": 108.3686,
      "duration": 0.4038,
      "velocity": 97,
      "chip": "ym2612"
    },
    {
      "channel": 2,
      "note": 97,
      "start": 108.3707,
      "duration": 0.066,
      "velocity": 95,
      "chip": "ym2612"
    },
    {
      "channel": 2,
      "note": 101,
      "start": 108.4879,
      "duration": 0.0667,
      "velocity": 95,
      "chip": "ym2612"
    },
    {
      "channel": 1,
      "note": 105,
      "start": 108.6224,
      "duration": 0.2523,
      "velocity": 80,
      "chip": "ym2612"
    },
    {
      "channel": 2,
      "note": 97,
      "start": 108.6232,
      "duration": 0.0666,
      "velocity": 95,
      "chip": "ym2612"
    },
    {
      "channel": 3,
      "note": 80,
      "start": 108.6244,
      "duration": 0.1996,
      "velocity": 100,
      "chip": "ym2612"
    },
    {
      "channel": 4,
      "note": 72,
      "start": 108.6255,
      "duration": 0.1989,
      "velocity": 100,
      "chip": "ym2612"
    },
    {
      "channel": 5,
      "note": 80,
      "start": 108.6578,
      "duration": 0.2005,
      "velocity": 100,
      "chip": "ym2612"
    },
    {
      "channel": 2,
      "note": 101,
      "start": 108.741,
      "duration": 0.0664,
      "velocity": 95,
      "chip": "ym2612"
    },
    {
      "channel": 0,
      "note": 49,
      "start": 108.8742,
      "duration": 0.4038,
      "velocity": 97,
      "chip": "ym2612"
    },
    {
      "channel": 1,
      "note": 105,
      "start": 108.8756,
      "duration": 0.2511,
      "velocity": 80,
      "chip": "ym2612"
    },
    {
      "channel": 2,
      "note": 104,
      "start": 108.8766,
      "duration": 0.0658,
      "velocity": 95,
      "chip": "ym2612"
    },
    {
      "channel": 3,
      "note": 78,
      "start": 108.8776,
      "duration": 0.1991,
      "velocity": 100,
      "chip": "ym2612"
    },
    {
      "channel": 4,
      "note": 70,
      "start": 108.8787,
      "duration": 0.1984,
      "velocity": 100,
      "chip": "ym2612"
    },
    {
      "channel": 5,
      "note": 78,
      "start": 108.9102,
      "duration": 0.2008,
      "velocity": 100,
      "chip": "ym2612"
    },
    {
      "channel": 2,
      "note": 101,
      "start": 108.9935,
      "duration": 0.0667,
      "velocity": 95,
      "chip": "ym2612"
    },
    {
      "channel": 1,
      "note": 105,
      "start": 109.1277,
      "duration": 0.5046,
      "velocity": 80,
      "chip": "ym2612"
    },
    {
      "channel": 2,
      "note": 97,
      "start": 109.1286,
      "duration": 0.0666,
      "velocity": 95,
      "chip": "ym2612"
    },
    {
      "channel": 3,
      "note": 77,
      "start": 109.1297,
      "duration": 0.1999,
      "velocity": 100,
      "chip": "ym2612"
    },
    {
      "channel": 4,
      "note": 68,
      "start": 109.1308,
      "duration": 0.1991,
      "velocity": 100,
      "chip": "ym2612"
    },
    {
      "channel": 5,
      "note": 77,
      "start": 109.163,
      "duration": 0.2008,
      "velocity": 100,
      "chip": "ym2612"
    },
    {
      "channel": 2,
      "note": 92,
      "start": 109.2463,
      "duration": 0.0667,
      "velocity": 95,
      "chip": "ym2612"
    },
    {
      "channel": 0,
      "note": 51,
      "start": 109.3798,
      "duration": 0.4038,
      "velocity": 97,
      "chip": "ym2612"
    },
    {
      "channel": 2,
      "note": 87,
      "start": 109.382,
      "duration": 0.066,
      "velocity": 95,
      "chip": "ym2612"
    },
    {
      "channel": 3,
      "note": 78,
      "start": 109.383,
      "duration": 0.4024,
      "velocity": 100,
      "chip": "ym2612"
    },
    {
      "channel": 4,
      "note": 70,
      "start": 109.3841,
      "duration": 0.4016,
      "velocity": 100,
      "chip": "ym2612"
    },
    {
      "channel": 5,
      "note": 78,
      "start": 109.432,
      "duration": 0.3877,
      "velocity": 100,
      "chip": "ym2612"
    },
    {
      "channel": 2,
      "note": 84,
      "start": 109.516,
      "duration": 0.066,
      "velocity": 95,
      "chip": "ym2612"
    },
    {
      "channel": 1,
      "note": 105,
      "start": 109.6333,
      "duration": 0.5046,
      "velocity": 80,
      "chip": "ym2612"
    },
    {
      "channel": 2,
      "note": 87,
      "start": 109.6342,
      "duration": 0.0665,
      "velocity": 95,
      "chip": "ym2612"
    },
    {
      "channel": 2,
      "note": 92,
      "start": 109.7688,
      "duration": 0.066,
      "velocity": 95,
      "chip": "ym2612"
    },
    {
      "channel": 0,
      "note": 48,
      "start": 109.8854,
      "duration": 0.4039,
      "velocity": 97,
      "chip": "ym2612"
    },
    {
      "channel": 2,
      "note": 87,
      "start": 109.8876,
      "duration": 0.066,
      "velocity": 95,
      "chip": "ym2612"
    },
    {
      "channel": 3,
      "note": 82,
      "start": 109.889,
      "duration": 0.0986,
      "velocity": 100,
      "chip": "ym2612"
    },
    {
      "channel": 4,
      "note": 73,
      "start": 109.8901,
      "duration": 0.0978,
      "velocity": 100,
      "chip": "ym2612"
    },
    {
      "channel": 5,
      "note": 82,
      "start": 109.9376,
      "duration": 0.1015,
      "velocity": 100,
      "chip": "ym2612"
    },
    {
      "channel": 2,
      "note": 92,
      "start": 110.0216,
      "duration": 0.066,
      "velocity": 95,
      "chip": "ym2612"
    },
    {
      "channel": 1,
      "note": 105,
      "start": 110.1391,
      "duration": 0.5044,
      "velocity": 80,
      "chip": "ym2612"
    },
    {
      "channel": 2,
      "note": 96,
      "start": 110.14,
      "duration": 0.0666,
      "velocity": 95,
      "chip": "ym2612"
    },
    {
      "channel": 3,
      "note": 80,
      "start": 110.1412,
      "duration": 0.4025,
      "velocity": 100,
      "chip": "ym2612"
    },
    {
      "channel": 4,
      "note": 72,
      "start": 110.1423,
      "duration": 0.4018,
      "velocity": 100,
      "chip": "ym2612"
    },
    {
      "channel": 5,
      "note": 80,
      "start": 110.1907,
      "duration": 0.3873,
      "velocity": 100,
      "chip": "ym2612"
    },
    {
      "channel": 2,
      "note": 92,
      "start": 110.2744,
      "duration": 0.066,
      "velocity": 95,
      "chip": "ym2612"
    },
    {
      "channel": 0,
      "note": 51,
      "start": 110.391,
      "duration": 0.4039,
      "velocity": 97,
      "chip": "ym2612"
    },
    {
      "channel": 2,
      "note": 96,
      "start": 110.3932,
      "duration": 0.066,
      "velocity": 95,
      "chip": "ym2612"
    },
    {
      "channel": 2,
      "note": 99,
      "start": 110.5272,
      "duration": 0.066,
      "velocity": 95,
      "chip": "ym2612"
    },
    {
      "channel": 1,
      "note": 105,
      "start": 110.6444,
      "duration": 0.2527,
      "velocity": 80,
      "chip": "ym2612"
    },
    {
      "channel": 2,
      "note": 96,
      "start": 110.6453,
      "duration": 0.0666,
      "velocity": 95,
      "chip": "ym2612"
    },
    {
      "channel": 3,
      "note": 78,
      "start": 110.6465,
      "duration": 0.1999,
      "velocity": 100,
      "chip": "ym2612"
    },
    {
      "channel": 4,
      "note": 70,
      "start": 110.6475,
      "duration": 0.1993,
      "velocity": 100,
      "chip": "ym2612"
    },
    {
      "channel": 5,
      "note": 78,
      "start": 110.6959,
      "duration": 0.2057,
      "velocity": 100,
      "chip": "ym2612"
    },
    {
      "channel": 2,
      "note": 99,
      "start": 110.78,
      "duration": 0.066,
      "velocity": 95,
      "chip": "ym2612"
    },
    {
      "channel": 0,
      "note": 48,
      "start": 110.8966,
      "duration": 0.4038,
      "velocity": 97,
      "chip": "ym2612"
    },
    {
      "channel": 1,
      "note": 105,
      "start": 110.898,
      "duration": 0.2512,
      "velocity": 80,
      "chip": "ym2612"
    },
    {
      "channel": 2,
      "note": 104,
      "start": 110.8989,
      "duration": 0.0658,
      "velocity": 95,
      "chip": "ym2612"
    },
    {
      "channel": 3,
      "note": 77,
      "start": 110.9001,
      "duration": 0.1992,
      "velocity": 100,
      "chip": "ym2612"
    },
    {
      "channel": 4,
      "note": 68,
      "start": 110.9012,
      "duration": 0.1985,
      "velocity": 100,
      "chip": "ym2612"
    },
    {
      "channel": 5,
      "note": 77,
      "start": 110.9488,
      "duration": 0.205,
      "velocity": 100,
      "chip": "ym2612"
    },
    {
      "channel": 2,
      "note": 99,
      "start": 111.0328,
      "duration": 0.0661,
      "velocity": 95,
      "chip": "ym2612"
    },
    {
      "channel": 1,
      "note": 105,
      "start": 111.1501,
      "duration": 0.5046,
      "velocity": 80,
      "chip": "ym2612"
    },
    {
      "channel": 2,
      "note": 96,
      "start": 111.151,
      "duration": 0.0665,
      "velocity": 95,
      "chip": "ym2612"
    },
    {
      "channel": 3,
      "note": 75,
      "start": 111.1521,
      "duration": 0.1999,
      "velocity": 100,
      "chip": "ym2612"
    },
    {
      "channel": 4,
      "note": 66,
      "start": 111.1533,
      "duration": 0.1991,
      "velocity": 100,
      "chip": "ym2612"
    },
    {
      "channel": 5,
      "note": 75,
      "start": 111.2015,
      "duration": 0.2059,
      "velocity": 100,
      "chip": "ym2612"
    },
    {
      "channel": 2,
      "note": 92,
      "start": 111.2856,
      "duration": 0.066,
      "velocity": 95,
      "chip": "ym2612"
    },
    {
      "channel": 0,
      "note": 53,
      "start": 111.4022,
      "duration": 0.4038,
      "velocity": 97,
      "chip": "ym2612"
    },
    {
      "channel": 2,
      "note": 89,
      "start": 111.4044,
      "duration": 0.066,
      "velocity": 95,
      "chip": "ym2612"
    },
    {
      "channel": 3,
      "note": 77,
      "start": 111.4058,
      "duration": 0.0985,
      "velocity": 100,
      "chip": "ym2612"
    },
    {
      "channel": 4,
      "note": 68,
      "start": 111.407,
      "duration": 0.0978,
      "velocity": 100,
      "chip": "ym2612"
    },
    {
      "channel": 5,
      "note": 77,
      "start": 111.4544,
      "duration": 0.1005,
      "velocity": 100,
      "chip": "ym2612"
    },
    {
      "channel": 2,
      "note": 85,
      "start": 111.5384,
      "duration": 0.0661,
      "velocity": 95,
      "chip": "ym2612"
    },
    {
      "channel": 1,
      "note": 105,
      "start": 111.6561,
      "duration": 0.5043,
      "velocity": 80,
      "chip": "ym2612"
    },
    {
      "channel": 2,
      "note": 89,
      "start": 111.657,
      "duration": 0.0665,
      "velocity": 95,
      "chip": "ym2612"
    },
    {
      "channel": 3,
      "note": 77,
      "start": 111.6581,
      "duration": 0.1995,
      "velocity": 100,
      "chip": "ym2612"
    },
    {
      "channel": 4,
      "note": 68,
      "start": 111.6592,
      "duration": 0.1988,
      "velocity": 100,
      "chip": "ym2612"
    },
    {
      "channel": 5,
      "note": 77,
      "start": 111.7075,
      "duration": 0.2051,
      "velocity": 100,
      "chip": "ym2612"
    },
    {
      "channel": 2,
      "note": 92,
      "start": 111.7912,
      "duration": 0.066,
      "velocity": 95,
      "chip": "ym2612"
    },
    {
      "channel": 0,
      "note": 49,
      "start": 111.9078,
      "duration": 0.4038,
      "velocity": 97,
      "chip": "ym2612"
    },
    {
      "channel": 2,
      "note": 89,
      "start": 111.91,
      "duration": 0.066,
      "velocity": 95,
      "chip": "ym2612"
    },
    {
      "channel": 3,
      "note": 73,
      "start": 111.911,
      "duration": 0.1994,
      "velocity": 100,
      "chip": "ym2612"
    },
    {
      "channel": 4,
      "note": 65,
      "start": 111.9122,
      "duration": 0.1987,
      "velocity": 100,
      "chip": "ym2612"
    },
    {
      "channel": 5,
      "note": 73,
      "start": 111.96,
      "duration": 0.2048,
      "velocity": 100,
      "chip": "ym2612"
    },
    {
      "channel": 2,
      "note": 92,
      "start": 112.044,
      "duration": 0.0661,
      "velocity": 95,
      "chip": "ym2612"
    },
    {
      "channel": 1,
      "note": 105,
      "start": 112.1612,
      "duration": 0.5055,
      "velocity": 80,
      "chip": "ym2612"
    },
    {
      "channel": 2,
      "note": 97,
      "start": 112.1621,
      "duration": 0.0666,
      "velocity": 95,
      "chip": "ym2612"
    },
    {
      "channel": 3,
      "note": 80,
      "start": 112.1632,
      "duration": 0.0995,
      "velocity": 100,
      "chip": "ym2612"
    },
    {
      "channel": 4,
      "note": 73,
      "start": 112.1643,
      "duration": 0.0988,
      "velocity": 100,
      "chip": "ym2612"
    },
    {
      "channel": 5,
      "note": 80,
      "start": 112.2128,
      "duration": 0.1005,
      "velocity": 100,
      "chip": "ym2612"
    },
    {
      "channel": 2,
      "note": 92,
      "start": 112.2968,
      "duration": 0.0667,
      "velocity": 95,
      "chip": "ym2612"
    },
    {
      "channel": 0,
      "note": 49,
      "start": 112.4135,
      "duration": 0.2015,
      "velocity": 97,
      "chip": "ym2612"
    },
    {
      "channel": 2,
      "note": 97,
      "start": 112.4156,
      "duration": 0.0659,
      "velocity": 95,
      "chip": "ym2612"
    },
    {
      "channel": 3,
      "note": 80,
      "start": 112.4167,
      "duration": 0.2001,
      "velocity": 100,
      "chip": "ym2612"
    },
    {
      "channel": 4,
      "note": 73,
      "start": 112.4178,
      "duration": 0.1994,
      "velocity": 100,
      "chip": "ym2612"
    },
    {
      "channel": 5,
      "note": 80,
      "start": 112.4656,
      "duration": 0.2056,
      "velocity": 100,
      "chip": "ym2612"
    },
    {
      "channel": 2,
      "note": 101,
      "start": 112.5496,
      "duration": 0.0669,
      "velocity": 95,
      "chip": "ym2612"
    },
    {
      "channel": 0,
      "note": 49,
      "start": 112.6662,
      "duration": 0.2016,
      "velocity": 97,
      "chip": "ym2612"
    },
    {
      "channel": 1,
      "note": 105,
      "start": 112.6676,
      "duration": 0.2518,
      "velocity": 80,
      "chip": "ym2612"
    },
    {
      "channel": 2,
      "note": 97,
      "start": 112.6685,
      "duration": 0.0658,
      "velocity": 95,
      "chip": "ym2612"
    },
    {
      "channel": 3,
      "note": 77,
      "start": 112.6696,
      "duration": 0.2,
      "velocity": 100,
      "chip": "ym2612"
    },
    {
      "channel": 4,
      "note": 68,
      "start": 112.6707,
      "duration": 0.1993,
      "velocity": 100,
      "chip": "ym2612"
    },
    {
      "channel": 5,
      "note": 77,
      "start": 112.7184,
      "duration": 0.206,
      "velocity": 100,
      "chip": "ym2612"
    },
    {
      "channel": 2,
      "note": 101,
      "start": 112.8024,
      "duration": 0.0668,
      "velocity": 95,
      "chip": "ym2612"
    },
    {
      "channel": 0,
      "note": 51,
      "start": 112.919,
      "duration": 0.2016,
      "velocity": 97,
      "chip": "ym2612"
    },
    {
      "channel": 1,
      "note": 105,
      "start": 112.9204,
      "duration": 0.2522,
      "velocity": 80,
      "chip": "ym2612"
    },
    {
      "channel": 2,
      "note": 104,
      "start": 112.9214,
      "duration": 0.0657,
      "velocity": 95,
      "chip": "ym2612"
    },
    {
      "channel": 3,
      "note": 85,
      "start": 112.9229,
      "duration": 0.1999,
      "velocity": 100,
      "chip": "ym2612"
    },
    {
      "channel": 4,
      "note": 77,
      "start": 112.9239,
      "duration": 0.1992,
      "velocity": 100,
      "chip": "ym2612"
    },
    {
      "channel": 5,
      "note": 85,
      "start": 112.9712,
      "duration": 0.2061,
      "velocity": 100,
      "chip": "ym2612"
    },
    {
      "channel": 2,
      "note": 101,
      "start": 113.0556,
      "duration": 0.0668,
      "velocity": 95,
      "chip": "ym2612"
    },
    {
      "channel": 0,
      "note": 53,
      "start": 113.1722,
      "duration": 0.2012,
      "velocity": 97,
      "chip": "ym2612"
    },
    {
      "channel": 1,
      "note": 105,
      "start": 113.1736,
      "duration": 0.5035,
      "velocity": 80,
      "chip": "ym2612"
    },
    {
      "channel": 2,
      "note": 104,
      "start": 113.1746,
      "duration": 0.0657,
      "velocity": 95,
      "chip": "ym2612"
    },
    {
      "channel": 3,
      "note": 80,
      "start": 113.1756,
      "duration": 0.1996,
      "velocity": 100,
      "chip": "ym2612"
    },
    {
      "channel": 4,
      "note": 73,
      "start": 113.1767,
      "duration": 0.1989,
      "velocity": 100,
      "chip": "ym2612"
    },
    {
      "channel": 5,
      "note": 80,
      "start": 113.2243,
      "duration": 0.2054,
      "velocity": 100,
      "chip": "ym2612"
    },
    {
      "channel": 2,
      "note": 109,
      "start": 113.308,
      "duration": 0.0668,
      "velocity": 95,
      "chip": "ym2612"
    },
    {
      "channel": 0,
      "note": 54,
      "start": 113.4248,
      "duration": 0.4037,
      "velocity": 97,
      "chip": "ym2612"
    },
    {
      "channel": 2,
      "note": 90,
      "start": 113.4271,
      "duration": 0.0656,
      "velocity": 95,
      "chip": "ym2612"
    },
    {
      "channel": 3,
      "note": 78,
      "start": 113.4281,
      "duration": 0.4013,
      "velocity": 100,
      "chip": "ym2612"
    },
    {
      "channel": 4,
      "note": 70,
      "start": 113.4293,
      "duration": 0.4006,
      "velocity": 100,
      "chip": "ym2612"
    },
    {
      "channel": 5,
      "note": 78,
      "start": 113.4768,
      "duration": 0.387,
      "velocity": 100,
      "chip": "ym2612"
    },
    {
      "channel": 2,
      "note": 85,
      "start": 113.5608,
      "duration": 0.0667,
      "velocity": 95,
      "chip": "ym2612"
    },
    {
      "channel": 1,
      "note": 105,
      "start": 113.6781,
      "duration": 0.5046,
      "velocity": 80,
      "chip": "ym2612"
    },
    {
      "channel": 2,
      "note": 90,
      "start": 113.679,
      "duration": 0.0665,
      "velocity": 95,
      "chip": "ym2612"
    },
    {
      "channel": 2,
      "note": 94,
      "start": 113.8136,
      "duration": 0.0667,
      "velocity": 95,
      "chip": "ym2612"
    },
    {
      "channel": 0,
      "note": 49,
      "start": 113.9302,
      "duration": 0.4038,
      "velocity": 97,
      "chip": "ym2612"
    },
    {
      "channel": 2,
      "note": 90,
      "start": 113.9323,
      "duration": 0.066,
      "velocity": 95,
      "chip": "ym2612"
    },
    {
      "channel": 3,
      "note": 73,
      "start": 113.9335,
      "duration": 0.0989,
      "velocity": 100,
      "chip": "ym2612"
    },
    {
      "channel": 4,
      "note": 66,
      "start": 113.9346,
      "duration": 0.0982,
      "velocity": 100,
      "chip": "ym2612"
    },
    {
      "channel": 5,
      "note": 73,
      "start": 113.9824,
      "duration": 0.1004,
      "velocity": 100,
      "chip": "ym2612"
    },
    {
      "channel": 2,
      "note": 94,
      "start": 114.0664,
      "duration": 0.0667,
      "velocity": 95,
      "chip": "ym2612"
    },
    {
      "channel": 1,
      "note": 105,
      "start": 114.1836,
      "duration": 0.5047,
      "velocity": 80,
      "chip": "ym2612"
    },
    {
      "channel": 2,
      "note": 97,
      "start": 114.1846,
      "duration": 0.0666,
      "velocity": 95,
      "chip": "ym2612"
    },
    {
      "channel": 3,
      "note": 78,
      "start": 114.1856,
      "duration": 0.4022,
      "velocity": 100,
      "chip": "ym2612"
    },
    {
      "channel": 4,
      "note": 70,
      "start": 114.1867,
      "duration": 0.4015,
      "velocity": 100,
      "chip": "ym2612"
    },
    {
      "channel": 5,
      "note": 78,
      "start": 114.2352,
      "duration": 0.4049,
      "velocity": 100,
      "chip": "ym2612"
    },
    {
      "channel": 2,
      "note": 94,
      "start": 114.3192,
      "duration": 0.0667,
      "velocity": 95,
      "chip": "ym2612"
    },
    {
      "channel": 0,
      "note": 54,
      "start": 114.4358,
      "duration": 0.4039,
      "velocity": 97,
      "chip": "ym2612"
    },
    {
      "channel": 2,
      "note": 97,
      "start": 114.4379,
      "duration": 0.066,
      "velocity": 95,
      "chip": "ym2612"
    },
    {
      "channel": 2,
      "note": 102,
      "start": 114.5724,
      "duration": 0.0668,
      "velocity": 95,
      "chip": "ym2612"
    },
    {
      "channel": 1,
      "note": 105,
      "start": 114.6896,
      "duration": 0.2524,
      "velocity": 80,
      "chip": "ym2612"
    },
    {
      "channel": 2,
      "note": 97,
      "start": 114.6905,
      "duration": 0.0665,
      "velocity": 95,
      "chip": "ym2612"
    },
    {
      "channel": 3,
      "note": 82,
      "start": 114.6916,
      "duration": 0.2003,
      "velocity": 100,
      "chip": "ym2612"
    },
    {
      "channel": 4,
      "note": 73,
      "start": 114.6927,
      "duration": 0.1996,
      "velocity": 100,
      "chip": "ym2612"
    },
    {
      "channel": 5,
      "note": 82,
      "start": 114.7412,
      "duration": 0.2053,
      "velocity": 100,
      "chip": "ym2612"
    },
    {
      "channel": 2,
      "note": 102,
      "start": 114.8248,
      "duration": 0.0667,
      "velocity": 95,
      "chip": "ym2612"
    },
    {
      "channel": 0,
      "note": 49,
      "start": 114.9414,
      "duration": 0.4038,
      "velocity": 97,
      "chip": "ym2612"
    },
    {
      "channel": 1,
      "note": 105,
      "start": 114.9428,
      "duration": 0.2511,
      "velocity": 80,
      "chip": "ym2612"
    },
    {
      "channel": 2,
      "note": 106,
      "start": 114.9438,
      "duration": 0.0658,
      "velocity": 95,
      "chip": "ym2612"
    },
    {
      "channel": 3,
      "note": 84,
      "start": 114.9449,
      "duration": 0.1999,
      "velocity": 100,
      "chip": "ym2612"
    },
    {
      "channel": 4,
      "note": 75,
      "start": 114.946,
      "duration": 0.1992,
      "velocity": 100,
      "chip": "ym2612"
    },
    {
      "channel": 5,
      "note": 84,
      "start": 114.9936,
      "duration": 0.2016,
      "velocity": 100,
      "chip": "ym2612"
    },
    {
      "channel": 2,
      "note": 102,
      "start": 115.0776,
      "duration": 0.0667,
      "velocity": 95,
      "chip": "ym2612"
    },
    {
      "channel": 1,
      "note": 105,
      "start": 115.2117,
      "duration": 0.4878,
      "velocity": 80,
      "chip": "ym2612"
    },
    {
      "channel": 2,
      "note": 97,
      "start": 115.2126,
      "duration": 0.066,
      "velocity": 95,
      "chip": "ym2612"
    },
    {
      "channel": 3,
      "note": 85,
      "start": 115.2137,
      "duration": 0.1838,
      "velocity": 100,
      "chip": "ym2612"
    },
    {
      "channel": 4,
      "note": 77,
      "start": 115.2148,
      "duration": 0.1831,
      "velocity": 100,
      "chip": "ym2612"
    },
    {
      "channel": 5,
      "note": 85,
      "start": 115.2464,
      "duration": 0.2015,
      "velocity": 100,
      "chip": "ym2612"
    },
    {
      "channel": 2,
      "note": 94,
      "start": 115.3304,
      "duration": 0.0667,
      "velocity": 95,
      "chip": "ym2612"
    },
    {
      "channel": 0,
      "note": 53,
      "start": 115.4639,
      "duration": 0.387,
      "velocity": 97,
      "chip": "ym2612"
    },
    {
      "channel": 2,
      "note": 89,
      "start": 115.4661,
      "duration": 0.0653,
      "velocity": 95,
      "chip": "ym2612"
    },
    {
      "channel": 3,
      "note": 77,
      "start": 115.4671,
      "duration": 0.3847,
      "velocity": 100,
      "chip": "ym2612"
    },
    {
      "channel": 4,
      "note": 68,
      "start": 115.4682,
      "duration": 0.384,
      "velocity": 100,
      "chip": "ym2612"
    },
    {
      "channel": 5,
      "note": 77,
      "start": 115.4992,
      "duration": 0.4046,
      "velocity": 100,
      "chip": "ym2612"
    },
    {
      "channel": 2,
      "note": 85,
      "start": 115.5832,
      "duration": 0.0667,
      "velocity": 95,
      "chip": "ym2612"
    },
    {
      "channel": 1,
      "note": 105,
      "start": 115.7173,
      "duration": 0.4882,
      "velocity": 80,
      "chip": "ym2612"
    },
    {
      "channel": 2,
      "note": 89,
      "start": 115.7182,
      "duration": 0.0659,
      "velocity": 95,
      "chip": "ym2612"
    },
    {
      "channel": 2,
      "note": 92,
      "start": 115.836,
      "duration": 0.0667,
      "velocity": 95,
      "chip": "ym2612"
    },
    {
      "channel": 0,
      "note": 49,
      "start": 115.9695,
      "duration": 0.387,
      "velocity": 97,
      "chip": "ym2612"
    },
    {
      "channel": 2,
      "note": 89,
      "start": 115.9717,
      "duration": 0.0653,
      "velocity": 95,
      "chip": "ym2612"
    },
    {
      "channel": 3,
      "note": 73,
      "start": 115.9731,
      "duration": 0.0978,
      "velocity": 100,
      "chip": "ym2612"
    },
    {
      "channel": 4,
      "note": 65,
      "start": 115.9742,
      "duration": 0.0971,
      "velocity": 100,
      "chip": "ym2612"
    },
    {
      "channel": 5,
      "note": 73,
      "start": 116.0048,
      "duration": 0.1008,
      "velocity": 100,
      "chip": "ym2612"
    },
    {
      "channel": 2,
      "note": 92,
      "start": 116.0892,
      "duration": 0.0667,
      "velocity": 95,
      "chip": "ym2612"
    },
    {
      "channel": 1,
      "note": 105,
      "start": 116.2232,
      "duration": 0.4876,
      "velocity": 80,
      "chip": "ym2612"
    },
    {
      "channel": 2,
      "note": 97,
      "start": 116.2241,
      "duration": 0.0656,
      "velocity": 95,
      "chip": "ym2612"
    },
    {
      "channel": 3,
      "note": 77,
      "start": 116.2251,
      "duration": 0.3851,
      "velocity": 100,
      "chip": "ym2612"
    },
    {
      "channel": 4,
      "note": 68,
      "start": 116.2263,
      "duration": 0.3844,
      "velocity": 100,
      "chip": "ym2612"
    },
    {
      "channel": 5,
      "note": 77,
      "start": 116.258,
      "duration": 0.4042,
      "velocity": 100,
      "chip": "ym2612"
    },
    {
      "channel": 2,
      "note": 92,
      "start": 116.3416,
      "duration": 0.0667,
      "velocity": 95,
      "chip": "ym2612"
    },
    {
      "channel": 0,
      "note": 53,
      "start": 116.4751,
      "duration": 0.387,
      "velocity": 97,
      "chip": "ym2612"
    },
    {
      "channel": 2,
      "note": 97,
      "start": 116.4773,
      "duration": 0.0653,
      "velocity": 95,
      "chip": "ym2612"
    },
    {
      "channel": 2,
      "note": 101,
      "start": 116.5944,
      "duration": 0.0667,
      "velocity": 95,
      "chip": "ym2612"
    },
    {
      "channel": 1,
      "note": 105,
      "start": 116.7285,
      "duration": 0.2351,
      "velocity": 80,
      "chip": "ym2612"
    },
    {
      "channel": 2,
      "note": 97,
      "start": 116.7293,
      "duration": 0.066,
      "velocity": 95,
      "chip": "ym2612"
    },
    {
      "channel": 3,
      "note": 77,
      "start": 116.7304,
      "duration": 0.2,
      "velocity": 100,
      "chip": "ym2612"
    },
    {
      "channel": 4,
      "note": 68,
      "start": 116.7316,
      "duration": 0.1993,
      "velocity": 100,
      "chip": "ym2612"
    },
    {
      "channel": 5,
      "note": 77,
      "start": 116.7639,
      "duration": 0.2008,
      "velocity": 100,
      "chip": "ym2612"
    },
    {
      "channel": 2,
      "note": 101,
      "start": 116.8472,
      "duration": 0.0667,
      "velocity": 95,
      "chip": "ym2612"
    },
    {
      "channel": 0,
      "note": 49,
      "start": 116.9807,
      "duration": 0.387,
      "velocity": 97,
      "chip": "ym2612"
    },
    {
      "channel": 1,
      "note": 105,
      "start": 116.982,
      "duration": 0.2344,
      "velocity": 80,
      "chip": "ym2612"
    },
    {
      "channel": 2,
      "note": 104,
      "start": 116.983,
      "duration": 0.0651,
      "velocity": 95,
      "chip": "ym2612"
    },
    {
      "channel": 3,
      "note": 80,
      "start": 116.9841,
      "duration": 0.1991,
      "velocity": 100,
      "chip": "ym2612"
    },
    {
      "channel": 4,
      "note": 73,
      "start": 116.9852,
      "duration": 0.1984,
      "velocity": 100,
      "chip": "ym2612"
    },
    {
      "channel": 5,
      "note": 80,
      "start": 117.0168,
      "duration": 0.2009,
      "velocity": 100,
      "chip": "ym2612"
    },
    {
      "channel": 2,
      "note": 101,
      "start": 117.1,
      "duration": 0.0668,
      "velocity": 95,
      "chip": "ym2612"
    },
    {
      "channel": 1,
      "note": 105,
      "start": 117.2341,
      "duration": 0.4882,
      "velocity": 80,
      "chip": "ym2612"
    },
    {
      "channel": 2,
      "note": 97,
      "start": 117.235,
      "duration": 0.0659,
      "velocity": 95,
      "chip": "ym2612"
    },
    {
      "channel": 3,
      "note": 85,
      "start": 117.2361,
      "duration": 0.1999,
      "velocity": 100,
      "chip": "ym2612"
    },
    {
      "channel": 4,
      "note": 77,
      "start": 117.2372,
      "duration": 0.1992,
      "velocity": 100,
      "chip": "ym2612"
    },
    {
      "channel": 5,
      "note": 85,
      "start": 117.2695,
      "duration": 0.2008,
      "velocity": 100,
      "chip": "ym2612"
    },
    {
      "channel": 2,
      "note": 92,
      "start": 117.3529,
      "duration": 0.0667,
      "velocity": 95,
      "chip": "ym2612"
    },
    {
      "channel": 0,
      "note": 51,
      "start": 117.4863,
      "duration": 0.387,
      "velocity": 97,
      "chip": "ym2612"
    },
    {
      "channel": 2,
      "note": 87,
      "start": 117.4886,
      "duration": 0.0651,
      "velocity": 95,
      "chip": "ym2612"
    },
    {
      "channel": 3,
      "note": 75,
      "start": 117.4899,
      "duration": 0.1993,
      "velocity": 100,
      "chip": "ym2612"
    },
    {
      "channel": 4,
      "note": 68,
      "start": 117.491,
      "duration": 0.1986,
      "velocity": 100,
      "chip": "ym2612"
    },
    {
      "channel": 5,
      "note": 75,
      "start": 117.5227,
      "duration": 0.2008,
      "velocity": 100,
      "chip": "ym2612"
    },
    {
      "channel": 2,
      "note": 84,
      "start": 117.606,
      "duration": 0.0667,
      "velocity": 95,
      "chip": "ym2612"
    },
    {
      "channel": 1,
      "note": 105,
      "start": 117.7401,
      "duration": 0.4875,
      "velocity": 80,
      "chip": "ym2612"
    },
    {
      "channel": 2,
      "note": 87,
      "start": 117.741,
      "duration": 0.0655,
      "velocity": 95,
      "chip": "ym2612"
    },
    {
      "channel": 3,
      "note": 72,
      "start": 117.7421,
      "duration": 0.1995,
      "velocity": 100,
      "chip": "ym2612"
    },
    {
      "channel": 4,
      "note": 63,
      "start": 117.7433,
      "duration": 0.1987,
      "velocity": 100,
      "chip": "ym2612"
    },
    {
      "channel": 5,
      "note": 72,
      "start": 117.7754,
      "duration": 0.2005,
      "velocity": 100,
      "chip": "ym2612"
    },
    {
      "channel": 2,
      "note": 92,
      "start": 117.8584,
      "duration": 0.0668,
      "velocity": 95,
      "chip": "ym2612"
    },
    {
      "channel": 0,
      "note": 48,
      "start": 117.992,
      "duration": 0.387,
      "velocity": 97,
      "chip": "ym2612"
    },
    {
      "channel": 2,
      "note": 87,
      "start": 117.994,
      "duration": 0.066,
      "velocity": 95,
      "chip": "ym2612"
    },
    {
      "channel": 3,
      "note": 75,
      "start": 117.9951,
      "duration": 0.1993,
      "velocity": 100,
      "chip": "ym2612"
    },
    {
      "channel": 4,
      "note": 68,
      "start": 117.9963,
      "duration": 0.1985,
      "velocity": 100,
      "chip": "ym2612"
    },
    {
      "channel": 5,
      "note": 75,
      "start": 118.0279,
      "duration": 0.2009,
      "velocity": 100,
      "chip": "ym2612"
    },
    {
      "channel": 2,
      "note": 92,
      "start": 118.1112,
      "duration": 0.0668,
      "velocity": 95,
      "chip": "ym2612"
    },
    {
      "channel": 1,
      "note": 105,
      "start": 118.2452,
      "duration": 0.5048,
      "velocity": 80,
      "chip": "ym2612"
    },
    {
      "channel": 2,
      "note": 96,
      "start": 118.2461,
      "duration": 0.0667,
      "velocity": 95,
      "chip": "ym2612"
    },
    {
      "channel": 3,
      "note": 80,
      "start": 118.2473,
      "duration": 0.1999,
      "velocity": 100,
      "chip": "ym2612"
    },
    {
      "channel": 4,
      "note": 72,
      "start": 118.2484,
      "duration": 0.1992,
      "velocity": 100,
      "chip": "ym2612"
    },
    {
      "channel": 5,
      "note": 80,
      "start": 118.2808,
      "duration": 0.2007,
      "velocity": 100,
      "chip": "ym2612"
    },
    {
      "channel": 2,
      "note": 92,
      "start": 118.364,
      "duration": 0.0667,
      "velocity": 95,
      "chip": "ym2612"
    },
    {
      "channel": 0,
      "note": 51,
      "start": 118.4975,
      "duration": 0.387,
      "velocity": 97,
      "chip": "ym2612"
    },
    {
      "channel": 2,
      "note": 96,
      "start": 118.4996,
      "duration": 0.066,
      "velocity": 95,
      "chip": "ym2612"
    },
    {
      "channel": 2,
      "note": 99,
      "start": 118.6169,
      "duration": 0.0667,
      "velocity": 95,
      "chip": "ym2612"
    },
    {
      "channel": 1,
      "note": 105,
      "start": 118.7509,
      "duration": 0.2527,
      "velocity": 80,
      "chip": "ym2612"
    },
    {
      "channel": 2,
      "note": 96,
      "start": 118.7519,
      "duration": 0.0666,
      "velocity": 95,
      "chip": "ym2612"
    },
    {
      "channel": 3,
      "note": 84,
      "start": 118.7529,
      "duration": 0.1999,
      "velocity": 100,
      "chip": "ym2612"
    },
    {
      "channel": 4,
      "note": 75,
      "start": 118.754,
      "duration": 0.1992,
      "velocity": 100,
      "chip": "ym2612"
    },
    {
      "channel": 5,
      "note": 84,
      "start": 118.7863,
      "duration": 0.2008,
      "velocity": 100,
      "chip": "ym2612"
    },
    {
      "channel": 2,
      "note": 99,
      "start": 118.8697,
      "duration": 0.0667,
      "velocity": 95,
      "chip": "ym2612"
    },
    {
      "channel": 0,
      "note": 48,
      "start": 119.0031,
      "duration": 0.387,
      "velocity": 97,
      "chip": "ym2612"
    },
    {
      "channel": 1,
      "note": 105,
      "start": 119.0045,
      "duration": 0.2515,
      "velocity": 80,
      "chip": "ym2612"
    },
    {
      "channel": 2,
      "note": 104,
      "start": 119.0058,
      "duration": 0.0654,
      "velocity": 95,
      "chip": "ym2612"
    },
    {
      "channel": 3,
      "note": 85,
      "start": 119.007,
      "duration": 0.199,
      "velocity": 100,
      "chip": "ym2612"
    },
    {
      "channel": 4,
      "note": 77,
      "start": 119.008,
      "duration": 0.1983,
      "velocity": 100,
      "chip": "ym2612"
    },
    {
      "channel": 5,
      "note": 85,
      "start": 119.0395,
      "duration": 0.2008,
      "velocity": 100,
      "chip": "ym2612"
    },
    {
      "channel": 2,
      "note": 99,
      "start": 119.1228,
      "duration": 0.0667,
      "velocity": 95,
      "chip": "ym2612"
    },
    {
      "channel": 1,
      "note": 105,
      "start": 119.257,
      "duration": 0.5043,
      "velocity": 80,
      "chip": "ym2612"
    },
    {
      "channel": 2,
      "note": 96,
      "start": 119.2579,
      "duration": 0.0661,
      "velocity": 95,
      "chip": "ym2612"
    },
    {
      "channel": 3,
      "note": 87,
      "start": 119.259,
      "duration": 0.1994,
      "velocity": 100,
      "chip": "ym2612"
    },
    {
      "channel": 4,
      "note": 78,
      "start": 119.2601,
      "duration": 0.1987,
      "velocity": 100,
      "chip": "ym2612"
    },
    {
      "channel": 5,
      "note": 87,
      "start": 119.2921,
      "duration": 0.2007,
      "velocity": 100,
      "chip": "ym2612"
    },
    {
      "channel": 2,
      "note": 92,
      "start": 119.3753,
      "duration": 0.0667,
      "velocity": 95,
      "chip": "ym2612"
    },
    {
      "channel": 0,
      "note": 53,
      "start": 119.5087,
      "duration": 0.387,
      "velocity": 97,
      "chip": "ym2612"
    },
    {
      "channel": 2,
      "note": 89,
      "start": 119.5108,
      "duration": 0.066,
      "velocity": 95,
      "chip": "ym2612"
    },
    {
      "channel": 2,
      "note": 85,
      "start": 119.6281,
      "duration": 0.0667,
      "velocity": 95,
      "chip": "ym2612"
    },
    {
      "channel": 1,
      "note": 105,
      "start": 119.7622,
      "duration": 0.5046,
      "velocity": 80,
      "chip": "ym2612"
    },
    {
      "channel": 2,
      "note": 89,
      "start": 119.7631,
      "duration": 0.0665,
      "velocity": 95,
      "chip": "ym2612"
    },
    {
      "channel": 3,
      "note": 89,
      "start": 119.7643,
      "duration": 0.1998,
      "velocity": 100,
      "chip": "ym2612"
    },
    {
      "channel": 4,
      "note": 80,
      "start": 119.7654,
      "duration": 0.199,
      "velocity": 100,
      "chip": "ym2612"
    },
    {
      "channel": 5,
      "note": 89,
      "start": 119.7975,
      "duration": 0.2008,
      "velocity": 100,
      "chip": "ym2612"
    },
    {
      "channel": 2,
      "note": 92,
      "start": 119.8809,
      "duration": 0.0667,
      "velocity": 95,
      "chip": "ym2612"
    },
    {
      "channel": 0,
      "note": 49,
      "start": 120.0143,
      "duration": 0.4038,
      "velocity": 97,
      "chip": "ym2612"
    },
    {
      "channel": 2,
      "note": 89,
      "start": 120.0164,
      "duration": 0.066,
      "velocity": 95,
      "chip": "ym2612"
    },
    {
      "channel": 2,
      "note": 92,
      "start": 120.1337,
      "duration": 0.0667,
      "velocity": 95,
      "chip": "ym2612"
    },
    {
      "channel": 1,
      "note": 105,
      "start": 120.2677,
      "duration": 0.5058,
      "velocity": 80,
      "chip": "ym2612"
    },
    {
      "channel": 2,
      "note": 97,
      "start": 120.2687,
      "duration": 0.0666,
      "velocity": 95,
      "chip": "ym2612"
    },
    {
      "channel": 3,
      "note": 87,
      "start": 120.2698,
      "duration": 0.1999,
      "velocity": 100,
      "chip": "ym2612"
    },
    {
      "channel": 4,
      "note": 78,
      "start": 120.2708,
      "duration": 0.1993,
      "velocity": 100,
      "chip": "ym2612"
    },
    {
      "channel": 5,
      "note": 87,
      "start": 120.3031,
      "duration": 0.2008,
      "velocity": 100,
      "chip": "ym2612"
    },
    {
      "channel": 2,
      "note": 92,
      "start": 120.3865,
      "duration": 0.0667,
      "velocity": 95,
      "chip": "ym2612"
    },
    {
      "channel": 0,
      "note": 53,
      "start": 120.5201,
      "duration": 0.2015,
      "velocity": 97,
      "chip": "ym2612"
    },
    {
      "channel": 2,
      "note": 97,
      "start": 120.5225,
      "duration": 0.0655,
      "velocity": 95,
      "chip": "ym2612"
    },
    {
      "channel": 2,
      "note": 101,
      "start": 120.6396,
      "duration": 0.0668,
      "velocity": 95,
      "chip": "ym2612"
    },
    {
      "channel": 0,
      "note": 49,
      "start": 120.773,
      "duration": 0.2013,
      "velocity": 97,
      "chip": "ym2612"
    },
    {
      "channel": 1,
      "note": 105,
      "start": 120.7744,
      "duration": 0.2517,
      "velocity": 80,
      "chip": "ym2612"
    },
    {
      "channel": 2,
      "note": 97,
      "start": 120.7753,
      "duration": 0.0655,
      "velocity": 95,
      "chip": "ym2612"
    },
    {
      "channel": 3,
      "note": 85,
      "start": 120.7764,
      "duration": 0.199,
      "velocity": 100,
      "chip": "ym2612"
    },
    {
      "channel": 4,
      "note": 77,
      "start": 120.7775,
      "duration": 0.1983,
      "velocity": 100,
      "chip": "ym2612"
    },
    {
      "channel": 5,
      "note": 85,
      "start": 120.8088,
      "duration": 0.2008,
      "velocity": 100,
      "chip": "ym2612"
    },
    {
      "channel": 2,
      "note": 101,
      "start": 120.9089,
      "duration": 0.0661,
      "velocity": 95,
      "chip": "ym2612"
    },
    {
      "channel": 0,
      "note": 44,
      "start": 121.0255,
      "duration": 0.2016,
      "velocity": 97,
      "chip": "ym2612"
    },
    {
      "channel": 1,
      "note": 105,
      "start": 121.0269,
      "duration": 0.2518,
      "velocity": 80,
      "chip": "ym2612"
    },
    {
      "channel": 2,
      "note": 104,
      "start": 121.0279,
      "duration": 0.0658,
      "velocity": 95,
      "chip": "ym2612"
    },
    {
      "channel": 3,
      "note": 80,
      "start": 121.029,
      "duration": 0.4021,
      "velocity": 100,
      "chip": "ym2612"
    },
    {
      "channel": 4,
      "note": 73,
      "start": 121.0301,
      "duration": 0.4013,
      "velocity": 100,
      "chip": "ym2612"
    },
    {
      "channel": 5,
      "note": 80,
      "start": 121.0777,
      "duration": 0.3877,
      "velocity": 100,
      "chip": "ym2612"
    },
    {
      "channel": 2,
      "note": 101,
      "start": 121.1617,
      "duration": 0.0661,
      "velocity": 95,
      "chip": "ym2612"
    },
    {
      "channel": 0,
      "note": 49,
      "start": 121.2783,
      "duration": 0.2016,
      "velocity": 97,
      "chip": "ym2612"
    },
    {
      "channel": 1,
      "note": 105,
      "start": 121.2798,
      "duration": 0.5038,
      "velocity": 80,
      "chip": "ym2612"
    },
    {
      "channel": 2,
      "note": 104,
      "start": 121.2807,
      "duration": 0.0658,
      "velocity": 95,
      "chip": "ym2612"
    },
    {
      "channel": 2,
      "note": 109,
      "start": 121.4145,
      "duration": 0.0661,
      "velocity": 95,
      "chip": "ym2612"
    },
    {
      "channel": 0,
      "note": 45,
      "start": 121.5311,
      "duration": 0.4039,
      "velocity": 97,
      "chip": "ym2612"
    },
    {
      "channel": 2,
      "note": 88,
      "start": 121.5334,
      "duration": 0.0658,
      "velocity": 95,
      "chip": "ym2612"
    },
    {
      "channel": 3,
      "note": 81,
      "start": 121.5346,
      "duration": 9.6878,
      "velocity": 100,
      "chip": "ym2612"
    },
    {
      "channel": 4,
      "note": 73,
      "start": 121.5355,
      "duration": 9.6873,
      "velocity": 100,
      "chip": "ym2612"
    },
    {
      "channel": 5,
      "note": 81,
      "start": 121.5834,
      "duration": 9.6732,
      "velocity": 100,
      "chip": "ym2612"
    },
    {
      "channel": 2,
      "note": 85,
      "start": 121.6673,
      "duration": 0.066,
      "velocity": 95,
      "chip": "ym2612"
    },
    {
      "channel": 1,
      "note": 105,
      "start": 121.7846,
      "duration": 0.5048,
      "velocity": 80,
      "chip": "ym2612"
    },
    {
      "channel": 2,
      "note": 88,
      "start": 121.7856,
      "duration": 0.0665,
      "velocity": 95,
      "chip": "ym2612"
    },
    {
      "channel": 2,
      "note": 93,
      "start": 121.9201,
      "duration": 0.066,
      "velocity": 95,
      "chip": "ym2612"
    },
    {
      "channel": 0,
      "note": 52,
      "start": 122.0367,
      "duration": 0.4039,
      "velocity": 97,
      "chip": "ym2612"
    },
    {
      "channel": 2,
      "note": 88,
      "start": 122.0392,
      "duration": 0.0656,
      "velocity": 95,
      "chip": "ym2612"
    },
    {
      "channel": 2,
      "note": 93,
      "start": 122.1733,
      "duration": 0.066,
      "velocity": 95,
      "chip": "ym2612"
    },
    {
      "channel": 1,
      "note": 105,
      "start": 122.2903,
      "duration": 0.5045,
      "velocity": 80,
      "chip": "ym2612"
    },
    {
      "channel": 2,
      "note": 97,
      "start": 122.2912,
      "duration": 0.0664,
      "velocity": 95,
      "chip": "ym2612"
    },
    {
      "channel": 2,
      "note": 93,
      "start": 122.4257,
      "duration": 0.066,
      "velocity": 95,
      "chip": "ym2612"
    },
    {
      "channel": 0,
      "note": 45,
      "start": 122.5424,
      "duration": 0.4038,
      "velocity": 97,
      "chip": "ym2612"
    },
    {
      "channel": 2,
      "note": 97,
      "start": 122.5445,
      "duration": 0.066,
      "velocity": 95,
      "chip": "ym2612"
    },
    {
      "channel": 2,
      "note": 100,
      "start": 122.6785,
      "duration": 0.066,
      "velocity": 95,
      "chip": "ym2612"
    },
    {
      "channel": 1,
      "note": 105,
      "start": 122.7958,
      "duration": 0.2527,
      "velocity": 80,
      "chip": "ym2612"
    },
    {
      "channel": 2,
      "note": 97,
      "start": 122.7966,
      "duration": 0.0666,
      "velocity": 95,
      "chip": "ym2612"
    },
    {
      "channel": 2,
      "note": 100,
      "start": 122.9313,
      "duration": 0.066,
      "velocity": 95,
      "chip": "ym2612"
    },
    {
      "channel": 0,
      "note": 52,
      "start": 123.048,
      "duration": 0.2016,
      "velocity": 97,
      "chip": "ym2612"
    },
    {
      "channel": 1,
      "note": 105,
      "start": 123.0493,
      "duration": 0.2519,
      "velocity": 80,
      "chip": "ym2612"
    },
    {
      "channel": 2,
      "note": 105,
      "start": 123.0503,
      "duration": 0.0658,
      "velocity": 95,
      "chip": "ym2612"
    },
    {
      "channel": 2,
      "note": 100,
      "start": 123.1841,
      "duration": 0.0661,
      "velocity": 95,
      "chip": "ym2612"
    },
    {
      "channel": 0,
      "note": 45,
      "start": 123.3008,
      "duration": 0.2016,
      "velocity": 97,
      "chip": "ym2612"
    },
    {
      "channel": 1,
      "note": 105,
      "start": 123.3022,
      "duration": 0.5039,
      "velocity": 80,
      "chip": "ym2612"
    },
    {
      "channel": 2,
      "note": 97,
      "start": 123.3031,
      "duration": 0.0657,
      "velocity": 95,
      "chip": "ym2612"
    },
    {
      "channel": 2,
      "note": 93,
      "start": 123.437,
      "duration": 0.0661,
      "velocity": 95,
      "chip": "ym2612"
    },
    {
      "channel": 0,
      "note": 47,
      "start": 123.5536,
      "duration": 0.4038,
      "velocity": 97,
      "chip": "ym2612"
    },
    {
      "channel": 2,
      "note": 95,
      "start": 123.5561,
      "duration": 0.0656,
      "velocity": 95,
      "chip": "ym2612"
    },
    {
      "channel": 2,
      "note": 90,
      "start": 123.6901,
      "duration": 0.0667,
      "velocity": 95,
      "chip": "ym2612"
    },
    {
      "channel": 1,
      "note": 105,
      "start": 123.8071,
      "duration": 0.5045,
      "velocity": 80,
      "chip": "ym2612"
    },
    {
      "channel": 2,
      "note": 87,
      "start": 123.808,
      "duration": 0.0664,
      "velocity": 95,
      "chip": "ym2612"
    },
    {
      "channel": 2,
      "note": 95,
      "start": 123.9425,
      "duration": 0.0667,
      "velocity": 95,
      "chip": "ym2612"
    },
    {
      "channel": 0,
      "note": 54,
      "start": 124.0592,
      "duration": 0.4038,
      "velocity": 97,
      "chip": "ym2612"
    },
    {
      "channel": 2,
      "note": 90,
      "start": 124.0613,
      "duration": 0.066,
      "velocity": 95,
      "chip": "ym2612"
    },
    {
      "channel": 2,
      "note": 87,
      "start": 124.1953,
      "duration": 0.0668,
      "velocity": 95,
      "chip": "ym2612"
    },
    {
      "channel": 1,
      "note": 105,
      "start": 124.3126,
      "duration": 0.5047,
      "velocity": 80,
      "chip": "ym2612"
    },
    {
      "channel": 2,
      "note": 95,
      "start": 124.3135,
      "duration": 0.0665,
      "velocity": 95,
      "chip": "ym2612"
    },
    {
      "channel": 2,
      "note": 90,
      "start": 124.4481,
      "duration": 0.0667,
      "velocity": 95,
      "chip": "ym2612"
    },
    {
      "channel": 0,
      "note": 47,
      "start": 124.5648,
      "duration": 0.4038,
      "velocity": 97,
      "chip": "ym2612"
    },
    {
      "channel": 2,
      "note": 87,
      "start": 124.5669,
      "duration": 0.066,
      "velocity": 95,
      "chip": "ym2612"
    },
    {
      "channel": 2,
      "note": 95,
      "start": 124.701,
      "duration": 0.0667,
      "velocity": 95,
      "chip": "ym2612"
    },
    {
      "channel": 1,
      "note": 105,
      "start": 124.8181,
      "duration": 0.2527,
      "velocity": 80,
      "chip": "ym2612"
    },
    {
      "channel": 2,
      "note": 90,
      "start": 124.8191,
      "duration": 0.0666,
      "velocity": 95,
      "chip": "ym2612"
    },
    {
      "channel": 2,
      "note": 95,
      "start": 124.9538,
      "duration": 0.0667,
      "velocity": 95,
      "chip": "ym2612"
    },
    {
      "channel": 0,
      "note": 54,
      "start": 125.0704,
      "duration": 0.202,
      "velocity": 97,
      "chip": "ym2612"
    },
    {
      "channel": 1,
      "note": 105,
      "start": 125.0719,
      "duration": 0.2517,
      "velocity": 80,
      "chip": "ym2612"
    },
    {
      "channel": 2,
      "note": 99,
      "start": 125.073,
      "duration": 0.0658,
      "velocity": 95,
      "chip": "ym2612"
    },
    {
      "channel": 2,
      "note": 102,
      "start": 125.2069,
      "duration": 0.0668,
      "velocity": 95,
      "chip": "ym2612"
    },
    {
      "channel": 0,
      "note": 47,
      "start": 125.3232,
      "duration": 0.2016,
      "velocity": 97,
      "chip": "ym2612"
    },
    {
      "channel": 1,
      "note": 105,
      "start": 125.3246,
      "duration": 0.5038,
      "velocity": 80,
      "chip": "ym2612"
    },
    {
      "channel": 2,
      "note": 107,
      "start": 125.3256,
      "duration": 0.0656,
      "velocity": 95,
      "chip": "ym2612"
    },
    {
      "channel": 2,
      "note": 111,
      "start": 125.4594,
      "duration": 0.0668,
      "velocity": 95,
      "chip": "ym2612"
    },
    {
      "channel": 0,
      "note": 49,
      "start": 125.576,
      "duration": 0.4038,
      "velocity": 97,
      "chip": "ym2612"
    },
    {
      "channel": 2,
      "note": 109,
      "start": 125.5781,
      "duration": 0.066,
      "velocity": 95,
      "chip": "ym2612"
    },
    {
      "channel": 2,
      "note": 104,
      "start": 125.7122,
      "duration": 0.0667,
      "velocity": 95,
      "chip": "ym2612"
    },
    {
      "channel": 1,
      "note": 105,
      "start": 125.8295,
      "duration": 0.5046,
      "velocity": 80,
      "chip": "ym2612"
    },
    {
      "channel": 2,
      "note": 101,
      "start": 125.8304,
      "duration": 0.0665,
      "velocity": 95,
      "chip": "ym2612"
    },
    {
      "channel": 2,
      "note": 97,
      "start": 125.965,
      "duration": 0.0667,
      "velocity": 95,
      "chip": "ym2612"
    },
    {
      "channel": 0,
      "note": 44,
      "start": 126.0816,
      "duration": 0.4038,
      "velocity": 97,
      "chip": "ym2612"
    },
    {
      "channel": 2,
      "note": 104,
      "start": 126.0837,
      "duration": 0.066,
      "velocity": 95,
      "chip": "ym2612"
    },
    {
      "channel": 2,
      "note": 101,
      "start": 126.2178,
      "duration": 0.0667,
      "velocity": 95,
      "chip": "ym2612"
    },
    {
      "channel": 1,
      "note": 105,
      "start": 126.335,
      "duration": 0.5046,
      "velocity": 80,
      "chip": "ym2612"
    },
    {
      "channel": 2,
      "note": 97,
      "start": 126.3359,
      "duration": 0.0666,
      "velocity": 95,
      "chip": "ym2612"
    },
    {
      "channel": 2,
      "note": 92,
      "start": 126.4706,
      "duration": 0.0667,
      "velocity": 95,
      "chip": "ym2612"
    },
    {
      "channel": 0,
      "note": 49,
      "start": 126.604,
      "duration": 0.387,
      "velocity": 97,
      "chip": "ym2612"
    },
    {
      "channel": 2,
      "note": 97,
      "start": 126.6065,
      "duration": 0.0649,
      "velocity": 95,
      "chip": "ym2612"
    },
    {
      "channel": 2,
      "note": 92,
      "start": 126.7237,
      "duration": 0.0667,
      "velocity": 95,
      "chip": "ym2612"
    },
    {
      "channel": 1,
      "note": 105,
      "start": 126.8573,
      "duration": 0.2351,
      "velocity": 80,
      "chip": "ym2612"
    },
    {
      "channel": 2,
      "note": 97,
      "start": 126.8583,
      "duration": 0.066,
      "velocity": 95,
      "chip": "ym2612"
    },
    {
      "channel": 2,
      "note": 101,
      "start": 126.9762,
      "duration": 0.0667,
      "velocity": 95,
      "chip": "ym2612"
    },
    {
      "channel": 0,
      "note": 44,
      "start": 127.1096,
      "duration": 0.387,
      "velocity": 97,
      "chip": "ym2612"
    },
    {
      "channel": 1,
      "note": 105,
      "start": 127.111,
      "duration": 0.2343,
      "velocity": 80,
      "chip": "ym2612"
    },
    {
      "channel": 2,
      "note": 104,
      "start": 127.1119,
      "duration": 0.0651,
      "velocity": 95,
      "chip": "ym2612"
    },
    {
      "channel": 2,
      "note": 109,
      "start": 127.229,
      "duration": 0.0667,
      "velocity": 95,
      "chip": "ym2612"
    },
    {
      "channel": 1,
      "note": 105,
      "start": 127.363,
      "duration": 0.4879,
      "velocity": 80,
      "chip": "ym2612"
    },
    {
      "channel": 2,
      "note": 113,
      "start": 127.3639,
      "duration": 0.0659,
      "velocity": 95,
      "chip": "ym2612"
    },
    {
      "channel": 2,
      "note": 116,
      "start": 127.4818,
      "duration": 0.0667,
      "velocity": 95,
      "chip": "ym2612"
    },
    {
      "channel": 0,
      "note": 49,
      "start": 127.6152,
      "duration": 0.387,
      "velocity": 97,
      "chip": "ym2612"
    },
    {
      "channel": 2,
      "note": 109,
      "start": 127.6174,
      "duration": 0.0653,
      "velocity": 95,
      "chip": "ym2612"
    },
    {
      "channel": 2,
      "note": 104,
      "start": 127.7346,
      "duration": 0.0667,
      "velocity": 95,
      "chip": "ym2612"
    },
    {
      "channel": 1,
      "note": 105,
      "start": 127.8687,
      "duration": 0.4878,
      "velocity": 80,
      "chip": "ym2612"
    },
    {
      "channel": 2,
      "note": 101,
      "start": 127.8695,
      "duration": 0.0659,
      "velocity": 95,
      "chip": "ym2612"
    },
    {
      "channel": 2,
      "note": 97,
      "start": 127.9874,
      "duration": 0.0667,
      "velocity": 95,
      "chip": "ym2612"
    },
    {
      "channel": 0,
      "note": 44,
      "start": 128.1209,
      "duration": 0.387,
      "velocity": 97,
      "chip": "ym2612"
    },
    {
      "channel": 2,
      "note": 104,
      "start": 128.1234,
      "duration": 0.0649,
      "velocity": 95,
      "chip": "ym2612"
    },
    {
      "channel": 2,
      "note": 101,
      "start": 128.2405,
      "duration": 0.0665,
      "velocity": 95,
      "chip": "ym2612"
    },
    {
      "channel": 1,
      "note": 105,
      "start": 128.3742,
      "duration": 0.4879,
      "velocity": 80,
      "chip": "ym2612"
    },
    {
      "channel": 2,
      "note": 97,
      "start": 128.3751,
      "duration": 0.066,
      "velocity": 95,
      "chip": "ym2612"
    },
    {
      "channel": 2,
      "note": 92,
      "start": 128.493,
      "duration": 0.0667,
      "velocity": 95,
      "chip": "ym2612"
    },
    {
      "channel": 0,
      "note": 49,
      "start": 128.6265,
      "duration": 0.387,
      "velocity": 97,
      "chip": "ym2612"
    },
    {
      "channel": 2,
      "note": 101,
      "start": 128.6286,
      "duration": 0.0653,
      "velocity": 95,
      "chip": "ym2612"
    },
    {
      "channel": 2,
      "note": 97,
      "start": 128.7458,
      "duration": 0.0668,
      "velocity": 95,
      "chip": "ym2612"
    },
    {
      "channel": 1,
      "note": 105,
      "start": 128.8798,
      "duration": 0.2351,
      "velocity": 80,
      "chip": "ym2612"
    },
    {
      "channel": 2,
      "note": 92,
      "start": 128.8807,
      "duration": 0.066,
      "velocity": 95,
      "chip": "ym2612"
    },
    {
      "channel": 2,
      "note": 89,
      "start": 128.9985,
      "duration": 0.0667,
      "velocity": 95,
      "chip": "ym2612"
    },
    {
      "channel": 0,
      "note": 44,
      "start": 129.1321,
      "duration": 0.387,
      "velocity": 97,
      "chip": "ym2612"
    },
    {
      "channel": 1,
      "note": 105,
      "start": 129.1334,
      "duration": 0.2344,
      "velocity": 80,
      "chip": "ym2612"
    },
    {
      "channel": 2,
      "note": 92,
      "start": 129.1342,
      "duration": 0.0652,
      "velocity": 95,
      "chip": "ym2612"
    },
    {
      "channel": 2,
      "note": 89,
      "start": 129.2514,
      "duration": 0.0668,
      "velocity": 95,
      "chip": "ym2612"
    },
    {
      "channel": 1,
      "note": 105,
      "start": 129.3854,
      "duration": 0.235,
      "velocity": 80,
      "chip": "ym2612"
    },
    {
      "channel": 2,
      "note": 92,
      "start": 129.3864,
      "duration": 0.0658,
      "velocity": 95,
      "chip": "ym2612"
    },
    {
      "channel": 2,
      "note": 97,
      "start": 129.5041,
      "duration": 0.0667,
      "velocity": 95,
      "chip": "ym2612"
    },
    {
      "channel": 0,
      "note": 49,
      "start": 129.6377,
      "duration": 1.5835,
      "velocity": 97,
      "chip": "ym2612"
    },
    {
      "channel": 1,
      "note": 105,
      "start": 129.6393,
      "duration": 0.5036,
      "velocity": 80,
      "chip": "ym2612"
    },
    {
      "channel": 2,
      "note": 109,
      "start": 129.6403,
      "duration": 0.0658,
      "velocity": 95,
      "chip": "ym2612"
    },
    {
      "channel": 2,
      "note": 104,
      "start": 129.7573,
      "duration": 0.0665,
      "velocity": 95,
      "chip": "ym2612"
    },
    {
      "channel": 2,
      "note": 101,
      "start": 129.8918,
      "duration": 0.0667,
      "velocity": 95,
      "chip": "ym2612"
    },
    {
      "channel": 2,
      "note": 97,
      "start": 130.0098,
      "duration": 0.0668,
      "velocity": 95,
      "chip": "ym2612"
    },
    {
      "channel": 2,
      "note": 104,
      "start": 130.1444,
      "duration": 0.066,
      "velocity": 95,
      "chip": "ym2612"
    },
    {
      "channel": 2,
      "note": 101,
      "start": 130.2616,
      "duration": 0.0668,
      "velocity": 95,
      "chip": "ym2612"
    },
    {
      "channel": 2,
      "note": 97,
      "start": 130.3965,
      "duration": 0.0667,
      "velocity": 95,
      "chip": "ym2612"
    },
    {
      "channel": 2,
      "note": 92,
      "start": 130.5145,
      "duration": 0.0667,
      "velocity": 95,
      "chip": "ym2612"
    },
    {
      "channel": 2,
      "note": 101,
      "start": 130.6493,
      "duration": 0.0667,
      "velocity": 95,
      "chip": "ym2612"
    },
    {
      "channel": 2,
      "note": 97,
      "start": 130.7673,
      "duration": 0.0667,
      "velocity": 95,
      "chip": "ym2612"
    },
    {
      "channel": 2,
      "note": 92,
      "start": 130.9021,
      "duration": 0.0667,
      "velocity": 95,
      "chip": "ym2612"
    },
    {
      "channel": 2,
      "note": 89,
      "start": 131.0201,
      "duration": 0.0667,
      "velocity": 95,
      "chip": "ym2612"
    },
    {
      "channel": 2,
      "note": 97,
      "start": 131.1549,
      "duration": 0.0668,
      "velocity": 95,
      "chip": "ym2612"
    },
    {
      "channel": 2,
      "note": 92,
      "start": 131.2732,
      "duration": 0.0664,
      "velocity": 95,
      "chip": "ym2612"
    },
    {
      "channel": 2,
      "note": 89,
      "start": 131.4077,
      "duration": 0.0667,
      "velocity": 95,
      "chip": "ym2612"
    },
    {
      "channel": 2,
      "note": 85,
      "start": 131.5256,
      "duration": 0.0668,
      "velocity": 95,
      "chip": "ym2612"
    },
    {
      "channel": 2,
      "note": 109,
      "start": 131.6606,
      "duration": 0.0666,
      "velocity": 95,
      "chip": "ym2612"
    },
    {
      "channel": 2,
      "note": 104,
      "start": 131.7784,
      "duration": 0.0668,
      "velocity": 95,
      "chip": "ym2612"
    },
    {
      "channel": 2,
      "note": 101,
      "start": 131.9132,
      "duration": 0.0667,
      "velocity": 95,
      "chip": "ym2612"
    },
    {
      "channel": 2,
      "note": 97,
      "start": 132.0312,
      "duration": 0.0668,
      "velocity": 95,
      "chip": "ym2612"
    },
    {
      "channel": 2,
      "note": 104,
      "start": 132.1661,
      "duration": 0.0667,
      "velocity": 95,
      "chip": "ym2612"
    },
    {
      "channel": 2,
      "note": 101,
      "start": 132.284,
      "duration": 0.0668,
      "velocity": 95,
      "chip": "ym2612"
    },
    {
      "channel": 2,
      "note": 97,
      "start": 132.4188,
      "duration": 0.0668,
      "velocity": 95,
      "chip": "ym2612"
    },
    {
      "channel": 2,
      "note": 92,
      "start": 132.5537,
      "duration": 0.0667,
      "velocity": 95,
      "chip": "ym2612"
    },
    {
      "channel": 2,
      "note": 101,
      "start": 132.6717,
      "duration": 0.0667,
      "velocity": 95,
      "chip": "ym2612"
    },
    {
      "channel": 2,
      "note": 97,
      "start": 132.8067,
      "duration": 0.0666,
      "velocity": 95,
      "chip": "ym2612"
    },
    {
      "channel": 2,
      "note": 92,
      "start": 132.9244,
      "duration": 0.0668,
      "velocity": 95,
      "chip": "ym2612"
    },
    {
      "channel": 2,
      "note": 89,
      "start": 133.0593,
      "duration": 0.0667,
      "velocity": 95,
      "chip": "ym2612"
    },
    {
      "channel": 2,
      "note": 97,
      "start": 133.1773,
      "duration": 0.0668,
      "velocity": 95,
      "chip": "ym2612"
    },
    {
      "channel": 2,
      "note": 92,
      "start": 133.3121,
      "duration": 0.0667,
      "velocity": 95,
      "chip": "ym2612"
    },
    {
      "channel": 2,
      "note": 89,
      "start": 133.43,
      "duration": 0.0668,
      "velocity": 95,
      "chip": "ym2612"
    },
    {
      "channel": 2,
      "note": 85,
      "start": 133.5649,
      "duration": 0.0667,
      "velocity": 95,
      "chip": "ym2612"
    },
    {
      "channel": 2,
      "note": 109,
      "start": 133.6834,
      "duration": 0.066,
      "velocity": 95,
      "chip": "ym2612"
    },
    {
      "channel": 2,
      "note": 104,
      "start": 133.8174,
      "duration": 0.0668,
      "velocity": 95,
      "chip": "ym2612"
    },
    {
      "channel": 2,
      "note": 101,
      "start": 133.9354,
      "duration": 0.0668,
      "velocity": 95,
      "chip": "ym2612"
    },
    {
      "channel": 2,
      "note": 97,
      "start": 134.0703,
      "duration": 0.0667,
      "velocity": 95,
      "chip": "ym2612"
    },
    {
      "channel": 2,
      "note": 104,
      "start": 134.1883,
      "duration": 0.0667,
      "velocity": 95,
      "chip": "ym2612"
    },
    {
      "channel": 2,
      "note": 101,
      "start": 134.3232,
      "duration": 0.0665,
      "velocity": 95,
      "chip": "ym2612"
    },
    {
      "channel": 2,
      "note": 97,
      "start": 134.441,
      "duration": 0.0667,
      "velocity": 95,
      "chip": "ym2612"
    },
    {
      "channel": 2,
      "note": 92,
      "start": 134.5759,
      "duration": 0.0667,
      "velocity": 95,
      "chip": "ym2612"
    },
    {
      "channel": 2,
      "note": 101,
      "start": 134.6939,
      "duration": 0.0667,
      "velocity": 95,
      "chip": "ym2612"
    },
    {
      "channel": 2,
      "note": 97,
      "start": 134.8287,
      "duration": 0.0667,
      "velocity": 95,
      "chip": "ym2612"
    },
    {
      "channel": 2,
      "note": 92,
      "start": 134.9466,
      "duration": 0.0667,
      "velocity": 95,
      "chip": "ym2612"
    },
    {
      "channel": 2,
      "note": 89,
      "start": 135.0815,
      "duration": 0.0667,
      "velocity": 95,
      "chip": "ym2612"
    },
    {
      "channel": 2,
      "note": 97,
      "start": 135.1995,
      "duration": 0.0667,
      "velocity": 95,
      "chip": "ym2612"
    },
    {
      "channel": 2,
      "note": 92,
      "start": 135.3343,
      "duration": 0.0667,
      "velocity": 95,
      "chip": "ym2612"
    },
    {
      "channel": 2,
      "note": 89,
      "start": 135.4522,
      "duration": 0.0667,
      "velocity": 95,
      "chip": "ym2612"
    },
    {
      "channel": 2,
      "note": 85,
      "start": 135.5871,
      "duration": 0.0667,
      "velocity": 95,
      "chip": "ym2612"
    },
    {
      "channel": 2,
      "note": 109,
      "start": 135.7055,
      "duration": 0.0664,
      "velocity": 95,
      "chip": "ym2612"
    },
    {
      "channel": 2,
      "note": 104,
      "start": 135.8399,
      "duration": 0.0667,
      "velocity": 95,
      "chip": "ym2612"
    },
    {
      "channel": 2,
      "note": 101,
      "start": 135.9579,
      "duration": 0.0667,
      "velocity": 95,
      "chip": "ym2612"
    },
    {
      "channel": 2,
      "note": 97,
      "start": 136.0927,
      "duration": 0.0667,
      "velocity": 95,
      "chip": "ym2612"
    },
    {
      "channel": 2,
      "note": 104,
      "start": 136.2106,
      "duration": 0.0667,
      "velocity": 95,
      "chip": "ym2612"
    },
    {
      "channel": 2,
      "note": 101,
      "start": 136.3455,
      "duration": 0.0667,
      "velocity": 95,
      "chip": "ym2612"
    },
    {
      "channel": 2,
      "note": 97,
      "start": 136.4634,
      "duration": 0.0667,
      "velocity": 95,
      "chip": "ym2612"
    },
    {
      "channel": 2,
      "note": 92,
      "start": 136.5984,
      "duration": 0.0667,
      "velocity": 95,
      "chip": "ym2612"
    },
    {
      "channel": 2,
      "note": 101,
      "start": 136.7163,
      "duration": 0.0667,
      "velocity": 95,
      "chip": "ym2612"
    },
    {
      "channel": 2,
      "note": 97,
      "start": 136.8511,
      "duration": 0.0667,
      "velocity": 95,
      "chip": "ym2612"
    },
    {
      "channel": 2,
      "note": 92,
      "start": 136.9691,
      "duration": 0.0667,
      "velocity": 95,
      "chip": "ym2612"
    },
    {
      "channel": 2,
      "note": 89,
      "start": 137.1039,
      "duration": 0.0667,
      "velocity": 95,
      "chip": "ym2612"
    },
    {
      "channel": 2,
      "note": 97,
      "start": 137.2222,
      "duration": 0.0667,
      "velocity": 95,
      "chip": "ym2612"
    },
    {
      "channel": 2,
      "note": 92,
      "start": 137.3567,
      "duration": 0.0667,
      "velocity": 95,
      "chip": "ym2612"
    },
    {
      "channel": 2,
      "note": 89,
      "start": 137.4747,
      "duration": 0.0667,
      "velocity": 95,
      "chip": "ym2612"
    },
    {
      "channel": 2,
      "note": 85,
      "start": 137.6095,
      "duration": 0.0667,
      "velocity": 95,
      "chip": "ym2612"
    },
    {
      "channel": 2,
      "note": 109,
      "start": 137.7275,
      "duration": 0.0667,
      "velocity": 95,
      "chip": "ym2612"
    },
    {
      "channel": 2,
      "note": 104,
      "start": 137.8623,
      "duration": 0.0667,
      "velocity": 95,
      "chip": "ym2612"
    },
    {
      "channel": 2,
      "note": 101,
      "start": 137.9803,
      "duration": 0.0667,
      "velocity": 95,
      "chip": "ym2612"
    },
    {
      "channel": 2,
      "note": 97,
      "start": 138.1151,
      "duration": 0.0667,
      "velocity": 95,
      "chip": "ym2612"
    },
    {
      "channel": 2,
      "note": 104,
      "start": 138.25,
      "duration": 0.0667,
      "velocity": 95,
      "chip": "ym2612"
    }
  ]
}