{
  "track_name": "18 - Preface (Part 4)",
  "duration_sec": 92.606,
  "sample_rate": 44100,
  "note_count": 879,
  "unique_pitches": 32,
  "pitch_range": 90,
  "avg_note_duration": 0.4082,
  "reconstruction_stats": {
    "notes_reconstructed": 879,
    "keyon_events": 879,
    "keyoff_events": 879,
    "orphan_keyons": 0,
    "unique_pitches": 32,
    "pitch_range": 90,
    "avg_duration_sec": 0.4082
  },
  "metadata": {
    "source": "G\\Gaiares\\18 - Preface (Part 4).vgz"
  },
  "notes": [
    {
      "channel": 5,
      "note": -1,
      "start": 0.0,
      "duration": 0.5516,
      "velocity": 112,
      "chip": "ym2612"
    },
    {
      "channel": 5,
      "note": 38,
      "start": 0.5553,
      "duration": 0.5452,
      "velocity": 126,
      "chip": "ym2612"
    },
    {
      "channel": 5,
      "note": 0,
      "start": 1.1043,
      "duration": 0.5452,
      "velocity": 112,
      "chip": "ym2612"
    },
    {
      "channel": 5,
      "note": 39,
      "start": 1.6532,
      "duration": 0.5468,
      "velocity": 126,
      "chip": "ym2612"
    },
    {
      "channel": 5,
      "note": 0,
      "start": 2.2039,
      "duration": 0.5434,
      "velocity": 112,
      "chip": "ym2612"
    },
    {
      "channel": 5,
      "note": 39,
      "start": 2.7512,
      "duration": 0.1334,
      "velocity": 112,
      "chip": "ym2612"
    },
    {
      "channel": 5,
      "note": 32,
      "start": 2.8885,
      "duration": 0.2706,
      "velocity": 112,
      "chip": "ym2612"
    },
    {
      "channel": 5,
      "note": 21,
      "start": 3.163,
      "duration": 0.1334,
      "velocity": 112,
      "chip": "ym2612"
    },
    {
      "channel": 5,
      "note": 32,
      "start": 3.3002,
      "duration": 0.2705,
      "velocity": 112,
      "chip": "ym2612"
    },
    {
      "channel": 5,
      "note": 54,
      "start": 3.5746,
      "duration": 0.2706,
      "velocity": 112,
      "chip": "ym2612"
    },
    {
      "channel": 5,
      "note": 54,
      "start": 3.849,
      "duration": 0.2707,
      "velocity": 126,
      "chip": "ym2612"
    },
    {
      "channel": 5,
      "note": 0,
      "start": 4.1235,
      "duration": 0.2744,
      "velocity": 112,
      "chip": "ym2612"
    },
    {
      "channel": 0,
      "note": -1,
      "start": 4.3944,
      "duration": 0.0673,
      "velocity": 83,
      "chip": "ym2612"
    },
    {
      "channel": 4,
      "note": -1,
      "start": 4.3975,
      "duration": 2.1693,
      "velocity": 93,
      "chip": "ym2612"
    },
    {
      "channel": 5,
      "note": 55,
      "start": 4.4019,
      "duration": 0.5435,
      "velocity": 112,
      "chip": "ym2612"
    },
    {
      "channel": 0,
      "note": 51,
      "start": 4.6686,
      "duration": 0.0676,
      "velocity": 83,
      "chip": "ym2612"
    },
    {
      "channel": 1,
      "note": -1,
      "start": 4.6702,
      "duration": 0.2498,
      "velocity": 99,
      "chip": "ym2612"
    },
    {
      "channel": 3,
      "note": -1,
      "start": 4.7162,
      "duration": 0.2493,
      "velocity": 99,
      "chip": "ym2612"
    },
    {
      "channel": 0,
      "note": 51,
      "start": 4.9431,
      "duration": 0.0676,
      "velocity": 83,
      "chip": "ym2612"
    },
    {
      "channel": 1,
      "note": 75,
      "start": 4.9445,
      "duration": 0.2494,
      "velocity": 99,
      "chip": "ym2612"
    },
    {
      "channel": 5,
      "note": 39,
      "start": 4.9492,
      "duration": 0.5452,
      "velocity": 126,
      "chip": "ym2612"
    },
    {
      "channel": 3,
      "note": 75,
      "start": 4.991,
      "duration": 0.2489,
      "velocity": 99,
      "chip": "ym2612"
    },
    {
      "channel": 0,
      "note": 51,
      "start": 5.2175,
      "duration": 0.068,
      "velocity": 83,
      "chip": "ym2612"
    },
    {
      "channel": 1,
      "note": 75,
      "start": 5.219,
      "duration": 0.2494,
      "velocity": 99,
      "chip": "ym2612"
    },
    {
      "channel": 3,
      "note": 75,
      "start": 5.2639,
      "duration": 0.2505,
      "velocity": 99,
      "chip": "ym2612"
    },
    {
      "channel": 0,
      "note": 51,
      "start": 5.492,
      "duration": 0.0676,
      "velocity": 83,
      "chip": "ym2612"
    },
    {
      "channel": 1,
      "note": 75,
      "start": 5.4934,
      "duration": 1.0843,
      "velocity": 99,
      "chip": "ym2612"
    },
    {
      "channel": 5,
      "note": 0,
      "start": 5.4983,
      "duration": 0.2694,
      "velocity": 112,
      "chip": "ym2612"
    },
    {
      "channel": 3,
      "note": 75,
      "start": 5.5384,
      "duration": 1.0854,
      "velocity": 99,
      "chip": "ym2612"
    },
    {
      "channel": 0,
      "note": 51,
      "start": 5.7665,
      "duration": 0.0676,
      "velocity": 83,
      "chip": "ym2612"
    },
    {
      "channel": 5,
      "note": 54,
      "start": 5.7715,
      "duration": 0.2707,
      "velocity": 112,
      "chip": "ym2612"
    },
    {
      "channel": 0,
      "note": 51,
      "start": 6.041,
      "duration": 0.0676,
      "velocity": 83,
      "chip": "ym2612"
    },
    {
      "channel": 5,
      "note": 54,
      "start": 6.0459,
      "duration": 0.5478,
      "velocity": 126,
      "chip": "ym2612"
    },
    {
      "channel": 0,
      "note": 51,
      "start": 6.3154,
      "duration": 0.0676,
      "velocity": 83,
      "chip": "ym2612"
    },
    {
      "channel": 0,
      "note": 51,
      "start": 6.5901,
      "duration": 0.0674,
      "velocity": 83,
      "chip": "ym2612"
    },
    {
      "channel": 4,
      "note": 75,
      "start": 6.5933,
      "duration": 2.1695,
      "velocity": 93,
      "chip": "ym2612"
    },
    {
      "channel": 5,
      "note": 0,
      "start": 6.5977,
      "duration": 0.269,
      "velocity": 112,
      "chip": "ym2612"
    },
    {
      "channel": 0,
      "note": 47,
      "start": 6.8644,
      "duration": 0.0676,
      "velocity": 83,
      "chip": "ym2612"
    },
    {
      "channel": 1,
      "note": 75,
      "start": 6.8659,
      "duration": 0.2494,
      "velocity": 99,
      "chip": "ym2612"
    },
    {
      "channel": 5,
      "note": 54,
      "start": 6.8705,
      "duration": 0.2707,
      "velocity": 112,
      "chip": "ym2612"
    },
    {
      "channel": 3,
      "note": 75,
      "start": 6.9107,
      "duration": 0.2505,
      "velocity": 99,
      "chip": "ym2612"
    },
    {
      "channel": 0,
      "note": 47,
      "start": 7.1388,
      "duration": 0.0676,
      "velocity": 83,
      "chip": "ym2612"
    },
    {
      "channel": 1,
      "note": 75,
      "start": 7.1403,
      "duration": 0.2494,
      "velocity": 99,
      "chip": "ym2612"
    },
    {
      "channel": 5,
      "note": 54,
      "start": 7.1449,
      "duration": 0.5452,
      "velocity": 126,
      "chip": "ym2612"
    },
    {
      "channel": 3,
      "note": 75,
      "start": 7.1856,
      "duration": 0.2501,
      "velocity": 99,
      "chip": "ym2612"
    },
    {
      "channel": 0,
      "note": 47,
      "start": 7.4134,
      "duration": 0.0676,
      "velocity": 83,
      "chip": "ym2612"
    },
    {
      "channel": 1,
      "note": 75,
      "start": 7.4148,
      "duration": 0.2494,
      "velocity": 99,
      "chip": "ym2612"
    },
    {
      "channel": 3,
      "note": 75,
      "start": 7.4597,
      "duration": 0.2505,
      "velocity": 99,
      "chip": "ym2612"
    },
    {
      "channel": 0,
      "note": 47,
      "start": 7.6878,
      "duration": 0.0676,
      "velocity": 83,
      "chip": "ym2612"
    },
    {
      "channel": 1,
      "note": 77,
      "start": 7.6893,
      "duration": 0.5124,
      "velocity": 99,
      "chip": "ym2612"
    },
    {
      "channel": 5,
      "note": 0,
      "start": 7.694,
      "duration": 0.5451,
      "velocity": 112,
      "chip": "ym2612"
    },
    {
      "channel": 3,
      "note": 77,
      "start": 7.7342,
      "duration": 0.5135,
      "velocity": 99,
      "chip": "ym2612"
    },
    {
      "channel": 0,
      "note": 47,
      "start": 7.9622,
      "duration": 0.0676,
      "velocity": 83,
      "chip": "ym2612"
    },
    {
      "channel": 0,
      "note": 47,
      "start": 8.2367,
      "duration": 0.0676,
      "velocity": 83,
      "chip": "ym2612"
    },
    {
      "channel": 1,
      "note": 78,
      "start": 8.2382,
      "duration": 0.2494,
      "velocity": 99,
      "chip": "ym2612"
    },
    {
      "channel": 5,
      "note": 39,
      "start": 8.2427,
      "duration": 0.5478,
      "velocity": 126,
      "chip": "ym2612"
    },
    {
      "channel": 3,
      "note": 78,
      "start": 8.2831,
      "duration": 0.2505,
      "velocity": 99,
      "chip": "ym2612"
    },
    {
      "channel": 0,
      "note": 47,
      "start": 8.5112,
      "duration": 0.0676,
      "velocity": 83,
      "chip": "ym2612"
    },
    {
      "channel": 1,
      "note": 77,
      "start": 8.5127,
      "duration": 0.2493,
      "velocity": 99,
      "chip": "ym2612"
    },
    {
      "channel": 3,
      "note": 77,
      "start": 8.5576,
      "duration": 0.2505,
      "velocity": 99,
      "chip": "ym2612"
    },
    {
      "channel": 0,
      "note": 47,
      "start": 8.7874,
      "duration": 0.0658,
      "velocity": 83,
      "chip": "ym2612"
    },
    {
      "channel": 4,
      "note": 70,
      "start": 8.7901,
      "duration": 2.1683,
      "velocity": 93,
      "chip": "ym2612"
    },
    {
      "channel": 5,
      "note": 0,
      "start": 8.7945,
      "duration": 0.5424,
      "velocity": 112,
      "chip": "ym2612"
    },
    {
      "channel": 0,
      "note": 46,
      "start": 9.0601,
      "duration": 0.0676,
      "velocity": 83,
      "chip": "ym2612"
    },
    {
      "channel": 1,
      "note": 75,
      "start": 9.0616,
      "duration": 0.2494,
      "velocity": 99,
      "chip": "ym2612"
    },
    {
      "channel": 3,
      "note": 75,
      "start": 9.1065,
      "duration": 0.2505,
      "velocity": 99,
      "chip": "ym2612"
    },
    {
      "channel": 0,
      "note": 46,
      "start": 9.3346,
      "duration": 0.0676,
      "velocity": 83,
      "chip": "ym2612"
    },
    {
      "channel": 1,
      "note": 73,
      "start": 9.3361,
      "duration": 0.2494,
      "velocity": 99,
      "chip": "ym2612"
    },
    {
      "channel": 5,
      "note": 41,
      "start": 9.3407,
      "duration": 0.5464,
      "velocity": 126,
      "chip": "ym2612"
    },
    {
      "channel": 3,
      "note": 73,
      "start": 9.381,
      "duration": 0.2505,
      "velocity": 99,
      "chip": "ym2612"
    },
    {
      "channel": 0,
      "note": 46,
      "start": 9.609,
      "duration": 0.0676,
      "velocity": 83,
      "chip": "ym2612"
    },
    {
      "channel": 1,
      "note": 73,
      "start": 9.6105,
      "duration": 0.2494,
      "velocity": 99,
      "chip": "ym2612"
    },
    {
      "channel": 3,
      "note": 73,
      "start": 9.6554,
      "duration": 0.2506,
      "velocity": 99,
      "chip": "ym2612"
    },
    {
      "channel": 0,
      "note": 46,
      "start": 9.8846,
      "duration": 0.0666,
      "velocity": 83,
      "chip": "ym2612"
    },
    {
      "channel": 1,
      "note": 73,
      "start": 9.8861,
      "duration": 0.5112,
      "velocity": 99,
      "chip": "ym2612"
    },
    {
      "channel": 5,
      "note": 0,
      "start": 9.8908,
      "duration": 0.2684,
      "velocity": 112,
      "chip": "ym2612"
    },
    {
      "channel": 3,
      "note": 73,
      "start": 9.93,
      "duration": 0.5135,
      "velocity": 99,
      "chip": "ym2612"
    },
    {
      "channel": 0,
      "note": 46,
      "start": 10.158,
      "duration": 0.0676,
      "velocity": 83,
      "chip": "ym2612"
    },
    {
      "channel": 5,
      "note": 55,
      "start": 10.1631,
      "duration": 0.2717,
      "velocity": 112,
      "chip": "ym2612"
    },
    {
      "channel": 0,
      "note": 46,
      "start": 10.4324,
      "duration": 0.0676,
      "velocity": 83,
      "chip": "ym2612"
    },
    {
      "channel": 1,
      "note": 73,
      "start": 10.434,
      "duration": 0.2512,
      "velocity": 99,
      "chip": "ym2612"
    },
    {
      "channel": 5,
      "note": 54,
      "start": 10.4385,
      "duration": 0.5476,
      "velocity": 126,
      "chip": "ym2612"
    },
    {
      "channel": 3,
      "note": 73,
      "start": 10.4789,
      "duration": 0.2505,
      "velocity": 99,
      "chip": "ym2612"
    },
    {
      "channel": 0,
      "note": 46,
      "start": 10.7069,
      "duration": 0.0676,
      "velocity": 83,
      "chip": "ym2612"
    },
    {
      "channel": 1,
      "note": 70,
      "start": 10.7084,
      "duration": 0.2494,
      "velocity": 99,
      "chip": "ym2612"
    },
    {
      "channel": 3,
      "note": 70,
      "start": 10.7533,
      "duration": 0.2505,
      "velocity": 99,
      "chip": "ym2612"
    },
    {
      "channel": 0,
      "note": 46,
      "start": 10.9821,
      "duration": 0.0686,
      "velocity": 83,
      "chip": "ym2612"
    },
    {
      "channel": 1,
      "note": 73,
      "start": 10.9838,
      "duration": 0.5115,
      "velocity": 99,
      "chip": "ym2612"
    },
    {
      "channel": 4,
      "note": 68,
      "start": 10.9858,
      "duration": 1.0704,
      "velocity": 93,
      "chip": "ym2612"
    },
    {
      "channel": 5,
      "note": 0,
      "start": 10.9902,
      "duration": 0.2668,
      "velocity": 112,
      "chip": "ym2612"
    },
    {
      "channel": 3,
      "note": 73,
      "start": 11.028,
      "duration": 0.5134,
      "velocity": 99,
      "chip": "ym2612"
    },
    {
      "channel": 0,
      "note": 47,
      "start": 11.2559,
      "duration": 0.0676,
      "velocity": 83,
      "chip": "ym2612"
    },
    {
      "channel": 5,
      "note": 55,
      "start": 11.2609,
      "duration": 0.2719,
      "velocity": 112,
      "chip": "ym2612"
    },
    {
      "channel": 0,
      "note": 47,
      "start": 11.5303,
      "duration": 0.0676,
      "velocity": 83,
      "chip": "ym2612"
    },
    {
      "channel": 1,
      "note": 78,
      "start": 11.5319,
      "duration": 0.5123,
      "velocity": 99,
      "chip": "ym2612"
    },
    {
      "channel": 5,
      "note": 54,
      "start": 11.5365,
      "duration": 0.5466,
      "velocity": 126,
      "chip": "ym2612"
    },
    {
      "channel": 3,
      "note": 78,
      "start": 11.5767,
      "duration": 0.5136,
      "velocity": 99,
      "chip": "ym2612"
    },
    {
      "channel": 0,
      "note": 47,
      "start": 11.8048,
      "duration": 0.0676,
      "velocity": 83,
      "chip": "ym2612"
    },
    {
      "channel": 0,
      "note": 47,
      "start": 12.0793,
      "duration": 0.0688,
      "velocity": 83,
      "chip": "ym2612"
    },
    {
      "channel": 1,
      "note": 77,
      "start": 12.0809,
      "duration": 0.5123,
      "velocity": 99,
      "chip": "ym2612"
    },
    {
      "channel": 4,
      "note": 66,
      "start": 12.0827,
      "duration": 1.0714,
      "velocity": 93,
      "chip": "ym2612"
    },
    {
      "channel": 5,
      "note": 0,
      "start": 12.0869,
      "duration": 0.2681,
      "velocity": 112,
      "chip": "ym2612"
    },
    {
      "channel": 3,
      "note": 77,
      "start": 12.1256,
      "duration": 0.5135,
      "velocity": 99,
      "chip": "ym2612"
    },
    {
      "channel": 0,
      "note": 49,
      "start": 12.3538,
      "duration": 0.0676,
      "velocity": 83,
      "chip": "ym2612"
    },
    {
      "channel": 5,
      "note": 55,
      "start": 12.3588,
      "duration": 0.2719,
      "velocity": 112,
      "chip": "ym2612"
    },
    {
      "channel": 0,
      "note": 49,
      "start": 12.6283,
      "duration": 0.0676,
      "velocity": 83,
      "chip": "ym2612"
    },
    {
      "channel": 1,
      "note": 75,
      "start": 12.6298,
      "duration": 0.5123,
      "velocity": 99,
      "chip": "ym2612"
    },
    {
      "channel": 5,
      "note": 54,
      "start": 12.6344,
      "duration": 0.2695,
      "velocity": 126,
      "chip": "ym2612"
    },
    {
      "channel": 3,
      "note": 75,
      "start": 12.6746,
      "duration": 0.5135,
      "velocity": 99,
      "chip": "ym2612"
    },
    {
      "channel": 0,
      "note": 49,
      "start": 12.9027,
      "duration": 0.0676,
      "velocity": 83,
      "chip": "ym2612"
    },
    {
      "channel": 5,
      "note": 0,
      "start": 12.9077,
      "duration": 0.2728,
      "velocity": 112,
      "chip": "ym2612"
    },
    {
      "channel": 0,
      "note": 49,
      "start": 13.1773,
      "duration": 0.068,
      "velocity": 83,
      "chip": "ym2612"
    },
    {
      "channel": 4,
      "note": 65,
      "start": 13.1801,
      "duration": 2.1698,
      "velocity": 93,
      "chip": "ym2612"
    },
    {
      "channel": 5,
      "note": 54,
      "start": 13.1845,
      "duration": 0.544,
      "velocity": 112,
      "chip": "ym2612"
    },
    {
      "channel": 0,
      "note": 51,
      "start": 13.4517,
      "duration": 0.0676,
      "velocity": 83,
      "chip": "ym2612"
    },
    {
      "channel": 1,
      "note": 73,
      "start": 13.4531,
      "duration": 0.2494,
      "velocity": 99,
      "chip": "ym2612"
    },
    {
      "channel": 3,
      "note": 73,
      "start": 13.498,
      "duration": 0.2505,
      "velocity": 99,
      "chip": "ym2612"
    },
    {
      "channel": 0,
      "note": 51,
      "start": 13.7261,
      "duration": 0.0676,
      "velocity": 83,
      "chip": "ym2612"
    },
    {
      "channel": 1,
      "note": 75,
      "start": 13.7276,
      "duration": 0.2495,
      "velocity": 99,
      "chip": "ym2612"
    },
    {
      "channel": 5,
      "note": 41,
      "start": 13.7322,
      "duration": 0.5452,
      "velocity": 126,
      "chip": "ym2612"
    },
    {
      "channel": 3,
      "note": 75,
      "start": 13.7725,
      "duration": 0.2505,
      "velocity": 99,
      "chip": "ym2612"
    },
    {
      "channel": 0,
      "note": 51,
      "start": 14.0006,
      "duration": 0.0676,
      "velocity": 83,
      "chip": "ym2612"
    },
    {
      "channel": 1,
      "note": 75,
      "start": 14.002,
      "duration": 0.2494,
      "velocity": 99,
      "chip": "ym2612"
    },
    {
      "channel": 3,
      "note": 75,
      "start": 14.0483,
      "duration": 0.2491,
      "velocity": 99,
      "chip": "ym2612"
    },
    {
      "channel": 0,
      "note": 51,
      "start": 14.2751,
      "duration": 0.0677,
      "velocity": 83,
      "chip": "ym2612"
    },
    {
      "channel": 1,
      "note": 75,
      "start": 14.2765,
      "duration": 1.0842,
      "velocity": 99,
      "chip": "ym2612"
    },
    {
      "channel": 5,
      "note": 0,
      "start": 14.2813,
      "duration": 0.2694,
      "velocity": 112,
      "chip": "ym2612"
    },
    {
      "channel": 3,
      "note": 75,
      "start": 14.3214,
      "duration": 1.0854,
      "velocity": 99,
      "chip": "ym2612"
    },
    {
      "channel": 0,
      "note": 51,
      "start": 14.5495,
      "duration": 0.0676,
      "velocity": 83,
      "chip": "ym2612"
    },
    {
      "channel": 5,
      "note": 55,
      "start": 14.5545,
      "duration": 0.2707,
      "velocity": 112,
      "chip": "ym2612"
    },
    {
      "channel": 0,
      "note": 51,
      "start": 14.824,
      "duration": 0.0676,
      "velocity": 83,
      "chip": "ym2612"
    },
    {
      "channel": 5,
      "note": 54,
      "start": 14.8289,
      "duration": 0.5473,
      "velocity": 126,
      "chip": "ym2612"
    },
    {
      "channel": 0,
      "note": 51,
      "start": 15.0985,
      "duration": 0.0676,
      "velocity": 83,
      "chip": "ym2612"
    },
    {
      "channel": 0,
      "note": 51,
      "start": 15.3731,
      "duration": 0.0674,
      "velocity": 83,
      "chip": "ym2612"
    },
    {
      "channel": 4,
      "note": 75,
      "start": 15.3758,
      "duration": 2.17,
      "velocity": 93,
      "chip": "ym2612"
    },
    {
      "channel": 5,
      "note": 0,
      "start": 15.3803,
      "duration": 0.2695,
      "velocity": 112,
      "chip": "ym2612"
    },
    {
      "channel": 0,
      "note": 47,
      "start": 15.6474,
      "duration": 0.0676,
      "velocity": 83,
      "chip": "ym2612"
    },
    {
      "channel": 1,
      "note": 75,
      "start": 15.6489,
      "duration": 0.2494,
      "velocity": 99,
      "chip": "ym2612"
    },
    {
      "channel": 5,
      "note": 55,
      "start": 15.6536,
      "duration": 0.2706,
      "velocity": 112,
      "chip": "ym2612"
    },
    {
      "channel": 3,
      "note": 75,
      "start": 15.6938,
      "duration": 0.2519,
      "velocity": 99,
      "chip": "ym2612"
    },
    {
      "channel": 0,
      "note": 47,
      "start": 15.9219,
      "duration": 0.0676,
      "velocity": 83,
      "chip": "ym2612"
    },
    {
      "channel": 1,
      "note": 75,
      "start": 15.9234,
      "duration": 0.2494,
      "velocity": 99,
      "chip": "ym2612"
    },
    {
      "channel": 5,
      "note": 54,
      "start": 15.9279,
      "duration": 0.5453,
      "velocity": 126,
      "chip": "ym2612"
    },
    {
      "channel": 3,
      "note": 75,
      "start": 15.9683,
      "duration": 0.2505,
      "velocity": 99,
      "chip": "ym2612"
    },
    {
      "channel": 0,
      "note": 47,
      "start": 16.1964,
      "duration": 0.0676,
      "velocity": 83,
      "chip": "ym2612"
    },
    {
      "channel": 1,
      "note": 75,
      "start": 16.1979,
      "duration": 0.2493,
      "velocity": 99,
      "chip": "ym2612"
    },
    {
      "channel": 3,
      "note": 75,
      "start": 16.2429,
      "duration": 0.2503,
      "velocity": 99,
      "chip": "ym2612"
    },
    {
      "channel": 0,
      "note": 47,
      "start": 16.4708,
      "duration": 0.0676,
      "velocity": 83,
      "chip": "ym2612"
    },
    {
      "channel": 1,
      "note": 77,
      "start": 16.4723,
      "duration": 0.5125,
      "velocity": 99,
      "chip": "ym2612"
    },
    {
      "channel": 5,
      "note": 0,
      "start": 16.477,
      "duration": 0.5451,
      "velocity": 112,
      "chip": "ym2612"
    },
    {
      "channel": 3,
      "note": 77,
      "start": 16.5172,
      "duration": 0.5135,
      "velocity": 99,
      "chip": "ym2612"
    },
    {
      "channel": 0,
      "note": 47,
      "start": 16.7474,
      "duration": 0.0655,
      "velocity": 83,
      "chip": "ym2612"
    },
    {
      "channel": 0,
      "note": 47,
      "start": 17.0198,
      "duration": 0.0676,
      "velocity": 83,
      "chip": "ym2612"
    },
    {
      "channel": 1,
      "note": 78,
      "start": 17.0212,
      "duration": 0.2494,
      "velocity": 99,
      "chip": "ym2612"
    },
    {
      "channel": 5,
      "note": 41,
      "start": 17.0258,
      "duration": 0.5461,
      "velocity": 126,
      "chip": "ym2612"
    },
    {
      "channel": 3,
      "note": 78,
      "start": 17.0662,
      "duration": 0.2505,
      "velocity": 99,
      "chip": "ym2612"
    },
    {
      "channel": 0,
      "note": 47,
      "start": 17.2942,
      "duration": 0.0676,
      "velocity": 83,
      "chip": "ym2612"
    },
    {
      "channel": 1,
      "note": 77,
      "start": 17.2958,
      "duration": 0.2493,
      "velocity": 99,
      "chip": "ym2612"
    },
    {
      "channel": 3,
      "note": 77,
      "start": 17.3407,
      "duration": 0.2504,
      "velocity": 99,
      "chip": "ym2612"
    },
    {
      "channel": 0,
      "note": 47,
      "start": 17.5689,
      "duration": 0.0674,
      "velocity": 83,
      "chip": "ym2612"
    },
    {
      "channel": 4,
      "note": 70,
      "start": 17.5716,
      "duration": 2.1714,
      "velocity": 93,
      "chip": "ym2612"
    },
    {
      "channel": 5,
      "note": 0,
      "start": 17.576,
      "duration": 0.5441,
      "velocity": 112,
      "chip": "ym2612"
    },
    {
      "channel": 0,
      "note": 46,
      "start": 17.8445,
      "duration": 0.0662,
      "velocity": 83,
      "chip": "ym2612"
    },
    {
      "channel": 1,
      "note": 75,
      "start": 17.8461,
      "duration": 0.248,
      "velocity": 99,
      "chip": "ym2612"
    },
    {
      "channel": 3,
      "note": 75,
      "start": 17.8896,
      "duration": 0.2507,
      "velocity": 99,
      "chip": "ym2612"
    },
    {
      "channel": 0,
      "note": 46,
      "start": 18.1176,
      "duration": 0.0676,
      "velocity": 83,
      "chip": "ym2612"
    },
    {
      "channel": 1,
      "note": 73,
      "start": 18.1191,
      "duration": 0.2494,
      "velocity": 99,
      "chip": "ym2612"
    },
    {
      "channel": 5,
      "note": 41,
      "start": 18.1237,
      "duration": 0.5452,
      "velocity": 126,
      "chip": "ym2612"
    },
    {
      "channel": 3,
      "note": 73,
      "start": 18.1641,
      "duration": 0.2505,
      "velocity": 99,
      "chip": "ym2612"
    },
    {
      "channel": 0,
      "note": 46,
      "start": 18.3921,
      "duration": 0.0676,
      "velocity": 83,
      "chip": "ym2612"
    },
    {
      "channel": 1,
      "note": 73,
      "start": 18.3936,
      "duration": 0.2515,
      "velocity": 99,
      "chip": "ym2612"
    },
    {
      "channel": 3,
      "note": 73,
      "start": 18.4385,
      "duration": 0.2505,
      "velocity": 99,
      "chip": "ym2612"
    },
    {
      "channel": 0,
      "note": 46,
      "start": 18.6666,
      "duration": 0.0676,
      "velocity": 83,
      "chip": "ym2612"
    },
    {
      "channel": 1,
      "note": 73,
      "start": 18.6681,
      "duration": 0.5124,
      "velocity": 99,
      "chip": "ym2612"
    },
    {
      "channel": 5,
      "note": 0,
      "start": 18.6728,
      "duration": 0.2704,
      "velocity": 112,
      "chip": "ym2612"
    },
    {
      "channel": 3,
      "note": 73,
      "start": 18.713,
      "duration": 0.5135,
      "velocity": 99,
      "chip": "ym2612"
    },
    {
      "channel": 0,
      "note": 46,
      "start": 18.942,
      "duration": 0.0688,
      "velocity": 83,
      "chip": "ym2612"
    },
    {
      "channel": 5,
      "note": 54,
      "start": 18.9471,
      "duration": 0.2708,
      "velocity": 112,
      "chip": "ym2612"
    },
    {
      "channel": 0,
      "note": 46,
      "start": 19.2155,
      "duration": 0.0676,
      "velocity": 83,
      "chip": "ym2612"
    },
    {
      "channel": 1,
      "note": 73,
      "start": 19.217,
      "duration": 0.2494,
      "velocity": 99,
      "chip": "ym2612"
    },
    {
      "channel": 5,
      "note": 55,
      "start": 19.2216,
      "duration": 0.5471,
      "velocity": 126,
      "chip": "ym2612"
    },
    {
      "channel": 3,
      "note": 73,
      "start": 19.2619,
      "duration": 0.2506,
      "velocity": 99,
      "chip": "ym2612"
    },
    {
      "channel": 0,
      "note": 46,
      "start": 19.49,
      "duration": 0.0676,
      "velocity": 83,
      "chip": "ym2612"
    },
    {
      "channel": 1,
      "note": 70,
      "start": 19.4915,
      "duration": 0.2509,
      "velocity": 99,
      "chip": "ym2612"
    },
    {
      "channel": 3,
      "note": 70,
      "start": 19.5364,
      "duration": 0.2505,
      "velocity": 99,
      "chip": "ym2612"
    },
    {
      "channel": 0,
      "note": 46,
      "start": 19.7646,
      "duration": 0.0674,
      "velocity": 83,
      "chip": "ym2612"
    },
    {
      "channel": 1,
      "note": 73,
      "start": 19.7663,
      "duration": 0.5121,
      "velocity": 99,
      "chip": "ym2612"
    },
    {
      "channel": 4,
      "note": 68,
      "start": 19.7683,
      "duration": 1.072,
      "velocity": 93,
      "chip": "ym2612"
    },
    {
      "channel": 5,
      "note": 0,
      "start": 19.7727,
      "duration": 0.2679,
      "velocity": 112,
      "chip": "ym2612"
    },
    {
      "channel": 3,
      "note": 73,
      "start": 19.811,
      "duration": 0.5134,
      "velocity": 99,
      "chip": "ym2612"
    },
    {
      "channel": 0,
      "note": 47,
      "start": 20.0394,
      "duration": 0.0688,
      "velocity": 83,
      "chip": "ym2612"
    },
    {
      "channel": 5,
      "note": 54,
      "start": 20.0444,
      "duration": 0.2715,
      "velocity": 112,
      "chip": "ym2612"
    },
    {
      "channel": 0,
      "note": 47,
      "start": 20.3135,
      "duration": 0.0675,
      "velocity": 83,
      "chip": "ym2612"
    },
    {
      "channel": 1,
      "note": 78,
      "start": 20.3149,
      "duration": 0.5124,
      "velocity": 99,
      "chip": "ym2612"
    },
    {
      "channel": 5,
      "note": 55,
      "start": 20.3195,
      "duration": 0.5466,
      "velocity": 126,
      "chip": "ym2612"
    },
    {
      "channel": 3,
      "note": 78,
      "start": 20.3598,
      "duration": 0.515,
      "velocity": 99,
      "chip": "ym2612"
    },
    {
      "channel": 0,
      "note": 47,
      "start": 20.5879,
      "duration": 0.0676,
      "velocity": 83,
      "chip": "ym2612"
    },
    {
      "channel": 0,
      "note": 47,
      "start": 20.8623,
      "duration": 0.0676,
      "velocity": 83,
      "chip": "ym2612"
    },
    {
      "channel": 1,
      "note": 77,
      "start": 20.8639,
      "duration": 0.5124,
      "velocity": 99,
      "chip": "ym2612"
    },
    {
      "channel": 4,
      "note": 66,
      "start": 20.8657,
      "duration": 1.0719,
      "velocity": 93,
      "chip": "ym2612"
    },
    {
      "channel": 5,
      "note": 0,
      "start": 20.8699,
      "duration": 0.2681,
      "velocity": 112,
      "chip": "ym2612"
    },
    {
      "channel": 3,
      "note": 77,
      "start": 20.9108,
      "duration": 0.5115,
      "velocity": 99,
      "chip": "ym2612"
    },
    {
      "channel": 0,
      "note": 49,
      "start": 21.1368,
      "duration": 0.0686,
      "velocity": 83,
      "chip": "ym2612"
    },
    {
      "channel": 5,
      "note": 54,
      "start": 21.1419,
      "duration": 0.272,
      "velocity": 112,
      "chip": "ym2612"
    },
    {
      "channel": 0,
      "note": 49,
      "start": 21.4113,
      "duration": 0.0676,
      "velocity": 83,
      "chip": "ym2612"
    },
    {
      "channel": 1,
      "note": 78,
      "start": 21.4129,
      "duration": 0.5123,
      "velocity": 99,
      "chip": "ym2612"
    },
    {
      "channel": 5,
      "note": 55,
      "start": 21.4175,
      "duration": 0.2695,
      "velocity": 126,
      "chip": "ym2612"
    },
    {
      "channel": 3,
      "note": 78,
      "start": 21.4577,
      "duration": 0.5144,
      "velocity": 99,
      "chip": "ym2612"
    },
    {
      "channel": 0,
      "note": 49,
      "start": 21.6858,
      "duration": 0.0676,
      "velocity": 83,
      "chip": "ym2612"
    },
    {
      "channel": 5,
      "note": 0,
      "start": 21.6908,
      "duration": 0.2739,
      "velocity": 112,
      "chip": "ym2612"
    },
    {
      "channel": 0,
      "note": 49,
      "start": 21.9604,
      "duration": 0.0675,
      "velocity": 83,
      "chip": "ym2612"
    },
    {
      "channel": 1,
      "note": 80,
      "start": 21.9621,
      "duration": 0.249,
      "velocity": 99,
      "chip": "ym2612"
    },
    {
      "channel": 4,
      "note": 65,
      "start": 21.9642,
      "duration": 2.1688,
      "velocity": 93,
      "chip": "ym2612"
    },
    {
      "channel": 5,
      "note": 54,
      "start": 21.9686,
      "duration": 0.543,
      "velocity": 112,
      "chip": "ym2612"
    },
    {
      "channel": 3,
      "note": 80,
      "start": 22.0083,
      "duration": 0.2488,
      "velocity": 99,
      "chip": "ym2612"
    },
    {
      "channel": 0,
      "note": 51,
      "start": 22.2347,
      "duration": 0.068,
      "velocity": 83,
      "chip": "ym2612"
    },
    {
      "channel": 1,
      "note": 82,
      "start": 22.2362,
      "duration": 0.2494,
      "velocity": 99,
      "chip": "ym2612"
    },
    {
      "channel": 3,
      "note": 82,
      "start": 22.2811,
      "duration": 0.2505,
      "velocity": 99,
      "chip": "ym2612"
    },
    {
      "channel": 0,
      "note": 51,
      "start": 22.5092,
      "duration": 0.0676,
      "velocity": 83,
      "chip": "ym2612"
    },
    {
      "channel": 1,
      "note": 78,
      "start": 22.5106,
      "duration": 0.2494,
      "velocity": 99,
      "chip": "ym2612"
    },
    {
      "channel": 5,
      "note": 41,
      "start": 22.5153,
      "duration": 0.544,
      "velocity": 126,
      "chip": "ym2612"
    },
    {
      "channel": 3,
      "note": 78,
      "start": 22.5555,
      "duration": 0.2505,
      "velocity": 99,
      "chip": "ym2612"
    },
    {
      "channel": 0,
      "note": 51,
      "start": 22.7837,
      "duration": 0.0676,
      "velocity": 83,
      "chip": "ym2612"
    },
    {
      "channel": 1,
      "note": 75,
      "start": 22.7852,
      "duration": 1.3472,
      "velocity": 99,
      "chip": "ym2612"
    },
    {
      "channel": 3,
      "note": 75,
      "start": 22.8302,
      "duration": 1.3483,
      "velocity": 99,
      "chip": "ym2612"
    },
    {
      "channel": 0,
      "note": 51,
      "start": 23.0581,
      "duration": 0.0676,
      "velocity": 83,
      "chip": "ym2612"
    },
    {
      "channel": 5,
      "note": 0,
      "start": 23.0632,
      "duration": 0.2706,
      "velocity": 112,
      "chip": "ym2612"
    },
    {
      "channel": 0,
      "note": 51,
      "start": 23.3326,
      "duration": 0.0676,
      "velocity": 83,
      "chip": "ym2612"
    },
    {
      "channel": 5,
      "note": 54,
      "start": 23.3376,
      "duration": 0.2707,
      "velocity": 112,
      "chip": "ym2612"
    },
    {
      "channel": 0,
      "note": 51,
      "start": 23.6071,
      "duration": 0.0676,
      "velocity": 83,
      "chip": "ym2612"
    },
    {
      "channel": 5,
      "note": 55,
      "start": 23.612,
      "duration": 0.5484,
      "velocity": 126,
      "chip": "ym2612"
    },
    {
      "channel": 0,
      "note": 51,
      "start": 23.8816,
      "duration": 0.0676,
      "velocity": 83,
      "chip": "ym2612"
    },
    {
      "channel": 0,
      "note": 51,
      "start": 24.1562,
      "duration": 0.0674,
      "velocity": 83,
      "chip": "ym2612"
    },
    {
      "channel": 1,
      "note": 82,
      "start": 24.1579,
      "duration": 0.249,
      "velocity": 99,
      "chip": "ym2612"
    },
    {
      "channel": 4,
      "note": 75,
      "start": 24.1599,
      "duration": 2.1689,
      "velocity": 93,
      "chip": "ym2612"
    },
    {
      "channel": 5,
      "note": 0,
      "start": 24.1644,
      "duration": 0.2685,
      "velocity": 112,
      "chip": "ym2612"
    },
    {
      "channel": 3,
      "note": 82,
      "start": 24.203,
      "duration": 0.2499,
      "velocity": 99,
      "chip": "ym2612"
    },
    {
      "channel": 0,
      "note": 47,
      "start": 24.4305,
      "duration": 0.0676,
      "velocity": 83,
      "chip": "ym2612"
    },
    {
      "channel": 1,
      "note": 82,
      "start": 24.432,
      "duration": 0.2494,
      "velocity": 99,
      "chip": "ym2612"
    },
    {
      "channel": 5,
      "note": 54,
      "start": 24.4367,
      "duration": 0.2707,
      "velocity": 112,
      "chip": "ym2612"
    },
    {
      "channel": 3,
      "note": 82,
      "start": 24.4769,
      "duration": 0.2504,
      "velocity": 99,
      "chip": "ym2612"
    },
    {
      "channel": 0,
      "note": 47,
      "start": 24.705,
      "duration": 0.0676,
      "velocity": 83,
      "chip": "ym2612"
    },
    {
      "channel": 1,
      "note": 82,
      "start": 24.7065,
      "duration": 0.2493,
      "velocity": 99,
      "chip": "ym2612"
    },
    {
      "channel": 5,
      "note": 55,
      "start": 24.7111,
      "duration": 0.544,
      "velocity": 126,
      "chip": "ym2612"
    },
    {
      "channel": 3,
      "note": 82,
      "start": 24.7514,
      "duration": 0.2515,
      "velocity": 99,
      "chip": "ym2612"
    },
    {
      "channel": 0,
      "note": 47,
      "start": 24.9795,
      "duration": 0.0676,
      "velocity": 83,
      "chip": "ym2612"
    },
    {
      "channel": 1,
      "note": 85,
      "start": 24.981,
      "duration": 1.3472,
      "velocity": 99,
      "chip": "ym2612"
    },
    {
      "channel": 3,
      "note": 85,
      "start": 25.0258,
      "duration": 1.3484,
      "velocity": 99,
      "chip": "ym2612"
    },
    {
      "channel": 0,
      "note": 47,
      "start": 25.2539,
      "duration": 0.0676,
      "velocity": 83,
      "chip": "ym2612"
    },
    {
      "channel": 5,
      "note": 0,
      "start": 25.2589,
      "duration": 0.5467,
      "velocity": 112,
      "chip": "ym2612"
    },
    {
      "channel": 0,
      "note": 47,
      "start": 25.5284,
      "duration": 0.0676,
      "velocity": 83,
      "chip": "ym2612"
    },
    {
      "channel": 0,
      "note": 47,
      "start": 25.8044,
      "duration": 0.066,
      "velocity": 83,
      "chip": "ym2612"
    },
    {
      "channel": 5,
      "note": 39,
      "start": 25.8093,
      "duration": 0.5468,
      "velocity": 126,
      "chip": "ym2612"
    },
    {
      "channel": 0,
      "note": 47,
      "start": 26.0773,
      "duration": 0.0676,
      "velocity": 83,
      "chip": "ym2612"
    },
    {
      "channel": 0,
      "note": 47,
      "start": 26.3519,
      "duration": 0.0674,
      "velocity": 83,
      "chip": "ym2612"
    },
    {
      "channel": 1,
      "note": 80,
      "start": 26.3536,
      "duration": 0.249,
      "velocity": 99,
      "chip": "ym2612"
    },
    {
      "channel": 4,
      "note": 70,
      "start": 26.3557,
      "duration": 2.1688,
      "velocity": 93,
      "chip": "ym2612"
    },
    {
      "channel": 5,
      "note": 0,
      "start": 26.36,
      "duration": 0.5441,
      "velocity": 112,
      "chip": "ym2612"
    },
    {
      "channel": 3,
      "note": 80,
      "start": 26.3983,
      "duration": 0.2503,
      "velocity": 99,
      "chip": "ym2612"
    },
    {
      "channel": 0,
      "note": 46,
      "start": 26.6262,
      "duration": 0.0676,
      "velocity": 83,
      "chip": "ym2612"
    },
    {
      "channel": 1,
      "note": 80,
      "start": 26.6277,
      "duration": 0.2494,
      "velocity": 99,
      "chip": "ym2612"
    },
    {
      "channel": 3,
      "note": 80,
      "start": 26.6727,
      "duration": 0.2504,
      "velocity": 99,
      "chip": "ym2612"
    },
    {
      "channel": 0,
      "note": 46,
      "start": 26.9018,
      "duration": 0.0665,
      "velocity": 83,
      "chip": "ym2612"
    },
    {
      "channel": 1,
      "note": 77,
      "start": 26.9033,
      "duration": 0.2483,
      "velocity": 99,
      "chip": "ym2612"
    },
    {
      "channel": 5,
      "note": 39,
      "start": 26.9079,
      "duration": 0.5429,
      "velocity": 126,
      "chip": "ym2612"
    },
    {
      "channel": 3,
      "note": 77,
      "start": 26.9471,
      "duration": 0.2504,
      "velocity": 99,
      "chip": "ym2612"
    },
    {
      "channel": 0,
      "note": 46,
      "start": 27.1752,
      "duration": 0.0676,
      "velocity": 83,
      "chip": "ym2612"
    },
    {
      "channel": 1,
      "note": 73,
      "start": 27.1767,
      "duration": 0.7983,
      "velocity": 99,
      "chip": "ym2612"
    },
    {
      "channel": 3,
      "note": 73,
      "start": 27.2216,
      "duration": 0.7994,
      "velocity": 99,
      "chip": "ym2612"
    },
    {
      "channel": 0,
      "note": 46,
      "start": 27.4496,
      "duration": 0.0676,
      "velocity": 83,
      "chip": "ym2612"
    },
    {
      "channel": 5,
      "note": 0,
      "start": 27.4546,
      "duration": 0.2707,
      "velocity": 112,
      "chip": "ym2612"
    },
    {
      "channel": 0,
      "note": 46,
      "start": 27.7241,
      "duration": 0.0676,
      "velocity": 83,
      "chip": "ym2612"
    },
    {
      "channel": 5,
      "note": 54,
      "start": 27.7292,
      "duration": 0.2722,
      "velocity": 112,
      "chip": "ym2612"
    },
    {
      "channel": 0,
      "note": 46,
      "start": 27.999,
      "duration": 0.069,
      "velocity": 83,
      "chip": "ym2612"
    },
    {
      "channel": 1,
      "note": 80,
      "start": 28.0005,
      "duration": 0.2489,
      "velocity": 99,
      "chip": "ym2612"
    },
    {
      "channel": 5,
      "note": 54,
      "start": 28.0051,
      "duration": 0.5467,
      "velocity": 126,
      "chip": "ym2612"
    },
    {
      "channel": 3,
      "note": 80,
      "start": 28.045,
      "duration": 0.2505,
      "velocity": 99,
      "chip": "ym2612"
    },
    {
      "channel": 0,
      "note": 46,
      "start": 28.2731,
      "duration": 0.0676,
      "velocity": 83,
      "chip": "ym2612"
    },
    {
      "channel": 1,
      "note": 78,
      "start": 28.2746,
      "duration": 0.2493,
      "velocity": 99,
      "chip": "ym2612"
    },
    {
      "channel": 3,
      "note": 78,
      "start": 28.3195,
      "duration": 0.2505,
      "velocity": 99,
      "chip": "ym2612"
    },
    {
      "channel": 0,
      "note": 46,
      "start": 28.5477,
      "duration": 0.0674,
      "velocity": 83,
      "chip": "ym2612"
    },
    {
      "channel": 1,
      "note": 80,
      "start": 28.5494,
      "duration": 0.274,
      "velocity": 99,
      "chip": "ym2612"
    },
    {
      "channel": 4,
      "note": 68,
      "start": 28.5513,
      "duration": 1.071,
      "velocity": 93,
      "chip": "ym2612"
    },
    {
      "channel": 5,
      "note": 0,
      "start": 28.5557,
      "duration": 0.2686,
      "velocity": 112,
      "chip": "ym2612"
    },
    {
      "channel": 3,
      "note": 80,
      "start": 28.5941,
      "duration": 0.2742,
      "velocity": 99,
      "chip": "ym2612"
    },
    {
      "channel": 0,
      "note": 47,
      "start": 28.822,
      "duration": 0.0676,
      "velocity": 83,
      "chip": "ym2612"
    },
    {
      "channel": 1,
      "note": 78,
      "start": 28.8235,
      "duration": 0.2746,
      "velocity": 99,
      "chip": "ym2612"
    },
    {
      "channel": 5,
      "note": 54,
      "start": 28.8282,
      "duration": 0.2709,
      "velocity": 112,
      "chip": "ym2612"
    },
    {
      "channel": 3,
      "note": 78,
      "start": 28.8684,
      "duration": 0.2744,
      "velocity": 99,
      "chip": "ym2612"
    },
    {
      "channel": 0,
      "note": 47,
      "start": 29.0966,
      "duration": 0.0687,
      "velocity": 83,
      "chip": "ym2612"
    },
    {
      "channel": 1,
      "note": 75,
      "start": 29.0982,
      "duration": 0.2742,
      "velocity": 99,
      "chip": "ym2612"
    },
    {
      "channel": 5,
      "note": 54,
      "start": 29.1027,
      "duration": 0.5453,
      "velocity": 126,
      "chip": "ym2612"
    },
    {
      "channel": 3,
      "note": 75,
      "start": 29.1429,
      "duration": 0.2743,
      "velocity": 99,
      "chip": "ym2612"
    },
    {
      "channel": 0,
      "note": 47,
      "start": 29.3709,
      "duration": 0.0676,
      "velocity": 83,
      "chip": "ym2612"
    },
    {
      "channel": 1,
      "note": 71,
      "start": 29.3724,
      "duration": 0.5124,
      "velocity": 99,
      "chip": "ym2612"
    },
    {
      "channel": 3,
      "note": 71,
      "start": 29.4173,
      "duration": 0.5148,
      "velocity": 99,
      "chip": "ym2612"
    },
    {
      "channel": 0,
      "note": 47,
      "start": 29.6454,
      "duration": 0.0676,
      "velocity": 83,
      "chip": "ym2612"
    },
    {
      "channel": 4,
      "note": 66,
      "start": 29.6476,
      "duration": 1.0727,
      "velocity": 93,
      "chip": "ym2612"
    },
    {
      "channel": 5,
      "note": 0,
      "start": 29.6518,
      "duration": 0.2704,
      "velocity": 112,
      "chip": "ym2612"
    },
    {
      "channel": 0,
      "note": 49,
      "start": 29.9199,
      "duration": 0.0676,
      "velocity": 83,
      "chip": "ym2612"
    },
    {
      "channel": 1,
      "note": 77,
      "start": 29.9214,
      "duration": 0.5124,
      "velocity": 99,
      "chip": "ym2612"
    },
    {
      "channel": 5,
      "note": 54,
      "start": 29.9261,
      "duration": 0.2695,
      "velocity": 112,
      "chip": "ym2612"
    },
    {
      "channel": 3,
      "note": 77,
      "start": 29.9681,
      "duration": 0.5118,
      "velocity": 99,
      "chip": "ym2612"
    },
    {
      "channel": 0,
      "note": 49,
      "start": 30.1943,
      "duration": 0.0683,
      "velocity": 83,
      "chip": "ym2612"
    },
    {
      "channel": 5,
      "note": 54,
      "start": 30.1992,
      "duration": 0.272,
      "velocity": 126,
      "chip": "ym2612"
    },
    {
      "channel": 0,
      "note": 49,
      "start": 30.4688,
      "duration": 0.0676,
      "velocity": 83,
      "chip": "ym2612"
    },
    {
      "channel": 1,
      "note": 78,
      "start": 30.4704,
      "duration": 0.2493,
      "velocity": 99,
      "chip": "ym2612"
    },
    {
      "channel": 5,
      "note": 0,
      "start": 30.4751,
      "duration": 0.2726,
      "velocity": 112,
      "chip": "ym2612"
    },
    {
      "channel": 3,
      "note": 78,
      "start": 30.5152,
      "duration": 0.2505,
      "velocity": 99,
      "chip": "ym2612"
    },
    {
      "channel": 0,
      "note": 49,
      "start": 30.7434,
      "duration": 0.0674,
      "velocity": 83,
      "chip": "ym2612"
    },
    {
      "channel": 1,
      "note": 80,
      "start": 30.7452,
      "duration": 0.2491,
      "velocity": 99,
      "chip": "ym2612"
    },
    {
      "channel": 4,
      "note": 65,
      "start": 30.7473,
      "duration": 2.1688,
      "velocity": 93,
      "chip": "ym2612"
    },
    {
      "channel": 5,
      "note": 54,
      "start": 30.7517,
      "duration": 0.5429,
      "velocity": 112,
      "chip": "ym2612"
    },
    {
      "channel": 3,
      "note": 80,
      "start": 30.7899,
      "duration": 0.2503,
      "velocity": 99,
      "chip": "ym2612"
    },
    {
      "channel": 0,
      "note": 51,
      "start": 31.0178,
      "duration": 0.0676,
      "velocity": 83,
      "chip": "ym2612"
    },
    {
      "channel": 1,
      "note": 82,
      "start": 31.0192,
      "duration": 0.2494,
      "velocity": 99,
      "chip": "ym2612"
    },
    {
      "channel": 3,
      "note": 82,
      "start": 31.0655,
      "duration": 0.2492,
      "velocity": 99,
      "chip": "ym2612"
    },
    {
      "channel": 0,
      "note": 51,
      "start": 31.2922,
      "duration": 0.0678,
      "velocity": 83,
      "chip": "ym2612"
    },
    {
      "channel": 1,
      "note": 78,
      "start": 31.2937,
      "duration": 0.2494,
      "velocity": 99,
      "chip": "ym2612"
    },
    {
      "channel": 5,
      "note": 39,
      "start": 31.2983,
      "duration": 0.544,
      "velocity": 126,
      "chip": "ym2612"
    },
    {
      "channel": 3,
      "note": 78,
      "start": 31.3386,
      "duration": 0.2505,
      "velocity": 99,
      "chip": "ym2612"
    },
    {
      "channel": 0,
      "note": 51,
      "start": 31.5667,
      "duration": 0.0676,
      "velocity": 83,
      "chip": "ym2612"
    },
    {
      "channel": 1,
      "note": 75,
      "start": 31.5683,
      "duration": 1.3472,
      "velocity": 99,
      "chip": "ym2612"
    },
    {
      "channel": 3,
      "note": 75,
      "start": 31.6132,
      "duration": 1.3498,
      "velocity": 99,
      "chip": "ym2612"
    },
    {
      "channel": 0,
      "note": 51,
      "start": 31.8412,
      "duration": 0.0676,
      "velocity": 83,
      "chip": "ym2612"
    },
    {
      "channel": 5,
      "note": 0,
      "start": 31.8463,
      "duration": 0.2706,
      "velocity": 112,
      "chip": "ym2612"
    },
    {
      "channel": 0,
      "note": 51,
      "start": 32.1156,
      "duration": 0.0676,
      "velocity": 83,
      "chip": "ym2612"
    },
    {
      "channel": 5,
      "note": 54,
      "start": 32.1207,
      "duration": 0.2706,
      "velocity": 112,
      "chip": "ym2612"
    },
    {
      "channel": 0,
      "note": 51,
      "start": 32.3901,
      "duration": 0.0676,
      "velocity": 83,
      "chip": "ym2612"
    },
    {
      "channel": 5,
      "note": 54,
      "start": 32.395,
      "duration": 0.5484,
      "velocity": 126,
      "chip": "ym2612"
    },
    {
      "channel": 0,
      "note": 51,
      "start": 32.6646,
      "duration": 0.0676,
      "velocity": 83,
      "chip": "ym2612"
    },
    {
      "channel": 0,
      "note": 51,
      "start": 32.9393,
      "duration": 0.0674,
      "velocity": 83,
      "chip": "ym2612"
    },
    {
      "channel": 1,
      "note": 82,
      "start": 32.9409,
      "duration": 0.249,
      "velocity": 99,
      "chip": "ym2612"
    },
    {
      "channel": 4,
      "note": 75,
      "start": 32.943,
      "duration": 2.1688,
      "velocity": 93,
      "chip": "ym2612"
    },
    {
      "channel": 5,
      "note": 0,
      "start": 32.9474,
      "duration": 0.2686,
      "velocity": 112,
      "chip": "ym2612"
    },
    {
      "channel": 3,
      "note": 82,
      "start": 32.9856,
      "duration": 0.2503,
      "velocity": 99,
      "chip": "ym2612"
    },
    {
      "channel": 0,
      "note": 47,
      "start": 33.2136,
      "duration": 0.0676,
      "velocity": 83,
      "chip": "ym2612"
    },
    {
      "channel": 1,
      "note": 82,
      "start": 33.2151,
      "duration": 0.2493,
      "velocity": 99,
      "chip": "ym2612"
    },
    {
      "channel": 5,
      "note": 54,
      "start": 33.2198,
      "duration": 0.2706,
      "velocity": 112,
      "chip": "ym2612"
    },
    {
      "channel": 3,
      "note": 82,
      "start": 33.26,
      "duration": 0.2504,
      "velocity": 99,
      "chip": "ym2612"
    },
    {
      "channel": 0,
      "note": 47,
      "start": 33.488,
      "duration": 0.0676,
      "velocity": 83,
      "chip": "ym2612"
    },
    {
      "channel": 1,
      "note": 82,
      "start": 33.4895,
      "duration": 0.2494,
      "velocity": 99,
      "chip": "ym2612"
    },
    {
      "channel": 5,
      "note": 54,
      "start": 33.4941,
      "duration": 0.544,
      "velocity": 126,
      "chip": "ym2612"
    },
    {
      "channel": 3,
      "note": 82,
      "start": 33.5344,
      "duration": 0.2504,
      "velocity": 99,
      "chip": "ym2612"
    },
    {
      "channel": 0,
      "note": 47,
      "start": 33.7645,
      "duration": 0.0656,
      "velocity": 83,
      "chip": "ym2612"
    },
    {
      "channel": 1,
      "note": 85,
      "start": 33.766,
      "duration": 1.3452,
      "velocity": 99,
      "chip": "ym2612"
    },
    {
      "channel": 3,
      "note": 85,
      "start": 33.8088,
      "duration": 1.3486,
      "velocity": 99,
      "chip": "ym2612"
    },
    {
      "channel": 0,
      "note": 47,
      "start": 34.037,
      "duration": 0.0676,
      "velocity": 83,
      "chip": "ym2612"
    },
    {
      "channel": 5,
      "note": 0,
      "start": 34.042,
      "duration": 0.5451,
      "velocity": 112,
      "chip": "ym2612"
    },
    {
      "channel": 0,
      "note": 47,
      "start": 34.3114,
      "duration": 0.0677,
      "velocity": 83,
      "chip": "ym2612"
    },
    {
      "channel": 0,
      "note": 47,
      "start": 34.5859,
      "duration": 0.0676,
      "velocity": 83,
      "chip": "ym2612"
    },
    {
      "channel": 5,
      "note": 39,
      "start": 34.5908,
      "duration": 0.5483,
      "velocity": 126,
      "chip": "ym2612"
    },
    {
      "channel": 0,
      "note": 47,
      "start": 34.8616,
      "duration": 0.0663,
      "velocity": 83,
      "chip": "ym2612"
    },
    {
      "channel": 0,
      "note": 47,
      "start": 35.135,
      "duration": 0.0674,
      "velocity": 83,
      "chip": "ym2612"
    },
    {
      "channel": 1,
      "note": 80,
      "start": 35.1366,
      "duration": 0.249,
      "velocity": 99,
      "chip": "ym2612"
    },
    {
      "channel": 4,
      "note": 70,
      "start": 35.1388,
      "duration": 2.1689,
      "velocity": 93,
      "chip": "ym2612"
    },
    {
      "channel": 5,
      "note": 0,
      "start": 35.1431,
      "duration": 0.5431,
      "velocity": 112,
      "chip": "ym2612"
    },
    {
      "channel": 3,
      "note": 80,
      "start": 35.1814,
      "duration": 0.2502,
      "velocity": 99,
      "chip": "ym2612"
    },
    {
      "channel": 0,
      "note": 46,
      "start": 35.4093,
      "duration": 0.0676,
      "velocity": 83,
      "chip": "ym2612"
    },
    {
      "channel": 1,
      "note": 80,
      "start": 35.4107,
      "duration": 0.2515,
      "velocity": 99,
      "chip": "ym2612"
    },
    {
      "channel": 3,
      "note": 80,
      "start": 35.4557,
      "duration": 0.2505,
      "velocity": 99,
      "chip": "ym2612"
    },
    {
      "channel": 0,
      "note": 46,
      "start": 35.6838,
      "duration": 0.0676,
      "velocity": 83,
      "chip": "ym2612"
    },
    {
      "channel": 1,
      "note": 77,
      "start": 35.6852,
      "duration": 0.2494,
      "velocity": 99,
      "chip": "ym2612"
    },
    {
      "channel": 5,
      "note": 39,
      "start": 35.6898,
      "duration": 0.5441,
      "velocity": 126,
      "chip": "ym2612"
    },
    {
      "channel": 3,
      "note": 77,
      "start": 35.7302,
      "duration": 0.2504,
      "velocity": 99,
      "chip": "ym2612"
    },
    {
      "channel": 0,
      "note": 46,
      "start": 35.9591,
      "duration": 0.0688,
      "velocity": 83,
      "chip": "ym2612"
    },
    {
      "channel": 1,
      "note": 73,
      "start": 35.9606,
      "duration": 0.799,
      "velocity": 99,
      "chip": "ym2612"
    },
    {
      "channel": 3,
      "note": 73,
      "start": 36.0046,
      "duration": 0.7994,
      "velocity": 99,
      "chip": "ym2612"
    },
    {
      "channel": 0,
      "note": 46,
      "start": 36.2327,
      "duration": 0.0676,
      "velocity": 83,
      "chip": "ym2612"
    },
    {
      "channel": 5,
      "note": 0,
      "start": 36.2377,
      "duration": 0.2707,
      "velocity": 112,
      "chip": "ym2612"
    },
    {
      "channel": 0,
      "note": 46,
      "start": 36.5072,
      "duration": 0.0676,
      "velocity": 83,
      "chip": "ym2612"
    },
    {
      "channel": 5,
      "note": 54,
      "start": 36.5122,
      "duration": 0.2718,
      "velocity": 112,
      "chip": "ym2612"
    },
    {
      "channel": 0,
      "note": 46,
      "start": 36.7816,
      "duration": 0.0676,
      "velocity": 83,
      "chip": "ym2612"
    },
    {
      "channel": 1,
      "note": 80,
      "start": 36.7832,
      "duration": 0.2494,
      "velocity": 99,
      "chip": "ym2612"
    },
    {
      "channel": 5,
      "note": 54,
      "start": 36.7877,
      "duration": 0.5471,
      "velocity": 126,
      "chip": "ym2612"
    },
    {
      "channel": 3,
      "note": 80,
      "start": 36.828,
      "duration": 0.2505,
      "velocity": 99,
      "chip": "ym2612"
    },
    {
      "channel": 0,
      "note": 46,
      "start": 37.0563,
      "duration": 0.0688,
      "velocity": 83,
      "chip": "ym2612"
    },
    {
      "channel": 1,
      "note": 78,
      "start": 37.0578,
      "duration": 0.2492,
      "velocity": 99,
      "chip": "ym2612"
    },
    {
      "channel": 3,
      "note": 78,
      "start": 37.1025,
      "duration": 0.2505,
      "velocity": 99,
      "chip": "ym2612"
    },
    {
      "channel": 0,
      "note": 46,
      "start": 37.3308,
      "duration": 0.0674,
      "velocity": 83,
      "chip": "ym2612"
    },
    {
      "channel": 1,
      "note": 80,
      "start": 37.3324,
      "duration": 1.0724,
      "velocity": 99,
      "chip": "ym2612"
    },
    {
      "channel": 4,
      "note": 68,
      "start": 37.3344,
      "duration": 1.0711,
      "velocity": 93,
      "chip": "ym2612"
    },
    {
      "channel": 5,
      "note": 0,
      "start": 37.3388,
      "duration": 0.2675,
      "velocity": 112,
      "chip": "ym2612"
    },
    {
      "channel": 3,
      "note": 80,
      "start": 37.3772,
      "duration": 1.0737,
      "velocity": 99,
      "chip": "ym2612"
    },
    {
      "channel": 0,
      "note": 47,
      "start": 37.6051,
      "duration": 0.0676,
      "velocity": 83,
      "chip": "ym2612"
    },
    {
      "channel": 5,
      "note": 54,
      "start": 37.61,
      "duration": 0.1324,
      "velocity": 126,
      "chip": "ym2612"
    },
    {
      "channel": 5,
      "note": 15,
      "start": 37.7463,
      "duration": 0.2706,
      "velocity": 112,
      "chip": "ym2612"
    },
    {
      "channel": 0,
      "note": 47,
      "start": 37.8796,
      "duration": 0.0676,
      "velocity": 83,
      "chip": "ym2612"
    },
    {
      "channel": 5,
      "note": 54,
      "start": 38.0205,
      "duration": 0.1347,
      "velocity": 126,
      "chip": "ym2612"
    },
    {
      "channel": 0,
      "note": 47,
      "start": 38.154,
      "duration": 0.0686,
      "velocity": 83,
      "chip": "ym2612"
    },
    {
      "channel": 5,
      "note": 15,
      "start": 38.159,
      "duration": 0.2733,
      "velocity": 112,
      "chip": "ym2612"
    },
    {
      "channel": 0,
      "note": 47,
      "start": 38.4285,
      "duration": 0.0676,
      "velocity": 83,
      "chip": "ym2612"
    },
    {
      "channel": 1,
      "note": 78,
      "start": 38.43,
      "duration": 0.5123,
      "velocity": 99,
      "chip": "ym2612"
    },
    {
      "channel": 4,
      "note": 66,
      "start": 38.4319,
      "duration": 1.0714,
      "velocity": 93,
      "chip": "ym2612"
    },
    {
      "channel": 5,
      "note": 55,
      "start": 38.436,
      "duration": 0.2681,
      "velocity": 126,
      "chip": "ym2612"
    },
    {
      "channel": 3,
      "note": 78,
      "start": 38.4749,
      "duration": 0.5144,
      "velocity": 99,
      "chip": "ym2612"
    },
    {
      "channel": 0,
      "note": 49,
      "start": 38.7029,
      "duration": 0.0676,
      "velocity": 83,
      "chip": "ym2612"
    },
    {
      "channel": 5,
      "note": 0,
      "start": 38.7078,
      "duration": 0.2721,
      "velocity": 126,
      "chip": "ym2612"
    },
    {
      "channel": 0,
      "note": 49,
      "start": 38.9774,
      "duration": 0.0676,
      "velocity": 83,
      "chip": "ym2612"
    },
    {
      "channel": 1,
      "note": 82,
      "start": 38.979,
      "duration": 0.3866,
      "velocity": 99,
      "chip": "ym2612"
    },
    {
      "channel": 5,
      "note": 0,
      "start": 38.9836,
      "duration": 0.2695,
      "velocity": 126,
      "chip": "ym2612"
    },
    {
      "channel": 3,
      "note": 82,
      "start": 39.0253,
      "duration": 0.3862,
      "velocity": 99,
      "chip": "ym2612"
    },
    {
      "channel": 0,
      "note": 49,
      "start": 39.2519,
      "duration": 0.0679,
      "velocity": 83,
      "chip": "ym2612"
    },
    {
      "channel": 5,
      "note": 0,
      "start": 39.2569,
      "duration": 0.1347,
      "velocity": 123,
      "chip": "ym2612"
    },
    {
      "channel": 1,
      "note": 85,
      "start": 39.3908,
      "duration": 0.3298,
      "velocity": 99,
      "chip": "ym2612"
    },
    {
      "channel": 5,
      "note": 60,
      "start": 39.3954,
      "duration": 0.1379,
      "velocity": 126,
      "chip": "ym2612"
    },
    {
      "channel": 3,
      "note": 85,
      "start": 39.4355,
      "duration": 0.3305,
      "velocity": 99,
      "chip": "ym2612"
    },
    {
      "channel": 0,
      "note": 49,
      "start": 39.5265,
      "duration": 0.0789,
      "velocity": 83,
      "chip": "ym2612"
    },
    {
      "channel": 4,
      "note": 65,
      "start": 39.5329,
      "duration": 6.5692,
      "velocity": 79,
      "chip": "ym2612"
    },
    {
      "channel": 5,
      "note": 32,
      "start": 39.5373,
      "duration": 0.5519,
      "velocity": 112,
      "chip": "ym2612"
    },
    {
      "channel": 0,
      "note": 51,
      "start": 39.8123,
      "duration": 0.0676,
      "velocity": 83,
      "chip": "ym2612"
    },
    {
      "channel": 0,
      "note": 51,
      "start": 40.0869,
      "duration": 0.069,
      "velocity": 83,
      "chip": "ym2612"
    },
    {
      "channel": 1,
      "note": 75,
      "start": 40.0884,
      "duration": 0.5123,
      "velocity": 99,
      "chip": "ym2612"
    },
    {
      "channel": 5,
      "note": 38,
      "start": 40.0929,
      "duration": 0.5451,
      "velocity": 126,
      "chip": "ym2612"
    },
    {
      "channel": 3,
      "note": 75,
      "start": 40.1331,
      "duration": 0.5135,
      "velocity": 99,
      "chip": "ym2612"
    },
    {
      "channel": 0,
      "note": 51,
      "start": 40.3612,
      "duration": 0.0676,
      "velocity": 83,
      "chip": "ym2612"
    },
    {
      "channel": 0,
      "note": 51,
      "start": 40.6357,
      "duration": 0.0676,
      "velocity": 83,
      "chip": "ym2612"
    },
    {
      "channel": 1,
      "note": 75,
      "start": 40.6371,
      "duration": 0.5124,
      "velocity": 99,
      "chip": "ym2612"
    },
    {
      "channel": 5,
      "note": 0,
      "start": 40.6419,
      "duration": 0.2695,
      "velocity": 112,
      "chip": "ym2612"
    },
    {
      "channel": 3,
      "note": 75,
      "start": 40.6821,
      "duration": 0.5136,
      "velocity": 99,
      "chip": "ym2612"
    },
    {
      "channel": 0,
      "note": 51,
      "start": 40.9101,
      "duration": 0.0676,
      "velocity": 83,
      "chip": "ym2612"
    },
    {
      "channel": 5,
      "note": 54,
      "start": 40.9152,
      "duration": 0.2718,
      "velocity": 112,
      "chip": "ym2612"
    },
    {
      "channel": 0,
      "note": 51,
      "start": 41.1846,
      "duration": 0.0686,
      "velocity": 83,
      "chip": "ym2612"
    },
    {
      "channel": 1,
      "note": 78,
      "start": 41.1861,
      "duration": 0.5125,
      "velocity": 99,
      "chip": "ym2612"
    },
    {
      "channel": 5,
      "note": 54,
      "start": 41.1907,
      "duration": 0.5464,
      "velocity": 126,
      "chip": "ym2612"
    },
    {
      "channel": 3,
      "note": 78,
      "start": 41.231,
      "duration": 0.5136,
      "velocity": 99,
      "chip": "ym2612"
    },
    {
      "channel": 0,
      "note": 51,
      "start": 41.4591,
      "duration": 0.0676,
      "velocity": 83,
      "chip": "ym2612"
    },
    {
      "channel": 0,
      "note": 51,
      "start": 41.7337,
      "duration": 0.0674,
      "velocity": 83,
      "chip": "ym2612"
    },
    {
      "channel": 1,
      "note": 77,
      "start": 41.7354,
      "duration": 1.6214,
      "velocity": 99,
      "chip": "ym2612"
    },
    {
      "channel": 5,
      "note": 0,
      "start": 41.7411,
      "duration": 0.2681,
      "velocity": 112,
      "chip": "ym2612"
    },
    {
      "channel": 3,
      "note": 77,
      "start": 41.7802,
      "duration": 1.6227,
      "velocity": 99,
      "chip": "ym2612"
    },
    {
      "channel": 0,
      "note": 50,
      "start": 42.008,
      "duration": 0.0676,
      "velocity": 83,
      "chip": "ym2612"
    },
    {
      "channel": 5,
      "note": 54,
      "start": 42.0131,
      "duration": 0.2706,
      "velocity": 112,
      "chip": "ym2612"
    },
    {
      "channel": 0,
      "note": 50,
      "start": 42.2825,
      "duration": 0.0679,
      "velocity": 83,
      "chip": "ym2612"
    },
    {
      "channel": 5,
      "note": 54,
      "start": 42.2874,
      "duration": 0.5452,
      "velocity": 126,
      "chip": "ym2612"
    },
    {
      "channel": 0,
      "note": 50,
      "start": 42.5569,
      "duration": 0.0676,
      "velocity": 83,
      "chip": "ym2612"
    },
    {
      "channel": 0,
      "note": 50,
      "start": 42.8314,
      "duration": 0.0676,
      "velocity": 83,
      "chip": "ym2612"
    },
    {
      "channel": 5,
      "note": 0,
      "start": 42.8365,
      "duration": 0.5463,
      "velocity": 112,
      "chip": "ym2612"
    },
    {
      "channel": 0,
      "note": 50,
      "start": 43.1059,
      "duration": 0.0676,
      "velocity": 83,
      "chip": "ym2612"
    },
    {
      "channel": 0,
      "note": 50,
      "start": 43.3804,
      "duration": 0.0676,
      "velocity": 83,
      "chip": "ym2612"
    },
    {
      "channel": 1,
      "note": 70,
      "start": 43.3819,
      "duration": 0.2493,
      "velocity": 99,
      "chip": "ym2612"
    },
    {
      "channel": 5,
      "note": 39,
      "start": 43.3865,
      "duration": 0.5464,
      "velocity": 126,
      "chip": "ym2612"
    },
    {
      "channel": 3,
      "note": 70,
      "start": 43.4268,
      "duration": 0.2505,
      "velocity": 99,
      "chip": "ym2612"
    },
    {
      "channel": 0,
      "note": 50,
      "start": 43.6548,
      "duration": 0.0676,
      "velocity": 83,
      "chip": "ym2612"
    },
    {
      "channel": 1,
      "note": 68,
      "start": 43.6563,
      "duration": 0.2494,
      "velocity": 99,
      "chip": "ym2612"
    },
    {
      "channel": 3,
      "note": 68,
      "start": 43.7012,
      "duration": 0.2522,
      "velocity": 99,
      "chip": "ym2612"
    },
    {
      "channel": 0,
      "note": 50,
      "start": 43.9296,
      "duration": 0.0673,
      "velocity": 83,
      "chip": "ym2612"
    },
    {
      "channel": 1,
      "note": 70,
      "start": 43.9312,
      "duration": 1.6214,
      "velocity": 99,
      "chip": "ym2612"
    },
    {
      "channel": 5,
      "note": 0,
      "start": 43.9369,
      "duration": 0.5426,
      "velocity": 112,
      "chip": "ym2612"
    },
    {
      "channel": 3,
      "note": 70,
      "start": 43.9758,
      "duration": 1.6227,
      "velocity": 99,
      "chip": "ym2612"
    },
    {
      "channel": 0,
      "note": 49,
      "start": 44.2038,
      "duration": 0.0676,
      "velocity": 83,
      "chip": "ym2612"
    },
    {
      "channel": 0,
      "note": 49,
      "start": 44.4783,
      "duration": 0.0676,
      "velocity": 83,
      "chip": "ym2612"
    },
    {
      "channel": 5,
      "note": 39,
      "start": 44.4832,
      "duration": 0.5452,
      "velocity": 126,
      "chip": "ym2612"
    },
    {
      "channel": 0,
      "note": 49,
      "start": 44.7527,
      "duration": 0.0676,
      "velocity": 83,
      "chip": "ym2612"
    },
    {
      "channel": 0,
      "note": 49,
      "start": 45.0272,
      "duration": 0.0676,
      "velocity": 83,
      "chip": "ym2612"
    },
    {
      "channel": 5,
      "note": 0,
      "start": 45.0322,
      "duration": 0.2706,
      "velocity": 112,
      "chip": "ym2612"
    },
    {
      "channel": 0,
      "note": 49,
      "start": 45.3017,
      "duration": 0.0676,
      "velocity": 83,
      "chip": "ym2612"
    },
    {
      "channel": 5,
      "note": 54,
      "start": 45.3067,
      "duration": 0.2718,
      "velocity": 112,
      "chip": "ym2612"
    },
    {
      "channel": 0,
      "note": 49,
      "start": 45.5761,
      "duration": 0.0676,
      "velocity": 83,
      "chip": "ym2612"
    },
    {
      "channel": 1,
      "note": 66,
      "start": 45.5776,
      "duration": 0.2494,
      "velocity": 99,
      "chip": "ym2612"
    },
    {
      "channel": 5,
      "note": 54,
      "start": 45.5822,
      "duration": 0.547,
      "velocity": 126,
      "chip": "ym2612"
    },
    {
      "channel": 3,
      "note": 66,
      "start": 45.6225,
      "duration": 0.2505,
      "velocity": 99,
      "chip": "ym2612"
    },
    {
      "channel": 0,
      "note": 49,
      "start": 45.8524,
      "duration": 0.0658,
      "velocity": 83,
      "chip": "ym2612"
    },
    {
      "channel": 1,
      "note": 68,
      "start": 45.8539,
      "duration": 0.2476,
      "velocity": 99,
      "chip": "ym2612"
    },
    {
      "channel": 3,
      "note": 68,
      "start": 45.897,
      "duration": 0.251,
      "velocity": 99,
      "chip": "ym2612"
    },
    {
      "channel": 0,
      "note": 49,
      "start": 46.1253,
      "duration": 0.0674,
      "velocity": 83,
      "chip": "ym2612"
    },
    {
      "channel": 1,
      "note": 70,
      "start": 46.1269,
      "duration": 2.1703,
      "velocity": 99,
      "chip": "ym2612"
    },
    {
      "channel": 4,
      "note": 65,
      "start": 46.1288,
      "duration": 2.1691,
      "velocity": 79,
      "chip": "ym2612"
    },
    {
      "channel": 5,
      "note": 0,
      "start": 46.1333,
      "duration": 0.2675,
      "velocity": 112,
      "chip": "ym2612"
    },
    {
      "channel": 3,
      "note": 70,
      "start": 46.1716,
      "duration": 2.1716,
      "velocity": 99,
      "chip": "ym2612"
    },
    {
      "channel": 0,
      "note": 48,
      "start": 46.3995,
      "duration": 0.0676,
      "velocity": 83,
      "chip": "ym2612"
    },
    {
      "channel": 5,
      "note": 54,
      "start": 46.4046,
      "duration": 0.2706,
      "velocity": 112,
      "chip": "ym2612"
    },
    {
      "channel": 0,
      "note": 48,
      "start": 46.674,
      "duration": 0.0676,
      "velocity": 83,
      "chip": "ym2612"
    },
    {
      "channel": 5,
      "note": 54,
      "start": 46.6789,
      "duration": 0.5453,
      "velocity": 126,
      "chip": "ym2612"
    },
    {
      "channel": 0,
      "note": 48,
      "start": 46.9496,
      "duration": 0.0665,
      "velocity": 83,
      "chip": "ym2612"
    },
    {
      "channel": 0,
      "note": 48,
      "start": 47.223,
      "duration": 0.0676,
      "velocity": 83,
      "chip": "ym2612"
    },
    {
      "channel": 5,
      "note": 0,
      "start": 47.228,
      "duration": 0.2706,
      "velocity": 112,
      "chip": "ym2612"
    },
    {
      "channel": 0,
      "note": 48,
      "start": 47.4975,
      "duration": 0.0676,
      "velocity": 83,
      "chip": "ym2612"
    },
    {
      "channel": 5,
      "note": 54,
      "start": 47.5024,
      "duration": 0.2707,
      "velocity": 112,
      "chip": "ym2612"
    },
    {
      "channel": 0,
      "note": 48,
      "start": 47.7719,
      "duration": 0.0676,
      "velocity": 83,
      "chip": "ym2612"
    },
    {
      "channel": 5,
      "note": 54,
      "start": 47.7768,
      "duration": 0.2715,
      "velocity": 126,
      "chip": "ym2612"
    },
    {
      "channel": 0,
      "note": 48,
      "start": 48.047,
      "duration": 0.0689,
      "velocity": 83,
      "chip": "ym2612"
    },
    {
      "channel": 5,
      "note": 0,
      "start": 48.052,
      "duration": 0.272,
      "velocity": 112,
      "chip": "ym2612"
    },
    {
      "channel": 0,
      "note": 48,
      "start": 48.321,
      "duration": 0.0675,
      "velocity": 83,
      "chip": "ym2612"
    },
    {
      "channel": 4,
      "note": 63,
      "start": 48.3236,
      "duration": 6.5616,
      "velocity": 79,
      "chip": "ym2612"
    },
    {
      "channel": 5,
      "note": 55,
      "start": 48.328,
      "duration": 0.5441,
      "velocity": 112,
      "chip": "ym2612"
    },
    {
      "channel": 0,
      "note": 51,
      "start": 48.5953,
      "duration": 0.0676,
      "velocity": 83,
      "chip": "ym2612"
    },
    {
      "channel": 0,
      "note": 51,
      "start": 48.8698,
      "duration": 0.0676,
      "velocity": 83,
      "chip": "ym2612"
    },
    {
      "channel": 1,
      "note": 75,
      "start": 48.8712,
      "duration": 0.5124,
      "velocity": 99,
      "chip": "ym2612"
    },
    {
      "channel": 5,
      "note": 39,
      "start": 48.8758,
      "duration": 0.5453,
      "velocity": 126,
      "chip": "ym2612"
    },
    {
      "channel": 3,
      "note": 75,
      "start": 48.9162,
      "duration": 0.5136,
      "velocity": 99,
      "chip": "ym2612"
    },
    {
      "channel": 0,
      "note": 51,
      "start": 49.1444,
      "duration": 0.0689,
      "velocity": 83,
      "chip": "ym2612"
    },
    {
      "channel": 0,
      "note": 51,
      "start": 49.4188,
      "duration": 0.0676,
      "velocity": 83,
      "chip": "ym2612"
    },
    {
      "channel": 1,
      "note": 75,
      "start": 49.4202,
      "duration": 0.5124,
      "velocity": 99,
      "chip": "ym2612"
    },
    {
      "channel": 5,
      "note": 0,
      "start": 49.4249,
      "duration": 0.2695,
      "velocity": 112,
      "chip": "ym2612"
    },
    {
      "channel": 3,
      "note": 75,
      "start": 49.4651,
      "duration": 0.5149,
      "velocity": 99,
      "chip": "ym2612"
    },
    {
      "channel": 0,
      "note": 51,
      "start": 49.6932,
      "duration": 0.0676,
      "velocity": 83,
      "chip": "ym2612"
    },
    {
      "channel": 5,
      "note": 54,
      "start": 49.6983,
      "duration": 0.2718,
      "velocity": 112,
      "chip": "ym2612"
    },
    {
      "channel": 0,
      "note": 51,
      "start": 49.9677,
      "duration": 0.0676,
      "velocity": 83,
      "chip": "ym2612"
    },
    {
      "channel": 1,
      "note": 78,
      "start": 49.9691,
      "duration": 0.5124,
      "velocity": 99,
      "chip": "ym2612"
    },
    {
      "channel": 5,
      "note": 54,
      "start": 49.9737,
      "duration": 0.5464,
      "velocity": 126,
      "chip": "ym2612"
    },
    {
      "channel": 3,
      "note": 78,
      "start": 50.016,
      "duration": 0.5115,
      "velocity": 99,
      "chip": "ym2612"
    },
    {
      "channel": 0,
      "note": 51,
      "start": 50.2421,
      "duration": 0.0683,
      "velocity": 83,
      "chip": "ym2612"
    },
    {
      "channel": 0,
      "note": 51,
      "start": 50.5168,
      "duration": 0.0674,
      "velocity": 83,
      "chip": "ym2612"
    },
    {
      "channel": 1,
      "note": 77,
      "start": 50.5185,
      "duration": 1.6214,
      "velocity": 99,
      "chip": "ym2612"
    },
    {
      "channel": 5,
      "note": 0,
      "start": 50.5242,
      "duration": 0.2681,
      "velocity": 112,
      "chip": "ym2612"
    },
    {
      "channel": 3,
      "note": 77,
      "start": 50.5633,
      "duration": 1.6226,
      "velocity": 99,
      "chip": "ym2612"
    },
    {
      "channel": 0,
      "note": 50,
      "start": 50.7911,
      "duration": 0.0676,
      "velocity": 83,
      "chip": "ym2612"
    },
    {
      "channel": 5,
      "note": 54,
      "start": 50.7962,
      "duration": 0.2705,
      "velocity": 112,
      "chip": "ym2612"
    },
    {
      "channel": 0,
      "note": 50,
      "start": 51.0655,
      "duration": 0.0676,
      "velocity": 83,
      "chip": "ym2612"
    },
    {
      "channel": 5,
      "note": 54,
      "start": 51.0704,
      "duration": 0.5453,
      "velocity": 126,
      "chip": "ym2612"
    },
    {
      "channel": 0,
      "note": 50,
      "start": 51.34,
      "duration": 0.0678,
      "velocity": 83,
      "chip": "ym2612"
    },
    {
      "channel": 0,
      "note": 50,
      "start": 51.6145,
      "duration": 0.0676,
      "velocity": 83,
      "chip": "ym2612"
    },
    {
      "channel": 5,
      "note": 0,
      "start": 51.6195,
      "duration": 0.5464,
      "velocity": 112,
      "chip": "ym2612"
    },
    {
      "channel": 0,
      "note": 50,
      "start": 51.889,
      "duration": 0.0676,
      "velocity": 83,
      "chip": "ym2612"
    },
    {
      "channel": 0,
      "note": 50,
      "start": 52.1635,
      "duration": 0.0676,
      "velocity": 83,
      "chip": "ym2612"
    },
    {
      "channel": 1,
      "note": 82,
      "start": 52.165,
      "duration": 0.2493,
      "velocity": 99,
      "chip": "ym2612"
    },
    {
      "channel": 5,
      "note": 39,
      "start": 52.1696,
      "duration": 0.5464,
      "velocity": 126,
      "chip": "ym2612"
    },
    {
      "channel": 3,
      "note": 82,
      "start": 52.2106,
      "duration": 0.2497,
      "velocity": 99,
      "chip": "ym2612"
    },
    {
      "channel": 0,
      "note": 50,
      "start": 52.4379,
      "duration": 0.0676,
      "velocity": 83,
      "chip": "ym2612"
    },
    {
      "channel": 1,
      "note": 80,
      "start": 52.4394,
      "duration": 0.2494,
      "velocity": 99,
      "chip": "ym2612"
    },
    {
      "channel": 3,
      "note": 80,
      "start": 52.4844,
      "duration": 0.2505,
      "velocity": 99,
      "chip": "ym2612"
    },
    {
      "channel": 0,
      "note": 50,
      "start": 52.7126,
      "duration": 0.0673,
      "velocity": 83,
      "chip": "ym2612"
    },
    {
      "channel": 1,
      "note": 82,
      "start": 52.7143,
      "duration": 1.6212,
      "velocity": 99,
      "chip": "ym2612"
    },
    {
      "channel": 5,
      "note": 0,
      "start": 52.72,
      "duration": 0.5425,
      "velocity": 112,
      "chip": "ym2612"
    },
    {
      "channel": 3,
      "note": 82,
      "start": 52.759,
      "duration": 1.6226,
      "velocity": 99,
      "chip": "ym2612"
    },
    {
      "channel": 0,
      "note": 49,
      "start": 52.9868,
      "duration": 0.0676,
      "velocity": 83,
      "chip": "ym2612"
    },
    {
      "channel": 0,
      "note": 49,
      "start": 53.2613,
      "duration": 0.0676,
      "velocity": 83,
      "chip": "ym2612"
    },
    {
      "channel": 5,
      "note": 39,
      "start": 53.2662,
      "duration": 0.5473,
      "velocity": 126,
      "chip": "ym2612"
    },
    {
      "channel": 0,
      "note": 49,
      "start": 53.5358,
      "duration": 0.0676,
      "velocity": 83,
      "chip": "ym2612"
    },
    {
      "channel": 0,
      "note": 49,
      "start": 53.8123,
      "duration": 0.0655,
      "velocity": 83,
      "chip": "ym2612"
    },
    {
      "channel": 5,
      "note": 0,
      "start": 53.8174,
      "duration": 0.2686,
      "velocity": 112,
      "chip": "ym2612"
    },
    {
      "channel": 0,
      "note": 49,
      "start": 54.0847,
      "duration": 0.0676,
      "velocity": 83,
      "chip": "ym2612"
    },
    {
      "channel": 5,
      "note": 55,
      "start": 54.0898,
      "duration": 0.2719,
      "velocity": 112,
      "chip": "ym2612"
    },
    {
      "channel": 0,
      "note": 49,
      "start": 54.3592,
      "duration": 0.0676,
      "velocity": 83,
      "chip": "ym2612"
    },
    {
      "channel": 1,
      "note": 87,
      "start": 54.3607,
      "duration": 0.2494,
      "velocity": 99,
      "chip": "ym2612"
    },
    {
      "channel": 5,
      "note": 54,
      "start": 54.3654,
      "duration": 0.5483,
      "velocity": 126,
      "chip": "ym2612"
    },
    {
      "channel": 3,
      "note": 87,
      "start": 54.4056,
      "duration": 0.2505,
      "velocity": 99,
      "chip": "ym2612"
    },
    {
      "channel": 0,
      "note": 49,
      "start": 54.6337,
      "duration": 0.0676,
      "velocity": 83,
      "chip": "ym2612"
    },
    {
      "channel": 1,
      "note": 89,
      "start": 54.6352,
      "duration": 0.2494,
      "velocity": 99,
      "chip": "ym2612"
    },
    {
      "channel": 3,
      "note": 89,
      "start": 54.6802,
      "duration": 0.2504,
      "velocity": 99,
      "chip": "ym2612"
    },
    {
      "channel": 0,
      "note": 49,
      "start": 54.9096,
      "duration": 0.0661,
      "velocity": 83,
      "chip": "ym2612"
    },
    {
      "channel": 1,
      "note": 90,
      "start": 54.9113,
      "duration": 0.5107,
      "velocity": 99,
      "chip": "ym2612"
    },
    {
      "channel": 4,
      "note": 65,
      "start": 54.9133,
      "duration": 2.1676,
      "velocity": 79,
      "chip": "ym2612"
    },
    {
      "channel": 5,
      "note": 0,
      "start": 54.9177,
      "duration": 0.2661,
      "velocity": 112,
      "chip": "ym2612"
    },
    {
      "channel": 3,
      "note": 90,
      "start": 54.9547,
      "duration": 0.5134,
      "velocity": 99,
      "chip": "ym2612"
    },
    {
      "channel": 0,
      "note": 48,
      "start": 55.1826,
      "duration": 0.0676,
      "velocity": 83,
      "chip": "ym2612"
    },
    {
      "channel": 5,
      "note": 55,
      "start": 55.1876,
      "duration": 0.272,
      "velocity": 112,
      "chip": "ym2612"
    },
    {
      "channel": 0,
      "note": 48,
      "start": 55.4571,
      "duration": 0.0676,
      "velocity": 83,
      "chip": "ym2612"
    },
    {
      "channel": 1,
      "note": 87,
      "start": 55.4586,
      "duration": 0.5126,
      "velocity": 99,
      "chip": "ym2612"
    },
    {
      "channel": 5,
      "note": 54,
      "start": 55.4632,
      "duration": 0.5459,
      "velocity": 126,
      "chip": "ym2612"
    },
    {
      "channel": 3,
      "note": 87,
      "start": 55.5035,
      "duration": 0.5135,
      "velocity": 99,
      "chip": "ym2612"
    },
    {
      "channel": 0,
      "note": 48,
      "start": 55.7316,
      "duration": 0.0676,
      "velocity": 83,
      "chip": "ym2612"
    },
    {
      "channel": 0,
      "note": 48,
      "start": 56.0067,
      "duration": 0.0689,
      "velocity": 83,
      "chip": "ym2612"
    },
    {
      "channel": 1,
      "note": 82,
      "start": 56.0083,
      "duration": 0.5116,
      "velocity": 99,
      "chip": "ym2612"
    },
    {
      "channel": 5,
      "note": 0,
      "start": 56.013,
      "duration": 0.2686,
      "velocity": 112,
      "chip": "ym2612"
    },
    {
      "channel": 3,
      "note": 82,
      "start": 56.0524,
      "duration": 0.5135,
      "velocity": 99,
      "chip": "ym2612"
    },
    {
      "channel": 0,
      "note": 48,
      "start": 56.2805,
      "duration": 0.0676,
      "velocity": 83,
      "chip": "ym2612"
    },
    {
      "channel": 5,
      "note": 55,
      "start": 56.2855,
      "duration": 0.2718,
      "velocity": 112,
      "chip": "ym2612"
    },
    {
      "channel": 0,
      "note": 48,
      "start": 56.555,
      "duration": 0.0676,
      "velocity": 83,
      "chip": "ym2612"
    },
    {
      "channel": 1,
      "note": 80,
      "start": 56.5564,
      "duration": 0.5125,
      "velocity": 99,
      "chip": "ym2612"
    },
    {
      "channel": 5,
      "note": 54,
      "start": 56.561,
      "duration": 0.2697,
      "velocity": 126,
      "chip": "ym2612"
    },
    {
      "channel": 3,
      "note": 80,
      "start": 56.6013,
      "duration": 0.5136,
      "velocity": 99,
      "chip": "ym2612"
    },
    {
      "channel": 0,
      "note": 48,
      "start": 56.8295,
      "duration": 0.0676,
      "velocity": 83,
      "chip": "ym2612"
    },
    {
      "channel": 5,
      "note": 0,
      "start": 56.8345,
      "duration": 0.2717,
      "velocity": 112,
      "chip": "ym2612"
    },
    {
      "channel": 0,
      "note": 48,
      "start": 57.1042,
      "duration": 0.0687,
      "velocity": 83,
      "chip": "ym2612"
    },
    {
      "channel": 5,
      "note": 54,
      "start": 57.1102,
      "duration": 0.5497,
      "velocity": 112,
      "chip": "ym2612"
    },
    {
      "channel": 0,
      "note": 47,
      "start": 57.3784,
      "duration": 0.0676,
      "velocity": 83,
      "chip": "ym2612"
    },
    {
      "channel": 0,
      "note": 47,
      "start": 57.6529,
      "duration": 0.079,
      "velocity": 83,
      "chip": "ym2612"
    },
    {
      "channel": 1,
      "note": 78,
      "start": 57.6543,
      "duration": 0.5239,
      "velocity": 99,
      "chip": "ym2612"
    },
    {
      "channel": 4,
      "note": 63,
      "start": 57.6595,
      "duration": 0.5193,
      "velocity": 93,
      "chip": "ym2612"
    },
    {
      "channel": 5,
      "note": 41,
      "start": 57.6636,
      "duration": 0.5535,
      "velocity": 126,
      "chip": "ym2612"
    },
    {
      "channel": 3,
      "note": 78,
      "start": 57.7107,
      "duration": 0.5136,
      "velocity": 99,
      "chip": "ym2612"
    },
    {
      "channel": 0,
      "note": 47,
      "start": 57.9402,
      "duration": 0.0662,
      "velocity": 83,
      "chip": "ym2612"
    },
    {
      "channel": 0,
      "note": 47,
      "start": 58.2133,
      "duration": 0.0676,
      "velocity": 83,
      "chip": "ym2612"
    },
    {
      "channel": 1,
      "note": 75,
      "start": 58.2148,
      "duration": 0.5123,
      "velocity": 99,
      "chip": "ym2612"
    },
    {
      "channel": 4,
      "note": 75,
      "start": 58.2167,
      "duration": 0.5111,
      "velocity": 93,
      "chip": "ym2612"
    },
    {
      "channel": 5,
      "note": 0,
      "start": 58.2209,
      "duration": 0.268,
      "velocity": 112,
      "chip": "ym2612"
    },
    {
      "channel": 3,
      "note": 75,
      "start": 58.2596,
      "duration": 0.5135,
      "velocity": 99,
      "chip": "ym2612"
    },
    {
      "channel": 0,
      "note": 47,
      "start": 58.4877,
      "duration": 0.0676,
      "velocity": 83,
      "chip": "ym2612"
    },
    {
      "channel": 5,
      "note": 54,
      "start": 58.4927,
      "duration": 0.2733,
      "velocity": 112,
      "chip": "ym2612"
    },
    {
      "channel": 0,
      "note": 47,
      "start": 58.7622,
      "duration": 0.0676,
      "velocity": 83,
      "chip": "ym2612"
    },
    {
      "channel": 1,
      "note": 78,
      "start": 58.7637,
      "duration": 0.5123,
      "velocity": 99,
      "chip": "ym2612"
    },
    {
      "channel": 4,
      "note": 68,
      "start": 58.7656,
      "duration": 0.5111,
      "velocity": 93,
      "chip": "ym2612"
    },
    {
      "channel": 5,
      "note": 54,
      "start": 58.7697,
      "duration": 0.5458,
      "velocity": 126,
      "chip": "ym2612"
    },
    {
      "channel": 3,
      "note": 78,
      "start": 58.8086,
      "duration": 0.5142,
      "velocity": 99,
      "chip": "ym2612"
    },
    {
      "channel": 0,
      "note": 47,
      "start": 59.0377,
      "duration": 0.0688,
      "velocity": 83,
      "chip": "ym2612"
    },
    {
      "channel": 0,
      "note": 47,
      "start": 59.3113,
      "duration": 0.0674,
      "velocity": 83,
      "chip": "ym2612"
    },
    {
      "channel": 1,
      "note": 82,
      "start": 59.313,
      "duration": 1.3011,
      "velocity": 99,
      "chip": "ym2612"
    },
    {
      "channel": 4,
      "note": 65,
      "start": 59.315,
      "duration": 1.0709,
      "velocity": 93,
      "chip": "ym2612"
    },
    {
      "channel": 5,
      "note": 0,
      "start": 59.3194,
      "duration": 0.2674,
      "velocity": 112,
      "chip": "ym2612"
    },
    {
      "channel": 3,
      "note": 82,
      "start": 59.3577,
      "duration": 1.3024,
      "velocity": 99,
      "chip": "ym2612"
    },
    {
      "channel": 0,
      "note": 46,
      "start": 59.5856,
      "duration": 0.0676,
      "velocity": 83,
      "chip": "ym2612"
    },
    {
      "channel": 5,
      "note": 54,
      "start": 59.5906,
      "duration": 0.2707,
      "velocity": 112,
      "chip": "ym2612"
    },
    {
      "channel": 0,
      "note": 46,
      "start": 59.86,
      "duration": 0.0676,
      "velocity": 83,
      "chip": "ym2612"
    },
    {
      "channel": 5,
      "note": 54,
      "start": 59.865,
      "duration": 0.5465,
      "velocity": 126,
      "chip": "ym2612"
    },
    {
      "channel": 0,
      "note": 46,
      "start": 60.1349,
      "duration": 0.069,
      "velocity": 83,
      "chip": "ym2612"
    },
    {
      "channel": 0,
      "note": 46,
      "start": 60.409,
      "duration": 0.0676,
      "velocity": 83,
      "chip": "ym2612"
    },
    {
      "channel": 4,
      "note": 66,
      "start": 60.4111,
      "duration": 1.0728,
      "velocity": 93,
      "chip": "ym2612"
    },
    {
      "channel": 5,
      "note": 0,
      "start": 60.4154,
      "duration": 0.5449,
      "velocity": 112,
      "chip": "ym2612"
    },
    {
      "channel": 0,
      "note": 46,
      "start": 60.6835,
      "duration": 0.0676,
      "velocity": 83,
      "chip": "ym2612"
    },
    {
      "channel": 1,
      "note": 80,
      "start": 60.6849,
      "duration": 0.2505,
      "velocity": 99,
      "chip": "ym2612"
    },
    {
      "channel": 3,
      "note": 80,
      "start": 60.7299,
      "duration": 0.2504,
      "velocity": 99,
      "chip": "ym2612"
    },
    {
      "channel": 0,
      "note": 46,
      "start": 60.958,
      "duration": 0.0676,
      "velocity": 83,
      "chip": "ym2612"
    },
    {
      "channel": 1,
      "note": 77,
      "start": 60.9594,
      "duration": 0.2494,
      "velocity": 99,
      "chip": "ym2612"
    },
    {
      "channel": 5,
      "note": 39,
      "start": 60.9641,
      "duration": 0.5471,
      "velocity": 126,
      "chip": "ym2612"
    },
    {
      "channel": 3,
      "note": 77,
      "start": 61.0065,
      "duration": 0.2483,
      "velocity": 99,
      "chip": "ym2612"
    },
    {
      "channel": 0,
      "note": 46,
      "start": 61.2324,
      "duration": 0.0687,
      "velocity": 83,
      "chip": "ym2612"
    },
    {
      "channel": 1,
      "note": 73,
      "start": 61.2339,
      "duration": 0.2494,
      "velocity": 99,
      "chip": "ym2612"
    },
    {
      "channel": 3,
      "note": 73,
      "start": 61.2788,
      "duration": 0.2505,
      "velocity": 99,
      "chip": "ym2612"
    },
    {
      "channel": 0,
      "note": 46,
      "start": 61.5071,
      "duration": 0.0674,
      "velocity": 83,
      "chip": "ym2612"
    },
    {
      "channel": 1,
      "note": 70,
      "start": 61.5087,
      "duration": 0.798,
      "velocity": 99,
      "chip": "ym2612"
    },
    {
      "channel": 4,
      "note": 65,
      "start": 61.5107,
      "duration": 2.1688,
      "velocity": 93,
      "chip": "ym2612"
    },
    {
      "channel": 5,
      "note": 0,
      "start": 61.5152,
      "duration": 0.5418,
      "velocity": 112,
      "chip": "ym2612"
    },
    {
      "channel": 3,
      "note": 70,
      "start": 61.5534,
      "duration": 0.7993,
      "velocity": 99,
      "chip": "ym2612"
    },
    {
      "channel": 0,
      "note": 51,
      "start": 61.7814,
      "duration": 0.0676,
      "velocity": 83,
      "chip": "ym2612"
    },
    {
      "channel": 0,
      "note": 51,
      "start": 62.0558,
      "duration": 0.0676,
      "velocity": 83,
      "chip": "ym2612"
    },
    {
      "channel": 5,
      "note": 39,
      "start": 62.0607,
      "duration": 0.5452,
      "velocity": 126,
      "chip": "ym2612"
    },
    {
      "channel": 0,
      "note": 51,
      "start": 62.3303,
      "duration": 0.0681,
      "velocity": 83,
      "chip": "ym2612"
    },
    {
      "channel": 1,
      "note": 77,
      "start": 62.3317,
      "duration": 3.5431,
      "velocity": 99,
      "chip": "ym2612"
    },
    {
      "channel": 3,
      "note": 77,
      "start": 62.3767,
      "duration": 3.5441,
      "velocity": 99,
      "chip": "ym2612"
    },
    {
      "channel": 0,
      "note": 51,
      "start": 62.6048,
      "duration": 0.0676,
      "velocity": 83,
      "chip": "ym2612"
    },
    {
      "channel": 5,
      "note": 0,
      "start": 62.6097,
      "duration": 0.2707,
      "velocity": 112,
      "chip": "ym2612"
    },
    {
      "channel": 0,
      "note": 51,
      "start": 62.8793,
      "duration": 0.0676,
      "velocity": 83,
      "chip": "ym2612"
    },
    {
      "channel": 5,
      "note": 54,
      "start": 62.8843,
      "duration": 0.2706,
      "velocity": 112,
      "chip": "ym2612"
    },
    {
      "channel": 0,
      "note": 51,
      "start": 63.1537,
      "duration": 0.0676,
      "velocity": 83,
      "chip": "ym2612"
    },
    {
      "channel": 5,
      "note": 54,
      "start": 63.1586,
      "duration": 0.5476,
      "velocity": 126,
      "chip": "ym2612"
    },
    {
      "channel": 0,
      "note": 51,
      "start": 63.4282,
      "duration": 0.0676,
      "velocity": 83,
      "chip": "ym2612"
    },
    {
      "channel": 0,
      "note": 51,
      "start": 63.7028,
      "duration": 0.0674,
      "velocity": 83,
      "chip": "ym2612"
    },
    {
      "channel": 4,
      "note": 68,
      "start": 63.7059,
      "duration": 2.1696,
      "velocity": 93,
      "chip": "ym2612"
    },
    {
      "channel": 5,
      "note": 0,
      "start": 63.7102,
      "duration": 0.268,
      "velocity": 112,
      "chip": "ym2612"
    },
    {
      "channel": 0,
      "note": 51,
      "start": 63.9771,
      "duration": 0.0676,
      "velocity": 83,
      "chip": "ym2612"
    },
    {
      "channel": 5,
      "note": 54,
      "start": 63.9822,
      "duration": 0.2705,
      "velocity": 112,
      "chip": "ym2612"
    },
    {
      "channel": 0,
      "note": 51,
      "start": 64.2516,
      "duration": 0.0676,
      "velocity": 83,
      "chip": "ym2612"
    },
    {
      "channel": 5,
      "note": 54,
      "start": 64.2564,
      "duration": 0.5453,
      "velocity": 126,
      "chip": "ym2612"
    },
    {
      "channel": 0,
      "note": 51,
      "start": 64.526,
      "duration": 0.0676,
      "velocity": 83,
      "chip": "ym2612"
    },
    {
      "channel": 0,
      "note": 51,
      "start": 64.8005,
      "duration": 0.0676,
      "velocity": 83,
      "chip": "ym2612"
    },
    {
      "channel": 5,
      "note": 0,
      "start": 64.8055,
      "duration": 0.2707,
      "velocity": 112,
      "chip": "ym2612"
    },
    {
      "channel": 0,
      "note": 51,
      "start": 65.075,
      "duration": 0.0676,
      "velocity": 83,
      "chip": "ym2612"
    },
    {
      "channel": 5,
      "note": 54,
      "start": 65.0801,
      "duration": 0.2705,
      "velocity": 112,
      "chip": "ym2612"
    },
    {
      "channel": 0,
      "note": 51,
      "start": 65.3494,
      "duration": 0.0676,
      "velocity": 83,
      "chip": "ym2612"
    },
    {
      "channel": 5,
      "note": 54,
      "start": 65.3543,
      "duration": 0.2708,
      "velocity": 126,
      "chip": "ym2612"
    },
    {
      "channel": 0,
      "note": 51,
      "start": 65.6239,
      "duration": 0.0676,
      "velocity": 83,
      "chip": "ym2612"
    },
    {
      "channel": 5,
      "note": 0,
      "start": 65.629,
      "duration": 0.2742,
      "velocity": 112,
      "chip": "ym2612"
    },
    {
      "channel": 0,
      "note": 51,
      "start": 65.9002,
      "duration": 0.0658,
      "velocity": 83,
      "chip": "ym2612"
    },
    {
      "channel": 1,
      "note": 75,
      "start": 65.9018,
      "duration": 1.2996,
      "velocity": 99,
      "chip": "ym2612"
    },
    {
      "channel": 5,
      "note": 54,
      "start": 65.9071,
      "duration": 0.5428,
      "velocity": 112,
      "chip": "ym2612"
    },
    {
      "channel": 3,
      "note": 75,
      "start": 65.945,
      "duration": 1.3025,
      "velocity": 99,
      "chip": "ym2612"
    },
    {
      "channel": 0,
      "note": 47,
      "start": 66.1729,
      "duration": 0.0676,
      "velocity": 83,
      "chip": "ym2612"
    },
    {
      "channel": 0,
      "note": 47,
      "start": 66.4473,
      "duration": 0.0676,
      "velocity": 83,
      "chip": "ym2612"
    },
    {
      "channel": 4,
      "note": 66,
      "start": 66.4495,
      "duration": 0.513,
      "velocity": 93,
      "chip": "ym2612"
    },
    {
      "channel": 5,
      "note": 41,
      "start": 66.4536,
      "duration": 0.5463,
      "velocity": 126,
      "chip": "ym2612"
    },
    {
      "channel": 0,
      "note": 47,
      "start": 66.7218,
      "duration": 0.0676,
      "velocity": 83,
      "chip": "ym2612"
    },
    {
      "channel": 0,
      "note": 47,
      "start": 66.9974,
      "duration": 0.0665,
      "velocity": 83,
      "chip": "ym2612"
    },
    {
      "channel": 4,
      "note": 75,
      "start": 66.9995,
      "duration": 0.5111,
      "velocity": 93,
      "chip": "ym2612"
    },
    {
      "channel": 5,
      "note": 0,
      "start": 67.0038,
      "duration": 0.2694,
      "velocity": 112,
      "chip": "ym2612"
    },
    {
      "channel": 0,
      "note": 47,
      "start": 67.2707,
      "duration": 0.0676,
      "velocity": 83,
      "chip": "ym2612"
    },
    {
      "channel": 1,
      "note": 78,
      "start": 67.2723,
      "duration": 0.2494,
      "velocity": 99,
      "chip": "ym2612"
    },
    {
      "channel": 5,
      "note": 55,
      "start": 67.277,
      "duration": 0.272,
      "velocity": 112,
      "chip": "ym2612"
    },
    {
      "channel": 3,
      "note": 78,
      "start": 67.3171,
      "duration": 0.2505,
      "velocity": 99,
      "chip": "ym2612"
    },
    {
      "channel": 0,
      "note": 47,
      "start": 67.5452,
      "duration": 0.0676,
      "velocity": 83,
      "chip": "ym2612"
    },
    {
      "channel": 1,
      "note": 75,
      "start": 67.5468,
      "duration": 0.2512,
      "velocity": 99,
      "chip": "ym2612"
    },
    {
      "channel": 4,
      "note": 68,
      "start": 67.5486,
      "duration": 0.5112,
      "velocity": 93,
      "chip": "ym2612"
    },
    {
      "channel": 5,
      "note": 54,
      "start": 67.5527,
      "duration": 0.5458,
      "velocity": 126,
      "chip": "ym2612"
    },
    {
      "channel": 3,
      "note": 75,
      "start": 67.5916,
      "duration": 0.2505,
      "velocity": 99,
      "chip": "ym2612"
    },
    {
      "channel": 0,
      "note": 47,
      "start": 67.8197,
      "duration": 0.0676,
      "velocity": 83,
      "chip": "ym2612"
    },
    {
      "channel": 1,
      "note": 78,
      "start": 67.8212,
      "duration": 0.7869,
      "velocity": 99,
      "chip": "ym2612"
    },
    {
      "channel": 3,
      "note": 78,
      "start": 67.8661,
      "duration": 0.788,
      "velocity": 99,
      "chip": "ym2612"
    },
    {
      "channel": 0,
      "note": 47,
      "start": 68.095,
      "duration": 0.0687,
      "velocity": 83,
      "chip": "ym2612"
    },
    {
      "channel": 4,
      "note": 65,
      "start": 68.0981,
      "duration": 1.0709,
      "velocity": 93,
      "chip": "ym2612"
    },
    {
      "channel": 5,
      "note": 0,
      "start": 68.1025,
      "duration": 0.2674,
      "velocity": 112,
      "chip": "ym2612"
    },
    {
      "channel": 0,
      "note": 46,
      "start": 68.3686,
      "duration": 0.0676,
      "velocity": 83,
      "chip": "ym2612"
    },
    {
      "channel": 5,
      "note": 55,
      "start": 68.3737,
      "duration": 0.2718,
      "velocity": 112,
      "chip": "ym2612"
    },
    {
      "channel": 0,
      "note": 46,
      "start": 68.6431,
      "duration": 0.0676,
      "velocity": 83,
      "chip": "ym2612"
    },
    {
      "channel": 1,
      "note": 77,
      "start": 68.6446,
      "duration": 0.5124,
      "velocity": 99,
      "chip": "ym2612"
    },
    {
      "channel": 5,
      "note": 54,
      "start": 68.6492,
      "duration": 0.5466,
      "velocity": 126,
      "chip": "ym2612"
    },
    {
      "channel": 3,
      "note": 77,
      "start": 68.6895,
      "duration": 0.5136,
      "velocity": 99,
      "chip": "ym2612"
    },
    {
      "channel": 0,
      "note": 46,
      "start": 68.9176,
      "duration": 0.0676,
      "velocity": 83,
      "chip": "ym2612"
    },
    {
      "channel": 0,
      "note": 46,
      "start": 69.192,
      "duration": 0.0688,
      "velocity": 83,
      "chip": "ym2612"
    },
    {
      "channel": 1,
      "note": 73,
      "start": 69.1935,
      "duration": 0.5125,
      "velocity": 99,
      "chip": "ym2612"
    },
    {
      "channel": 4,
      "note": 66,
      "start": 69.1954,
      "duration": 1.0714,
      "velocity": 93,
      "chip": "ym2612"
    },
    {
      "channel": 5,
      "note": 0,
      "start": 69.1997,
      "duration": 0.5437,
      "velocity": 112,
      "chip": "ym2612"
    },
    {
      "channel": 3,
      "note": 73,
      "start": 69.2384,
      "duration": 0.5136,
      "velocity": 99,
      "chip": "ym2612"
    },
    {
      "channel": 0,
      "note": 46,
      "start": 69.4665,
      "duration": 0.0676,
      "velocity": 83,
      "chip": "ym2612"
    },
    {
      "channel": 0,
      "note": 46,
      "start": 69.741,
      "duration": 0.0676,
      "velocity": 83,
      "chip": "ym2612"
    },
    {
      "channel": 1,
      "note": 73,
      "start": 69.7425,
      "duration": 0.5124,
      "velocity": 99,
      "chip": "ym2612"
    },
    {
      "channel": 5,
      "note": 41,
      "start": 69.7471,
      "duration": 0.5471,
      "velocity": 126,
      "chip": "ym2612"
    },
    {
      "channel": 3,
      "note": 73,
      "start": 69.7874,
      "duration": 0.5135,
      "velocity": 99,
      "chip": "ym2612"
    },
    {
      "channel": 0,
      "note": 46,
      "start": 70.0155,
      "duration": 0.0676,
      "velocity": 83,
      "chip": "ym2612"
    },
    {
      "channel": 0,
      "note": 46,
      "start": 70.2901,
      "duration": 0.0681,
      "velocity": 83,
      "chip": "ym2612"
    },
    {
      "channel": 1,
      "note": 77,
      "start": 70.2917,
      "duration": 2.1704,
      "velocity": 99,
      "chip": "ym2612"
    },
    {
      "channel": 4,
      "note": 65,
      "start": 70.2938,
      "duration": 2.169,
      "velocity": 93,
      "chip": "ym2612"
    },
    {
      "channel": 5,
      "note": 0,
      "start": 70.2983,
      "duration": 0.5418,
      "velocity": 112,
      "chip": "ym2612"
    },
    {
      "channel": 3,
      "note": 77,
      "start": 70.3365,
      "duration": 2.1717,
      "velocity": 99,
      "chip": "ym2612"
    },
    {
      "channel": 0,
      "note": 51,
      "start": 70.5644,
      "duration": 0.0676,
      "velocity": 83,
      "chip": "ym2612"
    },
    {
      "channel": 0,
      "note": 51,
      "start": 70.8389,
      "duration": 0.0676,
      "velocity": 83,
      "chip": "ym2612"
    },
    {
      "channel": 5,
      "note": 41,
      "start": 70.8438,
      "duration": 0.5452,
      "velocity": 126,
      "chip": "ym2612"
    },
    {
      "channel": 0,
      "note": 51,
      "start": 71.1134,
      "duration": 0.0675,
      "velocity": 83,
      "chip": "ym2612"
    },
    {
      "channel": 0,
      "note": 51,
      "start": 71.3878,
      "duration": 0.0678,
      "velocity": 83,
      "chip": "ym2612"
    },
    {
      "channel": 5,
      "note": 0,
      "start": 71.3928,
      "duration": 0.2707,
      "velocity": 112,
      "chip": "ym2612"
    },
    {
      "channel": 0,
      "note": 51,
      "start": 71.6623,
      "duration": 0.0676,
      "velocity": 83,
      "chip": "ym2612"
    },
    {
      "channel": 5,
      "note": 55,
      "start": 71.6674,
      "duration": 0.2706,
      "velocity": 112,
      "chip": "ym2612"
    },
    {
      "channel": 0,
      "note": 51,
      "start": 71.9368,
      "duration": 0.0676,
      "velocity": 83,
      "chip": "ym2612"
    },
    {
      "channel": 5,
      "note": 54,
      "start": 71.9417,
      "duration": 0.5483,
      "velocity": 126,
      "chip": "ym2612"
    },
    {
      "channel": 0,
      "note": 51,
      "start": 72.2112,
      "duration": 0.0676,
      "velocity": 83,
      "chip": "ym2612"
    },
    {
      "channel": 0,
      "note": 51,
      "start": 72.4859,
      "duration": 0.0674,
      "velocity": 83,
      "chip": "ym2612"
    },
    {
      "channel": 1,
      "note": 77,
      "start": 72.4875,
      "duration": 2.1703,
      "velocity": 99,
      "chip": "ym2612"
    },
    {
      "channel": 4,
      "note": 68,
      "start": 72.4895,
      "duration": 2.169,
      "velocity": 93,
      "chip": "ym2612"
    },
    {
      "channel": 5,
      "note": 0,
      "start": 72.4939,
      "duration": 0.2674,
      "velocity": 112,
      "chip": "ym2612"
    },
    {
      "channel": 3,
      "note": 77,
      "start": 72.5322,
      "duration": 2.1716,
      "velocity": 99,
      "chip": "ym2612"
    },
    {
      "channel": 0,
      "note": 51,
      "start": 72.7602,
      "duration": 0.0676,
      "velocity": 83,
      "chip": "ym2612"
    },
    {
      "channel": 5,
      "note": 55,
      "start": 72.7652,
      "duration": 0.2706,
      "velocity": 112,
      "chip": "ym2612"
    },
    {
      "channel": 0,
      "note": 51,
      "start": 73.0347,
      "duration": 0.0676,
      "velocity": 83,
      "chip": "ym2612"
    },
    {
      "channel": 5,
      "note": 54,
      "start": 73.0395,
      "duration": 0.5453,
      "velocity": 126,
      "chip": "ym2612"
    },
    {
      "channel": 0,
      "note": 51,
      "start": 73.3091,
      "duration": 0.0676,
      "velocity": 83,
      "chip": "ym2612"
    },
    {
      "channel": 0,
      "note": 51,
      "start": 73.5836,
      "duration": 0.0676,
      "velocity": 83,
      "chip": "ym2612"
    },
    {
      "channel": 5,
      "note": 0,
      "start": 73.5886,
      "duration": 0.2727,
      "velocity": 112,
      "chip": "ym2612"
    },
    {
      "channel": 0,
      "note": 51,
      "start": 73.86,
      "duration": 0.0656,
      "velocity": 83,
      "chip": "ym2612"
    },
    {
      "channel": 5,
      "note": 54,
      "start": 73.8651,
      "duration": 0.2686,
      "velocity": 112,
      "chip": "ym2612"
    },
    {
      "channel": 0,
      "note": 51,
      "start": 74.1325,
      "duration": 0.0676,
      "velocity": 83,
      "chip": "ym2612"
    },
    {
      "channel": 5,
      "note": 55,
      "start": 74.1374,
      "duration": 0.2708,
      "velocity": 126,
      "chip": "ym2612"
    },
    {
      "channel": 0,
      "note": 51,
      "start": 74.407,
      "duration": 0.0676,
      "velocity": 83,
      "chip": "ym2612"
    },
    {
      "channel": 5,
      "note": 0,
      "start": 74.412,
      "duration": 0.2726,
      "velocity": 112,
      "chip": "ym2612"
    },
    {
      "channel": 0,
      "note": 51,
      "start": 74.6816,
      "duration": 0.0674,
      "velocity": 83,
      "chip": "ym2612"
    },
    {
      "channel": 1,
      "note": 75,
      "start": 74.6833,
      "duration": 1.3012,
      "velocity": 99,
      "chip": "ym2612"
    },
    {
      "channel": 5,
      "note": 54,
      "start": 74.6885,
      "duration": 0.5444,
      "velocity": 112,
      "chip": "ym2612"
    },
    {
      "channel": 3,
      "note": 75,
      "start": 74.728,
      "duration": 1.3025,
      "velocity": 99,
      "chip": "ym2612"
    },
    {
      "channel": 0,
      "note": 47,
      "start": 74.9574,
      "duration": 0.0661,
      "velocity": 83,
      "chip": "ym2612"
    },
    {
      "channel": 0,
      "note": 47,
      "start": 75.2304,
      "duration": 0.0676,
      "velocity": 83,
      "chip": "ym2612"
    },
    {
      "channel": 4,
      "note": 66,
      "start": 75.2326,
      "duration": 0.5123,
      "velocity": 93,
      "chip": "ym2612"
    },
    {
      "channel": 5,
      "note": 41,
      "start": 75.2366,
      "duration": 0.5453,
      "velocity": 126,
      "chip": "ym2612"
    },
    {
      "channel": 0,
      "note": 47,
      "start": 75.5049,
      "duration": 0.0676,
      "velocity": 83,
      "chip": "ym2612"
    },
    {
      "channel": 0,
      "note": 47,
      "start": 75.7794,
      "duration": 0.0676,
      "velocity": 83,
      "chip": "ym2612"
    },
    {
      "channel": 4,
      "note": 75,
      "start": 75.7816,
      "duration": 0.5122,
      "velocity": 93,
      "chip": "ym2612"
    },
    {
      "channel": 5,
      "note": 0,
      "start": 75.7858,
      "duration": 0.2712,
      "velocity": 112,
      "chip": "ym2612"
    },
    {
      "channel": 0,
      "note": 47,
      "start": 76.0546,
      "duration": 0.069,
      "velocity": 83,
      "chip": "ym2612"
    },
    {
      "channel": 1,
      "note": 78,
      "start": 76.0561,
      "duration": 0.2485,
      "velocity": 99,
      "chip": "ym2612"
    },
    {
      "channel": 5,
      "note": 54,
      "start": 76.0608,
      "duration": 0.2712,
      "velocity": 112,
      "chip": "ym2612"
    },
    {
      "channel": 3,
      "note": 78,
      "start": 76.1002,
      "duration": 0.2505,
      "velocity": 99,
      "chip": "ym2612"
    },
    {
      "channel": 0,
      "note": 47,
      "start": 76.3283,
      "duration": 0.0676,
      "velocity": 83,
      "chip": "ym2612"
    },
    {
      "channel": 1,
      "note": 75,
      "start": 76.3298,
      "duration": 0.2494,
      "velocity": 99,
      "chip": "ym2612"
    },
    {
      "channel": 4,
      "note": 68,
      "start": 76.3317,
      "duration": 0.5111,
      "velocity": 93,
      "chip": "ym2612"
    },
    {
      "channel": 5,
      "note": 55,
      "start": 76.3358,
      "duration": 0.5451,
      "velocity": 126,
      "chip": "ym2612"
    },
    {
      "channel": 3,
      "note": 75,
      "start": 76.3747,
      "duration": 0.2504,
      "velocity": 99,
      "chip": "ym2612"
    },
    {
      "channel": 0,
      "note": 47,
      "start": 76.6027,
      "duration": 0.0676,
      "velocity": 83,
      "chip": "ym2612"
    },
    {
      "channel": 1,
      "note": 78,
      "start": 76.6043,
      "duration": 0.7868,
      "velocity": 99,
      "chip": "ym2612"
    },
    {
      "channel": 3,
      "note": 78,
      "start": 76.6492,
      "duration": 0.788,
      "velocity": 99,
      "chip": "ym2612"
    },
    {
      "channel": 0,
      "note": 47,
      "start": 76.8774,
      "duration": 0.0674,
      "velocity": 83,
      "chip": "ym2612"
    },
    {
      "channel": 4,
      "note": 65,
      "start": 76.8805,
      "duration": 1.0726,
      "velocity": 93,
      "chip": "ym2612"
    },
    {
      "channel": 5,
      "note": 0,
      "start": 76.8849,
      "duration": 0.2683,
      "velocity": 112,
      "chip": "ym2612"
    },
    {
      "channel": 0,
      "note": 46,
      "start": 77.152,
      "duration": 0.069,
      "velocity": 83,
      "chip": "ym2612"
    },
    {
      "channel": 5,
      "note": 54,
      "start": 77.157,
      "duration": 0.2716,
      "velocity": 112,
      "chip": "ym2612"
    },
    {
      "channel": 0,
      "note": 46,
      "start": 77.4261,
      "duration": 0.0676,
      "velocity": 83,
      "chip": "ym2612"
    },
    {
      "channel": 1,
      "note": 77,
      "start": 77.4276,
      "duration": 0.5124,
      "velocity": 99,
      "chip": "ym2612"
    },
    {
      "channel": 5,
      "note": 55,
      "start": 77.4323,
      "duration": 0.5465,
      "velocity": 126,
      "chip": "ym2612"
    },
    {
      "channel": 3,
      "note": 77,
      "start": 77.4726,
      "duration": 0.515,
      "velocity": 99,
      "chip": "ym2612"
    },
    {
      "channel": 0,
      "note": 46,
      "start": 77.7006,
      "duration": 0.0676,
      "velocity": 83,
      "chip": "ym2612"
    },
    {
      "channel": 0,
      "note": 46,
      "start": 77.9751,
      "duration": 0.0676,
      "velocity": 83,
      "chip": "ym2612"
    },
    {
      "channel": 1,
      "note": 73,
      "start": 77.9766,
      "duration": 0.5124,
      "velocity": 99,
      "chip": "ym2612"
    },
    {
      "channel": 4,
      "note": 66,
      "start": 77.9784,
      "duration": 1.072,
      "velocity": 93,
      "chip": "ym2612"
    },
    {
      "channel": 5,
      "note": 0,
      "start": 77.9827,
      "duration": 0.5438,
      "velocity": 112,
      "chip": "ym2612"
    },
    {
      "channel": 3,
      "note": 73,
      "start": 78.0237,
      "duration": 0.5114,
      "velocity": 99,
      "chip": "ym2612"
    },
    {
      "channel": 0,
      "note": 46,
      "start": 78.2496,
      "duration": 0.0686,
      "velocity": 83,
      "chip": "ym2612"
    },
    {
      "channel": 0,
      "note": 46,
      "start": 78.524,
      "duration": 0.0676,
      "velocity": 83,
      "chip": "ym2612"
    },
    {
      "channel": 1,
      "note": 73,
      "start": 78.5255,
      "duration": 0.5125,
      "velocity": 99,
      "chip": "ym2612"
    },
    {
      "channel": 5,
      "note": 41,
      "start": 78.5302,
      "duration": 0.547,
      "velocity": 126,
      "chip": "ym2612"
    },
    {
      "channel": 3,
      "note": 73,
      "start": 78.5704,
      "duration": 0.5145,
      "velocity": 99,
      "chip": "ym2612"
    },
    {
      "channel": 0,
      "note": 46,
      "start": 78.7985,
      "duration": 0.0676,
      "velocity": 83,
      "chip": "ym2612"
    },
    {
      "channel": 0,
      "note": 46,
      "start": 79.0732,
      "duration": 0.0674,
      "velocity": 83,
      "chip": "ym2612"
    },
    {
      "channel": 1,
      "note": 77,
      "start": 79.0747,
      "duration": 2.1704,
      "velocity": 99,
      "chip": "ym2612"
    },
    {
      "channel": 4,
      "note": 65,
      "start": 79.0768,
      "duration": 2.169,
      "velocity": 93,
      "chip": "ym2612"
    },
    {
      "channel": 5,
      "note": 0,
      "start": 79.0813,
      "duration": 0.5418,
      "velocity": 112,
      "chip": "ym2612"
    },
    {
      "channel": 3,
      "note": 77,
      "start": 79.1211,
      "duration": 2.17,
      "velocity": 99,
      "chip": "ym2612"
    },
    {
      "channel": 0,
      "note": 51,
      "start": 79.3475,
      "duration": 0.0681,
      "velocity": 83,
      "chip": "ym2612"
    },
    {
      "channel": 0,
      "note": 51,
      "start": 79.622,
      "duration": 0.0676,
      "velocity": 83,
      "chip": "ym2612"
    },
    {
      "channel": 5,
      "note": 41,
      "start": 79.6268,
      "duration": 0.5453,
      "velocity": 126,
      "chip": "ym2612"
    },
    {
      "channel": 0,
      "note": 51,
      "start": 79.8964,
      "duration": 0.0676,
      "velocity": 83,
      "chip": "ym2612"
    },
    {
      "channel": 0,
      "note": 51,
      "start": 80.1709,
      "duration": 0.0676,
      "velocity": 83,
      "chip": "ym2612"
    },
    {
      "channel": 5,
      "note": 0,
      "start": 80.1759,
      "duration": 0.2707,
      "velocity": 112,
      "chip": "ym2612"
    },
    {
      "channel": 0,
      "note": 51,
      "start": 80.4454,
      "duration": 0.0676,
      "velocity": 83,
      "chip": "ym2612"
    },
    {
      "channel": 5,
      "note": 54,
      "start": 80.4504,
      "duration": 0.2706,
      "velocity": 112,
      "chip": "ym2612"
    },
    {
      "channel": 0,
      "note": 51,
      "start": 80.7198,
      "duration": 0.0676,
      "velocity": 83,
      "chip": "ym2612"
    },
    {
      "channel": 5,
      "note": 55,
      "start": 80.7247,
      "duration": 0.5483,
      "velocity": 126,
      "chip": "ym2612"
    },
    {
      "channel": 0,
      "note": 51,
      "start": 80.9943,
      "duration": 0.0676,
      "velocity": 83,
      "chip": "ym2612"
    },
    {
      "channel": 0,
      "note": 51,
      "start": 81.2689,
      "duration": 0.0674,
      "velocity": 83,
      "chip": "ym2612"
    },
    {
      "channel": 1,
      "note": 77,
      "start": 81.2705,
      "duration": 2.1704,
      "velocity": 99,
      "chip": "ym2612"
    },
    {
      "channel": 4,
      "note": 68,
      "start": 81.2726,
      "duration": 2.169,
      "velocity": 93,
      "chip": "ym2612"
    },
    {
      "channel": 5,
      "note": 0,
      "start": 81.277,
      "duration": 0.2674,
      "velocity": 112,
      "chip": "ym2612"
    },
    {
      "channel": 3,
      "note": 77,
      "start": 81.3158,
      "duration": 2.1711,
      "velocity": 99,
      "chip": "ym2612"
    },
    {
      "channel": 0,
      "note": 51,
      "start": 81.5432,
      "duration": 0.0676,
      "velocity": 83,
      "chip": "ym2612"
    },
    {
      "channel": 5,
      "note": 54,
      "start": 81.5483,
      "duration": 0.2706,
      "velocity": 112,
      "chip": "ym2612"
    },
    {
      "channel": 0,
      "note": 51,
      "start": 81.8177,
      "duration": 0.0676,
      "velocity": 83,
      "chip": "ym2612"
    },
    {
      "channel": 5,
      "note": 55,
      "start": 81.8226,
      "duration": 0.5452,
      "velocity": 126,
      "chip": "ym2612"
    },
    {
      "channel": 0,
      "note": 51,
      "start": 82.0922,
      "duration": 0.0676,
      "velocity": 83,
      "chip": "ym2612"
    },
    {
      "channel": 0,
      "note": 51,
      "start": 82.3666,
      "duration": 0.0676,
      "velocity": 83,
      "chip": "ym2612"
    },
    {
      "channel": 5,
      "note": 0,
      "start": 82.3716,
      "duration": 0.2707,
      "velocity": 112,
      "chip": "ym2612"
    },
    {
      "channel": 0,
      "note": 51,
      "start": 82.6411,
      "duration": 0.0676,
      "velocity": 83,
      "chip": "ym2612"
    },
    {
      "channel": 5,
      "note": 54,
      "start": 82.6462,
      "duration": 0.2723,
      "velocity": 112,
      "chip": "ym2612"
    },
    {
      "channel": 0,
      "note": 51,
      "start": 82.9172,
      "duration": 0.066,
      "velocity": 83,
      "chip": "ym2612"
    },
    {
      "channel": 5,
      "note": 54,
      "start": 82.9221,
      "duration": 0.2691,
      "velocity": 126,
      "chip": "ym2612"
    },
    {
      "channel": 0,
      "note": 51,
      "start": 83.1901,
      "duration": 0.0676,
      "velocity": 83,
      "chip": "ym2612"
    },
    {
      "channel": 5,
      "note": 0,
      "start": 83.195,
      "duration": 0.2726,
      "velocity": 112,
      "chip": "ym2612"
    },
    {
      "channel": 0,
      "note": 51,
      "start": 83.4647,
      "duration": 0.0674,
      "velocity": 83,
      "chip": "ym2612"
    },
    {
      "channel": 1,
      "note": 75,
      "start": 83.4663,
      "duration": 1.3012,
      "velocity": 99,
      "chip": "ym2612"
    },
    {
      "channel": 5,
      "note": 54,
      "start": 83.4716,
      "duration": 0.5455,
      "velocity": 112,
      "chip": "ym2612"
    },
    {
      "channel": 3,
      "note": 75,
      "start": 83.5111,
      "duration": 1.3042,
      "velocity": 99,
      "chip": "ym2612"
    },
    {
      "channel": 0,
      "note": 47,
      "start": 83.739,
      "duration": 0.0676,
      "velocity": 83,
      "chip": "ym2612"
    },
    {
      "channel": 0,
      "note": 47,
      "start": 84.0145,
      "duration": 0.0666,
      "velocity": 83,
      "chip": "ym2612"
    },
    {
      "channel": 4,
      "note": 66,
      "start": 84.0167,
      "duration": 0.5112,
      "velocity": 93,
      "chip": "ym2612"
    },
    {
      "channel": 5,
      "note": 39,
      "start": 84.0208,
      "duration": 0.5442,
      "velocity": 126,
      "chip": "ym2612"
    },
    {
      "channel": 0,
      "note": 47,
      "start": 84.2879,
      "duration": 0.0676,
      "velocity": 83,
      "chip": "ym2612"
    },
    {
      "channel": 0,
      "note": 47,
      "start": 84.5625,
      "duration": 0.0676,
      "velocity": 83,
      "chip": "ym2612"
    },
    {
      "channel": 4,
      "note": 75,
      "start": 84.5646,
      "duration": 0.5124,
      "velocity": 93,
      "chip": "ym2612"
    },
    {
      "channel": 5,
      "note": 0,
      "start": 84.5688,
      "duration": 0.2704,
      "velocity": 112,
      "chip": "ym2612"
    },
    {
      "channel": 0,
      "note": 47,
      "start": 84.8368,
      "duration": 0.0676,
      "velocity": 83,
      "chip": "ym2612"
    },
    {
      "channel": 1,
      "note": 78,
      "start": 84.8384,
      "duration": 0.2494,
      "velocity": 99,
      "chip": "ym2612"
    },
    {
      "channel": 5,
      "note": 54,
      "start": 84.8431,
      "duration": 0.2725,
      "velocity": 112,
      "chip": "ym2612"
    },
    {
      "channel": 3,
      "note": 78,
      "start": 84.8833,
      "duration": 0.2505,
      "velocity": 99,
      "chip": "ym2612"
    },
    {
      "channel": 0,
      "note": 47,
      "start": 85.1118,
      "duration": 0.0689,
      "velocity": 83,
      "chip": "ym2612"
    },
    {
      "channel": 1,
      "note": 75,
      "start": 85.1134,
      "duration": 0.2489,
      "velocity": 99,
      "chip": "ym2612"
    },
    {
      "channel": 4,
      "note": 68,
      "start": 85.1152,
      "duration": 0.5105,
      "velocity": 93,
      "chip": "ym2612"
    },
    {
      "channel": 5,
      "note": 54,
      "start": 85.1193,
      "duration": 0.5446,
      "velocity": 126,
      "chip": "ym2612"
    },
    {
      "channel": 3,
      "note": 75,
      "start": 85.1577,
      "duration": 0.2505,
      "velocity": 99,
      "chip": "ym2612"
    },
    {
      "channel": 0,
      "note": 47,
      "start": 85.3858,
      "duration": 0.0676,
      "velocity": 83,
      "chip": "ym2612"
    },
    {
      "channel": 1,
      "note": 78,
      "start": 85.3873,
      "duration": 0.7869,
      "velocity": 99,
      "chip": "ym2612"
    },
    {
      "channel": 3,
      "note": 78,
      "start": 85.4322,
      "duration": 0.788,
      "velocity": 99,
      "chip": "ym2612"
    },
    {
      "channel": 0,
      "note": 47,
      "start": 85.6604,
      "duration": 0.0674,
      "velocity": 83,
      "chip": "ym2612"
    },
    {
      "channel": 4,
      "note": 65,
      "start": 85.6636,
      "duration": 1.0716,
      "velocity": 93,
      "chip": "ym2612"
    },
    {
      "channel": 5,
      "note": 0,
      "start": 85.6679,
      "duration": 0.268,
      "velocity": 112,
      "chip": "ym2612"
    },
    {
      "channel": 0,
      "note": 46,
      "start": 85.9347,
      "duration": 0.0676,
      "velocity": 83,
      "chip": "ym2612"
    },
    {
      "channel": 5,
      "note": 54,
      "start": 85.9398,
      "duration": 0.2718,
      "velocity": 112,
      "chip": "ym2612"
    },
    {
      "channel": 0,
      "note": 46,
      "start": 86.2092,
      "duration": 0.0689,
      "velocity": 83,
      "chip": "ym2612"
    },
    {
      "channel": 1,
      "note": 77,
      "start": 86.2107,
      "duration": 0.5124,
      "velocity": 99,
      "chip": "ym2612"
    },
    {
      "channel": 5,
      "note": 54,
      "start": 86.2153,
      "duration": 0.5466,
      "velocity": 126,
      "chip": "ym2612"
    },
    {
      "channel": 3,
      "note": 77,
      "start": 86.2556,
      "duration": 0.5135,
      "velocity": 99,
      "chip": "ym2612"
    },
    {
      "channel": 0,
      "note": 46,
      "start": 86.4837,
      "duration": 0.0676,
      "velocity": 83,
      "chip": "ym2612"
    },
    {
      "channel": 0,
      "note": 46,
      "start": 86.7581,
      "duration": 0.0676,
      "velocity": 83,
      "chip": "ym2612"
    },
    {
      "channel": 1,
      "note": 73,
      "start": 86.7596,
      "duration": 0.5125,
      "velocity": 99,
      "chip": "ym2612"
    },
    {
      "channel": 4,
      "note": 66,
      "start": 86.7615,
      "duration": 1.0714,
      "velocity": 93,
      "chip": "ym2612"
    },
    {
      "channel": 5,
      "note": 0,
      "start": 86.7658,
      "duration": 0.5437,
      "velocity": 112,
      "chip": "ym2612"
    },
    {
      "channel": 3,
      "note": 73,
      "start": 86.8045,
      "duration": 0.5136,
      "velocity": 99,
      "chip": "ym2612"
    },
    {
      "channel": 0,
      "note": 46,
      "start": 87.0326,
      "duration": 0.0676,
      "velocity": 83,
      "chip": "ym2612"
    },
    {
      "channel": 0,
      "note": 46,
      "start": 87.3071,
      "duration": 0.0683,
      "velocity": 83,
      "chip": "ym2612"
    },
    {
      "channel": 1,
      "note": 73,
      "start": 87.3086,
      "duration": 0.5124,
      "velocity": 99,
      "chip": "ym2612"
    },
    {
      "channel": 5,
      "note": 39,
      "start": 87.3132,
      "duration": 0.5471,
      "velocity": 126,
      "chip": "ym2612"
    },
    {
      "channel": 3,
      "note": 73,
      "start": 87.3535,
      "duration": 0.5143,
      "velocity": 99,
      "chip": "ym2612"
    },
    {
      "channel": 0,
      "note": 46,
      "start": 87.5816,
      "duration": 0.0676,
      "velocity": 83,
      "chip": "ym2612"
    },
    {
      "channel": 0,
      "note": 46,
      "start": 87.8562,
      "duration": 0.0674,
      "velocity": 83,
      "chip": "ym2612"
    },
    {
      "channel": 1,
      "note": 77,
      "start": 87.8578,
      "duration": 2.1704,
      "velocity": 99,
      "chip": "ym2612"
    },
    {
      "channel": 4,
      "note": 65,
      "start": 87.8599,
      "duration": 2.1689,
      "velocity": 93,
      "chip": "ym2612"
    },
    {
      "channel": 5,
      "note": 0,
      "start": 87.8644,
      "duration": 0.5418,
      "velocity": 112,
      "chip": "ym2612"
    },
    {
      "channel": 3,
      "note": 77,
      "start": 87.9026,
      "duration": 2.173,
      "velocity": 99,
      "chip": "ym2612"
    },
    {
      "channel": 0,
      "note": 51,
      "start": 88.1305,
      "duration": 0.0676,
      "velocity": 83,
      "chip": "ym2612"
    },
    {
      "channel": 0,
      "note": 51,
      "start": 88.405,
      "duration": 0.0677,
      "velocity": 83,
      "chip": "ym2612"
    },
    {
      "channel": 5,
      "note": 39,
      "start": 88.4099,
      "duration": 0.5453,
      "velocity": 126,
      "chip": "ym2612"
    },
    {
      "channel": 0,
      "note": 51,
      "start": 88.6795,
      "duration": 0.0676,
      "velocity": 83,
      "chip": "ym2612"
    },
    {
      "channel": 0,
      "note": 51,
      "start": 88.9539,
      "duration": 0.0676,
      "velocity": 83,
      "chip": "ym2612"
    },
    {
      "channel": 5,
      "note": 0,
      "start": 88.959,
      "duration": 0.2707,
      "velocity": 112,
      "chip": "ym2612"
    },
    {
      "channel": 0,
      "note": 51,
      "start": 89.2284,
      "duration": 0.0676,
      "velocity": 83,
      "chip": "ym2612"
    },
    {
      "channel": 5,
      "note": 54,
      "start": 89.2335,
      "duration": 0.2706,
      "velocity": 112,
      "chip": "ym2612"
    },
    {
      "channel": 0,
      "note": 51,
      "start": 89.5029,
      "duration": 0.0676,
      "velocity": 83,
      "chip": "ym2612"
    },
    {
      "channel": 5,
      "note": 54,
      "start": 89.5078,
      "duration": 0.5483,
      "velocity": 126,
      "chip": "ym2612"
    },
    {
      "channel": 0,
      "note": 51,
      "start": 89.7773,
      "duration": 0.0676,
      "velocity": 83,
      "chip": "ym2612"
    },
    {
      "channel": 0,
      "note": 51,
      "start": 90.052,
      "duration": 0.0674,
      "velocity": 83,
      "chip": "ym2612"
    },
    {
      "channel": 1,
      "note": 77,
      "start": 90.0536,
      "duration": 2.1704,
      "velocity": 99,
      "chip": "ym2612"
    },
    {
      "channel": 4,
      "note": 68,
      "start": 90.0557,
      "duration": 2.169,
      "velocity": 93,
      "chip": "ym2612"
    },
    {
      "channel": 5,
      "note": 0,
      "start": 90.06,
      "duration": 0.5419,
      "velocity": 112,
      "chip": "ym2612"
    },
    {
      "channel": 3,
      "note": 77,
      "start": 90.0983,
      "duration": 2.1373,
      "velocity": 99,
      "chip": "ym2612"
    },
    {
      "channel": 0,
      "note": 51,
      "start": 90.3263,
      "duration": 0.0676,
      "velocity": 83,
      "chip": "ym2612"
    },
    {
      "channel": 0,
      "note": 51,
      "start": 90.6008,
      "duration": 0.0676,
      "velocity": 83,
      "chip": "ym2612"
    },
    {
      "channel": 5,
      "note": 39,
      "start": 90.6057,
      "duration": 0.5452,
      "velocity": 126,
      "chip": "ym2612"
    },
    {
      "channel": 0,
      "note": 51,
      "start": 90.8772,
      "duration": 0.0656,
      "velocity": 83,
      "chip": "ym2612"
    },
    {
      "channel": 0,
      "note": 51,
      "start": 91.1497,
      "duration": 0.0676,
      "velocity": 83,
      "chip": "ym2612"
    },
    {
      "channel": 5,
      "note": 0,
      "start": 91.1547,
      "duration": 0.2707,
      "velocity": 112,
      "chip": "ym2612"
    },
    {
      "channel": 0,
      "note": 51,
      "start": 91.4242,
      "duration": 0.0676,
      "velocity": 83,
      "chip": "ym2612"
    },
    {
      "channel": 5,
      "note": 54,
      "start": 91.4293,
      "duration": 0.2706,
      "velocity": 112,
      "chip": "ym2612"
    },
    {
      "channel": 0,
      "note": 51,
      "start": 91.6987,
      "duration": 0.0676,
      "velocity": 83,
      "chip": "ym2612"
    },
    {
      "channel": 5,
      "note": 54,
      "start": 91.7036,
      "duration": 0.5448,
      "velocity": 126,
      "chip": "ym2612"
    },
    {
      "channel": 0,
      "note": 51,
      "start": 91.9745,
      "duration": 0.0662,
      "velocity": 83,
      "chip": "ym2612"
    }
  ]
}