{
  "track_name": "18 - Crying World",
  "duration_sec": 93.833,
  "sample_rate": 44100,
  "note_count": 1439,
  "unique_pitches": 24,
  "pitch_range": 65,
  "avg_note_duration": 0.3205,
  "reconstruction_stats": {
    "notes_reconstructed": 1439,
    "keyon_events": 1439,
    "keyoff_events": 1424,
    "orphan_keyons": 5,
    "unique_pitches": 24,
    "pitch_range": 65,
    "avg_duration_sec": 0.3205
  },
  "metadata": {
    "source": "R\\Ristar\\18 - Crying World.vgz"
  },
  "notes": [
    {
      "channel": 0,
      "note": 63,
      "start": 0.1061,
      "duration": 0.0384,
      "velocity": 110,
      "chip": "ym2612"
    },
    {
      "channel": 1,
      "note": 45,
      "start": 0.1074,
      "duration": 0.23,
      "velocity": 108,
      "chip": "ym2612"
    },
    {
      "channel": 2,
      "note": 34,
      "start": 0.1086,
      "duration": 0.0079,
      "velocity": 77,
      "chip": "ym2612"
    },
    {
      "channel": 3,
      "note": 63,
      "start": 0.1098,
      "duration": 0.0193,
      "velocity": 119,
      "chip": "ym2612"
    },
    {
      "channel": 2,
      "note": 39,
      "start": 0.1166,
      "duration": 0.0062,
      "velocity": 77,
      "chip": "ym2612"
    },
    {
      "channel": 2,
      "note": 46,
      "start": 0.1231,
      "duration": 0.0057,
      "velocity": 77,
      "chip": "ym2612"
    },
    {
      "channel": 2,
      "note": 46,
      "start": 0.129,
      "duration": 0.0083,
      "velocity": 77,
      "chip": "ym2612"
    },
    {
      "channel": 3,
      "note": 58,
      "start": 0.1294,
      "duration": 0.0245,
      "velocity": 119,
      "chip": "ym2612"
    },
    {
      "channel": 4,
      "note": 45,
      "start": 0.1305,
      "duration": 0.2346,
      "velocity": 108,
      "chip": "ym2612"
    },
    {
      "channel": 2,
      "note": 51,
      "start": 0.1375,
      "duration": 0.0076,
      "velocity": 77,
      "chip": "ym2612"
    },
    {
      "channel": 0,
      "note": 62,
      "start": 0.1448,
      "duration": 0.031,
      "velocity": 110,
      "chip": "ym2612"
    },
    {
      "channel": 2,
      "note": 58,
      "start": 0.1452,
      "duration": 0.0083,
      "velocity": 77,
      "chip": "ym2612"
    },
    {
      "channel": 2,
      "note": 58,
      "start": 0.1538,
      "duration": 0.0074,
      "velocity": 77,
      "chip": "ym2612"
    },
    {
      "channel": 3,
      "note": 59,
      "start": 0.1541,
      "duration": 0.0236,
      "velocity": 119,
      "chip": "ym2612"
    },
    {
      "channel": 2,
      "note": 63,
      "start": 0.1614,
      "duration": 0.0056,
      "velocity": 77,
      "chip": "ym2612"
    },
    {
      "channel": 2,
      "note": 70,
      "start": 0.1673,
      "duration": 0.0101,
      "velocity": 77,
      "chip": "ym2612"
    },
    {
      "channel": 0,
      "note": 61,
      "start": 0.1761,
      "duration": 0.0377,
      "velocity": 110,
      "chip": "ym2612"
    },
    {
      "channel": 2,
      "note": 70,
      "start": 0.1776,
      "duration": 0.0079,
      "velocity": 77,
      "chip": "ym2612"
    },
    {
      "channel": 3,
      "note": 60,
      "start": 0.1778,
      "duration": 0.0231,
      "velocity": 119,
      "chip": "ym2612"
    },
    {
      "channel": 2,
      "note": 75,
      "start": 0.1856,
      "duration": 0.0074,
      "velocity": 77,
      "chip": "ym2612"
    },
    {
      "channel": 2,
      "note": 82,
      "start": 0.1933,
      "duration": 0.0073,
      "velocity": 77,
      "chip": "ym2612"
    },
    {
      "channel": 2,
      "note": 99,
      "start": 0.2008,
      "duration": 0.0097,
      "velocity": 77,
      "chip": "ym2612"
    },
    {
      "channel": 3,
      "note": 61,
      "start": 0.2011,
      "duration": 0.0133,
      "velocity": 119,
      "chip": "ym2612"
    },
    {
      "channel": 0,
      "note": 58,
      "start": 0.2142,
      "duration": 0.0351,
      "velocity": 110,
      "chip": "ym2612"
    },
    {
      "channel": 3,
      "note": 60,
      "start": 0.2147,
      "duration": 0.0242,
      "velocity": 119,
      "chip": "ym2612"
    },
    {
      "channel": 2,
      "note": 99,
      "start": 0.2235,
      "duration": 0.0119,
      "velocity": 77,
      "chip": "ym2612"
    },
    {
      "channel": 3,
      "note": 59,
      "start": 0.2391,
      "duration": 0.0332,
      "velocity": 119,
      "chip": "ym2612"
    },
    {
      "channel": 0,
      "note": 57,
      "start": 0.2495,
      "duration": 0.0205,
      "velocity": 110,
      "chip": "ym2612"
    },
    {
      "channel": 2,
      "note": 99,
      "start": 0.2501,
      "duration": 0.0094,
      "velocity": 77,
      "chip": "ym2612"
    },
    {
      "channel": 0,
      "note": 58,
      "start": 0.2703,
      "duration": 0.0659,
      "velocity": 110,
      "chip": "ym2612"
    },
    {
      "channel": 2,
      "note": 69,
      "start": 0.2722,
      "duration": 0.0595,
      "velocity": 109,
      "chip": "ym2612"
    },
    {
      "channel": 3,
      "note": 58,
      "start": 0.2725,
      "duration": 0.0677,
      "velocity": 119,
      "chip": "ym2612"
    },
    {
      "channel": 0,
      "note": 63,
      "start": 0.3364,
      "duration": 0.0442,
      "velocity": 110,
      "chip": "ym2612"
    },
    {
      "channel": 1,
      "note": 45,
      "start": 0.3377,
      "duration": 0.2791,
      "velocity": 108,
      "chip": "ym2612"
    },
    {
      "channel": 2,
      "note": 34,
      "start": 0.3391,
      "duration": 0.0078,
      "velocity": 77,
      "chip": "ym2612"
    },
    {
      "channel": 3,
      "note": 63,
      "start": 0.3403,
      "duration": 0.0236,
      "velocity": 119,
      "chip": "ym2612"
    },
    {
      "channel": 2,
      "note": 39,
      "start": 0.3471,
      "duration": 0.0076,
      "velocity": 77,
      "chip": "ym2612"
    },
    {
      "channel": 2,
      "note": 46,
      "start": 0.3549,
      "duration": 0.0088,
      "velocity": 77,
      "chip": "ym2612"
    },
    {
      "channel": 2,
      "note": 46,
      "start": 0.3639,
      "duration": 0.0089,
      "velocity": 77,
      "chip": "ym2612"
    },
    {
      "channel": 3,
      "note": 58,
      "start": 0.3641,
      "duration": 0.0258,
      "velocity": 119,
      "chip": "ym2612"
    },
    {
      "channel": 4,
      "note": 45,
      "start": 0.3653,
      "duration": 0.2813,
      "velocity": 108,
      "chip": "ym2612"
    },
    {
      "channel": 2,
      "note": 51,
      "start": 0.3729,
      "duration": 0.0081,
      "velocity": 77,
      "chip": "ym2612"
    },
    {
      "channel": 0,
      "note": 62,
      "start": 0.3809,
      "duration": 0.0362,
      "velocity": 110,
      "chip": "ym2612"
    },
    {
      "channel": 2,
      "note": 58,
      "start": 0.3813,
      "duration": 0.0084,
      "velocity": 77,
      "chip": "ym2612"
    },
    {
      "channel": 2,
      "note": 58,
      "start": 0.3898,
      "duration": 0.0091,
      "velocity": 77,
      "chip": "ym2612"
    },
    {
      "channel": 3,
      "note": 59,
      "start": 0.3902,
      "duration": 0.0288,
      "velocity": 119,
      "chip": "ym2612"
    },
    {
      "channel": 2,
      "note": 63,
      "start": 0.3991,
      "duration": 0.0074,
      "velocity": 77,
      "chip": "ym2612"
    },
    {
      "channel": 2,
      "note": 70,
      "start": 0.4068,
      "duration": 0.0118,
      "velocity": 77,
      "chip": "ym2612"
    },
    {
      "channel": 0,
      "note": 61,
      "start": 0.4174,
      "duration": 0.0415,
      "velocity": 110,
      "chip": "ym2612"
    },
    {
      "channel": 2,
      "note": 70,
      "start": 0.4189,
      "duration": 0.008,
      "velocity": 77,
      "chip": "ym2612"
    },
    {
      "channel": 3,
      "note": 60,
      "start": 0.4191,
      "duration": 0.0229,
      "velocity": 119,
      "chip": "ym2612"
    },
    {
      "channel": 2,
      "note": 75,
      "start": 0.4271,
      "duration": 0.0078,
      "velocity": 77,
      "chip": "ym2612"
    },
    {
      "channel": 2,
      "note": 82,
      "start": 0.4351,
      "duration": 0.0066,
      "velocity": 77,
      "chip": "ym2612"
    },
    {
      "channel": 2,
      "note": 99,
      "start": 0.442,
      "duration": 0.0114,
      "velocity": 77,
      "chip": "ym2612"
    },
    {
      "channel": 3,
      "note": 61,
      "start": 0.4422,
      "duration": 0.0172,
      "velocity": 119,
      "chip": "ym2612"
    },
    {
      "channel": 0,
      "note": 58,
      "start": 0.4592,
      "duration": 0.0345,
      "velocity": 110,
      "chip": "ym2612"
    },
    {
      "channel": 3,
      "note": 60,
      "start": 0.4596,
      "duration": 0.0236,
      "velocity": 119,
      "chip": "ym2612"
    },
    {
      "channel": 2,
      "note": 99,
      "start": 0.4693,
      "duration": 0.0117,
      "velocity": 77,
      "chip": "ym2612"
    },
    {
      "channel": 3,
      "note": 59,
      "start": 0.4835,
      "duration": 0.0403,
      "velocity": 119,
      "chip": "ym2612"
    },
    {
      "channel": 0,
      "note": 57,
      "start": 0.494,
      "duration": 0.0275,
      "velocity": 110,
      "chip": "ym2612"
    },
    {
      "channel": 2,
      "note": 99,
      "start": 0.4946,
      "duration": 0.0126,
      "velocity": 77,
      "chip": "ym2612"
    },
    {
      "channel": 0,
      "note": 58,
      "start": 0.5217,
      "duration": 0.0938,
      "velocity": 110,
      "chip": "ym2612"
    },
    {
      "channel": 2,
      "note": 69,
      "start": 0.5237,
      "duration": 0.0738,
      "velocity": 109,
      "chip": "ym2612"
    },
    {
      "channel": 3,
      "note": 58,
      "start": 0.5239,
      "duration": 0.0956,
      "velocity": 119,
      "chip": "ym2612"
    },
    {
      "channel": 0,
      "note": 63,
      "start": 0.6157,
      "duration": 0.0461,
      "velocity": 110,
      "chip": "ym2612"
    },
    {
      "channel": 1,
      "note": 45,
      "start": 0.617,
      "duration": 0.2492,
      "velocity": 108,
      "chip": "ym2612"
    },
    {
      "channel": 2,
      "note": 34,
      "start": 0.6186,
      "duration": 0.009,
      "velocity": 77,
      "chip": "ym2612"
    },
    {
      "channel": 3,
      "note": 63,
      "start": 0.6198,
      "duration": 0.0255,
      "velocity": 119,
      "chip": "ym2612"
    },
    {
      "channel": 2,
      "note": 39,
      "start": 0.6278,
      "duration": 0.0084,
      "velocity": 77,
      "chip": "ym2612"
    },
    {
      "channel": 2,
      "note": 46,
      "start": 0.6365,
      "duration": 0.0085,
      "velocity": 77,
      "chip": "ym2612"
    },
    {
      "channel": 2,
      "note": 46,
      "start": 0.6452,
      "duration": 0.0084,
      "velocity": 77,
      "chip": "ym2612"
    },
    {
      "channel": 3,
      "note": 58,
      "start": 0.6455,
      "duration": 0.0261,
      "velocity": 119,
      "chip": "ym2612"
    },
    {
      "channel": 4,
      "note": 45,
      "start": 0.6468,
      "duration": 0.2471,
      "velocity": 108,
      "chip": "ym2612"
    },
    {
      "channel": 2,
      "note": 51,
      "start": 0.6538,
      "duration": 0.0084,
      "velocity": 77,
      "chip": "ym2612"
    },
    {
      "channel": 0,
      "note": 62,
      "start": 0.6619,
      "duration": 0.0383,
      "velocity": 110,
      "chip": "ym2612"
    },
    {
      "channel": 2,
      "note": 58,
      "start": 0.6623,
      "duration": 0.0091,
      "velocity": 77,
      "chip": "ym2612"
    },
    {
      "channel": 2,
      "note": 58,
      "start": 0.6716,
      "duration": 0.0099,
      "velocity": 77,
      "chip": "ym2612"
    },
    {
      "channel": 3,
      "note": 59,
      "start": 0.6719,
      "duration": 0.0301,
      "velocity": 119,
      "chip": "ym2612"
    },
    {
      "channel": 2,
      "note": 63,
      "start": 0.6817,
      "duration": 0.0078,
      "velocity": 77,
      "chip": "ym2612"
    },
    {
      "channel": 2,
      "note": 70,
      "start": 0.6898,
      "duration": 0.0119,
      "velocity": 77,
      "chip": "ym2612"
    },
    {
      "channel": 0,
      "note": 61,
      "start": 0.7004,
      "duration": 0.0438,
      "velocity": 110,
      "chip": "ym2612"
    },
    {
      "channel": 2,
      "note": 70,
      "start": 0.702,
      "duration": 0.007,
      "velocity": 77,
      "chip": "ym2612"
    },
    {
      "channel": 3,
      "note": 60,
      "start": 0.7022,
      "duration": 0.0238,
      "velocity": 119,
      "chip": "ym2612"
    },
    {
      "channel": 2,
      "note": 75,
      "start": 0.7091,
      "duration": 0.008,
      "velocity": 77,
      "chip": "ym2612"
    },
    {
      "channel": 2,
      "note": 82,
      "start": 0.7173,
      "duration": 0.0083,
      "velocity": 77,
      "chip": "ym2612"
    },
    {
      "channel": 2,
      "note": 99,
      "start": 0.7259,
      "duration": 0.0127,
      "velocity": 77,
      "chip": "ym2612"
    },
    {
      "channel": 3,
      "note": 61,
      "start": 0.7261,
      "duration": 0.0186,
      "velocity": 119,
      "chip": "ym2612"
    },
    {
      "channel": 0,
      "note": 58,
      "start": 0.7445,
      "duration": 0.032,
      "velocity": 110,
      "chip": "ym2612"
    },
    {
      "channel": 3,
      "note": 60,
      "start": 0.7449,
      "duration": 0.0223,
      "velocity": 119,
      "chip": "ym2612"
    },
    {
      "channel": 2,
      "note": 99,
      "start": 0.7517,
      "duration": 0.0119,
      "velocity": 77,
      "chip": "ym2612"
    },
    {
      "channel": 3,
      "note": 59,
      "start": 0.7675,
      "duration": 0.0338,
      "velocity": 119,
      "chip": "ym2612"
    },
    {
      "channel": 0,
      "note": 57,
      "start": 0.7767,
      "duration": 0.0223,
      "velocity": 110,
      "chip": "ym2612"
    },
    {
      "channel": 2,
      "note": 99,
      "start": 0.7774,
      "duration": 0.0122,
      "velocity": 77,
      "chip": "ym2612"
    },
    {
      "channel": 0,
      "note": 58,
      "start": 0.7993,
      "duration": 0.0655,
      "velocity": 110,
      "chip": "ym2612"
    },
    {
      "channel": 2,
      "note": 69,
      "start": 0.8012,
      "duration": 0.0592,
      "velocity": 109,
      "chip": "ym2612"
    },
    {
      "channel": 3,
      "note": 58,
      "start": 0.8015,
      "duration": 0.0674,
      "velocity": 119,
      "chip": "ym2612"
    },
    {
      "channel": 0,
      "note": 63,
      "start": 0.8651,
      "duration": 0.0445,
      "velocity": 110,
      "chip": "ym2612"
    },
    {
      "channel": 1,
      "note": 45,
      "start": 0.8665,
      "duration": 0.2745,
      "velocity": 108,
      "chip": "ym2612"
    },
    {
      "channel": 2,
      "note": 34,
      "start": 0.8678,
      "duration": 0.0091,
      "velocity": 77,
      "chip": "ym2612"
    },
    {
      "channel": 3,
      "note": 63,
      "start": 0.869,
      "duration": 0.0237,
      "velocity": 119,
      "chip": "ym2612"
    },
    {
      "channel": 2,
      "note": 39,
      "start": 0.8771,
      "duration": 0.0061,
      "velocity": 77,
      "chip": "ym2612"
    },
    {
      "channel": 2,
      "note": 46,
      "start": 0.8835,
      "duration": 0.009,
      "velocity": 77,
      "chip": "ym2612"
    },
    {
      "channel": 2,
      "note": 46,
      "start": 0.8927,
      "duration": 0.0094,
      "velocity": 77,
      "chip": "ym2612"
    },
    {
      "channel": 3,
      "note": 58,
      "start": 0.8929,
      "duration": 0.0272,
      "velocity": 119,
      "chip": "ym2612"
    },
    {
      "channel": 4,
      "note": 45,
      "start": 0.8941,
      "duration": 0.2754,
      "velocity": 108,
      "chip": "ym2612"
    },
    {
      "channel": 2,
      "note": 51,
      "start": 0.9022,
      "duration": 0.008,
      "velocity": 77,
      "chip": "ym2612"
    },
    {
      "channel": 0,
      "note": 62,
      "start": 0.9099,
      "duration": 0.0352,
      "velocity": 110,
      "chip": "ym2612"
    },
    {
      "channel": 2,
      "note": 58,
      "start": 0.9103,
      "duration": 0.0096,
      "velocity": 77,
      "chip": "ym2612"
    },
    {
      "channel": 2,
      "note": 58,
      "start": 0.92,
      "duration": 0.0097,
      "velocity": 77,
      "chip": "ym2612"
    },
    {
      "channel": 3,
      "note": 59,
      "start": 0.9204,
      "duration": 0.0264,
      "velocity": 119,
      "chip": "ym2612"
    },
    {
      "channel": 2,
      "note": 63,
      "start": 0.9298,
      "duration": 0.0065,
      "velocity": 77,
      "chip": "ym2612"
    },
    {
      "channel": 2,
      "note": 70,
      "start": 0.9367,
      "duration": 0.0099,
      "velocity": 77,
      "chip": "ym2612"
    },
    {
      "channel": 0,
      "note": 61,
      "start": 0.9454,
      "duration": 0.0409,
      "velocity": 110,
      "chip": "ym2612"
    },
    {
      "channel": 2,
      "note": 70,
      "start": 0.9467,
      "duration": 0.0078,
      "velocity": 77,
      "chip": "ym2612"
    },
    {
      "channel": 3,
      "note": 60,
      "start": 0.9469,
      "duration": 0.0234,
      "velocity": 119,
      "chip": "ym2612"
    },
    {
      "channel": 2,
      "note": 75,
      "start": 0.9546,
      "duration": 0.0072,
      "velocity": 77,
      "chip": "ym2612"
    },
    {
      "channel": 2,
      "note": 82,
      "start": 0.962,
      "duration": 0.008,
      "velocity": 77,
      "chip": "ym2612"
    },
    {
      "channel": 2,
      "note": 99,
      "start": 0.9703,
      "duration": 0.0106,
      "velocity": 77,
      "chip": "ym2612"
    },
    {
      "channel": 3,
      "note": 61,
      "start": 0.9706,
      "duration": 0.0163,
      "velocity": 119,
      "chip": "ym2612"
    },
    {
      "channel": 0,
      "note": 58,
      "start": 0.9866,
      "duration": 0.0349,
      "velocity": 110,
      "chip": "ym2612"
    },
    {
      "channel": 3,
      "note": 60,
      "start": 0.9871,
      "duration": 0.0251,
      "velocity": 119,
      "chip": "ym2612"
    },
    {
      "channel": 2,
      "note": 99,
      "start": 0.9974,
      "duration": 0.0114,
      "velocity": 77,
      "chip": "ym2612"
    },
    {
      "channel": 3,
      "note": 59,
      "start": 1.0125,
      "duration": 0.0359,
      "velocity": 119,
      "chip": "ym2612"
    },
    {
      "channel": 0,
      "note": 57,
      "start": 1.0218,
      "duration": 0.0243,
      "velocity": 110,
      "chip": "ym2612"
    },
    {
      "channel": 2,
      "note": 99,
      "start": 1.0226,
      "duration": 0.0105,
      "velocity": 77,
      "chip": "ym2612"
    },
    {
      "channel": 0,
      "note": 58,
      "start": 1.0464,
      "duration": 0.0932,
      "velocity": 110,
      "chip": "ym2612"
    },
    {
      "channel": 2,
      "note": 69,
      "start": 1.0483,
      "duration": 0.0734,
      "velocity": 109,
      "chip": "ym2612"
    },
    {
      "channel": 3,
      "note": 58,
      "start": 1.0485,
      "duration": 0.0951,
      "velocity": 119,
      "chip": "ym2612"
    },
    {
      "channel": 0,
      "note": 63,
      "start": 1.1398,
      "duration": 0.0454,
      "velocity": 110,
      "chip": "ym2612"
    },
    {
      "channel": 1,
      "note": 45,
      "start": 1.1411,
      "duration": 0.24,
      "velocity": 108,
      "chip": "ym2612"
    },
    {
      "channel": 2,
      "note": 34,
      "start": 1.1427,
      "duration": 0.0085,
      "velocity": 77,
      "chip": "ym2612"
    },
    {
      "channel": 3,
      "note": 63,
      "start": 1.1439,
      "duration": 0.0245,
      "velocity": 119,
      "chip": "ym2612"
    },
    {
      "channel": 2,
      "note": 39,
      "start": 1.1513,
      "duration": 0.0072,
      "velocity": 77,
      "chip": "ym2612"
    },
    {
      "channel": 2,
      "note": 46,
      "start": 1.1588,
      "duration": 0.0092,
      "velocity": 77,
      "chip": "ym2612"
    },
    {
      "channel": 2,
      "note": 46,
      "start": 1.1683,
      "duration": 0.0093,
      "velocity": 77,
      "chip": "ym2612"
    },
    {
      "channel": 3,
      "note": 58,
      "start": 1.1685,
      "duration": 0.0257,
      "velocity": 119,
      "chip": "ym2612"
    },
    {
      "channel": 4,
      "note": 45,
      "start": 1.1698,
      "duration": 0.2406,
      "velocity": 108,
      "chip": "ym2612"
    },
    {
      "channel": 2,
      "note": 51,
      "start": 1.1777,
      "duration": 0.0081,
      "velocity": 77,
      "chip": "ym2612"
    },
    {
      "channel": 0,
      "note": 62,
      "start": 1.1856,
      "duration": 0.0359,
      "velocity": 110,
      "chip": "ym2612"
    },
    {
      "channel": 2,
      "note": 58,
      "start": 1.186,
      "duration": 0.0079,
      "velocity": 77,
      "chip": "ym2612"
    },
    {
      "channel": 2,
      "note": 58,
      "start": 1.1942,
      "duration": 0.0088,
      "velocity": 77,
      "chip": "ym2612"
    },
    {
      "channel": 3,
      "note": 59,
      "start": 1.1944,
      "duration": 0.0289,
      "velocity": 119,
      "chip": "ym2612"
    },
    {
      "channel": 2,
      "note": 63,
      "start": 1.2032,
      "duration": 0.0079,
      "velocity": 77,
      "chip": "ym2612"
    },
    {
      "channel": 2,
      "note": 70,
      "start": 1.2114,
      "duration": 0.0116,
      "velocity": 77,
      "chip": "ym2612"
    },
    {
      "channel": 0,
      "note": 61,
      "start": 1.2218,
      "duration": 0.0448,
      "velocity": 110,
      "chip": "ym2612"
    },
    {
      "channel": 2,
      "note": 70,
      "start": 1.2233,
      "duration": 0.0081,
      "velocity": 77,
      "chip": "ym2612"
    },
    {
      "channel": 3,
      "note": 60,
      "start": 1.2235,
      "duration": 0.0265,
      "velocity": 119,
      "chip": "ym2612"
    },
    {
      "channel": 2,
      "note": 75,
      "start": 1.2316,
      "duration": 0.0076,
      "velocity": 77,
      "chip": "ym2612"
    },
    {
      "channel": 2,
      "note": 82,
      "start": 1.2395,
      "duration": 0.0102,
      "velocity": 77,
      "chip": "ym2612"
    },
    {
      "channel": 2,
      "note": 99,
      "start": 1.25,
      "duration": 0.0114,
      "velocity": 77,
      "chip": "ym2612"
    },
    {
      "channel": 3,
      "note": 61,
      "start": 1.2502,
      "duration": 0.0168,
      "velocity": 119,
      "chip": "ym2612"
    },
    {
      "channel": 0,
      "note": 58,
      "start": 1.2668,
      "duration": 0.035,
      "velocity": 110,
      "chip": "ym2612"
    },
    {
      "channel": 3,
      "note": 60,
      "start": 1.2673,
      "duration": 0.0241,
      "velocity": 119,
      "chip": "ym2612"
    },
    {
      "channel": 2,
      "note": 99,
      "start": 1.2768,
      "duration": 0.0109,
      "velocity": 77,
      "chip": "ym2612"
    },
    {
      "channel": 3,
      "note": 59,
      "start": 1.2917,
      "duration": 0.0411,
      "velocity": 119,
      "chip": "ym2612"
    },
    {
      "channel": 0,
      "note": 57,
      "start": 1.3021,
      "duration": 0.0285,
      "velocity": 110,
      "chip": "ym2612"
    },
    {
      "channel": 2,
      "note": 99,
      "start": 1.3027,
      "duration": 0.0129,
      "velocity": 77,
      "chip": "ym2612"
    },
    {
      "channel": 0,
      "note": 58,
      "start": 1.3309,
      "duration": 0.0488,
      "velocity": 110,
      "chip": "ym2612"
    },
    {
      "channel": 2,
      "note": 69,
      "start": 1.3329,
      "duration": 0.0438,
      "velocity": 109,
      "chip": "ym2612"
    },
    {
      "channel": 3,
      "note": 58,
      "start": 1.3331,
      "duration": 0.0507,
      "velocity": 119,
      "chip": "ym2612"
    },
    {
      "channel": 0,
      "note": 63,
      "start": 1.38,
      "duration": 0.0447,
      "velocity": 110,
      "chip": "ym2612"
    },
    {
      "channel": 1,
      "note": 45,
      "start": 1.3814,
      "duration": 0.2889,
      "velocity": 108,
      "chip": "ym2612"
    },
    {
      "channel": 2,
      "note": 34,
      "start": 1.3827,
      "duration": 0.0091,
      "velocity": 77,
      "chip": "ym2612"
    },
    {
      "channel": 3,
      "note": 63,
      "start": 1.3839,
      "duration": 0.0251,
      "velocity": 119,
      "chip": "ym2612"
    },
    {
      "channel": 2,
      "note": 39,
      "start": 1.392,
      "duration": 0.0073,
      "velocity": 77,
      "chip": "ym2612"
    },
    {
      "channel": 2,
      "note": 46,
      "start": 1.3995,
      "duration": 0.0092,
      "velocity": 77,
      "chip": "ym2612"
    },
    {
      "channel": 2,
      "note": 46,
      "start": 1.4089,
      "duration": 0.0078,
      "velocity": 77,
      "chip": "ym2612"
    },
    {
      "channel": 3,
      "note": 58,
      "start": 1.4092,
      "duration": 0.0263,
      "velocity": 119,
      "chip": "ym2612"
    },
    {
      "channel": 4,
      "note": 45,
      "start": 1.4105,
      "duration": 0.2886,
      "velocity": 108,
      "chip": "ym2612"
    },
    {
      "channel": 2,
      "note": 51,
      "start": 1.4168,
      "duration": 0.0083,
      "velocity": 77,
      "chip": "ym2612"
    },
    {
      "channel": 0,
      "note": 62,
      "start": 1.4249,
      "duration": 0.0344,
      "velocity": 110,
      "chip": "ym2612"
    },
    {
      "channel": 2,
      "note": 58,
      "start": 1.4253,
      "duration": 0.0098,
      "velocity": 77,
      "chip": "ym2612"
    },
    {
      "channel": 2,
      "note": 58,
      "start": 1.4355,
      "duration": 0.0091,
      "velocity": 77,
      "chip": "ym2612"
    },
    {
      "channel": 3,
      "note": 59,
      "start": 1.4357,
      "duration": 0.0255,
      "velocity": 119,
      "chip": "ym2612"
    },
    {
      "channel": 2,
      "note": 63,
      "start": 1.4448,
      "duration": 0.0076,
      "velocity": 77,
      "chip": "ym2612"
    },
    {
      "channel": 2,
      "note": 70,
      "start": 1.4527,
      "duration": 0.0082,
      "velocity": 77,
      "chip": "ym2612"
    },
    {
      "channel": 0,
      "note": 61,
      "start": 1.4597,
      "duration": 0.0434,
      "velocity": 110,
      "chip": "ym2612"
    },
    {
      "channel": 2,
      "note": 70,
      "start": 1.4612,
      "duration": 0.0082,
      "velocity": 77,
      "chip": "ym2612"
    },
    {
      "channel": 3,
      "note": 60,
      "start": 1.4614,
      "duration": 0.0252,
      "velocity": 119,
      "chip": "ym2612"
    },
    {
      "channel": 2,
      "note": 75,
      "start": 1.4695,
      "duration": 0.0082,
      "velocity": 77,
      "chip": "ym2612"
    },
    {
      "channel": 2,
      "note": 82,
      "start": 1.4779,
      "duration": 0.0083,
      "velocity": 77,
      "chip": "ym2612"
    },
    {
      "channel": 2,
      "note": 99,
      "start": 1.4865,
      "duration": 0.0112,
      "velocity": 77,
      "chip": "ym2612"
    },
    {
      "channel": 3,
      "note": 61,
      "start": 1.4868,
      "duration": 0.0169,
      "velocity": 119,
      "chip": "ym2612"
    },
    {
      "channel": 0,
      "note": 58,
      "start": 1.5034,
      "duration": 0.0318,
      "velocity": 110,
      "chip": "ym2612"
    },
    {
      "channel": 3,
      "note": 60,
      "start": 1.5039,
      "duration": 0.022,
      "velocity": 119,
      "chip": "ym2612"
    },
    {
      "channel": 2,
      "note": 99,
      "start": 1.5103,
      "duration": 0.0119,
      "velocity": 77,
      "chip": "ym2612"
    },
    {
      "channel": 3,
      "note": 59,
      "start": 1.5262,
      "duration": 0.0352,
      "velocity": 119,
      "chip": "ym2612"
    },
    {
      "channel": 0,
      "note": 57,
      "start": 1.5355,
      "duration": 0.0236,
      "velocity": 110,
      "chip": "ym2612"
    },
    {
      "channel": 2,
      "note": 99,
      "start": 1.5362,
      "duration": 0.0115,
      "velocity": 77,
      "chip": "ym2612"
    },
    {
      "channel": 0,
      "note": 58,
      "start": 1.5593,
      "duration": 0.1095,
      "velocity": 110,
      "chip": "ym2612"
    },
    {
      "channel": 2,
      "note": 69,
      "start": 1.5613,
      "duration": 0.0728,
      "velocity": 109,
      "chip": "ym2612"
    },
    {
      "channel": 3,
      "note": 58,
      "start": 1.5616,
      "duration": 0.1114,
      "velocity": 119,
      "chip": "ym2612"
    },
    {
      "channel": 0,
      "note": 63,
      "start": 1.6691,
      "duration": 0.0464,
      "velocity": 110,
      "chip": "ym2612"
    },
    {
      "channel": 1,
      "note": 45,
      "start": 1.6704,
      "duration": 0.253,
      "velocity": 108,
      "chip": "ym2612"
    },
    {
      "channel": 2,
      "note": 34,
      "start": 1.672,
      "duration": 0.0095,
      "velocity": 77,
      "chip": "ym2612"
    },
    {
      "channel": 3,
      "note": 63,
      "start": 1.6732,
      "duration": 0.0248,
      "velocity": 119,
      "chip": "ym2612"
    },
    {
      "channel": 2,
      "note": 39,
      "start": 1.6817,
      "duration": 0.0064,
      "velocity": 77,
      "chip": "ym2612"
    },
    {
      "channel": 2,
      "note": 46,
      "start": 1.6884,
      "duration": 0.0092,
      "velocity": 77,
      "chip": "ym2612"
    },
    {
      "channel": 2,
      "note": 46,
      "start": 1.6979,
      "duration": 0.0096,
      "velocity": 77,
      "chip": "ym2612"
    },
    {
      "channel": 3,
      "note": 58,
      "start": 1.6981,
      "duration": 0.0279,
      "velocity": 119,
      "chip": "ym2612"
    },
    {
      "channel": 4,
      "note": 45,
      "start": 1.6993,
      "duration": 0.2509,
      "velocity": 108,
      "chip": "ym2612"
    },
    {
      "channel": 2,
      "note": 51,
      "start": 1.7076,
      "duration": 0.0084,
      "velocity": 77,
      "chip": "ym2612"
    },
    {
      "channel": 0,
      "note": 62,
      "start": 1.7158,
      "duration": 0.0355,
      "velocity": 110,
      "chip": "ym2612"
    },
    {
      "channel": 2,
      "note": 58,
      "start": 1.7162,
      "duration": 0.0094,
      "velocity": 77,
      "chip": "ym2612"
    },
    {
      "channel": 2,
      "note": 58,
      "start": 1.7259,
      "duration": 0.0071,
      "velocity": 77,
      "chip": "ym2612"
    },
    {
      "channel": 3,
      "note": 59,
      "start": 1.7262,
      "duration": 0.0267,
      "velocity": 119,
      "chip": "ym2612"
    },
    {
      "channel": 2,
      "note": 63,
      "start": 1.7332,
      "duration": 0.0094,
      "velocity": 77,
      "chip": "ym2612"
    },
    {
      "channel": 2,
      "note": 70,
      "start": 1.7429,
      "duration": 0.0098,
      "velocity": 77,
      "chip": "ym2612"
    },
    {
      "channel": 0,
      "note": 61,
      "start": 1.7516,
      "duration": 0.0426,
      "velocity": 110,
      "chip": "ym2612"
    },
    {
      "channel": 2,
      "note": 70,
      "start": 1.7529,
      "duration": 0.0079,
      "velocity": 77,
      "chip": "ym2612"
    },
    {
      "channel": 3,
      "note": 60,
      "start": 1.7531,
      "duration": 0.0248,
      "velocity": 119,
      "chip": "ym2612"
    },
    {
      "channel": 2,
      "note": 75,
      "start": 1.7609,
      "duration": 0.0083,
      "velocity": 77,
      "chip": "ym2612"
    },
    {
      "channel": 2,
      "note": 82,
      "start": 1.7694,
      "duration": 0.0081,
      "velocity": 77,
      "chip": "ym2612"
    },
    {
      "channel": 2,
      "note": 99,
      "start": 1.7778,
      "duration": 0.0111,
      "velocity": 77,
      "chip": "ym2612"
    },
    {
      "channel": 3,
      "note": 61,
      "start": 1.778,
      "duration": 0.0167,
      "velocity": 119,
      "chip": "ym2612"
    },
    {
      "channel": 0,
      "note": 58,
      "start": 1.7945,
      "duration": 0.0355,
      "velocity": 110,
      "chip": "ym2612"
    },
    {
      "channel": 3,
      "note": 60,
      "start": 1.795,
      "duration": 0.026,
      "velocity": 119,
      "chip": "ym2612"
    },
    {
      "channel": 2,
      "note": 99,
      "start": 1.8054,
      "duration": 0.0119,
      "velocity": 77,
      "chip": "ym2612"
    },
    {
      "channel": 3,
      "note": 59,
      "start": 1.8213,
      "duration": 0.0395,
      "velocity": 119,
      "chip": "ym2612"
    },
    {
      "channel": 0,
      "note": 57,
      "start": 1.8303,
      "duration": 0.0282,
      "velocity": 110,
      "chip": "ym2612"
    },
    {
      "channel": 2,
      "note": 99,
      "start": 1.8309,
      "duration": 0.0134,
      "velocity": 77,
      "chip": "ym2612"
    },
    {
      "channel": 0,
      "note": 58,
      "start": 1.8587,
      "duration": 0.0642,
      "velocity": 110,
      "chip": "ym2612"
    },
    {
      "channel": 2,
      "note": 69,
      "start": 1.8607,
      "duration": 0.0597,
      "velocity": 109,
      "chip": "ym2612"
    },
    {
      "channel": 3,
      "note": 58,
      "start": 1.8609,
      "duration": 0.0644,
      "velocity": 119,
      "chip": "ym2612"
    },
    {
      "channel": 0,
      "note": 63,
      "start": 1.9232,
      "duration": 0.0388,
      "velocity": 110,
      "chip": "ym2612"
    },
    {
      "channel": 2,
      "note": 34,
      "start": 1.9252,
      "duration": 0.0094,
      "velocity": 77,
      "chip": "ym2612"
    },
    {
      "channel": 2,
      "note": 39,
      "start": 1.9348,
      "duration": 0.0065,
      "velocity": 77,
      "chip": "ym2612"
    },
    {
      "channel": 2,
      "note": 46,
      "start": 1.9416,
      "duration": 0.0083,
      "velocity": 77,
      "chip": "ym2612"
    },
    {
      "channel": 2,
      "note": 46,
      "start": 1.95,
      "duration": 0.0071,
      "velocity": 77,
      "chip": "ym2612"
    },
    {
      "channel": 2,
      "note": 51,
      "start": 1.9573,
      "duration": 0.0052,
      "velocity": 77,
      "chip": "ym2612"
    },
    {
      "channel": 0,
      "note": 62,
      "start": 1.9624,
      "duration": 0.0305,
      "velocity": 110,
      "chip": "ym2612"
    },
    {
      "channel": 2,
      "note": 58,
      "start": 1.9627,
      "duration": 0.0077,
      "velocity": 77,
      "chip": "ym2612"
    },
    {
      "channel": 2,
      "note": 58,
      "start": 1.9707,
      "duration": 0.0085,
      "velocity": 77,
      "chip": "ym2612"
    },
    {
      "channel": 2,
      "note": 63,
      "start": 1.9794,
      "duration": 0.0066,
      "velocity": 77,
      "chip": "ym2612"
    },
    {
      "channel": 2,
      "note": 70,
      "start": 1.9863,
      "duration": 0.008,
      "velocity": 77,
      "chip": "ym2612"
    },
    {
      "channel": 0,
      "note": 61,
      "start": 1.9932,
      "duration": 0.0356,
      "velocity": 110,
      "chip": "ym2612"
    },
    {
      "channel": 2,
      "note": 70,
      "start": 1.9946,
      "duration": 0.0066,
      "velocity": 77,
      "chip": "ym2612"
    },
    {
      "channel": 2,
      "note": 75,
      "start": 2.0014,
      "duration": 0.0061,
      "velocity": 77,
      "chip": "ym2612"
    },
    {
      "channel": 2,
      "note": 82,
      "start": 2.0078,
      "duration": 0.0068,
      "velocity": 77,
      "chip": "ym2612"
    },
    {
      "channel": 2,
      "note": 99,
      "start": 2.0149,
      "duration": 0.0094,
      "velocity": 77,
      "chip": "ym2612"
    },
    {
      "channel": 0,
      "note": 58,
      "start": 2.029,
      "duration": 0.0293,
      "velocity": 110,
      "chip": "ym2612"
    },
    {
      "channel": 2,
      "note": 99,
      "start": 2.0383,
      "duration": 0.009,
      "velocity": 77,
      "chip": "ym2612"
    },
    {
      "channel": 0,
      "note": 57,
      "start": 2.0586,
      "duration": 0.0222,
      "velocity": 110,
      "chip": "ym2612"
    },
    {
      "channel": 2,
      "note": 99,
      "start": 2.0592,
      "duration": 0.0109,
      "velocity": 77,
      "chip": "ym2612"
    },
    {
      "channel": 0,
      "note": 58,
      "start": 2.0811,
      "duration": 0.0472,
      "velocity": 110,
      "chip": "ym2612"
    },
    {
      "channel": 2,
      "note": 69,
      "start": 2.0829,
      "duration": 0.0436,
      "velocity": 109,
      "chip": "ym2612"
    },
    {
      "channel": 0,
      "note": 63,
      "start": 2.1285,
      "duration": 0.0435,
      "velocity": 110,
      "chip": "ym2612"
    },
    {
      "channel": 1,
      "note": 58,
      "start": 2.1299,
      "duration": 0.0425,
      "velocity": 115,
      "chip": "ym2612"
    },
    {
      "channel": 2,
      "note": 34,
      "start": 2.1313,
      "duration": 0.0081,
      "velocity": 77,
      "chip": "ym2612"
    },
    {
      "channel": 3,
      "note": 63,
      "start": 2.1326,
      "duration": 0.0224,
      "velocity": 119,
      "chip": "ym2612"
    },
    {
      "channel": 2,
      "note": 39,
      "start": 2.1395,
      "duration": 0.0068,
      "velocity": 77,
      "chip": "ym2612"
    },
    {
      "channel": 2,
      "note": 46,
      "start": 2.1466,
      "duration": 0.0081,
      "velocity": 77,
      "chip": "ym2612"
    },
    {
      "channel": 2,
      "note": 46,
      "start": 2.155,
      "duration": 0.0089,
      "velocity": 77,
      "chip": "ym2612"
    },
    {
      "channel": 3,
      "note": 58,
      "start": 2.1552,
      "duration": 0.0269,
      "velocity": 119,
      "chip": "ym2612"
    },
    {
      "channel": 4,
      "note": 58,
      "start": 2.1563,
      "duration": 0.0431,
      "velocity": 115,
      "chip": "ym2612"
    },
    {
      "channel": 2,
      "note": 51,
      "start": 2.164,
      "duration": 0.0087,
      "velocity": 77,
      "chip": "ym2612"
    },
    {
      "channel": 0,
      "note": 62,
      "start": 2.1723,
      "duration": 0.033,
      "velocity": 110,
      "chip": "ym2612"
    },
    {
      "channel": 1,
      "note": 63,
      "start": 2.1726,
      "duration": 0.0331,
      "velocity": 115,
      "chip": "ym2612"
    },
    {
      "channel": 2,
      "note": 58,
      "start": 2.1729,
      "duration": 0.0091,
      "velocity": 77,
      "chip": "ym2612"
    },
    {
      "channel": 2,
      "note": 58,
      "start": 2.1821,
      "duration": 0.0093,
      "velocity": 77,
      "chip": "ym2612"
    },
    {
      "channel": 3,
      "note": 59,
      "start": 2.1824,
      "duration": 0.0249,
      "velocity": 119,
      "chip": "ym2612"
    },
    {
      "channel": 2,
      "note": 63,
      "start": 2.1916,
      "duration": 0.0075,
      "velocity": 77,
      "chip": "ym2612"
    },
    {
      "channel": 2,
      "note": 70,
      "start": 2.1994,
      "duration": 0.0076,
      "velocity": 77,
      "chip": "ym2612"
    },
    {
      "channel": 4,
      "note": 63,
      "start": 2.1996,
      "duration": 0.0339,
      "velocity": 115,
      "chip": "ym2612"
    },
    {
      "channel": 0,
      "note": 61,
      "start": 2.2056,
      "duration": 0.043,
      "velocity": 110,
      "chip": "ym2612"
    },
    {
      "channel": 1,
      "note": 70,
      "start": 2.2059,
      "duration": 0.0268,
      "velocity": 115,
      "chip": "ym2612"
    },
    {
      "channel": 2,
      "note": 70,
      "start": 2.2072,
      "duration": 0.0085,
      "velocity": 77,
      "chip": "ym2612"
    },
    {
      "channel": 3,
      "note": 60,
      "start": 2.2075,
      "duration": 0.0259,
      "velocity": 119,
      "chip": "ym2612"
    },
    {
      "channel": 2,
      "note": 75,
      "start": 2.2159,
      "duration": 0.0086,
      "velocity": 77,
      "chip": "ym2612"
    },
    {
      "channel": 2,
      "note": 82,
      "start": 2.2247,
      "duration": 0.0085,
      "velocity": 77,
      "chip": "ym2612"
    },
    {
      "channel": 1,
      "note": 64,
      "start": 2.233,
      "duration": 0.1392,
      "velocity": 115,
      "chip": "ym2612"
    },
    {
      "channel": 2,
      "note": 99,
      "start": 2.2333,
      "duration": 0.0115,
      "velocity": 77,
      "chip": "ym2612"
    },
    {
      "channel": 3,
      "note": 61,
      "start": 2.2335,
      "duration": 0.0156,
      "velocity": 119,
      "chip": "ym2612"
    },
    {
      "channel": 4,
      "note": 70,
      "start": 2.2337,
      "duration": 0.0254,
      "velocity": 115,
      "chip": "ym2612"
    },
    {
      "channel": 0,
      "note": 58,
      "start": 2.2489,
      "duration": 0.035,
      "velocity": 110,
      "chip": "ym2612"
    },
    {
      "channel": 3,
      "note": 60,
      "start": 2.2494,
      "duration": 0.0251,
      "velocity": 119,
      "chip": "ym2612"
    },
    {
      "channel": 2,
      "note": 99,
      "start": 2.259,
      "duration": 0.0122,
      "velocity": 77,
      "chip": "ym2612"
    },
    {
      "channel": 4,
      "note": 64,
      "start": 2.2593,
      "duration": 0.1406,
      "velocity": 115,
      "chip": "ym2612"
    },
    {
      "channel": 3,
      "note": 59,
      "start": 2.2747,
      "duration": 0.0326,
      "velocity": 119,
      "chip": "ym2612"
    },
    {
      "channel": 0,
      "note": 57,
      "start": 2.2842,
      "duration": 0.0208,
      "velocity": 110,
      "chip": "ym2612"
    },
    {
      "channel": 2,
      "note": 99,
      "start": 2.2849,
      "duration": 0.0097,
      "velocity": 77,
      "chip": "ym2612"
    },
    {
      "channel": 0,
      "note": 58,
      "start": 2.3053,
      "duration": 0.0666,
      "velocity": 110,
      "chip": "ym2612"
    },
    {
      "channel": 2,
      "note": 69,
      "start": 2.3073,
      "duration": 0.06,
      "velocity": 109,
      "chip": "ym2612"
    },
    {
      "channel": 3,
      "note": 58,
      "start": 2.3075,
      "duration": 0.0674,
      "velocity": 119,
      "chip": "ym2612"
    },
    {
      "channel": 0,
      "note": 63,
      "start": 2.3722,
      "duration": 0.0439,
      "velocity": 110,
      "chip": "ym2612"
    },
    {
      "channel": 1,
      "note": 68,
      "start": 2.3725,
      "duration": 0.0772,
      "velocity": 115,
      "chip": "ym2612"
    },
    {
      "channel": 2,
      "note": 34,
      "start": 2.3739,
      "duration": 0.0083,
      "velocity": 77,
      "chip": "ym2612"
    },
    {
      "channel": 3,
      "note": 63,
      "start": 2.3751,
      "duration": 0.0244,
      "velocity": 119,
      "chip": "ym2612"
    },
    {
      "channel": 2,
      "note": 39,
      "start": 2.3824,
      "duration": 0.0073,
      "velocity": 77,
      "chip": "ym2612"
    },
    {
      "channel": 2,
      "note": 46,
      "start": 2.39,
      "duration": 0.0094,
      "velocity": 77,
      "chip": "ym2612"
    },
    {
      "channel": 2,
      "note": 46,
      "start": 2.3995,
      "duration": 0.0085,
      "velocity": 77,
      "chip": "ym2612"
    },
    {
      "channel": 3,
      "note": 58,
      "start": 2.3998,
      "duration": 0.0269,
      "velocity": 119,
      "chip": "ym2612"
    },
    {
      "channel": 4,
      "note": 68,
      "start": 2.4,
      "duration": 0.0763,
      "velocity": 115,
      "chip": "ym2612"
    },
    {
      "channel": 2,
      "note": 51,
      "start": 2.4083,
      "duration": 0.0083,
      "velocity": 77,
      "chip": "ym2612"
    },
    {
      "channel": 0,
      "note": 62,
      "start": 2.4163,
      "duration": 0.033,
      "velocity": 110,
      "chip": "ym2612"
    },
    {
      "channel": 2,
      "note": 58,
      "start": 2.4168,
      "duration": 0.0096,
      "velocity": 77,
      "chip": "ym2612"
    },
    {
      "channel": 2,
      "note": 58,
      "start": 2.4267,
      "duration": 0.0062,
      "velocity": 77,
      "chip": "ym2612"
    },
    {
      "channel": 3,
      "note": 59,
      "start": 2.427,
      "duration": 0.0243,
      "velocity": 119,
      "chip": "ym2612"
    },
    {
      "channel": 2,
      "note": 63,
      "start": 2.4331,
      "duration": 0.0076,
      "velocity": 77,
      "chip": "ym2612"
    },
    {
      "channel": 2,
      "note": 70,
      "start": 2.441,
      "duration": 0.01,
      "velocity": 77,
      "chip": "ym2612"
    },
    {
      "channel": 0,
      "note": 61,
      "start": 2.4496,
      "duration": 0.0426,
      "velocity": 110,
      "chip": "ym2612"
    },
    {
      "channel": 1,
      "note": 66,
      "start": 2.4499,
      "duration": 0.0256,
      "velocity": 115,
      "chip": "ym2612"
    },
    {
      "channel": 2,
      "note": 70,
      "start": 2.4512,
      "duration": 0.0086,
      "velocity": 77,
      "chip": "ym2612"
    },
    {
      "channel": 3,
      "note": 60,
      "start": 2.4514,
      "duration": 0.0247,
      "velocity": 119,
      "chip": "ym2612"
    },
    {
      "channel": 2,
      "note": 75,
      "start": 2.4599,
      "duration": 0.0088,
      "velocity": 77,
      "chip": "ym2612"
    },
    {
      "channel": 2,
      "note": 82,
      "start": 2.4689,
      "duration": 0.007,
      "velocity": 77,
      "chip": "ym2612"
    },
    {
      "channel": 1,
      "note": 64,
      "start": 2.4758,
      "duration": 0.0426,
      "velocity": 115,
      "chip": "ym2612"
    },
    {
      "channel": 2,
      "note": 99,
      "start": 2.4761,
      "duration": 0.0113,
      "velocity": 77,
      "chip": "ym2612"
    },
    {
      "channel": 3,
      "note": 61,
      "start": 2.4763,
      "duration": 0.0165,
      "velocity": 119,
      "chip": "ym2612"
    },
    {
      "channel": 4,
      "note": 66,
      "start": 2.4765,
      "duration": 0.0262,
      "velocity": 115,
      "chip": "ym2612"
    },
    {
      "channel": 0,
      "note": 58,
      "start": 2.4925,
      "duration": 0.033,
      "velocity": 110,
      "chip": "ym2612"
    },
    {
      "channel": 3,
      "note": 60,
      "start": 2.493,
      "duration": 0.0257,
      "velocity": 119,
      "chip": "ym2612"
    },
    {
      "channel": 2,
      "note": 99,
      "start": 2.5027,
      "duration": 0.0119,
      "velocity": 77,
      "chip": "ym2612"
    },
    {
      "channel": 4,
      "note": 64,
      "start": 2.5028,
      "duration": 0.0394,
      "velocity": 115,
      "chip": "ym2612"
    },
    {
      "channel": 1,
      "note": 63,
      "start": 2.5187,
      "duration": 0.0349,
      "velocity": 115,
      "chip": "ym2612"
    },
    {
      "channel": 3,
      "note": 59,
      "start": 2.519,
      "duration": 0.0366,
      "velocity": 119,
      "chip": "ym2612"
    },
    {
      "channel": 0,
      "note": 57,
      "start": 2.5258,
      "duration": 0.0274,
      "velocity": 110,
      "chip": "ym2612"
    },
    {
      "channel": 2,
      "note": 99,
      "start": 2.5265,
      "duration": 0.0122,
      "velocity": 77,
      "chip": "ym2612"
    },
    {
      "channel": 4,
      "note": 63,
      "start": 2.5425,
      "duration": 0.1083,
      "velocity": 115,
      "chip": "ym2612"
    },
    {
      "channel": 0,
      "note": 58,
      "start": 2.5535,
      "duration": 0.094,
      "velocity": 110,
      "chip": "ym2612"
    },
    {
      "channel": 1,
      "note": 61,
      "start": 2.5537,
      "duration": 0.0941,
      "velocity": 115,
      "chip": "ym2612"
    },
    {
      "channel": 2,
      "note": 69,
      "start": 2.5555,
      "duration": 0.0741,
      "velocity": 109,
      "chip": "ym2612"
    },
    {
      "channel": 3,
      "note": 58,
      "start": 2.5557,
      "duration": 0.0949,
      "velocity": 119,
      "chip": "ym2612"
    },
    {
      "channel": 0,
      "note": 63,
      "start": 2.6478,
      "duration": 0.0447,
      "velocity": 110,
      "chip": "ym2612"
    },
    {
      "channel": 1,
      "note": 63,
      "start": 2.6481,
      "duration": 0.0447,
      "velocity": 115,
      "chip": "ym2612"
    },
    {
      "channel": 2,
      "note": 34,
      "start": 2.6495,
      "duration": 0.0092,
      "velocity": 77,
      "chip": "ym2612"
    },
    {
      "channel": 3,
      "note": 63,
      "start": 2.6507,
      "duration": 0.0267,
      "velocity": 119,
      "chip": "ym2612"
    },
    {
      "channel": 4,
      "note": 61,
      "start": 2.6509,
      "duration": 0.0269,
      "velocity": 115,
      "chip": "ym2612"
    },
    {
      "channel": 2,
      "note": 39,
      "start": 2.6589,
      "duration": 0.008,
      "velocity": 77,
      "chip": "ym2612"
    },
    {
      "channel": 2,
      "note": 46,
      "start": 2.6671,
      "duration": 0.0101,
      "velocity": 77,
      "chip": "ym2612"
    },
    {
      "channel": 2,
      "note": 46,
      "start": 2.6773,
      "duration": 0.0083,
      "velocity": 77,
      "chip": "ym2612"
    },
    {
      "channel": 3,
      "note": 58,
      "start": 2.6777,
      "duration": 0.0261,
      "velocity": 119,
      "chip": "ym2612"
    },
    {
      "channel": 4,
      "note": 63,
      "start": 2.6779,
      "duration": 0.0442,
      "velocity": 115,
      "chip": "ym2612"
    },
    {
      "channel": 2,
      "note": 51,
      "start": 2.6857,
      "duration": 0.0073,
      "velocity": 77,
      "chip": "ym2612"
    },
    {
      "channel": 0,
      "note": 62,
      "start": 2.6927,
      "duration": 0.0398,
      "velocity": 110,
      "chip": "ym2612"
    },
    {
      "channel": 1,
      "note": 61,
      "start": 2.693,
      "duration": 0.0399,
      "velocity": 115,
      "chip": "ym2612"
    },
    {
      "channel": 2,
      "note": 58,
      "start": 2.6933,
      "duration": 0.0103,
      "velocity": 77,
      "chip": "ym2612"
    },
    {
      "channel": 2,
      "note": 58,
      "start": 2.7037,
      "duration": 0.0096,
      "velocity": 77,
      "chip": "ym2612"
    },
    {
      "channel": 3,
      "note": 59,
      "start": 2.704,
      "duration": 0.0304,
      "velocity": 119,
      "chip": "ym2612"
    },
    {
      "channel": 2,
      "note": 63,
      "start": 2.7135,
      "duration": 0.0082,
      "velocity": 77,
      "chip": "ym2612"
    },
    {
      "channel": 2,
      "note": 70,
      "start": 2.722,
      "duration": 0.0121,
      "velocity": 77,
      "chip": "ym2612"
    },
    {
      "channel": 4,
      "note": 61,
      "start": 2.7223,
      "duration": 0.0368,
      "velocity": 115,
      "chip": "ym2612"
    },
    {
      "channel": 0,
      "note": 61,
      "start": 2.7328,
      "duration": 0.0434,
      "velocity": 110,
      "chip": "ym2612"
    },
    {
      "channel": 1,
      "note": 58,
      "start": 2.7331,
      "duration": 0.0254,
      "velocity": 115,
      "chip": "ym2612"
    },
    {
      "channel": 2,
      "note": 70,
      "start": 2.7343,
      "duration": 0.0075,
      "velocity": 77,
      "chip": "ym2612"
    },
    {
      "channel": 3,
      "note": 60,
      "start": 2.7345,
      "duration": 0.0244,
      "velocity": 119,
      "chip": "ym2612"
    },
    {
      "channel": 2,
      "note": 75,
      "start": 2.7419,
      "duration": 0.0075,
      "velocity": 77,
      "chip": "ym2612"
    },
    {
      "channel": 2,
      "note": 82,
      "start": 2.7496,
      "duration": 0.0089,
      "velocity": 77,
      "chip": "ym2612"
    },
    {
      "channel": 1,
      "note": 58,
      "start": 2.7584,
      "duration": 0.1415,
      "velocity": 115,
      "chip": "ym2612"
    },
    {
      "channel": 2,
      "note": 99,
      "start": 2.7588,
      "duration": 0.0122,
      "velocity": 77,
      "chip": "ym2612"
    },
    {
      "channel": 3,
      "note": 61,
      "start": 2.759,
      "duration": 0.0177,
      "velocity": 119,
      "chip": "ym2612"
    },
    {
      "channel": 4,
      "note": 58,
      "start": 2.7593,
      "duration": 0.028,
      "velocity": 115,
      "chip": "ym2612"
    },
    {
      "channel": 0,
      "note": 58,
      "start": 2.7765,
      "duration": 0.0329,
      "velocity": 110,
      "chip": "ym2612"
    },
    {
      "channel": 3,
      "note": 60,
      "start": 2.777,
      "duration": 0.0249,
      "velocity": 119,
      "chip": "ym2612"
    },
    {
      "channel": 2,
      "note": 99,
      "start": 2.787,
      "duration": 0.0113,
      "velocity": 77,
      "chip": "ym2612"
    },
    {
      "channel": 4,
      "note": 58,
      "start": 2.7873,
      "duration": 0.14,
      "velocity": 115,
      "chip": "ym2612"
    },
    {
      "channel": 3,
      "note": 59,
      "start": 2.8022,
      "duration": 0.0335,
      "velocity": 119,
      "chip": "ym2612"
    },
    {
      "channel": 0,
      "note": 57,
      "start": 2.8097,
      "duration": 0.0238,
      "velocity": 110,
      "chip": "ym2612"
    },
    {
      "channel": 2,
      "note": 99,
      "start": 2.8104,
      "duration": 0.0132,
      "velocity": 77,
      "chip": "ym2612"
    },
    {
      "channel": 0,
      "note": 58,
      "start": 2.8338,
      "duration": 0.0659,
      "velocity": 110,
      "chip": "ym2612"
    },
    {
      "channel": 2,
      "note": 69,
      "start": 2.8356,
      "duration": 0.0595,
      "velocity": 109,
      "chip": "ym2612"
    },
    {
      "channel": 3,
      "note": 58,
      "start": 2.8358,
      "duration": 0.0668,
      "velocity": 119,
      "chip": "ym2612"
    },
    {
      "channel": 0,
      "note": 63,
      "start": 2.8999,
      "duration": 0.0406,
      "velocity": 110,
      "chip": "ym2612"
    },
    {
      "channel": 2,
      "note": 34,
      "start": 2.9017,
      "duration": 0.0084,
      "velocity": 77,
      "chip": "ym2612"
    },
    {
      "channel": 3,
      "note": 63,
      "start": 2.9028,
      "duration": 0.0241,
      "velocity": 119,
      "chip": "ym2612"
    },
    {
      "channel": 2,
      "note": 39,
      "start": 2.9102,
      "duration": 0.0069,
      "velocity": 77,
      "chip": "ym2612"
    },
    {
      "channel": 2,
      "note": 46,
      "start": 2.9173,
      "duration": 0.0094,
      "velocity": 77,
      "chip": "ym2612"
    },
    {
      "channel": 2,
      "note": 46,
      "start": 2.9269,
      "duration": 0.0069,
      "velocity": 77,
      "chip": "ym2612"
    },
    {
      "channel": 3,
      "note": 58,
      "start": 2.9272,
      "duration": 0.0215,
      "velocity": 119,
      "chip": "ym2612"
    },
    {
      "channel": 2,
      "note": 51,
      "start": 2.9339,
      "duration": 0.0068,
      "velocity": 77,
      "chip": "ym2612"
    },
    {
      "channel": 0,
      "note": 62,
      "start": 2.9407,
      "duration": 0.0262,
      "velocity": 110,
      "chip": "ym2612"
    },
    {
      "channel": 2,
      "note": 58,
      "start": 2.941,
      "duration": 0.0074,
      "velocity": 77,
      "chip": "ym2612"
    },
    {
      "channel": 2,
      "note": 58,
      "start": 2.9487,
      "duration": 0.0065,
      "velocity": 77,
      "chip": "ym2612"
    },
    {
      "channel": 3,
      "note": 59,
      "start": 2.949,
      "duration": 0.0195,
      "velocity": 119,
      "chip": "ym2612"
    },
    {
      "channel": 2,
      "note": 63,
      "start": 2.9554,
      "duration": 0.0051,
      "velocity": 77,
      "chip": "ym2612"
    },
    {
      "channel": 2,
      "note": 70,
      "start": 2.9607,
      "duration": 0.0075,
      "velocity": 77,
      "chip": "ym2612"
    },
    {
      "channel": 0,
      "note": 61,
      "start": 2.9671,
      "duration": 0.037,
      "velocity": 110,
      "chip": "ym2612"
    },
    {
      "channel": 2,
      "note": 70,
      "start": 2.9684,
      "duration": 0.007,
      "velocity": 77,
      "chip": "ym2612"
    },
    {
      "channel": 3,
      "note": 60,
      "start": 2.9687,
      "duration": 0.0227,
      "velocity": 119,
      "chip": "ym2612"
    },
    {
      "channel": 2,
      "note": 75,
      "start": 2.9756,
      "duration": 0.0062,
      "velocity": 77,
      "chip": "ym2612"
    },
    {
      "channel": 2,
      "note": 82,
      "start": 2.9821,
      "duration": 0.0089,
      "velocity": 77,
      "chip": "ym2612"
    },
    {
      "channel": 2,
      "note": 99,
      "start": 2.9913,
      "duration": 0.0087,
      "velocity": 77,
      "chip": "ym2612"
    },
    {
      "channel": 3,
      "note": 61,
      "start": 2.9915,
      "duration": 0.0129,
      "velocity": 119,
      "chip": "ym2612"
    },
    {
      "channel": 0,
      "note": 58,
      "start": 3.0044,
      "duration": 0.0297,
      "velocity": 110,
      "chip": "ym2612"
    },
    {
      "channel": 3,
      "note": 60,
      "start": 3.0047,
      "duration": 0.0217,
      "velocity": 119,
      "chip": "ym2612"
    },
    {
      "channel": 2,
      "note": 99,
      "start": 3.0141,
      "duration": 0.0095,
      "velocity": 77,
      "chip": "ym2612"
    },
    {
      "channel": 3,
      "note": 59,
      "start": 3.0267,
      "duration": 0.0289,
      "velocity": 119,
      "chip": "ym2612"
    },
    {
      "channel": 0,
      "note": 57,
      "start": 3.0344,
      "duration": 0.0191,
      "velocity": 110,
      "chip": "ym2612"
    },
    {
      "channel": 2,
      "note": 99,
      "start": 3.0349,
      "duration": 0.0085,
      "velocity": 77,
      "chip": "ym2612"
    },
    {
      "channel": 0,
      "note": 58,
      "start": 3.0537,
      "duration": 0.1082,
      "velocity": 110,
      "chip": "ym2612"
    },
    {
      "channel": 2,
      "note": 69,
      "start": 3.0555,
      "duration": 0.0717,
      "velocity": 109,
      "chip": "ym2612"
    },
    {
      "channel": 3,
      "note": 58,
      "start": 3.0558,
      "duration": 0.1093,
      "velocity": 119,
      "chip": "ym2612"
    },
    {
      "channel": 0,
      "note": 63,
      "start": 3.1622,
      "duration": 0.0424,
      "velocity": 110,
      "chip": "ym2612"
    },
    {
      "channel": 1,
      "note": 58,
      "start": 3.1626,
      "duration": 0.0422,
      "velocity": 115,
      "chip": "ym2612"
    },
    {
      "channel": 2,
      "note": 34,
      "start": 3.1641,
      "duration": 0.0073,
      "velocity": 77,
      "chip": "ym2612"
    },
    {
      "channel": 3,
      "note": 63,
      "start": 3.1653,
      "duration": 0.0228,
      "velocity": 119,
      "chip": "ym2612"
    },
    {
      "channel": 2,
      "note": 39,
      "start": 3.1715,
      "duration": 0.0065,
      "velocity": 77,
      "chip": "ym2612"
    },
    {
      "channel": 2,
      "note": 46,
      "start": 3.1784,
      "duration": 0.0095,
      "velocity": 77,
      "chip": "ym2612"
    },
    {
      "channel": 2,
      "note": 46,
      "start": 3.188,
      "duration": 0.0083,
      "velocity": 77,
      "chip": "ym2612"
    },
    {
      "channel": 3,
      "note": 58,
      "start": 3.1884,
      "duration": 0.0257,
      "velocity": 119,
      "chip": "ym2612"
    },
    {
      "channel": 4,
      "note": 58,
      "start": 3.1886,
      "duration": 0.0427,
      "velocity": 115,
      "chip": "ym2612"
    },
    {
      "channel": 2,
      "note": 51,
      "start": 3.1966,
      "duration": 0.0085,
      "velocity": 77,
      "chip": "ym2612"
    },
    {
      "channel": 0,
      "note": 62,
      "start": 3.2046,
      "duration": 0.0365,
      "velocity": 110,
      "chip": "ym2612"
    },
    {
      "channel": 1,
      "note": 63,
      "start": 3.205,
      "duration": 0.0365,
      "velocity": 115,
      "chip": "ym2612"
    },
    {
      "channel": 2,
      "note": 58,
      "start": 3.2052,
      "duration": 0.0087,
      "velocity": 77,
      "chip": "ym2612"
    },
    {
      "channel": 2,
      "note": 58,
      "start": 3.214,
      "duration": 0.0094,
      "velocity": 77,
      "chip": "ym2612"
    },
    {
      "channel": 3,
      "note": 59,
      "start": 3.2144,
      "duration": 0.0286,
      "velocity": 119,
      "chip": "ym2612"
    },
    {
      "channel": 2,
      "note": 63,
      "start": 3.2237,
      "duration": 0.0073,
      "velocity": 77,
      "chip": "ym2612"
    },
    {
      "channel": 2,
      "note": 70,
      "start": 3.2313,
      "duration": 0.0115,
      "velocity": 77,
      "chip": "ym2612"
    },
    {
      "channel": 4,
      "note": 63,
      "start": 3.2315,
      "duration": 0.0361,
      "velocity": 115,
      "chip": "ym2612"
    },
    {
      "channel": 0,
      "note": 61,
      "start": 3.2414,
      "duration": 0.0428,
      "velocity": 110,
      "chip": "ym2612"
    },
    {
      "channel": 1,
      "note": 70,
      "start": 3.2417,
      "duration": 0.0251,
      "velocity": 115,
      "chip": "ym2612"
    },
    {
      "channel": 2,
      "note": 70,
      "start": 3.2429,
      "duration": 0.0085,
      "velocity": 77,
      "chip": "ym2612"
    },
    {
      "channel": 3,
      "note": 60,
      "start": 3.2432,
      "duration": 0.0242,
      "velocity": 119,
      "chip": "ym2612"
    },
    {
      "channel": 2,
      "note": 75,
      "start": 3.2517,
      "duration": 0.008,
      "velocity": 77,
      "chip": "ym2612"
    },
    {
      "channel": 2,
      "note": 82,
      "start": 3.2599,
      "duration": 0.0073,
      "velocity": 77,
      "chip": "ym2612"
    },
    {
      "channel": 1,
      "note": 75,
      "start": 3.267,
      "duration": 0.1276,
      "velocity": 115,
      "chip": "ym2612"
    },
    {
      "channel": 2,
      "note": 99,
      "start": 3.2673,
      "duration": 0.012,
      "velocity": 77,
      "chip": "ym2612"
    },
    {
      "channel": 3,
      "note": 61,
      "start": 3.2676,
      "duration": 0.0172,
      "velocity": 119,
      "chip": "ym2612"
    },
    {
      "channel": 4,
      "note": 70,
      "start": 3.2678,
      "duration": 0.0268,
      "velocity": 115,
      "chip": "ym2612"
    },
    {
      "channel": 0,
      "note": 58,
      "start": 3.2845,
      "duration": 0.0317,
      "velocity": 110,
      "chip": "ym2612"
    },
    {
      "channel": 3,
      "note": 60,
      "start": 3.285,
      "duration": 0.0239,
      "velocity": 119,
      "chip": "ym2612"
    },
    {
      "channel": 2,
      "note": 99,
      "start": 3.2945,
      "duration": 0.012,
      "velocity": 77,
      "chip": "ym2612"
    },
    {
      "channel": 4,
      "note": 75,
      "start": 3.2949,
      "duration": 0.129,
      "velocity": 115,
      "chip": "ym2612"
    },
    {
      "channel": 3,
      "note": 59,
      "start": 3.3092,
      "duration": 0.0375,
      "velocity": 119,
      "chip": "ym2612"
    },
    {
      "channel": 0,
      "note": 57,
      "start": 3.3165,
      "duration": 0.0279,
      "velocity": 110,
      "chip": "ym2612"
    },
    {
      "channel": 2,
      "note": 99,
      "start": 3.3171,
      "duration": 0.012,
      "velocity": 77,
      "chip": "ym2612"
    },
    {
      "channel": 0,
      "note": 58,
      "start": 3.3446,
      "duration": 0.0497,
      "velocity": 110,
      "chip": "ym2612"
    },
    {
      "channel": 2,
      "note": 69,
      "start": 3.3466,
      "duration": 0.0444,
      "velocity": 109,
      "chip": "ym2612"
    },
    {
      "channel": 3,
      "note": 58,
      "start": 3.3469,
      "duration": 0.0505,
      "velocity": 119,
      "chip": "ym2612"
    },
    {
      "channel": 0,
      "note": 63,
      "start": 3.3946,
      "duration": 0.0437,
      "velocity": 110,
      "chip": "ym2612"
    },
    {
      "channel": 1,
      "note": 73,
      "start": 3.3949,
      "duration": 0.0823,
      "velocity": 115,
      "chip": "ym2612"
    },
    {
      "channel": 2,
      "note": 34,
      "start": 3.3964,
      "duration": 0.009,
      "velocity": 77,
      "chip": "ym2612"
    },
    {
      "channel": 3,
      "note": 63,
      "start": 3.3976,
      "duration": 0.026,
      "velocity": 119,
      "chip": "ym2612"
    },
    {
      "channel": 2,
      "note": 39,
      "start": 3.4056,
      "duration": 0.0071,
      "velocity": 77,
      "chip": "ym2612"
    },
    {
      "channel": 2,
      "note": 46,
      "start": 3.413,
      "duration": 0.0102,
      "velocity": 77,
      "chip": "ym2612"
    },
    {
      "channel": 2,
      "note": 46,
      "start": 3.4235,
      "duration": 0.0068,
      "velocity": 77,
      "chip": "ym2612"
    },
    {
      "channel": 3,
      "note": 58,
      "start": 3.4238,
      "duration": 0.0254,
      "velocity": 119,
      "chip": "ym2612"
    },
    {
      "channel": 4,
      "note": 73,
      "start": 3.4241,
      "duration": 0.0793,
      "velocity": 115,
      "chip": "ym2612"
    },
    {
      "channel": 2,
      "note": 51,
      "start": 3.4304,
      "duration": 0.0083,
      "velocity": 77,
      "chip": "ym2612"
    },
    {
      "channel": 0,
      "note": 62,
      "start": 3.4385,
      "duration": 0.0384,
      "velocity": 110,
      "chip": "ym2612"
    },
    {
      "channel": 2,
      "note": 58,
      "start": 3.439,
      "duration": 0.01,
      "velocity": 77,
      "chip": "ym2612"
    },
    {
      "channel": 2,
      "note": 58,
      "start": 3.4491,
      "duration": 0.0094,
      "velocity": 77,
      "chip": "ym2612"
    },
    {
      "channel": 3,
      "note": 59,
      "start": 3.4495,
      "duration": 0.0293,
      "velocity": 119,
      "chip": "ym2612"
    },
    {
      "channel": 2,
      "note": 63,
      "start": 3.4587,
      "duration": 0.0077,
      "velocity": 77,
      "chip": "ym2612"
    },
    {
      "channel": 2,
      "note": 70,
      "start": 3.4667,
      "duration": 0.0118,
      "velocity": 77,
      "chip": "ym2612"
    },
    {
      "channel": 0,
      "note": 61,
      "start": 3.4772,
      "duration": 0.0424,
      "velocity": 110,
      "chip": "ym2612"
    },
    {
      "channel": 1,
      "note": 71,
      "start": 3.4774,
      "duration": 0.0251,
      "velocity": 115,
      "chip": "ym2612"
    },
    {
      "channel": 2,
      "note": 70,
      "start": 3.4787,
      "duration": 0.0072,
      "velocity": 77,
      "chip": "ym2612"
    },
    {
      "channel": 3,
      "note": 60,
      "start": 3.4789,
      "duration": 0.0242,
      "velocity": 119,
      "chip": "ym2612"
    },
    {
      "channel": 2,
      "note": 75,
      "start": 3.4861,
      "duration": 0.0078,
      "velocity": 77,
      "chip": "ym2612"
    },
    {
      "channel": 2,
      "note": 82,
      "start": 3.4942,
      "duration": 0.0087,
      "velocity": 77,
      "chip": "ym2612"
    },
    {
      "channel": 1,
      "note": 73,
      "start": 3.5028,
      "duration": 0.0403,
      "velocity": 115,
      "chip": "ym2612"
    },
    {
      "channel": 2,
      "note": 99,
      "start": 3.5031,
      "duration": 0.0117,
      "velocity": 77,
      "chip": "ym2612"
    },
    {
      "channel": 3,
      "note": 61,
      "start": 3.5033,
      "duration": 0.0168,
      "velocity": 119,
      "chip": "ym2612"
    },
    {
      "channel": 4,
      "note": 71,
      "start": 3.5036,
      "duration": 0.0238,
      "velocity": 115,
      "chip": "ym2612"
    },
    {
      "channel": 0,
      "note": 58,
      "start": 3.5199,
      "duration": 0.0329,
      "velocity": 110,
      "chip": "ym2612"
    },
    {
      "channel": 3,
      "note": 60,
      "start": 3.5205,
      "duration": 0.023,
      "velocity": 119,
      "chip": "ym2612"
    },
    {
      "channel": 2,
      "note": 99,
      "start": 3.5273,
      "duration": 0.0121,
      "velocity": 77,
      "chip": "ym2612"
    },
    {
      "channel": 4,
      "note": 73,
      "start": 3.5276,
      "duration": 0.041,
      "velocity": 115,
      "chip": "ym2612"
    },
    {
      "channel": 1,
      "note": 71,
      "start": 3.5434,
      "duration": 0.0324,
      "velocity": 115,
      "chip": "ym2612"
    },
    {
      "channel": 3,
      "note": 59,
      "start": 3.5437,
      "duration": 0.0341,
      "velocity": 119,
      "chip": "ym2612"
    },
    {
      "channel": 0,
      "note": 57,
      "start": 3.5531,
      "duration": 0.0224,
      "velocity": 110,
      "chip": "ym2612"
    },
    {
      "channel": 2,
      "note": 99,
      "start": 3.5537,
      "duration": 0.0112,
      "velocity": 77,
      "chip": "ym2612"
    },
    {
      "channel": 4,
      "note": 71,
      "start": 3.5688,
      "duration": 0.121,
      "velocity": 115,
      "chip": "ym2612"
    },
    {
      "channel": 0,
      "note": 58,
      "start": 3.5758,
      "duration": 0.1108,
      "velocity": 110,
      "chip": "ym2612"
    },
    {
      "channel": 1,
      "note": 70,
      "start": 3.576,
      "duration": 0.056,
      "velocity": 115,
      "chip": "ym2612"
    },
    {
      "channel": 2,
      "note": 69,
      "start": 3.5778,
      "duration": 0.0742,
      "velocity": 109,
      "chip": "ym2612"
    },
    {
      "channel": 3,
      "note": 58,
      "start": 3.5779,
      "duration": 0.1117,
      "velocity": 119,
      "chip": "ym2612"
    },
    {
      "channel": 1,
      "note": 68,
      "start": 3.6323,
      "duration": 0.0546,
      "velocity": 115,
      "chip": "ym2612"
    },
    {
      "channel": 0,
      "note": 63,
      "start": 3.6868,
      "duration": 0.0449,
      "velocity": 110,
      "chip": "ym2612"
    },
    {
      "channel": 1,
      "note": 70,
      "start": 3.6872,
      "duration": 0.0447,
      "velocity": 115,
      "chip": "ym2612"
    },
    {
      "channel": 2,
      "note": 34,
      "start": 3.6886,
      "duration": 0.0094,
      "velocity": 77,
      "chip": "ym2612"
    },
    {
      "channel": 3,
      "note": 63,
      "start": 3.6898,
      "duration": 0.0251,
      "velocity": 119,
      "chip": "ym2612"
    },
    {
      "channel": 4,
      "note": 70,
      "start": 3.69,
      "duration": 0.0151,
      "velocity": 115,
      "chip": "ym2612"
    },
    {
      "channel": 2,
      "note": 39,
      "start": 3.6982,
      "duration": 0.0066,
      "velocity": 77,
      "chip": "ym2612"
    },
    {
      "channel": 2,
      "note": 46,
      "start": 3.705,
      "duration": 0.0097,
      "velocity": 77,
      "chip": "ym2612"
    },
    {
      "channel": 4,
      "note": 68,
      "start": 3.7053,
      "duration": 0.0099,
      "velocity": 115,
      "chip": "ym2612"
    },
    {
      "channel": 2,
      "note": 46,
      "start": 3.7148,
      "duration": 0.0086,
      "velocity": 77,
      "chip": "ym2612"
    },
    {
      "channel": 3,
      "note": 58,
      "start": 3.7151,
      "duration": 0.0267,
      "velocity": 119,
      "chip": "ym2612"
    },
    {
      "channel": 4,
      "note": 70,
      "start": 3.7154,
      "duration": 0.0424,
      "velocity": 115,
      "chip": "ym2612"
    },
    {
      "channel": 2,
      "note": 51,
      "start": 3.7236,
      "duration": 0.0088,
      "velocity": 77,
      "chip": "ym2612"
    },
    {
      "channel": 0,
      "note": 62,
      "start": 3.7319,
      "duration": 0.0338,
      "velocity": 110,
      "chip": "ym2612"
    },
    {
      "channel": 1,
      "note": 67,
      "start": 3.7322,
      "duration": 0.0338,
      "velocity": 115,
      "chip": "ym2612"
    },
    {
      "channel": 2,
      "note": 58,
      "start": 3.7324,
      "duration": 0.009,
      "velocity": 77,
      "chip": "ym2612"
    },
    {
      "channel": 2,
      "note": 58,
      "start": 3.7417,
      "duration": 0.0085,
      "velocity": 77,
      "chip": "ym2612"
    },
    {
      "channel": 3,
      "note": 59,
      "start": 3.742,
      "duration": 0.0256,
      "velocity": 119,
      "chip": "ym2612"
    },
    {
      "channel": 2,
      "note": 63,
      "start": 3.7504,
      "duration": 0.0069,
      "velocity": 77,
      "chip": "ym2612"
    },
    {
      "channel": 2,
      "note": 70,
      "start": 3.7577,
      "duration": 0.0097,
      "velocity": 77,
      "chip": "ym2612"
    },
    {
      "channel": 4,
      "note": 67,
      "start": 3.7579,
      "duration": 0.035,
      "velocity": 115,
      "chip": "ym2612"
    },
    {
      "channel": 0,
      "note": 61,
      "start": 3.766,
      "duration": 0.0427,
      "velocity": 110,
      "chip": "ym2612"
    },
    {
      "channel": 1,
      "note": 63,
      "start": 3.7663,
      "duration": 0.026,
      "velocity": 115,
      "chip": "ym2612"
    },
    {
      "channel": 2,
      "note": 70,
      "start": 3.7676,
      "duration": 0.0083,
      "velocity": 77,
      "chip": "ym2612"
    },
    {
      "channel": 3,
      "note": 60,
      "start": 3.7678,
      "duration": 0.0249,
      "velocity": 119,
      "chip": "ym2612"
    },
    {
      "channel": 2,
      "note": 75,
      "start": 3.776,
      "duration": 0.008,
      "velocity": 77,
      "chip": "ym2612"
    },
    {
      "channel": 2,
      "note": 82,
      "start": 3.7843,
      "duration": 0.0081,
      "velocity": 77,
      "chip": "ym2612"
    },
    {
      "channel": 1,
      "note": 63,
      "start": 3.7923,
      "duration": 0.1393,
      "velocity": 115,
      "chip": "ym2612"
    },
    {
      "channel": 2,
      "note": 99,
      "start": 3.7926,
      "duration": 0.0107,
      "velocity": 77,
      "chip": "ym2612"
    },
    {
      "channel": 3,
      "note": 61,
      "start": 3.7928,
      "duration": 0.0164,
      "velocity": 119,
      "chip": "ym2612"
    },
    {
      "channel": 4,
      "note": 63,
      "start": 3.793,
      "duration": 0.0263,
      "velocity": 115,
      "chip": "ym2612"
    },
    {
      "channel": 0,
      "note": 58,
      "start": 3.809,
      "duration": 0.0354,
      "velocity": 110,
      "chip": "ym2612"
    },
    {
      "channel": 3,
      "note": 60,
      "start": 3.8094,
      "duration": 0.0263,
      "velocity": 119,
      "chip": "ym2612"
    },
    {
      "channel": 2,
      "note": 99,
      "start": 3.8191,
      "duration": 0.0125,
      "velocity": 77,
      "chip": "ym2612"
    },
    {
      "channel": 4,
      "note": 63,
      "start": 3.8194,
      "duration": 0.1404,
      "velocity": 115,
      "chip": "ym2612"
    },
    {
      "channel": 3,
      "note": 59,
      "start": 3.836,
      "duration": 0.0329,
      "velocity": 119,
      "chip": "ym2612"
    },
    {
      "channel": 0,
      "note": 57,
      "start": 3.8447,
      "duration": 0.0221,
      "velocity": 110,
      "chip": "ym2612"
    },
    {
      "channel": 2,
      "note": 99,
      "start": 3.8455,
      "duration": 0.0101,
      "velocity": 77,
      "chip": "ym2612"
    },
    {
      "channel": 0,
      "note": 58,
      "start": 3.8669,
      "duration": 0.0642,
      "velocity": 110,
      "chip": "ym2612"
    },
    {
      "channel": 2,
      "note": 69,
      "start": 3.8689,
      "duration": 0.0597,
      "velocity": 109,
      "chip": "ym2612"
    },
    {
      "channel": 3,
      "note": 58,
      "start": 3.8691,
      "duration": 0.0654,
      "velocity": 119,
      "chip": "ym2612"
    },
    {
      "channel": 0,
      "note": 63,
      "start": 3.9315,
      "duration": 0.0417,
      "velocity": 110,
      "chip": "ym2612"
    },
    {
      "channel": 2,
      "note": 34,
      "start": 3.9334,
      "duration": 0.0097,
      "velocity": 77,
      "chip": "ym2612"
    },
    {
      "channel": 3,
      "note": 63,
      "start": 3.9348,
      "duration": 0.0246,
      "velocity": 119,
      "chip": "ym2612"
    },
    {
      "channel": 2,
      "note": 39,
      "start": 3.9433,
      "duration": 0.0072,
      "velocity": 77,
      "chip": "ym2612"
    },
    {
      "channel": 2,
      "note": 46,
      "start": 3.9507,
      "duration": 0.0085,
      "velocity": 77,
      "chip": "ym2612"
    },
    {
      "channel": 2,
      "note": 46,
      "start": 3.9594,
      "duration": 0.0071,
      "velocity": 77,
      "chip": "ym2612"
    },
    {
      "channel": 3,
      "note": 58,
      "start": 3.9598,
      "duration": 0.021,
      "velocity": 119,
      "chip": "ym2612"
    },
    {
      "channel": 2,
      "note": 51,
      "start": 3.9666,
      "duration": 0.0068,
      "velocity": 77,
      "chip": "ym2612"
    },
    {
      "channel": 0,
      "note": 62,
      "start": 3.9733,
      "duration": 0.0295,
      "velocity": 110,
      "chip": "ym2612"
    },
    {
      "channel": 2,
      "note": 58,
      "start": 3.9737,
      "duration": 0.0067,
      "velocity": 77,
      "chip": "ym2612"
    },
    {
      "channel": 2,
      "note": 58,
      "start": 3.9807,
      "duration": 0.009,
      "velocity": 77,
      "chip": "ym2612"
    },
    {
      "channel": 3,
      "note": 59,
      "start": 3.981,
      "duration": 0.0234,
      "velocity": 119,
      "chip": "ym2612"
    },
    {
      "channel": 2,
      "note": 63,
      "start": 3.9898,
      "duration": 0.006,
      "velocity": 77,
      "chip": "ym2612"
    },
    {
      "channel": 2,
      "note": 70,
      "start": 3.9961,
      "duration": 0.008,
      "velocity": 77,
      "chip": "ym2612"
    },
    {
      "channel": 0,
      "note": 61,
      "start": 4.0031,
      "duration": 0.0351,
      "velocity": 110,
      "chip": "ym2612"
    },
    {
      "channel": 2,
      "note": 70,
      "start": 4.0044,
      "duration": 0.0069,
      "velocity": 77,
      "chip": "ym2612"
    },
    {
      "channel": 3,
      "note": 60,
      "start": 4.0047,
      "duration": 0.02,
      "velocity": 119,
      "chip": "ym2612"
    },
    {
      "channel": 2,
      "note": 75,
      "start": 4.0115,
      "duration": 0.0057,
      "velocity": 77,
      "chip": "ym2612"
    },
    {
      "channel": 2,
      "note": 82,
      "start": 4.0174,
      "duration": 0.007,
      "velocity": 77,
      "chip": "ym2612"
    },
    {
      "channel": 2,
      "note": 99,
      "start": 4.0246,
      "duration": 0.0094,
      "velocity": 77,
      "chip": "ym2612"
    },
    {
      "channel": 3,
      "note": 61,
      "start": 4.0248,
      "duration": 0.0139,
      "velocity": 119,
      "chip": "ym2612"
    },
    {
      "channel": 0,
      "note": 58,
      "start": 4.0385,
      "duration": 0.0292,
      "velocity": 110,
      "chip": "ym2612"
    },
    {
      "channel": 3,
      "note": 60,
      "start": 4.0389,
      "duration": 0.0207,
      "velocity": 119,
      "chip": "ym2612"
    },
    {
      "channel": 2,
      "note": 99,
      "start": 4.0485,
      "duration": 0.0082,
      "velocity": 77,
      "chip": "ym2612"
    },
    {
      "channel": 3,
      "note": 59,
      "start": 4.0599,
      "duration": 0.0331,
      "velocity": 119,
      "chip": "ym2612"
    },
    {
      "channel": 0,
      "note": 57,
      "start": 4.068,
      "duration": 0.0228,
      "velocity": 110,
      "chip": "ym2612"
    },
    {
      "channel": 2,
      "note": 99,
      "start": 4.0686,
      "duration": 0.0111,
      "velocity": 77,
      "chip": "ym2612"
    },
    {
      "channel": 0,
      "note": 58,
      "start": 4.091,
      "duration": 0.0478,
      "velocity": 110,
      "chip": "ym2612"
    },
    {
      "channel": 2,
      "note": 69,
      "start": 4.0929,
      "duration": 0.0441,
      "velocity": 109,
      "chip": "ym2612"
    },
    {
      "channel": 3,
      "note": 58,
      "start": 4.0931,
      "duration": 0.05,
      "velocity": 119,
      "chip": "ym2612"
    },
    {
      "channel": 0,
      "note": 63,
      "start": 4.1391,
      "duration": 0.0441,
      "velocity": 110,
      "chip": "ym2612"
    },
    {
      "channel": 1,
      "note": 58,
      "start": 4.1405,
      "duration": 0.0431,
      "velocity": 115,
      "chip": "ym2612"
    },
    {
      "channel": 2,
      "note": 34,
      "start": 4.142,
      "duration": 0.0082,
      "velocity": 77,
      "chip": "ym2612"
    },
    {
      "channel": 3,
      "note": 63,
      "start": 4.1432,
      "duration": 0.0242,
      "velocity": 119,
      "chip": "ym2612"
    },
    {
      "channel": 2,
      "note": 39,
      "start": 4.1505,
      "duration": 0.0071,
      "velocity": 77,
      "chip": "ym2612"
    },
    {
      "channel": 2,
      "note": 46,
      "start": 4.1578,
      "duration": 0.0093,
      "velocity": 77,
      "chip": "ym2612"
    },
    {
      "channel": 2,
      "note": 46,
      "start": 4.1674,
      "duration": 0.0077,
      "velocity": 77,
      "chip": "ym2612"
    },
    {
      "channel": 3,
      "note": 58,
      "start": 4.1677,
      "duration": 0.0259,
      "velocity": 119,
      "chip": "ym2612"
    },
    {
      "channel": 4,
      "note": 58,
      "start": 4.1688,
      "duration": 0.0423,
      "velocity": 115,
      "chip": "ym2612"
    },
    {
      "channel": 2,
      "note": 51,
      "start": 4.1752,
      "duration": 0.0086,
      "velocity": 77,
      "chip": "ym2612"
    },
    {
      "channel": 0,
      "note": 62,
      "start": 4.1834,
      "duration": 0.0337,
      "velocity": 110,
      "chip": "ym2612"
    },
    {
      "channel": 1,
      "note": 63,
      "start": 4.1837,
      "duration": 0.0338,
      "velocity": 115,
      "chip": "ym2612"
    },
    {
      "channel": 2,
      "note": 58,
      "start": 4.184,
      "duration": 0.0093,
      "velocity": 77,
      "chip": "ym2612"
    },
    {
      "channel": 2,
      "note": 58,
      "start": 4.1936,
      "duration": 0.0096,
      "velocity": 77,
      "chip": "ym2612"
    },
    {
      "channel": 3,
      "note": 59,
      "start": 4.1939,
      "duration": 0.0252,
      "velocity": 119,
      "chip": "ym2612"
    },
    {
      "channel": 2,
      "note": 63,
      "start": 4.2034,
      "duration": 0.0074,
      "velocity": 77,
      "chip": "ym2612"
    },
    {
      "channel": 2,
      "note": 70,
      "start": 4.211,
      "duration": 0.0078,
      "velocity": 77,
      "chip": "ym2612"
    },
    {
      "channel": 4,
      "note": 63,
      "start": 4.2114,
      "duration": 0.033,
      "velocity": 115,
      "chip": "ym2612"
    },
    {
      "channel": 0,
      "note": 61,
      "start": 4.2175,
      "duration": 0.0432,
      "velocity": 110,
      "chip": "ym2612"
    },
    {
      "channel": 1,
      "note": 70,
      "start": 4.2177,
      "duration": 0.0258,
      "velocity": 115,
      "chip": "ym2612"
    },
    {
      "channel": 2,
      "note": 70,
      "start": 4.219,
      "duration": 0.0078,
      "velocity": 77,
      "chip": "ym2612"
    },
    {
      "channel": 3,
      "note": 60,
      "start": 4.2192,
      "duration": 0.0249,
      "velocity": 119,
      "chip": "ym2612"
    },
    {
      "channel": 2,
      "note": 75,
      "start": 4.227,
      "duration": 0.008,
      "velocity": 77,
      "chip": "ym2612"
    },
    {
      "channel": 2,
      "note": 82,
      "start": 4.2352,
      "duration": 0.0087,
      "velocity": 77,
      "chip": "ym2612"
    },
    {
      "channel": 1,
      "note": 64,
      "start": 4.2438,
      "duration": 0.1386,
      "velocity": 115,
      "chip": "ym2612"
    },
    {
      "channel": 2,
      "note": 99,
      "start": 4.2441,
      "duration": 0.0119,
      "velocity": 77,
      "chip": "ym2612"
    },
    {
      "channel": 3,
      "note": 61,
      "start": 4.2443,
      "duration": 0.0168,
      "velocity": 119,
      "chip": "ym2612"
    },
    {
      "channel": 4,
      "note": 70,
      "start": 4.2445,
      "duration": 0.0238,
      "velocity": 115,
      "chip": "ym2612"
    },
    {
      "channel": 0,
      "note": 58,
      "start": 4.261,
      "duration": 0.0324,
      "velocity": 110,
      "chip": "ym2612"
    },
    {
      "channel": 3,
      "note": 60,
      "start": 4.2614,
      "duration": 0.023,
      "velocity": 119,
      "chip": "ym2612"
    },
    {
      "channel": 2,
      "note": 99,
      "start": 4.2682,
      "duration": 0.012,
      "velocity": 77,
      "chip": "ym2612"
    },
    {
      "channel": 4,
      "note": 64,
      "start": 4.2685,
      "duration": 0.1411,
      "velocity": 115,
      "chip": "ym2612"
    },
    {
      "channel": 3,
      "note": 59,
      "start": 4.2847,
      "duration": 0.0333,
      "velocity": 119,
      "chip": "ym2612"
    },
    {
      "channel": 0,
      "note": 57,
      "start": 4.2936,
      "duration": 0.0222,
      "velocity": 110,
      "chip": "ym2612"
    },
    {
      "channel": 2,
      "note": 99,
      "start": 4.2943,
      "duration": 0.0116,
      "velocity": 77,
      "chip": "ym2612"
    },
    {
      "channel": 0,
      "note": 58,
      "start": 4.3159,
      "duration": 0.0662,
      "velocity": 110,
      "chip": "ym2612"
    },
    {
      "channel": 2,
      "note": 69,
      "start": 4.3179,
      "duration": 0.0594,
      "velocity": 109,
      "chip": "ym2612"
    },
    {
      "channel": 3,
      "note": 58,
      "start": 4.3181,
      "duration": 0.0671,
      "velocity": 119,
      "chip": "ym2612"
    },
    {
      "channel": 0,
      "note": 63,
      "start": 4.3823,
      "duration": 0.0438,
      "velocity": 110,
      "chip": "ym2612"
    },
    {
      "channel": 1,
      "note": 68,
      "start": 4.3827,
      "duration": 0.0777,
      "velocity": 115,
      "chip": "ym2612"
    },
    {
      "channel": 2,
      "note": 34,
      "start": 4.3841,
      "duration": 0.0082,
      "velocity": 77,
      "chip": "ym2612"
    },
    {
      "channel": 3,
      "note": 63,
      "start": 4.3853,
      "duration": 0.0239,
      "velocity": 119,
      "chip": "ym2612"
    },
    {
      "channel": 2,
      "note": 39,
      "start": 4.3925,
      "duration": 0.0061,
      "velocity": 77,
      "chip": "ym2612"
    },
    {
      "channel": 2,
      "note": 46,
      "start": 4.3989,
      "duration": 0.0101,
      "velocity": 77,
      "chip": "ym2612"
    },
    {
      "channel": 2,
      "note": 46,
      "start": 4.4092,
      "duration": 0.0087,
      "velocity": 77,
      "chip": "ym2612"
    },
    {
      "channel": 3,
      "note": 58,
      "start": 4.4095,
      "duration": 0.0271,
      "velocity": 119,
      "chip": "ym2612"
    },
    {
      "channel": 4,
      "note": 68,
      "start": 4.4098,
      "duration": 0.0776,
      "velocity": 115,
      "chip": "ym2612"
    },
    {
      "channel": 2,
      "note": 51,
      "start": 4.4181,
      "duration": 0.0084,
      "velocity": 77,
      "chip": "ym2612"
    },
    {
      "channel": 0,
      "note": 62,
      "start": 4.4263,
      "duration": 0.0337,
      "velocity": 110,
      "chip": "ym2612"
    },
    {
      "channel": 2,
      "note": 58,
      "start": 4.4267,
      "duration": 0.0096,
      "velocity": 77,
      "chip": "ym2612"
    },
    {
      "channel": 2,
      "note": 58,
      "start": 4.4366,
      "duration": 0.0063,
      "velocity": 77,
      "chip": "ym2612"
    },
    {
      "channel": 3,
      "note": 59,
      "start": 4.4368,
      "duration": 0.025,
      "velocity": 119,
      "chip": "ym2612"
    },
    {
      "channel": 2,
      "note": 63,
      "start": 4.443,
      "duration": 0.0086,
      "velocity": 77,
      "chip": "ym2612"
    },
    {
      "channel": 2,
      "note": 70,
      "start": 4.4519,
      "duration": 0.0097,
      "velocity": 77,
      "chip": "ym2612"
    },
    {
      "channel": 0,
      "note": 61,
      "start": 4.4603,
      "duration": 0.0421,
      "velocity": 110,
      "chip": "ym2612"
    },
    {
      "channel": 1,
      "note": 66,
      "start": 4.4605,
      "duration": 0.0259,
      "velocity": 115,
      "chip": "ym2612"
    },
    {
      "channel": 2,
      "note": 70,
      "start": 4.4618,
      "duration": 0.0085,
      "velocity": 77,
      "chip": "ym2612"
    },
    {
      "channel": 3,
      "note": 60,
      "start": 4.462,
      "duration": 0.0251,
      "velocity": 119,
      "chip": "ym2612"
    },
    {
      "channel": 2,
      "note": 75,
      "start": 4.4705,
      "duration": 0.008,
      "velocity": 77,
      "chip": "ym2612"
    },
    {
      "channel": 2,
      "note": 82,
      "start": 4.4787,
      "duration": 0.0081,
      "velocity": 77,
      "chip": "ym2612"
    },
    {
      "channel": 1,
      "note": 64,
      "start": 4.4867,
      "duration": 0.0411,
      "velocity": 115,
      "chip": "ym2612"
    },
    {
      "channel": 2,
      "note": 99,
      "start": 4.487,
      "duration": 0.0106,
      "velocity": 77,
      "chip": "ym2612"
    },
    {
      "channel": 3,
      "note": 61,
      "start": 4.4873,
      "duration": 0.0156,
      "velocity": 119,
      "chip": "ym2612"
    },
    {
      "channel": 4,
      "note": 66,
      "start": 4.4876,
      "duration": 0.0254,
      "velocity": 115,
      "chip": "ym2612"
    },
    {
      "channel": 0,
      "note": 58,
      "start": 4.5026,
      "duration": 0.0348,
      "velocity": 110,
      "chip": "ym2612"
    },
    {
      "channel": 3,
      "note": 60,
      "start": 4.5031,
      "duration": 0.0251,
      "velocity": 119,
      "chip": "ym2612"
    },
    {
      "channel": 2,
      "note": 99,
      "start": 4.5129,
      "duration": 0.0115,
      "velocity": 77,
      "chip": "ym2612"
    },
    {
      "channel": 4,
      "note": 64,
      "start": 4.5131,
      "duration": 0.0413,
      "velocity": 115,
      "chip": "ym2612"
    },
    {
      "channel": 1,
      "note": 63,
      "start": 4.5281,
      "duration": 0.0377,
      "velocity": 115,
      "chip": "ym2612"
    },
    {
      "channel": 3,
      "note": 59,
      "start": 4.5284,
      "duration": 0.0394,
      "velocity": 119,
      "chip": "ym2612"
    },
    {
      "channel": 0,
      "note": 57,
      "start": 4.5377,
      "duration": 0.0278,
      "velocity": 110,
      "chip": "ym2612"
    },
    {
      "channel": 2,
      "note": 99,
      "start": 4.5384,
      "duration": 0.0124,
      "velocity": 77,
      "chip": "ym2612"
    },
    {
      "channel": 4,
      "note": 63,
      "start": 4.5547,
      "duration": 0.1082,
      "velocity": 115,
      "chip": "ym2612"
    },
    {
      "channel": 0,
      "note": 58,
      "start": 4.5657,
      "duration": 0.0941,
      "velocity": 110,
      "chip": "ym2612"
    },
    {
      "channel": 1,
      "note": 61,
      "start": 4.5659,
      "duration": 0.0941,
      "velocity": 115,
      "chip": "ym2612"
    },
    {
      "channel": 2,
      "note": 69,
      "start": 4.5677,
      "duration": 0.0742,
      "velocity": 109,
      "chip": "ym2612"
    },
    {
      "channel": 3,
      "note": 58,
      "start": 4.5679,
      "duration": 0.0948,
      "velocity": 119,
      "chip": "ym2612"
    },
    {
      "channel": 0,
      "note": 63,
      "start": 4.66,
      "duration": 0.0449,
      "velocity": 110,
      "chip": "ym2612"
    },
    {
      "channel": 1,
      "note": 63,
      "start": 4.6604,
      "duration": 0.0448,
      "velocity": 115,
      "chip": "ym2612"
    },
    {
      "channel": 2,
      "note": 34,
      "start": 4.6617,
      "duration": 0.0088,
      "velocity": 77,
      "chip": "ym2612"
    },
    {
      "channel": 3,
      "note": 63,
      "start": 4.6628,
      "duration": 0.0267,
      "velocity": 119,
      "chip": "ym2612"
    },
    {
      "channel": 4,
      "note": 61,
      "start": 4.663,
      "duration": 0.0268,
      "velocity": 115,
      "chip": "ym2612"
    },
    {
      "channel": 2,
      "note": 39,
      "start": 4.6707,
      "duration": 0.0079,
      "velocity": 77,
      "chip": "ym2612"
    },
    {
      "channel": 2,
      "note": 46,
      "start": 4.6789,
      "duration": 0.0103,
      "velocity": 77,
      "chip": "ym2612"
    },
    {
      "channel": 2,
      "note": 46,
      "start": 4.6895,
      "duration": 0.0082,
      "velocity": 77,
      "chip": "ym2612"
    },
    {
      "channel": 3,
      "note": 58,
      "start": 4.6898,
      "duration": 0.0263,
      "velocity": 119,
      "chip": "ym2612"
    },
    {
      "channel": 4,
      "note": 63,
      "start": 4.69,
      "duration": 0.0439,
      "velocity": 115,
      "chip": "ym2612"
    },
    {
      "channel": 2,
      "note": 51,
      "start": 4.6979,
      "duration": 0.0077,
      "velocity": 77,
      "chip": "ym2612"
    },
    {
      "channel": 0,
      "note": 62,
      "start": 4.7051,
      "duration": 0.0389,
      "velocity": 110,
      "chip": "ym2612"
    },
    {
      "channel": 1,
      "note": 61,
      "start": 4.7055,
      "duration": 0.0389,
      "velocity": 115,
      "chip": "ym2612"
    },
    {
      "channel": 2,
      "note": 58,
      "start": 4.7057,
      "duration": 0.0102,
      "velocity": 77,
      "chip": "ym2612"
    },
    {
      "channel": 2,
      "note": 58,
      "start": 4.716,
      "duration": 0.0096,
      "velocity": 77,
      "chip": "ym2612"
    },
    {
      "channel": 3,
      "note": 59,
      "start": 4.7163,
      "duration": 0.0295,
      "velocity": 119,
      "chip": "ym2612"
    },
    {
      "channel": 2,
      "note": 63,
      "start": 4.7257,
      "duration": 0.0078,
      "velocity": 77,
      "chip": "ym2612"
    },
    {
      "channel": 2,
      "note": 70,
      "start": 4.7338,
      "duration": 0.0118,
      "velocity": 77,
      "chip": "ym2612"
    },
    {
      "channel": 4,
      "note": 61,
      "start": 4.734,
      "duration": 0.0365,
      "velocity": 115,
      "chip": "ym2612"
    },
    {
      "channel": 0,
      "note": 61,
      "start": 4.7443,
      "duration": 0.0437,
      "velocity": 110,
      "chip": "ym2612"
    },
    {
      "channel": 1,
      "note": 58,
      "start": 4.7445,
      "duration": 0.0255,
      "velocity": 115,
      "chip": "ym2612"
    },
    {
      "channel": 2,
      "note": 70,
      "start": 4.7458,
      "duration": 0.0087,
      "velocity": 77,
      "chip": "ym2612"
    },
    {
      "channel": 3,
      "note": 60,
      "start": 4.746,
      "duration": 0.0244,
      "velocity": 119,
      "chip": "ym2612"
    },
    {
      "channel": 2,
      "note": 75,
      "start": 4.7547,
      "duration": 0.0065,
      "velocity": 77,
      "chip": "ym2612"
    },
    {
      "channel": 2,
      "note": 82,
      "start": 4.7614,
      "duration": 0.0087,
      "velocity": 77,
      "chip": "ym2612"
    },
    {
      "channel": 1,
      "note": 58,
      "start": 4.77,
      "duration": 0.1338,
      "velocity": 115,
      "chip": "ym2612"
    },
    {
      "channel": 2,
      "note": 99,
      "start": 4.7702,
      "duration": 0.0126,
      "velocity": 77,
      "chip": "ym2612"
    },
    {
      "channel": 3,
      "note": 61,
      "start": 4.7705,
      "duration": 0.0181,
      "velocity": 119,
      "chip": "ym2612"
    },
    {
      "channel": 4,
      "note": 58,
      "start": 4.7707,
      "duration": 0.0287,
      "velocity": 115,
      "chip": "ym2612"
    },
    {
      "channel": 0,
      "note": 58,
      "start": 4.7883,
      "duration": 0.0358,
      "velocity": 110,
      "chip": "ym2612"
    },
    {
      "channel": 3,
      "note": 60,
      "start": 4.7888,
      "duration": 0.0252,
      "velocity": 119,
      "chip": "ym2612"
    },
    {
      "channel": 2,
      "note": 99,
      "start": 4.7992,
      "duration": 0.0106,
      "velocity": 77,
      "chip": "ym2612"
    },
    {
      "channel": 4,
      "note": 58,
      "start": 4.7993,
      "duration": 0.132,
      "velocity": 115,
      "chip": "ym2612"
    },
    {
      "channel": 3,
      "note": 59,
      "start": 4.8143,
      "duration": 0.0412,
      "velocity": 119,
      "chip": "ym2612"
    },
    {
      "channel": 0,
      "note": 57,
      "start": 4.8244,
      "duration": 0.0287,
      "velocity": 110,
      "chip": "ym2612"
    },
    {
      "channel": 2,
      "note": 99,
      "start": 4.825,
      "duration": 0.0139,
      "velocity": 77,
      "chip": "ym2612"
    },
    {
      "channel": 0,
      "note": 58,
      "start": 4.8534,
      "duration": 0.0501,
      "velocity": 110,
      "chip": "ym2612"
    },
    {
      "channel": 2,
      "note": 69,
      "start": 4.8554,
      "duration": 0.0449,
      "velocity": 109,
      "chip": "ym2612"
    },
    {
      "channel": 3,
      "note": 58,
      "start": 4.8557,
      "duration": 0.0508,
      "velocity": 119,
      "chip": "ym2612"
    },
    {
      "channel": 0,
      "note": 63,
      "start": 4.9037,
      "duration": 0.0406,
      "velocity": 110,
      "chip": "ym2612"
    },
    {
      "channel": 2,
      "note": 34,
      "start": 4.9055,
      "duration": 0.0084,
      "velocity": 77,
      "chip": "ym2612"
    },
    {
      "channel": 3,
      "note": 63,
      "start": 4.9067,
      "duration": 0.0243,
      "velocity": 119,
      "chip": "ym2612"
    },
    {
      "channel": 2,
      "note": 39,
      "start": 4.9141,
      "duration": 0.0074,
      "velocity": 77,
      "chip": "ym2612"
    },
    {
      "channel": 2,
      "note": 46,
      "start": 4.9219,
      "duration": 0.0088,
      "velocity": 77,
      "chip": "ym2612"
    },
    {
      "channel": 2,
      "note": 46,
      "start": 4.9309,
      "duration": 0.0071,
      "velocity": 77,
      "chip": "ym2612"
    },
    {
      "channel": 3,
      "note": 58,
      "start": 4.9312,
      "duration": 0.0236,
      "velocity": 119,
      "chip": "ym2612"
    },
    {
      "channel": 2,
      "note": 51,
      "start": 4.9381,
      "duration": 0.0066,
      "velocity": 77,
      "chip": "ym2612"
    },
    {
      "channel": 0,
      "note": 62,
      "start": 4.9446,
      "duration": 0.0299,
      "velocity": 110,
      "chip": "ym2612"
    },
    {
      "channel": 2,
      "note": 58,
      "start": 4.9449,
      "duration": 0.0098,
      "velocity": 77,
      "chip": "ym2612"
    },
    {
      "channel": 2,
      "note": 58,
      "start": 4.9548,
      "duration": 0.0067,
      "velocity": 77,
      "chip": "ym2612"
    },
    {
      "channel": 3,
      "note": 59,
      "start": 4.9551,
      "duration": 0.021,
      "velocity": 119,
      "chip": "ym2612"
    },
    {
      "channel": 2,
      "note": 63,
      "start": 4.9617,
      "duration": 0.0063,
      "velocity": 77,
      "chip": "ym2612"
    },
    {
      "channel": 2,
      "note": 70,
      "start": 4.9683,
      "duration": 0.0075,
      "velocity": 77,
      "chip": "ym2612"
    },
    {
      "channel": 0,
      "note": 61,
      "start": 4.9748,
      "duration": 0.0341,
      "velocity": 110,
      "chip": "ym2612"
    },
    {
      "channel": 2,
      "note": 70,
      "start": 4.9761,
      "duration": 0.0064,
      "velocity": 77,
      "chip": "ym2612"
    },
    {
      "channel": 3,
      "note": 60,
      "start": 4.9763,
      "duration": 0.0195,
      "velocity": 119,
      "chip": "ym2612"
    },
    {
      "channel": 2,
      "note": 75,
      "start": 4.9827,
      "duration": 0.0064,
      "velocity": 77,
      "chip": "ym2612"
    },
    {
      "channel": 2,
      "note": 82,
      "start": 4.9893,
      "duration": 0.0062,
      "velocity": 77,
      "chip": "ym2612"
    },
    {
      "channel": 2,
      "note": 99,
      "start": 4.9958,
      "duration": 0.0099,
      "velocity": 77,
      "chip": "ym2612"
    },
    {
      "channel": 3,
      "note": 61,
      "start": 4.996,
      "duration": 0.0132,
      "velocity": 119,
      "chip": "ym2612"
    },
    {
      "channel": 0,
      "note": 58,
      "start": 5.0091,
      "duration": 0.0307,
      "velocity": 110,
      "chip": "ym2612"
    },
    {
      "channel": 3,
      "note": 60,
      "start": 5.0095,
      "duration": 0.0232,
      "velocity": 119,
      "chip": "ym2612"
    },
    {
      "channel": 2,
      "note": 99,
      "start": 5.019,
      "duration": 0.0104,
      "velocity": 77,
      "chip": "ym2612"
    },
    {
      "channel": 3,
      "note": 59,
      "start": 5.033,
      "duration": 0.0288,
      "velocity": 119,
      "chip": "ym2612"
    },
    {
      "channel": 0,
      "note": 57,
      "start": 5.0401,
      "duration": 0.0195,
      "velocity": 110,
      "chip": "ym2612"
    },
    {
      "channel": 2,
      "note": 99,
      "start": 5.0407,
      "duration": 0.009,
      "velocity": 77,
      "chip": "ym2612"
    },
    {
      "channel": 0,
      "note": 58,
      "start": 5.0599,
      "duration": 0.1082,
      "velocity": 110,
      "chip": "ym2612"
    },
    {
      "channel": 2,
      "note": 69,
      "start": 5.0617,
      "duration": 0.0719,
      "velocity": 109,
      "chip": "ym2612"
    },
    {
      "channel": 3,
      "note": 58,
      "start": 5.0619,
      "duration": 0.1094,
      "velocity": 119,
      "chip": "ym2612"
    },
    {
      "channel": 0,
      "note": 63,
      "start": 5.1683,
      "duration": 0.0434,
      "velocity": 110,
      "chip": "ym2612"
    },
    {
      "channel": 1,
      "note": 58,
      "start": 5.1688,
      "duration": 0.0433,
      "velocity": 115,
      "chip": "ym2612"
    },
    {
      "channel": 2,
      "note": 34,
      "start": 5.1702,
      "duration": 0.007,
      "velocity": 77,
      "chip": "ym2612"
    },
    {
      "channel": 3,
      "note": 63,
      "start": 5.1715,
      "duration": 0.0234,
      "velocity": 119,
      "chip": "ym2612"
    },
    {
      "channel": 2,
      "note": 39,
      "start": 5.1775,
      "duration": 0.0064,
      "velocity": 77,
      "chip": "ym2612"
    },
    {
      "channel": 2,
      "note": 46,
      "start": 5.1841,
      "duration": 0.0105,
      "velocity": 77,
      "chip": "ym2612"
    },
    {
      "channel": 2,
      "note": 46,
      "start": 5.1947,
      "duration": 0.0085,
      "velocity": 77,
      "chip": "ym2612"
    },
    {
      "channel": 3,
      "note": 58,
      "start": 5.1951,
      "duration": 0.0279,
      "velocity": 119,
      "chip": "ym2612"
    },
    {
      "channel": 4,
      "note": 58,
      "start": 5.1954,
      "duration": 0.0431,
      "velocity": 115,
      "chip": "ym2612"
    },
    {
      "channel": 2,
      "note": 51,
      "start": 5.2034,
      "duration": 0.009,
      "velocity": 77,
      "chip": "ym2612"
    },
    {
      "channel": 0,
      "note": 62,
      "start": 5.212,
      "duration": 0.0346,
      "velocity": 110,
      "chip": "ym2612"
    },
    {
      "channel": 1,
      "note": 63,
      "start": 5.2123,
      "duration": 0.0346,
      "velocity": 115,
      "chip": "ym2612"
    },
    {
      "channel": 2,
      "note": 58,
      "start": 5.2126,
      "duration": 0.01,
      "velocity": 77,
      "chip": "ym2612"
    },
    {
      "channel": 2,
      "note": 58,
      "start": 5.2229,
      "duration": 0.0066,
      "velocity": 77,
      "chip": "ym2612"
    },
    {
      "channel": 3,
      "note": 59,
      "start": 5.2231,
      "duration": 0.0254,
      "velocity": 119,
      "chip": "ym2612"
    },
    {
      "channel": 2,
      "note": 63,
      "start": 5.2296,
      "duration": 0.0084,
      "velocity": 77,
      "chip": "ym2612"
    },
    {
      "channel": 2,
      "note": 70,
      "start": 5.2384,
      "duration": 0.0099,
      "velocity": 77,
      "chip": "ym2612"
    },
    {
      "channel": 4,
      "note": 63,
      "start": 5.2386,
      "duration": 0.0339,
      "velocity": 115,
      "chip": "ym2612"
    },
    {
      "channel": 0,
      "note": 61,
      "start": 5.2469,
      "duration": 0.0423,
      "velocity": 110,
      "chip": "ym2612"
    },
    {
      "channel": 1,
      "note": 70,
      "start": 5.2472,
      "duration": 0.0244,
      "velocity": 115,
      "chip": "ym2612"
    },
    {
      "channel": 2,
      "note": 70,
      "start": 5.2485,
      "duration": 0.0084,
      "velocity": 77,
      "chip": "ym2612"
    },
    {
      "channel": 3,
      "note": 60,
      "start": 5.2487,
      "duration": 0.0234,
      "velocity": 119,
      "chip": "ym2612"
    },
    {
      "channel": 2,
      "note": 75,
      "start": 5.257,
      "duration": 0.0073,
      "velocity": 77,
      "chip": "ym2612"
    },
    {
      "channel": 2,
      "note": 82,
      "start": 5.2646,
      "duration": 0.0074,
      "velocity": 77,
      "chip": "ym2612"
    },
    {
      "channel": 1,
      "note": 75,
      "start": 5.2719,
      "duration": 0.1312,
      "velocity": 115,
      "chip": "ym2612"
    },
    {
      "channel": 2,
      "note": 99,
      "start": 5.2722,
      "duration": 0.012,
      "velocity": 77,
      "chip": "ym2612"
    },
    {
      "channel": 3,
      "note": 61,
      "start": 5.2724,
      "duration": 0.0173,
      "velocity": 119,
      "chip": "ym2612"
    },
    {
      "channel": 4,
      "note": 70,
      "start": 5.2727,
      "duration": 0.027,
      "velocity": 115,
      "chip": "ym2612"
    },
    {
      "channel": 0,
      "note": 58,
      "start": 5.2895,
      "duration": 0.0354,
      "velocity": 110,
      "chip": "ym2612"
    },
    {
      "channel": 3,
      "note": 60,
      "start": 5.29,
      "duration": 0.0257,
      "velocity": 119,
      "chip": "ym2612"
    },
    {
      "channel": 2,
      "note": 99,
      "start": 5.2995,
      "duration": 0.0122,
      "velocity": 77,
      "chip": "ym2612"
    },
    {
      "channel": 4,
      "note": 75,
      "start": 5.2999,
      "duration": 0.1308,
      "velocity": 115,
      "chip": "ym2612"
    },
    {
      "channel": 3,
      "note": 59,
      "start": 5.316,
      "duration": 0.0389,
      "velocity": 119,
      "chip": "ym2612"
    },
    {
      "channel": 0,
      "note": 57,
      "start": 5.3251,
      "duration": 0.0276,
      "velocity": 110,
      "chip": "ym2612"
    },
    {
      "channel": 2,
      "note": 99,
      "start": 5.3257,
      "duration": 0.0127,
      "velocity": 77,
      "chip": "ym2612"
    },
    {
      "channel": 0,
      "note": 58,
      "start": 5.3529,
      "duration": 0.0498,
      "velocity": 110,
      "chip": "ym2612"
    },
    {
      "channel": 2,
      "note": 69,
      "start": 5.3549,
      "duration": 0.0449,
      "velocity": 109,
      "chip": "ym2612"
    },
    {
      "channel": 3,
      "note": 58,
      "start": 5.3551,
      "duration": 0.0507,
      "velocity": 119,
      "chip": "ym2612"
    },
    {
      "channel": 0,
      "note": 63,
      "start": 5.403,
      "duration": 0.0429,
      "velocity": 110,
      "chip": "ym2612"
    },
    {
      "channel": 1,
      "note": 73,
      "start": 5.4034,
      "duration": 0.0798,
      "velocity": 115,
      "chip": "ym2612"
    },
    {
      "channel": 2,
      "note": 34,
      "start": 5.4048,
      "duration": 0.0082,
      "velocity": 77,
      "chip": "ym2612"
    },
    {
      "channel": 3,
      "note": 63,
      "start": 5.406,
      "duration": 0.0243,
      "velocity": 119,
      "chip": "ym2612"
    },
    {
      "channel": 2,
      "note": 39,
      "start": 5.4132,
      "duration": 0.0073,
      "velocity": 77,
      "chip": "ym2612"
    },
    {
      "channel": 2,
      "note": 46,
      "start": 5.4208,
      "duration": 0.0093,
      "velocity": 77,
      "chip": "ym2612"
    },
    {
      "channel": 2,
      "note": 46,
      "start": 5.4303,
      "duration": 0.0087,
      "velocity": 77,
      "chip": "ym2612"
    },
    {
      "channel": 3,
      "note": 58,
      "start": 5.4306,
      "duration": 0.0261,
      "velocity": 119,
      "chip": "ym2612"
    },
    {
      "channel": 4,
      "note": 73,
      "start": 5.4308,
      "duration": 0.0785,
      "velocity": 115,
      "chip": "ym2612"
    },
    {
      "channel": 2,
      "note": 51,
      "start": 5.4391,
      "duration": 0.0074,
      "velocity": 77,
      "chip": "ym2612"
    },
    {
      "channel": 0,
      "note": 62,
      "start": 5.4463,
      "duration": 0.0366,
      "velocity": 110,
      "chip": "ym2612"
    },
    {
      "channel": 2,
      "note": 58,
      "start": 5.4466,
      "duration": 0.0097,
      "velocity": 77,
      "chip": "ym2612"
    },
    {
      "channel": 2,
      "note": 58,
      "start": 5.4566,
      "duration": 0.009,
      "velocity": 77,
      "chip": "ym2612"
    },
    {
      "channel": 3,
      "note": 59,
      "start": 5.4568,
      "duration": 0.0278,
      "velocity": 119,
      "chip": "ym2612"
    },
    {
      "channel": 2,
      "note": 63,
      "start": 5.4657,
      "duration": 0.0073,
      "velocity": 77,
      "chip": "ym2612"
    },
    {
      "channel": 2,
      "note": 70,
      "start": 5.4733,
      "duration": 0.0112,
      "velocity": 77,
      "chip": "ym2612"
    },
    {
      "channel": 0,
      "note": 61,
      "start": 5.4831,
      "duration": 0.043,
      "velocity": 110,
      "chip": "ym2612"
    },
    {
      "channel": 1,
      "note": 71,
      "start": 5.4833,
      "duration": 0.025,
      "velocity": 115,
      "chip": "ym2612"
    },
    {
      "channel": 2,
      "note": 70,
      "start": 5.4846,
      "duration": 0.0067,
      "velocity": 77,
      "chip": "ym2612"
    },
    {
      "channel": 3,
      "note": 60,
      "start": 5.4848,
      "duration": 0.0242,
      "velocity": 119,
      "chip": "ym2612"
    },
    {
      "channel": 2,
      "note": 75,
      "start": 5.4915,
      "duration": 0.0082,
      "velocity": 77,
      "chip": "ym2612"
    },
    {
      "channel": 2,
      "note": 82,
      "start": 5.5,
      "duration": 0.0088,
      "velocity": 77,
      "chip": "ym2612"
    },
    {
      "channel": 1,
      "note": 73,
      "start": 5.5087,
      "duration": 0.0421,
      "velocity": 115,
      "chip": "ym2612"
    },
    {
      "channel": 2,
      "note": 99,
      "start": 5.509,
      "duration": 0.012,
      "velocity": 77,
      "chip": "ym2612"
    },
    {
      "channel": 3,
      "note": 61,
      "start": 5.5092,
      "duration": 0.0175,
      "velocity": 119,
      "chip": "ym2612"
    },
    {
      "channel": 4,
      "note": 71,
      "start": 5.5095,
      "duration": 0.0269,
      "velocity": 115,
      "chip": "ym2612"
    },
    {
      "channel": 0,
      "note": 58,
      "start": 5.5264,
      "duration": 0.0352,
      "velocity": 110,
      "chip": "ym2612"
    },
    {
      "channel": 3,
      "note": 60,
      "start": 5.5269,
      "duration": 0.0243,
      "velocity": 119,
      "chip": "ym2612"
    },
    {
      "channel": 2,
      "note": 99,
      "start": 5.5362,
      "duration": 0.0107,
      "velocity": 77,
      "chip": "ym2612"
    },
    {
      "channel": 4,
      "note": 73,
      "start": 5.5366,
      "duration": 0.042,
      "velocity": 115,
      "chip": "ym2612"
    },
    {
      "channel": 1,
      "note": 71,
      "start": 5.5511,
      "duration": 0.035,
      "velocity": 115,
      "chip": "ym2612"
    },
    {
      "channel": 3,
      "note": 59,
      "start": 5.5514,
      "duration": 0.0367,
      "velocity": 119,
      "chip": "ym2612"
    },
    {
      "channel": 0,
      "note": 57,
      "start": 5.5619,
      "duration": 0.0238,
      "velocity": 110,
      "chip": "ym2612"
    },
    {
      "channel": 2,
      "note": 99,
      "start": 5.5625,
      "duration": 0.0124,
      "velocity": 77,
      "chip": "ym2612"
    },
    {
      "channel": 4,
      "note": 71,
      "start": 5.5788,
      "duration": 0.1207,
      "velocity": 115,
      "chip": "ym2612"
    },
    {
      "channel": 0,
      "note": 58,
      "start": 5.586,
      "duration": 0.1103,
      "velocity": 110,
      "chip": "ym2612"
    },
    {
      "channel": 1,
      "note": 70,
      "start": 5.5862,
      "duration": 0.0557,
      "velocity": 115,
      "chip": "ym2612"
    },
    {
      "channel": 2,
      "note": 69,
      "start": 5.588,
      "duration": 0.0737,
      "velocity": 109,
      "chip": "ym2612"
    },
    {
      "channel": 3,
      "note": 58,
      "start": 5.5882,
      "duration": 0.1111,
      "velocity": 119,
      "chip": "ym2612"
    },
    {
      "channel": 1,
      "note": 68,
      "start": 5.6422,
      "duration": 0.0544,
      "velocity": 115,
      "chip": "ym2612"
    },
    {
      "channel": 0,
      "note": 63,
      "start": 5.6965,
      "duration": 0.045,
      "velocity": 110,
      "chip": "ym2612"
    },
    {
      "channel": 1,
      "note": 70,
      "start": 5.6969,
      "duration": 0.045,
      "velocity": 115,
      "chip": "ym2612"
    },
    {
      "channel": 2,
      "note": 34,
      "start": 5.6983,
      "duration": 0.0089,
      "velocity": 77,
      "chip": "ym2612"
    },
    {
      "channel": 3,
      "note": 63,
      "start": 5.6995,
      "duration": 0.0251,
      "velocity": 119,
      "chip": "ym2612"
    },
    {
      "channel": 4,
      "note": 70,
      "start": 5.6997,
      "duration": 0.0159,
      "velocity": 115,
      "chip": "ym2612"
    },
    {
      "channel": 2,
      "note": 39,
      "start": 5.7073,
      "duration": 0.0079,
      "velocity": 77,
      "chip": "ym2612"
    },
    {
      "channel": 2,
      "note": 46,
      "start": 5.7155,
      "duration": 0.0088,
      "velocity": 77,
      "chip": "ym2612"
    },
    {
      "channel": 4,
      "note": 68,
      "start": 5.7158,
      "duration": 0.0091,
      "velocity": 115,
      "chip": "ym2612"
    },
    {
      "channel": 2,
      "note": 46,
      "start": 5.7245,
      "duration": 0.0088,
      "velocity": 77,
      "chip": "ym2612"
    },
    {
      "channel": 3,
      "note": 58,
      "start": 5.7248,
      "duration": 0.0279,
      "velocity": 119,
      "chip": "ym2612"
    },
    {
      "channel": 4,
      "note": 70,
      "start": 5.7251,
      "duration": 0.0452,
      "velocity": 115,
      "chip": "ym2612"
    },
    {
      "channel": 2,
      "note": 51,
      "start": 5.7336,
      "duration": 0.0085,
      "velocity": 77,
      "chip": "ym2612"
    },
    {
      "channel": 0,
      "note": 62,
      "start": 5.7418,
      "duration": 0.0368,
      "velocity": 110,
      "chip": "ym2612"
    },
    {
      "channel": 1,
      "note": 67,
      "start": 5.7421,
      "duration": 0.0369,
      "velocity": 115,
      "chip": "ym2612"
    },
    {
      "channel": 2,
      "note": 58,
      "start": 5.7423,
      "duration": 0.01,
      "velocity": 77,
      "chip": "ym2612"
    },
    {
      "channel": 2,
      "note": 58,
      "start": 5.7527,
      "duration": 0.0102,
      "velocity": 77,
      "chip": "ym2612"
    },
    {
      "channel": 3,
      "note": 59,
      "start": 5.7529,
      "duration": 0.0276,
      "velocity": 119,
      "chip": "ym2612"
    },
    {
      "channel": 2,
      "note": 63,
      "start": 5.7631,
      "duration": 0.0067,
      "velocity": 77,
      "chip": "ym2612"
    },
    {
      "channel": 2,
      "note": 70,
      "start": 5.7701,
      "duration": 0.0101,
      "velocity": 77,
      "chip": "ym2612"
    },
    {
      "channel": 4,
      "note": 67,
      "start": 5.7704,
      "duration": 0.0362,
      "velocity": 115,
      "chip": "ym2612"
    },
    {
      "channel": 0,
      "note": 61,
      "start": 5.7789,
      "duration": 0.0436,
      "velocity": 110,
      "chip": "ym2612"
    },
    {
      "channel": 1,
      "note": 63,
      "start": 5.7792,
      "duration": 0.0268,
      "velocity": 115,
      "chip": "ym2612"
    },
    {
      "channel": 2,
      "note": 70,
      "start": 5.7805,
      "duration": 0.0086,
      "velocity": 77,
      "chip": "ym2612"
    },
    {
      "channel": 3,
      "note": 60,
      "start": 5.7807,
      "duration": 0.0257,
      "velocity": 119,
      "chip": "ym2612"
    },
    {
      "channel": 2,
      "note": 75,
      "start": 5.7893,
      "duration": 0.0081,
      "velocity": 77,
      "chip": "ym2612"
    },
    {
      "channel": 2,
      "note": 82,
      "start": 5.7977,
      "duration": 0.0084,
      "velocity": 77,
      "chip": "ym2612"
    },
    {
      "channel": 1,
      "note": 63,
      "start": 5.8059,
      "duration": 0.1419,
      "velocity": 115,
      "chip": "ym2612"
    },
    {
      "channel": 2,
      "note": 99,
      "start": 5.8063,
      "duration": 0.0104,
      "velocity": 77,
      "chip": "ym2612"
    },
    {
      "channel": 3,
      "note": 61,
      "start": 5.8065,
      "duration": 0.0164,
      "velocity": 119,
      "chip": "ym2612"
    },
    {
      "channel": 4,
      "note": 63,
      "start": 5.8067,
      "duration": 0.0264,
      "velocity": 115,
      "chip": "ym2612"
    },
    {
      "channel": 0,
      "note": 58,
      "start": 5.8227,
      "duration": 0.0356,
      "velocity": 110,
      "chip": "ym2612"
    },
    {
      "channel": 3,
      "note": 60,
      "start": 5.8232,
      "duration": 0.0262,
      "velocity": 119,
      "chip": "ym2612"
    },
    {
      "channel": 2,
      "note": 99,
      "start": 5.8329,
      "duration": 0.0123,
      "velocity": 77,
      "chip": "ym2612"
    },
    {
      "channel": 4,
      "note": 63,
      "start": 5.8332,
      "duration": 0.1404,
      "velocity": 115,
      "chip": "ym2612"
    },
    {
      "channel": 3,
      "note": 59,
      "start": 5.8497,
      "duration": 0.0336,
      "velocity": 119,
      "chip": "ym2612"
    },
    {
      "channel": 0,
      "note": 57,
      "start": 5.8586,
      "duration": 0.0226,
      "velocity": 110,
      "chip": "ym2612"
    },
    {
      "channel": 2,
      "note": 99,
      "start": 5.8592,
      "duration": 0.011,
      "velocity": 77,
      "chip": "ym2612"
    },
    {
      "channel": 0,
      "note": 58,
      "start": 5.8815,
      "duration": 0.0661,
      "velocity": 110,
      "chip": "ym2612"
    },
    {
      "channel": 2,
      "note": 69,
      "start": 5.8833,
      "duration": 0.0596,
      "velocity": 109,
      "chip": "ym2612"
    },
    {
      "channel": 3,
      "note": 58,
      "start": 5.8835,
      "duration": 0.0669,
      "velocity": 119,
      "chip": "ym2612"
    },
    {
      "channel": 0,
      "note": 63,
      "start": 5.9478,
      "duration": 0.0392,
      "velocity": 110,
      "chip": "ym2612"
    },
    {
      "channel": 2,
      "note": 34,
      "start": 5.9494,
      "duration": 0.0071,
      "velocity": 77,
      "chip": "ym2612"
    },
    {
      "channel": 3,
      "note": 63,
      "start": 5.9506,
      "duration": 0.0227,
      "velocity": 119,
      "chip": "ym2612"
    },
    {
      "channel": 2,
      "note": 39,
      "start": 5.9567,
      "duration": 0.0075,
      "velocity": 77,
      "chip": "ym2612"
    },
    {
      "channel": 2,
      "note": 46,
      "start": 5.9645,
      "duration": 0.0086,
      "velocity": 77,
      "chip": "ym2612"
    },
    {
      "channel": 2,
      "note": 46,
      "start": 5.9732,
      "duration": 0.0072,
      "velocity": 77,
      "chip": "ym2612"
    },
    {
      "channel": 3,
      "note": 58,
      "start": 5.9735,
      "duration": 0.0203,
      "velocity": 119,
      "chip": "ym2612"
    },
    {
      "channel": 2,
      "note": 51,
      "start": 5.9806,
      "duration": 0.0067,
      "velocity": 77,
      "chip": "ym2612"
    },
    {
      "channel": 0,
      "note": 62,
      "start": 5.9871,
      "duration": 0.0283,
      "velocity": 110,
      "chip": "ym2612"
    },
    {
      "channel": 2,
      "note": 58,
      "start": 5.9875,
      "duration": 0.006,
      "velocity": 77,
      "chip": "ym2612"
    },
    {
      "channel": 2,
      "note": 58,
      "start": 5.9938,
      "duration": 0.0086,
      "velocity": 77,
      "chip": "ym2612"
    },
    {
      "channel": 3,
      "note": 59,
      "start": 5.9941,
      "duration": 0.023,
      "velocity": 119,
      "chip": "ym2612"
    },
    {
      "channel": 2,
      "note": 63,
      "start": 6.0026,
      "duration": 0.0062,
      "velocity": 77,
      "chip": "ym2612"
    },
    {
      "channel": 2,
      "note": 70,
      "start": 6.0091,
      "duration": 0.0077,
      "velocity": 77,
      "chip": "ym2612"
    },
    {
      "channel": 0,
      "note": 61,
      "start": 6.0157,
      "duration": 0.0342,
      "velocity": 110,
      "chip": "ym2612"
    },
    {
      "channel": 2,
      "note": 70,
      "start": 6.0171,
      "duration": 0.0067,
      "velocity": 77,
      "chip": "ym2612"
    },
    {
      "channel": 3,
      "note": 60,
      "start": 6.0173,
      "duration": 0.019,
      "velocity": 119,
      "chip": "ym2612"
    },
    {
      "channel": 2,
      "note": 75,
      "start": 6.0239,
      "duration": 0.006,
      "velocity": 77,
      "chip": "ym2612"
    },
    {
      "channel": 2,
      "note": 82,
      "start": 6.0302,
      "duration": 0.0058,
      "velocity": 77,
      "chip": "ym2612"
    },
    {
      "channel": 2,
      "note": 99,
      "start": 6.0362,
      "duration": 0.0093,
      "velocity": 77,
      "chip": "ym2612"
    },
    {
      "channel": 3,
      "note": 61,
      "start": 6.0365,
      "duration": 0.0138,
      "velocity": 119,
      "chip": "ym2612"
    },
    {
      "channel": 0,
      "note": 58,
      "start": 6.0502,
      "duration": 0.0303,
      "velocity": 110,
      "chip": "ym2612"
    },
    {
      "channel": 3,
      "note": 60,
      "start": 6.0506,
      "duration": 0.0217,
      "velocity": 119,
      "chip": "ym2612"
    },
    {
      "channel": 2,
      "note": 99,
      "start": 6.06,
      "duration": 0.0102,
      "velocity": 77,
      "chip": "ym2612"
    },
    {
      "channel": 3,
      "note": 59,
      "start": 6.0726,
      "duration": 0.0321,
      "velocity": 119,
      "chip": "ym2612"
    },
    {
      "channel": 0,
      "note": 57,
      "start": 6.0807,
      "duration": 0.0217,
      "velocity": 110,
      "chip": "ym2612"
    },
    {
      "channel": 2,
      "note": 99,
      "start": 6.0812,
      "duration": 0.0108,
      "velocity": 77,
      "chip": "ym2612"
    },
    {
      "channel": 0,
      "note": 58,
      "start": 6.1027,
      "duration": 0.0478,
      "velocity": 110,
      "chip": "ym2612"
    },
    {
      "channel": 2,
      "note": 69,
      "start": 6.1046,
      "duration": 0.0438,
      "velocity": 109,
      "chip": "ym2612"
    },
    {
      "channel": 3,
      "note": 58,
      "start": 6.1048,
      "duration": 0.0498,
      "velocity": 119,
      "chip": "ym2612"
    },
    {
      "channel": 0,
      "note": 57,
      "start": 6.1509,
      "duration": 0.0418,
      "velocity": 110,
      "chip": "ym2612"
    },
    {
      "channel": 1,
      "note": 57,
      "start": 6.1522,
      "duration": 0.0116,
      "velocity": 103,
      "chip": "ym2612"
    },
    {
      "channel": 2,
      "note": 64,
      "start": 6.1536,
      "duration": 0.0234,
      "velocity": 93,
      "chip": "ym2612"
    },
    {
      "channel": 3,
      "note": 63,
      "start": 6.1548,
      "duration": 0.0225,
      "velocity": 119,
      "chip": "ym2612"
    },
    {
      "channel": 1,
      "note": 57,
      "start": 6.1767,
      "duration": 0.0123,
      "velocity": 103,
      "chip": "ym2612"
    },
    {
      "channel": 2,
      "note": 63,
      "start": 6.1773,
      "duration": 0.0267,
      "velocity": 89,
      "chip": "ym2612"
    },
    {
      "channel": 3,
      "note": 58,
      "start": 6.1776,
      "duration": 0.0267,
      "velocity": 119,
      "chip": "ym2612"
    },
    {
      "channel": 4,
      "note": 57,
      "start": 6.1787,
      "duration": 0.0105,
      "velocity": 94,
      "chip": "ym2612"
    },
    {
      "channel": 0,
      "note": 58,
      "start": 6.193,
      "duration": 0.0374,
      "velocity": 110,
      "chip": "ym2612"
    },
    {
      "channel": 1,
      "note": 57,
      "start": 6.2026,
      "duration": 0.013,
      "velocity": 103,
      "chip": "ym2612"
    },
    {
      "channel": 2,
      "note": 62,
      "start": 6.2042,
      "duration": 0.0271,
      "velocity": 85,
      "chip": "ym2612"
    },
    {
      "channel": 3,
      "note": 59,
      "start": 6.2044,
      "duration": 0.027,
      "velocity": 119,
      "chip": "ym2612"
    },
    {
      "channel": 4,
      "note": 57,
      "start": 6.2047,
      "duration": 0.0111,
      "velocity": 94,
      "chip": "ym2612"
    },
    {
      "channel": 0,
      "note": 61,
      "start": 6.2306,
      "duration": 0.04,
      "velocity": 110,
      "chip": "ym2612"
    },
    {
      "channel": 1,
      "note": 57,
      "start": 6.2309,
      "duration": 0.0105,
      "velocity": 103,
      "chip": "ym2612"
    },
    {
      "channel": 2,
      "note": 61,
      "start": 6.2314,
      "duration": 0.0232,
      "velocity": 81,
      "chip": "ym2612"
    },
    {
      "channel": 3,
      "note": 60,
      "start": 6.2315,
      "duration": 0.0232,
      "velocity": 119,
      "chip": "ym2612"
    },
    {
      "channel": 4,
      "note": 57,
      "start": 6.2317,
      "duration": 0.0099,
      "velocity": 94,
      "chip": "ym2612"
    },
    {
      "channel": 1,
      "note": 57,
      "start": 6.2532,
      "duration": 0.0112,
      "velocity": 103,
      "chip": "ym2612"
    },
    {
      "channel": 2,
      "note": 60,
      "start": 6.2547,
      "duration": 0.0228,
      "velocity": 77,
      "chip": "ym2612"
    },
    {
      "channel": 3,
      "note": 61,
      "start": 6.2549,
      "duration": 0.0162,
      "velocity": 119,
      "chip": "ym2612"
    },
    {
      "channel": 4,
      "note": 57,
      "start": 6.2551,
      "duration": 0.0095,
      "velocity": 94,
      "chip": "ym2612"
    },
    {
      "channel": 0,
      "note": 62,
      "start": 6.2709,
      "duration": 0.0323,
      "velocity": 110,
      "chip": "ym2612"
    },
    {
      "channel": 3,
      "note": 60,
      "start": 6.2714,
      "duration": 0.0221,
      "velocity": 119,
      "chip": "ym2612"
    },
    {
      "channel": 1,
      "note": 57,
      "start": 6.2773,
      "duration": 0.0116,
      "velocity": 103,
      "chip": "ym2612"
    },
    {
      "channel": 2,
      "note": 59,
      "start": 6.2778,
      "duration": 0.0272,
      "velocity": 73,
      "chip": "ym2612"
    },
    {
      "channel": 4,
      "note": 57,
      "start": 6.278,
      "duration": 0.011,
      "velocity": 94,
      "chip": "ym2612"
    },
    {
      "channel": 3,
      "note": 59,
      "start": 6.2937,
      "duration": 0.0324,
      "velocity": 119,
      "chip": "ym2612"
    },
    {
      "channel": 0,
      "note": 63,
      "start": 6.3034,
      "duration": 0.0216,
      "velocity": 110,
      "chip": "ym2612"
    },
    {
      "channel": 1,
      "note": 57,
      "start": 6.3038,
      "duration": 0.0115,
      "velocity": 103,
      "chip": "ym2612"
    },
    {
      "channel": 2,
      "note": 58,
      "start": 6.3053,
      "duration": 0.0206,
      "velocity": 69,
      "chip": "ym2612"
    },
    {
      "channel": 4,
      "note": 57,
      "start": 6.3055,
      "duration": 0.01,
      "velocity": 94,
      "chip": "ym2612"
    },
    {
      "channel": 0,
      "note": 64,
      "start": 6.3252,
      "duration": 0.0641,
      "velocity": 110,
      "chip": "ym2612"
    },
    {
      "channel": 1,
      "note": 57,
      "start": 6.3255,
      "duration": 0.0111,
      "velocity": 103,
      "chip": "ym2612"
    },
    {
      "channel": 2,
      "note": 57,
      "start": 6.326,
      "duration": 0.0655,
      "velocity": 97,
      "chip": "ym2612"
    },
    {
      "channel": 3,
      "note": 58,
      "start": 6.3262,
      "duration": 0.0666,
      "velocity": 119,
      "chip": "ym2612"
    },
    {
      "channel": 4,
      "note": 57,
      "start": 6.3264,
      "duration": 0.0104,
      "velocity": 94,
      "chip": "ym2612"
    },
    {
      "channel": 0,
      "note": 57,
      "start": 6.3896,
      "duration": 0.0417,
      "velocity": 110,
      "chip": "ym2612"
    },
    {
      "channel": 1,
      "note": 57,
      "start": 6.39,
      "duration": 0.0163,
      "velocity": 103,
      "chip": "ym2612"
    },
    {
      "channel": 2,
      "note": 64,
      "start": 6.3917,
      "duration": 0.0239,
      "velocity": 93,
      "chip": "ym2612"
    },
    {
      "channel": 3,
      "note": 63,
      "start": 6.3929,
      "duration": 0.0229,
      "velocity": 119,
      "chip": "ym2612"
    },
    {
      "channel": 4,
      "note": 57,
      "start": 6.3931,
      "duration": 0.0097,
      "velocity": 94,
      "chip": "ym2612"
    },
    {
      "channel": 1,
      "note": 63,
      "start": 6.4066,
      "duration": 0.0084,
      "velocity": 99,
      "chip": "ym2612"
    },
    {
      "channel": 1,
      "note": 57,
      "start": 6.4152,
      "duration": 0.0164,
      "velocity": 99,
      "chip": "ym2612"
    },
    {
      "channel": 2,
      "note": 63,
      "start": 6.4158,
      "duration": 0.0268,
      "velocity": 89,
      "chip": "ym2612"
    },
    {
      "channel": 3,
      "note": 58,
      "start": 6.416,
      "duration": 0.0268,
      "velocity": 119,
      "chip": "ym2612"
    },
    {
      "channel": 4,
      "note": 57,
      "start": 6.4163,
      "duration": 0.0157,
      "velocity": 94,
      "chip": "ym2612"
    },
    {
      "channel": 0,
      "note": 58,
      "start": 6.4316,
      "duration": 0.0333,
      "velocity": 110,
      "chip": "ym2612"
    },
    {
      "channel": 1,
      "note": 63,
      "start": 6.4319,
      "duration": 0.0092,
      "velocity": 95,
      "chip": "ym2612"
    },
    {
      "channel": 4,
      "note": 63,
      "start": 6.4322,
      "duration": 0.0111,
      "velocity": 90,
      "chip": "ym2612"
    },
    {
      "channel": 1,
      "note": 57,
      "start": 6.4413,
      "duration": 0.0159,
      "velocity": 95,
      "chip": "ym2612"
    },
    {
      "channel": 2,
      "note": 62,
      "start": 6.4428,
      "duration": 0.0234,
      "velocity": 85,
      "chip": "ym2612"
    },
    {
      "channel": 3,
      "note": 59,
      "start": 6.443,
      "duration": 0.0234,
      "velocity": 119,
      "chip": "ym2612"
    },
    {
      "channel": 4,
      "note": 57,
      "start": 6.4435,
      "duration": 0.0141,
      "velocity": 90,
      "chip": "ym2612"
    },
    {
      "channel": 1,
      "note": 63,
      "start": 6.4574,
      "duration": 0.0081,
      "velocity": 91,
      "chip": "ym2612"
    },
    {
      "channel": 4,
      "note": 63,
      "start": 6.4578,
      "duration": 0.0091,
      "velocity": 86,
      "chip": "ym2612"
    },
    {
      "channel": 0,
      "note": 61,
      "start": 6.4652,
      "duration": 0.0433,
      "velocity": 110,
      "chip": "ym2612"
    },
    {
      "channel": 1,
      "note": 57,
      "start": 6.4658,
      "duration": 0.0171,
      "velocity": 91,
      "chip": "ym2612"
    },
    {
      "channel": 2,
      "note": 61,
      "start": 6.4664,
      "duration": 0.0272,
      "velocity": 81,
      "chip": "ym2612"
    },
    {
      "channel": 3,
      "note": 60,
      "start": 6.4666,
      "duration": 0.0272,
      "velocity": 119,
      "chip": "ym2612"
    },
    {
      "channel": 4,
      "note": 57,
      "start": 6.4671,
      "duration": 0.0163,
      "velocity": 86,
      "chip": "ym2612"
    },
    {
      "channel": 1,
      "note": 63,
      "start": 6.4832,
      "duration": 0.0088,
      "velocity": 87,
      "chip": "ym2612"
    },
    {
      "channel": 4,
      "note": 63,
      "start": 6.4837,
      "duration": 0.0106,
      "velocity": 82,
      "chip": "ym2612"
    },
    {
      "channel": 1,
      "note": 57,
      "start": 6.4922,
      "duration": 0.0166,
      "velocity": 87,
      "chip": "ym2612"
    },
    {
      "channel": 2,
      "note": 60,
      "start": 6.4938,
      "duration": 0.0252,
      "velocity": 77,
      "chip": "ym2612"
    },
    {
      "channel": 3,
      "note": 61,
      "start": 6.494,
      "duration": 0.0152,
      "velocity": 119,
      "chip": "ym2612"
    },
    {
      "channel": 4,
      "note": 57,
      "start": 6.4944,
      "duration": 0.015,
      "velocity": 82,
      "chip": "ym2612"
    },
    {
      "channel": 0,
      "note": 62,
      "start": 6.5088,
      "duration": 0.0354,
      "velocity": 110,
      "chip": "ym2612"
    },
    {
      "channel": 1,
      "note": 63,
      "start": 6.509,
      "duration": 0.0093,
      "velocity": 83,
      "chip": "ym2612"
    },
    {
      "channel": 3,
      "note": 60,
      "start": 6.5093,
      "duration": 0.0267,
      "velocity": 119,
      "chip": "ym2612"
    },
    {
      "channel": 4,
      "note": 63,
      "start": 6.5095,
      "duration": 0.0101,
      "velocity": 78,
      "chip": "ym2612"
    },
    {
      "channel": 1,
      "note": 57,
      "start": 6.5186,
      "duration": 0.0169,
      "velocity": 83,
      "chip": "ym2612"
    },
    {
      "channel": 2,
      "note": 59,
      "start": 6.5193,
      "duration": 0.0269,
      "velocity": 73,
      "chip": "ym2612"
    },
    {
      "channel": 4,
      "note": 57,
      "start": 6.5198,
      "duration": 0.0164,
      "velocity": 78,
      "chip": "ym2612"
    },
    {
      "channel": 1,
      "note": 63,
      "start": 6.5359,
      "duration": 0.0089,
      "velocity": 79,
      "chip": "ym2612"
    },
    {
      "channel": 3,
      "note": 59,
      "start": 6.5362,
      "duration": 0.0336,
      "velocity": 119,
      "chip": "ym2612"
    },
    {
      "channel": 4,
      "note": 63,
      "start": 6.5364,
      "duration": 0.0102,
      "velocity": 74,
      "chip": "ym2612"
    },
    {
      "channel": 0,
      "note": 63,
      "start": 6.5444,
      "duration": 0.024,
      "velocity": 110,
      "chip": "ym2612"
    },
    {
      "channel": 1,
      "note": 57,
      "start": 6.545,
      "duration": 0.0154,
      "velocity": 79,
      "chip": "ym2612"
    },
    {
      "channel": 2,
      "note": 58,
      "start": 6.5463,
      "duration": 0.0232,
      "velocity": 69,
      "chip": "ym2612"
    },
    {
      "channel": 4,
      "note": 57,
      "start": 6.5469,
      "duration": 0.0141,
      "velocity": 74,
      "chip": "ym2612"
    },
    {
      "channel": 1,
      "note": 63,
      "start": 6.5608,
      "duration": 0.0083,
      "velocity": 75,
      "chip": "ym2612"
    },
    {
      "channel": 4,
      "note": 63,
      "start": 6.5611,
      "duration": 0.0091,
      "velocity": 70,
      "chip": "ym2612"
    },
    {
      "channel": 0,
      "note": 64,
      "start": 6.5687,
      "duration": 0.0937,
      "velocity": 110,
      "chip": "ym2612"
    },
    {
      "channel": 1,
      "note": 57,
      "start": 6.5692,
      "duration": 0.0555,
      "velocity": 75,
      "chip": "ym2612"
    },
    {
      "channel": 2,
      "note": 57,
      "start": 6.5697,
      "duration": 0.0961,
      "velocity": 97,
      "chip": "ym2612"
    },
    {
      "channel": 3,
      "note": 58,
      "start": 6.5699,
      "duration": 0.097,
      "velocity": 119,
      "chip": "ym2612"
    },
    {
      "channel": 4,
      "note": 57,
      "start": 6.5704,
      "duration": 0.0548,
      "velocity": 70,
      "chip": "ym2612"
    },
    {
      "channel": 1,
      "note": 63,
      "start": 6.625,
      "duration": 0.039,
      "velocity": 103,
      "chip": "ym2612"
    },
    {
      "channel": 4,
      "note": 63,
      "start": 6.6255,
      "duration": 0.0419,
      "velocity": 66,
      "chip": "ym2612"
    },
    {
      "channel": 0,
      "note": 57,
      "start": 6.6626,
      "duration": 0.0458,
      "velocity": 110,
      "chip": "ym2612"
    },
    {
      "channel": 1,
      "note": 45,
      "start": 6.6642,
      "duration": 0.0141,
      "velocity": 103,
      "chip": "ym2612"
    },
    {
      "channel": 2,
      "note": 64,
      "start": 6.6659,
      "duration": 0.0256,
      "velocity": 93,
      "chip": "ym2612"
    },
    {
      "channel": 3,
      "note": 63,
      "start": 6.6671,
      "duration": 0.0247,
      "velocity": 119,
      "chip": "ym2612"
    },
    {
      "channel": 4,
      "note": 57,
      "start": 6.6675,
      "duration": 0.0162,
      "velocity": 66,
      "chip": "ym2612"
    },
    {
      "channel": 4,
      "note": 63,
      "start": 6.6839,
      "duration": 0.0093,
      "velocity": 94,
      "chip": "ym2612"
    },
    {
      "channel": 1,
      "note": 45,
      "start": 6.6911,
      "duration": 0.0129,
      "velocity": 103,
      "chip": "ym2612"
    },
    {
      "channel": 2,
      "note": 63,
      "start": 6.6918,
      "duration": 0.0264,
      "velocity": 89,
      "chip": "ym2612"
    },
    {
      "channel": 3,
      "note": 58,
      "start": 6.692,
      "duration": 0.0265,
      "velocity": 119,
      "chip": "ym2612"
    },
    {
      "channel": 4,
      "note": 45,
      "start": 6.6934,
      "duration": 0.0108,
      "velocity": 94,
      "chip": "ym2612"
    },
    {
      "channel": 0,
      "note": 58,
      "start": 6.7087,
      "duration": 0.0372,
      "velocity": 110,
      "chip": "ym2612"
    },
    {
      "channel": 1,
      "note": 45,
      "start": 6.7168,
      "duration": 0.0135,
      "velocity": 103,
      "chip": "ym2612"
    },
    {
      "channel": 2,
      "note": 62,
      "start": 6.7184,
      "duration": 0.0284,
      "velocity": 85,
      "chip": "ym2612"
    },
    {
      "channel": 3,
      "note": 59,
      "start": 6.7186,
      "duration": 0.0284,
      "velocity": 119,
      "chip": "ym2612"
    },
    {
      "channel": 4,
      "note": 45,
      "start": 6.7188,
      "duration": 0.0117,
      "velocity": 94,
      "chip": "ym2612"
    },
    {
      "channel": 0,
      "note": 61,
      "start": 6.7462,
      "duration": 0.0408,
      "velocity": 110,
      "chip": "ym2612"
    },
    {
      "channel": 1,
      "note": 45,
      "start": 6.7464,
      "duration": 0.0115,
      "velocity": 103,
      "chip": "ym2612"
    },
    {
      "channel": 2,
      "note": 61,
      "start": 6.7469,
      "duration": 0.0228,
      "velocity": 81,
      "chip": "ym2612"
    },
    {
      "channel": 3,
      "note": 60,
      "start": 6.7471,
      "duration": 0.0229,
      "velocity": 119,
      "chip": "ym2612"
    },
    {
      "channel": 4,
      "note": 45,
      "start": 6.7473,
      "duration": 0.0108,
      "velocity": 94,
      "chip": "ym2612"
    },
    {
      "channel": 1,
      "note": 45,
      "start": 6.7685,
      "duration": 0.0123,
      "velocity": 103,
      "chip": "ym2612"
    },
    {
      "channel": 2,
      "note": 60,
      "start": 6.77,
      "duration": 0.0272,
      "velocity": 77,
      "chip": "ym2612"
    },
    {
      "channel": 3,
      "note": 61,
      "start": 6.7702,
      "duration": 0.0172,
      "velocity": 119,
      "chip": "ym2612"
    },
    {
      "channel": 4,
      "note": 45,
      "start": 6.7705,
      "duration": 0.0105,
      "velocity": 94,
      "chip": "ym2612"
    },
    {
      "channel": 0,
      "note": 62,
      "start": 6.7872,
      "duration": 0.0319,
      "velocity": 110,
      "chip": "ym2612"
    },
    {
      "channel": 3,
      "note": 60,
      "start": 6.7877,
      "duration": 0.0241,
      "velocity": 119,
      "chip": "ym2612"
    },
    {
      "channel": 1,
      "note": 45,
      "start": 6.7968,
      "duration": 0.0114,
      "velocity": 103,
      "chip": "ym2612"
    },
    {
      "channel": 2,
      "note": 59,
      "start": 6.7975,
      "duration": 0.0234,
      "velocity": 73,
      "chip": "ym2612"
    },
    {
      "channel": 4,
      "note": 45,
      "start": 6.7978,
      "duration": 0.0106,
      "velocity": 94,
      "chip": "ym2612"
    },
    {
      "channel": 3,
      "note": 59,
      "start": 6.8121,
      "duration": 0.0379,
      "velocity": 119,
      "chip": "ym2612"
    },
    {
      "channel": 0,
      "note": 63,
      "start": 6.8194,
      "duration": 0.0295,
      "velocity": 110,
      "chip": "ym2612"
    },
    {
      "channel": 1,
      "note": 45,
      "start": 6.8196,
      "duration": 0.0139,
      "velocity": 103,
      "chip": "ym2612"
    },
    {
      "channel": 2,
      "note": 58,
      "start": 6.8211,
      "duration": 0.0287,
      "velocity": 69,
      "chip": "ym2612"
    },
    {
      "channel": 4,
      "note": 45,
      "start": 6.8214,
      "duration": 0.0124,
      "velocity": 94,
      "chip": "ym2612"
    },
    {
      "channel": 0,
      "note": 64,
      "start": 6.8492,
      "duration": 0.0483,
      "velocity": 110,
      "chip": "ym2612"
    },
    {
      "channel": 1,
      "note": 45,
      "start": 6.8495,
      "duration": 0.0118,
      "velocity": 103,
      "chip": "ym2612"
    },
    {
      "channel": 2,
      "note": 57,
      "start": 6.85,
      "duration": 0.0496,
      "velocity": 97,
      "chip": "ym2612"
    },
    {
      "channel": 3,
      "note": 58,
      "start": 6.8502,
      "duration": 0.0505,
      "velocity": 119,
      "chip": "ym2612"
    },
    {
      "channel": 4,
      "note": 45,
      "start": 6.8505,
      "duration": 0.011,
      "velocity": 94,
      "chip": "ym2612"
    },
    {
      "channel": 0,
      "note": 57,
      "start": 6.8977,
      "duration": 0.0425,
      "velocity": 110,
      "chip": "ym2612"
    },
    {
      "channel": 1,
      "note": 45,
      "start": 6.8981,
      "duration": 0.018,
      "velocity": 103,
      "chip": "ym2612"
    },
    {
      "channel": 2,
      "note": 64,
      "start": 6.8997,
      "duration": 0.0258,
      "velocity": 93,
      "chip": "ym2612"
    },
    {
      "channel": 3,
      "note": 63,
      "start": 6.901,
      "duration": 0.0248,
      "velocity": 119,
      "chip": "ym2612"
    },
    {
      "channel": 4,
      "note": 45,
      "start": 6.9012,
      "duration": 0.0101,
      "velocity": 94,
      "chip": "ym2612"
    },
    {
      "channel": 1,
      "note": 51,
      "start": 6.9164,
      "duration": 0.0085,
      "velocity": 99,
      "chip": "ym2612"
    },
    {
      "channel": 1,
      "note": 45,
      "start": 6.9252,
      "duration": 0.0153,
      "velocity": 99,
      "chip": "ym2612"
    },
    {
      "channel": 2,
      "note": 63,
      "start": 6.9257,
      "duration": 0.0268,
      "velocity": 89,
      "chip": "ym2612"
    },
    {
      "channel": 3,
      "note": 58,
      "start": 6.9259,
      "duration": 0.0267,
      "velocity": 119,
      "chip": "ym2612"
    },
    {
      "channel": 4,
      "note": 45,
      "start": 6.9262,
      "duration": 0.0148,
      "velocity": 94,
      "chip": "ym2612"
    },
    {
      "channel": 0,
      "note": 58,
      "start": 6.9405,
      "duration": 0.0368,
      "velocity": 110,
      "chip": "ym2612"
    },
    {
      "channel": 1,
      "note": 51,
      "start": 6.9408,
      "duration": 0.01,
      "velocity": 95,
      "chip": "ym2612"
    },
    {
      "channel": 4,
      "note": 51,
      "start": 6.9411,
      "duration": 0.012,
      "velocity": 90,
      "chip": "ym2612"
    },
    {
      "channel": 1,
      "note": 45,
      "start": 6.951,
      "duration": 0.0189,
      "velocity": 95,
      "chip": "ym2612"
    },
    {
      "channel": 2,
      "note": 62,
      "start": 6.9526,
      "duration": 0.026,
      "velocity": 85,
      "chip": "ym2612"
    },
    {
      "channel": 3,
      "note": 59,
      "start": 6.9528,
      "duration": 0.026,
      "velocity": 119,
      "chip": "ym2612"
    },
    {
      "channel": 4,
      "note": 45,
      "start": 6.9532,
      "duration": 0.0172,
      "velocity": 90,
      "chip": "ym2612"
    },
    {
      "channel": 1,
      "note": 51,
      "start": 6.9702,
      "duration": 0.0077,
      "velocity": 91,
      "chip": "ym2612"
    },
    {
      "channel": 4,
      "note": 51,
      "start": 6.9707,
      "duration": 0.0085,
      "velocity": 86,
      "chip": "ym2612"
    },
    {
      "channel": 0,
      "note": 61,
      "start": 6.9776,
      "duration": 0.0444,
      "velocity": 110,
      "chip": "ym2612"
    },
    {
      "channel": 1,
      "note": 45,
      "start": 6.9782,
      "duration": 0.0167,
      "velocity": 91,
      "chip": "ym2612"
    },
    {
      "channel": 2,
      "note": 61,
      "start": 6.9787,
      "duration": 0.0268,
      "velocity": 81,
      "chip": "ym2612"
    },
    {
      "channel": 3,
      "note": 60,
      "start": 6.9789,
      "duration": 0.0268,
      "velocity": 119,
      "chip": "ym2612"
    },
    {
      "channel": 4,
      "note": 45,
      "start": 6.9794,
      "duration": 0.0161,
      "velocity": 86,
      "chip": "ym2612"
    },
    {
      "channel": 1,
      "note": 51,
      "start": 6.9953,
      "duration": 0.0086,
      "velocity": 87,
      "chip": "ym2612"
    },
    {
      "channel": 4,
      "note": 51,
      "start": 6.9958,
      "duration": 0.0103,
      "velocity": 82,
      "chip": "ym2612"
    },
    {
      "channel": 1,
      "note": 45,
      "start": 7.0041,
      "duration": 0.0183,
      "velocity": 87,
      "chip": "ym2612"
    },
    {
      "channel": 2,
      "note": 60,
      "start": 7.0056,
      "duration": 0.0244,
      "velocity": 77,
      "chip": "ym2612"
    },
    {
      "channel": 3,
      "note": 61,
      "start": 7.0058,
      "duration": 0.0169,
      "velocity": 119,
      "chip": "ym2612"
    },
    {
      "channel": 4,
      "note": 45,
      "start": 7.0063,
      "duration": 0.0167,
      "velocity": 82,
      "chip": "ym2612"
    },
    {
      "channel": 0,
      "note": 62,
      "start": 7.0223,
      "duration": 0.0329,
      "velocity": 110,
      "chip": "ym2612"
    },
    {
      "channel": 1,
      "note": 51,
      "start": 7.0226,
      "duration": 0.0067,
      "velocity": 83,
      "chip": "ym2612"
    },
    {
      "channel": 3,
      "note": 60,
      "start": 7.0229,
      "duration": 0.0244,
      "velocity": 119,
      "chip": "ym2612"
    },
    {
      "channel": 4,
      "note": 51,
      "start": 7.0231,
      "duration": 0.0075,
      "velocity": 78,
      "chip": "ym2612"
    },
    {
      "channel": 1,
      "note": 45,
      "start": 7.0296,
      "duration": 0.0171,
      "velocity": 83,
      "chip": "ym2612"
    },
    {
      "channel": 2,
      "note": 59,
      "start": 7.0303,
      "duration": 0.027,
      "velocity": 73,
      "chip": "ym2612"
    },
    {
      "channel": 4,
      "note": 45,
      "start": 7.0308,
      "duration": 0.0167,
      "velocity": 78,
      "chip": "ym2612"
    },
    {
      "channel": 1,
      "note": 51,
      "start": 7.0471,
      "duration": 0.0087,
      "velocity": 79,
      "chip": "ym2612"
    },
    {
      "channel": 3,
      "note": 59,
      "start": 7.0475,
      "duration": 0.035,
      "velocity": 119,
      "chip": "ym2612"
    },
    {
      "channel": 4,
      "note": 51,
      "start": 7.0478,
      "duration": 0.01,
      "velocity": 74,
      "chip": "ym2612"
    },
    {
      "channel": 0,
      "note": 63,
      "start": 7.0555,
      "duration": 0.0257,
      "velocity": 110,
      "chip": "ym2612"
    },
    {
      "channel": 1,
      "note": 45,
      "start": 7.0561,
      "duration": 0.0167,
      "velocity": 79,
      "chip": "ym2612"
    },
    {
      "channel": 2,
      "note": 58,
      "start": 7.0575,
      "duration": 0.0249,
      "velocity": 69,
      "chip": "ym2612"
    },
    {
      "channel": 4,
      "note": 45,
      "start": 7.058,
      "duration": 0.0153,
      "velocity": 74,
      "chip": "ym2612"
    },
    {
      "channel": 1,
      "note": 51,
      "start": 7.0731,
      "duration": 0.0088,
      "velocity": 75,
      "chip": "ym2612"
    },
    {
      "channel": 4,
      "note": 51,
      "start": 7.0735,
      "duration": 0.0095,
      "velocity": 70,
      "chip": "ym2612"
    },
    {
      "channel": 0,
      "note": 64,
      "start": 7.0815,
      "duration": 0.1106,
      "velocity": 110,
      "chip": "ym2612"
    },
    {
      "channel": 1,
      "note": 45,
      "start": 7.082,
      "duration": 0.0559,
      "velocity": 75,
      "chip": "ym2612"
    },
    {
      "channel": 2,
      "note": 57,
      "start": 7.0824,
      "duration": 0.1129,
      "velocity": 97,
      "chip": "ym2612"
    },
    {
      "channel": 3,
      "note": 58,
      "start": 7.0827,
      "duration": 0.1139,
      "velocity": 119,
      "chip": "ym2612"
    },
    {
      "channel": 4,
      "note": 45,
      "start": 7.0831,
      "duration": 0.0552,
      "velocity": 70,
      "chip": "ym2612"
    },
    {
      "channel": 1,
      "note": 51,
      "start": 7.1381,
      "duration": 0.0556,
      "velocity": 103,
      "chip": "ym2612"
    },
    {
      "channel": 4,
      "note": 51,
      "start": 7.1386,
      "duration": 0.0584,
      "velocity": 66,
      "chip": "ym2612"
    },
    {
      "channel": 0,
      "note": 57,
      "start": 7.1923,
      "duration": 0.0426,
      "velocity": 110,
      "chip": "ym2612"
    },
    {
      "channel": 1,
      "note": 57,
      "start": 7.1939,
      "duration": 0.0134,
      "velocity": 103,
      "chip": "ym2612"
    },
    {
      "channel": 2,
      "note": 64,
      "start": 7.1956,
      "duration": 0.0226,
      "velocity": 93,
      "chip": "ym2612"
    },
    {
      "channel": 3,
      "note": 63,
      "start": 7.1968,
      "duration": 0.0217,
      "velocity": 119,
      "chip": "ym2612"
    },
    {
      "channel": 4,
      "note": 45,
      "start": 7.1972,
      "duration": 0.0135,
      "velocity": 66,
      "chip": "ym2612"
    },
    {
      "channel": 4,
      "note": 51,
      "start": 7.211,
      "duration": 0.009,
      "velocity": 94,
      "chip": "ym2612"
    },
    {
      "channel": 1,
      "note": 57,
      "start": 7.2179,
      "duration": 0.0125,
      "velocity": 103,
      "chip": "ym2612"
    },
    {
      "channel": 2,
      "note": 63,
      "start": 7.2184,
      "duration": 0.0263,
      "velocity": 89,
      "chip": "ym2612"
    },
    {
      "channel": 3,
      "note": 58,
      "start": 7.2187,
      "duration": 0.0263,
      "velocity": 119,
      "chip": "ym2612"
    },
    {
      "channel": 4,
      "note": 57,
      "start": 7.2202,
      "duration": 0.0104,
      "velocity": 94,
      "chip": "ym2612"
    },
    {
      "channel": 0,
      "note": 58,
      "start": 7.2351,
      "duration": 0.0309,
      "velocity": 110,
      "chip": "ym2612"
    },
    {
      "channel": 1,
      "note": 57,
      "start": 7.2434,
      "duration": 0.0116,
      "velocity": 103,
      "chip": "ym2612"
    },
    {
      "channel": 2,
      "note": 62,
      "start": 7.2449,
      "duration": 0.022,
      "velocity": 85,
      "chip": "ym2612"
    },
    {
      "channel": 3,
      "note": 59,
      "start": 7.2452,
      "duration": 0.0219,
      "velocity": 119,
      "chip": "ym2612"
    },
    {
      "channel": 4,
      "note": 57,
      "start": 7.2455,
      "duration": 0.0097,
      "velocity": 94,
      "chip": "ym2612"
    },
    {
      "channel": 0,
      "note": 61,
      "start": 7.2663,
      "duration": 0.0403,
      "velocity": 110,
      "chip": "ym2612"
    },
    {
      "channel": 1,
      "note": 57,
      "start": 7.2666,
      "duration": 0.011,
      "velocity": 103,
      "chip": "ym2612"
    },
    {
      "channel": 2,
      "note": 61,
      "start": 7.2671,
      "duration": 0.024,
      "velocity": 81,
      "chip": "ym2612"
    },
    {
      "channel": 3,
      "note": 60,
      "start": 7.2673,
      "duration": 0.0241,
      "velocity": 119,
      "chip": "ym2612"
    },
    {
      "channel": 4,
      "note": 57,
      "start": 7.2675,
      "duration": 0.0103,
      "velocity": 94,
      "chip": "ym2612"
    },
    {
      "channel": 1,
      "note": 57,
      "start": 7.2898,
      "duration": 0.0118,
      "velocity": 103,
      "chip": "ym2612"
    },
    {
      "channel": 2,
      "note": 60,
      "start": 7.2912,
      "duration": 0.0252,
      "velocity": 77,
      "chip": "ym2612"
    },
    {
      "channel": 3,
      "note": 61,
      "start": 7.2915,
      "duration": 0.0158,
      "velocity": 119,
      "chip": "ym2612"
    },
    {
      "channel": 4,
      "note": 57,
      "start": 7.2917,
      "duration": 0.0101,
      "velocity": 94,
      "chip": "ym2612"
    },
    {
      "channel": 0,
      "note": 62,
      "start": 7.307,
      "duration": 0.0324,
      "velocity": 110,
      "chip": "ym2612"
    },
    {
      "channel": 3,
      "note": 60,
      "start": 7.3074,
      "duration": 0.0254,
      "velocity": 119,
      "chip": "ym2612"
    },
    {
      "channel": 1,
      "note": 57,
      "start": 7.3162,
      "duration": 0.0117,
      "velocity": 103,
      "chip": "ym2612"
    },
    {
      "channel": 2,
      "note": 59,
      "start": 7.3168,
      "duration": 0.0244,
      "velocity": 73,
      "chip": "ym2612"
    },
    {
      "channel": 4,
      "note": 57,
      "start": 7.317,
      "duration": 0.0111,
      "velocity": 94,
      "chip": "ym2612"
    },
    {
      "channel": 3,
      "note": 59,
      "start": 7.3331,
      "duration": 0.0362,
      "velocity": 119,
      "chip": "ym2612"
    },
    {
      "channel": 0,
      "note": 63,
      "start": 7.3397,
      "duration": 0.0285,
      "velocity": 110,
      "chip": "ym2612"
    },
    {
      "channel": 1,
      "note": 57,
      "start": 7.3399,
      "duration": 0.0129,
      "velocity": 103,
      "chip": "ym2612"
    },
    {
      "channel": 2,
      "note": 58,
      "start": 7.3414,
      "duration": 0.0276,
      "velocity": 69,
      "chip": "ym2612"
    },
    {
      "channel": 4,
      "note": 57,
      "start": 7.3417,
      "duration": 0.0113,
      "velocity": 94,
      "chip": "ym2612"
    },
    {
      "channel": 0,
      "note": 64,
      "start": 7.3684,
      "duration": 0.0619,
      "velocity": 110,
      "chip": "ym2612"
    },
    {
      "channel": 1,
      "note": 57,
      "start": 7.3687,
      "duration": 0.0113,
      "velocity": 103,
      "chip": "ym2612"
    },
    {
      "channel": 2,
      "note": 57,
      "start": 7.3692,
      "duration": 0.0632,
      "velocity": 97,
      "chip": "ym2612"
    },
    {
      "channel": 3,
      "note": 58,
      "start": 7.3695,
      "duration": 0.0641,
      "velocity": 119,
      "chip": "ym2612"
    },
    {
      "channel": 4,
      "note": 57,
      "start": 7.3697,
      "duration": 0.0105,
      "velocity": 94,
      "chip": "ym2612"
    },
    {
      "channel": 0,
      "note": 57,
      "start": 7.4305,
      "duration": 0.0434,
      "velocity": 110,
      "chip": "ym2612"
    },
    {
      "channel": 1,
      "note": 57,
      "start": 7.4309,
      "duration": 0.018,
      "velocity": 103,
      "chip": "ym2612"
    },
    {
      "channel": 2,
      "note": 64,
      "start": 7.4326,
      "duration": 0.0261,
      "velocity": 93,
      "chip": "ym2612"
    },
    {
      "channel": 3,
      "note": 63,
      "start": 7.4338,
      "duration": 0.0252,
      "velocity": 119,
      "chip": "ym2612"
    },
    {
      "channel": 4,
      "note": 57,
      "start": 7.434,
      "duration": 0.01,
      "velocity": 94,
      "chip": "ym2612"
    },
    {
      "channel": 1,
      "note": 63,
      "start": 7.4492,
      "duration": 0.0089,
      "velocity": 99,
      "chip": "ym2612"
    },
    {
      "channel": 1,
      "note": 57,
      "start": 7.4583,
      "duration": 0.016,
      "velocity": 99,
      "chip": "ym2612"
    },
    {
      "channel": 2,
      "note": 63,
      "start": 7.4589,
      "duration": 0.0273,
      "velocity": 89,
      "chip": "ym2612"
    },
    {
      "channel": 3,
      "note": 58,
      "start": 7.4591,
      "duration": 0.0272,
      "velocity": 119,
      "chip": "ym2612"
    },
    {
      "channel": 4,
      "note": 57,
      "start": 7.4594,
      "duration": 0.0153,
      "velocity": 94,
      "chip": "ym2612"
    },
    {
      "channel": 0,
      "note": 58,
      "start": 7.4742,
      "duration": 0.0397,
      "velocity": 110,
      "chip": "ym2612"
    },
    {
      "channel": 1,
      "note": 63,
      "start": 7.4745,
      "duration": 0.01,
      "velocity": 95,
      "chip": "ym2612"
    },
    {
      "channel": 4,
      "note": 63,
      "start": 7.4749,
      "duration": 0.0119,
      "velocity": 90,
      "chip": "ym2612"
    },
    {
      "channel": 1,
      "note": 57,
      "start": 7.4847,
      "duration": 0.0185,
      "velocity": 95,
      "chip": "ym2612"
    },
    {
      "channel": 2,
      "note": 62,
      "start": 7.4863,
      "duration": 0.0289,
      "velocity": 85,
      "chip": "ym2612"
    },
    {
      "channel": 3,
      "note": 59,
      "start": 7.4865,
      "duration": 0.0289,
      "velocity": 119,
      "chip": "ym2612"
    },
    {
      "channel": 4,
      "note": 57,
      "start": 7.4869,
      "duration": 0.0169,
      "velocity": 90,
      "chip": "ym2612"
    },
    {
      "channel": 1,
      "note": 63,
      "start": 7.5036,
      "duration": 0.011,
      "velocity": 91,
      "chip": "ym2612"
    },
    {
      "channel": 4,
      "note": 63,
      "start": 7.504,
      "duration": 0.0118,
      "velocity": 86,
      "chip": "ym2612"
    },
    {
      "channel": 0,
      "note": 61,
      "start": 7.5142,
      "duration": 0.043,
      "velocity": 110,
      "chip": "ym2612"
    },
    {
      "channel": 1,
      "note": 57,
      "start": 7.5149,
      "duration": 0.0158,
      "velocity": 91,
      "chip": "ym2612"
    },
    {
      "channel": 2,
      "note": 61,
      "start": 7.5153,
      "duration": 0.0258,
      "velocity": 81,
      "chip": "ym2612"
    },
    {
      "channel": 3,
      "note": 60,
      "start": 7.5155,
      "duration": 0.0259,
      "velocity": 119,
      "chip": "ym2612"
    },
    {
      "channel": 4,
      "note": 57,
      "start": 7.5159,
      "duration": 0.0153,
      "velocity": 86,
      "chip": "ym2612"
    },
    {
      "channel": 1,
      "note": 63,
      "start": 7.531,
      "duration": 0.0085,
      "velocity": 87,
      "chip": "ym2612"
    },
    {
      "channel": 4,
      "note": 63,
      "start": 7.5315,
      "duration": 0.0103,
      "velocity": 82,
      "chip": "ym2612"
    },
    {
      "channel": 1,
      "note": 57,
      "start": 7.5398,
      "duration": 0.0178,
      "velocity": 87,
      "chip": "ym2612"
    },
    {
      "channel": 2,
      "note": 60,
      "start": 7.5413,
      "duration": 0.0267,
      "velocity": 77,
      "chip": "ym2612"
    },
    {
      "channel": 3,
      "note": 61,
      "start": 7.5415,
      "duration": 0.0165,
      "velocity": 119,
      "chip": "ym2612"
    },
    {
      "channel": 4,
      "note": 57,
      "start": 7.542,
      "duration": 0.0164,
      "velocity": 82,
      "chip": "ym2612"
    },
    {
      "channel": 0,
      "note": 62,
      "start": 7.5575,
      "duration": 0.0366,
      "velocity": 110,
      "chip": "ym2612"
    },
    {
      "channel": 1,
      "note": 63,
      "start": 7.5578,
      "duration": 0.0096,
      "velocity": 83,
      "chip": "ym2612"
    },
    {
      "channel": 3,
      "note": 60,
      "start": 7.5583,
      "duration": 0.0256,
      "velocity": 119,
      "chip": "ym2612"
    },
    {
      "channel": 4,
      "note": 63,
      "start": 7.5585,
      "duration": 0.01,
      "velocity": 78,
      "chip": "ym2612"
    },
    {
      "channel": 1,
      "note": 57,
      "start": 7.5676,
      "duration": 0.0157,
      "velocity": 83,
      "chip": "ym2612"
    },
    {
      "channel": 2,
      "note": 59,
      "start": 7.5682,
      "duration": 0.0281,
      "velocity": 73,
      "chip": "ym2612"
    },
    {
      "channel": 4,
      "note": 57,
      "start": 7.5687,
      "duration": 0.0154,
      "velocity": 78,
      "chip": "ym2612"
    },
    {
      "channel": 1,
      "note": 63,
      "start": 7.5837,
      "duration": 0.011,
      "velocity": 79,
      "chip": "ym2612"
    },
    {
      "channel": 3,
      "note": 59,
      "start": 7.584,
      "duration": 0.0418,
      "velocity": 119,
      "chip": "ym2612"
    },
    {
      "channel": 4,
      "note": 63,
      "start": 7.5842,
      "duration": 0.0125,
      "velocity": 74,
      "chip": "ym2612"
    },
    {
      "channel": 0,
      "note": 63,
      "start": 7.5944,
      "duration": 0.03,
      "velocity": 110,
      "chip": "ym2612"
    },
    {
      "channel": 1,
      "note": 57,
      "start": 7.595,
      "duration": 0.0185,
      "velocity": 79,
      "chip": "ym2612"
    },
    {
      "channel": 2,
      "note": 58,
      "start": 7.5965,
      "duration": 0.0291,
      "velocity": 69,
      "chip": "ym2612"
    },
    {
      "channel": 4,
      "note": 57,
      "start": 7.5969,
      "duration": 0.0171,
      "velocity": 74,
      "chip": "ym2612"
    },
    {
      "channel": 1,
      "note": 63,
      "start": 7.6138,
      "duration": 0.0112,
      "velocity": 75,
      "chip": "ym2612"
    },
    {
      "channel": 4,
      "note": 63,
      "start": 7.6142,
      "duration": 0.0121,
      "velocity": 70,
      "chip": "ym2612"
    },
    {
      "channel": 0,
      "note": 64,
      "start": 7.6247,
      "duration": 0.0939,
      "velocity": 110,
      "chip": "ym2612"
    },
    {
      "channel": 1,
      "note": 57,
      "start": 7.6253,
      "duration": 0.0388,
      "velocity": 75,
      "chip": "ym2612"
    },
    {
      "channel": 2,
      "note": 57,
      "start": 7.6258,
      "duration": 0.0961,
      "velocity": 97,
      "chip": "ym2612"
    },
    {
      "channel": 3,
      "note": 58,
      "start": 7.626,
      "duration": 0.097,
      "velocity": 119,
      "chip": "ym2612"
    },
    {
      "channel": 4,
      "note": 57,
      "start": 7.6265,
      "duration": 0.0381,
      "velocity": 70,
      "chip": "ym2612"
    },
    {
      "channel": 1,
      "note": 63,
      "start": 7.6644,
      "duration": 0.0558,
      "velocity": 103,
      "chip": "ym2612"
    },
    {
      "channel": 4,
      "note": 63,
      "start": 7.6649,
      "duration": 0.0586,
      "velocity": 66,
      "chip": "ym2612"
    },
    {
      "channel": 0,
      "note": 57,
      "start": 7.7188,
      "duration": 0.0438,
      "velocity": 110,
      "chip": "ym2612"
    },
    {
      "channel": 1,
      "note": 69,
      "start": 7.7204,
      "duration": 0.0136,
      "velocity": 103,
      "chip": "ym2612"
    },
    {
      "channel": 2,
      "note": 64,
      "start": 7.722,
      "duration": 0.0238,
      "velocity": 93,
      "chip": "ym2612"
    },
    {
      "channel": 3,
      "note": 63,
      "start": 7.7232,
      "duration": 0.023,
      "velocity": 119,
      "chip": "ym2612"
    },
    {
      "channel": 4,
      "note": 57,
      "start": 7.7236,
      "duration": 0.0154,
      "velocity": 66,
      "chip": "ym2612"
    },
    {
      "channel": 4,
      "note": 63,
      "start": 7.7393,
      "duration": 0.0083,
      "velocity": 94,
      "chip": "ym2612"
    },
    {
      "channel": 1,
      "note": 69,
      "start": 7.7454,
      "duration": 0.0127,
      "velocity": 103,
      "chip": "ym2612"
    },
    {
      "channel": 2,
      "note": 63,
      "start": 7.7461,
      "duration": 0.0259,
      "velocity": 89,
      "chip": "ym2612"
    },
    {
      "channel": 3,
      "note": 58,
      "start": 7.7463,
      "duration": 0.026,
      "velocity": 119,
      "chip": "ym2612"
    },
    {
      "channel": 4,
      "note": 69,
      "start": 7.7477,
      "duration": 0.0106,
      "velocity": 94,
      "chip": "ym2612"
    },
    {
      "channel": 0,
      "note": 58,
      "start": 7.7628,
      "duration": 0.0325,
      "velocity": 110,
      "chip": "ym2612"
    },
    {
      "channel": 1,
      "note": 69,
      "start": 7.7705,
      "duration": 0.013,
      "velocity": 103,
      "chip": "ym2612"
    },
    {
      "channel": 2,
      "note": 62,
      "start": 7.7722,
      "duration": 0.024,
      "velocity": 85,
      "chip": "ym2612"
    },
    {
      "channel": 3,
      "note": 59,
      "start": 7.7724,
      "duration": 0.0241,
      "velocity": 119,
      "chip": "ym2612"
    },
    {
      "channel": 4,
      "note": 69,
      "start": 7.7726,
      "duration": 0.0111,
      "velocity": 94,
      "chip": "ym2612"
    },
    {
      "channel": 0,
      "note": 61,
      "start": 7.7956,
      "duration": 0.0409,
      "velocity": 110,
      "chip": "ym2612"
    },
    {
      "channel": 1,
      "note": 69,
      "start": 7.7959,
      "duration": 0.011,
      "velocity": 103,
      "chip": "ym2612"
    },
    {
      "channel": 2,
      "note": 61,
      "start": 7.7964,
      "duration": 0.0242,
      "velocity": 81,
      "chip": "ym2612"
    },
    {
      "channel": 3,
      "note": 60,
      "start": 7.7966,
      "duration": 0.0242,
      "velocity": 119,
      "chip": "ym2612"
    },
    {
      "channel": 4,
      "note": 69,
      "start": 7.7969,
      "duration": 0.0102,
      "velocity": 94,
      "chip": "ym2612"
    },
    {
      "channel": 1,
      "note": 69,
      "start": 7.8193,
      "duration": 0.0119,
      "velocity": 103,
      "chip": "ym2612"
    },
    {
      "channel": 2,
      "note": 60,
      "start": 7.8208,
      "duration": 0.0264,
      "velocity": 77,
      "chip": "ym2612"
    },
    {
      "channel": 3,
      "note": 61,
      "start": 7.821,
      "duration": 0.0159,
      "velocity": 119,
      "chip": "ym2612"
    },
    {
      "channel": 4,
      "note": 69,
      "start": 7.8212,
      "duration": 0.0103,
      "velocity": 94,
      "chip": "ym2612"
    },
    {
      "channel": 0,
      "note": 62,
      "start": 7.8367,
      "duration": 0.0354,
      "velocity": 110,
      "chip": "ym2612"
    },
    {
      "channel": 3,
      "note": 60,
      "start": 7.8372,
      "duration": 0.0259,
      "velocity": 119,
      "chip": "ym2612"
    },
    {
      "channel": 1,
      "note": 69,
      "start": 7.8469,
      "duration": 0.0117,
      "velocity": 103,
      "chip": "ym2612"
    },
    {
      "channel": 2,
      "note": 59,
      "start": 7.8474,
      "duration": 0.0266,
      "velocity": 73,
      "chip": "ym2612"
    },
    {
      "channel": 4,
      "note": 69,
      "start": 7.8476,
      "duration": 0.0112,
      "velocity": 94,
      "chip": "ym2612"
    },
    {
      "channel": 3,
      "note": 59,
      "start": 7.8634,
      "duration": 0.0329,
      "velocity": 119,
      "chip": "ym2612"
    },
    {
      "channel": 0,
      "note": 63,
      "start": 7.8724,
      "duration": 0.0229,
      "velocity": 110,
      "chip": "ym2612"
    },
    {
      "channel": 1,
      "note": 69,
      "start": 7.8727,
      "duration": 0.0123,
      "velocity": 103,
      "chip": "ym2612"
    },
    {
      "channel": 2,
      "note": 58,
      "start": 7.8742,
      "duration": 0.0218,
      "velocity": 69,
      "chip": "ym2612"
    },
    {
      "channel": 4,
      "note": 69,
      "start": 7.8744,
      "duration": 0.0108,
      "velocity": 94,
      "chip": "ym2612"
    },
    {
      "channel": 0,
      "note": 64,
      "start": 7.8954,
      "duration": 0.0642,
      "velocity": 110,
      "chip": "ym2612"
    },
    {
      "channel": 1,
      "note": 69,
      "start": 7.8957,
      "duration": 0.0113,
      "velocity": 103,
      "chip": "ym2612"
    },
    {
      "channel": 2,
      "note": 57,
      "start": 7.8962,
      "duration": 0.0656,
      "velocity": 97,
      "chip": "ym2612"
    },
    {
      "channel": 3,
      "note": 58,
      "start": 7.8964,
      "duration": 0.0665,
      "velocity": 119,
      "chip": "ym2612"
    },
    {
      "channel": 4,
      "note": 69,
      "start": 7.8966,
      "duration": 0.0106,
      "velocity": 94,
      "chip": "ym2612"
    },
    {
      "channel": 0,
      "note": 57,
      "start": 7.9599,
      "duration": 0.0416,
      "velocity": 110,
      "chip": "ym2612"
    },
    {
      "channel": 1,
      "note": 69,
      "start": 7.9602,
      "duration": 0.0171,
      "velocity": 103,
      "chip": "ym2612"
    },
    {
      "channel": 2,
      "note": 64,
      "start": 7.9619,
      "duration": 0.0235,
      "velocity": 93,
      "chip": "ym2612"
    },
    {
      "channel": 3,
      "note": 63,
      "start": 7.9631,
      "duration": 0.0226,
      "velocity": 119,
      "chip": "ym2612"
    },
    {
      "channel": 4,
      "note": 69,
      "start": 7.9634,
      "duration": 0.0103,
      "velocity": 94,
      "chip": "ym2612"
    },
    {
      "channel": 1,
      "note": 75,
      "start": 7.9776,
      "duration": 0.0071,
      "velocity": 99,
      "chip": "ym2612"
    },
    {
      "channel": 1,
      "note": 69,
      "start": 7.985,
      "duration": 0.0166,
      "velocity": 99,
      "chip": "ym2612"
    },
    {
      "channel": 2,
      "note": 63,
      "start": 7.9856,
      "duration": 0.0257,
      "velocity": 89,
      "chip": "ym2612"
    },
    {
      "channel": 3,
      "note": 58,
      "start": 7.9859,
      "duration": 0.0257,
      "velocity": 119,
      "chip": "ym2612"
    },
    {
      "channel": 4,
      "note": 69,
      "start": 7.9861,
      "duration": 0.016,
      "velocity": 94,
      "chip": "ym2612"
    },
    {
      "channel": 0,
      "note": 58,
      "start": 8.0016,
      "duration": 0.0335,
      "velocity": 110,
      "chip": "ym2612"
    },
    {
      "channel": 1,
      "note": 75,
      "start": 8.0019,
      "duration": 0.0079,
      "velocity": 95,
      "chip": "ym2612"
    },
    {
      "channel": 4,
      "note": 75,
      "start": 8.0023,
      "duration": 0.0098,
      "velocity": 90,
      "chip": "ym2612"
    },
    {
      "channel": 1,
      "note": 69,
      "start": 8.01,
      "duration": 0.0165,
      "velocity": 95,
      "chip": "ym2612"
    },
    {
      "channel": 2,
      "note": 62,
      "start": 8.0115,
      "duration": 0.0249,
      "velocity": 85,
      "chip": "ym2612"
    },
    {
      "channel": 3,
      "note": 59,
      "start": 8.0118,
      "duration": 0.0249,
      "velocity": 119,
      "chip": "ym2612"
    },
    {
      "channel": 4,
      "note": 69,
      "start": 8.0123,
      "duration": 0.0147,
      "velocity": 90,
      "chip": "ym2612"
    },
    {
      "channel": 1,
      "note": 75,
      "start": 8.0268,
      "duration": 0.0089,
      "velocity": 91,
      "chip": "ym2612"
    },
    {
      "channel": 4,
      "note": 75,
      "start": 8.0272,
      "duration": 0.0099,
      "velocity": 86,
      "chip": "ym2612"
    },
    {
      "channel": 0,
      "note": 61,
      "start": 8.0354,
      "duration": 0.0421,
      "velocity": 110,
      "chip": "ym2612"
    },
    {
      "channel": 1,
      "note": 69,
      "start": 8.0361,
      "duration": 0.0168,
      "velocity": 91,
      "chip": "ym2612"
    },
    {
      "channel": 2,
      "note": 61,
      "start": 8.0366,
      "duration": 0.0249,
      "velocity": 81,
      "chip": "ym2612"
    },
    {
      "channel": 3,
      "note": 60,
      "start": 8.0368,
      "duration": 0.0249,
      "velocity": 119,
      "chip": "ym2612"
    },
    {
      "channel": 4,
      "note": 69,
      "start": 8.0373,
      "duration": 0.016,
      "velocity": 86,
      "chip": "ym2612"
    },
    {
      "channel": 1,
      "note": 75,
      "start": 8.0532,
      "duration": 0.0067,
      "velocity": 87,
      "chip": "ym2612"
    },
    {
      "channel": 4,
      "note": 75,
      "start": 8.0536,
      "duration": 0.0085,
      "velocity": 82,
      "chip": "ym2612"
    },
    {
      "channel": 1,
      "note": 69,
      "start": 8.0602,
      "duration": 0.0177,
      "velocity": 87,
      "chip": "ym2612"
    },
    {
      "channel": 2,
      "note": 60,
      "start": 8.0616,
      "duration": 0.027,
      "velocity": 77,
      "chip": "ym2612"
    },
    {
      "channel": 3,
      "note": 61,
      "start": 8.0618,
      "duration": 0.0164,
      "velocity": 119,
      "chip": "ym2612"
    },
    {
      "channel": 4,
      "note": 69,
      "start": 8.0623,
      "duration": 0.0162,
      "velocity": 82,
      "chip": "ym2612"
    },
    {
      "channel": 0,
      "note": 62,
      "start": 8.0778,
      "duration": 0.0354,
      "velocity": 110,
      "chip": "ym2612"
    },
    {
      "channel": 1,
      "note": 75,
      "start": 8.078,
      "duration": 0.01,
      "velocity": 83,
      "chip": "ym2612"
    },
    {
      "channel": 3,
      "note": 60,
      "start": 8.0784,
      "duration": 0.0267,
      "velocity": 119,
      "chip": "ym2612"
    },
    {
      "channel": 4,
      "note": 75,
      "start": 8.0786,
      "duration": 0.0104,
      "velocity": 78,
      "chip": "ym2612"
    },
    {
      "channel": 1,
      "note": 69,
      "start": 8.0882,
      "duration": 0.0164,
      "velocity": 83,
      "chip": "ym2612"
    },
    {
      "channel": 2,
      "note": 59,
      "start": 8.0888,
      "duration": 0.0264,
      "velocity": 73,
      "chip": "ym2612"
    },
    {
      "channel": 4,
      "note": 69,
      "start": 8.0892,
      "duration": 0.0161,
      "velocity": 78,
      "chip": "ym2612"
    },
    {
      "channel": 1,
      "note": 75,
      "start": 8.1049,
      "duration": 0.0088,
      "velocity": 79,
      "chip": "ym2612"
    },
    {
      "channel": 3,
      "note": 59,
      "start": 8.1052,
      "duration": 0.0393,
      "velocity": 119,
      "chip": "ym2612"
    },
    {
      "channel": 4,
      "note": 75,
      "start": 8.1055,
      "duration": 0.0102,
      "velocity": 74,
      "chip": "ym2612"
    },
    {
      "channel": 0,
      "note": 63,
      "start": 8.1134,
      "duration": 0.0296,
      "velocity": 110,
      "chip": "ym2612"
    },
    {
      "channel": 1,
      "note": 69,
      "start": 8.114,
      "duration": 0.0199,
      "velocity": 79,
      "chip": "ym2612"
    },
    {
      "channel": 2,
      "note": 58,
      "start": 8.1154,
      "duration": 0.0289,
      "velocity": 69,
      "chip": "ym2612"
    },
    {
      "channel": 4,
      "note": 69,
      "start": 8.1159,
      "duration": 0.0186,
      "velocity": 74,
      "chip": "ym2612"
    },
    {
      "channel": 1,
      "note": 75,
      "start": 8.1342,
      "duration": 0.0094,
      "velocity": 75,
      "chip": "ym2612"
    },
    {
      "channel": 4,
      "note": 75,
      "start": 8.1346,
      "duration": 0.0104,
      "velocity": 70,
      "chip": "ym2612"
    },
    {
      "channel": 0,
      "note": 64,
      "start": 8.1433,
      "duration": 0.0506,
      "velocity": 110,
      "chip": "ym2612"
    },
    {
      "channel": 1,
      "note": 69,
      "start": 8.1439,
      "duration": 0.0385,
      "velocity": 75,
      "chip": "ym2612"
    },
    {
      "channel": 2,
      "note": 57,
      "start": 8.1445,
      "duration": 0.0534,
      "velocity": 88,
      "chip": "ym2612"
    },
    {
      "channel": 3,
      "note": 58,
      "start": 8.1447,
      "duration": 0.0545,
      "velocity": 119,
      "chip": "ym2612"
    },
    {
      "channel": 4,
      "note": 69,
      "start": 8.1451,
      "duration": 0.0378,
      "velocity": 70,
      "chip": "ym2612"
    },
    {
      "channel": 1,
      "note": 75,
      "start": 8.1827,
      "duration": 0.0129,
      "velocity": 103,
      "chip": "ym2612"
    },
    {
      "channel": 4,
      "note": 75,
      "start": 8.1833,
      "duration": 0.0165,
      "velocity": 66,
      "chip": "ym2612"
    },
    {
      "channel": 0,
      "note": 63,
      "start": 8.1942,
      "duration": 0.0435,
      "velocity": 110,
      "chip": "ym2612"
    },
    {
      "channel": 1,
      "note": 63,
      "start": 8.196,
      "duration": 0.0221,
      "velocity": 103,
      "chip": "ym2612"
    },
    {
      "channel": 3,
      "note": 63,
      "start": 8.1994,
      "duration": 0.0243,
      "velocity": 119,
      "chip": "ym2612"
    },
    {
      "channel": 4,
      "note": 69,
      "start": 8.2001,
      "duration": 0.0155,
      "velocity": 66,
      "chip": "ym2612"
    },
    {
      "channel": 4,
      "note": 75,
      "start": 8.2158,
      "duration": 0.0093,
      "velocity": 94,
      "chip": "ym2612"
    },
    {
      "channel": 2,
      "note": 69,
      "start": 8.2236,
      "duration": 0.0253,
      "velocity": 88,
      "chip": "ym2612"
    },
    {
      "channel": 3,
      "note": 58,
      "start": 8.224,
      "duration": 0.0251,
      "velocity": 119,
      "chip": "ym2612"
    },
    {
      "channel": 4,
      "note": 63,
      "start": 8.2254,
      "duration": 0.0167,
      "velocity": 94,
      "chip": "ym2612"
    },
    {
      "channel": 0,
      "note": 58,
      "start": 8.2379,
      "duration": 0.0378,
      "velocity": 110,
      "chip": "ym2612"
    },
    {
      "channel": 1,
      "note": 58,
      "start": 8.2382,
      "duration": 0.0207,
      "velocity": 103,
      "chip": "ym2612"
    },
    {
      "channel": 3,
      "note": 59,
      "start": 8.2494,
      "duration": 0.0272,
      "velocity": 119,
      "chip": "ym2612"
    },
    {
      "channel": 4,
      "note": 58,
      "start": 8.2629,
      "duration": 0.0247,
      "velocity": 94,
      "chip": "ym2612"
    },
    {
      "channel": 0,
      "note": 64,
      "start": 8.2759,
      "duration": 0.0367,
      "velocity": 110,
      "chip": "ym2612"
    },
    {
      "channel": 1,
      "note": 64,
      "start": 8.2761,
      "duration": 0.019,
      "velocity": 103,
      "chip": "ym2612"
    },
    {
      "channel": 2,
      "note": 69,
      "start": 8.2765,
      "duration": 0.0231,
      "velocity": 88,
      "chip": "ym2612"
    },
    {
      "channel": 3,
      "note": 60,
      "start": 8.2767,
      "duration": 0.023,
      "velocity": 119,
      "chip": "ym2612"
    },
    {
      "channel": 3,
      "note": 61,
      "start": 8.2999,
      "duration": 0.0133,
      "velocity": 119,
      "chip": "ym2612"
    },
    {
      "channel": 4,
      "note": 64,
      "start": 8.3002,
      "duration": 0.0158,
      "velocity": 94,
      "chip": "ym2612"
    },
    {
      "channel": 0,
      "note": 63,
      "start": 8.3129,
      "duration": 0.0315,
      "velocity": 110,
      "chip": "ym2612"
    },
    {
      "channel": 1,
      "note": 63,
      "start": 8.3131,
      "duration": 0.0202,
      "velocity": 103,
      "chip": "ym2612"
    },
    {
      "channel": 3,
      "note": 60,
      "start": 8.3135,
      "duration": 0.0229,
      "velocity": 119,
      "chip": "ym2612"
    },
    {
      "channel": 2,
      "note": 69,
      "start": 8.3229,
      "duration": 0.0232,
      "velocity": 88,
      "chip": "ym2612"
    },
    {
      "channel": 3,
      "note": 59,
      "start": 8.3366,
      "duration": 0.0324,
      "velocity": 119,
      "chip": "ym2612"
    },
    {
      "channel": 4,
      "note": 63,
      "start": 8.3368,
      "duration": 0.0201,
      "velocity": 94,
      "chip": "ym2612"
    },
    {
      "channel": 0,
      "note": 61,
      "start": 8.3446,
      "duration": 0.023,
      "velocity": 110,
      "chip": "ym2612"
    },
    {
      "channel": 1,
      "note": 61,
      "start": 8.3449,
      "duration": 0.0159,
      "velocity": 103,
      "chip": "ym2612"
    },
    {
      "channel": 0,
      "note": 58,
      "start": 8.3679,
      "duration": 0.0661,
      "velocity": 110,
      "chip": "ym2612"
    },
    {
      "channel": 1,
      "note": 58,
      "start": 8.3683,
      "duration": 0.0561,
      "velocity": 103,
      "chip": "ym2612"
    },
    {
      "channel": 2,
      "note": 69,
      "start": 8.3689,
      "duration": 0.068,
      "velocity": 88,
      "chip": "ym2612"
    },
    {
      "channel": 3,
      "note": 58,
      "start": 8.3693,
      "duration": 0.0686,
      "velocity": 119,
      "chip": "ym2612"
    },
    {
      "channel": 4,
      "note": 61,
      "start": 8.3695,
      "duration": 0.0552,
      "velocity": 94,
      "chip": "ym2612"
    },
    {
      "channel": 0,
      "note": 63,
      "start": 8.4343,
      "duration": 0.0413,
      "velocity": 110,
      "chip": "ym2612"
    },
    {
      "channel": 1,
      "note": 63,
      "start": 8.4356,
      "duration": 0.0196,
      "velocity": 103,
      "chip": "ym2612"
    },
    {
      "channel": 3,
      "note": 63,
      "start": 8.4381,
      "duration": 0.0226,
      "velocity": 119,
      "chip": "ym2612"
    },
    {
      "channel": 4,
      "note": 58,
      "start": 8.4383,
      "duration": 0.0144,
      "velocity": 94,
      "chip": "ym2612"
    },
    {
      "channel": 2,
      "note": 69,
      "start": 8.4606,
      "duration": 0.026,
      "velocity": 88,
      "chip": "ym2612"
    },
    {
      "channel": 3,
      "note": 58,
      "start": 8.461,
      "duration": 0.0258,
      "velocity": 119,
      "chip": "ym2612"
    },
    {
      "channel": 4,
      "note": 63,
      "start": 8.4622,
      "duration": 0.0168,
      "velocity": 94,
      "chip": "ym2612"
    },
    {
      "channel": 0,
      "note": 58,
      "start": 8.4758,
      "duration": 0.0293,
      "velocity": 110,
      "chip": "ym2612"
    },
    {
      "channel": 1,
      "note": 58,
      "start": 8.4761,
      "duration": 0.0193,
      "velocity": 103,
      "chip": "ym2612"
    },
    {
      "channel": 3,
      "note": 59,
      "start": 8.4871,
      "duration": 0.019,
      "velocity": 119,
      "chip": "ym2612"
    },
    {
      "channel": 4,
      "note": 58,
      "start": 8.4984,
      "duration": 0.0185,
      "velocity": 94,
      "chip": "ym2612"
    },
    {
      "channel": 0,
      "note": 64,
      "start": 8.5053,
      "duration": 0.0378,
      "velocity": 110,
      "chip": "ym2612"
    },
    {
      "channel": 1,
      "note": 64,
      "start": 8.5056,
      "duration": 0.019,
      "velocity": 103,
      "chip": "ym2612"
    },
    {
      "channel": 2,
      "note": 69,
      "start": 8.506,
      "duration": 0.0246,
      "velocity": 88,
      "chip": "ym2612"
    },
    {
      "channel": 3,
      "note": 60,
      "start": 8.5063,
      "duration": 0.0245,
      "velocity": 119,
      "chip": "ym2612"
    },
    {
      "channel": 3,
      "note": 61,
      "start": 8.531,
      "duration": 0.0127,
      "velocity": 119,
      "chip": "ym2612"
    },
    {
      "channel": 4,
      "note": 64,
      "start": 8.5312,
      "duration": 0.0167,
      "velocity": 94,
      "chip": "ym2612"
    },
    {
      "channel": 0,
      "note": 63,
      "start": 8.5434,
      "duration": 0.0362,
      "velocity": 110,
      "chip": "ym2612"
    },
    {
      "channel": 1,
      "note": 63,
      "start": 8.5437,
      "duration": 0.0206,
      "velocity": 103,
      "chip": "ym2612"
    },
    {
      "channel": 3,
      "note": 60,
      "start": 8.5439,
      "duration": 0.0249,
      "velocity": 119,
      "chip": "ym2612"
    },
    {
      "channel": 2,
      "note": 69,
      "start": 8.5537,
      "duration": 0.0277,
      "velocity": 88,
      "chip": "ym2612"
    },
    {
      "channel": 3,
      "note": 59,
      "start": 8.569,
      "duration": 0.0322,
      "velocity": 119,
      "chip": "ym2612"
    },
    {
      "channel": 4,
      "note": 63,
      "start": 8.5693,
      "duration": 0.022,
      "velocity": 94,
      "chip": "ym2612"
    },
    {
      "channel": 0,
      "note": 61,
      "start": 8.5798,
      "duration": 0.0204,
      "velocity": 110,
      "chip": "ym2612"
    },
    {
      "channel": 1,
      "note": 61,
      "start": 8.5802,
      "duration": 0.0155,
      "velocity": 103,
      "chip": "ym2612"
    },
    {
      "channel": 0,
      "note": 58,
      "start": 8.6005,
      "duration": 0.1101,
      "velocity": 110,
      "chip": "ym2612"
    },
    {
      "channel": 1,
      "note": 65,
      "start": 8.6007,
      "duration": 0.0558,
      "velocity": 103,
      "chip": "ym2612"
    },
    {
      "channel": 2,
      "note": 69,
      "start": 8.6012,
      "duration": 0.1123,
      "velocity": 88,
      "chip": "ym2612"
    },
    {
      "channel": 3,
      "note": 58,
      "start": 8.6014,
      "duration": 0.1131,
      "velocity": 119,
      "chip": "ym2612"
    },
    {
      "channel": 4,
      "note": 61,
      "start": 8.6017,
      "duration": 0.0551,
      "velocity": 94,
      "chip": "ym2612"
    },
    {
      "channel": 0,
      "note": 63,
      "start": 8.7109,
      "duration": 0.0439,
      "velocity": 110,
      "chip": "ym2612"
    },
    {
      "channel": 1,
      "note": 63,
      "start": 8.7122,
      "duration": 0.0207,
      "velocity": 103,
      "chip": "ym2612"
    },
    {
      "channel": 3,
      "note": 63,
      "start": 8.7147,
      "duration": 0.0237,
      "velocity": 119,
      "chip": "ym2612"
    },
    {
      "channel": 4,
      "note": 65,
      "start": 8.7149,
      "duration": 0.0155,
      "velocity": 94,
      "chip": "ym2612"
    },
    {
      "channel": 2,
      "note": 69,
      "start": 8.7383,
      "duration": 0.0269,
      "velocity": 88,
      "chip": "ym2612"
    },
    {
      "channel": 3,
      "note": 58,
      "start": 8.7386,
      "duration": 0.0268,
      "velocity": 119,
      "chip": "ym2612"
    },
    {
      "channel": 4,
      "note": 63,
      "start": 8.7398,
      "duration": 0.0185,
      "velocity": 94,
      "chip": "ym2612"
    },
    {
      "channel": 0,
      "note": 58,
      "start": 8.7549,
      "duration": 0.0375,
      "velocity": 110,
      "chip": "ym2612"
    },
    {
      "channel": 1,
      "note": 58,
      "start": 8.7552,
      "duration": 0.0217,
      "velocity": 103,
      "chip": "ym2612"
    },
    {
      "channel": 3,
      "note": 59,
      "start": 8.7657,
      "duration": 0.0277,
      "velocity": 119,
      "chip": "ym2612"
    },
    {
      "channel": 4,
      "note": 58,
      "start": 8.78,
      "duration": 0.0246,
      "velocity": 94,
      "chip": "ym2612"
    },
    {
      "channel": 0,
      "note": 64,
      "start": 8.7927,
      "duration": 0.0389,
      "velocity": 110,
      "chip": "ym2612"
    },
    {
      "channel": 1,
      "note": 64,
      "start": 8.7929,
      "duration": 0.0195,
      "velocity": 103,
      "chip": "ym2612"
    },
    {
      "channel": 2,
      "note": 69,
      "start": 8.7933,
      "duration": 0.0239,
      "velocity": 88,
      "chip": "ym2612"
    },
    {
      "channel": 3,
      "note": 60,
      "start": 8.7934,
      "duration": 0.0238,
      "velocity": 119,
      "chip": "ym2612"
    },
    {
      "channel": 3,
      "note": 61,
      "start": 8.8174,
      "duration": 0.0148,
      "velocity": 119,
      "chip": "ym2612"
    },
    {
      "channel": 4,
      "note": 64,
      "start": 8.8176,
      "duration": 0.0178,
      "velocity": 94,
      "chip": "ym2612"
    },
    {
      "channel": 0,
      "note": 63,
      "start": 8.8318,
      "duration": 0.033,
      "velocity": 110,
      "chip": "ym2612"
    },
    {
      "channel": 1,
      "note": 63,
      "start": 8.8321,
      "duration": 0.0207,
      "velocity": 103,
      "chip": "ym2612"
    },
    {
      "channel": 3,
      "note": 60,
      "start": 8.8324,
      "duration": 0.0237,
      "velocity": 119,
      "chip": "ym2612"
    },
    {
      "channel": 2,
      "note": 69,
      "start": 8.8422,
      "duration": 0.0244,
      "velocity": 88,
      "chip": "ym2612"
    },
    {
      "channel": 3,
      "note": 59,
      "start": 8.8564,
      "duration": 0.0368,
      "velocity": 119,
      "chip": "ym2612"
    },
    {
      "channel": 4,
      "note": 63,
      "start": 8.8566,
      "duration": 0.0206,
      "velocity": 94,
      "chip": "ym2612"
    },
    {
      "channel": 0,
      "note": 61,
      "start": 8.8651,
      "duration": 0.0272,
      "velocity": 110,
      "chip": "ym2612"
    },
    {
      "channel": 1,
      "note": 61,
      "start": 8.8654,
      "duration": 0.0161,
      "velocity": 103,
      "chip": "ym2612"
    },
    {
      "channel": 0,
      "note": 58,
      "start": 8.8925,
      "duration": 0.0488,
      "velocity": 110,
      "chip": "ym2612"
    },
    {
      "channel": 1,
      "note": 58,
      "start": 8.8928,
      "duration": 0.0413,
      "velocity": 103,
      "chip": "ym2612"
    },
    {
      "channel": 2,
      "note": 69,
      "start": 8.8932,
      "duration": 0.051,
      "velocity": 88,
      "chip": "ym2612"
    },
    {
      "channel": 3,
      "note": 58,
      "start": 8.8934,
      "duration": 0.0517,
      "velocity": 119,
      "chip": "ym2612"
    },
    {
      "channel": 4,
      "note": 61,
      "start": 8.8936,
      "duration": 0.0407,
      "velocity": 94,
      "chip": "ym2612"
    },
    {
      "channel": 0,
      "note": 63,
      "start": 8.9416,
      "duration": 0.0421,
      "velocity": 110,
      "chip": "ym2612"
    },
    {
      "channel": 1,
      "note": 63,
      "start": 8.9429,
      "duration": 0.0199,
      "velocity": 103,
      "chip": "ym2612"
    },
    {
      "channel": 3,
      "note": 63,
      "start": 8.9454,
      "duration": 0.0237,
      "velocity": 119,
      "chip": "ym2612"
    },
    {
      "channel": 4,
      "note": 58,
      "start": 8.9456,
      "duration": 0.0147,
      "velocity": 94,
      "chip": "ym2612"
    },
    {
      "channel": 2,
      "note": 69,
      "start": 8.969,
      "duration": 0.0257,
      "velocity": 88,
      "chip": "ym2612"
    },
    {
      "channel": 3,
      "note": 58,
      "start": 8.9693,
      "duration": 0.0256,
      "velocity": 119,
      "chip": "ym2612"
    },
    {
      "channel": 4,
      "note": 63,
      "start": 8.9705,
      "duration": 0.0179,
      "velocity": 94,
      "chip": "ym2612"
    },
    {
      "channel": 0,
      "note": 58,
      "start": 8.984,
      "duration": 0.0377,
      "velocity": 110,
      "chip": "ym2612"
    },
    {
      "channel": 1,
      "note": 58,
      "start": 8.9843,
      "duration": 0.0207,
      "velocity": 103,
      "chip": "ym2612"
    },
    {
      "channel": 3,
      "note": 59,
      "start": 8.9951,
      "duration": 0.0275,
      "velocity": 119,
      "chip": "ym2612"
    },
    {
      "channel": 4,
      "note": 58,
      "start": 9.0092,
      "duration": 0.0243,
      "velocity": 94,
      "chip": "ym2612"
    },
    {
      "channel": 0,
      "note": 64,
      "start": 9.022,
      "duration": 0.0396,
      "velocity": 110,
      "chip": "ym2612"
    },
    {
      "channel": 1,
      "note": 64,
      "start": 9.0222,
      "duration": 0.0186,
      "velocity": 103,
      "chip": "ym2612"
    },
    {
      "channel": 2,
      "note": 69,
      "start": 9.0226,
      "duration": 0.0226,
      "velocity": 88,
      "chip": "ym2612"
    },
    {
      "channel": 3,
      "note": 60,
      "start": 9.0228,
      "duration": 0.0225,
      "velocity": 119,
      "chip": "ym2612"
    },
    {
      "channel": 3,
      "note": 61,
      "start": 9.0454,
      "duration": 0.0169,
      "velocity": 119,
      "chip": "ym2612"
    },
    {
      "channel": 4,
      "note": 64,
      "start": 9.0456,
      "duration": 0.0198,
      "velocity": 94,
      "chip": "ym2612"
    },
    {
      "channel": 0,
      "note": 63,
      "start": 9.0618,
      "duration": 0.0324,
      "velocity": 110,
      "chip": "ym2612"
    },
    {
      "channel": 1,
      "note": 63,
      "start": 9.0622,
      "duration": 0.0183,
      "velocity": 103,
      "chip": "ym2612"
    },
    {
      "channel": 3,
      "note": 60,
      "start": 9.0625,
      "duration": 0.0216,
      "velocity": 119,
      "chip": "ym2612"
    },
    {
      "channel": 2,
      "note": 69,
      "start": 9.0695,
      "duration": 0.0266,
      "velocity": 88,
      "chip": "ym2612"
    },
    {
      "channel": 3,
      "note": 59,
      "start": 9.0843,
      "duration": 0.0342,
      "velocity": 119,
      "chip": "ym2612"
    },
    {
      "channel": 4,
      "note": 63,
      "start": 9.0846,
      "duration": 0.0214,
      "velocity": 94,
      "chip": "ym2612"
    },
    {
      "channel": 0,
      "note": 61,
      "start": 9.0945,
      "duration": 0.0229,
      "velocity": 110,
      "chip": "ym2612"
    },
    {
      "channel": 1,
      "note": 61,
      "start": 9.0949,
      "duration": 0.0158,
      "velocity": 103,
      "chip": "ym2612"
    },
    {
      "channel": 0,
      "note": 58,
      "start": 9.1178,
      "duration": 0.1094,
      "velocity": 110,
      "chip": "ym2612"
    },
    {
      "channel": 1,
      "note": 73,
      "start": 9.118,
      "duration": 0.0555,
      "velocity": 103,
      "chip": "ym2612"
    },
    {
      "channel": 2,
      "note": 69,
      "start": 9.1184,
      "duration": 0.1115,
      "velocity": 88,
      "chip": "ym2612"
    },
    {
      "channel": 3,
      "note": 58,
      "start": 9.1186,
      "duration": 0.1123,
      "velocity": 119,
      "chip": "ym2612"
    },
    {
      "channel": 4,
      "note": 61,
      "start": 9.1189,
      "duration": 0.0549,
      "velocity": 94,
      "chip": "ym2612"
    },
    {
      "channel": 0,
      "note": 63,
      "start": 9.2273,
      "duration": 0.0402,
      "velocity": 110,
      "chip": "ym2612"
    },
    {
      "channel": 1,
      "note": 63,
      "start": 9.2287,
      "duration": 0.0194,
      "velocity": 103,
      "chip": "ym2612"
    },
    {
      "channel": 3,
      "note": 63,
      "start": 9.2312,
      "duration": 0.0221,
      "velocity": 119,
      "chip": "ym2612"
    },
    {
      "channel": 4,
      "note": 73,
      "start": 9.2314,
      "duration": 0.0143,
      "velocity": 94,
      "chip": "ym2612"
    },
    {
      "channel": 2,
      "note": 69,
      "start": 9.2532,
      "duration": 0.026,
      "velocity": 88,
      "chip": "ym2612"
    },
    {
      "channel": 3,
      "note": 58,
      "start": 9.2534,
      "duration": 0.026,
      "velocity": 119,
      "chip": "ym2612"
    },
    {
      "channel": 4,
      "note": 63,
      "start": 9.2546,
      "duration": 0.0164,
      "velocity": 94,
      "chip": "ym2612"
    },
    {
      "channel": 0,
      "note": 58,
      "start": 9.2678,
      "duration": 0.0297,
      "velocity": 110,
      "chip": "ym2612"
    },
    {
      "channel": 1,
      "note": 58,
      "start": 9.2681,
      "duration": 0.0196,
      "velocity": 103,
      "chip": "ym2612"
    },
    {
      "channel": 3,
      "note": 59,
      "start": 9.2795,
      "duration": 0.019,
      "velocity": 119,
      "chip": "ym2612"
    },
    {
      "channel": 4,
      "note": 58,
      "start": 9.2912,
      "duration": 0.0182,
      "velocity": 94,
      "chip": "ym2612"
    },
    {
      "channel": 0,
      "note": 64,
      "start": 9.2978,
      "duration": 0.037,
      "velocity": 110,
      "chip": "ym2612"
    },
    {
      "channel": 1,
      "note": 64,
      "start": 9.298,
      "duration": 0.0193,
      "velocity": 103,
      "chip": "ym2612"
    },
    {
      "channel": 2,
      "note": 69,
      "start": 9.2984,
      "duration": 0.0244,
      "velocity": 88,
      "chip": "ym2612"
    },
    {
      "channel": 3,
      "note": 60,
      "start": 9.2986,
      "duration": 0.0243,
      "velocity": 119,
      "chip": "ym2612"
    },
    {
      "channel": 3,
      "note": 61,
      "start": 9.3231,
      "duration": 0.0123,
      "velocity": 119,
      "chip": "ym2612"
    },
    {
      "channel": 4,
      "note": 64,
      "start": 9.3234,
      "duration": 0.0161,
      "velocity": 94,
      "chip": "ym2612"
    },
    {
      "channel": 0,
      "note": 63,
      "start": 9.3351,
      "duration": 0.0351,
      "velocity": 110,
      "chip": "ym2612"
    },
    {
      "channel": 1,
      "note": 63,
      "start": 9.3354,
      "duration": 0.0203,
      "velocity": 103,
      "chip": "ym2612"
    },
    {
      "channel": 3,
      "note": 60,
      "start": 9.3355,
      "duration": 0.0249,
      "velocity": 119,
      "chip": "ym2612"
    },
    {
      "channel": 2,
      "note": 69,
      "start": 9.3452,
      "duration": 0.0268,
      "velocity": 88,
      "chip": "ym2612"
    },
    {
      "channel": 3,
      "note": 59,
      "start": 9.3607,
      "duration": 0.0312,
      "velocity": 119,
      "chip": "ym2612"
    },
    {
      "channel": 4,
      "note": 63,
      "start": 9.361,
      "duration": 0.0208,
      "velocity": 94,
      "chip": "ym2612"
    },
    {
      "channel": 0,
      "note": 61,
      "start": 9.3705,
      "duration": 0.0201,
      "velocity": 110,
      "chip": "ym2612"
    },
    {
      "channel": 1,
      "note": 61,
      "start": 9.3709,
      "duration": 0.0153,
      "velocity": 103,
      "chip": "ym2612"
    },
    {
      "channel": 0,
      "note": 58,
      "start": 9.3909,
      "duration": 0.0633,
      "velocity": 110,
      "chip": "ym2612"
    },
    {
      "channel": 1,
      "note": 58,
      "start": 9.3913,
      "duration": 0.0557,
      "velocity": 103,
      "chip": "ym2612"
    },
    {
      "channel": 2,
      "note": 69,
      "start": 9.3919,
      "duration": 0.0651,
      "velocity": 88,
      "chip": "ym2612"
    },
    {
      "channel": 3,
      "note": 58,
      "start": 9.3923,
      "duration": 0.0657,
      "velocity": 119,
      "chip": "ym2612"
    },
    {
      "channel": 4,
      "note": 61,
      "start": 9.3925,
      "duration": 0.0548,
      "velocity": 94,
      "chip": "ym2612"
    },
    {
      "channel": 0,
      "note": 63,
      "start": 9.4544,
      "duration": 0.0419,
      "velocity": 110,
      "chip": "ym2612"
    },
    {
      "channel": 1,
      "note": 63,
      "start": 9.4557,
      "duration": 0.0193,
      "velocity": 103,
      "chip": "ym2612"
    },
    {
      "channel": 3,
      "note": 63,
      "start": 9.4582,
      "duration": 0.0235,
      "velocity": 119,
      "chip": "ym2612"
    },
    {
      "channel": 4,
      "note": 58,
      "start": 9.4585,
      "duration": 0.0145,
      "velocity": 94,
      "chip": "ym2612"
    },
    {
      "channel": 2,
      "note": 69,
      "start": 9.4816,
      "duration": 0.0253,
      "velocity": 88,
      "chip": "ym2612"
    },
    {
      "channel": 3,
      "note": 58,
      "start": 9.482,
      "duration": 0.0252,
      "velocity": 119,
      "chip": "ym2612"
    },
    {
      "channel": 4,
      "note": 63,
      "start": 9.4831,
      "duration": 0.0167,
      "velocity": 94,
      "chip": "ym2612"
    },
    {
      "channel": 0,
      "note": 58,
      "start": 9.4966,
      "duration": 0.0366,
      "velocity": 110,
      "chip": "ym2612"
    },
    {
      "channel": 1,
      "note": 58,
      "start": 9.497,
      "duration": 0.0207,
      "velocity": 103,
      "chip": "ym2612"
    },
    {
      "channel": 3,
      "note": 59,
      "start": 9.5074,
      "duration": 0.0269,
      "velocity": 119,
      "chip": "ym2612"
    },
    {
      "channel": 4,
      "note": 58,
      "start": 9.521,
      "duration": 0.0246,
      "velocity": 94,
      "chip": "ym2612"
    },
    {
      "channel": 0,
      "note": 64,
      "start": 9.5336,
      "duration": 0.0378,
      "velocity": 110,
      "chip": "ym2612"
    },
    {
      "channel": 1,
      "note": 64,
      "start": 9.5338,
      "duration": 0.0198,
      "velocity": 103,
      "chip": "ym2612"
    },
    {
      "channel": 2,
      "note": 69,
      "start": 9.5342,
      "duration": 0.024,
      "velocity": 88,
      "chip": "ym2612"
    },
    {
      "channel": 3,
      "note": 60,
      "start": 9.5344,
      "duration": 0.0239,
      "velocity": 119,
      "chip": "ym2612"
    },
    {
      "channel": 3,
      "note": 61,
      "start": 9.5584,
      "duration": 0.0136,
      "velocity": 119,
      "chip": "ym2612"
    },
    {
      "channel": 4,
      "note": 64,
      "start": 9.5587,
      "duration": 0.0158,
      "velocity": 94,
      "chip": "ym2612"
    },
    {
      "channel": 0,
      "note": 63,
      "start": 9.5717,
      "duration": 0.0318,
      "velocity": 110,
      "chip": "ym2612"
    },
    {
      "channel": 1,
      "note": 63,
      "start": 9.5719,
      "duration": 0.0193,
      "velocity": 103,
      "chip": "ym2612"
    },
    {
      "channel": 3,
      "note": 60,
      "start": 9.5722,
      "duration": 0.0225,
      "velocity": 119,
      "chip": "ym2612"
    },
    {
      "channel": 2,
      "note": 69,
      "start": 9.5814,
      "duration": 0.0237,
      "velocity": 88,
      "chip": "ym2612"
    },
    {
      "channel": 3,
      "note": 59,
      "start": 9.595,
      "duration": 0.0368,
      "velocity": 119,
      "chip": "ym2612"
    },
    {
      "channel": 4,
      "note": 63,
      "start": 9.5953,
      "duration": 0.0206,
      "velocity": 94,
      "chip": "ym2612"
    },
    {
      "channel": 0,
      "note": 61,
      "start": 9.6038,
      "duration": 0.0271,
      "velocity": 110,
      "chip": "ym2612"
    },
    {
      "channel": 1,
      "note": 61,
      "start": 9.604,
      "duration": 0.0163,
      "velocity": 103,
      "chip": "ym2612"
    },
    {
      "channel": 0,
      "note": 58,
      "start": 9.6311,
      "duration": 0.0937,
      "velocity": 115,
      "chip": "ym2612"
    },
    {
      "channel": 1,
      "note": 65,
      "start": 9.6313,
      "duration": 0.041,
      "velocity": 103,
      "chip": "ym2612"
    },
    {
      "channel": 2,
      "note": 69,
      "start": 9.6317,
      "duration": 0.0958,
      "velocity": 88,
      "chip": "ym2612"
    },
    {
      "channel": 3,
      "note": 58,
      "start": 9.632,
      "duration": 0.0966,
      "velocity": 119,
      "chip": "ym2612"
    },
    {
      "channel": 4,
      "note": 61,
      "start": 9.6322,
      "duration": 0.0403,
      "velocity": 94,
      "chip": "ym2612"
    },
    {
      "channel": 0,
      "note": 51,
      "start": 9.7251,
      "duration": 0.0164,
      "velocity": 115,
      "chip": "ym2612"
    },
    {
      "channel": 1,
      "note": 45,
      "start": 9.7264,
      "duration": 0.2462,
      "velocity": 108,
      "chip": "ym2612"
    },
    {
      "channel": 3,
      "note": 63,
      "start": 9.7287,
      "duration": 0.0254,
      "velocity": 119,
      "chip": "ym2612"
    },
    {
      "channel": 4,
      "note": 65,
      "start": 9.7289,
      "duration": 0.0155,
      "velocity": 94,
      "chip": "ym2612"
    },
    {
      "channel": 0,
      "note": 51,
      "start": 9.7441,
      "duration": 0.0049,
      "velocity": 115,
      "chip": "ym2612"
    },
    {
      "channel": 0,
      "note": 51,
      "start": 9.7534,
      "duration": 0.0155,
      "velocity": 115,
      "chip": "ym2612"
    },
    {
      "channel": 2,
      "note": 69,
      "start": 9.754,
      "duration": 0.0277,
      "velocity": 88,
      "chip": "ym2612"
    },
    {
      "channel": 3,
      "note": 58,
      "start": 9.7542,
      "duration": 0.0275,
      "velocity": 119,
      "chip": "ym2612"
    },
    {
      "channel": 4,
      "note": 45,
      "start": 9.7554,
      "duration": 0.2439,
      "velocity": 108,
      "chip": "ym2612"
    },
    {
      "channel": 0,
      "note": 51,
      "start": 9.7705,
      "duration": 0.0067,
      "velocity": 115,
      "chip": "ym2612"
    },
    {
      "channel": 0,
      "note": 51,
      "start": 9.7802,
      "duration": 0.0148,
      "velocity": 115,
      "chip": "ym2612"
    },
    {
      "channel": 3,
      "note": 59,
      "start": 9.782,
      "duration": 0.0247,
      "velocity": 119,
      "chip": "ym2612"
    },
    {
      "channel": 0,
      "note": 51,
      "start": 9.7979,
      "duration": 0.0049,
      "velocity": 115,
      "chip": "ym2612"
    },
    {
      "channel": 0,
      "note": 51,
      "start": 9.8061,
      "duration": 0.0155,
      "velocity": 115,
      "chip": "ym2612"
    },
    {
      "channel": 2,
      "note": 69,
      "start": 9.8066,
      "duration": 0.0268,
      "velocity": 88,
      "chip": "ym2612"
    },
    {
      "channel": 3,
      "note": 60,
      "start": 9.8068,
      "duration": 0.0266,
      "velocity": 119,
      "chip": "ym2612"
    },
    {
      "channel": 0,
      "note": 51,
      "start": 9.8231,
      "duration": 0.0061,
      "velocity": 115,
      "chip": "ym2612"
    },
    {
      "channel": 0,
      "note": 51,
      "start": 9.8322,
      "duration": 0.0129,
      "velocity": 115,
      "chip": "ym2612"
    },
    {
      "channel": 3,
      "note": 61,
      "start": 9.8336,
      "duration": 0.0156,
      "velocity": 119,
      "chip": "ym2612"
    },
    {
      "channel": 0,
      "note": 51,
      "start": 9.849,
      "duration": 0.0052,
      "velocity": 115,
      "chip": "ym2612"
    },
    {
      "channel": 3,
      "note": 60,
      "start": 9.8494,
      "duration": 0.0246,
      "velocity": 119,
      "chip": "ym2612"
    },
    {
      "channel": 0,
      "note": 51,
      "start": 9.8561,
      "duration": 0.0159,
      "velocity": 115,
      "chip": "ym2612"
    },
    {
      "channel": 2,
      "note": 69,
      "start": 9.8568,
      "duration": 0.0284,
      "velocity": 88,
      "chip": "ym2612"
    },
    {
      "channel": 0,
      "note": 51,
      "start": 9.8737,
      "duration": 0.0056,
      "velocity": 115,
      "chip": "ym2612"
    },
    {
      "channel": 3,
      "note": 59,
      "start": 9.8742,
      "duration": 0.0335,
      "velocity": 119,
      "chip": "ym2612"
    },
    {
      "channel": 0,
      "note": 51,
      "start": 9.8837,
      "duration": 0.0145,
      "velocity": 115,
      "chip": "ym2612"
    },
    {
      "channel": 0,
      "note": 51,
      "start": 9.8996,
      "duration": 0.0061,
      "velocity": 115,
      "chip": "ym2612"
    },
    {
      "channel": 0,
      "note": 51,
      "start": 9.9072,
      "duration": 0.0215,
      "velocity": 115,
      "chip": "ym2612"
    },
    {
      "channel": 2,
      "note": 69,
      "start": 9.9076,
      "duration": 0.0662,
      "velocity": 108,
      "chip": "ym2612"
    },
    {
      "channel": 3,
      "note": 58,
      "start": 9.9078,
      "duration": 0.0672,
      "velocity": 119,
      "chip": "ym2612"
    },
    {
      "channel": 0,
      "note": 51,
      "start": 9.9627,
      "duration": 0.0055,
      "velocity": 115,
      "chip": "ym2612"
    },
    {
      "channel": 0,
      "note": 51,
      "start": 9.9724,
      "duration": 0.0162,
      "velocity": 115,
      "chip": "ym2612"
    },
    {
      "channel": 1,
      "note": 58,
      "start": 9.9727,
      "duration": 83.8607,
      "velocity": 108,
      "chip": "ym2612"
    },
    {
      "channel": 2,
      "note": 45,
      "start": 9.974,
      "duration": 83.8593,
      "velocity": 108,
      "chip": "ym2612"
    },
    {
      "channel": 3,
      "note": 63,
      "start": 9.9752,
      "duration": 0.0238,
      "velocity": 119,
      "chip": "ym2612"
    },
    {
      "channel": 0,
      "note": 51,
      "start": 9.9901,
      "duration": 0.007,
      "velocity": 115,
      "chip": "ym2612"
    },
    {
      "channel": 0,
      "note": 51,
      "start": 9.9987,
      "duration": 0.0132,
      "velocity": 115,
      "chip": "ym2612"
    },
    {
      "channel": 3,
      "note": 58,
      "start": 9.9991,
      "duration": 0.0248,
      "velocity": 119,
      "chip": "ym2612"
    },
    {
      "channel": 4,
      "note": 58,
      "start": 9.9993,
      "duration": 83.834,
      "velocity": 108,
      "chip": "ym2612"
    },
    {
      "channel": 0,
      "note": 51,
      "start": 10.0146,
      "duration": 0.0051,
      "velocity": 115,
      "chip": "ym2612"
    },
    {
      "channel": 0,
      "note": 51,
      "start": 10.0235,
      "duration": 0.0134,
      "velocity": 115,
      "chip": "ym2612"
    },
    {
      "channel": 3,
      "note": 59,
      "start": 10.024,
      "duration": 0.0244,
      "velocity": 119,
      "chip": "ym2612"
    },
    {
      "channel": 0,
      "note": 51,
      "start": 10.0383,
      "duration": 0.0065,
      "velocity": 115,
      "chip": "ym2612"
    },
    {
      "channel": 0,
      "note": 51,
      "start": 10.0481,
      "duration": 0.0131,
      "velocity": 115,
      "chip": "ym2612"
    },
    {
      "channel": 3,
      "note": 60,
      "start": 10.0486,
      "duration": 0.0246,
      "velocity": 119,
      "chip": "ym2612"
    },
    {
      "channel": 0,
      "note": 51,
      "start": 10.064,
      "duration": 0.0056,
      "velocity": 115,
      "chip": "ym2612"
    },
    {
      "channel": 0,
      "note": 51,
      "start": 10.0729,
      "duration": 0.0126,
      "velocity": 115,
      "chip": "ym2612"
    },
    {
      "channel": 3,
      "note": 61,
      "start": 10.0734,
      "duration": 0.0156,
      "velocity": 119,
      "chip": "ym2612"
    },
    {
      "channel": 0,
      "note": 51,
      "start": 10.0887,
      "duration": 0.0069,
      "velocity": 115,
      "chip": "ym2612"
    },
    {
      "channel": 3,
      "note": 60,
      "start": 10.0893,
      "duration": 0.026,
      "velocity": 119,
      "chip": "ym2612"
    },
    {
      "channel": 0,
      "note": 51,
      "start": 10.099,
      "duration": 0.0131,
      "velocity": 115,
      "chip": "ym2612"
    },
    {
      "channel": 0,
      "note": 51,
      "start": 10.1149,
      "duration": 0.0054,
      "velocity": 115,
      "chip": "ym2612"
    },
    {
      "channel": 3,
      "note": 59,
      "start": 10.1154,
      "duration": 0.0375,
      "velocity": 119,
      "chip": "ym2612"
    },
    {
      "channel": 0,
      "note": 51,
      "start": 10.1244,
      "duration": 0.0161,
      "velocity": 115,
      "chip": "ym2612"
    },
    {
      "channel": 0,
      "note": 51,
      "start": 10.1434,
      "duration": 0.005,
      "velocity": 115,
      "chip": "ym2612"
    },
    {
      "channel": 0,
      "note": 51,
      "start": 10.1525,
      "duration": 0.0217,
      "velocity": 115,
      "chip": "ym2612"
    },
    {
      "channel": 3,
      "note": 58,
      "start": 10.1531,
      "duration": 83.6803,
      "velocity": 119,
      "chip": "ym2612"
    },
    {
      "channel": 0,
      "note": 51,
      "start": 10.2082,
      "duration": 83.6252,
      "velocity": 115,
      "chip": "ym2612"
    }
  ]
}