{
  "track_name": "18 - Battle Victory",
  "duration_sec": 21.206,
  "sample_rate": 44100,
  "note_count": 489,
  "unique_pitches": 52,
  "pitch_range": 92,
  "avg_note_duration": 0.1062,
  "reconstruction_stats": {
    "notes_reconstructed": 489,
    "keyon_events": 489,
    "keyoff_events": 488,
    "orphan_keyons": 1,
    "unique_pitches": 52,
    "pitch_range": 92,
    "avg_duration_sec": 0.1062
  },
  "metadata": {
    "source": "M\\Mega Bomberman\\18 - Battle Victory.vgz"
  },
  "notes": [
    {
      "channel": 0,
      "note": 46,
      "start": 0.0,
      "duration": 0.0,
      "velocity": 101,
      "chip": "ym2612"
    },
    {
      "channel": 0,
      "note": 34,
      "start": 0.0,
      "duration": 0.0,
      "velocity": 101,
      "chip": "ym2612"
    },
    {
      "channel": 0,
      "note": 46,
      "start": 0.0,
      "duration": 0.0,
      "velocity": 101,
      "chip": "ym2612"
    },
    {
      "channel": 0,
      "note": 46,
      "start": 0.0,
      "duration": 0.0,
      "velocity": 101,
      "chip": "ym2612"
    },
    {
      "channel": 0,
      "note": 34,
      "start": 0.0,
      "duration": 0.0,
      "velocity": 101,
      "chip": "ym2612"
    },
    {
      "channel": 0,
      "note": 46,
      "start": 0.0,
      "duration": 0.0,
      "velocity": 101,
      "chip": "ym2612"
    },
    {
      "channel": 0,
      "note": 46,
      "start": 0.0,
      "duration": 0.0,
      "velocity": 101,
      "chip": "ym2612"
    },
    {
      "channel": 0,
      "note": 34,
      "start": 0.0,
      "duration": 0.0,
      "velocity": 101,
      "chip": "ym2612"
    },
    {
      "channel": 0,
      "note": 46,
      "start": 0.0,
      "duration": 0.0,
      "velocity": 101,
      "chip": "ym2612"
    },
    {
      "channel": 0,
      "note": 46,
      "start": 0.0,
      "duration": 0.0,
      "velocity": 101,
      "chip": "ym2612"
    },
    {
      "channel": 0,
      "note": 34,
      "start": 0.0,
      "duration": 0.0,
      "velocity": 101,
      "chip": "ym2612"
    },
    {
      "channel": 0,
      "note": 46,
      "start": 0.0,
      "duration": 0.0,
      "velocity": 101,
      "chip": "ym2612"
    },
    {
      "channel": 1,
      "note": 93,
      "start": 0.0,
      "duration": 0.0,
      "velocity": 91,
      "chip": "ym2612"
    },
    {
      "channel": 1,
      "note": 93,
      "start": 0.0,
      "duration": 0.0,
      "velocity": 91,
      "chip": "ym2612"
    },
    {
      "channel": 1,
      "note": 93,
      "start": 0.0,
      "duration": 0.0,
      "velocity": 91,
      "chip": "ym2612"
    },
    {
      "channel": 1,
      "note": 93,
      "start": 0.0,
      "duration": 0.0,
      "velocity": 91,
      "chip": "ym2612"
    },
    {
      "channel": 1,
      "note": 93,
      "start": 0.0,
      "duration": 0.0,
      "velocity": 91,
      "chip": "ym2612"
    },
    {
      "channel": 1,
      "note": 93,
      "start": 0.0,
      "duration": 0.0,
      "velocity": 91,
      "chip": "ym2612"
    },
    {
      "channel": 1,
      "note": 93,
      "start": 0.0,
      "duration": 0.0,
      "velocity": 91,
      "chip": "ym2612"
    },
    {
      "channel": 1,
      "note": 93,
      "start": 0.0,
      "duration": 0.0,
      "velocity": 91,
      "chip": "ym2612"
    },
    {
      "channel": 2,
      "note": 74,
      "start": 0.0,
      "duration": 0.0,
      "velocity": 127,
      "chip": "ym2612"
    },
    {
      "channel": 2,
      "note": 74,
      "start": 0.0,
      "duration": 0.0,
      "velocity": 127,
      "chip": "ym2612"
    },
    {
      "channel": 2,
      "note": 74,
      "start": 0.0,
      "duration": 0.0,
      "velocity": 127,
      "chip": "ym2612"
    },
    {
      "channel": 2,
      "note": 74,
      "start": 0.0,
      "duration": 0.0,
      "velocity": 127,
      "chip": "ym2612"
    },
    {
      "channel": 2,
      "note": 74,
      "start": 0.0,
      "duration": 0.0,
      "velocity": 127,
      "chip": "ym2612"
    },
    {
      "channel": 2,
      "note": 74,
      "start": 0.0,
      "duration": 0.0,
      "velocity": 127,
      "chip": "ym2612"
    },
    {
      "channel": 2,
      "note": 74,
      "start": 0.0,
      "duration": 0.0,
      "velocity": 127,
      "chip": "ym2612"
    },
    {
      "channel": 2,
      "note": 74,
      "start": 0.0,
      "duration": 0.0,
      "velocity": 127,
      "chip": "ym2612"
    },
    {
      "channel": 2,
      "note": 74,
      "start": 0.0,
      "duration": 0.0,
      "velocity": 127,
      "chip": "ym2612"
    },
    {
      "channel": 2,
      "note": 74,
      "start": 0.0,
      "duration": 0.0,
      "velocity": 127,
      "chip": "ym2612"
    },
    {
      "channel": 2,
      "note": 74,
      "start": 0.0,
      "duration": 0.0,
      "velocity": 127,
      "chip": "ym2612"
    },
    {
      "channel": 2,
      "note": 74,
      "start": 0.0,
      "duration": 0.0,
      "velocity": 127,
      "chip": "ym2612"
    },
    {
      "channel": 2,
      "note": 74,
      "start": 0.0,
      "duration": 0.0,
      "velocity": 127,
      "chip": "ym2612"
    },
    {
      "channel": 2,
      "note": 74,
      "start": 0.0,
      "duration": 0.0,
      "velocity": 127,
      "chip": "ym2612"
    },
    {
      "channel": 2,
      "note": 74,
      "start": 0.0,
      "duration": 0.0,
      "velocity": 127,
      "chip": "ym2612"
    },
    {
      "channel": 3,
      "note": 86,
      "start": 0.0,
      "duration": 0.0,
      "velocity": 91,
      "chip": "ym2612"
    },
    {
      "channel": 3,
      "note": 86,
      "start": 0.0,
      "duration": 0.0,
      "velocity": 91,
      "chip": "ym2612"
    },
    {
      "channel": 3,
      "note": 86,
      "start": 0.0,
      "duration": 0.0,
      "velocity": 91,
      "chip": "ym2612"
    },
    {
      "channel": 3,
      "note": 86,
      "start": 0.0,
      "duration": 0.0,
      "velocity": 91,
      "chip": "ym2612"
    },
    {
      "channel": 3,
      "note": 86,
      "start": 0.0,
      "duration": 0.0,
      "velocity": 91,
      "chip": "ym2612"
    },
    {
      "channel": 3,
      "note": 86,
      "start": 0.0,
      "duration": 0.0,
      "velocity": 91,
      "chip": "ym2612"
    },
    {
      "channel": 3,
      "note": 86,
      "start": 0.0,
      "duration": 0.0,
      "velocity": 91,
      "chip": "ym2612"
    },
    {
      "channel": 3,
      "note": 86,
      "start": 0.0,
      "duration": 0.0,
      "velocity": 91,
      "chip": "ym2612"
    },
    {
      "channel": 3,
      "note": 86,
      "start": 0.0,
      "duration": 0.0567,
      "velocity": 89,
      "chip": "ym2612"
    },
    {
      "channel": 4,
      "note": 89,
      "start": 0.0,
      "duration": 0.0,
      "velocity": 91,
      "chip": "ym2612"
    },
    {
      "channel": 4,
      "note": 89,
      "start": 0.0,
      "duration": 0.0,
      "velocity": 91,
      "chip": "ym2612"
    },
    {
      "channel": 4,
      "note": 89,
      "start": 0.0,
      "duration": 0.0,
      "velocity": 91,
      "chip": "ym2612"
    },
    {
      "channel": 4,
      "note": 89,
      "start": 0.0,
      "duration": 0.0,
      "velocity": 91,
      "chip": "ym2612"
    },
    {
      "channel": 4,
      "note": 89,
      "start": 0.0,
      "duration": 0.0,
      "velocity": 91,
      "chip": "ym2612"
    },
    {
      "channel": 4,
      "note": 89,
      "start": 0.0,
      "duration": 0.0,
      "velocity": 91,
      "chip": "ym2612"
    },
    {
      "channel": 4,
      "note": 89,
      "start": 0.0,
      "duration": 0.0,
      "velocity": 91,
      "chip": "ym2612"
    },
    {
      "channel": 4,
      "note": 89,
      "start": 0.0,
      "duration": 0.0,
      "velocity": 91,
      "chip": "ym2612"
    },
    {
      "channel": 5,
      "note": 25,
      "start": 0.0,
      "duration": 0.0,
      "velocity": 127,
      "chip": "ym2612"
    },
    {
      "channel": 5,
      "note": 25,
      "start": 0.0,
      "duration": 0.0,
      "velocity": 127,
      "chip": "ym2612"
    },
    {
      "channel": 5,
      "note": 25,
      "start": 0.0,
      "duration": 0.0,
      "velocity": 127,
      "chip": "ym2612"
    },
    {
      "channel": 5,
      "note": 42,
      "start": 0.0,
      "duration": 0.0,
      "velocity": 127,
      "chip": "ym2612"
    },
    {
      "channel": 5,
      "note": 25,
      "start": 0.0,
      "duration": 0.0,
      "velocity": 127,
      "chip": "ym2612"
    },
    {
      "channel": 5,
      "note": 25,
      "start": 0.0,
      "duration": 0.0,
      "velocity": 127,
      "chip": "ym2612"
    },
    {
      "channel": 5,
      "note": 25,
      "start": 0.0,
      "duration": 0.0,
      "velocity": 127,
      "chip": "ym2612"
    },
    {
      "channel": 5,
      "note": 25,
      "start": 0.0,
      "duration": 0.0,
      "velocity": 127,
      "chip": "ym2612"
    },
    {
      "channel": 5,
      "note": 42,
      "start": 0.0,
      "duration": 0.0,
      "velocity": 127,
      "chip": "ym2612"
    },
    {
      "channel": 1,
      "note": 93,
      "start": 0.0644,
      "duration": 0.0615,
      "velocity": 89,
      "chip": "ym2612"
    },
    {
      "channel": 4,
      "note": 89,
      "start": 0.1335,
      "duration": 0.0615,
      "velocity": 89,
      "chip": "ym2612"
    },
    {
      "channel": 3,
      "note": 40,
      "start": 0.2005,
      "duration": 0.0621,
      "velocity": 89,
      "chip": "ym2612"
    },
    {
      "channel": 1,
      "note": 40,
      "start": 0.2696,
      "duration": 0.062,
      "velocity": 89,
      "chip": "ym2612"
    },
    {
      "channel": 4,
      "note": 40,
      "start": 0.3394,
      "duration": 0.0617,
      "velocity": 89,
      "chip": "ym2612"
    },
    {
      "channel": 3,
      "note": 40,
      "start": 0.3893,
      "duration": 0.0619,
      "velocity": 89,
      "chip": "ym2612"
    },
    {
      "channel": 1,
      "note": 40,
      "start": 0.4583,
      "duration": 0.0621,
      "velocity": 89,
      "chip": "ym2612"
    },
    {
      "channel": 4,
      "note": 40,
      "start": 0.5274,
      "duration": 0.0622,
      "velocity": 89,
      "chip": "ym2612"
    },
    {
      "channel": 3,
      "note": 40,
      "start": 0.595,
      "duration": 0.0621,
      "velocity": 89,
      "chip": "ym2612"
    },
    {
      "channel": 1,
      "note": 40,
      "start": 0.6641,
      "duration": 0.0621,
      "velocity": 89,
      "chip": "ym2612"
    },
    {
      "channel": 4,
      "note": 40,
      "start": 0.7333,
      "duration": 0.062,
      "velocity": 89,
      "chip": "ym2612"
    },
    {
      "channel": 3,
      "note": 40,
      "start": 0.8008,
      "duration": 0.0621,
      "velocity": 89,
      "chip": "ym2612"
    },
    {
      "channel": 1,
      "note": 40,
      "start": 0.8528,
      "duration": 0.0621,
      "velocity": 89,
      "chip": "ym2612"
    },
    {
      "channel": 4,
      "note": 40,
      "start": 0.9226,
      "duration": 0.0615,
      "velocity": 89,
      "chip": "ym2612"
    },
    {
      "channel": 3,
      "note": 40,
      "start": 0.9896,
      "duration": 0.062,
      "velocity": 89,
      "chip": "ym2612"
    },
    {
      "channel": 1,
      "note": 40,
      "start": 1.0587,
      "duration": 0.062,
      "velocity": 89,
      "chip": "ym2612"
    },
    {
      "channel": 4,
      "note": 40,
      "start": 1.1278,
      "duration": 0.0621,
      "velocity": 89,
      "chip": "ym2612"
    },
    {
      "channel": 3,
      "note": 40,
      "start": 1.1954,
      "duration": 0.062,
      "velocity": 89,
      "chip": "ym2612"
    },
    {
      "channel": 1,
      "note": 40,
      "start": 1.2474,
      "duration": 0.0621,
      "velocity": 89,
      "chip": "ym2612"
    },
    {
      "channel": 4,
      "note": 40,
      "start": 1.3166,
      "duration": 0.0621,
      "velocity": 89,
      "chip": "ym2612"
    },
    {
      "channel": 3,
      "note": 40,
      "start": 1.3841,
      "duration": 0.0621,
      "velocity": 89,
      "chip": "ym2612"
    },
    {
      "channel": 1,
      "note": 40,
      "start": 1.4532,
      "duration": 0.062,
      "velocity": 89,
      "chip": "ym2612"
    },
    {
      "channel": 4,
      "note": 40,
      "start": 1.523,
      "duration": 0.0614,
      "velocity": 89,
      "chip": "ym2612"
    },
    {
      "channel": 0,
      "note": 46,
      "start": 1.5919,
      "duration": 0.1845,
      "velocity": 102,
      "chip": "ym2612"
    },
    {
      "channel": 2,
      "note": 74,
      "start": 1.5962,
      "duration": 0.2001,
      "velocity": 109,
      "chip": "ym2612"
    },
    {
      "channel": 5,
      "note": 42,
      "start": 1.5988,
      "duration": 0.0906,
      "velocity": 89,
      "chip": "ym2612"
    },
    {
      "channel": 0,
      "note": 45,
      "start": 1.7824,
      "duration": 0.0926,
      "velocity": 99,
      "chip": "ym2612"
    },
    {
      "channel": 3,
      "note": 40,
      "start": 1.7852,
      "duration": 0.0899,
      "velocity": 99,
      "chip": "ym2612"
    },
    {
      "channel": 1,
      "note": 40,
      "start": 1.7887,
      "duration": 0.0866,
      "velocity": 99,
      "chip": "ym2612"
    },
    {
      "channel": 5,
      "note": 26,
      "start": 1.7924,
      "duration": 0.0629,
      "velocity": 127,
      "chip": "ym2612"
    },
    {
      "channel": 0,
      "note": 85,
      "start": 1.8901,
      "duration": 0.0936,
      "velocity": 99,
      "chip": "ym2612"
    },
    {
      "channel": 3,
      "note": 81,
      "start": 1.8919,
      "duration": 0.0919,
      "velocity": 99,
      "chip": "ym2612"
    },
    {
      "channel": 1,
      "note": 76,
      "start": 1.8937,
      "duration": 0.0903,
      "velocity": 99,
      "chip": "ym2612"
    },
    {
      "channel": 5,
      "note": 42,
      "start": 1.8964,
      "duration": 0.0613,
      "velocity": 127,
      "chip": "ym2612"
    },
    {
      "channel": 0,
      "note": 85,
      "start": 1.992,
      "duration": 0.0889,
      "velocity": 99,
      "chip": "ym2612"
    },
    {
      "channel": 3,
      "note": 81,
      "start": 1.9938,
      "duration": 0.0872,
      "velocity": 99,
      "chip": "ym2612"
    },
    {
      "channel": 1,
      "note": 76,
      "start": 1.9956,
      "duration": 0.0856,
      "velocity": 99,
      "chip": "ym2612"
    },
    {
      "channel": 5,
      "note": 42,
      "start": 1.9983,
      "duration": 0.1365,
      "velocity": 127,
      "chip": "ym2612"
    },
    {
      "channel": 0,
      "note": 85,
      "start": 2.181,
      "duration": 0.0885,
      "velocity": 99,
      "chip": "ym2612"
    },
    {
      "channel": 3,
      "note": 81,
      "start": 2.1828,
      "duration": 0.0869,
      "velocity": 99,
      "chip": "ym2612"
    },
    {
      "channel": 1,
      "note": 76,
      "start": 2.1846,
      "duration": 0.0852,
      "velocity": 99,
      "chip": "ym2612"
    },
    {
      "channel": 5,
      "note": 42,
      "start": 2.1874,
      "duration": 0.1368,
      "velocity": 127,
      "chip": "ym2612"
    },
    {
      "channel": 0,
      "note": 85,
      "start": 2.3861,
      "duration": 0.1857,
      "velocity": 102,
      "chip": "ym2612"
    },
    {
      "channel": 5,
      "note": 42,
      "start": 2.3914,
      "duration": 0.0865,
      "velocity": 89,
      "chip": "ym2612"
    },
    {
      "channel": 0,
      "note": 44,
      "start": 2.5779,
      "duration": 0.0919,
      "velocity": 99,
      "chip": "ym2612"
    },
    {
      "channel": 3,
      "note": 81,
      "start": 2.5796,
      "duration": 0.0903,
      "velocity": 99,
      "chip": "ym2612"
    },
    {
      "channel": 1,
      "note": 76,
      "start": 2.5814,
      "duration": 0.0887,
      "velocity": 99,
      "chip": "ym2612"
    },
    {
      "channel": 2,
      "note": 89,
      "start": 2.5847,
      "duration": 0.139,
      "velocity": 127,
      "chip": "ym2612"
    },
    {
      "channel": 0,
      "note": 84,
      "start": 2.7865,
      "duration": 0.1859,
      "velocity": 102,
      "chip": "ym2612"
    },
    {
      "channel": 5,
      "note": 26,
      "start": 2.791,
      "duration": 0.0871,
      "velocity": 89,
      "chip": "ym2612"
    },
    {
      "channel": 0,
      "note": 40,
      "start": 2.9783,
      "duration": 0.0918,
      "velocity": 99,
      "chip": "ym2612"
    },
    {
      "channel": 3,
      "note": 80,
      "start": 2.9802,
      "duration": 0.0901,
      "velocity": 99,
      "chip": "ym2612"
    },
    {
      "channel": 1,
      "note": 75,
      "start": 2.9819,
      "duration": 0.0885,
      "velocity": 99,
      "chip": "ym2612"
    },
    {
      "channel": 2,
      "note": 42,
      "start": 2.9842,
      "duration": 0.1396,
      "velocity": 127,
      "chip": "ym2612"
    },
    {
      "channel": 0,
      "note": 86,
      "start": 3.1899,
      "duration": 0.1877,
      "velocity": 102,
      "chip": "ym2612"
    },
    {
      "channel": 2,
      "note": 42,
      "start": 3.1942,
      "duration": 0.2012,
      "velocity": 109,
      "chip": "ym2612"
    },
    {
      "channel": 5,
      "note": 26,
      "start": 3.1959,
      "duration": 0.0882,
      "velocity": 89,
      "chip": "ym2612"
    },
    {
      "channel": 0,
      "note": 45,
      "start": 3.3837,
      "duration": 0.0924,
      "velocity": 99,
      "chip": "ym2612"
    },
    {
      "channel": 3,
      "note": 82,
      "start": 3.3854,
      "duration": 0.0908,
      "velocity": 99,
      "chip": "ym2612"
    },
    {
      "channel": 1,
      "note": 77,
      "start": 3.3872,
      "duration": 0.0892,
      "velocity": 99,
      "chip": "ym2612"
    },
    {
      "channel": 5,
      "note": 26,
      "start": 3.3915,
      "duration": 0.0648,
      "velocity": 127,
      "chip": "ym2612"
    },
    {
      "channel": 0,
      "note": 85,
      "start": 3.4912,
      "duration": 0.0936,
      "velocity": 99,
      "chip": "ym2612"
    },
    {
      "channel": 3,
      "note": 81,
      "start": 3.4929,
      "duration": 0.0919,
      "velocity": 99,
      "chip": "ym2612"
    },
    {
      "channel": 1,
      "note": 76,
      "start": 3.4947,
      "duration": 0.0903,
      "velocity": 99,
      "chip": "ym2612"
    },
    {
      "channel": 5,
      "note": 42,
      "start": 3.4975,
      "duration": 0.0611,
      "velocity": 127,
      "chip": "ym2612"
    },
    {
      "channel": 0,
      "note": 85,
      "start": 3.5933,
      "duration": 0.0887,
      "velocity": 99,
      "chip": "ym2612"
    },
    {
      "channel": 3,
      "note": 81,
      "start": 3.595,
      "duration": 0.087,
      "velocity": 99,
      "chip": "ym2612"
    },
    {
      "channel": 1,
      "note": 76,
      "start": 3.5968,
      "duration": 0.0854,
      "velocity": 99,
      "chip": "ym2612"
    },
    {
      "channel": 5,
      "note": 42,
      "start": 3.5996,
      "duration": 0.1363,
      "velocity": 127,
      "chip": "ym2612"
    },
    {
      "channel": 0,
      "note": 85,
      "start": 3.7821,
      "duration": 0.0885,
      "velocity": 99,
      "chip": "ym2612"
    },
    {
      "channel": 3,
      "note": 81,
      "start": 3.7839,
      "duration": 0.0869,
      "velocity": 99,
      "chip": "ym2612"
    },
    {
      "channel": 1,
      "note": 76,
      "start": 3.7857,
      "duration": 0.0859,
      "velocity": 99,
      "chip": "ym2612"
    },
    {
      "channel": 5,
      "note": 42,
      "start": 3.7891,
      "duration": 0.1355,
      "velocity": 127,
      "chip": "ym2612"
    },
    {
      "channel": 0,
      "note": 85,
      "start": 3.9871,
      "duration": 0.1858,
      "velocity": 102,
      "chip": "ym2612"
    },
    {
      "channel": 5,
      "note": 42,
      "start": 3.9924,
      "duration": 0.0865,
      "velocity": 89,
      "chip": "ym2612"
    },
    {
      "channel": 0,
      "note": 44,
      "start": 4.179,
      "duration": 0.0976,
      "velocity": 99,
      "chip": "ym2612"
    },
    {
      "channel": 3,
      "note": 81,
      "start": 4.1807,
      "duration": 0.0961,
      "velocity": 99,
      "chip": "ym2612"
    },
    {
      "channel": 1,
      "note": 76,
      "start": 4.1825,
      "duration": 0.0944,
      "velocity": 99,
      "chip": "ym2612"
    },
    {
      "channel": 2,
      "note": 89,
      "start": 4.1858,
      "duration": 0.1387,
      "velocity": 127,
      "chip": "ym2612"
    },
    {
      "channel": 0,
      "note": 84,
      "start": 4.3878,
      "duration": 0.1854,
      "velocity": 102,
      "chip": "ym2612"
    },
    {
      "channel": 5,
      "note": 26,
      "start": 4.3919,
      "duration": 0.0873,
      "velocity": 89,
      "chip": "ym2612"
    },
    {
      "channel": 0,
      "note": 40,
      "start": 4.5792,
      "duration": 0.0977,
      "velocity": 99,
      "chip": "ym2612"
    },
    {
      "channel": 3,
      "note": 80,
      "start": 4.581,
      "duration": 0.096,
      "velocity": 99,
      "chip": "ym2612"
    },
    {
      "channel": 1,
      "note": 75,
      "start": 4.5828,
      "duration": 0.0944,
      "velocity": 99,
      "chip": "ym2612"
    },
    {
      "channel": 2,
      "note": 42,
      "start": 4.5851,
      "duration": 0.1395,
      "velocity": 127,
      "chip": "ym2612"
    },
    {
      "channel": 4,
      "note": 40,
      "start": 4.7922,
      "duration": 0.3894,
      "velocity": 89,
      "chip": "ym2612"
    },
    {
      "channel": 2,
      "note": 42,
      "start": 4.7952,
      "duration": 0.1931,
      "velocity": 109,
      "chip": "ym2612"
    },
    {
      "channel": 5,
      "note": 26,
      "start": 4.7969,
      "duration": 0.0941,
      "velocity": 89,
      "chip": "ym2612"
    },
    {
      "channel": 5,
      "note": 26,
      "start": 4.9842,
      "duration": 0.1413,
      "velocity": 127,
      "chip": "ym2612"
    },
    {
      "channel": 3,
      "note": 82,
      "start": 5.1898,
      "duration": 0.3854,
      "velocity": 89,
      "chip": "ym2612"
    },
    {
      "channel": 2,
      "note": 89,
      "start": 5.1926,
      "duration": 0.1896,
      "velocity": 109,
      "chip": "ym2612"
    },
    {
      "channel": 5,
      "note": 42,
      "start": 5.195,
      "duration": 0.0905,
      "velocity": 89,
      "chip": "ym2612"
    },
    {
      "channel": 5,
      "note": 26,
      "start": 5.3788,
      "duration": 0.1418,
      "velocity": 127,
      "chip": "ym2612"
    },
    {
      "channel": 1,
      "note": 77,
      "start": 5.5842,
      "duration": 0.386,
      "velocity": 89,
      "chip": "ym2612"
    },
    {
      "channel": 2,
      "note": 89,
      "start": 5.5866,
      "duration": 0.1909,
      "velocity": 109,
      "chip": "ym2612"
    },
    {
      "channel": 5,
      "note": 42,
      "start": 5.5896,
      "duration": 0.0906,
      "velocity": 89,
      "chip": "ym2612"
    },
    {
      "channel": 5,
      "note": 26,
      "start": 5.774,
      "duration": 0.0671,
      "velocity": 127,
      "chip": "ym2612"
    },
    {
      "channel": 5,
      "note": 42,
      "start": 5.8754,
      "duration": 0.068,
      "velocity": 127,
      "chip": "ym2612"
    },
    {
      "channel": 5,
      "note": 42,
      "start": 5.9783,
      "duration": 0.1427,
      "velocity": 127,
      "chip": "ym2612"
    },
    {
      "channel": 5,
      "note": 42,
      "start": 6.167,
      "duration": 0.1423,
      "velocity": 127,
      "chip": "ym2612"
    },
    {
      "channel": 4,
      "note": 45,
      "start": 6.3754,
      "duration": 0.1983,
      "velocity": 89,
      "chip": "ym2612"
    },
    {
      "channel": 2,
      "note": 89,
      "start": 6.3772,
      "duration": 0.1968,
      "velocity": 109,
      "chip": "ym2612"
    },
    {
      "channel": 5,
      "note": 42,
      "start": 6.3796,
      "duration": 0.0955,
      "velocity": 89,
      "chip": "ym2612"
    },
    {
      "channel": 3,
      "note": 45,
      "start": 6.5658,
      "duration": 0.0958,
      "velocity": 89,
      "chip": "ym2612"
    },
    {
      "channel": 5,
      "note": 26,
      "start": 6.57,
      "duration": 0.0651,
      "velocity": 127,
      "chip": "ym2612"
    },
    {
      "channel": 1,
      "note": 45,
      "start": 6.6688,
      "duration": 0.0907,
      "velocity": 89,
      "chip": "ym2612"
    },
    {
      "channel": 5,
      "note": 42,
      "start": 6.6722,
      "duration": 0.0663,
      "velocity": 127,
      "chip": "ym2612"
    },
    {
      "channel": 4,
      "note": 40,
      "start": 6.7744,
      "duration": 0.1938,
      "velocity": 89,
      "chip": "ym2612"
    },
    {
      "channel": 2,
      "note": 89,
      "start": 6.7761,
      "duration": 0.1922,
      "velocity": 109,
      "chip": "ym2612"
    },
    {
      "channel": 5,
      "note": 42,
      "start": 6.7786,
      "duration": 0.0909,
      "velocity": 89,
      "chip": "ym2612"
    },
    {
      "channel": 3,
      "note": 40,
      "start": 6.961,
      "duration": 0.1923,
      "velocity": 89,
      "chip": "ym2612"
    },
    {
      "channel": 5,
      "note": 26,
      "start": 6.9652,
      "duration": 0.1389,
      "velocity": 127,
      "chip": "ym2612"
    },
    {
      "channel": 1,
      "note": 40,
      "start": 7.1678,
      "duration": 0.3863,
      "velocity": 89,
      "chip": "ym2612"
    },
    {
      "channel": 2,
      "note": 89,
      "start": 7.1701,
      "duration": 0.1915,
      "velocity": 109,
      "chip": "ym2612"
    },
    {
      "channel": 5,
      "note": 42,
      "start": 7.1732,
      "duration": 0.0909,
      "velocity": 89,
      "chip": "ym2612"
    },
    {
      "channel": 5,
      "note": 26,
      "start": 7.3581,
      "duration": 0.0662,
      "velocity": 127,
      "chip": "ym2612"
    },
    {
      "channel": 5,
      "note": 42,
      "start": 7.4593,
      "duration": 0.0683,
      "velocity": 127,
      "chip": "ym2612"
    },
    {
      "channel": 5,
      "note": 42,
      "start": 7.5622,
      "duration": 0.1431,
      "velocity": 127,
      "chip": "ym2612"
    },
    {
      "channel": 5,
      "note": 42,
      "start": 7.7509,
      "duration": 0.1426,
      "velocity": 127,
      "chip": "ym2612"
    },
    {
      "channel": 0,
      "note": 86,
      "start": 7.9594,
      "duration": 0.1867,
      "velocity": 102,
      "chip": "ym2612"
    },
    {
      "channel": 2,
      "note": 89,
      "start": 7.9627,
      "duration": 0.2034,
      "velocity": 109,
      "chip": "ym2612"
    },
    {
      "channel": 5,
      "note": 42,
      "start": 7.9651,
      "duration": 0.088,
      "velocity": 89,
      "chip": "ym2612"
    },
    {
      "channel": 0,
      "note": 45,
      "start": 8.1522,
      "duration": 0.0928,
      "velocity": 99,
      "chip": "ym2612"
    },
    {
      "channel": 3,
      "note": 40,
      "start": 8.1557,
      "duration": 0.0895,
      "velocity": 99,
      "chip": "ym2612"
    },
    {
      "channel": 1,
      "note": 45,
      "start": 8.1585,
      "duration": 0.0868,
      "velocity": 99,
      "chip": "ym2612"
    },
    {
      "channel": 5,
      "note": 26,
      "start": 8.1622,
      "duration": 0.0624,
      "velocity": 127,
      "chip": "ym2612"
    },
    {
      "channel": 0,
      "note": 85,
      "start": 8.26,
      "duration": 0.0936,
      "velocity": 99,
      "chip": "ym2612"
    },
    {
      "channel": 3,
      "note": 81,
      "start": 8.2618,
      "duration": 0.092,
      "velocity": 99,
      "chip": "ym2612"
    },
    {
      "channel": 1,
      "note": 76,
      "start": 8.2636,
      "duration": 0.0903,
      "velocity": 99,
      "chip": "ym2612"
    },
    {
      "channel": 5,
      "note": 42,
      "start": 8.2664,
      "duration": 0.0611,
      "velocity": 127,
      "chip": "ym2612"
    },
    {
      "channel": 0,
      "note": 85,
      "start": 8.3621,
      "duration": 0.0888,
      "velocity": 99,
      "chip": "ym2612"
    },
    {
      "channel": 3,
      "note": 81,
      "start": 8.3639,
      "duration": 0.0871,
      "velocity": 99,
      "chip": "ym2612"
    },
    {
      "channel": 1,
      "note": 76,
      "start": 8.3656,
      "duration": 0.0855,
      "velocity": 99,
      "chip": "ym2612"
    },
    {
      "channel": 5,
      "note": 42,
      "start": 8.3684,
      "duration": 0.1371,
      "velocity": 127,
      "chip": "ym2612"
    },
    {
      "channel": 0,
      "note": 85,
      "start": 8.551,
      "duration": 0.0885,
      "velocity": 99,
      "chip": "ym2612"
    },
    {
      "channel": 3,
      "note": 81,
      "start": 8.5528,
      "duration": 0.0869,
      "velocity": 99,
      "chip": "ym2612"
    },
    {
      "channel": 1,
      "note": 76,
      "start": 8.5552,
      "duration": 0.0846,
      "velocity": 99,
      "chip": "ym2612"
    },
    {
      "channel": 5,
      "note": 42,
      "start": 8.558,
      "duration": 0.1355,
      "velocity": 127,
      "chip": "ym2612"
    },
    {
      "channel": 0,
      "note": 85,
      "start": 8.7567,
      "duration": 0.1852,
      "velocity": 102,
      "chip": "ym2612"
    },
    {
      "channel": 5,
      "note": 42,
      "start": 8.7613,
      "duration": 0.0866,
      "velocity": 89,
      "chip": "ym2612"
    },
    {
      "channel": 0,
      "note": 44,
      "start": 8.9478,
      "duration": 0.092,
      "velocity": 99,
      "chip": "ym2612"
    },
    {
      "channel": 3,
      "note": 81,
      "start": 8.9497,
      "duration": 0.0903,
      "velocity": 99,
      "chip": "ym2612"
    },
    {
      "channel": 1,
      "note": 76,
      "start": 8.9515,
      "duration": 0.0887,
      "velocity": 99,
      "chip": "ym2612"
    },
    {
      "channel": 2,
      "note": 89,
      "start": 8.9554,
      "duration": 0.138,
      "velocity": 127,
      "chip": "ym2612"
    },
    {
      "channel": 0,
      "note": 84,
      "start": 9.1571,
      "duration": 0.185,
      "velocity": 102,
      "chip": "ym2612"
    },
    {
      "channel": 5,
      "note": 26,
      "start": 9.1609,
      "duration": 0.0873,
      "velocity": 89,
      "chip": "ym2612"
    },
    {
      "channel": 0,
      "note": 40,
      "start": 9.3482,
      "duration": 0.0919,
      "velocity": 99,
      "chip": "ym2612"
    },
    {
      "channel": 3,
      "note": 80,
      "start": 9.3499,
      "duration": 0.0903,
      "velocity": 99,
      "chip": "ym2612"
    },
    {
      "channel": 1,
      "note": 75,
      "start": 9.3517,
      "duration": 0.0887,
      "velocity": 99,
      "chip": "ym2612"
    },
    {
      "channel": 2,
      "note": 42,
      "start": 9.354,
      "duration": 0.1396,
      "velocity": 127,
      "chip": "ym2612"
    },
    {
      "channel": 0,
      "note": 86,
      "start": 9.5599,
      "duration": 0.1879,
      "velocity": 102,
      "chip": "ym2612"
    },
    {
      "channel": 2,
      "note": 42,
      "start": 9.5646,
      "duration": 0.2013,
      "velocity": 109,
      "chip": "ym2612"
    },
    {
      "channel": 5,
      "note": 26,
      "start": 9.5663,
      "duration": 0.0882,
      "velocity": 89,
      "chip": "ym2612"
    },
    {
      "channel": 0,
      "note": 45,
      "start": 9.7539,
      "duration": 0.0978,
      "velocity": 99,
      "chip": "ym2612"
    },
    {
      "channel": 3,
      "note": 82,
      "start": 9.7564,
      "duration": 0.0956,
      "velocity": 99,
      "chip": "ym2612"
    },
    {
      "channel": 1,
      "note": 77,
      "start": 9.7581,
      "duration": 0.094,
      "velocity": 99,
      "chip": "ym2612"
    },
    {
      "channel": 5,
      "note": 26,
      "start": 9.762,
      "duration": 0.0637,
      "velocity": 127,
      "chip": "ym2612"
    },
    {
      "channel": 0,
      "note": 85,
      "start": 9.8601,
      "duration": 0.095,
      "velocity": 99,
      "chip": "ym2612"
    },
    {
      "channel": 3,
      "note": 81,
      "start": 9.8619,
      "duration": 0.0934,
      "velocity": 99,
      "chip": "ym2612"
    },
    {
      "channel": 1,
      "note": 76,
      "start": 9.8637,
      "duration": 0.0917,
      "velocity": 99,
      "chip": "ym2612"
    },
    {
      "channel": 5,
      "note": 42,
      "start": 9.8664,
      "duration": 0.0622,
      "velocity": 127,
      "chip": "ym2612"
    },
    {
      "channel": 0,
      "note": 85,
      "start": 9.9629,
      "duration": 0.089,
      "velocity": 99,
      "chip": "ym2612"
    },
    {
      "channel": 3,
      "note": 81,
      "start": 9.9646,
      "duration": 0.0875,
      "velocity": 99,
      "chip": "ym2612"
    },
    {
      "channel": 1,
      "note": 76,
      "start": 9.9664,
      "duration": 0.0858,
      "velocity": 99,
      "chip": "ym2612"
    },
    {
      "channel": 5,
      "note": 42,
      "start": 9.9692,
      "duration": 0.1373,
      "velocity": 127,
      "chip": "ym2612"
    },
    {
      "channel": 0,
      "note": 85,
      "start": 10.1523,
      "duration": 0.094,
      "velocity": 99,
      "chip": "ym2612"
    },
    {
      "channel": 3,
      "note": 81,
      "start": 10.1541,
      "duration": 0.0924,
      "velocity": 99,
      "chip": "ym2612"
    },
    {
      "channel": 1,
      "note": 76,
      "start": 10.1565,
      "duration": 0.0901,
      "velocity": 99,
      "chip": "ym2612"
    },
    {
      "channel": 5,
      "note": 42,
      "start": 10.1593,
      "duration": 0.1353,
      "velocity": 127,
      "chip": "ym2612"
    },
    {
      "channel": 0,
      "note": 85,
      "start": 10.3578,
      "duration": 0.185,
      "velocity": 102,
      "chip": "ym2612"
    },
    {
      "channel": 5,
      "note": 42,
      "start": 10.3624,
      "duration": 0.0929,
      "velocity": 89,
      "chip": "ym2612"
    },
    {
      "channel": 0,
      "note": 44,
      "start": 10.5487,
      "duration": 0.0979,
      "velocity": 99,
      "chip": "ym2612"
    },
    {
      "channel": 3,
      "note": 81,
      "start": 10.5506,
      "duration": 0.0962,
      "velocity": 99,
      "chip": "ym2612"
    },
    {
      "channel": 1,
      "note": 76,
      "start": 10.5524,
      "duration": 0.0946,
      "velocity": 99,
      "chip": "ym2612"
    },
    {
      "channel": 2,
      "note": 89,
      "start": 10.5563,
      "duration": 0.1381,
      "velocity": 127,
      "chip": "ym2612"
    },
    {
      "channel": 0,
      "note": 84,
      "start": 10.7582,
      "duration": 0.1846,
      "velocity": 102,
      "chip": "ym2612"
    },
    {
      "channel": 5,
      "note": 26,
      "start": 10.762,
      "duration": 0.0939,
      "velocity": 89,
      "chip": "ym2612"
    },
    {
      "channel": 0,
      "note": 40,
      "start": 10.9489,
      "duration": 0.098,
      "velocity": 99,
      "chip": "ym2612"
    },
    {
      "channel": 3,
      "note": 80,
      "start": 10.9506,
      "duration": 0.0964,
      "velocity": 99,
      "chip": "ym2612"
    },
    {
      "channel": 1,
      "note": 75,
      "start": 10.9524,
      "duration": 0.0948,
      "velocity": 99,
      "chip": "ym2612"
    },
    {
      "channel": 2,
      "note": 42,
      "start": 10.9557,
      "duration": 0.139,
      "velocity": 127,
      "chip": "ym2612"
    },
    {
      "channel": 4,
      "note": 40,
      "start": 11.162,
      "duration": 0.1993,
      "velocity": 89,
      "chip": "ym2612"
    },
    {
      "channel": 2,
      "note": 42,
      "start": 11.1649,
      "duration": 0.1964,
      "velocity": 109,
      "chip": "ym2612"
    },
    {
      "channel": 5,
      "note": 26,
      "start": 11.1667,
      "duration": 0.0943,
      "velocity": 89,
      "chip": "ym2612"
    },
    {
      "channel": 3,
      "note": 82,
      "start": 11.3534,
      "duration": 0.0943,
      "velocity": 89,
      "chip": "ym2612"
    },
    {
      "channel": 5,
      "note": 26,
      "start": 11.3583,
      "duration": 0.0635,
      "velocity": 127,
      "chip": "ym2612"
    },
    {
      "channel": 1,
      "note": 77,
      "start": 11.4564,
      "duration": 0.089,
      "velocity": 89,
      "chip": "ym2612"
    },
    {
      "channel": 5,
      "note": 42,
      "start": 11.4593,
      "duration": 0.0654,
      "velocity": 127,
      "chip": "ym2612"
    },
    {
      "channel": 4,
      "note": 45,
      "start": 11.5596,
      "duration": 0.1929,
      "velocity": 89,
      "chip": "ym2612"
    },
    {
      "channel": 5,
      "note": 42,
      "start": 11.5618,
      "duration": 0.1394,
      "velocity": 127,
      "chip": "ym2612"
    },
    {
      "channel": 3,
      "note": 45,
      "start": 11.7465,
      "duration": 0.1931,
      "velocity": 89,
      "chip": "ym2612"
    },
    {
      "channel": 5,
      "note": 42,
      "start": 11.7498,
      "duration": 0.1413,
      "velocity": 127,
      "chip": "ym2612"
    },
    {
      "channel": 1,
      "note": 45,
      "start": 11.9531,
      "duration": 0.1939,
      "velocity": 89,
      "chip": "ym2612"
    },
    {
      "channel": 5,
      "note": 42,
      "start": 11.9564,
      "duration": 0.1395,
      "velocity": 127,
      "chip": "ym2612"
    },
    {
      "channel": 4,
      "note": 45,
      "start": 12.1427,
      "duration": 0.1926,
      "velocity": 89,
      "chip": "ym2612"
    },
    {
      "channel": 5,
      "note": 42,
      "start": 12.145,
      "duration": 0.1395,
      "velocity": 127,
      "chip": "ym2612"
    },
    {
      "channel": 3,
      "note": 40,
      "start": 12.3471,
      "duration": 0.0957,
      "velocity": 89,
      "chip": "ym2612"
    },
    {
      "channel": 5,
      "note": 42,
      "start": 12.3505,
      "duration": 0.0656,
      "velocity": 127,
      "chip": "ym2612"
    },
    {
      "channel": 1,
      "note": 45,
      "start": 12.4501,
      "duration": 0.0915,
      "velocity": 89,
      "chip": "ym2612"
    },
    {
      "channel": 5,
      "note": 42,
      "start": 12.4529,
      "duration": 0.0661,
      "velocity": 127,
      "chip": "ym2612"
    },
    {
      "channel": 4,
      "note": 45,
      "start": 12.5368,
      "duration": 0.0955,
      "velocity": 89,
      "chip": "ym2612"
    },
    {
      "channel": 5,
      "note": 42,
      "start": 12.5396,
      "duration": 0.0658,
      "velocity": 127,
      "chip": "ym2612"
    },
    {
      "channel": 3,
      "note": 40,
      "start": 12.6387,
      "duration": 0.0898,
      "velocity": 89,
      "chip": "ym2612"
    },
    {
      "channel": 5,
      "note": 42,
      "start": 12.6419,
      "duration": 0.0658,
      "velocity": 127,
      "chip": "ym2612"
    },
    {
      "channel": 1,
      "note": 40,
      "start": 12.7449,
      "duration": 0.1982,
      "velocity": 89,
      "chip": "ym2612"
    },
    {
      "channel": 2,
      "note": 89,
      "start": 12.7471,
      "duration": 0.1968,
      "velocity": 109,
      "chip": "ym2612"
    },
    {
      "channel": 5,
      "note": 42,
      "start": 12.7496,
      "duration": 0.0954,
      "velocity": 89,
      "chip": "ym2612"
    },
    {
      "channel": 4,
      "note": 40,
      "start": 12.937,
      "duration": 0.0901,
      "velocity": 89,
      "chip": "ym2612"
    },
    {
      "channel": 5,
      "note": 26,
      "start": 12.9408,
      "duration": 0.0648,
      "velocity": 127,
      "chip": "ym2612"
    },
    {
      "channel": 3,
      "note": 40,
      "start": 13.0394,
      "duration": 0.0951,
      "velocity": 89,
      "chip": "ym2612"
    },
    {
      "channel": 5,
      "note": 42,
      "start": 13.0427,
      "duration": 0.0653,
      "velocity": 127,
      "chip": "ym2612"
    },
    {
      "channel": 1,
      "note": 45,
      "start": 13.1435,
      "duration": 0.1934,
      "velocity": 89,
      "chip": "ym2612"
    },
    {
      "channel": 2,
      "note": 89,
      "start": 13.1458,
      "duration": 0.1926,
      "velocity": 109,
      "chip": "ym2612"
    },
    {
      "channel": 5,
      "note": 42,
      "start": 13.1482,
      "duration": 0.0919,
      "velocity": 89,
      "chip": "ym2612"
    },
    {
      "channel": 4,
      "note": 45,
      "start": 13.3315,
      "duration": 0.1932,
      "velocity": 89,
      "chip": "ym2612"
    },
    {
      "channel": 5,
      "note": 26,
      "start": 13.3347,
      "duration": 0.1398,
      "velocity": 127,
      "chip": "ym2612"
    },
    {
      "channel": 3,
      "note": 45,
      "start": 13.5373,
      "duration": 0.3863,
      "velocity": 89,
      "chip": "ym2612"
    },
    {
      "channel": 2,
      "note": 89,
      "start": 13.5407,
      "duration": 0.3841,
      "velocity": 109,
      "chip": "ym2612"
    },
    {
      "channel": 5,
      "note": 42,
      "start": 13.5431,
      "duration": 0.1884,
      "velocity": 89,
      "chip": "ym2612"
    },
    {
      "channel": 1,
      "note": 45,
      "start": 13.931,
      "duration": 0.0445,
      "velocity": 89,
      "chip": "ym2612"
    },
    {
      "channel": 5,
      "note": 26,
      "start": 13.9349,
      "duration": 0.0253,
      "velocity": 127,
      "chip": "ym2612"
    },
    {
      "channel": 4,
      "note": 40,
      "start": 13.983,
      "duration": 0.0445,
      "velocity": 89,
      "chip": "ym2612"
    },
    {
      "channel": 5,
      "note": 42,
      "start": 13.9854,
      "duration": 0.0261,
      "velocity": 127,
      "chip": "ym2612"
    },
    {
      "channel": 3,
      "note": 45,
      "start": 14.0335,
      "duration": 0.0445,
      "velocity": 89,
      "chip": "ym2612"
    },
    {
      "channel": 5,
      "note": 42,
      "start": 14.0368,
      "duration": 0.0317,
      "velocity": 127,
      "chip": "ym2612"
    },
    {
      "channel": 1,
      "note": 45,
      "start": 14.0855,
      "duration": 0.0444,
      "velocity": 89,
      "chip": "ym2612"
    },
    {
      "channel": 5,
      "note": 42,
      "start": 14.089,
      "duration": 0.0272,
      "velocity": 127,
      "chip": "ym2612"
    },
    {
      "channel": 4,
      "note": 45,
      "start": 14.1206,
      "duration": 0.0442,
      "velocity": 89,
      "chip": "ym2612"
    },
    {
      "channel": 5,
      "note": 42,
      "start": 14.1236,
      "duration": 0.0251,
      "velocity": 127,
      "chip": "ym2612"
    },
    {
      "channel": 3,
      "note": 45,
      "start": 14.1707,
      "duration": 0.0445,
      "velocity": 89,
      "chip": "ym2612"
    },
    {
      "channel": 5,
      "note": 42,
      "start": 14.1747,
      "duration": 0.0254,
      "velocity": 127,
      "chip": "ym2612"
    },
    {
      "channel": 1,
      "note": 45,
      "start": 14.2234,
      "duration": 0.0438,
      "velocity": 89,
      "chip": "ym2612"
    },
    {
      "channel": 5,
      "note": 42,
      "start": 14.2262,
      "duration": 0.0314,
      "velocity": 127,
      "chip": "ym2612"
    },
    {
      "channel": 4,
      "note": 45,
      "start": 14.2755,
      "duration": 0.0437,
      "velocity": 89,
      "chip": "ym2612"
    },
    {
      "channel": 5,
      "note": 42,
      "start": 14.2779,
      "duration": 0.0309,
      "velocity": 127,
      "chip": "ym2612"
    },
    {
      "channel": 0,
      "note": 86,
      "start": 14.3305,
      "duration": 0.1855,
      "velocity": 102,
      "chip": "ym2612"
    },
    {
      "channel": 4,
      "note": 45,
      "start": 14.3339,
      "duration": 0.0889,
      "velocity": 102,
      "chip": "ym2612"
    },
    {
      "channel": 2,
      "note": 89,
      "start": 14.3356,
      "duration": 0.2029,
      "velocity": 109,
      "chip": "ym2612"
    },
    {
      "channel": 5,
      "note": 42,
      "start": 14.3387,
      "duration": 0.0847,
      "velocity": 89,
      "chip": "ym2612"
    },
    {
      "channel": 4,
      "note": 102,
      "start": 14.4344,
      "duration": 0.0848,
      "velocity": 102,
      "chip": "ym2612"
    },
    {
      "channel": 0,
      "note": 38,
      "start": 14.5235,
      "duration": 0.0743,
      "velocity": 99,
      "chip": "ym2612"
    },
    {
      "channel": 3,
      "note": 45,
      "start": 14.5263,
      "duration": 0.0716,
      "velocity": 99,
      "chip": "ym2612"
    },
    {
      "channel": 1,
      "note": 45,
      "start": 14.5291,
      "duration": 0.069,
      "velocity": 99,
      "chip": "ym2612"
    },
    {
      "channel": 4,
      "note": 98,
      "start": 14.531,
      "duration": 0.0919,
      "velocity": 102,
      "chip": "ym2612"
    },
    {
      "channel": 5,
      "note": 26,
      "start": 14.5341,
      "duration": 0.1406,
      "velocity": 127,
      "chip": "ym2612"
    },
    {
      "channel": 4,
      "note": 105,
      "start": 14.6345,
      "duration": 0.0964,
      "velocity": 102,
      "chip": "ym2612"
    },
    {
      "channel": 0,
      "note": 69,
      "start": 14.7388,
      "duration": 0.1842,
      "velocity": 102,
      "chip": "ym2612"
    },
    {
      "channel": 4,
      "note": 102,
      "start": 14.7415,
      "duration": 0.0865,
      "velocity": 102,
      "chip": "ym2612"
    },
    {
      "channel": 5,
      "note": 42,
      "start": 14.7447,
      "duration": 0.0841,
      "velocity": 89,
      "chip": "ym2612"
    },
    {
      "channel": 4,
      "note": 110,
      "start": 14.8408,
      "duration": 0.0853,
      "velocity": 102,
      "chip": "ym2612"
    },
    {
      "channel": 0,
      "note": 38,
      "start": 14.9298,
      "duration": 0.0683,
      "velocity": 99,
      "chip": "ym2612"
    },
    {
      "channel": 3,
      "note": 66,
      "start": 14.9316,
      "duration": 0.0667,
      "velocity": 99,
      "chip": "ym2612"
    },
    {
      "channel": 1,
      "note": 62,
      "start": 14.9334,
      "duration": 0.065,
      "velocity": 99,
      "chip": "ym2612"
    },
    {
      "channel": 4,
      "note": 105,
      "start": 14.9352,
      "duration": 0.088,
      "velocity": 102,
      "chip": "ym2612"
    },
    {
      "channel": 5,
      "note": 26,
      "start": 14.9389,
      "duration": 0.136,
      "velocity": 127,
      "chip": "ym2612"
    },
    {
      "channel": 4,
      "note": 102,
      "start": 15.0347,
      "duration": 0.0964,
      "velocity": 102,
      "chip": "ym2612"
    },
    {
      "channel": 0,
      "note": 69,
      "start": 15.1401,
      "duration": 0.1882,
      "velocity": 102,
      "chip": "ym2612"
    },
    {
      "channel": 4,
      "note": 98,
      "start": 15.1429,
      "duration": 0.0912,
      "velocity": 102,
      "chip": "ym2612"
    },
    {
      "channel": 2,
      "note": 89,
      "start": 15.1445,
      "duration": 0.2036,
      "velocity": 109,
      "chip": "ym2612"
    },
    {
      "channel": 5,
      "note": 42,
      "start": 15.1469,
      "duration": 0.0878,
      "velocity": 89,
      "chip": "ym2612"
    },
    {
      "channel": 4,
      "note": 104,
      "start": 15.2463,
      "duration": 0.0851,
      "velocity": 102,
      "chip": "ym2612"
    },
    {
      "channel": 0,
      "note": 40,
      "start": 15.3352,
      "duration": 0.0689,
      "velocity": 99,
      "chip": "ym2612"
    },
    {
      "channel": 3,
      "note": 66,
      "start": 15.337,
      "duration": 0.0679,
      "velocity": 99,
      "chip": "ym2612"
    },
    {
      "channel": 1,
      "note": 62,
      "start": 15.3394,
      "duration": 0.0656,
      "velocity": 99,
      "chip": "ym2612"
    },
    {
      "channel": 4,
      "note": 100,
      "start": 15.3412,
      "duration": 0.0931,
      "velocity": 102,
      "chip": "ym2612"
    },
    {
      "channel": 5,
      "note": 26,
      "start": 15.3443,
      "duration": 0.1366,
      "velocity": 127,
      "chip": "ym2612"
    },
    {
      "channel": 4,
      "note": 107,
      "start": 15.4408,
      "duration": 0.0964,
      "velocity": 102,
      "chip": "ym2612"
    },
    {
      "channel": 0,
      "note": 71,
      "start": 15.545,
      "duration": 0.1835,
      "velocity": 102,
      "chip": "ym2612"
    },
    {
      "channel": 4,
      "note": 104,
      "start": 15.5478,
      "duration": 0.0865,
      "velocity": 102,
      "chip": "ym2612"
    },
    {
      "channel": 5,
      "note": 42,
      "start": 15.5509,
      "duration": 0.0841,
      "velocity": 89,
      "chip": "ym2612"
    },
    {
      "channel": 4,
      "note": 112,
      "start": 15.6466,
      "duration": 0.0852,
      "velocity": 102,
      "chip": "ym2612"
    },
    {
      "channel": 0,
      "note": 40,
      "start": 15.7354,
      "duration": 0.0696,
      "velocity": 99,
      "chip": "ym2612"
    },
    {
      "channel": 3,
      "note": 68,
      "start": 15.7373,
      "duration": 0.0679,
      "velocity": 99,
      "chip": "ym2612"
    },
    {
      "channel": 1,
      "note": 64,
      "start": 15.7397,
      "duration": 0.0656,
      "velocity": 99,
      "chip": "ym2612"
    },
    {
      "channel": 4,
      "note": 107,
      "start": 15.7414,
      "duration": 0.0931,
      "velocity": 102,
      "chip": "ym2612"
    },
    {
      "channel": 5,
      "note": 26,
      "start": 15.7445,
      "duration": 0.1366,
      "velocity": 127,
      "chip": "ym2612"
    },
    {
      "channel": 4,
      "note": 104,
      "start": 15.841,
      "duration": 0.0906,
      "velocity": 102,
      "chip": "ym2612"
    },
    {
      "channel": 0,
      "note": 71,
      "start": 15.9485,
      "duration": 0.1861,
      "velocity": 102,
      "chip": "ym2612"
    },
    {
      "channel": 4,
      "note": 100,
      "start": 15.9512,
      "duration": 0.0949,
      "velocity": 102,
      "chip": "ym2612"
    },
    {
      "channel": 2,
      "note": 89,
      "start": 15.9529,
      "duration": 0.2021,
      "velocity": 109,
      "chip": "ym2612"
    },
    {
      "channel": 5,
      "note": 42,
      "start": 15.9559,
      "duration": 0.0908,
      "velocity": 89,
      "chip": "ym2612"
    },
    {
      "channel": 4,
      "note": 99,
      "start": 16.0525,
      "duration": 0.0858,
      "velocity": 102,
      "chip": "ym2612"
    },
    {
      "channel": 0,
      "note": 35,
      "start": 16.142,
      "duration": 0.0684,
      "velocity": 99,
      "chip": "ym2612"
    },
    {
      "channel": 3,
      "note": 68,
      "start": 16.1438,
      "duration": 0.0667,
      "velocity": 99,
      "chip": "ym2612"
    },
    {
      "channel": 1,
      "note": 64,
      "start": 16.1456,
      "duration": 0.0651,
      "velocity": 99,
      "chip": "ym2612"
    },
    {
      "channel": 4,
      "note": 95,
      "start": 16.1473,
      "duration": 0.0931,
      "velocity": 102,
      "chip": "ym2612"
    },
    {
      "channel": 5,
      "note": 26,
      "start": 16.1505,
      "duration": 0.1368,
      "velocity": 127,
      "chip": "ym2612"
    },
    {
      "channel": 4,
      "note": 102,
      "start": 16.2469,
      "duration": 0.0914,
      "velocity": 102,
      "chip": "ym2612"
    },
    {
      "channel": 0,
      "note": 66,
      "start": 16.3519,
      "duration": 0.1893,
      "velocity": 102,
      "chip": "ym2612"
    },
    {
      "channel": 4,
      "note": 99,
      "start": 16.3552,
      "duration": 0.0968,
      "velocity": 102,
      "chip": "ym2612"
    },
    {
      "channel": 2,
      "note": 89,
      "start": 16.3569,
      "duration": 0.2041,
      "velocity": 109,
      "chip": "ym2612"
    },
    {
      "channel": 5,
      "note": 42,
      "start": 16.3593,
      "duration": 0.0934,
      "velocity": 89,
      "chip": "ym2612"
    },
    {
      "channel": 4,
      "note": 107,
      "start": 16.4586,
      "duration": 0.0857,
      "velocity": 102,
      "chip": "ym2612"
    },
    {
      "channel": 0,
      "note": 35,
      "start": 16.548,
      "duration": 0.0684,
      "velocity": 99,
      "chip": "ym2612"
    },
    {
      "channel": 3,
      "note": 63,
      "start": 16.5498,
      "duration": 0.0667,
      "velocity": 99,
      "chip": "ym2612"
    },
    {
      "channel": 1,
      "note": 59,
      "start": 16.5515,
      "duration": 0.0651,
      "velocity": 99,
      "chip": "ym2612"
    },
    {
      "channel": 4,
      "note": 102,
      "start": 16.5533,
      "duration": 0.0931,
      "velocity": 102,
      "chip": "ym2612"
    },
    {
      "channel": 5,
      "note": 26,
      "start": 16.5571,
      "duration": 0.1361,
      "velocity": 127,
      "chip": "ym2612"
    },
    {
      "channel": 4,
      "note": 111,
      "start": 16.653,
      "duration": 0.0907,
      "velocity": 102,
      "chip": "ym2612"
    },
    {
      "channel": 0,
      "note": 66,
      "start": 16.7587,
      "duration": 0.188,
      "velocity": 102,
      "chip": "ym2612"
    },
    {
      "channel": 4,
      "note": 107,
      "start": 16.7614,
      "duration": 0.0966,
      "velocity": 102,
      "chip": "ym2612"
    },
    {
      "channel": 2,
      "note": 89,
      "start": 16.763,
      "duration": 0.2037,
      "velocity": 109,
      "chip": "ym2612"
    },
    {
      "channel": 5,
      "note": 42,
      "start": 16.7655,
      "duration": 0.0932,
      "velocity": 89,
      "chip": "ym2612"
    },
    {
      "channel": 4,
      "note": 114,
      "start": 16.8645,
      "duration": 0.0856,
      "velocity": 102,
      "chip": "ym2612"
    },
    {
      "channel": 0,
      "note": 35,
      "start": 16.9538,
      "duration": 0.0686,
      "velocity": 99,
      "chip": "ym2612"
    },
    {
      "channel": 3,
      "note": 63,
      "start": 16.9562,
      "duration": 0.0663,
      "velocity": 99,
      "chip": "ym2612"
    },
    {
      "channel": 1,
      "note": 59,
      "start": 16.958,
      "duration": 0.0646,
      "velocity": 99,
      "chip": "ym2612"
    },
    {
      "channel": 4,
      "note": 111,
      "start": 16.9598,
      "duration": 0.0927,
      "velocity": 102,
      "chip": "ym2612"
    },
    {
      "channel": 5,
      "note": 26,
      "start": 16.9629,
      "duration": 0.0609,
      "velocity": 127,
      "chip": "ym2612"
    },
    {
      "channel": 0,
      "note": 66,
      "start": 17.0608,
      "duration": 0.0702,
      "velocity": 99,
      "chip": "ym2612"
    },
    {
      "channel": 3,
      "note": 63,
      "start": 17.0626,
      "duration": 0.0685,
      "velocity": 99,
      "chip": "ym2612"
    },
    {
      "channel": 1,
      "note": 59,
      "start": 17.0644,
      "duration": 0.0669,
      "velocity": 99,
      "chip": "ym2612"
    },
    {
      "channel": 4,
      "note": 107,
      "start": 17.0662,
      "duration": 0.0898,
      "velocity": 102,
      "chip": "ym2612"
    },
    {
      "channel": 5,
      "note": 42,
      "start": 17.0683,
      "duration": 0.0641,
      "velocity": 127,
      "chip": "ym2612"
    },
    {
      "channel": 0,
      "note": 66,
      "start": 17.1695,
      "duration": 0.0701,
      "velocity": 99,
      "chip": "ym2612"
    },
    {
      "channel": 3,
      "note": 63,
      "start": 17.172,
      "duration": 0.0678,
      "velocity": 99,
      "chip": "ym2612"
    },
    {
      "channel": 1,
      "note": 59,
      "start": 17.1737,
      "duration": 0.0662,
      "velocity": 99,
      "chip": "ym2612"
    },
    {
      "channel": 4,
      "note": 102,
      "start": 17.1755,
      "duration": 0.0942,
      "velocity": 102,
      "chip": "ym2612"
    },
    {
      "channel": 5,
      "note": 42,
      "start": 17.1777,
      "duration": 0.1388,
      "velocity": 127,
      "chip": "ym2612"
    },
    {
      "channel": 4,
      "note": 99,
      "start": 17.2763,
      "duration": 0.0852,
      "velocity": 102,
      "chip": "ym2612"
    },
    {
      "channel": 0,
      "note": 66,
      "start": 17.3642,
      "duration": 0.0698,
      "velocity": 99,
      "chip": "ym2612"
    },
    {
      "channel": 3,
      "note": 63,
      "start": 17.366,
      "duration": 0.0682,
      "velocity": 99,
      "chip": "ym2612"
    },
    {
      "channel": 1,
      "note": 59,
      "start": 17.3678,
      "duration": 0.0666,
      "velocity": 99,
      "chip": "ym2612"
    },
    {
      "channel": 4,
      "note": 95,
      "start": 17.3695,
      "duration": 0.0946,
      "velocity": 102,
      "chip": "ym2612"
    },
    {
      "channel": 5,
      "note": 42,
      "start": 17.3723,
      "duration": 0.1385,
      "velocity": 127,
      "chip": "ym2612"
    },
    {
      "channel": 4,
      "note": 90,
      "start": 17.4707,
      "duration": 0.0907,
      "velocity": 102,
      "chip": "ym2612"
    },
    {
      "channel": 0,
      "note": 66,
      "start": 17.5778,
      "duration": 0.1865,
      "velocity": 102,
      "chip": "ym2612"
    },
    {
      "channel": 4,
      "note": 87,
      "start": 17.5805,
      "duration": 0.0952,
      "velocity": 102,
      "chip": "ym2612"
    },
    {
      "channel": 2,
      "note": 89,
      "start": 17.5822,
      "duration": 0.2018,
      "velocity": 109,
      "chip": "ym2612"
    },
    {
      "channel": 5,
      "note": 42,
      "start": 17.5846,
      "duration": 0.0917,
      "velocity": 89,
      "chip": "ym2612"
    },
    {
      "channel": 4,
      "note": 102,
      "start": 17.6822,
      "duration": 0.0852,
      "velocity": 102,
      "chip": "ym2612"
    },
    {
      "channel": 0,
      "note": 38,
      "start": 17.7716,
      "duration": 0.0684,
      "velocity": 99,
      "chip": "ym2612"
    },
    {
      "channel": 3,
      "note": 63,
      "start": 17.7735,
      "duration": 0.0667,
      "velocity": 99,
      "chip": "ym2612"
    },
    {
      "channel": 1,
      "note": 59,
      "start": 17.7753,
      "duration": 0.0651,
      "velocity": 99,
      "chip": "ym2612"
    },
    {
      "channel": 4,
      "note": 98,
      "start": 17.777,
      "duration": 0.0931,
      "velocity": 102,
      "chip": "ym2612"
    },
    {
      "channel": 5,
      "note": 26,
      "start": 17.7802,
      "duration": 0.1367,
      "velocity": 127,
      "chip": "ym2612"
    },
    {
      "channel": 4,
      "note": 105,
      "start": 17.8767,
      "duration": 0.0907,
      "velocity": 102,
      "chip": "ym2612"
    },
    {
      "channel": 0,
      "note": 69,
      "start": 17.9809,
      "duration": 0.1894,
      "velocity": 102,
      "chip": "ym2612"
    },
    {
      "channel": 4,
      "note": 102,
      "start": 17.9836,
      "duration": 0.0981,
      "velocity": 102,
      "chip": "ym2612"
    },
    {
      "channel": 5,
      "note": 42,
      "start": 17.9867,
      "duration": 0.0956,
      "velocity": 89,
      "chip": "ym2612"
    },
    {
      "channel": 4,
      "note": 110,
      "start": 18.0889,
      "duration": 0.0851,
      "velocity": 102,
      "chip": "ym2612"
    },
    {
      "channel": 0,
      "note": 38,
      "start": 18.1777,
      "duration": 0.0684,
      "velocity": 99,
      "chip": "ym2612"
    },
    {
      "channel": 3,
      "note": 66,
      "start": 18.1795,
      "duration": 0.0667,
      "velocity": 99,
      "chip": "ym2612"
    },
    {
      "channel": 1,
      "note": 62,
      "start": 18.1812,
      "duration": 0.0651,
      "velocity": 99,
      "chip": "ym2612"
    },
    {
      "channel": 4,
      "note": 105,
      "start": 18.183,
      "duration": 0.0931,
      "velocity": 102,
      "chip": "ym2612"
    },
    {
      "channel": 5,
      "note": 26,
      "start": 18.1861,
      "duration": 0.1373,
      "velocity": 127,
      "chip": "ym2612"
    },
    {
      "channel": 4,
      "note": 102,
      "start": 18.2826,
      "duration": 0.0907,
      "velocity": 102,
      "chip": "ym2612"
    },
    {
      "channel": 0,
      "note": 69,
      "start": 18.3883,
      "duration": 0.1951,
      "velocity": 102,
      "chip": "ym2612"
    },
    {
      "channel": 4,
      "note": 98,
      "start": 18.391,
      "duration": 0.0973,
      "velocity": 102,
      "chip": "ym2612"
    },
    {
      "channel": 2,
      "note": 89,
      "start": 18.3927,
      "duration": 0.192,
      "velocity": 109,
      "chip": "ym2612"
    },
    {
      "channel": 5,
      "note": 42,
      "start": 18.3951,
      "duration": 0.0939,
      "velocity": 89,
      "chip": "ym2612"
    },
    {
      "channel": 4,
      "note": 104,
      "start": 18.4942,
      "duration": 0.0903,
      "velocity": 102,
      "chip": "ym2612"
    },
    {
      "channel": 0,
      "note": 40,
      "start": 18.5998,
      "duration": 0.0694,
      "velocity": 99,
      "chip": "ym2612"
    },
    {
      "channel": 3,
      "note": 66,
      "start": 18.6016,
      "duration": 0.0677,
      "velocity": 99,
      "chip": "ym2612"
    },
    {
      "channel": 1,
      "note": 62,
      "start": 18.6034,
      "duration": 0.0661,
      "velocity": 99,
      "chip": "ym2612"
    },
    {
      "channel": 4,
      "note": 100,
      "start": 18.6057,
      "duration": 0.0789,
      "velocity": 102,
      "chip": "ym2612"
    },
    {
      "channel": 5,
      "note": 26,
      "start": 18.6088,
      "duration": 0.1371,
      "velocity": 127,
      "chip": "ym2612"
    },
    {
      "channel": 4,
      "note": 107,
      "start": 18.6893,
      "duration": 0.0958,
      "velocity": 102,
      "chip": "ym2612"
    },
    {
      "channel": 0,
      "note": 71,
      "start": 18.7929,
      "duration": 0.1908,
      "velocity": 102,
      "chip": "ym2612"
    },
    {
      "channel": 4,
      "note": 104,
      "start": 18.7956,
      "duration": 0.0929,
      "velocity": 102,
      "chip": "ym2612"
    },
    {
      "channel": 5,
      "note": 42,
      "start": 18.7987,
      "duration": 0.0905,
      "velocity": 89,
      "chip": "ym2612"
    },
    {
      "channel": 4,
      "note": 112,
      "start": 18.8945,
      "duration": 0.091,
      "velocity": 102,
      "chip": "ym2612"
    },
    {
      "channel": 0,
      "note": 40,
      "start": 19.0005,
      "duration": 0.069,
      "velocity": 99,
      "chip": "ym2612"
    },
    {
      "channel": 3,
      "note": 68,
      "start": 19.0022,
      "duration": 0.0674,
      "velocity": 99,
      "chip": "ym2612"
    },
    {
      "channel": 1,
      "note": 64,
      "start": 19.004,
      "duration": 0.0657,
      "velocity": 99,
      "chip": "ym2612"
    },
    {
      "channel": 4,
      "note": 107,
      "start": 19.0064,
      "duration": 0.0786,
      "velocity": 102,
      "chip": "ym2612"
    },
    {
      "channel": 5,
      "note": 26,
      "start": 19.0095,
      "duration": 0.1367,
      "velocity": 127,
      "chip": "ym2612"
    },
    {
      "channel": 4,
      "note": 104,
      "start": 19.0896,
      "duration": 0.0957,
      "velocity": 102,
      "chip": "ym2612"
    },
    {
      "channel": 0,
      "note": 71,
      "start": 19.1957,
      "duration": 0.1939,
      "velocity": 102,
      "chip": "ym2612"
    },
    {
      "channel": 4,
      "note": 100,
      "start": 19.1985,
      "duration": 0.0904,
      "velocity": 102,
      "chip": "ym2612"
    },
    {
      "channel": 2,
      "note": 89,
      "start": 19.2001,
      "duration": 0.1918,
      "velocity": 109,
      "chip": "ym2612"
    },
    {
      "channel": 5,
      "note": 42,
      "start": 19.2025,
      "duration": 0.087,
      "velocity": 89,
      "chip": "ym2612"
    },
    {
      "channel": 4,
      "note": 105,
      "start": 19.3005,
      "duration": 0.0968,
      "velocity": 102,
      "chip": "ym2612"
    },
    {
      "channel": 0,
      "note": 43,
      "start": 19.4067,
      "duration": 0.0688,
      "velocity": 99,
      "chip": "ym2612"
    },
    {
      "channel": 3,
      "note": 68,
      "start": 19.4085,
      "duration": 0.0671,
      "velocity": 99,
      "chip": "ym2612"
    },
    {
      "channel": 1,
      "note": 64,
      "start": 19.4103,
      "duration": 0.0654,
      "velocity": 99,
      "chip": "ym2612"
    },
    {
      "channel": 4,
      "note": 101,
      "start": 19.4121,
      "duration": 0.0795,
      "velocity": 102,
      "chip": "ym2612"
    },
    {
      "channel": 5,
      "note": 26,
      "start": 19.4151,
      "duration": 0.1371,
      "velocity": 127,
      "chip": "ym2612"
    },
    {
      "channel": 4,
      "note": 108,
      "start": 19.4949,
      "duration": 0.0964,
      "velocity": 102,
      "chip": "ym2612"
    },
    {
      "channel": 0,
      "note": 72,
      "start": 19.5994,
      "duration": 0.1962,
      "velocity": 102,
      "chip": "ym2612"
    },
    {
      "channel": 4,
      "note": 105,
      "start": 19.6022,
      "duration": 0.092,
      "velocity": 102,
      "chip": "ym2612"
    },
    {
      "channel": 2,
      "note": 89,
      "start": 19.6038,
      "duration": 0.1941,
      "velocity": 109,
      "chip": "ym2612"
    },
    {
      "channel": 5,
      "note": 42,
      "start": 19.6069,
      "duration": 0.088,
      "velocity": 89,
      "chip": "ym2612"
    },
    {
      "channel": 4,
      "note": 113,
      "start": 19.7071,
      "duration": 0.0961,
      "velocity": 102,
      "chip": "ym2612"
    },
    {
      "channel": 0,
      "note": 43,
      "start": 19.8127,
      "duration": 0.0687,
      "velocity": 99,
      "chip": "ym2612"
    },
    {
      "channel": 3,
      "note": 69,
      "start": 19.8145,
      "duration": 0.0671,
      "velocity": 99,
      "chip": "ym2612"
    },
    {
      "channel": 1,
      "note": 65,
      "start": 19.8163,
      "duration": 0.0655,
      "velocity": 99,
      "chip": "ym2612"
    },
    {
      "channel": 4,
      "note": 108,
      "start": 19.8181,
      "duration": 0.0789,
      "velocity": 102,
      "chip": "ym2612"
    },
    {
      "channel": 5,
      "note": 26,
      "start": 19.8218,
      "duration": 0.1364,
      "velocity": 127,
      "chip": "ym2612"
    },
    {
      "channel": 4,
      "note": 105,
      "start": 19.9009,
      "duration": 0.0964,
      "velocity": 102,
      "chip": "ym2612"
    },
    {
      "channel": 0,
      "note": 72,
      "start": 20.0063,
      "duration": 0.1954,
      "velocity": 102,
      "chip": "ym2612"
    },
    {
      "channel": 4,
      "note": 101,
      "start": 20.009,
      "duration": 0.0912,
      "velocity": 102,
      "chip": "ym2612"
    },
    {
      "channel": 2,
      "note": 89,
      "start": 20.0107,
      "duration": 0.1932,
      "velocity": 109,
      "chip": "ym2612"
    },
    {
      "channel": 5,
      "note": 42,
      "start": 20.0131,
      "duration": 0.0877,
      "velocity": 89,
      "chip": "ym2612"
    },
    {
      "channel": 4,
      "note": 117,
      "start": 20.1125,
      "duration": 0.0968,
      "velocity": 102,
      "chip": "ym2612"
    },
    {
      "channel": 0,
      "note": 43,
      "start": 20.2185,
      "duration": 0.0689,
      "velocity": 99,
      "chip": "ym2612"
    },
    {
      "channel": 3,
      "note": 69,
      "start": 20.2203,
      "duration": 0.0675,
      "velocity": 99,
      "chip": "ym2612"
    },
    {
      "channel": 1,
      "note": 65,
      "start": 20.2227,
      "duration": 0.0656,
      "velocity": 99,
      "chip": "ym2612"
    },
    {
      "channel": 4,
      "note": 113,
      "start": 20.2245,
      "duration": 0.0819,
      "velocity": 102,
      "chip": "ym2612"
    },
    {
      "channel": 5,
      "note": 26,
      "start": 20.2276,
      "duration": 0.0619,
      "velocity": 127,
      "chip": "ym2612"
    },
    {
      "channel": 0,
      "note": 72,
      "start": 20.3091,
      "duration": 0.0698,
      "velocity": 99,
      "chip": "ym2612"
    },
    {
      "channel": 3,
      "note": 69,
      "start": 20.3109,
      "duration": 0.0681,
      "velocity": 99,
      "chip": "ym2612"
    },
    {
      "channel": 1,
      "note": 65,
      "start": 20.3127,
      "duration": 0.0666,
      "velocity": 99,
      "chip": "ym2612"
    },
    {
      "channel": 4,
      "note": 108,
      "start": 20.3144,
      "duration": 0.0945,
      "velocity": 102,
      "chip": "ym2612"
    },
    {
      "channel": 5,
      "note": 42,
      "start": 20.3166,
      "duration": 0.0637,
      "velocity": 127,
      "chip": "ym2612"
    },
    {
      "channel": 0,
      "note": 72,
      "start": 20.4171,
      "duration": 0.0707,
      "velocity": 99,
      "chip": "ym2612"
    },
    {
      "channel": 3,
      "note": 69,
      "start": 20.4188,
      "duration": 0.0695,
      "velocity": 99,
      "chip": "ym2612"
    },
    {
      "channel": 1,
      "note": 65,
      "start": 20.4206,
      "duration": 0.0679,
      "velocity": 99,
      "chip": "ym2612"
    },
    {
      "channel": 4,
      "note": 105,
      "start": 20.423,
      "duration": 0.0889,
      "velocity": 102,
      "chip": "ym2612"
    },
    {
      "channel": 5,
      "note": 42,
      "start": 20.4252,
      "duration": 0.1392,
      "velocity": 127,
      "chip": "ym2612"
    },
    {
      "channel": 4,
      "note": 101,
      "start": 20.5242,
      "duration": 0.0964,
      "velocity": 102,
      "chip": "ym2612"
    },
    {
      "channel": 0,
      "note": 72,
      "start": 20.629,
      "duration": 0.0702,
      "velocity": 99,
      "chip": "ym2612"
    },
    {
      "channel": 3,
      "note": 69,
      "start": 20.6307,
      "duration": 0.0685,
      "velocity": 99,
      "chip": "ym2612"
    },
    {
      "channel": 1,
      "note": 65,
      "start": 20.6325,
      "duration": 0.0669,
      "velocity": 99,
      "chip": "ym2612"
    },
    {
      "channel": 4,
      "note": 96,
      "start": 20.6343,
      "duration": 0.0803,
      "velocity": 102,
      "chip": "ym2612"
    },
    {
      "channel": 5,
      "note": 42,
      "start": 20.6365,
      "duration": 0.1395,
      "velocity": 127,
      "chip": "ym2612"
    },
    {
      "channel": 4,
      "note": 93,
      "start": 20.7186,
      "duration": 0.0964,
      "velocity": 102,
      "chip": "ym2612"
    },
    {
      "channel": 0,
      "note": 72,
      "start": 20.8258,
      "duration": 0.1935,
      "velocity": 102,
      "chip": "ym2612"
    },
    {
      "channel": 4,
      "note": 89,
      "start": 20.8286,
      "duration": 0.0893,
      "velocity": 102,
      "chip": "ym2612"
    },
    {
      "channel": 2,
      "note": 89,
      "start": 20.8302,
      "duration": 0.192,
      "velocity": 109,
      "chip": "ym2612"
    },
    {
      "channel": 5,
      "note": 42,
      "start": 20.8326,
      "duration": 0.0859,
      "velocity": 89,
      "chip": "ym2612"
    },
    {
      "channel": 4,
      "note": 102,
      "start": 20.9302,
      "duration": 0.0968,
      "velocity": 102,
      "chip": "ym2612"
    },
    {
      "channel": 0,
      "note": 38,
      "start": 21.0358,
      "duration": 0.0694,
      "velocity": 99,
      "chip": "ym2612"
    },
    {
      "channel": 3,
      "note": 69,
      "start": 21.0378,
      "duration": 0.0676,
      "velocity": 99,
      "chip": "ym2612"
    },
    {
      "channel": 1,
      "note": 65,
      "start": 21.04,
      "duration": 0.0655,
      "velocity": 99,
      "chip": "ym2612"
    },
    {
      "channel": 4,
      "note": 98,
      "start": 21.0417,
      "duration": 0.0789,
      "velocity": 102,
      "chip": "ym2612"
    },
    {
      "channel": 5,
      "note": 26,
      "start": 21.0449,
      "duration": 0.1371,
      "velocity": 127,
      "chip": "ym2612"
    },
    {
      "channel": 4,
      "note": 105,
      "start": 21.1246,
      "duration": 0.0817,
      "velocity": 102,
      "chip": "ym2612"
    }
  ]
}