{
  "track_name": "18 - Shining Key",
  "duration_sec": 44.547,
  "sample_rate": 44100,
  "note_count": 545,
  "unique_pitches": 38,
  "pitch_range": 49,
  "avg_note_duration": 0.404,
  "reconstruction_stats": {
    "notes_reconstructed": 545,
    "keyon_events": 545,
    "keyoff_events": 540,
    "orphan_keyons": 5,
    "unique_pitches": 38,
    "pitch_range": 49,
    "avg_duration_sec": 0.404
  },
  "metadata": {
    "source": "Y\\Ys III - Wanderers From Ys (MD)\\18 - Shining Key.vgz"
  },
  "notes": [
    {
      "channel": 0,
      "note": 66,
      "start": 0.0252,
      "duration": 0.7744,
      "velocity": 72,
      "chip": "ym2612"
    },
    {
      "channel": 2,
      "note": 63,
      "start": 0.0329,
      "duration": 0.7673,
      "velocity": 72,
      "chip": "ym2612"
    },
    {
      "channel": 3,
      "note": 76,
      "start": 0.0614,
      "duration": 0.1927,
      "velocity": 99,
      "chip": "ym2612"
    },
    {
      "channel": 4,
      "note": 73,
      "start": 0.0671,
      "duration": 0.1878,
      "velocity": 99,
      "chip": "ym2612"
    },
    {
      "channel": 3,
      "note": 102,
      "start": 0.2544,
      "duration": 0.1983,
      "velocity": 99,
      "chip": "ym2612"
    },
    {
      "channel": 4,
      "note": 99,
      "start": 0.2552,
      "duration": 0.1983,
      "velocity": 99,
      "chip": "ym2612"
    },
    {
      "channel": 1,
      "note": 66,
      "start": 0.4193,
      "duration": 0.7778,
      "velocity": 72,
      "chip": "ym2612"
    },
    {
      "channel": 3,
      "note": 99,
      "start": 0.4531,
      "duration": 0.1983,
      "velocity": 99,
      "chip": "ym2612"
    },
    {
      "channel": 4,
      "note": 95,
      "start": 0.4539,
      "duration": 0.1983,
      "velocity": 99,
      "chip": "ym2612"
    },
    {
      "channel": 3,
      "note": 97,
      "start": 0.6517,
      "duration": 0.1983,
      "velocity": 99,
      "chip": "ym2612"
    },
    {
      "channel": 4,
      "note": 90,
      "start": 0.6524,
      "duration": 0.1983,
      "velocity": 99,
      "chip": "ym2612"
    },
    {
      "channel": 0,
      "note": 66,
      "start": 0.8163,
      "duration": 0.7778,
      "velocity": 72,
      "chip": "ym2612"
    },
    {
      "channel": 2,
      "note": 63,
      "start": 0.8171,
      "duration": 0.7776,
      "velocity": 72,
      "chip": "ym2612"
    },
    {
      "channel": 3,
      "note": 95,
      "start": 0.8503,
      "duration": 0.1983,
      "velocity": 99,
      "chip": "ym2612"
    },
    {
      "channel": 4,
      "note": 87,
      "start": 0.8511,
      "duration": 0.1983,
      "velocity": 99,
      "chip": "ym2612"
    },
    {
      "channel": 3,
      "note": 90,
      "start": 1.049,
      "duration": 0.1983,
      "velocity": 99,
      "chip": "ym2612"
    },
    {
      "channel": 4,
      "note": 85,
      "start": 1.0497,
      "duration": 0.1983,
      "velocity": 99,
      "chip": "ym2612"
    },
    {
      "channel": 1,
      "note": 66,
      "start": 1.2138,
      "duration": 0.7778,
      "velocity": 72,
      "chip": "ym2612"
    },
    {
      "channel": 3,
      "note": 87,
      "start": 1.2476,
      "duration": 0.1983,
      "velocity": 99,
      "chip": "ym2612"
    },
    {
      "channel": 4,
      "note": 83,
      "start": 1.2484,
      "duration": 0.1983,
      "velocity": 99,
      "chip": "ym2612"
    },
    {
      "channel": 3,
      "note": 85,
      "start": 1.4462,
      "duration": 0.1983,
      "velocity": 99,
      "chip": "ym2612"
    },
    {
      "channel": 4,
      "note": 78,
      "start": 1.447,
      "duration": 0.1983,
      "velocity": 99,
      "chip": "ym2612"
    },
    {
      "channel": 0,
      "note": 71,
      "start": 1.6109,
      "duration": 0.7778,
      "velocity": 72,
      "chip": "ym2612"
    },
    {
      "channel": 2,
      "note": 67,
      "start": 1.6116,
      "duration": 0.778,
      "velocity": 72,
      "chip": "ym2612"
    },
    {
      "channel": 3,
      "note": 83,
      "start": 1.6448,
      "duration": 0.1983,
      "velocity": 99,
      "chip": "ym2612"
    },
    {
      "channel": 4,
      "note": 75,
      "start": 1.6456,
      "duration": 0.1983,
      "velocity": 99,
      "chip": "ym2612"
    },
    {
      "channel": 3,
      "note": 103,
      "start": 1.8435,
      "duration": 0.1983,
      "velocity": 99,
      "chip": "ym2612"
    },
    {
      "channel": 4,
      "note": 100,
      "start": 1.8442,
      "duration": 0.1983,
      "velocity": 99,
      "chip": "ym2612"
    },
    {
      "channel": 1,
      "note": 71,
      "start": 2.0084,
      "duration": 0.7778,
      "velocity": 72,
      "chip": "ym2612"
    },
    {
      "channel": 3,
      "note": 100,
      "start": 2.0422,
      "duration": 0.1988,
      "velocity": 99,
      "chip": "ym2612"
    },
    {
      "channel": 4,
      "note": 97,
      "start": 2.0429,
      "duration": 0.1989,
      "velocity": 99,
      "chip": "ym2612"
    },
    {
      "channel": 3,
      "note": 97,
      "start": 2.2413,
      "duration": 0.1978,
      "velocity": 99,
      "chip": "ym2612"
    },
    {
      "channel": 4,
      "note": 91,
      "start": 2.2421,
      "duration": 0.1985,
      "velocity": 99,
      "chip": "ym2612"
    },
    {
      "channel": 0,
      "note": 71,
      "start": 2.4054,
      "duration": 0.7778,
      "velocity": 72,
      "chip": "ym2612"
    },
    {
      "channel": 2,
      "note": 67,
      "start": 2.4069,
      "duration": 0.7768,
      "velocity": 72,
      "chip": "ym2612"
    },
    {
      "channel": 3,
      "note": 95,
      "start": 2.4401,
      "duration": 0.1976,
      "velocity": 99,
      "chip": "ym2612"
    },
    {
      "channel": 4,
      "note": 88,
      "start": 2.4409,
      "duration": 0.1976,
      "velocity": 99,
      "chip": "ym2612"
    },
    {
      "channel": 3,
      "note": 91,
      "start": 2.638,
      "duration": 0.1983,
      "velocity": 99,
      "chip": "ym2612"
    },
    {
      "channel": 4,
      "note": 85,
      "start": 2.6388,
      "duration": 0.1983,
      "velocity": 99,
      "chip": "ym2612"
    },
    {
      "channel": 1,
      "note": 71,
      "start": 2.8029,
      "duration": 0.7777,
      "velocity": 72,
      "chip": "ym2612"
    },
    {
      "channel": 3,
      "note": 88,
      "start": 2.8367,
      "duration": 0.1983,
      "velocity": 99,
      "chip": "ym2612"
    },
    {
      "channel": 4,
      "note": 83,
      "start": 2.8374,
      "duration": 0.1983,
      "velocity": 99,
      "chip": "ym2612"
    },
    {
      "channel": 3,
      "note": 85,
      "start": 3.0354,
      "duration": 0.1982,
      "velocity": 99,
      "chip": "ym2612"
    },
    {
      "channel": 4,
      "note": 79,
      "start": 3.0361,
      "duration": 0.1982,
      "velocity": 99,
      "chip": "ym2612"
    },
    {
      "channel": 0,
      "note": 70,
      "start": 3.1999,
      "duration": 0.7778,
      "velocity": 72,
      "chip": "ym2612"
    },
    {
      "channel": 2,
      "note": 66,
      "start": 3.2007,
      "duration": 0.7776,
      "velocity": 72,
      "chip": "ym2612"
    },
    {
      "channel": 3,
      "note": 83,
      "start": 3.2339,
      "duration": 0.1983,
      "velocity": 99,
      "chip": "ym2612"
    },
    {
      "channel": 3,
      "note": 102,
      "start": 3.4325,
      "duration": 0.1983,
      "velocity": 99,
      "chip": "ym2612"
    },
    {
      "channel": 4,
      "note": 76,
      "start": 3.4332,
      "duration": 0.1983,
      "velocity": 99,
      "chip": "ym2612"
    },
    {
      "channel": 1,
      "note": 70,
      "start": 3.5974,
      "duration": 0.7779,
      "velocity": 72,
      "chip": "ym2612"
    },
    {
      "channel": 3,
      "note": 97,
      "start": 3.6311,
      "duration": 0.1984,
      "velocity": 99,
      "chip": "ym2612"
    },
    {
      "channel": 4,
      "note": 102,
      "start": 3.6319,
      "duration": 0.1983,
      "velocity": 99,
      "chip": "ym2612"
    },
    {
      "channel": 3,
      "note": 95,
      "start": 3.8298,
      "duration": 0.1983,
      "velocity": 99,
      "chip": "ym2612"
    },
    {
      "channel": 4,
      "note": 97,
      "start": 3.8306,
      "duration": 0.1983,
      "velocity": 99,
      "chip": "ym2612"
    },
    {
      "channel": 0,
      "note": 70,
      "start": 3.9944,
      "duration": 0.7777,
      "velocity": 72,
      "chip": "ym2612"
    },
    {
      "channel": 2,
      "note": 66,
      "start": 3.9952,
      "duration": 0.7783,
      "velocity": 72,
      "chip": "ym2612"
    },
    {
      "channel": 3,
      "note": 94,
      "start": 4.0284,
      "duration": 0.1983,
      "velocity": 99,
      "chip": "ym2612"
    },
    {
      "channel": 4,
      "note": 95,
      "start": 4.0292,
      "duration": 0.1984,
      "velocity": 99,
      "chip": "ym2612"
    },
    {
      "channel": 3,
      "note": 90,
      "start": 4.2271,
      "duration": 0.1983,
      "velocity": 99,
      "chip": "ym2612"
    },
    {
      "channel": 4,
      "note": 94,
      "start": 4.2278,
      "duration": 0.1983,
      "velocity": 99,
      "chip": "ym2612"
    },
    {
      "channel": 1,
      "note": 70,
      "start": 4.3919,
      "duration": 0.7778,
      "velocity": 72,
      "chip": "ym2612"
    },
    {
      "channel": 3,
      "note": 85,
      "start": 4.4257,
      "duration": 0.1986,
      "velocity": 99,
      "chip": "ym2612"
    },
    {
      "channel": 4,
      "note": 90,
      "start": 4.4265,
      "duration": 0.1986,
      "velocity": 99,
      "chip": "ym2612"
    },
    {
      "channel": 3,
      "note": 83,
      "start": 4.6246,
      "duration": 0.1987,
      "velocity": 99,
      "chip": "ym2612"
    },
    {
      "channel": 4,
      "note": 85,
      "start": 4.6254,
      "duration": 0.1987,
      "velocity": 99,
      "chip": "ym2612"
    },
    {
      "channel": 0,
      "note": 65,
      "start": 4.7889,
      "duration": 0.7778,
      "velocity": 72,
      "chip": "ym2612"
    },
    {
      "channel": 2,
      "note": 59,
      "start": 4.7904,
      "duration": 0.7768,
      "velocity": 72,
      "chip": "ym2612"
    },
    {
      "channel": 3,
      "note": 82,
      "start": 4.8237,
      "duration": 0.1975,
      "velocity": 99,
      "chip": "ym2612"
    },
    {
      "channel": 4,
      "note": 83,
      "start": 4.8245,
      "duration": 0.1975,
      "velocity": 99,
      "chip": "ym2612"
    },
    {
      "channel": 3,
      "note": 80,
      "start": 5.0215,
      "duration": 0.1983,
      "velocity": 99,
      "chip": "ym2612"
    },
    {
      "channel": 4,
      "note": 82,
      "start": 5.0223,
      "duration": 0.1983,
      "velocity": 99,
      "chip": "ym2612"
    },
    {
      "channel": 1,
      "note": 65,
      "start": 5.1865,
      "duration": 0.7777,
      "velocity": 72,
      "chip": "ym2612"
    },
    {
      "channel": 3,
      "note": 77,
      "start": 5.2202,
      "duration": 0.1983,
      "velocity": 99,
      "chip": "ym2612"
    },
    {
      "channel": 4,
      "note": 80,
      "start": 5.221,
      "duration": 0.1983,
      "velocity": 99,
      "chip": "ym2612"
    },
    {
      "channel": 3,
      "note": 71,
      "start": 5.4189,
      "duration": 0.1983,
      "velocity": 99,
      "chip": "ym2612"
    },
    {
      "channel": 4,
      "note": 77,
      "start": 5.4196,
      "duration": 0.1983,
      "velocity": 99,
      "chip": "ym2612"
    },
    {
      "channel": 0,
      "note": 65,
      "start": 5.5834,
      "duration": 0.7778,
      "velocity": 72,
      "chip": "ym2612"
    },
    {
      "channel": 2,
      "note": 59,
      "start": 5.5842,
      "duration": 0.7776,
      "velocity": 72,
      "chip": "ym2612"
    },
    {
      "channel": 3,
      "note": 68,
      "start": 5.6175,
      "duration": 0.1983,
      "velocity": 99,
      "chip": "ym2612"
    },
    {
      "channel": 4,
      "note": 71,
      "start": 5.6182,
      "duration": 0.1983,
      "velocity": 99,
      "chip": "ym2612"
    },
    {
      "channel": 3,
      "note": 71,
      "start": 5.8161,
      "duration": 0.1983,
      "velocity": 99,
      "chip": "ym2612"
    },
    {
      "channel": 4,
      "note": 68,
      "start": 5.8168,
      "duration": 0.1983,
      "velocity": 99,
      "chip": "ym2612"
    },
    {
      "channel": 1,
      "note": 65,
      "start": 5.981,
      "duration": 0.7778,
      "velocity": 72,
      "chip": "ym2612"
    },
    {
      "channel": 3,
      "note": 73,
      "start": 6.0147,
      "duration": 0.1983,
      "velocity": 99,
      "chip": "ym2612"
    },
    {
      "channel": 4,
      "note": 71,
      "start": 6.0155,
      "duration": 0.1983,
      "velocity": 99,
      "chip": "ym2612"
    },
    {
      "channel": 3,
      "note": 77,
      "start": 6.2134,
      "duration": 0.1983,
      "velocity": 99,
      "chip": "ym2612"
    },
    {
      "channel": 4,
      "note": 73,
      "start": 6.2141,
      "duration": 0.1983,
      "velocity": 99,
      "chip": "ym2612"
    },
    {
      "channel": 0,
      "note": 68,
      "start": 6.3781,
      "duration": 1.5722,
      "velocity": 72,
      "chip": "ym2612"
    },
    {
      "channel": 2,
      "note": 62,
      "start": 6.379,
      "duration": 1.5719,
      "velocity": 72,
      "chip": "ym2612"
    },
    {
      "channel": 3,
      "note": 80,
      "start": 6.4121,
      "duration": 0.1982,
      "velocity": 99,
      "chip": "ym2612"
    },
    {
      "channel": 4,
      "note": 77,
      "start": 6.4128,
      "duration": 0.1982,
      "velocity": 99,
      "chip": "ym2612"
    },
    {
      "channel": 3,
      "note": 83,
      "start": 6.6106,
      "duration": 0.1983,
      "velocity": 99,
      "chip": "ym2612"
    },
    {
      "channel": 4,
      "note": 80,
      "start": 6.6115,
      "duration": 0.1982,
      "velocity": 99,
      "chip": "ym2612"
    },
    {
      "channel": 1,
      "note": 68,
      "start": 6.7756,
      "duration": 1.5722,
      "velocity": 72,
      "chip": "ym2612"
    },
    {
      "channel": 3,
      "note": 80,
      "start": 6.8093,
      "duration": 0.1985,
      "velocity": 99,
      "chip": "ym2612"
    },
    {
      "channel": 4,
      "note": 83,
      "start": 6.81,
      "duration": 0.1985,
      "velocity": 99,
      "chip": "ym2612"
    },
    {
      "channel": 3,
      "note": 77,
      "start": 7.008,
      "duration": 0.1989,
      "velocity": 99,
      "chip": "ym2612"
    },
    {
      "channel": 4,
      "note": 80,
      "start": 7.0088,
      "duration": 0.1989,
      "velocity": 99,
      "chip": "ym2612"
    },
    {
      "channel": 3,
      "note": 74,
      "start": 7.2073,
      "duration": 0.1976,
      "velocity": 99,
      "chip": "ym2612"
    },
    {
      "channel": 4,
      "note": 77,
      "start": 7.208,
      "duration": 0.1976,
      "velocity": 99,
      "chip": "ym2612"
    },
    {
      "channel": 3,
      "note": 71,
      "start": 7.4052,
      "duration": 0.1983,
      "velocity": 99,
      "chip": "ym2612"
    },
    {
      "channel": 4,
      "note": 74,
      "start": 7.4066,
      "duration": 0.1977,
      "velocity": 99,
      "chip": "ym2612"
    },
    {
      "channel": 3,
      "note": 68,
      "start": 7.6039,
      "duration": 0.1983,
      "velocity": 99,
      "chip": "ym2612"
    },
    {
      "channel": 4,
      "note": 71,
      "start": 7.6046,
      "duration": 0.1983,
      "velocity": 99,
      "chip": "ym2612"
    },
    {
      "channel": 3,
      "note": 65,
      "start": 7.8024,
      "duration": 0.1982,
      "velocity": 99,
      "chip": "ym2612"
    },
    {
      "channel": 4,
      "note": 68,
      "start": 7.8032,
      "duration": 0.1982,
      "velocity": 99,
      "chip": "ym2612"
    },
    {
      "channel": 0,
      "note": 66,
      "start": 7.967,
      "duration": 1.5729,
      "velocity": 72,
      "chip": "ym2612"
    },
    {
      "channel": 2,
      "note": 63,
      "start": 7.9678,
      "duration": 1.5728,
      "velocity": 72,
      "chip": "ym2612"
    },
    {
      "channel": 3,
      "note": 62,
      "start": 8.001,
      "duration": 0.1983,
      "velocity": 99,
      "chip": "ym2612"
    },
    {
      "channel": 4,
      "note": 65,
      "start": 8.0017,
      "duration": 0.1983,
      "velocity": 99,
      "chip": "ym2612"
    },
    {
      "channel": 3,
      "note": 83,
      "start": 8.1997,
      "duration": 0.1983,
      "velocity": 99,
      "chip": "ym2612"
    },
    {
      "channel": 4,
      "note": 62,
      "start": 8.2004,
      "duration": 0.1984,
      "velocity": 99,
      "chip": "ym2612"
    },
    {
      "channel": 1,
      "note": 66,
      "start": 8.3645,
      "duration": 1.5724,
      "velocity": 72,
      "chip": "ym2612"
    },
    {
      "channel": 3,
      "note": 82,
      "start": 8.3983,
      "duration": 0.1983,
      "velocity": 99,
      "chip": "ym2612"
    },
    {
      "channel": 4,
      "note": 83,
      "start": 8.3991,
      "duration": 0.1983,
      "velocity": 99,
      "chip": "ym2612"
    },
    {
      "channel": 3,
      "note": 90,
      "start": 8.597,
      "duration": 0.1983,
      "velocity": 99,
      "chip": "ym2612"
    },
    {
      "channel": 4,
      "note": 82,
      "start": 8.5978,
      "duration": 0.1983,
      "velocity": 99,
      "chip": "ym2612"
    },
    {
      "channel": 3,
      "note": 87,
      "start": 8.7956,
      "duration": 0.1983,
      "velocity": 99,
      "chip": "ym2612"
    },
    {
      "channel": 4,
      "note": 90,
      "start": 8.7963,
      "duration": 0.1983,
      "velocity": 99,
      "chip": "ym2612"
    },
    {
      "channel": 3,
      "note": 83,
      "start": 8.9942,
      "duration": 0.1983,
      "velocity": 99,
      "chip": "ym2612"
    },
    {
      "channel": 4,
      "note": 87,
      "start": 8.9949,
      "duration": 0.1983,
      "velocity": 99,
      "chip": "ym2612"
    },
    {
      "channel": 3,
      "note": 82,
      "start": 9.1929,
      "duration": 0.1983,
      "velocity": 99,
      "chip": "ym2612"
    },
    {
      "channel": 4,
      "note": 83,
      "start": 9.1936,
      "duration": 0.1983,
      "velocity": 99,
      "chip": "ym2612"
    },
    {
      "channel": 3,
      "note": 78,
      "start": 9.3915,
      "duration": 0.1989,
      "velocity": 99,
      "chip": "ym2612"
    },
    {
      "channel": 4,
      "note": 82,
      "start": 9.3923,
      "duration": 0.1989,
      "velocity": 99,
      "chip": "ym2612"
    },
    {
      "channel": 0,
      "note": 59,
      "start": 9.5567,
      "duration": 1.5716,
      "velocity": 72,
      "chip": "ym2612"
    },
    {
      "channel": 2,
      "note": 55,
      "start": 9.5576,
      "duration": 1.5713,
      "velocity": 72,
      "chip": "ym2612"
    },
    {
      "channel": 3,
      "note": 75,
      "start": 9.5907,
      "duration": 0.1976,
      "velocity": 99,
      "chip": "ym2612"
    },
    {
      "channel": 4,
      "note": 78,
      "start": 9.5915,
      "duration": 0.1978,
      "velocity": 99,
      "chip": "ym2612"
    },
    {
      "channel": 3,
      "note": 95,
      "start": 9.7886,
      "duration": 0.1984,
      "velocity": 99,
      "chip": "ym2612"
    },
    {
      "channel": 4,
      "note": 75,
      "start": 9.7901,
      "duration": 0.1977,
      "velocity": 99,
      "chip": "ym2612"
    },
    {
      "channel": 1,
      "note": 59,
      "start": 9.9535,
      "duration": 1.5723,
      "velocity": 72,
      "chip": "ym2612"
    },
    {
      "channel": 3,
      "note": 91,
      "start": 9.9874,
      "duration": 0.1983,
      "velocity": 99,
      "chip": "ym2612"
    },
    {
      "channel": 4,
      "note": 95,
      "start": 9.9881,
      "duration": 0.1983,
      "velocity": 99,
      "chip": "ym2612"
    },
    {
      "channel": 3,
      "note": 88,
      "start": 10.186,
      "duration": 0.1983,
      "velocity": 99,
      "chip": "ym2612"
    },
    {
      "channel": 4,
      "note": 91,
      "start": 10.1867,
      "duration": 0.1983,
      "velocity": 99,
      "chip": "ym2612"
    },
    {
      "channel": 3,
      "note": 86,
      "start": 10.3846,
      "duration": 0.1983,
      "velocity": 99,
      "chip": "ym2612"
    },
    {
      "channel": 4,
      "note": 88,
      "start": 10.3854,
      "duration": 0.1983,
      "velocity": 99,
      "chip": "ym2612"
    },
    {
      "channel": 3,
      "note": 85,
      "start": 10.5832,
      "duration": 0.1983,
      "velocity": 99,
      "chip": "ym2612"
    },
    {
      "channel": 4,
      "note": 86,
      "start": 10.584,
      "duration": 0.1983,
      "velocity": 99,
      "chip": "ym2612"
    },
    {
      "channel": 3,
      "note": 83,
      "start": 10.7818,
      "duration": 0.1983,
      "velocity": 99,
      "chip": "ym2612"
    },
    {
      "channel": 4,
      "note": 85,
      "start": 10.7826,
      "duration": 0.1983,
      "velocity": 99,
      "chip": "ym2612"
    },
    {
      "channel": 3,
      "note": 79,
      "start": 10.9805,
      "duration": 0.1982,
      "velocity": 99,
      "chip": "ym2612"
    },
    {
      "channel": 4,
      "note": 83,
      "start": 10.9813,
      "duration": 0.1982,
      "velocity": 99,
      "chip": "ym2612"
    },
    {
      "channel": 0,
      "note": 64,
      "start": 11.1451,
      "duration": 1.5723,
      "velocity": 72,
      "chip": "ym2612"
    },
    {
      "channel": 2,
      "note": 61,
      "start": 11.1459,
      "duration": 1.5721,
      "velocity": 72,
      "chip": "ym2612"
    },
    {
      "channel": 3,
      "note": 76,
      "start": 11.179,
      "duration": 0.1983,
      "velocity": 99,
      "chip": "ym2612"
    },
    {
      "channel": 4,
      "note": 79,
      "start": 11.1798,
      "duration": 0.1983,
      "velocity": 99,
      "chip": "ym2612"
    },
    {
      "channel": 3,
      "note": 71,
      "start": 11.3777,
      "duration": 0.1983,
      "velocity": 99,
      "chip": "ym2612"
    },
    {
      "channel": 4,
      "note": 76,
      "start": 11.3785,
      "duration": 0.1983,
      "velocity": 99,
      "chip": "ym2612"
    },
    {
      "channel": 1,
      "note": 64,
      "start": 11.5426,
      "duration": 1.5723,
      "velocity": 72,
      "chip": "ym2612"
    },
    {
      "channel": 3,
      "note": 73,
      "start": 11.5764,
      "duration": 0.1984,
      "velocity": 99,
      "chip": "ym2612"
    },
    {
      "channel": 4,
      "note": 71,
      "start": 11.5771,
      "duration": 0.1983,
      "velocity": 99,
      "chip": "ym2612"
    },
    {
      "channel": 3,
      "note": 76,
      "start": 11.7751,
      "duration": 0.199,
      "velocity": 99,
      "chip": "ym2612"
    },
    {
      "channel": 4,
      "note": 73,
      "start": 11.7759,
      "duration": 0.199,
      "velocity": 99,
      "chip": "ym2612"
    },
    {
      "channel": 3,
      "note": 79,
      "start": 11.9745,
      "duration": 0.1976,
      "velocity": 99,
      "chip": "ym2612"
    },
    {
      "channel": 4,
      "note": 76,
      "start": 11.9752,
      "duration": 0.1982,
      "velocity": 99,
      "chip": "ym2612"
    },
    {
      "channel": 3,
      "note": 83,
      "start": 12.1724,
      "duration": 0.1982,
      "velocity": 99,
      "chip": "ym2612"
    },
    {
      "channel": 4,
      "note": 79,
      "start": 12.1738,
      "duration": 0.1975,
      "velocity": 99,
      "chip": "ym2612"
    },
    {
      "channel": 3,
      "note": 85,
      "start": 12.3709,
      "duration": 0.1983,
      "velocity": 99,
      "chip": "ym2612"
    },
    {
      "channel": 4,
      "note": 83,
      "start": 12.3717,
      "duration": 0.1984,
      "velocity": 99,
      "chip": "ym2612"
    },
    {
      "channel": 3,
      "note": 88,
      "start": 12.5696,
      "duration": 0.1983,
      "velocity": 99,
      "chip": "ym2612"
    },
    {
      "channel": 4,
      "note": 85,
      "start": 12.5703,
      "duration": 0.1983,
      "velocity": 99,
      "chip": "ym2612"
    },
    {
      "channel": 0,
      "note": 63,
      "start": 12.7341,
      "duration": 1.5727,
      "velocity": 72,
      "chip": "ym2612"
    },
    {
      "channel": 2,
      "note": 59,
      "start": 12.735,
      "duration": 1.5724,
      "velocity": 72,
      "chip": "ym2612"
    },
    {
      "channel": 3,
      "note": 91,
      "start": 12.7682,
      "duration": 0.1983,
      "velocity": 99,
      "chip": "ym2612"
    },
    {
      "channel": 4,
      "note": 88,
      "start": 12.7689,
      "duration": 0.1983,
      "velocity": 99,
      "chip": "ym2612"
    },
    {
      "channel": 3,
      "note": 90,
      "start": 12.9668,
      "duration": 0.1983,
      "velocity": 99,
      "chip": "ym2612"
    },
    {
      "channel": 4,
      "note": 91,
      "start": 12.9675,
      "duration": 0.1983,
      "velocity": 99,
      "chip": "ym2612"
    },
    {
      "channel": 1,
      "note": 63,
      "start": 13.1317,
      "duration": 1.5723,
      "velocity": 72,
      "chip": "ym2612"
    },
    {
      "channel": 3,
      "note": 87,
      "start": 13.1654,
      "duration": 0.1983,
      "velocity": 99,
      "chip": "ym2612"
    },
    {
      "channel": 4,
      "note": 90,
      "start": 13.1662,
      "duration": 0.1983,
      "velocity": 99,
      "chip": "ym2612"
    },
    {
      "channel": 3,
      "note": 92,
      "start": 13.3641,
      "duration": 0.1983,
      "velocity": 99,
      "chip": "ym2612"
    },
    {
      "channel": 4,
      "note": 87,
      "start": 13.3649,
      "duration": 0.1983,
      "velocity": 99,
      "chip": "ym2612"
    },
    {
      "channel": 3,
      "note": 90,
      "start": 13.5628,
      "duration": 0.1983,
      "velocity": 99,
      "chip": "ym2612"
    },
    {
      "channel": 4,
      "note": 92,
      "start": 13.5635,
      "duration": 0.1983,
      "velocity": 99,
      "chip": "ym2612"
    },
    {
      "channel": 3,
      "note": 95,
      "start": 13.7614,
      "duration": 0.1983,
      "velocity": 99,
      "chip": "ym2612"
    },
    {
      "channel": 4,
      "note": 90,
      "start": 13.7621,
      "duration": 0.1983,
      "velocity": 99,
      "chip": "ym2612"
    },
    {
      "channel": 3,
      "note": 94,
      "start": 13.96,
      "duration": 0.1983,
      "velocity": 99,
      "chip": "ym2612"
    },
    {
      "channel": 4,
      "note": 95,
      "start": 13.9607,
      "duration": 0.1983,
      "velocity": 99,
      "chip": "ym2612"
    },
    {
      "channel": 3,
      "note": 97,
      "start": 14.1586,
      "duration": 0.1989,
      "velocity": 99,
      "chip": "ym2612"
    },
    {
      "channel": 4,
      "note": 94,
      "start": 14.1594,
      "duration": 0.1989,
      "velocity": 99,
      "chip": "ym2612"
    },
    {
      "channel": 0,
      "note": 63,
      "start": 14.3237,
      "duration": 1.5718,
      "velocity": 72,
      "chip": "ym2612"
    },
    {
      "channel": 2,
      "note": 59,
      "start": 14.3245,
      "duration": 1.5715,
      "velocity": 72,
      "chip": "ym2612"
    },
    {
      "channel": 3,
      "note": 95,
      "start": 14.3579,
      "duration": 0.1976,
      "velocity": 99,
      "chip": "ym2612"
    },
    {
      "channel": 4,
      "note": 97,
      "start": 14.3586,
      "duration": 0.1983,
      "velocity": 99,
      "chip": "ym2612"
    },
    {
      "channel": 3,
      "note": 100,
      "start": 14.5562,
      "duration": 0.198,
      "velocity": 99,
      "chip": "ym2612"
    },
    {
      "channel": 4,
      "note": 95,
      "start": 14.5573,
      "duration": 0.1977,
      "velocity": 99,
      "chip": "ym2612"
    },
    {
      "channel": 1,
      "note": 63,
      "start": 14.7207,
      "duration": 1.5723,
      "velocity": 72,
      "chip": "ym2612"
    },
    {
      "channel": 3,
      "note": 99,
      "start": 14.7545,
      "duration": 0.1983,
      "velocity": 99,
      "chip": "ym2612"
    },
    {
      "channel": 4,
      "note": 100,
      "start": 14.7553,
      "duration": 0.1983,
      "velocity": 99,
      "chip": "ym2612"
    },
    {
      "channel": 3,
      "note": 104,
      "start": 14.9531,
      "duration": 0.1983,
      "velocity": 99,
      "chip": "ym2612"
    },
    {
      "channel": 4,
      "note": 99,
      "start": 14.9539,
      "duration": 0.1983,
      "velocity": 99,
      "chip": "ym2612"
    },
    {
      "channel": 3,
      "note": 102,
      "start": 15.1517,
      "duration": 0.1983,
      "velocity": 99,
      "chip": "ym2612"
    },
    {
      "channel": 4,
      "note": 104,
      "start": 15.1525,
      "duration": 0.1983,
      "velocity": 99,
      "chip": "ym2612"
    },
    {
      "channel": 3,
      "note": 100,
      "start": 15.3504,
      "duration": 0.1983,
      "velocity": 99,
      "chip": "ym2612"
    },
    {
      "channel": 4,
      "note": 102,
      "start": 15.3512,
      "duration": 0.1983,
      "velocity": 99,
      "chip": "ym2612"
    },
    {
      "channel": 3,
      "note": 99,
      "start": 15.549,
      "duration": 0.1983,
      "velocity": 99,
      "chip": "ym2612"
    },
    {
      "channel": 4,
      "note": 100,
      "start": 15.5498,
      "duration": 0.1983,
      "velocity": 99,
      "chip": "ym2612"
    },
    {
      "channel": 3,
      "note": 97,
      "start": 15.7477,
      "duration": 0.1982,
      "velocity": 99,
      "chip": "ym2612"
    },
    {
      "channel": 4,
      "note": 99,
      "start": 15.7484,
      "duration": 0.1982,
      "velocity": 99,
      "chip": "ym2612"
    },
    {
      "channel": 0,
      "note": 67,
      "start": 15.9122,
      "duration": 1.5723,
      "velocity": 72,
      "chip": "ym2612"
    },
    {
      "channel": 2,
      "note": 64,
      "start": 15.913,
      "duration": 1.5721,
      "velocity": 72,
      "chip": "ym2612"
    },
    {
      "channel": 3,
      "note": 95,
      "start": 15.9462,
      "duration": 0.1983,
      "velocity": 99,
      "chip": "ym2612"
    },
    {
      "channel": 4,
      "note": 97,
      "start": 15.947,
      "duration": 0.1983,
      "velocity": 99,
      "chip": "ym2612"
    },
    {
      "channel": 3,
      "note": 94,
      "start": 16.1448,
      "duration": 0.1984,
      "velocity": 99,
      "chip": "ym2612"
    },
    {
      "channel": 4,
      "note": 95,
      "start": 16.1456,
      "duration": 0.1983,
      "velocity": 99,
      "chip": "ym2612"
    },
    {
      "channel": 1,
      "note": 67,
      "start": 16.3098,
      "duration": 1.5723,
      "velocity": 72,
      "chip": "ym2612"
    },
    {
      "channel": 3,
      "note": 91,
      "start": 16.3435,
      "duration": 0.1983,
      "velocity": 99,
      "chip": "ym2612"
    },
    {
      "channel": 4,
      "note": 94,
      "start": 16.3443,
      "duration": 0.1983,
      "velocity": 99,
      "chip": "ym2612"
    },
    {
      "channel": 3,
      "note": 88,
      "start": 16.5422,
      "duration": 0.1988,
      "velocity": 99,
      "chip": "ym2612"
    },
    {
      "channel": 4,
      "note": 91,
      "start": 16.5429,
      "duration": 0.1989,
      "velocity": 99,
      "chip": "ym2612"
    },
    {
      "channel": 3,
      "note": 85,
      "start": 16.7413,
      "duration": 0.198,
      "velocity": 99,
      "chip": "ym2612"
    },
    {
      "channel": 4,
      "note": 88,
      "start": 16.7421,
      "duration": 0.1985,
      "velocity": 99,
      "chip": "ym2612"
    },
    {
      "channel": 3,
      "note": 82,
      "start": 16.9401,
      "duration": 0.1976,
      "velocity": 99,
      "chip": "ym2612"
    },
    {
      "channel": 4,
      "note": 85,
      "start": 16.9409,
      "duration": 0.1975,
      "velocity": 99,
      "chip": "ym2612"
    },
    {
      "channel": 3,
      "note": 79,
      "start": 17.138,
      "duration": 0.1983,
      "velocity": 99,
      "chip": "ym2612"
    },
    {
      "channel": 4,
      "note": 82,
      "start": 17.1388,
      "duration": 0.1983,
      "velocity": 99,
      "chip": "ym2612"
    },
    {
      "channel": 3,
      "note": 76,
      "start": 17.3367,
      "duration": 0.1983,
      "velocity": 99,
      "chip": "ym2612"
    },
    {
      "channel": 4,
      "note": 79,
      "start": 17.3374,
      "duration": 0.1983,
      "velocity": 99,
      "chip": "ym2612"
    },
    {
      "channel": 0,
      "note": 64,
      "start": 17.5012,
      "duration": 1.5724,
      "velocity": 72,
      "chip": "ym2612"
    },
    {
      "channel": 2,
      "note": 59,
      "start": 17.5021,
      "duration": 1.5722,
      "velocity": 72,
      "chip": "ym2612"
    },
    {
      "channel": 3,
      "note": 73,
      "start": 17.5353,
      "duration": 0.1983,
      "velocity": 99,
      "chip": "ym2612"
    },
    {
      "channel": 4,
      "note": 76,
      "start": 17.536,
      "duration": 0.1983,
      "velocity": 99,
      "chip": "ym2612"
    },
    {
      "channel": 3,
      "note": 71,
      "start": 17.7339,
      "duration": 0.1983,
      "velocity": 99,
      "chip": "ym2612"
    },
    {
      "channel": 4,
      "note": 73,
      "start": 17.7346,
      "duration": 0.1983,
      "velocity": 99,
      "chip": "ym2612"
    },
    {
      "channel": 1,
      "note": 64,
      "start": 17.8988,
      "duration": 1.5723,
      "velocity": 72,
      "chip": "ym2612"
    },
    {
      "channel": 3,
      "note": 73,
      "start": 17.9325,
      "duration": 0.1983,
      "velocity": 99,
      "chip": "ym2612"
    },
    {
      "channel": 4,
      "note": 71,
      "start": 17.9333,
      "duration": 0.1983,
      "velocity": 99,
      "chip": "ym2612"
    },
    {
      "channel": 3,
      "note": 76,
      "start": 18.1312,
      "duration": 0.1983,
      "velocity": 99,
      "chip": "ym2612"
    },
    {
      "channel": 4,
      "note": 73,
      "start": 18.132,
      "duration": 0.1983,
      "velocity": 99,
      "chip": "ym2612"
    },
    {
      "channel": 3,
      "note": 79,
      "start": 18.3299,
      "duration": 0.1983,
      "velocity": 99,
      "chip": "ym2612"
    },
    {
      "channel": 4,
      "note": 76,
      "start": 18.3306,
      "duration": 0.1983,
      "velocity": 99,
      "chip": "ym2612"
    },
    {
      "channel": 3,
      "note": 83,
      "start": 18.5285,
      "duration": 0.1983,
      "velocity": 99,
      "chip": "ym2612"
    },
    {
      "channel": 4,
      "note": 79,
      "start": 18.5292,
      "duration": 0.1983,
      "velocity": 99,
      "chip": "ym2612"
    },
    {
      "channel": 3,
      "note": 85,
      "start": 18.7271,
      "duration": 0.1983,
      "velocity": 99,
      "chip": "ym2612"
    },
    {
      "channel": 4,
      "note": 83,
      "start": 18.7279,
      "duration": 0.1983,
      "velocity": 99,
      "chip": "ym2612"
    },
    {
      "channel": 3,
      "note": 88,
      "start": 18.9257,
      "duration": 0.1986,
      "velocity": 99,
      "chip": "ym2612"
    },
    {
      "channel": 4,
      "note": 85,
      "start": 18.9265,
      "duration": 0.1986,
      "velocity": 99,
      "chip": "ym2612"
    },
    {
      "channel": 0,
      "note": 66,
      "start": 19.0904,
      "duration": 1.5722,
      "velocity": 72,
      "chip": "ym2612"
    },
    {
      "channel": 2,
      "note": 63,
      "start": 19.0912,
      "duration": 1.572,
      "velocity": 72,
      "chip": "ym2612"
    },
    {
      "channel": 3,
      "note": 91,
      "start": 19.1246,
      "duration": 0.1986,
      "velocity": 99,
      "chip": "ym2612"
    },
    {
      "channel": 4,
      "note": 88,
      "start": 19.1254,
      "duration": 0.1987,
      "velocity": 99,
      "chip": "ym2612"
    },
    {
      "channel": 3,
      "note": 90,
      "start": 19.3236,
      "duration": 0.1977,
      "velocity": 99,
      "chip": "ym2612"
    },
    {
      "channel": 4,
      "note": 91,
      "start": 19.3244,
      "duration": 0.1976,
      "velocity": 99,
      "chip": "ym2612"
    },
    {
      "channel": 1,
      "note": 66,
      "start": 19.4878,
      "duration": 1.5723,
      "velocity": 72,
      "chip": "ym2612"
    },
    {
      "channel": 3,
      "note": 87,
      "start": 19.5216,
      "duration": 0.1983,
      "velocity": 99,
      "chip": "ym2612"
    },
    {
      "channel": 4,
      "note": 90,
      "start": 19.5224,
      "duration": 0.1983,
      "velocity": 99,
      "chip": "ym2612"
    },
    {
      "channel": 3,
      "note": 92,
      "start": 19.7202,
      "duration": 0.1983,
      "velocity": 99,
      "chip": "ym2612"
    },
    {
      "channel": 4,
      "note": 87,
      "start": 19.721,
      "duration": 0.1983,
      "velocity": 99,
      "chip": "ym2612"
    },
    {
      "channel": 3,
      "note": 90,
      "start": 19.9189,
      "duration": 0.1983,
      "velocity": 99,
      "chip": "ym2612"
    },
    {
      "channel": 4,
      "note": 92,
      "start": 19.9196,
      "duration": 0.1983,
      "velocity": 99,
      "chip": "ym2612"
    },
    {
      "channel": 3,
      "note": 95,
      "start": 20.1175,
      "duration": 0.1983,
      "velocity": 99,
      "chip": "ym2612"
    },
    {
      "channel": 4,
      "note": 90,
      "start": 20.1183,
      "duration": 0.1983,
      "velocity": 99,
      "chip": "ym2612"
    },
    {
      "channel": 3,
      "note": 94,
      "start": 20.3161,
      "duration": 0.1983,
      "velocity": 99,
      "chip": "ym2612"
    },
    {
      "channel": 4,
      "note": 95,
      "start": 20.3169,
      "duration": 0.1983,
      "velocity": 99,
      "chip": "ym2612"
    },
    {
      "channel": 3,
      "note": 97,
      "start": 20.5147,
      "duration": 0.1983,
      "velocity": 99,
      "chip": "ym2612"
    },
    {
      "channel": 4,
      "note": 94,
      "start": 20.5155,
      "duration": 0.1983,
      "velocity": 99,
      "chip": "ym2612"
    },
    {
      "channel": 0,
      "note": 66,
      "start": 20.6794,
      "duration": 1.5723,
      "velocity": 72,
      "chip": "ym2612"
    },
    {
      "channel": 2,
      "note": 63,
      "start": 20.6801,
      "duration": 1.5721,
      "velocity": 72,
      "chip": "ym2612"
    },
    {
      "channel": 3,
      "note": 95,
      "start": 20.7133,
      "duration": 0.1983,
      "velocity": 99,
      "chip": "ym2612"
    },
    {
      "channel": 4,
      "note": 97,
      "start": 20.7141,
      "duration": 0.1983,
      "velocity": 99,
      "chip": "ym2612"
    },
    {
      "channel": 3,
      "note": 99,
      "start": 20.912,
      "duration": 0.1983,
      "velocity": 99,
      "chip": "ym2612"
    },
    {
      "channel": 4,
      "note": 95,
      "start": 20.9128,
      "duration": 0.1983,
      "velocity": 99,
      "chip": "ym2612"
    },
    {
      "channel": 1,
      "note": 66,
      "start": 21.0768,
      "duration": 1.5723,
      "velocity": 72,
      "chip": "ym2612"
    },
    {
      "channel": 3,
      "note": 95,
      "start": 21.1107,
      "duration": 0.1983,
      "velocity": 99,
      "chip": "ym2612"
    },
    {
      "channel": 4,
      "note": 99,
      "start": 21.1114,
      "duration": 0.1983,
      "velocity": 99,
      "chip": "ym2612"
    },
    {
      "channel": 3,
      "note": 94,
      "start": 21.3093,
      "duration": 0.1986,
      "velocity": 99,
      "chip": "ym2612"
    },
    {
      "channel": 4,
      "note": 95,
      "start": 21.31,
      "duration": 0.1986,
      "velocity": 99,
      "chip": "ym2612"
    },
    {
      "channel": 3,
      "note": 90,
      "start": 21.5082,
      "duration": 0.1988,
      "velocity": 99,
      "chip": "ym2612"
    },
    {
      "channel": 4,
      "note": 94,
      "start": 21.5089,
      "duration": 0.1988,
      "velocity": 99,
      "chip": "ym2612"
    },
    {
      "channel": 3,
      "note": 87,
      "start": 21.7073,
      "duration": 0.1975,
      "velocity": 99,
      "chip": "ym2612"
    },
    {
      "channel": 4,
      "note": 90,
      "start": 21.7081,
      "duration": 0.1975,
      "velocity": 99,
      "chip": "ym2612"
    },
    {
      "channel": 3,
      "note": 83,
      "start": 21.9052,
      "duration": 0.1983,
      "velocity": 99,
      "chip": "ym2612"
    },
    {
      "channel": 4,
      "note": 87,
      "start": 21.9066,
      "duration": 0.1977,
      "velocity": 99,
      "chip": "ym2612"
    },
    {
      "channel": 3,
      "note": 82,
      "start": 22.1039,
      "duration": 0.1982,
      "velocity": 99,
      "chip": "ym2612"
    },
    {
      "channel": 4,
      "note": 83,
      "start": 22.1046,
      "duration": 0.1982,
      "velocity": 99,
      "chip": "ym2612"
    },
    {
      "channel": 0,
      "note": 67,
      "start": 22.2684,
      "duration": 1.5722,
      "velocity": 72,
      "chip": "ym2612"
    },
    {
      "channel": 2,
      "note": 64,
      "start": 22.2692,
      "duration": 1.572,
      "velocity": 72,
      "chip": "ym2612"
    },
    {
      "channel": 3,
      "note": 78,
      "start": 22.3024,
      "duration": 0.1983,
      "velocity": 99,
      "chip": "ym2612"
    },
    {
      "channel": 4,
      "note": 82,
      "start": 22.3032,
      "duration": 0.1983,
      "velocity": 99,
      "chip": "ym2612"
    },
    {
      "channel": 3,
      "note": 71,
      "start": 22.501,
      "duration": 0.1983,
      "velocity": 99,
      "chip": "ym2612"
    },
    {
      "channel": 4,
      "note": 78,
      "start": 22.5017,
      "duration": 0.1983,
      "velocity": 99,
      "chip": "ym2612"
    },
    {
      "channel": 1,
      "note": 67,
      "start": 22.6659,
      "duration": 1.5723,
      "velocity": 72,
      "chip": "ym2612"
    },
    {
      "channel": 3,
      "note": 73,
      "start": 22.6997,
      "duration": 0.1983,
      "velocity": 99,
      "chip": "ym2612"
    },
    {
      "channel": 4,
      "note": 71,
      "start": 22.7004,
      "duration": 0.1984,
      "velocity": 99,
      "chip": "ym2612"
    },
    {
      "channel": 3,
      "note": 76,
      "start": 22.8983,
      "duration": 0.1983,
      "velocity": 99,
      "chip": "ym2612"
    },
    {
      "channel": 4,
      "note": 73,
      "start": 22.8991,
      "duration": 0.1983,
      "velocity": 99,
      "chip": "ym2612"
    },
    {
      "channel": 3,
      "note": 79,
      "start": 23.097,
      "duration": 0.1983,
      "velocity": 99,
      "chip": "ym2612"
    },
    {
      "channel": 4,
      "note": 76,
      "start": 23.0978,
      "duration": 0.1983,
      "velocity": 99,
      "chip": "ym2612"
    },
    {
      "channel": 3,
      "note": 83,
      "start": 23.2956,
      "duration": 0.1983,
      "velocity": 99,
      "chip": "ym2612"
    },
    {
      "channel": 4,
      "note": 79,
      "start": 23.2963,
      "duration": 0.1983,
      "velocity": 99,
      "chip": "ym2612"
    },
    {
      "channel": 3,
      "note": 85,
      "start": 23.4942,
      "duration": 0.1983,
      "velocity": 99,
      "chip": "ym2612"
    },
    {
      "channel": 4,
      "note": 83,
      "start": 23.4949,
      "duration": 0.1983,
      "velocity": 99,
      "chip": "ym2612"
    },
    {
      "channel": 3,
      "note": 88,
      "start": 23.6929,
      "duration": 0.1983,
      "velocity": 99,
      "chip": "ym2612"
    },
    {
      "channel": 4,
      "note": 85,
      "start": 23.6936,
      "duration": 0.1983,
      "velocity": 99,
      "chip": "ym2612"
    },
    {
      "channel": 0,
      "note": 64,
      "start": 23.8574,
      "duration": 1.5723,
      "velocity": 72,
      "chip": "ym2612"
    },
    {
      "channel": 2,
      "note": 55,
      "start": 23.8583,
      "duration": 1.5721,
      "velocity": 72,
      "chip": "ym2612"
    },
    {
      "channel": 3,
      "note": 91,
      "start": 23.8915,
      "duration": 0.199,
      "velocity": 99,
      "chip": "ym2612"
    },
    {
      "channel": 4,
      "note": 88,
      "start": 23.8922,
      "duration": 0.199,
      "velocity": 99,
      "chip": "ym2612"
    },
    {
      "channel": 3,
      "note": 83,
      "start": 24.0907,
      "duration": 0.1976,
      "velocity": 99,
      "chip": "ym2612"
    },
    {
      "channel": 4,
      "note": 91,
      "start": 24.0915,
      "duration": 0.1978,
      "velocity": 99,
      "chip": "ym2612"
    },
    {
      "channel": 1,
      "note": 64,
      "start": 24.2549,
      "duration": 1.5723,
      "velocity": 72,
      "chip": "ym2612"
    },
    {
      "channel": 3,
      "note": 82,
      "start": 24.2887,
      "duration": 0.1983,
      "velocity": 99,
      "chip": "ym2612"
    },
    {
      "channel": 4,
      "note": 83,
      "start": 24.2901,
      "duration": 0.1977,
      "velocity": 99,
      "chip": "ym2612"
    },
    {
      "channel": 3,
      "note": 85,
      "start": 24.4874,
      "duration": 0.1983,
      "velocity": 99,
      "chip": "ym2612"
    },
    {
      "channel": 4,
      "note": 82,
      "start": 24.4881,
      "duration": 0.1983,
      "velocity": 99,
      "chip": "ym2612"
    },
    {
      "channel": 3,
      "note": 83,
      "start": 24.686,
      "duration": 0.1983,
      "velocity": 99,
      "chip": "ym2612"
    },
    {
      "channel": 4,
      "note": 85,
      "start": 24.6868,
      "duration": 0.1983,
      "velocity": 99,
      "chip": "ym2612"
    },
    {
      "channel": 3,
      "note": 86,
      "start": 24.8846,
      "duration": 0.1983,
      "velocity": 99,
      "chip": "ym2612"
    },
    {
      "channel": 4,
      "note": 83,
      "start": 24.8854,
      "duration": 0.1983,
      "velocity": 99,
      "chip": "ym2612"
    },
    {
      "channel": 3,
      "note": 85,
      "start": 25.0832,
      "duration": 0.1983,
      "velocity": 99,
      "chip": "ym2612"
    },
    {
      "channel": 4,
      "note": 86,
      "start": 25.084,
      "duration": 0.1983,
      "velocity": 99,
      "chip": "ym2612"
    },
    {
      "channel": 3,
      "note": 88,
      "start": 25.2819,
      "duration": 0.1982,
      "velocity": 99,
      "chip": "ym2612"
    },
    {
      "channel": 4,
      "note": 85,
      "start": 25.2827,
      "duration": 0.1982,
      "velocity": 99,
      "chip": "ym2612"
    },
    {
      "channel": 0,
      "note": 63,
      "start": 25.4464,
      "duration": 1.5723,
      "velocity": 72,
      "chip": "ym2612"
    },
    {
      "channel": 2,
      "note": 59,
      "start": 25.4472,
      "duration": 1.5721,
      "velocity": 72,
      "chip": "ym2612"
    },
    {
      "channel": 3,
      "note": 86,
      "start": 25.4805,
      "duration": 0.1983,
      "velocity": 99,
      "chip": "ym2612"
    },
    {
      "channel": 4,
      "note": 88,
      "start": 25.4812,
      "duration": 0.1983,
      "velocity": 99,
      "chip": "ym2612"
    },
    {
      "channel": 3,
      "note": 90,
      "start": 25.679,
      "duration": 0.1984,
      "velocity": 99,
      "chip": "ym2612"
    },
    {
      "channel": 4,
      "note": 86,
      "start": 25.6798,
      "duration": 0.1984,
      "velocity": 99,
      "chip": "ym2612"
    },
    {
      "channel": 1,
      "note": 63,
      "start": 25.844,
      "duration": 1.5723,
      "velocity": 72,
      "chip": "ym2612"
    },
    {
      "channel": 3,
      "note": 87,
      "start": 25.8778,
      "duration": 0.1983,
      "velocity": 99,
      "chip": "ym2612"
    },
    {
      "channel": 4,
      "note": 90,
      "start": 25.8785,
      "duration": 0.1983,
      "velocity": 99,
      "chip": "ym2612"
    },
    {
      "channel": 3,
      "note": 83,
      "start": 26.0764,
      "duration": 0.1983,
      "velocity": 99,
      "chip": "ym2612"
    },
    {
      "channel": 4,
      "note": 87,
      "start": 26.0771,
      "duration": 0.1983,
      "velocity": 99,
      "chip": "ym2612"
    },
    {
      "channel": 3,
      "note": 82,
      "start": 26.275,
      "duration": 0.199,
      "velocity": 99,
      "chip": "ym2612"
    },
    {
      "channel": 4,
      "note": 83,
      "start": 26.2758,
      "duration": 0.199,
      "velocity": 99,
      "chip": "ym2612"
    },
    {
      "channel": 3,
      "note": 78,
      "start": 26.4744,
      "duration": 0.1976,
      "velocity": 99,
      "chip": "ym2612"
    },
    {
      "channel": 4,
      "note": 82,
      "start": 26.4752,
      "duration": 0.1983,
      "velocity": 99,
      "chip": "ym2612"
    },
    {
      "channel": 3,
      "note": 75,
      "start": 26.6723,
      "duration": 0.1983,
      "velocity": 99,
      "chip": "ym2612"
    },
    {
      "channel": 4,
      "note": 78,
      "start": 26.6738,
      "duration": 0.1976,
      "velocity": 99,
      "chip": "ym2612"
    },
    {
      "channel": 3,
      "note": 71,
      "start": 26.871,
      "duration": 0.1982,
      "velocity": 99,
      "chip": "ym2612"
    },
    {
      "channel": 4,
      "note": 75,
      "start": 26.8717,
      "duration": 0.1982,
      "velocity": 99,
      "chip": "ym2612"
    },
    {
      "channel": 0,
      "note": 63,
      "start": 27.0355,
      "duration": 1.5723,
      "velocity": 72,
      "chip": "ym2612"
    },
    {
      "channel": 2,
      "note": 59,
      "start": 27.0363,
      "duration": 1.5721,
      "velocity": 72,
      "chip": "ym2612"
    },
    {
      "channel": 3,
      "note": 70,
      "start": 27.0695,
      "duration": 0.1983,
      "velocity": 99,
      "chip": "ym2612"
    },
    {
      "channel": 4,
      "note": 71,
      "start": 27.0703,
      "duration": 0.1983,
      "velocity": 99,
      "chip": "ym2612"
    },
    {
      "channel": 3,
      "note": 66,
      "start": 27.2681,
      "duration": 0.1984,
      "velocity": 99,
      "chip": "ym2612"
    },
    {
      "channel": 4,
      "note": 70,
      "start": 27.2689,
      "duration": 0.1984,
      "velocity": 99,
      "chip": "ym2612"
    },
    {
      "channel": 1,
      "note": 63,
      "start": 27.433,
      "duration": 1.5723,
      "velocity": 72,
      "chip": "ym2612"
    },
    {
      "channel": 3,
      "note": 63,
      "start": 27.4668,
      "duration": 0.1983,
      "velocity": 99,
      "chip": "ym2612"
    },
    {
      "channel": 4,
      "note": 66,
      "start": 27.4676,
      "duration": 0.1982,
      "velocity": 99,
      "chip": "ym2612"
    },
    {
      "channel": 3,
      "note": 59,
      "start": 27.6654,
      "duration": 0.1983,
      "velocity": 99,
      "chip": "ym2612"
    },
    {
      "channel": 4,
      "note": 63,
      "start": 27.6662,
      "duration": 0.1983,
      "velocity": 99,
      "chip": "ym2612"
    },
    {
      "channel": 3,
      "note": 58,
      "start": 27.8641,
      "duration": 0.1983,
      "velocity": 99,
      "chip": "ym2612"
    },
    {
      "channel": 4,
      "note": 59,
      "start": 27.8649,
      "duration": 0.1983,
      "velocity": 99,
      "chip": "ym2612"
    },
    {
      "channel": 3,
      "note": 61,
      "start": 28.0627,
      "duration": 0.1983,
      "velocity": 99,
      "chip": "ym2612"
    },
    {
      "channel": 4,
      "note": 58,
      "start": 28.0635,
      "duration": 0.1983,
      "velocity": 99,
      "chip": "ym2612"
    },
    {
      "channel": 3,
      "note": 59,
      "start": 28.2614,
      "duration": 0.1983,
      "velocity": 99,
      "chip": "ym2612"
    },
    {
      "channel": 4,
      "note": 61,
      "start": 28.2621,
      "duration": 0.1983,
      "velocity": 99,
      "chip": "ym2612"
    },
    {
      "channel": 3,
      "note": 63,
      "start": 28.46,
      "duration": 0.1983,
      "velocity": 99,
      "chip": "ym2612"
    },
    {
      "channel": 4,
      "note": 59,
      "start": 28.4607,
      "duration": 0.1983,
      "velocity": 99,
      "chip": "ym2612"
    },
    {
      "channel": 0,
      "note": 64,
      "start": 28.6245,
      "duration": 1.5723,
      "velocity": 72,
      "chip": "ym2612"
    },
    {
      "channel": 2,
      "note": 59,
      "start": 28.6253,
      "duration": 1.5721,
      "velocity": 72,
      "chip": "ym2612"
    },
    {
      "channel": 3,
      "note": 61,
      "start": 28.6586,
      "duration": 0.199,
      "velocity": 99,
      "chip": "ym2612"
    },
    {
      "channel": 4,
      "note": 63,
      "start": 28.6593,
      "duration": 0.199,
      "velocity": 99,
      "chip": "ym2612"
    },
    {
      "channel": 3,
      "note": 64,
      "start": 28.8579,
      "duration": 0.1976,
      "velocity": 99,
      "chip": "ym2612"
    },
    {
      "channel": 4,
      "note": 61,
      "start": 28.8586,
      "duration": 0.1983,
      "velocity": 99,
      "chip": "ym2612"
    },
    {
      "channel": 1,
      "note": 64,
      "start": 29.022,
      "duration": 1.5723,
      "velocity": 72,
      "chip": "ym2612"
    },
    {
      "channel": 3,
      "note": 67,
      "start": 29.0562,
      "duration": 0.198,
      "velocity": 99,
      "chip": "ym2612"
    },
    {
      "channel": 4,
      "note": 64,
      "start": 29.0573,
      "duration": 0.1975,
      "velocity": 99,
      "chip": "ym2612"
    },
    {
      "channel": 3,
      "note": 71,
      "start": 29.2545,
      "duration": 0.1983,
      "velocity": 99,
      "chip": "ym2612"
    },
    {
      "channel": 4,
      "note": 67,
      "start": 29.2553,
      "duration": 0.1983,
      "velocity": 99,
      "chip": "ym2612"
    },
    {
      "channel": 3,
      "note": 73,
      "start": 29.4532,
      "duration": 0.1983,
      "velocity": 99,
      "chip": "ym2612"
    },
    {
      "channel": 4,
      "note": 71,
      "start": 29.4539,
      "duration": 0.1983,
      "velocity": 99,
      "chip": "ym2612"
    },
    {
      "channel": 3,
      "note": 76,
      "start": 29.6517,
      "duration": 0.1983,
      "velocity": 99,
      "chip": "ym2612"
    },
    {
      "channel": 4,
      "note": 73,
      "start": 29.6525,
      "duration": 0.1983,
      "velocity": 99,
      "chip": "ym2612"
    },
    {
      "channel": 3,
      "note": 75,
      "start": 29.8504,
      "duration": 0.1983,
      "velocity": 99,
      "chip": "ym2612"
    },
    {
      "channel": 4,
      "note": 76,
      "start": 29.8511,
      "duration": 0.1983,
      "velocity": 99,
      "chip": "ym2612"
    },
    {
      "channel": 3,
      "note": 73,
      "start": 30.049,
      "duration": 0.1982,
      "velocity": 99,
      "chip": "ym2612"
    },
    {
      "channel": 4,
      "note": 75,
      "start": 30.0498,
      "duration": 0.1982,
      "velocity": 99,
      "chip": "ym2612"
    },
    {
      "channel": 0,
      "note": 64,
      "start": 30.2136,
      "duration": 1.5723,
      "velocity": 72,
      "chip": "ym2612"
    },
    {
      "channel": 2,
      "note": 59,
      "start": 30.2144,
      "duration": 1.572,
      "velocity": 72,
      "chip": "ym2612"
    },
    {
      "channel": 3,
      "note": 71,
      "start": 30.2476,
      "duration": 0.1983,
      "velocity": 99,
      "chip": "ym2612"
    },
    {
      "channel": 4,
      "note": 73,
      "start": 30.2483,
      "duration": 0.1983,
      "velocity": 99,
      "chip": "ym2612"
    },
    {
      "channel": 3,
      "note": 76,
      "start": 30.4462,
      "duration": 0.1984,
      "velocity": 99,
      "chip": "ym2612"
    },
    {
      "channel": 4,
      "note": 71,
      "start": 30.4469,
      "duration": 0.1984,
      "velocity": 99,
      "chip": "ym2612"
    },
    {
      "channel": 1,
      "note": 64,
      "start": 30.6111,
      "duration": 1.5723,
      "velocity": 72,
      "chip": "ym2612"
    },
    {
      "channel": 3,
      "note": 79,
      "start": 30.6449,
      "duration": 0.1983,
      "velocity": 99,
      "chip": "ym2612"
    },
    {
      "channel": 4,
      "note": 76,
      "start": 30.6456,
      "duration": 0.1983,
      "velocity": 99,
      "chip": "ym2612"
    },
    {
      "channel": 3,
      "note": 83,
      "start": 30.8435,
      "duration": 0.1983,
      "velocity": 99,
      "chip": "ym2612"
    },
    {
      "channel": 4,
      "note": 79,
      "start": 30.8442,
      "duration": 0.1983,
      "velocity": 99,
      "chip": "ym2612"
    },
    {
      "channel": 3,
      "note": 85,
      "start": 31.0422,
      "duration": 0.1989,
      "velocity": 99,
      "chip": "ym2612"
    },
    {
      "channel": 4,
      "note": 83,
      "start": 31.0429,
      "duration": 0.1989,
      "velocity": 99,
      "chip": "ym2612"
    },
    {
      "channel": 3,
      "note": 88,
      "start": 31.2414,
      "duration": 0.1979,
      "velocity": 99,
      "chip": "ym2612"
    },
    {
      "channel": 4,
      "note": 85,
      "start": 31.2422,
      "duration": 0.1985,
      "velocity": 99,
      "chip": "ym2612"
    },
    {
      "channel": 3,
      "note": 87,
      "start": 31.4401,
      "duration": 0.1976,
      "velocity": 99,
      "chip": "ym2612"
    },
    {
      "channel": 4,
      "note": 88,
      "start": 31.4409,
      "duration": 0.1976,
      "velocity": 99,
      "chip": "ym2612"
    },
    {
      "channel": 3,
      "note": 85,
      "start": 31.6381,
      "duration": 0.1982,
      "velocity": 99,
      "chip": "ym2612"
    },
    {
      "channel": 4,
      "note": 87,
      "start": 31.6388,
      "duration": 0.1982,
      "velocity": 99,
      "chip": "ym2612"
    },
    {
      "channel": 0,
      "note": 59,
      "start": 31.8026,
      "duration": 1.5723,
      "velocity": 72,
      "chip": "ym2612"
    },
    {
      "channel": 2,
      "note": 55,
      "start": 31.8034,
      "duration": 1.5721,
      "velocity": 72,
      "chip": "ym2612"
    },
    {
      "channel": 3,
      "note": 83,
      "start": 31.8366,
      "duration": 0.1983,
      "velocity": 99,
      "chip": "ym2612"
    },
    {
      "channel": 4,
      "note": 85,
      "start": 31.8374,
      "duration": 0.1983,
      "velocity": 99,
      "chip": "ym2612"
    },
    {
      "channel": 3,
      "note": 91,
      "start": 32.0353,
      "duration": 0.1983,
      "velocity": 99,
      "chip": "ym2612"
    },
    {
      "channel": 4,
      "note": 83,
      "start": 32.036,
      "duration": 0.1983,
      "velocity": 99,
      "chip": "ym2612"
    },
    {
      "channel": 1,
      "note": 59,
      "start": 32.2001,
      "duration": 1.5725,
      "velocity": 72,
      "chip": "ym2612"
    },
    {
      "channel": 3,
      "note": 88,
      "start": 32.2339,
      "duration": 0.1983,
      "velocity": 99,
      "chip": "ym2612"
    },
    {
      "channel": 4,
      "note": 91,
      "start": 32.2346,
      "duration": 0.1983,
      "velocity": 99,
      "chip": "ym2612"
    },
    {
      "channel": 3,
      "note": 83,
      "start": 32.4325,
      "duration": 0.1983,
      "velocity": 99,
      "chip": "ym2612"
    },
    {
      "channel": 4,
      "note": 88,
      "start": 32.4333,
      "duration": 0.1983,
      "velocity": 99,
      "chip": "ym2612"
    },
    {
      "channel": 3,
      "note": 88,
      "start": 32.6312,
      "duration": 0.1983,
      "velocity": 99,
      "chip": "ym2612"
    },
    {
      "channel": 4,
      "note": 83,
      "start": 32.632,
      "duration": 0.1983,
      "velocity": 99,
      "chip": "ym2612"
    },
    {
      "channel": 3,
      "note": 83,
      "start": 32.8299,
      "duration": 0.1983,
      "velocity": 99,
      "chip": "ym2612"
    },
    {
      "channel": 4,
      "note": 88,
      "start": 32.8306,
      "duration": 0.1983,
      "velocity": 99,
      "chip": "ym2612"
    },
    {
      "channel": 3,
      "note": 79,
      "start": 33.0285,
      "duration": 0.1983,
      "velocity": 99,
      "chip": "ym2612"
    },
    {
      "channel": 4,
      "note": 83,
      "start": 33.0292,
      "duration": 0.1983,
      "velocity": 99,
      "chip": "ym2612"
    },
    {
      "channel": 3,
      "note": 76,
      "start": 33.2271,
      "duration": 0.1982,
      "velocity": 99,
      "chip": "ym2612"
    },
    {
      "channel": 4,
      "note": 79,
      "start": 33.2278,
      "duration": 0.1982,
      "velocity": 99,
      "chip": "ym2612"
    },
    {
      "channel": 0,
      "note": 67,
      "start": 33.3916,
      "duration": 1.5723,
      "velocity": 72,
      "chip": "ym2612"
    },
    {
      "channel": 2,
      "note": 64,
      "start": 33.3925,
      "duration": 1.5721,
      "velocity": 72,
      "chip": "ym2612"
    },
    {
      "channel": 3,
      "note": 71,
      "start": 33.4256,
      "duration": 0.1987,
      "velocity": 99,
      "chip": "ym2612"
    },
    {
      "channel": 4,
      "note": 76,
      "start": 33.4264,
      "duration": 0.1987,
      "velocity": 99,
      "chip": "ym2612"
    },
    {
      "channel": 3,
      "note": 67,
      "start": 33.6246,
      "duration": 0.1987,
      "velocity": 99,
      "chip": "ym2612"
    },
    {
      "channel": 4,
      "note": 71,
      "start": 33.6254,
      "duration": 0.1987,
      "velocity": 99,
      "chip": "ym2612"
    },
    {
      "channel": 1,
      "note": 67,
      "start": 33.7895,
      "duration": 1.5719,
      "velocity": 72,
      "chip": "ym2612"
    },
    {
      "channel": 3,
      "note": 71,
      "start": 33.8237,
      "duration": 0.1976,
      "velocity": 99,
      "chip": "ym2612"
    },
    {
      "channel": 4,
      "note": 67,
      "start": 33.8245,
      "duration": 0.1976,
      "velocity": 99,
      "chip": "ym2612"
    },
    {
      "channel": 3,
      "note": 76,
      "start": 34.0216,
      "duration": 0.1983,
      "velocity": 99,
      "chip": "ym2612"
    },
    {
      "channel": 4,
      "note": 71,
      "start": 34.0224,
      "duration": 0.1983,
      "velocity": 99,
      "chip": "ym2612"
    },
    {
      "channel": 3,
      "note": 79,
      "start": 34.2203,
      "duration": 0.1983,
      "velocity": 99,
      "chip": "ym2612"
    },
    {
      "channel": 4,
      "note": 76,
      "start": 34.221,
      "duration": 0.1983,
      "velocity": 99,
      "chip": "ym2612"
    },
    {
      "channel": 3,
      "note": 76,
      "start": 34.4189,
      "duration": 0.1983,
      "velocity": 99,
      "chip": "ym2612"
    },
    {
      "channel": 4,
      "note": 79,
      "start": 34.4196,
      "duration": 0.1983,
      "velocity": 99,
      "chip": "ym2612"
    },
    {
      "channel": 3,
      "note": 79,
      "start": 34.6175,
      "duration": 0.1983,
      "velocity": 99,
      "chip": "ym2612"
    },
    {
      "channel": 4,
      "note": 76,
      "start": 34.6182,
      "duration": 0.1983,
      "velocity": 99,
      "chip": "ym2612"
    },
    {
      "channel": 3,
      "note": 83,
      "start": 34.8161,
      "duration": 0.1983,
      "velocity": 99,
      "chip": "ym2612"
    },
    {
      "channel": 4,
      "note": 79,
      "start": 34.8169,
      "duration": 0.1983,
      "velocity": 99,
      "chip": "ym2612"
    },
    {
      "channel": 0,
      "note": 66,
      "start": 34.9807,
      "duration": 1.5723,
      "velocity": 72,
      "chip": "ym2612"
    },
    {
      "channel": 2,
      "note": 63,
      "start": 34.9815,
      "duration": 1.5722,
      "velocity": 72,
      "chip": "ym2612"
    },
    {
      "channel": 3,
      "note": 87,
      "start": 35.0147,
      "duration": 0.1983,
      "velocity": 99,
      "chip": "ym2612"
    },
    {
      "channel": 4,
      "note": 83,
      "start": 35.0155,
      "duration": 0.1983,
      "velocity": 99,
      "chip": "ym2612"
    },
    {
      "channel": 3,
      "note": 85,
      "start": 35.2133,
      "duration": 0.1983,
      "velocity": 99,
      "chip": "ym2612"
    },
    {
      "channel": 4,
      "note": 87,
      "start": 35.2141,
      "duration": 0.1983,
      "velocity": 99,
      "chip": "ym2612"
    },
    {
      "channel": 1,
      "note": 66,
      "start": 35.3782,
      "duration": 1.5723,
      "velocity": 72,
      "chip": "ym2612"
    },
    {
      "channel": 3,
      "note": 83,
      "start": 35.412,
      "duration": 0.1983,
      "velocity": 99,
      "chip": "ym2612"
    },
    {
      "channel": 4,
      "note": 85,
      "start": 35.4128,
      "duration": 0.1983,
      "velocity": 99,
      "chip": "ym2612"
    },
    {
      "channel": 3,
      "note": 78,
      "start": 35.6106,
      "duration": 0.1983,
      "velocity": 99,
      "chip": "ym2612"
    },
    {
      "channel": 4,
      "note": 83,
      "start": 35.6114,
      "duration": 0.1983,
      "velocity": 99,
      "chip": "ym2612"
    },
    {
      "channel": 3,
      "note": 75,
      "start": 35.8093,
      "duration": 0.1985,
      "velocity": 99,
      "chip": "ym2612"
    },
    {
      "channel": 4,
      "note": 78,
      "start": 35.81,
      "duration": 0.1985,
      "velocity": 99,
      "chip": "ym2612"
    },
    {
      "channel": 3,
      "note": 73,
      "start": 36.0081,
      "duration": 0.1988,
      "velocity": 99,
      "chip": "ym2612"
    },
    {
      "channel": 4,
      "note": 75,
      "start": 36.0089,
      "duration": 0.1988,
      "velocity": 99,
      "chip": "ym2612"
    },
    {
      "channel": 3,
      "note": 71,
      "start": 36.2073,
      "duration": 0.1976,
      "velocity": 99,
      "chip": "ym2612"
    },
    {
      "channel": 4,
      "note": 73,
      "start": 36.208,
      "duration": 0.1976,
      "velocity": 99,
      "chip": "ym2612"
    },
    {
      "channel": 3,
      "note": 66,
      "start": 36.4052,
      "duration": 0.1982,
      "velocity": 99,
      "chip": "ym2612"
    },
    {
      "channel": 4,
      "note": 71,
      "start": 36.4066,
      "duration": 0.1976,
      "velocity": 99,
      "chip": "ym2612"
    },
    {
      "channel": 0,
      "note": 71,
      "start": 36.5698,
      "duration": 1.5723,
      "velocity": 72,
      "chip": "ym2612"
    },
    {
      "channel": 2,
      "note": 67,
      "start": 36.5705,
      "duration": 1.5721,
      "velocity": 72,
      "chip": "ym2612"
    },
    {
      "channel": 3,
      "note": 63,
      "start": 36.6037,
      "duration": 0.1983,
      "velocity": 99,
      "chip": "ym2612"
    },
    {
      "channel": 4,
      "note": 66,
      "start": 36.6045,
      "duration": 0.1983,
      "velocity": 99,
      "chip": "ym2612"
    },
    {
      "channel": 3,
      "note": 85,
      "start": 36.8023,
      "duration": 0.1984,
      "velocity": 99,
      "chip": "ym2612"
    },
    {
      "channel": 4,
      "note": 63,
      "start": 36.8031,
      "duration": 0.1984,
      "velocity": 99,
      "chip": "ym2612"
    },
    {
      "channel": 1,
      "note": 71,
      "start": 36.9673,
      "duration": 1.573,
      "velocity": 72,
      "chip": "ym2612"
    },
    {
      "channel": 3,
      "note": 83,
      "start": 37.0011,
      "duration": 0.1983,
      "velocity": 99,
      "chip": "ym2612"
    },
    {
      "channel": 4,
      "note": 85,
      "start": 37.0018,
      "duration": 0.1983,
      "velocity": 99,
      "chip": "ym2612"
    },
    {
      "channel": 3,
      "note": 79,
      "start": 37.1997,
      "duration": 0.1983,
      "velocity": 99,
      "chip": "ym2612"
    },
    {
      "channel": 4,
      "note": 83,
      "start": 37.2004,
      "duration": 0.1984,
      "velocity": 99,
      "chip": "ym2612"
    },
    {
      "channel": 3,
      "note": 76,
      "start": 37.3983,
      "duration": 0.1983,
      "velocity": 99,
      "chip": "ym2612"
    },
    {
      "channel": 4,
      "note": 79,
      "start": 37.3991,
      "duration": 0.1983,
      "velocity": 99,
      "chip": "ym2612"
    },
    {
      "channel": 3,
      "note": 73,
      "start": 37.5969,
      "duration": 0.1983,
      "velocity": 99,
      "chip": "ym2612"
    },
    {
      "channel": 4,
      "note": 76,
      "start": 37.5977,
      "duration": 0.1983,
      "velocity": 99,
      "chip": "ym2612"
    },
    {
      "channel": 3,
      "note": 71,
      "start": 37.7956,
      "duration": 0.1983,
      "velocity": 99,
      "chip": "ym2612"
    },
    {
      "channel": 4,
      "note": 73,
      "start": 37.7963,
      "duration": 0.1983,
      "velocity": 99,
      "chip": "ym2612"
    },
    {
      "channel": 3,
      "note": 67,
      "start": 37.9942,
      "duration": 0.1983,
      "velocity": 99,
      "chip": "ym2612"
    },
    {
      "channel": 4,
      "note": 71,
      "start": 37.9949,
      "duration": 0.1983,
      "velocity": 99,
      "chip": "ym2612"
    },
    {
      "channel": 0,
      "note": 70,
      "start": 38.1588,
      "duration": 1.5723,
      "velocity": 72,
      "chip": "ym2612"
    },
    {
      "channel": 2,
      "note": 66,
      "start": 38.1596,
      "duration": 1.5721,
      "velocity": 72,
      "chip": "ym2612"
    },
    {
      "channel": 3,
      "note": 64,
      "start": 38.1928,
      "duration": 0.1983,
      "velocity": 99,
      "chip": "ym2612"
    },
    {
      "channel": 4,
      "note": 67,
      "start": 38.1935,
      "duration": 0.1984,
      "velocity": 99,
      "chip": "ym2612"
    },
    {
      "channel": 3,
      "note": 82,
      "start": 38.3915,
      "duration": 0.199,
      "velocity": 99,
      "chip": "ym2612"
    },
    {
      "channel": 4,
      "note": 64,
      "start": 38.3922,
      "duration": 0.199,
      "velocity": 99,
      "chip": "ym2612"
    },
    {
      "channel": 1,
      "note": 70,
      "start": 38.557,
      "duration": 1.5716,
      "velocity": 72,
      "chip": "ym2612"
    },
    {
      "channel": 3,
      "note": 80,
      "start": 38.5908,
      "duration": 0.1976,
      "velocity": 99,
      "chip": "ym2612"
    },
    {
      "channel": 4,
      "note": 82,
      "start": 38.5916,
      "duration": 0.198,
      "velocity": 99,
      "chip": "ym2612"
    },
    {
      "channel": 3,
      "note": 78,
      "start": 38.7887,
      "duration": 0.1983,
      "velocity": 99,
      "chip": "ym2612"
    },
    {
      "channel": 4,
      "note": 80,
      "start": 38.7902,
      "duration": 0.1976,
      "velocity": 99,
      "chip": "ym2612"
    },
    {
      "channel": 3,
      "note": 73,
      "start": 38.9874,
      "duration": 0.1983,
      "velocity": 99,
      "chip": "ym2612"
    },
    {
      "channel": 4,
      "note": 78,
      "start": 38.9881,
      "duration": 0.1983,
      "velocity": 99,
      "chip": "ym2612"
    },
    {
      "channel": 3,
      "note": 71,
      "start": 39.186,
      "duration": 0.1983,
      "velocity": 99,
      "chip": "ym2612"
    },
    {
      "channel": 4,
      "note": 73,
      "start": 39.1867,
      "duration": 0.1983,
      "velocity": 99,
      "chip": "ym2612"
    },
    {
      "channel": 3,
      "note": 70,
      "start": 39.3846,
      "duration": 0.1983,
      "velocity": 99,
      "chip": "ym2612"
    },
    {
      "channel": 4,
      "note": 71,
      "start": 39.3854,
      "duration": 0.1983,
      "velocity": 99,
      "chip": "ym2612"
    },
    {
      "channel": 3,
      "note": 66,
      "start": 39.5832,
      "duration": 0.1982,
      "velocity": 99,
      "chip": "ym2612"
    },
    {
      "channel": 4,
      "note": 70,
      "start": 39.584,
      "duration": 0.1982,
      "velocity": 99,
      "chip": "ym2612"
    },
    {
      "channel": 0,
      "note": 65,
      "start": 39.7478,
      "duration": 1.5723,
      "velocity": 72,
      "chip": "ym2612"
    },
    {
      "channel": 2,
      "note": 59,
      "start": 39.7486,
      "duration": 1.5721,
      "velocity": 72,
      "chip": "ym2612"
    },
    {
      "channel": 3,
      "note": 61,
      "start": 39.7818,
      "duration": 0.1984,
      "velocity": 99,
      "chip": "ym2612"
    },
    {
      "channel": 4,
      "note": 66,
      "start": 39.7825,
      "duration": 0.1983,
      "velocity": 99,
      "chip": "ym2612"
    },
    {
      "channel": 3,
      "note": 59,
      "start": 39.9805,
      "duration": 0.1983,
      "velocity": 99,
      "chip": "ym2612"
    },
    {
      "channel": 4,
      "note": 61,
      "start": 39.9812,
      "duration": 0.1983,
      "velocity": 99,
      "chip": "ym2612"
    },
    {
      "channel": 1,
      "note": 65,
      "start": 40.1453,
      "duration": 1.5723,
      "velocity": 72,
      "chip": "ym2612"
    },
    {
      "channel": 3,
      "note": 61,
      "start": 40.1791,
      "duration": 0.1983,
      "velocity": 99,
      "chip": "ym2612"
    },
    {
      "channel": 4,
      "note": 59,
      "start": 40.1799,
      "duration": 0.1983,
      "velocity": 99,
      "chip": "ym2612"
    },
    {
      "channel": 3,
      "note": 65,
      "start": 40.3777,
      "duration": 0.1983,
      "velocity": 99,
      "chip": "ym2612"
    },
    {
      "channel": 4,
      "note": 61,
      "start": 40.3785,
      "duration": 0.1983,
      "velocity": 99,
      "chip": "ym2612"
    },
    {
      "channel": 3,
      "note": 68,
      "start": 40.5764,
      "duration": 0.1983,
      "velocity": 99,
      "chip": "ym2612"
    },
    {
      "channel": 4,
      "note": 65,
      "start": 40.5771,
      "duration": 0.1983,
      "velocity": 99,
      "chip": "ym2612"
    },
    {
      "channel": 3,
      "note": 71,
      "start": 40.775,
      "duration": 0.1991,
      "velocity": 99,
      "chip": "ym2612"
    },
    {
      "channel": 4,
      "note": 68,
      "start": 40.7758,
      "duration": 0.1991,
      "velocity": 99,
      "chip": "ym2612"
    },
    {
      "channel": 3,
      "note": 73,
      "start": 40.9745,
      "duration": 0.1975,
      "velocity": 99,
      "chip": "ym2612"
    },
    {
      "channel": 4,
      "note": 71,
      "start": 40.9752,
      "duration": 0.1982,
      "velocity": 99,
      "chip": "ym2612"
    },
    {
      "channel": 3,
      "note": 77,
      "start": 41.1723,
      "duration": 0.1983,
      "velocity": 99,
      "chip": "ym2612"
    },
    {
      "channel": 4,
      "note": 73,
      "start": 41.1738,
      "duration": 0.1976,
      "velocity": 99,
      "chip": "ym2612"
    },
    {
      "channel": 0,
      "note": 68,
      "start": 41.337,
      "duration": 1.5721,
      "velocity": 72,
      "chip": "ym2612"
    },
    {
      "channel": 2,
      "note": 62,
      "start": 41.338,
      "duration": 1.5717,
      "velocity": 72,
      "chip": "ym2612"
    },
    {
      "channel": 3,
      "note": 80,
      "start": 41.371,
      "duration": 0.1982,
      "velocity": 99,
      "chip": "ym2612"
    },
    {
      "channel": 4,
      "note": 77,
      "start": 41.3718,
      "duration": 0.1982,
      "velocity": 99,
      "chip": "ym2612"
    },
    {
      "channel": 3,
      "note": 83,
      "start": 41.5695,
      "duration": 0.1983,
      "velocity": 99,
      "chip": "ym2612"
    },
    {
      "channel": 4,
      "note": 80,
      "start": 41.5704,
      "duration": 0.1982,
      "velocity": 99,
      "chip": "ym2612"
    },
    {
      "channel": 1,
      "note": 68,
      "start": 41.7345,
      "duration": 1.5726,
      "velocity": 72,
      "chip": "ym2612"
    },
    {
      "channel": 3,
      "note": 80,
      "start": 41.7682,
      "duration": 0.1983,
      "velocity": 99,
      "chip": "ym2612"
    },
    {
      "channel": 4,
      "note": 83,
      "start": 41.7689,
      "duration": 0.1983,
      "velocity": 99,
      "chip": "ym2612"
    },
    {
      "channel": 3,
      "note": 77,
      "start": 41.9668,
      "duration": 0.1983,
      "velocity": 99,
      "chip": "ym2612"
    },
    {
      "channel": 4,
      "note": 80,
      "start": 41.9675,
      "duration": 0.1983,
      "velocity": 99,
      "chip": "ym2612"
    },
    {
      "channel": 3,
      "note": 74,
      "start": 42.1654,
      "duration": 0.1983,
      "velocity": 99,
      "chip": "ym2612"
    },
    {
      "channel": 4,
      "note": 77,
      "start": 42.1662,
      "duration": 0.1983,
      "velocity": 99,
      "chip": "ym2612"
    },
    {
      "channel": 3,
      "note": 71,
      "start": 42.3641,
      "duration": 0.1983,
      "velocity": 99,
      "chip": "ym2612"
    },
    {
      "channel": 4,
      "note": 74,
      "start": 42.3649,
      "duration": 0.1983,
      "velocity": 99,
      "chip": "ym2612"
    },
    {
      "channel": 3,
      "note": 68,
      "start": 42.5627,
      "duration": 0.1983,
      "velocity": 99,
      "chip": "ym2612"
    },
    {
      "channel": 4,
      "note": 71,
      "start": 42.5635,
      "duration": 0.1983,
      "velocity": 99,
      "chip": "ym2612"
    },
    {
      "channel": 3,
      "note": 65,
      "start": 42.7614,
      "duration": 0.1982,
      "velocity": 99,
      "chip": "ym2612"
    },
    {
      "channel": 4,
      "note": 68,
      "start": 42.7621,
      "duration": 0.1982,
      "velocity": 99,
      "chip": "ym2612"
    },
    {
      "channel": 0,
      "note": 66,
      "start": 42.9259,
      "duration": 1.5723,
      "velocity": 72,
      "chip": "ym2612"
    },
    {
      "channel": 2,
      "note": 63,
      "start": 42.9267,
      "duration": 1.5721,
      "velocity": 72,
      "chip": "ym2612"
    },
    {
      "channel": 3,
      "note": 62,
      "start": 42.9599,
      "duration": 0.1984,
      "velocity": 99,
      "chip": "ym2612"
    },
    {
      "channel": 4,
      "note": 65,
      "start": 42.9607,
      "duration": 0.1983,
      "velocity": 99,
      "chip": "ym2612"
    },
    {
      "channel": 3,
      "note": 83,
      "start": 43.1586,
      "duration": 0.199,
      "velocity": 99,
      "chip": "ym2612"
    },
    {
      "channel": 4,
      "note": 62,
      "start": 43.1593,
      "duration": 0.199,
      "velocity": 99,
      "chip": "ym2612"
    },
    {
      "channel": 1,
      "note": 66,
      "start": 43.3239,
      "duration": 1.2235,
      "velocity": 72,
      "chip": "ym2612"
    },
    {
      "channel": 3,
      "note": 82,
      "start": 43.3579,
      "duration": 0.1976,
      "velocity": 99,
      "chip": "ym2612"
    },
    {
      "channel": 4,
      "note": 83,
      "start": 43.3587,
      "duration": 0.1983,
      "velocity": 99,
      "chip": "ym2612"
    },
    {
      "channel": 3,
      "note": 90,
      "start": 43.5562,
      "duration": 0.198,
      "velocity": 99,
      "chip": "ym2612"
    },
    {
      "channel": 4,
      "note": 82,
      "start": 43.5573,
      "duration": 0.1977,
      "velocity": 99,
      "chip": "ym2612"
    },
    {
      "channel": 3,
      "note": 87,
      "start": 43.7545,
      "duration": 0.1983,
      "velocity": 99,
      "chip": "ym2612"
    },
    {
      "channel": 4,
      "note": 90,
      "start": 43.7553,
      "duration": 0.1983,
      "velocity": 99,
      "chip": "ym2612"
    },
    {
      "channel": 3,
      "note": 83,
      "start": 43.9532,
      "duration": 0.1982,
      "velocity": 99,
      "chip": "ym2612"
    },
    {
      "channel": 4,
      "note": 87,
      "start": 43.9539,
      "duration": 0.1982,
      "velocity": 99,
      "chip": "ym2612"
    },
    {
      "channel": 3,
      "note": 82,
      "start": 44.1517,
      "duration": 0.1983,
      "velocity": 99,
      "chip": "ym2612"
    },
    {
      "channel": 4,
      "note": 83,
      "start": 44.1524,
      "duration": 0.1983,
      "velocity": 99,
      "chip": "ym2612"
    },
    {
      "channel": 3,
      "note": 78,
      "start": 44.3504,
      "duration": 0.1971,
      "velocity": 99,
      "chip": "ym2612"
    },
    {
      "channel": 4,
      "note": 82,
      "start": 44.3511,
      "duration": 0.1964,
      "velocity": 99,
      "chip": "ym2612"
    },
    {
      "channel": 0,
      "note": 59,
      "start": 44.5149,
      "duration": 0.0326,
      "velocity": 72,
      "chip": "ym2612"
    },
    {
      "channel": 2,
      "note": 55,
      "start": 44.5158,
      "duration": 0.0317,
      "velocity": 72,
      "chip": "ym2612"
    }
  ]
}