{
  "track_name": "18 - Shusoran",
  "duration_sec": 25.91,
  "sample_rate": 44100,
  "note_count": 533,
  "unique_pitches": 14,
  "pitch_range": 39,
  "avg_note_duration": 0.2662,
  "reconstruction_stats": {
    "notes_reconstructed": 533,
    "keyon_events": 533,
    "keyoff_events": 527,
    "orphan_keyons": 6,
    "unique_pitches": 14,
    "pitch_range": 39,
    "avg_duration_sec": 0.2662
  },
  "metadata": {
    "source": "P\\Phantasy Star III\\18 - Shusoran.vgz"
  },
  "notes": [
    {
      "channel": 1,
      "note": 38,
      "start": 0.0,
      "duration": 1.0109,
      "velocity": 109,
      "chip": "ym2612"
    },
    {
      "channel": 3,
      "note": 54,
      "start": 0.0033,
      "duration": 0.0209,
      "velocity": 109,
      "chip": "ym2612"
    },
    {
      "channel": 5,
      "note": 62,
      "start": 0.0097,
      "duration": 0.2398,
      "velocity": 107,
      "chip": "ym2612"
    },
    {
      "channel": 2,
      "note": 30,
      "start": 0.0105,
      "duration": 0.1414,
      "velocity": 119,
      "chip": "ym2612"
    },
    {
      "channel": 3,
      "note": 56,
      "start": 0.0247,
      "duration": 0.047,
      "velocity": 109,
      "chip": "ym2612"
    },
    {
      "channel": 3,
      "note": 57,
      "start": 0.0723,
      "duration": 0.4308,
      "velocity": 109,
      "chip": "ym2612"
    },
    {
      "channel": 5,
      "note": 69,
      "start": 0.2502,
      "duration": 0.1236,
      "velocity": 107,
      "chip": "ym2612"
    },
    {
      "channel": 2,
      "note": 69,
      "start": 0.251,
      "duration": 0.249,
      "velocity": 127,
      "chip": "ym2612"
    },
    {
      "channel": 5,
      "note": 69,
      "start": 0.3742,
      "duration": 0.3835,
      "velocity": 107,
      "chip": "ym2612"
    },
    {
      "channel": 3,
      "note": 57,
      "start": 0.5038,
      "duration": 0.2532,
      "velocity": 109,
      "chip": "ym2612"
    },
    {
      "channel": 2,
      "note": 69,
      "start": 0.5051,
      "duration": 0.2488,
      "velocity": 127,
      "chip": "ym2612"
    },
    {
      "channel": 3,
      "note": 57,
      "start": 0.7575,
      "duration": 0.2541,
      "velocity": 109,
      "chip": "ym2612"
    },
    {
      "channel": 5,
      "note": 62,
      "start": 0.7583,
      "duration": 0.2541,
      "velocity": 107,
      "chip": "ym2612"
    },
    {
      "channel": 2,
      "note": 69,
      "start": 0.7593,
      "duration": 0.2487,
      "velocity": 127,
      "chip": "ym2612"
    },
    {
      "channel": 1,
      "note": 38,
      "start": 1.0114,
      "duration": 1.0157,
      "velocity": 109,
      "chip": "ym2612"
    },
    {
      "channel": 3,
      "note": 54,
      "start": 1.0122,
      "duration": 0.0279,
      "velocity": 109,
      "chip": "ym2612"
    },
    {
      "channel": 5,
      "note": 69,
      "start": 1.013,
      "duration": 0.1228,
      "velocity": 107,
      "chip": "ym2612"
    },
    {
      "channel": 2,
      "note": 30,
      "start": 1.0139,
      "duration": 0.1541,
      "velocity": 119,
      "chip": "ym2612"
    },
    {
      "channel": 3,
      "note": 56,
      "start": 1.0407,
      "duration": 0.0471,
      "velocity": 109,
      "chip": "ym2612"
    },
    {
      "channel": 3,
      "note": 57,
      "start": 1.0883,
      "duration": 0.1767,
      "velocity": 109,
      "chip": "ym2612"
    },
    {
      "channel": 5,
      "note": 69,
      "start": 1.1362,
      "duration": 0.1297,
      "velocity": 107,
      "chip": "ym2612"
    },
    {
      "channel": 3,
      "note": 57,
      "start": 1.2657,
      "duration": 0.2534,
      "velocity": 109,
      "chip": "ym2612"
    },
    {
      "channel": 5,
      "note": 62,
      "start": 1.2665,
      "duration": 0.256,
      "velocity": 113,
      "chip": "ym2612"
    },
    {
      "channel": 2,
      "note": 69,
      "start": 1.2673,
      "duration": 0.2485,
      "velocity": 127,
      "chip": "ym2612"
    },
    {
      "channel": 3,
      "note": 57,
      "start": 1.5195,
      "duration": 0.2536,
      "velocity": 109,
      "chip": "ym2612"
    },
    {
      "channel": 5,
      "note": 49,
      "start": 1.5231,
      "duration": 0.2508,
      "velocity": 113,
      "chip": "ym2612"
    },
    {
      "channel": 2,
      "note": 69,
      "start": 1.524,
      "duration": 0.246,
      "velocity": 127,
      "chip": "ym2612"
    },
    {
      "channel": 3,
      "note": 57,
      "start": 1.7736,
      "duration": 0.2544,
      "velocity": 109,
      "chip": "ym2612"
    },
    {
      "channel": 5,
      "note": 49,
      "start": 1.7743,
      "duration": 0.1236,
      "velocity": 113,
      "chip": "ym2612"
    },
    {
      "channel": 2,
      "note": 69,
      "start": 1.7751,
      "duration": 0.2489,
      "velocity": 127,
      "chip": "ym2612"
    },
    {
      "channel": 5,
      "note": 49,
      "start": 1.8983,
      "duration": 0.1335,
      "velocity": 107,
      "chip": "ym2612"
    },
    {
      "channel": 1,
      "note": 38,
      "start": 2.0277,
      "duration": 1.0152,
      "velocity": 109,
      "chip": "ym2612"
    },
    {
      "channel": 3,
      "note": 54,
      "start": 2.0285,
      "duration": 0.0276,
      "velocity": 109,
      "chip": "ym2612"
    },
    {
      "channel": 5,
      "note": 62,
      "start": 2.0324,
      "duration": 0.2492,
      "velocity": 107,
      "chip": "ym2612"
    },
    {
      "channel": 2,
      "note": 30,
      "start": 2.0332,
      "duration": 0.1508,
      "velocity": 119,
      "chip": "ym2612"
    },
    {
      "channel": 3,
      "note": 56,
      "start": 2.0567,
      "duration": 0.0471,
      "velocity": 109,
      "chip": "ym2612"
    },
    {
      "channel": 3,
      "note": 57,
      "start": 2.1044,
      "duration": 0.4307,
      "velocity": 109,
      "chip": "ym2612"
    },
    {
      "channel": 5,
      "note": 69,
      "start": 2.2822,
      "duration": 0.1237,
      "velocity": 107,
      "chip": "ym2612"
    },
    {
      "channel": 2,
      "note": 69,
      "start": 2.2831,
      "duration": 0.2489,
      "velocity": 127,
      "chip": "ym2612"
    },
    {
      "channel": 5,
      "note": 69,
      "start": 2.4063,
      "duration": 0.3835,
      "velocity": 107,
      "chip": "ym2612"
    },
    {
      "channel": 3,
      "note": 57,
      "start": 2.5358,
      "duration": 0.2533,
      "velocity": 109,
      "chip": "ym2612"
    },
    {
      "channel": 2,
      "note": 69,
      "start": 2.5371,
      "duration": 0.2489,
      "velocity": 127,
      "chip": "ym2612"
    },
    {
      "channel": 3,
      "note": 57,
      "start": 2.7895,
      "duration": 0.2541,
      "velocity": 109,
      "chip": "ym2612"
    },
    {
      "channel": 5,
      "note": 62,
      "start": 2.7904,
      "duration": 0.2541,
      "velocity": 107,
      "chip": "ym2612"
    },
    {
      "channel": 2,
      "note": 69,
      "start": 2.7913,
      "duration": 0.2487,
      "velocity": 127,
      "chip": "ym2612"
    },
    {
      "channel": 1,
      "note": 38,
      "start": 3.0435,
      "duration": 1.0161,
      "velocity": 109,
      "chip": "ym2612"
    },
    {
      "channel": 3,
      "note": 54,
      "start": 3.0442,
      "duration": 0.028,
      "velocity": 109,
      "chip": "ym2612"
    },
    {
      "channel": 5,
      "note": 69,
      "start": 3.0451,
      "duration": 0.1228,
      "velocity": 107,
      "chip": "ym2612"
    },
    {
      "channel": 2,
      "note": 30,
      "start": 3.0459,
      "duration": 0.1541,
      "velocity": 119,
      "chip": "ym2612"
    },
    {
      "channel": 3,
      "note": 56,
      "start": 3.0727,
      "duration": 0.047,
      "velocity": 109,
      "chip": "ym2612"
    },
    {
      "channel": 3,
      "note": 57,
      "start": 3.1203,
      "duration": 0.177,
      "velocity": 109,
      "chip": "ym2612"
    },
    {
      "channel": 5,
      "note": 69,
      "start": 3.1683,
      "duration": 0.1299,
      "velocity": 107,
      "chip": "ym2612"
    },
    {
      "channel": 3,
      "note": 57,
      "start": 3.2979,
      "duration": 0.2532,
      "velocity": 109,
      "chip": "ym2612"
    },
    {
      "channel": 5,
      "note": 62,
      "start": 3.2988,
      "duration": 0.2558,
      "velocity": 113,
      "chip": "ym2612"
    },
    {
      "channel": 2,
      "note": 69,
      "start": 3.2997,
      "duration": 0.2483,
      "velocity": 127,
      "chip": "ym2612"
    },
    {
      "channel": 3,
      "note": 57,
      "start": 3.5516,
      "duration": 0.2536,
      "velocity": 109,
      "chip": "ym2612"
    },
    {
      "channel": 5,
      "note": 49,
      "start": 3.5551,
      "duration": 0.2507,
      "velocity": 113,
      "chip": "ym2612"
    },
    {
      "channel": 2,
      "note": 69,
      "start": 3.556,
      "duration": 0.2459,
      "velocity": 127,
      "chip": "ym2612"
    },
    {
      "channel": 3,
      "note": 57,
      "start": 3.8056,
      "duration": 0.2548,
      "velocity": 109,
      "chip": "ym2612"
    },
    {
      "channel": 5,
      "note": 49,
      "start": 3.8063,
      "duration": 0.1237,
      "velocity": 113,
      "chip": "ym2612"
    },
    {
      "channel": 2,
      "note": 69,
      "start": 3.8071,
      "duration": 0.2489,
      "velocity": 127,
      "chip": "ym2612"
    },
    {
      "channel": 5,
      "note": 49,
      "start": 3.9304,
      "duration": 0.1339,
      "velocity": 107,
      "chip": "ym2612"
    },
    {
      "channel": 0,
      "note": 62,
      "start": 4.0595,
      "duration": 0.5073,
      "velocity": 108,
      "chip": "ym2612"
    },
    {
      "channel": 1,
      "note": 38,
      "start": 4.0602,
      "duration": 1.0155,
      "velocity": 109,
      "chip": "ym2612"
    },
    {
      "channel": 3,
      "note": 54,
      "start": 4.061,
      "duration": 0.0276,
      "velocity": 109,
      "chip": "ym2612"
    },
    {
      "channel": 5,
      "note": 62,
      "start": 4.0649,
      "duration": 0.249,
      "velocity": 107,
      "chip": "ym2612"
    },
    {
      "channel": 2,
      "note": 30,
      "start": 4.0657,
      "duration": 0.1506,
      "velocity": 119,
      "chip": "ym2612"
    },
    {
      "channel": 3,
      "note": 56,
      "start": 4.0891,
      "duration": 0.047,
      "velocity": 109,
      "chip": "ym2612"
    },
    {
      "channel": 3,
      "note": 57,
      "start": 4.1367,
      "duration": 0.4311,
      "velocity": 109,
      "chip": "ym2612"
    },
    {
      "channel": 5,
      "note": 69,
      "start": 4.3145,
      "duration": 0.1237,
      "velocity": 107,
      "chip": "ym2612"
    },
    {
      "channel": 2,
      "note": 69,
      "start": 4.3153,
      "duration": 0.2487,
      "velocity": 127,
      "chip": "ym2612"
    },
    {
      "channel": 5,
      "note": 69,
      "start": 4.4386,
      "duration": 0.384,
      "velocity": 107,
      "chip": "ym2612"
    },
    {
      "channel": 0,
      "note": 57,
      "start": 4.5673,
      "duration": 0.2534,
      "velocity": 108,
      "chip": "ym2612"
    },
    {
      "channel": 3,
      "note": 57,
      "start": 4.5684,
      "duration": 0.2534,
      "velocity": 109,
      "chip": "ym2612"
    },
    {
      "channel": 2,
      "note": 69,
      "start": 4.5698,
      "duration": 0.2482,
      "velocity": 127,
      "chip": "ym2612"
    },
    {
      "channel": 0,
      "note": 57,
      "start": 4.8214,
      "duration": 0.2536,
      "velocity": 108,
      "chip": "ym2612"
    },
    {
      "channel": 3,
      "note": 57,
      "start": 4.8223,
      "duration": 0.2541,
      "velocity": 109,
      "chip": "ym2612"
    },
    {
      "channel": 5,
      "note": 62,
      "start": 4.8231,
      "duration": 0.2541,
      "velocity": 107,
      "chip": "ym2612"
    },
    {
      "channel": 2,
      "note": 69,
      "start": 4.824,
      "duration": 0.2481,
      "velocity": 127,
      "chip": "ym2612"
    },
    {
      "channel": 0,
      "note": 62,
      "start": 5.0755,
      "duration": 0.5074,
      "velocity": 108,
      "chip": "ym2612"
    },
    {
      "channel": 1,
      "note": 38,
      "start": 5.0763,
      "duration": 1.0153,
      "velocity": 109,
      "chip": "ym2612"
    },
    {
      "channel": 3,
      "note": 54,
      "start": 5.077,
      "duration": 0.0275,
      "velocity": 109,
      "chip": "ym2612"
    },
    {
      "channel": 5,
      "note": 69,
      "start": 5.0778,
      "duration": 0.1223,
      "velocity": 107,
      "chip": "ym2612"
    },
    {
      "channel": 2,
      "note": 30,
      "start": 5.0787,
      "duration": 0.1537,
      "velocity": 119,
      "chip": "ym2612"
    },
    {
      "channel": 3,
      "note": 56,
      "start": 5.1051,
      "duration": 0.047,
      "velocity": 109,
      "chip": "ym2612"
    },
    {
      "channel": 3,
      "note": 57,
      "start": 5.1527,
      "duration": 0.1768,
      "velocity": 109,
      "chip": "ym2612"
    },
    {
      "channel": 5,
      "note": 69,
      "start": 5.2006,
      "duration": 0.1298,
      "velocity": 107,
      "chip": "ym2612"
    },
    {
      "channel": 3,
      "note": 57,
      "start": 5.3301,
      "duration": 0.2538,
      "velocity": 109,
      "chip": "ym2612"
    },
    {
      "channel": 5,
      "note": 62,
      "start": 5.331,
      "duration": 0.2564,
      "velocity": 113,
      "chip": "ym2612"
    },
    {
      "channel": 2,
      "note": 69,
      "start": 5.3318,
      "duration": 0.2483,
      "velocity": 127,
      "chip": "ym2612"
    },
    {
      "channel": 0,
      "note": 64,
      "start": 5.5834,
      "duration": 0.2534,
      "velocity": 108,
      "chip": "ym2612"
    },
    {
      "channel": 3,
      "note": 57,
      "start": 5.5844,
      "duration": 0.2535,
      "velocity": 109,
      "chip": "ym2612"
    },
    {
      "channel": 5,
      "note": 49,
      "start": 5.588,
      "duration": 0.2506,
      "velocity": 113,
      "chip": "ym2612"
    },
    {
      "channel": 2,
      "note": 69,
      "start": 5.5888,
      "duration": 0.2452,
      "velocity": 127,
      "chip": "ym2612"
    },
    {
      "channel": 0,
      "note": 65,
      "start": 5.8374,
      "duration": 0.2536,
      "velocity": 108,
      "chip": "ym2612"
    },
    {
      "channel": 3,
      "note": 57,
      "start": 5.8383,
      "duration": 0.2542,
      "velocity": 109,
      "chip": "ym2612"
    },
    {
      "channel": 5,
      "note": 49,
      "start": 5.839,
      "duration": 0.1232,
      "velocity": 113,
      "chip": "ym2612"
    },
    {
      "channel": 2,
      "note": 69,
      "start": 5.8399,
      "duration": 0.2483,
      "velocity": 127,
      "chip": "ym2612"
    },
    {
      "channel": 5,
      "note": 49,
      "start": 5.9626,
      "duration": 0.1342,
      "velocity": 107,
      "chip": "ym2612"
    },
    {
      "channel": 0,
      "note": 67,
      "start": 6.0915,
      "duration": 0.2534,
      "velocity": 108,
      "chip": "ym2612"
    },
    {
      "channel": 1,
      "note": 38,
      "start": 6.0922,
      "duration": 1.0154,
      "velocity": 109,
      "chip": "ym2612"
    },
    {
      "channel": 3,
      "note": 54,
      "start": 6.0931,
      "duration": 0.0273,
      "velocity": 109,
      "chip": "ym2612"
    },
    {
      "channel": 4,
      "note": 62,
      "start": 6.0939,
      "duration": 0.5067,
      "velocity": 105,
      "chip": "ym2612"
    },
    {
      "channel": 5,
      "note": 62,
      "start": 6.0975,
      "duration": 0.2492,
      "velocity": 107,
      "chip": "ym2612"
    },
    {
      "channel": 2,
      "note": 30,
      "start": 6.0983,
      "duration": 0.1504,
      "velocity": 119,
      "chip": "ym2612"
    },
    {
      "channel": 3,
      "note": 56,
      "start": 6.1211,
      "duration": 0.047,
      "velocity": 109,
      "chip": "ym2612"
    },
    {
      "channel": 3,
      "note": 57,
      "start": 6.1688,
      "duration": 0.4311,
      "velocity": 109,
      "chip": "ym2612"
    },
    {
      "channel": 0,
      "note": 65,
      "start": 6.3455,
      "duration": 0.2533,
      "velocity": 108,
      "chip": "ym2612"
    },
    {
      "channel": 5,
      "note": 69,
      "start": 6.3472,
      "duration": 0.1232,
      "velocity": 107,
      "chip": "ym2612"
    },
    {
      "channel": 2,
      "note": 69,
      "start": 6.3481,
      "duration": 0.2478,
      "velocity": 127,
      "chip": "ym2612"
    },
    {
      "channel": 5,
      "note": 69,
      "start": 6.4709,
      "duration": 0.3844,
      "velocity": 107,
      "chip": "ym2612"
    },
    {
      "channel": 0,
      "note": 64,
      "start": 6.5993,
      "duration": 0.2536,
      "velocity": 108,
      "chip": "ym2612"
    },
    {
      "channel": 3,
      "note": 57,
      "start": 6.6005,
      "duration": 0.2534,
      "velocity": 109,
      "chip": "ym2612"
    },
    {
      "channel": 4,
      "note": 57,
      "start": 6.6012,
      "duration": 0.2534,
      "velocity": 105,
      "chip": "ym2612"
    },
    {
      "channel": 2,
      "note": 69,
      "start": 6.6024,
      "duration": 0.2477,
      "velocity": 127,
      "chip": "ym2612"
    },
    {
      "channel": 0,
      "note": 65,
      "start": 6.8535,
      "duration": 0.2535,
      "velocity": 108,
      "chip": "ym2612"
    },
    {
      "channel": 3,
      "note": 57,
      "start": 6.8544,
      "duration": 0.254,
      "velocity": 109,
      "chip": "ym2612"
    },
    {
      "channel": 4,
      "note": 57,
      "start": 6.8551,
      "duration": 0.2541,
      "velocity": 105,
      "chip": "ym2612"
    },
    {
      "channel": 5,
      "note": 62,
      "start": 6.8559,
      "duration": 0.2541,
      "velocity": 107,
      "chip": "ym2612"
    },
    {
      "channel": 2,
      "note": 69,
      "start": 6.8567,
      "duration": 0.2474,
      "velocity": 127,
      "chip": "ym2612"
    },
    {
      "channel": 0,
      "note": 62,
      "start": 7.1076,
      "duration": 0.5073,
      "velocity": 108,
      "chip": "ym2612"
    },
    {
      "channel": 1,
      "note": 38,
      "start": 7.1083,
      "duration": 1.0154,
      "velocity": 109,
      "chip": "ym2612"
    },
    {
      "channel": 3,
      "note": 54,
      "start": 7.1091,
      "duration": 0.0275,
      "velocity": 109,
      "chip": "ym2612"
    },
    {
      "channel": 4,
      "note": 62,
      "start": 7.1098,
      "duration": 0.5067,
      "velocity": 105,
      "chip": "ym2612"
    },
    {
      "channel": 5,
      "note": 69,
      "start": 7.1106,
      "duration": 0.1219,
      "velocity": 107,
      "chip": "ym2612"
    },
    {
      "channel": 2,
      "note": 30,
      "start": 7.1114,
      "duration": 0.1533,
      "velocity": 119,
      "chip": "ym2612"
    },
    {
      "channel": 3,
      "note": 56,
      "start": 7.1371,
      "duration": 0.047,
      "velocity": 109,
      "chip": "ym2612"
    },
    {
      "channel": 3,
      "note": 57,
      "start": 7.1848,
      "duration": 0.1768,
      "velocity": 109,
      "chip": "ym2612"
    },
    {
      "channel": 5,
      "note": 69,
      "start": 7.2329,
      "duration": 0.1298,
      "velocity": 107,
      "chip": "ym2612"
    },
    {
      "channel": 3,
      "note": 57,
      "start": 7.3622,
      "duration": 0.2537,
      "velocity": 109,
      "chip": "ym2612"
    },
    {
      "channel": 5,
      "note": 62,
      "start": 7.3633,
      "duration": 0.2568,
      "velocity": 113,
      "chip": "ym2612"
    },
    {
      "channel": 2,
      "note": 69,
      "start": 7.3642,
      "duration": 0.2479,
      "velocity": 127,
      "chip": "ym2612"
    },
    {
      "channel": 0,
      "note": 57,
      "start": 7.6154,
      "duration": 0.2534,
      "velocity": 108,
      "chip": "ym2612"
    },
    {
      "channel": 3,
      "note": 57,
      "start": 7.6164,
      "duration": 0.2535,
      "velocity": 109,
      "chip": "ym2612"
    },
    {
      "channel": 4,
      "note": 64,
      "start": 7.6171,
      "duration": 0.2534,
      "velocity": 105,
      "chip": "ym2612"
    },
    {
      "channel": 5,
      "note": 49,
      "start": 7.6206,
      "duration": 0.2506,
      "velocity": 113,
      "chip": "ym2612"
    },
    {
      "channel": 2,
      "note": 69,
      "start": 7.6215,
      "duration": 0.2446,
      "velocity": 127,
      "chip": "ym2612"
    },
    {
      "channel": 0,
      "note": 57,
      "start": 7.8694,
      "duration": 0.2535,
      "velocity": 108,
      "chip": "ym2612"
    },
    {
      "channel": 3,
      "note": 57,
      "start": 7.8703,
      "duration": 0.2542,
      "velocity": 109,
      "chip": "ym2612"
    },
    {
      "channel": 4,
      "note": 65,
      "start": 7.8711,
      "duration": 0.2541,
      "velocity": 105,
      "chip": "ym2612"
    },
    {
      "channel": 5,
      "note": 49,
      "start": 7.8717,
      "duration": 0.1228,
      "velocity": 113,
      "chip": "ym2612"
    },
    {
      "channel": 2,
      "note": 69,
      "start": 7.8726,
      "duration": 0.2476,
      "velocity": 127,
      "chip": "ym2612"
    },
    {
      "channel": 5,
      "note": 49,
      "start": 7.9949,
      "duration": 0.1339,
      "velocity": 107,
      "chip": "ym2612"
    },
    {
      "channel": 0,
      "note": 62,
      "start": 8.1236,
      "duration": 0.5073,
      "velocity": 108,
      "chip": "ym2612"
    },
    {
      "channel": 1,
      "note": 38,
      "start": 8.1243,
      "duration": 1.0154,
      "velocity": 109,
      "chip": "ym2612"
    },
    {
      "channel": 3,
      "note": 54,
      "start": 8.1251,
      "duration": 0.0274,
      "velocity": 109,
      "chip": "ym2612"
    },
    {
      "channel": 4,
      "note": 67,
      "start": 8.1259,
      "duration": 0.2521,
      "velocity": 105,
      "chip": "ym2612"
    },
    {
      "channel": 5,
      "note": 62,
      "start": 8.1294,
      "duration": 0.2494,
      "velocity": 107,
      "chip": "ym2612"
    },
    {
      "channel": 2,
      "note": 30,
      "start": 8.1302,
      "duration": 0.1504,
      "velocity": 119,
      "chip": "ym2612"
    },
    {
      "channel": 3,
      "note": 56,
      "start": 8.1531,
      "duration": 0.0471,
      "velocity": 109,
      "chip": "ym2612"
    },
    {
      "channel": 3,
      "note": 57,
      "start": 8.2008,
      "duration": 0.4312,
      "velocity": 109,
      "chip": "ym2612"
    },
    {
      "channel": 4,
      "note": 65,
      "start": 8.3786,
      "duration": 0.2541,
      "velocity": 105,
      "chip": "ym2612"
    },
    {
      "channel": 5,
      "note": 69,
      "start": 8.3794,
      "duration": 0.1232,
      "velocity": 107,
      "chip": "ym2612"
    },
    {
      "channel": 2,
      "note": 69,
      "start": 8.3802,
      "duration": 0.2478,
      "velocity": 127,
      "chip": "ym2612"
    },
    {
      "channel": 5,
      "note": 69,
      "start": 8.503,
      "duration": 0.3843,
      "velocity": 107,
      "chip": "ym2612"
    },
    {
      "channel": 0,
      "note": 57,
      "start": 8.6315,
      "duration": 0.2534,
      "velocity": 108,
      "chip": "ym2612"
    },
    {
      "channel": 3,
      "note": 57,
      "start": 8.6326,
      "duration": 0.2534,
      "velocity": 109,
      "chip": "ym2612"
    },
    {
      "channel": 4,
      "note": 64,
      "start": 8.6333,
      "duration": 0.2533,
      "velocity": 105,
      "chip": "ym2612"
    },
    {
      "channel": 2,
      "note": 69,
      "start": 8.6345,
      "duration": 0.2476,
      "velocity": 127,
      "chip": "ym2612"
    },
    {
      "channel": 0,
      "note": 57,
      "start": 8.8855,
      "duration": 0.2534,
      "velocity": 108,
      "chip": "ym2612"
    },
    {
      "channel": 3,
      "note": 57,
      "start": 8.8864,
      "duration": 0.2539,
      "velocity": 109,
      "chip": "ym2612"
    },
    {
      "channel": 4,
      "note": 65,
      "start": 8.8872,
      "duration": 0.2539,
      "velocity": 105,
      "chip": "ym2612"
    },
    {
      "channel": 5,
      "note": 62,
      "start": 8.888,
      "duration": 0.2539,
      "velocity": 107,
      "chip": "ym2612"
    },
    {
      "channel": 2,
      "note": 69,
      "start": 8.8888,
      "duration": 0.2473,
      "velocity": 127,
      "chip": "ym2612"
    },
    {
      "channel": 0,
      "note": 62,
      "start": 9.1395,
      "duration": 0.5074,
      "velocity": 108,
      "chip": "ym2612"
    },
    {
      "channel": 1,
      "note": 38,
      "start": 9.1402,
      "duration": 1.0154,
      "velocity": 109,
      "chip": "ym2612"
    },
    {
      "channel": 3,
      "note": 54,
      "start": 9.141,
      "duration": 0.0276,
      "velocity": 109,
      "chip": "ym2612"
    },
    {
      "channel": 4,
      "note": 62,
      "start": 9.1418,
      "duration": 0.5068,
      "velocity": 105,
      "chip": "ym2612"
    },
    {
      "channel": 5,
      "note": 69,
      "start": 9.1426,
      "duration": 0.1219,
      "velocity": 107,
      "chip": "ym2612"
    },
    {
      "channel": 2,
      "note": 30,
      "start": 9.1434,
      "duration": 0.1533,
      "velocity": 119,
      "chip": "ym2612"
    },
    {
      "channel": 3,
      "note": 56,
      "start": 9.1691,
      "duration": 0.0471,
      "velocity": 109,
      "chip": "ym2612"
    },
    {
      "channel": 3,
      "note": 57,
      "start": 9.2168,
      "duration": 0.1768,
      "velocity": 109,
      "chip": "ym2612"
    },
    {
      "channel": 5,
      "note": 69,
      "start": 9.265,
      "duration": 0.1297,
      "velocity": 107,
      "chip": "ym2612"
    },
    {
      "channel": 3,
      "note": 57,
      "start": 9.3942,
      "duration": 0.2538,
      "velocity": 109,
      "chip": "ym2612"
    },
    {
      "channel": 5,
      "note": 62,
      "start": 9.3953,
      "duration": 0.2568,
      "velocity": 113,
      "chip": "ym2612"
    },
    {
      "channel": 2,
      "note": 69,
      "start": 9.3962,
      "duration": 0.248,
      "velocity": 127,
      "chip": "ym2612"
    },
    {
      "channel": 0,
      "note": 64,
      "start": 9.6475,
      "duration": 0.2534,
      "velocity": 108,
      "chip": "ym2612"
    },
    {
      "channel": 3,
      "note": 57,
      "start": 9.6485,
      "duration": 0.2535,
      "velocity": 109,
      "chip": "ym2612"
    },
    {
      "channel": 4,
      "note": 57,
      "start": 9.6492,
      "duration": 0.2534,
      "velocity": 105,
      "chip": "ym2612"
    },
    {
      "channel": 5,
      "note": 49,
      "start": 9.6527,
      "duration": 0.2506,
      "velocity": 113,
      "chip": "ym2612"
    },
    {
      "channel": 2,
      "note": 69,
      "start": 9.6535,
      "duration": 0.2445,
      "velocity": 127,
      "chip": "ym2612"
    },
    {
      "channel": 0,
      "note": 65,
      "start": 9.9015,
      "duration": 0.2535,
      "velocity": 108,
      "chip": "ym2612"
    },
    {
      "channel": 3,
      "note": 57,
      "start": 9.9024,
      "duration": 0.2541,
      "velocity": 109,
      "chip": "ym2612"
    },
    {
      "channel": 4,
      "note": 57,
      "start": 9.9032,
      "duration": 0.2541,
      "velocity": 105,
      "chip": "ym2612"
    },
    {
      "channel": 5,
      "note": 49,
      "start": 9.9037,
      "duration": 0.123,
      "velocity": 113,
      "chip": "ym2612"
    },
    {
      "channel": 2,
      "note": 69,
      "start": 9.9046,
      "duration": 0.2476,
      "velocity": 127,
      "chip": "ym2612"
    },
    {
      "channel": 5,
      "note": 49,
      "start": 10.0272,
      "duration": 0.1337,
      "velocity": 107,
      "chip": "ym2612"
    },
    {
      "channel": 0,
      "note": 67,
      "start": 10.1556,
      "duration": 0.2534,
      "velocity": 108,
      "chip": "ym2612"
    },
    {
      "channel": 1,
      "note": 38,
      "start": 10.1563,
      "duration": 1.0154,
      "velocity": 109,
      "chip": "ym2612"
    },
    {
      "channel": 3,
      "note": 54,
      "start": 10.1571,
      "duration": 0.0274,
      "velocity": 109,
      "chip": "ym2612"
    },
    {
      "channel": 4,
      "note": 62,
      "start": 10.1579,
      "duration": 0.5069,
      "velocity": 105,
      "chip": "ym2612"
    },
    {
      "channel": 5,
      "note": 62,
      "start": 10.1615,
      "duration": 0.2493,
      "velocity": 107,
      "chip": "ym2612"
    },
    {
      "channel": 2,
      "note": 30,
      "start": 10.1623,
      "duration": 0.1505,
      "velocity": 119,
      "chip": "ym2612"
    },
    {
      "channel": 3,
      "note": 56,
      "start": 10.1851,
      "duration": 0.0471,
      "velocity": 109,
      "chip": "ym2612"
    },
    {
      "channel": 3,
      "note": 57,
      "start": 10.2329,
      "duration": 0.431,
      "velocity": 109,
      "chip": "ym2612"
    },
    {
      "channel": 0,
      "note": 65,
      "start": 10.4096,
      "duration": 0.2533,
      "velocity": 108,
      "chip": "ym2612"
    },
    {
      "channel": 5,
      "note": 69,
      "start": 10.4114,
      "duration": 0.1231,
      "velocity": 107,
      "chip": "ym2612"
    },
    {
      "channel": 2,
      "note": 69,
      "start": 10.4122,
      "duration": 0.2478,
      "velocity": 127,
      "chip": "ym2612"
    },
    {
      "channel": 5,
      "note": 69,
      "start": 10.535,
      "duration": 0.3844,
      "velocity": 107,
      "chip": "ym2612"
    },
    {
      "channel": 0,
      "note": 64,
      "start": 10.6635,
      "duration": 0.2535,
      "velocity": 108,
      "chip": "ym2612"
    },
    {
      "channel": 3,
      "note": 57,
      "start": 10.6646,
      "duration": 0.2534,
      "velocity": 109,
      "chip": "ym2612"
    },
    {
      "channel": 4,
      "note": 57,
      "start": 10.6653,
      "duration": 0.2533,
      "velocity": 105,
      "chip": "ym2612"
    },
    {
      "channel": 2,
      "note": 69,
      "start": 10.6665,
      "duration": 0.2477,
      "velocity": 127,
      "chip": "ym2612"
    },
    {
      "channel": 0,
      "note": 65,
      "start": 10.9175,
      "duration": 0.2534,
      "velocity": 108,
      "chip": "ym2612"
    },
    {
      "channel": 3,
      "note": 57,
      "start": 10.9184,
      "duration": 0.254,
      "velocity": 109,
      "chip": "ym2612"
    },
    {
      "channel": 4,
      "note": 57,
      "start": 10.9192,
      "duration": 0.254,
      "velocity": 105,
      "chip": "ym2612"
    },
    {
      "channel": 5,
      "note": 62,
      "start": 10.92,
      "duration": 0.254,
      "velocity": 107,
      "chip": "ym2612"
    },
    {
      "channel": 2,
      "note": 69,
      "start": 10.9208,
      "duration": 0.2474,
      "velocity": 127,
      "chip": "ym2612"
    },
    {
      "channel": 0,
      "note": 62,
      "start": 11.1715,
      "duration": 0.5074,
      "velocity": 108,
      "chip": "ym2612"
    },
    {
      "channel": 1,
      "note": 38,
      "start": 11.1723,
      "duration": 1.0154,
      "velocity": 109,
      "chip": "ym2612"
    },
    {
      "channel": 3,
      "note": 54,
      "start": 11.173,
      "duration": 0.0276,
      "velocity": 109,
      "chip": "ym2612"
    },
    {
      "channel": 4,
      "note": 62,
      "start": 11.1738,
      "duration": 0.5069,
      "velocity": 105,
      "chip": "ym2612"
    },
    {
      "channel": 5,
      "note": 69,
      "start": 11.1745,
      "duration": 0.1221,
      "velocity": 107,
      "chip": "ym2612"
    },
    {
      "channel": 2,
      "note": 30,
      "start": 11.1754,
      "duration": 0.1534,
      "velocity": 119,
      "chip": "ym2612"
    },
    {
      "channel": 3,
      "note": 56,
      "start": 11.2012,
      "duration": 0.0471,
      "velocity": 109,
      "chip": "ym2612"
    },
    {
      "channel": 3,
      "note": 57,
      "start": 11.2489,
      "duration": 0.1768,
      "velocity": 109,
      "chip": "ym2612"
    },
    {
      "channel": 5,
      "note": 69,
      "start": 11.2971,
      "duration": 0.1298,
      "velocity": 107,
      "chip": "ym2612"
    },
    {
      "channel": 3,
      "note": 57,
      "start": 11.4263,
      "duration": 0.2537,
      "velocity": 109,
      "chip": "ym2612"
    },
    {
      "channel": 5,
      "note": 62,
      "start": 11.4275,
      "duration": 0.2566,
      "velocity": 113,
      "chip": "ym2612"
    },
    {
      "channel": 2,
      "note": 69,
      "start": 11.4283,
      "duration": 0.2478,
      "velocity": 127,
      "chip": "ym2612"
    },
    {
      "channel": 0,
      "note": 64,
      "start": 11.6795,
      "duration": 0.2534,
      "velocity": 108,
      "chip": "ym2612"
    },
    {
      "channel": 3,
      "note": 57,
      "start": 11.6805,
      "duration": 0.2536,
      "velocity": 109,
      "chip": "ym2612"
    },
    {
      "channel": 4,
      "note": 64,
      "start": 11.6812,
      "duration": 0.2534,
      "velocity": 105,
      "chip": "ym2612"
    },
    {
      "channel": 5,
      "note": 49,
      "start": 11.6847,
      "duration": 0.2506,
      "velocity": 113,
      "chip": "ym2612"
    },
    {
      "channel": 2,
      "note": 69,
      "start": 11.6855,
      "duration": 0.2446,
      "velocity": 127,
      "chip": "ym2612"
    },
    {
      "channel": 0,
      "note": 65,
      "start": 11.9335,
      "duration": 0.2535,
      "velocity": 108,
      "chip": "ym2612"
    },
    {
      "channel": 3,
      "note": 57,
      "start": 11.9344,
      "duration": 0.2541,
      "velocity": 109,
      "chip": "ym2612"
    },
    {
      "channel": 4,
      "note": 65,
      "start": 11.9351,
      "duration": 0.2541,
      "velocity": 105,
      "chip": "ym2612"
    },
    {
      "channel": 5,
      "note": 49,
      "start": 11.9358,
      "duration": 0.1229,
      "velocity": 113,
      "chip": "ym2612"
    },
    {
      "channel": 2,
      "note": 69,
      "start": 11.9366,
      "duration": 0.2475,
      "velocity": 127,
      "chip": "ym2612"
    },
    {
      "channel": 5,
      "note": 49,
      "start": 12.0592,
      "duration": 0.1337,
      "velocity": 107,
      "chip": "ym2612"
    },
    {
      "channel": 0,
      "note": 64,
      "start": 12.1876,
      "duration": 0.5074,
      "velocity": 108,
      "chip": "ym2612"
    },
    {
      "channel": 1,
      "note": 40,
      "start": 12.1883,
      "duration": 1.0155,
      "velocity": 109,
      "chip": "ym2612"
    },
    {
      "channel": 3,
      "note": 56,
      "start": 12.1891,
      "duration": 0.0276,
      "velocity": 109,
      "chip": "ym2612"
    },
    {
      "channel": 4,
      "note": 67,
      "start": 12.1899,
      "duration": 0.2522,
      "velocity": 105,
      "chip": "ym2612"
    },
    {
      "channel": 5,
      "note": 62,
      "start": 12.1934,
      "duration": 0.2494,
      "velocity": 107,
      "chip": "ym2612"
    },
    {
      "channel": 2,
      "note": 30,
      "start": 12.1942,
      "duration": 0.1506,
      "velocity": 119,
      "chip": "ym2612"
    },
    {
      "channel": 3,
      "note": 57,
      "start": 12.2172,
      "duration": 0.047,
      "velocity": 109,
      "chip": "ym2612"
    },
    {
      "channel": 3,
      "note": 59,
      "start": 12.2649,
      "duration": 0.4312,
      "velocity": 109,
      "chip": "ym2612"
    },
    {
      "channel": 4,
      "note": 65,
      "start": 12.4427,
      "duration": 0.2542,
      "velocity": 105,
      "chip": "ym2612"
    },
    {
      "channel": 5,
      "note": 69,
      "start": 12.4434,
      "duration": 0.1232,
      "velocity": 107,
      "chip": "ym2612"
    },
    {
      "channel": 2,
      "note": 69,
      "start": 12.4442,
      "duration": 0.2479,
      "velocity": 127,
      "chip": "ym2612"
    },
    {
      "channel": 5,
      "note": 69,
      "start": 12.5671,
      "duration": 0.3842,
      "velocity": 107,
      "chip": "ym2612"
    },
    {
      "channel": 0,
      "note": 59,
      "start": 12.6956,
      "duration": 0.2534,
      "velocity": 108,
      "chip": "ym2612"
    },
    {
      "channel": 3,
      "note": 59,
      "start": 12.6967,
      "duration": 0.2533,
      "velocity": 109,
      "chip": "ym2612"
    },
    {
      "channel": 4,
      "note": 64,
      "start": 12.6974,
      "duration": 0.2532,
      "velocity": 105,
      "chip": "ym2612"
    },
    {
      "channel": 2,
      "note": 69,
      "start": 12.6986,
      "duration": 0.2475,
      "velocity": 127,
      "chip": "ym2612"
    },
    {
      "channel": 0,
      "note": 59,
      "start": 12.9495,
      "duration": 0.2536,
      "velocity": 108,
      "chip": "ym2612"
    },
    {
      "channel": 3,
      "note": 59,
      "start": 12.9504,
      "duration": 0.2541,
      "velocity": 109,
      "chip": "ym2612"
    },
    {
      "channel": 4,
      "note": 65,
      "start": 12.9512,
      "duration": 0.2541,
      "velocity": 105,
      "chip": "ym2612"
    },
    {
      "channel": 5,
      "note": 62,
      "start": 12.952,
      "duration": 0.2541,
      "velocity": 107,
      "chip": "ym2612"
    },
    {
      "channel": 2,
      "note": 69,
      "start": 12.9528,
      "duration": 0.2475,
      "velocity": 127,
      "chip": "ym2612"
    },
    {
      "channel": 0,
      "note": 64,
      "start": 13.2037,
      "duration": 0.5074,
      "velocity": 108,
      "chip": "ym2612"
    },
    {
      "channel": 1,
      "note": 40,
      "start": 13.2044,
      "duration": 1.0154,
      "velocity": 109,
      "chip": "ym2612"
    },
    {
      "channel": 3,
      "note": 56,
      "start": 13.2051,
      "duration": 0.0276,
      "velocity": 109,
      "chip": "ym2612"
    },
    {
      "channel": 4,
      "note": 62,
      "start": 13.2059,
      "duration": 0.5068,
      "velocity": 105,
      "chip": "ym2612"
    },
    {
      "channel": 5,
      "note": 69,
      "start": 13.2067,
      "duration": 0.1219,
      "velocity": 107,
      "chip": "ym2612"
    },
    {
      "channel": 2,
      "note": 30,
      "start": 13.2075,
      "duration": 0.1533,
      "velocity": 119,
      "chip": "ym2612"
    },
    {
      "channel": 3,
      "note": 57,
      "start": 13.2333,
      "duration": 0.047,
      "velocity": 109,
      "chip": "ym2612"
    },
    {
      "channel": 3,
      "note": 59,
      "start": 13.2809,
      "duration": 0.1768,
      "velocity": 109,
      "chip": "ym2612"
    },
    {
      "channel": 5,
      "note": 69,
      "start": 13.329,
      "duration": 0.1297,
      "velocity": 107,
      "chip": "ym2612"
    },
    {
      "channel": 3,
      "note": 59,
      "start": 13.4583,
      "duration": 0.2539,
      "velocity": 109,
      "chip": "ym2612"
    },
    {
      "channel": 5,
      "note": 62,
      "start": 13.4595,
      "duration": 0.2567,
      "velocity": 113,
      "chip": "ym2612"
    },
    {
      "channel": 2,
      "note": 69,
      "start": 13.4603,
      "duration": 0.2479,
      "velocity": 127,
      "chip": "ym2612"
    },
    {
      "channel": 0,
      "note": 66,
      "start": 13.7116,
      "duration": 0.2534,
      "velocity": 108,
      "chip": "ym2612"
    },
    {
      "channel": 3,
      "note": 59,
      "start": 13.7126,
      "duration": 0.2534,
      "velocity": 109,
      "chip": "ym2612"
    },
    {
      "channel": 4,
      "note": 64,
      "start": 13.7133,
      "duration": 0.2533,
      "velocity": 105,
      "chip": "ym2612"
    },
    {
      "channel": 5,
      "note": 49,
      "start": 13.7168,
      "duration": 0.2506,
      "velocity": 113,
      "chip": "ym2612"
    },
    {
      "channel": 2,
      "note": 69,
      "start": 13.7177,
      "duration": 0.2445,
      "velocity": 127,
      "chip": "ym2612"
    },
    {
      "channel": 0,
      "note": 67,
      "start": 13.9656,
      "duration": 0.2536,
      "velocity": 108,
      "chip": "ym2612"
    },
    {
      "channel": 3,
      "note": 59,
      "start": 13.9665,
      "duration": 0.2542,
      "velocity": 109,
      "chip": "ym2612"
    },
    {
      "channel": 4,
      "note": 65,
      "start": 13.9672,
      "duration": 0.2542,
      "velocity": 105,
      "chip": "ym2612"
    },
    {
      "channel": 5,
      "note": 49,
      "start": 13.9678,
      "duration": 0.1229,
      "velocity": 113,
      "chip": "ym2612"
    },
    {
      "channel": 2,
      "note": 69,
      "start": 13.9687,
      "duration": 0.2476,
      "velocity": 127,
      "chip": "ym2612"
    },
    {
      "channel": 5,
      "note": 49,
      "start": 14.0911,
      "duration": 0.1339,
      "velocity": 107,
      "chip": "ym2612"
    },
    {
      "channel": 0,
      "note": 69,
      "start": 14.2197,
      "duration": 0.2533,
      "velocity": 108,
      "chip": "ym2612"
    },
    {
      "channel": 1,
      "note": 40,
      "start": 14.2204,
      "duration": 1.0154,
      "velocity": 109,
      "chip": "ym2612"
    },
    {
      "channel": 3,
      "note": 56,
      "start": 14.2212,
      "duration": 0.0274,
      "velocity": 109,
      "chip": "ym2612"
    },
    {
      "channel": 4,
      "note": 64,
      "start": 14.222,
      "duration": 0.5069,
      "velocity": 105,
      "chip": "ym2612"
    },
    {
      "channel": 5,
      "note": 62,
      "start": 14.2256,
      "duration": 0.2492,
      "velocity": 107,
      "chip": "ym2612"
    },
    {
      "channel": 2,
      "note": 30,
      "start": 14.2264,
      "duration": 0.1505,
      "velocity": 119,
      "chip": "ym2612"
    },
    {
      "channel": 3,
      "note": 57,
      "start": 14.2493,
      "duration": 0.047,
      "velocity": 109,
      "chip": "ym2612"
    },
    {
      "channel": 3,
      "note": 59,
      "start": 14.2968,
      "duration": 0.4313,
      "velocity": 109,
      "chip": "ym2612"
    },
    {
      "channel": 0,
      "note": 67,
      "start": 14.4736,
      "duration": 0.2535,
      "velocity": 108,
      "chip": "ym2612"
    },
    {
      "channel": 5,
      "note": 69,
      "start": 14.4754,
      "duration": 0.1234,
      "velocity": 107,
      "chip": "ym2612"
    },
    {
      "channel": 2,
      "note": 69,
      "start": 14.4763,
      "duration": 0.2479,
      "velocity": 127,
      "chip": "ym2612"
    },
    {
      "channel": 5,
      "note": 69,
      "start": 14.5991,
      "duration": 0.3842,
      "velocity": 107,
      "chip": "ym2612"
    },
    {
      "channel": 0,
      "note": 66,
      "start": 14.7276,
      "duration": 0.2533,
      "velocity": 108,
      "chip": "ym2612"
    },
    {
      "channel": 3,
      "note": 59,
      "start": 14.7287,
      "duration": 0.2533,
      "velocity": 109,
      "chip": "ym2612"
    },
    {
      "channel": 4,
      "note": 59,
      "start": 14.7295,
      "duration": 0.2531,
      "velocity": 105,
      "chip": "ym2612"
    },
    {
      "channel": 2,
      "note": 69,
      "start": 14.7307,
      "duration": 0.2475,
      "velocity": 127,
      "chip": "ym2612"
    },
    {
      "channel": 0,
      "note": 67,
      "start": 14.9815,
      "duration": 0.2535,
      "velocity": 108,
      "chip": "ym2612"
    },
    {
      "channel": 3,
      "note": 59,
      "start": 14.9825,
      "duration": 0.254,
      "velocity": 109,
      "chip": "ym2612"
    },
    {
      "channel": 4,
      "note": 59,
      "start": 14.9832,
      "duration": 0.2541,
      "velocity": 105,
      "chip": "ym2612"
    },
    {
      "channel": 5,
      "note": 62,
      "start": 14.9839,
      "duration": 0.2541,
      "velocity": 107,
      "chip": "ym2612"
    },
    {
      "channel": 2,
      "note": 69,
      "start": 14.9848,
      "duration": 0.2474,
      "velocity": 127,
      "chip": "ym2612"
    },
    {
      "channel": 0,
      "note": 64,
      "start": 15.2357,
      "duration": 0.5074,
      "velocity": 108,
      "chip": "ym2612"
    },
    {
      "channel": 1,
      "note": 40,
      "start": 15.2364,
      "duration": 1.0155,
      "velocity": 109,
      "chip": "ym2612"
    },
    {
      "channel": 3,
      "note": 56,
      "start": 15.2371,
      "duration": 0.0276,
      "velocity": 109,
      "chip": "ym2612"
    },
    {
      "channel": 4,
      "note": 64,
      "start": 15.2378,
      "duration": 0.5069,
      "velocity": 105,
      "chip": "ym2612"
    },
    {
      "channel": 5,
      "note": 69,
      "start": 15.2386,
      "duration": 0.1221,
      "velocity": 107,
      "chip": "ym2612"
    },
    {
      "channel": 2,
      "note": 30,
      "start": 15.2394,
      "duration": 0.1534,
      "velocity": 119,
      "chip": "ym2612"
    },
    {
      "channel": 3,
      "note": 57,
      "start": 15.2653,
      "duration": 0.0471,
      "velocity": 109,
      "chip": "ym2612"
    },
    {
      "channel": 3,
      "note": 59,
      "start": 15.313,
      "duration": 0.1767,
      "velocity": 109,
      "chip": "ym2612"
    },
    {
      "channel": 5,
      "note": 69,
      "start": 15.3612,
      "duration": 0.1296,
      "velocity": 107,
      "chip": "ym2612"
    },
    {
      "channel": 3,
      "note": 59,
      "start": 15.4904,
      "duration": 0.2538,
      "velocity": 109,
      "chip": "ym2612"
    },
    {
      "channel": 5,
      "note": 62,
      "start": 15.4915,
      "duration": 0.2568,
      "velocity": 113,
      "chip": "ym2612"
    },
    {
      "channel": 2,
      "note": 69,
      "start": 15.4923,
      "duration": 0.248,
      "velocity": 127,
      "chip": "ym2612"
    },
    {
      "channel": 0,
      "note": 59,
      "start": 15.7437,
      "duration": 0.2534,
      "velocity": 108,
      "chip": "ym2612"
    },
    {
      "channel": 3,
      "note": 59,
      "start": 15.7446,
      "duration": 0.2534,
      "velocity": 109,
      "chip": "ym2612"
    },
    {
      "channel": 4,
      "note": 66,
      "start": 15.7454,
      "duration": 0.2533,
      "velocity": 105,
      "chip": "ym2612"
    },
    {
      "channel": 5,
      "note": 49,
      "start": 15.7488,
      "duration": 0.2506,
      "velocity": 113,
      "chip": "ym2612"
    },
    {
      "channel": 2,
      "note": 69,
      "start": 15.7497,
      "duration": 0.2445,
      "velocity": 127,
      "chip": "ym2612"
    },
    {
      "channel": 0,
      "note": 59,
      "start": 15.9976,
      "duration": 0.2535,
      "velocity": 108,
      "chip": "ym2612"
    },
    {
      "channel": 3,
      "note": 59,
      "start": 15.9985,
      "duration": 0.2542,
      "velocity": 109,
      "chip": "ym2612"
    },
    {
      "channel": 4,
      "note": 67,
      "start": 15.9993,
      "duration": 0.2541,
      "velocity": 105,
      "chip": "ym2612"
    },
    {
      "channel": 5,
      "note": 49,
      "start": 15.9998,
      "duration": 0.1229,
      "velocity": 113,
      "chip": "ym2612"
    },
    {
      "channel": 2,
      "note": 69,
      "start": 16.0007,
      "duration": 0.2476,
      "velocity": 127,
      "chip": "ym2612"
    },
    {
      "channel": 5,
      "note": 49,
      "start": 16.1232,
      "duration": 0.1338,
      "velocity": 107,
      "chip": "ym2612"
    },
    {
      "channel": 0,
      "note": 64,
      "start": 16.2517,
      "duration": 0.5075,
      "velocity": 108,
      "chip": "ym2612"
    },
    {
      "channel": 1,
      "note": 40,
      "start": 16.2524,
      "duration": 1.0155,
      "velocity": 109,
      "chip": "ym2612"
    },
    {
      "channel": 3,
      "note": 56,
      "start": 16.2533,
      "duration": 0.0274,
      "velocity": 109,
      "chip": "ym2612"
    },
    {
      "channel": 4,
      "note": 69,
      "start": 16.254,
      "duration": 0.252,
      "velocity": 105,
      "chip": "ym2612"
    },
    {
      "channel": 5,
      "note": 62,
      "start": 16.2576,
      "duration": 0.2492,
      "velocity": 107,
      "chip": "ym2612"
    },
    {
      "channel": 2,
      "note": 30,
      "start": 16.2584,
      "duration": 0.1504,
      "velocity": 119,
      "chip": "ym2612"
    },
    {
      "channel": 3,
      "note": 57,
      "start": 16.2813,
      "duration": 0.0471,
      "velocity": 109,
      "chip": "ym2612"
    },
    {
      "channel": 3,
      "note": 59,
      "start": 16.329,
      "duration": 0.4313,
      "velocity": 109,
      "chip": "ym2612"
    },
    {
      "channel": 4,
      "note": 67,
      "start": 16.5067,
      "duration": 0.2544,
      "velocity": 105,
      "chip": "ym2612"
    },
    {
      "channel": 5,
      "note": 69,
      "start": 16.5074,
      "duration": 0.1234,
      "velocity": 107,
      "chip": "ym2612"
    },
    {
      "channel": 2,
      "note": 69,
      "start": 16.5083,
      "duration": 0.2481,
      "velocity": 127,
      "chip": "ym2612"
    },
    {
      "channel": 5,
      "note": 69,
      "start": 16.6312,
      "duration": 0.3843,
      "velocity": 107,
      "chip": "ym2612"
    },
    {
      "channel": 0,
      "note": 59,
      "start": 16.7598,
      "duration": 0.2532,
      "velocity": 108,
      "chip": "ym2612"
    },
    {
      "channel": 3,
      "note": 59,
      "start": 16.7609,
      "duration": 0.2533,
      "velocity": 109,
      "chip": "ym2612"
    },
    {
      "channel": 4,
      "note": 66,
      "start": 16.7617,
      "duration": 0.2531,
      "velocity": 105,
      "chip": "ym2612"
    },
    {
      "channel": 2,
      "note": 69,
      "start": 16.7629,
      "duration": 0.2474,
      "velocity": 127,
      "chip": "ym2612"
    },
    {
      "channel": 0,
      "note": 59,
      "start": 17.0137,
      "duration": 0.2534,
      "velocity": 108,
      "chip": "ym2612"
    },
    {
      "channel": 3,
      "note": 59,
      "start": 17.0146,
      "duration": 0.254,
      "velocity": 109,
      "chip": "ym2612"
    },
    {
      "channel": 4,
      "note": 67,
      "start": 17.0154,
      "duration": 0.254,
      "velocity": 105,
      "chip": "ym2612"
    },
    {
      "channel": 5,
      "note": 62,
      "start": 17.0161,
      "duration": 0.254,
      "velocity": 107,
      "chip": "ym2612"
    },
    {
      "channel": 2,
      "note": 69,
      "start": 17.017,
      "duration": 0.2474,
      "velocity": 127,
      "chip": "ym2612"
    },
    {
      "channel": 0,
      "note": 64,
      "start": 17.2678,
      "duration": 0.5073,
      "velocity": 108,
      "chip": "ym2612"
    },
    {
      "channel": 1,
      "note": 40,
      "start": 17.2685,
      "duration": 1.0155,
      "velocity": 109,
      "chip": "ym2612"
    },
    {
      "channel": 3,
      "note": 56,
      "start": 17.2692,
      "duration": 0.0276,
      "velocity": 109,
      "chip": "ym2612"
    },
    {
      "channel": 4,
      "note": 64,
      "start": 17.27,
      "duration": 0.5068,
      "velocity": 105,
      "chip": "ym2612"
    },
    {
      "channel": 5,
      "note": 69,
      "start": 17.2707,
      "duration": 0.1221,
      "velocity": 107,
      "chip": "ym2612"
    },
    {
      "channel": 2,
      "note": 30,
      "start": 17.2715,
      "duration": 0.1533,
      "velocity": 119,
      "chip": "ym2612"
    },
    {
      "channel": 3,
      "note": 57,
      "start": 17.2974,
      "duration": 0.047,
      "velocity": 109,
      "chip": "ym2612"
    },
    {
      "channel": 3,
      "note": 59,
      "start": 17.345,
      "duration": 0.1767,
      "velocity": 109,
      "chip": "ym2612"
    },
    {
      "channel": 5,
      "note": 69,
      "start": 17.3932,
      "duration": 0.1296,
      "velocity": 107,
      "chip": "ym2612"
    },
    {
      "channel": 3,
      "note": 59,
      "start": 17.5224,
      "duration": 0.2538,
      "velocity": 109,
      "chip": "ym2612"
    },
    {
      "channel": 5,
      "note": 62,
      "start": 17.5234,
      "duration": 0.2568,
      "velocity": 113,
      "chip": "ym2612"
    },
    {
      "channel": 2,
      "note": 69,
      "start": 17.5243,
      "duration": 0.2479,
      "velocity": 127,
      "chip": "ym2612"
    },
    {
      "channel": 0,
      "note": 66,
      "start": 17.7756,
      "duration": 0.2535,
      "velocity": 108,
      "chip": "ym2612"
    },
    {
      "channel": 3,
      "note": 59,
      "start": 17.7766,
      "duration": 0.2536,
      "velocity": 109,
      "chip": "ym2612"
    },
    {
      "channel": 4,
      "note": 59,
      "start": 17.7774,
      "duration": 0.2534,
      "velocity": 105,
      "chip": "ym2612"
    },
    {
      "channel": 5,
      "note": 49,
      "start": 17.7808,
      "duration": 0.2507,
      "velocity": 113,
      "chip": "ym2612"
    },
    {
      "channel": 2,
      "note": 69,
      "start": 17.7817,
      "duration": 0.2446,
      "velocity": 127,
      "chip": "ym2612"
    },
    {
      "channel": 0,
      "note": 67,
      "start": 18.0298,
      "duration": 0.2534,
      "velocity": 108,
      "chip": "ym2612"
    },
    {
      "channel": 3,
      "note": 59,
      "start": 18.0306,
      "duration": 0.2541,
      "velocity": 109,
      "chip": "ym2612"
    },
    {
      "channel": 4,
      "note": 59,
      "start": 18.0314,
      "duration": 0.2541,
      "velocity": 105,
      "chip": "ym2612"
    },
    {
      "channel": 5,
      "note": 49,
      "start": 18.032,
      "duration": 0.1228,
      "velocity": 113,
      "chip": "ym2612"
    },
    {
      "channel": 2,
      "note": 69,
      "start": 18.0329,
      "duration": 0.2475,
      "velocity": 127,
      "chip": "ym2612"
    },
    {
      "channel": 5,
      "note": 49,
      "start": 18.1552,
      "duration": 0.1338,
      "velocity": 107,
      "chip": "ym2612"
    },
    {
      "channel": 0,
      "note": 69,
      "start": 18.2838,
      "duration": 0.2532,
      "velocity": 108,
      "chip": "ym2612"
    },
    {
      "channel": 1,
      "note": 40,
      "start": 18.2845,
      "duration": 1.0155,
      "velocity": 109,
      "chip": "ym2612"
    },
    {
      "channel": 3,
      "note": 56,
      "start": 18.2854,
      "duration": 0.0275,
      "velocity": 109,
      "chip": "ym2612"
    },
    {
      "channel": 4,
      "note": 64,
      "start": 18.2861,
      "duration": 0.5068,
      "velocity": 105,
      "chip": "ym2612"
    },
    {
      "channel": 5,
      "note": 62,
      "start": 18.2896,
      "duration": 0.2492,
      "velocity": 107,
      "chip": "ym2612"
    },
    {
      "channel": 2,
      "note": 30,
      "start": 18.2904,
      "duration": 0.1505,
      "velocity": 119,
      "chip": "ym2612"
    },
    {
      "channel": 3,
      "note": 57,
      "start": 18.3134,
      "duration": 0.047,
      "velocity": 109,
      "chip": "ym2612"
    },
    {
      "channel": 3,
      "note": 59,
      "start": 18.361,
      "duration": 0.431,
      "velocity": 109,
      "chip": "ym2612"
    },
    {
      "channel": 0,
      "note": 67,
      "start": 18.5376,
      "duration": 0.2534,
      "velocity": 108,
      "chip": "ym2612"
    },
    {
      "channel": 5,
      "note": 69,
      "start": 18.5395,
      "duration": 0.1233,
      "velocity": 107,
      "chip": "ym2612"
    },
    {
      "channel": 2,
      "note": 69,
      "start": 18.5403,
      "duration": 0.248,
      "velocity": 127,
      "chip": "ym2612"
    },
    {
      "channel": 5,
      "note": 69,
      "start": 18.6632,
      "duration": 0.3844,
      "velocity": 107,
      "chip": "ym2612"
    },
    {
      "channel": 0,
      "note": 66,
      "start": 18.7916,
      "duration": 0.2535,
      "velocity": 108,
      "chip": "ym2612"
    },
    {
      "channel": 3,
      "note": 59,
      "start": 18.7928,
      "duration": 0.2534,
      "velocity": 109,
      "chip": "ym2612"
    },
    {
      "channel": 4,
      "note": 59,
      "start": 18.7936,
      "duration": 0.2532,
      "velocity": 105,
      "chip": "ym2612"
    },
    {
      "channel": 2,
      "note": 69,
      "start": 18.7948,
      "duration": 0.2475,
      "velocity": 127,
      "chip": "ym2612"
    },
    {
      "channel": 0,
      "note": 67,
      "start": 19.0457,
      "duration": 0.2536,
      "velocity": 108,
      "chip": "ym2612"
    },
    {
      "channel": 3,
      "note": 59,
      "start": 19.0467,
      "duration": 0.254,
      "velocity": 109,
      "chip": "ym2612"
    },
    {
      "channel": 4,
      "note": 59,
      "start": 19.0474,
      "duration": 0.2541,
      "velocity": 105,
      "chip": "ym2612"
    },
    {
      "channel": 5,
      "note": 62,
      "start": 19.0481,
      "duration": 0.2541,
      "velocity": 107,
      "chip": "ym2612"
    },
    {
      "channel": 2,
      "note": 69,
      "start": 19.049,
      "duration": 0.2474,
      "velocity": 127,
      "chip": "ym2612"
    },
    {
      "channel": 0,
      "note": 64,
      "start": 19.2998,
      "duration": 0.5073,
      "velocity": 108,
      "chip": "ym2612"
    },
    {
      "channel": 1,
      "note": 40,
      "start": 19.3005,
      "duration": 1.0155,
      "velocity": 109,
      "chip": "ym2612"
    },
    {
      "channel": 3,
      "note": 56,
      "start": 19.3013,
      "duration": 0.0275,
      "velocity": 109,
      "chip": "ym2612"
    },
    {
      "channel": 4,
      "note": 64,
      "start": 19.3021,
      "duration": 0.5067,
      "velocity": 105,
      "chip": "ym2612"
    },
    {
      "channel": 5,
      "note": 69,
      "start": 19.3028,
      "duration": 0.122,
      "velocity": 107,
      "chip": "ym2612"
    },
    {
      "channel": 2,
      "note": 30,
      "start": 19.3037,
      "duration": 0.1533,
      "velocity": 119,
      "chip": "ym2612"
    },
    {
      "channel": 3,
      "note": 57,
      "start": 19.3294,
      "duration": 0.047,
      "velocity": 109,
      "chip": "ym2612"
    },
    {
      "channel": 3,
      "note": 59,
      "start": 19.3771,
      "duration": 0.1767,
      "velocity": 109,
      "chip": "ym2612"
    },
    {
      "channel": 5,
      "note": 69,
      "start": 19.4252,
      "duration": 0.1296,
      "velocity": 107,
      "chip": "ym2612"
    },
    {
      "channel": 3,
      "note": 59,
      "start": 19.5544,
      "duration": 0.2538,
      "velocity": 109,
      "chip": "ym2612"
    },
    {
      "channel": 5,
      "note": 62,
      "start": 19.5555,
      "duration": 0.2569,
      "velocity": 113,
      "chip": "ym2612"
    },
    {
      "channel": 2,
      "note": 69,
      "start": 19.5563,
      "duration": 0.248,
      "velocity": 127,
      "chip": "ym2612"
    },
    {
      "channel": 0,
      "note": 66,
      "start": 19.8077,
      "duration": 0.2534,
      "velocity": 108,
      "chip": "ym2612"
    },
    {
      "channel": 3,
      "note": 59,
      "start": 19.8087,
      "duration": 0.2536,
      "velocity": 109,
      "chip": "ym2612"
    },
    {
      "channel": 4,
      "note": 66,
      "start": 19.8095,
      "duration": 0.2533,
      "velocity": 105,
      "chip": "ym2612"
    },
    {
      "channel": 5,
      "note": 49,
      "start": 19.8129,
      "duration": 0.2506,
      "velocity": 113,
      "chip": "ym2612"
    },
    {
      "channel": 2,
      "note": 69,
      "start": 19.8139,
      "duration": 0.2444,
      "velocity": 127,
      "chip": "ym2612"
    },
    {
      "channel": 0,
      "note": 67,
      "start": 20.0617,
      "duration": 0.2535,
      "velocity": 108,
      "chip": "ym2612"
    },
    {
      "channel": 3,
      "note": 59,
      "start": 20.0627,
      "duration": 0.2542,
      "velocity": 109,
      "chip": "ym2612"
    },
    {
      "channel": 4,
      "note": 67,
      "start": 20.0634,
      "duration": 0.2543,
      "velocity": 105,
      "chip": "ym2612"
    },
    {
      "channel": 5,
      "note": 49,
      "start": 20.064,
      "duration": 0.1228,
      "velocity": 113,
      "chip": "ym2612"
    },
    {
      "channel": 2,
      "note": 69,
      "start": 20.0649,
      "duration": 0.2475,
      "velocity": 127,
      "chip": "ym2612"
    },
    {
      "channel": 5,
      "note": 49,
      "start": 20.1873,
      "duration": 0.1339,
      "velocity": 107,
      "chip": "ym2612"
    },
    {
      "channel": 0,
      "note": 62,
      "start": 20.3158,
      "duration": 0.5073,
      "velocity": 108,
      "chip": "ym2612"
    },
    {
      "channel": 1,
      "note": 38,
      "start": 20.3166,
      "duration": 1.0153,
      "velocity": 109,
      "chip": "ym2612"
    },
    {
      "channel": 3,
      "note": 54,
      "start": 20.3175,
      "duration": 0.0274,
      "velocity": 109,
      "chip": "ym2612"
    },
    {
      "channel": 4,
      "note": 69,
      "start": 20.3182,
      "duration": 0.252,
      "velocity": 105,
      "chip": "ym2612"
    },
    {
      "channel": 5,
      "note": 62,
      "start": 20.3218,
      "duration": 0.2492,
      "velocity": 107,
      "chip": "ym2612"
    },
    {
      "channel": 2,
      "note": 30,
      "start": 20.3226,
      "duration": 0.1502,
      "velocity": 119,
      "chip": "ym2612"
    },
    {
      "channel": 3,
      "note": 56,
      "start": 20.3454,
      "duration": 0.0471,
      "velocity": 109,
      "chip": "ym2612"
    },
    {
      "channel": 3,
      "note": 57,
      "start": 20.3932,
      "duration": 0.431,
      "velocity": 109,
      "chip": "ym2612"
    },
    {
      "channel": 4,
      "note": 67,
      "start": 20.5708,
      "duration": 0.2542,
      "velocity": 105,
      "chip": "ym2612"
    },
    {
      "channel": 5,
      "note": 69,
      "start": 20.5715,
      "duration": 0.1233,
      "velocity": 107,
      "chip": "ym2612"
    },
    {
      "channel": 2,
      "note": 69,
      "start": 20.5724,
      "duration": 0.2479,
      "velocity": 127,
      "chip": "ym2612"
    },
    {
      "channel": 5,
      "note": 69,
      "start": 20.6953,
      "duration": 0.3844,
      "velocity": 107,
      "chip": "ym2612"
    },
    {
      "channel": 0,
      "note": 57,
      "start": 20.8237,
      "duration": 0.2535,
      "velocity": 108,
      "chip": "ym2612"
    },
    {
      "channel": 3,
      "note": 57,
      "start": 20.8248,
      "duration": 0.2535,
      "velocity": 109,
      "chip": "ym2612"
    },
    {
      "channel": 4,
      "note": 66,
      "start": 20.8256,
      "duration": 0.2533,
      "velocity": 105,
      "chip": "ym2612"
    },
    {
      "channel": 2,
      "note": 69,
      "start": 20.8268,
      "duration": 0.2475,
      "velocity": 127,
      "chip": "ym2612"
    },
    {
      "channel": 0,
      "note": 57,
      "start": 21.0778,
      "duration": 0.2534,
      "velocity": 108,
      "chip": "ym2612"
    },
    {
      "channel": 3,
      "note": 57,
      "start": 21.0787,
      "duration": 0.2539,
      "velocity": 109,
      "chip": "ym2612"
    },
    {
      "channel": 4,
      "note": 67,
      "start": 21.0794,
      "duration": 0.2539,
      "velocity": 105,
      "chip": "ym2612"
    },
    {
      "channel": 5,
      "note": 62,
      "start": 21.0802,
      "duration": 0.2539,
      "velocity": 107,
      "chip": "ym2612"
    },
    {
      "channel": 2,
      "note": 69,
      "start": 21.0811,
      "duration": 0.2473,
      "velocity": 127,
      "chip": "ym2612"
    },
    {
      "channel": 0,
      "note": 62,
      "start": 21.3318,
      "duration": 0.5074,
      "velocity": 108,
      "chip": "ym2612"
    },
    {
      "channel": 1,
      "note": 38,
      "start": 21.3325,
      "duration": 1.0155,
      "velocity": 109,
      "chip": "ym2612"
    },
    {
      "channel": 3,
      "note": 54,
      "start": 21.3332,
      "duration": 0.0276,
      "velocity": 109,
      "chip": "ym2612"
    },
    {
      "channel": 4,
      "note": 64,
      "start": 21.334,
      "duration": 0.5069,
      "velocity": 105,
      "chip": "ym2612"
    },
    {
      "channel": 5,
      "note": 69,
      "start": 21.3348,
      "duration": 0.1221,
      "velocity": 107,
      "chip": "ym2612"
    },
    {
      "channel": 2,
      "note": 30,
      "start": 21.3356,
      "duration": 0.1534,
      "velocity": 119,
      "chip": "ym2612"
    },
    {
      "channel": 3,
      "note": 56,
      "start": 21.3614,
      "duration": 0.0471,
      "velocity": 109,
      "chip": "ym2612"
    },
    {
      "channel": 3,
      "note": 57,
      "start": 21.4092,
      "duration": 0.1766,
      "velocity": 109,
      "chip": "ym2612"
    },
    {
      "channel": 5,
      "note": 69,
      "start": 21.4573,
      "duration": 0.1296,
      "velocity": 107,
      "chip": "ym2612"
    },
    {
      "channel": 3,
      "note": 57,
      "start": 21.5865,
      "duration": 0.2538,
      "velocity": 109,
      "chip": "ym2612"
    },
    {
      "channel": 5,
      "note": 62,
      "start": 21.5876,
      "duration": 0.2568,
      "velocity": 113,
      "chip": "ym2612"
    },
    {
      "channel": 2,
      "note": 69,
      "start": 21.5884,
      "duration": 0.248,
      "velocity": 127,
      "chip": "ym2612"
    },
    {
      "channel": 0,
      "note": 64,
      "start": 21.8398,
      "duration": 0.2534,
      "velocity": 108,
      "chip": "ym2612"
    },
    {
      "channel": 3,
      "note": 57,
      "start": 21.8407,
      "duration": 0.2536,
      "velocity": 109,
      "chip": "ym2612"
    },
    {
      "channel": 4,
      "note": 66,
      "start": 21.8415,
      "duration": 0.2534,
      "velocity": 105,
      "chip": "ym2612"
    },
    {
      "channel": 5,
      "note": 49,
      "start": 21.845,
      "duration": 0.2506,
      "velocity": 113,
      "chip": "ym2612"
    },
    {
      "channel": 2,
      "note": 69,
      "start": 21.8459,
      "duration": 0.2445,
      "velocity": 127,
      "chip": "ym2612"
    },
    {
      "channel": 0,
      "note": 65,
      "start": 22.0938,
      "duration": 0.2535,
      "velocity": 108,
      "chip": "ym2612"
    },
    {
      "channel": 3,
      "note": 57,
      "start": 22.0947,
      "duration": 0.2541,
      "velocity": 109,
      "chip": "ym2612"
    },
    {
      "channel": 4,
      "note": 67,
      "start": 22.0955,
      "duration": 0.2542,
      "velocity": 105,
      "chip": "ym2612"
    },
    {
      "channel": 5,
      "note": 49,
      "start": 22.096,
      "duration": 0.1228,
      "velocity": 113,
      "chip": "ym2612"
    },
    {
      "channel": 2,
      "note": 69,
      "start": 22.0969,
      "duration": 0.2476,
      "velocity": 127,
      "chip": "ym2612"
    },
    {
      "channel": 5,
      "note": 49,
      "start": 22.2193,
      "duration": 0.1338,
      "velocity": 107,
      "chip": "ym2612"
    },
    {
      "channel": 0,
      "note": 67,
      "start": 22.3479,
      "duration": 0.2534,
      "velocity": 108,
      "chip": "ym2612"
    },
    {
      "channel": 1,
      "note": 38,
      "start": 22.3486,
      "duration": 1.0155,
      "velocity": 109,
      "chip": "ym2612"
    },
    {
      "channel": 3,
      "note": 54,
      "start": 22.3494,
      "duration": 0.0275,
      "velocity": 109,
      "chip": "ym2612"
    },
    {
      "channel": 4,
      "note": 62,
      "start": 22.3502,
      "duration": 0.5068,
      "velocity": 105,
      "chip": "ym2612"
    },
    {
      "channel": 5,
      "note": 62,
      "start": 22.3538,
      "duration": 0.2493,
      "velocity": 107,
      "chip": "ym2612"
    },
    {
      "channel": 2,
      "note": 30,
      "start": 22.3546,
      "duration": 0.1504,
      "velocity": 119,
      "chip": "ym2612"
    },
    {
      "channel": 3,
      "note": 56,
      "start": 22.3775,
      "duration": 0.047,
      "velocity": 109,
      "chip": "ym2612"
    },
    {
      "channel": 3,
      "note": 57,
      "start": 22.4251,
      "duration": 0.4311,
      "velocity": 109,
      "chip": "ym2612"
    },
    {
      "channel": 0,
      "note": 65,
      "start": 22.6018,
      "duration": 0.2534,
      "velocity": 108,
      "chip": "ym2612"
    },
    {
      "channel": 5,
      "note": 69,
      "start": 22.6036,
      "duration": 0.1233,
      "velocity": 107,
      "chip": "ym2612"
    },
    {
      "channel": 2,
      "note": 69,
      "start": 22.6045,
      "duration": 0.2479,
      "velocity": 127,
      "chip": "ym2612"
    },
    {
      "channel": 5,
      "note": 69,
      "start": 22.7273,
      "duration": 0.3843,
      "velocity": 107,
      "chip": "ym2612"
    },
    {
      "channel": 0,
      "note": 64,
      "start": 22.8558,
      "duration": 0.2534,
      "velocity": 108,
      "chip": "ym2612"
    },
    {
      "channel": 3,
      "note": 57,
      "start": 22.8568,
      "duration": 0.2534,
      "velocity": 109,
      "chip": "ym2612"
    },
    {
      "channel": 4,
      "note": 57,
      "start": 22.8576,
      "duration": 0.2532,
      "velocity": 105,
      "chip": "ym2612"
    },
    {
      "channel": 2,
      "note": 69,
      "start": 22.8588,
      "duration": 0.2475,
      "velocity": 127,
      "chip": "ym2612"
    },
    {
      "channel": 0,
      "note": 65,
      "start": 23.1098,
      "duration": 0.2536,
      "velocity": 108,
      "chip": "ym2612"
    },
    {
      "channel": 3,
      "note": 57,
      "start": 23.1107,
      "duration": 0.254,
      "velocity": 109,
      "chip": "ym2612"
    },
    {
      "channel": 4,
      "note": 57,
      "start": 23.1114,
      "duration": 0.2541,
      "velocity": 105,
      "chip": "ym2612"
    },
    {
      "channel": 5,
      "note": 62,
      "start": 23.1122,
      "duration": 0.2541,
      "velocity": 107,
      "chip": "ym2612"
    },
    {
      "channel": 2,
      "note": 69,
      "start": 23.1131,
      "duration": 0.2474,
      "velocity": 127,
      "chip": "ym2612"
    },
    {
      "channel": 0,
      "note": 62,
      "start": 23.3639,
      "duration": 0.5074,
      "velocity": 108,
      "chip": "ym2612"
    },
    {
      "channel": 1,
      "note": 38,
      "start": 23.3646,
      "duration": 1.0154,
      "velocity": 109,
      "chip": "ym2612"
    },
    {
      "channel": 3,
      "note": 54,
      "start": 23.3654,
      "duration": 0.0276,
      "velocity": 109,
      "chip": "ym2612"
    },
    {
      "channel": 4,
      "note": 62,
      "start": 23.3661,
      "duration": 0.5068,
      "velocity": 105,
      "chip": "ym2612"
    },
    {
      "channel": 5,
      "note": 69,
      "start": 23.3669,
      "duration": 0.1221,
      "velocity": 107,
      "chip": "ym2612"
    },
    {
      "channel": 2,
      "note": 30,
      "start": 23.3677,
      "duration": 0.1536,
      "velocity": 119,
      "chip": "ym2612"
    },
    {
      "channel": 3,
      "note": 56,
      "start": 23.3935,
      "duration": 0.047,
      "velocity": 109,
      "chip": "ym2612"
    },
    {
      "channel": 3,
      "note": 57,
      "start": 23.4411,
      "duration": 0.1768,
      "velocity": 109,
      "chip": "ym2612"
    },
    {
      "channel": 5,
      "note": 69,
      "start": 23.4895,
      "duration": 0.1295,
      "velocity": 107,
      "chip": "ym2612"
    },
    {
      "channel": 3,
      "note": 57,
      "start": 23.6185,
      "duration": 0.2538,
      "velocity": 109,
      "chip": "ym2612"
    },
    {
      "channel": 5,
      "note": 62,
      "start": 23.6196,
      "duration": 0.2569,
      "velocity": 113,
      "chip": "ym2612"
    },
    {
      "channel": 2,
      "note": 69,
      "start": 23.6205,
      "duration": 0.248,
      "velocity": 127,
      "chip": "ym2612"
    },
    {
      "channel": 0,
      "note": 57,
      "start": 23.8719,
      "duration": 0.2534,
      "velocity": 108,
      "chip": "ym2612"
    },
    {
      "channel": 3,
      "note": 57,
      "start": 23.8728,
      "duration": 0.2536,
      "velocity": 109,
      "chip": "ym2612"
    },
    {
      "channel": 4,
      "note": 64,
      "start": 23.8736,
      "duration": 0.2534,
      "velocity": 105,
      "chip": "ym2612"
    },
    {
      "channel": 5,
      "note": 49,
      "start": 23.8771,
      "duration": 0.2506,
      "velocity": 113,
      "chip": "ym2612"
    },
    {
      "channel": 2,
      "note": 69,
      "start": 23.878,
      "duration": 0.2445,
      "velocity": 127,
      "chip": "ym2612"
    },
    {
      "channel": 0,
      "note": 57,
      "start": 24.1259,
      "duration": 0.2534,
      "velocity": 108,
      "chip": "ym2612"
    },
    {
      "channel": 3,
      "note": 57,
      "start": 24.1268,
      "duration": 0.254,
      "velocity": 109,
      "chip": "ym2612"
    },
    {
      "channel": 4,
      "note": 65,
      "start": 24.1275,
      "duration": 0.2541,
      "velocity": 105,
      "chip": "ym2612"
    },
    {
      "channel": 5,
      "note": 49,
      "start": 24.1282,
      "duration": 0.1226,
      "velocity": 113,
      "chip": "ym2612"
    },
    {
      "channel": 2,
      "note": 69,
      "start": 24.129,
      "duration": 0.2475,
      "velocity": 127,
      "chip": "ym2612"
    },
    {
      "channel": 5,
      "note": 49,
      "start": 24.2512,
      "duration": 0.1338,
      "velocity": 107,
      "chip": "ym2612"
    },
    {
      "channel": 0,
      "note": 62,
      "start": 24.3799,
      "duration": 0.5075,
      "velocity": 108,
      "chip": "ym2612"
    },
    {
      "channel": 1,
      "note": 38,
      "start": 24.3806,
      "duration": 1.0156,
      "velocity": 109,
      "chip": "ym2612"
    },
    {
      "channel": 3,
      "note": 54,
      "start": 24.3814,
      "duration": 0.0276,
      "velocity": 109,
      "chip": "ym2612"
    },
    {
      "channel": 4,
      "note": 67,
      "start": 24.3822,
      "duration": 0.252,
      "velocity": 105,
      "chip": "ym2612"
    },
    {
      "channel": 5,
      "note": 62,
      "start": 24.3857,
      "duration": 0.2492,
      "velocity": 107,
      "chip": "ym2612"
    },
    {
      "channel": 2,
      "note": 30,
      "start": 24.3866,
      "duration": 0.1505,
      "velocity": 119,
      "chip": "ym2612"
    },
    {
      "channel": 3,
      "note": 56,
      "start": 24.4096,
      "duration": 0.0469,
      "velocity": 109,
      "chip": "ym2612"
    },
    {
      "channel": 3,
      "note": 57,
      "start": 24.4572,
      "duration": 0.4312,
      "velocity": 109,
      "chip": "ym2612"
    },
    {
      "channel": 4,
      "note": 65,
      "start": 24.6348,
      "duration": 0.2544,
      "velocity": 105,
      "chip": "ym2612"
    },
    {
      "channel": 5,
      "note": 69,
      "start": 24.6355,
      "duration": 0.1234,
      "velocity": 107,
      "chip": "ym2612"
    },
    {
      "channel": 2,
      "note": 69,
      "start": 24.6364,
      "duration": 0.2481,
      "velocity": 127,
      "chip": "ym2612"
    },
    {
      "channel": 5,
      "note": 69,
      "start": 24.7595,
      "duration": 0.3844,
      "velocity": 107,
      "chip": "ym2612"
    },
    {
      "channel": 0,
      "note": 57,
      "start": 24.8879,
      "duration": 0.2534,
      "velocity": 108,
      "chip": "ym2612"
    },
    {
      "channel": 3,
      "note": 57,
      "start": 24.889,
      "duration": 0.2534,
      "velocity": 109,
      "chip": "ym2612"
    },
    {
      "channel": 4,
      "note": 64,
      "start": 24.8897,
      "duration": 0.2533,
      "velocity": 105,
      "chip": "ym2612"
    },
    {
      "channel": 2,
      "note": 69,
      "start": 24.891,
      "duration": 0.2476,
      "velocity": 127,
      "chip": "ym2612"
    },
    {
      "channel": 0,
      "note": 57,
      "start": 25.1419,
      "duration": 0.2535,
      "velocity": 108,
      "chip": "ym2612"
    },
    {
      "channel": 3,
      "note": 57,
      "start": 25.1429,
      "duration": 0.2539,
      "velocity": 109,
      "chip": "ym2612"
    },
    {
      "channel": 4,
      "note": 65,
      "start": 25.1436,
      "duration": 0.254,
      "velocity": 105,
      "chip": "ym2612"
    },
    {
      "channel": 5,
      "note": 62,
      "start": 25.1444,
      "duration": 0.2539,
      "velocity": 107,
      "chip": "ym2612"
    },
    {
      "channel": 2,
      "note": 69,
      "start": 25.1453,
      "duration": 0.2473,
      "velocity": 127,
      "chip": "ym2612"
    },
    {
      "channel": 0,
      "note": 62,
      "start": 25.396,
      "duration": 0.5074,
      "velocity": 108,
      "chip": "ym2612"
    },
    {
      "channel": 1,
      "note": 38,
      "start": 25.3967,
      "duration": 0.5138,
      "velocity": 109,
      "chip": "ym2612"
    },
    {
      "channel": 3,
      "note": 54,
      "start": 25.3974,
      "duration": 0.0275,
      "velocity": 109,
      "chip": "ym2612"
    },
    {
      "channel": 4,
      "note": 62,
      "start": 25.3982,
      "duration": 0.5068,
      "velocity": 105,
      "chip": "ym2612"
    },
    {
      "channel": 5,
      "note": 69,
      "start": 25.399,
      "duration": 0.122,
      "velocity": 107,
      "chip": "ym2612"
    },
    {
      "channel": 2,
      "note": 30,
      "start": 25.3998,
      "duration": 0.1533,
      "velocity": 119,
      "chip": "ym2612"
    },
    {
      "channel": 3,
      "note": 56,
      "start": 25.4256,
      "duration": 0.047,
      "velocity": 109,
      "chip": "ym2612"
    },
    {
      "channel": 3,
      "note": 57,
      "start": 25.4732,
      "duration": 0.1768,
      "velocity": 109,
      "chip": "ym2612"
    },
    {
      "channel": 5,
      "note": 69,
      "start": 25.5214,
      "duration": 0.1297,
      "velocity": 107,
      "chip": "ym2612"
    },
    {
      "channel": 3,
      "note": 57,
      "start": 25.6505,
      "duration": 0.2539,
      "velocity": 109,
      "chip": "ym2612"
    },
    {
      "channel": 5,
      "note": 62,
      "start": 25.6517,
      "duration": 0.2568,
      "velocity": 113,
      "chip": "ym2612"
    },
    {
      "channel": 2,
      "note": 69,
      "start": 25.6525,
      "duration": 0.248,
      "velocity": 127,
      "chip": "ym2612"
    },
    {
      "channel": 0,
      "note": 64,
      "start": 25.9039,
      "duration": 0.0066,
      "velocity": 108,
      "chip": "ym2612"
    },
    {
      "channel": 3,
      "note": 57,
      "start": 25.9049,
      "duration": 0.0056,
      "velocity": 109,
      "chip": "ym2612"
    },
    {
      "channel": 4,
      "note": 57,
      "start": 25.9056,
      "duration": 0.0049,
      "velocity": 105,
      "chip": "ym2612"
    },
    {
      "channel": 5,
      "note": 49,
      "start": 25.9091,
      "duration": 0.0014,
      "velocity": 113,
      "chip": "ym2612"
    },
    {
      "channel": 2,
      "note": 69,
      "start": 25.91,
      "duration": 0.0005,
      "velocity": 127,
      "chip": "ym2612"
    }
  ]
}