{
  "track_name": "18 - Unknown Track 4",
  "duration_sec": 32.895,
  "sample_rate": 44100,
  "note_count": 576,
  "unique_pitches": 49,
  "pitch_range": 58,
  "avg_note_duration": 0.2117,
  "reconstruction_stats": {
    "notes_reconstructed": 576,
    "keyon_events": 576,
    "keyoff_events": 574,
    "orphan_keyons": 2,
    "unique_pitches": 49,
    "pitch_range": 58,
    "avg_duration_sec": 0.2117
  },
  "metadata": {
    "source": "F\\F1 Grand Prix\\18 - Unknown Track 4.vgz"
  },
  "notes": [
    {
      "channel": 4,
      "note": 56,
      "start": 0.0022,
      "duration": 0.295,
      "velocity": 127,
      "chip": "ym2612"
    },
    {
      "channel": 4,
      "note": 56,
      "start": 0.3388,
      "duration": 0.1522,
      "velocity": 127,
      "chip": "ym2612"
    },
    {
      "channel": 1,
      "note": 83,
      "start": 0.5052,
      "duration": 0.7473,
      "velocity": 50,
      "chip": "ym2612"
    },
    {
      "channel": 3,
      "note": 52,
      "start": 0.5057,
      "duration": 0.1515,
      "velocity": 80,
      "chip": "ym2612"
    },
    {
      "channel": 4,
      "note": 45,
      "start": 0.5073,
      "duration": 0.1499,
      "velocity": 101,
      "chip": "ym2612"
    },
    {
      "channel": 5,
      "note": 86,
      "start": 0.5078,
      "duration": 0.7448,
      "velocity": 50,
      "chip": "ym2612"
    },
    {
      "channel": 2,
      "note": 95,
      "start": 0.6725,
      "duration": 0.1507,
      "velocity": 85,
      "chip": "ym2612"
    },
    {
      "channel": 2,
      "note": 83,
      "start": 0.8372,
      "duration": 0.1522,
      "velocity": 85,
      "chip": "ym2612"
    },
    {
      "channel": 3,
      "note": 52,
      "start": 0.8374,
      "duration": 0.1521,
      "velocity": 80,
      "chip": "ym2612"
    },
    {
      "channel": 4,
      "note": 45,
      "start": 0.8375,
      "duration": 0.1521,
      "velocity": 101,
      "chip": "ym2612"
    },
    {
      "channel": 2,
      "note": 88,
      "start": 1.0033,
      "duration": 0.1522,
      "velocity": 85,
      "chip": "ym2612"
    },
    {
      "channel": 3,
      "note": 64,
      "start": 1.0035,
      "duration": 0.1522,
      "velocity": 80,
      "chip": "ym2612"
    },
    {
      "channel": 4,
      "note": 68,
      "start": 1.0051,
      "duration": 0.1506,
      "velocity": 127,
      "chip": "ym2612"
    },
    {
      "channel": 2,
      "note": 83,
      "start": 1.1694,
      "duration": 0.1522,
      "velocity": 85,
      "chip": "ym2612"
    },
    {
      "channel": 3,
      "note": 52,
      "start": 1.1696,
      "duration": 0.1522,
      "velocity": 80,
      "chip": "ym2612"
    },
    {
      "channel": 4,
      "note": 45,
      "start": 1.1713,
      "duration": 0.1506,
      "velocity": 101,
      "chip": "ym2612"
    },
    {
      "channel": 2,
      "note": 95,
      "start": 1.3357,
      "duration": 0.1521,
      "velocity": 85,
      "chip": "ym2612"
    },
    {
      "channel": 3,
      "note": 59,
      "start": 1.3359,
      "duration": 0.152,
      "velocity": 80,
      "chip": "ym2612"
    },
    {
      "channel": 1,
      "note": 83,
      "start": 1.5021,
      "duration": 0.1518,
      "velocity": 50,
      "chip": "ym2612"
    },
    {
      "channel": 2,
      "note": 83,
      "start": 1.5022,
      "duration": 0.1518,
      "velocity": 85,
      "chip": "ym2612"
    },
    {
      "channel": 3,
      "note": 52,
      "start": 1.5024,
      "duration": 0.1517,
      "velocity": 80,
      "chip": "ym2612"
    },
    {
      "channel": 4,
      "note": 45,
      "start": 1.5026,
      "duration": 0.1517,
      "velocity": 101,
      "chip": "ym2612"
    },
    {
      "channel": 5,
      "note": 86,
      "start": 1.5027,
      "duration": 0.1517,
      "velocity": 50,
      "chip": "ym2612"
    },
    {
      "channel": 2,
      "note": 88,
      "start": 1.6678,
      "duration": 0.1522,
      "velocity": 85,
      "chip": "ym2612"
    },
    {
      "channel": 3,
      "note": 64,
      "start": 1.668,
      "duration": 0.1521,
      "velocity": 80,
      "chip": "ym2612"
    },
    {
      "channel": 4,
      "note": 68,
      "start": 1.6701,
      "duration": 0.1502,
      "velocity": 127,
      "chip": "ym2612"
    },
    {
      "channel": 1,
      "note": 81,
      "start": 1.834,
      "duration": 0.7475,
      "velocity": 50,
      "chip": "ym2612"
    },
    {
      "channel": 2,
      "note": 83,
      "start": 1.8342,
      "duration": 0.152,
      "velocity": 85,
      "chip": "ym2612"
    },
    {
      "channel": 3,
      "note": 52,
      "start": 1.8343,
      "duration": 0.152,
      "velocity": 80,
      "chip": "ym2612"
    },
    {
      "channel": 4,
      "note": 45,
      "start": 1.8364,
      "duration": 0.15,
      "velocity": 101,
      "chip": "ym2612"
    },
    {
      "channel": 5,
      "note": 85,
      "start": 1.8366,
      "duration": 0.745,
      "velocity": 50,
      "chip": "ym2612"
    },
    {
      "channel": 2,
      "note": 95,
      "start": 2.0,
      "duration": 0.1523,
      "velocity": 85,
      "chip": "ym2612"
    },
    {
      "channel": 2,
      "note": 83,
      "start": 2.1662,
      "duration": 0.1528,
      "velocity": 85,
      "chip": "ym2612"
    },
    {
      "channel": 3,
      "note": 52,
      "start": 2.1664,
      "duration": 0.1527,
      "velocity": 80,
      "chip": "ym2612"
    },
    {
      "channel": 4,
      "note": 45,
      "start": 2.1665,
      "duration": 0.1527,
      "velocity": 101,
      "chip": "ym2612"
    },
    {
      "channel": 2,
      "note": 88,
      "start": 2.3323,
      "duration": 0.1522,
      "velocity": 85,
      "chip": "ym2612"
    },
    {
      "channel": 3,
      "note": 64,
      "start": 2.3325,
      "duration": 0.1522,
      "velocity": 80,
      "chip": "ym2612"
    },
    {
      "channel": 4,
      "note": 68,
      "start": 2.3341,
      "duration": 0.1506,
      "velocity": 127,
      "chip": "ym2612"
    },
    {
      "channel": 2,
      "note": 83,
      "start": 2.4984,
      "duration": 0.1522,
      "velocity": 85,
      "chip": "ym2612"
    },
    {
      "channel": 3,
      "note": 52,
      "start": 2.4986,
      "duration": 0.1522,
      "velocity": 80,
      "chip": "ym2612"
    },
    {
      "channel": 4,
      "note": 45,
      "start": 2.5003,
      "duration": 0.1506,
      "velocity": 101,
      "chip": "ym2612"
    },
    {
      "channel": 2,
      "note": 95,
      "start": 2.6646,
      "duration": 0.1522,
      "velocity": 85,
      "chip": "ym2612"
    },
    {
      "channel": 3,
      "note": 59,
      "start": 2.6648,
      "duration": 0.1521,
      "velocity": 80,
      "chip": "ym2612"
    },
    {
      "channel": 1,
      "note": 81,
      "start": 2.8306,
      "duration": 0.1523,
      "velocity": 50,
      "chip": "ym2612"
    },
    {
      "channel": 2,
      "note": 83,
      "start": 2.8308,
      "duration": 0.1522,
      "velocity": 85,
      "chip": "ym2612"
    },
    {
      "channel": 3,
      "note": 52,
      "start": 2.831,
      "duration": 0.1522,
      "velocity": 80,
      "chip": "ym2612"
    },
    {
      "channel": 4,
      "note": 45,
      "start": 2.8311,
      "duration": 0.1522,
      "velocity": 101,
      "chip": "ym2612"
    },
    {
      "channel": 5,
      "note": 85,
      "start": 2.8313,
      "duration": 0.1522,
      "velocity": 50,
      "chip": "ym2612"
    },
    {
      "channel": 2,
      "note": 88,
      "start": 2.9968,
      "duration": 0.1522,
      "velocity": 85,
      "chip": "ym2612"
    },
    {
      "channel": 3,
      "note": 64,
      "start": 2.997,
      "duration": 0.1521,
      "velocity": 80,
      "chip": "ym2612"
    },
    {
      "channel": 4,
      "note": 68,
      "start": 2.9987,
      "duration": 0.1506,
      "velocity": 127,
      "chip": "ym2612"
    },
    {
      "channel": 1,
      "note": 79,
      "start": 3.1629,
      "duration": 0.7475,
      "velocity": 50,
      "chip": "ym2612"
    },
    {
      "channel": 2,
      "note": 83,
      "start": 3.1631,
      "duration": 0.152,
      "velocity": 85,
      "chip": "ym2612"
    },
    {
      "channel": 3,
      "note": 52,
      "start": 3.1633,
      "duration": 0.152,
      "velocity": 80,
      "chip": "ym2612"
    },
    {
      "channel": 4,
      "note": 45,
      "start": 3.165,
      "duration": 0.1505,
      "velocity": 101,
      "chip": "ym2612"
    },
    {
      "channel": 5,
      "note": 83,
      "start": 3.1652,
      "duration": 0.7455,
      "velocity": 50,
      "chip": "ym2612"
    },
    {
      "channel": 2,
      "note": 95,
      "start": 3.3291,
      "duration": 0.1522,
      "velocity": 85,
      "chip": "ym2612"
    },
    {
      "channel": 2,
      "note": 83,
      "start": 3.4952,
      "duration": 0.1522,
      "velocity": 85,
      "chip": "ym2612"
    },
    {
      "channel": 3,
      "note": 52,
      "start": 3.4954,
      "duration": 0.1522,
      "velocity": 80,
      "chip": "ym2612"
    },
    {
      "channel": 4,
      "note": 45,
      "start": 3.4955,
      "duration": 0.1522,
      "velocity": 101,
      "chip": "ym2612"
    },
    {
      "channel": 2,
      "note": 88,
      "start": 3.6613,
      "duration": 0.1523,
      "velocity": 85,
      "chip": "ym2612"
    },
    {
      "channel": 3,
      "note": 64,
      "start": 3.6615,
      "duration": 0.1522,
      "velocity": 80,
      "chip": "ym2612"
    },
    {
      "channel": 4,
      "note": 68,
      "start": 3.6631,
      "duration": 0.1507,
      "velocity": 127,
      "chip": "ym2612"
    },
    {
      "channel": 2,
      "note": 83,
      "start": 3.8274,
      "duration": 0.1522,
      "velocity": 85,
      "chip": "ym2612"
    },
    {
      "channel": 3,
      "note": 52,
      "start": 3.8276,
      "duration": 0.1522,
      "velocity": 80,
      "chip": "ym2612"
    },
    {
      "channel": 4,
      "note": 45,
      "start": 3.8293,
      "duration": 0.1506,
      "velocity": 101,
      "chip": "ym2612"
    },
    {
      "channel": 2,
      "note": 95,
      "start": 3.9936,
      "duration": 0.1522,
      "velocity": 85,
      "chip": "ym2612"
    },
    {
      "channel": 3,
      "note": 59,
      "start": 3.9938,
      "duration": 0.1521,
      "velocity": 80,
      "chip": "ym2612"
    },
    {
      "channel": 1,
      "note": 79,
      "start": 4.1596,
      "duration": 0.1523,
      "velocity": 50,
      "chip": "ym2612"
    },
    {
      "channel": 2,
      "note": 83,
      "start": 4.1598,
      "duration": 0.1522,
      "velocity": 85,
      "chip": "ym2612"
    },
    {
      "channel": 3,
      "note": 52,
      "start": 4.16,
      "duration": 0.1522,
      "velocity": 80,
      "chip": "ym2612"
    },
    {
      "channel": 4,
      "note": 45,
      "start": 4.1601,
      "duration": 0.1522,
      "velocity": 101,
      "chip": "ym2612"
    },
    {
      "channel": 5,
      "note": 83,
      "start": 4.1603,
      "duration": 0.1521,
      "velocity": 50,
      "chip": "ym2612"
    },
    {
      "channel": 1,
      "note": 81,
      "start": 4.3259,
      "duration": 0.1522,
      "velocity": 50,
      "chip": "ym2612"
    },
    {
      "channel": 2,
      "note": 88,
      "start": 4.326,
      "duration": 0.1522,
      "velocity": 85,
      "chip": "ym2612"
    },
    {
      "channel": 3,
      "note": 54,
      "start": 4.3262,
      "duration": 0.1521,
      "velocity": 80,
      "chip": "ym2612"
    },
    {
      "channel": 4,
      "note": 68,
      "start": 4.3278,
      "duration": 0.1506,
      "velocity": 127,
      "chip": "ym2612"
    },
    {
      "channel": 5,
      "note": 85,
      "start": 4.328,
      "duration": 0.1505,
      "velocity": 50,
      "chip": "ym2612"
    },
    {
      "channel": 1,
      "note": 83,
      "start": 4.492,
      "duration": 0.609,
      "velocity": 50,
      "chip": "ym2612"
    },
    {
      "channel": 2,
      "note": 83,
      "start": 4.4921,
      "duration": 0.152,
      "velocity": 85,
      "chip": "ym2612"
    },
    {
      "channel": 3,
      "note": 57,
      "start": 4.4923,
      "duration": 0.3182,
      "velocity": 80,
      "chip": "ym2612"
    },
    {
      "channel": 4,
      "note": 45,
      "start": 4.4939,
      "duration": 0.1504,
      "velocity": 101,
      "chip": "ym2612"
    },
    {
      "channel": 5,
      "note": 86,
      "start": 4.4941,
      "duration": 0.6071,
      "velocity": 50,
      "chip": "ym2612"
    },
    {
      "channel": 2,
      "note": 95,
      "start": 4.6581,
      "duration": 0.1522,
      "velocity": 85,
      "chip": "ym2612"
    },
    {
      "channel": 2,
      "note": 83,
      "start": 4.8242,
      "duration": 0.1522,
      "velocity": 85,
      "chip": "ym2612"
    },
    {
      "channel": 3,
      "note": 69,
      "start": 4.8244,
      "duration": 0.1522,
      "velocity": 80,
      "chip": "ym2612"
    },
    {
      "channel": 4,
      "note": 45,
      "start": 4.8245,
      "duration": 0.1522,
      "velocity": 101,
      "chip": "ym2612"
    },
    {
      "channel": 2,
      "note": 88,
      "start": 4.9904,
      "duration": 0.1522,
      "velocity": 85,
      "chip": "ym2612"
    },
    {
      "channel": 3,
      "note": 57,
      "start": 4.9905,
      "duration": 0.1522,
      "velocity": 80,
      "chip": "ym2612"
    },
    {
      "channel": 4,
      "note": 68,
      "start": 4.9922,
      "duration": 0.1506,
      "velocity": 127,
      "chip": "ym2612"
    },
    {
      "channel": 1,
      "note": 85,
      "start": 5.1565,
      "duration": 0.1522,
      "velocity": 50,
      "chip": "ym2612"
    },
    {
      "channel": 2,
      "note": 83,
      "start": 5.1566,
      "duration": 0.1522,
      "velocity": 85,
      "chip": "ym2612"
    },
    {
      "channel": 3,
      "note": 71,
      "start": 5.1568,
      "duration": 0.1521,
      "velocity": 80,
      "chip": "ym2612"
    },
    {
      "channel": 4,
      "note": 45,
      "start": 5.1585,
      "duration": 0.1506,
      "velocity": 101,
      "chip": "ym2612"
    },
    {
      "channel": 5,
      "note": 88,
      "start": 5.1587,
      "duration": 0.1505,
      "velocity": 50,
      "chip": "ym2612"
    },
    {
      "channel": 2,
      "note": 95,
      "start": 5.3226,
      "duration": 0.1522,
      "velocity": 85,
      "chip": "ym2612"
    },
    {
      "channel": 1,
      "note": 85,
      "start": 5.4886,
      "duration": 0.1523,
      "velocity": 50,
      "chip": "ym2612"
    },
    {
      "channel": 2,
      "note": 83,
      "start": 5.4888,
      "duration": 0.1522,
      "velocity": 85,
      "chip": "ym2612"
    },
    {
      "channel": 3,
      "note": 71,
      "start": 5.489,
      "duration": 0.1522,
      "velocity": 80,
      "chip": "ym2612"
    },
    {
      "channel": 4,
      "note": 45,
      "start": 5.4891,
      "duration": 0.1522,
      "velocity": 101,
      "chip": "ym2612"
    },
    {
      "channel": 5,
      "note": 88,
      "start": 5.4893,
      "duration": 0.1522,
      "velocity": 50,
      "chip": "ym2612"
    },
    {
      "channel": 2,
      "note": 88,
      "start": 5.6549,
      "duration": 0.1522,
      "velocity": 85,
      "chip": "ym2612"
    },
    {
      "channel": 4,
      "note": 68,
      "start": 5.6565,
      "duration": 0.1507,
      "velocity": 127,
      "chip": "ym2612"
    },
    {
      "channel": 1,
      "note": 83,
      "start": 5.821,
      "duration": 0.748,
      "velocity": 50,
      "chip": "ym2612"
    },
    {
      "channel": 2,
      "note": 83,
      "start": 5.8212,
      "duration": 0.152,
      "velocity": 85,
      "chip": "ym2612"
    },
    {
      "channel": 3,
      "note": 52,
      "start": 5.8214,
      "duration": 0.1519,
      "velocity": 80,
      "chip": "ym2612"
    },
    {
      "channel": 4,
      "note": 45,
      "start": 5.823,
      "duration": 0.1505,
      "velocity": 101,
      "chip": "ym2612"
    },
    {
      "channel": 5,
      "note": 86,
      "start": 5.8232,
      "duration": 0.7459,
      "velocity": 50,
      "chip": "ym2612"
    },
    {
      "channel": 2,
      "note": 95,
      "start": 5.9871,
      "duration": 0.1522,
      "velocity": 85,
      "chip": "ym2612"
    },
    {
      "channel": 2,
      "note": 83,
      "start": 6.1532,
      "duration": 0.1522,
      "velocity": 85,
      "chip": "ym2612"
    },
    {
      "channel": 3,
      "note": 52,
      "start": 6.1533,
      "duration": 0.1522,
      "velocity": 80,
      "chip": "ym2612"
    },
    {
      "channel": 4,
      "note": 45,
      "start": 6.1535,
      "duration": 0.1522,
      "velocity": 101,
      "chip": "ym2612"
    },
    {
      "channel": 2,
      "note": 88,
      "start": 6.3194,
      "duration": 0.1522,
      "velocity": 85,
      "chip": "ym2612"
    },
    {
      "channel": 3,
      "note": 64,
      "start": 6.3195,
      "duration": 0.1522,
      "velocity": 80,
      "chip": "ym2612"
    },
    {
      "channel": 4,
      "note": 68,
      "start": 6.3212,
      "duration": 0.1506,
      "velocity": 127,
      "chip": "ym2612"
    },
    {
      "channel": 2,
      "note": 83,
      "start": 6.4858,
      "duration": 0.1519,
      "velocity": 85,
      "chip": "ym2612"
    },
    {
      "channel": 3,
      "note": 52,
      "start": 6.486,
      "duration": 0.1519,
      "velocity": 80,
      "chip": "ym2612"
    },
    {
      "channel": 4,
      "note": 45,
      "start": 6.4876,
      "duration": 0.1504,
      "velocity": 101,
      "chip": "ym2612"
    },
    {
      "channel": 2,
      "note": 95,
      "start": 6.6521,
      "duration": 0.1518,
      "velocity": 85,
      "chip": "ym2612"
    },
    {
      "channel": 3,
      "note": 59,
      "start": 6.6522,
      "duration": 0.1517,
      "velocity": 80,
      "chip": "ym2612"
    },
    {
      "channel": 1,
      "note": 83,
      "start": 6.8176,
      "duration": 0.1523,
      "velocity": 50,
      "chip": "ym2612"
    },
    {
      "channel": 2,
      "note": 83,
      "start": 6.8178,
      "duration": 0.1522,
      "velocity": 85,
      "chip": "ym2612"
    },
    {
      "channel": 3,
      "note": 52,
      "start": 6.818,
      "duration": 0.1522,
      "velocity": 80,
      "chip": "ym2612"
    },
    {
      "channel": 4,
      "note": 45,
      "start": 6.8182,
      "duration": 0.1521,
      "velocity": 101,
      "chip": "ym2612"
    },
    {
      "channel": 5,
      "note": 86,
      "start": 6.8188,
      "duration": 0.1517,
      "velocity": 50,
      "chip": "ym2612"
    },
    {
      "channel": 2,
      "note": 88,
      "start": 6.9839,
      "duration": 0.1522,
      "velocity": 85,
      "chip": "ym2612"
    },
    {
      "channel": 3,
      "note": 64,
      "start": 6.9841,
      "duration": 0.1522,
      "velocity": 80,
      "chip": "ym2612"
    },
    {
      "channel": 4,
      "note": 68,
      "start": 6.9861,
      "duration": 0.1502,
      "velocity": 127,
      "chip": "ym2612"
    },
    {
      "channel": 1,
      "note": 81,
      "start": 7.15,
      "duration": 0.7475,
      "velocity": 50,
      "chip": "ym2612"
    },
    {
      "channel": 2,
      "note": 83,
      "start": 7.1502,
      "duration": 0.1522,
      "velocity": 85,
      "chip": "ym2612"
    },
    {
      "channel": 3,
      "note": 52,
      "start": 7.1503,
      "duration": 0.1521,
      "velocity": 80,
      "chip": "ym2612"
    },
    {
      "channel": 4,
      "note": 45,
      "start": 7.1524,
      "duration": 0.1501,
      "velocity": 101,
      "chip": "ym2612"
    },
    {
      "channel": 5,
      "note": 85,
      "start": 7.1526,
      "duration": 0.745,
      "velocity": 50,
      "chip": "ym2612"
    },
    {
      "channel": 2,
      "note": 95,
      "start": 7.3161,
      "duration": 0.1527,
      "velocity": 85,
      "chip": "ym2612"
    },
    {
      "channel": 2,
      "note": 83,
      "start": 7.4823,
      "duration": 0.1522,
      "velocity": 85,
      "chip": "ym2612"
    },
    {
      "channel": 3,
      "note": 52,
      "start": 7.4824,
      "duration": 0.1522,
      "velocity": 80,
      "chip": "ym2612"
    },
    {
      "channel": 4,
      "note": 45,
      "start": 7.4826,
      "duration": 0.1522,
      "velocity": 101,
      "chip": "ym2612"
    },
    {
      "channel": 2,
      "note": 88,
      "start": 7.6484,
      "duration": 0.1522,
      "velocity": 85,
      "chip": "ym2612"
    },
    {
      "channel": 3,
      "note": 64,
      "start": 7.6486,
      "duration": 0.1522,
      "velocity": 80,
      "chip": "ym2612"
    },
    {
      "channel": 4,
      "note": 68,
      "start": 7.6502,
      "duration": 0.1507,
      "velocity": 127,
      "chip": "ym2612"
    },
    {
      "channel": 2,
      "note": 83,
      "start": 7.8145,
      "duration": 0.1522,
      "velocity": 85,
      "chip": "ym2612"
    },
    {
      "channel": 3,
      "note": 52,
      "start": 7.8147,
      "duration": 0.1521,
      "velocity": 80,
      "chip": "ym2612"
    },
    {
      "channel": 4,
      "note": 45,
      "start": 7.8164,
      "duration": 0.1506,
      "velocity": 101,
      "chip": "ym2612"
    },
    {
      "channel": 2,
      "note": 95,
      "start": 7.9806,
      "duration": 0.1522,
      "velocity": 85,
      "chip": "ym2612"
    },
    {
      "channel": 3,
      "note": 59,
      "start": 7.9808,
      "duration": 0.1522,
      "velocity": 80,
      "chip": "ym2612"
    },
    {
      "channel": 1,
      "note": 81,
      "start": 8.1467,
      "duration": 0.1522,
      "velocity": 50,
      "chip": "ym2612"
    },
    {
      "channel": 2,
      "note": 83,
      "start": 8.1469,
      "duration": 0.1522,
      "velocity": 85,
      "chip": "ym2612"
    },
    {
      "channel": 3,
      "note": 52,
      "start": 8.1471,
      "duration": 0.1521,
      "velocity": 80,
      "chip": "ym2612"
    },
    {
      "channel": 4,
      "note": 45,
      "start": 8.1472,
      "duration": 0.1521,
      "velocity": 101,
      "chip": "ym2612"
    },
    {
      "channel": 5,
      "note": 85,
      "start": 8.1473,
      "duration": 0.1521,
      "velocity": 50,
      "chip": "ym2612"
    },
    {
      "channel": 2,
      "note": 88,
      "start": 8.3129,
      "duration": 0.1522,
      "velocity": 85,
      "chip": "ym2612"
    },
    {
      "channel": 3,
      "note": 64,
      "start": 8.3131,
      "duration": 0.1522,
      "velocity": 80,
      "chip": "ym2612"
    },
    {
      "channel": 4,
      "note": 68,
      "start": 8.3147,
      "duration": 0.1506,
      "velocity": 127,
      "chip": "ym2612"
    },
    {
      "channel": 1,
      "note": 79,
      "start": 8.479,
      "duration": 0.7475,
      "velocity": 50,
      "chip": "ym2612"
    },
    {
      "channel": 2,
      "note": 83,
      "start": 8.4792,
      "duration": 0.152,
      "velocity": 85,
      "chip": "ym2612"
    },
    {
      "channel": 3,
      "note": 52,
      "start": 8.4794,
      "duration": 0.152,
      "velocity": 80,
      "chip": "ym2612"
    },
    {
      "channel": 4,
      "note": 45,
      "start": 8.4811,
      "duration": 0.1505,
      "velocity": 101,
      "chip": "ym2612"
    },
    {
      "channel": 5,
      "note": 83,
      "start": 8.4813,
      "duration": 0.7454,
      "velocity": 50,
      "chip": "ym2612"
    },
    {
      "channel": 2,
      "note": 95,
      "start": 8.6451,
      "duration": 0.1522,
      "velocity": 85,
      "chip": "ym2612"
    },
    {
      "channel": 2,
      "note": 83,
      "start": 8.8113,
      "duration": 0.1522,
      "velocity": 85,
      "chip": "ym2612"
    },
    {
      "channel": 3,
      "note": 52,
      "start": 8.8115,
      "duration": 0.1521,
      "velocity": 80,
      "chip": "ym2612"
    },
    {
      "channel": 4,
      "note": 45,
      "start": 8.8116,
      "duration": 0.1521,
      "velocity": 101,
      "chip": "ym2612"
    },
    {
      "channel": 2,
      "note": 88,
      "start": 8.9774,
      "duration": 0.1522,
      "velocity": 85,
      "chip": "ym2612"
    },
    {
      "channel": 3,
      "note": 64,
      "start": 8.9776,
      "duration": 0.1522,
      "velocity": 80,
      "chip": "ym2612"
    },
    {
      "channel": 4,
      "note": 68,
      "start": 8.9792,
      "duration": 0.1506,
      "velocity": 127,
      "chip": "ym2612"
    },
    {
      "channel": 2,
      "note": 83,
      "start": 9.1435,
      "duration": 0.1522,
      "velocity": 85,
      "chip": "ym2612"
    },
    {
      "channel": 3,
      "note": 52,
      "start": 9.1437,
      "duration": 0.1521,
      "velocity": 80,
      "chip": "ym2612"
    },
    {
      "channel": 4,
      "note": 45,
      "start": 9.1454,
      "duration": 0.1506,
      "velocity": 101,
      "chip": "ym2612"
    },
    {
      "channel": 2,
      "note": 95,
      "start": 9.3097,
      "duration": 0.1522,
      "velocity": 85,
      "chip": "ym2612"
    },
    {
      "channel": 3,
      "note": 59,
      "start": 9.3099,
      "duration": 0.1521,
      "velocity": 80,
      "chip": "ym2612"
    },
    {
      "channel": 1,
      "note": 79,
      "start": 9.4757,
      "duration": 0.1522,
      "velocity": 50,
      "chip": "ym2612"
    },
    {
      "channel": 2,
      "note": 83,
      "start": 9.4759,
      "duration": 0.1522,
      "velocity": 85,
      "chip": "ym2612"
    },
    {
      "channel": 3,
      "note": 57,
      "start": 9.4761,
      "duration": 0.1521,
      "velocity": 80,
      "chip": "ym2612"
    },
    {
      "channel": 4,
      "note": 45,
      "start": 9.4762,
      "duration": 0.1521,
      "velocity": 101,
      "chip": "ym2612"
    },
    {
      "channel": 5,
      "note": 83,
      "start": 9.4764,
      "duration": 0.152,
      "velocity": 50,
      "chip": "ym2612"
    },
    {
      "channel": 1,
      "note": 81,
      "start": 9.642,
      "duration": 0.1522,
      "velocity": 50,
      "chip": "ym2612"
    },
    {
      "channel": 2,
      "note": 88,
      "start": 9.6421,
      "duration": 0.1521,
      "velocity": 85,
      "chip": "ym2612"
    },
    {
      "channel": 3,
      "note": 59,
      "start": 9.6423,
      "duration": 0.1521,
      "velocity": 80,
      "chip": "ym2612"
    },
    {
      "channel": 4,
      "note": 68,
      "start": 9.6439,
      "duration": 0.1506,
      "velocity": 127,
      "chip": "ym2612"
    },
    {
      "channel": 5,
      "note": 85,
      "start": 9.6441,
      "duration": 0.1505,
      "velocity": 50,
      "chip": "ym2612"
    },
    {
      "channel": 1,
      "note": 82,
      "start": 9.808,
      "duration": 0.609,
      "velocity": 50,
      "chip": "ym2612"
    },
    {
      "channel": 2,
      "note": 83,
      "start": 9.8082,
      "duration": 0.152,
      "velocity": 85,
      "chip": "ym2612"
    },
    {
      "channel": 3,
      "note": 60,
      "start": 9.8084,
      "duration": 0.3181,
      "velocity": 80,
      "chip": "ym2612"
    },
    {
      "channel": 4,
      "note": 45,
      "start": 9.81,
      "duration": 0.1503,
      "velocity": 101,
      "chip": "ym2612"
    },
    {
      "channel": 5,
      "note": 86,
      "start": 9.8102,
      "duration": 0.6071,
      "velocity": 50,
      "chip": "ym2612"
    },
    {
      "channel": 2,
      "note": 95,
      "start": 9.9741,
      "duration": 0.1522,
      "velocity": 85,
      "chip": "ym2612"
    },
    {
      "channel": 2,
      "note": 83,
      "start": 10.1403,
      "duration": 0.1522,
      "velocity": 85,
      "chip": "ym2612"
    },
    {
      "channel": 3,
      "note": 72,
      "start": 10.1405,
      "duration": 0.1521,
      "velocity": 80,
      "chip": "ym2612"
    },
    {
      "channel": 4,
      "note": 45,
      "start": 10.1406,
      "duration": 0.1521,
      "velocity": 101,
      "chip": "ym2612"
    },
    {
      "channel": 2,
      "note": 88,
      "start": 10.3064,
      "duration": 0.1522,
      "velocity": 85,
      "chip": "ym2612"
    },
    {
      "channel": 3,
      "note": 60,
      "start": 10.3066,
      "duration": 0.1522,
      "velocity": 80,
      "chip": "ym2612"
    },
    {
      "channel": 4,
      "note": 68,
      "start": 10.3082,
      "duration": 0.1506,
      "velocity": 127,
      "chip": "ym2612"
    },
    {
      "channel": 1,
      "note": 84,
      "start": 10.4725,
      "duration": 0.1523,
      "velocity": 50,
      "chip": "ym2612"
    },
    {
      "channel": 2,
      "note": 83,
      "start": 10.4727,
      "duration": 0.1522,
      "velocity": 85,
      "chip": "ym2612"
    },
    {
      "channel": 3,
      "note": 74,
      "start": 10.4729,
      "duration": 0.1522,
      "velocity": 80,
      "chip": "ym2612"
    },
    {
      "channel": 4,
      "note": 45,
      "start": 10.4745,
      "duration": 0.1506,
      "velocity": 101,
      "chip": "ym2612"
    },
    {
      "channel": 5,
      "note": 88,
      "start": 10.4747,
      "duration": 0.1506,
      "velocity": 50,
      "chip": "ym2612"
    },
    {
      "channel": 2,
      "note": 95,
      "start": 10.6387,
      "duration": 0.1522,
      "velocity": 85,
      "chip": "ym2612"
    },
    {
      "channel": 1,
      "note": 84,
      "start": 10.8047,
      "duration": 0.1523,
      "velocity": 50,
      "chip": "ym2612"
    },
    {
      "channel": 2,
      "note": 83,
      "start": 10.8049,
      "duration": 0.1522,
      "velocity": 85,
      "chip": "ym2612"
    },
    {
      "channel": 3,
      "note": 74,
      "start": 10.8051,
      "duration": 0.1522,
      "velocity": 80,
      "chip": "ym2612"
    },
    {
      "channel": 4,
      "note": 45,
      "start": 10.8052,
      "duration": 0.1522,
      "velocity": 101,
      "chip": "ym2612"
    },
    {
      "channel": 5,
      "note": 88,
      "start": 10.8054,
      "duration": 0.1522,
      "velocity": 50,
      "chip": "ym2612"
    },
    {
      "channel": 2,
      "note": 88,
      "start": 10.9709,
      "duration": 0.1522,
      "velocity": 85,
      "chip": "ym2612"
    },
    {
      "channel": 4,
      "note": 68,
      "start": 10.9725,
      "duration": 0.1507,
      "velocity": 127,
      "chip": "ym2612"
    },
    {
      "channel": 1,
      "note": 83,
      "start": 11.1371,
      "duration": 0.7474,
      "velocity": 50,
      "chip": "ym2612"
    },
    {
      "channel": 2,
      "note": 83,
      "start": 11.1373,
      "duration": 0.1519,
      "velocity": 85,
      "chip": "ym2612"
    },
    {
      "channel": 3,
      "note": 52,
      "start": 11.1375,
      "duration": 0.1518,
      "velocity": 80,
      "chip": "ym2612"
    },
    {
      "channel": 4,
      "note": 45,
      "start": 11.1391,
      "duration": 0.1504,
      "velocity": 101,
      "chip": "ym2612"
    },
    {
      "channel": 5,
      "note": 86,
      "start": 11.1393,
      "duration": 0.7454,
      "velocity": 50,
      "chip": "ym2612"
    },
    {
      "channel": 2,
      "note": 95,
      "start": 11.3032,
      "duration": 0.1522,
      "velocity": 85,
      "chip": "ym2612"
    },
    {
      "channel": 2,
      "note": 83,
      "start": 11.4693,
      "duration": 0.1522,
      "velocity": 85,
      "chip": "ym2612"
    },
    {
      "channel": 3,
      "note": 52,
      "start": 11.4694,
      "duration": 0.1522,
      "velocity": 80,
      "chip": "ym2612"
    },
    {
      "channel": 4,
      "note": 45,
      "start": 11.4696,
      "duration": 0.1521,
      "velocity": 101,
      "chip": "ym2612"
    },
    {
      "channel": 2,
      "note": 88,
      "start": 11.6357,
      "duration": 0.1519,
      "velocity": 85,
      "chip": "ym2612"
    },
    {
      "channel": 3,
      "note": 64,
      "start": 11.6359,
      "duration": 0.1519,
      "velocity": 80,
      "chip": "ym2612"
    },
    {
      "channel": 4,
      "note": 68,
      "start": 11.6376,
      "duration": 0.1503,
      "velocity": 127,
      "chip": "ym2612"
    },
    {
      "channel": 2,
      "note": 83,
      "start": 11.8016,
      "duration": 0.1522,
      "velocity": 85,
      "chip": "ym2612"
    },
    {
      "channel": 3,
      "note": 52,
      "start": 11.8021,
      "duration": 0.1517,
      "velocity": 80,
      "chip": "ym2612"
    },
    {
      "channel": 4,
      "note": 45,
      "start": 11.8038,
      "duration": 0.1502,
      "velocity": 101,
      "chip": "ym2612"
    },
    {
      "channel": 2,
      "note": 95,
      "start": 11.9676,
      "duration": 0.1522,
      "velocity": 85,
      "chip": "ym2612"
    },
    {
      "channel": 3,
      "note": 59,
      "start": 11.9678,
      "duration": 0.1522,
      "velocity": 80,
      "chip": "ym2612"
    },
    {
      "channel": 1,
      "note": 83,
      "start": 12.1338,
      "duration": 0.1522,
      "velocity": 50,
      "chip": "ym2612"
    },
    {
      "channel": 2,
      "note": 83,
      "start": 12.1339,
      "duration": 0.1522,
      "velocity": 85,
      "chip": "ym2612"
    },
    {
      "channel": 3,
      "note": 52,
      "start": 12.1341,
      "duration": 0.1522,
      "velocity": 80,
      "chip": "ym2612"
    },
    {
      "channel": 4,
      "note": 45,
      "start": 12.1343,
      "duration": 0.1521,
      "velocity": 101,
      "chip": "ym2612"
    },
    {
      "channel": 5,
      "note": 86,
      "start": 12.1344,
      "duration": 0.1521,
      "velocity": 50,
      "chip": "ym2612"
    },
    {
      "channel": 2,
      "note": 88,
      "start": 12.3,
      "duration": 0.1524,
      "velocity": 85,
      "chip": "ym2612"
    },
    {
      "channel": 3,
      "note": 64,
      "start": 12.3002,
      "duration": 0.1523,
      "velocity": 80,
      "chip": "ym2612"
    },
    {
      "channel": 4,
      "note": 68,
      "start": 12.3022,
      "duration": 0.1504,
      "velocity": 127,
      "chip": "ym2612"
    },
    {
      "channel": 1,
      "note": 81,
      "start": 12.4661,
      "duration": 0.7475,
      "velocity": 50,
      "chip": "ym2612"
    },
    {
      "channel": 2,
      "note": 83,
      "start": 12.4663,
      "duration": 0.1525,
      "velocity": 85,
      "chip": "ym2612"
    },
    {
      "channel": 3,
      "note": 52,
      "start": 12.4664,
      "duration": 0.1524,
      "velocity": 80,
      "chip": "ym2612"
    },
    {
      "channel": 4,
      "note": 45,
      "start": 12.4681,
      "duration": 0.1509,
      "velocity": 101,
      "chip": "ym2612"
    },
    {
      "channel": 5,
      "note": 85,
      "start": 12.4687,
      "duration": 0.745,
      "velocity": 50,
      "chip": "ym2612"
    },
    {
      "channel": 2,
      "note": 95,
      "start": 12.6322,
      "duration": 0.1522,
      "velocity": 85,
      "chip": "ym2612"
    },
    {
      "channel": 2,
      "note": 83,
      "start": 12.7983,
      "duration": 0.1522,
      "velocity": 85,
      "chip": "ym2612"
    },
    {
      "channel": 3,
      "note": 52,
      "start": 12.7984,
      "duration": 0.1522,
      "velocity": 80,
      "chip": "ym2612"
    },
    {
      "channel": 4,
      "note": 45,
      "start": 12.7986,
      "duration": 0.1522,
      "velocity": 101,
      "chip": "ym2612"
    },
    {
      "channel": 2,
      "note": 88,
      "start": 12.9645,
      "duration": 0.1522,
      "velocity": 85,
      "chip": "ym2612"
    },
    {
      "channel": 3,
      "note": 64,
      "start": 12.9646,
      "duration": 0.1521,
      "velocity": 80,
      "chip": "ym2612"
    },
    {
      "channel": 4,
      "note": 68,
      "start": 12.9663,
      "duration": 0.1506,
      "velocity": 127,
      "chip": "ym2612"
    },
    {
      "channel": 2,
      "note": 83,
      "start": 13.1306,
      "duration": 0.1522,
      "velocity": 85,
      "chip": "ym2612"
    },
    {
      "channel": 3,
      "note": 52,
      "start": 13.1307,
      "duration": 0.1522,
      "velocity": 80,
      "chip": "ym2612"
    },
    {
      "channel": 4,
      "note": 45,
      "start": 13.1324,
      "duration": 0.1506,
      "velocity": 101,
      "chip": "ym2612"
    },
    {
      "channel": 2,
      "note": 95,
      "start": 13.2967,
      "duration": 0.1522,
      "velocity": 85,
      "chip": "ym2612"
    },
    {
      "channel": 3,
      "note": 59,
      "start": 13.2969,
      "duration": 0.1521,
      "velocity": 80,
      "chip": "ym2612"
    },
    {
      "channel": 1,
      "note": 81,
      "start": 13.4627,
      "duration": 0.1522,
      "velocity": 50,
      "chip": "ym2612"
    },
    {
      "channel": 2,
      "note": 83,
      "start": 13.4629,
      "duration": 0.1522,
      "velocity": 85,
      "chip": "ym2612"
    },
    {
      "channel": 3,
      "note": 52,
      "start": 13.4631,
      "duration": 0.1521,
      "velocity": 80,
      "chip": "ym2612"
    },
    {
      "channel": 4,
      "note": 45,
      "start": 13.4633,
      "duration": 0.1521,
      "velocity": 101,
      "chip": "ym2612"
    },
    {
      "channel": 5,
      "note": 85,
      "start": 13.4634,
      "duration": 0.1521,
      "velocity": 50,
      "chip": "ym2612"
    },
    {
      "channel": 2,
      "note": 88,
      "start": 13.629,
      "duration": 0.1522,
      "velocity": 85,
      "chip": "ym2612"
    },
    {
      "channel": 3,
      "note": 64,
      "start": 13.6292,
      "duration": 0.1522,
      "velocity": 80,
      "chip": "ym2612"
    },
    {
      "channel": 4,
      "note": 68,
      "start": 13.6308,
      "duration": 0.1506,
      "velocity": 127,
      "chip": "ym2612"
    },
    {
      "channel": 1,
      "note": 79,
      "start": 13.7951,
      "duration": 0.7474,
      "velocity": 50,
      "chip": "ym2612"
    },
    {
      "channel": 2,
      "note": 83,
      "start": 13.7953,
      "duration": 0.152,
      "velocity": 85,
      "chip": "ym2612"
    },
    {
      "channel": 3,
      "note": 52,
      "start": 13.7954,
      "duration": 0.152,
      "velocity": 80,
      "chip": "ym2612"
    },
    {
      "channel": 4,
      "note": 45,
      "start": 13.7971,
      "duration": 0.1505,
      "velocity": 101,
      "chip": "ym2612"
    },
    {
      "channel": 5,
      "note": 83,
      "start": 13.7973,
      "duration": 0.7454,
      "velocity": 50,
      "chip": "ym2612"
    },
    {
      "channel": 2,
      "note": 95,
      "start": 13.9612,
      "duration": 0.1522,
      "velocity": 85,
      "chip": "ym2612"
    },
    {
      "channel": 2,
      "note": 83,
      "start": 14.1273,
      "duration": 0.1522,
      "velocity": 85,
      "chip": "ym2612"
    },
    {
      "channel": 3,
      "note": 52,
      "start": 14.1274,
      "duration": 0.1522,
      "velocity": 80,
      "chip": "ym2612"
    },
    {
      "channel": 4,
      "note": 45,
      "start": 14.1276,
      "duration": 0.1522,
      "velocity": 101,
      "chip": "ym2612"
    },
    {
      "channel": 2,
      "note": 88,
      "start": 14.2935,
      "duration": 0.1522,
      "velocity": 85,
      "chip": "ym2612"
    },
    {
      "channel": 3,
      "note": 64,
      "start": 14.2937,
      "duration": 0.1521,
      "velocity": 80,
      "chip": "ym2612"
    },
    {
      "channel": 4,
      "note": 68,
      "start": 14.2953,
      "duration": 0.1506,
      "velocity": 127,
      "chip": "ym2612"
    },
    {
      "channel": 2,
      "note": 83,
      "start": 14.4596,
      "duration": 0.1522,
      "velocity": 85,
      "chip": "ym2612"
    },
    {
      "channel": 3,
      "note": 52,
      "start": 14.4598,
      "duration": 0.1522,
      "velocity": 80,
      "chip": "ym2612"
    },
    {
      "channel": 4,
      "note": 45,
      "start": 14.4614,
      "duration": 0.1506,
      "velocity": 101,
      "chip": "ym2612"
    },
    {
      "channel": 2,
      "note": 95,
      "start": 14.6257,
      "duration": 0.1522,
      "velocity": 85,
      "chip": "ym2612"
    },
    {
      "channel": 3,
      "note": 59,
      "start": 14.6259,
      "duration": 0.1522,
      "velocity": 80,
      "chip": "ym2612"
    },
    {
      "channel": 1,
      "note": 79,
      "start": 14.7918,
      "duration": 0.1522,
      "velocity": 50,
      "chip": "ym2612"
    },
    {
      "channel": 2,
      "note": 83,
      "start": 14.792,
      "duration": 0.1522,
      "velocity": 85,
      "chip": "ym2612"
    },
    {
      "channel": 3,
      "note": 52,
      "start": 14.7922,
      "duration": 0.1521,
      "velocity": 80,
      "chip": "ym2612"
    },
    {
      "channel": 4,
      "note": 45,
      "start": 14.7923,
      "duration": 0.1521,
      "velocity": 101,
      "chip": "ym2612"
    },
    {
      "channel": 5,
      "note": 83,
      "start": 14.7924,
      "duration": 0.1521,
      "velocity": 50,
      "chip": "ym2612"
    },
    {
      "channel": 1,
      "note": 81,
      "start": 14.958,
      "duration": 0.1522,
      "velocity": 50,
      "chip": "ym2612"
    },
    {
      "channel": 2,
      "note": 88,
      "start": 14.9581,
      "duration": 0.1522,
      "velocity": 85,
      "chip": "ym2612"
    },
    {
      "channel": 3,
      "note": 54,
      "start": 14.9583,
      "duration": 0.1522,
      "velocity": 80,
      "chip": "ym2612"
    },
    {
      "channel": 4,
      "note": 68,
      "start": 14.96,
      "duration": 0.1506,
      "velocity": 127,
      "chip": "ym2612"
    },
    {
      "channel": 5,
      "note": 85,
      "start": 14.9601,
      "duration": 0.1506,
      "velocity": 50,
      "chip": "ym2612"
    },
    {
      "channel": 1,
      "note": 83,
      "start": 15.1241,
      "duration": 0.609,
      "velocity": 50,
      "chip": "ym2612"
    },
    {
      "channel": 2,
      "note": 83,
      "start": 15.1243,
      "duration": 0.152,
      "velocity": 85,
      "chip": "ym2612"
    },
    {
      "channel": 3,
      "note": 57,
      "start": 15.1244,
      "duration": 0.3181,
      "velocity": 80,
      "chip": "ym2612"
    },
    {
      "channel": 4,
      "note": 45,
      "start": 15.1261,
      "duration": 0.1503,
      "velocity": 101,
      "chip": "ym2612"
    },
    {
      "channel": 5,
      "note": 86,
      "start": 15.1262,
      "duration": 0.6071,
      "velocity": 50,
      "chip": "ym2612"
    },
    {
      "channel": 2,
      "note": 95,
      "start": 15.2902,
      "duration": 0.1523,
      "velocity": 85,
      "chip": "ym2612"
    },
    {
      "channel": 2,
      "note": 83,
      "start": 15.4564,
      "duration": 0.1522,
      "velocity": 85,
      "chip": "ym2612"
    },
    {
      "channel": 3,
      "note": 69,
      "start": 15.4566,
      "duration": 0.1521,
      "velocity": 80,
      "chip": "ym2612"
    },
    {
      "channel": 4,
      "note": 45,
      "start": 15.4567,
      "duration": 0.1521,
      "velocity": 101,
      "chip": "ym2612"
    },
    {
      "channel": 2,
      "note": 88,
      "start": 15.6224,
      "duration": 0.1523,
      "velocity": 85,
      "chip": "ym2612"
    },
    {
      "channel": 3,
      "note": 57,
      "start": 15.6226,
      "duration": 0.1522,
      "velocity": 80,
      "chip": "ym2612"
    },
    {
      "channel": 4,
      "note": 68,
      "start": 15.6243,
      "duration": 0.1507,
      "velocity": 127,
      "chip": "ym2612"
    },
    {
      "channel": 1,
      "note": 85,
      "start": 15.7886,
      "duration": 0.1522,
      "velocity": 50,
      "chip": "ym2612"
    },
    {
      "channel": 2,
      "note": 83,
      "start": 15.7888,
      "duration": 0.1522,
      "velocity": 85,
      "chip": "ym2612"
    },
    {
      "channel": 3,
      "note": 71,
      "start": 15.789,
      "duration": 0.1521,
      "velocity": 80,
      "chip": "ym2612"
    },
    {
      "channel": 4,
      "note": 45,
      "start": 15.7906,
      "duration": 0.1506,
      "velocity": 101,
      "chip": "ym2612"
    },
    {
      "channel": 5,
      "note": 88,
      "start": 15.7908,
      "duration": 0.1505,
      "velocity": 50,
      "chip": "ym2612"
    },
    {
      "channel": 2,
      "note": 95,
      "start": 15.9547,
      "duration": 0.1522,
      "velocity": 85,
      "chip": "ym2612"
    },
    {
      "channel": 1,
      "note": 85,
      "start": 16.1208,
      "duration": 0.1522,
      "velocity": 50,
      "chip": "ym2612"
    },
    {
      "channel": 2,
      "note": 83,
      "start": 16.121,
      "duration": 0.1522,
      "velocity": 85,
      "chip": "ym2612"
    },
    {
      "channel": 3,
      "note": 71,
      "start": 16.1212,
      "duration": 0.1522,
      "velocity": 80,
      "chip": "ym2612"
    },
    {
      "channel": 4,
      "note": 45,
      "start": 16.1213,
      "duration": 0.1522,
      "velocity": 101,
      "chip": "ym2612"
    },
    {
      "channel": 5,
      "note": 88,
      "start": 16.1215,
      "duration": 0.1521,
      "velocity": 50,
      "chip": "ym2612"
    },
    {
      "channel": 2,
      "note": 88,
      "start": 16.287,
      "duration": 0.1522,
      "velocity": 85,
      "chip": "ym2612"
    },
    {
      "channel": 4,
      "note": 68,
      "start": 16.2886,
      "duration": 0.1507,
      "velocity": 127,
      "chip": "ym2612"
    },
    {
      "channel": 1,
      "note": 83,
      "start": 16.4532,
      "duration": 0.7474,
      "velocity": 50,
      "chip": "ym2612"
    },
    {
      "channel": 2,
      "note": 83,
      "start": 16.4533,
      "duration": 0.152,
      "velocity": 85,
      "chip": "ym2612"
    },
    {
      "channel": 3,
      "note": 52,
      "start": 16.4535,
      "duration": 0.1519,
      "velocity": 80,
      "chip": "ym2612"
    },
    {
      "channel": 4,
      "note": 45,
      "start": 16.4552,
      "duration": 0.1504,
      "velocity": 101,
      "chip": "ym2612"
    },
    {
      "channel": 5,
      "note": 86,
      "start": 16.4554,
      "duration": 0.7454,
      "velocity": 50,
      "chip": "ym2612"
    },
    {
      "channel": 2,
      "note": 95,
      "start": 16.6192,
      "duration": 0.1522,
      "velocity": 85,
      "chip": "ym2612"
    },
    {
      "channel": 2,
      "note": 83,
      "start": 16.7858,
      "duration": 0.1518,
      "velocity": 85,
      "chip": "ym2612"
    },
    {
      "channel": 3,
      "note": 52,
      "start": 16.7859,
      "duration": 0.1518,
      "velocity": 80,
      "chip": "ym2612"
    },
    {
      "channel": 4,
      "note": 45,
      "start": 16.786,
      "duration": 0.1518,
      "velocity": 101,
      "chip": "ym2612"
    },
    {
      "channel": 2,
      "note": 88,
      "start": 16.9515,
      "duration": 0.1522,
      "velocity": 85,
      "chip": "ym2612"
    },
    {
      "channel": 3,
      "note": 64,
      "start": 16.9521,
      "duration": 0.1518,
      "velocity": 80,
      "chip": "ym2612"
    },
    {
      "channel": 4,
      "note": 68,
      "start": 16.9537,
      "duration": 0.1502,
      "velocity": 127,
      "chip": "ym2612"
    },
    {
      "channel": 2,
      "note": 83,
      "start": 17.1176,
      "duration": 0.1522,
      "velocity": 85,
      "chip": "ym2612"
    },
    {
      "channel": 3,
      "note": 52,
      "start": 17.1178,
      "duration": 0.1521,
      "velocity": 80,
      "chip": "ym2612"
    },
    {
      "channel": 4,
      "note": 45,
      "start": 17.1199,
      "duration": 0.1502,
      "velocity": 101,
      "chip": "ym2612"
    },
    {
      "channel": 2,
      "note": 95,
      "start": 17.2837,
      "duration": 0.1522,
      "velocity": 85,
      "chip": "ym2612"
    },
    {
      "channel": 3,
      "note": 59,
      "start": 17.2839,
      "duration": 0.1522,
      "velocity": 80,
      "chip": "ym2612"
    },
    {
      "channel": 1,
      "note": 83,
      "start": 17.4498,
      "duration": 0.1525,
      "velocity": 50,
      "chip": "ym2612"
    },
    {
      "channel": 2,
      "note": 83,
      "start": 17.45,
      "duration": 0.1525,
      "velocity": 85,
      "chip": "ym2612"
    },
    {
      "channel": 3,
      "note": 52,
      "start": 17.4502,
      "duration": 0.1524,
      "velocity": 80,
      "chip": "ym2612"
    },
    {
      "channel": 4,
      "note": 45,
      "start": 17.4503,
      "duration": 0.1524,
      "velocity": 101,
      "chip": "ym2612"
    },
    {
      "channel": 5,
      "note": 86,
      "start": 17.4505,
      "duration": 0.1524,
      "velocity": 50,
      "chip": "ym2612"
    },
    {
      "channel": 2,
      "note": 88,
      "start": 17.616,
      "duration": 0.1523,
      "velocity": 85,
      "chip": "ym2612"
    },
    {
      "channel": 3,
      "note": 64,
      "start": 17.6162,
      "duration": 0.1526,
      "velocity": 80,
      "chip": "ym2612"
    },
    {
      "channel": 4,
      "note": 68,
      "start": 17.6178,
      "duration": 0.1511,
      "velocity": 127,
      "chip": "ym2612"
    },
    {
      "channel": 1,
      "note": 81,
      "start": 17.7822,
      "duration": 0.7475,
      "velocity": 50,
      "chip": "ym2612"
    },
    {
      "channel": 2,
      "note": 83,
      "start": 17.7823,
      "duration": 0.152,
      "velocity": 85,
      "chip": "ym2612"
    },
    {
      "channel": 3,
      "note": 52,
      "start": 17.7825,
      "duration": 0.1519,
      "velocity": 80,
      "chip": "ym2612"
    },
    {
      "channel": 4,
      "note": 45,
      "start": 17.7842,
      "duration": 0.1504,
      "velocity": 101,
      "chip": "ym2612"
    },
    {
      "channel": 5,
      "note": 85,
      "start": 17.7844,
      "duration": 0.7454,
      "velocity": 50,
      "chip": "ym2612"
    },
    {
      "channel": 2,
      "note": 95,
      "start": 17.9483,
      "duration": 0.1522,
      "velocity": 85,
      "chip": "ym2612"
    },
    {
      "channel": 2,
      "note": 83,
      "start": 18.1144,
      "duration": 0.1522,
      "velocity": 85,
      "chip": "ym2612"
    },
    {
      "channel": 3,
      "note": 52,
      "start": 18.1145,
      "duration": 0.1522,
      "velocity": 80,
      "chip": "ym2612"
    },
    {
      "channel": 4,
      "note": 45,
      "start": 18.1147,
      "duration": 0.1521,
      "velocity": 101,
      "chip": "ym2612"
    },
    {
      "channel": 2,
      "note": 88,
      "start": 18.2805,
      "duration": 0.1522,
      "velocity": 85,
      "chip": "ym2612"
    },
    {
      "channel": 3,
      "note": 64,
      "start": 18.2807,
      "duration": 0.1522,
      "velocity": 80,
      "chip": "ym2612"
    },
    {
      "channel": 4,
      "note": 68,
      "start": 18.2823,
      "duration": 0.1506,
      "velocity": 127,
      "chip": "ym2612"
    },
    {
      "channel": 2,
      "note": 83,
      "start": 18.4466,
      "duration": 0.1522,
      "velocity": 85,
      "chip": "ym2612"
    },
    {
      "channel": 3,
      "note": 52,
      "start": 18.4468,
      "duration": 0.1521,
      "velocity": 80,
      "chip": "ym2612"
    },
    {
      "channel": 4,
      "note": 45,
      "start": 18.4485,
      "duration": 0.1506,
      "velocity": 101,
      "chip": "ym2612"
    },
    {
      "channel": 2,
      "note": 95,
      "start": 18.6127,
      "duration": 0.1522,
      "velocity": 85,
      "chip": "ym2612"
    },
    {
      "channel": 3,
      "note": 59,
      "start": 18.6129,
      "duration": 0.1521,
      "velocity": 80,
      "chip": "ym2612"
    },
    {
      "channel": 1,
      "note": 81,
      "start": 18.7788,
      "duration": 0.1522,
      "velocity": 50,
      "chip": "ym2612"
    },
    {
      "channel": 2,
      "note": 83,
      "start": 18.779,
      "duration": 0.1522,
      "velocity": 85,
      "chip": "ym2612"
    },
    {
      "channel": 3,
      "note": 52,
      "start": 18.7792,
      "duration": 0.1522,
      "velocity": 80,
      "chip": "ym2612"
    },
    {
      "channel": 4,
      "note": 45,
      "start": 18.7793,
      "duration": 0.1521,
      "velocity": 101,
      "chip": "ym2612"
    },
    {
      "channel": 5,
      "note": 85,
      "start": 18.7795,
      "duration": 0.1521,
      "velocity": 50,
      "chip": "ym2612"
    },
    {
      "channel": 2,
      "note": 88,
      "start": 18.945,
      "duration": 0.1522,
      "velocity": 85,
      "chip": "ym2612"
    },
    {
      "channel": 3,
      "note": 64,
      "start": 18.9452,
      "duration": 0.1522,
      "velocity": 80,
      "chip": "ym2612"
    },
    {
      "channel": 4,
      "note": 68,
      "start": 18.9468,
      "duration": 0.1506,
      "velocity": 127,
      "chip": "ym2612"
    },
    {
      "channel": 1,
      "note": 79,
      "start": 19.1112,
      "duration": 0.7475,
      "velocity": 50,
      "chip": "ym2612"
    },
    {
      "channel": 2,
      "note": 83,
      "start": 19.1114,
      "duration": 0.152,
      "velocity": 85,
      "chip": "ym2612"
    },
    {
      "channel": 3,
      "note": 52,
      "start": 19.1115,
      "duration": 0.152,
      "velocity": 80,
      "chip": "ym2612"
    },
    {
      "channel": 4,
      "note": 45,
      "start": 19.1132,
      "duration": 0.1505,
      "velocity": 101,
      "chip": "ym2612"
    },
    {
      "channel": 5,
      "note": 83,
      "start": 19.1134,
      "duration": 0.7454,
      "velocity": 50,
      "chip": "ym2612"
    },
    {
      "channel": 2,
      "note": 95,
      "start": 19.2773,
      "duration": 0.1522,
      "velocity": 85,
      "chip": "ym2612"
    },
    {
      "channel": 2,
      "note": 83,
      "start": 19.4434,
      "duration": 0.1522,
      "velocity": 85,
      "chip": "ym2612"
    },
    {
      "channel": 3,
      "note": 52,
      "start": 19.4435,
      "duration": 0.1522,
      "velocity": 80,
      "chip": "ym2612"
    },
    {
      "channel": 4,
      "note": 45,
      "start": 19.4437,
      "duration": 0.1522,
      "velocity": 101,
      "chip": "ym2612"
    },
    {
      "channel": 2,
      "note": 88,
      "start": 19.6095,
      "duration": 0.1522,
      "velocity": 85,
      "chip": "ym2612"
    },
    {
      "channel": 3,
      "note": 64,
      "start": 19.6097,
      "duration": 0.1522,
      "velocity": 80,
      "chip": "ym2612"
    },
    {
      "channel": 4,
      "note": 68,
      "start": 19.6114,
      "duration": 0.1506,
      "velocity": 127,
      "chip": "ym2612"
    },
    {
      "channel": 2,
      "note": 83,
      "start": 19.7757,
      "duration": 0.1522,
      "velocity": 85,
      "chip": "ym2612"
    },
    {
      "channel": 3,
      "note": 52,
      "start": 19.7759,
      "duration": 0.1521,
      "velocity": 80,
      "chip": "ym2612"
    },
    {
      "channel": 4,
      "note": 45,
      "start": 19.7775,
      "duration": 0.1506,
      "velocity": 101,
      "chip": "ym2612"
    },
    {
      "channel": 2,
      "note": 95,
      "start": 19.9418,
      "duration": 0.1522,
      "velocity": 85,
      "chip": "ym2612"
    },
    {
      "channel": 3,
      "note": 59,
      "start": 19.942,
      "duration": 0.1521,
      "velocity": 80,
      "chip": "ym2612"
    },
    {
      "channel": 1,
      "note": 79,
      "start": 20.1078,
      "duration": 0.1522,
      "velocity": 50,
      "chip": "ym2612"
    },
    {
      "channel": 2,
      "note": 83,
      "start": 20.108,
      "duration": 0.1522,
      "velocity": 85,
      "chip": "ym2612"
    },
    {
      "channel": 3,
      "note": 57,
      "start": 20.1082,
      "duration": 0.1521,
      "velocity": 80,
      "chip": "ym2612"
    },
    {
      "channel": 4,
      "note": 45,
      "start": 20.1084,
      "duration": 0.1521,
      "velocity": 101,
      "chip": "ym2612"
    },
    {
      "channel": 5,
      "note": 83,
      "start": 20.1085,
      "duration": 0.152,
      "velocity": 50,
      "chip": "ym2612"
    },
    {
      "channel": 1,
      "note": 81,
      "start": 20.2741,
      "duration": 0.1522,
      "velocity": 50,
      "chip": "ym2612"
    },
    {
      "channel": 2,
      "note": 88,
      "start": 20.2743,
      "duration": 0.1521,
      "velocity": 85,
      "chip": "ym2612"
    },
    {
      "channel": 3,
      "note": 59,
      "start": 20.2744,
      "duration": 0.1521,
      "velocity": 80,
      "chip": "ym2612"
    },
    {
      "channel": 4,
      "note": 68,
      "start": 20.2761,
      "duration": 0.1506,
      "velocity": 127,
      "chip": "ym2612"
    },
    {
      "channel": 5,
      "note": 85,
      "start": 20.2762,
      "duration": 0.1505,
      "velocity": 50,
      "chip": "ym2612"
    },
    {
      "channel": 1,
      "note": 82,
      "start": 20.4402,
      "duration": 0.609,
      "velocity": 50,
      "chip": "ym2612"
    },
    {
      "channel": 2,
      "note": 83,
      "start": 20.4403,
      "duration": 0.1521,
      "velocity": 85,
      "chip": "ym2612"
    },
    {
      "channel": 3,
      "note": 60,
      "start": 20.4405,
      "duration": 0.3181,
      "velocity": 80,
      "chip": "ym2612"
    },
    {
      "channel": 4,
      "note": 45,
      "start": 20.4421,
      "duration": 0.1504,
      "velocity": 101,
      "chip": "ym2612"
    },
    {
      "channel": 5,
      "note": 86,
      "start": 20.4423,
      "duration": 0.6071,
      "velocity": 50,
      "chip": "ym2612"
    },
    {
      "channel": 2,
      "note": 95,
      "start": 20.6063,
      "duration": 0.1522,
      "velocity": 85,
      "chip": "ym2612"
    },
    {
      "channel": 2,
      "note": 83,
      "start": 20.7724,
      "duration": 0.1522,
      "velocity": 85,
      "chip": "ym2612"
    },
    {
      "channel": 3,
      "note": 72,
      "start": 20.7726,
      "duration": 0.1521,
      "velocity": 80,
      "chip": "ym2612"
    },
    {
      "channel": 4,
      "note": 45,
      "start": 20.7727,
      "duration": 0.1521,
      "velocity": 101,
      "chip": "ym2612"
    },
    {
      "channel": 2,
      "note": 88,
      "start": 20.9385,
      "duration": 0.1522,
      "velocity": 85,
      "chip": "ym2612"
    },
    {
      "channel": 3,
      "note": 60,
      "start": 20.9387,
      "duration": 0.1522,
      "velocity": 80,
      "chip": "ym2612"
    },
    {
      "channel": 4,
      "note": 68,
      "start": 20.9404,
      "duration": 0.1506,
      "velocity": 127,
      "chip": "ym2612"
    },
    {
      "channel": 1,
      "note": 84,
      "start": 21.1047,
      "duration": 0.1522,
      "velocity": 50,
      "chip": "ym2612"
    },
    {
      "channel": 2,
      "note": 83,
      "start": 21.1049,
      "duration": 0.1522,
      "velocity": 85,
      "chip": "ym2612"
    },
    {
      "channel": 3,
      "note": 74,
      "start": 21.1051,
      "duration": 0.1521,
      "velocity": 80,
      "chip": "ym2612"
    },
    {
      "channel": 4,
      "note": 45,
      "start": 21.1067,
      "duration": 0.1506,
      "velocity": 101,
      "chip": "ym2612"
    },
    {
      "channel": 5,
      "note": 88,
      "start": 21.1069,
      "duration": 0.1505,
      "velocity": 50,
      "chip": "ym2612"
    },
    {
      "channel": 2,
      "note": 95,
      "start": 21.2708,
      "duration": 0.1523,
      "velocity": 85,
      "chip": "ym2612"
    },
    {
      "channel": 1,
      "note": 84,
      "start": 21.4368,
      "duration": 0.1523,
      "velocity": 50,
      "chip": "ym2612"
    },
    {
      "channel": 2,
      "note": 83,
      "start": 21.4371,
      "duration": 0.1522,
      "velocity": 85,
      "chip": "ym2612"
    },
    {
      "channel": 3,
      "note": 74,
      "start": 21.4372,
      "duration": 0.1522,
      "velocity": 80,
      "chip": "ym2612"
    },
    {
      "channel": 4,
      "note": 45,
      "start": 21.4373,
      "duration": 0.1522,
      "velocity": 101,
      "chip": "ym2612"
    },
    {
      "channel": 5,
      "note": 88,
      "start": 21.4375,
      "duration": 0.1522,
      "velocity": 50,
      "chip": "ym2612"
    },
    {
      "channel": 2,
      "note": 88,
      "start": 21.603,
      "duration": 0.1523,
      "velocity": 85,
      "chip": "ym2612"
    },
    {
      "channel": 4,
      "note": 68,
      "start": 21.6047,
      "duration": 0.1508,
      "velocity": 127,
      "chip": "ym2612"
    },
    {
      "channel": 1,
      "note": 75,
      "start": 21.7692,
      "duration": 0.7474,
      "velocity": 50,
      "chip": "ym2612"
    },
    {
      "channel": 2,
      "note": 90,
      "start": 21.7708,
      "duration": 0.9815,
      "velocity": 92,
      "chip": "ym2612"
    },
    {
      "channel": 3,
      "note": 49,
      "start": 21.7711,
      "duration": 0.1502,
      "velocity": 80,
      "chip": "ym2612"
    },
    {
      "channel": 4,
      "note": 45,
      "start": 21.7727,
      "duration": 0.1488,
      "velocity": 101,
      "chip": "ym2612"
    },
    {
      "channel": 5,
      "note": 78,
      "start": 21.7729,
      "duration": 0.7439,
      "velocity": 50,
      "chip": "ym2612"
    },
    {
      "channel": 3,
      "note": 49,
      "start": 22.1014,
      "duration": 0.1523,
      "velocity": 80,
      "chip": "ym2612"
    },
    {
      "channel": 4,
      "note": 45,
      "start": 22.1016,
      "duration": 0.1522,
      "velocity": 101,
      "chip": "ym2612"
    },
    {
      "channel": 3,
      "note": 61,
      "start": 22.2675,
      "duration": 0.1523,
      "velocity": 80,
      "chip": "ym2612"
    },
    {
      "channel": 4,
      "note": 68,
      "start": 22.2696,
      "duration": 0.1503,
      "velocity": 127,
      "chip": "ym2612"
    },
    {
      "channel": 3,
      "note": 49,
      "start": 22.4337,
      "duration": 0.1522,
      "velocity": 80,
      "chip": "ym2612"
    },
    {
      "channel": 4,
      "note": 45,
      "start": 22.4358,
      "duration": 0.1502,
      "velocity": 101,
      "chip": "ym2612"
    },
    {
      "channel": 3,
      "note": 56,
      "start": 22.5998,
      "duration": 0.1527,
      "velocity": 80,
      "chip": "ym2612"
    },
    {
      "channel": 2,
      "note": 88,
      "start": 22.7659,
      "duration": 0.1522,
      "velocity": 92,
      "chip": "ym2612"
    },
    {
      "channel": 3,
      "note": 49,
      "start": 22.7661,
      "duration": 0.1525,
      "velocity": 80,
      "chip": "ym2612"
    },
    {
      "channel": 4,
      "note": 45,
      "start": 22.7663,
      "duration": 0.1525,
      "velocity": 101,
      "chip": "ym2612"
    },
    {
      "channel": 5,
      "note": 76,
      "start": 22.7664,
      "duration": 0.1525,
      "velocity": 50,
      "chip": "ym2612"
    },
    {
      "channel": 2,
      "note": 90,
      "start": 22.932,
      "duration": 0.1523,
      "velocity": 92,
      "chip": "ym2612"
    },
    {
      "channel": 3,
      "note": 61,
      "start": 22.9322,
      "duration": 0.1522,
      "velocity": 80,
      "chip": "ym2612"
    },
    {
      "channel": 4,
      "note": 68,
      "start": 22.9339,
      "duration": 0.1507,
      "velocity": 127,
      "chip": "ym2612"
    },
    {
      "channel": 5,
      "note": 75,
      "start": 22.9341,
      "duration": 0.1506,
      "velocity": 50,
      "chip": "ym2612"
    },
    {
      "channel": 1,
      "note": 73,
      "start": 23.0982,
      "duration": 0.7475,
      "velocity": 50,
      "chip": "ym2612"
    },
    {
      "channel": 2,
      "note": 95,
      "start": 23.0984,
      "duration": 0.9827,
      "velocity": 92,
      "chip": "ym2612"
    },
    {
      "channel": 3,
      "note": 47,
      "start": 23.0986,
      "duration": 0.1518,
      "velocity": 80,
      "chip": "ym2612"
    },
    {
      "channel": 4,
      "note": 45,
      "start": 23.1002,
      "duration": 0.1503,
      "velocity": 101,
      "chip": "ym2612"
    },
    {
      "channel": 5,
      "note": 76,
      "start": 23.1003,
      "duration": 0.7456,
      "velocity": 50,
      "chip": "ym2612"
    },
    {
      "channel": 3,
      "note": 47,
      "start": 23.4304,
      "duration": 0.1523,
      "velocity": 80,
      "chip": "ym2612"
    },
    {
      "channel": 4,
      "note": 45,
      "start": 23.4306,
      "duration": 0.1522,
      "velocity": 101,
      "chip": "ym2612"
    },
    {
      "channel": 3,
      "note": 59,
      "start": 23.5966,
      "duration": 0.1522,
      "velocity": 80,
      "chip": "ym2612"
    },
    {
      "channel": 4,
      "note": 68,
      "start": 23.5983,
      "duration": 0.1507,
      "velocity": 127,
      "chip": "ym2612"
    },
    {
      "channel": 3,
      "note": 47,
      "start": 23.7627,
      "duration": 0.1522,
      "velocity": 80,
      "chip": "ym2612"
    },
    {
      "channel": 4,
      "note": 45,
      "start": 23.7643,
      "duration": 0.1507,
      "velocity": 101,
      "chip": "ym2612"
    },
    {
      "channel": 3,
      "note": 54,
      "start": 23.9288,
      "duration": 0.1524,
      "velocity": 80,
      "chip": "ym2612"
    },
    {
      "channel": 2,
      "note": 100,
      "start": 24.0949,
      "duration": 0.1522,
      "velocity": 92,
      "chip": "ym2612"
    },
    {
      "channel": 3,
      "note": 47,
      "start": 24.0951,
      "duration": 0.1522,
      "velocity": 80,
      "chip": "ym2612"
    },
    {
      "channel": 4,
      "note": 45,
      "start": 24.0953,
      "duration": 0.1522,
      "velocity": 101,
      "chip": "ym2612"
    },
    {
      "channel": 5,
      "note": 75,
      "start": 24.0954,
      "duration": 0.1521,
      "velocity": 50,
      "chip": "ym2612"
    },
    {
      "channel": 2,
      "note": 99,
      "start": 24.2611,
      "duration": 0.1522,
      "velocity": 92,
      "chip": "ym2612"
    },
    {
      "channel": 3,
      "note": 59,
      "start": 24.2613,
      "duration": 0.1522,
      "velocity": 80,
      "chip": "ym2612"
    },
    {
      "channel": 4,
      "note": 68,
      "start": 24.2629,
      "duration": 0.1506,
      "velocity": 127,
      "chip": "ym2612"
    },
    {
      "channel": 5,
      "note": 73,
      "start": 24.2631,
      "duration": 0.1506,
      "velocity": 50,
      "chip": "ym2612"
    },
    {
      "channel": 1,
      "note": 71,
      "start": 24.4273,
      "duration": 0.7475,
      "velocity": 50,
      "chip": "ym2612"
    },
    {
      "channel": 2,
      "note": 95,
      "start": 24.4274,
      "duration": 0.9826,
      "velocity": 92,
      "chip": "ym2612"
    },
    {
      "channel": 3,
      "note": 52,
      "start": 24.4276,
      "duration": 0.1518,
      "velocity": 80,
      "chip": "ym2612"
    },
    {
      "channel": 4,
      "note": 45,
      "start": 24.4292,
      "duration": 0.1503,
      "velocity": 101,
      "chip": "ym2612"
    },
    {
      "channel": 5,
      "note": 75,
      "start": 24.4294,
      "duration": 0.7455,
      "velocity": 50,
      "chip": "ym2612"
    },
    {
      "channel": 3,
      "note": 52,
      "start": 24.7594,
      "duration": 0.1522,
      "velocity": 80,
      "chip": "ym2612"
    },
    {
      "channel": 4,
      "note": 45,
      "start": 24.7596,
      "duration": 0.1522,
      "velocity": 101,
      "chip": "ym2612"
    },
    {
      "channel": 3,
      "note": 64,
      "start": 24.9256,
      "duration": 0.1522,
      "velocity": 80,
      "chip": "ym2612"
    },
    {
      "channel": 4,
      "note": 68,
      "start": 24.9273,
      "duration": 0.1506,
      "velocity": 127,
      "chip": "ym2612"
    },
    {
      "channel": 3,
      "note": 52,
      "start": 25.0917,
      "duration": 0.1522,
      "velocity": 80,
      "chip": "ym2612"
    },
    {
      "channel": 4,
      "note": 45,
      "start": 25.0934,
      "duration": 0.1507,
      "velocity": 101,
      "chip": "ym2612"
    },
    {
      "channel": 3,
      "note": 59,
      "start": 25.2578,
      "duration": 0.1523,
      "velocity": 80,
      "chip": "ym2612"
    },
    {
      "channel": 2,
      "note": 90,
      "start": 25.424,
      "duration": 0.1522,
      "velocity": 92,
      "chip": "ym2612"
    },
    {
      "channel": 3,
      "note": 52,
      "start": 25.4242,
      "duration": 0.1521,
      "velocity": 80,
      "chip": "ym2612"
    },
    {
      "channel": 4,
      "note": 45,
      "start": 25.4243,
      "duration": 0.1521,
      "velocity": 101,
      "chip": "ym2612"
    },
    {
      "channel": 5,
      "note": 73,
      "start": 25.4245,
      "duration": 0.152,
      "velocity": 50,
      "chip": "ym2612"
    },
    {
      "channel": 2,
      "note": 92,
      "start": 25.5901,
      "duration": 0.1522,
      "velocity": 92,
      "chip": "ym2612"
    },
    {
      "channel": 3,
      "note": 64,
      "start": 25.5903,
      "duration": 0.1521,
      "velocity": 80,
      "chip": "ym2612"
    },
    {
      "channel": 4,
      "note": 68,
      "start": 25.592,
      "duration": 0.1506,
      "velocity": 127,
      "chip": "ym2612"
    },
    {
      "channel": 5,
      "note": 71,
      "start": 25.5921,
      "duration": 0.1506,
      "velocity": 50,
      "chip": "ym2612"
    },
    {
      "channel": 1,
      "note": 66,
      "start": 25.7562,
      "duration": 0.7475,
      "velocity": 50,
      "chip": "ym2612"
    },
    {
      "channel": 2,
      "note": 94,
      "start": 25.7564,
      "duration": 0.4566,
      "velocity": 92,
      "chip": "ym2612"
    },
    {
      "channel": 3,
      "note": 51,
      "start": 25.7566,
      "duration": 0.1518,
      "velocity": 80,
      "chip": "ym2612"
    },
    {
      "channel": 4,
      "note": 45,
      "start": 25.7582,
      "duration": 0.1503,
      "velocity": 101,
      "chip": "ym2612"
    },
    {
      "channel": 5,
      "note": 71,
      "start": 25.7584,
      "duration": 0.7455,
      "velocity": 50,
      "chip": "ym2612"
    },
    {
      "channel": 3,
      "note": 51,
      "start": 26.0885,
      "duration": 0.1523,
      "velocity": 80,
      "chip": "ym2612"
    },
    {
      "channel": 4,
      "note": 45,
      "start": 26.0886,
      "duration": 0.1523,
      "velocity": 101,
      "chip": "ym2612"
    },
    {
      "channel": 2,
      "note": 95,
      "start": 26.2546,
      "duration": 0.1522,
      "velocity": 92,
      "chip": "ym2612"
    },
    {
      "channel": 3,
      "note": 63,
      "start": 26.2548,
      "duration": 0.1521,
      "velocity": 80,
      "chip": "ym2612"
    },
    {
      "channel": 4,
      "note": 68,
      "start": 26.2565,
      "duration": 0.1506,
      "velocity": 127,
      "chip": "ym2612"
    },
    {
      "channel": 2,
      "note": 90,
      "start": 26.4207,
      "duration": 0.2907,
      "velocity": 92,
      "chip": "ym2612"
    },
    {
      "channel": 3,
      "note": 51,
      "start": 26.4209,
      "duration": 0.1521,
      "velocity": 80,
      "chip": "ym2612"
    },
    {
      "channel": 4,
      "note": 45,
      "start": 26.4225,
      "duration": 0.1506,
      "velocity": 101,
      "chip": "ym2612"
    },
    {
      "channel": 1,
      "note": 66,
      "start": 26.5867,
      "duration": 0.1524,
      "velocity": 50,
      "chip": "ym2612"
    },
    {
      "channel": 3,
      "note": 58,
      "start": 26.5869,
      "duration": 0.1523,
      "velocity": 80,
      "chip": "ym2612"
    },
    {
      "channel": 5,
      "note": 70,
      "start": 26.5871,
      "duration": 0.1522,
      "velocity": 50,
      "chip": "ym2612"
    },
    {
      "channel": 1,
      "note": 70,
      "start": 26.7529,
      "duration": 0.2907,
      "velocity": 50,
      "chip": "ym2612"
    },
    {
      "channel": 2,
      "note": 94,
      "start": 26.7532,
      "duration": 0.2906,
      "velocity": 92,
      "chip": "ym2612"
    },
    {
      "channel": 3,
      "note": 51,
      "start": 26.7533,
      "duration": 0.1519,
      "velocity": 80,
      "chip": "ym2612"
    },
    {
      "channel": 4,
      "note": 45,
      "start": 26.7535,
      "duration": 0.1519,
      "velocity": 101,
      "chip": "ym2612"
    },
    {
      "channel": 5,
      "note": 71,
      "start": 26.7537,
      "duration": 0.2902,
      "velocity": 50,
      "chip": "ym2612"
    },
    {
      "channel": 3,
      "note": 63,
      "start": 26.9191,
      "duration": 0.1522,
      "velocity": 80,
      "chip": "ym2612"
    },
    {
      "channel": 4,
      "note": 68,
      "start": 26.9208,
      "duration": 0.1507,
      "velocity": 127,
      "chip": "ym2612"
    },
    {
      "channel": 1,
      "note": 69,
      "start": 27.0857,
      "duration": 0.747,
      "velocity": 50,
      "chip": "ym2612"
    },
    {
      "channel": 2,
      "note": 93,
      "start": 27.0859,
      "duration": 0.9821,
      "velocity": 92,
      "chip": "ym2612"
    },
    {
      "channel": 3,
      "note": 62,
      "start": 27.0861,
      "duration": 0.1514,
      "velocity": 80,
      "chip": "ym2612"
    },
    {
      "channel": 4,
      "note": 45,
      "start": 27.0878,
      "duration": 0.1499,
      "velocity": 101,
      "chip": "ym2612"
    },
    {
      "channel": 5,
      "note": 71,
      "start": 27.0878,
      "duration": 0.7451,
      "velocity": 50,
      "chip": "ym2612"
    },
    {
      "channel": 3,
      "note": 50,
      "start": 27.4175,
      "duration": 0.1522,
      "velocity": 80,
      "chip": "ym2612"
    },
    {
      "channel": 4,
      "note": 45,
      "start": 27.4176,
      "duration": 0.1522,
      "velocity": 101,
      "chip": "ym2612"
    },
    {
      "channel": 3,
      "note": 62,
      "start": 27.5837,
      "duration": 0.1522,
      "velocity": 80,
      "chip": "ym2612"
    },
    {
      "channel": 4,
      "note": 68,
      "start": 27.5857,
      "duration": 0.1502,
      "velocity": 127,
      "chip": "ym2612"
    },
    {
      "channel": 3,
      "note": 50,
      "start": 27.7497,
      "duration": 0.1526,
      "velocity": 80,
      "chip": "ym2612"
    },
    {
      "channel": 4,
      "note": 45,
      "start": 27.7514,
      "duration": 0.1511,
      "velocity": 101,
      "chip": "ym2612"
    },
    {
      "channel": 3,
      "note": 57,
      "start": 27.9159,
      "duration": 0.1523,
      "velocity": 80,
      "chip": "ym2612"
    },
    {
      "channel": 2,
      "note": 92,
      "start": 28.082,
      "duration": 0.1522,
      "velocity": 92,
      "chip": "ym2612"
    },
    {
      "channel": 3,
      "note": 50,
      "start": 28.0822,
      "duration": 0.1521,
      "velocity": 80,
      "chip": "ym2612"
    },
    {
      "channel": 4,
      "note": 45,
      "start": 28.0823,
      "duration": 0.1521,
      "velocity": 101,
      "chip": "ym2612"
    },
    {
      "channel": 5,
      "note": 71,
      "start": 28.0825,
      "duration": 0.1521,
      "velocity": 50,
      "chip": "ym2612"
    },
    {
      "channel": 2,
      "note": 93,
      "start": 28.2481,
      "duration": 0.1522,
      "velocity": 92,
      "chip": "ym2612"
    },
    {
      "channel": 3,
      "note": 62,
      "start": 28.2483,
      "duration": 0.1522,
      "velocity": 80,
      "chip": "ym2612"
    },
    {
      "channel": 4,
      "note": 68,
      "start": 28.25,
      "duration": 0.1506,
      "velocity": 127,
      "chip": "ym2612"
    },
    {
      "channel": 5,
      "note": 69,
      "start": 28.2501,
      "duration": 0.1506,
      "velocity": 50,
      "chip": "ym2612"
    },
    {
      "channel": 1,
      "note": 64,
      "start": 28.4142,
      "duration": 0.7475,
      "velocity": 50,
      "chip": "ym2612"
    },
    {
      "channel": 2,
      "note": 100,
      "start": 28.4144,
      "duration": 0.4566,
      "velocity": 92,
      "chip": "ym2612"
    },
    {
      "channel": 3,
      "note": 49,
      "start": 28.4146,
      "duration": 0.1519,
      "velocity": 80,
      "chip": "ym2612"
    },
    {
      "channel": 4,
      "note": 45,
      "start": 28.4163,
      "duration": 0.1504,
      "velocity": 101,
      "chip": "ym2612"
    },
    {
      "channel": 5,
      "note": 69,
      "start": 28.4164,
      "duration": 0.7456,
      "velocity": 50,
      "chip": "ym2612"
    },
    {
      "channel": 3,
      "note": 49,
      "start": 28.7465,
      "duration": 0.1523,
      "velocity": 80,
      "chip": "ym2612"
    },
    {
      "channel": 4,
      "note": 45,
      "start": 28.7466,
      "duration": 0.1523,
      "velocity": 101,
      "chip": "ym2612"
    },
    {
      "channel": 2,
      "note": 98,
      "start": 28.9126,
      "duration": 0.2906,
      "velocity": 92,
      "chip": "ym2612"
    },
    {
      "channel": 3,
      "note": 61,
      "start": 28.9128,
      "duration": 0.152,
      "velocity": 80,
      "chip": "ym2612"
    },
    {
      "channel": 4,
      "note": 68,
      "start": 28.9145,
      "duration": 0.1505,
      "velocity": 127,
      "chip": "ym2612"
    },
    {
      "channel": 3,
      "note": 49,
      "start": 29.0788,
      "duration": 0.1522,
      "velocity": 80,
      "chip": "ym2612"
    },
    {
      "channel": 4,
      "note": 45,
      "start": 29.0804,
      "duration": 0.1507,
      "velocity": 101,
      "chip": "ym2612"
    },
    {
      "channel": 1,
      "note": 64,
      "start": 29.2449,
      "duration": 0.1522,
      "velocity": 50,
      "chip": "ym2612"
    },
    {
      "channel": 2,
      "note": 97,
      "start": 29.2451,
      "duration": 0.1522,
      "velocity": 92,
      "chip": "ym2612"
    },
    {
      "channel": 3,
      "note": 56,
      "start": 29.2452,
      "duration": 0.1522,
      "velocity": 80,
      "chip": "ym2612"
    },
    {
      "channel": 5,
      "note": 68,
      "start": 29.2454,
      "duration": 0.152,
      "velocity": 50,
      "chip": "ym2612"
    },
    {
      "channel": 1,
      "note": 68,
      "start": 29.411,
      "duration": 0.2911,
      "velocity": 50,
      "chip": "ym2612"
    },
    {
      "channel": 2,
      "note": 93,
      "start": 29.4112,
      "duration": 0.291,
      "velocity": 92,
      "chip": "ym2612"
    },
    {
      "channel": 3,
      "note": 49,
      "start": 29.4114,
      "duration": 0.1519,
      "velocity": 80,
      "chip": "ym2612"
    },
    {
      "channel": 4,
      "note": 45,
      "start": 29.4115,
      "duration": 0.1519,
      "velocity": 101,
      "chip": "ym2612"
    },
    {
      "channel": 5,
      "note": 71,
      "start": 29.4117,
      "duration": 0.2907,
      "velocity": 50,
      "chip": "ym2612"
    },
    {
      "channel": 3,
      "note": 61,
      "start": 29.5771,
      "duration": 0.1522,
      "velocity": 80,
      "chip": "ym2612"
    },
    {
      "channel": 4,
      "note": 68,
      "start": 29.5788,
      "duration": 0.1507,
      "velocity": 127,
      "chip": "ym2612"
    },
    {
      "channel": 1,
      "note": 67,
      "start": 29.7432,
      "duration": 1.6474,
      "velocity": 50,
      "chip": "ym2612"
    },
    {
      "channel": 2,
      "note": 95,
      "start": 29.7434,
      "duration": 0.7474,
      "velocity": 92,
      "chip": "ym2612"
    },
    {
      "channel": 3,
      "note": 48,
      "start": 29.7436,
      "duration": 0.1518,
      "velocity": 80,
      "chip": "ym2612"
    },
    {
      "channel": 4,
      "note": 45,
      "start": 29.7453,
      "duration": 0.1503,
      "velocity": 101,
      "chip": "ym2612"
    },
    {
      "channel": 5,
      "note": 71,
      "start": 29.7454,
      "duration": 1.6456,
      "velocity": 50,
      "chip": "ym2612"
    },
    {
      "channel": 3,
      "note": 48,
      "start": 30.0755,
      "duration": 0.1522,
      "velocity": 80,
      "chip": "ym2612"
    },
    {
      "channel": 4,
      "note": 45,
      "start": 30.0757,
      "duration": 0.1522,
      "velocity": 101,
      "chip": "ym2612"
    },
    {
      "channel": 3,
      "note": 60,
      "start": 30.2416,
      "duration": 0.1523,
      "velocity": 80,
      "chip": "ym2612"
    },
    {
      "channel": 4,
      "note": 68,
      "start": 30.2433,
      "duration": 0.1507,
      "velocity": 127,
      "chip": "ym2612"
    },
    {
      "channel": 3,
      "note": 48,
      "start": 30.4078,
      "duration": 0.1522,
      "velocity": 80,
      "chip": "ym2612"
    },
    {
      "channel": 4,
      "note": 45,
      "start": 30.4094,
      "duration": 0.1507,
      "velocity": 101,
      "chip": "ym2612"
    },
    {
      "channel": 2,
      "note": 91,
      "start": 30.5739,
      "duration": 0.0692,
      "velocity": 92,
      "chip": "ym2612"
    },
    {
      "channel": 3,
      "note": 55,
      "start": 30.5741,
      "duration": 0.1522,
      "velocity": 80,
      "chip": "ym2612"
    },
    {
      "channel": 2,
      "note": 86,
      "start": 30.657,
      "duration": 0.0692,
      "velocity": 92,
      "chip": "ym2612"
    },
    {
      "channel": 2,
      "note": 91,
      "start": 30.74,
      "duration": 0.0691,
      "velocity": 92,
      "chip": "ym2612"
    },
    {
      "channel": 3,
      "note": 48,
      "start": 30.7402,
      "duration": 0.1521,
      "velocity": 80,
      "chip": "ym2612"
    },
    {
      "channel": 4,
      "note": 45,
      "start": 30.7404,
      "duration": 0.1521,
      "velocity": 101,
      "chip": "ym2612"
    },
    {
      "channel": 2,
      "note": 95,
      "start": 30.8231,
      "duration": 0.0691,
      "velocity": 92,
      "chip": "ym2612"
    },
    {
      "channel": 2,
      "note": 98,
      "start": 30.9061,
      "duration": 0.0692,
      "velocity": 92,
      "chip": "ym2612"
    },
    {
      "channel": 3,
      "note": 60,
      "start": 30.9063,
      "duration": 0.1522,
      "velocity": 80,
      "chip": "ym2612"
    },
    {
      "channel": 4,
      "note": 68,
      "start": 30.908,
      "duration": 0.1506,
      "velocity": 127,
      "chip": "ym2612"
    },
    {
      "channel": 2,
      "note": 91,
      "start": 30.9892,
      "duration": 0.0692,
      "velocity": 92,
      "chip": "ym2612"
    },
    {
      "channel": 2,
      "note": 95,
      "start": 31.0722,
      "duration": 0.0692,
      "velocity": 92,
      "chip": "ym2612"
    },
    {
      "channel": 3,
      "note": 48,
      "start": 31.0724,
      "duration": 0.1522,
      "velocity": 80,
      "chip": "ym2612"
    },
    {
      "channel": 4,
      "note": 45,
      "start": 31.0741,
      "duration": 0.1507,
      "velocity": 101,
      "chip": "ym2612"
    },
    {
      "channel": 2,
      "note": 98,
      "start": 31.1554,
      "duration": 0.0691,
      "velocity": 92,
      "chip": "ym2612"
    },
    {
      "channel": 2,
      "note": 103,
      "start": 31.2385,
      "duration": 0.1523,
      "velocity": 92,
      "chip": "ym2612"
    },
    {
      "channel": 3,
      "note": 48,
      "start": 31.2386,
      "duration": 0.1523,
      "velocity": 80,
      "chip": "ym2612"
    },
    {
      "channel": 4,
      "note": 45,
      "start": 31.4045,
      "duration": 0.1523,
      "velocity": 101,
      "chip": "ym2612"
    },
    {
      "channel": 4,
      "note": 68,
      "start": 31.5722,
      "duration": 0.1507,
      "velocity": 127,
      "chip": "ym2612"
    },
    {
      "channel": 4,
      "note": 45,
      "start": 31.7383,
      "duration": 0.1508,
      "velocity": 101,
      "chip": "ym2612"
    },
    {
      "channel": 4,
      "note": 45,
      "start": 32.069,
      "duration": 0.1522,
      "velocity": 101,
      "chip": "ym2612"
    },
    {
      "channel": 4,
      "note": 68,
      "start": 32.2372,
      "duration": 0.1501,
      "velocity": 127,
      "chip": "ym2612"
    },
    {
      "channel": 1,
      "note": 83,
      "start": 32.4013,
      "duration": 0.4935,
      "velocity": 50,
      "chip": "ym2612"
    },
    {
      "channel": 3,
      "note": 52,
      "start": 32.4016,
      "duration": 0.152,
      "velocity": 80,
      "chip": "ym2612"
    },
    {
      "channel": 4,
      "note": 45,
      "start": 32.4036,
      "duration": 0.1501,
      "velocity": 101,
      "chip": "ym2612"
    },
    {
      "channel": 5,
      "note": 86,
      "start": 32.4038,
      "duration": 0.491,
      "velocity": 50,
      "chip": "ym2612"
    },
    {
      "channel": 2,
      "note": 95,
      "start": 32.5694,
      "duration": 0.1502,
      "velocity": 85,
      "chip": "ym2612"
    },
    {
      "channel": 2,
      "note": 83,
      "start": 32.7336,
      "duration": 0.1522,
      "velocity": 85,
      "chip": "ym2612"
    },
    {
      "channel": 3,
      "note": 52,
      "start": 32.7337,
      "duration": 0.1522,
      "velocity": 80,
      "chip": "ym2612"
    },
    {
      "channel": 4,
      "note": 45,
      "start": 32.7338,
      "duration": 0.1522,
      "velocity": 101,
      "chip": "ym2612"
    }
  ]
}