{
  "track_name": "18 - Organic Beat",
  "duration_sec": 83.649,
  "sample_rate": 44100,
  "note_count": 1605,
  "unique_pitches": 29,
  "pitch_range": 53,
  "avg_note_duration": 0.2459,
  "reconstruction_stats": {
    "notes_reconstructed": 1605,
    "keyon_events": 1605,
    "keyoff_events": 1546,
    "orphan_keyons": 5,
    "unique_pitches": 29,
    "pitch_range": 53,
    "avg_duration_sec": 0.2459
  },
  "metadata": {
    "source": "P\\Phantasy Star IV\\18 - Organic Beat.vgm"
  },
  "notes": [
    {
      "channel": 1,
      "note": 49,
      "start": 0.0,
      "duration": 0.0977,
      "velocity": 107,
      "chip": "ym2612"
    },
    {
      "channel": 2,
      "note": 49,
      "start": 0.001,
      "duration": 0.097,
      "velocity": 107,
      "chip": "ym2612"
    },
    {
      "channel": 3,
      "note": 85,
      "start": 0.0021,
      "duration": 0.0961,
      "velocity": 117,
      "chip": "ym2612"
    },
    {
      "channel": 1,
      "note": 49,
      "start": 0.0979,
      "duration": 0.1165,
      "velocity": 107,
      "chip": "ym2612"
    },
    {
      "channel": 2,
      "note": 49,
      "start": 0.0982,
      "duration": 0.1166,
      "velocity": 107,
      "chip": "ym2612"
    },
    {
      "channel": 3,
      "note": 85,
      "start": 0.0985,
      "duration": 0.1166,
      "velocity": 117,
      "chip": "ym2612"
    },
    {
      "channel": 1,
      "note": 49,
      "start": 0.2146,
      "duration": 0.1164,
      "velocity": 107,
      "chip": "ym2612"
    },
    {
      "channel": 2,
      "note": 49,
      "start": 0.215,
      "duration": 0.1163,
      "velocity": 107,
      "chip": "ym2612"
    },
    {
      "channel": 3,
      "note": 88,
      "start": 0.2152,
      "duration": 0.1163,
      "velocity": 117,
      "chip": "ym2612"
    },
    {
      "channel": 1,
      "note": 49,
      "start": 0.3312,
      "duration": 0.1165,
      "velocity": 107,
      "chip": "ym2612"
    },
    {
      "channel": 2,
      "note": 49,
      "start": 0.3315,
      "duration": 0.1166,
      "velocity": 107,
      "chip": "ym2612"
    },
    {
      "channel": 3,
      "note": 90,
      "start": 0.3318,
      "duration": 0.1166,
      "velocity": 117,
      "chip": "ym2612"
    },
    {
      "channel": 1,
      "note": 49,
      "start": 0.4479,
      "duration": 0.1165,
      "velocity": 107,
      "chip": "ym2612"
    },
    {
      "channel": 2,
      "note": 49,
      "start": 0.4482,
      "duration": 0.1164,
      "velocity": 107,
      "chip": "ym2612"
    },
    {
      "channel": 3,
      "note": 85,
      "start": 0.4485,
      "duration": 0.1163,
      "velocity": 117,
      "chip": "ym2612"
    },
    {
      "channel": 1,
      "note": 49,
      "start": 0.5646,
      "duration": 0.1165,
      "velocity": 107,
      "chip": "ym2612"
    },
    {
      "channel": 2,
      "note": 49,
      "start": 0.5648,
      "duration": 0.1166,
      "velocity": 107,
      "chip": "ym2612"
    },
    {
      "channel": 3,
      "note": 85,
      "start": 0.5651,
      "duration": 0.1166,
      "velocity": 117,
      "chip": "ym2612"
    },
    {
      "channel": 1,
      "note": 49,
      "start": 0.6813,
      "duration": 0.1164,
      "velocity": 107,
      "chip": "ym2612"
    },
    {
      "channel": 2,
      "note": 49,
      "start": 0.6816,
      "duration": 0.1163,
      "velocity": 107,
      "chip": "ym2612"
    },
    {
      "channel": 3,
      "note": 88,
      "start": 0.6819,
      "duration": 0.1163,
      "velocity": 117,
      "chip": "ym2612"
    },
    {
      "channel": 1,
      "note": 49,
      "start": 0.7979,
      "duration": 0.0998,
      "velocity": 107,
      "chip": "ym2612"
    },
    {
      "channel": 2,
      "note": 49,
      "start": 0.7982,
      "duration": 0.0999,
      "velocity": 107,
      "chip": "ym2612"
    },
    {
      "channel": 3,
      "note": 90,
      "start": 0.7985,
      "duration": 0.0999,
      "velocity": 117,
      "chip": "ym2612"
    },
    {
      "channel": 1,
      "note": 49,
      "start": 0.898,
      "duration": 0.1164,
      "velocity": 107,
      "chip": "ym2612"
    },
    {
      "channel": 2,
      "note": 49,
      "start": 0.8983,
      "duration": 0.1163,
      "velocity": 107,
      "chip": "ym2612"
    },
    {
      "channel": 3,
      "note": 85,
      "start": 0.8985,
      "duration": 0.1163,
      "velocity": 117,
      "chip": "ym2612"
    },
    {
      "channel": 1,
      "note": 49,
      "start": 1.0146,
      "duration": 0.1165,
      "velocity": 107,
      "chip": "ym2612"
    },
    {
      "channel": 2,
      "note": 49,
      "start": 1.0148,
      "duration": 0.1166,
      "velocity": 107,
      "chip": "ym2612"
    },
    {
      "channel": 3,
      "note": 85,
      "start": 1.0151,
      "duration": 0.1166,
      "velocity": 117,
      "chip": "ym2612"
    },
    {
      "channel": 1,
      "note": 49,
      "start": 1.1313,
      "duration": 0.1164,
      "velocity": 107,
      "chip": "ym2612"
    },
    {
      "channel": 2,
      "note": 49,
      "start": 1.1316,
      "duration": 0.1163,
      "velocity": 107,
      "chip": "ym2612"
    },
    {
      "channel": 3,
      "note": 88,
      "start": 1.1319,
      "duration": 0.1163,
      "velocity": 117,
      "chip": "ym2612"
    },
    {
      "channel": 1,
      "note": 49,
      "start": 1.2479,
      "duration": 0.1165,
      "velocity": 107,
      "chip": "ym2612"
    },
    {
      "channel": 2,
      "note": 49,
      "start": 1.2482,
      "duration": 0.1166,
      "velocity": 107,
      "chip": "ym2612"
    },
    {
      "channel": 3,
      "note": 90,
      "start": 1.2485,
      "duration": 0.1166,
      "velocity": 117,
      "chip": "ym2612"
    },
    {
      "channel": 1,
      "note": 49,
      "start": 1.3646,
      "duration": 0.1164,
      "velocity": 107,
      "chip": "ym2612"
    },
    {
      "channel": 2,
      "note": 49,
      "start": 1.365,
      "duration": 0.1163,
      "velocity": 107,
      "chip": "ym2612"
    },
    {
      "channel": 3,
      "note": 85,
      "start": 1.3652,
      "duration": 0.1163,
      "velocity": 117,
      "chip": "ym2612"
    },
    {
      "channel": 1,
      "note": 49,
      "start": 1.4812,
      "duration": 0.1165,
      "velocity": 107,
      "chip": "ym2612"
    },
    {
      "channel": 2,
      "note": 49,
      "start": 1.4815,
      "duration": 0.1166,
      "velocity": 107,
      "chip": "ym2612"
    },
    {
      "channel": 3,
      "note": 85,
      "start": 1.4818,
      "duration": 0.1166,
      "velocity": 117,
      "chip": "ym2612"
    },
    {
      "channel": 1,
      "note": 49,
      "start": 1.598,
      "duration": 0.0998,
      "velocity": 107,
      "chip": "ym2612"
    },
    {
      "channel": 2,
      "note": 49,
      "start": 1.5983,
      "duration": 0.0997,
      "velocity": 107,
      "chip": "ym2612"
    },
    {
      "channel": 3,
      "note": 88,
      "start": 1.5985,
      "duration": 0.0997,
      "velocity": 117,
      "chip": "ym2612"
    },
    {
      "channel": 1,
      "note": 49,
      "start": 1.6979,
      "duration": 0.1167,
      "velocity": 107,
      "chip": "ym2612"
    },
    {
      "channel": 2,
      "note": 49,
      "start": 1.6982,
      "duration": 0.1168,
      "velocity": 107,
      "chip": "ym2612"
    },
    {
      "channel": 3,
      "note": 90,
      "start": 1.6985,
      "duration": 0.1168,
      "velocity": 117,
      "chip": "ym2612"
    },
    {
      "channel": 1,
      "note": 49,
      "start": 1.8148,
      "duration": 0.1162,
      "velocity": 107,
      "chip": "ym2612"
    },
    {
      "channel": 2,
      "note": 49,
      "start": 1.8151,
      "duration": 0.1162,
      "velocity": 107,
      "chip": "ym2612"
    },
    {
      "channel": 3,
      "note": 85,
      "start": 1.8155,
      "duration": 0.116,
      "velocity": 117,
      "chip": "ym2612"
    },
    {
      "channel": 1,
      "note": 49,
      "start": 1.9312,
      "duration": 0.1165,
      "velocity": 107,
      "chip": "ym2612"
    },
    {
      "channel": 2,
      "note": 49,
      "start": 1.9315,
      "duration": 0.1166,
      "velocity": 107,
      "chip": "ym2612"
    },
    {
      "channel": 3,
      "note": 85,
      "start": 1.9318,
      "duration": 0.1166,
      "velocity": 117,
      "chip": "ym2612"
    },
    {
      "channel": 1,
      "note": 49,
      "start": 2.048,
      "duration": 0.1164,
      "velocity": 107,
      "chip": "ym2612"
    },
    {
      "channel": 2,
      "note": 49,
      "start": 2.0483,
      "duration": 0.1163,
      "velocity": 107,
      "chip": "ym2612"
    },
    {
      "channel": 3,
      "note": 88,
      "start": 2.0485,
      "duration": 0.1163,
      "velocity": 117,
      "chip": "ym2612"
    },
    {
      "channel": 1,
      "note": 49,
      "start": 2.1646,
      "duration": 0.1165,
      "velocity": 107,
      "chip": "ym2612"
    },
    {
      "channel": 2,
      "note": 49,
      "start": 2.1648,
      "duration": 0.1166,
      "velocity": 107,
      "chip": "ym2612"
    },
    {
      "channel": 3,
      "note": 90,
      "start": 2.1651,
      "duration": 0.1166,
      "velocity": 117,
      "chip": "ym2612"
    },
    {
      "channel": 1,
      "note": 49,
      "start": 2.2813,
      "duration": 0.1164,
      "velocity": 107,
      "chip": "ym2612"
    },
    {
      "channel": 2,
      "note": 49,
      "start": 2.2816,
      "duration": 0.1163,
      "velocity": 107,
      "chip": "ym2612"
    },
    {
      "channel": 3,
      "note": 85,
      "start": 2.2819,
      "duration": 0.1163,
      "velocity": 117,
      "chip": "ym2612"
    },
    {
      "channel": 1,
      "note": 49,
      "start": 2.3979,
      "duration": 0.0998,
      "velocity": 107,
      "chip": "ym2612"
    },
    {
      "channel": 2,
      "note": 49,
      "start": 2.3982,
      "duration": 0.0999,
      "velocity": 107,
      "chip": "ym2612"
    },
    {
      "channel": 3,
      "note": 85,
      "start": 2.3985,
      "duration": 0.0999,
      "velocity": 117,
      "chip": "ym2612"
    },
    {
      "channel": 1,
      "note": 49,
      "start": 2.498,
      "duration": 0.1164,
      "velocity": 107,
      "chip": "ym2612"
    },
    {
      "channel": 2,
      "note": 49,
      "start": 2.4983,
      "duration": 0.1163,
      "velocity": 107,
      "chip": "ym2612"
    },
    {
      "channel": 3,
      "note": 88,
      "start": 2.4985,
      "duration": 0.1163,
      "velocity": 117,
      "chip": "ym2612"
    },
    {
      "channel": 1,
      "note": 49,
      "start": 2.6146,
      "duration": 0.1165,
      "velocity": 107,
      "chip": "ym2612"
    },
    {
      "channel": 2,
      "note": 49,
      "start": 2.6148,
      "duration": 0.1166,
      "velocity": 107,
      "chip": "ym2612"
    },
    {
      "channel": 3,
      "note": 90,
      "start": 2.6151,
      "duration": 0.1166,
      "velocity": 117,
      "chip": "ym2612"
    },
    {
      "channel": 1,
      "note": 49,
      "start": 2.7312,
      "duration": 0.1165,
      "velocity": 107,
      "chip": "ym2612"
    },
    {
      "channel": 2,
      "note": 49,
      "start": 2.7316,
      "duration": 0.1164,
      "velocity": 107,
      "chip": "ym2612"
    },
    {
      "channel": 3,
      "note": 85,
      "start": 2.7319,
      "duration": 0.1163,
      "velocity": 117,
      "chip": "ym2612"
    },
    {
      "channel": 1,
      "note": 49,
      "start": 2.8479,
      "duration": 0.1165,
      "velocity": 107,
      "chip": "ym2612"
    },
    {
      "channel": 2,
      "note": 49,
      "start": 2.8482,
      "duration": 0.1166,
      "velocity": 107,
      "chip": "ym2612"
    },
    {
      "channel": 3,
      "note": 85,
      "start": 2.8485,
      "duration": 0.1166,
      "velocity": 117,
      "chip": "ym2612"
    },
    {
      "channel": 1,
      "note": 49,
      "start": 2.9646,
      "duration": 0.1164,
      "velocity": 107,
      "chip": "ym2612"
    },
    {
      "channel": 2,
      "note": 49,
      "start": 2.965,
      "duration": 0.1163,
      "velocity": 107,
      "chip": "ym2612"
    },
    {
      "channel": 3,
      "note": 88,
      "start": 2.9652,
      "duration": 0.1163,
      "velocity": 117,
      "chip": "ym2612"
    },
    {
      "channel": 1,
      "note": 49,
      "start": 3.0812,
      "duration": 0.1165,
      "velocity": 107,
      "chip": "ym2612"
    },
    {
      "channel": 2,
      "note": 49,
      "start": 3.0815,
      "duration": 0.1166,
      "velocity": 107,
      "chip": "ym2612"
    },
    {
      "channel": 3,
      "note": 90,
      "start": 3.0818,
      "duration": 0.1166,
      "velocity": 117,
      "chip": "ym2612"
    },
    {
      "channel": 1,
      "note": 49,
      "start": 3.1979,
      "duration": 0.0998,
      "velocity": 107,
      "chip": "ym2612"
    },
    {
      "channel": 2,
      "note": 49,
      "start": 3.1982,
      "duration": 0.0998,
      "velocity": 107,
      "chip": "ym2612"
    },
    {
      "channel": 3,
      "note": 85,
      "start": 3.1985,
      "duration": 0.0997,
      "velocity": 117,
      "chip": "ym2612"
    },
    {
      "channel": 1,
      "note": 49,
      "start": 3.2979,
      "duration": 0.1165,
      "velocity": 107,
      "chip": "ym2612"
    },
    {
      "channel": 2,
      "note": 49,
      "start": 3.2982,
      "duration": 0.1166,
      "velocity": 107,
      "chip": "ym2612"
    },
    {
      "channel": 3,
      "note": 85,
      "start": 3.2985,
      "duration": 0.1166,
      "velocity": 117,
      "chip": "ym2612"
    },
    {
      "channel": 1,
      "note": 49,
      "start": 3.4146,
      "duration": 0.1164,
      "velocity": 107,
      "chip": "ym2612"
    },
    {
      "channel": 2,
      "note": 49,
      "start": 3.415,
      "duration": 0.1163,
      "velocity": 107,
      "chip": "ym2612"
    },
    {
      "channel": 3,
      "note": 88,
      "start": 3.4152,
      "duration": 0.1163,
      "velocity": 117,
      "chip": "ym2612"
    },
    {
      "channel": 1,
      "note": 49,
      "start": 3.5312,
      "duration": 0.1171,
      "velocity": 107,
      "chip": "ym2612"
    },
    {
      "channel": 2,
      "note": 49,
      "start": 3.5315,
      "duration": 0.1178,
      "velocity": 92,
      "chip": "ym2612"
    },
    {
      "channel": 3,
      "note": 90,
      "start": 3.5318,
      "duration": 0.1177,
      "velocity": 117,
      "chip": "ym2612"
    },
    {
      "channel": 0,
      "note": 97,
      "start": 3.6482,
      "duration": 1.2486,
      "velocity": 112,
      "chip": "ym2612"
    },
    {
      "channel": 1,
      "note": 49,
      "start": 3.6485,
      "duration": 0.0065,
      "velocity": 107,
      "chip": "ym2612"
    },
    {
      "channel": 2,
      "note": 49,
      "start": 3.6495,
      "duration": 0.2024,
      "velocity": 92,
      "chip": "ym2612"
    },
    {
      "channel": 3,
      "note": 85,
      "start": 3.6497,
      "duration": 0.0055,
      "velocity": 117,
      "chip": "ym2612"
    },
    {
      "channel": 1,
      "note": 49,
      "start": 3.6551,
      "duration": 0.0799,
      "velocity": 107,
      "chip": "ym2612"
    },
    {
      "channel": 3,
      "note": 85,
      "start": 3.6555,
      "duration": 0.0798,
      "velocity": 117,
      "chip": "ym2612"
    },
    {
      "channel": 4,
      "note": 97,
      "start": 3.6557,
      "duration": 1.2484,
      "velocity": 112,
      "chip": "ym2612"
    },
    {
      "channel": 1,
      "note": 49,
      "start": 3.7352,
      "duration": 0.1164,
      "velocity": 107,
      "chip": "ym2612"
    },
    {
      "channel": 3,
      "note": 88,
      "start": 3.7355,
      "duration": 0.1166,
      "velocity": 117,
      "chip": "ym2612"
    },
    {
      "channel": 1,
      "note": 49,
      "start": 3.8518,
      "duration": 0.1001,
      "velocity": 107,
      "chip": "ym2612"
    },
    {
      "channel": 2,
      "note": 49,
      "start": 3.852,
      "duration": 0.1872,
      "velocity": 92,
      "chip": "ym2612"
    },
    {
      "channel": 3,
      "note": 90,
      "start": 3.8524,
      "duration": 0.0997,
      "velocity": 117,
      "chip": "ym2612"
    },
    {
      "channel": 1,
      "note": 49,
      "start": 3.9521,
      "duration": 0.0063,
      "velocity": 107,
      "chip": "ym2612"
    },
    {
      "channel": 3,
      "note": 85,
      "start": 3.9523,
      "duration": 0.0065,
      "velocity": 117,
      "chip": "ym2612"
    },
    {
      "channel": 1,
      "note": 49,
      "start": 3.9587,
      "duration": 0.0803,
      "velocity": 107,
      "chip": "ym2612"
    },
    {
      "channel": 3,
      "note": 85,
      "start": 3.9589,
      "duration": 0.0805,
      "velocity": 117,
      "chip": "ym2612"
    },
    {
      "channel": 1,
      "note": 49,
      "start": 4.0391,
      "duration": 0.1164,
      "velocity": 107,
      "chip": "ym2612"
    },
    {
      "channel": 2,
      "note": 49,
      "start": 4.0394,
      "duration": 0.2396,
      "velocity": 92,
      "chip": "ym2612"
    },
    {
      "channel": 3,
      "note": 88,
      "start": 4.0397,
      "duration": 0.1162,
      "velocity": 117,
      "chip": "ym2612"
    },
    {
      "channel": 1,
      "note": 49,
      "start": 4.1557,
      "duration": 0.1167,
      "velocity": 107,
      "chip": "ym2612"
    },
    {
      "channel": 3,
      "note": 90,
      "start": 4.1561,
      "duration": 0.1166,
      "velocity": 117,
      "chip": "ym2612"
    },
    {
      "channel": 1,
      "note": 49,
      "start": 4.2727,
      "duration": 0.0061,
      "velocity": 107,
      "chip": "ym2612"
    },
    {
      "channel": 3,
      "note": 85,
      "start": 4.2729,
      "duration": 0.0063,
      "velocity": 117,
      "chip": "ym2612"
    },
    {
      "channel": 1,
      "note": 49,
      "start": 4.2789,
      "duration": 0.0808,
      "velocity": 107,
      "chip": "ym2612"
    },
    {
      "channel": 2,
      "note": 49,
      "start": 4.2791,
      "duration": 0.2977,
      "velocity": 92,
      "chip": "ym2612"
    },
    {
      "channel": 3,
      "note": 85,
      "start": 4.2794,
      "duration": 0.0806,
      "velocity": 117,
      "chip": "ym2612"
    },
    {
      "channel": 1,
      "note": 49,
      "start": 4.3599,
      "duration": 0.0998,
      "velocity": 107,
      "chip": "ym2612"
    },
    {
      "channel": 3,
      "note": 88,
      "start": 4.3602,
      "duration": 0.0998,
      "velocity": 117,
      "chip": "ym2612"
    },
    {
      "channel": 1,
      "note": 49,
      "start": 4.4598,
      "duration": 0.1167,
      "velocity": 107,
      "chip": "ym2612"
    },
    {
      "channel": 3,
      "note": 90,
      "start": 4.4602,
      "duration": 0.1168,
      "velocity": 117,
      "chip": "ym2612"
    },
    {
      "channel": 1,
      "note": 49,
      "start": 4.5767,
      "duration": 0.0062,
      "velocity": 107,
      "chip": "ym2612"
    },
    {
      "channel": 2,
      "note": 54,
      "start": 4.5769,
      "duration": 0.0867,
      "velocity": 92,
      "chip": "ym2612"
    },
    {
      "channel": 3,
      "note": 85,
      "start": 4.5772,
      "duration": 0.0061,
      "velocity": 117,
      "chip": "ym2612"
    },
    {
      "channel": 1,
      "note": 49,
      "start": 4.5831,
      "duration": 0.0802,
      "velocity": 107,
      "chip": "ym2612"
    },
    {
      "channel": 3,
      "note": 85,
      "start": 4.5835,
      "duration": 0.0804,
      "velocity": 117,
      "chip": "ym2612"
    },
    {
      "channel": 1,
      "note": 49,
      "start": 4.6635,
      "duration": 0.1164,
      "velocity": 107,
      "chip": "ym2612"
    },
    {
      "channel": 2,
      "note": 55,
      "start": 4.6638,
      "duration": 0.2334,
      "velocity": 92,
      "chip": "ym2612"
    },
    {
      "channel": 3,
      "note": 88,
      "start": 4.6641,
      "duration": 0.1162,
      "velocity": 117,
      "chip": "ym2612"
    },
    {
      "channel": 1,
      "note": 49,
      "start": 4.7801,
      "duration": 0.1168,
      "velocity": 107,
      "chip": "ym2612"
    },
    {
      "channel": 3,
      "note": 90,
      "start": 4.7805,
      "duration": 0.1169,
      "velocity": 117,
      "chip": "ym2612"
    },
    {
      "channel": 0,
      "note": 97,
      "start": 4.8968,
      "duration": 1.2317,
      "velocity": 112,
      "chip": "ym2612"
    },
    {
      "channel": 1,
      "note": 49,
      "start": 4.8971,
      "duration": 0.0062,
      "velocity": 107,
      "chip": "ym2612"
    },
    {
      "channel": 2,
      "note": 49,
      "start": 4.8973,
      "duration": 0.1869,
      "velocity": 92,
      "chip": "ym2612"
    },
    {
      "channel": 3,
      "note": 85,
      "start": 4.8976,
      "duration": 0.006,
      "velocity": 117,
      "chip": "ym2612"
    },
    {
      "channel": 1,
      "note": 49,
      "start": 4.9034,
      "duration": 0.0639,
      "velocity": 107,
      "chip": "ym2612"
    },
    {
      "channel": 3,
      "note": 85,
      "start": 4.9038,
      "duration": 0.0639,
      "velocity": 117,
      "chip": "ym2612"
    },
    {
      "channel": 4,
      "note": 97,
      "start": 4.904,
      "duration": 1.2317,
      "velocity": 112,
      "chip": "ym2612"
    },
    {
      "channel": 1,
      "note": 49,
      "start": 4.9676,
      "duration": 0.1164,
      "velocity": 107,
      "chip": "ym2612"
    },
    {
      "channel": 3,
      "note": 88,
      "start": 4.9679,
      "duration": 0.1166,
      "velocity": 117,
      "chip": "ym2612"
    },
    {
      "channel": 1,
      "note": 49,
      "start": 5.0842,
      "duration": 0.1167,
      "velocity": 107,
      "chip": "ym2612"
    },
    {
      "channel": 2,
      "note": 49,
      "start": 5.0844,
      "duration": 0.2037,
      "velocity": 92,
      "chip": "ym2612"
    },
    {
      "channel": 3,
      "note": 90,
      "start": 5.0847,
      "duration": 0.1164,
      "velocity": 117,
      "chip": "ym2612"
    },
    {
      "channel": 1,
      "note": 49,
      "start": 5.2011,
      "duration": 0.0063,
      "velocity": 107,
      "chip": "ym2612"
    },
    {
      "channel": 3,
      "note": 85,
      "start": 5.2013,
      "duration": 0.0064,
      "velocity": 117,
      "chip": "ym2612"
    },
    {
      "channel": 1,
      "note": 49,
      "start": 5.2076,
      "duration": 0.0803,
      "velocity": 107,
      "chip": "ym2612"
    },
    {
      "channel": 3,
      "note": 85,
      "start": 5.208,
      "duration": 0.0804,
      "velocity": 117,
      "chip": "ym2612"
    },
    {
      "channel": 1,
      "note": 49,
      "start": 5.2881,
      "duration": 0.1164,
      "velocity": 107,
      "chip": "ym2612"
    },
    {
      "channel": 2,
      "note": 49,
      "start": 5.2883,
      "duration": 0.2388,
      "velocity": 92,
      "chip": "ym2612"
    },
    {
      "channel": 3,
      "note": 88,
      "start": 5.2887,
      "duration": 0.1162,
      "velocity": 117,
      "chip": "ym2612"
    },
    {
      "channel": 1,
      "note": 49,
      "start": 5.4047,
      "duration": 0.1167,
      "velocity": 107,
      "chip": "ym2612"
    },
    {
      "channel": 3,
      "note": 90,
      "start": 5.4051,
      "duration": 0.1166,
      "velocity": 117,
      "chip": "ym2612"
    },
    {
      "channel": 1,
      "note": 49,
      "start": 5.5216,
      "duration": 0.0052,
      "velocity": 107,
      "chip": "ym2612"
    },
    {
      "channel": 3,
      "note": 85,
      "start": 5.5218,
      "duration": 0.0055,
      "velocity": 117,
      "chip": "ym2612"
    },
    {
      "channel": 1,
      "note": 49,
      "start": 5.527,
      "duration": 0.0644,
      "velocity": 107,
      "chip": "ym2612"
    },
    {
      "channel": 2,
      "note": 49,
      "start": 5.5273,
      "duration": 0.181,
      "velocity": 92,
      "chip": "ym2612"
    },
    {
      "channel": 3,
      "note": 85,
      "start": 5.5275,
      "duration": 0.0643,
      "velocity": 117,
      "chip": "ym2612"
    },
    {
      "channel": 1,
      "note": 49,
      "start": 5.5917,
      "duration": 0.1164,
      "velocity": 107,
      "chip": "ym2612"
    },
    {
      "channel": 3,
      "note": 88,
      "start": 5.592,
      "duration": 0.1166,
      "velocity": 117,
      "chip": "ym2612"
    },
    {
      "channel": 1,
      "note": 49,
      "start": 5.7083,
      "duration": 0.1167,
      "velocity": 107,
      "chip": "ym2612"
    },
    {
      "channel": 2,
      "note": 49,
      "start": 5.7085,
      "duration": 0.1167,
      "velocity": 92,
      "chip": "ym2612"
    },
    {
      "channel": 3,
      "note": 90,
      "start": 5.7088,
      "duration": 0.1166,
      "velocity": 117,
      "chip": "ym2612"
    },
    {
      "channel": 1,
      "note": 49,
      "start": 5.8252,
      "duration": 0.0061,
      "velocity": 107,
      "chip": "ym2612"
    },
    {
      "channel": 2,
      "note": 55,
      "start": 5.8254,
      "duration": 0.0866,
      "velocity": 92,
      "chip": "ym2612"
    },
    {
      "channel": 3,
      "note": 85,
      "start": 5.8256,
      "duration": 0.006,
      "velocity": 117,
      "chip": "ym2612"
    },
    {
      "channel": 1,
      "note": 49,
      "start": 5.8316,
      "duration": 0.0802,
      "velocity": 107,
      "chip": "ym2612"
    },
    {
      "channel": 3,
      "note": 85,
      "start": 5.8318,
      "duration": 0.0804,
      "velocity": 117,
      "chip": "ym2612"
    },
    {
      "channel": 1,
      "note": 49,
      "start": 5.9119,
      "duration": 0.1164,
      "velocity": 107,
      "chip": "ym2612"
    },
    {
      "channel": 2,
      "note": 54,
      "start": 5.9122,
      "duration": 0.2167,
      "velocity": 92,
      "chip": "ym2612"
    },
    {
      "channel": 3,
      "note": 88,
      "start": 5.9125,
      "duration": 0.1162,
      "velocity": 117,
      "chip": "ym2612"
    },
    {
      "channel": 1,
      "note": 49,
      "start": 6.0285,
      "duration": 0.1001,
      "velocity": 107,
      "chip": "ym2612"
    },
    {
      "channel": 3,
      "note": 90,
      "start": 6.0289,
      "duration": 0.1003,
      "velocity": 117,
      "chip": "ym2612"
    },
    {
      "channel": 0,
      "note": 97,
      "start": 6.1285,
      "duration": 1.2479,
      "velocity": 112,
      "chip": "ym2612"
    },
    {
      "channel": 1,
      "note": 49,
      "start": 6.1288,
      "duration": 0.0064,
      "velocity": 107,
      "chip": "ym2612"
    },
    {
      "channel": 2,
      "note": 49,
      "start": 6.1291,
      "duration": 0.2032,
      "velocity": 92,
      "chip": "ym2612"
    },
    {
      "channel": 3,
      "note": 85,
      "start": 6.1294,
      "duration": 0.006,
      "velocity": 117,
      "chip": "ym2612"
    },
    {
      "channel": 1,
      "note": 49,
      "start": 6.1353,
      "duration": 0.08,
      "velocity": 107,
      "chip": "ym2612"
    },
    {
      "channel": 3,
      "note": 85,
      "start": 6.1356,
      "duration": 0.0801,
      "velocity": 117,
      "chip": "ym2612"
    },
    {
      "channel": 4,
      "note": 97,
      "start": 6.1358,
      "duration": 1.2482,
      "velocity": 112,
      "chip": "ym2612"
    },
    {
      "channel": 1,
      "note": 49,
      "start": 6.2156,
      "duration": 0.1164,
      "velocity": 107,
      "chip": "ym2612"
    },
    {
      "channel": 3,
      "note": 88,
      "start": 6.2159,
      "duration": 0.1167,
      "velocity": 117,
      "chip": "ym2612"
    },
    {
      "channel": 1,
      "note": 49,
      "start": 6.3322,
      "duration": 0.1167,
      "velocity": 107,
      "chip": "ym2612"
    },
    {
      "channel": 2,
      "note": 49,
      "start": 6.3325,
      "duration": 0.2034,
      "velocity": 92,
      "chip": "ym2612"
    },
    {
      "channel": 3,
      "note": 90,
      "start": 6.3328,
      "duration": 0.1164,
      "velocity": 117,
      "chip": "ym2612"
    },
    {
      "channel": 1,
      "note": 49,
      "start": 6.4491,
      "duration": 0.0059,
      "velocity": 107,
      "chip": "ym2612"
    },
    {
      "channel": 3,
      "note": 85,
      "start": 6.4493,
      "duration": 0.006,
      "velocity": 117,
      "chip": "ym2612"
    },
    {
      "channel": 1,
      "note": 49,
      "start": 6.4552,
      "duration": 0.0804,
      "velocity": 107,
      "chip": "ym2612"
    },
    {
      "channel": 3,
      "note": 85,
      "start": 6.4556,
      "duration": 0.0806,
      "velocity": 117,
      "chip": "ym2612"
    },
    {
      "channel": 1,
      "note": 49,
      "start": 6.5358,
      "duration": 0.0998,
      "velocity": 107,
      "chip": "ym2612"
    },
    {
      "channel": 2,
      "note": 49,
      "start": 6.5361,
      "duration": 0.2229,
      "velocity": 92,
      "chip": "ym2612"
    },
    {
      "channel": 3,
      "note": 88,
      "start": 6.5364,
      "duration": 0.0995,
      "velocity": 117,
      "chip": "ym2612"
    },
    {
      "channel": 1,
      "note": 49,
      "start": 6.6358,
      "duration": 0.1167,
      "velocity": 107,
      "chip": "ym2612"
    },
    {
      "channel": 3,
      "note": 90,
      "start": 6.6361,
      "duration": 0.1166,
      "velocity": 117,
      "chip": "ym2612"
    },
    {
      "channel": 1,
      "note": 49,
      "start": 6.7527,
      "duration": 0.0061,
      "velocity": 107,
      "chip": "ym2612"
    },
    {
      "channel": 3,
      "note": 85,
      "start": 6.7529,
      "duration": 0.0063,
      "velocity": 117,
      "chip": "ym2612"
    },
    {
      "channel": 1,
      "note": 49,
      "start": 6.7589,
      "duration": 0.0804,
      "velocity": 107,
      "chip": "ym2612"
    },
    {
      "channel": 2,
      "note": 49,
      "start": 6.7592,
      "duration": 0.3139,
      "velocity": 92,
      "chip": "ym2612"
    },
    {
      "channel": 3,
      "note": 85,
      "start": 6.7595,
      "duration": 0.0802,
      "velocity": 117,
      "chip": "ym2612"
    },
    {
      "channel": 1,
      "note": 49,
      "start": 6.8395,
      "duration": 0.1164,
      "velocity": 107,
      "chip": "ym2612"
    },
    {
      "channel": 3,
      "note": 88,
      "start": 6.8398,
      "duration": 0.1164,
      "velocity": 117,
      "chip": "ym2612"
    },
    {
      "channel": 1,
      "note": 49,
      "start": 6.9561,
      "duration": 0.1167,
      "velocity": 107,
      "chip": "ym2612"
    },
    {
      "channel": 3,
      "note": 90,
      "start": 6.9565,
      "duration": 0.1168,
      "velocity": 117,
      "chip": "ym2612"
    },
    {
      "channel": 1,
      "note": 49,
      "start": 7.0731,
      "duration": 0.0062,
      "velocity": 107,
      "chip": "ym2612"
    },
    {
      "channel": 2,
      "note": 54,
      "start": 7.0733,
      "duration": 0.07,
      "velocity": 92,
      "chip": "ym2612"
    },
    {
      "channel": 3,
      "note": 85,
      "start": 7.0735,
      "duration": 0.006,
      "velocity": 117,
      "chip": "ym2612"
    },
    {
      "channel": 1,
      "note": 49,
      "start": 7.0794,
      "duration": 0.0636,
      "velocity": 107,
      "chip": "ym2612"
    },
    {
      "channel": 3,
      "note": 85,
      "start": 7.0798,
      "duration": 0.0637,
      "velocity": 117,
      "chip": "ym2612"
    },
    {
      "channel": 1,
      "note": 49,
      "start": 7.1432,
      "duration": 0.1164,
      "velocity": 107,
      "chip": "ym2612"
    },
    {
      "channel": 2,
      "note": 55,
      "start": 7.1434,
      "duration": 0.2334,
      "velocity": 92,
      "chip": "ym2612"
    },
    {
      "channel": 3,
      "note": 88,
      "start": 7.1438,
      "duration": 0.1162,
      "velocity": 117,
      "chip": "ym2612"
    },
    {
      "channel": 1,
      "note": 49,
      "start": 7.2598,
      "duration": 0.1168,
      "velocity": 107,
      "chip": "ym2612"
    },
    {
      "channel": 3,
      "note": 90,
      "start": 7.2602,
      "duration": 0.1169,
      "velocity": 117,
      "chip": "ym2612"
    },
    {
      "channel": 0,
      "note": 97,
      "start": 7.3765,
      "duration": 0.674,
      "velocity": 112,
      "chip": "ym2612"
    },
    {
      "channel": 1,
      "note": 49,
      "start": 7.3768,
      "duration": 0.0065,
      "velocity": 107,
      "chip": "ym2612"
    },
    {
      "channel": 2,
      "note": 49,
      "start": 7.377,
      "duration": 0.2036,
      "velocity": 92,
      "chip": "ym2612"
    },
    {
      "channel": 3,
      "note": 85,
      "start": 7.3772,
      "duration": 0.0063,
      "velocity": 117,
      "chip": "ym2612"
    },
    {
      "channel": 1,
      "note": 49,
      "start": 7.3835,
      "duration": 0.0802,
      "velocity": 107,
      "chip": "ym2612"
    },
    {
      "channel": 3,
      "note": 85,
      "start": 7.3838,
      "duration": 0.0802,
      "velocity": 117,
      "chip": "ym2612"
    },
    {
      "channel": 4,
      "note": 97,
      "start": 7.384,
      "duration": 0.6739,
      "velocity": 112,
      "chip": "ym2612"
    },
    {
      "channel": 1,
      "note": 49,
      "start": 7.4639,
      "duration": 0.1164,
      "velocity": 107,
      "chip": "ym2612"
    },
    {
      "channel": 3,
      "note": 88,
      "start": 7.4642,
      "duration": 0.1166,
      "velocity": 117,
      "chip": "ym2612"
    },
    {
      "channel": 1,
      "note": 49,
      "start": 7.5805,
      "duration": 0.1167,
      "velocity": 107,
      "chip": "ym2612"
    },
    {
      "channel": 2,
      "note": 49,
      "start": 7.5807,
      "duration": 0.1867,
      "velocity": 92,
      "chip": "ym2612"
    },
    {
      "channel": 3,
      "note": 90,
      "start": 7.5811,
      "duration": 0.1164,
      "velocity": 117,
      "chip": "ym2612"
    },
    {
      "channel": 1,
      "note": 49,
      "start": 7.6974,
      "duration": 0.0052,
      "velocity": 107,
      "chip": "ym2612"
    },
    {
      "channel": 3,
      "note": 85,
      "start": 7.6977,
      "duration": 0.0052,
      "velocity": 117,
      "chip": "ym2612"
    },
    {
      "channel": 1,
      "note": 49,
      "start": 7.7028,
      "duration": 0.0643,
      "velocity": 107,
      "chip": "ym2612"
    },
    {
      "channel": 3,
      "note": 85,
      "start": 7.703,
      "duration": 0.0647,
      "velocity": 117,
      "chip": "ym2612"
    },
    {
      "channel": 1,
      "note": 49,
      "start": 7.7673,
      "duration": 0.1164,
      "velocity": 107,
      "chip": "ym2612"
    },
    {
      "channel": 2,
      "note": 49,
      "start": 7.7676,
      "duration": 0.2394,
      "velocity": 92,
      "chip": "ym2612"
    },
    {
      "channel": 3,
      "note": 88,
      "start": 7.7679,
      "duration": 0.1162,
      "velocity": 117,
      "chip": "ym2612"
    },
    {
      "channel": 1,
      "note": 49,
      "start": 7.8839,
      "duration": 0.1168,
      "velocity": 107,
      "chip": "ym2612"
    },
    {
      "channel": 3,
      "note": 90,
      "start": 7.8843,
      "duration": 0.1168,
      "velocity": 117,
      "chip": "ym2612"
    },
    {
      "channel": 1,
      "note": 49,
      "start": 8.001,
      "duration": 0.0057,
      "velocity": 107,
      "chip": "ym2612"
    },
    {
      "channel": 3,
      "note": 85,
      "start": 8.0013,
      "duration": 0.0059,
      "velocity": 117,
      "chip": "ym2612"
    },
    {
      "channel": 1,
      "note": 49,
      "start": 8.007,
      "duration": 0.0063,
      "velocity": 107,
      "chip": "ym2612"
    },
    {
      "channel": 2,
      "note": 49,
      "start": 8.0072,
      "duration": 0.0128,
      "velocity": 92,
      "chip": "ym2612"
    },
    {
      "channel": 3,
      "note": 85,
      "start": 8.0074,
      "duration": 0.0062,
      "velocity": 117,
      "chip": "ym2612"
    },
    {
      "channel": 1,
      "note": 49,
      "start": 8.0134,
      "duration": 0.0062,
      "velocity": 107,
      "chip": "ym2612"
    },
    {
      "channel": 3,
      "note": 88,
      "start": 8.0138,
      "duration": 0.0064,
      "velocity": 117,
      "chip": "ym2612"
    },
    {
      "channel": 1,
      "note": 49,
      "start": 8.0199,
      "duration": 0.0057,
      "velocity": 107,
      "chip": "ym2612"
    },
    {
      "channel": 2,
      "note": 49,
      "start": 8.0201,
      "duration": 0.0057,
      "velocity": 92,
      "chip": "ym2612"
    },
    {
      "channel": 3,
      "note": 90,
      "start": 8.0203,
      "duration": 0.0057,
      "velocity": 117,
      "chip": "ym2612"
    },
    {
      "channel": 1,
      "note": 49,
      "start": 8.0258,
      "duration": 0.0063,
      "velocity": 107,
      "chip": "ym2612"
    },
    {
      "channel": 2,
      "note": 47,
      "start": 8.026,
      "duration": 0.0125,
      "velocity": 92,
      "chip": "ym2612"
    },
    {
      "channel": 3,
      "note": 85,
      "start": 8.0262,
      "duration": 0.0061,
      "velocity": 117,
      "chip": "ym2612"
    },
    {
      "channel": 1,
      "note": 49,
      "start": 8.0323,
      "duration": 0.0059,
      "velocity": 107,
      "chip": "ym2612"
    },
    {
      "channel": 3,
      "note": 85,
      "start": 8.0324,
      "duration": 0.0062,
      "velocity": 117,
      "chip": "ym2612"
    },
    {
      "channel": 1,
      "note": 49,
      "start": 8.0384,
      "duration": 0.0061,
      "velocity": 107,
      "chip": "ym2612"
    },
    {
      "channel": 2,
      "note": 48,
      "start": 8.0386,
      "duration": 0.0124,
      "velocity": 92,
      "chip": "ym2612"
    },
    {
      "channel": 3,
      "note": 88,
      "start": 8.0388,
      "duration": 0.006,
      "velocity": 117,
      "chip": "ym2612"
    },
    {
      "channel": 1,
      "note": 49,
      "start": 8.0447,
      "duration": 0.0061,
      "velocity": 107,
      "chip": "ym2612"
    },
    {
      "channel": 3,
      "note": 90,
      "start": 8.045,
      "duration": 0.0064,
      "velocity": 117,
      "chip": "ym2612"
    },
    {
      "channel": 0,
      "note": 97,
      "start": 8.0507,
      "duration": 0.8807,
      "velocity": 112,
      "chip": "ym2612"
    },
    {
      "channel": 1,
      "note": 49,
      "start": 8.0509,
      "duration": 0.0065,
      "velocity": 107,
      "chip": "ym2612"
    },
    {
      "channel": 2,
      "note": 49,
      "start": 8.0513,
      "duration": 0.1868,
      "velocity": 92,
      "chip": "ym2612"
    },
    {
      "channel": 3,
      "note": 85,
      "start": 8.0516,
      "duration": 0.0061,
      "velocity": 117,
      "chip": "ym2612"
    },
    {
      "channel": 1,
      "note": 49,
      "start": 8.0576,
      "duration": 0.0803,
      "velocity": 107,
      "chip": "ym2612"
    },
    {
      "channel": 3,
      "note": 85,
      "start": 8.0578,
      "duration": 0.0804,
      "velocity": 117,
      "chip": "ym2612"
    },
    {
      "channel": 4,
      "note": 97,
      "start": 8.0581,
      "duration": 0.8798,
      "velocity": 112,
      "chip": "ym2612"
    },
    {
      "channel": 1,
      "note": 49,
      "start": 8.1381,
      "duration": 0.0998,
      "velocity": 107,
      "chip": "ym2612"
    },
    {
      "channel": 3,
      "note": 88,
      "start": 8.1384,
      "duration": 0.0999,
      "velocity": 117,
      "chip": "ym2612"
    },
    {
      "channel": 1,
      "note": 49,
      "start": 8.238,
      "duration": 0.1168,
      "velocity": 107,
      "chip": "ym2612"
    },
    {
      "channel": 2,
      "note": 49,
      "start": 8.2383,
      "duration": 0.1289,
      "velocity": 92,
      "chip": "ym2612"
    },
    {
      "channel": 3,
      "note": 90,
      "start": 8.2386,
      "duration": 0.1165,
      "velocity": 117,
      "chip": "ym2612"
    },
    {
      "channel": 1,
      "note": 49,
      "start": 8.355,
      "duration": 0.0058,
      "velocity": 107,
      "chip": "ym2612"
    },
    {
      "channel": 3,
      "note": 85,
      "start": 8.3553,
      "duration": 0.0058,
      "velocity": 117,
      "chip": "ym2612"
    },
    {
      "channel": 1,
      "note": 49,
      "start": 8.361,
      "duration": 0.006,
      "velocity": 107,
      "chip": "ym2612"
    },
    {
      "channel": 3,
      "note": 85,
      "start": 8.3612,
      "duration": 0.0063,
      "velocity": 117,
      "chip": "ym2612"
    },
    {
      "channel": 1,
      "note": 49,
      "start": 8.3671,
      "duration": 0.007,
      "velocity": 107,
      "chip": "ym2612"
    },
    {
      "channel": 2,
      "note": 49,
      "start": 8.3674,
      "duration": 0.1303,
      "velocity": 92,
      "chip": "ym2612"
    },
    {
      "channel": 3,
      "note": 88,
      "start": 8.3677,
      "duration": 0.0067,
      "velocity": 117,
      "chip": "ym2612"
    },
    {
      "channel": 1,
      "note": 49,
      "start": 8.3743,
      "duration": 0.1168,
      "velocity": 107,
      "chip": "ym2612"
    },
    {
      "channel": 3,
      "note": 90,
      "start": 8.3747,
      "duration": 0.1167,
      "velocity": 117,
      "chip": "ym2612"
    },
    {
      "channel": 1,
      "note": 49,
      "start": 8.4913,
      "duration": 0.0062,
      "velocity": 107,
      "chip": "ym2612"
    },
    {
      "channel": 3,
      "note": 85,
      "start": 8.4916,
      "duration": 0.0063,
      "velocity": 117,
      "chip": "ym2612"
    },
    {
      "channel": 1,
      "note": 49,
      "start": 8.4976,
      "duration": 0.0637,
      "velocity": 107,
      "chip": "ym2612"
    },
    {
      "channel": 2,
      "note": 49,
      "start": 8.4978,
      "duration": 0.2973,
      "velocity": 92,
      "chip": "ym2612"
    },
    {
      "channel": 3,
      "note": 85,
      "start": 8.4982,
      "duration": 0.0635,
      "velocity": 117,
      "chip": "ym2612"
    },
    {
      "channel": 1,
      "note": 49,
      "start": 8.5616,
      "duration": 0.1164,
      "velocity": 107,
      "chip": "ym2612"
    },
    {
      "channel": 3,
      "note": 88,
      "start": 8.5619,
      "duration": 0.1164,
      "velocity": 117,
      "chip": "ym2612"
    },
    {
      "channel": 1,
      "note": 49,
      "start": 8.6782,
      "duration": 0.1168,
      "velocity": 107,
      "chip": "ym2612"
    },
    {
      "channel": 3,
      "note": 90,
      "start": 8.6785,
      "duration": 0.1169,
      "velocity": 117,
      "chip": "ym2612"
    },
    {
      "channel": 1,
      "note": 49,
      "start": 8.7951,
      "duration": 0.0059,
      "velocity": 107,
      "chip": "ym2612"
    },
    {
      "channel": 2,
      "note": 54,
      "start": 8.7954,
      "duration": 0.0117,
      "velocity": 92,
      "chip": "ym2612"
    },
    {
      "channel": 3,
      "note": 85,
      "start": 8.7956,
      "duration": 0.0056,
      "velocity": 117,
      "chip": "ym2612"
    },
    {
      "channel": 1,
      "note": 49,
      "start": 8.8012,
      "duration": 0.0057,
      "velocity": 107,
      "chip": "ym2612"
    },
    {
      "channel": 3,
      "note": 85,
      "start": 8.8015,
      "duration": 0.0058,
      "velocity": 117,
      "chip": "ym2612"
    },
    {
      "channel": 1,
      "note": 49,
      "start": 8.807,
      "duration": 0.0073,
      "velocity": 107,
      "chip": "ym2612"
    },
    {
      "channel": 2,
      "note": 55,
      "start": 8.8072,
      "duration": 0.1245,
      "velocity": 92,
      "chip": "ym2612"
    },
    {
      "channel": 3,
      "note": 88,
      "start": 8.8074,
      "duration": 0.0073,
      "velocity": 117,
      "chip": "ym2612"
    },
    {
      "channel": 1,
      "note": 49,
      "start": 8.8146,
      "duration": 0.1168,
      "velocity": 107,
      "chip": "ym2612"
    },
    {
      "channel": 3,
      "note": 90,
      "start": 8.8149,
      "duration": 0.117,
      "velocity": 117,
      "chip": "ym2612"
    },
    {
      "channel": 0,
      "note": 97,
      "start": 8.9313,
      "duration": 0.7684,
      "velocity": 112,
      "chip": "ym2612"
    },
    {
      "channel": 1,
      "note": 49,
      "start": 8.9317,
      "duration": 0.0057,
      "velocity": 107,
      "chip": "ym2612"
    },
    {
      "channel": 2,
      "note": 49,
      "start": 8.9318,
      "duration": 0.1871,
      "velocity": 92,
      "chip": "ym2612"
    },
    {
      "channel": 3,
      "note": 85,
      "start": 8.932,
      "duration": 0.0056,
      "velocity": 117,
      "chip": "ym2612"
    },
    {
      "channel": 1,
      "note": 49,
      "start": 8.9376,
      "duration": 0.0645,
      "velocity": 107,
      "chip": "ym2612"
    },
    {
      "channel": 3,
      "note": 85,
      "start": 8.9378,
      "duration": 0.0646,
      "velocity": 117,
      "chip": "ym2612"
    },
    {
      "channel": 4,
      "note": 97,
      "start": 8.9379,
      "duration": 0.7693,
      "velocity": 112,
      "chip": "ym2612"
    },
    {
      "channel": 1,
      "note": 49,
      "start": 9.0023,
      "duration": 0.1164,
      "velocity": 107,
      "chip": "ym2612"
    },
    {
      "channel": 3,
      "note": 88,
      "start": 9.0026,
      "duration": 0.1166,
      "velocity": 117,
      "chip": "ym2612"
    },
    {
      "channel": 1,
      "note": 49,
      "start": 9.1189,
      "duration": 0.1168,
      "velocity": 107,
      "chip": "ym2612"
    },
    {
      "channel": 2,
      "note": 49,
      "start": 9.1191,
      "duration": 0.1283,
      "velocity": 92,
      "chip": "ym2612"
    },
    {
      "channel": 3,
      "note": 90,
      "start": 9.1194,
      "duration": 0.1165,
      "velocity": 117,
      "chip": "ym2612"
    },
    {
      "channel": 1,
      "note": 49,
      "start": 9.2358,
      "duration": 0.0056,
      "velocity": 107,
      "chip": "ym2612"
    },
    {
      "channel": 3,
      "note": 85,
      "start": 9.2361,
      "duration": 0.0056,
      "velocity": 117,
      "chip": "ym2612"
    },
    {
      "channel": 1,
      "note": 49,
      "start": 9.2416,
      "duration": 0.0057,
      "velocity": 107,
      "chip": "ym2612"
    },
    {
      "channel": 3,
      "note": 85,
      "start": 9.2419,
      "duration": 0.0058,
      "velocity": 117,
      "chip": "ym2612"
    },
    {
      "channel": 1,
      "note": 49,
      "start": 9.2474,
      "duration": 0.0075,
      "velocity": 107,
      "chip": "ym2612"
    },
    {
      "channel": 2,
      "note": 49,
      "start": 9.2476,
      "duration": 0.114,
      "velocity": 92,
      "chip": "ym2612"
    },
    {
      "channel": 3,
      "note": 88,
      "start": 9.2479,
      "duration": 0.0073,
      "velocity": 117,
      "chip": "ym2612"
    },
    {
      "channel": 1,
      "note": 49,
      "start": 9.2551,
      "duration": 0.1001,
      "velocity": 107,
      "chip": "ym2612"
    },
    {
      "channel": 3,
      "note": 90,
      "start": 9.2554,
      "duration": 0.1,
      "velocity": 117,
      "chip": "ym2612"
    },
    {
      "channel": 1,
      "note": 49,
      "start": 9.3554,
      "duration": 0.0059,
      "velocity": 107,
      "chip": "ym2612"
    },
    {
      "channel": 3,
      "note": 85,
      "start": 9.3556,
      "duration": 0.0062,
      "velocity": 117,
      "chip": "ym2612"
    },
    {
      "channel": 1,
      "note": 49,
      "start": 9.3616,
      "duration": 0.0801,
      "velocity": 107,
      "chip": "ym2612"
    },
    {
      "channel": 2,
      "note": 49,
      "start": 9.3618,
      "duration": 0.1968,
      "velocity": 92,
      "chip": "ym2612"
    },
    {
      "channel": 3,
      "note": 85,
      "start": 9.362,
      "duration": 0.08,
      "velocity": 117,
      "chip": "ym2612"
    },
    {
      "channel": 1,
      "note": 49,
      "start": 9.4419,
      "duration": 0.1164,
      "velocity": 107,
      "chip": "ym2612"
    },
    {
      "channel": 3,
      "note": 88,
      "start": 9.4422,
      "duration": 0.1166,
      "velocity": 117,
      "chip": "ym2612"
    },
    {
      "channel": 1,
      "note": 49,
      "start": 9.5585,
      "duration": 0.1168,
      "velocity": 107,
      "chip": "ym2612"
    },
    {
      "channel": 2,
      "note": 49,
      "start": 9.5588,
      "duration": 0.1168,
      "velocity": 92,
      "chip": "ym2612"
    },
    {
      "channel": 3,
      "note": 90,
      "start": 9.5591,
      "duration": 0.1168,
      "velocity": 117,
      "chip": "ym2612"
    },
    {
      "channel": 1,
      "note": 49,
      "start": 9.6755,
      "duration": 0.0059,
      "velocity": 107,
      "chip": "ym2612"
    },
    {
      "channel": 2,
      "note": 55,
      "start": 9.6758,
      "duration": 0.0127,
      "velocity": 92,
      "chip": "ym2612"
    },
    {
      "channel": 3,
      "note": 85,
      "start": 9.6761,
      "duration": 0.0055,
      "velocity": 117,
      "chip": "ym2612"
    },
    {
      "channel": 1,
      "note": 49,
      "start": 9.6815,
      "duration": 0.0067,
      "velocity": 107,
      "chip": "ym2612"
    },
    {
      "channel": 3,
      "note": 85,
      "start": 9.6819,
      "duration": 0.0068,
      "velocity": 117,
      "chip": "ym2612"
    },
    {
      "channel": 1,
      "note": 49,
      "start": 9.6884,
      "duration": 0.0053,
      "velocity": 107,
      "chip": "ym2612"
    },
    {
      "channel": 2,
      "note": 54,
      "start": 9.6886,
      "duration": 0.0115,
      "velocity": 92,
      "chip": "ym2612"
    },
    {
      "channel": 3,
      "note": 88,
      "start": 9.6888,
      "duration": 0.0052,
      "velocity": 117,
      "chip": "ym2612"
    },
    {
      "channel": 1,
      "note": 49,
      "start": 9.6939,
      "duration": 0.0059,
      "velocity": 107,
      "chip": "ym2612"
    },
    {
      "channel": 3,
      "note": 90,
      "start": 9.6942,
      "duration": 0.0063,
      "velocity": 117,
      "chip": "ym2612"
    },
    {
      "channel": 0,
      "note": 97,
      "start": 9.6997,
      "duration": 0.881,
      "velocity": 112,
      "chip": "ym2612"
    },
    {
      "channel": 1,
      "note": 49,
      "start": 9.7,
      "duration": 0.0065,
      "velocity": 107,
      "chip": "ym2612"
    },
    {
      "channel": 2,
      "note": 49,
      "start": 9.7003,
      "duration": 0.2036,
      "velocity": 92,
      "chip": "ym2612"
    },
    {
      "channel": 3,
      "note": 85,
      "start": 9.7006,
      "duration": 0.0061,
      "velocity": 117,
      "chip": "ym2612"
    },
    {
      "channel": 1,
      "note": 49,
      "start": 9.7067,
      "duration": 0.0804,
      "velocity": 107,
      "chip": "ym2612"
    },
    {
      "channel": 3,
      "note": 85,
      "start": 9.707,
      "duration": 0.0804,
      "velocity": 117,
      "chip": "ym2612"
    },
    {
      "channel": 4,
      "note": 97,
      "start": 9.7072,
      "duration": 0.8808,
      "velocity": 112,
      "chip": "ym2612"
    },
    {
      "channel": 1,
      "note": 49,
      "start": 9.7873,
      "duration": 0.1164,
      "velocity": 107,
      "chip": "ym2612"
    },
    {
      "channel": 3,
      "note": 88,
      "start": 9.7876,
      "duration": 0.1167,
      "velocity": 117,
      "chip": "ym2612"
    },
    {
      "channel": 1,
      "note": 49,
      "start": 9.9039,
      "duration": 0.1168,
      "velocity": 107,
      "chip": "ym2612"
    },
    {
      "channel": 2,
      "note": 49,
      "start": 9.9042,
      "duration": 0.128,
      "velocity": 92,
      "chip": "ym2612"
    },
    {
      "channel": 3,
      "note": 90,
      "start": 9.9044,
      "duration": 0.1165,
      "velocity": 117,
      "chip": "ym2612"
    },
    {
      "channel": 1,
      "note": 49,
      "start": 10.0208,
      "duration": 0.0057,
      "velocity": 107,
      "chip": "ym2612"
    },
    {
      "channel": 3,
      "note": 85,
      "start": 10.0211,
      "duration": 0.0056,
      "velocity": 117,
      "chip": "ym2612"
    },
    {
      "channel": 1,
      "note": 49,
      "start": 10.0267,
      "duration": 0.0053,
      "velocity": 107,
      "chip": "ym2612"
    },
    {
      "channel": 3,
      "note": 85,
      "start": 10.0269,
      "duration": 0.0056,
      "velocity": 117,
      "chip": "ym2612"
    },
    {
      "channel": 1,
      "note": 49,
      "start": 10.0322,
      "duration": 0.0062,
      "velocity": 107,
      "chip": "ym2612"
    },
    {
      "channel": 2,
      "note": 49,
      "start": 10.0324,
      "duration": 0.1147,
      "velocity": 92,
      "chip": "ym2612"
    },
    {
      "channel": 3,
      "note": 88,
      "start": 10.0326,
      "duration": 0.0059,
      "velocity": 117,
      "chip": "ym2612"
    },
    {
      "channel": 1,
      "note": 49,
      "start": 10.0385,
      "duration": 0.1021,
      "velocity": 107,
      "chip": "ym2612"
    },
    {
      "channel": 3,
      "note": 90,
      "start": 10.0387,
      "duration": 0.1022,
      "velocity": 117,
      "chip": "ym2612"
    },
    {
      "channel": 1,
      "note": 49,
      "start": 10.1409,
      "duration": 0.0059,
      "velocity": 107,
      "chip": "ym2612"
    },
    {
      "channel": 3,
      "note": 85,
      "start": 10.141,
      "duration": 0.0062,
      "velocity": 117,
      "chip": "ym2612"
    },
    {
      "channel": 1,
      "note": 49,
      "start": 10.147,
      "duration": 0.0803,
      "velocity": 107,
      "chip": "ym2612"
    },
    {
      "channel": 2,
      "note": 49,
      "start": 10.1472,
      "duration": 0.3139,
      "velocity": 92,
      "chip": "ym2612"
    },
    {
      "channel": 3,
      "note": 85,
      "start": 10.1475,
      "duration": 0.0801,
      "velocity": 117,
      "chip": "ym2612"
    },
    {
      "channel": 1,
      "note": 49,
      "start": 10.2275,
      "duration": 0.1164,
      "velocity": 107,
      "chip": "ym2612"
    },
    {
      "channel": 3,
      "note": 88,
      "start": 10.2278,
      "duration": 0.1164,
      "velocity": 117,
      "chip": "ym2612"
    },
    {
      "channel": 1,
      "note": 49,
      "start": 10.3441,
      "duration": 0.1168,
      "velocity": 107,
      "chip": "ym2612"
    },
    {
      "channel": 3,
      "note": 90,
      "start": 10.3444,
      "duration": 0.1169,
      "velocity": 117,
      "chip": "ym2612"
    },
    {
      "channel": 1,
      "note": 49,
      "start": 10.461,
      "duration": 0.005,
      "velocity": 107,
      "chip": "ym2612"
    },
    {
      "channel": 2,
      "note": 54,
      "start": 10.4613,
      "duration": 0.0107,
      "velocity": 92,
      "chip": "ym2612"
    },
    {
      "channel": 3,
      "note": 85,
      "start": 10.4615,
      "duration": 0.0048,
      "velocity": 117,
      "chip": "ym2612"
    },
    {
      "channel": 1,
      "note": 49,
      "start": 10.4662,
      "duration": 0.0055,
      "velocity": 107,
      "chip": "ym2612"
    },
    {
      "channel": 3,
      "note": 85,
      "start": 10.4666,
      "duration": 0.0056,
      "velocity": 117,
      "chip": "ym2612"
    },
    {
      "channel": 1,
      "note": 49,
      "start": 10.4719,
      "duration": 0.0065,
      "velocity": 107,
      "chip": "ym2612"
    },
    {
      "channel": 2,
      "note": 55,
      "start": 10.4721,
      "duration": 0.1089,
      "velocity": 92,
      "chip": "ym2612"
    },
    {
      "channel": 3,
      "note": 88,
      "start": 10.4723,
      "duration": 0.0063,
      "velocity": 117,
      "chip": "ym2612"
    },
    {
      "channel": 1,
      "note": 49,
      "start": 10.4785,
      "duration": 0.1022,
      "velocity": 107,
      "chip": "ym2612"
    },
    {
      "channel": 3,
      "note": 90,
      "start": 10.4787,
      "duration": 0.1025,
      "velocity": 117,
      "chip": "ym2612"
    },
    {
      "channel": 0,
      "note": 97,
      "start": 10.5807,
      "duration": 0.771,
      "velocity": 112,
      "chip": "ym2612"
    },
    {
      "channel": 1,
      "note": 49,
      "start": 10.581,
      "duration": 0.0063,
      "velocity": 107,
      "chip": "ym2612"
    },
    {
      "channel": 2,
      "note": 49,
      "start": 10.5812,
      "duration": 0.2033,
      "velocity": 92,
      "chip": "ym2612"
    },
    {
      "channel": 3,
      "note": 85,
      "start": 10.5814,
      "duration": 0.0061,
      "velocity": 117,
      "chip": "ym2612"
    },
    {
      "channel": 1,
      "note": 49,
      "start": 10.5874,
      "duration": 0.0802,
      "velocity": 107,
      "chip": "ym2612"
    },
    {
      "channel": 3,
      "note": 85,
      "start": 10.5877,
      "duration": 0.0802,
      "velocity": 117,
      "chip": "ym2612"
    },
    {
      "channel": 4,
      "note": 97,
      "start": 10.5879,
      "duration": 0.772,
      "velocity": 112,
      "chip": "ym2612"
    },
    {
      "channel": 1,
      "note": 49,
      "start": 10.6678,
      "duration": 0.1164,
      "velocity": 107,
      "chip": "ym2612"
    },
    {
      "channel": 3,
      "note": 88,
      "start": 10.6682,
      "duration": 0.1166,
      "velocity": 117,
      "chip": "ym2612"
    },
    {
      "channel": 1,
      "note": 49,
      "start": 10.7844,
      "duration": 0.1001,
      "velocity": 107,
      "chip": "ym2612"
    },
    {
      "channel": 2,
      "note": 49,
      "start": 10.7847,
      "duration": 0.1119,
      "velocity": 92,
      "chip": "ym2612"
    },
    {
      "channel": 3,
      "note": 90,
      "start": 10.785,
      "duration": 0.0998,
      "velocity": 117,
      "chip": "ym2612"
    },
    {
      "channel": 1,
      "note": 49,
      "start": 10.8847,
      "duration": 0.0056,
      "velocity": 107,
      "chip": "ym2612"
    },
    {
      "channel": 3,
      "note": 85,
      "start": 10.885,
      "duration": 0.0056,
      "velocity": 117,
      "chip": "ym2612"
    },
    {
      "channel": 1,
      "note": 49,
      "start": 10.8905,
      "duration": 0.0059,
      "velocity": 107,
      "chip": "ym2612"
    },
    {
      "channel": 3,
      "note": 85,
      "start": 10.8908,
      "duration": 0.006,
      "velocity": 117,
      "chip": "ym2612"
    },
    {
      "channel": 1,
      "note": 49,
      "start": 10.8965,
      "duration": 0.0071,
      "velocity": 107,
      "chip": "ym2612"
    },
    {
      "channel": 2,
      "note": 49,
      "start": 10.8968,
      "duration": 0.1304,
      "velocity": 92,
      "chip": "ym2612"
    },
    {
      "channel": 3,
      "note": 88,
      "start": 10.8971,
      "duration": 0.0069,
      "velocity": 117,
      "chip": "ym2612"
    },
    {
      "channel": 1,
      "note": 49,
      "start": 10.9038,
      "duration": 0.1168,
      "velocity": 107,
      "chip": "ym2612"
    },
    {
      "channel": 3,
      "note": 90,
      "start": 10.9042,
      "duration": 0.1168,
      "velocity": 117,
      "chip": "ym2612"
    },
    {
      "channel": 1,
      "note": 49,
      "start": 11.0209,
      "duration": 0.0061,
      "velocity": 107,
      "chip": "ym2612"
    },
    {
      "channel": 3,
      "note": 85,
      "start": 11.0211,
      "duration": 0.0063,
      "velocity": 117,
      "chip": "ym2612"
    },
    {
      "channel": 1,
      "note": 49,
      "start": 11.0271,
      "duration": 0.0804,
      "velocity": 107,
      "chip": "ym2612"
    },
    {
      "channel": 2,
      "note": 49,
      "start": 11.0273,
      "duration": 0.1804,
      "velocity": 92,
      "chip": "ym2612"
    },
    {
      "channel": 3,
      "note": 85,
      "start": 11.0276,
      "duration": 0.0802,
      "velocity": 117,
      "chip": "ym2612"
    },
    {
      "channel": 1,
      "note": 49,
      "start": 11.1078,
      "duration": 0.0998,
      "velocity": 107,
      "chip": "ym2612"
    },
    {
      "channel": 3,
      "note": 88,
      "start": 11.1081,
      "duration": 0.0999,
      "velocity": 117,
      "chip": "ym2612"
    },
    {
      "channel": 1,
      "note": 49,
      "start": 11.2077,
      "duration": 0.1168,
      "velocity": 107,
      "chip": "ym2612"
    },
    {
      "channel": 2,
      "note": 49,
      "start": 11.2079,
      "duration": 0.1168,
      "velocity": 92,
      "chip": "ym2612"
    },
    {
      "channel": 3,
      "note": 90,
      "start": 11.2083,
      "duration": 0.1167,
      "velocity": 117,
      "chip": "ym2612"
    },
    {
      "channel": 1,
      "note": 49,
      "start": 11.3246,
      "duration": 0.0058,
      "velocity": 107,
      "chip": "ym2612"
    },
    {
      "channel": 2,
      "note": 47,
      "start": 11.3249,
      "duration": 0.0131,
      "velocity": 92,
      "chip": "ym2612"
    },
    {
      "channel": 3,
      "note": 85,
      "start": 11.3252,
      "duration": 0.0055,
      "velocity": 117,
      "chip": "ym2612"
    },
    {
      "channel": 1,
      "note": 49,
      "start": 11.3306,
      "duration": 0.0071,
      "velocity": 107,
      "chip": "ym2612"
    },
    {
      "channel": 3,
      "note": 85,
      "start": 11.331,
      "duration": 0.0073,
      "velocity": 117,
      "chip": "ym2612"
    },
    {
      "channel": 1,
      "note": 49,
      "start": 11.338,
      "duration": 0.0069,
      "velocity": 107,
      "chip": "ym2612"
    },
    {
      "channel": 2,
      "note": 48,
      "start": 11.3382,
      "duration": 0.0152,
      "velocity": 118,
      "chip": "ym2612"
    },
    {
      "channel": 3,
      "note": 88,
      "start": 11.3385,
      "duration": 0.0067,
      "velocity": 117,
      "chip": "ym2612"
    },
    {
      "channel": 1,
      "note": 49,
      "start": 11.3451,
      "duration": 0.0071,
      "velocity": 107,
      "chip": "ym2612"
    },
    {
      "channel": 3,
      "note": 90,
      "start": 11.3454,
      "duration": 0.0082,
      "velocity": 117,
      "chip": "ym2612"
    },
    {
      "channel": 0,
      "note": 73,
      "start": 11.3519,
      "duration": 0.8585,
      "velocity": 112,
      "chip": "ym2612"
    },
    {
      "channel": 1,
      "note": 49,
      "start": 11.3525,
      "duration": 0.0064,
      "velocity": 107,
      "chip": "ym2612"
    },
    {
      "channel": 1,
      "note": 49,
      "start": 11.3592,
      "duration": 0.062,
      "velocity": 107,
      "chip": "ym2612"
    },
    {
      "channel": 4,
      "note": 73,
      "start": 11.3602,
      "duration": 0.8588,
      "velocity": 112,
      "chip": "ym2612"
    },
    {
      "channel": 1,
      "note": 49,
      "start": 11.4213,
      "duration": 0.1164,
      "velocity": 107,
      "chip": "ym2612"
    },
    {
      "channel": 1,
      "note": 49,
      "start": 11.5379,
      "duration": 0.1168,
      "velocity": 107,
      "chip": "ym2612"
    },
    {
      "channel": 1,
      "note": 49,
      "start": 11.6549,
      "duration": 0.0051,
      "velocity": 107,
      "chip": "ym2612"
    },
    {
      "channel": 1,
      "note": 49,
      "start": 11.6602,
      "duration": 0.0048,
      "velocity": 107,
      "chip": "ym2612"
    },
    {
      "channel": 1,
      "note": 49,
      "start": 11.6652,
      "duration": 0.0073,
      "velocity": 107,
      "chip": "ym2612"
    },
    {
      "channel": 1,
      "note": 49,
      "start": 11.6727,
      "duration": 0.1168,
      "velocity": 107,
      "chip": "ym2612"
    },
    {
      "channel": 1,
      "note": 49,
      "start": 11.7897,
      "duration": 0.0042,
      "velocity": 107,
      "chip": "ym2612"
    },
    {
      "channel": 1,
      "note": 49,
      "start": 11.7941,
      "duration": 0.0645,
      "velocity": 107,
      "chip": "ym2612"
    },
    {
      "channel": 1,
      "note": 49,
      "start": 11.8588,
      "duration": 0.1164,
      "velocity": 107,
      "chip": "ym2612"
    },
    {
      "channel": 1,
      "note": 49,
      "start": 11.9754,
      "duration": 0.1168,
      "velocity": 107,
      "chip": "ym2612"
    },
    {
      "channel": 1,
      "note": 49,
      "start": 12.0924,
      "duration": 0.0051,
      "velocity": 107,
      "chip": "ym2612"
    },
    {
      "channel": 1,
      "note": 49,
      "start": 12.0977,
      "duration": 0.0048,
      "velocity": 107,
      "chip": "ym2612"
    },
    {
      "channel": 1,
      "note": 49,
      "start": 12.1027,
      "duration": 0.0074,
      "velocity": 107,
      "chip": "ym2612"
    },
    {
      "channel": 1,
      "note": 49,
      "start": 12.1103,
      "duration": 0.1002,
      "velocity": 107,
      "chip": "ym2612"
    },
    {
      "channel": 0,
      "note": 73,
      "start": 12.2104,
      "duration": 0.7629,
      "velocity": 112,
      "chip": "ym2612"
    },
    {
      "channel": 1,
      "note": 49,
      "start": 12.2107,
      "duration": 0.0078,
      "velocity": 107,
      "chip": "ym2612"
    },
    {
      "channel": 2,
      "note": 73,
      "start": 12.211,
      "duration": 0.7898,
      "velocity": 118,
      "chip": "ym2612"
    },
    {
      "channel": 3,
      "note": 73,
      "start": 12.2168,
      "duration": 0.7895,
      "velocity": 118,
      "chip": "ym2612"
    },
    {
      "channel": 1,
      "note": 49,
      "start": 12.2186,
      "duration": 0.0794,
      "velocity": 107,
      "chip": "ym2612"
    },
    {
      "channel": 4,
      "note": 73,
      "start": 12.219,
      "duration": 0.7618,
      "velocity": 112,
      "chip": "ym2612"
    },
    {
      "channel": 1,
      "note": 49,
      "start": 12.2983,
      "duration": 0.1164,
      "velocity": 107,
      "chip": "ym2612"
    },
    {
      "channel": 1,
      "note": 49,
      "start": 12.4149,
      "duration": 0.1168,
      "velocity": 107,
      "chip": "ym2612"
    },
    {
      "channel": 1,
      "note": 49,
      "start": 12.5318,
      "duration": 0.0062,
      "velocity": 107,
      "chip": "ym2612"
    },
    {
      "channel": 1,
      "note": 49,
      "start": 12.5382,
      "duration": 0.0066,
      "velocity": 107,
      "chip": "ym2612"
    },
    {
      "channel": 1,
      "note": 49,
      "start": 12.545,
      "duration": 0.0058,
      "velocity": 107,
      "chip": "ym2612"
    },
    {
      "channel": 1,
      "note": 49,
      "start": 12.551,
      "duration": 0.1015,
      "velocity": 107,
      "chip": "ym2612"
    },
    {
      "channel": 1,
      "note": 49,
      "start": 12.6528,
      "duration": 0.007,
      "velocity": 107,
      "chip": "ym2612"
    },
    {
      "channel": 1,
      "note": 49,
      "start": 12.6599,
      "duration": 0.0801,
      "velocity": 107,
      "chip": "ym2612"
    },
    {
      "channel": 1,
      "note": 49,
      "start": 12.7402,
      "duration": 0.1164,
      "velocity": 107,
      "chip": "ym2612"
    },
    {
      "channel": 1,
      "note": 49,
      "start": 12.8568,
      "duration": 0.1169,
      "velocity": 107,
      "chip": "ym2612"
    },
    {
      "channel": 0,
      "note": 75,
      "start": 12.9736,
      "duration": 0.0264,
      "velocity": 112,
      "chip": "ym2612"
    },
    {
      "channel": 1,
      "note": 49,
      "start": 12.9738,
      "duration": 0.0066,
      "velocity": 107,
      "chip": "ym2612"
    },
    {
      "channel": 1,
      "note": 49,
      "start": 12.9805,
      "duration": 0.0059,
      "velocity": 107,
      "chip": "ym2612"
    },
    {
      "channel": 4,
      "note": 75,
      "start": 12.981,
      "duration": 0.0279,
      "velocity": 112,
      "chip": "ym2612"
    },
    {
      "channel": 1,
      "note": 49,
      "start": 12.9866,
      "duration": 0.0066,
      "velocity": 107,
      "chip": "ym2612"
    },
    {
      "channel": 1,
      "note": 49,
      "start": 12.9934,
      "duration": 0.007,
      "velocity": 107,
      "chip": "ym2612"
    },
    {
      "channel": 0,
      "note": 76,
      "start": 13.0003,
      "duration": 0.8843,
      "velocity": 112,
      "chip": "ym2612"
    },
    {
      "channel": 1,
      "note": 49,
      "start": 13.0007,
      "duration": 0.0077,
      "velocity": 107,
      "chip": "ym2612"
    },
    {
      "channel": 2,
      "note": 73,
      "start": 13.0008,
      "duration": 0.7463,
      "velocity": 118,
      "chip": "ym2612"
    },
    {
      "channel": 3,
      "note": 73,
      "start": 13.0064,
      "duration": 0.7456,
      "velocity": 118,
      "chip": "ym2612"
    },
    {
      "channel": 1,
      "note": 49,
      "start": 13.0086,
      "duration": 0.08,
      "velocity": 107,
      "chip": "ym2612"
    },
    {
      "channel": 4,
      "note": 76,
      "start": 13.0091,
      "duration": 0.884,
      "velocity": 112,
      "chip": "ym2612"
    },
    {
      "channel": 1,
      "note": 49,
      "start": 13.0888,
      "duration": 0.1164,
      "velocity": 107,
      "chip": "ym2612"
    },
    {
      "channel": 1,
      "note": 49,
      "start": 13.2054,
      "duration": 0.1168,
      "velocity": 107,
      "chip": "ym2612"
    },
    {
      "channel": 1,
      "note": 49,
      "start": 13.3224,
      "duration": 0.0056,
      "velocity": 107,
      "chip": "ym2612"
    },
    {
      "channel": 1,
      "note": 49,
      "start": 13.3281,
      "duration": 0.0063,
      "velocity": 107,
      "chip": "ym2612"
    },
    {
      "channel": 1,
      "note": 49,
      "start": 13.3346,
      "duration": 0.0066,
      "velocity": 107,
      "chip": "ym2612"
    },
    {
      "channel": 1,
      "note": 49,
      "start": 13.3413,
      "duration": 0.1015,
      "velocity": 107,
      "chip": "ym2612"
    },
    {
      "channel": 1,
      "note": 49,
      "start": 13.4431,
      "duration": 0.0069,
      "velocity": 107,
      "chip": "ym2612"
    },
    {
      "channel": 1,
      "note": 49,
      "start": 13.4502,
      "duration": 0.0798,
      "velocity": 107,
      "chip": "ym2612"
    },
    {
      "channel": 1,
      "note": 49,
      "start": 13.5301,
      "duration": 0.1164,
      "velocity": 107,
      "chip": "ym2612"
    },
    {
      "channel": 1,
      "note": 49,
      "start": 13.6467,
      "duration": 0.1001,
      "velocity": 107,
      "chip": "ym2612"
    },
    {
      "channel": 1,
      "note": 49,
      "start": 13.747,
      "duration": 0.0068,
      "velocity": 107,
      "chip": "ym2612"
    },
    {
      "channel": 2,
      "note": 75,
      "start": 13.7473,
      "duration": 0.1377,
      "velocity": 118,
      "chip": "ym2612"
    },
    {
      "channel": 3,
      "note": 75,
      "start": 13.7522,
      "duration": 0.1376,
      "velocity": 118,
      "chip": "ym2612"
    },
    {
      "channel": 1,
      "note": 49,
      "start": 13.754,
      "duration": 0.0066,
      "velocity": 107,
      "chip": "ym2612"
    },
    {
      "channel": 1,
      "note": 49,
      "start": 13.7608,
      "duration": 0.0068,
      "velocity": 107,
      "chip": "ym2612"
    },
    {
      "channel": 1,
      "note": 49,
      "start": 13.7678,
      "duration": 0.1169,
      "velocity": 107,
      "chip": "ym2612"
    },
    {
      "channel": 0,
      "note": 76,
      "start": 13.8846,
      "duration": 0.7464,
      "velocity": 112,
      "chip": "ym2612"
    },
    {
      "channel": 1,
      "note": 49,
      "start": 13.8849,
      "duration": 0.0077,
      "velocity": 107,
      "chip": "ym2612"
    },
    {
      "channel": 2,
      "note": 76,
      "start": 13.8852,
      "duration": 0.7744,
      "velocity": 118,
      "chip": "ym2612"
    },
    {
      "channel": 3,
      "note": 76,
      "start": 13.89,
      "duration": 0.774,
      "velocity": 118,
      "chip": "ym2612"
    },
    {
      "channel": 1,
      "note": 49,
      "start": 13.8928,
      "duration": 0.0798,
      "velocity": 107,
      "chip": "ym2612"
    },
    {
      "channel": 4,
      "note": 76,
      "start": 13.8931,
      "duration": 0.7451,
      "velocity": 112,
      "chip": "ym2612"
    },
    {
      "channel": 1,
      "note": 49,
      "start": 13.9728,
      "duration": 0.0998,
      "velocity": 107,
      "chip": "ym2612"
    },
    {
      "channel": 1,
      "note": 49,
      "start": 14.0728,
      "duration": 0.1168,
      "velocity": 107,
      "chip": "ym2612"
    },
    {
      "channel": 1,
      "note": 49,
      "start": 14.1897,
      "duration": 0.0065,
      "velocity": 107,
      "chip": "ym2612"
    },
    {
      "channel": 1,
      "note": 49,
      "start": 14.1964,
      "duration": 0.0067,
      "velocity": 107,
      "chip": "ym2612"
    },
    {
      "channel": 1,
      "note": 49,
      "start": 14.2032,
      "duration": 0.0065,
      "velocity": 107,
      "chip": "ym2612"
    },
    {
      "channel": 1,
      "note": 49,
      "start": 14.2099,
      "duration": 0.1168,
      "velocity": 107,
      "chip": "ym2612"
    },
    {
      "channel": 1,
      "note": 49,
      "start": 14.3269,
      "duration": 0.0072,
      "velocity": 107,
      "chip": "ym2612"
    },
    {
      "channel": 1,
      "note": 49,
      "start": 14.3342,
      "duration": 0.0634,
      "velocity": 107,
      "chip": "ym2612"
    },
    {
      "channel": 1,
      "note": 49,
      "start": 14.3978,
      "duration": 0.1164,
      "velocity": 107,
      "chip": "ym2612"
    },
    {
      "channel": 1,
      "note": 49,
      "start": 14.5144,
      "duration": 0.117,
      "velocity": 107,
      "chip": "ym2612"
    },
    {
      "channel": 0,
      "note": 80,
      "start": 14.6312,
      "duration": 0.0275,
      "velocity": 112,
      "chip": "ym2612"
    },
    {
      "channel": 1,
      "note": 49,
      "start": 14.6315,
      "duration": 0.0063,
      "velocity": 107,
      "chip": "ym2612"
    },
    {
      "channel": 1,
      "note": 49,
      "start": 14.638,
      "duration": 0.0072,
      "velocity": 107,
      "chip": "ym2612"
    },
    {
      "channel": 4,
      "note": 80,
      "start": 14.6384,
      "duration": 0.0278,
      "velocity": 112,
      "chip": "ym2612"
    },
    {
      "channel": 1,
      "note": 49,
      "start": 14.6453,
      "duration": 0.0065,
      "velocity": 107,
      "chip": "ym2612"
    },
    {
      "channel": 1,
      "note": 49,
      "start": 14.652,
      "duration": 0.0072,
      "velocity": 107,
      "chip": "ym2612"
    },
    {
      "channel": 0,
      "note": 78,
      "start": 14.659,
      "duration": 0.8674,
      "velocity": 112,
      "chip": "ym2612"
    },
    {
      "channel": 1,
      "note": 50,
      "start": 14.6594,
      "duration": 0.0063,
      "velocity": 107,
      "chip": "ym2612"
    },
    {
      "channel": 2,
      "note": 76,
      "start": 14.6596,
      "duration": 0.7461,
      "velocity": 118,
      "chip": "ym2612"
    },
    {
      "channel": 3,
      "note": 76,
      "start": 14.664,
      "duration": 0.746,
      "velocity": 118,
      "chip": "ym2612"
    },
    {
      "channel": 1,
      "note": 50,
      "start": 14.6659,
      "duration": 0.0648,
      "velocity": 107,
      "chip": "ym2612"
    },
    {
      "channel": 4,
      "note": 78,
      "start": 14.6664,
      "duration": 0.8684,
      "velocity": 112,
      "chip": "ym2612"
    },
    {
      "channel": 1,
      "note": 50,
      "start": 14.7308,
      "duration": 0.1165,
      "velocity": 107,
      "chip": "ym2612"
    },
    {
      "channel": 1,
      "note": 50,
      "start": 14.8475,
      "duration": 0.1168,
      "velocity": 107,
      "chip": "ym2612"
    },
    {
      "channel": 1,
      "note": 50,
      "start": 14.9645,
      "duration": 0.0065,
      "velocity": 107,
      "chip": "ym2612"
    },
    {
      "channel": 1,
      "note": 50,
      "start": 14.9711,
      "duration": 0.0067,
      "velocity": 107,
      "chip": "ym2612"
    },
    {
      "channel": 1,
      "note": 50,
      "start": 14.9779,
      "duration": 0.0068,
      "velocity": 107,
      "chip": "ym2612"
    },
    {
      "channel": 1,
      "note": 50,
      "start": 14.985,
      "duration": 0.1001,
      "velocity": 107,
      "chip": "ym2612"
    },
    {
      "channel": 1,
      "note": 50,
      "start": 15.0853,
      "duration": 0.0066,
      "velocity": 107,
      "chip": "ym2612"
    },
    {
      "channel": 1,
      "note": 50,
      "start": 15.0921,
      "duration": 0.0797,
      "velocity": 107,
      "chip": "ym2612"
    },
    {
      "channel": 1,
      "note": 50,
      "start": 15.1719,
      "duration": 0.1165,
      "velocity": 107,
      "chip": "ym2612"
    },
    {
      "channel": 1,
      "note": 50,
      "start": 15.2886,
      "duration": 0.1168,
      "velocity": 107,
      "chip": "ym2612"
    },
    {
      "channel": 1,
      "note": 50,
      "start": 15.4056,
      "duration": 0.007,
      "velocity": 107,
      "chip": "ym2612"
    },
    {
      "channel": 2,
      "note": 80,
      "start": 15.4058,
      "duration": 0.121,
      "velocity": 118,
      "chip": "ym2612"
    },
    {
      "channel": 3,
      "note": 80,
      "start": 15.4101,
      "duration": 0.1222,
      "velocity": 118,
      "chip": "ym2612"
    },
    {
      "channel": 1,
      "note": 50,
      "start": 15.4127,
      "duration": 0.0064,
      "velocity": 107,
      "chip": "ym2612"
    },
    {
      "channel": 1,
      "note": 50,
      "start": 15.4192,
      "duration": 0.0056,
      "velocity": 107,
      "chip": "ym2612"
    },
    {
      "channel": 1,
      "note": 50,
      "start": 15.4251,
      "duration": 0.1015,
      "velocity": 107,
      "chip": "ym2612"
    },
    {
      "channel": 0,
      "note": 78,
      "start": 15.5265,
      "duration": 0.7891,
      "velocity": 112,
      "chip": "ym2612"
    },
    {
      "channel": 1,
      "note": 50,
      "start": 15.5267,
      "duration": 0.0074,
      "velocity": 107,
      "chip": "ym2612"
    },
    {
      "channel": 2,
      "note": 78,
      "start": 15.527,
      "duration": 0.7891,
      "velocity": 118,
      "chip": "ym2612"
    },
    {
      "channel": 3,
      "note": 78,
      "start": 15.5325,
      "duration": 0.7889,
      "velocity": 118,
      "chip": "ym2612"
    },
    {
      "channel": 1,
      "note": 50,
      "start": 15.5343,
      "duration": 0.0799,
      "velocity": 107,
      "chip": "ym2612"
    },
    {
      "channel": 4,
      "note": 78,
      "start": 15.5348,
      "duration": 0.7886,
      "velocity": 112,
      "chip": "ym2612"
    },
    {
      "channel": 1,
      "note": 50,
      "start": 15.6144,
      "duration": 0.1165,
      "velocity": 107,
      "chip": "ym2612"
    },
    {
      "channel": 1,
      "note": 50,
      "start": 15.7311,
      "duration": 0.1167,
      "velocity": 107,
      "chip": "ym2612"
    },
    {
      "channel": 1,
      "note": 50,
      "start": 15.8481,
      "duration": 0.0064,
      "velocity": 107,
      "chip": "ym2612"
    },
    {
      "channel": 1,
      "note": 50,
      "start": 15.8547,
      "duration": 0.0058,
      "velocity": 107,
      "chip": "ym2612"
    },
    {
      "channel": 1,
      "note": 50,
      "start": 15.8606,
      "duration": 0.0065,
      "velocity": 107,
      "chip": "ym2612"
    },
    {
      "channel": 1,
      "note": 50,
      "start": 15.8673,
      "duration": 0.1014,
      "velocity": 107,
      "chip": "ym2612"
    },
    {
      "channel": 1,
      "note": 50,
      "start": 15.9689,
      "duration": 0.0067,
      "velocity": 107,
      "chip": "ym2612"
    },
    {
      "channel": 1,
      "note": 50,
      "start": 15.9758,
      "duration": 0.0798,
      "velocity": 107,
      "chip": "ym2612"
    },
    {
      "channel": 1,
      "note": 50,
      "start": 16.0557,
      "duration": 0.1165,
      "velocity": 107,
      "chip": "ym2612"
    },
    {
      "channel": 1,
      "note": 50,
      "start": 16.1724,
      "duration": 0.1168,
      "velocity": 107,
      "chip": "ym2612"
    },
    {
      "channel": 1,
      "note": 50,
      "start": 16.2894,
      "duration": 0.0056,
      "velocity": 107,
      "chip": "ym2612"
    },
    {
      "channel": 1,
      "note": 50,
      "start": 16.2952,
      "duration": 0.0066,
      "velocity": 107,
      "chip": "ym2612"
    },
    {
      "channel": 1,
      "note": 50,
      "start": 16.3021,
      "duration": 0.0068,
      "velocity": 107,
      "chip": "ym2612"
    },
    {
      "channel": 1,
      "note": 50,
      "start": 16.3091,
      "duration": 0.0067,
      "velocity": 107,
      "chip": "ym2612"
    },
    {
      "channel": 0,
      "note": 74,
      "start": 16.3157,
      "duration": 0.8824,
      "velocity": 112,
      "chip": "ym2612"
    },
    {
      "channel": 1,
      "note": 50,
      "start": 16.316,
      "duration": 0.0071,
      "velocity": 107,
      "chip": "ym2612"
    },
    {
      "channel": 2,
      "note": 78,
      "start": 16.3161,
      "duration": 0.8824,
      "velocity": 118,
      "chip": "ym2612"
    },
    {
      "channel": 3,
      "note": 78,
      "start": 16.3214,
      "duration": 0.8822,
      "velocity": 118,
      "chip": "ym2612"
    },
    {
      "channel": 1,
      "note": 50,
      "start": 16.3232,
      "duration": 0.0798,
      "velocity": 107,
      "chip": "ym2612"
    },
    {
      "channel": 4,
      "note": 74,
      "start": 16.3236,
      "duration": 0.8835,
      "velocity": 112,
      "chip": "ym2612"
    },
    {
      "channel": 1,
      "note": 50,
      "start": 16.4032,
      "duration": 0.1165,
      "velocity": 107,
      "chip": "ym2612"
    },
    {
      "channel": 1,
      "note": 50,
      "start": 16.5199,
      "duration": 0.1002,
      "velocity": 107,
      "chip": "ym2612"
    },
    {
      "channel": 1,
      "note": 50,
      "start": 16.6202,
      "duration": 0.0065,
      "velocity": 107,
      "chip": "ym2612"
    },
    {
      "channel": 1,
      "note": 50,
      "start": 16.6268,
      "duration": 0.0066,
      "velocity": 107,
      "chip": "ym2612"
    },
    {
      "channel": 1,
      "note": 50,
      "start": 16.6335,
      "duration": 0.0069,
      "velocity": 107,
      "chip": "ym2612"
    },
    {
      "channel": 1,
      "note": 50,
      "start": 16.6406,
      "duration": 0.1168,
      "velocity": 107,
      "chip": "ym2612"
    },
    {
      "channel": 1,
      "note": 50,
      "start": 16.7576,
      "duration": 0.0069,
      "velocity": 107,
      "chip": "ym2612"
    },
    {
      "channel": 1,
      "note": 50,
      "start": 16.7647,
      "duration": 0.0798,
      "velocity": 107,
      "chip": "ym2612"
    },
    {
      "channel": 1,
      "note": 50,
      "start": 16.8447,
      "duration": 0.0998,
      "velocity": 107,
      "chip": "ym2612"
    },
    {
      "channel": 1,
      "note": 50,
      "start": 16.9447,
      "duration": 0.1168,
      "velocity": 107,
      "chip": "ym2612"
    },
    {
      "channel": 1,
      "note": 50,
      "start": 17.0616,
      "duration": 0.0066,
      "velocity": 107,
      "chip": "ym2612"
    },
    {
      "channel": 1,
      "note": 50,
      "start": 17.0684,
      "duration": 0.0062,
      "velocity": 107,
      "chip": "ym2612"
    },
    {
      "channel": 1,
      "note": 50,
      "start": 17.0749,
      "duration": 0.0064,
      "velocity": 107,
      "chip": "ym2612"
    },
    {
      "channel": 1,
      "note": 50,
      "start": 17.0814,
      "duration": 0.1168,
      "velocity": 107,
      "chip": "ym2612"
    },
    {
      "channel": 0,
      "note": 74,
      "start": 17.1982,
      "duration": 0.7734,
      "velocity": 112,
      "chip": "ym2612"
    },
    {
      "channel": 1,
      "note": 50,
      "start": 17.1984,
      "duration": 0.0082,
      "velocity": 107,
      "chip": "ym2612"
    },
    {
      "channel": 2,
      "note": 74,
      "start": 17.1987,
      "duration": 0.7743,
      "velocity": 92,
      "chip": "ym2612"
    },
    {
      "channel": 3,
      "note": 74,
      "start": 17.2038,
      "duration": 0.4375,
      "velocity": 117,
      "chip": "ym2612"
    },
    {
      "channel": 1,
      "note": 50,
      "start": 17.2067,
      "duration": 0.0632,
      "velocity": 107,
      "chip": "ym2612"
    },
    {
      "channel": 4,
      "note": 74,
      "start": 17.2071,
      "duration": 0.7744,
      "velocity": 112,
      "chip": "ym2612"
    },
    {
      "channel": 1,
      "note": 50,
      "start": 17.2701,
      "duration": 0.1165,
      "velocity": 107,
      "chip": "ym2612"
    },
    {
      "channel": 1,
      "note": 50,
      "start": 17.3868,
      "duration": 0.1167,
      "velocity": 107,
      "chip": "ym2612"
    },
    {
      "channel": 1,
      "note": 50,
      "start": 17.5037,
      "duration": 0.0063,
      "velocity": 107,
      "chip": "ym2612"
    },
    {
      "channel": 1,
      "note": 50,
      "start": 17.5102,
      "duration": 0.0064,
      "velocity": 107,
      "chip": "ym2612"
    },
    {
      "channel": 1,
      "note": 50,
      "start": 17.5168,
      "duration": 0.0063,
      "velocity": 107,
      "chip": "ym2612"
    },
    {
      "channel": 1,
      "note": 50,
      "start": 17.5232,
      "duration": 0.1168,
      "velocity": 107,
      "chip": "ym2612"
    },
    {
      "channel": 1,
      "note": 50,
      "start": 17.6403,
      "duration": 0.0073,
      "velocity": 107,
      "chip": "ym2612"
    },
    {
      "channel": 3,
      "note": 93,
      "start": 17.6416,
      "duration": 0.0064,
      "velocity": 117,
      "chip": "ym2612"
    },
    {
      "channel": 1,
      "note": 50,
      "start": 17.6478,
      "duration": 0.0632,
      "velocity": 107,
      "chip": "ym2612"
    },
    {
      "channel": 3,
      "note": 88,
      "start": 17.6481,
      "duration": 0.0633,
      "velocity": 117,
      "chip": "ym2612"
    },
    {
      "channel": 1,
      "note": 50,
      "start": 17.7112,
      "duration": 0.1165,
      "velocity": 107,
      "chip": "ym2612"
    },
    {
      "channel": 3,
      "note": 83,
      "start": 17.7116,
      "duration": 0.1165,
      "velocity": 117,
      "chip": "ym2612"
    },
    {
      "channel": 1,
      "note": 50,
      "start": 17.8278,
      "duration": 0.1168,
      "velocity": 107,
      "chip": "ym2612"
    },
    {
      "channel": 3,
      "note": 76,
      "start": 17.8283,
      "duration": 0.1167,
      "velocity": 117,
      "chip": "ym2612"
    },
    {
      "channel": 1,
      "note": 50,
      "start": 17.9449,
      "duration": 0.0066,
      "velocity": 107,
      "chip": "ym2612"
    },
    {
      "channel": 3,
      "note": 71,
      "start": 17.9452,
      "duration": 0.0066,
      "velocity": 117,
      "chip": "ym2612"
    },
    {
      "channel": 1,
      "note": 50,
      "start": 17.9517,
      "duration": 0.0068,
      "velocity": 107,
      "chip": "ym2612"
    },
    {
      "channel": 3,
      "note": 68,
      "start": 17.952,
      "duration": 0.0068,
      "velocity": 117,
      "chip": "ym2612"
    },
    {
      "channel": 1,
      "note": 50,
      "start": 17.9587,
      "duration": 0.0067,
      "velocity": 107,
      "chip": "ym2612"
    },
    {
      "channel": 3,
      "note": 59,
      "start": 17.959,
      "duration": 0.0068,
      "velocity": 117,
      "chip": "ym2612"
    },
    {
      "channel": 1,
      "note": 50,
      "start": 17.9656,
      "duration": 0.0064,
      "velocity": 107,
      "chip": "ym2612"
    },
    {
      "channel": 3,
      "note": 54,
      "start": 17.9659,
      "duration": 0.0074,
      "velocity": 117,
      "chip": "ym2612"
    },
    {
      "channel": 0,
      "note": 85,
      "start": 17.9719,
      "duration": 0.8818,
      "velocity": 112,
      "chip": "ym2612"
    },
    {
      "channel": 1,
      "note": 49,
      "start": 17.9722,
      "duration": 0.009,
      "velocity": 107,
      "chip": "ym2612"
    },
    {
      "channel": 2,
      "note": 49,
      "start": 17.9733,
      "duration": 0.2044,
      "velocity": 92,
      "chip": "ym2612"
    },
    {
      "channel": 1,
      "note": 49,
      "start": 17.9813,
      "duration": 0.0795,
      "velocity": 107,
      "chip": "ym2612"
    },
    {
      "channel": 4,
      "note": 85,
      "start": 17.9816,
      "duration": 0.8814,
      "velocity": 112,
      "chip": "ym2612"
    },
    {
      "channel": 1,
      "note": 49,
      "start": 18.061,
      "duration": 0.1164,
      "velocity": 107,
      "chip": "ym2612"
    },
    {
      "channel": 1,
      "note": 49,
      "start": 18.1776,
      "duration": 0.1168,
      "velocity": 107,
      "chip": "ym2612"
    },
    {
      "channel": 2,
      "note": 49,
      "start": 18.1779,
      "duration": 0.1282,
      "velocity": 92,
      "chip": "ym2612"
    },
    {
      "channel": 1,
      "note": 49,
      "start": 18.2946,
      "duration": 0.0053,
      "velocity": 107,
      "chip": "ym2612"
    },
    {
      "channel": 1,
      "note": 49,
      "start": 18.3,
      "duration": 0.006,
      "velocity": 107,
      "chip": "ym2612"
    },
    {
      "channel": 1,
      "note": 49,
      "start": 18.3061,
      "duration": 0.005,
      "velocity": 107,
      "chip": "ym2612"
    },
    {
      "channel": 2,
      "note": 49,
      "start": 18.3063,
      "duration": 0.1138,
      "velocity": 92,
      "chip": "ym2612"
    },
    {
      "channel": 1,
      "note": 49,
      "start": 18.3113,
      "duration": 0.1025,
      "velocity": 107,
      "chip": "ym2612"
    },
    {
      "channel": 1,
      "note": 49,
      "start": 18.4141,
      "duration": 0.0059,
      "velocity": 107,
      "chip": "ym2612"
    },
    {
      "channel": 1,
      "note": 49,
      "start": 18.4201,
      "duration": 0.0805,
      "velocity": 107,
      "chip": "ym2612"
    },
    {
      "channel": 2,
      "note": 49,
      "start": 18.4204,
      "duration": 0.314,
      "velocity": 92,
      "chip": "ym2612"
    },
    {
      "channel": 1,
      "note": 49,
      "start": 18.5008,
      "duration": 0.1164,
      "velocity": 107,
      "chip": "ym2612"
    },
    {
      "channel": 1,
      "note": 49,
      "start": 18.6174,
      "duration": 0.1168,
      "velocity": 107,
      "chip": "ym2612"
    },
    {
      "channel": 1,
      "note": 49,
      "start": 18.7343,
      "duration": 0.0057,
      "velocity": 107,
      "chip": "ym2612"
    },
    {
      "channel": 2,
      "note": 54,
      "start": 18.7346,
      "duration": 0.0108,
      "velocity": 92,
      "chip": "ym2612"
    },
    {
      "channel": 1,
      "note": 49,
      "start": 18.7403,
      "duration": 0.0049,
      "velocity": 107,
      "chip": "ym2612"
    },
    {
      "channel": 1,
      "note": 49,
      "start": 18.7453,
      "duration": 0.0057,
      "velocity": 107,
      "chip": "ym2612"
    },
    {
      "channel": 2,
      "note": 55,
      "start": 18.7456,
      "duration": 0.1085,
      "velocity": 92,
      "chip": "ym2612"
    },
    {
      "channel": 1,
      "note": 49,
      "start": 18.7512,
      "duration": 0.1025,
      "velocity": 107,
      "chip": "ym2612"
    },
    {
      "channel": 0,
      "note": 85,
      "start": 18.8537,
      "duration": 0.7473,
      "velocity": 112,
      "chip": "ym2612"
    },
    {
      "channel": 1,
      "note": 49,
      "start": 18.854,
      "duration": 0.0083,
      "velocity": 107,
      "chip": "ym2612"
    },
    {
      "channel": 2,
      "note": 49,
      "start": 18.8542,
      "duration": 0.2047,
      "velocity": 92,
      "chip": "ym2612"
    },
    {
      "channel": 3,
      "note": 85,
      "start": 18.8553,
      "duration": 0.7743,
      "velocity": 118,
      "chip": "ym2612"
    },
    {
      "channel": 1,
      "note": 49,
      "start": 18.8626,
      "duration": 0.0794,
      "velocity": 107,
      "chip": "ym2612"
    },
    {
      "channel": 4,
      "note": 85,
      "start": 18.863,
      "duration": 0.7456,
      "velocity": 112,
      "chip": "ym2612"
    },
    {
      "channel": 1,
      "note": 49,
      "start": 18.9422,
      "duration": 0.1164,
      "velocity": 107,
      "chip": "ym2612"
    },
    {
      "channel": 1,
      "note": 49,
      "start": 19.0588,
      "duration": 0.1168,
      "velocity": 107,
      "chip": "ym2612"
    },
    {
      "channel": 2,
      "note": 49,
      "start": 19.0592,
      "duration": 0.1291,
      "velocity": 92,
      "chip": "ym2612"
    },
    {
      "channel": 1,
      "note": 49,
      "start": 19.1758,
      "duration": 0.0055,
      "velocity": 107,
      "chip": "ym2612"
    },
    {
      "channel": 1,
      "note": 49,
      "start": 19.1815,
      "duration": 0.0066,
      "velocity": 107,
      "chip": "ym2612"
    },
    {
      "channel": 1,
      "note": 49,
      "start": 19.1882,
      "duration": 0.0069,
      "velocity": 107,
      "chip": "ym2612"
    },
    {
      "channel": 2,
      "note": 49,
      "start": 19.1884,
      "duration": 0.1161,
      "velocity": 92,
      "chip": "ym2612"
    },
    {
      "channel": 1,
      "note": 49,
      "start": 19.1953,
      "duration": 0.1013,
      "velocity": 107,
      "chip": "ym2612"
    },
    {
      "channel": 1,
      "note": 49,
      "start": 19.2968,
      "duration": 0.0075,
      "velocity": 107,
      "chip": "ym2612"
    },
    {
      "channel": 1,
      "note": 49,
      "start": 19.3044,
      "duration": 0.0798,
      "velocity": 107,
      "chip": "ym2612"
    },
    {
      "channel": 2,
      "note": 49,
      "start": 19.3046,
      "duration": 0.1965,
      "velocity": 92,
      "chip": "ym2612"
    },
    {
      "channel": 1,
      "note": 49,
      "start": 19.3844,
      "duration": 0.1164,
      "velocity": 107,
      "chip": "ym2612"
    },
    {
      "channel": 1,
      "note": 49,
      "start": 19.501,
      "duration": 0.1002,
      "velocity": 107,
      "chip": "ym2612"
    },
    {
      "channel": 2,
      "note": 49,
      "start": 19.5014,
      "duration": 0.1001,
      "velocity": 92,
      "chip": "ym2612"
    },
    {
      "channel": 0,
      "note": 87,
      "start": 19.6012,
      "duration": 0.0273,
      "velocity": 112,
      "chip": "ym2612"
    },
    {
      "channel": 1,
      "note": 49,
      "start": 19.6014,
      "duration": 0.0069,
      "velocity": 107,
      "chip": "ym2612"
    },
    {
      "channel": 2,
      "note": 55,
      "start": 19.6017,
      "duration": 0.0137,
      "velocity": 92,
      "chip": "ym2612"
    },
    {
      "channel": 1,
      "note": 49,
      "start": 19.6085,
      "duration": 0.0067,
      "velocity": 107,
      "chip": "ym2612"
    },
    {
      "channel": 4,
      "note": 87,
      "start": 19.6089,
      "duration": 0.0278,
      "velocity": 112,
      "chip": "ym2612"
    },
    {
      "channel": 1,
      "note": 49,
      "start": 19.6154,
      "duration": 0.0063,
      "velocity": 107,
      "chip": "ym2612"
    },
    {
      "channel": 2,
      "note": 54,
      "start": 19.6157,
      "duration": 0.0136,
      "velocity": 92,
      "chip": "ym2612"
    },
    {
      "channel": 1,
      "note": 49,
      "start": 19.622,
      "duration": 0.007,
      "velocity": 107,
      "chip": "ym2612"
    },
    {
      "channel": 0,
      "note": 88,
      "start": 19.6288,
      "duration": 0.8833,
      "velocity": 112,
      "chip": "ym2612"
    },
    {
      "channel": 1,
      "note": 49,
      "start": 19.6292,
      "duration": 0.0069,
      "velocity": 107,
      "chip": "ym2612"
    },
    {
      "channel": 2,
      "note": 49,
      "start": 19.6294,
      "duration": 0.1874,
      "velocity": 92,
      "chip": "ym2612"
    },
    {
      "channel": 3,
      "note": 85,
      "start": 19.6296,
      "duration": 0.7461,
      "velocity": 118,
      "chip": "ym2612"
    },
    {
      "channel": 1,
      "note": 49,
      "start": 19.6364,
      "duration": 0.0802,
      "velocity": 107,
      "chip": "ym2612"
    },
    {
      "channel": 4,
      "note": 88,
      "start": 19.6369,
      "duration": 0.8822,
      "velocity": 112,
      "chip": "ym2612"
    },
    {
      "channel": 1,
      "note": 49,
      "start": 19.7168,
      "duration": 0.0998,
      "velocity": 107,
      "chip": "ym2612"
    },
    {
      "channel": 1,
      "note": 49,
      "start": 19.8167,
      "duration": 0.1168,
      "velocity": 107,
      "chip": "ym2612"
    },
    {
      "channel": 2,
      "note": 49,
      "start": 19.8171,
      "duration": 0.1297,
      "velocity": 92,
      "chip": "ym2612"
    },
    {
      "channel": 1,
      "note": 49,
      "start": 19.9337,
      "duration": 0.0065,
      "velocity": 107,
      "chip": "ym2612"
    },
    {
      "channel": 1,
      "note": 49,
      "start": 19.9403,
      "duration": 0.0062,
      "velocity": 107,
      "chip": "ym2612"
    },
    {
      "channel": 1,
      "note": 49,
      "start": 19.9466,
      "duration": 0.0066,
      "velocity": 107,
      "chip": "ym2612"
    },
    {
      "channel": 2,
      "note": 49,
      "start": 19.9469,
      "duration": 0.1313,
      "velocity": 92,
      "chip": "ym2612"
    },
    {
      "channel": 1,
      "note": 49,
      "start": 19.9534,
      "duration": 0.1168,
      "velocity": 107,
      "chip": "ym2612"
    },
    {
      "channel": 1,
      "note": 49,
      "start": 20.0705,
      "duration": 0.0075,
      "velocity": 107,
      "chip": "ym2612"
    },
    {
      "channel": 1,
      "note": 49,
      "start": 20.0781,
      "duration": 0.0635,
      "velocity": 107,
      "chip": "ym2612"
    },
    {
      "channel": 2,
      "note": 49,
      "start": 20.0783,
      "duration": 0.2971,
      "velocity": 92,
      "chip": "ym2612"
    },
    {
      "channel": 1,
      "note": 49,
      "start": 20.1418,
      "duration": 0.1164,
      "velocity": 107,
      "chip": "ym2612"
    },
    {
      "channel": 1,
      "note": 49,
      "start": 20.2584,
      "duration": 0.1168,
      "velocity": 107,
      "chip": "ym2612"
    },
    {
      "channel": 1,
      "note": 49,
      "start": 20.3754,
      "duration": 0.0063,
      "velocity": 107,
      "chip": "ym2612"
    },
    {
      "channel": 2,
      "note": 54,
      "start": 20.3756,
      "duration": 0.0128,
      "velocity": 92,
      "chip": "ym2612"
    },
    {
      "channel": 3,
      "note": 87,
      "start": 20.3759,
      "duration": 0.137,
      "velocity": 118,
      "chip": "ym2612"
    },
    {
      "channel": 1,
      "note": 49,
      "start": 20.3818,
      "duration": 0.0063,
      "velocity": 107,
      "chip": "ym2612"
    },
    {
      "channel": 1,
      "note": 49,
      "start": 20.3883,
      "duration": 0.0068,
      "velocity": 107,
      "chip": "ym2612"
    },
    {
      "channel": 2,
      "note": 55,
      "start": 20.3885,
      "duration": 0.124,
      "velocity": 92,
      "chip": "ym2612"
    },
    {
      "channel": 1,
      "note": 49,
      "start": 20.3954,
      "duration": 0.1169,
      "velocity": 107,
      "chip": "ym2612"
    },
    {
      "channel": 0,
      "note": 88,
      "start": 20.5122,
      "duration": 0.7466,
      "velocity": 112,
      "chip": "ym2612"
    },
    {
      "channel": 1,
      "note": 49,
      "start": 20.5125,
      "duration": 0.0059,
      "velocity": 107,
      "chip": "ym2612"
    },
    {
      "channel": 2,
      "note": 49,
      "start": 20.5127,
      "duration": 0.1871,
      "velocity": 92,
      "chip": "ym2612"
    },
    {
      "channel": 3,
      "note": 100,
      "start": 20.513,
      "duration": 0.7739,
      "velocity": 118,
      "chip": "ym2612"
    },
    {
      "channel": 1,
      "note": 49,
      "start": 20.5186,
      "duration": 0.0644,
      "velocity": 107,
      "chip": "ym2612"
    },
    {
      "channel": 4,
      "note": 88,
      "start": 20.5191,
      "duration": 0.7476,
      "velocity": 112,
      "chip": "ym2612"
    },
    {
      "channel": 1,
      "note": 49,
      "start": 20.5832,
      "duration": 0.1164,
      "velocity": 107,
      "chip": "ym2612"
    },
    {
      "channel": 1,
      "note": 49,
      "start": 20.6998,
      "duration": 0.1168,
      "velocity": 107,
      "chip": "ym2612"
    },
    {
      "channel": 2,
      "note": 49,
      "start": 20.7001,
      "duration": 0.1302,
      "velocity": 92,
      "chip": "ym2612"
    },
    {
      "channel": 1,
      "note": 49,
      "start": 20.8168,
      "duration": 0.0065,
      "velocity": 107,
      "chip": "ym2612"
    },
    {
      "channel": 1,
      "note": 49,
      "start": 20.8234,
      "duration": 0.0068,
      "velocity": 107,
      "chip": "ym2612"
    },
    {
      "channel": 1,
      "note": 49,
      "start": 20.8303,
      "duration": 0.0071,
      "velocity": 107,
      "chip": "ym2612"
    },
    {
      "channel": 2,
      "note": 49,
      "start": 20.8306,
      "duration": 0.1148,
      "velocity": 92,
      "chip": "ym2612"
    },
    {
      "channel": 1,
      "note": 49,
      "start": 20.8376,
      "duration": 0.1001,
      "velocity": 107,
      "chip": "ym2612"
    },
    {
      "channel": 1,
      "note": 49,
      "start": 20.9379,
      "duration": 0.0073,
      "velocity": 107,
      "chip": "ym2612"
    },
    {
      "channel": 1,
      "note": 49,
      "start": 20.9454,
      "duration": 0.08,
      "velocity": 107,
      "chip": "ym2612"
    },
    {
      "channel": 2,
      "note": 49,
      "start": 20.9456,
      "duration": 0.1966,
      "velocity": 92,
      "chip": "ym2612"
    },
    {
      "channel": 1,
      "note": 49,
      "start": 21.0256,
      "duration": 0.1164,
      "velocity": 107,
      "chip": "ym2612"
    },
    {
      "channel": 1,
      "note": 49,
      "start": 21.1422,
      "duration": 0.117,
      "velocity": 107,
      "chip": "ym2612"
    },
    {
      "channel": 2,
      "note": 49,
      "start": 21.1425,
      "duration": 0.1168,
      "velocity": 92,
      "chip": "ym2612"
    },
    {
      "channel": 0,
      "note": 92,
      "start": 21.259,
      "duration": 0.0269,
      "velocity": 112,
      "chip": "ym2612"
    },
    {
      "channel": 1,
      "note": 49,
      "start": 21.2593,
      "duration": 0.0071,
      "velocity": 107,
      "chip": "ym2612"
    },
    {
      "channel": 2,
      "note": 47,
      "start": 21.2595,
      "duration": 0.0141,
      "velocity": 92,
      "chip": "ym2612"
    },
    {
      "channel": 1,
      "note": 49,
      "start": 21.2665,
      "duration": 0.0069,
      "velocity": 107,
      "chip": "ym2612"
    },
    {
      "channel": 4,
      "note": 92,
      "start": 21.2669,
      "duration": 0.0268,
      "velocity": 112,
      "chip": "ym2612"
    },
    {
      "channel": 1,
      "note": 49,
      "start": 21.2736,
      "duration": 0.0056,
      "velocity": 107,
      "chip": "ym2612"
    },
    {
      "channel": 2,
      "note": 48,
      "start": 21.2739,
      "duration": 0.0128,
      "velocity": 92,
      "chip": "ym2612"
    },
    {
      "channel": 1,
      "note": 49,
      "start": 21.2794,
      "duration": 0.007,
      "velocity": 107,
      "chip": "ym2612"
    },
    {
      "channel": 0,
      "note": 90,
      "start": 21.2862,
      "duration": 0.8844,
      "velocity": 112,
      "chip": "ym2612"
    },
    {
      "channel": 1,
      "note": 50,
      "start": 21.2866,
      "duration": 0.0065,
      "velocity": 107,
      "chip": "ym2612"
    },
    {
      "channel": 2,
      "note": 50,
      "start": 21.2868,
      "duration": 0.2035,
      "velocity": 92,
      "chip": "ym2612"
    },
    {
      "channel": 3,
      "note": 100,
      "start": 21.2869,
      "duration": 0.7632,
      "velocity": 118,
      "chip": "ym2612"
    },
    {
      "channel": 1,
      "note": 50,
      "start": 21.2933,
      "duration": 0.0802,
      "velocity": 107,
      "chip": "ym2612"
    },
    {
      "channel": 4,
      "note": 90,
      "start": 21.2939,
      "duration": 0.8849,
      "velocity": 112,
      "chip": "ym2612"
    },
    {
      "channel": 1,
      "note": 50,
      "start": 21.3736,
      "duration": 0.1165,
      "velocity": 107,
      "chip": "ym2612"
    },
    {
      "channel": 1,
      "note": 50,
      "start": 21.4903,
      "duration": 0.1167,
      "velocity": 107,
      "chip": "ym2612"
    },
    {
      "channel": 2,
      "note": 50,
      "start": 21.4906,
      "duration": 0.1292,
      "velocity": 92,
      "chip": "ym2612"
    },
    {
      "channel": 1,
      "note": 50,
      "start": 21.6072,
      "duration": 0.0065,
      "velocity": 107,
      "chip": "ym2612"
    },
    {
      "channel": 1,
      "note": 50,
      "start": 21.6139,
      "duration": 0.0056,
      "velocity": 107,
      "chip": "ym2612"
    },
    {
      "channel": 1,
      "note": 50,
      "start": 21.6197,
      "duration": 0.0067,
      "velocity": 107,
      "chip": "ym2612"
    },
    {
      "channel": 2,
      "note": 50,
      "start": 21.6199,
      "duration": 0.1161,
      "velocity": 92,
      "chip": "ym2612"
    },
    {
      "channel": 1,
      "note": 50,
      "start": 21.6266,
      "duration": 0.1015,
      "velocity": 107,
      "chip": "ym2612"
    },
    {
      "channel": 1,
      "note": 50,
      "start": 21.7282,
      "duration": 0.0076,
      "velocity": 107,
      "chip": "ym2612"
    },
    {
      "channel": 1,
      "note": 50,
      "start": 21.736,
      "duration": 0.0799,
      "velocity": 107,
      "chip": "ym2612"
    },
    {
      "channel": 2,
      "note": 50,
      "start": 21.7361,
      "duration": 0.3137,
      "velocity": 92,
      "chip": "ym2612"
    },
    {
      "channel": 1,
      "note": 50,
      "start": 21.8161,
      "duration": 0.1165,
      "velocity": 107,
      "chip": "ym2612"
    },
    {
      "channel": 1,
      "note": 50,
      "start": 21.9328,
      "duration": 0.1168,
      "velocity": 107,
      "chip": "ym2612"
    },
    {
      "channel": 1,
      "note": 50,
      "start": 22.0498,
      "duration": 0.006,
      "velocity": 107,
      "chip": "ym2612"
    },
    {
      "channel": 2,
      "note": 55,
      "start": 22.0501,
      "duration": 0.0126,
      "velocity": 92,
      "chip": "ym2612"
    },
    {
      "channel": 3,
      "note": 92,
      "start": 22.0503,
      "duration": 0.1208,
      "velocity": 118,
      "chip": "ym2612"
    },
    {
      "channel": 1,
      "note": 50,
      "start": 22.0559,
      "duration": 0.0066,
      "velocity": 107,
      "chip": "ym2612"
    },
    {
      "channel": 1,
      "note": 50,
      "start": 22.0627,
      "duration": 0.0064,
      "velocity": 107,
      "chip": "ym2612"
    },
    {
      "channel": 2,
      "note": 56,
      "start": 22.0628,
      "duration": 0.1081,
      "velocity": 92,
      "chip": "ym2612"
    },
    {
      "channel": 1,
      "note": 50,
      "start": 22.0692,
      "duration": 0.1014,
      "velocity": 107,
      "chip": "ym2612"
    },
    {
      "channel": 0,
      "note": 90,
      "start": 22.1706,
      "duration": 0.7748,
      "velocity": 112,
      "chip": "ym2612"
    },
    {
      "channel": 1,
      "note": 50,
      "start": 22.1709,
      "duration": 0.0072,
      "velocity": 107,
      "chip": "ym2612"
    },
    {
      "channel": 2,
      "note": 50,
      "start": 22.1711,
      "duration": 0.204,
      "velocity": 92,
      "chip": "ym2612"
    },
    {
      "channel": 3,
      "note": 90,
      "start": 22.1714,
      "duration": 0.775,
      "velocity": 118,
      "chip": "ym2612"
    },
    {
      "channel": 1,
      "note": 50,
      "start": 22.1783,
      "duration": 0.0799,
      "velocity": 107,
      "chip": "ym2612"
    },
    {
      "channel": 4,
      "note": 90,
      "start": 22.1788,
      "duration": 0.7755,
      "velocity": 112,
      "chip": "ym2612"
    },
    {
      "channel": 1,
      "note": 50,
      "start": 22.2584,
      "duration": 0.1165,
      "velocity": 107,
      "chip": "ym2612"
    },
    {
      "channel": 1,
      "note": 50,
      "start": 22.3751,
      "duration": 0.1,
      "velocity": 107,
      "chip": "ym2612"
    },
    {
      "channel": 2,
      "note": 50,
      "start": 22.3754,
      "duration": 0.1132,
      "velocity": 92,
      "chip": "ym2612"
    },
    {
      "channel": 1,
      "note": 50,
      "start": 22.4754,
      "duration": 0.0062,
      "velocity": 107,
      "chip": "ym2612"
    },
    {
      "channel": 1,
      "note": 50,
      "start": 22.4818,
      "duration": 0.0066,
      "velocity": 107,
      "chip": "ym2612"
    },
    {
      "channel": 1,
      "note": 50,
      "start": 22.4885,
      "duration": 0.007,
      "velocity": 107,
      "chip": "ym2612"
    },
    {
      "channel": 2,
      "note": 50,
      "start": 22.4887,
      "duration": 0.1313,
      "velocity": 92,
      "chip": "ym2612"
    },
    {
      "channel": 1,
      "note": 50,
      "start": 22.4957,
      "duration": 0.1168,
      "velocity": 107,
      "chip": "ym2612"
    },
    {
      "channel": 1,
      "note": 50,
      "start": 22.6128,
      "duration": 0.007,
      "velocity": 107,
      "chip": "ym2612"
    },
    {
      "channel": 1,
      "note": 50,
      "start": 22.62,
      "duration": 0.0804,
      "velocity": 107,
      "chip": "ym2612"
    },
    {
      "channel": 2,
      "note": 50,
      "start": 22.6202,
      "duration": 0.1804,
      "velocity": 92,
      "chip": "ym2612"
    },
    {
      "channel": 1,
      "note": 50,
      "start": 22.7005,
      "duration": 0.0998,
      "velocity": 107,
      "chip": "ym2612"
    },
    {
      "channel": 1,
      "note": 50,
      "start": 22.8005,
      "duration": 0.1168,
      "velocity": 107,
      "chip": "ym2612"
    },
    {
      "channel": 2,
      "note": 50,
      "start": 22.8008,
      "duration": 0.1167,
      "velocity": 92,
      "chip": "ym2612"
    },
    {
      "channel": 1,
      "note": 50,
      "start": 22.9175,
      "duration": 0.0071,
      "velocity": 107,
      "chip": "ym2612"
    },
    {
      "channel": 2,
      "note": 56,
      "start": 22.9177,
      "duration": 0.0139,
      "velocity": 92,
      "chip": "ym2612"
    },
    {
      "channel": 1,
      "note": 50,
      "start": 22.9247,
      "duration": 0.0066,
      "velocity": 107,
      "chip": "ym2612"
    },
    {
      "channel": 1,
      "note": 50,
      "start": 22.9315,
      "duration": 0.0069,
      "velocity": 107,
      "chip": "ym2612"
    },
    {
      "channel": 2,
      "note": 55,
      "start": 22.9317,
      "duration": 0.0142,
      "velocity": 92,
      "chip": "ym2612"
    },
    {
      "channel": 1,
      "note": 50,
      "start": 22.9387,
      "duration": 0.007,
      "velocity": 107,
      "chip": "ym2612"
    },
    {
      "channel": 0,
      "note": 98,
      "start": 22.9457,
      "duration": 0.867,
      "velocity": 112,
      "chip": "ym2612"
    },
    {
      "channel": 1,
      "note": 50,
      "start": 22.9459,
      "duration": 0.008,
      "velocity": 107,
      "chip": "ym2612"
    },
    {
      "channel": 2,
      "note": 50,
      "start": 22.9462,
      "duration": 0.1883,
      "velocity": 92,
      "chip": "ym2612"
    },
    {
      "channel": 3,
      "note": 90,
      "start": 22.9463,
      "duration": 0.867,
      "velocity": 118,
      "chip": "ym2612"
    },
    {
      "channel": 1,
      "note": 50,
      "start": 22.954,
      "duration": 0.0635,
      "velocity": 107,
      "chip": "ym2612"
    },
    {
      "channel": 4,
      "note": 98,
      "start": 22.9545,
      "duration": 0.8659,
      "velocity": 112,
      "chip": "ym2612"
    },
    {
      "channel": 1,
      "note": 50,
      "start": 23.0177,
      "duration": 0.1165,
      "velocity": 107,
      "chip": "ym2612"
    },
    {
      "channel": 1,
      "note": 50,
      "start": 23.1344,
      "duration": 0.1168,
      "velocity": 107,
      "chip": "ym2612"
    },
    {
      "channel": 2,
      "note": 50,
      "start": 23.1347,
      "duration": 0.1298,
      "velocity": 92,
      "chip": "ym2612"
    },
    {
      "channel": 1,
      "note": 50,
      "start": 23.2513,
      "duration": 0.0062,
      "velocity": 107,
      "chip": "ym2612"
    },
    {
      "channel": 1,
      "note": 50,
      "start": 23.2577,
      "duration": 0.0065,
      "velocity": 107,
      "chip": "ym2612"
    },
    {
      "channel": 1,
      "note": 50,
      "start": 23.2644,
      "duration": 0.0067,
      "velocity": 107,
      "chip": "ym2612"
    },
    {
      "channel": 2,
      "note": 50,
      "start": 23.2646,
      "duration": 0.1297,
      "velocity": 92,
      "chip": "ym2612"
    },
    {
      "channel": 1,
      "note": 50,
      "start": 23.2713,
      "duration": 0.1168,
      "velocity": 107,
      "chip": "ym2612"
    },
    {
      "channel": 1,
      "note": 50,
      "start": 23.3883,
      "duration": 0.0057,
      "velocity": 107,
      "chip": "ym2612"
    },
    {
      "channel": 1,
      "note": 50,
      "start": 23.3942,
      "duration": 0.0644,
      "velocity": 107,
      "chip": "ym2612"
    },
    {
      "channel": 2,
      "note": 50,
      "start": 23.3944,
      "duration": 0.298,
      "velocity": 92,
      "chip": "ym2612"
    },
    {
      "channel": 1,
      "note": 50,
      "start": 23.4587,
      "duration": 0.1165,
      "velocity": 107,
      "chip": "ym2612"
    },
    {
      "channel": 1,
      "note": 50,
      "start": 23.5754,
      "duration": 0.1168,
      "velocity": 107,
      "chip": "ym2612"
    },
    {
      "channel": 1,
      "note": 50,
      "start": 23.6924,
      "duration": 0.0066,
      "velocity": 107,
      "chip": "ym2612"
    },
    {
      "channel": 2,
      "note": 55,
      "start": 23.6926,
      "duration": 0.0132,
      "velocity": 92,
      "chip": "ym2612"
    },
    {
      "channel": 1,
      "note": 50,
      "start": 23.6991,
      "duration": 0.0066,
      "velocity": 107,
      "chip": "ym2612"
    },
    {
      "channel": 1,
      "note": 50,
      "start": 23.7058,
      "duration": 0.0066,
      "velocity": 107,
      "chip": "ym2612"
    },
    {
      "channel": 2,
      "note": 56,
      "start": 23.7061,
      "duration": 0.107,
      "velocity": 92,
      "chip": "ym2612"
    },
    {
      "channel": 1,
      "note": 50,
      "start": 23.7126,
      "duration": 0.1002,
      "velocity": 107,
      "chip": "ym2612"
    },
    {
      "channel": 0,
      "note": 98,
      "start": 23.8127,
      "duration": 0.7893,
      "velocity": 112,
      "chip": "ym2612"
    },
    {
      "channel": 1,
      "note": 50,
      "start": 23.8129,
      "duration": 0.0068,
      "velocity": 107,
      "chip": "ym2612"
    },
    {
      "channel": 2,
      "note": 50,
      "start": 23.8132,
      "duration": 0.2036,
      "velocity": 92,
      "chip": "ym2612"
    },
    {
      "channel": 3,
      "note": 98,
      "start": 23.8134,
      "duration": 0.7897,
      "velocity": 118,
      "chip": "ym2612"
    },
    {
      "channel": 1,
      "note": 50,
      "start": 23.8199,
      "duration": 0.0801,
      "velocity": 107,
      "chip": "ym2612"
    },
    {
      "channel": 4,
      "note": 98,
      "start": 23.8204,
      "duration": 0.8989,
      "velocity": 112,
      "chip": "ym2612"
    },
    {
      "channel": 1,
      "note": 50,
      "start": 23.9001,
      "duration": 0.1165,
      "velocity": 107,
      "chip": "ym2612"
    },
    {
      "channel": 1,
      "note": 50,
      "start": 24.0168,
      "duration": 0.1167,
      "velocity": 107,
      "chip": "ym2612"
    },
    {
      "channel": 2,
      "note": 50,
      "start": 24.0171,
      "duration": 0.1302,
      "velocity": 92,
      "chip": "ym2612"
    },
    {
      "channel": 1,
      "note": 50,
      "start": 24.1338,
      "duration": 0.0064,
      "velocity": 107,
      "chip": "ym2612"
    },
    {
      "channel": 1,
      "note": 50,
      "start": 24.1404,
      "duration": 0.0067,
      "velocity": 107,
      "chip": "ym2612"
    },
    {
      "channel": 1,
      "note": 50,
      "start": 24.1473,
      "duration": 0.0058,
      "velocity": 107,
      "chip": "ym2612"
    },
    {
      "channel": 2,
      "note": 50,
      "start": 24.1475,
      "duration": 0.1143,
      "velocity": 92,
      "chip": "ym2612"
    },
    {
      "channel": 1,
      "note": 50,
      "start": 24.1532,
      "duration": 0.1013,
      "velocity": 107,
      "chip": "ym2612"
    },
    {
      "channel": 1,
      "note": 50,
      "start": 24.2547,
      "duration": 0.0068,
      "velocity": 107,
      "chip": "ym2612"
    },
    {
      "channel": 1,
      "note": 50,
      "start": 24.2617,
      "duration": 0.0803,
      "velocity": 107,
      "chip": "ym2612"
    },
    {
      "channel": 2,
      "note": 50,
      "start": 24.2619,
      "duration": 0.197,
      "velocity": 92,
      "chip": "ym2612"
    },
    {
      "channel": 1,
      "note": 50,
      "start": 24.3422,
      "duration": 0.1165,
      "velocity": 107,
      "chip": "ym2612"
    },
    {
      "channel": 1,
      "note": 50,
      "start": 24.4589,
      "duration": 0.1168,
      "velocity": 107,
      "chip": "ym2612"
    },
    {
      "channel": 2,
      "note": 50,
      "start": 24.4592,
      "duration": 0.1167,
      "velocity": 92,
      "chip": "ym2612"
    },
    {
      "channel": 1,
      "note": 50,
      "start": 24.5758,
      "duration": 0.0068,
      "velocity": 107,
      "chip": "ym2612"
    },
    {
      "channel": 2,
      "note": 48,
      "start": 24.5761,
      "duration": 0.0129,
      "velocity": 92,
      "chip": "ym2612"
    },
    {
      "channel": 1,
      "note": 50,
      "start": 24.5828,
      "duration": 0.0059,
      "velocity": 107,
      "chip": "ym2612"
    },
    {
      "channel": 1,
      "note": 50,
      "start": 24.5889,
      "duration": 0.0067,
      "velocity": 107,
      "chip": "ym2612"
    },
    {
      "channel": 2,
      "note": 49,
      "start": 24.5892,
      "duration": 0.0138,
      "velocity": 92,
      "chip": "ym2612"
    },
    {
      "channel": 1,
      "note": 50,
      "start": 24.5958,
      "duration": 0.0068,
      "velocity": 107,
      "chip": "ym2612"
    },
    {
      "channel": 0,
      "note": 97,
      "start": 24.6023,
      "duration": 1.8332,
      "velocity": 112,
      "chip": "ym2612"
    },
    {
      "channel": 1,
      "note": 49,
      "start": 24.6028,
      "duration": 0.1159,
      "velocity": 107,
      "chip": "ym2612"
    },
    {
      "channel": 2,
      "note": 49,
      "start": 24.6031,
      "duration": 0.3492,
      "velocity": 92,
      "chip": "ym2612"
    },
    {
      "channel": 3,
      "note": 97,
      "start": 24.6034,
      "duration": 1.8329,
      "velocity": 118,
      "chip": "ym2612"
    },
    {
      "channel": 1,
      "note": 49,
      "start": 24.7189,
      "duration": 0.1165,
      "velocity": 107,
      "chip": "ym2612"
    },
    {
      "channel": 4,
      "note": 97,
      "start": 24.7195,
      "duration": 1.8333,
      "velocity": 112,
      "chip": "ym2612"
    },
    {
      "channel": 1,
      "note": 49,
      "start": 24.8356,
      "duration": 0.1164,
      "velocity": 107,
      "chip": "ym2612"
    },
    {
      "channel": 1,
      "note": 49,
      "start": 24.9522,
      "duration": 0.1165,
      "velocity": 107,
      "chip": "ym2612"
    },
    {
      "channel": 2,
      "note": 49,
      "start": 24.9525,
      "duration": 0.3332,
      "velocity": 92,
      "chip": "ym2612"
    },
    {
      "channel": 1,
      "note": 49,
      "start": 25.069,
      "duration": 0.0998,
      "velocity": 107,
      "chip": "ym2612"
    },
    {
      "channel": 1,
      "note": 49,
      "start": 25.1689,
      "duration": 0.1165,
      "velocity": 107,
      "chip": "ym2612"
    },
    {
      "channel": 1,
      "note": 49,
      "start": 25.2856,
      "duration": 0.1164,
      "velocity": 107,
      "chip": "ym2612"
    },
    {
      "channel": 2,
      "note": 49,
      "start": 25.2859,
      "duration": 0.3498,
      "velocity": 92,
      "chip": "ym2612"
    },
    {
      "channel": 1,
      "note": 49,
      "start": 25.4022,
      "duration": 0.1165,
      "velocity": 107,
      "chip": "ym2612"
    },
    {
      "channel": 1,
      "note": 49,
      "start": 25.519,
      "duration": 0.1164,
      "velocity": 107,
      "chip": "ym2612"
    },
    {
      "channel": 1,
      "note": 49,
      "start": 25.6356,
      "duration": 0.1165,
      "velocity": 107,
      "chip": "ym2612"
    },
    {
      "channel": 2,
      "note": 49,
      "start": 25.6359,
      "duration": 0.3332,
      "velocity": 92,
      "chip": "ym2612"
    },
    {
      "channel": 1,
      "note": 49,
      "start": 25.7523,
      "duration": 0.1164,
      "velocity": 107,
      "chip": "ym2612"
    },
    {
      "channel": 1,
      "note": 49,
      "start": 25.8689,
      "duration": 0.0999,
      "velocity": 107,
      "chip": "ym2612"
    },
    {
      "channel": 1,
      "note": 49,
      "start": 25.969,
      "duration": 0.1164,
      "velocity": 107,
      "chip": "ym2612"
    },
    {
      "channel": 2,
      "note": 54,
      "start": 25.9693,
      "duration": 0.2331,
      "velocity": 92,
      "chip": "ym2612"
    },
    {
      "channel": 1,
      "note": 49,
      "start": 26.0856,
      "duration": 0.1165,
      "velocity": 107,
      "chip": "ym2612"
    },
    {
      "channel": 1,
      "note": 49,
      "start": 26.2023,
      "duration": 0.1164,
      "velocity": 107,
      "chip": "ym2612"
    },
    {
      "channel": 2,
      "note": 55,
      "start": 26.2026,
      "duration": 0.2333,
      "velocity": 92,
      "chip": "ym2612"
    },
    {
      "channel": 1,
      "note": 49,
      "start": 26.3189,
      "duration": 0.1167,
      "velocity": 107,
      "chip": "ym2612"
    },
    {
      "channel": 0,
      "note": 97,
      "start": 26.4355,
      "duration": 1.8332,
      "velocity": 112,
      "chip": "ym2612"
    },
    {
      "channel": 1,
      "note": 49,
      "start": 26.4358,
      "duration": 0.1162,
      "velocity": 107,
      "chip": "ym2612"
    },
    {
      "channel": 2,
      "note": 49,
      "start": 26.4361,
      "duration": 0.3328,
      "velocity": 92,
      "chip": "ym2612"
    },
    {
      "channel": 3,
      "note": 97,
      "start": 26.4363,
      "duration": 1.834,
      "velocity": 117,
      "chip": "ym2612"
    },
    {
      "channel": 1,
      "note": 49,
      "start": 26.5522,
      "duration": 0.1165,
      "velocity": 107,
      "chip": "ym2612"
    },
    {
      "channel": 4,
      "note": 97,
      "start": 26.5528,
      "duration": 1.8163,
      "velocity": 112,
      "chip": "ym2612"
    },
    {
      "channel": 1,
      "note": 49,
      "start": 26.669,
      "duration": 0.0998,
      "velocity": 107,
      "chip": "ym2612"
    },
    {
      "channel": 1,
      "note": 49,
      "start": 26.7689,
      "duration": 0.1165,
      "velocity": 107,
      "chip": "ym2612"
    },
    {
      "channel": 2,
      "note": 49,
      "start": 26.7692,
      "duration": 0.3498,
      "velocity": 92,
      "chip": "ym2612"
    },
    {
      "channel": 1,
      "note": 49,
      "start": 26.8856,
      "duration": 0.1164,
      "velocity": 107,
      "chip": "ym2612"
    },
    {
      "channel": 1,
      "note": 49,
      "start": 27.0022,
      "duration": 0.1165,
      "velocity": 107,
      "chip": "ym2612"
    },
    {
      "channel": 1,
      "note": 49,
      "start": 27.119,
      "duration": 0.1164,
      "velocity": 107,
      "chip": "ym2612"
    },
    {
      "channel": 2,
      "note": 49,
      "start": 27.1192,
      "duration": 0.3498,
      "velocity": 92,
      "chip": "ym2612"
    },
    {
      "channel": 1,
      "note": 49,
      "start": 27.2356,
      "duration": 0.1165,
      "velocity": 107,
      "chip": "ym2612"
    },
    {
      "channel": 1,
      "note": 49,
      "start": 27.3523,
      "duration": 0.1164,
      "velocity": 107,
      "chip": "ym2612"
    },
    {
      "channel": 1,
      "note": 49,
      "start": 27.4689,
      "duration": 0.0999,
      "velocity": 107,
      "chip": "ym2612"
    },
    {
      "channel": 2,
      "note": 49,
      "start": 27.4691,
      "duration": 0.2165,
      "velocity": 92,
      "chip": "ym2612"
    },
    {
      "channel": 1,
      "note": 49,
      "start": 27.569,
      "duration": 0.1164,
      "velocity": 107,
      "chip": "ym2612"
    },
    {
      "channel": 1,
      "note": 49,
      "start": 27.6856,
      "duration": 0.1165,
      "velocity": 107,
      "chip": "ym2612"
    },
    {
      "channel": 2,
      "note": 49,
      "start": 27.6859,
      "duration": 0.1165,
      "velocity": 92,
      "chip": "ym2612"
    },
    {
      "channel": 1,
      "note": 49,
      "start": 27.8023,
      "duration": 0.1164,
      "velocity": 107,
      "chip": "ym2612"
    },
    {
      "channel": 2,
      "note": 55,
      "start": 27.8026,
      "duration": 0.2331,
      "velocity": 92,
      "chip": "ym2612"
    },
    {
      "channel": 1,
      "note": 49,
      "start": 27.9189,
      "duration": 0.1165,
      "velocity": 107,
      "chip": "ym2612"
    },
    {
      "channel": 1,
      "note": 49,
      "start": 28.0356,
      "duration": 0.1164,
      "velocity": 107,
      "chip": "ym2612"
    },
    {
      "channel": 2,
      "note": 54,
      "start": 28.0359,
      "duration": 0.2333,
      "velocity": 92,
      "chip": "ym2612"
    },
    {
      "channel": 1,
      "note": 49,
      "start": 28.1522,
      "duration": 0.1167,
      "velocity": 107,
      "chip": "ym2612"
    },
    {
      "channel": 1,
      "note": 49,
      "start": 28.2691,
      "duration": 0.0995,
      "velocity": 107,
      "chip": "ym2612"
    },
    {
      "channel": 2,
      "note": 49,
      "start": 28.2695,
      "duration": 0.3327,
      "velocity": 92,
      "chip": "ym2612"
    },
    {
      "channel": 1,
      "note": 49,
      "start": 28.3688,
      "duration": 0.1165,
      "velocity": 107,
      "chip": "ym2612"
    },
    {
      "channel": 1,
      "note": 49,
      "start": 28.4856,
      "duration": 0.1164,
      "velocity": 107,
      "chip": "ym2612"
    },
    {
      "channel": 1,
      "note": 49,
      "start": 28.6022,
      "duration": 0.1165,
      "velocity": 107,
      "chip": "ym2612"
    },
    {
      "channel": 2,
      "note": 49,
      "start": 28.6024,
      "duration": 0.3499,
      "velocity": 92,
      "chip": "ym2612"
    },
    {
      "channel": 1,
      "note": 49,
      "start": 28.7188,
      "duration": 0.1165,
      "velocity": 107,
      "chip": "ym2612"
    },
    {
      "channel": 1,
      "note": 49,
      "start": 28.8355,
      "duration": 0.1165,
      "velocity": 107,
      "chip": "ym2612"
    },
    {
      "channel": 1,
      "note": 49,
      "start": 28.9522,
      "duration": 0.1164,
      "velocity": 107,
      "chip": "ym2612"
    },
    {
      "channel": 2,
      "note": 49,
      "start": 28.9525,
      "duration": 0.3331,
      "velocity": 92,
      "chip": "ym2612"
    },
    {
      "channel": 1,
      "note": 49,
      "start": 29.0688,
      "duration": 0.0998,
      "velocity": 107,
      "chip": "ym2612"
    },
    {
      "channel": 1,
      "note": 49,
      "start": 29.1689,
      "duration": 0.1164,
      "velocity": 107,
      "chip": "ym2612"
    },
    {
      "channel": 1,
      "note": 49,
      "start": 29.2855,
      "duration": 0.1165,
      "velocity": 107,
      "chip": "ym2612"
    },
    {
      "channel": 2,
      "note": 49,
      "start": 29.2857,
      "duration": 0.3499,
      "velocity": 92,
      "chip": "ym2612"
    },
    {
      "channel": 1,
      "note": 49,
      "start": 29.4022,
      "duration": 0.1164,
      "velocity": 107,
      "chip": "ym2612"
    },
    {
      "channel": 1,
      "note": 49,
      "start": 29.5188,
      "duration": 0.1165,
      "velocity": 107,
      "chip": "ym2612"
    },
    {
      "channel": 1,
      "note": 49,
      "start": 29.6356,
      "duration": 0.1164,
      "velocity": 107,
      "chip": "ym2612"
    },
    {
      "channel": 2,
      "note": 54,
      "start": 29.6358,
      "duration": 0.2332,
      "velocity": 92,
      "chip": "ym2612"
    },
    {
      "channel": 1,
      "note": 49,
      "start": 29.7522,
      "duration": 0.1165,
      "velocity": 107,
      "chip": "ym2612"
    },
    {
      "channel": 1,
      "note": 49,
      "start": 29.8689,
      "duration": 0.0998,
      "velocity": 107,
      "chip": "ym2612"
    },
    {
      "channel": 2,
      "note": 55,
      "start": 29.8691,
      "duration": 0.2168,
      "velocity": 92,
      "chip": "ym2612"
    },
    {
      "channel": 1,
      "note": 49,
      "start": 29.9688,
      "duration": 0.1168,
      "velocity": 107,
      "chip": "ym2612"
    },
    {
      "channel": 1,
      "note": 49,
      "start": 30.0859,
      "duration": 0.0048,
      "velocity": 107,
      "chip": "ym2612"
    },
    {
      "channel": 2,
      "note": 49,
      "start": 30.0861,
      "duration": 0.2022,
      "velocity": 92,
      "chip": "ym2612"
    },
    {
      "channel": 1,
      "note": 49,
      "start": 30.0908,
      "duration": 0.0805,
      "velocity": 107,
      "chip": "ym2612"
    },
    {
      "channel": 1,
      "note": 49,
      "start": 30.1716,
      "duration": 0.1164,
      "velocity": 107,
      "chip": "ym2612"
    },
    {
      "channel": 1,
      "note": 49,
      "start": 30.2882,
      "duration": 0.1166,
      "velocity": 107,
      "chip": "ym2612"
    },
    {
      "channel": 2,
      "note": 49,
      "start": 30.2884,
      "duration": 0.1858,
      "velocity": 92,
      "chip": "ym2612"
    },
    {
      "channel": 1,
      "note": 49,
      "start": 30.405,
      "duration": 0.0044,
      "velocity": 107,
      "chip": "ym2612"
    },
    {
      "channel": 1,
      "note": 49,
      "start": 30.4096,
      "duration": 0.0643,
      "velocity": 107,
      "chip": "ym2612"
    },
    {
      "channel": 1,
      "note": 49,
      "start": 30.4741,
      "duration": 0.1164,
      "velocity": 107,
      "chip": "ym2612"
    },
    {
      "channel": 2,
      "note": 49,
      "start": 30.4744,
      "duration": 0.2387,
      "velocity": 92,
      "chip": "ym2612"
    },
    {
      "channel": 1,
      "note": 49,
      "start": 30.5907,
      "duration": 0.1167,
      "velocity": 107,
      "chip": "ym2612"
    },
    {
      "channel": 1,
      "note": 49,
      "start": 30.7077,
      "duration": 0.0051,
      "velocity": 107,
      "chip": "ym2612"
    },
    {
      "channel": 1,
      "note": 49,
      "start": 30.713,
      "duration": 0.0059,
      "velocity": 107,
      "chip": "ym2612"
    },
    {
      "channel": 2,
      "note": 49,
      "start": 30.7132,
      "duration": 0.0117,
      "velocity": 92,
      "chip": "ym2612"
    },
    {
      "channel": 1,
      "note": 49,
      "start": 30.7191,
      "duration": 0.0056,
      "velocity": 107,
      "chip": "ym2612"
    },
    {
      "channel": 1,
      "note": 49,
      "start": 30.7248,
      "duration": 0.0058,
      "velocity": 107,
      "chip": "ym2612"
    },
    {
      "channel": 2,
      "note": 49,
      "start": 30.7251,
      "duration": 0.0058,
      "velocity": 92,
      "chip": "ym2612"
    },
    {
      "channel": 1,
      "note": 49,
      "start": 30.7309,
      "duration": 0.0048,
      "velocity": 107,
      "chip": "ym2612"
    },
    {
      "channel": 2,
      "note": 47,
      "start": 30.731,
      "duration": 0.0106,
      "velocity": 92,
      "chip": "ym2612"
    },
    {
      "channel": 1,
      "note": 49,
      "start": 30.7359,
      "duration": 0.0055,
      "velocity": 107,
      "chip": "ym2612"
    },
    {
      "channel": 1,
      "note": 49,
      "start": 30.7415,
      "duration": 0.0057,
      "velocity": 107,
      "chip": "ym2612"
    },
    {
      "channel": 2,
      "note": 48,
      "start": 30.7419,
      "duration": 0.0122,
      "velocity": 84,
      "chip": "ym2612"
    },
    {
      "channel": 1,
      "note": 49,
      "start": 30.7475,
      "duration": 0.0056,
      "velocity": 107,
      "chip": "ym2612"
    },
    {
      "channel": 0,
      "note": 50,
      "start": 30.7528,
      "duration": 0.0856,
      "velocity": 84,
      "chip": "ym2612"
    },
    {
      "channel": 1,
      "note": 50,
      "start": 30.7532,
      "duration": 0.0061,
      "velocity": 107,
      "chip": "ym2612"
    },
    {
      "channel": 2,
      "note": 62,
      "start": 30.7542,
      "duration": 0.0847,
      "velocity": 84,
      "chip": "ym2612"
    },
    {
      "channel": 1,
      "note": 50,
      "start": 30.7594,
      "duration": 0.0792,
      "velocity": 107,
      "chip": "ym2612"
    },
    {
      "channel": 4,
      "note": 50,
      "start": 30.7605,
      "duration": 0.1954,
      "velocity": 84,
      "chip": "ym2612"
    },
    {
      "channel": 0,
      "note": 74,
      "start": 30.8385,
      "duration": 0.1165,
      "velocity": 84,
      "chip": "ym2612"
    },
    {
      "channel": 1,
      "note": 50,
      "start": 30.8389,
      "duration": 0.1164,
      "velocity": 107,
      "chip": "ym2612"
    },
    {
      "channel": 2,
      "note": 81,
      "start": 30.8391,
      "duration": 0.1164,
      "velocity": 84,
      "chip": "ym2612"
    },
    {
      "channel": 0,
      "note": 50,
      "start": 30.9552,
      "duration": 0.1001,
      "velocity": 84,
      "chip": "ym2612"
    },
    {
      "channel": 1,
      "note": 50,
      "start": 30.9555,
      "duration": 0.1,
      "velocity": 107,
      "chip": "ym2612"
    },
    {
      "channel": 2,
      "note": 62,
      "start": 30.9558,
      "duration": 0.1,
      "velocity": 84,
      "chip": "ym2612"
    },
    {
      "channel": 4,
      "note": 74,
      "start": 30.9562,
      "duration": 0.0999,
      "velocity": 84,
      "chip": "ym2612"
    },
    {
      "channel": 0,
      "note": 50,
      "start": 31.0554,
      "duration": 0.0063,
      "velocity": 84,
      "chip": "ym2612"
    },
    {
      "channel": 1,
      "note": 50,
      "start": 31.0557,
      "duration": 0.0063,
      "velocity": 107,
      "chip": "ym2612"
    },
    {
      "channel": 2,
      "note": 62,
      "start": 31.0559,
      "duration": 0.0063,
      "velocity": 84,
      "chip": "ym2612"
    },
    {
      "channel": 4,
      "note": 50,
      "start": 31.0563,
      "duration": 0.0062,
      "velocity": 84,
      "chip": "ym2612"
    },
    {
      "channel": 0,
      "note": 74,
      "start": 31.0619,
      "duration": 0.0064,
      "velocity": 84,
      "chip": "ym2612"
    },
    {
      "channel": 1,
      "note": 50,
      "start": 31.0622,
      "duration": 0.0063,
      "velocity": 107,
      "chip": "ym2612"
    },
    {
      "channel": 2,
      "note": 81,
      "start": 31.0624,
      "duration": 0.0064,
      "velocity": 84,
      "chip": "ym2612"
    },
    {
      "channel": 4,
      "note": 50,
      "start": 31.0627,
      "duration": 0.0064,
      "velocity": 84,
      "chip": "ym2612"
    },
    {
      "channel": 0,
      "note": 50,
      "start": 31.0684,
      "duration": 0.007,
      "velocity": 84,
      "chip": "ym2612"
    },
    {
      "channel": 1,
      "note": 50,
      "start": 31.0687,
      "duration": 0.007,
      "velocity": 107,
      "chip": "ym2612"
    },
    {
      "channel": 2,
      "note": 62,
      "start": 31.069,
      "duration": 0.007,
      "velocity": 84,
      "chip": "ym2612"
    },
    {
      "channel": 4,
      "note": 74,
      "start": 31.0693,
      "duration": 0.0071,
      "velocity": 84,
      "chip": "ym2612"
    },
    {
      "channel": 0,
      "note": 50,
      "start": 31.0756,
      "duration": 0.1167,
      "velocity": 84,
      "chip": "ym2612"
    },
    {
      "channel": 1,
      "note": 50,
      "start": 31.0759,
      "duration": 0.1168,
      "velocity": 107,
      "chip": "ym2612"
    },
    {
      "channel": 2,
      "note": 62,
      "start": 31.0762,
      "duration": 0.1168,
      "velocity": 84,
      "chip": "ym2612"
    },
    {
      "channel": 4,
      "note": 50,
      "start": 31.0766,
      "duration": 0.1167,
      "velocity": 84,
      "chip": "ym2612"
    },
    {
      "channel": 0,
      "note": 74,
      "start": 31.1926,
      "duration": 0.0071,
      "velocity": 84,
      "chip": "ym2612"
    },
    {
      "channel": 1,
      "note": 50,
      "start": 31.1929,
      "duration": 0.0068,
      "velocity": 107,
      "chip": "ym2612"
    },
    {
      "channel": 2,
      "note": 81,
      "start": 31.1932,
      "duration": 0.0069,
      "velocity": 84,
      "chip": "ym2612"
    },
    {
      "channel": 4,
      "note": 50,
      "start": 31.1934,
      "duration": 0.0069,
      "velocity": 84,
      "chip": "ym2612"
    },
    {
      "channel": 0,
      "note": 50,
      "start": 31.1998,
      "duration": 0.0802,
      "velocity": 84,
      "chip": "ym2612"
    },
    {
      "channel": 1,
      "note": 50,
      "start": 31.2,
      "duration": 0.0802,
      "velocity": 107,
      "chip": "ym2612"
    },
    {
      "channel": 2,
      "note": 62,
      "start": 31.2002,
      "duration": 0.0802,
      "velocity": 84,
      "chip": "ym2612"
    },
    {
      "channel": 4,
      "note": 74,
      "start": 31.2005,
      "duration": 0.0803,
      "velocity": 84,
      "chip": "ym2612"
    },
    {
      "channel": 0,
      "note": 50,
      "start": 31.2801,
      "duration": 0.0998,
      "velocity": 84,
      "chip": "ym2612"
    },
    {
      "channel": 1,
      "note": 50,
      "start": 31.2804,
      "duration": 0.0998,
      "velocity": 107,
      "chip": "ym2612"
    },
    {
      "channel": 2,
      "note": 62,
      "start": 31.2807,
      "duration": 0.0997,
      "velocity": 84,
      "chip": "ym2612"
    },
    {
      "channel": 4,
      "note": 50,
      "start": 31.281,
      "duration": 0.0998,
      "velocity": 84,
      "chip": "ym2612"
    },
    {
      "channel": 0,
      "note": 74,
      "start": 31.3801,
      "duration": 0.1167,
      "velocity": 84,
      "chip": "ym2612"
    },
    {
      "channel": 1,
      "note": 50,
      "start": 31.3804,
      "duration": 0.1168,
      "velocity": 107,
      "chip": "ym2612"
    },
    {
      "channel": 2,
      "note": 81,
      "start": 31.3807,
      "duration": 0.1167,
      "velocity": 84,
      "chip": "ym2612"
    },
    {
      "channel": 4,
      "note": 50,
      "start": 31.381,
      "duration": 0.1167,
      "velocity": 84,
      "chip": "ym2612"
    },
    {
      "channel": 0,
      "note": 49,
      "start": 31.4971,
      "duration": 0.0126,
      "velocity": 84,
      "chip": "ym2612"
    },
    {
      "channel": 1,
      "note": 50,
      "start": 31.4973,
      "duration": 0.0062,
      "velocity": 107,
      "chip": "ym2612"
    },
    {
      "channel": 2,
      "note": 61,
      "start": 31.4976,
      "duration": 0.0125,
      "velocity": 84,
      "chip": "ym2612"
    },
    {
      "channel": 4,
      "note": 74,
      "start": 31.4979,
      "duration": 0.0061,
      "velocity": 84,
      "chip": "ym2612"
    },
    {
      "channel": 1,
      "note": 50,
      "start": 31.5037,
      "duration": 0.0062,
      "velocity": 107,
      "chip": "ym2612"
    },
    {
      "channel": 4,
      "note": 49,
      "start": 31.5041,
      "duration": 0.0133,
      "velocity": 84,
      "chip": "ym2612"
    },
    {
      "channel": 0,
      "note": 76,
      "start": 31.5098,
      "duration": 0.1239,
      "velocity": 84,
      "chip": "ym2612"
    },
    {
      "channel": 1,
      "note": 50,
      "start": 31.5101,
      "duration": 0.0068,
      "velocity": 107,
      "chip": "ym2612"
    },
    {
      "channel": 2,
      "note": 83,
      "start": 31.5103,
      "duration": 0.1242,
      "velocity": 84,
      "chip": "ym2612"
    },
    {
      "channel": 1,
      "note": 50,
      "start": 31.5171,
      "duration": 0.1171,
      "velocity": 107,
      "chip": "ym2612"
    },
    {
      "channel": 4,
      "note": 76,
      "start": 31.5176,
      "duration": 0.1234,
      "velocity": 84,
      "chip": "ym2612"
    },
    {
      "channel": 0,
      "note": 50,
      "start": 31.6341,
      "duration": 0.0702,
      "velocity": 84,
      "chip": "ym2612"
    },
    {
      "channel": 1,
      "note": 50,
      "start": 31.6343,
      "duration": 0.0062,
      "velocity": 107,
      "chip": "ym2612"
    },
    {
      "channel": 2,
      "note": 62,
      "start": 31.6347,
      "duration": 0.0702,
      "velocity": 84,
      "chip": "ym2612"
    },
    {
      "channel": 1,
      "note": 50,
      "start": 31.6407,
      "duration": 0.0638,
      "velocity": 107,
      "chip": "ym2612"
    },
    {
      "channel": 4,
      "note": 50,
      "start": 31.6412,
      "duration": 0.1807,
      "velocity": 84,
      "chip": "ym2612"
    },
    {
      "channel": 0,
      "note": 74,
      "start": 31.7045,
      "duration": 0.1165,
      "velocity": 84,
      "chip": "ym2612"
    },
    {
      "channel": 1,
      "note": 50,
      "start": 31.7048,
      "duration": 0.1164,
      "velocity": 107,
      "chip": "ym2612"
    },
    {
      "channel": 2,
      "note": 81,
      "start": 31.7051,
      "duration": 0.1164,
      "velocity": 84,
      "chip": "ym2612"
    },
    {
      "channel": 0,
      "note": 50,
      "start": 31.8212,
      "duration": 0.1167,
      "velocity": 84,
      "chip": "ym2612"
    },
    {
      "channel": 1,
      "note": 50,
      "start": 31.8214,
      "duration": 0.1168,
      "velocity": 107,
      "chip": "ym2612"
    },
    {
      "channel": 2,
      "note": 62,
      "start": 31.8217,
      "duration": 0.1167,
      "velocity": 84,
      "chip": "ym2612"
    },
    {
      "channel": 4,
      "note": 74,
      "start": 31.8221,
      "duration": 0.1166,
      "velocity": 84,
      "chip": "ym2612"
    },
    {
      "channel": 0,
      "note": 50,
      "start": 31.9381,
      "duration": 0.0063,
      "velocity": 84,
      "chip": "ym2612"
    },
    {
      "channel": 1,
      "note": 50,
      "start": 31.9383,
      "duration": 0.0063,
      "velocity": 107,
      "chip": "ym2612"
    },
    {
      "channel": 2,
      "note": 62,
      "start": 31.9387,
      "duration": 0.0062,
      "velocity": 84,
      "chip": "ym2612"
    },
    {
      "channel": 4,
      "note": 50,
      "start": 31.9389,
      "duration": 0.0063,
      "velocity": 84,
      "chip": "ym2612"
    },
    {
      "channel": 0,
      "note": 74,
      "start": 31.9445,
      "duration": 0.0062,
      "velocity": 84,
      "chip": "ym2612"
    },
    {
      "channel": 1,
      "note": 50,
      "start": 31.9448,
      "duration": 0.0061,
      "velocity": 107,
      "chip": "ym2612"
    },
    {
      "channel": 2,
      "note": 81,
      "start": 31.945,
      "duration": 0.0062,
      "velocity": 84,
      "chip": "ym2612"
    },
    {
      "channel": 4,
      "note": 50,
      "start": 31.9453,
      "duration": 0.0062,
      "velocity": 84,
      "chip": "ym2612"
    },
    {
      "channel": 0,
      "note": 50,
      "start": 31.9509,
      "duration": 0.0072,
      "velocity": 84,
      "chip": "ym2612"
    },
    {
      "channel": 1,
      "note": 50,
      "start": 31.9512,
      "duration": 0.0072,
      "velocity": 107,
      "chip": "ym2612"
    },
    {
      "channel": 2,
      "note": 62,
      "start": 31.9514,
      "duration": 0.0072,
      "velocity": 84,
      "chip": "ym2612"
    },
    {
      "channel": 4,
      "note": 74,
      "start": 31.9517,
      "duration": 0.0073,
      "velocity": 84,
      "chip": "ym2612"
    },
    {
      "channel": 0,
      "note": 50,
      "start": 31.9583,
      "duration": 0.1167,
      "velocity": 84,
      "chip": "ym2612"
    },
    {
      "channel": 1,
      "note": 50,
      "start": 31.9586,
      "duration": 0.1168,
      "velocity": 107,
      "chip": "ym2612"
    },
    {
      "channel": 2,
      "note": 62,
      "start": 31.9589,
      "duration": 0.1168,
      "velocity": 84,
      "chip": "ym2612"
    },
    {
      "channel": 4,
      "note": 50,
      "start": 31.9593,
      "duration": 0.1168,
      "velocity": 84,
      "chip": "ym2612"
    },
    {
      "channel": 0,
      "note": 74,
      "start": 32.0753,
      "duration": 0.0068,
      "velocity": 84,
      "chip": "ym2612"
    },
    {
      "channel": 1,
      "note": 50,
      "start": 32.0756,
      "duration": 0.0067,
      "velocity": 107,
      "chip": "ym2612"
    },
    {
      "channel": 2,
      "note": 81,
      "start": 32.0758,
      "duration": 0.0068,
      "velocity": 84,
      "chip": "ym2612"
    },
    {
      "channel": 3,
      "note": 93,
      "start": 32.0761,
      "duration": 0.0067,
      "velocity": 117,
      "chip": "ym2612"
    },
    {
      "channel": 4,
      "note": 50,
      "start": 32.0763,
      "duration": 0.0068,
      "velocity": 84,
      "chip": "ym2612"
    },
    {
      "channel": 0,
      "note": 50,
      "start": 32.0822,
      "duration": 0.0643,
      "velocity": 84,
      "chip": "ym2612"
    },
    {
      "channel": 1,
      "note": 50,
      "start": 32.0825,
      "duration": 0.0643,
      "velocity": 107,
      "chip": "ym2612"
    },
    {
      "channel": 2,
      "note": 62,
      "start": 32.0827,
      "duration": 0.0643,
      "velocity": 84,
      "chip": "ym2612"
    },
    {
      "channel": 3,
      "note": 88,
      "start": 32.083,
      "duration": 0.0644,
      "velocity": 117,
      "chip": "ym2612"
    },
    {
      "channel": 4,
      "note": 74,
      "start": 32.0832,
      "duration": 0.0644,
      "velocity": 84,
      "chip": "ym2612"
    },
    {
      "channel": 0,
      "note": 50,
      "start": 32.1467,
      "duration": 0.1165,
      "velocity": 84,
      "chip": "ym2612"
    },
    {
      "channel": 1,
      "note": 50,
      "start": 32.147,
      "duration": 0.1165,
      "velocity": 107,
      "chip": "ym2612"
    },
    {
      "channel": 2,
      "note": 62,
      "start": 32.1473,
      "duration": 0.1164,
      "velocity": 84,
      "chip": "ym2612"
    },
    {
      "channel": 3,
      "note": 83,
      "start": 32.1476,
      "duration": 0.1164,
      "velocity": 117,
      "chip": "ym2612"
    },
    {
      "channel": 4,
      "note": 50,
      "start": 32.1479,
      "duration": 0.1165,
      "velocity": 84,
      "chip": "ym2612"
    },
    {
      "channel": 0,
      "note": 74,
      "start": 32.2634,
      "duration": 0.1167,
      "velocity": 84,
      "chip": "ym2612"
    },
    {
      "channel": 1,
      "note": 50,
      "start": 32.2637,
      "duration": 0.1168,
      "velocity": 107,
      "chip": "ym2612"
    },
    {
      "channel": 2,
      "note": 81,
      "start": 32.264,
      "duration": 0.1167,
      "velocity": 84,
      "chip": "ym2612"
    },
    {
      "channel": 3,
      "note": 76,
      "start": 32.2643,
      "duration": 0.1167,
      "velocity": 117,
      "chip": "ym2612"
    },
    {
      "channel": 4,
      "note": 50,
      "start": 32.2646,
      "duration": 0.1167,
      "velocity": 84,
      "chip": "ym2612"
    },
    {
      "channel": 0,
      "note": 49,
      "start": 32.3804,
      "duration": 0.0138,
      "velocity": 84,
      "chip": "ym2612"
    },
    {
      "channel": 1,
      "note": 50,
      "start": 32.3806,
      "duration": 0.007,
      "velocity": 107,
      "chip": "ym2612"
    },
    {
      "channel": 2,
      "note": 61,
      "start": 32.3809,
      "duration": 0.0138,
      "velocity": 84,
      "chip": "ym2612"
    },
    {
      "channel": 3,
      "note": 71,
      "start": 32.3812,
      "duration": 0.0068,
      "velocity": 117,
      "chip": "ym2612"
    },
    {
      "channel": 4,
      "note": 74,
      "start": 32.3814,
      "duration": 0.0068,
      "velocity": 84,
      "chip": "ym2612"
    },
    {
      "channel": 1,
      "note": 50,
      "start": 32.3878,
      "duration": 0.0067,
      "velocity": 107,
      "chip": "ym2612"
    },
    {
      "channel": 3,
      "note": 68,
      "start": 32.3881,
      "duration": 0.0069,
      "velocity": 117,
      "chip": "ym2612"
    },
    {
      "channel": 4,
      "note": 49,
      "start": 32.3883,
      "duration": 0.0139,
      "velocity": 84,
      "chip": "ym2612"
    },
    {
      "channel": 0,
      "note": 76,
      "start": 32.3944,
      "duration": 0.0136,
      "velocity": 84,
      "chip": "ym2612"
    },
    {
      "channel": 1,
      "note": 50,
      "start": 32.3947,
      "duration": 0.0069,
      "velocity": 107,
      "chip": "ym2612"
    },
    {
      "channel": 2,
      "note": 83,
      "start": 32.3949,
      "duration": 0.0139,
      "velocity": 84,
      "chip": "ym2612"
    },
    {
      "channel": 3,
      "note": 59,
      "start": 32.3952,
      "duration": 0.0068,
      "velocity": 117,
      "chip": "ym2612"
    },
    {
      "channel": 1,
      "note": 50,
      "start": 32.4018,
      "duration": 0.0066,
      "velocity": 107,
      "chip": "ym2612"
    },
    {
      "channel": 3,
      "note": 54,
      "start": 32.4022,
      "duration": 0.0069,
      "velocity": 117,
      "chip": "ym2612"
    },
    {
      "channel": 4,
      "note": 76,
      "start": 32.4023,
      "duration": 0.015,
      "velocity": 84,
      "chip": "ym2612"
    },
    {
      "channel": 0,
      "note": 49,
      "start": 32.4083,
      "duration": 0.0889,
      "velocity": 84,
      "chip": "ym2612"
    },
    {
      "channel": 1,
      "note": 49,
      "start": 32.4086,
      "duration": 0.0083,
      "velocity": 107,
      "chip": "ym2612"
    },
    {
      "channel": 2,
      "note": 61,
      "start": 32.409,
      "duration": 0.0887,
      "velocity": 84,
      "chip": "ym2612"
    },
    {
      "channel": 1,
      "note": 49,
      "start": 32.4171,
      "duration": 0.0805,
      "velocity": 107,
      "chip": "ym2612"
    },
    {
      "channel": 4,
      "note": 49,
      "start": 32.4175,
      "duration": 0.1973,
      "velocity": 84,
      "chip": "ym2612"
    },
    {
      "channel": 0,
      "note": 73,
      "start": 32.4974,
      "duration": 0.1165,
      "velocity": 84,
      "chip": "ym2612"
    },
    {
      "channel": 1,
      "note": 49,
      "start": 32.4977,
      "duration": 0.1164,
      "velocity": 107,
      "chip": "ym2612"
    },
    {
      "channel": 2,
      "note": 80,
      "start": 32.498,
      "duration": 0.1163,
      "velocity": 84,
      "chip": "ym2612"
    },
    {
      "channel": 0,
      "note": 49,
      "start": 32.614,
      "duration": 0.1167,
      "velocity": 84,
      "chip": "ym2612"
    },
    {
      "channel": 1,
      "note": 49,
      "start": 32.6143,
      "duration": 0.1167,
      "velocity": 107,
      "chip": "ym2612"
    },
    {
      "channel": 2,
      "note": 61,
      "start": 32.6146,
      "duration": 0.1167,
      "velocity": 84,
      "chip": "ym2612"
    },
    {
      "channel": 4,
      "note": 73,
      "start": 32.615,
      "duration": 0.1166,
      "velocity": 84,
      "chip": "ym2612"
    },
    {
      "channel": 0,
      "note": 49,
      "start": 32.7309,
      "duration": 0.0064,
      "velocity": 84,
      "chip": "ym2612"
    },
    {
      "channel": 1,
      "note": 49,
      "start": 32.7312,
      "duration": 0.0063,
      "velocity": 107,
      "chip": "ym2612"
    },
    {
      "channel": 2,
      "note": 61,
      "start": 32.7315,
      "duration": 0.0063,
      "velocity": 84,
      "chip": "ym2612"
    },
    {
      "channel": 4,
      "note": 49,
      "start": 32.7317,
      "duration": 0.0063,
      "velocity": 84,
      "chip": "ym2612"
    },
    {
      "channel": 0,
      "note": 73,
      "start": 32.7374,
      "duration": 0.0063,
      "velocity": 84,
      "chip": "ym2612"
    },
    {
      "channel": 1,
      "note": 49,
      "start": 32.7377,
      "duration": 0.0062,
      "velocity": 107,
      "chip": "ym2612"
    },
    {
      "channel": 2,
      "note": 80,
      "start": 32.7379,
      "duration": 0.0063,
      "velocity": 84,
      "chip": "ym2612"
    },
    {
      "channel": 4,
      "note": 49,
      "start": 32.7382,
      "duration": 0.0062,
      "velocity": 84,
      "chip": "ym2612"
    },
    {
      "channel": 0,
      "note": 49,
      "start": 32.7438,
      "duration": 0.0054,
      "velocity": 84,
      "chip": "ym2612"
    },
    {
      "channel": 1,
      "note": 49,
      "start": 32.7441,
      "duration": 0.0054,
      "velocity": 107,
      "chip": "ym2612"
    },
    {
      "channel": 2,
      "note": 61,
      "start": 32.7443,
      "duration": 0.0053,
      "velocity": 84,
      "chip": "ym2612"
    },
    {
      "channel": 4,
      "note": 73,
      "start": 32.7446,
      "duration": 0.0053,
      "velocity": 84,
      "chip": "ym2612"
    },
    {
      "channel": 0,
      "note": 49,
      "start": 32.7494,
      "duration": 0.1021,
      "velocity": 84,
      "chip": "ym2612"
    },
    {
      "channel": 1,
      "note": 49,
      "start": 32.7496,
      "duration": 0.1024,
      "velocity": 107,
      "chip": "ym2612"
    },
    {
      "channel": 2,
      "note": 61,
      "start": 32.7499,
      "duration": 0.1023,
      "velocity": 84,
      "chip": "ym2612"
    },
    {
      "channel": 4,
      "note": 49,
      "start": 32.75,
      "duration": 0.1025,
      "velocity": 84,
      "chip": "ym2612"
    },
    {
      "channel": 0,
      "note": 73,
      "start": 32.8518,
      "duration": 0.0068,
      "velocity": 84,
      "chip": "ym2612"
    },
    {
      "channel": 1,
      "note": 49,
      "start": 32.8521,
      "duration": 0.0066,
      "velocity": 107,
      "chip": "ym2612"
    },
    {
      "channel": 2,
      "note": 80,
      "start": 32.8524,
      "duration": 0.0066,
      "velocity": 84,
      "chip": "ym2612"
    },
    {
      "channel": 4,
      "note": 49,
      "start": 32.8527,
      "duration": 0.0065,
      "velocity": 84,
      "chip": "ym2612"
    },
    {
      "channel": 0,
      "note": 49,
      "start": 32.8587,
      "duration": 0.0803,
      "velocity": 84,
      "chip": "ym2612"
    },
    {
      "channel": 1,
      "note": 49,
      "start": 32.859,
      "duration": 0.0803,
      "velocity": 107,
      "chip": "ym2612"
    },
    {
      "channel": 2,
      "note": 61,
      "start": 32.8592,
      "duration": 0.0804,
      "velocity": 84,
      "chip": "ym2612"
    },
    {
      "channel": 4,
      "note": 73,
      "start": 32.8594,
      "duration": 0.0805,
      "velocity": 84,
      "chip": "ym2612"
    },
    {
      "channel": 0,
      "note": 49,
      "start": 32.9391,
      "duration": 0.1165,
      "velocity": 84,
      "chip": "ym2612"
    },
    {
      "channel": 1,
      "note": 49,
      "start": 32.9395,
      "duration": 0.1164,
      "velocity": 107,
      "chip": "ym2612"
    },
    {
      "channel": 2,
      "note": 61,
      "start": 32.9398,
      "duration": 0.1163,
      "velocity": 84,
      "chip": "ym2612"
    },
    {
      "channel": 4,
      "note": 49,
      "start": 32.9401,
      "duration": 0.1164,
      "velocity": 84,
      "chip": "ym2612"
    },
    {
      "channel": 0,
      "note": 73,
      "start": 33.0558,
      "duration": 0.1167,
      "velocity": 84,
      "chip": "ym2612"
    },
    {
      "channel": 1,
      "note": 49,
      "start": 33.0561,
      "duration": 0.1168,
      "velocity": 107,
      "chip": "ym2612"
    },
    {
      "channel": 2,
      "note": 80,
      "start": 33.0564,
      "duration": 0.1167,
      "velocity": 84,
      "chip": "ym2612"
    },
    {
      "channel": 4,
      "note": 49,
      "start": 33.0568,
      "duration": 0.1166,
      "velocity": 84,
      "chip": "ym2612"
    },
    {
      "channel": 0,
      "note": 47,
      "start": 33.1728,
      "duration": 0.0115,
      "velocity": 84,
      "chip": "ym2612"
    },
    {
      "channel": 1,
      "note": 49,
      "start": 33.173,
      "duration": 0.0061,
      "velocity": 107,
      "chip": "ym2612"
    },
    {
      "channel": 2,
      "note": 59,
      "start": 33.1733,
      "duration": 0.0115,
      "velocity": 84,
      "chip": "ym2612"
    },
    {
      "channel": 4,
      "note": 73,
      "start": 33.1736,
      "duration": 0.0059,
      "velocity": 84,
      "chip": "ym2612"
    },
    {
      "channel": 1,
      "note": 49,
      "start": 33.1794,
      "duration": 0.0051,
      "velocity": 107,
      "chip": "ym2612"
    },
    {
      "channel": 4,
      "note": 47,
      "start": 33.1797,
      "duration": 0.0114,
      "velocity": 84,
      "chip": "ym2612"
    },
    {
      "channel": 0,
      "note": 74,
      "start": 33.1844,
      "duration": 0.1085,
      "velocity": 84,
      "chip": "ym2612"
    },
    {
      "channel": 1,
      "note": 49,
      "start": 33.1847,
      "duration": 0.006,
      "velocity": 107,
      "chip": "ym2612"
    },
    {
      "channel": 2,
      "note": 81,
      "start": 33.1849,
      "duration": 0.1088,
      "velocity": 84,
      "chip": "ym2612"
    },
    {
      "channel": 1,
      "note": 49,
      "start": 33.1909,
      "duration": 0.1025,
      "velocity": 107,
      "chip": "ym2612"
    },
    {
      "channel": 4,
      "note": 74,
      "start": 33.1912,
      "duration": 0.1093,
      "velocity": 84,
      "chip": "ym2612"
    },
    {
      "channel": 0,
      "note": 49,
      "start": 33.2932,
      "duration": 0.087,
      "velocity": 84,
      "chip": "ym2612"
    },
    {
      "channel": 1,
      "note": 49,
      "start": 33.2936,
      "duration": 0.0066,
      "velocity": 107,
      "chip": "ym2612"
    },
    {
      "channel": 2,
      "note": 61,
      "start": 33.2939,
      "duration": 0.0868,
      "velocity": 84,
      "chip": "ym2612"
    },
    {
      "channel": 1,
      "note": 49,
      "start": 33.3003,
      "duration": 0.0802,
      "velocity": 107,
      "chip": "ym2612"
    },
    {
      "channel": 4,
      "note": 49,
      "start": 33.3007,
      "duration": 0.1971,
      "velocity": 84,
      "chip": "ym2612"
    },
    {
      "channel": 0,
      "note": 73,
      "start": 33.3804,
      "duration": 0.1165,
      "velocity": 84,
      "chip": "ym2612"
    },
    {
      "channel": 1,
      "note": 49,
      "start": 33.3807,
      "duration": 0.1164,
      "velocity": 107,
      "chip": "ym2612"
    },
    {
      "channel": 2,
      "note": 80,
      "start": 33.381,
      "duration": 0.1163,
      "velocity": 84,
      "chip": "ym2612"
    },
    {
      "channel": 0,
      "note": 49,
      "start": 33.4971,
      "duration": 0.1167,
      "velocity": 84,
      "chip": "ym2612"
    },
    {
      "channel": 1,
      "note": 49,
      "start": 33.4973,
      "duration": 0.1168,
      "velocity": 107,
      "chip": "ym2612"
    },
    {
      "channel": 2,
      "note": 61,
      "start": 33.4976,
      "duration": 0.1167,
      "velocity": 84,
      "chip": "ym2612"
    },
    {
      "channel": 4,
      "note": 73,
      "start": 33.498,
      "duration": 0.1165,
      "velocity": 84,
      "chip": "ym2612"
    },
    {
      "channel": 0,
      "note": 49,
      "start": 33.614,
      "duration": 0.0054,
      "velocity": 84,
      "chip": "ym2612"
    },
    {
      "channel": 1,
      "note": 49,
      "start": 33.6143,
      "duration": 0.0054,
      "velocity": 107,
      "chip": "ym2612"
    },
    {
      "channel": 2,
      "note": 61,
      "start": 33.6145,
      "duration": 0.0054,
      "velocity": 84,
      "chip": "ym2612"
    },
    {
      "channel": 4,
      "note": 49,
      "start": 33.6147,
      "duration": 0.0054,
      "velocity": 84,
      "chip": "ym2612"
    },
    {
      "channel": 0,
      "note": 73,
      "start": 33.6195,
      "duration": 0.0061,
      "velocity": 84,
      "chip": "ym2612"
    },
    {
      "channel": 1,
      "note": 49,
      "start": 33.6198,
      "duration": 0.0061,
      "velocity": 107,
      "chip": "ym2612"
    },
    {
      "channel": 2,
      "note": 80,
      "start": 33.62,
      "duration": 0.0063,
      "velocity": 84,
      "chip": "ym2612"
    },
    {
      "channel": 4,
      "note": 49,
      "start": 33.6203,
      "duration": 0.0062,
      "velocity": 84,
      "chip": "ym2612"
    },
    {
      "channel": 0,
      "note": 49,
      "start": 33.6259,
      "duration": 0.0063,
      "velocity": 84,
      "chip": "ym2612"
    },
    {
      "channel": 1,
      "note": 49,
      "start": 33.6262,
      "duration": 0.0062,
      "velocity": 107,
      "chip": "ym2612"
    },
    {
      "channel": 2,
      "note": 61,
      "start": 33.6264,
      "duration": 0.0063,
      "velocity": 84,
      "chip": "ym2612"
    },
    {
      "channel": 4,
      "note": 73,
      "start": 33.6266,
      "duration": 0.0063,
      "velocity": 84,
      "chip": "ym2612"
    },
    {
      "channel": 0,
      "note": 49,
      "start": 33.6324,
      "duration": 0.1021,
      "velocity": 84,
      "chip": "ym2612"
    },
    {
      "channel": 1,
      "note": 49,
      "start": 33.6327,
      "duration": 0.1022,
      "velocity": 107,
      "chip": "ym2612"
    },
    {
      "channel": 2,
      "note": 61,
      "start": 33.6329,
      "duration": 0.1022,
      "velocity": 84,
      "chip": "ym2612"
    },
    {
      "channel": 4,
      "note": 49,
      "start": 33.6332,
      "duration": 0.1022,
      "velocity": 84,
      "chip": "ym2612"
    },
    {
      "channel": 0,
      "note": 73,
      "start": 33.7347,
      "duration": 0.0065,
      "velocity": 84,
      "chip": "ym2612"
    },
    {
      "channel": 1,
      "note": 49,
      "start": 33.735,
      "duration": 0.0065,
      "velocity": 107,
      "chip": "ym2612"
    },
    {
      "channel": 2,
      "note": 80,
      "start": 33.7353,
      "duration": 0.0065,
      "velocity": 84,
      "chip": "ym2612"
    },
    {
      "channel": 4,
      "note": 49,
      "start": 33.7356,
      "duration": 0.0066,
      "velocity": 84,
      "chip": "ym2612"
    },
    {
      "channel": 0,
      "note": 49,
      "start": 33.7414,
      "duration": 0.0803,
      "velocity": 84,
      "chip": "ym2612"
    },
    {
      "channel": 1,
      "note": 49,
      "start": 33.7417,
      "duration": 0.0803,
      "velocity": 107,
      "chip": "ym2612"
    },
    {
      "channel": 2,
      "note": 61,
      "start": 33.742,
      "duration": 0.0803,
      "velocity": 84,
      "chip": "ym2612"
    },
    {
      "channel": 4,
      "note": 73,
      "start": 33.7424,
      "duration": 0.0803,
      "velocity": 84,
      "chip": "ym2612"
    },
    {
      "channel": 0,
      "note": 49,
      "start": 33.8219,
      "duration": 0.1165,
      "velocity": 84,
      "chip": "ym2612"
    },
    {
      "channel": 1,
      "note": 49,
      "start": 33.8222,
      "duration": 0.1164,
      "velocity": 107,
      "chip": "ym2612"
    },
    {
      "channel": 2,
      "note": 61,
      "start": 33.8225,
      "duration": 0.1163,
      "velocity": 84,
      "chip": "ym2612"
    },
    {
      "channel": 4,
      "note": 49,
      "start": 33.8228,
      "duration": 0.1164,
      "velocity": 84,
      "chip": "ym2612"
    },
    {
      "channel": 0,
      "note": 73,
      "start": 33.9385,
      "duration": 0.1001,
      "velocity": 84,
      "chip": "ym2612"
    },
    {
      "channel": 1,
      "note": 49,
      "start": 33.9388,
      "duration": 0.1001,
      "velocity": 107,
      "chip": "ym2612"
    },
    {
      "channel": 2,
      "note": 80,
      "start": 33.9391,
      "duration": 0.1,
      "velocity": 84,
      "chip": "ym2612"
    },
    {
      "channel": 4,
      "note": 49,
      "start": 33.9395,
      "duration": 0.1,
      "velocity": 84,
      "chip": "ym2612"
    },
    {
      "channel": 0,
      "note": 47,
      "start": 34.0389,
      "duration": 0.0129,
      "velocity": 84,
      "chip": "ym2612"
    },
    {
      "channel": 1,
      "note": 49,
      "start": 34.0391,
      "duration": 0.006,
      "velocity": 107,
      "chip": "ym2612"
    },
    {
      "channel": 2,
      "note": 59,
      "start": 34.0394,
      "duration": 0.013,
      "velocity": 84,
      "chip": "ym2612"
    },
    {
      "channel": 4,
      "note": 73,
      "start": 34.0398,
      "duration": 0.0058,
      "velocity": 84,
      "chip": "ym2612"
    },
    {
      "channel": 1,
      "note": 49,
      "start": 34.0453,
      "duration": 0.0068,
      "velocity": 107,
      "chip": "ym2612"
    },
    {
      "channel": 4,
      "note": 47,
      "start": 34.0457,
      "duration": 0.0133,
      "velocity": 84,
      "chip": "ym2612"
    },
    {
      "channel": 0,
      "note": 74,
      "start": 34.0521,
      "duration": 0.0126,
      "velocity": 84,
      "chip": "ym2612"
    },
    {
      "channel": 1,
      "note": 49,
      "start": 34.0523,
      "duration": 0.0063,
      "velocity": 107,
      "chip": "ym2612"
    },
    {
      "channel": 2,
      "note": 81,
      "start": 34.0525,
      "duration": 0.013,
      "velocity": 84,
      "chip": "ym2612"
    },
    {
      "channel": 1,
      "note": 49,
      "start": 34.0588,
      "duration": 0.0062,
      "velocity": 107,
      "chip": "ym2612"
    },
    {
      "channel": 4,
      "note": 74,
      "start": 34.0592,
      "duration": 0.0129,
      "velocity": 84,
      "chip": "ym2612"
    },
    {
      "channel": 0,
      "note": 50,
      "start": 34.0649,
      "duration": 0.0872,
      "velocity": 84,
      "chip": "ym2612"
    },
    {
      "channel": 1,
      "note": 50,
      "start": 34.0653,
      "duration": 0.0063,
      "velocity": 107,
      "chip": "ym2612"
    },
    {
      "channel": 2,
      "note": 62,
      "start": 34.0656,
      "duration": 0.087,
      "velocity": 84,
      "chip": "ym2612"
    },
    {
      "channel": 1,
      "note": 50,
      "start": 34.0717,
      "duration": 0.0806,
      "velocity": 107,
      "chip": "ym2612"
    },
    {
      "channel": 4,
      "note": 50,
      "start": 34.0723,
      "duration": 0.1807,
      "velocity": 84,
      "chip": "ym2612"
    },
    {
      "channel": 0,
      "note": 74,
      "start": 34.1523,
      "duration": 0.0998,
      "velocity": 84,
      "chip": "ym2612"
    },
    {
      "channel": 1,
      "note": 50,
      "start": 34.1526,
      "duration": 0.0998,
      "velocity": 107,
      "chip": "ym2612"
    },
    {
      "channel": 2,
      "note": 81,
      "start": 34.1529,
      "duration": 0.0997,
      "velocity": 84,
      "chip": "ym2612"
    },
    {
      "channel": 0,
      "note": 50,
      "start": 34.2523,
      "duration": 0.1167,
      "velocity": 84,
      "chip": "ym2612"
    },
    {
      "channel": 1,
      "note": 50,
      "start": 34.2526,
      "duration": 0.1167,
      "velocity": 107,
      "chip": "ym2612"
    },
    {
      "channel": 2,
      "note": 62,
      "start": 34.2529,
      "duration": 0.1166,
      "velocity": 84,
      "chip": "ym2612"
    },
    {
      "channel": 4,
      "note": 74,
      "start": 34.2532,
      "duration": 0.1165,
      "velocity": 84,
      "chip": "ym2612"
    },
    {
      "channel": 0,
      "note": 50,
      "start": 34.3692,
      "duration": 0.0065,
      "velocity": 84,
      "chip": "ym2612"
    },
    {
      "channel": 1,
      "note": 50,
      "start": 34.3695,
      "duration": 0.0064,
      "velocity": 107,
      "chip": "ym2612"
    },
    {
      "channel": 2,
      "note": 62,
      "start": 34.3697,
      "duration": 0.0065,
      "velocity": 84,
      "chip": "ym2612"
    },
    {
      "channel": 4,
      "note": 50,
      "start": 34.37,
      "duration": 0.0064,
      "velocity": 84,
      "chip": "ym2612"
    },
    {
      "channel": 0,
      "note": 74,
      "start": 34.3758,
      "duration": 0.0064,
      "velocity": 84,
      "chip": "ym2612"
    },
    {
      "channel": 1,
      "note": 50,
      "start": 34.3761,
      "duration": 0.0063,
      "velocity": 107,
      "chip": "ym2612"
    },
    {
      "channel": 2,
      "note": 81,
      "start": 34.3763,
      "duration": 0.0064,
      "velocity": 84,
      "chip": "ym2612"
    },
    {
      "channel": 4,
      "note": 50,
      "start": 34.3766,
      "duration": 0.0064,
      "velocity": 84,
      "chip": "ym2612"
    },
    {
      "channel": 0,
      "note": 50,
      "start": 34.3824,
      "duration": 0.0072,
      "velocity": 84,
      "chip": "ym2612"
    },
    {
      "channel": 1,
      "note": 50,
      "start": 34.3827,
      "duration": 0.0071,
      "velocity": 107,
      "chip": "ym2612"
    },
    {
      "channel": 2,
      "note": 62,
      "start": 34.3829,
      "duration": 0.0072,
      "velocity": 84,
      "chip": "ym2612"
    },
    {
      "channel": 4,
      "note": 74,
      "start": 34.3832,
      "duration": 0.0073,
      "velocity": 84,
      "chip": "ym2612"
    },
    {
      "channel": 0,
      "note": 50,
      "start": 34.3897,
      "duration": 0.1167,
      "velocity": 84,
      "chip": "ym2612"
    },
    {
      "channel": 1,
      "note": 50,
      "start": 34.39,
      "duration": 0.1168,
      "velocity": 107,
      "chip": "ym2612"
    },
    {
      "channel": 2,
      "note": 62,
      "start": 34.3903,
      "duration": 0.1168,
      "velocity": 84,
      "chip": "ym2612"
    },
    {
      "channel": 4,
      "note": 50,
      "start": 34.3907,
      "duration": 0.1167,
      "velocity": 84,
      "chip": "ym2612"
    },
    {
      "channel": 0,
      "note": 74,
      "start": 34.5067,
      "duration": 0.0067,
      "velocity": 84,
      "chip": "ym2612"
    },
    {
      "channel": 1,
      "note": 50,
      "start": 34.5071,
      "duration": 0.0065,
      "velocity": 107,
      "chip": "ym2612"
    },
    {
      "channel": 2,
      "note": 81,
      "start": 34.5073,
      "duration": 0.0065,
      "velocity": 84,
      "chip": "ym2612"
    },
    {
      "channel": 4,
      "note": 50,
      "start": 34.5075,
      "duration": 0.0064,
      "velocity": 84,
      "chip": "ym2612"
    },
    {
      "channel": 0,
      "note": 50,
      "start": 34.5135,
      "duration": 0.0636,
      "velocity": 84,
      "chip": "ym2612"
    },
    {
      "channel": 1,
      "note": 50,
      "start": 34.5137,
      "duration": 0.0636,
      "velocity": 107,
      "chip": "ym2612"
    },
    {
      "channel": 2,
      "note": 62,
      "start": 34.5139,
      "duration": 0.0637,
      "velocity": 84,
      "chip": "ym2612"
    },
    {
      "channel": 4,
      "note": 74,
      "start": 34.5141,
      "duration": 0.0639,
      "velocity": 84,
      "chip": "ym2612"
    },
    {
      "channel": 0,
      "note": 50,
      "start": 34.5773,
      "duration": 0.1165,
      "velocity": 84,
      "chip": "ym2612"
    },
    {
      "channel": 1,
      "note": 50,
      "start": 34.5776,
      "duration": 0.1165,
      "velocity": 107,
      "chip": "ym2612"
    },
    {
      "channel": 2,
      "note": 62,
      "start": 34.5779,
      "duration": 0.1164,
      "velocity": 84,
      "chip": "ym2612"
    },
    {
      "channel": 4,
      "note": 50,
      "start": 34.5782,
      "duration": 0.1164,
      "velocity": 84,
      "chip": "ym2612"
    },
    {
      "channel": 0,
      "note": 74,
      "start": 34.6939,
      "duration": 0.1167,
      "velocity": 84,
      "chip": "ym2612"
    },
    {
      "channel": 1,
      "note": 50,
      "start": 34.6942,
      "duration": 0.1168,
      "velocity": 107,
      "chip": "ym2612"
    },
    {
      "channel": 2,
      "note": 81,
      "start": 34.6945,
      "duration": 0.1167,
      "velocity": 84,
      "chip": "ym2612"
    },
    {
      "channel": 4,
      "note": 50,
      "start": 34.6949,
      "duration": 0.1166,
      "velocity": 84,
      "chip": "ym2612"
    },
    {
      "channel": 0,
      "note": 49,
      "start": 34.8109,
      "duration": 0.012,
      "velocity": 84,
      "chip": "ym2612"
    },
    {
      "channel": 1,
      "note": 50,
      "start": 34.8111,
      "duration": 0.0061,
      "velocity": 107,
      "chip": "ym2612"
    },
    {
      "channel": 2,
      "note": 61,
      "start": 34.8114,
      "duration": 0.0121,
      "velocity": 84,
      "chip": "ym2612"
    },
    {
      "channel": 4,
      "note": 74,
      "start": 34.8117,
      "duration": 0.0059,
      "velocity": 84,
      "chip": "ym2612"
    },
    {
      "channel": 1,
      "note": 50,
      "start": 34.8173,
      "duration": 0.0058,
      "velocity": 107,
      "chip": "ym2612"
    },
    {
      "channel": 4,
      "note": 49,
      "start": 34.8178,
      "duration": 0.013,
      "velocity": 84,
      "chip": "ym2612"
    },
    {
      "channel": 0,
      "note": 76,
      "start": 34.8231,
      "duration": 0.124,
      "velocity": 84,
      "chip": "ym2612"
    },
    {
      "channel": 1,
      "note": 50,
      "start": 34.8234,
      "duration": 0.0069,
      "velocity": 107,
      "chip": "ym2612"
    },
    {
      "channel": 2,
      "note": 83,
      "start": 34.8236,
      "duration": 0.1242,
      "velocity": 84,
      "chip": "ym2612"
    },
    {
      "channel": 1,
      "note": 50,
      "start": 34.8305,
      "duration": 0.1171,
      "velocity": 107,
      "chip": "ym2612"
    },
    {
      "channel": 4,
      "note": 76,
      "start": 34.831,
      "duration": 0.1223,
      "velocity": 84,
      "chip": "ym2612"
    },
    {
      "channel": 0,
      "note": 50,
      "start": 34.9474,
      "duration": 0.07,
      "velocity": 84,
      "chip": "ym2612"
    },
    {
      "channel": 1,
      "note": 50,
      "start": 34.9477,
      "duration": 0.0053,
      "velocity": 107,
      "chip": "ym2612"
    },
    {
      "channel": 2,
      "note": 62,
      "start": 34.948,
      "duration": 0.07,
      "velocity": 84,
      "chip": "ym2612"
    },
    {
      "channel": 1,
      "note": 50,
      "start": 34.9531,
      "duration": 0.0646,
      "velocity": 107,
      "chip": "ym2612"
    },
    {
      "channel": 4,
      "note": 50,
      "start": 34.9535,
      "duration": 0.1815,
      "velocity": 84,
      "chip": "ym2612"
    },
    {
      "channel": 0,
      "note": 74,
      "start": 35.0176,
      "duration": 0.1165,
      "velocity": 84,
      "chip": "ym2612"
    },
    {
      "channel": 1,
      "note": 50,
      "start": 35.018,
      "duration": 0.1164,
      "velocity": 107,
      "chip": "ym2612"
    },
    {
      "channel": 2,
      "note": 81,
      "start": 35.0182,
      "duration": 0.1164,
      "velocity": 84,
      "chip": "ym2612"
    },
    {
      "channel": 0,
      "note": 50,
      "start": 35.1343,
      "duration": 0.1167,
      "velocity": 84,
      "chip": "ym2612"
    },
    {
      "channel": 1,
      "note": 50,
      "start": 35.1346,
      "duration": 0.1167,
      "velocity": 107,
      "chip": "ym2612"
    },
    {
      "channel": 2,
      "note": 62,
      "start": 35.1349,
      "duration": 0.1166,
      "velocity": 84,
      "chip": "ym2612"
    },
    {
      "channel": 4,
      "note": 74,
      "start": 35.1353,
      "duration": 0.1165,
      "velocity": 84,
      "chip": "ym2612"
    },
    {
      "channel": 0,
      "note": 50,
      "start": 35.2512,
      "duration": 0.0064,
      "velocity": 84,
      "chip": "ym2612"
    },
    {
      "channel": 1,
      "note": 50,
      "start": 35.2515,
      "duration": 0.0063,
      "velocity": 107,
      "chip": "ym2612"
    },
    {
      "channel": 2,
      "note": 62,
      "start": 35.2517,
      "duration": 0.0064,
      "velocity": 84,
      "chip": "ym2612"
    },
    {
      "channel": 4,
      "note": 50,
      "start": 35.252,
      "duration": 0.0063,
      "velocity": 84,
      "chip": "ym2612"
    },
    {
      "channel": 0,
      "note": 74,
      "start": 35.2578,
      "duration": 0.0063,
      "velocity": 84,
      "chip": "ym2612"
    },
    {
      "channel": 1,
      "note": 50,
      "start": 35.258,
      "duration": 0.0063,
      "velocity": 107,
      "chip": "ym2612"
    },
    {
      "channel": 2,
      "note": 81,
      "start": 35.2583,
      "duration": 0.0063,
      "velocity": 84,
      "chip": "ym2612"
    },
    {
      "channel": 4,
      "note": 50,
      "start": 35.2585,
      "duration": 0.0063,
      "velocity": 84,
      "chip": "ym2612"
    },
    {
      "channel": 0,
      "note": 50,
      "start": 35.2642,
      "duration": 0.0069,
      "velocity": 84,
      "chip": "ym2612"
    },
    {
      "channel": 1,
      "note": 50,
      "start": 35.2645,
      "duration": 0.0068,
      "velocity": 107,
      "chip": "ym2612"
    },
    {
      "channel": 2,
      "note": 62,
      "start": 35.2648,
      "duration": 0.0068,
      "velocity": 84,
      "chip": "ym2612"
    },
    {
      "channel": 4,
      "note": 74,
      "start": 35.2651,
      "duration": 0.007,
      "velocity": 84,
      "chip": "ym2612"
    },
    {
      "channel": 0,
      "note": 50,
      "start": 35.2713,
      "duration": 0.1001,
      "velocity": 84,
      "chip": "ym2612"
    },
    {
      "channel": 1,
      "note": 50,
      "start": 35.2716,
      "duration": 0.1001,
      "velocity": 107,
      "chip": "ym2612"
    },
    {
      "channel": 2,
      "note": 62,
      "start": 35.2719,
      "duration": 0.1001,
      "velocity": 84,
      "chip": "ym2612"
    },
    {
      "channel": 4,
      "note": 50,
      "start": 35.2723,
      "duration": 0.1002,
      "velocity": 84,
      "chip": "ym2612"
    },
    {
      "channel": 0,
      "note": 74,
      "start": 35.3717,
      "duration": 0.008,
      "velocity": 84,
      "chip": "ym2612"
    },
    {
      "channel": 1,
      "note": 50,
      "start": 35.372,
      "duration": 0.0078,
      "velocity": 107,
      "chip": "ym2612"
    },
    {
      "channel": 2,
      "note": 81,
      "start": 35.3721,
      "duration": 0.008,
      "velocity": 84,
      "chip": "ym2612"
    },
    {
      "channel": 3,
      "note": 93,
      "start": 35.3724,
      "duration": 0.0079,
      "velocity": 117,
      "chip": "ym2612"
    },
    {
      "channel": 4,
      "note": 50,
      "start": 35.3726,
      "duration": 0.008,
      "velocity": 84,
      "chip": "ym2612"
    },
    {
      "channel": 0,
      "note": 50,
      "start": 35.3797,
      "duration": 0.0802,
      "velocity": 84,
      "chip": "ym2612"
    },
    {
      "channel": 1,
      "note": 50,
      "start": 35.38,
      "duration": 0.0802,
      "velocity": 107,
      "chip": "ym2612"
    },
    {
      "channel": 2,
      "note": 62,
      "start": 35.3802,
      "duration": 0.0802,
      "velocity": 84,
      "chip": "ym2612"
    },
    {
      "channel": 3,
      "note": 88,
      "start": 35.3805,
      "duration": 0.0803,
      "velocity": 117,
      "chip": "ym2612"
    },
    {
      "channel": 4,
      "note": 74,
      "start": 35.3807,
      "duration": 0.0804,
      "velocity": 84,
      "chip": "ym2612"
    },
    {
      "channel": 0,
      "note": 50,
      "start": 35.4602,
      "duration": 0.1165,
      "velocity": 84,
      "chip": "ym2612"
    },
    {
      "channel": 1,
      "note": 50,
      "start": 35.4604,
      "duration": 0.1165,
      "velocity": 107,
      "chip": "ym2612"
    },
    {
      "channel": 2,
      "note": 62,
      "start": 35.4607,
      "duration": 0.1164,
      "velocity": 84,
      "chip": "ym2612"
    },
    {
      "channel": 3,
      "note": 83,
      "start": 35.4611,
      "duration": 0.1164,
      "velocity": 117,
      "chip": "ym2612"
    },
    {
      "channel": 4,
      "note": 50,
      "start": 35.4613,
      "duration": 0.1165,
      "velocity": 84,
      "chip": "ym2612"
    },
    {
      "channel": 0,
      "note": 74,
      "start": 35.5768,
      "duration": 0.1167,
      "velocity": 84,
      "chip": "ym2612"
    },
    {
      "channel": 1,
      "note": 50,
      "start": 35.5771,
      "duration": 0.1168,
      "velocity": 107,
      "chip": "ym2612"
    },
    {
      "channel": 2,
      "note": 81,
      "start": 35.5774,
      "duration": 0.1167,
      "velocity": 84,
      "chip": "ym2612"
    },
    {
      "channel": 3,
      "note": 76,
      "start": 35.5777,
      "duration": 0.1167,
      "velocity": 117,
      "chip": "ym2612"
    },
    {
      "channel": 4,
      "note": 50,
      "start": 35.578,
      "duration": 0.1167,
      "velocity": 84,
      "chip": "ym2612"
    },
    {
      "channel": 0,
      "note": 49,
      "start": 35.6938,
      "duration": 0.014,
      "velocity": 84,
      "chip": "ym2612"
    },
    {
      "channel": 1,
      "note": 50,
      "start": 35.694,
      "duration": 0.0069,
      "velocity": 107,
      "chip": "ym2612"
    },
    {
      "channel": 2,
      "note": 61,
      "start": 35.6943,
      "duration": 0.014,
      "velocity": 84,
      "chip": "ym2612"
    },
    {
      "channel": 3,
      "note": 71,
      "start": 35.6946,
      "duration": 0.0067,
      "velocity": 117,
      "chip": "ym2612"
    },
    {
      "channel": 4,
      "note": 74,
      "start": 35.6948,
      "duration": 0.0067,
      "velocity": 84,
      "chip": "ym2612"
    },
    {
      "channel": 1,
      "note": 50,
      "start": 35.7011,
      "duration": 0.007,
      "velocity": 107,
      "chip": "ym2612"
    },
    {
      "channel": 3,
      "note": 68,
      "start": 35.7014,
      "duration": 0.0072,
      "velocity": 117,
      "chip": "ym2612"
    },
    {
      "channel": 4,
      "note": 49,
      "start": 35.7017,
      "duration": 0.0133,
      "velocity": 84,
      "chip": "ym2612"
    },
    {
      "channel": 0,
      "note": 76,
      "start": 35.7081,
      "duration": 0.014,
      "velocity": 112,
      "chip": "ym2612"
    },
    {
      "channel": 1,
      "note": 50,
      "start": 35.7083,
      "duration": 0.0061,
      "velocity": 107,
      "chip": "ym2612"
    },
    {
      "channel": 2,
      "note": 83,
      "start": 35.7085,
      "duration": 0.0152,
      "velocity": 92,
      "chip": "ym2612"
    },
    {
      "channel": 3,
      "note": 59,
      "start": 35.7088,
      "duration": 0.0059,
      "velocity": 117,
      "chip": "ym2612"
    },
    {
      "channel": 1,
      "note": 50,
      "start": 35.7145,
      "duration": 0.0081,
      "velocity": 107,
      "chip": "ym2612"
    },
    {
      "channel": 3,
      "note": 54,
      "start": 35.7149,
      "duration": 0.0093,
      "velocity": 117,
      "chip": "ym2612"
    },
    {
      "channel": 4,
      "note": 76,
      "start": 35.715,
      "duration": 0.0187,
      "velocity": 112,
      "chip": "ym2612"
    },
    {
      "channel": 0,
      "note": 97,
      "start": 35.7223,
      "duration": 0.8856,
      "velocity": 112,
      "chip": "ym2612"
    },
    {
      "channel": 1,
      "note": 49,
      "start": 35.7228,
      "duration": 0.0095,
      "velocity": 107,
      "chip": "ym2612"
    },
    {
      "channel": 2,
      "note": 49,
      "start": 35.724,
      "duration": 0.2042,
      "velocity": 92,
      "chip": "ym2612"
    },
    {
      "channel": 3,
      "note": 85,
      "start": 35.7244,
      "duration": 0.0083,
      "velocity": 117,
      "chip": "ym2612"
    },
    {
      "channel": 1,
      "note": 49,
      "start": 35.7324,
      "duration": 0.0788,
      "velocity": 107,
      "chip": "ym2612"
    },
    {
      "channel": 3,
      "note": 85,
      "start": 35.7328,
      "duration": 0.0788,
      "velocity": 117,
      "chip": "ym2612"
    },
    {
      "channel": 4,
      "note": 97,
      "start": 35.734,
      "duration": 0.8822,
      "velocity": 112,
      "chip": "ym2612"
    },
    {
      "channel": 1,
      "note": 49,
      "start": 35.8115,
      "duration": 0.1164,
      "velocity": 107,
      "chip": "ym2612"
    },
    {
      "channel": 3,
      "note": 88,
      "start": 35.8119,
      "duration": 0.1166,
      "velocity": 117,
      "chip": "ym2612"
    },
    {
      "channel": 1,
      "note": 49,
      "start": 35.9281,
      "duration": 0.1168,
      "velocity": 107,
      "chip": "ym2612"
    },
    {
      "channel": 2,
      "note": 49,
      "start": 35.9284,
      "duration": 0.1291,
      "velocity": 92,
      "chip": "ym2612"
    },
    {
      "channel": 3,
      "note": 90,
      "start": 35.9286,
      "duration": 0.1166,
      "velocity": 117,
      "chip": "ym2612"
    },
    {
      "channel": 1,
      "note": 49,
      "start": 36.045,
      "duration": 0.0066,
      "velocity": 107,
      "chip": "ym2612"
    },
    {
      "channel": 3,
      "note": 85,
      "start": 36.0454,
      "duration": 0.0065,
      "velocity": 117,
      "chip": "ym2612"
    },
    {
      "channel": 1,
      "note": 49,
      "start": 36.0517,
      "duration": 0.0056,
      "velocity": 107,
      "chip": "ym2612"
    },
    {
      "channel": 3,
      "note": 85,
      "start": 36.052,
      "duration": 0.0057,
      "velocity": 117,
      "chip": "ym2612"
    },
    {
      "channel": 1,
      "note": 49,
      "start": 36.0574,
      "duration": 0.0066,
      "velocity": 107,
      "chip": "ym2612"
    },
    {
      "channel": 2,
      "note": 49,
      "start": 36.0577,
      "duration": 0.1156,
      "velocity": 92,
      "chip": "ym2612"
    },
    {
      "channel": 3,
      "note": 88,
      "start": 36.0579,
      "duration": 0.0064,
      "velocity": 117,
      "chip": "ym2612"
    },
    {
      "channel": 1,
      "note": 49,
      "start": 36.0642,
      "duration": 0.1015,
      "velocity": 107,
      "chip": "ym2612"
    },
    {
      "channel": 3,
      "note": 90,
      "start": 36.0645,
      "duration": 0.1015,
      "velocity": 117,
      "chip": "ym2612"
    },
    {
      "channel": 1,
      "note": 49,
      "start": 36.1659,
      "duration": 0.0073,
      "velocity": 107,
      "chip": "ym2612"
    },
    {
      "channel": 3,
      "note": 85,
      "start": 36.1663,
      "duration": 0.0073,
      "velocity": 117,
      "chip": "ym2612"
    },
    {
      "channel": 1,
      "note": 49,
      "start": 36.1733,
      "duration": 0.0801,
      "velocity": 107,
      "chip": "ym2612"
    },
    {
      "channel": 2,
      "note": 49,
      "start": 36.1736,
      "duration": 0.3137,
      "velocity": 92,
      "chip": "ym2612"
    },
    {
      "channel": 3,
      "note": 85,
      "start": 36.1738,
      "duration": 0.08,
      "velocity": 117,
      "chip": "ym2612"
    },
    {
      "channel": 1,
      "note": 49,
      "start": 36.2536,
      "duration": 0.1164,
      "velocity": 107,
      "chip": "ym2612"
    },
    {
      "channel": 3,
      "note": 88,
      "start": 36.254,
      "duration": 0.1164,
      "velocity": 117,
      "chip": "ym2612"
    },
    {
      "channel": 1,
      "note": 49,
      "start": 36.3702,
      "duration": 0.1168,
      "velocity": 107,
      "chip": "ym2612"
    },
    {
      "channel": 3,
      "note": 90,
      "start": 36.3707,
      "duration": 0.1168,
      "velocity": 117,
      "chip": "ym2612"
    },
    {
      "channel": 1,
      "note": 49,
      "start": 36.4872,
      "duration": 0.0055,
      "velocity": 107,
      "chip": "ym2612"
    },
    {
      "channel": 2,
      "note": 54,
      "start": 36.4874,
      "duration": 0.0125,
      "velocity": 92,
      "chip": "ym2612"
    },
    {
      "channel": 3,
      "note": 85,
      "start": 36.4877,
      "duration": 0.0053,
      "velocity": 117,
      "chip": "ym2612"
    },
    {
      "channel": 1,
      "note": 49,
      "start": 36.4929,
      "duration": 0.0068,
      "velocity": 107,
      "chip": "ym2612"
    },
    {
      "channel": 3,
      "note": 85,
      "start": 36.4932,
      "duration": 0.0069,
      "velocity": 117,
      "chip": "ym2612"
    },
    {
      "channel": 1,
      "note": 49,
      "start": 36.4999,
      "duration": 0.0065,
      "velocity": 107,
      "chip": "ym2612"
    },
    {
      "channel": 2,
      "note": 55,
      "start": 36.5,
      "duration": 0.1082,
      "velocity": 92,
      "chip": "ym2612"
    },
    {
      "channel": 3,
      "note": 88,
      "start": 36.5002,
      "duration": 0.0065,
      "velocity": 117,
      "chip": "ym2612"
    },
    {
      "channel": 1,
      "note": 49,
      "start": 36.5066,
      "duration": 0.1015,
      "velocity": 107,
      "chip": "ym2612"
    },
    {
      "channel": 3,
      "note": 90,
      "start": 36.5069,
      "duration": 0.1017,
      "velocity": 117,
      "chip": "ym2612"
    },
    {
      "channel": 0,
      "note": 97,
      "start": 36.6079,
      "duration": 0.7737,
      "velocity": 112,
      "chip": "ym2612"
    },
    {
      "channel": 1,
      "note": 49,
      "start": 36.6082,
      "duration": 0.0071,
      "velocity": 107,
      "chip": "ym2612"
    },
    {
      "channel": 2,
      "note": 49,
      "start": 36.6085,
      "duration": 0.2039,
      "velocity": 92,
      "chip": "ym2612"
    },
    {
      "channel": 3,
      "note": 85,
      "start": 36.6088,
      "duration": 0.0069,
      "velocity": 117,
      "chip": "ym2612"
    },
    {
      "channel": 1,
      "note": 49,
      "start": 36.6155,
      "duration": 0.08,
      "velocity": 107,
      "chip": "ym2612"
    },
    {
      "channel": 3,
      "note": 85,
      "start": 36.616,
      "duration": 0.0799,
      "velocity": 117,
      "chip": "ym2612"
    },
    {
      "channel": 4,
      "note": 97,
      "start": 36.6162,
      "duration": 0.7737,
      "velocity": 112,
      "chip": "ym2612"
    },
    {
      "channel": 1,
      "note": 49,
      "start": 36.6957,
      "duration": 0.1164,
      "velocity": 107,
      "chip": "ym2612"
    },
    {
      "channel": 3,
      "note": 88,
      "start": 36.6962,
      "duration": 0.1166,
      "velocity": 117,
      "chip": "ym2612"
    },
    {
      "channel": 1,
      "note": 49,
      "start": 36.8123,
      "duration": 0.1001,
      "velocity": 107,
      "chip": "ym2612"
    },
    {
      "channel": 2,
      "note": 49,
      "start": 36.8127,
      "duration": 0.1136,
      "velocity": 92,
      "chip": "ym2612"
    },
    {
      "channel": 3,
      "note": 90,
      "start": 36.8129,
      "duration": 0.0999,
      "velocity": 117,
      "chip": "ym2612"
    },
    {
      "channel": 1,
      "note": 49,
      "start": 36.9126,
      "duration": 0.0067,
      "velocity": 107,
      "chip": "ym2612"
    },
    {
      "channel": 3,
      "note": 85,
      "start": 36.913,
      "duration": 0.0066,
      "velocity": 117,
      "chip": "ym2612"
    },
    {
      "channel": 1,
      "note": 49,
      "start": 36.9194,
      "duration": 0.0066,
      "velocity": 107,
      "chip": "ym2612"
    },
    {
      "channel": 3,
      "note": 85,
      "start": 36.9197,
      "duration": 0.0068,
      "velocity": 117,
      "chip": "ym2612"
    },
    {
      "channel": 1,
      "note": 49,
      "start": 36.9262,
      "duration": 0.0061,
      "velocity": 107,
      "chip": "ym2612"
    },
    {
      "channel": 2,
      "note": 49,
      "start": 36.9264,
      "duration": 0.1303,
      "velocity": 92,
      "chip": "ym2612"
    },
    {
      "channel": 3,
      "note": 88,
      "start": 36.9266,
      "duration": 0.0062,
      "velocity": 117,
      "chip": "ym2612"
    },
    {
      "channel": 1,
      "note": 49,
      "start": 36.9326,
      "duration": 0.1167,
      "velocity": 107,
      "chip": "ym2612"
    },
    {
      "channel": 3,
      "note": 90,
      "start": 36.933,
      "duration": 0.1168,
      "velocity": 117,
      "chip": "ym2612"
    },
    {
      "channel": 1,
      "note": 49,
      "start": 37.0496,
      "duration": 0.0069,
      "velocity": 107,
      "chip": "ym2612"
    },
    {
      "channel": 3,
      "note": 85,
      "start": 37.05,
      "duration": 0.007,
      "velocity": 117,
      "chip": "ym2612"
    },
    {
      "channel": 1,
      "note": 49,
      "start": 37.0567,
      "duration": 0.0801,
      "velocity": 107,
      "chip": "ym2612"
    },
    {
      "channel": 2,
      "note": 49,
      "start": 37.0569,
      "duration": 0.1801,
      "velocity": 92,
      "chip": "ym2612"
    },
    {
      "channel": 3,
      "note": 85,
      "start": 37.0571,
      "duration": 0.0801,
      "velocity": 117,
      "chip": "ym2612"
    },
    {
      "channel": 1,
      "note": 49,
      "start": 37.137,
      "duration": 0.0998,
      "velocity": 107,
      "chip": "ym2612"
    },
    {
      "channel": 3,
      "note": 88,
      "start": 37.1374,
      "duration": 0.0999,
      "velocity": 117,
      "chip": "ym2612"
    },
    {
      "channel": 1,
      "note": 49,
      "start": 37.2369,
      "duration": 0.1168,
      "velocity": 107,
      "chip": "ym2612"
    },
    {
      "channel": 2,
      "note": 49,
      "start": 37.2372,
      "duration": 0.1167,
      "velocity": 92,
      "chip": "ym2612"
    },
    {
      "channel": 3,
      "note": 90,
      "start": 37.2375,
      "duration": 0.1167,
      "velocity": 117,
      "chip": "ym2612"
    },
    {
      "channel": 1,
      "note": 49,
      "start": 37.3539,
      "duration": 0.0066,
      "velocity": 107,
      "chip": "ym2612"
    },
    {
      "channel": 2,
      "note": 55,
      "start": 37.3541,
      "duration": 0.0136,
      "velocity": 92,
      "chip": "ym2612"
    },
    {
      "channel": 3,
      "note": 85,
      "start": 37.3544,
      "duration": 0.0065,
      "velocity": 117,
      "chip": "ym2612"
    },
    {
      "channel": 1,
      "note": 49,
      "start": 37.3607,
      "duration": 0.0068,
      "velocity": 107,
      "chip": "ym2612"
    },
    {
      "channel": 3,
      "note": 85,
      "start": 37.3611,
      "duration": 0.0069,
      "velocity": 117,
      "chip": "ym2612"
    },
    {
      "channel": 1,
      "note": 49,
      "start": 37.3677,
      "duration": 0.0069,
      "velocity": 107,
      "chip": "ym2612"
    },
    {
      "channel": 2,
      "note": 54,
      "start": 37.3679,
      "duration": 0.0141,
      "velocity": 92,
      "chip": "ym2612"
    },
    {
      "channel": 3,
      "note": 88,
      "start": 37.3682,
      "duration": 0.0068,
      "velocity": 117,
      "chip": "ym2612"
    },
    {
      "channel": 1,
      "note": 49,
      "start": 37.3748,
      "duration": 0.0069,
      "velocity": 107,
      "chip": "ym2612"
    },
    {
      "channel": 3,
      "note": 90,
      "start": 37.3751,
      "duration": 0.0073,
      "velocity": 117,
      "chip": "ym2612"
    },
    {
      "channel": 0,
      "note": 97,
      "start": 37.3816,
      "duration": 0.8673,
      "velocity": 112,
      "chip": "ym2612"
    },
    {
      "channel": 1,
      "note": 49,
      "start": 37.3819,
      "duration": 0.0074,
      "velocity": 107,
      "chip": "ym2612"
    },
    {
      "channel": 2,
      "note": 49,
      "start": 37.3823,
      "duration": 0.1872,
      "velocity": 92,
      "chip": "ym2612"
    },
    {
      "channel": 3,
      "note": 85,
      "start": 37.3826,
      "duration": 0.007,
      "velocity": 117,
      "chip": "ym2612"
    },
    {
      "channel": 1,
      "note": 49,
      "start": 37.3894,
      "duration": 0.0632,
      "velocity": 107,
      "chip": "ym2612"
    },
    {
      "channel": 3,
      "note": 85,
      "start": 37.3897,
      "duration": 0.0634,
      "velocity": 117,
      "chip": "ym2612"
    },
    {
      "channel": 4,
      "note": 97,
      "start": 37.3898,
      "duration": 0.8671,
      "velocity": 112,
      "chip": "ym2612"
    },
    {
      "channel": 1,
      "note": 49,
      "start": 37.4529,
      "duration": 0.1164,
      "velocity": 107,
      "chip": "ym2612"
    },
    {
      "channel": 3,
      "note": 88,
      "start": 37.4533,
      "duration": 0.1166,
      "velocity": 117,
      "chip": "ym2612"
    },
    {
      "channel": 1,
      "note": 49,
      "start": 37.5695,
      "duration": 0.1168,
      "velocity": 107,
      "chip": "ym2612"
    },
    {
      "channel": 2,
      "note": 49,
      "start": 37.5698,
      "duration": 0.1305,
      "velocity": 92,
      "chip": "ym2612"
    },
    {
      "channel": 3,
      "note": 90,
      "start": 37.57,
      "duration": 0.1165,
      "velocity": 117,
      "chip": "ym2612"
    },
    {
      "channel": 1,
      "note": 49,
      "start": 37.6864,
      "duration": 0.0066,
      "velocity": 107,
      "chip": "ym2612"
    },
    {
      "channel": 3,
      "note": 85,
      "start": 37.6867,
      "duration": 0.0067,
      "velocity": 117,
      "chip": "ym2612"
    },
    {
      "channel": 1,
      "note": 49,
      "start": 37.6932,
      "duration": 0.0068,
      "velocity": 107,
      "chip": "ym2612"
    },
    {
      "channel": 3,
      "note": 85,
      "start": 37.6935,
      "duration": 0.007,
      "velocity": 117,
      "chip": "ym2612"
    },
    {
      "channel": 1,
      "note": 49,
      "start": 37.7002,
      "duration": 0.0064,
      "velocity": 107,
      "chip": "ym2612"
    },
    {
      "channel": 2,
      "note": 49,
      "start": 37.7005,
      "duration": 0.1296,
      "velocity": 92,
      "chip": "ym2612"
    },
    {
      "channel": 3,
      "note": 88,
      "start": 37.7007,
      "duration": 0.0063,
      "velocity": 117,
      "chip": "ym2612"
    },
    {
      "channel": 1,
      "note": 49,
      "start": 37.7068,
      "duration": 0.1168,
      "velocity": 107,
      "chip": "ym2612"
    },
    {
      "channel": 3,
      "note": 90,
      "start": 37.7073,
      "duration": 0.1167,
      "velocity": 117,
      "chip": "ym2612"
    },
    {
      "channel": 1,
      "note": 49,
      "start": 37.8239,
      "duration": 0.006,
      "velocity": 107,
      "chip": "ym2612"
    },
    {
      "channel": 3,
      "note": 85,
      "start": 37.8242,
      "duration": 0.0061,
      "velocity": 117,
      "chip": "ym2612"
    },
    {
      "channel": 1,
      "note": 49,
      "start": 37.83,
      "duration": 0.0642,
      "velocity": 107,
      "chip": "ym2612"
    },
    {
      "channel": 2,
      "note": 49,
      "start": 37.8303,
      "duration": 0.2978,
      "velocity": 92,
      "chip": "ym2612"
    },
    {
      "channel": 3,
      "note": 85,
      "start": 37.8306,
      "duration": 0.0641,
      "velocity": 117,
      "chip": "ym2612"
    },
    {
      "channel": 1,
      "note": 49,
      "start": 37.8944,
      "duration": 0.1164,
      "velocity": 107,
      "chip": "ym2612"
    },
    {
      "channel": 3,
      "note": 88,
      "start": 37.8949,
      "duration": 0.1164,
      "velocity": 117,
      "chip": "ym2612"
    },
    {
      "channel": 1,
      "note": 49,
      "start": 38.011,
      "duration": 0.1168,
      "velocity": 107,
      "chip": "ym2612"
    },
    {
      "channel": 3,
      "note": 90,
      "start": 38.0115,
      "duration": 0.1168,
      "velocity": 117,
      "chip": "ym2612"
    },
    {
      "channel": 1,
      "note": 49,
      "start": 38.128,
      "duration": 0.0066,
      "velocity": 107,
      "chip": "ym2612"
    },
    {
      "channel": 2,
      "note": 54,
      "start": 38.1283,
      "duration": 0.0136,
      "velocity": 92,
      "chip": "ym2612"
    },
    {
      "channel": 3,
      "note": 85,
      "start": 38.1286,
      "duration": 0.0063,
      "velocity": 117,
      "chip": "ym2612"
    },
    {
      "channel": 1,
      "note": 49,
      "start": 38.1347,
      "duration": 0.0069,
      "velocity": 107,
      "chip": "ym2612"
    },
    {
      "channel": 3,
      "note": 85,
      "start": 38.1351,
      "duration": 0.0069,
      "velocity": 117,
      "chip": "ym2612"
    },
    {
      "channel": 1,
      "note": 49,
      "start": 38.1418,
      "duration": 0.0068,
      "velocity": 107,
      "chip": "ym2612"
    },
    {
      "channel": 2,
      "note": 55,
      "start": 38.142,
      "duration": 0.1073,
      "velocity": 92,
      "chip": "ym2612"
    },
    {
      "channel": 3,
      "note": 88,
      "start": 38.1422,
      "duration": 0.0068,
      "velocity": 117,
      "chip": "ym2612"
    },
    {
      "channel": 1,
      "note": 49,
      "start": 38.1488,
      "duration": 0.1002,
      "velocity": 107,
      "chip": "ym2612"
    },
    {
      "channel": 3,
      "note": 90,
      "start": 38.1492,
      "duration": 0.1004,
      "velocity": 117,
      "chip": "ym2612"
    },
    {
      "channel": 0,
      "note": 97,
      "start": 38.2489,
      "duration": 0.7898,
      "velocity": 112,
      "chip": "ym2612"
    },
    {
      "channel": 1,
      "note": 49,
      "start": 38.2492,
      "duration": 0.0069,
      "velocity": 107,
      "chip": "ym2612"
    },
    {
      "channel": 2,
      "note": 49,
      "start": 38.2495,
      "duration": 0.2036,
      "velocity": 92,
      "chip": "ym2612"
    },
    {
      "channel": 3,
      "note": 85,
      "start": 38.2498,
      "duration": 0.0067,
      "velocity": 117,
      "chip": "ym2612"
    },
    {
      "channel": 1,
      "note": 49,
      "start": 38.2563,
      "duration": 0.0799,
      "velocity": 107,
      "chip": "ym2612"
    },
    {
      "channel": 3,
      "note": 85,
      "start": 38.2568,
      "duration": 0.0798,
      "velocity": 117,
      "chip": "ym2612"
    },
    {
      "channel": 4,
      "note": 97,
      "start": 38.2569,
      "duration": 0.7905,
      "velocity": 112,
      "chip": "ym2612"
    },
    {
      "channel": 1,
      "note": 49,
      "start": 38.3364,
      "duration": 0.1164,
      "velocity": 107,
      "chip": "ym2612"
    },
    {
      "channel": 3,
      "note": 88,
      "start": 38.3368,
      "duration": 0.1166,
      "velocity": 117,
      "chip": "ym2612"
    },
    {
      "channel": 1,
      "note": 49,
      "start": 38.453,
      "duration": 0.1168,
      "velocity": 107,
      "chip": "ym2612"
    },
    {
      "channel": 2,
      "note": 49,
      "start": 38.4532,
      "duration": 0.1303,
      "velocity": 92,
      "chip": "ym2612"
    },
    {
      "channel": 3,
      "note": 90,
      "start": 38.4536,
      "duration": 0.1165,
      "velocity": 117,
      "chip": "ym2612"
    },
    {
      "channel": 1,
      "note": 49,
      "start": 38.57,
      "duration": 0.0069,
      "velocity": 107,
      "chip": "ym2612"
    },
    {
      "channel": 3,
      "note": 85,
      "start": 38.5702,
      "duration": 0.0069,
      "velocity": 117,
      "chip": "ym2612"
    },
    {
      "channel": 1,
      "note": 49,
      "start": 38.577,
      "duration": 0.0063,
      "velocity": 107,
      "chip": "ym2612"
    },
    {
      "channel": 3,
      "note": 85,
      "start": 38.5773,
      "duration": 0.0065,
      "velocity": 117,
      "chip": "ym2612"
    },
    {
      "channel": 1,
      "note": 49,
      "start": 38.5834,
      "duration": 0.0059,
      "velocity": 107,
      "chip": "ym2612"
    },
    {
      "channel": 2,
      "note": 49,
      "start": 38.5837,
      "duration": 0.1147,
      "velocity": 92,
      "chip": "ym2612"
    },
    {
      "channel": 3,
      "note": 88,
      "start": 38.5839,
      "duration": 0.0059,
      "velocity": 117,
      "chip": "ym2612"
    },
    {
      "channel": 1,
      "note": 49,
      "start": 38.5895,
      "duration": 0.1013,
      "velocity": 107,
      "chip": "ym2612"
    },
    {
      "channel": 3,
      "note": 90,
      "start": 38.5899,
      "duration": 0.1014,
      "velocity": 117,
      "chip": "ym2612"
    },
    {
      "channel": 1,
      "note": 49,
      "start": 38.691,
      "duration": 0.0071,
      "velocity": 107,
      "chip": "ym2612"
    },
    {
      "channel": 3,
      "note": 85,
      "start": 38.6915,
      "duration": 0.0073,
      "velocity": 117,
      "chip": "ym2612"
    },
    {
      "channel": 1,
      "note": 49,
      "start": 38.6983,
      "duration": 0.0801,
      "velocity": 107,
      "chip": "ym2612"
    },
    {
      "channel": 2,
      "note": 49,
      "start": 38.6986,
      "duration": 0.1967,
      "velocity": 92,
      "chip": "ym2612"
    },
    {
      "channel": 3,
      "note": 85,
      "start": 38.6988,
      "duration": 0.08,
      "velocity": 117,
      "chip": "ym2612"
    },
    {
      "channel": 1,
      "note": 49,
      "start": 38.7787,
      "duration": 0.1164,
      "velocity": 107,
      "chip": "ym2612"
    },
    {
      "channel": 3,
      "note": 88,
      "start": 38.7791,
      "duration": 0.1166,
      "velocity": 117,
      "chip": "ym2612"
    },
    {
      "channel": 1,
      "note": 49,
      "start": 38.8953,
      "duration": 0.1168,
      "velocity": 107,
      "chip": "ym2612"
    },
    {
      "channel": 2,
      "note": 49,
      "start": 38.8956,
      "duration": 0.1167,
      "velocity": 92,
      "chip": "ym2612"
    },
    {
      "channel": 3,
      "note": 90,
      "start": 38.8959,
      "duration": 0.1167,
      "velocity": 117,
      "chip": "ym2612"
    },
    {
      "channel": 1,
      "note": 49,
      "start": 39.0122,
      "duration": 0.0068,
      "velocity": 107,
      "chip": "ym2612"
    },
    {
      "channel": 2,
      "note": 47,
      "start": 39.0125,
      "duration": 0.0127,
      "velocity": 92,
      "chip": "ym2612"
    },
    {
      "channel": 3,
      "note": 85,
      "start": 39.0128,
      "duration": 0.0066,
      "velocity": 117,
      "chip": "ym2612"
    },
    {
      "channel": 1,
      "note": 49,
      "start": 39.0192,
      "duration": 0.0057,
      "velocity": 107,
      "chip": "ym2612"
    },
    {
      "channel": 3,
      "note": 85,
      "start": 39.0195,
      "duration": 0.0059,
      "velocity": 117,
      "chip": "ym2612"
    },
    {
      "channel": 1,
      "note": 49,
      "start": 39.0251,
      "duration": 0.0068,
      "velocity": 107,
      "chip": "ym2612"
    },
    {
      "channel": 2,
      "note": 48,
      "start": 39.0254,
      "duration": 0.0139,
      "velocity": 92,
      "chip": "ym2612"
    },
    {
      "channel": 3,
      "note": 88,
      "start": 39.0257,
      "duration": 0.0066,
      "velocity": 117,
      "chip": "ym2612"
    },
    {
      "channel": 1,
      "note": 49,
      "start": 39.0321,
      "duration": 0.0069,
      "velocity": 107,
      "chip": "ym2612"
    },
    {
      "channel": 3,
      "note": 90,
      "start": 39.0325,
      "duration": 0.0071,
      "velocity": 117,
      "chip": "ym2612"
    },
    {
      "channel": 0,
      "note": 97,
      "start": 39.0389,
      "duration": 0.8854,
      "velocity": 112,
      "chip": "ym2612"
    },
    {
      "channel": 1,
      "note": 49,
      "start": 39.0392,
      "duration": 0.0074,
      "velocity": 107,
      "chip": "ym2612"
    },
    {
      "channel": 2,
      "note": 49,
      "start": 39.0395,
      "duration": 0.2046,
      "velocity": 92,
      "chip": "ym2612"
    },
    {
      "channel": 3,
      "note": 85,
      "start": 39.0398,
      "duration": 0.0072,
      "velocity": 117,
      "chip": "ym2612"
    },
    {
      "channel": 1,
      "note": 49,
      "start": 39.0468,
      "duration": 0.0805,
      "velocity": 107,
      "chip": "ym2612"
    },
    {
      "channel": 3,
      "note": 85,
      "start": 39.0473,
      "duration": 0.0805,
      "velocity": 117,
      "chip": "ym2612"
    },
    {
      "channel": 4,
      "note": 97,
      "start": 39.0475,
      "duration": 0.8852,
      "velocity": 112,
      "chip": "ym2612"
    },
    {
      "channel": 1,
      "note": 49,
      "start": 39.1275,
      "duration": 0.1164,
      "velocity": 107,
      "chip": "ym2612"
    },
    {
      "channel": 3,
      "note": 88,
      "start": 39.128,
      "duration": 0.1166,
      "velocity": 117,
      "chip": "ym2612"
    },
    {
      "channel": 1,
      "note": 49,
      "start": 39.2441,
      "duration": 0.1168,
      "velocity": 107,
      "chip": "ym2612"
    },
    {
      "channel": 2,
      "note": 49,
      "start": 39.2444,
      "duration": 0.1293,
      "velocity": 92,
      "chip": "ym2612"
    },
    {
      "channel": 3,
      "note": 90,
      "start": 39.2447,
      "duration": 0.1165,
      "velocity": 117,
      "chip": "ym2612"
    },
    {
      "channel": 1,
      "note": 49,
      "start": 39.3611,
      "duration": 0.0057,
      "velocity": 107,
      "chip": "ym2612"
    },
    {
      "channel": 3,
      "note": 85,
      "start": 39.3614,
      "duration": 0.0057,
      "velocity": 117,
      "chip": "ym2612"
    },
    {
      "channel": 1,
      "note": 49,
      "start": 39.367,
      "duration": 0.0066,
      "velocity": 107,
      "chip": "ym2612"
    },
    {
      "channel": 3,
      "note": 85,
      "start": 39.3673,
      "duration": 0.0067,
      "velocity": 117,
      "chip": "ym2612"
    },
    {
      "channel": 1,
      "note": 49,
      "start": 39.3737,
      "duration": 0.0069,
      "velocity": 107,
      "chip": "ym2612"
    },
    {
      "channel": 2,
      "note": 49,
      "start": 39.3739,
      "duration": 0.116,
      "velocity": 92,
      "chip": "ym2612"
    },
    {
      "channel": 3,
      "note": 88,
      "start": 39.3741,
      "duration": 0.0067,
      "velocity": 117,
      "chip": "ym2612"
    },
    {
      "channel": 1,
      "note": 49,
      "start": 39.3807,
      "duration": 0.1014,
      "velocity": 107,
      "chip": "ym2612"
    },
    {
      "channel": 3,
      "note": 90,
      "start": 39.381,
      "duration": 0.1015,
      "velocity": 117,
      "chip": "ym2612"
    },
    {
      "channel": 1,
      "note": 49,
      "start": 39.4824,
      "duration": 0.0074,
      "velocity": 107,
      "chip": "ym2612"
    },
    {
      "channel": 3,
      "note": 85,
      "start": 39.4828,
      "duration": 0.0074,
      "velocity": 117,
      "chip": "ym2612"
    },
    {
      "channel": 1,
      "note": 49,
      "start": 39.4899,
      "duration": 0.0802,
      "velocity": 107,
      "chip": "ym2612"
    },
    {
      "channel": 2,
      "note": 49,
      "start": 39.4902,
      "duration": 0.2971,
      "velocity": 92,
      "chip": "ym2612"
    },
    {
      "channel": 3,
      "note": 85,
      "start": 39.4904,
      "duration": 0.0801,
      "velocity": 117,
      "chip": "ym2612"
    },
    {
      "channel": 1,
      "note": 49,
      "start": 39.5703,
      "duration": 0.1164,
      "velocity": 107,
      "chip": "ym2612"
    },
    {
      "channel": 3,
      "note": 88,
      "start": 39.5707,
      "duration": 0.1164,
      "velocity": 117,
      "chip": "ym2612"
    },
    {
      "channel": 1,
      "note": 49,
      "start": 39.6869,
      "duration": 0.1001,
      "velocity": 107,
      "chip": "ym2612"
    },
    {
      "channel": 3,
      "note": 90,
      "start": 39.6874,
      "duration": 0.1002,
      "velocity": 117,
      "chip": "ym2612"
    },
    {
      "channel": 1,
      "note": 49,
      "start": 39.7872,
      "duration": 0.0066,
      "velocity": 107,
      "chip": "ym2612"
    },
    {
      "channel": 2,
      "note": 54,
      "start": 39.7875,
      "duration": 0.0136,
      "velocity": 92,
      "chip": "ym2612"
    },
    {
      "channel": 3,
      "note": 85,
      "start": 39.7878,
      "duration": 0.0063,
      "velocity": 117,
      "chip": "ym2612"
    },
    {
      "channel": 1,
      "note": 49,
      "start": 39.7939,
      "duration": 0.0068,
      "velocity": 107,
      "chip": "ym2612"
    },
    {
      "channel": 3,
      "note": 85,
      "start": 39.7943,
      "duration": 0.0069,
      "velocity": 117,
      "chip": "ym2612"
    },
    {
      "channel": 1,
      "note": 49,
      "start": 39.801,
      "duration": 0.0064,
      "velocity": 107,
      "chip": "ym2612"
    },
    {
      "channel": 2,
      "note": 55,
      "start": 39.8012,
      "duration": 0.1236,
      "velocity": 92,
      "chip": "ym2612"
    },
    {
      "channel": 3,
      "note": 88,
      "start": 39.8014,
      "duration": 0.0064,
      "velocity": 117,
      "chip": "ym2612"
    },
    {
      "channel": 1,
      "note": 49,
      "start": 39.8076,
      "duration": 0.1169,
      "velocity": 107,
      "chip": "ym2612"
    },
    {
      "channel": 3,
      "note": 90,
      "start": 39.808,
      "duration": 0.1171,
      "velocity": 117,
      "chip": "ym2612"
    },
    {
      "channel": 0,
      "note": 97,
      "start": 39.9244,
      "duration": 0.7747,
      "velocity": 112,
      "chip": "ym2612"
    },
    {
      "channel": 1,
      "note": 49,
      "start": 39.9247,
      "duration": 0.0072,
      "velocity": 107,
      "chip": "ym2612"
    },
    {
      "channel": 2,
      "note": 49,
      "start": 39.9249,
      "duration": 0.1873,
      "velocity": 92,
      "chip": "ym2612"
    },
    {
      "channel": 3,
      "note": 85,
      "start": 39.9253,
      "duration": 0.007,
      "velocity": 117,
      "chip": "ym2612"
    },
    {
      "channel": 1,
      "note": 49,
      "start": 39.932,
      "duration": 0.08,
      "velocity": 107,
      "chip": "ym2612"
    },
    {
      "channel": 3,
      "note": 85,
      "start": 39.9325,
      "duration": 0.0799,
      "velocity": 117,
      "chip": "ym2612"
    },
    {
      "channel": 4,
      "note": 97,
      "start": 39.9327,
      "duration": 0.7739,
      "velocity": 112,
      "chip": "ym2612"
    },
    {
      "channel": 1,
      "note": 49,
      "start": 40.0123,
      "duration": 0.0998,
      "velocity": 107,
      "chip": "ym2612"
    },
    {
      "channel": 3,
      "note": 88,
      "start": 40.0127,
      "duration": 0.0999,
      "velocity": 117,
      "chip": "ym2612"
    },
    {
      "channel": 1,
      "note": 49,
      "start": 40.1122,
      "duration": 0.1168,
      "velocity": 107,
      "chip": "ym2612"
    },
    {
      "channel": 2,
      "note": 49,
      "start": 40.1125,
      "duration": 0.13,
      "velocity": 92,
      "chip": "ym2612"
    },
    {
      "channel": 3,
      "note": 90,
      "start": 40.1128,
      "duration": 0.1166,
      "velocity": 117,
      "chip": "ym2612"
    },
    {
      "channel": 1,
      "note": 49,
      "start": 40.2292,
      "duration": 0.0066,
      "velocity": 107,
      "chip": "ym2612"
    },
    {
      "channel": 3,
      "note": 85,
      "start": 40.2295,
      "duration": 0.0066,
      "velocity": 117,
      "chip": "ym2612"
    },
    {
      "channel": 1,
      "note": 49,
      "start": 40.2359,
      "duration": 0.0064,
      "velocity": 107,
      "chip": "ym2612"
    },
    {
      "channel": 3,
      "note": 85,
      "start": 40.2363,
      "duration": 0.0066,
      "velocity": 117,
      "chip": "ym2612"
    },
    {
      "channel": 1,
      "note": 49,
      "start": 40.2425,
      "duration": 0.0068,
      "velocity": 107,
      "chip": "ym2612"
    },
    {
      "channel": 2,
      "note": 49,
      "start": 40.2428,
      "duration": 0.1309,
      "velocity": 92,
      "chip": "ym2612"
    },
    {
      "channel": 3,
      "note": 88,
      "start": 40.243,
      "duration": 0.0068,
      "velocity": 117,
      "chip": "ym2612"
    },
    {
      "channel": 1,
      "note": 49,
      "start": 40.2495,
      "duration": 0.1168,
      "velocity": 107,
      "chip": "ym2612"
    },
    {
      "channel": 3,
      "note": 90,
      "start": 40.25,
      "duration": 0.1168,
      "velocity": 117,
      "chip": "ym2612"
    },
    {
      "channel": 1,
      "note": 49,
      "start": 40.3666,
      "duration": 0.0069,
      "velocity": 107,
      "chip": "ym2612"
    },
    {
      "channel": 3,
      "note": 85,
      "start": 40.3669,
      "duration": 0.0071,
      "velocity": 117,
      "chip": "ym2612"
    },
    {
      "channel": 1,
      "note": 49,
      "start": 40.3736,
      "duration": 0.0637,
      "velocity": 107,
      "chip": "ym2612"
    },
    {
      "channel": 2,
      "note": 49,
      "start": 40.3739,
      "duration": 0.1803,
      "velocity": 92,
      "chip": "ym2612"
    },
    {
      "channel": 3,
      "note": 85,
      "start": 40.3741,
      "duration": 0.0635,
      "velocity": 117,
      "chip": "ym2612"
    },
    {
      "channel": 1,
      "note": 49,
      "start": 40.4375,
      "duration": 0.1164,
      "velocity": 107,
      "chip": "ym2612"
    },
    {
      "channel": 3,
      "note": 88,
      "start": 40.4379,
      "duration": 0.1166,
      "velocity": 117,
      "chip": "ym2612"
    },
    {
      "channel": 1,
      "note": 49,
      "start": 40.5541,
      "duration": 0.1168,
      "velocity": 107,
      "chip": "ym2612"
    },
    {
      "channel": 2,
      "note": 49,
      "start": 40.5544,
      "duration": 0.1167,
      "velocity": 92,
      "chip": "ym2612"
    },
    {
      "channel": 3,
      "note": 90,
      "start": 40.5546,
      "duration": 0.1167,
      "velocity": 117,
      "chip": "ym2612"
    },
    {
      "channel": 1,
      "note": 49,
      "start": 40.671,
      "duration": 0.0065,
      "velocity": 107,
      "chip": "ym2612"
    },
    {
      "channel": 2,
      "note": 55,
      "start": 40.6713,
      "duration": 0.0138,
      "velocity": 92,
      "chip": "ym2612"
    },
    {
      "channel": 3,
      "note": 85,
      "start": 40.6716,
      "duration": 0.0063,
      "velocity": 117,
      "chip": "ym2612"
    },
    {
      "channel": 1,
      "note": 49,
      "start": 40.6777,
      "duration": 0.0072,
      "velocity": 107,
      "chip": "ym2612"
    },
    {
      "channel": 3,
      "note": 85,
      "start": 40.678,
      "duration": 0.0074,
      "velocity": 117,
      "chip": "ym2612"
    },
    {
      "channel": 1,
      "note": 49,
      "start": 40.685,
      "duration": 0.0066,
      "velocity": 107,
      "chip": "ym2612"
    },
    {
      "channel": 2,
      "note": 54,
      "start": 40.6853,
      "duration": 0.0142,
      "velocity": 92,
      "chip": "ym2612"
    },
    {
      "channel": 3,
      "note": 88,
      "start": 40.6855,
      "duration": 0.0065,
      "velocity": 117,
      "chip": "ym2612"
    },
    {
      "channel": 1,
      "note": 49,
      "start": 40.6919,
      "duration": 0.0073,
      "velocity": 107,
      "chip": "ym2612"
    },
    {
      "channel": 3,
      "note": 90,
      "start": 40.6922,
      "duration": 0.0076,
      "velocity": 117,
      "chip": "ym2612"
    },
    {
      "channel": 0,
      "note": 97,
      "start": 40.6991,
      "duration": 0.8684,
      "velocity": 112,
      "chip": "ym2612"
    },
    {
      "channel": 1,
      "note": 49,
      "start": 40.6993,
      "duration": 0.0064,
      "velocity": 107,
      "chip": "ym2612"
    },
    {
      "channel": 2,
      "note": 49,
      "start": 40.6997,
      "duration": 0.1877,
      "velocity": 92,
      "chip": "ym2612"
    },
    {
      "channel": 3,
      "note": 85,
      "start": 40.7,
      "duration": 0.0061,
      "velocity": 117,
      "chip": "ym2612"
    },
    {
      "channel": 1,
      "note": 49,
      "start": 40.7059,
      "duration": 0.0646,
      "velocity": 107,
      "chip": "ym2612"
    },
    {
      "channel": 3,
      "note": 85,
      "start": 40.7063,
      "duration": 0.0646,
      "velocity": 117,
      "chip": "ym2612"
    },
    {
      "channel": 4,
      "note": 97,
      "start": 40.7065,
      "duration": 0.8692,
      "velocity": 112,
      "chip": "ym2612"
    },
    {
      "channel": 1,
      "note": 49,
      "start": 40.7707,
      "duration": 0.1164,
      "velocity": 107,
      "chip": "ym2612"
    },
    {
      "channel": 3,
      "note": 88,
      "start": 40.7712,
      "duration": 0.1166,
      "velocity": 117,
      "chip": "ym2612"
    },
    {
      "channel": 1,
      "note": 49,
      "start": 40.8873,
      "duration": 0.1168,
      "velocity": 107,
      "chip": "ym2612"
    },
    {
      "channel": 2,
      "note": 49,
      "start": 40.8876,
      "duration": 0.1305,
      "velocity": 92,
      "chip": "ym2612"
    },
    {
      "channel": 3,
      "note": 90,
      "start": 40.8879,
      "duration": 0.1165,
      "velocity": 117,
      "chip": "ym2612"
    },
    {
      "channel": 1,
      "note": 49,
      "start": 41.0043,
      "duration": 0.0066,
      "velocity": 107,
      "chip": "ym2612"
    },
    {
      "channel": 3,
      "note": 85,
      "start": 41.0046,
      "duration": 0.0066,
      "velocity": 117,
      "chip": "ym2612"
    },
    {
      "channel": 1,
      "note": 49,
      "start": 41.011,
      "duration": 0.0068,
      "velocity": 107,
      "chip": "ym2612"
    },
    {
      "channel": 3,
      "note": 85,
      "start": 41.0114,
      "duration": 0.0069,
      "velocity": 117,
      "chip": "ym2612"
    },
    {
      "channel": 1,
      "note": 49,
      "start": 41.0181,
      "duration": 0.0069,
      "velocity": 107,
      "chip": "ym2612"
    },
    {
      "channel": 2,
      "note": 49,
      "start": 41.0183,
      "duration": 0.1144,
      "velocity": 92,
      "chip": "ym2612"
    },
    {
      "channel": 3,
      "note": 88,
      "start": 41.0185,
      "duration": 0.0069,
      "velocity": 117,
      "chip": "ym2612"
    },
    {
      "channel": 1,
      "note": 49,
      "start": 41.0251,
      "duration": 0.1001,
      "velocity": 107,
      "chip": "ym2612"
    },
    {
      "channel": 3,
      "note": 90,
      "start": 41.0256,
      "duration": 0.1001,
      "velocity": 117,
      "chip": "ym2612"
    },
    {
      "channel": 1,
      "note": 49,
      "start": 41.1255,
      "duration": 0.0069,
      "velocity": 107,
      "chip": "ym2612"
    },
    {
      "channel": 3,
      "note": 85,
      "start": 41.1259,
      "duration": 0.007,
      "velocity": 117,
      "chip": "ym2612"
    },
    {
      "channel": 1,
      "note": 49,
      "start": 41.1326,
      "duration": 0.0799,
      "velocity": 107,
      "chip": "ym2612"
    },
    {
      "channel": 2,
      "note": 49,
      "start": 41.1329,
      "duration": 0.3134,
      "velocity": 92,
      "chip": "ym2612"
    },
    {
      "channel": 3,
      "note": 85,
      "start": 41.1331,
      "duration": 0.0797,
      "velocity": 117,
      "chip": "ym2612"
    },
    {
      "channel": 1,
      "note": 49,
      "start": 41.2127,
      "duration": 0.1164,
      "velocity": 107,
      "chip": "ym2612"
    },
    {
      "channel": 3,
      "note": 88,
      "start": 41.2131,
      "duration": 0.1164,
      "velocity": 117,
      "chip": "ym2612"
    },
    {
      "channel": 1,
      "note": 49,
      "start": 41.3293,
      "duration": 0.1168,
      "velocity": 107,
      "chip": "ym2612"
    },
    {
      "channel": 3,
      "note": 90,
      "start": 41.3297,
      "duration": 0.1168,
      "velocity": 117,
      "chip": "ym2612"
    },
    {
      "channel": 1,
      "note": 49,
      "start": 41.4462,
      "duration": 0.0064,
      "velocity": 107,
      "chip": "ym2612"
    },
    {
      "channel": 2,
      "note": 54,
      "start": 41.4465,
      "duration": 0.0137,
      "velocity": 92,
      "chip": "ym2612"
    },
    {
      "channel": 3,
      "note": 85,
      "start": 41.4468,
      "duration": 0.0062,
      "velocity": 117,
      "chip": "ym2612"
    },
    {
      "channel": 1,
      "note": 49,
      "start": 41.4528,
      "duration": 0.0071,
      "velocity": 107,
      "chip": "ym2612"
    },
    {
      "channel": 3,
      "note": 85,
      "start": 41.4531,
      "duration": 0.0072,
      "velocity": 117,
      "chip": "ym2612"
    },
    {
      "channel": 1,
      "note": 49,
      "start": 41.46,
      "duration": 0.006,
      "velocity": 107,
      "chip": "ym2612"
    },
    {
      "channel": 2,
      "note": 55,
      "start": 41.4603,
      "duration": 0.1076,
      "velocity": 92,
      "chip": "ym2612"
    },
    {
      "channel": 3,
      "note": 88,
      "start": 41.4606,
      "duration": 0.0058,
      "velocity": 117,
      "chip": "ym2612"
    },
    {
      "channel": 1,
      "note": 49,
      "start": 41.4662,
      "duration": 0.1013,
      "velocity": 107,
      "chip": "ym2612"
    },
    {
      "channel": 3,
      "note": 90,
      "start": 41.4665,
      "duration": 0.1017,
      "velocity": 117,
      "chip": "ym2612"
    },
    {
      "channel": 0,
      "note": 97,
      "start": 41.5675,
      "duration": 0.7923,
      "velocity": 112,
      "chip": "ym2612"
    },
    {
      "channel": 1,
      "note": 49,
      "start": 41.5678,
      "duration": 0.0071,
      "velocity": 107,
      "chip": "ym2612"
    },
    {
      "channel": 2,
      "note": 49,
      "start": 41.568,
      "duration": 0.204,
      "velocity": 92,
      "chip": "ym2612"
    },
    {
      "channel": 3,
      "note": 85,
      "start": 41.5684,
      "duration": 0.007,
      "velocity": 117,
      "chip": "ym2612"
    },
    {
      "channel": 1,
      "note": 49,
      "start": 41.5751,
      "duration": 0.0801,
      "velocity": 107,
      "chip": "ym2612"
    },
    {
      "channel": 3,
      "note": 85,
      "start": 41.5755,
      "duration": 0.0801,
      "velocity": 117,
      "chip": "ym2612"
    },
    {
      "channel": 4,
      "note": 97,
      "start": 41.5757,
      "duration": 0.7921,
      "velocity": 112,
      "chip": "ym2612"
    },
    {
      "channel": 1,
      "note": 49,
      "start": 41.6554,
      "duration": 0.1164,
      "velocity": 107,
      "chip": "ym2612"
    },
    {
      "channel": 3,
      "note": 88,
      "start": 41.6558,
      "duration": 0.1166,
      "velocity": 117,
      "chip": "ym2612"
    },
    {
      "channel": 1,
      "note": 49,
      "start": 41.772,
      "duration": 0.1168,
      "velocity": 107,
      "chip": "ym2612"
    },
    {
      "channel": 2,
      "note": 49,
      "start": 41.7722,
      "duration": 0.1297,
      "velocity": 92,
      "chip": "ym2612"
    },
    {
      "channel": 3,
      "note": 90,
      "start": 41.7725,
      "duration": 0.1165,
      "velocity": 117,
      "chip": "ym2612"
    },
    {
      "channel": 1,
      "note": 49,
      "start": 41.8889,
      "duration": 0.0068,
      "velocity": 107,
      "chip": "ym2612"
    },
    {
      "channel": 3,
      "note": 85,
      "start": 41.8892,
      "duration": 0.0068,
      "velocity": 117,
      "chip": "ym2612"
    },
    {
      "channel": 1,
      "note": 49,
      "start": 41.8959,
      "duration": 0.0059,
      "velocity": 107,
      "chip": "ym2612"
    },
    {
      "channel": 3,
      "note": 85,
      "start": 41.8962,
      "duration": 0.006,
      "velocity": 117,
      "chip": "ym2612"
    },
    {
      "channel": 1,
      "note": 49,
      "start": 41.9019,
      "duration": 0.0069,
      "velocity": 107,
      "chip": "ym2612"
    },
    {
      "channel": 2,
      "note": 49,
      "start": 41.9021,
      "duration": 0.116,
      "velocity": 92,
      "chip": "ym2612"
    },
    {
      "channel": 3,
      "note": 88,
      "start": 41.9023,
      "duration": 0.0069,
      "velocity": 117,
      "chip": "ym2612"
    },
    {
      "channel": 1,
      "note": 49,
      "start": 41.9091,
      "duration": 0.1014,
      "velocity": 107,
      "chip": "ym2612"
    },
    {
      "channel": 3,
      "note": 90,
      "start": 41.9094,
      "duration": 0.1015,
      "velocity": 117,
      "chip": "ym2612"
    },
    {
      "channel": 1,
      "note": 49,
      "start": 42.0106,
      "duration": 0.0072,
      "velocity": 107,
      "chip": "ym2612"
    },
    {
      "channel": 3,
      "note": 85,
      "start": 42.011,
      "duration": 0.0074,
      "velocity": 117,
      "chip": "ym2612"
    },
    {
      "channel": 1,
      "note": 49,
      "start": 42.018,
      "duration": 0.0802,
      "velocity": 107,
      "chip": "ym2612"
    },
    {
      "channel": 2,
      "note": 49,
      "start": 42.0184,
      "duration": 0.1968,
      "velocity": 92,
      "chip": "ym2612"
    },
    {
      "channel": 3,
      "note": 85,
      "start": 42.0186,
      "duration": 0.0801,
      "velocity": 117,
      "chip": "ym2612"
    },
    {
      "channel": 1,
      "note": 49,
      "start": 42.0985,
      "duration": 0.1164,
      "velocity": 107,
      "chip": "ym2612"
    },
    {
      "channel": 3,
      "note": 88,
      "start": 42.0989,
      "duration": 0.1166,
      "velocity": 117,
      "chip": "ym2612"
    },
    {
      "channel": 1,
      "note": 49,
      "start": 42.2151,
      "duration": 0.1168,
      "velocity": 107,
      "chip": "ym2612"
    },
    {
      "channel": 2,
      "note": 49,
      "start": 42.2154,
      "duration": 0.1167,
      "velocity": 92,
      "chip": "ym2612"
    },
    {
      "channel": 3,
      "note": 90,
      "start": 42.2157,
      "duration": 0.1167,
      "velocity": 117,
      "chip": "ym2612"
    },
    {
      "channel": 1,
      "note": 49,
      "start": 42.3321,
      "duration": 0.0059,
      "velocity": 107,
      "chip": "ym2612"
    },
    {
      "channel": 2,
      "note": 47,
      "start": 42.3323,
      "duration": 0.0129,
      "velocity": 92,
      "chip": "ym2612"
    },
    {
      "channel": 3,
      "note": 85,
      "start": 42.3326,
      "duration": 0.0056,
      "velocity": 117,
      "chip": "ym2612"
    },
    {
      "channel": 1,
      "note": 49,
      "start": 42.3381,
      "duration": 0.0069,
      "velocity": 107,
      "chip": "ym2612"
    },
    {
      "channel": 3,
      "note": 85,
      "start": 42.3384,
      "duration": 0.0071,
      "velocity": 117,
      "chip": "ym2612"
    },
    {
      "channel": 1,
      "note": 49,
      "start": 42.3452,
      "duration": 0.0069,
      "velocity": 107,
      "chip": "ym2612"
    },
    {
      "channel": 2,
      "note": 48,
      "start": 42.3455,
      "duration": 0.0159,
      "velocity": 118,
      "chip": "ym2612"
    },
    {
      "channel": 3,
      "note": 88,
      "start": 42.3458,
      "duration": 0.0067,
      "velocity": 117,
      "chip": "ym2612"
    },
    {
      "channel": 1,
      "note": 49,
      "start": 42.3523,
      "duration": 0.0079,
      "velocity": 107,
      "chip": "ym2612"
    },
    {
      "channel": 3,
      "note": 90,
      "start": 42.3527,
      "duration": 0.0089,
      "velocity": 117,
      "chip": "ym2612"
    },
    {
      "channel": 0,
      "note": 73,
      "start": 42.36,
      "duration": 0.8749,
      "velocity": 112,
      "chip": "ym2612"
    },
    {
      "channel": 1,
      "note": 49,
      "start": 42.3604,
      "duration": 0.0065,
      "velocity": 107,
      "chip": "ym2612"
    },
    {
      "channel": 1,
      "note": 49,
      "start": 42.367,
      "duration": 0.0788,
      "velocity": 107,
      "chip": "ym2612"
    },
    {
      "channel": 4,
      "note": 73,
      "start": 42.3679,
      "duration": 0.8755,
      "velocity": 112,
      "chip": "ym2612"
    },
    {
      "channel": 1,
      "note": 49,
      "start": 42.4461,
      "duration": 0.1164,
      "velocity": 107,
      "chip": "ym2612"
    },
    {
      "channel": 1,
      "note": 49,
      "start": 42.5627,
      "duration": 0.1001,
      "velocity": 107,
      "chip": "ym2612"
    },
    {
      "channel": 1,
      "note": 49,
      "start": 42.6629,
      "duration": 0.005,
      "velocity": 107,
      "chip": "ym2612"
    },
    {
      "channel": 1,
      "note": 49,
      "start": 42.6682,
      "duration": 0.0048,
      "velocity": 107,
      "chip": "ym2612"
    },
    {
      "channel": 1,
      "note": 49,
      "start": 42.6732,
      "duration": 0.0071,
      "velocity": 107,
      "chip": "ym2612"
    },
    {
      "channel": 1,
      "note": 49,
      "start": 42.6805,
      "duration": 0.1168,
      "velocity": 107,
      "chip": "ym2612"
    },
    {
      "channel": 1,
      "note": 49,
      "start": 42.7975,
      "duration": 0.005,
      "velocity": 107,
      "chip": "ym2612"
    },
    {
      "channel": 1,
      "note": 49,
      "start": 42.8028,
      "duration": 0.0805,
      "velocity": 107,
      "chip": "ym2612"
    },
    {
      "channel": 1,
      "note": 49,
      "start": 42.8835,
      "duration": 0.0998,
      "velocity": 107,
      "chip": "ym2612"
    },
    {
      "channel": 1,
      "note": 49,
      "start": 42.9834,
      "duration": 0.1168,
      "velocity": 107,
      "chip": "ym2612"
    },
    {
      "channel": 1,
      "note": 49,
      "start": 43.1004,
      "duration": 0.005,
      "velocity": 107,
      "chip": "ym2612"
    },
    {
      "channel": 1,
      "note": 49,
      "start": 43.1057,
      "duration": 0.0048,
      "velocity": 107,
      "chip": "ym2612"
    },
    {
      "channel": 1,
      "note": 49,
      "start": 43.1106,
      "duration": 0.0074,
      "velocity": 107,
      "chip": "ym2612"
    },
    {
      "channel": 1,
      "note": 49,
      "start": 43.1182,
      "duration": 0.1168,
      "velocity": 107,
      "chip": "ym2612"
    },
    {
      "channel": 0,
      "note": 73,
      "start": 43.2349,
      "duration": 0.7458,
      "velocity": 112,
      "chip": "ym2612"
    },
    {
      "channel": 1,
      "note": 49,
      "start": 43.2353,
      "duration": 0.0075,
      "velocity": 107,
      "chip": "ym2612"
    },
    {
      "channel": 2,
      "note": 73,
      "start": 43.2356,
      "duration": 40.413,
      "velocity": 118,
      "chip": "ym2612"
    },
    {
      "channel": 3,
      "note": 73,
      "start": 43.2402,
      "duration": 40.4084,
      "velocity": 118,
      "chip": "ym2612"
    },
    {
      "channel": 1,
      "note": 49,
      "start": 43.243,
      "duration": 0.0626,
      "velocity": 107,
      "chip": "ym2612"
    },
    {
      "channel": 4,
      "note": 73,
      "start": 43.2435,
      "duration": 40.4051,
      "velocity": 112,
      "chip": "ym2612"
    },
    {
      "channel": 1,
      "note": 49,
      "start": 43.3059,
      "duration": 0.1164,
      "velocity": 107,
      "chip": "ym2612"
    },
    {
      "channel": 1,
      "note": 49,
      "start": 43.4224,
      "duration": 0.1168,
      "velocity": 107,
      "chip": "ym2612"
    },
    {
      "channel": 1,
      "note": 49,
      "start": 43.5394,
      "duration": 0.0063,
      "velocity": 107,
      "chip": "ym2612"
    },
    {
      "channel": 1,
      "note": 49,
      "start": 43.5459,
      "duration": 0.0065,
      "velocity": 107,
      "chip": "ym2612"
    },
    {
      "channel": 1,
      "note": 49,
      "start": 43.5525,
      "duration": 0.0067,
      "velocity": 107,
      "chip": "ym2612"
    },
    {
      "channel": 1,
      "note": 49,
      "start": 43.5594,
      "duration": 0.1168,
      "velocity": 107,
      "chip": "ym2612"
    },
    {
      "channel": 1,
      "note": 49,
      "start": 43.6765,
      "duration": 0.0062,
      "velocity": 107,
      "chip": "ym2612"
    },
    {
      "channel": 1,
      "note": 49,
      "start": 43.6829,
      "duration": 0.0644,
      "velocity": 107,
      "chip": "ym2612"
    },
    {
      "channel": 1,
      "note": 49,
      "start": 43.7475,
      "duration": 0.1164,
      "velocity": 107,
      "chip": "ym2612"
    },
    {
      "channel": 1,
      "note": 49,
      "start": 43.8641,
      "duration": 0.1171,
      "velocity": 107,
      "chip": "ym2612"
    },
    {
      "channel": 0,
      "note": 75,
      "start": 43.981,
      "duration": 39.6676,
      "velocity": 112,
      "chip": "ym2612"
    },
    {
      "channel": 1,
      "note": 49,
      "start": 43.9813,
      "duration": 39.6672,
      "velocity": 107,
      "chip": "ym2612"
    }
  ]
}