{
  "track_name": "18 - Ice Dungeon",
  "duration_sec": 40.626,
  "sample_rate": 44100,
  "note_count": 930,
  "unique_pitches": 29,
  "pitch_range": 61,
  "avg_note_duration": 0.2551,
  "reconstruction_stats": {
    "notes_reconstructed": 930,
    "keyon_events": 930,
    "keyoff_events": 924,
    "orphan_keyons": 6,
    "unique_pitches": 29,
    "pitch_range": 61,
    "avg_duration_sec": 0.2551
  },
  "metadata": {
    "source": "S\\Sorcerian (Genesis)\\18 - Ice Dungeon.vgz"
  },
  "notes": [
    {
      "channel": 0,
      "note": 71,
      "start": 0.0,
      "duration": 1.0324,
      "velocity": 97,
      "chip": "ym2612"
    },
    {
      "channel": 1,
      "note": 64,
      "start": 0.0032,
      "duration": 0.2969,
      "velocity": 94,
      "chip": "ym2612"
    },
    {
      "channel": 3,
      "note": 64,
      "start": 0.0079,
      "duration": 1.2368,
      "velocity": 92,
      "chip": "ym2612"
    },
    {
      "channel": 4,
      "note": 59,
      "start": 0.0114,
      "duration": 1.234,
      "velocity": 92,
      "chip": "ym2612"
    },
    {
      "channel": 2,
      "note": 29,
      "start": 0.0125,
      "duration": 0.0747,
      "velocity": 119,
      "chip": "ym2612"
    },
    {
      "channel": 5,
      "note": 59,
      "start": 0.0962,
      "duration": 1.0432,
      "velocity": 97,
      "chip": "ym2612"
    },
    {
      "channel": 2,
      "note": 68,
      "start": 0.0971,
      "duration": 0.0946,
      "velocity": 127,
      "chip": "ym2612"
    },
    {
      "channel": 2,
      "note": 68,
      "start": 0.1969,
      "duration": 0.0995,
      "velocity": 127,
      "chip": "ym2612"
    },
    {
      "channel": 1,
      "note": 64,
      "start": 0.3006,
      "duration": 0.1038,
      "velocity": 94,
      "chip": "ym2612"
    },
    {
      "channel": 2,
      "note": 29,
      "start": 0.3025,
      "duration": 0.0987,
      "velocity": 119,
      "chip": "ym2612"
    },
    {
      "channel": 1,
      "note": 59,
      "start": 0.405,
      "duration": 0.2089,
      "velocity": 94,
      "chip": "ym2612"
    },
    {
      "channel": 2,
      "note": 75,
      "start": 0.4084,
      "duration": 0.0975,
      "velocity": 120,
      "chip": "ym2612"
    },
    {
      "channel": 2,
      "note": 68,
      "start": 0.5127,
      "duration": 0.098,
      "velocity": 127,
      "chip": "ym2612"
    },
    {
      "channel": 1,
      "note": 62,
      "start": 0.6145,
      "duration": 0.1041,
      "velocity": 94,
      "chip": "ym2612"
    },
    {
      "channel": 2,
      "note": 68,
      "start": 0.6165,
      "duration": 0.0988,
      "velocity": 127,
      "chip": "ym2612"
    },
    {
      "channel": 1,
      "note": 64,
      "start": 0.7192,
      "duration": 0.1059,
      "velocity": 94,
      "chip": "ym2612"
    },
    {
      "channel": 2,
      "note": 68,
      "start": 0.7212,
      "duration": 0.0989,
      "velocity": 127,
      "chip": "ym2612"
    },
    {
      "channel": 1,
      "note": 64,
      "start": 0.8258,
      "duration": 0.3121,
      "velocity": 94,
      "chip": "ym2612"
    },
    {
      "channel": 2,
      "note": 29,
      "start": 0.8277,
      "duration": 0.0975,
      "velocity": 119,
      "chip": "ym2612"
    },
    {
      "channel": 2,
      "note": 68,
      "start": 0.9308,
      "duration": 0.0988,
      "velocity": 127,
      "chip": "ym2612"
    },
    {
      "channel": 0,
      "note": 71,
      "start": 1.0329,
      "duration": 0.2102,
      "velocity": 97,
      "chip": "ym2612"
    },
    {
      "channel": 2,
      "note": 68,
      "start": 1.0352,
      "duration": 0.0991,
      "velocity": 127,
      "chip": "ym2612"
    },
    {
      "channel": 1,
      "note": 66,
      "start": 1.1385,
      "duration": 0.1055,
      "velocity": 94,
      "chip": "ym2612"
    },
    {
      "channel": 5,
      "note": 59,
      "start": 1.1412,
      "duration": 0.2071,
      "velocity": 97,
      "chip": "ym2612"
    },
    {
      "channel": 2,
      "note": 29,
      "start": 1.142,
      "duration": 0.0969,
      "velocity": 119,
      "chip": "ym2612"
    },
    {
      "channel": 0,
      "note": 76,
      "start": 1.2438,
      "duration": 0.2078,
      "velocity": 97,
      "chip": "ym2612"
    },
    {
      "channel": 1,
      "note": 67,
      "start": 1.2445,
      "duration": 0.1024,
      "velocity": 94,
      "chip": "ym2612"
    },
    {
      "channel": 3,
      "note": 62,
      "start": 1.2453,
      "duration": 0.4179,
      "velocity": 92,
      "chip": "ym2612"
    },
    {
      "channel": 4,
      "note": 52,
      "start": 1.246,
      "duration": 0.4179,
      "velocity": 92,
      "chip": "ym2612"
    },
    {
      "channel": 2,
      "note": 75,
      "start": 1.2473,
      "duration": 0.0964,
      "velocity": 120,
      "chip": "ym2612"
    },
    {
      "channel": 1,
      "note": 66,
      "start": 1.3474,
      "duration": 0.105,
      "velocity": 94,
      "chip": "ym2612"
    },
    {
      "channel": 5,
      "note": 64,
      "start": 1.349,
      "duration": 0.2102,
      "velocity": 97,
      "chip": "ym2612"
    },
    {
      "channel": 2,
      "note": 68,
      "start": 1.3498,
      "duration": 0.099,
      "velocity": 127,
      "chip": "ym2612"
    },
    {
      "channel": 0,
      "note": 78,
      "start": 1.4522,
      "duration": 0.2093,
      "velocity": 97,
      "chip": "ym2612"
    },
    {
      "channel": 1,
      "note": 64,
      "start": 1.453,
      "duration": 0.1034,
      "velocity": 94,
      "chip": "ym2612"
    },
    {
      "channel": 2,
      "note": 68,
      "start": 1.4549,
      "duration": 0.0983,
      "velocity": 127,
      "chip": "ym2612"
    },
    {
      "channel": 1,
      "note": 62,
      "start": 1.5583,
      "duration": 0.1041,
      "velocity": 94,
      "chip": "ym2612"
    },
    {
      "channel": 5,
      "note": 66,
      "start": 1.5598,
      "duration": 0.2071,
      "velocity": 97,
      "chip": "ym2612"
    },
    {
      "channel": 2,
      "note": 68,
      "start": 1.5607,
      "duration": 0.0977,
      "velocity": 127,
      "chip": "ym2612"
    },
    {
      "channel": 0,
      "note": 79,
      "start": 1.6623,
      "duration": 0.6268,
      "velocity": 97,
      "chip": "ym2612"
    },
    {
      "channel": 1,
      "note": 60,
      "start": 1.663,
      "duration": 0.3141,
      "velocity": 94,
      "chip": "ym2612"
    },
    {
      "channel": 3,
      "note": 60,
      "start": 1.6637,
      "duration": 1.2554,
      "velocity": 92,
      "chip": "ym2612"
    },
    {
      "channel": 4,
      "note": 55,
      "start": 1.6645,
      "duration": 1.6748,
      "velocity": 92,
      "chip": "ym2612"
    },
    {
      "channel": 2,
      "note": 29,
      "start": 1.6657,
      "duration": 0.097,
      "velocity": 119,
      "chip": "ym2612"
    },
    {
      "channel": 5,
      "note": 67,
      "start": 1.7676,
      "duration": 0.6286,
      "velocity": 97,
      "chip": "ym2612"
    },
    {
      "channel": 2,
      "note": 68,
      "start": 1.7684,
      "duration": 0.099,
      "velocity": 127,
      "chip": "ym2612"
    },
    {
      "channel": 2,
      "note": 68,
      "start": 1.8727,
      "duration": 0.0994,
      "velocity": 127,
      "chip": "ym2612"
    },
    {
      "channel": 1,
      "note": 60,
      "start": 1.9776,
      "duration": 0.1025,
      "velocity": 94,
      "chip": "ym2612"
    },
    {
      "channel": 2,
      "note": 29,
      "start": 1.9795,
      "duration": 0.0974,
      "velocity": 119,
      "chip": "ym2612"
    },
    {
      "channel": 1,
      "note": 55,
      "start": 2.0808,
      "duration": 0.2105,
      "velocity": 94,
      "chip": "ym2612"
    },
    {
      "channel": 2,
      "note": 75,
      "start": 2.0828,
      "duration": 0.0988,
      "velocity": 120,
      "chip": "ym2612"
    },
    {
      "channel": 2,
      "note": 68,
      "start": 2.1871,
      "duration": 0.0992,
      "velocity": 127,
      "chip": "ym2612"
    },
    {
      "channel": 0,
      "note": 78,
      "start": 2.2898,
      "duration": 0.6277,
      "velocity": 97,
      "chip": "ym2612"
    },
    {
      "channel": 1,
      "note": 59,
      "start": 2.2918,
      "duration": 0.1029,
      "velocity": 94,
      "chip": "ym2612"
    },
    {
      "channel": 2,
      "note": 68,
      "start": 2.2939,
      "duration": 0.0976,
      "velocity": 127,
      "chip": "ym2612"
    },
    {
      "channel": 1,
      "note": 60,
      "start": 2.3953,
      "duration": 0.1041,
      "velocity": 94,
      "chip": "ym2612"
    },
    {
      "channel": 5,
      "note": 66,
      "start": 2.3968,
      "duration": 0.6282,
      "velocity": 97,
      "chip": "ym2612"
    },
    {
      "channel": 2,
      "note": 68,
      "start": 2.3977,
      "duration": 0.0982,
      "velocity": 127,
      "chip": "ym2612"
    },
    {
      "channel": 1,
      "note": 60,
      "start": 2.5,
      "duration": 0.3138,
      "velocity": 94,
      "chip": "ym2612"
    },
    {
      "channel": 2,
      "note": 29,
      "start": 2.502,
      "duration": 0.0985,
      "velocity": 119,
      "chip": "ym2612"
    },
    {
      "channel": 2,
      "note": 68,
      "start": 2.6059,
      "duration": 0.0994,
      "velocity": 127,
      "chip": "ym2612"
    },
    {
      "channel": 2,
      "note": 68,
      "start": 2.7121,
      "duration": 0.0982,
      "velocity": 127,
      "chip": "ym2612"
    },
    {
      "channel": 1,
      "note": 62,
      "start": 2.8145,
      "duration": 0.1039,
      "velocity": 94,
      "chip": "ym2612"
    },
    {
      "channel": 2,
      "note": 29,
      "start": 2.8165,
      "duration": 0.0983,
      "velocity": 119,
      "chip": "ym2612"
    },
    {
      "channel": 0,
      "note": 71,
      "start": 2.9182,
      "duration": 0.4187,
      "velocity": 97,
      "chip": "ym2612"
    },
    {
      "channel": 1,
      "note": 64,
      "start": 2.9189,
      "duration": 0.2092,
      "velocity": 94,
      "chip": "ym2612"
    },
    {
      "channel": 3,
      "note": 59,
      "start": 2.9197,
      "duration": 0.4188,
      "velocity": 92,
      "chip": "ym2612"
    },
    {
      "channel": 2,
      "note": 75,
      "start": 2.9214,
      "duration": 0.0981,
      "velocity": 120,
      "chip": "ym2612"
    },
    {
      "channel": 5,
      "note": 59,
      "start": 3.0257,
      "duration": 0.4182,
      "velocity": 97,
      "chip": "ym2612"
    },
    {
      "channel": 2,
      "note": 68,
      "start": 3.0265,
      "duration": 0.0984,
      "velocity": 127,
      "chip": "ym2612"
    },
    {
      "channel": 1,
      "note": 60,
      "start": 3.1287,
      "duration": 0.2091,
      "velocity": 94,
      "chip": "ym2612"
    },
    {
      "channel": 2,
      "note": 68,
      "start": 3.1306,
      "duration": 0.0983,
      "velocity": 127,
      "chip": "ym2612"
    },
    {
      "channel": 2,
      "note": 68,
      "start": 3.2343,
      "duration": 0.0994,
      "velocity": 127,
      "chip": "ym2612"
    },
    {
      "channel": 0,
      "note": 72,
      "start": 3.3376,
      "duration": 0.6272,
      "velocity": 97,
      "chip": "ym2612"
    },
    {
      "channel": 1,
      "note": 57,
      "start": 3.3384,
      "duration": 0.3131,
      "velocity": 94,
      "chip": "ym2612"
    },
    {
      "channel": 3,
      "note": 57,
      "start": 3.3391,
      "duration": 1.2568,
      "velocity": 92,
      "chip": "ym2612"
    },
    {
      "channel": 4,
      "note": 52,
      "start": 3.3412,
      "duration": 0.8366,
      "velocity": 92,
      "chip": "ym2612"
    },
    {
      "channel": 2,
      "note": 29,
      "start": 3.3425,
      "duration": 0.0959,
      "velocity": 119,
      "chip": "ym2612"
    },
    {
      "channel": 5,
      "note": 60,
      "start": 3.4446,
      "duration": 0.6265,
      "velocity": 97,
      "chip": "ym2612"
    },
    {
      "channel": 2,
      "note": 68,
      "start": 3.4454,
      "duration": 0.0977,
      "velocity": 127,
      "chip": "ym2612"
    },
    {
      "channel": 2,
      "note": 68,
      "start": 3.5483,
      "duration": 0.0995,
      "velocity": 127,
      "chip": "ym2612"
    },
    {
      "channel": 1,
      "note": 57,
      "start": 3.652,
      "duration": 0.1039,
      "velocity": 94,
      "chip": "ym2612"
    },
    {
      "channel": 2,
      "note": 29,
      "start": 3.6539,
      "duration": 0.0987,
      "velocity": 119,
      "chip": "ym2612"
    },
    {
      "channel": 1,
      "note": 52,
      "start": 3.7564,
      "duration": 0.2092,
      "velocity": 94,
      "chip": "ym2612"
    },
    {
      "channel": 2,
      "note": 75,
      "start": 3.7598,
      "duration": 0.0984,
      "velocity": 120,
      "chip": "ym2612"
    },
    {
      "channel": 2,
      "note": 68,
      "start": 3.8637,
      "duration": 0.0983,
      "velocity": 127,
      "chip": "ym2612"
    },
    {
      "channel": 0,
      "note": 81,
      "start": 3.9655,
      "duration": 0.6288,
      "velocity": 97,
      "chip": "ym2612"
    },
    {
      "channel": 1,
      "note": 57,
      "start": 3.9662,
      "duration": 0.2105,
      "velocity": 94,
      "chip": "ym2612"
    },
    {
      "channel": 2,
      "note": 68,
      "start": 3.9682,
      "duration": 0.0985,
      "velocity": 127,
      "chip": "ym2612"
    },
    {
      "channel": 5,
      "note": 69,
      "start": 4.0717,
      "duration": 0.6277,
      "velocity": 97,
      "chip": "ym2612"
    },
    {
      "channel": 2,
      "note": 68,
      "start": 4.0726,
      "duration": 0.0993,
      "velocity": 127,
      "chip": "ym2612"
    },
    {
      "channel": 1,
      "note": 55,
      "start": 4.1773,
      "duration": 0.312,
      "velocity": 94,
      "chip": "ym2612"
    },
    {
      "channel": 4,
      "note": 50,
      "start": 4.1784,
      "duration": 0.8365,
      "velocity": 92,
      "chip": "ym2612"
    },
    {
      "channel": 2,
      "note": 29,
      "start": 4.1796,
      "duration": 0.0966,
      "velocity": 119,
      "chip": "ym2612"
    },
    {
      "channel": 2,
      "note": 68,
      "start": 4.2817,
      "duration": 0.0993,
      "velocity": 127,
      "chip": "ym2612"
    },
    {
      "channel": 2,
      "note": 68,
      "start": 4.3864,
      "duration": 0.0993,
      "velocity": 127,
      "chip": "ym2612"
    },
    {
      "channel": 1,
      "note": 55,
      "start": 4.4911,
      "duration": 0.104,
      "velocity": 94,
      "chip": "ym2612"
    },
    {
      "channel": 2,
      "note": 29,
      "start": 4.4931,
      "duration": 0.0984,
      "velocity": 119,
      "chip": "ym2612"
    },
    {
      "channel": 0,
      "note": 79,
      "start": 4.595,
      "duration": 0.4176,
      "velocity": 97,
      "chip": "ym2612"
    },
    {
      "channel": 1,
      "note": 50,
      "start": 4.5958,
      "duration": 0.2073,
      "velocity": 94,
      "chip": "ym2612"
    },
    {
      "channel": 3,
      "note": 55,
      "start": 4.5965,
      "duration": 0.4177,
      "velocity": 92,
      "chip": "ym2612"
    },
    {
      "channel": 2,
      "note": 75,
      "start": 4.5982,
      "duration": 0.097,
      "velocity": 120,
      "chip": "ym2612"
    },
    {
      "channel": 5,
      "note": 67,
      "start": 4.7,
      "duration": 0.4183,
      "velocity": 97,
      "chip": "ym2612"
    },
    {
      "channel": 2,
      "note": 68,
      "start": 4.7009,
      "duration": 0.099,
      "velocity": 127,
      "chip": "ym2612"
    },
    {
      "channel": 1,
      "note": 54,
      "start": 4.8037,
      "duration": 0.2098,
      "velocity": 94,
      "chip": "ym2612"
    },
    {
      "channel": 2,
      "note": 68,
      "start": 4.8056,
      "duration": 0.099,
      "velocity": 127,
      "chip": "ym2612"
    },
    {
      "channel": 2,
      "note": 68,
      "start": 4.9114,
      "duration": 0.098,
      "velocity": 127,
      "chip": "ym2612"
    },
    {
      "channel": 0,
      "note": 78,
      "start": 5.0133,
      "duration": 0.8373,
      "velocity": 97,
      "chip": "ym2612"
    },
    {
      "channel": 1,
      "note": 59,
      "start": 5.014,
      "duration": 0.3145,
      "velocity": 94,
      "chip": "ym2612"
    },
    {
      "channel": 3,
      "note": 59,
      "start": 5.0148,
      "duration": 1.6765,
      "velocity": 92,
      "chip": "ym2612"
    },
    {
      "channel": 4,
      "note": 54,
      "start": 5.0155,
      "duration": 1.6765,
      "velocity": 92,
      "chip": "ym2612"
    },
    {
      "channel": 2,
      "note": 29,
      "start": 5.0168,
      "duration": 0.0973,
      "velocity": 119,
      "chip": "ym2612"
    },
    {
      "channel": 5,
      "note": 66,
      "start": 5.119,
      "duration": 0.8388,
      "velocity": 97,
      "chip": "ym2612"
    },
    {
      "channel": 2,
      "note": 68,
      "start": 5.1198,
      "duration": 0.099,
      "velocity": 127,
      "chip": "ym2612"
    },
    {
      "channel": 2,
      "note": 68,
      "start": 5.2254,
      "duration": 0.0995,
      "velocity": 127,
      "chip": "ym2612"
    },
    {
      "channel": 1,
      "note": 59,
      "start": 5.329,
      "duration": 0.2075,
      "velocity": 94,
      "chip": "ym2612"
    },
    {
      "channel": 2,
      "note": 29,
      "start": 5.3309,
      "duration": 0.0974,
      "velocity": 119,
      "chip": "ym2612"
    },
    {
      "channel": 2,
      "note": 75,
      "start": 5.4338,
      "duration": 0.0994,
      "velocity": 120,
      "chip": "ym2612"
    },
    {
      "channel": 1,
      "note": 54,
      "start": 5.5371,
      "duration": 0.1052,
      "velocity": 94,
      "chip": "ym2612"
    },
    {
      "channel": 2,
      "note": 68,
      "start": 5.5391,
      "duration": 0.0987,
      "velocity": 127,
      "chip": "ym2612"
    },
    {
      "channel": 1,
      "note": 54,
      "start": 5.6428,
      "duration": 0.1029,
      "velocity": 94,
      "chip": "ym2612"
    },
    {
      "channel": 2,
      "note": 68,
      "start": 5.6448,
      "duration": 0.0976,
      "velocity": 127,
      "chip": "ym2612"
    },
    {
      "channel": 1,
      "note": 55,
      "start": 5.7463,
      "duration": 0.1051,
      "velocity": 94,
      "chip": "ym2612"
    },
    {
      "channel": 2,
      "note": 68,
      "start": 5.7483,
      "duration": 0.099,
      "velocity": 127,
      "chip": "ym2612"
    },
    {
      "channel": 0,
      "note": 79,
      "start": 5.8512,
      "duration": 0.4177,
      "velocity": 97,
      "chip": "ym2612"
    },
    {
      "channel": 1,
      "note": 59,
      "start": 5.852,
      "duration": 0.1031,
      "velocity": 94,
      "chip": "ym2612"
    },
    {
      "channel": 2,
      "note": 29,
      "start": 5.854,
      "duration": 0.0979,
      "velocity": 119,
      "chip": "ym2612"
    },
    {
      "channel": 1,
      "note": 59,
      "start": 5.9556,
      "duration": 0.1055,
      "velocity": 94,
      "chip": "ym2612"
    },
    {
      "channel": 5,
      "note": 67,
      "start": 5.9585,
      "duration": 0.4179,
      "velocity": 97,
      "chip": "ym2612"
    },
    {
      "channel": 2,
      "note": 68,
      "start": 5.9593,
      "duration": 0.0986,
      "velocity": 127,
      "chip": "ym2612"
    },
    {
      "channel": 1,
      "note": 60,
      "start": 6.0617,
      "duration": 0.2081,
      "velocity": 94,
      "chip": "ym2612"
    },
    {
      "channel": 2,
      "note": 68,
      "start": 6.0637,
      "duration": 0.0978,
      "velocity": 127,
      "chip": "ym2612"
    },
    {
      "channel": 2,
      "note": 29,
      "start": 6.1672,
      "duration": 0.0989,
      "velocity": 119,
      "chip": "ym2612"
    },
    {
      "channel": 0,
      "note": 81,
      "start": 6.2696,
      "duration": 0.4188,
      "velocity": 97,
      "chip": "ym2612"
    },
    {
      "channel": 1,
      "note": 62,
      "start": 6.2704,
      "duration": 0.2083,
      "velocity": 94,
      "chip": "ym2612"
    },
    {
      "channel": 2,
      "note": 75,
      "start": 6.2724,
      "duration": 0.0984,
      "velocity": 120,
      "chip": "ym2612"
    },
    {
      "channel": 5,
      "note": 69,
      "start": 6.377,
      "duration": 0.418,
      "velocity": 97,
      "chip": "ym2612"
    },
    {
      "channel": 2,
      "note": 68,
      "start": 6.3779,
      "duration": 0.0977,
      "velocity": 127,
      "chip": "ym2612"
    },
    {
      "channel": 1,
      "note": 59,
      "start": 6.4794,
      "duration": 0.1043,
      "velocity": 94,
      "chip": "ym2612"
    },
    {
      "channel": 2,
      "note": 68,
      "start": 6.4813,
      "duration": 0.0991,
      "velocity": 127,
      "chip": "ym2612"
    },
    {
      "channel": 1,
      "note": 64,
      "start": 6.5843,
      "duration": 0.105,
      "velocity": 94,
      "chip": "ym2612"
    },
    {
      "channel": 2,
      "note": 68,
      "start": 6.5862,
      "duration": 0.099,
      "velocity": 127,
      "chip": "ym2612"
    },
    {
      "channel": 0,
      "note": 83,
      "start": 6.689,
      "duration": 1.0461,
      "velocity": 97,
      "chip": "ym2612"
    },
    {
      "channel": 1,
      "note": 64,
      "start": 6.6911,
      "duration": 0.3118,
      "velocity": 94,
      "chip": "ym2612"
    },
    {
      "channel": 3,
      "note": 64,
      "start": 6.6919,
      "duration": 1.2543,
      "velocity": 92,
      "chip": "ym2612"
    },
    {
      "channel": 2,
      "note": 29,
      "start": 6.6935,
      "duration": 0.0963,
      "velocity": 119,
      "chip": "ym2612"
    },
    {
      "channel": 5,
      "note": 71,
      "start": 6.7957,
      "duration": 1.0475,
      "velocity": 97,
      "chip": "ym2612"
    },
    {
      "channel": 2,
      "note": 68,
      "start": 6.7966,
      "duration": 0.0981,
      "velocity": 127,
      "chip": "ym2612"
    },
    {
      "channel": 2,
      "note": 68,
      "start": 6.8998,
      "duration": 0.0995,
      "velocity": 127,
      "chip": "ym2612"
    },
    {
      "channel": 1,
      "note": 64,
      "start": 7.0034,
      "duration": 0.1051,
      "velocity": 94,
      "chip": "ym2612"
    },
    {
      "channel": 2,
      "note": 29,
      "start": 7.0051,
      "duration": 0.0989,
      "velocity": 119,
      "chip": "ym2612"
    },
    {
      "channel": 1,
      "note": 59,
      "start": 7.1091,
      "duration": 0.2075,
      "velocity": 94,
      "chip": "ym2612"
    },
    {
      "channel": 2,
      "note": 75,
      "start": 7.111,
      "duration": 0.0978,
      "velocity": 120,
      "chip": "ym2612"
    },
    {
      "channel": 2,
      "note": 68,
      "start": 7.214,
      "duration": 0.0994,
      "velocity": 127,
      "chip": "ym2612"
    },
    {
      "channel": 1,
      "note": 62,
      "start": 7.3173,
      "duration": 0.1042,
      "velocity": 94,
      "chip": "ym2612"
    },
    {
      "channel": 2,
      "note": 68,
      "start": 7.319,
      "duration": 0.0992,
      "velocity": 127,
      "chip": "ym2612"
    },
    {
      "channel": 1,
      "note": 64,
      "start": 7.4221,
      "duration": 0.106,
      "velocity": 94,
      "chip": "ym2612"
    },
    {
      "channel": 2,
      "note": 68,
      "start": 7.4252,
      "duration": 0.0978,
      "velocity": 127,
      "chip": "ym2612"
    },
    {
      "channel": 1,
      "note": 64,
      "start": 7.5286,
      "duration": 0.3134,
      "velocity": 94,
      "chip": "ym2612"
    },
    {
      "channel": 2,
      "note": 29,
      "start": 7.5304,
      "duration": 0.0973,
      "velocity": 119,
      "chip": "ym2612"
    },
    {
      "channel": 2,
      "note": 68,
      "start": 7.6329,
      "duration": 0.0995,
      "velocity": 127,
      "chip": "ym2612"
    },
    {
      "channel": 0,
      "note": 83,
      "start": 7.7357,
      "duration": 0.209,
      "velocity": 97,
      "chip": "ym2612"
    },
    {
      "channel": 2,
      "note": 68,
      "start": 7.7378,
      "duration": 0.0994,
      "velocity": 127,
      "chip": "ym2612"
    },
    {
      "channel": 1,
      "note": 66,
      "start": 7.8426,
      "duration": 0.1029,
      "velocity": 94,
      "chip": "ym2612"
    },
    {
      "channel": 5,
      "note": 71,
      "start": 7.8437,
      "duration": 0.2075,
      "velocity": 97,
      "chip": "ym2612"
    },
    {
      "channel": 2,
      "note": 29,
      "start": 7.8445,
      "duration": 0.0973,
      "velocity": 119,
      "chip": "ym2612"
    },
    {
      "channel": 0,
      "note": 90,
      "start": 7.9454,
      "duration": 0.2088,
      "velocity": 97,
      "chip": "ym2612"
    },
    {
      "channel": 1,
      "note": 67,
      "start": 7.9461,
      "duration": 0.1036,
      "velocity": 94,
      "chip": "ym2612"
    },
    {
      "channel": 3,
      "note": 67,
      "start": 7.9468,
      "duration": 0.4188,
      "velocity": 92,
      "chip": "ym2612"
    },
    {
      "channel": 4,
      "note": 64,
      "start": 7.9476,
      "duration": 0.4188,
      "velocity": 92,
      "chip": "ym2612"
    },
    {
      "channel": 2,
      "note": 75,
      "start": 7.9488,
      "duration": 0.0977,
      "velocity": 120,
      "chip": "ym2612"
    },
    {
      "channel": 1,
      "note": 66,
      "start": 8.0503,
      "duration": 0.1046,
      "velocity": 94,
      "chip": "ym2612"
    },
    {
      "channel": 5,
      "note": 78,
      "start": 8.0518,
      "duration": 0.2105,
      "velocity": 97,
      "chip": "ym2612"
    },
    {
      "channel": 2,
      "note": 68,
      "start": 8.0527,
      "duration": 0.0986,
      "velocity": 127,
      "chip": "ym2612"
    },
    {
      "channel": 0,
      "note": 88,
      "start": 8.1548,
      "duration": 0.2093,
      "velocity": 97,
      "chip": "ym2612"
    },
    {
      "channel": 1,
      "note": 64,
      "start": 8.1555,
      "duration": 0.1054,
      "velocity": 94,
      "chip": "ym2612"
    },
    {
      "channel": 2,
      "note": 68,
      "start": 8.1588,
      "duration": 0.0977,
      "velocity": 127,
      "chip": "ym2612"
    },
    {
      "channel": 1,
      "note": 62,
      "start": 8.2614,
      "duration": 0.1035,
      "velocity": 94,
      "chip": "ym2612"
    },
    {
      "channel": 5,
      "note": 76,
      "start": 8.263,
      "duration": 0.2067,
      "velocity": 97,
      "chip": "ym2612"
    },
    {
      "channel": 2,
      "note": 68,
      "start": 8.2639,
      "duration": 0.097,
      "velocity": 127,
      "chip": "ym2612"
    },
    {
      "channel": 0,
      "note": 86,
      "start": 8.3647,
      "duration": 0.8372,
      "velocity": 97,
      "chip": "ym2612"
    },
    {
      "channel": 1,
      "note": 60,
      "start": 8.3655,
      "duration": 0.3132,
      "velocity": 94,
      "chip": "ym2612"
    },
    {
      "channel": 3,
      "note": 72,
      "start": 8.3663,
      "duration": 0.8373,
      "velocity": 92,
      "chip": "ym2612"
    },
    {
      "channel": 4,
      "note": 67,
      "start": 8.367,
      "duration": 0.8373,
      "velocity": 92,
      "chip": "ym2612"
    },
    {
      "channel": 2,
      "note": 29,
      "start": 8.3682,
      "duration": 0.0973,
      "velocity": 119,
      "chip": "ym2612"
    },
    {
      "channel": 5,
      "note": 74,
      "start": 8.4704,
      "duration": 0.8385,
      "velocity": 97,
      "chip": "ym2612"
    },
    {
      "channel": 2,
      "note": 68,
      "start": 8.4713,
      "duration": 0.099,
      "velocity": 127,
      "chip": "ym2612"
    },
    {
      "channel": 2,
      "note": 68,
      "start": 8.5769,
      "duration": 0.0981,
      "velocity": 127,
      "chip": "ym2612"
    },
    {
      "channel": 1,
      "note": 60,
      "start": 8.6791,
      "duration": 0.1038,
      "velocity": 94,
      "chip": "ym2612"
    },
    {
      "channel": 2,
      "note": 29,
      "start": 8.681,
      "duration": 0.0987,
      "velocity": 119,
      "chip": "ym2612"
    },
    {
      "channel": 1,
      "note": 55,
      "start": 8.7836,
      "duration": 0.2102,
      "velocity": 94,
      "chip": "ym2612"
    },
    {
      "channel": 2,
      "note": 75,
      "start": 8.7856,
      "duration": 0.0989,
      "velocity": 120,
      "chip": "ym2612"
    },
    {
      "channel": 2,
      "note": 68,
      "start": 8.8913,
      "duration": 0.0979,
      "velocity": 127,
      "chip": "ym2612"
    },
    {
      "channel": 1,
      "note": 59,
      "start": 8.9943,
      "duration": 0.1029,
      "velocity": 94,
      "chip": "ym2612"
    },
    {
      "channel": 2,
      "note": 68,
      "start": 8.9963,
      "duration": 0.0976,
      "velocity": 127,
      "chip": "ym2612"
    },
    {
      "channel": 1,
      "note": 60,
      "start": 9.0978,
      "duration": 0.105,
      "velocity": 94,
      "chip": "ym2612"
    },
    {
      "channel": 2,
      "note": 68,
      "start": 9.0998,
      "duration": 0.099,
      "velocity": 127,
      "chip": "ym2612"
    },
    {
      "channel": 0,
      "note": 84,
      "start": 9.2027,
      "duration": 0.418,
      "velocity": 97,
      "chip": "ym2612"
    },
    {
      "channel": 1,
      "note": 60,
      "start": 9.2034,
      "duration": 0.313,
      "velocity": 94,
      "chip": "ym2612"
    },
    {
      "channel": 3,
      "note": 71,
      "start": 9.2042,
      "duration": 0.418,
      "velocity": 92,
      "chip": "ym2612"
    },
    {
      "channel": 4,
      "note": 66,
      "start": 9.2049,
      "duration": 0.4181,
      "velocity": 92,
      "chip": "ym2612"
    },
    {
      "channel": 2,
      "note": 29,
      "start": 9.2062,
      "duration": 0.0972,
      "velocity": 119,
      "chip": "ym2612"
    },
    {
      "channel": 5,
      "note": 72,
      "start": 9.3096,
      "duration": 0.4182,
      "velocity": 97,
      "chip": "ym2612"
    },
    {
      "channel": 2,
      "note": 68,
      "start": 9.3105,
      "duration": 0.0977,
      "velocity": 127,
      "chip": "ym2612"
    },
    {
      "channel": 2,
      "note": 68,
      "start": 9.4135,
      "duration": 0.0994,
      "velocity": 127,
      "chip": "ym2612"
    },
    {
      "channel": 1,
      "note": 62,
      "start": 9.5171,
      "duration": 0.1044,
      "velocity": 94,
      "chip": "ym2612"
    },
    {
      "channel": 2,
      "note": 29,
      "start": 9.519,
      "duration": 0.0989,
      "velocity": 119,
      "chip": "ym2612"
    },
    {
      "channel": 0,
      "note": 86,
      "start": 9.6214,
      "duration": 0.2085,
      "velocity": 97,
      "chip": "ym2612"
    },
    {
      "channel": 1,
      "note": 64,
      "start": 9.6221,
      "duration": 0.2086,
      "velocity": 94,
      "chip": "ym2612"
    },
    {
      "channel": 3,
      "note": 67,
      "start": 9.6229,
      "duration": 0.4198,
      "velocity": 92,
      "chip": "ym2612"
    },
    {
      "channel": 4,
      "note": 64,
      "start": 9.6249,
      "duration": 0.4185,
      "velocity": 92,
      "chip": "ym2612"
    },
    {
      "channel": 2,
      "note": 75,
      "start": 9.6263,
      "duration": 0.0959,
      "velocity": 120,
      "chip": "ym2612"
    },
    {
      "channel": 5,
      "note": 74,
      "start": 9.7285,
      "duration": 0.2075,
      "velocity": 97,
      "chip": "ym2612"
    },
    {
      "channel": 2,
      "note": 68,
      "start": 9.7294,
      "duration": 0.0977,
      "velocity": 127,
      "chip": "ym2612"
    },
    {
      "channel": 0,
      "note": 84,
      "start": 9.8306,
      "duration": 0.2092,
      "velocity": 97,
      "chip": "ym2612"
    },
    {
      "channel": 1,
      "note": 60,
      "start": 9.8313,
      "duration": 0.2107,
      "velocity": 94,
      "chip": "ym2612"
    },
    {
      "channel": 2,
      "note": 68,
      "start": 9.8333,
      "duration": 0.0985,
      "velocity": 127,
      "chip": "ym2612"
    },
    {
      "channel": 5,
      "note": 72,
      "start": 9.9367,
      "duration": 0.2091,
      "velocity": 97,
      "chip": "ym2612"
    },
    {
      "channel": 2,
      "note": 68,
      "start": 9.9375,
      "duration": 0.0991,
      "velocity": 127,
      "chip": "ym2612"
    },
    {
      "channel": 0,
      "note": 69,
      "start": 10.0418,
      "duration": 0.4178,
      "velocity": 97,
      "chip": "ym2612"
    },
    {
      "channel": 1,
      "note": 57,
      "start": 10.0425,
      "duration": 0.3119,
      "velocity": 94,
      "chip": "ym2612"
    },
    {
      "channel": 3,
      "note": 69,
      "start": 10.0433,
      "duration": 1.2544,
      "velocity": 92,
      "chip": "ym2612"
    },
    {
      "channel": 4,
      "note": 64,
      "start": 10.0441,
      "duration": 1.2544,
      "velocity": 92,
      "chip": "ym2612"
    },
    {
      "channel": 2,
      "note": 29,
      "start": 10.0452,
      "duration": 0.0964,
      "velocity": 119,
      "chip": "ym2612"
    },
    {
      "channel": 5,
      "note": 57,
      "start": 10.1465,
      "duration": 0.4179,
      "velocity": 97,
      "chip": "ym2612"
    },
    {
      "channel": 2,
      "note": 68,
      "start": 10.1473,
      "duration": 0.0987,
      "velocity": 127,
      "chip": "ym2612"
    },
    {
      "channel": 2,
      "note": 68,
      "start": 10.2512,
      "duration": 0.0995,
      "velocity": 127,
      "chip": "ym2612"
    },
    {
      "channel": 1,
      "note": 57,
      "start": 10.3549,
      "duration": 0.1055,
      "velocity": 94,
      "chip": "ym2612"
    },
    {
      "channel": 2,
      "note": 29,
      "start": 10.3581,
      "duration": 0.0974,
      "velocity": 119,
      "chip": "ym2612"
    },
    {
      "channel": 0,
      "note": 71,
      "start": 10.4602,
      "duration": 0.2075,
      "velocity": 97,
      "chip": "ym2612"
    },
    {
      "channel": 1,
      "note": 52,
      "start": 10.461,
      "duration": 0.2076,
      "velocity": 94,
      "chip": "ym2612"
    },
    {
      "channel": 2,
      "note": 75,
      "start": 10.463,
      "duration": 0.0971,
      "velocity": 120,
      "chip": "ym2612"
    },
    {
      "channel": 5,
      "note": 59,
      "start": 10.5651,
      "duration": 0.21,
      "velocity": 97,
      "chip": "ym2612"
    },
    {
      "channel": 2,
      "note": 68,
      "start": 10.5659,
      "duration": 0.099,
      "velocity": 127,
      "chip": "ym2612"
    },
    {
      "channel": 0,
      "note": 72,
      "start": 10.6684,
      "duration": 0.4182,
      "velocity": 97,
      "chip": "ym2612"
    },
    {
      "channel": 1,
      "note": 57,
      "start": 10.6691,
      "duration": 0.2094,
      "velocity": 94,
      "chip": "ym2612"
    },
    {
      "channel": 2,
      "note": 68,
      "start": 10.6711,
      "duration": 0.0985,
      "velocity": 127,
      "chip": "ym2612"
    },
    {
      "channel": 5,
      "note": 60,
      "start": 10.7758,
      "duration": 0.4189,
      "velocity": 97,
      "chip": "ym2612"
    },
    {
      "channel": 2,
      "note": 68,
      "start": 10.7766,
      "duration": 0.0983,
      "velocity": 127,
      "chip": "ym2612"
    },
    {
      "channel": 1,
      "note": 55,
      "start": 10.8791,
      "duration": 0.3143,
      "velocity": 94,
      "chip": "ym2612"
    },
    {
      "channel": 2,
      "note": 29,
      "start": 10.881,
      "duration": 0.0983,
      "velocity": 119,
      "chip": "ym2612"
    },
    {
      "channel": 2,
      "note": 68,
      "start": 10.9848,
      "duration": 0.099,
      "velocity": 127,
      "chip": "ym2612"
    },
    {
      "channel": 0,
      "note": 72,
      "start": 11.0871,
      "duration": 0.209,
      "velocity": 97,
      "chip": "ym2612"
    },
    {
      "channel": 2,
      "note": 68,
      "start": 11.0895,
      "duration": 0.099,
      "velocity": 127,
      "chip": "ym2612"
    },
    {
      "channel": 1,
      "note": 55,
      "start": 11.1939,
      "duration": 0.1031,
      "velocity": 94,
      "chip": "ym2612"
    },
    {
      "channel": 5,
      "note": 60,
      "start": 11.1953,
      "duration": 0.2069,
      "velocity": 97,
      "chip": "ym2612"
    },
    {
      "channel": 2,
      "note": 29,
      "start": 11.1961,
      "duration": 0.0972,
      "velocity": 119,
      "chip": "ym2612"
    },
    {
      "channel": 0,
      "note": 79,
      "start": 11.2968,
      "duration": 0.2087,
      "velocity": 97,
      "chip": "ym2612"
    },
    {
      "channel": 1,
      "note": 50,
      "start": 11.2975,
      "duration": 0.2088,
      "velocity": 94,
      "chip": "ym2612"
    },
    {
      "channel": 3,
      "note": 67,
      "start": 11.2983,
      "duration": 0.4188,
      "velocity": 92,
      "chip": "ym2612"
    },
    {
      "channel": 4,
      "note": 62,
      "start": 11.299,
      "duration": 0.2097,
      "velocity": 92,
      "chip": "ym2612"
    },
    {
      "channel": 2,
      "note": 75,
      "start": 11.3002,
      "duration": 0.0978,
      "velocity": 120,
      "chip": "ym2612"
    },
    {
      "channel": 5,
      "note": 67,
      "start": 11.4029,
      "duration": 0.2095,
      "velocity": 97,
      "chip": "ym2612"
    },
    {
      "channel": 2,
      "note": 68,
      "start": 11.4037,
      "duration": 0.099,
      "velocity": 127,
      "chip": "ym2612"
    },
    {
      "channel": 0,
      "note": 78,
      "start": 11.5062,
      "duration": 0.2093,
      "velocity": 97,
      "chip": "ym2612"
    },
    {
      "channel": 1,
      "note": 54,
      "start": 11.5083,
      "duration": 0.2081,
      "velocity": 94,
      "chip": "ym2612"
    },
    {
      "channel": 4,
      "note": 59,
      "start": 11.5093,
      "duration": 0.2085,
      "velocity": 92,
      "chip": "ym2612"
    },
    {
      "channel": 2,
      "note": 68,
      "start": 11.5105,
      "duration": 0.0977,
      "velocity": 127,
      "chip": "ym2612"
    },
    {
      "channel": 5,
      "note": 66,
      "start": 11.6132,
      "duration": 0.2081,
      "velocity": 97,
      "chip": "ym2612"
    },
    {
      "channel": 2,
      "note": 68,
      "start": 11.614,
      "duration": 0.0983,
      "velocity": 127,
      "chip": "ym2612"
    },
    {
      "channel": 0,
      "note": 76,
      "start": 11.7162,
      "duration": 0.6285,
      "velocity": 97,
      "chip": "ym2612"
    },
    {
      "channel": 1,
      "note": 59,
      "start": 11.717,
      "duration": 0.3131,
      "velocity": 94,
      "chip": "ym2612"
    },
    {
      "channel": 3,
      "note": 71,
      "start": 11.7177,
      "duration": 1.6763,
      "velocity": 92,
      "chip": "ym2612"
    },
    {
      "channel": 4,
      "note": 66,
      "start": 11.7184,
      "duration": 1.2566,
      "velocity": 92,
      "chip": "ym2612"
    },
    {
      "channel": 2,
      "note": 29,
      "start": 11.7196,
      "duration": 0.0973,
      "velocity": 119,
      "chip": "ym2612"
    },
    {
      "channel": 5,
      "note": 64,
      "start": 11.8219,
      "duration": 0.6281,
      "velocity": 97,
      "chip": "ym2612"
    },
    {
      "channel": 2,
      "note": 68,
      "start": 11.8228,
      "duration": 0.099,
      "velocity": 127,
      "chip": "ym2612"
    },
    {
      "channel": 2,
      "note": 68,
      "start": 11.9284,
      "duration": 0.0981,
      "velocity": 127,
      "chip": "ym2612"
    },
    {
      "channel": 1,
      "note": 59,
      "start": 12.0305,
      "duration": 0.1038,
      "velocity": 94,
      "chip": "ym2612"
    },
    {
      "channel": 2,
      "note": 29,
      "start": 12.0324,
      "duration": 0.0987,
      "velocity": 119,
      "chip": "ym2612"
    },
    {
      "channel": 1,
      "note": 59,
      "start": 12.1348,
      "duration": 0.1043,
      "velocity": 94,
      "chip": "ym2612"
    },
    {
      "channel": 2,
      "note": 75,
      "start": 12.1369,
      "duration": 0.099,
      "velocity": 120,
      "chip": "ym2612"
    },
    {
      "channel": 1,
      "note": 59,
      "start": 12.2395,
      "duration": 0.106,
      "velocity": 94,
      "chip": "ym2612"
    },
    {
      "channel": 2,
      "note": 68,
      "start": 12.2429,
      "duration": 0.099,
      "velocity": 127,
      "chip": "ym2612"
    },
    {
      "channel": 0,
      "note": 75,
      "start": 12.3454,
      "duration": 0.6264,
      "velocity": 97,
      "chip": "ym2612"
    },
    {
      "channel": 1,
      "note": 62,
      "start": 12.3462,
      "duration": 0.1024,
      "velocity": 94,
      "chip": "ym2612"
    },
    {
      "channel": 2,
      "note": 68,
      "start": 12.3481,
      "duration": 0.0972,
      "velocity": 127,
      "chip": "ym2612"
    },
    {
      "channel": 1,
      "note": 60,
      "start": 12.4491,
      "duration": 0.1042,
      "velocity": 94,
      "chip": "ym2612"
    },
    {
      "channel": 5,
      "note": 63,
      "start": 12.4506,
      "duration": 0.6283,
      "velocity": 97,
      "chip": "ym2612"
    },
    {
      "channel": 2,
      "note": 68,
      "start": 12.4515,
      "duration": 0.0986,
      "velocity": 127,
      "chip": "ym2612"
    },
    {
      "channel": 1,
      "note": 59,
      "start": 12.5539,
      "duration": 0.3136,
      "velocity": 94,
      "chip": "ym2612"
    },
    {
      "channel": 2,
      "note": 68,
      "start": 12.5558,
      "duration": 0.099,
      "velocity": 127,
      "chip": "ym2612"
    },
    {
      "channel": 2,
      "note": 79,
      "start": 12.6617,
      "duration": 0.0978,
      "velocity": 120,
      "chip": "ym2612"
    },
    {
      "channel": 2,
      "note": 79,
      "start": 12.7652,
      "duration": 0.0991,
      "velocity": 120,
      "chip": "ym2612"
    },
    {
      "channel": 1,
      "note": 59,
      "start": 12.868,
      "duration": 0.1046,
      "velocity": 94,
      "chip": "ym2612"
    },
    {
      "channel": 2,
      "note": 79,
      "start": 12.8702,
      "duration": 0.0988,
      "velocity": 120,
      "chip": "ym2612"
    },
    {
      "channel": 0,
      "note": 83,
      "start": 12.9725,
      "duration": 0.2088,
      "velocity": 97,
      "chip": "ym2612"
    },
    {
      "channel": 1,
      "note": 62,
      "start": 12.9745,
      "duration": 0.2076,
      "velocity": 94,
      "chip": "ym2612"
    },
    {
      "channel": 2,
      "note": 74,
      "start": 12.9766,
      "duration": 0.0983,
      "velocity": 120,
      "chip": "ym2612"
    },
    {
      "channel": 5,
      "note": 71,
      "start": 13.0796,
      "duration": 0.2076,
      "velocity": 97,
      "chip": "ym2612"
    },
    {
      "channel": 2,
      "note": 74,
      "start": 13.0805,
      "duration": 0.098,
      "velocity": 120,
      "chip": "ym2612"
    },
    {
      "channel": 0,
      "note": 81,
      "start": 13.1819,
      "duration": 0.2105,
      "velocity": 97,
      "chip": "ym2612"
    },
    {
      "channel": 1,
      "note": 59,
      "start": 13.1827,
      "duration": 0.2106,
      "velocity": 94,
      "chip": "ym2612"
    },
    {
      "channel": 2,
      "note": 69,
      "start": 13.1845,
      "duration": 0.0988,
      "velocity": 120,
      "chip": "ym2612"
    },
    {
      "channel": 5,
      "note": 69,
      "start": 13.2878,
      "duration": 0.209,
      "velocity": 97,
      "chip": "ym2612"
    },
    {
      "channel": 2,
      "note": 69,
      "start": 13.2888,
      "duration": 0.0991,
      "velocity": 120,
      "chip": "ym2612"
    },
    {
      "channel": 0,
      "note": 79,
      "start": 13.3932,
      "duration": 0.626,
      "velocity": 97,
      "chip": "ym2612"
    },
    {
      "channel": 1,
      "note": 64,
      "start": 13.3939,
      "duration": 0.3122,
      "velocity": 94,
      "chip": "ym2612"
    },
    {
      "channel": 3,
      "note": 64,
      "start": 13.3946,
      "duration": 1.2545,
      "velocity": 92,
      "chip": "ym2612"
    },
    {
      "channel": 4,
      "note": 59,
      "start": 13.3954,
      "duration": 1.2545,
      "velocity": 92,
      "chip": "ym2612"
    },
    {
      "channel": 2,
      "note": 29,
      "start": 13.3966,
      "duration": 0.0961,
      "velocity": 119,
      "chip": "ym2612"
    },
    {
      "channel": 5,
      "note": 67,
      "start": 13.4976,
      "duration": 0.6294,
      "velocity": 97,
      "chip": "ym2612"
    },
    {
      "channel": 2,
      "note": 68,
      "start": 13.4984,
      "duration": 0.099,
      "velocity": 127,
      "chip": "ym2612"
    },
    {
      "channel": 2,
      "note": 68,
      "start": 13.6027,
      "duration": 0.0998,
      "velocity": 127,
      "chip": "ym2612"
    },
    {
      "channel": 1,
      "note": 64,
      "start": 13.7079,
      "duration": 0.1036,
      "velocity": 94,
      "chip": "ym2612"
    },
    {
      "channel": 2,
      "note": 29,
      "start": 13.7098,
      "duration": 0.0985,
      "velocity": 119,
      "chip": "ym2612"
    },
    {
      "channel": 1,
      "note": 59,
      "start": 13.8121,
      "duration": 0.2078,
      "velocity": 94,
      "chip": "ym2612"
    },
    {
      "channel": 2,
      "note": 75,
      "start": 13.8142,
      "duration": 0.0974,
      "velocity": 120,
      "chip": "ym2612"
    },
    {
      "channel": 2,
      "note": 68,
      "start": 13.917,
      "duration": 0.0993,
      "velocity": 127,
      "chip": "ym2612"
    },
    {
      "channel": 0,
      "note": 78,
      "start": 14.0198,
      "duration": 0.6277,
      "velocity": 97,
      "chip": "ym2612"
    },
    {
      "channel": 1,
      "note": 62,
      "start": 14.0205,
      "duration": 0.105,
      "velocity": 94,
      "chip": "ym2612"
    },
    {
      "channel": 2,
      "note": 68,
      "start": 14.0226,
      "duration": 0.0985,
      "velocity": 127,
      "chip": "ym2612"
    },
    {
      "channel": 1,
      "note": 64,
      "start": 14.1261,
      "duration": 0.1034,
      "velocity": 94,
      "chip": "ym2612"
    },
    {
      "channel": 5,
      "note": 66,
      "start": 14.1277,
      "duration": 0.6264,
      "velocity": 97,
      "chip": "ym2612"
    },
    {
      "channel": 2,
      "note": 68,
      "start": 14.1285,
      "duration": 0.0975,
      "velocity": 127,
      "chip": "ym2612"
    },
    {
      "channel": 1,
      "note": 64,
      "start": 14.2301,
      "duration": 0.3149,
      "velocity": 94,
      "chip": "ym2612"
    },
    {
      "channel": 2,
      "note": 29,
      "start": 14.232,
      "duration": 0.0985,
      "velocity": 119,
      "chip": "ym2612"
    },
    {
      "channel": 2,
      "note": 68,
      "start": 14.3359,
      "duration": 0.0994,
      "velocity": 127,
      "chip": "ym2612"
    },
    {
      "channel": 2,
      "note": 68,
      "start": 14.4421,
      "duration": 0.0993,
      "velocity": 127,
      "chip": "ym2612"
    },
    {
      "channel": 1,
      "note": 66,
      "start": 14.5456,
      "duration": 0.1028,
      "velocity": 94,
      "chip": "ym2612"
    },
    {
      "channel": 2,
      "note": 29,
      "start": 14.5476,
      "duration": 0.0972,
      "velocity": 119,
      "chip": "ym2612"
    },
    {
      "channel": 0,
      "note": 83,
      "start": 14.6483,
      "duration": 0.21,
      "velocity": 97,
      "chip": "ym2612"
    },
    {
      "channel": 1,
      "note": 67,
      "start": 14.649,
      "duration": 0.1036,
      "velocity": 94,
      "chip": "ym2612"
    },
    {
      "channel": 3,
      "note": 59,
      "start": 14.6497,
      "duration": 0.4191,
      "velocity": 92,
      "chip": "ym2612"
    },
    {
      "channel": 4,
      "note": 52,
      "start": 14.6505,
      "duration": 0.4191,
      "velocity": 92,
      "chip": "ym2612"
    },
    {
      "channel": 2,
      "note": 75,
      "start": 14.6518,
      "duration": 0.0976,
      "velocity": 120,
      "chip": "ym2612"
    },
    {
      "channel": 1,
      "note": 66,
      "start": 14.7532,
      "duration": 0.106,
      "velocity": 94,
      "chip": "ym2612"
    },
    {
      "channel": 5,
      "note": 71,
      "start": 14.7548,
      "duration": 0.2087,
      "velocity": 97,
      "chip": "ym2612"
    },
    {
      "channel": 2,
      "note": 68,
      "start": 14.7556,
      "duration": 0.0986,
      "velocity": 127,
      "chip": "ym2612"
    },
    {
      "channel": 0,
      "note": 81,
      "start": 14.859,
      "duration": 0.2082,
      "velocity": 97,
      "chip": "ym2612"
    },
    {
      "channel": 1,
      "note": 64,
      "start": 14.8597,
      "duration": 0.1023,
      "velocity": 94,
      "chip": "ym2612"
    },
    {
      "channel": 2,
      "note": 68,
      "start": 14.8617,
      "duration": 0.0972,
      "velocity": 127,
      "chip": "ym2612"
    },
    {
      "channel": 1,
      "note": 62,
      "start": 14.9627,
      "duration": 0.1054,
      "velocity": 94,
      "chip": "ym2612"
    },
    {
      "channel": 5,
      "note": 69,
      "start": 14.9642,
      "duration": 0.2084,
      "velocity": 97,
      "chip": "ym2612"
    },
    {
      "channel": 2,
      "note": 68,
      "start": 14.965,
      "duration": 0.099,
      "velocity": 127,
      "chip": "ym2612"
    },
    {
      "channel": 0,
      "note": 79,
      "start": 15.0679,
      "duration": 0.6269,
      "velocity": 97,
      "chip": "ym2612"
    },
    {
      "channel": 1,
      "note": 60,
      "start": 15.0687,
      "duration": 0.3128,
      "velocity": 94,
      "chip": "ym2612"
    },
    {
      "channel": 3,
      "note": 60,
      "start": 15.0694,
      "duration": 1.2568,
      "velocity": 92,
      "chip": "ym2612"
    },
    {
      "channel": 4,
      "note": 55,
      "start": 15.0702,
      "duration": 1.6756,
      "velocity": 92,
      "chip": "ym2612"
    },
    {
      "channel": 2,
      "note": 29,
      "start": 15.0714,
      "duration": 0.097,
      "velocity": 119,
      "chip": "ym2612"
    },
    {
      "channel": 5,
      "note": 67,
      "start": 15.1745,
      "duration": 0.6268,
      "velocity": 97,
      "chip": "ym2612"
    },
    {
      "channel": 2,
      "note": 68,
      "start": 15.1754,
      "duration": 0.0977,
      "velocity": 127,
      "chip": "ym2612"
    },
    {
      "channel": 2,
      "note": 68,
      "start": 15.2798,
      "duration": 0.0981,
      "velocity": 127,
      "chip": "ym2612"
    },
    {
      "channel": 1,
      "note": 60,
      "start": 15.3819,
      "duration": 0.1039,
      "velocity": 94,
      "chip": "ym2612"
    },
    {
      "channel": 2,
      "note": 29,
      "start": 15.3838,
      "duration": 0.0987,
      "velocity": 119,
      "chip": "ym2612"
    },
    {
      "channel": 1,
      "note": 55,
      "start": 15.4864,
      "duration": 0.2092,
      "velocity": 94,
      "chip": "ym2612"
    },
    {
      "channel": 2,
      "note": 75,
      "start": 15.4885,
      "duration": 0.0988,
      "velocity": 120,
      "chip": "ym2612"
    },
    {
      "channel": 2,
      "note": 68,
      "start": 15.5941,
      "duration": 0.0979,
      "velocity": 127,
      "chip": "ym2612"
    },
    {
      "channel": 0,
      "note": 76,
      "start": 15.6955,
      "duration": 0.6291,
      "velocity": 97,
      "chip": "ym2612"
    },
    {
      "channel": 1,
      "note": 59,
      "start": 15.6962,
      "duration": 0.1037,
      "velocity": 94,
      "chip": "ym2612"
    },
    {
      "channel": 2,
      "note": 68,
      "start": 15.6983,
      "duration": 0.0985,
      "velocity": 127,
      "chip": "ym2612"
    },
    {
      "channel": 1,
      "note": 60,
      "start": 15.8005,
      "duration": 0.1046,
      "velocity": 94,
      "chip": "ym2612"
    },
    {
      "channel": 5,
      "note": 64,
      "start": 15.802,
      "duration": 0.6276,
      "velocity": 97,
      "chip": "ym2612"
    },
    {
      "channel": 2,
      "note": 68,
      "start": 15.8029,
      "duration": 0.0987,
      "velocity": 127,
      "chip": "ym2612"
    },
    {
      "channel": 1,
      "note": 60,
      "start": 15.9058,
      "duration": 0.3136,
      "velocity": 94,
      "chip": "ym2612"
    },
    {
      "channel": 2,
      "note": 29,
      "start": 15.909,
      "duration": 0.0972,
      "velocity": 119,
      "chip": "ym2612"
    },
    {
      "channel": 2,
      "note": 68,
      "start": 16.013,
      "duration": 0.098,
      "velocity": 127,
      "chip": "ym2612"
    },
    {
      "channel": 2,
      "note": 68,
      "start": 16.1165,
      "duration": 0.0992,
      "velocity": 127,
      "chip": "ym2612"
    },
    {
      "channel": 1,
      "note": 62,
      "start": 16.22,
      "duration": 0.1055,
      "velocity": 94,
      "chip": "ym2612"
    },
    {
      "channel": 2,
      "note": 29,
      "start": 16.222,
      "duration": 0.0985,
      "velocity": 119,
      "chip": "ym2612"
    },
    {
      "channel": 0,
      "note": 79,
      "start": 16.3253,
      "duration": 0.4186,
      "velocity": 97,
      "chip": "ym2612"
    },
    {
      "channel": 1,
      "note": 64,
      "start": 16.326,
      "duration": 0.2071,
      "velocity": 94,
      "chip": "ym2612"
    },
    {
      "channel": 3,
      "note": 55,
      "start": 16.3268,
      "duration": 0.4183,
      "velocity": 92,
      "chip": "ym2612"
    },
    {
      "channel": 2,
      "note": 75,
      "start": 16.3284,
      "duration": 0.097,
      "velocity": 120,
      "chip": "ym2612"
    },
    {
      "channel": 5,
      "note": 67,
      "start": 16.4303,
      "duration": 0.4177,
      "velocity": 97,
      "chip": "ym2612"
    },
    {
      "channel": 2,
      "note": 68,
      "start": 16.4312,
      "duration": 0.0987,
      "velocity": 127,
      "chip": "ym2612"
    },
    {
      "channel": 1,
      "note": 60,
      "start": 16.5336,
      "duration": 0.2106,
      "velocity": 94,
      "chip": "ym2612"
    },
    {
      "channel": 2,
      "note": 68,
      "start": 16.5356,
      "duration": 0.0991,
      "velocity": 127,
      "chip": "ym2612"
    },
    {
      "channel": 2,
      "note": 68,
      "start": 16.6413,
      "duration": 0.0981,
      "velocity": 127,
      "chip": "ym2612"
    },
    {
      "channel": 1,
      "note": 57,
      "start": 16.7448,
      "duration": 0.3134,
      "velocity": 94,
      "chip": "ym2612"
    },
    {
      "channel": 3,
      "note": 57,
      "start": 16.7456,
      "duration": 1.2544,
      "velocity": 92,
      "chip": "ym2612"
    },
    {
      "channel": 4,
      "note": 52,
      "start": 16.7463,
      "duration": 1.2545,
      "velocity": 92,
      "chip": "ym2612"
    },
    {
      "channel": 2,
      "note": 29,
      "start": 16.7476,
      "duration": 0.0964,
      "velocity": 119,
      "chip": "ym2612"
    },
    {
      "channel": 2,
      "note": 68,
      "start": 16.849,
      "duration": 0.0999,
      "velocity": 127,
      "chip": "ym2612"
    },
    {
      "channel": 2,
      "note": 68,
      "start": 16.9536,
      "duration": 0.1,
      "velocity": 127,
      "chip": "ym2612"
    },
    {
      "channel": 1,
      "note": 57,
      "start": 17.0586,
      "duration": 0.1033,
      "velocity": 94,
      "chip": "ym2612"
    },
    {
      "channel": 2,
      "note": 29,
      "start": 17.0602,
      "duration": 0.098,
      "velocity": 119,
      "chip": "ym2612"
    },
    {
      "channel": 0,
      "note": 84,
      "start": 17.1617,
      "duration": 0.2088,
      "velocity": 97,
      "chip": "ym2612"
    },
    {
      "channel": 1,
      "note": 52,
      "start": 17.1625,
      "duration": 0.2089,
      "velocity": 94,
      "chip": "ym2612"
    },
    {
      "channel": 2,
      "note": 75,
      "start": 17.1642,
      "duration": 0.0988,
      "velocity": 120,
      "chip": "ym2612"
    },
    {
      "channel": 5,
      "note": 72,
      "start": 17.2679,
      "duration": 0.2101,
      "velocity": 97,
      "chip": "ym2612"
    },
    {
      "channel": 2,
      "note": 68,
      "start": 17.2688,
      "duration": 0.099,
      "velocity": 127,
      "chip": "ym2612"
    },
    {
      "channel": 0,
      "note": 83,
      "start": 17.3712,
      "duration": 0.2094,
      "velocity": 97,
      "chip": "ym2612"
    },
    {
      "channel": 1,
      "note": 57,
      "start": 17.372,
      "duration": 0.2094,
      "velocity": 94,
      "chip": "ym2612"
    },
    {
      "channel": 2,
      "note": 68,
      "start": 17.3752,
      "duration": 0.0973,
      "velocity": 127,
      "chip": "ym2612"
    },
    {
      "channel": 5,
      "note": 71,
      "start": 17.4787,
      "duration": 0.2074,
      "velocity": 97,
      "chip": "ym2612"
    },
    {
      "channel": 2,
      "note": 68,
      "start": 17.4796,
      "duration": 0.0978,
      "velocity": 127,
      "chip": "ym2612"
    },
    {
      "channel": 0,
      "note": 83,
      "start": 17.5812,
      "duration": 0.3135,
      "velocity": 97,
      "chip": "ym2612"
    },
    {
      "channel": 1,
      "note": 55,
      "start": 17.582,
      "duration": 0.3136,
      "velocity": 94,
      "chip": "ym2612"
    },
    {
      "channel": 2,
      "note": 29,
      "start": 17.5839,
      "duration": 0.098,
      "velocity": 119,
      "chip": "ym2612"
    },
    {
      "channel": 5,
      "note": 71,
      "start": 17.6868,
      "duration": 0.3147,
      "velocity": 97,
      "chip": "ym2612"
    },
    {
      "channel": 2,
      "note": 68,
      "start": 17.6877,
      "duration": 0.0993,
      "velocity": 127,
      "chip": "ym2612"
    },
    {
      "channel": 2,
      "note": 68,
      "start": 17.7936,
      "duration": 0.098,
      "velocity": 127,
      "chip": "ym2612"
    },
    {
      "channel": 0,
      "note": 81,
      "start": 17.8955,
      "duration": 0.3143,
      "velocity": 97,
      "chip": "ym2612"
    },
    {
      "channel": 1,
      "note": 55,
      "start": 17.896,
      "duration": 0.1032,
      "velocity": 94,
      "chip": "ym2612"
    },
    {
      "channel": 2,
      "note": 29,
      "start": 17.898,
      "duration": 0.0982,
      "velocity": 119,
      "chip": "ym2612"
    },
    {
      "channel": 1,
      "note": 50,
      "start": 17.9999,
      "duration": 0.2106,
      "velocity": 94,
      "chip": "ym2612"
    },
    {
      "channel": 3,
      "note": 55,
      "start": 18.0006,
      "duration": 0.4193,
      "velocity": 92,
      "chip": "ym2612"
    },
    {
      "channel": 4,
      "note": 50,
      "start": 18.0014,
      "duration": 0.4193,
      "velocity": 92,
      "chip": "ym2612"
    },
    {
      "channel": 5,
      "note": 69,
      "start": 18.0022,
      "duration": 0.3124,
      "velocity": 97,
      "chip": "ym2612"
    },
    {
      "channel": 2,
      "note": 75,
      "start": 18.003,
      "duration": 0.0978,
      "velocity": 120,
      "chip": "ym2612"
    },
    {
      "channel": 2,
      "note": 68,
      "start": 18.1061,
      "duration": 0.0994,
      "velocity": 127,
      "chip": "ym2612"
    },
    {
      "channel": 0,
      "note": 79,
      "start": 18.2104,
      "duration": 0.208,
      "velocity": 97,
      "chip": "ym2612"
    },
    {
      "channel": 1,
      "note": 54,
      "start": 18.2111,
      "duration": 0.2081,
      "velocity": 94,
      "chip": "ym2612"
    },
    {
      "channel": 2,
      "note": 68,
      "start": 18.2131,
      "duration": 0.0973,
      "velocity": 127,
      "chip": "ym2612"
    },
    {
      "channel": 5,
      "note": 67,
      "start": 18.3153,
      "duration": 0.2101,
      "velocity": 97,
      "chip": "ym2612"
    },
    {
      "channel": 2,
      "note": 68,
      "start": 18.3161,
      "duration": 0.099,
      "velocity": 127,
      "chip": "ym2612"
    },
    {
      "channel": 0,
      "note": 83,
      "start": 18.4191,
      "duration": 1.2569,
      "velocity": 97,
      "chip": "ym2612"
    },
    {
      "channel": 1,
      "note": 59,
      "start": 18.4198,
      "duration": 0.3131,
      "velocity": 94,
      "chip": "ym2612"
    },
    {
      "channel": 3,
      "note": 59,
      "start": 18.4206,
      "duration": 1.6758,
      "velocity": 92,
      "chip": "ym2612"
    },
    {
      "channel": 4,
      "note": 54,
      "start": 18.4213,
      "duration": 1.2566,
      "velocity": 92,
      "chip": "ym2612"
    },
    {
      "channel": 2,
      "note": 29,
      "start": 18.4225,
      "duration": 0.0973,
      "velocity": 119,
      "chip": "ym2612"
    },
    {
      "channel": 5,
      "note": 71,
      "start": 18.5261,
      "duration": 1.2544,
      "velocity": 97,
      "chip": "ym2612"
    },
    {
      "channel": 2,
      "note": 68,
      "start": 18.5269,
      "duration": 0.0983,
      "velocity": 127,
      "chip": "ym2612"
    },
    {
      "channel": 2,
      "note": 68,
      "start": 18.6305,
      "duration": 0.0988,
      "velocity": 127,
      "chip": "ym2612"
    },
    {
      "channel": 1,
      "note": 59,
      "start": 18.7334,
      "duration": 0.2099,
      "velocity": 94,
      "chip": "ym2612"
    },
    {
      "channel": 2,
      "note": 29,
      "start": 18.7353,
      "duration": 0.0987,
      "velocity": 119,
      "chip": "ym2612"
    },
    {
      "channel": 2,
      "note": 75,
      "start": 18.8395,
      "duration": 0.0992,
      "velocity": 120,
      "chip": "ym2612"
    },
    {
      "channel": 1,
      "note": 54,
      "start": 18.9439,
      "duration": 0.1029,
      "velocity": 94,
      "chip": "ym2612"
    },
    {
      "channel": 2,
      "note": 68,
      "start": 18.9459,
      "duration": 0.0976,
      "velocity": 127,
      "chip": "ym2612"
    },
    {
      "channel": 1,
      "note": 54,
      "start": 19.0472,
      "duration": 0.1045,
      "velocity": 94,
      "chip": "ym2612"
    },
    {
      "channel": 2,
      "note": 68,
      "start": 19.0492,
      "duration": 0.0992,
      "velocity": 127,
      "chip": "ym2612"
    },
    {
      "channel": 1,
      "note": 55,
      "start": 19.1523,
      "duration": 0.1057,
      "velocity": 94,
      "chip": "ym2612"
    },
    {
      "channel": 2,
      "note": 68,
      "start": 19.1543,
      "duration": 0.0987,
      "velocity": 127,
      "chip": "ym2612"
    },
    {
      "channel": 1,
      "note": 59,
      "start": 19.2586,
      "duration": 0.1028,
      "velocity": 94,
      "chip": "ym2612"
    },
    {
      "channel": 2,
      "note": 29,
      "start": 19.2606,
      "duration": 0.0976,
      "velocity": 119,
      "chip": "ym2612"
    },
    {
      "channel": 1,
      "note": 59,
      "start": 19.3621,
      "duration": 0.1036,
      "velocity": 94,
      "chip": "ym2612"
    },
    {
      "channel": 2,
      "note": 68,
      "start": 19.3641,
      "duration": 0.0983,
      "velocity": 127,
      "chip": "ym2612"
    },
    {
      "channel": 1,
      "note": 60,
      "start": 19.4662,
      "duration": 0.2106,
      "velocity": 94,
      "chip": "ym2612"
    },
    {
      "channel": 2,
      "note": 68,
      "start": 19.4682,
      "duration": 0.0989,
      "velocity": 127,
      "chip": "ym2612"
    },
    {
      "channel": 2,
      "note": 29,
      "start": 19.5729,
      "duration": 0.0989,
      "velocity": 119,
      "chip": "ym2612"
    },
    {
      "channel": 0,
      "note": 71,
      "start": 19.6767,
      "duration": 0.2074,
      "velocity": 97,
      "chip": "ym2612"
    },
    {
      "channel": 1,
      "note": 62,
      "start": 19.6774,
      "duration": 0.2076,
      "velocity": 94,
      "chip": "ym2612"
    },
    {
      "channel": 2,
      "note": 75,
      "start": 19.6794,
      "duration": 0.0971,
      "velocity": 120,
      "chip": "ym2612"
    },
    {
      "channel": 5,
      "note": 59,
      "start": 19.7812,
      "duration": 0.2105,
      "velocity": 97,
      "chip": "ym2612"
    },
    {
      "channel": 2,
      "note": 68,
      "start": 19.782,
      "duration": 0.0993,
      "velocity": 127,
      "chip": "ym2612"
    },
    {
      "channel": 0,
      "note": 76,
      "start": 19.8849,
      "duration": 0.21,
      "velocity": 97,
      "chip": "ym2612"
    },
    {
      "channel": 1,
      "note": 59,
      "start": 19.8856,
      "duration": 0.1037,
      "velocity": 94,
      "chip": "ym2612"
    },
    {
      "channel": 2,
      "note": 68,
      "start": 19.8872,
      "duration": 0.0989,
      "velocity": 127,
      "chip": "ym2612"
    },
    {
      "channel": 1,
      "note": 64,
      "start": 19.9898,
      "duration": 0.1059,
      "velocity": 94,
      "chip": "ym2612"
    },
    {
      "channel": 5,
      "note": 64,
      "start": 19.9924,
      "duration": 0.2073,
      "velocity": 97,
      "chip": "ym2612"
    },
    {
      "channel": 2,
      "note": 68,
      "start": 19.9932,
      "duration": 0.0984,
      "velocity": 127,
      "chip": "ym2612"
    },
    {
      "channel": 0,
      "note": 79,
      "start": 20.0955,
      "duration": 0.6265,
      "velocity": 97,
      "chip": "ym2612"
    },
    {
      "channel": 1,
      "note": 64,
      "start": 20.0963,
      "duration": 0.3137,
      "velocity": 94,
      "chip": "ym2612"
    },
    {
      "channel": 3,
      "note": 64,
      "start": 20.0971,
      "duration": 1.2548,
      "velocity": 92,
      "chip": "ym2612"
    },
    {
      "channel": 4,
      "note": 59,
      "start": 20.0978,
      "duration": 1.2546,
      "velocity": 92,
      "chip": "ym2612"
    },
    {
      "channel": 2,
      "note": 29,
      "start": 20.099,
      "duration": 0.0965,
      "velocity": 119,
      "chip": "ym2612"
    },
    {
      "channel": 5,
      "note": 67,
      "start": 20.2004,
      "duration": 0.6291,
      "velocity": 97,
      "chip": "ym2612"
    },
    {
      "channel": 2,
      "note": 68,
      "start": 20.2012,
      "duration": 0.099,
      "velocity": 127,
      "chip": "ym2612"
    },
    {
      "channel": 2,
      "note": 68,
      "start": 20.3055,
      "duration": 0.0995,
      "velocity": 127,
      "chip": "ym2612"
    },
    {
      "channel": 1,
      "note": 64,
      "start": 20.4105,
      "duration": 0.1028,
      "velocity": 94,
      "chip": "ym2612"
    },
    {
      "channel": 2,
      "note": 29,
      "start": 20.4124,
      "duration": 0.0977,
      "velocity": 119,
      "chip": "ym2612"
    },
    {
      "channel": 1,
      "note": 59,
      "start": 20.5139,
      "duration": 0.209,
      "velocity": 94,
      "chip": "ym2612"
    },
    {
      "channel": 2,
      "note": 75,
      "start": 20.5159,
      "duration": 0.0985,
      "velocity": 120,
      "chip": "ym2612"
    },
    {
      "channel": 2,
      "note": 68,
      "start": 20.62,
      "duration": 0.0993,
      "velocity": 127,
      "chip": "ym2612"
    },
    {
      "channel": 0,
      "note": 78,
      "start": 20.7227,
      "duration": 0.4195,
      "velocity": 97,
      "chip": "ym2612"
    },
    {
      "channel": 1,
      "note": 62,
      "start": 20.7247,
      "duration": 0.1034,
      "velocity": 94,
      "chip": "ym2612"
    },
    {
      "channel": 2,
      "note": 68,
      "start": 20.7268,
      "duration": 0.0982,
      "velocity": 127,
      "chip": "ym2612"
    },
    {
      "channel": 1,
      "note": 64,
      "start": 20.8287,
      "duration": 0.1036,
      "velocity": 94,
      "chip": "ym2612"
    },
    {
      "channel": 5,
      "note": 66,
      "start": 20.8302,
      "duration": 0.4177,
      "velocity": 97,
      "chip": "ym2612"
    },
    {
      "channel": 2,
      "note": 68,
      "start": 20.831,
      "duration": 0.0977,
      "velocity": 127,
      "chip": "ym2612"
    },
    {
      "channel": 1,
      "note": 64,
      "start": 20.9329,
      "duration": 0.3135,
      "velocity": 94,
      "chip": "ym2612"
    },
    {
      "channel": 2,
      "note": 29,
      "start": 20.9349,
      "duration": 0.0985,
      "velocity": 119,
      "chip": "ym2612"
    },
    {
      "channel": 2,
      "note": 68,
      "start": 21.0388,
      "duration": 0.0994,
      "velocity": 127,
      "chip": "ym2612"
    },
    {
      "channel": 0,
      "note": 71,
      "start": 21.1429,
      "duration": 0.2075,
      "velocity": 97,
      "chip": "ym2612"
    },
    {
      "channel": 2,
      "note": 68,
      "start": 21.1454,
      "duration": 0.0975,
      "velocity": 127,
      "chip": "ym2612"
    },
    {
      "channel": 1,
      "note": 66,
      "start": 21.247,
      "duration": 0.1041,
      "velocity": 94,
      "chip": "ym2612"
    },
    {
      "channel": 5,
      "note": 59,
      "start": 21.2485,
      "duration": 0.2097,
      "velocity": 97,
      "chip": "ym2612"
    },
    {
      "channel": 2,
      "note": 29,
      "start": 21.2493,
      "duration": 0.0983,
      "velocity": 119,
      "chip": "ym2612"
    },
    {
      "channel": 0,
      "note": 71,
      "start": 21.3509,
      "duration": 0.2104,
      "velocity": 97,
      "chip": "ym2612"
    },
    {
      "channel": 1,
      "note": 67,
      "start": 21.3516,
      "duration": 0.1039,
      "velocity": 94,
      "chip": "ym2612"
    },
    {
      "channel": 3,
      "note": 64,
      "start": 21.3523,
      "duration": 0.2106,
      "velocity": 92,
      "chip": "ym2612"
    },
    {
      "channel": 4,
      "note": 59,
      "start": 21.3529,
      "duration": 0.2107,
      "velocity": 92,
      "chip": "ym2612"
    },
    {
      "channel": 2,
      "note": 75,
      "start": 21.3541,
      "duration": 0.0983,
      "velocity": 120,
      "chip": "ym2612"
    },
    {
      "channel": 1,
      "note": 66,
      "start": 21.4561,
      "duration": 0.106,
      "velocity": 94,
      "chip": "ym2612"
    },
    {
      "channel": 5,
      "note": 59,
      "start": 21.4588,
      "duration": 0.2076,
      "velocity": 97,
      "chip": "ym2612"
    },
    {
      "channel": 2,
      "note": 68,
      "start": 21.4597,
      "duration": 0.0988,
      "velocity": 127,
      "chip": "ym2612"
    },
    {
      "channel": 0,
      "note": 76,
      "start": 21.562,
      "duration": 0.2078,
      "velocity": 97,
      "chip": "ym2612"
    },
    {
      "channel": 1,
      "note": 64,
      "start": 21.5627,
      "duration": 0.1022,
      "velocity": 94,
      "chip": "ym2612"
    },
    {
      "channel": 3,
      "note": 67,
      "start": 21.5635,
      "duration": 0.208,
      "velocity": 92,
      "chip": "ym2612"
    },
    {
      "channel": 4,
      "note": 64,
      "start": 21.5642,
      "duration": 0.208,
      "velocity": 92,
      "chip": "ym2612"
    },
    {
      "channel": 2,
      "note": 68,
      "start": 21.5654,
      "duration": 0.0964,
      "velocity": 127,
      "chip": "ym2612"
    },
    {
      "channel": 1,
      "note": 62,
      "start": 21.6656,
      "duration": 0.1051,
      "velocity": 94,
      "chip": "ym2612"
    },
    {
      "channel": 5,
      "note": 64,
      "start": 21.6671,
      "duration": 0.21,
      "velocity": 97,
      "chip": "ym2612"
    },
    {
      "channel": 2,
      "note": 68,
      "start": 21.6679,
      "duration": 0.0987,
      "velocity": 127,
      "chip": "ym2612"
    },
    {
      "channel": 0,
      "note": 79,
      "start": 21.7705,
      "duration": 0.4177,
      "velocity": 97,
      "chip": "ym2612"
    },
    {
      "channel": 1,
      "note": 60,
      "start": 21.7713,
      "duration": 0.3131,
      "velocity": 94,
      "chip": "ym2612"
    },
    {
      "channel": 3,
      "note": 72,
      "start": 21.7721,
      "duration": 1.2564,
      "velocity": 92,
      "chip": "ym2612"
    },
    {
      "channel": 4,
      "note": 67,
      "start": 21.7728,
      "duration": 1.0454,
      "velocity": 92,
      "chip": "ym2612"
    },
    {
      "channel": 2,
      "note": 29,
      "start": 21.7753,
      "duration": 0.0962,
      "velocity": 119,
      "chip": "ym2612"
    },
    {
      "channel": 5,
      "note": 67,
      "start": 21.8777,
      "duration": 0.418,
      "velocity": 97,
      "chip": "ym2612"
    },
    {
      "channel": 2,
      "note": 68,
      "start": 21.8786,
      "duration": 0.0974,
      "velocity": 127,
      "chip": "ym2612"
    },
    {
      "channel": 2,
      "note": 68,
      "start": 21.9813,
      "duration": 0.0995,
      "velocity": 127,
      "chip": "ym2612"
    },
    {
      "channel": 1,
      "note": 60,
      "start": 22.0849,
      "duration": 0.1042,
      "velocity": 94,
      "chip": "ym2612"
    },
    {
      "channel": 2,
      "note": 29,
      "start": 22.0868,
      "duration": 0.0987,
      "velocity": 119,
      "chip": "ym2612"
    },
    {
      "channel": 0,
      "note": 78,
      "start": 22.1889,
      "duration": 0.2088,
      "velocity": 97,
      "chip": "ym2612"
    },
    {
      "channel": 1,
      "note": 55,
      "start": 22.1897,
      "duration": 0.2089,
      "velocity": 94,
      "chip": "ym2612"
    },
    {
      "channel": 2,
      "note": 75,
      "start": 22.1931,
      "duration": 0.0984,
      "velocity": 120,
      "chip": "ym2612"
    },
    {
      "channel": 5,
      "note": 66,
      "start": 22.2963,
      "duration": 0.2079,
      "velocity": 97,
      "chip": "ym2612"
    },
    {
      "channel": 2,
      "note": 68,
      "start": 22.2972,
      "duration": 0.0978,
      "velocity": 127,
      "chip": "ym2612"
    },
    {
      "channel": 0,
      "note": 72,
      "start": 22.3984,
      "duration": 0.4183,
      "velocity": 97,
      "chip": "ym2612"
    },
    {
      "channel": 1,
      "note": 59,
      "start": 22.3992,
      "duration": 0.1036,
      "velocity": 94,
      "chip": "ym2612"
    },
    {
      "channel": 2,
      "note": 68,
      "start": 22.4011,
      "duration": 0.0985,
      "velocity": 127,
      "chip": "ym2612"
    },
    {
      "channel": 1,
      "note": 60,
      "start": 22.5034,
      "duration": 0.106,
      "velocity": 94,
      "chip": "ym2612"
    },
    {
      "channel": 5,
      "note": 60,
      "start": 22.5049,
      "duration": 0.4197,
      "velocity": 97,
      "chip": "ym2612"
    },
    {
      "channel": 2,
      "note": 68,
      "start": 22.5058,
      "duration": 0.0987,
      "velocity": 127,
      "chip": "ym2612"
    },
    {
      "channel": 1,
      "note": 60,
      "start": 22.6099,
      "duration": 0.3122,
      "velocity": 94,
      "chip": "ym2612"
    },
    {
      "channel": 2,
      "note": 29,
      "start": 22.6118,
      "duration": 0.0973,
      "velocity": 119,
      "chip": "ym2612"
    },
    {
      "channel": 2,
      "note": 68,
      "start": 22.7145,
      "duration": 0.0994,
      "velocity": 127,
      "chip": "ym2612"
    },
    {
      "channel": 0,
      "note": 76,
      "start": 22.8173,
      "duration": 0.4185,
      "velocity": 97,
      "chip": "ym2612"
    },
    {
      "channel": 2,
      "note": 68,
      "start": 22.8197,
      "duration": 0.0989,
      "velocity": 127,
      "chip": "ym2612"
    },
    {
      "channel": 1,
      "note": 62,
      "start": 22.9227,
      "duration": 0.1051,
      "velocity": 94,
      "chip": "ym2612"
    },
    {
      "channel": 5,
      "note": 64,
      "start": 22.9252,
      "duration": 0.4176,
      "velocity": 97,
      "chip": "ym2612"
    },
    {
      "channel": 2,
      "note": 29,
      "start": 22.9261,
      "duration": 0.0985,
      "velocity": 119,
      "chip": "ym2612"
    },
    {
      "channel": 1,
      "note": 64,
      "start": 23.0284,
      "duration": 0.2083,
      "velocity": 94,
      "chip": "ym2612"
    },
    {
      "channel": 3,
      "note": 72,
      "start": 23.0289,
      "duration": 0.2085,
      "velocity": 92,
      "chip": "ym2612"
    },
    {
      "channel": 2,
      "note": 75,
      "start": 23.0303,
      "duration": 0.0978,
      "velocity": 120,
      "chip": "ym2612"
    },
    {
      "channel": 2,
      "note": 68,
      "start": 23.1332,
      "duration": 0.0999,
      "velocity": 127,
      "chip": "ym2612"
    },
    {
      "channel": 0,
      "note": 79,
      "start": 23.2366,
      "duration": 0.2086,
      "velocity": 97,
      "chip": "ym2612"
    },
    {
      "channel": 1,
      "note": 60,
      "start": 23.2373,
      "duration": 0.2087,
      "velocity": 94,
      "chip": "ym2612"
    },
    {
      "channel": 3,
      "note": 71,
      "start": 23.238,
      "duration": 0.2086,
      "velocity": 92,
      "chip": "ym2612"
    },
    {
      "channel": 2,
      "note": 68,
      "start": 23.2394,
      "duration": 0.0981,
      "velocity": 127,
      "chip": "ym2612"
    },
    {
      "channel": 5,
      "note": 67,
      "start": 23.3434,
      "duration": 0.205,
      "velocity": 97,
      "chip": "ym2612"
    },
    {
      "channel": 2,
      "note": 68,
      "start": 23.3443,
      "duration": 0.098,
      "velocity": 127,
      "chip": "ym2612"
    },
    {
      "channel": 0,
      "note": 81,
      "start": 23.4458,
      "duration": 0.1389,
      "velocity": 97,
      "chip": "ym2612"
    },
    {
      "channel": 1,
      "note": 57,
      "start": 23.4466,
      "duration": 0.3116,
      "velocity": 94,
      "chip": "ym2612"
    },
    {
      "channel": 3,
      "note": 69,
      "start": 23.4473,
      "duration": 0.8371,
      "velocity": 92,
      "chip": "ym2612"
    },
    {
      "channel": 4,
      "note": 64,
      "start": 23.4481,
      "duration": 0.8372,
      "velocity": 92,
      "chip": "ym2612"
    },
    {
      "channel": 2,
      "note": 79,
      "start": 23.4494,
      "duration": 0.1324,
      "velocity": 120,
      "chip": "ym2612"
    },
    {
      "channel": 5,
      "note": 69,
      "start": 23.5492,
      "duration": 0.1392,
      "velocity": 97,
      "chip": "ym2612"
    },
    {
      "channel": 0,
      "note": 79,
      "start": 23.5854,
      "duration": 0.1403,
      "velocity": 97,
      "chip": "ym2612"
    },
    {
      "channel": 2,
      "note": 79,
      "start": 23.5878,
      "duration": 0.1338,
      "velocity": 120,
      "chip": "ym2612"
    },
    {
      "channel": 5,
      "note": 67,
      "start": 23.689,
      "duration": 0.1386,
      "velocity": 97,
      "chip": "ym2612"
    },
    {
      "channel": 0,
      "note": 78,
      "start": 23.7263,
      "duration": 0.1377,
      "velocity": 97,
      "chip": "ym2612"
    },
    {
      "channel": 2,
      "note": 79,
      "start": 23.7287,
      "duration": 0.1324,
      "velocity": 120,
      "chip": "ym2612"
    },
    {
      "channel": 1,
      "note": 57,
      "start": 23.7586,
      "duration": 0.1062,
      "velocity": 94,
      "chip": "ym2612"
    },
    {
      "channel": 5,
      "note": 66,
      "start": 23.8284,
      "duration": 0.139,
      "velocity": 97,
      "chip": "ym2612"
    },
    {
      "channel": 0,
      "note": 76,
      "start": 23.8647,
      "duration": 0.1389,
      "velocity": 97,
      "chip": "ym2612"
    },
    {
      "channel": 1,
      "note": 52,
      "start": 23.8654,
      "duration": 0.2057,
      "velocity": 94,
      "chip": "ym2612"
    },
    {
      "channel": 2,
      "note": 74,
      "start": 23.8673,
      "duration": 0.1335,
      "velocity": 120,
      "chip": "ym2612"
    },
    {
      "channel": 5,
      "note": 64,
      "start": 23.968,
      "duration": 0.1403,
      "velocity": 97,
      "chip": "ym2612"
    },
    {
      "channel": 0,
      "note": 74,
      "start": 24.0042,
      "duration": 0.1404,
      "velocity": 97,
      "chip": "ym2612"
    },
    {
      "channel": 2,
      "note": 74,
      "start": 24.0079,
      "duration": 0.134,
      "velocity": 120,
      "chip": "ym2612"
    },
    {
      "channel": 1,
      "note": 57,
      "start": 24.0717,
      "duration": 0.212,
      "velocity": 94,
      "chip": "ym2612"
    },
    {
      "channel": 5,
      "note": 62,
      "start": 24.109,
      "duration": 0.1377,
      "velocity": 97,
      "chip": "ym2612"
    },
    {
      "channel": 0,
      "note": 72,
      "start": 24.1454,
      "duration": 0.1376,
      "velocity": 97,
      "chip": "ym2612"
    },
    {
      "channel": 2,
      "note": 74,
      "start": 24.1476,
      "duration": 0.1324,
      "velocity": 120,
      "chip": "ym2612"
    },
    {
      "channel": 5,
      "note": 60,
      "start": 24.2474,
      "duration": 0.1389,
      "velocity": 97,
      "chip": "ym2612"
    },
    {
      "channel": 0,
      "note": 71,
      "start": 24.2836,
      "duration": 0.1389,
      "velocity": 97,
      "chip": "ym2612"
    },
    {
      "channel": 1,
      "note": 55,
      "start": 24.2843,
      "duration": 0.3107,
      "velocity": 94,
      "chip": "ym2612"
    },
    {
      "channel": 3,
      "note": 67,
      "start": 24.285,
      "duration": 0.8373,
      "velocity": 92,
      "chip": "ym2612"
    },
    {
      "channel": 4,
      "note": 62,
      "start": 24.2858,
      "duration": 0.8373,
      "velocity": 92,
      "chip": "ym2612"
    },
    {
      "channel": 2,
      "note": 69,
      "start": 24.2871,
      "duration": 0.1326,
      "velocity": 120,
      "chip": "ym2612"
    },
    {
      "channel": 5,
      "note": 59,
      "start": 24.3869,
      "duration": 0.1398,
      "velocity": 97,
      "chip": "ym2612"
    },
    {
      "channel": 0,
      "note": 69,
      "start": 24.4245,
      "duration": 0.1377,
      "velocity": 97,
      "chip": "ym2612"
    },
    {
      "channel": 2,
      "note": 69,
      "start": 24.427,
      "duration": 0.1324,
      "velocity": 120,
      "chip": "ym2612"
    },
    {
      "channel": 5,
      "note": 57,
      "start": 24.5275,
      "duration": 0.1381,
      "velocity": 97,
      "chip": "ym2612"
    },
    {
      "channel": 0,
      "note": 67,
      "start": 24.5629,
      "duration": 0.1389,
      "velocity": 97,
      "chip": "ym2612"
    },
    {
      "channel": 2,
      "note": 69,
      "start": 24.5653,
      "duration": 0.1337,
      "velocity": 120,
      "chip": "ym2612"
    },
    {
      "channel": 1,
      "note": 55,
      "start": 24.5955,
      "duration": 0.1071,
      "velocity": 94,
      "chip": "ym2612"
    },
    {
      "channel": 5,
      "note": 55,
      "start": 24.6662,
      "duration": 0.139,
      "velocity": 97,
      "chip": "ym2612"
    },
    {
      "channel": 0,
      "note": 69,
      "start": 24.7025,
      "duration": 0.1403,
      "velocity": 97,
      "chip": "ym2612"
    },
    {
      "channel": 1,
      "note": 50,
      "start": 24.7032,
      "duration": 0.2059,
      "velocity": 94,
      "chip": "ym2612"
    },
    {
      "channel": 2,
      "note": 74,
      "start": 24.7051,
      "duration": 0.1335,
      "velocity": 120,
      "chip": "ym2612"
    },
    {
      "channel": 5,
      "note": 57,
      "start": 24.8059,
      "duration": 0.139,
      "velocity": 97,
      "chip": "ym2612"
    },
    {
      "channel": 0,
      "note": 71,
      "start": 24.8434,
      "duration": 0.1377,
      "velocity": 97,
      "chip": "ym2612"
    },
    {
      "channel": 2,
      "note": 74,
      "start": 24.8457,
      "duration": 0.1326,
      "velocity": 120,
      "chip": "ym2612"
    },
    {
      "channel": 1,
      "note": 54,
      "start": 24.9096,
      "duration": 0.212,
      "velocity": 94,
      "chip": "ym2612"
    },
    {
      "channel": 5,
      "note": 59,
      "start": 24.9456,
      "duration": 0.1389,
      "velocity": 97,
      "chip": "ym2612"
    },
    {
      "channel": 0,
      "note": 72,
      "start": 24.9817,
      "duration": 0.1391,
      "velocity": 97,
      "chip": "ym2612"
    },
    {
      "channel": 2,
      "note": 74,
      "start": 24.984,
      "duration": 0.134,
      "velocity": 120,
      "chip": "ym2612"
    },
    {
      "channel": 5,
      "note": 60,
      "start": 25.0852,
      "duration": 0.1403,
      "velocity": 97,
      "chip": "ym2612"
    },
    {
      "channel": 0,
      "note": 74,
      "start": 25.1215,
      "duration": 0.1395,
      "velocity": 97,
      "chip": "ym2612"
    },
    {
      "channel": 1,
      "note": 59,
      "start": 25.1222,
      "duration": 0.3103,
      "velocity": 94,
      "chip": "ym2612"
    },
    {
      "channel": 3,
      "note": 66,
      "start": 25.1229,
      "duration": 0.9769,
      "velocity": 92,
      "chip": "ym2612"
    },
    {
      "channel": 4,
      "note": 60,
      "start": 25.1251,
      "duration": 0.9756,
      "velocity": 92,
      "chip": "ym2612"
    },
    {
      "channel": 2,
      "note": 79,
      "start": 25.1264,
      "duration": 0.1319,
      "velocity": 120,
      "chip": "ym2612"
    },
    {
      "channel": 5,
      "note": 62,
      "start": 25.2262,
      "duration": 0.1376,
      "velocity": 97,
      "chip": "ym2612"
    },
    {
      "channel": 0,
      "note": 72,
      "start": 25.2617,
      "duration": 0.1382,
      "velocity": 97,
      "chip": "ym2612"
    },
    {
      "channel": 2,
      "note": 79,
      "start": 25.2642,
      "duration": 0.133,
      "velocity": 120,
      "chip": "ym2612"
    },
    {
      "channel": 5,
      "note": 60,
      "start": 25.3644,
      "duration": 0.1393,
      "velocity": 97,
      "chip": "ym2612"
    },
    {
      "channel": 0,
      "note": 71,
      "start": 25.4007,
      "duration": 0.139,
      "velocity": 97,
      "chip": "ym2612"
    },
    {
      "channel": 2,
      "note": 74,
      "start": 25.403,
      "duration": 0.1339,
      "velocity": 120,
      "chip": "ym2612"
    },
    {
      "channel": 1,
      "note": 59,
      "start": 25.433,
      "duration": 0.1088,
      "velocity": 94,
      "chip": "ym2612"
    },
    {
      "channel": 5,
      "note": 59,
      "start": 25.5044,
      "duration": 0.139,
      "velocity": 97,
      "chip": "ym2612"
    },
    {
      "channel": 0,
      "note": 71,
      "start": 25.5417,
      "duration": 0.1377,
      "velocity": 97,
      "chip": "ym2612"
    },
    {
      "channel": 1,
      "note": 54,
      "start": 25.5424,
      "duration": 0.0995,
      "velocity": 94,
      "chip": "ym2612"
    },
    {
      "channel": 2,
      "note": 74,
      "start": 25.5443,
      "duration": 0.1322,
      "velocity": 120,
      "chip": "ym2612"
    },
    {
      "channel": 1,
      "note": 54,
      "start": 25.6425,
      "duration": 0.1042,
      "velocity": 94,
      "chip": "ym2612"
    },
    {
      "channel": 5,
      "note": 59,
      "start": 25.6441,
      "duration": 0.1387,
      "velocity": 97,
      "chip": "ym2612"
    },
    {
      "channel": 0,
      "note": 72,
      "start": 25.68,
      "duration": 0.139,
      "velocity": 97,
      "chip": "ym2612"
    },
    {
      "channel": 2,
      "note": 69,
      "start": 25.6824,
      "duration": 0.1338,
      "velocity": 120,
      "chip": "ym2612"
    },
    {
      "channel": 1,
      "note": 60,
      "start": 25.7473,
      "duration": 0.1042,
      "velocity": 94,
      "chip": "ym2612"
    },
    {
      "channel": 5,
      "note": 60,
      "start": 25.7834,
      "duration": 0.1389,
      "velocity": 97,
      "chip": "ym2612"
    },
    {
      "channel": 0,
      "note": 74,
      "start": 25.8197,
      "duration": 0.2786,
      "velocity": 97,
      "chip": "ym2612"
    },
    {
      "channel": 2,
      "note": 69,
      "start": 25.8221,
      "duration": 0.134,
      "velocity": 120,
      "chip": "ym2612"
    },
    {
      "channel": 1,
      "note": 62,
      "start": 25.8521,
      "duration": 0.247,
      "velocity": 94,
      "chip": "ym2612"
    },
    {
      "channel": 5,
      "note": 62,
      "start": 25.9231,
      "duration": 0.2786,
      "velocity": 97,
      "chip": "ym2612"
    },
    {
      "channel": 2,
      "note": 65,
      "start": 25.9627,
      "duration": 0.1328,
      "velocity": 120,
      "chip": "ym2612"
    },
    {
      "channel": 0,
      "note": 76,
      "start": 26.099,
      "duration": 0.1389,
      "velocity": 97,
      "chip": "ym2612"
    },
    {
      "channel": 1,
      "note": 64,
      "start": 26.0997,
      "duration": 0.1388,
      "velocity": 94,
      "chip": "ym2612"
    },
    {
      "channel": 3,
      "note": 71,
      "start": 26.1005,
      "duration": 0.1387,
      "velocity": 92,
      "chip": "ym2612"
    },
    {
      "channel": 4,
      "note": 66,
      "start": 26.1012,
      "duration": 0.1385,
      "velocity": 92,
      "chip": "ym2612"
    },
    {
      "channel": 2,
      "note": 65,
      "start": 26.1025,
      "duration": 0.1326,
      "velocity": 120,
      "chip": "ym2612"
    },
    {
      "channel": 5,
      "note": 64,
      "start": 26.2023,
      "duration": 0.1402,
      "velocity": 97,
      "chip": "ym2612"
    },
    {
      "channel": 0,
      "note": 76,
      "start": 26.2384,
      "duration": 0.1393,
      "velocity": 97,
      "chip": "ym2612"
    },
    {
      "channel": 1,
      "note": 64,
      "start": 26.239,
      "duration": 0.1394,
      "velocity": 94,
      "chip": "ym2612"
    },
    {
      "channel": 3,
      "note": 71,
      "start": 26.2396,
      "duration": 0.1394,
      "velocity": 92,
      "chip": "ym2612"
    },
    {
      "channel": 4,
      "note": 66,
      "start": 26.2415,
      "duration": 0.138,
      "velocity": 92,
      "chip": "ym2612"
    },
    {
      "channel": 2,
      "note": 65,
      "start": 26.2427,
      "duration": 0.1322,
      "velocity": 120,
      "chip": "ym2612"
    },
    {
      "channel": 5,
      "note": 64,
      "start": 26.3431,
      "duration": 0.1406,
      "velocity": 97,
      "chip": "ym2612"
    },
    {
      "channel": 0,
      "note": 76,
      "start": 26.3782,
      "duration": 0.4211,
      "velocity": 105,
      "chip": "ym2612"
    },
    {
      "channel": 1,
      "note": 64,
      "start": 26.3788,
      "duration": 0.4214,
      "velocity": 94,
      "chip": "ym2612"
    },
    {
      "channel": 3,
      "note": 71,
      "start": 26.3794,
      "duration": 0.4247,
      "velocity": 100,
      "chip": "ym2612"
    },
    {
      "channel": 4,
      "note": 66,
      "start": 26.38,
      "duration": 0.4294,
      "velocity": 100,
      "chip": "ym2612"
    },
    {
      "channel": 2,
      "note": 79,
      "start": 26.3813,
      "duration": 0.0982,
      "velocity": 120,
      "chip": "ym2612"
    },
    {
      "channel": 5,
      "note": 64,
      "start": 26.4843,
      "duration": 0.4209,
      "velocity": 105,
      "chip": "ym2612"
    },
    {
      "channel": 2,
      "note": 79,
      "start": 26.4852,
      "duration": 0.0989,
      "velocity": 120,
      "chip": "ym2612"
    },
    {
      "channel": 2,
      "note": 69,
      "start": 26.5896,
      "duration": 0.0994,
      "velocity": 120,
      "chip": "ym2612"
    },
    {
      "channel": 2,
      "note": 69,
      "start": 26.6959,
      "duration": 0.0978,
      "velocity": 120,
      "chip": "ym2612"
    },
    {
      "channel": 0,
      "note": 74,
      "start": 26.8,
      "duration": 1.0451,
      "velocity": 105,
      "chip": "ym2612"
    },
    {
      "channel": 1,
      "note": 62,
      "start": 26.8008,
      "duration": 0.3111,
      "velocity": 94,
      "chip": "ym2612"
    },
    {
      "channel": 3,
      "note": 81,
      "start": 26.8048,
      "duration": 1.6709,
      "velocity": 100,
      "chip": "ym2612"
    },
    {
      "channel": 4,
      "note": 78,
      "start": 26.81,
      "duration": 1.6663,
      "velocity": 100,
      "chip": "ym2612"
    },
    {
      "channel": 2,
      "note": 29,
      "start": 26.8114,
      "duration": 0.0869,
      "velocity": 119,
      "chip": "ym2612"
    },
    {
      "channel": 5,
      "note": 62,
      "start": 26.9058,
      "duration": 1.0441,
      "velocity": 105,
      "chip": "ym2612"
    },
    {
      "channel": 2,
      "note": 68,
      "start": 26.908,
      "duration": 0.0952,
      "velocity": 127,
      "chip": "ym2612"
    },
    {
      "channel": 2,
      "note": 68,
      "start": 27.0098,
      "duration": 0.0985,
      "velocity": 127,
      "chip": "ym2612"
    },
    {
      "channel": 1,
      "note": 62,
      "start": 27.1124,
      "duration": 0.1034,
      "velocity": 94,
      "chip": "ym2612"
    },
    {
      "channel": 2,
      "note": 29,
      "start": 27.1143,
      "duration": 0.0982,
      "velocity": 119,
      "chip": "ym2612"
    },
    {
      "channel": 1,
      "note": 62,
      "start": 27.2162,
      "duration": 0.2104,
      "velocity": 94,
      "chip": "ym2612"
    },
    {
      "channel": 2,
      "note": 75,
      "start": 27.2183,
      "duration": 0.0994,
      "velocity": 120,
      "chip": "ym2612"
    },
    {
      "channel": 2,
      "note": 68,
      "start": 27.3232,
      "duration": 0.0988,
      "velocity": 127,
      "chip": "ym2612"
    },
    {
      "channel": 1,
      "note": 57,
      "start": 27.4271,
      "duration": 0.208,
      "velocity": 94,
      "chip": "ym2612"
    },
    {
      "channel": 2,
      "note": 68,
      "start": 27.4292,
      "duration": 0.0976,
      "velocity": 127,
      "chip": "ym2612"
    },
    {
      "channel": 2,
      "note": 68,
      "start": 27.5322,
      "duration": 0.0992,
      "velocity": 127,
      "chip": "ym2612"
    },
    {
      "channel": 1,
      "note": 57,
      "start": 27.6357,
      "duration": 0.21,
      "velocity": 94,
      "chip": "ym2612"
    },
    {
      "channel": 2,
      "note": 29,
      "start": 27.6378,
      "duration": 0.0985,
      "velocity": 119,
      "chip": "ym2612"
    },
    {
      "channel": 2,
      "note": 68,
      "start": 27.7431,
      "duration": 0.0989,
      "velocity": 127,
      "chip": "ym2612"
    },
    {
      "channel": 0,
      "note": 74,
      "start": 27.8457,
      "duration": 0.2076,
      "velocity": 105,
      "chip": "ym2612"
    },
    {
      "channel": 1,
      "note": 57,
      "start": 27.8463,
      "duration": 0.2077,
      "velocity": 94,
      "chip": "ym2612"
    },
    {
      "channel": 2,
      "note": 29,
      "start": 27.8484,
      "duration": 0.0973,
      "velocity": 119,
      "chip": "ym2612"
    },
    {
      "channel": 5,
      "note": 62,
      "start": 27.9504,
      "duration": 0.2103,
      "velocity": 105,
      "chip": "ym2612"
    },
    {
      "channel": 2,
      "note": 68,
      "start": 27.9513,
      "duration": 0.0991,
      "velocity": 127,
      "chip": "ym2612"
    },
    {
      "channel": 0,
      "note": 78,
      "start": 28.0539,
      "duration": 0.2088,
      "velocity": 105,
      "chip": "ym2612"
    },
    {
      "channel": 1,
      "note": 62,
      "start": 28.0546,
      "duration": 0.209,
      "velocity": 94,
      "chip": "ym2612"
    },
    {
      "channel": 2,
      "note": 75,
      "start": 28.0579,
      "duration": 0.0973,
      "velocity": 120,
      "chip": "ym2612"
    },
    {
      "channel": 5,
      "note": 66,
      "start": 28.1614,
      "duration": 0.2075,
      "velocity": 105,
      "chip": "ym2612"
    },
    {
      "channel": 2,
      "note": 68,
      "start": 28.1623,
      "duration": 0.0976,
      "velocity": 127,
      "chip": "ym2612"
    },
    {
      "channel": 0,
      "note": 81,
      "start": 28.2634,
      "duration": 0.1363,
      "velocity": 105,
      "chip": "ym2612"
    },
    {
      "channel": 1,
      "note": 66,
      "start": 28.2642,
      "duration": 0.2107,
      "velocity": 94,
      "chip": "ym2612"
    },
    {
      "channel": 2,
      "note": 68,
      "start": 28.2661,
      "duration": 0.0986,
      "velocity": 127,
      "chip": "ym2612"
    },
    {
      "channel": 5,
      "note": 69,
      "start": 28.3696,
      "duration": 0.1362,
      "velocity": 105,
      "chip": "ym2612"
    },
    {
      "channel": 2,
      "note": 68,
      "start": 28.3704,
      "duration": 0.0991,
      "velocity": 127,
      "chip": "ym2612"
    },
    {
      "channel": 0,
      "note": 83,
      "start": 28.4003,
      "duration": 0.0724,
      "velocity": 105,
      "chip": "ym2612"
    },
    {
      "channel": 0,
      "note": 84,
      "start": 28.4747,
      "duration": 0.4177,
      "velocity": 105,
      "chip": "ym2612"
    },
    {
      "channel": 1,
      "note": 60,
      "start": 28.4755,
      "duration": 0.3117,
      "velocity": 94,
      "chip": "ym2612"
    },
    {
      "channel": 3,
      "note": 79,
      "start": 28.4762,
      "duration": 1.6737,
      "velocity": 100,
      "chip": "ym2612"
    },
    {
      "channel": 4,
      "note": 76,
      "start": 28.477,
      "duration": 1.6737,
      "velocity": 100,
      "chip": "ym2612"
    },
    {
      "channel": 2,
      "note": 29,
      "start": 28.4782,
      "duration": 0.0967,
      "velocity": 119,
      "chip": "ym2612"
    },
    {
      "channel": 5,
      "note": 71,
      "start": 28.5065,
      "duration": 0.0726,
      "velocity": 105,
      "chip": "ym2612"
    },
    {
      "channel": 5,
      "note": 72,
      "start": 28.5798,
      "duration": 0.4175,
      "velocity": 105,
      "chip": "ym2612"
    },
    {
      "channel": 2,
      "note": 68,
      "start": 28.5807,
      "duration": 0.0985,
      "velocity": 127,
      "chip": "ym2612"
    },
    {
      "channel": 2,
      "note": 68,
      "start": 28.6845,
      "duration": 0.099,
      "velocity": 127,
      "chip": "ym2612"
    },
    {
      "channel": 1,
      "note": 60,
      "start": 28.7876,
      "duration": 0.1056,
      "velocity": 94,
      "chip": "ym2612"
    },
    {
      "channel": 2,
      "note": 29,
      "start": 28.7895,
      "duration": 0.0987,
      "velocity": 119,
      "chip": "ym2612"
    },
    {
      "channel": 0,
      "note": 83,
      "start": 28.8931,
      "duration": 0.2075,
      "velocity": 105,
      "chip": "ym2612"
    },
    {
      "channel": 1,
      "note": 60,
      "start": 28.8937,
      "duration": 0.2077,
      "velocity": 94,
      "chip": "ym2612"
    },
    {
      "channel": 2,
      "note": 75,
      "start": 28.8958,
      "duration": 0.0973,
      "velocity": 120,
      "chip": "ym2612"
    },
    {
      "channel": 5,
      "note": 71,
      "start": 28.998,
      "duration": 0.21,
      "velocity": 105,
      "chip": "ym2612"
    },
    {
      "channel": 2,
      "note": 68,
      "start": 28.9988,
      "duration": 0.0989,
      "velocity": 127,
      "chip": "ym2612"
    },
    {
      "channel": 0,
      "note": 81,
      "start": 29.1012,
      "duration": 0.4186,
      "velocity": 105,
      "chip": "ym2612"
    },
    {
      "channel": 1,
      "note": 55,
      "start": 29.102,
      "duration": 0.2099,
      "velocity": 94,
      "chip": "ym2612"
    },
    {
      "channel": 2,
      "note": 68,
      "start": 29.1039,
      "duration": 0.0986,
      "velocity": 127,
      "chip": "ym2612"
    },
    {
      "channel": 5,
      "note": 69,
      "start": 29.2087,
      "duration": 0.4183,
      "velocity": 105,
      "chip": "ym2612"
    },
    {
      "channel": 2,
      "note": 68,
      "start": 29.2096,
      "duration": 0.0987,
      "velocity": 127,
      "chip": "ym2612"
    },
    {
      "channel": 1,
      "note": 55,
      "start": 29.3124,
      "duration": 0.2083,
      "velocity": 94,
      "chip": "ym2612"
    },
    {
      "channel": 2,
      "note": 29,
      "start": 29.3143,
      "duration": 0.0976,
      "velocity": 119,
      "chip": "ym2612"
    },
    {
      "channel": 2,
      "note": 68,
      "start": 29.4173,
      "duration": 0.0994,
      "velocity": 127,
      "chip": "ym2612"
    },
    {
      "channel": 0,
      "note": 79,
      "start": 29.5206,
      "duration": 0.4178,
      "velocity": 105,
      "chip": "ym2612"
    },
    {
      "channel": 1,
      "note": 55,
      "start": 29.5213,
      "duration": 0.208,
      "velocity": 94,
      "chip": "ym2612"
    },
    {
      "channel": 2,
      "note": 29,
      "start": 29.5246,
      "duration": 0.0968,
      "velocity": 119,
      "chip": "ym2612"
    },
    {
      "channel": 5,
      "note": 67,
      "start": 29.6276,
      "duration": 0.4184,
      "velocity": 105,
      "chip": "ym2612"
    },
    {
      "channel": 2,
      "note": 68,
      "start": 29.6285,
      "duration": 0.0977,
      "velocity": 127,
      "chip": "ym2612"
    },
    {
      "channel": 1,
      "note": 62,
      "start": 29.73,
      "duration": 0.2093,
      "velocity": 94,
      "chip": "ym2612"
    },
    {
      "channel": 2,
      "note": 75,
      "start": 29.7319,
      "duration": 0.099,
      "velocity": 120,
      "chip": "ym2612"
    },
    {
      "channel": 2,
      "note": 68,
      "start": 29.8362,
      "duration": 0.0994,
      "velocity": 127,
      "chip": "ym2612"
    },
    {
      "channel": 0,
      "note": 78,
      "start": 29.9391,
      "duration": 0.2093,
      "velocity": 105,
      "chip": "ym2612"
    },
    {
      "channel": 1,
      "note": 60,
      "start": 29.9411,
      "duration": 0.2081,
      "velocity": 94,
      "chip": "ym2612"
    },
    {
      "channel": 2,
      "note": 68,
      "start": 29.9432,
      "duration": 0.0987,
      "velocity": 127,
      "chip": "ym2612"
    },
    {
      "channel": 5,
      "note": 66,
      "start": 30.0467,
      "duration": 0.2073,
      "velocity": 105,
      "chip": "ym2612"
    },
    {
      "channel": 2,
      "note": 68,
      "start": 30.0476,
      "duration": 0.0976,
      "velocity": 127,
      "chip": "ym2612"
    },
    {
      "channel": 0,
      "note": 71,
      "start": 30.149,
      "duration": 0.4178,
      "velocity": 105,
      "chip": "ym2612"
    },
    {
      "channel": 1,
      "note": 59,
      "start": 30.1498,
      "duration": 0.3132,
      "velocity": 94,
      "chip": "ym2612"
    },
    {
      "channel": 3,
      "note": 78,
      "start": 30.1506,
      "duration": 1.6759,
      "velocity": 100,
      "chip": "ym2612"
    },
    {
      "channel": 4,
      "note": 75,
      "start": 30.1513,
      "duration": 1.676,
      "velocity": 100,
      "chip": "ym2612"
    },
    {
      "channel": 2,
      "note": 29,
      "start": 30.1525,
      "duration": 0.0973,
      "velocity": 119,
      "chip": "ym2612"
    },
    {
      "channel": 5,
      "note": 59,
      "start": 30.2547,
      "duration": 0.4183,
      "velocity": 105,
      "chip": "ym2612"
    },
    {
      "channel": 2,
      "note": 68,
      "start": 30.2555,
      "duration": 0.099,
      "velocity": 127,
      "chip": "ym2612"
    },
    {
      "channel": 2,
      "note": 68,
      "start": 30.3612,
      "duration": 0.0982,
      "velocity": 127,
      "chip": "ym2612"
    },
    {
      "channel": 1,
      "note": 59,
      "start": 30.4634,
      "duration": 0.1042,
      "velocity": 94,
      "chip": "ym2612"
    },
    {
      "channel": 2,
      "note": 29,
      "start": 30.4653,
      "duration": 0.0987,
      "velocity": 119,
      "chip": "ym2612"
    },
    {
      "channel": 0,
      "note": 75,
      "start": 30.5675,
      "duration": 0.4187,
      "velocity": 105,
      "chip": "ym2612"
    },
    {
      "channel": 1,
      "note": 59,
      "start": 30.568,
      "duration": 0.2099,
      "velocity": 94,
      "chip": "ym2612"
    },
    {
      "channel": 2,
      "note": 75,
      "start": 30.5701,
      "duration": 0.0987,
      "velocity": 120,
      "chip": "ym2612"
    },
    {
      "channel": 5,
      "note": 63,
      "start": 30.6749,
      "duration": 0.4183,
      "velocity": 105,
      "chip": "ym2612"
    },
    {
      "channel": 2,
      "note": 68,
      "start": 30.6758,
      "duration": 0.099,
      "velocity": 127,
      "chip": "ym2612"
    },
    {
      "channel": 1,
      "note": 54,
      "start": 30.7785,
      "duration": 0.2085,
      "velocity": 94,
      "chip": "ym2612"
    },
    {
      "channel": 2,
      "note": 68,
      "start": 30.7805,
      "duration": 0.0977,
      "velocity": 127,
      "chip": "ym2612"
    },
    {
      "channel": 2,
      "note": 68,
      "start": 30.8836,
      "duration": 0.0993,
      "velocity": 127,
      "chip": "ym2612"
    },
    {
      "channel": 0,
      "note": 78,
      "start": 30.9868,
      "duration": 0.3453,
      "velocity": 105,
      "chip": "ym2612"
    },
    {
      "channel": 1,
      "note": 54,
      "start": 30.9876,
      "duration": 0.2084,
      "velocity": 94,
      "chip": "ym2612"
    },
    {
      "channel": 2,
      "note": 29,
      "start": 30.9895,
      "duration": 0.0982,
      "velocity": 119,
      "chip": "ym2612"
    },
    {
      "channel": 5,
      "note": 66,
      "start": 31.0939,
      "duration": 0.3443,
      "velocity": 105,
      "chip": "ym2612"
    },
    {
      "channel": 2,
      "note": 68,
      "start": 31.0948,
      "duration": 0.0977,
      "velocity": 127,
      "chip": "ym2612"
    },
    {
      "channel": 1,
      "note": 59,
      "start": 31.1966,
      "duration": 0.2092,
      "velocity": 94,
      "chip": "ym2612"
    },
    {
      "channel": 2,
      "note": 29,
      "start": 31.1985,
      "duration": 0.0987,
      "velocity": 119,
      "chip": "ym2612"
    },
    {
      "channel": 2,
      "note": 68,
      "start": 31.3026,
      "duration": 0.0996,
      "velocity": 127,
      "chip": "ym2612"
    },
    {
      "channel": 0,
      "note": 79,
      "start": 31.3327,
      "duration": 0.0722,
      "velocity": 105,
      "chip": "ym2612"
    },
    {
      "channel": 0,
      "note": 81,
      "start": 31.4056,
      "duration": 0.2085,
      "velocity": 105,
      "chip": "ym2612"
    },
    {
      "channel": 1,
      "note": 63,
      "start": 31.4063,
      "duration": 0.2086,
      "velocity": 94,
      "chip": "ym2612"
    },
    {
      "channel": 2,
      "note": 75,
      "start": 31.4097,
      "duration": 0.0982,
      "velocity": 120,
      "chip": "ym2612"
    },
    {
      "channel": 5,
      "note": 67,
      "start": 31.4389,
      "duration": 0.0732,
      "velocity": 105,
      "chip": "ym2612"
    },
    {
      "channel": 5,
      "note": 69,
      "start": 31.5128,
      "duration": 0.2074,
      "velocity": 105,
      "chip": "ym2612"
    },
    {
      "channel": 2,
      "note": 68,
      "start": 31.5137,
      "duration": 0.0976,
      "velocity": 127,
      "chip": "ym2612"
    },
    {
      "channel": 0,
      "note": 79,
      "start": 31.6148,
      "duration": 0.4183,
      "velocity": 105,
      "chip": "ym2612"
    },
    {
      "channel": 1,
      "note": 66,
      "start": 31.6155,
      "duration": 0.2102,
      "velocity": 94,
      "chip": "ym2612"
    },
    {
      "channel": 2,
      "note": 68,
      "start": 31.6175,
      "duration": 0.0986,
      "velocity": 127,
      "chip": "ym2612"
    },
    {
      "channel": 5,
      "note": 67,
      "start": 31.7209,
      "duration": 0.4202,
      "velocity": 105,
      "chip": "ym2612"
    },
    {
      "channel": 2,
      "note": 68,
      "start": 31.7218,
      "duration": 0.0991,
      "velocity": 127,
      "chip": "ym2612"
    },
    {
      "channel": 1,
      "note": 64,
      "start": 31.8264,
      "duration": 0.3121,
      "velocity": 94,
      "chip": "ym2612"
    },
    {
      "channel": 3,
      "note": 83,
      "start": 31.8271,
      "duration": 1.6742,
      "velocity": 100,
      "chip": "ym2612"
    },
    {
      "channel": 4,
      "note": 79,
      "start": 31.8278,
      "duration": 1.6743,
      "velocity": 100,
      "chip": "ym2612"
    },
    {
      "channel": 2,
      "note": 29,
      "start": 31.829,
      "duration": 0.0964,
      "velocity": 119,
      "chip": "ym2612"
    },
    {
      "channel": 2,
      "note": 68,
      "start": 31.9309,
      "duration": 0.0994,
      "velocity": 127,
      "chip": "ym2612"
    },
    {
      "channel": 0,
      "note": 78,
      "start": 32.0338,
      "duration": 0.4182,
      "velocity": 105,
      "chip": "ym2612"
    },
    {
      "channel": 2,
      "note": 68,
      "start": 32.0361,
      "duration": 0.0988,
      "velocity": 127,
      "chip": "ym2612"
    },
    {
      "channel": 1,
      "note": 64,
      "start": 32.139,
      "duration": 0.1052,
      "velocity": 94,
      "chip": "ym2612"
    },
    {
      "channel": 5,
      "note": 66,
      "start": 32.1418,
      "duration": 0.4176,
      "velocity": 105,
      "chip": "ym2612"
    },
    {
      "channel": 2,
      "note": 29,
      "start": 32.1427,
      "duration": 0.0971,
      "velocity": 119,
      "chip": "ym2612"
    },
    {
      "channel": 1,
      "note": 64,
      "start": 32.2446,
      "duration": 0.2081,
      "velocity": 94,
      "chip": "ym2612"
    },
    {
      "channel": 2,
      "note": 75,
      "start": 32.2466,
      "duration": 0.0978,
      "velocity": 120,
      "chip": "ym2612"
    },
    {
      "channel": 2,
      "note": 68,
      "start": 32.3499,
      "duration": 0.0993,
      "velocity": 127,
      "chip": "ym2612"
    },
    {
      "channel": 0,
      "note": 76,
      "start": 32.4527,
      "duration": 0.6277,
      "velocity": 105,
      "chip": "ym2612"
    },
    {
      "channel": 1,
      "note": 59,
      "start": 32.4534,
      "duration": 0.2088,
      "velocity": 94,
      "chip": "ym2612"
    },
    {
      "channel": 2,
      "note": 68,
      "start": 32.4555,
      "duration": 0.0985,
      "velocity": 127,
      "chip": "ym2612"
    },
    {
      "channel": 5,
      "note": 64,
      "start": 32.5602,
      "duration": 0.6267,
      "velocity": 105,
      "chip": "ym2612"
    },
    {
      "channel": 2,
      "note": 68,
      "start": 32.561,
      "duration": 0.0976,
      "velocity": 127,
      "chip": "ym2612"
    },
    {
      "channel": 1,
      "note": 57,
      "start": 32.6628,
      "duration": 0.1041,
      "velocity": 94,
      "chip": "ym2612"
    },
    {
      "channel": 2,
      "note": 29,
      "start": 32.6647,
      "duration": 0.099,
      "velocity": 119,
      "chip": "ym2612"
    },
    {
      "channel": 1,
      "note": 55,
      "start": 32.7676,
      "duration": 0.1042,
      "velocity": 94,
      "chip": "ym2612"
    },
    {
      "channel": 2,
      "note": 68,
      "start": 32.7695,
      "duration": 0.0986,
      "velocity": 127,
      "chip": "ym2612"
    },
    {
      "channel": 1,
      "note": 57,
      "start": 32.8723,
      "duration": 0.2088,
      "velocity": 94,
      "chip": "ym2612"
    },
    {
      "channel": 2,
      "note": 29,
      "start": 32.8757,
      "duration": 0.0972,
      "velocity": 119,
      "chip": "ym2612"
    },
    {
      "channel": 2,
      "note": 68,
      "start": 32.9796,
      "duration": 0.098,
      "velocity": 127,
      "chip": "ym2612"
    },
    {
      "channel": 0,
      "note": 76,
      "start": 33.081,
      "duration": 0.2102,
      "velocity": 105,
      "chip": "ym2612"
    },
    {
      "channel": 1,
      "note": 59,
      "start": 33.0817,
      "duration": 0.1038,
      "velocity": 94,
      "chip": "ym2612"
    },
    {
      "channel": 2,
      "note": 75,
      "start": 33.0837,
      "duration": 0.0986,
      "velocity": 120,
      "chip": "ym2612"
    },
    {
      "channel": 1,
      "note": 62,
      "start": 33.1861,
      "duration": 0.1059,
      "velocity": 94,
      "chip": "ym2612"
    },
    {
      "channel": 5,
      "note": 64,
      "start": 33.1875,
      "duration": 0.2089,
      "velocity": 105,
      "chip": "ym2612"
    },
    {
      "channel": 2,
      "note": 68,
      "start": 33.1883,
      "duration": 0.0987,
      "velocity": 127,
      "chip": "ym2612"
    },
    {
      "channel": 0,
      "note": 78,
      "start": 33.2918,
      "duration": 0.208,
      "velocity": 105,
      "chip": "ym2612"
    },
    {
      "channel": 1,
      "note": 64,
      "start": 33.2925,
      "duration": 0.1024,
      "velocity": 94,
      "chip": "ym2612"
    },
    {
      "channel": 2,
      "note": 68,
      "start": 33.2944,
      "duration": 0.0973,
      "velocity": 127,
      "chip": "ym2612"
    },
    {
      "channel": 1,
      "note": 67,
      "start": 33.3955,
      "duration": 0.1051,
      "velocity": 94,
      "chip": "ym2612"
    },
    {
      "channel": 5,
      "note": 66,
      "start": 33.3971,
      "duration": 0.2085,
      "velocity": 105,
      "chip": "ym2612"
    },
    {
      "channel": 2,
      "note": 68,
      "start": 33.3979,
      "duration": 0.0987,
      "velocity": 127,
      "chip": "ym2612"
    },
    {
      "channel": 0,
      "note": 79,
      "start": 33.5005,
      "duration": 0.4177,
      "velocity": 105,
      "chip": "ym2612"
    },
    {
      "channel": 1,
      "note": 60,
      "start": 33.5012,
      "duration": 0.3131,
      "velocity": 94,
      "chip": "ym2612"
    },
    {
      "channel": 3,
      "note": 79,
      "start": 33.502,
      "duration": 0.4177,
      "velocity": 100,
      "chip": "ym2612"
    },
    {
      "channel": 4,
      "note": 76,
      "start": 33.5028,
      "duration": 0.4175,
      "velocity": 100,
      "chip": "ym2612"
    },
    {
      "channel": 2,
      "note": 29,
      "start": 33.5039,
      "duration": 0.0974,
      "velocity": 119,
      "chip": "ym2612"
    },
    {
      "channel": 5,
      "note": 67,
      "start": 33.6061,
      "duration": 0.4195,
      "velocity": 105,
      "chip": "ym2612"
    },
    {
      "channel": 2,
      "note": 68,
      "start": 33.6084,
      "duration": 0.0976,
      "velocity": 127,
      "chip": "ym2612"
    },
    {
      "channel": 2,
      "note": 68,
      "start": 33.7126,
      "duration": 0.0981,
      "velocity": 127,
      "chip": "ym2612"
    },
    {
      "channel": 1,
      "note": 60,
      "start": 33.8148,
      "duration": 0.1043,
      "velocity": 94,
      "chip": "ym2612"
    },
    {
      "channel": 2,
      "note": 29,
      "start": 33.8167,
      "duration": 0.0987,
      "velocity": 119,
      "chip": "ym2612"
    },
    {
      "channel": 0,
      "note": 78,
      "start": 33.9189,
      "duration": 0.209,
      "velocity": 105,
      "chip": "ym2612"
    },
    {
      "channel": 1,
      "note": 60,
      "start": 33.9195,
      "duration": 0.2093,
      "velocity": 94,
      "chip": "ym2612"
    },
    {
      "channel": 3,
      "note": 79,
      "start": 33.9202,
      "duration": 0.4184,
      "velocity": 100,
      "chip": "ym2612"
    },
    {
      "channel": 4,
      "note": 76,
      "start": 33.9207,
      "duration": 0.4184,
      "velocity": 100,
      "chip": "ym2612"
    },
    {
      "channel": 2,
      "note": 75,
      "start": 33.9221,
      "duration": 0.0981,
      "velocity": 120,
      "chip": "ym2612"
    },
    {
      "channel": 5,
      "note": 66,
      "start": 34.0264,
      "duration": 0.2074,
      "velocity": 105,
      "chip": "ym2612"
    },
    {
      "channel": 2,
      "note": 68,
      "start": 34.0272,
      "duration": 0.098,
      "velocity": 127,
      "chip": "ym2612"
    },
    {
      "channel": 0,
      "note": 76,
      "start": 34.1287,
      "duration": 0.6274,
      "velocity": 105,
      "chip": "ym2612"
    },
    {
      "channel": 1,
      "note": 60,
      "start": 34.1293,
      "duration": 0.2087,
      "velocity": 94,
      "chip": "ym2612"
    },
    {
      "channel": 2,
      "note": 68,
      "start": 34.1312,
      "duration": 0.0985,
      "velocity": 127,
      "chip": "ym2612"
    },
    {
      "channel": 5,
      "note": 64,
      "start": 34.2345,
      "duration": 0.6283,
      "velocity": 105,
      "chip": "ym2612"
    },
    {
      "channel": 2,
      "note": 68,
      "start": 34.2354,
      "duration": 0.099,
      "velocity": 127,
      "chip": "ym2612"
    },
    {
      "channel": 1,
      "note": 60,
      "start": 34.3384,
      "duration": 0.1053,
      "velocity": 94,
      "chip": "ym2612"
    },
    {
      "channel": 3,
      "note": 79,
      "start": 34.339,
      "duration": 0.42,
      "velocity": 100,
      "chip": "ym2612"
    },
    {
      "channel": 4,
      "note": 76,
      "start": 34.3396,
      "duration": 0.42,
      "velocity": 100,
      "chip": "ym2612"
    },
    {
      "channel": 2,
      "note": 29,
      "start": 34.3421,
      "duration": 0.097,
      "velocity": 119,
      "chip": "ym2612"
    },
    {
      "channel": 1,
      "note": 60,
      "start": 34.4441,
      "duration": 0.1033,
      "velocity": 94,
      "chip": "ym2612"
    },
    {
      "channel": 2,
      "note": 68,
      "start": 34.4461,
      "duration": 0.0977,
      "velocity": 127,
      "chip": "ym2612"
    },
    {
      "channel": 1,
      "note": 55,
      "start": 34.5481,
      "duration": 0.2102,
      "velocity": 94,
      "chip": "ym2612"
    },
    {
      "channel": 2,
      "note": 29,
      "start": 34.55,
      "duration": 0.0985,
      "velocity": 119,
      "chip": "ym2612"
    },
    {
      "channel": 2,
      "note": 68,
      "start": 34.6541,
      "duration": 0.0992,
      "velocity": 127,
      "chip": "ym2612"
    },
    {
      "channel": 0,
      "note": 78,
      "start": 34.7581,
      "duration": 0.2075,
      "velocity": 105,
      "chip": "ym2612"
    },
    {
      "channel": 1,
      "note": 57,
      "start": 34.7588,
      "duration": 0.1026,
      "velocity": 94,
      "chip": "ym2612"
    },
    {
      "channel": 3,
      "note": 79,
      "start": 34.7595,
      "duration": 0.419,
      "velocity": 100,
      "chip": "ym2612"
    },
    {
      "channel": 4,
      "note": 76,
      "start": 34.76,
      "duration": 0.4191,
      "velocity": 100,
      "chip": "ym2612"
    },
    {
      "channel": 2,
      "note": 75,
      "start": 34.7614,
      "duration": 0.0969,
      "velocity": 120,
      "chip": "ym2612"
    },
    {
      "channel": 1,
      "note": 59,
      "start": 34.862,
      "duration": 0.1044,
      "velocity": 94,
      "chip": "ym2612"
    },
    {
      "channel": 5,
      "note": 66,
      "start": 34.8635,
      "duration": 0.2085,
      "velocity": 105,
      "chip": "ym2612"
    },
    {
      "channel": 2,
      "note": 68,
      "start": 34.8644,
      "duration": 0.0984,
      "velocity": 127,
      "chip": "ym2612"
    },
    {
      "channel": 0,
      "note": 79,
      "start": 34.9663,
      "duration": 0.2105,
      "velocity": 105,
      "chip": "ym2612"
    },
    {
      "channel": 1,
      "note": 60,
      "start": 34.967,
      "duration": 0.1037,
      "velocity": 94,
      "chip": "ym2612"
    },
    {
      "channel": 2,
      "note": 68,
      "start": 34.9689,
      "duration": 0.0985,
      "velocity": 127,
      "chip": "ym2612"
    },
    {
      "channel": 1,
      "note": 64,
      "start": 35.0712,
      "duration": 0.1064,
      "velocity": 94,
      "chip": "ym2612"
    },
    {
      "channel": 5,
      "note": 67,
      "start": 35.0728,
      "duration": 0.2084,
      "velocity": 105,
      "chip": "ym2612"
    },
    {
      "channel": 2,
      "note": 68,
      "start": 35.0749,
      "duration": 0.0974,
      "velocity": 127,
      "chip": "ym2612"
    },
    {
      "channel": 0,
      "note": 81,
      "start": 35.1775,
      "duration": 0.4168,
      "velocity": 105,
      "chip": "ym2612"
    },
    {
      "channel": 1,
      "note": 62,
      "start": 35.1782,
      "duration": 0.3135,
      "velocity": 94,
      "chip": "ym2612"
    },
    {
      "channel": 3,
      "note": 81,
      "start": 35.179,
      "duration": 0.4168,
      "velocity": 100,
      "chip": "ym2612"
    },
    {
      "channel": 4,
      "note": 78,
      "start": 35.1798,
      "duration": 0.4167,
      "velocity": 100,
      "chip": "ym2612"
    },
    {
      "channel": 2,
      "note": 29,
      "start": 35.181,
      "duration": 0.096,
      "velocity": 119,
      "chip": "ym2612"
    },
    {
      "channel": 5,
      "note": 69,
      "start": 35.2819,
      "duration": 0.4183,
      "velocity": 105,
      "chip": "ym2612"
    },
    {
      "channel": 2,
      "note": 68,
      "start": 35.2827,
      "duration": 0.099,
      "velocity": 127,
      "chip": "ym2612"
    },
    {
      "channel": 2,
      "note": 68,
      "start": 35.387,
      "duration": 0.0998,
      "velocity": 127,
      "chip": "ym2612"
    },
    {
      "channel": 1,
      "note": 62,
      "start": 35.4922,
      "duration": 0.1031,
      "velocity": 94,
      "chip": "ym2612"
    },
    {
      "channel": 2,
      "note": 29,
      "start": 35.4941,
      "duration": 0.0975,
      "velocity": 119,
      "chip": "ym2612"
    },
    {
      "channel": 0,
      "note": 79,
      "start": 35.5951,
      "duration": 0.2083,
      "velocity": 105,
      "chip": "ym2612"
    },
    {
      "channel": 1,
      "note": 62,
      "start": 35.5957,
      "duration": 0.2086,
      "velocity": 94,
      "chip": "ym2612"
    },
    {
      "channel": 3,
      "note": 81,
      "start": 35.5963,
      "duration": 0.418,
      "velocity": 100,
      "chip": "ym2612"
    },
    {
      "channel": 4,
      "note": 78,
      "start": 35.597,
      "duration": 0.4179,
      "velocity": 100,
      "chip": "ym2612"
    },
    {
      "channel": 2,
      "note": 75,
      "start": 35.5984,
      "duration": 0.0975,
      "velocity": 120,
      "chip": "ym2612"
    },
    {
      "channel": 5,
      "note": 67,
      "start": 35.7007,
      "duration": 0.2102,
      "velocity": 105,
      "chip": "ym2612"
    },
    {
      "channel": 2,
      "note": 68,
      "start": 35.7016,
      "duration": 0.099,
      "velocity": 127,
      "chip": "ym2612"
    },
    {
      "channel": 0,
      "note": 78,
      "start": 35.8041,
      "duration": 0.6277,
      "velocity": 105,
      "chip": "ym2612"
    },
    {
      "channel": 1,
      "note": 62,
      "start": 35.8047,
      "duration": 0.209,
      "velocity": 94,
      "chip": "ym2612"
    },
    {
      "channel": 2,
      "note": 68,
      "start": 35.8079,
      "duration": 0.0975,
      "velocity": 127,
      "chip": "ym2612"
    },
    {
      "channel": 5,
      "note": 66,
      "start": 35.9116,
      "duration": 0.6267,
      "velocity": 105,
      "chip": "ym2612"
    },
    {
      "channel": 2,
      "note": 68,
      "start": 35.9124,
      "duration": 0.0976,
      "velocity": 127,
      "chip": "ym2612"
    },
    {
      "channel": 1,
      "note": 62,
      "start": 36.0141,
      "duration": 0.1039,
      "velocity": 94,
      "chip": "ym2612"
    },
    {
      "channel": 3,
      "note": 81,
      "start": 36.0147,
      "duration": 0.4186,
      "velocity": 100,
      "chip": "ym2612"
    },
    {
      "channel": 4,
      "note": 78,
      "start": 36.0154,
      "duration": 0.4185,
      "velocity": 100,
      "chip": "ym2612"
    },
    {
      "channel": 2,
      "note": 29,
      "start": 36.0166,
      "duration": 0.0982,
      "velocity": 119,
      "chip": "ym2612"
    },
    {
      "channel": 1,
      "note": 62,
      "start": 36.1185,
      "duration": 0.106,
      "velocity": 94,
      "chip": "ym2612"
    },
    {
      "channel": 2,
      "note": 68,
      "start": 36.1205,
      "duration": 0.0991,
      "velocity": 127,
      "chip": "ym2612"
    },
    {
      "channel": 1,
      "note": 57,
      "start": 36.2251,
      "duration": 0.2075,
      "velocity": 94,
      "chip": "ym2612"
    },
    {
      "channel": 2,
      "note": 29,
      "start": 36.2271,
      "duration": 0.0982,
      "velocity": 119,
      "chip": "ym2612"
    },
    {
      "channel": 2,
      "note": 68,
      "start": 36.3308,
      "duration": 0.0982,
      "velocity": 127,
      "chip": "ym2612"
    },
    {
      "channel": 0,
      "note": 79,
      "start": 36.4325,
      "duration": 0.2102,
      "velocity": 105,
      "chip": "ym2612"
    },
    {
      "channel": 1,
      "note": 59,
      "start": 36.4333,
      "duration": 0.1036,
      "velocity": 94,
      "chip": "ym2612"
    },
    {
      "channel": 3,
      "note": 81,
      "start": 36.4338,
      "duration": 0.4193,
      "velocity": 100,
      "chip": "ym2612"
    },
    {
      "channel": 4,
      "note": 78,
      "start": 36.4346,
      "duration": 0.4193,
      "velocity": 100,
      "chip": "ym2612"
    },
    {
      "channel": 2,
      "note": 75,
      "start": 36.4359,
      "duration": 0.0978,
      "velocity": 120,
      "chip": "ym2612"
    },
    {
      "channel": 1,
      "note": 60,
      "start": 36.5375,
      "duration": 0.106,
      "velocity": 94,
      "chip": "ym2612"
    },
    {
      "channel": 5,
      "note": 67,
      "start": 36.539,
      "duration": 0.2088,
      "velocity": 105,
      "chip": "ym2612"
    },
    {
      "channel": 2,
      "note": 68,
      "start": 36.5411,
      "duration": 0.0974,
      "velocity": 127,
      "chip": "ym2612"
    },
    {
      "channel": 0,
      "note": 81,
      "start": 36.6433,
      "duration": 0.2082,
      "velocity": 105,
      "chip": "ym2612"
    },
    {
      "channel": 1,
      "note": 62,
      "start": 36.6441,
      "duration": 0.1024,
      "velocity": 94,
      "chip": "ym2612"
    },
    {
      "channel": 2,
      "note": 68,
      "start": 36.646,
      "duration": 0.0973,
      "velocity": 127,
      "chip": "ym2612"
    },
    {
      "channel": 1,
      "note": 66,
      "start": 36.747,
      "duration": 0.1053,
      "velocity": 94,
      "chip": "ym2612"
    },
    {
      "channel": 5,
      "note": 69,
      "start": 36.7485,
      "duration": 0.2097,
      "velocity": 105,
      "chip": "ym2612"
    },
    {
      "channel": 2,
      "note": 68,
      "start": 36.7493,
      "duration": 0.099,
      "velocity": 127,
      "chip": "ym2612"
    },
    {
      "channel": 0,
      "note": 83,
      "start": 36.8522,
      "duration": 3.353,
      "velocity": 97,
      "chip": "ym2612"
    },
    {
      "channel": 1,
      "note": 59,
      "start": 36.853,
      "duration": 0.3128,
      "velocity": 94,
      "chip": "ym2612"
    },
    {
      "channel": 3,
      "note": 78,
      "start": 36.8537,
      "duration": 1.883,
      "velocity": 100,
      "chip": "ym2612"
    },
    {
      "channel": 4,
      "note": 75,
      "start": 36.8545,
      "duration": 1.8828,
      "velocity": 100,
      "chip": "ym2612"
    },
    {
      "channel": 2,
      "note": 29,
      "start": 36.8556,
      "duration": 0.097,
      "velocity": 119,
      "chip": "ym2612"
    },
    {
      "channel": 5,
      "note": 71,
      "start": 36.9589,
      "duration": 3.3534,
      "velocity": 97,
      "chip": "ym2612"
    },
    {
      "channel": 2,
      "note": 68,
      "start": 36.9597,
      "duration": 0.0985,
      "velocity": 127,
      "chip": "ym2612"
    },
    {
      "channel": 2,
      "note": 68,
      "start": 37.0635,
      "duration": 0.0986,
      "velocity": 127,
      "chip": "ym2612"
    },
    {
      "channel": 1,
      "note": 59,
      "start": 37.1662,
      "duration": 0.1039,
      "velocity": 94,
      "chip": "ym2612"
    },
    {
      "channel": 2,
      "note": 29,
      "start": 37.1681,
      "duration": 0.0987,
      "velocity": 119,
      "chip": "ym2612"
    },
    {
      "channel": 1,
      "note": 59,
      "start": 37.2705,
      "duration": 0.209,
      "velocity": 94,
      "chip": "ym2612"
    },
    {
      "channel": 2,
      "note": 75,
      "start": 37.2726,
      "duration": 0.099,
      "velocity": 120,
      "chip": "ym2612"
    },
    {
      "channel": 2,
      "note": 68,
      "start": 37.3784,
      "duration": 0.098,
      "velocity": 127,
      "chip": "ym2612"
    },
    {
      "channel": 1,
      "note": 59,
      "start": 37.48,
      "duration": 0.4189,
      "velocity": 94,
      "chip": "ym2612"
    },
    {
      "channel": 2,
      "note": 68,
      "start": 37.482,
      "duration": 0.099,
      "velocity": 127,
      "chip": "ym2612"
    },
    {
      "channel": 2,
      "note": 68,
      "start": 37.5866,
      "duration": 0.0993,
      "velocity": 127,
      "chip": "ym2612"
    },
    {
      "channel": 2,
      "note": 29,
      "start": 37.693,
      "duration": 0.0986,
      "velocity": 119,
      "chip": "ym2612"
    },
    {
      "channel": 2,
      "note": 68,
      "start": 37.7971,
      "duration": 0.0982,
      "velocity": 127,
      "chip": "ym2612"
    },
    {
      "channel": 1,
      "note": 59,
      "start": 37.8993,
      "duration": 0.2099,
      "velocity": 94,
      "chip": "ym2612"
    },
    {
      "channel": 2,
      "note": 29,
      "start": 37.9014,
      "duration": 0.0986,
      "velocity": 119,
      "chip": "ym2612"
    },
    {
      "channel": 2,
      "note": 68,
      "start": 38.0055,
      "duration": 0.0992,
      "velocity": 127,
      "chip": "ym2612"
    },
    {
      "channel": 1,
      "note": 59,
      "start": 38.1097,
      "duration": 0.2077,
      "velocity": 94,
      "chip": "ym2612"
    },
    {
      "channel": 2,
      "note": 75,
      "start": 38.1117,
      "duration": 0.098,
      "velocity": 120,
      "chip": "ym2612"
    },
    {
      "channel": 2,
      "note": 68,
      "start": 38.2153,
      "duration": 0.0989,
      "velocity": 127,
      "chip": "ym2612"
    },
    {
      "channel": 1,
      "note": 59,
      "start": 38.3179,
      "duration": 0.2108,
      "velocity": 94,
      "chip": "ym2612"
    },
    {
      "channel": 2,
      "note": 68,
      "start": 38.3199,
      "duration": 0.099,
      "velocity": 127,
      "chip": "ym2612"
    },
    {
      "channel": 2,
      "note": 68,
      "start": 38.4258,
      "duration": 0.0992,
      "velocity": 127,
      "chip": "ym2612"
    },
    {
      "channel": 1,
      "note": 59,
      "start": 38.5291,
      "duration": 0.4167,
      "velocity": 94,
      "chip": "ym2612"
    },
    {
      "channel": 2,
      "note": 29,
      "start": 38.5311,
      "duration": 0.0973,
      "velocity": 119,
      "chip": "ym2612"
    },
    {
      "channel": 2,
      "note": 75,
      "start": 38.6339,
      "duration": 0.0992,
      "velocity": 120,
      "chip": "ym2612"
    },
    {
      "channel": 3,
      "note": 78,
      "start": 38.7372,
      "duration": 0.2093,
      "velocity": 100,
      "chip": "ym2612"
    },
    {
      "channel": 4,
      "note": 75,
      "start": 38.7378,
      "duration": 0.2093,
      "velocity": 100,
      "chip": "ym2612"
    },
    {
      "channel": 2,
      "note": 75,
      "start": 38.7391,
      "duration": 0.0987,
      "velocity": 120,
      "chip": "ym2612"
    },
    {
      "channel": 2,
      "note": 75,
      "start": 38.8447,
      "duration": 0.0979,
      "velocity": 120,
      "chip": "ym2612"
    },
    {
      "channel": 1,
      "note": 59,
      "start": 38.9463,
      "duration": 0.4185,
      "velocity": 94,
      "chip": "ym2612"
    },
    {
      "channel": 3,
      "note": 78,
      "start": 38.9469,
      "duration": 0.2088,
      "velocity": 100,
      "chip": "ym2612"
    },
    {
      "channel": 4,
      "note": 75,
      "start": 38.9475,
      "duration": 0.2088,
      "velocity": 100,
      "chip": "ym2612"
    },
    {
      "channel": 2,
      "note": 75,
      "start": 38.9488,
      "duration": 0.0985,
      "velocity": 120,
      "chip": "ym2612"
    },
    {
      "channel": 2,
      "note": 75,
      "start": 39.0529,
      "duration": 0.0992,
      "velocity": 120,
      "chip": "ym2612"
    },
    {
      "channel": 3,
      "note": 78,
      "start": 39.1561,
      "duration": 0.2092,
      "velocity": 100,
      "chip": "ym2612"
    },
    {
      "channel": 4,
      "note": 75,
      "start": 39.1581,
      "duration": 0.2079,
      "velocity": 100,
      "chip": "ym2612"
    },
    {
      "channel": 2,
      "note": 75,
      "start": 39.1594,
      "duration": 0.0987,
      "velocity": 120,
      "chip": "ym2612"
    },
    {
      "channel": 2,
      "note": 75,
      "start": 39.2636,
      "duration": 0.098,
      "velocity": 120,
      "chip": "ym2612"
    },
    {
      "channel": 1,
      "note": 59,
      "start": 39.3653,
      "duration": 0.4184,
      "velocity": 94,
      "chip": "ym2612"
    },
    {
      "channel": 3,
      "note": 78,
      "start": 39.3658,
      "duration": 0.2104,
      "velocity": 100,
      "chip": "ym2612"
    },
    {
      "channel": 4,
      "note": 75,
      "start": 39.3665,
      "duration": 0.2104,
      "velocity": 100,
      "chip": "ym2612"
    },
    {
      "channel": 2,
      "note": 79,
      "start": 39.3679,
      "duration": 0.0984,
      "velocity": 120,
      "chip": "ym2612"
    },
    {
      "channel": 2,
      "note": 79,
      "start": 39.4719,
      "duration": 0.0994,
      "velocity": 120,
      "chip": "ym2612"
    },
    {
      "channel": 3,
      "note": 78,
      "start": 39.5767,
      "duration": 0.2076,
      "velocity": 100,
      "chip": "ym2612"
    },
    {
      "channel": 4,
      "note": 75,
      "start": 39.5773,
      "duration": 0.2076,
      "velocity": 100,
      "chip": "ym2612"
    },
    {
      "channel": 2,
      "note": 74,
      "start": 39.5786,
      "duration": 0.0971,
      "velocity": 120,
      "chip": "ym2612"
    },
    {
      "channel": 2,
      "note": 74,
      "start": 39.6812,
      "duration": 0.0992,
      "velocity": 120,
      "chip": "ym2612"
    },
    {
      "channel": 1,
      "note": 59,
      "start": 39.7841,
      "duration": 0.4257,
      "velocity": 94,
      "chip": "ym2612"
    },
    {
      "channel": 3,
      "note": 78,
      "start": 39.7848,
      "duration": 0.21,
      "velocity": 100,
      "chip": "ym2612"
    },
    {
      "channel": 4,
      "note": 75,
      "start": 39.7854,
      "duration": 0.21,
      "velocity": 100,
      "chip": "ym2612"
    },
    {
      "channel": 2,
      "note": 69,
      "start": 39.7868,
      "duration": 0.0984,
      "velocity": 120,
      "chip": "ym2612"
    },
    {
      "channel": 2,
      "note": 69,
      "start": 39.8922,
      "duration": 0.099,
      "velocity": 120,
      "chip": "ym2612"
    },
    {
      "channel": 3,
      "note": 78,
      "start": 39.9953,
      "duration": 0.2186,
      "velocity": 92,
      "chip": "ym2612"
    },
    {
      "channel": 4,
      "note": 75,
      "start": 39.9959,
      "duration": 0.222,
      "velocity": 92,
      "chip": "ym2612"
    },
    {
      "channel": 2,
      "note": 65,
      "start": 39.9972,
      "duration": 0.0975,
      "velocity": 120,
      "chip": "ym2612"
    },
    {
      "channel": 2,
      "note": 65,
      "start": 40.1001,
      "duration": 0.0993,
      "velocity": 120,
      "chip": "ym2612"
    },
    {
      "channel": 0,
      "note": 71,
      "start": 40.2059,
      "duration": 0.4198,
      "velocity": 97,
      "chip": "ym2612"
    },
    {
      "channel": 1,
      "note": 64,
      "start": 40.2104,
      "duration": 0.3069,
      "velocity": 94,
      "chip": "ym2612"
    },
    {
      "channel": 3,
      "note": 64,
      "start": 40.2144,
      "duration": 0.4113,
      "velocity": 92,
      "chip": "ym2612"
    },
    {
      "channel": 4,
      "note": 59,
      "start": 40.2184,
      "duration": 0.4073,
      "velocity": 92,
      "chip": "ym2612"
    },
    {
      "channel": 2,
      "note": 29,
      "start": 40.2197,
      "duration": 0.0844,
      "velocity": 119,
      "chip": "ym2612"
    },
    {
      "channel": 5,
      "note": 59,
      "start": 40.313,
      "duration": 0.3127,
      "velocity": 97,
      "chip": "ym2612"
    },
    {
      "channel": 2,
      "note": 68,
      "start": 40.3139,
      "duration": 0.095,
      "velocity": 127,
      "chip": "ym2612"
    },
    {
      "channel": 2,
      "note": 68,
      "start": 40.4141,
      "duration": 0.0995,
      "velocity": 127,
      "chip": "ym2612"
    },
    {
      "channel": 1,
      "note": 64,
      "start": 40.5177,
      "duration": 0.1038,
      "velocity": 94,
      "chip": "ym2612"
    },
    {
      "channel": 2,
      "note": 29,
      "start": 40.5196,
      "duration": 0.0987,
      "velocity": 119,
      "chip": "ym2612"
    },
    {
      "channel": 1,
      "note": 59,
      "start": 40.6222,
      "duration": 0.0035,
      "velocity": 94,
      "chip": "ym2612"
    },
    {
      "channel": 2,
      "note": 75,
      "start": 40.6256,
      "duration": 0.0002,
      "velocity": 120,
      "chip": "ym2612"
    }
  ]
}