{
  "track_name": "18 - Power",
  "duration_sec": 43.298,
  "sample_rate": 44100,
  "note_count": 160,
  "unique_pitches": 16,
  "pitch_range": 43,
  "avg_note_duration": 1.0853,
  "reconstruction_stats": {
    "notes_reconstructed": 160,
    "keyon_events": 160,
    "keyoff_events": 160,
    "orphan_keyons": 0,
    "unique_pitches": 16,
    "pitch_range": 43,
    "avg_duration_sec": 1.0853
  },
  "metadata": {
    "source": "P\\Phantasy Star II\\18 - Power.vgz"
  },
  "notes": [
    {
      "channel": 0,
      "note": 76,
      "start": 0.103,
      "duration": 1.0759,
      "velocity": 107,
      "chip": "ym2612"
    },
    {
      "channel": 1,
      "note": 45,
      "start": 0.1046,
      "duration": 0.5149,
      "velocity": 107,
      "chip": "ym2612"
    },
    {
      "channel": 2,
      "note": 81,
      "start": 0.1095,
      "duration": 2.0445,
      "velocity": 91,
      "chip": "ym2612"
    },
    {
      "channel": 3,
      "note": 74,
      "start": 0.1096,
      "duration": 2.0444,
      "velocity": 91,
      "chip": "ym2612"
    },
    {
      "channel": 4,
      "note": 78,
      "start": 0.1097,
      "duration": 2.0444,
      "velocity": 91,
      "chip": "ym2612"
    },
    {
      "channel": 1,
      "note": 45,
      "start": 0.6697,
      "duration": 0.5095,
      "velocity": 107,
      "chip": "ym2612"
    },
    {
      "channel": 0,
      "note": 88,
      "start": 1.2293,
      "duration": 0.9242,
      "velocity": 107,
      "chip": "ym2612"
    },
    {
      "channel": 1,
      "note": 45,
      "start": 1.2296,
      "duration": 0.3645,
      "velocity": 107,
      "chip": "ym2612"
    },
    {
      "channel": 1,
      "note": 45,
      "start": 1.6444,
      "duration": 0.5095,
      "velocity": 107,
      "chip": "ym2612"
    },
    {
      "channel": 0,
      "note": 83,
      "start": 2.2038,
      "duration": 2.0617,
      "velocity": 107,
      "chip": "ym2612"
    },
    {
      "channel": 1,
      "note": 45,
      "start": 2.2042,
      "duration": 0.5186,
      "velocity": 107,
      "chip": "ym2612"
    },
    {
      "channel": 2,
      "note": 83,
      "start": 2.2049,
      "duration": 2.061,
      "velocity": 91,
      "chip": "ym2612"
    },
    {
      "channel": 3,
      "note": 80,
      "start": 2.2049,
      "duration": 2.0611,
      "velocity": 91,
      "chip": "ym2612"
    },
    {
      "channel": 4,
      "note": 76,
      "start": 2.205,
      "duration": 2.0611,
      "velocity": 91,
      "chip": "ym2612"
    },
    {
      "channel": 1,
      "note": 45,
      "start": 2.773,
      "duration": 0.518,
      "velocity": 107,
      "chip": "ym2612"
    },
    {
      "channel": 1,
      "note": 45,
      "start": 3.3413,
      "duration": 0.3648,
      "velocity": 107,
      "chip": "ym2612"
    },
    {
      "channel": 1,
      "note": 45,
      "start": 3.7563,
      "duration": 0.5095,
      "velocity": 107,
      "chip": "ym2612"
    },
    {
      "channel": 0,
      "note": 84,
      "start": 4.3158,
      "duration": 0.2185,
      "velocity": 107,
      "chip": "ym2612"
    },
    {
      "channel": 1,
      "note": 45,
      "start": 4.3161,
      "duration": 0.5185,
      "velocity": 107,
      "chip": "ym2612"
    },
    {
      "channel": 2,
      "note": 81,
      "start": 4.3169,
      "duration": 2.0523,
      "velocity": 91,
      "chip": "ym2612"
    },
    {
      "channel": 3,
      "note": 77,
      "start": 4.317,
      "duration": 2.0523,
      "velocity": 91,
      "chip": "ym2612"
    },
    {
      "channel": 4,
      "note": 72,
      "start": 4.317,
      "duration": 2.0523,
      "velocity": 91,
      "chip": "ym2612"
    },
    {
      "channel": 0,
      "note": 83,
      "start": 4.5846,
      "duration": 0.2497,
      "velocity": 107,
      "chip": "ym2612"
    },
    {
      "channel": 0,
      "note": 84,
      "start": 4.8846,
      "duration": 0.2094,
      "velocity": 107,
      "chip": "ym2612"
    },
    {
      "channel": 1,
      "note": 45,
      "start": 4.8849,
      "duration": 0.5094,
      "velocity": 107,
      "chip": "ym2612"
    },
    {
      "channel": 0,
      "note": 83,
      "start": 5.1442,
      "duration": 0.2497,
      "velocity": 107,
      "chip": "ym2612"
    },
    {
      "channel": 0,
      "note": 81,
      "start": 5.4442,
      "duration": 0.3648,
      "velocity": 107,
      "chip": "ym2612"
    },
    {
      "channel": 1,
      "note": 45,
      "start": 5.4445,
      "duration": 0.3649,
      "velocity": 107,
      "chip": "ym2612"
    },
    {
      "channel": 0,
      "note": 79,
      "start": 5.8593,
      "duration": 0.5095,
      "velocity": 107,
      "chip": "ym2612"
    },
    {
      "channel": 1,
      "note": 45,
      "start": 5.8597,
      "duration": 0.5094,
      "velocity": 107,
      "chip": "ym2612"
    },
    {
      "channel": 0,
      "note": 81,
      "start": 6.4191,
      "duration": 2.0619,
      "velocity": 107,
      "chip": "ym2612"
    },
    {
      "channel": 1,
      "note": 45,
      "start": 6.4194,
      "duration": 0.5187,
      "velocity": 107,
      "chip": "ym2612"
    },
    {
      "channel": 2,
      "note": 69,
      "start": 6.4202,
      "duration": 2.0612,
      "velocity": 91,
      "chip": "ym2612"
    },
    {
      "channel": 3,
      "note": 76,
      "start": 6.4202,
      "duration": 2.0612,
      "velocity": 91,
      "chip": "ym2612"
    },
    {
      "channel": 4,
      "note": 73,
      "start": 6.4203,
      "duration": 2.0612,
      "velocity": 91,
      "chip": "ym2612"
    },
    {
      "channel": 1,
      "note": 45,
      "start": 6.9884,
      "duration": 0.5182,
      "velocity": 107,
      "chip": "ym2612"
    },
    {
      "channel": 1,
      "note": 45,
      "start": 7.5568,
      "duration": 0.3647,
      "velocity": 107,
      "chip": "ym2612"
    },
    {
      "channel": 1,
      "note": 45,
      "start": 7.9718,
      "duration": 0.5095,
      "velocity": 107,
      "chip": "ym2612"
    },
    {
      "channel": 1,
      "note": 45,
      "start": 8.5315,
      "duration": 0.5187,
      "velocity": 107,
      "chip": "ym2612"
    },
    {
      "channel": 2,
      "note": 81,
      "start": 8.5323,
      "duration": 2.0524,
      "velocity": 91,
      "chip": "ym2612"
    },
    {
      "channel": 3,
      "note": 78,
      "start": 8.5323,
      "duration": 2.0524,
      "velocity": 91,
      "chip": "ym2612"
    },
    {
      "channel": 4,
      "note": 74,
      "start": 8.5324,
      "duration": 2.0524,
      "velocity": 91,
      "chip": "ym2612"
    },
    {
      "channel": 1,
      "note": 45,
      "start": 9.1005,
      "duration": 0.5095,
      "velocity": 107,
      "chip": "ym2612"
    },
    {
      "channel": 0,
      "note": 88,
      "start": 9.6599,
      "duration": 0.9244,
      "velocity": 107,
      "chip": "ym2612"
    },
    {
      "channel": 1,
      "note": 45,
      "start": 9.6602,
      "duration": 0.3646,
      "velocity": 107,
      "chip": "ym2612"
    },
    {
      "channel": 1,
      "note": 45,
      "start": 10.0751,
      "duration": 0.5095,
      "velocity": 107,
      "chip": "ym2612"
    },
    {
      "channel": 0,
      "note": 76,
      "start": 10.6347,
      "duration": 1.5017,
      "velocity": 107,
      "chip": "ym2612"
    },
    {
      "channel": 1,
      "note": 45,
      "start": 10.635,
      "duration": 0.5183,
      "velocity": 107,
      "chip": "ym2612"
    },
    {
      "channel": 2,
      "note": 83,
      "start": 10.6357,
      "duration": 2.0606,
      "velocity": 91,
      "chip": "ym2612"
    },
    {
      "channel": 3,
      "note": 80,
      "start": 10.6358,
      "duration": 2.0606,
      "velocity": 91,
      "chip": "ym2612"
    },
    {
      "channel": 4,
      "note": 76,
      "start": 10.6358,
      "duration": 2.0606,
      "velocity": 91,
      "chip": "ym2612"
    },
    {
      "channel": 1,
      "note": 45,
      "start": 11.2035,
      "duration": 0.5182,
      "velocity": 107,
      "chip": "ym2612"
    },
    {
      "channel": 1,
      "note": 45,
      "start": 11.7719,
      "duration": 0.3647,
      "velocity": 107,
      "chip": "ym2612"
    },
    {
      "channel": 1,
      "note": 45,
      "start": 12.1868,
      "duration": 0.5094,
      "velocity": 107,
      "chip": "ym2612"
    },
    {
      "channel": 1,
      "note": 45,
      "start": 12.7465,
      "duration": 0.5188,
      "velocity": 107,
      "chip": "ym2612"
    },
    {
      "channel": 2,
      "note": 81,
      "start": 12.7472,
      "duration": 2.0525,
      "velocity": 91,
      "chip": "ym2612"
    },
    {
      "channel": 3,
      "note": 72,
      "start": 12.7473,
      "duration": 2.0525,
      "velocity": 91,
      "chip": "ym2612"
    },
    {
      "channel": 4,
      "note": 77,
      "start": 12.7473,
      "duration": 2.0525,
      "velocity": 91,
      "chip": "ym2612"
    },
    {
      "channel": 0,
      "note": 81,
      "start": 13.0152,
      "duration": 0.2497,
      "velocity": 107,
      "chip": "ym2612"
    },
    {
      "channel": 0,
      "note": 83,
      "start": 13.3152,
      "duration": 0.2094,
      "velocity": 107,
      "chip": "ym2612"
    },
    {
      "channel": 1,
      "note": 45,
      "start": 13.3155,
      "duration": 0.5094,
      "velocity": 107,
      "chip": "ym2612"
    },
    {
      "channel": 0,
      "note": 84,
      "start": 13.5749,
      "duration": 0.2497,
      "velocity": 107,
      "chip": "ym2612"
    },
    {
      "channel": 0,
      "note": 83,
      "start": 13.8749,
      "duration": 0.3647,
      "velocity": 107,
      "chip": "ym2612"
    },
    {
      "channel": 1,
      "note": 45,
      "start": 13.8752,
      "duration": 0.3647,
      "velocity": 107,
      "chip": "ym2612"
    },
    {
      "channel": 0,
      "note": 79,
      "start": 14.2899,
      "duration": 0.5094,
      "velocity": 107,
      "chip": "ym2612"
    },
    {
      "channel": 1,
      "note": 45,
      "start": 14.2902,
      "duration": 0.5094,
      "velocity": 107,
      "chip": "ym2612"
    },
    {
      "channel": 0,
      "note": 76,
      "start": 14.8497,
      "duration": 2.0611,
      "velocity": 107,
      "chip": "ym2612"
    },
    {
      "channel": 1,
      "note": 45,
      "start": 14.8501,
      "duration": 0.5181,
      "velocity": 107,
      "chip": "ym2612"
    },
    {
      "channel": 2,
      "note": 76,
      "start": 14.8507,
      "duration": 2.0605,
      "velocity": 91,
      "chip": "ym2612"
    },
    {
      "channel": 3,
      "note": 83,
      "start": 14.8508,
      "duration": 2.0605,
      "velocity": 91,
      "chip": "ym2612"
    },
    {
      "channel": 4,
      "note": 80,
      "start": 14.8508,
      "duration": 2.0606,
      "velocity": 91,
      "chip": "ym2612"
    },
    {
      "channel": 1,
      "note": 45,
      "start": 15.4185,
      "duration": 0.518,
      "velocity": 107,
      "chip": "ym2612"
    },
    {
      "channel": 1,
      "note": 45,
      "start": 15.9867,
      "duration": 0.3646,
      "velocity": 107,
      "chip": "ym2612"
    },
    {
      "channel": 1,
      "note": 45,
      "start": 16.4016,
      "duration": 0.5095,
      "velocity": 107,
      "chip": "ym2612"
    },
    {
      "channel": 0,
      "note": 76,
      "start": 16.9613,
      "duration": 1.078,
      "velocity": 107,
      "chip": "ym2612"
    },
    {
      "channel": 1,
      "note": 45,
      "start": 16.9617,
      "duration": 0.5183,
      "velocity": 107,
      "chip": "ym2612"
    },
    {
      "channel": 2,
      "note": 78,
      "start": 16.9624,
      "duration": 2.052,
      "velocity": 91,
      "chip": "ym2612"
    },
    {
      "channel": 3,
      "note": 81,
      "start": 16.9625,
      "duration": 2.052,
      "velocity": 91,
      "chip": "ym2612"
    },
    {
      "channel": 4,
      "note": 74,
      "start": 16.9625,
      "duration": 2.0521,
      "velocity": 91,
      "chip": "ym2612"
    },
    {
      "channel": 1,
      "note": 45,
      "start": 17.5302,
      "duration": 0.5095,
      "velocity": 107,
      "chip": "ym2612"
    },
    {
      "channel": 0,
      "note": 88,
      "start": 18.0896,
      "duration": 0.9244,
      "velocity": 107,
      "chip": "ym2612"
    },
    {
      "channel": 1,
      "note": 45,
      "start": 18.09,
      "duration": 0.3647,
      "velocity": 107,
      "chip": "ym2612"
    },
    {
      "channel": 1,
      "note": 45,
      "start": 18.5049,
      "duration": 0.5095,
      "velocity": 107,
      "chip": "ym2612"
    },
    {
      "channel": 0,
      "note": 83,
      "start": 19.0644,
      "duration": 2.0614,
      "velocity": 107,
      "chip": "ym2612"
    },
    {
      "channel": 1,
      "note": 45,
      "start": 19.0648,
      "duration": 0.5183,
      "velocity": 107,
      "chip": "ym2612"
    },
    {
      "channel": 2,
      "note": 83,
      "start": 19.0655,
      "duration": 2.0608,
      "velocity": 91,
      "chip": "ym2612"
    },
    {
      "channel": 3,
      "note": 80,
      "start": 19.0656,
      "duration": 2.0608,
      "velocity": 91,
      "chip": "ym2612"
    },
    {
      "channel": 4,
      "note": 76,
      "start": 19.0656,
      "duration": 2.0608,
      "velocity": 91,
      "chip": "ym2612"
    },
    {
      "channel": 1,
      "note": 45,
      "start": 19.6333,
      "duration": 0.5182,
      "velocity": 107,
      "chip": "ym2612"
    },
    {
      "channel": 1,
      "note": 45,
      "start": 20.2017,
      "duration": 0.3647,
      "velocity": 107,
      "chip": "ym2612"
    },
    {
      "channel": 1,
      "note": 45,
      "start": 20.6167,
      "duration": 0.5095,
      "velocity": 107,
      "chip": "ym2612"
    },
    {
      "channel": 0,
      "note": 84,
      "start": 21.1762,
      "duration": 0.2188,
      "velocity": 107,
      "chip": "ym2612"
    },
    {
      "channel": 1,
      "note": 45,
      "start": 21.1765,
      "duration": 0.5188,
      "velocity": 107,
      "chip": "ym2612"
    },
    {
      "channel": 2,
      "note": 81,
      "start": 21.1772,
      "duration": 2.0527,
      "velocity": 91,
      "chip": "ym2612"
    },
    {
      "channel": 3,
      "note": 72,
      "start": 21.1773,
      "duration": 2.0527,
      "velocity": 91,
      "chip": "ym2612"
    },
    {
      "channel": 4,
      "note": 77,
      "start": 21.1773,
      "duration": 2.0527,
      "velocity": 91,
      "chip": "ym2612"
    },
    {
      "channel": 0,
      "note": 83,
      "start": 21.4453,
      "duration": 0.2497,
      "velocity": 107,
      "chip": "ym2612"
    },
    {
      "channel": 0,
      "note": 84,
      "start": 21.7452,
      "duration": 0.2094,
      "velocity": 107,
      "chip": "ym2612"
    },
    {
      "channel": 1,
      "note": 45,
      "start": 21.7455,
      "duration": 0.5094,
      "velocity": 107,
      "chip": "ym2612"
    },
    {
      "channel": 0,
      "note": 83,
      "start": 22.0049,
      "duration": 0.2497,
      "velocity": 107,
      "chip": "ym2612"
    },
    {
      "channel": 0,
      "note": 81,
      "start": 22.305,
      "duration": 0.3648,
      "velocity": 107,
      "chip": "ym2612"
    },
    {
      "channel": 1,
      "note": 45,
      "start": 22.3053,
      "duration": 0.3648,
      "velocity": 107,
      "chip": "ym2612"
    },
    {
      "channel": 0,
      "note": 79,
      "start": 22.72,
      "duration": 0.5094,
      "velocity": 107,
      "chip": "ym2612"
    },
    {
      "channel": 1,
      "note": 45,
      "start": 22.7203,
      "duration": 0.5094,
      "velocity": 107,
      "chip": "ym2612"
    },
    {
      "channel": 0,
      "note": 81,
      "start": 23.2798,
      "duration": 2.0613,
      "velocity": 107,
      "chip": "ym2612"
    },
    {
      "channel": 1,
      "note": 45,
      "start": 23.2802,
      "duration": 0.5182,
      "velocity": 107,
      "chip": "ym2612"
    },
    {
      "channel": 2,
      "note": 76,
      "start": 23.281,
      "duration": 2.0606,
      "velocity": 91,
      "chip": "ym2612"
    },
    {
      "channel": 3,
      "note": 73,
      "start": 23.281,
      "duration": 2.0606,
      "velocity": 91,
      "chip": "ym2612"
    },
    {
      "channel": 4,
      "note": 69,
      "start": 23.281,
      "duration": 2.0607,
      "velocity": 91,
      "chip": "ym2612"
    },
    {
      "channel": 1,
      "note": 45,
      "start": 23.8487,
      "duration": 0.5181,
      "velocity": 107,
      "chip": "ym2612"
    },
    {
      "channel": 1,
      "note": 45,
      "start": 24.4171,
      "duration": 0.3647,
      "velocity": 107,
      "chip": "ym2612"
    },
    {
      "channel": 1,
      "note": 45,
      "start": 24.832,
      "duration": 0.5095,
      "velocity": 107,
      "chip": "ym2612"
    },
    {
      "channel": 0,
      "note": 83,
      "start": 25.3916,
      "duration": 0.7781,
      "velocity": 107,
      "chip": "ym2612"
    },
    {
      "channel": 1,
      "note": 45,
      "start": 25.392,
      "duration": 0.5183,
      "velocity": 107,
      "chip": "ym2612"
    },
    {
      "channel": 2,
      "note": 76,
      "start": 25.3928,
      "duration": 2.0522,
      "velocity": 91,
      "chip": "ym2612"
    },
    {
      "channel": 3,
      "note": 67,
      "start": 25.3929,
      "duration": 2.0521,
      "velocity": 91,
      "chip": "ym2612"
    },
    {
      "channel": 4,
      "note": 71,
      "start": 25.3929,
      "duration": 2.0521,
      "velocity": 91,
      "chip": "ym2612"
    },
    {
      "channel": 1,
      "note": 45,
      "start": 25.9606,
      "duration": 0.5094,
      "velocity": 107,
      "chip": "ym2612"
    },
    {
      "channel": 0,
      "note": 76,
      "start": 26.22,
      "duration": 0.2497,
      "velocity": 107,
      "chip": "ym2612"
    },
    {
      "channel": 0,
      "note": 76,
      "start": 26.5202,
      "duration": 1.2433,
      "velocity": 107,
      "chip": "ym2612"
    },
    {
      "channel": 1,
      "note": 45,
      "start": 26.5205,
      "duration": 0.3647,
      "velocity": 107,
      "chip": "ym2612"
    },
    {
      "channel": 1,
      "note": 45,
      "start": 26.9354,
      "duration": 0.5094,
      "velocity": 107,
      "chip": "ym2612"
    },
    {
      "channel": 1,
      "note": 45,
      "start": 27.495,
      "duration": 0.5188,
      "velocity": 107,
      "chip": "ym2612"
    },
    {
      "channel": 2,
      "note": 79,
      "start": 27.4957,
      "duration": 2.0613,
      "velocity": 91,
      "chip": "ym2612"
    },
    {
      "channel": 3,
      "note": 76,
      "start": 27.4958,
      "duration": 2.0613,
      "velocity": 91,
      "chip": "ym2612"
    },
    {
      "channel": 4,
      "note": 72,
      "start": 27.4958,
      "duration": 2.0614,
      "velocity": 91,
      "chip": "ym2612"
    },
    {
      "channel": 0,
      "note": 79,
      "start": 27.7638,
      "duration": 0.2497,
      "velocity": 107,
      "chip": "ym2612"
    },
    {
      "channel": 0,
      "note": 81,
      "start": 28.0637,
      "duration": 0.2182,
      "velocity": 107,
      "chip": "ym2612"
    },
    {
      "channel": 1,
      "note": 45,
      "start": 28.0641,
      "duration": 0.5181,
      "velocity": 107,
      "chip": "ym2612"
    },
    {
      "channel": 0,
      "note": 83,
      "start": 28.3322,
      "duration": 0.2497,
      "velocity": 107,
      "chip": "ym2612"
    },
    {
      "channel": 0,
      "note": 81,
      "start": 28.6322,
      "duration": 0.3647,
      "velocity": 107,
      "chip": "ym2612"
    },
    {
      "channel": 1,
      "note": 45,
      "start": 28.6325,
      "duration": 0.3647,
      "velocity": 107,
      "chip": "ym2612"
    },
    {
      "channel": 0,
      "note": 79,
      "start": 29.0471,
      "duration": 0.5094,
      "velocity": 107,
      "chip": "ym2612"
    },
    {
      "channel": 1,
      "note": 45,
      "start": 29.0475,
      "duration": 0.5094,
      "velocity": 107,
      "chip": "ym2612"
    },
    {
      "channel": 0,
      "note": 74,
      "start": 29.6069,
      "duration": 0.7784,
      "velocity": 107,
      "chip": "ym2612"
    },
    {
      "channel": 1,
      "note": 45,
      "start": 29.6072,
      "duration": 0.5186,
      "velocity": 107,
      "chip": "ym2612"
    },
    {
      "channel": 2,
      "note": 81,
      "start": 29.608,
      "duration": 3.5732,
      "velocity": 91,
      "chip": "ym2612"
    },
    {
      "channel": 3,
      "note": 74,
      "start": 29.608,
      "duration": 3.5732,
      "velocity": 91,
      "chip": "ym2612"
    },
    {
      "channel": 4,
      "note": 78,
      "start": 29.6081,
      "duration": 3.5732,
      "velocity": 91,
      "chip": "ym2612"
    },
    {
      "channel": 1,
      "note": 45,
      "start": 30.1761,
      "duration": 0.5094,
      "velocity": 107,
      "chip": "ym2612"
    },
    {
      "channel": 0,
      "note": 76,
      "start": 30.4356,
      "duration": 1.2243,
      "velocity": 107,
      "chip": "ym2612"
    },
    {
      "channel": 1,
      "note": 45,
      "start": 30.7358,
      "duration": 0.3647,
      "velocity": 107,
      "chip": "ym2612"
    },
    {
      "channel": 1,
      "note": 45,
      "start": 31.1508,
      "duration": 0.5095,
      "velocity": 107,
      "chip": "ym2612"
    },
    {
      "channel": 0,
      "note": 76,
      "start": 33.1754,
      "duration": 1.0779,
      "velocity": 107,
      "chip": "ym2612"
    },
    {
      "channel": 1,
      "note": 45,
      "start": 33.177,
      "duration": 0.5169,
      "velocity": 107,
      "chip": "ym2612"
    },
    {
      "channel": 2,
      "note": 81,
      "start": 33.1819,
      "duration": 2.0466,
      "velocity": 91,
      "chip": "ym2612"
    },
    {
      "channel": 3,
      "note": 74,
      "start": 33.182,
      "duration": 2.0466,
      "velocity": 91,
      "chip": "ym2612"
    },
    {
      "channel": 4,
      "note": 78,
      "start": 33.182,
      "duration": 2.0466,
      "velocity": 91,
      "chip": "ym2612"
    },
    {
      "channel": 1,
      "note": 45,
      "start": 33.7441,
      "duration": 0.5095,
      "velocity": 107,
      "chip": "ym2612"
    },
    {
      "channel": 0,
      "note": 88,
      "start": 34.3036,
      "duration": 0.9244,
      "velocity": 107,
      "chip": "ym2612"
    },
    {
      "channel": 1,
      "note": 45,
      "start": 34.3039,
      "duration": 0.3647,
      "velocity": 107,
      "chip": "ym2612"
    },
    {
      "channel": 1,
      "note": 45,
      "start": 34.7189,
      "duration": 0.5095,
      "velocity": 107,
      "chip": "ym2612"
    },
    {
      "channel": 0,
      "note": 83,
      "start": 35.2784,
      "duration": 2.0614,
      "velocity": 107,
      "chip": "ym2612"
    },
    {
      "channel": 1,
      "note": 45,
      "start": 35.2788,
      "duration": 0.5182,
      "velocity": 107,
      "chip": "ym2612"
    },
    {
      "channel": 2,
      "note": 83,
      "start": 35.2795,
      "duration": 2.0607,
      "velocity": 91,
      "chip": "ym2612"
    },
    {
      "channel": 3,
      "note": 80,
      "start": 35.2796,
      "duration": 2.0607,
      "velocity": 91,
      "chip": "ym2612"
    },
    {
      "channel": 4,
      "note": 76,
      "start": 35.2796,
      "duration": 2.0608,
      "velocity": 91,
      "chip": "ym2612"
    },
    {
      "channel": 1,
      "note": 45,
      "start": 35.8473,
      "duration": 0.5182,
      "velocity": 107,
      "chip": "ym2612"
    },
    {
      "channel": 1,
      "note": 45,
      "start": 36.4157,
      "duration": 0.3647,
      "velocity": 107,
      "chip": "ym2612"
    },
    {
      "channel": 1,
      "note": 45,
      "start": 36.8307,
      "duration": 0.5095,
      "velocity": 107,
      "chip": "ym2612"
    }
  ]
}