{
  "track_name": "18 - Unused (Sound Test 19)",
  "duration_sec": 44.182,
  "sample_rate": 44100,
  "note_count": 525,
  "unique_pitches": 33,
  "pitch_range": 60,
  "avg_note_duration": 0.1859,
  "reconstruction_stats": {
    "notes_reconstructed": 525,
    "keyon_events": 525,
    "keyoff_events": 521,
    "orphan_keyons": 4,
    "unique_pitches": 33,
    "pitch_range": 60,
    "avg_duration_sec": 0.1859
  },
  "metadata": {
    "source": "E\\Ecco the Dolphin\\18 - Unused (Sound Test 19).vgz"
  },
  "notes": [
    {
      "channel": 0,
      "note": 45,
      "start": 0.0,
      "duration": 0.1453,
      "velocity": 99,
      "chip": "ym2612"
    },
    {
      "channel": 1,
      "note": 91,
      "start": 0.0111,
      "duration": 0.0773,
      "velocity": 96,
      "chip": "ym2612"
    },
    {
      "channel": 2,
      "note": 88,
      "start": 0.0222,
      "duration": 0.0665,
      "velocity": 96,
      "chip": "ym2612"
    },
    {
      "channel": 4,
      "note": 69,
      "start": 0.0284,
      "duration": 1.805,
      "velocity": 88,
      "chip": "ym2612"
    },
    {
      "channel": 1,
      "note": 91,
      "start": 0.24,
      "duration": 0.0759,
      "velocity": 96,
      "chip": "ym2612"
    },
    {
      "channel": 2,
      "note": 88,
      "start": 0.2404,
      "duration": 0.0759,
      "velocity": 96,
      "chip": "ym2612"
    },
    {
      "channel": 1,
      "note": 91,
      "start": 0.4676,
      "duration": 0.0758,
      "velocity": 96,
      "chip": "ym2612"
    },
    {
      "channel": 2,
      "note": 88,
      "start": 0.4679,
      "duration": 0.0758,
      "velocity": 96,
      "chip": "ym2612"
    },
    {
      "channel": 5,
      "note": 45,
      "start": 0.4786,
      "duration": 0.1976,
      "velocity": 116,
      "chip": "ym2612"
    },
    {
      "channel": 0,
      "note": 45,
      "start": 0.6951,
      "duration": 0.1327,
      "velocity": 99,
      "chip": "ym2612"
    },
    {
      "channel": 1,
      "note": 91,
      "start": 0.6954,
      "duration": 0.0756,
      "velocity": 96,
      "chip": "ym2612"
    },
    {
      "channel": 2,
      "note": 88,
      "start": 0.6957,
      "duration": 0.0756,
      "velocity": 96,
      "chip": "ym2612"
    },
    {
      "channel": 1,
      "note": 90,
      "start": 0.9231,
      "duration": 0.0754,
      "velocity": 96,
      "chip": "ym2612"
    },
    {
      "channel": 2,
      "note": 86,
      "start": 0.9237,
      "duration": 0.0751,
      "velocity": 96,
      "chip": "ym2612"
    },
    {
      "channel": 0,
      "note": 45,
      "start": 1.1502,
      "duration": 0.1327,
      "velocity": 99,
      "chip": "ym2612"
    },
    {
      "channel": 0,
      "note": 57,
      "start": 1.378,
      "duration": 0.0945,
      "velocity": 99,
      "chip": "ym2612"
    },
    {
      "channel": 1,
      "note": 90,
      "start": 1.3783,
      "duration": 0.0752,
      "velocity": 96,
      "chip": "ym2612"
    },
    {
      "channel": 2,
      "note": 86,
      "start": 1.3787,
      "duration": 0.0752,
      "velocity": 96,
      "chip": "ym2612"
    },
    {
      "channel": 5,
      "note": 45,
      "start": 1.379,
      "duration": 0.2073,
      "velocity": 116,
      "chip": "ym2612"
    },
    {
      "channel": 0,
      "note": 57,
      "start": 1.6052,
      "duration": 0.1137,
      "velocity": 99,
      "chip": "ym2612"
    },
    {
      "channel": 1,
      "note": 88,
      "start": 1.6058,
      "duration": 0.0752,
      "velocity": 96,
      "chip": "ym2612"
    },
    {
      "channel": 2,
      "note": 84,
      "start": 1.6066,
      "duration": 0.0747,
      "velocity": 96,
      "chip": "ym2612"
    },
    {
      "channel": 0,
      "note": 45,
      "start": 1.8331,
      "duration": 0.1893,
      "velocity": 99,
      "chip": "ym2612"
    },
    {
      "channel": 4,
      "note": 81,
      "start": 1.8521,
      "duration": 1.8027,
      "velocity": 88,
      "chip": "ym2612"
    },
    {
      "channel": 1,
      "note": 88,
      "start": 2.0602,
      "duration": 0.0759,
      "velocity": 96,
      "chip": "ym2612"
    },
    {
      "channel": 2,
      "note": 84,
      "start": 2.0605,
      "duration": 0.0759,
      "velocity": 96,
      "chip": "ym2612"
    },
    {
      "channel": 1,
      "note": 84,
      "start": 2.2881,
      "duration": 0.0755,
      "velocity": 96,
      "chip": "ym2612"
    },
    {
      "channel": 2,
      "note": 81,
      "start": 2.2888,
      "duration": 0.0751,
      "velocity": 96,
      "chip": "ym2612"
    },
    {
      "channel": 5,
      "note": 45,
      "start": 2.2891,
      "duration": 0.2073,
      "velocity": 116,
      "chip": "ym2612"
    },
    {
      "channel": 0,
      "note": 45,
      "start": 2.5152,
      "duration": 0.1328,
      "velocity": 99,
      "chip": "ym2612"
    },
    {
      "channel": 0,
      "note": 45,
      "start": 2.9703,
      "duration": 0.1327,
      "velocity": 99,
      "chip": "ym2612"
    },
    {
      "channel": 0,
      "note": 57,
      "start": 3.1982,
      "duration": 0.0945,
      "velocity": 99,
      "chip": "ym2612"
    },
    {
      "channel": 5,
      "note": 45,
      "start": 3.1985,
      "duration": 0.208,
      "velocity": 116,
      "chip": "ym2612"
    },
    {
      "channel": 0,
      "note": 57,
      "start": 3.4254,
      "duration": 0.1137,
      "velocity": 99,
      "chip": "ym2612"
    },
    {
      "channel": 0,
      "note": 45,
      "start": 3.6532,
      "duration": 0.1703,
      "velocity": 99,
      "chip": "ym2612"
    },
    {
      "channel": 1,
      "note": 91,
      "start": 3.6539,
      "duration": 0.0749,
      "velocity": 96,
      "chip": "ym2612"
    },
    {
      "channel": 2,
      "note": 88,
      "start": 3.6545,
      "duration": 0.0746,
      "velocity": 96,
      "chip": "ym2612"
    },
    {
      "channel": 4,
      "note": 79,
      "start": 3.6555,
      "duration": 1.3641,
      "velocity": 88,
      "chip": "ym2612"
    },
    {
      "channel": 1,
      "note": 91,
      "start": 3.8805,
      "duration": 0.0758,
      "velocity": 96,
      "chip": "ym2612"
    },
    {
      "channel": 2,
      "note": 88,
      "start": 3.8808,
      "duration": 0.076,
      "velocity": 96,
      "chip": "ym2612"
    },
    {
      "channel": 1,
      "note": 91,
      "start": 4.1079,
      "duration": 0.0758,
      "velocity": 96,
      "chip": "ym2612"
    },
    {
      "channel": 2,
      "note": 88,
      "start": 4.1083,
      "duration": 0.0758,
      "velocity": 96,
      "chip": "ym2612"
    },
    {
      "channel": 5,
      "note": 45,
      "start": 4.1086,
      "duration": 0.2079,
      "velocity": 116,
      "chip": "ym2612"
    },
    {
      "channel": 0,
      "note": 45,
      "start": 4.3355,
      "duration": 0.1517,
      "velocity": 99,
      "chip": "ym2612"
    },
    {
      "channel": 1,
      "note": 91,
      "start": 4.3358,
      "duration": 0.0755,
      "velocity": 96,
      "chip": "ym2612"
    },
    {
      "channel": 2,
      "note": 88,
      "start": 4.3361,
      "duration": 0.0755,
      "velocity": 96,
      "chip": "ym2612"
    },
    {
      "channel": 1,
      "note": 90,
      "start": 4.5633,
      "duration": 0.0755,
      "velocity": 96,
      "chip": "ym2612"
    },
    {
      "channel": 2,
      "note": 86,
      "start": 4.564,
      "duration": 0.0752,
      "velocity": 96,
      "chip": "ym2612"
    },
    {
      "channel": 0,
      "note": 45,
      "start": 4.7905,
      "duration": 0.1328,
      "velocity": 99,
      "chip": "ym2612"
    },
    {
      "channel": 0,
      "note": 57,
      "start": 5.0184,
      "duration": 0.1134,
      "velocity": 99,
      "chip": "ym2612"
    },
    {
      "channel": 1,
      "note": 90,
      "start": 5.0187,
      "duration": 0.0752,
      "velocity": 96,
      "chip": "ym2612"
    },
    {
      "channel": 2,
      "note": 86,
      "start": 5.019,
      "duration": 0.0752,
      "velocity": 96,
      "chip": "ym2612"
    },
    {
      "channel": 5,
      "note": 45,
      "start": 5.0193,
      "duration": 0.2073,
      "velocity": 116,
      "chip": "ym2612"
    },
    {
      "channel": 4,
      "note": 78,
      "start": 5.0203,
      "duration": 0.2268,
      "velocity": 88,
      "chip": "ym2612"
    },
    {
      "channel": 0,
      "note": 57,
      "start": 5.2455,
      "duration": 0.1138,
      "velocity": 99,
      "chip": "ym2612"
    },
    {
      "channel": 1,
      "note": 88,
      "start": 5.2462,
      "duration": 0.0752,
      "velocity": 96,
      "chip": "ym2612"
    },
    {
      "channel": 2,
      "note": 84,
      "start": 5.2469,
      "duration": 0.0749,
      "velocity": 96,
      "chip": "ym2612"
    },
    {
      "channel": 4,
      "note": 76,
      "start": 5.2478,
      "duration": 0.226,
      "velocity": 88,
      "chip": "ym2612"
    },
    {
      "channel": 0,
      "note": 45,
      "start": 5.4734,
      "duration": 0.1892,
      "velocity": 99,
      "chip": "ym2612"
    },
    {
      "channel": 4,
      "note": 78,
      "start": 5.4745,
      "duration": 1.3647,
      "velocity": 88,
      "chip": "ym2612"
    },
    {
      "channel": 1,
      "note": 88,
      "start": 5.7006,
      "duration": 0.0758,
      "velocity": 96,
      "chip": "ym2612"
    },
    {
      "channel": 2,
      "note": 84,
      "start": 5.7009,
      "duration": 0.0758,
      "velocity": 96,
      "chip": "ym2612"
    },
    {
      "channel": 1,
      "note": 84,
      "start": 5.9285,
      "duration": 0.0755,
      "velocity": 96,
      "chip": "ym2612"
    },
    {
      "channel": 2,
      "note": 81,
      "start": 5.9291,
      "duration": 0.0752,
      "velocity": 96,
      "chip": "ym2612"
    },
    {
      "channel": 5,
      "note": 45,
      "start": 5.9294,
      "duration": 0.2073,
      "velocity": 116,
      "chip": "ym2612"
    },
    {
      "channel": 0,
      "note": 45,
      "start": 6.1556,
      "duration": 0.1517,
      "velocity": 99,
      "chip": "ym2612"
    },
    {
      "channel": 0,
      "note": 45,
      "start": 6.6107,
      "duration": 0.1328,
      "velocity": 99,
      "chip": "ym2612"
    },
    {
      "channel": 0,
      "note": 57,
      "start": 6.8385,
      "duration": 0.1134,
      "velocity": 99,
      "chip": "ym2612"
    },
    {
      "channel": 5,
      "note": 45,
      "start": 6.8389,
      "duration": 0.2079,
      "velocity": 116,
      "chip": "ym2612"
    },
    {
      "channel": 4,
      "note": 76,
      "start": 6.84,
      "duration": 0.2261,
      "velocity": 88,
      "chip": "ym2612"
    },
    {
      "channel": 0,
      "note": 57,
      "start": 7.0657,
      "duration": 0.1328,
      "velocity": 99,
      "chip": "ym2612"
    },
    {
      "channel": 4,
      "note": 74,
      "start": 7.0667,
      "duration": 0.1886,
      "velocity": 88,
      "chip": "ym2612"
    },
    {
      "channel": 0,
      "note": 45,
      "start": 7.2936,
      "duration": 0.1703,
      "velocity": 99,
      "chip": "ym2612"
    },
    {
      "channel": 1,
      "note": 91,
      "start": 7.2942,
      "duration": 0.0749,
      "velocity": 96,
      "chip": "ym2612"
    },
    {
      "channel": 2,
      "note": 88,
      "start": 7.2948,
      "duration": 0.0746,
      "velocity": 96,
      "chip": "ym2612"
    },
    {
      "channel": 4,
      "note": 76,
      "start": 7.2955,
      "duration": 0.6812,
      "velocity": 88,
      "chip": "ym2612"
    },
    {
      "channel": 1,
      "note": 91,
      "start": 7.5208,
      "duration": 0.0758,
      "velocity": 96,
      "chip": "ym2612"
    },
    {
      "channel": 2,
      "note": 88,
      "start": 7.5211,
      "duration": 0.0758,
      "velocity": 96,
      "chip": "ym2612"
    },
    {
      "channel": 1,
      "note": 91,
      "start": 7.7483,
      "duration": 0.0759,
      "velocity": 96,
      "chip": "ym2612"
    },
    {
      "channel": 2,
      "note": 88,
      "start": 7.7486,
      "duration": 0.0759,
      "velocity": 96,
      "chip": "ym2612"
    },
    {
      "channel": 5,
      "note": 45,
      "start": 7.749,
      "duration": 0.208,
      "velocity": 116,
      "chip": "ym2612"
    },
    {
      "channel": 0,
      "note": 45,
      "start": 7.9758,
      "duration": 0.1896,
      "velocity": 99,
      "chip": "ym2612"
    },
    {
      "channel": 1,
      "note": 91,
      "start": 7.9761,
      "duration": 0.0755,
      "velocity": 96,
      "chip": "ym2612"
    },
    {
      "channel": 2,
      "note": 88,
      "start": 7.9764,
      "duration": 0.0755,
      "velocity": 96,
      "chip": "ym2612"
    },
    {
      "channel": 4,
      "note": 69,
      "start": 7.9775,
      "duration": 2.9574,
      "velocity": 88,
      "chip": "ym2612"
    },
    {
      "channel": 1,
      "note": 90,
      "start": 8.2037,
      "duration": 0.0755,
      "velocity": 96,
      "chip": "ym2612"
    },
    {
      "channel": 2,
      "note": 86,
      "start": 8.2044,
      "duration": 0.0751,
      "velocity": 96,
      "chip": "ym2612"
    },
    {
      "channel": 0,
      "note": 45,
      "start": 8.4308,
      "duration": 0.1517,
      "velocity": 99,
      "chip": "ym2612"
    },
    {
      "channel": 0,
      "note": 57,
      "start": 8.6587,
      "duration": 0.1134,
      "velocity": 99,
      "chip": "ym2612"
    },
    {
      "channel": 1,
      "note": 90,
      "start": 8.659,
      "duration": 0.0752,
      "velocity": 96,
      "chip": "ym2612"
    },
    {
      "channel": 2,
      "note": 86,
      "start": 8.6593,
      "duration": 0.0752,
      "velocity": 96,
      "chip": "ym2612"
    },
    {
      "channel": 5,
      "note": 45,
      "start": 8.6597,
      "duration": 0.2073,
      "velocity": 116,
      "chip": "ym2612"
    },
    {
      "channel": 0,
      "note": 57,
      "start": 8.8859,
      "duration": 0.1328,
      "velocity": 99,
      "chip": "ym2612"
    },
    {
      "channel": 1,
      "note": 88,
      "start": 8.8866,
      "duration": 0.0752,
      "velocity": 96,
      "chip": "ym2612"
    },
    {
      "channel": 2,
      "note": 84,
      "start": 8.8872,
      "duration": 0.0749,
      "velocity": 96,
      "chip": "ym2612"
    },
    {
      "channel": 0,
      "note": 45,
      "start": 9.1137,
      "duration": 0.1893,
      "velocity": 99,
      "chip": "ym2612"
    },
    {
      "channel": 1,
      "note": 88,
      "start": 9.341,
      "duration": 0.0758,
      "velocity": 96,
      "chip": "ym2612"
    },
    {
      "channel": 2,
      "note": 84,
      "start": 9.3413,
      "duration": 0.0758,
      "velocity": 96,
      "chip": "ym2612"
    },
    {
      "channel": 1,
      "note": 84,
      "start": 9.5688,
      "duration": 0.0755,
      "velocity": 96,
      "chip": "ym2612"
    },
    {
      "channel": 2,
      "note": 81,
      "start": 9.5694,
      "duration": 0.0752,
      "velocity": 96,
      "chip": "ym2612"
    },
    {
      "channel": 5,
      "note": 45,
      "start": 9.5698,
      "duration": 0.1314,
      "velocity": 116,
      "chip": "ym2612"
    },
    {
      "channel": 0,
      "note": 45,
      "start": 9.796,
      "duration": 0.1517,
      "velocity": 99,
      "chip": "ym2612"
    },
    {
      "channel": 0,
      "note": 45,
      "start": 10.251,
      "duration": 0.1328,
      "velocity": 99,
      "chip": "ym2612"
    },
    {
      "channel": 0,
      "note": 57,
      "start": 10.4789,
      "duration": 0.1134,
      "velocity": 99,
      "chip": "ym2612"
    },
    {
      "channel": 1,
      "note": 93,
      "start": 10.4795,
      "duration": 0.0748,
      "velocity": 96,
      "chip": "ym2612"
    },
    {
      "channel": 2,
      "note": 88,
      "start": 10.4802,
      "duration": 0.0745,
      "velocity": 96,
      "chip": "ym2612"
    },
    {
      "channel": 5,
      "note": 45,
      "start": 10.4805,
      "duration": 0.1308,
      "velocity": 116,
      "chip": "ym2612"
    },
    {
      "channel": 0,
      "note": 57,
      "start": 10.7061,
      "duration": 0.1327,
      "velocity": 99,
      "chip": "ym2612"
    },
    {
      "channel": 1,
      "note": 93,
      "start": 10.7065,
      "duration": 0.0754,
      "velocity": 96,
      "chip": "ym2612"
    },
    {
      "channel": 2,
      "note": 88,
      "start": 10.7068,
      "duration": 0.0754,
      "velocity": 96,
      "chip": "ym2612"
    },
    {
      "channel": 0,
      "note": 45,
      "start": 10.9339,
      "duration": 0.2272,
      "velocity": 99,
      "chip": "ym2612"
    },
    {
      "channel": 1,
      "note": 93,
      "start": 10.9343,
      "duration": 0.0752,
      "velocity": 96,
      "chip": "ym2612"
    },
    {
      "channel": 2,
      "note": 88,
      "start": 10.9346,
      "duration": 0.0752,
      "velocity": 96,
      "chip": "ym2612"
    },
    {
      "channel": 4,
      "note": 74,
      "start": 10.9356,
      "duration": 1.8194,
      "velocity": 88,
      "chip": "ym2612"
    },
    {
      "channel": 3,
      "note": 105,
      "start": 11.057,
      "duration": 0.105,
      "velocity": 123,
      "chip": "ym2612"
    },
    {
      "channel": 1,
      "note": 93,
      "start": 11.1614,
      "duration": 0.0755,
      "velocity": 96,
      "chip": "ym2612"
    },
    {
      "channel": 2,
      "note": 88,
      "start": 11.1617,
      "duration": 0.0755,
      "velocity": 96,
      "chip": "ym2612"
    },
    {
      "channel": 3,
      "note": 103,
      "start": 11.1627,
      "duration": 0.1122,
      "velocity": 123,
      "chip": "ym2612"
    },
    {
      "channel": 3,
      "note": 98,
      "start": 11.2756,
      "duration": 0.0752,
      "velocity": 123,
      "chip": "ym2612"
    },
    {
      "channel": 5,
      "note": 45,
      "start": 11.3887,
      "duration": 0.1327,
      "velocity": 116,
      "chip": "ym2612"
    },
    {
      "channel": 3,
      "note": 93,
      "start": 11.3893,
      "duration": 0.0751,
      "velocity": 123,
      "chip": "ym2612"
    },
    {
      "channel": 3,
      "note": 91,
      "start": 11.5028,
      "duration": 0.1137,
      "velocity": 123,
      "chip": "ym2612"
    },
    {
      "channel": 0,
      "note": 45,
      "start": 11.6161,
      "duration": 0.1517,
      "velocity": 99,
      "chip": "ym2612"
    },
    {
      "channel": 3,
      "note": 86,
      "start": 11.6171,
      "duration": 0.0938,
      "velocity": 123,
      "chip": "ym2612"
    },
    {
      "channel": 3,
      "note": 93,
      "start": 11.7303,
      "duration": 0.1134,
      "velocity": 123,
      "chip": "ym2612"
    },
    {
      "channel": 3,
      "note": 91,
      "start": 11.8444,
      "duration": 0.1131,
      "velocity": 123,
      "chip": "ym2612"
    },
    {
      "channel": 3,
      "note": 86,
      "start": 11.9582,
      "duration": 0.1133,
      "velocity": 123,
      "chip": "ym2612"
    },
    {
      "channel": 0,
      "note": 45,
      "start": 12.0712,
      "duration": 0.1328,
      "velocity": 99,
      "chip": "ym2612"
    },
    {
      "channel": 3,
      "note": 81,
      "start": 12.0722,
      "duration": 0.1128,
      "velocity": 123,
      "chip": "ym2612"
    },
    {
      "channel": 3,
      "note": 91,
      "start": 12.1857,
      "duration": 0.1147,
      "velocity": 123,
      "chip": "ym2612"
    },
    {
      "channel": 0,
      "note": 57,
      "start": 12.299,
      "duration": 0.1134,
      "velocity": 99,
      "chip": "ym2612"
    },
    {
      "channel": 1,
      "note": 93,
      "start": 12.2994,
      "duration": 0.0751,
      "velocity": 96,
      "chip": "ym2612"
    },
    {
      "channel": 2,
      "note": 88,
      "start": 12.2997,
      "duration": 0.0751,
      "velocity": 96,
      "chip": "ym2612"
    },
    {
      "channel": 5,
      "note": 45,
      "start": 12.3,
      "duration": 0.1314,
      "velocity": 116,
      "chip": "ym2612"
    },
    {
      "channel": 3,
      "note": 86,
      "start": 12.3011,
      "duration": 0.0925,
      "velocity": 123,
      "chip": "ym2612"
    },
    {
      "channel": 3,
      "note": 81,
      "start": 12.4132,
      "duration": 0.0752,
      "velocity": 123,
      "chip": "ym2612"
    },
    {
      "channel": 0,
      "note": 57,
      "start": 12.5263,
      "duration": 0.1327,
      "velocity": 99,
      "chip": "ym2612"
    },
    {
      "channel": 3,
      "note": 79,
      "start": 12.5269,
      "duration": 0.1132,
      "velocity": 123,
      "chip": "ym2612"
    },
    {
      "channel": 3,
      "note": 74,
      "start": 12.6407,
      "duration": 0.0941,
      "velocity": 123,
      "chip": "ym2612"
    },
    {
      "channel": 0,
      "note": 45,
      "start": 12.7541,
      "duration": 0.1893,
      "velocity": 99,
      "chip": "ym2612"
    },
    {
      "channel": 1,
      "note": 93,
      "start": 12.7544,
      "duration": 0.0752,
      "velocity": 96,
      "chip": "ym2612"
    },
    {
      "channel": 2,
      "note": 88,
      "start": 12.7547,
      "duration": 0.0752,
      "velocity": 96,
      "chip": "ym2612"
    },
    {
      "channel": 4,
      "note": 79,
      "start": 12.7557,
      "duration": 1.7993,
      "velocity": 88,
      "chip": "ym2612"
    },
    {
      "channel": 3,
      "note": 81,
      "start": 12.7565,
      "duration": 0.1111,
      "velocity": 123,
      "chip": "ym2612"
    },
    {
      "channel": 3,
      "note": 79,
      "start": 12.8682,
      "duration": 0.1137,
      "velocity": 123,
      "chip": "ym2612"
    },
    {
      "channel": 1,
      "note": 93,
      "start": 12.9813,
      "duration": 0.0758,
      "velocity": 96,
      "chip": "ym2612"
    },
    {
      "channel": 2,
      "note": 88,
      "start": 12.9816,
      "duration": 0.0758,
      "velocity": 96,
      "chip": "ym2612"
    },
    {
      "channel": 3,
      "note": 74,
      "start": 12.9826,
      "duration": 0.1125,
      "velocity": 123,
      "chip": "ym2612"
    },
    {
      "channel": 3,
      "note": 69,
      "start": 13.0958,
      "duration": 0.1134,
      "velocity": 123,
      "chip": "ym2612"
    },
    {
      "channel": 5,
      "note": 45,
      "start": 13.2088,
      "duration": 0.1328,
      "velocity": 116,
      "chip": "ym2612"
    },
    {
      "channel": 3,
      "note": 79,
      "start": 13.2098,
      "duration": 0.1127,
      "velocity": 123,
      "chip": "ym2612"
    },
    {
      "channel": 3,
      "note": 74,
      "start": 13.3233,
      "duration": 0.1133,
      "velocity": 123,
      "chip": "ym2612"
    },
    {
      "channel": 0,
      "note": 45,
      "start": 13.4363,
      "duration": 0.1707,
      "velocity": 99,
      "chip": "ym2612"
    },
    {
      "channel": 3,
      "note": 69,
      "start": 13.4373,
      "duration": 0.0938,
      "velocity": 123,
      "chip": "ym2612"
    },
    {
      "channel": 3,
      "note": 67,
      "start": 13.5504,
      "duration": 0.1134,
      "velocity": 123,
      "chip": "ym2612"
    },
    {
      "channel": 3,
      "note": 62,
      "start": 13.6645,
      "duration": 0.1131,
      "velocity": 123,
      "chip": "ym2612"
    },
    {
      "channel": 3,
      "note": 69,
      "start": 13.7783,
      "duration": 0.1134,
      "velocity": 123,
      "chip": "ym2612"
    },
    {
      "channel": 0,
      "note": 45,
      "start": 13.8914,
      "duration": 0.1517,
      "velocity": 99,
      "chip": "ym2612"
    },
    {
      "channel": 3,
      "note": 67,
      "start": 13.8923,
      "duration": 0.1128,
      "velocity": 123,
      "chip": "ym2612"
    },
    {
      "channel": 3,
      "note": 62,
      "start": 14.0058,
      "duration": 0.0941,
      "velocity": 123,
      "chip": "ym2612"
    },
    {
      "channel": 0,
      "note": 57,
      "start": 14.1192,
      "duration": 0.1135,
      "velocity": 99,
      "chip": "ym2612"
    },
    {
      "channel": 5,
      "note": 45,
      "start": 14.1196,
      "duration": 0.1321,
      "velocity": 116,
      "chip": "ym2612"
    },
    {
      "channel": 3,
      "note": 57,
      "start": 14.1202,
      "duration": 0.0935,
      "velocity": 123,
      "chip": "ym2612"
    },
    {
      "channel": 3,
      "note": 55,
      "start": 14.2333,
      "duration": 0.1134,
      "velocity": 123,
      "chip": "ym2612"
    },
    {
      "channel": 0,
      "note": 57,
      "start": 14.3464,
      "duration": 0.1327,
      "velocity": 99,
      "chip": "ym2612"
    },
    {
      "channel": 3,
      "note": 50,
      "start": 14.3474,
      "duration": 0.1129,
      "velocity": 123,
      "chip": "ym2612"
    },
    {
      "channel": 3,
      "note": 55,
      "start": 14.4609,
      "duration": 0.1153,
      "velocity": 123,
      "chip": "ym2612"
    },
    {
      "channel": 0,
      "note": 45,
      "start": 14.5742,
      "duration": 0.1893,
      "velocity": 99,
      "chip": "ym2612"
    },
    {
      "channel": 1,
      "note": 91,
      "start": 14.5749,
      "duration": 0.0749,
      "velocity": 96,
      "chip": "ym2612"
    },
    {
      "channel": 2,
      "note": 88,
      "start": 14.5752,
      "duration": 0.0749,
      "velocity": 96,
      "chip": "ym2612"
    },
    {
      "channel": 4,
      "note": 69,
      "start": 14.5759,
      "duration": 1.7993,
      "velocity": 88,
      "chip": "ym2612"
    },
    {
      "channel": 3,
      "note": 57,
      "start": 14.5768,
      "duration": 0.1109,
      "velocity": 123,
      "chip": "ym2612"
    },
    {
      "channel": 1,
      "note": 91,
      "start": 14.8014,
      "duration": 0.0758,
      "velocity": 96,
      "chip": "ym2612"
    },
    {
      "channel": 2,
      "note": 88,
      "start": 14.8018,
      "duration": 0.0758,
      "velocity": 96,
      "chip": "ym2612"
    },
    {
      "channel": 1,
      "note": 91,
      "start": 15.029,
      "duration": 0.0758,
      "velocity": 96,
      "chip": "ym2612"
    },
    {
      "channel": 2,
      "note": 88,
      "start": 15.0293,
      "duration": 0.0758,
      "velocity": 96,
      "chip": "ym2612"
    },
    {
      "channel": 5,
      "note": 45,
      "start": 15.0297,
      "duration": 0.1321,
      "velocity": 116,
      "chip": "ym2612"
    },
    {
      "channel": 0,
      "note": 45,
      "start": 15.2566,
      "duration": 0.1516,
      "velocity": 99,
      "chip": "ym2612"
    },
    {
      "channel": 1,
      "note": 91,
      "start": 15.2569,
      "duration": 0.0754,
      "velocity": 96,
      "chip": "ym2612"
    },
    {
      "channel": 2,
      "note": 88,
      "start": 15.2572,
      "duration": 0.0755,
      "velocity": 96,
      "chip": "ym2612"
    },
    {
      "channel": 1,
      "note": 90,
      "start": 15.4844,
      "duration": 0.0754,
      "velocity": 96,
      "chip": "ym2612"
    },
    {
      "channel": 2,
      "note": 86,
      "start": 15.485,
      "duration": 0.0751,
      "velocity": 96,
      "chip": "ym2612"
    },
    {
      "channel": 0,
      "note": 45,
      "start": 15.7116,
      "duration": 0.1327,
      "velocity": 99,
      "chip": "ym2612"
    },
    {
      "channel": 0,
      "note": 57,
      "start": 15.9394,
      "duration": 0.1134,
      "velocity": 99,
      "chip": "ym2612"
    },
    {
      "channel": 1,
      "note": 90,
      "start": 15.9398,
      "duration": 0.0751,
      "velocity": 96,
      "chip": "ym2612"
    },
    {
      "channel": 2,
      "note": 86,
      "start": 15.9401,
      "duration": 0.0751,
      "velocity": 96,
      "chip": "ym2612"
    },
    {
      "channel": 5,
      "note": 45,
      "start": 15.9404,
      "duration": 0.1314,
      "velocity": 116,
      "chip": "ym2612"
    },
    {
      "channel": 0,
      "note": 57,
      "start": 16.1666,
      "duration": 0.1327,
      "velocity": 99,
      "chip": "ym2612"
    },
    {
      "channel": 1,
      "note": 88,
      "start": 16.1672,
      "duration": 0.0752,
      "velocity": 96,
      "chip": "ym2612"
    },
    {
      "channel": 2,
      "note": 84,
      "start": 16.1678,
      "duration": 0.0749,
      "velocity": 96,
      "chip": "ym2612"
    },
    {
      "channel": 0,
      "note": 45,
      "start": 16.3944,
      "duration": 0.1704,
      "velocity": 99,
      "chip": "ym2612"
    },
    {
      "channel": 4,
      "note": 81,
      "start": 16.3951,
      "duration": 1.8002,
      "velocity": 88,
      "chip": "ym2612"
    },
    {
      "channel": 1,
      "note": 88,
      "start": 16.6216,
      "duration": 0.0759,
      "velocity": 96,
      "chip": "ym2612"
    },
    {
      "channel": 2,
      "note": 84,
      "start": 16.6219,
      "duration": 0.0759,
      "velocity": 96,
      "chip": "ym2612"
    },
    {
      "channel": 1,
      "note": 84,
      "start": 16.8495,
      "duration": 0.0754,
      "velocity": 96,
      "chip": "ym2612"
    },
    {
      "channel": 2,
      "note": 81,
      "start": 16.8502,
      "duration": 0.0751,
      "velocity": 96,
      "chip": "ym2612"
    },
    {
      "channel": 5,
      "note": 45,
      "start": 16.8505,
      "duration": 0.1314,
      "velocity": 116,
      "chip": "ym2612"
    },
    {
      "channel": 0,
      "note": 45,
      "start": 17.0767,
      "duration": 0.1327,
      "velocity": 99,
      "chip": "ym2612"
    },
    {
      "channel": 0,
      "note": 45,
      "start": 17.5317,
      "duration": 0.1327,
      "velocity": 99,
      "chip": "ym2612"
    },
    {
      "channel": 0,
      "note": 57,
      "start": 17.7596,
      "duration": 0.1135,
      "velocity": 99,
      "chip": "ym2612"
    },
    {
      "channel": 5,
      "note": 45,
      "start": 17.7599,
      "duration": 0.1321,
      "velocity": 116,
      "chip": "ym2612"
    },
    {
      "channel": 0,
      "note": 57,
      "start": 17.9867,
      "duration": 0.1328,
      "velocity": 99,
      "chip": "ym2612"
    },
    {
      "channel": 0,
      "note": 45,
      "start": 18.2145,
      "duration": 0.1704,
      "velocity": 99,
      "chip": "ym2612"
    },
    {
      "channel": 1,
      "note": 91,
      "start": 18.2152,
      "duration": 0.0751,
      "velocity": 96,
      "chip": "ym2612"
    },
    {
      "channel": 2,
      "note": 88,
      "start": 18.2159,
      "duration": 0.0747,
      "velocity": 96,
      "chip": "ym2612"
    },
    {
      "channel": 4,
      "note": 79,
      "start": 18.2165,
      "duration": 1.3645,
      "velocity": 88,
      "chip": "ym2612"
    },
    {
      "channel": 1,
      "note": 91,
      "start": 18.4418,
      "duration": 0.0759,
      "velocity": 96,
      "chip": "ym2612"
    },
    {
      "channel": 2,
      "note": 88,
      "start": 18.4421,
      "duration": 0.0759,
      "velocity": 96,
      "chip": "ym2612"
    },
    {
      "channel": 1,
      "note": 91,
      "start": 18.6693,
      "duration": 0.0758,
      "velocity": 96,
      "chip": "ym2612"
    },
    {
      "channel": 2,
      "note": 88,
      "start": 18.6696,
      "duration": 0.0758,
      "velocity": 96,
      "chip": "ym2612"
    },
    {
      "channel": 5,
      "note": 45,
      "start": 18.67,
      "duration": 0.1321,
      "velocity": 116,
      "chip": "ym2612"
    },
    {
      "channel": 0,
      "note": 45,
      "start": 18.8969,
      "duration": 0.1516,
      "velocity": 99,
      "chip": "ym2612"
    },
    {
      "channel": 1,
      "note": 91,
      "start": 18.8972,
      "duration": 0.0755,
      "velocity": 96,
      "chip": "ym2612"
    },
    {
      "channel": 2,
      "note": 88,
      "start": 18.8975,
      "duration": 0.0756,
      "velocity": 96,
      "chip": "ym2612"
    },
    {
      "channel": 1,
      "note": 90,
      "start": 19.1247,
      "duration": 0.0755,
      "velocity": 96,
      "chip": "ym2612"
    },
    {
      "channel": 2,
      "note": 86,
      "start": 19.1254,
      "duration": 0.0752,
      "velocity": 96,
      "chip": "ym2612"
    },
    {
      "channel": 0,
      "note": 45,
      "start": 19.3519,
      "duration": 0.1327,
      "velocity": 99,
      "chip": "ym2612"
    },
    {
      "channel": 0,
      "note": 57,
      "start": 19.5798,
      "duration": 0.1134,
      "velocity": 99,
      "chip": "ym2612"
    },
    {
      "channel": 1,
      "note": 90,
      "start": 19.5801,
      "duration": 0.0752,
      "velocity": 96,
      "chip": "ym2612"
    },
    {
      "channel": 2,
      "note": 86,
      "start": 19.5804,
      "duration": 0.0752,
      "velocity": 96,
      "chip": "ym2612"
    },
    {
      "channel": 5,
      "note": 45,
      "start": 19.5807,
      "duration": 0.1315,
      "velocity": 116,
      "chip": "ym2612"
    },
    {
      "channel": 4,
      "note": 78,
      "start": 19.5817,
      "duration": 0.2063,
      "velocity": 88,
      "chip": "ym2612"
    },
    {
      "channel": 0,
      "note": 57,
      "start": 19.8069,
      "duration": 0.1328,
      "velocity": 99,
      "chip": "ym2612"
    },
    {
      "channel": 1,
      "note": 88,
      "start": 19.8076,
      "duration": 0.0753,
      "velocity": 96,
      "chip": "ym2612"
    },
    {
      "channel": 2,
      "note": 84,
      "start": 19.8083,
      "duration": 0.0749,
      "velocity": 96,
      "chip": "ym2612"
    },
    {
      "channel": 4,
      "note": 76,
      "start": 19.8089,
      "duration": 0.2263,
      "velocity": 88,
      "chip": "ym2612"
    },
    {
      "channel": 0,
      "note": 45,
      "start": 20.0348,
      "duration": 0.1704,
      "velocity": 99,
      "chip": "ym2612"
    },
    {
      "channel": 4,
      "note": 78,
      "start": 20.0358,
      "duration": 1.3648,
      "velocity": 88,
      "chip": "ym2612"
    },
    {
      "channel": 1,
      "note": 88,
      "start": 20.262,
      "duration": 0.0758,
      "velocity": 96,
      "chip": "ym2612"
    },
    {
      "channel": 2,
      "note": 84,
      "start": 20.2623,
      "duration": 0.0758,
      "velocity": 96,
      "chip": "ym2612"
    },
    {
      "channel": 1,
      "note": 84,
      "start": 20.4899,
      "duration": 0.0754,
      "velocity": 96,
      "chip": "ym2612"
    },
    {
      "channel": 2,
      "note": 81,
      "start": 20.4906,
      "duration": 0.0751,
      "velocity": 96,
      "chip": "ym2612"
    },
    {
      "channel": 5,
      "note": 45,
      "start": 20.4909,
      "duration": 0.1314,
      "velocity": 116,
      "chip": "ym2612"
    },
    {
      "channel": 0,
      "note": 45,
      "start": 20.717,
      "duration": 0.1327,
      "velocity": 99,
      "chip": "ym2612"
    },
    {
      "channel": 0,
      "note": 45,
      "start": 21.172,
      "duration": 0.1137,
      "velocity": 99,
      "chip": "ym2612"
    },
    {
      "channel": 0,
      "note": 57,
      "start": 21.3999,
      "duration": 0.1134,
      "velocity": 99,
      "chip": "ym2612"
    },
    {
      "channel": 5,
      "note": 45,
      "start": 21.4003,
      "duration": 0.1321,
      "velocity": 116,
      "chip": "ym2612"
    },
    {
      "channel": 4,
      "note": 76,
      "start": 21.4013,
      "duration": 0.1879,
      "velocity": 88,
      "chip": "ym2612"
    },
    {
      "channel": 0,
      "note": 57,
      "start": 21.6271,
      "duration": 0.1328,
      "velocity": 99,
      "chip": "ym2612"
    },
    {
      "channel": 4,
      "note": 74,
      "start": 21.6278,
      "duration": 0.2289,
      "velocity": 88,
      "chip": "ym2612"
    },
    {
      "channel": 0,
      "note": 45,
      "start": 21.8549,
      "duration": 0.1513,
      "velocity": 99,
      "chip": "ym2612"
    },
    {
      "channel": 1,
      "note": 91,
      "start": 21.8556,
      "duration": 0.0748,
      "velocity": 96,
      "chip": "ym2612"
    },
    {
      "channel": 2,
      "note": 88,
      "start": 21.8563,
      "duration": 0.0745,
      "velocity": 96,
      "chip": "ym2612"
    },
    {
      "channel": 4,
      "note": 76,
      "start": 21.8573,
      "duration": 0.6808,
      "velocity": 88,
      "chip": "ym2612"
    },
    {
      "channel": 1,
      "note": 91,
      "start": 22.0822,
      "duration": 0.0758,
      "velocity": 96,
      "chip": "ym2612"
    },
    {
      "channel": 2,
      "note": 88,
      "start": 22.0825,
      "duration": 0.0758,
      "velocity": 96,
      "chip": "ym2612"
    },
    {
      "channel": 1,
      "note": 91,
      "start": 22.3096,
      "duration": 0.0759,
      "velocity": 96,
      "chip": "ym2612"
    },
    {
      "channel": 2,
      "note": 88,
      "start": 22.31,
      "duration": 0.0759,
      "velocity": 96,
      "chip": "ym2612"
    },
    {
      "channel": 5,
      "note": 45,
      "start": 22.3103,
      "duration": 0.1321,
      "velocity": 116,
      "chip": "ym2612"
    },
    {
      "channel": 0,
      "note": 45,
      "start": 22.5372,
      "duration": 0.1517,
      "velocity": 99,
      "chip": "ym2612"
    },
    {
      "channel": 1,
      "note": 91,
      "start": 22.5375,
      "duration": 0.0755,
      "velocity": 96,
      "chip": "ym2612"
    },
    {
      "channel": 2,
      "note": 88,
      "start": 22.5378,
      "duration": 0.0755,
      "velocity": 96,
      "chip": "ym2612"
    },
    {
      "channel": 4,
      "note": 69,
      "start": 22.5388,
      "duration": 2.9183,
      "velocity": 88,
      "chip": "ym2612"
    },
    {
      "channel": 1,
      "note": 90,
      "start": 22.7651,
      "duration": 0.0755,
      "velocity": 96,
      "chip": "ym2612"
    },
    {
      "channel": 2,
      "note": 86,
      "start": 22.7657,
      "duration": 0.0752,
      "velocity": 96,
      "chip": "ym2612"
    },
    {
      "channel": 0,
      "note": 45,
      "start": 22.9922,
      "duration": 0.1517,
      "velocity": 99,
      "chip": "ym2612"
    },
    {
      "channel": 0,
      "note": 57,
      "start": 23.2201,
      "duration": 0.1324,
      "velocity": 99,
      "chip": "ym2612"
    },
    {
      "channel": 1,
      "note": 90,
      "start": 23.2204,
      "duration": 0.0752,
      "velocity": 96,
      "chip": "ym2612"
    },
    {
      "channel": 2,
      "note": 86,
      "start": 23.2207,
      "duration": 0.0752,
      "velocity": 96,
      "chip": "ym2612"
    },
    {
      "channel": 5,
      "note": 45,
      "start": 23.2211,
      "duration": 0.1317,
      "velocity": 116,
      "chip": "ym2612"
    },
    {
      "channel": 0,
      "note": 57,
      "start": 23.4473,
      "duration": 0.1327,
      "velocity": 99,
      "chip": "ym2612"
    },
    {
      "channel": 1,
      "note": 88,
      "start": 23.4479,
      "duration": 0.0753,
      "velocity": 96,
      "chip": "ym2612"
    },
    {
      "channel": 2,
      "note": 84,
      "start": 23.4486,
      "duration": 0.0749,
      "velocity": 96,
      "chip": "ym2612"
    },
    {
      "channel": 0,
      "note": 45,
      "start": 23.6751,
      "duration": 0.1893,
      "velocity": 99,
      "chip": "ym2612"
    },
    {
      "channel": 1,
      "note": 88,
      "start": 23.9023,
      "duration": 0.0758,
      "velocity": 96,
      "chip": "ym2612"
    },
    {
      "channel": 2,
      "note": 84,
      "start": 23.9027,
      "duration": 0.0758,
      "velocity": 96,
      "chip": "ym2612"
    },
    {
      "channel": 1,
      "note": 84,
      "start": 24.1302,
      "duration": 0.0755,
      "velocity": 96,
      "chip": "ym2612"
    },
    {
      "channel": 2,
      "note": 81,
      "start": 24.1308,
      "duration": 0.0752,
      "velocity": 96,
      "chip": "ym2612"
    },
    {
      "channel": 5,
      "note": 45,
      "start": 24.1312,
      "duration": 0.1315,
      "velocity": 116,
      "chip": "ym2612"
    },
    {
      "channel": 0,
      "note": 45,
      "start": 24.3573,
      "duration": 0.1517,
      "velocity": 99,
      "chip": "ym2612"
    },
    {
      "channel": 0,
      "note": 45,
      "start": 24.8124,
      "duration": 0.1328,
      "velocity": 99,
      "chip": "ym2612"
    },
    {
      "channel": 0,
      "note": 57,
      "start": 25.0404,
      "duration": 0.1322,
      "velocity": 99,
      "chip": "ym2612"
    },
    {
      "channel": 1,
      "note": 93,
      "start": 25.0411,
      "duration": 0.0746,
      "velocity": 96,
      "chip": "ym2612"
    },
    {
      "channel": 2,
      "note": 88,
      "start": 25.0418,
      "duration": 0.0743,
      "velocity": 96,
      "chip": "ym2612"
    },
    {
      "channel": 5,
      "note": 45,
      "start": 25.0421,
      "duration": 0.131,
      "velocity": 116,
      "chip": "ym2612"
    },
    {
      "channel": 0,
      "note": 57,
      "start": 25.2675,
      "duration": 0.1327,
      "velocity": 99,
      "chip": "ym2612"
    },
    {
      "channel": 0,
      "note": 45,
      "start": 25.4953,
      "duration": 0.1893,
      "velocity": 99,
      "chip": "ym2612"
    },
    {
      "channel": 1,
      "note": 93,
      "start": 25.4956,
      "duration": 0.0753,
      "velocity": 96,
      "chip": "ym2612"
    },
    {
      "channel": 2,
      "note": 88,
      "start": 25.4959,
      "duration": 0.0753,
      "velocity": 96,
      "chip": "ym2612"
    },
    {
      "channel": 4,
      "note": 74,
      "start": 25.4966,
      "duration": 1.8198,
      "velocity": 88,
      "chip": "ym2612"
    },
    {
      "channel": 3,
      "note": 105,
      "start": 25.6091,
      "duration": 0.0944,
      "velocity": 123,
      "chip": "ym2612"
    },
    {
      "channel": 3,
      "note": 103,
      "start": 25.7229,
      "duration": 0.1134,
      "velocity": 123,
      "chip": "ym2612"
    },
    {
      "channel": 3,
      "note": 98,
      "start": 25.8369,
      "duration": 0.0752,
      "velocity": 123,
      "chip": "ym2612"
    },
    {
      "channel": 5,
      "note": 45,
      "start": 25.95,
      "duration": 0.1328,
      "velocity": 116,
      "chip": "ym2612"
    },
    {
      "channel": 3,
      "note": 93,
      "start": 25.9507,
      "duration": 0.0941,
      "velocity": 123,
      "chip": "ym2612"
    },
    {
      "channel": 3,
      "note": 91,
      "start": 26.0642,
      "duration": 0.1137,
      "velocity": 123,
      "chip": "ym2612"
    },
    {
      "channel": 0,
      "note": 45,
      "start": 26.1775,
      "duration": 0.1517,
      "velocity": 99,
      "chip": "ym2612"
    },
    {
      "channel": 3,
      "note": 86,
      "start": 26.1785,
      "duration": 0.0938,
      "velocity": 123,
      "chip": "ym2612"
    },
    {
      "channel": 3,
      "note": 93,
      "start": 26.2917,
      "duration": 0.0944,
      "velocity": 123,
      "chip": "ym2612"
    },
    {
      "channel": 3,
      "note": 91,
      "start": 26.4054,
      "duration": 0.1134,
      "velocity": 123,
      "chip": "ym2612"
    },
    {
      "channel": 3,
      "note": 86,
      "start": 26.5195,
      "duration": 0.1134,
      "velocity": 123,
      "chip": "ym2612"
    },
    {
      "channel": 0,
      "note": 45,
      "start": 26.6325,
      "duration": 0.1328,
      "velocity": 99,
      "chip": "ym2612"
    },
    {
      "channel": 3,
      "note": 81,
      "start": 26.6336,
      "duration": 0.1128,
      "velocity": 123,
      "chip": "ym2612"
    },
    {
      "channel": 3,
      "note": 91,
      "start": 26.7471,
      "duration": 0.1147,
      "velocity": 123,
      "chip": "ym2612"
    },
    {
      "channel": 0,
      "note": 57,
      "start": 26.8604,
      "duration": 0.1134,
      "velocity": 99,
      "chip": "ym2612"
    },
    {
      "channel": 1,
      "note": 93,
      "start": 26.8607,
      "duration": 0.0752,
      "velocity": 96,
      "chip": "ym2612"
    },
    {
      "channel": 2,
      "note": 88,
      "start": 26.861,
      "duration": 0.0752,
      "velocity": 96,
      "chip": "ym2612"
    },
    {
      "channel": 5,
      "note": 45,
      "start": 26.8614,
      "duration": 0.1314,
      "velocity": 116,
      "chip": "ym2612"
    },
    {
      "channel": 3,
      "note": 86,
      "start": 26.8624,
      "duration": 0.1118,
      "velocity": 123,
      "chip": "ym2612"
    },
    {
      "channel": 3,
      "note": 81,
      "start": 26.9749,
      "duration": 0.0749,
      "velocity": 123,
      "chip": "ym2612"
    },
    {
      "channel": 0,
      "note": 57,
      "start": 27.0876,
      "duration": 0.1327,
      "velocity": 99,
      "chip": "ym2612"
    },
    {
      "channel": 1,
      "note": 93,
      "start": 27.088,
      "duration": 0.0755,
      "velocity": 96,
      "chip": "ym2612"
    },
    {
      "channel": 2,
      "note": 88,
      "start": 27.0883,
      "duration": 0.0755,
      "velocity": 96,
      "chip": "ym2612"
    },
    {
      "channel": 3,
      "note": 79,
      "start": 27.0889,
      "duration": 0.1125,
      "velocity": 123,
      "chip": "ym2612"
    },
    {
      "channel": 3,
      "note": 74,
      "start": 27.2021,
      "duration": 0.1154,
      "velocity": 123,
      "chip": "ym2612"
    },
    {
      "channel": 0,
      "note": 45,
      "start": 27.3154,
      "duration": 0.1703,
      "velocity": 99,
      "chip": "ym2612"
    },
    {
      "channel": 1,
      "note": 93,
      "start": 27.3158,
      "duration": 0.0752,
      "velocity": 96,
      "chip": "ym2612"
    },
    {
      "channel": 2,
      "note": 88,
      "start": 27.3161,
      "duration": 0.0752,
      "velocity": 96,
      "chip": "ym2612"
    },
    {
      "channel": 4,
      "note": 79,
      "start": 27.3171,
      "duration": 1.7993,
      "velocity": 88,
      "chip": "ym2612"
    },
    {
      "channel": 3,
      "note": 81,
      "start": 27.3181,
      "duration": 0.1108,
      "velocity": 123,
      "chip": "ym2612"
    },
    {
      "channel": 3,
      "note": 79,
      "start": 27.4296,
      "duration": 0.1137,
      "velocity": 123,
      "chip": "ym2612"
    },
    {
      "channel": 1,
      "note": 93,
      "start": 27.5427,
      "duration": 0.0758,
      "velocity": 96,
      "chip": "ym2612"
    },
    {
      "channel": 2,
      "note": 88,
      "start": 27.543,
      "duration": 0.0758,
      "velocity": 96,
      "chip": "ym2612"
    },
    {
      "channel": 3,
      "note": 74,
      "start": 27.544,
      "duration": 0.1125,
      "velocity": 123,
      "chip": "ym2612"
    },
    {
      "channel": 3,
      "note": 69,
      "start": 27.6572,
      "duration": 0.1134,
      "velocity": 123,
      "chip": "ym2612"
    },
    {
      "channel": 5,
      "note": 45,
      "start": 27.7703,
      "duration": 0.1327,
      "velocity": 116,
      "chip": "ym2612"
    },
    {
      "channel": 3,
      "note": 79,
      "start": 27.7712,
      "duration": 0.0938,
      "velocity": 123,
      "chip": "ym2612"
    },
    {
      "channel": 3,
      "note": 74,
      "start": 27.8843,
      "duration": 0.0945,
      "velocity": 123,
      "chip": "ym2612"
    },
    {
      "channel": 0,
      "note": 45,
      "start": 27.9977,
      "duration": 0.1328,
      "velocity": 99,
      "chip": "ym2612"
    },
    {
      "channel": 3,
      "note": 69,
      "start": 27.9984,
      "duration": 0.0941,
      "velocity": 123,
      "chip": "ym2612"
    },
    {
      "channel": 3,
      "note": 67,
      "start": 28.1118,
      "duration": 0.1134,
      "velocity": 123,
      "chip": "ym2612"
    },
    {
      "channel": 3,
      "note": 62,
      "start": 28.2259,
      "duration": 0.0941,
      "velocity": 123,
      "chip": "ym2612"
    },
    {
      "channel": 3,
      "note": 69,
      "start": 28.3393,
      "duration": 0.1137,
      "velocity": 123,
      "chip": "ym2612"
    },
    {
      "channel": 0,
      "note": 45,
      "start": 28.4528,
      "duration": 0.1137,
      "velocity": 99,
      "chip": "ym2612"
    },
    {
      "channel": 3,
      "note": 67,
      "start": 28.4537,
      "duration": 0.1131,
      "velocity": 123,
      "chip": "ym2612"
    },
    {
      "channel": 3,
      "note": 62,
      "start": 28.5675,
      "duration": 0.0749,
      "velocity": 123,
      "chip": "ym2612"
    },
    {
      "channel": 0,
      "note": 57,
      "start": 28.6806,
      "duration": 0.1324,
      "velocity": 99,
      "chip": "ym2612"
    },
    {
      "channel": 5,
      "note": 45,
      "start": 28.681,
      "duration": 0.1324,
      "velocity": 116,
      "chip": "ym2612"
    },
    {
      "channel": 3,
      "note": 57,
      "start": 28.6816,
      "duration": 0.0746,
      "velocity": 123,
      "chip": "ym2612"
    },
    {
      "channel": 3,
      "note": 55,
      "start": 28.7944,
      "duration": 0.0945,
      "velocity": 123,
      "chip": "ym2612"
    },
    {
      "channel": 0,
      "note": 57,
      "start": 28.9078,
      "duration": 0.1327,
      "velocity": 99,
      "chip": "ym2612"
    },
    {
      "channel": 3,
      "note": 50,
      "start": 28.9084,
      "duration": 0.1132,
      "velocity": 123,
      "chip": "ym2612"
    },
    {
      "channel": 3,
      "note": 55,
      "start": 29.0222,
      "duration": 0.115,
      "velocity": 123,
      "chip": "ym2612"
    },
    {
      "channel": 0,
      "note": 60,
      "start": 29.1356,
      "duration": 0.2841,
      "velocity": 99,
      "chip": "ym2612"
    },
    {
      "channel": 1,
      "note": 88,
      "start": 29.1362,
      "duration": 0.0749,
      "velocity": 96,
      "chip": "ym2612"
    },
    {
      "channel": 2,
      "note": 84,
      "start": 29.1369,
      "duration": 0.0746,
      "velocity": 96,
      "chip": "ym2612"
    },
    {
      "channel": 4,
      "note": 91,
      "start": 29.1641,
      "duration": 1.1099,
      "velocity": 116,
      "chip": "ym2612"
    },
    {
      "channel": 1,
      "note": 88,
      "start": 29.3628,
      "duration": 0.0758,
      "velocity": 96,
      "chip": "ym2612"
    },
    {
      "channel": 2,
      "note": 84,
      "start": 29.3632,
      "duration": 0.0758,
      "velocity": 96,
      "chip": "ym2612"
    },
    {
      "channel": 1,
      "note": 88,
      "start": 29.5904,
      "duration": 0.0758,
      "velocity": 96,
      "chip": "ym2612"
    },
    {
      "channel": 2,
      "note": 84,
      "start": 29.5907,
      "duration": 0.0758,
      "velocity": 96,
      "chip": "ym2612"
    },
    {
      "channel": 5,
      "note": 45,
      "start": 29.591,
      "duration": 0.208,
      "velocity": 116,
      "chip": "ym2612"
    },
    {
      "channel": 0,
      "note": 60,
      "start": 29.8178,
      "duration": 0.1328,
      "velocity": 99,
      "chip": "ym2612"
    },
    {
      "channel": 0,
      "note": 60,
      "start": 30.2729,
      "duration": 0.1517,
      "velocity": 99,
      "chip": "ym2612"
    },
    {
      "channel": 1,
      "note": 88,
      "start": 30.2733,
      "duration": 0.0754,
      "velocity": 96,
      "chip": "ym2612"
    },
    {
      "channel": 2,
      "note": 84,
      "start": 30.2737,
      "duration": 0.0754,
      "velocity": 96,
      "chip": "ym2612"
    },
    {
      "channel": 4,
      "note": 96,
      "start": 30.2746,
      "duration": 0.1879,
      "velocity": 116,
      "chip": "ym2612"
    },
    {
      "channel": 4,
      "note": 95,
      "start": 30.4819,
      "duration": 0.2477,
      "velocity": 116,
      "chip": "ym2612"
    },
    {
      "channel": 0,
      "note": 72,
      "start": 30.5007,
      "duration": 0.1135,
      "velocity": 99,
      "chip": "ym2612"
    },
    {
      "channel": 5,
      "note": 45,
      "start": 30.5011,
      "duration": 0.208,
      "velocity": 116,
      "chip": "ym2612"
    },
    {
      "channel": 0,
      "note": 72,
      "start": 30.728,
      "duration": 0.0948,
      "velocity": 99,
      "chip": "ym2612"
    },
    {
      "channel": 1,
      "note": 89,
      "start": 30.7286,
      "duration": 0.0752,
      "velocity": 96,
      "chip": "ym2612"
    },
    {
      "channel": 2,
      "note": 86,
      "start": 30.7292,
      "duration": 0.0749,
      "velocity": 96,
      "chip": "ym2612"
    },
    {
      "channel": 4,
      "note": 88,
      "start": 30.7473,
      "duration": 1.3474,
      "velocity": 116,
      "chip": "ym2612"
    },
    {
      "channel": 0,
      "note": 60,
      "start": 30.9558,
      "duration": 0.1703,
      "velocity": 99,
      "chip": "ym2612"
    },
    {
      "channel": 1,
      "note": 91,
      "start": 30.9567,
      "duration": 0.0747,
      "velocity": 96,
      "chip": "ym2612"
    },
    {
      "channel": 2,
      "note": 88,
      "start": 30.9573,
      "duration": 0.0743,
      "velocity": 96,
      "chip": "ym2612"
    },
    {
      "channel": 1,
      "note": 91,
      "start": 31.183,
      "duration": 0.0758,
      "velocity": 96,
      "chip": "ym2612"
    },
    {
      "channel": 2,
      "note": 88,
      "start": 31.1833,
      "duration": 0.0758,
      "velocity": 96,
      "chip": "ym2612"
    },
    {
      "channel": 3,
      "note": 60,
      "start": 31.184,
      "duration": 0.1507,
      "velocity": 123,
      "chip": "ym2612"
    },
    {
      "channel": 1,
      "note": 91,
      "start": 31.4105,
      "duration": 0.0758,
      "velocity": 96,
      "chip": "ym2612"
    },
    {
      "channel": 2,
      "note": 88,
      "start": 31.4109,
      "duration": 0.0758,
      "velocity": 96,
      "chip": "ym2612"
    },
    {
      "channel": 5,
      "note": 45,
      "start": 31.4112,
      "duration": 0.2079,
      "velocity": 116,
      "chip": "ym2612"
    },
    {
      "channel": 3,
      "note": 64,
      "start": 31.4119,
      "duration": 0.1693,
      "velocity": 123,
      "chip": "ym2612"
    },
    {
      "channel": 0,
      "note": 60,
      "start": 31.638,
      "duration": 0.1707,
      "velocity": 99,
      "chip": "ym2612"
    },
    {
      "channel": 3,
      "note": 67,
      "start": 31.6387,
      "duration": 0.1131,
      "velocity": 123,
      "chip": "ym2612"
    },
    {
      "channel": 3,
      "note": 72,
      "start": 31.8659,
      "duration": 0.1703,
      "velocity": 123,
      "chip": "ym2612"
    },
    {
      "channel": 0,
      "note": 60,
      "start": 32.0931,
      "duration": 0.1517,
      "velocity": 99,
      "chip": "ym2612"
    },
    {
      "channel": 1,
      "note": 89,
      "start": 32.0937,
      "duration": 0.0752,
      "velocity": 96,
      "chip": "ym2612"
    },
    {
      "channel": 2,
      "note": 86,
      "start": 32.0944,
      "duration": 0.0749,
      "velocity": 96,
      "chip": "ym2612"
    },
    {
      "channel": 4,
      "note": 89,
      "start": 32.0954,
      "duration": 0.4149,
      "velocity": 116,
      "chip": "ym2612"
    },
    {
      "channel": 3,
      "note": 76,
      "start": 32.0961,
      "duration": 0.1866,
      "velocity": 123,
      "chip": "ym2612"
    },
    {
      "channel": 0,
      "note": 72,
      "start": 32.321,
      "duration": 0.1134,
      "velocity": 99,
      "chip": "ym2612"
    },
    {
      "channel": 5,
      "note": 45,
      "start": 32.3213,
      "duration": 0.2079,
      "velocity": 116,
      "chip": "ym2612"
    },
    {
      "channel": 3,
      "note": 79,
      "start": 32.322,
      "duration": 0.1314,
      "velocity": 123,
      "chip": "ym2612"
    },
    {
      "channel": 4,
      "note": 91,
      "start": 32.511,
      "duration": 0.2457,
      "velocity": 116,
      "chip": "ym2612"
    },
    {
      "channel": 0,
      "note": 72,
      "start": 32.5481,
      "duration": 0.0948,
      "velocity": 99,
      "chip": "ym2612"
    },
    {
      "channel": 1,
      "note": 88,
      "start": 32.5488,
      "duration": 0.0752,
      "velocity": 96,
      "chip": "ym2612"
    },
    {
      "channel": 2,
      "note": 84,
      "start": 32.5494,
      "duration": 0.0749,
      "velocity": 96,
      "chip": "ym2612"
    },
    {
      "channel": 0,
      "note": 58,
      "start": 32.776,
      "duration": 0.1893,
      "velocity": 99,
      "chip": "ym2612"
    },
    {
      "channel": 1,
      "note": 89,
      "start": 32.7766,
      "duration": 0.0749,
      "velocity": 96,
      "chip": "ym2612"
    },
    {
      "channel": 2,
      "note": 86,
      "start": 32.7773,
      "duration": 0.0746,
      "velocity": 96,
      "chip": "ym2612"
    },
    {
      "channel": 4,
      "note": 86,
      "start": 32.778,
      "duration": 1.8195,
      "velocity": 116,
      "chip": "ym2612"
    },
    {
      "channel": 1,
      "note": 89,
      "start": 33.0032,
      "duration": 0.0758,
      "velocity": 96,
      "chip": "ym2612"
    },
    {
      "channel": 2,
      "note": 86,
      "start": 33.0035,
      "duration": 0.0758,
      "velocity": 96,
      "chip": "ym2612"
    },
    {
      "channel": 1,
      "note": 89,
      "start": 33.2307,
      "duration": 0.076,
      "velocity": 96,
      "chip": "ym2612"
    },
    {
      "channel": 2,
      "note": 86,
      "start": 33.231,
      "duration": 0.076,
      "velocity": 96,
      "chip": "ym2612"
    },
    {
      "channel": 5,
      "note": 45,
      "start": 33.2314,
      "duration": 0.2079,
      "velocity": 116,
      "chip": "ym2612"
    },
    {
      "channel": 0,
      "note": 58,
      "start": 33.4583,
      "duration": 0.1706,
      "velocity": 99,
      "chip": "ym2612"
    },
    {
      "channel": 3,
      "note": 58,
      "start": 33.4589,
      "duration": 0.1703,
      "velocity": 123,
      "chip": "ym2612"
    },
    {
      "channel": 3,
      "note": 62,
      "start": 33.6861,
      "duration": 0.2281,
      "velocity": 123,
      "chip": "ym2612"
    },
    {
      "channel": 0,
      "note": 58,
      "start": 33.9133,
      "duration": 0.1517,
      "velocity": 99,
      "chip": "ym2612"
    },
    {
      "channel": 1,
      "note": 89,
      "start": 33.9136,
      "duration": 0.0755,
      "velocity": 96,
      "chip": "ym2612"
    },
    {
      "channel": 2,
      "note": 86,
      "start": 33.9139,
      "duration": 0.0755,
      "velocity": 96,
      "chip": "ym2612"
    },
    {
      "channel": 3,
      "note": 65,
      "start": 33.9149,
      "duration": 0.1691,
      "velocity": 123,
      "chip": "ym2612"
    },
    {
      "channel": 0,
      "note": 70,
      "start": 34.1411,
      "duration": 0.1134,
      "velocity": 99,
      "chip": "ym2612"
    },
    {
      "channel": 5,
      "note": 45,
      "start": 34.1415,
      "duration": 0.208,
      "velocity": 116,
      "chip": "ym2612"
    },
    {
      "channel": 3,
      "note": 74,
      "start": 34.1422,
      "duration": 0.1693,
      "velocity": 123,
      "chip": "ym2612"
    },
    {
      "channel": 0,
      "note": 70,
      "start": 34.3683,
      "duration": 0.1138,
      "velocity": 99,
      "chip": "ym2612"
    },
    {
      "channel": 1,
      "note": 89,
      "start": 34.3686,
      "duration": 0.0756,
      "velocity": 96,
      "chip": "ym2612"
    },
    {
      "channel": 2,
      "note": 86,
      "start": 34.3689,
      "duration": 0.0756,
      "velocity": 96,
      "chip": "ym2612"
    },
    {
      "channel": 0,
      "note": 53,
      "start": 34.5962,
      "duration": 0.2462,
      "velocity": 99,
      "chip": "ym2612"
    },
    {
      "channel": 1,
      "note": 89,
      "start": 34.5965,
      "duration": 0.0752,
      "velocity": 96,
      "chip": "ym2612"
    },
    {
      "channel": 2,
      "note": 84,
      "start": 34.5972,
      "duration": 0.0748,
      "velocity": 96,
      "chip": "ym2612"
    },
    {
      "channel": 4,
      "note": 84,
      "start": 34.5982,
      "duration": 1.8195,
      "velocity": 116,
      "chip": "ym2612"
    },
    {
      "channel": 1,
      "note": 89,
      "start": 34.8234,
      "duration": 0.0758,
      "velocity": 96,
      "chip": "ym2612"
    },
    {
      "channel": 2,
      "note": 84,
      "start": 34.8237,
      "duration": 0.0758,
      "velocity": 96,
      "chip": "ym2612"
    },
    {
      "channel": 3,
      "note": 57,
      "start": 34.8243,
      "duration": 0.1697,
      "velocity": 123,
      "chip": "ym2612"
    },
    {
      "channel": 1,
      "note": 89,
      "start": 35.0509,
      "duration": 0.0758,
      "velocity": 96,
      "chip": "ym2612"
    },
    {
      "channel": 2,
      "note": 84,
      "start": 35.0512,
      "duration": 0.0758,
      "velocity": 96,
      "chip": "ym2612"
    },
    {
      "channel": 5,
      "note": 45,
      "start": 35.0516,
      "duration": 0.208,
      "velocity": 116,
      "chip": "ym2612"
    },
    {
      "channel": 3,
      "note": 60,
      "start": 35.0522,
      "duration": 0.1504,
      "velocity": 123,
      "chip": "ym2612"
    },
    {
      "channel": 0,
      "note": 53,
      "start": 35.2784,
      "duration": 0.1706,
      "velocity": 99,
      "chip": "ym2612"
    },
    {
      "channel": 3,
      "note": 65,
      "start": 35.279,
      "duration": 0.0943,
      "velocity": 123,
      "chip": "ym2612"
    },
    {
      "channel": 3,
      "note": 69,
      "start": 35.5063,
      "duration": 0.1703,
      "velocity": 123,
      "chip": "ym2612"
    },
    {
      "channel": 0,
      "note": 53,
      "start": 35.7334,
      "duration": 0.1327,
      "velocity": 99,
      "chip": "ym2612"
    },
    {
      "channel": 1,
      "note": 89,
      "start": 35.7338,
      "duration": 0.0755,
      "velocity": 96,
      "chip": "ym2612"
    },
    {
      "channel": 2,
      "note": 84,
      "start": 35.7341,
      "duration": 0.0755,
      "velocity": 96,
      "chip": "ym2612"
    },
    {
      "channel": 3,
      "note": 72,
      "start": 35.7347,
      "duration": 0.1694,
      "velocity": 123,
      "chip": "ym2612"
    },
    {
      "channel": 0,
      "note": 65,
      "start": 35.9613,
      "duration": 0.1134,
      "velocity": 99,
      "chip": "ym2612"
    },
    {
      "channel": 5,
      "note": 45,
      "start": 35.9616,
      "duration": 0.208,
      "velocity": 116,
      "chip": "ym2612"
    },
    {
      "channel": 3,
      "note": 77,
      "start": 35.9623,
      "duration": 0.2076,
      "velocity": 123,
      "chip": "ym2612"
    },
    {
      "channel": 0,
      "note": 65,
      "start": 36.1885,
      "duration": 0.0949,
      "velocity": 99,
      "chip": "ym2612"
    },
    {
      "channel": 1,
      "note": 89,
      "start": 36.1888,
      "duration": 0.0756,
      "velocity": 96,
      "chip": "ym2612"
    },
    {
      "channel": 2,
      "note": 84,
      "start": 36.1891,
      "duration": 0.0756,
      "velocity": 96,
      "chip": "ym2612"
    },
    {
      "channel": 0,
      "note": 60,
      "start": 36.4163,
      "duration": 0.2272,
      "velocity": 99,
      "chip": "ym2612"
    },
    {
      "channel": 1,
      "note": 88,
      "start": 36.417,
      "duration": 0.0748,
      "velocity": 96,
      "chip": "ym2612"
    },
    {
      "channel": 2,
      "note": 84,
      "start": 36.4173,
      "duration": 0.0748,
      "velocity": 96,
      "chip": "ym2612"
    },
    {
      "channel": 4,
      "note": 88,
      "start": 36.4184,
      "duration": 2.9176,
      "velocity": 116,
      "chip": "ym2612"
    },
    {
      "channel": 1,
      "note": 88,
      "start": 36.6438,
      "duration": 0.0756,
      "velocity": 96,
      "chip": "ym2612"
    },
    {
      "channel": 2,
      "note": 84,
      "start": 36.6441,
      "duration": 0.0756,
      "velocity": 96,
      "chip": "ym2612"
    },
    {
      "channel": 1,
      "note": 88,
      "start": 36.871,
      "duration": 0.0759,
      "velocity": 96,
      "chip": "ym2612"
    },
    {
      "channel": 2,
      "note": 84,
      "start": 36.8714,
      "duration": 0.0759,
      "velocity": 96,
      "chip": "ym2612"
    },
    {
      "channel": 5,
      "note": 45,
      "start": 36.8717,
      "duration": 0.208,
      "velocity": 116,
      "chip": "ym2612"
    },
    {
      "channel": 0,
      "note": 60,
      "start": 37.0986,
      "duration": 0.1327,
      "velocity": 99,
      "chip": "ym2612"
    },
    {
      "channel": 0,
      "note": 60,
      "start": 37.5536,
      "duration": 0.1327,
      "velocity": 99,
      "chip": "ym2612"
    },
    {
      "channel": 1,
      "note": 88,
      "start": 37.5539,
      "duration": 0.0755,
      "velocity": 96,
      "chip": "ym2612"
    },
    {
      "channel": 2,
      "note": 84,
      "start": 37.5542,
      "duration": 0.0755,
      "velocity": 96,
      "chip": "ym2612"
    },
    {
      "channel": 0,
      "note": 72,
      "start": 37.7815,
      "duration": 0.0945,
      "velocity": 99,
      "chip": "ym2612"
    },
    {
      "channel": 5,
      "note": 45,
      "start": 37.7818,
      "duration": 0.208,
      "velocity": 116,
      "chip": "ym2612"
    },
    {
      "channel": 0,
      "note": 72,
      "start": 38.0086,
      "duration": 0.0949,
      "velocity": 99,
      "chip": "ym2612"
    },
    {
      "channel": 1,
      "note": 89,
      "start": 38.0093,
      "duration": 0.0752,
      "velocity": 96,
      "chip": "ym2612"
    },
    {
      "channel": 2,
      "note": 86,
      "start": 38.01,
      "duration": 0.0749,
      "velocity": 96,
      "chip": "ym2612"
    },
    {
      "channel": 0,
      "note": 60,
      "start": 38.2365,
      "duration": 0.1704,
      "velocity": 99,
      "chip": "ym2612"
    },
    {
      "channel": 1,
      "note": 91,
      "start": 38.2372,
      "duration": 0.0748,
      "velocity": 96,
      "chip": "ym2612"
    },
    {
      "channel": 2,
      "note": 88,
      "start": 38.2378,
      "duration": 0.0745,
      "velocity": 96,
      "chip": "ym2612"
    },
    {
      "channel": 1,
      "note": 91,
      "start": 38.4637,
      "duration": 0.0758,
      "velocity": 96,
      "chip": "ym2612"
    },
    {
      "channel": 2,
      "note": 88,
      "start": 38.464,
      "duration": 0.076,
      "velocity": 96,
      "chip": "ym2612"
    },
    {
      "channel": 3,
      "note": 60,
      "start": 38.4647,
      "duration": 0.1508,
      "velocity": 123,
      "chip": "ym2612"
    },
    {
      "channel": 1,
      "note": 91,
      "start": 38.6912,
      "duration": 0.0759,
      "velocity": 96,
      "chip": "ym2612"
    },
    {
      "channel": 2,
      "note": 88,
      "start": 38.6915,
      "duration": 0.0759,
      "velocity": 96,
      "chip": "ym2612"
    },
    {
      "channel": 5,
      "note": 45,
      "start": 38.6919,
      "duration": 0.2079,
      "velocity": 116,
      "chip": "ym2612"
    },
    {
      "channel": 3,
      "note": 64,
      "start": 38.6925,
      "duration": 0.2076,
      "velocity": 123,
      "chip": "ym2612"
    },
    {
      "channel": 0,
      "note": 60,
      "start": 38.9188,
      "duration": 0.1516,
      "velocity": 99,
      "chip": "ym2612"
    },
    {
      "channel": 3,
      "note": 67,
      "start": 38.9194,
      "duration": 0.1132,
      "velocity": 123,
      "chip": "ym2612"
    },
    {
      "channel": 3,
      "note": 72,
      "start": 39.1467,
      "duration": 0.1896,
      "velocity": 123,
      "chip": "ym2612"
    },
    {
      "channel": 0,
      "note": 60,
      "start": 39.3738,
      "duration": 0.1517,
      "velocity": 99,
      "chip": "ym2612"
    },
    {
      "channel": 1,
      "note": 89,
      "start": 39.3744,
      "duration": 0.0753,
      "velocity": 96,
      "chip": "ym2612"
    },
    {
      "channel": 2,
      "note": 86,
      "start": 39.3751,
      "duration": 0.0749,
      "velocity": 96,
      "chip": "ym2612"
    },
    {
      "channel": 3,
      "note": 76,
      "start": 39.3757,
      "duration": 0.2066,
      "velocity": 123,
      "chip": "ym2612"
    },
    {
      "channel": 4,
      "note": 88,
      "start": 39.4307,
      "duration": 0.3602,
      "velocity": 116,
      "chip": "ym2612"
    },
    {
      "channel": 0,
      "note": 72,
      "start": 39.6016,
      "duration": 0.1134,
      "velocity": 99,
      "chip": "ym2612"
    },
    {
      "channel": 5,
      "note": 45,
      "start": 39.602,
      "duration": 0.208,
      "velocity": 116,
      "chip": "ym2612"
    },
    {
      "channel": 3,
      "note": 79,
      "start": 39.6027,
      "duration": 0.1314,
      "velocity": 123,
      "chip": "ym2612"
    },
    {
      "channel": 4,
      "note": 91,
      "start": 39.7916,
      "duration": 0.3216,
      "velocity": 116,
      "chip": "ym2612"
    },
    {
      "channel": 0,
      "note": 72,
      "start": 39.8289,
      "duration": 0.1137,
      "velocity": 99,
      "chip": "ym2612"
    },
    {
      "channel": 1,
      "note": 88,
      "start": 39.8295,
      "duration": 0.0752,
      "velocity": 96,
      "chip": "ym2612"
    },
    {
      "channel": 2,
      "note": 84,
      "start": 39.8301,
      "duration": 0.0749,
      "velocity": 96,
      "chip": "ym2612"
    },
    {
      "channel": 0,
      "note": 58,
      "start": 40.0568,
      "duration": 0.1702,
      "velocity": 99,
      "chip": "ym2612"
    },
    {
      "channel": 1,
      "note": 89,
      "start": 40.0574,
      "duration": 0.0748,
      "velocity": 96,
      "chip": "ym2612"
    },
    {
      "channel": 2,
      "note": 86,
      "start": 40.0581,
      "duration": 0.0744,
      "velocity": 96,
      "chip": "ym2612"
    },
    {
      "channel": 4,
      "note": 94,
      "start": 40.114,
      "duration": 1.7642,
      "velocity": 116,
      "chip": "ym2612"
    },
    {
      "channel": 1,
      "note": 89,
      "start": 40.2839,
      "duration": 0.0758,
      "velocity": 96,
      "chip": "ym2612"
    },
    {
      "channel": 2,
      "note": 86,
      "start": 40.2842,
      "duration": 0.0758,
      "velocity": 96,
      "chip": "ym2612"
    },
    {
      "channel": 3,
      "note": 58,
      "start": 40.2849,
      "duration": 0.1507,
      "velocity": 123,
      "chip": "ym2612"
    },
    {
      "channel": 1,
      "note": 89,
      "start": 40.5114,
      "duration": 0.0758,
      "velocity": 96,
      "chip": "ym2612"
    },
    {
      "channel": 2,
      "note": 86,
      "start": 40.5117,
      "duration": 0.0758,
      "velocity": 96,
      "chip": "ym2612"
    },
    {
      "channel": 5,
      "note": 45,
      "start": 40.5121,
      "duration": 0.208,
      "velocity": 116,
      "chip": "ym2612"
    },
    {
      "channel": 3,
      "note": 62,
      "start": 40.5128,
      "duration": 0.1882,
      "velocity": 123,
      "chip": "ym2612"
    },
    {
      "channel": 0,
      "note": 58,
      "start": 40.7389,
      "duration": 0.1707,
      "velocity": 99,
      "chip": "ym2612"
    },
    {
      "channel": 3,
      "note": 65,
      "start": 40.7396,
      "duration": 0.1321,
      "velocity": 123,
      "chip": "ym2612"
    },
    {
      "channel": 3,
      "note": 70,
      "start": 40.9668,
      "duration": 0.1703,
      "velocity": 123,
      "chip": "ym2612"
    },
    {
      "channel": 0,
      "note": 58,
      "start": 41.1939,
      "duration": 0.1517,
      "velocity": 99,
      "chip": "ym2612"
    },
    {
      "channel": 1,
      "note": 89,
      "start": 41.1942,
      "duration": 0.0756,
      "velocity": 96,
      "chip": "ym2612"
    },
    {
      "channel": 2,
      "note": 86,
      "start": 41.1946,
      "duration": 0.0756,
      "velocity": 96,
      "chip": "ym2612"
    },
    {
      "channel": 3,
      "note": 74,
      "start": 41.1953,
      "duration": 0.1883,
      "velocity": 123,
      "chip": "ym2612"
    },
    {
      "channel": 0,
      "note": 70,
      "start": 41.4218,
      "duration": 0.1134,
      "velocity": 99,
      "chip": "ym2612"
    },
    {
      "channel": 5,
      "note": 45,
      "start": 41.4221,
      "duration": 0.208,
      "velocity": 116,
      "chip": "ym2612"
    },
    {
      "channel": 3,
      "note": 77,
      "start": 41.4228,
      "duration": 0.1314,
      "velocity": 123,
      "chip": "ym2612"
    },
    {
      "channel": 0,
      "note": 70,
      "start": 41.649,
      "duration": 0.1137,
      "velocity": 99,
      "chip": "ym2612"
    },
    {
      "channel": 1,
      "note": 89,
      "start": 41.6493,
      "duration": 0.0755,
      "velocity": 96,
      "chip": "ym2612"
    },
    {
      "channel": 2,
      "note": 86,
      "start": 41.6497,
      "duration": 0.0755,
      "velocity": 96,
      "chip": "ym2612"
    },
    {
      "channel": 0,
      "note": 53,
      "start": 41.8768,
      "duration": 0.2272,
      "velocity": 99,
      "chip": "ym2612"
    },
    {
      "channel": 1,
      "note": 89,
      "start": 41.8771,
      "duration": 0.0753,
      "velocity": 96,
      "chip": "ym2612"
    },
    {
      "channel": 2,
      "note": 84,
      "start": 41.8778,
      "duration": 0.0749,
      "velocity": 96,
      "chip": "ym2612"
    },
    {
      "channel": 4,
      "note": 93,
      "start": 41.8789,
      "duration": 1.78,
      "velocity": 116,
      "chip": "ym2612"
    },
    {
      "channel": 1,
      "note": 89,
      "start": 42.1044,
      "duration": 0.0755,
      "velocity": 96,
      "chip": "ym2612"
    },
    {
      "channel": 2,
      "note": 84,
      "start": 42.1047,
      "duration": 0.0755,
      "velocity": 96,
      "chip": "ym2612"
    },
    {
      "channel": 3,
      "note": 57,
      "start": 42.1053,
      "duration": 0.1504,
      "velocity": 123,
      "chip": "ym2612"
    },
    {
      "channel": 1,
      "note": 89,
      "start": 42.3316,
      "duration": 0.0758,
      "velocity": 96,
      "chip": "ym2612"
    },
    {
      "channel": 2,
      "note": 84,
      "start": 42.3319,
      "duration": 0.0758,
      "velocity": 96,
      "chip": "ym2612"
    },
    {
      "channel": 5,
      "note": 45,
      "start": 42.3322,
      "duration": 0.2081,
      "velocity": 116,
      "chip": "ym2612"
    },
    {
      "channel": 3,
      "note": 60,
      "start": 42.3329,
      "duration": 0.1504,
      "velocity": 123,
      "chip": "ym2612"
    },
    {
      "channel": 0,
      "note": 53,
      "start": 42.5591,
      "duration": 0.2276,
      "velocity": 99,
      "chip": "ym2612"
    },
    {
      "channel": 3,
      "note": 65,
      "start": 42.5598,
      "duration": 0.0752,
      "velocity": 123,
      "chip": "ym2612"
    },
    {
      "channel": 3,
      "note": 69,
      "start": 42.7873,
      "duration": 0.1132,
      "velocity": 123,
      "chip": "ym2612"
    },
    {
      "channel": 0,
      "note": 53,
      "start": 43.0142,
      "duration": 0.1327,
      "velocity": 99,
      "chip": "ym2612"
    },
    {
      "channel": 1,
      "note": 89,
      "start": 43.0144,
      "duration": 0.0756,
      "velocity": 96,
      "chip": "ym2612"
    },
    {
      "channel": 2,
      "note": 84,
      "start": 43.0147,
      "duration": 0.0756,
      "velocity": 96,
      "chip": "ym2612"
    },
    {
      "channel": 3,
      "note": 72,
      "start": 43.0154,
      "duration": 0.1125,
      "velocity": 123,
      "chip": "ym2612"
    },
    {
      "channel": 0,
      "note": 65,
      "start": 43.242,
      "duration": 0.1324,
      "velocity": 99,
      "chip": "ym2612"
    },
    {
      "channel": 5,
      "note": 45,
      "start": 43.2423,
      "duration": 0.208,
      "velocity": 116,
      "chip": "ym2612"
    },
    {
      "channel": 3,
      "note": 77,
      "start": 43.243,
      "duration": 0.1124,
      "velocity": 123,
      "chip": "ym2612"
    },
    {
      "channel": 0,
      "note": 65,
      "start": 43.4692,
      "duration": 0.0948,
      "velocity": 99,
      "chip": "ym2612"
    },
    {
      "channel": 1,
      "note": 89,
      "start": 43.4695,
      "duration": 0.0755,
      "velocity": 96,
      "chip": "ym2612"
    },
    {
      "channel": 2,
      "note": 84,
      "start": 43.4698,
      "duration": 0.0755,
      "velocity": 96,
      "chip": "ym2612"
    },
    {
      "channel": 0,
      "note": 45,
      "start": 43.703,
      "duration": 0.1454,
      "velocity": 99,
      "chip": "ym2612"
    },
    {
      "channel": 1,
      "note": 91,
      "start": 43.7142,
      "duration": 0.0773,
      "velocity": 96,
      "chip": "ym2612"
    },
    {
      "channel": 2,
      "note": 88,
      "start": 43.7254,
      "duration": 0.0665,
      "velocity": 96,
      "chip": "ym2612"
    },
    {
      "channel": 4,
      "note": 69,
      "start": 43.7315,
      "duration": 0.4502,
      "velocity": 88,
      "chip": "ym2612"
    },
    {
      "channel": 1,
      "note": 91,
      "start": 43.9432,
      "duration": 0.0759,
      "velocity": 96,
      "chip": "ym2612"
    },
    {
      "channel": 2,
      "note": 88,
      "start": 43.9435,
      "duration": 0.0759,
      "velocity": 96,
      "chip": "ym2612"
    },
    {
      "channel": 1,
      "note": 91,
      "start": 44.1707,
      "duration": 0.011,
      "velocity": 96,
      "chip": "ym2612"
    },
    {
      "channel": 2,
      "note": 88,
      "start": 44.171,
      "duration": 0.0107,
      "velocity": 96,
      "chip": "ym2612"
    },
    {
      "channel": 5,
      "note": 45,
      "start": 44.1817,
      "duration": 0.0,
      "velocity": 116,
      "chip": "ym2612"
    }
  ]
}