{
  "track_name": "18 - Mega Man 2- Quickman Stage",
  "duration_sec": 43.35,
  "sample_rate": 44100,
  "note_count": 1119,
  "unique_pitches": 53,
  "pitch_range": 80,
  "avg_note_duration": 0.2161,
  "reconstruction_stats": {
    "notes_reconstructed": 1119,
    "keyon_events": 1119,
    "keyoff_events": 1117,
    "orphan_keyons": 2,
    "unique_pitches": 53,
    "pitch_range": 80,
    "avg_duration_sec": 0.2161
  },
  "metadata": {
    "source": "M\\Mega Man - The Wily Wars\\18 - Mega Man 2- Quickman Stage.vgm"
  },
  "notes": [
    {
      "channel": 0,
      "note": 90,
      "start": 0.0,
      "duration": 0.0,
      "velocity": 1,
      "chip": "ym2612"
    },
    {
      "channel": 0,
      "note": 88,
      "start": 0.0,
      "duration": 0.2158,
      "velocity": 106,
      "chip": "ym2612"
    },
    {
      "channel": 1,
      "note": 65,
      "start": 0.0,
      "duration": 0.0,
      "velocity": 1,
      "chip": "ym2612"
    },
    {
      "channel": 2,
      "note": 85,
      "start": 0.0,
      "duration": 0.0,
      "velocity": 1,
      "chip": "ym2612"
    },
    {
      "channel": 3,
      "note": 66,
      "start": 0.0,
      "duration": 0.0,
      "velocity": 1,
      "chip": "ym2612"
    },
    {
      "channel": 4,
      "note": 90,
      "start": 0.0,
      "duration": 0.0,
      "velocity": 1,
      "chip": "ym2612"
    },
    {
      "channel": 5,
      "note": 32,
      "start": 0.0,
      "duration": 0.0,
      "velocity": 1,
      "chip": "ym2612"
    },
    {
      "channel": 1,
      "note": 57,
      "start": 0.0028,
      "duration": 0.2137,
      "velocity": 101,
      "chip": "ym2612"
    },
    {
      "channel": 2,
      "note": 72,
      "start": 0.006,
      "duration": 0.2112,
      "velocity": 106,
      "chip": "ym2612"
    },
    {
      "channel": 3,
      "note": 81,
      "start": 0.0093,
      "duration": 0.2088,
      "velocity": 106,
      "chip": "ym2612"
    },
    {
      "channel": 5,
      "note": 32,
      "start": 0.0105,
      "duration": 0.1209,
      "velocity": 114,
      "chip": "ym2612"
    },
    {
      "channel": 0,
      "note": 93,
      "start": 0.2165,
      "duration": 0.216,
      "velocity": 106,
      "chip": "ym2612"
    },
    {
      "channel": 1,
      "note": 52,
      "start": 0.2171,
      "duration": 0.2161,
      "velocity": 101,
      "chip": "ym2612"
    },
    {
      "channel": 2,
      "note": 76,
      "start": 0.218,
      "duration": 0.216,
      "velocity": 106,
      "chip": "ym2612"
    },
    {
      "channel": 3,
      "note": 84,
      "start": 0.2188,
      "duration": 0.216,
      "velocity": 106,
      "chip": "ym2612"
    },
    {
      "channel": 4,
      "note": 88,
      "start": 0.2225,
      "duration": 0.2131,
      "velocity": 106,
      "chip": "ym2612"
    },
    {
      "channel": 5,
      "note": 32,
      "start": 0.2233,
      "duration": 0.1417,
      "velocity": 114,
      "chip": "ym2612"
    },
    {
      "channel": 0,
      "note": 93,
      "start": 0.4331,
      "duration": 0.2134,
      "velocity": 106,
      "chip": "ym2612"
    },
    {
      "channel": 1,
      "note": 57,
      "start": 0.4338,
      "duration": 0.2136,
      "velocity": 101,
      "chip": "ym2612"
    },
    {
      "channel": 2,
      "note": 76,
      "start": 0.4346,
      "duration": 0.2133,
      "velocity": 106,
      "chip": "ym2612"
    },
    {
      "channel": 3,
      "note": 84,
      "start": 0.4355,
      "duration": 0.2133,
      "velocity": 106,
      "chip": "ym2612"
    },
    {
      "channel": 4,
      "note": 93,
      "start": 0.4363,
      "duration": 0.2133,
      "velocity": 106,
      "chip": "ym2612"
    },
    {
      "channel": 5,
      "note": 75,
      "start": 0.437,
      "duration": 0.3261,
      "velocity": 120,
      "chip": "ym2612"
    },
    {
      "channel": 0,
      "note": 93,
      "start": 0.6472,
      "duration": 0.1185,
      "velocity": 106,
      "chip": "ym2612"
    },
    {
      "channel": 1,
      "note": 57,
      "start": 0.6478,
      "duration": 0.1186,
      "velocity": 101,
      "chip": "ym2612"
    },
    {
      "channel": 2,
      "note": 76,
      "start": 0.6486,
      "duration": 0.1184,
      "velocity": 106,
      "chip": "ym2612"
    },
    {
      "channel": 3,
      "note": 84,
      "start": 0.6494,
      "duration": 0.1182,
      "velocity": 106,
      "chip": "ym2612"
    },
    {
      "channel": 4,
      "note": 93,
      "start": 0.6503,
      "duration": 0.2142,
      "velocity": 106,
      "chip": "ym2612"
    },
    {
      "channel": 0,
      "note": 93,
      "start": 0.7663,
      "duration": 0.097,
      "velocity": 106,
      "chip": "ym2612"
    },
    {
      "channel": 1,
      "note": 57,
      "start": 0.7668,
      "duration": 0.0967,
      "velocity": 101,
      "chip": "ym2612"
    },
    {
      "channel": 2,
      "note": 76,
      "start": 0.7675,
      "duration": 0.0964,
      "velocity": 106,
      "chip": "ym2612"
    },
    {
      "channel": 3,
      "note": 84,
      "start": 0.7681,
      "duration": 0.0961,
      "velocity": 106,
      "chip": "ym2612"
    },
    {
      "channel": 5,
      "note": 32,
      "start": 0.7693,
      "duration": 0.1446,
      "velocity": 114,
      "chip": "ym2612"
    },
    {
      "channel": 4,
      "note": 93,
      "start": 0.8652,
      "duration": 0.1204,
      "velocity": 106,
      "chip": "ym2612"
    },
    {
      "channel": 0,
      "note": 93,
      "start": 0.9831,
      "duration": 0.216,
      "velocity": 106,
      "chip": "ym2612"
    },
    {
      "channel": 1,
      "note": 57,
      "start": 0.9838,
      "duration": 0.2161,
      "velocity": 101,
      "chip": "ym2612"
    },
    {
      "channel": 2,
      "note": 76,
      "start": 0.9846,
      "duration": 0.216,
      "velocity": 106,
      "chip": "ym2612"
    },
    {
      "channel": 3,
      "note": 84,
      "start": 0.9855,
      "duration": 0.216,
      "velocity": 106,
      "chip": "ym2612"
    },
    {
      "channel": 4,
      "note": 93,
      "start": 0.9861,
      "duration": 0.1118,
      "velocity": 106,
      "chip": "ym2612"
    },
    {
      "channel": 5,
      "note": 32,
      "start": 0.9869,
      "duration": 0.1445,
      "velocity": 114,
      "chip": "ym2612"
    },
    {
      "channel": 0,
      "note": 88,
      "start": 1.1998,
      "duration": 0.116,
      "velocity": 106,
      "chip": "ym2612"
    },
    {
      "channel": 1,
      "note": 52,
      "start": 1.2005,
      "duration": 0.1161,
      "velocity": 101,
      "chip": "ym2612"
    },
    {
      "channel": 2,
      "note": 72,
      "start": 1.2013,
      "duration": 0.116,
      "velocity": 106,
      "chip": "ym2612"
    },
    {
      "channel": 3,
      "note": 81,
      "start": 1.2021,
      "duration": 0.116,
      "velocity": 106,
      "chip": "ym2612"
    },
    {
      "channel": 4,
      "note": 93,
      "start": 1.203,
      "duration": 0.2282,
      "velocity": 106,
      "chip": "ym2612"
    },
    {
      "channel": 5,
      "note": 32,
      "start": 1.2037,
      "duration": 0.1094,
      "velocity": 114,
      "chip": "ym2612"
    },
    {
      "channel": 0,
      "note": 84,
      "start": 1.3165,
      "duration": 0.216,
      "velocity": 106,
      "chip": "ym2612"
    },
    {
      "channel": 1,
      "note": 48,
      "start": 1.3171,
      "duration": 0.2161,
      "velocity": 101,
      "chip": "ym2612"
    },
    {
      "channel": 2,
      "note": 69,
      "start": 1.3179,
      "duration": 0.216,
      "velocity": 106,
      "chip": "ym2612"
    },
    {
      "channel": 3,
      "note": 76,
      "start": 1.3188,
      "duration": 0.216,
      "velocity": 106,
      "chip": "ym2612"
    },
    {
      "channel": 5,
      "note": 75,
      "start": 1.3198,
      "duration": 0.21,
      "velocity": 120,
      "chip": "ym2612"
    },
    {
      "channel": 4,
      "note": 88,
      "start": 1.4319,
      "duration": 0.1037,
      "velocity": 106,
      "chip": "ym2612"
    },
    {
      "channel": 0,
      "note": 93,
      "start": 1.5331,
      "duration": 0.2161,
      "velocity": 106,
      "chip": "ym2612"
    },
    {
      "channel": 1,
      "note": 57,
      "start": 1.5338,
      "duration": 0.2164,
      "velocity": 101,
      "chip": "ym2612"
    },
    {
      "channel": 2,
      "note": 76,
      "start": 1.5346,
      "duration": 0.2163,
      "velocity": 106,
      "chip": "ym2612"
    },
    {
      "channel": 3,
      "note": 84,
      "start": 1.5354,
      "duration": 0.2165,
      "velocity": 106,
      "chip": "ym2612"
    },
    {
      "channel": 4,
      "note": 84,
      "start": 1.5363,
      "duration": 0.2165,
      "velocity": 106,
      "chip": "ym2612"
    },
    {
      "channel": 5,
      "note": 32,
      "start": 1.5371,
      "duration": 0.1446,
      "velocity": 114,
      "chip": "ym2612"
    },
    {
      "channel": 0,
      "note": 88,
      "start": 1.75,
      "duration": 0.2324,
      "velocity": 106,
      "chip": "ym2612"
    },
    {
      "channel": 1,
      "note": 57,
      "start": 1.7508,
      "duration": 0.2324,
      "velocity": 101,
      "chip": "ym2612"
    },
    {
      "channel": 2,
      "note": 72,
      "start": 1.7517,
      "duration": 0.2322,
      "velocity": 106,
      "chip": "ym2612"
    },
    {
      "channel": 3,
      "note": 81,
      "start": 1.7527,
      "duration": 0.2321,
      "velocity": 106,
      "chip": "ym2612"
    },
    {
      "channel": 4,
      "note": 93,
      "start": 1.7535,
      "duration": 0.2322,
      "velocity": 106,
      "chip": "ym2612"
    },
    {
      "channel": 5,
      "note": 32,
      "start": 1.7542,
      "duration": 0.1441,
      "velocity": 114,
      "chip": "ym2612"
    },
    {
      "channel": 0,
      "note": 93,
      "start": 1.9831,
      "duration": 0.216,
      "velocity": 106,
      "chip": "ym2612"
    },
    {
      "channel": 1,
      "note": 52,
      "start": 1.9838,
      "duration": 0.2161,
      "velocity": 101,
      "chip": "ym2612"
    },
    {
      "channel": 2,
      "note": 76,
      "start": 1.9846,
      "duration": 0.216,
      "velocity": 106,
      "chip": "ym2612"
    },
    {
      "channel": 3,
      "note": 84,
      "start": 1.9854,
      "duration": 0.216,
      "velocity": 106,
      "chip": "ym2612"
    },
    {
      "channel": 4,
      "note": 88,
      "start": 1.9864,
      "duration": 0.2159,
      "velocity": 106,
      "chip": "ym2612"
    },
    {
      "channel": 5,
      "note": 32,
      "start": 1.9872,
      "duration": 0.1445,
      "velocity": 114,
      "chip": "ym2612"
    },
    {
      "channel": 0,
      "note": 93,
      "start": 2.1998,
      "duration": 0.2134,
      "velocity": 106,
      "chip": "ym2612"
    },
    {
      "channel": 1,
      "note": 57,
      "start": 2.2005,
      "duration": 0.2136,
      "velocity": 101,
      "chip": "ym2612"
    },
    {
      "channel": 2,
      "note": 76,
      "start": 2.2013,
      "duration": 0.2133,
      "velocity": 106,
      "chip": "ym2612"
    },
    {
      "channel": 3,
      "note": 84,
      "start": 2.2021,
      "duration": 0.2133,
      "velocity": 106,
      "chip": "ym2612"
    },
    {
      "channel": 4,
      "note": 93,
      "start": 2.203,
      "duration": 0.2133,
      "velocity": 106,
      "chip": "ym2612"
    },
    {
      "channel": 5,
      "note": 75,
      "start": 2.2037,
      "duration": 0.3261,
      "velocity": 120,
      "chip": "ym2612"
    },
    {
      "channel": 0,
      "note": 93,
      "start": 2.4139,
      "duration": 0.1185,
      "velocity": 106,
      "chip": "ym2612"
    },
    {
      "channel": 1,
      "note": 57,
      "start": 2.4145,
      "duration": 0.1186,
      "velocity": 101,
      "chip": "ym2612"
    },
    {
      "channel": 2,
      "note": 76,
      "start": 2.4152,
      "duration": 0.1184,
      "velocity": 106,
      "chip": "ym2612"
    },
    {
      "channel": 3,
      "note": 84,
      "start": 2.4161,
      "duration": 0.1181,
      "velocity": 106,
      "chip": "ym2612"
    },
    {
      "channel": 4,
      "note": 93,
      "start": 2.417,
      "duration": 0.2142,
      "velocity": 106,
      "chip": "ym2612"
    },
    {
      "channel": 0,
      "note": 93,
      "start": 2.5329,
      "duration": 0.097,
      "velocity": 106,
      "chip": "ym2612"
    },
    {
      "channel": 1,
      "note": 57,
      "start": 2.5335,
      "duration": 0.0967,
      "velocity": 101,
      "chip": "ym2612"
    },
    {
      "channel": 2,
      "note": 76,
      "start": 2.5341,
      "duration": 0.0964,
      "velocity": 106,
      "chip": "ym2612"
    },
    {
      "channel": 3,
      "note": 84,
      "start": 2.5348,
      "duration": 0.0961,
      "velocity": 106,
      "chip": "ym2612"
    },
    {
      "channel": 5,
      "note": 32,
      "start": 2.536,
      "duration": 0.1446,
      "velocity": 114,
      "chip": "ym2612"
    },
    {
      "channel": 4,
      "note": 93,
      "start": 2.6319,
      "duration": 0.1204,
      "velocity": 106,
      "chip": "ym2612"
    },
    {
      "channel": 0,
      "note": 93,
      "start": 2.7498,
      "duration": 0.216,
      "velocity": 106,
      "chip": "ym2612"
    },
    {
      "channel": 1,
      "note": 57,
      "start": 2.7505,
      "duration": 0.2161,
      "velocity": 101,
      "chip": "ym2612"
    },
    {
      "channel": 2,
      "note": 76,
      "start": 2.7513,
      "duration": 0.216,
      "velocity": 106,
      "chip": "ym2612"
    },
    {
      "channel": 3,
      "note": 84,
      "start": 2.7521,
      "duration": 0.216,
      "velocity": 106,
      "chip": "ym2612"
    },
    {
      "channel": 4,
      "note": 93,
      "start": 2.7528,
      "duration": 0.1118,
      "velocity": 106,
      "chip": "ym2612"
    },
    {
      "channel": 5,
      "note": 32,
      "start": 2.7536,
      "duration": 0.1445,
      "velocity": 114,
      "chip": "ym2612"
    },
    {
      "channel": 0,
      "note": 88,
      "start": 2.9665,
      "duration": 0.116,
      "velocity": 106,
      "chip": "ym2612"
    },
    {
      "channel": 1,
      "note": 52,
      "start": 2.9671,
      "duration": 0.1161,
      "velocity": 101,
      "chip": "ym2612"
    },
    {
      "channel": 2,
      "note": 72,
      "start": 2.968,
      "duration": 0.116,
      "velocity": 106,
      "chip": "ym2612"
    },
    {
      "channel": 3,
      "note": 81,
      "start": 2.9688,
      "duration": 0.116,
      "velocity": 106,
      "chip": "ym2612"
    },
    {
      "channel": 4,
      "note": 93,
      "start": 2.9696,
      "duration": 0.2282,
      "velocity": 106,
      "chip": "ym2612"
    },
    {
      "channel": 5,
      "note": 32,
      "start": 2.9704,
      "duration": 0.1094,
      "velocity": 114,
      "chip": "ym2612"
    },
    {
      "channel": 0,
      "note": 84,
      "start": 3.0831,
      "duration": 0.216,
      "velocity": 106,
      "chip": "ym2612"
    },
    {
      "channel": 1,
      "note": 48,
      "start": 3.0838,
      "duration": 0.2161,
      "velocity": 101,
      "chip": "ym2612"
    },
    {
      "channel": 2,
      "note": 69,
      "start": 3.0846,
      "duration": 0.216,
      "velocity": 106,
      "chip": "ym2612"
    },
    {
      "channel": 3,
      "note": 76,
      "start": 3.0855,
      "duration": 0.216,
      "velocity": 106,
      "chip": "ym2612"
    },
    {
      "channel": 5,
      "note": 75,
      "start": 3.0865,
      "duration": 0.21,
      "velocity": 120,
      "chip": "ym2612"
    },
    {
      "channel": 4,
      "note": 88,
      "start": 3.1986,
      "duration": 0.1037,
      "velocity": 106,
      "chip": "ym2612"
    },
    {
      "channel": 0,
      "note": 93,
      "start": 3.2998,
      "duration": 0.2163,
      "velocity": 106,
      "chip": "ym2612"
    },
    {
      "channel": 1,
      "note": 57,
      "start": 3.3005,
      "duration": 0.2166,
      "velocity": 101,
      "chip": "ym2612"
    },
    {
      "channel": 2,
      "note": 76,
      "start": 3.3013,
      "duration": 0.2165,
      "velocity": 106,
      "chip": "ym2612"
    },
    {
      "channel": 3,
      "note": 84,
      "start": 3.3021,
      "duration": 0.2167,
      "velocity": 106,
      "chip": "ym2612"
    },
    {
      "channel": 4,
      "note": 84,
      "start": 3.303,
      "duration": 0.2166,
      "velocity": 106,
      "chip": "ym2612"
    },
    {
      "channel": 5,
      "note": 32,
      "start": 3.3037,
      "duration": 0.1446,
      "velocity": 114,
      "chip": "ym2612"
    },
    {
      "channel": 0,
      "note": 86,
      "start": 3.5168,
      "duration": 0.2323,
      "velocity": 106,
      "chip": "ym2612"
    },
    {
      "channel": 1,
      "note": 55,
      "start": 3.5177,
      "duration": 0.2322,
      "velocity": 101,
      "chip": "ym2612"
    },
    {
      "channel": 2,
      "note": 71,
      "start": 3.5185,
      "duration": 0.2321,
      "velocity": 106,
      "chip": "ym2612"
    },
    {
      "channel": 3,
      "note": 79,
      "start": 3.5194,
      "duration": 0.232,
      "velocity": 106,
      "chip": "ym2612"
    },
    {
      "channel": 4,
      "note": 93,
      "start": 3.5203,
      "duration": 0.2322,
      "velocity": 106,
      "chip": "ym2612"
    },
    {
      "channel": 5,
      "note": 32,
      "start": 3.5211,
      "duration": 0.1439,
      "velocity": 114,
      "chip": "ym2612"
    },
    {
      "channel": 0,
      "note": 91,
      "start": 3.7498,
      "duration": 0.216,
      "velocity": 106,
      "chip": "ym2612"
    },
    {
      "channel": 1,
      "note": 50,
      "start": 3.7505,
      "duration": 0.2161,
      "velocity": 101,
      "chip": "ym2612"
    },
    {
      "channel": 2,
      "note": 74,
      "start": 3.7512,
      "duration": 0.216,
      "velocity": 106,
      "chip": "ym2612"
    },
    {
      "channel": 3,
      "note": 83,
      "start": 3.7521,
      "duration": 0.216,
      "velocity": 106,
      "chip": "ym2612"
    },
    {
      "channel": 4,
      "note": 86,
      "start": 3.7532,
      "duration": 0.2156,
      "velocity": 106,
      "chip": "ym2612"
    },
    {
      "channel": 5,
      "note": 32,
      "start": 3.754,
      "duration": 0.1277,
      "velocity": 114,
      "chip": "ym2612"
    },
    {
      "channel": 0,
      "note": 91,
      "start": 3.9665,
      "duration": 0.2134,
      "velocity": 106,
      "chip": "ym2612"
    },
    {
      "channel": 1,
      "note": 55,
      "start": 3.9671,
      "duration": 0.2136,
      "velocity": 101,
      "chip": "ym2612"
    },
    {
      "channel": 2,
      "note": 74,
      "start": 3.9679,
      "duration": 0.2134,
      "velocity": 106,
      "chip": "ym2612"
    },
    {
      "channel": 3,
      "note": 83,
      "start": 3.9688,
      "duration": 0.2134,
      "velocity": 106,
      "chip": "ym2612"
    },
    {
      "channel": 4,
      "note": 91,
      "start": 3.9696,
      "duration": 0.2134,
      "velocity": 106,
      "chip": "ym2612"
    },
    {
      "channel": 5,
      "note": 75,
      "start": 3.9703,
      "duration": 0.3262,
      "velocity": 120,
      "chip": "ym2612"
    },
    {
      "channel": 0,
      "note": 91,
      "start": 4.1805,
      "duration": 0.1186,
      "velocity": 106,
      "chip": "ym2612"
    },
    {
      "channel": 1,
      "note": 55,
      "start": 4.1811,
      "duration": 0.1186,
      "velocity": 101,
      "chip": "ym2612"
    },
    {
      "channel": 2,
      "note": 74,
      "start": 4.1819,
      "duration": 0.1184,
      "velocity": 106,
      "chip": "ym2612"
    },
    {
      "channel": 3,
      "note": 83,
      "start": 4.1827,
      "duration": 0.1182,
      "velocity": 106,
      "chip": "ym2612"
    },
    {
      "channel": 4,
      "note": 91,
      "start": 4.1836,
      "duration": 0.2143,
      "velocity": 106,
      "chip": "ym2612"
    },
    {
      "channel": 0,
      "note": 91,
      "start": 4.2996,
      "duration": 0.097,
      "velocity": 106,
      "chip": "ym2612"
    },
    {
      "channel": 1,
      "note": 55,
      "start": 4.3002,
      "duration": 0.0967,
      "velocity": 101,
      "chip": "ym2612"
    },
    {
      "channel": 2,
      "note": 74,
      "start": 4.3008,
      "duration": 0.0964,
      "velocity": 106,
      "chip": "ym2612"
    },
    {
      "channel": 3,
      "note": 83,
      "start": 4.3015,
      "duration": 0.0961,
      "velocity": 106,
      "chip": "ym2612"
    },
    {
      "channel": 5,
      "note": 32,
      "start": 4.3027,
      "duration": 0.1446,
      "velocity": 114,
      "chip": "ym2612"
    },
    {
      "channel": 4,
      "note": 91,
      "start": 4.3985,
      "duration": 0.1205,
      "velocity": 106,
      "chip": "ym2612"
    },
    {
      "channel": 0,
      "note": 91,
      "start": 4.5165,
      "duration": 0.216,
      "velocity": 106,
      "chip": "ym2612"
    },
    {
      "channel": 1,
      "note": 55,
      "start": 4.5171,
      "duration": 0.2161,
      "velocity": 101,
      "chip": "ym2612"
    },
    {
      "channel": 2,
      "note": 74,
      "start": 4.518,
      "duration": 0.216,
      "velocity": 106,
      "chip": "ym2612"
    },
    {
      "channel": 3,
      "note": 83,
      "start": 4.5188,
      "duration": 0.216,
      "velocity": 106,
      "chip": "ym2612"
    },
    {
      "channel": 4,
      "note": 91,
      "start": 4.5195,
      "duration": 0.1118,
      "velocity": 106,
      "chip": "ym2612"
    },
    {
      "channel": 5,
      "note": 32,
      "start": 4.5203,
      "duration": 0.1444,
      "velocity": 114,
      "chip": "ym2612"
    },
    {
      "channel": 0,
      "note": 86,
      "start": 4.7331,
      "duration": 0.116,
      "velocity": 106,
      "chip": "ym2612"
    },
    {
      "channel": 1,
      "note": 50,
      "start": 4.7338,
      "duration": 0.1161,
      "velocity": 101,
      "chip": "ym2612"
    },
    {
      "channel": 2,
      "note": 71,
      "start": 4.7346,
      "duration": 0.116,
      "velocity": 106,
      "chip": "ym2612"
    },
    {
      "channel": 3,
      "note": 79,
      "start": 4.7355,
      "duration": 0.116,
      "velocity": 106,
      "chip": "ym2612"
    },
    {
      "channel": 4,
      "note": 91,
      "start": 4.7363,
      "duration": 0.2116,
      "velocity": 106,
      "chip": "ym2612"
    },
    {
      "channel": 5,
      "note": 32,
      "start": 4.7371,
      "duration": 0.1094,
      "velocity": 114,
      "chip": "ym2612"
    },
    {
      "channel": 0,
      "note": 83,
      "start": 4.8498,
      "duration": 0.216,
      "velocity": 106,
      "chip": "ym2612"
    },
    {
      "channel": 1,
      "note": 47,
      "start": 4.8505,
      "duration": 0.2161,
      "velocity": 101,
      "chip": "ym2612"
    },
    {
      "channel": 2,
      "note": 67,
      "start": 4.8512,
      "duration": 0.216,
      "velocity": 106,
      "chip": "ym2612"
    },
    {
      "channel": 3,
      "note": 74,
      "start": 4.8521,
      "duration": 0.216,
      "velocity": 106,
      "chip": "ym2612"
    },
    {
      "channel": 5,
      "note": 75,
      "start": 4.8532,
      "duration": 0.21,
      "velocity": 120,
      "chip": "ym2612"
    },
    {
      "channel": 4,
      "note": 86,
      "start": 4.9486,
      "duration": 0.1203,
      "velocity": 106,
      "chip": "ym2612"
    },
    {
      "channel": 0,
      "note": 91,
      "start": 5.0665,
      "duration": 0.2163,
      "velocity": 106,
      "chip": "ym2612"
    },
    {
      "channel": 1,
      "note": 55,
      "start": 5.0671,
      "duration": 0.2166,
      "velocity": 101,
      "chip": "ym2612"
    },
    {
      "channel": 2,
      "note": 74,
      "start": 5.0679,
      "duration": 0.2166,
      "velocity": 106,
      "chip": "ym2612"
    },
    {
      "channel": 3,
      "note": 83,
      "start": 5.0688,
      "duration": 0.2167,
      "velocity": 106,
      "chip": "ym2612"
    },
    {
      "channel": 4,
      "note": 83,
      "start": 5.0696,
      "duration": 0.2167,
      "velocity": 106,
      "chip": "ym2612"
    },
    {
      "channel": 5,
      "note": 32,
      "start": 5.0704,
      "duration": 0.1446,
      "velocity": 114,
      "chip": "ym2612"
    },
    {
      "channel": 0,
      "note": 86,
      "start": 5.2835,
      "duration": 0.2323,
      "velocity": 106,
      "chip": "ym2612"
    },
    {
      "channel": 1,
      "note": 55,
      "start": 5.2843,
      "duration": 0.2322,
      "velocity": 101,
      "chip": "ym2612"
    },
    {
      "channel": 2,
      "note": 71,
      "start": 5.2852,
      "duration": 0.2321,
      "velocity": 106,
      "chip": "ym2612"
    },
    {
      "channel": 3,
      "note": 79,
      "start": 5.2861,
      "duration": 0.232,
      "velocity": 106,
      "chip": "ym2612"
    },
    {
      "channel": 4,
      "note": 91,
      "start": 5.2869,
      "duration": 0.2322,
      "velocity": 106,
      "chip": "ym2612"
    },
    {
      "channel": 5,
      "note": 32,
      "start": 5.2878,
      "duration": 0.1439,
      "velocity": 114,
      "chip": "ym2612"
    },
    {
      "channel": 0,
      "note": 91,
      "start": 5.5165,
      "duration": 0.216,
      "velocity": 106,
      "chip": "ym2612"
    },
    {
      "channel": 1,
      "note": 50,
      "start": 5.5171,
      "duration": 0.2161,
      "velocity": 101,
      "chip": "ym2612"
    },
    {
      "channel": 2,
      "note": 74,
      "start": 5.5179,
      "duration": 0.216,
      "velocity": 106,
      "chip": "ym2612"
    },
    {
      "channel": 3,
      "note": 83,
      "start": 5.5188,
      "duration": 0.216,
      "velocity": 106,
      "chip": "ym2612"
    },
    {
      "channel": 4,
      "note": 86,
      "start": 5.5199,
      "duration": 0.2156,
      "velocity": 106,
      "chip": "ym2612"
    },
    {
      "channel": 5,
      "note": 32,
      "start": 5.5207,
      "duration": 0.1276,
      "velocity": 114,
      "chip": "ym2612"
    },
    {
      "channel": 0,
      "note": 91,
      "start": 5.7331,
      "duration": 0.2134,
      "velocity": 106,
      "chip": "ym2612"
    },
    {
      "channel": 1,
      "note": 55,
      "start": 5.7338,
      "duration": 0.2136,
      "velocity": 101,
      "chip": "ym2612"
    },
    {
      "channel": 2,
      "note": 74,
      "start": 5.7346,
      "duration": 0.2134,
      "velocity": 106,
      "chip": "ym2612"
    },
    {
      "channel": 3,
      "note": 83,
      "start": 5.7354,
      "duration": 0.2134,
      "velocity": 106,
      "chip": "ym2612"
    },
    {
      "channel": 4,
      "note": 91,
      "start": 5.7362,
      "duration": 0.2134,
      "velocity": 106,
      "chip": "ym2612"
    },
    {
      "channel": 5,
      "note": 75,
      "start": 5.7369,
      "duration": 0.3262,
      "velocity": 120,
      "chip": "ym2612"
    },
    {
      "channel": 0,
      "note": 91,
      "start": 5.9472,
      "duration": 0.1186,
      "velocity": 106,
      "chip": "ym2612"
    },
    {
      "channel": 1,
      "note": 55,
      "start": 5.9478,
      "duration": 0.1186,
      "velocity": 101,
      "chip": "ym2612"
    },
    {
      "channel": 2,
      "note": 74,
      "start": 5.9486,
      "duration": 0.1184,
      "velocity": 106,
      "chip": "ym2612"
    },
    {
      "channel": 3,
      "note": 83,
      "start": 5.9494,
      "duration": 0.1182,
      "velocity": 106,
      "chip": "ym2612"
    },
    {
      "channel": 4,
      "note": 91,
      "start": 5.9502,
      "duration": 0.2143,
      "velocity": 106,
      "chip": "ym2612"
    },
    {
      "channel": 0,
      "note": 91,
      "start": 6.0663,
      "duration": 0.097,
      "velocity": 106,
      "chip": "ym2612"
    },
    {
      "channel": 1,
      "note": 55,
      "start": 6.0668,
      "duration": 0.0967,
      "velocity": 101,
      "chip": "ym2612"
    },
    {
      "channel": 2,
      "note": 74,
      "start": 6.0675,
      "duration": 0.0964,
      "velocity": 106,
      "chip": "ym2612"
    },
    {
      "channel": 3,
      "note": 83,
      "start": 6.0681,
      "duration": 0.0961,
      "velocity": 106,
      "chip": "ym2612"
    },
    {
      "channel": 5,
      "note": 32,
      "start": 6.0693,
      "duration": 0.128,
      "velocity": 114,
      "chip": "ym2612"
    },
    {
      "channel": 4,
      "note": 91,
      "start": 6.1652,
      "duration": 0.1204,
      "velocity": 106,
      "chip": "ym2612"
    },
    {
      "channel": 0,
      "note": 91,
      "start": 6.2831,
      "duration": 0.216,
      "velocity": 106,
      "chip": "ym2612"
    },
    {
      "channel": 1,
      "note": 55,
      "start": 6.2838,
      "duration": 0.2161,
      "velocity": 101,
      "chip": "ym2612"
    },
    {
      "channel": 2,
      "note": 74,
      "start": 6.2846,
      "duration": 0.216,
      "velocity": 106,
      "chip": "ym2612"
    },
    {
      "channel": 3,
      "note": 83,
      "start": 6.2855,
      "duration": 0.216,
      "velocity": 106,
      "chip": "ym2612"
    },
    {
      "channel": 4,
      "note": 91,
      "start": 6.2861,
      "duration": 0.1118,
      "velocity": 106,
      "chip": "ym2612"
    },
    {
      "channel": 5,
      "note": 32,
      "start": 6.2869,
      "duration": 0.1445,
      "velocity": 114,
      "chip": "ym2612"
    },
    {
      "channel": 0,
      "note": 86,
      "start": 6.4998,
      "duration": 0.116,
      "velocity": 106,
      "chip": "ym2612"
    },
    {
      "channel": 1,
      "note": 50,
      "start": 6.5005,
      "duration": 0.1161,
      "velocity": 101,
      "chip": "ym2612"
    },
    {
      "channel": 2,
      "note": 71,
      "start": 6.5013,
      "duration": 0.116,
      "velocity": 106,
      "chip": "ym2612"
    },
    {
      "channel": 3,
      "note": 79,
      "start": 6.5021,
      "duration": 0.116,
      "velocity": 106,
      "chip": "ym2612"
    },
    {
      "channel": 4,
      "note": 91,
      "start": 6.503,
      "duration": 0.2116,
      "velocity": 106,
      "chip": "ym2612"
    },
    {
      "channel": 5,
      "note": 32,
      "start": 6.5037,
      "duration": 0.1094,
      "velocity": 114,
      "chip": "ym2612"
    },
    {
      "channel": 0,
      "note": 83,
      "start": 6.6165,
      "duration": 0.216,
      "velocity": 106,
      "chip": "ym2612"
    },
    {
      "channel": 1,
      "note": 47,
      "start": 6.6171,
      "duration": 0.2161,
      "velocity": 101,
      "chip": "ym2612"
    },
    {
      "channel": 2,
      "note": 67,
      "start": 6.6179,
      "duration": 0.216,
      "velocity": 106,
      "chip": "ym2612"
    },
    {
      "channel": 3,
      "note": 74,
      "start": 6.6188,
      "duration": 0.216,
      "velocity": 106,
      "chip": "ym2612"
    },
    {
      "channel": 5,
      "note": 75,
      "start": 6.6198,
      "duration": 0.21,
      "velocity": 120,
      "chip": "ym2612"
    },
    {
      "channel": 4,
      "note": 86,
      "start": 6.7152,
      "duration": 0.1203,
      "velocity": 106,
      "chip": "ym2612"
    },
    {
      "channel": 0,
      "note": 91,
      "start": 6.8331,
      "duration": 0.2163,
      "velocity": 106,
      "chip": "ym2612"
    },
    {
      "channel": 1,
      "note": 55,
      "start": 6.8338,
      "duration": 0.2166,
      "velocity": 101,
      "chip": "ym2612"
    },
    {
      "channel": 2,
      "note": 74,
      "start": 6.8346,
      "duration": 0.2167,
      "velocity": 106,
      "chip": "ym2612"
    },
    {
      "channel": 3,
      "note": 83,
      "start": 6.8354,
      "duration": 0.2167,
      "velocity": 106,
      "chip": "ym2612"
    },
    {
      "channel": 4,
      "note": 83,
      "start": 6.8362,
      "duration": 0.2167,
      "velocity": 106,
      "chip": "ym2612"
    },
    {
      "channel": 5,
      "note": 32,
      "start": 6.8371,
      "duration": 0.1446,
      "velocity": 114,
      "chip": "ym2612"
    },
    {
      "channel": 0,
      "note": 88,
      "start": 7.0502,
      "duration": 0.2156,
      "velocity": 106,
      "chip": "ym2612"
    },
    {
      "channel": 1,
      "note": 57,
      "start": 7.051,
      "duration": 0.2156,
      "velocity": 101,
      "chip": "ym2612"
    },
    {
      "channel": 2,
      "note": 72,
      "start": 7.0519,
      "duration": 0.2154,
      "velocity": 106,
      "chip": "ym2612"
    },
    {
      "channel": 3,
      "note": 81,
      "start": 7.0528,
      "duration": 0.2153,
      "velocity": 106,
      "chip": "ym2612"
    },
    {
      "channel": 4,
      "note": 91,
      "start": 7.0536,
      "duration": 0.2156,
      "velocity": 106,
      "chip": "ym2612"
    },
    {
      "channel": 5,
      "note": 32,
      "start": 7.0544,
      "duration": 0.1439,
      "velocity": 114,
      "chip": "ym2612"
    },
    {
      "channel": 0,
      "note": 93,
      "start": 7.2665,
      "duration": 0.2326,
      "velocity": 106,
      "chip": "ym2612"
    },
    {
      "channel": 1,
      "note": 52,
      "start": 7.2671,
      "duration": 0.2328,
      "velocity": 101,
      "chip": "ym2612"
    },
    {
      "channel": 2,
      "note": 76,
      "start": 7.268,
      "duration": 0.2327,
      "velocity": 106,
      "chip": "ym2612"
    },
    {
      "channel": 3,
      "note": 84,
      "start": 7.2688,
      "duration": 0.2327,
      "velocity": 106,
      "chip": "ym2612"
    },
    {
      "channel": 4,
      "note": 88,
      "start": 7.2699,
      "duration": 0.2324,
      "velocity": 106,
      "chip": "ym2612"
    },
    {
      "channel": 5,
      "note": 32,
      "start": 7.2707,
      "duration": 0.1443,
      "velocity": 114,
      "chip": "ym2612"
    },
    {
      "channel": 0,
      "note": 93,
      "start": 7.4998,
      "duration": 0.2134,
      "velocity": 106,
      "chip": "ym2612"
    },
    {
      "channel": 1,
      "note": 57,
      "start": 7.5005,
      "duration": 0.2136,
      "velocity": 101,
      "chip": "ym2612"
    },
    {
      "channel": 2,
      "note": 76,
      "start": 7.5013,
      "duration": 0.2133,
      "velocity": 106,
      "chip": "ym2612"
    },
    {
      "channel": 3,
      "note": 84,
      "start": 7.5021,
      "duration": 0.2133,
      "velocity": 106,
      "chip": "ym2612"
    },
    {
      "channel": 4,
      "note": 93,
      "start": 7.503,
      "duration": 0.2133,
      "velocity": 106,
      "chip": "ym2612"
    },
    {
      "channel": 5,
      "note": 75,
      "start": 7.5037,
      "duration": 0.3261,
      "velocity": 120,
      "chip": "ym2612"
    },
    {
      "channel": 0,
      "note": 93,
      "start": 7.7139,
      "duration": 0.1185,
      "velocity": 106,
      "chip": "ym2612"
    },
    {
      "channel": 1,
      "note": 57,
      "start": 7.7145,
      "duration": 0.1186,
      "velocity": 101,
      "chip": "ym2612"
    },
    {
      "channel": 2,
      "note": 76,
      "start": 7.7152,
      "duration": 0.1184,
      "velocity": 106,
      "chip": "ym2612"
    },
    {
      "channel": 3,
      "note": 84,
      "start": 7.7161,
      "duration": 0.1181,
      "velocity": 106,
      "chip": "ym2612"
    },
    {
      "channel": 4,
      "note": 93,
      "start": 7.717,
      "duration": 0.2142,
      "velocity": 106,
      "chip": "ym2612"
    },
    {
      "channel": 0,
      "note": 93,
      "start": 7.8329,
      "duration": 0.097,
      "velocity": 106,
      "chip": "ym2612"
    },
    {
      "channel": 1,
      "note": 57,
      "start": 7.8335,
      "duration": 0.0967,
      "velocity": 101,
      "chip": "ym2612"
    },
    {
      "channel": 2,
      "note": 76,
      "start": 7.8341,
      "duration": 0.0964,
      "velocity": 106,
      "chip": "ym2612"
    },
    {
      "channel": 3,
      "note": 84,
      "start": 7.8348,
      "duration": 0.0961,
      "velocity": 106,
      "chip": "ym2612"
    },
    {
      "channel": 5,
      "note": 32,
      "start": 7.836,
      "duration": 0.128,
      "velocity": 114,
      "chip": "ym2612"
    },
    {
      "channel": 4,
      "note": 93,
      "start": 7.9319,
      "duration": 0.1204,
      "velocity": 106,
      "chip": "ym2612"
    },
    {
      "channel": 0,
      "note": 93,
      "start": 8.0498,
      "duration": 0.216,
      "velocity": 106,
      "chip": "ym2612"
    },
    {
      "channel": 1,
      "note": 57,
      "start": 8.0505,
      "duration": 0.2161,
      "velocity": 101,
      "chip": "ym2612"
    },
    {
      "channel": 2,
      "note": 76,
      "start": 8.0513,
      "duration": 0.216,
      "velocity": 106,
      "chip": "ym2612"
    },
    {
      "channel": 3,
      "note": 84,
      "start": 8.0521,
      "duration": 0.216,
      "velocity": 106,
      "chip": "ym2612"
    },
    {
      "channel": 4,
      "note": 93,
      "start": 8.0528,
      "duration": 0.0951,
      "velocity": 106,
      "chip": "ym2612"
    },
    {
      "channel": 5,
      "note": 32,
      "start": 8.0536,
      "duration": 0.1445,
      "velocity": 114,
      "chip": "ym2612"
    },
    {
      "channel": 0,
      "note": 88,
      "start": 8.2665,
      "duration": 0.116,
      "velocity": 106,
      "chip": "ym2612"
    },
    {
      "channel": 1,
      "note": 52,
      "start": 8.2671,
      "duration": 0.1161,
      "velocity": 101,
      "chip": "ym2612"
    },
    {
      "channel": 2,
      "note": 72,
      "start": 8.268,
      "duration": 0.116,
      "velocity": 106,
      "chip": "ym2612"
    },
    {
      "channel": 3,
      "note": 81,
      "start": 8.2688,
      "duration": 0.116,
      "velocity": 106,
      "chip": "ym2612"
    },
    {
      "channel": 4,
      "note": 93,
      "start": 8.2696,
      "duration": 0.2116,
      "velocity": 106,
      "chip": "ym2612"
    },
    {
      "channel": 5,
      "note": 32,
      "start": 8.2704,
      "duration": 0.1094,
      "velocity": 114,
      "chip": "ym2612"
    },
    {
      "channel": 0,
      "note": 84,
      "start": 8.3831,
      "duration": 0.216,
      "velocity": 106,
      "chip": "ym2612"
    },
    {
      "channel": 1,
      "note": 48,
      "start": 8.3838,
      "duration": 0.2161,
      "velocity": 101,
      "chip": "ym2612"
    },
    {
      "channel": 2,
      "note": 69,
      "start": 8.3846,
      "duration": 0.216,
      "velocity": 106,
      "chip": "ym2612"
    },
    {
      "channel": 3,
      "note": 76,
      "start": 8.3854,
      "duration": 0.216,
      "velocity": 106,
      "chip": "ym2612"
    },
    {
      "channel": 5,
      "note": 75,
      "start": 8.3865,
      "duration": 0.21,
      "velocity": 120,
      "chip": "ym2612"
    },
    {
      "channel": 4,
      "note": 88,
      "start": 8.482,
      "duration": 0.1203,
      "velocity": 106,
      "chip": "ym2612"
    },
    {
      "channel": 0,
      "note": 93,
      "start": 8.5998,
      "duration": 0.2161,
      "velocity": 106,
      "chip": "ym2612"
    },
    {
      "channel": 1,
      "note": 57,
      "start": 8.6005,
      "duration": 0.2164,
      "velocity": 101,
      "chip": "ym2612"
    },
    {
      "channel": 2,
      "note": 76,
      "start": 8.6013,
      "duration": 0.2163,
      "velocity": 106,
      "chip": "ym2612"
    },
    {
      "channel": 3,
      "note": 84,
      "start": 8.6021,
      "duration": 0.2165,
      "velocity": 106,
      "chip": "ym2612"
    },
    {
      "channel": 4,
      "note": 84,
      "start": 8.603,
      "duration": 0.2165,
      "velocity": 106,
      "chip": "ym2612"
    },
    {
      "channel": 5,
      "note": 32,
      "start": 8.6037,
      "duration": 0.1446,
      "velocity": 114,
      "chip": "ym2612"
    },
    {
      "channel": 0,
      "note": 88,
      "start": 8.8166,
      "duration": 0.2158,
      "velocity": 106,
      "chip": "ym2612"
    },
    {
      "channel": 1,
      "note": 57,
      "start": 8.8175,
      "duration": 0.2158,
      "velocity": 101,
      "chip": "ym2612"
    },
    {
      "channel": 2,
      "note": 72,
      "start": 8.8184,
      "duration": 0.2156,
      "velocity": 106,
      "chip": "ym2612"
    },
    {
      "channel": 3,
      "note": 81,
      "start": 8.8193,
      "duration": 0.2155,
      "velocity": 106,
      "chip": "ym2612"
    },
    {
      "channel": 4,
      "note": 93,
      "start": 8.8201,
      "duration": 0.2155,
      "velocity": 106,
      "chip": "ym2612"
    },
    {
      "channel": 5,
      "note": 32,
      "start": 8.8209,
      "duration": 0.1441,
      "velocity": 114,
      "chip": "ym2612"
    },
    {
      "channel": 0,
      "note": 93,
      "start": 9.0331,
      "duration": 0.2326,
      "velocity": 106,
      "chip": "ym2612"
    },
    {
      "channel": 1,
      "note": 52,
      "start": 9.0338,
      "duration": 0.2328,
      "velocity": 101,
      "chip": "ym2612"
    },
    {
      "channel": 2,
      "note": 76,
      "start": 9.0346,
      "duration": 0.2327,
      "velocity": 106,
      "chip": "ym2612"
    },
    {
      "channel": 3,
      "note": 84,
      "start": 9.0354,
      "duration": 0.2327,
      "velocity": 106,
      "chip": "ym2612"
    },
    {
      "channel": 4,
      "note": 88,
      "start": 9.0364,
      "duration": 0.2326,
      "velocity": 106,
      "chip": "ym2612"
    },
    {
      "channel": 5,
      "note": 32,
      "start": 9.0372,
      "duration": 0.1445,
      "velocity": 114,
      "chip": "ym2612"
    },
    {
      "channel": 0,
      "note": 93,
      "start": 9.2665,
      "duration": 0.2134,
      "velocity": 106,
      "chip": "ym2612"
    },
    {
      "channel": 1,
      "note": 57,
      "start": 9.2671,
      "duration": 0.2136,
      "velocity": 101,
      "chip": "ym2612"
    },
    {
      "channel": 2,
      "note": 76,
      "start": 9.268,
      "duration": 0.2133,
      "velocity": 106,
      "chip": "ym2612"
    },
    {
      "channel": 3,
      "note": 84,
      "start": 9.2688,
      "duration": 0.2133,
      "velocity": 106,
      "chip": "ym2612"
    },
    {
      "channel": 4,
      "note": 93,
      "start": 9.2696,
      "duration": 0.2133,
      "velocity": 106,
      "chip": "ym2612"
    },
    {
      "channel": 5,
      "note": 75,
      "start": 9.2703,
      "duration": 0.3261,
      "velocity": 120,
      "chip": "ym2612"
    },
    {
      "channel": 0,
      "note": 93,
      "start": 9.4806,
      "duration": 0.1185,
      "velocity": 106,
      "chip": "ym2612"
    },
    {
      "channel": 1,
      "note": 57,
      "start": 9.4811,
      "duration": 0.1186,
      "velocity": 101,
      "chip": "ym2612"
    },
    {
      "channel": 2,
      "note": 76,
      "start": 9.4819,
      "duration": 0.1184,
      "velocity": 106,
      "chip": "ym2612"
    },
    {
      "channel": 3,
      "note": 84,
      "start": 9.4827,
      "duration": 0.1182,
      "velocity": 106,
      "chip": "ym2612"
    },
    {
      "channel": 4,
      "note": 93,
      "start": 9.4836,
      "duration": 0.2142,
      "velocity": 106,
      "chip": "ym2612"
    },
    {
      "channel": 0,
      "note": 93,
      "start": 9.5996,
      "duration": 0.097,
      "velocity": 106,
      "chip": "ym2612"
    },
    {
      "channel": 1,
      "note": 57,
      "start": 9.6002,
      "duration": 0.0967,
      "velocity": 101,
      "chip": "ym2612"
    },
    {
      "channel": 2,
      "note": 76,
      "start": 9.6008,
      "duration": 0.0964,
      "velocity": 106,
      "chip": "ym2612"
    },
    {
      "channel": 3,
      "note": 84,
      "start": 9.6015,
      "duration": 0.0961,
      "velocity": 106,
      "chip": "ym2612"
    },
    {
      "channel": 5,
      "note": 32,
      "start": 9.6027,
      "duration": 0.128,
      "velocity": 114,
      "chip": "ym2612"
    },
    {
      "channel": 4,
      "note": 93,
      "start": 9.6985,
      "duration": 0.1204,
      "velocity": 106,
      "chip": "ym2612"
    },
    {
      "channel": 0,
      "note": 93,
      "start": 9.8165,
      "duration": 0.216,
      "velocity": 106,
      "chip": "ym2612"
    },
    {
      "channel": 1,
      "note": 57,
      "start": 9.8171,
      "duration": 0.2161,
      "velocity": 101,
      "chip": "ym2612"
    },
    {
      "channel": 2,
      "note": 76,
      "start": 9.818,
      "duration": 0.216,
      "velocity": 106,
      "chip": "ym2612"
    },
    {
      "channel": 3,
      "note": 84,
      "start": 9.8188,
      "duration": 0.216,
      "velocity": 106,
      "chip": "ym2612"
    },
    {
      "channel": 4,
      "note": 93,
      "start": 9.8194,
      "duration": 0.0952,
      "velocity": 106,
      "chip": "ym2612"
    },
    {
      "channel": 5,
      "note": 32,
      "start": 9.8203,
      "duration": 0.1445,
      "velocity": 114,
      "chip": "ym2612"
    },
    {
      "channel": 0,
      "note": 88,
      "start": 10.0331,
      "duration": 0.116,
      "velocity": 106,
      "chip": "ym2612"
    },
    {
      "channel": 1,
      "note": 52,
      "start": 10.0338,
      "duration": 0.1161,
      "velocity": 101,
      "chip": "ym2612"
    },
    {
      "channel": 2,
      "note": 72,
      "start": 10.0346,
      "duration": 0.116,
      "velocity": 106,
      "chip": "ym2612"
    },
    {
      "channel": 3,
      "note": 81,
      "start": 10.0355,
      "duration": 0.116,
      "velocity": 106,
      "chip": "ym2612"
    },
    {
      "channel": 4,
      "note": 93,
      "start": 10.0363,
      "duration": 0.2116,
      "velocity": 106,
      "chip": "ym2612"
    },
    {
      "channel": 5,
      "note": 32,
      "start": 10.0371,
      "duration": 0.1094,
      "velocity": 114,
      "chip": "ym2612"
    },
    {
      "channel": 0,
      "note": 84,
      "start": 10.1498,
      "duration": 0.216,
      "velocity": 106,
      "chip": "ym2612"
    },
    {
      "channel": 1,
      "note": 48,
      "start": 10.1505,
      "duration": 0.2161,
      "velocity": 101,
      "chip": "ym2612"
    },
    {
      "channel": 2,
      "note": 69,
      "start": 10.1512,
      "duration": 0.216,
      "velocity": 106,
      "chip": "ym2612"
    },
    {
      "channel": 3,
      "note": 76,
      "start": 10.1521,
      "duration": 0.216,
      "velocity": 106,
      "chip": "ym2612"
    },
    {
      "channel": 5,
      "note": 75,
      "start": 10.1532,
      "duration": 0.21,
      "velocity": 120,
      "chip": "ym2612"
    },
    {
      "channel": 4,
      "note": 88,
      "start": 10.2486,
      "duration": 0.1204,
      "velocity": 106,
      "chip": "ym2612"
    },
    {
      "channel": 0,
      "note": 93,
      "start": 10.3665,
      "duration": 0.2163,
      "velocity": 106,
      "chip": "ym2612"
    },
    {
      "channel": 1,
      "note": 57,
      "start": 10.3671,
      "duration": 0.2166,
      "velocity": 101,
      "chip": "ym2612"
    },
    {
      "channel": 2,
      "note": 76,
      "start": 10.368,
      "duration": 0.2165,
      "velocity": 106,
      "chip": "ym2612"
    },
    {
      "channel": 3,
      "note": 84,
      "start": 10.3688,
      "duration": 0.2167,
      "velocity": 106,
      "chip": "ym2612"
    },
    {
      "channel": 4,
      "note": 84,
      "start": 10.3696,
      "duration": 0.2166,
      "velocity": 106,
      "chip": "ym2612"
    },
    {
      "channel": 5,
      "note": 32,
      "start": 10.3704,
      "duration": 0.1446,
      "velocity": 114,
      "chip": "ym2612"
    },
    {
      "channel": 0,
      "note": 86,
      "start": 10.5835,
      "duration": 0.2156,
      "velocity": 106,
      "chip": "ym2612"
    },
    {
      "channel": 1,
      "note": 55,
      "start": 10.5843,
      "duration": 0.2156,
      "velocity": 101,
      "chip": "ym2612"
    },
    {
      "channel": 2,
      "note": 71,
      "start": 10.5852,
      "duration": 0.2154,
      "velocity": 106,
      "chip": "ym2612"
    },
    {
      "channel": 3,
      "note": 79,
      "start": 10.5861,
      "duration": 0.2154,
      "velocity": 106,
      "chip": "ym2612"
    },
    {
      "channel": 4,
      "note": 93,
      "start": 10.5869,
      "duration": 0.2156,
      "velocity": 106,
      "chip": "ym2612"
    },
    {
      "channel": 5,
      "note": 32,
      "start": 10.5878,
      "duration": 0.1439,
      "velocity": 114,
      "chip": "ym2612"
    },
    {
      "channel": 0,
      "note": 91,
      "start": 10.7998,
      "duration": 0.2326,
      "velocity": 106,
      "chip": "ym2612"
    },
    {
      "channel": 1,
      "note": 50,
      "start": 10.8005,
      "duration": 0.2328,
      "velocity": 101,
      "chip": "ym2612"
    },
    {
      "channel": 2,
      "note": 74,
      "start": 10.8012,
      "duration": 0.2327,
      "velocity": 106,
      "chip": "ym2612"
    },
    {
      "channel": 3,
      "note": 83,
      "start": 10.8021,
      "duration": 0.2327,
      "velocity": 106,
      "chip": "ym2612"
    },
    {
      "channel": 4,
      "note": 86,
      "start": 10.8032,
      "duration": 0.2323,
      "velocity": 106,
      "chip": "ym2612"
    },
    {
      "channel": 5,
      "note": 32,
      "start": 10.804,
      "duration": 0.1443,
      "velocity": 114,
      "chip": "ym2612"
    },
    {
      "channel": 0,
      "note": 91,
      "start": 11.0331,
      "duration": 0.2134,
      "velocity": 106,
      "chip": "ym2612"
    },
    {
      "channel": 1,
      "note": 55,
      "start": 11.0338,
      "duration": 0.2136,
      "velocity": 101,
      "chip": "ym2612"
    },
    {
      "channel": 2,
      "note": 74,
      "start": 11.0346,
      "duration": 0.2134,
      "velocity": 106,
      "chip": "ym2612"
    },
    {
      "channel": 3,
      "note": 83,
      "start": 11.0354,
      "duration": 0.2134,
      "velocity": 106,
      "chip": "ym2612"
    },
    {
      "channel": 4,
      "note": 91,
      "start": 11.0362,
      "duration": 0.2134,
      "velocity": 106,
      "chip": "ym2612"
    },
    {
      "channel": 5,
      "note": 75,
      "start": 11.0369,
      "duration": 0.3095,
      "velocity": 120,
      "chip": "ym2612"
    },
    {
      "channel": 0,
      "note": 91,
      "start": 11.2472,
      "duration": 0.1019,
      "velocity": 106,
      "chip": "ym2612"
    },
    {
      "channel": 1,
      "note": 55,
      "start": 11.2478,
      "duration": 0.102,
      "velocity": 101,
      "chip": "ym2612"
    },
    {
      "channel": 2,
      "note": 74,
      "start": 11.2486,
      "duration": 0.1017,
      "velocity": 106,
      "chip": "ym2612"
    },
    {
      "channel": 3,
      "note": 83,
      "start": 11.2494,
      "duration": 0.1015,
      "velocity": 106,
      "chip": "ym2612"
    },
    {
      "channel": 4,
      "note": 91,
      "start": 11.2502,
      "duration": 0.2143,
      "velocity": 106,
      "chip": "ym2612"
    },
    {
      "channel": 0,
      "note": 91,
      "start": 11.3496,
      "duration": 0.1136,
      "velocity": 106,
      "chip": "ym2612"
    },
    {
      "channel": 1,
      "note": 55,
      "start": 11.3502,
      "duration": 0.1134,
      "velocity": 101,
      "chip": "ym2612"
    },
    {
      "channel": 2,
      "note": 74,
      "start": 11.3508,
      "duration": 0.113,
      "velocity": 106,
      "chip": "ym2612"
    },
    {
      "channel": 3,
      "note": 83,
      "start": 11.3515,
      "duration": 0.1127,
      "velocity": 106,
      "chip": "ym2612"
    },
    {
      "channel": 5,
      "note": 32,
      "start": 11.3527,
      "duration": 0.1446,
      "velocity": 114,
      "chip": "ym2612"
    },
    {
      "channel": 4,
      "note": 91,
      "start": 11.4652,
      "duration": 0.1204,
      "velocity": 106,
      "chip": "ym2612"
    },
    {
      "channel": 0,
      "note": 91,
      "start": 11.5831,
      "duration": 0.216,
      "velocity": 106,
      "chip": "ym2612"
    },
    {
      "channel": 1,
      "note": 55,
      "start": 11.5838,
      "duration": 0.2161,
      "velocity": 101,
      "chip": "ym2612"
    },
    {
      "channel": 2,
      "note": 74,
      "start": 11.5846,
      "duration": 0.216,
      "velocity": 106,
      "chip": "ym2612"
    },
    {
      "channel": 3,
      "note": 83,
      "start": 11.5855,
      "duration": 0.216,
      "velocity": 106,
      "chip": "ym2612"
    },
    {
      "channel": 4,
      "note": 91,
      "start": 11.5861,
      "duration": 0.0951,
      "velocity": 106,
      "chip": "ym2612"
    },
    {
      "channel": 5,
      "note": 32,
      "start": 11.5869,
      "duration": 0.1445,
      "velocity": 114,
      "chip": "ym2612"
    },
    {
      "channel": 0,
      "note": 86,
      "start": 11.7998,
      "duration": 0.116,
      "velocity": 106,
      "chip": "ym2612"
    },
    {
      "channel": 1,
      "note": 50,
      "start": 11.8005,
      "duration": 0.1161,
      "velocity": 101,
      "chip": "ym2612"
    },
    {
      "channel": 2,
      "note": 71,
      "start": 11.8013,
      "duration": 0.116,
      "velocity": 106,
      "chip": "ym2612"
    },
    {
      "channel": 3,
      "note": 79,
      "start": 11.8021,
      "duration": 0.116,
      "velocity": 106,
      "chip": "ym2612"
    },
    {
      "channel": 4,
      "note": 91,
      "start": 11.803,
      "duration": 0.2116,
      "velocity": 106,
      "chip": "ym2612"
    },
    {
      "channel": 5,
      "note": 32,
      "start": 11.8037,
      "duration": 0.1094,
      "velocity": 114,
      "chip": "ym2612"
    },
    {
      "channel": 0,
      "note": 83,
      "start": 11.9165,
      "duration": 0.216,
      "velocity": 106,
      "chip": "ym2612"
    },
    {
      "channel": 1,
      "note": 47,
      "start": 11.9171,
      "duration": 0.2161,
      "velocity": 101,
      "chip": "ym2612"
    },
    {
      "channel": 2,
      "note": 67,
      "start": 11.9179,
      "duration": 0.216,
      "velocity": 106,
      "chip": "ym2612"
    },
    {
      "channel": 3,
      "note": 74,
      "start": 11.9188,
      "duration": 0.216,
      "velocity": 106,
      "chip": "ym2612"
    },
    {
      "channel": 5,
      "note": 75,
      "start": 11.9198,
      "duration": 0.21,
      "velocity": 120,
      "chip": "ym2612"
    },
    {
      "channel": 4,
      "note": 86,
      "start": 12.0153,
      "duration": 0.1202,
      "velocity": 106,
      "chip": "ym2612"
    },
    {
      "channel": 0,
      "note": 91,
      "start": 12.1331,
      "duration": 0.2162,
      "velocity": 106,
      "chip": "ym2612"
    },
    {
      "channel": 1,
      "note": 55,
      "start": 12.1338,
      "duration": 0.2165,
      "velocity": 101,
      "chip": "ym2612"
    },
    {
      "channel": 2,
      "note": 74,
      "start": 12.1346,
      "duration": 0.2166,
      "velocity": 106,
      "chip": "ym2612"
    },
    {
      "channel": 3,
      "note": 83,
      "start": 12.1354,
      "duration": 0.2171,
      "velocity": 106,
      "chip": "ym2612"
    },
    {
      "channel": 4,
      "note": 83,
      "start": 12.1362,
      "duration": 0.2166,
      "velocity": 106,
      "chip": "ym2612"
    },
    {
      "channel": 5,
      "note": 32,
      "start": 12.1371,
      "duration": 0.1446,
      "velocity": 114,
      "chip": "ym2612"
    },
    {
      "channel": 0,
      "note": 74,
      "start": 12.35,
      "duration": 0.1132,
      "velocity": 106,
      "chip": "ym2612"
    },
    {
      "channel": 1,
      "note": 55,
      "start": 12.3509,
      "duration": 0.2157,
      "velocity": 101,
      "chip": "ym2612"
    },
    {
      "channel": 2,
      "note": 71,
      "start": 12.3518,
      "duration": 0.1125,
      "velocity": 106,
      "chip": "ym2612"
    },
    {
      "channel": 4,
      "note": 91,
      "start": 12.3535,
      "duration": 0.2153,
      "velocity": 106,
      "chip": "ym2612"
    },
    {
      "channel": 5,
      "note": 32,
      "start": 12.3543,
      "duration": 0.144,
      "velocity": 114,
      "chip": "ym2612"
    },
    {
      "channel": 0,
      "note": 79,
      "start": 12.4639,
      "duration": 0.1019,
      "velocity": 106,
      "chip": "ym2612"
    },
    {
      "channel": 2,
      "note": 74,
      "start": 12.465,
      "duration": 0.1022,
      "velocity": 106,
      "chip": "ym2612"
    },
    {
      "channel": 3,
      "note": 74,
      "start": 12.4658,
      "duration": 0.1021,
      "velocity": 106,
      "chip": "ym2612"
    },
    {
      "channel": 0,
      "note": 83,
      "start": 12.5665,
      "duration": 0.1134,
      "velocity": 106,
      "chip": "ym2612"
    },
    {
      "channel": 1,
      "note": 55,
      "start": 12.567,
      "duration": 0.2324,
      "velocity": 101,
      "chip": "ym2612"
    },
    {
      "channel": 2,
      "note": 79,
      "start": 12.5678,
      "duration": 0.1132,
      "velocity": 106,
      "chip": "ym2612"
    },
    {
      "channel": 3,
      "note": 79,
      "start": 12.5686,
      "duration": 0.1132,
      "velocity": 106,
      "chip": "ym2612"
    },
    {
      "channel": 4,
      "note": 74,
      "start": 12.5695,
      "duration": 0.1132,
      "velocity": 106,
      "chip": "ym2612"
    },
    {
      "channel": 5,
      "note": 32,
      "start": 12.5703,
      "duration": 0.1446,
      "velocity": 114,
      "chip": "ym2612"
    },
    {
      "channel": 0,
      "note": 86,
      "start": 12.6805,
      "duration": 0.1186,
      "velocity": 106,
      "chip": "ym2612"
    },
    {
      "channel": 2,
      "note": 83,
      "start": 12.6817,
      "duration": 0.1183,
      "velocity": 106,
      "chip": "ym2612"
    },
    {
      "channel": 3,
      "note": 83,
      "start": 12.6825,
      "duration": 0.1178,
      "velocity": 106,
      "chip": "ym2612"
    },
    {
      "channel": 4,
      "note": 79,
      "start": 12.6833,
      "duration": 0.1178,
      "velocity": 106,
      "chip": "ym2612"
    },
    {
      "channel": 1,
      "note": 55,
      "start": 12.7998,
      "duration": 0.2142,
      "velocity": 101,
      "chip": "ym2612"
    },
    {
      "channel": 3,
      "note": 86,
      "start": 12.801,
      "duration": 0.2144,
      "velocity": 106,
      "chip": "ym2612"
    },
    {
      "channel": 4,
      "note": 83,
      "start": 12.8018,
      "duration": 0.097,
      "velocity": 106,
      "chip": "ym2612"
    },
    {
      "channel": 5,
      "note": 75,
      "start": 12.8025,
      "duration": 0.3106,
      "velocity": 120,
      "chip": "ym2612"
    },
    {
      "channel": 0,
      "note": 86,
      "start": 12.8972,
      "duration": 0.116,
      "velocity": 106,
      "chip": "ym2612"
    },
    {
      "channel": 2,
      "note": 83,
      "start": 12.8983,
      "duration": 0.1163,
      "velocity": 106,
      "chip": "ym2612"
    },
    {
      "channel": 4,
      "note": 86,
      "start": 12.8995,
      "duration": 0.1167,
      "velocity": 106,
      "chip": "ym2612"
    },
    {
      "channel": 0,
      "note": 91,
      "start": 13.0139,
      "duration": 0.1019,
      "velocity": 106,
      "chip": "ym2612"
    },
    {
      "channel": 1,
      "note": 55,
      "start": 13.0144,
      "duration": 0.1022,
      "velocity": 101,
      "chip": "ym2612"
    },
    {
      "channel": 2,
      "note": 86,
      "start": 13.0152,
      "duration": 0.102,
      "velocity": 106,
      "chip": "ym2612"
    },
    {
      "channel": 3,
      "note": 86,
      "start": 13.0161,
      "duration": 0.102,
      "velocity": 106,
      "chip": "ym2612"
    },
    {
      "channel": 0,
      "note": 95,
      "start": 13.1165,
      "duration": 0.1134,
      "velocity": 106,
      "chip": "ym2612"
    },
    {
      "channel": 1,
      "note": 43,
      "start": 13.1171,
      "duration": 0.1136,
      "velocity": 101,
      "chip": "ym2612"
    },
    {
      "channel": 2,
      "note": 91,
      "start": 13.1179,
      "duration": 0.1135,
      "velocity": 106,
      "chip": "ym2612"
    },
    {
      "channel": 3,
      "note": 91,
      "start": 13.1188,
      "duration": 0.1135,
      "velocity": 106,
      "chip": "ym2612"
    },
    {
      "channel": 4,
      "note": 86,
      "start": 13.1196,
      "duration": 0.1135,
      "velocity": 106,
      "chip": "ym2612"
    },
    {
      "channel": 5,
      "note": 32,
      "start": 13.1204,
      "duration": 0.1446,
      "velocity": 114,
      "chip": "ym2612"
    },
    {
      "channel": 0,
      "note": 98,
      "start": 13.2306,
      "duration": 0.216,
      "velocity": 106,
      "chip": "ym2612"
    },
    {
      "channel": 1,
      "note": 55,
      "start": 13.2313,
      "duration": 0.2156,
      "velocity": 101,
      "chip": "ym2612"
    },
    {
      "channel": 2,
      "note": 95,
      "start": 13.2321,
      "duration": 0.2151,
      "velocity": 106,
      "chip": "ym2612"
    },
    {
      "channel": 3,
      "note": 95,
      "start": 13.2329,
      "duration": 0.1172,
      "velocity": 106,
      "chip": "ym2612"
    },
    {
      "channel": 4,
      "note": 91,
      "start": 13.2338,
      "duration": 0.1172,
      "velocity": 106,
      "chip": "ym2612"
    },
    {
      "channel": 3,
      "note": 98,
      "start": 13.3508,
      "duration": 0.3219,
      "velocity": 106,
      "chip": "ym2612"
    },
    {
      "channel": 4,
      "note": 95,
      "start": 13.3516,
      "duration": 0.0962,
      "velocity": 106,
      "chip": "ym2612"
    },
    {
      "channel": 5,
      "note": 32,
      "start": 13.3524,
      "duration": 0.1284,
      "velocity": 114,
      "chip": "ym2612"
    },
    {
      "channel": 4,
      "note": 98,
      "start": 13.4485,
      "duration": 0.2245,
      "velocity": 106,
      "chip": "ym2612"
    },
    {
      "channel": 5,
      "note": 32,
      "start": 13.5674,
      "duration": 0.0957,
      "velocity": 114,
      "chip": "ym2612"
    },
    {
      "channel": 0,
      "note": 91,
      "start": 13.6689,
      "duration": 0.2302,
      "velocity": 110,
      "chip": "ym2612"
    },
    {
      "channel": 1,
      "note": 43,
      "start": 13.6696,
      "duration": 0.2303,
      "velocity": 101,
      "chip": "ym2612"
    },
    {
      "channel": 2,
      "note": 86,
      "start": 13.6725,
      "duration": 0.2281,
      "velocity": 110,
      "chip": "ym2612"
    },
    {
      "channel": 5,
      "note": 75,
      "start": 13.6739,
      "duration": 0.1059,
      "velocity": 120,
      "chip": "ym2612"
    },
    {
      "channel": 5,
      "note": 75,
      "start": 13.7842,
      "duration": 0.1123,
      "velocity": 120,
      "chip": "ym2612"
    },
    {
      "channel": 0,
      "note": 92,
      "start": 13.8998,
      "duration": 0.2161,
      "velocity": 110,
      "chip": "ym2612"
    },
    {
      "channel": 1,
      "note": 55,
      "start": 13.9005,
      "duration": 0.2163,
      "velocity": 101,
      "chip": "ym2612"
    },
    {
      "channel": 2,
      "note": 86,
      "start": 13.9012,
      "duration": 0.2163,
      "velocity": 110,
      "chip": "ym2612"
    },
    {
      "channel": 4,
      "note": 91,
      "start": 13.9048,
      "duration": 0.2149,
      "velocity": 110,
      "chip": "ym2612"
    },
    {
      "channel": 5,
      "note": 75,
      "start": 13.9055,
      "duration": 0.091,
      "velocity": 120,
      "chip": "ym2612"
    },
    {
      "channel": 5,
      "note": 75,
      "start": 14.0011,
      "duration": 0.1121,
      "velocity": 120,
      "chip": "ym2612"
    },
    {
      "channel": 0,
      "note": 93,
      "start": 14.1166,
      "duration": 2.6466,
      "velocity": 110,
      "chip": "ym2612"
    },
    {
      "channel": 1,
      "note": 57,
      "start": 14.1174,
      "duration": 0.2154,
      "velocity": 101,
      "chip": "ym2612"
    },
    {
      "channel": 2,
      "note": 88,
      "start": 14.1182,
      "duration": 2.6461,
      "velocity": 110,
      "chip": "ym2612"
    },
    {
      "channel": 3,
      "note": 69,
      "start": 14.1196,
      "duration": 0.328,
      "velocity": 106,
      "chip": "ym2612"
    },
    {
      "channel": 4,
      "note": 92,
      "start": 14.1204,
      "duration": 0.2138,
      "velocity": 110,
      "chip": "ym2612"
    },
    {
      "channel": 5,
      "note": 32,
      "start": 14.1212,
      "duration": 0.1438,
      "velocity": 114,
      "chip": "ym2612"
    },
    {
      "channel": 1,
      "note": 52,
      "start": 14.3334,
      "duration": 0.2161,
      "velocity": 101,
      "chip": "ym2612"
    },
    {
      "channel": 4,
      "note": 93,
      "start": 14.3349,
      "duration": 2.6464,
      "velocity": 110,
      "chip": "ym2612"
    },
    {
      "channel": 5,
      "note": 32,
      "start": 14.3357,
      "duration": 0.1462,
      "velocity": 114,
      "chip": "ym2612"
    },
    {
      "channel": 3,
      "note": 72,
      "start": 14.4482,
      "duration": 0.3332,
      "velocity": 106,
      "chip": "ym2612"
    },
    {
      "channel": 1,
      "note": 57,
      "start": 14.5501,
      "duration": 0.2302,
      "velocity": 101,
      "chip": "ym2612"
    },
    {
      "channel": 5,
      "note": 75,
      "start": 14.552,
      "duration": 0.3278,
      "velocity": 120,
      "chip": "ym2612"
    },
    {
      "channel": 1,
      "note": 57,
      "start": 14.7808,
      "duration": 0.1021,
      "velocity": 101,
      "chip": "ym2612"
    },
    {
      "channel": 3,
      "note": 76,
      "start": 14.782,
      "duration": 1.1026,
      "velocity": 106,
      "chip": "ym2612"
    },
    {
      "channel": 1,
      "note": 57,
      "start": 14.8833,
      "duration": 0.1137,
      "velocity": 101,
      "chip": "ym2612"
    },
    {
      "channel": 5,
      "note": 32,
      "start": 14.8854,
      "duration": 0.1463,
      "velocity": 114,
      "chip": "ym2612"
    },
    {
      "channel": 1,
      "note": 57,
      "start": 15.1168,
      "duration": 0.2161,
      "velocity": 101,
      "chip": "ym2612"
    },
    {
      "channel": 5,
      "note": 32,
      "start": 15.1189,
      "duration": 0.13,
      "velocity": 114,
      "chip": "ym2612"
    },
    {
      "channel": 1,
      "note": 52,
      "start": 15.3335,
      "duration": 0.0994,
      "velocity": 101,
      "chip": "ym2612"
    },
    {
      "channel": 5,
      "note": 32,
      "start": 15.3357,
      "duration": 0.0941,
      "velocity": 114,
      "chip": "ym2612"
    },
    {
      "channel": 1,
      "note": 48,
      "start": 15.4334,
      "duration": 0.2328,
      "velocity": 101,
      "chip": "ym2612"
    },
    {
      "channel": 5,
      "note": 75,
      "start": 15.4355,
      "duration": 0.2276,
      "velocity": 120,
      "chip": "ym2612"
    },
    {
      "channel": 1,
      "note": 57,
      "start": 15.6668,
      "duration": 0.2165,
      "velocity": 101,
      "chip": "ym2612"
    },
    {
      "channel": 5,
      "note": 32,
      "start": 15.6691,
      "duration": 0.1297,
      "velocity": 114,
      "chip": "ym2612"
    },
    {
      "channel": 1,
      "note": 57,
      "start": 15.8839,
      "duration": 0.2156,
      "velocity": 101,
      "chip": "ym2612"
    },
    {
      "channel": 3,
      "note": 69,
      "start": 15.8854,
      "duration": 0.3291,
      "velocity": 106,
      "chip": "ym2612"
    },
    {
      "channel": 5,
      "note": 32,
      "start": 15.8866,
      "duration": 0.1454,
      "velocity": 114,
      "chip": "ym2612"
    },
    {
      "channel": 1,
      "note": 52,
      "start": 16.1001,
      "duration": 0.2161,
      "velocity": 101,
      "chip": "ym2612"
    },
    {
      "channel": 5,
      "note": 32,
      "start": 16.1024,
      "duration": 0.1463,
      "velocity": 114,
      "chip": "ym2612"
    },
    {
      "channel": 3,
      "note": 72,
      "start": 16.2151,
      "duration": 0.3329,
      "velocity": 106,
      "chip": "ym2612"
    },
    {
      "channel": 1,
      "note": 57,
      "start": 16.3168,
      "duration": 0.2302,
      "velocity": 101,
      "chip": "ym2612"
    },
    {
      "channel": 5,
      "note": 75,
      "start": 16.3188,
      "duration": 0.3277,
      "velocity": 120,
      "chip": "ym2612"
    },
    {
      "channel": 1,
      "note": 57,
      "start": 16.5474,
      "duration": 0.1021,
      "velocity": 101,
      "chip": "ym2612"
    },
    {
      "channel": 3,
      "note": 76,
      "start": 16.5486,
      "duration": 1.103,
      "velocity": 106,
      "chip": "ym2612"
    },
    {
      "channel": 1,
      "note": 57,
      "start": 16.65,
      "duration": 0.1141,
      "velocity": 101,
      "chip": "ym2612"
    },
    {
      "channel": 5,
      "note": 32,
      "start": 16.6521,
      "duration": 0.1461,
      "velocity": 114,
      "chip": "ym2612"
    },
    {
      "channel": 0,
      "note": 95,
      "start": 16.7639,
      "duration": 0.3352,
      "velocity": 110,
      "chip": "ym2612"
    },
    {
      "channel": 2,
      "note": 91,
      "start": 16.765,
      "duration": 0.3356,
      "velocity": 110,
      "chip": "ym2612"
    },
    {
      "channel": 1,
      "note": 57,
      "start": 16.8667,
      "duration": 0.2332,
      "velocity": 101,
      "chip": "ym2612"
    },
    {
      "channel": 5,
      "note": 32,
      "start": 16.8687,
      "duration": 0.1464,
      "velocity": 114,
      "chip": "ym2612"
    },
    {
      "channel": 4,
      "note": 95,
      "start": 16.982,
      "duration": 0.3326,
      "velocity": 110,
      "chip": "ym2612"
    },
    {
      "channel": 0,
      "note": 96,
      "start": 17.0998,
      "duration": 0.3326,
      "velocity": 110,
      "chip": "ym2612"
    },
    {
      "channel": 1,
      "note": 52,
      "start": 17.1005,
      "duration": 0.099,
      "velocity": 101,
      "chip": "ym2612"
    },
    {
      "channel": 2,
      "note": 93,
      "start": 17.1013,
      "duration": 0.3326,
      "velocity": 110,
      "chip": "ym2612"
    },
    {
      "channel": 5,
      "note": 32,
      "start": 17.103,
      "duration": 0.0935,
      "velocity": 114,
      "chip": "ym2612"
    },
    {
      "channel": 1,
      "note": 48,
      "start": 17.2,
      "duration": 0.2333,
      "velocity": 101,
      "chip": "ym2612"
    },
    {
      "channel": 5,
      "note": 75,
      "start": 17.2019,
      "duration": 0.2279,
      "velocity": 120,
      "chip": "ym2612"
    },
    {
      "channel": 4,
      "note": 96,
      "start": 17.3154,
      "duration": 0.3371,
      "velocity": 110,
      "chip": "ym2612"
    },
    {
      "channel": 0,
      "note": 98,
      "start": 17.4331,
      "duration": 0.2161,
      "velocity": 110,
      "chip": "ym2612"
    },
    {
      "channel": 1,
      "note": 57,
      "start": 17.4338,
      "duration": 0.2163,
      "velocity": 101,
      "chip": "ym2612"
    },
    {
      "channel": 2,
      "note": 95,
      "start": 17.4346,
      "duration": 0.2162,
      "velocity": 110,
      "chip": "ym2612"
    },
    {
      "channel": 5,
      "note": 32,
      "start": 17.4363,
      "duration": 0.1288,
      "velocity": 114,
      "chip": "ym2612"
    },
    {
      "channel": 0,
      "note": 95,
      "start": 17.6499,
      "duration": 0.33,
      "velocity": 110,
      "chip": "ym2612"
    },
    {
      "channel": 1,
      "note": 55,
      "start": 17.6507,
      "duration": 0.2155,
      "velocity": 101,
      "chip": "ym2612"
    },
    {
      "channel": 2,
      "note": 91,
      "start": 17.6515,
      "duration": 0.3295,
      "velocity": 110,
      "chip": "ym2612"
    },
    {
      "channel": 3,
      "note": 67,
      "start": 17.6523,
      "duration": 0.3295,
      "velocity": 106,
      "chip": "ym2612"
    },
    {
      "channel": 4,
      "note": 98,
      "start": 17.6532,
      "duration": 0.2144,
      "velocity": 110,
      "chip": "ym2612"
    },
    {
      "channel": 5,
      "note": 32,
      "start": 17.6539,
      "duration": 0.1444,
      "velocity": 114,
      "chip": "ym2612"
    },
    {
      "channel": 1,
      "note": 50,
      "start": 17.8667,
      "duration": 0.2161,
      "velocity": 101,
      "chip": "ym2612"
    },
    {
      "channel": 4,
      "note": 95,
      "start": 17.8682,
      "duration": 0.3296,
      "velocity": 110,
      "chip": "ym2612"
    },
    {
      "channel": 5,
      "note": 32,
      "start": 17.869,
      "duration": 0.146,
      "velocity": 114,
      "chip": "ym2612"
    },
    {
      "channel": 0,
      "note": 96,
      "start": 17.9806,
      "duration": 0.3327,
      "velocity": 110,
      "chip": "ym2612"
    },
    {
      "channel": 2,
      "note": 93,
      "start": 17.9817,
      "duration": 0.3329,
      "velocity": 110,
      "chip": "ym2612"
    },
    {
      "channel": 3,
      "note": 71,
      "start": 17.9825,
      "duration": 0.3329,
      "velocity": 106,
      "chip": "ym2612"
    },
    {
      "channel": 1,
      "note": 55,
      "start": 18.0834,
      "duration": 0.2307,
      "velocity": 101,
      "chip": "ym2612"
    },
    {
      "channel": 5,
      "note": 75,
      "start": 18.0851,
      "duration": 0.328,
      "velocity": 120,
      "chip": "ym2612"
    },
    {
      "channel": 4,
      "note": 96,
      "start": 18.1986,
      "duration": 0.3339,
      "velocity": 110,
      "chip": "ym2612"
    },
    {
      "channel": 0,
      "note": 95,
      "start": 18.3139,
      "duration": 0.216,
      "velocity": 110,
      "chip": "ym2612"
    },
    {
      "channel": 1,
      "note": 55,
      "start": 18.3145,
      "duration": 0.1017,
      "velocity": 101,
      "chip": "ym2612"
    },
    {
      "channel": 2,
      "note": 91,
      "start": 18.3153,
      "duration": 0.2157,
      "velocity": 110,
      "chip": "ym2612"
    },
    {
      "channel": 3,
      "note": 74,
      "start": 18.3161,
      "duration": 1.1024,
      "velocity": 106,
      "chip": "ym2612"
    },
    {
      "channel": 1,
      "note": 55,
      "start": 18.4165,
      "duration": 0.1142,
      "velocity": 101,
      "chip": "ym2612"
    },
    {
      "channel": 5,
      "note": 32,
      "start": 18.4184,
      "duration": 0.1464,
      "velocity": 114,
      "chip": "ym2612"
    },
    {
      "channel": 0,
      "note": 93,
      "start": 18.5306,
      "duration": 0.6685,
      "velocity": 110,
      "chip": "ym2612"
    },
    {
      "channel": 2,
      "note": 86,
      "start": 18.5317,
      "duration": 0.6688,
      "velocity": 110,
      "chip": "ym2612"
    },
    {
      "channel": 4,
      "note": 95,
      "start": 18.5331,
      "duration": 0.2149,
      "velocity": 110,
      "chip": "ym2612"
    },
    {
      "channel": 1,
      "note": 55,
      "start": 18.6334,
      "duration": 0.2328,
      "velocity": 101,
      "chip": "ym2612"
    },
    {
      "channel": 5,
      "note": 32,
      "start": 18.6352,
      "duration": 0.1466,
      "velocity": 114,
      "chip": "ym2612"
    },
    {
      "channel": 4,
      "note": 93,
      "start": 18.7487,
      "duration": 0.6705,
      "velocity": 110,
      "chip": "ym2612"
    },
    {
      "channel": 1,
      "note": 50,
      "start": 18.8667,
      "duration": 0.0995,
      "velocity": 101,
      "chip": "ym2612"
    },
    {
      "channel": 5,
      "note": 32,
      "start": 18.8687,
      "duration": 0.0945,
      "velocity": 114,
      "chip": "ym2612"
    },
    {
      "channel": 1,
      "note": 47,
      "start": 18.9668,
      "duration": 0.2329,
      "velocity": 101,
      "chip": "ym2612"
    },
    {
      "channel": 5,
      "note": 75,
      "start": 18.9688,
      "duration": 0.2277,
      "velocity": 120,
      "chip": "ym2612"
    },
    {
      "channel": 0,
      "note": 93,
      "start": 19.1996,
      "duration": 0.2163,
      "velocity": 110,
      "chip": "ym2612"
    },
    {
      "channel": 1,
      "note": 55,
      "start": 19.2003,
      "duration": 0.2165,
      "velocity": 101,
      "chip": "ym2612"
    },
    {
      "channel": 2,
      "note": 86,
      "start": 19.2009,
      "duration": 0.2166,
      "velocity": 110,
      "chip": "ym2612"
    },
    {
      "channel": 5,
      "note": 32,
      "start": 19.2027,
      "duration": 0.1292,
      "velocity": 114,
      "chip": "ym2612"
    },
    {
      "channel": 0,
      "note": 95,
      "start": 19.4166,
      "duration": 0.0966,
      "velocity": 110,
      "chip": "ym2612"
    },
    {
      "channel": 1,
      "note": 55,
      "start": 19.4173,
      "duration": 0.2159,
      "velocity": 101,
      "chip": "ym2612"
    },
    {
      "channel": 2,
      "note": 91,
      "start": 19.4182,
      "duration": 0.0962,
      "velocity": 110,
      "chip": "ym2612"
    },
    {
      "channel": 3,
      "note": 67,
      "start": 19.4191,
      "duration": 0.3285,
      "velocity": 106,
      "chip": "ym2612"
    },
    {
      "channel": 4,
      "note": 93,
      "start": 19.4198,
      "duration": 0.2154,
      "velocity": 110,
      "chip": "ym2612"
    },
    {
      "channel": 5,
      "note": 32,
      "start": 19.4206,
      "duration": 0.1444,
      "velocity": 114,
      "chip": "ym2612"
    },
    {
      "channel": 0,
      "note": 93,
      "start": 19.5139,
      "duration": 0.1185,
      "velocity": 110,
      "chip": "ym2612"
    },
    {
      "channel": 2,
      "note": 86,
      "start": 19.5151,
      "duration": 0.1189,
      "velocity": 110,
      "chip": "ym2612"
    },
    {
      "channel": 0,
      "note": 91,
      "start": 19.6331,
      "duration": 0.6634,
      "velocity": 110,
      "chip": "ym2612"
    },
    {
      "channel": 1,
      "note": 50,
      "start": 19.6338,
      "duration": 0.2157,
      "velocity": 101,
      "chip": "ym2612"
    },
    {
      "channel": 2,
      "note": 86,
      "start": 19.6346,
      "duration": 0.6629,
      "velocity": 110,
      "chip": "ym2612"
    },
    {
      "channel": 4,
      "note": 95,
      "start": 19.6359,
      "duration": 0.1125,
      "velocity": 110,
      "chip": "ym2612"
    },
    {
      "channel": 5,
      "note": 32,
      "start": 19.6366,
      "duration": 0.145,
      "velocity": 114,
      "chip": "ym2612"
    },
    {
      "channel": 3,
      "note": 71,
      "start": 19.7482,
      "duration": 0.3165,
      "velocity": 106,
      "chip": "ym2612"
    },
    {
      "channel": 4,
      "note": 93,
      "start": 19.7491,
      "duration": 0.1017,
      "velocity": 110,
      "chip": "ym2612"
    },
    {
      "channel": 1,
      "note": 55,
      "start": 19.85,
      "duration": 0.2137,
      "velocity": 101,
      "chip": "ym2612"
    },
    {
      "channel": 4,
      "note": 91,
      "start": 19.8515,
      "duration": 0.6632,
      "velocity": 110,
      "chip": "ym2612"
    },
    {
      "channel": 5,
      "note": 75,
      "start": 19.8523,
      "duration": 0.3276,
      "velocity": 120,
      "chip": "ym2612"
    },
    {
      "channel": 1,
      "note": 55,
      "start": 20.0641,
      "duration": 0.1188,
      "velocity": 101,
      "chip": "ym2612"
    },
    {
      "channel": 3,
      "note": 74,
      "start": 20.0653,
      "duration": 0.6695,
      "velocity": 106,
      "chip": "ym2612"
    },
    {
      "channel": 1,
      "note": 55,
      "start": 20.1833,
      "duration": 0.1139,
      "velocity": 101,
      "chip": "ym2612"
    },
    {
      "channel": 5,
      "note": 32,
      "start": 20.1854,
      "duration": 0.1462,
      "velocity": 114,
      "chip": "ym2612"
    },
    {
      "channel": 0,
      "note": 91,
      "start": 20.2971,
      "duration": 0.4354,
      "velocity": 110,
      "chip": "ym2612"
    },
    {
      "channel": 2,
      "note": 86,
      "start": 20.298,
      "duration": 0.4359,
      "velocity": 110,
      "chip": "ym2612"
    },
    {
      "channel": 1,
      "note": 55,
      "start": 20.4,
      "duration": 0.2328,
      "velocity": 101,
      "chip": "ym2612"
    },
    {
      "channel": 5,
      "note": 32,
      "start": 20.402,
      "duration": 0.1464,
      "velocity": 114,
      "chip": "ym2612"
    },
    {
      "channel": 4,
      "note": 91,
      "start": 20.5152,
      "duration": 0.4356,
      "velocity": 110,
      "chip": "ym2612"
    },
    {
      "channel": 1,
      "note": 50,
      "start": 20.6334,
      "duration": 0.0999,
      "velocity": 101,
      "chip": "ym2612"
    },
    {
      "channel": 5,
      "note": 32,
      "start": 20.6354,
      "duration": 0.0945,
      "velocity": 114,
      "chip": "ym2612"
    },
    {
      "channel": 0,
      "note": 92,
      "start": 20.7331,
      "duration": 0.4494,
      "velocity": 110,
      "chip": "ym2612"
    },
    {
      "channel": 1,
      "note": 47,
      "start": 20.7338,
      "duration": 0.2157,
      "velocity": 101,
      "chip": "ym2612"
    },
    {
      "channel": 2,
      "note": 86,
      "start": 20.7346,
      "duration": 0.4497,
      "velocity": 110,
      "chip": "ym2612"
    },
    {
      "channel": 3,
      "note": 71,
      "start": 20.7354,
      "duration": 0.4498,
      "velocity": 106,
      "chip": "ym2612"
    },
    {
      "channel": 5,
      "note": 75,
      "start": 20.7365,
      "duration": 0.21,
      "velocity": 120,
      "chip": "ym2612"
    },
    {
      "channel": 1,
      "note": 55,
      "start": 20.95,
      "duration": 0.2336,
      "velocity": 101,
      "chip": "ym2612"
    },
    {
      "channel": 4,
      "note": 92,
      "start": 20.9515,
      "duration": 0.4494,
      "velocity": 110,
      "chip": "ym2612"
    },
    {
      "channel": 5,
      "note": 32,
      "start": 20.9523,
      "duration": 0.1463,
      "velocity": 114,
      "chip": "ym2612"
    },
    {
      "channel": 0,
      "note": 93,
      "start": 21.1832,
      "duration": 2.6466,
      "velocity": 110,
      "chip": "ym2612"
    },
    {
      "channel": 1,
      "note": 57,
      "start": 21.1841,
      "duration": 0.2153,
      "velocity": 101,
      "chip": "ym2612"
    },
    {
      "channel": 2,
      "note": 88,
      "start": 21.185,
      "duration": 2.6461,
      "velocity": 110,
      "chip": "ym2612"
    },
    {
      "channel": 3,
      "note": 69,
      "start": 21.1859,
      "duration": 0.3284,
      "velocity": 106,
      "chip": "ym2612"
    },
    {
      "channel": 5,
      "note": 32,
      "start": 21.1871,
      "duration": 0.1447,
      "velocity": 114,
      "chip": "ym2612"
    },
    {
      "channel": 1,
      "note": 52,
      "start": 21.4,
      "duration": 0.2161,
      "velocity": 101,
      "chip": "ym2612"
    },
    {
      "channel": 4,
      "note": 93,
      "start": 21.4016,
      "duration": 2.6464,
      "velocity": 110,
      "chip": "ym2612"
    },
    {
      "channel": 5,
      "note": 32,
      "start": 21.4023,
      "duration": 0.1462,
      "velocity": 114,
      "chip": "ym2612"
    },
    {
      "channel": 3,
      "note": 72,
      "start": 21.5149,
      "duration": 0.3164,
      "velocity": 106,
      "chip": "ym2612"
    },
    {
      "channel": 1,
      "note": 57,
      "start": 21.6168,
      "duration": 0.2135,
      "velocity": 101,
      "chip": "ym2612"
    },
    {
      "channel": 5,
      "note": 75,
      "start": 21.6187,
      "duration": 0.3278,
      "velocity": 120,
      "chip": "ym2612"
    },
    {
      "channel": 1,
      "note": 57,
      "start": 21.8308,
      "duration": 0.1188,
      "velocity": 101,
      "chip": "ym2612"
    },
    {
      "channel": 3,
      "note": 76,
      "start": 21.832,
      "duration": 1.1193,
      "velocity": 106,
      "chip": "ym2612"
    },
    {
      "channel": 1,
      "note": 57,
      "start": 21.95,
      "duration": 0.1137,
      "velocity": 101,
      "chip": "ym2612"
    },
    {
      "channel": 5,
      "note": 32,
      "start": 21.9521,
      "duration": 0.1463,
      "velocity": 114,
      "chip": "ym2612"
    },
    {
      "channel": 1,
      "note": 57,
      "start": 22.1668,
      "duration": 0.2328,
      "velocity": 101,
      "chip": "ym2612"
    },
    {
      "channel": 5,
      "note": 32,
      "start": 22.1689,
      "duration": 0.1466,
      "velocity": 114,
      "chip": "ym2612"
    },
    {
      "channel": 1,
      "note": 52,
      "start": 22.4002,
      "duration": 0.0994,
      "velocity": 101,
      "chip": "ym2612"
    },
    {
      "channel": 5,
      "note": 32,
      "start": 22.4024,
      "duration": 0.0941,
      "velocity": 114,
      "chip": "ym2612"
    },
    {
      "channel": 1,
      "note": 48,
      "start": 22.5001,
      "duration": 0.2161,
      "velocity": 101,
      "chip": "ym2612"
    },
    {
      "channel": 5,
      "note": 75,
      "start": 22.5022,
      "duration": 0.211,
      "velocity": 120,
      "chip": "ym2612"
    },
    {
      "channel": 1,
      "note": 57,
      "start": 22.7168,
      "duration": 0.2332,
      "velocity": 101,
      "chip": "ym2612"
    },
    {
      "channel": 5,
      "note": 32,
      "start": 22.719,
      "duration": 0.1464,
      "velocity": 114,
      "chip": "ym2612"
    },
    {
      "channel": 1,
      "note": 57,
      "start": 22.9505,
      "duration": 0.2156,
      "velocity": 101,
      "chip": "ym2612"
    },
    {
      "channel": 3,
      "note": 69,
      "start": 22.952,
      "duration": 0.3125,
      "velocity": 106,
      "chip": "ym2612"
    },
    {
      "channel": 5,
      "note": 32,
      "start": 22.9533,
      "duration": 0.1287,
      "velocity": 114,
      "chip": "ym2612"
    },
    {
      "channel": 1,
      "note": 52,
      "start": 23.1668,
      "duration": 0.2161,
      "velocity": 101,
      "chip": "ym2612"
    },
    {
      "channel": 5,
      "note": 32,
      "start": 23.1691,
      "duration": 0.1463,
      "velocity": 114,
      "chip": "ym2612"
    },
    {
      "channel": 3,
      "note": 72,
      "start": 23.2651,
      "duration": 0.3329,
      "velocity": 106,
      "chip": "ym2612"
    },
    {
      "channel": 1,
      "note": 57,
      "start": 23.3834,
      "duration": 0.2135,
      "velocity": 101,
      "chip": "ym2612"
    },
    {
      "channel": 5,
      "note": 75,
      "start": 23.3855,
      "duration": 0.3277,
      "velocity": 120,
      "chip": "ym2612"
    },
    {
      "channel": 1,
      "note": 57,
      "start": 23.5974,
      "duration": 0.1188,
      "velocity": 101,
      "chip": "ym2612"
    },
    {
      "channel": 3,
      "note": 76,
      "start": 23.5986,
      "duration": 1.1197,
      "velocity": 106,
      "chip": "ym2612"
    },
    {
      "channel": 1,
      "note": 57,
      "start": 23.7166,
      "duration": 0.1141,
      "velocity": 101,
      "chip": "ym2612"
    },
    {
      "channel": 5,
      "note": 32,
      "start": 23.7188,
      "duration": 0.1461,
      "velocity": 114,
      "chip": "ym2612"
    },
    {
      "channel": 0,
      "note": 95,
      "start": 23.8306,
      "duration": 0.3185,
      "velocity": 110,
      "chip": "ym2612"
    },
    {
      "channel": 2,
      "note": 91,
      "start": 23.8317,
      "duration": 0.3189,
      "velocity": 110,
      "chip": "ym2612"
    },
    {
      "channel": 1,
      "note": 57,
      "start": 23.9334,
      "duration": 0.2165,
      "velocity": 101,
      "chip": "ym2612"
    },
    {
      "channel": 5,
      "note": 32,
      "start": 23.9354,
      "duration": 0.1464,
      "velocity": 114,
      "chip": "ym2612"
    },
    {
      "channel": 4,
      "note": 95,
      "start": 24.0487,
      "duration": 0.3326,
      "velocity": 110,
      "chip": "ym2612"
    },
    {
      "channel": 0,
      "note": 96,
      "start": 24.1498,
      "duration": 0.3326,
      "velocity": 110,
      "chip": "ym2612"
    },
    {
      "channel": 1,
      "note": 52,
      "start": 24.1505,
      "duration": 0.1157,
      "velocity": 101,
      "chip": "ym2612"
    },
    {
      "channel": 2,
      "note": 93,
      "start": 24.1513,
      "duration": 0.3326,
      "velocity": 110,
      "chip": "ym2612"
    },
    {
      "channel": 5,
      "note": 32,
      "start": 24.153,
      "duration": 0.1102,
      "velocity": 114,
      "chip": "ym2612"
    },
    {
      "channel": 1,
      "note": 48,
      "start": 24.2666,
      "duration": 0.2166,
      "velocity": 101,
      "chip": "ym2612"
    },
    {
      "channel": 5,
      "note": 75,
      "start": 24.2685,
      "duration": 0.2113,
      "velocity": 120,
      "chip": "ym2612"
    },
    {
      "channel": 4,
      "note": 96,
      "start": 24.382,
      "duration": 0.3371,
      "velocity": 110,
      "chip": "ym2612"
    },
    {
      "channel": 0,
      "note": 98,
      "start": 24.4831,
      "duration": 0.2327,
      "velocity": 110,
      "chip": "ym2612"
    },
    {
      "channel": 1,
      "note": 57,
      "start": 24.4838,
      "duration": 0.233,
      "velocity": 101,
      "chip": "ym2612"
    },
    {
      "channel": 2,
      "note": 95,
      "start": 24.4846,
      "duration": 0.2328,
      "velocity": 110,
      "chip": "ym2612"
    },
    {
      "channel": 5,
      "note": 32,
      "start": 24.4863,
      "duration": 0.1455,
      "velocity": 114,
      "chip": "ym2612"
    },
    {
      "channel": 0,
      "note": 100,
      "start": 24.7166,
      "duration": 0.88,
      "velocity": 110,
      "chip": "ym2612"
    },
    {
      "channel": 1,
      "note": 55,
      "start": 24.7173,
      "duration": 0.2155,
      "velocity": 101,
      "chip": "ym2612"
    },
    {
      "channel": 2,
      "note": 95,
      "start": 24.7182,
      "duration": 0.8801,
      "velocity": 110,
      "chip": "ym2612"
    },
    {
      "channel": 3,
      "note": 67,
      "start": 24.719,
      "duration": 0.3119,
      "velocity": 106,
      "chip": "ym2612"
    },
    {
      "channel": 4,
      "note": 98,
      "start": 24.7198,
      "duration": 0.2144,
      "velocity": 110,
      "chip": "ym2612"
    },
    {
      "channel": 5,
      "note": 32,
      "start": 24.7206,
      "duration": 0.1277,
      "velocity": 114,
      "chip": "ym2612"
    },
    {
      "channel": 1,
      "note": 50,
      "start": 24.9334,
      "duration": 0.2161,
      "velocity": 101,
      "chip": "ym2612"
    },
    {
      "channel": 4,
      "note": 100,
      "start": 24.9349,
      "duration": 0.8809,
      "velocity": 110,
      "chip": "ym2612"
    },
    {
      "channel": 5,
      "note": 32,
      "start": 24.9357,
      "duration": 0.1462,
      "velocity": 114,
      "chip": "ym2612"
    },
    {
      "channel": 3,
      "note": 71,
      "start": 25.0316,
      "duration": 0.3331,
      "velocity": 106,
      "chip": "ym2612"
    },
    {
      "channel": 1,
      "note": 55,
      "start": 25.1501,
      "duration": 0.2135,
      "velocity": 101,
      "chip": "ym2612"
    },
    {
      "channel": 5,
      "note": 75,
      "start": 25.152,
      "duration": 0.3278,
      "velocity": 120,
      "chip": "ym2612"
    },
    {
      "channel": 1,
      "note": 55,
      "start": 25.3641,
      "duration": 0.1188,
      "velocity": 101,
      "chip": "ym2612"
    },
    {
      "channel": 3,
      "note": 74,
      "start": 25.3654,
      "duration": 1.1054,
      "velocity": 110,
      "chip": "ym2612"
    },
    {
      "channel": 1,
      "note": 55,
      "start": 25.4833,
      "duration": 0.1141,
      "velocity": 101,
      "chip": "ym2612"
    },
    {
      "channel": 5,
      "note": 32,
      "start": 25.4854,
      "duration": 0.1459,
      "velocity": 114,
      "chip": "ym2612"
    },
    {
      "channel": 0,
      "note": 112,
      "start": 25.5973,
      "duration": 0.1018,
      "velocity": 110,
      "chip": "ym2612"
    },
    {
      "channel": 0,
      "note": 110,
      "start": 25.6998,
      "duration": 0.1134,
      "velocity": 110,
      "chip": "ym2612"
    },
    {
      "channel": 1,
      "note": 55,
      "start": 25.7005,
      "duration": 0.2161,
      "velocity": 101,
      "chip": "ym2612"
    },
    {
      "channel": 2,
      "note": 112,
      "start": 25.7013,
      "duration": 0.113,
      "velocity": 110,
      "chip": "ym2612"
    },
    {
      "channel": 5,
      "note": 32,
      "start": 25.703,
      "duration": 0.1455,
      "velocity": 114,
      "chip": "ym2612"
    },
    {
      "channel": 0,
      "note": 108,
      "start": 25.8139,
      "duration": 0.1019,
      "velocity": 110,
      "chip": "ym2612"
    },
    {
      "channel": 2,
      "note": 110,
      "start": 25.8151,
      "duration": 0.1022,
      "velocity": 110,
      "chip": "ym2612"
    },
    {
      "channel": 4,
      "note": 112,
      "start": 25.8165,
      "duration": 0.1022,
      "velocity": 110,
      "chip": "ym2612"
    },
    {
      "channel": 0,
      "note": 110,
      "start": 25.9165,
      "duration": 0.116,
      "velocity": 110,
      "chip": "ym2612"
    },
    {
      "channel": 1,
      "note": 50,
      "start": 25.9171,
      "duration": 0.1161,
      "velocity": 101,
      "chip": "ym2612"
    },
    {
      "channel": 2,
      "note": 108,
      "start": 25.918,
      "duration": 0.116,
      "velocity": 110,
      "chip": "ym2612"
    },
    {
      "channel": 4,
      "note": 110,
      "start": 25.9193,
      "duration": 0.1159,
      "velocity": 110,
      "chip": "ym2612"
    },
    {
      "channel": 5,
      "note": 32,
      "start": 25.9201,
      "duration": 0.1097,
      "velocity": 114,
      "chip": "ym2612"
    },
    {
      "channel": 0,
      "note": 108,
      "start": 26.0331,
      "duration": 0.1134,
      "velocity": 110,
      "chip": "ym2612"
    },
    {
      "channel": 1,
      "note": 47,
      "start": 26.0338,
      "duration": 0.2161,
      "velocity": 101,
      "chip": "ym2612"
    },
    {
      "channel": 2,
      "note": 110,
      "start": 26.0346,
      "duration": 0.113,
      "velocity": 110,
      "chip": "ym2612"
    },
    {
      "channel": 4,
      "note": 108,
      "start": 26.0359,
      "duration": 0.1131,
      "velocity": 110,
      "chip": "ym2612"
    },
    {
      "channel": 5,
      "note": 75,
      "start": 26.0367,
      "duration": 0.2098,
      "velocity": 120,
      "chip": "ym2612"
    },
    {
      "channel": 0,
      "note": 107,
      "start": 26.1472,
      "duration": 0.1019,
      "velocity": 110,
      "chip": "ym2612"
    },
    {
      "channel": 2,
      "note": 108,
      "start": 26.1484,
      "duration": 0.1022,
      "velocity": 110,
      "chip": "ym2612"
    },
    {
      "channel": 4,
      "note": 110,
      "start": 26.1497,
      "duration": 0.1022,
      "velocity": 110,
      "chip": "ym2612"
    },
    {
      "channel": 0,
      "note": 108,
      "start": 26.2498,
      "duration": 0.1134,
      "velocity": 110,
      "chip": "ym2612"
    },
    {
      "channel": 1,
      "note": 55,
      "start": 26.2505,
      "duration": 0.2164,
      "velocity": 101,
      "chip": "ym2612"
    },
    {
      "channel": 2,
      "note": 107,
      "start": 26.2513,
      "duration": 0.113,
      "velocity": 110,
      "chip": "ym2612"
    },
    {
      "channel": 4,
      "note": 108,
      "start": 26.2527,
      "duration": 0.113,
      "velocity": 110,
      "chip": "ym2612"
    },
    {
      "channel": 5,
      "note": 32,
      "start": 26.2535,
      "duration": 0.145,
      "velocity": 114,
      "chip": "ym2612"
    },
    {
      "channel": 0,
      "note": 107,
      "start": 26.3639,
      "duration": 0.102,
      "velocity": 110,
      "chip": "ym2612"
    },
    {
      "channel": 2,
      "note": 108,
      "start": 26.3651,
      "duration": 0.1025,
      "velocity": 110,
      "chip": "ym2612"
    },
    {
      "channel": 4,
      "note": 107,
      "start": 26.3664,
      "duration": 0.1052,
      "velocity": 110,
      "chip": "ym2612"
    },
    {
      "channel": 0,
      "note": 105,
      "start": 26.4666,
      "duration": 0.1132,
      "velocity": 110,
      "chip": "ym2612"
    },
    {
      "channel": 1,
      "note": 55,
      "start": 26.4675,
      "duration": 0.2324,
      "velocity": 101,
      "chip": "ym2612"
    },
    {
      "channel": 2,
      "note": 107,
      "start": 26.4683,
      "duration": 0.1127,
      "velocity": 110,
      "chip": "ym2612"
    },
    {
      "channel": 3,
      "note": 100,
      "start": 26.4715,
      "duration": 0.1104,
      "velocity": 110,
      "chip": "ym2612"
    },
    {
      "channel": 4,
      "note": 108,
      "start": 26.4723,
      "duration": 0.1104,
      "velocity": 110,
      "chip": "ym2612"
    },
    {
      "channel": 5,
      "note": 32,
      "start": 26.4731,
      "duration": 0.1419,
      "velocity": 114,
      "chip": "ym2612"
    },
    {
      "channel": 0,
      "note": 107,
      "start": 26.5806,
      "duration": 0.1185,
      "velocity": 110,
      "chip": "ym2612"
    },
    {
      "channel": 2,
      "note": 105,
      "start": 26.5817,
      "duration": 0.1189,
      "velocity": 110,
      "chip": "ym2612"
    },
    {
      "channel": 3,
      "note": 98,
      "start": 26.5825,
      "duration": 0.1189,
      "velocity": 110,
      "chip": "ym2612"
    },
    {
      "channel": 4,
      "note": 107,
      "start": 26.5834,
      "duration": 0.1188,
      "velocity": 110,
      "chip": "ym2612"
    },
    {
      "channel": 0,
      "note": 105,
      "start": 26.6998,
      "duration": 0.0968,
      "velocity": 110,
      "chip": "ym2612"
    },
    {
      "channel": 1,
      "note": 50,
      "start": 26.7005,
      "duration": 0.2161,
      "velocity": 101,
      "chip": "ym2612"
    },
    {
      "channel": 2,
      "note": 107,
      "start": 26.7013,
      "duration": 0.0964,
      "velocity": 110,
      "chip": "ym2612"
    },
    {
      "channel": 3,
      "note": 96,
      "start": 26.7021,
      "duration": 0.0964,
      "velocity": 110,
      "chip": "ym2612"
    },
    {
      "channel": 4,
      "note": 105,
      "start": 26.703,
      "duration": 0.0964,
      "velocity": 110,
      "chip": "ym2612"
    },
    {
      "channel": 5,
      "note": 32,
      "start": 26.7038,
      "duration": 0.1445,
      "velocity": 114,
      "chip": "ym2612"
    },
    {
      "channel": 0,
      "note": 103,
      "start": 26.7972,
      "duration": 0.1185,
      "velocity": 110,
      "chip": "ym2612"
    },
    {
      "channel": 2,
      "note": 105,
      "start": 26.7984,
      "duration": 0.1189,
      "velocity": 110,
      "chip": "ym2612"
    },
    {
      "channel": 3,
      "note": 98,
      "start": 26.7992,
      "duration": 0.1189,
      "velocity": 110,
      "chip": "ym2612"
    },
    {
      "channel": 4,
      "note": 107,
      "start": 26.8,
      "duration": 0.1189,
      "velocity": 110,
      "chip": "ym2612"
    },
    {
      "channel": 0,
      "note": 105,
      "start": 26.9165,
      "duration": 0.1134,
      "velocity": 110,
      "chip": "ym2612"
    },
    {
      "channel": 1,
      "note": 55,
      "start": 26.9171,
      "duration": 0.2136,
      "velocity": 101,
      "chip": "ym2612"
    },
    {
      "channel": 2,
      "note": 103,
      "start": 26.918,
      "duration": 0.113,
      "velocity": 110,
      "chip": "ym2612"
    },
    {
      "channel": 3,
      "note": 96,
      "start": 26.9188,
      "duration": 0.1131,
      "velocity": 110,
      "chip": "ym2612"
    },
    {
      "channel": 4,
      "note": 105,
      "start": 26.9196,
      "duration": 0.113,
      "velocity": 110,
      "chip": "ym2612"
    },
    {
      "channel": 5,
      "note": 75,
      "start": 26.9203,
      "duration": 0.3261,
      "velocity": 120,
      "chip": "ym2612"
    },
    {
      "channel": 0,
      "note": 103,
      "start": 27.0306,
      "duration": 0.0993,
      "velocity": 110,
      "chip": "ym2612"
    },
    {
      "channel": 2,
      "note": 105,
      "start": 27.0317,
      "duration": 0.0995,
      "velocity": 110,
      "chip": "ym2612"
    },
    {
      "channel": 3,
      "note": 95,
      "start": 27.0325,
      "duration": 0.0996,
      "velocity": 110,
      "chip": "ym2612"
    },
    {
      "channel": 4,
      "note": 103,
      "start": 27.0334,
      "duration": 0.0995,
      "velocity": 110,
      "chip": "ym2612"
    },
    {
      "channel": 0,
      "note": 101,
      "start": 27.1306,
      "duration": 0.1185,
      "velocity": 110,
      "chip": "ym2612"
    },
    {
      "channel": 1,
      "note": 55,
      "start": 27.1311,
      "duration": 0.1188,
      "velocity": 101,
      "chip": "ym2612"
    },
    {
      "channel": 2,
      "note": 103,
      "start": 27.1319,
      "duration": 0.1186,
      "velocity": 110,
      "chip": "ym2612"
    },
    {
      "channel": 3,
      "note": 96,
      "start": 27.1327,
      "duration": 0.1186,
      "velocity": 110,
      "chip": "ym2612"
    },
    {
      "channel": 4,
      "note": 105,
      "start": 27.1336,
      "duration": 0.1185,
      "velocity": 110,
      "chip": "ym2612"
    },
    {
      "channel": 0,
      "note": 103,
      "start": 27.2498,
      "duration": 0.0968,
      "velocity": 110,
      "chip": "ym2612"
    },
    {
      "channel": 1,
      "note": 55,
      "start": 27.2504,
      "duration": 0.097,
      "velocity": 101,
      "chip": "ym2612"
    },
    {
      "channel": 2,
      "note": 101,
      "start": 27.2512,
      "duration": 0.0965,
      "velocity": 110,
      "chip": "ym2612"
    },
    {
      "channel": 3,
      "note": 95,
      "start": 27.252,
      "duration": 0.0965,
      "velocity": 110,
      "chip": "ym2612"
    },
    {
      "channel": 4,
      "note": 103,
      "start": 27.2528,
      "duration": 0.0965,
      "velocity": 110,
      "chip": "ym2612"
    },
    {
      "channel": 5,
      "note": 32,
      "start": 27.2537,
      "duration": 0.1444,
      "velocity": 114,
      "chip": "ym2612"
    },
    {
      "channel": 0,
      "note": 101,
      "start": 27.3472,
      "duration": 0.1185,
      "velocity": 110,
      "chip": "ym2612"
    },
    {
      "channel": 2,
      "note": 103,
      "start": 27.3483,
      "duration": 0.119,
      "velocity": 110,
      "chip": "ym2612"
    },
    {
      "channel": 3,
      "note": 93,
      "start": 27.3492,
      "duration": 0.119,
      "velocity": 110,
      "chip": "ym2612"
    },
    {
      "channel": 4,
      "note": 101,
      "start": 27.35,
      "duration": 0.1189,
      "velocity": 110,
      "chip": "ym2612"
    },
    {
      "channel": 0,
      "note": 100,
      "start": 27.4665,
      "duration": 0.1134,
      "velocity": 110,
      "chip": "ym2612"
    },
    {
      "channel": 1,
      "note": 55,
      "start": 27.4671,
      "duration": 0.2161,
      "velocity": 101,
      "chip": "ym2612"
    },
    {
      "channel": 2,
      "note": 101,
      "start": 27.468,
      "duration": 0.113,
      "velocity": 110,
      "chip": "ym2612"
    },
    {
      "channel": 3,
      "note": 95,
      "start": 27.4688,
      "duration": 0.1131,
      "velocity": 110,
      "chip": "ym2612"
    },
    {
      "channel": 4,
      "note": 103,
      "start": 27.4696,
      "duration": 0.113,
      "velocity": 110,
      "chip": "ym2612"
    },
    {
      "channel": 5,
      "note": 32,
      "start": 27.4705,
      "duration": 0.1445,
      "velocity": 114,
      "chip": "ym2612"
    },
    {
      "channel": 0,
      "note": 101,
      "start": 27.5806,
      "duration": 0.1019,
      "velocity": 110,
      "chip": "ym2612"
    },
    {
      "channel": 2,
      "note": 100,
      "start": 27.5817,
      "duration": 0.1022,
      "velocity": 110,
      "chip": "ym2612"
    },
    {
      "channel": 3,
      "note": 93,
      "start": 27.5825,
      "duration": 0.1023,
      "velocity": 110,
      "chip": "ym2612"
    },
    {
      "channel": 4,
      "note": 101,
      "start": 27.5834,
      "duration": 0.1022,
      "velocity": 110,
      "chip": "ym2612"
    },
    {
      "channel": 0,
      "note": 100,
      "start": 27.6831,
      "duration": 0.116,
      "velocity": 110,
      "chip": "ym2612"
    },
    {
      "channel": 1,
      "note": 50,
      "start": 27.6838,
      "duration": 0.1161,
      "velocity": 101,
      "chip": "ym2612"
    },
    {
      "channel": 2,
      "note": 101,
      "start": 27.6846,
      "duration": 0.116,
      "velocity": 110,
      "chip": "ym2612"
    },
    {
      "channel": 3,
      "note": 91,
      "start": 27.6855,
      "duration": 0.116,
      "velocity": 110,
      "chip": "ym2612"
    },
    {
      "channel": 4,
      "note": 100,
      "start": 27.6863,
      "duration": 0.116,
      "velocity": 110,
      "chip": "ym2612"
    },
    {
      "channel": 5,
      "note": 32,
      "start": 27.6871,
      "duration": 0.1094,
      "velocity": 114,
      "chip": "ym2612"
    },
    {
      "channel": 0,
      "note": 98,
      "start": 27.7998,
      "duration": 0.1134,
      "velocity": 110,
      "chip": "ym2612"
    },
    {
      "channel": 1,
      "note": 47,
      "start": 27.8005,
      "duration": 0.2161,
      "velocity": 101,
      "chip": "ym2612"
    },
    {
      "channel": 2,
      "note": 100,
      "start": 27.8013,
      "duration": 0.113,
      "velocity": 110,
      "chip": "ym2612"
    },
    {
      "channel": 3,
      "note": 93,
      "start": 27.8021,
      "duration": 0.1131,
      "velocity": 110,
      "chip": "ym2612"
    },
    {
      "channel": 4,
      "note": 101,
      "start": 27.803,
      "duration": 0.113,
      "velocity": 110,
      "chip": "ym2612"
    },
    {
      "channel": 5,
      "note": 75,
      "start": 27.8037,
      "duration": 0.2095,
      "velocity": 120,
      "chip": "ym2612"
    },
    {
      "channel": 0,
      "note": 96,
      "start": 27.9139,
      "duration": 0.1019,
      "velocity": 110,
      "chip": "ym2612"
    },
    {
      "channel": 2,
      "note": 98,
      "start": 27.9151,
      "duration": 0.1022,
      "velocity": 110,
      "chip": "ym2612"
    },
    {
      "channel": 3,
      "note": 91,
      "start": 27.9159,
      "duration": 0.1022,
      "velocity": 110,
      "chip": "ym2612"
    },
    {
      "channel": 4,
      "note": 100,
      "start": 27.9167,
      "duration": 0.1022,
      "velocity": 110,
      "chip": "ym2612"
    },
    {
      "channel": 0,
      "note": 98,
      "start": 28.0165,
      "duration": 0.116,
      "velocity": 110,
      "chip": "ym2612"
    },
    {
      "channel": 1,
      "note": 55,
      "start": 28.0171,
      "duration": 0.2163,
      "velocity": 101,
      "chip": "ym2612"
    },
    {
      "channel": 2,
      "note": 96,
      "start": 28.018,
      "duration": 0.1156,
      "velocity": 110,
      "chip": "ym2612"
    },
    {
      "channel": 3,
      "note": 89,
      "start": 28.0188,
      "duration": 0.1156,
      "velocity": 110,
      "chip": "ym2612"
    },
    {
      "channel": 4,
      "note": 98,
      "start": 28.0196,
      "duration": 0.1156,
      "velocity": 110,
      "chip": "ym2612"
    },
    {
      "channel": 5,
      "note": 75,
      "start": 28.0203,
      "duration": 0.1095,
      "velocity": 120,
      "chip": "ym2612"
    },
    {
      "channel": 0,
      "note": 99,
      "start": 28.1331,
      "duration": 0.0994,
      "velocity": 110,
      "chip": "ym2612"
    },
    {
      "channel": 2,
      "note": 98,
      "start": 28.1343,
      "duration": 0.1004,
      "velocity": 110,
      "chip": "ym2612"
    },
    {
      "channel": 3,
      "note": 88,
      "start": 28.1351,
      "duration": 0.1026,
      "velocity": 106,
      "chip": "ym2612"
    },
    {
      "channel": 4,
      "note": 96,
      "start": 28.1359,
      "duration": 0.1026,
      "velocity": 110,
      "chip": "ym2612"
    },
    {
      "channel": 5,
      "note": 75,
      "start": 28.1366,
      "duration": 0.0933,
      "velocity": 120,
      "chip": "ym2612"
    },
    {
      "channel": 0,
      "note": 100,
      "start": 28.2332,
      "duration": 0.88,
      "velocity": 110,
      "chip": "ym2612"
    },
    {
      "channel": 1,
      "note": 53,
      "start": 28.2341,
      "duration": 0.1128,
      "velocity": 101,
      "chip": "ym2612"
    },
    {
      "channel": 2,
      "note": 93,
      "start": 28.2353,
      "duration": 0.8789,
      "velocity": 110,
      "chip": "ym2612"
    },
    {
      "channel": 3,
      "note": 65,
      "start": 28.2383,
      "duration": 0.3261,
      "velocity": 106,
      "chip": "ym2612"
    },
    {
      "channel": 4,
      "note": 98,
      "start": 28.2392,
      "duration": 0.1089,
      "velocity": 110,
      "chip": "ym2612"
    },
    {
      "channel": 5,
      "note": 32,
      "start": 28.24,
      "duration": 0.1417,
      "velocity": 114,
      "chip": "ym2612"
    },
    {
      "channel": 1,
      "note": 53,
      "start": 28.3473,
      "duration": 0.2162,
      "velocity": 101,
      "chip": "ym2612"
    },
    {
      "channel": 4,
      "note": 99,
      "start": 28.3488,
      "duration": 0.1183,
      "velocity": 110,
      "chip": "ym2612"
    },
    {
      "channel": 4,
      "note": 100,
      "start": 28.4678,
      "duration": 0.8806,
      "velocity": 110,
      "chip": "ym2612"
    },
    {
      "channel": 5,
      "note": 32,
      "start": 28.4686,
      "duration": 0.1299,
      "velocity": 114,
      "chip": "ym2612"
    },
    {
      "channel": 1,
      "note": 53,
      "start": 28.564,
      "duration": 0.1189,
      "velocity": 101,
      "chip": "ym2612"
    },
    {
      "channel": 3,
      "note": 69,
      "start": 28.5651,
      "duration": 0.333,
      "velocity": 106,
      "chip": "ym2612"
    },
    {
      "channel": 1,
      "note": 57,
      "start": 28.6834,
      "duration": 0.2135,
      "velocity": 101,
      "chip": "ym2612"
    },
    {
      "channel": 5,
      "note": 75,
      "start": 28.6854,
      "duration": 0.3278,
      "velocity": 120,
      "chip": "ym2612"
    },
    {
      "channel": 1,
      "note": 60,
      "start": 28.8976,
      "duration": 0.1186,
      "velocity": 101,
      "chip": "ym2612"
    },
    {
      "channel": 3,
      "note": 72,
      "start": 28.8988,
      "duration": 1.1027,
      "velocity": 106,
      "chip": "ym2612"
    },
    {
      "channel": 1,
      "note": 53,
      "start": 29.0168,
      "duration": 0.216,
      "velocity": 101,
      "chip": "ym2612"
    },
    {
      "channel": 5,
      "note": 32,
      "start": 29.0189,
      "duration": 0.1463,
      "velocity": 114,
      "chip": "ym2612"
    },
    {
      "channel": 0,
      "note": 100,
      "start": 29.1137,
      "duration": 0.3354,
      "velocity": 110,
      "chip": "ym2612"
    },
    {
      "channel": 2,
      "note": 93,
      "start": 29.1147,
      "duration": 0.3359,
      "velocity": 110,
      "chip": "ym2612"
    },
    {
      "channel": 1,
      "note": 53,
      "start": 29.2332,
      "duration": 0.1137,
      "velocity": 101,
      "chip": "ym2612"
    },
    {
      "channel": 5,
      "note": 32,
      "start": 29.2351,
      "duration": 0.1466,
      "velocity": 114,
      "chip": "ym2612"
    },
    {
      "channel": 1,
      "note": 57,
      "start": 29.3474,
      "duration": 0.1025,
      "velocity": 101,
      "chip": "ym2612"
    },
    {
      "channel": 4,
      "note": 100,
      "start": 29.3489,
      "duration": 0.3162,
      "velocity": 110,
      "chip": "ym2612"
    },
    {
      "channel": 0,
      "note": 101,
      "start": 29.4498,
      "duration": 0.3326,
      "velocity": 110,
      "chip": "ym2612"
    },
    {
      "channel": 1,
      "note": 53,
      "start": 29.4505,
      "duration": 0.1157,
      "velocity": 101,
      "chip": "ym2612"
    },
    {
      "channel": 2,
      "note": 96,
      "start": 29.4513,
      "duration": 0.3326,
      "velocity": 110,
      "chip": "ym2612"
    },
    {
      "channel": 5,
      "note": 32,
      "start": 29.453,
      "duration": 0.1102,
      "velocity": 114,
      "chip": "ym2612"
    },
    {
      "channel": 1,
      "note": 65,
      "start": 29.5667,
      "duration": 0.0968,
      "velocity": 101,
      "chip": "ym2612"
    },
    {
      "channel": 5,
      "note": 75,
      "start": 29.5685,
      "duration": 0.2113,
      "velocity": 120,
      "chip": "ym2612"
    },
    {
      "channel": 1,
      "note": 60,
      "start": 29.6641,
      "duration": 0.1191,
      "velocity": 101,
      "chip": "ym2612"
    },
    {
      "channel": 4,
      "note": 101,
      "start": 29.6658,
      "duration": 0.3366,
      "velocity": 110,
      "chip": "ym2612"
    },
    {
      "channel": 0,
      "note": 105,
      "start": 29.7831,
      "duration": 0.2161,
      "velocity": 110,
      "chip": "ym2612"
    },
    {
      "channel": 1,
      "note": 57,
      "start": 29.7838,
      "duration": 0.1131,
      "velocity": 101,
      "chip": "ym2612"
    },
    {
      "channel": 2,
      "note": 101,
      "start": 29.7846,
      "duration": 0.2161,
      "velocity": 110,
      "chip": "ym2612"
    },
    {
      "channel": 5,
      "note": 32,
      "start": 29.7863,
      "duration": 0.1455,
      "velocity": 114,
      "chip": "ym2612"
    },
    {
      "channel": 1,
      "note": 53,
      "start": 29.8974,
      "duration": 0.1026,
      "velocity": 101,
      "chip": "ym2612"
    },
    {
      "channel": 0,
      "note": 103,
      "start": 29.9999,
      "duration": 0.88,
      "velocity": 110,
      "chip": "ym2612"
    },
    {
      "channel": 1,
      "note": 55,
      "start": 30.0006,
      "duration": 0.1129,
      "velocity": 101,
      "chip": "ym2612"
    },
    {
      "channel": 2,
      "note": 98,
      "start": 30.0015,
      "duration": 0.8796,
      "velocity": 110,
      "chip": "ym2612"
    },
    {
      "channel": 3,
      "note": 67,
      "start": 30.0023,
      "duration": 0.3288,
      "velocity": 106,
      "chip": "ym2612"
    },
    {
      "channel": 4,
      "note": 105,
      "start": 30.0031,
      "duration": 0.2307,
      "velocity": 110,
      "chip": "ym2612"
    },
    {
      "channel": 5,
      "note": 32,
      "start": 30.0039,
      "duration": 0.1444,
      "velocity": 114,
      "chip": "ym2612"
    },
    {
      "channel": 1,
      "note": 55,
      "start": 30.114,
      "duration": 0.2162,
      "velocity": 101,
      "chip": "ym2612"
    },
    {
      "channel": 4,
      "note": 103,
      "start": 30.2345,
      "duration": 0.8805,
      "velocity": 110,
      "chip": "ym2612"
    },
    {
      "channel": 5,
      "note": 32,
      "start": 30.2353,
      "duration": 0.13,
      "velocity": 114,
      "chip": "ym2612"
    },
    {
      "channel": 1,
      "note": 55,
      "start": 30.3306,
      "duration": 0.1189,
      "velocity": 101,
      "chip": "ym2612"
    },
    {
      "channel": 3,
      "note": 71,
      "start": 30.3318,
      "duration": 0.333,
      "velocity": 106,
      "chip": "ym2612"
    },
    {
      "channel": 1,
      "note": 59,
      "start": 30.4501,
      "duration": 0.2135,
      "velocity": 101,
      "chip": "ym2612"
    },
    {
      "channel": 5,
      "note": 75,
      "start": 30.452,
      "duration": 0.3278,
      "velocity": 120,
      "chip": "ym2612"
    },
    {
      "channel": 1,
      "note": 62,
      "start": 30.6642,
      "duration": 0.1186,
      "velocity": 101,
      "chip": "ym2612"
    },
    {
      "channel": 3,
      "note": 74,
      "start": 30.6655,
      "duration": 1.1027,
      "velocity": 106,
      "chip": "ym2612"
    },
    {
      "channel": 1,
      "note": 55,
      "start": 30.7834,
      "duration": 0.216,
      "velocity": 101,
      "chip": "ym2612"
    },
    {
      "channel": 5,
      "note": 32,
      "start": 30.7855,
      "duration": 0.1463,
      "velocity": 114,
      "chip": "ym2612"
    },
    {
      "channel": 0,
      "note": 100,
      "start": 30.8806,
      "duration": 0.4519,
      "velocity": 110,
      "chip": "ym2612"
    },
    {
      "channel": 2,
      "note": 95,
      "start": 30.8817,
      "duration": 0.4522,
      "velocity": 110,
      "chip": "ym2612"
    },
    {
      "channel": 1,
      "note": 55,
      "start": 30.9998,
      "duration": 0.1137,
      "velocity": 101,
      "chip": "ym2612"
    },
    {
      "channel": 5,
      "note": 32,
      "start": 31.0018,
      "duration": 0.1466,
      "velocity": 114,
      "chip": "ym2612"
    },
    {
      "channel": 1,
      "note": 59,
      "start": 31.1141,
      "duration": 0.102,
      "velocity": 101,
      "chip": "ym2612"
    },
    {
      "channel": 4,
      "note": 100,
      "start": 31.1158,
      "duration": 0.4352,
      "velocity": 110,
      "chip": "ym2612"
    },
    {
      "channel": 1,
      "note": 55,
      "start": 31.2167,
      "duration": 0.1165,
      "velocity": 101,
      "chip": "ym2612"
    },
    {
      "channel": 5,
      "note": 32,
      "start": 31.2187,
      "duration": 0.1111,
      "velocity": 114,
      "chip": "ym2612"
    },
    {
      "channel": 0,
      "note": 103,
      "start": 31.3331,
      "duration": 0.4327,
      "velocity": 110,
      "chip": "ym2612"
    },
    {
      "channel": 1,
      "note": 67,
      "start": 31.3338,
      "duration": 0.0964,
      "velocity": 101,
      "chip": "ym2612"
    },
    {
      "channel": 2,
      "note": 98,
      "start": 31.3346,
      "duration": 0.4328,
      "velocity": 110,
      "chip": "ym2612"
    },
    {
      "channel": 5,
      "note": 75,
      "start": 31.3362,
      "duration": 0.2103,
      "velocity": 120,
      "chip": "ym2612"
    },
    {
      "channel": 1,
      "note": 62,
      "start": 31.4308,
      "duration": 0.1187,
      "velocity": 101,
      "chip": "ym2612"
    },
    {
      "channel": 1,
      "note": 59,
      "start": 31.55,
      "duration": 0.1135,
      "velocity": 101,
      "chip": "ym2612"
    },
    {
      "channel": 4,
      "note": 103,
      "start": 31.5517,
      "duration": 0.4488,
      "velocity": 110,
      "chip": "ym2612"
    },
    {
      "channel": 5,
      "note": 32,
      "start": 31.5524,
      "duration": 0.1462,
      "velocity": 114,
      "chip": "ym2612"
    },
    {
      "channel": 1,
      "note": 55,
      "start": 31.6641,
      "duration": 0.1026,
      "velocity": 101,
      "chip": "ym2612"
    },
    {
      "channel": 0,
      "note": 104,
      "start": 31.7666,
      "duration": 0.88,
      "velocity": 110,
      "chip": "ym2612"
    },
    {
      "channel": 1,
      "note": 56,
      "start": 31.7673,
      "duration": 0.1129,
      "velocity": 101,
      "chip": "ym2612"
    },
    {
      "channel": 2,
      "note": 98,
      "start": 31.7681,
      "duration": 0.8794,
      "velocity": 110,
      "chip": "ym2612"
    },
    {
      "channel": 3,
      "note": 68,
      "start": 31.7689,
      "duration": 0.3289,
      "velocity": 106,
      "chip": "ym2612"
    },
    {
      "channel": 5,
      "note": 32,
      "start": 31.7701,
      "duration": 0.145,
      "velocity": 114,
      "chip": "ym2612"
    },
    {
      "channel": 1,
      "note": 56,
      "start": 31.8806,
      "duration": 0.2162,
      "velocity": 101,
      "chip": "ym2612"
    },
    {
      "channel": 4,
      "note": 104,
      "start": 32.0012,
      "duration": 0.8639,
      "velocity": 110,
      "chip": "ym2612"
    },
    {
      "channel": 5,
      "note": 32,
      "start": 32.002,
      "duration": 0.13,
      "velocity": 114,
      "chip": "ym2612"
    },
    {
      "channel": 1,
      "note": 56,
      "start": 32.0973,
      "duration": 0.1189,
      "velocity": 101,
      "chip": "ym2612"
    },
    {
      "channel": 3,
      "note": 71,
      "start": 32.0985,
      "duration": 0.333,
      "velocity": 106,
      "chip": "ym2612"
    },
    {
      "channel": 1,
      "note": 59,
      "start": 32.2168,
      "duration": 0.2135,
      "velocity": 101,
      "chip": "ym2612"
    },
    {
      "channel": 5,
      "note": 75,
      "start": 32.2187,
      "duration": 0.3278,
      "velocity": 120,
      "chip": "ym2612"
    },
    {
      "channel": 1,
      "note": 62,
      "start": 32.4309,
      "duration": 0.1186,
      "velocity": 101,
      "chip": "ym2612"
    },
    {
      "channel": 3,
      "note": 74,
      "start": 32.4322,
      "duration": 1.1028,
      "velocity": 106,
      "chip": "ym2612"
    },
    {
      "channel": 1,
      "note": 56,
      "start": 32.5501,
      "duration": 0.216,
      "velocity": 101,
      "chip": "ym2612"
    },
    {
      "channel": 5,
      "note": 32,
      "start": 32.5522,
      "duration": 0.1296,
      "velocity": 114,
      "chip": "ym2612"
    },
    {
      "channel": 0,
      "note": 104,
      "start": 32.6471,
      "duration": 0.3354,
      "velocity": 110,
      "chip": "ym2612"
    },
    {
      "channel": 2,
      "note": 98,
      "start": 32.648,
      "duration": 0.3359,
      "velocity": 110,
      "chip": "ym2612"
    },
    {
      "channel": 1,
      "note": 56,
      "start": 32.7665,
      "duration": 0.097,
      "velocity": 101,
      "chip": "ym2612"
    },
    {
      "channel": 5,
      "note": 32,
      "start": 32.7685,
      "duration": 0.1466,
      "velocity": 114,
      "chip": "ym2612"
    },
    {
      "channel": 1,
      "note": 59,
      "start": 32.8641,
      "duration": 0.1191,
      "velocity": 101,
      "chip": "ym2612"
    },
    {
      "channel": 4,
      "note": 104,
      "start": 32.8656,
      "duration": 0.3328,
      "velocity": 110,
      "chip": "ym2612"
    },
    {
      "channel": 0,
      "note": 107,
      "start": 32.9831,
      "duration": 0.3326,
      "velocity": 110,
      "chip": "ym2612"
    },
    {
      "channel": 1,
      "note": 56,
      "start": 32.9838,
      "duration": 0.1157,
      "velocity": 101,
      "chip": "ym2612"
    },
    {
      "channel": 2,
      "note": 104,
      "start": 32.9846,
      "duration": 0.3326,
      "velocity": 110,
      "chip": "ym2612"
    },
    {
      "channel": 5,
      "note": 32,
      "start": 32.9863,
      "duration": 0.1102,
      "velocity": 114,
      "chip": "ym2612"
    },
    {
      "channel": 1,
      "note": 68,
      "start": 33.1,
      "duration": 0.0968,
      "velocity": 101,
      "chip": "ym2612"
    },
    {
      "channel": 5,
      "note": 75,
      "start": 33.1019,
      "duration": 0.2113,
      "velocity": 120,
      "chip": "ym2612"
    },
    {
      "channel": 1,
      "note": 62,
      "start": 33.1974,
      "duration": 0.1191,
      "velocity": 101,
      "chip": "ym2612"
    },
    {
      "channel": 4,
      "note": 107,
      "start": 33.1991,
      "duration": 0.3367,
      "velocity": 110,
      "chip": "ym2612"
    },
    {
      "channel": 0,
      "note": 110,
      "start": 33.3165,
      "duration": 0.2161,
      "velocity": 110,
      "chip": "ym2612"
    },
    {
      "channel": 1,
      "note": 59,
      "start": 33.3171,
      "duration": 0.1131,
      "velocity": 101,
      "chip": "ym2612"
    },
    {
      "channel": 2,
      "note": 107,
      "start": 33.318,
      "duration": 0.2162,
      "velocity": 110,
      "chip": "ym2612"
    },
    {
      "channel": 5,
      "note": 32,
      "start": 33.3196,
      "duration": 0.1455,
      "velocity": 114,
      "chip": "ym2612"
    },
    {
      "channel": 1,
      "note": 56,
      "start": 33.4308,
      "duration": 0.1026,
      "velocity": 101,
      "chip": "ym2612"
    },
    {
      "channel": 0,
      "note": 108,
      "start": 33.5332,
      "duration": 0.88,
      "velocity": 110,
      "chip": "ym2612"
    },
    {
      "channel": 1,
      "note": 57,
      "start": 33.5339,
      "duration": 0.1129,
      "velocity": 101,
      "chip": "ym2612"
    },
    {
      "channel": 2,
      "note": 105,
      "start": 33.5348,
      "duration": 0.8794,
      "velocity": 110,
      "chip": "ym2612"
    },
    {
      "channel": 3,
      "note": 69,
      "start": 33.5356,
      "duration": 0.3288,
      "velocity": 106,
      "chip": "ym2612"
    },
    {
      "channel": 4,
      "note": 110,
      "start": 33.5365,
      "duration": 0.2139,
      "velocity": 110,
      "chip": "ym2612"
    },
    {
      "channel": 5,
      "note": 32,
      "start": 33.5373,
      "duration": 0.1443,
      "velocity": 114,
      "chip": "ym2612"
    },
    {
      "channel": 1,
      "note": 57,
      "start": 33.6473,
      "duration": 0.2162,
      "velocity": 101,
      "chip": "ym2612"
    },
    {
      "channel": 4,
      "note": 108,
      "start": 33.7512,
      "duration": 0.8815,
      "velocity": 110,
      "chip": "ym2612"
    },
    {
      "channel": 5,
      "note": 32,
      "start": 33.752,
      "duration": 0.1466,
      "velocity": 114,
      "chip": "ym2612"
    },
    {
      "channel": 1,
      "note": 57,
      "start": 33.864,
      "duration": 0.1189,
      "velocity": 101,
      "chip": "ym2612"
    },
    {
      "channel": 3,
      "note": 72,
      "start": 33.8651,
      "duration": 0.333,
      "velocity": 106,
      "chip": "ym2612"
    },
    {
      "channel": 1,
      "note": 60,
      "start": 33.9834,
      "duration": 0.2135,
      "velocity": 101,
      "chip": "ym2612"
    },
    {
      "channel": 5,
      "note": 75,
      "start": 33.9854,
      "duration": 0.3278,
      "velocity": 120,
      "chip": "ym2612"
    },
    {
      "channel": 1,
      "note": 64,
      "start": 34.1976,
      "duration": 0.1186,
      "velocity": 101,
      "chip": "ym2612"
    },
    {
      "channel": 3,
      "note": 76,
      "start": 34.1988,
      "duration": 1.1027,
      "velocity": 106,
      "chip": "ym2612"
    },
    {
      "channel": 1,
      "note": 57,
      "start": 34.3168,
      "duration": 0.216,
      "velocity": 101,
      "chip": "ym2612"
    },
    {
      "channel": 5,
      "note": 32,
      "start": 34.3189,
      "duration": 0.1296,
      "velocity": 114,
      "chip": "ym2612"
    },
    {
      "channel": 0,
      "note": 108,
      "start": 34.4137,
      "duration": 0.2162,
      "velocity": 110,
      "chip": "ym2612"
    },
    {
      "channel": 2,
      "note": 105,
      "start": 34.4147,
      "duration": 0.2167,
      "velocity": 110,
      "chip": "ym2612"
    },
    {
      "channel": 1,
      "note": 57,
      "start": 34.5332,
      "duration": 0.0975,
      "velocity": 101,
      "chip": "ym2612"
    },
    {
      "channel": 5,
      "note": 32,
      "start": 34.5351,
      "duration": 0.1466,
      "velocity": 114,
      "chip": "ym2612"
    },
    {
      "channel": 0,
      "note": 107,
      "start": 34.6306,
      "duration": 0.2352,
      "velocity": 110,
      "chip": "ym2612"
    },
    {
      "channel": 1,
      "note": 60,
      "start": 34.6313,
      "duration": 0.1182,
      "velocity": 101,
      "chip": "ym2612"
    },
    {
      "channel": 2,
      "note": 103,
      "start": 34.6321,
      "duration": 0.2352,
      "velocity": 110,
      "chip": "ym2612"
    },
    {
      "channel": 4,
      "note": 108,
      "start": 34.6332,
      "duration": 0.2354,
      "velocity": 110,
      "chip": "ym2612"
    },
    {
      "channel": 1,
      "note": 57,
      "start": 34.75,
      "duration": 0.1165,
      "velocity": 101,
      "chip": "ym2612"
    },
    {
      "channel": 5,
      "note": 32,
      "start": 34.752,
      "duration": 0.1111,
      "velocity": 114,
      "chip": "ym2612"
    },
    {
      "channel": 0,
      "note": 105,
      "start": 34.8665,
      "duration": 0.216,
      "velocity": 110,
      "chip": "ym2612"
    },
    {
      "channel": 1,
      "note": 69,
      "start": 34.8671,
      "duration": 0.0964,
      "velocity": 101,
      "chip": "ym2612"
    },
    {
      "channel": 2,
      "note": 100,
      "start": 34.868,
      "duration": 0.216,
      "velocity": 110,
      "chip": "ym2612"
    },
    {
      "channel": 4,
      "note": 107,
      "start": 34.8693,
      "duration": 0.216,
      "velocity": 110,
      "chip": "ym2612"
    },
    {
      "channel": 5,
      "note": 75,
      "start": 34.87,
      "duration": 0.2098,
      "velocity": 120,
      "chip": "ym2612"
    },
    {
      "channel": 1,
      "note": 64,
      "start": 34.9641,
      "duration": 0.1191,
      "velocity": 101,
      "chip": "ym2612"
    },
    {
      "channel": 0,
      "note": 103,
      "start": 35.0831,
      "duration": 0.2161,
      "velocity": 110,
      "chip": "ym2612"
    },
    {
      "channel": 1,
      "note": 60,
      "start": 35.0838,
      "duration": 0.1131,
      "velocity": 101,
      "chip": "ym2612"
    },
    {
      "channel": 2,
      "note": 100,
      "start": 35.0846,
      "duration": 0.2161,
      "velocity": 110,
      "chip": "ym2612"
    },
    {
      "channel": 4,
      "note": 105,
      "start": 35.086,
      "duration": 0.2164,
      "velocity": 110,
      "chip": "ym2612"
    },
    {
      "channel": 5,
      "note": 32,
      "start": 35.0868,
      "duration": 0.145,
      "velocity": 114,
      "chip": "ym2612"
    },
    {
      "channel": 1,
      "note": 57,
      "start": 35.1974,
      "duration": 0.1026,
      "velocity": 101,
      "chip": "ym2612"
    },
    {
      "channel": 0,
      "note": 101,
      "start": 35.2999,
      "duration": 0.88,
      "velocity": 110,
      "chip": "ym2612"
    },
    {
      "channel": 1,
      "note": 46,
      "start": 35.3006,
      "duration": 0.113,
      "velocity": 101,
      "chip": "ym2612"
    },
    {
      "channel": 2,
      "note": 98,
      "start": 35.3015,
      "duration": 0.8794,
      "velocity": 110,
      "chip": "ym2612"
    },
    {
      "channel": 3,
      "note": 65,
      "start": 35.3023,
      "duration": 0.3288,
      "velocity": 106,
      "chip": "ym2612"
    },
    {
      "channel": 4,
      "note": 103,
      "start": 35.3031,
      "duration": 0.214,
      "velocity": 110,
      "chip": "ym2612"
    },
    {
      "channel": 5,
      "note": 32,
      "start": 35.3039,
      "duration": 0.1445,
      "velocity": 114,
      "chip": "ym2612"
    },
    {
      "channel": 1,
      "note": 46,
      "start": 35.414,
      "duration": 0.2162,
      "velocity": 101,
      "chip": "ym2612"
    },
    {
      "channel": 4,
      "note": 101,
      "start": 35.5178,
      "duration": 0.8815,
      "velocity": 110,
      "chip": "ym2612"
    },
    {
      "channel": 5,
      "note": 32,
      "start": 35.5186,
      "duration": 0.1466,
      "velocity": 114,
      "chip": "ym2612"
    },
    {
      "channel": 1,
      "note": 46,
      "start": 35.6306,
      "duration": 0.1189,
      "velocity": 101,
      "chip": "ym2612"
    },
    {
      "channel": 3,
      "note": 70,
      "start": 35.6318,
      "duration": 0.333,
      "velocity": 106,
      "chip": "ym2612"
    },
    {
      "channel": 1,
      "note": 50,
      "start": 35.7501,
      "duration": 0.2135,
      "velocity": 101,
      "chip": "ym2612"
    },
    {
      "channel": 5,
      "note": 75,
      "start": 35.752,
      "duration": 0.3111,
      "velocity": 120,
      "chip": "ym2612"
    },
    {
      "channel": 1,
      "note": 53,
      "start": 35.9642,
      "duration": 0.102,
      "velocity": 101,
      "chip": "ym2612"
    },
    {
      "channel": 3,
      "note": 74,
      "start": 35.9655,
      "duration": 1.1027,
      "velocity": 106,
      "chip": "ym2612"
    },
    {
      "channel": 1,
      "note": 46,
      "start": 36.0668,
      "duration": 0.2327,
      "velocity": 101,
      "chip": "ym2612"
    },
    {
      "channel": 5,
      "note": 32,
      "start": 36.0689,
      "duration": 0.1463,
      "velocity": 114,
      "chip": "ym2612"
    },
    {
      "channel": 0,
      "note": 101,
      "start": 36.1804,
      "duration": 0.2162,
      "velocity": 110,
      "chip": "ym2612"
    },
    {
      "channel": 2,
      "note": 98,
      "start": 36.1813,
      "duration": 0.2167,
      "velocity": 110,
      "chip": "ym2612"
    },
    {
      "channel": 1,
      "note": 46,
      "start": 36.2998,
      "duration": 0.0975,
      "velocity": 101,
      "chip": "ym2612"
    },
    {
      "channel": 5,
      "note": 32,
      "start": 36.3018,
      "duration": 0.1466,
      "velocity": 114,
      "chip": "ym2612"
    },
    {
      "channel": 0,
      "note": 100,
      "start": 36.3972,
      "duration": 0.2352,
      "velocity": 110,
      "chip": "ym2612"
    },
    {
      "channel": 1,
      "note": 50,
      "start": 36.3979,
      "duration": 0.1182,
      "velocity": 101,
      "chip": "ym2612"
    },
    {
      "channel": 2,
      "note": 96,
      "start": 36.3987,
      "duration": 0.2352,
      "velocity": 110,
      "chip": "ym2612"
    },
    {
      "channel": 4,
      "note": 101,
      "start": 36.3998,
      "duration": 0.2354,
      "velocity": 110,
      "chip": "ym2612"
    },
    {
      "channel": 1,
      "note": 46,
      "start": 36.5167,
      "duration": 0.1165,
      "velocity": 101,
      "chip": "ym2612"
    },
    {
      "channel": 5,
      "note": 32,
      "start": 36.5187,
      "duration": 0.1111,
      "velocity": 114,
      "chip": "ym2612"
    },
    {
      "channel": 0,
      "note": 98,
      "start": 36.6331,
      "duration": 0.4327,
      "velocity": 110,
      "chip": "ym2612"
    },
    {
      "channel": 1,
      "note": 58,
      "start": 36.6338,
      "duration": 0.0964,
      "velocity": 101,
      "chip": "ym2612"
    },
    {
      "channel": 2,
      "note": 94,
      "start": 36.6346,
      "duration": 0.4328,
      "velocity": 110,
      "chip": "ym2612"
    },
    {
      "channel": 4,
      "note": 100,
      "start": 36.6359,
      "duration": 0.2151,
      "velocity": 110,
      "chip": "ym2612"
    },
    {
      "channel": 5,
      "note": 75,
      "start": 36.6367,
      "duration": 0.2098,
      "velocity": 120,
      "chip": "ym2612"
    },
    {
      "channel": 1,
      "note": 53,
      "start": 36.7308,
      "duration": 0.1187,
      "velocity": 101,
      "chip": "ym2612"
    },
    {
      "channel": 1,
      "note": 50,
      "start": 36.85,
      "duration": 0.0969,
      "velocity": 101,
      "chip": "ym2612"
    },
    {
      "channel": 4,
      "note": 98,
      "start": 36.8517,
      "duration": 0.4321,
      "velocity": 110,
      "chip": "ym2612"
    },
    {
      "channel": 5,
      "note": 32,
      "start": 36.8524,
      "duration": 0.1462,
      "velocity": 114,
      "chip": "ym2612"
    },
    {
      "channel": 1,
      "note": 46,
      "start": 36.9474,
      "duration": 0.1193,
      "velocity": 101,
      "chip": "ym2612"
    },
    {
      "channel": 0,
      "note": 103,
      "start": 37.0666,
      "duration": 0.88,
      "velocity": 110,
      "chip": "ym2612"
    },
    {
      "channel": 1,
      "note": 48,
      "start": 37.0673,
      "duration": 0.1129,
      "velocity": 101,
      "chip": "ym2612"
    },
    {
      "channel": 2,
      "note": 100,
      "start": 37.0681,
      "duration": 0.8794,
      "velocity": 110,
      "chip": "ym2612"
    },
    {
      "channel": 3,
      "note": 64,
      "start": 37.0689,
      "duration": 0.3288,
      "velocity": 106,
      "chip": "ym2612"
    },
    {
      "channel": 5,
      "note": 32,
      "start": 37.0701,
      "duration": 0.145,
      "velocity": 114,
      "chip": "ym2612"
    },
    {
      "channel": 1,
      "note": 48,
      "start": 37.1806,
      "duration": 0.2162,
      "velocity": 101,
      "chip": "ym2612"
    },
    {
      "channel": 4,
      "note": 103,
      "start": 37.2845,
      "duration": 0.8815,
      "velocity": 110,
      "chip": "ym2612"
    },
    {
      "channel": 5,
      "note": 32,
      "start": 37.2853,
      "duration": 0.1466,
      "velocity": 114,
      "chip": "ym2612"
    },
    {
      "channel": 1,
      "note": 48,
      "start": 37.3973,
      "duration": 0.1189,
      "velocity": 101,
      "chip": "ym2612"
    },
    {
      "channel": 3,
      "note": 67,
      "start": 37.3985,
      "duration": 0.333,
      "velocity": 106,
      "chip": "ym2612"
    },
    {
      "channel": 1,
      "note": 52,
      "start": 37.5168,
      "duration": 0.2135,
      "velocity": 101,
      "chip": "ym2612"
    },
    {
      "channel": 5,
      "note": 75,
      "start": 37.5187,
      "duration": 0.3111,
      "velocity": 120,
      "chip": "ym2612"
    },
    {
      "channel": 1,
      "note": 55,
      "start": 37.7309,
      "duration": 0.102,
      "velocity": 101,
      "chip": "ym2612"
    },
    {
      "channel": 3,
      "note": 72,
      "start": 37.7322,
      "duration": 1.1027,
      "velocity": 106,
      "chip": "ym2612"
    },
    {
      "channel": 1,
      "note": 48,
      "start": 37.8334,
      "duration": 0.2327,
      "velocity": 101,
      "chip": "ym2612"
    },
    {
      "channel": 5,
      "note": 32,
      "start": 37.8355,
      "duration": 0.1463,
      "velocity": 114,
      "chip": "ym2612"
    },
    {
      "channel": 0,
      "note": 103,
      "start": 37.9471,
      "duration": 0.2162,
      "velocity": 110,
      "chip": "ym2612"
    },
    {
      "channel": 2,
      "note": 100,
      "start": 37.948,
      "duration": 0.2167,
      "velocity": 110,
      "chip": "ym2612"
    },
    {
      "channel": 1,
      "note": 48,
      "start": 38.0665,
      "duration": 0.0975,
      "velocity": 101,
      "chip": "ym2612"
    },
    {
      "channel": 5,
      "note": 32,
      "start": 38.0685,
      "duration": 0.13,
      "velocity": 114,
      "chip": "ym2612"
    },
    {
      "channel": 0,
      "note": 101,
      "start": 38.1639,
      "duration": 0.2352,
      "velocity": 110,
      "chip": "ym2612"
    },
    {
      "channel": 1,
      "note": 52,
      "start": 38.1646,
      "duration": 0.1182,
      "velocity": 101,
      "chip": "ym2612"
    },
    {
      "channel": 2,
      "note": 98,
      "start": 38.1654,
      "duration": 0.2352,
      "velocity": 110,
      "chip": "ym2612"
    },
    {
      "channel": 4,
      "note": 103,
      "start": 38.1665,
      "duration": 0.2354,
      "velocity": 110,
      "chip": "ym2612"
    },
    {
      "channel": 1,
      "note": 48,
      "start": 38.2834,
      "duration": 0.1165,
      "velocity": 101,
      "chip": "ym2612"
    },
    {
      "channel": 5,
      "note": 32,
      "start": 38.2854,
      "duration": 0.1111,
      "velocity": 114,
      "chip": "ym2612"
    },
    {
      "channel": 0,
      "note": 100,
      "start": 38.3998,
      "duration": 0.4327,
      "velocity": 110,
      "chip": "ym2612"
    },
    {
      "channel": 1,
      "note": 60,
      "start": 38.4005,
      "duration": 0.0964,
      "velocity": 101,
      "chip": "ym2612"
    },
    {
      "channel": 2,
      "note": 96,
      "start": 38.4013,
      "duration": 0.4328,
      "velocity": 110,
      "chip": "ym2612"
    },
    {
      "channel": 4,
      "note": 101,
      "start": 38.4026,
      "duration": 0.2151,
      "velocity": 110,
      "chip": "ym2612"
    },
    {
      "channel": 5,
      "note": 75,
      "start": 38.4034,
      "duration": 0.2098,
      "velocity": 120,
      "chip": "ym2612"
    },
    {
      "channel": 1,
      "note": 64,
      "start": 38.4974,
      "duration": 0.1187,
      "velocity": 101,
      "chip": "ym2612"
    },
    {
      "channel": 1,
      "note": 52,
      "start": 38.6167,
      "duration": 0.0969,
      "velocity": 101,
      "chip": "ym2612"
    },
    {
      "channel": 4,
      "note": 100,
      "start": 38.6184,
      "duration": 0.4335,
      "velocity": 110,
      "chip": "ym2612"
    },
    {
      "channel": 5,
      "note": 32,
      "start": 38.6191,
      "duration": 0.1462,
      "velocity": 114,
      "chip": "ym2612"
    },
    {
      "channel": 1,
      "note": 48,
      "start": 38.7141,
      "duration": 0.1193,
      "velocity": 101,
      "chip": "ym2612"
    },
    {
      "channel": 0,
      "note": 105,
      "start": 38.8332,
      "duration": 0.1133,
      "velocity": 110,
      "chip": "ym2612"
    },
    {
      "channel": 1,
      "note": 50,
      "start": 38.8339,
      "duration": 0.1134,
      "velocity": 101,
      "chip": "ym2612"
    },
    {
      "channel": 2,
      "note": 101,
      "start": 38.8348,
      "duration": 0.1132,
      "velocity": 110,
      "chip": "ym2612"
    },
    {
      "channel": 3,
      "note": 86,
      "start": 38.8356,
      "duration": 0.1132,
      "velocity": 106,
      "chip": "ym2612"
    },
    {
      "channel": 5,
      "note": 32,
      "start": 38.8368,
      "duration": 0.145,
      "velocity": 114,
      "chip": "ym2612"
    },
    {
      "channel": 0,
      "note": 110,
      "start": 38.9472,
      "duration": 0.1019,
      "velocity": 110,
      "chip": "ym2612"
    },
    {
      "channel": 1,
      "note": 50,
      "start": 38.9478,
      "duration": 0.2162,
      "velocity": 101,
      "chip": "ym2612"
    },
    {
      "channel": 2,
      "note": 105,
      "start": 38.9486,
      "duration": 0.1016,
      "velocity": 110,
      "chip": "ym2612"
    },
    {
      "channel": 3,
      "note": 89,
      "start": 38.9495,
      "duration": 0.1016,
      "velocity": 106,
      "chip": "ym2612"
    },
    {
      "channel": 0,
      "note": 105,
      "start": 39.0498,
      "duration": 0.1134,
      "velocity": 110,
      "chip": "ym2612"
    },
    {
      "channel": 2,
      "note": 101,
      "start": 39.0509,
      "duration": 0.1137,
      "velocity": 110,
      "chip": "ym2612"
    },
    {
      "channel": 3,
      "note": 86,
      "start": 39.0518,
      "duration": 0.1137,
      "velocity": 106,
      "chip": "ym2612"
    },
    {
      "channel": 4,
      "note": 105,
      "start": 39.0526,
      "duration": 0.1136,
      "velocity": 110,
      "chip": "ym2612"
    },
    {
      "channel": 5,
      "note": 32,
      "start": 39.0534,
      "duration": 0.1449,
      "velocity": 114,
      "chip": "ym2612"
    },
    {
      "channel": 0,
      "note": 101,
      "start": 39.1639,
      "duration": 0.102,
      "velocity": 110,
      "chip": "ym2612"
    },
    {
      "channel": 1,
      "note": 50,
      "start": 39.1644,
      "duration": 0.1023,
      "velocity": 101,
      "chip": "ym2612"
    },
    {
      "channel": 2,
      "note": 98,
      "start": 39.1652,
      "duration": 0.1022,
      "velocity": 110,
      "chip": "ym2612"
    },
    {
      "channel": 3,
      "note": 81,
      "start": 39.1661,
      "duration": 0.1024,
      "velocity": 106,
      "chip": "ym2612"
    },
    {
      "channel": 4,
      "note": 110,
      "start": 39.1669,
      "duration": 0.1024,
      "velocity": 110,
      "chip": "ym2612"
    },
    {
      "channel": 0,
      "note": 105,
      "start": 39.2665,
      "duration": 0.1134,
      "velocity": 110,
      "chip": "ym2612"
    },
    {
      "channel": 1,
      "note": 53,
      "start": 39.2673,
      "duration": 0.2301,
      "velocity": 101,
      "chip": "ym2612"
    },
    {
      "channel": 2,
      "note": 101,
      "start": 39.2682,
      "duration": 0.1129,
      "velocity": 110,
      "chip": "ym2612"
    },
    {
      "channel": 3,
      "note": 86,
      "start": 39.2691,
      "duration": 0.1128,
      "velocity": 106,
      "chip": "ym2612"
    },
    {
      "channel": 4,
      "note": 105,
      "start": 39.27,
      "duration": 0.1127,
      "velocity": 110,
      "chip": "ym2612"
    },
    {
      "channel": 5,
      "note": 75,
      "start": 39.2707,
      "duration": 0.3258,
      "velocity": 120,
      "chip": "ym2612"
    },
    {
      "channel": 0,
      "note": 110,
      "start": 39.3806,
      "duration": 0.116,
      "velocity": 110,
      "chip": "ym2612"
    },
    {
      "channel": 2,
      "note": 105,
      "start": 39.3817,
      "duration": 0.1164,
      "velocity": 110,
      "chip": "ym2612"
    },
    {
      "channel": 3,
      "note": 89,
      "start": 39.3825,
      "duration": 0.1164,
      "velocity": 106,
      "chip": "ym2612"
    },
    {
      "channel": 4,
      "note": 101,
      "start": 39.3834,
      "duration": 0.1165,
      "velocity": 110,
      "chip": "ym2612"
    },
    {
      "channel": 0,
      "note": 105,
      "start": 39.4972,
      "duration": 0.1019,
      "velocity": 110,
      "chip": "ym2612"
    },
    {
      "channel": 1,
      "note": 57,
      "start": 39.4979,
      "duration": 0.102,
      "velocity": 101,
      "chip": "ym2612"
    },
    {
      "channel": 2,
      "note": 101,
      "start": 39.4988,
      "duration": 0.1018,
      "velocity": 110,
      "chip": "ym2612"
    },
    {
      "channel": 3,
      "note": 86,
      "start": 39.4996,
      "duration": 0.1019,
      "velocity": 106,
      "chip": "ym2612"
    },
    {
      "channel": 4,
      "note": 105,
      "start": 39.5005,
      "duration": 0.1017,
      "velocity": 110,
      "chip": "ym2612"
    },
    {
      "channel": 0,
      "note": 101,
      "start": 39.5998,
      "duration": 0.1135,
      "velocity": 110,
      "chip": "ym2612"
    },
    {
      "channel": 1,
      "note": 50,
      "start": 39.6005,
      "duration": 0.2328,
      "velocity": 101,
      "chip": "ym2612"
    },
    {
      "channel": 2,
      "note": 98,
      "start": 39.6013,
      "duration": 0.1132,
      "velocity": 110,
      "chip": "ym2612"
    },
    {
      "channel": 3,
      "note": 81,
      "start": 39.6021,
      "duration": 0.1134,
      "velocity": 106,
      "chip": "ym2612"
    },
    {
      "channel": 4,
      "note": 110,
      "start": 39.603,
      "duration": 0.1134,
      "velocity": 110,
      "chip": "ym2612"
    },
    {
      "channel": 5,
      "note": 32,
      "start": 39.6038,
      "duration": 0.1445,
      "velocity": 114,
      "chip": "ym2612"
    },
    {
      "channel": 0,
      "note": 105,
      "start": 39.714,
      "duration": 0.1185,
      "velocity": 110,
      "chip": "ym2612"
    },
    {
      "channel": 2,
      "note": 101,
      "start": 39.7152,
      "duration": 0.1186,
      "velocity": 110,
      "chip": "ym2612"
    },
    {
      "channel": 3,
      "note": 86,
      "start": 39.7162,
      "duration": 0.1185,
      "velocity": 106,
      "chip": "ym2612"
    },
    {
      "channel": 4,
      "note": 105,
      "start": 39.717,
      "duration": 0.1184,
      "velocity": 110,
      "chip": "ym2612"
    },
    {
      "channel": 0,
      "note": 110,
      "start": 39.8331,
      "duration": 0.0968,
      "velocity": 110,
      "chip": "ym2612"
    },
    {
      "channel": 1,
      "note": 50,
      "start": 39.8337,
      "duration": 0.097,
      "velocity": 101,
      "chip": "ym2612"
    },
    {
      "channel": 2,
      "note": 105,
      "start": 39.8345,
      "duration": 0.0969,
      "velocity": 110,
      "chip": "ym2612"
    },
    {
      "channel": 3,
      "note": 89,
      "start": 39.8354,
      "duration": 0.0969,
      "velocity": 106,
      "chip": "ym2612"
    },
    {
      "channel": 4,
      "note": 101,
      "start": 39.8362,
      "duration": 0.097,
      "velocity": 110,
      "chip": "ym2612"
    },
    {
      "channel": 5,
      "note": 32,
      "start": 39.8369,
      "duration": 0.128,
      "velocity": 114,
      "chip": "ym2612"
    },
    {
      "channel": 0,
      "note": 105,
      "start": 39.9306,
      "duration": 0.1185,
      "velocity": 110,
      "chip": "ym2612"
    },
    {
      "channel": 1,
      "note": 53,
      "start": 39.9313,
      "duration": 0.1186,
      "velocity": 101,
      "chip": "ym2612"
    },
    {
      "channel": 2,
      "note": 101,
      "start": 39.9321,
      "duration": 0.1185,
      "velocity": 110,
      "chip": "ym2612"
    },
    {
      "channel": 3,
      "note": 86,
      "start": 39.9329,
      "duration": 0.1185,
      "velocity": 106,
      "chip": "ym2612"
    },
    {
      "channel": 4,
      "note": 105,
      "start": 39.9339,
      "duration": 0.1184,
      "velocity": 110,
      "chip": "ym2612"
    },
    {
      "channel": 0,
      "note": 101,
      "start": 40.0498,
      "duration": 0.0994,
      "velocity": 110,
      "chip": "ym2612"
    },
    {
      "channel": 1,
      "note": 50,
      "start": 40.0505,
      "duration": 0.0996,
      "velocity": 101,
      "chip": "ym2612"
    },
    {
      "channel": 2,
      "note": 98,
      "start": 40.0513,
      "duration": 0.0995,
      "velocity": 110,
      "chip": "ym2612"
    },
    {
      "channel": 3,
      "note": 81,
      "start": 40.0521,
      "duration": 0.0996,
      "velocity": 106,
      "chip": "ym2612"
    },
    {
      "channel": 4,
      "note": 110,
      "start": 40.053,
      "duration": 0.0996,
      "velocity": 110,
      "chip": "ym2612"
    },
    {
      "channel": 5,
      "note": 32,
      "start": 40.0538,
      "duration": 0.0927,
      "velocity": 114,
      "chip": "ym2612"
    },
    {
      "channel": 0,
      "note": 105,
      "start": 40.1498,
      "duration": 0.1134,
      "velocity": 110,
      "chip": "ym2612"
    },
    {
      "channel": 1,
      "note": 62,
      "start": 40.1506,
      "duration": 0.1134,
      "velocity": 101,
      "chip": "ym2612"
    },
    {
      "channel": 2,
      "note": 101,
      "start": 40.1515,
      "duration": 0.1132,
      "velocity": 110,
      "chip": "ym2612"
    },
    {
      "channel": 3,
      "note": 86,
      "start": 40.1524,
      "duration": 0.1131,
      "velocity": 106,
      "chip": "ym2612"
    },
    {
      "channel": 4,
      "note": 105,
      "start": 40.1533,
      "duration": 0.1131,
      "velocity": 110,
      "chip": "ym2612"
    },
    {
      "channel": 5,
      "note": 75,
      "start": 40.154,
      "duration": 0.2258,
      "velocity": 120,
      "chip": "ym2612"
    },
    {
      "channel": 0,
      "note": 110,
      "start": 40.2639,
      "duration": 0.1185,
      "velocity": 110,
      "chip": "ym2612"
    },
    {
      "channel": 1,
      "note": 57,
      "start": 40.2646,
      "duration": 0.1186,
      "velocity": 101,
      "chip": "ym2612"
    },
    {
      "channel": 2,
      "note": 105,
      "start": 40.2654,
      "duration": 0.1185,
      "velocity": 110,
      "chip": "ym2612"
    },
    {
      "channel": 3,
      "note": 89,
      "start": 40.2663,
      "duration": 0.1185,
      "velocity": 106,
      "chip": "ym2612"
    },
    {
      "channel": 4,
      "note": 101,
      "start": 40.2671,
      "duration": 0.1186,
      "velocity": 110,
      "chip": "ym2612"
    },
    {
      "channel": 0,
      "note": 105,
      "start": 40.3831,
      "duration": 0.0968,
      "velocity": 110,
      "chip": "ym2612"
    },
    {
      "channel": 1,
      "note": 53,
      "start": 40.3838,
      "duration": 0.0969,
      "velocity": 101,
      "chip": "ym2612"
    },
    {
      "channel": 2,
      "note": 101,
      "start": 40.3846,
      "duration": 0.0968,
      "velocity": 110,
      "chip": "ym2612"
    },
    {
      "channel": 3,
      "note": 86,
      "start": 40.3855,
      "duration": 0.0968,
      "velocity": 106,
      "chip": "ym2612"
    },
    {
      "channel": 4,
      "note": 105,
      "start": 40.3864,
      "duration": 0.0966,
      "velocity": 110,
      "chip": "ym2612"
    },
    {
      "channel": 5,
      "note": 32,
      "start": 40.3872,
      "duration": 0.1445,
      "velocity": 114,
      "chip": "ym2612"
    },
    {
      "channel": 0,
      "note": 101,
      "start": 40.4806,
      "duration": 0.1188,
      "velocity": 110,
      "chip": "ym2612"
    },
    {
      "channel": 1,
      "note": 50,
      "start": 40.4813,
      "duration": 0.119,
      "velocity": 101,
      "chip": "ym2612"
    },
    {
      "channel": 2,
      "note": 98,
      "start": 40.482,
      "duration": 0.119,
      "velocity": 110,
      "chip": "ym2612"
    },
    {
      "channel": 3,
      "note": 81,
      "start": 40.4829,
      "duration": 0.1213,
      "velocity": 106,
      "chip": "ym2612"
    },
    {
      "channel": 4,
      "note": 110,
      "start": 40.4838,
      "duration": 0.1212,
      "velocity": 110,
      "chip": "ym2612"
    },
    {
      "channel": 0,
      "note": 105,
      "start": 40.6,
      "duration": 0.2158,
      "velocity": 110,
      "chip": "ym2612"
    },
    {
      "channel": 1,
      "note": 50,
      "start": 40.6008,
      "duration": 0.2153,
      "velocity": 101,
      "chip": "ym2612"
    },
    {
      "channel": 2,
      "note": 89,
      "start": 40.6017,
      "duration": 0.2148,
      "velocity": 110,
      "chip": "ym2612"
    },
    {
      "channel": 3,
      "note": 86,
      "start": 40.6049,
      "duration": 0.2119,
      "velocity": 106,
      "chip": "ym2612"
    },
    {
      "channel": 4,
      "note": 105,
      "start": 40.6057,
      "duration": 0.1114,
      "velocity": 110,
      "chip": "ym2612"
    },
    {
      "channel": 5,
      "note": 75,
      "start": 40.6064,
      "duration": 0.1068,
      "velocity": 120,
      "chip": "ym2612"
    },
    {
      "channel": 4,
      "note": 101,
      "start": 40.7178,
      "duration": 0.0993,
      "velocity": 110,
      "chip": "ym2612"
    },
    {
      "channel": 5,
      "note": 32,
      "start": 40.7186,
      "duration": 0.0946,
      "velocity": 114,
      "chip": "ym2612"
    },
    {
      "channel": 4,
      "note": 105,
      "start": 40.8178,
      "duration": 0.2178,
      "velocity": 110,
      "chip": "ym2612"
    },
    {
      "channel": 5,
      "note": 32,
      "start": 40.8187,
      "duration": 0.1453,
      "velocity": 114,
      "chip": "ym2612"
    },
    {
      "channel": 0,
      "note": 105,
      "start": 41.0331,
      "duration": 0.3326,
      "velocity": 110,
      "chip": "ym2612"
    },
    {
      "channel": 1,
      "note": 50,
      "start": 41.0338,
      "duration": 0.3326,
      "velocity": 101,
      "chip": "ym2612"
    },
    {
      "channel": 2,
      "note": 89,
      "start": 41.0346,
      "duration": 0.3323,
      "velocity": 110,
      "chip": "ym2612"
    },
    {
      "channel": 3,
      "note": 86,
      "start": 41.0355,
      "duration": 0.3321,
      "velocity": 106,
      "chip": "ym2612"
    },
    {
      "channel": 5,
      "note": 75,
      "start": 41.0365,
      "duration": 0.11,
      "velocity": 120,
      "chip": "ym2612"
    },
    {
      "channel": 5,
      "note": 32,
      "start": 41.1512,
      "duration": 0.1471,
      "velocity": 114,
      "chip": "ym2612"
    },
    {
      "channel": 4,
      "note": 105,
      "start": 41.2653,
      "duration": 0.337,
      "velocity": 110,
      "chip": "ym2612"
    },
    {
      "channel": 0,
      "note": 105,
      "start": 41.3663,
      "duration": 0.1162,
      "velocity": 110,
      "chip": "ym2612"
    },
    {
      "channel": 1,
      "note": 50,
      "start": 41.3668,
      "duration": 0.1159,
      "velocity": 101,
      "chip": "ym2612"
    },
    {
      "channel": 2,
      "note": 89,
      "start": 41.3675,
      "duration": 0.1156,
      "velocity": 110,
      "chip": "ym2612"
    },
    {
      "channel": 3,
      "note": 86,
      "start": 41.3681,
      "duration": 0.1153,
      "velocity": 106,
      "chip": "ym2612"
    },
    {
      "channel": 5,
      "note": 75,
      "start": 41.3692,
      "duration": 0.1106,
      "velocity": 120,
      "chip": "ym2612"
    },
    {
      "channel": 5,
      "note": 32,
      "start": 41.4847,
      "duration": 0.1118,
      "velocity": 114,
      "chip": "ym2612"
    },
    {
      "channel": 0,
      "note": 105,
      "start": 41.5998,
      "duration": 0.216,
      "velocity": 110,
      "chip": "ym2612"
    },
    {
      "channel": 1,
      "note": 50,
      "start": 41.6005,
      "duration": 0.2159,
      "velocity": 101,
      "chip": "ym2612"
    },
    {
      "channel": 2,
      "note": 89,
      "start": 41.6013,
      "duration": 0.2156,
      "velocity": 110,
      "chip": "ym2612"
    },
    {
      "channel": 3,
      "note": 86,
      "start": 41.6021,
      "duration": 0.2155,
      "velocity": 106,
      "chip": "ym2612"
    },
    {
      "channel": 4,
      "note": 105,
      "start": 41.6028,
      "duration": 0.0977,
      "velocity": 110,
      "chip": "ym2612"
    },
    {
      "channel": 5,
      "note": 75,
      "start": 41.6035,
      "duration": 0.0929,
      "velocity": 120,
      "chip": "ym2612"
    },
    {
      "channel": 5,
      "note": 32,
      "start": 41.7015,
      "duration": 0.1117,
      "velocity": 114,
      "chip": "ym2612"
    },
    {
      "channel": 0,
      "note": 105,
      "start": 41.8163,
      "duration": 0.0995,
      "velocity": 110,
      "chip": "ym2612"
    },
    {
      "channel": 1,
      "note": 50,
      "start": 41.8168,
      "duration": 0.0996,
      "velocity": 101,
      "chip": "ym2612"
    },
    {
      "channel": 2,
      "note": 89,
      "start": 41.8175,
      "duration": 0.0995,
      "velocity": 110,
      "chip": "ym2612"
    },
    {
      "channel": 3,
      "note": 86,
      "start": 41.8181,
      "duration": 0.0995,
      "velocity": 106,
      "chip": "ym2612"
    },
    {
      "channel": 4,
      "note": 105,
      "start": 41.819,
      "duration": 0.2123,
      "velocity": 110,
      "chip": "ym2612"
    },
    {
      "channel": 5,
      "note": 75,
      "start": 41.8197,
      "duration": 0.0934,
      "velocity": 120,
      "chip": "ym2612"
    },
    {
      "channel": 0,
      "note": 105,
      "start": 41.9163,
      "duration": 0.2328,
      "velocity": 110,
      "chip": "ym2612"
    },
    {
      "channel": 1,
      "note": 50,
      "start": 41.9168,
      "duration": 0.2331,
      "velocity": 101,
      "chip": "ym2612"
    },
    {
      "channel": 2,
      "note": 89,
      "start": 41.9175,
      "duration": 0.2331,
      "velocity": 110,
      "chip": "ym2612"
    },
    {
      "channel": 3,
      "note": 86,
      "start": 41.9181,
      "duration": 0.2333,
      "velocity": 106,
      "chip": "ym2612"
    },
    {
      "channel": 5,
      "note": 75,
      "start": 41.9192,
      "duration": 0.2273,
      "velocity": 120,
      "chip": "ym2612"
    },
    {
      "channel": 4,
      "note": 105,
      "start": 42.0318,
      "duration": 0.1205,
      "velocity": 110,
      "chip": "ym2612"
    },
    {
      "channel": 0,
      "note": 108,
      "start": 42.1498,
      "duration": 0.0993,
      "velocity": 110,
      "chip": "ym2612"
    },
    {
      "channel": 1,
      "note": 48,
      "start": 42.1505,
      "duration": 0.0994,
      "velocity": 101,
      "chip": "ym2612"
    },
    {
      "channel": 2,
      "note": 91,
      "start": 42.1513,
      "duration": 0.0993,
      "velocity": 110,
      "chip": "ym2612"
    },
    {
      "channel": 3,
      "note": 88,
      "start": 42.1521,
      "duration": 0.0993,
      "velocity": 106,
      "chip": "ym2612"
    },
    {
      "channel": 4,
      "note": 105,
      "start": 42.1528,
      "duration": 0.2264,
      "velocity": 110,
      "chip": "ym2612"
    },
    {
      "channel": 5,
      "note": 75,
      "start": 42.1535,
      "duration": 0.0929,
      "velocity": 120,
      "chip": "ym2612"
    },
    {
      "channel": 0,
      "note": 110,
      "start": 42.2498,
      "duration": 0.119,
      "velocity": 106,
      "chip": "ym2612"
    },
    {
      "channel": 1,
      "note": 50,
      "start": 42.2505,
      "duration": 0.1214,
      "velocity": 101,
      "chip": "ym2612"
    },
    {
      "channel": 2,
      "note": 93,
      "start": 42.2513,
      "duration": 0.1237,
      "velocity": 106,
      "chip": "ym2612"
    },
    {
      "channel": 3,
      "note": 89,
      "start": 42.2521,
      "duration": 0.1262,
      "velocity": 106,
      "chip": "ym2612"
    },
    {
      "channel": 5,
      "note": 75,
      "start": 42.2532,
      "duration": 0.1102,
      "velocity": 120,
      "chip": "ym2612"
    },
    {
      "channel": 0,
      "note": 88,
      "start": 42.3694,
      "duration": 0.213,
      "velocity": 106,
      "chip": "ym2612"
    },
    {
      "channel": 1,
      "note": 57,
      "start": 42.3724,
      "duration": 0.2108,
      "velocity": 101,
      "chip": "ym2612"
    },
    {
      "channel": 2,
      "note": 72,
      "start": 42.3757,
      "duration": 0.2083,
      "velocity": 106,
      "chip": "ym2612"
    },
    {
      "channel": 3,
      "note": 81,
      "start": 42.379,
      "duration": 0.2058,
      "velocity": 106,
      "chip": "ym2612"
    },
    {
      "channel": 4,
      "note": 108,
      "start": 42.3799,
      "duration": 0.0847,
      "velocity": 110,
      "chip": "ym2612"
    },
    {
      "channel": 5,
      "note": 32,
      "start": 42.3808,
      "duration": 0.1342,
      "velocity": 114,
      "chip": "ym2612"
    },
    {
      "channel": 4,
      "note": 110,
      "start": 42.4653,
      "duration": 0.1232,
      "velocity": 106,
      "chip": "ym2612"
    },
    {
      "channel": 0,
      "note": 93,
      "start": 42.5831,
      "duration": 0.216,
      "velocity": 106,
      "chip": "ym2612"
    },
    {
      "channel": 1,
      "note": 52,
      "start": 42.5838,
      "duration": 0.2161,
      "velocity": 101,
      "chip": "ym2612"
    },
    {
      "channel": 2,
      "note": 76,
      "start": 42.5846,
      "duration": 0.216,
      "velocity": 106,
      "chip": "ym2612"
    },
    {
      "channel": 3,
      "note": 84,
      "start": 42.5854,
      "duration": 0.216,
      "velocity": 106,
      "chip": "ym2612"
    },
    {
      "channel": 4,
      "note": 88,
      "start": 42.5892,
      "duration": 0.213,
      "velocity": 106,
      "chip": "ym2612"
    },
    {
      "channel": 5,
      "note": 32,
      "start": 42.59,
      "duration": 0.1416,
      "velocity": 114,
      "chip": "ym2612"
    },
    {
      "channel": 0,
      "note": 93,
      "start": 42.7998,
      "duration": 0.2301,
      "velocity": 106,
      "chip": "ym2612"
    },
    {
      "channel": 1,
      "note": 57,
      "start": 42.8005,
      "duration": 0.2302,
      "velocity": 101,
      "chip": "ym2612"
    },
    {
      "channel": 2,
      "note": 76,
      "start": 42.8013,
      "duration": 0.23,
      "velocity": 106,
      "chip": "ym2612"
    },
    {
      "channel": 3,
      "note": 84,
      "start": 42.8021,
      "duration": 0.23,
      "velocity": 106,
      "chip": "ym2612"
    },
    {
      "channel": 4,
      "note": 93,
      "start": 42.803,
      "duration": 0.23,
      "velocity": 106,
      "chip": "ym2612"
    },
    {
      "channel": 5,
      "note": 75,
      "start": 42.8037,
      "duration": 0.3261,
      "velocity": 120,
      "chip": "ym2612"
    },
    {
      "channel": 0,
      "note": 93,
      "start": 43.0306,
      "duration": 0.1019,
      "velocity": 106,
      "chip": "ym2612"
    },
    {
      "channel": 1,
      "note": 57,
      "start": 43.0312,
      "duration": 0.1019,
      "velocity": 101,
      "chip": "ym2612"
    },
    {
      "channel": 2,
      "note": 76,
      "start": 43.0319,
      "duration": 0.1017,
      "velocity": 106,
      "chip": "ym2612"
    },
    {
      "channel": 3,
      "note": 84,
      "start": 43.0328,
      "duration": 0.1015,
      "velocity": 106,
      "chip": "ym2612"
    },
    {
      "channel": 4,
      "note": 93,
      "start": 43.0336,
      "duration": 0.2142,
      "velocity": 106,
      "chip": "ym2612"
    },
    {
      "channel": 0,
      "note": 93,
      "start": 43.1329,
      "duration": 0.1136,
      "velocity": 106,
      "chip": "ym2612"
    },
    {
      "channel": 1,
      "note": 57,
      "start": 43.1335,
      "duration": 0.1134,
      "velocity": 101,
      "chip": "ym2612"
    },
    {
      "channel": 2,
      "note": 76,
      "start": 43.1341,
      "duration": 0.113,
      "velocity": 106,
      "chip": "ym2612"
    },
    {
      "channel": 3,
      "note": 84,
      "start": 43.1348,
      "duration": 0.1127,
      "velocity": 106,
      "chip": "ym2612"
    },
    {
      "channel": 5,
      "note": 32,
      "start": 43.136,
      "duration": 0.1446,
      "velocity": 114,
      "chip": "ym2612"
    },
    {
      "channel": 4,
      "note": 93,
      "start": 43.2485,
      "duration": 0.1018,
      "velocity": 106,
      "chip": "ym2612"
    },
    {
      "channel": 0,
      "note": 93,
      "start": 43.3498,
      "duration": 0.0006,
      "velocity": 106,
      "chip": "ym2612"
    }
  ]
}