{
  "track_name": "18 - Journey",
  "duration_sec": 99.537,
  "sample_rate": 44100,
  "note_count": 1739,
  "unique_pitches": 22,
  "pitch_range": 30,
  "avg_note_duration": 0.1339,
  "reconstruction_stats": {
    "notes_reconstructed": 1739,
    "keyon_events": 1739,
    "keyoff_events": 1738,
    "orphan_keyons": 1,
    "unique_pitches": 22,
    "pitch_range": 30,
    "avg_duration_sec": 0.1339
  },
  "metadata": {
    "source": "D\\Dungeons & Dragons - Warriors of the Eternal Sun\\18 - Journey.vgz"
  },
  "notes": [
    {
      "channel": 3,
      "note": 59,
      "start": 0.0734,
      "duration": 0.0723,
      "velocity": 93,
      "chip": "ym2612"
    },
    {
      "channel": 3,
      "note": 59,
      "start": 0.219,
      "duration": 0.1307,
      "velocity": 93,
      "chip": "ym2612"
    },
    {
      "channel": 3,
      "note": 59,
      "start": 0.3522,
      "duration": 0.0668,
      "velocity": 93,
      "chip": "ym2612"
    },
    {
      "channel": 3,
      "note": 59,
      "start": 0.4221,
      "duration": 0.0619,
      "velocity": 93,
      "chip": "ym2612"
    },
    {
      "channel": 3,
      "note": 59,
      "start": 0.4863,
      "duration": 0.1343,
      "velocity": 93,
      "chip": "ym2612"
    },
    {
      "channel": 3,
      "note": 59,
      "start": 0.6233,
      "duration": 0.0656,
      "velocity": 93,
      "chip": "ym2612"
    },
    {
      "channel": 3,
      "note": 59,
      "start": 0.771,
      "duration": 0.1473,
      "velocity": 93,
      "chip": "ym2612"
    },
    {
      "channel": 3,
      "note": 59,
      "start": 0.9208,
      "duration": 0.0665,
      "velocity": 93,
      "chip": "ym2612"
    },
    {
      "channel": 3,
      "note": 59,
      "start": 0.9904,
      "duration": 0.0549,
      "velocity": 93,
      "chip": "ym2612"
    },
    {
      "channel": 3,
      "note": 59,
      "start": 1.0484,
      "duration": 0.1239,
      "velocity": 93,
      "chip": "ym2612"
    },
    {
      "channel": 3,
      "note": 59,
      "start": 1.1749,
      "duration": 0.0667,
      "velocity": 93,
      "chip": "ym2612"
    },
    {
      "channel": 3,
      "note": 59,
      "start": 1.3237,
      "duration": 0.1468,
      "velocity": 93,
      "chip": "ym2612"
    },
    {
      "channel": 3,
      "note": 59,
      "start": 1.4729,
      "duration": 0.0673,
      "velocity": 93,
      "chip": "ym2612"
    },
    {
      "channel": 3,
      "note": 59,
      "start": 1.5433,
      "duration": 0.0624,
      "velocity": 93,
      "chip": "ym2612"
    },
    {
      "channel": 3,
      "note": 59,
      "start": 1.608,
      "duration": 0.1343,
      "velocity": 93,
      "chip": "ym2612"
    },
    {
      "channel": 3,
      "note": 55,
      "start": 1.7449,
      "duration": 0.0664,
      "velocity": 93,
      "chip": "ym2612"
    },
    {
      "channel": 3,
      "note": 55,
      "start": 1.8144,
      "duration": 0.0602,
      "velocity": 93,
      "chip": "ym2612"
    },
    {
      "channel": 3,
      "note": 55,
      "start": 1.8771,
      "duration": 0.0675,
      "velocity": 93,
      "chip": "ym2612"
    },
    {
      "channel": 3,
      "note": 57,
      "start": 1.9467,
      "duration": 0.0636,
      "velocity": 93,
      "chip": "ym2612"
    },
    {
      "channel": 3,
      "note": 57,
      "start": 2.0125,
      "duration": 0.0629,
      "velocity": 93,
      "chip": "ym2612"
    },
    {
      "channel": 3,
      "note": 57,
      "start": 2.0777,
      "duration": 0.1298,
      "velocity": 93,
      "chip": "ym2612"
    },
    {
      "channel": 3,
      "note": 59,
      "start": 2.2102,
      "duration": 0.0659,
      "velocity": 93,
      "chip": "ym2612"
    },
    {
      "channel": 3,
      "note": 59,
      "start": 2.3585,
      "duration": 0.1474,
      "velocity": 93,
      "chip": "ym2612"
    },
    {
      "channel": 3,
      "note": 59,
      "start": 2.5085,
      "duration": 0.0596,
      "velocity": 93,
      "chip": "ym2612"
    },
    {
      "channel": 3,
      "note": 59,
      "start": 2.5705,
      "duration": 0.0628,
      "velocity": 93,
      "chip": "ym2612"
    },
    {
      "channel": 3,
      "note": 59,
      "start": 2.6365,
      "duration": 0.1241,
      "velocity": 93,
      "chip": "ym2612"
    },
    {
      "channel": 3,
      "note": 59,
      "start": 2.7633,
      "duration": 0.0666,
      "velocity": 93,
      "chip": "ym2612"
    },
    {
      "channel": 3,
      "note": 59,
      "start": 2.9115,
      "duration": 0.1474,
      "velocity": 93,
      "chip": "ym2612"
    },
    {
      "channel": 3,
      "note": 59,
      "start": 3.0615,
      "duration": 0.0663,
      "velocity": 93,
      "chip": "ym2612"
    },
    {
      "channel": 3,
      "note": 59,
      "start": 3.131,
      "duration": 0.0623,
      "velocity": 93,
      "chip": "ym2612"
    },
    {
      "channel": 3,
      "note": 59,
      "start": 3.1956,
      "duration": 0.1174,
      "velocity": 93,
      "chip": "ym2612"
    },
    {
      "channel": 3,
      "note": 59,
      "start": 3.3158,
      "duration": 0.0659,
      "velocity": 93,
      "chip": "ym2612"
    },
    {
      "channel": 3,
      "note": 59,
      "start": 3.463,
      "duration": 0.1475,
      "velocity": 93,
      "chip": "ym2612"
    },
    {
      "channel": 3,
      "note": 59,
      "start": 3.613,
      "duration": 0.0671,
      "velocity": 93,
      "chip": "ym2612"
    },
    {
      "channel": 3,
      "note": 59,
      "start": 3.6834,
      "duration": 0.0623,
      "velocity": 93,
      "chip": "ym2612"
    },
    {
      "channel": 3,
      "note": 59,
      "start": 3.748,
      "duration": 0.1342,
      "velocity": 93,
      "chip": "ym2612"
    },
    {
      "channel": 3,
      "note": 55,
      "start": 3.8847,
      "duration": 0.0661,
      "velocity": 93,
      "chip": "ym2612"
    },
    {
      "channel": 3,
      "note": 55,
      "start": 3.9544,
      "duration": 0.059,
      "velocity": 93,
      "chip": "ym2612"
    },
    {
      "channel": 3,
      "note": 55,
      "start": 4.0158,
      "duration": 0.0675,
      "velocity": 93,
      "chip": "ym2612"
    },
    {
      "channel": 3,
      "note": 57,
      "start": 4.0854,
      "duration": 0.0636,
      "velocity": 93,
      "chip": "ym2612"
    },
    {
      "channel": 3,
      "note": 57,
      "start": 4.1512,
      "duration": 0.0628,
      "velocity": 93,
      "chip": "ym2612"
    },
    {
      "channel": 3,
      "note": 57,
      "start": 4.2163,
      "duration": 0.1298,
      "velocity": 93,
      "chip": "ym2612"
    },
    {
      "channel": 3,
      "note": 55,
      "start": 4.3488,
      "duration": 0.0669,
      "velocity": 93,
      "chip": "ym2612"
    },
    {
      "channel": 3,
      "note": 55,
      "start": 4.4977,
      "duration": 0.1474,
      "velocity": 93,
      "chip": "ym2612"
    },
    {
      "channel": 3,
      "note": 55,
      "start": 4.6476,
      "duration": 0.0664,
      "velocity": 93,
      "chip": "ym2612"
    },
    {
      "channel": 3,
      "note": 55,
      "start": 4.7173,
      "duration": 0.0546,
      "velocity": 93,
      "chip": "ym2612"
    },
    {
      "channel": 3,
      "note": 55,
      "start": 4.7751,
      "duration": 0.1242,
      "velocity": 93,
      "chip": "ym2612"
    },
    {
      "channel": 3,
      "note": 55,
      "start": 4.902,
      "duration": 0.0667,
      "velocity": 93,
      "chip": "ym2612"
    },
    {
      "channel": 3,
      "note": 55,
      "start": 5.0497,
      "duration": 0.1475,
      "velocity": 93,
      "chip": "ym2612"
    },
    {
      "channel": 3,
      "note": 55,
      "start": 5.1997,
      "duration": 0.0664,
      "velocity": 93,
      "chip": "ym2612"
    },
    {
      "channel": 3,
      "note": 55,
      "start": 5.2694,
      "duration": 0.0624,
      "velocity": 93,
      "chip": "ym2612"
    },
    {
      "channel": 3,
      "note": 55,
      "start": 5.3341,
      "duration": 0.1341,
      "velocity": 93,
      "chip": "ym2612"
    },
    {
      "channel": 3,
      "note": 55,
      "start": 5.4709,
      "duration": 0.059,
      "velocity": 93,
      "chip": "ym2612"
    },
    {
      "channel": 3,
      "note": 55,
      "start": 5.6023,
      "duration": 0.1475,
      "velocity": 93,
      "chip": "ym2612"
    },
    {
      "channel": 3,
      "note": 55,
      "start": 5.7523,
      "duration": 0.0666,
      "velocity": 93,
      "chip": "ym2612"
    },
    {
      "channel": 3,
      "note": 55,
      "start": 5.8222,
      "duration": 0.0622,
      "velocity": 93,
      "chip": "ym2612"
    },
    {
      "channel": 3,
      "note": 55,
      "start": 5.8867,
      "duration": 0.1342,
      "velocity": 93,
      "chip": "ym2612"
    },
    {
      "channel": 3,
      "note": 55,
      "start": 6.0234,
      "duration": 0.0673,
      "velocity": 93,
      "chip": "ym2612"
    },
    {
      "channel": 3,
      "note": 55,
      "start": 6.0938,
      "duration": 0.0762,
      "velocity": 93,
      "chip": "ym2612"
    },
    {
      "channel": 3,
      "note": 55,
      "start": 6.1725,
      "duration": 0.0592,
      "velocity": 93,
      "chip": "ym2612"
    },
    {
      "channel": 3,
      "note": 57,
      "start": 6.2341,
      "duration": 0.0646,
      "velocity": 93,
      "chip": "ym2612"
    },
    {
      "channel": 3,
      "note": 57,
      "start": 6.3011,
      "duration": 0.0624,
      "velocity": 93,
      "chip": "ym2612"
    },
    {
      "channel": 3,
      "note": 57,
      "start": 6.3657,
      "duration": 0.1298,
      "velocity": 93,
      "chip": "ym2612"
    },
    {
      "channel": 3,
      "note": 55,
      "start": 6.4988,
      "duration": 0.0666,
      "velocity": 93,
      "chip": "ym2612"
    },
    {
      "channel": 3,
      "note": 55,
      "start": 6.6472,
      "duration": 0.1475,
      "velocity": 93,
      "chip": "ym2612"
    },
    {
      "channel": 3,
      "note": 55,
      "start": 6.7972,
      "duration": 0.0664,
      "velocity": 93,
      "chip": "ym2612"
    },
    {
      "channel": 3,
      "note": 55,
      "start": 6.8668,
      "duration": 0.055,
      "velocity": 93,
      "chip": "ym2612"
    },
    {
      "channel": 3,
      "note": 55,
      "start": 6.925,
      "duration": 0.1242,
      "velocity": 93,
      "chip": "ym2612"
    },
    {
      "channel": 3,
      "note": 55,
      "start": 7.052,
      "duration": 0.0659,
      "velocity": 93,
      "chip": "ym2612"
    },
    {
      "channel": 3,
      "note": 55,
      "start": 7.1992,
      "duration": 0.1475,
      "velocity": 93,
      "chip": "ym2612"
    },
    {
      "channel": 3,
      "note": 55,
      "start": 7.3491,
      "duration": 0.0667,
      "velocity": 93,
      "chip": "ym2612"
    },
    {
      "channel": 3,
      "note": 55,
      "start": 7.419,
      "duration": 0.0622,
      "velocity": 93,
      "chip": "ym2612"
    },
    {
      "channel": 3,
      "note": 55,
      "start": 7.4835,
      "duration": 0.1343,
      "velocity": 93,
      "chip": "ym2612"
    },
    {
      "channel": 3,
      "note": 55,
      "start": 7.6205,
      "duration": 0.0675,
      "velocity": 93,
      "chip": "ym2612"
    },
    {
      "channel": 3,
      "note": 55,
      "start": 7.753,
      "duration": 0.1475,
      "velocity": 93,
      "chip": "ym2612"
    },
    {
      "channel": 3,
      "note": 55,
      "start": 7.903,
      "duration": 0.0668,
      "velocity": 93,
      "chip": "ym2612"
    },
    {
      "channel": 3,
      "note": 55,
      "start": 7.973,
      "duration": 0.0618,
      "velocity": 93,
      "chip": "ym2612"
    },
    {
      "channel": 3,
      "note": 55,
      "start": 8.0371,
      "duration": 0.1344,
      "velocity": 93,
      "chip": "ym2612"
    },
    {
      "channel": 3,
      "note": 57,
      "start": 8.174,
      "duration": 0.066,
      "velocity": 93,
      "chip": "ym2612"
    },
    {
      "channel": 3,
      "note": 57,
      "start": 8.2433,
      "duration": 0.0765,
      "velocity": 93,
      "chip": "ym2612"
    },
    {
      "channel": 3,
      "note": 57,
      "start": 8.3223,
      "duration": 0.0674,
      "velocity": 93,
      "chip": "ym2612"
    },
    {
      "channel": 3,
      "note": 62,
      "start": 8.3918,
      "duration": 0.057,
      "velocity": 93,
      "chip": "ym2612"
    },
    {
      "channel": 3,
      "note": 62,
      "start": 8.452,
      "duration": 0.062,
      "velocity": 93,
      "chip": "ym2612"
    },
    {
      "channel": 3,
      "note": 61,
      "start": 8.5163,
      "duration": 0.1208,
      "velocity": 93,
      "chip": "ym2612"
    },
    {
      "channel": 3,
      "note": 59,
      "start": 8.6397,
      "duration": 0.0695,
      "velocity": 93,
      "chip": "ym2612"
    },
    {
      "channel": 1,
      "note": 74,
      "start": 8.6422,
      "duration": 0.6942,
      "velocity": 110,
      "chip": "ym2612"
    },
    {
      "channel": 4,
      "note": 66,
      "start": 8.6451,
      "duration": 1.6669,
      "velocity": 110,
      "chip": "ym2612"
    },
    {
      "channel": 0,
      "note": 71,
      "start": 8.6478,
      "duration": 1.6638,
      "velocity": 110,
      "chip": "ym2612"
    },
    {
      "channel": 3,
      "note": 59,
      "start": 8.7865,
      "duration": 0.1475,
      "velocity": 93,
      "chip": "ym2612"
    },
    {
      "channel": 3,
      "note": 59,
      "start": 8.9366,
      "duration": 0.0675,
      "velocity": 93,
      "chip": "ym2612"
    },
    {
      "channel": 3,
      "note": 59,
      "start": 9.0077,
      "duration": 0.0617,
      "velocity": 93,
      "chip": "ym2612"
    },
    {
      "channel": 3,
      "note": 59,
      "start": 9.0716,
      "duration": 0.1173,
      "velocity": 93,
      "chip": "ym2612"
    },
    {
      "channel": 3,
      "note": 59,
      "start": 9.1915,
      "duration": 0.066,
      "velocity": 93,
      "chip": "ym2612"
    },
    {
      "channel": 3,
      "note": 59,
      "start": 9.3391,
      "duration": 0.1474,
      "velocity": 93,
      "chip": "ym2612"
    },
    {
      "channel": 1,
      "note": 73,
      "start": 9.3415,
      "duration": 0.2146,
      "velocity": 110,
      "chip": "ym2612"
    },
    {
      "channel": 3,
      "note": 59,
      "start": 9.489,
      "duration": 0.0672,
      "velocity": 93,
      "chip": "ym2612"
    },
    {
      "channel": 3,
      "note": 59,
      "start": 9.5594,
      "duration": 0.0632,
      "velocity": 93,
      "chip": "ym2612"
    },
    {
      "channel": 1,
      "note": 74,
      "start": 9.5614,
      "duration": 0.1971,
      "velocity": 110,
      "chip": "ym2612"
    },
    {
      "channel": 3,
      "note": 59,
      "start": 9.6249,
      "duration": 0.1337,
      "velocity": 93,
      "chip": "ym2612"
    },
    {
      "channel": 3,
      "note": 59,
      "start": 9.7612,
      "duration": 0.0681,
      "velocity": 93,
      "chip": "ym2612"
    },
    {
      "channel": 1,
      "note": 76,
      "start": 9.7637,
      "duration": 0.5481,
      "velocity": 110,
      "chip": "ym2612"
    },
    {
      "channel": 3,
      "note": 59,
      "start": 9.8937,
      "duration": 0.1474,
      "velocity": 93,
      "chip": "ym2612"
    },
    {
      "channel": 3,
      "note": 59,
      "start": 10.0437,
      "duration": 0.0667,
      "velocity": 93,
      "chip": "ym2612"
    },
    {
      "channel": 3,
      "note": 59,
      "start": 10.1136,
      "duration": 0.0616,
      "velocity": 93,
      "chip": "ym2612"
    },
    {
      "channel": 3,
      "note": 59,
      "start": 10.1774,
      "duration": 0.1344,
      "velocity": 93,
      "chip": "ym2612"
    },
    {
      "channel": 3,
      "note": 55,
      "start": 10.3145,
      "duration": 0.0702,
      "velocity": 93,
      "chip": "ym2612"
    },
    {
      "channel": 1,
      "note": 79,
      "start": 10.317,
      "duration": 0.1427,
      "velocity": 110,
      "chip": "ym2612"
    },
    {
      "channel": 4,
      "note": 62,
      "start": 10.3196,
      "duration": 0.2099,
      "velocity": 110,
      "chip": "ym2612"
    },
    {
      "channel": 0,
      "note": 67,
      "start": 10.322,
      "duration": 0.2073,
      "velocity": 110,
      "chip": "ym2612"
    },
    {
      "channel": 3,
      "note": 55,
      "start": 10.3869,
      "duration": 0.0729,
      "velocity": 93,
      "chip": "ym2612"
    },
    {
      "channel": 3,
      "note": 55,
      "start": 10.4623,
      "duration": 0.0671,
      "velocity": 93,
      "chip": "ym2612"
    },
    {
      "channel": 1,
      "note": 78,
      "start": 10.4644,
      "duration": 0.133,
      "velocity": 110,
      "chip": "ym2612"
    },
    {
      "channel": 3,
      "note": 57,
      "start": 10.5326,
      "duration": 0.0649,
      "velocity": 93,
      "chip": "ym2612"
    },
    {
      "channel": 4,
      "note": 64,
      "start": 10.5349,
      "duration": 0.2395,
      "velocity": 110,
      "chip": "ym2612"
    },
    {
      "channel": 0,
      "note": 69,
      "start": 10.5367,
      "duration": 0.2372,
      "velocity": 110,
      "chip": "ym2612"
    },
    {
      "channel": 3,
      "note": 57,
      "start": 10.5998,
      "duration": 0.0566,
      "velocity": 93,
      "chip": "ym2612"
    },
    {
      "channel": 1,
      "note": 76,
      "start": 10.6018,
      "duration": 0.1723,
      "velocity": 110,
      "chip": "ym2612"
    },
    {
      "channel": 3,
      "note": 57,
      "start": 10.6586,
      "duration": 0.1155,
      "velocity": 93,
      "chip": "ym2612"
    },
    {
      "channel": 3,
      "note": 59,
      "start": 10.7769,
      "duration": 0.0709,
      "velocity": 93,
      "chip": "ym2612"
    },
    {
      "channel": 1,
      "note": 78,
      "start": 10.7802,
      "duration": 1.1173,
      "velocity": 110,
      "chip": "ym2612"
    },
    {
      "channel": 4,
      "note": 66,
      "start": 10.7832,
      "duration": 1.6685,
      "velocity": 110,
      "chip": "ym2612"
    },
    {
      "channel": 0,
      "note": 71,
      "start": 10.7858,
      "duration": 1.6654,
      "velocity": 110,
      "chip": "ym2612"
    },
    {
      "channel": 3,
      "note": 59,
      "start": 10.9234,
      "duration": 0.1475,
      "velocity": 93,
      "chip": "ym2612"
    },
    {
      "channel": 3,
      "note": 59,
      "start": 11.0734,
      "duration": 0.0667,
      "velocity": 93,
      "chip": "ym2612"
    },
    {
      "channel": 3,
      "note": 59,
      "start": 11.1433,
      "duration": 0.0623,
      "velocity": 93,
      "chip": "ym2612"
    },
    {
      "channel": 3,
      "note": 59,
      "start": 11.2078,
      "duration": 0.1342,
      "velocity": 93,
      "chip": "ym2612"
    },
    {
      "channel": 3,
      "note": 59,
      "start": 11.3447,
      "duration": 0.0602,
      "velocity": 93,
      "chip": "ym2612"
    },
    {
      "channel": 3,
      "note": 59,
      "start": 11.4789,
      "duration": 0.1468,
      "velocity": 93,
      "chip": "ym2612"
    },
    {
      "channel": 3,
      "note": 59,
      "start": 11.6282,
      "duration": 0.067,
      "velocity": 93,
      "chip": "ym2612"
    },
    {
      "channel": 3,
      "note": 59,
      "start": 11.6983,
      "duration": 0.0626,
      "velocity": 93,
      "chip": "ym2612"
    },
    {
      "channel": 3,
      "note": 59,
      "start": 11.7633,
      "duration": 0.1344,
      "velocity": 93,
      "chip": "ym2612"
    },
    {
      "channel": 3,
      "note": 59,
      "start": 11.9003,
      "duration": 0.0681,
      "velocity": 93,
      "chip": "ym2612"
    },
    {
      "channel": 1,
      "note": 74,
      "start": 11.9027,
      "duration": 0.5487,
      "velocity": 110,
      "chip": "ym2612"
    },
    {
      "channel": 3,
      "note": 59,
      "start": 12.0495,
      "duration": 0.1307,
      "velocity": 93,
      "chip": "ym2612"
    },
    {
      "channel": 3,
      "note": 59,
      "start": 12.1828,
      "duration": 0.0676,
      "velocity": 93,
      "chip": "ym2612"
    },
    {
      "channel": 3,
      "note": 59,
      "start": 12.2536,
      "duration": 0.0617,
      "velocity": 93,
      "chip": "ym2612"
    },
    {
      "channel": 3,
      "note": 59,
      "start": 12.3176,
      "duration": 0.134,
      "velocity": 93,
      "chip": "ym2612"
    },
    {
      "channel": 3,
      "note": 55,
      "start": 12.4541,
      "duration": 0.0701,
      "velocity": 93,
      "chip": "ym2612"
    },
    {
      "channel": 1,
      "note": 76,
      "start": 12.4566,
      "duration": 0.2122,
      "velocity": 110,
      "chip": "ym2612"
    },
    {
      "channel": 4,
      "note": 62,
      "start": 12.4592,
      "duration": 0.2097,
      "velocity": 110,
      "chip": "ym2612"
    },
    {
      "channel": 0,
      "note": 67,
      "start": 12.4617,
      "duration": 0.207,
      "velocity": 110,
      "chip": "ym2612"
    },
    {
      "channel": 3,
      "note": 55,
      "start": 12.5264,
      "duration": 0.0727,
      "velocity": 93,
      "chip": "ym2612"
    },
    {
      "channel": 3,
      "note": 55,
      "start": 12.6015,
      "duration": 0.0673,
      "velocity": 93,
      "chip": "ym2612"
    },
    {
      "channel": 3,
      "note": 57,
      "start": 12.6711,
      "duration": 0.0664,
      "velocity": 93,
      "chip": "ym2612"
    },
    {
      "channel": 1,
      "note": 78,
      "start": 12.6732,
      "duration": 0.2392,
      "velocity": 110,
      "chip": "ym2612"
    },
    {
      "channel": 4,
      "note": 64,
      "start": 12.6753,
      "duration": 0.2374,
      "velocity": 110,
      "chip": "ym2612"
    },
    {
      "channel": 0,
      "note": 69,
      "start": 12.6773,
      "duration": 0.235,
      "velocity": 110,
      "chip": "ym2612"
    },
    {
      "channel": 3,
      "note": 57,
      "start": 12.7399,
      "duration": 0.0552,
      "velocity": 93,
      "chip": "ym2612"
    },
    {
      "channel": 3,
      "note": 57,
      "start": 12.7974,
      "duration": 0.1151,
      "velocity": 93,
      "chip": "ym2612"
    },
    {
      "channel": 3,
      "note": 55,
      "start": 12.9153,
      "duration": 0.0721,
      "velocity": 93,
      "chip": "ym2612"
    },
    {
      "channel": 1,
      "note": 74,
      "start": 12.918,
      "duration": 1.6709,
      "velocity": 110,
      "chip": "ym2612"
    },
    {
      "channel": 4,
      "note": 62,
      "start": 12.9215,
      "duration": 1.6678,
      "velocity": 110,
      "chip": "ym2612"
    },
    {
      "channel": 0,
      "note": 67,
      "start": 12.9247,
      "duration": 1.6641,
      "velocity": 110,
      "chip": "ym2612"
    },
    {
      "channel": 3,
      "note": 55,
      "start": 13.0631,
      "duration": 0.1474,
      "velocity": 93,
      "chip": "ym2612"
    },
    {
      "channel": 3,
      "note": 55,
      "start": 13.213,
      "duration": 0.0664,
      "velocity": 93,
      "chip": "ym2612"
    },
    {
      "channel": 3,
      "note": 55,
      "start": 13.2827,
      "duration": 0.0622,
      "velocity": 93,
      "chip": "ym2612"
    },
    {
      "channel": 3,
      "note": 55,
      "start": 13.347,
      "duration": 0.1342,
      "velocity": 93,
      "chip": "ym2612"
    },
    {
      "channel": 3,
      "note": 55,
      "start": 13.4839,
      "duration": 0.0599,
      "velocity": 93,
      "chip": "ym2612"
    },
    {
      "channel": 3,
      "note": 55,
      "start": 13.617,
      "duration": 0.1474,
      "velocity": 93,
      "chip": "ym2612"
    },
    {
      "channel": 3,
      "note": 55,
      "start": 13.7669,
      "duration": 0.0668,
      "velocity": 93,
      "chip": "ym2612"
    },
    {
      "channel": 3,
      "note": 55,
      "start": 13.8368,
      "duration": 0.0614,
      "velocity": 93,
      "chip": "ym2612"
    },
    {
      "channel": 3,
      "note": 55,
      "start": 13.9005,
      "duration": 0.1341,
      "velocity": 93,
      "chip": "ym2612"
    },
    {
      "channel": 3,
      "note": 55,
      "start": 14.0378,
      "duration": 0.0665,
      "velocity": 93,
      "chip": "ym2612"
    },
    {
      "channel": 3,
      "note": 55,
      "start": 14.1866,
      "duration": 0.1474,
      "velocity": 93,
      "chip": "ym2612"
    },
    {
      "channel": 3,
      "note": 55,
      "start": 14.3365,
      "duration": 0.0595,
      "velocity": 93,
      "chip": "ym2612"
    },
    {
      "channel": 3,
      "note": 55,
      "start": 14.3984,
      "duration": 0.0634,
      "velocity": 93,
      "chip": "ym2612"
    },
    {
      "channel": 3,
      "note": 55,
      "start": 14.4651,
      "duration": 0.1239,
      "velocity": 93,
      "chip": "ym2612"
    },
    {
      "channel": 3,
      "note": 55,
      "start": 14.5917,
      "duration": 0.07,
      "velocity": 93,
      "chip": "ym2612"
    },
    {
      "channel": 1,
      "note": 73,
      "start": 14.5941,
      "duration": 0.4593,
      "velocity": 110,
      "chip": "ym2612"
    },
    {
      "channel": 4,
      "note": 64,
      "start": 14.5968,
      "duration": 0.4569,
      "velocity": 110,
      "chip": "ym2612"
    },
    {
      "channel": 0,
      "note": 69,
      "start": 14.5991,
      "duration": 0.4541,
      "velocity": 110,
      "chip": "ym2612"
    },
    {
      "channel": 3,
      "note": 55,
      "start": 14.6639,
      "duration": 0.0726,
      "velocity": 93,
      "chip": "ym2612"
    },
    {
      "channel": 3,
      "note": 55,
      "start": 14.739,
      "duration": 0.0675,
      "velocity": 93,
      "chip": "ym2612"
    },
    {
      "channel": 3,
      "note": 57,
      "start": 14.8088,
      "duration": 0.0643,
      "velocity": 93,
      "chip": "ym2612"
    },
    {
      "channel": 3,
      "note": 57,
      "start": 14.8752,
      "duration": 0.0629,
      "velocity": 93,
      "chip": "ym2612"
    },
    {
      "channel": 3,
      "note": 57,
      "start": 14.9404,
      "duration": 0.1132,
      "velocity": 93,
      "chip": "ym2612"
    },
    {
      "channel": 3,
      "note": 55,
      "start": 15.0563,
      "duration": 0.0701,
      "velocity": 93,
      "chip": "ym2612"
    },
    {
      "channel": 1,
      "note": 74,
      "start": 15.0585,
      "duration": 0.5637,
      "velocity": 110,
      "chip": "ym2612"
    },
    {
      "channel": 4,
      "note": 62,
      "start": 15.0614,
      "duration": 1.5381,
      "velocity": 110,
      "chip": "ym2612"
    },
    {
      "channel": 0,
      "note": 67,
      "start": 15.0641,
      "duration": 1.5353,
      "velocity": 110,
      "chip": "ym2612"
    },
    {
      "channel": 3,
      "note": 55,
      "start": 15.2031,
      "duration": 0.1473,
      "velocity": 93,
      "chip": "ym2612"
    },
    {
      "channel": 3,
      "note": 55,
      "start": 15.353,
      "duration": 0.067,
      "velocity": 93,
      "chip": "ym2612"
    },
    {
      "channel": 3,
      "note": 55,
      "start": 15.4232,
      "duration": 0.0623,
      "velocity": 93,
      "chip": "ym2612"
    },
    {
      "channel": 3,
      "note": 55,
      "start": 15.4878,
      "duration": 0.1345,
      "velocity": 93,
      "chip": "ym2612"
    },
    {
      "channel": 3,
      "note": 55,
      "start": 15.625,
      "duration": 0.0665,
      "velocity": 93,
      "chip": "ym2612"
    },
    {
      "channel": 1,
      "note": 71,
      "start": 15.6271,
      "duration": 0.5467,
      "velocity": 110,
      "chip": "ym2612"
    },
    {
      "channel": 3,
      "note": 55,
      "start": 15.7551,
      "duration": 0.1474,
      "velocity": 93,
      "chip": "ym2612"
    },
    {
      "channel": 3,
      "note": 55,
      "start": 15.905,
      "duration": 0.067,
      "velocity": 93,
      "chip": "ym2612"
    },
    {
      "channel": 3,
      "note": 55,
      "start": 15.9752,
      "duration": 0.062,
      "velocity": 93,
      "chip": "ym2612"
    },
    {
      "channel": 3,
      "note": 55,
      "start": 16.0395,
      "duration": 0.1344,
      "velocity": 93,
      "chip": "ym2612"
    },
    {
      "channel": 3,
      "note": 55,
      "start": 16.1766,
      "duration": 0.067,
      "velocity": 93,
      "chip": "ym2612"
    },
    {
      "channel": 1,
      "note": 73,
      "start": 16.1788,
      "duration": 0.548,
      "velocity": 110,
      "chip": "ym2612"
    },
    {
      "channel": 3,
      "note": 55,
      "start": 16.3244,
      "duration": 0.1474,
      "velocity": 93,
      "chip": "ym2612"
    },
    {
      "channel": 3,
      "note": 55,
      "start": 16.4742,
      "duration": 0.0593,
      "velocity": 93,
      "chip": "ym2612"
    },
    {
      "channel": 3,
      "note": 55,
      "start": 16.5359,
      "duration": 0.0635,
      "velocity": 93,
      "chip": "ym2612"
    },
    {
      "channel": 3,
      "note": 55,
      "start": 16.6033,
      "duration": 0.1236,
      "velocity": 93,
      "chip": "ym2612"
    },
    {
      "channel": 4,
      "note": 64,
      "start": 16.6057,
      "duration": 0.6038,
      "velocity": 110,
      "chip": "ym2612"
    },
    {
      "channel": 0,
      "note": 69,
      "start": 16.608,
      "duration": 0.6012,
      "velocity": 110,
      "chip": "ym2612"
    },
    {
      "channel": 3,
      "note": 57,
      "start": 16.7294,
      "duration": 0.0674,
      "velocity": 93,
      "chip": "ym2612"
    },
    {
      "channel": 1,
      "note": 73,
      "start": 16.7319,
      "duration": 0.1428,
      "velocity": 110,
      "chip": "ym2612"
    },
    {
      "channel": 3,
      "note": 57,
      "start": 16.7991,
      "duration": 0.0757,
      "velocity": 93,
      "chip": "ym2612"
    },
    {
      "channel": 3,
      "note": 57,
      "start": 16.8773,
      "duration": 0.0677,
      "velocity": 93,
      "chip": "ym2612"
    },
    {
      "channel": 1,
      "note": 74,
      "start": 16.8795,
      "duration": 0.1327,
      "velocity": 110,
      "chip": "ym2612"
    },
    {
      "channel": 3,
      "note": 62,
      "start": 16.9482,
      "duration": 0.064,
      "velocity": 93,
      "chip": "ym2612"
    },
    {
      "channel": 3,
      "note": 62,
      "start": 17.0146,
      "duration": 0.0635,
      "velocity": 93,
      "chip": "ym2612"
    },
    {
      "channel": 1,
      "note": 73,
      "start": 17.0166,
      "duration": 0.1927,
      "velocity": 110,
      "chip": "ym2612"
    },
    {
      "channel": 3,
      "note": 61,
      "start": 17.0803,
      "duration": 0.1291,
      "velocity": 93,
      "chip": "ym2612"
    },
    {
      "channel": 3,
      "note": 59,
      "start": 17.2121,
      "duration": 0.0671,
      "velocity": 93,
      "chip": "ym2612"
    },
    {
      "channel": 1,
      "note": 62,
      "start": 17.2156,
      "duration": 0.1288,
      "velocity": 111,
      "chip": "ym2612"
    },
    {
      "channel": 4,
      "note": 66,
      "start": 17.2193,
      "duration": 0.1253,
      "velocity": 111,
      "chip": "ym2612"
    },
    {
      "channel": 0,
      "note": 71,
      "start": 17.2229,
      "duration": 0.1214,
      "velocity": 111,
      "chip": "ym2612"
    },
    {
      "channel": 3,
      "note": 59,
      "start": 17.3472,
      "duration": 0.1471,
      "velocity": 93,
      "chip": "ym2612"
    },
    {
      "channel": 1,
      "note": 62,
      "start": 17.3493,
      "duration": 0.2152,
      "velocity": 111,
      "chip": "ym2612"
    },
    {
      "channel": 4,
      "note": 66,
      "start": 17.3517,
      "duration": 0.213,
      "velocity": 111,
      "chip": "ym2612"
    },
    {
      "channel": 0,
      "note": 71,
      "start": 17.3541,
      "duration": 0.1401,
      "velocity": 111,
      "chip": "ym2612"
    },
    {
      "channel": 3,
      "note": 59,
      "start": 17.4969,
      "duration": 0.0678,
      "velocity": 93,
      "chip": "ym2612"
    },
    {
      "channel": 0,
      "note": 71,
      "start": 17.4993,
      "duration": 0.0652,
      "velocity": 111,
      "chip": "ym2612"
    },
    {
      "channel": 3,
      "note": 59,
      "start": 17.5668,
      "duration": 0.065,
      "velocity": 93,
      "chip": "ym2612"
    },
    {
      "channel": 1,
      "note": 62,
      "start": 17.5706,
      "duration": 0.0612,
      "velocity": 111,
      "chip": "ym2612"
    },
    {
      "channel": 4,
      "note": 66,
      "start": 17.5727,
      "duration": 0.0592,
      "velocity": 111,
      "chip": "ym2612"
    },
    {
      "channel": 0,
      "note": 71,
      "start": 17.575,
      "duration": 0.0567,
      "velocity": 111,
      "chip": "ym2612"
    },
    {
      "channel": 3,
      "note": 59,
      "start": 17.6349,
      "duration": 0.1301,
      "velocity": 93,
      "chip": "ym2612"
    },
    {
      "channel": 1,
      "note": 62,
      "start": 17.637,
      "duration": 0.1278,
      "velocity": 111,
      "chip": "ym2612"
    },
    {
      "channel": 4,
      "note": 66,
      "start": 17.6392,
      "duration": 0.1259,
      "velocity": 111,
      "chip": "ym2612"
    },
    {
      "channel": 0,
      "note": 71,
      "start": 17.6413,
      "duration": 0.1234,
      "velocity": 111,
      "chip": "ym2612"
    },
    {
      "channel": 3,
      "note": 59,
      "start": 17.7678,
      "duration": 0.0701,
      "velocity": 93,
      "chip": "ym2612"
    },
    {
      "channel": 1,
      "note": 62,
      "start": 17.7702,
      "duration": 0.1433,
      "velocity": 111,
      "chip": "ym2612"
    },
    {
      "channel": 4,
      "note": 66,
      "start": 17.7729,
      "duration": 0.1408,
      "velocity": 111,
      "chip": "ym2612"
    },
    {
      "channel": 0,
      "note": 71,
      "start": 17.7753,
      "duration": 0.138,
      "velocity": 111,
      "chip": "ym2612"
    },
    {
      "channel": 3,
      "note": 59,
      "start": 17.9163,
      "duration": 0.1305,
      "velocity": 93,
      "chip": "ym2612"
    },
    {
      "channel": 1,
      "note": 62,
      "start": 17.9184,
      "duration": 0.1988,
      "velocity": 111,
      "chip": "ym2612"
    },
    {
      "channel": 4,
      "note": 66,
      "start": 17.9208,
      "duration": 0.1966,
      "velocity": 111,
      "chip": "ym2612"
    },
    {
      "channel": 0,
      "note": 71,
      "start": 17.9232,
      "duration": 0.1235,
      "velocity": 111,
      "chip": "ym2612"
    },
    {
      "channel": 3,
      "note": 59,
      "start": 18.0494,
      "duration": 0.0679,
      "velocity": 93,
      "chip": "ym2612"
    },
    {
      "channel": 0,
      "note": 71,
      "start": 18.0518,
      "duration": 0.0653,
      "velocity": 111,
      "chip": "ym2612"
    },
    {
      "channel": 3,
      "note": 59,
      "start": 18.1195,
      "duration": 0.0648,
      "velocity": 93,
      "chip": "ym2612"
    },
    {
      "channel": 1,
      "note": 62,
      "start": 18.1227,
      "duration": 0.0616,
      "velocity": 111,
      "chip": "ym2612"
    },
    {
      "channel": 4,
      "note": 66,
      "start": 18.1252,
      "duration": 0.0592,
      "velocity": 111,
      "chip": "ym2612"
    },
    {
      "channel": 0,
      "note": 71,
      "start": 18.1279,
      "duration": 0.0563,
      "velocity": 111,
      "chip": "ym2612"
    },
    {
      "channel": 3,
      "note": 59,
      "start": 18.1875,
      "duration": 0.1302,
      "velocity": 93,
      "chip": "ym2612"
    },
    {
      "channel": 1,
      "note": 62,
      "start": 18.1895,
      "duration": 0.128,
      "velocity": 111,
      "chip": "ym2612"
    },
    {
      "channel": 4,
      "note": 66,
      "start": 18.1917,
      "duration": 0.1261,
      "velocity": 111,
      "chip": "ym2612"
    },
    {
      "channel": 0,
      "note": 71,
      "start": 18.1937,
      "duration": 0.1237,
      "velocity": 111,
      "chip": "ym2612"
    },
    {
      "channel": 3,
      "note": 59,
      "start": 18.3204,
      "duration": 0.0714,
      "velocity": 93,
      "chip": "ym2612"
    },
    {
      "channel": 1,
      "note": 62,
      "start": 18.3229,
      "duration": 0.1427,
      "velocity": 111,
      "chip": "ym2612"
    },
    {
      "channel": 4,
      "note": 66,
      "start": 18.326,
      "duration": 0.1398,
      "velocity": 111,
      "chip": "ym2612"
    },
    {
      "channel": 0,
      "note": 71,
      "start": 18.3284,
      "duration": 0.137,
      "velocity": 111,
      "chip": "ym2612"
    },
    {
      "channel": 3,
      "note": 59,
      "start": 18.4684,
      "duration": 0.1473,
      "velocity": 93,
      "chip": "ym2612"
    },
    {
      "channel": 1,
      "note": 62,
      "start": 18.4705,
      "duration": 0.2146,
      "velocity": 111,
      "chip": "ym2612"
    },
    {
      "channel": 4,
      "note": 66,
      "start": 18.4729,
      "duration": 0.2123,
      "velocity": 111,
      "chip": "ym2612"
    },
    {
      "channel": 0,
      "note": 71,
      "start": 18.4753,
      "duration": 0.1402,
      "velocity": 111,
      "chip": "ym2612"
    },
    {
      "channel": 3,
      "note": 59,
      "start": 18.6182,
      "duration": 0.067,
      "velocity": 93,
      "chip": "ym2612"
    },
    {
      "channel": 0,
      "note": 71,
      "start": 18.6205,
      "duration": 0.0645,
      "velocity": 111,
      "chip": "ym2612"
    },
    {
      "channel": 3,
      "note": 59,
      "start": 18.6874,
      "duration": 0.0574,
      "velocity": 93,
      "chip": "ym2612"
    },
    {
      "channel": 1,
      "note": 62,
      "start": 18.6906,
      "duration": 0.0541,
      "velocity": 111,
      "chip": "ym2612"
    },
    {
      "channel": 4,
      "note": 66,
      "start": 18.6931,
      "duration": 0.0518,
      "velocity": 111,
      "chip": "ym2612"
    },
    {
      "channel": 0,
      "note": 71,
      "start": 18.6951,
      "duration": 0.0495,
      "velocity": 111,
      "chip": "ym2612"
    },
    {
      "channel": 3,
      "note": 59,
      "start": 18.747,
      "duration": 0.1216,
      "velocity": 93,
      "chip": "ym2612"
    },
    {
      "channel": 1,
      "note": 62,
      "start": 18.749,
      "duration": 0.1194,
      "velocity": 111,
      "chip": "ym2612"
    },
    {
      "channel": 4,
      "note": 66,
      "start": 18.7512,
      "duration": 0.1176,
      "velocity": 111,
      "chip": "ym2612"
    },
    {
      "channel": 0,
      "note": 71,
      "start": 18.7542,
      "duration": 0.1141,
      "velocity": 111,
      "chip": "ym2612"
    },
    {
      "channel": 3,
      "note": 55,
      "start": 18.8712,
      "duration": 0.0693,
      "velocity": 93,
      "chip": "ym2612"
    },
    {
      "channel": 1,
      "note": 59,
      "start": 18.8734,
      "duration": 0.0671,
      "velocity": 111,
      "chip": "ym2612"
    },
    {
      "channel": 4,
      "note": 62,
      "start": 18.8757,
      "duration": 0.0649,
      "velocity": 111,
      "chip": "ym2612"
    },
    {
      "channel": 0,
      "note": 67,
      "start": 18.8778,
      "duration": 0.0625,
      "velocity": 111,
      "chip": "ym2612"
    },
    {
      "channel": 3,
      "note": 55,
      "start": 18.9427,
      "duration": 0.0708,
      "velocity": 93,
      "chip": "ym2612"
    },
    {
      "channel": 1,
      "note": 59,
      "start": 18.9447,
      "duration": 0.0686,
      "velocity": 111,
      "chip": "ym2612"
    },
    {
      "channel": 4,
      "note": 62,
      "start": 18.9469,
      "duration": 0.0667,
      "velocity": 111,
      "chip": "ym2612"
    },
    {
      "channel": 0,
      "note": 67,
      "start": 18.9498,
      "duration": 0.0633,
      "velocity": 111,
      "chip": "ym2612"
    },
    {
      "channel": 3,
      "note": 55,
      "start": 19.0161,
      "duration": 0.0698,
      "velocity": 93,
      "chip": "ym2612"
    },
    {
      "channel": 1,
      "note": 59,
      "start": 19.0182,
      "duration": 0.0676,
      "velocity": 111,
      "chip": "ym2612"
    },
    {
      "channel": 4,
      "note": 62,
      "start": 19.0206,
      "duration": 0.0654,
      "velocity": 111,
      "chip": "ym2612"
    },
    {
      "channel": 0,
      "note": 67,
      "start": 19.0227,
      "duration": 0.063,
      "velocity": 111,
      "chip": "ym2612"
    },
    {
      "channel": 3,
      "note": 57,
      "start": 19.088,
      "duration": 0.0683,
      "velocity": 93,
      "chip": "ym2612"
    },
    {
      "channel": 1,
      "note": 61,
      "start": 19.0901,
      "duration": 0.0661,
      "velocity": 111,
      "chip": "ym2612"
    },
    {
      "channel": 4,
      "note": 64,
      "start": 19.0923,
      "duration": 0.0641,
      "velocity": 111,
      "chip": "ym2612"
    },
    {
      "channel": 0,
      "note": 69,
      "start": 19.0952,
      "duration": 0.061,
      "velocity": 111,
      "chip": "ym2612"
    },
    {
      "channel": 3,
      "note": 57,
      "start": 19.159,
      "duration": 0.0647,
      "velocity": 93,
      "chip": "ym2612"
    },
    {
      "channel": 1,
      "note": 61,
      "start": 19.162,
      "duration": 0.0616,
      "velocity": 111,
      "chip": "ym2612"
    },
    {
      "channel": 4,
      "note": 64,
      "start": 19.1642,
      "duration": 0.0595,
      "velocity": 111,
      "chip": "ym2612"
    },
    {
      "channel": 0,
      "note": 69,
      "start": 19.1663,
      "duration": 0.0572,
      "velocity": 111,
      "chip": "ym2612"
    },
    {
      "channel": 3,
      "note": 57,
      "start": 19.2257,
      "duration": 0.1234,
      "velocity": 93,
      "chip": "ym2612"
    },
    {
      "channel": 1,
      "note": 61,
      "start": 19.2288,
      "duration": 0.1201,
      "velocity": 111,
      "chip": "ym2612"
    },
    {
      "channel": 4,
      "note": 64,
      "start": 19.2309,
      "duration": 0.1184,
      "velocity": 111,
      "chip": "ym2612"
    },
    {
      "channel": 0,
      "note": 69,
      "start": 19.2328,
      "duration": 0.116,
      "velocity": 111,
      "chip": "ym2612"
    },
    {
      "channel": 3,
      "note": 59,
      "start": 19.3518,
      "duration": 0.0625,
      "velocity": 93,
      "chip": "ym2612"
    },
    {
      "channel": 1,
      "note": 62,
      "start": 19.3543,
      "duration": 0.126,
      "velocity": 111,
      "chip": "ym2612"
    },
    {
      "channel": 4,
      "note": 66,
      "start": 19.3569,
      "duration": 0.1236,
      "velocity": 111,
      "chip": "ym2612"
    },
    {
      "channel": 0,
      "note": 71,
      "start": 19.3593,
      "duration": 0.1208,
      "velocity": 111,
      "chip": "ym2612"
    },
    {
      "channel": 3,
      "note": 59,
      "start": 19.4832,
      "duration": 0.1473,
      "velocity": 93,
      "chip": "ym2612"
    },
    {
      "channel": 1,
      "note": 62,
      "start": 19.4852,
      "duration": 0.2155,
      "velocity": 111,
      "chip": "ym2612"
    },
    {
      "channel": 4,
      "note": 66,
      "start": 19.4876,
      "duration": 0.2133,
      "velocity": 111,
      "chip": "ym2612"
    },
    {
      "channel": 0,
      "note": 71,
      "start": 19.49,
      "duration": 0.1402,
      "velocity": 111,
      "chip": "ym2612"
    },
    {
      "channel": 3,
      "note": 59,
      "start": 19.6329,
      "duration": 0.0679,
      "velocity": 93,
      "chip": "ym2612"
    },
    {
      "channel": 0,
      "note": 71,
      "start": 19.6354,
      "duration": 0.0653,
      "velocity": 111,
      "chip": "ym2612"
    },
    {
      "channel": 3,
      "note": 59,
      "start": 19.703,
      "duration": 0.0652,
      "velocity": 93,
      "chip": "ym2612"
    },
    {
      "channel": 1,
      "note": 62,
      "start": 19.7067,
      "duration": 0.0614,
      "velocity": 111,
      "chip": "ym2612"
    },
    {
      "channel": 4,
      "note": 66,
      "start": 19.7089,
      "duration": 0.0594,
      "velocity": 111,
      "chip": "ym2612"
    },
    {
      "channel": 0,
      "note": 71,
      "start": 19.7111,
      "duration": 0.057,
      "velocity": 111,
      "chip": "ym2612"
    },
    {
      "channel": 3,
      "note": 59,
      "start": 19.7712,
      "duration": 0.13,
      "velocity": 93,
      "chip": "ym2612"
    },
    {
      "channel": 1,
      "note": 62,
      "start": 19.7734,
      "duration": 0.1278,
      "velocity": 111,
      "chip": "ym2612"
    },
    {
      "channel": 4,
      "note": 66,
      "start": 19.7756,
      "duration": 0.1259,
      "velocity": 111,
      "chip": "ym2612"
    },
    {
      "channel": 0,
      "note": 71,
      "start": 19.7777,
      "duration": 0.1234,
      "velocity": 111,
      "chip": "ym2612"
    },
    {
      "channel": 3,
      "note": 59,
      "start": 19.904,
      "duration": 0.0704,
      "velocity": 93,
      "chip": "ym2612"
    },
    {
      "channel": 1,
      "note": 62,
      "start": 19.9065,
      "duration": 0.1424,
      "velocity": 111,
      "chip": "ym2612"
    },
    {
      "channel": 4,
      "note": 66,
      "start": 19.9091,
      "duration": 0.14,
      "velocity": 111,
      "chip": "ym2612"
    },
    {
      "channel": 0,
      "note": 71,
      "start": 19.9115,
      "duration": 0.1372,
      "velocity": 111,
      "chip": "ym2612"
    },
    {
      "channel": 3,
      "note": 59,
      "start": 20.0517,
      "duration": 0.1471,
      "velocity": 93,
      "chip": "ym2612"
    },
    {
      "channel": 1,
      "note": 62,
      "start": 20.0538,
      "duration": 0.2088,
      "velocity": 111,
      "chip": "ym2612"
    },
    {
      "channel": 4,
      "note": 66,
      "start": 20.0562,
      "duration": 0.2066,
      "velocity": 111,
      "chip": "ym2612"
    },
    {
      "channel": 0,
      "note": 71,
      "start": 20.0586,
      "duration": 0.1401,
      "velocity": 111,
      "chip": "ym2612"
    },
    {
      "channel": 3,
      "note": 59,
      "start": 20.2014,
      "duration": 0.0613,
      "velocity": 93,
      "chip": "ym2612"
    },
    {
      "channel": 0,
      "note": 71,
      "start": 20.2044,
      "duration": 0.0582,
      "velocity": 111,
      "chip": "ym2612"
    },
    {
      "channel": 3,
      "note": 59,
      "start": 20.265,
      "duration": 0.0655,
      "velocity": 93,
      "chip": "ym2612"
    },
    {
      "channel": 1,
      "note": 62,
      "start": 20.2673,
      "duration": 0.0632,
      "velocity": 111,
      "chip": "ym2612"
    },
    {
      "channel": 4,
      "note": 66,
      "start": 20.2695,
      "duration": 0.061,
      "velocity": 111,
      "chip": "ym2612"
    },
    {
      "channel": 0,
      "note": 71,
      "start": 20.2726,
      "duration": 0.0578,
      "velocity": 111,
      "chip": "ym2612"
    },
    {
      "channel": 3,
      "note": 59,
      "start": 20.3327,
      "duration": 0.1208,
      "velocity": 93,
      "chip": "ym2612"
    },
    {
      "channel": 1,
      "note": 62,
      "start": 20.3346,
      "duration": 0.1187,
      "velocity": 111,
      "chip": "ym2612"
    },
    {
      "channel": 4,
      "note": 66,
      "start": 20.3367,
      "duration": 0.117,
      "velocity": 111,
      "chip": "ym2612"
    },
    {
      "channel": 0,
      "note": 71,
      "start": 20.3396,
      "duration": 0.1136,
      "velocity": 111,
      "chip": "ym2612"
    },
    {
      "channel": 3,
      "note": 59,
      "start": 20.4563,
      "duration": 0.0702,
      "velocity": 93,
      "chip": "ym2612"
    },
    {
      "channel": 1,
      "note": 62,
      "start": 20.4588,
      "duration": 0.1422,
      "velocity": 111,
      "chip": "ym2612"
    },
    {
      "channel": 4,
      "note": 66,
      "start": 20.462,
      "duration": 0.1392,
      "velocity": 111,
      "chip": "ym2612"
    },
    {
      "channel": 0,
      "note": 71,
      "start": 20.4643,
      "duration": 0.1365,
      "velocity": 111,
      "chip": "ym2612"
    },
    {
      "channel": 3,
      "note": 59,
      "start": 20.6038,
      "duration": 0.1471,
      "velocity": 93,
      "chip": "ym2612"
    },
    {
      "channel": 1,
      "note": 62,
      "start": 20.6059,
      "duration": 0.2143,
      "velocity": 111,
      "chip": "ym2612"
    },
    {
      "channel": 4,
      "note": 66,
      "start": 20.6083,
      "duration": 0.212,
      "velocity": 111,
      "chip": "ym2612"
    },
    {
      "channel": 0,
      "note": 71,
      "start": 20.6107,
      "duration": 0.1401,
      "velocity": 111,
      "chip": "ym2612"
    },
    {
      "channel": 3,
      "note": 59,
      "start": 20.7535,
      "duration": 0.0667,
      "velocity": 93,
      "chip": "ym2612"
    },
    {
      "channel": 0,
      "note": 71,
      "start": 20.7559,
      "duration": 0.0642,
      "velocity": 111,
      "chip": "ym2612"
    },
    {
      "channel": 3,
      "note": 59,
      "start": 20.8225,
      "duration": 0.0648,
      "velocity": 93,
      "chip": "ym2612"
    },
    {
      "channel": 1,
      "note": 62,
      "start": 20.8256,
      "duration": 0.0615,
      "velocity": 111,
      "chip": "ym2612"
    },
    {
      "channel": 4,
      "note": 66,
      "start": 20.8282,
      "duration": 0.0591,
      "velocity": 111,
      "chip": "ym2612"
    },
    {
      "channel": 0,
      "note": 71,
      "start": 20.8302,
      "duration": 0.0569,
      "velocity": 111,
      "chip": "ym2612"
    },
    {
      "channel": 3,
      "note": 59,
      "start": 20.8905,
      "duration": 0.1129,
      "velocity": 93,
      "chip": "ym2612"
    },
    {
      "channel": 1,
      "note": 62,
      "start": 20.8925,
      "duration": 0.1107,
      "velocity": 111,
      "chip": "ym2612"
    },
    {
      "channel": 4,
      "note": 66,
      "start": 20.8947,
      "duration": 0.1089,
      "velocity": 111,
      "chip": "ym2612"
    },
    {
      "channel": 0,
      "note": 71,
      "start": 20.8966,
      "duration": 0.1065,
      "velocity": 111,
      "chip": "ym2612"
    },
    {
      "channel": 3,
      "note": 55,
      "start": 21.0061,
      "duration": 0.0693,
      "velocity": 93,
      "chip": "ym2612"
    },
    {
      "channel": 1,
      "note": 59,
      "start": 21.0082,
      "duration": 0.0671,
      "velocity": 111,
      "chip": "ym2612"
    },
    {
      "channel": 4,
      "note": 62,
      "start": 21.0106,
      "duration": 0.0649,
      "velocity": 111,
      "chip": "ym2612"
    },
    {
      "channel": 0,
      "note": 67,
      "start": 21.0127,
      "duration": 0.0625,
      "velocity": 111,
      "chip": "ym2612"
    },
    {
      "channel": 3,
      "note": 55,
      "start": 21.0776,
      "duration": 0.0707,
      "velocity": 93,
      "chip": "ym2612"
    },
    {
      "channel": 1,
      "note": 59,
      "start": 21.0796,
      "duration": 0.0686,
      "velocity": 111,
      "chip": "ym2612"
    },
    {
      "channel": 4,
      "note": 62,
      "start": 21.0818,
      "duration": 0.0666,
      "velocity": 111,
      "chip": "ym2612"
    },
    {
      "channel": 0,
      "note": 67,
      "start": 21.0847,
      "duration": 0.0633,
      "velocity": 111,
      "chip": "ym2612"
    },
    {
      "channel": 3,
      "note": 55,
      "start": 21.1509,
      "duration": 0.0695,
      "velocity": 93,
      "chip": "ym2612"
    },
    {
      "channel": 1,
      "note": 59,
      "start": 21.1531,
      "duration": 0.0673,
      "velocity": 111,
      "chip": "ym2612"
    },
    {
      "channel": 4,
      "note": 62,
      "start": 21.1554,
      "duration": 0.0651,
      "velocity": 111,
      "chip": "ym2612"
    },
    {
      "channel": 0,
      "note": 67,
      "start": 21.1575,
      "duration": 0.0627,
      "velocity": 111,
      "chip": "ym2612"
    },
    {
      "channel": 3,
      "note": 57,
      "start": 21.2226,
      "duration": 0.068,
      "velocity": 93,
      "chip": "ym2612"
    },
    {
      "channel": 1,
      "note": 61,
      "start": 21.2246,
      "duration": 0.0659,
      "velocity": 111,
      "chip": "ym2612"
    },
    {
      "channel": 4,
      "note": 64,
      "start": 21.2268,
      "duration": 0.0639,
      "velocity": 111,
      "chip": "ym2612"
    },
    {
      "channel": 0,
      "note": 69,
      "start": 21.2297,
      "duration": 0.0607,
      "velocity": 111,
      "chip": "ym2612"
    },
    {
      "channel": 3,
      "note": 57,
      "start": 21.2929,
      "duration": 0.0645,
      "velocity": 93,
      "chip": "ym2612"
    },
    {
      "channel": 1,
      "note": 61,
      "start": 21.2959,
      "duration": 0.0614,
      "velocity": 111,
      "chip": "ym2612"
    },
    {
      "channel": 4,
      "note": 64,
      "start": 21.298,
      "duration": 0.0594,
      "velocity": 111,
      "chip": "ym2612"
    },
    {
      "channel": 0,
      "note": 69,
      "start": 21.3,
      "duration": 0.0571,
      "velocity": 111,
      "chip": "ym2612"
    },
    {
      "channel": 3,
      "note": 57,
      "start": 21.3594,
      "duration": 0.1233,
      "velocity": 93,
      "chip": "ym2612"
    },
    {
      "channel": 1,
      "note": 61,
      "start": 21.3625,
      "duration": 0.12,
      "velocity": 111,
      "chip": "ym2612"
    },
    {
      "channel": 4,
      "note": 64,
      "start": 21.3646,
      "duration": 0.1183,
      "velocity": 111,
      "chip": "ym2612"
    },
    {
      "channel": 0,
      "note": 69,
      "start": 21.3665,
      "duration": 0.1159,
      "velocity": 111,
      "chip": "ym2612"
    },
    {
      "channel": 3,
      "note": 55,
      "start": 21.4854,
      "duration": 0.0701,
      "velocity": 93,
      "chip": "ym2612"
    },
    {
      "channel": 1,
      "note": 59,
      "start": 21.4879,
      "duration": 0.1251,
      "velocity": 111,
      "chip": "ym2612"
    },
    {
      "channel": 4,
      "note": 62,
      "start": 21.4905,
      "duration": 0.1227,
      "velocity": 111,
      "chip": "ym2612"
    },
    {
      "channel": 0,
      "note": 67,
      "start": 21.4929,
      "duration": 0.12,
      "velocity": 111,
      "chip": "ym2612"
    },
    {
      "channel": 3,
      "note": 55,
      "start": 21.6163,
      "duration": 0.1467,
      "velocity": 93,
      "chip": "ym2612"
    },
    {
      "channel": 1,
      "note": 59,
      "start": 21.6185,
      "duration": 0.2146,
      "velocity": 111,
      "chip": "ym2612"
    },
    {
      "channel": 4,
      "note": 62,
      "start": 21.6209,
      "duration": 0.2124,
      "velocity": 111,
      "chip": "ym2612"
    },
    {
      "channel": 0,
      "note": 67,
      "start": 21.6232,
      "duration": 0.1396,
      "velocity": 111,
      "chip": "ym2612"
    },
    {
      "channel": 3,
      "note": 55,
      "start": 21.7656,
      "duration": 0.0676,
      "velocity": 93,
      "chip": "ym2612"
    },
    {
      "channel": 0,
      "note": 67,
      "start": 21.768,
      "duration": 0.0651,
      "velocity": 111,
      "chip": "ym2612"
    },
    {
      "channel": 3,
      "note": 55,
      "start": 21.8354,
      "duration": 0.0644,
      "velocity": 93,
      "chip": "ym2612"
    },
    {
      "channel": 1,
      "note": 59,
      "start": 21.8386,
      "duration": 0.0611,
      "velocity": 111,
      "chip": "ym2612"
    },
    {
      "channel": 4,
      "note": 62,
      "start": 21.8411,
      "duration": 0.0588,
      "velocity": 111,
      "chip": "ym2612"
    },
    {
      "channel": 0,
      "note": 67,
      "start": 21.8432,
      "duration": 0.0565,
      "velocity": 111,
      "chip": "ym2612"
    },
    {
      "channel": 3,
      "note": 55,
      "start": 21.9031,
      "duration": 0.1298,
      "velocity": 93,
      "chip": "ym2612"
    },
    {
      "channel": 1,
      "note": 59,
      "start": 21.9051,
      "duration": 0.1276,
      "velocity": 111,
      "chip": "ym2612"
    },
    {
      "channel": 4,
      "note": 62,
      "start": 21.9073,
      "duration": 0.1257,
      "velocity": 111,
      "chip": "ym2612"
    },
    {
      "channel": 0,
      "note": 67,
      "start": 21.9092,
      "duration": 0.1234,
      "velocity": 111,
      "chip": "ym2612"
    },
    {
      "channel": 3,
      "note": 55,
      "start": 22.0356,
      "duration": 0.0702,
      "velocity": 93,
      "chip": "ym2612"
    },
    {
      "channel": 1,
      "note": 59,
      "start": 22.0386,
      "duration": 0.142,
      "velocity": 111,
      "chip": "ym2612"
    },
    {
      "channel": 4,
      "note": 62,
      "start": 22.0412,
      "duration": 0.1395,
      "velocity": 111,
      "chip": "ym2612"
    },
    {
      "channel": 0,
      "note": 67,
      "start": 22.0436,
      "duration": 0.1368,
      "velocity": 111,
      "chip": "ym2612"
    },
    {
      "channel": 3,
      "note": 55,
      "start": 22.1834,
      "duration": 0.1472,
      "velocity": 93,
      "chip": "ym2612"
    },
    {
      "channel": 1,
      "note": 59,
      "start": 22.1855,
      "duration": 0.2076,
      "velocity": 111,
      "chip": "ym2612"
    },
    {
      "channel": 4,
      "note": 62,
      "start": 22.1878,
      "duration": 0.2054,
      "velocity": 111,
      "chip": "ym2612"
    },
    {
      "channel": 0,
      "note": 67,
      "start": 22.1908,
      "duration": 0.1396,
      "velocity": 111,
      "chip": "ym2612"
    },
    {
      "channel": 3,
      "note": 55,
      "start": 22.3331,
      "duration": 0.06,
      "velocity": 93,
      "chip": "ym2612"
    },
    {
      "channel": 0,
      "note": 67,
      "start": 22.3356,
      "duration": 0.0574,
      "velocity": 111,
      "chip": "ym2612"
    },
    {
      "channel": 3,
      "note": 55,
      "start": 22.3954,
      "duration": 0.0658,
      "velocity": 93,
      "chip": "ym2612"
    },
    {
      "channel": 1,
      "note": 59,
      "start": 22.3976,
      "duration": 0.0636,
      "velocity": 111,
      "chip": "ym2612"
    },
    {
      "channel": 4,
      "note": 62,
      "start": 22.401,
      "duration": 0.0603,
      "velocity": 111,
      "chip": "ym2612"
    },
    {
      "channel": 0,
      "note": 67,
      "start": 22.4031,
      "duration": 0.058,
      "velocity": 111,
      "chip": "ym2612"
    },
    {
      "channel": 3,
      "note": 55,
      "start": 22.4634,
      "duration": 0.1215,
      "velocity": 93,
      "chip": "ym2612"
    },
    {
      "channel": 1,
      "note": 59,
      "start": 22.4655,
      "duration": 0.1194,
      "velocity": 111,
      "chip": "ym2612"
    },
    {
      "channel": 4,
      "note": 62,
      "start": 22.4676,
      "duration": 0.1175,
      "velocity": 111,
      "chip": "ym2612"
    },
    {
      "channel": 0,
      "note": 67,
      "start": 22.4707,
      "duration": 0.114,
      "velocity": 111,
      "chip": "ym2612"
    },
    {
      "channel": 3,
      "note": 55,
      "start": 22.5877,
      "duration": 0.0695,
      "velocity": 93,
      "chip": "ym2612"
    },
    {
      "channel": 1,
      "note": 59,
      "start": 22.5902,
      "duration": 0.1421,
      "velocity": 111,
      "chip": "ym2612"
    },
    {
      "channel": 4,
      "note": 62,
      "start": 22.5928,
      "duration": 0.1397,
      "velocity": 111,
      "chip": "ym2612"
    },
    {
      "channel": 0,
      "note": 67,
      "start": 22.5952,
      "duration": 0.137,
      "velocity": 111,
      "chip": "ym2612"
    },
    {
      "channel": 3,
      "note": 55,
      "start": 22.7351,
      "duration": 0.1473,
      "velocity": 93,
      "chip": "ym2612"
    },
    {
      "channel": 1,
      "note": 59,
      "start": 22.7373,
      "duration": 0.2146,
      "velocity": 111,
      "chip": "ym2612"
    },
    {
      "channel": 4,
      "note": 62,
      "start": 22.7396,
      "duration": 0.2124,
      "velocity": 111,
      "chip": "ym2612"
    },
    {
      "channel": 0,
      "note": 67,
      "start": 22.7421,
      "duration": 0.1401,
      "velocity": 111,
      "chip": "ym2612"
    },
    {
      "channel": 3,
      "note": 55,
      "start": 22.8849,
      "duration": 0.0671,
      "velocity": 93,
      "chip": "ym2612"
    },
    {
      "channel": 0,
      "note": 67,
      "start": 22.8873,
      "duration": 0.0645,
      "velocity": 111,
      "chip": "ym2612"
    },
    {
      "channel": 3,
      "note": 55,
      "start": 22.9542,
      "duration": 0.0651,
      "velocity": 93,
      "chip": "ym2612"
    },
    {
      "channel": 1,
      "note": 59,
      "start": 22.9574,
      "duration": 0.0619,
      "velocity": 111,
      "chip": "ym2612"
    },
    {
      "channel": 4,
      "note": 62,
      "start": 22.96,
      "duration": 0.0593,
      "velocity": 111,
      "chip": "ym2612"
    },
    {
      "channel": 0,
      "note": 67,
      "start": 22.9622,
      "duration": 0.057,
      "velocity": 111,
      "chip": "ym2612"
    },
    {
      "channel": 3,
      "note": 55,
      "start": 23.0223,
      "duration": 0.1301,
      "velocity": 93,
      "chip": "ym2612"
    },
    {
      "channel": 1,
      "note": 59,
      "start": 23.0244,
      "duration": 0.1279,
      "velocity": 111,
      "chip": "ym2612"
    },
    {
      "channel": 4,
      "note": 62,
      "start": 23.0267,
      "duration": 0.1259,
      "velocity": 111,
      "chip": "ym2612"
    },
    {
      "channel": 0,
      "note": 67,
      "start": 23.0288,
      "duration": 0.1235,
      "velocity": 111,
      "chip": "ym2612"
    },
    {
      "channel": 3,
      "note": 55,
      "start": 23.1551,
      "duration": 0.0629,
      "velocity": 93,
      "chip": "ym2612"
    },
    {
      "channel": 1,
      "note": 59,
      "start": 23.1575,
      "duration": 0.1273,
      "velocity": 111,
      "chip": "ym2612"
    },
    {
      "channel": 4,
      "note": 62,
      "start": 23.1602,
      "duration": 0.125,
      "velocity": 111,
      "chip": "ym2612"
    },
    {
      "channel": 0,
      "note": 69,
      "start": 23.1623,
      "duration": 0.0556,
      "velocity": 111,
      "chip": "ym2612"
    },
    {
      "channel": 3,
      "note": 55,
      "start": 23.2212,
      "duration": 0.0637,
      "velocity": 93,
      "chip": "ym2612"
    },
    {
      "channel": 0,
      "note": 69,
      "start": 23.2233,
      "duration": 0.0614,
      "velocity": 111,
      "chip": "ym2612"
    },
    {
      "channel": 3,
      "note": 55,
      "start": 23.2876,
      "duration": 0.0694,
      "velocity": 93,
      "chip": "ym2612"
    },
    {
      "channel": 1,
      "note": 59,
      "start": 23.2898,
      "duration": 0.1357,
      "velocity": 111,
      "chip": "ym2612"
    },
    {
      "channel": 4,
      "note": 62,
      "start": 23.2921,
      "duration": 0.1335,
      "velocity": 111,
      "chip": "ym2612"
    },
    {
      "channel": 0,
      "note": 69,
      "start": 23.2941,
      "duration": 0.0627,
      "velocity": 111,
      "chip": "ym2612"
    },
    {
      "channel": 3,
      "note": 57,
      "start": 23.3593,
      "duration": 0.0662,
      "velocity": 93,
      "chip": "ym2612"
    },
    {
      "channel": 0,
      "note": 69,
      "start": 23.3615,
      "duration": 0.0639,
      "velocity": 111,
      "chip": "ym2612"
    },
    {
      "channel": 3,
      "note": 57,
      "start": 23.4276,
      "duration": 0.0651,
      "velocity": 93,
      "chip": "ym2612"
    },
    {
      "channel": 1,
      "note": 61,
      "start": 23.4298,
      "duration": 0.0628,
      "velocity": 111,
      "chip": "ym2612"
    },
    {
      "channel": 4,
      "note": 64,
      "start": 23.4322,
      "duration": 0.0606,
      "velocity": 111,
      "chip": "ym2612"
    },
    {
      "channel": 0,
      "note": 69,
      "start": 23.4356,
      "duration": 0.0569,
      "velocity": 111,
      "chip": "ym2612"
    },
    {
      "channel": 3,
      "note": 57,
      "start": 23.495,
      "duration": 0.1259,
      "velocity": 93,
      "chip": "ym2612"
    },
    {
      "channel": 1,
      "note": 61,
      "start": 23.497,
      "duration": 0.1237,
      "velocity": 111,
      "chip": "ym2612"
    },
    {
      "channel": 4,
      "note": 64,
      "start": 23.4991,
      "duration": 0.1218,
      "velocity": 111,
      "chip": "ym2612"
    },
    {
      "channel": 0,
      "note": 69,
      "start": 23.5011,
      "duration": 0.1194,
      "velocity": 111,
      "chip": "ym2612"
    },
    {
      "channel": 3,
      "note": 55,
      "start": 23.6236,
      "duration": 0.07,
      "velocity": 93,
      "chip": "ym2612"
    },
    {
      "channel": 1,
      "note": 59,
      "start": 23.626,
      "duration": 0.1431,
      "velocity": 111,
      "chip": "ym2612"
    },
    {
      "channel": 4,
      "note": 62,
      "start": 23.6286,
      "duration": 0.1406,
      "velocity": 111,
      "chip": "ym2612"
    },
    {
      "channel": 0,
      "note": 67,
      "start": 23.6311,
      "duration": 0.1379,
      "velocity": 111,
      "chip": "ym2612"
    },
    {
      "channel": 3,
      "note": 55,
      "start": 23.772,
      "duration": 0.1305,
      "velocity": 93,
      "chip": "ym2612"
    },
    {
      "channel": 1,
      "note": 59,
      "start": 23.774,
      "duration": 0.1989,
      "velocity": 111,
      "chip": "ym2612"
    },
    {
      "channel": 4,
      "note": 62,
      "start": 23.7764,
      "duration": 0.1967,
      "velocity": 111,
      "chip": "ym2612"
    },
    {
      "channel": 0,
      "note": 67,
      "start": 23.7788,
      "duration": 0.1235,
      "velocity": 111,
      "chip": "ym2612"
    },
    {
      "channel": 3,
      "note": 55,
      "start": 23.905,
      "duration": 0.068,
      "velocity": 93,
      "chip": "ym2612"
    },
    {
      "channel": 0,
      "note": 67,
      "start": 23.9074,
      "duration": 0.0654,
      "velocity": 111,
      "chip": "ym2612"
    },
    {
      "channel": 3,
      "note": 55,
      "start": 23.9752,
      "duration": 0.0643,
      "velocity": 93,
      "chip": "ym2612"
    },
    {
      "channel": 1,
      "note": 59,
      "start": 23.9784,
      "duration": 0.061,
      "velocity": 111,
      "chip": "ym2612"
    },
    {
      "channel": 4,
      "note": 62,
      "start": 23.9809,
      "duration": 0.0587,
      "velocity": 111,
      "chip": "ym2612"
    },
    {
      "channel": 0,
      "note": 67,
      "start": 23.9829,
      "duration": 0.0564,
      "velocity": 111,
      "chip": "ym2612"
    },
    {
      "channel": 3,
      "note": 55,
      "start": 24.0427,
      "duration": 0.1298,
      "velocity": 93,
      "chip": "ym2612"
    },
    {
      "channel": 1,
      "note": 59,
      "start": 24.0448,
      "duration": 0.1276,
      "velocity": 111,
      "chip": "ym2612"
    },
    {
      "channel": 4,
      "note": 62,
      "start": 24.047,
      "duration": 0.1257,
      "velocity": 111,
      "chip": "ym2612"
    },
    {
      "channel": 0,
      "note": 67,
      "start": 24.0489,
      "duration": 0.1234,
      "velocity": 111,
      "chip": "ym2612"
    },
    {
      "channel": 3,
      "note": 55,
      "start": 24.1758,
      "duration": 0.0711,
      "velocity": 93,
      "chip": "ym2612"
    },
    {
      "channel": 1,
      "note": 59,
      "start": 24.1788,
      "duration": 0.142,
      "velocity": 111,
      "chip": "ym2612"
    },
    {
      "channel": 4,
      "note": 62,
      "start": 24.1815,
      "duration": 0.1395,
      "velocity": 111,
      "chip": "ym2612"
    },
    {
      "channel": 0,
      "note": 67,
      "start": 24.1838,
      "duration": 0.1368,
      "velocity": 111,
      "chip": "ym2612"
    },
    {
      "channel": 3,
      "note": 55,
      "start": 24.3236,
      "duration": 0.1473,
      "velocity": 93,
      "chip": "ym2612"
    },
    {
      "channel": 1,
      "note": 59,
      "start": 24.3258,
      "duration": 0.2145,
      "velocity": 111,
      "chip": "ym2612"
    },
    {
      "channel": 4,
      "note": 62,
      "start": 24.3281,
      "duration": 0.2123,
      "velocity": 111,
      "chip": "ym2612"
    },
    {
      "channel": 0,
      "note": 67,
      "start": 24.331,
      "duration": 0.1396,
      "velocity": 111,
      "chip": "ym2612"
    },
    {
      "channel": 3,
      "note": 55,
      "start": 24.4734,
      "duration": 0.0669,
      "velocity": 93,
      "chip": "ym2612"
    },
    {
      "channel": 0,
      "note": 67,
      "start": 24.4758,
      "duration": 0.0644,
      "velocity": 111,
      "chip": "ym2612"
    },
    {
      "channel": 3,
      "note": 55,
      "start": 24.5426,
      "duration": 0.0575,
      "velocity": 93,
      "chip": "ym2612"
    },
    {
      "channel": 1,
      "note": 59,
      "start": 24.5457,
      "duration": 0.0542,
      "velocity": 111,
      "chip": "ym2612"
    },
    {
      "channel": 4,
      "note": 62,
      "start": 24.5483,
      "duration": 0.0519,
      "velocity": 111,
      "chip": "ym2612"
    },
    {
      "channel": 0,
      "note": 67,
      "start": 24.5503,
      "duration": 0.0496,
      "velocity": 111,
      "chip": "ym2612"
    },
    {
      "channel": 3,
      "note": 55,
      "start": 24.6022,
      "duration": 0.1215,
      "velocity": 93,
      "chip": "ym2612"
    },
    {
      "channel": 1,
      "note": 59,
      "start": 24.6043,
      "duration": 0.1193,
      "velocity": 111,
      "chip": "ym2612"
    },
    {
      "channel": 4,
      "note": 62,
      "start": 24.6064,
      "duration": 0.1174,
      "velocity": 111,
      "chip": "ym2612"
    },
    {
      "channel": 0,
      "note": 67,
      "start": 24.6095,
      "duration": 0.1139,
      "velocity": 111,
      "chip": "ym2612"
    },
    {
      "channel": 3,
      "note": 55,
      "start": 24.7265,
      "duration": 0.07,
      "velocity": 93,
      "chip": "ym2612"
    },
    {
      "channel": 1,
      "note": 59,
      "start": 24.729,
      "duration": 0.1418,
      "velocity": 111,
      "chip": "ym2612"
    },
    {
      "channel": 4,
      "note": 62,
      "start": 24.7316,
      "duration": 0.1393,
      "velocity": 111,
      "chip": "ym2612"
    },
    {
      "channel": 0,
      "note": 67,
      "start": 24.734,
      "duration": 0.1366,
      "velocity": 111,
      "chip": "ym2612"
    },
    {
      "channel": 3,
      "note": 55,
      "start": 24.8735,
      "duration": 0.1473,
      "velocity": 93,
      "chip": "ym2612"
    },
    {
      "channel": 1,
      "note": 59,
      "start": 24.8757,
      "duration": 0.2145,
      "velocity": 111,
      "chip": "ym2612"
    },
    {
      "channel": 4,
      "note": 62,
      "start": 24.878,
      "duration": 0.2123,
      "velocity": 111,
      "chip": "ym2612"
    },
    {
      "channel": 0,
      "note": 67,
      "start": 24.8804,
      "duration": 0.1402,
      "velocity": 111,
      "chip": "ym2612"
    },
    {
      "channel": 3,
      "note": 55,
      "start": 25.0233,
      "duration": 0.067,
      "velocity": 93,
      "chip": "ym2612"
    },
    {
      "channel": 0,
      "note": 67,
      "start": 25.0257,
      "duration": 0.0644,
      "velocity": 111,
      "chip": "ym2612"
    },
    {
      "channel": 3,
      "note": 55,
      "start": 25.0924,
      "duration": 0.0651,
      "velocity": 93,
      "chip": "ym2612"
    },
    {
      "channel": 1,
      "note": 59,
      "start": 25.0956,
      "duration": 0.0618,
      "velocity": 111,
      "chip": "ym2612"
    },
    {
      "channel": 4,
      "note": 62,
      "start": 25.0983,
      "duration": 0.0593,
      "velocity": 111,
      "chip": "ym2612"
    },
    {
      "channel": 0,
      "note": 67,
      "start": 25.1004,
      "duration": 0.0569,
      "velocity": 111,
      "chip": "ym2612"
    },
    {
      "channel": 3,
      "note": 55,
      "start": 25.1605,
      "duration": 0.1301,
      "velocity": 93,
      "chip": "ym2612"
    },
    {
      "channel": 1,
      "note": 59,
      "start": 25.1627,
      "duration": 0.1279,
      "velocity": 111,
      "chip": "ym2612"
    },
    {
      "channel": 4,
      "note": 62,
      "start": 25.1649,
      "duration": 0.1259,
      "velocity": 111,
      "chip": "ym2612"
    },
    {
      "channel": 0,
      "note": 67,
      "start": 25.167,
      "duration": 0.1234,
      "velocity": 111,
      "chip": "ym2612"
    },
    {
      "channel": 3,
      "note": 57,
      "start": 25.2933,
      "duration": 0.0631,
      "velocity": 93,
      "chip": "ym2612"
    },
    {
      "channel": 1,
      "note": 61,
      "start": 25.2954,
      "duration": 0.0609,
      "velocity": 111,
      "chip": "ym2612"
    },
    {
      "channel": 4,
      "note": 64,
      "start": 25.2978,
      "duration": 0.0587,
      "velocity": 111,
      "chip": "ym2612"
    },
    {
      "channel": 0,
      "note": 69,
      "start": 25.2998,
      "duration": 0.0563,
      "velocity": 111,
      "chip": "ym2612"
    },
    {
      "channel": 3,
      "note": 57,
      "start": 25.3598,
      "duration": 0.0646,
      "velocity": 93,
      "chip": "ym2612"
    },
    {
      "channel": 1,
      "note": 61,
      "start": 25.3618,
      "duration": 0.0625,
      "velocity": 111,
      "chip": "ym2612"
    },
    {
      "channel": 4,
      "note": 64,
      "start": 25.364,
      "duration": 0.0605,
      "velocity": 111,
      "chip": "ym2612"
    },
    {
      "channel": 0,
      "note": 69,
      "start": 25.3662,
      "duration": 0.0581,
      "velocity": 111,
      "chip": "ym2612"
    },
    {
      "channel": 3,
      "note": 57,
      "start": 25.4276,
      "duration": 0.068,
      "velocity": 93,
      "chip": "ym2612"
    },
    {
      "channel": 1,
      "note": 61,
      "start": 25.4296,
      "duration": 0.0658,
      "velocity": 111,
      "chip": "ym2612"
    },
    {
      "channel": 4,
      "note": 64,
      "start": 25.432,
      "duration": 0.0636,
      "velocity": 111,
      "chip": "ym2612"
    },
    {
      "channel": 0,
      "note": 69,
      "start": 25.4341,
      "duration": 0.0613,
      "velocity": 111,
      "chip": "ym2612"
    },
    {
      "channel": 3,
      "note": 62,
      "start": 25.4976,
      "duration": 0.0667,
      "velocity": 93,
      "chip": "ym2612"
    },
    {
      "channel": 1,
      "note": 62,
      "start": 25.4997,
      "duration": 0.0646,
      "velocity": 111,
      "chip": "ym2612"
    },
    {
      "channel": 4,
      "note": 66,
      "start": 25.5018,
      "duration": 0.0626,
      "velocity": 111,
      "chip": "ym2612"
    },
    {
      "channel": 0,
      "note": 74,
      "start": 25.5037,
      "duration": 0.0605,
      "velocity": 111,
      "chip": "ym2612"
    },
    {
      "channel": 3,
      "note": 62,
      "start": 25.5666,
      "duration": 0.0661,
      "velocity": 93,
      "chip": "ym2612"
    },
    {
      "channel": 1,
      "note": 62,
      "start": 25.5687,
      "duration": 0.064,
      "velocity": 111,
      "chip": "ym2612"
    },
    {
      "channel": 4,
      "note": 66,
      "start": 25.5719,
      "duration": 0.061,
      "velocity": 111,
      "chip": "ym2612"
    },
    {
      "channel": 0,
      "note": 74,
      "start": 25.574,
      "duration": 0.0586,
      "velocity": 111,
      "chip": "ym2612"
    },
    {
      "channel": 3,
      "note": 61,
      "start": 25.635,
      "duration": 0.1227,
      "velocity": 93,
      "chip": "ym2612"
    },
    {
      "channel": 1,
      "note": 64,
      "start": 25.637,
      "duration": 0.1206,
      "velocity": 111,
      "chip": "ym2612"
    },
    {
      "channel": 4,
      "note": 67,
      "start": 25.6401,
      "duration": 0.1177,
      "velocity": 111,
      "chip": "ym2612"
    },
    {
      "channel": 0,
      "note": 73,
      "start": 25.6422,
      "duration": 0.1152,
      "velocity": 111,
      "chip": "ym2612"
    },
    {
      "channel": 3,
      "note": 59,
      "start": 25.7605,
      "duration": 0.07,
      "velocity": 93,
      "chip": "ym2612"
    },
    {
      "channel": 1,
      "note": 62,
      "start": 25.7629,
      "duration": 0.1431,
      "velocity": 111,
      "chip": "ym2612"
    },
    {
      "channel": 4,
      "note": 66,
      "start": 25.7656,
      "duration": 0.1406,
      "velocity": 111,
      "chip": "ym2612"
    },
    {
      "channel": 0,
      "note": 71,
      "start": 25.768,
      "duration": 0.1379,
      "velocity": 111,
      "chip": "ym2612"
    },
    {
      "channel": 3,
      "note": 59,
      "start": 25.9088,
      "duration": 0.1471,
      "velocity": 93,
      "chip": "ym2612"
    },
    {
      "channel": 1,
      "note": 62,
      "start": 25.9109,
      "duration": 0.2089,
      "velocity": 111,
      "chip": "ym2612"
    },
    {
      "channel": 4,
      "note": 66,
      "start": 25.9133,
      "duration": 0.2067,
      "velocity": 111,
      "chip": "ym2612"
    },
    {
      "channel": 0,
      "note": 71,
      "start": 25.9157,
      "duration": 0.1401,
      "velocity": 111,
      "chip": "ym2612"
    },
    {
      "channel": 3,
      "note": 59,
      "start": 26.0585,
      "duration": 0.0614,
      "velocity": 93,
      "chip": "ym2612"
    },
    {
      "channel": 0,
      "note": 71,
      "start": 26.0609,
      "duration": 0.0589,
      "velocity": 111,
      "chip": "ym2612"
    },
    {
      "channel": 3,
      "note": 59,
      "start": 26.1222,
      "duration": 0.0655,
      "velocity": 93,
      "chip": "ym2612"
    },
    {
      "channel": 1,
      "note": 62,
      "start": 26.1244,
      "duration": 0.0632,
      "velocity": 111,
      "chip": "ym2612"
    },
    {
      "channel": 4,
      "note": 66,
      "start": 26.1267,
      "duration": 0.0611,
      "velocity": 111,
      "chip": "ym2612"
    },
    {
      "channel": 0,
      "note": 71,
      "start": 26.1298,
      "duration": 0.0578,
      "velocity": 111,
      "chip": "ym2612"
    },
    {
      "channel": 3,
      "note": 59,
      "start": 26.1899,
      "duration": 0.1208,
      "velocity": 93,
      "chip": "ym2612"
    },
    {
      "channel": 1,
      "note": 62,
      "start": 26.1919,
      "duration": 0.1188,
      "velocity": 111,
      "chip": "ym2612"
    },
    {
      "channel": 4,
      "note": 66,
      "start": 26.1939,
      "duration": 0.117,
      "velocity": 111,
      "chip": "ym2612"
    },
    {
      "channel": 0,
      "note": 71,
      "start": 26.1968,
      "duration": 0.1137,
      "velocity": 111,
      "chip": "ym2612"
    },
    {
      "channel": 3,
      "note": 59,
      "start": 26.3135,
      "duration": 0.0702,
      "velocity": 93,
      "chip": "ym2612"
    },
    {
      "channel": 1,
      "note": 62,
      "start": 26.3165,
      "duration": 0.142,
      "velocity": 111,
      "chip": "ym2612"
    },
    {
      "channel": 4,
      "note": 66,
      "start": 26.3191,
      "duration": 0.1394,
      "velocity": 111,
      "chip": "ym2612"
    },
    {
      "channel": 0,
      "note": 71,
      "start": 26.3215,
      "duration": 0.1367,
      "velocity": 111,
      "chip": "ym2612"
    },
    {
      "channel": 3,
      "note": 59,
      "start": 26.4612,
      "duration": 0.1472,
      "velocity": 93,
      "chip": "ym2612"
    },
    {
      "channel": 1,
      "note": 62,
      "start": 26.4633,
      "duration": 0.2145,
      "velocity": 111,
      "chip": "ym2612"
    },
    {
      "channel": 4,
      "note": 66,
      "start": 26.4657,
      "duration": 0.2123,
      "velocity": 111,
      "chip": "ym2612"
    },
    {
      "channel": 0,
      "note": 71,
      "start": 26.4686,
      "duration": 0.1396,
      "velocity": 111,
      "chip": "ym2612"
    },
    {
      "channel": 3,
      "note": 59,
      "start": 26.611,
      "duration": 0.0669,
      "velocity": 93,
      "chip": "ym2612"
    },
    {
      "channel": 0,
      "note": 71,
      "start": 26.6134,
      "duration": 0.0644,
      "velocity": 111,
      "chip": "ym2612"
    },
    {
      "channel": 3,
      "note": 59,
      "start": 26.6801,
      "duration": 0.0649,
      "velocity": 93,
      "chip": "ym2612"
    },
    {
      "channel": 1,
      "note": 62,
      "start": 26.6833,
      "duration": 0.0616,
      "velocity": 111,
      "chip": "ym2612"
    },
    {
      "channel": 4,
      "note": 66,
      "start": 26.6858,
      "duration": 0.0593,
      "velocity": 111,
      "chip": "ym2612"
    },
    {
      "channel": 0,
      "note": 71,
      "start": 26.6878,
      "duration": 0.057,
      "velocity": 111,
      "chip": "ym2612"
    },
    {
      "channel": 3,
      "note": 59,
      "start": 26.7487,
      "duration": 0.1128,
      "velocity": 93,
      "chip": "ym2612"
    },
    {
      "channel": 1,
      "note": 62,
      "start": 26.7507,
      "duration": 0.1106,
      "velocity": 111,
      "chip": "ym2612"
    },
    {
      "channel": 4,
      "note": 66,
      "start": 26.7528,
      "duration": 0.1089,
      "velocity": 111,
      "chip": "ym2612"
    },
    {
      "channel": 0,
      "note": 71,
      "start": 26.7548,
      "duration": 0.1064,
      "velocity": 111,
      "chip": "ym2612"
    },
    {
      "channel": 3,
      "note": 59,
      "start": 26.8643,
      "duration": 0.0701,
      "velocity": 93,
      "chip": "ym2612"
    },
    {
      "channel": 1,
      "note": 62,
      "start": 26.8668,
      "duration": 0.1425,
      "velocity": 111,
      "chip": "ym2612"
    },
    {
      "channel": 4,
      "note": 66,
      "start": 26.8694,
      "duration": 0.14,
      "velocity": 111,
      "chip": "ym2612"
    },
    {
      "channel": 0,
      "note": 71,
      "start": 26.8718,
      "duration": 0.1373,
      "velocity": 111,
      "chip": "ym2612"
    },
    {
      "channel": 3,
      "note": 59,
      "start": 27.0121,
      "duration": 0.1473,
      "velocity": 93,
      "chip": "ym2612"
    },
    {
      "channel": 1,
      "note": 62,
      "start": 27.0142,
      "duration": 0.2149,
      "velocity": 111,
      "chip": "ym2612"
    },
    {
      "channel": 4,
      "note": 66,
      "start": 27.0165,
      "duration": 0.2127,
      "velocity": 111,
      "chip": "ym2612"
    },
    {
      "channel": 0,
      "note": 71,
      "start": 27.019,
      "duration": 0.1402,
      "velocity": 111,
      "chip": "ym2612"
    },
    {
      "channel": 3,
      "note": 59,
      "start": 27.1619,
      "duration": 0.0673,
      "velocity": 93,
      "chip": "ym2612"
    },
    {
      "channel": 0,
      "note": 71,
      "start": 27.1643,
      "duration": 0.0647,
      "velocity": 111,
      "chip": "ym2612"
    },
    {
      "channel": 3,
      "note": 59,
      "start": 27.2314,
      "duration": 0.0651,
      "velocity": 93,
      "chip": "ym2612"
    },
    {
      "channel": 1,
      "note": 62,
      "start": 27.2346,
      "duration": 0.0619,
      "velocity": 111,
      "chip": "ym2612"
    },
    {
      "channel": 4,
      "note": 66,
      "start": 27.2373,
      "duration": 0.0592,
      "velocity": 111,
      "chip": "ym2612"
    },
    {
      "channel": 0,
      "note": 71,
      "start": 27.2395,
      "duration": 0.0568,
      "velocity": 111,
      "chip": "ym2612"
    },
    {
      "channel": 3,
      "note": 59,
      "start": 27.2995,
      "duration": 0.1301,
      "velocity": 93,
      "chip": "ym2612"
    },
    {
      "channel": 1,
      "note": 62,
      "start": 27.3016,
      "duration": 0.1279,
      "velocity": 111,
      "chip": "ym2612"
    },
    {
      "channel": 4,
      "note": 66,
      "start": 27.3038,
      "duration": 0.1259,
      "velocity": 111,
      "chip": "ym2612"
    },
    {
      "channel": 0,
      "note": 71,
      "start": 27.3059,
      "duration": 0.1235,
      "velocity": 111,
      "chip": "ym2612"
    },
    {
      "channel": 3,
      "note": 55,
      "start": 27.4322,
      "duration": 0.0702,
      "velocity": 93,
      "chip": "ym2612"
    },
    {
      "channel": 1,
      "note": 59,
      "start": 27.4344,
      "duration": 0.068,
      "velocity": 111,
      "chip": "ym2612"
    },
    {
      "channel": 4,
      "note": 62,
      "start": 27.4368,
      "duration": 0.0658,
      "velocity": 111,
      "chip": "ym2612"
    },
    {
      "channel": 0,
      "note": 67,
      "start": 27.4389,
      "duration": 0.0634,
      "velocity": 111,
      "chip": "ym2612"
    },
    {
      "channel": 3,
      "note": 55,
      "start": 27.5046,
      "duration": 0.058,
      "velocity": 93,
      "chip": "ym2612"
    },
    {
      "channel": 1,
      "note": 59,
      "start": 27.5067,
      "duration": 0.0559,
      "velocity": 111,
      "chip": "ym2612"
    },
    {
      "channel": 4,
      "note": 62,
      "start": 27.5089,
      "duration": 0.0539,
      "velocity": 111,
      "chip": "ym2612"
    },
    {
      "channel": 0,
      "note": 67,
      "start": 27.5118,
      "duration": 0.0507,
      "velocity": 111,
      "chip": "ym2612"
    },
    {
      "channel": 3,
      "note": 55,
      "start": 27.5658,
      "duration": 0.0679,
      "velocity": 93,
      "chip": "ym2612"
    },
    {
      "channel": 1,
      "note": 59,
      "start": 27.5679,
      "duration": 0.0658,
      "velocity": 111,
      "chip": "ym2612"
    },
    {
      "channel": 4,
      "note": 62,
      "start": 27.5702,
      "duration": 0.0635,
      "velocity": 111,
      "chip": "ym2612"
    },
    {
      "channel": 0,
      "note": 67,
      "start": 27.5723,
      "duration": 0.0612,
      "velocity": 111,
      "chip": "ym2612"
    },
    {
      "channel": 3,
      "note": 57,
      "start": 27.6359,
      "duration": 0.0662,
      "velocity": 93,
      "chip": "ym2612"
    },
    {
      "channel": 1,
      "note": 61,
      "start": 27.6379,
      "duration": 0.0641,
      "velocity": 111,
      "chip": "ym2612"
    },
    {
      "channel": 4,
      "note": 64,
      "start": 27.64,
      "duration": 0.0622,
      "velocity": 111,
      "chip": "ym2612"
    },
    {
      "channel": 0,
      "note": 69,
      "start": 27.6419,
      "duration": 0.0601,
      "velocity": 111,
      "chip": "ym2612"
    },
    {
      "channel": 3,
      "note": 57,
      "start": 27.7044,
      "duration": 0.0655,
      "velocity": 93,
      "chip": "ym2612"
    },
    {
      "channel": 1,
      "note": 61,
      "start": 27.7064,
      "duration": 0.0634,
      "velocity": 111,
      "chip": "ym2612"
    },
    {
      "channel": 4,
      "note": 64,
      "start": 27.7087,
      "duration": 0.0612,
      "velocity": 111,
      "chip": "ym2612"
    },
    {
      "channel": 0,
      "note": 69,
      "start": 27.7116,
      "duration": 0.0581,
      "velocity": 111,
      "chip": "ym2612"
    },
    {
      "channel": 3,
      "note": 57,
      "start": 27.772,
      "duration": 0.1217,
      "velocity": 93,
      "chip": "ym2612"
    },
    {
      "channel": 1,
      "note": 61,
      "start": 27.7741,
      "duration": 0.1194,
      "velocity": 111,
      "chip": "ym2612"
    },
    {
      "channel": 4,
      "note": 64,
      "start": 27.7762,
      "duration": 0.1176,
      "velocity": 111,
      "chip": "ym2612"
    },
    {
      "channel": 0,
      "note": 69,
      "start": 27.7793,
      "duration": 0.1141,
      "velocity": 111,
      "chip": "ym2612"
    },
    {
      "channel": 3,
      "note": 59,
      "start": 27.8964,
      "duration": 0.07,
      "velocity": 93,
      "chip": "ym2612"
    },
    {
      "channel": 1,
      "note": 62,
      "start": 27.8989,
      "duration": 0.1432,
      "velocity": 111,
      "chip": "ym2612"
    },
    {
      "channel": 4,
      "note": 66,
      "start": 27.9015,
      "duration": 0.1407,
      "velocity": 111,
      "chip": "ym2612"
    },
    {
      "channel": 0,
      "note": 71,
      "start": 27.9039,
      "duration": 0.138,
      "velocity": 111,
      "chip": "ym2612"
    },
    {
      "channel": 3,
      "note": 59,
      "start": 28.0449,
      "duration": 0.1471,
      "velocity": 93,
      "chip": "ym2612"
    },
    {
      "channel": 1,
      "note": 62,
      "start": 28.047,
      "duration": 0.2073,
      "velocity": 111,
      "chip": "ym2612"
    },
    {
      "channel": 4,
      "note": 66,
      "start": 28.0493,
      "duration": 0.2051,
      "velocity": 111,
      "chip": "ym2612"
    },
    {
      "channel": 0,
      "note": 71,
      "start": 28.0518,
      "duration": 0.1401,
      "velocity": 111,
      "chip": "ym2612"
    },
    {
      "channel": 3,
      "note": 59,
      "start": 28.1946,
      "duration": 0.0598,
      "velocity": 93,
      "chip": "ym2612"
    },
    {
      "channel": 0,
      "note": 71,
      "start": 28.1969,
      "duration": 0.0573,
      "velocity": 111,
      "chip": "ym2612"
    },
    {
      "channel": 3,
      "note": 59,
      "start": 28.2567,
      "duration": 0.0658,
      "velocity": 93,
      "chip": "ym2612"
    },
    {
      "channel": 1,
      "note": 62,
      "start": 28.2588,
      "duration": 0.0636,
      "velocity": 111,
      "chip": "ym2612"
    },
    {
      "channel": 4,
      "note": 66,
      "start": 28.2623,
      "duration": 0.0603,
      "velocity": 111,
      "chip": "ym2612"
    },
    {
      "channel": 0,
      "note": 71,
      "start": 28.2643,
      "duration": 0.058,
      "velocity": 111,
      "chip": "ym2612"
    },
    {
      "channel": 3,
      "note": 59,
      "start": 28.3247,
      "duration": 0.1216,
      "velocity": 93,
      "chip": "ym2612"
    },
    {
      "channel": 1,
      "note": 62,
      "start": 28.3267,
      "duration": 0.1194,
      "velocity": 111,
      "chip": "ym2612"
    },
    {
      "channel": 4,
      "note": 66,
      "start": 28.3289,
      "duration": 0.1176,
      "velocity": 111,
      "chip": "ym2612"
    },
    {
      "channel": 0,
      "note": 71,
      "start": 28.3319,
      "duration": 0.114,
      "velocity": 111,
      "chip": "ym2612"
    },
    {
      "channel": 3,
      "note": 59,
      "start": 28.449,
      "duration": 0.0701,
      "velocity": 93,
      "chip": "ym2612"
    },
    {
      "channel": 1,
      "note": 62,
      "start": 28.4515,
      "duration": 0.1419,
      "velocity": 111,
      "chip": "ym2612"
    },
    {
      "channel": 4,
      "note": 66,
      "start": 28.4541,
      "duration": 0.1394,
      "velocity": 111,
      "chip": "ym2612"
    },
    {
      "channel": 0,
      "note": 71,
      "start": 28.457,
      "duration": 0.1361,
      "velocity": 111,
      "chip": "ym2612"
    },
    {
      "channel": 3,
      "note": 59,
      "start": 28.5962,
      "duration": 0.1473,
      "velocity": 93,
      "chip": "ym2612"
    },
    {
      "channel": 1,
      "note": 62,
      "start": 28.5983,
      "duration": 0.2148,
      "velocity": 111,
      "chip": "ym2612"
    },
    {
      "channel": 4,
      "note": 66,
      "start": 28.6006,
      "duration": 0.2125,
      "velocity": 111,
      "chip": "ym2612"
    },
    {
      "channel": 0,
      "note": 71,
      "start": 28.603,
      "duration": 0.1402,
      "velocity": 111,
      "chip": "ym2612"
    },
    {
      "channel": 3,
      "note": 59,
      "start": 28.746,
      "duration": 0.0671,
      "velocity": 93,
      "chip": "ym2612"
    },
    {
      "channel": 0,
      "note": 71,
      "start": 28.7483,
      "duration": 0.0646,
      "velocity": 111,
      "chip": "ym2612"
    },
    {
      "channel": 3,
      "note": 59,
      "start": 28.8153,
      "duration": 0.0653,
      "velocity": 93,
      "chip": "ym2612"
    },
    {
      "channel": 1,
      "note": 62,
      "start": 28.819,
      "duration": 0.0615,
      "velocity": 111,
      "chip": "ym2612"
    },
    {
      "channel": 4,
      "note": 66,
      "start": 28.8212,
      "duration": 0.0595,
      "velocity": 111,
      "chip": "ym2612"
    },
    {
      "channel": 0,
      "note": 71,
      "start": 28.8234,
      "duration": 0.0571,
      "velocity": 111,
      "chip": "ym2612"
    },
    {
      "channel": 3,
      "note": 59,
      "start": 28.8836,
      "duration": 0.1135,
      "velocity": 93,
      "chip": "ym2612"
    },
    {
      "channel": 1,
      "note": 62,
      "start": 28.8857,
      "duration": 0.1113,
      "velocity": 111,
      "chip": "ym2612"
    },
    {
      "channel": 4,
      "note": 66,
      "start": 28.888,
      "duration": 0.1093,
      "velocity": 111,
      "chip": "ym2612"
    },
    {
      "channel": 0,
      "note": 71,
      "start": 28.89,
      "duration": 0.1068,
      "velocity": 111,
      "chip": "ym2612"
    },
    {
      "channel": 3,
      "note": 59,
      "start": 28.9999,
      "duration": 0.07,
      "velocity": 93,
      "chip": "ym2612"
    },
    {
      "channel": 1,
      "note": 62,
      "start": 29.0024,
      "duration": 0.1424,
      "velocity": 111,
      "chip": "ym2612"
    },
    {
      "channel": 4,
      "note": 66,
      "start": 29.005,
      "duration": 0.1399,
      "velocity": 111,
      "chip": "ym2612"
    },
    {
      "channel": 0,
      "note": 71,
      "start": 29.0074,
      "duration": 0.1373,
      "velocity": 111,
      "chip": "ym2612"
    },
    {
      "channel": 3,
      "note": 59,
      "start": 29.1476,
      "duration": 0.1473,
      "velocity": 93,
      "chip": "ym2612"
    },
    {
      "channel": 1,
      "note": 62,
      "start": 29.1496,
      "duration": 0.216,
      "velocity": 111,
      "chip": "ym2612"
    },
    {
      "channel": 4,
      "note": 66,
      "start": 29.152,
      "duration": 0.2138,
      "velocity": 111,
      "chip": "ym2612"
    },
    {
      "channel": 0,
      "note": 71,
      "start": 29.1544,
      "duration": 0.1402,
      "velocity": 111,
      "chip": "ym2612"
    },
    {
      "channel": 3,
      "note": 59,
      "start": 29.2979,
      "duration": 0.0678,
      "velocity": 93,
      "chip": "ym2612"
    },
    {
      "channel": 0,
      "note": 71,
      "start": 29.3003,
      "duration": 0.0653,
      "velocity": 111,
      "chip": "ym2612"
    },
    {
      "channel": 3,
      "note": 59,
      "start": 29.3679,
      "duration": 0.0649,
      "velocity": 93,
      "chip": "ym2612"
    },
    {
      "channel": 1,
      "note": 62,
      "start": 29.3711,
      "duration": 0.0616,
      "velocity": 111,
      "chip": "ym2612"
    },
    {
      "channel": 4,
      "note": 66,
      "start": 29.3735,
      "duration": 0.0594,
      "velocity": 111,
      "chip": "ym2612"
    },
    {
      "channel": 0,
      "note": 71,
      "start": 29.3755,
      "duration": 0.0571,
      "velocity": 111,
      "chip": "ym2612"
    },
    {
      "channel": 3,
      "note": 59,
      "start": 29.4349,
      "duration": 0.1304,
      "velocity": 93,
      "chip": "ym2612"
    },
    {
      "channel": 1,
      "note": 62,
      "start": 29.438,
      "duration": 0.1271,
      "velocity": 111,
      "chip": "ym2612"
    },
    {
      "channel": 4,
      "note": 66,
      "start": 29.4402,
      "duration": 0.1252,
      "velocity": 111,
      "chip": "ym2612"
    },
    {
      "channel": 0,
      "note": 71,
      "start": 29.4423,
      "duration": 0.1227,
      "velocity": 111,
      "chip": "ym2612"
    },
    {
      "channel": 3,
      "note": 55,
      "start": 29.5679,
      "duration": 0.0706,
      "velocity": 93,
      "chip": "ym2612"
    },
    {
      "channel": 1,
      "note": 59,
      "start": 29.57,
      "duration": 0.0683,
      "velocity": 111,
      "chip": "ym2612"
    },
    {
      "channel": 4,
      "note": 62,
      "start": 29.5729,
      "duration": 0.0656,
      "velocity": 111,
      "chip": "ym2612"
    },
    {
      "channel": 0,
      "note": 67,
      "start": 29.575,
      "duration": 0.0633,
      "velocity": 111,
      "chip": "ym2612"
    },
    {
      "channel": 3,
      "note": 55,
      "start": 29.6406,
      "duration": 0.0724,
      "velocity": 93,
      "chip": "ym2612"
    },
    {
      "channel": 1,
      "note": 59,
      "start": 29.6426,
      "duration": 0.0702,
      "velocity": 111,
      "chip": "ym2612"
    },
    {
      "channel": 4,
      "note": 62,
      "start": 29.6448,
      "duration": 0.0683,
      "velocity": 111,
      "chip": "ym2612"
    },
    {
      "channel": 0,
      "note": 67,
      "start": 29.6477,
      "duration": 0.065,
      "velocity": 111,
      "chip": "ym2612"
    },
    {
      "channel": 3,
      "note": 55,
      "start": 29.7156,
      "duration": 0.0629,
      "velocity": 93,
      "chip": "ym2612"
    },
    {
      "channel": 1,
      "note": 59,
      "start": 29.7177,
      "duration": 0.0607,
      "velocity": 111,
      "chip": "ym2612"
    },
    {
      "channel": 4,
      "note": 62,
      "start": 29.7201,
      "duration": 0.0585,
      "velocity": 111,
      "chip": "ym2612"
    },
    {
      "channel": 0,
      "note": 67,
      "start": 29.7222,
      "duration": 0.0561,
      "velocity": 111,
      "chip": "ym2612"
    },
    {
      "channel": 3,
      "note": 57,
      "start": 29.7809,
      "duration": 0.0667,
      "velocity": 93,
      "chip": "ym2612"
    },
    {
      "channel": 1,
      "note": 61,
      "start": 29.7829,
      "duration": 0.0646,
      "velocity": 111,
      "chip": "ym2612"
    },
    {
      "channel": 4,
      "note": 64,
      "start": 29.7851,
      "duration": 0.0626,
      "velocity": 111,
      "chip": "ym2612"
    },
    {
      "channel": 0,
      "note": 69,
      "start": 29.7872,
      "duration": 0.0602,
      "velocity": 111,
      "chip": "ym2612"
    },
    {
      "channel": 3,
      "note": 57,
      "start": 29.8499,
      "duration": 0.0657,
      "velocity": 93,
      "chip": "ym2612"
    },
    {
      "channel": 1,
      "note": 61,
      "start": 29.8519,
      "duration": 0.0636,
      "velocity": 111,
      "chip": "ym2612"
    },
    {
      "channel": 4,
      "note": 64,
      "start": 29.8542,
      "duration": 0.0615,
      "velocity": 111,
      "chip": "ym2612"
    },
    {
      "channel": 0,
      "note": 69,
      "start": 29.8571,
      "duration": 0.0583,
      "velocity": 111,
      "chip": "ym2612"
    },
    {
      "channel": 3,
      "note": 57,
      "start": 29.9177,
      "duration": 0.1217,
      "velocity": 93,
      "chip": "ym2612"
    },
    {
      "channel": 1,
      "note": 61,
      "start": 29.9197,
      "duration": 0.1195,
      "velocity": 111,
      "chip": "ym2612"
    },
    {
      "channel": 4,
      "note": 64,
      "start": 29.9228,
      "duration": 0.1166,
      "velocity": 111,
      "chip": "ym2612"
    },
    {
      "channel": 0,
      "note": 69,
      "start": 29.9248,
      "duration": 0.1142,
      "velocity": 111,
      "chip": "ym2612"
    },
    {
      "channel": 3,
      "note": 55,
      "start": 30.0421,
      "duration": 0.0702,
      "velocity": 93,
      "chip": "ym2612"
    },
    {
      "channel": 1,
      "note": 59,
      "start": 30.0446,
      "duration": 0.1431,
      "velocity": 111,
      "chip": "ym2612"
    },
    {
      "channel": 4,
      "note": 62,
      "start": 30.0472,
      "duration": 0.1407,
      "velocity": 111,
      "chip": "ym2612"
    },
    {
      "channel": 0,
      "note": 67,
      "start": 30.0496,
      "duration": 0.1379,
      "velocity": 111,
      "chip": "ym2612"
    },
    {
      "channel": 3,
      "note": 55,
      "start": 30.1905,
      "duration": 0.1471,
      "velocity": 93,
      "chip": "ym2612"
    },
    {
      "channel": 1,
      "note": 59,
      "start": 30.1926,
      "duration": 0.2145,
      "velocity": 111,
      "chip": "ym2612"
    },
    {
      "channel": 4,
      "note": 62,
      "start": 30.1949,
      "duration": 0.2122,
      "velocity": 111,
      "chip": "ym2612"
    },
    {
      "channel": 0,
      "note": 67,
      "start": 30.1974,
      "duration": 0.1401,
      "velocity": 111,
      "chip": "ym2612"
    },
    {
      "channel": 3,
      "note": 55,
      "start": 30.3402,
      "duration": 0.067,
      "velocity": 93,
      "chip": "ym2612"
    },
    {
      "channel": 0,
      "note": 67,
      "start": 30.3426,
      "duration": 0.0644,
      "velocity": 111,
      "chip": "ym2612"
    },
    {
      "channel": 3,
      "note": 55,
      "start": 30.4093,
      "duration": 0.0572,
      "velocity": 93,
      "chip": "ym2612"
    },
    {
      "channel": 1,
      "note": 59,
      "start": 30.4125,
      "duration": 0.0539,
      "velocity": 111,
      "chip": "ym2612"
    },
    {
      "channel": 4,
      "note": 62,
      "start": 30.415,
      "duration": 0.0516,
      "velocity": 111,
      "chip": "ym2612"
    },
    {
      "channel": 0,
      "note": 67,
      "start": 30.417,
      "duration": 0.0494,
      "velocity": 111,
      "chip": "ym2612"
    },
    {
      "channel": 3,
      "note": 55,
      "start": 30.4687,
      "duration": 0.1215,
      "velocity": 93,
      "chip": "ym2612"
    },
    {
      "channel": 1,
      "note": 59,
      "start": 30.4708,
      "duration": 0.1193,
      "velocity": 111,
      "chip": "ym2612"
    },
    {
      "channel": 4,
      "note": 62,
      "start": 30.4729,
      "duration": 0.1175,
      "velocity": 111,
      "chip": "ym2612"
    },
    {
      "channel": 0,
      "note": 67,
      "start": 30.476,
      "duration": 0.1139,
      "velocity": 111,
      "chip": "ym2612"
    },
    {
      "channel": 3,
      "note": 55,
      "start": 30.593,
      "duration": 0.0701,
      "velocity": 93,
      "chip": "ym2612"
    },
    {
      "channel": 1,
      "note": 59,
      "start": 30.5955,
      "duration": 0.1418,
      "velocity": 111,
      "chip": "ym2612"
    },
    {
      "channel": 4,
      "note": 62,
      "start": 30.5981,
      "duration": 0.1393,
      "velocity": 111,
      "chip": "ym2612"
    },
    {
      "channel": 0,
      "note": 67,
      "start": 30.601,
      "duration": 0.1361,
      "velocity": 111,
      "chip": "ym2612"
    },
    {
      "channel": 3,
      "note": 55,
      "start": 30.74,
      "duration": 0.1473,
      "velocity": 93,
      "chip": "ym2612"
    },
    {
      "channel": 1,
      "note": 59,
      "start": 30.7421,
      "duration": 0.2164,
      "velocity": 111,
      "chip": "ym2612"
    },
    {
      "channel": 4,
      "note": 62,
      "start": 30.7445,
      "duration": 0.2142,
      "velocity": 111,
      "chip": "ym2612"
    },
    {
      "channel": 0,
      "note": 67,
      "start": 30.7469,
      "duration": 0.1402,
      "velocity": 111,
      "chip": "ym2612"
    },
    {
      "channel": 3,
      "note": 55,
      "start": 30.8898,
      "duration": 0.0688,
      "velocity": 93,
      "chip": "ym2612"
    },
    {
      "channel": 0,
      "note": 67,
      "start": 30.8923,
      "duration": 0.0662,
      "velocity": 111,
      "chip": "ym2612"
    },
    {
      "channel": 3,
      "note": 55,
      "start": 30.961,
      "duration": 0.0652,
      "velocity": 93,
      "chip": "ym2612"
    },
    {
      "channel": 1,
      "note": 59,
      "start": 30.9645,
      "duration": 0.0616,
      "velocity": 111,
      "chip": "ym2612"
    },
    {
      "channel": 4,
      "note": 62,
      "start": 30.9671,
      "duration": 0.0592,
      "velocity": 111,
      "chip": "ym2612"
    },
    {
      "channel": 0,
      "note": 67,
      "start": 30.9691,
      "duration": 0.057,
      "velocity": 111,
      "chip": "ym2612"
    },
    {
      "channel": 3,
      "note": 55,
      "start": 31.0284,
      "duration": 0.1307,
      "velocity": 93,
      "chip": "ym2612"
    },
    {
      "channel": 1,
      "note": 59,
      "start": 31.0314,
      "duration": 0.1276,
      "velocity": 111,
      "chip": "ym2612"
    },
    {
      "channel": 4,
      "note": 62,
      "start": 31.0337,
      "duration": 0.1256,
      "velocity": 111,
      "chip": "ym2612"
    },
    {
      "channel": 0,
      "note": 67,
      "start": 31.0356,
      "duration": 0.1232,
      "velocity": 111,
      "chip": "ym2612"
    },
    {
      "channel": 3,
      "note": 55,
      "start": 31.1619,
      "duration": 0.0629,
      "velocity": 93,
      "chip": "ym2612"
    },
    {
      "channel": 1,
      "note": 59,
      "start": 31.1643,
      "duration": 0.1262,
      "velocity": 111,
      "chip": "ym2612"
    },
    {
      "channel": 4,
      "note": 62,
      "start": 31.1669,
      "duration": 0.1238,
      "velocity": 111,
      "chip": "ym2612"
    },
    {
      "channel": 0,
      "note": 67,
      "start": 31.1694,
      "duration": 0.1211,
      "velocity": 111,
      "chip": "ym2612"
    },
    {
      "channel": 3,
      "note": 55,
      "start": 31.2934,
      "duration": 0.1473,
      "velocity": 93,
      "chip": "ym2612"
    },
    {
      "channel": 1,
      "note": 59,
      "start": 31.2955,
      "duration": 0.2155,
      "velocity": 111,
      "chip": "ym2612"
    },
    {
      "channel": 4,
      "note": 62,
      "start": 31.2979,
      "duration": 0.2132,
      "velocity": 111,
      "chip": "ym2612"
    },
    {
      "channel": 0,
      "note": 67,
      "start": 31.3003,
      "duration": 0.1401,
      "velocity": 111,
      "chip": "ym2612"
    },
    {
      "channel": 3,
      "note": 55,
      "start": 31.4432,
      "duration": 0.0679,
      "velocity": 93,
      "chip": "ym2612"
    },
    {
      "channel": 0,
      "note": 67,
      "start": 31.4456,
      "duration": 0.0653,
      "velocity": 111,
      "chip": "ym2612"
    },
    {
      "channel": 3,
      "note": 55,
      "start": 31.5133,
      "duration": 0.0648,
      "velocity": 93,
      "chip": "ym2612"
    },
    {
      "channel": 1,
      "note": 59,
      "start": 31.5164,
      "duration": 0.0615,
      "velocity": 111,
      "chip": "ym2612"
    },
    {
      "channel": 4,
      "note": 62,
      "start": 31.519,
      "duration": 0.0592,
      "velocity": 111,
      "chip": "ym2612"
    },
    {
      "channel": 0,
      "note": 67,
      "start": 31.521,
      "duration": 0.0569,
      "velocity": 111,
      "chip": "ym2612"
    },
    {
      "channel": 3,
      "note": 55,
      "start": 31.5813,
      "duration": 0.1296,
      "velocity": 93,
      "chip": "ym2612"
    },
    {
      "channel": 1,
      "note": 59,
      "start": 31.5834,
      "duration": 0.1274,
      "velocity": 111,
      "chip": "ym2612"
    },
    {
      "channel": 4,
      "note": 62,
      "start": 31.5856,
      "duration": 0.1255,
      "velocity": 111,
      "chip": "ym2612"
    },
    {
      "channel": 0,
      "note": 67,
      "start": 31.5875,
      "duration": 0.1232,
      "velocity": 111,
      "chip": "ym2612"
    },
    {
      "channel": 3,
      "note": 55,
      "start": 31.7135,
      "duration": 0.07,
      "velocity": 93,
      "chip": "ym2612"
    },
    {
      "channel": 1,
      "note": 59,
      "start": 31.716,
      "duration": 0.1425,
      "velocity": 111,
      "chip": "ym2612"
    },
    {
      "channel": 4,
      "note": 62,
      "start": 31.7192,
      "duration": 0.1395,
      "velocity": 111,
      "chip": "ym2612"
    },
    {
      "channel": 0,
      "note": 69,
      "start": 31.7212,
      "duration": 0.0622,
      "velocity": 111,
      "chip": "ym2612"
    },
    {
      "channel": 3,
      "note": 55,
      "start": 31.7857,
      "duration": 0.0729,
      "velocity": 93,
      "chip": "ym2612"
    },
    {
      "channel": 0,
      "note": 69,
      "start": 31.7877,
      "duration": 0.0705,
      "velocity": 111,
      "chip": "ym2612"
    },
    {
      "channel": 3,
      "note": 55,
      "start": 31.8617,
      "duration": 0.0626,
      "velocity": 93,
      "chip": "ym2612"
    },
    {
      "channel": 1,
      "note": 59,
      "start": 31.8639,
      "duration": 0.1281,
      "velocity": 111,
      "chip": "ym2612"
    },
    {
      "channel": 4,
      "note": 62,
      "start": 31.8662,
      "duration": 0.1259,
      "velocity": 111,
      "chip": "ym2612"
    },
    {
      "channel": 0,
      "note": 69,
      "start": 31.8683,
      "duration": 0.056,
      "velocity": 111,
      "chip": "ym2612"
    },
    {
      "channel": 3,
      "note": 57,
      "start": 31.9266,
      "duration": 0.0654,
      "velocity": 93,
      "chip": "ym2612"
    },
    {
      "channel": 0,
      "note": 69,
      "start": 31.9287,
      "duration": 0.0632,
      "velocity": 111,
      "chip": "ym2612"
    },
    {
      "channel": 3,
      "note": 57,
      "start": 31.9955,
      "duration": 0.0635,
      "velocity": 93,
      "chip": "ym2612"
    },
    {
      "channel": 1,
      "note": 61,
      "start": 31.9978,
      "duration": 0.0611,
      "velocity": 111,
      "chip": "ym2612"
    },
    {
      "channel": 4,
      "note": 64,
      "start": 32.0001,
      "duration": 0.0589,
      "velocity": 111,
      "chip": "ym2612"
    },
    {
      "channel": 0,
      "note": 69,
      "start": 32.0021,
      "duration": 0.0568,
      "velocity": 111,
      "chip": "ym2612"
    },
    {
      "channel": 3,
      "note": 57,
      "start": 32.0621,
      "duration": 0.125,
      "velocity": 93,
      "chip": "ym2612"
    },
    {
      "channel": 1,
      "note": 61,
      "start": 32.0641,
      "duration": 0.1228,
      "velocity": 111,
      "chip": "ym2612"
    },
    {
      "channel": 4,
      "note": 64,
      "start": 32.0663,
      "duration": 0.1209,
      "velocity": 111,
      "chip": "ym2612"
    },
    {
      "channel": 0,
      "note": 69,
      "start": 32.0684,
      "duration": 0.1184,
      "velocity": 111,
      "chip": "ym2612"
    },
    {
      "channel": 3,
      "note": 55,
      "start": 32.1898,
      "duration": 0.0701,
      "velocity": 93,
      "chip": "ym2612"
    },
    {
      "channel": 1,
      "note": 59,
      "start": 32.1923,
      "duration": 0.1422,
      "velocity": 111,
      "chip": "ym2612"
    },
    {
      "channel": 4,
      "note": 62,
      "start": 32.1949,
      "duration": 0.1397,
      "velocity": 111,
      "chip": "ym2612"
    },
    {
      "channel": 0,
      "note": 67,
      "start": 32.1973,
      "duration": 0.137,
      "velocity": 111,
      "chip": "ym2612"
    },
    {
      "channel": 3,
      "note": 55,
      "start": 32.3373,
      "duration": 0.1471,
      "velocity": 93,
      "chip": "ym2612"
    },
    {
      "channel": 1,
      "note": 59,
      "start": 32.3394,
      "duration": 0.2144,
      "velocity": 111,
      "chip": "ym2612"
    },
    {
      "channel": 4,
      "note": 62,
      "start": 32.3417,
      "duration": 0.2122,
      "velocity": 111,
      "chip": "ym2612"
    },
    {
      "channel": 0,
      "note": 67,
      "start": 32.3442,
      "duration": 0.1401,
      "velocity": 111,
      "chip": "ym2612"
    },
    {
      "channel": 3,
      "note": 55,
      "start": 32.487,
      "duration": 0.0669,
      "velocity": 93,
      "chip": "ym2612"
    },
    {
      "channel": 0,
      "note": 67,
      "start": 32.4894,
      "duration": 0.0644,
      "velocity": 111,
      "chip": "ym2612"
    },
    {
      "channel": 3,
      "note": 55,
      "start": 32.5561,
      "duration": 0.0649,
      "velocity": 93,
      "chip": "ym2612"
    },
    {
      "channel": 1,
      "note": 59,
      "start": 32.5593,
      "duration": 0.0616,
      "velocity": 111,
      "chip": "ym2612"
    },
    {
      "channel": 4,
      "note": 62,
      "start": 32.5618,
      "duration": 0.0593,
      "velocity": 111,
      "chip": "ym2612"
    },
    {
      "channel": 0,
      "note": 67,
      "start": 32.5638,
      "duration": 0.057,
      "velocity": 111,
      "chip": "ym2612"
    },
    {
      "channel": 3,
      "note": 55,
      "start": 32.6242,
      "duration": 0.1129,
      "velocity": 93,
      "chip": "ym2612"
    },
    {
      "channel": 1,
      "note": 59,
      "start": 32.6263,
      "duration": 0.1107,
      "velocity": 111,
      "chip": "ym2612"
    },
    {
      "channel": 4,
      "note": 62,
      "start": 32.6285,
      "duration": 0.1088,
      "velocity": 111,
      "chip": "ym2612"
    },
    {
      "channel": 0,
      "note": 67,
      "start": 32.6304,
      "duration": 0.1065,
      "velocity": 111,
      "chip": "ym2612"
    },
    {
      "channel": 3,
      "note": 55,
      "start": 32.7399,
      "duration": 0.07,
      "velocity": 93,
      "chip": "ym2612"
    },
    {
      "channel": 1,
      "note": 59,
      "start": 32.7424,
      "duration": 0.1417,
      "velocity": 111,
      "chip": "ym2612"
    },
    {
      "channel": 4,
      "note": 62,
      "start": 32.745,
      "duration": 0.1393,
      "velocity": 111,
      "chip": "ym2612"
    },
    {
      "channel": 0,
      "note": 67,
      "start": 32.7479,
      "duration": 0.1361,
      "velocity": 111,
      "chip": "ym2612"
    },
    {
      "channel": 3,
      "note": 55,
      "start": 32.8869,
      "duration": 0.1473,
      "velocity": 93,
      "chip": "ym2612"
    },
    {
      "channel": 1,
      "note": 59,
      "start": 32.889,
      "duration": 0.2149,
      "velocity": 111,
      "chip": "ym2612"
    },
    {
      "channel": 4,
      "note": 62,
      "start": 32.8913,
      "duration": 0.2126,
      "velocity": 111,
      "chip": "ym2612"
    },
    {
      "channel": 0,
      "note": 67,
      "start": 32.8938,
      "duration": 0.1402,
      "velocity": 111,
      "chip": "ym2612"
    },
    {
      "channel": 3,
      "note": 55,
      "start": 33.0367,
      "duration": 0.0672,
      "velocity": 93,
      "chip": "ym2612"
    },
    {
      "channel": 0,
      "note": 67,
      "start": 33.0391,
      "duration": 0.0646,
      "velocity": 111,
      "chip": "ym2612"
    },
    {
      "channel": 3,
      "note": 55,
      "start": 33.1061,
      "duration": 0.0651,
      "velocity": 93,
      "chip": "ym2612"
    },
    {
      "channel": 1,
      "note": 59,
      "start": 33.1098,
      "duration": 0.0614,
      "velocity": 111,
      "chip": "ym2612"
    },
    {
      "channel": 4,
      "note": 62,
      "start": 33.112,
      "duration": 0.0593,
      "velocity": 111,
      "chip": "ym2612"
    },
    {
      "channel": 0,
      "note": 67,
      "start": 33.1141,
      "duration": 0.0569,
      "velocity": 111,
      "chip": "ym2612"
    },
    {
      "channel": 3,
      "note": 55,
      "start": 33.1743,
      "duration": 0.1301,
      "velocity": 93,
      "chip": "ym2612"
    },
    {
      "channel": 1,
      "note": 59,
      "start": 33.1764,
      "duration": 0.1278,
      "velocity": 111,
      "chip": "ym2612"
    },
    {
      "channel": 4,
      "note": 62,
      "start": 33.1786,
      "duration": 0.1259,
      "velocity": 111,
      "chip": "ym2612"
    },
    {
      "channel": 0,
      "note": 67,
      "start": 33.1807,
      "duration": 0.1234,
      "velocity": 111,
      "chip": "ym2612"
    },
    {
      "channel": 3,
      "note": 55,
      "start": 33.3071,
      "duration": 0.0701,
      "velocity": 93,
      "chip": "ym2612"
    },
    {
      "channel": 1,
      "note": 59,
      "start": 33.3095,
      "duration": 0.1266,
      "velocity": 111,
      "chip": "ym2612"
    },
    {
      "channel": 4,
      "note": 62,
      "start": 33.3122,
      "duration": 0.1242,
      "velocity": 111,
      "chip": "ym2612"
    },
    {
      "channel": 0,
      "note": 67,
      "start": 33.3146,
      "duration": 0.1215,
      "velocity": 111,
      "chip": "ym2612"
    },
    {
      "channel": 3,
      "note": 55,
      "start": 33.439,
      "duration": 0.1473,
      "velocity": 93,
      "chip": "ym2612"
    },
    {
      "channel": 1,
      "note": 59,
      "start": 33.4415,
      "duration": 0.1447,
      "velocity": 111,
      "chip": "ym2612"
    },
    {
      "channel": 4,
      "note": 62,
      "start": 33.4438,
      "duration": 0.2138,
      "velocity": 111,
      "chip": "ym2612"
    },
    {
      "channel": 0,
      "note": 67,
      "start": 33.4462,
      "duration": 0.1398,
      "velocity": 111,
      "chip": "ym2612"
    },
    {
      "channel": 3,
      "note": 55,
      "start": 33.5888,
      "duration": 0.0688,
      "velocity": 93,
      "chip": "ym2612"
    },
    {
      "channel": 1,
      "note": 59,
      "start": 33.591,
      "duration": 0.0666,
      "velocity": 111,
      "chip": "ym2612"
    },
    {
      "channel": 0,
      "note": 67,
      "start": 33.5932,
      "duration": 0.0642,
      "velocity": 111,
      "chip": "ym2612"
    },
    {
      "channel": 3,
      "note": 55,
      "start": 33.6598,
      "duration": 0.0655,
      "velocity": 93,
      "chip": "ym2612"
    },
    {
      "channel": 1,
      "note": 59,
      "start": 33.6618,
      "duration": 0.0634,
      "velocity": 111,
      "chip": "ym2612"
    },
    {
      "channel": 4,
      "note": 62,
      "start": 33.6654,
      "duration": 0.0599,
      "velocity": 111,
      "chip": "ym2612"
    },
    {
      "channel": 0,
      "note": 67,
      "start": 33.6674,
      "duration": 0.0577,
      "velocity": 111,
      "chip": "ym2612"
    },
    {
      "channel": 3,
      "note": 55,
      "start": 33.7276,
      "duration": 0.128,
      "velocity": 93,
      "chip": "ym2612"
    },
    {
      "channel": 1,
      "note": 59,
      "start": 33.7295,
      "duration": 0.126,
      "velocity": 111,
      "chip": "ym2612"
    },
    {
      "channel": 4,
      "note": 62,
      "start": 33.7328,
      "duration": 0.1229,
      "velocity": 111,
      "chip": "ym2612"
    },
    {
      "channel": 0,
      "note": 67,
      "start": 33.7347,
      "duration": 0.1206,
      "velocity": 111,
      "chip": "ym2612"
    },
    {
      "channel": 3,
      "note": 54,
      "start": 33.8582,
      "duration": 0.0704,
      "velocity": 93,
      "chip": "ym2612"
    },
    {
      "channel": 1,
      "note": 58,
      "start": 33.8604,
      "duration": 0.0682,
      "velocity": 111,
      "chip": "ym2612"
    },
    {
      "channel": 4,
      "note": 61,
      "start": 33.8627,
      "duration": 0.0659,
      "velocity": 111,
      "chip": "ym2612"
    },
    {
      "channel": 0,
      "note": 66,
      "start": 33.8649,
      "duration": 0.0636,
      "velocity": 111,
      "chip": "ym2612"
    },
    {
      "channel": 3,
      "note": 54,
      "start": 33.9308,
      "duration": 0.0719,
      "velocity": 93,
      "chip": "ym2612"
    },
    {
      "channel": 1,
      "note": 58,
      "start": 33.9329,
      "duration": 0.0698,
      "velocity": 111,
      "chip": "ym2612"
    },
    {
      "channel": 4,
      "note": 61,
      "start": 33.9351,
      "duration": 0.0678,
      "velocity": 111,
      "chip": "ym2612"
    },
    {
      "channel": 0,
      "note": 66,
      "start": 33.938,
      "duration": 0.0645,
      "velocity": 111,
      "chip": "ym2612"
    },
    {
      "channel": 3,
      "note": 54,
      "start": 34.0054,
      "duration": 0.0704,
      "velocity": 93,
      "chip": "ym2612"
    },
    {
      "channel": 1,
      "note": 58,
      "start": 34.0076,
      "duration": 0.0681,
      "velocity": 111,
      "chip": "ym2612"
    },
    {
      "channel": 4,
      "note": 61,
      "start": 34.0104,
      "duration": 0.0655,
      "velocity": 111,
      "chip": "ym2612"
    },
    {
      "channel": 0,
      "note": 66,
      "start": 34.0125,
      "duration": 0.0631,
      "velocity": 111,
      "chip": "ym2612"
    },
    {
      "channel": 3,
      "note": 54,
      "start": 34.0779,
      "duration": 0.0608,
      "velocity": 93,
      "chip": "ym2612"
    },
    {
      "channel": 1,
      "note": 58,
      "start": 34.08,
      "duration": 0.0587,
      "velocity": 111,
      "chip": "ym2612"
    },
    {
      "channel": 4,
      "note": 61,
      "start": 34.0822,
      "duration": 0.0566,
      "velocity": 111,
      "chip": "ym2612"
    },
    {
      "channel": 0,
      "note": 66,
      "start": 34.0851,
      "duration": 0.0536,
      "velocity": 111,
      "chip": "ym2612"
    },
    {
      "channel": 3,
      "note": 52,
      "start": 34.1411,
      "duration": 0.0648,
      "velocity": 93,
      "chip": "ym2612"
    },
    {
      "channel": 1,
      "note": 58,
      "start": 34.1431,
      "duration": 0.0628,
      "velocity": 111,
      "chip": "ym2612"
    },
    {
      "channel": 4,
      "note": 61,
      "start": 34.1452,
      "duration": 0.0609,
      "velocity": 111,
      "chip": "ym2612"
    },
    {
      "channel": 0,
      "note": 66,
      "start": 34.1472,
      "duration": 0.0586,
      "velocity": 111,
      "chip": "ym2612"
    },
    {
      "channel": 3,
      "note": 49,
      "start": 34.2082,
      "duration": 0.1143,
      "velocity": 93,
      "chip": "ym2612"
    },
    {
      "channel": 1,
      "note": 58,
      "start": 34.2102,
      "duration": 0.1122,
      "velocity": 111,
      "chip": "ym2612"
    },
    {
      "channel": 4,
      "note": 61,
      "start": 34.2123,
      "duration": 0.1103,
      "velocity": 111,
      "chip": "ym2612"
    },
    {
      "channel": 0,
      "note": 66,
      "start": 34.2154,
      "duration": 0.1068,
      "velocity": 111,
      "chip": "ym2612"
    },
    {
      "channel": 3,
      "note": 50,
      "start": 34.3259,
      "duration": 0.1429,
      "velocity": 93,
      "chip": "ym2612"
    },
    {
      "channel": 1,
      "note": 57,
      "start": 34.3283,
      "duration": 0.1404,
      "velocity": 111,
      "chip": "ym2612"
    },
    {
      "channel": 4,
      "note": 62,
      "start": 34.331,
      "duration": 0.138,
      "velocity": 111,
      "chip": "ym2612"
    },
    {
      "channel": 0,
      "note": 66,
      "start": 34.3334,
      "duration": 0.1352,
      "velocity": 111,
      "chip": "ym2612"
    },
    {
      "channel": 3,
      "note": 50,
      "start": 34.4717,
      "duration": 0.147,
      "velocity": 93,
      "chip": "ym2612"
    },
    {
      "channel": 1,
      "note": 57,
      "start": 34.4742,
      "duration": 0.1444,
      "velocity": 111,
      "chip": "ym2612"
    },
    {
      "channel": 4,
      "note": 62,
      "start": 34.4769,
      "duration": 0.142,
      "velocity": 111,
      "chip": "ym2612"
    },
    {
      "channel": 0,
      "note": 66,
      "start": 34.4792,
      "duration": 0.1393,
      "velocity": 111,
      "chip": "ym2612"
    },
    {
      "channel": 3,
      "note": 50,
      "start": 34.6213,
      "duration": 0.0702,
      "velocity": 93,
      "chip": "ym2612"
    },
    {
      "channel": 1,
      "note": 57,
      "start": 34.6235,
      "duration": 0.068,
      "velocity": 111,
      "chip": "ym2612"
    },
    {
      "channel": 4,
      "note": 62,
      "start": 34.6259,
      "duration": 0.0657,
      "velocity": 111,
      "chip": "ym2612"
    },
    {
      "channel": 0,
      "note": 66,
      "start": 34.628,
      "duration": 0.0634,
      "velocity": 111,
      "chip": "ym2612"
    },
    {
      "channel": 3,
      "note": 50,
      "start": 34.6937,
      "duration": 0.0649,
      "velocity": 93,
      "chip": "ym2612"
    },
    {
      "channel": 1,
      "note": 57,
      "start": 34.6957,
      "duration": 0.0628,
      "velocity": 111,
      "chip": "ym2612"
    },
    {
      "channel": 4,
      "note": 62,
      "start": 34.6979,
      "duration": 0.0607,
      "velocity": 111,
      "chip": "ym2612"
    },
    {
      "channel": 0,
      "note": 66,
      "start": 34.7008,
      "duration": 0.0576,
      "velocity": 111,
      "chip": "ym2612"
    },
    {
      "channel": 3,
      "note": 50,
      "start": 34.7608,
      "duration": 0.1113,
      "velocity": 93,
      "chip": "ym2612"
    },
    {
      "channel": 1,
      "note": 57,
      "start": 34.7628,
      "duration": 0.1092,
      "velocity": 111,
      "chip": "ym2612"
    },
    {
      "channel": 4,
      "note": 62,
      "start": 34.7648,
      "duration": 0.1074,
      "velocity": 111,
      "chip": "ym2612"
    },
    {
      "channel": 0,
      "note": 66,
      "start": 34.7682,
      "duration": 0.1036,
      "velocity": 111,
      "chip": "ym2612"
    },
    {
      "channel": 3,
      "note": 50,
      "start": 34.875,
      "duration": 0.1438,
      "velocity": 93,
      "chip": "ym2612"
    },
    {
      "channel": 1,
      "note": 57,
      "start": 34.8775,
      "duration": 0.1411,
      "velocity": 111,
      "chip": "ym2612"
    },
    {
      "channel": 4,
      "note": 62,
      "start": 34.8801,
      "duration": 0.1388,
      "velocity": 111,
      "chip": "ym2612"
    },
    {
      "channel": 0,
      "note": 66,
      "start": 34.8825,
      "duration": 0.136,
      "velocity": 111,
      "chip": "ym2612"
    },
    {
      "channel": 3,
      "note": 50,
      "start": 35.0217,
      "duration": 0.1471,
      "velocity": 93,
      "chip": "ym2612"
    },
    {
      "channel": 1,
      "note": 57,
      "start": 35.0241,
      "duration": 0.1446,
      "velocity": 111,
      "chip": "ym2612"
    },
    {
      "channel": 4,
      "note": 62,
      "start": 35.0267,
      "duration": 0.1422,
      "velocity": 111,
      "chip": "ym2612"
    },
    {
      "channel": 0,
      "note": 66,
      "start": 35.0292,
      "duration": 0.1393,
      "velocity": 111,
      "chip": "ym2612"
    },
    {
      "channel": 3,
      "note": 50,
      "start": 35.1714,
      "duration": 0.07,
      "velocity": 93,
      "chip": "ym2612"
    },
    {
      "channel": 1,
      "note": 57,
      "start": 35.1741,
      "duration": 0.0672,
      "velocity": 111,
      "chip": "ym2612"
    },
    {
      "channel": 4,
      "note": 62,
      "start": 35.1764,
      "duration": 0.065,
      "velocity": 111,
      "chip": "ym2612"
    },
    {
      "channel": 0,
      "note": 66,
      "start": 35.1785,
      "duration": 0.0627,
      "velocity": 111,
      "chip": "ym2612"
    },
    {
      "channel": 3,
      "note": 50,
      "start": 35.2436,
      "duration": 0.0655,
      "velocity": 93,
      "chip": "ym2612"
    },
    {
      "channel": 1,
      "note": 57,
      "start": 35.2456,
      "duration": 0.0634,
      "velocity": 111,
      "chip": "ym2612"
    },
    {
      "channel": 4,
      "note": 62,
      "start": 35.2478,
      "duration": 0.0613,
      "velocity": 111,
      "chip": "ym2612"
    },
    {
      "channel": 0,
      "note": 66,
      "start": 35.2497,
      "duration": 0.0592,
      "velocity": 111,
      "chip": "ym2612"
    },
    {
      "channel": 3,
      "note": 50,
      "start": 35.3112,
      "duration": 0.1279,
      "velocity": 93,
      "chip": "ym2612"
    },
    {
      "channel": 1,
      "note": 57,
      "start": 35.3132,
      "duration": 0.1257,
      "velocity": 111,
      "chip": "ym2612"
    },
    {
      "channel": 4,
      "note": 62,
      "start": 35.3153,
      "duration": 0.1239,
      "velocity": 111,
      "chip": "ym2612"
    },
    {
      "channel": 0,
      "note": 66,
      "start": 35.3181,
      "duration": 0.1207,
      "velocity": 111,
      "chip": "ym2612"
    },
    {
      "channel": 3,
      "note": 57,
      "start": 35.442,
      "duration": 0.1448,
      "velocity": 93,
      "chip": "ym2612"
    },
    {
      "channel": 1,
      "note": 61,
      "start": 35.4444,
      "duration": 0.1422,
      "velocity": 111,
      "chip": "ym2612"
    },
    {
      "channel": 4,
      "note": 64,
      "start": 35.447,
      "duration": 0.1398,
      "velocity": 111,
      "chip": "ym2612"
    },
    {
      "channel": 0,
      "note": 69,
      "start": 35.4495,
      "duration": 0.137,
      "velocity": 111,
      "chip": "ym2612"
    },
    {
      "channel": 3,
      "note": 57,
      "start": 35.5897,
      "duration": 0.1304,
      "velocity": 93,
      "chip": "ym2612"
    },
    {
      "channel": 1,
      "note": 61,
      "start": 35.5921,
      "duration": 0.1278,
      "velocity": 111,
      "chip": "ym2612"
    },
    {
      "channel": 4,
      "note": 64,
      "start": 35.5947,
      "duration": 0.1254,
      "velocity": 111,
      "chip": "ym2612"
    },
    {
      "channel": 0,
      "note": 69,
      "start": 35.5971,
      "duration": 0.1227,
      "velocity": 111,
      "chip": "ym2612"
    },
    {
      "channel": 3,
      "note": 57,
      "start": 35.7227,
      "duration": 0.0708,
      "velocity": 93,
      "chip": "ym2612"
    },
    {
      "channel": 1,
      "note": 61,
      "start": 35.7248,
      "duration": 0.0686,
      "velocity": 111,
      "chip": "ym2612"
    },
    {
      "channel": 4,
      "note": 64,
      "start": 35.7272,
      "duration": 0.0663,
      "velocity": 111,
      "chip": "ym2612"
    },
    {
      "channel": 0,
      "note": 69,
      "start": 35.7292,
      "duration": 0.0641,
      "velocity": 111,
      "chip": "ym2612"
    },
    {
      "channel": 3,
      "note": 57,
      "start": 35.7957,
      "duration": 0.0648,
      "velocity": 93,
      "chip": "ym2612"
    },
    {
      "channel": 1,
      "note": 61,
      "start": 35.7978,
      "duration": 0.0627,
      "velocity": 111,
      "chip": "ym2612"
    },
    {
      "channel": 4,
      "note": 64,
      "start": 35.7999,
      "duration": 0.0606,
      "velocity": 111,
      "chip": "ym2612"
    },
    {
      "channel": 0,
      "note": 69,
      "start": 35.8029,
      "duration": 0.0574,
      "velocity": 111,
      "chip": "ym2612"
    },
    {
      "channel": 3,
      "note": 57,
      "start": 35.8625,
      "duration": 0.1281,
      "velocity": 93,
      "chip": "ym2612"
    },
    {
      "channel": 1,
      "note": 61,
      "start": 35.8645,
      "duration": 0.126,
      "velocity": 111,
      "chip": "ym2612"
    },
    {
      "channel": 4,
      "note": 64,
      "start": 35.8667,
      "duration": 0.1241,
      "velocity": 111,
      "chip": "ym2612"
    },
    {
      "channel": 0,
      "note": 69,
      "start": 35.8695,
      "duration": 0.1208,
      "velocity": 111,
      "chip": "ym2612"
    },
    {
      "channel": 3,
      "note": 57,
      "start": 35.9936,
      "duration": 0.1447,
      "velocity": 93,
      "chip": "ym2612"
    },
    {
      "channel": 1,
      "note": 61,
      "start": 35.996,
      "duration": 0.1422,
      "velocity": 111,
      "chip": "ym2612"
    },
    {
      "channel": 4,
      "note": 64,
      "start": 35.9992,
      "duration": 0.1392,
      "velocity": 111,
      "chip": "ym2612"
    },
    {
      "channel": 0,
      "note": 74,
      "start": 36.0012,
      "duration": 0.0624,
      "velocity": 111,
      "chip": "ym2612"
    },
    {
      "channel": 0,
      "note": 74,
      "start": 36.0662,
      "duration": 0.0718,
      "velocity": 111,
      "chip": "ym2612"
    },
    {
      "channel": 3,
      "note": 57,
      "start": 36.1412,
      "duration": 0.1471,
      "velocity": 93,
      "chip": "ym2612"
    },
    {
      "channel": 1,
      "note": 61,
      "start": 36.1436,
      "duration": 0.1445,
      "velocity": 111,
      "chip": "ym2612"
    },
    {
      "channel": 4,
      "note": 64,
      "start": 36.1463,
      "duration": 0.1421,
      "velocity": 111,
      "chip": "ym2612"
    },
    {
      "channel": 0,
      "note": 74,
      "start": 36.1483,
      "duration": 0.1396,
      "velocity": 111,
      "chip": "ym2612"
    },
    {
      "channel": 3,
      "note": 57,
      "start": 36.2914,
      "duration": 0.0701,
      "velocity": 93,
      "chip": "ym2612"
    },
    {
      "channel": 1,
      "note": 61,
      "start": 36.2935,
      "duration": 0.0678,
      "velocity": 111,
      "chip": "ym2612"
    },
    {
      "channel": 4,
      "note": 64,
      "start": 36.2959,
      "duration": 0.0657,
      "velocity": 111,
      "chip": "ym2612"
    },
    {
      "channel": 0,
      "note": 73,
      "start": 36.2979,
      "duration": 0.0634,
      "velocity": 111,
      "chip": "ym2612"
    },
    {
      "channel": 3,
      "note": 57,
      "start": 36.3637,
      "duration": 0.0585,
      "velocity": 93,
      "chip": "ym2612"
    },
    {
      "channel": 1,
      "note": 61,
      "start": 36.3657,
      "duration": 0.0564,
      "velocity": 111,
      "chip": "ym2612"
    },
    {
      "channel": 4,
      "note": 64,
      "start": 36.3679,
      "duration": 0.0544,
      "velocity": 111,
      "chip": "ym2612"
    },
    {
      "channel": 0,
      "note": 73,
      "start": 36.3708,
      "duration": 0.0512,
      "velocity": 111,
      "chip": "ym2612"
    },
    {
      "channel": 3,
      "note": 57,
      "start": 36.4253,
      "duration": 0.1173,
      "velocity": 93,
      "chip": "ym2612"
    },
    {
      "channel": 1,
      "note": 61,
      "start": 36.4274,
      "duration": 0.1151,
      "velocity": 111,
      "chip": "ym2612"
    },
    {
      "channel": 4,
      "note": 64,
      "start": 36.4295,
      "duration": 0.1133,
      "velocity": 111,
      "chip": "ym2612"
    },
    {
      "channel": 0,
      "note": 73,
      "start": 36.4314,
      "duration": 0.1109,
      "velocity": 111,
      "chip": "ym2612"
    },
    {
      "channel": 3,
      "note": 59,
      "start": 36.5456,
      "duration": 0.1437,
      "velocity": 93,
      "chip": "ym2612"
    },
    {
      "channel": 1,
      "note": 66,
      "start": 36.548,
      "duration": 0.1411,
      "velocity": 111,
      "chip": "ym2612"
    },
    {
      "channel": 4,
      "note": 71,
      "start": 36.5506,
      "duration": 0.1387,
      "velocity": 111,
      "chip": "ym2612"
    },
    {
      "channel": 0,
      "note": 74,
      "start": 36.553,
      "duration": 0.1359,
      "velocity": 111,
      "chip": "ym2612"
    },
    {
      "channel": 3,
      "note": 59,
      "start": 36.6922,
      "duration": 0.1469,
      "velocity": 93,
      "chip": "ym2612"
    },
    {
      "channel": 1,
      "note": 66,
      "start": 36.6946,
      "duration": 0.1444,
      "velocity": 111,
      "chip": "ym2612"
    },
    {
      "channel": 4,
      "note": 71,
      "start": 36.6973,
      "duration": 0.142,
      "velocity": 111,
      "chip": "ym2612"
    },
    {
      "channel": 0,
      "note": 74,
      "start": 36.6996,
      "duration": 0.1392,
      "velocity": 111,
      "chip": "ym2612"
    },
    {
      "channel": 3,
      "note": 59,
      "start": 36.8417,
      "duration": 0.0702,
      "velocity": 93,
      "chip": "ym2612"
    },
    {
      "channel": 1,
      "note": 66,
      "start": 36.8439,
      "duration": 0.068,
      "velocity": 111,
      "chip": "ym2612"
    },
    {
      "channel": 4,
      "note": 71,
      "start": 36.8462,
      "duration": 0.0658,
      "velocity": 111,
      "chip": "ym2612"
    },
    {
      "channel": 0,
      "note": 74,
      "start": 36.8483,
      "duration": 0.0635,
      "velocity": 111,
      "chip": "ym2612"
    },
    {
      "channel": 3,
      "note": 59,
      "start": 36.9141,
      "duration": 0.0638,
      "velocity": 93,
      "chip": "ym2612"
    },
    {
      "channel": 1,
      "note": 66,
      "start": 36.9161,
      "duration": 0.0617,
      "velocity": 111,
      "chip": "ym2612"
    },
    {
      "channel": 4,
      "note": 71,
      "start": 36.9183,
      "duration": 0.0596,
      "velocity": 111,
      "chip": "ym2612"
    },
    {
      "channel": 0,
      "note": 74,
      "start": 36.9216,
      "duration": 0.0561,
      "velocity": 111,
      "chip": "ym2612"
    },
    {
      "channel": 3,
      "note": 59,
      "start": 36.98,
      "duration": 0.1283,
      "velocity": 93,
      "chip": "ym2612"
    },
    {
      "channel": 1,
      "note": 66,
      "start": 36.9821,
      "duration": 0.1261,
      "velocity": 111,
      "chip": "ym2612"
    },
    {
      "channel": 4,
      "note": 71,
      "start": 36.9842,
      "duration": 0.1243,
      "velocity": 111,
      "chip": "ym2612"
    },
    {
      "channel": 0,
      "note": 74,
      "start": 36.987,
      "duration": 0.1211,
      "velocity": 111,
      "chip": "ym2612"
    },
    {
      "channel": 3,
      "note": 59,
      "start": 37.1113,
      "duration": 0.1273,
      "velocity": 93,
      "chip": "ym2612"
    },
    {
      "channel": 1,
      "note": 66,
      "start": 37.1142,
      "duration": 0.1242,
      "velocity": 111,
      "chip": "ym2612"
    },
    {
      "channel": 4,
      "note": 71,
      "start": 37.1169,
      "duration": 0.1218,
      "velocity": 111,
      "chip": "ym2612"
    },
    {
      "channel": 0,
      "note": 74,
      "start": 37.1192,
      "duration": 0.1191,
      "velocity": 111,
      "chip": "ym2612"
    },
    {
      "channel": 3,
      "note": 59,
      "start": 37.2415,
      "duration": 0.1471,
      "velocity": 93,
      "chip": "ym2612"
    },
    {
      "channel": 1,
      "note": 66,
      "start": 37.2439,
      "duration": 0.1445,
      "velocity": 111,
      "chip": "ym2612"
    },
    {
      "channel": 4,
      "note": 71,
      "start": 37.2466,
      "duration": 0.1421,
      "velocity": 111,
      "chip": "ym2612"
    },
    {
      "channel": 0,
      "note": 74,
      "start": 37.2489,
      "duration": 0.1394,
      "velocity": 111,
      "chip": "ym2612"
    },
    {
      "channel": 3,
      "note": 59,
      "start": 37.3912,
      "duration": 0.0698,
      "velocity": 93,
      "chip": "ym2612"
    },
    {
      "channel": 1,
      "note": 66,
      "start": 37.3933,
      "duration": 0.0675,
      "velocity": 111,
      "chip": "ym2612"
    },
    {
      "channel": 4,
      "note": 71,
      "start": 37.3956,
      "duration": 0.0654,
      "velocity": 111,
      "chip": "ym2612"
    },
    {
      "channel": 0,
      "note": 74,
      "start": 37.3977,
      "duration": 0.063,
      "velocity": 111,
      "chip": "ym2612"
    },
    {
      "channel": 3,
      "note": 59,
      "start": 37.4632,
      "duration": 0.0654,
      "velocity": 93,
      "chip": "ym2612"
    },
    {
      "channel": 1,
      "note": 66,
      "start": 37.4652,
      "duration": 0.0632,
      "velocity": 111,
      "chip": "ym2612"
    },
    {
      "channel": 4,
      "note": 71,
      "start": 37.4673,
      "duration": 0.0612,
      "velocity": 111,
      "chip": "ym2612"
    },
    {
      "channel": 0,
      "note": 74,
      "start": 37.4703,
      "duration": 0.0581,
      "velocity": 111,
      "chip": "ym2612"
    },
    {
      "channel": 3,
      "note": 59,
      "start": 37.5308,
      "duration": 0.1277,
      "velocity": 93,
      "chip": "ym2612"
    },
    {
      "channel": 1,
      "note": 66,
      "start": 37.5327,
      "duration": 0.1256,
      "velocity": 111,
      "chip": "ym2612"
    },
    {
      "channel": 4,
      "note": 71,
      "start": 37.535,
      "duration": 0.1237,
      "velocity": 111,
      "chip": "ym2612"
    },
    {
      "channel": 0,
      "note": 74,
      "start": 37.5381,
      "duration": 0.1201,
      "velocity": 111,
      "chip": "ym2612"
    },
    {
      "channel": 3,
      "note": 59,
      "start": 37.6615,
      "duration": 0.1447,
      "velocity": 93,
      "chip": "ym2612"
    },
    {
      "channel": 1,
      "note": 66,
      "start": 37.6639,
      "duration": 0.1422,
      "velocity": 111,
      "chip": "ym2612"
    },
    {
      "channel": 4,
      "note": 71,
      "start": 37.6665,
      "duration": 0.1398,
      "velocity": 111,
      "chip": "ym2612"
    },
    {
      "channel": 0,
      "note": 78,
      "start": 37.6689,
      "duration": 0.137,
      "velocity": 111,
      "chip": "ym2612"
    },
    {
      "channel": 3,
      "note": 59,
      "start": 37.8091,
      "duration": 0.1305,
      "velocity": 93,
      "chip": "ym2612"
    },
    {
      "channel": 1,
      "note": 66,
      "start": 37.8115,
      "duration": 0.128,
      "velocity": 111,
      "chip": "ym2612"
    },
    {
      "channel": 4,
      "note": 71,
      "start": 37.8142,
      "duration": 0.1256,
      "velocity": 111,
      "chip": "ym2612"
    },
    {
      "channel": 0,
      "note": 78,
      "start": 37.8165,
      "duration": 0.1228,
      "velocity": 111,
      "chip": "ym2612"
    },
    {
      "channel": 3,
      "note": 59,
      "start": 37.9422,
      "duration": 0.0699,
      "velocity": 93,
      "chip": "ym2612"
    },
    {
      "channel": 1,
      "note": 66,
      "start": 37.9444,
      "duration": 0.0677,
      "velocity": 111,
      "chip": "ym2612"
    },
    {
      "channel": 4,
      "note": 71,
      "start": 37.9472,
      "duration": 0.065,
      "velocity": 111,
      "chip": "ym2612"
    },
    {
      "channel": 0,
      "note": 78,
      "start": 37.9493,
      "duration": 0.0627,
      "velocity": 111,
      "chip": "ym2612"
    },
    {
      "channel": 3,
      "note": 59,
      "start": 38.0144,
      "duration": 0.0649,
      "velocity": 93,
      "chip": "ym2612"
    },
    {
      "channel": 1,
      "note": 66,
      "start": 38.0164,
      "duration": 0.0628,
      "velocity": 111,
      "chip": "ym2612"
    },
    {
      "channel": 4,
      "note": 71,
      "start": 38.0186,
      "duration": 0.0607,
      "velocity": 111,
      "chip": "ym2612"
    },
    {
      "channel": 0,
      "note": 78,
      "start": 38.0206,
      "duration": 0.0585,
      "velocity": 111,
      "chip": "ym2612"
    },
    {
      "channel": 3,
      "note": 59,
      "start": 38.0813,
      "duration": 0.1278,
      "velocity": 93,
      "chip": "ym2612"
    },
    {
      "channel": 1,
      "note": 66,
      "start": 38.0833,
      "duration": 0.1256,
      "velocity": 111,
      "chip": "ym2612"
    },
    {
      "channel": 4,
      "note": 71,
      "start": 38.0854,
      "duration": 0.1238,
      "velocity": 111,
      "chip": "ym2612"
    },
    {
      "channel": 0,
      "note": 78,
      "start": 38.0883,
      "duration": 0.1206,
      "velocity": 111,
      "chip": "ym2612"
    },
    {
      "channel": 3,
      "note": 59,
      "start": 38.2126,
      "duration": 0.1436,
      "velocity": 93,
      "chip": "ym2612"
    },
    {
      "channel": 1,
      "note": 66,
      "start": 38.215,
      "duration": 0.1411,
      "velocity": 111,
      "chip": "ym2612"
    },
    {
      "channel": 4,
      "note": 71,
      "start": 38.2177,
      "duration": 0.1387,
      "velocity": 111,
      "chip": "ym2612"
    },
    {
      "channel": 0,
      "note": 78,
      "start": 38.22,
      "duration": 0.1359,
      "velocity": 111,
      "chip": "ym2612"
    },
    {
      "channel": 3,
      "note": 59,
      "start": 38.3591,
      "duration": 0.1471,
      "velocity": 93,
      "chip": "ym2612"
    },
    {
      "channel": 1,
      "note": 66,
      "start": 38.3616,
      "duration": 0.1446,
      "velocity": 111,
      "chip": "ym2612"
    },
    {
      "channel": 4,
      "note": 71,
      "start": 38.3642,
      "duration": 0.1422,
      "velocity": 111,
      "chip": "ym2612"
    },
    {
      "channel": 0,
      "note": 78,
      "start": 38.3666,
      "duration": 0.1393,
      "velocity": 111,
      "chip": "ym2612"
    },
    {
      "channel": 3,
      "note": 59,
      "start": 38.5089,
      "duration": 0.0706,
      "velocity": 93,
      "chip": "ym2612"
    },
    {
      "channel": 1,
      "note": 66,
      "start": 38.511,
      "duration": 0.0684,
      "velocity": 111,
      "chip": "ym2612"
    },
    {
      "channel": 4,
      "note": 71,
      "start": 38.5133,
      "duration": 0.0662,
      "velocity": 111,
      "chip": "ym2612"
    },
    {
      "channel": 0,
      "note": 78,
      "start": 38.5154,
      "duration": 0.0639,
      "velocity": 111,
      "chip": "ym2612"
    },
    {
      "channel": 3,
      "note": 59,
      "start": 38.5817,
      "duration": 0.0654,
      "velocity": 93,
      "chip": "ym2612"
    },
    {
      "channel": 1,
      "note": 66,
      "start": 38.5838,
      "duration": 0.0633,
      "velocity": 111,
      "chip": "ym2612"
    },
    {
      "channel": 4,
      "note": 71,
      "start": 38.5859,
      "duration": 0.0613,
      "velocity": 111,
      "chip": "ym2612"
    },
    {
      "channel": 0,
      "note": 76,
      "start": 38.5889,
      "duration": 0.0581,
      "velocity": 111,
      "chip": "ym2612"
    },
    {
      "channel": 3,
      "note": 59,
      "start": 38.6492,
      "duration": 0.1114,
      "velocity": 93,
      "chip": "ym2612"
    },
    {
      "channel": 1,
      "note": 66,
      "start": 38.6512,
      "duration": 0.1092,
      "velocity": 111,
      "chip": "ym2612"
    },
    {
      "channel": 4,
      "note": 71,
      "start": 38.6533,
      "duration": 0.1073,
      "velocity": 111,
      "chip": "ym2612"
    },
    {
      "channel": 0,
      "note": 74,
      "start": 38.6561,
      "duration": 0.1041,
      "velocity": 111,
      "chip": "ym2612"
    },
    {
      "channel": 3,
      "note": 55,
      "start": 38.7634,
      "duration": 0.1438,
      "velocity": 93,
      "chip": "ym2612"
    },
    {
      "channel": 1,
      "note": 62,
      "start": 38.7659,
      "duration": 0.1411,
      "velocity": 111,
      "chip": "ym2612"
    },
    {
      "channel": 4,
      "note": 67,
      "start": 38.7685,
      "duration": 0.1388,
      "velocity": 111,
      "chip": "ym2612"
    },
    {
      "channel": 0,
      "note": 71,
      "start": 38.7709,
      "duration": 0.136,
      "velocity": 111,
      "chip": "ym2612"
    },
    {
      "channel": 3,
      "note": 55,
      "start": 38.91,
      "duration": 0.1471,
      "velocity": 93,
      "chip": "ym2612"
    },
    {
      "channel": 1,
      "note": 62,
      "start": 38.9125,
      "duration": 0.1445,
      "velocity": 111,
      "chip": "ym2612"
    },
    {
      "channel": 4,
      "note": 67,
      "start": 38.9152,
      "duration": 0.1421,
      "velocity": 111,
      "chip": "ym2612"
    },
    {
      "channel": 0,
      "note": 71,
      "start": 38.9181,
      "duration": 0.1388,
      "velocity": 111,
      "chip": "ym2612"
    },
    {
      "channel": 3,
      "note": 55,
      "start": 39.0598,
      "duration": 0.0701,
      "velocity": 93,
      "chip": "ym2612"
    },
    {
      "channel": 1,
      "note": 62,
      "start": 39.062,
      "duration": 0.0679,
      "velocity": 111,
      "chip": "ym2612"
    },
    {
      "channel": 4,
      "note": 67,
      "start": 39.0643,
      "duration": 0.0657,
      "velocity": 111,
      "chip": "ym2612"
    },
    {
      "channel": 0,
      "note": 71,
      "start": 39.0663,
      "duration": 0.0634,
      "velocity": 111,
      "chip": "ym2612"
    },
    {
      "channel": 3,
      "note": 55,
      "start": 39.1321,
      "duration": 0.0651,
      "velocity": 93,
      "chip": "ym2612"
    },
    {
      "channel": 1,
      "note": 62,
      "start": 39.1345,
      "duration": 0.0627,
      "velocity": 111,
      "chip": "ym2612"
    },
    {
      "channel": 4,
      "note": 67,
      "start": 39.1366,
      "duration": 0.0606,
      "velocity": 111,
      "chip": "ym2612"
    },
    {
      "channel": 0,
      "note": 71,
      "start": 39.1398,
      "duration": 0.0573,
      "velocity": 111,
      "chip": "ym2612"
    },
    {
      "channel": 3,
      "note": 55,
      "start": 39.1994,
      "duration": 0.1275,
      "velocity": 93,
      "chip": "ym2612"
    },
    {
      "channel": 1,
      "note": 62,
      "start": 39.2014,
      "duration": 0.1254,
      "velocity": 111,
      "chip": "ym2612"
    },
    {
      "channel": 4,
      "note": 67,
      "start": 39.2034,
      "duration": 0.1236,
      "velocity": 111,
      "chip": "ym2612"
    },
    {
      "channel": 0,
      "note": 71,
      "start": 39.2062,
      "duration": 0.1204,
      "velocity": 111,
      "chip": "ym2612"
    },
    {
      "channel": 3,
      "note": 55,
      "start": 39.3298,
      "duration": 0.1284,
      "velocity": 93,
      "chip": "ym2612"
    },
    {
      "channel": 1,
      "note": 62,
      "start": 39.3322,
      "duration": 0.1258,
      "velocity": 111,
      "chip": "ym2612"
    },
    {
      "channel": 4,
      "note": 67,
      "start": 39.3349,
      "duration": 0.1234,
      "velocity": 111,
      "chip": "ym2612"
    },
    {
      "channel": 0,
      "note": 71,
      "start": 39.3373,
      "duration": 0.1206,
      "velocity": 111,
      "chip": "ym2612"
    },
    {
      "channel": 3,
      "note": 55,
      "start": 39.461,
      "duration": 0.1472,
      "velocity": 93,
      "chip": "ym2612"
    },
    {
      "channel": 1,
      "note": 62,
      "start": 39.4635,
      "duration": 0.1445,
      "velocity": 111,
      "chip": "ym2612"
    },
    {
      "channel": 4,
      "note": 67,
      "start": 39.4662,
      "duration": 0.1422,
      "velocity": 111,
      "chip": "ym2612"
    },
    {
      "channel": 0,
      "note": 71,
      "start": 39.4685,
      "duration": 0.1394,
      "velocity": 111,
      "chip": "ym2612"
    },
    {
      "channel": 3,
      "note": 55,
      "start": 39.6109,
      "duration": 0.0694,
      "velocity": 93,
      "chip": "ym2612"
    },
    {
      "channel": 1,
      "note": 62,
      "start": 39.613,
      "duration": 0.0672,
      "velocity": 111,
      "chip": "ym2612"
    },
    {
      "channel": 4,
      "note": 67,
      "start": 39.6154,
      "duration": 0.065,
      "velocity": 111,
      "chip": "ym2612"
    },
    {
      "channel": 0,
      "note": 71,
      "start": 39.6174,
      "duration": 0.0627,
      "velocity": 111,
      "chip": "ym2612"
    },
    {
      "channel": 3,
      "note": 55,
      "start": 39.6825,
      "duration": 0.0641,
      "velocity": 93,
      "chip": "ym2612"
    },
    {
      "channel": 1,
      "note": 62,
      "start": 39.6845,
      "duration": 0.0621,
      "velocity": 111,
      "chip": "ym2612"
    },
    {
      "channel": 4,
      "note": 67,
      "start": 39.6867,
      "duration": 0.06,
      "velocity": 111,
      "chip": "ym2612"
    },
    {
      "channel": 0,
      "note": 71,
      "start": 39.6897,
      "duration": 0.0569,
      "velocity": 111,
      "chip": "ym2612"
    },
    {
      "channel": 3,
      "note": 55,
      "start": 39.7489,
      "duration": 0.1276,
      "velocity": 93,
      "chip": "ym2612"
    },
    {
      "channel": 1,
      "note": 62,
      "start": 39.7509,
      "duration": 0.1255,
      "velocity": 111,
      "chip": "ym2612"
    },
    {
      "channel": 4,
      "note": 67,
      "start": 39.7529,
      "duration": 0.1237,
      "velocity": 111,
      "chip": "ym2612"
    },
    {
      "channel": 0,
      "note": 71,
      "start": 39.7557,
      "duration": 0.1205,
      "velocity": 111,
      "chip": "ym2612"
    },
    {
      "channel": 3,
      "note": 55,
      "start": 39.8794,
      "duration": 0.1447,
      "velocity": 93,
      "chip": "ym2612"
    },
    {
      "channel": 1,
      "note": 62,
      "start": 39.8818,
      "duration": 0.1422,
      "velocity": 111,
      "chip": "ym2612"
    },
    {
      "channel": 4,
      "note": 67,
      "start": 39.885,
      "duration": 0.1392,
      "velocity": 111,
      "chip": "ym2612"
    },
    {
      "channel": 0,
      "note": 74,
      "start": 39.8873,
      "duration": 0.1364,
      "velocity": 111,
      "chip": "ym2612"
    },
    {
      "channel": 3,
      "note": 55,
      "start": 40.0269,
      "duration": 0.147,
      "velocity": 93,
      "chip": "ym2612"
    },
    {
      "channel": 1,
      "note": 62,
      "start": 40.0294,
      "duration": 0.1444,
      "velocity": 111,
      "chip": "ym2612"
    },
    {
      "channel": 4,
      "note": 67,
      "start": 40.0321,
      "duration": 0.1421,
      "velocity": 111,
      "chip": "ym2612"
    },
    {
      "channel": 0,
      "note": 74,
      "start": 40.0344,
      "duration": 0.1393,
      "velocity": 111,
      "chip": "ym2612"
    },
    {
      "channel": 3,
      "note": 55,
      "start": 40.1766,
      "duration": 0.0629,
      "velocity": 93,
      "chip": "ym2612"
    },
    {
      "channel": 1,
      "note": 62,
      "start": 40.1788,
      "duration": 0.0607,
      "velocity": 111,
      "chip": "ym2612"
    },
    {
      "channel": 4,
      "note": 67,
      "start": 40.1811,
      "duration": 0.0585,
      "velocity": 111,
      "chip": "ym2612"
    },
    {
      "channel": 0,
      "note": 74,
      "start": 40.1832,
      "duration": 0.0562,
      "velocity": 111,
      "chip": "ym2612"
    },
    {
      "channel": 3,
      "note": 55,
      "start": 40.2433,
      "duration": 0.0641,
      "velocity": 93,
      "chip": "ym2612"
    },
    {
      "channel": 1,
      "note": 62,
      "start": 40.2454,
      "duration": 0.062,
      "velocity": 111,
      "chip": "ym2612"
    },
    {
      "channel": 4,
      "note": 67,
      "start": 40.2475,
      "duration": 0.06,
      "velocity": 111,
      "chip": "ym2612"
    },
    {
      "channel": 0,
      "note": 74,
      "start": 40.2495,
      "duration": 0.0578,
      "velocity": 111,
      "chip": "ym2612"
    },
    {
      "channel": 3,
      "note": 55,
      "start": 40.3106,
      "duration": 0.1172,
      "velocity": 93,
      "chip": "ym2612"
    },
    {
      "channel": 1,
      "note": 62,
      "start": 40.3127,
      "duration": 0.1151,
      "velocity": 111,
      "chip": "ym2612"
    },
    {
      "channel": 4,
      "note": 66,
      "start": 40.3147,
      "duration": 0.1134,
      "velocity": 111,
      "chip": "ym2612"
    },
    {
      "channel": 0,
      "note": 73,
      "start": 40.3166,
      "duration": 0.111,
      "velocity": 111,
      "chip": "ym2612"
    },
    {
      "channel": 3,
      "note": 55,
      "start": 40.4308,
      "duration": 0.1446,
      "velocity": 93,
      "chip": "ym2612"
    },
    {
      "channel": 1,
      "note": 62,
      "start": 40.4333,
      "duration": 0.142,
      "velocity": 111,
      "chip": "ym2612"
    },
    {
      "channel": 4,
      "note": 67,
      "start": 40.4359,
      "duration": 0.1396,
      "velocity": 111,
      "chip": "ym2612"
    },
    {
      "channel": 0,
      "note": 74,
      "start": 40.4383,
      "duration": 0.1368,
      "velocity": 111,
      "chip": "ym2612"
    },
    {
      "channel": 3,
      "note": 55,
      "start": 40.5782,
      "duration": 0.1471,
      "velocity": 93,
      "chip": "ym2612"
    },
    {
      "channel": 1,
      "note": 62,
      "start": 40.5807,
      "duration": 0.1445,
      "velocity": 111,
      "chip": "ym2612"
    },
    {
      "channel": 4,
      "note": 67,
      "start": 40.5834,
      "duration": 0.1421,
      "velocity": 111,
      "chip": "ym2612"
    },
    {
      "channel": 0,
      "note": 74,
      "start": 40.5857,
      "duration": 0.1394,
      "velocity": 111,
      "chip": "ym2612"
    },
    {
      "channel": 3,
      "note": 55,
      "start": 40.728,
      "duration": 0.0705,
      "velocity": 93,
      "chip": "ym2612"
    },
    {
      "channel": 1,
      "note": 62,
      "start": 40.7301,
      "duration": 0.0682,
      "velocity": 111,
      "chip": "ym2612"
    },
    {
      "channel": 4,
      "note": 67,
      "start": 40.7325,
      "duration": 0.066,
      "velocity": 111,
      "chip": "ym2612"
    },
    {
      "channel": 0,
      "note": 74,
      "start": 40.7346,
      "duration": 0.0637,
      "velocity": 111,
      "chip": "ym2612"
    },
    {
      "channel": 3,
      "note": 55,
      "start": 40.8006,
      "duration": 0.0649,
      "velocity": 93,
      "chip": "ym2612"
    },
    {
      "channel": 1,
      "note": 62,
      "start": 40.8026,
      "duration": 0.0629,
      "velocity": 111,
      "chip": "ym2612"
    },
    {
      "channel": 4,
      "note": 67,
      "start": 40.8048,
      "duration": 0.0608,
      "velocity": 111,
      "chip": "ym2612"
    },
    {
      "channel": 0,
      "note": 74,
      "start": 40.8077,
      "duration": 0.0577,
      "velocity": 111,
      "chip": "ym2612"
    },
    {
      "channel": 3,
      "note": 55,
      "start": 40.8677,
      "duration": 0.1116,
      "velocity": 93,
      "chip": "ym2612"
    },
    {
      "channel": 1,
      "note": 62,
      "start": 40.8697,
      "duration": 0.1095,
      "velocity": 111,
      "chip": "ym2612"
    },
    {
      "channel": 4,
      "note": 67,
      "start": 40.8718,
      "duration": 0.1077,
      "velocity": 111,
      "chip": "ym2612"
    },
    {
      "channel": 0,
      "note": 74,
      "start": 40.8751,
      "duration": 0.1039,
      "velocity": 111,
      "chip": "ym2612"
    },
    {
      "channel": 3,
      "note": 54,
      "start": 40.9822,
      "duration": 0.1437,
      "velocity": 93,
      "chip": "ym2612"
    },
    {
      "channel": 1,
      "note": 61,
      "start": 40.9846,
      "duration": 0.141,
      "velocity": 111,
      "chip": "ym2612"
    },
    {
      "channel": 4,
      "note": 66,
      "start": 40.9873,
      "duration": 0.1386,
      "velocity": 111,
      "chip": "ym2612"
    },
    {
      "channel": 0,
      "note": 73,
      "start": 40.9897,
      "duration": 0.1359,
      "velocity": 111,
      "chip": "ym2612"
    },
    {
      "channel": 3,
      "note": 54,
      "start": 41.1287,
      "duration": 0.1471,
      "velocity": 93,
      "chip": "ym2612"
    },
    {
      "channel": 1,
      "note": 61,
      "start": 41.1317,
      "duration": 0.144,
      "velocity": 111,
      "chip": "ym2612"
    },
    {
      "channel": 4,
      "note": 66,
      "start": 41.1344,
      "duration": 0.1416,
      "velocity": 111,
      "chip": "ym2612"
    },
    {
      "channel": 0,
      "note": 73,
      "start": 41.1367,
      "duration": 0.1388,
      "velocity": 111,
      "chip": "ym2612"
    },
    {
      "channel": 3,
      "note": 54,
      "start": 41.2784,
      "duration": 0.0695,
      "velocity": 93,
      "chip": "ym2612"
    },
    {
      "channel": 1,
      "note": 61,
      "start": 41.2806,
      "duration": 0.0673,
      "velocity": 111,
      "chip": "ym2612"
    },
    {
      "channel": 4,
      "note": 66,
      "start": 41.2829,
      "duration": 0.0651,
      "velocity": 111,
      "chip": "ym2612"
    },
    {
      "channel": 0,
      "note": 73,
      "start": 41.285,
      "duration": 0.0628,
      "velocity": 111,
      "chip": "ym2612"
    },
    {
      "channel": 3,
      "note": 54,
      "start": 41.3501,
      "duration": 0.0649,
      "velocity": 93,
      "chip": "ym2612"
    },
    {
      "channel": 1,
      "note": 61,
      "start": 41.3521,
      "duration": 0.0628,
      "velocity": 111,
      "chip": "ym2612"
    },
    {
      "channel": 4,
      "note": 66,
      "start": 41.3543,
      "duration": 0.0607,
      "velocity": 111,
      "chip": "ym2612"
    },
    {
      "channel": 0,
      "note": 73,
      "start": 41.3573,
      "duration": 0.0577,
      "velocity": 111,
      "chip": "ym2612"
    },
    {
      "channel": 3,
      "note": 54,
      "start": 41.4172,
      "duration": 0.1279,
      "velocity": 93,
      "chip": "ym2612"
    },
    {
      "channel": 1,
      "note": 61,
      "start": 41.4192,
      "duration": 0.1258,
      "velocity": 111,
      "chip": "ym2612"
    },
    {
      "channel": 4,
      "note": 66,
      "start": 41.4213,
      "duration": 0.124,
      "velocity": 111,
      "chip": "ym2612"
    },
    {
      "channel": 0,
      "note": 73,
      "start": 41.4241,
      "duration": 0.1207,
      "velocity": 111,
      "chip": "ym2612"
    },
    {
      "channel": 3,
      "note": 54,
      "start": 41.548,
      "duration": 0.1449,
      "velocity": 93,
      "chip": "ym2612"
    },
    {
      "channel": 1,
      "note": 61,
      "start": 41.5505,
      "duration": 0.1423,
      "velocity": 111,
      "chip": "ym2612"
    },
    {
      "channel": 4,
      "note": 66,
      "start": 41.5532,
      "duration": 0.1399,
      "velocity": 111,
      "chip": "ym2612"
    },
    {
      "channel": 0,
      "note": 71,
      "start": 41.5555,
      "duration": 0.1372,
      "velocity": 111,
      "chip": "ym2612"
    },
    {
      "channel": 3,
      "note": 54,
      "start": 41.6959,
      "duration": 0.1303,
      "velocity": 93,
      "chip": "ym2612"
    },
    {
      "channel": 1,
      "note": 61,
      "start": 41.6983,
      "duration": 0.1278,
      "velocity": 111,
      "chip": "ym2612"
    },
    {
      "channel": 4,
      "note": 66,
      "start": 41.7009,
      "duration": 0.1255,
      "velocity": 111,
      "chip": "ym2612"
    },
    {
      "channel": 0,
      "note": 71,
      "start": 41.7033,
      "duration": 0.1227,
      "velocity": 111,
      "chip": "ym2612"
    },
    {
      "channel": 3,
      "note": 54,
      "start": 41.8289,
      "duration": 0.0695,
      "velocity": 93,
      "chip": "ym2612"
    },
    {
      "channel": 1,
      "note": 61,
      "start": 41.831,
      "duration": 0.0673,
      "velocity": 111,
      "chip": "ym2612"
    },
    {
      "channel": 4,
      "note": 66,
      "start": 41.8334,
      "duration": 0.065,
      "velocity": 111,
      "chip": "ym2612"
    },
    {
      "channel": 0,
      "note": 71,
      "start": 41.8354,
      "duration": 0.0627,
      "velocity": 111,
      "chip": "ym2612"
    },
    {
      "channel": 3,
      "note": 54,
      "start": 41.9005,
      "duration": 0.0643,
      "velocity": 93,
      "chip": "ym2612"
    },
    {
      "channel": 1,
      "note": 61,
      "start": 41.9025,
      "duration": 0.0622,
      "velocity": 111,
      "chip": "ym2612"
    },
    {
      "channel": 4,
      "note": 66,
      "start": 41.9052,
      "duration": 0.0597,
      "velocity": 111,
      "chip": "ym2612"
    },
    {
      "channel": 0,
      "note": 73,
      "start": 41.9082,
      "duration": 0.0565,
      "velocity": 111,
      "chip": "ym2612"
    },
    {
      "channel": 3,
      "note": 54,
      "start": 41.967,
      "duration": 0.128,
      "velocity": 93,
      "chip": "ym2612"
    },
    {
      "channel": 1,
      "note": 61,
      "start": 41.969,
      "duration": 0.1258,
      "velocity": 111,
      "chip": "ym2612"
    },
    {
      "channel": 4,
      "note": 66,
      "start": 41.971,
      "duration": 0.1241,
      "velocity": 111,
      "chip": "ym2612"
    },
    {
      "channel": 0,
      "note": 71,
      "start": 41.9739,
      "duration": 0.1208,
      "velocity": 111,
      "chip": "ym2612"
    },
    {
      "channel": 3,
      "note": 54,
      "start": 42.0978,
      "duration": 0.1447,
      "velocity": 93,
      "chip": "ym2612"
    },
    {
      "channel": 1,
      "note": 61,
      "start": 42.1003,
      "duration": 0.1421,
      "velocity": 111,
      "chip": "ym2612"
    },
    {
      "channel": 4,
      "note": 66,
      "start": 42.103,
      "duration": 0.1397,
      "velocity": 111,
      "chip": "ym2612"
    },
    {
      "channel": 0,
      "note": 70,
      "start": 42.1054,
      "duration": 0.1369,
      "velocity": 111,
      "chip": "ym2612"
    },
    {
      "channel": 3,
      "note": 54,
      "start": 42.246,
      "duration": 0.1466,
      "velocity": 93,
      "chip": "ym2612"
    },
    {
      "channel": 1,
      "note": 61,
      "start": 42.2484,
      "duration": 0.144,
      "velocity": 111,
      "chip": "ym2612"
    },
    {
      "channel": 4,
      "note": 66,
      "start": 42.2511,
      "duration": 0.1416,
      "velocity": 111,
      "chip": "ym2612"
    },
    {
      "channel": 0,
      "note": 70,
      "start": 42.2535,
      "duration": 0.1388,
      "velocity": 111,
      "chip": "ym2612"
    },
    {
      "channel": 3,
      "note": 54,
      "start": 42.3951,
      "duration": 0.0704,
      "velocity": 93,
      "chip": "ym2612"
    },
    {
      "channel": 1,
      "note": 61,
      "start": 42.3973,
      "duration": 0.0682,
      "velocity": 111,
      "chip": "ym2612"
    },
    {
      "channel": 4,
      "note": 66,
      "start": 42.3997,
      "duration": 0.066,
      "velocity": 111,
      "chip": "ym2612"
    },
    {
      "channel": 0,
      "note": 70,
      "start": 42.4018,
      "duration": 0.0636,
      "velocity": 111,
      "chip": "ym2612"
    },
    {
      "channel": 3,
      "note": 54,
      "start": 42.4677,
      "duration": 0.058,
      "velocity": 93,
      "chip": "ym2612"
    },
    {
      "channel": 1,
      "note": 61,
      "start": 42.4698,
      "duration": 0.0559,
      "velocity": 111,
      "chip": "ym2612"
    },
    {
      "channel": 4,
      "note": 66,
      "start": 42.472,
      "duration": 0.0539,
      "velocity": 111,
      "chip": "ym2612"
    },
    {
      "channel": 0,
      "note": 70,
      "start": 42.4749,
      "duration": 0.0507,
      "velocity": 111,
      "chip": "ym2612"
    },
    {
      "channel": 3,
      "note": 54,
      "start": 42.529,
      "duration": 0.1169,
      "velocity": 93,
      "chip": "ym2612"
    },
    {
      "channel": 1,
      "note": 59,
      "start": 42.531,
      "duration": 0.1148,
      "velocity": 111,
      "chip": "ym2612"
    },
    {
      "channel": 4,
      "note": 64,
      "start": 42.533,
      "duration": 0.1131,
      "velocity": 111,
      "chip": "ym2612"
    },
    {
      "channel": 0,
      "note": 68,
      "start": 42.5349,
      "duration": 0.1107,
      "velocity": 111,
      "chip": "ym2612"
    },
    {
      "channel": 3,
      "note": 54,
      "start": 42.6488,
      "duration": 0.1442,
      "velocity": 93,
      "chip": "ym2612"
    },
    {
      "channel": 1,
      "note": 61,
      "start": 42.6513,
      "duration": 0.1416,
      "velocity": 111,
      "chip": "ym2612"
    },
    {
      "channel": 4,
      "note": 66,
      "start": 42.654,
      "duration": 0.1392,
      "velocity": 111,
      "chip": "ym2612"
    },
    {
      "channel": 0,
      "note": 70,
      "start": 42.6563,
      "duration": 0.1364,
      "velocity": 111,
      "chip": "ym2612"
    },
    {
      "channel": 3,
      "note": 54,
      "start": 42.7959,
      "duration": 0.1471,
      "velocity": 93,
      "chip": "ym2612"
    },
    {
      "channel": 1,
      "note": 61,
      "start": 42.7984,
      "duration": 0.1445,
      "velocity": 111,
      "chip": "ym2612"
    },
    {
      "channel": 4,
      "note": 66,
      "start": 42.8011,
      "duration": 0.1421,
      "velocity": 111,
      "chip": "ym2612"
    },
    {
      "channel": 0,
      "note": 70,
      "start": 42.804,
      "duration": 0.1388,
      "velocity": 111,
      "chip": "ym2612"
    },
    {
      "channel": 3,
      "note": 54,
      "start": 42.9456,
      "duration": 0.0703,
      "velocity": 93,
      "chip": "ym2612"
    },
    {
      "channel": 1,
      "note": 61,
      "start": 42.9478,
      "duration": 0.068,
      "velocity": 111,
      "chip": "ym2612"
    },
    {
      "channel": 4,
      "note": 66,
      "start": 42.9501,
      "duration": 0.0658,
      "velocity": 111,
      "chip": "ym2612"
    },
    {
      "channel": 0,
      "note": 71,
      "start": 42.9522,
      "duration": 0.0635,
      "velocity": 111,
      "chip": "ym2612"
    },
    {
      "channel": 3,
      "note": 54,
      "start": 43.018,
      "duration": 0.0649,
      "velocity": 93,
      "chip": "ym2612"
    },
    {
      "channel": 1,
      "note": 61,
      "start": 43.0201,
      "duration": 0.0628,
      "velocity": 111,
      "chip": "ym2612"
    },
    {
      "channel": 4,
      "note": 66,
      "start": 43.0223,
      "duration": 0.0607,
      "velocity": 111,
      "chip": "ym2612"
    },
    {
      "channel": 0,
      "note": 71,
      "start": 43.0252,
      "duration": 0.0576,
      "velocity": 111,
      "chip": "ym2612"
    },
    {
      "channel": 3,
      "note": 54,
      "start": 43.0851,
      "duration": 0.1278,
      "velocity": 93,
      "chip": "ym2612"
    },
    {
      "channel": 1,
      "note": 61,
      "start": 43.0875,
      "duration": 0.1254,
      "velocity": 111,
      "chip": "ym2612"
    },
    {
      "channel": 4,
      "note": 66,
      "start": 43.0895,
      "duration": 0.1236,
      "velocity": 111,
      "chip": "ym2612"
    },
    {
      "channel": 0,
      "note": 70,
      "start": 43.0924,
      "duration": 0.1204,
      "velocity": 111,
      "chip": "ym2612"
    },
    {
      "channel": 3,
      "note": 50,
      "start": 43.2159,
      "duration": 0.1281,
      "velocity": 93,
      "chip": "ym2612"
    },
    {
      "channel": 1,
      "note": 57,
      "start": 43.2183,
      "duration": 0.1255,
      "velocity": 111,
      "chip": "ym2612"
    },
    {
      "channel": 4,
      "note": 62,
      "start": 43.221,
      "duration": 0.1231,
      "velocity": 111,
      "chip": "ym2612"
    },
    {
      "channel": 0,
      "note": 66,
      "start": 43.2234,
      "duration": 0.1203,
      "velocity": 111,
      "chip": "ym2612"
    },
    {
      "channel": 3,
      "note": 50,
      "start": 43.3469,
      "duration": 0.1471,
      "velocity": 93,
      "chip": "ym2612"
    },
    {
      "channel": 1,
      "note": 57,
      "start": 43.3493,
      "duration": 0.1446,
      "velocity": 111,
      "chip": "ym2612"
    },
    {
      "channel": 4,
      "note": 62,
      "start": 43.352,
      "duration": 0.1422,
      "velocity": 111,
      "chip": "ym2612"
    },
    {
      "channel": 0,
      "note": 66,
      "start": 43.3544,
      "duration": 0.1393,
      "velocity": 111,
      "chip": "ym2612"
    },
    {
      "channel": 3,
      "note": 50,
      "start": 43.4966,
      "duration": 0.0706,
      "velocity": 93,
      "chip": "ym2612"
    },
    {
      "channel": 1,
      "note": 57,
      "start": 43.4988,
      "duration": 0.0684,
      "velocity": 111,
      "chip": "ym2612"
    },
    {
      "channel": 4,
      "note": 62,
      "start": 43.5012,
      "duration": 0.0662,
      "velocity": 111,
      "chip": "ym2612"
    },
    {
      "channel": 0,
      "note": 66,
      "start": 43.5033,
      "duration": 0.0639,
      "velocity": 111,
      "chip": "ym2612"
    },
    {
      "channel": 3,
      "note": 50,
      "start": 43.5695,
      "duration": 0.0648,
      "velocity": 93,
      "chip": "ym2612"
    },
    {
      "channel": 1,
      "note": 57,
      "start": 43.5715,
      "duration": 0.0627,
      "velocity": 111,
      "chip": "ym2612"
    },
    {
      "channel": 4,
      "note": 62,
      "start": 43.5737,
      "duration": 0.0606,
      "velocity": 111,
      "chip": "ym2612"
    },
    {
      "channel": 0,
      "note": 66,
      "start": 43.5766,
      "duration": 0.0575,
      "velocity": 111,
      "chip": "ym2612"
    },
    {
      "channel": 3,
      "note": 50,
      "start": 43.6364,
      "duration": 0.1281,
      "velocity": 93,
      "chip": "ym2612"
    },
    {
      "channel": 1,
      "note": 57,
      "start": 43.6384,
      "duration": 0.1259,
      "velocity": 111,
      "chip": "ym2612"
    },
    {
      "channel": 4,
      "note": 62,
      "start": 43.6405,
      "duration": 0.1241,
      "velocity": 111,
      "chip": "ym2612"
    },
    {
      "channel": 0,
      "note": 66,
      "start": 43.6433,
      "duration": 0.1209,
      "velocity": 111,
      "chip": "ym2612"
    },
    {
      "channel": 3,
      "note": 50,
      "start": 43.7674,
      "duration": 0.1448,
      "velocity": 93,
      "chip": "ym2612"
    },
    {
      "channel": 1,
      "note": 57,
      "start": 43.7698,
      "duration": 0.1423,
      "velocity": 111,
      "chip": "ym2612"
    },
    {
      "channel": 4,
      "note": 62,
      "start": 43.7724,
      "duration": 0.1399,
      "velocity": 111,
      "chip": "ym2612"
    },
    {
      "channel": 0,
      "note": 66,
      "start": 43.7749,
      "duration": 0.1371,
      "velocity": 111,
      "chip": "ym2612"
    },
    {
      "channel": 3,
      "note": 50,
      "start": 43.9151,
      "duration": 0.1305,
      "velocity": 93,
      "chip": "ym2612"
    },
    {
      "channel": 1,
      "note": 57,
      "start": 43.9175,
      "duration": 0.1279,
      "velocity": 111,
      "chip": "ym2612"
    },
    {
      "channel": 4,
      "note": 62,
      "start": 43.9207,
      "duration": 0.125,
      "velocity": 111,
      "chip": "ym2612"
    },
    {
      "channel": 0,
      "note": 66,
      "start": 43.9231,
      "duration": 0.1222,
      "velocity": 111,
      "chip": "ym2612"
    },
    {
      "channel": 3,
      "note": 50,
      "start": 44.0482,
      "duration": 0.0695,
      "velocity": 93,
      "chip": "ym2612"
    },
    {
      "channel": 1,
      "note": 57,
      "start": 44.0503,
      "duration": 0.0673,
      "velocity": 111,
      "chip": "ym2612"
    },
    {
      "channel": 4,
      "note": 62,
      "start": 44.0527,
      "duration": 0.0651,
      "velocity": 111,
      "chip": "ym2612"
    },
    {
      "channel": 0,
      "note": 66,
      "start": 44.0548,
      "duration": 0.0627,
      "velocity": 111,
      "chip": "ym2612"
    },
    {
      "channel": 3,
      "note": 50,
      "start": 44.1199,
      "duration": 0.0641,
      "velocity": 93,
      "chip": "ym2612"
    },
    {
      "channel": 1,
      "note": 57,
      "start": 44.1219,
      "duration": 0.062,
      "velocity": 111,
      "chip": "ym2612"
    },
    {
      "channel": 4,
      "note": 62,
      "start": 44.1241,
      "duration": 0.06,
      "velocity": 111,
      "chip": "ym2612"
    },
    {
      "channel": 0,
      "note": 66,
      "start": 44.127,
      "duration": 0.0569,
      "velocity": 111,
      "chip": "ym2612"
    },
    {
      "channel": 3,
      "note": 50,
      "start": 44.1867,
      "duration": 0.1275,
      "velocity": 93,
      "chip": "ym2612"
    },
    {
      "channel": 1,
      "note": 57,
      "start": 44.1888,
      "duration": 0.1252,
      "velocity": 111,
      "chip": "ym2612"
    },
    {
      "channel": 4,
      "note": 62,
      "start": 44.1908,
      "duration": 0.1235,
      "velocity": 111,
      "chip": "ym2612"
    },
    {
      "channel": 0,
      "note": 66,
      "start": 44.1937,
      "duration": 0.1201,
      "velocity": 111,
      "chip": "ym2612"
    },
    {
      "channel": 3,
      "note": 57,
      "start": 44.3171,
      "duration": 0.1441,
      "velocity": 93,
      "chip": "ym2612"
    },
    {
      "channel": 1,
      "note": 61,
      "start": 44.3195,
      "duration": 0.1416,
      "velocity": 111,
      "chip": "ym2612"
    },
    {
      "channel": 4,
      "note": 64,
      "start": 44.3222,
      "duration": 0.1392,
      "velocity": 111,
      "chip": "ym2612"
    },
    {
      "channel": 0,
      "note": 69,
      "start": 44.3245,
      "duration": 0.1364,
      "velocity": 111,
      "chip": "ym2612"
    },
    {
      "channel": 3,
      "note": 57,
      "start": 44.4641,
      "duration": 0.1469,
      "velocity": 93,
      "chip": "ym2612"
    },
    {
      "channel": 1,
      "note": 61,
      "start": 44.4666,
      "duration": 0.1444,
      "velocity": 111,
      "chip": "ym2612"
    },
    {
      "channel": 4,
      "note": 64,
      "start": 44.4692,
      "duration": 0.142,
      "velocity": 111,
      "chip": "ym2612"
    },
    {
      "channel": 0,
      "note": 69,
      "start": 44.4716,
      "duration": 0.1392,
      "velocity": 111,
      "chip": "ym2612"
    },
    {
      "channel": 3,
      "note": 57,
      "start": 44.6137,
      "duration": 0.0702,
      "velocity": 93,
      "chip": "ym2612"
    },
    {
      "channel": 1,
      "note": 61,
      "start": 44.6159,
      "duration": 0.0679,
      "velocity": 111,
      "chip": "ym2612"
    },
    {
      "channel": 4,
      "note": 64,
      "start": 44.6182,
      "duration": 0.0658,
      "velocity": 111,
      "chip": "ym2612"
    },
    {
      "channel": 0,
      "note": 69,
      "start": 44.6202,
      "duration": 0.0634,
      "velocity": 111,
      "chip": "ym2612"
    },
    {
      "channel": 3,
      "note": 57,
      "start": 44.6861,
      "duration": 0.0579,
      "velocity": 93,
      "chip": "ym2612"
    },
    {
      "channel": 1,
      "note": 61,
      "start": 44.6881,
      "duration": 0.0557,
      "velocity": 111,
      "chip": "ym2612"
    },
    {
      "channel": 4,
      "note": 64,
      "start": 44.6903,
      "duration": 0.0537,
      "velocity": 111,
      "chip": "ym2612"
    },
    {
      "channel": 0,
      "note": 69,
      "start": 44.6932,
      "duration": 0.0505,
      "velocity": 111,
      "chip": "ym2612"
    },
    {
      "channel": 3,
      "note": 57,
      "start": 44.7472,
      "duration": 0.1171,
      "velocity": 93,
      "chip": "ym2612"
    },
    {
      "channel": 1,
      "note": 61,
      "start": 44.7492,
      "duration": 0.115,
      "velocity": 111,
      "chip": "ym2612"
    },
    {
      "channel": 4,
      "note": 64,
      "start": 44.7512,
      "duration": 0.1133,
      "velocity": 111,
      "chip": "ym2612"
    },
    {
      "channel": 0,
      "note": 69,
      "start": 44.7531,
      "duration": 0.1109,
      "velocity": 111,
      "chip": "ym2612"
    },
    {
      "channel": 3,
      "note": 57,
      "start": 44.8673,
      "duration": 0.1441,
      "velocity": 93,
      "chip": "ym2612"
    },
    {
      "channel": 1,
      "note": 61,
      "start": 44.8697,
      "duration": 0.1415,
      "velocity": 111,
      "chip": "ym2612"
    },
    {
      "channel": 4,
      "note": 64,
      "start": 44.8724,
      "duration": 0.1392,
      "velocity": 111,
      "chip": "ym2612"
    },
    {
      "channel": 0,
      "note": 74,
      "start": 44.875,
      "duration": 0.0618,
      "velocity": 111,
      "chip": "ym2612"
    },
    {
      "channel": 0,
      "note": 74,
      "start": 44.9393,
      "duration": 0.0718,
      "velocity": 111,
      "chip": "ym2612"
    },
    {
      "channel": 3,
      "note": 57,
      "start": 45.0144,
      "duration": 0.1471,
      "velocity": 93,
      "chip": "ym2612"
    },
    {
      "channel": 1,
      "note": 61,
      "start": 45.0173,
      "duration": 0.144,
      "velocity": 111,
      "chip": "ym2612"
    },
    {
      "channel": 4,
      "note": 64,
      "start": 45.02,
      "duration": 0.1416,
      "velocity": 111,
      "chip": "ym2612"
    },
    {
      "channel": 0,
      "note": 74,
      "start": 45.022,
      "duration": 0.1391,
      "velocity": 111,
      "chip": "ym2612"
    },
    {
      "channel": 3,
      "note": 57,
      "start": 45.164,
      "duration": 0.0704,
      "velocity": 93,
      "chip": "ym2612"
    },
    {
      "channel": 1,
      "note": 61,
      "start": 45.1662,
      "duration": 0.0682,
      "velocity": 111,
      "chip": "ym2612"
    },
    {
      "channel": 4,
      "note": 64,
      "start": 45.1685,
      "duration": 0.066,
      "velocity": 111,
      "chip": "ym2612"
    },
    {
      "channel": 0,
      "note": 73,
      "start": 45.1706,
      "duration": 0.0637,
      "velocity": 111,
      "chip": "ym2612"
    },
    {
      "channel": 3,
      "note": 57,
      "start": 45.2367,
      "duration": 0.065,
      "velocity": 93,
      "chip": "ym2612"
    },
    {
      "channel": 1,
      "note": 61,
      "start": 45.2387,
      "duration": 0.0629,
      "velocity": 111,
      "chip": "ym2612"
    },
    {
      "channel": 4,
      "note": 64,
      "start": 45.2409,
      "duration": 0.0608,
      "velocity": 111,
      "chip": "ym2612"
    },
    {
      "channel": 0,
      "note": 73,
      "start": 45.2438,
      "duration": 0.0578,
      "velocity": 111,
      "chip": "ym2612"
    },
    {
      "channel": 3,
      "note": 57,
      "start": 45.3039,
      "duration": 0.128,
      "velocity": 93,
      "chip": "ym2612"
    },
    {
      "channel": 1,
      "note": 61,
      "start": 45.3059,
      "duration": 0.1258,
      "velocity": 111,
      "chip": "ym2612"
    },
    {
      "channel": 4,
      "note": 64,
      "start": 45.308,
      "duration": 0.124,
      "velocity": 111,
      "chip": "ym2612"
    },
    {
      "channel": 0,
      "note": 73,
      "start": 45.3109,
      "duration": 0.1207,
      "velocity": 111,
      "chip": "ym2612"
    },
    {
      "channel": 3,
      "note": 59,
      "start": 45.4348,
      "duration": 0.1285,
      "velocity": 93,
      "chip": "ym2612"
    },
    {
      "channel": 1,
      "note": 66,
      "start": 45.4372,
      "duration": 0.126,
      "velocity": 111,
      "chip": "ym2612"
    },
    {
      "channel": 4,
      "note": 71,
      "start": 45.4399,
      "duration": 0.1235,
      "velocity": 111,
      "chip": "ym2612"
    },
    {
      "channel": 0,
      "note": 74,
      "start": 45.4422,
      "duration": 0.1208,
      "velocity": 111,
      "chip": "ym2612"
    },
    {
      "channel": 3,
      "note": 59,
      "start": 45.5662,
      "duration": 0.1471,
      "velocity": 93,
      "chip": "ym2612"
    },
    {
      "channel": 1,
      "note": 66,
      "start": 45.5686,
      "duration": 0.1445,
      "velocity": 111,
      "chip": "ym2612"
    },
    {
      "channel": 4,
      "note": 71,
      "start": 45.5713,
      "duration": 0.1422,
      "velocity": 111,
      "chip": "ym2612"
    },
    {
      "channel": 0,
      "note": 74,
      "start": 45.5737,
      "duration": 0.1394,
      "velocity": 111,
      "chip": "ym2612"
    },
    {
      "channel": 3,
      "note": 59,
      "start": 45.716,
      "duration": 0.0695,
      "velocity": 93,
      "chip": "ym2612"
    },
    {
      "channel": 1,
      "note": 66,
      "start": 45.7181,
      "duration": 0.0673,
      "velocity": 111,
      "chip": "ym2612"
    },
    {
      "channel": 4,
      "note": 71,
      "start": 45.7204,
      "duration": 0.0651,
      "velocity": 111,
      "chip": "ym2612"
    },
    {
      "channel": 0,
      "note": 74,
      "start": 45.7225,
      "duration": 0.0628,
      "velocity": 111,
      "chip": "ym2612"
    },
    {
      "channel": 3,
      "note": 59,
      "start": 45.7876,
      "duration": 0.0641,
      "velocity": 93,
      "chip": "ym2612"
    },
    {
      "channel": 1,
      "note": 66,
      "start": 45.7897,
      "duration": 0.062,
      "velocity": 111,
      "chip": "ym2612"
    },
    {
      "channel": 4,
      "note": 71,
      "start": 45.7918,
      "duration": 0.0599,
      "velocity": 111,
      "chip": "ym2612"
    },
    {
      "channel": 0,
      "note": 74,
      "start": 45.7948,
      "duration": 0.0568,
      "velocity": 111,
      "chip": "ym2612"
    },
    {
      "channel": 3,
      "note": 59,
      "start": 45.8539,
      "duration": 0.1278,
      "velocity": 93,
      "chip": "ym2612"
    },
    {
      "channel": 1,
      "note": 66,
      "start": 45.856,
      "duration": 0.1256,
      "velocity": 111,
      "chip": "ym2612"
    },
    {
      "channel": 4,
      "note": 71,
      "start": 45.8583,
      "duration": 0.1235,
      "velocity": 111,
      "chip": "ym2612"
    },
    {
      "channel": 0,
      "note": 74,
      "start": 45.8612,
      "duration": 0.1202,
      "velocity": 111,
      "chip": "ym2612"
    },
    {
      "channel": 3,
      "note": 59,
      "start": 45.9846,
      "duration": 0.1446,
      "velocity": 93,
      "chip": "ym2612"
    },
    {
      "channel": 1,
      "note": 66,
      "start": 45.987,
      "duration": 0.1421,
      "velocity": 111,
      "chip": "ym2612"
    },
    {
      "channel": 4,
      "note": 71,
      "start": 45.9897,
      "duration": 0.1397,
      "velocity": 111,
      "chip": "ym2612"
    },
    {
      "channel": 0,
      "note": 74,
      "start": 45.9921,
      "duration": 0.137,
      "velocity": 111,
      "chip": "ym2612"
    },
    {
      "channel": 3,
      "note": 59,
      "start": 46.1327,
      "duration": 0.1466,
      "velocity": 93,
      "chip": "ym2612"
    },
    {
      "channel": 1,
      "note": 66,
      "start": 46.1351,
      "duration": 0.144,
      "velocity": 111,
      "chip": "ym2612"
    },
    {
      "channel": 4,
      "note": 71,
      "start": 46.1378,
      "duration": 0.1416,
      "velocity": 111,
      "chip": "ym2612"
    },
    {
      "channel": 0,
      "note": 74,
      "start": 46.1402,
      "duration": 0.1388,
      "velocity": 111,
      "chip": "ym2612"
    },
    {
      "channel": 3,
      "note": 59,
      "start": 46.2819,
      "duration": 0.0631,
      "velocity": 93,
      "chip": "ym2612"
    },
    {
      "channel": 1,
      "note": 66,
      "start": 46.2841,
      "duration": 0.0609,
      "velocity": 111,
      "chip": "ym2612"
    },
    {
      "channel": 4,
      "note": 71,
      "start": 46.2863,
      "duration": 0.0587,
      "velocity": 111,
      "chip": "ym2612"
    },
    {
      "channel": 0,
      "note": 74,
      "start": 46.2884,
      "duration": 0.0564,
      "velocity": 111,
      "chip": "ym2612"
    },
    {
      "channel": 3,
      "note": 59,
      "start": 46.3485,
      "duration": 0.0654,
      "velocity": 93,
      "chip": "ym2612"
    },
    {
      "channel": 1,
      "note": 66,
      "start": 46.3505,
      "duration": 0.0633,
      "velocity": 111,
      "chip": "ym2612"
    },
    {
      "channel": 4,
      "note": 71,
      "start": 46.3527,
      "duration": 0.0612,
      "velocity": 111,
      "chip": "ym2612"
    },
    {
      "channel": 0,
      "note": 74,
      "start": 46.3548,
      "duration": 0.0588,
      "velocity": 111,
      "chip": "ym2612"
    },
    {
      "channel": 3,
      "note": 59,
      "start": 46.417,
      "duration": 0.1174,
      "velocity": 93,
      "chip": "ym2612"
    },
    {
      "channel": 1,
      "note": 66,
      "start": 46.4191,
      "duration": 0.1151,
      "velocity": 111,
      "chip": "ym2612"
    },
    {
      "channel": 4,
      "note": 71,
      "start": 46.4211,
      "duration": 0.1134,
      "velocity": 111,
      "chip": "ym2612"
    },
    {
      "channel": 0,
      "note": 74,
      "start": 46.4231,
      "duration": 0.111,
      "velocity": 111,
      "chip": "ym2612"
    },
    {
      "channel": 3,
      "note": 59,
      "start": 46.5373,
      "duration": 0.1437,
      "velocity": 93,
      "chip": "ym2612"
    },
    {
      "channel": 1,
      "note": 66,
      "start": 46.5397,
      "duration": 0.1412,
      "velocity": 111,
      "chip": "ym2612"
    },
    {
      "channel": 4,
      "note": 71,
      "start": 46.5424,
      "duration": 0.1388,
      "velocity": 111,
      "chip": "ym2612"
    },
    {
      "channel": 0,
      "note": 78,
      "start": 46.5447,
      "duration": 0.136,
      "velocity": 111,
      "chip": "ym2612"
    },
    {
      "channel": 3,
      "note": 59,
      "start": 46.6839,
      "duration": 0.1471,
      "velocity": 93,
      "chip": "ym2612"
    },
    {
      "channel": 1,
      "note": 66,
      "start": 46.6863,
      "duration": 0.1445,
      "velocity": 111,
      "chip": "ym2612"
    },
    {
      "channel": 4,
      "note": 71,
      "start": 46.689,
      "duration": 0.1422,
      "velocity": 111,
      "chip": "ym2612"
    },
    {
      "channel": 0,
      "note": 78,
      "start": 46.6913,
      "duration": 0.1394,
      "velocity": 111,
      "chip": "ym2612"
    },
    {
      "channel": 3,
      "note": 59,
      "start": 46.8337,
      "duration": 0.0704,
      "velocity": 93,
      "chip": "ym2612"
    },
    {
      "channel": 1,
      "note": 66,
      "start": 46.8358,
      "duration": 0.0682,
      "velocity": 111,
      "chip": "ym2612"
    },
    {
      "channel": 4,
      "note": 71,
      "start": 46.8381,
      "duration": 0.0661,
      "velocity": 111,
      "chip": "ym2612"
    },
    {
      "channel": 0,
      "note": 78,
      "start": 46.8402,
      "duration": 0.0637,
      "velocity": 111,
      "chip": "ym2612"
    },
    {
      "channel": 3,
      "note": 59,
      "start": 46.9063,
      "duration": 0.065,
      "velocity": 93,
      "chip": "ym2612"
    },
    {
      "channel": 1,
      "note": 66,
      "start": 46.9083,
      "duration": 0.0629,
      "velocity": 111,
      "chip": "ym2612"
    },
    {
      "channel": 4,
      "note": 71,
      "start": 46.9105,
      "duration": 0.0608,
      "velocity": 111,
      "chip": "ym2612"
    },
    {
      "channel": 0,
      "note": 78,
      "start": 46.9134,
      "duration": 0.0578,
      "velocity": 111,
      "chip": "ym2612"
    },
    {
      "channel": 3,
      "note": 59,
      "start": 46.9735,
      "duration": 0.1113,
      "velocity": 93,
      "chip": "ym2612"
    },
    {
      "channel": 1,
      "note": 66,
      "start": 46.9755,
      "duration": 0.1091,
      "velocity": 111,
      "chip": "ym2612"
    },
    {
      "channel": 4,
      "note": 71,
      "start": 46.9776,
      "duration": 0.1073,
      "velocity": 111,
      "chip": "ym2612"
    },
    {
      "channel": 0,
      "note": 78,
      "start": 46.981,
      "duration": 0.1036,
      "velocity": 111,
      "chip": "ym2612"
    },
    {
      "channel": 3,
      "note": 59,
      "start": 47.0877,
      "duration": 0.144,
      "velocity": 93,
      "chip": "ym2612"
    },
    {
      "channel": 1,
      "note": 66,
      "start": 47.0907,
      "duration": 0.141,
      "velocity": 111,
      "chip": "ym2612"
    },
    {
      "channel": 4,
      "note": 71,
      "start": 47.0933,
      "duration": 0.1386,
      "velocity": 111,
      "chip": "ym2612"
    },
    {
      "channel": 0,
      "note": 78,
      "start": 47.0958,
      "duration": 0.1358,
      "velocity": 111,
      "chip": "ym2612"
    },
    {
      "channel": 3,
      "note": 59,
      "start": 47.2347,
      "duration": 0.1471,
      "velocity": 93,
      "chip": "ym2612"
    },
    {
      "channel": 1,
      "note": 66,
      "start": 47.2371,
      "duration": 0.1445,
      "velocity": 111,
      "chip": "ym2612"
    },
    {
      "channel": 4,
      "note": 71,
      "start": 47.2398,
      "duration": 0.1422,
      "velocity": 111,
      "chip": "ym2612"
    },
    {
      "channel": 0,
      "note": 78,
      "start": 47.2421,
      "duration": 0.1394,
      "velocity": 111,
      "chip": "ym2612"
    },
    {
      "channel": 3,
      "note": 59,
      "start": 47.3844,
      "duration": 0.0706,
      "velocity": 93,
      "chip": "ym2612"
    },
    {
      "channel": 1,
      "note": 66,
      "start": 47.3866,
      "duration": 0.0684,
      "velocity": 111,
      "chip": "ym2612"
    },
    {
      "channel": 4,
      "note": 71,
      "start": 47.3889,
      "duration": 0.0662,
      "velocity": 111,
      "chip": "ym2612"
    },
    {
      "channel": 0,
      "note": 78,
      "start": 47.391,
      "duration": 0.0639,
      "velocity": 111,
      "chip": "ym2612"
    },
    {
      "channel": 3,
      "note": 59,
      "start": 47.4573,
      "duration": 0.0655,
      "velocity": 93,
      "chip": "ym2612"
    },
    {
      "channel": 1,
      "note": 66,
      "start": 47.4593,
      "duration": 0.0634,
      "velocity": 111,
      "chip": "ym2612"
    },
    {
      "channel": 4,
      "note": 71,
      "start": 47.4615,
      "duration": 0.0613,
      "velocity": 111,
      "chip": "ym2612"
    },
    {
      "channel": 0,
      "note": 76,
      "start": 47.4644,
      "duration": 0.0582,
      "velocity": 111,
      "chip": "ym2612"
    },
    {
      "channel": 3,
      "note": 59,
      "start": 47.5248,
      "duration": 0.128,
      "velocity": 93,
      "chip": "ym2612"
    },
    {
      "channel": 1,
      "note": 66,
      "start": 47.5268,
      "duration": 0.1259,
      "velocity": 111,
      "chip": "ym2612"
    },
    {
      "channel": 4,
      "note": 71,
      "start": 47.5289,
      "duration": 0.1241,
      "velocity": 111,
      "chip": "ym2612"
    },
    {
      "channel": 0,
      "note": 74,
      "start": 47.5317,
      "duration": 0.1208,
      "velocity": 111,
      "chip": "ym2612"
    },
    {
      "channel": 3,
      "note": 55,
      "start": 47.6558,
      "duration": 0.1282,
      "velocity": 93,
      "chip": "ym2612"
    },
    {
      "channel": 1,
      "note": 62,
      "start": 47.6582,
      "duration": 0.1256,
      "velocity": 111,
      "chip": "ym2612"
    },
    {
      "channel": 4,
      "note": 67,
      "start": 47.6608,
      "duration": 0.1232,
      "velocity": 111,
      "chip": "ym2612"
    },
    {
      "channel": 0,
      "note": 71,
      "start": 47.6633,
      "duration": 0.1204,
      "velocity": 111,
      "chip": "ym2612"
    },
    {
      "channel": 3,
      "note": 55,
      "start": 47.7868,
      "duration": 0.1471,
      "velocity": 93,
      "chip": "ym2612"
    },
    {
      "channel": 1,
      "note": 62,
      "start": 47.7893,
      "duration": 0.1445,
      "velocity": 111,
      "chip": "ym2612"
    },
    {
      "channel": 4,
      "note": 67,
      "start": 47.7924,
      "duration": 0.1416,
      "velocity": 111,
      "chip": "ym2612"
    },
    {
      "channel": 0,
      "note": 71,
      "start": 47.7949,
      "duration": 0.1387,
      "velocity": 111,
      "chip": "ym2612"
    },
    {
      "channel": 3,
      "note": 55,
      "start": 47.9365,
      "duration": 0.0698,
      "velocity": 93,
      "chip": "ym2612"
    },
    {
      "channel": 1,
      "note": 62,
      "start": 47.9387,
      "duration": 0.0676,
      "velocity": 111,
      "chip": "ym2612"
    },
    {
      "channel": 4,
      "note": 67,
      "start": 47.941,
      "duration": 0.0653,
      "velocity": 111,
      "chip": "ym2612"
    },
    {
      "channel": 0,
      "note": 71,
      "start": 47.9431,
      "duration": 0.0631,
      "velocity": 111,
      "chip": "ym2612"
    },
    {
      "channel": 3,
      "note": 55,
      "start": 48.0085,
      "duration": 0.0651,
      "velocity": 93,
      "chip": "ym2612"
    },
    {
      "channel": 1,
      "note": 62,
      "start": 48.0105,
      "duration": 0.063,
      "velocity": 111,
      "chip": "ym2612"
    },
    {
      "channel": 4,
      "note": 67,
      "start": 48.0127,
      "duration": 0.061,
      "velocity": 111,
      "chip": "ym2612"
    },
    {
      "channel": 0,
      "note": 71,
      "start": 48.0156,
      "duration": 0.0578,
      "velocity": 111,
      "chip": "ym2612"
    },
    {
      "channel": 3,
      "note": 55,
      "start": 48.0759,
      "duration": 0.1275,
      "velocity": 93,
      "chip": "ym2612"
    },
    {
      "channel": 1,
      "note": 62,
      "start": 48.0778,
      "duration": 0.1254,
      "velocity": 111,
      "chip": "ym2612"
    },
    {
      "channel": 4,
      "note": 67,
      "start": 48.0801,
      "duration": 0.1234,
      "velocity": 111,
      "chip": "ym2612"
    },
    {
      "channel": 0,
      "note": 71,
      "start": 48.0832,
      "duration": 0.1198,
      "velocity": 111,
      "chip": "ym2612"
    },
    {
      "channel": 3,
      "note": 55,
      "start": 48.2068,
      "duration": 0.1442,
      "velocity": 93,
      "chip": "ym2612"
    },
    {
      "channel": 1,
      "note": 62,
      "start": 48.2092,
      "duration": 0.1417,
      "velocity": 111,
      "chip": "ym2612"
    },
    {
      "channel": 4,
      "note": 67,
      "start": 48.2119,
      "duration": 0.1393,
      "velocity": 111,
      "chip": "ym2612"
    },
    {
      "channel": 0,
      "note": 71,
      "start": 48.2143,
      "duration": 0.1365,
      "velocity": 111,
      "chip": "ym2612"
    },
    {
      "channel": 3,
      "note": 55,
      "start": 48.3539,
      "duration": 0.147,
      "velocity": 93,
      "chip": "ym2612"
    },
    {
      "channel": 1,
      "note": 62,
      "start": 48.3564,
      "duration": 0.1444,
      "velocity": 111,
      "chip": "ym2612"
    },
    {
      "channel": 4,
      "note": 67,
      "start": 48.359,
      "duration": 0.142,
      "velocity": 111,
      "chip": "ym2612"
    },
    {
      "channel": 0,
      "note": 71,
      "start": 48.3614,
      "duration": 0.1393,
      "velocity": 111,
      "chip": "ym2612"
    },
    {
      "channel": 3,
      "note": 55,
      "start": 48.5035,
      "duration": 0.0702,
      "velocity": 93,
      "chip": "ym2612"
    },
    {
      "channel": 1,
      "note": 62,
      "start": 48.5057,
      "duration": 0.068,
      "velocity": 111,
      "chip": "ym2612"
    },
    {
      "channel": 4,
      "note": 67,
      "start": 48.508,
      "duration": 0.0657,
      "velocity": 111,
      "chip": "ym2612"
    },
    {
      "channel": 0,
      "note": 71,
      "start": 48.5101,
      "duration": 0.0635,
      "velocity": 111,
      "chip": "ym2612"
    },
    {
      "channel": 3,
      "note": 55,
      "start": 48.5759,
      "duration": 0.0582,
      "velocity": 93,
      "chip": "ym2612"
    },
    {
      "channel": 1,
      "note": 62,
      "start": 48.5779,
      "duration": 0.056,
      "velocity": 111,
      "chip": "ym2612"
    },
    {
      "channel": 4,
      "note": 67,
      "start": 48.5801,
      "duration": 0.054,
      "velocity": 111,
      "chip": "ym2612"
    },
    {
      "channel": 0,
      "note": 71,
      "start": 48.583,
      "duration": 0.0508,
      "velocity": 111,
      "chip": "ym2612"
    },
    {
      "channel": 3,
      "note": 55,
      "start": 48.6372,
      "duration": 0.1172,
      "velocity": 93,
      "chip": "ym2612"
    },
    {
      "channel": 1,
      "note": 62,
      "start": 48.6393,
      "duration": 0.115,
      "velocity": 111,
      "chip": "ym2612"
    },
    {
      "channel": 4,
      "note": 67,
      "start": 48.6413,
      "duration": 0.1133,
      "velocity": 111,
      "chip": "ym2612"
    },
    {
      "channel": 0,
      "note": 71,
      "start": 48.6432,
      "duration": 0.111,
      "velocity": 111,
      "chip": "ym2612"
    },
    {
      "channel": 3,
      "note": 55,
      "start": 48.7573,
      "duration": 0.1439,
      "velocity": 93,
      "chip": "ym2612"
    },
    {
      "channel": 1,
      "note": 62,
      "start": 48.7598,
      "duration": 0.1412,
      "velocity": 111,
      "chip": "ym2612"
    },
    {
      "channel": 4,
      "note": 67,
      "start": 48.7625,
      "duration": 0.1388,
      "velocity": 111,
      "chip": "ym2612"
    },
    {
      "channel": 0,
      "note": 74,
      "start": 48.7648,
      "duration": 0.136,
      "velocity": 111,
      "chip": "ym2612"
    },
    {
      "channel": 3,
      "note": 55,
      "start": 48.904,
      "duration": 0.1471,
      "velocity": 93,
      "chip": "ym2612"
    },
    {
      "channel": 1,
      "note": 62,
      "start": 48.907,
      "duration": 0.1439,
      "velocity": 111,
      "chip": "ym2612"
    },
    {
      "channel": 4,
      "note": 67,
      "start": 48.9097,
      "duration": 0.1415,
      "velocity": 111,
      "chip": "ym2612"
    },
    {
      "channel": 0,
      "note": 74,
      "start": 48.9126,
      "duration": 0.1383,
      "velocity": 111,
      "chip": "ym2612"
    },
    {
      "channel": 3,
      "note": 55,
      "start": 49.0537,
      "duration": 0.0699,
      "velocity": 93,
      "chip": "ym2612"
    },
    {
      "channel": 1,
      "note": 62,
      "start": 49.0559,
      "duration": 0.0677,
      "velocity": 111,
      "chip": "ym2612"
    },
    {
      "channel": 4,
      "note": 67,
      "start": 49.0582,
      "duration": 0.0655,
      "velocity": 111,
      "chip": "ym2612"
    },
    {
      "channel": 0,
      "note": 74,
      "start": 49.0603,
      "duration": 0.0631,
      "velocity": 111,
      "chip": "ym2612"
    },
    {
      "channel": 3,
      "note": 55,
      "start": 49.1258,
      "duration": 0.0649,
      "velocity": 93,
      "chip": "ym2612"
    },
    {
      "channel": 1,
      "note": 62,
      "start": 49.1278,
      "duration": 0.0629,
      "velocity": 111,
      "chip": "ym2612"
    },
    {
      "channel": 4,
      "note": 67,
      "start": 49.13,
      "duration": 0.0608,
      "velocity": 111,
      "chip": "ym2612"
    },
    {
      "channel": 0,
      "note": 74,
      "start": 49.1329,
      "duration": 0.0577,
      "velocity": 111,
      "chip": "ym2612"
    },
    {
      "channel": 3,
      "note": 55,
      "start": 49.1929,
      "duration": 0.1278,
      "velocity": 93,
      "chip": "ym2612"
    },
    {
      "channel": 1,
      "note": 62,
      "start": 49.1949,
      "duration": 0.1257,
      "velocity": 111,
      "chip": "ym2612"
    },
    {
      "channel": 4,
      "note": 66,
      "start": 49.197,
      "duration": 0.1239,
      "velocity": 111,
      "chip": "ym2612"
    },
    {
      "channel": 0,
      "note": 73,
      "start": 49.1998,
      "duration": 0.1207,
      "velocity": 111,
      "chip": "ym2612"
    },
    {
      "channel": 3,
      "note": 55,
      "start": 49.3236,
      "duration": 0.1284,
      "velocity": 93,
      "chip": "ym2612"
    },
    {
      "channel": 1,
      "note": 62,
      "start": 49.3261,
      "duration": 0.1258,
      "velocity": 111,
      "chip": "ym2612"
    },
    {
      "channel": 4,
      "note": 67,
      "start": 49.3288,
      "duration": 0.1234,
      "velocity": 111,
      "chip": "ym2612"
    },
    {
      "channel": 0,
      "note": 74,
      "start": 49.3311,
      "duration": 0.1207,
      "velocity": 111,
      "chip": "ym2612"
    },
    {
      "channel": 3,
      "note": 55,
      "start": 49.4549,
      "duration": 0.1471,
      "velocity": 93,
      "chip": "ym2612"
    },
    {
      "channel": 1,
      "note": 62,
      "start": 49.4574,
      "duration": 0.1445,
      "velocity": 111,
      "chip": "ym2612"
    },
    {
      "channel": 4,
      "note": 67,
      "start": 49.4601,
      "duration": 0.1421,
      "velocity": 111,
      "chip": "ym2612"
    },
    {
      "channel": 0,
      "note": 74,
      "start": 49.4624,
      "duration": 0.1394,
      "velocity": 111,
      "chip": "ym2612"
    },
    {
      "channel": 3,
      "note": 55,
      "start": 49.6047,
      "duration": 0.0693,
      "velocity": 93,
      "chip": "ym2612"
    },
    {
      "channel": 1,
      "note": 62,
      "start": 49.6068,
      "duration": 0.067,
      "velocity": 111,
      "chip": "ym2612"
    },
    {
      "channel": 4,
      "note": 67,
      "start": 49.6092,
      "duration": 0.0648,
      "velocity": 111,
      "chip": "ym2612"
    },
    {
      "channel": 0,
      "note": 74,
      "start": 49.6112,
      "duration": 0.0625,
      "velocity": 111,
      "chip": "ym2612"
    },
    {
      "channel": 3,
      "note": 55,
      "start": 49.6761,
      "duration": 0.0643,
      "velocity": 93,
      "chip": "ym2612"
    },
    {
      "channel": 1,
      "note": 62,
      "start": 49.6781,
      "duration": 0.0622,
      "velocity": 111,
      "chip": "ym2612"
    },
    {
      "channel": 4,
      "note": 67,
      "start": 49.6803,
      "duration": 0.0601,
      "velocity": 111,
      "chip": "ym2612"
    },
    {
      "channel": 0,
      "note": 74,
      "start": 49.6832,
      "duration": 0.057,
      "velocity": 111,
      "chip": "ym2612"
    },
    {
      "channel": 3,
      "note": 55,
      "start": 49.7426,
      "duration": 0.1281,
      "velocity": 93,
      "chip": "ym2612"
    },
    {
      "channel": 1,
      "note": 62,
      "start": 49.7446,
      "duration": 0.126,
      "velocity": 111,
      "chip": "ym2612"
    },
    {
      "channel": 4,
      "note": 67,
      "start": 49.7466,
      "duration": 0.1242,
      "velocity": 111,
      "chip": "ym2612"
    },
    {
      "channel": 0,
      "note": 74,
      "start": 49.7494,
      "duration": 0.121,
      "velocity": 111,
      "chip": "ym2612"
    },
    {
      "channel": 3,
      "note": 54,
      "start": 49.8736,
      "duration": 0.1444,
      "velocity": 93,
      "chip": "ym2612"
    },
    {
      "channel": 1,
      "note": 61,
      "start": 49.8761,
      "duration": 0.1419,
      "velocity": 111,
      "chip": "ym2612"
    },
    {
      "channel": 4,
      "note": 66,
      "start": 49.8792,
      "duration": 0.139,
      "velocity": 111,
      "chip": "ym2612"
    },
    {
      "channel": 0,
      "note": 73,
      "start": 49.8816,
      "duration": 0.1361,
      "velocity": 111,
      "chip": "ym2612"
    },
    {
      "channel": 3,
      "note": 54,
      "start": 50.0215,
      "duration": 0.13,
      "velocity": 93,
      "chip": "ym2612"
    },
    {
      "channel": 1,
      "note": 61,
      "start": 50.0239,
      "duration": 0.1274,
      "velocity": 111,
      "chip": "ym2612"
    },
    {
      "channel": 4,
      "note": 66,
      "start": 50.0266,
      "duration": 0.125,
      "velocity": 111,
      "chip": "ym2612"
    },
    {
      "channel": 0,
      "note": 73,
      "start": 50.0289,
      "duration": 0.1222,
      "velocity": 111,
      "chip": "ym2612"
    },
    {
      "channel": 3,
      "note": 54,
      "start": 50.1541,
      "duration": 0.0695,
      "velocity": 93,
      "chip": "ym2612"
    },
    {
      "channel": 1,
      "note": 61,
      "start": 50.1562,
      "duration": 0.0672,
      "velocity": 111,
      "chip": "ym2612"
    },
    {
      "channel": 4,
      "note": 66,
      "start": 50.1586,
      "duration": 0.0651,
      "velocity": 111,
      "chip": "ym2612"
    },
    {
      "channel": 0,
      "note": 73,
      "start": 50.1606,
      "duration": 0.0627,
      "velocity": 111,
      "chip": "ym2612"
    },
    {
      "channel": 3,
      "note": 54,
      "start": 50.2257,
      "duration": 0.0642,
      "velocity": 93,
      "chip": "ym2612"
    },
    {
      "channel": 1,
      "note": 61,
      "start": 50.2278,
      "duration": 0.0621,
      "velocity": 111,
      "chip": "ym2612"
    },
    {
      "channel": 4,
      "note": 66,
      "start": 50.23,
      "duration": 0.06,
      "velocity": 111,
      "chip": "ym2612"
    },
    {
      "channel": 0,
      "note": 73,
      "start": 50.2329,
      "duration": 0.0569,
      "velocity": 111,
      "chip": "ym2612"
    },
    {
      "channel": 3,
      "note": 54,
      "start": 50.2921,
      "duration": 0.1276,
      "velocity": 93,
      "chip": "ym2612"
    },
    {
      "channel": 1,
      "note": 61,
      "start": 50.2941,
      "duration": 0.1255,
      "velocity": 111,
      "chip": "ym2612"
    },
    {
      "channel": 4,
      "note": 66,
      "start": 50.2961,
      "duration": 0.1237,
      "velocity": 111,
      "chip": "ym2612"
    },
    {
      "channel": 0,
      "note": 73,
      "start": 50.299,
      "duration": 0.1205,
      "velocity": 111,
      "chip": "ym2612"
    },
    {
      "channel": 3,
      "note": 54,
      "start": 50.4227,
      "duration": 0.1456,
      "velocity": 93,
      "chip": "ym2612"
    },
    {
      "channel": 1,
      "note": 61,
      "start": 50.4251,
      "duration": 0.1431,
      "velocity": 111,
      "chip": "ym2612"
    },
    {
      "channel": 4,
      "note": 66,
      "start": 50.4278,
      "duration": 0.1407,
      "velocity": 111,
      "chip": "ym2612"
    },
    {
      "channel": 0,
      "note": 71,
      "start": 50.4301,
      "duration": 0.138,
      "velocity": 111,
      "chip": "ym2612"
    },
    {
      "channel": 3,
      "note": 54,
      "start": 50.5712,
      "duration": 0.1471,
      "velocity": 93,
      "chip": "ym2612"
    },
    {
      "channel": 1,
      "note": 61,
      "start": 50.5737,
      "duration": 0.1445,
      "velocity": 111,
      "chip": "ym2612"
    },
    {
      "channel": 4,
      "note": 66,
      "start": 50.5763,
      "duration": 0.1421,
      "velocity": 111,
      "chip": "ym2612"
    },
    {
      "channel": 0,
      "note": 71,
      "start": 50.5787,
      "duration": 0.1394,
      "velocity": 111,
      "chip": "ym2612"
    },
    {
      "channel": 3,
      "note": 54,
      "start": 50.7209,
      "duration": 0.0705,
      "velocity": 93,
      "chip": "ym2612"
    },
    {
      "channel": 1,
      "note": 61,
      "start": 50.7231,
      "duration": 0.0683,
      "velocity": 111,
      "chip": "ym2612"
    },
    {
      "channel": 4,
      "note": 66,
      "start": 50.7254,
      "duration": 0.066,
      "velocity": 111,
      "chip": "ym2612"
    },
    {
      "channel": 0,
      "note": 71,
      "start": 50.7276,
      "duration": 0.0637,
      "velocity": 111,
      "chip": "ym2612"
    },
    {
      "channel": 3,
      "note": 54,
      "start": 50.7936,
      "duration": 0.0578,
      "velocity": 93,
      "chip": "ym2612"
    },
    {
      "channel": 1,
      "note": 61,
      "start": 50.7956,
      "duration": 0.0557,
      "velocity": 111,
      "chip": "ym2612"
    },
    {
      "channel": 4,
      "note": 66,
      "start": 50.7978,
      "duration": 0.0537,
      "velocity": 111,
      "chip": "ym2612"
    },
    {
      "channel": 0,
      "note": 73,
      "start": 50.8007,
      "duration": 0.0505,
      "velocity": 111,
      "chip": "ym2612"
    },
    {
      "channel": 3,
      "note": 54,
      "start": 50.8546,
      "duration": 0.1171,
      "velocity": 93,
      "chip": "ym2612"
    },
    {
      "channel": 1,
      "note": 61,
      "start": 50.8566,
      "duration": 0.1149,
      "velocity": 111,
      "chip": "ym2612"
    },
    {
      "channel": 4,
      "note": 66,
      "start": 50.8586,
      "duration": 0.1132,
      "velocity": 111,
      "chip": "ym2612"
    },
    {
      "channel": 0,
      "note": 71,
      "start": 50.8606,
      "duration": 0.1108,
      "velocity": 111,
      "chip": "ym2612"
    },
    {
      "channel": 3,
      "note": 54,
      "start": 50.9745,
      "duration": 0.1447,
      "velocity": 93,
      "chip": "ym2612"
    },
    {
      "channel": 1,
      "note": 61,
      "start": 50.9775,
      "duration": 0.1416,
      "velocity": 111,
      "chip": "ym2612"
    },
    {
      "channel": 4,
      "note": 66,
      "start": 50.9802,
      "duration": 0.1392,
      "velocity": 111,
      "chip": "ym2612"
    },
    {
      "channel": 0,
      "note": 70,
      "start": 50.983,
      "duration": 0.1359,
      "velocity": 111,
      "chip": "ym2612"
    },
    {
      "channel": 3,
      "note": 54,
      "start": 51.1222,
      "duration": 0.1471,
      "velocity": 93,
      "chip": "ym2612"
    },
    {
      "channel": 1,
      "note": 61,
      "start": 51.1246,
      "duration": 0.1445,
      "velocity": 111,
      "chip": "ym2612"
    },
    {
      "channel": 4,
      "note": 66,
      "start": 51.1272,
      "duration": 0.1421,
      "velocity": 111,
      "chip": "ym2612"
    },
    {
      "channel": 0,
      "note": 70,
      "start": 51.1296,
      "duration": 0.1393,
      "velocity": 111,
      "chip": "ym2612"
    },
    {
      "channel": 3,
      "note": 54,
      "start": 51.2718,
      "duration": 0.0705,
      "velocity": 93,
      "chip": "ym2612"
    },
    {
      "channel": 1,
      "note": 61,
      "start": 51.274,
      "duration": 0.0683,
      "velocity": 111,
      "chip": "ym2612"
    },
    {
      "channel": 4,
      "note": 66,
      "start": 51.2763,
      "duration": 0.0661,
      "velocity": 111,
      "chip": "ym2612"
    },
    {
      "channel": 0,
      "note": 70,
      "start": 51.2784,
      "duration": 0.0638,
      "velocity": 111,
      "chip": "ym2612"
    },
    {
      "channel": 3,
      "note": 54,
      "start": 51.3445,
      "duration": 0.0649,
      "velocity": 93,
      "chip": "ym2612"
    },
    {
      "channel": 1,
      "note": 61,
      "start": 51.3465,
      "duration": 0.0629,
      "velocity": 111,
      "chip": "ym2612"
    },
    {
      "channel": 4,
      "note": 66,
      "start": 51.3487,
      "duration": 0.0608,
      "velocity": 111,
      "chip": "ym2612"
    },
    {
      "channel": 0,
      "note": 70,
      "start": 51.3517,
      "duration": 0.0577,
      "velocity": 111,
      "chip": "ym2612"
    },
    {
      "channel": 3,
      "note": 54,
      "start": 51.4117,
      "duration": 0.1279,
      "velocity": 93,
      "chip": "ym2612"
    },
    {
      "channel": 1,
      "note": 59,
      "start": 51.4137,
      "duration": 0.1258,
      "velocity": 111,
      "chip": "ym2612"
    },
    {
      "channel": 4,
      "note": 64,
      "start": 51.4157,
      "duration": 0.124,
      "velocity": 111,
      "chip": "ym2612"
    },
    {
      "channel": 0,
      "note": 68,
      "start": 51.4185,
      "duration": 0.1208,
      "velocity": 111,
      "chip": "ym2612"
    },
    {
      "channel": 3,
      "note": 54,
      "start": 51.5425,
      "duration": 0.1277,
      "velocity": 93,
      "chip": "ym2612"
    },
    {
      "channel": 1,
      "note": 61,
      "start": 51.5449,
      "duration": 0.1251,
      "velocity": 111,
      "chip": "ym2612"
    },
    {
      "channel": 4,
      "note": 66,
      "start": 51.5476,
      "duration": 0.1227,
      "velocity": 111,
      "chip": "ym2612"
    },
    {
      "channel": 0,
      "note": 70,
      "start": 51.5499,
      "duration": 0.12,
      "velocity": 111,
      "chip": "ym2612"
    },
    {
      "channel": 3,
      "note": 54,
      "start": 51.673,
      "duration": 0.1471,
      "velocity": 93,
      "chip": "ym2612"
    },
    {
      "channel": 1,
      "note": 61,
      "start": 51.6755,
      "duration": 0.1445,
      "velocity": 111,
      "chip": "ym2612"
    },
    {
      "channel": 4,
      "note": 66,
      "start": 51.6787,
      "duration": 0.1416,
      "velocity": 111,
      "chip": "ym2612"
    },
    {
      "channel": 0,
      "note": 70,
      "start": 51.681,
      "duration": 0.1388,
      "velocity": 111,
      "chip": "ym2612"
    },
    {
      "channel": 3,
      "note": 55,
      "start": 51.8228,
      "duration": 0.0705,
      "velocity": 93,
      "chip": "ym2612"
    },
    {
      "channel": 1,
      "note": 62,
      "start": 51.8249,
      "duration": 0.0683,
      "velocity": 111,
      "chip": "ym2612"
    },
    {
      "channel": 4,
      "note": 67,
      "start": 51.8273,
      "duration": 0.0661,
      "velocity": 111,
      "chip": "ym2612"
    },
    {
      "channel": 0,
      "note": 71,
      "start": 51.8293,
      "duration": 0.0638,
      "velocity": 111,
      "chip": "ym2612"
    },
    {
      "channel": 3,
      "note": 55,
      "start": 51.8955,
      "duration": 0.0683,
      "velocity": 93,
      "chip": "ym2612"
    },
    {
      "channel": 1,
      "note": 62,
      "start": 51.8975,
      "duration": 0.0662,
      "velocity": 111,
      "chip": "ym2612"
    },
    {
      "channel": 4,
      "note": 67,
      "start": 51.8997,
      "duration": 0.0641,
      "velocity": 111,
      "chip": "ym2612"
    },
    {
      "channel": 0,
      "note": 71,
      "start": 51.903,
      "duration": 0.0606,
      "velocity": 111,
      "chip": "ym2612"
    },
    {
      "channel": 3,
      "note": 57,
      "start": 51.967,
      "duration": 0.0661,
      "velocity": 93,
      "chip": "ym2612"
    },
    {
      "channel": 1,
      "note": 64,
      "start": 51.9691,
      "duration": 0.0639,
      "velocity": 111,
      "chip": "ym2612"
    },
    {
      "channel": 4,
      "note": 69,
      "start": 51.9712,
      "duration": 0.0619,
      "velocity": 111,
      "chip": "ym2612"
    },
    {
      "channel": 0,
      "note": 73,
      "start": 51.9732,
      "duration": 0.0598,
      "velocity": 111,
      "chip": "ym2612"
    },
    {
      "channel": 3,
      "note": 59,
      "start": 52.037,
      "duration": 0.0647,
      "velocity": 93,
      "chip": "ym2612"
    },
    {
      "channel": 1,
      "note": 62,
      "start": 52.0393,
      "duration": 0.1264,
      "velocity": 111,
      "chip": "ym2612"
    },
    {
      "channel": 4,
      "note": 66,
      "start": 52.0416,
      "duration": 0.1243,
      "velocity": 111,
      "chip": "ym2612"
    },
    {
      "channel": 0,
      "note": 71,
      "start": 52.0449,
      "duration": 0.1207,
      "velocity": 111,
      "chip": "ym2612"
    },
    {
      "channel": 3,
      "note": 59,
      "start": 52.1693,
      "duration": 0.0652,
      "velocity": 93,
      "chip": "ym2612"
    },
    {
      "channel": 1,
      "note": 62,
      "start": 52.1713,
      "duration": 0.1204,
      "velocity": 111,
      "chip": "ym2612"
    },
    {
      "channel": 4,
      "note": 66,
      "start": 52.1733,
      "duration": 0.1185,
      "velocity": 111,
      "chip": "ym2612"
    },
    {
      "channel": 0,
      "note": 71,
      "start": 52.1754,
      "duration": 0.0589,
      "velocity": 111,
      "chip": "ym2612"
    },
    {
      "channel": 1,
      "note": 62,
      "start": 52.2952,
      "duration": 0.1151,
      "velocity": 111,
      "chip": "ym2612"
    },
    {
      "channel": 4,
      "note": 66,
      "start": 52.2976,
      "duration": 0.1129,
      "velocity": 111,
      "chip": "ym2612"
    },
    {
      "channel": 1,
      "note": 62,
      "start": 52.413,
      "duration": 0.1472,
      "velocity": 111,
      "chip": "ym2612"
    },
    {
      "channel": 4,
      "note": 66,
      "start": 52.4154,
      "duration": 0.145,
      "velocity": 111,
      "chip": "ym2612"
    },
    {
      "channel": 3,
      "note": 59,
      "start": 52.5631,
      "duration": 0.069,
      "velocity": 93,
      "chip": "ym2612"
    },
    {
      "channel": 1,
      "note": 62,
      "start": 52.5655,
      "duration": 0.131,
      "velocity": 111,
      "chip": "ym2612"
    },
    {
      "channel": 4,
      "note": 66,
      "start": 52.5682,
      "duration": 0.1285,
      "velocity": 111,
      "chip": "ym2612"
    },
    {
      "channel": 0,
      "note": 71,
      "start": 52.5705,
      "duration": 0.126,
      "velocity": 111,
      "chip": "ym2612"
    },
    {
      "channel": 3,
      "note": 59,
      "start": 52.7002,
      "duration": 0.0668,
      "velocity": 93,
      "chip": "ym2612"
    },
    {
      "channel": 1,
      "note": 62,
      "start": 52.7022,
      "duration": 0.1292,
      "velocity": 111,
      "chip": "ym2612"
    },
    {
      "channel": 4,
      "note": 66,
      "start": 52.7045,
      "duration": 0.127,
      "velocity": 111,
      "chip": "ym2612"
    },
    {
      "channel": 0,
      "note": 71,
      "start": 52.7067,
      "duration": 0.0602,
      "velocity": 111,
      "chip": "ym2612"
    },
    {
      "channel": 1,
      "note": 62,
      "start": 52.8339,
      "duration": 0.1272,
      "velocity": 111,
      "chip": "ym2612"
    },
    {
      "channel": 4,
      "note": 66,
      "start": 52.8363,
      "duration": 0.1249,
      "velocity": 111,
      "chip": "ym2612"
    },
    {
      "channel": 1,
      "note": 62,
      "start": 52.9643,
      "duration": 0.1302,
      "velocity": 111,
      "chip": "ym2612"
    },
    {
      "channel": 4,
      "note": 66,
      "start": 52.9667,
      "duration": 0.128,
      "velocity": 111,
      "chip": "ym2612"
    },
    {
      "channel": 3,
      "note": 59,
      "start": 53.0973,
      "duration": 0.0696,
      "velocity": 93,
      "chip": "ym2612"
    },
    {
      "channel": 1,
      "note": 62,
      "start": 53.0998,
      "duration": 0.132,
      "velocity": 111,
      "chip": "ym2612"
    },
    {
      "channel": 4,
      "note": 66,
      "start": 53.1024,
      "duration": 0.1294,
      "velocity": 111,
      "chip": "ym2612"
    },
    {
      "channel": 0,
      "note": 71,
      "start": 53.1053,
      "duration": 0.1263,
      "velocity": 111,
      "chip": "ym2612"
    },
    {
      "channel": 3,
      "note": 59,
      "start": 53.235,
      "duration": 0.0668,
      "velocity": 93,
      "chip": "ym2612"
    },
    {
      "channel": 1,
      "note": 62,
      "start": 53.2369,
      "duration": 0.1298,
      "velocity": 111,
      "chip": "ym2612"
    },
    {
      "channel": 4,
      "note": 66,
      "start": 53.2392,
      "duration": 0.1276,
      "velocity": 111,
      "chip": "ym2612"
    },
    {
      "channel": 0,
      "note": 71,
      "start": 53.2415,
      "duration": 0.0602,
      "velocity": 111,
      "chip": "ym2612"
    },
    {
      "channel": 1,
      "note": 62,
      "start": 53.3692,
      "duration": 0.1272,
      "velocity": 111,
      "chip": "ym2612"
    },
    {
      "channel": 4,
      "note": 66,
      "start": 53.3716,
      "duration": 0.1249,
      "velocity": 111,
      "chip": "ym2612"
    },
    {
      "channel": 1,
      "note": 62,
      "start": 53.4991,
      "duration": 0.1473,
      "velocity": 111,
      "chip": "ym2612"
    },
    {
      "channel": 4,
      "note": 66,
      "start": 53.5015,
      "duration": 0.1452,
      "velocity": 111,
      "chip": "ym2612"
    },
    {
      "channel": 3,
      "note": 55,
      "start": 53.6492,
      "duration": 0.0696,
      "velocity": 93,
      "chip": "ym2612"
    },
    {
      "channel": 1,
      "note": 59,
      "start": 53.6514,
      "duration": 0.0674,
      "velocity": 111,
      "chip": "ym2612"
    },
    {
      "channel": 4,
      "note": 62,
      "start": 53.6537,
      "duration": 0.0652,
      "velocity": 111,
      "chip": "ym2612"
    },
    {
      "channel": 0,
      "note": 67,
      "start": 53.656,
      "duration": 0.0627,
      "velocity": 111,
      "chip": "ym2612"
    },
    {
      "channel": 3,
      "note": 55,
      "start": 53.721,
      "duration": 0.0599,
      "velocity": 93,
      "chip": "ym2612"
    },
    {
      "channel": 1,
      "note": 59,
      "start": 53.723,
      "duration": 0.0578,
      "velocity": 111,
      "chip": "ym2612"
    },
    {
      "channel": 4,
      "note": 62,
      "start": 53.7252,
      "duration": 0.0557,
      "velocity": 111,
      "chip": "ym2612"
    },
    {
      "channel": 0,
      "note": 67,
      "start": 53.7281,
      "duration": 0.0526,
      "velocity": 111,
      "chip": "ym2612"
    },
    {
      "channel": 3,
      "note": 55,
      "start": 53.7831,
      "duration": 0.0681,
      "velocity": 93,
      "chip": "ym2612"
    },
    {
      "channel": 1,
      "note": 59,
      "start": 53.7851,
      "duration": 0.0661,
      "velocity": 111,
      "chip": "ym2612"
    },
    {
      "channel": 4,
      "note": 62,
      "start": 53.7881,
      "duration": 0.0632,
      "velocity": 111,
      "chip": "ym2612"
    },
    {
      "channel": 0,
      "note": 67,
      "start": 53.79,
      "duration": 0.061,
      "velocity": 111,
      "chip": "ym2612"
    },
    {
      "channel": 3,
      "note": 57,
      "start": 53.8546,
      "duration": 0.0679,
      "velocity": 93,
      "chip": "ym2612"
    },
    {
      "channel": 1,
      "note": 61,
      "start": 53.8566,
      "duration": 0.0658,
      "velocity": 111,
      "chip": "ym2612"
    },
    {
      "channel": 4,
      "note": 64,
      "start": 53.8588,
      "duration": 0.0637,
      "velocity": 111,
      "chip": "ym2612"
    },
    {
      "channel": 0,
      "note": 69,
      "start": 53.8612,
      "duration": 0.0611,
      "velocity": 111,
      "chip": "ym2612"
    },
    {
      "channel": 3,
      "note": 57,
      "start": 53.9256,
      "duration": 0.0666,
      "velocity": 93,
      "chip": "ym2612"
    },
    {
      "channel": 1,
      "note": 61,
      "start": 53.9277,
      "duration": 0.0644,
      "velocity": 111,
      "chip": "ym2612"
    },
    {
      "channel": 4,
      "note": 64,
      "start": 53.9303,
      "duration": 0.062,
      "velocity": 111,
      "chip": "ym2612"
    },
    {
      "channel": 0,
      "note": 69,
      "start": 53.9323,
      "duration": 0.0598,
      "velocity": 111,
      "chip": "ym2612"
    },
    {
      "channel": 3,
      "note": 57,
      "start": 53.9944,
      "duration": 0.0691,
      "velocity": 93,
      "chip": "ym2612"
    },
    {
      "channel": 1,
      "note": 61,
      "start": 53.9975,
      "duration": 0.0659,
      "velocity": 111,
      "chip": "ym2612"
    },
    {
      "channel": 4,
      "note": 64,
      "start": 53.9996,
      "duration": 0.064,
      "velocity": 111,
      "chip": "ym2612"
    },
    {
      "channel": 0,
      "note": 69,
      "start": 54.002,
      "duration": 0.0613,
      "velocity": 111,
      "chip": "ym2612"
    },
    {
      "channel": 3,
      "note": 59,
      "start": 54.0669,
      "duration": 0.0646,
      "velocity": 93,
      "chip": "ym2612"
    },
    {
      "channel": 1,
      "note": 62,
      "start": 54.0691,
      "duration": 0.1271,
      "velocity": 111,
      "chip": "ym2612"
    },
    {
      "channel": 4,
      "note": 66,
      "start": 54.0714,
      "duration": 0.1249,
      "velocity": 111,
      "chip": "ym2612"
    },
    {
      "channel": 0,
      "note": 71,
      "start": 54.0748,
      "duration": 0.1213,
      "velocity": 111,
      "chip": "ym2612"
    },
    {
      "channel": 3,
      "note": 59,
      "start": 54.1996,
      "duration": 0.0651,
      "velocity": 93,
      "chip": "ym2612"
    },
    {
      "channel": 1,
      "note": 62,
      "start": 54.2016,
      "duration": 0.1289,
      "velocity": 111,
      "chip": "ym2612"
    },
    {
      "channel": 4,
      "note": 66,
      "start": 54.2037,
      "duration": 0.1269,
      "velocity": 111,
      "chip": "ym2612"
    },
    {
      "channel": 0,
      "note": 71,
      "start": 54.206,
      "duration": 0.0586,
      "velocity": 111,
      "chip": "ym2612"
    },
    {
      "channel": 1,
      "note": 62,
      "start": 54.3331,
      "duration": 0.0569,
      "velocity": 111,
      "chip": "ym2612"
    },
    {
      "channel": 4,
      "note": 66,
      "start": 54.3365,
      "duration": 0.0538,
      "velocity": 111,
      "chip": "ym2612"
    },
    {
      "channel": 1,
      "note": 62,
      "start": 54.3934,
      "duration": 0.0634,
      "velocity": 111,
      "chip": "ym2612"
    },
    {
      "channel": 4,
      "note": 66,
      "start": 54.3955,
      "duration": 0.0614,
      "velocity": 111,
      "chip": "ym2612"
    },
    {
      "channel": 3,
      "note": 59,
      "start": 54.4594,
      "duration": 0.0689,
      "velocity": 93,
      "chip": "ym2612"
    },
    {
      "channel": 1,
      "note": 62,
      "start": 54.4616,
      "duration": 0.132,
      "velocity": 111,
      "chip": "ym2612"
    },
    {
      "channel": 4,
      "note": 66,
      "start": 54.4641,
      "duration": 0.1296,
      "velocity": 111,
      "chip": "ym2612"
    },
    {
      "channel": 0,
      "note": 71,
      "start": 54.4676,
      "duration": 0.1259,
      "velocity": 111,
      "chip": "ym2612"
    },
    {
      "channel": 3,
      "note": 59,
      "start": 54.5971,
      "duration": 0.0654,
      "velocity": 93,
      "chip": "ym2612"
    },
    {
      "channel": 1,
      "note": 62,
      "start": 54.5992,
      "duration": 0.1292,
      "velocity": 111,
      "chip": "ym2612"
    },
    {
      "channel": 4,
      "note": 66,
      "start": 54.6012,
      "duration": 0.1273,
      "velocity": 111,
      "chip": "ym2612"
    },
    {
      "channel": 0,
      "note": 71,
      "start": 54.6033,
      "duration": 0.0591,
      "velocity": 111,
      "chip": "ym2612"
    },
    {
      "channel": 1,
      "note": 62,
      "start": 54.731,
      "duration": 0.0644,
      "velocity": 111,
      "chip": "ym2612"
    },
    {
      "channel": 4,
      "note": 66,
      "start": 54.7343,
      "duration": 0.0611,
      "velocity": 111,
      "chip": "ym2612"
    },
    {
      "channel": 1,
      "note": 62,
      "start": 54.7978,
      "duration": 0.0656,
      "velocity": 111,
      "chip": "ym2612"
    },
    {
      "channel": 4,
      "note": 66,
      "start": 54.8001,
      "duration": 0.0635,
      "velocity": 111,
      "chip": "ym2612"
    },
    {
      "channel": 3,
      "note": 59,
      "start": 54.8659,
      "duration": 0.0614,
      "velocity": 93,
      "chip": "ym2612"
    },
    {
      "channel": 1,
      "note": 62,
      "start": 54.8685,
      "duration": 0.1222,
      "velocity": 111,
      "chip": "ym2612"
    },
    {
      "channel": 4,
      "note": 66,
      "start": 54.8718,
      "duration": 0.1191,
      "velocity": 111,
      "chip": "ym2612"
    },
    {
      "channel": 0,
      "note": 71,
      "start": 54.874,
      "duration": 0.1167,
      "velocity": 111,
      "chip": "ym2612"
    },
    {
      "channel": 3,
      "note": 59,
      "start": 54.9932,
      "duration": 0.0666,
      "velocity": 93,
      "chip": "ym2612"
    },
    {
      "channel": 1,
      "note": 62,
      "start": 54.9951,
      "duration": 0.1315,
      "velocity": 111,
      "chip": "ym2612"
    },
    {
      "channel": 4,
      "note": 66,
      "start": 54.9983,
      "duration": 0.1285,
      "velocity": 111,
      "chip": "ym2612"
    },
    {
      "channel": 0,
      "note": 71,
      "start": 55.0005,
      "duration": 0.0591,
      "velocity": 111,
      "chip": "ym2612"
    },
    {
      "channel": 1,
      "note": 62,
      "start": 55.1293,
      "duration": 0.0647,
      "velocity": 111,
      "chip": "ym2612"
    },
    {
      "channel": 4,
      "note": 66,
      "start": 55.1326,
      "duration": 0.0615,
      "velocity": 111,
      "chip": "ym2612"
    },
    {
      "channel": 1,
      "note": 62,
      "start": 55.1965,
      "duration": 0.0655,
      "velocity": 111,
      "chip": "ym2612"
    },
    {
      "channel": 4,
      "note": 66,
      "start": 55.1987,
      "duration": 0.0634,
      "velocity": 111,
      "chip": "ym2612"
    },
    {
      "channel": 3,
      "note": 55,
      "start": 55.2644,
      "duration": 0.0675,
      "velocity": 93,
      "chip": "ym2612"
    },
    {
      "channel": 1,
      "note": 59,
      "start": 55.2664,
      "duration": 0.0654,
      "velocity": 111,
      "chip": "ym2612"
    },
    {
      "channel": 4,
      "note": 62,
      "start": 55.2696,
      "duration": 0.0624,
      "velocity": 111,
      "chip": "ym2612"
    },
    {
      "channel": 0,
      "note": 67,
      "start": 55.2718,
      "duration": 0.06,
      "velocity": 111,
      "chip": "ym2612"
    },
    {
      "channel": 3,
      "note": 55,
      "start": 55.3346,
      "duration": 0.0659,
      "velocity": 93,
      "chip": "ym2612"
    },
    {
      "channel": 1,
      "note": 59,
      "start": 55.3376,
      "duration": 0.0629,
      "velocity": 111,
      "chip": "ym2612"
    },
    {
      "channel": 4,
      "note": 62,
      "start": 55.3399,
      "duration": 0.0608,
      "velocity": 111,
      "chip": "ym2612"
    },
    {
      "channel": 0,
      "note": 67,
      "start": 55.3418,
      "duration": 0.0586,
      "velocity": 111,
      "chip": "ym2612"
    },
    {
      "channel": 3,
      "note": 55,
      "start": 55.4039,
      "duration": 0.0591,
      "velocity": 93,
      "chip": "ym2612"
    },
    {
      "channel": 1,
      "note": 59,
      "start": 55.4059,
      "duration": 0.057,
      "velocity": 111,
      "chip": "ym2612"
    },
    {
      "channel": 4,
      "note": 62,
      "start": 55.4082,
      "duration": 0.0549,
      "velocity": 111,
      "chip": "ym2612"
    },
    {
      "channel": 0,
      "note": 67,
      "start": 55.4106,
      "duration": 0.0523,
      "velocity": 111,
      "chip": "ym2612"
    },
    {
      "channel": 3,
      "note": 57,
      "start": 55.4652,
      "duration": 0.0676,
      "velocity": 93,
      "chip": "ym2612"
    },
    {
      "channel": 1,
      "note": 61,
      "start": 55.4672,
      "duration": 0.0655,
      "velocity": 111,
      "chip": "ym2612"
    },
    {
      "channel": 4,
      "note": 64,
      "start": 55.4703,
      "duration": 0.0626,
      "velocity": 111,
      "chip": "ym2612"
    },
    {
      "channel": 0,
      "note": 69,
      "start": 55.4722,
      "duration": 0.0605,
      "velocity": 111,
      "chip": "ym2612"
    },
    {
      "channel": 3,
      "note": 57,
      "start": 55.5361,
      "duration": 0.0668,
      "velocity": 93,
      "chip": "ym2612"
    },
    {
      "channel": 1,
      "note": 61,
      "start": 55.538,
      "duration": 0.0649,
      "velocity": 111,
      "chip": "ym2612"
    },
    {
      "channel": 4,
      "note": 64,
      "start": 55.5402,
      "duration": 0.0628,
      "velocity": 111,
      "chip": "ym2612"
    },
    {
      "channel": 0,
      "note": 69,
      "start": 55.5422,
      "duration": 0.0605,
      "velocity": 111,
      "chip": "ym2612"
    },
    {
      "channel": 3,
      "note": 57,
      "start": 55.6063,
      "duration": 0.0671,
      "velocity": 93,
      "chip": "ym2612"
    },
    {
      "channel": 1,
      "note": 61,
      "start": 55.6083,
      "duration": 0.065,
      "velocity": 111,
      "chip": "ym2612"
    },
    {
      "channel": 4,
      "note": 64,
      "start": 55.6105,
      "duration": 0.0629,
      "velocity": 111,
      "chip": "ym2612"
    },
    {
      "channel": 0,
      "note": 69,
      "start": 55.6126,
      "duration": 0.0606,
      "velocity": 111,
      "chip": "ym2612"
    },
    {
      "channel": 3,
      "note": 55,
      "start": 55.6768,
      "duration": 0.0661,
      "velocity": 93,
      "chip": "ym2612"
    },
    {
      "channel": 1,
      "note": 59,
      "start": 55.6791,
      "duration": 0.1298,
      "velocity": 111,
      "chip": "ym2612"
    },
    {
      "channel": 4,
      "note": 62,
      "start": 55.6818,
      "duration": 0.1271,
      "velocity": 111,
      "chip": "ym2612"
    },
    {
      "channel": 0,
      "note": 67,
      "start": 55.6851,
      "duration": 0.1237,
      "velocity": 111,
      "chip": "ym2612"
    },
    {
      "channel": 3,
      "note": 55,
      "start": 55.8123,
      "duration": 0.0661,
      "velocity": 93,
      "chip": "ym2612"
    },
    {
      "channel": 1,
      "note": 59,
      "start": 55.8144,
      "duration": 0.1332,
      "velocity": 111,
      "chip": "ym2612"
    },
    {
      "channel": 4,
      "note": 62,
      "start": 55.8167,
      "duration": 0.1311,
      "velocity": 111,
      "chip": "ym2612"
    },
    {
      "channel": 0,
      "note": 67,
      "start": 55.8191,
      "duration": 0.0592,
      "velocity": 111,
      "chip": "ym2612"
    },
    {
      "channel": 3,
      "note": 55,
      "start": 55.8806,
      "duration": 0.0671,
      "velocity": 93,
      "chip": "ym2612"
    },
    {
      "channel": 0,
      "note": 67,
      "start": 55.8841,
      "duration": 0.0635,
      "velocity": 111,
      "chip": "ym2612"
    },
    {
      "channel": 3,
      "note": 55,
      "start": 55.9499,
      "duration": 0.0584,
      "velocity": 93,
      "chip": "ym2612"
    },
    {
      "channel": 1,
      "note": 59,
      "start": 55.9521,
      "duration": 0.0562,
      "velocity": 111,
      "chip": "ym2612"
    },
    {
      "channel": 4,
      "note": 62,
      "start": 55.9545,
      "duration": 0.0539,
      "velocity": 111,
      "chip": "ym2612"
    },
    {
      "channel": 0,
      "note": 67,
      "start": 55.9579,
      "duration": 0.0503,
      "velocity": 111,
      "chip": "ym2612"
    },
    {
      "channel": 3,
      "note": 55,
      "start": 56.0114,
      "duration": 0.0661,
      "velocity": 93,
      "chip": "ym2612"
    },
    {
      "channel": 1,
      "note": 59,
      "start": 56.0134,
      "duration": 0.064,
      "velocity": 111,
      "chip": "ym2612"
    },
    {
      "channel": 4,
      "note": 62,
      "start": 56.0157,
      "duration": 0.0619,
      "velocity": 111,
      "chip": "ym2612"
    },
    {
      "channel": 0,
      "note": 67,
      "start": 56.0176,
      "duration": 0.0598,
      "velocity": 111,
      "chip": "ym2612"
    },
    {
      "channel": 3,
      "note": 55,
      "start": 56.08,
      "duration": 0.0688,
      "velocity": 93,
      "chip": "ym2612"
    },
    {
      "channel": 1,
      "note": 59,
      "start": 56.0834,
      "duration": 0.1314,
      "velocity": 111,
      "chip": "ym2612"
    },
    {
      "channel": 4,
      "note": 62,
      "start": 56.0857,
      "duration": 0.1291,
      "velocity": 111,
      "chip": "ym2612"
    },
    {
      "channel": 0,
      "note": 67,
      "start": 56.0887,
      "duration": 0.126,
      "velocity": 111,
      "chip": "ym2612"
    },
    {
      "channel": 3,
      "note": 55,
      "start": 56.2182,
      "duration": 0.0671,
      "velocity": 93,
      "chip": "ym2612"
    },
    {
      "channel": 1,
      "note": 59,
      "start": 56.2203,
      "duration": 0.1341,
      "velocity": 111,
      "chip": "ym2612"
    },
    {
      "channel": 4,
      "note": 62,
      "start": 56.2226,
      "duration": 0.1319,
      "velocity": 111,
      "chip": "ym2612"
    },
    {
      "channel": 0,
      "note": 67,
      "start": 56.2252,
      "duration": 0.0599,
      "velocity": 111,
      "chip": "ym2612"
    },
    {
      "channel": 3,
      "note": 55,
      "start": 56.2888,
      "duration": 0.0657,
      "velocity": 93,
      "chip": "ym2612"
    },
    {
      "channel": 0,
      "note": 67,
      "start": 56.2909,
      "duration": 0.0634,
      "velocity": 111,
      "chip": "ym2612"
    },
    {
      "channel": 3,
      "note": 55,
      "start": 56.3566,
      "duration": 0.0667,
      "velocity": 93,
      "chip": "ym2612"
    },
    {
      "channel": 1,
      "note": 59,
      "start": 56.3588,
      "duration": 0.0644,
      "velocity": 111,
      "chip": "ym2612"
    },
    {
      "channel": 4,
      "note": 62,
      "start": 56.3612,
      "duration": 0.0622,
      "velocity": 111,
      "chip": "ym2612"
    },
    {
      "channel": 0,
      "note": 67,
      "start": 56.3647,
      "duration": 0.0585,
      "velocity": 111,
      "chip": "ym2612"
    },
    {
      "channel": 3,
      "note": 55,
      "start": 56.4256,
      "duration": 0.0673,
      "velocity": 93,
      "chip": "ym2612"
    },
    {
      "channel": 1,
      "note": 59,
      "start": 56.4277,
      "duration": 0.0651,
      "velocity": 111,
      "chip": "ym2612"
    },
    {
      "channel": 4,
      "note": 62,
      "start": 56.43,
      "duration": 0.063,
      "velocity": 111,
      "chip": "ym2612"
    },
    {
      "channel": 0,
      "note": 67,
      "start": 56.4329,
      "duration": 0.0599,
      "velocity": 111,
      "chip": "ym2612"
    },
    {
      "channel": 3,
      "note": 55,
      "start": 56.4962,
      "duration": 0.0657,
      "velocity": 93,
      "chip": "ym2612"
    },
    {
      "channel": 1,
      "note": 59,
      "start": 56.4984,
      "duration": 0.1237,
      "velocity": 111,
      "chip": "ym2612"
    },
    {
      "channel": 4,
      "note": 62,
      "start": 56.5007,
      "duration": 0.1215,
      "velocity": 111,
      "chip": "ym2612"
    },
    {
      "channel": 0,
      "note": 67,
      "start": 56.503,
      "duration": 0.1191,
      "velocity": 111,
      "chip": "ym2612"
    },
    {
      "channel": 3,
      "note": 55,
      "start": 56.6245,
      "duration": 0.0677,
      "velocity": 93,
      "chip": "ym2612"
    },
    {
      "channel": 1,
      "note": 59,
      "start": 56.6279,
      "duration": 0.1335,
      "velocity": 111,
      "chip": "ym2612"
    },
    {
      "channel": 4,
      "note": 62,
      "start": 56.6301,
      "duration": 0.1313,
      "velocity": 111,
      "chip": "ym2612"
    },
    {
      "channel": 0,
      "note": 67,
      "start": 56.6329,
      "duration": 0.0591,
      "velocity": 111,
      "chip": "ym2612"
    },
    {
      "channel": 3,
      "note": 55,
      "start": 56.6956,
      "duration": 0.0658,
      "velocity": 93,
      "chip": "ym2612"
    },
    {
      "channel": 0,
      "note": 67,
      "start": 56.6978,
      "duration": 0.0635,
      "velocity": 111,
      "chip": "ym2612"
    },
    {
      "channel": 3,
      "note": 55,
      "start": 56.7636,
      "duration": 0.0673,
      "velocity": 93,
      "chip": "ym2612"
    },
    {
      "channel": 1,
      "note": 59,
      "start": 56.7658,
      "duration": 0.065,
      "velocity": 111,
      "chip": "ym2612"
    },
    {
      "channel": 4,
      "note": 62,
      "start": 56.7682,
      "duration": 0.0628,
      "velocity": 111,
      "chip": "ym2612"
    },
    {
      "channel": 0,
      "note": 67,
      "start": 56.7716,
      "duration": 0.0591,
      "velocity": 111,
      "chip": "ym2612"
    },
    {
      "channel": 3,
      "note": 55,
      "start": 56.8332,
      "duration": 0.0673,
      "velocity": 93,
      "chip": "ym2612"
    },
    {
      "channel": 1,
      "note": 59,
      "start": 56.8352,
      "duration": 0.0651,
      "velocity": 111,
      "chip": "ym2612"
    },
    {
      "channel": 4,
      "note": 62,
      "start": 56.8375,
      "duration": 0.063,
      "velocity": 111,
      "chip": "ym2612"
    },
    {
      "channel": 0,
      "note": 67,
      "start": 56.8405,
      "duration": 0.0599,
      "velocity": 111,
      "chip": "ym2612"
    },
    {
      "channel": 3,
      "note": 55,
      "start": 56.9035,
      "duration": 0.0654,
      "velocity": 93,
      "chip": "ym2612"
    },
    {
      "channel": 1,
      "note": 59,
      "start": 56.9058,
      "duration": 0.1307,
      "velocity": 111,
      "chip": "ym2612"
    },
    {
      "channel": 4,
      "note": 62,
      "start": 56.9082,
      "duration": 0.1284,
      "velocity": 111,
      "chip": "ym2612"
    },
    {
      "channel": 0,
      "note": 69,
      "start": 56.9102,
      "duration": 0.0585,
      "velocity": 111,
      "chip": "ym2612"
    },
    {
      "channel": 3,
      "note": 55,
      "start": 56.9714,
      "duration": 0.0652,
      "velocity": 93,
      "chip": "ym2612"
    },
    {
      "channel": 0,
      "note": 69,
      "start": 56.975,
      "duration": 0.0614,
      "velocity": 111,
      "chip": "ym2612"
    },
    {
      "channel": 3,
      "note": 55,
      "start": 57.039,
      "duration": 0.0676,
      "velocity": 93,
      "chip": "ym2612"
    },
    {
      "channel": 1,
      "note": 59,
      "start": 57.0411,
      "duration": 0.127,
      "velocity": 111,
      "chip": "ym2612"
    },
    {
      "channel": 4,
      "note": 62,
      "start": 57.0434,
      "duration": 0.1248,
      "velocity": 111,
      "chip": "ym2612"
    },
    {
      "channel": 0,
      "note": 69,
      "start": 57.0454,
      "duration": 0.0611,
      "velocity": 111,
      "chip": "ym2612"
    },
    {
      "channel": 3,
      "note": 57,
      "start": 57.1098,
      "duration": 0.0583,
      "velocity": 93,
      "chip": "ym2612"
    },
    {
      "channel": 0,
      "note": 69,
      "start": 57.1118,
      "duration": 0.0561,
      "velocity": 111,
      "chip": "ym2612"
    },
    {
      "channel": 3,
      "note": 57,
      "start": 57.1704,
      "duration": 0.0667,
      "velocity": 93,
      "chip": "ym2612"
    },
    {
      "channel": 1,
      "note": 61,
      "start": 57.1737,
      "duration": 0.0633,
      "velocity": 111,
      "chip": "ym2612"
    },
    {
      "channel": 4,
      "note": 64,
      "start": 57.176,
      "duration": 0.0612,
      "velocity": 111,
      "chip": "ym2612"
    },
    {
      "channel": 0,
      "note": 69,
      "start": 57.178,
      "duration": 0.0589,
      "velocity": 111,
      "chip": "ym2612"
    },
    {
      "channel": 3,
      "note": 57,
      "start": 57.2393,
      "duration": 0.0691,
      "velocity": 93,
      "chip": "ym2612"
    },
    {
      "channel": 1,
      "note": 61,
      "start": 57.2412,
      "duration": 0.067,
      "velocity": 111,
      "chip": "ym2612"
    },
    {
      "channel": 4,
      "note": 64,
      "start": 57.2434,
      "duration": 0.0651,
      "velocity": 111,
      "chip": "ym2612"
    },
    {
      "channel": 0,
      "note": 69,
      "start": 57.2471,
      "duration": 0.0611,
      "velocity": 111,
      "chip": "ym2612"
    },
    {
      "channel": 3,
      "note": 55,
      "start": 57.3123,
      "duration": 0.0651,
      "velocity": 93,
      "chip": "ym2612"
    },
    {
      "channel": 1,
      "note": 59,
      "start": 57.3145,
      "duration": 0.1313,
      "velocity": 111,
      "chip": "ym2612"
    },
    {
      "channel": 4,
      "note": 62,
      "start": 57.3175,
      "duration": 0.1284,
      "velocity": 111,
      "chip": "ym2612"
    },
    {
      "channel": 0,
      "note": 67,
      "start": 57.3207,
      "duration": 0.1249,
      "velocity": 111,
      "chip": "ym2612"
    },
    {
      "channel": 3,
      "note": 55,
      "start": 57.4483,
      "duration": 0.066,
      "velocity": 93,
      "chip": "ym2612"
    },
    {
      "channel": 1,
      "note": 59,
      "start": 57.4504,
      "duration": 0.1332,
      "velocity": 111,
      "chip": "ym2612"
    },
    {
      "channel": 4,
      "note": 62,
      "start": 57.4524,
      "duration": 0.1313,
      "velocity": 111,
      "chip": "ym2612"
    },
    {
      "channel": 0,
      "note": 67,
      "start": 57.4567,
      "duration": 0.0575,
      "velocity": 111,
      "chip": "ym2612"
    },
    {
      "channel": 3,
      "note": 55,
      "start": 57.5166,
      "duration": 0.067,
      "velocity": 93,
      "chip": "ym2612"
    },
    {
      "channel": 0,
      "note": 67,
      "start": 57.52,
      "duration": 0.0635,
      "velocity": 111,
      "chip": "ym2612"
    },
    {
      "channel": 3,
      "note": 55,
      "start": 57.5858,
      "duration": 0.0659,
      "velocity": 93,
      "chip": "ym2612"
    },
    {
      "channel": 1,
      "note": 59,
      "start": 57.588,
      "duration": 0.0636,
      "velocity": 111,
      "chip": "ym2612"
    },
    {
      "channel": 4,
      "note": 62,
      "start": 57.5904,
      "duration": 0.0613,
      "velocity": 111,
      "chip": "ym2612"
    },
    {
      "channel": 0,
      "note": 67,
      "start": 57.5939,
      "duration": 0.0576,
      "velocity": 111,
      "chip": "ym2612"
    },
    {
      "channel": 3,
      "note": 55,
      "start": 57.6539,
      "duration": 0.0609,
      "velocity": 93,
      "chip": "ym2612"
    },
    {
      "channel": 1,
      "note": 59,
      "start": 57.656,
      "duration": 0.0588,
      "velocity": 111,
      "chip": "ym2612"
    },
    {
      "channel": 4,
      "note": 62,
      "start": 57.6582,
      "duration": 0.0566,
      "velocity": 111,
      "chip": "ym2612"
    },
    {
      "channel": 0,
      "note": 67,
      "start": 57.6603,
      "duration": 0.0544,
      "velocity": 111,
      "chip": "ym2612"
    },
    {
      "channel": 3,
      "note": 55,
      "start": 57.7174,
      "duration": 0.0678,
      "velocity": 93,
      "chip": "ym2612"
    },
    {
      "channel": 1,
      "note": 59,
      "start": 57.7198,
      "duration": 0.1314,
      "velocity": 111,
      "chip": "ym2612"
    },
    {
      "channel": 4,
      "note": 62,
      "start": 57.7232,
      "duration": 0.128,
      "velocity": 111,
      "chip": "ym2612"
    },
    {
      "channel": 0,
      "note": 67,
      "start": 57.7256,
      "duration": 0.1255,
      "velocity": 111,
      "chip": "ym2612"
    },
    {
      "channel": 3,
      "note": 55,
      "start": 57.8546,
      "duration": 0.0671,
      "velocity": 93,
      "chip": "ym2612"
    },
    {
      "channel": 1,
      "note": 59,
      "start": 57.8567,
      "duration": 0.1346,
      "velocity": 111,
      "chip": "ym2612"
    },
    {
      "channel": 4,
      "note": 62,
      "start": 57.859,
      "duration": 0.1324,
      "velocity": 111,
      "chip": "ym2612"
    },
    {
      "channel": 0,
      "note": 67,
      "start": 57.8616,
      "duration": 0.06,
      "velocity": 111,
      "chip": "ym2612"
    },
    {
      "channel": 3,
      "note": 55,
      "start": 57.9252,
      "duration": 0.0662,
      "velocity": 93,
      "chip": "ym2612"
    },
    {
      "channel": 0,
      "note": 67,
      "start": 57.9273,
      "duration": 0.0639,
      "velocity": 111,
      "chip": "ym2612"
    },
    {
      "channel": 3,
      "note": 55,
      "start": 57.9935,
      "duration": 0.0667,
      "velocity": 93,
      "chip": "ym2612"
    },
    {
      "channel": 1,
      "note": 59,
      "start": 57.9957,
      "duration": 0.0644,
      "velocity": 111,
      "chip": "ym2612"
    },
    {
      "channel": 4,
      "note": 62,
      "start": 57.9981,
      "duration": 0.0622,
      "velocity": 111,
      "chip": "ym2612"
    },
    {
      "channel": 0,
      "note": 67,
      "start": 58.0016,
      "duration": 0.0585,
      "velocity": 111,
      "chip": "ym2612"
    },
    {
      "channel": 3,
      "note": 55,
      "start": 58.0626,
      "duration": 0.0673,
      "velocity": 93,
      "chip": "ym2612"
    },
    {
      "channel": 1,
      "note": 59,
      "start": 58.0646,
      "duration": 0.0651,
      "velocity": 111,
      "chip": "ym2612"
    },
    {
      "channel": 4,
      "note": 62,
      "start": 58.0669,
      "duration": 0.063,
      "velocity": 111,
      "chip": "ym2612"
    },
    {
      "channel": 0,
      "note": 67,
      "start": 58.0698,
      "duration": 0.0598,
      "velocity": 111,
      "chip": "ym2612"
    },
    {
      "channel": 3,
      "note": 55,
      "start": 58.1331,
      "duration": 0.0656,
      "velocity": 93,
      "chip": "ym2612"
    },
    {
      "channel": 1,
      "note": 59,
      "start": 58.1354,
      "duration": 0.1231,
      "velocity": 111,
      "chip": "ym2612"
    },
    {
      "channel": 4,
      "note": 62,
      "start": 58.1376,
      "duration": 0.121,
      "velocity": 111,
      "chip": "ym2612"
    },
    {
      "channel": 0,
      "note": 67,
      "start": 58.1399,
      "duration": 0.1185,
      "velocity": 111,
      "chip": "ym2612"
    },
    {
      "channel": 3,
      "note": 55,
      "start": 58.2609,
      "duration": 0.0676,
      "velocity": 93,
      "chip": "ym2612"
    },
    {
      "channel": 1,
      "note": 59,
      "start": 58.2642,
      "duration": 0.1327,
      "velocity": 111,
      "chip": "ym2612"
    },
    {
      "channel": 4,
      "note": 62,
      "start": 58.2665,
      "duration": 0.1305,
      "velocity": 111,
      "chip": "ym2612"
    },
    {
      "channel": 0,
      "note": 67,
      "start": 58.2693,
      "duration": 0.059,
      "velocity": 111,
      "chip": "ym2612"
    },
    {
      "channel": 3,
      "note": 55,
      "start": 58.3319,
      "duration": 0.0651,
      "velocity": 93,
      "chip": "ym2612"
    },
    {
      "channel": 0,
      "note": 67,
      "start": 58.334,
      "duration": 0.0628,
      "velocity": 111,
      "chip": "ym2612"
    },
    {
      "channel": 3,
      "note": 55,
      "start": 58.3991,
      "duration": 0.0674,
      "velocity": 93,
      "chip": "ym2612"
    },
    {
      "channel": 1,
      "note": 59,
      "start": 58.4013,
      "duration": 0.0651,
      "velocity": 111,
      "chip": "ym2612"
    },
    {
      "channel": 4,
      "note": 62,
      "start": 58.4037,
      "duration": 0.0629,
      "velocity": 111,
      "chip": "ym2612"
    },
    {
      "channel": 0,
      "note": 67,
      "start": 58.4072,
      "duration": 0.0592,
      "velocity": 111,
      "chip": "ym2612"
    },
    {
      "channel": 3,
      "note": 55,
      "start": 58.4689,
      "duration": 0.0676,
      "velocity": 93,
      "chip": "ym2612"
    },
    {
      "channel": 1,
      "note": 59,
      "start": 58.4709,
      "duration": 0.0655,
      "velocity": 111,
      "chip": "ym2612"
    },
    {
      "channel": 4,
      "note": 62,
      "start": 58.4732,
      "duration": 0.0634,
      "velocity": 111,
      "chip": "ym2612"
    },
    {
      "channel": 0,
      "note": 67,
      "start": 58.4761,
      "duration": 0.0602,
      "velocity": 111,
      "chip": "ym2612"
    },
    {
      "channel": 3,
      "note": 57,
      "start": 58.5399,
      "duration": 0.0675,
      "velocity": 93,
      "chip": "ym2612"
    },
    {
      "channel": 1,
      "note": 61,
      "start": 58.5419,
      "duration": 0.0655,
      "velocity": 111,
      "chip": "ym2612"
    },
    {
      "channel": 4,
      "note": 64,
      "start": 58.5441,
      "duration": 0.0634,
      "velocity": 111,
      "chip": "ym2612"
    },
    {
      "channel": 0,
      "note": 69,
      "start": 58.5465,
      "duration": 0.0607,
      "velocity": 111,
      "chip": "ym2612"
    },
    {
      "channel": 3,
      "note": 57,
      "start": 58.6097,
      "duration": 0.0668,
      "velocity": 93,
      "chip": "ym2612"
    },
    {
      "channel": 1,
      "note": 61,
      "start": 58.6116,
      "duration": 0.0648,
      "velocity": 111,
      "chip": "ym2612"
    },
    {
      "channel": 4,
      "note": 64,
      "start": 58.6138,
      "duration": 0.0628,
      "velocity": 111,
      "chip": "ym2612"
    },
    {
      "channel": 0,
      "note": 69,
      "start": 58.617,
      "duration": 0.0594,
      "velocity": 111,
      "chip": "ym2612"
    },
    {
      "channel": 3,
      "note": 57,
      "start": 58.6799,
      "duration": 0.0665,
      "velocity": 93,
      "chip": "ym2612"
    },
    {
      "channel": 1,
      "note": 61,
      "start": 58.682,
      "duration": 0.0643,
      "velocity": 111,
      "chip": "ym2612"
    },
    {
      "channel": 4,
      "note": 64,
      "start": 58.6843,
      "duration": 0.0622,
      "velocity": 111,
      "chip": "ym2612"
    },
    {
      "channel": 0,
      "note": 69,
      "start": 58.6864,
      "duration": 0.0598,
      "velocity": 111,
      "chip": "ym2612"
    },
    {
      "channel": 3,
      "note": 62,
      "start": 58.7496,
      "duration": 0.0588,
      "velocity": 93,
      "chip": "ym2612"
    },
    {
      "channel": 1,
      "note": 62,
      "start": 58.7516,
      "duration": 0.0567,
      "velocity": 111,
      "chip": "ym2612"
    },
    {
      "channel": 4,
      "note": 66,
      "start": 58.7539,
      "duration": 0.0545,
      "velocity": 111,
      "chip": "ym2612"
    },
    {
      "channel": 0,
      "note": 74,
      "start": 58.756,
      "duration": 0.0522,
      "velocity": 111,
      "chip": "ym2612"
    },
    {
      "channel": 3,
      "note": 62,
      "start": 58.8105,
      "duration": 0.0675,
      "velocity": 93,
      "chip": "ym2612"
    },
    {
      "channel": 1,
      "note": 62,
      "start": 58.8125,
      "duration": 0.0654,
      "velocity": 111,
      "chip": "ym2612"
    },
    {
      "channel": 4,
      "note": 66,
      "start": 58.8158,
      "duration": 0.0624,
      "velocity": 111,
      "chip": "ym2612"
    },
    {
      "channel": 0,
      "note": 74,
      "start": 58.8178,
      "duration": 0.0601,
      "velocity": 111,
      "chip": "ym2612"
    },
    {
      "channel": 3,
      "note": 61,
      "start": 58.8813,
      "duration": 0.0662,
      "velocity": 93,
      "chip": "ym2612"
    },
    {
      "channel": 1,
      "note": 64,
      "start": 58.8834,
      "duration": 0.0641,
      "velocity": 111,
      "chip": "ym2612"
    },
    {
      "channel": 4,
      "note": 67,
      "start": 58.8862,
      "duration": 0.0615,
      "velocity": 111,
      "chip": "ym2612"
    },
    {
      "channel": 0,
      "note": 73,
      "start": 58.8881,
      "duration": 0.0593,
      "velocity": 111,
      "chip": "ym2612"
    },
    {
      "channel": 3,
      "note": 59,
      "start": 58.9534,
      "duration": 40.5832,
      "velocity": 93,
      "chip": "ym2612"
    }
  ]
}