{
  "track_name": "18 - Track 19",
  "duration_sec": 101.551,
  "sample_rate": 44100,
  "note_count": 1095,
  "unique_pitches": 41,
  "pitch_range": 53,
  "avg_note_duration": 0.3376,
  "reconstruction_stats": {
    "notes_reconstructed": 1095,
    "keyon_events": 1095,
    "keyoff_events": 1092,
    "orphan_keyons": 3,
    "unique_pitches": 41,
    "pitch_range": 53,
    "avg_duration_sec": 0.3376
  },
  "metadata": {
    "source": "L\\Lord Monarch - Tokoton Sentou Densetsu\\18 - Track 19.vgz"
  },
  "notes": [
    {
      "channel": 0,
      "note": 59,
      "start": 0.0022,
      "duration": 0.1173,
      "velocity": 60,
      "chip": "ym2612"
    },
    {
      "channel": 1,
      "note": 59,
      "start": 0.0049,
      "duration": 0.9387,
      "velocity": 99,
      "chip": "ym2612"
    },
    {
      "channel": 2,
      "note": 66,
      "start": 0.0093,
      "duration": 0.088,
      "velocity": 78,
      "chip": "ym2612"
    },
    {
      "channel": 3,
      "note": 45,
      "start": 0.0132,
      "duration": 0.3588,
      "velocity": 115,
      "chip": "ym2612"
    },
    {
      "channel": 4,
      "note": 82,
      "start": 0.038,
      "duration": 0.2201,
      "velocity": 60,
      "chip": "ym2612"
    },
    {
      "channel": 0,
      "note": 66,
      "start": 0.1199,
      "duration": 0.2742,
      "velocity": 60,
      "chip": "ym2612"
    },
    {
      "channel": 2,
      "note": 73,
      "start": 0.1206,
      "duration": 0.2511,
      "velocity": 78,
      "chip": "ym2612"
    },
    {
      "channel": 4,
      "note": 59,
      "start": 0.2584,
      "duration": 0.2739,
      "velocity": 60,
      "chip": "ym2612"
    },
    {
      "channel": 0,
      "note": 69,
      "start": 0.3944,
      "duration": 0.2742,
      "velocity": 60,
      "chip": "ym2612"
    },
    {
      "channel": 2,
      "note": 69,
      "start": 0.3951,
      "duration": 0.2511,
      "velocity": 78,
      "chip": "ym2612"
    },
    {
      "channel": 3,
      "note": 58,
      "start": 0.3982,
      "duration": 0.5227,
      "velocity": 127,
      "chip": "ym2612"
    },
    {
      "channel": 4,
      "note": 66,
      "start": 0.5327,
      "duration": 0.2745,
      "velocity": 60,
      "chip": "ym2612"
    },
    {
      "channel": 0,
      "note": 68,
      "start": 0.6688,
      "duration": 0.2742,
      "velocity": 60,
      "chip": "ym2612"
    },
    {
      "channel": 2,
      "note": 76,
      "start": 0.6695,
      "duration": 1.0745,
      "velocity": 78,
      "chip": "ym2612"
    },
    {
      "channel": 4,
      "note": 69,
      "start": 0.8076,
      "duration": 0.2736,
      "velocity": 60,
      "chip": "ym2612"
    },
    {
      "channel": 0,
      "note": 64,
      "start": 0.9433,
      "duration": 0.2742,
      "velocity": 60,
      "chip": "ym2612"
    },
    {
      "channel": 4,
      "note": 68,
      "start": 1.0816,
      "duration": 0.2742,
      "velocity": 60,
      "chip": "ym2612"
    },
    {
      "channel": 0,
      "note": 71,
      "start": 1.2178,
      "duration": 0.2742,
      "velocity": 60,
      "chip": "ym2612"
    },
    {
      "channel": 1,
      "note": 54,
      "start": 1.2199,
      "duration": 0.5471,
      "velocity": 99,
      "chip": "ym2612"
    },
    {
      "channel": 4,
      "note": 64,
      "start": 1.3561,
      "duration": 0.2742,
      "velocity": 60,
      "chip": "ym2612"
    },
    {
      "channel": 0,
      "note": 81,
      "start": 1.4922,
      "duration": 0.2742,
      "velocity": 60,
      "chip": "ym2612"
    },
    {
      "channel": 3,
      "note": 51,
      "start": 1.4933,
      "duration": 0.5254,
      "velocity": 127,
      "chip": "ym2612"
    },
    {
      "channel": 4,
      "note": 71,
      "start": 1.6305,
      "duration": 0.2284,
      "velocity": 60,
      "chip": "ym2612"
    },
    {
      "channel": 0,
      "note": 80,
      "start": 1.7667,
      "duration": 0.5487,
      "velocity": 60,
      "chip": "ym2612"
    },
    {
      "channel": 1,
      "note": 59,
      "start": 1.7673,
      "duration": 1.3322,
      "velocity": 99,
      "chip": "ym2612"
    },
    {
      "channel": 2,
      "note": 83,
      "start": 1.7695,
      "duration": 0.5235,
      "velocity": 78,
      "chip": "ym2612"
    },
    {
      "channel": 4,
      "note": 81,
      "start": 1.8594,
      "duration": 0.5488,
      "velocity": 60,
      "chip": "ym2612"
    },
    {
      "channel": 0,
      "note": 76,
      "start": 2.3156,
      "duration": 0.2746,
      "velocity": 60,
      "chip": "ym2612"
    },
    {
      "channel": 2,
      "note": 90,
      "start": 2.3163,
      "duration": 0.2511,
      "velocity": 78,
      "chip": "ym2612"
    },
    {
      "channel": 4,
      "note": 80,
      "start": 2.4085,
      "duration": 0.2739,
      "velocity": 60,
      "chip": "ym2612"
    },
    {
      "channel": 0,
      "note": 78,
      "start": 2.5904,
      "duration": 0.7396,
      "velocity": 60,
      "chip": "ym2612"
    },
    {
      "channel": 2,
      "note": 93,
      "start": 2.5914,
      "duration": 0.2505,
      "velocity": 78,
      "chip": "ym2612"
    },
    {
      "channel": 3,
      "note": 51,
      "start": 2.5945,
      "duration": 0.5028,
      "velocity": 127,
      "chip": "ym2612"
    },
    {
      "channel": 4,
      "note": 76,
      "start": 2.6827,
      "duration": 0.6727,
      "velocity": 60,
      "chip": "ym2612"
    },
    {
      "channel": 2,
      "note": 92,
      "start": 2.865,
      "duration": 0.2319,
      "velocity": 78,
      "chip": "ym2612"
    },
    {
      "channel": 2,
      "note": 88,
      "start": 3.1004,
      "duration": 0.1322,
      "velocity": 78,
      "chip": "ym2612"
    },
    {
      "channel": 3,
      "note": 55,
      "start": 3.1036,
      "duration": 0.1851,
      "velocity": 127,
      "chip": "ym2612"
    },
    {
      "channel": 1,
      "note": 54,
      "start": 3.2552,
      "duration": 0.0367,
      "velocity": 99,
      "chip": "ym2612"
    },
    {
      "channel": 2,
      "note": 90,
      "start": 3.2557,
      "duration": 0.0711,
      "velocity": 78,
      "chip": "ym2612"
    },
    {
      "channel": 1,
      "note": 59,
      "start": 3.292,
      "duration": 0.0384,
      "velocity": 99,
      "chip": "ym2612"
    },
    {
      "channel": 3,
      "note": 51,
      "start": 3.2929,
      "duration": 0.0342,
      "velocity": 127,
      "chip": "ym2612"
    },
    {
      "channel": 0,
      "note": 59,
      "start": 3.3302,
      "duration": 0.3931,
      "velocity": 60,
      "chip": "ym2612"
    },
    {
      "channel": 1,
      "note": 57,
      "start": 3.3324,
      "duration": 1.2149,
      "velocity": 99,
      "chip": "ym2612"
    },
    {
      "channel": 2,
      "note": 66,
      "start": 3.3346,
      "duration": 0.3663,
      "velocity": 78,
      "chip": "ym2612"
    },
    {
      "channel": 3,
      "note": 51,
      "start": 3.3377,
      "duration": 0.6379,
      "velocity": 115,
      "chip": "ym2612"
    },
    {
      "channel": 4,
      "note": 78,
      "start": 3.3558,
      "duration": 0.5057,
      "velocity": 60,
      "chip": "ym2612"
    },
    {
      "channel": 0,
      "note": 66,
      "start": 3.7235,
      "duration": 0.2742,
      "velocity": 60,
      "chip": "ym2612"
    },
    {
      "channel": 2,
      "note": 73,
      "start": 3.7242,
      "duration": 0.2512,
      "velocity": 78,
      "chip": "ym2612"
    },
    {
      "channel": 4,
      "note": 59,
      "start": 3.8619,
      "duration": 0.2746,
      "velocity": 60,
      "chip": "ym2612"
    },
    {
      "channel": 0,
      "note": 69,
      "start": 3.9979,
      "duration": 0.2743,
      "velocity": 60,
      "chip": "ym2612"
    },
    {
      "channel": 2,
      "note": 69,
      "start": 3.9987,
      "duration": 0.2512,
      "velocity": 78,
      "chip": "ym2612"
    },
    {
      "channel": 3,
      "note": 58,
      "start": 4.0021,
      "duration": 0.5224,
      "velocity": 127,
      "chip": "ym2612"
    },
    {
      "channel": 4,
      "note": 66,
      "start": 4.1368,
      "duration": 0.2737,
      "velocity": 60,
      "chip": "ym2612"
    },
    {
      "channel": 0,
      "note": 68,
      "start": 4.2724,
      "duration": 0.2742,
      "velocity": 60,
      "chip": "ym2612"
    },
    {
      "channel": 2,
      "note": 76,
      "start": 4.2732,
      "duration": 1.0745,
      "velocity": 78,
      "chip": "ym2612"
    },
    {
      "channel": 4,
      "note": 69,
      "start": 4.4108,
      "duration": 0.2741,
      "velocity": 60,
      "chip": "ym2612"
    },
    {
      "channel": 0,
      "note": 64,
      "start": 4.5469,
      "duration": 0.2742,
      "velocity": 60,
      "chip": "ym2612"
    },
    {
      "channel": 4,
      "note": 68,
      "start": 4.6855,
      "duration": 0.2739,
      "velocity": 60,
      "chip": "ym2612"
    },
    {
      "channel": 0,
      "note": 71,
      "start": 4.8214,
      "duration": 0.2742,
      "velocity": 60,
      "chip": "ym2612"
    },
    {
      "channel": 1,
      "note": 52,
      "start": 4.8236,
      "duration": 0.5471,
      "velocity": 99,
      "chip": "ym2612"
    },
    {
      "channel": 4,
      "note": 64,
      "start": 4.9597,
      "duration": 0.2742,
      "velocity": 60,
      "chip": "ym2612"
    },
    {
      "channel": 0,
      "note": 81,
      "start": 5.0958,
      "duration": 0.2742,
      "velocity": 60,
      "chip": "ym2612"
    },
    {
      "channel": 3,
      "note": 51,
      "start": 5.0969,
      "duration": 0.5254,
      "velocity": 127,
      "chip": "ym2612"
    },
    {
      "channel": 4,
      "note": 71,
      "start": 5.2342,
      "duration": 0.2284,
      "velocity": 60,
      "chip": "ym2612"
    },
    {
      "channel": 0,
      "note": 80,
      "start": 5.3703,
      "duration": 0.5487,
      "velocity": 60,
      "chip": "ym2612"
    },
    {
      "channel": 1,
      "note": 57,
      "start": 5.3708,
      "duration": 1.3321,
      "velocity": 99,
      "chip": "ym2612"
    },
    {
      "channel": 2,
      "note": 83,
      "start": 5.3731,
      "duration": 0.5235,
      "velocity": 78,
      "chip": "ym2612"
    },
    {
      "channel": 4,
      "note": 81,
      "start": 5.463,
      "duration": 0.5485,
      "velocity": 60,
      "chip": "ym2612"
    },
    {
      "channel": 0,
      "note": 76,
      "start": 5.9195,
      "duration": 0.274,
      "velocity": 60,
      "chip": "ym2612"
    },
    {
      "channel": 2,
      "note": 88,
      "start": 5.9202,
      "duration": 0.2508,
      "velocity": 78,
      "chip": "ym2612"
    },
    {
      "channel": 4,
      "note": 80,
      "start": 6.0119,
      "duration": 0.2747,
      "velocity": 60,
      "chip": "ym2612"
    },
    {
      "channel": 0,
      "note": 78,
      "start": 6.1937,
      "duration": 0.8976,
      "velocity": 60,
      "chip": "ym2612"
    },
    {
      "channel": 2,
      "note": 93,
      "start": 6.1945,
      "duration": 0.2511,
      "velocity": 78,
      "chip": "ym2612"
    },
    {
      "channel": 3,
      "note": 51,
      "start": 6.1976,
      "duration": 0.5029,
      "velocity": 127,
      "chip": "ym2612"
    },
    {
      "channel": 4,
      "note": 76,
      "start": 6.2868,
      "duration": 0.8218,
      "velocity": 60,
      "chip": "ym2612"
    },
    {
      "channel": 2,
      "note": 92,
      "start": 6.4689,
      "duration": 0.2312,
      "velocity": 78,
      "chip": "ym2612"
    },
    {
      "channel": 2,
      "note": 88,
      "start": 6.7034,
      "duration": 0.1315,
      "velocity": 78,
      "chip": "ym2612"
    },
    {
      "channel": 3,
      "note": 55,
      "start": 6.7066,
      "duration": 0.2285,
      "velocity": 127,
      "chip": "ym2612"
    },
    {
      "channel": 1,
      "note": 52,
      "start": 6.8578,
      "duration": 0.0797,
      "velocity": 99,
      "chip": "ym2612"
    },
    {
      "channel": 2,
      "note": 90,
      "start": 6.8583,
      "duration": 0.2105,
      "velocity": 78,
      "chip": "ym2612"
    },
    {
      "channel": 1,
      "note": 57,
      "start": 6.9378,
      "duration": 0.154,
      "velocity": 99,
      "chip": "ym2612"
    },
    {
      "channel": 3,
      "note": 51,
      "start": 6.9386,
      "duration": 0.1305,
      "velocity": 127,
      "chip": "ym2612"
    },
    {
      "channel": 0,
      "note": 59,
      "start": 7.0915,
      "duration": 0.3937,
      "velocity": 60,
      "chip": "ym2612"
    },
    {
      "channel": 1,
      "note": 55,
      "start": 7.0921,
      "duration": 0.3937,
      "velocity": 99,
      "chip": "ym2612"
    },
    {
      "channel": 2,
      "note": 71,
      "start": 7.0927,
      "duration": 0.7995,
      "velocity": 78,
      "chip": "ym2612"
    },
    {
      "channel": 3,
      "note": 51,
      "start": 7.0963,
      "duration": 0.3668,
      "velocity": 115,
      "chip": "ym2612"
    },
    {
      "channel": 4,
      "note": 78,
      "start": 7.1091,
      "duration": 0.4686,
      "velocity": 60,
      "chip": "ym2612"
    },
    {
      "channel": 0,
      "note": 66,
      "start": 7.4854,
      "duration": 0.2742,
      "velocity": 60,
      "chip": "ym2612"
    },
    {
      "channel": 3,
      "note": 58,
      "start": 7.4894,
      "duration": 0.2481,
      "velocity": 127,
      "chip": "ym2612"
    },
    {
      "channel": 4,
      "note": 59,
      "start": 7.578,
      "duration": 0.196,
      "velocity": 60,
      "chip": "ym2612"
    },
    {
      "channel": 0,
      "note": 73,
      "start": 7.7599,
      "duration": 0.1548,
      "velocity": 60,
      "chip": "ym2612"
    },
    {
      "channel": 1,
      "note": 55,
      "start": 7.7604,
      "duration": 0.1548,
      "velocity": 99,
      "chip": "ym2612"
    },
    {
      "channel": 4,
      "note": 66,
      "start": 7.7743,
      "duration": 0.2328,
      "velocity": 60,
      "chip": "ym2612"
    },
    {
      "channel": 0,
      "note": 71,
      "start": 7.9149,
      "duration": 0.2742,
      "velocity": 60,
      "chip": "ym2612"
    },
    {
      "channel": 2,
      "note": 67,
      "start": 7.9158,
      "duration": 0.8008,
      "velocity": 78,
      "chip": "ym2612"
    },
    {
      "channel": 3,
      "note": 51,
      "start": 7.9163,
      "duration": 0.2506,
      "velocity": 127,
      "chip": "ym2612"
    },
    {
      "channel": 4,
      "note": 73,
      "start": 8.0074,
      "duration": 0.196,
      "velocity": 60,
      "chip": "ym2612"
    },
    {
      "channel": 0,
      "note": 74,
      "start": 8.1894,
      "duration": 0.1203,
      "velocity": 60,
      "chip": "ym2612"
    },
    {
      "channel": 1,
      "note": 55,
      "start": 8.1899,
      "duration": 0.1203,
      "velocity": 99,
      "chip": "ym2612"
    },
    {
      "channel": 4,
      "note": 71,
      "start": 8.2037,
      "duration": 0.1984,
      "velocity": 60,
      "chip": "ym2612"
    },
    {
      "channel": 0,
      "note": 73,
      "start": 8.3098,
      "duration": 0.2742,
      "velocity": 60,
      "chip": "ym2612"
    },
    {
      "channel": 3,
      "note": 51,
      "start": 8.311,
      "duration": 0.2509,
      "velocity": 127,
      "chip": "ym2612"
    },
    {
      "channel": 4,
      "note": 74,
      "start": 8.4024,
      "duration": 0.1955,
      "velocity": 60,
      "chip": "ym2612"
    },
    {
      "channel": 0,
      "note": 76,
      "start": 8.5843,
      "duration": 0.1547,
      "velocity": 60,
      "chip": "ym2612"
    },
    {
      "channel": 1,
      "note": 55,
      "start": 8.5849,
      "duration": 0.1546,
      "velocity": 99,
      "chip": "ym2612"
    },
    {
      "channel": 4,
      "note": 73,
      "start": 8.5983,
      "duration": 0.2333,
      "velocity": 60,
      "chip": "ym2612"
    },
    {
      "channel": 0,
      "note": 74,
      "start": 8.7393,
      "duration": 0.2744,
      "velocity": 60,
      "chip": "ym2612"
    },
    {
      "channel": 2,
      "note": 74,
      "start": 8.7401,
      "duration": 0.8001,
      "velocity": 78,
      "chip": "ym2612"
    },
    {
      "channel": 3,
      "note": 51,
      "start": 8.7407,
      "duration": 0.2506,
      "velocity": 127,
      "chip": "ym2612"
    },
    {
      "channel": 4,
      "note": 76,
      "start": 8.8318,
      "duration": 0.1961,
      "velocity": 60,
      "chip": "ym2612"
    },
    {
      "channel": 0,
      "note": 78,
      "start": 9.014,
      "duration": 0.1197,
      "velocity": 60,
      "chip": "ym2612"
    },
    {
      "channel": 1,
      "note": 55,
      "start": 9.0145,
      "duration": 0.1197,
      "velocity": 99,
      "chip": "ym2612"
    },
    {
      "channel": 4,
      "note": 74,
      "start": 9.0282,
      "duration": 0.1986,
      "velocity": 60,
      "chip": "ym2612"
    },
    {
      "channel": 0,
      "note": 76,
      "start": 9.1339,
      "duration": 0.2745,
      "velocity": 60,
      "chip": "ym2612"
    },
    {
      "channel": 3,
      "note": 51,
      "start": 9.1351,
      "duration": 0.2509,
      "velocity": 127,
      "chip": "ym2612"
    },
    {
      "channel": 4,
      "note": 78,
      "start": 9.2271,
      "duration": 0.1952,
      "velocity": 60,
      "chip": "ym2612"
    },
    {
      "channel": 0,
      "note": 79,
      "start": 9.4087,
      "duration": 0.1539,
      "velocity": 60,
      "chip": "ym2612"
    },
    {
      "channel": 1,
      "note": 55,
      "start": 9.4094,
      "duration": 0.1537,
      "velocity": 99,
      "chip": "ym2612"
    },
    {
      "channel": 4,
      "note": 76,
      "start": 9.4225,
      "duration": 0.2329,
      "velocity": 60,
      "chip": "ym2612"
    },
    {
      "channel": 0,
      "note": 78,
      "start": 9.5629,
      "duration": 0.2742,
      "velocity": 60,
      "chip": "ym2612"
    },
    {
      "channel": 2,
      "note": 71,
      "start": 9.5637,
      "duration": 0.3716,
      "velocity": 78,
      "chip": "ym2612"
    },
    {
      "channel": 3,
      "note": 51,
      "start": 9.5644,
      "duration": 0.2506,
      "velocity": 127,
      "chip": "ym2612"
    },
    {
      "channel": 4,
      "note": 79,
      "start": 9.6559,
      "duration": 0.1964,
      "velocity": 60,
      "chip": "ym2612"
    },
    {
      "channel": 0,
      "note": 83,
      "start": 9.8373,
      "duration": 0.1201,
      "velocity": 60,
      "chip": "ym2612"
    },
    {
      "channel": 1,
      "note": 55,
      "start": 9.8379,
      "duration": 0.1201,
      "velocity": 99,
      "chip": "ym2612"
    },
    {
      "channel": 3,
      "note": 51,
      "start": 9.839,
      "duration": 0.0967,
      "velocity": 127,
      "chip": "ym2612"
    },
    {
      "channel": 4,
      "note": 78,
      "start": 9.8526,
      "duration": 0.1218,
      "velocity": 60,
      "chip": "ym2612"
    },
    {
      "channel": 0,
      "note": 82,
      "start": 9.9577,
      "duration": 0.1198,
      "velocity": 60,
      "chip": "ym2612"
    },
    {
      "channel": 1,
      "note": 50,
      "start": 9.9583,
      "duration": 0.1198,
      "velocity": 99,
      "chip": "ym2612"
    },
    {
      "channel": 2,
      "note": 71,
      "start": 9.9587,
      "duration": 0.0963,
      "velocity": 78,
      "chip": "ym2612"
    },
    {
      "channel": 3,
      "note": 51,
      "start": 9.9618,
      "duration": 0.0935,
      "velocity": 127,
      "chip": "ym2612"
    },
    {
      "channel": 4,
      "note": 83,
      "start": 9.9747,
      "duration": 0.1198,
      "velocity": 60,
      "chip": "ym2612"
    },
    {
      "channel": 0,
      "note": 86,
      "start": 10.0777,
      "duration": 0.1541,
      "velocity": 60,
      "chip": "ym2612"
    },
    {
      "channel": 1,
      "note": 55,
      "start": 10.0783,
      "duration": 0.1541,
      "velocity": 99,
      "chip": "ym2612"
    },
    {
      "channel": 2,
      "note": 74,
      "start": 10.0788,
      "duration": 0.1306,
      "velocity": 78,
      "chip": "ym2612"
    },
    {
      "channel": 3,
      "note": 55,
      "start": 10.0823,
      "duration": 0.1276,
      "velocity": 127,
      "chip": "ym2612"
    },
    {
      "channel": 4,
      "note": 82,
      "start": 10.0949,
      "duration": 0.1538,
      "velocity": 60,
      "chip": "ym2612"
    },
    {
      "channel": 0,
      "note": 85,
      "start": 10.232,
      "duration": 1.765,
      "velocity": 60,
      "chip": "ym2612"
    },
    {
      "channel": 1,
      "note": 54,
      "start": 10.2326,
      "duration": 0.3937,
      "velocity": 99,
      "chip": "ym2612"
    },
    {
      "channel": 2,
      "note": 78,
      "start": 10.2331,
      "duration": 0.9182,
      "velocity": 78,
      "chip": "ym2612"
    },
    {
      "channel": 3,
      "note": 51,
      "start": 10.2361,
      "duration": 0.641,
      "velocity": 115,
      "chip": "ym2612"
    },
    {
      "channel": 4,
      "note": 86,
      "start": 10.249,
      "duration": 1.7712,
      "velocity": 60,
      "chip": "ym2612"
    },
    {
      "channel": 1,
      "note": 54,
      "start": 10.6266,
      "duration": 0.1188,
      "velocity": 99,
      "chip": "ym2612"
    },
    {
      "channel": 1,
      "note": 54,
      "start": 10.7456,
      "duration": 0.1539,
      "velocity": 99,
      "chip": "ym2612"
    },
    {
      "channel": 1,
      "note": 54,
      "start": 10.8997,
      "duration": 0.2742,
      "velocity": 99,
      "chip": "ym2612"
    },
    {
      "channel": 3,
      "note": 58,
      "start": 10.903,
      "duration": 0.2486,
      "velocity": 127,
      "chip": "ym2612"
    },
    {
      "channel": 1,
      "note": 54,
      "start": 11.1741,
      "duration": 0.1197,
      "velocity": 99,
      "chip": "ym2612"
    },
    {
      "channel": 2,
      "note": 73,
      "start": 11.1746,
      "duration": 0.7999,
      "velocity": 78,
      "chip": "ym2612"
    },
    {
      "channel": 3,
      "note": 51,
      "start": 11.1753,
      "duration": 0.0962,
      "velocity": 127,
      "chip": "ym2612"
    },
    {
      "channel": 1,
      "note": 54,
      "start": 11.294,
      "duration": 0.2742,
      "velocity": 99,
      "chip": "ym2612"
    },
    {
      "channel": 3,
      "note": 51,
      "start": 11.2949,
      "duration": 0.2511,
      "velocity": 127,
      "chip": "ym2612"
    },
    {
      "channel": 1,
      "note": 54,
      "start": 11.5685,
      "duration": 0.1542,
      "velocity": 99,
      "chip": "ym2612"
    },
    {
      "channel": 3,
      "note": 51,
      "start": 11.5693,
      "duration": 0.131,
      "velocity": 127,
      "chip": "ym2612"
    },
    {
      "channel": 1,
      "note": 54,
      "start": 11.723,
      "duration": 0.2745,
      "velocity": 99,
      "chip": "ym2612"
    },
    {
      "channel": 3,
      "note": 51,
      "start": 11.7238,
      "duration": 0.251,
      "velocity": 127,
      "chip": "ym2612"
    },
    {
      "channel": 0,
      "note": 82,
      "start": 11.9971,
      "duration": 0.8243,
      "velocity": 60,
      "chip": "ym2612"
    },
    {
      "channel": 1,
      "note": 66,
      "start": 11.9977,
      "duration": 0.12,
      "velocity": 99,
      "chip": "ym2612"
    },
    {
      "channel": 2,
      "note": 90,
      "start": 12.0,
      "duration": 0.0163,
      "velocity": 97,
      "chip": "ym2612"
    },
    {
      "channel": 3,
      "note": 51,
      "start": 12.0007,
      "duration": 0.0943,
      "velocity": 127,
      "chip": "ym2612"
    },
    {
      "channel": 2,
      "note": 91,
      "start": 12.0196,
      "duration": 0.075,
      "velocity": 97,
      "chip": "ym2612"
    },
    {
      "channel": 4,
      "note": 85,
      "start": 12.0205,
      "duration": 0.8251,
      "velocity": 60,
      "chip": "ym2612"
    },
    {
      "channel": 1,
      "note": 66,
      "start": 12.118,
      "duration": 0.2738,
      "velocity": 99,
      "chip": "ym2612"
    },
    {
      "channel": 2,
      "note": 90,
      "start": 12.1185,
      "duration": 0.1134,
      "velocity": 97,
      "chip": "ym2612"
    },
    {
      "channel": 3,
      "note": 51,
      "start": 12.1191,
      "duration": 0.2504,
      "velocity": 127,
      "chip": "ym2612"
    },
    {
      "channel": 1,
      "note": 64,
      "start": 12.392,
      "duration": 0.1552,
      "velocity": 99,
      "chip": "ym2612"
    },
    {
      "channel": 2,
      "note": 88,
      "start": 12.3925,
      "duration": 0.0159,
      "velocity": 97,
      "chip": "ym2612"
    },
    {
      "channel": 3,
      "note": 51,
      "start": 12.3932,
      "duration": 0.1317,
      "velocity": 127,
      "chip": "ym2612"
    },
    {
      "channel": 2,
      "note": 90,
      "start": 12.4114,
      "duration": 0.1132,
      "velocity": 97,
      "chip": "ym2612"
    },
    {
      "channel": 1,
      "note": 64,
      "start": 12.5475,
      "duration": 0.2746,
      "velocity": 99,
      "chip": "ym2612"
    },
    {
      "channel": 2,
      "note": 88,
      "start": 12.5482,
      "duration": 0.1136,
      "velocity": 97,
      "chip": "ym2612"
    },
    {
      "channel": 3,
      "note": 51,
      "start": 12.549,
      "duration": 0.2505,
      "velocity": 127,
      "chip": "ym2612"
    },
    {
      "channel": 0,
      "note": 78,
      "start": 12.8217,
      "duration": 0.2746,
      "velocity": 60,
      "chip": "ym2612"
    },
    {
      "channel": 1,
      "note": 62,
      "start": 12.8222,
      "duration": 0.1197,
      "velocity": 99,
      "chip": "ym2612"
    },
    {
      "channel": 2,
      "note": 86,
      "start": 12.8227,
      "duration": 0.0193,
      "velocity": 97,
      "chip": "ym2612"
    },
    {
      "channel": 3,
      "note": 51,
      "start": 12.8258,
      "duration": 0.3423,
      "velocity": 127,
      "chip": "ym2612"
    },
    {
      "channel": 2,
      "note": 88,
      "start": 12.8449,
      "duration": 0.0744,
      "velocity": 97,
      "chip": "ym2612"
    },
    {
      "channel": 4,
      "note": 82,
      "start": 12.8459,
      "duration": 0.27,
      "velocity": 60,
      "chip": "ym2612"
    },
    {
      "channel": 1,
      "note": 62,
      "start": 12.9422,
      "duration": 0.1547,
      "velocity": 99,
      "chip": "ym2612"
    },
    {
      "channel": 2,
      "note": 86,
      "start": 12.9427,
      "duration": 0.0152,
      "velocity": 97,
      "chip": "ym2612"
    },
    {
      "channel": 0,
      "note": 73,
      "start": 13.0966,
      "duration": 0.0754,
      "velocity": 60,
      "chip": "ym2612"
    },
    {
      "channel": 1,
      "note": 61,
      "start": 13.0971,
      "duration": 0.0363,
      "velocity": 99,
      "chip": "ym2612"
    },
    {
      "channel": 2,
      "note": 85,
      "start": 13.0976,
      "duration": 0.014,
      "velocity": 97,
      "chip": "ym2612"
    },
    {
      "channel": 2,
      "note": 86,
      "start": 13.1152,
      "duration": 0.0147,
      "velocity": 97,
      "chip": "ym2612"
    },
    {
      "channel": 4,
      "note": 78,
      "start": 13.1162,
      "duration": 0.0826,
      "velocity": 60,
      "chip": "ym2612"
    },
    {
      "channel": 1,
      "note": 54,
      "start": 13.1336,
      "duration": 0.0406,
      "velocity": 99,
      "chip": "ym2612"
    },
    {
      "channel": 2,
      "note": 85,
      "start": 13.1341,
      "duration": 0.0154,
      "velocity": 97,
      "chip": "ym2612"
    },
    {
      "channel": 0,
      "note": 71,
      "start": 13.1739,
      "duration": 0.1176,
      "velocity": 96,
      "chip": "ym2612"
    },
    {
      "channel": 1,
      "note": 59,
      "start": 13.1746,
      "duration": 0.1173,
      "velocity": 99,
      "chip": "ym2612"
    },
    {
      "channel": 2,
      "note": 83,
      "start": 13.1769,
      "duration": 2.0153,
      "velocity": 97,
      "chip": "ym2612"
    },
    {
      "channel": 3,
      "note": 55,
      "start": 13.1802,
      "duration": 0.089,
      "velocity": 127,
      "chip": "ym2612"
    },
    {
      "channel": 4,
      "note": 73,
      "start": 13.2015,
      "duration": 0.2287,
      "velocity": 96,
      "chip": "ym2612"
    },
    {
      "channel": 0,
      "note": 73,
      "start": 13.2917,
      "duration": 0.2742,
      "velocity": 96,
      "chip": "ym2612"
    },
    {
      "channel": 3,
      "note": 51,
      "start": 13.2929,
      "duration": 0.2509,
      "velocity": 127,
      "chip": "ym2612"
    },
    {
      "channel": 4,
      "note": 71,
      "start": 13.4305,
      "duration": 0.1549,
      "velocity": 96,
      "chip": "ym2612"
    },
    {
      "channel": 0,
      "note": 74,
      "start": 13.5661,
      "duration": 0.1545,
      "velocity": 96,
      "chip": "ym2612"
    },
    {
      "channel": 1,
      "note": 59,
      "start": 13.5667,
      "duration": 0.1544,
      "velocity": 99,
      "chip": "ym2612"
    },
    {
      "channel": 3,
      "note": 51,
      "start": 13.5676,
      "duration": 0.131,
      "velocity": 127,
      "chip": "ym2612"
    },
    {
      "channel": 4,
      "note": 73,
      "start": 13.5857,
      "duration": 0.2735,
      "velocity": 96,
      "chip": "ym2612"
    },
    {
      "channel": 3,
      "note": 51,
      "start": 13.722,
      "duration": 0.251,
      "velocity": 127,
      "chip": "ym2612"
    },
    {
      "channel": 1,
      "note": 59,
      "start": 13.9956,
      "duration": 0.1212,
      "velocity": 99,
      "chip": "ym2612"
    },
    {
      "channel": 3,
      "note": 51,
      "start": 13.9964,
      "duration": 0.0977,
      "velocity": 127,
      "chip": "ym2612"
    },
    {
      "channel": 0,
      "note": 73,
      "start": 14.1165,
      "duration": 0.2742,
      "velocity": 96,
      "chip": "ym2612"
    },
    {
      "channel": 3,
      "note": 51,
      "start": 14.1177,
      "duration": 0.2508,
      "velocity": 127,
      "chip": "ym2612"
    },
    {
      "channel": 4,
      "note": 74,
      "start": 14.2548,
      "duration": 0.1554,
      "velocity": 96,
      "chip": "ym2612"
    },
    {
      "channel": 0,
      "note": 69,
      "start": 14.391,
      "duration": 0.1545,
      "velocity": 96,
      "chip": "ym2612"
    },
    {
      "channel": 1,
      "note": 59,
      "start": 14.3915,
      "duration": 0.1545,
      "velocity": 99,
      "chip": "ym2612"
    },
    {
      "channel": 3,
      "note": 51,
      "start": 14.3924,
      "duration": 0.1309,
      "velocity": 127,
      "chip": "ym2612"
    },
    {
      "channel": 4,
      "note": 73,
      "start": 14.4105,
      "duration": 0.2731,
      "velocity": 96,
      "chip": "ym2612"
    },
    {
      "channel": 0,
      "note": 71,
      "start": 14.5456,
      "duration": 0.2742,
      "velocity": 96,
      "chip": "ym2612"
    },
    {
      "channel": 3,
      "note": 51,
      "start": 14.5493,
      "duration": 0.2484,
      "velocity": 127,
      "chip": "ym2612"
    },
    {
      "channel": 4,
      "note": 69,
      "start": 14.684,
      "duration": 0.1588,
      "velocity": 96,
      "chip": "ym2612"
    },
    {
      "channel": 0,
      "note": 66,
      "start": 14.8203,
      "duration": 0.1198,
      "velocity": 96,
      "chip": "ym2612"
    },
    {
      "channel": 1,
      "note": 59,
      "start": 14.8209,
      "duration": 0.1197,
      "velocity": 99,
      "chip": "ym2612"
    },
    {
      "channel": 3,
      "note": 55,
      "start": 14.8242,
      "duration": 0.0939,
      "velocity": 127,
      "chip": "ym2612"
    },
    {
      "channel": 4,
      "note": 71,
      "start": 14.8431,
      "duration": 0.2353,
      "velocity": 96,
      "chip": "ym2612"
    },
    {
      "channel": 3,
      "note": 51,
      "start": 14.9415,
      "duration": 0.2511,
      "velocity": 127,
      "chip": "ym2612"
    },
    {
      "channel": 1,
      "note": 59,
      "start": 15.2154,
      "duration": 0.1533,
      "velocity": 99,
      "chip": "ym2612"
    },
    {
      "channel": 3,
      "note": 51,
      "start": 15.2165,
      "duration": 0.13,
      "velocity": 127,
      "chip": "ym2612"
    },
    {
      "channel": 3,
      "note": 51,
      "start": 15.372,
      "duration": 0.0326,
      "velocity": 127,
      "chip": "ym2612"
    },
    {
      "channel": 0,
      "note": 71,
      "start": 15.4075,
      "duration": 0.1549,
      "velocity": 96,
      "chip": "ym2612"
    },
    {
      "channel": 1,
      "note": 59,
      "start": 15.408,
      "duration": 0.1204,
      "velocity": 99,
      "chip": "ym2612"
    },
    {
      "channel": 2,
      "note": 78,
      "start": 15.4085,
      "duration": 0.1514,
      "velocity": 97,
      "chip": "ym2612"
    },
    {
      "channel": 3,
      "note": 55,
      "start": 15.4121,
      "duration": 0.0944,
      "velocity": 127,
      "chip": "ym2612"
    },
    {
      "channel": 4,
      "note": 66,
      "start": 15.432,
      "duration": 0.1505,
      "velocity": 96,
      "chip": "ym2612"
    },
    {
      "channel": 3,
      "note": 51,
      "start": 15.5293,
      "duration": 0.031,
      "velocity": 127,
      "chip": "ym2612"
    },
    {
      "channel": 0,
      "note": 78,
      "start": 15.5627,
      "duration": 0.1915,
      "velocity": 96,
      "chip": "ym2612"
    },
    {
      "channel": 1,
      "note": 54,
      "start": 15.5632,
      "duration": 0.1541,
      "velocity": 99,
      "chip": "ym2612"
    },
    {
      "channel": 2,
      "note": 83,
      "start": 15.5637,
      "duration": 0.1882,
      "velocity": 97,
      "chip": "ym2612"
    },
    {
      "channel": 3,
      "note": 51,
      "start": 15.5643,
      "duration": 0.1306,
      "velocity": 127,
      "chip": "ym2612"
    },
    {
      "channel": 4,
      "note": 71,
      "start": 15.5828,
      "duration": 0.1946,
      "velocity": 96,
      "chip": "ym2612"
    },
    {
      "channel": 1,
      "note": 59,
      "start": 15.7175,
      "duration": 0.0372,
      "velocity": 99,
      "chip": "ym2612"
    },
    {
      "channel": 3,
      "note": 51,
      "start": 15.7184,
      "duration": 0.0338,
      "velocity": 127,
      "chip": "ym2612"
    },
    {
      "channel": 0,
      "note": 76,
      "start": 15.7544,
      "duration": 0.1195,
      "velocity": 96,
      "chip": "ym2612"
    },
    {
      "channel": 1,
      "note": 57,
      "start": 15.7549,
      "duration": 0.1193,
      "velocity": 99,
      "chip": "ym2612"
    },
    {
      "channel": 2,
      "note": 81,
      "start": 15.7554,
      "duration": 2.0152,
      "velocity": 97,
      "chip": "ym2612"
    },
    {
      "channel": 3,
      "note": 51,
      "start": 15.7592,
      "duration": 0.0925,
      "velocity": 127,
      "chip": "ym2612"
    },
    {
      "channel": 4,
      "note": 78,
      "start": 15.7777,
      "duration": 0.2344,
      "velocity": 96,
      "chip": "ym2612"
    },
    {
      "channel": 3,
      "note": 51,
      "start": 15.8751,
      "duration": 0.2512,
      "velocity": 127,
      "chip": "ym2612"
    },
    {
      "channel": 1,
      "note": 57,
      "start": 16.1488,
      "duration": 0.1543,
      "velocity": 99,
      "chip": "ym2612"
    },
    {
      "channel": 3,
      "note": 51,
      "start": 16.1497,
      "duration": 0.1311,
      "velocity": 127,
      "chip": "ym2612"
    },
    {
      "channel": 3,
      "note": 51,
      "start": 16.304,
      "duration": 0.2512,
      "velocity": 127,
      "chip": "ym2612"
    },
    {
      "channel": 1,
      "note": 57,
      "start": 16.5778,
      "duration": 0.1194,
      "velocity": 99,
      "chip": "ym2612"
    },
    {
      "channel": 3,
      "note": 51,
      "start": 16.5786,
      "duration": 0.0959,
      "velocity": 127,
      "chip": "ym2612"
    },
    {
      "channel": 0,
      "note": 73,
      "start": 16.6969,
      "duration": 0.2742,
      "velocity": 96,
      "chip": "ym2612"
    },
    {
      "channel": 3,
      "note": 51,
      "start": 16.6981,
      "duration": 0.2509,
      "velocity": 127,
      "chip": "ym2612"
    },
    {
      "channel": 4,
      "note": 76,
      "start": 16.8352,
      "duration": 0.155,
      "velocity": 96,
      "chip": "ym2612"
    },
    {
      "channel": 0,
      "note": 69,
      "start": 16.9714,
      "duration": 0.1541,
      "velocity": 96,
      "chip": "ym2612"
    },
    {
      "channel": 1,
      "note": 57,
      "start": 16.9719,
      "duration": 0.1541,
      "velocity": 99,
      "chip": "ym2612"
    },
    {
      "channel": 3,
      "note": 51,
      "start": 16.9727,
      "duration": 0.1304,
      "velocity": 127,
      "chip": "ym2612"
    },
    {
      "channel": 4,
      "note": 73,
      "start": 16.9906,
      "duration": 0.2729,
      "velocity": 96,
      "chip": "ym2612"
    },
    {
      "channel": 0,
      "note": 71,
      "start": 17.1257,
      "duration": 0.274,
      "velocity": 96,
      "chip": "ym2612"
    },
    {
      "channel": 3,
      "note": 51,
      "start": 17.1294,
      "duration": 0.2482,
      "velocity": 127,
      "chip": "ym2612"
    },
    {
      "channel": 4,
      "note": 69,
      "start": 17.2638,
      "duration": 0.1578,
      "velocity": 96,
      "chip": "ym2612"
    },
    {
      "channel": 0,
      "note": 64,
      "start": 17.4,
      "duration": 0.1189,
      "velocity": 96,
      "chip": "ym2612"
    },
    {
      "channel": 1,
      "note": 57,
      "start": 17.4005,
      "duration": 0.1188,
      "velocity": 99,
      "chip": "ym2612"
    },
    {
      "channel": 3,
      "note": 55,
      "start": 17.4038,
      "duration": 0.0927,
      "velocity": 127,
      "chip": "ym2612"
    },
    {
      "channel": 4,
      "note": 71,
      "start": 17.422,
      "duration": 0.2349,
      "velocity": 96,
      "chip": "ym2612"
    },
    {
      "channel": 3,
      "note": 51,
      "start": 17.5204,
      "duration": 0.2506,
      "velocity": 127,
      "chip": "ym2612"
    },
    {
      "channel": 1,
      "note": 57,
      "start": 17.7935,
      "duration": 0.1551,
      "velocity": 99,
      "chip": "ym2612"
    },
    {
      "channel": 3,
      "note": 51,
      "start": 17.7944,
      "duration": 0.1315,
      "velocity": 127,
      "chip": "ym2612"
    },
    {
      "channel": 0,
      "note": 67,
      "start": 17.9483,
      "duration": 0.0379,
      "velocity": 96,
      "chip": "ym2612"
    },
    {
      "channel": 3,
      "note": 51,
      "start": 17.9525,
      "duration": 0.0318,
      "velocity": 127,
      "chip": "ym2612"
    },
    {
      "channel": 4,
      "note": 64,
      "start": 17.9704,
      "duration": 0.0389,
      "velocity": 96,
      "chip": "ym2612"
    },
    {
      "channel": 0,
      "note": 69,
      "start": 17.9865,
      "duration": 0.158,
      "velocity": 96,
      "chip": "ym2612"
    },
    {
      "channel": 1,
      "note": 57,
      "start": 17.987,
      "duration": 0.1192,
      "velocity": 99,
      "chip": "ym2612"
    },
    {
      "channel": 2,
      "note": 76,
      "start": 17.9875,
      "duration": 0.153,
      "velocity": 97,
      "chip": "ym2612"
    },
    {
      "channel": 3,
      "note": 55,
      "start": 17.9905,
      "duration": 0.0933,
      "velocity": 127,
      "chip": "ym2612"
    },
    {
      "channel": 4,
      "note": 67,
      "start": 18.0096,
      "duration": 0.1551,
      "velocity": 96,
      "chip": "ym2612"
    },
    {
      "channel": 3,
      "note": 51,
      "start": 18.1071,
      "duration": 0.0337,
      "velocity": 127,
      "chip": "ym2612"
    },
    {
      "channel": 0,
      "note": 67,
      "start": 18.1448,
      "duration": 0.4295,
      "velocity": 96,
      "chip": "ym2612"
    },
    {
      "channel": 1,
      "note": 55,
      "start": 18.1453,
      "duration": 0.1547,
      "velocity": 99,
      "chip": "ym2612"
    },
    {
      "channel": 2,
      "note": 81,
      "start": 18.1458,
      "duration": 0.406,
      "velocity": 97,
      "chip": "ym2612"
    },
    {
      "channel": 3,
      "note": 51,
      "start": 18.1463,
      "duration": 0.1313,
      "velocity": 127,
      "chip": "ym2612"
    },
    {
      "channel": 4,
      "note": 69,
      "start": 18.1649,
      "duration": 0.4342,
      "velocity": 96,
      "chip": "ym2612"
    },
    {
      "channel": 1,
      "note": 57,
      "start": 18.3002,
      "duration": 0.2746,
      "velocity": 99,
      "chip": "ym2612"
    },
    {
      "channel": 3,
      "note": 51,
      "start": 18.301,
      "duration": 0.2511,
      "velocity": 127,
      "chip": "ym2612"
    },
    {
      "channel": 0,
      "note": 66,
      "start": 18.5744,
      "duration": 0.5478,
      "velocity": 96,
      "chip": "ym2612"
    },
    {
      "channel": 1,
      "note": 59,
      "start": 18.5751,
      "duration": 0.1186,
      "velocity": 99,
      "chip": "ym2612"
    },
    {
      "channel": 2,
      "note": 83,
      "start": 18.5774,
      "duration": 2.0146,
      "velocity": 97,
      "chip": "ym2612"
    },
    {
      "channel": 3,
      "note": 51,
      "start": 18.5807,
      "duration": 0.0907,
      "velocity": 127,
      "chip": "ym2612"
    },
    {
      "channel": 4,
      "note": 67,
      "start": 18.5994,
      "duration": 0.6611,
      "velocity": 96,
      "chip": "ym2612"
    },
    {
      "channel": 3,
      "note": 51,
      "start": 18.6946,
      "duration": 0.2513,
      "velocity": 127,
      "chip": "ym2612"
    },
    {
      "channel": 1,
      "note": 59,
      "start": 18.9685,
      "duration": 0.1544,
      "velocity": 99,
      "chip": "ym2612"
    },
    {
      "channel": 3,
      "note": 51,
      "start": 18.9693,
      "duration": 0.1309,
      "velocity": 127,
      "chip": "ym2612"
    },
    {
      "channel": 0,
      "note": 73,
      "start": 19.1225,
      "duration": 1.4918,
      "velocity": 96,
      "chip": "ym2612"
    },
    {
      "channel": 3,
      "note": 51,
      "start": 19.1238,
      "duration": 0.2508,
      "velocity": 127,
      "chip": "ym2612"
    },
    {
      "channel": 4,
      "note": 66,
      "start": 19.2611,
      "duration": 1.3727,
      "velocity": 96,
      "chip": "ym2612"
    },
    {
      "channel": 1,
      "note": 59,
      "start": 19.3972,
      "duration": 0.1186,
      "velocity": 99,
      "chip": "ym2612"
    },
    {
      "channel": 3,
      "note": 51,
      "start": 19.398,
      "duration": 0.0955,
      "velocity": 127,
      "chip": "ym2612"
    },
    {
      "channel": 3,
      "note": 51,
      "start": 19.5168,
      "duration": 0.2512,
      "velocity": 127,
      "chip": "ym2612"
    },
    {
      "channel": 1,
      "note": 59,
      "start": 19.7905,
      "duration": 0.1544,
      "velocity": 99,
      "chip": "ym2612"
    },
    {
      "channel": 3,
      "note": 51,
      "start": 19.7914,
      "duration": 0.1313,
      "velocity": 127,
      "chip": "ym2612"
    },
    {
      "channel": 3,
      "note": 51,
      "start": 19.9483,
      "duration": 0.2488,
      "velocity": 127,
      "chip": "ym2612"
    },
    {
      "channel": 1,
      "note": 59,
      "start": 20.22,
      "duration": 0.1202,
      "velocity": 99,
      "chip": "ym2612"
    },
    {
      "channel": 3,
      "note": 55,
      "start": 20.2234,
      "duration": 0.0945,
      "velocity": 127,
      "chip": "ym2612"
    },
    {
      "channel": 3,
      "note": 51,
      "start": 20.3411,
      "duration": 0.2513,
      "velocity": 127,
      "chip": "ym2612"
    },
    {
      "channel": 1,
      "note": 59,
      "start": 20.6153,
      "duration": 0.1555,
      "velocity": 99,
      "chip": "ym2612"
    },
    {
      "channel": 3,
      "note": 51,
      "start": 20.6164,
      "duration": 0.1301,
      "velocity": 127,
      "chip": "ym2612"
    },
    {
      "channel": 0,
      "note": 86,
      "start": 20.7705,
      "duration": 0.0406,
      "velocity": 103,
      "chip": "ym2612"
    },
    {
      "channel": 3,
      "note": 51,
      "start": 20.7741,
      "duration": 0.0351,
      "velocity": 127,
      "chip": "ym2612"
    },
    {
      "channel": 4,
      "note": 73,
      "start": 20.7944,
      "duration": 0.04,
      "velocity": 103,
      "chip": "ym2612"
    },
    {
      "channel": 0,
      "note": 85,
      "start": 20.8114,
      "duration": 0.1194,
      "velocity": 103,
      "chip": "ym2612"
    },
    {
      "channel": 1,
      "note": 59,
      "start": 20.8119,
      "duration": 0.1195,
      "velocity": 99,
      "chip": "ym2612"
    },
    {
      "channel": 2,
      "note": 78,
      "start": 20.8124,
      "duration": 0.1525,
      "velocity": 97,
      "chip": "ym2612"
    },
    {
      "channel": 3,
      "note": 55,
      "start": 20.816,
      "duration": 0.0932,
      "velocity": 127,
      "chip": "ym2612"
    },
    {
      "channel": 4,
      "note": 86,
      "start": 20.8347,
      "duration": 0.1152,
      "velocity": 103,
      "chip": "ym2612"
    },
    {
      "channel": 0,
      "note": 81,
      "start": 20.931,
      "duration": 0.0372,
      "velocity": 103,
      "chip": "ym2612"
    },
    {
      "channel": 3,
      "note": 51,
      "start": 20.9322,
      "duration": 0.033,
      "velocity": 127,
      "chip": "ym2612"
    },
    {
      "channel": 4,
      "note": 85,
      "start": 20.9502,
      "duration": 0.0381,
      "velocity": 103,
      "chip": "ym2612"
    },
    {
      "channel": 0,
      "note": 78,
      "start": 20.9685,
      "duration": 0.1545,
      "velocity": 103,
      "chip": "ym2612"
    },
    {
      "channel": 1,
      "note": 54,
      "start": 20.969,
      "duration": 0.1545,
      "velocity": 99,
      "chip": "ym2612"
    },
    {
      "channel": 2,
      "note": 83,
      "start": 20.9695,
      "duration": 0.1882,
      "velocity": 97,
      "chip": "ym2612"
    },
    {
      "channel": 3,
      "note": 51,
      "start": 20.9701,
      "duration": 0.1307,
      "velocity": 127,
      "chip": "ym2612"
    },
    {
      "channel": 4,
      "note": 81,
      "start": 20.9886,
      "duration": 0.1546,
      "velocity": 103,
      "chip": "ym2612"
    },
    {
      "channel": 0,
      "note": 83,
      "start": 21.1232,
      "duration": 0.4322,
      "velocity": 103,
      "chip": "ym2612"
    },
    {
      "channel": 1,
      "note": 59,
      "start": 21.1238,
      "duration": 0.0376,
      "velocity": 99,
      "chip": "ym2612"
    },
    {
      "channel": 3,
      "note": 51,
      "start": 21.1246,
      "duration": 0.0334,
      "velocity": 127,
      "chip": "ym2612"
    },
    {
      "channel": 4,
      "note": 78,
      "start": 21.1435,
      "duration": 0.4318,
      "velocity": 103,
      "chip": "ym2612"
    },
    {
      "channel": 1,
      "note": 57,
      "start": 21.1615,
      "duration": 0.1197,
      "velocity": 99,
      "chip": "ym2612"
    },
    {
      "channel": 2,
      "note": 81,
      "start": 21.1621,
      "duration": 2.0185,
      "velocity": 97,
      "chip": "ym2612"
    },
    {
      "channel": 3,
      "note": 51,
      "start": 21.1629,
      "duration": 0.0959,
      "velocity": 127,
      "chip": "ym2612"
    },
    {
      "channel": 3,
      "note": 51,
      "start": 21.2821,
      "duration": 0.2513,
      "velocity": 127,
      "chip": "ym2612"
    },
    {
      "channel": 1,
      "note": 57,
      "start": 21.556,
      "duration": 0.1549,
      "velocity": 99,
      "chip": "ym2612"
    },
    {
      "channel": 3,
      "note": 51,
      "start": 21.5568,
      "duration": 0.1313,
      "velocity": 127,
      "chip": "ym2612"
    },
    {
      "channel": 0,
      "note": 71,
      "start": 21.7105,
      "duration": 0.2742,
      "velocity": 103,
      "chip": "ym2612"
    },
    {
      "channel": 3,
      "note": 51,
      "start": 21.7118,
      "duration": 0.2509,
      "velocity": 127,
      "chip": "ym2612"
    },
    {
      "channel": 4,
      "note": 83,
      "start": 21.8489,
      "duration": 0.1551,
      "velocity": 103,
      "chip": "ym2612"
    },
    {
      "channel": 0,
      "note": 73,
      "start": 21.985,
      "duration": 0.119,
      "velocity": 103,
      "chip": "ym2612"
    },
    {
      "channel": 1,
      "note": 57,
      "start": 21.9856,
      "duration": 0.119,
      "velocity": 99,
      "chip": "ym2612"
    },
    {
      "channel": 3,
      "note": 51,
      "start": 21.9864,
      "duration": 0.0955,
      "velocity": 127,
      "chip": "ym2612"
    },
    {
      "channel": 4,
      "note": 71,
      "start": 22.0043,
      "duration": 0.2379,
      "velocity": 103,
      "chip": "ym2612"
    },
    {
      "channel": 0,
      "note": 74,
      "start": 22.1042,
      "duration": 0.2742,
      "velocity": 103,
      "chip": "ym2612"
    },
    {
      "channel": 3,
      "note": 51,
      "start": 22.1054,
      "duration": 0.251,
      "velocity": 127,
      "chip": "ym2612"
    },
    {
      "channel": 4,
      "note": 73,
      "start": 22.2426,
      "duration": 0.1553,
      "velocity": 103,
      "chip": "ym2612"
    },
    {
      "channel": 0,
      "note": 76,
      "start": 22.3787,
      "duration": 0.1541,
      "velocity": 103,
      "chip": "ym2612"
    },
    {
      "channel": 1,
      "note": 57,
      "start": 22.3793,
      "duration": 0.154,
      "velocity": 99,
      "chip": "ym2612"
    },
    {
      "channel": 3,
      "note": 51,
      "start": 22.3801,
      "duration": 0.1304,
      "velocity": 127,
      "chip": "ym2612"
    },
    {
      "channel": 4,
      "note": 74,
      "start": 22.3982,
      "duration": 0.2727,
      "velocity": 103,
      "chip": "ym2612"
    },
    {
      "channel": 0,
      "note": 78,
      "start": 22.533,
      "duration": 0.2741,
      "velocity": 103,
      "chip": "ym2612"
    },
    {
      "channel": 3,
      "note": 51,
      "start": 22.5367,
      "duration": 0.2482,
      "velocity": 127,
      "chip": "ym2612"
    },
    {
      "channel": 4,
      "note": 76,
      "start": 22.6711,
      "duration": 0.1602,
      "velocity": 103,
      "chip": "ym2612"
    },
    {
      "channel": 0,
      "note": 79,
      "start": 22.8073,
      "duration": 0.5514,
      "velocity": 103,
      "chip": "ym2612"
    },
    {
      "channel": 1,
      "note": 57,
      "start": 22.8078,
      "duration": 0.1211,
      "velocity": 99,
      "chip": "ym2612"
    },
    {
      "channel": 3,
      "note": 55,
      "start": 22.8111,
      "duration": 0.0951,
      "velocity": 127,
      "chip": "ym2612"
    },
    {
      "channel": 4,
      "note": 78,
      "start": 22.8317,
      "duration": 0.5496,
      "velocity": 103,
      "chip": "ym2612"
    },
    {
      "channel": 3,
      "note": 51,
      "start": 22.93,
      "duration": 0.2508,
      "velocity": 127,
      "chip": "ym2612"
    },
    {
      "channel": 1,
      "note": 57,
      "start": 23.2034,
      "duration": 0.1559,
      "velocity": 99,
      "chip": "ym2612"
    },
    {
      "channel": 3,
      "note": 51,
      "start": 23.2043,
      "duration": 0.1322,
      "velocity": 127,
      "chip": "ym2612"
    },
    {
      "channel": 0,
      "note": 81,
      "start": 23.3589,
      "duration": 0.543,
      "velocity": 103,
      "chip": "ym2612"
    },
    {
      "channel": 3,
      "note": 51,
      "start": 23.3631,
      "duration": 0.0325,
      "velocity": 127,
      "chip": "ym2612"
    },
    {
      "channel": 4,
      "note": 79,
      "start": 23.3815,
      "duration": 0.5449,
      "velocity": 103,
      "chip": "ym2612"
    },
    {
      "channel": 1,
      "note": 57,
      "start": 23.398,
      "duration": 0.0369,
      "velocity": 99,
      "chip": "ym2612"
    },
    {
      "channel": 2,
      "note": 76,
      "start": 23.3985,
      "duration": 0.0704,
      "velocity": 97,
      "chip": "ym2612"
    },
    {
      "channel": 3,
      "note": 55,
      "start": 23.4016,
      "duration": 0.0312,
      "velocity": 127,
      "chip": "ym2612"
    },
    {
      "channel": 3,
      "note": 51,
      "start": 23.4358,
      "duration": 0.0336,
      "velocity": 127,
      "chip": "ym2612"
    },
    {
      "channel": 1,
      "note": 55,
      "start": 23.473,
      "duration": 0.1548,
      "velocity": 99,
      "chip": "ym2612"
    },
    {
      "channel": 2,
      "note": 81,
      "start": 23.4735,
      "duration": 0.406,
      "velocity": 97,
      "chip": "ym2612"
    },
    {
      "channel": 3,
      "note": 51,
      "start": 23.4766,
      "duration": 0.4032,
      "velocity": 115,
      "chip": "ym2612"
    },
    {
      "channel": 1,
      "note": 57,
      "start": 23.6279,
      "duration": 0.2763,
      "velocity": 99,
      "chip": "ym2612"
    },
    {
      "channel": 0,
      "note": 71,
      "start": 23.9039,
      "duration": 0.1166,
      "velocity": 96,
      "chip": "ym2612"
    },
    {
      "channel": 1,
      "note": 59,
      "start": 23.9045,
      "duration": 0.1165,
      "velocity": 99,
      "chip": "ym2612"
    },
    {
      "channel": 2,
      "note": 83,
      "start": 23.9051,
      "duration": 0.0929,
      "velocity": 97,
      "chip": "ym2612"
    },
    {
      "channel": 3,
      "note": 58,
      "start": 23.9085,
      "duration": 0.0898,
      "velocity": 127,
      "chip": "ym2612"
    },
    {
      "channel": 4,
      "note": 81,
      "start": 23.9291,
      "duration": 0.2298,
      "velocity": 96,
      "chip": "ym2612"
    },
    {
      "channel": 0,
      "note": 73,
      "start": 24.0207,
      "duration": 0.2742,
      "velocity": 96,
      "chip": "ym2612"
    },
    {
      "channel": 3,
      "note": 51,
      "start": 24.022,
      "duration": 0.2508,
      "velocity": 127,
      "chip": "ym2612"
    },
    {
      "channel": 4,
      "note": 71,
      "start": 24.1595,
      "duration": 0.1548,
      "velocity": 96,
      "chip": "ym2612"
    },
    {
      "channel": 0,
      "note": 74,
      "start": 24.2951,
      "duration": 0.1546,
      "velocity": 96,
      "chip": "ym2612"
    },
    {
      "channel": 1,
      "note": 59,
      "start": 24.2957,
      "duration": 0.1544,
      "velocity": 99,
      "chip": "ym2612"
    },
    {
      "channel": 3,
      "note": 51,
      "start": 24.2966,
      "duration": 0.1311,
      "velocity": 127,
      "chip": "ym2612"
    },
    {
      "channel": 4,
      "note": 73,
      "start": 24.3145,
      "duration": 0.2735,
      "velocity": 96,
      "chip": "ym2612"
    },
    {
      "channel": 3,
      "note": 51,
      "start": 24.451,
      "duration": 0.2511,
      "velocity": 127,
      "chip": "ym2612"
    },
    {
      "channel": 1,
      "note": 59,
      "start": 24.7247,
      "duration": 0.1217,
      "velocity": 99,
      "chip": "ym2612"
    },
    {
      "channel": 3,
      "note": 51,
      "start": 24.7255,
      "duration": 0.0983,
      "velocity": 127,
      "chip": "ym2612"
    },
    {
      "channel": 0,
      "note": 73,
      "start": 24.846,
      "duration": 0.2744,
      "velocity": 96,
      "chip": "ym2612"
    },
    {
      "channel": 2,
      "note": 78,
      "start": 24.8469,
      "duration": 0.251,
      "velocity": 97,
      "chip": "ym2612"
    },
    {
      "channel": 3,
      "note": 51,
      "start": 24.8475,
      "duration": 0.2506,
      "velocity": 127,
      "chip": "ym2612"
    },
    {
      "channel": 4,
      "note": 74,
      "start": 24.9843,
      "duration": 0.1561,
      "velocity": 96,
      "chip": "ym2612"
    },
    {
      "channel": 0,
      "note": 69,
      "start": 25.1207,
      "duration": 0.1547,
      "velocity": 96,
      "chip": "ym2612"
    },
    {
      "channel": 1,
      "note": 59,
      "start": 25.1212,
      "duration": 0.1548,
      "velocity": 99,
      "chip": "ym2612"
    },
    {
      "channel": 2,
      "note": 85,
      "start": 25.1217,
      "duration": 0.1312,
      "velocity": 97,
      "chip": "ym2612"
    },
    {
      "channel": 3,
      "note": 51,
      "start": 25.1223,
      "duration": 0.1309,
      "velocity": 127,
      "chip": "ym2612"
    },
    {
      "channel": 4,
      "note": 73,
      "start": 25.1407,
      "duration": 0.273,
      "velocity": 96,
      "chip": "ym2612"
    },
    {
      "channel": 0,
      "note": 71,
      "start": 25.2757,
      "duration": 0.2745,
      "velocity": 96,
      "chip": "ym2612"
    },
    {
      "channel": 2,
      "note": 86,
      "start": 25.2765,
      "duration": 0.251,
      "velocity": 97,
      "chip": "ym2612"
    },
    {
      "channel": 3,
      "note": 51,
      "start": 25.2796,
      "duration": 0.2481,
      "velocity": 127,
      "chip": "ym2612"
    },
    {
      "channel": 4,
      "note": 69,
      "start": 25.414,
      "duration": 0.1591,
      "velocity": 96,
      "chip": "ym2612"
    },
    {
      "channel": 0,
      "note": 66,
      "start": 25.5504,
      "duration": 0.1195,
      "velocity": 96,
      "chip": "ym2612"
    },
    {
      "channel": 1,
      "note": 59,
      "start": 25.5512,
      "duration": 0.1191,
      "velocity": 99,
      "chip": "ym2612"
    },
    {
      "channel": 3,
      "note": 55,
      "start": 25.5545,
      "duration": 0.0932,
      "velocity": 127,
      "chip": "ym2612"
    },
    {
      "channel": 4,
      "note": 71,
      "start": 25.5733,
      "duration": 0.2348,
      "velocity": 96,
      "chip": "ym2612"
    },
    {
      "channel": 3,
      "note": 51,
      "start": 25.6711,
      "duration": 0.2511,
      "velocity": 127,
      "chip": "ym2612"
    },
    {
      "channel": 1,
      "note": 59,
      "start": 25.9449,
      "duration": 0.1542,
      "velocity": 99,
      "chip": "ym2612"
    },
    {
      "channel": 3,
      "note": 51,
      "start": 25.9459,
      "duration": 0.131,
      "velocity": 127,
      "chip": "ym2612"
    },
    {
      "channel": 3,
      "note": 51,
      "start": 26.1025,
      "duration": 0.0326,
      "velocity": 127,
      "chip": "ym2612"
    },
    {
      "channel": 0,
      "note": 71,
      "start": 26.1379,
      "duration": 0.1548,
      "velocity": 96,
      "chip": "ym2612"
    },
    {
      "channel": 1,
      "note": 59,
      "start": 26.1385,
      "duration": 0.1196,
      "velocity": 99,
      "chip": "ym2612"
    },
    {
      "channel": 3,
      "note": 55,
      "start": 26.1423,
      "duration": 0.0938,
      "velocity": 127,
      "chip": "ym2612"
    },
    {
      "channel": 4,
      "note": 66,
      "start": 26.1614,
      "duration": 0.1518,
      "velocity": 96,
      "chip": "ym2612"
    },
    {
      "channel": 2,
      "note": 86,
      "start": 26.2587,
      "duration": 0.0317,
      "velocity": 97,
      "chip": "ym2612"
    },
    {
      "channel": 3,
      "note": 51,
      "start": 26.2593,
      "duration": 0.0314,
      "velocity": 127,
      "chip": "ym2612"
    },
    {
      "channel": 0,
      "note": 78,
      "start": 26.2928,
      "duration": 0.1931,
      "velocity": 96,
      "chip": "ym2612"
    },
    {
      "channel": 1,
      "note": 54,
      "start": 26.2934,
      "duration": 0.1546,
      "velocity": 99,
      "chip": "ym2612"
    },
    {
      "channel": 2,
      "note": 83,
      "start": 26.2939,
      "duration": 0.1315,
      "velocity": 97,
      "chip": "ym2612"
    },
    {
      "channel": 3,
      "note": 51,
      "start": 26.2945,
      "duration": 0.1312,
      "velocity": 127,
      "chip": "ym2612"
    },
    {
      "channel": 4,
      "note": 71,
      "start": 26.3135,
      "duration": 0.1964,
      "velocity": 96,
      "chip": "ym2612"
    },
    {
      "channel": 1,
      "note": 59,
      "start": 26.4483,
      "duration": 0.0381,
      "velocity": 99,
      "chip": "ym2612"
    },
    {
      "channel": 2,
      "note": 78,
      "start": 26.4488,
      "duration": 0.0329,
      "velocity": 97,
      "chip": "ym2612"
    },
    {
      "channel": 3,
      "note": 51,
      "start": 26.4494,
      "duration": 0.0326,
      "velocity": 127,
      "chip": "ym2612"
    },
    {
      "channel": 0,
      "note": 76,
      "start": 26.4861,
      "duration": 0.1203,
      "velocity": 96,
      "chip": "ym2612"
    },
    {
      "channel": 1,
      "note": 57,
      "start": 26.4867,
      "duration": 0.1201,
      "velocity": 99,
      "chip": "ym2612"
    },
    {
      "channel": 2,
      "note": 81,
      "start": 26.4872,
      "duration": 0.0968,
      "velocity": 97,
      "chip": "ym2612"
    },
    {
      "channel": 3,
      "note": 51,
      "start": 26.4907,
      "duration": 0.0936,
      "velocity": 127,
      "chip": "ym2612"
    },
    {
      "channel": 4,
      "note": 78,
      "start": 26.5102,
      "duration": 0.2344,
      "velocity": 96,
      "chip": "ym2612"
    },
    {
      "channel": 3,
      "note": 51,
      "start": 26.6078,
      "duration": 0.251,
      "velocity": 127,
      "chip": "ym2612"
    },
    {
      "channel": 1,
      "note": 57,
      "start": 26.8813,
      "duration": 0.1536,
      "velocity": 99,
      "chip": "ym2612"
    },
    {
      "channel": 3,
      "note": 51,
      "start": 26.8821,
      "duration": 0.1305,
      "velocity": 127,
      "chip": "ym2612"
    },
    {
      "channel": 3,
      "note": 51,
      "start": 27.0358,
      "duration": 0.2513,
      "velocity": 127,
      "chip": "ym2612"
    },
    {
      "channel": 1,
      "note": 57,
      "start": 27.3097,
      "duration": 0.1207,
      "velocity": 99,
      "chip": "ym2612"
    },
    {
      "channel": 3,
      "note": 51,
      "start": 27.3105,
      "duration": 0.0972,
      "velocity": 127,
      "chip": "ym2612"
    },
    {
      "channel": 0,
      "note": 73,
      "start": 27.43,
      "duration": 0.2742,
      "velocity": 96,
      "chip": "ym2612"
    },
    {
      "channel": 3,
      "note": 51,
      "start": 27.4313,
      "duration": 0.251,
      "velocity": 127,
      "chip": "ym2612"
    },
    {
      "channel": 4,
      "note": 76,
      "start": 27.5683,
      "duration": 0.1552,
      "velocity": 96,
      "chip": "ym2612"
    },
    {
      "channel": 0,
      "note": 76,
      "start": 27.7046,
      "duration": 0.1539,
      "velocity": 96,
      "chip": "ym2612"
    },
    {
      "channel": 1,
      "note": 57,
      "start": 27.7051,
      "duration": 0.1542,
      "velocity": 99,
      "chip": "ym2612"
    },
    {
      "channel": 3,
      "note": 51,
      "start": 27.7059,
      "duration": 0.1304,
      "velocity": 127,
      "chip": "ym2612"
    },
    {
      "channel": 4,
      "note": 73,
      "start": 27.7239,
      "duration": 0.2728,
      "velocity": 96,
      "chip": "ym2612"
    },
    {
      "channel": 0,
      "note": 73,
      "start": 27.859,
      "duration": 0.274,
      "velocity": 96,
      "chip": "ym2612"
    },
    {
      "channel": 3,
      "note": 51,
      "start": 27.8626,
      "duration": 0.2483,
      "velocity": 127,
      "chip": "ym2612"
    },
    {
      "channel": 4,
      "note": 76,
      "start": 27.997,
      "duration": 0.1612,
      "velocity": 96,
      "chip": "ym2612"
    },
    {
      "channel": 0,
      "note": 71,
      "start": 28.1332,
      "duration": 0.1196,
      "velocity": 96,
      "chip": "ym2612"
    },
    {
      "channel": 1,
      "note": 57,
      "start": 28.1337,
      "duration": 0.1198,
      "velocity": 99,
      "chip": "ym2612"
    },
    {
      "channel": 3,
      "note": 55,
      "start": 28.1388,
      "duration": 0.0918,
      "velocity": 127,
      "chip": "ym2612"
    },
    {
      "channel": 4,
      "note": 73,
      "start": 28.1585,
      "duration": 0.2325,
      "velocity": 96,
      "chip": "ym2612"
    },
    {
      "channel": 0,
      "note": 69,
      "start": 28.253,
      "duration": 0.2742,
      "velocity": 96,
      "chip": "ym2612"
    },
    {
      "channel": 2,
      "note": 76,
      "start": 28.2544,
      "duration": 0.2507,
      "velocity": 97,
      "chip": "ym2612"
    },
    {
      "channel": 3,
      "note": 51,
      "start": 28.255,
      "duration": 0.2504,
      "velocity": 127,
      "chip": "ym2612"
    },
    {
      "channel": 4,
      "note": 71,
      "start": 28.3913,
      "duration": 0.1553,
      "velocity": 96,
      "chip": "ym2612"
    },
    {
      "channel": 1,
      "note": 57,
      "start": 28.5278,
      "duration": 0.1542,
      "velocity": 99,
      "chip": "ym2612"
    },
    {
      "channel": 2,
      "note": 81,
      "start": 28.5283,
      "duration": 0.1311,
      "velocity": 97,
      "chip": "ym2612"
    },
    {
      "channel": 3,
      "note": 51,
      "start": 28.529,
      "duration": 0.1307,
      "velocity": 127,
      "chip": "ym2612"
    },
    {
      "channel": 2,
      "note": 83,
      "start": 28.6826,
      "duration": 0.0342,
      "velocity": 97,
      "chip": "ym2612"
    },
    {
      "channel": 3,
      "note": 51,
      "start": 28.6862,
      "duration": 0.0309,
      "velocity": 127,
      "chip": "ym2612"
    },
    {
      "channel": 0,
      "note": 73,
      "start": 28.7197,
      "duration": 0.1563,
      "velocity": 96,
      "chip": "ym2612"
    },
    {
      "channel": 1,
      "note": 57,
      "start": 28.7203,
      "duration": 0.1188,
      "velocity": 99,
      "chip": "ym2612"
    },
    {
      "channel": 2,
      "note": 85,
      "start": 28.7207,
      "duration": 0.0957,
      "velocity": 97,
      "chip": "ym2612"
    },
    {
      "channel": 3,
      "note": 55,
      "start": 28.7239,
      "duration": 0.0929,
      "velocity": 127,
      "chip": "ym2612"
    },
    {
      "channel": 4,
      "note": 69,
      "start": 28.7422,
      "duration": 0.1528,
      "velocity": 96,
      "chip": "ym2612"
    },
    {
      "channel": 2,
      "note": 81,
      "start": 28.8397,
      "duration": 0.0326,
      "velocity": 97,
      "chip": "ym2612"
    },
    {
      "channel": 3,
      "note": 51,
      "start": 28.8403,
      "duration": 0.0323,
      "velocity": 127,
      "chip": "ym2612"
    },
    {
      "channel": 0,
      "note": 69,
      "start": 28.8763,
      "duration": 0.1538,
      "velocity": 96,
      "chip": "ym2612"
    },
    {
      "channel": 1,
      "note": 55,
      "start": 28.8769,
      "duration": 0.1537,
      "velocity": 99,
      "chip": "ym2612"
    },
    {
      "channel": 2,
      "note": 88,
      "start": 28.8773,
      "duration": 0.1303,
      "velocity": 97,
      "chip": "ym2612"
    },
    {
      "channel": 3,
      "note": 51,
      "start": 28.878,
      "duration": 0.13,
      "velocity": 127,
      "chip": "ym2612"
    },
    {
      "channel": 4,
      "note": 73,
      "start": 28.8953,
      "duration": 0.2735,
      "velocity": 96,
      "chip": "ym2612"
    },
    {
      "channel": 0,
      "note": 71,
      "start": 29.0303,
      "duration": 1.92,
      "velocity": 96,
      "chip": "ym2612"
    },
    {
      "channel": 1,
      "note": 57,
      "start": 29.0309,
      "duration": 0.2739,
      "velocity": 99,
      "chip": "ym2612"
    },
    {
      "channel": 2,
      "note": 86,
      "start": 29.0314,
      "duration": 1.8966,
      "velocity": 97,
      "chip": "ym2612"
    },
    {
      "channel": 3,
      "note": 51,
      "start": 29.032,
      "duration": 0.2504,
      "velocity": 127,
      "chip": "ym2612"
    },
    {
      "channel": 4,
      "note": 69,
      "start": 29.1691,
      "duration": 1.807,
      "velocity": 96,
      "chip": "ym2612"
    },
    {
      "channel": 1,
      "note": 59,
      "start": 29.3051,
      "duration": 0.1194,
      "velocity": 99,
      "chip": "ym2612"
    },
    {
      "channel": 3,
      "note": 51,
      "start": 29.3086,
      "duration": 0.0936,
      "velocity": 127,
      "chip": "ym2612"
    },
    {
      "channel": 3,
      "note": 51,
      "start": 29.4254,
      "duration": 0.2512,
      "velocity": 127,
      "chip": "ym2612"
    },
    {
      "channel": 1,
      "note": 59,
      "start": 29.6992,
      "duration": 0.1542,
      "velocity": 99,
      "chip": "ym2612"
    },
    {
      "channel": 3,
      "note": 51,
      "start": 29.7,
      "duration": 0.131,
      "velocity": 127,
      "chip": "ym2612"
    },
    {
      "channel": 3,
      "note": 51,
      "start": 29.8543,
      "duration": 0.2512,
      "velocity": 127,
      "chip": "ym2612"
    },
    {
      "channel": 1,
      "note": 59,
      "start": 30.1281,
      "duration": 0.1193,
      "velocity": 99,
      "chip": "ym2612"
    },
    {
      "channel": 3,
      "note": 51,
      "start": 30.129,
      "duration": 0.096,
      "velocity": 127,
      "chip": "ym2612"
    },
    {
      "channel": 3,
      "note": 51,
      "start": 30.2483,
      "duration": 0.2513,
      "velocity": 127,
      "chip": "ym2612"
    },
    {
      "channel": 1,
      "note": 59,
      "start": 30.5223,
      "duration": 0.1539,
      "velocity": 99,
      "chip": "ym2612"
    },
    {
      "channel": 3,
      "note": 51,
      "start": 30.5232,
      "duration": 0.1306,
      "velocity": 127,
      "chip": "ym2612"
    },
    {
      "channel": 1,
      "note": 54,
      "start": 30.6763,
      "duration": 0.2767,
      "velocity": 99,
      "chip": "ym2612"
    },
    {
      "channel": 3,
      "note": 51,
      "start": 30.6796,
      "duration": 0.2486,
      "velocity": 127,
      "chip": "ym2612"
    },
    {
      "channel": 1,
      "note": 59,
      "start": 30.9532,
      "duration": 0.1181,
      "velocity": 99,
      "chip": "ym2612"
    },
    {
      "channel": 3,
      "note": 55,
      "start": 30.9567,
      "duration": 0.0923,
      "velocity": 127,
      "chip": "ym2612"
    },
    {
      "channel": 3,
      "note": 51,
      "start": 31.0722,
      "duration": 0.2513,
      "velocity": 127,
      "chip": "ym2612"
    },
    {
      "channel": 0,
      "note": 71,
      "start": 31.3458,
      "duration": 0.1319,
      "velocity": 98,
      "chip": "ym2612"
    },
    {
      "channel": 1,
      "note": 59,
      "start": 31.3464,
      "duration": 0.1545,
      "velocity": 99,
      "chip": "ym2612"
    },
    {
      "channel": 3,
      "note": 51,
      "start": 31.3475,
      "duration": 0.1312,
      "velocity": 127,
      "chip": "ym2612"
    },
    {
      "channel": 4,
      "note": 71,
      "start": 31.366,
      "duration": 0.1531,
      "velocity": 98,
      "chip": "ym2612"
    },
    {
      "channel": 0,
      "note": 73,
      "start": 31.5006,
      "duration": 0.1311,
      "velocity": 98,
      "chip": "ym2612"
    },
    {
      "channel": 3,
      "note": 51,
      "start": 31.5043,
      "duration": 0.1282,
      "velocity": 127,
      "chip": "ym2612"
    },
    {
      "channel": 4,
      "note": 71,
      "start": 31.5223,
      "duration": 0.152,
      "velocity": 98,
      "chip": "ym2612"
    },
    {
      "channel": 0,
      "note": 74,
      "start": 31.6547,
      "duration": 0.1316,
      "velocity": 98,
      "chip": "ym2612"
    },
    {
      "channel": 1,
      "note": 59,
      "start": 31.6552,
      "duration": 0.3087,
      "velocity": 99,
      "chip": "ym2612"
    },
    {
      "channel": 3,
      "note": 55,
      "start": 31.6591,
      "duration": 0.1283,
      "velocity": 127,
      "chip": "ym2612"
    },
    {
      "channel": 4,
      "note": 73,
      "start": 31.6772,
      "duration": 0.148,
      "velocity": 98,
      "chip": "ym2612"
    },
    {
      "channel": 0,
      "note": 76,
      "start": 31.8094,
      "duration": 0.1312,
      "velocity": 98,
      "chip": "ym2612"
    },
    {
      "channel": 3,
      "note": 51,
      "start": 31.8105,
      "duration": 0.1309,
      "velocity": 127,
      "chip": "ym2612"
    },
    {
      "channel": 4,
      "note": 74,
      "start": 31.8281,
      "duration": 0.1528,
      "velocity": 98,
      "chip": "ym2612"
    },
    {
      "channel": 0,
      "note": 78,
      "start": 31.9636,
      "duration": 0.0257,
      "velocity": 98,
      "chip": "ym2612"
    },
    {
      "channel": 1,
      "note": 57,
      "start": 31.9641,
      "duration": 0.0766,
      "velocity": 99,
      "chip": "ym2612"
    },
    {
      "channel": 3,
      "note": 51,
      "start": 31.965,
      "duration": 0.0334,
      "velocity": 127,
      "chip": "ym2612"
    },
    {
      "channel": 4,
      "note": 76,
      "start": 31.9842,
      "duration": 0.0259,
      "velocity": 98,
      "chip": "ym2612"
    },
    {
      "channel": 0,
      "note": 79,
      "start": 31.9921,
      "duration": 0.0256,
      "velocity": 98,
      "chip": "ym2612"
    },
    {
      "channel": 3,
      "note": 51,
      "start": 32.0028,
      "duration": 0.0339,
      "velocity": 127,
      "chip": "ym2612"
    },
    {
      "channel": 4,
      "note": 78,
      "start": 32.013,
      "duration": 0.024,
      "velocity": 98,
      "chip": "ym2612"
    },
    {
      "channel": 0,
      "note": 81,
      "start": 32.0209,
      "duration": 0.0149,
      "velocity": 98,
      "chip": "ym2612"
    },
    {
      "channel": 0,
      "note": 83,
      "start": 32.0404,
      "duration": 0.0967,
      "velocity": 98,
      "chip": "ym2612"
    },
    {
      "channel": 1,
      "note": 55,
      "start": 32.0411,
      "duration": 0.1193,
      "velocity": 99,
      "chip": "ym2612"
    },
    {
      "channel": 2,
      "note": 59,
      "start": 32.0434,
      "duration": 0.5226,
      "velocity": 97,
      "chip": "ym2612"
    },
    {
      "channel": 3,
      "note": 51,
      "start": 32.0481,
      "duration": 0.0897,
      "velocity": 127,
      "chip": "ym2612"
    },
    {
      "channel": 4,
      "note": 79,
      "start": 32.0488,
      "duration": 0.0153,
      "velocity": 98,
      "chip": "ym2612"
    },
    {
      "channel": 4,
      "note": 81,
      "start": 32.068,
      "duration": 0.2076,
      "velocity": 98,
      "chip": "ym2612"
    },
    {
      "channel": 0,
      "note": 85,
      "start": 32.1601,
      "duration": 0.2515,
      "velocity": 98,
      "chip": "ym2612"
    },
    {
      "channel": 3,
      "note": 51,
      "start": 32.1613,
      "duration": 0.251,
      "velocity": 127,
      "chip": "ym2612"
    },
    {
      "channel": 4,
      "note": 83,
      "start": 32.2984,
      "duration": 0.1519,
      "velocity": 98,
      "chip": "ym2612"
    },
    {
      "channel": 0,
      "note": 86,
      "start": 32.4346,
      "duration": 0.2881,
      "velocity": 98,
      "chip": "ym2612"
    },
    {
      "channel": 1,
      "note": 55,
      "start": 32.4351,
      "duration": 0.1535,
      "velocity": 99,
      "chip": "ym2612"
    },
    {
      "channel": 3,
      "note": 51,
      "start": 32.436,
      "duration": 0.1303,
      "velocity": 127,
      "chip": "ym2612"
    },
    {
      "channel": 4,
      "note": 85,
      "start": 32.4532,
      "duration": 0.3091,
      "velocity": 98,
      "chip": "ym2612"
    },
    {
      "channel": 2,
      "note": 67,
      "start": 32.5892,
      "duration": 0.8412,
      "velocity": 97,
      "chip": "ym2612"
    },
    {
      "channel": 3,
      "note": 51,
      "start": 32.5898,
      "duration": 0.0317,
      "velocity": 127,
      "chip": "ym2612"
    },
    {
      "channel": 1,
      "note": 55,
      "start": 32.6253,
      "duration": 0.1208,
      "velocity": 99,
      "chip": "ym2612"
    },
    {
      "channel": 3,
      "note": 51,
      "start": 32.6261,
      "duration": 0.0973,
      "velocity": 127,
      "chip": "ym2612"
    },
    {
      "channel": 0,
      "note": 85,
      "start": 32.7458,
      "duration": 0.1319,
      "velocity": 98,
      "chip": "ym2612"
    },
    {
      "channel": 3,
      "note": 51,
      "start": 32.747,
      "duration": 0.1315,
      "velocity": 127,
      "chip": "ym2612"
    },
    {
      "channel": 4,
      "note": 86,
      "start": 32.7655,
      "duration": 0.1532,
      "velocity": 98,
      "chip": "ym2612"
    },
    {
      "channel": 0,
      "note": 86,
      "start": 32.9007,
      "duration": 0.0971,
      "velocity": 98,
      "chip": "ym2612"
    },
    {
      "channel": 1,
      "note": 55,
      "start": 32.9013,
      "duration": 0.1205,
      "velocity": 99,
      "chip": "ym2612"
    },
    {
      "channel": 3,
      "note": 51,
      "start": 32.9022,
      "duration": 0.0965,
      "velocity": 127,
      "chip": "ym2612"
    },
    {
      "channel": 4,
      "note": 85,
      "start": 32.9217,
      "duration": 0.117,
      "velocity": 98,
      "chip": "ym2612"
    },
    {
      "channel": 0,
      "note": 88,
      "start": 33.0212,
      "duration": 0.0339,
      "velocity": 98,
      "chip": "ym2612"
    },
    {
      "channel": 3,
      "note": 51,
      "start": 33.0227,
      "duration": 0.0332,
      "velocity": 127,
      "chip": "ym2612"
    },
    {
      "channel": 4,
      "note": 86,
      "start": 33.0418,
      "duration": 0.0372,
      "velocity": 98,
      "chip": "ym2612"
    },
    {
      "channel": 0,
      "note": 85,
      "start": 33.0585,
      "duration": 0.3714,
      "velocity": 98,
      "chip": "ym2612"
    },
    {
      "channel": 1,
      "note": 55,
      "start": 33.0591,
      "duration": 0.1191,
      "velocity": 99,
      "chip": "ym2612"
    },
    {
      "channel": 3,
      "note": 51,
      "start": 33.0626,
      "duration": 0.0932,
      "velocity": 127,
      "chip": "ym2612"
    },
    {
      "channel": 4,
      "note": 88,
      "start": 33.0823,
      "duration": 0.3872,
      "velocity": 98,
      "chip": "ym2612"
    },
    {
      "channel": 3,
      "note": 51,
      "start": 33.1794,
      "duration": 0.2513,
      "velocity": 127,
      "chip": "ym2612"
    },
    {
      "channel": 0,
      "note": 83,
      "start": 33.4527,
      "duration": 0.4456,
      "velocity": 98,
      "chip": "ym2612"
    },
    {
      "channel": 1,
      "note": 55,
      "start": 33.4532,
      "duration": 0.1546,
      "velocity": 99,
      "chip": "ym2612"
    },
    {
      "channel": 2,
      "note": 59,
      "start": 33.4537,
      "duration": 0.1885,
      "velocity": 97,
      "chip": "ym2612"
    },
    {
      "channel": 3,
      "note": 51,
      "start": 33.4543,
      "duration": 0.131,
      "velocity": 127,
      "chip": "ym2612"
    },
    {
      "channel": 4,
      "note": 85,
      "start": 33.4727,
      "duration": 0.4664,
      "velocity": 98,
      "chip": "ym2612"
    },
    {
      "channel": 3,
      "note": 51,
      "start": 33.6086,
      "duration": 0.0341,
      "velocity": 127,
      "chip": "ym2612"
    },
    {
      "channel": 1,
      "note": 55,
      "start": 33.6464,
      "duration": 0.1201,
      "velocity": 99,
      "chip": "ym2612"
    },
    {
      "channel": 2,
      "note": 62,
      "start": 33.6468,
      "duration": 0.2519,
      "velocity": 97,
      "chip": "ym2612"
    },
    {
      "channel": 3,
      "note": 51,
      "start": 33.6475,
      "duration": 0.0966,
      "velocity": 127,
      "chip": "ym2612"
    },
    {
      "channel": 3,
      "note": 51,
      "start": 33.7674,
      "duration": 0.1317,
      "velocity": 127,
      "chip": "ym2612"
    },
    {
      "channel": 0,
      "note": 86,
      "start": 33.9213,
      "duration": 0.154,
      "velocity": 98,
      "chip": "ym2612"
    },
    {
      "channel": 1,
      "note": 55,
      "start": 33.9219,
      "duration": 0.119,
      "velocity": 99,
      "chip": "ym2612"
    },
    {
      "channel": 2,
      "note": 67,
      "start": 33.9224,
      "duration": 0.1535,
      "velocity": 97,
      "chip": "ym2612"
    },
    {
      "channel": 3,
      "note": 51,
      "start": 33.9229,
      "duration": 0.0956,
      "velocity": 127,
      "chip": "ym2612"
    },
    {
      "channel": 4,
      "note": 83,
      "start": 33.942,
      "duration": 0.1583,
      "velocity": 98,
      "chip": "ym2612"
    },
    {
      "channel": 3,
      "note": 51,
      "start": 34.0418,
      "duration": 0.0344,
      "velocity": 127,
      "chip": "ym2612"
    },
    {
      "channel": 0,
      "note": 85,
      "start": 34.0796,
      "duration": 0.3718,
      "velocity": 98,
      "chip": "ym2612"
    },
    {
      "channel": 1,
      "note": 54,
      "start": 34.0804,
      "duration": 0.1197,
      "velocity": 99,
      "chip": "ym2612"
    },
    {
      "channel": 2,
      "note": 66,
      "start": 34.0809,
      "duration": 0.526,
      "velocity": 97,
      "chip": "ym2612"
    },
    {
      "channel": 3,
      "note": 51,
      "start": 34.0841,
      "duration": 0.0935,
      "velocity": 127,
      "chip": "ym2612"
    },
    {
      "channel": 4,
      "note": 86,
      "start": 34.1036,
      "duration": 0.3876,
      "velocity": 98,
      "chip": "ym2612"
    },
    {
      "channel": 3,
      "note": 51,
      "start": 34.2009,
      "duration": 0.2513,
      "velocity": 127,
      "chip": "ym2612"
    },
    {
      "channel": 0,
      "note": 86,
      "start": 34.4745,
      "duration": 0.1319,
      "velocity": 98,
      "chip": "ym2612"
    },
    {
      "channel": 1,
      "note": 54,
      "start": 34.475,
      "duration": 0.1547,
      "velocity": 99,
      "chip": "ym2612"
    },
    {
      "channel": 3,
      "note": 51,
      "start": 34.4759,
      "duration": 0.1313,
      "velocity": 127,
      "chip": "ym2612"
    },
    {
      "channel": 4,
      "note": 85,
      "start": 34.4941,
      "duration": 0.1512,
      "velocity": 98,
      "chip": "ym2612"
    },
    {
      "channel": 0,
      "note": 85,
      "start": 34.6294,
      "duration": 0.1323,
      "velocity": 98,
      "chip": "ym2612"
    },
    {
      "channel": 2,
      "note": 73,
      "start": 34.6302,
      "duration": 0.4627,
      "velocity": 97,
      "chip": "ym2612"
    },
    {
      "channel": 3,
      "note": 51,
      "start": 34.6309,
      "duration": 0.0314,
      "velocity": 127,
      "chip": "ym2612"
    },
    {
      "channel": 4,
      "note": 86,
      "start": 34.6482,
      "duration": 0.1531,
      "velocity": 98,
      "chip": "ym2612"
    },
    {
      "channel": 1,
      "note": 54,
      "start": 34.6649,
      "duration": 0.1202,
      "velocity": 99,
      "chip": "ym2612"
    },
    {
      "channel": 3,
      "note": 51,
      "start": 34.6657,
      "duration": 0.0968,
      "velocity": 127,
      "chip": "ym2612"
    },
    {
      "channel": 0,
      "note": 78,
      "start": 34.7847,
      "duration": 0.3077,
      "velocity": 98,
      "chip": "ym2612"
    },
    {
      "channel": 3,
      "note": 51,
      "start": 34.786,
      "duration": 0.1312,
      "velocity": 127,
      "chip": "ym2612"
    },
    {
      "channel": 4,
      "note": 85,
      "start": 34.8043,
      "duration": 0.3117,
      "velocity": 98,
      "chip": "ym2612"
    },
    {
      "channel": 1,
      "note": 54,
      "start": 34.9399,
      "duration": 0.1184,
      "velocity": 99,
      "chip": "ym2612"
    },
    {
      "channel": 3,
      "note": 51,
      "start": 34.9408,
      "duration": 0.0952,
      "velocity": 127,
      "chip": "ym2612"
    },
    {
      "channel": 3,
      "note": 51,
      "start": 35.0592,
      "duration": 0.0341,
      "velocity": 127,
      "chip": "ym2612"
    },
    {
      "channel": 0,
      "note": 85,
      "start": 35.0961,
      "duration": 0.3707,
      "velocity": 98,
      "chip": "ym2612"
    },
    {
      "channel": 1,
      "note": 54,
      "start": 35.0973,
      "duration": 0.1181,
      "velocity": 99,
      "chip": "ym2612"
    },
    {
      "channel": 3,
      "note": 51,
      "start": 35.1007,
      "duration": 0.0924,
      "velocity": 127,
      "chip": "ym2612"
    },
    {
      "channel": 4,
      "note": 78,
      "start": 35.1193,
      "duration": 0.388,
      "velocity": 98,
      "chip": "ym2612"
    },
    {
      "channel": 3,
      "note": 51,
      "start": 35.2162,
      "duration": 0.2513,
      "velocity": 127,
      "chip": "ym2612"
    },
    {
      "channel": 0,
      "note": 86,
      "start": 35.4898,
      "duration": 0.132,
      "velocity": 98,
      "chip": "ym2612"
    },
    {
      "channel": 1,
      "note": 54,
      "start": 35.4903,
      "duration": 0.1546,
      "velocity": 99,
      "chip": "ym2612"
    },
    {
      "channel": 2,
      "note": 73,
      "start": 35.4908,
      "duration": 0.1875,
      "velocity": 97,
      "chip": "ym2612"
    },
    {
      "channel": 3,
      "note": 51,
      "start": 35.4917,
      "duration": 0.1311,
      "velocity": 127,
      "chip": "ym2612"
    },
    {
      "channel": 4,
      "note": 85,
      "start": 35.5102,
      "duration": 0.1518,
      "velocity": 98,
      "chip": "ym2612"
    },
    {
      "channel": 0,
      "note": 85,
      "start": 35.6446,
      "duration": 0.4672,
      "velocity": 98,
      "chip": "ym2612"
    },
    {
      "channel": 3,
      "note": 51,
      "start": 35.6458,
      "duration": 0.0329,
      "velocity": 127,
      "chip": "ym2612"
    },
    {
      "channel": 4,
      "note": 86,
      "start": 35.6648,
      "duration": 0.4713,
      "velocity": 98,
      "chip": "ym2612"
    },
    {
      "channel": 1,
      "note": 54,
      "start": 35.6817,
      "duration": 0.12,
      "velocity": 99,
      "chip": "ym2612"
    },
    {
      "channel": 2,
      "note": 69,
      "start": 35.6823,
      "duration": 0.2522,
      "velocity": 97,
      "chip": "ym2612"
    },
    {
      "channel": 3,
      "note": 51,
      "start": 35.6828,
      "duration": 0.0965,
      "velocity": 127,
      "chip": "ym2612"
    },
    {
      "channel": 3,
      "note": 51,
      "start": 35.8026,
      "duration": 0.1322,
      "velocity": 127,
      "chip": "ym2612"
    },
    {
      "channel": 1,
      "note": 54,
      "start": 35.9573,
      "duration": 0.1196,
      "velocity": 99,
      "chip": "ym2612"
    },
    {
      "channel": 2,
      "note": 66,
      "start": 35.9578,
      "duration": 0.1546,
      "velocity": 97,
      "chip": "ym2612"
    },
    {
      "channel": 3,
      "note": 51,
      "start": 35.9584,
      "duration": 0.0962,
      "velocity": 127,
      "chip": "ym2612"
    },
    {
      "channel": 3,
      "note": 51,
      "start": 36.0779,
      "duration": 0.0348,
      "velocity": 127,
      "chip": "ym2612"
    },
    {
      "channel": 0,
      "note": 83,
      "start": 36.116,
      "duration": 0.0964,
      "velocity": 98,
      "chip": "ym2612"
    },
    {
      "channel": 1,
      "note": 55,
      "start": 36.1168,
      "duration": 0.1189,
      "velocity": 99,
      "chip": "ym2612"
    },
    {
      "channel": 2,
      "note": 71,
      "start": 36.1173,
      "duration": 0.5244,
      "velocity": 97,
      "chip": "ym2612"
    },
    {
      "channel": 3,
      "note": 51,
      "start": 36.1208,
      "duration": 0.0923,
      "velocity": 127,
      "chip": "ym2612"
    },
    {
      "channel": 4,
      "note": 85,
      "start": 36.1396,
      "duration": 0.2112,
      "velocity": 98,
      "chip": "ym2612"
    },
    {
      "channel": 0,
      "note": 85,
      "start": 36.2354,
      "duration": 0.2515,
      "velocity": 98,
      "chip": "ym2612"
    },
    {
      "channel": 3,
      "note": 51,
      "start": 36.2366,
      "duration": 0.251,
      "velocity": 127,
      "chip": "ym2612"
    },
    {
      "channel": 4,
      "note": 83,
      "start": 36.3737,
      "duration": 0.1522,
      "velocity": 98,
      "chip": "ym2612"
    },
    {
      "channel": 0,
      "note": 86,
      "start": 36.5099,
      "duration": 0.285,
      "velocity": 98,
      "chip": "ym2612"
    },
    {
      "channel": 1,
      "note": 55,
      "start": 36.5104,
      "duration": 0.1539,
      "velocity": 99,
      "chip": "ym2612"
    },
    {
      "channel": 3,
      "note": 51,
      "start": 36.5113,
      "duration": 0.1307,
      "velocity": 127,
      "chip": "ym2612"
    },
    {
      "channel": 4,
      "note": 85,
      "start": 36.5289,
      "duration": 0.3049,
      "velocity": 98,
      "chip": "ym2612"
    },
    {
      "channel": 2,
      "note": 79,
      "start": 36.6649,
      "duration": 0.463,
      "velocity": 97,
      "chip": "ym2612"
    },
    {
      "channel": 3,
      "note": 51,
      "start": 36.6655,
      "duration": 0.0307,
      "velocity": 127,
      "chip": "ym2612"
    },
    {
      "channel": 1,
      "note": 55,
      "start": 36.6986,
      "duration": 0.1198,
      "velocity": 99,
      "chip": "ym2612"
    },
    {
      "channel": 3,
      "note": 51,
      "start": 36.6995,
      "duration": 0.0962,
      "velocity": 127,
      "chip": "ym2612"
    },
    {
      "channel": 0,
      "note": 85,
      "start": 36.8182,
      "duration": 0.131,
      "velocity": 98,
      "chip": "ym2612"
    },
    {
      "channel": 3,
      "note": 51,
      "start": 36.8194,
      "duration": 0.1306,
      "velocity": 127,
      "chip": "ym2612"
    },
    {
      "channel": 4,
      "note": 86,
      "start": 36.8372,
      "duration": 0.153,
      "velocity": 98,
      "chip": "ym2612"
    },
    {
      "channel": 0,
      "note": 86,
      "start": 36.9722,
      "duration": 0.0973,
      "velocity": 98,
      "chip": "ym2612"
    },
    {
      "channel": 1,
      "note": 55,
      "start": 36.9728,
      "duration": 0.1206,
      "velocity": 99,
      "chip": "ym2612"
    },
    {
      "channel": 3,
      "note": 51,
      "start": 36.9737,
      "duration": 0.0966,
      "velocity": 127,
      "chip": "ym2612"
    },
    {
      "channel": 4,
      "note": 85,
      "start": 36.9932,
      "duration": 0.1174,
      "velocity": 98,
      "chip": "ym2612"
    },
    {
      "channel": 0,
      "note": 88,
      "start": 37.0929,
      "duration": 0.0346,
      "velocity": 98,
      "chip": "ym2612"
    },
    {
      "channel": 3,
      "note": 51,
      "start": 37.0943,
      "duration": 0.0339,
      "velocity": 127,
      "chip": "ym2612"
    },
    {
      "channel": 4,
      "note": 86,
      "start": 37.1138,
      "duration": 0.0362,
      "velocity": 98,
      "chip": "ym2612"
    },
    {
      "channel": 0,
      "note": 85,
      "start": 37.1304,
      "duration": 0.0962,
      "velocity": 98,
      "chip": "ym2612"
    },
    {
      "channel": 1,
      "note": 55,
      "start": 37.1311,
      "duration": 0.1189,
      "velocity": 99,
      "chip": "ym2612"
    },
    {
      "channel": 3,
      "note": 51,
      "start": 37.1346,
      "duration": 0.0928,
      "velocity": 127,
      "chip": "ym2612"
    },
    {
      "channel": 4,
      "note": 88,
      "start": 37.1532,
      "duration": 0.2116,
      "velocity": 98,
      "chip": "ym2612"
    },
    {
      "channel": 0,
      "note": 86,
      "start": 37.2497,
      "duration": 0.1142,
      "velocity": 98,
      "chip": "ym2612"
    },
    {
      "channel": 3,
      "note": 51,
      "start": 37.2511,
      "duration": 0.251,
      "velocity": 127,
      "chip": "ym2612"
    },
    {
      "channel": 0,
      "note": 85,
      "start": 37.3869,
      "duration": 0.1142,
      "velocity": 98,
      "chip": "ym2612"
    },
    {
      "channel": 4,
      "note": 85,
      "start": 37.3883,
      "duration": 0.1142,
      "velocity": 98,
      "chip": "ym2612"
    },
    {
      "channel": 0,
      "note": 83,
      "start": 37.5241,
      "duration": 0.4437,
      "velocity": 98,
      "chip": "ym2612"
    },
    {
      "channel": 1,
      "note": 55,
      "start": 37.5247,
      "duration": 0.1542,
      "velocity": 99,
      "chip": "ym2612"
    },
    {
      "channel": 2,
      "note": 71,
      "start": 37.5252,
      "duration": 0.1871,
      "velocity": 97,
      "chip": "ym2612"
    },
    {
      "channel": 3,
      "note": 51,
      "start": 37.5258,
      "duration": 0.1307,
      "velocity": 127,
      "chip": "ym2612"
    },
    {
      "channel": 4,
      "note": 86,
      "start": 37.5264,
      "duration": 0.0146,
      "velocity": 98,
      "chip": "ym2612"
    },
    {
      "channel": 4,
      "note": 85,
      "start": 37.5442,
      "duration": 0.4644,
      "velocity": 98,
      "chip": "ym2612"
    },
    {
      "channel": 3,
      "note": 51,
      "start": 37.6798,
      "duration": 0.0328,
      "velocity": 127,
      "chip": "ym2612"
    },
    {
      "channel": 1,
      "note": 55,
      "start": 37.7163,
      "duration": 0.1204,
      "velocity": 99,
      "chip": "ym2612"
    },
    {
      "channel": 2,
      "note": 74,
      "start": 37.7168,
      "duration": 0.2516,
      "velocity": 97,
      "chip": "ym2612"
    },
    {
      "channel": 3,
      "note": 51,
      "start": 37.7174,
      "duration": 0.097,
      "velocity": 127,
      "chip": "ym2612"
    },
    {
      "channel": 3,
      "note": 51,
      "start": 37.8376,
      "duration": 0.1312,
      "velocity": 127,
      "chip": "ym2612"
    },
    {
      "channel": 1,
      "note": 55,
      "start": 37.9914,
      "duration": 0.1196,
      "velocity": 99,
      "chip": "ym2612"
    },
    {
      "channel": 2,
      "note": 79,
      "start": 37.9919,
      "duration": 0.153,
      "velocity": 97,
      "chip": "ym2612"
    },
    {
      "channel": 3,
      "note": 51,
      "start": 37.9924,
      "duration": 0.0959,
      "velocity": 127,
      "chip": "ym2612"
    },
    {
      "channel": 0,
      "note": 83,
      "start": 38.1106,
      "duration": 0.0338,
      "velocity": 98,
      "chip": "ym2612"
    },
    {
      "channel": 3,
      "note": 51,
      "start": 38.1118,
      "duration": 0.0334,
      "velocity": 127,
      "chip": "ym2612"
    },
    {
      "channel": 4,
      "note": 83,
      "start": 38.1314,
      "duration": 0.0366,
      "velocity": 98,
      "chip": "ym2612"
    },
    {
      "channel": 0,
      "note": 85,
      "start": 38.1482,
      "duration": 0.371,
      "velocity": 98,
      "chip": "ym2612"
    },
    {
      "channel": 1,
      "note": 57,
      "start": 38.1488,
      "duration": 0.119,
      "velocity": 99,
      "chip": "ym2612"
    },
    {
      "channel": 2,
      "note": 81,
      "start": 38.1493,
      "duration": 1.0107,
      "velocity": 97,
      "chip": "ym2612"
    },
    {
      "channel": 3,
      "note": 51,
      "start": 38.1526,
      "duration": 0.0928,
      "velocity": 127,
      "chip": "ym2612"
    },
    {
      "channel": 4,
      "note": 83,
      "start": 38.1713,
      "duration": 0.3873,
      "velocity": 98,
      "chip": "ym2612"
    },
    {
      "channel": 3,
      "note": 51,
      "start": 38.2686,
      "duration": 0.2513,
      "velocity": 127,
      "chip": "ym2612"
    },
    {
      "channel": 0,
      "note": 86,
      "start": 38.5422,
      "duration": 0.1315,
      "velocity": 98,
      "chip": "ym2612"
    },
    {
      "channel": 1,
      "note": 57,
      "start": 38.5427,
      "duration": 0.1544,
      "velocity": 99,
      "chip": "ym2612"
    },
    {
      "channel": 3,
      "note": 51,
      "start": 38.5436,
      "duration": 0.1309,
      "velocity": 127,
      "chip": "ym2612"
    },
    {
      "channel": 4,
      "note": 85,
      "start": 38.5615,
      "duration": 0.1523,
      "velocity": 98,
      "chip": "ym2612"
    },
    {
      "channel": 0,
      "note": 88,
      "start": 38.6968,
      "duration": 0.1327,
      "velocity": 98,
      "chip": "ym2612"
    },
    {
      "channel": 3,
      "note": 51,
      "start": 38.698,
      "duration": 0.0327,
      "velocity": 127,
      "chip": "ym2612"
    },
    {
      "channel": 4,
      "note": 86,
      "start": 38.7167,
      "duration": 0.1526,
      "velocity": 98,
      "chip": "ym2612"
    },
    {
      "channel": 1,
      "note": 57,
      "start": 38.7332,
      "duration": 0.1196,
      "velocity": 99,
      "chip": "ym2612"
    },
    {
      "channel": 3,
      "note": 51,
      "start": 38.734,
      "duration": 0.0962,
      "velocity": 127,
      "chip": "ym2612"
    },
    {
      "channel": 0,
      "note": 90,
      "start": 38.8525,
      "duration": 0.2504,
      "velocity": 98,
      "chip": "ym2612"
    },
    {
      "channel": 3,
      "note": 51,
      "start": 38.8537,
      "duration": 0.1313,
      "velocity": 127,
      "chip": "ym2612"
    },
    {
      "channel": 4,
      "note": 88,
      "start": 38.8722,
      "duration": 0.2705,
      "velocity": 98,
      "chip": "ym2612"
    },
    {
      "channel": 1,
      "note": 57,
      "start": 39.008,
      "duration": 0.1182,
      "velocity": 99,
      "chip": "ym2612"
    },
    {
      "channel": 3,
      "note": 51,
      "start": 39.0089,
      "duration": 0.0948,
      "velocity": 127,
      "chip": "ym2612"
    },
    {
      "channel": 0,
      "note": 85,
      "start": 39.1259,
      "duration": 0.7739,
      "velocity": 98,
      "chip": "ym2612"
    },
    {
      "channel": 3,
      "note": 51,
      "start": 39.1271,
      "duration": 0.0333,
      "velocity": 127,
      "chip": "ym2612"
    },
    {
      "channel": 4,
      "note": 90,
      "start": 39.146,
      "duration": 0.778,
      "velocity": 98,
      "chip": "ym2612"
    },
    {
      "channel": 1,
      "note": 54,
      "start": 39.1644,
      "duration": 0.1202,
      "velocity": 99,
      "chip": "ym2612"
    },
    {
      "channel": 2,
      "note": 78,
      "start": 39.1672,
      "duration": 0.0179,
      "velocity": 97,
      "chip": "ym2612"
    },
    {
      "channel": 3,
      "note": 51,
      "start": 39.1705,
      "duration": 0.092,
      "velocity": 127,
      "chip": "ym2612"
    },
    {
      "channel": 2,
      "note": 77,
      "start": 39.1887,
      "duration": 0.0734,
      "velocity": 97,
      "chip": "ym2612"
    },
    {
      "channel": 2,
      "note": 78,
      "start": 39.2851,
      "duration": 0.1141,
      "velocity": 97,
      "chip": "ym2612"
    },
    {
      "channel": 3,
      "note": 51,
      "start": 39.2857,
      "duration": 0.251,
      "velocity": 127,
      "chip": "ym2612"
    },
    {
      "channel": 2,
      "note": 80,
      "start": 39.4222,
      "duration": 0.1142,
      "velocity": 97,
      "chip": "ym2612"
    },
    {
      "channel": 1,
      "note": 56,
      "start": 39.5593,
      "duration": 0.1542,
      "velocity": 99,
      "chip": "ym2612"
    },
    {
      "channel": 2,
      "note": 82,
      "start": 39.5598,
      "duration": 0.0158,
      "velocity": 97,
      "chip": "ym2612"
    },
    {
      "channel": 3,
      "note": 51,
      "start": 39.5603,
      "duration": 0.1312,
      "velocity": 127,
      "chip": "ym2612"
    },
    {
      "channel": 2,
      "note": 80,
      "start": 39.5784,
      "duration": 0.1126,
      "velocity": 97,
      "chip": "ym2612"
    },
    {
      "channel": 2,
      "note": 82,
      "start": 39.714,
      "duration": 0.0154,
      "velocity": 97,
      "chip": "ym2612"
    },
    {
      "channel": 3,
      "note": 51,
      "start": 39.7146,
      "duration": 0.0339,
      "velocity": 127,
      "chip": "ym2612"
    },
    {
      "channel": 2,
      "note": 83,
      "start": 39.7326,
      "duration": 0.0155,
      "velocity": 97,
      "chip": "ym2612"
    },
    {
      "channel": 1,
      "note": 58,
      "start": 39.7513,
      "duration": 0.0386,
      "velocity": 99,
      "chip": "ym2612"
    },
    {
      "channel": 2,
      "note": 85,
      "start": 39.7518,
      "duration": 0.0157,
      "velocity": 97,
      "chip": "ym2612"
    },
    {
      "channel": 3,
      "note": 51,
      "start": 39.7524,
      "duration": 0.034,
      "velocity": 127,
      "chip": "ym2612"
    },
    {
      "channel": 2,
      "note": 83,
      "start": 39.7711,
      "duration": 0.0149,
      "velocity": 97,
      "chip": "ym2612"
    },
    {
      "channel": 2,
      "note": 85,
      "start": 39.7904,
      "duration": 0.0158,
      "velocity": 97,
      "chip": "ym2612"
    },
    {
      "channel": 3,
      "note": 51,
      "start": 39.791,
      "duration": 0.0339,
      "velocity": 127,
      "chip": "ym2612"
    },
    {
      "channel": 2,
      "note": 86,
      "start": 39.8091,
      "duration": 0.0155,
      "velocity": 97,
      "chip": "ym2612"
    },
    {
      "channel": 1,
      "note": 61,
      "start": 39.8279,
      "duration": 0.0377,
      "velocity": 99,
      "chip": "ym2612"
    },
    {
      "channel": 2,
      "note": 88,
      "start": 39.8284,
      "duration": 0.0155,
      "velocity": 97,
      "chip": "ym2612"
    },
    {
      "channel": 3,
      "note": 51,
      "start": 39.829,
      "duration": 0.0337,
      "velocity": 127,
      "chip": "ym2612"
    },
    {
      "channel": 2,
      "note": 90,
      "start": 39.8476,
      "duration": 0.0147,
      "velocity": 97,
      "chip": "ym2612"
    },
    {
      "channel": 2,
      "note": 94,
      "start": 39.8661,
      "duration": 0.0156,
      "velocity": 97,
      "chip": "ym2612"
    },
    {
      "channel": 3,
      "note": 51,
      "start": 39.8668,
      "duration": 0.0339,
      "velocity": 127,
      "chip": "ym2612"
    },
    {
      "channel": 2,
      "note": 97,
      "start": 39.8851,
      "duration": 0.0152,
      "velocity": 97,
      "chip": "ym2612"
    },
    {
      "channel": 0,
      "note": 73,
      "start": 39.9055,
      "duration": 0.1185,
      "velocity": 96,
      "chip": "ym2612"
    },
    {
      "channel": 1,
      "note": 59,
      "start": 39.906,
      "duration": 0.1185,
      "velocity": 99,
      "chip": "ym2612"
    },
    {
      "channel": 2,
      "note": 95,
      "start": 39.9065,
      "duration": 0.7988,
      "velocity": 97,
      "chip": "ym2612"
    },
    {
      "channel": 3,
      "note": 51,
      "start": 39.9074,
      "duration": 0.0944,
      "velocity": 127,
      "chip": "ym2612"
    },
    {
      "channel": 4,
      "note": 85,
      "start": 39.9305,
      "duration": 0.2318,
      "velocity": 96,
      "chip": "ym2612"
    },
    {
      "channel": 0,
      "note": 74,
      "start": 40.0242,
      "duration": 0.2743,
      "velocity": 96,
      "chip": "ym2612"
    },
    {
      "channel": 3,
      "note": 51,
      "start": 40.0254,
      "duration": 0.251,
      "velocity": 127,
      "chip": "ym2612"
    },
    {
      "channel": 4,
      "note": 73,
      "start": 40.1626,
      "duration": 0.1555,
      "velocity": 96,
      "chip": "ym2612"
    },
    {
      "channel": 0,
      "note": 76,
      "start": 40.2988,
      "duration": 0.1545,
      "velocity": 96,
      "chip": "ym2612"
    },
    {
      "channel": 1,
      "note": 59,
      "start": 40.2993,
      "duration": 0.1546,
      "velocity": 99,
      "chip": "ym2612"
    },
    {
      "channel": 3,
      "note": 51,
      "start": 40.3001,
      "duration": 0.1311,
      "velocity": 127,
      "chip": "ym2612"
    },
    {
      "channel": 4,
      "note": 74,
      "start": 40.3184,
      "duration": 0.2731,
      "velocity": 96,
      "chip": "ym2612"
    },
    {
      "channel": 0,
      "note": 78,
      "start": 40.4536,
      "duration": 0.2742,
      "velocity": 96,
      "chip": "ym2612"
    },
    {
      "channel": 3,
      "note": 51,
      "start": 40.4548,
      "duration": 0.251,
      "velocity": 127,
      "chip": "ym2612"
    },
    {
      "channel": 4,
      "note": 76,
      "start": 40.5919,
      "duration": 0.1582,
      "velocity": 96,
      "chip": "ym2612"
    },
    {
      "channel": 0,
      "note": 73,
      "start": 40.7281,
      "duration": 0.8238,
      "velocity": 96,
      "chip": "ym2612"
    },
    {
      "channel": 1,
      "note": 59,
      "start": 40.7286,
      "duration": 0.1195,
      "velocity": 99,
      "chip": "ym2612"
    },
    {
      "channel": 2,
      "note": 71,
      "start": 40.7307,
      "duration": 0.0944,
      "velocity": 97,
      "chip": "ym2612"
    },
    {
      "channel": 3,
      "note": 51,
      "start": 40.7314,
      "duration": 0.0941,
      "velocity": 127,
      "chip": "ym2612"
    },
    {
      "channel": 4,
      "note": 78,
      "start": 40.7504,
      "duration": 0.8252,
      "velocity": 96,
      "chip": "ym2612"
    },
    {
      "channel": 2,
      "note": 73,
      "start": 40.8486,
      "duration": 0.2511,
      "velocity": 97,
      "chip": "ym2612"
    },
    {
      "channel": 3,
      "note": 51,
      "start": 40.8492,
      "duration": 0.2507,
      "velocity": 127,
      "chip": "ym2612"
    },
    {
      "channel": 1,
      "note": 54,
      "start": 41.1225,
      "duration": 0.1554,
      "velocity": 99,
      "chip": "ym2612"
    },
    {
      "channel": 2,
      "note": 74,
      "start": 41.1231,
      "duration": 0.1319,
      "velocity": 97,
      "chip": "ym2612"
    },
    {
      "channel": 3,
      "note": 51,
      "start": 41.1236,
      "duration": 0.1316,
      "velocity": 127,
      "chip": "ym2612"
    },
    {
      "channel": 1,
      "note": 59,
      "start": 41.2782,
      "duration": 0.2741,
      "velocity": 99,
      "chip": "ym2612"
    },
    {
      "channel": 2,
      "note": 76,
      "start": 41.2788,
      "duration": 0.2506,
      "velocity": 97,
      "chip": "ym2612"
    },
    {
      "channel": 3,
      "note": 51,
      "start": 41.282,
      "duration": 0.2478,
      "velocity": 127,
      "chip": "ym2612"
    },
    {
      "channel": 1,
      "note": 57,
      "start": 41.5524,
      "duration": 0.1199,
      "velocity": 99,
      "chip": "ym2612"
    },
    {
      "channel": 2,
      "note": 78,
      "start": 41.553,
      "duration": 0.3717,
      "velocity": 97,
      "chip": "ym2612"
    },
    {
      "channel": 3,
      "note": 51,
      "start": 41.556,
      "duration": 0.0939,
      "velocity": 127,
      "chip": "ym2612"
    },
    {
      "channel": 3,
      "note": 51,
      "start": 41.6732,
      "duration": 0.2518,
      "velocity": 127,
      "chip": "ym2612"
    },
    {
      "channel": 0,
      "note": 73,
      "start": 41.9468,
      "duration": 0.1539,
      "velocity": 96,
      "chip": "ym2612"
    },
    {
      "channel": 1,
      "note": 57,
      "start": 41.9473,
      "duration": 0.1539,
      "velocity": 99,
      "chip": "ym2612"
    },
    {
      "channel": 2,
      "note": 78,
      "start": 41.9478,
      "duration": 0.4049,
      "velocity": 97,
      "chip": "ym2612"
    },
    {
      "channel": 3,
      "note": 51,
      "start": 41.9484,
      "duration": 0.1301,
      "velocity": 127,
      "chip": "ym2612"
    },
    {
      "channel": 4,
      "note": 73,
      "start": 41.9658,
      "duration": 0.2731,
      "velocity": 96,
      "chip": "ym2612"
    },
    {
      "channel": 0,
      "note": 74,
      "start": 42.101,
      "duration": 0.2742,
      "velocity": 96,
      "chip": "ym2612"
    },
    {
      "channel": 3,
      "note": 51,
      "start": 42.1021,
      "duration": 0.2512,
      "velocity": 127,
      "chip": "ym2612"
    },
    {
      "channel": 4,
      "note": 73,
      "start": 42.2392,
      "duration": 0.156,
      "velocity": 96,
      "chip": "ym2612"
    },
    {
      "channel": 0,
      "note": 76,
      "start": 42.3754,
      "duration": 0.1195,
      "velocity": 96,
      "chip": "ym2612"
    },
    {
      "channel": 1,
      "note": 57,
      "start": 42.3759,
      "duration": 0.1195,
      "velocity": 99,
      "chip": "ym2612"
    },
    {
      "channel": 2,
      "note": 85,
      "start": 42.3764,
      "duration": 0.5248,
      "velocity": 97,
      "chip": "ym2612"
    },
    {
      "channel": 3,
      "note": 51,
      "start": 42.377,
      "duration": 0.0957,
      "velocity": 127,
      "chip": "ym2612"
    },
    {
      "channel": 4,
      "note": 74,
      "start": 42.3955,
      "duration": 0.2379,
      "velocity": 96,
      "chip": "ym2612"
    },
    {
      "channel": 0,
      "note": 78,
      "start": 42.4951,
      "duration": 0.2742,
      "velocity": 96,
      "chip": "ym2612"
    },
    {
      "channel": 3,
      "note": 51,
      "start": 42.499,
      "duration": 0.2482,
      "velocity": 127,
      "chip": "ym2612"
    },
    {
      "channel": 4,
      "note": 76,
      "start": 42.6337,
      "duration": 0.1571,
      "velocity": 96,
      "chip": "ym2612"
    },
    {
      "channel": 0,
      "note": 73,
      "start": 42.7696,
      "duration": 0.1539,
      "velocity": 96,
      "chip": "ym2612"
    },
    {
      "channel": 1,
      "note": 64,
      "start": 42.7701,
      "duration": 0.154,
      "velocity": 99,
      "chip": "ym2612"
    },
    {
      "channel": 3,
      "note": 51,
      "start": 42.7734,
      "duration": 0.128,
      "velocity": 127,
      "chip": "ym2612"
    },
    {
      "channel": 4,
      "note": 78,
      "start": 42.7911,
      "duration": 0.1529,
      "velocity": 96,
      "chip": "ym2612"
    },
    {
      "channel": 0,
      "note": 69,
      "start": 42.9238,
      "duration": 0.0362,
      "velocity": 96,
      "chip": "ym2612"
    },
    {
      "channel": 1,
      "note": 57,
      "start": 42.9244,
      "duration": 0.0362,
      "velocity": 99,
      "chip": "ym2612"
    },
    {
      "channel": 2,
      "note": 83,
      "start": 42.9248,
      "duration": 0.0328,
      "velocity": 97,
      "chip": "ym2612"
    },
    {
      "channel": 3,
      "note": 51,
      "start": 42.9255,
      "duration": 0.0324,
      "velocity": 127,
      "chip": "ym2612"
    },
    {
      "channel": 4,
      "note": 73,
      "start": 42.9446,
      "duration": 0.0366,
      "velocity": 96,
      "chip": "ym2612"
    },
    {
      "channel": 0,
      "note": 71,
      "start": 42.9602,
      "duration": 0.8244,
      "velocity": 96,
      "chip": "ym2612"
    },
    {
      "channel": 1,
      "note": 55,
      "start": 42.9608,
      "duration": 0.1199,
      "velocity": 99,
      "chip": "ym2612"
    },
    {
      "channel": 2,
      "note": 86,
      "start": 42.9613,
      "duration": 0.8007,
      "velocity": 97,
      "chip": "ym2612"
    },
    {
      "channel": 3,
      "note": 51,
      "start": 42.9621,
      "duration": 0.0962,
      "velocity": 127,
      "chip": "ym2612"
    },
    {
      "channel": 4,
      "note": 69,
      "start": 42.9814,
      "duration": 0.823,
      "velocity": 96,
      "chip": "ym2612"
    },
    {
      "channel": 3,
      "note": 51,
      "start": 43.0816,
      "duration": 0.2513,
      "velocity": 127,
      "chip": "ym2612"
    },
    {
      "channel": 1,
      "note": 55,
      "start": 43.3555,
      "duration": 0.1548,
      "velocity": 99,
      "chip": "ym2612"
    },
    {
      "channel": 3,
      "note": 51,
      "start": 43.3563,
      "duration": 0.1316,
      "velocity": 127,
      "chip": "ym2612"
    },
    {
      "channel": 3,
      "note": 51,
      "start": 43.5111,
      "duration": 0.2513,
      "velocity": 127,
      "chip": "ym2612"
    },
    {
      "channel": 1,
      "note": 55,
      "start": 43.7853,
      "duration": 0.1191,
      "velocity": 99,
      "chip": "ym2612"
    },
    {
      "channel": 3,
      "note": 51,
      "start": 43.7862,
      "duration": 0.0955,
      "velocity": 127,
      "chip": "ym2612"
    },
    {
      "channel": 0,
      "note": 71,
      "start": 43.9041,
      "duration": 0.2746,
      "velocity": 96,
      "chip": "ym2612"
    },
    {
      "channel": 2,
      "note": 74,
      "start": 43.905,
      "duration": 0.251,
      "velocity": 97,
      "chip": "ym2612"
    },
    {
      "channel": 3,
      "note": 51,
      "start": 43.9055,
      "duration": 0.2506,
      "velocity": 127,
      "chip": "ym2612"
    },
    {
      "channel": 4,
      "note": 71,
      "start": 44.0424,
      "duration": 0.156,
      "velocity": 96,
      "chip": "ym2612"
    },
    {
      "channel": 0,
      "note": 73,
      "start": 44.1788,
      "duration": 0.1543,
      "velocity": 96,
      "chip": "ym2612"
    },
    {
      "channel": 1,
      "note": 50,
      "start": 44.1796,
      "duration": 0.154,
      "velocity": 99,
      "chip": "ym2612"
    },
    {
      "channel": 2,
      "note": 79,
      "start": 44.1801,
      "duration": 0.1306,
      "velocity": 97,
      "chip": "ym2612"
    },
    {
      "channel": 3,
      "note": 51,
      "start": 44.1807,
      "duration": 0.1303,
      "velocity": 127,
      "chip": "ym2612"
    },
    {
      "channel": 4,
      "note": 71,
      "start": 44.1987,
      "duration": 0.2727,
      "velocity": 96,
      "chip": "ym2612"
    },
    {
      "channel": 0,
      "note": 74,
      "start": 44.3333,
      "duration": 0.2743,
      "velocity": 96,
      "chip": "ym2612"
    },
    {
      "channel": 1,
      "note": 55,
      "start": 44.3339,
      "duration": 0.2742,
      "velocity": 99,
      "chip": "ym2612"
    },
    {
      "channel": 2,
      "note": 83,
      "start": 44.3344,
      "duration": 0.2508,
      "velocity": 97,
      "chip": "ym2612"
    },
    {
      "channel": 3,
      "note": 51,
      "start": 44.3375,
      "duration": 0.248,
      "velocity": 127,
      "chip": "ym2612"
    },
    {
      "channel": 4,
      "note": 73,
      "start": 44.4716,
      "duration": 0.1593,
      "velocity": 96,
      "chip": "ym2612"
    },
    {
      "channel": 0,
      "note": 74,
      "start": 44.6078,
      "duration": 0.5484,
      "velocity": 96,
      "chip": "ym2612"
    },
    {
      "channel": 1,
      "note": 54,
      "start": 44.6084,
      "duration": 0.1192,
      "velocity": 99,
      "chip": "ym2612"
    },
    {
      "channel": 2,
      "note": 83,
      "start": 44.6091,
      "duration": 0.525,
      "velocity": 97,
      "chip": "ym2612"
    },
    {
      "channel": 3,
      "note": 51,
      "start": 44.6124,
      "duration": 0.0929,
      "velocity": 127,
      "chip": "ym2612"
    },
    {
      "channel": 4,
      "note": 74,
      "start": 44.6311,
      "duration": 0.6633,
      "velocity": 96,
      "chip": "ym2612"
    },
    {
      "channel": 3,
      "note": 51,
      "start": 44.7284,
      "duration": 0.2513,
      "velocity": 127,
      "chip": "ym2612"
    },
    {
      "channel": 1,
      "note": 54,
      "start": 45.0024,
      "duration": 0.1544,
      "velocity": 99,
      "chip": "ym2612"
    },
    {
      "channel": 3,
      "note": 51,
      "start": 45.0032,
      "duration": 0.1312,
      "velocity": 127,
      "chip": "ym2612"
    },
    {
      "channel": 0,
      "note": 73,
      "start": 45.1564,
      "duration": 0.8607,
      "velocity": 96,
      "chip": "ym2612"
    },
    {
      "channel": 2,
      "note": 82,
      "start": 45.1573,
      "duration": 0.6453,
      "velocity": 97,
      "chip": "ym2612"
    },
    {
      "channel": 3,
      "note": 51,
      "start": 45.1579,
      "duration": 0.2506,
      "velocity": 127,
      "chip": "ym2612"
    },
    {
      "channel": 4,
      "note": 74,
      "start": 45.2947,
      "duration": 0.7415,
      "velocity": 96,
      "chip": "ym2612"
    },
    {
      "channel": 1,
      "note": 61,
      "start": 45.4311,
      "duration": 0.1197,
      "velocity": 99,
      "chip": "ym2612"
    },
    {
      "channel": 3,
      "note": 51,
      "start": 45.432,
      "duration": 0.0965,
      "velocity": 127,
      "chip": "ym2612"
    },
    {
      "channel": 3,
      "note": 51,
      "start": 45.5542,
      "duration": 0.2487,
      "velocity": 127,
      "chip": "ym2612"
    },
    {
      "channel": 1,
      "note": 58,
      "start": 45.8255,
      "duration": 0.1547,
      "velocity": 99,
      "chip": "ym2612"
    },
    {
      "channel": 2,
      "note": 78,
      "start": 45.826,
      "duration": 0.1877,
      "velocity": 97,
      "chip": "ym2612"
    },
    {
      "channel": 3,
      "note": 51,
      "start": 45.8294,
      "duration": 0.1285,
      "velocity": 127,
      "chip": "ym2612"
    },
    {
      "channel": 1,
      "note": 54,
      "start": 45.9805,
      "duration": 0.0371,
      "velocity": 99,
      "chip": "ym2612"
    },
    {
      "channel": 3,
      "note": 51,
      "start": 45.9812,
      "duration": 0.0328,
      "velocity": 127,
      "chip": "ym2612"
    },
    {
      "channel": 0,
      "note": 71,
      "start": 46.0173,
      "duration": 0.1181,
      "velocity": 96,
      "chip": "ym2612"
    },
    {
      "channel": 1,
      "note": 52,
      "start": 46.0178,
      "duration": 0.1181,
      "velocity": 99,
      "chip": "ym2612"
    },
    {
      "channel": 2,
      "note": 83,
      "start": 46.0184,
      "duration": 0.798,
      "velocity": 97,
      "chip": "ym2612"
    },
    {
      "channel": 3,
      "note": 51,
      "start": 46.0191,
      "duration": 0.0941,
      "velocity": 127,
      "chip": "ym2612"
    },
    {
      "channel": 4,
      "note": 73,
      "start": 46.0367,
      "duration": 0.2369,
      "velocity": 96,
      "chip": "ym2612"
    },
    {
      "channel": 0,
      "note": 73,
      "start": 46.1356,
      "duration": 0.2742,
      "velocity": 96,
      "chip": "ym2612"
    },
    {
      "channel": 3,
      "note": 51,
      "start": 46.1368,
      "duration": 0.2509,
      "velocity": 127,
      "chip": "ym2612"
    },
    {
      "channel": 4,
      "note": 71,
      "start": 46.2739,
      "duration": 0.1554,
      "velocity": 96,
      "chip": "ym2612"
    },
    {
      "channel": 0,
      "note": 74,
      "start": 46.4101,
      "duration": 0.1543,
      "velocity": 96,
      "chip": "ym2612"
    },
    {
      "channel": 1,
      "note": 52,
      "start": 46.4107,
      "duration": 0.1543,
      "velocity": 99,
      "chip": "ym2612"
    },
    {
      "channel": 3,
      "note": 51,
      "start": 46.4115,
      "duration": 0.1307,
      "velocity": 127,
      "chip": "ym2612"
    },
    {
      "channel": 4,
      "note": 73,
      "start": 46.4296,
      "duration": 0.273,
      "velocity": 96,
      "chip": "ym2612"
    },
    {
      "channel": 0,
      "note": 76,
      "start": 46.5646,
      "duration": 0.2742,
      "velocity": 96,
      "chip": "ym2612"
    },
    {
      "channel": 3,
      "note": 51,
      "start": 46.5659,
      "duration": 0.251,
      "velocity": 127,
      "chip": "ym2612"
    },
    {
      "channel": 4,
      "note": 74,
      "start": 46.7029,
      "duration": 0.1567,
      "velocity": 96,
      "chip": "ym2612"
    },
    {
      "channel": 0,
      "note": 71,
      "start": 46.8391,
      "duration": 0.824,
      "velocity": 96,
      "chip": "ym2612"
    },
    {
      "channel": 1,
      "note": 52,
      "start": 46.8396,
      "duration": 0.1198,
      "velocity": 99,
      "chip": "ym2612"
    },
    {
      "channel": 2,
      "note": 83,
      "start": 46.8401,
      "duration": 0.0967,
      "velocity": 97,
      "chip": "ym2612"
    },
    {
      "channel": 3,
      "note": 51,
      "start": 46.8407,
      "duration": 0.0963,
      "velocity": 127,
      "chip": "ym2612"
    },
    {
      "channel": 4,
      "note": 76,
      "start": 46.86,
      "duration": 0.8285,
      "velocity": 96,
      "chip": "ym2612"
    },
    {
      "channel": 2,
      "note": 85,
      "start": 46.9602,
      "duration": 0.2511,
      "velocity": 97,
      "chip": "ym2612"
    },
    {
      "channel": 3,
      "note": 51,
      "start": 46.9608,
      "duration": 0.2508,
      "velocity": 127,
      "chip": "ym2612"
    },
    {
      "channel": 1,
      "note": 54,
      "start": 47.2341,
      "duration": 0.1548,
      "velocity": 99,
      "chip": "ym2612"
    },
    {
      "channel": 2,
      "note": 86,
      "start": 47.2346,
      "duration": 0.1316,
      "velocity": 97,
      "chip": "ym2612"
    },
    {
      "channel": 3,
      "note": 51,
      "start": 47.2352,
      "duration": 0.1312,
      "velocity": 127,
      "chip": "ym2612"
    },
    {
      "channel": 1,
      "note": 55,
      "start": 47.3894,
      "duration": 0.2741,
      "velocity": 99,
      "chip": "ym2612"
    },
    {
      "channel": 2,
      "note": 88,
      "start": 47.3899,
      "duration": 0.251,
      "velocity": 97,
      "chip": "ym2612"
    },
    {
      "channel": 3,
      "note": 51,
      "start": 47.3932,
      "duration": 0.248,
      "velocity": 127,
      "chip": "ym2612"
    },
    {
      "channel": 1,
      "note": 57,
      "start": 47.6637,
      "duration": 0.12,
      "velocity": 99,
      "chip": "ym2612"
    },
    {
      "channel": 2,
      "note": 83,
      "start": 47.6658,
      "duration": 0.5246,
      "velocity": 97,
      "chip": "ym2612"
    },
    {
      "channel": 3,
      "note": 51,
      "start": 47.6689,
      "duration": 0.0924,
      "velocity": 127,
      "chip": "ym2612"
    },
    {
      "channel": 3,
      "note": 51,
      "start": 47.7846,
      "duration": 0.2518,
      "velocity": 127,
      "chip": "ym2612"
    },
    {
      "channel": 0,
      "note": 71,
      "start": 48.0583,
      "duration": 0.1545,
      "velocity": 96,
      "chip": "ym2612"
    },
    {
      "channel": 1,
      "note": 57,
      "start": 48.0588,
      "duration": 0.1546,
      "velocity": 99,
      "chip": "ym2612"
    },
    {
      "channel": 3,
      "note": 51,
      "start": 48.0597,
      "duration": 0.131,
      "velocity": 127,
      "chip": "ym2612"
    },
    {
      "channel": 4,
      "note": 71,
      "start": 48.0779,
      "duration": 0.2736,
      "velocity": 96,
      "chip": "ym2612"
    },
    {
      "channel": 0,
      "note": 73,
      "start": 48.213,
      "duration": 0.2742,
      "velocity": 96,
      "chip": "ym2612"
    },
    {
      "channel": 2,
      "note": 81,
      "start": 48.2139,
      "duration": 0.1137,
      "velocity": 97,
      "chip": "ym2612"
    },
    {
      "channel": 3,
      "note": 51,
      "start": 48.2145,
      "duration": 0.2506,
      "velocity": 127,
      "chip": "ym2612"
    },
    {
      "channel": 2,
      "note": 83,
      "start": 48.3508,
      "duration": 0.114,
      "velocity": 97,
      "chip": "ym2612"
    },
    {
      "channel": 4,
      "note": 71,
      "start": 48.3518,
      "duration": 0.1558,
      "velocity": 96,
      "chip": "ym2612"
    },
    {
      "channel": 0,
      "note": 74,
      "start": 48.4875,
      "duration": 0.1196,
      "velocity": 96,
      "chip": "ym2612"
    },
    {
      "channel": 1,
      "note": 57,
      "start": 48.488,
      "duration": 0.1197,
      "velocity": 99,
      "chip": "ym2612"
    },
    {
      "channel": 2,
      "note": 91,
      "start": 48.4885,
      "duration": 0.5252,
      "velocity": 97,
      "chip": "ym2612"
    },
    {
      "channel": 3,
      "note": 51,
      "start": 48.4892,
      "duration": 0.0958,
      "velocity": 127,
      "chip": "ym2612"
    },
    {
      "channel": 4,
      "note": 73,
      "start": 48.5078,
      "duration": 0.2381,
      "velocity": 96,
      "chip": "ym2612"
    },
    {
      "channel": 0,
      "note": 73,
      "start": 48.6074,
      "duration": 0.2742,
      "velocity": 96,
      "chip": "ym2612"
    },
    {
      "channel": 3,
      "note": 51,
      "start": 48.6113,
      "duration": 0.2481,
      "velocity": 127,
      "chip": "ym2612"
    },
    {
      "channel": 4,
      "note": 74,
      "start": 48.7462,
      "duration": 0.1572,
      "velocity": 96,
      "chip": "ym2612"
    },
    {
      "channel": 0,
      "note": 74,
      "start": 48.8819,
      "duration": 0.1544,
      "velocity": 96,
      "chip": "ym2612"
    },
    {
      "channel": 1,
      "note": 57,
      "start": 48.8824,
      "duration": 0.1544,
      "velocity": 99,
      "chip": "ym2612"
    },
    {
      "channel": 3,
      "note": 51,
      "start": 48.8857,
      "duration": 0.1284,
      "velocity": 127,
      "chip": "ym2612"
    },
    {
      "channel": 4,
      "note": 73,
      "start": 48.9037,
      "duration": 0.1527,
      "velocity": 96,
      "chip": "ym2612"
    },
    {
      "channel": 0,
      "note": 76,
      "start": 49.0365,
      "duration": 0.0369,
      "velocity": 96,
      "chip": "ym2612"
    },
    {
      "channel": 1,
      "note": 61,
      "start": 49.037,
      "duration": 0.0369,
      "velocity": 99,
      "chip": "ym2612"
    },
    {
      "channel": 2,
      "note": 93,
      "start": 49.0375,
      "duration": 0.0335,
      "velocity": 97,
      "chip": "ym2612"
    },
    {
      "channel": 3,
      "note": 51,
      "start": 49.0381,
      "duration": 0.0332,
      "velocity": 127,
      "chip": "ym2612"
    },
    {
      "channel": 4,
      "note": 74,
      "start": 49.0567,
      "duration": 0.0373,
      "velocity": 96,
      "chip": "ym2612"
    },
    {
      "channel": 0,
      "note": 69,
      "start": 49.0736,
      "duration": 0.5497,
      "velocity": 96,
      "chip": "ym2612"
    },
    {
      "channel": 1,
      "note": 62,
      "start": 49.0741,
      "duration": 0.1195,
      "velocity": 99,
      "chip": "ym2612"
    },
    {
      "channel": 2,
      "note": 90,
      "start": 49.0747,
      "duration": 1.6237,
      "velocity": 97,
      "chip": "ym2612"
    },
    {
      "channel": 3,
      "note": 51,
      "start": 49.0754,
      "duration": 0.0959,
      "velocity": 127,
      "chip": "ym2612"
    },
    {
      "channel": 4,
      "note": 76,
      "start": 49.0943,
      "duration": 0.6672,
      "velocity": 96,
      "chip": "ym2612"
    },
    {
      "channel": 3,
      "note": 51,
      "start": 49.1945,
      "duration": 0.2513,
      "velocity": 127,
      "chip": "ym2612"
    },
    {
      "channel": 1,
      "note": 62,
      "start": 49.4684,
      "duration": 0.1573,
      "velocity": 99,
      "chip": "ym2612"
    },
    {
      "channel": 3,
      "note": 51,
      "start": 49.4692,
      "duration": 0.132,
      "velocity": 127,
      "chip": "ym2612"
    },
    {
      "channel": 0,
      "note": 95,
      "start": 49.6253,
      "duration": 0.2495,
      "velocity": 98,
      "chip": "ym2612"
    },
    {
      "channel": 3,
      "note": 51,
      "start": 49.6265,
      "duration": 0.2491,
      "velocity": 127,
      "chip": "ym2612"
    },
    {
      "channel": 4,
      "note": 69,
      "start": 49.7649,
      "duration": 0.149,
      "velocity": 98,
      "chip": "ym2612"
    },
    {
      "channel": 0,
      "note": 93,
      "start": 49.8982,
      "duration": 0.0959,
      "velocity": 98,
      "chip": "ym2612"
    },
    {
      "channel": 1,
      "note": 62,
      "start": 49.8987,
      "duration": 0.1187,
      "velocity": 99,
      "chip": "ym2612"
    },
    {
      "channel": 3,
      "note": 51,
      "start": 49.8996,
      "duration": 0.0953,
      "velocity": 127,
      "chip": "ym2612"
    },
    {
      "channel": 4,
      "note": 95,
      "start": 49.9174,
      "duration": 0.2149,
      "velocity": 98,
      "chip": "ym2612"
    },
    {
      "channel": 0,
      "note": 88,
      "start": 50.0171,
      "duration": 0.2514,
      "velocity": 98,
      "chip": "ym2612"
    },
    {
      "channel": 3,
      "note": 51,
      "start": 50.0183,
      "duration": 0.251,
      "velocity": 127,
      "chip": "ym2612"
    },
    {
      "channel": 4,
      "note": 93,
      "start": 50.1554,
      "duration": 0.1532,
      "velocity": 98,
      "chip": "ym2612"
    },
    {
      "channel": 0,
      "note": 91,
      "start": 50.2919,
      "duration": 0.1315,
      "velocity": 98,
      "chip": "ym2612"
    },
    {
      "channel": 1,
      "note": 62,
      "start": 50.2927,
      "duration": 0.1541,
      "velocity": 99,
      "chip": "ym2612"
    },
    {
      "channel": 3,
      "note": 51,
      "start": 50.2935,
      "duration": 0.1307,
      "velocity": 127,
      "chip": "ym2612"
    },
    {
      "channel": 4,
      "note": 88,
      "start": 50.3119,
      "duration": 0.2498,
      "velocity": 98,
      "chip": "ym2612"
    },
    {
      "channel": 0,
      "note": 90,
      "start": 50.4464,
      "duration": 0.2515,
      "velocity": 98,
      "chip": "ym2612"
    },
    {
      "channel": 3,
      "note": 51,
      "start": 50.4501,
      "duration": 0.2486,
      "velocity": 127,
      "chip": "ym2612"
    },
    {
      "channel": 4,
      "note": 91,
      "start": 50.5848,
      "duration": 0.1567,
      "velocity": 98,
      "chip": "ym2612"
    },
    {
      "channel": 0,
      "note": 85,
      "start": 50.7209,
      "duration": 0.0969,
      "velocity": 98,
      "chip": "ym2612"
    },
    {
      "channel": 1,
      "note": 61,
      "start": 50.7215,
      "duration": 0.1195,
      "velocity": 99,
      "chip": "ym2612"
    },
    {
      "channel": 2,
      "note": 85,
      "start": 50.7222,
      "duration": 0.5251,
      "velocity": 97,
      "chip": "ym2612"
    },
    {
      "channel": 3,
      "note": 53,
      "start": 50.7256,
      "duration": 0.0932,
      "velocity": 127,
      "chip": "ym2612"
    },
    {
      "channel": 4,
      "note": 90,
      "start": 50.7444,
      "duration": 0.2115,
      "velocity": 98,
      "chip": "ym2612"
    },
    {
      "channel": 0,
      "note": 86,
      "start": 50.8407,
      "duration": 0.2514,
      "velocity": 98,
      "chip": "ym2612"
    },
    {
      "channel": 3,
      "note": 51,
      "start": 50.8419,
      "duration": 0.251,
      "velocity": 127,
      "chip": "ym2612"
    },
    {
      "channel": 4,
      "note": 85,
      "start": 50.9789,
      "duration": 0.1533,
      "velocity": 98,
      "chip": "ym2612"
    },
    {
      "channel": 0,
      "note": 88,
      "start": 51.1152,
      "duration": 0.1316,
      "velocity": 98,
      "chip": "ym2612"
    },
    {
      "channel": 1,
      "note": 61,
      "start": 51.1157,
      "duration": 0.1545,
      "velocity": 99,
      "chip": "ym2612"
    },
    {
      "channel": 3,
      "note": 51,
      "start": 51.1165,
      "duration": 0.1314,
      "velocity": 127,
      "chip": "ym2612"
    },
    {
      "channel": 4,
      "note": 86,
      "start": 51.1352,
      "duration": 0.1537,
      "velocity": 98,
      "chip": "ym2612"
    },
    {
      "channel": 0,
      "note": 90,
      "start": 51.2699,
      "duration": 0.1315,
      "velocity": 98,
      "chip": "ym2612"
    },
    {
      "channel": 2,
      "note": 84,
      "start": 51.2708,
      "duration": 0.0176,
      "velocity": 97,
      "chip": "ym2612"
    },
    {
      "channel": 3,
      "note": 51,
      "start": 51.2738,
      "duration": 0.2482,
      "velocity": 115,
      "chip": "ym2612"
    },
    {
      "channel": 2,
      "note": 85,
      "start": 51.2913,
      "duration": 0.1106,
      "velocity": 97,
      "chip": "ym2612"
    },
    {
      "channel": 4,
      "note": 88,
      "start": 51.2921,
      "duration": 0.1494,
      "velocity": 98,
      "chip": "ym2612"
    },
    {
      "channel": 0,
      "note": 91,
      "start": 51.4244,
      "duration": 0.252,
      "velocity": 98,
      "chip": "ym2612"
    },
    {
      "channel": 1,
      "note": 66,
      "start": 51.4249,
      "duration": 0.2749,
      "velocity": 99,
      "chip": "ym2612"
    },
    {
      "channel": 2,
      "note": 90,
      "start": 51.4255,
      "duration": 0.2515,
      "velocity": 97,
      "chip": "ym2612"
    },
    {
      "channel": 4,
      "note": 85,
      "start": 51.445,
      "duration": 0.2711,
      "velocity": 98,
      "chip": "ym2612"
    },
    {
      "channel": 3,
      "note": 58,
      "start": 51.5476,
      "duration": 0.1298,
      "velocity": 127,
      "chip": "ym2612"
    },
    {
      "channel": 0,
      "note": 90,
      "start": 51.6995,
      "duration": 0.0695,
      "velocity": 98,
      "chip": "ym2612"
    },
    {
      "channel": 1,
      "note": 54,
      "start": 51.7001,
      "duration": 0.0747,
      "velocity": 99,
      "chip": "ym2612"
    },
    {
      "channel": 2,
      "note": 85,
      "start": 51.7006,
      "duration": 0.069,
      "velocity": 97,
      "chip": "ym2612"
    },
    {
      "channel": 3,
      "note": 51,
      "start": 51.7012,
      "duration": 0.0325,
      "velocity": 127,
      "chip": "ym2612"
    },
    {
      "channel": 4,
      "note": 91,
      "start": 51.72,
      "duration": 0.0742,
      "velocity": 98,
      "chip": "ym2612"
    },
    {
      "channel": 3,
      "note": 51,
      "start": 51.7379,
      "duration": 0.0321,
      "velocity": 127,
      "chip": "ym2612"
    },
    {
      "channel": 0,
      "note": 73,
      "start": 51.7745,
      "duration": 0.1183,
      "velocity": 96,
      "chip": "ym2612"
    },
    {
      "channel": 1,
      "note": 59,
      "start": 51.775,
      "duration": 0.1182,
      "velocity": 99,
      "chip": "ym2612"
    },
    {
      "channel": 2,
      "note": 83,
      "start": 51.7772,
      "duration": 0.7961,
      "velocity": 97,
      "chip": "ym2612"
    },
    {
      "channel": 3,
      "note": 51,
      "start": 51.7782,
      "duration": 0.0923,
      "velocity": 127,
      "chip": "ym2612"
    },
    {
      "channel": 4,
      "note": 90,
      "start": 51.8002,
      "duration": 0.2306,
      "velocity": 96,
      "chip": "ym2612"
    },
    {
      "channel": 0,
      "note": 74,
      "start": 51.8929,
      "duration": 0.2742,
      "velocity": 96,
      "chip": "ym2612"
    },
    {
      "channel": 3,
      "note": 51,
      "start": 51.8941,
      "duration": 0.2509,
      "velocity": 127,
      "chip": "ym2612"
    },
    {
      "channel": 4,
      "note": 73,
      "start": 52.0312,
      "duration": 0.1549,
      "velocity": 96,
      "chip": "ym2612"
    },
    {
      "channel": 0,
      "note": 76,
      "start": 52.1673,
      "duration": 0.1539,
      "velocity": 96,
      "chip": "ym2612"
    },
    {
      "channel": 1,
      "note": 59,
      "start": 52.1679,
      "duration": 0.1539,
      "velocity": 99,
      "chip": "ym2612"
    },
    {
      "channel": 3,
      "note": 51,
      "start": 52.1687,
      "duration": 0.1303,
      "velocity": 127,
      "chip": "ym2612"
    },
    {
      "channel": 4,
      "note": 74,
      "start": 52.1864,
      "duration": 0.273,
      "velocity": 96,
      "chip": "ym2612"
    },
    {
      "channel": 0,
      "note": 78,
      "start": 52.3215,
      "duration": 0.2741,
      "velocity": 96,
      "chip": "ym2612"
    },
    {
      "channel": 3,
      "note": 51,
      "start": 52.3227,
      "duration": 0.2508,
      "velocity": 127,
      "chip": "ym2612"
    },
    {
      "channel": 4,
      "note": 76,
      "start": 52.4598,
      "duration": 0.1567,
      "velocity": 96,
      "chip": "ym2612"
    },
    {
      "channel": 0,
      "note": 73,
      "start": 52.5959,
      "duration": 0.8234,
      "velocity": 96,
      "chip": "ym2612"
    },
    {
      "channel": 1,
      "note": 59,
      "start": 52.5965,
      "duration": 0.12,
      "velocity": 99,
      "chip": "ym2612"
    },
    {
      "channel": 2,
      "note": 83,
      "start": 52.5969,
      "duration": 0.0966,
      "velocity": 97,
      "chip": "ym2612"
    },
    {
      "channel": 3,
      "note": 51,
      "start": 52.5975,
      "duration": 0.0963,
      "velocity": 127,
      "chip": "ym2612"
    },
    {
      "channel": 4,
      "note": 78,
      "start": 52.6168,
      "duration": 0.8261,
      "velocity": 96,
      "chip": "ym2612"
    },
    {
      "channel": 2,
      "note": 85,
      "start": 52.7173,
      "duration": 0.2508,
      "velocity": 97,
      "chip": "ym2612"
    },
    {
      "channel": 3,
      "note": 51,
      "start": 52.7179,
      "duration": 0.2505,
      "velocity": 127,
      "chip": "ym2612"
    },
    {
      "channel": 1,
      "note": 54,
      "start": 52.9909,
      "duration": 0.1541,
      "velocity": 99,
      "chip": "ym2612"
    },
    {
      "channel": 2,
      "note": 86,
      "start": 52.9914,
      "duration": 0.131,
      "velocity": 97,
      "chip": "ym2612"
    },
    {
      "channel": 3,
      "note": 51,
      "start": 52.9921,
      "duration": 0.1306,
      "velocity": 127,
      "chip": "ym2612"
    },
    {
      "channel": 1,
      "note": 59,
      "start": 53.1453,
      "duration": 0.2744,
      "velocity": 99,
      "chip": "ym2612"
    },
    {
      "channel": 2,
      "note": 88,
      "start": 53.1461,
      "duration": 0.251,
      "velocity": 97,
      "chip": "ym2612"
    },
    {
      "channel": 3,
      "note": 51,
      "start": 53.1494,
      "duration": 0.248,
      "velocity": 127,
      "chip": "ym2612"
    },
    {
      "channel": 1,
      "note": 57,
      "start": 53.4199,
      "duration": 0.12,
      "velocity": 99,
      "chip": "ym2612"
    },
    {
      "channel": 2,
      "note": 90,
      "start": 53.4203,
      "duration": 0.3716,
      "velocity": 97,
      "chip": "ym2612"
    },
    {
      "channel": 3,
      "note": 51,
      "start": 53.4235,
      "duration": 0.094,
      "velocity": 127,
      "chip": "ym2612"
    },
    {
      "channel": 3,
      "note": 51,
      "start": 53.5407,
      "duration": 0.2518,
      "velocity": 127,
      "chip": "ym2612"
    },
    {
      "channel": 0,
      "note": 73,
      "start": 53.8144,
      "duration": 0.1536,
      "velocity": 96,
      "chip": "ym2612"
    },
    {
      "channel": 1,
      "note": 57,
      "start": 53.8149,
      "duration": 0.1536,
      "velocity": 99,
      "chip": "ym2612"
    },
    {
      "channel": 2,
      "note": 88,
      "start": 53.8154,
      "duration": 0.4046,
      "velocity": 97,
      "chip": "ym2612"
    },
    {
      "channel": 3,
      "note": 51,
      "start": 53.816,
      "duration": 0.1298,
      "velocity": 127,
      "chip": "ym2612"
    },
    {
      "channel": 4,
      "note": 73,
      "start": 53.8331,
      "duration": 0.2734,
      "velocity": 96,
      "chip": "ym2612"
    },
    {
      "channel": 0,
      "note": 74,
      "start": 53.9682,
      "duration": 0.2742,
      "velocity": 96,
      "chip": "ym2612"
    },
    {
      "channel": 3,
      "note": 51,
      "start": 53.9694,
      "duration": 0.251,
      "velocity": 127,
      "chip": "ym2612"
    },
    {
      "channel": 4,
      "note": 73,
      "start": 54.1067,
      "duration": 0.1558,
      "velocity": 96,
      "chip": "ym2612"
    },
    {
      "channel": 0,
      "note": 76,
      "start": 54.2427,
      "duration": 0.1196,
      "velocity": 96,
      "chip": "ym2612"
    },
    {
      "channel": 1,
      "note": 57,
      "start": 54.2432,
      "duration": 0.1196,
      "velocity": 99,
      "chip": "ym2612"
    },
    {
      "channel": 2,
      "note": 97,
      "start": 54.2437,
      "duration": 0.5255,
      "velocity": 97,
      "chip": "ym2612"
    },
    {
      "channel": 3,
      "note": 51,
      "start": 54.2443,
      "duration": 0.0958,
      "velocity": 127,
      "chip": "ym2612"
    },
    {
      "channel": 4,
      "note": 74,
      "start": 54.2629,
      "duration": 0.2381,
      "velocity": 96,
      "chip": "ym2612"
    },
    {
      "channel": 0,
      "note": 78,
      "start": 54.3625,
      "duration": 0.2742,
      "velocity": 96,
      "chip": "ym2612"
    },
    {
      "channel": 3,
      "note": 51,
      "start": 54.3662,
      "duration": 0.2484,
      "velocity": 127,
      "chip": "ym2612"
    },
    {
      "channel": 4,
      "note": 76,
      "start": 54.5013,
      "duration": 0.1576,
      "velocity": 96,
      "chip": "ym2612"
    },
    {
      "channel": 0,
      "note": 73,
      "start": 54.637,
      "duration": 0.1547,
      "velocity": 96,
      "chip": "ym2612"
    },
    {
      "channel": 1,
      "note": 64,
      "start": 54.6375,
      "duration": 0.1547,
      "velocity": 99,
      "chip": "ym2612"
    },
    {
      "channel": 3,
      "note": 51,
      "start": 54.6408,
      "duration": 0.1288,
      "velocity": 127,
      "chip": "ym2612"
    },
    {
      "channel": 4,
      "note": 78,
      "start": 54.6592,
      "duration": 0.1512,
      "velocity": 96,
      "chip": "ym2612"
    },
    {
      "channel": 0,
      "note": 69,
      "start": 54.7919,
      "duration": 0.0352,
      "velocity": 96,
      "chip": "ym2612"
    },
    {
      "channel": 1,
      "note": 57,
      "start": 54.7925,
      "duration": 0.0352,
      "velocity": 99,
      "chip": "ym2612"
    },
    {
      "channel": 2,
      "note": 95,
      "start": 54.7929,
      "duration": 0.0317,
      "velocity": 97,
      "chip": "ym2612"
    },
    {
      "channel": 3,
      "note": 51,
      "start": 54.7936,
      "duration": 0.0313,
      "velocity": 127,
      "chip": "ym2612"
    },
    {
      "channel": 4,
      "note": 73,
      "start": 54.811,
      "duration": 0.0373,
      "velocity": 96,
      "chip": "ym2612"
    },
    {
      "channel": 0,
      "note": 71,
      "start": 54.8273,
      "duration": 0.8235,
      "velocity": 96,
      "chip": "ym2612"
    },
    {
      "channel": 1,
      "note": 55,
      "start": 54.8278,
      "duration": 0.1199,
      "velocity": 99,
      "chip": "ym2612"
    },
    {
      "channel": 2,
      "note": 98,
      "start": 54.8283,
      "duration": 0.8001,
      "velocity": 97,
      "chip": "ym2612"
    },
    {
      "channel": 3,
      "note": 51,
      "start": 54.8291,
      "duration": 0.0962,
      "velocity": 127,
      "chip": "ym2612"
    },
    {
      "channel": 4,
      "note": 69,
      "start": 54.8485,
      "duration": 0.8237,
      "velocity": 96,
      "chip": "ym2612"
    },
    {
      "channel": 3,
      "note": 51,
      "start": 54.9486,
      "duration": 0.2513,
      "velocity": 127,
      "chip": "ym2612"
    },
    {
      "channel": 1,
      "note": 55,
      "start": 55.2224,
      "duration": 0.1542,
      "velocity": 99,
      "chip": "ym2612"
    },
    {
      "channel": 3,
      "note": 51,
      "start": 55.2233,
      "duration": 0.131,
      "velocity": 127,
      "chip": "ym2612"
    },
    {
      "channel": 3,
      "note": 51,
      "start": 55.3776,
      "duration": 0.2512,
      "velocity": 127,
      "chip": "ym2612"
    },
    {
      "channel": 1,
      "note": 55,
      "start": 55.6517,
      "duration": 0.1206,
      "velocity": 99,
      "chip": "ym2612"
    },
    {
      "channel": 3,
      "note": 51,
      "start": 55.6526,
      "duration": 0.097,
      "velocity": 127,
      "chip": "ym2612"
    },
    {
      "channel": 0,
      "note": 71,
      "start": 55.772,
      "duration": 0.2742,
      "velocity": 96,
      "chip": "ym2612"
    },
    {
      "channel": 2,
      "note": 86,
      "start": 55.7729,
      "duration": 0.251,
      "velocity": 97,
      "chip": "ym2612"
    },
    {
      "channel": 3,
      "note": 51,
      "start": 55.7734,
      "duration": 0.2507,
      "velocity": 127,
      "chip": "ym2612"
    },
    {
      "channel": 4,
      "note": 71,
      "start": 55.9103,
      "duration": 0.1558,
      "velocity": 96,
      "chip": "ym2612"
    },
    {
      "channel": 0,
      "note": 73,
      "start": 56.0465,
      "duration": 0.1544,
      "velocity": 96,
      "chip": "ym2612"
    },
    {
      "channel": 1,
      "note": 50,
      "start": 56.0473,
      "duration": 0.1541,
      "velocity": 99,
      "chip": "ym2612"
    },
    {
      "channel": 2,
      "note": 91,
      "start": 56.048,
      "duration": 0.1305,
      "velocity": 97,
      "chip": "ym2612"
    },
    {
      "channel": 3,
      "note": 51,
      "start": 56.0486,
      "duration": 0.1303,
      "velocity": 127,
      "chip": "ym2612"
    },
    {
      "channel": 4,
      "note": 71,
      "start": 56.0664,
      "duration": 0.2726,
      "velocity": 96,
      "chip": "ym2612"
    },
    {
      "channel": 0,
      "note": 74,
      "start": 56.2011,
      "duration": 0.2742,
      "velocity": 96,
      "chip": "ym2612"
    },
    {
      "channel": 1,
      "note": 55,
      "start": 56.2016,
      "duration": 0.2742,
      "velocity": 99,
      "chip": "ym2612"
    },
    {
      "channel": 2,
      "note": 95,
      "start": 56.2021,
      "duration": 0.2507,
      "velocity": 97,
      "chip": "ym2612"
    },
    {
      "channel": 3,
      "note": 51,
      "start": 56.2052,
      "duration": 0.248,
      "velocity": 127,
      "chip": "ym2612"
    },
    {
      "channel": 4,
      "note": 73,
      "start": 56.3394,
      "duration": 0.16,
      "velocity": 96,
      "chip": "ym2612"
    },
    {
      "channel": 0,
      "note": 73,
      "start": 56.4756,
      "duration": 0.1206,
      "velocity": 96,
      "chip": "ym2612"
    },
    {
      "channel": 1,
      "note": 54,
      "start": 56.4761,
      "duration": 0.1207,
      "velocity": 99,
      "chip": "ym2612"
    },
    {
      "channel": 2,
      "note": 93,
      "start": 56.4766,
      "duration": 0.0977,
      "velocity": 97,
      "chip": "ym2612"
    },
    {
      "channel": 3,
      "note": 51,
      "start": 56.4801,
      "duration": 0.0944,
      "velocity": 127,
      "chip": "ym2612"
    },
    {
      "channel": 4,
      "note": 74,
      "start": 56.4996,
      "duration": 0.2348,
      "velocity": 96,
      "chip": "ym2612"
    },
    {
      "channel": 0,
      "note": 69,
      "start": 56.5964,
      "duration": 0.4304,
      "velocity": 96,
      "chip": "ym2612"
    },
    {
      "channel": 2,
      "note": 90,
      "start": 56.5973,
      "duration": 0.4071,
      "velocity": 97,
      "chip": "ym2612"
    },
    {
      "channel": 3,
      "note": 51,
      "start": 56.5979,
      "duration": 0.2506,
      "velocity": 127,
      "chip": "ym2612"
    },
    {
      "channel": 4,
      "note": 73,
      "start": 56.7347,
      "duration": 0.4303,
      "velocity": 96,
      "chip": "ym2612"
    },
    {
      "channel": 1,
      "note": 54,
      "start": 56.8711,
      "duration": 0.1561,
      "velocity": 99,
      "chip": "ym2612"
    },
    {
      "channel": 3,
      "note": 51,
      "start": 56.8719,
      "duration": 0.1328,
      "velocity": 127,
      "chip": "ym2612"
    },
    {
      "channel": 0,
      "note": 66,
      "start": 57.0269,
      "duration": 0.669,
      "velocity": 96,
      "chip": "ym2612"
    },
    {
      "channel": 2,
      "note": 85,
      "start": 57.0278,
      "duration": 0.6458,
      "velocity": 97,
      "chip": "ym2612"
    },
    {
      "channel": 3,
      "note": 51,
      "start": 57.0285,
      "duration": 0.2506,
      "velocity": 127,
      "chip": "ym2612"
    },
    {
      "channel": 4,
      "note": 69,
      "start": 57.1653,
      "duration": 0.5528,
      "velocity": 96,
      "chip": "ym2612"
    },
    {
      "channel": 1,
      "note": 61,
      "start": 57.3017,
      "duration": 0.3948,
      "velocity": 99,
      "chip": "ym2612"
    },
    {
      "channel": 3,
      "note": 51,
      "start": 57.3024,
      "duration": 0.097,
      "velocity": 127,
      "chip": "ym2612"
    },
    {
      "channel": 3,
      "note": 51,
      "start": 57.425,
      "duration": 0.249,
      "velocity": 127,
      "chip": "ym2612"
    },
    {
      "channel": 0,
      "note": 69,
      "start": 57.6963,
      "duration": 0.19,
      "velocity": 96,
      "chip": "ym2612"
    },
    {
      "channel": 1,
      "note": 57,
      "start": 57.6968,
      "duration": 0.1537,
      "velocity": 99,
      "chip": "ym2612"
    },
    {
      "channel": 2,
      "note": 81,
      "start": 57.6973,
      "duration": 0.1867,
      "velocity": 97,
      "chip": "ym2612"
    },
    {
      "channel": 3,
      "note": 51,
      "start": 57.7003,
      "duration": 0.1278,
      "velocity": 127,
      "chip": "ym2612"
    },
    {
      "channel": 4,
      "note": 66,
      "start": 57.7186,
      "duration": 0.189,
      "velocity": 96,
      "chip": "ym2612"
    },
    {
      "channel": 1,
      "note": 54,
      "start": 57.8507,
      "duration": 0.0361,
      "velocity": 99,
      "chip": "ym2612"
    },
    {
      "channel": 3,
      "note": 51,
      "start": 57.8515,
      "duration": 0.0328,
      "velocity": 127,
      "chip": "ym2612"
    },
    {
      "channel": 0,
      "note": 67,
      "start": 57.8865,
      "duration": 0.8232,
      "velocity": 96,
      "chip": "ym2612"
    },
    {
      "channel": 1,
      "note": 55,
      "start": 57.887,
      "duration": 0.1195,
      "velocity": 99,
      "chip": "ym2612"
    },
    {
      "channel": 2,
      "note": 83,
      "start": 57.8876,
      "duration": 0.7998,
      "velocity": 97,
      "chip": "ym2612"
    },
    {
      "channel": 3,
      "note": 51,
      "start": 57.8883,
      "duration": 0.0959,
      "velocity": 127,
      "chip": "ym2612"
    },
    {
      "channel": 4,
      "note": 69,
      "start": 57.908,
      "duration": 0.8231,
      "velocity": 96,
      "chip": "ym2612"
    },
    {
      "channel": 3,
      "note": 51,
      "start": 58.0074,
      "duration": 0.2513,
      "velocity": 127,
      "chip": "ym2612"
    },
    {
      "channel": 1,
      "note": 55,
      "start": 58.2813,
      "duration": 0.1544,
      "velocity": 99,
      "chip": "ym2612"
    },
    {
      "channel": 3,
      "note": 51,
      "start": 58.2822,
      "duration": 0.131,
      "velocity": 127,
      "chip": "ym2612"
    },
    {
      "channel": 3,
      "note": 51,
      "start": 58.4366,
      "duration": 0.251,
      "velocity": 127,
      "chip": "ym2612"
    },
    {
      "channel": 1,
      "note": 55,
      "start": 58.7102,
      "duration": 0.1209,
      "velocity": 99,
      "chip": "ym2612"
    },
    {
      "channel": 3,
      "note": 51,
      "start": 58.7112,
      "duration": 0.097,
      "velocity": 127,
      "chip": "ym2612"
    },
    {
      "channel": 0,
      "note": 67,
      "start": 58.8309,
      "duration": 0.274,
      "velocity": 96,
      "chip": "ym2612"
    },
    {
      "channel": 2,
      "note": 83,
      "start": 58.8319,
      "duration": 0.2504,
      "velocity": 97,
      "chip": "ym2612"
    },
    {
      "channel": 3,
      "note": 51,
      "start": 58.8325,
      "duration": 0.2501,
      "velocity": 127,
      "chip": "ym2612"
    },
    {
      "channel": 4,
      "note": 67,
      "start": 58.9688,
      "duration": 0.1558,
      "velocity": 96,
      "chip": "ym2612"
    },
    {
      "channel": 0,
      "note": 69,
      "start": 59.105,
      "duration": 0.1548,
      "velocity": 96,
      "chip": "ym2612"
    },
    {
      "channel": 1,
      "note": 59,
      "start": 59.1056,
      "duration": 0.1548,
      "velocity": 99,
      "chip": "ym2612"
    },
    {
      "channel": 2,
      "note": 85,
      "start": 59.1061,
      "duration": 0.1313,
      "velocity": 97,
      "chip": "ym2612"
    },
    {
      "channel": 3,
      "note": 51,
      "start": 59.1067,
      "duration": 0.131,
      "velocity": 127,
      "chip": "ym2612"
    },
    {
      "channel": 4,
      "note": 67,
      "start": 59.1249,
      "duration": 0.2731,
      "velocity": 96,
      "chip": "ym2612"
    },
    {
      "channel": 0,
      "note": 71,
      "start": 59.26,
      "duration": 0.2743,
      "velocity": 96,
      "chip": "ym2612"
    },
    {
      "channel": 1,
      "note": 61,
      "start": 59.2606,
      "duration": 0.2742,
      "velocity": 99,
      "chip": "ym2612"
    },
    {
      "channel": 2,
      "note": 86,
      "start": 59.2614,
      "duration": 0.2508,
      "velocity": 97,
      "chip": "ym2612"
    },
    {
      "channel": 3,
      "note": 51,
      "start": 59.2647,
      "duration": 0.2478,
      "velocity": 127,
      "chip": "ym2612"
    },
    {
      "channel": 4,
      "note": 69,
      "start": 59.3984,
      "duration": 0.1584,
      "velocity": 96,
      "chip": "ym2612"
    },
    {
      "channel": 0,
      "note": 73,
      "start": 59.5345,
      "duration": 0.3938,
      "velocity": 96,
      "chip": "ym2612"
    },
    {
      "channel": 1,
      "note": 57,
      "start": 59.5351,
      "duration": 0.119,
      "velocity": 99,
      "chip": "ym2612"
    },
    {
      "channel": 2,
      "note": 88,
      "start": 59.5356,
      "duration": 0.3705,
      "velocity": 97,
      "chip": "ym2612"
    },
    {
      "channel": 3,
      "note": 51,
      "start": 59.5387,
      "duration": 0.093,
      "velocity": 127,
      "chip": "ym2612"
    },
    {
      "channel": 4,
      "note": 71,
      "start": 59.5571,
      "duration": 0.391,
      "velocity": 96,
      "chip": "ym2612"
    },
    {
      "channel": 3,
      "note": 51,
      "start": 59.6549,
      "duration": 0.2516,
      "velocity": 127,
      "chip": "ym2612"
    },
    {
      "channel": 1,
      "note": 57,
      "start": 59.9289,
      "duration": 0.1552,
      "velocity": 99,
      "chip": "ym2612"
    },
    {
      "channel": 3,
      "note": 51,
      "start": 59.9298,
      "duration": 0.1316,
      "velocity": 127,
      "chip": "ym2612"
    },
    {
      "channel": 0,
      "note": 74,
      "start": 60.0837,
      "duration": 0.1198,
      "velocity": 96,
      "chip": "ym2612"
    },
    {
      "channel": 2,
      "note": 90,
      "start": 60.0846,
      "duration": 0.0965,
      "velocity": 97,
      "chip": "ym2612"
    },
    {
      "channel": 3,
      "note": 51,
      "start": 60.0852,
      "duration": 0.0962,
      "velocity": 127,
      "chip": "ym2612"
    },
    {
      "channel": 4,
      "note": 73,
      "start": 60.1047,
      "duration": 0.1177,
      "velocity": 96,
      "chip": "ym2612"
    },
    {
      "channel": 0,
      "note": 73,
      "start": 60.2037,
      "duration": 0.1538,
      "velocity": 96,
      "chip": "ym2612"
    },
    {
      "channel": 1,
      "note": 61,
      "start": 60.2043,
      "duration": 0.1537,
      "velocity": 99,
      "chip": "ym2612"
    },
    {
      "channel": 2,
      "note": 88,
      "start": 60.2048,
      "duration": 0.1303,
      "velocity": 97,
      "chip": "ym2612"
    },
    {
      "channel": 3,
      "note": 51,
      "start": 60.2054,
      "duration": 0.13,
      "velocity": 127,
      "chip": "ym2612"
    },
    {
      "channel": 4,
      "note": 74,
      "start": 60.2227,
      "duration": 0.155,
      "velocity": 96,
      "chip": "ym2612"
    },
    {
      "channel": 0,
      "note": 69,
      "start": 60.3578,
      "duration": 0.0362,
      "velocity": 96,
      "chip": "ym2612"
    },
    {
      "channel": 2,
      "note": 85,
      "start": 60.3586,
      "duration": 0.0327,
      "velocity": 97,
      "chip": "ym2612"
    },
    {
      "channel": 3,
      "note": 51,
      "start": 60.3592,
      "duration": 0.0324,
      "velocity": 127,
      "chip": "ym2612"
    },
    {
      "channel": 4,
      "note": 73,
      "start": 60.3779,
      "duration": 0.037,
      "velocity": 96,
      "chip": "ym2612"
    },
    {
      "channel": 0,
      "note": 66,
      "start": 60.3942,
      "duration": 0.0381,
      "velocity": 96,
      "chip": "ym2612"
    },
    {
      "channel": 1,
      "note": 57,
      "start": 60.3948,
      "duration": 0.0381,
      "velocity": 99,
      "chip": "ym2612"
    },
    {
      "channel": 2,
      "note": 81,
      "start": 60.3953,
      "duration": 0.0333,
      "velocity": 97,
      "chip": "ym2612"
    },
    {
      "channel": 3,
      "note": 51,
      "start": 60.3959,
      "duration": 0.033,
      "velocity": 127,
      "chip": "ym2612"
    },
    {
      "channel": 4,
      "note": 69,
      "start": 60.4152,
      "duration": 0.0407,
      "velocity": 96,
      "chip": "ym2612"
    },
    {
      "channel": 0,
      "note": 71,
      "start": 60.4325,
      "duration": 1.7137,
      "velocity": 96,
      "chip": "ym2612"
    },
    {
      "channel": 1,
      "note": 59,
      "start": 60.4331,
      "duration": 1.4849,
      "velocity": 99,
      "chip": "ym2612"
    },
    {
      "channel": 2,
      "note": 86,
      "start": 60.4336,
      "duration": 1.6902,
      "velocity": 97,
      "chip": "ym2612"
    },
    {
      "channel": 3,
      "note": 51,
      "start": 60.4367,
      "duration": 0.6233,
      "velocity": 115,
      "chip": "ym2612"
    },
    {
      "channel": 4,
      "note": 66,
      "start": 60.4562,
      "duration": 1.8283,
      "velocity": 96,
      "chip": "ym2612"
    },
    {
      "channel": 3,
      "note": 58,
      "start": 61.066,
      "duration": 0.8129,
      "velocity": 127,
      "chip": "ym2612"
    },
    {
      "channel": 3,
      "note": 51,
      "start": 61.8822,
      "duration": 0.7709,
      "velocity": 127,
      "chip": "ym2612"
    },
    {
      "channel": 1,
      "note": 54,
      "start": 61.9183,
      "duration": 0.2282,
      "velocity": 99,
      "chip": "ym2612"
    },
    {
      "channel": 1,
      "note": 59,
      "start": 62.1468,
      "duration": 0.2761,
      "velocity": 99,
      "chip": "ym2612"
    },
    {
      "channel": 0,
      "note": 78,
      "start": 62.4226,
      "duration": 0.2333,
      "velocity": 60,
      "chip": "ym2612"
    },
    {
      "channel": 1,
      "note": 66,
      "start": 62.4231,
      "duration": 0.2333,
      "velocity": 99,
      "chip": "ym2612"
    },
    {
      "channel": 4,
      "note": 71,
      "start": 62.5617,
      "duration": 0.1136,
      "velocity": 60,
      "chip": "ym2612"
    },
    {
      "channel": 0,
      "note": 85,
      "start": 62.6561,
      "duration": 0.0366,
      "velocity": 60,
      "chip": "ym2612"
    },
    {
      "channel": 1,
      "note": 73,
      "start": 62.6566,
      "duration": 0.0366,
      "velocity": 99,
      "chip": "ym2612"
    },
    {
      "channel": 3,
      "note": 51,
      "start": 62.6575,
      "duration": 0.56,
      "velocity": 127,
      "chip": "ym2612"
    },
    {
      "channel": 4,
      "note": 78,
      "start": 62.6757,
      "duration": 0.1533,
      "velocity": 60,
      "chip": "ym2612"
    },
    {
      "channel": 0,
      "note": 81,
      "start": 62.6929,
      "duration": 0.2723,
      "velocity": 60,
      "chip": "ym2612"
    },
    {
      "channel": 1,
      "note": 71,
      "start": 62.6935,
      "duration": 0.5464,
      "velocity": 99,
      "chip": "ym2612"
    },
    {
      "channel": 4,
      "note": 85,
      "start": 62.8293,
      "duration": 0.2747,
      "velocity": 60,
      "chip": "ym2612"
    },
    {
      "channel": 0,
      "note": 88,
      "start": 62.9654,
      "duration": 0.7408,
      "velocity": 60,
      "chip": "ym2612"
    },
    {
      "channel": 4,
      "note": 81,
      "start": 63.1043,
      "duration": 0.634,
      "velocity": 60,
      "chip": "ym2612"
    },
    {
      "channel": 1,
      "note": 66,
      "start": 63.2401,
      "duration": 0.1919,
      "velocity": 99,
      "chip": "ym2612"
    },
    {
      "channel": 3,
      "note": 51,
      "start": 63.2409,
      "duration": 0.0317,
      "velocity": 127,
      "chip": "ym2612"
    },
    {
      "channel": 3,
      "note": 51,
      "start": 63.2798,
      "duration": 0.4043,
      "velocity": 127,
      "chip": "ym2612"
    },
    {
      "channel": 1,
      "note": 54,
      "start": 63.4322,
      "duration": 0.2766,
      "velocity": 99,
      "chip": "ym2612"
    },
    {
      "channel": 0,
      "note": 59,
      "start": 63.7086,
      "duration": 0.1172,
      "velocity": 60,
      "chip": "ym2612"
    },
    {
      "channel": 1,
      "note": 59,
      "start": 63.7113,
      "duration": 37.84,
      "velocity": 99,
      "chip": "ym2612"
    },
    {
      "channel": 2,
      "note": 66,
      "start": 63.7161,
      "duration": 0.0873,
      "velocity": 78,
      "chip": "ym2612"
    },
    {
      "channel": 3,
      "note": 55,
      "start": 63.7196,
      "duration": 0.3586,
      "velocity": 115,
      "chip": "ym2612"
    },
    {
      "channel": 4,
      "note": 88,
      "start": 63.7417,
      "duration": 0.2224,
      "velocity": 60,
      "chip": "ym2612"
    },
    {
      "channel": 0,
      "note": 66,
      "start": 63.8261,
      "duration": 37.7252,
      "velocity": 60,
      "chip": "ym2612"
    },
    {
      "channel": 2,
      "note": 73,
      "start": 63.8268,
      "duration": 0.2511,
      "velocity": 78,
      "chip": "ym2612"
    },
    {
      "channel": 4,
      "note": 59,
      "start": 63.9644,
      "duration": 37.5869,
      "velocity": 60,
      "chip": "ym2612"
    }
  ]
}