{
  "track_name": "18 - Voltage Algorithm",
  "duration_sec": 105.606,
  "sample_rate": 44100,
  "note_count": 781,
  "unique_pitches": 24,
  "pitch_range": 50,
  "avg_note_duration": 0.3009,
  "reconstruction_stats": {
    "notes_reconstructed": 781,
    "keyon_events": 781,
    "keyoff_events": 779,
    "orphan_keyons": 1,
    "unique_pitches": 24,
    "pitch_range": 50,
    "avg_duration_sec": 0.3009
  },
  "metadata": {
    "source": "P\\Pulseman\\18 - Voltage Algorithm.vgz"
  },
  "notes": [
    {
      "channel": 2,
      "note": 69,
      "start": 0.0,
      "duration": 0.2974,
      "velocity": 87,
      "chip": "ym2612"
    },
    {
      "channel": 2,
      "note": 81,
      "start": 0.2976,
      "duration": 0.2998,
      "velocity": 87,
      "chip": "ym2612"
    },
    {
      "channel": 2,
      "note": 64,
      "start": 0.5976,
      "duration": 0.2998,
      "velocity": 87,
      "chip": "ym2612"
    },
    {
      "channel": 2,
      "note": 76,
      "start": 0.8976,
      "duration": 0.2998,
      "velocity": 87,
      "chip": "ym2612"
    },
    {
      "channel": 2,
      "note": 62,
      "start": 1.1976,
      "duration": 0.2998,
      "velocity": 87,
      "chip": "ym2612"
    },
    {
      "channel": 2,
      "note": 74,
      "start": 1.4976,
      "duration": 0.2998,
      "velocity": 87,
      "chip": "ym2612"
    },
    {
      "channel": 2,
      "note": 64,
      "start": 1.7976,
      "duration": 0.2998,
      "velocity": 87,
      "chip": "ym2612"
    },
    {
      "channel": 2,
      "note": 76,
      "start": 2.0976,
      "duration": 0.3001,
      "velocity": 87,
      "chip": "ym2612"
    },
    {
      "channel": 2,
      "note": 69,
      "start": 2.3979,
      "duration": 0.2995,
      "velocity": 87,
      "chip": "ym2612"
    },
    {
      "channel": 2,
      "note": 81,
      "start": 2.6976,
      "duration": 0.2998,
      "velocity": 87,
      "chip": "ym2612"
    },
    {
      "channel": 2,
      "note": 64,
      "start": 2.9976,
      "duration": 0.2998,
      "velocity": 87,
      "chip": "ym2612"
    },
    {
      "channel": 2,
      "note": 76,
      "start": 3.2976,
      "duration": 0.2998,
      "velocity": 87,
      "chip": "ym2612"
    },
    {
      "channel": 2,
      "note": 62,
      "start": 3.5976,
      "duration": 0.2998,
      "velocity": 87,
      "chip": "ym2612"
    },
    {
      "channel": 2,
      "note": 74,
      "start": 3.8976,
      "duration": 0.2998,
      "velocity": 87,
      "chip": "ym2612"
    },
    {
      "channel": 2,
      "note": 64,
      "start": 4.1976,
      "duration": 0.2998,
      "velocity": 87,
      "chip": "ym2612"
    },
    {
      "channel": 2,
      "note": 76,
      "start": 4.4976,
      "duration": 0.3001,
      "velocity": 87,
      "chip": "ym2612"
    },
    {
      "channel": 2,
      "note": 69,
      "start": 4.7979,
      "duration": 0.2995,
      "velocity": 87,
      "chip": "ym2612"
    },
    {
      "channel": 2,
      "note": 81,
      "start": 5.0976,
      "duration": 0.2998,
      "velocity": 87,
      "chip": "ym2612"
    },
    {
      "channel": 2,
      "note": 64,
      "start": 5.3976,
      "duration": 0.2998,
      "velocity": 87,
      "chip": "ym2612"
    },
    {
      "channel": 2,
      "note": 76,
      "start": 5.6976,
      "duration": 0.2998,
      "velocity": 87,
      "chip": "ym2612"
    },
    {
      "channel": 2,
      "note": 62,
      "start": 5.9976,
      "duration": 0.2998,
      "velocity": 87,
      "chip": "ym2612"
    },
    {
      "channel": 2,
      "note": 74,
      "start": 6.2976,
      "duration": 0.2998,
      "velocity": 87,
      "chip": "ym2612"
    },
    {
      "channel": 2,
      "note": 64,
      "start": 6.5976,
      "duration": 0.2998,
      "velocity": 87,
      "chip": "ym2612"
    },
    {
      "channel": 2,
      "note": 76,
      "start": 6.8976,
      "duration": 0.3001,
      "velocity": 87,
      "chip": "ym2612"
    },
    {
      "channel": 2,
      "note": 69,
      "start": 7.1979,
      "duration": 0.2995,
      "velocity": 87,
      "chip": "ym2612"
    },
    {
      "channel": 2,
      "note": 81,
      "start": 7.4976,
      "duration": 0.2998,
      "velocity": 87,
      "chip": "ym2612"
    },
    {
      "channel": 2,
      "note": 64,
      "start": 7.7976,
      "duration": 0.2998,
      "velocity": 87,
      "chip": "ym2612"
    },
    {
      "channel": 2,
      "note": 76,
      "start": 8.0976,
      "duration": 0.2998,
      "velocity": 87,
      "chip": "ym2612"
    },
    {
      "channel": 2,
      "note": 62,
      "start": 8.3976,
      "duration": 0.2998,
      "velocity": 87,
      "chip": "ym2612"
    },
    {
      "channel": 2,
      "note": 74,
      "start": 8.6976,
      "duration": 0.2998,
      "velocity": 87,
      "chip": "ym2612"
    },
    {
      "channel": 2,
      "note": 64,
      "start": 8.9976,
      "duration": 0.2998,
      "velocity": 87,
      "chip": "ym2612"
    },
    {
      "channel": 2,
      "note": 76,
      "start": 9.2976,
      "duration": 0.301,
      "velocity": 87,
      "chip": "ym2612"
    },
    {
      "channel": 0,
      "note": 50,
      "start": 9.5982,
      "duration": 2.3991,
      "velocity": 108,
      "chip": "ym2612"
    },
    {
      "channel": 1,
      "note": 57,
      "start": 9.5985,
      "duration": 2.3991,
      "velocity": 108,
      "chip": "ym2612"
    },
    {
      "channel": 2,
      "note": 69,
      "start": 9.5989,
      "duration": 0.2985,
      "velocity": 87,
      "chip": "ym2612"
    },
    {
      "channel": 4,
      "note": 57,
      "start": 9.5993,
      "duration": 2.3991,
      "velocity": 108,
      "chip": "ym2612"
    },
    {
      "channel": 2,
      "note": 81,
      "start": 9.8976,
      "duration": 0.2998,
      "velocity": 87,
      "chip": "ym2612"
    },
    {
      "channel": 2,
      "note": 64,
      "start": 10.1976,
      "duration": 0.2998,
      "velocity": 87,
      "chip": "ym2612"
    },
    {
      "channel": 2,
      "note": 76,
      "start": 10.4976,
      "duration": 0.2998,
      "velocity": 87,
      "chip": "ym2612"
    },
    {
      "channel": 2,
      "note": 62,
      "start": 10.7976,
      "duration": 0.2998,
      "velocity": 87,
      "chip": "ym2612"
    },
    {
      "channel": 2,
      "note": 74,
      "start": 11.0977,
      "duration": 0.2998,
      "velocity": 87,
      "chip": "ym2612"
    },
    {
      "channel": 2,
      "note": 64,
      "start": 11.3976,
      "duration": 0.2998,
      "velocity": 87,
      "chip": "ym2612"
    },
    {
      "channel": 2,
      "note": 76,
      "start": 11.6976,
      "duration": 0.3003,
      "velocity": 87,
      "chip": "ym2612"
    },
    {
      "channel": 0,
      "note": 55,
      "start": 11.9976,
      "duration": 2.3998,
      "velocity": 108,
      "chip": "ym2612"
    },
    {
      "channel": 1,
      "note": 62,
      "start": 11.9979,
      "duration": 2.3998,
      "velocity": 108,
      "chip": "ym2612"
    },
    {
      "channel": 2,
      "note": 69,
      "start": 11.9982,
      "duration": 0.2992,
      "velocity": 87,
      "chip": "ym2612"
    },
    {
      "channel": 4,
      "note": 62,
      "start": 11.9986,
      "duration": 2.3998,
      "velocity": 108,
      "chip": "ym2612"
    },
    {
      "channel": 2,
      "note": 81,
      "start": 12.2976,
      "duration": 0.2998,
      "velocity": 87,
      "chip": "ym2612"
    },
    {
      "channel": 2,
      "note": 64,
      "start": 12.5976,
      "duration": 0.2998,
      "velocity": 87,
      "chip": "ym2612"
    },
    {
      "channel": 2,
      "note": 76,
      "start": 12.8976,
      "duration": 0.2998,
      "velocity": 87,
      "chip": "ym2612"
    },
    {
      "channel": 2,
      "note": 62,
      "start": 13.1976,
      "duration": 0.2998,
      "velocity": 87,
      "chip": "ym2612"
    },
    {
      "channel": 2,
      "note": 74,
      "start": 13.4977,
      "duration": 0.2998,
      "velocity": 87,
      "chip": "ym2612"
    },
    {
      "channel": 2,
      "note": 64,
      "start": 13.7977,
      "duration": 0.2998,
      "velocity": 87,
      "chip": "ym2612"
    },
    {
      "channel": 2,
      "note": 76,
      "start": 14.0976,
      "duration": 0.3003,
      "velocity": 87,
      "chip": "ym2612"
    },
    {
      "channel": 0,
      "note": 53,
      "start": 14.3976,
      "duration": 2.3998,
      "velocity": 108,
      "chip": "ym2612"
    },
    {
      "channel": 1,
      "note": 60,
      "start": 14.3979,
      "duration": 2.3998,
      "velocity": 108,
      "chip": "ym2612"
    },
    {
      "channel": 2,
      "note": 69,
      "start": 14.3982,
      "duration": 0.2992,
      "velocity": 87,
      "chip": "ym2612"
    },
    {
      "channel": 4,
      "note": 60,
      "start": 14.3986,
      "duration": 2.3998,
      "velocity": 108,
      "chip": "ym2612"
    },
    {
      "channel": 2,
      "note": 81,
      "start": 14.6976,
      "duration": 0.2998,
      "velocity": 87,
      "chip": "ym2612"
    },
    {
      "channel": 2,
      "note": 64,
      "start": 14.9976,
      "duration": 0.2998,
      "velocity": 87,
      "chip": "ym2612"
    },
    {
      "channel": 2,
      "note": 76,
      "start": 15.2976,
      "duration": 0.2998,
      "velocity": 87,
      "chip": "ym2612"
    },
    {
      "channel": 2,
      "note": 62,
      "start": 15.5976,
      "duration": 0.2998,
      "velocity": 87,
      "chip": "ym2612"
    },
    {
      "channel": 2,
      "note": 74,
      "start": 15.8977,
      "duration": 0.2998,
      "velocity": 87,
      "chip": "ym2612"
    },
    {
      "channel": 2,
      "note": 64,
      "start": 16.1976,
      "duration": 0.2998,
      "velocity": 87,
      "chip": "ym2612"
    },
    {
      "channel": 2,
      "note": 76,
      "start": 16.4977,
      "duration": 0.3002,
      "velocity": 87,
      "chip": "ym2612"
    },
    {
      "channel": 0,
      "note": 50,
      "start": 16.7976,
      "duration": 2.3998,
      "velocity": 108,
      "chip": "ym2612"
    },
    {
      "channel": 1,
      "note": 57,
      "start": 16.7979,
      "duration": 2.3998,
      "velocity": 108,
      "chip": "ym2612"
    },
    {
      "channel": 2,
      "note": 69,
      "start": 16.7982,
      "duration": 0.2992,
      "velocity": 87,
      "chip": "ym2612"
    },
    {
      "channel": 4,
      "note": 57,
      "start": 16.7986,
      "duration": 2.3998,
      "velocity": 108,
      "chip": "ym2612"
    },
    {
      "channel": 2,
      "note": 81,
      "start": 17.0976,
      "duration": 0.2998,
      "velocity": 87,
      "chip": "ym2612"
    },
    {
      "channel": 2,
      "note": 64,
      "start": 17.3976,
      "duration": 0.2998,
      "velocity": 87,
      "chip": "ym2612"
    },
    {
      "channel": 2,
      "note": 76,
      "start": 17.6976,
      "duration": 0.2998,
      "velocity": 87,
      "chip": "ym2612"
    },
    {
      "channel": 2,
      "note": 62,
      "start": 17.9976,
      "duration": 0.2998,
      "velocity": 87,
      "chip": "ym2612"
    },
    {
      "channel": 2,
      "note": 74,
      "start": 18.2976,
      "duration": 0.2998,
      "velocity": 87,
      "chip": "ym2612"
    },
    {
      "channel": 2,
      "note": 64,
      "start": 18.5976,
      "duration": 0.2998,
      "velocity": 87,
      "chip": "ym2612"
    },
    {
      "channel": 2,
      "note": 76,
      "start": 18.8976,
      "duration": 0.3003,
      "velocity": 87,
      "chip": "ym2612"
    },
    {
      "channel": 0,
      "note": 55,
      "start": 19.1976,
      "duration": 2.3998,
      "velocity": 108,
      "chip": "ym2612"
    },
    {
      "channel": 1,
      "note": 62,
      "start": 19.1979,
      "duration": 2.3998,
      "velocity": 108,
      "chip": "ym2612"
    },
    {
      "channel": 2,
      "note": 69,
      "start": 19.1982,
      "duration": 0.2992,
      "velocity": 87,
      "chip": "ym2612"
    },
    {
      "channel": 4,
      "note": 62,
      "start": 19.1986,
      "duration": 2.3998,
      "velocity": 108,
      "chip": "ym2612"
    },
    {
      "channel": 2,
      "note": 81,
      "start": 19.4977,
      "duration": 0.2998,
      "velocity": 87,
      "chip": "ym2612"
    },
    {
      "channel": 2,
      "note": 64,
      "start": 19.7976,
      "duration": 0.2998,
      "velocity": 87,
      "chip": "ym2612"
    },
    {
      "channel": 2,
      "note": 76,
      "start": 20.0976,
      "duration": 0.2998,
      "velocity": 87,
      "chip": "ym2612"
    },
    {
      "channel": 2,
      "note": 62,
      "start": 20.3976,
      "duration": 0.2998,
      "velocity": 87,
      "chip": "ym2612"
    },
    {
      "channel": 2,
      "note": 74,
      "start": 20.6976,
      "duration": 0.2998,
      "velocity": 87,
      "chip": "ym2612"
    },
    {
      "channel": 2,
      "note": 64,
      "start": 20.9977,
      "duration": 0.2998,
      "velocity": 87,
      "chip": "ym2612"
    },
    {
      "channel": 2,
      "note": 76,
      "start": 21.2977,
      "duration": 0.3002,
      "velocity": 87,
      "chip": "ym2612"
    },
    {
      "channel": 0,
      "note": 53,
      "start": 21.5976,
      "duration": 2.3998,
      "velocity": 108,
      "chip": "ym2612"
    },
    {
      "channel": 1,
      "note": 60,
      "start": 21.5979,
      "duration": 2.3998,
      "velocity": 108,
      "chip": "ym2612"
    },
    {
      "channel": 2,
      "note": 69,
      "start": 21.5982,
      "duration": 0.2992,
      "velocity": 87,
      "chip": "ym2612"
    },
    {
      "channel": 4,
      "note": 60,
      "start": 21.5986,
      "duration": 2.3998,
      "velocity": 108,
      "chip": "ym2612"
    },
    {
      "channel": 2,
      "note": 81,
      "start": 21.8976,
      "duration": 0.2998,
      "velocity": 87,
      "chip": "ym2612"
    },
    {
      "channel": 2,
      "note": 64,
      "start": 22.1977,
      "duration": 0.2998,
      "velocity": 87,
      "chip": "ym2612"
    },
    {
      "channel": 2,
      "note": 76,
      "start": 22.4976,
      "duration": 0.2998,
      "velocity": 87,
      "chip": "ym2612"
    },
    {
      "channel": 2,
      "note": 62,
      "start": 22.7976,
      "duration": 0.2998,
      "velocity": 87,
      "chip": "ym2612"
    },
    {
      "channel": 2,
      "note": 74,
      "start": 23.0976,
      "duration": 0.2998,
      "velocity": 87,
      "chip": "ym2612"
    },
    {
      "channel": 2,
      "note": 64,
      "start": 23.3976,
      "duration": 0.2998,
      "velocity": 87,
      "chip": "ym2612"
    },
    {
      "channel": 2,
      "note": 76,
      "start": 23.6976,
      "duration": 0.3003,
      "velocity": 87,
      "chip": "ym2612"
    },
    {
      "channel": 0,
      "note": 55,
      "start": 23.9976,
      "duration": 2.3999,
      "velocity": 108,
      "chip": "ym2612"
    },
    {
      "channel": 1,
      "note": 62,
      "start": 23.9979,
      "duration": 2.3998,
      "velocity": 108,
      "chip": "ym2612"
    },
    {
      "channel": 2,
      "note": 69,
      "start": 23.9982,
      "duration": 0.2992,
      "velocity": 87,
      "chip": "ym2612"
    },
    {
      "channel": 4,
      "note": 62,
      "start": 23.9985,
      "duration": 2.3998,
      "velocity": 108,
      "chip": "ym2612"
    },
    {
      "channel": 2,
      "note": 81,
      "start": 24.2976,
      "duration": 0.2998,
      "velocity": 87,
      "chip": "ym2612"
    },
    {
      "channel": 2,
      "note": 64,
      "start": 24.5977,
      "duration": 0.2998,
      "velocity": 87,
      "chip": "ym2612"
    },
    {
      "channel": 2,
      "note": 76,
      "start": 24.8976,
      "duration": 0.2998,
      "velocity": 87,
      "chip": "ym2612"
    },
    {
      "channel": 2,
      "note": 62,
      "start": 25.1976,
      "duration": 0.2998,
      "velocity": 87,
      "chip": "ym2612"
    },
    {
      "channel": 2,
      "note": 74,
      "start": 25.4976,
      "duration": 0.2998,
      "velocity": 87,
      "chip": "ym2612"
    },
    {
      "channel": 2,
      "note": 64,
      "start": 25.7976,
      "duration": 0.2998,
      "velocity": 87,
      "chip": "ym2612"
    },
    {
      "channel": 2,
      "note": 76,
      "start": 26.0977,
      "duration": 0.3002,
      "velocity": 87,
      "chip": "ym2612"
    },
    {
      "channel": 0,
      "note": 52,
      "start": 26.3976,
      "duration": 0.4754,
      "velocity": 108,
      "chip": "ym2612"
    },
    {
      "channel": 1,
      "note": 57,
      "start": 26.3979,
      "duration": 0.4754,
      "velocity": 108,
      "chip": "ym2612"
    },
    {
      "channel": 2,
      "note": 69,
      "start": 26.3982,
      "duration": 0.0028,
      "velocity": 87,
      "chip": "ym2612"
    },
    {
      "channel": 4,
      "note": 57,
      "start": 26.3986,
      "duration": 0.4754,
      "velocity": 108,
      "chip": "ym2612"
    },
    {
      "channel": 2,
      "note": 81,
      "start": 26.4012,
      "duration": 0.1152,
      "velocity": 87,
      "chip": "ym2612"
    },
    {
      "channel": 2,
      "note": 64,
      "start": 26.5166,
      "duration": 0.0024,
      "velocity": 87,
      "chip": "ym2612"
    },
    {
      "channel": 2,
      "note": 76,
      "start": 26.5191,
      "duration": 0.1163,
      "velocity": 87,
      "chip": "ym2612"
    },
    {
      "channel": 2,
      "note": 62,
      "start": 26.6356,
      "duration": 0.0024,
      "velocity": 87,
      "chip": "ym2612"
    },
    {
      "channel": 2,
      "note": 74,
      "start": 26.6381,
      "duration": 0.1163,
      "velocity": 87,
      "chip": "ym2612"
    },
    {
      "channel": 2,
      "note": 64,
      "start": 26.7546,
      "duration": 0.0023,
      "velocity": 87,
      "chip": "ym2612"
    },
    {
      "channel": 2,
      "note": 76,
      "start": 26.7571,
      "duration": 0.1165,
      "velocity": 87,
      "chip": "ym2612"
    },
    {
      "channel": 0,
      "note": 45,
      "start": 26.8732,
      "duration": 0.0035,
      "velocity": 108,
      "chip": "ym2612"
    },
    {
      "channel": 1,
      "note": 57,
      "start": 26.8735,
      "duration": 0.4757,
      "velocity": 108,
      "chip": "ym2612"
    },
    {
      "channel": 2,
      "note": 69,
      "start": 26.8738,
      "duration": 0.003,
      "velocity": 87,
      "chip": "ym2612"
    },
    {
      "channel": 4,
      "note": 57,
      "start": 26.8742,
      "duration": 0.4756,
      "velocity": 108,
      "chip": "ym2612"
    },
    {
      "channel": 0,
      "note": 45,
      "start": 26.8767,
      "duration": 0.3564,
      "velocity": 114,
      "chip": "ym2612"
    },
    {
      "channel": 2,
      "note": 81,
      "start": 26.8769,
      "duration": 0.1151,
      "velocity": 87,
      "chip": "ym2612"
    },
    {
      "channel": 2,
      "note": 64,
      "start": 26.9922,
      "duration": 0.0024,
      "velocity": 87,
      "chip": "ym2612"
    },
    {
      "channel": 2,
      "note": 76,
      "start": 26.9948,
      "duration": 0.1163,
      "velocity": 87,
      "chip": "ym2612"
    },
    {
      "channel": 2,
      "note": 62,
      "start": 27.1113,
      "duration": 0.0023,
      "velocity": 87,
      "chip": "ym2612"
    },
    {
      "channel": 2,
      "note": 74,
      "start": 27.1138,
      "duration": 0.1163,
      "velocity": 87,
      "chip": "ym2612"
    },
    {
      "channel": 2,
      "note": 64,
      "start": 27.2302,
      "duration": 0.0033,
      "velocity": 87,
      "chip": "ym2612"
    },
    {
      "channel": 0,
      "note": 43,
      "start": 27.2333,
      "duration": 0.1155,
      "velocity": 114,
      "chip": "ym2612"
    },
    {
      "channel": 2,
      "note": 76,
      "start": 27.2336,
      "duration": 0.1157,
      "velocity": 87,
      "chip": "ym2612"
    },
    {
      "channel": 0,
      "note": 45,
      "start": 27.3491,
      "duration": 0.0032,
      "velocity": 114,
      "chip": "ym2612"
    },
    {
      "channel": 2,
      "note": 69,
      "start": 27.3495,
      "duration": 0.003,
      "velocity": 87,
      "chip": "ym2612"
    },
    {
      "channel": 0,
      "note": 45,
      "start": 27.3525,
      "duration": 0.1158,
      "velocity": 114,
      "chip": "ym2612"
    },
    {
      "channel": 2,
      "note": 81,
      "start": 27.3528,
      "duration": 0.1158,
      "velocity": 87,
      "chip": "ym2612"
    },
    {
      "channel": 0,
      "note": 45,
      "start": 27.4685,
      "duration": 0.0027,
      "velocity": 114,
      "chip": "ym2612"
    },
    {
      "channel": 2,
      "note": 64,
      "start": 27.4688,
      "duration": 0.0026,
      "velocity": 87,
      "chip": "ym2612"
    },
    {
      "channel": 0,
      "note": 48,
      "start": 27.4713,
      "duration": 0.1159,
      "velocity": 114,
      "chip": "ym2612"
    },
    {
      "channel": 2,
      "note": 76,
      "start": 27.4716,
      "duration": 0.116,
      "velocity": 87,
      "chip": "ym2612"
    },
    {
      "channel": 0,
      "note": 48,
      "start": 27.5875,
      "duration": 0.0025,
      "velocity": 114,
      "chip": "ym2612"
    },
    {
      "channel": 2,
      "note": 62,
      "start": 27.5878,
      "duration": 0.0024,
      "velocity": 87,
      "chip": "ym2612"
    },
    {
      "channel": 0,
      "note": 48,
      "start": 27.5902,
      "duration": 0.1162,
      "velocity": 114,
      "chip": "ym2612"
    },
    {
      "channel": 2,
      "note": 74,
      "start": 27.5904,
      "duration": 0.1163,
      "velocity": 87,
      "chip": "ym2612"
    },
    {
      "channel": 0,
      "note": 48,
      "start": 27.7066,
      "duration": 0.0025,
      "velocity": 114,
      "chip": "ym2612"
    },
    {
      "channel": 2,
      "note": 64,
      "start": 27.7069,
      "duration": 0.0025,
      "velocity": 87,
      "chip": "ym2612"
    },
    {
      "channel": 0,
      "note": 43,
      "start": 27.7094,
      "duration": 0.1159,
      "velocity": 114,
      "chip": "ym2612"
    },
    {
      "channel": 2,
      "note": 76,
      "start": 27.7096,
      "duration": 0.1162,
      "velocity": 87,
      "chip": "ym2612"
    },
    {
      "channel": 0,
      "note": 45,
      "start": 27.8255,
      "duration": 0.0032,
      "velocity": 114,
      "chip": "ym2612"
    },
    {
      "channel": 2,
      "note": 69,
      "start": 27.8259,
      "duration": 0.003,
      "velocity": 87,
      "chip": "ym2612"
    },
    {
      "channel": 0,
      "note": 45,
      "start": 27.8288,
      "duration": 0.1158,
      "velocity": 114,
      "chip": "ym2612"
    },
    {
      "channel": 2,
      "note": 81,
      "start": 27.8291,
      "duration": 0.1158,
      "velocity": 87,
      "chip": "ym2612"
    },
    {
      "channel": 0,
      "note": 45,
      "start": 27.9448,
      "duration": 0.0027,
      "velocity": 114,
      "chip": "ym2612"
    },
    {
      "channel": 2,
      "note": 64,
      "start": 27.9451,
      "duration": 0.0026,
      "velocity": 87,
      "chip": "ym2612"
    },
    {
      "channel": 0,
      "note": 50,
      "start": 27.9476,
      "duration": 0.116,
      "velocity": 114,
      "chip": "ym2612"
    },
    {
      "channel": 2,
      "note": 76,
      "start": 27.9478,
      "duration": 0.1161,
      "velocity": 87,
      "chip": "ym2612"
    },
    {
      "channel": 0,
      "note": 50,
      "start": 28.0639,
      "duration": 0.0026,
      "velocity": 114,
      "chip": "ym2612"
    },
    {
      "channel": 2,
      "note": 62,
      "start": 28.0642,
      "duration": 0.0025,
      "velocity": 87,
      "chip": "ym2612"
    },
    {
      "channel": 0,
      "note": 50,
      "start": 28.0666,
      "duration": 0.1162,
      "velocity": 114,
      "chip": "ym2612"
    },
    {
      "channel": 2,
      "note": 74,
      "start": 28.0668,
      "duration": 0.1163,
      "velocity": 87,
      "chip": "ym2612"
    },
    {
      "channel": 0,
      "note": 50,
      "start": 28.1831,
      "duration": 0.0026,
      "velocity": 114,
      "chip": "ym2612"
    },
    {
      "channel": 2,
      "note": 64,
      "start": 28.1833,
      "duration": 0.0026,
      "velocity": 87,
      "chip": "ym2612"
    },
    {
      "channel": 0,
      "note": 43,
      "start": 28.1859,
      "duration": 0.1159,
      "velocity": 114,
      "chip": "ym2612"
    },
    {
      "channel": 2,
      "note": 76,
      "start": 28.1861,
      "duration": 0.1161,
      "velocity": 87,
      "chip": "ym2612"
    },
    {
      "channel": 0,
      "note": 45,
      "start": 28.3019,
      "duration": 0.0031,
      "velocity": 114,
      "chip": "ym2612"
    },
    {
      "channel": 2,
      "note": 69,
      "start": 28.3024,
      "duration": 0.0029,
      "velocity": 87,
      "chip": "ym2612"
    },
    {
      "channel": 0,
      "note": 45,
      "start": 28.3052,
      "duration": 0.1158,
      "velocity": 114,
      "chip": "ym2612"
    },
    {
      "channel": 2,
      "note": 81,
      "start": 28.3055,
      "duration": 0.1158,
      "velocity": 87,
      "chip": "ym2612"
    },
    {
      "channel": 0,
      "note": 45,
      "start": 28.4212,
      "duration": 0.0025,
      "velocity": 114,
      "chip": "ym2612"
    },
    {
      "channel": 2,
      "note": 64,
      "start": 28.4215,
      "duration": 0.0025,
      "velocity": 87,
      "chip": "ym2612"
    },
    {
      "channel": 0,
      "note": 43,
      "start": 28.424,
      "duration": 0.116,
      "velocity": 114,
      "chip": "ym2612"
    },
    {
      "channel": 2,
      "note": 76,
      "start": 28.4242,
      "duration": 0.1161,
      "velocity": 87,
      "chip": "ym2612"
    },
    {
      "channel": 0,
      "note": 43,
      "start": 28.5402,
      "duration": 0.0027,
      "velocity": 114,
      "chip": "ym2612"
    },
    {
      "channel": 2,
      "note": 62,
      "start": 28.5406,
      "duration": 0.0026,
      "velocity": 87,
      "chip": "ym2612"
    },
    {
      "channel": 0,
      "note": 43,
      "start": 28.5431,
      "duration": 0.1161,
      "velocity": 114,
      "chip": "ym2612"
    },
    {
      "channel": 2,
      "note": 74,
      "start": 28.5433,
      "duration": 0.1162,
      "velocity": 87,
      "chip": "ym2612"
    },
    {
      "channel": 0,
      "note": 43,
      "start": 28.6595,
      "duration": 0.0026,
      "velocity": 114,
      "chip": "ym2612"
    },
    {
      "channel": 2,
      "note": 64,
      "start": 28.6597,
      "duration": 0.0025,
      "velocity": 87,
      "chip": "ym2612"
    },
    {
      "channel": 0,
      "note": 43,
      "start": 28.6622,
      "duration": 0.1159,
      "velocity": 114,
      "chip": "ym2612"
    },
    {
      "channel": 2,
      "note": 76,
      "start": 28.6624,
      "duration": 0.1161,
      "velocity": 87,
      "chip": "ym2612"
    },
    {
      "channel": 0,
      "note": 50,
      "start": 28.7783,
      "duration": 0.0031,
      "velocity": 114,
      "chip": "ym2612"
    },
    {
      "channel": 2,
      "note": 69,
      "start": 28.7788,
      "duration": 0.003,
      "velocity": 87,
      "chip": "ym2612"
    },
    {
      "channel": 0,
      "note": 50,
      "start": 28.7817,
      "duration": 0.1154,
      "velocity": 114,
      "chip": "ym2612"
    },
    {
      "channel": 2,
      "note": 81,
      "start": 28.7819,
      "duration": 0.1155,
      "velocity": 87,
      "chip": "ym2612"
    },
    {
      "channel": 0,
      "note": 50,
      "start": 28.8973,
      "duration": 0.0026,
      "velocity": 114,
      "chip": "ym2612"
    },
    {
      "channel": 2,
      "note": 64,
      "start": 28.8976,
      "duration": 0.0026,
      "velocity": 87,
      "chip": "ym2612"
    },
    {
      "channel": 0,
      "note": 48,
      "start": 28.9002,
      "duration": 0.1159,
      "velocity": 114,
      "chip": "ym2612"
    },
    {
      "channel": 2,
      "note": 76,
      "start": 28.9004,
      "duration": 0.116,
      "velocity": 87,
      "chip": "ym2612"
    },
    {
      "channel": 0,
      "note": 48,
      "start": 29.0163,
      "duration": 0.0025,
      "velocity": 114,
      "chip": "ym2612"
    },
    {
      "channel": 2,
      "note": 62,
      "start": 29.0166,
      "duration": 0.0025,
      "velocity": 87,
      "chip": "ym2612"
    },
    {
      "channel": 0,
      "note": 48,
      "start": 29.019,
      "duration": 0.1161,
      "velocity": 114,
      "chip": "ym2612"
    },
    {
      "channel": 2,
      "note": 74,
      "start": 29.0193,
      "duration": 0.1162,
      "velocity": 87,
      "chip": "ym2612"
    },
    {
      "channel": 0,
      "note": 48,
      "start": 29.1354,
      "duration": 0.0027,
      "velocity": 114,
      "chip": "ym2612"
    },
    {
      "channel": 2,
      "note": 64,
      "start": 29.1357,
      "duration": 0.0025,
      "velocity": 87,
      "chip": "ym2612"
    },
    {
      "channel": 0,
      "note": 43,
      "start": 29.1381,
      "duration": 0.1159,
      "velocity": 114,
      "chip": "ym2612"
    },
    {
      "channel": 2,
      "note": 76,
      "start": 29.1384,
      "duration": 0.1162,
      "velocity": 87,
      "chip": "ym2612"
    },
    {
      "channel": 0,
      "note": 45,
      "start": 29.2542,
      "duration": 0.0036,
      "velocity": 114,
      "chip": "ym2612"
    },
    {
      "channel": 1,
      "note": 57,
      "start": 29.2545,
      "duration": 0.4766,
      "velocity": 108,
      "chip": "ym2612"
    },
    {
      "channel": 2,
      "note": 69,
      "start": 29.2548,
      "duration": 0.0032,
      "velocity": 87,
      "chip": "ym2612"
    },
    {
      "channel": 3,
      "note": 50,
      "start": 29.2551,
      "duration": 0.4765,
      "velocity": 108,
      "chip": "ym2612"
    },
    {
      "channel": 4,
      "note": 57,
      "start": 29.2554,
      "duration": 0.4766,
      "velocity": 108,
      "chip": "ym2612"
    },
    {
      "channel": 0,
      "note": 45,
      "start": 29.258,
      "duration": 0.1154,
      "velocity": 114,
      "chip": "ym2612"
    },
    {
      "channel": 2,
      "note": 81,
      "start": 29.2583,
      "duration": 0.1154,
      "velocity": 87,
      "chip": "ym2612"
    },
    {
      "channel": 0,
      "note": 45,
      "start": 29.3736,
      "duration": 0.0027,
      "velocity": 114,
      "chip": "ym2612"
    },
    {
      "channel": 2,
      "note": 64,
      "start": 29.3739,
      "duration": 0.0027,
      "velocity": 87,
      "chip": "ym2612"
    },
    {
      "channel": 0,
      "note": 48,
      "start": 29.3765,
      "duration": 0.1161,
      "velocity": 114,
      "chip": "ym2612"
    },
    {
      "channel": 2,
      "note": 76,
      "start": 29.3768,
      "duration": 0.1162,
      "velocity": 87,
      "chip": "ym2612"
    },
    {
      "channel": 0,
      "note": 48,
      "start": 29.4929,
      "duration": 0.0026,
      "velocity": 114,
      "chip": "ym2612"
    },
    {
      "channel": 2,
      "note": 62,
      "start": 29.4932,
      "duration": 0.0024,
      "velocity": 87,
      "chip": "ym2612"
    },
    {
      "channel": 0,
      "note": 48,
      "start": 29.4955,
      "duration": 0.1163,
      "velocity": 114,
      "chip": "ym2612"
    },
    {
      "channel": 2,
      "note": 74,
      "start": 29.4958,
      "duration": 0.1163,
      "velocity": 87,
      "chip": "ym2612"
    },
    {
      "channel": 0,
      "note": 48,
      "start": 29.6121,
      "duration": 0.0025,
      "velocity": 114,
      "chip": "ym2612"
    },
    {
      "channel": 2,
      "note": 64,
      "start": 29.6123,
      "duration": 0.0025,
      "velocity": 87,
      "chip": "ym2612"
    },
    {
      "channel": 0,
      "note": 43,
      "start": 29.6148,
      "duration": 0.1161,
      "velocity": 114,
      "chip": "ym2612"
    },
    {
      "channel": 2,
      "note": 76,
      "start": 29.615,
      "duration": 0.1164,
      "velocity": 87,
      "chip": "ym2612"
    },
    {
      "channel": 0,
      "note": 45,
      "start": 29.731,
      "duration": 0.0036,
      "velocity": 114,
      "chip": "ym2612"
    },
    {
      "channel": 1,
      "note": 62,
      "start": 29.7313,
      "duration": 0.4761,
      "velocity": 108,
      "chip": "ym2612"
    },
    {
      "channel": 2,
      "note": 69,
      "start": 29.7316,
      "duration": 0.0032,
      "velocity": 87,
      "chip": "ym2612"
    },
    {
      "channel": 3,
      "note": 55,
      "start": 29.7319,
      "duration": 0.4761,
      "velocity": 108,
      "chip": "ym2612"
    },
    {
      "channel": 4,
      "note": 62,
      "start": 29.7322,
      "duration": 0.4761,
      "velocity": 108,
      "chip": "ym2612"
    },
    {
      "channel": 0,
      "note": 45,
      "start": 29.7348,
      "duration": 0.1153,
      "velocity": 114,
      "chip": "ym2612"
    },
    {
      "channel": 2,
      "note": 81,
      "start": 29.7351,
      "duration": 0.1153,
      "velocity": 87,
      "chip": "ym2612"
    },
    {
      "channel": 0,
      "note": 45,
      "start": 29.8503,
      "duration": 0.0026,
      "velocity": 114,
      "chip": "ym2612"
    },
    {
      "channel": 2,
      "note": 64,
      "start": 29.8506,
      "duration": 0.0026,
      "velocity": 87,
      "chip": "ym2612"
    },
    {
      "channel": 0,
      "note": 50,
      "start": 29.8532,
      "duration": 0.116,
      "velocity": 114,
      "chip": "ym2612"
    },
    {
      "channel": 2,
      "note": 76,
      "start": 29.8534,
      "duration": 0.1161,
      "velocity": 87,
      "chip": "ym2612"
    },
    {
      "channel": 0,
      "note": 50,
      "start": 29.9694,
      "duration": 0.0025,
      "velocity": 114,
      "chip": "ym2612"
    },
    {
      "channel": 2,
      "note": 62,
      "start": 29.9697,
      "duration": 0.0025,
      "velocity": 87,
      "chip": "ym2612"
    },
    {
      "channel": 0,
      "note": 50,
      "start": 29.9722,
      "duration": 0.1161,
      "velocity": 114,
      "chip": "ym2612"
    },
    {
      "channel": 2,
      "note": 74,
      "start": 29.9724,
      "duration": 0.1162,
      "velocity": 87,
      "chip": "ym2612"
    },
    {
      "channel": 0,
      "note": 50,
      "start": 30.0885,
      "duration": 0.0026,
      "velocity": 114,
      "chip": "ym2612"
    },
    {
      "channel": 2,
      "note": 64,
      "start": 30.0888,
      "duration": 0.0026,
      "velocity": 87,
      "chip": "ym2612"
    },
    {
      "channel": 0,
      "note": 43,
      "start": 30.0914,
      "duration": 0.1158,
      "velocity": 114,
      "chip": "ym2612"
    },
    {
      "channel": 2,
      "note": 76,
      "start": 30.0916,
      "duration": 0.1161,
      "velocity": 87,
      "chip": "ym2612"
    },
    {
      "channel": 0,
      "note": 45,
      "start": 30.2073,
      "duration": 0.0036,
      "velocity": 114,
      "chip": "ym2612"
    },
    {
      "channel": 1,
      "note": 60,
      "start": 30.2076,
      "duration": 0.4765,
      "velocity": 108,
      "chip": "ym2612"
    },
    {
      "channel": 2,
      "note": 69,
      "start": 30.2079,
      "duration": 0.0032,
      "velocity": 87,
      "chip": "ym2612"
    },
    {
      "channel": 3,
      "note": 53,
      "start": 30.2083,
      "duration": 0.4764,
      "velocity": 108,
      "chip": "ym2612"
    },
    {
      "channel": 4,
      "note": 60,
      "start": 30.2085,
      "duration": 0.4765,
      "velocity": 108,
      "chip": "ym2612"
    },
    {
      "channel": 0,
      "note": 45,
      "start": 30.2111,
      "duration": 0.1152,
      "velocity": 114,
      "chip": "ym2612"
    },
    {
      "channel": 2,
      "note": 81,
      "start": 30.2112,
      "duration": 0.1154,
      "velocity": 87,
      "chip": "ym2612"
    },
    {
      "channel": 0,
      "note": 45,
      "start": 30.3265,
      "duration": 0.0027,
      "velocity": 114,
      "chip": "ym2612"
    },
    {
      "channel": 2,
      "note": 64,
      "start": 30.3268,
      "duration": 0.0026,
      "velocity": 87,
      "chip": "ym2612"
    },
    {
      "channel": 0,
      "note": 43,
      "start": 30.3294,
      "duration": 0.1161,
      "velocity": 114,
      "chip": "ym2612"
    },
    {
      "channel": 2,
      "note": 76,
      "start": 30.3296,
      "duration": 0.1162,
      "velocity": 87,
      "chip": "ym2612"
    },
    {
      "channel": 0,
      "note": 43,
      "start": 30.4458,
      "duration": 0.0027,
      "velocity": 114,
      "chip": "ym2612"
    },
    {
      "channel": 2,
      "note": 62,
      "start": 30.4461,
      "duration": 0.0025,
      "velocity": 87,
      "chip": "ym2612"
    },
    {
      "channel": 0,
      "note": 43,
      "start": 30.4485,
      "duration": 0.1162,
      "velocity": 114,
      "chip": "ym2612"
    },
    {
      "channel": 2,
      "note": 74,
      "start": 30.4487,
      "duration": 0.1163,
      "velocity": 87,
      "chip": "ym2612"
    },
    {
      "channel": 0,
      "note": 43,
      "start": 30.565,
      "duration": 0.0027,
      "velocity": 114,
      "chip": "ym2612"
    },
    {
      "channel": 2,
      "note": 64,
      "start": 30.5653,
      "duration": 0.0025,
      "velocity": 87,
      "chip": "ym2612"
    },
    {
      "channel": 0,
      "note": 43,
      "start": 30.5678,
      "duration": 0.1161,
      "velocity": 114,
      "chip": "ym2612"
    },
    {
      "channel": 2,
      "note": 76,
      "start": 30.568,
      "duration": 0.1164,
      "velocity": 87,
      "chip": "ym2612"
    },
    {
      "channel": 0,
      "note": 50,
      "start": 30.684,
      "duration": 0.0037,
      "velocity": 114,
      "chip": "ym2612"
    },
    {
      "channel": 1,
      "note": 57,
      "start": 30.6843,
      "duration": 0.4766,
      "velocity": 108,
      "chip": "ym2612"
    },
    {
      "channel": 2,
      "note": 69,
      "start": 30.6846,
      "duration": 0.0033,
      "velocity": 87,
      "chip": "ym2612"
    },
    {
      "channel": 3,
      "note": 50,
      "start": 30.6849,
      "duration": 0.4765,
      "velocity": 108,
      "chip": "ym2612"
    },
    {
      "channel": 4,
      "note": 57,
      "start": 30.6852,
      "duration": 0.4766,
      "velocity": 108,
      "chip": "ym2612"
    },
    {
      "channel": 0,
      "note": 50,
      "start": 30.6879,
      "duration": 0.1153,
      "velocity": 114,
      "chip": "ym2612"
    },
    {
      "channel": 2,
      "note": 81,
      "start": 30.6881,
      "duration": 0.1154,
      "velocity": 87,
      "chip": "ym2612"
    },
    {
      "channel": 0,
      "note": 50,
      "start": 30.8034,
      "duration": 0.0027,
      "velocity": 114,
      "chip": "ym2612"
    },
    {
      "channel": 2,
      "note": 64,
      "start": 30.8037,
      "duration": 0.0026,
      "velocity": 87,
      "chip": "ym2612"
    },
    {
      "channel": 0,
      "note": 48,
      "start": 30.8062,
      "duration": 0.1162,
      "velocity": 114,
      "chip": "ym2612"
    },
    {
      "channel": 2,
      "note": 76,
      "start": 30.8066,
      "duration": 0.1161,
      "velocity": 87,
      "chip": "ym2612"
    },
    {
      "channel": 0,
      "note": 48,
      "start": 30.9226,
      "duration": 0.0027,
      "velocity": 114,
      "chip": "ym2612"
    },
    {
      "channel": 2,
      "note": 62,
      "start": 30.9229,
      "duration": 0.0026,
      "velocity": 87,
      "chip": "ym2612"
    },
    {
      "channel": 0,
      "note": 48,
      "start": 30.9255,
      "duration": 0.1161,
      "velocity": 114,
      "chip": "ym2612"
    },
    {
      "channel": 2,
      "note": 74,
      "start": 30.9257,
      "duration": 0.1162,
      "velocity": 87,
      "chip": "ym2612"
    },
    {
      "channel": 0,
      "note": 48,
      "start": 31.0418,
      "duration": 0.0025,
      "velocity": 114,
      "chip": "ym2612"
    },
    {
      "channel": 2,
      "note": 64,
      "start": 31.0422,
      "duration": 0.0025,
      "velocity": 87,
      "chip": "ym2612"
    },
    {
      "channel": 0,
      "note": 43,
      "start": 31.0446,
      "duration": 0.1161,
      "velocity": 114,
      "chip": "ym2612"
    },
    {
      "channel": 2,
      "note": 76,
      "start": 31.0448,
      "duration": 0.1164,
      "velocity": 87,
      "chip": "ym2612"
    },
    {
      "channel": 0,
      "note": 45,
      "start": 31.1608,
      "duration": 0.0037,
      "velocity": 114,
      "chip": "ym2612"
    },
    {
      "channel": 1,
      "note": 62,
      "start": 31.1611,
      "duration": 0.4761,
      "velocity": 108,
      "chip": "ym2612"
    },
    {
      "channel": 2,
      "note": 69,
      "start": 31.1614,
      "duration": 0.0033,
      "velocity": 87,
      "chip": "ym2612"
    },
    {
      "channel": 3,
      "note": 55,
      "start": 31.1617,
      "duration": 0.4761,
      "velocity": 108,
      "chip": "ym2612"
    },
    {
      "channel": 4,
      "note": 62,
      "start": 31.162,
      "duration": 0.4761,
      "velocity": 108,
      "chip": "ym2612"
    },
    {
      "channel": 0,
      "note": 45,
      "start": 31.1647,
      "duration": 0.1151,
      "velocity": 114,
      "chip": "ym2612"
    },
    {
      "channel": 2,
      "note": 81,
      "start": 31.1649,
      "duration": 0.1152,
      "velocity": 87,
      "chip": "ym2612"
    },
    {
      "channel": 0,
      "note": 45,
      "start": 31.28,
      "duration": 0.0027,
      "velocity": 114,
      "chip": "ym2612"
    },
    {
      "channel": 2,
      "note": 64,
      "start": 31.2803,
      "duration": 0.0025,
      "velocity": 87,
      "chip": "ym2612"
    },
    {
      "channel": 0,
      "note": 50,
      "start": 31.2828,
      "duration": 0.1161,
      "velocity": 114,
      "chip": "ym2612"
    },
    {
      "channel": 2,
      "note": 76,
      "start": 31.2831,
      "duration": 0.1162,
      "velocity": 87,
      "chip": "ym2612"
    },
    {
      "channel": 0,
      "note": 50,
      "start": 31.3992,
      "duration": 0.0027,
      "velocity": 114,
      "chip": "ym2612"
    },
    {
      "channel": 2,
      "note": 62,
      "start": 31.3995,
      "duration": 0.0027,
      "velocity": 87,
      "chip": "ym2612"
    },
    {
      "channel": 0,
      "note": 50,
      "start": 31.4021,
      "duration": 0.116,
      "velocity": 114,
      "chip": "ym2612"
    },
    {
      "channel": 2,
      "note": 74,
      "start": 31.4024,
      "duration": 0.1161,
      "velocity": 87,
      "chip": "ym2612"
    },
    {
      "channel": 0,
      "note": 50,
      "start": 31.5183,
      "duration": 0.0026,
      "velocity": 114,
      "chip": "ym2612"
    },
    {
      "channel": 2,
      "note": 64,
      "start": 31.5186,
      "duration": 0.0026,
      "velocity": 87,
      "chip": "ym2612"
    },
    {
      "channel": 0,
      "note": 43,
      "start": 31.5212,
      "duration": 0.1158,
      "velocity": 114,
      "chip": "ym2612"
    },
    {
      "channel": 2,
      "note": 76,
      "start": 31.5214,
      "duration": 0.1161,
      "velocity": 87,
      "chip": "ym2612"
    },
    {
      "channel": 0,
      "note": 45,
      "start": 31.6371,
      "duration": 0.0037,
      "velocity": 114,
      "chip": "ym2612"
    },
    {
      "channel": 1,
      "note": 60,
      "start": 31.6374,
      "duration": 0.4766,
      "velocity": 108,
      "chip": "ym2612"
    },
    {
      "channel": 2,
      "note": 69,
      "start": 31.6377,
      "duration": 0.0033,
      "velocity": 87,
      "chip": "ym2612"
    },
    {
      "channel": 3,
      "note": 53,
      "start": 31.638,
      "duration": 0.4765,
      "velocity": 108,
      "chip": "ym2612"
    },
    {
      "channel": 4,
      "note": 60,
      "start": 31.6383,
      "duration": 0.4766,
      "velocity": 108,
      "chip": "ym2612"
    },
    {
      "channel": 0,
      "note": 45,
      "start": 31.641,
      "duration": 0.1153,
      "velocity": 114,
      "chip": "ym2612"
    },
    {
      "channel": 2,
      "note": 81,
      "start": 31.6412,
      "duration": 0.1154,
      "velocity": 87,
      "chip": "ym2612"
    },
    {
      "channel": 0,
      "note": 45,
      "start": 31.7565,
      "duration": 0.0027,
      "velocity": 114,
      "chip": "ym2612"
    },
    {
      "channel": 2,
      "note": 64,
      "start": 31.7568,
      "duration": 0.0026,
      "velocity": 87,
      "chip": "ym2612"
    },
    {
      "channel": 0,
      "note": 43,
      "start": 31.7593,
      "duration": 0.1162,
      "velocity": 114,
      "chip": "ym2612"
    },
    {
      "channel": 2,
      "note": 76,
      "start": 31.7597,
      "duration": 0.1161,
      "velocity": 87,
      "chip": "ym2612"
    },
    {
      "channel": 0,
      "note": 43,
      "start": 31.8757,
      "duration": 0.0027,
      "velocity": 114,
      "chip": "ym2612"
    },
    {
      "channel": 2,
      "note": 62,
      "start": 31.8761,
      "duration": 0.0026,
      "velocity": 87,
      "chip": "ym2612"
    },
    {
      "channel": 0,
      "note": 43,
      "start": 31.8786,
      "duration": 0.1161,
      "velocity": 114,
      "chip": "ym2612"
    },
    {
      "channel": 2,
      "note": 74,
      "start": 31.8788,
      "duration": 0.1162,
      "velocity": 87,
      "chip": "ym2612"
    },
    {
      "channel": 0,
      "note": 43,
      "start": 31.9949,
      "duration": 0.0025,
      "velocity": 114,
      "chip": "ym2612"
    },
    {
      "channel": 2,
      "note": 64,
      "start": 31.9953,
      "duration": 0.0025,
      "velocity": 87,
      "chip": "ym2612"
    },
    {
      "channel": 0,
      "note": 43,
      "start": 31.9977,
      "duration": 0.1161,
      "velocity": 114,
      "chip": "ym2612"
    },
    {
      "channel": 2,
      "note": 76,
      "start": 31.9979,
      "duration": 0.1164,
      "velocity": 87,
      "chip": "ym2612"
    },
    {
      "channel": 0,
      "note": 50,
      "start": 32.1139,
      "duration": 0.0037,
      "velocity": 114,
      "chip": "ym2612"
    },
    {
      "channel": 1,
      "note": 62,
      "start": 32.1142,
      "duration": 0.4761,
      "velocity": 108,
      "chip": "ym2612"
    },
    {
      "channel": 2,
      "note": 69,
      "start": 32.1145,
      "duration": 0.0033,
      "velocity": 87,
      "chip": "ym2612"
    },
    {
      "channel": 3,
      "note": 55,
      "start": 32.1148,
      "duration": 0.4761,
      "velocity": 108,
      "chip": "ym2612"
    },
    {
      "channel": 4,
      "note": 62,
      "start": 32.1151,
      "duration": 0.4761,
      "velocity": 108,
      "chip": "ym2612"
    },
    {
      "channel": 0,
      "note": 50,
      "start": 32.1178,
      "duration": 0.1151,
      "velocity": 114,
      "chip": "ym2612"
    },
    {
      "channel": 2,
      "note": 81,
      "start": 32.118,
      "duration": 0.1152,
      "velocity": 87,
      "chip": "ym2612"
    },
    {
      "channel": 0,
      "note": 50,
      "start": 32.2331,
      "duration": 0.0027,
      "velocity": 114,
      "chip": "ym2612"
    },
    {
      "channel": 2,
      "note": 64,
      "start": 32.2334,
      "duration": 0.0025,
      "velocity": 87,
      "chip": "ym2612"
    },
    {
      "channel": 0,
      "note": 48,
      "start": 32.2359,
      "duration": 0.1161,
      "velocity": 114,
      "chip": "ym2612"
    },
    {
      "channel": 2,
      "note": 76,
      "start": 32.2362,
      "duration": 0.1162,
      "velocity": 87,
      "chip": "ym2612"
    },
    {
      "channel": 0,
      "note": 48,
      "start": 32.3523,
      "duration": 0.0027,
      "velocity": 114,
      "chip": "ym2612"
    },
    {
      "channel": 2,
      "note": 62,
      "start": 32.3526,
      "duration": 0.0027,
      "velocity": 87,
      "chip": "ym2612"
    },
    {
      "channel": 0,
      "note": 48,
      "start": 32.3552,
      "duration": 0.116,
      "velocity": 114,
      "chip": "ym2612"
    },
    {
      "channel": 2,
      "note": 74,
      "start": 32.3555,
      "duration": 0.1161,
      "velocity": 87,
      "chip": "ym2612"
    },
    {
      "channel": 0,
      "note": 48,
      "start": 32.4715,
      "duration": 0.0026,
      "velocity": 114,
      "chip": "ym2612"
    },
    {
      "channel": 2,
      "note": 64,
      "start": 32.4717,
      "duration": 0.0026,
      "velocity": 87,
      "chip": "ym2612"
    },
    {
      "channel": 0,
      "note": 43,
      "start": 32.4743,
      "duration": 0.1158,
      "velocity": 114,
      "chip": "ym2612"
    },
    {
      "channel": 2,
      "note": 76,
      "start": 32.4745,
      "duration": 0.1161,
      "velocity": 87,
      "chip": "ym2612"
    },
    {
      "channel": 0,
      "note": 45,
      "start": 32.5902,
      "duration": 0.0037,
      "velocity": 114,
      "chip": "ym2612"
    },
    {
      "channel": 1,
      "note": 57,
      "start": 32.5905,
      "duration": 0.4766,
      "velocity": 108,
      "chip": "ym2612"
    },
    {
      "channel": 2,
      "note": 69,
      "start": 32.5908,
      "duration": 0.0033,
      "velocity": 87,
      "chip": "ym2612"
    },
    {
      "channel": 3,
      "note": 52,
      "start": 32.5912,
      "duration": 0.4766,
      "velocity": 108,
      "chip": "ym2612"
    },
    {
      "channel": 4,
      "note": 57,
      "start": 32.5914,
      "duration": 0.4766,
      "velocity": 108,
      "chip": "ym2612"
    },
    {
      "channel": 0,
      "note": 45,
      "start": 32.5941,
      "duration": 0.1153,
      "velocity": 114,
      "chip": "ym2612"
    },
    {
      "channel": 2,
      "note": 81,
      "start": 32.5943,
      "duration": 0.1154,
      "velocity": 87,
      "chip": "ym2612"
    },
    {
      "channel": 0,
      "note": 45,
      "start": 32.7096,
      "duration": 0.0027,
      "velocity": 114,
      "chip": "ym2612"
    },
    {
      "channel": 2,
      "note": 64,
      "start": 32.71,
      "duration": 0.0026,
      "velocity": 87,
      "chip": "ym2612"
    },
    {
      "channel": 0,
      "note": 45,
      "start": 32.7124,
      "duration": 0.1162,
      "velocity": 114,
      "chip": "ym2612"
    },
    {
      "channel": 2,
      "note": 76,
      "start": 32.7128,
      "duration": 0.1161,
      "velocity": 87,
      "chip": "ym2612"
    },
    {
      "channel": 0,
      "note": 45,
      "start": 32.8288,
      "duration": 0.0027,
      "velocity": 114,
      "chip": "ym2612"
    },
    {
      "channel": 2,
      "note": 62,
      "start": 32.8292,
      "duration": 0.0026,
      "velocity": 87,
      "chip": "ym2612"
    },
    {
      "channel": 0,
      "note": 45,
      "start": 32.8317,
      "duration": 0.1161,
      "velocity": 114,
      "chip": "ym2612"
    },
    {
      "channel": 2,
      "note": 74,
      "start": 32.832,
      "duration": 0.1162,
      "velocity": 87,
      "chip": "ym2612"
    },
    {
      "channel": 0,
      "note": 45,
      "start": 32.948,
      "duration": 0.0025,
      "velocity": 114,
      "chip": "ym2612"
    },
    {
      "channel": 2,
      "note": 64,
      "start": 32.9484,
      "duration": 0.0025,
      "velocity": 87,
      "chip": "ym2612"
    },
    {
      "channel": 0,
      "note": 45,
      "start": 32.9508,
      "duration": 0.1161,
      "velocity": 114,
      "chip": "ym2612"
    },
    {
      "channel": 2,
      "note": 76,
      "start": 32.951,
      "duration": 0.1164,
      "velocity": 87,
      "chip": "ym2612"
    },
    {
      "channel": 0,
      "note": 43,
      "start": 33.067,
      "duration": 0.0034,
      "velocity": 114,
      "chip": "ym2612"
    },
    {
      "channel": 1,
      "note": 57,
      "start": 33.0673,
      "duration": 0.3574,
      "velocity": 108,
      "chip": "ym2612"
    },
    {
      "channel": 2,
      "note": 69,
      "start": 33.0677,
      "duration": 0.003,
      "velocity": 87,
      "chip": "ym2612"
    },
    {
      "channel": 3,
      "note": 50,
      "start": 33.0679,
      "duration": 0.4765,
      "velocity": 108,
      "chip": "ym2612"
    },
    {
      "channel": 4,
      "note": 57,
      "start": 33.0683,
      "duration": 0.3571,
      "velocity": 108,
      "chip": "ym2612"
    },
    {
      "channel": 0,
      "note": 43,
      "start": 33.0706,
      "duration": 0.1154,
      "velocity": 114,
      "chip": "ym2612"
    },
    {
      "channel": 2,
      "note": 81,
      "start": 33.0709,
      "duration": 0.1154,
      "velocity": 87,
      "chip": "ym2612"
    },
    {
      "channel": 0,
      "note": 43,
      "start": 33.1862,
      "duration": 0.0026,
      "velocity": 114,
      "chip": "ym2612"
    },
    {
      "channel": 2,
      "note": 64,
      "start": 33.1866,
      "duration": 0.0025,
      "velocity": 87,
      "chip": "ym2612"
    },
    {
      "channel": 0,
      "note": 43,
      "start": 33.189,
      "duration": 0.1162,
      "velocity": 114,
      "chip": "ym2612"
    },
    {
      "channel": 2,
      "note": 76,
      "start": 33.1892,
      "duration": 0.1163,
      "velocity": 87,
      "chip": "ym2612"
    },
    {
      "channel": 0,
      "note": 43,
      "start": 33.3054,
      "duration": 0.0027,
      "velocity": 114,
      "chip": "ym2612"
    },
    {
      "channel": 2,
      "note": 62,
      "start": 33.3057,
      "duration": 0.0025,
      "velocity": 87,
      "chip": "ym2612"
    },
    {
      "channel": 0,
      "note": 43,
      "start": 33.3082,
      "duration": 0.1162,
      "velocity": 114,
      "chip": "ym2612"
    },
    {
      "channel": 2,
      "note": 74,
      "start": 33.3084,
      "duration": 0.1166,
      "velocity": 87,
      "chip": "ym2612"
    },
    {
      "channel": 0,
      "note": 43,
      "start": 33.4247,
      "duration": 0.0032,
      "velocity": 114,
      "chip": "ym2612"
    },
    {
      "channel": 1,
      "note": 55,
      "start": 33.4249,
      "duration": 0.1188,
      "velocity": 108,
      "chip": "ym2612"
    },
    {
      "channel": 2,
      "note": 64,
      "start": 33.4252,
      "duration": 0.0028,
      "velocity": 87,
      "chip": "ym2612"
    },
    {
      "channel": 4,
      "note": 55,
      "start": 33.4256,
      "duration": 0.1191,
      "velocity": 108,
      "chip": "ym2612"
    },
    {
      "channel": 0,
      "note": 43,
      "start": 33.428,
      "duration": 0.1156,
      "velocity": 114,
      "chip": "ym2612"
    },
    {
      "channel": 2,
      "note": 76,
      "start": 33.4282,
      "duration": 0.1159,
      "velocity": 87,
      "chip": "ym2612"
    },
    {
      "channel": 0,
      "note": 47,
      "start": 33.5437,
      "duration": 0.0035,
      "velocity": 114,
      "chip": "ym2612"
    },
    {
      "channel": 1,
      "note": 59,
      "start": 33.544,
      "duration": 0.1219,
      "velocity": 108,
      "chip": "ym2612"
    },
    {
      "channel": 2,
      "note": 69,
      "start": 33.5443,
      "duration": 0.0031,
      "velocity": 87,
      "chip": "ym2612"
    },
    {
      "channel": 3,
      "note": 55,
      "start": 33.5446,
      "duration": 0.4766,
      "velocity": 108,
      "chip": "ym2612"
    },
    {
      "channel": 4,
      "note": 59,
      "start": 33.5449,
      "duration": 0.1214,
      "velocity": 108,
      "chip": "ym2612"
    },
    {
      "channel": 0,
      "note": 47,
      "start": 33.5474,
      "duration": 0.1154,
      "velocity": 114,
      "chip": "ym2612"
    },
    {
      "channel": 2,
      "note": 81,
      "start": 33.5477,
      "duration": 0.1154,
      "velocity": 87,
      "chip": "ym2612"
    },
    {
      "channel": 0,
      "note": 47,
      "start": 33.663,
      "duration": 0.0026,
      "velocity": 114,
      "chip": "ym2612"
    },
    {
      "channel": 2,
      "note": 64,
      "start": 33.6633,
      "duration": 0.0028,
      "velocity": 87,
      "chip": "ym2612"
    },
    {
      "channel": 0,
      "note": 47,
      "start": 33.6658,
      "duration": 0.1163,
      "velocity": 114,
      "chip": "ym2612"
    },
    {
      "channel": 1,
      "note": 60,
      "start": 33.6661,
      "duration": 0.1164,
      "velocity": 108,
      "chip": "ym2612"
    },
    {
      "channel": 2,
      "note": 76,
      "start": 33.6662,
      "duration": 0.1165,
      "velocity": 87,
      "chip": "ym2612"
    },
    {
      "channel": 4,
      "note": 60,
      "start": 33.6665,
      "duration": 0.1166,
      "velocity": 108,
      "chip": "ym2612"
    },
    {
      "channel": 0,
      "note": 47,
      "start": 33.7824,
      "duration": 0.0032,
      "velocity": 114,
      "chip": "ym2612"
    },
    {
      "channel": 1,
      "note": 60,
      "start": 33.7827,
      "duration": 0.2379,
      "velocity": 108,
      "chip": "ym2612"
    },
    {
      "channel": 2,
      "note": 62,
      "start": 33.7829,
      "duration": 0.0029,
      "velocity": 87,
      "chip": "ym2612"
    },
    {
      "channel": 4,
      "note": 60,
      "start": 33.7833,
      "duration": 0.2381,
      "velocity": 108,
      "chip": "ym2612"
    },
    {
      "channel": 0,
      "note": 47,
      "start": 33.7858,
      "duration": 0.1157,
      "velocity": 114,
      "chip": "ym2612"
    },
    {
      "channel": 2,
      "note": 74,
      "start": 33.7861,
      "duration": 0.1157,
      "velocity": 87,
      "chip": "ym2612"
    },
    {
      "channel": 0,
      "note": 47,
      "start": 33.9017,
      "duration": 0.0026,
      "velocity": 114,
      "chip": "ym2612"
    },
    {
      "channel": 2,
      "note": 64,
      "start": 33.902,
      "duration": 0.0025,
      "velocity": 87,
      "chip": "ym2612"
    },
    {
      "channel": 0,
      "note": 43,
      "start": 33.9045,
      "duration": 0.1159,
      "velocity": 114,
      "chip": "ym2612"
    },
    {
      "channel": 2,
      "note": 76,
      "start": 33.9047,
      "duration": 0.1162,
      "velocity": 87,
      "chip": "ym2612"
    },
    {
      "channel": 0,
      "note": 48,
      "start": 34.0205,
      "duration": 0.0034,
      "velocity": 114,
      "chip": "ym2612"
    },
    {
      "channel": 1,
      "note": 60,
      "start": 34.0208,
      "duration": 0.1218,
      "velocity": 108,
      "chip": "ym2612"
    },
    {
      "channel": 2,
      "note": 69,
      "start": 34.0212,
      "duration": 0.003,
      "velocity": 87,
      "chip": "ym2612"
    },
    {
      "channel": 3,
      "note": 57,
      "start": 34.0214,
      "duration": 0.4766,
      "velocity": 108,
      "chip": "ym2612"
    },
    {
      "channel": 4,
      "note": 60,
      "start": 34.0217,
      "duration": 0.1213,
      "velocity": 108,
      "chip": "ym2612"
    },
    {
      "channel": 0,
      "note": 48,
      "start": 34.0241,
      "duration": 0.1153,
      "velocity": 114,
      "chip": "ym2612"
    },
    {
      "channel": 2,
      "note": 81,
      "start": 34.0244,
      "duration": 0.1153,
      "velocity": 87,
      "chip": "ym2612"
    },
    {
      "channel": 0,
      "note": 48,
      "start": 34.1396,
      "duration": 0.0027,
      "velocity": 114,
      "chip": "ym2612"
    },
    {
      "channel": 2,
      "note": 64,
      "start": 34.14,
      "duration": 0.0029,
      "velocity": 87,
      "chip": "ym2612"
    },
    {
      "channel": 0,
      "note": 48,
      "start": 34.1426,
      "duration": 0.1163,
      "velocity": 114,
      "chip": "ym2612"
    },
    {
      "channel": 1,
      "note": 62,
      "start": 34.1428,
      "duration": 0.1164,
      "velocity": 108,
      "chip": "ym2612"
    },
    {
      "channel": 2,
      "note": 76,
      "start": 34.143,
      "duration": 0.1165,
      "velocity": 87,
      "chip": "ym2612"
    },
    {
      "channel": 4,
      "note": 62,
      "start": 34.1432,
      "duration": 0.1165,
      "velocity": 108,
      "chip": "ym2612"
    },
    {
      "channel": 0,
      "note": 48,
      "start": 34.2591,
      "duration": 0.0032,
      "velocity": 114,
      "chip": "ym2612"
    },
    {
      "channel": 1,
      "note": 62,
      "start": 34.2594,
      "duration": 0.238,
      "velocity": 108,
      "chip": "ym2612"
    },
    {
      "channel": 2,
      "note": 62,
      "start": 34.2596,
      "duration": 0.0029,
      "velocity": 87,
      "chip": "ym2612"
    },
    {
      "channel": 4,
      "note": 62,
      "start": 34.26,
      "duration": 0.2382,
      "velocity": 108,
      "chip": "ym2612"
    },
    {
      "channel": 0,
      "note": 48,
      "start": 34.2624,
      "duration": 0.1157,
      "velocity": 114,
      "chip": "ym2612"
    },
    {
      "channel": 2,
      "note": 74,
      "start": 34.2627,
      "duration": 0.1157,
      "velocity": 87,
      "chip": "ym2612"
    },
    {
      "channel": 0,
      "note": 48,
      "start": 34.3783,
      "duration": 0.0027,
      "velocity": 114,
      "chip": "ym2612"
    },
    {
      "channel": 2,
      "note": 64,
      "start": 34.3787,
      "duration": 0.0026,
      "velocity": 87,
      "chip": "ym2612"
    },
    {
      "channel": 0,
      "note": 43,
      "start": 34.3812,
      "duration": 0.1159,
      "velocity": 114,
      "chip": "ym2612"
    },
    {
      "channel": 2,
      "note": 76,
      "start": 34.3815,
      "duration": 0.1162,
      "velocity": 87,
      "chip": "ym2612"
    },
    {
      "channel": 0,
      "note": 50,
      "start": 34.4973,
      "duration": 0.0035,
      "velocity": 114,
      "chip": "ym2612"
    },
    {
      "channel": 1,
      "note": 62,
      "start": 34.4976,
      "duration": 0.1219,
      "velocity": 108,
      "chip": "ym2612"
    },
    {
      "channel": 2,
      "note": 69,
      "start": 34.4979,
      "duration": 0.003,
      "velocity": 87,
      "chip": "ym2612"
    },
    {
      "channel": 3,
      "note": 59,
      "start": 34.4982,
      "duration": 0.4767,
      "velocity": 108,
      "chip": "ym2612"
    },
    {
      "channel": 4,
      "note": 62,
      "start": 34.4985,
      "duration": 0.1215,
      "velocity": 108,
      "chip": "ym2612"
    },
    {
      "channel": 0,
      "note": 50,
      "start": 34.5009,
      "duration": 0.1154,
      "velocity": 114,
      "chip": "ym2612"
    },
    {
      "channel": 2,
      "note": 81,
      "start": 34.5012,
      "duration": 0.1154,
      "velocity": 87,
      "chip": "ym2612"
    },
    {
      "channel": 0,
      "note": 50,
      "start": 34.6165,
      "duration": 0.0027,
      "velocity": 114,
      "chip": "ym2612"
    },
    {
      "channel": 2,
      "note": 64,
      "start": 34.6168,
      "duration": 0.0029,
      "velocity": 87,
      "chip": "ym2612"
    },
    {
      "channel": 0,
      "note": 43,
      "start": 34.6195,
      "duration": 0.1165,
      "velocity": 114,
      "chip": "ym2612"
    },
    {
      "channel": 1,
      "note": 64,
      "start": 34.6197,
      "duration": 0.1166,
      "velocity": 108,
      "chip": "ym2612"
    },
    {
      "channel": 2,
      "note": 76,
      "start": 34.6199,
      "duration": 0.1166,
      "velocity": 87,
      "chip": "ym2612"
    },
    {
      "channel": 4,
      "note": 64,
      "start": 34.62,
      "duration": 0.1168,
      "velocity": 108,
      "chip": "ym2612"
    },
    {
      "channel": 0,
      "note": 43,
      "start": 34.7362,
      "duration": 0.0031,
      "velocity": 114,
      "chip": "ym2612"
    },
    {
      "channel": 1,
      "note": 64,
      "start": 34.7365,
      "duration": 0.2378,
      "velocity": 108,
      "chip": "ym2612"
    },
    {
      "channel": 2,
      "note": 62,
      "start": 34.7367,
      "duration": 0.0028,
      "velocity": 87,
      "chip": "ym2612"
    },
    {
      "channel": 4,
      "note": 64,
      "start": 34.7371,
      "duration": 0.238,
      "velocity": 108,
      "chip": "ym2612"
    },
    {
      "channel": 0,
      "note": 43,
      "start": 34.7395,
      "duration": 0.1155,
      "velocity": 114,
      "chip": "ym2612"
    },
    {
      "channel": 2,
      "note": 74,
      "start": 34.7397,
      "duration": 0.1156,
      "velocity": 87,
      "chip": "ym2612"
    },
    {
      "channel": 0,
      "note": 43,
      "start": 34.8552,
      "duration": 0.0027,
      "velocity": 114,
      "chip": "ym2612"
    },
    {
      "channel": 2,
      "note": 64,
      "start": 34.8555,
      "duration": 0.0026,
      "velocity": 87,
      "chip": "ym2612"
    },
    {
      "channel": 0,
      "note": 43,
      "start": 34.858,
      "duration": 0.116,
      "velocity": 114,
      "chip": "ym2612"
    },
    {
      "channel": 2,
      "note": 76,
      "start": 34.8583,
      "duration": 0.1163,
      "velocity": 87,
      "chip": "ym2612"
    },
    {
      "channel": 0,
      "note": 45,
      "start": 34.9742,
      "duration": 0.0034,
      "velocity": 114,
      "chip": "ym2612"
    },
    {
      "channel": 1,
      "note": 69,
      "start": 34.9745,
      "duration": 0.4758,
      "velocity": 108,
      "chip": "ym2612"
    },
    {
      "channel": 2,
      "note": 69,
      "start": 34.9748,
      "duration": 0.0031,
      "velocity": 87,
      "chip": "ym2612"
    },
    {
      "channel": 3,
      "note": 64,
      "start": 34.9751,
      "duration": 0.4758,
      "velocity": 108,
      "chip": "ym2612"
    },
    {
      "channel": 4,
      "note": 69,
      "start": 34.9754,
      "duration": 0.4757,
      "velocity": 108,
      "chip": "ym2612"
    },
    {
      "channel": 0,
      "note": 45,
      "start": 34.9778,
      "duration": 0.115,
      "velocity": 114,
      "chip": "ym2612"
    },
    {
      "channel": 2,
      "note": 81,
      "start": 34.978,
      "duration": 0.1151,
      "velocity": 87,
      "chip": "ym2612"
    },
    {
      "channel": 0,
      "note": 45,
      "start": 35.0931,
      "duration": 0.0027,
      "velocity": 114,
      "chip": "ym2612"
    },
    {
      "channel": 2,
      "note": 64,
      "start": 35.0934,
      "duration": 0.0025,
      "velocity": 87,
      "chip": "ym2612"
    },
    {
      "channel": 0,
      "note": 48,
      "start": 35.0959,
      "duration": 0.1161,
      "velocity": 114,
      "chip": "ym2612"
    },
    {
      "channel": 2,
      "note": 76,
      "start": 35.0961,
      "duration": 0.1162,
      "velocity": 87,
      "chip": "ym2612"
    },
    {
      "channel": 0,
      "note": 48,
      "start": 35.2122,
      "duration": 0.0027,
      "velocity": 114,
      "chip": "ym2612"
    },
    {
      "channel": 2,
      "note": 62,
      "start": 35.2126,
      "duration": 0.0027,
      "velocity": 87,
      "chip": "ym2612"
    },
    {
      "channel": 0,
      "note": 48,
      "start": 35.2152,
      "duration": 0.116,
      "velocity": 114,
      "chip": "ym2612"
    },
    {
      "channel": 2,
      "note": 74,
      "start": 35.2154,
      "duration": 0.1161,
      "velocity": 87,
      "chip": "ym2612"
    },
    {
      "channel": 0,
      "note": 48,
      "start": 35.3314,
      "duration": 0.0026,
      "velocity": 114,
      "chip": "ym2612"
    },
    {
      "channel": 2,
      "note": 64,
      "start": 35.3317,
      "duration": 0.0026,
      "velocity": 87,
      "chip": "ym2612"
    },
    {
      "channel": 0,
      "note": 43,
      "start": 35.3342,
      "duration": 0.1158,
      "velocity": 114,
      "chip": "ym2612"
    },
    {
      "channel": 2,
      "note": 76,
      "start": 35.3344,
      "duration": 0.1161,
      "velocity": 87,
      "chip": "ym2612"
    },
    {
      "channel": 0,
      "note": 45,
      "start": 35.4502,
      "duration": 0.0035,
      "velocity": 114,
      "chip": "ym2612"
    },
    {
      "channel": 1,
      "note": 69,
      "start": 35.4505,
      "duration": 0.1219,
      "velocity": 108,
      "chip": "ym2612"
    },
    {
      "channel": 2,
      "note": 69,
      "start": 35.4508,
      "duration": 0.0031,
      "velocity": 87,
      "chip": "ym2612"
    },
    {
      "channel": 3,
      "note": 62,
      "start": 35.4511,
      "duration": 0.4766,
      "velocity": 108,
      "chip": "ym2612"
    },
    {
      "channel": 4,
      "note": 69,
      "start": 35.4514,
      "duration": 0.1214,
      "velocity": 108,
      "chip": "ym2612"
    },
    {
      "channel": 0,
      "note": 45,
      "start": 35.4539,
      "duration": 0.1154,
      "velocity": 114,
      "chip": "ym2612"
    },
    {
      "channel": 2,
      "note": 81,
      "start": 35.4542,
      "duration": 0.1154,
      "velocity": 87,
      "chip": "ym2612"
    },
    {
      "channel": 0,
      "note": 45,
      "start": 35.5695,
      "duration": 0.0026,
      "velocity": 114,
      "chip": "ym2612"
    },
    {
      "channel": 2,
      "note": 64,
      "start": 35.5698,
      "duration": 0.0028,
      "velocity": 87,
      "chip": "ym2612"
    },
    {
      "channel": 0,
      "note": 50,
      "start": 35.5723,
      "duration": 0.1163,
      "velocity": 114,
      "chip": "ym2612"
    },
    {
      "channel": 1,
      "note": 67,
      "start": 35.5726,
      "duration": 0.1164,
      "velocity": 108,
      "chip": "ym2612"
    },
    {
      "channel": 2,
      "note": 76,
      "start": 35.5727,
      "duration": 0.1165,
      "velocity": 87,
      "chip": "ym2612"
    },
    {
      "channel": 4,
      "note": 67,
      "start": 35.573,
      "duration": 0.1166,
      "velocity": 108,
      "chip": "ym2612"
    },
    {
      "channel": 0,
      "note": 50,
      "start": 35.6889,
      "duration": 0.0032,
      "velocity": 114,
      "chip": "ym2612"
    },
    {
      "channel": 1,
      "note": 67,
      "start": 35.6892,
      "duration": 0.2379,
      "velocity": 108,
      "chip": "ym2612"
    },
    {
      "channel": 2,
      "note": 62,
      "start": 35.6895,
      "duration": 0.0029,
      "velocity": 87,
      "chip": "ym2612"
    },
    {
      "channel": 4,
      "note": 67,
      "start": 35.6898,
      "duration": 0.2381,
      "velocity": 108,
      "chip": "ym2612"
    },
    {
      "channel": 0,
      "note": 50,
      "start": 35.6923,
      "duration": 0.1157,
      "velocity": 114,
      "chip": "ym2612"
    },
    {
      "channel": 2,
      "note": 74,
      "start": 35.6926,
      "duration": 0.1157,
      "velocity": 87,
      "chip": "ym2612"
    },
    {
      "channel": 0,
      "note": 50,
      "start": 35.8082,
      "duration": 0.0026,
      "velocity": 114,
      "chip": "ym2612"
    },
    {
      "channel": 2,
      "note": 64,
      "start": 35.8085,
      "duration": 0.0025,
      "velocity": 87,
      "chip": "ym2612"
    },
    {
      "channel": 0,
      "note": 43,
      "start": 35.811,
      "duration": 0.1159,
      "velocity": 114,
      "chip": "ym2612"
    },
    {
      "channel": 2,
      "note": 76,
      "start": 35.8112,
      "duration": 0.1162,
      "velocity": 87,
      "chip": "ym2612"
    },
    {
      "channel": 0,
      "note": 45,
      "start": 35.927,
      "duration": 0.0037,
      "velocity": 114,
      "chip": "ym2612"
    },
    {
      "channel": 1,
      "note": 67,
      "start": 35.9273,
      "duration": 0.1218,
      "velocity": 108,
      "chip": "ym2612"
    },
    {
      "channel": 2,
      "note": 69,
      "start": 35.9277,
      "duration": 0.0033,
      "velocity": 87,
      "chip": "ym2612"
    },
    {
      "channel": 3,
      "note": 59,
      "start": 35.9279,
      "duration": 0.1216,
      "velocity": 108,
      "chip": "ym2612"
    },
    {
      "channel": 4,
      "note": 67,
      "start": 35.9283,
      "duration": 0.1216,
      "velocity": 108,
      "chip": "ym2612"
    },
    {
      "channel": 0,
      "note": 45,
      "start": 35.9309,
      "duration": 0.115,
      "velocity": 114,
      "chip": "ym2612"
    },
    {
      "channel": 2,
      "note": 81,
      "start": 35.9312,
      "duration": 0.1151,
      "velocity": 87,
      "chip": "ym2612"
    },
    {
      "channel": 0,
      "note": 45,
      "start": 36.0462,
      "duration": 0.0026,
      "velocity": 114,
      "chip": "ym2612"
    },
    {
      "channel": 2,
      "note": 64,
      "start": 36.0465,
      "duration": 0.0029,
      "velocity": 87,
      "chip": "ym2612"
    },
    {
      "channel": 0,
      "note": 52,
      "start": 36.0491,
      "duration": 0.1166,
      "velocity": 114,
      "chip": "ym2612"
    },
    {
      "channel": 1,
      "note": 64,
      "start": 36.0493,
      "duration": 0.1167,
      "velocity": 108,
      "chip": "ym2612"
    },
    {
      "channel": 2,
      "note": 76,
      "start": 36.0495,
      "duration": 0.1167,
      "velocity": 87,
      "chip": "ym2612"
    },
    {
      "channel": 3,
      "note": 60,
      "start": 36.0498,
      "duration": 0.1167,
      "velocity": 108,
      "chip": "ym2612"
    },
    {
      "channel": 4,
      "note": 64,
      "start": 36.0501,
      "duration": 0.1167,
      "velocity": 108,
      "chip": "ym2612"
    },
    {
      "channel": 0,
      "note": 52,
      "start": 36.1659,
      "duration": 0.0032,
      "velocity": 114,
      "chip": "ym2612"
    },
    {
      "channel": 1,
      "note": 64,
      "start": 36.1662,
      "duration": 0.2376,
      "velocity": 108,
      "chip": "ym2612"
    },
    {
      "channel": 2,
      "note": 62,
      "start": 36.1664,
      "duration": 0.003,
      "velocity": 87,
      "chip": "ym2612"
    },
    {
      "channel": 3,
      "note": 60,
      "start": 36.1667,
      "duration": 0.2377,
      "velocity": 108,
      "chip": "ym2612"
    },
    {
      "channel": 4,
      "note": 64,
      "start": 36.1671,
      "duration": 0.2376,
      "velocity": 108,
      "chip": "ym2612"
    },
    {
      "channel": 0,
      "note": 52,
      "start": 36.1693,
      "duration": 0.1154,
      "velocity": 114,
      "chip": "ym2612"
    },
    {
      "channel": 2,
      "note": 74,
      "start": 36.1696,
      "duration": 0.1154,
      "velocity": 87,
      "chip": "ym2612"
    },
    {
      "channel": 0,
      "note": 52,
      "start": 36.2849,
      "duration": 0.0026,
      "velocity": 114,
      "chip": "ym2612"
    },
    {
      "channel": 2,
      "note": 64,
      "start": 36.2852,
      "duration": 0.0026,
      "velocity": 87,
      "chip": "ym2612"
    },
    {
      "channel": 0,
      "note": 43,
      "start": 36.2878,
      "duration": 0.1158,
      "velocity": 114,
      "chip": "ym2612"
    },
    {
      "channel": 2,
      "note": 76,
      "start": 36.288,
      "duration": 0.1161,
      "velocity": 87,
      "chip": "ym2612"
    },
    {
      "channel": 0,
      "note": 45,
      "start": 36.4037,
      "duration": 0.0036,
      "velocity": 114,
      "chip": "ym2612"
    },
    {
      "channel": 1,
      "note": 64,
      "start": 36.4041,
      "duration": 0.1217,
      "velocity": 108,
      "chip": "ym2612"
    },
    {
      "channel": 2,
      "note": 69,
      "start": 36.4043,
      "duration": 0.0032,
      "velocity": 87,
      "chip": "ym2612"
    },
    {
      "channel": 3,
      "note": 57,
      "start": 36.4046,
      "duration": 0.1215,
      "velocity": 108,
      "chip": "ym2612"
    },
    {
      "channel": 4,
      "note": 64,
      "start": 36.405,
      "duration": 0.1214,
      "velocity": 108,
      "chip": "ym2612"
    },
    {
      "channel": 0,
      "note": 45,
      "start": 36.4075,
      "duration": 0.1151,
      "velocity": 114,
      "chip": "ym2612"
    },
    {
      "channel": 2,
      "note": 81,
      "start": 36.4078,
      "duration": 0.1151,
      "velocity": 87,
      "chip": "ym2612"
    },
    {
      "channel": 0,
      "note": 45,
      "start": 36.5228,
      "duration": 0.0027,
      "velocity": 114,
      "chip": "ym2612"
    },
    {
      "channel": 2,
      "note": 64,
      "start": 36.5232,
      "duration": 0.0028,
      "velocity": 87,
      "chip": "ym2612"
    },
    {
      "channel": 0,
      "note": 50,
      "start": 36.5257,
      "duration": 0.1165,
      "velocity": 114,
      "chip": "ym2612"
    },
    {
      "channel": 1,
      "note": 62,
      "start": 36.5259,
      "duration": 0.1166,
      "velocity": 108,
      "chip": "ym2612"
    },
    {
      "channel": 2,
      "note": 76,
      "start": 36.5262,
      "duration": 0.1165,
      "velocity": 87,
      "chip": "ym2612"
    },
    {
      "channel": 3,
      "note": 59,
      "start": 36.5263,
      "duration": 0.2356,
      "velocity": 108,
      "chip": "ym2612"
    },
    {
      "channel": 4,
      "note": 62,
      "start": 36.5266,
      "duration": 0.1165,
      "velocity": 108,
      "chip": "ym2612"
    },
    {
      "channel": 0,
      "note": 50,
      "start": 36.6424,
      "duration": 0.0031,
      "velocity": 114,
      "chip": "ym2612"
    },
    {
      "channel": 1,
      "note": 62,
      "start": 36.6427,
      "duration": 0.4214,
      "velocity": 108,
      "chip": "ym2612"
    },
    {
      "channel": 2,
      "note": 62,
      "start": 36.643,
      "duration": 0.0028,
      "velocity": 87,
      "chip": "ym2612"
    },
    {
      "channel": 4,
      "note": 62,
      "start": 36.6433,
      "duration": 0.4212,
      "velocity": 108,
      "chip": "ym2612"
    },
    {
      "channel": 0,
      "note": 50,
      "start": 36.6457,
      "duration": 0.1157,
      "velocity": 114,
      "chip": "ym2612"
    },
    {
      "channel": 2,
      "note": 74,
      "start": 36.646,
      "duration": 0.1157,
      "velocity": 87,
      "chip": "ym2612"
    },
    {
      "channel": 0,
      "note": 50,
      "start": 36.7616,
      "duration": 0.2999,
      "velocity": 114,
      "chip": "ym2612"
    },
    {
      "channel": 2,
      "note": 64,
      "start": 36.7619,
      "duration": 0.2999,
      "velocity": 87,
      "chip": "ym2612"
    },
    {
      "channel": 3,
      "note": 55,
      "start": 36.7622,
      "duration": 0.3022,
      "velocity": 108,
      "chip": "ym2612"
    },
    {
      "channel": 0,
      "note": 43,
      "start": 37.0617,
      "duration": 0.0022,
      "velocity": 114,
      "chip": "ym2612"
    },
    {
      "channel": 2,
      "note": 76,
      "start": 37.062,
      "duration": 0.0022,
      "velocity": 87,
      "chip": "ym2612"
    },
    {
      "channel": 0,
      "note": 45,
      "start": 37.0639,
      "duration": 0.0023,
      "velocity": 114,
      "chip": "ym2612"
    },
    {
      "channel": 2,
      "note": 69,
      "start": 37.0644,
      "duration": 0.0021,
      "velocity": 87,
      "chip": "ym2612"
    },
    {
      "channel": 0,
      "note": 45,
      "start": 37.0664,
      "duration": 0.1154,
      "velocity": 114,
      "chip": "ym2612"
    },
    {
      "channel": 2,
      "note": 81,
      "start": 37.0667,
      "duration": 0.1154,
      "velocity": 87,
      "chip": "ym2612"
    },
    {
      "channel": 0,
      "note": 45,
      "start": 37.182,
      "duration": 0.0026,
      "velocity": 114,
      "chip": "ym2612"
    },
    {
      "channel": 2,
      "note": 64,
      "start": 37.1823,
      "duration": 0.0026,
      "velocity": 87,
      "chip": "ym2612"
    },
    {
      "channel": 0,
      "note": 45,
      "start": 37.1849,
      "duration": 0.116,
      "velocity": 114,
      "chip": "ym2612"
    },
    {
      "channel": 2,
      "note": 76,
      "start": 37.1851,
      "duration": 0.1161,
      "velocity": 87,
      "chip": "ym2612"
    },
    {
      "channel": 0,
      "note": 45,
      "start": 37.3011,
      "duration": 0.0025,
      "velocity": 114,
      "chip": "ym2612"
    },
    {
      "channel": 2,
      "note": 62,
      "start": 37.3013,
      "duration": 0.0024,
      "velocity": 87,
      "chip": "ym2612"
    },
    {
      "channel": 0,
      "note": 45,
      "start": 37.3037,
      "duration": 0.1162,
      "velocity": 114,
      "chip": "ym2612"
    },
    {
      "channel": 2,
      "note": 74,
      "start": 37.3039,
      "duration": 0.1163,
      "velocity": 87,
      "chip": "ym2612"
    },
    {
      "channel": 0,
      "note": 45,
      "start": 37.4201,
      "duration": 0.0025,
      "velocity": 114,
      "chip": "ym2612"
    },
    {
      "channel": 2,
      "note": 64,
      "start": 37.4204,
      "duration": 0.0025,
      "velocity": 87,
      "chip": "ym2612"
    },
    {
      "channel": 0,
      "note": 43,
      "start": 37.4229,
      "duration": 0.1159,
      "velocity": 114,
      "chip": "ym2612"
    },
    {
      "channel": 2,
      "note": 76,
      "start": 37.4231,
      "duration": 0.1161,
      "velocity": 87,
      "chip": "ym2612"
    },
    {
      "channel": 0,
      "note": 48,
      "start": 37.539,
      "duration": 0.0032,
      "velocity": 114,
      "chip": "ym2612"
    },
    {
      "channel": 2,
      "note": 69,
      "start": 37.5395,
      "duration": 0.0029,
      "velocity": 87,
      "chip": "ym2612"
    },
    {
      "channel": 0,
      "note": 48,
      "start": 37.5423,
      "duration": 0.1156,
      "velocity": 114,
      "chip": "ym2612"
    },
    {
      "channel": 2,
      "note": 81,
      "start": 37.5426,
      "duration": 0.1156,
      "velocity": 87,
      "chip": "ym2612"
    },
    {
      "channel": 0,
      "note": 48,
      "start": 37.6581,
      "duration": 0.0026,
      "velocity": 114,
      "chip": "ym2612"
    },
    {
      "channel": 2,
      "note": 64,
      "start": 37.6584,
      "duration": 0.0025,
      "velocity": 87,
      "chip": "ym2612"
    },
    {
      "channel": 0,
      "note": 48,
      "start": 37.6609,
      "duration": 0.1161,
      "velocity": 114,
      "chip": "ym2612"
    },
    {
      "channel": 2,
      "note": 76,
      "start": 37.6611,
      "duration": 0.1162,
      "velocity": 87,
      "chip": "ym2612"
    },
    {
      "channel": 0,
      "note": 48,
      "start": 37.7772,
      "duration": 0.0027,
      "velocity": 114,
      "chip": "ym2612"
    },
    {
      "channel": 2,
      "note": 62,
      "start": 37.7775,
      "duration": 0.0026,
      "velocity": 87,
      "chip": "ym2612"
    },
    {
      "channel": 0,
      "note": 48,
      "start": 37.78,
      "duration": 0.116,
      "velocity": 114,
      "chip": "ym2612"
    },
    {
      "channel": 2,
      "note": 74,
      "start": 37.7802,
      "duration": 0.1161,
      "velocity": 87,
      "chip": "ym2612"
    },
    {
      "channel": 0,
      "note": 48,
      "start": 37.8962,
      "duration": 0.0026,
      "velocity": 114,
      "chip": "ym2612"
    },
    {
      "channel": 2,
      "note": 64,
      "start": 37.8966,
      "duration": 0.0025,
      "velocity": 87,
      "chip": "ym2612"
    },
    {
      "channel": 0,
      "note": 45,
      "start": 37.899,
      "duration": 0.1161,
      "velocity": 114,
      "chip": "ym2612"
    },
    {
      "channel": 2,
      "note": 76,
      "start": 37.8993,
      "duration": 0.1162,
      "velocity": 87,
      "chip": "ym2612"
    },
    {
      "channel": 0,
      "note": 50,
      "start": 38.0153,
      "duration": 0.0032,
      "velocity": 114,
      "chip": "ym2612"
    },
    {
      "channel": 2,
      "note": 69,
      "start": 38.0158,
      "duration": 0.003,
      "velocity": 87,
      "chip": "ym2612"
    },
    {
      "channel": 0,
      "note": 50,
      "start": 38.0187,
      "duration": 0.1157,
      "velocity": 114,
      "chip": "ym2612"
    },
    {
      "channel": 2,
      "note": 81,
      "start": 38.019,
      "duration": 0.1158,
      "velocity": 87,
      "chip": "ym2612"
    },
    {
      "channel": 0,
      "note": 50,
      "start": 38.1347,
      "duration": 0.0026,
      "velocity": 114,
      "chip": "ym2612"
    },
    {
      "channel": 2,
      "note": 64,
      "start": 38.1349,
      "duration": 0.0026,
      "velocity": 87,
      "chip": "ym2612"
    },
    {
      "channel": 0,
      "note": 50,
      "start": 38.1375,
      "duration": 0.116,
      "velocity": 114,
      "chip": "ym2612"
    },
    {
      "channel": 2,
      "note": 76,
      "start": 38.1377,
      "duration": 0.1161,
      "velocity": 87,
      "chip": "ym2612"
    },
    {
      "channel": 0,
      "note": 50,
      "start": 38.2537,
      "duration": 0.0027,
      "velocity": 114,
      "chip": "ym2612"
    },
    {
      "channel": 2,
      "note": 62,
      "start": 38.254,
      "duration": 0.0026,
      "velocity": 87,
      "chip": "ym2612"
    },
    {
      "channel": 0,
      "note": 50,
      "start": 38.2566,
      "duration": 0.1163,
      "velocity": 114,
      "chip": "ym2612"
    },
    {
      "channel": 2,
      "note": 74,
      "start": 38.2569,
      "duration": 0.1163,
      "velocity": 87,
      "chip": "ym2612"
    },
    {
      "channel": 0,
      "note": 50,
      "start": 38.3731,
      "duration": 0.2999,
      "velocity": 114,
      "chip": "ym2612"
    },
    {
      "channel": 2,
      "note": 64,
      "start": 38.3734,
      "duration": 0.2998,
      "velocity": 87,
      "chip": "ym2612"
    },
    {
      "channel": 0,
      "note": 48,
      "start": 38.6731,
      "duration": 0.0022,
      "velocity": 114,
      "chip": "ym2612"
    },
    {
      "channel": 2,
      "note": 76,
      "start": 38.6734,
      "duration": 0.0022,
      "velocity": 87,
      "chip": "ym2612"
    },
    {
      "channel": 0,
      "note": 52,
      "start": 38.6754,
      "duration": 0.0022,
      "velocity": 114,
      "chip": "ym2612"
    },
    {
      "channel": 2,
      "note": 69,
      "start": 38.6759,
      "duration": 0.002,
      "velocity": 87,
      "chip": "ym2612"
    },
    {
      "channel": 0,
      "note": 52,
      "start": 38.6778,
      "duration": 0.1153,
      "velocity": 114,
      "chip": "ym2612"
    },
    {
      "channel": 2,
      "note": 81,
      "start": 38.678,
      "duration": 0.1153,
      "velocity": 87,
      "chip": "ym2612"
    },
    {
      "channel": 0,
      "note": 52,
      "start": 38.7933,
      "duration": 0.0026,
      "velocity": 114,
      "chip": "ym2612"
    },
    {
      "channel": 2,
      "note": 64,
      "start": 38.7935,
      "duration": 0.0025,
      "velocity": 87,
      "chip": "ym2612"
    },
    {
      "channel": 0,
      "note": 43,
      "start": 38.796,
      "duration": 0.1161,
      "velocity": 114,
      "chip": "ym2612"
    },
    {
      "channel": 2,
      "note": 76,
      "start": 38.7963,
      "duration": 0.1162,
      "velocity": 87,
      "chip": "ym2612"
    },
    {
      "channel": 0,
      "note": 43,
      "start": 38.9124,
      "duration": 0.0027,
      "velocity": 114,
      "chip": "ym2612"
    },
    {
      "channel": 2,
      "note": 62,
      "start": 38.9126,
      "duration": 0.0026,
      "velocity": 87,
      "chip": "ym2612"
    },
    {
      "channel": 0,
      "note": 43,
      "start": 38.9151,
      "duration": 0.116,
      "velocity": 114,
      "chip": "ym2612"
    },
    {
      "channel": 2,
      "note": 74,
      "start": 38.9154,
      "duration": 0.1161,
      "velocity": 87,
      "chip": "ym2612"
    },
    {
      "channel": 0,
      "note": 48,
      "start": 39.0314,
      "duration": 0.0026,
      "velocity": 114,
      "chip": "ym2612"
    },
    {
      "channel": 2,
      "note": 64,
      "start": 39.0317,
      "duration": 0.0025,
      "velocity": 87,
      "chip": "ym2612"
    },
    {
      "channel": 0,
      "note": 47,
      "start": 39.0341,
      "duration": 0.1161,
      "velocity": 114,
      "chip": "ym2612"
    },
    {
      "channel": 2,
      "note": 76,
      "start": 39.0345,
      "duration": 0.117,
      "velocity": 87,
      "chip": "ym2612"
    },
    {
      "channel": 0,
      "note": 45,
      "start": 39.1505,
      "duration": 0.2998,
      "velocity": 114,
      "chip": "ym2612"
    },
    {
      "channel": 1,
      "note": 33,
      "start": 39.1514,
      "duration": 0.299,
      "velocity": 108,
      "chip": "ym2612"
    },
    {
      "channel": 2,
      "note": 69,
      "start": 39.1517,
      "duration": 0.299,
      "velocity": 87,
      "chip": "ym2612"
    },
    {
      "channel": 4,
      "note": 33,
      "start": 39.1529,
      "duration": 0.2981,
      "velocity": 108,
      "chip": "ym2612"
    },
    {
      "channel": 0,
      "note": 45,
      "start": 39.4504,
      "duration": 0.2998,
      "velocity": 114,
      "chip": "ym2612"
    },
    {
      "channel": 1,
      "note": 31,
      "start": 39.4507,
      "duration": 0.2998,
      "velocity": 108,
      "chip": "ym2612"
    },
    {
      "channel": 2,
      "note": 81,
      "start": 39.451,
      "duration": 0.2998,
      "velocity": 87,
      "chip": "ym2612"
    },
    {
      "channel": 4,
      "note": 31,
      "start": 39.4513,
      "duration": 0.2998,
      "velocity": 108,
      "chip": "ym2612"
    },
    {
      "channel": 0,
      "note": 45,
      "start": 39.7504,
      "duration": 0.2998,
      "velocity": 114,
      "chip": "ym2612"
    },
    {
      "channel": 1,
      "note": 33,
      "start": 39.7507,
      "duration": 0.2998,
      "velocity": 108,
      "chip": "ym2612"
    },
    {
      "channel": 2,
      "note": 64,
      "start": 39.751,
      "duration": 0.2998,
      "velocity": 87,
      "chip": "ym2612"
    },
    {
      "channel": 4,
      "note": 33,
      "start": 39.7513,
      "duration": 0.2998,
      "velocity": 108,
      "chip": "ym2612"
    },
    {
      "channel": 0,
      "note": 48,
      "start": 40.0504,
      "duration": 0.2998,
      "velocity": 114,
      "chip": "ym2612"
    },
    {
      "channel": 1,
      "note": 36,
      "start": 40.0507,
      "duration": 0.2998,
      "velocity": 108,
      "chip": "ym2612"
    },
    {
      "channel": 2,
      "note": 76,
      "start": 40.051,
      "duration": 0.2998,
      "velocity": 87,
      "chip": "ym2612"
    },
    {
      "channel": 4,
      "note": 36,
      "start": 40.0513,
      "duration": 0.2998,
      "velocity": 108,
      "chip": "ym2612"
    },
    {
      "channel": 0,
      "note": 48,
      "start": 40.3504,
      "duration": 0.2998,
      "velocity": 114,
      "chip": "ym2612"
    },
    {
      "channel": 1,
      "note": 38,
      "start": 40.3507,
      "duration": 0.2998,
      "velocity": 108,
      "chip": "ym2612"
    },
    {
      "channel": 2,
      "note": 62,
      "start": 40.351,
      "duration": 0.2998,
      "velocity": 87,
      "chip": "ym2612"
    },
    {
      "channel": 4,
      "note": 38,
      "start": 40.3513,
      "duration": 0.2998,
      "velocity": 108,
      "chip": "ym2612"
    },
    {
      "channel": 0,
      "note": 48,
      "start": 40.6504,
      "duration": 0.2998,
      "velocity": 114,
      "chip": "ym2612"
    },
    {
      "channel": 1,
      "note": 36,
      "start": 40.6507,
      "duration": 0.2998,
      "velocity": 108,
      "chip": "ym2612"
    },
    {
      "channel": 2,
      "note": 74,
      "start": 40.651,
      "duration": 0.2998,
      "velocity": 87,
      "chip": "ym2612"
    },
    {
      "channel": 4,
      "note": 36,
      "start": 40.6513,
      "duration": 0.2998,
      "velocity": 108,
      "chip": "ym2612"
    },
    {
      "channel": 0,
      "note": 48,
      "start": 40.9504,
      "duration": 0.2998,
      "velocity": 114,
      "chip": "ym2612"
    },
    {
      "channel": 1,
      "note": 33,
      "start": 40.9507,
      "duration": 0.2998,
      "velocity": 108,
      "chip": "ym2612"
    },
    {
      "channel": 2,
      "note": 64,
      "start": 40.951,
      "duration": 0.2998,
      "velocity": 87,
      "chip": "ym2612"
    },
    {
      "channel": 4,
      "note": 33,
      "start": 40.9513,
      "duration": 0.2998,
      "velocity": 108,
      "chip": "ym2612"
    },
    {
      "channel": 0,
      "note": 43,
      "start": 41.2504,
      "duration": 0.2998,
      "velocity": 114,
      "chip": "ym2612"
    },
    {
      "channel": 1,
      "note": 31,
      "start": 41.2507,
      "duration": 0.2999,
      "velocity": 108,
      "chip": "ym2612"
    },
    {
      "channel": 2,
      "note": 76,
      "start": 41.251,
      "duration": 0.2998,
      "velocity": 87,
      "chip": "ym2612"
    },
    {
      "channel": 4,
      "note": 31,
      "start": 41.2513,
      "duration": 0.2999,
      "velocity": 108,
      "chip": "ym2612"
    },
    {
      "channel": 0,
      "note": 45,
      "start": 41.5505,
      "duration": 0.2998,
      "velocity": 114,
      "chip": "ym2612"
    },
    {
      "channel": 1,
      "note": 33,
      "start": 41.5507,
      "duration": 0.2997,
      "velocity": 108,
      "chip": "ym2612"
    },
    {
      "channel": 2,
      "note": 69,
      "start": 41.551,
      "duration": 0.2997,
      "velocity": 87,
      "chip": "ym2612"
    },
    {
      "channel": 4,
      "note": 33,
      "start": 41.5515,
      "duration": 0.2996,
      "velocity": 108,
      "chip": "ym2612"
    },
    {
      "channel": 0,
      "note": 45,
      "start": 41.8504,
      "duration": 0.2998,
      "velocity": 114,
      "chip": "ym2612"
    },
    {
      "channel": 1,
      "note": 31,
      "start": 41.8507,
      "duration": 0.2998,
      "velocity": 108,
      "chip": "ym2612"
    },
    {
      "channel": 2,
      "note": 81,
      "start": 41.851,
      "duration": 0.2998,
      "velocity": 87,
      "chip": "ym2612"
    },
    {
      "channel": 4,
      "note": 31,
      "start": 41.8513,
      "duration": 0.2998,
      "velocity": 108,
      "chip": "ym2612"
    },
    {
      "channel": 0,
      "note": 45,
      "start": 42.1504,
      "duration": 0.2998,
      "velocity": 114,
      "chip": "ym2612"
    },
    {
      "channel": 1,
      "note": 33,
      "start": 42.1507,
      "duration": 0.2998,
      "velocity": 108,
      "chip": "ym2612"
    },
    {
      "channel": 2,
      "note": 64,
      "start": 42.151,
      "duration": 0.2998,
      "velocity": 87,
      "chip": "ym2612"
    },
    {
      "channel": 4,
      "note": 33,
      "start": 42.1513,
      "duration": 0.2998,
      "velocity": 108,
      "chip": "ym2612"
    },
    {
      "channel": 0,
      "note": 50,
      "start": 42.4504,
      "duration": 0.2998,
      "velocity": 114,
      "chip": "ym2612"
    },
    {
      "channel": 1,
      "note": 38,
      "start": 42.4507,
      "duration": 0.2998,
      "velocity": 108,
      "chip": "ym2612"
    },
    {
      "channel": 2,
      "note": 76,
      "start": 42.451,
      "duration": 0.2998,
      "velocity": 87,
      "chip": "ym2612"
    },
    {
      "channel": 4,
      "note": 38,
      "start": 42.4513,
      "duration": 0.2998,
      "velocity": 108,
      "chip": "ym2612"
    },
    {
      "channel": 0,
      "note": 50,
      "start": 42.7504,
      "duration": 0.2998,
      "velocity": 114,
      "chip": "ym2612"
    },
    {
      "channel": 1,
      "note": 40,
      "start": 42.7507,
      "duration": 0.2998,
      "velocity": 108,
      "chip": "ym2612"
    },
    {
      "channel": 2,
      "note": 62,
      "start": 42.751,
      "duration": 0.2998,
      "velocity": 87,
      "chip": "ym2612"
    },
    {
      "channel": 4,
      "note": 40,
      "start": 42.7513,
      "duration": 0.2998,
      "velocity": 108,
      "chip": "ym2612"
    },
    {
      "channel": 0,
      "note": 50,
      "start": 43.0504,
      "duration": 0.2998,
      "velocity": 114,
      "chip": "ym2612"
    },
    {
      "channel": 1,
      "note": 38,
      "start": 43.0507,
      "duration": 0.2998,
      "velocity": 108,
      "chip": "ym2612"
    },
    {
      "channel": 2,
      "note": 74,
      "start": 43.051,
      "duration": 0.2998,
      "velocity": 87,
      "chip": "ym2612"
    },
    {
      "channel": 4,
      "note": 38,
      "start": 43.0513,
      "duration": 0.2998,
      "velocity": 108,
      "chip": "ym2612"
    },
    {
      "channel": 0,
      "note": 50,
      "start": 43.3504,
      "duration": 0.2998,
      "velocity": 114,
      "chip": "ym2612"
    },
    {
      "channel": 1,
      "note": 36,
      "start": 43.3507,
      "duration": 0.2998,
      "velocity": 108,
      "chip": "ym2612"
    },
    {
      "channel": 2,
      "note": 64,
      "start": 43.351,
      "duration": 0.2998,
      "velocity": 87,
      "chip": "ym2612"
    },
    {
      "channel": 4,
      "note": 36,
      "start": 43.3513,
      "duration": 0.2998,
      "velocity": 108,
      "chip": "ym2612"
    },
    {
      "channel": 0,
      "note": 43,
      "start": 43.6504,
      "duration": 0.2998,
      "velocity": 114,
      "chip": "ym2612"
    },
    {
      "channel": 1,
      "note": 35,
      "start": 43.6507,
      "duration": 0.2999,
      "velocity": 108,
      "chip": "ym2612"
    },
    {
      "channel": 2,
      "note": 76,
      "start": 43.651,
      "duration": 0.2998,
      "velocity": 87,
      "chip": "ym2612"
    },
    {
      "channel": 4,
      "note": 35,
      "start": 43.6513,
      "duration": 0.2999,
      "velocity": 108,
      "chip": "ym2612"
    },
    {
      "channel": 0,
      "note": 45,
      "start": 43.9504,
      "duration": 0.2998,
      "velocity": 114,
      "chip": "ym2612"
    },
    {
      "channel": 1,
      "note": 33,
      "start": 43.9507,
      "duration": 0.2997,
      "velocity": 108,
      "chip": "ym2612"
    },
    {
      "channel": 2,
      "note": 69,
      "start": 43.951,
      "duration": 0.2997,
      "velocity": 87,
      "chip": "ym2612"
    },
    {
      "channel": 4,
      "note": 33,
      "start": 43.9515,
      "duration": 0.2996,
      "velocity": 108,
      "chip": "ym2612"
    },
    {
      "channel": 0,
      "note": 45,
      "start": 44.2504,
      "duration": 0.2998,
      "velocity": 114,
      "chip": "ym2612"
    },
    {
      "channel": 1,
      "note": 31,
      "start": 44.2507,
      "duration": 0.2998,
      "velocity": 108,
      "chip": "ym2612"
    },
    {
      "channel": 2,
      "note": 81,
      "start": 44.251,
      "duration": 0.2998,
      "velocity": 87,
      "chip": "ym2612"
    },
    {
      "channel": 4,
      "note": 31,
      "start": 44.2513,
      "duration": 0.2998,
      "velocity": 108,
      "chip": "ym2612"
    },
    {
      "channel": 0,
      "note": 45,
      "start": 44.5504,
      "duration": 0.2998,
      "velocity": 114,
      "chip": "ym2612"
    },
    {
      "channel": 1,
      "note": 33,
      "start": 44.5507,
      "duration": 0.2998,
      "velocity": 108,
      "chip": "ym2612"
    },
    {
      "channel": 2,
      "note": 64,
      "start": 44.551,
      "duration": 0.2998,
      "velocity": 87,
      "chip": "ym2612"
    },
    {
      "channel": 4,
      "note": 33,
      "start": 44.5513,
      "duration": 0.2998,
      "velocity": 108,
      "chip": "ym2612"
    },
    {
      "channel": 0,
      "note": 43,
      "start": 44.8504,
      "duration": 0.2998,
      "velocity": 114,
      "chip": "ym2612"
    },
    {
      "channel": 1,
      "note": 36,
      "start": 44.8507,
      "duration": 0.2998,
      "velocity": 108,
      "chip": "ym2612"
    },
    {
      "channel": 2,
      "note": 76,
      "start": 44.851,
      "duration": 0.2998,
      "velocity": 87,
      "chip": "ym2612"
    },
    {
      "channel": 4,
      "note": 36,
      "start": 44.8513,
      "duration": 0.2998,
      "velocity": 108,
      "chip": "ym2612"
    },
    {
      "channel": 0,
      "note": 43,
      "start": 45.1504,
      "duration": 0.2998,
      "velocity": 114,
      "chip": "ym2612"
    },
    {
      "channel": 1,
      "note": 38,
      "start": 45.1507,
      "duration": 0.2998,
      "velocity": 108,
      "chip": "ym2612"
    },
    {
      "channel": 2,
      "note": 62,
      "start": 45.151,
      "duration": 0.2998,
      "velocity": 87,
      "chip": "ym2612"
    },
    {
      "channel": 4,
      "note": 38,
      "start": 45.1513,
      "duration": 0.2998,
      "velocity": 108,
      "chip": "ym2612"
    },
    {
      "channel": 0,
      "note": 43,
      "start": 45.4504,
      "duration": 0.2998,
      "velocity": 114,
      "chip": "ym2612"
    },
    {
      "channel": 1,
      "note": 36,
      "start": 45.4507,
      "duration": 0.2998,
      "velocity": 108,
      "chip": "ym2612"
    },
    {
      "channel": 2,
      "note": 74,
      "start": 45.451,
      "duration": 0.2998,
      "velocity": 87,
      "chip": "ym2612"
    },
    {
      "channel": 4,
      "note": 36,
      "start": 45.4513,
      "duration": 0.2998,
      "velocity": 108,
      "chip": "ym2612"
    },
    {
      "channel": 0,
      "note": 43,
      "start": 45.7504,
      "duration": 0.2998,
      "velocity": 114,
      "chip": "ym2612"
    },
    {
      "channel": 1,
      "note": 35,
      "start": 45.7507,
      "duration": 0.2998,
      "velocity": 108,
      "chip": "ym2612"
    },
    {
      "channel": 2,
      "note": 64,
      "start": 45.751,
      "duration": 0.2998,
      "velocity": 87,
      "chip": "ym2612"
    },
    {
      "channel": 4,
      "note": 35,
      "start": 45.7513,
      "duration": 0.2998,
      "velocity": 108,
      "chip": "ym2612"
    },
    {
      "channel": 0,
      "note": 43,
      "start": 46.0504,
      "duration": 0.2998,
      "velocity": 114,
      "chip": "ym2612"
    },
    {
      "channel": 1,
      "note": 36,
      "start": 46.0507,
      "duration": 0.2999,
      "velocity": 108,
      "chip": "ym2612"
    },
    {
      "channel": 2,
      "note": 76,
      "start": 46.051,
      "duration": 0.2998,
      "velocity": 87,
      "chip": "ym2612"
    },
    {
      "channel": 4,
      "note": 36,
      "start": 46.0513,
      "duration": 0.2999,
      "velocity": 108,
      "chip": "ym2612"
    },
    {
      "channel": 0,
      "note": 50,
      "start": 46.3504,
      "duration": 0.2998,
      "velocity": 114,
      "chip": "ym2612"
    },
    {
      "channel": 1,
      "note": 38,
      "start": 46.3507,
      "duration": 0.2997,
      "velocity": 108,
      "chip": "ym2612"
    },
    {
      "channel": 2,
      "note": 69,
      "start": 46.351,
      "duration": 0.2997,
      "velocity": 87,
      "chip": "ym2612"
    },
    {
      "channel": 4,
      "note": 38,
      "start": 46.3515,
      "duration": 0.2996,
      "velocity": 108,
      "chip": "ym2612"
    },
    {
      "channel": 0,
      "note": 50,
      "start": 46.6504,
      "duration": 0.2998,
      "velocity": 114,
      "chip": "ym2612"
    },
    {
      "channel": 1,
      "note": 36,
      "start": 46.6507,
      "duration": 0.2998,
      "velocity": 108,
      "chip": "ym2612"
    },
    {
      "channel": 2,
      "note": 81,
      "start": 46.651,
      "duration": 0.2998,
      "velocity": 87,
      "chip": "ym2612"
    },
    {
      "channel": 4,
      "note": 36,
      "start": 46.6513,
      "duration": 0.2998,
      "velocity": 108,
      "chip": "ym2612"
    },
    {
      "channel": 0,
      "note": 50,
      "start": 46.9504,
      "duration": 0.2998,
      "velocity": 114,
      "chip": "ym2612"
    },
    {
      "channel": 1,
      "note": 38,
      "start": 46.9507,
      "duration": 0.2998,
      "velocity": 108,
      "chip": "ym2612"
    },
    {
      "channel": 2,
      "note": 64,
      "start": 46.951,
      "duration": 0.2998,
      "velocity": 87,
      "chip": "ym2612"
    },
    {
      "channel": 4,
      "note": 38,
      "start": 46.9513,
      "duration": 0.2998,
      "velocity": 108,
      "chip": "ym2612"
    },
    {
      "channel": 0,
      "note": 48,
      "start": 47.2504,
      "duration": 0.2998,
      "velocity": 114,
      "chip": "ym2612"
    },
    {
      "channel": 1,
      "note": 43,
      "start": 47.2507,
      "duration": 0.2998,
      "velocity": 108,
      "chip": "ym2612"
    },
    {
      "channel": 2,
      "note": 76,
      "start": 47.251,
      "duration": 0.2998,
      "velocity": 87,
      "chip": "ym2612"
    },
    {
      "channel": 4,
      "note": 43,
      "start": 47.2513,
      "duration": 0.2998,
      "velocity": 108,
      "chip": "ym2612"
    },
    {
      "channel": 0,
      "note": 48,
      "start": 47.5504,
      "duration": 0.2998,
      "velocity": 114,
      "chip": "ym2612"
    },
    {
      "channel": 1,
      "note": 45,
      "start": 47.5507,
      "duration": 0.2998,
      "velocity": 108,
      "chip": "ym2612"
    },
    {
      "channel": 2,
      "note": 62,
      "start": 47.551,
      "duration": 0.2998,
      "velocity": 87,
      "chip": "ym2612"
    },
    {
      "channel": 4,
      "note": 45,
      "start": 47.5513,
      "duration": 0.2998,
      "velocity": 108,
      "chip": "ym2612"
    },
    {
      "channel": 0,
      "note": 48,
      "start": 47.8504,
      "duration": 0.2998,
      "velocity": 114,
      "chip": "ym2612"
    },
    {
      "channel": 1,
      "note": 43,
      "start": 47.8507,
      "duration": 0.2998,
      "velocity": 108,
      "chip": "ym2612"
    },
    {
      "channel": 2,
      "note": 74,
      "start": 47.851,
      "duration": 0.2998,
      "velocity": 87,
      "chip": "ym2612"
    },
    {
      "channel": 4,
      "note": 43,
      "start": 47.8513,
      "duration": 0.2998,
      "velocity": 108,
      "chip": "ym2612"
    },
    {
      "channel": 0,
      "note": 48,
      "start": 48.1504,
      "duration": 0.2998,
      "velocity": 114,
      "chip": "ym2612"
    },
    {
      "channel": 1,
      "note": 40,
      "start": 48.1507,
      "duration": 0.2998,
      "velocity": 108,
      "chip": "ym2612"
    },
    {
      "channel": 2,
      "note": 64,
      "start": 48.151,
      "duration": 0.2998,
      "velocity": 87,
      "chip": "ym2612"
    },
    {
      "channel": 4,
      "note": 40,
      "start": 48.1513,
      "duration": 0.2998,
      "velocity": 108,
      "chip": "ym2612"
    },
    {
      "channel": 0,
      "note": 43,
      "start": 48.4504,
      "duration": 0.2998,
      "velocity": 114,
      "chip": "ym2612"
    },
    {
      "channel": 1,
      "note": 38,
      "start": 48.4507,
      "duration": 0.2999,
      "velocity": 108,
      "chip": "ym2612"
    },
    {
      "channel": 2,
      "note": 76,
      "start": 48.451,
      "duration": 0.2998,
      "velocity": 87,
      "chip": "ym2612"
    },
    {
      "channel": 4,
      "note": 38,
      "start": 48.4513,
      "duration": 0.2999,
      "velocity": 108,
      "chip": "ym2612"
    },
    {
      "channel": 0,
      "note": 45,
      "start": 48.7504,
      "duration": 0.2998,
      "velocity": 114,
      "chip": "ym2612"
    },
    {
      "channel": 1,
      "note": 33,
      "start": 48.7507,
      "duration": 0.2997,
      "velocity": 108,
      "chip": "ym2612"
    },
    {
      "channel": 2,
      "note": 69,
      "start": 48.751,
      "duration": 0.2997,
      "velocity": 87,
      "chip": "ym2612"
    },
    {
      "channel": 4,
      "note": 33,
      "start": 48.7515,
      "duration": 0.2996,
      "velocity": 108,
      "chip": "ym2612"
    },
    {
      "channel": 0,
      "note": 45,
      "start": 49.0504,
      "duration": 0.2998,
      "velocity": 114,
      "chip": "ym2612"
    },
    {
      "channel": 1,
      "note": 31,
      "start": 49.0507,
      "duration": 0.2998,
      "velocity": 108,
      "chip": "ym2612"
    },
    {
      "channel": 2,
      "note": 81,
      "start": 49.051,
      "duration": 0.2998,
      "velocity": 87,
      "chip": "ym2612"
    },
    {
      "channel": 4,
      "note": 31,
      "start": 49.0513,
      "duration": 0.2998,
      "velocity": 108,
      "chip": "ym2612"
    },
    {
      "channel": 0,
      "note": 45,
      "start": 49.3504,
      "duration": 0.2998,
      "velocity": 114,
      "chip": "ym2612"
    },
    {
      "channel": 1,
      "note": 33,
      "start": 49.3507,
      "duration": 0.2998,
      "velocity": 108,
      "chip": "ym2612"
    },
    {
      "channel": 2,
      "note": 64,
      "start": 49.351,
      "duration": 0.2998,
      "velocity": 87,
      "chip": "ym2612"
    },
    {
      "channel": 4,
      "note": 33,
      "start": 49.3513,
      "duration": 0.2998,
      "velocity": 108,
      "chip": "ym2612"
    },
    {
      "channel": 0,
      "note": 48,
      "start": 49.6504,
      "duration": 0.2998,
      "velocity": 114,
      "chip": "ym2612"
    },
    {
      "channel": 1,
      "note": 36,
      "start": 49.6507,
      "duration": 0.2998,
      "velocity": 108,
      "chip": "ym2612"
    },
    {
      "channel": 2,
      "note": 76,
      "start": 49.651,
      "duration": 0.2998,
      "velocity": 87,
      "chip": "ym2612"
    },
    {
      "channel": 4,
      "note": 36,
      "start": 49.6513,
      "duration": 0.2998,
      "velocity": 108,
      "chip": "ym2612"
    },
    {
      "channel": 0,
      "note": 48,
      "start": 49.9504,
      "duration": 0.2998,
      "velocity": 114,
      "chip": "ym2612"
    },
    {
      "channel": 1,
      "note": 38,
      "start": 49.9507,
      "duration": 0.2998,
      "velocity": 108,
      "chip": "ym2612"
    },
    {
      "channel": 2,
      "note": 62,
      "start": 49.951,
      "duration": 0.2998,
      "velocity": 87,
      "chip": "ym2612"
    },
    {
      "channel": 4,
      "note": 38,
      "start": 49.9513,
      "duration": 0.2998,
      "velocity": 108,
      "chip": "ym2612"
    },
    {
      "channel": 0,
      "note": 48,
      "start": 50.2504,
      "duration": 0.2998,
      "velocity": 114,
      "chip": "ym2612"
    },
    {
      "channel": 1,
      "note": 36,
      "start": 50.2507,
      "duration": 0.2998,
      "velocity": 108,
      "chip": "ym2612"
    },
    {
      "channel": 2,
      "note": 74,
      "start": 50.251,
      "duration": 0.2998,
      "velocity": 87,
      "chip": "ym2612"
    },
    {
      "channel": 4,
      "note": 36,
      "start": 50.2513,
      "duration": 0.2998,
      "velocity": 108,
      "chip": "ym2612"
    },
    {
      "channel": 0,
      "note": 48,
      "start": 50.5504,
      "duration": 0.2998,
      "velocity": 114,
      "chip": "ym2612"
    },
    {
      "channel": 1,
      "note": 33,
      "start": 50.5507,
      "duration": 0.2998,
      "velocity": 108,
      "chip": "ym2612"
    },
    {
      "channel": 2,
      "note": 64,
      "start": 50.551,
      "duration": 0.2998,
      "velocity": 87,
      "chip": "ym2612"
    },
    {
      "channel": 4,
      "note": 33,
      "start": 50.5513,
      "duration": 0.2998,
      "velocity": 108,
      "chip": "ym2612"
    },
    {
      "channel": 0,
      "note": 43,
      "start": 50.8504,
      "duration": 0.2998,
      "velocity": 114,
      "chip": "ym2612"
    },
    {
      "channel": 1,
      "note": 31,
      "start": 50.8507,
      "duration": 0.2999,
      "velocity": 108,
      "chip": "ym2612"
    },
    {
      "channel": 2,
      "note": 76,
      "start": 50.851,
      "duration": 0.2999,
      "velocity": 87,
      "chip": "ym2612"
    },
    {
      "channel": 4,
      "note": 31,
      "start": 50.8513,
      "duration": 0.3,
      "velocity": 108,
      "chip": "ym2612"
    },
    {
      "channel": 0,
      "note": 45,
      "start": 51.1504,
      "duration": 0.2998,
      "velocity": 114,
      "chip": "ym2612"
    },
    {
      "channel": 1,
      "note": 33,
      "start": 51.1507,
      "duration": 0.5998,
      "velocity": 108,
      "chip": "ym2612"
    },
    {
      "channel": 2,
      "note": 69,
      "start": 51.151,
      "duration": 0.2994,
      "velocity": 87,
      "chip": "ym2612"
    },
    {
      "channel": 4,
      "note": 33,
      "start": 51.1515,
      "duration": 0.5998,
      "velocity": 108,
      "chip": "ym2612"
    },
    {
      "channel": 2,
      "note": 81,
      "start": 51.4506,
      "duration": 0.3002,
      "velocity": 87,
      "chip": "ym2612"
    },
    {
      "channel": 1,
      "note": 33,
      "start": 51.7507,
      "duration": 0.5997,
      "velocity": 108,
      "chip": "ym2612"
    },
    {
      "channel": 2,
      "note": 64,
      "start": 51.751,
      "duration": 0.2992,
      "velocity": 87,
      "chip": "ym2612"
    },
    {
      "channel": 4,
      "note": 33,
      "start": 51.7515,
      "duration": 0.5997,
      "velocity": 108,
      "chip": "ym2612"
    },
    {
      "channel": 2,
      "note": 76,
      "start": 52.0505,
      "duration": 0.3002,
      "velocity": 87,
      "chip": "ym2612"
    },
    {
      "channel": 1,
      "note": 33,
      "start": 52.3506,
      "duration": 0.5998,
      "velocity": 108,
      "chip": "ym2612"
    },
    {
      "channel": 2,
      "note": 62,
      "start": 52.3508,
      "duration": 0.2994,
      "velocity": 87,
      "chip": "ym2612"
    },
    {
      "channel": 4,
      "note": 33,
      "start": 52.3514,
      "duration": 0.5998,
      "velocity": 108,
      "chip": "ym2612"
    },
    {
      "channel": 2,
      "note": 74,
      "start": 52.6505,
      "duration": 0.3002,
      "velocity": 87,
      "chip": "ym2612"
    },
    {
      "channel": 1,
      "note": 33,
      "start": 52.9506,
      "duration": 0.5998,
      "velocity": 108,
      "chip": "ym2612"
    },
    {
      "channel": 2,
      "note": 64,
      "start": 52.9508,
      "duration": 0.2994,
      "velocity": 87,
      "chip": "ym2612"
    },
    {
      "channel": 4,
      "note": 33,
      "start": 52.9514,
      "duration": 0.5997,
      "velocity": 108,
      "chip": "ym2612"
    },
    {
      "channel": 2,
      "note": 76,
      "start": 53.2505,
      "duration": 0.3001,
      "velocity": 87,
      "chip": "ym2612"
    },
    {
      "channel": 2,
      "note": 69,
      "start": 53.5508,
      "duration": 0.2995,
      "velocity": 87,
      "chip": "ym2612"
    },
    {
      "channel": 2,
      "note": 81,
      "start": 53.8505,
      "duration": 0.2998,
      "velocity": 87,
      "chip": "ym2612"
    },
    {
      "channel": 2,
      "note": 64,
      "start": 54.1505,
      "duration": 0.2998,
      "velocity": 87,
      "chip": "ym2612"
    },
    {
      "channel": 2,
      "note": 76,
      "start": 54.4505,
      "duration": 0.2998,
      "velocity": 87,
      "chip": "ym2612"
    },
    {
      "channel": 2,
      "note": 62,
      "start": 54.7505,
      "duration": 0.2998,
      "velocity": 87,
      "chip": "ym2612"
    },
    {
      "channel": 2,
      "note": 74,
      "start": 55.0505,
      "duration": 0.2998,
      "velocity": 87,
      "chip": "ym2612"
    },
    {
      "channel": 2,
      "note": 64,
      "start": 55.3505,
      "duration": 0.2998,
      "velocity": 87,
      "chip": "ym2612"
    },
    {
      "channel": 2,
      "note": 76,
      "start": 55.6505,
      "duration": 0.3009,
      "velocity": 87,
      "chip": "ym2612"
    },
    {
      "channel": 2,
      "note": 69,
      "start": 55.9516,
      "duration": 49.6539,
      "velocity": 87,
      "chip": "ym2612"
    }
  ]
}