{
  "track_name": "18 - Staff Roll",
  "duration_sec": 141.29,
  "sample_rate": 44100,
  "note_count": 1423,
  "unique_pitches": 50,
  "pitch_range": 69,
  "avg_note_duration": 0.1396,
  "reconstruction_stats": {
    "notes_reconstructed": 1423,
    "keyon_events": 1423,
    "keyoff_events": 1423,
    "orphan_keyons": 0,
    "unique_pitches": 50,
    "pitch_range": 69,
    "avg_duration_sec": 0.1396
  },
  "metadata": {
    "source": "E\\El Viento\\18 - Staff Roll.vgz"
  },
  "notes": [
    {
      "channel": 1,
      "note": 84,
      "start": 0.0156,
      "duration": 0.1521,
      "velocity": 70,
      "chip": "ym2612"
    },
    {
      "channel": 2,
      "note": 84,
      "start": 0.1037,
      "duration": 0.1508,
      "velocity": 70,
      "chip": "ym2612"
    },
    {
      "channel": 1,
      "note": 85,
      "start": 0.1897,
      "duration": 0.1513,
      "velocity": 70,
      "chip": "ym2612"
    },
    {
      "channel": 2,
      "note": 85,
      "start": 0.2765,
      "duration": 0.1513,
      "velocity": 70,
      "chip": "ym2612"
    },
    {
      "channel": 1,
      "note": 84,
      "start": 0.3631,
      "duration": 0.1514,
      "velocity": 70,
      "chip": "ym2612"
    },
    {
      "channel": 2,
      "note": 84,
      "start": 0.4499,
      "duration": 0.1513,
      "velocity": 70,
      "chip": "ym2612"
    },
    {
      "channel": 1,
      "note": 80,
      "start": 0.5364,
      "duration": 0.1514,
      "velocity": 70,
      "chip": "ym2612"
    },
    {
      "channel": 2,
      "note": 80,
      "start": 0.6232,
      "duration": 0.1514,
      "velocity": 70,
      "chip": "ym2612"
    },
    {
      "channel": 1,
      "note": 75,
      "start": 0.7098,
      "duration": 0.1513,
      "velocity": 70,
      "chip": "ym2612"
    },
    {
      "channel": 2,
      "note": 75,
      "start": 0.7965,
      "duration": 0.1514,
      "velocity": 70,
      "chip": "ym2612"
    },
    {
      "channel": 1,
      "note": 80,
      "start": 0.8831,
      "duration": 0.1513,
      "velocity": 70,
      "chip": "ym2612"
    },
    {
      "channel": 2,
      "note": 80,
      "start": 0.9699,
      "duration": 0.1514,
      "velocity": 70,
      "chip": "ym2612"
    },
    {
      "channel": 1,
      "note": 84,
      "start": 1.057,
      "duration": 0.1508,
      "velocity": 70,
      "chip": "ym2612"
    },
    {
      "channel": 2,
      "note": 84,
      "start": 1.1438,
      "duration": 0.1507,
      "velocity": 70,
      "chip": "ym2612"
    },
    {
      "channel": 1,
      "note": 85,
      "start": 1.2298,
      "duration": 0.1513,
      "velocity": 70,
      "chip": "ym2612"
    },
    {
      "channel": 2,
      "note": 85,
      "start": 1.3166,
      "duration": 0.1513,
      "velocity": 70,
      "chip": "ym2612"
    },
    {
      "channel": 1,
      "note": 84,
      "start": 1.4032,
      "duration": 0.1513,
      "velocity": 70,
      "chip": "ym2612"
    },
    {
      "channel": 2,
      "note": 84,
      "start": 1.49,
      "duration": 0.1513,
      "velocity": 70,
      "chip": "ym2612"
    },
    {
      "channel": 1,
      "note": 80,
      "start": 1.5765,
      "duration": 0.1513,
      "velocity": 70,
      "chip": "ym2612"
    },
    {
      "channel": 2,
      "note": 80,
      "start": 1.6633,
      "duration": 0.1513,
      "velocity": 70,
      "chip": "ym2612"
    },
    {
      "channel": 1,
      "note": 75,
      "start": 1.7499,
      "duration": 0.1513,
      "velocity": 70,
      "chip": "ym2612"
    },
    {
      "channel": 2,
      "note": 75,
      "start": 1.8367,
      "duration": 0.1513,
      "velocity": 70,
      "chip": "ym2612"
    },
    {
      "channel": 1,
      "note": 80,
      "start": 1.9232,
      "duration": 0.1513,
      "velocity": 70,
      "chip": "ym2612"
    },
    {
      "channel": 2,
      "note": 80,
      "start": 2.01,
      "duration": 0.1513,
      "velocity": 70,
      "chip": "ym2612"
    },
    {
      "channel": 1,
      "note": 84,
      "start": 2.0972,
      "duration": 0.1507,
      "velocity": 70,
      "chip": "ym2612"
    },
    {
      "channel": 2,
      "note": 84,
      "start": 2.184,
      "duration": 0.1507,
      "velocity": 70,
      "chip": "ym2612"
    },
    {
      "channel": 1,
      "note": 85,
      "start": 2.2699,
      "duration": 0.1513,
      "velocity": 70,
      "chip": "ym2612"
    },
    {
      "channel": 2,
      "note": 85,
      "start": 2.3567,
      "duration": 0.1513,
      "velocity": 70,
      "chip": "ym2612"
    },
    {
      "channel": 1,
      "note": 84,
      "start": 2.4433,
      "duration": 0.1513,
      "velocity": 70,
      "chip": "ym2612"
    },
    {
      "channel": 2,
      "note": 84,
      "start": 2.53,
      "duration": 0.1513,
      "velocity": 70,
      "chip": "ym2612"
    },
    {
      "channel": 1,
      "note": 80,
      "start": 2.6166,
      "duration": 0.1513,
      "velocity": 70,
      "chip": "ym2612"
    },
    {
      "channel": 2,
      "note": 80,
      "start": 2.7034,
      "duration": 0.1513,
      "velocity": 70,
      "chip": "ym2612"
    },
    {
      "channel": 1,
      "note": 75,
      "start": 2.79,
      "duration": 0.1514,
      "velocity": 70,
      "chip": "ym2612"
    },
    {
      "channel": 2,
      "note": 75,
      "start": 2.8767,
      "duration": 0.1513,
      "velocity": 70,
      "chip": "ym2612"
    },
    {
      "channel": 1,
      "note": 80,
      "start": 2.9633,
      "duration": 0.1514,
      "velocity": 70,
      "chip": "ym2612"
    },
    {
      "channel": 2,
      "note": 80,
      "start": 3.0501,
      "duration": 0.1513,
      "velocity": 70,
      "chip": "ym2612"
    },
    {
      "channel": 1,
      "note": 84,
      "start": 3.1372,
      "duration": 0.1508,
      "velocity": 70,
      "chip": "ym2612"
    },
    {
      "channel": 2,
      "note": 84,
      "start": 3.2239,
      "duration": 0.1508,
      "velocity": 70,
      "chip": "ym2612"
    },
    {
      "channel": 1,
      "note": 85,
      "start": 3.31,
      "duration": 0.1514,
      "velocity": 70,
      "chip": "ym2612"
    },
    {
      "channel": 2,
      "note": 85,
      "start": 3.3968,
      "duration": 0.1513,
      "velocity": 70,
      "chip": "ym2612"
    },
    {
      "channel": 1,
      "note": 84,
      "start": 3.4834,
      "duration": 0.1513,
      "velocity": 70,
      "chip": "ym2612"
    },
    {
      "channel": 2,
      "note": 84,
      "start": 3.5702,
      "duration": 0.1513,
      "velocity": 70,
      "chip": "ym2612"
    },
    {
      "channel": 1,
      "note": 80,
      "start": 3.6567,
      "duration": 0.1514,
      "velocity": 70,
      "chip": "ym2612"
    },
    {
      "channel": 2,
      "note": 80,
      "start": 3.7435,
      "duration": 0.1513,
      "velocity": 70,
      "chip": "ym2612"
    },
    {
      "channel": 1,
      "note": 75,
      "start": 3.83,
      "duration": 0.1514,
      "velocity": 70,
      "chip": "ym2612"
    },
    {
      "channel": 2,
      "note": 75,
      "start": 3.9168,
      "duration": 0.1513,
      "velocity": 70,
      "chip": "ym2612"
    },
    {
      "channel": 1,
      "note": 80,
      "start": 4.0034,
      "duration": 0.1513,
      "velocity": 70,
      "chip": "ym2612"
    },
    {
      "channel": 2,
      "note": 80,
      "start": 4.0902,
      "duration": 0.1514,
      "velocity": 70,
      "chip": "ym2612"
    },
    {
      "channel": 1,
      "note": 84,
      "start": 4.1768,
      "duration": 0.1513,
      "velocity": 70,
      "chip": "ym2612"
    },
    {
      "channel": 3,
      "note": 44,
      "start": 4.1781,
      "duration": 2.0571,
      "velocity": 108,
      "chip": "ym2612"
    },
    {
      "channel": 2,
      "note": 84,
      "start": 4.2636,
      "duration": 0.1512,
      "velocity": 70,
      "chip": "ym2612"
    },
    {
      "channel": 1,
      "note": 85,
      "start": 4.3501,
      "duration": 0.1513,
      "velocity": 70,
      "chip": "ym2612"
    },
    {
      "channel": 2,
      "note": 85,
      "start": 4.4369,
      "duration": 0.1513,
      "velocity": 70,
      "chip": "ym2612"
    },
    {
      "channel": 1,
      "note": 84,
      "start": 4.5235,
      "duration": 0.1513,
      "velocity": 70,
      "chip": "ym2612"
    },
    {
      "channel": 2,
      "note": 84,
      "start": 4.6102,
      "duration": 0.1513,
      "velocity": 70,
      "chip": "ym2612"
    },
    {
      "channel": 1,
      "note": 80,
      "start": 4.6968,
      "duration": 0.1513,
      "velocity": 70,
      "chip": "ym2612"
    },
    {
      "channel": 2,
      "note": 80,
      "start": 4.7836,
      "duration": 0.1513,
      "velocity": 70,
      "chip": "ym2612"
    },
    {
      "channel": 1,
      "note": 75,
      "start": 4.8702,
      "duration": 0.1513,
      "velocity": 70,
      "chip": "ym2612"
    },
    {
      "channel": 2,
      "note": 75,
      "start": 4.9569,
      "duration": 0.1513,
      "velocity": 70,
      "chip": "ym2612"
    },
    {
      "channel": 1,
      "note": 80,
      "start": 5.0435,
      "duration": 0.1513,
      "velocity": 70,
      "chip": "ym2612"
    },
    {
      "channel": 2,
      "note": 80,
      "start": 5.1303,
      "duration": 0.1513,
      "velocity": 70,
      "chip": "ym2612"
    },
    {
      "channel": 1,
      "note": 84,
      "start": 5.2174,
      "duration": 0.1508,
      "velocity": 70,
      "chip": "ym2612"
    },
    {
      "channel": 2,
      "note": 84,
      "start": 5.3041,
      "duration": 0.1508,
      "velocity": 70,
      "chip": "ym2612"
    },
    {
      "channel": 1,
      "note": 85,
      "start": 5.3902,
      "duration": 0.1523,
      "velocity": 70,
      "chip": "ym2612"
    },
    {
      "channel": 2,
      "note": 85,
      "start": 5.477,
      "duration": 0.1513,
      "velocity": 70,
      "chip": "ym2612"
    },
    {
      "channel": 1,
      "note": 84,
      "start": 5.5636,
      "duration": 0.1513,
      "velocity": 70,
      "chip": "ym2612"
    },
    {
      "channel": 2,
      "note": 84,
      "start": 5.6503,
      "duration": 0.1513,
      "velocity": 70,
      "chip": "ym2612"
    },
    {
      "channel": 1,
      "note": 80,
      "start": 5.7369,
      "duration": 0.1513,
      "velocity": 70,
      "chip": "ym2612"
    },
    {
      "channel": 2,
      "note": 80,
      "start": 5.8237,
      "duration": 0.1523,
      "velocity": 70,
      "chip": "ym2612"
    },
    {
      "channel": 1,
      "note": 75,
      "start": 5.9102,
      "duration": 0.1513,
      "velocity": 70,
      "chip": "ym2612"
    },
    {
      "channel": 2,
      "note": 75,
      "start": 5.997,
      "duration": 0.1513,
      "velocity": 70,
      "chip": "ym2612"
    },
    {
      "channel": 1,
      "note": 80,
      "start": 6.0836,
      "duration": 0.1514,
      "velocity": 70,
      "chip": "ym2612"
    },
    {
      "channel": 2,
      "note": 80,
      "start": 6.1704,
      "duration": 0.1513,
      "velocity": 70,
      "chip": "ym2612"
    },
    {
      "channel": 1,
      "note": 84,
      "start": 6.2576,
      "duration": 0.1515,
      "velocity": 70,
      "chip": "ym2612"
    },
    {
      "channel": 3,
      "note": 42,
      "start": 6.2583,
      "duration": 2.0571,
      "velocity": 108,
      "chip": "ym2612"
    },
    {
      "channel": 2,
      "note": 84,
      "start": 6.3444,
      "duration": 0.1506,
      "velocity": 70,
      "chip": "ym2612"
    },
    {
      "channel": 1,
      "note": 85,
      "start": 6.4303,
      "duration": 0.1514,
      "velocity": 70,
      "chip": "ym2612"
    },
    {
      "channel": 2,
      "note": 85,
      "start": 6.5171,
      "duration": 0.1513,
      "velocity": 70,
      "chip": "ym2612"
    },
    {
      "channel": 1,
      "note": 84,
      "start": 6.6037,
      "duration": 0.1514,
      "velocity": 70,
      "chip": "ym2612"
    },
    {
      "channel": 2,
      "note": 84,
      "start": 6.6905,
      "duration": 0.152,
      "velocity": 70,
      "chip": "ym2612"
    },
    {
      "channel": 1,
      "note": 80,
      "start": 6.777,
      "duration": 0.1514,
      "velocity": 70,
      "chip": "ym2612"
    },
    {
      "channel": 2,
      "note": 80,
      "start": 6.8638,
      "duration": 0.1513,
      "velocity": 70,
      "chip": "ym2612"
    },
    {
      "channel": 1,
      "note": 75,
      "start": 6.9503,
      "duration": 0.1514,
      "velocity": 70,
      "chip": "ym2612"
    },
    {
      "channel": 2,
      "note": 75,
      "start": 7.0371,
      "duration": 0.1513,
      "velocity": 70,
      "chip": "ym2612"
    },
    {
      "channel": 1,
      "note": 80,
      "start": 7.1237,
      "duration": 0.1522,
      "velocity": 70,
      "chip": "ym2612"
    },
    {
      "channel": 2,
      "note": 80,
      "start": 7.2105,
      "duration": 0.1514,
      "velocity": 70,
      "chip": "ym2612"
    },
    {
      "channel": 1,
      "note": 84,
      "start": 7.2977,
      "duration": 0.1508,
      "velocity": 70,
      "chip": "ym2612"
    },
    {
      "channel": 2,
      "note": 84,
      "start": 7.3844,
      "duration": 0.1508,
      "velocity": 70,
      "chip": "ym2612"
    },
    {
      "channel": 1,
      "note": 85,
      "start": 7.4704,
      "duration": 0.1513,
      "velocity": 70,
      "chip": "ym2612"
    },
    {
      "channel": 2,
      "note": 85,
      "start": 7.5572,
      "duration": 0.1521,
      "velocity": 70,
      "chip": "ym2612"
    },
    {
      "channel": 1,
      "note": 84,
      "start": 7.6438,
      "duration": 0.1513,
      "velocity": 70,
      "chip": "ym2612"
    },
    {
      "channel": 2,
      "note": 84,
      "start": 7.7305,
      "duration": 0.1513,
      "velocity": 70,
      "chip": "ym2612"
    },
    {
      "channel": 1,
      "note": 80,
      "start": 7.8171,
      "duration": 0.1513,
      "velocity": 70,
      "chip": "ym2612"
    },
    {
      "channel": 2,
      "note": 80,
      "start": 7.9039,
      "duration": 0.1513,
      "velocity": 70,
      "chip": "ym2612"
    },
    {
      "channel": 1,
      "note": 75,
      "start": 7.9905,
      "duration": 0.1521,
      "velocity": 70,
      "chip": "ym2612"
    },
    {
      "channel": 2,
      "note": 75,
      "start": 8.0772,
      "duration": 0.1513,
      "velocity": 70,
      "chip": "ym2612"
    },
    {
      "channel": 1,
      "note": 80,
      "start": 8.1638,
      "duration": 0.1513,
      "velocity": 70,
      "chip": "ym2612"
    },
    {
      "channel": 2,
      "note": 80,
      "start": 8.2506,
      "duration": 0.1513,
      "velocity": 70,
      "chip": "ym2612"
    },
    {
      "channel": 1,
      "note": 85,
      "start": 8.3373,
      "duration": 0.1512,
      "velocity": 70,
      "chip": "ym2612"
    },
    {
      "channel": 3,
      "note": 41,
      "start": 8.338,
      "duration": 2.0576,
      "velocity": 108,
      "chip": "ym2612"
    },
    {
      "channel": 2,
      "note": 85,
      "start": 8.4241,
      "duration": 0.1518,
      "velocity": 70,
      "chip": "ym2612"
    },
    {
      "channel": 1,
      "note": 87,
      "start": 8.5105,
      "duration": 0.1513,
      "velocity": 70,
      "chip": "ym2612"
    },
    {
      "channel": 2,
      "note": 87,
      "start": 8.5973,
      "duration": 0.1513,
      "velocity": 70,
      "chip": "ym2612"
    },
    {
      "channel": 1,
      "note": 85,
      "start": 8.6839,
      "duration": 0.1513,
      "velocity": 70,
      "chip": "ym2612"
    },
    {
      "channel": 2,
      "note": 85,
      "start": 8.7706,
      "duration": 0.1513,
      "velocity": 70,
      "chip": "ym2612"
    },
    {
      "channel": 1,
      "note": 80,
      "start": 8.8572,
      "duration": 0.1519,
      "velocity": 70,
      "chip": "ym2612"
    },
    {
      "channel": 2,
      "note": 80,
      "start": 8.944,
      "duration": 0.1513,
      "velocity": 70,
      "chip": "ym2612"
    },
    {
      "channel": 1,
      "note": 77,
      "start": 9.0306,
      "duration": 0.1513,
      "velocity": 70,
      "chip": "ym2612"
    },
    {
      "channel": 2,
      "note": 77,
      "start": 9.1173,
      "duration": 0.1513,
      "velocity": 70,
      "chip": "ym2612"
    },
    {
      "channel": 1,
      "note": 80,
      "start": 9.2039,
      "duration": 0.1514,
      "velocity": 70,
      "chip": "ym2612"
    },
    {
      "channel": 2,
      "note": 80,
      "start": 9.2907,
      "duration": 0.152,
      "velocity": 70,
      "chip": "ym2612"
    },
    {
      "channel": 1,
      "note": 85,
      "start": 9.3773,
      "duration": 0.1513,
      "velocity": 70,
      "chip": "ym2612"
    },
    {
      "channel": 2,
      "note": 85,
      "start": 9.4641,
      "duration": 0.1513,
      "velocity": 70,
      "chip": "ym2612"
    },
    {
      "channel": 1,
      "note": 87,
      "start": 9.5507,
      "duration": 0.1513,
      "velocity": 70,
      "chip": "ym2612"
    },
    {
      "channel": 2,
      "note": 87,
      "start": 9.6373,
      "duration": 0.1514,
      "velocity": 70,
      "chip": "ym2612"
    },
    {
      "channel": 1,
      "note": 85,
      "start": 9.7239,
      "duration": 0.152,
      "velocity": 70,
      "chip": "ym2612"
    },
    {
      "channel": 2,
      "note": 85,
      "start": 9.8108,
      "duration": 0.1513,
      "velocity": 70,
      "chip": "ym2612"
    },
    {
      "channel": 1,
      "note": 80,
      "start": 9.8973,
      "duration": 0.1513,
      "velocity": 70,
      "chip": "ym2612"
    },
    {
      "channel": 2,
      "note": 80,
      "start": 9.9841,
      "duration": 0.1513,
      "velocity": 70,
      "chip": "ym2612"
    },
    {
      "channel": 1,
      "note": 77,
      "start": 10.0707,
      "duration": 0.1513,
      "velocity": 70,
      "chip": "ym2612"
    },
    {
      "channel": 2,
      "note": 77,
      "start": 10.1575,
      "duration": 0.1518,
      "velocity": 70,
      "chip": "ym2612"
    },
    {
      "channel": 1,
      "note": 80,
      "start": 10.244,
      "duration": 0.1513,
      "velocity": 70,
      "chip": "ym2612"
    },
    {
      "channel": 2,
      "note": 80,
      "start": 10.3307,
      "duration": 0.1514,
      "velocity": 70,
      "chip": "ym2612"
    },
    {
      "channel": 1,
      "note": 85,
      "start": 10.4175,
      "duration": 0.1512,
      "velocity": 70,
      "chip": "ym2612"
    },
    {
      "channel": 3,
      "note": 40,
      "start": 10.4182,
      "duration": 2.0579,
      "velocity": 108,
      "chip": "ym2612"
    },
    {
      "channel": 2,
      "note": 85,
      "start": 10.5042,
      "duration": 0.1513,
      "velocity": 70,
      "chip": "ym2612"
    },
    {
      "channel": 1,
      "note": 87,
      "start": 10.5907,
      "duration": 0.1517,
      "velocity": 70,
      "chip": "ym2612"
    },
    {
      "channel": 2,
      "note": 87,
      "start": 10.6775,
      "duration": 0.1513,
      "velocity": 70,
      "chip": "ym2612"
    },
    {
      "channel": 1,
      "note": 85,
      "start": 10.7641,
      "duration": 0.1513,
      "velocity": 70,
      "chip": "ym2612"
    },
    {
      "channel": 2,
      "note": 85,
      "start": 10.8508,
      "duration": 0.1513,
      "velocity": 70,
      "chip": "ym2612"
    },
    {
      "channel": 1,
      "note": 80,
      "start": 10.9374,
      "duration": 0.1513,
      "velocity": 70,
      "chip": "ym2612"
    },
    {
      "channel": 2,
      "note": 80,
      "start": 11.0242,
      "duration": 0.1517,
      "velocity": 70,
      "chip": "ym2612"
    },
    {
      "channel": 1,
      "note": 76,
      "start": 11.1108,
      "duration": 0.1513,
      "velocity": 70,
      "chip": "ym2612"
    },
    {
      "channel": 2,
      "note": 76,
      "start": 11.1975,
      "duration": 0.1513,
      "velocity": 70,
      "chip": "ym2612"
    },
    {
      "channel": 1,
      "note": 80,
      "start": 11.2841,
      "duration": 0.1513,
      "velocity": 70,
      "chip": "ym2612"
    },
    {
      "channel": 2,
      "note": 80,
      "start": 11.3709,
      "duration": 0.1513,
      "velocity": 70,
      "chip": "ym2612"
    },
    {
      "channel": 1,
      "note": 85,
      "start": 11.4575,
      "duration": 0.1517,
      "velocity": 70,
      "chip": "ym2612"
    },
    {
      "channel": 2,
      "note": 85,
      "start": 11.5442,
      "duration": 0.1513,
      "velocity": 70,
      "chip": "ym2612"
    },
    {
      "channel": 1,
      "note": 87,
      "start": 11.6308,
      "duration": 0.1513,
      "velocity": 70,
      "chip": "ym2612"
    },
    {
      "channel": 2,
      "note": 87,
      "start": 11.7176,
      "duration": 0.1513,
      "velocity": 70,
      "chip": "ym2612"
    },
    {
      "channel": 1,
      "note": 85,
      "start": 11.8042,
      "duration": 0.1513,
      "velocity": 70,
      "chip": "ym2612"
    },
    {
      "channel": 2,
      "note": 85,
      "start": 11.8909,
      "duration": 0.1517,
      "velocity": 70,
      "chip": "ym2612"
    },
    {
      "channel": 1,
      "note": 80,
      "start": 11.9775,
      "duration": 0.1513,
      "velocity": 70,
      "chip": "ym2612"
    },
    {
      "channel": 2,
      "note": 80,
      "start": 12.0643,
      "duration": 0.1513,
      "velocity": 70,
      "chip": "ym2612"
    },
    {
      "channel": 1,
      "note": 76,
      "start": 12.1509,
      "duration": 0.1513,
      "velocity": 70,
      "chip": "ym2612"
    },
    {
      "channel": 2,
      "note": 76,
      "start": 12.2376,
      "duration": 0.1513,
      "velocity": 70,
      "chip": "ym2612"
    },
    {
      "channel": 1,
      "note": 80,
      "start": 12.3242,
      "duration": 0.1517,
      "velocity": 70,
      "chip": "ym2612"
    },
    {
      "channel": 2,
      "note": 80,
      "start": 12.411,
      "duration": 0.1513,
      "velocity": 70,
      "chip": "ym2612"
    },
    {
      "channel": 1,
      "note": 84,
      "start": 12.4977,
      "duration": 0.1513,
      "velocity": 70,
      "chip": "ym2612"
    },
    {
      "channel": 3,
      "note": 39,
      "start": 12.4984,
      "duration": 2.0576,
      "velocity": 108,
      "chip": "ym2612"
    },
    {
      "channel": 2,
      "note": 84,
      "start": 12.5844,
      "duration": 0.1512,
      "velocity": 70,
      "chip": "ym2612"
    },
    {
      "channel": 1,
      "note": 85,
      "start": 12.671,
      "duration": 0.1513,
      "velocity": 70,
      "chip": "ym2612"
    },
    {
      "channel": 2,
      "note": 85,
      "start": 12.7577,
      "duration": 0.1515,
      "velocity": 70,
      "chip": "ym2612"
    },
    {
      "channel": 1,
      "note": 84,
      "start": 12.8443,
      "duration": 0.1513,
      "velocity": 70,
      "chip": "ym2612"
    },
    {
      "channel": 2,
      "note": 84,
      "start": 12.9311,
      "duration": 0.1513,
      "velocity": 70,
      "chip": "ym2612"
    },
    {
      "channel": 1,
      "note": 80,
      "start": 13.0176,
      "duration": 0.1513,
      "velocity": 70,
      "chip": "ym2612"
    },
    {
      "channel": 2,
      "note": 80,
      "start": 13.1044,
      "duration": 0.1513,
      "velocity": 70,
      "chip": "ym2612"
    },
    {
      "channel": 1,
      "note": 75,
      "start": 13.191,
      "duration": 0.1516,
      "velocity": 70,
      "chip": "ym2612"
    },
    {
      "channel": 2,
      "note": 75,
      "start": 13.2777,
      "duration": 0.1514,
      "velocity": 70,
      "chip": "ym2612"
    },
    {
      "channel": 1,
      "note": 80,
      "start": 13.3643,
      "duration": 0.1513,
      "velocity": 70,
      "chip": "ym2612"
    },
    {
      "channel": 2,
      "note": 80,
      "start": 13.451,
      "duration": 0.1514,
      "velocity": 70,
      "chip": "ym2612"
    },
    {
      "channel": 1,
      "note": 84,
      "start": 13.5377,
      "duration": 0.1513,
      "velocity": 70,
      "chip": "ym2612"
    },
    {
      "channel": 2,
      "note": 84,
      "start": 13.6244,
      "duration": 0.1515,
      "velocity": 70,
      "chip": "ym2612"
    },
    {
      "channel": 1,
      "note": 85,
      "start": 13.711,
      "duration": 0.1513,
      "velocity": 70,
      "chip": "ym2612"
    },
    {
      "channel": 2,
      "note": 85,
      "start": 13.7978,
      "duration": 0.1513,
      "velocity": 70,
      "chip": "ym2612"
    },
    {
      "channel": 1,
      "note": 84,
      "start": 13.8844,
      "duration": 0.1513,
      "velocity": 70,
      "chip": "ym2612"
    },
    {
      "channel": 2,
      "note": 84,
      "start": 13.9711,
      "duration": 0.1513,
      "velocity": 70,
      "chip": "ym2612"
    },
    {
      "channel": 1,
      "note": 80,
      "start": 14.0577,
      "duration": 0.1515,
      "velocity": 70,
      "chip": "ym2612"
    },
    {
      "channel": 2,
      "note": 80,
      "start": 14.1445,
      "duration": 0.1513,
      "velocity": 70,
      "chip": "ym2612"
    },
    {
      "channel": 1,
      "note": 75,
      "start": 14.2311,
      "duration": 0.1513,
      "velocity": 70,
      "chip": "ym2612"
    },
    {
      "channel": 2,
      "note": 75,
      "start": 14.3178,
      "duration": 0.1513,
      "velocity": 70,
      "chip": "ym2612"
    },
    {
      "channel": 1,
      "note": 80,
      "start": 14.4044,
      "duration": 0.1513,
      "velocity": 70,
      "chip": "ym2612"
    },
    {
      "channel": 2,
      "note": 80,
      "start": 14.4912,
      "duration": 0.1513,
      "velocity": 70,
      "chip": "ym2612"
    },
    {
      "channel": 1,
      "note": 82,
      "start": 14.5779,
      "duration": 0.1513,
      "velocity": 70,
      "chip": "ym2612"
    },
    {
      "channel": 3,
      "note": 38,
      "start": 14.5786,
      "duration": 2.0576,
      "velocity": 108,
      "chip": "ym2612"
    },
    {
      "channel": 2,
      "note": 82,
      "start": 14.6646,
      "duration": 0.1512,
      "velocity": 70,
      "chip": "ym2612"
    },
    {
      "channel": 1,
      "note": 84,
      "start": 14.7511,
      "duration": 0.1513,
      "velocity": 70,
      "chip": "ym2612"
    },
    {
      "channel": 2,
      "note": 84,
      "start": 14.8379,
      "duration": 0.1513,
      "velocity": 70,
      "chip": "ym2612"
    },
    {
      "channel": 1,
      "note": 82,
      "start": 14.9244,
      "duration": 0.1514,
      "velocity": 70,
      "chip": "ym2612"
    },
    {
      "channel": 2,
      "note": 82,
      "start": 15.0113,
      "duration": 0.1513,
      "velocity": 70,
      "chip": "ym2612"
    },
    {
      "channel": 1,
      "note": 77,
      "start": 15.0978,
      "duration": 0.1513,
      "velocity": 70,
      "chip": "ym2612"
    },
    {
      "channel": 2,
      "note": 77,
      "start": 15.1846,
      "duration": 0.1513,
      "velocity": 70,
      "chip": "ym2612"
    },
    {
      "channel": 1,
      "note": 74,
      "start": 15.2712,
      "duration": 0.1513,
      "velocity": 70,
      "chip": "ym2612"
    },
    {
      "channel": 2,
      "note": 74,
      "start": 15.358,
      "duration": 0.1513,
      "velocity": 70,
      "chip": "ym2612"
    },
    {
      "channel": 1,
      "note": 77,
      "start": 15.4445,
      "duration": 0.1514,
      "velocity": 70,
      "chip": "ym2612"
    },
    {
      "channel": 2,
      "note": 77,
      "start": 15.5313,
      "duration": 0.1513,
      "velocity": 70,
      "chip": "ym2612"
    },
    {
      "channel": 1,
      "note": 82,
      "start": 15.6179,
      "duration": 0.1513,
      "velocity": 70,
      "chip": "ym2612"
    },
    {
      "channel": 2,
      "note": 82,
      "start": 15.7046,
      "duration": 0.1513,
      "velocity": 70,
      "chip": "ym2612"
    },
    {
      "channel": 1,
      "note": 84,
      "start": 15.7912,
      "duration": 0.1513,
      "velocity": 70,
      "chip": "ym2612"
    },
    {
      "channel": 2,
      "note": 84,
      "start": 15.878,
      "duration": 0.1513,
      "velocity": 70,
      "chip": "ym2612"
    },
    {
      "channel": 1,
      "note": 82,
      "start": 15.9646,
      "duration": 0.1513,
      "velocity": 70,
      "chip": "ym2612"
    },
    {
      "channel": 2,
      "note": 82,
      "start": 16.0514,
      "duration": 0.1513,
      "velocity": 70,
      "chip": "ym2612"
    },
    {
      "channel": 1,
      "note": 77,
      "start": 16.1379,
      "duration": 0.1513,
      "velocity": 70,
      "chip": "ym2612"
    },
    {
      "channel": 2,
      "note": 77,
      "start": 16.2247,
      "duration": 0.1513,
      "velocity": 70,
      "chip": "ym2612"
    },
    {
      "channel": 1,
      "note": 74,
      "start": 16.3113,
      "duration": 0.1513,
      "velocity": 70,
      "chip": "ym2612"
    },
    {
      "channel": 2,
      "note": 74,
      "start": 16.398,
      "duration": 0.1513,
      "velocity": 70,
      "chip": "ym2612"
    },
    {
      "channel": 1,
      "note": 77,
      "start": 16.4846,
      "duration": 0.1513,
      "velocity": 70,
      "chip": "ym2612"
    },
    {
      "channel": 2,
      "note": 77,
      "start": 16.5714,
      "duration": 0.1513,
      "velocity": 70,
      "chip": "ym2612"
    },
    {
      "channel": 1,
      "note": 80,
      "start": 16.6582,
      "duration": 0.1511,
      "velocity": 70,
      "chip": "ym2612"
    },
    {
      "channel": 3,
      "note": 37,
      "start": 16.6588,
      "duration": 2.0576,
      "velocity": 108,
      "chip": "ym2612"
    },
    {
      "channel": 2,
      "note": 80,
      "start": 16.7449,
      "duration": 0.1512,
      "velocity": 70,
      "chip": "ym2612"
    },
    {
      "channel": 1,
      "note": 82,
      "start": 16.8313,
      "duration": 0.1513,
      "velocity": 70,
      "chip": "ym2612"
    },
    {
      "channel": 2,
      "note": 82,
      "start": 16.9181,
      "duration": 0.1513,
      "velocity": 70,
      "chip": "ym2612"
    },
    {
      "channel": 1,
      "note": 80,
      "start": 17.0046,
      "duration": 0.1513,
      "velocity": 70,
      "chip": "ym2612"
    },
    {
      "channel": 2,
      "note": 80,
      "start": 17.0915,
      "duration": 0.1513,
      "velocity": 70,
      "chip": "ym2612"
    },
    {
      "channel": 1,
      "note": 76,
      "start": 17.1781,
      "duration": 0.1513,
      "velocity": 70,
      "chip": "ym2612"
    },
    {
      "channel": 2,
      "note": 76,
      "start": 17.2648,
      "duration": 0.1513,
      "velocity": 70,
      "chip": "ym2612"
    },
    {
      "channel": 1,
      "note": 73,
      "start": 17.3514,
      "duration": 0.1513,
      "velocity": 70,
      "chip": "ym2612"
    },
    {
      "channel": 2,
      "note": 73,
      "start": 17.4381,
      "duration": 0.1513,
      "velocity": 70,
      "chip": "ym2612"
    },
    {
      "channel": 1,
      "note": 76,
      "start": 17.5248,
      "duration": 0.1513,
      "velocity": 70,
      "chip": "ym2612"
    },
    {
      "channel": 2,
      "note": 76,
      "start": 17.6115,
      "duration": 0.1513,
      "velocity": 70,
      "chip": "ym2612"
    },
    {
      "channel": 1,
      "note": 80,
      "start": 17.698,
      "duration": 0.1513,
      "velocity": 70,
      "chip": "ym2612"
    },
    {
      "channel": 2,
      "note": 80,
      "start": 17.7848,
      "duration": 0.1513,
      "velocity": 70,
      "chip": "ym2612"
    },
    {
      "channel": 1,
      "note": 82,
      "start": 17.8715,
      "duration": 0.1513,
      "velocity": 70,
      "chip": "ym2612"
    },
    {
      "channel": 2,
      "note": 82,
      "start": 17.9582,
      "duration": 0.1513,
      "velocity": 70,
      "chip": "ym2612"
    },
    {
      "channel": 1,
      "note": 80,
      "start": 18.0447,
      "duration": 0.1514,
      "velocity": 70,
      "chip": "ym2612"
    },
    {
      "channel": 2,
      "note": 80,
      "start": 18.1315,
      "duration": 0.1514,
      "velocity": 70,
      "chip": "ym2612"
    },
    {
      "channel": 1,
      "note": 76,
      "start": 18.2181,
      "duration": 0.1513,
      "velocity": 70,
      "chip": "ym2612"
    },
    {
      "channel": 2,
      "note": 76,
      "start": 18.3049,
      "duration": 0.1513,
      "velocity": 70,
      "chip": "ym2612"
    },
    {
      "channel": 1,
      "note": 73,
      "start": 18.3915,
      "duration": 0.1513,
      "velocity": 70,
      "chip": "ym2612"
    },
    {
      "channel": 2,
      "note": 73,
      "start": 18.4783,
      "duration": 0.1513,
      "velocity": 70,
      "chip": "ym2612"
    },
    {
      "channel": 1,
      "note": 76,
      "start": 18.5648,
      "duration": 0.1513,
      "velocity": 70,
      "chip": "ym2612"
    },
    {
      "channel": 2,
      "note": 76,
      "start": 18.6515,
      "duration": 0.1514,
      "velocity": 70,
      "chip": "ym2612"
    },
    {
      "channel": 1,
      "note": 80,
      "start": 18.7383,
      "duration": 0.1513,
      "velocity": 70,
      "chip": "ym2612"
    },
    {
      "channel": 3,
      "note": 39,
      "start": 18.739,
      "duration": 2.0576,
      "velocity": 108,
      "chip": "ym2612"
    },
    {
      "channel": 2,
      "note": 80,
      "start": 18.8251,
      "duration": 0.1511,
      "velocity": 70,
      "chip": "ym2612"
    },
    {
      "channel": 1,
      "note": 82,
      "start": 18.9115,
      "duration": 0.1513,
      "velocity": 70,
      "chip": "ym2612"
    },
    {
      "channel": 2,
      "note": 82,
      "start": 18.9982,
      "duration": 0.1514,
      "velocity": 70,
      "chip": "ym2612"
    },
    {
      "channel": 1,
      "note": 80,
      "start": 19.0849,
      "duration": 0.1513,
      "velocity": 70,
      "chip": "ym2612"
    },
    {
      "channel": 2,
      "note": 80,
      "start": 19.1716,
      "duration": 0.1513,
      "velocity": 70,
      "chip": "ym2612"
    },
    {
      "channel": 1,
      "note": 77,
      "start": 19.2582,
      "duration": 0.1513,
      "velocity": 70,
      "chip": "ym2612"
    },
    {
      "channel": 2,
      "note": 77,
      "start": 19.345,
      "duration": 0.1513,
      "velocity": 70,
      "chip": "ym2612"
    },
    {
      "channel": 1,
      "note": 73,
      "start": 19.4316,
      "duration": 0.1513,
      "velocity": 70,
      "chip": "ym2612"
    },
    {
      "channel": 2,
      "note": 73,
      "start": 19.5183,
      "duration": 0.1513,
      "velocity": 70,
      "chip": "ym2612"
    },
    {
      "channel": 1,
      "note": 77,
      "start": 19.6049,
      "duration": 0.1513,
      "velocity": 70,
      "chip": "ym2612"
    },
    {
      "channel": 2,
      "note": 77,
      "start": 19.6917,
      "duration": 0.1513,
      "velocity": 70,
      "chip": "ym2612"
    },
    {
      "channel": 1,
      "note": 80,
      "start": 19.7783,
      "duration": 0.1513,
      "velocity": 70,
      "chip": "ym2612"
    },
    {
      "channel": 2,
      "note": 80,
      "start": 19.865,
      "duration": 0.1513,
      "velocity": 70,
      "chip": "ym2612"
    },
    {
      "channel": 1,
      "note": 82,
      "start": 19.9516,
      "duration": 0.1513,
      "velocity": 70,
      "chip": "ym2612"
    },
    {
      "channel": 2,
      "note": 82,
      "start": 20.0384,
      "duration": 0.1513,
      "velocity": 70,
      "chip": "ym2612"
    },
    {
      "channel": 1,
      "note": 80,
      "start": 20.125,
      "duration": 0.1513,
      "velocity": 70,
      "chip": "ym2612"
    },
    {
      "channel": 2,
      "note": 80,
      "start": 20.2117,
      "duration": 0.1513,
      "velocity": 70,
      "chip": "ym2612"
    },
    {
      "channel": 1,
      "note": 77,
      "start": 20.2983,
      "duration": 0.1514,
      "velocity": 70,
      "chip": "ym2612"
    },
    {
      "channel": 2,
      "note": 77,
      "start": 20.3851,
      "duration": 0.1513,
      "velocity": 70,
      "chip": "ym2612"
    },
    {
      "channel": 1,
      "note": 73,
      "start": 20.4716,
      "duration": 0.1513,
      "velocity": 70,
      "chip": "ym2612"
    },
    {
      "channel": 2,
      "note": 73,
      "start": 20.5585,
      "duration": 0.1513,
      "velocity": 70,
      "chip": "ym2612"
    },
    {
      "channel": 1,
      "note": 77,
      "start": 20.645,
      "duration": 0.1514,
      "velocity": 70,
      "chip": "ym2612"
    },
    {
      "channel": 2,
      "note": 77,
      "start": 20.7318,
      "duration": 0.0993,
      "velocity": 70,
      "chip": "ym2612"
    },
    {
      "channel": 1,
      "note": 84,
      "start": 20.819,
      "duration": 0.024,
      "velocity": 70,
      "chip": "ym2612"
    },
    {
      "channel": 3,
      "note": 44,
      "start": 20.8197,
      "duration": 1.6881,
      "velocity": 108,
      "chip": "ym2612"
    },
    {
      "channel": 4,
      "note": 63,
      "start": 20.8223,
      "duration": 0.6455,
      "velocity": 100,
      "chip": "ym2612"
    },
    {
      "channel": 2,
      "note": 84,
      "start": 20.8347,
      "duration": 0.02,
      "velocity": 70,
      "chip": "ym2612"
    },
    {
      "channel": 1,
      "note": 85,
      "start": 20.846,
      "duration": 0.0207,
      "velocity": 70,
      "chip": "ym2612"
    },
    {
      "channel": 2,
      "note": 85,
      "start": 20.8584,
      "duration": 0.02,
      "velocity": 70,
      "chip": "ym2612"
    },
    {
      "channel": 1,
      "note": 84,
      "start": 20.8697,
      "duration": 0.0777,
      "velocity": 70,
      "chip": "ym2612"
    },
    {
      "channel": 2,
      "note": 84,
      "start": 20.8829,
      "duration": 0.1513,
      "velocity": 70,
      "chip": "ym2612"
    },
    {
      "channel": 1,
      "note": 80,
      "start": 20.9695,
      "duration": 0.1513,
      "velocity": 70,
      "chip": "ym2612"
    },
    {
      "channel": 2,
      "note": 80,
      "start": 21.0563,
      "duration": 0.1513,
      "velocity": 70,
      "chip": "ym2612"
    },
    {
      "channel": 1,
      "note": 75,
      "start": 21.1429,
      "duration": 0.1513,
      "velocity": 70,
      "chip": "ym2612"
    },
    {
      "channel": 2,
      "note": 75,
      "start": 21.2296,
      "duration": 0.1513,
      "velocity": 70,
      "chip": "ym2612"
    },
    {
      "channel": 1,
      "note": 80,
      "start": 21.3162,
      "duration": 0.1513,
      "velocity": 70,
      "chip": "ym2612"
    },
    {
      "channel": 2,
      "note": 80,
      "start": 21.403,
      "duration": 0.1513,
      "velocity": 70,
      "chip": "ym2612"
    },
    {
      "channel": 1,
      "note": 84,
      "start": 21.4901,
      "duration": 0.1508,
      "velocity": 70,
      "chip": "ym2612"
    },
    {
      "channel": 4,
      "note": 75,
      "start": 21.4908,
      "duration": 2.035,
      "velocity": 100,
      "chip": "ym2612"
    },
    {
      "channel": 2,
      "note": 84,
      "start": 21.5768,
      "duration": 0.1507,
      "velocity": 70,
      "chip": "ym2612"
    },
    {
      "channel": 1,
      "note": 85,
      "start": 21.6629,
      "duration": 0.1513,
      "velocity": 70,
      "chip": "ym2612"
    },
    {
      "channel": 2,
      "note": 85,
      "start": 21.7496,
      "duration": 0.1514,
      "velocity": 70,
      "chip": "ym2612"
    },
    {
      "channel": 1,
      "note": 84,
      "start": 21.8362,
      "duration": 0.1513,
      "velocity": 70,
      "chip": "ym2612"
    },
    {
      "channel": 2,
      "note": 84,
      "start": 21.9231,
      "duration": 0.1513,
      "velocity": 70,
      "chip": "ym2612"
    },
    {
      "channel": 1,
      "note": 80,
      "start": 22.0096,
      "duration": 0.1513,
      "velocity": 70,
      "chip": "ym2612"
    },
    {
      "channel": 2,
      "note": 80,
      "start": 22.0963,
      "duration": 0.1513,
      "velocity": 70,
      "chip": "ym2612"
    },
    {
      "channel": 1,
      "note": 75,
      "start": 22.1829,
      "duration": 0.1513,
      "velocity": 70,
      "chip": "ym2612"
    },
    {
      "channel": 2,
      "note": 75,
      "start": 22.2697,
      "duration": 0.1513,
      "velocity": 70,
      "chip": "ym2612"
    },
    {
      "channel": 1,
      "note": 80,
      "start": 22.3563,
      "duration": 0.1513,
      "velocity": 70,
      "chip": "ym2612"
    },
    {
      "channel": 2,
      "note": 80,
      "start": 22.443,
      "duration": 0.0973,
      "velocity": 70,
      "chip": "ym2612"
    },
    {
      "channel": 1,
      "note": 84,
      "start": 22.5302,
      "duration": 0.0224,
      "velocity": 70,
      "chip": "ym2612"
    },
    {
      "channel": 3,
      "note": 42,
      "start": 22.531,
      "duration": 1.6881,
      "velocity": 108,
      "chip": "ym2612"
    },
    {
      "channel": 2,
      "note": 84,
      "start": 22.5442,
      "duration": 0.02,
      "velocity": 70,
      "chip": "ym2612"
    },
    {
      "channel": 1,
      "note": 85,
      "start": 22.5556,
      "duration": 0.0204,
      "velocity": 70,
      "chip": "ym2612"
    },
    {
      "channel": 2,
      "note": 85,
      "start": 22.5671,
      "duration": 0.0212,
      "velocity": 70,
      "chip": "ym2612"
    },
    {
      "channel": 1,
      "note": 84,
      "start": 22.5798,
      "duration": 0.0789,
      "velocity": 70,
      "chip": "ym2612"
    },
    {
      "channel": 2,
      "note": 84,
      "start": 22.5942,
      "duration": 0.1513,
      "velocity": 70,
      "chip": "ym2612"
    },
    {
      "channel": 1,
      "note": 80,
      "start": 22.6808,
      "duration": 0.1513,
      "velocity": 70,
      "chip": "ym2612"
    },
    {
      "channel": 2,
      "note": 80,
      "start": 22.7675,
      "duration": 0.1513,
      "velocity": 70,
      "chip": "ym2612"
    },
    {
      "channel": 1,
      "note": 75,
      "start": 22.855,
      "duration": 0.1504,
      "velocity": 70,
      "chip": "ym2612"
    },
    {
      "channel": 2,
      "note": 75,
      "start": 22.9409,
      "duration": 0.1513,
      "velocity": 70,
      "chip": "ym2612"
    },
    {
      "channel": 1,
      "note": 80,
      "start": 23.0275,
      "duration": 0.1513,
      "velocity": 70,
      "chip": "ym2612"
    },
    {
      "channel": 2,
      "note": 80,
      "start": 23.1142,
      "duration": 0.1513,
      "velocity": 70,
      "chip": "ym2612"
    },
    {
      "channel": 1,
      "note": 84,
      "start": 23.2014,
      "duration": 0.1507,
      "velocity": 70,
      "chip": "ym2612"
    },
    {
      "channel": 2,
      "note": 84,
      "start": 23.2891,
      "duration": 0.1498,
      "velocity": 70,
      "chip": "ym2612"
    },
    {
      "channel": 1,
      "note": 85,
      "start": 23.3742,
      "duration": 0.1513,
      "velocity": 70,
      "chip": "ym2612"
    },
    {
      "channel": 2,
      "note": 85,
      "start": 23.461,
      "duration": 0.1513,
      "velocity": 70,
      "chip": "ym2612"
    },
    {
      "channel": 1,
      "note": 84,
      "start": 23.5475,
      "duration": 0.1513,
      "velocity": 70,
      "chip": "ym2612"
    },
    {
      "channel": 4,
      "note": 73,
      "start": 23.5482,
      "duration": 0.3243,
      "velocity": 100,
      "chip": "ym2612"
    },
    {
      "channel": 2,
      "note": 84,
      "start": 23.6342,
      "duration": 0.1513,
      "velocity": 70,
      "chip": "ym2612"
    },
    {
      "channel": 1,
      "note": 80,
      "start": 23.7218,
      "duration": 0.1504,
      "velocity": 70,
      "chip": "ym2612"
    },
    {
      "channel": 2,
      "note": 80,
      "start": 23.8076,
      "duration": 0.1513,
      "velocity": 70,
      "chip": "ym2612"
    },
    {
      "channel": 1,
      "note": 75,
      "start": 23.8942,
      "duration": 0.1513,
      "velocity": 70,
      "chip": "ym2612"
    },
    {
      "channel": 4,
      "note": 72,
      "start": 23.8949,
      "duration": 0.3244,
      "velocity": 100,
      "chip": "ym2612"
    },
    {
      "channel": 2,
      "note": 75,
      "start": 23.9809,
      "duration": 0.1513,
      "velocity": 70,
      "chip": "ym2612"
    },
    {
      "channel": 1,
      "note": 80,
      "start": 24.0676,
      "duration": 0.1513,
      "velocity": 70,
      "chip": "ym2612"
    },
    {
      "channel": 2,
      "note": 80,
      "start": 24.1552,
      "duration": 0.0957,
      "velocity": 70,
      "chip": "ym2612"
    },
    {
      "channel": 1,
      "note": 85,
      "start": 24.241,
      "duration": 0.0214,
      "velocity": 70,
      "chip": "ym2612"
    },
    {
      "channel": 3,
      "note": 41,
      "start": 24.2417,
      "duration": 1.689,
      "velocity": 108,
      "chip": "ym2612"
    },
    {
      "channel": 4,
      "note": 73,
      "start": 24.2423,
      "duration": 0.032,
      "velocity": 100,
      "chip": "ym2612"
    },
    {
      "channel": 2,
      "note": 85,
      "start": 24.254,
      "duration": 0.02,
      "velocity": 70,
      "chip": "ym2612"
    },
    {
      "channel": 1,
      "note": 87,
      "start": 24.2655,
      "duration": 0.0204,
      "velocity": 70,
      "chip": "ym2612"
    },
    {
      "channel": 2,
      "note": 87,
      "start": 24.2771,
      "duration": 0.021,
      "velocity": 70,
      "chip": "ym2612"
    },
    {
      "channel": 4,
      "note": 68,
      "start": 24.2777,
      "duration": 0.0149,
      "velocity": 100,
      "chip": "ym2612"
    },
    {
      "channel": 1,
      "note": 85,
      "start": 24.2897,
      "duration": 0.0806,
      "velocity": 70,
      "chip": "ym2612"
    },
    {
      "channel": 4,
      "note": 80,
      "start": 24.2956,
      "duration": 1.6352,
      "velocity": 100,
      "chip": "ym2612"
    },
    {
      "channel": 2,
      "note": 85,
      "start": 24.3058,
      "duration": 0.1513,
      "velocity": 70,
      "chip": "ym2612"
    },
    {
      "channel": 1,
      "note": 80,
      "start": 24.3924,
      "duration": 0.1513,
      "velocity": 70,
      "chip": "ym2612"
    },
    {
      "channel": 2,
      "note": 80,
      "start": 24.4791,
      "duration": 0.1513,
      "velocity": 70,
      "chip": "ym2612"
    },
    {
      "channel": 1,
      "note": 77,
      "start": 24.5657,
      "duration": 0.1513,
      "velocity": 70,
      "chip": "ym2612"
    },
    {
      "channel": 2,
      "note": 77,
      "start": 24.6533,
      "duration": 0.1505,
      "velocity": 70,
      "chip": "ym2612"
    },
    {
      "channel": 1,
      "note": 80,
      "start": 24.739,
      "duration": 0.1513,
      "velocity": 70,
      "chip": "ym2612"
    },
    {
      "channel": 2,
      "note": 80,
      "start": 24.8258,
      "duration": 0.1513,
      "velocity": 70,
      "chip": "ym2612"
    },
    {
      "channel": 1,
      "note": 85,
      "start": 24.9124,
      "duration": 0.1513,
      "velocity": 70,
      "chip": "ym2612"
    },
    {
      "channel": 2,
      "note": 85,
      "start": 24.9992,
      "duration": 0.1513,
      "velocity": 70,
      "chip": "ym2612"
    },
    {
      "channel": 1,
      "note": 87,
      "start": 25.0866,
      "duration": 0.1505,
      "velocity": 70,
      "chip": "ym2612"
    },
    {
      "channel": 2,
      "note": 87,
      "start": 25.1725,
      "duration": 0.1513,
      "velocity": 70,
      "chip": "ym2612"
    },
    {
      "channel": 1,
      "note": 85,
      "start": 25.2591,
      "duration": 0.1513,
      "velocity": 70,
      "chip": "ym2612"
    },
    {
      "channel": 2,
      "note": 85,
      "start": 25.3459,
      "duration": 0.1513,
      "velocity": 70,
      "chip": "ym2612"
    },
    {
      "channel": 1,
      "note": 80,
      "start": 25.4324,
      "duration": 0.1513,
      "velocity": 70,
      "chip": "ym2612"
    },
    {
      "channel": 2,
      "note": 80,
      "start": 25.52,
      "duration": 0.1506,
      "velocity": 70,
      "chip": "ym2612"
    },
    {
      "channel": 1,
      "note": 77,
      "start": 25.6059,
      "duration": 0.1513,
      "velocity": 70,
      "chip": "ym2612"
    },
    {
      "channel": 2,
      "note": 77,
      "start": 25.6926,
      "duration": 0.1513,
      "velocity": 70,
      "chip": "ym2612"
    },
    {
      "channel": 1,
      "note": 80,
      "start": 25.7792,
      "duration": 0.1513,
      "velocity": 70,
      "chip": "ym2612"
    },
    {
      "channel": 2,
      "note": 80,
      "start": 25.8659,
      "duration": 0.0966,
      "velocity": 70,
      "chip": "ym2612"
    },
    {
      "channel": 1,
      "note": 85,
      "start": 25.9532,
      "duration": 0.0216,
      "velocity": 70,
      "chip": "ym2612"
    },
    {
      "channel": 3,
      "note": 40,
      "start": 25.9539,
      "duration": 1.6886,
      "velocity": 108,
      "chip": "ym2612"
    },
    {
      "channel": 4,
      "note": 73,
      "start": 25.9545,
      "duration": 0.0322,
      "velocity": 100,
      "chip": "ym2612"
    },
    {
      "channel": 2,
      "note": 85,
      "start": 25.9663,
      "duration": 0.0202,
      "velocity": 70,
      "chip": "ym2612"
    },
    {
      "channel": 1,
      "note": 87,
      "start": 25.9778,
      "duration": 0.0206,
      "velocity": 70,
      "chip": "ym2612"
    },
    {
      "channel": 2,
      "note": 87,
      "start": 25.9896,
      "duration": 0.0209,
      "velocity": 70,
      "chip": "ym2612"
    },
    {
      "channel": 4,
      "note": 68,
      "start": 25.9902,
      "duration": 0.0148,
      "velocity": 100,
      "chip": "ym2612"
    },
    {
      "channel": 1,
      "note": 85,
      "start": 26.0013,
      "duration": 0.0807,
      "velocity": 70,
      "chip": "ym2612"
    },
    {
      "channel": 4,
      "note": 80,
      "start": 26.008,
      "duration": 0.9411,
      "velocity": 100,
      "chip": "ym2612"
    },
    {
      "channel": 2,
      "note": 85,
      "start": 26.018,
      "duration": 0.1508,
      "velocity": 70,
      "chip": "ym2612"
    },
    {
      "channel": 1,
      "note": 80,
      "start": 26.1041,
      "duration": 0.1513,
      "velocity": 70,
      "chip": "ym2612"
    },
    {
      "channel": 2,
      "note": 80,
      "start": 26.1909,
      "duration": 0.1513,
      "velocity": 70,
      "chip": "ym2612"
    },
    {
      "channel": 1,
      "note": 76,
      "start": 26.2774,
      "duration": 0.1513,
      "velocity": 70,
      "chip": "ym2612"
    },
    {
      "channel": 2,
      "note": 76,
      "start": 26.3641,
      "duration": 0.1513,
      "velocity": 70,
      "chip": "ym2612"
    },
    {
      "channel": 1,
      "note": 80,
      "start": 26.4514,
      "duration": 0.1507,
      "velocity": 70,
      "chip": "ym2612"
    },
    {
      "channel": 2,
      "note": 80,
      "start": 26.5375,
      "duration": 0.1514,
      "velocity": 70,
      "chip": "ym2612"
    },
    {
      "channel": 1,
      "note": 85,
      "start": 26.6241,
      "duration": 0.1513,
      "velocity": 70,
      "chip": "ym2612"
    },
    {
      "channel": 2,
      "note": 85,
      "start": 26.7109,
      "duration": 0.1513,
      "velocity": 70,
      "chip": "ym2612"
    },
    {
      "channel": 1,
      "note": 87,
      "start": 26.7975,
      "duration": 0.1513,
      "velocity": 70,
      "chip": "ym2612"
    },
    {
      "channel": 2,
      "note": 87,
      "start": 26.8848,
      "duration": 0.1508,
      "velocity": 70,
      "chip": "ym2612"
    },
    {
      "channel": 1,
      "note": 85,
      "start": 26.9708,
      "duration": 0.1513,
      "velocity": 70,
      "chip": "ym2612"
    },
    {
      "channel": 4,
      "note": 68,
      "start": 26.9715,
      "duration": 0.3243,
      "velocity": 100,
      "chip": "ym2612"
    },
    {
      "channel": 2,
      "note": 85,
      "start": 27.0576,
      "duration": 0.1513,
      "velocity": 70,
      "chip": "ym2612"
    },
    {
      "channel": 1,
      "note": 80,
      "start": 27.1442,
      "duration": 0.1513,
      "velocity": 70,
      "chip": "ym2612"
    },
    {
      "channel": 2,
      "note": 80,
      "start": 27.231,
      "duration": 0.1513,
      "velocity": 70,
      "chip": "ym2612"
    },
    {
      "channel": 1,
      "note": 76,
      "start": 27.3181,
      "duration": 0.1508,
      "velocity": 70,
      "chip": "ym2612"
    },
    {
      "channel": 4,
      "note": 70,
      "start": 27.3188,
      "duration": 0.3238,
      "velocity": 100,
      "chip": "ym2612"
    },
    {
      "channel": 2,
      "note": 76,
      "start": 27.4043,
      "duration": 0.1513,
      "velocity": 70,
      "chip": "ym2612"
    },
    {
      "channel": 1,
      "note": 80,
      "start": 27.4909,
      "duration": 0.1513,
      "velocity": 70,
      "chip": "ym2612"
    },
    {
      "channel": 2,
      "note": 80,
      "start": 27.5776,
      "duration": 0.0968,
      "velocity": 70,
      "chip": "ym2612"
    },
    {
      "channel": 1,
      "note": 84,
      "start": 27.6644,
      "duration": 0.0217,
      "velocity": 70,
      "chip": "ym2612"
    },
    {
      "channel": 3,
      "note": 39,
      "start": 27.665,
      "duration": 1.689,
      "velocity": 108,
      "chip": "ym2612"
    },
    {
      "channel": 4,
      "note": 72,
      "start": 27.6657,
      "duration": 0.3883,
      "velocity": 100,
      "chip": "ym2612"
    },
    {
      "channel": 2,
      "note": 84,
      "start": 27.6783,
      "duration": 0.0202,
      "velocity": 70,
      "chip": "ym2612"
    },
    {
      "channel": 1,
      "note": 85,
      "start": 27.6899,
      "duration": 0.0199,
      "velocity": 70,
      "chip": "ym2612"
    },
    {
      "channel": 2,
      "note": 85,
      "start": 27.7015,
      "duration": 0.02,
      "velocity": 70,
      "chip": "ym2612"
    },
    {
      "channel": 1,
      "note": 84,
      "start": 27.7129,
      "duration": 0.0807,
      "velocity": 70,
      "chip": "ym2612"
    },
    {
      "channel": 2,
      "note": 84,
      "start": 27.7291,
      "duration": 0.1513,
      "velocity": 70,
      "chip": "ym2612"
    },
    {
      "channel": 1,
      "note": 80,
      "start": 27.816,
      "duration": 0.151,
      "velocity": 70,
      "chip": "ym2612"
    },
    {
      "channel": 2,
      "note": 80,
      "start": 27.9024,
      "duration": 0.1514,
      "velocity": 70,
      "chip": "ym2612"
    },
    {
      "channel": 1,
      "note": 75,
      "start": 27.989,
      "duration": 0.1514,
      "velocity": 70,
      "chip": "ym2612"
    },
    {
      "channel": 2,
      "note": 75,
      "start": 28.0758,
      "duration": 0.1513,
      "velocity": 70,
      "chip": "ym2612"
    },
    {
      "channel": 4,
      "note": 68,
      "start": 28.0764,
      "duration": 0.7577,
      "velocity": 100,
      "chip": "ym2612"
    },
    {
      "channel": 1,
      "note": 80,
      "start": 28.1624,
      "duration": 0.1513,
      "velocity": 70,
      "chip": "ym2612"
    },
    {
      "channel": 2,
      "note": 80,
      "start": 28.2495,
      "duration": 0.151,
      "velocity": 70,
      "chip": "ym2612"
    },
    {
      "channel": 1,
      "note": 84,
      "start": 28.3357,
      "duration": 0.1513,
      "velocity": 70,
      "chip": "ym2612"
    },
    {
      "channel": 2,
      "note": 84,
      "start": 28.4224,
      "duration": 0.1513,
      "velocity": 70,
      "chip": "ym2612"
    },
    {
      "channel": 1,
      "note": 85,
      "start": 28.5091,
      "duration": 0.1513,
      "velocity": 70,
      "chip": "ym2612"
    },
    {
      "channel": 2,
      "note": 85,
      "start": 28.5958,
      "duration": 0.1514,
      "velocity": 70,
      "chip": "ym2612"
    },
    {
      "channel": 1,
      "note": 84,
      "start": 28.6828,
      "duration": 0.151,
      "velocity": 70,
      "chip": "ym2612"
    },
    {
      "channel": 2,
      "note": 84,
      "start": 28.7692,
      "duration": 0.1513,
      "velocity": 70,
      "chip": "ym2612"
    },
    {
      "channel": 1,
      "note": 80,
      "start": 28.8558,
      "duration": 0.1513,
      "velocity": 70,
      "chip": "ym2612"
    },
    {
      "channel": 4,
      "note": 63,
      "start": 28.8565,
      "duration": 0.4977,
      "velocity": 100,
      "chip": "ym2612"
    },
    {
      "channel": 2,
      "note": 80,
      "start": 28.9425,
      "duration": 0.1514,
      "velocity": 70,
      "chip": "ym2612"
    },
    {
      "channel": 1,
      "note": 75,
      "start": 29.0291,
      "duration": 0.1513,
      "velocity": 70,
      "chip": "ym2612"
    },
    {
      "channel": 2,
      "note": 75,
      "start": 29.1163,
      "duration": 0.151,
      "velocity": 70,
      "chip": "ym2612"
    },
    {
      "channel": 1,
      "note": 80,
      "start": 29.2025,
      "duration": 0.1513,
      "velocity": 70,
      "chip": "ym2612"
    },
    {
      "channel": 2,
      "note": 80,
      "start": 29.2892,
      "duration": 0.097,
      "velocity": 70,
      "chip": "ym2612"
    },
    {
      "channel": 1,
      "note": 82,
      "start": 29.3759,
      "duration": 0.0218,
      "velocity": 70,
      "chip": "ym2612"
    },
    {
      "channel": 3,
      "note": 38,
      "start": 29.3766,
      "duration": 1.6891,
      "velocity": 108,
      "chip": "ym2612"
    },
    {
      "channel": 4,
      "note": 65,
      "start": 29.3772,
      "duration": 0.3885,
      "velocity": 100,
      "chip": "ym2612"
    },
    {
      "channel": 2,
      "note": 82,
      "start": 29.3893,
      "duration": 0.02,
      "velocity": 70,
      "chip": "ym2612"
    },
    {
      "channel": 1,
      "note": 84,
      "start": 29.4014,
      "duration": 0.0201,
      "velocity": 70,
      "chip": "ym2612"
    },
    {
      "channel": 2,
      "note": 84,
      "start": 29.4132,
      "duration": 0.0198,
      "velocity": 70,
      "chip": "ym2612"
    },
    {
      "channel": 1,
      "note": 82,
      "start": 29.4244,
      "duration": 0.081,
      "velocity": 70,
      "chip": "ym2612"
    },
    {
      "channel": 2,
      "note": 82,
      "start": 29.4408,
      "duration": 0.1513,
      "velocity": 70,
      "chip": "ym2612"
    },
    {
      "channel": 1,
      "note": 77,
      "start": 29.5275,
      "duration": 0.1513,
      "velocity": 70,
      "chip": "ym2612"
    },
    {
      "channel": 2,
      "note": 77,
      "start": 29.6143,
      "duration": 0.1512,
      "velocity": 70,
      "chip": "ym2612"
    },
    {
      "channel": 1,
      "note": 74,
      "start": 29.7008,
      "duration": 0.1513,
      "velocity": 70,
      "chip": "ym2612"
    },
    {
      "channel": 2,
      "note": 74,
      "start": 29.7875,
      "duration": 0.1513,
      "velocity": 70,
      "chip": "ym2612"
    },
    {
      "channel": 4,
      "note": 70,
      "start": 29.7881,
      "duration": 0.7578,
      "velocity": 100,
      "chip": "ym2612"
    },
    {
      "channel": 1,
      "note": 77,
      "start": 29.8741,
      "duration": 0.1513,
      "velocity": 70,
      "chip": "ym2612"
    },
    {
      "channel": 2,
      "note": 77,
      "start": 29.9609,
      "duration": 0.1513,
      "velocity": 70,
      "chip": "ym2612"
    },
    {
      "channel": 1,
      "note": 82,
      "start": 30.0477,
      "duration": 0.1512,
      "velocity": 70,
      "chip": "ym2612"
    },
    {
      "channel": 2,
      "note": 82,
      "start": 30.1342,
      "duration": 0.1513,
      "velocity": 70,
      "chip": "ym2612"
    },
    {
      "channel": 1,
      "note": 84,
      "start": 30.2209,
      "duration": 0.1513,
      "velocity": 70,
      "chip": "ym2612"
    },
    {
      "channel": 2,
      "note": 84,
      "start": 30.3076,
      "duration": 0.1513,
      "velocity": 70,
      "chip": "ym2612"
    },
    {
      "channel": 1,
      "note": 82,
      "start": 30.3942,
      "duration": 0.1513,
      "velocity": 70,
      "chip": "ym2612"
    },
    {
      "channel": 2,
      "note": 82,
      "start": 30.4811,
      "duration": 0.1512,
      "velocity": 70,
      "chip": "ym2612"
    },
    {
      "channel": 1,
      "note": 77,
      "start": 30.5675,
      "duration": 0.1513,
      "velocity": 70,
      "chip": "ym2612"
    },
    {
      "channel": 4,
      "note": 77,
      "start": 30.5682,
      "duration": 0.4978,
      "velocity": 100,
      "chip": "ym2612"
    },
    {
      "channel": 2,
      "note": 77,
      "start": 30.6543,
      "duration": 0.1513,
      "velocity": 70,
      "chip": "ym2612"
    },
    {
      "channel": 1,
      "note": 74,
      "start": 30.7409,
      "duration": 0.1513,
      "velocity": 70,
      "chip": "ym2612"
    },
    {
      "channel": 2,
      "note": 74,
      "start": 30.8276,
      "duration": 0.1514,
      "velocity": 70,
      "chip": "ym2612"
    },
    {
      "channel": 1,
      "note": 77,
      "start": 30.9144,
      "duration": 0.1512,
      "velocity": 70,
      "chip": "ym2612"
    },
    {
      "channel": 2,
      "note": 77,
      "start": 31.001,
      "duration": 0.0966,
      "velocity": 70,
      "chip": "ym2612"
    },
    {
      "channel": 1,
      "note": 80,
      "start": 31.0877,
      "duration": 0.0216,
      "velocity": 70,
      "chip": "ym2612"
    },
    {
      "channel": 3,
      "note": 37,
      "start": 31.0884,
      "duration": 1.6888,
      "velocity": 108,
      "chip": "ym2612"
    },
    {
      "channel": 4,
      "note": 68,
      "start": 31.089,
      "duration": 1.6883,
      "velocity": 100,
      "chip": "ym2612"
    },
    {
      "channel": 2,
      "note": 80,
      "start": 31.1007,
      "duration": 0.0202,
      "velocity": 70,
      "chip": "ym2612"
    },
    {
      "channel": 1,
      "note": 82,
      "start": 31.1123,
      "duration": 0.0199,
      "velocity": 70,
      "chip": "ym2612"
    },
    {
      "channel": 2,
      "note": 82,
      "start": 31.1246,
      "duration": 0.0201,
      "velocity": 70,
      "chip": "ym2612"
    },
    {
      "channel": 1,
      "note": 80,
      "start": 31.1361,
      "duration": 0.0807,
      "velocity": 70,
      "chip": "ym2612"
    },
    {
      "channel": 2,
      "note": 80,
      "start": 31.1522,
      "duration": 0.1513,
      "velocity": 70,
      "chip": "ym2612"
    },
    {
      "channel": 1,
      "note": 76,
      "start": 31.2388,
      "duration": 0.1513,
      "velocity": 70,
      "chip": "ym2612"
    },
    {
      "channel": 2,
      "note": 76,
      "start": 31.3255,
      "duration": 0.1513,
      "velocity": 70,
      "chip": "ym2612"
    },
    {
      "channel": 1,
      "note": 73,
      "start": 31.4121,
      "duration": 0.1513,
      "velocity": 70,
      "chip": "ym2612"
    },
    {
      "channel": 2,
      "note": 73,
      "start": 31.4989,
      "duration": 0.1513,
      "velocity": 70,
      "chip": "ym2612"
    },
    {
      "channel": 1,
      "note": 76,
      "start": 31.5854,
      "duration": 0.1513,
      "velocity": 70,
      "chip": "ym2612"
    },
    {
      "channel": 2,
      "note": 76,
      "start": 31.6722,
      "duration": 0.1513,
      "velocity": 70,
      "chip": "ym2612"
    },
    {
      "channel": 1,
      "note": 80,
      "start": 31.7588,
      "duration": 0.1513,
      "velocity": 70,
      "chip": "ym2612"
    },
    {
      "channel": 2,
      "note": 80,
      "start": 31.8456,
      "duration": 0.1513,
      "velocity": 70,
      "chip": "ym2612"
    },
    {
      "channel": 1,
      "note": 82,
      "start": 31.9321,
      "duration": 0.1513,
      "velocity": 70,
      "chip": "ym2612"
    },
    {
      "channel": 2,
      "note": 82,
      "start": 32.0189,
      "duration": 0.1513,
      "velocity": 70,
      "chip": "ym2612"
    },
    {
      "channel": 1,
      "note": 80,
      "start": 32.1055,
      "duration": 0.1513,
      "velocity": 70,
      "chip": "ym2612"
    },
    {
      "channel": 2,
      "note": 80,
      "start": 32.1922,
      "duration": 0.1513,
      "velocity": 70,
      "chip": "ym2612"
    },
    {
      "channel": 1,
      "note": 76,
      "start": 32.2788,
      "duration": 0.1514,
      "velocity": 70,
      "chip": "ym2612"
    },
    {
      "channel": 2,
      "note": 76,
      "start": 32.3656,
      "duration": 0.1513,
      "velocity": 70,
      "chip": "ym2612"
    },
    {
      "channel": 1,
      "note": 73,
      "start": 32.4522,
      "duration": 0.1513,
      "velocity": 70,
      "chip": "ym2612"
    },
    {
      "channel": 2,
      "note": 73,
      "start": 32.5389,
      "duration": 0.1513,
      "velocity": 70,
      "chip": "ym2612"
    },
    {
      "channel": 1,
      "note": 76,
      "start": 32.6255,
      "duration": 0.1514,
      "velocity": 70,
      "chip": "ym2612"
    },
    {
      "channel": 2,
      "note": 76,
      "start": 32.7123,
      "duration": 0.0967,
      "velocity": 70,
      "chip": "ym2612"
    },
    {
      "channel": 1,
      "note": 80,
      "start": 32.799,
      "duration": 0.0214,
      "velocity": 70,
      "chip": "ym2612"
    },
    {
      "channel": 3,
      "note": 39,
      "start": 32.7997,
      "duration": 0.3016,
      "velocity": 108,
      "chip": "ym2612"
    },
    {
      "channel": 4,
      "note": 70,
      "start": 32.8003,
      "duration": 0.0685,
      "velocity": 100,
      "chip": "ym2612"
    },
    {
      "channel": 2,
      "note": 80,
      "start": 32.812,
      "duration": 0.02,
      "velocity": 70,
      "chip": "ym2612"
    },
    {
      "channel": 1,
      "note": 82,
      "start": 32.8234,
      "duration": 0.0213,
      "velocity": 70,
      "chip": "ym2612"
    },
    {
      "channel": 2,
      "note": 82,
      "start": 32.8359,
      "duration": 0.0202,
      "velocity": 70,
      "chip": "ym2612"
    },
    {
      "channel": 1,
      "note": 80,
      "start": 32.8484,
      "duration": 0.0201,
      "velocity": 70,
      "chip": "ym2612"
    },
    {
      "channel": 2,
      "note": 80,
      "start": 32.8601,
      "duration": 0.0241,
      "velocity": 70,
      "chip": "ym2612"
    },
    {
      "channel": 1,
      "note": 77,
      "start": 32.8726,
      "duration": 0.0231,
      "velocity": 70,
      "chip": "ym2612"
    },
    {
      "channel": 4,
      "note": 73,
      "start": 32.8733,
      "duration": 0.0748,
      "velocity": 100,
      "chip": "ym2612"
    },
    {
      "channel": 2,
      "note": 77,
      "start": 32.8871,
      "duration": 0.0199,
      "velocity": 70,
      "chip": "ym2612"
    },
    {
      "channel": 1,
      "note": 73,
      "start": 32.8985,
      "duration": 0.0208,
      "velocity": 70,
      "chip": "ym2612"
    },
    {
      "channel": 2,
      "note": 73,
      "start": 32.911,
      "duration": 0.0246,
      "velocity": 70,
      "chip": "ym2612"
    },
    {
      "channel": 1,
      "note": 77,
      "start": 32.9236,
      "duration": 0.0242,
      "velocity": 70,
      "chip": "ym2612"
    },
    {
      "channel": 2,
      "note": 77,
      "start": 32.9386,
      "duration": 0.0221,
      "velocity": 70,
      "chip": "ym2612"
    },
    {
      "channel": 1,
      "note": 80,
      "start": 32.9509,
      "duration": 0.0215,
      "velocity": 70,
      "chip": "ym2612"
    },
    {
      "channel": 4,
      "note": 77,
      "start": 32.9516,
      "duration": 0.0721,
      "velocity": 100,
      "chip": "ym2612"
    },
    {
      "channel": 2,
      "note": 80,
      "start": 32.9636,
      "duration": 0.0206,
      "velocity": 70,
      "chip": "ym2612"
    },
    {
      "channel": 1,
      "note": 82,
      "start": 32.9763,
      "duration": 0.022,
      "velocity": 70,
      "chip": "ym2612"
    },
    {
      "channel": 2,
      "note": 82,
      "start": 32.9889,
      "duration": 0.0221,
      "velocity": 70,
      "chip": "ym2612"
    },
    {
      "channel": 1,
      "note": 80,
      "start": 33.0014,
      "duration": 0.0219,
      "velocity": 70,
      "chip": "ym2612"
    },
    {
      "channel": 2,
      "note": 80,
      "start": 33.0141,
      "duration": 0.0094,
      "velocity": 70,
      "chip": "ym2612"
    },
    {
      "channel": 1,
      "note": 80,
      "start": 33.028,
      "duration": 0.0357,
      "velocity": 97,
      "chip": "ym2612"
    },
    {
      "channel": 2,
      "note": 75,
      "start": 33.0299,
      "duration": 0.034,
      "velocity": 97,
      "chip": "ym2612"
    },
    {
      "channel": 4,
      "note": 80,
      "start": 33.0305,
      "duration": 0.0709,
      "velocity": 100,
      "chip": "ym2612"
    },
    {
      "channel": 1,
      "note": 84,
      "start": 33.0671,
      "duration": 0.0153,
      "velocity": 97,
      "chip": "ym2612"
    },
    {
      "channel": 2,
      "note": 80,
      "start": 33.0676,
      "duration": 0.0149,
      "velocity": 97,
      "chip": "ym2612"
    },
    {
      "channel": 1,
      "note": 85,
      "start": 33.0861,
      "duration": 0.0149,
      "velocity": 97,
      "chip": "ym2612"
    },
    {
      "channel": 2,
      "note": 82,
      "start": 33.0866,
      "duration": 0.0146,
      "velocity": 97,
      "chip": "ym2612"
    },
    {
      "channel": 1,
      "note": 87,
      "start": 33.1051,
      "duration": 0.1797,
      "velocity": 97,
      "chip": "ym2612"
    },
    {
      "channel": 2,
      "note": 84,
      "start": 33.1058,
      "duration": 0.1792,
      "velocity": 97,
      "chip": "ym2612"
    },
    {
      "channel": 3,
      "note": 56,
      "start": 33.1082,
      "duration": 0.0158,
      "velocity": 88,
      "chip": "ym2612"
    },
    {
      "channel": 4,
      "note": 75,
      "start": 33.1102,
      "duration": 0.139,
      "velocity": 100,
      "chip": "ym2612"
    },
    {
      "channel": 3,
      "note": 56,
      "start": 33.1442,
      "duration": 0.015,
      "velocity": 88,
      "chip": "ym2612"
    },
    {
      "channel": 3,
      "note": 56,
      "start": 33.1967,
      "duration": 0.0317,
      "velocity": 88,
      "chip": "ym2612"
    },
    {
      "channel": 3,
      "note": 56,
      "start": 33.2527,
      "duration": 0.0147,
      "velocity": 88,
      "chip": "ym2612"
    },
    {
      "channel": 4,
      "note": 72,
      "start": 33.2532,
      "duration": 0.142,
      "velocity": 100,
      "chip": "ym2612"
    },
    {
      "channel": 1,
      "note": 87,
      "start": 33.2897,
      "duration": 0.0319,
      "velocity": 97,
      "chip": "ym2612"
    },
    {
      "channel": 2,
      "note": 84,
      "start": 33.2902,
      "duration": 0.0315,
      "velocity": 97,
      "chip": "ym2612"
    },
    {
      "channel": 1,
      "note": 85,
      "start": 33.3246,
      "duration": 0.0323,
      "velocity": 97,
      "chip": "ym2612"
    },
    {
      "channel": 2,
      "note": 82,
      "start": 33.3251,
      "duration": 0.032,
      "velocity": 97,
      "chip": "ym2612"
    },
    {
      "channel": 3,
      "note": 56,
      "start": 33.3256,
      "duration": 0.0149,
      "velocity": 88,
      "chip": "ym2612"
    },
    {
      "channel": 1,
      "note": 84,
      "start": 33.3616,
      "duration": 0.015,
      "velocity": 97,
      "chip": "ym2612"
    },
    {
      "channel": 2,
      "note": 80,
      "start": 33.3621,
      "duration": 0.0146,
      "velocity": 97,
      "chip": "ym2612"
    },
    {
      "channel": 1,
      "note": 82,
      "start": 33.3806,
      "duration": 0.2673,
      "velocity": 97,
      "chip": "ym2612"
    },
    {
      "channel": 2,
      "note": 79,
      "start": 33.3811,
      "duration": 0.2669,
      "velocity": 97,
      "chip": "ym2612"
    },
    {
      "channel": 3,
      "note": 55,
      "start": 33.4024,
      "duration": 0.0154,
      "velocity": 88,
      "chip": "ym2612"
    },
    {
      "channel": 4,
      "note": 75,
      "start": 33.403,
      "duration": 0.1365,
      "velocity": 100,
      "chip": "ym2612"
    },
    {
      "channel": 3,
      "note": 55,
      "start": 33.4387,
      "duration": 0.0139,
      "velocity": 88,
      "chip": "ym2612"
    },
    {
      "channel": 3,
      "note": 55,
      "start": 33.4895,
      "duration": 0.0294,
      "velocity": 88,
      "chip": "ym2612"
    },
    {
      "channel": 3,
      "note": 55,
      "start": 33.5441,
      "duration": 0.0149,
      "velocity": 88,
      "chip": "ym2612"
    },
    {
      "channel": 4,
      "note": 70,
      "start": 33.5446,
      "duration": 0.1424,
      "velocity": 100,
      "chip": "ym2612"
    },
    {
      "channel": 3,
      "note": 55,
      "start": 33.6162,
      "duration": 0.0151,
      "velocity": 88,
      "chip": "ym2612"
    },
    {
      "channel": 1,
      "note": 80,
      "start": 33.6525,
      "duration": 0.0149,
      "velocity": 97,
      "chip": "ym2612"
    },
    {
      "channel": 2,
      "note": 77,
      "start": 33.653,
      "duration": 0.0145,
      "velocity": 97,
      "chip": "ym2612"
    },
    {
      "channel": 3,
      "note": 51,
      "start": 33.6536,
      "duration": 0.0142,
      "velocity": 88,
      "chip": "ym2612"
    },
    {
      "channel": 1,
      "note": 82,
      "start": 33.6706,
      "duration": 0.0161,
      "velocity": 97,
      "chip": "ym2612"
    },
    {
      "channel": 2,
      "note": 79,
      "start": 33.6711,
      "duration": 0.0157,
      "velocity": 97,
      "chip": "ym2612"
    },
    {
      "channel": 3,
      "note": 52,
      "start": 33.6716,
      "duration": 0.0154,
      "velocity": 88,
      "chip": "ym2612"
    },
    {
      "channel": 1,
      "note": 84,
      "start": 33.692,
      "duration": 0.1764,
      "velocity": 97,
      "chip": "ym2612"
    },
    {
      "channel": 2,
      "note": 80,
      "start": 33.6926,
      "duration": 0.176,
      "velocity": 97,
      "chip": "ym2612"
    },
    {
      "channel": 3,
      "note": 53,
      "start": 33.6932,
      "duration": 0.0155,
      "velocity": 88,
      "chip": "ym2612"
    },
    {
      "channel": 4,
      "note": 72,
      "start": 33.6938,
      "duration": 0.1382,
      "velocity": 100,
      "chip": "ym2612"
    },
    {
      "channel": 3,
      "note": 53,
      "start": 33.7296,
      "duration": 0.014,
      "velocity": 88,
      "chip": "ym2612"
    },
    {
      "channel": 3,
      "note": 53,
      "start": 33.7808,
      "duration": 0.0307,
      "velocity": 88,
      "chip": "ym2612"
    },
    {
      "channel": 3,
      "note": 53,
      "start": 33.8365,
      "duration": 0.0149,
      "velocity": 88,
      "chip": "ym2612"
    },
    {
      "channel": 4,
      "note": 68,
      "start": 33.837,
      "duration": 0.1427,
      "velocity": 100,
      "chip": "ym2612"
    },
    {
      "channel": 1,
      "note": 84,
      "start": 33.8733,
      "duration": 0.0324,
      "velocity": 97,
      "chip": "ym2612"
    },
    {
      "channel": 2,
      "note": 80,
      "start": 33.8738,
      "duration": 0.0321,
      "velocity": 97,
      "chip": "ym2612"
    },
    {
      "channel": 1,
      "note": 82,
      "start": 33.9088,
      "duration": 0.032,
      "velocity": 97,
      "chip": "ym2612"
    },
    {
      "channel": 2,
      "note": 79,
      "start": 33.9093,
      "duration": 0.0316,
      "velocity": 97,
      "chip": "ym2612"
    },
    {
      "channel": 3,
      "note": 53,
      "start": 33.9098,
      "duration": 0.014,
      "velocity": 88,
      "chip": "ym2612"
    },
    {
      "channel": 1,
      "note": 80,
      "start": 33.9456,
      "duration": 0.0156,
      "velocity": 97,
      "chip": "ym2612"
    },
    {
      "channel": 2,
      "note": 77,
      "start": 33.9461,
      "duration": 0.0152,
      "velocity": 97,
      "chip": "ym2612"
    },
    {
      "channel": 1,
      "note": 79,
      "start": 33.9639,
      "duration": 0.272,
      "velocity": 97,
      "chip": "ym2612"
    },
    {
      "channel": 2,
      "note": 75,
      "start": 33.9644,
      "duration": 0.2717,
      "velocity": 97,
      "chip": "ym2612"
    },
    {
      "channel": 3,
      "note": 48,
      "start": 33.9859,
      "duration": 0.0156,
      "velocity": 88,
      "chip": "ym2612"
    },
    {
      "channel": 4,
      "note": 72,
      "start": 33.9865,
      "duration": 0.1415,
      "velocity": 100,
      "chip": "ym2612"
    },
    {
      "channel": 3,
      "note": 48,
      "start": 34.023,
      "duration": 0.0141,
      "velocity": 88,
      "chip": "ym2612"
    },
    {
      "channel": 3,
      "note": 48,
      "start": 34.0749,
      "duration": 0.0324,
      "velocity": 88,
      "chip": "ym2612"
    },
    {
      "channel": 3,
      "note": 48,
      "start": 34.1326,
      "duration": 0.0158,
      "velocity": 88,
      "chip": "ym2612"
    },
    {
      "channel": 4,
      "note": 67,
      "start": 34.1331,
      "duration": 0.1415,
      "velocity": 100,
      "chip": "ym2612"
    },
    {
      "channel": 3,
      "note": 48,
      "start": 34.2045,
      "duration": 0.0144,
      "velocity": 88,
      "chip": "ym2612"
    },
    {
      "channel": 1,
      "note": 75,
      "start": 34.2407,
      "duration": 0.0335,
      "velocity": 97,
      "chip": "ym2612"
    },
    {
      "channel": 2,
      "note": 72,
      "start": 34.2412,
      "duration": 0.0332,
      "velocity": 97,
      "chip": "ym2612"
    },
    {
      "channel": 1,
      "note": 77,
      "start": 34.2807,
      "duration": 0.0522,
      "velocity": 97,
      "chip": "ym2612"
    },
    {
      "channel": 2,
      "note": 73,
      "start": 34.2814,
      "duration": 0.0518,
      "velocity": 97,
      "chip": "ym2612"
    },
    {
      "channel": 3,
      "note": 49,
      "start": 34.282,
      "duration": 0.0146,
      "velocity": 88,
      "chip": "ym2612"
    },
    {
      "channel": 4,
      "note": 68,
      "start": 34.2826,
      "duration": 0.1403,
      "velocity": 100,
      "chip": "ym2612"
    },
    {
      "channel": 3,
      "note": 49,
      "start": 34.3183,
      "duration": 0.015,
      "velocity": 88,
      "chip": "ym2612"
    },
    {
      "channel": 1,
      "note": 84,
      "start": 34.3361,
      "duration": 0.0489,
      "velocity": 97,
      "chip": "ym2612"
    },
    {
      "channel": 2,
      "note": 80,
      "start": 34.3366,
      "duration": 0.0485,
      "velocity": 97,
      "chip": "ym2612"
    },
    {
      "channel": 3,
      "note": 49,
      "start": 34.3715,
      "duration": 0.0313,
      "velocity": 88,
      "chip": "ym2612"
    },
    {
      "channel": 1,
      "note": 82,
      "start": 34.3907,
      "duration": 0.0696,
      "velocity": 97,
      "chip": "ym2612"
    },
    {
      "channel": 2,
      "note": 79,
      "start": 34.3912,
      "duration": 0.0692,
      "velocity": 97,
      "chip": "ym2612"
    },
    {
      "channel": 3,
      "note": 49,
      "start": 34.4279,
      "duration": 0.0154,
      "velocity": 88,
      "chip": "ym2612"
    },
    {
      "channel": 4,
      "note": 68,
      "start": 34.4284,
      "duration": 0.1403,
      "velocity": 100,
      "chip": "ym2612"
    },
    {
      "channel": 1,
      "note": 79,
      "start": 34.4653,
      "duration": 0.0659,
      "velocity": 97,
      "chip": "ym2612"
    },
    {
      "channel": 2,
      "note": 75,
      "start": 34.4657,
      "duration": 0.0656,
      "velocity": 97,
      "chip": "ym2612"
    },
    {
      "channel": 3,
      "note": 49,
      "start": 34.4998,
      "duration": 0.015,
      "velocity": 88,
      "chip": "ym2612"
    },
    {
      "channel": 1,
      "note": 77,
      "start": 34.5361,
      "duration": 0.0322,
      "velocity": 97,
      "chip": "ym2612"
    },
    {
      "channel": 2,
      "note": 73,
      "start": 34.5366,
      "duration": 0.0319,
      "velocity": 97,
      "chip": "ym2612"
    },
    {
      "channel": 1,
      "note": 75,
      "start": 34.5756,
      "duration": 0.0517,
      "velocity": 97,
      "chip": "ym2612"
    },
    {
      "channel": 2,
      "note": 72,
      "start": 34.5762,
      "duration": 0.0512,
      "velocity": 97,
      "chip": "ym2612"
    },
    {
      "channel": 3,
      "note": 48,
      "start": 34.5768,
      "duration": 0.0292,
      "velocity": 88,
      "chip": "ym2612"
    },
    {
      "channel": 4,
      "note": 67,
      "start": 34.5774,
      "duration": 0.1407,
      "velocity": 100,
      "chip": "ym2612"
    },
    {
      "channel": 1,
      "note": 82,
      "start": 34.6304,
      "duration": 0.0486,
      "velocity": 97,
      "chip": "ym2612"
    },
    {
      "channel": 2,
      "note": 79,
      "start": 34.6309,
      "duration": 0.0483,
      "velocity": 97,
      "chip": "ym2612"
    },
    {
      "channel": 3,
      "note": 55,
      "start": 34.6313,
      "duration": 0.0285,
      "velocity": 88,
      "chip": "ym2612"
    },
    {
      "channel": 1,
      "note": 80,
      "start": 34.685,
      "duration": 0.0685,
      "velocity": 97,
      "chip": "ym2612"
    },
    {
      "channel": 2,
      "note": 77,
      "start": 34.6855,
      "duration": 0.068,
      "velocity": 97,
      "chip": "ym2612"
    },
    {
      "channel": 3,
      "note": 54,
      "start": 34.6861,
      "duration": 0.0152,
      "velocity": 88,
      "chip": "ym2612"
    },
    {
      "channel": 3,
      "note": 53,
      "start": 34.7222,
      "duration": 0.0288,
      "velocity": 88,
      "chip": "ym2612"
    },
    {
      "channel": 4,
      "note": 72,
      "start": 34.7227,
      "duration": 0.103,
      "velocity": 100,
      "chip": "ym2612"
    },
    {
      "channel": 1,
      "note": 80,
      "start": 34.759,
      "duration": 0.0662,
      "velocity": 97,
      "chip": "ym2612"
    },
    {
      "channel": 2,
      "note": 77,
      "start": 34.7595,
      "duration": 0.0658,
      "velocity": 97,
      "chip": "ym2612"
    },
    {
      "channel": 3,
      "note": 60,
      "start": 34.7936,
      "duration": 0.032,
      "velocity": 88,
      "chip": "ym2612"
    },
    {
      "channel": 1,
      "note": 82,
      "start": 34.8302,
      "duration": 0.0326,
      "velocity": 97,
      "chip": "ym2612"
    },
    {
      "channel": 2,
      "note": 79,
      "start": 34.8307,
      "duration": 0.0322,
      "velocity": 97,
      "chip": "ym2612"
    },
    {
      "channel": 3,
      "note": 59,
      "start": 34.8312,
      "duration": 0.0318,
      "velocity": 88,
      "chip": "ym2612"
    },
    {
      "channel": 4,
      "note": 77,
      "start": 34.8317,
      "duration": 0.0315,
      "velocity": 100,
      "chip": "ym2612"
    },
    {
      "channel": 1,
      "note": 84,
      "start": 34.8666,
      "duration": 0.177,
      "velocity": 97,
      "chip": "ym2612"
    },
    {
      "channel": 2,
      "note": 80,
      "start": 34.8673,
      "duration": 0.1765,
      "velocity": 97,
      "chip": "ym2612"
    },
    {
      "channel": 3,
      "note": 58,
      "start": 34.8679,
      "duration": 0.0151,
      "velocity": 88,
      "chip": "ym2612"
    },
    {
      "channel": 4,
      "note": 73,
      "start": 34.8685,
      "duration": 0.2129,
      "velocity": 100,
      "chip": "ym2612"
    },
    {
      "channel": 3,
      "note": 58,
      "start": 34.9037,
      "duration": 0.015,
      "velocity": 88,
      "chip": "ym2612"
    },
    {
      "channel": 3,
      "note": 58,
      "start": 34.9555,
      "duration": 0.0311,
      "velocity": 88,
      "chip": "ym2612"
    },
    {
      "channel": 3,
      "note": 58,
      "start": 35.0116,
      "duration": 0.0146,
      "velocity": 88,
      "chip": "ym2612"
    },
    {
      "channel": 1,
      "note": 84,
      "start": 35.0483,
      "duration": 0.0327,
      "velocity": 97,
      "chip": "ym2612"
    },
    {
      "channel": 2,
      "note": 80,
      "start": 35.0489,
      "duration": 0.0323,
      "velocity": 97,
      "chip": "ym2612"
    },
    {
      "channel": 1,
      "note": 82,
      "start": 35.0841,
      "duration": 0.0322,
      "velocity": 97,
      "chip": "ym2612"
    },
    {
      "channel": 2,
      "note": 79,
      "start": 35.0846,
      "duration": 0.0318,
      "velocity": 97,
      "chip": "ym2612"
    },
    {
      "channel": 3,
      "note": 58,
      "start": 35.0852,
      "duration": 0.0286,
      "velocity": 88,
      "chip": "ym2612"
    },
    {
      "channel": 4,
      "note": 72,
      "start": 35.0857,
      "duration": 0.031,
      "velocity": 100,
      "chip": "ym2612"
    },
    {
      "channel": 1,
      "note": 80,
      "start": 35.1208,
      "duration": 0.0154,
      "velocity": 97,
      "chip": "ym2612"
    },
    {
      "channel": 2,
      "note": 77,
      "start": 35.1213,
      "duration": 0.015,
      "velocity": 97,
      "chip": "ym2612"
    },
    {
      "channel": 3,
      "note": 56,
      "start": 35.1218,
      "duration": 0.0302,
      "velocity": 88,
      "chip": "ym2612"
    },
    {
      "channel": 4,
      "note": 73,
      "start": 35.1224,
      "duration": 0.0325,
      "velocity": 100,
      "chip": "ym2612"
    },
    {
      "channel": 1,
      "note": 82,
      "start": 35.1392,
      "duration": 0.0154,
      "velocity": 97,
      "chip": "ym2612"
    },
    {
      "channel": 2,
      "note": 78,
      "start": 35.1397,
      "duration": 0.1599,
      "velocity": 97,
      "chip": "ym2612"
    },
    {
      "channel": 1,
      "note": 82,
      "start": 35.1605,
      "duration": 0.2079,
      "velocity": 97,
      "chip": "ym2612"
    },
    {
      "channel": 3,
      "note": 54,
      "start": 35.1615,
      "duration": 0.0156,
      "velocity": 88,
      "chip": "ym2612"
    },
    {
      "channel": 4,
      "note": 73,
      "start": 35.1621,
      "duration": 0.1018,
      "velocity": 100,
      "chip": "ym2612"
    },
    {
      "channel": 3,
      "note": 54,
      "start": 35.1983,
      "duration": 0.0141,
      "velocity": 88,
      "chip": "ym2612"
    },
    {
      "channel": 3,
      "note": 54,
      "start": 35.25,
      "duration": 0.0291,
      "velocity": 88,
      "chip": "ym2612"
    },
    {
      "channel": 4,
      "note": 72,
      "start": 35.2674,
      "duration": 0.0154,
      "velocity": 100,
      "chip": "ym2612"
    },
    {
      "channel": 4,
      "note": 73,
      "start": 35.2858,
      "duration": 0.014,
      "velocity": 100,
      "chip": "ym2612"
    },
    {
      "channel": 2,
      "note": 79,
      "start": 35.3038,
      "duration": 0.0647,
      "velocity": 97,
      "chip": "ym2612"
    },
    {
      "channel": 3,
      "note": 51,
      "start": 35.3043,
      "duration": 0.0262,
      "velocity": 88,
      "chip": "ym2612"
    },
    {
      "channel": 4,
      "note": 75,
      "start": 35.3048,
      "duration": 0.1429,
      "velocity": 100,
      "chip": "ym2612"
    },
    {
      "channel": 1,
      "note": 82,
      "start": 35.3743,
      "duration": 0.0358,
      "velocity": 97,
      "chip": "ym2612"
    },
    {
      "channel": 2,
      "note": 75,
      "start": 35.3749,
      "duration": 0.0354,
      "velocity": 97,
      "chip": "ym2612"
    },
    {
      "channel": 3,
      "note": 51,
      "start": 35.3754,
      "duration": 0.0322,
      "velocity": 88,
      "chip": "ym2612"
    },
    {
      "channel": 1,
      "note": 84,
      "start": 35.4135,
      "duration": 0.0151,
      "velocity": 97,
      "chip": "ym2612"
    },
    {
      "channel": 2,
      "note": 80,
      "start": 35.414,
      "duration": 0.0147,
      "velocity": 97,
      "chip": "ym2612"
    },
    {
      "channel": 1,
      "note": 85,
      "start": 35.4318,
      "duration": 0.0156,
      "velocity": 97,
      "chip": "ym2612"
    },
    {
      "channel": 2,
      "note": 82,
      "start": 35.4323,
      "duration": 0.0152,
      "velocity": 97,
      "chip": "ym2612"
    },
    {
      "channel": 1,
      "note": 87,
      "start": 35.4505,
      "duration": 0.1803,
      "velocity": 97,
      "chip": "ym2612"
    },
    {
      "channel": 2,
      "note": 84,
      "start": 35.4512,
      "duration": 0.1798,
      "velocity": 97,
      "chip": "ym2612"
    },
    {
      "channel": 3,
      "note": 56,
      "start": 35.4518,
      "duration": 0.0176,
      "velocity": 88,
      "chip": "ym2612"
    },
    {
      "channel": 4,
      "note": 75,
      "start": 35.4543,
      "duration": 0.2878,
      "velocity": 92,
      "chip": "ym2612"
    },
    {
      "channel": 3,
      "note": 56,
      "start": 35.4906,
      "duration": 0.0141,
      "velocity": 88,
      "chip": "ym2612"
    },
    {
      "channel": 3,
      "note": 56,
      "start": 35.5417,
      "duration": 0.031,
      "velocity": 88,
      "chip": "ym2612"
    },
    {
      "channel": 3,
      "note": 56,
      "start": 35.5977,
      "duration": 0.0156,
      "velocity": 88,
      "chip": "ym2612"
    },
    {
      "channel": 1,
      "note": 87,
      "start": 35.6346,
      "duration": 0.0321,
      "velocity": 97,
      "chip": "ym2612"
    },
    {
      "channel": 2,
      "note": 84,
      "start": 35.6351,
      "duration": 0.0318,
      "velocity": 97,
      "chip": "ym2612"
    },
    {
      "channel": 1,
      "note": 85,
      "start": 35.6707,
      "duration": 0.0324,
      "velocity": 97,
      "chip": "ym2612"
    },
    {
      "channel": 2,
      "note": 82,
      "start": 35.6712,
      "duration": 0.0321,
      "velocity": 97,
      "chip": "ym2612"
    },
    {
      "channel": 3,
      "note": 56,
      "start": 35.6717,
      "duration": 0.0145,
      "velocity": 88,
      "chip": "ym2612"
    },
    {
      "channel": 1,
      "note": 84,
      "start": 35.7075,
      "duration": 0.0155,
      "velocity": 97,
      "chip": "ym2612"
    },
    {
      "channel": 2,
      "note": 80,
      "start": 35.708,
      "duration": 0.0152,
      "velocity": 97,
      "chip": "ym2612"
    },
    {
      "channel": 1,
      "note": 82,
      "start": 35.7261,
      "duration": 0.2735,
      "velocity": 97,
      "chip": "ym2612"
    },
    {
      "channel": 2,
      "note": 79,
      "start": 35.7267,
      "duration": 0.2732,
      "velocity": 97,
      "chip": "ym2612"
    },
    {
      "channel": 3,
      "note": 55,
      "start": 35.7484,
      "duration": 0.0147,
      "velocity": 88,
      "chip": "ym2612"
    },
    {
      "channel": 4,
      "note": 75,
      "start": 35.749,
      "duration": 0.1418,
      "velocity": 92,
      "chip": "ym2612"
    },
    {
      "channel": 3,
      "note": 55,
      "start": 35.7852,
      "duration": 0.0149,
      "velocity": 88,
      "chip": "ym2612"
    },
    {
      "channel": 3,
      "note": 55,
      "start": 35.838,
      "duration": 0.0322,
      "velocity": 88,
      "chip": "ym2612"
    },
    {
      "channel": 3,
      "note": 55,
      "start": 35.8956,
      "duration": 0.0156,
      "velocity": 88,
      "chip": "ym2612"
    },
    {
      "channel": 4,
      "note": 82,
      "start": 35.8961,
      "duration": 0.1419,
      "velocity": 92,
      "chip": "ym2612"
    },
    {
      "channel": 3,
      "note": 55,
      "start": 35.9669,
      "duration": 0.0155,
      "velocity": 88,
      "chip": "ym2612"
    },
    {
      "channel": 1,
      "note": 80,
      "start": 36.0032,
      "duration": 0.0161,
      "velocity": 97,
      "chip": "ym2612"
    },
    {
      "channel": 2,
      "note": 77,
      "start": 36.0037,
      "duration": 0.0158,
      "velocity": 97,
      "chip": "ym2612"
    },
    {
      "channel": 3,
      "note": 51,
      "start": 36.0042,
      "duration": 0.0154,
      "velocity": 88,
      "chip": "ym2612"
    },
    {
      "channel": 1,
      "note": 82,
      "start": 36.0225,
      "duration": 0.015,
      "velocity": 97,
      "chip": "ym2612"
    },
    {
      "channel": 2,
      "note": 79,
      "start": 36.023,
      "duration": 0.0146,
      "velocity": 97,
      "chip": "ym2612"
    },
    {
      "channel": 3,
      "note": 52,
      "start": 36.0235,
      "duration": 0.0143,
      "velocity": 88,
      "chip": "ym2612"
    },
    {
      "channel": 1,
      "note": 84,
      "start": 36.0433,
      "duration": 0.1781,
      "velocity": 97,
      "chip": "ym2612"
    },
    {
      "channel": 2,
      "note": 80,
      "start": 36.0439,
      "duration": 0.1776,
      "velocity": 97,
      "chip": "ym2612"
    },
    {
      "channel": 3,
      "note": 53,
      "start": 36.0445,
      "duration": 0.0149,
      "velocity": 88,
      "chip": "ym2612"
    },
    {
      "channel": 4,
      "note": 80,
      "start": 36.0451,
      "duration": 0.2872,
      "velocity": 92,
      "chip": "ym2612"
    },
    {
      "channel": 3,
      "note": 53,
      "start": 36.0807,
      "duration": 0.015,
      "velocity": 88,
      "chip": "ym2612"
    },
    {
      "channel": 3,
      "note": 53,
      "start": 36.1329,
      "duration": 0.032,
      "velocity": 88,
      "chip": "ym2612"
    },
    {
      "channel": 3,
      "note": 53,
      "start": 36.1893,
      "duration": 0.0153,
      "velocity": 88,
      "chip": "ym2612"
    },
    {
      "channel": 1,
      "note": 84,
      "start": 36.2264,
      "duration": 0.0321,
      "velocity": 97,
      "chip": "ym2612"
    },
    {
      "channel": 2,
      "note": 80,
      "start": 36.2269,
      "duration": 0.0317,
      "velocity": 97,
      "chip": "ym2612"
    },
    {
      "channel": 1,
      "note": 82,
      "start": 36.2616,
      "duration": 0.0333,
      "velocity": 97,
      "chip": "ym2612"
    },
    {
      "channel": 2,
      "note": 79,
      "start": 36.2621,
      "duration": 0.0329,
      "velocity": 97,
      "chip": "ym2612"
    },
    {
      "channel": 3,
      "note": 53,
      "start": 36.2626,
      "duration": 0.0153,
      "velocity": 88,
      "chip": "ym2612"
    },
    {
      "channel": 1,
      "note": 80,
      "start": 36.2984,
      "duration": 0.0148,
      "velocity": 97,
      "chip": "ym2612"
    },
    {
      "channel": 2,
      "note": 77,
      "start": 36.2989,
      "duration": 0.0144,
      "velocity": 97,
      "chip": "ym2612"
    },
    {
      "channel": 1,
      "note": 78,
      "start": 36.3172,
      "duration": 0.2687,
      "velocity": 97,
      "chip": "ym2612"
    },
    {
      "channel": 2,
      "note": 75,
      "start": 36.3178,
      "duration": 0.2683,
      "velocity": 97,
      "chip": "ym2612"
    },
    {
      "channel": 3,
      "note": 51,
      "start": 36.3399,
      "duration": 0.0146,
      "velocity": 88,
      "chip": "ym2612"
    },
    {
      "channel": 4,
      "note": 78,
      "start": 36.3405,
      "duration": 0.1383,
      "velocity": 92,
      "chip": "ym2612"
    },
    {
      "channel": 3,
      "note": 51,
      "start": 36.3758,
      "duration": 0.015,
      "velocity": 88,
      "chip": "ym2612"
    },
    {
      "channel": 3,
      "note": 51,
      "start": 36.4286,
      "duration": 0.0296,
      "velocity": 88,
      "chip": "ym2612"
    },
    {
      "channel": 3,
      "note": 56,
      "start": 36.4825,
      "duration": 0.015,
      "velocity": 88,
      "chip": "ym2612"
    },
    {
      "channel": 4,
      "note": 80,
      "start": 36.483,
      "duration": 0.1406,
      "velocity": 92,
      "chip": "ym2612"
    },
    {
      "channel": 3,
      "note": 56,
      "start": 36.5543,
      "duration": 0.0152,
      "velocity": 88,
      "chip": "ym2612"
    },
    {
      "channel": 1,
      "note": 75,
      "start": 36.5907,
      "duration": 0.0326,
      "velocity": 97,
      "chip": "ym2612"
    },
    {
      "channel": 2,
      "note": 72,
      "start": 36.5912,
      "duration": 0.0322,
      "velocity": 97,
      "chip": "ym2612"
    },
    {
      "channel": 1,
      "note": 77,
      "start": 36.6266,
      "duration": 0.0511,
      "velocity": 97,
      "chip": "ym2612"
    },
    {
      "channel": 2,
      "note": 73,
      "start": 36.6272,
      "duration": 0.0506,
      "velocity": 97,
      "chip": "ym2612"
    },
    {
      "channel": 3,
      "note": 49,
      "start": 36.6278,
      "duration": 0.0156,
      "velocity": 88,
      "chip": "ym2612"
    },
    {
      "channel": 4,
      "note": 77,
      "start": 36.6284,
      "duration": 0.1402,
      "velocity": 92,
      "chip": "ym2612"
    },
    {
      "channel": 3,
      "note": 49,
      "start": 36.6638,
      "duration": 0.0141,
      "velocity": 88,
      "chip": "ym2612"
    },
    {
      "channel": 1,
      "note": 84,
      "start": 36.6816,
      "duration": 0.0491,
      "velocity": 97,
      "chip": "ym2612"
    },
    {
      "channel": 2,
      "note": 80,
      "start": 36.6821,
      "duration": 0.0487,
      "velocity": 97,
      "chip": "ym2612"
    },
    {
      "channel": 3,
      "note": 49,
      "start": 36.7163,
      "duration": 0.0321,
      "velocity": 88,
      "chip": "ym2612"
    },
    {
      "channel": 1,
      "note": 82,
      "start": 36.7359,
      "duration": 0.0695,
      "velocity": 97,
      "chip": "ym2612"
    },
    {
      "channel": 2,
      "note": 79,
      "start": 36.7364,
      "duration": 0.0692,
      "velocity": 97,
      "chip": "ym2612"
    },
    {
      "channel": 3,
      "note": 49,
      "start": 36.7738,
      "duration": 0.0146,
      "velocity": 88,
      "chip": "ym2612"
    },
    {
      "channel": 4,
      "note": 79,
      "start": 36.7743,
      "duration": 0.1422,
      "velocity": 92,
      "chip": "ym2612"
    },
    {
      "channel": 1,
      "note": 79,
      "start": 36.8112,
      "duration": 0.0666,
      "velocity": 97,
      "chip": "ym2612"
    },
    {
      "channel": 2,
      "note": 75,
      "start": 36.8117,
      "duration": 0.0663,
      "velocity": 97,
      "chip": "ym2612"
    },
    {
      "channel": 3,
      "note": 49,
      "start": 36.8468,
      "duration": 0.0141,
      "velocity": 88,
      "chip": "ym2612"
    },
    {
      "channel": 1,
      "note": 77,
      "start": 36.8838,
      "duration": 0.0325,
      "velocity": 97,
      "chip": "ym2612"
    },
    {
      "channel": 2,
      "note": 73,
      "start": 36.8843,
      "duration": 0.0321,
      "velocity": 97,
      "chip": "ym2612"
    },
    {
      "channel": 1,
      "note": 75,
      "start": 36.9193,
      "duration": 0.0512,
      "velocity": 97,
      "chip": "ym2612"
    },
    {
      "channel": 2,
      "note": 72,
      "start": 36.9199,
      "duration": 0.0507,
      "velocity": 97,
      "chip": "ym2612"
    },
    {
      "channel": 3,
      "note": 48,
      "start": 36.9205,
      "duration": 0.0292,
      "velocity": 88,
      "chip": "ym2612"
    },
    {
      "channel": 4,
      "note": 79,
      "start": 36.9211,
      "duration": 0.1398,
      "velocity": 92,
      "chip": "ym2612"
    },
    {
      "channel": 1,
      "note": 82,
      "start": 36.9741,
      "duration": 0.049,
      "velocity": 97,
      "chip": "ym2612"
    },
    {
      "channel": 2,
      "note": 79,
      "start": 36.9745,
      "duration": 0.0488,
      "velocity": 97,
      "chip": "ym2612"
    },
    {
      "channel": 3,
      "note": 55,
      "start": 36.9751,
      "duration": 0.0286,
      "velocity": 88,
      "chip": "ym2612"
    },
    {
      "channel": 1,
      "note": 80,
      "start": 37.0285,
      "duration": 0.0685,
      "velocity": 97,
      "chip": "ym2612"
    },
    {
      "channel": 2,
      "note": 77,
      "start": 37.029,
      "duration": 0.0681,
      "velocity": 97,
      "chip": "ym2612"
    },
    {
      "channel": 3,
      "note": 54,
      "start": 37.0295,
      "duration": 0.014,
      "velocity": 88,
      "chip": "ym2612"
    },
    {
      "channel": 3,
      "note": 53,
      "start": 37.0657,
      "duration": 0.0288,
      "velocity": 88,
      "chip": "ym2612"
    },
    {
      "channel": 4,
      "note": 80,
      "start": 37.0662,
      "duration": 0.1423,
      "velocity": 92,
      "chip": "ym2612"
    },
    {
      "channel": 1,
      "note": 80,
      "start": 37.1025,
      "duration": 0.066,
      "velocity": 97,
      "chip": "ym2612"
    },
    {
      "channel": 2,
      "note": 77,
      "start": 37.103,
      "duration": 0.0656,
      "velocity": 97,
      "chip": "ym2612"
    },
    {
      "channel": 3,
      "note": 60,
      "start": 37.1209,
      "duration": 0.0284,
      "velocity": 88,
      "chip": "ym2612"
    },
    {
      "channel": 1,
      "note": 82,
      "start": 37.1746,
      "duration": 0.0335,
      "velocity": 97,
      "chip": "ym2612"
    },
    {
      "channel": 2,
      "note": 79,
      "start": 37.1751,
      "duration": 0.0331,
      "velocity": 97,
      "chip": "ym2612"
    },
    {
      "channel": 3,
      "note": 59,
      "start": 37.1757,
      "duration": 0.0153,
      "velocity": 88,
      "chip": "ym2612"
    },
    {
      "channel": 1,
      "note": 84,
      "start": 37.2146,
      "duration": 0.0453,
      "velocity": 97,
      "chip": "ym2612"
    },
    {
      "channel": 2,
      "note": 80,
      "start": 37.2152,
      "duration": 0.0447,
      "velocity": 97,
      "chip": "ym2612"
    },
    {
      "channel": 3,
      "note": 58,
      "start": 37.2158,
      "duration": 0.0146,
      "velocity": 88,
      "chip": "ym2612"
    },
    {
      "channel": 4,
      "note": 82,
      "start": 37.2165,
      "duration": 0.1391,
      "velocity": 92,
      "chip": "ym2612"
    },
    {
      "channel": 3,
      "note": 58,
      "start": 37.252,
      "duration": 0.0148,
      "velocity": 88,
      "chip": "ym2612"
    },
    {
      "channel": 1,
      "note": 82,
      "start": 37.2636,
      "duration": 0.0423,
      "velocity": 97,
      "chip": "ym2612"
    },
    {
      "channel": 2,
      "note": 79,
      "start": 37.2641,
      "duration": 0.0419,
      "velocity": 97,
      "chip": "ym2612"
    },
    {
      "channel": 1,
      "note": 80,
      "start": 37.3098,
      "duration": 0.0454,
      "velocity": 97,
      "chip": "ym2612"
    },
    {
      "channel": 2,
      "note": 77,
      "start": 37.3102,
      "duration": 0.0451,
      "velocity": 97,
      "chip": "ym2612"
    },
    {
      "channel": 3,
      "note": 58,
      "start": 37.3234,
      "duration": 0.0142,
      "velocity": 88,
      "chip": "ym2612"
    },
    {
      "channel": 3,
      "note": 59,
      "start": 37.3416,
      "duration": 0.0139,
      "velocity": 88,
      "chip": "ym2612"
    },
    {
      "channel": 1,
      "note": 79,
      "start": 37.3603,
      "duration": 0.0465,
      "velocity": 97,
      "chip": "ym2612"
    },
    {
      "channel": 2,
      "note": 75,
      "start": 37.3608,
      "duration": 0.0461,
      "velocity": 97,
      "chip": "ym2612"
    },
    {
      "channel": 3,
      "note": 60,
      "start": 37.3613,
      "duration": 0.0153,
      "velocity": 88,
      "chip": "ym2612"
    },
    {
      "channel": 4,
      "note": 79,
      "start": 37.3618,
      "duration": 0.141,
      "velocity": 92,
      "chip": "ym2612"
    },
    {
      "channel": 3,
      "note": 60,
      "start": 37.398,
      "duration": 0.0151,
      "velocity": 88,
      "chip": "ym2612"
    },
    {
      "channel": 1,
      "note": 77,
      "start": 37.4099,
      "duration": 0.0434,
      "velocity": 97,
      "chip": "ym2612"
    },
    {
      "channel": 2,
      "note": 74,
      "start": 37.4104,
      "duration": 0.043,
      "velocity": 97,
      "chip": "ym2612"
    },
    {
      "channel": 1,
      "note": 75,
      "start": 37.4563,
      "duration": 0.0462,
      "velocity": 97,
      "chip": "ym2612"
    },
    {
      "channel": 2,
      "note": 72,
      "start": 37.4567,
      "duration": 0.0459,
      "velocity": 97,
      "chip": "ym2612"
    },
    {
      "channel": 3,
      "note": 60,
      "start": 37.4704,
      "duration": 0.0152,
      "velocity": 88,
      "chip": "ym2612"
    },
    {
      "channel": 1,
      "note": 77,
      "start": 37.5064,
      "duration": 0.2278,
      "velocity": 97,
      "chip": "ym2612"
    },
    {
      "channel": 2,
      "note": 70,
      "start": 37.507,
      "duration": 0.1029,
      "velocity": 97,
      "chip": "ym2612"
    },
    {
      "channel": 3,
      "note": 53,
      "start": 37.5075,
      "duration": 0.0147,
      "velocity": 88,
      "chip": "ym2612"
    },
    {
      "channel": 4,
      "note": 82,
      "start": 37.5082,
      "duration": 0.1382,
      "velocity": 92,
      "chip": "ym2612"
    },
    {
      "channel": 3,
      "note": 53,
      "start": 37.5437,
      "duration": 0.0151,
      "velocity": 88,
      "chip": "ym2612"
    },
    {
      "channel": 3,
      "note": 53,
      "start": 37.5961,
      "duration": 0.0308,
      "velocity": 88,
      "chip": "ym2612"
    },
    {
      "channel": 2,
      "note": 70,
      "start": 37.6155,
      "duration": 0.0139,
      "velocity": 97,
      "chip": "ym2612"
    },
    {
      "channel": 2,
      "note": 72,
      "start": 37.6323,
      "duration": 0.0139,
      "velocity": 97,
      "chip": "ym2612"
    },
    {
      "channel": 2,
      "note": 69,
      "start": 37.6524,
      "duration": 0.1363,
      "velocity": 97,
      "chip": "ym2612"
    },
    {
      "channel": 3,
      "note": 53,
      "start": 37.6529,
      "duration": 0.0275,
      "velocity": 88,
      "chip": "ym2612"
    },
    {
      "channel": 4,
      "note": 81,
      "start": 37.6534,
      "duration": 0.1355,
      "velocity": 92,
      "chip": "ym2612"
    },
    {
      "channel": 1,
      "note": 84,
      "start": 37.7397,
      "duration": 0.0149,
      "velocity": 97,
      "chip": "ym2612"
    },
    {
      "channel": 1,
      "note": 85,
      "start": 37.7575,
      "duration": 0.0139,
      "velocity": 97,
      "chip": "ym2612"
    },
    {
      "channel": 1,
      "note": 87,
      "start": 37.7751,
      "duration": 0.0134,
      "velocity": 97,
      "chip": "ym2612"
    },
    {
      "channel": 1,
      "note": 84,
      "start": 37.7945,
      "duration": 0.1077,
      "velocity": 97,
      "chip": "ym2612"
    },
    {
      "channel": 2,
      "note": 80,
      "start": 37.7951,
      "duration": 0.1073,
      "velocity": 97,
      "chip": "ym2612"
    },
    {
      "channel": 3,
      "note": 58,
      "start": 37.7957,
      "duration": 0.0161,
      "velocity": 88,
      "chip": "ym2612"
    },
    {
      "channel": 4,
      "note": 70,
      "start": 37.7982,
      "duration": 0.0137,
      "velocity": 70,
      "chip": "ym2612"
    },
    {
      "channel": 4,
      "note": 61,
      "start": 37.8149,
      "duration": 0.0148,
      "velocity": 70,
      "chip": "ym2612"
    },
    {
      "channel": 3,
      "note": 58,
      "start": 37.8354,
      "duration": 0.0152,
      "velocity": 88,
      "chip": "ym2612"
    },
    {
      "channel": 4,
      "note": 65,
      "start": 37.8359,
      "duration": 0.0148,
      "velocity": 70,
      "chip": "ym2612"
    },
    {
      "channel": 4,
      "note": 70,
      "start": 37.8537,
      "duration": 0.0134,
      "velocity": 70,
      "chip": "ym2612"
    },
    {
      "channel": 4,
      "note": 73,
      "start": 37.8708,
      "duration": 0.0141,
      "velocity": 70,
      "chip": "ym2612"
    },
    {
      "channel": 4,
      "note": 77,
      "start": 37.8888,
      "duration": 0.0139,
      "velocity": 70,
      "chip": "ym2612"
    },
    {
      "channel": 1,
      "note": 82,
      "start": 37.9074,
      "duration": 0.0161,
      "velocity": 97,
      "chip": "ym2612"
    },
    {
      "channel": 2,
      "note": 79,
      "start": 37.9079,
      "duration": 0.0158,
      "velocity": 97,
      "chip": "ym2612"
    },
    {
      "channel": 3,
      "note": 58,
      "start": 37.9084,
      "duration": 0.0154,
      "velocity": 88,
      "chip": "ym2612"
    },
    {
      "channel": 4,
      "note": 80,
      "start": 37.909,
      "duration": 0.015,
      "velocity": 70,
      "chip": "ym2612"
    },
    {
      "channel": 1,
      "note": 80,
      "start": 37.9278,
      "duration": 0.016,
      "velocity": 97,
      "chip": "ym2612"
    },
    {
      "channel": 2,
      "note": 77,
      "start": 37.9283,
      "duration": 0.0157,
      "velocity": 97,
      "chip": "ym2612"
    },
    {
      "channel": 3,
      "note": 59,
      "start": 37.9288,
      "duration": 0.0153,
      "velocity": 88,
      "chip": "ym2612"
    },
    {
      "channel": 4,
      "note": 85,
      "start": 37.9293,
      "duration": 0.0149,
      "velocity": 70,
      "chip": "ym2612"
    },
    {
      "channel": 1,
      "note": 82,
      "start": 37.948,
      "duration": 0.1036,
      "velocity": 97,
      "chip": "ym2612"
    },
    {
      "channel": 2,
      "note": 79,
      "start": 37.9485,
      "duration": 0.1032,
      "velocity": 97,
      "chip": "ym2612"
    },
    {
      "channel": 3,
      "note": 60,
      "start": 37.9491,
      "duration": 0.0146,
      "velocity": 88,
      "chip": "ym2612"
    },
    {
      "channel": 4,
      "note": 72,
      "start": 37.9496,
      "duration": 0.0143,
      "velocity": 70,
      "chip": "ym2612"
    },
    {
      "channel": 4,
      "note": 63,
      "start": 37.9675,
      "duration": 0.0138,
      "velocity": 70,
      "chip": "ym2612"
    },
    {
      "channel": 3,
      "note": 60,
      "start": 37.9858,
      "duration": 0.0137,
      "velocity": 88,
      "chip": "ym2612"
    },
    {
      "channel": 4,
      "note": 67,
      "start": 37.9863,
      "duration": 0.0133,
      "velocity": 70,
      "chip": "ym2612"
    },
    {
      "channel": 4,
      "note": 72,
      "start": 38.0026,
      "duration": 0.0146,
      "velocity": 70,
      "chip": "ym2612"
    },
    {
      "channel": 4,
      "note": 75,
      "start": 38.0202,
      "duration": 0.0148,
      "velocity": 70,
      "chip": "ym2612"
    },
    {
      "channel": 4,
      "note": 79,
      "start": 38.0381,
      "duration": 0.0139,
      "velocity": 70,
      "chip": "ym2612"
    },
    {
      "channel": 1,
      "note": 80,
      "start": 38.0568,
      "duration": 0.0154,
      "velocity": 97,
      "chip": "ym2612"
    },
    {
      "channel": 2,
      "note": 77,
      "start": 38.0573,
      "duration": 0.015,
      "velocity": 97,
      "chip": "ym2612"
    },
    {
      "channel": 3,
      "note": 60,
      "start": 38.0578,
      "duration": 0.0147,
      "velocity": 88,
      "chip": "ym2612"
    },
    {
      "channel": 4,
      "note": 82,
      "start": 38.0582,
      "duration": 0.0144,
      "velocity": 70,
      "chip": "ym2612"
    },
    {
      "channel": 1,
      "note": 79,
      "start": 38.0774,
      "duration": 0.0148,
      "velocity": 97,
      "chip": "ym2612"
    },
    {
      "channel": 2,
      "note": 75,
      "start": 38.0778,
      "duration": 0.0144,
      "velocity": 97,
      "chip": "ym2612"
    },
    {
      "channel": 4,
      "note": 87,
      "start": 38.0784,
      "duration": 0.0141,
      "velocity": 70,
      "chip": "ym2612"
    },
    {
      "channel": 1,
      "note": 80,
      "start": 38.0976,
      "duration": 0.0162,
      "velocity": 97,
      "chip": "ym2612"
    },
    {
      "channel": 2,
      "note": 77,
      "start": 38.0982,
      "duration": 0.0157,
      "velocity": 97,
      "chip": "ym2612"
    },
    {
      "channel": 3,
      "note": 61,
      "start": 38.0988,
      "duration": 0.0152,
      "velocity": 88,
      "chip": "ym2612"
    },
    {
      "channel": 4,
      "note": 73,
      "start": 38.0994,
      "duration": 0.0148,
      "velocity": 70,
      "chip": "ym2612"
    },
    {
      "channel": 1,
      "note": 79,
      "start": 38.1169,
      "duration": 0.0154,
      "velocity": 97,
      "chip": "ym2612"
    },
    {
      "channel": 2,
      "note": 75,
      "start": 38.1174,
      "duration": 0.0151,
      "velocity": 97,
      "chip": "ym2612"
    },
    {
      "channel": 4,
      "note": 65,
      "start": 38.118,
      "duration": 0.0147,
      "velocity": 70,
      "chip": "ym2612"
    },
    {
      "channel": 1,
      "note": 77,
      "start": 38.1384,
      "duration": 0.033,
      "velocity": 97,
      "chip": "ym2612"
    },
    {
      "channel": 2,
      "note": 73,
      "start": 38.1389,
      "duration": 0.0326,
      "velocity": 97,
      "chip": "ym2612"
    },
    {
      "channel": 3,
      "note": 61,
      "start": 38.1395,
      "duration": 0.0146,
      "velocity": 88,
      "chip": "ym2612"
    },
    {
      "channel": 4,
      "note": 68,
      "start": 38.14,
      "duration": 0.0143,
      "velocity": 70,
      "chip": "ym2612"
    },
    {
      "channel": 4,
      "note": 73,
      "start": 38.1579,
      "duration": 0.0139,
      "velocity": 70,
      "chip": "ym2612"
    },
    {
      "channel": 1,
      "note": 77,
      "start": 38.1759,
      "duration": 0.0348,
      "velocity": 97,
      "chip": "ym2612"
    },
    {
      "channel": 2,
      "note": 73,
      "start": 38.1764,
      "duration": 0.0345,
      "velocity": 97,
      "chip": "ym2612"
    },
    {
      "channel": 4,
      "note": 77,
      "start": 38.177,
      "duration": 0.0163,
      "velocity": 70,
      "chip": "ym2612"
    },
    {
      "channel": 4,
      "note": 80,
      "start": 38.1964,
      "duration": 0.0147,
      "velocity": 70,
      "chip": "ym2612"
    },
    {
      "channel": 1,
      "note": 79,
      "start": 38.2151,
      "duration": 0.0161,
      "velocity": 97,
      "chip": "ym2612"
    },
    {
      "channel": 2,
      "note": 75,
      "start": 38.2155,
      "duration": 0.0158,
      "velocity": 97,
      "chip": "ym2612"
    },
    {
      "channel": 3,
      "note": 61,
      "start": 38.216,
      "duration": 0.0155,
      "velocity": 88,
      "chip": "ym2612"
    },
    {
      "channel": 4,
      "note": 84,
      "start": 38.2165,
      "duration": 0.0151,
      "velocity": 70,
      "chip": "ym2612"
    },
    {
      "channel": 1,
      "note": 75,
      "start": 38.2354,
      "duration": 0.1078,
      "velocity": 97,
      "chip": "ym2612"
    },
    {
      "channel": 2,
      "note": 72,
      "start": 38.2359,
      "duration": 0.1074,
      "velocity": 97,
      "chip": "ym2612"
    },
    {
      "channel": 4,
      "note": 80,
      "start": 38.2365,
      "duration": 0.0142,
      "velocity": 70,
      "chip": "ym2612"
    },
    {
      "channel": 3,
      "note": 60,
      "start": 38.256,
      "duration": 0.0146,
      "velocity": 88,
      "chip": "ym2612"
    },
    {
      "channel": 4,
      "note": 72,
      "start": 38.2565,
      "duration": 0.0143,
      "velocity": 70,
      "chip": "ym2612"
    },
    {
      "channel": 4,
      "note": 63,
      "start": 38.2745,
      "duration": 0.0136,
      "velocity": 70,
      "chip": "ym2612"
    },
    {
      "channel": 3,
      "note": 60,
      "start": 38.2934,
      "duration": 0.0154,
      "velocity": 88,
      "chip": "ym2612"
    },
    {
      "channel": 4,
      "note": 67,
      "start": 38.2939,
      "duration": 0.015,
      "velocity": 70,
      "chip": "ym2612"
    },
    {
      "channel": 4,
      "note": 72,
      "start": 38.3118,
      "duration": 0.0145,
      "velocity": 70,
      "chip": "ym2612"
    },
    {
      "channel": 4,
      "note": 75,
      "start": 38.3293,
      "duration": 0.0143,
      "velocity": 70,
      "chip": "ym2612"
    },
    {
      "channel": 1,
      "note": 84,
      "start": 38.347,
      "duration": 0.0145,
      "velocity": 97,
      "chip": "ym2612"
    },
    {
      "channel": 2,
      "note": 80,
      "start": 38.3475,
      "duration": 0.0141,
      "velocity": 97,
      "chip": "ym2612"
    },
    {
      "channel": 4,
      "note": 79,
      "start": 38.348,
      "duration": 0.0137,
      "velocity": 70,
      "chip": "ym2612"
    },
    {
      "channel": 1,
      "note": 85,
      "start": 38.3658,
      "duration": 0.0151,
      "velocity": 97,
      "chip": "ym2612"
    },
    {
      "channel": 2,
      "note": 82,
      "start": 38.3663,
      "duration": 0.0147,
      "velocity": 97,
      "chip": "ym2612"
    },
    {
      "channel": 3,
      "note": 60,
      "start": 38.3668,
      "duration": 0.0143,
      "velocity": 88,
      "chip": "ym2612"
    },
    {
      "channel": 4,
      "note": 82,
      "start": 38.3672,
      "duration": 0.0141,
      "velocity": 70,
      "chip": "ym2612"
    },
    {
      "channel": 1,
      "note": 87,
      "start": 38.3859,
      "duration": 0.0157,
      "velocity": 97,
      "chip": "ym2612"
    },
    {
      "channel": 2,
      "note": 84,
      "start": 38.3863,
      "duration": 0.0153,
      "velocity": 97,
      "chip": "ym2612"
    },
    {
      "channel": 4,
      "note": 87,
      "start": 38.387,
      "duration": 0.0149,
      "velocity": 70,
      "chip": "ym2612"
    },
    {
      "channel": 1,
      "note": 84,
      "start": 38.4064,
      "duration": 0.1037,
      "velocity": 97,
      "chip": "ym2612"
    },
    {
      "channel": 2,
      "note": 80,
      "start": 38.4069,
      "duration": 0.1032,
      "velocity": 97,
      "chip": "ym2612"
    },
    {
      "channel": 3,
      "note": 58,
      "start": 38.4075,
      "duration": 0.0156,
      "velocity": 88,
      "chip": "ym2612"
    },
    {
      "channel": 4,
      "note": 70,
      "start": 38.4082,
      "duration": 0.0151,
      "velocity": 70,
      "chip": "ym2612"
    },
    {
      "channel": 4,
      "note": 61,
      "start": 38.426,
      "duration": 0.0135,
      "velocity": 70,
      "chip": "ym2612"
    },
    {
      "channel": 3,
      "note": 58,
      "start": 38.4434,
      "duration": 0.0178,
      "velocity": 88,
      "chip": "ym2612"
    },
    {
      "channel": 4,
      "note": 65,
      "start": 38.4438,
      "duration": 0.0139,
      "velocity": 70,
      "chip": "ym2612"
    },
    {
      "channel": 4,
      "note": 70,
      "start": 38.4617,
      "duration": 0.0134,
      "velocity": 70,
      "chip": "ym2612"
    },
    {
      "channel": 4,
      "note": 73,
      "start": 38.478,
      "duration": 0.0148,
      "velocity": 70,
      "chip": "ym2612"
    },
    {
      "channel": 4,
      "note": 77,
      "start": 38.4959,
      "duration": 0.0146,
      "velocity": 70,
      "chip": "ym2612"
    },
    {
      "channel": 1,
      "note": 82,
      "start": 38.5144,
      "duration": 0.0154,
      "velocity": 97,
      "chip": "ym2612"
    },
    {
      "channel": 2,
      "note": 79,
      "start": 38.5149,
      "duration": 0.015,
      "velocity": 97,
      "chip": "ym2612"
    },
    {
      "channel": 3,
      "note": 58,
      "start": 38.5154,
      "duration": 0.0146,
      "velocity": 88,
      "chip": "ym2612"
    },
    {
      "channel": 4,
      "note": 80,
      "start": 38.5159,
      "duration": 0.0143,
      "velocity": 70,
      "chip": "ym2612"
    },
    {
      "channel": 1,
      "note": 80,
      "start": 38.5347,
      "duration": 0.0153,
      "velocity": 97,
      "chip": "ym2612"
    },
    {
      "channel": 2,
      "note": 77,
      "start": 38.5352,
      "duration": 0.0149,
      "velocity": 97,
      "chip": "ym2612"
    },
    {
      "channel": 3,
      "note": 59,
      "start": 38.5356,
      "duration": 0.0146,
      "velocity": 88,
      "chip": "ym2612"
    },
    {
      "channel": 4,
      "note": 84,
      "start": 38.5361,
      "duration": 0.0143,
      "velocity": 70,
      "chip": "ym2612"
    },
    {
      "channel": 1,
      "note": 82,
      "start": 38.555,
      "duration": 0.1044,
      "velocity": 97,
      "chip": "ym2612"
    },
    {
      "channel": 2,
      "note": 79,
      "start": 38.5554,
      "duration": 0.1041,
      "velocity": 97,
      "chip": "ym2612"
    },
    {
      "channel": 3,
      "note": 60,
      "start": 38.5559,
      "duration": 0.0141,
      "velocity": 88,
      "chip": "ym2612"
    },
    {
      "channel": 4,
      "note": 72,
      "start": 38.5565,
      "duration": 0.0137,
      "velocity": 70,
      "chip": "ym2612"
    },
    {
      "channel": 4,
      "note": 63,
      "start": 38.5731,
      "duration": 0.0146,
      "velocity": 70,
      "chip": "ym2612"
    },
    {
      "channel": 3,
      "note": 60,
      "start": 38.5921,
      "duration": 0.0152,
      "velocity": 88,
      "chip": "ym2612"
    },
    {
      "channel": 4,
      "note": 67,
      "start": 38.5926,
      "duration": 0.0149,
      "velocity": 70,
      "chip": "ym2612"
    },
    {
      "channel": 4,
      "note": 72,
      "start": 38.6105,
      "duration": 0.0146,
      "velocity": 70,
      "chip": "ym2612"
    },
    {
      "channel": 4,
      "note": 75,
      "start": 38.6282,
      "duration": 0.014,
      "velocity": 70,
      "chip": "ym2612"
    },
    {
      "channel": 4,
      "note": 79,
      "start": 38.646,
      "duration": 0.0138,
      "velocity": 70,
      "chip": "ym2612"
    },
    {
      "channel": 1,
      "note": 80,
      "start": 38.6647,
      "duration": 0.0157,
      "velocity": 97,
      "chip": "ym2612"
    },
    {
      "channel": 2,
      "note": 77,
      "start": 38.6652,
      "duration": 0.0154,
      "velocity": 97,
      "chip": "ym2612"
    },
    {
      "channel": 3,
      "note": 60,
      "start": 38.6657,
      "duration": 0.015,
      "velocity": 88,
      "chip": "ym2612"
    },
    {
      "channel": 4,
      "note": 82,
      "start": 38.6662,
      "duration": 0.0146,
      "velocity": 70,
      "chip": "ym2612"
    },
    {
      "channel": 1,
      "note": 79,
      "start": 38.6846,
      "duration": 0.0156,
      "velocity": 97,
      "chip": "ym2612"
    },
    {
      "channel": 2,
      "note": 75,
      "start": 38.6852,
      "duration": 0.0153,
      "velocity": 97,
      "chip": "ym2612"
    },
    {
      "channel": 4,
      "note": 87,
      "start": 38.6857,
      "duration": 0.0149,
      "velocity": 70,
      "chip": "ym2612"
    },
    {
      "channel": 1,
      "note": 80,
      "start": 38.7051,
      "duration": 0.0166,
      "velocity": 97,
      "chip": "ym2612"
    },
    {
      "channel": 2,
      "note": 77,
      "start": 38.7056,
      "duration": 0.0162,
      "velocity": 97,
      "chip": "ym2612"
    },
    {
      "channel": 3,
      "note": 61,
      "start": 38.7063,
      "duration": 0.0157,
      "velocity": 88,
      "chip": "ym2612"
    },
    {
      "channel": 4,
      "note": 73,
      "start": 38.7068,
      "duration": 0.0152,
      "velocity": 70,
      "chip": "ym2612"
    },
    {
      "channel": 1,
      "note": 79,
      "start": 38.7249,
      "duration": 0.0144,
      "velocity": 97,
      "chip": "ym2612"
    },
    {
      "channel": 2,
      "note": 75,
      "start": 38.7254,
      "duration": 0.0141,
      "velocity": 97,
      "chip": "ym2612"
    },
    {
      "channel": 4,
      "note": 65,
      "start": 38.7259,
      "duration": 0.0138,
      "velocity": 70,
      "chip": "ym2612"
    },
    {
      "channel": 1,
      "note": 77,
      "start": 38.7461,
      "duration": 0.0329,
      "velocity": 97,
      "chip": "ym2612"
    },
    {
      "channel": 2,
      "note": 73,
      "start": 38.7466,
      "duration": 0.0326,
      "velocity": 97,
      "chip": "ym2612"
    },
    {
      "channel": 3,
      "note": 61,
      "start": 38.7471,
      "duration": 0.0143,
      "velocity": 88,
      "chip": "ym2612"
    },
    {
      "channel": 4,
      "note": 68,
      "start": 38.7476,
      "duration": 0.0139,
      "velocity": 70,
      "chip": "ym2612"
    },
    {
      "channel": 4,
      "note": 73,
      "start": 38.7645,
      "duration": 0.0148,
      "velocity": 70,
      "chip": "ym2612"
    },
    {
      "channel": 1,
      "note": 77,
      "start": 38.7821,
      "duration": 0.0334,
      "velocity": 97,
      "chip": "ym2612"
    },
    {
      "channel": 2,
      "note": 73,
      "start": 38.7827,
      "duration": 0.0329,
      "velocity": 97,
      "chip": "ym2612"
    },
    {
      "channel": 4,
      "note": 77,
      "start": 38.7832,
      "duration": 0.0149,
      "velocity": 70,
      "chip": "ym2612"
    },
    {
      "channel": 4,
      "note": 80,
      "start": 38.8011,
      "duration": 0.0147,
      "velocity": 70,
      "chip": "ym2612"
    },
    {
      "channel": 1,
      "note": 79,
      "start": 38.819,
      "duration": 0.0152,
      "velocity": 97,
      "chip": "ym2612"
    },
    {
      "channel": 2,
      "note": 75,
      "start": 38.8195,
      "duration": 0.0148,
      "velocity": 97,
      "chip": "ym2612"
    },
    {
      "channel": 3,
      "note": 61,
      "start": 38.82,
      "duration": 0.0145,
      "velocity": 88,
      "chip": "ym2612"
    },
    {
      "channel": 4,
      "note": 84,
      "start": 38.8205,
      "duration": 0.0142,
      "velocity": 70,
      "chip": "ym2612"
    },
    {
      "channel": 1,
      "note": 75,
      "start": 38.8394,
      "duration": 0.1076,
      "velocity": 97,
      "chip": "ym2612"
    },
    {
      "channel": 2,
      "note": 75,
      "start": 38.8399,
      "duration": 0.1072,
      "velocity": 97,
      "chip": "ym2612"
    },
    {
      "channel": 4,
      "note": 80,
      "start": 38.8405,
      "duration": 0.0139,
      "velocity": 70,
      "chip": "ym2612"
    },
    {
      "channel": 3,
      "note": 63,
      "start": 38.8596,
      "duration": 0.0152,
      "velocity": 88,
      "chip": "ym2612"
    },
    {
      "channel": 4,
      "note": 75,
      "start": 38.8601,
      "duration": 0.0148,
      "velocity": 70,
      "chip": "ym2612"
    },
    {
      "channel": 4,
      "note": 67,
      "start": 38.8778,
      "duration": 0.0145,
      "velocity": 70,
      "chip": "ym2612"
    },
    {
      "channel": 3,
      "note": 63,
      "start": 38.8969,
      "duration": 0.0155,
      "velocity": 88,
      "chip": "ym2612"
    },
    {
      "channel": 4,
      "note": 70,
      "start": 38.8974,
      "duration": 0.0152,
      "velocity": 70,
      "chip": "ym2612"
    },
    {
      "channel": 4,
      "note": 75,
      "start": 38.9156,
      "duration": 0.0137,
      "velocity": 70,
      "chip": "ym2612"
    },
    {
      "channel": 4,
      "note": 79,
      "start": 38.9331,
      "duration": 0.0143,
      "velocity": 70,
      "chip": "ym2612"
    },
    {
      "channel": 1,
      "note": 84,
      "start": 38.9501,
      "duration": 0.0153,
      "velocity": 97,
      "chip": "ym2612"
    },
    {
      "channel": 2,
      "note": 80,
      "start": 38.9506,
      "duration": 0.015,
      "velocity": 97,
      "chip": "ym2612"
    },
    {
      "channel": 4,
      "note": 82,
      "start": 38.9513,
      "duration": 0.0146,
      "velocity": 70,
      "chip": "ym2612"
    },
    {
      "channel": 1,
      "note": 85,
      "start": 38.9696,
      "duration": 0.0163,
      "velocity": 97,
      "chip": "ym2612"
    },
    {
      "channel": 2,
      "note": 82,
      "start": 38.9701,
      "duration": 0.0159,
      "velocity": 97,
      "chip": "ym2612"
    },
    {
      "channel": 3,
      "note": 63,
      "start": 38.9705,
      "duration": 0.0156,
      "velocity": 88,
      "chip": "ym2612"
    },
    {
      "channel": 4,
      "note": 87,
      "start": 38.9711,
      "duration": 0.0152,
      "velocity": 70,
      "chip": "ym2612"
    },
    {
      "channel": 1,
      "note": 87,
      "start": 38.9901,
      "duration": 0.0159,
      "velocity": 97,
      "chip": "ym2612"
    },
    {
      "channel": 2,
      "note": 84,
      "start": 38.9906,
      "duration": 0.0156,
      "velocity": 97,
      "chip": "ym2612"
    },
    {
      "channel": 4,
      "note": 91,
      "start": 38.9912,
      "duration": 0.0152,
      "velocity": 70,
      "chip": "ym2612"
    },
    {
      "channel": 1,
      "note": 84,
      "start": 39.0108,
      "duration": 0.1041,
      "velocity": 97,
      "chip": "ym2612"
    },
    {
      "channel": 2,
      "note": 80,
      "start": 39.0114,
      "duration": 0.1037,
      "velocity": 97,
      "chip": "ym2612"
    },
    {
      "channel": 3,
      "note": 58,
      "start": 39.012,
      "duration": 0.0146,
      "velocity": 88,
      "chip": "ym2612"
    },
    {
      "channel": 4,
      "note": 70,
      "start": 39.0126,
      "duration": 0.0142,
      "velocity": 70,
      "chip": "ym2612"
    },
    {
      "channel": 4,
      "note": 61,
      "start": 39.0306,
      "duration": 0.0137,
      "velocity": 70,
      "chip": "ym2612"
    },
    {
      "channel": 3,
      "note": 58,
      "start": 39.0481,
      "duration": 0.0154,
      "velocity": 88,
      "chip": "ym2612"
    },
    {
      "channel": 4,
      "note": 65,
      "start": 39.0486,
      "duration": 0.015,
      "velocity": 70,
      "chip": "ym2612"
    },
    {
      "channel": 4,
      "note": 70,
      "start": 39.0666,
      "duration": 0.0144,
      "velocity": 70,
      "chip": "ym2612"
    },
    {
      "channel": 4,
      "note": 73,
      "start": 39.084,
      "duration": 0.0151,
      "velocity": 70,
      "chip": "ym2612"
    },
    {
      "channel": 4,
      "note": 77,
      "start": 39.1018,
      "duration": 0.0135,
      "velocity": 70,
      "chip": "ym2612"
    },
    {
      "channel": 1,
      "note": 82,
      "start": 39.1201,
      "duration": 0.0153,
      "velocity": 97,
      "chip": "ym2612"
    },
    {
      "channel": 2,
      "note": 79,
      "start": 39.1206,
      "duration": 0.0149,
      "velocity": 97,
      "chip": "ym2612"
    },
    {
      "channel": 3,
      "note": 58,
      "start": 39.1211,
      "duration": 0.0146,
      "velocity": 88,
      "chip": "ym2612"
    },
    {
      "channel": 4,
      "note": 80,
      "start": 39.1216,
      "duration": 0.0142,
      "velocity": 70,
      "chip": "ym2612"
    },
    {
      "channel": 1,
      "note": 80,
      "start": 39.1404,
      "duration": 0.0162,
      "velocity": 97,
      "chip": "ym2612"
    },
    {
      "channel": 2,
      "note": 77,
      "start": 39.1409,
      "duration": 0.0158,
      "velocity": 97,
      "chip": "ym2612"
    },
    {
      "channel": 3,
      "note": 59,
      "start": 39.1414,
      "duration": 0.0155,
      "velocity": 88,
      "chip": "ym2612"
    },
    {
      "channel": 4,
      "note": 84,
      "start": 39.1419,
      "duration": 0.0151,
      "velocity": 70,
      "chip": "ym2612"
    },
    {
      "channel": 1,
      "note": 82,
      "start": 39.1609,
      "duration": 0.1043,
      "velocity": 97,
      "chip": "ym2612"
    },
    {
      "channel": 2,
      "note": 79,
      "start": 39.1614,
      "duration": 0.1039,
      "velocity": 97,
      "chip": "ym2612"
    },
    {
      "channel": 3,
      "note": 60,
      "start": 39.1619,
      "duration": 0.0153,
      "velocity": 88,
      "chip": "ym2612"
    },
    {
      "channel": 4,
      "note": 72,
      "start": 39.1624,
      "duration": 0.0149,
      "velocity": 70,
      "chip": "ym2612"
    },
    {
      "channel": 4,
      "note": 63,
      "start": 39.1803,
      "duration": 0.0148,
      "velocity": 70,
      "chip": "ym2612"
    },
    {
      "channel": 3,
      "note": 60,
      "start": 39.1988,
      "duration": 0.014,
      "velocity": 88,
      "chip": "ym2612"
    },
    {
      "channel": 4,
      "note": 67,
      "start": 39.1993,
      "duration": 0.0137,
      "velocity": 70,
      "chip": "ym2612"
    },
    {
      "channel": 4,
      "note": 72,
      "start": 39.2168,
      "duration": 0.0137,
      "velocity": 70,
      "chip": "ym2612"
    },
    {
      "channel": 4,
      "note": 75,
      "start": 39.2334,
      "duration": 0.0148,
      "velocity": 70,
      "chip": "ym2612"
    },
    {
      "channel": 4,
      "note": 79,
      "start": 39.2511,
      "duration": 0.0144,
      "velocity": 70,
      "chip": "ym2612"
    },
    {
      "channel": 1,
      "note": 80,
      "start": 39.2697,
      "duration": 0.0161,
      "velocity": 97,
      "chip": "ym2612"
    },
    {
      "channel": 2,
      "note": 77,
      "start": 39.2702,
      "duration": 0.0157,
      "velocity": 97,
      "chip": "ym2612"
    },
    {
      "channel": 3,
      "note": 60,
      "start": 39.2706,
      "duration": 0.0154,
      "velocity": 88,
      "chip": "ym2612"
    },
    {
      "channel": 4,
      "note": 82,
      "start": 39.2711,
      "duration": 0.015,
      "velocity": 70,
      "chip": "ym2612"
    },
    {
      "channel": 1,
      "note": 79,
      "start": 39.29,
      "duration": 0.0149,
      "velocity": 97,
      "chip": "ym2612"
    },
    {
      "channel": 2,
      "note": 75,
      "start": 39.2905,
      "duration": 0.0145,
      "velocity": 97,
      "chip": "ym2612"
    },
    {
      "channel": 4,
      "note": 87,
      "start": 39.2911,
      "duration": 0.0142,
      "velocity": 70,
      "chip": "ym2612"
    },
    {
      "channel": 1,
      "note": 80,
      "start": 39.3105,
      "duration": 0.0157,
      "velocity": 97,
      "chip": "ym2612"
    },
    {
      "channel": 2,
      "note": 77,
      "start": 39.3111,
      "duration": 0.0152,
      "velocity": 97,
      "chip": "ym2612"
    },
    {
      "channel": 3,
      "note": 61,
      "start": 39.3117,
      "duration": 0.0147,
      "velocity": 88,
      "chip": "ym2612"
    },
    {
      "channel": 4,
      "note": 73,
      "start": 39.3123,
      "duration": 0.0142,
      "velocity": 70,
      "chip": "ym2612"
    },
    {
      "channel": 1,
      "note": 79,
      "start": 39.3293,
      "duration": 0.0153,
      "velocity": 97,
      "chip": "ym2612"
    },
    {
      "channel": 2,
      "note": 75,
      "start": 39.3298,
      "duration": 0.0149,
      "velocity": 97,
      "chip": "ym2612"
    },
    {
      "channel": 4,
      "note": 65,
      "start": 39.3304,
      "duration": 0.0146,
      "velocity": 70,
      "chip": "ym2612"
    },
    {
      "channel": 1,
      "note": 77,
      "start": 39.3478,
      "duration": 0.034,
      "velocity": 97,
      "chip": "ym2612"
    },
    {
      "channel": 2,
      "note": 73,
      "start": 39.3483,
      "duration": 0.0336,
      "velocity": 97,
      "chip": "ym2612"
    },
    {
      "channel": 3,
      "note": 61,
      "start": 39.3488,
      "duration": 0.0154,
      "velocity": 88,
      "chip": "ym2612"
    },
    {
      "channel": 4,
      "note": 68,
      "start": 39.3493,
      "duration": 0.015,
      "velocity": 70,
      "chip": "ym2612"
    },
    {
      "channel": 4,
      "note": 73,
      "start": 39.3673,
      "duration": 0.0148,
      "velocity": 70,
      "chip": "ym2612"
    },
    {
      "channel": 1,
      "note": 77,
      "start": 39.3854,
      "duration": 0.0342,
      "velocity": 97,
      "chip": "ym2612"
    },
    {
      "channel": 2,
      "note": 73,
      "start": 39.3859,
      "duration": 0.0338,
      "velocity": 97,
      "chip": "ym2612"
    },
    {
      "channel": 4,
      "note": 77,
      "start": 39.3865,
      "duration": 0.0162,
      "velocity": 70,
      "chip": "ym2612"
    },
    {
      "channel": 4,
      "note": 80,
      "start": 39.4065,
      "duration": 0.0135,
      "velocity": 70,
      "chip": "ym2612"
    },
    {
      "channel": 1,
      "note": 79,
      "start": 39.4239,
      "duration": 0.0161,
      "velocity": 97,
      "chip": "ym2612"
    },
    {
      "channel": 2,
      "note": 75,
      "start": 39.4244,
      "duration": 0.0157,
      "velocity": 97,
      "chip": "ym2612"
    },
    {
      "channel": 3,
      "note": 61,
      "start": 39.4249,
      "duration": 0.0153,
      "velocity": 88,
      "chip": "ym2612"
    },
    {
      "channel": 4,
      "note": 84,
      "start": 39.4254,
      "duration": 0.015,
      "velocity": 70,
      "chip": "ym2612"
    },
    {
      "channel": 1,
      "note": 75,
      "start": 39.4443,
      "duration": 0.1082,
      "velocity": 97,
      "chip": "ym2612"
    },
    {
      "channel": 2,
      "note": 72,
      "start": 39.4448,
      "duration": 0.1078,
      "velocity": 97,
      "chip": "ym2612"
    },
    {
      "channel": 4,
      "note": 80,
      "start": 39.4453,
      "duration": 0.0151,
      "velocity": 70,
      "chip": "ym2612"
    },
    {
      "channel": 3,
      "note": 60,
      "start": 39.465,
      "duration": 0.0154,
      "velocity": 88,
      "chip": "ym2612"
    },
    {
      "channel": 4,
      "note": 72,
      "start": 39.4655,
      "duration": 0.0151,
      "velocity": 70,
      "chip": "ym2612"
    },
    {
      "channel": 4,
      "note": 63,
      "start": 39.4836,
      "duration": 0.0137,
      "velocity": 70,
      "chip": "ym2612"
    },
    {
      "channel": 3,
      "note": 60,
      "start": 39.5027,
      "duration": 0.0145,
      "velocity": 88,
      "chip": "ym2612"
    },
    {
      "channel": 4,
      "note": 67,
      "start": 39.5032,
      "duration": 0.0141,
      "velocity": 70,
      "chip": "ym2612"
    },
    {
      "channel": 4,
      "note": 72,
      "start": 39.5202,
      "duration": 0.0145,
      "velocity": 70,
      "chip": "ym2612"
    },
    {
      "channel": 4,
      "note": 75,
      "start": 39.5377,
      "duration": 0.0151,
      "velocity": 70,
      "chip": "ym2612"
    },
    {
      "channel": 1,
      "note": 84,
      "start": 39.5556,
      "duration": 0.0152,
      "velocity": 97,
      "chip": "ym2612"
    },
    {
      "channel": 2,
      "note": 80,
      "start": 39.5561,
      "duration": 0.0148,
      "velocity": 97,
      "chip": "ym2612"
    },
    {
      "channel": 4,
      "note": 79,
      "start": 39.5567,
      "duration": 0.0144,
      "velocity": 70,
      "chip": "ym2612"
    },
    {
      "channel": 1,
      "note": 85,
      "start": 39.5742,
      "duration": 0.0154,
      "velocity": 97,
      "chip": "ym2612"
    },
    {
      "channel": 2,
      "note": 82,
      "start": 39.5747,
      "duration": 0.015,
      "velocity": 97,
      "chip": "ym2612"
    },
    {
      "channel": 3,
      "note": 60,
      "start": 39.5751,
      "duration": 0.0147,
      "velocity": 88,
      "chip": "ym2612"
    },
    {
      "channel": 4,
      "note": 82,
      "start": 39.5756,
      "duration": 0.0144,
      "velocity": 70,
      "chip": "ym2612"
    },
    {
      "channel": 1,
      "note": 87,
      "start": 39.5947,
      "duration": 0.0148,
      "velocity": 97,
      "chip": "ym2612"
    },
    {
      "channel": 2,
      "note": 84,
      "start": 39.5952,
      "duration": 0.0144,
      "velocity": 97,
      "chip": "ym2612"
    },
    {
      "channel": 4,
      "note": 87,
      "start": 39.5958,
      "duration": 0.014,
      "velocity": 70,
      "chip": "ym2612"
    },
    {
      "channel": 1,
      "note": 84,
      "start": 39.615,
      "duration": 0.1047,
      "velocity": 97,
      "chip": "ym2612"
    },
    {
      "channel": 2,
      "note": 80,
      "start": 39.6156,
      "duration": 0.1042,
      "velocity": 97,
      "chip": "ym2612"
    },
    {
      "channel": 3,
      "note": 58,
      "start": 39.6162,
      "duration": 0.0154,
      "velocity": 88,
      "chip": "ym2612"
    },
    {
      "channel": 4,
      "note": 70,
      "start": 39.6168,
      "duration": 0.0149,
      "velocity": 70,
      "chip": "ym2612"
    },
    {
      "channel": 4,
      "note": 61,
      "start": 39.6347,
      "duration": 0.0145,
      "velocity": 70,
      "chip": "ym2612"
    },
    {
      "channel": 3,
      "note": 58,
      "start": 39.6524,
      "duration": 0.0155,
      "velocity": 88,
      "chip": "ym2612"
    },
    {
      "channel": 4,
      "note": 65,
      "start": 39.6529,
      "duration": 0.0151,
      "velocity": 70,
      "chip": "ym2612"
    },
    {
      "channel": 4,
      "note": 70,
      "start": 39.6709,
      "duration": 0.0137,
      "velocity": 70,
      "chip": "ym2612"
    },
    {
      "channel": 4,
      "note": 73,
      "start": 39.6885,
      "duration": 0.014,
      "velocity": 70,
      "chip": "ym2612"
    },
    {
      "channel": 4,
      "note": 77,
      "start": 39.7055,
      "duration": 0.0146,
      "velocity": 70,
      "chip": "ym2612"
    },
    {
      "channel": 1,
      "note": 82,
      "start": 39.7249,
      "duration": 0.0159,
      "velocity": 97,
      "chip": "ym2612"
    },
    {
      "channel": 2,
      "note": 79,
      "start": 39.7254,
      "duration": 0.0156,
      "velocity": 97,
      "chip": "ym2612"
    },
    {
      "channel": 3,
      "note": 58,
      "start": 39.7259,
      "duration": 0.0152,
      "velocity": 88,
      "chip": "ym2612"
    },
    {
      "channel": 4,
      "note": 80,
      "start": 39.7264,
      "duration": 0.0149,
      "velocity": 70,
      "chip": "ym2612"
    },
    {
      "channel": 1,
      "note": 80,
      "start": 39.7451,
      "duration": 0.0158,
      "velocity": 97,
      "chip": "ym2612"
    },
    {
      "channel": 2,
      "note": 77,
      "start": 39.7456,
      "duration": 0.0155,
      "velocity": 97,
      "chip": "ym2612"
    },
    {
      "channel": 4,
      "note": 84,
      "start": 39.7461,
      "duration": 0.0151,
      "velocity": 70,
      "chip": "ym2612"
    },
    {
      "channel": 1,
      "note": 82,
      "start": 39.7656,
      "duration": 0.1049,
      "velocity": 97,
      "chip": "ym2612"
    },
    {
      "channel": 2,
      "note": 79,
      "start": 39.7661,
      "duration": 0.1046,
      "velocity": 97,
      "chip": "ym2612"
    },
    {
      "channel": 3,
      "note": 60,
      "start": 39.7665,
      "duration": 0.0142,
      "velocity": 88,
      "chip": "ym2612"
    },
    {
      "channel": 4,
      "note": 72,
      "start": 39.767,
      "duration": 0.0139,
      "velocity": 70,
      "chip": "ym2612"
    },
    {
      "channel": 4,
      "note": 63,
      "start": 39.7847,
      "duration": 0.0136,
      "velocity": 70,
      "chip": "ym2612"
    },
    {
      "channel": 3,
      "note": 60,
      "start": 39.8028,
      "duration": 0.0153,
      "velocity": 88,
      "chip": "ym2612"
    },
    {
      "channel": 4,
      "note": 67,
      "start": 39.8033,
      "duration": 0.0149,
      "velocity": 70,
      "chip": "ym2612"
    },
    {
      "channel": 4,
      "note": 72,
      "start": 39.8213,
      "duration": 0.0146,
      "velocity": 70,
      "chip": "ym2612"
    },
    {
      "channel": 4,
      "note": 75,
      "start": 39.8388,
      "duration": 0.0151,
      "velocity": 70,
      "chip": "ym2612"
    },
    {
      "channel": 4,
      "note": 79,
      "start": 39.857,
      "duration": 0.0139,
      "velocity": 70,
      "chip": "ym2612"
    },
    {
      "channel": 1,
      "note": 80,
      "start": 39.8756,
      "duration": 0.0153,
      "velocity": 97,
      "chip": "ym2612"
    },
    {
      "channel": 2,
      "note": 77,
      "start": 39.8762,
      "duration": 0.0149,
      "velocity": 97,
      "chip": "ym2612"
    },
    {
      "channel": 3,
      "note": 60,
      "start": 39.8766,
      "duration": 0.0146,
      "velocity": 88,
      "chip": "ym2612"
    },
    {
      "channel": 4,
      "note": 82,
      "start": 39.8771,
      "duration": 0.0143,
      "velocity": 70,
      "chip": "ym2612"
    },
    {
      "channel": 1,
      "note": 79,
      "start": 39.8959,
      "duration": 0.0157,
      "velocity": 97,
      "chip": "ym2612"
    },
    {
      "channel": 2,
      "note": 75,
      "start": 39.8964,
      "duration": 0.0153,
      "velocity": 97,
      "chip": "ym2612"
    },
    {
      "channel": 4,
      "note": 87,
      "start": 39.897,
      "duration": 0.015,
      "velocity": 70,
      "chip": "ym2612"
    },
    {
      "channel": 1,
      "note": 80,
      "start": 39.9165,
      "duration": 0.1037,
      "velocity": 97,
      "chip": "ym2612"
    },
    {
      "channel": 2,
      "note": 75,
      "start": 39.9171,
      "duration": 0.1032,
      "velocity": 97,
      "chip": "ym2612"
    },
    {
      "channel": 3,
      "note": 59,
      "start": 39.9177,
      "duration": 0.0294,
      "velocity": 88,
      "chip": "ym2612"
    },
    {
      "channel": 4,
      "note": 71,
      "start": 39.9183,
      "duration": 0.0149,
      "velocity": 70,
      "chip": "ym2612"
    },
    {
      "channel": 4,
      "note": 63,
      "start": 39.9363,
      "duration": 0.0144,
      "velocity": 70,
      "chip": "ym2612"
    },
    {
      "channel": 4,
      "note": 66,
      "start": 39.9537,
      "duration": 0.014,
      "velocity": 70,
      "chip": "ym2612"
    },
    {
      "channel": 4,
      "note": 70,
      "start": 39.9716,
      "duration": 0.0137,
      "velocity": 70,
      "chip": "ym2612"
    },
    {
      "channel": 4,
      "note": 75,
      "start": 39.9884,
      "duration": 0.0145,
      "velocity": 70,
      "chip": "ym2612"
    },
    {
      "channel": 4,
      "note": 78,
      "start": 40.0059,
      "duration": 0.0147,
      "velocity": 70,
      "chip": "ym2612"
    },
    {
      "channel": 1,
      "note": 80,
      "start": 40.0246,
      "duration": 0.1855,
      "velocity": 97,
      "chip": "ym2612"
    },
    {
      "channel": 2,
      "note": 75,
      "start": 40.0251,
      "duration": 0.1851,
      "velocity": 97,
      "chip": "ym2612"
    },
    {
      "channel": 3,
      "note": 59,
      "start": 40.0256,
      "duration": 0.0296,
      "velocity": 88,
      "chip": "ym2612"
    },
    {
      "channel": 4,
      "note": 82,
      "start": 40.0261,
      "duration": 0.0148,
      "velocity": 70,
      "chip": "ym2612"
    },
    {
      "channel": 4,
      "note": 87,
      "start": 40.0439,
      "duration": 0.0137,
      "velocity": 70,
      "chip": "ym2612"
    },
    {
      "channel": 4,
      "note": 71,
      "start": 40.0646,
      "duration": 0.0142,
      "velocity": 70,
      "chip": "ym2612"
    },
    {
      "channel": 4,
      "note": 63,
      "start": 40.0818,
      "duration": 0.0144,
      "velocity": 70,
      "chip": "ym2612"
    },
    {
      "channel": 3,
      "note": 66,
      "start": 40.1018,
      "duration": 0.029,
      "velocity": 88,
      "chip": "ym2612"
    },
    {
      "channel": 4,
      "note": 66,
      "start": 40.1023,
      "duration": 0.014,
      "velocity": 70,
      "chip": "ym2612"
    },
    {
      "channel": 4,
      "note": 70,
      "start": 40.1199,
      "duration": 0.0144,
      "velocity": 70,
      "chip": "ym2612"
    },
    {
      "channel": 4,
      "note": 75,
      "start": 40.1373,
      "duration": 0.0133,
      "velocity": 70,
      "chip": "ym2612"
    },
    {
      "channel": 3,
      "note": 59,
      "start": 40.1541,
      "duration": 0.0325,
      "velocity": 88,
      "chip": "ym2612"
    },
    {
      "channel": 4,
      "note": 78,
      "start": 40.1546,
      "duration": 0.0144,
      "velocity": 70,
      "chip": "ym2612"
    },
    {
      "channel": 4,
      "note": 82,
      "start": 40.1736,
      "duration": 0.016,
      "velocity": 70,
      "chip": "ym2612"
    },
    {
      "channel": 4,
      "note": 87,
      "start": 40.1927,
      "duration": 0.0178,
      "velocity": 70,
      "chip": "ym2612"
    },
    {
      "channel": 1,
      "note": 80,
      "start": 40.2141,
      "duration": 0.1041,
      "velocity": 97,
      "chip": "ym2612"
    },
    {
      "channel": 2,
      "note": 73,
      "start": 40.2147,
      "duration": 0.1037,
      "velocity": 97,
      "chip": "ym2612"
    },
    {
      "channel": 3,
      "note": 58,
      "start": 40.2153,
      "duration": 0.0297,
      "velocity": 88,
      "chip": "ym2612"
    },
    {
      "channel": 4,
      "note": 70,
      "start": 40.2159,
      "duration": 0.0151,
      "velocity": 70,
      "chip": "ym2612"
    },
    {
      "channel": 4,
      "note": 61,
      "start": 40.2339,
      "duration": 0.0139,
      "velocity": 70,
      "chip": "ym2612"
    },
    {
      "channel": 4,
      "note": 65,
      "start": 40.2519,
      "duration": 0.0143,
      "velocity": 70,
      "chip": "ym2612"
    },
    {
      "channel": 4,
      "note": 70,
      "start": 40.2691,
      "duration": 0.0142,
      "velocity": 70,
      "chip": "ym2612"
    },
    {
      "channel": 4,
      "note": 73,
      "start": 40.2862,
      "duration": 0.0147,
      "velocity": 70,
      "chip": "ym2612"
    },
    {
      "channel": 4,
      "note": 77,
      "start": 40.3038,
      "duration": 0.0148,
      "velocity": 70,
      "chip": "ym2612"
    },
    {
      "channel": 1,
      "note": 80,
      "start": 40.3227,
      "duration": 0.1816,
      "velocity": 97,
      "chip": "ym2612"
    },
    {
      "channel": 2,
      "note": 73,
      "start": 40.3233,
      "duration": 0.1812,
      "velocity": 97,
      "chip": "ym2612"
    },
    {
      "channel": 3,
      "note": 58,
      "start": 40.3238,
      "duration": 0.0294,
      "velocity": 88,
      "chip": "ym2612"
    },
    {
      "channel": 4,
      "note": 80,
      "start": 40.3243,
      "duration": 0.0136,
      "velocity": 70,
      "chip": "ym2612"
    },
    {
      "channel": 4,
      "note": 85,
      "start": 40.3417,
      "duration": 0.0142,
      "velocity": 70,
      "chip": "ym2612"
    },
    {
      "channel": 4,
      "note": 70,
      "start": 40.3593,
      "duration": 0.0149,
      "velocity": 70,
      "chip": "ym2612"
    },
    {
      "channel": 4,
      "note": 61,
      "start": 40.3773,
      "duration": 0.0145,
      "velocity": 70,
      "chip": "ym2612"
    },
    {
      "channel": 3,
      "note": 65,
      "start": 40.3968,
      "duration": 0.0288,
      "velocity": 88,
      "chip": "ym2612"
    },
    {
      "channel": 4,
      "note": 65,
      "start": 40.3973,
      "duration": 0.0142,
      "velocity": 70,
      "chip": "ym2612"
    },
    {
      "channel": 4,
      "note": 70,
      "start": 40.4149,
      "duration": 0.0133,
      "velocity": 70,
      "chip": "ym2612"
    },
    {
      "channel": 4,
      "note": 73,
      "start": 40.4318,
      "duration": 0.013,
      "velocity": 70,
      "chip": "ym2612"
    },
    {
      "channel": 3,
      "note": 58,
      "start": 40.4487,
      "duration": 0.0316,
      "velocity": 88,
      "chip": "ym2612"
    },
    {
      "channel": 4,
      "note": 77,
      "start": 40.4492,
      "duration": 0.0152,
      "velocity": 70,
      "chip": "ym2612"
    },
    {
      "channel": 4,
      "note": 80,
      "start": 40.4681,
      "duration": 0.016,
      "velocity": 70,
      "chip": "ym2612"
    },
    {
      "channel": 4,
      "note": 85,
      "start": 40.4873,
      "duration": 0.0174,
      "velocity": 70,
      "chip": "ym2612"
    },
    {
      "channel": 3,
      "note": 51,
      "start": 40.5082,
      "duration": 1.8356,
      "velocity": 88,
      "chip": "ym2612"
    },
    {
      "channel": 4,
      "note": 63,
      "start": 40.5102,
      "duration": 3.0381,
      "velocity": 93,
      "chip": "ym2612"
    },
    {
      "channel": 1,
      "note": 75,
      "start": 40.8055,
      "duration": 0.2379,
      "velocity": 97,
      "chip": "ym2612"
    },
    {
      "channel": 2,
      "note": 67,
      "start": 40.806,
      "duration": 0.2375,
      "velocity": 97,
      "chip": "ym2612"
    },
    {
      "channel": 1,
      "note": 77,
      "start": 41.0655,
      "duration": 0.238,
      "velocity": 97,
      "chip": "ym2612"
    },
    {
      "channel": 2,
      "note": 68,
      "start": 41.0659,
      "duration": 0.2377,
      "velocity": 97,
      "chip": "ym2612"
    },
    {
      "channel": 1,
      "note": 79,
      "start": 41.3254,
      "duration": 0.238,
      "velocity": 97,
      "chip": "ym2612"
    },
    {
      "channel": 2,
      "note": 70,
      "start": 41.326,
      "duration": 0.2377,
      "velocity": 97,
      "chip": "ym2612"
    },
    {
      "channel": 1,
      "note": 80,
      "start": 41.5855,
      "duration": 0.238,
      "velocity": 97,
      "chip": "ym2612"
    },
    {
      "channel": 2,
      "note": 72,
      "start": 41.586,
      "duration": 0.2377,
      "velocity": 97,
      "chip": "ym2612"
    },
    {
      "channel": 1,
      "note": 82,
      "start": 41.8456,
      "duration": 0.238,
      "velocity": 97,
      "chip": "ym2612"
    },
    {
      "channel": 2,
      "note": 73,
      "start": 41.8461,
      "duration": 0.2376,
      "velocity": 97,
      "chip": "ym2612"
    },
    {
      "channel": 1,
      "note": 84,
      "start": 42.1055,
      "duration": 0.238,
      "velocity": 97,
      "chip": "ym2612"
    },
    {
      "channel": 2,
      "note": 75,
      "start": 42.1061,
      "duration": 0.2377,
      "velocity": 97,
      "chip": "ym2612"
    },
    {
      "channel": 1,
      "note": 85,
      "start": 42.3657,
      "duration": 0.2379,
      "velocity": 97,
      "chip": "ym2612"
    },
    {
      "channel": 2,
      "note": 77,
      "start": 42.3663,
      "duration": 0.2375,
      "velocity": 97,
      "chip": "ym2612"
    },
    {
      "channel": 3,
      "note": 51,
      "start": 42.3669,
      "duration": 1.1813,
      "velocity": 88,
      "chip": "ym2612"
    },
    {
      "channel": 1,
      "note": 87,
      "start": 42.6256,
      "duration": 0.238,
      "velocity": 97,
      "chip": "ym2612"
    },
    {
      "channel": 2,
      "note": 79,
      "start": 42.6261,
      "duration": 0.2376,
      "velocity": 97,
      "chip": "ym2612"
    },
    {
      "channel": 1,
      "note": 89,
      "start": 42.8856,
      "duration": 0.238,
      "velocity": 97,
      "chip": "ym2612"
    },
    {
      "channel": 2,
      "note": 80,
      "start": 42.8861,
      "duration": 0.2376,
      "velocity": 97,
      "chip": "ym2612"
    },
    {
      "channel": 1,
      "note": 91,
      "start": 43.1457,
      "duration": 0.238,
      "velocity": 97,
      "chip": "ym2612"
    },
    {
      "channel": 2,
      "note": 82,
      "start": 43.1462,
      "duration": 0.2376,
      "velocity": 97,
      "chip": "ym2612"
    },
    {
      "channel": 1,
      "note": 92,
      "start": 43.4057,
      "duration": 0.0317,
      "velocity": 97,
      "chip": "ym2612"
    },
    {
      "channel": 2,
      "note": 84,
      "start": 43.4062,
      "duration": 0.0313,
      "velocity": 97,
      "chip": "ym2612"
    },
    {
      "channel": 1,
      "note": 94,
      "start": 43.441,
      "duration": 0.0311,
      "velocity": 97,
      "chip": "ym2612"
    },
    {
      "channel": 2,
      "note": 85,
      "start": 43.4416,
      "duration": 0.0307,
      "velocity": 97,
      "chip": "ym2612"
    },
    {
      "channel": 1,
      "note": 84,
      "start": 43.4762,
      "duration": 0.0339,
      "velocity": 97,
      "chip": "ym2612"
    },
    {
      "channel": 2,
      "note": 80,
      "start": 43.4768,
      "duration": 0.0334,
      "velocity": 97,
      "chip": "ym2612"
    },
    {
      "channel": 1,
      "note": 85,
      "start": 43.513,
      "duration": 0.0349,
      "velocity": 97,
      "chip": "ym2612"
    },
    {
      "channel": 2,
      "note": 82,
      "start": 43.5135,
      "duration": 0.0346,
      "velocity": 97,
      "chip": "ym2612"
    },
    {
      "channel": 1,
      "note": 84,
      "start": 43.5524,
      "duration": 1.1761,
      "velocity": 97,
      "chip": "ym2612"
    },
    {
      "channel": 2,
      "note": 75,
      "start": 43.553,
      "duration": 1.1756,
      "velocity": 97,
      "chip": "ym2612"
    },
    {
      "channel": 3,
      "note": 56,
      "start": 43.5555,
      "duration": 0.0322,
      "velocity": 97,
      "chip": "ym2612"
    },
    {
      "channel": 3,
      "note": 63,
      "start": 43.5905,
      "duration": 0.098,
      "velocity": 97,
      "chip": "ym2612"
    },
    {
      "channel": 3,
      "note": 70,
      "start": 43.7105,
      "duration": 0.238,
      "velocity": 97,
      "chip": "ym2612"
    },
    {
      "channel": 3,
      "note": 72,
      "start": 43.9707,
      "duration": 0.238,
      "velocity": 97,
      "chip": "ym2612"
    },
    {
      "channel": 3,
      "note": 80,
      "start": 44.2307,
      "duration": 1.018,
      "velocity": 97,
      "chip": "ym2612"
    },
    {
      "channel": 1,
      "note": 84,
      "start": 44.7506,
      "duration": 0.2379,
      "velocity": 97,
      "chip": "ym2612"
    },
    {
      "channel": 2,
      "note": 75,
      "start": 44.7511,
      "duration": 0.2376,
      "velocity": 97,
      "chip": "ym2612"
    },
    {
      "channel": 1,
      "note": 84,
      "start": 45.0105,
      "duration": 0.238,
      "velocity": 97,
      "chip": "ym2612"
    },
    {
      "channel": 2,
      "note": 75,
      "start": 45.0111,
      "duration": 0.2376,
      "velocity": 97,
      "chip": "ym2612"
    },
    {
      "channel": 1,
      "note": 85,
      "start": 45.2707,
      "duration": 0.1361,
      "velocity": 97,
      "chip": "ym2612"
    },
    {
      "channel": 2,
      "note": 77,
      "start": 45.2713,
      "duration": 0.1356,
      "velocity": 97,
      "chip": "ym2612"
    },
    {
      "channel": 3,
      "note": 55,
      "start": 45.2719,
      "duration": 0.0325,
      "velocity": 97,
      "chip": "ym2612"
    },
    {
      "channel": 3,
      "note": 63,
      "start": 45.3073,
      "duration": 0.0998,
      "velocity": 97,
      "chip": "ym2612"
    },
    {
      "channel": 1,
      "note": 84,
      "start": 45.4292,
      "duration": 0.2376,
      "velocity": 97,
      "chip": "ym2612"
    },
    {
      "channel": 2,
      "note": 75,
      "start": 45.4297,
      "duration": 0.2372,
      "velocity": 97,
      "chip": "ym2612"
    },
    {
      "channel": 3,
      "note": 67,
      "start": 45.4302,
      "duration": 0.2368,
      "velocity": 97,
      "chip": "ym2612"
    },
    {
      "channel": 1,
      "note": 82,
      "start": 45.6888,
      "duration": 0.498,
      "velocity": 97,
      "chip": "ym2612"
    },
    {
      "channel": 2,
      "note": 73,
      "start": 45.6893,
      "duration": 0.4977,
      "velocity": 97,
      "chip": "ym2612"
    },
    {
      "channel": 3,
      "note": 70,
      "start": 45.6898,
      "duration": 0.2372,
      "velocity": 97,
      "chip": "ym2612"
    },
    {
      "channel": 3,
      "note": 75,
      "start": 45.949,
      "duration": 1.0181,
      "velocity": 97,
      "chip": "ym2612"
    },
    {
      "channel": 1,
      "note": 84,
      "start": 46.2089,
      "duration": 0.498,
      "velocity": 97,
      "chip": "ym2612"
    },
    {
      "channel": 2,
      "note": 75,
      "start": 46.2093,
      "duration": 0.4977,
      "velocity": 97,
      "chip": "ym2612"
    },
    {
      "channel": 1,
      "note": 80,
      "start": 46.7293,
      "duration": 1.4359,
      "velocity": 97,
      "chip": "ym2612"
    },
    {
      "channel": 2,
      "note": 72,
      "start": 46.7299,
      "duration": 1.4355,
      "velocity": 97,
      "chip": "ym2612"
    },
    {
      "channel": 3,
      "note": 53,
      "start": 46.9899,
      "duration": 0.0315,
      "velocity": 97,
      "chip": "ym2612"
    },
    {
      "channel": 3,
      "note": 60,
      "start": 47.0253,
      "duration": 0.1001,
      "velocity": 97,
      "chip": "ym2612"
    },
    {
      "channel": 3,
      "note": 67,
      "start": 47.1474,
      "duration": 0.238,
      "velocity": 97,
      "chip": "ym2612"
    },
    {
      "channel": 3,
      "note": 68,
      "start": 47.4075,
      "duration": 0.238,
      "velocity": 97,
      "chip": "ym2612"
    },
    {
      "channel": 3,
      "note": 77,
      "start": 47.668,
      "duration": 1.0177,
      "velocity": 97,
      "chip": "ym2612"
    },
    {
      "channel": 1,
      "note": 80,
      "start": 48.1873,
      "duration": 0.238,
      "velocity": 97,
      "chip": "ym2612"
    },
    {
      "channel": 2,
      "note": 72,
      "start": 48.1879,
      "duration": 0.2376,
      "velocity": 97,
      "chip": "ym2612"
    },
    {
      "channel": 1,
      "note": 80,
      "start": 48.4474,
      "duration": 0.238,
      "velocity": 97,
      "chip": "ym2612"
    },
    {
      "channel": 2,
      "note": 72,
      "start": 48.4479,
      "duration": 0.2376,
      "velocity": 97,
      "chip": "ym2612"
    },
    {
      "channel": 1,
      "note": 82,
      "start": 48.7075,
      "duration": 0.1358,
      "velocity": 97,
      "chip": "ym2612"
    },
    {
      "channel": 2,
      "note": 73,
      "start": 48.7081,
      "duration": 0.1353,
      "velocity": 97,
      "chip": "ym2612"
    },
    {
      "channel": 3,
      "note": 48,
      "start": 48.7087,
      "duration": 0.0316,
      "velocity": 97,
      "chip": "ym2612"
    },
    {
      "channel": 3,
      "note": 55,
      "start": 48.7441,
      "duration": 0.0994,
      "velocity": 97,
      "chip": "ym2612"
    },
    {
      "channel": 1,
      "note": 80,
      "start": 48.8652,
      "duration": 0.238,
      "velocity": 97,
      "chip": "ym2612"
    },
    {
      "channel": 2,
      "note": 72,
      "start": 48.8657,
      "duration": 0.2376,
      "velocity": 97,
      "chip": "ym2612"
    },
    {
      "channel": 3,
      "note": 62,
      "start": 48.8663,
      "duration": 0.2373,
      "velocity": 97,
      "chip": "ym2612"
    },
    {
      "channel": 1,
      "note": 79,
      "start": 49.1252,
      "duration": 0.498,
      "velocity": 97,
      "chip": "ym2612"
    },
    {
      "channel": 2,
      "note": 70,
      "start": 49.1257,
      "duration": 0.4976,
      "velocity": 97,
      "chip": "ym2612"
    },
    {
      "channel": 3,
      "note": 63,
      "start": 49.1262,
      "duration": 0.2372,
      "velocity": 97,
      "chip": "ym2612"
    },
    {
      "channel": 3,
      "note": 72,
      "start": 49.3855,
      "duration": 1.018,
      "velocity": 97,
      "chip": "ym2612"
    },
    {
      "channel": 1,
      "note": 80,
      "start": 49.6453,
      "duration": 0.4981,
      "velocity": 97,
      "chip": "ym2612"
    },
    {
      "channel": 2,
      "note": 72,
      "start": 49.6457,
      "duration": 0.4978,
      "velocity": 97,
      "chip": "ym2612"
    },
    {
      "channel": 1,
      "note": 77,
      "start": 50.1654,
      "duration": 0.9159,
      "velocity": 97,
      "chip": "ym2612"
    },
    {
      "channel": 2,
      "note": 68,
      "start": 50.1659,
      "duration": 0.9155,
      "velocity": 97,
      "chip": "ym2612"
    },
    {
      "channel": 3,
      "note": 49,
      "start": 50.4264,
      "duration": 0.0315,
      "velocity": 97,
      "chip": "ym2612"
    },
    {
      "channel": 3,
      "note": 56,
      "start": 50.4607,
      "duration": 0.1007,
      "velocity": 97,
      "chip": "ym2612"
    },
    {
      "channel": 3,
      "note": 65,
      "start": 50.5835,
      "duration": 0.238,
      "velocity": 97,
      "chip": "ym2612"
    },
    {
      "channel": 3,
      "note": 56,
      "start": 50.8436,
      "duration": 0.238,
      "velocity": 97,
      "chip": "ym2612"
    },
    {
      "channel": 1,
      "note": 77,
      "start": 51.1034,
      "duration": 0.238,
      "velocity": 97,
      "chip": "ym2612"
    },
    {
      "channel": 2,
      "note": 68,
      "start": 51.1039,
      "duration": 0.2375,
      "velocity": 97,
      "chip": "ym2612"
    },
    {
      "channel": 3,
      "note": 49,
      "start": 51.1044,
      "duration": 0.2373,
      "velocity": 97,
      "chip": "ym2612"
    },
    {
      "channel": 1,
      "note": 79,
      "start": 51.3633,
      "duration": 0.238,
      "velocity": 97,
      "chip": "ym2612"
    },
    {
      "channel": 2,
      "note": 70,
      "start": 51.3639,
      "duration": 0.2377,
      "velocity": 97,
      "chip": "ym2612"
    },
    {
      "channel": 3,
      "note": 56,
      "start": 51.3644,
      "duration": 0.2373,
      "velocity": 97,
      "chip": "ym2612"
    },
    {
      "channel": 1,
      "note": 80,
      "start": 51.6234,
      "duration": 0.238,
      "velocity": 97,
      "chip": "ym2612"
    },
    {
      "channel": 2,
      "note": 72,
      "start": 51.6239,
      "duration": 0.2376,
      "velocity": 97,
      "chip": "ym2612"
    },
    {
      "channel": 3,
      "note": 65,
      "start": 51.6244,
      "duration": 0.2373,
      "velocity": 97,
      "chip": "ym2612"
    },
    {
      "channel": 1,
      "note": 75,
      "start": 51.8834,
      "duration": 0.6561,
      "velocity": 97,
      "chip": "ym2612"
    },
    {
      "channel": 2,
      "note": 68,
      "start": 51.8839,
      "duration": 0.6558,
      "velocity": 97,
      "chip": "ym2612"
    },
    {
      "channel": 3,
      "note": 56,
      "start": 51.8845,
      "duration": 0.2371,
      "velocity": 97,
      "chip": "ym2612"
    },
    {
      "channel": 3,
      "note": 48,
      "start": 52.1444,
      "duration": 0.0315,
      "velocity": 97,
      "chip": "ym2612"
    },
    {
      "channel": 3,
      "note": 55,
      "start": 52.1789,
      "duration": 0.1009,
      "velocity": 97,
      "chip": "ym2612"
    },
    {
      "channel": 3,
      "note": 63,
      "start": 52.3018,
      "duration": 0.2381,
      "velocity": 97,
      "chip": "ym2612"
    },
    {
      "channel": 1,
      "note": 80,
      "start": 52.5617,
      "duration": 0.7581,
      "velocity": 97,
      "chip": "ym2612"
    },
    {
      "channel": 2,
      "note": 72,
      "start": 52.5622,
      "duration": 0.7577,
      "velocity": 97,
      "chip": "ym2612"
    },
    {
      "channel": 3,
      "note": 55,
      "start": 52.5627,
      "duration": 0.2371,
      "velocity": 97,
      "chip": "ym2612"
    },
    {
      "channel": 3,
      "note": 53,
      "start": 52.8218,
      "duration": 0.238,
      "velocity": 97,
      "chip": "ym2612"
    },
    {
      "channel": 3,
      "note": 60,
      "start": 53.0818,
      "duration": 0.2382,
      "velocity": 97,
      "chip": "ym2612"
    },
    {
      "channel": 1,
      "note": 75,
      "start": 53.3417,
      "duration": 0.498,
      "velocity": 97,
      "chip": "ym2612"
    },
    {
      "channel": 2,
      "note": 68,
      "start": 53.3423,
      "duration": 0.4976,
      "velocity": 97,
      "chip": "ym2612"
    },
    {
      "channel": 3,
      "note": 68,
      "start": 53.3428,
      "duration": 0.2372,
      "velocity": 97,
      "chip": "ym2612"
    },
    {
      "channel": 3,
      "note": 60,
      "start": 53.6019,
      "duration": 0.2382,
      "velocity": 97,
      "chip": "ym2612"
    },
    {
      "channel": 1,
      "note": 77,
      "start": 53.8619,
      "duration": 0.033,
      "velocity": 97,
      "chip": "ym2612"
    },
    {
      "channel": 2,
      "note": 73,
      "start": 53.8625,
      "duration": 0.0326,
      "velocity": 97,
      "chip": "ym2612"
    },
    {
      "channel": 3,
      "note": 58,
      "start": 53.8631,
      "duration": 0.0321,
      "velocity": 97,
      "chip": "ym2612"
    },
    {
      "channel": 1,
      "note": 75,
      "start": 53.898,
      "duration": 0.0997,
      "velocity": 97,
      "chip": "ym2612"
    },
    {
      "channel": 2,
      "note": 72,
      "start": 53.8985,
      "duration": 0.0993,
      "velocity": 97,
      "chip": "ym2612"
    },
    {
      "channel": 3,
      "note": 65,
      "start": 53.899,
      "duration": 0.099,
      "velocity": 97,
      "chip": "ym2612"
    },
    {
      "channel": 1,
      "note": 73,
      "start": 54.0197,
      "duration": 0.238,
      "velocity": 97,
      "chip": "ym2612"
    },
    {
      "channel": 2,
      "note": 70,
      "start": 54.0202,
      "duration": 0.2376,
      "velocity": 97,
      "chip": "ym2612"
    },
    {
      "channel": 3,
      "note": 73,
      "start": 54.0207,
      "duration": 0.2373,
      "velocity": 97,
      "chip": "ym2612"
    },
    {
      "channel": 1,
      "note": 70,
      "start": 54.2798,
      "duration": 0.498,
      "velocity": 97,
      "chip": "ym2612"
    },
    {
      "channel": 2,
      "note": 65,
      "start": 54.2803,
      "duration": 0.4976,
      "velocity": 97,
      "chip": "ym2612"
    },
    {
      "channel": 3,
      "note": 65,
      "start": 54.2808,
      "duration": 0.2371,
      "velocity": 97,
      "chip": "ym2612"
    },
    {
      "channel": 3,
      "note": 58,
      "start": 54.5399,
      "duration": 0.2382,
      "velocity": 97,
      "chip": "ym2612"
    },
    {
      "channel": 1,
      "note": 73,
      "start": 54.7998,
      "duration": 0.238,
      "velocity": 97,
      "chip": "ym2612"
    },
    {
      "channel": 2,
      "note": 70,
      "start": 54.8003,
      "duration": 0.2377,
      "velocity": 97,
      "chip": "ym2612"
    },
    {
      "channel": 3,
      "note": 65,
      "start": 54.8008,
      "duration": 0.2373,
      "velocity": 97,
      "chip": "ym2612"
    },
    {
      "channel": 1,
      "note": 77,
      "start": 55.0598,
      "duration": 0.238,
      "velocity": 97,
      "chip": "ym2612"
    },
    {
      "channel": 2,
      "note": 73,
      "start": 55.0603,
      "duration": 0.2377,
      "velocity": 97,
      "chip": "ym2612"
    },
    {
      "channel": 3,
      "note": 73,
      "start": 55.0608,
      "duration": 0.2373,
      "velocity": 97,
      "chip": "ym2612"
    },
    {
      "channel": 1,
      "note": 80,
      "start": 55.3198,
      "duration": 0.238,
      "velocity": 97,
      "chip": "ym2612"
    },
    {
      "channel": 2,
      "note": 73,
      "start": 55.3203,
      "duration": 0.2376,
      "velocity": 97,
      "chip": "ym2612"
    },
    {
      "channel": 3,
      "note": 56,
      "start": 55.3208,
      "duration": 0.2373,
      "velocity": 97,
      "chip": "ym2612"
    },
    {
      "channel": 1,
      "note": 80,
      "start": 55.58,
      "duration": 0.396,
      "velocity": 97,
      "chip": "ym2612"
    },
    {
      "channel": 2,
      "note": 73,
      "start": 55.5806,
      "duration": 0.3956,
      "velocity": 97,
      "chip": "ym2612"
    },
    {
      "channel": 3,
      "note": 54,
      "start": 55.5812,
      "duration": 0.0315,
      "velocity": 97,
      "chip": "ym2612"
    },
    {
      "channel": 3,
      "note": 61,
      "start": 55.6164,
      "duration": 0.0998,
      "velocity": 97,
      "chip": "ym2612"
    },
    {
      "channel": 3,
      "note": 70,
      "start": 55.7382,
      "duration": 0.2382,
      "velocity": 97,
      "chip": "ym2612"
    },
    {
      "channel": 1,
      "note": 82,
      "start": 55.9981,
      "duration": 0.3282,
      "velocity": 97,
      "chip": "ym2612"
    },
    {
      "channel": 2,
      "note": 73,
      "start": 55.9987,
      "duration": 0.3278,
      "velocity": 97,
      "chip": "ym2612"
    },
    {
      "channel": 3,
      "note": 61,
      "start": 55.9991,
      "duration": 0.2372,
      "velocity": 97,
      "chip": "ym2612"
    },
    {
      "channel": 3,
      "note": 51,
      "start": 56.2583,
      "duration": 0.0323,
      "velocity": 97,
      "chip": "ym2612"
    },
    {
      "channel": 3,
      "note": 58,
      "start": 56.2949,
      "duration": 0.0317,
      "velocity": 97,
      "chip": "ym2612"
    },
    {
      "channel": 1,
      "note": 75,
      "start": 56.3302,
      "duration": 0.0729,
      "velocity": 97,
      "chip": "ym2612"
    },
    {
      "channel": 2,
      "note": 70,
      "start": 56.3307,
      "duration": 0.0726,
      "velocity": 97,
      "chip": "ym2612"
    },
    {
      "channel": 3,
      "note": 67,
      "start": 56.3313,
      "duration": 0.0345,
      "velocity": 97,
      "chip": "ym2612"
    },
    {
      "channel": 3,
      "note": 58,
      "start": 56.3688,
      "duration": 0.0346,
      "velocity": 97,
      "chip": "ym2612"
    },
    {
      "channel": 1,
      "note": 87,
      "start": 56.4064,
      "duration": 0.1811,
      "velocity": 97,
      "chip": "ym2612"
    },
    {
      "channel": 2,
      "note": 84,
      "start": 56.4071,
      "duration": 0.1805,
      "velocity": 97,
      "chip": "ym2612"
    },
    {
      "channel": 3,
      "note": 56,
      "start": 56.4095,
      "duration": 0.0165,
      "velocity": 88,
      "chip": "ym2612"
    },
    {
      "channel": 4,
      "note": 75,
      "start": 56.4121,
      "duration": 0.1376,
      "velocity": 100,
      "chip": "ym2612"
    },
    {
      "channel": 3,
      "note": 56,
      "start": 56.4472,
      "duration": 0.0138,
      "velocity": 88,
      "chip": "ym2612"
    },
    {
      "channel": 3,
      "note": 56,
      "start": 56.4985,
      "duration": 0.0305,
      "velocity": 88,
      "chip": "ym2612"
    },
    {
      "channel": 3,
      "note": 56,
      "start": 56.5543,
      "duration": 0.0158,
      "velocity": 88,
      "chip": "ym2612"
    },
    {
      "channel": 4,
      "note": 72,
      "start": 56.5548,
      "duration": 0.1437,
      "velocity": 100,
      "chip": "ym2612"
    },
    {
      "channel": 1,
      "note": 87,
      "start": 56.5912,
      "duration": 0.0317,
      "velocity": 97,
      "chip": "ym2612"
    },
    {
      "channel": 2,
      "note": 84,
      "start": 56.5917,
      "duration": 0.0313,
      "velocity": 97,
      "chip": "ym2612"
    },
    {
      "channel": 1,
      "note": 85,
      "start": 56.6268,
      "duration": 0.0321,
      "velocity": 97,
      "chip": "ym2612"
    },
    {
      "channel": 2,
      "note": 82,
      "start": 56.6273,
      "duration": 0.0317,
      "velocity": 97,
      "chip": "ym2612"
    },
    {
      "channel": 3,
      "note": 56,
      "start": 56.6278,
      "duration": 0.014,
      "velocity": 88,
      "chip": "ym2612"
    },
    {
      "channel": 1,
      "note": 84,
      "start": 56.6637,
      "duration": 0.0156,
      "velocity": 97,
      "chip": "ym2612"
    },
    {
      "channel": 2,
      "note": 80,
      "start": 56.6642,
      "duration": 0.0152,
      "velocity": 97,
      "chip": "ym2612"
    },
    {
      "channel": 1,
      "note": 82,
      "start": 56.6824,
      "duration": 0.2729,
      "velocity": 97,
      "chip": "ym2612"
    },
    {
      "channel": 2,
      "note": 79,
      "start": 56.6829,
      "duration": 0.2725,
      "velocity": 97,
      "chip": "ym2612"
    },
    {
      "channel": 3,
      "note": 55,
      "start": 56.7048,
      "duration": 0.0146,
      "velocity": 88,
      "chip": "ym2612"
    },
    {
      "channel": 4,
      "note": 75,
      "start": 56.7054,
      "duration": 0.1414,
      "velocity": 100,
      "chip": "ym2612"
    },
    {
      "channel": 3,
      "note": 55,
      "start": 56.7413,
      "duration": 0.0149,
      "velocity": 88,
      "chip": "ym2612"
    },
    {
      "channel": 3,
      "note": 55,
      "start": 56.794,
      "duration": 0.0322,
      "velocity": 88,
      "chip": "ym2612"
    },
    {
      "channel": 3,
      "note": 55,
      "start": 56.8515,
      "duration": 0.0159,
      "velocity": 88,
      "chip": "ym2612"
    },
    {
      "channel": 4,
      "note": 70,
      "start": 56.852,
      "duration": 0.1412,
      "velocity": 100,
      "chip": "ym2612"
    },
    {
      "channel": 3,
      "note": 55,
      "start": 56.9228,
      "duration": 0.0153,
      "velocity": 88,
      "chip": "ym2612"
    },
    {
      "channel": 1,
      "note": 80,
      "start": 56.9591,
      "duration": 0.0154,
      "velocity": 97,
      "chip": "ym2612"
    },
    {
      "channel": 2,
      "note": 77,
      "start": 56.9596,
      "duration": 0.0151,
      "velocity": 97,
      "chip": "ym2612"
    },
    {
      "channel": 3,
      "note": 51,
      "start": 56.9601,
      "duration": 0.0147,
      "velocity": 88,
      "chip": "ym2612"
    },
    {
      "channel": 1,
      "note": 82,
      "start": 56.9777,
      "duration": 0.0151,
      "velocity": 97,
      "chip": "ym2612"
    },
    {
      "channel": 2,
      "note": 79,
      "start": 56.9781,
      "duration": 0.0148,
      "velocity": 97,
      "chip": "ym2612"
    },
    {
      "channel": 3,
      "note": 52,
      "start": 56.9786,
      "duration": 0.0144,
      "velocity": 88,
      "chip": "ym2612"
    },
    {
      "channel": 1,
      "note": 84,
      "start": 56.9988,
      "duration": 0.178,
      "velocity": 97,
      "chip": "ym2612"
    },
    {
      "channel": 2,
      "note": 80,
      "start": 56.9993,
      "duration": 0.1776,
      "velocity": 97,
      "chip": "ym2612"
    },
    {
      "channel": 3,
      "note": 53,
      "start": 56.9999,
      "duration": 0.0148,
      "velocity": 88,
      "chip": "ym2612"
    },
    {
      "channel": 4,
      "note": 72,
      "start": 57.0005,
      "duration": 0.1405,
      "velocity": 100,
      "chip": "ym2612"
    },
    {
      "channel": 3,
      "note": 53,
      "start": 57.0365,
      "duration": 0.0149,
      "velocity": 88,
      "chip": "ym2612"
    },
    {
      "channel": 3,
      "note": 53,
      "start": 57.0885,
      "duration": 0.0318,
      "velocity": 88,
      "chip": "ym2612"
    },
    {
      "channel": 3,
      "note": 53,
      "start": 57.1447,
      "duration": 0.0155,
      "velocity": 88,
      "chip": "ym2612"
    },
    {
      "channel": 4,
      "note": 68,
      "start": 57.1452,
      "duration": 0.1422,
      "velocity": 100,
      "chip": "ym2612"
    },
    {
      "channel": 1,
      "note": 84,
      "start": 57.1817,
      "duration": 0.0317,
      "velocity": 97,
      "chip": "ym2612"
    },
    {
      "channel": 2,
      "note": 80,
      "start": 57.1823,
      "duration": 0.0313,
      "velocity": 97,
      "chip": "ym2612"
    },
    {
      "channel": 1,
      "note": 82,
      "start": 57.2165,
      "duration": 0.0331,
      "velocity": 97,
      "chip": "ym2612"
    },
    {
      "channel": 2,
      "note": 79,
      "start": 57.2169,
      "duration": 0.0328,
      "velocity": 97,
      "chip": "ym2612"
    },
    {
      "channel": 3,
      "note": 53,
      "start": 57.2175,
      "duration": 0.0149,
      "velocity": 88,
      "chip": "ym2612"
    },
    {
      "channel": 1,
      "note": 80,
      "start": 57.2537,
      "duration": 0.0147,
      "velocity": 97,
      "chip": "ym2612"
    },
    {
      "channel": 2,
      "note": 77,
      "start": 57.2542,
      "duration": 0.0143,
      "velocity": 97,
      "chip": "ym2612"
    },
    {
      "channel": 1,
      "note": 79,
      "start": 57.2724,
      "duration": 0.2686,
      "velocity": 97,
      "chip": "ym2612"
    },
    {
      "channel": 2,
      "note": 75,
      "start": 57.2729,
      "duration": 0.2682,
      "velocity": 97,
      "chip": "ym2612"
    },
    {
      "channel": 3,
      "note": 48,
      "start": 57.2944,
      "duration": 0.0155,
      "velocity": 88,
      "chip": "ym2612"
    },
    {
      "channel": 4,
      "note": 72,
      "start": 57.295,
      "duration": 0.1383,
      "velocity": 100,
      "chip": "ym2612"
    },
    {
      "channel": 3,
      "note": 48,
      "start": 57.331,
      "duration": 0.015,
      "velocity": 88,
      "chip": "ym2612"
    },
    {
      "channel": 3,
      "note": 48,
      "start": 57.3824,
      "duration": 0.0296,
      "velocity": 88,
      "chip": "ym2612"
    },
    {
      "channel": 3,
      "note": 48,
      "start": 57.4369,
      "duration": 0.015,
      "velocity": 88,
      "chip": "ym2612"
    },
    {
      "channel": 4,
      "note": 67,
      "start": 57.4374,
      "duration": 0.1411,
      "velocity": 100,
      "chip": "ym2612"
    },
    {
      "channel": 3,
      "note": 48,
      "start": 57.5093,
      "duration": 0.015,
      "velocity": 88,
      "chip": "ym2612"
    },
    {
      "channel": 1,
      "note": 75,
      "start": 57.5457,
      "duration": 0.0324,
      "velocity": 97,
      "chip": "ym2612"
    },
    {
      "channel": 2,
      "note": 72,
      "start": 57.5462,
      "duration": 0.0321,
      "velocity": 97,
      "chip": "ym2612"
    },
    {
      "channel": 1,
      "note": 77,
      "start": 57.5846,
      "duration": 0.0506,
      "velocity": 97,
      "chip": "ym2612"
    },
    {
      "channel": 2,
      "note": 73,
      "start": 57.5852,
      "duration": 0.0502,
      "velocity": 97,
      "chip": "ym2612"
    },
    {
      "channel": 3,
      "note": 49,
      "start": 57.5858,
      "duration": 0.0151,
      "velocity": 88,
      "chip": "ym2612"
    },
    {
      "channel": 4,
      "note": 68,
      "start": 57.5864,
      "duration": 0.1385,
      "velocity": 100,
      "chip": "ym2612"
    },
    {
      "channel": 3,
      "note": 49,
      "start": 57.6217,
      "duration": 0.0139,
      "velocity": 88,
      "chip": "ym2612"
    },
    {
      "channel": 1,
      "note": 84,
      "start": 57.6392,
      "duration": 0.0487,
      "velocity": 97,
      "chip": "ym2612"
    },
    {
      "channel": 2,
      "note": 80,
      "start": 57.6397,
      "duration": 0.0483,
      "velocity": 97,
      "chip": "ym2612"
    },
    {
      "channel": 3,
      "note": 49,
      "start": 57.6737,
      "duration": 0.0314,
      "velocity": 88,
      "chip": "ym2612"
    },
    {
      "channel": 1,
      "note": 82,
      "start": 57.6927,
      "duration": 0.0685,
      "velocity": 97,
      "chip": "ym2612"
    },
    {
      "channel": 2,
      "note": 79,
      "start": 57.6932,
      "duration": 0.0681,
      "velocity": 97,
      "chip": "ym2612"
    },
    {
      "channel": 3,
      "note": 49,
      "start": 57.7302,
      "duration": 0.0145,
      "velocity": 88,
      "chip": "ym2612"
    },
    {
      "channel": 4,
      "note": 68,
      "start": 57.7307,
      "duration": 0.1422,
      "velocity": 100,
      "chip": "ym2612"
    },
    {
      "channel": 1,
      "note": 79,
      "start": 57.767,
      "duration": 0.0668,
      "velocity": 97,
      "chip": "ym2612"
    },
    {
      "channel": 2,
      "note": 75,
      "start": 57.7675,
      "duration": 0.0664,
      "velocity": 97,
      "chip": "ym2612"
    },
    {
      "channel": 3,
      "note": 49,
      "start": 57.8025,
      "duration": 0.0141,
      "velocity": 88,
      "chip": "ym2612"
    },
    {
      "channel": 1,
      "note": 77,
      "start": 57.8393,
      "duration": 0.0334,
      "velocity": 97,
      "chip": "ym2612"
    },
    {
      "channel": 2,
      "note": 73,
      "start": 57.8398,
      "duration": 0.0329,
      "velocity": 97,
      "chip": "ym2612"
    },
    {
      "channel": 1,
      "note": 75,
      "start": 57.879,
      "duration": 0.0509,
      "velocity": 97,
      "chip": "ym2612"
    },
    {
      "channel": 2,
      "note": 72,
      "start": 57.8796,
      "duration": 0.0504,
      "velocity": 97,
      "chip": "ym2612"
    },
    {
      "channel": 3,
      "note": 48,
      "start": 57.8802,
      "duration": 0.029,
      "velocity": 88,
      "chip": "ym2612"
    },
    {
      "channel": 4,
      "note": 67,
      "start": 57.8808,
      "duration": 0.1394,
      "velocity": 100,
      "chip": "ym2612"
    },
    {
      "channel": 1,
      "note": 82,
      "start": 57.9329,
      "duration": 0.0495,
      "velocity": 97,
      "chip": "ym2612"
    },
    {
      "channel": 2,
      "note": 79,
      "start": 57.9334,
      "duration": 0.0492,
      "velocity": 97,
      "chip": "ym2612"
    },
    {
      "channel": 3,
      "note": 55,
      "start": 57.9339,
      "duration": 0.0282,
      "velocity": 88,
      "chip": "ym2612"
    },
    {
      "channel": 1,
      "note": 80,
      "start": 57.9877,
      "duration": 0.0693,
      "velocity": 97,
      "chip": "ym2612"
    },
    {
      "channel": 2,
      "note": 77,
      "start": 57.9882,
      "duration": 0.0689,
      "velocity": 97,
      "chip": "ym2612"
    },
    {
      "channel": 3,
      "note": 54,
      "start": 57.9887,
      "duration": 0.014,
      "velocity": 88,
      "chip": "ym2612"
    },
    {
      "channel": 3,
      "note": 53,
      "start": 58.0249,
      "duration": 0.029,
      "velocity": 88,
      "chip": "ym2612"
    },
    {
      "channel": 4,
      "note": 72,
      "start": 58.0254,
      "duration": 0.1037,
      "velocity": 100,
      "chip": "ym2612"
    },
    {
      "channel": 1,
      "note": 80,
      "start": 58.0621,
      "duration": 0.0666,
      "velocity": 97,
      "chip": "ym2612"
    },
    {
      "channel": 2,
      "note": 77,
      "start": 58.0626,
      "duration": 0.0662,
      "velocity": 97,
      "chip": "ym2612"
    },
    {
      "channel": 3,
      "note": 60,
      "start": 58.0976,
      "duration": 0.0314,
      "velocity": 88,
      "chip": "ym2612"
    },
    {
      "channel": 1,
      "note": 82,
      "start": 58.1342,
      "duration": 0.0337,
      "velocity": 97,
      "chip": "ym2612"
    },
    {
      "channel": 2,
      "note": 79,
      "start": 58.1347,
      "duration": 0.0333,
      "velocity": 97,
      "chip": "ym2612"
    },
    {
      "channel": 3,
      "note": 59,
      "start": 58.1353,
      "duration": 0.033,
      "velocity": 88,
      "chip": "ym2612"
    },
    {
      "channel": 4,
      "note": 72,
      "start": 58.1358,
      "duration": 0.0326,
      "velocity": 100,
      "chip": "ym2612"
    },
    {
      "channel": 1,
      "note": 84,
      "start": 58.1713,
      "duration": 0.1787,
      "velocity": 97,
      "chip": "ym2612"
    },
    {
      "channel": 2,
      "note": 80,
      "start": 58.1719,
      "duration": 0.1783,
      "velocity": 97,
      "chip": "ym2612"
    },
    {
      "channel": 3,
      "note": 58,
      "start": 58.1725,
      "duration": 0.0147,
      "velocity": 88,
      "chip": "ym2612"
    },
    {
      "channel": 4,
      "note": 73,
      "start": 58.1731,
      "duration": 0.1392,
      "velocity": 100,
      "chip": "ym2612"
    },
    {
      "channel": 3,
      "note": 58,
      "start": 58.2089,
      "duration": 0.0149,
      "velocity": 88,
      "chip": "ym2612"
    },
    {
      "channel": 3,
      "note": 58,
      "start": 58.2613,
      "duration": 0.0304,
      "velocity": 88,
      "chip": "ym2612"
    },
    {
      "channel": 3,
      "note": 58,
      "start": 58.3169,
      "duration": 0.0159,
      "velocity": 88,
      "chip": "ym2612"
    },
    {
      "channel": 4,
      "note": 73,
      "start": 58.3174,
      "duration": 0.1418,
      "velocity": 100,
      "chip": "ym2612"
    },
    {
      "channel": 1,
      "note": 84,
      "start": 58.3538,
      "duration": 0.0315,
      "velocity": 97,
      "chip": "ym2612"
    },
    {
      "channel": 2,
      "note": 80,
      "start": 58.3543,
      "duration": 0.0311,
      "velocity": 97,
      "chip": "ym2612"
    },
    {
      "channel": 1,
      "note": 82,
      "start": 58.388,
      "duration": 0.0327,
      "velocity": 97,
      "chip": "ym2612"
    },
    {
      "channel": 2,
      "note": 79,
      "start": 58.3885,
      "duration": 0.0324,
      "velocity": 97,
      "chip": "ym2612"
    },
    {
      "channel": 3,
      "note": 58,
      "start": 58.3891,
      "duration": 0.0286,
      "velocity": 88,
      "chip": "ym2612"
    },
    {
      "channel": 1,
      "note": 80,
      "start": 58.4249,
      "duration": 0.0161,
      "velocity": 97,
      "chip": "ym2612"
    },
    {
      "channel": 2,
      "note": 77,
      "start": 58.4254,
      "duration": 0.0157,
      "velocity": 97,
      "chip": "ym2612"
    },
    {
      "channel": 3,
      "note": 56,
      "start": 58.4259,
      "duration": 0.0305,
      "velocity": 88,
      "chip": "ym2612"
    },
    {
      "channel": 1,
      "note": 82,
      "start": 58.444,
      "duration": 0.0149,
      "velocity": 97,
      "chip": "ym2612"
    },
    {
      "channel": 2,
      "note": 78,
      "start": 58.4446,
      "duration": 0.1606,
      "velocity": 97,
      "chip": "ym2612"
    },
    {
      "channel": 1,
      "note": 82,
      "start": 58.4654,
      "duration": 0.239,
      "velocity": 97,
      "chip": "ym2612"
    },
    {
      "channel": 3,
      "note": 54,
      "start": 58.4664,
      "duration": 0.0147,
      "velocity": 88,
      "chip": "ym2612"
    },
    {
      "channel": 4,
      "note": 73,
      "start": 58.467,
      "duration": 0.1384,
      "velocity": 100,
      "chip": "ym2612"
    },
    {
      "channel": 3,
      "note": 54,
      "start": 58.5029,
      "duration": 0.0147,
      "velocity": 88,
      "chip": "ym2612"
    },
    {
      "channel": 3,
      "note": 54,
      "start": 58.5552,
      "duration": 0.0295,
      "velocity": 88,
      "chip": "ym2612"
    },
    {
      "channel": 2,
      "note": 79,
      "start": 58.6089,
      "duration": 0.099,
      "velocity": 97,
      "chip": "ym2612"
    },
    {
      "channel": 3,
      "note": 51,
      "start": 58.6094,
      "duration": 0.0143,
      "velocity": 88,
      "chip": "ym2612"
    },
    {
      "channel": 4,
      "note": 75,
      "start": 58.61,
      "duration": 0.1377,
      "velocity": 100,
      "chip": "ym2612"
    },
    {
      "channel": 3,
      "note": 51,
      "start": 58.6774,
      "duration": 0.0143,
      "velocity": 88,
      "chip": "ym2612"
    },
    {
      "channel": 1,
      "note": 80,
      "start": 58.7141,
      "duration": 0.0144,
      "velocity": 97,
      "chip": "ym2612"
    },
    {
      "channel": 2,
      "note": 77,
      "start": 58.7146,
      "duration": 0.014,
      "velocity": 97,
      "chip": "ym2612"
    },
    {
      "channel": 1,
      "note": 79,
      "start": 58.7325,
      "duration": 0.0148,
      "velocity": 97,
      "chip": "ym2612"
    },
    {
      "channel": 2,
      "note": 75,
      "start": 58.733,
      "duration": 0.0144,
      "velocity": 97,
      "chip": "ym2612"
    },
    {
      "channel": 1,
      "note": 80,
      "start": 58.7505,
      "duration": 0.2554,
      "velocity": 97,
      "chip": "ym2612"
    },
    {
      "channel": 2,
      "note": 77,
      "start": 58.7511,
      "duration": 0.2549,
      "velocity": 97,
      "chip": "ym2612"
    },
    {
      "channel": 3,
      "note": 61,
      "start": 58.7517,
      "duration": 0.0171,
      "velocity": 88,
      "chip": "ym2612"
    },
    {
      "channel": 4,
      "note": 73,
      "start": 58.7543,
      "duration": 0.0147,
      "velocity": 70,
      "chip": "ym2612"
    },
    {
      "channel": 4,
      "note": 65,
      "start": 58.772,
      "duration": 0.0144,
      "velocity": 70,
      "chip": "ym2612"
    },
    {
      "channel": 3,
      "note": 61,
      "start": 58.7908,
      "duration": 0.0155,
      "velocity": 88,
      "chip": "ym2612"
    },
    {
      "channel": 4,
      "note": 68,
      "start": 58.7912,
      "duration": 0.0151,
      "velocity": 70,
      "chip": "ym2612"
    },
    {
      "channel": 4,
      "note": 73,
      "start": 58.8093,
      "duration": 0.0136,
      "velocity": 70,
      "chip": "ym2612"
    },
    {
      "channel": 4,
      "note": 77,
      "start": 58.8269,
      "duration": 0.0142,
      "velocity": 70,
      "chip": "ym2612"
    },
    {
      "channel": 3,
      "note": 61,
      "start": 58.844,
      "duration": 0.0312,
      "velocity": 88,
      "chip": "ym2612"
    },
    {
      "channel": 4,
      "note": 65,
      "start": 58.8445,
      "duration": 0.0143,
      "velocity": 70,
      "chip": "ym2612"
    },
    {
      "channel": 4,
      "note": 68,
      "start": 58.8636,
      "duration": 0.0153,
      "velocity": 70,
      "chip": "ym2612"
    },
    {
      "channel": 4,
      "note": 73,
      "start": 58.8822,
      "duration": 0.0146,
      "velocity": 70,
      "chip": "ym2612"
    },
    {
      "channel": 3,
      "note": 61,
      "start": 58.9001,
      "duration": 0.0151,
      "velocity": 88,
      "chip": "ym2612"
    },
    {
      "channel": 4,
      "note": 73,
      "start": 58.9006,
      "duration": 0.0147,
      "velocity": 70,
      "chip": "ym2612"
    },
    {
      "channel": 4,
      "note": 65,
      "start": 58.9191,
      "duration": 0.0139,
      "velocity": 70,
      "chip": "ym2612"
    },
    {
      "channel": 4,
      "note": 68,
      "start": 58.9371,
      "duration": 0.0154,
      "velocity": 70,
      "chip": "ym2612"
    },
    {
      "channel": 4,
      "note": 73,
      "start": 58.9556,
      "duration": 0.0146,
      "velocity": 70,
      "chip": "ym2612"
    },
    {
      "channel": 3,
      "note": 61,
      "start": 58.9739,
      "duration": 0.0176,
      "velocity": 88,
      "chip": "ym2612"
    },
    {
      "channel": 4,
      "note": 77,
      "start": 58.9744,
      "duration": 0.0173,
      "velocity": 70,
      "chip": "ym2612"
    },
    {
      "channel": 4,
      "note": 65,
      "start": 58.9947,
      "duration": 0.0142,
      "velocity": 70,
      "chip": "ym2612"
    },
    {
      "channel": 1,
      "note": 80,
      "start": 59.0128,
      "duration": 0.015,
      "velocity": 97,
      "chip": "ym2612"
    },
    {
      "channel": 2,
      "note": 77,
      "start": 59.0134,
      "duration": 0.0146,
      "velocity": 97,
      "chip": "ym2612"
    },
    {
      "channel": 4,
      "note": 68,
      "start": 59.0139,
      "duration": 0.0143,
      "velocity": 70,
      "chip": "ym2612"
    },
    {
      "channel": 1,
      "note": 79,
      "start": 59.031,
      "duration": 0.0157,
      "velocity": 97,
      "chip": "ym2612"
    },
    {
      "channel": 2,
      "note": 75,
      "start": 59.0315,
      "duration": 0.0153,
      "velocity": 97,
      "chip": "ym2612"
    },
    {
      "channel": 4,
      "note": 73,
      "start": 59.032,
      "duration": 0.015,
      "velocity": 70,
      "chip": "ym2612"
    },
    {
      "channel": 1,
      "note": 80,
      "start": 59.0523,
      "duration": 0.2514,
      "velocity": 97,
      "chip": "ym2612"
    },
    {
      "channel": 2,
      "note": 75,
      "start": 59.0529,
      "duration": 0.2509,
      "velocity": 97,
      "chip": "ym2612"
    },
    {
      "channel": 3,
      "note": 60,
      "start": 59.0535,
      "duration": 0.0158,
      "velocity": 88,
      "chip": "ym2612"
    },
    {
      "channel": 4,
      "note": 72,
      "start": 59.0541,
      "duration": 0.0153,
      "velocity": 70,
      "chip": "ym2612"
    },
    {
      "channel": 4,
      "note": 63,
      "start": 59.0722,
      "duration": 0.0143,
      "velocity": 70,
      "chip": "ym2612"
    },
    {
      "channel": 3,
      "note": 60,
      "start": 59.0897,
      "duration": 0.0144,
      "velocity": 88,
      "chip": "ym2612"
    },
    {
      "channel": 4,
      "note": 68,
      "start": 59.0902,
      "duration": 0.014,
      "velocity": 70,
      "chip": "ym2612"
    },
    {
      "channel": 4,
      "note": 72,
      "start": 59.1081,
      "duration": 0.0138,
      "velocity": 70,
      "chip": "ym2612"
    },
    {
      "channel": 4,
      "note": 75,
      "start": 59.1257,
      "duration": 0.0141,
      "velocity": 70,
      "chip": "ym2612"
    },
    {
      "channel": 3,
      "note": 60,
      "start": 59.1427,
      "duration": 0.0306,
      "velocity": 88,
      "chip": "ym2612"
    },
    {
      "channel": 4,
      "note": 63,
      "start": 59.1432,
      "duration": 0.0147,
      "velocity": 70,
      "chip": "ym2612"
    },
    {
      "channel": 4,
      "note": 68,
      "start": 59.1618,
      "duration": 0.0152,
      "velocity": 70,
      "chip": "ym2612"
    },
    {
      "channel": 4,
      "note": 72,
      "start": 59.1801,
      "duration": 0.014,
      "velocity": 70,
      "chip": "ym2612"
    },
    {
      "channel": 3,
      "note": 60,
      "start": 59.1983,
      "duration": 0.0146,
      "velocity": 88,
      "chip": "ym2612"
    },
    {
      "channel": 4,
      "note": 72,
      "start": 59.1988,
      "duration": 0.0143,
      "velocity": 70,
      "chip": "ym2612"
    },
    {
      "channel": 4,
      "note": 63,
      "start": 59.2171,
      "duration": 0.014,
      "velocity": 70,
      "chip": "ym2612"
    },
    {
      "channel": 4,
      "note": 68,
      "start": 59.2351,
      "duration": 0.015,
      "velocity": 70,
      "chip": "ym2612"
    },
    {
      "channel": 4,
      "note": 72,
      "start": 59.2533,
      "duration": 0.0149,
      "velocity": 70,
      "chip": "ym2612"
    },
    {
      "channel": 3,
      "note": 60,
      "start": 59.2716,
      "duration": 0.0171,
      "velocity": 88,
      "chip": "ym2612"
    },
    {
      "channel": 4,
      "note": 75,
      "start": 59.2721,
      "duration": 0.0167,
      "velocity": 70,
      "chip": "ym2612"
    },
    {
      "channel": 4,
      "note": 63,
      "start": 59.2927,
      "duration": 0.0141,
      "velocity": 70,
      "chip": "ym2612"
    },
    {
      "channel": 1,
      "note": 80,
      "start": 59.311,
      "duration": 0.0148,
      "velocity": 97,
      "chip": "ym2612"
    },
    {
      "channel": 2,
      "note": 75,
      "start": 59.3115,
      "duration": 0.0144,
      "velocity": 97,
      "chip": "ym2612"
    },
    {
      "channel": 4,
      "note": 68,
      "start": 59.3121,
      "duration": 0.0141,
      "velocity": 70,
      "chip": "ym2612"
    },
    {
      "channel": 1,
      "note": 79,
      "start": 59.3289,
      "duration": 0.0158,
      "velocity": 97,
      "chip": "ym2612"
    },
    {
      "channel": 2,
      "note": 75,
      "start": 59.3294,
      "duration": 0.0155,
      "velocity": 97,
      "chip": "ym2612"
    },
    {
      "channel": 4,
      "note": 72,
      "start": 59.33,
      "duration": 0.0151,
      "velocity": 70,
      "chip": "ym2612"
    },
    {
      "channel": 1,
      "note": 80,
      "start": 59.3501,
      "duration": 0.2513,
      "velocity": 97,
      "chip": "ym2612"
    },
    {
      "channel": 2,
      "note": 75,
      "start": 59.3507,
      "duration": 0.2508,
      "velocity": 97,
      "chip": "ym2612"
    },
    {
      "channel": 3,
      "note": 59,
      "start": 59.3513,
      "duration": 0.0156,
      "velocity": 88,
      "chip": "ym2612"
    },
    {
      "channel": 4,
      "note": 71,
      "start": 59.352,
      "duration": 0.0152,
      "velocity": 70,
      "chip": "ym2612"
    },
    {
      "channel": 4,
      "note": 63,
      "start": 59.3701,
      "duration": 0.0137,
      "velocity": 70,
      "chip": "ym2612"
    },
    {
      "channel": 3,
      "note": 59,
      "start": 59.3879,
      "duration": 0.0145,
      "velocity": 88,
      "chip": "ym2612"
    },
    {
      "channel": 4,
      "note": 68,
      "start": 59.3883,
      "duration": 0.0142,
      "velocity": 70,
      "chip": "ym2612"
    },
    {
      "channel": 4,
      "note": 71,
      "start": 59.4063,
      "duration": 0.0136,
      "velocity": 70,
      "chip": "ym2612"
    },
    {
      "channel": 4,
      "note": 75,
      "start": 59.4227,
      "duration": 0.015,
      "velocity": 70,
      "chip": "ym2612"
    },
    {
      "channel": 3,
      "note": 59,
      "start": 59.4405,
      "duration": 0.0305,
      "velocity": 88,
      "chip": "ym2612"
    },
    {
      "channel": 4,
      "note": 63,
      "start": 59.4411,
      "duration": 0.0146,
      "velocity": 70,
      "chip": "ym2612"
    },
    {
      "channel": 4,
      "note": 68,
      "start": 59.4593,
      "duration": 0.0145,
      "velocity": 70,
      "chip": "ym2612"
    },
    {
      "channel": 4,
      "note": 71,
      "start": 59.4776,
      "duration": 0.0139,
      "velocity": 70,
      "chip": "ym2612"
    },
    {
      "channel": 3,
      "note": 59,
      "start": 59.4966,
      "duration": 0.0149,
      "velocity": 88,
      "chip": "ym2612"
    },
    {
      "channel": 4,
      "note": 71,
      "start": 59.4971,
      "duration": 0.0145,
      "velocity": 70,
      "chip": "ym2612"
    },
    {
      "channel": 4,
      "note": 63,
      "start": 59.5146,
      "duration": 0.0146,
      "velocity": 70,
      "chip": "ym2612"
    },
    {
      "channel": 4,
      "note": 68,
      "start": 59.5326,
      "duration": 0.0152,
      "velocity": 70,
      "chip": "ym2612"
    },
    {
      "channel": 4,
      "note": 71,
      "start": 59.5509,
      "duration": 0.0139,
      "velocity": 70,
      "chip": "ym2612"
    },
    {
      "channel": 3,
      "note": 59,
      "start": 59.5691,
      "duration": 0.0171,
      "velocity": 88,
      "chip": "ym2612"
    },
    {
      "channel": 4,
      "note": 75,
      "start": 59.5696,
      "duration": 0.0167,
      "velocity": 70,
      "chip": "ym2612"
    },
    {
      "channel": 4,
      "note": 63,
      "start": 59.5902,
      "duration": 0.0142,
      "velocity": 70,
      "chip": "ym2612"
    },
    {
      "channel": 1,
      "note": 80,
      "start": 59.608,
      "duration": 0.016,
      "velocity": 97,
      "chip": "ym2612"
    },
    {
      "channel": 2,
      "note": 75,
      "start": 59.6085,
      "duration": 0.0155,
      "velocity": 97,
      "chip": "ym2612"
    },
    {
      "channel": 4,
      "note": 68,
      "start": 59.6091,
      "duration": 0.0151,
      "velocity": 70,
      "chip": "ym2612"
    },
    {
      "channel": 1,
      "note": 79,
      "start": 59.6269,
      "duration": 0.0158,
      "velocity": 97,
      "chip": "ym2612"
    },
    {
      "channel": 2,
      "note": 75,
      "start": 59.6274,
      "duration": 0.0154,
      "velocity": 97,
      "chip": "ym2612"
    },
    {
      "channel": 4,
      "note": 71,
      "start": 59.628,
      "duration": 0.0151,
      "velocity": 70,
      "chip": "ym2612"
    },
    {
      "channel": 1,
      "note": 80,
      "start": 59.6483,
      "duration": 0.2526,
      "velocity": 97,
      "chip": "ym2612"
    },
    {
      "channel": 2,
      "note": 73,
      "start": 59.649,
      "duration": 0.2521,
      "velocity": 97,
      "chip": "ym2612"
    },
    {
      "channel": 3,
      "note": 58,
      "start": 59.6495,
      "duration": 0.0147,
      "velocity": 88,
      "chip": "ym2612"
    },
    {
      "channel": 4,
      "note": 70,
      "start": 59.6502,
      "duration": 0.0142,
      "velocity": 70,
      "chip": "ym2612"
    },
    {
      "channel": 4,
      "note": 61,
      "start": 59.6682,
      "duration": 0.0139,
      "velocity": 70,
      "chip": "ym2612"
    },
    {
      "channel": 3,
      "note": 58,
      "start": 59.6863,
      "duration": 0.0144,
      "velocity": 88,
      "chip": "ym2612"
    },
    {
      "channel": 4,
      "note": 65,
      "start": 59.6868,
      "duration": 0.0141,
      "velocity": 70,
      "chip": "ym2612"
    },
    {
      "channel": 4,
      "note": 70,
      "start": 59.7039,
      "duration": 0.0148,
      "velocity": 70,
      "chip": "ym2612"
    },
    {
      "channel": 4,
      "note": 73,
      "start": 59.7215,
      "duration": 0.0151,
      "velocity": 70,
      "chip": "ym2612"
    },
    {
      "channel": 3,
      "note": 58,
      "start": 59.7395,
      "duration": 0.0302,
      "velocity": 88,
      "chip": "ym2612"
    },
    {
      "channel": 4,
      "note": 61,
      "start": 59.74,
      "duration": 0.0136,
      "velocity": 70,
      "chip": "ym2612"
    },
    {
      "channel": 4,
      "note": 65,
      "start": 59.7581,
      "duration": 0.0143,
      "velocity": 70,
      "chip": "ym2612"
    },
    {
      "channel": 4,
      "note": 70,
      "start": 59.7763,
      "duration": 0.0141,
      "velocity": 70,
      "chip": "ym2612"
    },
    {
      "channel": 3,
      "note": 58,
      "start": 59.7948,
      "duration": 0.0156,
      "velocity": 88,
      "chip": "ym2612"
    },
    {
      "channel": 4,
      "note": 70,
      "start": 59.7953,
      "duration": 0.0152,
      "velocity": 70,
      "chip": "ym2612"
    },
    {
      "channel": 4,
      "note": 61,
      "start": 59.8138,
      "duration": 0.0149,
      "velocity": 70,
      "chip": "ym2612"
    },
    {
      "channel": 4,
      "note": 65,
      "start": 59.8316,
      "duration": 0.0144,
      "velocity": 70,
      "chip": "ym2612"
    },
    {
      "channel": 4,
      "note": 70,
      "start": 59.85,
      "duration": 0.0139,
      "velocity": 70,
      "chip": "ym2612"
    },
    {
      "channel": 3,
      "note": 58,
      "start": 59.8689,
      "duration": 0.0169,
      "velocity": 88,
      "chip": "ym2612"
    },
    {
      "channel": 4,
      "note": 73,
      "start": 59.8694,
      "duration": 0.0167,
      "velocity": 70,
      "chip": "ym2612"
    },
    {
      "channel": 4,
      "note": 61,
      "start": 59.8891,
      "duration": 0.0148,
      "velocity": 70,
      "chip": "ym2612"
    },
    {
      "channel": 1,
      "note": 80,
      "start": 59.9071,
      "duration": 0.016,
      "velocity": 97,
      "chip": "ym2612"
    },
    {
      "channel": 2,
      "note": 73,
      "start": 59.9076,
      "duration": 0.0156,
      "velocity": 97,
      "chip": "ym2612"
    },
    {
      "channel": 4,
      "note": 65,
      "start": 59.9081,
      "duration": 0.0152,
      "velocity": 70,
      "chip": "ym2612"
    },
    {
      "channel": 1,
      "note": 79,
      "start": 59.9261,
      "duration": 0.0149,
      "velocity": 97,
      "chip": "ym2612"
    },
    {
      "channel": 2,
      "note": 73,
      "start": 59.9266,
      "duration": 0.0146,
      "velocity": 97,
      "chip": "ym2612"
    },
    {
      "channel": 4,
      "note": 70,
      "start": 59.9271,
      "duration": 0.0142,
      "velocity": 70,
      "chip": "ym2612"
    },
    {
      "channel": 1,
      "note": 80,
      "start": 59.945,
      "duration": 1.3174,
      "velocity": 97,
      "chip": "ym2612"
    },
    {
      "channel": 2,
      "note": 72,
      "start": 59.9456,
      "duration": 1.317,
      "velocity": 97,
      "chip": "ym2612"
    },
    {
      "channel": 3,
      "note": 44,
      "start": 59.9482,
      "duration": 2.6146,
      "velocity": 108,
      "chip": "ym2612"
    },
    {
      "channel": 4,
      "note": 72,
      "start": 59.9488,
      "duration": 1.314,
      "velocity": 70,
      "chip": "ym2612"
    },
    {
      "channel": 1,
      "note": 75,
      "start": 61.2864,
      "duration": 0.366,
      "velocity": 93,
      "chip": "ym2612"
    },
    {
      "channel": 2,
      "note": 72,
      "start": 61.2889,
      "duration": 0.3636,
      "velocity": 93,
      "chip": "ym2612"
    },
    {
      "channel": 4,
      "note": 99,
      "start": 61.2901,
      "duration": 0.3627,
      "velocity": 70,
      "chip": "ym2612"
    },
    {
      "channel": 1,
      "note": 77,
      "start": 61.6745,
      "duration": 0.4113,
      "velocity": 93,
      "chip": "ym2612"
    },
    {
      "channel": 2,
      "note": 73,
      "start": 61.675,
      "duration": 0.4109,
      "velocity": 93,
      "chip": "ym2612"
    },
    {
      "channel": 4,
      "note": 101,
      "start": 61.6756,
      "duration": 0.4106,
      "velocity": 70,
      "chip": "ym2612"
    },
    {
      "channel": 1,
      "note": 73,
      "start": 62.1079,
      "duration": 0.4546,
      "velocity": 93,
      "chip": "ym2612"
    },
    {
      "channel": 2,
      "note": 70,
      "start": 62.1084,
      "duration": 0.4543,
      "velocity": 93,
      "chip": "ym2612"
    },
    {
      "channel": 4,
      "note": 97,
      "start": 62.109,
      "duration": 0.4539,
      "velocity": 70,
      "chip": "ym2612"
    },
    {
      "channel": 1,
      "note": 75,
      "start": 62.5846,
      "duration": 2.2094,
      "velocity": 93,
      "chip": "ym2612"
    },
    {
      "channel": 2,
      "note": 72,
      "start": 62.5853,
      "duration": 2.2089,
      "velocity": 93,
      "chip": "ym2612"
    },
    {
      "channel": 3,
      "note": 32,
      "start": 62.5865,
      "duration": 2.2079,
      "velocity": 108,
      "chip": "ym2612"
    },
    {
      "channel": 4,
      "note": 99,
      "start": 62.5871,
      "duration": 2.2075,
      "velocity": 70,
      "chip": "ym2612"
    }
  ]
}