{
  "track_name": "18 - Pizza Power!",
  "duration_sec": 30.243,
  "sample_rate": 44100,
  "note_count": 616,
  "unique_pitches": 30,
  "pitch_range": 53,
  "avg_note_duration": 0.0855,
  "reconstruction_stats": {
    "notes_reconstructed": 616,
    "keyon_events": 616,
    "keyoff_events": 604,
    "orphan_keyons": 0,
    "unique_pitches": 30,
    "pitch_range": 53,
    "avg_duration_sec": 0.0855
  },
  "metadata": {
    "source": "T\\Teenage Mutant Ninja Turtles - The Hyperstone Heist\\18 - Pizza Power!.vgz"
  },
  "notes": [
    {
      "channel": 0,
      "note": 59,
      "start": 0.0,
      "duration": 0.1997,
      "velocity": 111,
      "chip": "ym2612"
    },
    {
      "channel": 1,
      "note": 83,
      "start": 0.0021,
      "duration": 0.1979,
      "velocity": 99,
      "chip": "ym2612"
    },
    {
      "channel": 4,
      "note": 59,
      "start": 0.008,
      "duration": 0.1926,
      "velocity": 108,
      "chip": "ym2612"
    },
    {
      "channel": 2,
      "note": 83,
      "start": 0.0365,
      "duration": 0.2233,
      "velocity": 99,
      "chip": "ym2612"
    },
    {
      "channel": 3,
      "note": 83,
      "start": 0.117,
      "duration": 0.1873,
      "velocity": 99,
      "chip": "ym2612"
    },
    {
      "channel": 0,
      "note": 58,
      "start": 0.2337,
      "duration": 0.1875,
      "velocity": 111,
      "chip": "ym2612"
    },
    {
      "channel": 1,
      "note": 82,
      "start": 0.2343,
      "duration": 0.1872,
      "velocity": 99,
      "chip": "ym2612"
    },
    {
      "channel": 4,
      "note": 58,
      "start": 0.2352,
      "duration": 0.1868,
      "velocity": 108,
      "chip": "ym2612"
    },
    {
      "channel": 2,
      "note": 82,
      "start": 0.2666,
      "duration": 0.2316,
      "velocity": 99,
      "chip": "ym2612"
    },
    {
      "channel": 3,
      "note": 82,
      "start": 0.3383,
      "duration": 0.1741,
      "velocity": 99,
      "chip": "ym2612"
    },
    {
      "channel": 0,
      "note": 54,
      "start": 0.4719,
      "duration": 0.1456,
      "velocity": 111,
      "chip": "ym2612"
    },
    {
      "channel": 1,
      "note": 78,
      "start": 0.4726,
      "duration": 0.1453,
      "velocity": 99,
      "chip": "ym2612"
    },
    {
      "channel": 4,
      "note": 54,
      "start": 0.4735,
      "duration": 0.1449,
      "velocity": 108,
      "chip": "ym2612"
    },
    {
      "channel": 2,
      "note": 78,
      "start": 0.5025,
      "duration": 0.1751,
      "velocity": 99,
      "chip": "ym2612"
    },
    {
      "channel": 3,
      "note": 78,
      "start": 0.5348,
      "duration": 0.1595,
      "velocity": 99,
      "chip": "ym2612"
    },
    {
      "channel": 0,
      "note": 52,
      "start": 0.6515,
      "duration": 0.1156,
      "velocity": 111,
      "chip": "ym2612"
    },
    {
      "channel": 1,
      "note": 76,
      "start": 0.6521,
      "duration": 0.1152,
      "velocity": 99,
      "chip": "ym2612"
    },
    {
      "channel": 4,
      "note": 52,
      "start": 0.6531,
      "duration": 0.1149,
      "velocity": 108,
      "chip": "ym2612"
    },
    {
      "channel": 2,
      "note": 76,
      "start": 0.6844,
      "duration": 0.0832,
      "velocity": 99,
      "chip": "ym2612"
    },
    {
      "channel": 3,
      "note": 76,
      "start": 0.6991,
      "duration": 0.1586,
      "velocity": 99,
      "chip": "ym2612"
    },
    {
      "channel": 0,
      "note": 49,
      "start": 0.8178,
      "duration": 0.2114,
      "velocity": 111,
      "chip": "ym2612"
    },
    {
      "channel": 1,
      "note": 73,
      "start": 0.8184,
      "duration": 0.2315,
      "velocity": 99,
      "chip": "ym2612"
    },
    {
      "channel": 2,
      "note": 49,
      "start": 0.8204,
      "duration": 0.3317,
      "velocity": 87,
      "chip": "ym2612"
    },
    {
      "channel": 4,
      "note": 97,
      "start": 0.8224,
      "duration": 0.1224,
      "velocity": 111,
      "chip": "ym2612"
    },
    {
      "channel": 3,
      "note": 73,
      "start": 0.8642,
      "duration": 0.2684,
      "velocity": 99,
      "chip": "ym2612"
    },
    {
      "channel": 4,
      "note": 97,
      "start": 0.9449,
      "duration": 0.1614,
      "velocity": 111,
      "chip": "ym2612"
    },
    {
      "channel": 0,
      "note": 73,
      "start": 1.1036,
      "duration": 0.0154,
      "velocity": 111,
      "chip": "ym2612"
    },
    {
      "channel": 1,
      "note": 85,
      "start": 1.1054,
      "duration": 0.0137,
      "velocity": 101,
      "chip": "ym2612"
    },
    {
      "channel": 0,
      "note": 49,
      "start": 1.1458,
      "duration": 0.0567,
      "velocity": 111,
      "chip": "ym2612"
    },
    {
      "channel": 1,
      "note": 83,
      "start": 1.1481,
      "duration": 0.0198,
      "velocity": 103,
      "chip": "ym2612"
    },
    {
      "channel": 2,
      "note": 61,
      "start": 1.1521,
      "duration": 0.0161,
      "velocity": 87,
      "chip": "ym2612"
    },
    {
      "channel": 4,
      "note": 81,
      "start": 1.1561,
      "duration": 0.0124,
      "velocity": 127,
      "chip": "ym2612"
    },
    {
      "channel": 1,
      "note": 85,
      "start": 1.1732,
      "duration": 0.0109,
      "velocity": 103,
      "chip": "ym2612"
    },
    {
      "channel": 2,
      "note": 68,
      "start": 1.1739,
      "duration": 0.0104,
      "velocity": 87,
      "chip": "ym2612"
    },
    {
      "channel": 4,
      "note": 81,
      "start": 1.1746,
      "duration": 0.0101,
      "velocity": 127,
      "chip": "ym2612"
    },
    {
      "channel": 1,
      "note": 85,
      "start": 1.1911,
      "duration": 0.0115,
      "velocity": 103,
      "chip": "ym2612"
    },
    {
      "channel": 2,
      "note": 73,
      "start": 1.1918,
      "duration": 0.0111,
      "velocity": 87,
      "chip": "ym2612"
    },
    {
      "channel": 3,
      "note": 83,
      "start": 1.1929,
      "duration": 0.0102,
      "velocity": 103,
      "chip": "ym2612"
    },
    {
      "channel": 4,
      "note": 81,
      "start": 1.195,
      "duration": 0.0084,
      "velocity": 119,
      "chip": "ym2612"
    },
    {
      "channel": 0,
      "note": 61,
      "start": 1.2532,
      "duration": 0.0833,
      "velocity": 111,
      "chip": "ym2612"
    },
    {
      "channel": 1,
      "note": 85,
      "start": 1.2541,
      "duration": 0.0827,
      "velocity": 103,
      "chip": "ym2612"
    },
    {
      "channel": 2,
      "note": 61,
      "start": 1.2549,
      "duration": 0.0821,
      "velocity": 87,
      "chip": "ym2612"
    },
    {
      "channel": 3,
      "note": 85,
      "start": 1.2559,
      "duration": 0.0814,
      "velocity": 103,
      "chip": "ym2612"
    },
    {
      "channel": 4,
      "note": 81,
      "start": 1.2576,
      "duration": 0.08,
      "velocity": 127,
      "chip": "ym2612"
    },
    {
      "channel": 0,
      "note": 58,
      "start": 1.3705,
      "duration": 0.0133,
      "velocity": 111,
      "chip": "ym2612"
    },
    {
      "channel": 1,
      "note": 85,
      "start": 1.3715,
      "duration": 0.0125,
      "velocity": 103,
      "chip": "ym2612"
    },
    {
      "channel": 2,
      "note": 70,
      "start": 1.3726,
      "duration": 0.0117,
      "velocity": 87,
      "chip": "ym2612"
    },
    {
      "channel": 3,
      "note": 85,
      "start": 1.3734,
      "duration": 0.011,
      "velocity": 103,
      "chip": "ym2612"
    },
    {
      "channel": 4,
      "note": 81,
      "start": 1.3741,
      "duration": 0.0106,
      "velocity": 127,
      "chip": "ym2612"
    },
    {
      "channel": 0,
      "note": 58,
      "start": 1.3904,
      "duration": 0.2467,
      "velocity": 111,
      "chip": "ym2612"
    },
    {
      "channel": 1,
      "note": 85,
      "start": 1.3917,
      "duration": 0.0122,
      "velocity": 103,
      "chip": "ym2612"
    },
    {
      "channel": 2,
      "note": 80,
      "start": 1.3924,
      "duration": 0.0117,
      "velocity": 87,
      "chip": "ym2612"
    },
    {
      "channel": 3,
      "note": 85,
      "start": 1.3933,
      "duration": 0.011,
      "velocity": 103,
      "chip": "ym2612"
    },
    {
      "channel": 4,
      "note": 81,
      "start": 1.3939,
      "duration": 0.0106,
      "velocity": 127,
      "chip": "ym2612"
    },
    {
      "channel": 1,
      "note": 85,
      "start": 1.4369,
      "duration": 0.0831,
      "velocity": 103,
      "chip": "ym2612"
    },
    {
      "channel": 2,
      "note": 58,
      "start": 1.4377,
      "duration": 0.0825,
      "velocity": 87,
      "chip": "ym2612"
    },
    {
      "channel": 3,
      "note": 85,
      "start": 1.4385,
      "duration": 0.0819,
      "velocity": 103,
      "chip": "ym2612"
    },
    {
      "channel": 4,
      "note": 81,
      "start": 1.4403,
      "duration": 0.0803,
      "velocity": 119,
      "chip": "ym2612"
    },
    {
      "channel": 1,
      "note": 85,
      "start": 1.5543,
      "duration": 0.083,
      "velocity": 103,
      "chip": "ym2612"
    },
    {
      "channel": 2,
      "note": 73,
      "start": 1.555,
      "duration": 0.0826,
      "velocity": 87,
      "chip": "ym2612"
    },
    {
      "channel": 3,
      "note": 85,
      "start": 1.5559,
      "duration": 0.0819,
      "velocity": 103,
      "chip": "ym2612"
    },
    {
      "channel": 4,
      "note": 81,
      "start": 1.5576,
      "duration": 0.0804,
      "velocity": 127,
      "chip": "ym2612"
    },
    {
      "channel": 0,
      "note": 59,
      "start": 1.6878,
      "duration": 0.2695,
      "velocity": 111,
      "chip": "ym2612"
    },
    {
      "channel": 1,
      "note": 83,
      "start": 1.6885,
      "duration": 0.2355,
      "velocity": 103,
      "chip": "ym2612"
    },
    {
      "channel": 2,
      "note": 59,
      "start": 1.6893,
      "duration": 0.0117,
      "velocity": 87,
      "chip": "ym2612"
    },
    {
      "channel": 3,
      "note": 85,
      "start": 1.6901,
      "duration": 0.011,
      "velocity": 103,
      "chip": "ym2612"
    },
    {
      "channel": 4,
      "note": 81,
      "start": 1.6908,
      "duration": 0.0106,
      "velocity": 127,
      "chip": "ym2612"
    },
    {
      "channel": 2,
      "note": 73,
      "start": 1.7055,
      "duration": 0.051,
      "velocity": 87,
      "chip": "ym2612"
    },
    {
      "channel": 3,
      "note": 85,
      "start": 1.7064,
      "duration": 0.0503,
      "velocity": 103,
      "chip": "ym2612"
    },
    {
      "channel": 4,
      "note": 81,
      "start": 1.707,
      "duration": 0.05,
      "velocity": 127,
      "chip": "ym2612"
    },
    {
      "channel": 2,
      "note": 71,
      "start": 1.8073,
      "duration": 0.0833,
      "velocity": 87,
      "chip": "ym2612"
    },
    {
      "channel": 3,
      "note": 83,
      "start": 1.808,
      "duration": 0.2529,
      "velocity": 103,
      "chip": "ym2612"
    },
    {
      "channel": 4,
      "note": 81,
      "start": 1.8097,
      "duration": 0.0814,
      "velocity": 119,
      "chip": "ym2612"
    },
    {
      "channel": 2,
      "note": 80,
      "start": 1.9247,
      "duration": 0.0832,
      "velocity": 87,
      "chip": "ym2612"
    },
    {
      "channel": 4,
      "note": 81,
      "start": 1.9256,
      "duration": 0.0828,
      "velocity": 119,
      "chip": "ym2612"
    },
    {
      "channel": 0,
      "note": 47,
      "start": 2.0415,
      "duration": 0.2302,
      "velocity": 111,
      "chip": "ym2612"
    },
    {
      "channel": 1,
      "note": 82,
      "start": 2.0422,
      "duration": 0.1961,
      "velocity": 103,
      "chip": "ym2612"
    },
    {
      "channel": 2,
      "note": 59,
      "start": 2.043,
      "duration": 0.0112,
      "velocity": 87,
      "chip": "ym2612"
    },
    {
      "channel": 4,
      "note": 81,
      "start": 2.0449,
      "duration": 0.0097,
      "velocity": 127,
      "chip": "ym2612"
    },
    {
      "channel": 2,
      "note": 68,
      "start": 2.0607,
      "duration": 0.0102,
      "velocity": 87,
      "chip": "ym2612"
    },
    {
      "channel": 4,
      "note": 81,
      "start": 2.0615,
      "duration": 0.0099,
      "velocity": 127,
      "chip": "ym2612"
    },
    {
      "channel": 2,
      "note": 71,
      "start": 2.1051,
      "duration": 0.0832,
      "velocity": 87,
      "chip": "ym2612"
    },
    {
      "channel": 3,
      "note": 82,
      "start": 2.1057,
      "duration": 0.2688,
      "velocity": 103,
      "chip": "ym2612"
    },
    {
      "channel": 4,
      "note": 81,
      "start": 2.1073,
      "duration": 0.0814,
      "velocity": 119,
      "chip": "ym2612"
    },
    {
      "channel": 2,
      "note": 73,
      "start": 2.2391,
      "duration": 0.0664,
      "velocity": 87,
      "chip": "ym2612"
    },
    {
      "channel": 4,
      "note": 81,
      "start": 2.2411,
      "duration": 0.0649,
      "velocity": 127,
      "chip": "ym2612"
    },
    {
      "channel": 0,
      "note": 49,
      "start": 2.3559,
      "duration": 0.2022,
      "velocity": 111,
      "chip": "ym2612"
    },
    {
      "channel": 1,
      "note": 83,
      "start": 2.3569,
      "duration": 0.0123,
      "velocity": 103,
      "chip": "ym2612"
    },
    {
      "channel": 2,
      "note": 61,
      "start": 2.3581,
      "duration": 0.0113,
      "velocity": 87,
      "chip": "ym2612"
    },
    {
      "channel": 4,
      "note": 81,
      "start": 2.359,
      "duration": 0.0109,
      "velocity": 127,
      "chip": "ym2612"
    },
    {
      "channel": 1,
      "note": 85,
      "start": 2.3737,
      "duration": 0.0505,
      "velocity": 103,
      "chip": "ym2612"
    },
    {
      "channel": 2,
      "note": 68,
      "start": 2.3744,
      "duration": 0.0501,
      "velocity": 87,
      "chip": "ym2612"
    },
    {
      "channel": 4,
      "note": 81,
      "start": 2.3752,
      "duration": 0.0497,
      "velocity": 127,
      "chip": "ym2612"
    },
    {
      "channel": 1,
      "note": 85,
      "start": 2.4753,
      "duration": 0.083,
      "velocity": 103,
      "chip": "ym2612"
    },
    {
      "channel": 2,
      "note": 73,
      "start": 2.476,
      "duration": 0.0826,
      "velocity": 87,
      "chip": "ym2612"
    },
    {
      "channel": 3,
      "note": 83,
      "start": 2.477,
      "duration": 0.0819,
      "velocity": 103,
      "chip": "ym2612"
    },
    {
      "channel": 4,
      "note": 81,
      "start": 2.4787,
      "duration": 0.0803,
      "velocity": 119,
      "chip": "ym2612"
    },
    {
      "channel": 0,
      "note": 61,
      "start": 2.5921,
      "duration": 0.0834,
      "velocity": 111,
      "chip": "ym2612"
    },
    {
      "channel": 1,
      "note": 85,
      "start": 2.5931,
      "duration": 0.0826,
      "velocity": 103,
      "chip": "ym2612"
    },
    {
      "channel": 2,
      "note": 61,
      "start": 2.5938,
      "duration": 0.0821,
      "velocity": 87,
      "chip": "ym2612"
    },
    {
      "channel": 3,
      "note": 85,
      "start": 2.5944,
      "duration": 0.0817,
      "velocity": 103,
      "chip": "ym2612"
    },
    {
      "channel": 4,
      "note": 81,
      "start": 2.5962,
      "duration": 0.0802,
      "velocity": 127,
      "chip": "ym2612"
    },
    {
      "channel": 0,
      "note": 58,
      "start": 2.7095,
      "duration": 0.0124,
      "velocity": 111,
      "chip": "ym2612"
    },
    {
      "channel": 1,
      "note": 85,
      "start": 2.7104,
      "duration": 0.0117,
      "velocity": 103,
      "chip": "ym2612"
    },
    {
      "channel": 2,
      "note": 70,
      "start": 2.7111,
      "duration": 0.0112,
      "velocity": 87,
      "chip": "ym2612"
    },
    {
      "channel": 3,
      "note": 85,
      "start": 2.7121,
      "duration": 0.0105,
      "velocity": 103,
      "chip": "ym2612"
    },
    {
      "channel": 4,
      "note": 81,
      "start": 2.7127,
      "duration": 0.0101,
      "velocity": 127,
      "chip": "ym2612"
    },
    {
      "channel": 0,
      "note": 58,
      "start": 2.7288,
      "duration": 0.2628,
      "velocity": 111,
      "chip": "ym2612"
    },
    {
      "channel": 1,
      "note": 85,
      "start": 2.7297,
      "duration": 0.0113,
      "velocity": 103,
      "chip": "ym2612"
    },
    {
      "channel": 2,
      "note": 80,
      "start": 2.7304,
      "duration": 0.0108,
      "velocity": 87,
      "chip": "ym2612"
    },
    {
      "channel": 3,
      "note": 85,
      "start": 2.7313,
      "duration": 0.0102,
      "velocity": 103,
      "chip": "ym2612"
    },
    {
      "channel": 4,
      "note": 81,
      "start": 2.7322,
      "duration": 0.0095,
      "velocity": 127,
      "chip": "ym2612"
    },
    {
      "channel": 1,
      "note": 85,
      "start": 2.7745,
      "duration": 0.0831,
      "velocity": 103,
      "chip": "ym2612"
    },
    {
      "channel": 2,
      "note": 58,
      "start": 2.7754,
      "duration": 0.0824,
      "velocity": 87,
      "chip": "ym2612"
    },
    {
      "channel": 3,
      "note": 85,
      "start": 2.7762,
      "duration": 0.0818,
      "velocity": 103,
      "chip": "ym2612"
    },
    {
      "channel": 4,
      "note": 81,
      "start": 2.7783,
      "duration": 0.08,
      "velocity": 119,
      "chip": "ym2612"
    },
    {
      "channel": 1,
      "note": 85,
      "start": 2.9087,
      "duration": 0.0831,
      "velocity": 103,
      "chip": "ym2612"
    },
    {
      "channel": 2,
      "note": 73,
      "start": 2.9094,
      "duration": 0.0826,
      "velocity": 87,
      "chip": "ym2612"
    },
    {
      "channel": 3,
      "note": 85,
      "start": 2.9107,
      "duration": 0.0815,
      "velocity": 103,
      "chip": "ym2612"
    },
    {
      "channel": 4,
      "note": 81,
      "start": 2.9123,
      "duration": 0.0802,
      "velocity": 127,
      "chip": "ym2612"
    },
    {
      "channel": 0,
      "note": 52,
      "start": 3.0258,
      "duration": 0.0692,
      "velocity": 111,
      "chip": "ym2612"
    },
    {
      "channel": 1,
      "note": 88,
      "start": 3.0268,
      "duration": 0.2368,
      "velocity": 103,
      "chip": "ym2612"
    },
    {
      "channel": 2,
      "note": 59,
      "start": 3.0276,
      "duration": 0.0118,
      "velocity": 87,
      "chip": "ym2612"
    },
    {
      "channel": 3,
      "note": 85,
      "start": 3.0285,
      "duration": 0.0115,
      "velocity": 103,
      "chip": "ym2612"
    },
    {
      "channel": 4,
      "note": 81,
      "start": 3.0291,
      "duration": 0.0111,
      "velocity": 127,
      "chip": "ym2612"
    },
    {
      "channel": 2,
      "note": 73,
      "start": 3.0447,
      "duration": 0.0507,
      "velocity": 87,
      "chip": "ym2612"
    },
    {
      "channel": 3,
      "note": 85,
      "start": 3.0456,
      "duration": 0.05,
      "velocity": 103,
      "chip": "ym2612"
    },
    {
      "channel": 4,
      "note": 81,
      "start": 3.0461,
      "duration": 0.0497,
      "velocity": 127,
      "chip": "ym2612"
    },
    {
      "channel": 0,
      "note": 64,
      "start": 3.1458,
      "duration": 0.0833,
      "velocity": 111,
      "chip": "ym2612"
    },
    {
      "channel": 2,
      "note": 71,
      "start": 3.1467,
      "duration": 0.0828,
      "velocity": 87,
      "chip": "ym2612"
    },
    {
      "channel": 3,
      "note": 88,
      "start": 3.1473,
      "duration": 0.2682,
      "velocity": 103,
      "chip": "ym2612"
    },
    {
      "channel": 4,
      "note": 81,
      "start": 3.149,
      "duration": 0.0809,
      "velocity": 119,
      "chip": "ym2612"
    },
    {
      "channel": 0,
      "note": 52,
      "start": 3.2634,
      "duration": 0.083,
      "velocity": 111,
      "chip": "ym2612"
    },
    {
      "channel": 2,
      "note": 80,
      "start": 3.2644,
      "duration": 0.0824,
      "velocity": 87,
      "chip": "ym2612"
    },
    {
      "channel": 4,
      "note": 81,
      "start": 3.2651,
      "duration": 0.0821,
      "velocity": 119,
      "chip": "ym2612"
    },
    {
      "channel": 0,
      "note": 54,
      "start": 3.3974,
      "duration": 0.0291,
      "velocity": 111,
      "chip": "ym2612"
    },
    {
      "channel": 1,
      "note": 90,
      "start": 3.3981,
      "duration": 0.1816,
      "velocity": 103,
      "chip": "ym2612"
    },
    {
      "channel": 2,
      "note": 59,
      "start": 3.3988,
      "duration": 0.0097,
      "velocity": 87,
      "chip": "ym2612"
    },
    {
      "channel": 4,
      "note": 81,
      "start": 3.4007,
      "duration": 0.0082,
      "velocity": 127,
      "chip": "ym2612"
    },
    {
      "channel": 2,
      "note": 68,
      "start": 3.4154,
      "duration": 0.0115,
      "velocity": 87,
      "chip": "ym2612"
    },
    {
      "channel": 4,
      "note": 81,
      "start": 3.4162,
      "duration": 0.0112,
      "velocity": 127,
      "chip": "ym2612"
    },
    {
      "channel": 0,
      "note": 66,
      "start": 3.4452,
      "duration": 0.0832,
      "velocity": 111,
      "chip": "ym2612"
    },
    {
      "channel": 2,
      "note": 71,
      "start": 3.4461,
      "duration": 0.0827,
      "velocity": 87,
      "chip": "ym2612"
    },
    {
      "channel": 3,
      "note": 90,
      "start": 3.4468,
      "duration": 0.2692,
      "velocity": 103,
      "chip": "ym2612"
    },
    {
      "channel": 4,
      "note": 81,
      "start": 3.4485,
      "duration": 0.0808,
      "velocity": 119,
      "chip": "ym2612"
    },
    {
      "channel": 0,
      "note": 54,
      "start": 3.5795,
      "duration": 0.0829,
      "velocity": 111,
      "chip": "ym2612"
    },
    {
      "channel": 2,
      "note": 73,
      "start": 3.5805,
      "duration": 0.0824,
      "velocity": 87,
      "chip": "ym2612"
    },
    {
      "channel": 4,
      "note": 81,
      "start": 3.5824,
      "duration": 0.081,
      "velocity": 127,
      "chip": "ym2612"
    },
    {
      "channel": 0,
      "note": 49,
      "start": 3.6965,
      "duration": 0.2034,
      "velocity": 111,
      "chip": "ym2612"
    },
    {
      "channel": 1,
      "note": 83,
      "start": 3.6974,
      "duration": 0.0132,
      "velocity": 103,
      "chip": "ym2612"
    },
    {
      "channel": 2,
      "note": 61,
      "start": 3.6986,
      "duration": 0.0122,
      "velocity": 87,
      "chip": "ym2612"
    },
    {
      "channel": 4,
      "note": 81,
      "start": 3.6995,
      "duration": 0.0118,
      "velocity": 127,
      "chip": "ym2612"
    },
    {
      "channel": 1,
      "note": 85,
      "start": 3.7151,
      "duration": 0.0509,
      "velocity": 103,
      "chip": "ym2612"
    },
    {
      "channel": 2,
      "note": 68,
      "start": 3.7158,
      "duration": 0.0504,
      "velocity": 87,
      "chip": "ym2612"
    },
    {
      "channel": 4,
      "note": 81,
      "start": 3.7166,
      "duration": 0.05,
      "velocity": 127,
      "chip": "ym2612"
    },
    {
      "channel": 1,
      "note": 85,
      "start": 3.8171,
      "duration": 0.083,
      "velocity": 103,
      "chip": "ym2612"
    },
    {
      "channel": 2,
      "note": 73,
      "start": 3.8178,
      "duration": 0.0824,
      "velocity": 87,
      "chip": "ym2612"
    },
    {
      "channel": 3,
      "note": 83,
      "start": 3.8188,
      "duration": 0.0817,
      "velocity": 103,
      "chip": "ym2612"
    },
    {
      "channel": 4,
      "note": 81,
      "start": 3.8205,
      "duration": 0.0803,
      "velocity": 119,
      "chip": "ym2612"
    },
    {
      "channel": 0,
      "note": 61,
      "start": 3.9339,
      "duration": 0.0833,
      "velocity": 111,
      "chip": "ym2612"
    },
    {
      "channel": 1,
      "note": 85,
      "start": 3.9348,
      "duration": 0.0826,
      "velocity": 103,
      "chip": "ym2612"
    },
    {
      "channel": 2,
      "note": 61,
      "start": 3.9355,
      "duration": 0.0821,
      "velocity": 87,
      "chip": "ym2612"
    },
    {
      "channel": 3,
      "note": 85,
      "start": 3.9362,
      "duration": 0.0817,
      "velocity": 103,
      "chip": "ym2612"
    },
    {
      "channel": 4,
      "note": 81,
      "start": 3.9379,
      "duration": 0.0802,
      "velocity": 127,
      "chip": "ym2612"
    },
    {
      "channel": 0,
      "note": 58,
      "start": 4.0679,
      "duration": 0.0128,
      "velocity": 111,
      "chip": "ym2612"
    },
    {
      "channel": 1,
      "note": 85,
      "start": 4.0689,
      "duration": 0.012,
      "velocity": 103,
      "chip": "ym2612"
    },
    {
      "channel": 2,
      "note": 70,
      "start": 4.0696,
      "duration": 0.0115,
      "velocity": 87,
      "chip": "ym2612"
    },
    {
      "channel": 3,
      "note": 85,
      "start": 4.0706,
      "duration": 0.0107,
      "velocity": 103,
      "chip": "ym2612"
    },
    {
      "channel": 4,
      "note": 81,
      "start": 4.0712,
      "duration": 0.0104,
      "velocity": 127,
      "chip": "ym2612"
    },
    {
      "channel": 0,
      "note": 58,
      "start": 4.0851,
      "duration": 0.2481,
      "velocity": 111,
      "chip": "ym2612"
    },
    {
      "channel": 1,
      "note": 85,
      "start": 4.0861,
      "duration": 0.0117,
      "velocity": 103,
      "chip": "ym2612"
    },
    {
      "channel": 2,
      "note": 80,
      "start": 4.0868,
      "duration": 0.0112,
      "velocity": 87,
      "chip": "ym2612"
    },
    {
      "channel": 3,
      "note": 85,
      "start": 4.0876,
      "duration": 0.0105,
      "velocity": 103,
      "chip": "ym2612"
    },
    {
      "channel": 4,
      "note": 81,
      "start": 4.0883,
      "duration": 0.0101,
      "velocity": 127,
      "chip": "ym2612"
    },
    {
      "channel": 1,
      "note": 85,
      "start": 4.1163,
      "duration": 0.0829,
      "velocity": 103,
      "chip": "ym2612"
    },
    {
      "channel": 2,
      "note": 58,
      "start": 4.1171,
      "duration": 0.0824,
      "velocity": 87,
      "chip": "ym2612"
    },
    {
      "channel": 3,
      "note": 85,
      "start": 4.118,
      "duration": 0.0817,
      "velocity": 103,
      "chip": "ym2612"
    },
    {
      "channel": 4,
      "note": 81,
      "start": 4.1197,
      "duration": 0.0803,
      "velocity": 119,
      "chip": "ym2612"
    },
    {
      "channel": 1,
      "note": 85,
      "start": 4.2503,
      "duration": 0.0831,
      "velocity": 103,
      "chip": "ym2612"
    },
    {
      "channel": 2,
      "note": 73,
      "start": 4.2511,
      "duration": 0.0826,
      "velocity": 87,
      "chip": "ym2612"
    },
    {
      "channel": 3,
      "note": 85,
      "start": 4.252,
      "duration": 0.0819,
      "velocity": 103,
      "chip": "ym2612"
    },
    {
      "channel": 4,
      "note": 81,
      "start": 4.2537,
      "duration": 0.0804,
      "velocity": 127,
      "chip": "ym2612"
    },
    {
      "channel": 0,
      "note": 59,
      "start": 4.3671,
      "duration": 0.3202,
      "velocity": 111,
      "chip": "ym2612"
    },
    {
      "channel": 1,
      "note": 88,
      "start": 4.3679,
      "duration": 0.0347,
      "velocity": 103,
      "chip": "ym2612"
    },
    {
      "channel": 2,
      "note": 59,
      "start": 4.3687,
      "duration": 0.0116,
      "velocity": 87,
      "chip": "ym2612"
    },
    {
      "channel": 3,
      "note": 85,
      "start": 4.3695,
      "duration": 0.011,
      "velocity": 103,
      "chip": "ym2612"
    },
    {
      "channel": 4,
      "note": 81,
      "start": 4.3702,
      "duration": 0.0106,
      "velocity": 127,
      "chip": "ym2612"
    },
    {
      "channel": 2,
      "note": 73,
      "start": 4.3873,
      "duration": 0.049,
      "velocity": 87,
      "chip": "ym2612"
    },
    {
      "channel": 3,
      "note": 85,
      "start": 4.3882,
      "duration": 0.0483,
      "velocity": 103,
      "chip": "ym2612"
    },
    {
      "channel": 4,
      "note": 81,
      "start": 4.3888,
      "duration": 0.0479,
      "velocity": 127,
      "chip": "ym2612"
    },
    {
      "channel": 1,
      "note": 85,
      "start": 4.487,
      "duration": 0.1671,
      "velocity": 103,
      "chip": "ym2612"
    },
    {
      "channel": 2,
      "note": 71,
      "start": 4.4877,
      "duration": 0.0827,
      "velocity": 87,
      "chip": "ym2612"
    },
    {
      "channel": 3,
      "note": 88,
      "start": 4.4884,
      "duration": 0.166,
      "velocity": 103,
      "chip": "ym2612"
    },
    {
      "channel": 4,
      "note": 81,
      "start": 4.4905,
      "duration": 0.0804,
      "velocity": 119,
      "chip": "ym2612"
    },
    {
      "channel": 2,
      "note": 80,
      "start": 4.6044,
      "duration": 0.0833,
      "velocity": 87,
      "chip": "ym2612"
    },
    {
      "channel": 4,
      "note": 81,
      "start": 4.6056,
      "duration": 0.0826,
      "velocity": 119,
      "chip": "ym2612"
    },
    {
      "channel": 0,
      "note": 58,
      "start": 4.738,
      "duration": 0.2657,
      "velocity": 111,
      "chip": "ym2612"
    },
    {
      "channel": 1,
      "note": 89,
      "start": 4.739,
      "duration": 0.0077,
      "velocity": 103,
      "chip": "ym2612"
    },
    {
      "channel": 2,
      "note": 59,
      "start": 4.7399,
      "duration": 0.0132,
      "velocity": 87,
      "chip": "ym2612"
    },
    {
      "channel": 3,
      "note": 85,
      "start": 4.7405,
      "duration": 0.024,
      "velocity": 103,
      "chip": "ym2612"
    },
    {
      "channel": 4,
      "note": 81,
      "start": 4.7422,
      "duration": 0.0113,
      "velocity": 127,
      "chip": "ym2612"
    },
    {
      "channel": 1,
      "note": 90,
      "start": 4.7468,
      "duration": 0.0213,
      "velocity": 103,
      "chip": "ym2612"
    },
    {
      "channel": 2,
      "note": 68,
      "start": 4.7578,
      "duration": 0.0105,
      "velocity": 87,
      "chip": "ym2612"
    },
    {
      "channel": 4,
      "note": 81,
      "start": 4.7585,
      "duration": 0.0102,
      "velocity": 127,
      "chip": "ym2612"
    },
    {
      "channel": 1,
      "note": 88,
      "start": 4.7866,
      "duration": 0.1671,
      "velocity": 103,
      "chip": "ym2612"
    },
    {
      "channel": 2,
      "note": 71,
      "start": 4.7874,
      "duration": 0.0827,
      "velocity": 87,
      "chip": "ym2612"
    },
    {
      "channel": 3,
      "note": 89,
      "start": 4.7881,
      "duration": 0.0492,
      "velocity": 103,
      "chip": "ym2612"
    },
    {
      "channel": 4,
      "note": 81,
      "start": 4.7897,
      "duration": 0.0808,
      "velocity": 119,
      "chip": "ym2612"
    },
    {
      "channel": 3,
      "note": 90,
      "start": 4.8373,
      "duration": 0.1671,
      "velocity": 103,
      "chip": "ym2612"
    },
    {
      "channel": 2,
      "note": 73,
      "start": 4.9209,
      "duration": 0.0833,
      "velocity": 87,
      "chip": "ym2612"
    },
    {
      "channel": 4,
      "note": 81,
      "start": 4.9228,
      "duration": 0.0818,
      "velocity": 127,
      "chip": "ym2612"
    },
    {
      "channel": 0,
      "note": 54,
      "start": 5.0377,
      "duration": 0.1457,
      "velocity": 111,
      "chip": "ym2612"
    },
    {
      "channel": 1,
      "note": 90,
      "start": 5.0385,
      "duration": 0.1117,
      "velocity": 103,
      "chip": "ym2612"
    },
    {
      "channel": 2,
      "note": 54,
      "start": 5.0405,
      "duration": 0.1433,
      "velocity": 108,
      "chip": "ym2612"
    },
    {
      "channel": 3,
      "note": 88,
      "start": 5.0411,
      "duration": 0.0213,
      "velocity": 103,
      "chip": "ym2612"
    },
    {
      "channel": 4,
      "note": 81,
      "start": 5.0418,
      "duration": 0.1424,
      "velocity": 127,
      "chip": "ym2612"
    },
    {
      "channel": 3,
      "note": 90,
      "start": 5.0735,
      "duration": 0.1832,
      "velocity": 103,
      "chip": "ym2612"
    },
    {
      "channel": 0,
      "note": 52,
      "start": 5.2341,
      "duration": 0.1136,
      "velocity": 111,
      "chip": "ym2612"
    },
    {
      "channel": 1,
      "note": 88,
      "start": 5.2349,
      "duration": 0.0627,
      "velocity": 103,
      "chip": "ym2612"
    },
    {
      "channel": 2,
      "note": 52,
      "start": 5.2354,
      "duration": 0.1127,
      "velocity": 108,
      "chip": "ym2612"
    },
    {
      "channel": 4,
      "note": 81,
      "start": 5.2362,
      "duration": 0.1123,
      "velocity": 127,
      "chip": "ym2612"
    },
    {
      "channel": 3,
      "note": 88,
      "start": 5.2664,
      "duration": 0.138,
      "velocity": 103,
      "chip": "ym2612"
    },
    {
      "channel": 0,
      "note": 49,
      "start": 5.3816,
      "duration": 0.148,
      "velocity": 111,
      "chip": "ym2612"
    },
    {
      "channel": 1,
      "note": 85,
      "start": 5.3823,
      "duration": 0.1423,
      "velocity": 103,
      "chip": "ym2612"
    },
    {
      "channel": 2,
      "note": 49,
      "start": 5.3829,
      "duration": 0.161,
      "velocity": 108,
      "chip": "ym2612"
    },
    {
      "channel": 4,
      "note": 81,
      "start": 5.3837,
      "duration": 0.0534,
      "velocity": 127,
      "chip": "ym2612"
    },
    {
      "channel": 3,
      "note": 85,
      "start": 5.4147,
      "duration": 0.1629,
      "velocity": 103,
      "chip": "ym2612"
    },
    {
      "channel": 4,
      "note": 81,
      "start": 5.478,
      "duration": 0.0289,
      "velocity": 127,
      "chip": "ym2612"
    },
    {
      "channel": 4,
      "note": 81,
      "start": 5.5141,
      "duration": 0.0117,
      "velocity": 127,
      "chip": "ym2612"
    },
    {
      "channel": 4,
      "note": 81,
      "start": 5.5323,
      "duration": 0.012,
      "velocity": 119,
      "chip": "ym2612"
    },
    {
      "channel": 0,
      "note": 49,
      "start": 5.5613,
      "duration": 0.2025,
      "velocity": 111,
      "chip": "ym2612"
    },
    {
      "channel": 1,
      "note": 83,
      "start": 5.5624,
      "duration": 0.0147,
      "velocity": 103,
      "chip": "ym2612"
    },
    {
      "channel": 2,
      "note": 61,
      "start": 5.5647,
      "duration": 0.0126,
      "velocity": 87,
      "chip": "ym2612"
    },
    {
      "channel": 4,
      "note": 81,
      "start": 5.5667,
      "duration": 0.0114,
      "velocity": 127,
      "chip": "ym2612"
    },
    {
      "channel": 1,
      "note": 85,
      "start": 5.5843,
      "duration": 0.0623,
      "velocity": 103,
      "chip": "ym2612"
    },
    {
      "channel": 2,
      "note": 68,
      "start": 5.585,
      "duration": 0.0619,
      "velocity": 87,
      "chip": "ym2612"
    },
    {
      "channel": 4,
      "note": 81,
      "start": 5.5861,
      "duration": 0.0615,
      "velocity": 127,
      "chip": "ym2612"
    },
    {
      "channel": 1,
      "note": 85,
      "start": 5.681,
      "duration": 0.083,
      "velocity": 103,
      "chip": "ym2612"
    },
    {
      "channel": 2,
      "note": 73,
      "start": 5.6818,
      "duration": 0.0825,
      "velocity": 87,
      "chip": "ym2612"
    },
    {
      "channel": 3,
      "note": 83,
      "start": 5.6828,
      "duration": 0.0817,
      "velocity": 103,
      "chip": "ym2612"
    },
    {
      "channel": 4,
      "note": 81,
      "start": 5.6845,
      "duration": 0.0802,
      "velocity": 119,
      "chip": "ym2612"
    },
    {
      "channel": 0,
      "note": 61,
      "start": 5.8146,
      "duration": 0.0666,
      "velocity": 111,
      "chip": "ym2612"
    },
    {
      "channel": 1,
      "note": 85,
      "start": 5.8155,
      "duration": 0.0659,
      "velocity": 103,
      "chip": "ym2612"
    },
    {
      "channel": 2,
      "note": 61,
      "start": 5.8163,
      "duration": 0.0653,
      "velocity": 87,
      "chip": "ym2612"
    },
    {
      "channel": 3,
      "note": 85,
      "start": 5.8169,
      "duration": 0.065,
      "velocity": 103,
      "chip": "ym2612"
    },
    {
      "channel": 4,
      "note": 81,
      "start": 5.8186,
      "duration": 0.0635,
      "velocity": 127,
      "chip": "ym2612"
    },
    {
      "channel": 0,
      "note": 58,
      "start": 5.9319,
      "duration": 0.0123,
      "velocity": 111,
      "chip": "ym2612"
    },
    {
      "channel": 1,
      "note": 85,
      "start": 5.9328,
      "duration": 0.0115,
      "velocity": 103,
      "chip": "ym2612"
    },
    {
      "channel": 2,
      "note": 70,
      "start": 5.9335,
      "duration": 0.0111,
      "velocity": 87,
      "chip": "ym2612"
    },
    {
      "channel": 3,
      "note": 85,
      "start": 5.9345,
      "duration": 0.0103,
      "velocity": 103,
      "chip": "ym2612"
    },
    {
      "channel": 4,
      "note": 81,
      "start": 5.935,
      "duration": 0.01,
      "velocity": 127,
      "chip": "ym2612"
    },
    {
      "channel": 0,
      "note": 58,
      "start": 5.9485,
      "duration": 0.2483,
      "velocity": 111,
      "chip": "ym2612"
    },
    {
      "channel": 1,
      "note": 85,
      "start": 5.9495,
      "duration": 0.0114,
      "velocity": 103,
      "chip": "ym2612"
    },
    {
      "channel": 2,
      "note": 80,
      "start": 5.9502,
      "duration": 0.0109,
      "velocity": 87,
      "chip": "ym2612"
    },
    {
      "channel": 3,
      "note": 85,
      "start": 5.9511,
      "duration": 0.0103,
      "velocity": 103,
      "chip": "ym2612"
    },
    {
      "channel": 4,
      "note": 81,
      "start": 5.9517,
      "duration": 0.0099,
      "velocity": 127,
      "chip": "ym2612"
    },
    {
      "channel": 1,
      "note": 85,
      "start": 5.9966,
      "duration": 0.083,
      "velocity": 103,
      "chip": "ym2612"
    },
    {
      "channel": 2,
      "note": 58,
      "start": 5.9973,
      "duration": 0.0824,
      "velocity": 87,
      "chip": "ym2612"
    },
    {
      "channel": 3,
      "note": 85,
      "start": 5.9982,
      "duration": 0.0818,
      "velocity": 103,
      "chip": "ym2612"
    },
    {
      "channel": 4,
      "note": 81,
      "start": 5.9989,
      "duration": 0.0814,
      "velocity": 127,
      "chip": "ym2612"
    },
    {
      "channel": 1,
      "note": 85,
      "start": 6.1139,
      "duration": 0.0831,
      "velocity": 103,
      "chip": "ym2612"
    },
    {
      "channel": 2,
      "note": 73,
      "start": 6.1146,
      "duration": 0.0826,
      "velocity": 87,
      "chip": "ym2612"
    },
    {
      "channel": 3,
      "note": 85,
      "start": 6.1155,
      "duration": 0.0819,
      "velocity": 103,
      "chip": "ym2612"
    },
    {
      "channel": 4,
      "note": 81,
      "start": 6.1162,
      "duration": 0.0815,
      "velocity": 127,
      "chip": "ym2612"
    },
    {
      "channel": 0,
      "note": 59,
      "start": 6.2307,
      "duration": 0.3377,
      "velocity": 111,
      "chip": "ym2612"
    },
    {
      "channel": 1,
      "note": 83,
      "start": 6.2315,
      "duration": 0.2533,
      "velocity": 103,
      "chip": "ym2612"
    },
    {
      "channel": 2,
      "note": 59,
      "start": 6.2321,
      "duration": 0.0127,
      "velocity": 87,
      "chip": "ym2612"
    },
    {
      "channel": 3,
      "note": 85,
      "start": 6.233,
      "duration": 0.012,
      "velocity": 103,
      "chip": "ym2612"
    },
    {
      "channel": 4,
      "note": 81,
      "start": 6.2337,
      "duration": 0.0115,
      "velocity": 127,
      "chip": "ym2612"
    },
    {
      "channel": 2,
      "note": 73,
      "start": 6.2514,
      "duration": 0.066,
      "velocity": 87,
      "chip": "ym2612"
    },
    {
      "channel": 3,
      "note": 85,
      "start": 6.2523,
      "duration": 0.0653,
      "velocity": 103,
      "chip": "ym2612"
    },
    {
      "channel": 4,
      "note": 81,
      "start": 6.2529,
      "duration": 0.065,
      "velocity": 127,
      "chip": "ym2612"
    },
    {
      "channel": 2,
      "note": 71,
      "start": 6.3514,
      "duration": 0.0832,
      "velocity": 87,
      "chip": "ym2612"
    },
    {
      "channel": 3,
      "note": 83,
      "start": 6.3521,
      "duration": 0.2679,
      "velocity": 103,
      "chip": "ym2612"
    },
    {
      "channel": 4,
      "note": 81,
      "start": 6.3538,
      "duration": 0.0812,
      "velocity": 119,
      "chip": "ym2612"
    },
    {
      "channel": 2,
      "note": 80,
      "start": 6.4855,
      "duration": 0.0833,
      "velocity": 87,
      "chip": "ym2612"
    },
    {
      "channel": 4,
      "note": 81,
      "start": 6.4863,
      "duration": 0.0829,
      "velocity": 119,
      "chip": "ym2612"
    },
    {
      "channel": 0,
      "note": 47,
      "start": 6.6024,
      "duration": 0.264,
      "velocity": 111,
      "chip": "ym2612"
    },
    {
      "channel": 1,
      "note": 82,
      "start": 6.603,
      "duration": 0.1798,
      "velocity": 103,
      "chip": "ym2612"
    },
    {
      "channel": 2,
      "note": 59,
      "start": 6.6038,
      "duration": 0.0119,
      "velocity": 87,
      "chip": "ym2612"
    },
    {
      "channel": 4,
      "note": 81,
      "start": 6.6057,
      "duration": 0.0105,
      "velocity": 127,
      "chip": "ym2612"
    },
    {
      "channel": 2,
      "note": 68,
      "start": 6.6198,
      "duration": 0.0102,
      "velocity": 87,
      "chip": "ym2612"
    },
    {
      "channel": 4,
      "note": 81,
      "start": 6.6207,
      "duration": 0.0098,
      "velocity": 127,
      "chip": "ym2612"
    },
    {
      "channel": 2,
      "note": 71,
      "start": 6.6662,
      "duration": 0.0832,
      "velocity": 87,
      "chip": "ym2612"
    },
    {
      "channel": 3,
      "note": 82,
      "start": 6.6668,
      "duration": 0.2698,
      "velocity": 103,
      "chip": "ym2612"
    },
    {
      "channel": 4,
      "note": 81,
      "start": 6.6689,
      "duration": 0.081,
      "velocity": 119,
      "chip": "ym2612"
    },
    {
      "channel": 2,
      "note": 73,
      "start": 6.7836,
      "duration": 0.0832,
      "velocity": 87,
      "chip": "ym2612"
    },
    {
      "channel": 4,
      "note": 81,
      "start": 6.7858,
      "duration": 0.0814,
      "velocity": 127,
      "chip": "ym2612"
    },
    {
      "channel": 0,
      "note": 49,
      "start": 6.9171,
      "duration": 0.1866,
      "velocity": 111,
      "chip": "ym2612"
    },
    {
      "channel": 1,
      "note": 83,
      "start": 6.9183,
      "duration": 0.0104,
      "velocity": 103,
      "chip": "ym2612"
    },
    {
      "channel": 2,
      "note": 61,
      "start": 6.9196,
      "duration": 0.0093,
      "velocity": 87,
      "chip": "ym2612"
    },
    {
      "channel": 4,
      "note": 81,
      "start": 6.9206,
      "duration": 0.0092,
      "velocity": 127,
      "chip": "ym2612"
    },
    {
      "channel": 1,
      "note": 85,
      "start": 6.9357,
      "duration": 0.0508,
      "velocity": 103,
      "chip": "ym2612"
    },
    {
      "channel": 2,
      "note": 68,
      "start": 6.9364,
      "duration": 0.0503,
      "velocity": 87,
      "chip": "ym2612"
    },
    {
      "channel": 4,
      "note": 81,
      "start": 6.9373,
      "duration": 0.0499,
      "velocity": 127,
      "chip": "ym2612"
    },
    {
      "channel": 1,
      "note": 85,
      "start": 7.0208,
      "duration": 0.0831,
      "velocity": 103,
      "chip": "ym2612"
    },
    {
      "channel": 2,
      "note": 73,
      "start": 7.0216,
      "duration": 0.0826,
      "velocity": 87,
      "chip": "ym2612"
    },
    {
      "channel": 3,
      "note": 83,
      "start": 7.0225,
      "duration": 0.0818,
      "velocity": 103,
      "chip": "ym2612"
    },
    {
      "channel": 4,
      "note": 81,
      "start": 7.0242,
      "duration": 0.0803,
      "velocity": 119,
      "chip": "ym2612"
    },
    {
      "channel": 0,
      "note": 61,
      "start": 7.1544,
      "duration": 0.0834,
      "velocity": 111,
      "chip": "ym2612"
    },
    {
      "channel": 1,
      "note": 85,
      "start": 7.1553,
      "duration": 0.0827,
      "velocity": 103,
      "chip": "ym2612"
    },
    {
      "channel": 2,
      "note": 61,
      "start": 7.1562,
      "duration": 0.0821,
      "velocity": 87,
      "chip": "ym2612"
    },
    {
      "channel": 3,
      "note": 85,
      "start": 7.1568,
      "duration": 0.0817,
      "velocity": 103,
      "chip": "ym2612"
    },
    {
      "channel": 4,
      "note": 81,
      "start": 7.1585,
      "duration": 0.0803,
      "velocity": 127,
      "chip": "ym2612"
    },
    {
      "channel": 0,
      "note": 58,
      "start": 7.2717,
      "duration": 0.0132,
      "velocity": 111,
      "chip": "ym2612"
    },
    {
      "channel": 1,
      "note": 85,
      "start": 7.2727,
      "duration": 0.0125,
      "velocity": 103,
      "chip": "ym2612"
    },
    {
      "channel": 2,
      "note": 70,
      "start": 7.2735,
      "duration": 0.0119,
      "velocity": 87,
      "chip": "ym2612"
    },
    {
      "channel": 3,
      "note": 85,
      "start": 7.2744,
      "duration": 0.0112,
      "velocity": 103,
      "chip": "ym2612"
    },
    {
      "channel": 4,
      "note": 81,
      "start": 7.275,
      "duration": 0.0109,
      "velocity": 127,
      "chip": "ym2612"
    },
    {
      "channel": 0,
      "note": 58,
      "start": 7.2894,
      "duration": 0.2482,
      "velocity": 111,
      "chip": "ym2612"
    },
    {
      "channel": 1,
      "note": 85,
      "start": 7.2903,
      "duration": 0.012,
      "velocity": 103,
      "chip": "ym2612"
    },
    {
      "channel": 2,
      "note": 80,
      "start": 7.291,
      "duration": 0.0115,
      "velocity": 87,
      "chip": "ym2612"
    },
    {
      "channel": 3,
      "note": 85,
      "start": 7.2919,
      "duration": 0.0108,
      "velocity": 103,
      "chip": "ym2612"
    },
    {
      "channel": 4,
      "note": 81,
      "start": 7.2925,
      "duration": 0.0104,
      "velocity": 127,
      "chip": "ym2612"
    },
    {
      "channel": 1,
      "note": 85,
      "start": 7.3374,
      "duration": 0.083,
      "velocity": 103,
      "chip": "ym2612"
    },
    {
      "channel": 2,
      "note": 58,
      "start": 7.3381,
      "duration": 0.0825,
      "velocity": 87,
      "chip": "ym2612"
    },
    {
      "channel": 3,
      "note": 85,
      "start": 7.3391,
      "duration": 0.0817,
      "velocity": 103,
      "chip": "ym2612"
    },
    {
      "channel": 4,
      "note": 81,
      "start": 7.3397,
      "duration": 0.0814,
      "velocity": 127,
      "chip": "ym2612"
    },
    {
      "channel": 1,
      "note": 85,
      "start": 7.4547,
      "duration": 0.0831,
      "velocity": 103,
      "chip": "ym2612"
    },
    {
      "channel": 2,
      "note": 73,
      "start": 7.4554,
      "duration": 0.0826,
      "velocity": 87,
      "chip": "ym2612"
    },
    {
      "channel": 3,
      "note": 85,
      "start": 7.4563,
      "duration": 0.0819,
      "velocity": 103,
      "chip": "ym2612"
    },
    {
      "channel": 4,
      "note": 81,
      "start": 7.457,
      "duration": 0.0815,
      "velocity": 127,
      "chip": "ym2612"
    },
    {
      "channel": 0,
      "note": 52,
      "start": 7.5886,
      "duration": 0.0682,
      "velocity": 111,
      "chip": "ym2612"
    },
    {
      "channel": 1,
      "note": 88,
      "start": 7.5893,
      "duration": 0.2361,
      "velocity": 103,
      "chip": "ym2612"
    },
    {
      "channel": 2,
      "note": 59,
      "start": 7.59,
      "duration": 0.012,
      "velocity": 87,
      "chip": "ym2612"
    },
    {
      "channel": 3,
      "note": 85,
      "start": 7.5909,
      "duration": 0.0113,
      "velocity": 103,
      "chip": "ym2612"
    },
    {
      "channel": 4,
      "note": 81,
      "start": 7.5915,
      "duration": 0.011,
      "velocity": 127,
      "chip": "ym2612"
    },
    {
      "channel": 2,
      "note": 73,
      "start": 7.6066,
      "duration": 0.0506,
      "velocity": 87,
      "chip": "ym2612"
    },
    {
      "channel": 3,
      "note": 85,
      "start": 7.6074,
      "duration": 0.05,
      "velocity": 103,
      "chip": "ym2612"
    },
    {
      "channel": 4,
      "note": 81,
      "start": 7.6081,
      "duration": 0.0496,
      "velocity": 127,
      "chip": "ym2612"
    },
    {
      "channel": 0,
      "note": 64,
      "start": 7.6908,
      "duration": 0.0833,
      "velocity": 111,
      "chip": "ym2612"
    },
    {
      "channel": 2,
      "note": 71,
      "start": 7.6917,
      "duration": 0.0828,
      "velocity": 87,
      "chip": "ym2612"
    },
    {
      "channel": 3,
      "note": 88,
      "start": 7.6924,
      "duration": 0.2706,
      "velocity": 103,
      "chip": "ym2612"
    },
    {
      "channel": 4,
      "note": 81,
      "start": 7.6941,
      "duration": 0.0809,
      "velocity": 119,
      "chip": "ym2612"
    },
    {
      "channel": 0,
      "note": 52,
      "start": 7.8252,
      "duration": 0.083,
      "velocity": 111,
      "chip": "ym2612"
    },
    {
      "channel": 2,
      "note": 80,
      "start": 7.8261,
      "duration": 0.0825,
      "velocity": 87,
      "chip": "ym2612"
    },
    {
      "channel": 4,
      "note": 81,
      "start": 7.8269,
      "duration": 0.0821,
      "velocity": 119,
      "chip": "ym2612"
    },
    {
      "channel": 0,
      "note": 54,
      "start": 7.9425,
      "duration": 0.0286,
      "velocity": 111,
      "chip": "ym2612"
    },
    {
      "channel": 1,
      "note": 90,
      "start": 7.9431,
      "duration": 0.1811,
      "velocity": 103,
      "chip": "ym2612"
    },
    {
      "channel": 2,
      "note": 59,
      "start": 7.9439,
      "duration": 0.0124,
      "velocity": 87,
      "chip": "ym2612"
    },
    {
      "channel": 4,
      "note": 81,
      "start": 7.9458,
      "duration": 0.011,
      "velocity": 127,
      "chip": "ym2612"
    },
    {
      "channel": 2,
      "note": 68,
      "start": 7.9628,
      "duration": 0.0086,
      "velocity": 87,
      "chip": "ym2612"
    },
    {
      "channel": 4,
      "note": 81,
      "start": 7.9637,
      "duration": 0.0082,
      "velocity": 127,
      "chip": "ym2612"
    },
    {
      "channel": 0,
      "note": 66,
      "start": 8.0065,
      "duration": 0.0832,
      "velocity": 111,
      "chip": "ym2612"
    },
    {
      "channel": 2,
      "note": 71,
      "start": 8.0074,
      "duration": 0.0828,
      "velocity": 87,
      "chip": "ym2612"
    },
    {
      "channel": 3,
      "note": 90,
      "start": 8.0081,
      "duration": 0.2686,
      "velocity": 103,
      "chip": "ym2612"
    },
    {
      "channel": 4,
      "note": 81,
      "start": 8.0098,
      "duration": 0.0808,
      "velocity": 119,
      "chip": "ym2612"
    },
    {
      "channel": 0,
      "note": 54,
      "start": 8.1241,
      "duration": 0.083,
      "velocity": 111,
      "chip": "ym2612"
    },
    {
      "channel": 2,
      "note": 73,
      "start": 8.125,
      "duration": 0.0824,
      "velocity": 87,
      "chip": "ym2612"
    },
    {
      "channel": 4,
      "note": 81,
      "start": 8.1269,
      "duration": 0.081,
      "velocity": 127,
      "chip": "ym2612"
    },
    {
      "channel": 0,
      "note": 49,
      "start": 8.2578,
      "duration": 0.1861,
      "velocity": 111,
      "chip": "ym2612"
    },
    {
      "channel": 1,
      "note": 83,
      "start": 8.2587,
      "duration": 0.0129,
      "velocity": 103,
      "chip": "ym2612"
    },
    {
      "channel": 2,
      "note": 61,
      "start": 8.26,
      "duration": 0.0119,
      "velocity": 87,
      "chip": "ym2612"
    },
    {
      "channel": 4,
      "note": 81,
      "start": 8.2608,
      "duration": 0.0115,
      "velocity": 127,
      "chip": "ym2612"
    },
    {
      "channel": 1,
      "note": 85,
      "start": 8.2758,
      "duration": 0.0509,
      "velocity": 103,
      "chip": "ym2612"
    },
    {
      "channel": 2,
      "note": 68,
      "start": 8.2765,
      "duration": 0.0505,
      "velocity": 87,
      "chip": "ym2612"
    },
    {
      "channel": 4,
      "note": 81,
      "start": 8.2773,
      "duration": 0.0501,
      "velocity": 127,
      "chip": "ym2612"
    },
    {
      "channel": 1,
      "note": 85,
      "start": 8.3611,
      "duration": 0.083,
      "velocity": 103,
      "chip": "ym2612"
    },
    {
      "channel": 2,
      "note": 73,
      "start": 8.3618,
      "duration": 0.0824,
      "velocity": 87,
      "chip": "ym2612"
    },
    {
      "channel": 3,
      "note": 83,
      "start": 8.3631,
      "duration": 0.0814,
      "velocity": 103,
      "chip": "ym2612"
    },
    {
      "channel": 4,
      "note": 81,
      "start": 8.3648,
      "duration": 0.08,
      "velocity": 119,
      "chip": "ym2612"
    },
    {
      "channel": 0,
      "note": 61,
      "start": 8.4946,
      "duration": 0.0833,
      "velocity": 111,
      "chip": "ym2612"
    },
    {
      "channel": 1,
      "note": 85,
      "start": 8.4955,
      "duration": 0.0827,
      "velocity": 103,
      "chip": "ym2612"
    },
    {
      "channel": 2,
      "note": 61,
      "start": 8.4967,
      "duration": 0.0817,
      "velocity": 87,
      "chip": "ym2612"
    },
    {
      "channel": 3,
      "note": 85,
      "start": 8.4973,
      "duration": 0.0814,
      "velocity": 103,
      "chip": "ym2612"
    },
    {
      "channel": 4,
      "note": 81,
      "start": 8.499,
      "duration": 0.0802,
      "velocity": 127,
      "chip": "ym2612"
    },
    {
      "channel": 0,
      "note": 58,
      "start": 8.612,
      "duration": 0.0132,
      "velocity": 111,
      "chip": "ym2612"
    },
    {
      "channel": 1,
      "note": 85,
      "start": 8.6132,
      "duration": 0.0121,
      "velocity": 103,
      "chip": "ym2612"
    },
    {
      "channel": 2,
      "note": 70,
      "start": 8.614,
      "duration": 0.0116,
      "velocity": 87,
      "chip": "ym2612"
    },
    {
      "channel": 3,
      "note": 85,
      "start": 8.6149,
      "duration": 0.0109,
      "velocity": 103,
      "chip": "ym2612"
    },
    {
      "channel": 4,
      "note": 81,
      "start": 8.6155,
      "duration": 0.0105,
      "velocity": 127,
      "chip": "ym2612"
    },
    {
      "channel": 0,
      "note": 58,
      "start": 8.6315,
      "duration": 0.2461,
      "velocity": 111,
      "chip": "ym2612"
    },
    {
      "channel": 1,
      "note": 85,
      "start": 8.6325,
      "duration": 0.0114,
      "velocity": 103,
      "chip": "ym2612"
    },
    {
      "channel": 2,
      "note": 80,
      "start": 8.6332,
      "duration": 0.0108,
      "velocity": 87,
      "chip": "ym2612"
    },
    {
      "channel": 3,
      "note": 85,
      "start": 8.6341,
      "duration": 0.0102,
      "velocity": 103,
      "chip": "ym2612"
    },
    {
      "channel": 4,
      "note": 81,
      "start": 8.6347,
      "duration": 0.0098,
      "velocity": 127,
      "chip": "ym2612"
    },
    {
      "channel": 1,
      "note": 85,
      "start": 8.6775,
      "duration": 0.083,
      "velocity": 103,
      "chip": "ym2612"
    },
    {
      "channel": 2,
      "note": 58,
      "start": 8.6783,
      "duration": 0.0824,
      "velocity": 87,
      "chip": "ym2612"
    },
    {
      "channel": 3,
      "note": 85,
      "start": 8.6792,
      "duration": 0.0817,
      "velocity": 103,
      "chip": "ym2612"
    },
    {
      "channel": 4,
      "note": 81,
      "start": 8.6799,
      "duration": 0.0814,
      "velocity": 127,
      "chip": "ym2612"
    },
    {
      "channel": 1,
      "note": 85,
      "start": 8.7949,
      "duration": 0.083,
      "velocity": 103,
      "chip": "ym2612"
    },
    {
      "channel": 2,
      "note": 73,
      "start": 8.7956,
      "duration": 0.0826,
      "velocity": 87,
      "chip": "ym2612"
    },
    {
      "channel": 3,
      "note": 85,
      "start": 8.7965,
      "duration": 0.0819,
      "velocity": 103,
      "chip": "ym2612"
    },
    {
      "channel": 4,
      "note": 81,
      "start": 8.7971,
      "duration": 0.0815,
      "velocity": 127,
      "chip": "ym2612"
    },
    {
      "channel": 0,
      "note": 59,
      "start": 8.9284,
      "duration": 0.3194,
      "velocity": 111,
      "chip": "ym2612"
    },
    {
      "channel": 1,
      "note": 90,
      "start": 8.9292,
      "duration": 0.0338,
      "velocity": 103,
      "chip": "ym2612"
    },
    {
      "channel": 2,
      "note": 59,
      "start": 8.9299,
      "duration": 0.0115,
      "velocity": 87,
      "chip": "ym2612"
    },
    {
      "channel": 3,
      "note": 85,
      "start": 8.9308,
      "duration": 0.0109,
      "velocity": 103,
      "chip": "ym2612"
    },
    {
      "channel": 4,
      "note": 81,
      "start": 8.9315,
      "duration": 0.0105,
      "velocity": 127,
      "chip": "ym2612"
    },
    {
      "channel": 2,
      "note": 73,
      "start": 8.9457,
      "duration": 0.051,
      "velocity": 87,
      "chip": "ym2612"
    },
    {
      "channel": 3,
      "note": 85,
      "start": 8.9466,
      "duration": 0.0504,
      "velocity": 103,
      "chip": "ym2612"
    },
    {
      "channel": 4,
      "note": 81,
      "start": 8.9472,
      "duration": 0.05,
      "velocity": 127,
      "chip": "ym2612"
    },
    {
      "channel": 1,
      "note": 88,
      "start": 9.0473,
      "duration": 0.1503,
      "velocity": 103,
      "chip": "ym2612"
    },
    {
      "channel": 2,
      "note": 71,
      "start": 9.048,
      "duration": 0.066,
      "velocity": 87,
      "chip": "ym2612"
    },
    {
      "channel": 3,
      "note": 90,
      "start": 9.0488,
      "duration": 0.1493,
      "velocity": 103,
      "chip": "ym2612"
    },
    {
      "channel": 4,
      "note": 81,
      "start": 9.0505,
      "duration": 0.064,
      "velocity": 119,
      "chip": "ym2612"
    },
    {
      "channel": 2,
      "note": 80,
      "start": 9.1649,
      "duration": 0.0833,
      "velocity": 87,
      "chip": "ym2612"
    },
    {
      "channel": 4,
      "note": 81,
      "start": 9.1656,
      "duration": 0.0829,
      "velocity": 119,
      "chip": "ym2612"
    },
    {
      "channel": 0,
      "note": 58,
      "start": 9.2817,
      "duration": 0.0918,
      "velocity": 111,
      "chip": "ym2612"
    },
    {
      "channel": 1,
      "note": 87,
      "start": 9.2824,
      "duration": 0.0232,
      "velocity": 103,
      "chip": "ym2612"
    },
    {
      "channel": 2,
      "note": 59,
      "start": 9.2831,
      "duration": 0.0115,
      "velocity": 87,
      "chip": "ym2612"
    },
    {
      "channel": 3,
      "note": 88,
      "start": 9.2838,
      "duration": 0.0222,
      "velocity": 103,
      "chip": "ym2612"
    },
    {
      "channel": 4,
      "note": 81,
      "start": 9.2855,
      "duration": 0.0272,
      "velocity": 127,
      "chip": "ym2612"
    },
    {
      "channel": 2,
      "note": 68,
      "start": 9.3015,
      "duration": 0.0108,
      "velocity": 87,
      "chip": "ym2612"
    },
    {
      "channel": 1,
      "note": 85,
      "start": 9.3461,
      "duration": 0.0117,
      "velocity": 103,
      "chip": "ym2612"
    },
    {
      "channel": 2,
      "note": 71,
      "start": 9.3469,
      "duration": 0.0111,
      "velocity": 87,
      "chip": "ym2612"
    },
    {
      "channel": 3,
      "note": 87,
      "start": 9.3475,
      "duration": 0.0221,
      "velocity": 103,
      "chip": "ym2612"
    },
    {
      "channel": 4,
      "note": 81,
      "start": 9.3481,
      "duration": 0.0262,
      "velocity": 127,
      "chip": "ym2612"
    },
    {
      "channel": 1,
      "note": 83,
      "start": 9.3627,
      "duration": 0.0109,
      "velocity": 103,
      "chip": "ym2612"
    },
    {
      "channel": 2,
      "note": 73,
      "start": 9.3634,
      "duration": 0.0105,
      "velocity": 87,
      "chip": "ym2612"
    },
    {
      "channel": 0,
      "note": 54,
      "start": 9.3803,
      "duration": 0.0631,
      "velocity": 111,
      "chip": "ym2612"
    },
    {
      "channel": 1,
      "note": 90,
      "start": 9.381,
      "duration": 0.014,
      "velocity": 103,
      "chip": "ym2612"
    },
    {
      "channel": 2,
      "note": 54,
      "start": 9.383,
      "duration": 0.0122,
      "velocity": 108,
      "chip": "ym2612"
    },
    {
      "channel": 3,
      "note": 85,
      "start": 9.3837,
      "duration": 0.0118,
      "velocity": 103,
      "chip": "ym2612"
    },
    {
      "channel": 4,
      "note": 81,
      "start": 9.3843,
      "duration": 0.0282,
      "velocity": 127,
      "chip": "ym2612"
    },
    {
      "channel": 1,
      "note": 90,
      "start": 9.3995,
      "duration": 0.0336,
      "velocity": 103,
      "chip": "ym2612"
    },
    {
      "channel": 2,
      "note": 54,
      "start": 9.4001,
      "duration": 0.0437,
      "velocity": 108,
      "chip": "ym2612"
    },
    {
      "channel": 3,
      "note": 83,
      "start": 9.4007,
      "duration": 0.0115,
      "velocity": 103,
      "chip": "ym2612"
    },
    {
      "channel": 3,
      "note": 90,
      "start": 9.4185,
      "duration": 0.0114,
      "velocity": 103,
      "chip": "ym2612"
    },
    {
      "channel": 4,
      "note": 81,
      "start": 9.4192,
      "duration": 0.025,
      "velocity": 127,
      "chip": "ym2612"
    },
    {
      "channel": 3,
      "note": 90,
      "start": 9.434,
      "duration": 0.0477,
      "velocity": 103,
      "chip": "ym2612"
    },
    {
      "channel": 0,
      "note": 52,
      "start": 9.4626,
      "duration": 0.1157,
      "velocity": 111,
      "chip": "ym2612"
    },
    {
      "channel": 1,
      "note": 88,
      "start": 9.4633,
      "duration": 0.0816,
      "velocity": 103,
      "chip": "ym2612"
    },
    {
      "channel": 2,
      "note": 52,
      "start": 9.464,
      "duration": 0.1147,
      "velocity": 108,
      "chip": "ym2612"
    },
    {
      "channel": 4,
      "note": 81,
      "start": 9.4651,
      "duration": 0.0277,
      "velocity": 127,
      "chip": "ym2612"
    },
    {
      "channel": 3,
      "note": 88,
      "start": 9.4973,
      "duration": 0.0816,
      "velocity": 103,
      "chip": "ym2612"
    },
    {
      "channel": 4,
      "note": 81,
      "start": 9.4979,
      "duration": 0.0813,
      "velocity": 127,
      "chip": "ym2612"
    },
    {
      "channel": 0,
      "note": 49,
      "start": 9.629,
      "duration": 0.1335,
      "velocity": 111,
      "chip": "ym2612"
    },
    {
      "channel": 1,
      "note": 85,
      "start": 9.6296,
      "duration": 0.1227,
      "velocity": 103,
      "chip": "ym2612"
    },
    {
      "channel": 2,
      "note": 69,
      "start": 9.6318,
      "duration": 0.0063,
      "velocity": 93,
      "chip": "ym2612"
    },
    {
      "channel": 3,
      "note": 49,
      "start": 9.6337,
      "duration": 0.1447,
      "velocity": 108,
      "chip": "ym2612"
    },
    {
      "channel": 4,
      "note": 81,
      "start": 9.6343,
      "duration": 0.0244,
      "velocity": 127,
      "chip": "ym2612"
    },
    {
      "channel": 2,
      "note": 71,
      "start": 9.6434,
      "duration": 0.0042,
      "velocity": 93,
      "chip": "ym2612"
    },
    {
      "channel": 2,
      "note": 73,
      "start": 9.6542,
      "duration": 0.004,
      "velocity": 93,
      "chip": "ym2612"
    },
    {
      "channel": 2,
      "note": 74,
      "start": 9.6648,
      "duration": 0.0053,
      "velocity": 93,
      "chip": "ym2612"
    },
    {
      "channel": 4,
      "note": 81,
      "start": 9.6656,
      "duration": 0.0283,
      "velocity": 127,
      "chip": "ym2612"
    },
    {
      "channel": 2,
      "note": 76,
      "start": 9.6769,
      "duration": 0.0059,
      "velocity": 93,
      "chip": "ym2612"
    },
    {
      "channel": 2,
      "note": 78,
      "start": 9.6893,
      "duration": 0.0043,
      "velocity": 93,
      "chip": "ym2612"
    },
    {
      "channel": 2,
      "note": 80,
      "start": 9.6987,
      "duration": 0.008,
      "velocity": 93,
      "chip": "ym2612"
    },
    {
      "channel": 4,
      "note": 81,
      "start": 9.6995,
      "duration": 0.008,
      "velocity": 127,
      "chip": "ym2612"
    },
    {
      "channel": 4,
      "note": 81,
      "start": 9.7075,
      "duration": 0.006,
      "velocity": 127,
      "chip": "ym2612"
    },
    {
      "channel": 2,
      "note": 81,
      "start": 9.713,
      "duration": 0.0075,
      "velocity": 93,
      "chip": "ym2612"
    },
    {
      "channel": 4,
      "note": 81,
      "start": 9.7213,
      "duration": 0.0058,
      "velocity": 127,
      "chip": "ym2612"
    },
    {
      "channel": 2,
      "note": 83,
      "start": 9.7263,
      "duration": 0.0077,
      "velocity": 93,
      "chip": "ym2612"
    },
    {
      "channel": 4,
      "note": 81,
      "start": 9.7272,
      "duration": 0.0073,
      "velocity": 127,
      "chip": "ym2612"
    },
    {
      "channel": 2,
      "note": 85,
      "start": 9.7394,
      "duration": 0.0081,
      "velocity": 93,
      "chip": "ym2612"
    },
    {
      "channel": 4,
      "note": 81,
      "start": 9.7403,
      "duration": 0.0137,
      "velocity": 127,
      "chip": "ym2612"
    },
    {
      "channel": 2,
      "note": 86,
      "start": 9.7533,
      "duration": 0.01,
      "velocity": 93,
      "chip": "ym2612"
    },
    {
      "channel": 4,
      "note": 81,
      "start": 9.7654,
      "duration": 0.0135,
      "velocity": 119,
      "chip": "ym2612"
    },
    {
      "channel": 2,
      "note": 88,
      "start": 9.7705,
      "duration": 0.0076,
      "velocity": 93,
      "chip": "ym2612"
    },
    {
      "channel": 0,
      "note": 54,
      "start": 9.7843,
      "duration": 0.0731,
      "velocity": 111,
      "chip": "ym2612"
    },
    {
      "channel": 1,
      "note": 85,
      "start": 9.7857,
      "duration": 0.072,
      "velocity": 103,
      "chip": "ym2612"
    },
    {
      "channel": 2,
      "note": 54,
      "start": 9.7881,
      "duration": 0.5045,
      "velocity": 108,
      "chip": "ym2612"
    },
    {
      "channel": 4,
      "note": 81,
      "start": 9.7924,
      "duration": 0.0115,
      "velocity": 127,
      "chip": "ym2612"
    },
    {
      "channel": 4,
      "note": 81,
      "start": 9.8084,
      "duration": 0.0102,
      "velocity": 127,
      "chip": "ym2612"
    },
    {
      "channel": 3,
      "note": 85,
      "start": 9.8247,
      "duration": 0.2122,
      "velocity": 103,
      "chip": "ym2612"
    },
    {
      "channel": 4,
      "note": 81,
      "start": 9.8264,
      "duration": 0.1492,
      "velocity": 119,
      "chip": "ym2612"
    },
    {
      "channel": 0,
      "note": 66,
      "start": 9.8914,
      "duration": 0.0834,
      "velocity": 111,
      "chip": "ym2612"
    },
    {
      "channel": 1,
      "note": 85,
      "start": 9.8921,
      "duration": 0.0829,
      "velocity": 103,
      "chip": "ym2612"
    },
    {
      "channel": 0,
      "note": 54,
      "start": 10.0256,
      "duration": 0.0285,
      "velocity": 111,
      "chip": "ym2612"
    },
    {
      "channel": 1,
      "note": 85,
      "start": 10.0261,
      "duration": 0.0281,
      "velocity": 103,
      "chip": "ym2612"
    },
    {
      "channel": 4,
      "note": 81,
      "start": 10.0286,
      "duration": 0.0086,
      "velocity": 127,
      "chip": "ym2612"
    },
    {
      "channel": 3,
      "note": 85,
      "start": 10.0438,
      "duration": 0.0108,
      "velocity": 103,
      "chip": "ym2612"
    },
    {
      "channel": 4,
      "note": 81,
      "start": 10.0445,
      "duration": 0.0105,
      "velocity": 127,
      "chip": "ym2612"
    },
    {
      "channel": 0,
      "note": 61,
      "start": 10.0747,
      "duration": 0.2175,
      "velocity": 111,
      "chip": "ym2612"
    },
    {
      "channel": 1,
      "note": 80,
      "start": 10.0753,
      "duration": 0.0499,
      "velocity": 103,
      "chip": "ym2612"
    },
    {
      "channel": 3,
      "note": 85,
      "start": 10.0761,
      "duration": 0.2169,
      "velocity": 103,
      "chip": "ym2612"
    },
    {
      "channel": 4,
      "note": 81,
      "start": 10.0778,
      "duration": 0.2155,
      "velocity": 119,
      "chip": "ym2612"
    },
    {
      "channel": 1,
      "note": 82,
      "start": 10.1252,
      "duration": 0.2188,
      "velocity": 103,
      "chip": "ym2612"
    },
    {
      "channel": 0,
      "note": 49,
      "start": 10.3262,
      "duration": 0.0685,
      "velocity": 111,
      "chip": "ym2612"
    },
    {
      "channel": 2,
      "note": 49,
      "start": 10.327,
      "duration": 0.0685,
      "velocity": 108,
      "chip": "ym2612"
    },
    {
      "channel": 3,
      "note": 80,
      "start": 10.3276,
      "duration": 0.0087,
      "velocity": 103,
      "chip": "ym2612"
    },
    {
      "channel": 4,
      "note": 81,
      "start": 10.3293,
      "duration": 0.0115,
      "velocity": 127,
      "chip": "ym2612"
    },
    {
      "channel": 3,
      "note": 82,
      "start": 10.3363,
      "duration": 0.2278,
      "velocity": 103,
      "chip": "ym2612"
    },
    {
      "channel": 1,
      "note": 82,
      "start": 10.3441,
      "duration": 0.1018,
      "velocity": 103,
      "chip": "ym2612"
    },
    {
      "channel": 4,
      "note": 81,
      "start": 10.3451,
      "duration": 0.0508,
      "velocity": 127,
      "chip": "ym2612"
    },
    {
      "channel": 0,
      "note": 61,
      "start": 10.4454,
      "duration": 0.0834,
      "velocity": 111,
      "chip": "ym2612"
    },
    {
      "channel": 2,
      "note": 49,
      "start": 10.4464,
      "duration": 0.0827,
      "velocity": 108,
      "chip": "ym2612"
    },
    {
      "channel": 4,
      "note": 81,
      "start": 10.4483,
      "duration": 0.1989,
      "velocity": 119,
      "chip": "ym2612"
    },
    {
      "channel": 0,
      "note": 49,
      "start": 10.5628,
      "duration": 0.1454,
      "velocity": 111,
      "chip": "ym2612"
    },
    {
      "channel": 2,
      "note": 49,
      "start": 10.5635,
      "duration": 0.0829,
      "velocity": 108,
      "chip": "ym2612"
    },
    {
      "channel": 3,
      "note": 82,
      "start": 10.5641,
      "duration": 0.1335,
      "velocity": 103,
      "chip": "ym2612"
    },
    {
      "channel": 2,
      "note": 49,
      "start": 10.6971,
      "duration": 0.0113,
      "velocity": 108,
      "chip": "ym2612"
    },
    {
      "channel": 4,
      "note": 81,
      "start": 10.6993,
      "duration": 0.0095,
      "velocity": 127,
      "chip": "ym2612"
    },
    {
      "channel": 0,
      "note": 49,
      "start": 10.7121,
      "duration": 0.0106,
      "velocity": 111,
      "chip": "ym2612"
    },
    {
      "channel": 2,
      "note": 49,
      "start": 10.7128,
      "duration": 0.2495,
      "velocity": 108,
      "chip": "ym2612"
    },
    {
      "channel": 4,
      "note": 81,
      "start": 10.7146,
      "duration": 0.0087,
      "velocity": 119,
      "chip": "ym2612"
    },
    {
      "channel": 0,
      "note": 61,
      "start": 10.7446,
      "duration": 0.2174,
      "velocity": 111,
      "chip": "ym2612"
    },
    {
      "channel": 4,
      "note": 81,
      "start": 10.7467,
      "duration": 0.0819,
      "velocity": 127,
      "chip": "ym2612"
    },
    {
      "channel": 4,
      "note": 81,
      "start": 10.8803,
      "duration": 0.0824,
      "velocity": 119,
      "chip": "ym2612"
    },
    {
      "channel": 0,
      "note": 54,
      "start": 10.996,
      "duration": 0.2024,
      "velocity": 111,
      "chip": "ym2612"
    },
    {
      "channel": 1,
      "note": 90,
      "start": 10.9967,
      "duration": 0.0679,
      "velocity": 103,
      "chip": "ym2612"
    },
    {
      "channel": 2,
      "note": 54,
      "start": 10.9973,
      "duration": 0.6339,
      "velocity": 108,
      "chip": "ym2612"
    },
    {
      "channel": 4,
      "note": 81,
      "start": 10.9992,
      "duration": 0.0102,
      "velocity": 127,
      "chip": "ym2612"
    },
    {
      "channel": 4,
      "note": 81,
      "start": 11.0151,
      "duration": 0.05,
      "velocity": 127,
      "chip": "ym2612"
    },
    {
      "channel": 1,
      "note": 89,
      "start": 11.1153,
      "duration": 0.2007,
      "velocity": 103,
      "chip": "ym2612"
    },
    {
      "channel": 3,
      "note": 90,
      "start": 11.1161,
      "duration": 0.2002,
      "velocity": 103,
      "chip": "ym2612"
    },
    {
      "channel": 4,
      "note": 81,
      "start": 11.1178,
      "duration": 0.1988,
      "velocity": 119,
      "chip": "ym2612"
    },
    {
      "channel": 0,
      "note": 66,
      "start": 11.2324,
      "duration": 0.0833,
      "velocity": 111,
      "chip": "ym2612"
    },
    {
      "channel": 0,
      "note": 54,
      "start": 11.3665,
      "duration": 0.2644,
      "velocity": 111,
      "chip": "ym2612"
    },
    {
      "channel": 1,
      "note": 87,
      "start": 11.3671,
      "duration": 0.0121,
      "velocity": 103,
      "chip": "ym2612"
    },
    {
      "channel": 3,
      "note": 89,
      "start": 11.368,
      "duration": 0.0265,
      "velocity": 103,
      "chip": "ym2612"
    },
    {
      "channel": 4,
      "note": 81,
      "start": 11.3697,
      "duration": 0.0102,
      "velocity": 127,
      "chip": "ym2612"
    },
    {
      "channel": 1,
      "note": 85,
      "start": 11.3833,
      "duration": 0.0108,
      "velocity": 103,
      "chip": "ym2612"
    },
    {
      "channel": 4,
      "note": 81,
      "start": 11.3843,
      "duration": 0.0105,
      "velocity": 127,
      "chip": "ym2612"
    },
    {
      "channel": 3,
      "note": 87,
      "start": 11.4139,
      "duration": 0.0837,
      "velocity": 103,
      "chip": "ym2612"
    },
    {
      "channel": 4,
      "note": 81,
      "start": 11.4159,
      "duration": 0.216,
      "velocity": 119,
      "chip": "ym2612"
    },
    {
      "channel": 1,
      "note": 87,
      "start": 11.5477,
      "duration": 0.7539,
      "velocity": 103,
      "chip": "ym2612"
    },
    {
      "channel": 3,
      "note": 85,
      "start": 11.5485,
      "duration": 0.0831,
      "velocity": 103,
      "chip": "ym2612"
    },
    {
      "channel": 0,
      "note": 56,
      "start": 11.6648,
      "duration": 0.0862,
      "velocity": 111,
      "chip": "ym2612"
    },
    {
      "channel": 2,
      "note": 56,
      "start": 11.6659,
      "duration": 0.6361,
      "velocity": 108,
      "chip": "ym2612"
    },
    {
      "channel": 4,
      "note": 81,
      "start": 11.6678,
      "duration": 0.0106,
      "velocity": 127,
      "chip": "ym2612"
    },
    {
      "channel": 3,
      "note": 87,
      "start": 11.6848,
      "duration": 0.7356,
      "velocity": 103,
      "chip": "ym2612"
    },
    {
      "channel": 4,
      "note": 81,
      "start": 11.6854,
      "duration": 0.0664,
      "velocity": 127,
      "chip": "ym2612"
    },
    {
      "channel": 0,
      "note": 56,
      "start": 11.7849,
      "duration": 0.0834,
      "velocity": 111,
      "chip": "ym2612"
    },
    {
      "channel": 4,
      "note": 81,
      "start": 11.7871,
      "duration": 0.1993,
      "velocity": 119,
      "chip": "ym2612"
    },
    {
      "channel": 0,
      "note": 56,
      "start": 11.9022,
      "duration": 0.0833,
      "velocity": 111,
      "chip": "ym2612"
    },
    {
      "channel": 0,
      "note": 44,
      "start": 12.0363,
      "duration": 0.0125,
      "velocity": 111,
      "chip": "ym2612"
    },
    {
      "channel": 4,
      "note": 81,
      "start": 12.0385,
      "duration": 0.0113,
      "velocity": 127,
      "chip": "ym2612"
    },
    {
      "channel": 0,
      "note": 56,
      "start": 12.0537,
      "duration": 0.2477,
      "velocity": 111,
      "chip": "ym2612"
    },
    {
      "channel": 4,
      "note": 81,
      "start": 12.0561,
      "duration": 0.0111,
      "velocity": 119,
      "chip": "ym2612"
    },
    {
      "channel": 4,
      "note": 81,
      "start": 12.1027,
      "duration": 0.0659,
      "velocity": 127,
      "chip": "ym2612"
    },
    {
      "channel": 4,
      "note": 81,
      "start": 12.2201,
      "duration": 0.0829,
      "velocity": 119,
      "chip": "ym2612"
    },
    {
      "channel": 0,
      "note": 54,
      "start": 12.3353,
      "duration": 0.2019,
      "velocity": 111,
      "chip": "ym2612"
    },
    {
      "channel": 1,
      "note": 85,
      "start": 12.3359,
      "duration": 0.2015,
      "velocity": 103,
      "chip": "ym2612"
    },
    {
      "channel": 2,
      "note": 54,
      "start": 12.3365,
      "duration": 0.6337,
      "velocity": 108,
      "chip": "ym2612"
    },
    {
      "channel": 4,
      "note": 81,
      "start": 12.3387,
      "duration": 0.0107,
      "velocity": 127,
      "chip": "ym2612"
    },
    {
      "channel": 4,
      "note": 81,
      "start": 12.3562,
      "duration": 0.0645,
      "velocity": 127,
      "chip": "ym2612"
    },
    {
      "channel": 3,
      "note": 85,
      "start": 12.4544,
      "duration": 0.2635,
      "velocity": 103,
      "chip": "ym2612"
    },
    {
      "channel": 4,
      "note": 81,
      "start": 12.4561,
      "duration": 0.1993,
      "velocity": 119,
      "chip": "ym2612"
    },
    {
      "channel": 0,
      "note": 54,
      "start": 12.5711,
      "duration": 0.0834,
      "velocity": 111,
      "chip": "ym2612"
    },
    {
      "channel": 1,
      "note": 85,
      "start": 12.5718,
      "duration": 0.083,
      "velocity": 103,
      "chip": "ym2612"
    },
    {
      "channel": 0,
      "note": 54,
      "start": 12.7053,
      "duration": 0.0263,
      "velocity": 111,
      "chip": "ym2612"
    },
    {
      "channel": 1,
      "note": 85,
      "start": 12.7059,
      "duration": 0.0259,
      "velocity": 103,
      "chip": "ym2612"
    },
    {
      "channel": 4,
      "note": 81,
      "start": 12.708,
      "duration": 0.0102,
      "velocity": 127,
      "chip": "ym2612"
    },
    {
      "channel": 3,
      "note": 85,
      "start": 12.7219,
      "duration": 0.0103,
      "velocity": 103,
      "chip": "ym2612"
    },
    {
      "channel": 4,
      "note": 81,
      "start": 12.7225,
      "duration": 0.0099,
      "velocity": 127,
      "chip": "ym2612"
    },
    {
      "channel": 0,
      "note": 49,
      "start": 12.7691,
      "duration": 0.2007,
      "velocity": 111,
      "chip": "ym2612"
    },
    {
      "channel": 1,
      "note": 82,
      "start": 12.7697,
      "duration": 0.3185,
      "velocity": 103,
      "chip": "ym2612"
    },
    {
      "channel": 3,
      "note": 85,
      "start": 12.7705,
      "duration": 0.1999,
      "velocity": 103,
      "chip": "ym2612"
    },
    {
      "channel": 4,
      "note": 81,
      "start": 12.7722,
      "duration": 0.1984,
      "velocity": 119,
      "chip": "ym2612"
    },
    {
      "channel": 0,
      "note": 49,
      "start": 13.0037,
      "duration": 0.0119,
      "velocity": 111,
      "chip": "ym2612"
    },
    {
      "channel": 2,
      "note": 49,
      "start": 13.0045,
      "duration": 0.0838,
      "velocity": 108,
      "chip": "ym2612"
    },
    {
      "channel": 3,
      "note": 82,
      "start": 13.0051,
      "duration": 0.3179,
      "velocity": 103,
      "chip": "ym2612"
    },
    {
      "channel": 4,
      "note": 81,
      "start": 13.0068,
      "duration": 0.0096,
      "velocity": 127,
      "chip": "ym2612"
    },
    {
      "channel": 0,
      "note": 49,
      "start": 13.022,
      "duration": 0.0659,
      "velocity": 111,
      "chip": "ym2612"
    },
    {
      "channel": 4,
      "note": 81,
      "start": 13.0232,
      "duration": 0.0656,
      "velocity": 127,
      "chip": "ym2612"
    },
    {
      "channel": 0,
      "note": 49,
      "start": 13.1218,
      "duration": 0.0834,
      "velocity": 111,
      "chip": "ym2612"
    },
    {
      "channel": 2,
      "note": 49,
      "start": 13.1244,
      "duration": 0.0812,
      "velocity": 108,
      "chip": "ym2612"
    },
    {
      "channel": 4,
      "note": 81,
      "start": 13.1263,
      "duration": 0.197,
      "velocity": 119,
      "chip": "ym2612"
    },
    {
      "channel": 0,
      "note": 61,
      "start": 13.256,
      "duration": 0.0666,
      "velocity": 111,
      "chip": "ym2612"
    },
    {
      "channel": 2,
      "note": 49,
      "start": 13.2566,
      "duration": 0.0662,
      "velocity": 108,
      "chip": "ym2612"
    },
    {
      "channel": 0,
      "note": 49,
      "start": 13.3733,
      "duration": 0.0131,
      "velocity": 111,
      "chip": "ym2612"
    },
    {
      "channel": 2,
      "note": 49,
      "start": 13.3739,
      "duration": 0.0128,
      "velocity": 108,
      "chip": "ym2612"
    },
    {
      "channel": 4,
      "note": 81,
      "start": 13.3777,
      "duration": 0.0096,
      "velocity": 127,
      "chip": "ym2612"
    },
    {
      "channel": 0,
      "note": 61,
      "start": 13.3911,
      "duration": 0.2485,
      "velocity": 111,
      "chip": "ym2612"
    },
    {
      "channel": 2,
      "note": 49,
      "start": 13.3918,
      "duration": 0.2481,
      "velocity": 108,
      "chip": "ym2612"
    },
    {
      "channel": 4,
      "note": 81,
      "start": 13.3936,
      "duration": 0.0091,
      "velocity": 119,
      "chip": "ym2612"
    },
    {
      "channel": 4,
      "note": 81,
      "start": 13.4405,
      "duration": 0.0823,
      "velocity": 127,
      "chip": "ym2612"
    },
    {
      "channel": 4,
      "note": 81,
      "start": 13.5578,
      "duration": 0.0824,
      "velocity": 119,
      "chip": "ym2612"
    },
    {
      "channel": 0,
      "note": 59,
      "start": 13.6735,
      "duration": 0.2035,
      "velocity": 111,
      "chip": "ym2612"
    },
    {
      "channel": 1,
      "note": 83,
      "start": 13.6744,
      "duration": 0.2028,
      "velocity": 99,
      "chip": "ym2612"
    },
    {
      "channel": 2,
      "note": 59,
      "start": 13.6753,
      "duration": 0.2021,
      "velocity": 108,
      "chip": "ym2612"
    },
    {
      "channel": 4,
      "note": 81,
      "start": 13.6772,
      "duration": 0.0261,
      "velocity": 127,
      "chip": "ym2612"
    },
    {
      "channel": 3,
      "note": 83,
      "start": 13.7077,
      "duration": 0.2306,
      "velocity": 99,
      "chip": "ym2612"
    },
    {
      "channel": 4,
      "note": 81,
      "start": 13.7083,
      "duration": 0.1695,
      "velocity": 127,
      "chip": "ym2612"
    },
    {
      "channel": 0,
      "note": 58,
      "start": 13.9109,
      "duration": 0.1874,
      "velocity": 111,
      "chip": "ym2612"
    },
    {
      "channel": 1,
      "note": 82,
      "start": 13.9115,
      "duration": 0.1871,
      "velocity": 99,
      "chip": "ym2612"
    },
    {
      "channel": 2,
      "note": 58,
      "start": 13.9121,
      "duration": 0.1866,
      "velocity": 108,
      "chip": "ym2612"
    },
    {
      "channel": 4,
      "note": 81,
      "start": 13.9129,
      "duration": 0.0258,
      "velocity": 127,
      "chip": "ym2612"
    },
    {
      "channel": 3,
      "note": 82,
      "start": 13.9453,
      "duration": 0.2293,
      "velocity": 99,
      "chip": "ym2612"
    },
    {
      "channel": 4,
      "note": 81,
      "start": 13.9459,
      "duration": 0.1533,
      "velocity": 127,
      "chip": "ym2612"
    },
    {
      "channel": 0,
      "note": 54,
      "start": 14.1491,
      "duration": 0.1444,
      "velocity": 111,
      "chip": "ym2612"
    },
    {
      "channel": 1,
      "note": 78,
      "start": 14.1498,
      "duration": 0.144,
      "velocity": 99,
      "chip": "ym2612"
    },
    {
      "channel": 2,
      "note": 54,
      "start": 14.1504,
      "duration": 0.1436,
      "velocity": 108,
      "chip": "ym2612"
    },
    {
      "channel": 4,
      "note": 81,
      "start": 14.1512,
      "duration": 0.0237,
      "velocity": 127,
      "chip": "ym2612"
    },
    {
      "channel": 3,
      "note": 78,
      "start": 14.1795,
      "duration": 0.175,
      "velocity": 99,
      "chip": "ym2612"
    },
    {
      "channel": 4,
      "note": 81,
      "start": 14.1801,
      "duration": 0.1143,
      "velocity": 127,
      "chip": "ym2612"
    },
    {
      "channel": 0,
      "note": 52,
      "start": 14.3275,
      "duration": 0.1154,
      "velocity": 111,
      "chip": "ym2612"
    },
    {
      "channel": 1,
      "note": 76,
      "start": 14.328,
      "duration": 0.1151,
      "velocity": 99,
      "chip": "ym2612"
    },
    {
      "channel": 2,
      "note": 52,
      "start": 14.3286,
      "duration": 0.1147,
      "velocity": 108,
      "chip": "ym2612"
    },
    {
      "channel": 4,
      "note": 81,
      "start": 14.3298,
      "duration": 0.025,
      "velocity": 127,
      "chip": "ym2612"
    },
    {
      "channel": 3,
      "note": 76,
      "start": 14.3611,
      "duration": 0.0826,
      "velocity": 99,
      "chip": "ym2612"
    },
    {
      "channel": 4,
      "note": 81,
      "start": 14.3616,
      "duration": 0.0103,
      "velocity": 127,
      "chip": "ym2612"
    },
    {
      "channel": 4,
      "note": 81,
      "start": 14.3774,
      "duration": 0.0664,
      "velocity": 119,
      "chip": "ym2612"
    },
    {
      "channel": 0,
      "note": 49,
      "start": 14.4936,
      "duration": 0.2491,
      "velocity": 111,
      "chip": "ym2612"
    },
    {
      "channel": 1,
      "note": 73,
      "start": 14.4943,
      "duration": 0.258,
      "velocity": 99,
      "chip": "ym2612"
    },
    {
      "channel": 2,
      "note": 49,
      "start": 14.4953,
      "duration": 0.33,
      "velocity": 87,
      "chip": "ym2612"
    },
    {
      "channel": 3,
      "note": 97,
      "start": 14.4973,
      "duration": 0.1446,
      "velocity": 111,
      "chip": "ym2612"
    },
    {
      "channel": 4,
      "note": 81,
      "start": 14.499,
      "duration": 0.0239,
      "velocity": 127,
      "chip": "ym2612"
    },
    {
      "channel": 4,
      "note": 81,
      "start": 14.5273,
      "duration": 0.0254,
      "velocity": 127,
      "chip": "ym2612"
    },
    {
      "channel": 4,
      "note": 81,
      "start": 14.5571,
      "duration": 0.026,
      "velocity": 127,
      "chip": "ym2612"
    },
    {
      "channel": 4,
      "note": 81,
      "start": 14.5901,
      "duration": 0.027,
      "velocity": 127,
      "chip": "ym2612"
    },
    {
      "channel": 4,
      "note": 81,
      "start": 14.6251,
      "duration": 0.0315,
      "velocity": 127,
      "chip": "ym2612"
    },
    {
      "channel": 3,
      "note": 97,
      "start": 14.6419,
      "duration": 0.1356,
      "velocity": 111,
      "chip": "ym2612"
    },
    {
      "channel": 4,
      "note": 81,
      "start": 14.6644,
      "duration": 0.0393,
      "velocity": 127,
      "chip": "ym2612"
    },
    {
      "channel": 4,
      "note": 81,
      "start": 14.7104,
      "duration": 0.0432,
      "velocity": 127,
      "chip": "ym2612"
    },
    {
      "channel": 0,
      "note": 85,
      "start": 14.7751,
      "duration": 0.0343,
      "velocity": 99,
      "chip": "ym2612"
    },
    {
      "channel": 1,
      "note": 85,
      "start": 14.777,
      "duration": 0.0154,
      "velocity": 101,
      "chip": "ym2612"
    },
    {
      "channel": 4,
      "note": 81,
      "start": 14.7792,
      "duration": 0.0309,
      "velocity": 119,
      "chip": "ym2612"
    },
    {
      "channel": 0,
      "note": 49,
      "start": 14.8192,
      "duration": 0.0555,
      "velocity": 111,
      "chip": "ym2612"
    },
    {
      "channel": 1,
      "note": 83,
      "start": 14.8216,
      "duration": 0.0197,
      "velocity": 103,
      "chip": "ym2612"
    },
    {
      "channel": 2,
      "note": 61,
      "start": 14.8252,
      "duration": 0.0163,
      "velocity": 87,
      "chip": "ym2612"
    },
    {
      "channel": 4,
      "note": 81,
      "start": 14.8292,
      "duration": 0.0127,
      "velocity": 127,
      "chip": "ym2612"
    },
    {
      "channel": 1,
      "note": 85,
      "start": 14.8461,
      "duration": 0.0118,
      "velocity": 103,
      "chip": "ym2612"
    },
    {
      "channel": 2,
      "note": 68,
      "start": 14.8468,
      "duration": 0.0113,
      "velocity": 87,
      "chip": "ym2612"
    },
    {
      "channel": 4,
      "note": 81,
      "start": 14.8475,
      "duration": 0.011,
      "velocity": 127,
      "chip": "ym2612"
    },
    {
      "channel": 1,
      "note": 85,
      "start": 14.8648,
      "duration": 0.01,
      "velocity": 103,
      "chip": "ym2612"
    },
    {
      "channel": 2,
      "note": 73,
      "start": 14.8656,
      "duration": 0.0095,
      "velocity": 87,
      "chip": "ym2612"
    },
    {
      "channel": 3,
      "note": 83,
      "start": 14.8667,
      "duration": 0.0086,
      "velocity": 103,
      "chip": "ym2612"
    },
    {
      "channel": 4,
      "note": 81,
      "start": 14.8684,
      "duration": 0.0072,
      "velocity": 119,
      "chip": "ym2612"
    },
    {
      "channel": 0,
      "note": 61,
      "start": 14.9246,
      "duration": 0.0834,
      "velocity": 111,
      "chip": "ym2612"
    },
    {
      "channel": 1,
      "note": 85,
      "start": 14.9254,
      "duration": 0.0827,
      "velocity": 103,
      "chip": "ym2612"
    },
    {
      "channel": 2,
      "note": 61,
      "start": 14.9262,
      "duration": 0.0822,
      "velocity": 87,
      "chip": "ym2612"
    },
    {
      "channel": 3,
      "note": 85,
      "start": 14.9268,
      "duration": 0.0817,
      "velocity": 103,
      "chip": "ym2612"
    },
    {
      "channel": 4,
      "note": 81,
      "start": 14.9285,
      "duration": 0.0803,
      "velocity": 127,
      "chip": "ym2612"
    }
  ]
}