{
  "track_name": "19 - Theme of Golden Silver",
  "duration_sec": 64.951,
  "sample_rate": 44100,
  "note_count": 626,
  "unique_pitches": 60,
  "pitch_range": 64,
  "avg_note_duration": 0.3991,
  "reconstruction_stats": {
    "notes_reconstructed": 626,
    "keyon_events": 626,
    "keyoff_events": 623,
    "orphan_keyons": 3,
    "unique_pitches": 60,
    "pitch_range": 64,
    "avg_duration_sec": 0.3991
  },
  "metadata": {
    "source": "G\\Gunstar Heroes\\19 - Theme of Golden Silver.vgz"
  },
  "notes": [
    {
      "channel": 0,
      "note": 49,
      "start": 0.0,
      "duration": 0.0,
      "velocity": 31,
      "chip": "ym2612"
    },
    {
      "channel": 1,
      "note": 61,
      "start": 0.0,
      "duration": 0.0,
      "velocity": 31,
      "chip": "ym2612"
    },
    {
      "channel": 2,
      "note": 61,
      "start": 0.0,
      "duration": 0.0,
      "velocity": 31,
      "chip": "ym2612"
    },
    {
      "channel": 3,
      "note": 49,
      "start": 0.0,
      "duration": 0.0,
      "velocity": 31,
      "chip": "ym2612"
    },
    {
      "channel": 4,
      "note": 61,
      "start": 0.0,
      "duration": 0.0,
      "velocity": 31,
      "chip": "ym2612"
    },
    {
      "channel": 0,
      "note": 41,
      "start": 0.0005,
      "duration": 0.2283,
      "velocity": 120,
      "chip": "ym2612"
    },
    {
      "channel": 1,
      "note": 53,
      "start": 0.0015,
      "duration": 0.2276,
      "velocity": 113,
      "chip": "ym2612"
    },
    {
      "channel": 2,
      "note": 53,
      "start": 0.0056,
      "duration": 0.2735,
      "velocity": 126,
      "chip": "ym2612"
    },
    {
      "channel": 3,
      "note": 87,
      "start": 0.0067,
      "duration": 0.1226,
      "velocity": 118,
      "chip": "ym2612"
    },
    {
      "channel": 4,
      "note": 53,
      "start": 0.0307,
      "duration": 0.2987,
      "velocity": 113,
      "chip": "ym2612"
    },
    {
      "channel": 3,
      "note": 89,
      "start": 0.1295,
      "duration": 0.1499,
      "velocity": 118,
      "chip": "ym2612"
    },
    {
      "channel": 0,
      "note": 40,
      "start": 0.229,
      "duration": 0.2998,
      "velocity": 120,
      "chip": "ym2612"
    },
    {
      "channel": 1,
      "note": 52,
      "start": 0.2293,
      "duration": 0.2996,
      "velocity": 113,
      "chip": "ym2612"
    },
    {
      "channel": 2,
      "note": 52,
      "start": 0.2793,
      "duration": 0.2995,
      "velocity": 126,
      "chip": "ym2612"
    },
    {
      "channel": 3,
      "note": 90,
      "start": 0.2797,
      "duration": 0.1495,
      "velocity": 118,
      "chip": "ym2612"
    },
    {
      "channel": 4,
      "note": 52,
      "start": 0.3298,
      "duration": 0.2993,
      "velocity": 113,
      "chip": "ym2612"
    },
    {
      "channel": 3,
      "note": 92,
      "start": 0.4295,
      "duration": 0.1495,
      "velocity": 118,
      "chip": "ym2612"
    },
    {
      "channel": 3,
      "note": 90,
      "start": 0.5793,
      "duration": 0.1496,
      "velocity": 118,
      "chip": "ym2612"
    },
    {
      "channel": 3,
      "note": 89,
      "start": 0.7292,
      "duration": 0.1499,
      "velocity": 118,
      "chip": "ym2612"
    },
    {
      "channel": 3,
      "note": 90,
      "start": 0.8793,
      "duration": 0.1496,
      "velocity": 118,
      "chip": "ym2612"
    },
    {
      "channel": 3,
      "note": 81,
      "start": 1.0292,
      "duration": 0.1021,
      "velocity": 118,
      "chip": "ym2612"
    },
    {
      "channel": 3,
      "note": 87,
      "start": 1.1315,
      "duration": 0.1255,
      "velocity": 118,
      "chip": "ym2612"
    },
    {
      "channel": 3,
      "note": 93,
      "start": 1.2573,
      "duration": 0.1499,
      "velocity": 118,
      "chip": "ym2612"
    },
    {
      "channel": 3,
      "note": 92,
      "start": 1.4075,
      "duration": 0.1496,
      "velocity": 118,
      "chip": "ym2612"
    },
    {
      "channel": 3,
      "note": 87,
      "start": 1.5573,
      "duration": 0.1499,
      "velocity": 118,
      "chip": "ym2612"
    },
    {
      "channel": 3,
      "note": 90,
      "start": 1.7075,
      "duration": 0.1495,
      "velocity": 118,
      "chip": "ym2612"
    },
    {
      "channel": 3,
      "note": 87,
      "start": 1.8573,
      "duration": 0.1497,
      "velocity": 118,
      "chip": "ym2612"
    },
    {
      "channel": 3,
      "note": 89,
      "start": 2.0073,
      "duration": 0.1497,
      "velocity": 118,
      "chip": "ym2612"
    },
    {
      "channel": 3,
      "note": 92,
      "start": 2.1573,
      "duration": 0.1032,
      "velocity": 118,
      "chip": "ym2612"
    },
    {
      "channel": 3,
      "note": 90,
      "start": 2.2609,
      "duration": 0.0099,
      "velocity": 118,
      "chip": "ym2612"
    },
    {
      "channel": 3,
      "note": 93,
      "start": 2.2712,
      "duration": 0.0103,
      "velocity": 118,
      "chip": "ym2612"
    },
    {
      "channel": 3,
      "note": 92,
      "start": 2.2816,
      "duration": 0.0102,
      "velocity": 118,
      "chip": "ym2612"
    },
    {
      "channel": 3,
      "note": 87,
      "start": 2.2919,
      "duration": 0.0088,
      "velocity": 118,
      "chip": "ym2612"
    },
    {
      "channel": 3,
      "note": 90,
      "start": 2.301,
      "duration": 0.1255,
      "velocity": 118,
      "chip": "ym2612"
    },
    {
      "channel": 3,
      "note": 89,
      "start": 2.4269,
      "duration": 0.1497,
      "velocity": 118,
      "chip": "ym2612"
    },
    {
      "channel": 3,
      "note": 86,
      "start": 2.5769,
      "duration": 0.1497,
      "velocity": 118,
      "chip": "ym2612"
    },
    {
      "channel": 3,
      "note": 80,
      "start": 2.7269,
      "duration": 0.1035,
      "velocity": 118,
      "chip": "ym2612"
    },
    {
      "channel": 0,
      "note": 41,
      "start": 2.8268,
      "duration": 0.0121,
      "velocity": 120,
      "chip": "ym2612"
    },
    {
      "channel": 1,
      "note": 53,
      "start": 2.827,
      "duration": 0.0122,
      "velocity": 113,
      "chip": "ym2612"
    },
    {
      "channel": 2,
      "note": 53,
      "start": 2.8303,
      "duration": 0.0129,
      "velocity": 126,
      "chip": "ym2612"
    },
    {
      "channel": 3,
      "note": 87,
      "start": 2.8305,
      "duration": 0.013,
      "velocity": 118,
      "chip": "ym2612"
    },
    {
      "channel": 4,
      "note": 53,
      "start": 2.8347,
      "duration": 0.0131,
      "velocity": 113,
      "chip": "ym2612"
    },
    {
      "channel": 0,
      "note": 41,
      "start": 2.8392,
      "duration": 0.0122,
      "velocity": 120,
      "chip": "ym2612"
    },
    {
      "channel": 1,
      "note": 53,
      "start": 2.8394,
      "duration": 0.0125,
      "velocity": 113,
      "chip": "ym2612"
    },
    {
      "channel": 2,
      "note": 53,
      "start": 2.8435,
      "duration": 0.0127,
      "velocity": 126,
      "chip": "ym2612"
    },
    {
      "channel": 3,
      "note": 89,
      "start": 2.8437,
      "duration": 0.0127,
      "velocity": 118,
      "chip": "ym2612"
    },
    {
      "channel": 4,
      "note": 53,
      "start": 2.848,
      "duration": 0.0127,
      "velocity": 113,
      "chip": "ym2612"
    },
    {
      "channel": 0,
      "note": 40,
      "start": 2.8518,
      "duration": 0.071,
      "velocity": 120,
      "chip": "ym2612"
    },
    {
      "channel": 1,
      "note": 52,
      "start": 2.852,
      "duration": 0.0709,
      "velocity": 113,
      "chip": "ym2612"
    },
    {
      "channel": 2,
      "note": 52,
      "start": 2.8563,
      "duration": 0.1165,
      "velocity": 126,
      "chip": "ym2612"
    },
    {
      "channel": 3,
      "note": 90,
      "start": 2.8566,
      "duration": 0.0119,
      "velocity": 118,
      "chip": "ym2612"
    },
    {
      "channel": 4,
      "note": 52,
      "start": 2.8608,
      "duration": 0.1623,
      "velocity": 113,
      "chip": "ym2612"
    },
    {
      "channel": 3,
      "note": 93,
      "start": 2.8688,
      "duration": 0.1042,
      "velocity": 118,
      "chip": "ym2612"
    },
    {
      "channel": 3,
      "note": 92,
      "start": 2.9732,
      "duration": 0.1496,
      "velocity": 118,
      "chip": "ym2612"
    },
    {
      "channel": 3,
      "note": 87,
      "start": 3.1231,
      "duration": 0.1499,
      "velocity": 118,
      "chip": "ym2612"
    },
    {
      "channel": 3,
      "note": 90,
      "start": 3.2732,
      "duration": 0.1496,
      "velocity": 118,
      "chip": "ym2612"
    },
    {
      "channel": 3,
      "note": 89,
      "start": 3.4231,
      "duration": 0.1019,
      "velocity": 118,
      "chip": "ym2612"
    },
    {
      "channel": 3,
      "note": 84,
      "start": 3.5254,
      "duration": 0.1255,
      "velocity": 118,
      "chip": "ym2612"
    },
    {
      "channel": 3,
      "note": 95,
      "start": 3.6512,
      "duration": 0.1499,
      "velocity": 118,
      "chip": "ym2612"
    },
    {
      "channel": 3,
      "note": 94,
      "start": 3.8013,
      "duration": 0.1496,
      "velocity": 118,
      "chip": "ym2612"
    },
    {
      "channel": 3,
      "note": 89,
      "start": 3.9512,
      "duration": 0.1503,
      "velocity": 118,
      "chip": "ym2612"
    },
    {
      "channel": 0,
      "note": 49,
      "start": 4.0511,
      "duration": 0.8996,
      "velocity": 120,
      "chip": "ym2612"
    },
    {
      "channel": 1,
      "note": 61,
      "start": 4.0515,
      "duration": 0.8997,
      "velocity": 113,
      "chip": "ym2612"
    },
    {
      "channel": 2,
      "note": 61,
      "start": 4.1015,
      "duration": 0.8997,
      "velocity": 126,
      "chip": "ym2612"
    },
    {
      "channel": 3,
      "note": 92,
      "start": 4.1018,
      "duration": 0.1494,
      "velocity": 118,
      "chip": "ym2612"
    },
    {
      "channel": 4,
      "note": 61,
      "start": 4.1519,
      "duration": 0.8996,
      "velocity": 113,
      "chip": "ym2612"
    },
    {
      "channel": 3,
      "note": 87,
      "start": 4.2516,
      "duration": 0.1497,
      "velocity": 118,
      "chip": "ym2612"
    },
    {
      "channel": 3,
      "note": 86,
      "start": 4.4016,
      "duration": 0.1497,
      "velocity": 118,
      "chip": "ym2612"
    },
    {
      "channel": 3,
      "note": 90,
      "start": 4.5516,
      "duration": 0.1497,
      "velocity": 118,
      "chip": "ym2612"
    },
    {
      "channel": 3,
      "note": 89,
      "start": 4.7016,
      "duration": 0.1497,
      "velocity": 118,
      "chip": "ym2612"
    },
    {
      "channel": 3,
      "note": 86,
      "start": 4.8516,
      "duration": 0.1499,
      "velocity": 118,
      "chip": "ym2612"
    },
    {
      "channel": 0,
      "note": 47,
      "start": 4.9511,
      "duration": 0.2998,
      "velocity": 120,
      "chip": "ym2612"
    },
    {
      "channel": 1,
      "note": 59,
      "start": 4.9514,
      "duration": 0.2998,
      "velocity": 113,
      "chip": "ym2612"
    },
    {
      "channel": 2,
      "note": 59,
      "start": 5.0015,
      "duration": 0.2541,
      "velocity": 126,
      "chip": "ym2612"
    },
    {
      "channel": 3,
      "note": 89,
      "start": 5.0018,
      "duration": 0.1494,
      "velocity": 118,
      "chip": "ym2612"
    },
    {
      "channel": 4,
      "note": 59,
      "start": 5.0519,
      "duration": 0.2293,
      "velocity": 113,
      "chip": "ym2612"
    },
    {
      "channel": 3,
      "note": 78,
      "start": 5.1516,
      "duration": 0.1042,
      "velocity": 118,
      "chip": "ym2612"
    },
    {
      "channel": 0,
      "note": 39,
      "start": 5.2511,
      "duration": 0.2293,
      "velocity": 120,
      "chip": "ym2612"
    },
    {
      "channel": 1,
      "note": 51,
      "start": 5.2513,
      "duration": 0.2295,
      "velocity": 113,
      "chip": "ym2612"
    },
    {
      "channel": 2,
      "note": 51,
      "start": 5.2557,
      "duration": 0.2751,
      "velocity": 126,
      "chip": "ym2612"
    },
    {
      "channel": 3,
      "note": 77,
      "start": 5.256,
      "duration": 0.1249,
      "velocity": 118,
      "chip": "ym2612"
    },
    {
      "channel": 4,
      "note": 51,
      "start": 5.2815,
      "duration": 0.2997,
      "velocity": 113,
      "chip": "ym2612"
    },
    {
      "channel": 3,
      "note": 87,
      "start": 5.3812,
      "duration": 0.1499,
      "velocity": 118,
      "chip": "ym2612"
    },
    {
      "channel": 0,
      "note": 45,
      "start": 5.4807,
      "duration": 0.2998,
      "velocity": 120,
      "chip": "ym2612"
    },
    {
      "channel": 1,
      "note": 57,
      "start": 5.481,
      "duration": 0.2998,
      "velocity": 113,
      "chip": "ym2612"
    },
    {
      "channel": 2,
      "note": 57,
      "start": 5.531,
      "duration": 0.2998,
      "velocity": 126,
      "chip": "ym2612"
    },
    {
      "channel": 3,
      "note": 86,
      "start": 5.5314,
      "duration": 0.1495,
      "velocity": 118,
      "chip": "ym2612"
    },
    {
      "channel": 4,
      "note": 57,
      "start": 5.5815,
      "duration": 0.2997,
      "velocity": 113,
      "chip": "ym2612"
    },
    {
      "channel": 3,
      "note": 89,
      "start": 5.6812,
      "duration": 0.1499,
      "velocity": 118,
      "chip": "ym2612"
    },
    {
      "channel": 0,
      "note": 37,
      "start": 5.7807,
      "duration": 0.2998,
      "velocity": 120,
      "chip": "ym2612"
    },
    {
      "channel": 1,
      "note": 49,
      "start": 5.781,
      "duration": 0.2998,
      "velocity": 113,
      "chip": "ym2612"
    },
    {
      "channel": 2,
      "note": 49,
      "start": 5.831,
      "duration": 0.2543,
      "velocity": 126,
      "chip": "ym2612"
    },
    {
      "channel": 3,
      "note": 87,
      "start": 5.8315,
      "duration": 0.1494,
      "velocity": 118,
      "chip": "ym2612"
    },
    {
      "channel": 4,
      "note": 49,
      "start": 5.8815,
      "duration": 0.2083,
      "velocity": 113,
      "chip": "ym2612"
    },
    {
      "channel": 3,
      "note": 89,
      "start": 5.9812,
      "duration": 0.1043,
      "velocity": 118,
      "chip": "ym2612"
    },
    {
      "channel": 0,
      "note": 35,
      "start": 6.0807,
      "duration": 0.0248,
      "velocity": 120,
      "chip": "ym2612"
    },
    {
      "channel": 1,
      "note": 47,
      "start": 6.081,
      "duration": 0.0248,
      "velocity": 113,
      "chip": "ym2612"
    },
    {
      "channel": 2,
      "note": 47,
      "start": 6.0855,
      "duration": 0.0246,
      "velocity": 126,
      "chip": "ym2612"
    },
    {
      "channel": 3,
      "note": 90,
      "start": 6.0858,
      "duration": 0.0122,
      "velocity": 118,
      "chip": "ym2612"
    },
    {
      "channel": 4,
      "note": 47,
      "start": 6.09,
      "duration": 0.0244,
      "velocity": 113,
      "chip": "ym2612"
    },
    {
      "channel": 3,
      "note": 92,
      "start": 6.0981,
      "duration": 0.0122,
      "velocity": 118,
      "chip": "ym2612"
    },
    {
      "channel": 3,
      "note": 90,
      "start": 6.1106,
      "duration": 0.0134,
      "velocity": 118,
      "chip": "ym2612"
    },
    {
      "channel": 3,
      "note": 89,
      "start": 6.1243,
      "duration": 0.0092,
      "velocity": 118,
      "chip": "ym2612"
    },
    {
      "channel": 3,
      "note": 90,
      "start": 6.1337,
      "duration": 0.1251,
      "velocity": 118,
      "chip": "ym2612"
    },
    {
      "channel": 3,
      "note": 81,
      "start": 6.2591,
      "duration": 0.1021,
      "velocity": 118,
      "chip": "ym2612"
    },
    {
      "channel": 3,
      "note": 87,
      "start": 6.3615,
      "duration": 0.1255,
      "velocity": 118,
      "chip": "ym2612"
    },
    {
      "channel": 3,
      "note": 93,
      "start": 6.4873,
      "duration": 0.1499,
      "velocity": 118,
      "chip": "ym2612"
    },
    {
      "channel": 3,
      "note": 92,
      "start": 6.6374,
      "duration": 0.1496,
      "velocity": 118,
      "chip": "ym2612"
    },
    {
      "channel": 3,
      "note": 87,
      "start": 6.7873,
      "duration": 0.1503,
      "velocity": 118,
      "chip": "ym2612"
    },
    {
      "channel": 0,
      "note": 41,
      "start": 6.8872,
      "duration": 0.1496,
      "velocity": 120,
      "chip": "ym2612"
    },
    {
      "channel": 1,
      "note": 53,
      "start": 6.8876,
      "duration": 0.1497,
      "velocity": 113,
      "chip": "ym2612"
    },
    {
      "channel": 2,
      "note": 53,
      "start": 6.9376,
      "duration": 0.1497,
      "velocity": 126,
      "chip": "ym2612"
    },
    {
      "channel": 3,
      "note": 90,
      "start": 6.9379,
      "duration": 0.1496,
      "velocity": 118,
      "chip": "ym2612"
    },
    {
      "channel": 4,
      "note": 53,
      "start": 6.988,
      "duration": 0.1496,
      "velocity": 113,
      "chip": "ym2612"
    },
    {
      "channel": 0,
      "note": 41,
      "start": 7.0372,
      "duration": 0.1497,
      "velocity": 120,
      "chip": "ym2612"
    },
    {
      "channel": 1,
      "note": 53,
      "start": 7.0375,
      "duration": 0.1498,
      "velocity": 113,
      "chip": "ym2612"
    },
    {
      "channel": 2,
      "note": 53,
      "start": 7.0875,
      "duration": 0.1498,
      "velocity": 126,
      "chip": "ym2612"
    },
    {
      "channel": 3,
      "note": 87,
      "start": 7.0879,
      "duration": 0.1498,
      "velocity": 118,
      "chip": "ym2612"
    },
    {
      "channel": 4,
      "note": 53,
      "start": 7.1379,
      "duration": 0.1497,
      "velocity": 113,
      "chip": "ym2612"
    },
    {
      "channel": 0,
      "note": 40,
      "start": 7.1872,
      "duration": 0.2997,
      "velocity": 120,
      "chip": "ym2612"
    },
    {
      "channel": 1,
      "note": 52,
      "start": 7.1875,
      "duration": 0.2996,
      "velocity": 113,
      "chip": "ym2612"
    },
    {
      "channel": 2,
      "note": 52,
      "start": 7.2376,
      "duration": 0.2994,
      "velocity": 126,
      "chip": "ym2612"
    },
    {
      "channel": 3,
      "note": 89,
      "start": 7.2379,
      "duration": 0.1494,
      "velocity": 118,
      "chip": "ym2612"
    },
    {
      "channel": 4,
      "note": 52,
      "start": 7.288,
      "duration": 0.2992,
      "velocity": 113,
      "chip": "ym2612"
    },
    {
      "channel": 3,
      "note": 92,
      "start": 7.3877,
      "duration": 0.1495,
      "velocity": 118,
      "chip": "ym2612"
    },
    {
      "channel": 3,
      "note": 90,
      "start": 7.5374,
      "duration": 0.1496,
      "velocity": 118,
      "chip": "ym2612"
    },
    {
      "channel": 3,
      "note": 93,
      "start": 7.6873,
      "duration": 0.1499,
      "velocity": 118,
      "chip": "ym2612"
    },
    {
      "channel": 3,
      "note": 92,
      "start": 7.8374,
      "duration": 0.1496,
      "velocity": 118,
      "chip": "ym2612"
    },
    {
      "channel": 3,
      "note": 87,
      "start": 7.9873,
      "duration": 0.1022,
      "velocity": 118,
      "chip": "ym2612"
    },
    {
      "channel": 3,
      "note": 90,
      "start": 8.0898,
      "duration": 0.1255,
      "velocity": 118,
      "chip": "ym2612"
    },
    {
      "channel": 3,
      "note": 89,
      "start": 8.2156,
      "duration": 0.1499,
      "velocity": 118,
      "chip": "ym2612"
    },
    {
      "channel": 3,
      "note": 86,
      "start": 8.3657,
      "duration": 0.1496,
      "velocity": 118,
      "chip": "ym2612"
    },
    {
      "channel": 3,
      "note": 80,
      "start": 8.5156,
      "duration": 0.1499,
      "velocity": 118,
      "chip": "ym2612"
    },
    {
      "channel": 3,
      "note": 87,
      "start": 8.6658,
      "duration": 0.1495,
      "velocity": 118,
      "chip": "ym2612"
    },
    {
      "channel": 3,
      "note": 89,
      "start": 8.8156,
      "duration": 0.1021,
      "velocity": 118,
      "chip": "ym2612"
    },
    {
      "channel": 3,
      "note": 90,
      "start": 8.9179,
      "duration": 0.1255,
      "velocity": 118,
      "chip": "ym2612"
    },
    {
      "channel": 3,
      "note": 93,
      "start": 9.0438,
      "duration": 0.1021,
      "velocity": 118,
      "chip": "ym2612"
    },
    {
      "channel": 3,
      "note": 92,
      "start": 9.1461,
      "duration": 0.0074,
      "velocity": 118,
      "chip": "ym2612"
    },
    {
      "channel": 3,
      "note": 87,
      "start": 9.1537,
      "duration": 0.1084,
      "velocity": 118,
      "chip": "ym2612"
    },
    {
      "channel": 3,
      "note": 90,
      "start": 9.2625,
      "duration": 0.1497,
      "velocity": 118,
      "chip": "ym2612"
    },
    {
      "channel": 3,
      "note": 89,
      "start": 9.4125,
      "duration": 0.1502,
      "velocity": 118,
      "chip": "ym2612"
    },
    {
      "channel": 0,
      "note": 41,
      "start": 9.5123,
      "duration": 0.2997,
      "velocity": 120,
      "chip": "ym2612"
    },
    {
      "channel": 1,
      "note": 53,
      "start": 9.5126,
      "duration": 0.2998,
      "velocity": 113,
      "chip": "ym2612"
    },
    {
      "channel": 2,
      "note": 53,
      "start": 9.5627,
      "duration": 0.2997,
      "velocity": 126,
      "chip": "ym2612"
    },
    {
      "channel": 3,
      "note": 84,
      "start": 9.563,
      "duration": 0.1494,
      "velocity": 118,
      "chip": "ym2612"
    },
    {
      "channel": 4,
      "note": 53,
      "start": 9.6131,
      "duration": 0.2996,
      "velocity": 113,
      "chip": "ym2612"
    },
    {
      "channel": 3,
      "note": 95,
      "start": 9.7128,
      "duration": 0.1499,
      "velocity": 118,
      "chip": "ym2612"
    },
    {
      "channel": 0,
      "note": 40,
      "start": 9.8123,
      "duration": 0.2998,
      "velocity": 120,
      "chip": "ym2612"
    },
    {
      "channel": 1,
      "note": 52,
      "start": 9.8126,
      "duration": 0.2996,
      "velocity": 113,
      "chip": "ym2612"
    },
    {
      "channel": 2,
      "note": 52,
      "start": 9.8626,
      "duration": 0.2995,
      "velocity": 126,
      "chip": "ym2612"
    },
    {
      "channel": 3,
      "note": 94,
      "start": 9.863,
      "duration": 0.1495,
      "velocity": 118,
      "chip": "ym2612"
    },
    {
      "channel": 4,
      "note": 52,
      "start": 9.913,
      "duration": 0.2993,
      "velocity": 113,
      "chip": "ym2612"
    },
    {
      "channel": 3,
      "note": 89,
      "start": 10.0128,
      "duration": 0.1495,
      "velocity": 118,
      "chip": "ym2612"
    },
    {
      "channel": 3,
      "note": 92,
      "start": 10.1626,
      "duration": 0.1495,
      "velocity": 118,
      "chip": "ym2612"
    },
    {
      "channel": 3,
      "note": 87,
      "start": 10.3124,
      "duration": 0.1021,
      "velocity": 118,
      "chip": "ym2612"
    },
    {
      "channel": 3,
      "note": 86,
      "start": 10.4148,
      "duration": 0.1255,
      "velocity": 118,
      "chip": "ym2612"
    },
    {
      "channel": 3,
      "note": 90,
      "start": 10.5406,
      "duration": 0.1497,
      "velocity": 118,
      "chip": "ym2612"
    },
    {
      "channel": 3,
      "note": 89,
      "start": 10.6906,
      "duration": 0.1498,
      "velocity": 118,
      "chip": "ym2612"
    },
    {
      "channel": 3,
      "note": 86,
      "start": 10.8407,
      "duration": 0.1497,
      "velocity": 118,
      "chip": "ym2612"
    },
    {
      "channel": 3,
      "note": 89,
      "start": 10.9907,
      "duration": 0.1497,
      "velocity": 118,
      "chip": "ym2612"
    },
    {
      "channel": 3,
      "note": 78,
      "start": 11.1407,
      "duration": 0.1022,
      "velocity": 118,
      "chip": "ym2612"
    },
    {
      "channel": 3,
      "note": 77,
      "start": 11.2431,
      "duration": 0.0073,
      "velocity": 118,
      "chip": "ym2612"
    },
    {
      "channel": 3,
      "note": 87,
      "start": 11.2505,
      "duration": 0.0102,
      "velocity": 118,
      "chip": "ym2612"
    },
    {
      "channel": 3,
      "note": 86,
      "start": 11.261,
      "duration": 0.032,
      "velocity": 118,
      "chip": "ym2612"
    },
    {
      "channel": 3,
      "note": 89,
      "start": 11.2932,
      "duration": 0.0066,
      "velocity": 118,
      "chip": "ym2612"
    },
    {
      "channel": 3,
      "note": 87,
      "start": 11.3001,
      "duration": 0.0605,
      "velocity": 118,
      "chip": "ym2612"
    },
    {
      "channel": 3,
      "note": 89,
      "start": 11.361,
      "duration": 0.1502,
      "velocity": 118,
      "chip": "ym2612"
    },
    {
      "channel": 0,
      "note": 49,
      "start": 11.4608,
      "duration": 0.2997,
      "velocity": 120,
      "chip": "ym2612"
    },
    {
      "channel": 1,
      "note": 61,
      "start": 11.4611,
      "duration": 0.2998,
      "velocity": 113,
      "chip": "ym2612"
    },
    {
      "channel": 2,
      "note": 61,
      "start": 11.5111,
      "duration": 0.2998,
      "velocity": 126,
      "chip": "ym2612"
    },
    {
      "channel": 3,
      "note": 90,
      "start": 11.5115,
      "duration": 0.1495,
      "velocity": 118,
      "chip": "ym2612"
    },
    {
      "channel": 4,
      "note": 61,
      "start": 11.5616,
      "duration": 0.2997,
      "velocity": 113,
      "chip": "ym2612"
    },
    {
      "channel": 3,
      "note": 92,
      "start": 11.6613,
      "duration": 0.1499,
      "velocity": 118,
      "chip": "ym2612"
    },
    {
      "channel": 0,
      "note": 47,
      "start": 11.7608,
      "duration": 0.2997,
      "velocity": 120,
      "chip": "ym2612"
    },
    {
      "channel": 1,
      "note": 59,
      "start": 11.7611,
      "duration": 0.2998,
      "velocity": 113,
      "chip": "ym2612"
    },
    {
      "channel": 2,
      "note": 59,
      "start": 11.8111,
      "duration": 0.2998,
      "velocity": 126,
      "chip": "ym2612"
    },
    {
      "channel": 3,
      "note": 90,
      "start": 11.8115,
      "duration": 0.1495,
      "velocity": 118,
      "chip": "ym2612"
    },
    {
      "channel": 4,
      "note": 59,
      "start": 11.8616,
      "duration": 0.2997,
      "velocity": 113,
      "chip": "ym2612"
    },
    {
      "channel": 3,
      "note": 89,
      "start": 11.9613,
      "duration": 0.1499,
      "velocity": 118,
      "chip": "ym2612"
    },
    {
      "channel": 0,
      "note": 45,
      "start": 12.0608,
      "duration": 0.2998,
      "velocity": 120,
      "chip": "ym2612"
    },
    {
      "channel": 1,
      "note": 57,
      "start": 12.0611,
      "duration": 0.2998,
      "velocity": 113,
      "chip": "ym2612"
    },
    {
      "channel": 2,
      "note": 57,
      "start": 12.1111,
      "duration": 0.2542,
      "velocity": 126,
      "chip": "ym2612"
    },
    {
      "channel": 3,
      "note": 90,
      "start": 12.1115,
      "duration": 0.1495,
      "velocity": 118,
      "chip": "ym2612"
    },
    {
      "channel": 4,
      "note": 57,
      "start": 12.1616,
      "duration": 0.2292,
      "velocity": 113,
      "chip": "ym2612"
    },
    {
      "channel": 3,
      "note": 81,
      "start": 12.2613,
      "duration": 0.1044,
      "velocity": 118,
      "chip": "ym2612"
    },
    {
      "channel": 0,
      "note": 57,
      "start": 12.3608,
      "duration": 0.0883,
      "velocity": 120,
      "chip": "ym2612"
    },
    {
      "channel": 1,
      "note": 69,
      "start": 12.361,
      "duration": 0.0885,
      "velocity": 113,
      "chip": "ym2612"
    },
    {
      "channel": 2,
      "note": 69,
      "start": 12.3657,
      "duration": 0.0882,
      "velocity": 126,
      "chip": "ym2612"
    },
    {
      "channel": 3,
      "note": 87,
      "start": 12.3659,
      "duration": 0.0541,
      "velocity": 118,
      "chip": "ym2612"
    },
    {
      "channel": 4,
      "note": 69,
      "start": 12.391,
      "duration": 0.0883,
      "velocity": 113,
      "chip": "ym2612"
    },
    {
      "channel": 3,
      "note": 93,
      "start": 12.4202,
      "duration": 0.034,
      "velocity": 118,
      "chip": "ym2612"
    },
    {
      "channel": 0,
      "note": 41,
      "start": 12.4495,
      "duration": 0.0876,
      "velocity": 120,
      "chip": "ym2612"
    },
    {
      "channel": 1,
      "note": 53,
      "start": 12.4497,
      "duration": 0.0877,
      "velocity": 113,
      "chip": "ym2612"
    },
    {
      "channel": 2,
      "note": 53,
      "start": 12.4542,
      "duration": 0.1332,
      "velocity": 126,
      "chip": "ym2612"
    },
    {
      "channel": 3,
      "note": 92,
      "start": 12.4544,
      "duration": 0.0535,
      "velocity": 118,
      "chip": "ym2612"
    },
    {
      "channel": 4,
      "note": 53,
      "start": 12.4794,
      "duration": 0.1584,
      "velocity": 113,
      "chip": "ym2612"
    },
    {
      "channel": 3,
      "note": 87,
      "start": 12.5081,
      "duration": 0.0796,
      "velocity": 118,
      "chip": "ym2612"
    },
    {
      "channel": 0,
      "note": 49,
      "start": 12.5374,
      "duration": 0.2996,
      "velocity": 120,
      "chip": "ym2612"
    },
    {
      "channel": 1,
      "note": 61,
      "start": 12.5376,
      "duration": 0.2998,
      "velocity": 113,
      "chip": "ym2612"
    },
    {
      "channel": 2,
      "note": 61,
      "start": 12.5876,
      "duration": 0.2998,
      "velocity": 126,
      "chip": "ym2612"
    },
    {
      "channel": 3,
      "note": 90,
      "start": 12.588,
      "duration": 0.1495,
      "velocity": 118,
      "chip": "ym2612"
    },
    {
      "channel": 4,
      "note": 61,
      "start": 12.6381,
      "duration": 0.2997,
      "velocity": 113,
      "chip": "ym2612"
    },
    {
      "channel": 3,
      "note": 87,
      "start": 12.7378,
      "duration": 0.1499,
      "velocity": 118,
      "chip": "ym2612"
    },
    {
      "channel": 0,
      "note": 47,
      "start": 12.8373,
      "duration": 0.2997,
      "velocity": 120,
      "chip": "ym2612"
    },
    {
      "channel": 1,
      "note": 59,
      "start": 12.8376,
      "duration": 0.2996,
      "velocity": 113,
      "chip": "ym2612"
    },
    {
      "channel": 2,
      "note": 59,
      "start": 12.8876,
      "duration": 0.2995,
      "velocity": 126,
      "chip": "ym2612"
    },
    {
      "channel": 3,
      "note": 89,
      "start": 12.888,
      "duration": 0.1495,
      "velocity": 118,
      "chip": "ym2612"
    },
    {
      "channel": 4,
      "note": 59,
      "start": 12.9381,
      "duration": 0.2993,
      "velocity": 113,
      "chip": "ym2612"
    },
    {
      "channel": 3,
      "note": 92,
      "start": 13.0378,
      "duration": 0.1495,
      "velocity": 118,
      "chip": "ym2612"
    },
    {
      "channel": 3,
      "note": 90,
      "start": 13.1876,
      "duration": 0.1496,
      "velocity": 118,
      "chip": "ym2612"
    },
    {
      "channel": 3,
      "note": 93,
      "start": 13.3375,
      "duration": 0.1022,
      "velocity": 118,
      "chip": "ym2612"
    },
    {
      "channel": 3,
      "note": 92,
      "start": 13.44,
      "duration": 0.1255,
      "velocity": 118,
      "chip": "ym2612"
    },
    {
      "channel": 3,
      "note": 87,
      "start": 13.5658,
      "duration": 0.1033,
      "velocity": 118,
      "chip": "ym2612"
    },
    {
      "channel": 3,
      "note": 90,
      "start": 13.6693,
      "duration": 0.0102,
      "velocity": 118,
      "chip": "ym2612"
    },
    {
      "channel": 3,
      "note": 89,
      "start": 13.6799,
      "duration": 0.0085,
      "velocity": 118,
      "chip": "ym2612"
    },
    {
      "channel": 3,
      "note": 86,
      "start": 13.6885,
      "duration": 0.0137,
      "velocity": 118,
      "chip": "ym2612"
    },
    {
      "channel": 3,
      "note": 80,
      "start": 13.7025,
      "duration": 0.011,
      "velocity": 118,
      "chip": "ym2612"
    },
    {
      "channel": 0,
      "note": 42,
      "start": 14.0261,
      "duration": 0.2277,
      "velocity": 104,
      "chip": "ym2612"
    },
    {
      "channel": 1,
      "note": 66,
      "start": 14.0272,
      "duration": 2.2565,
      "velocity": 127,
      "chip": "ym2612"
    },
    {
      "channel": 2,
      "note": 69,
      "start": 14.0307,
      "duration": 2.3029,
      "velocity": 127,
      "chip": "ym2612"
    },
    {
      "channel": 3,
      "note": 66,
      "start": 14.0319,
      "duration": 2.3021,
      "velocity": 127,
      "chip": "ym2612"
    },
    {
      "channel": 4,
      "note": 54,
      "start": 14.0556,
      "duration": 0.2988,
      "velocity": 126,
      "chip": "ym2612"
    },
    {
      "channel": 0,
      "note": 41,
      "start": 14.2541,
      "duration": 0.2998,
      "velocity": 104,
      "chip": "ym2612"
    },
    {
      "channel": 4,
      "note": 53,
      "start": 14.3548,
      "duration": 0.2997,
      "velocity": 126,
      "chip": "ym2612"
    },
    {
      "channel": 0,
      "note": 40,
      "start": 14.5541,
      "duration": 0.2998,
      "velocity": 104,
      "chip": "ym2612"
    },
    {
      "channel": 4,
      "note": 52,
      "start": 14.6548,
      "duration": 0.2998,
      "velocity": 126,
      "chip": "ym2612"
    },
    {
      "channel": 0,
      "note": 42,
      "start": 14.8541,
      "duration": 0.2998,
      "velocity": 104,
      "chip": "ym2612"
    },
    {
      "channel": 4,
      "note": 54,
      "start": 14.9548,
      "duration": 0.2997,
      "velocity": 126,
      "chip": "ym2612"
    },
    {
      "channel": 0,
      "note": 38,
      "start": 15.1541,
      "duration": 0.2998,
      "velocity": 104,
      "chip": "ym2612"
    },
    {
      "channel": 4,
      "note": 50,
      "start": 15.2548,
      "duration": 0.2293,
      "velocity": 126,
      "chip": "ym2612"
    },
    {
      "channel": 0,
      "note": 42,
      "start": 15.4542,
      "duration": 0.2291,
      "velocity": 104,
      "chip": "ym2612"
    },
    {
      "channel": 4,
      "note": 54,
      "start": 15.4844,
      "duration": 0.2996,
      "velocity": 126,
      "chip": "ym2612"
    },
    {
      "channel": 0,
      "note": 41,
      "start": 15.6836,
      "duration": 0.2998,
      "velocity": 104,
      "chip": "ym2612"
    },
    {
      "channel": 4,
      "note": 53,
      "start": 15.7843,
      "duration": 0.2997,
      "velocity": 126,
      "chip": "ym2612"
    },
    {
      "channel": 0,
      "note": 40,
      "start": 15.9836,
      "duration": 0.2998,
      "velocity": 104,
      "chip": "ym2612"
    },
    {
      "channel": 4,
      "note": 52,
      "start": 16.0843,
      "duration": 0.2997,
      "velocity": 126,
      "chip": "ym2612"
    },
    {
      "channel": 0,
      "note": 42,
      "start": 16.2836,
      "duration": 0.2998,
      "velocity": 104,
      "chip": "ym2612"
    },
    {
      "channel": 1,
      "note": 74,
      "start": 16.2839,
      "duration": 0.5999,
      "velocity": 127,
      "chip": "ym2612"
    },
    {
      "channel": 2,
      "note": 81,
      "start": 16.3339,
      "duration": 0.554,
      "velocity": 127,
      "chip": "ym2612"
    },
    {
      "channel": 3,
      "note": 74,
      "start": 16.3343,
      "duration": 0.5539,
      "velocity": 127,
      "chip": "ym2612"
    },
    {
      "channel": 4,
      "note": 54,
      "start": 16.3843,
      "duration": 0.2996,
      "velocity": 126,
      "chip": "ym2612"
    },
    {
      "channel": 0,
      "note": 38,
      "start": 16.5836,
      "duration": 0.2998,
      "velocity": 104,
      "chip": "ym2612"
    },
    {
      "channel": 4,
      "note": 50,
      "start": 16.6843,
      "duration": 0.2295,
      "velocity": 126,
      "chip": "ym2612"
    },
    {
      "channel": 0,
      "note": 42,
      "start": 16.8837,
      "duration": 0.2293,
      "velocity": 104,
      "chip": "ym2612"
    },
    {
      "channel": 1,
      "note": 72,
      "start": 16.8839,
      "duration": 2.2593,
      "velocity": 127,
      "chip": "ym2612"
    },
    {
      "channel": 2,
      "note": 80,
      "start": 16.8881,
      "duration": 2.2596,
      "velocity": 127,
      "chip": "ym2612"
    },
    {
      "channel": 3,
      "note": 72,
      "start": 16.8884,
      "duration": 2.2596,
      "velocity": 127,
      "chip": "ym2612"
    },
    {
      "channel": 4,
      "note": 54,
      "start": 16.9141,
      "duration": 0.2995,
      "velocity": 126,
      "chip": "ym2612"
    },
    {
      "channel": 0,
      "note": 41,
      "start": 17.1133,
      "duration": 0.2998,
      "velocity": 104,
      "chip": "ym2612"
    },
    {
      "channel": 4,
      "note": 53,
      "start": 17.214,
      "duration": 0.2997,
      "velocity": 126,
      "chip": "ym2612"
    },
    {
      "channel": 0,
      "note": 40,
      "start": 17.4133,
      "duration": 0.2998,
      "velocity": 104,
      "chip": "ym2612"
    },
    {
      "channel": 4,
      "note": 52,
      "start": 17.514,
      "duration": 0.2998,
      "velocity": 126,
      "chip": "ym2612"
    },
    {
      "channel": 0,
      "note": 42,
      "start": 17.7133,
      "duration": 0.2998,
      "velocity": 104,
      "chip": "ym2612"
    },
    {
      "channel": 4,
      "note": 54,
      "start": 17.814,
      "duration": 0.2997,
      "velocity": 126,
      "chip": "ym2612"
    },
    {
      "channel": 0,
      "note": 38,
      "start": 18.0133,
      "duration": 0.2998,
      "velocity": 104,
      "chip": "ym2612"
    },
    {
      "channel": 4,
      "note": 50,
      "start": 18.114,
      "duration": 0.2295,
      "velocity": 126,
      "chip": "ym2612"
    },
    {
      "channel": 0,
      "note": 42,
      "start": 18.3134,
      "duration": 0.2294,
      "velocity": 104,
      "chip": "ym2612"
    },
    {
      "channel": 4,
      "note": 54,
      "start": 18.3439,
      "duration": 0.2996,
      "velocity": 126,
      "chip": "ym2612"
    },
    {
      "channel": 0,
      "note": 41,
      "start": 18.543,
      "duration": 0.2998,
      "velocity": 104,
      "chip": "ym2612"
    },
    {
      "channel": 4,
      "note": 53,
      "start": 18.6438,
      "duration": 0.2997,
      "velocity": 126,
      "chip": "ym2612"
    },
    {
      "channel": 0,
      "note": 40,
      "start": 18.843,
      "duration": 0.2998,
      "velocity": 104,
      "chip": "ym2612"
    },
    {
      "channel": 4,
      "note": 52,
      "start": 18.9438,
      "duration": 0.2086,
      "velocity": 126,
      "chip": "ym2612"
    },
    {
      "channel": 0,
      "note": 42,
      "start": 19.1431,
      "duration": 0.0253,
      "velocity": 104,
      "chip": "ym2612"
    },
    {
      "channel": 1,
      "note": 70,
      "start": 19.1433,
      "duration": 0.097,
      "velocity": 127,
      "chip": "ym2612"
    },
    {
      "channel": 2,
      "note": 76,
      "start": 19.148,
      "duration": 0.0966,
      "velocity": 127,
      "chip": "ym2612"
    },
    {
      "channel": 3,
      "note": 70,
      "start": 19.1482,
      "duration": 0.0967,
      "velocity": 127,
      "chip": "ym2612"
    },
    {
      "channel": 4,
      "note": 54,
      "start": 19.1526,
      "duration": 0.0244,
      "velocity": 126,
      "chip": "ym2612"
    },
    {
      "channel": 0,
      "note": 38,
      "start": 19.1688,
      "duration": 0.071,
      "velocity": 104,
      "chip": "ym2612"
    },
    {
      "channel": 4,
      "note": 50,
      "start": 19.1773,
      "duration": 0.093,
      "velocity": 126,
      "chip": "ym2612"
    },
    {
      "channel": 0,
      "note": 43,
      "start": 19.2402,
      "duration": 0.2293,
      "velocity": 104,
      "chip": "ym2612"
    },
    {
      "channel": 1,
      "note": 74,
      "start": 19.2405,
      "duration": 2.2589,
      "velocity": 127,
      "chip": "ym2612"
    },
    {
      "channel": 2,
      "note": 83,
      "start": 19.2449,
      "duration": 2.3045,
      "velocity": 127,
      "chip": "ym2612"
    },
    {
      "channel": 3,
      "note": 74,
      "start": 19.2451,
      "duration": 2.3047,
      "velocity": 127,
      "chip": "ym2612"
    },
    {
      "channel": 4,
      "note": 55,
      "start": 19.2707,
      "duration": 0.2995,
      "velocity": 126,
      "chip": "ym2612"
    },
    {
      "channel": 0,
      "note": 42,
      "start": 19.4698,
      "duration": 0.2998,
      "velocity": 104,
      "chip": "ym2612"
    },
    {
      "channel": 4,
      "note": 54,
      "start": 19.5705,
      "duration": 0.2997,
      "velocity": 126,
      "chip": "ym2612"
    },
    {
      "channel": 0,
      "note": 41,
      "start": 19.7698,
      "duration": 0.2998,
      "velocity": 104,
      "chip": "ym2612"
    },
    {
      "channel": 4,
      "note": 53,
      "start": 19.8705,
      "duration": 0.2998,
      "velocity": 126,
      "chip": "ym2612"
    },
    {
      "channel": 0,
      "note": 43,
      "start": 20.0698,
      "duration": 0.2998,
      "velocity": 104,
      "chip": "ym2612"
    },
    {
      "channel": 4,
      "note": 55,
      "start": 20.1706,
      "duration": 0.2997,
      "velocity": 126,
      "chip": "ym2612"
    },
    {
      "channel": 0,
      "note": 40,
      "start": 20.3698,
      "duration": 0.2998,
      "velocity": 104,
      "chip": "ym2612"
    },
    {
      "channel": 4,
      "note": 52,
      "start": 20.4706,
      "duration": 0.2293,
      "velocity": 126,
      "chip": "ym2612"
    },
    {
      "channel": 0,
      "note": 43,
      "start": 20.6699,
      "duration": 0.2291,
      "velocity": 104,
      "chip": "ym2612"
    },
    {
      "channel": 4,
      "note": 55,
      "start": 20.7002,
      "duration": 0.2996,
      "velocity": 126,
      "chip": "ym2612"
    },
    {
      "channel": 0,
      "note": 42,
      "start": 20.8993,
      "duration": 0.2998,
      "velocity": 104,
      "chip": "ym2612"
    },
    {
      "channel": 4,
      "note": 54,
      "start": 21.0001,
      "duration": 0.2997,
      "velocity": 126,
      "chip": "ym2612"
    },
    {
      "channel": 0,
      "note": 41,
      "start": 21.1993,
      "duration": 0.2998,
      "velocity": 104,
      "chip": "ym2612"
    },
    {
      "channel": 4,
      "note": 53,
      "start": 21.3001,
      "duration": 0.2997,
      "velocity": 126,
      "chip": "ym2612"
    },
    {
      "channel": 0,
      "note": 43,
      "start": 21.4993,
      "duration": 0.2998,
      "velocity": 104,
      "chip": "ym2612"
    },
    {
      "channel": 1,
      "note": 71,
      "start": 21.4996,
      "duration": 0.5999,
      "velocity": 127,
      "chip": "ym2612"
    },
    {
      "channel": 2,
      "note": 77,
      "start": 21.5497,
      "duration": 0.5541,
      "velocity": 127,
      "chip": "ym2612"
    },
    {
      "channel": 3,
      "note": 71,
      "start": 21.5501,
      "duration": 0.5541,
      "velocity": 127,
      "chip": "ym2612"
    },
    {
      "channel": 4,
      "note": 55,
      "start": 21.6001,
      "duration": 0.2996,
      "velocity": 126,
      "chip": "ym2612"
    },
    {
      "channel": 0,
      "note": 40,
      "start": 21.7993,
      "duration": 0.2998,
      "velocity": 104,
      "chip": "ym2612"
    },
    {
      "channel": 4,
      "note": 52,
      "start": 21.9,
      "duration": 0.2296,
      "velocity": 126,
      "chip": "ym2612"
    },
    {
      "channel": 0,
      "note": 43,
      "start": 22.0995,
      "duration": 0.0904,
      "velocity": 104,
      "chip": "ym2612"
    },
    {
      "channel": 1,
      "note": 83,
      "start": 22.0997,
      "duration": 1.1077,
      "velocity": 127,
      "chip": "ym2612"
    },
    {
      "channel": 2,
      "note": 80,
      "start": 22.1041,
      "duration": 1.1095,
      "velocity": 127,
      "chip": "ym2612"
    },
    {
      "channel": 3,
      "note": 83,
      "start": 22.1044,
      "duration": 1.1096,
      "velocity": 127,
      "chip": "ym2612"
    },
    {
      "channel": 4,
      "note": 55,
      "start": 22.1299,
      "duration": 0.0709,
      "velocity": 126,
      "chip": "ym2612"
    },
    {
      "channel": 0,
      "note": 42,
      "start": 22.1902,
      "duration": 0.0728,
      "velocity": 104,
      "chip": "ym2612"
    },
    {
      "channel": 4,
      "note": 54,
      "start": 22.2011,
      "duration": 0.0922,
      "velocity": 126,
      "chip": "ym2612"
    },
    {
      "channel": 0,
      "note": 41,
      "start": 22.2632,
      "duration": 0.2295,
      "velocity": 104,
      "chip": "ym2612"
    },
    {
      "channel": 4,
      "note": 53,
      "start": 22.2936,
      "duration": 0.2078,
      "velocity": 126,
      "chip": "ym2612"
    },
    {
      "channel": 0,
      "note": 43,
      "start": 22.4929,
      "duration": 0.0714,
      "velocity": 104,
      "chip": "ym2612"
    },
    {
      "channel": 4,
      "note": 55,
      "start": 22.5016,
      "duration": 0.0927,
      "velocity": 126,
      "chip": "ym2612"
    },
    {
      "channel": 0,
      "note": 40,
      "start": 22.5646,
      "duration": 0.2291,
      "velocity": 104,
      "chip": "ym2612"
    },
    {
      "channel": 4,
      "note": 52,
      "start": 22.5947,
      "duration": 0.2295,
      "velocity": 126,
      "chip": "ym2612"
    },
    {
      "channel": 0,
      "note": 43,
      "start": 22.7941,
      "duration": 0.2294,
      "velocity": 104,
      "chip": "ym2612"
    },
    {
      "channel": 4,
      "note": 55,
      "start": 22.8245,
      "duration": 0.2293,
      "velocity": 126,
      "chip": "ym2612"
    },
    {
      "channel": 0,
      "note": 42,
      "start": 23.0237,
      "duration": 0.0914,
      "velocity": 104,
      "chip": "ym2612"
    },
    {
      "channel": 4,
      "note": 54,
      "start": 23.0541,
      "duration": 0.0698,
      "velocity": 126,
      "chip": "ym2612"
    },
    {
      "channel": 0,
      "note": 41,
      "start": 23.1154,
      "duration": 0.0915,
      "velocity": 104,
      "chip": "ym2612"
    },
    {
      "channel": 4,
      "note": 53,
      "start": 23.1241,
      "duration": 0.098,
      "velocity": 126,
      "chip": "ym2612"
    },
    {
      "channel": 0,
      "note": 43,
      "start": 23.2073,
      "duration": 0.0348,
      "velocity": 104,
      "chip": "ym2612"
    },
    {
      "channel": 1,
      "note": 82,
      "start": 23.2076,
      "duration": 0.0642,
      "velocity": 127,
      "chip": "ym2612"
    },
    {
      "channel": 2,
      "note": 79,
      "start": 23.2139,
      "duration": 0.0621,
      "velocity": 127,
      "chip": "ym2612"
    },
    {
      "channel": 3,
      "note": 82,
      "start": 23.2143,
      "duration": 0.062,
      "velocity": 127,
      "chip": "ym2612"
    },
    {
      "channel": 4,
      "note": 55,
      "start": 23.2224,
      "duration": 0.0296,
      "velocity": 126,
      "chip": "ym2612"
    },
    {
      "channel": 0,
      "note": 40,
      "start": 23.2424,
      "duration": 0.0291,
      "velocity": 104,
      "chip": "ym2612"
    },
    {
      "channel": 4,
      "note": 52,
      "start": 23.2523,
      "duration": 0.0492,
      "velocity": 126,
      "chip": "ym2612"
    },
    {
      "channel": 0,
      "note": 42,
      "start": 23.2718,
      "duration": 0.2289,
      "velocity": 104,
      "chip": "ym2612"
    },
    {
      "channel": 1,
      "note": 81,
      "start": 23.272,
      "duration": 2.2585,
      "velocity": 127,
      "chip": "ym2612"
    },
    {
      "channel": 2,
      "note": 74,
      "start": 23.2763,
      "duration": 2.3042,
      "velocity": 127,
      "chip": "ym2612"
    },
    {
      "channel": 3,
      "note": 81,
      "start": 23.2765,
      "duration": 2.3044,
      "velocity": 127,
      "chip": "ym2612"
    },
    {
      "channel": 4,
      "note": 54,
      "start": 23.3018,
      "duration": 0.2995,
      "velocity": 126,
      "chip": "ym2612"
    },
    {
      "channel": 0,
      "note": 41,
      "start": 23.501,
      "duration": 0.2998,
      "velocity": 104,
      "chip": "ym2612"
    },
    {
      "channel": 4,
      "note": 53,
      "start": 23.6017,
      "duration": 0.2997,
      "velocity": 126,
      "chip": "ym2612"
    },
    {
      "channel": 0,
      "note": 40,
      "start": 23.801,
      "duration": 0.2998,
      "velocity": 104,
      "chip": "ym2612"
    },
    {
      "channel": 4,
      "note": 52,
      "start": 23.9017,
      "duration": 0.2998,
      "velocity": 126,
      "chip": "ym2612"
    },
    {
      "channel": 0,
      "note": 42,
      "start": 24.101,
      "duration": 0.2998,
      "velocity": 104,
      "chip": "ym2612"
    },
    {
      "channel": 4,
      "note": 54,
      "start": 24.2017,
      "duration": 0.2997,
      "velocity": 126,
      "chip": "ym2612"
    },
    {
      "channel": 0,
      "note": 38,
      "start": 24.401,
      "duration": 0.2998,
      "velocity": 104,
      "chip": "ym2612"
    },
    {
      "channel": 4,
      "note": 50,
      "start": 24.5017,
      "duration": 0.2293,
      "velocity": 126,
      "chip": "ym2612"
    },
    {
      "channel": 0,
      "note": 42,
      "start": 24.7011,
      "duration": 0.2291,
      "velocity": 104,
      "chip": "ym2612"
    },
    {
      "channel": 4,
      "note": 54,
      "start": 24.7313,
      "duration": 0.2996,
      "velocity": 126,
      "chip": "ym2612"
    },
    {
      "channel": 0,
      "note": 41,
      "start": 24.9305,
      "duration": 0.2998,
      "velocity": 104,
      "chip": "ym2612"
    },
    {
      "channel": 4,
      "note": 53,
      "start": 25.0312,
      "duration": 0.2997,
      "velocity": 126,
      "chip": "ym2612"
    },
    {
      "channel": 0,
      "note": 40,
      "start": 25.2305,
      "duration": 0.2998,
      "velocity": 104,
      "chip": "ym2612"
    },
    {
      "channel": 4,
      "note": 52,
      "start": 25.3312,
      "duration": 0.2997,
      "velocity": 126,
      "chip": "ym2612"
    },
    {
      "channel": 0,
      "note": 42,
      "start": 25.5305,
      "duration": 0.2998,
      "velocity": 104,
      "chip": "ym2612"
    },
    {
      "channel": 1,
      "note": 79,
      "start": 25.5308,
      "duration": 0.4436,
      "velocity": 127,
      "chip": "ym2612"
    },
    {
      "channel": 2,
      "note": 75,
      "start": 25.5808,
      "duration": 0.3978,
      "velocity": 127,
      "chip": "ym2612"
    },
    {
      "channel": 3,
      "note": 79,
      "start": 25.5812,
      "duration": 0.3978,
      "velocity": 127,
      "chip": "ym2612"
    },
    {
      "channel": 4,
      "note": 54,
      "start": 25.6312,
      "duration": 0.214,
      "velocity": 126,
      "chip": "ym2612"
    },
    {
      "channel": 0,
      "note": 38,
      "start": 25.8306,
      "duration": 0.1434,
      "velocity": 104,
      "chip": "ym2612"
    },
    {
      "channel": 4,
      "note": 50,
      "start": 25.8455,
      "duration": 0.1588,
      "velocity": 126,
      "chip": "ym2612"
    },
    {
      "channel": 0,
      "note": 42,
      "start": 25.9743,
      "duration": 0.0878,
      "velocity": 104,
      "chip": "ym2612"
    },
    {
      "channel": 1,
      "note": 77,
      "start": 25.9745,
      "duration": 0.2643,
      "velocity": 127,
      "chip": "ym2612"
    },
    {
      "channel": 2,
      "note": 71,
      "start": 25.979,
      "duration": 0.3098,
      "velocity": 127,
      "chip": "ym2612"
    },
    {
      "channel": 3,
      "note": 77,
      "start": 25.9792,
      "duration": 0.3099,
      "velocity": 127,
      "chip": "ym2612"
    },
    {
      "channel": 4,
      "note": 54,
      "start": 26.0046,
      "duration": 0.0878,
      "velocity": 126,
      "chip": "ym2612"
    },
    {
      "channel": 0,
      "note": 41,
      "start": 26.0624,
      "duration": 0.0877,
      "velocity": 104,
      "chip": "ym2612"
    },
    {
      "channel": 4,
      "note": 53,
      "start": 26.0925,
      "duration": 0.088,
      "velocity": 126,
      "chip": "ym2612"
    },
    {
      "channel": 0,
      "note": 40,
      "start": 26.1504,
      "duration": 0.088,
      "velocity": 104,
      "chip": "ym2612"
    },
    {
      "channel": 4,
      "note": 52,
      "start": 26.1807,
      "duration": 0.1584,
      "velocity": 126,
      "chip": "ym2612"
    },
    {
      "channel": 0,
      "note": 42,
      "start": 26.2387,
      "duration": 0.2996,
      "velocity": 104,
      "chip": "ym2612"
    },
    {
      "channel": 1,
      "note": 78,
      "start": 26.239,
      "duration": 0.5998,
      "velocity": 127,
      "chip": "ym2612"
    },
    {
      "channel": 2,
      "note": 74,
      "start": 26.289,
      "duration": 0.5541,
      "velocity": 127,
      "chip": "ym2612"
    },
    {
      "channel": 3,
      "note": 78,
      "start": 26.2894,
      "duration": 0.554,
      "velocity": 127,
      "chip": "ym2612"
    },
    {
      "channel": 4,
      "note": 54,
      "start": 26.3394,
      "duration": 0.2996,
      "velocity": 126,
      "chip": "ym2612"
    },
    {
      "channel": 0,
      "note": 38,
      "start": 26.5387,
      "duration": 0.2998,
      "velocity": 104,
      "chip": "ym2612"
    },
    {
      "channel": 4,
      "note": 50,
      "start": 26.6394,
      "duration": 0.2295,
      "velocity": 126,
      "chip": "ym2612"
    },
    {
      "channel": 0,
      "note": 42,
      "start": 26.8388,
      "duration": 0.2293,
      "velocity": 104,
      "chip": "ym2612"
    },
    {
      "channel": 1,
      "note": 79,
      "start": 26.839,
      "duration": 0.8295,
      "velocity": 127,
      "chip": "ym2612"
    },
    {
      "channel": 2,
      "note": 75,
      "start": 26.8434,
      "duration": 0.8294,
      "velocity": 127,
      "chip": "ym2612"
    },
    {
      "channel": 3,
      "note": 79,
      "start": 26.8437,
      "duration": 0.8295,
      "velocity": 127,
      "chip": "ym2612"
    },
    {
      "channel": 4,
      "note": 54,
      "start": 26.8692,
      "duration": 0.2995,
      "velocity": 126,
      "chip": "ym2612"
    },
    {
      "channel": 0,
      "note": 41,
      "start": 27.0684,
      "duration": 0.2998,
      "velocity": 104,
      "chip": "ym2612"
    },
    {
      "channel": 4,
      "note": 53,
      "start": 27.1691,
      "duration": 0.2997,
      "velocity": 126,
      "chip": "ym2612"
    },
    {
      "channel": 0,
      "note": 40,
      "start": 27.3684,
      "duration": 0.2998,
      "velocity": 104,
      "chip": "ym2612"
    },
    {
      "channel": 4,
      "note": 52,
      "start": 27.4691,
      "duration": 0.2084,
      "velocity": 126,
      "chip": "ym2612"
    },
    {
      "channel": 0,
      "note": 42,
      "start": 27.6684,
      "duration": 0.0251,
      "velocity": 104,
      "chip": "ym2612"
    },
    {
      "channel": 1,
      "note": 77,
      "start": 27.6686,
      "duration": 0.1178,
      "velocity": 127,
      "chip": "ym2612"
    },
    {
      "channel": 2,
      "note": 71,
      "start": 27.6731,
      "duration": 0.1174,
      "velocity": 127,
      "chip": "ym2612"
    },
    {
      "channel": 3,
      "note": 77,
      "start": 27.6734,
      "duration": 0.1174,
      "velocity": 127,
      "chip": "ym2612"
    },
    {
      "channel": 4,
      "note": 54,
      "start": 27.6776,
      "duration": 0.0463,
      "velocity": 126,
      "chip": "ym2612"
    },
    {
      "channel": 0,
      "note": 38,
      "start": 27.6939,
      "duration": 0.0922,
      "velocity": 104,
      "chip": "ym2612"
    },
    {
      "channel": 4,
      "note": 50,
      "start": 27.7243,
      "duration": 0.092,
      "velocity": 126,
      "chip": "ym2612"
    },
    {
      "channel": 0,
      "note": 43,
      "start": 27.7864,
      "duration": 0.2291,
      "velocity": 104,
      "chip": "ym2612"
    },
    {
      "channel": 1,
      "note": 73,
      "start": 27.7866,
      "duration": 2.2587,
      "velocity": 127,
      "chip": "ym2612"
    },
    {
      "channel": 2,
      "note": 81,
      "start": 27.7908,
      "duration": 2.3045,
      "velocity": 127,
      "chip": "ym2612"
    },
    {
      "channel": 3,
      "note": 73,
      "start": 27.7911,
      "duration": 2.3046,
      "velocity": 127,
      "chip": "ym2612"
    },
    {
      "channel": 4,
      "note": 55,
      "start": 27.8166,
      "duration": 0.2995,
      "velocity": 126,
      "chip": "ym2612"
    },
    {
      "channel": 0,
      "note": 42,
      "start": 28.0157,
      "duration": 0.2998,
      "velocity": 104,
      "chip": "ym2612"
    },
    {
      "channel": 4,
      "note": 54,
      "start": 28.1164,
      "duration": 0.2997,
      "velocity": 126,
      "chip": "ym2612"
    },
    {
      "channel": 0,
      "note": 41,
      "start": 28.3157,
      "duration": 0.2998,
      "velocity": 104,
      "chip": "ym2612"
    },
    {
      "channel": 4,
      "note": 53,
      "start": 28.4164,
      "duration": 0.2998,
      "velocity": 126,
      "chip": "ym2612"
    },
    {
      "channel": 0,
      "note": 43,
      "start": 28.6157,
      "duration": 0.2998,
      "velocity": 104,
      "chip": "ym2612"
    },
    {
      "channel": 4,
      "note": 55,
      "start": 28.7165,
      "duration": 0.2997,
      "velocity": 126,
      "chip": "ym2612"
    },
    {
      "channel": 0,
      "note": 40,
      "start": 28.9157,
      "duration": 0.2998,
      "velocity": 104,
      "chip": "ym2612"
    },
    {
      "channel": 4,
      "note": 52,
      "start": 29.0165,
      "duration": 0.2293,
      "velocity": 126,
      "chip": "ym2612"
    },
    {
      "channel": 0,
      "note": 43,
      "start": 29.2159,
      "duration": 0.2291,
      "velocity": 104,
      "chip": "ym2612"
    },
    {
      "channel": 4,
      "note": 55,
      "start": 29.2461,
      "duration": 0.2996,
      "velocity": 126,
      "chip": "ym2612"
    },
    {
      "channel": 0,
      "note": 42,
      "start": 29.4452,
      "duration": 0.2998,
      "velocity": 104,
      "chip": "ym2612"
    },
    {
      "channel": 4,
      "note": 54,
      "start": 29.546,
      "duration": 0.2997,
      "velocity": 126,
      "chip": "ym2612"
    },
    {
      "channel": 0,
      "note": 41,
      "start": 29.7452,
      "duration": 0.2998,
      "velocity": 104,
      "chip": "ym2612"
    },
    {
      "channel": 4,
      "note": 53,
      "start": 29.846,
      "duration": 0.2997,
      "velocity": 126,
      "chip": "ym2612"
    },
    {
      "channel": 0,
      "note": 43,
      "start": 30.0452,
      "duration": 0.2998,
      "velocity": 104,
      "chip": "ym2612"
    },
    {
      "channel": 1,
      "note": 76,
      "start": 30.0456,
      "duration": 0.5999,
      "velocity": 127,
      "chip": "ym2612"
    },
    {
      "channel": 2,
      "note": 85,
      "start": 30.0956,
      "duration": 0.5541,
      "velocity": 127,
      "chip": "ym2612"
    },
    {
      "channel": 3,
      "note": 76,
      "start": 30.096,
      "duration": 0.5541,
      "velocity": 127,
      "chip": "ym2612"
    },
    {
      "channel": 4,
      "note": 55,
      "start": 30.146,
      "duration": 0.2996,
      "velocity": 126,
      "chip": "ym2612"
    },
    {
      "channel": 0,
      "note": 40,
      "start": 30.3452,
      "duration": 0.2998,
      "velocity": 104,
      "chip": "ym2612"
    },
    {
      "channel": 4,
      "note": 52,
      "start": 30.4459,
      "duration": 0.2295,
      "velocity": 126,
      "chip": "ym2612"
    },
    {
      "channel": 0,
      "note": 43,
      "start": 30.6454,
      "duration": 0.0458,
      "velocity": 104,
      "chip": "ym2612"
    },
    {
      "channel": 1,
      "note": 79,
      "start": 30.6456,
      "duration": 1.0621,
      "velocity": 127,
      "chip": "ym2612"
    },
    {
      "channel": 2,
      "note": 88,
      "start": 30.65,
      "duration": 1.0823,
      "velocity": 127,
      "chip": "ym2612"
    },
    {
      "channel": 3,
      "note": 79,
      "start": 30.6503,
      "duration": 1.0825,
      "velocity": 127,
      "chip": "ym2612"
    },
    {
      "channel": 4,
      "note": 55,
      "start": 30.6757,
      "duration": 0.0453,
      "velocity": 126,
      "chip": "ym2612"
    },
    {
      "channel": 0,
      "note": 42,
      "start": 30.6915,
      "duration": 0.0664,
      "velocity": 104,
      "chip": "ym2612"
    },
    {
      "channel": 4,
      "note": 54,
      "start": 30.7212,
      "duration": 0.0671,
      "velocity": 126,
      "chip": "ym2612"
    },
    {
      "channel": 0,
      "note": 41,
      "start": 30.7581,
      "duration": 0.2295,
      "velocity": 104,
      "chip": "ym2612"
    },
    {
      "channel": 4,
      "note": 53,
      "start": 30.7885,
      "duration": 0.2998,
      "velocity": 126,
      "chip": "ym2612"
    },
    {
      "channel": 0,
      "note": 43,
      "start": 30.9878,
      "duration": 0.2998,
      "velocity": 104,
      "chip": "ym2612"
    },
    {
      "channel": 4,
      "note": 55,
      "start": 31.0886,
      "duration": 0.2997,
      "velocity": 126,
      "chip": "ym2612"
    },
    {
      "channel": 0,
      "note": 40,
      "start": 31.2878,
      "duration": 0.2998,
      "velocity": 104,
      "chip": "ym2612"
    },
    {
      "channel": 4,
      "note": 52,
      "start": 31.3886,
      "duration": 0.229,
      "velocity": 126,
      "chip": "ym2612"
    },
    {
      "channel": 0,
      "note": 43,
      "start": 31.588,
      "duration": 0.0664,
      "velocity": 104,
      "chip": "ym2612"
    },
    {
      "channel": 4,
      "note": 55,
      "start": 31.6179,
      "duration": 0.0453,
      "velocity": 126,
      "chip": "ym2612"
    },
    {
      "channel": 0,
      "note": 42,
      "start": 31.6548,
      "duration": 0.0241,
      "velocity": 104,
      "chip": "ym2612"
    },
    {
      "channel": 4,
      "note": 54,
      "start": 31.6633,
      "duration": 0.0246,
      "velocity": 126,
      "chip": "ym2612"
    },
    {
      "channel": 0,
      "note": 41,
      "start": 31.6792,
      "duration": 0.0283,
      "velocity": 104,
      "chip": "ym2612"
    },
    {
      "channel": 4,
      "note": 53,
      "start": 31.6882,
      "duration": 0.0945,
      "velocity": 126,
      "chip": "ym2612"
    },
    {
      "channel": 0,
      "note": 43,
      "start": 31.7077,
      "duration": 0.2743,
      "velocity": 104,
      "chip": "ym2612"
    },
    {
      "channel": 1,
      "note": 70,
      "start": 31.7079,
      "duration": 0.5762,
      "velocity": 127,
      "chip": "ym2612"
    },
    {
      "channel": 2,
      "note": 85,
      "start": 31.7327,
      "duration": 0.5559,
      "velocity": 127,
      "chip": "ym2612"
    },
    {
      "channel": 3,
      "note": 70,
      "start": 31.7331,
      "duration": 0.556,
      "velocity": 127,
      "chip": "ym2612"
    },
    {
      "channel": 4,
      "note": 55,
      "start": 31.7831,
      "duration": 0.2996,
      "velocity": 126,
      "chip": "ym2612"
    },
    {
      "channel": 0,
      "note": 40,
      "start": 31.9823,
      "duration": 0.3006,
      "velocity": 86,
      "chip": "ym2612"
    },
    {
      "channel": 4,
      "note": 52,
      "start": 32.083,
      "duration": 0.2306,
      "velocity": 127,
      "chip": "ym2612"
    },
    {
      "channel": 0,
      "note": 55,
      "start": 32.2832,
      "duration": 0.0786,
      "velocity": 86,
      "chip": "ym2612"
    },
    {
      "channel": 1,
      "note": 87,
      "start": 32.2842,
      "duration": 1.8343,
      "velocity": 127,
      "chip": "ym2612"
    },
    {
      "channel": 2,
      "note": 82,
      "start": 32.2888,
      "duration": 1.8344,
      "velocity": 127,
      "chip": "ym2612"
    },
    {
      "channel": 3,
      "note": 63,
      "start": 32.2893,
      "duration": 1.834,
      "velocity": 127,
      "chip": "ym2612"
    },
    {
      "channel": 4,
      "note": 67,
      "start": 32.3139,
      "duration": 1.8348,
      "velocity": 127,
      "chip": "ym2612"
    },
    {
      "channel": 0,
      "note": 56,
      "start": 32.3621,
      "duration": 0.1498,
      "velocity": 86,
      "chip": "ym2612"
    },
    {
      "channel": 0,
      "note": 57,
      "start": 32.5122,
      "duration": 0.0788,
      "velocity": 86,
      "chip": "ym2612"
    },
    {
      "channel": 0,
      "note": 56,
      "start": 32.5913,
      "duration": 0.1498,
      "velocity": 86,
      "chip": "ym2612"
    },
    {
      "channel": 0,
      "note": 55,
      "start": 32.7414,
      "duration": 0.0792,
      "velocity": 86,
      "chip": "ym2612"
    },
    {
      "channel": 0,
      "note": 56,
      "start": 32.8209,
      "duration": 0.1498,
      "velocity": 86,
      "chip": "ym2612"
    },
    {
      "channel": 0,
      "note": 57,
      "start": 32.971,
      "duration": 0.0792,
      "velocity": 86,
      "chip": "ym2612"
    },
    {
      "channel": 0,
      "note": 56,
      "start": 33.0505,
      "duration": 0.1498,
      "velocity": 86,
      "chip": "ym2612"
    },
    {
      "channel": 0,
      "note": 55,
      "start": 33.2006,
      "duration": 0.0792,
      "velocity": 86,
      "chip": "ym2612"
    },
    {
      "channel": 0,
      "note": 56,
      "start": 33.2801,
      "duration": 0.1498,
      "velocity": 86,
      "chip": "ym2612"
    },
    {
      "channel": 0,
      "note": 57,
      "start": 33.4302,
      "duration": 0.079,
      "velocity": 86,
      "chip": "ym2612"
    },
    {
      "channel": 0,
      "note": 56,
      "start": 33.5095,
      "duration": 0.1498,
      "velocity": 86,
      "chip": "ym2612"
    },
    {
      "channel": 0,
      "note": 55,
      "start": 33.6596,
      "duration": 0.0793,
      "velocity": 86,
      "chip": "ym2612"
    },
    {
      "channel": 0,
      "note": 56,
      "start": 33.7392,
      "duration": 0.1498,
      "velocity": 86,
      "chip": "ym2612"
    },
    {
      "channel": 0,
      "note": 57,
      "start": 33.8893,
      "duration": 0.0788,
      "velocity": 86,
      "chip": "ym2612"
    },
    {
      "channel": 0,
      "note": 56,
      "start": 33.9684,
      "duration": 0.1498,
      "velocity": 86,
      "chip": "ym2612"
    },
    {
      "channel": 0,
      "note": 54,
      "start": 34.1185,
      "duration": 0.0795,
      "velocity": 86,
      "chip": "ym2612"
    },
    {
      "channel": 1,
      "note": 88,
      "start": 34.1187,
      "duration": 1.1421,
      "velocity": 127,
      "chip": "ym2612"
    },
    {
      "channel": 2,
      "note": 83,
      "start": 34.1232,
      "duration": 1.1416,
      "velocity": 127,
      "chip": "ym2612"
    },
    {
      "channel": 3,
      "note": 64,
      "start": 34.1234,
      "duration": 1.1418,
      "velocity": 127,
      "chip": "ym2612"
    },
    {
      "channel": 4,
      "note": 66,
      "start": 34.1491,
      "duration": 1.1414,
      "velocity": 127,
      "chip": "ym2612"
    },
    {
      "channel": 0,
      "note": 55,
      "start": 34.1983,
      "duration": 0.1498,
      "velocity": 86,
      "chip": "ym2612"
    },
    {
      "channel": 0,
      "note": 56,
      "start": 34.3483,
      "duration": 0.079,
      "velocity": 86,
      "chip": "ym2612"
    },
    {
      "channel": 0,
      "note": 57,
      "start": 34.4277,
      "duration": 0.1498,
      "velocity": 86,
      "chip": "ym2612"
    },
    {
      "channel": 0,
      "note": 54,
      "start": 34.5778,
      "duration": 0.0793,
      "velocity": 86,
      "chip": "ym2612"
    },
    {
      "channel": 0,
      "note": 55,
      "start": 34.6574,
      "duration": 0.1498,
      "velocity": 86,
      "chip": "ym2612"
    },
    {
      "channel": 0,
      "note": 56,
      "start": 34.8075,
      "duration": 0.0789,
      "velocity": 86,
      "chip": "ym2612"
    },
    {
      "channel": 0,
      "note": 57,
      "start": 34.8866,
      "duration": 0.1498,
      "velocity": 86,
      "chip": "ym2612"
    },
    {
      "channel": 0,
      "note": 54,
      "start": 35.0368,
      "duration": 0.0791,
      "velocity": 86,
      "chip": "ym2612"
    },
    {
      "channel": 0,
      "note": 55,
      "start": 35.1162,
      "duration": 0.0596,
      "velocity": 86,
      "chip": "ym2612"
    },
    {
      "channel": 0,
      "note": 56,
      "start": 35.1761,
      "duration": 0.013,
      "velocity": 86,
      "chip": "ym2612"
    },
    {
      "channel": 0,
      "note": 57,
      "start": 35.1893,
      "duration": 0.0133,
      "velocity": 86,
      "chip": "ym2612"
    },
    {
      "channel": 0,
      "note": 54,
      "start": 35.2029,
      "duration": 0.0142,
      "velocity": 86,
      "chip": "ym2612"
    },
    {
      "channel": 0,
      "note": 55,
      "start": 35.2174,
      "duration": 0.014,
      "velocity": 86,
      "chip": "ym2612"
    },
    {
      "channel": 0,
      "note": 56,
      "start": 35.2316,
      "duration": 0.0143,
      "velocity": 86,
      "chip": "ym2612"
    },
    {
      "channel": 0,
      "note": 57,
      "start": 35.2461,
      "duration": 0.0144,
      "velocity": 86,
      "chip": "ym2612"
    },
    {
      "channel": 0,
      "note": 53,
      "start": 35.2607,
      "duration": 0.079,
      "velocity": 86,
      "chip": "ym2612"
    },
    {
      "channel": 1,
      "note": 91,
      "start": 35.2609,
      "duration": 1.8352,
      "velocity": 127,
      "chip": "ym2612"
    },
    {
      "channel": 2,
      "note": 86,
      "start": 35.2652,
      "duration": 1.8355,
      "velocity": 127,
      "chip": "ym2612"
    },
    {
      "channel": 3,
      "note": 67,
      "start": 35.2654,
      "duration": 1.8355,
      "velocity": 127,
      "chip": "ym2612"
    },
    {
      "channel": 4,
      "note": 65,
      "start": 35.2908,
      "duration": 1.8355,
      "velocity": 127,
      "chip": "ym2612"
    },
    {
      "channel": 0,
      "note": 54,
      "start": 35.34,
      "duration": 0.1498,
      "velocity": 86,
      "chip": "ym2612"
    },
    {
      "channel": 0,
      "note": 55,
      "start": 35.4901,
      "duration": 0.079,
      "velocity": 86,
      "chip": "ym2612"
    },
    {
      "channel": 0,
      "note": 56,
      "start": 35.5694,
      "duration": 0.1498,
      "velocity": 86,
      "chip": "ym2612"
    },
    {
      "channel": 0,
      "note": 53,
      "start": 35.7194,
      "duration": 0.0789,
      "velocity": 86,
      "chip": "ym2612"
    },
    {
      "channel": 0,
      "note": 54,
      "start": 35.7987,
      "duration": 0.1498,
      "velocity": 86,
      "chip": "ym2612"
    },
    {
      "channel": 0,
      "note": 55,
      "start": 35.9487,
      "duration": 0.0788,
      "velocity": 86,
      "chip": "ym2612"
    },
    {
      "channel": 0,
      "note": 56,
      "start": 36.0279,
      "duration": 0.1498,
      "velocity": 86,
      "chip": "ym2612"
    },
    {
      "channel": 0,
      "note": 53,
      "start": 36.178,
      "duration": 0.0788,
      "velocity": 86,
      "chip": "ym2612"
    },
    {
      "channel": 0,
      "note": 54,
      "start": 36.2571,
      "duration": 0.1498,
      "velocity": 86,
      "chip": "ym2612"
    },
    {
      "channel": 0,
      "note": 55,
      "start": 36.4071,
      "duration": 0.0793,
      "velocity": 86,
      "chip": "ym2612"
    },
    {
      "channel": 0,
      "note": 56,
      "start": 36.4868,
      "duration": 0.1498,
      "velocity": 86,
      "chip": "ym2612"
    },
    {
      "channel": 0,
      "note": 53,
      "start": 36.6369,
      "duration": 0.0792,
      "velocity": 86,
      "chip": "ym2612"
    },
    {
      "channel": 0,
      "note": 54,
      "start": 36.7164,
      "duration": 0.1498,
      "velocity": 86,
      "chip": "ym2612"
    },
    {
      "channel": 0,
      "note": 55,
      "start": 36.8665,
      "duration": 0.0792,
      "velocity": 86,
      "chip": "ym2612"
    },
    {
      "channel": 0,
      "note": 56,
      "start": 36.946,
      "duration": 0.1498,
      "velocity": 86,
      "chip": "ym2612"
    },
    {
      "channel": 0,
      "note": 52,
      "start": 37.0961,
      "duration": 0.0795,
      "velocity": 86,
      "chip": "ym2612"
    },
    {
      "channel": 1,
      "note": 85,
      "start": 37.0963,
      "duration": 1.5139,
      "velocity": 127,
      "chip": "ym2612"
    },
    {
      "channel": 2,
      "note": 85,
      "start": 37.1008,
      "duration": 1.5134,
      "velocity": 127,
      "chip": "ym2612"
    },
    {
      "channel": 3,
      "note": 61,
      "start": 37.101,
      "duration": 1.5135,
      "velocity": 127,
      "chip": "ym2612"
    },
    {
      "channel": 4,
      "note": 64,
      "start": 37.1267,
      "duration": 1.5131,
      "velocity": 127,
      "chip": "ym2612"
    },
    {
      "channel": 0,
      "note": 53,
      "start": 37.1759,
      "duration": 0.1498,
      "velocity": 86,
      "chip": "ym2612"
    },
    {
      "channel": 0,
      "note": 54,
      "start": 37.3259,
      "duration": 0.079,
      "velocity": 86,
      "chip": "ym2612"
    },
    {
      "channel": 0,
      "note": 55,
      "start": 37.4053,
      "duration": 0.1498,
      "velocity": 86,
      "chip": "ym2612"
    },
    {
      "channel": 0,
      "note": 52,
      "start": 37.5554,
      "duration": 0.0793,
      "velocity": 86,
      "chip": "ym2612"
    },
    {
      "channel": 0,
      "note": 53,
      "start": 37.635,
      "duration": 0.1498,
      "velocity": 86,
      "chip": "ym2612"
    },
    {
      "channel": 0,
      "note": 54,
      "start": 37.7851,
      "duration": 0.0788,
      "velocity": 86,
      "chip": "ym2612"
    },
    {
      "channel": 0,
      "note": 55,
      "start": 37.8642,
      "duration": 0.1498,
      "velocity": 86,
      "chip": "ym2612"
    },
    {
      "channel": 0,
      "note": 52,
      "start": 38.0143,
      "duration": 0.0788,
      "velocity": 86,
      "chip": "ym2612"
    },
    {
      "channel": 0,
      "note": 53,
      "start": 38.0934,
      "duration": 0.1498,
      "velocity": 86,
      "chip": "ym2612"
    },
    {
      "channel": 0,
      "note": 54,
      "start": 38.2435,
      "duration": 0.0793,
      "velocity": 86,
      "chip": "ym2612"
    },
    {
      "channel": 0,
      "note": 55,
      "start": 38.3231,
      "duration": 0.1498,
      "velocity": 86,
      "chip": "ym2612"
    },
    {
      "channel": 0,
      "note": 52,
      "start": 38.4732,
      "duration": 0.0333,
      "velocity": 86,
      "chip": "ym2612"
    },
    {
      "channel": 0,
      "note": 53,
      "start": 38.5067,
      "duration": 0.0544,
      "velocity": 86,
      "chip": "ym2612"
    },
    {
      "channel": 0,
      "note": 54,
      "start": 38.5615,
      "duration": 0.0345,
      "velocity": 86,
      "chip": "ym2612"
    },
    {
      "channel": 0,
      "note": 55,
      "start": 38.5962,
      "duration": 0.0136,
      "velocity": 86,
      "chip": "ym2612"
    },
    {
      "channel": 0,
      "note": 53,
      "start": 38.6101,
      "duration": 0.0788,
      "velocity": 86,
      "chip": "ym2612"
    },
    {
      "channel": 1,
      "note": 87,
      "start": 38.6104,
      "duration": 1.835,
      "velocity": 127,
      "chip": "ym2612"
    },
    {
      "channel": 2,
      "note": 82,
      "start": 38.6145,
      "duration": 1.8355,
      "velocity": 127,
      "chip": "ym2612"
    },
    {
      "channel": 3,
      "note": 63,
      "start": 38.6148,
      "duration": 1.8354,
      "velocity": 127,
      "chip": "ym2612"
    },
    {
      "channel": 4,
      "note": 65,
      "start": 38.64,
      "duration": 1.8356,
      "velocity": 127,
      "chip": "ym2612"
    },
    {
      "channel": 0,
      "note": 54,
      "start": 38.6893,
      "duration": 0.1498,
      "velocity": 86,
      "chip": "ym2612"
    },
    {
      "channel": 0,
      "note": 55,
      "start": 38.8393,
      "duration": 0.079,
      "velocity": 86,
      "chip": "ym2612"
    },
    {
      "channel": 0,
      "note": 56,
      "start": 38.9186,
      "duration": 0.1498,
      "velocity": 86,
      "chip": "ym2612"
    },
    {
      "channel": 0,
      "note": 53,
      "start": 39.0688,
      "duration": 0.0793,
      "velocity": 86,
      "chip": "ym2612"
    },
    {
      "channel": 0,
      "note": 54,
      "start": 39.1484,
      "duration": 0.1498,
      "velocity": 86,
      "chip": "ym2612"
    },
    {
      "channel": 0,
      "note": 55,
      "start": 39.2984,
      "duration": 0.0792,
      "velocity": 86,
      "chip": "ym2612"
    },
    {
      "channel": 0,
      "note": 56,
      "start": 39.3779,
      "duration": 0.1498,
      "velocity": 86,
      "chip": "ym2612"
    },
    {
      "channel": 0,
      "note": 53,
      "start": 39.528,
      "duration": 0.0792,
      "velocity": 86,
      "chip": "ym2612"
    },
    {
      "channel": 0,
      "note": 54,
      "start": 39.6075,
      "duration": 0.1498,
      "velocity": 86,
      "chip": "ym2612"
    },
    {
      "channel": 0,
      "note": 55,
      "start": 39.7576,
      "duration": 0.079,
      "velocity": 86,
      "chip": "ym2612"
    },
    {
      "channel": 0,
      "note": 56,
      "start": 39.8369,
      "duration": 0.1498,
      "velocity": 86,
      "chip": "ym2612"
    },
    {
      "channel": 0,
      "note": 53,
      "start": 39.987,
      "duration": 0.0788,
      "velocity": 86,
      "chip": "ym2612"
    },
    {
      "channel": 0,
      "note": 54,
      "start": 40.0661,
      "duration": 0.1498,
      "velocity": 86,
      "chip": "ym2612"
    },
    {
      "channel": 0,
      "note": 55,
      "start": 40.2161,
      "duration": 0.0788,
      "velocity": 86,
      "chip": "ym2612"
    },
    {
      "channel": 0,
      "note": 56,
      "start": 40.2953,
      "duration": 0.1498,
      "velocity": 86,
      "chip": "ym2612"
    },
    {
      "channel": 0,
      "note": 54,
      "start": 40.4453,
      "duration": 0.0795,
      "velocity": 86,
      "chip": "ym2612"
    },
    {
      "channel": 1,
      "note": 88,
      "start": 40.4456,
      "duration": 1.437,
      "velocity": 127,
      "chip": "ym2612"
    },
    {
      "channel": 2,
      "note": 83,
      "start": 40.4501,
      "duration": 1.4365,
      "velocity": 127,
      "chip": "ym2612"
    },
    {
      "channel": 3,
      "note": 64,
      "start": 40.4503,
      "duration": 1.4366,
      "velocity": 127,
      "chip": "ym2612"
    },
    {
      "channel": 4,
      "note": 66,
      "start": 40.4759,
      "duration": 1.4361,
      "velocity": 127,
      "chip": "ym2612"
    },
    {
      "channel": 0,
      "note": 55,
      "start": 40.5252,
      "duration": 0.1498,
      "velocity": 86,
      "chip": "ym2612"
    },
    {
      "channel": 0,
      "note": 56,
      "start": 40.6752,
      "duration": 0.0788,
      "velocity": 86,
      "chip": "ym2612"
    },
    {
      "channel": 0,
      "note": 57,
      "start": 40.7543,
      "duration": 0.1498,
      "velocity": 86,
      "chip": "ym2612"
    },
    {
      "channel": 0,
      "note": 54,
      "start": 40.9044,
      "duration": 0.0793,
      "velocity": 86,
      "chip": "ym2612"
    },
    {
      "channel": 0,
      "note": 55,
      "start": 40.9841,
      "duration": 0.1498,
      "velocity": 86,
      "chip": "ym2612"
    },
    {
      "channel": 0,
      "note": 56,
      "start": 41.1341,
      "duration": 0.0792,
      "velocity": 86,
      "chip": "ym2612"
    },
    {
      "channel": 0,
      "note": 57,
      "start": 41.2136,
      "duration": 0.1498,
      "velocity": 86,
      "chip": "ym2612"
    },
    {
      "channel": 0,
      "note": 54,
      "start": 41.3637,
      "duration": 0.0788,
      "velocity": 86,
      "chip": "ym2612"
    },
    {
      "channel": 0,
      "note": 55,
      "start": 41.4429,
      "duration": 0.1498,
      "velocity": 86,
      "chip": "ym2612"
    },
    {
      "channel": 0,
      "note": 56,
      "start": 41.5929,
      "duration": 0.079,
      "velocity": 86,
      "chip": "ym2612"
    },
    {
      "channel": 0,
      "note": 57,
      "start": 41.6722,
      "duration": 0.1498,
      "velocity": 86,
      "chip": "ym2612"
    },
    {
      "channel": 0,
      "note": 54,
      "start": 41.8223,
      "duration": 0.014,
      "velocity": 86,
      "chip": "ym2612"
    },
    {
      "channel": 0,
      "note": 55,
      "start": 41.8365,
      "duration": 0.0148,
      "velocity": 86,
      "chip": "ym2612"
    },
    {
      "channel": 0,
      "note": 56,
      "start": 41.8516,
      "duration": 0.0155,
      "velocity": 86,
      "chip": "ym2612"
    },
    {
      "channel": 0,
      "note": 57,
      "start": 41.8673,
      "duration": 0.0149,
      "velocity": 86,
      "chip": "ym2612"
    },
    {
      "channel": 0,
      "note": 58,
      "start": 41.8826,
      "duration": 0.0788,
      "velocity": 86,
      "chip": "ym2612"
    },
    {
      "channel": 1,
      "note": 85,
      "start": 41.8827,
      "duration": 1.8358,
      "velocity": 126,
      "chip": "ym2612"
    },
    {
      "channel": 2,
      "note": 80,
      "start": 41.8869,
      "duration": 1.8363,
      "velocity": 127,
      "chip": "ym2612"
    },
    {
      "channel": 3,
      "note": 61,
      "start": 41.8871,
      "duration": 1.8363,
      "velocity": 127,
      "chip": "ym2612"
    },
    {
      "channel": 4,
      "note": 70,
      "start": 41.9124,
      "duration": 1.8357,
      "velocity": 127,
      "chip": "ym2612"
    },
    {
      "channel": 0,
      "note": 59,
      "start": 41.9616,
      "duration": 0.1498,
      "velocity": 86,
      "chip": "ym2612"
    },
    {
      "channel": 0,
      "note": 60,
      "start": 42.1117,
      "duration": 0.0788,
      "velocity": 86,
      "chip": "ym2612"
    },
    {
      "channel": 0,
      "note": 61,
      "start": 42.1908,
      "duration": 0.1498,
      "velocity": 86,
      "chip": "ym2612"
    },
    {
      "channel": 0,
      "note": 58,
      "start": 42.3409,
      "duration": 0.0793,
      "velocity": 86,
      "chip": "ym2612"
    },
    {
      "channel": 0,
      "note": 59,
      "start": 42.4205,
      "duration": 0.1498,
      "velocity": 86,
      "chip": "ym2612"
    },
    {
      "channel": 0,
      "note": 60,
      "start": 42.5706,
      "duration": 0.0789,
      "velocity": 86,
      "chip": "ym2612"
    },
    {
      "channel": 0,
      "note": 61,
      "start": 42.6498,
      "duration": 0.1498,
      "velocity": 86,
      "chip": "ym2612"
    },
    {
      "channel": 0,
      "note": 58,
      "start": 42.7999,
      "duration": 0.0792,
      "velocity": 86,
      "chip": "ym2612"
    },
    {
      "channel": 0,
      "note": 59,
      "start": 42.8794,
      "duration": 0.1498,
      "velocity": 86,
      "chip": "ym2612"
    },
    {
      "channel": 0,
      "note": 60,
      "start": 43.0294,
      "duration": 0.079,
      "velocity": 86,
      "chip": "ym2612"
    },
    {
      "channel": 0,
      "note": 61,
      "start": 43.1087,
      "duration": 0.1498,
      "velocity": 86,
      "chip": "ym2612"
    },
    {
      "channel": 0,
      "note": 58,
      "start": 43.2588,
      "duration": 0.0792,
      "velocity": 86,
      "chip": "ym2612"
    },
    {
      "channel": 0,
      "note": 59,
      "start": 43.3383,
      "duration": 0.1498,
      "velocity": 86,
      "chip": "ym2612"
    },
    {
      "channel": 0,
      "note": 60,
      "start": 43.4884,
      "duration": 0.0789,
      "velocity": 86,
      "chip": "ym2612"
    },
    {
      "channel": 0,
      "note": 61,
      "start": 43.5676,
      "duration": 0.1498,
      "velocity": 86,
      "chip": "ym2612"
    },
    {
      "channel": 0,
      "note": 47,
      "start": 43.7177,
      "duration": 0.0797,
      "velocity": 86,
      "chip": "ym2612"
    },
    {
      "channel": 1,
      "note": 98,
      "start": 43.7187,
      "duration": 0.079,
      "velocity": 126,
      "chip": "ym2612"
    },
    {
      "channel": 2,
      "note": 81,
      "start": 43.7234,
      "duration": 0.0785,
      "velocity": 127,
      "chip": "ym2612"
    },
    {
      "channel": 3,
      "note": 62,
      "start": 43.7238,
      "duration": 0.0785,
      "velocity": 127,
      "chip": "ym2612"
    },
    {
      "channel": 4,
      "note": 71,
      "start": 43.7484,
      "duration": 0.058,
      "velocity": 127,
      "chip": "ym2612"
    },
    {
      "channel": 0,
      "note": 59,
      "start": 43.7977,
      "duration": 0.0125,
      "velocity": 86,
      "chip": "ym2612"
    },
    {
      "channel": 1,
      "note": 98,
      "start": 43.798,
      "duration": 0.0124,
      "velocity": 126,
      "chip": "ym2612"
    },
    {
      "channel": 2,
      "note": 81,
      "start": 43.8022,
      "duration": 0.0112,
      "velocity": 127,
      "chip": "ym2612"
    },
    {
      "channel": 3,
      "note": 62,
      "start": 43.8024,
      "duration": 0.0111,
      "velocity": 127,
      "chip": "ym2612"
    },
    {
      "channel": 4,
      "note": 71,
      "start": 43.8067,
      "duration": 0.0092,
      "velocity": 127,
      "chip": "ym2612"
    },
    {
      "channel": 0,
      "note": 59,
      "start": 43.8177,
      "duration": 0.0783,
      "velocity": 86,
      "chip": "ym2612"
    },
    {
      "channel": 1,
      "note": 98,
      "start": 43.8179,
      "duration": 0.0783,
      "velocity": 126,
      "chip": "ym2612"
    },
    {
      "channel": 2,
      "note": 81,
      "start": 43.8208,
      "duration": 0.0797,
      "velocity": 127,
      "chip": "ym2612"
    },
    {
      "channel": 3,
      "note": 62,
      "start": 43.8211,
      "duration": 0.0798,
      "velocity": 127,
      "chip": "ym2612"
    },
    {
      "channel": 4,
      "note": 71,
      "start": 43.847,
      "duration": 0.0793,
      "velocity": 127,
      "chip": "ym2612"
    },
    {
      "channel": 0,
      "note": 47,
      "start": 43.8962,
      "duration": 0.0794,
      "velocity": 86,
      "chip": "ym2612"
    },
    {
      "channel": 1,
      "note": 98,
      "start": 43.8964,
      "duration": 0.0793,
      "velocity": 126,
      "chip": "ym2612"
    },
    {
      "channel": 2,
      "note": 81,
      "start": 43.9008,
      "duration": 0.0783,
      "velocity": 127,
      "chip": "ym2612"
    },
    {
      "channel": 3,
      "note": 62,
      "start": 43.901,
      "duration": 0.0781,
      "velocity": 127,
      "chip": "ym2612"
    },
    {
      "channel": 4,
      "note": 71,
      "start": 43.9266,
      "duration": 0.0777,
      "velocity": 127,
      "chip": "ym2612"
    },
    {
      "channel": 0,
      "note": 59,
      "start": 44.0546,
      "duration": 0.0629,
      "velocity": 86,
      "chip": "ym2612"
    },
    {
      "channel": 1,
      "note": 98,
      "start": 44.0548,
      "duration": 0.0631,
      "velocity": 126,
      "chip": "ym2612"
    },
    {
      "channel": 2,
      "note": 81,
      "start": 44.0595,
      "duration": 0.063,
      "velocity": 127,
      "chip": "ym2612"
    },
    {
      "channel": 3,
      "note": 62,
      "start": 44.0599,
      "duration": 0.063,
      "velocity": 127,
      "chip": "ym2612"
    },
    {
      "channel": 4,
      "note": 71,
      "start": 44.0685,
      "duration": 0.0585,
      "velocity": 127,
      "chip": "ym2612"
    },
    {
      "channel": 0,
      "note": 59,
      "start": 44.1178,
      "duration": 0.013,
      "velocity": 86,
      "chip": "ym2612"
    },
    {
      "channel": 1,
      "note": 98,
      "start": 44.1182,
      "duration": 0.0129,
      "velocity": 126,
      "chip": "ym2612"
    },
    {
      "channel": 2,
      "note": 81,
      "start": 44.1228,
      "duration": 0.0126,
      "velocity": 127,
      "chip": "ym2612"
    },
    {
      "channel": 3,
      "note": 62,
      "start": 44.123,
      "duration": 0.0124,
      "velocity": 127,
      "chip": "ym2612"
    },
    {
      "channel": 4,
      "note": 71,
      "start": 44.1272,
      "duration": 0.0104,
      "velocity": 127,
      "chip": "ym2612"
    },
    {
      "channel": 0,
      "note": 47,
      "start": 44.14,
      "duration": 0.0329,
      "velocity": 86,
      "chip": "ym2612"
    },
    {
      "channel": 1,
      "note": 98,
      "start": 44.1402,
      "duration": 0.033,
      "velocity": 126,
      "chip": "ym2612"
    },
    {
      "channel": 2,
      "note": 81,
      "start": 44.1437,
      "duration": 0.0337,
      "velocity": 127,
      "chip": "ym2612"
    },
    {
      "channel": 3,
      "note": 62,
      "start": 44.1441,
      "duration": 0.0336,
      "velocity": 127,
      "chip": "ym2612"
    },
    {
      "channel": 4,
      "note": 71,
      "start": 44.1489,
      "duration": 0.054,
      "velocity": 127,
      "chip": "ym2612"
    },
    {
      "channel": 0,
      "note": 59,
      "start": 44.1731,
      "duration": 0.0791,
      "velocity": 86,
      "chip": "ym2612"
    },
    {
      "channel": 1,
      "note": 98,
      "start": 44.1733,
      "duration": 0.0791,
      "velocity": 126,
      "chip": "ym2612"
    },
    {
      "channel": 2,
      "note": 81,
      "start": 44.1776,
      "duration": 0.0779,
      "velocity": 127,
      "chip": "ym2612"
    },
    {
      "channel": 3,
      "note": 62,
      "start": 44.1778,
      "duration": 0.0777,
      "velocity": 127,
      "chip": "ym2612"
    },
    {
      "channel": 4,
      "note": 71,
      "start": 44.2032,
      "duration": 0.0544,
      "velocity": 127,
      "chip": "ym2612"
    },
    {
      "channel": 0,
      "note": 48,
      "start": 44.26,
      "duration": 0.0783,
      "velocity": 86,
      "chip": "ym2612"
    },
    {
      "channel": 1,
      "note": 99,
      "start": 44.2602,
      "duration": 0.0785,
      "velocity": 126,
      "chip": "ym2612"
    },
    {
      "channel": 2,
      "note": 82,
      "start": 44.2631,
      "duration": 0.1256,
      "velocity": 127,
      "chip": "ym2612"
    },
    {
      "channel": 3,
      "note": 63,
      "start": 44.2634,
      "duration": 0.1257,
      "velocity": 127,
      "chip": "ym2612"
    },
    {
      "channel": 4,
      "note": 72,
      "start": 44.2894,
      "duration": 0.1497,
      "velocity": 127,
      "chip": "ym2612"
    },
    {
      "channel": 0,
      "note": 60,
      "start": 44.3386,
      "duration": 0.1498,
      "velocity": 86,
      "chip": "ym2612"
    },
    {
      "channel": 1,
      "note": 99,
      "start": 44.339,
      "duration": 0.1496,
      "velocity": 126,
      "chip": "ym2612"
    },
    {
      "channel": 2,
      "note": 82,
      "start": 44.389,
      "duration": 0.1029,
      "velocity": 127,
      "chip": "ym2612"
    },
    {
      "channel": 3,
      "note": 63,
      "start": 44.3893,
      "duration": 0.1026,
      "velocity": 127,
      "chip": "ym2612"
    },
    {
      "channel": 4,
      "note": 72,
      "start": 44.4394,
      "duration": 0.0551,
      "velocity": 127,
      "chip": "ym2612"
    },
    {
      "channel": 3,
      "note": 36,
      "start": 44.5579,
      "duration": 0.0026,
      "velocity": 114,
      "chip": "ym2612"
    },
    {
      "channel": 4,
      "note": 36,
      "start": 44.5589,
      "duration": 0.0017,
      "velocity": 114,
      "chip": "ym2612"
    },
    {
      "channel": 3,
      "note": 51,
      "start": 44.562,
      "duration": 20.3886,
      "velocity": 127,
      "chip": "ym2612"
    },
    {
      "channel": 4,
      "note": 51,
      "start": 44.5629,
      "duration": 20.3877,
      "velocity": 127,
      "chip": "ym2612"
    },
    {
      "channel": 0,
      "note": 41,
      "start": 45.5245,
      "duration": 19.4261,
      "velocity": 120,
      "chip": "ym2612"
    }
  ]
}