{
  "track_name": "19 - Distant Blue",
  "duration_sec": 37.597,
  "sample_rate": 44100,
  "note_count": 344,
  "unique_pitches": 22,
  "pitch_range": 33,
  "avg_note_duration": 0.4722,
  "reconstruction_stats": {
    "notes_reconstructed": 344,
    "keyon_events": 344,
    "keyoff_events": 340,
    "orphan_keyons": 4,
    "unique_pitches": 22,
    "pitch_range": 33,
    "avg_duration_sec": 0.4722
  },
  "metadata": {
    "source": "S\\Sorcerer's Kingdom\\19 - Distant Blue.vgm"
  },
  "notes": [
    {
      "channel": 0,
      "note": 85,
      "start": 0.0067,
      "duration": 0.0627,
      "velocity": 102,
      "chip": "ym2612"
    },
    {
      "channel": 1,
      "note": 85,
      "start": 0.0067,
      "duration": 0.5302,
      "velocity": 102,
      "chip": "ym2612"
    },
    {
      "channel": 2,
      "note": 85,
      "start": 0.0068,
      "duration": 0.797,
      "velocity": 102,
      "chip": "ym2612"
    },
    {
      "channel": 0,
      "note": 83,
      "start": 0.2697,
      "duration": 0.0661,
      "velocity": 102,
      "chip": "ym2612"
    },
    {
      "channel": 0,
      "note": 85,
      "start": 0.5369,
      "duration": 0.0658,
      "velocity": 102,
      "chip": "ym2612"
    },
    {
      "channel": 1,
      "note": 85,
      "start": 0.537,
      "duration": 0.5334,
      "velocity": 102,
      "chip": "ym2612"
    },
    {
      "channel": 0,
      "note": 88,
      "start": 0.8037,
      "duration": 0.0656,
      "velocity": 102,
      "chip": "ym2612"
    },
    {
      "channel": 2,
      "note": 88,
      "start": 0.8039,
      "duration": 0.8025,
      "velocity": 102,
      "chip": "ym2612"
    },
    {
      "channel": 0,
      "note": 85,
      "start": 1.0703,
      "duration": 0.0655,
      "velocity": 102,
      "chip": "ym2612"
    },
    {
      "channel": 1,
      "note": 85,
      "start": 1.0705,
      "duration": 0.5358,
      "velocity": 102,
      "chip": "ym2612"
    },
    {
      "channel": 0,
      "note": 83,
      "start": 1.3362,
      "duration": 0.0664,
      "velocity": 102,
      "chip": "ym2612"
    },
    {
      "channel": 0,
      "note": 85,
      "start": 1.6062,
      "duration": 0.0631,
      "velocity": 102,
      "chip": "ym2612"
    },
    {
      "channel": 1,
      "note": 85,
      "start": 1.6063,
      "duration": 0.5307,
      "velocity": 102,
      "chip": "ym2612"
    },
    {
      "channel": 2,
      "note": 85,
      "start": 1.6064,
      "duration": 0.7974,
      "velocity": 102,
      "chip": "ym2612"
    },
    {
      "channel": 0,
      "note": 83,
      "start": 1.8697,
      "duration": 0.0661,
      "velocity": 102,
      "chip": "ym2612"
    },
    {
      "channel": 0,
      "note": 85,
      "start": 2.1369,
      "duration": 0.0658,
      "velocity": 102,
      "chip": "ym2612"
    },
    {
      "channel": 1,
      "note": 85,
      "start": 2.137,
      "duration": 0.5334,
      "velocity": 102,
      "chip": "ym2612"
    },
    {
      "channel": 0,
      "note": 88,
      "start": 2.4037,
      "duration": 0.0656,
      "velocity": 102,
      "chip": "ym2612"
    },
    {
      "channel": 2,
      "note": 88,
      "start": 2.4039,
      "duration": 0.8025,
      "velocity": 102,
      "chip": "ym2612"
    },
    {
      "channel": 0,
      "note": 85,
      "start": 2.6703,
      "duration": 0.0655,
      "velocity": 102,
      "chip": "ym2612"
    },
    {
      "channel": 1,
      "note": 85,
      "start": 2.6705,
      "duration": 0.5358,
      "velocity": 102,
      "chip": "ym2612"
    },
    {
      "channel": 0,
      "note": 83,
      "start": 2.9362,
      "duration": 0.0664,
      "velocity": 102,
      "chip": "ym2612"
    },
    {
      "channel": 0,
      "note": 85,
      "start": 3.2062,
      "duration": 0.0631,
      "velocity": 102,
      "chip": "ym2612"
    },
    {
      "channel": 1,
      "note": 85,
      "start": 3.2063,
      "duration": 0.5307,
      "velocity": 102,
      "chip": "ym2612"
    },
    {
      "channel": 2,
      "note": 85,
      "start": 3.2064,
      "duration": 0.7974,
      "velocity": 102,
      "chip": "ym2612"
    },
    {
      "channel": 0,
      "note": 83,
      "start": 3.4697,
      "duration": 0.0661,
      "velocity": 102,
      "chip": "ym2612"
    },
    {
      "channel": 0,
      "note": 85,
      "start": 3.7369,
      "duration": 0.0658,
      "velocity": 102,
      "chip": "ym2612"
    },
    {
      "channel": 1,
      "note": 85,
      "start": 3.737,
      "duration": 0.5334,
      "velocity": 102,
      "chip": "ym2612"
    },
    {
      "channel": 0,
      "note": 88,
      "start": 4.0037,
      "duration": 0.0656,
      "velocity": 102,
      "chip": "ym2612"
    },
    {
      "channel": 2,
      "note": 88,
      "start": 4.0039,
      "duration": 0.8025,
      "velocity": 102,
      "chip": "ym2612"
    },
    {
      "channel": 0,
      "note": 85,
      "start": 4.2703,
      "duration": 0.0655,
      "velocity": 102,
      "chip": "ym2612"
    },
    {
      "channel": 1,
      "note": 85,
      "start": 4.2705,
      "duration": 0.5358,
      "velocity": 102,
      "chip": "ym2612"
    },
    {
      "channel": 0,
      "note": 83,
      "start": 4.5362,
      "duration": 0.0664,
      "velocity": 102,
      "chip": "ym2612"
    },
    {
      "channel": 0,
      "note": 85,
      "start": 4.8062,
      "duration": 0.0631,
      "velocity": 102,
      "chip": "ym2612"
    },
    {
      "channel": 1,
      "note": 85,
      "start": 4.8063,
      "duration": 0.5307,
      "velocity": 102,
      "chip": "ym2612"
    },
    {
      "channel": 2,
      "note": 85,
      "start": 4.8064,
      "duration": 0.7974,
      "velocity": 102,
      "chip": "ym2612"
    },
    {
      "channel": 0,
      "note": 83,
      "start": 5.0697,
      "duration": 0.0661,
      "velocity": 102,
      "chip": "ym2612"
    },
    {
      "channel": 0,
      "note": 85,
      "start": 5.3369,
      "duration": 0.0658,
      "velocity": 102,
      "chip": "ym2612"
    },
    {
      "channel": 1,
      "note": 85,
      "start": 5.337,
      "duration": 0.5334,
      "velocity": 102,
      "chip": "ym2612"
    },
    {
      "channel": 0,
      "note": 88,
      "start": 5.6037,
      "duration": 0.0656,
      "velocity": 102,
      "chip": "ym2612"
    },
    {
      "channel": 2,
      "note": 88,
      "start": 5.6039,
      "duration": 0.8049,
      "velocity": 102,
      "chip": "ym2612"
    },
    {
      "channel": 0,
      "note": 85,
      "start": 5.8703,
      "duration": 0.0655,
      "velocity": 102,
      "chip": "ym2612"
    },
    {
      "channel": 1,
      "note": 85,
      "start": 5.8705,
      "duration": 0.5382,
      "velocity": 102,
      "chip": "ym2612"
    },
    {
      "channel": 0,
      "note": 83,
      "start": 6.1362,
      "duration": 0.0664,
      "velocity": 102,
      "chip": "ym2612"
    },
    {
      "channel": 0,
      "note": 85,
      "start": 6.4086,
      "duration": 0.0604,
      "velocity": 102,
      "chip": "ym2612"
    },
    {
      "channel": 1,
      "note": 85,
      "start": 6.4087,
      "duration": 0.5287,
      "velocity": 102,
      "chip": "ym2612"
    },
    {
      "channel": 2,
      "note": 85,
      "start": 6.4088,
      "duration": 0.7953,
      "velocity": 102,
      "chip": "ym2612"
    },
    {
      "channel": 3,
      "note": 73,
      "start": 6.4088,
      "duration": 0.9936,
      "velocity": 102,
      "chip": "ym2612"
    },
    {
      "channel": 4,
      "note": 85,
      "start": 6.4089,
      "duration": 0.2612,
      "velocity": 85,
      "chip": "ym2612"
    },
    {
      "channel": 5,
      "note": 85,
      "start": 6.409,
      "duration": 1.5985,
      "velocity": 97,
      "chip": "ym2612"
    },
    {
      "channel": 0,
      "note": 83,
      "start": 6.67,
      "duration": 0.0656,
      "velocity": 102,
      "chip": "ym2612"
    },
    {
      "channel": 4,
      "note": 83,
      "start": 6.6702,
      "duration": 0.2673,
      "velocity": 85,
      "chip": "ym2612"
    },
    {
      "channel": 0,
      "note": 85,
      "start": 6.9373,
      "duration": 0.065,
      "velocity": 102,
      "chip": "ym2612"
    },
    {
      "channel": 1,
      "note": 85,
      "start": 6.9374,
      "duration": 0.5328,
      "velocity": 102,
      "chip": "ym2612"
    },
    {
      "channel": 4,
      "note": 85,
      "start": 6.9375,
      "duration": 0.2667,
      "velocity": 85,
      "chip": "ym2612"
    },
    {
      "channel": 0,
      "note": 88,
      "start": 7.204,
      "duration": 0.065,
      "velocity": 102,
      "chip": "ym2612"
    },
    {
      "channel": 2,
      "note": 88,
      "start": 7.2041,
      "duration": 0.8031,
      "velocity": 102,
      "chip": "ym2612"
    },
    {
      "channel": 4,
      "note": 88,
      "start": 7.2042,
      "duration": 0.8032,
      "velocity": 85,
      "chip": "ym2612"
    },
    {
      "channel": 0,
      "note": 85,
      "start": 7.4701,
      "duration": 0.0656,
      "velocity": 102,
      "chip": "ym2612"
    },
    {
      "channel": 1,
      "note": 85,
      "start": 7.4702,
      "duration": 0.537,
      "velocity": 102,
      "chip": "ym2612"
    },
    {
      "channel": 0,
      "note": 83,
      "start": 7.7361,
      "duration": 0.0662,
      "velocity": 102,
      "chip": "ym2612"
    },
    {
      "channel": 0,
      "note": 85,
      "start": 8.0071,
      "duration": 0.0619,
      "velocity": 102,
      "chip": "ym2612"
    },
    {
      "channel": 1,
      "note": 85,
      "start": 8.0072,
      "duration": 0.5302,
      "velocity": 102,
      "chip": "ym2612"
    },
    {
      "channel": 2,
      "note": 85,
      "start": 8.0073,
      "duration": 0.7968,
      "velocity": 102,
      "chip": "ym2612"
    },
    {
      "channel": 3,
      "note": 76,
      "start": 8.0074,
      "duration": 0.995,
      "velocity": 102,
      "chip": "ym2612"
    },
    {
      "channel": 4,
      "note": 80,
      "start": 8.0075,
      "duration": 0.2626,
      "velocity": 85,
      "chip": "ym2612"
    },
    {
      "channel": 5,
      "note": 88,
      "start": 8.0076,
      "duration": 1.6,
      "velocity": 97,
      "chip": "ym2612"
    },
    {
      "channel": 0,
      "note": 83,
      "start": 8.27,
      "duration": 0.0656,
      "velocity": 102,
      "chip": "ym2612"
    },
    {
      "channel": 4,
      "note": 78,
      "start": 8.2702,
      "duration": 0.2673,
      "velocity": 85,
      "chip": "ym2612"
    },
    {
      "channel": 0,
      "note": 85,
      "start": 8.5373,
      "duration": 0.065,
      "velocity": 102,
      "chip": "ym2612"
    },
    {
      "channel": 1,
      "note": 85,
      "start": 8.5375,
      "duration": 0.5327,
      "velocity": 102,
      "chip": "ym2612"
    },
    {
      "channel": 4,
      "note": 80,
      "start": 8.5376,
      "duration": 0.2667,
      "velocity": 85,
      "chip": "ym2612"
    },
    {
      "channel": 0,
      "note": 88,
      "start": 8.8041,
      "duration": 0.0649,
      "velocity": 102,
      "chip": "ym2612"
    },
    {
      "channel": 2,
      "note": 88,
      "start": 8.8042,
      "duration": 0.8031,
      "velocity": 102,
      "chip": "ym2612"
    },
    {
      "channel": 4,
      "note": 83,
      "start": 8.8043,
      "duration": 0.8031,
      "velocity": 85,
      "chip": "ym2612"
    },
    {
      "channel": 0,
      "note": 85,
      "start": 9.0701,
      "duration": 0.0656,
      "velocity": 102,
      "chip": "ym2612"
    },
    {
      "channel": 1,
      "note": 85,
      "start": 9.0702,
      "duration": 0.537,
      "velocity": 102,
      "chip": "ym2612"
    },
    {
      "channel": 0,
      "note": 83,
      "start": 9.3361,
      "duration": 0.0662,
      "velocity": 102,
      "chip": "ym2612"
    },
    {
      "channel": 0,
      "note": 85,
      "start": 9.6071,
      "duration": 0.0619,
      "velocity": 102,
      "chip": "ym2612"
    },
    {
      "channel": 1,
      "note": 85,
      "start": 9.6072,
      "duration": 0.5302,
      "velocity": 102,
      "chip": "ym2612"
    },
    {
      "channel": 2,
      "note": 85,
      "start": 9.6073,
      "duration": 0.7968,
      "velocity": 102,
      "chip": "ym2612"
    },
    {
      "channel": 3,
      "note": 66,
      "start": 9.6074,
      "duration": 0.995,
      "velocity": 102,
      "chip": "ym2612"
    },
    {
      "channel": 4,
      "note": 78,
      "start": 9.6075,
      "duration": 0.2626,
      "velocity": 85,
      "chip": "ym2612"
    },
    {
      "channel": 5,
      "note": 90,
      "start": 9.6076,
      "duration": 1.5999,
      "velocity": 97,
      "chip": "ym2612"
    },
    {
      "channel": 0,
      "note": 83,
      "start": 9.87,
      "duration": 0.0656,
      "velocity": 102,
      "chip": "ym2612"
    },
    {
      "channel": 4,
      "note": 76,
      "start": 9.8702,
      "duration": 0.2673,
      "velocity": 85,
      "chip": "ym2612"
    },
    {
      "channel": 0,
      "note": 85,
      "start": 10.1373,
      "duration": 0.065,
      "velocity": 102,
      "chip": "ym2612"
    },
    {
      "channel": 1,
      "note": 85,
      "start": 10.1374,
      "duration": 0.5328,
      "velocity": 102,
      "chip": "ym2612"
    },
    {
      "channel": 4,
      "note": 78,
      "start": 10.1375,
      "duration": 0.2667,
      "velocity": 85,
      "chip": "ym2612"
    },
    {
      "channel": 0,
      "note": 88,
      "start": 10.4041,
      "duration": 0.0649,
      "velocity": 102,
      "chip": "ym2612"
    },
    {
      "channel": 2,
      "note": 88,
      "start": 10.4042,
      "duration": 0.8031,
      "velocity": 102,
      "chip": "ym2612"
    },
    {
      "channel": 4,
      "note": 81,
      "start": 10.4043,
      "duration": 0.8032,
      "velocity": 85,
      "chip": "ym2612"
    },
    {
      "channel": 0,
      "note": 85,
      "start": 10.6701,
      "duration": 0.0656,
      "velocity": 102,
      "chip": "ym2612"
    },
    {
      "channel": 1,
      "note": 85,
      "start": 10.6702,
      "duration": 0.537,
      "velocity": 102,
      "chip": "ym2612"
    },
    {
      "channel": 0,
      "note": 83,
      "start": 10.9361,
      "duration": 0.0662,
      "velocity": 102,
      "chip": "ym2612"
    },
    {
      "channel": 0,
      "note": 85,
      "start": 11.2072,
      "duration": 0.0618,
      "velocity": 102,
      "chip": "ym2612"
    },
    {
      "channel": 1,
      "note": 85,
      "start": 11.2072,
      "duration": 0.5296,
      "velocity": 102,
      "chip": "ym2612"
    },
    {
      "channel": 2,
      "note": 85,
      "start": 11.2074,
      "duration": 0.7961,
      "velocity": 102,
      "chip": "ym2612"
    },
    {
      "channel": 3,
      "note": 69,
      "start": 11.2074,
      "duration": 0.995,
      "velocity": 102,
      "chip": "ym2612"
    },
    {
      "channel": 4,
      "note": 83,
      "start": 11.2075,
      "duration": 1.6002,
      "velocity": 85,
      "chip": "ym2612"
    },
    {
      "channel": 5,
      "note": 93,
      "start": 11.2076,
      "duration": 1.6001,
      "velocity": 97,
      "chip": "ym2612"
    },
    {
      "channel": 0,
      "note": 83,
      "start": 11.4695,
      "duration": 0.0663,
      "velocity": 102,
      "chip": "ym2612"
    },
    {
      "channel": 0,
      "note": 85,
      "start": 11.7368,
      "duration": 0.0656,
      "velocity": 102,
      "chip": "ym2612"
    },
    {
      "channel": 1,
      "note": 85,
      "start": 11.7369,
      "duration": 0.5333,
      "velocity": 102,
      "chip": "ym2612"
    },
    {
      "channel": 0,
      "note": 88,
      "start": 12.0034,
      "duration": 0.0656,
      "velocity": 102,
      "chip": "ym2612"
    },
    {
      "channel": 2,
      "note": 88,
      "start": 12.0035,
      "duration": 0.8039,
      "velocity": 102,
      "chip": "ym2612"
    },
    {
      "channel": 0,
      "note": 85,
      "start": 12.2701,
      "duration": 0.0656,
      "velocity": 102,
      "chip": "ym2612"
    },
    {
      "channel": 1,
      "note": 85,
      "start": 12.2702,
      "duration": 0.5372,
      "velocity": 102,
      "chip": "ym2612"
    },
    {
      "channel": 0,
      "note": 83,
      "start": 12.5361,
      "duration": 0.0663,
      "velocity": 102,
      "chip": "ym2612"
    },
    {
      "channel": 0,
      "note": 80,
      "start": 12.8074,
      "duration": 0.0616,
      "velocity": 102,
      "chip": "ym2612"
    },
    {
      "channel": 1,
      "note": 80,
      "start": 12.8075,
      "duration": 0.5299,
      "velocity": 102,
      "chip": "ym2612"
    },
    {
      "channel": 2,
      "note": 80,
      "start": 12.8076,
      "duration": 0.7973,
      "velocity": 102,
      "chip": "ym2612"
    },
    {
      "channel": 3,
      "note": 64,
      "start": 12.8076,
      "duration": 0.9948,
      "velocity": 102,
      "chip": "ym2612"
    },
    {
      "channel": 4,
      "note": 76,
      "start": 12.8077,
      "duration": 0.2624,
      "velocity": 85,
      "chip": "ym2612"
    },
    {
      "channel": 5,
      "note": 92,
      "start": 12.8078,
      "duration": 1.5998,
      "velocity": 97,
      "chip": "ym2612"
    },
    {
      "channel": 0,
      "note": 78,
      "start": 13.07,
      "duration": 0.0656,
      "velocity": 102,
      "chip": "ym2612"
    },
    {
      "channel": 4,
      "note": 75,
      "start": 13.0702,
      "duration": 0.2674,
      "velocity": 85,
      "chip": "ym2612"
    },
    {
      "channel": 0,
      "note": 80,
      "start": 13.3374,
      "duration": 0.0649,
      "velocity": 102,
      "chip": "ym2612"
    },
    {
      "channel": 1,
      "note": 80,
      "start": 13.3375,
      "duration": 0.5335,
      "velocity": 102,
      "chip": "ym2612"
    },
    {
      "channel": 4,
      "note": 76,
      "start": 13.3376,
      "duration": 0.2674,
      "velocity": 85,
      "chip": "ym2612"
    },
    {
      "channel": 0,
      "note": 83,
      "start": 13.6048,
      "duration": 0.0642,
      "velocity": 102,
      "chip": "ym2612"
    },
    {
      "channel": 2,
      "note": 83,
      "start": 13.6049,
      "duration": 0.8024,
      "velocity": 102,
      "chip": "ym2612"
    },
    {
      "channel": 4,
      "note": 78,
      "start": 13.6051,
      "duration": 0.8024,
      "velocity": 85,
      "chip": "ym2612"
    },
    {
      "channel": 0,
      "note": 80,
      "start": 13.8709,
      "duration": 0.0648,
      "velocity": 102,
      "chip": "ym2612"
    },
    {
      "channel": 1,
      "note": 80,
      "start": 13.871,
      "duration": 0.5362,
      "velocity": 102,
      "chip": "ym2612"
    },
    {
      "channel": 0,
      "note": 78,
      "start": 14.1361,
      "duration": 0.0662,
      "velocity": 102,
      "chip": "ym2612"
    },
    {
      "channel": 0,
      "note": 80,
      "start": 14.4072,
      "duration": 0.0619,
      "velocity": 102,
      "chip": "ym2612"
    },
    {
      "channel": 1,
      "note": 80,
      "start": 14.4073,
      "duration": 0.5302,
      "velocity": 102,
      "chip": "ym2612"
    },
    {
      "channel": 2,
      "note": 80,
      "start": 14.4074,
      "duration": 0.7976,
      "velocity": 102,
      "chip": "ym2612"
    },
    {
      "channel": 3,
      "note": 68,
      "start": 14.4074,
      "duration": 0.995,
      "velocity": 102,
      "chip": "ym2612"
    },
    {
      "channel": 4,
      "note": 80,
      "start": 14.4076,
      "duration": 0.2626,
      "velocity": 85,
      "chip": "ym2612"
    },
    {
      "channel": 5,
      "note": 88,
      "start": 14.4076,
      "duration": 1.5999,
      "velocity": 97,
      "chip": "ym2612"
    },
    {
      "channel": 0,
      "note": 78,
      "start": 14.67,
      "duration": 0.0656,
      "velocity": 102,
      "chip": "ym2612"
    },
    {
      "channel": 4,
      "note": 78,
      "start": 14.6702,
      "duration": 0.2674,
      "velocity": 85,
      "chip": "ym2612"
    },
    {
      "channel": 0,
      "note": 80,
      "start": 14.9374,
      "duration": 0.065,
      "velocity": 102,
      "chip": "ym2612"
    },
    {
      "channel": 1,
      "note": 80,
      "start": 14.9375,
      "duration": 0.5335,
      "velocity": 102,
      "chip": "ym2612"
    },
    {
      "channel": 4,
      "note": 80,
      "start": 14.9376,
      "duration": 0.2674,
      "velocity": 85,
      "chip": "ym2612"
    },
    {
      "channel": 0,
      "note": 83,
      "start": 15.2049,
      "duration": 0.0641,
      "velocity": 102,
      "chip": "ym2612"
    },
    {
      "channel": 2,
      "note": 83,
      "start": 15.205,
      "duration": 0.8023,
      "velocity": 102,
      "chip": "ym2612"
    },
    {
      "channel": 4,
      "note": 83,
      "start": 15.2051,
      "duration": 0.8024,
      "velocity": 85,
      "chip": "ym2612"
    },
    {
      "channel": 0,
      "note": 80,
      "start": 15.4709,
      "duration": 0.0648,
      "velocity": 102,
      "chip": "ym2612"
    },
    {
      "channel": 1,
      "note": 80,
      "start": 15.471,
      "duration": 0.5362,
      "velocity": 102,
      "chip": "ym2612"
    },
    {
      "channel": 0,
      "note": 78,
      "start": 15.7361,
      "duration": 0.0663,
      "velocity": 102,
      "chip": "ym2612"
    },
    {
      "channel": 0,
      "note": 80,
      "start": 16.0072,
      "duration": 0.0618,
      "velocity": 102,
      "chip": "ym2612"
    },
    {
      "channel": 1,
      "note": 80,
      "start": 16.0072,
      "duration": 0.5302,
      "velocity": 102,
      "chip": "ym2612"
    },
    {
      "channel": 2,
      "note": 80,
      "start": 16.0074,
      "duration": 0.7975,
      "velocity": 102,
      "chip": "ym2612"
    },
    {
      "channel": 3,
      "note": 69,
      "start": 16.0074,
      "duration": 0.995,
      "velocity": 102,
      "chip": "ym2612"
    },
    {
      "channel": 4,
      "note": 85,
      "start": 16.0076,
      "duration": 0.2626,
      "velocity": 85,
      "chip": "ym2612"
    },
    {
      "channel": 5,
      "note": 90,
      "start": 16.0076,
      "duration": 1.5994,
      "velocity": 97,
      "chip": "ym2612"
    },
    {
      "channel": 0,
      "note": 78,
      "start": 16.27,
      "duration": 0.0656,
      "velocity": 102,
      "chip": "ym2612"
    },
    {
      "channel": 4,
      "note": 84,
      "start": 16.2702,
      "duration": 0.2674,
      "velocity": 85,
      "chip": "ym2612"
    },
    {
      "channel": 0,
      "note": 80,
      "start": 16.5374,
      "duration": 0.0649,
      "velocity": 102,
      "chip": "ym2612"
    },
    {
      "channel": 1,
      "note": 80,
      "start": 16.5375,
      "duration": 0.5335,
      "velocity": 102,
      "chip": "ym2612"
    },
    {
      "channel": 4,
      "note": 85,
      "start": 16.5376,
      "duration": 0.2674,
      "velocity": 85,
      "chip": "ym2612"
    },
    {
      "channel": 0,
      "note": 83,
      "start": 16.8048,
      "duration": 0.0642,
      "velocity": 102,
      "chip": "ym2612"
    },
    {
      "channel": 2,
      "note": 83,
      "start": 16.8049,
      "duration": 0.8018,
      "velocity": 102,
      "chip": "ym2612"
    },
    {
      "channel": 4,
      "note": 88,
      "start": 16.8051,
      "duration": 0.8018,
      "velocity": 85,
      "chip": "ym2612"
    },
    {
      "channel": 0,
      "note": 80,
      "start": 17.0709,
      "duration": 0.0648,
      "velocity": 102,
      "chip": "ym2612"
    },
    {
      "channel": 1,
      "note": 80,
      "start": 17.071,
      "duration": 0.5357,
      "velocity": 102,
      "chip": "ym2612"
    },
    {
      "channel": 0,
      "note": 78,
      "start": 17.3361,
      "duration": 0.0662,
      "velocity": 102,
      "chip": "ym2612"
    },
    {
      "channel": 0,
      "note": 80,
      "start": 17.6066,
      "duration": 0.0624,
      "velocity": 102,
      "chip": "ym2612"
    },
    {
      "channel": 1,
      "note": 80,
      "start": 17.6067,
      "duration": 0.5301,
      "velocity": 102,
      "chip": "ym2612"
    },
    {
      "channel": 2,
      "note": 80,
      "start": 17.6068,
      "duration": 0.7968,
      "velocity": 102,
      "chip": "ym2612"
    },
    {
      "channel": 3,
      "note": 71,
      "start": 17.6068,
      "duration": 0.9956,
      "velocity": 102,
      "chip": "ym2612"
    },
    {
      "channel": 4,
      "note": 90,
      "start": 17.607,
      "duration": 1.5999,
      "velocity": 85,
      "chip": "ym2612"
    },
    {
      "channel": 5,
      "note": 87,
      "start": 17.6071,
      "duration": 1.6,
      "velocity": 97,
      "chip": "ym2612"
    },
    {
      "channel": 0,
      "note": 78,
      "start": 17.8695,
      "duration": 0.0663,
      "velocity": 102,
      "chip": "ym2612"
    },
    {
      "channel": 0,
      "note": 80,
      "start": 18.1368,
      "duration": 0.0656,
      "velocity": 102,
      "chip": "ym2612"
    },
    {
      "channel": 1,
      "note": 80,
      "start": 18.1369,
      "duration": 0.5333,
      "velocity": 102,
      "chip": "ym2612"
    },
    {
      "channel": 0,
      "note": 83,
      "start": 18.4035,
      "duration": 0.0655,
      "velocity": 102,
      "chip": "ym2612"
    },
    {
      "channel": 2,
      "note": 83,
      "start": 18.4037,
      "duration": 0.8031,
      "velocity": 102,
      "chip": "ym2612"
    },
    {
      "channel": 0,
      "note": 80,
      "start": 18.6702,
      "duration": 0.0656,
      "velocity": 102,
      "chip": "ym2612"
    },
    {
      "channel": 1,
      "note": 80,
      "start": 18.6702,
      "duration": 0.5365,
      "velocity": 102,
      "chip": "ym2612"
    },
    {
      "channel": 0,
      "note": 83,
      "start": 18.9362,
      "duration": 0.0662,
      "velocity": 102,
      "chip": "ym2612"
    },
    {
      "channel": 0,
      "note": 85,
      "start": 19.2066,
      "duration": 0.0624,
      "velocity": 102,
      "chip": "ym2612"
    },
    {
      "channel": 1,
      "note": 85,
      "start": 19.2067,
      "duration": 0.5307,
      "velocity": 102,
      "chip": "ym2612"
    },
    {
      "channel": 2,
      "note": 85,
      "start": 19.2068,
      "duration": 0.7973,
      "velocity": 102,
      "chip": "ym2612"
    },
    {
      "channel": 3,
      "note": 73,
      "start": 19.2068,
      "duration": 0.9956,
      "velocity": 102,
      "chip": "ym2612"
    },
    {
      "channel": 4,
      "note": 85,
      "start": 19.207,
      "duration": 0.2631,
      "velocity": 85,
      "chip": "ym2612"
    },
    {
      "channel": 5,
      "note": 85,
      "start": 19.2071,
      "duration": 1.6004,
      "velocity": 97,
      "chip": "ym2612"
    },
    {
      "channel": 0,
      "note": 83,
      "start": 19.47,
      "duration": 0.0656,
      "velocity": 102,
      "chip": "ym2612"
    },
    {
      "channel": 4,
      "note": 83,
      "start": 19.4702,
      "duration": 0.2673,
      "velocity": 85,
      "chip": "ym2612"
    },
    {
      "channel": 0,
      "note": 85,
      "start": 19.7373,
      "duration": 0.065,
      "velocity": 102,
      "chip": "ym2612"
    },
    {
      "channel": 1,
      "note": 85,
      "start": 19.7374,
      "duration": 0.5328,
      "velocity": 102,
      "chip": "ym2612"
    },
    {
      "channel": 4,
      "note": 85,
      "start": 19.7375,
      "duration": 0.2667,
      "velocity": 85,
      "chip": "ym2612"
    },
    {
      "channel": 0,
      "note": 88,
      "start": 20.004,
      "duration": 0.065,
      "velocity": 102,
      "chip": "ym2612"
    },
    {
      "channel": 2,
      "note": 88,
      "start": 20.0041,
      "duration": 0.8031,
      "velocity": 102,
      "chip": "ym2612"
    },
    {
      "channel": 4,
      "note": 88,
      "start": 20.0042,
      "duration": 0.8032,
      "velocity": 85,
      "chip": "ym2612"
    },
    {
      "channel": 0,
      "note": 85,
      "start": 20.2701,
      "duration": 0.0656,
      "velocity": 102,
      "chip": "ym2612"
    },
    {
      "channel": 1,
      "note": 85,
      "start": 20.2702,
      "duration": 0.537,
      "velocity": 102,
      "chip": "ym2612"
    },
    {
      "channel": 0,
      "note": 83,
      "start": 20.5361,
      "duration": 0.0662,
      "velocity": 102,
      "chip": "ym2612"
    },
    {
      "channel": 0,
      "note": 85,
      "start": 20.8071,
      "duration": 0.0619,
      "velocity": 102,
      "chip": "ym2612"
    },
    {
      "channel": 1,
      "note": 85,
      "start": 20.8072,
      "duration": 0.5302,
      "velocity": 102,
      "chip": "ym2612"
    },
    {
      "channel": 2,
      "note": 85,
      "start": 20.8073,
      "duration": 0.7968,
      "velocity": 102,
      "chip": "ym2612"
    },
    {
      "channel": 3,
      "note": 76,
      "start": 20.8074,
      "duration": 0.995,
      "velocity": 102,
      "chip": "ym2612"
    },
    {
      "channel": 4,
      "note": 80,
      "start": 20.8075,
      "duration": 0.2626,
      "velocity": 85,
      "chip": "ym2612"
    },
    {
      "channel": 5,
      "note": 88,
      "start": 20.8076,
      "duration": 1.6,
      "velocity": 97,
      "chip": "ym2612"
    },
    {
      "channel": 0,
      "note": 83,
      "start": 21.07,
      "duration": 0.0656,
      "velocity": 102,
      "chip": "ym2612"
    },
    {
      "channel": 4,
      "note": 78,
      "start": 21.0702,
      "duration": 0.2673,
      "velocity": 85,
      "chip": "ym2612"
    },
    {
      "channel": 0,
      "note": 85,
      "start": 21.3373,
      "duration": 0.065,
      "velocity": 102,
      "chip": "ym2612"
    },
    {
      "channel": 1,
      "note": 85,
      "start": 21.3375,
      "duration": 0.5327,
      "velocity": 102,
      "chip": "ym2612"
    },
    {
      "channel": 4,
      "note": 80,
      "start": 21.3376,
      "duration": 0.2667,
      "velocity": 85,
      "chip": "ym2612"
    },
    {
      "channel": 0,
      "note": 88,
      "start": 21.6041,
      "duration": 0.0649,
      "velocity": 102,
      "chip": "ym2612"
    },
    {
      "channel": 2,
      "note": 88,
      "start": 21.6042,
      "duration": 0.8031,
      "velocity": 102,
      "chip": "ym2612"
    },
    {
      "channel": 4,
      "note": 83,
      "start": 21.6043,
      "duration": 0.8031,
      "velocity": 85,
      "chip": "ym2612"
    },
    {
      "channel": 0,
      "note": 85,
      "start": 21.8701,
      "duration": 0.0656,
      "velocity": 102,
      "chip": "ym2612"
    },
    {
      "channel": 1,
      "note": 85,
      "start": 21.8702,
      "duration": 0.537,
      "velocity": 102,
      "chip": "ym2612"
    },
    {
      "channel": 0,
      "note": 83,
      "start": 22.1361,
      "duration": 0.0662,
      "velocity": 102,
      "chip": "ym2612"
    },
    {
      "channel": 0,
      "note": 85,
      "start": 22.4071,
      "duration": 0.0619,
      "velocity": 102,
      "chip": "ym2612"
    },
    {
      "channel": 1,
      "note": 85,
      "start": 22.4072,
      "duration": 0.5302,
      "velocity": 102,
      "chip": "ym2612"
    },
    {
      "channel": 2,
      "note": 85,
      "start": 22.4073,
      "duration": 0.7968,
      "velocity": 102,
      "chip": "ym2612"
    },
    {
      "channel": 3,
      "note": 66,
      "start": 22.4074,
      "duration": 0.995,
      "velocity": 102,
      "chip": "ym2612"
    },
    {
      "channel": 4,
      "note": 78,
      "start": 22.4075,
      "duration": 0.2626,
      "velocity": 85,
      "chip": "ym2612"
    },
    {
      "channel": 5,
      "note": 90,
      "start": 22.4076,
      "duration": 1.5999,
      "velocity": 97,
      "chip": "ym2612"
    },
    {
      "channel": 0,
      "note": 83,
      "start": 22.67,
      "duration": 0.0656,
      "velocity": 102,
      "chip": "ym2612"
    },
    {
      "channel": 4,
      "note": 76,
      "start": 22.6702,
      "duration": 0.2673,
      "velocity": 85,
      "chip": "ym2612"
    },
    {
      "channel": 0,
      "note": 85,
      "start": 22.9373,
      "duration": 0.065,
      "velocity": 102,
      "chip": "ym2612"
    },
    {
      "channel": 1,
      "note": 85,
      "start": 22.9374,
      "duration": 0.5328,
      "velocity": 102,
      "chip": "ym2612"
    },
    {
      "channel": 4,
      "note": 78,
      "start": 22.9375,
      "duration": 0.2667,
      "velocity": 85,
      "chip": "ym2612"
    },
    {
      "channel": 0,
      "note": 88,
      "start": 23.2041,
      "duration": 0.0649,
      "velocity": 102,
      "chip": "ym2612"
    },
    {
      "channel": 2,
      "note": 88,
      "start": 23.2042,
      "duration": 0.8031,
      "velocity": 102,
      "chip": "ym2612"
    },
    {
      "channel": 4,
      "note": 81,
      "start": 23.2043,
      "duration": 0.8032,
      "velocity": 85,
      "chip": "ym2612"
    },
    {
      "channel": 0,
      "note": 85,
      "start": 23.4701,
      "duration": 0.0656,
      "velocity": 102,
      "chip": "ym2612"
    },
    {
      "channel": 1,
      "note": 85,
      "start": 23.4702,
      "duration": 0.537,
      "velocity": 102,
      "chip": "ym2612"
    },
    {
      "channel": 0,
      "note": 83,
      "start": 23.7361,
      "duration": 0.0662,
      "velocity": 102,
      "chip": "ym2612"
    },
    {
      "channel": 0,
      "note": 85,
      "start": 24.0072,
      "duration": 0.0618,
      "velocity": 102,
      "chip": "ym2612"
    },
    {
      "channel": 1,
      "note": 85,
      "start": 24.0072,
      "duration": 0.5296,
      "velocity": 102,
      "chip": "ym2612"
    },
    {
      "channel": 2,
      "note": 85,
      "start": 24.0074,
      "duration": 0.7961,
      "velocity": 102,
      "chip": "ym2612"
    },
    {
      "channel": 3,
      "note": 69,
      "start": 24.0074,
      "duration": 0.995,
      "velocity": 102,
      "chip": "ym2612"
    },
    {
      "channel": 4,
      "note": 83,
      "start": 24.0075,
      "duration": 1.6002,
      "velocity": 85,
      "chip": "ym2612"
    },
    {
      "channel": 5,
      "note": 93,
      "start": 24.0076,
      "duration": 1.6001,
      "velocity": 97,
      "chip": "ym2612"
    },
    {
      "channel": 0,
      "note": 83,
      "start": 24.2695,
      "duration": 0.0663,
      "velocity": 102,
      "chip": "ym2612"
    },
    {
      "channel": 0,
      "note": 85,
      "start": 24.5368,
      "duration": 0.0656,
      "velocity": 102,
      "chip": "ym2612"
    },
    {
      "channel": 1,
      "note": 85,
      "start": 24.5369,
      "duration": 0.5333,
      "velocity": 102,
      "chip": "ym2612"
    },
    {
      "channel": 0,
      "note": 88,
      "start": 24.8034,
      "duration": 0.0656,
      "velocity": 102,
      "chip": "ym2612"
    },
    {
      "channel": 2,
      "note": 88,
      "start": 24.8035,
      "duration": 0.8039,
      "velocity": 102,
      "chip": "ym2612"
    },
    {
      "channel": 0,
      "note": 85,
      "start": 25.0701,
      "duration": 0.0656,
      "velocity": 102,
      "chip": "ym2612"
    },
    {
      "channel": 1,
      "note": 85,
      "start": 25.0702,
      "duration": 0.5372,
      "velocity": 102,
      "chip": "ym2612"
    },
    {
      "channel": 0,
      "note": 83,
      "start": 25.3361,
      "duration": 0.0663,
      "velocity": 102,
      "chip": "ym2612"
    },
    {
      "channel": 0,
      "note": 80,
      "start": 25.6074,
      "duration": 0.0616,
      "velocity": 102,
      "chip": "ym2612"
    },
    {
      "channel": 1,
      "note": 80,
      "start": 25.6075,
      "duration": 0.5299,
      "velocity": 102,
      "chip": "ym2612"
    },
    {
      "channel": 2,
      "note": 80,
      "start": 25.6076,
      "duration": 0.7966,
      "velocity": 102,
      "chip": "ym2612"
    },
    {
      "channel": 3,
      "note": 64,
      "start": 25.6076,
      "duration": 0.9948,
      "velocity": 102,
      "chip": "ym2612"
    },
    {
      "channel": 4,
      "note": 76,
      "start": 25.6077,
      "duration": 0.2624,
      "velocity": 85,
      "chip": "ym2612"
    },
    {
      "channel": 5,
      "note": 92,
      "start": 25.6078,
      "duration": 1.5998,
      "velocity": 97,
      "chip": "ym2612"
    },
    {
      "channel": 0,
      "note": 78,
      "start": 25.87,
      "duration": 0.0656,
      "velocity": 102,
      "chip": "ym2612"
    },
    {
      "channel": 4,
      "note": 75,
      "start": 25.8702,
      "duration": 0.2674,
      "velocity": 85,
      "chip": "ym2612"
    },
    {
      "channel": 0,
      "note": 80,
      "start": 26.1374,
      "duration": 0.0649,
      "velocity": 102,
      "chip": "ym2612"
    },
    {
      "channel": 1,
      "note": 80,
      "start": 26.1375,
      "duration": 0.5327,
      "velocity": 102,
      "chip": "ym2612"
    },
    {
      "channel": 4,
      "note": 76,
      "start": 26.1376,
      "duration": 0.2667,
      "velocity": 85,
      "chip": "ym2612"
    },
    {
      "channel": 0,
      "note": 83,
      "start": 26.4041,
      "duration": 0.0649,
      "velocity": 102,
      "chip": "ym2612"
    },
    {
      "channel": 2,
      "note": 83,
      "start": 26.4042,
      "duration": 0.8031,
      "velocity": 102,
      "chip": "ym2612"
    },
    {
      "channel": 4,
      "note": 78,
      "start": 26.4044,
      "duration": 0.8031,
      "velocity": 85,
      "chip": "ym2612"
    },
    {
      "channel": 0,
      "note": 80,
      "start": 26.6702,
      "duration": 0.0656,
      "velocity": 102,
      "chip": "ym2612"
    },
    {
      "channel": 1,
      "note": 80,
      "start": 26.6703,
      "duration": 0.537,
      "velocity": 102,
      "chip": "ym2612"
    },
    {
      "channel": 0,
      "note": 78,
      "start": 26.9361,
      "duration": 0.0662,
      "velocity": 102,
      "chip": "ym2612"
    },
    {
      "channel": 0,
      "note": 80,
      "start": 27.2072,
      "duration": 0.0619,
      "velocity": 102,
      "chip": "ym2612"
    },
    {
      "channel": 1,
      "note": 80,
      "start": 27.2073,
      "duration": 0.5302,
      "velocity": 102,
      "chip": "ym2612"
    },
    {
      "channel": 2,
      "note": 80,
      "start": 27.2074,
      "duration": 0.7969,
      "velocity": 102,
      "chip": "ym2612"
    },
    {
      "channel": 3,
      "note": 68,
      "start": 27.2074,
      "duration": 0.995,
      "velocity": 102,
      "chip": "ym2612"
    },
    {
      "channel": 4,
      "note": 80,
      "start": 27.2076,
      "duration": 0.2626,
      "velocity": 85,
      "chip": "ym2612"
    },
    {
      "channel": 5,
      "note": 88,
      "start": 27.2076,
      "duration": 1.5999,
      "velocity": 97,
      "chip": "ym2612"
    },
    {
      "channel": 0,
      "note": 78,
      "start": 27.47,
      "duration": 0.0656,
      "velocity": 102,
      "chip": "ym2612"
    },
    {
      "channel": 4,
      "note": 78,
      "start": 27.4702,
      "duration": 0.2674,
      "velocity": 85,
      "chip": "ym2612"
    },
    {
      "channel": 0,
      "note": 80,
      "start": 27.7374,
      "duration": 0.065,
      "velocity": 102,
      "chip": "ym2612"
    },
    {
      "channel": 1,
      "note": 80,
      "start": 27.7375,
      "duration": 0.5327,
      "velocity": 102,
      "chip": "ym2612"
    },
    {
      "channel": 4,
      "note": 80,
      "start": 27.7376,
      "duration": 0.2667,
      "velocity": 85,
      "chip": "ym2612"
    },
    {
      "channel": 0,
      "note": 83,
      "start": 28.0042,
      "duration": 0.0648,
      "velocity": 102,
      "chip": "ym2612"
    },
    {
      "channel": 2,
      "note": 83,
      "start": 28.0043,
      "duration": 0.803,
      "velocity": 102,
      "chip": "ym2612"
    },
    {
      "channel": 4,
      "note": 83,
      "start": 28.0044,
      "duration": 0.8031,
      "velocity": 85,
      "chip": "ym2612"
    },
    {
      "channel": 0,
      "note": 80,
      "start": 28.2702,
      "duration": 0.0656,
      "velocity": 102,
      "chip": "ym2612"
    },
    {
      "channel": 1,
      "note": 80,
      "start": 28.2703,
      "duration": 0.537,
      "velocity": 102,
      "chip": "ym2612"
    },
    {
      "channel": 0,
      "note": 78,
      "start": 28.5361,
      "duration": 0.0663,
      "velocity": 102,
      "chip": "ym2612"
    },
    {
      "channel": 0,
      "note": 80,
      "start": 28.8072,
      "duration": 0.0618,
      "velocity": 102,
      "chip": "ym2612"
    },
    {
      "channel": 1,
      "note": 80,
      "start": 28.8072,
      "duration": 0.5302,
      "velocity": 102,
      "chip": "ym2612"
    },
    {
      "channel": 2,
      "note": 80,
      "start": 28.8074,
      "duration": 0.7968,
      "velocity": 102,
      "chip": "ym2612"
    },
    {
      "channel": 3,
      "note": 69,
      "start": 28.8074,
      "duration": 0.995,
      "velocity": 102,
      "chip": "ym2612"
    },
    {
      "channel": 4,
      "note": 85,
      "start": 28.8076,
      "duration": 0.2626,
      "velocity": 85,
      "chip": "ym2612"
    },
    {
      "channel": 5,
      "note": 90,
      "start": 28.8076,
      "duration": 1.5994,
      "velocity": 97,
      "chip": "ym2612"
    },
    {
      "channel": 0,
      "note": 78,
      "start": 29.07,
      "duration": 0.0656,
      "velocity": 102,
      "chip": "ym2612"
    },
    {
      "channel": 4,
      "note": 84,
      "start": 29.0702,
      "duration": 0.2674,
      "velocity": 85,
      "chip": "ym2612"
    },
    {
      "channel": 0,
      "note": 80,
      "start": 29.3374,
      "duration": 0.0649,
      "velocity": 102,
      "chip": "ym2612"
    },
    {
      "channel": 1,
      "note": 80,
      "start": 29.3375,
      "duration": 0.5327,
      "velocity": 102,
      "chip": "ym2612"
    },
    {
      "channel": 4,
      "note": 85,
      "start": 29.3376,
      "duration": 0.2667,
      "velocity": 85,
      "chip": "ym2612"
    },
    {
      "channel": 0,
      "note": 83,
      "start": 29.6041,
      "duration": 0.0649,
      "velocity": 102,
      "chip": "ym2612"
    },
    {
      "channel": 2,
      "note": 83,
      "start": 29.6042,
      "duration": 0.8025,
      "velocity": 102,
      "chip": "ym2612"
    },
    {
      "channel": 4,
      "note": 88,
      "start": 29.6044,
      "duration": 0.8025,
      "velocity": 85,
      "chip": "ym2612"
    },
    {
      "channel": 0,
      "note": 80,
      "start": 29.8702,
      "duration": 0.0656,
      "velocity": 102,
      "chip": "ym2612"
    },
    {
      "channel": 1,
      "note": 80,
      "start": 29.8702,
      "duration": 0.5365,
      "velocity": 102,
      "chip": "ym2612"
    },
    {
      "channel": 0,
      "note": 78,
      "start": 30.1361,
      "duration": 0.0662,
      "velocity": 102,
      "chip": "ym2612"
    },
    {
      "channel": 0,
      "note": 80,
      "start": 30.4066,
      "duration": 0.0624,
      "velocity": 102,
      "chip": "ym2612"
    },
    {
      "channel": 1,
      "note": 80,
      "start": 30.4067,
      "duration": 0.5301,
      "velocity": 102,
      "chip": "ym2612"
    },
    {
      "channel": 2,
      "note": 80,
      "start": 30.4068,
      "duration": 0.7968,
      "velocity": 102,
      "chip": "ym2612"
    },
    {
      "channel": 3,
      "note": 71,
      "start": 30.4068,
      "duration": 0.9956,
      "velocity": 102,
      "chip": "ym2612"
    },
    {
      "channel": 4,
      "note": 90,
      "start": 30.407,
      "duration": 1.5993,
      "velocity": 85,
      "chip": "ym2612"
    },
    {
      "channel": 5,
      "note": 87,
      "start": 30.4071,
      "duration": 1.5993,
      "velocity": 97,
      "chip": "ym2612"
    },
    {
      "channel": 0,
      "note": 78,
      "start": 30.6695,
      "duration": 0.0663,
      "velocity": 102,
      "chip": "ym2612"
    },
    {
      "channel": 0,
      "note": 80,
      "start": 30.9368,
      "duration": 0.0656,
      "velocity": 102,
      "chip": "ym2612"
    },
    {
      "channel": 1,
      "note": 80,
      "start": 30.9369,
      "duration": 0.5333,
      "velocity": 102,
      "chip": "ym2612"
    },
    {
      "channel": 0,
      "note": 83,
      "start": 31.2035,
      "duration": 0.0655,
      "velocity": 102,
      "chip": "ym2612"
    },
    {
      "channel": 2,
      "note": 83,
      "start": 31.2037,
      "duration": 0.8024,
      "velocity": 102,
      "chip": "ym2612"
    },
    {
      "channel": 0,
      "note": 80,
      "start": 31.4702,
      "duration": 0.0656,
      "velocity": 102,
      "chip": "ym2612"
    },
    {
      "channel": 1,
      "note": 80,
      "start": 31.4702,
      "duration": 0.5358,
      "velocity": 102,
      "chip": "ym2612"
    },
    {
      "channel": 0,
      "note": 83,
      "start": 31.7362,
      "duration": 0.0662,
      "velocity": 102,
      "chip": "ym2612"
    },
    {
      "channel": 0,
      "note": 85,
      "start": 32.006,
      "duration": 0.063,
      "velocity": 102,
      "chip": "ym2612"
    },
    {
      "channel": 1,
      "note": 85,
      "start": 32.0061,
      "duration": 0.2647,
      "velocity": 102,
      "chip": "ym2612"
    },
    {
      "channel": 2,
      "note": 85,
      "start": 32.0061,
      "duration": 0.2647,
      "velocity": 102,
      "chip": "ym2612"
    },
    {
      "channel": 3,
      "note": 73,
      "start": 32.0062,
      "duration": 5.1962,
      "velocity": 102,
      "chip": "ym2612"
    },
    {
      "channel": 4,
      "note": 85,
      "start": 32.0063,
      "duration": 4.8002,
      "velocity": 85,
      "chip": "ym2612"
    },
    {
      "channel": 5,
      "note": 89,
      "start": 32.0064,
      "duration": 4.8002,
      "velocity": 97,
      "chip": "ym2612"
    },
    {
      "channel": 0,
      "note": 87,
      "start": 32.2707,
      "duration": 0.065,
      "velocity": 102,
      "chip": "ym2612"
    },
    {
      "channel": 1,
      "note": 87,
      "start": 32.2708,
      "duration": 0.2666,
      "velocity": 102,
      "chip": "ym2612"
    },
    {
      "channel": 2,
      "note": 87,
      "start": 32.2709,
      "duration": 0.2667,
      "velocity": 102,
      "chip": "ym2612"
    },
    {
      "channel": 0,
      "note": 88,
      "start": 32.5374,
      "duration": 0.065,
      "velocity": 102,
      "chip": "ym2612"
    },
    {
      "channel": 1,
      "note": 88,
      "start": 32.5375,
      "duration": 0.2666,
      "velocity": 102,
      "chip": "ym2612"
    },
    {
      "channel": 2,
      "note": 88,
      "start": 32.5376,
      "duration": 0.2666,
      "velocity": 102,
      "chip": "ym2612"
    },
    {
      "channel": 0,
      "note": 90,
      "start": 32.8041,
      "duration": 0.065,
      "velocity": 102,
      "chip": "ym2612"
    },
    {
      "channel": 1,
      "note": 90,
      "start": 32.8042,
      "duration": 0.2667,
      "velocity": 102,
      "chip": "ym2612"
    },
    {
      "channel": 2,
      "note": 90,
      "start": 32.8042,
      "duration": 0.2667,
      "velocity": 102,
      "chip": "ym2612"
    },
    {
      "channel": 0,
      "note": 92,
      "start": 33.0708,
      "duration": 0.065,
      "velocity": 102,
      "chip": "ym2612"
    },
    {
      "channel": 1,
      "note": 92,
      "start": 33.0708,
      "duration": 0.2667,
      "velocity": 102,
      "chip": "ym2612"
    },
    {
      "channel": 2,
      "note": 92,
      "start": 33.071,
      "duration": 0.2667,
      "velocity": 102,
      "chip": "ym2612"
    },
    {
      "channel": 0,
      "note": 93,
      "start": 33.3375,
      "duration": 0.0649,
      "velocity": 102,
      "chip": "ym2612"
    },
    {
      "channel": 1,
      "note": 93,
      "start": 33.3376,
      "duration": 0.2665,
      "velocity": 102,
      "chip": "ym2612"
    },
    {
      "channel": 2,
      "note": 93,
      "start": 33.3378,
      "duration": 0.2664,
      "velocity": 102,
      "chip": "ym2612"
    },
    {
      "channel": 0,
      "note": 95,
      "start": 33.6041,
      "duration": 0.065,
      "velocity": 102,
      "chip": "ym2612"
    },
    {
      "channel": 1,
      "note": 95,
      "start": 33.6041,
      "duration": 0.2667,
      "velocity": 102,
      "chip": "ym2612"
    },
    {
      "channel": 2,
      "note": 95,
      "start": 33.6042,
      "duration": 0.2666,
      "velocity": 102,
      "chip": "ym2612"
    },
    {
      "channel": 0,
      "note": 97,
      "start": 33.8707,
      "duration": 0.065,
      "velocity": 102,
      "chip": "ym2612"
    },
    {
      "channel": 1,
      "note": 97,
      "start": 33.8708,
      "duration": 0.2667,
      "velocity": 102,
      "chip": "ym2612"
    },
    {
      "channel": 2,
      "note": 97,
      "start": 33.8709,
      "duration": 0.2666,
      "velocity": 102,
      "chip": "ym2612"
    },
    {
      "channel": 0,
      "note": 97,
      "start": 34.1374,
      "duration": 0.065,
      "velocity": 102,
      "chip": "ym2612"
    },
    {
      "channel": 1,
      "note": 97,
      "start": 34.1375,
      "duration": 0.2656,
      "velocity": 102,
      "chip": "ym2612"
    },
    {
      "channel": 2,
      "note": 97,
      "start": 34.1376,
      "duration": 0.2655,
      "velocity": 102,
      "chip": "ym2612"
    },
    {
      "channel": 0,
      "note": 85,
      "start": 36.8064,
      "duration": 0.0626,
      "velocity": 102,
      "chip": "ym2612"
    },
    {
      "channel": 1,
      "note": 85,
      "start": 36.8065,
      "duration": 0.5309,
      "velocity": 102,
      "chip": "ym2612"
    },
    {
      "channel": 2,
      "note": 85,
      "start": 36.8065,
      "duration": 0.7908,
      "velocity": 102,
      "chip": "ym2612"
    },
    {
      "channel": 4,
      "note": 85,
      "start": 36.8067,
      "duration": 0.2634,
      "velocity": 85,
      "chip": "ym2612"
    },
    {
      "channel": 5,
      "note": 85,
      "start": 36.8067,
      "duration": 0.7906,
      "velocity": 97,
      "chip": "ym2612"
    },
    {
      "channel": 0,
      "note": 83,
      "start": 37.07,
      "duration": 0.0656,
      "velocity": 102,
      "chip": "ym2612"
    },
    {
      "channel": 4,
      "note": 83,
      "start": 37.0702,
      "duration": 0.2673,
      "velocity": 85,
      "chip": "ym2612"
    },
    {
      "channel": 0,
      "note": 85,
      "start": 37.3373,
      "duration": 0.065,
      "velocity": 102,
      "chip": "ym2612"
    },
    {
      "channel": 1,
      "note": 85,
      "start": 37.3374,
      "duration": 0.2599,
      "velocity": 102,
      "chip": "ym2612"
    },
    {
      "channel": 4,
      "note": 85,
      "start": 37.3375,
      "duration": 0.2598,
      "velocity": 85,
      "chip": "ym2612"
    }
  ]
}