{
  "track_name": "19 - Best Players",
  "duration_sec": 58.25,
  "sample_rate": 44100,
  "note_count": 811,
  "unique_pitches": 21,
  "pitch_range": 48,
  "avg_note_duration": 0.1516,
  "reconstruction_stats": {
    "notes_reconstructed": 811,
    "keyon_events": 811,
    "keyoff_events": 797,
    "orphan_keyons": 2,
    "unique_pitches": 21,
    "pitch_range": 48,
    "avg_duration_sec": 0.1516
  },
  "metadata": {
    "source": "S\\Steel Empire\\19 - Best Players.vgz"
  },
  "notes": [
    {
      "channel": 0,
      "note": 59,
      "start": 0.0004,
      "duration": 0.0237,
      "velocity": 112,
      "chip": "ym2612"
    },
    {
      "channel": 1,
      "note": 52,
      "start": 0.0046,
      "duration": 0.0198,
      "velocity": 112,
      "chip": "ym2612"
    },
    {
      "channel": 2,
      "note": 47,
      "start": 0.0088,
      "duration": 0.0119,
      "velocity": 91,
      "chip": "ym2612"
    },
    {
      "channel": 0,
      "note": 59,
      "start": 0.0377,
      "duration": 0.0163,
      "velocity": 112,
      "chip": "ym2612"
    },
    {
      "channel": 1,
      "note": 52,
      "start": 0.0382,
      "duration": 0.0161,
      "velocity": 112,
      "chip": "ym2612"
    },
    {
      "channel": 2,
      "note": 47,
      "start": 0.0387,
      "duration": 0.0061,
      "velocity": 91,
      "chip": "ym2612"
    },
    {
      "channel": 4,
      "note": 70,
      "start": 0.053,
      "duration": 0.0099,
      "velocity": 102,
      "chip": "ym2612"
    },
    {
      "channel": 0,
      "note": 59,
      "start": 0.0681,
      "duration": 0.0121,
      "velocity": 112,
      "chip": "ym2612"
    },
    {
      "channel": 1,
      "note": 52,
      "start": 0.0686,
      "duration": 0.0118,
      "velocity": 112,
      "chip": "ym2612"
    },
    {
      "channel": 2,
      "note": 47,
      "start": 0.0692,
      "duration": 0.0071,
      "velocity": 91,
      "chip": "ym2612"
    },
    {
      "channel": 4,
      "note": 59,
      "start": 0.0792,
      "duration": 0.0098,
      "velocity": 102,
      "chip": "ym2612"
    },
    {
      "channel": 0,
      "note": 59,
      "start": 0.0943,
      "duration": 0.0109,
      "velocity": 112,
      "chip": "ym2612"
    },
    {
      "channel": 1,
      "note": 52,
      "start": 0.0948,
      "duration": 0.0107,
      "velocity": 112,
      "chip": "ym2612"
    },
    {
      "channel": 2,
      "note": 47,
      "start": 0.0953,
      "duration": 0.006,
      "velocity": 91,
      "chip": "ym2612"
    },
    {
      "channel": 4,
      "note": 59,
      "start": 0.1042,
      "duration": 0.0098,
      "velocity": 102,
      "chip": "ym2612"
    },
    {
      "channel": 0,
      "note": 66,
      "start": 0.1197,
      "duration": 0.05,
      "velocity": 112,
      "chip": "ym2612"
    },
    {
      "channel": 1,
      "note": 59,
      "start": 0.1202,
      "duration": 0.0498,
      "velocity": 112,
      "chip": "ym2612"
    },
    {
      "channel": 2,
      "note": 47,
      "start": 0.1207,
      "duration": 0.0071,
      "velocity": 91,
      "chip": "ym2612"
    },
    {
      "channel": 3,
      "note": 83,
      "start": 0.1213,
      "duration": 0.0005,
      "velocity": 112,
      "chip": "ym2612"
    },
    {
      "channel": 3,
      "note": 83,
      "start": 0.1217,
      "duration": 0.1028,
      "velocity": 112,
      "chip": "ym2612"
    },
    {
      "channel": 4,
      "note": 59,
      "start": 0.1309,
      "duration": 0.01,
      "velocity": 102,
      "chip": "ym2612"
    },
    {
      "channel": 2,
      "note": 47,
      "start": 0.147,
      "duration": 0.0063,
      "velocity": 91,
      "chip": "ym2612"
    },
    {
      "channel": 4,
      "note": 59,
      "start": 0.1564,
      "duration": 0.0519,
      "velocity": 102,
      "chip": "ym2612"
    },
    {
      "channel": 0,
      "note": 64,
      "start": 0.1721,
      "duration": 0.0124,
      "velocity": 112,
      "chip": "ym2612"
    },
    {
      "channel": 1,
      "note": 57,
      "start": 0.1726,
      "duration": 0.0121,
      "velocity": 112,
      "chip": "ym2612"
    },
    {
      "channel": 2,
      "note": 47,
      "start": 0.1731,
      "duration": 0.0076,
      "velocity": 91,
      "chip": "ym2612"
    },
    {
      "channel": 0,
      "note": 68,
      "start": 0.2,
      "duration": 0.0509,
      "velocity": 112,
      "chip": "ym2612"
    },
    {
      "channel": 1,
      "note": 61,
      "start": 0.2005,
      "duration": 0.0508,
      "velocity": 112,
      "chip": "ym2612"
    },
    {
      "channel": 2,
      "note": 47,
      "start": 0.201,
      "duration": 0.0065,
      "velocity": 91,
      "chip": "ym2612"
    },
    {
      "channel": 4,
      "note": 66,
      "start": 0.2107,
      "duration": 0.0102,
      "velocity": 102,
      "chip": "ym2612"
    },
    {
      "channel": 2,
      "note": 47,
      "start": 0.2274,
      "duration": 0.0068,
      "velocity": 91,
      "chip": "ym2612"
    },
    {
      "channel": 4,
      "note": 64,
      "start": 0.2374,
      "duration": 0.0512,
      "velocity": 102,
      "chip": "ym2612"
    },
    {
      "channel": 0,
      "note": 59,
      "start": 0.2544,
      "duration": 0.184,
      "velocity": 112,
      "chip": "ym2612"
    },
    {
      "channel": 1,
      "note": 52,
      "start": 0.2549,
      "duration": 0.1838,
      "velocity": 112,
      "chip": "ym2612"
    },
    {
      "channel": 2,
      "note": 47,
      "start": 0.2554,
      "duration": 0.0064,
      "velocity": 91,
      "chip": "ym2612"
    },
    {
      "channel": 2,
      "note": 47,
      "start": 0.2802,
      "duration": 0.0077,
      "velocity": 91,
      "chip": "ym2612"
    },
    {
      "channel": 4,
      "note": 68,
      "start": 0.2912,
      "duration": 0.1856,
      "velocity": 102,
      "chip": "ym2612"
    },
    {
      "channel": 2,
      "note": 47,
      "start": 0.3081,
      "duration": 0.0067,
      "velocity": 91,
      "chip": "ym2612"
    },
    {
      "channel": 2,
      "note": 47,
      "start": 0.3352,
      "duration": 0.0075,
      "velocity": 91,
      "chip": "ym2612"
    },
    {
      "channel": 3,
      "note": 89,
      "start": 0.3357,
      "duration": 0.0005,
      "velocity": 112,
      "chip": "ym2612"
    },
    {
      "channel": 3,
      "note": 89,
      "start": 0.3362,
      "duration": 0.1031,
      "velocity": 112,
      "chip": "ym2612"
    },
    {
      "channel": 2,
      "note": 47,
      "start": 0.3621,
      "duration": 0.0067,
      "velocity": 91,
      "chip": "ym2612"
    },
    {
      "channel": 2,
      "note": 47,
      "start": 0.3881,
      "duration": 0.0068,
      "velocity": 91,
      "chip": "ym2612"
    },
    {
      "channel": 2,
      "note": 47,
      "start": 0.4147,
      "duration": 0.0067,
      "velocity": 91,
      "chip": "ym2612"
    },
    {
      "channel": 0,
      "note": 59,
      "start": 0.4415,
      "duration": 0.0123,
      "velocity": 112,
      "chip": "ym2612"
    },
    {
      "channel": 1,
      "note": 52,
      "start": 0.4422,
      "duration": 0.012,
      "velocity": 112,
      "chip": "ym2612"
    },
    {
      "channel": 2,
      "note": 47,
      "start": 0.4429,
      "duration": 0.0072,
      "velocity": 91,
      "chip": "ym2612"
    },
    {
      "channel": 0,
      "note": 59,
      "start": 0.4687,
      "duration": 0.0117,
      "velocity": 112,
      "chip": "ym2612"
    },
    {
      "channel": 1,
      "note": 52,
      "start": 0.4692,
      "duration": 0.0114,
      "velocity": 112,
      "chip": "ym2612"
    },
    {
      "channel": 2,
      "note": 47,
      "start": 0.4697,
      "duration": 0.0063,
      "velocity": 91,
      "chip": "ym2612"
    },
    {
      "channel": 4,
      "note": 59,
      "start": 0.4793,
      "duration": 0.0105,
      "velocity": 102,
      "chip": "ym2612"
    },
    {
      "channel": 0,
      "note": 59,
      "start": 0.4952,
      "duration": 0.0117,
      "velocity": 112,
      "chip": "ym2612"
    },
    {
      "channel": 1,
      "note": 52,
      "start": 0.4957,
      "duration": 0.0114,
      "velocity": 112,
      "chip": "ym2612"
    },
    {
      "channel": 2,
      "note": 47,
      "start": 0.4962,
      "duration": 0.0065,
      "velocity": 91,
      "chip": "ym2612"
    },
    {
      "channel": 4,
      "note": 59,
      "start": 0.5059,
      "duration": 0.0105,
      "velocity": 102,
      "chip": "ym2612"
    },
    {
      "channel": 0,
      "note": 59,
      "start": 0.5219,
      "duration": 0.0117,
      "velocity": 112,
      "chip": "ym2612"
    },
    {
      "channel": 1,
      "note": 52,
      "start": 0.5224,
      "duration": 0.0115,
      "velocity": 112,
      "chip": "ym2612"
    },
    {
      "channel": 2,
      "note": 47,
      "start": 0.5229,
      "duration": 0.0065,
      "velocity": 91,
      "chip": "ym2612"
    },
    {
      "channel": 4,
      "note": 59,
      "start": 0.5326,
      "duration": 0.0105,
      "velocity": 102,
      "chip": "ym2612"
    },
    {
      "channel": 0,
      "note": 66,
      "start": 0.5488,
      "duration": 0.0502,
      "velocity": 112,
      "chip": "ym2612"
    },
    {
      "channel": 1,
      "note": 59,
      "start": 0.5493,
      "duration": 0.05,
      "velocity": 112,
      "chip": "ym2612"
    },
    {
      "channel": 2,
      "note": 47,
      "start": 0.5498,
      "duration": 0.0071,
      "velocity": 91,
      "chip": "ym2612"
    },
    {
      "channel": 3,
      "note": 89,
      "start": 0.5504,
      "duration": 0.0004,
      "velocity": 112,
      "chip": "ym2612"
    },
    {
      "channel": 3,
      "note": 89,
      "start": 0.5508,
      "duration": 0.1041,
      "velocity": 112,
      "chip": "ym2612"
    },
    {
      "channel": 4,
      "note": 59,
      "start": 0.56,
      "duration": 0.01,
      "velocity": 102,
      "chip": "ym2612"
    },
    {
      "channel": 2,
      "note": 47,
      "start": 0.5763,
      "duration": 0.0063,
      "velocity": 91,
      "chip": "ym2612"
    },
    {
      "channel": 4,
      "note": 59,
      "start": 0.5858,
      "duration": 0.052,
      "velocity": 102,
      "chip": "ym2612"
    },
    {
      "channel": 0,
      "note": 64,
      "start": 0.6015,
      "duration": 0.0123,
      "velocity": 112,
      "chip": "ym2612"
    },
    {
      "channel": 1,
      "note": 57,
      "start": 0.602,
      "duration": 0.0121,
      "velocity": 112,
      "chip": "ym2612"
    },
    {
      "channel": 2,
      "note": 47,
      "start": 0.6025,
      "duration": 0.0075,
      "velocity": 91,
      "chip": "ym2612"
    },
    {
      "channel": 0,
      "note": 68,
      "start": 0.6293,
      "duration": 0.0513,
      "velocity": 112,
      "chip": "ym2612"
    },
    {
      "channel": 1,
      "note": 61,
      "start": 0.6298,
      "duration": 0.0512,
      "velocity": 112,
      "chip": "ym2612"
    },
    {
      "channel": 2,
      "note": 47,
      "start": 0.6303,
      "duration": 0.0068,
      "velocity": 91,
      "chip": "ym2612"
    },
    {
      "channel": 4,
      "note": 66,
      "start": 0.6404,
      "duration": 0.0105,
      "velocity": 102,
      "chip": "ym2612"
    },
    {
      "channel": 2,
      "note": 47,
      "start": 0.6577,
      "duration": 0.0068,
      "velocity": 91,
      "chip": "ym2612"
    },
    {
      "channel": 4,
      "note": 64,
      "start": 0.6675,
      "duration": 0.0495,
      "velocity": 102,
      "chip": "ym2612"
    },
    {
      "channel": 0,
      "note": 59,
      "start": 0.6841,
      "duration": 0.182,
      "velocity": 112,
      "chip": "ym2612"
    },
    {
      "channel": 1,
      "note": 52,
      "start": 0.6845,
      "duration": 0.1818,
      "velocity": 112,
      "chip": "ym2612"
    },
    {
      "channel": 2,
      "note": 47,
      "start": 0.685,
      "duration": 0.0064,
      "velocity": 91,
      "chip": "ym2612"
    },
    {
      "channel": 2,
      "note": 47,
      "start": 0.7098,
      "duration": 0.0065,
      "velocity": 91,
      "chip": "ym2612"
    },
    {
      "channel": 4,
      "note": 68,
      "start": 0.7195,
      "duration": 0.1898,
      "velocity": 102,
      "chip": "ym2612"
    },
    {
      "channel": 2,
      "note": 47,
      "start": 0.7364,
      "duration": 0.0066,
      "velocity": 91,
      "chip": "ym2612"
    },
    {
      "channel": 2,
      "note": 47,
      "start": 0.7624,
      "duration": 0.0075,
      "velocity": 91,
      "chip": "ym2612"
    },
    {
      "channel": 3,
      "note": 89,
      "start": 0.763,
      "duration": 0.0005,
      "velocity": 112,
      "chip": "ym2612"
    },
    {
      "channel": 3,
      "note": 89,
      "start": 0.7634,
      "duration": 0.1035,
      "velocity": 112,
      "chip": "ym2612"
    },
    {
      "channel": 2,
      "note": 47,
      "start": 0.7893,
      "duration": 0.0067,
      "velocity": 91,
      "chip": "ym2612"
    },
    {
      "channel": 2,
      "note": 47,
      "start": 0.8154,
      "duration": 0.0067,
      "velocity": 91,
      "chip": "ym2612"
    },
    {
      "channel": 2,
      "note": 47,
      "start": 0.8424,
      "duration": 0.007,
      "velocity": 91,
      "chip": "ym2612"
    },
    {
      "channel": 0,
      "note": 69,
      "start": 0.8722,
      "duration": 0.0788,
      "velocity": 102,
      "chip": "ym2612"
    },
    {
      "channel": 2,
      "note": 47,
      "start": 0.8765,
      "duration": 0.0069,
      "velocity": 91,
      "chip": "ym2612"
    },
    {
      "channel": 1,
      "note": 83,
      "start": 0.9017,
      "duration": 0.0067,
      "velocity": 62,
      "chip": "ym2612"
    },
    {
      "channel": 2,
      "note": 47,
      "start": 0.9022,
      "duration": 0.0064,
      "velocity": 91,
      "chip": "ym2612"
    },
    {
      "channel": 4,
      "note": 59,
      "start": 0.912,
      "duration": 0.0771,
      "velocity": 102,
      "chip": "ym2612"
    },
    {
      "channel": 1,
      "note": 87,
      "start": 0.9277,
      "duration": 0.0068,
      "velocity": 62,
      "chip": "ym2612"
    },
    {
      "channel": 2,
      "note": 47,
      "start": 0.9282,
      "duration": 0.0066,
      "velocity": 91,
      "chip": "ym2612"
    },
    {
      "channel": 0,
      "note": 68,
      "start": 0.9541,
      "duration": 0.0115,
      "velocity": 102,
      "chip": "ym2612"
    },
    {
      "channel": 1,
      "note": 83,
      "start": 0.9546,
      "duration": 0.0068,
      "velocity": 62,
      "chip": "ym2612"
    },
    {
      "channel": 2,
      "note": 47,
      "start": 0.9551,
      "duration": 0.0066,
      "velocity": 91,
      "chip": "ym2612"
    },
    {
      "channel": 0,
      "note": 66,
      "start": 0.9679,
      "duration": 0.0103,
      "velocity": 102,
      "chip": "ym2612"
    },
    {
      "channel": 0,
      "note": 68,
      "start": 0.9811,
      "duration": 0.0336,
      "velocity": 102,
      "chip": "ym2612"
    },
    {
      "channel": 2,
      "note": 47,
      "start": 0.9817,
      "duration": 0.0066,
      "velocity": 91,
      "chip": "ym2612"
    },
    {
      "channel": 4,
      "note": 69,
      "start": 0.9916,
      "duration": 0.0101,
      "velocity": 102,
      "chip": "ym2612"
    },
    {
      "channel": 4,
      "note": 68,
      "start": 1.004,
      "duration": 0.012,
      "velocity": 102,
      "chip": "ym2612"
    },
    {
      "channel": 1,
      "note": 83,
      "start": 1.0081,
      "duration": 0.0068,
      "velocity": 62,
      "chip": "ym2612"
    },
    {
      "channel": 2,
      "note": 47,
      "start": 1.0086,
      "duration": 0.0066,
      "velocity": 91,
      "chip": "ym2612"
    },
    {
      "channel": 4,
      "note": 66,
      "start": 1.0186,
      "duration": 0.0325,
      "velocity": 102,
      "chip": "ym2612"
    },
    {
      "channel": 0,
      "note": 64,
      "start": 1.034,
      "duration": 0.034,
      "velocity": 102,
      "chip": "ym2612"
    },
    {
      "channel": 1,
      "note": 87,
      "start": 1.0345,
      "duration": 0.0069,
      "velocity": 62,
      "chip": "ym2612"
    },
    {
      "channel": 2,
      "note": 47,
      "start": 1.035,
      "duration": 0.0067,
      "velocity": 91,
      "chip": "ym2612"
    },
    {
      "channel": 1,
      "note": 83,
      "start": 1.0615,
      "duration": 0.0067,
      "velocity": 62,
      "chip": "ym2612"
    },
    {
      "channel": 2,
      "note": 47,
      "start": 1.062,
      "duration": 0.0065,
      "velocity": 91,
      "chip": "ym2612"
    },
    {
      "channel": 4,
      "note": 68,
      "start": 1.0719,
      "duration": 0.0372,
      "velocity": 102,
      "chip": "ym2612"
    },
    {
      "channel": 0,
      "note": 66,
      "start": 1.0882,
      "duration": 0.2115,
      "velocity": 102,
      "chip": "ym2612"
    },
    {
      "channel": 2,
      "note": 47,
      "start": 1.0891,
      "duration": 0.0112,
      "velocity": 91,
      "chip": "ym2612"
    },
    {
      "channel": 1,
      "note": 83,
      "start": 1.1187,
      "duration": 0.0066,
      "velocity": 62,
      "chip": "ym2612"
    },
    {
      "channel": 2,
      "note": 47,
      "start": 1.1192,
      "duration": 0.0063,
      "velocity": 91,
      "chip": "ym2612"
    },
    {
      "channel": 4,
      "note": 64,
      "start": 1.1288,
      "duration": 0.2073,
      "velocity": 102,
      "chip": "ym2612"
    },
    {
      "channel": 1,
      "note": 87,
      "start": 1.1445,
      "duration": 0.0068,
      "velocity": 62,
      "chip": "ym2612"
    },
    {
      "channel": 2,
      "note": 47,
      "start": 1.145,
      "duration": 0.0066,
      "velocity": 91,
      "chip": "ym2612"
    },
    {
      "channel": 1,
      "note": 83,
      "start": 1.1712,
      "duration": 0.007,
      "velocity": 62,
      "chip": "ym2612"
    },
    {
      "channel": 2,
      "note": 47,
      "start": 1.1717,
      "duration": 0.0068,
      "velocity": 91,
      "chip": "ym2612"
    },
    {
      "channel": 2,
      "note": 47,
      "start": 1.1983,
      "duration": 0.0068,
      "velocity": 91,
      "chip": "ym2612"
    },
    {
      "channel": 3,
      "note": 90,
      "start": 1.199,
      "duration": 0.0043,
      "velocity": 78,
      "chip": "ym2612"
    },
    {
      "channel": 3,
      "note": 90,
      "start": 1.2117,
      "duration": 0.004,
      "velocity": 78,
      "chip": "ym2612"
    },
    {
      "channel": 1,
      "note": 83,
      "start": 1.2235,
      "duration": 0.0071,
      "velocity": 62,
      "chip": "ym2612"
    },
    {
      "channel": 2,
      "note": 47,
      "start": 1.2241,
      "duration": 0.0068,
      "velocity": 91,
      "chip": "ym2612"
    },
    {
      "channel": 3,
      "note": 90,
      "start": 1.2248,
      "duration": 0.0043,
      "velocity": 78,
      "chip": "ym2612"
    },
    {
      "channel": 3,
      "note": 87,
      "start": 1.2377,
      "duration": 0.0041,
      "velocity": 78,
      "chip": "ym2612"
    },
    {
      "channel": 1,
      "note": 90,
      "start": 1.2497,
      "duration": 0.0072,
      "velocity": 62,
      "chip": "ym2612"
    },
    {
      "channel": 2,
      "note": 47,
      "start": 1.2502,
      "duration": 0.0069,
      "velocity": 91,
      "chip": "ym2612"
    },
    {
      "channel": 3,
      "note": 87,
      "start": 1.251,
      "duration": 0.0044,
      "velocity": 78,
      "chip": "ym2612"
    },
    {
      "channel": 3,
      "note": 90,
      "start": 1.2639,
      "duration": 0.004,
      "velocity": 78,
      "chip": "ym2612"
    },
    {
      "channel": 1,
      "note": 83,
      "start": 1.2766,
      "duration": 0.007,
      "velocity": 62,
      "chip": "ym2612"
    },
    {
      "channel": 2,
      "note": 47,
      "start": 1.2771,
      "duration": 0.0068,
      "velocity": 91,
      "chip": "ym2612"
    },
    {
      "channel": 3,
      "note": 90,
      "start": 1.2778,
      "duration": 0.0043,
      "velocity": 78,
      "chip": "ym2612"
    },
    {
      "channel": 3,
      "note": 85,
      "start": 1.2906,
      "duration": 0.004,
      "velocity": 78,
      "chip": "ym2612"
    },
    {
      "channel": 0,
      "note": 69,
      "start": 1.3033,
      "duration": 0.0718,
      "velocity": 102,
      "chip": "ym2612"
    },
    {
      "channel": 2,
      "note": 47,
      "start": 1.3042,
      "duration": 0.0062,
      "velocity": 91,
      "chip": "ym2612"
    },
    {
      "channel": 1,
      "note": 83,
      "start": 1.3289,
      "duration": 0.0063,
      "velocity": 62,
      "chip": "ym2612"
    },
    {
      "channel": 2,
      "note": 47,
      "start": 1.3294,
      "duration": 0.0061,
      "velocity": 91,
      "chip": "ym2612"
    },
    {
      "channel": 4,
      "note": 66,
      "start": 1.3385,
      "duration": 0.0726,
      "velocity": 102,
      "chip": "ym2612"
    },
    {
      "channel": 1,
      "note": 87,
      "start": 1.3533,
      "duration": 0.0064,
      "velocity": 62,
      "chip": "ym2612"
    },
    {
      "channel": 2,
      "note": 47,
      "start": 1.3537,
      "duration": 0.0062,
      "velocity": 91,
      "chip": "ym2612"
    },
    {
      "channel": 0,
      "note": 68,
      "start": 1.3781,
      "duration": 0.0109,
      "velocity": 102,
      "chip": "ym2612"
    },
    {
      "channel": 1,
      "note": 83,
      "start": 1.3786,
      "duration": 0.0065,
      "velocity": 62,
      "chip": "ym2612"
    },
    {
      "channel": 2,
      "note": 47,
      "start": 1.3791,
      "duration": 0.0062,
      "velocity": 91,
      "chip": "ym2612"
    },
    {
      "channel": 0,
      "note": 66,
      "start": 1.3911,
      "duration": 0.0096,
      "velocity": 102,
      "chip": "ym2612"
    },
    {
      "channel": 0,
      "note": 68,
      "start": 1.4035,
      "duration": 0.032,
      "velocity": 102,
      "chip": "ym2612"
    },
    {
      "channel": 2,
      "note": 47,
      "start": 1.4042,
      "duration": 0.0062,
      "velocity": 91,
      "chip": "ym2612"
    },
    {
      "channel": 4,
      "note": 69,
      "start": 1.4134,
      "duration": 0.0095,
      "velocity": 102,
      "chip": "ym2612"
    },
    {
      "channel": 4,
      "note": 68,
      "start": 1.425,
      "duration": 0.0117,
      "velocity": 102,
      "chip": "ym2612"
    },
    {
      "channel": 1,
      "note": 83,
      "start": 1.4292,
      "duration": 0.0066,
      "velocity": 62,
      "chip": "ym2612"
    },
    {
      "channel": 2,
      "note": 47,
      "start": 1.4297,
      "duration": 0.0064,
      "velocity": 91,
      "chip": "ym2612"
    },
    {
      "channel": 4,
      "note": 66,
      "start": 1.4393,
      "duration": 0.0302,
      "velocity": 102,
      "chip": "ym2612"
    },
    {
      "channel": 0,
      "note": 71,
      "start": 1.4541,
      "duration": 0.0312,
      "velocity": 102,
      "chip": "ym2612"
    },
    {
      "channel": 1,
      "note": 87,
      "start": 1.4546,
      "duration": 0.0062,
      "velocity": 62,
      "chip": "ym2612"
    },
    {
      "channel": 2,
      "note": 47,
      "start": 1.4551,
      "duration": 0.006,
      "velocity": 91,
      "chip": "ym2612"
    },
    {
      "channel": 1,
      "note": 83,
      "start": 1.4792,
      "duration": 0.0063,
      "velocity": 62,
      "chip": "ym2612"
    },
    {
      "channel": 2,
      "note": 47,
      "start": 1.4797,
      "duration": 0.0061,
      "velocity": 91,
      "chip": "ym2612"
    },
    {
      "channel": 4,
      "note": 68,
      "start": 1.489,
      "duration": 0.0306,
      "velocity": 102,
      "chip": "ym2612"
    },
    {
      "channel": 0,
      "note": 59,
      "start": 1.5045,
      "duration": 0.201,
      "velocity": 102,
      "chip": "ym2612"
    },
    {
      "channel": 2,
      "note": 47,
      "start": 1.5054,
      "duration": 0.0062,
      "velocity": 91,
      "chip": "ym2612"
    },
    {
      "channel": 1,
      "note": 83,
      "start": 1.5288,
      "duration": 0.0063,
      "velocity": 62,
      "chip": "ym2612"
    },
    {
      "channel": 2,
      "note": 47,
      "start": 1.5293,
      "duration": 0.006,
      "velocity": 91,
      "chip": "ym2612"
    },
    {
      "channel": 4,
      "note": 71,
      "start": 1.5383,
      "duration": 0.2106,
      "velocity": 102,
      "chip": "ym2612"
    },
    {
      "channel": 1,
      "note": 87,
      "start": 1.553,
      "duration": 0.0076,
      "velocity": 62,
      "chip": "ym2612"
    },
    {
      "channel": 2,
      "note": 47,
      "start": 1.5535,
      "duration": 0.0073,
      "velocity": 91,
      "chip": "ym2612"
    },
    {
      "channel": 1,
      "note": 83,
      "start": 1.5793,
      "duration": 0.0066,
      "velocity": 62,
      "chip": "ym2612"
    },
    {
      "channel": 2,
      "note": 47,
      "start": 1.5798,
      "duration": 0.0064,
      "velocity": 91,
      "chip": "ym2612"
    },
    {
      "channel": 2,
      "note": 47,
      "start": 1.6049,
      "duration": 0.0068,
      "velocity": 91,
      "chip": "ym2612"
    },
    {
      "channel": 3,
      "note": 85,
      "start": 1.6056,
      "duration": 0.0044,
      "velocity": 78,
      "chip": "ym2612"
    },
    {
      "channel": 3,
      "note": 85,
      "start": 1.6185,
      "duration": 0.0041,
      "velocity": 78,
      "chip": "ym2612"
    },
    {
      "channel": 1,
      "note": 95,
      "start": 1.631,
      "duration": 0.0071,
      "velocity": 62,
      "chip": "ym2612"
    },
    {
      "channel": 2,
      "note": 47,
      "start": 1.6314,
      "duration": 0.0069,
      "velocity": 91,
      "chip": "ym2612"
    },
    {
      "channel": 3,
      "note": 85,
      "start": 1.6322,
      "duration": 0.0044,
      "velocity": 78,
      "chip": "ym2612"
    },
    {
      "channel": 3,
      "note": 87,
      "start": 1.6449,
      "duration": 0.0039,
      "velocity": 78,
      "chip": "ym2612"
    },
    {
      "channel": 1,
      "note": 90,
      "start": 1.6566,
      "duration": 0.007,
      "velocity": 62,
      "chip": "ym2612"
    },
    {
      "channel": 2,
      "note": 47,
      "start": 1.6571,
      "duration": 0.0067,
      "velocity": 91,
      "chip": "ym2612"
    },
    {
      "channel": 3,
      "note": 87,
      "start": 1.6578,
      "duration": 0.0042,
      "velocity": 78,
      "chip": "ym2612"
    },
    {
      "channel": 3,
      "note": 88,
      "start": 1.6706,
      "duration": 0.004,
      "velocity": 78,
      "chip": "ym2612"
    },
    {
      "channel": 1,
      "note": 83,
      "start": 1.6823,
      "duration": 0.007,
      "velocity": 62,
      "chip": "ym2612"
    },
    {
      "channel": 2,
      "note": 47,
      "start": 1.6828,
      "duration": 0.0068,
      "velocity": 91,
      "chip": "ym2612"
    },
    {
      "channel": 3,
      "note": 88,
      "start": 1.6835,
      "duration": 0.0043,
      "velocity": 78,
      "chip": "ym2612"
    },
    {
      "channel": 3,
      "note": 90,
      "start": 1.6963,
      "duration": 0.0039,
      "velocity": 78,
      "chip": "ym2612"
    },
    {
      "channel": 0,
      "note": 69,
      "start": 1.7088,
      "duration": 0.0791,
      "velocity": 102,
      "chip": "ym2612"
    },
    {
      "channel": 2,
      "note": 47,
      "start": 1.713,
      "duration": 0.0113,
      "velocity": 91,
      "chip": "ym2612"
    },
    {
      "channel": 3,
      "note": 90,
      "start": 1.7183,
      "duration": 0.2473,
      "velocity": 87,
      "chip": "ym2612"
    },
    {
      "channel": 1,
      "note": 83,
      "start": 1.7417,
      "duration": 0.0064,
      "velocity": 62,
      "chip": "ym2612"
    },
    {
      "channel": 2,
      "note": 47,
      "start": 1.7422,
      "duration": 0.0061,
      "velocity": 91,
      "chip": "ym2612"
    },
    {
      "channel": 4,
      "note": 59,
      "start": 1.7512,
      "duration": 0.0732,
      "velocity": 102,
      "chip": "ym2612"
    },
    {
      "channel": 1,
      "note": 87,
      "start": 1.766,
      "duration": 0.0064,
      "velocity": 62,
      "chip": "ym2612"
    },
    {
      "channel": 2,
      "note": 47,
      "start": 1.7665,
      "duration": 0.0062,
      "velocity": 91,
      "chip": "ym2612"
    },
    {
      "channel": 0,
      "note": 68,
      "start": 1.7909,
      "duration": 0.0109,
      "velocity": 102,
      "chip": "ym2612"
    },
    {
      "channel": 1,
      "note": 83,
      "start": 1.7914,
      "duration": 0.0064,
      "velocity": 62,
      "chip": "ym2612"
    },
    {
      "channel": 2,
      "note": 47,
      "start": 1.7919,
      "duration": 0.0061,
      "velocity": 91,
      "chip": "ym2612"
    },
    {
      "channel": 0,
      "note": 66,
      "start": 1.8039,
      "duration": 0.0098,
      "velocity": 102,
      "chip": "ym2612"
    },
    {
      "channel": 0,
      "note": 68,
      "start": 1.8166,
      "duration": 0.0322,
      "velocity": 102,
      "chip": "ym2612"
    },
    {
      "channel": 2,
      "note": 47,
      "start": 1.8173,
      "duration": 0.0064,
      "velocity": 91,
      "chip": "ym2612"
    },
    {
      "channel": 4,
      "note": 69,
      "start": 1.8268,
      "duration": 0.0097,
      "velocity": 102,
      "chip": "ym2612"
    },
    {
      "channel": 4,
      "note": 68,
      "start": 1.8387,
      "duration": 0.0112,
      "velocity": 102,
      "chip": "ym2612"
    },
    {
      "channel": 1,
      "note": 83,
      "start": 1.8427,
      "duration": 0.0063,
      "velocity": 62,
      "chip": "ym2612"
    },
    {
      "channel": 2,
      "note": 47,
      "start": 1.8432,
      "duration": 0.0061,
      "velocity": 91,
      "chip": "ym2612"
    },
    {
      "channel": 4,
      "note": 66,
      "start": 1.8525,
      "duration": 0.0298,
      "velocity": 102,
      "chip": "ym2612"
    },
    {
      "channel": 0,
      "note": 64,
      "start": 1.8669,
      "duration": 0.0312,
      "velocity": 102,
      "chip": "ym2612"
    },
    {
      "channel": 1,
      "note": 87,
      "start": 1.8674,
      "duration": 0.0063,
      "velocity": 62,
      "chip": "ym2612"
    },
    {
      "channel": 2,
      "note": 47,
      "start": 1.8679,
      "duration": 0.0061,
      "velocity": 91,
      "chip": "ym2612"
    },
    {
      "channel": 1,
      "note": 83,
      "start": 1.8921,
      "duration": 0.0064,
      "velocity": 62,
      "chip": "ym2612"
    },
    {
      "channel": 2,
      "note": 47,
      "start": 1.8926,
      "duration": 0.0061,
      "velocity": 91,
      "chip": "ym2612"
    },
    {
      "channel": 4,
      "note": 68,
      "start": 1.9018,
      "duration": 0.0307,
      "velocity": 102,
      "chip": "ym2612"
    },
    {
      "channel": 0,
      "note": 66,
      "start": 1.9172,
      "duration": 0.1983,
      "velocity": 102,
      "chip": "ym2612"
    },
    {
      "channel": 2,
      "note": 47,
      "start": 1.9182,
      "duration": 0.0061,
      "velocity": 91,
      "chip": "ym2612"
    },
    {
      "channel": 1,
      "note": 83,
      "start": 1.9428,
      "duration": 0.0064,
      "velocity": 62,
      "chip": "ym2612"
    },
    {
      "channel": 2,
      "note": 47,
      "start": 1.9433,
      "duration": 0.0061,
      "velocity": 91,
      "chip": "ym2612"
    },
    {
      "channel": 4,
      "note": 64,
      "start": 1.9525,
      "duration": 0.199,
      "velocity": 102,
      "chip": "ym2612"
    },
    {
      "channel": 1,
      "note": 87,
      "start": 1.9674,
      "duration": 0.0066,
      "velocity": 62,
      "chip": "ym2612"
    },
    {
      "channel": 2,
      "note": 47,
      "start": 1.9679,
      "duration": 0.0064,
      "velocity": 91,
      "chip": "ym2612"
    },
    {
      "channel": 3,
      "note": 95,
      "start": 1.9685,
      "duration": 0.0471,
      "velocity": 87,
      "chip": "ym2612"
    },
    {
      "channel": 1,
      "note": 83,
      "start": 1.9922,
      "duration": 0.0065,
      "velocity": 62,
      "chip": "ym2612"
    },
    {
      "channel": 2,
      "note": 47,
      "start": 1.9927,
      "duration": 0.0063,
      "velocity": 91,
      "chip": "ym2612"
    },
    {
      "channel": 2,
      "note": 47,
      "start": 2.0187,
      "duration": 0.0066,
      "velocity": 91,
      "chip": "ym2612"
    },
    {
      "channel": 3,
      "note": 93,
      "start": 2.0193,
      "duration": 0.0474,
      "velocity": 87,
      "chip": "ym2612"
    },
    {
      "channel": 1,
      "note": 83,
      "start": 2.044,
      "duration": 0.0064,
      "velocity": 62,
      "chip": "ym2612"
    },
    {
      "channel": 2,
      "note": 47,
      "start": 2.0445,
      "duration": 0.0061,
      "velocity": 91,
      "chip": "ym2612"
    },
    {
      "channel": 1,
      "note": 90,
      "start": 2.0684,
      "duration": 0.0067,
      "velocity": 62,
      "chip": "ym2612"
    },
    {
      "channel": 2,
      "note": 47,
      "start": 2.0689,
      "duration": 0.0065,
      "velocity": 91,
      "chip": "ym2612"
    },
    {
      "channel": 3,
      "note": 92,
      "start": 2.0695,
      "duration": 0.0468,
      "velocity": 87,
      "chip": "ym2612"
    },
    {
      "channel": 1,
      "note": 83,
      "start": 2.0936,
      "duration": 0.0065,
      "velocity": 62,
      "chip": "ym2612"
    },
    {
      "channel": 2,
      "note": 47,
      "start": 2.094,
      "duration": 0.0063,
      "velocity": 91,
      "chip": "ym2612"
    },
    {
      "channel": 0,
      "note": 69,
      "start": 2.1186,
      "duration": 0.072,
      "velocity": 102,
      "chip": "ym2612"
    },
    {
      "channel": 2,
      "note": 47,
      "start": 2.1196,
      "duration": 0.0064,
      "velocity": 91,
      "chip": "ym2612"
    },
    {
      "channel": 3,
      "note": 88,
      "start": 2.1202,
      "duration": 0.1971,
      "velocity": 87,
      "chip": "ym2612"
    },
    {
      "channel": 1,
      "note": 83,
      "start": 2.1443,
      "duration": 0.0064,
      "velocity": 62,
      "chip": "ym2612"
    },
    {
      "channel": 2,
      "note": 47,
      "start": 2.1448,
      "duration": 0.0061,
      "velocity": 91,
      "chip": "ym2612"
    },
    {
      "channel": 4,
      "note": 66,
      "start": 2.1538,
      "duration": 0.0731,
      "velocity": 102,
      "chip": "ym2612"
    },
    {
      "channel": 1,
      "note": 87,
      "start": 2.1686,
      "duration": 0.0064,
      "velocity": 62,
      "chip": "ym2612"
    },
    {
      "channel": 2,
      "note": 47,
      "start": 2.169,
      "duration": 0.0062,
      "velocity": 91,
      "chip": "ym2612"
    },
    {
      "channel": 0,
      "note": 68,
      "start": 2.1937,
      "duration": 0.0113,
      "velocity": 102,
      "chip": "ym2612"
    },
    {
      "channel": 1,
      "note": 83,
      "start": 2.1942,
      "duration": 0.0066,
      "velocity": 62,
      "chip": "ym2612"
    },
    {
      "channel": 2,
      "note": 47,
      "start": 2.1948,
      "duration": 0.0063,
      "velocity": 91,
      "chip": "ym2612"
    },
    {
      "channel": 0,
      "note": 66,
      "start": 2.2071,
      "duration": 0.0097,
      "velocity": 102,
      "chip": "ym2612"
    },
    {
      "channel": 0,
      "note": 68,
      "start": 2.2194,
      "duration": 0.0318,
      "velocity": 102,
      "chip": "ym2612"
    },
    {
      "channel": 2,
      "note": 47,
      "start": 2.2201,
      "duration": 0.0062,
      "velocity": 91,
      "chip": "ym2612"
    },
    {
      "channel": 4,
      "note": 69,
      "start": 2.2293,
      "duration": 0.0095,
      "velocity": 102,
      "chip": "ym2612"
    },
    {
      "channel": 4,
      "note": 68,
      "start": 2.241,
      "duration": 0.0113,
      "velocity": 102,
      "chip": "ym2612"
    },
    {
      "channel": 1,
      "note": 83,
      "start": 2.2451,
      "duration": 0.0063,
      "velocity": 62,
      "chip": "ym2612"
    },
    {
      "channel": 2,
      "note": 47,
      "start": 2.2456,
      "duration": 0.0061,
      "velocity": 91,
      "chip": "ym2612"
    },
    {
      "channel": 4,
      "note": 66,
      "start": 2.2549,
      "duration": 0.0298,
      "velocity": 102,
      "chip": "ym2612"
    },
    {
      "channel": 0,
      "note": 71,
      "start": 2.2693,
      "duration": 0.0313,
      "velocity": 102,
      "chip": "ym2612"
    },
    {
      "channel": 1,
      "note": 87,
      "start": 2.2698,
      "duration": 0.0063,
      "velocity": 62,
      "chip": "ym2612"
    },
    {
      "channel": 2,
      "note": 47,
      "start": 2.2703,
      "duration": 0.006,
      "velocity": 91,
      "chip": "ym2612"
    },
    {
      "channel": 1,
      "note": 83,
      "start": 2.2945,
      "duration": 0.0063,
      "velocity": 62,
      "chip": "ym2612"
    },
    {
      "channel": 2,
      "note": 47,
      "start": 2.2951,
      "duration": 0.006,
      "velocity": 91,
      "chip": "ym2612"
    },
    {
      "channel": 4,
      "note": 68,
      "start": 2.3043,
      "duration": 0.0308,
      "velocity": 102,
      "chip": "ym2612"
    },
    {
      "channel": 0,
      "note": 75,
      "start": 2.3197,
      "duration": 0.1963,
      "velocity": 102,
      "chip": "ym2612"
    },
    {
      "channel": 2,
      "note": 47,
      "start": 2.3206,
      "duration": 0.0064,
      "velocity": 91,
      "chip": "ym2612"
    },
    {
      "channel": 3,
      "note": 90,
      "start": 2.3212,
      "duration": 0.1956,
      "velocity": 87,
      "chip": "ym2612"
    },
    {
      "channel": 1,
      "note": 83,
      "start": 2.344,
      "duration": 0.0063,
      "velocity": 62,
      "chip": "ym2612"
    },
    {
      "channel": 2,
      "note": 47,
      "start": 2.3445,
      "duration": 0.006,
      "velocity": 91,
      "chip": "ym2612"
    },
    {
      "channel": 4,
      "note": 71,
      "start": 2.3535,
      "duration": 0.2141,
      "velocity": 102,
      "chip": "ym2612"
    },
    {
      "channel": 1,
      "note": 87,
      "start": 2.3683,
      "duration": 0.0066,
      "velocity": 62,
      "chip": "ym2612"
    },
    {
      "channel": 2,
      "note": 47,
      "start": 2.3687,
      "duration": 0.0064,
      "velocity": 91,
      "chip": "ym2612"
    },
    {
      "channel": 1,
      "note": 83,
      "start": 2.394,
      "duration": 0.0067,
      "velocity": 62,
      "chip": "ym2612"
    },
    {
      "channel": 2,
      "note": 47,
      "start": 2.3945,
      "duration": 0.0064,
      "velocity": 91,
      "chip": "ym2612"
    },
    {
      "channel": 2,
      "note": 47,
      "start": 2.419,
      "duration": 0.0064,
      "velocity": 91,
      "chip": "ym2612"
    },
    {
      "channel": 1,
      "note": 95,
      "start": 2.4439,
      "duration": 0.0065,
      "velocity": 62,
      "chip": "ym2612"
    },
    {
      "channel": 2,
      "note": 47,
      "start": 2.4444,
      "duration": 0.0063,
      "velocity": 91,
      "chip": "ym2612"
    },
    {
      "channel": 1,
      "note": 90,
      "start": 2.4687,
      "duration": 0.0065,
      "velocity": 62,
      "chip": "ym2612"
    },
    {
      "channel": 2,
      "note": 47,
      "start": 2.4691,
      "duration": 0.0063,
      "velocity": 91,
      "chip": "ym2612"
    },
    {
      "channel": 1,
      "note": 83,
      "start": 2.4937,
      "duration": 0.0066,
      "velocity": 62,
      "chip": "ym2612"
    },
    {
      "channel": 2,
      "note": 47,
      "start": 2.4942,
      "duration": 0.0064,
      "velocity": 91,
      "chip": "ym2612"
    },
    {
      "channel": 0,
      "note": 59,
      "start": 2.5221,
      "duration": 0.0241,
      "velocity": 112,
      "chip": "ym2612"
    },
    {
      "channel": 1,
      "note": 52,
      "start": 2.5264,
      "duration": 0.02,
      "velocity": 112,
      "chip": "ym2612"
    },
    {
      "channel": 2,
      "note": 47,
      "start": 2.5308,
      "duration": 0.0119,
      "velocity": 91,
      "chip": "ym2612"
    },
    {
      "channel": 0,
      "note": 59,
      "start": 2.56,
      "duration": 0.0162,
      "velocity": 112,
      "chip": "ym2612"
    },
    {
      "channel": 1,
      "note": 52,
      "start": 2.5605,
      "duration": 0.0159,
      "velocity": 112,
      "chip": "ym2612"
    },
    {
      "channel": 2,
      "note": 47,
      "start": 2.561,
      "duration": 0.006,
      "velocity": 91,
      "chip": "ym2612"
    },
    {
      "channel": 4,
      "note": 75,
      "start": 2.5752,
      "duration": 0.01,
      "velocity": 102,
      "chip": "ym2612"
    },
    {
      "channel": 0,
      "note": 59,
      "start": 2.5906,
      "duration": 0.0123,
      "velocity": 112,
      "chip": "ym2612"
    },
    {
      "channel": 1,
      "note": 52,
      "start": 2.5912,
      "duration": 0.012,
      "velocity": 112,
      "chip": "ym2612"
    },
    {
      "channel": 2,
      "note": 47,
      "start": 2.5917,
      "duration": 0.0073,
      "velocity": 91,
      "chip": "ym2612"
    },
    {
      "channel": 4,
      "note": 59,
      "start": 2.6019,
      "duration": 0.0098,
      "velocity": 102,
      "chip": "ym2612"
    },
    {
      "channel": 0,
      "note": 59,
      "start": 2.6168,
      "duration": 0.011,
      "velocity": 112,
      "chip": "ym2612"
    },
    {
      "channel": 1,
      "note": 52,
      "start": 2.6173,
      "duration": 0.0107,
      "velocity": 112,
      "chip": "ym2612"
    },
    {
      "channel": 2,
      "note": 47,
      "start": 2.6179,
      "duration": 0.006,
      "velocity": 91,
      "chip": "ym2612"
    },
    {
      "channel": 4,
      "note": 59,
      "start": 2.6268,
      "duration": 0.0098,
      "velocity": 102,
      "chip": "ym2612"
    },
    {
      "channel": 0,
      "note": 66,
      "start": 2.6424,
      "duration": 0.0502,
      "velocity": 112,
      "chip": "ym2612"
    },
    {
      "channel": 1,
      "note": 59,
      "start": 2.6429,
      "duration": 0.05,
      "velocity": 112,
      "chip": "ym2612"
    },
    {
      "channel": 2,
      "note": 47,
      "start": 2.6434,
      "duration": 0.0071,
      "velocity": 91,
      "chip": "ym2612"
    },
    {
      "channel": 3,
      "note": 95,
      "start": 2.6439,
      "duration": 0.0004,
      "velocity": 112,
      "chip": "ym2612"
    },
    {
      "channel": 3,
      "note": 95,
      "start": 2.6444,
      "duration": 0.1031,
      "velocity": 112,
      "chip": "ym2612"
    },
    {
      "channel": 4,
      "note": 59,
      "start": 2.6536,
      "duration": 0.01,
      "velocity": 102,
      "chip": "ym2612"
    },
    {
      "channel": 2,
      "note": 47,
      "start": 2.6698,
      "duration": 0.0063,
      "velocity": 91,
      "chip": "ym2612"
    },
    {
      "channel": 4,
      "note": 59,
      "start": 2.6793,
      "duration": 0.0519,
      "velocity": 102,
      "chip": "ym2612"
    },
    {
      "channel": 0,
      "note": 64,
      "start": 2.6949,
      "duration": 0.0124,
      "velocity": 112,
      "chip": "ym2612"
    },
    {
      "channel": 1,
      "note": 57,
      "start": 2.6954,
      "duration": 0.0122,
      "velocity": 112,
      "chip": "ym2612"
    },
    {
      "channel": 2,
      "note": 47,
      "start": 2.696,
      "duration": 0.0077,
      "velocity": 91,
      "chip": "ym2612"
    },
    {
      "channel": 0,
      "note": 68,
      "start": 2.7229,
      "duration": 0.0504,
      "velocity": 112,
      "chip": "ym2612"
    },
    {
      "channel": 1,
      "note": 61,
      "start": 2.7233,
      "duration": 0.0502,
      "velocity": 112,
      "chip": "ym2612"
    },
    {
      "channel": 2,
      "note": 47,
      "start": 2.7238,
      "duration": 0.0065,
      "velocity": 91,
      "chip": "ym2612"
    },
    {
      "channel": 4,
      "note": 66,
      "start": 2.7336,
      "duration": 0.0101,
      "velocity": 102,
      "chip": "ym2612"
    },
    {
      "channel": 2,
      "note": 47,
      "start": 2.7502,
      "duration": 0.0068,
      "velocity": 91,
      "chip": "ym2612"
    },
    {
      "channel": 4,
      "note": 64,
      "start": 2.7601,
      "duration": 0.0514,
      "velocity": 102,
      "chip": "ym2612"
    },
    {
      "channel": 0,
      "note": 59,
      "start": 2.7766,
      "duration": 0.1846,
      "velocity": 112,
      "chip": "ym2612"
    },
    {
      "channel": 1,
      "note": 52,
      "start": 2.7771,
      "duration": 0.1844,
      "velocity": 112,
      "chip": "ym2612"
    },
    {
      "channel": 2,
      "note": 47,
      "start": 2.7776,
      "duration": 0.0065,
      "velocity": 91,
      "chip": "ym2612"
    },
    {
      "channel": 2,
      "note": 47,
      "start": 2.803,
      "duration": 0.0077,
      "velocity": 91,
      "chip": "ym2612"
    },
    {
      "channel": 4,
      "note": 68,
      "start": 2.814,
      "duration": 0.1861,
      "velocity": 102,
      "chip": "ym2612"
    },
    {
      "channel": 2,
      "note": 47,
      "start": 2.8311,
      "duration": 0.0067,
      "velocity": 91,
      "chip": "ym2612"
    },
    {
      "channel": 2,
      "note": 47,
      "start": 2.8582,
      "duration": 0.0075,
      "velocity": 91,
      "chip": "ym2612"
    },
    {
      "channel": 3,
      "note": 89,
      "start": 2.8587,
      "duration": 0.0005,
      "velocity": 112,
      "chip": "ym2612"
    },
    {
      "channel": 3,
      "note": 89,
      "start": 2.8592,
      "duration": 0.1029,
      "velocity": 112,
      "chip": "ym2612"
    },
    {
      "channel": 2,
      "note": 47,
      "start": 2.8852,
      "duration": 0.0067,
      "velocity": 91,
      "chip": "ym2612"
    },
    {
      "channel": 2,
      "note": 47,
      "start": 2.9112,
      "duration": 0.0067,
      "velocity": 91,
      "chip": "ym2612"
    },
    {
      "channel": 2,
      "note": 47,
      "start": 2.9378,
      "duration": 0.0067,
      "velocity": 91,
      "chip": "ym2612"
    },
    {
      "channel": 0,
      "note": 59,
      "start": 2.9643,
      "duration": 0.0122,
      "velocity": 112,
      "chip": "ym2612"
    },
    {
      "channel": 1,
      "note": 52,
      "start": 2.9649,
      "duration": 0.0118,
      "velocity": 112,
      "chip": "ym2612"
    },
    {
      "channel": 2,
      "note": 47,
      "start": 2.9656,
      "duration": 0.0071,
      "velocity": 91,
      "chip": "ym2612"
    },
    {
      "channel": 0,
      "note": 59,
      "start": 2.9917,
      "duration": 0.0119,
      "velocity": 112,
      "chip": "ym2612"
    },
    {
      "channel": 1,
      "note": 52,
      "start": 2.9923,
      "duration": 0.0116,
      "velocity": 112,
      "chip": "ym2612"
    },
    {
      "channel": 2,
      "note": 47,
      "start": 2.9928,
      "duration": 0.0066,
      "velocity": 91,
      "chip": "ym2612"
    },
    {
      "channel": 4,
      "note": 59,
      "start": 3.0026,
      "duration": 0.0104,
      "velocity": 102,
      "chip": "ym2612"
    },
    {
      "channel": 0,
      "note": 59,
      "start": 3.0184,
      "duration": 0.0116,
      "velocity": 112,
      "chip": "ym2612"
    },
    {
      "channel": 1,
      "note": 52,
      "start": 3.0189,
      "duration": 0.0114,
      "velocity": 112,
      "chip": "ym2612"
    },
    {
      "channel": 2,
      "note": 47,
      "start": 3.0194,
      "duration": 0.0065,
      "velocity": 91,
      "chip": "ym2612"
    },
    {
      "channel": 4,
      "note": 59,
      "start": 3.029,
      "duration": 0.0105,
      "velocity": 102,
      "chip": "ym2612"
    },
    {
      "channel": 0,
      "note": 59,
      "start": 3.0451,
      "duration": 0.0117,
      "velocity": 112,
      "chip": "ym2612"
    },
    {
      "channel": 1,
      "note": 52,
      "start": 3.0456,
      "duration": 0.0114,
      "velocity": 112,
      "chip": "ym2612"
    },
    {
      "channel": 2,
      "note": 47,
      "start": 3.0461,
      "duration": 0.0065,
      "velocity": 91,
      "chip": "ym2612"
    },
    {
      "channel": 4,
      "note": 59,
      "start": 3.0558,
      "duration": 0.0105,
      "velocity": 102,
      "chip": "ym2612"
    },
    {
      "channel": 0,
      "note": 66,
      "start": 3.0721,
      "duration": 0.0502,
      "velocity": 112,
      "chip": "ym2612"
    },
    {
      "channel": 1,
      "note": 59,
      "start": 3.0727,
      "duration": 0.05,
      "velocity": 112,
      "chip": "ym2612"
    },
    {
      "channel": 2,
      "note": 47,
      "start": 3.0732,
      "duration": 0.0071,
      "velocity": 91,
      "chip": "ym2612"
    },
    {
      "channel": 3,
      "note": 89,
      "start": 3.0737,
      "duration": 0.0005,
      "velocity": 112,
      "chip": "ym2612"
    },
    {
      "channel": 3,
      "note": 89,
      "start": 3.0742,
      "duration": 0.1032,
      "velocity": 112,
      "chip": "ym2612"
    },
    {
      "channel": 4,
      "note": 59,
      "start": 3.0834,
      "duration": 0.0099,
      "velocity": 102,
      "chip": "ym2612"
    },
    {
      "channel": 2,
      "note": 47,
      "start": 3.0996,
      "duration": 0.0063,
      "velocity": 91,
      "chip": "ym2612"
    },
    {
      "channel": 4,
      "note": 59,
      "start": 3.109,
      "duration": 0.0519,
      "velocity": 102,
      "chip": "ym2612"
    },
    {
      "channel": 0,
      "note": 64,
      "start": 3.1247,
      "duration": 0.0124,
      "velocity": 112,
      "chip": "ym2612"
    },
    {
      "channel": 1,
      "note": 57,
      "start": 3.1252,
      "duration": 0.0121,
      "velocity": 112,
      "chip": "ym2612"
    },
    {
      "channel": 2,
      "note": 47,
      "start": 3.1257,
      "duration": 0.0077,
      "velocity": 91,
      "chip": "ym2612"
    },
    {
      "channel": 0,
      "note": 68,
      "start": 3.1526,
      "duration": 0.0511,
      "velocity": 112,
      "chip": "ym2612"
    },
    {
      "channel": 1,
      "note": 61,
      "start": 3.1531,
      "duration": 0.0509,
      "velocity": 112,
      "chip": "ym2612"
    },
    {
      "channel": 2,
      "note": 47,
      "start": 3.1536,
      "duration": 0.0065,
      "velocity": 91,
      "chip": "ym2612"
    },
    {
      "channel": 4,
      "note": 66,
      "start": 3.1633,
      "duration": 0.0101,
      "velocity": 102,
      "chip": "ym2612"
    },
    {
      "channel": 2,
      "note": 47,
      "start": 3.1802,
      "duration": 0.0069,
      "velocity": 91,
      "chip": "ym2612"
    },
    {
      "channel": 4,
      "note": 64,
      "start": 3.1904,
      "duration": 0.051,
      "velocity": 102,
      "chip": "ym2612"
    },
    {
      "channel": 0,
      "note": 59,
      "start": 3.2071,
      "duration": 0.1833,
      "velocity": 112,
      "chip": "ym2612"
    },
    {
      "channel": 1,
      "note": 52,
      "start": 3.2076,
      "duration": 0.1832,
      "velocity": 112,
      "chip": "ym2612"
    },
    {
      "channel": 2,
      "note": 47,
      "start": 3.2081,
      "duration": 0.0063,
      "velocity": 91,
      "chip": "ym2612"
    },
    {
      "channel": 2,
      "note": 47,
      "start": 3.2329,
      "duration": 0.0076,
      "velocity": 91,
      "chip": "ym2612"
    },
    {
      "channel": 4,
      "note": 68,
      "start": 3.2438,
      "duration": 0.19,
      "velocity": 102,
      "chip": "ym2612"
    },
    {
      "channel": 2,
      "note": 47,
      "start": 3.2607,
      "duration": 0.0067,
      "velocity": 91,
      "chip": "ym2612"
    },
    {
      "channel": 2,
      "note": 47,
      "start": 3.2868,
      "duration": 0.0075,
      "velocity": 91,
      "chip": "ym2612"
    },
    {
      "channel": 3,
      "note": 89,
      "start": 3.2873,
      "duration": 0.0004,
      "velocity": 112,
      "chip": "ym2612"
    },
    {
      "channel": 3,
      "note": 89,
      "start": 3.2878,
      "duration": 0.1035,
      "velocity": 112,
      "chip": "ym2612"
    },
    {
      "channel": 2,
      "note": 47,
      "start": 3.3135,
      "duration": 0.0067,
      "velocity": 91,
      "chip": "ym2612"
    },
    {
      "channel": 2,
      "note": 47,
      "start": 3.3396,
      "duration": 0.0067,
      "velocity": 91,
      "chip": "ym2612"
    },
    {
      "channel": 2,
      "note": 47,
      "start": 3.3662,
      "duration": 0.0069,
      "velocity": 91,
      "chip": "ym2612"
    },
    {
      "channel": 0,
      "note": 69,
      "start": 3.3967,
      "duration": 0.0787,
      "velocity": 102,
      "chip": "ym2612"
    },
    {
      "channel": 2,
      "note": 47,
      "start": 3.401,
      "duration": 0.0068,
      "velocity": 91,
      "chip": "ym2612"
    },
    {
      "channel": 1,
      "note": 83,
      "start": 3.426,
      "duration": 0.0068,
      "velocity": 62,
      "chip": "ym2612"
    },
    {
      "channel": 2,
      "note": 47,
      "start": 3.4265,
      "duration": 0.0065,
      "velocity": 91,
      "chip": "ym2612"
    },
    {
      "channel": 4,
      "note": 59,
      "start": 3.4364,
      "duration": 0.0771,
      "velocity": 102,
      "chip": "ym2612"
    },
    {
      "channel": 1,
      "note": 87,
      "start": 3.4521,
      "duration": 0.0068,
      "velocity": 62,
      "chip": "ym2612"
    },
    {
      "channel": 2,
      "note": 47,
      "start": 3.4526,
      "duration": 0.0065,
      "velocity": 91,
      "chip": "ym2612"
    },
    {
      "channel": 0,
      "note": 68,
      "start": 3.4785,
      "duration": 0.0116,
      "velocity": 102,
      "chip": "ym2612"
    },
    {
      "channel": 1,
      "note": 83,
      "start": 3.479,
      "duration": 0.0068,
      "velocity": 62,
      "chip": "ym2612"
    },
    {
      "channel": 2,
      "note": 47,
      "start": 3.4795,
      "duration": 0.0066,
      "velocity": 91,
      "chip": "ym2612"
    },
    {
      "channel": 0,
      "note": 66,
      "start": 3.4924,
      "duration": 0.0103,
      "velocity": 102,
      "chip": "ym2612"
    },
    {
      "channel": 0,
      "note": 68,
      "start": 3.5055,
      "duration": 0.0335,
      "velocity": 102,
      "chip": "ym2612"
    },
    {
      "channel": 2,
      "note": 47,
      "start": 3.5062,
      "duration": 0.0066,
      "velocity": 91,
      "chip": "ym2612"
    },
    {
      "channel": 4,
      "note": 69,
      "start": 3.5159,
      "duration": 0.0101,
      "velocity": 102,
      "chip": "ym2612"
    },
    {
      "channel": 4,
      "note": 68,
      "start": 3.5284,
      "duration": 0.0119,
      "velocity": 102,
      "chip": "ym2612"
    },
    {
      "channel": 1,
      "note": 83,
      "start": 3.5325,
      "duration": 0.0068,
      "velocity": 62,
      "chip": "ym2612"
    },
    {
      "channel": 2,
      "note": 47,
      "start": 3.533,
      "duration": 0.0065,
      "velocity": 91,
      "chip": "ym2612"
    },
    {
      "channel": 4,
      "note": 66,
      "start": 3.5429,
      "duration": 0.0318,
      "velocity": 102,
      "chip": "ym2612"
    },
    {
      "channel": 0,
      "note": 64,
      "start": 3.5582,
      "duration": 0.0339,
      "velocity": 102,
      "chip": "ym2612"
    },
    {
      "channel": 1,
      "note": 87,
      "start": 3.5587,
      "duration": 0.0067,
      "velocity": 62,
      "chip": "ym2612"
    },
    {
      "channel": 2,
      "note": 47,
      "start": 3.5592,
      "duration": 0.0064,
      "velocity": 91,
      "chip": "ym2612"
    },
    {
      "channel": 1,
      "note": 83,
      "start": 3.5854,
      "duration": 0.007,
      "velocity": 62,
      "chip": "ym2612"
    },
    {
      "channel": 2,
      "note": 47,
      "start": 3.5859,
      "duration": 0.0068,
      "velocity": 91,
      "chip": "ym2612"
    },
    {
      "channel": 4,
      "note": 68,
      "start": 3.5962,
      "duration": 0.0372,
      "velocity": 102,
      "chip": "ym2612"
    },
    {
      "channel": 0,
      "note": 66,
      "start": 3.6125,
      "duration": 0.2114,
      "velocity": 102,
      "chip": "ym2612"
    },
    {
      "channel": 2,
      "note": 47,
      "start": 3.6134,
      "duration": 0.0112,
      "velocity": 91,
      "chip": "ym2612"
    },
    {
      "channel": 1,
      "note": 83,
      "start": 3.6427,
      "duration": 0.0066,
      "velocity": 62,
      "chip": "ym2612"
    },
    {
      "channel": 2,
      "note": 47,
      "start": 3.6432,
      "duration": 0.0063,
      "velocity": 91,
      "chip": "ym2612"
    },
    {
      "channel": 4,
      "note": 64,
      "start": 3.6528,
      "duration": 0.2074,
      "velocity": 102,
      "chip": "ym2612"
    },
    {
      "channel": 1,
      "note": 87,
      "start": 3.6685,
      "duration": 0.0069,
      "velocity": 62,
      "chip": "ym2612"
    },
    {
      "channel": 2,
      "note": 47,
      "start": 3.669,
      "duration": 0.0066,
      "velocity": 91,
      "chip": "ym2612"
    },
    {
      "channel": 1,
      "note": 83,
      "start": 3.6952,
      "duration": 0.007,
      "velocity": 62,
      "chip": "ym2612"
    },
    {
      "channel": 2,
      "note": 47,
      "start": 3.6957,
      "duration": 0.0068,
      "velocity": 91,
      "chip": "ym2612"
    },
    {
      "channel": 2,
      "note": 47,
      "start": 3.7222,
      "duration": 0.0068,
      "velocity": 91,
      "chip": "ym2612"
    },
    {
      "channel": 3,
      "note": 90,
      "start": 3.7229,
      "duration": 0.0043,
      "velocity": 78,
      "chip": "ym2612"
    },
    {
      "channel": 3,
      "note": 90,
      "start": 3.7356,
      "duration": 0.004,
      "velocity": 78,
      "chip": "ym2612"
    },
    {
      "channel": 1,
      "note": 83,
      "start": 3.7476,
      "duration": 0.007,
      "velocity": 62,
      "chip": "ym2612"
    },
    {
      "channel": 2,
      "note": 47,
      "start": 3.748,
      "duration": 0.0068,
      "velocity": 91,
      "chip": "ym2612"
    },
    {
      "channel": 3,
      "note": 90,
      "start": 3.7488,
      "duration": 0.0043,
      "velocity": 78,
      "chip": "ym2612"
    },
    {
      "channel": 3,
      "note": 87,
      "start": 3.7615,
      "duration": 0.0039,
      "velocity": 78,
      "chip": "ym2612"
    },
    {
      "channel": 1,
      "note": 90,
      "start": 3.7732,
      "duration": 0.0071,
      "velocity": 62,
      "chip": "ym2612"
    },
    {
      "channel": 2,
      "note": 47,
      "start": 3.7737,
      "duration": 0.0068,
      "velocity": 91,
      "chip": "ym2612"
    },
    {
      "channel": 3,
      "note": 87,
      "start": 3.7744,
      "duration": 0.0043,
      "velocity": 78,
      "chip": "ym2612"
    },
    {
      "channel": 3,
      "note": 90,
      "start": 3.7876,
      "duration": 0.0041,
      "velocity": 78,
      "chip": "ym2612"
    },
    {
      "channel": 1,
      "note": 83,
      "start": 3.8006,
      "duration": 0.0071,
      "velocity": 62,
      "chip": "ym2612"
    },
    {
      "channel": 2,
      "note": 47,
      "start": 3.8011,
      "duration": 0.0068,
      "velocity": 91,
      "chip": "ym2612"
    },
    {
      "channel": 3,
      "note": 90,
      "start": 3.8018,
      "duration": 0.0044,
      "velocity": 78,
      "chip": "ym2612"
    },
    {
      "channel": 3,
      "note": 85,
      "start": 3.8147,
      "duration": 0.004,
      "velocity": 78,
      "chip": "ym2612"
    },
    {
      "channel": 0,
      "note": 69,
      "start": 3.8273,
      "duration": 0.0718,
      "velocity": 102,
      "chip": "ym2612"
    },
    {
      "channel": 2,
      "note": 47,
      "start": 3.8283,
      "duration": 0.0063,
      "velocity": 91,
      "chip": "ym2612"
    },
    {
      "channel": 1,
      "note": 83,
      "start": 3.853,
      "duration": 0.0063,
      "velocity": 62,
      "chip": "ym2612"
    },
    {
      "channel": 2,
      "note": 47,
      "start": 3.8535,
      "duration": 0.0061,
      "velocity": 91,
      "chip": "ym2612"
    },
    {
      "channel": 4,
      "note": 66,
      "start": 3.8625,
      "duration": 0.0727,
      "velocity": 102,
      "chip": "ym2612"
    },
    {
      "channel": 1,
      "note": 87,
      "start": 3.8773,
      "duration": 0.0064,
      "velocity": 62,
      "chip": "ym2612"
    },
    {
      "channel": 2,
      "note": 47,
      "start": 3.8778,
      "duration": 0.0062,
      "velocity": 91,
      "chip": "ym2612"
    },
    {
      "channel": 0,
      "note": 68,
      "start": 3.9021,
      "duration": 0.0109,
      "velocity": 102,
      "chip": "ym2612"
    },
    {
      "channel": 1,
      "note": 83,
      "start": 3.9026,
      "duration": 0.0064,
      "velocity": 62,
      "chip": "ym2612"
    },
    {
      "channel": 2,
      "note": 47,
      "start": 3.9031,
      "duration": 0.0062,
      "velocity": 91,
      "chip": "ym2612"
    },
    {
      "channel": 0,
      "note": 66,
      "start": 3.9151,
      "duration": 0.0097,
      "velocity": 102,
      "chip": "ym2612"
    },
    {
      "channel": 0,
      "note": 68,
      "start": 3.9276,
      "duration": 0.0319,
      "velocity": 102,
      "chip": "ym2612"
    },
    {
      "channel": 2,
      "note": 47,
      "start": 3.9283,
      "duration": 0.0062,
      "velocity": 91,
      "chip": "ym2612"
    },
    {
      "channel": 4,
      "note": 69,
      "start": 3.9376,
      "duration": 0.0095,
      "velocity": 102,
      "chip": "ym2612"
    },
    {
      "channel": 4,
      "note": 68,
      "start": 3.9493,
      "duration": 0.0113,
      "velocity": 102,
      "chip": "ym2612"
    },
    {
      "channel": 1,
      "note": 83,
      "start": 3.9534,
      "duration": 0.0063,
      "velocity": 62,
      "chip": "ym2612"
    },
    {
      "channel": 2,
      "note": 47,
      "start": 3.9539,
      "duration": 0.0061,
      "velocity": 91,
      "chip": "ym2612"
    },
    {
      "channel": 4,
      "note": 66,
      "start": 3.9631,
      "duration": 0.0306,
      "velocity": 102,
      "chip": "ym2612"
    },
    {
      "channel": 0,
      "note": 71,
      "start": 3.978,
      "duration": 0.0315,
      "velocity": 102,
      "chip": "ym2612"
    },
    {
      "channel": 1,
      "note": 87,
      "start": 3.9785,
      "duration": 0.0065,
      "velocity": 62,
      "chip": "ym2612"
    },
    {
      "channel": 2,
      "note": 47,
      "start": 3.979,
      "duration": 0.0062,
      "velocity": 91,
      "chip": "ym2612"
    },
    {
      "channel": 1,
      "note": 83,
      "start": 4.0034,
      "duration": 0.0063,
      "velocity": 62,
      "chip": "ym2612"
    },
    {
      "channel": 2,
      "note": 47,
      "start": 4.0039,
      "duration": 0.006,
      "velocity": 91,
      "chip": "ym2612"
    },
    {
      "channel": 4,
      "note": 68,
      "start": 4.0131,
      "duration": 0.0307,
      "velocity": 102,
      "chip": "ym2612"
    },
    {
      "channel": 0,
      "note": 59,
      "start": 4.0286,
      "duration": 0.201,
      "velocity": 102,
      "chip": "ym2612"
    },
    {
      "channel": 2,
      "note": 47,
      "start": 4.0295,
      "duration": 0.0062,
      "velocity": 91,
      "chip": "ym2612"
    },
    {
      "channel": 1,
      "note": 83,
      "start": 4.0529,
      "duration": 0.0062,
      "velocity": 62,
      "chip": "ym2612"
    },
    {
      "channel": 2,
      "note": 47,
      "start": 4.0534,
      "duration": 0.006,
      "velocity": 91,
      "chip": "ym2612"
    },
    {
      "channel": 4,
      "note": 71,
      "start": 4.0624,
      "duration": 0.2102,
      "velocity": 102,
      "chip": "ym2612"
    },
    {
      "channel": 1,
      "note": 87,
      "start": 4.0771,
      "duration": 0.0075,
      "velocity": 62,
      "chip": "ym2612"
    },
    {
      "channel": 2,
      "note": 47,
      "start": 4.0776,
      "duration": 0.0073,
      "velocity": 91,
      "chip": "ym2612"
    },
    {
      "channel": 1,
      "note": 83,
      "start": 4.1032,
      "duration": 0.0066,
      "velocity": 62,
      "chip": "ym2612"
    },
    {
      "channel": 2,
      "note": 47,
      "start": 4.1037,
      "duration": 0.0064,
      "velocity": 91,
      "chip": "ym2612"
    },
    {
      "channel": 2,
      "note": 47,
      "start": 4.129,
      "duration": 0.0068,
      "velocity": 91,
      "chip": "ym2612"
    },
    {
      "channel": 3,
      "note": 85,
      "start": 4.1298,
      "duration": 0.0043,
      "velocity": 78,
      "chip": "ym2612"
    },
    {
      "channel": 3,
      "note": 85,
      "start": 4.1424,
      "duration": 0.004,
      "velocity": 78,
      "chip": "ym2612"
    },
    {
      "channel": 1,
      "note": 95,
      "start": 4.1544,
      "duration": 0.0071,
      "velocity": 62,
      "chip": "ym2612"
    },
    {
      "channel": 2,
      "note": 47,
      "start": 4.1549,
      "duration": 0.0069,
      "velocity": 91,
      "chip": "ym2612"
    },
    {
      "channel": 3,
      "note": 85,
      "start": 4.1557,
      "duration": 0.0043,
      "velocity": 78,
      "chip": "ym2612"
    },
    {
      "channel": 3,
      "note": 87,
      "start": 4.1688,
      "duration": 0.0041,
      "velocity": 78,
      "chip": "ym2612"
    },
    {
      "channel": 1,
      "note": 90,
      "start": 4.1807,
      "duration": 0.007,
      "velocity": 62,
      "chip": "ym2612"
    },
    {
      "channel": 2,
      "note": 47,
      "start": 4.1812,
      "duration": 0.0067,
      "velocity": 91,
      "chip": "ym2612"
    },
    {
      "channel": 3,
      "note": 87,
      "start": 4.1819,
      "duration": 0.0043,
      "velocity": 78,
      "chip": "ym2612"
    },
    {
      "channel": 3,
      "note": 88,
      "start": 4.1947,
      "duration": 0.004,
      "velocity": 78,
      "chip": "ym2612"
    },
    {
      "channel": 1,
      "note": 83,
      "start": 4.2063,
      "duration": 0.0071,
      "velocity": 62,
      "chip": "ym2612"
    },
    {
      "channel": 2,
      "note": 47,
      "start": 4.2068,
      "duration": 0.0069,
      "velocity": 91,
      "chip": "ym2612"
    },
    {
      "channel": 3,
      "note": 88,
      "start": 4.2076,
      "duration": 0.0043,
      "velocity": 78,
      "chip": "ym2612"
    },
    {
      "channel": 3,
      "note": 90,
      "start": 4.2204,
      "duration": 0.0039,
      "velocity": 78,
      "chip": "ym2612"
    },
    {
      "channel": 0,
      "note": 69,
      "start": 4.2327,
      "duration": 0.079,
      "velocity": 102,
      "chip": "ym2612"
    },
    {
      "channel": 2,
      "note": 47,
      "start": 4.2369,
      "duration": 0.0112,
      "velocity": 91,
      "chip": "ym2612"
    },
    {
      "channel": 3,
      "note": 90,
      "start": 4.2422,
      "duration": 0.2476,
      "velocity": 87,
      "chip": "ym2612"
    },
    {
      "channel": 1,
      "note": 83,
      "start": 4.2656,
      "duration": 0.0063,
      "velocity": 62,
      "chip": "ym2612"
    },
    {
      "channel": 2,
      "note": 47,
      "start": 4.2661,
      "duration": 0.006,
      "velocity": 91,
      "chip": "ym2612"
    },
    {
      "channel": 4,
      "note": 59,
      "start": 4.275,
      "duration": 0.0727,
      "velocity": 102,
      "chip": "ym2612"
    },
    {
      "channel": 1,
      "note": 87,
      "start": 4.2898,
      "duration": 0.0064,
      "velocity": 62,
      "chip": "ym2612"
    },
    {
      "channel": 2,
      "note": 47,
      "start": 4.2903,
      "duration": 0.0062,
      "velocity": 91,
      "chip": "ym2612"
    },
    {
      "channel": 0,
      "note": 68,
      "start": 4.3147,
      "duration": 0.0109,
      "velocity": 102,
      "chip": "ym2612"
    },
    {
      "channel": 1,
      "note": 83,
      "start": 4.3152,
      "duration": 0.0065,
      "velocity": 62,
      "chip": "ym2612"
    },
    {
      "channel": 2,
      "note": 47,
      "start": 4.3157,
      "duration": 0.0062,
      "velocity": 91,
      "chip": "ym2612"
    },
    {
      "channel": 0,
      "note": 66,
      "start": 4.3277,
      "duration": 0.0097,
      "velocity": 102,
      "chip": "ym2612"
    },
    {
      "channel": 0,
      "note": 68,
      "start": 4.3402,
      "duration": 0.0325,
      "velocity": 102,
      "chip": "ym2612"
    },
    {
      "channel": 2,
      "note": 47,
      "start": 4.3409,
      "duration": 0.0063,
      "velocity": 91,
      "chip": "ym2612"
    },
    {
      "channel": 4,
      "note": 69,
      "start": 4.3501,
      "duration": 0.0098,
      "velocity": 102,
      "chip": "ym2612"
    },
    {
      "channel": 4,
      "note": 68,
      "start": 4.3622,
      "duration": 0.0115,
      "velocity": 102,
      "chip": "ym2612"
    },
    {
      "channel": 1,
      "note": 83,
      "start": 4.3665,
      "duration": 0.0065,
      "velocity": 62,
      "chip": "ym2612"
    },
    {
      "channel": 2,
      "note": 47,
      "start": 4.367,
      "duration": 0.0062,
      "velocity": 91,
      "chip": "ym2612"
    },
    {
      "channel": 4,
      "note": 66,
      "start": 4.3763,
      "duration": 0.0299,
      "velocity": 102,
      "chip": "ym2612"
    },
    {
      "channel": 0,
      "note": 64,
      "start": 4.3908,
      "duration": 0.0314,
      "velocity": 102,
      "chip": "ym2612"
    },
    {
      "channel": 1,
      "note": 87,
      "start": 4.3913,
      "duration": 0.0062,
      "velocity": 62,
      "chip": "ym2612"
    },
    {
      "channel": 2,
      "note": 47,
      "start": 4.3918,
      "duration": 0.006,
      "velocity": 91,
      "chip": "ym2612"
    },
    {
      "channel": 1,
      "note": 83,
      "start": 4.416,
      "duration": 0.0064,
      "velocity": 62,
      "chip": "ym2612"
    },
    {
      "channel": 2,
      "note": 47,
      "start": 4.4165,
      "duration": 0.0062,
      "velocity": 91,
      "chip": "ym2612"
    },
    {
      "channel": 4,
      "note": 68,
      "start": 4.4258,
      "duration": 0.0309,
      "velocity": 102,
      "chip": "ym2612"
    },
    {
      "channel": 0,
      "note": 66,
      "start": 4.4413,
      "duration": 0.1984,
      "velocity": 102,
      "chip": "ym2612"
    },
    {
      "channel": 2,
      "note": 47,
      "start": 4.4423,
      "duration": 0.0061,
      "velocity": 91,
      "chip": "ym2612"
    },
    {
      "channel": 1,
      "note": 83,
      "start": 4.467,
      "duration": 0.0064,
      "velocity": 62,
      "chip": "ym2612"
    },
    {
      "channel": 2,
      "note": 47,
      "start": 4.4675,
      "duration": 0.0061,
      "velocity": 91,
      "chip": "ym2612"
    },
    {
      "channel": 4,
      "note": 64,
      "start": 4.4766,
      "duration": 0.1989,
      "velocity": 102,
      "chip": "ym2612"
    },
    {
      "channel": 1,
      "note": 87,
      "start": 4.4916,
      "duration": 0.0067,
      "velocity": 62,
      "chip": "ym2612"
    },
    {
      "channel": 2,
      "note": 47,
      "start": 4.492,
      "duration": 0.0065,
      "velocity": 91,
      "chip": "ym2612"
    },
    {
      "channel": 3,
      "note": 95,
      "start": 4.4927,
      "duration": 0.0466,
      "velocity": 87,
      "chip": "ym2612"
    },
    {
      "channel": 1,
      "note": 83,
      "start": 4.5165,
      "duration": 0.0065,
      "velocity": 62,
      "chip": "ym2612"
    },
    {
      "channel": 2,
      "note": 47,
      "start": 4.517,
      "duration": 0.0062,
      "velocity": 91,
      "chip": "ym2612"
    },
    {
      "channel": 2,
      "note": 47,
      "start": 4.5423,
      "duration": 0.0068,
      "velocity": 91,
      "chip": "ym2612"
    },
    {
      "channel": 3,
      "note": 93,
      "start": 4.5429,
      "duration": 0.0478,
      "velocity": 87,
      "chip": "ym2612"
    },
    {
      "channel": 1,
      "note": 83,
      "start": 4.5681,
      "duration": 0.0064,
      "velocity": 62,
      "chip": "ym2612"
    },
    {
      "channel": 2,
      "note": 47,
      "start": 4.5686,
      "duration": 0.0061,
      "velocity": 91,
      "chip": "ym2612"
    },
    {
      "channel": 1,
      "note": 90,
      "start": 4.5925,
      "duration": 0.0068,
      "velocity": 62,
      "chip": "ym2612"
    },
    {
      "channel": 2,
      "note": 47,
      "start": 4.593,
      "duration": 0.0065,
      "velocity": 91,
      "chip": "ym2612"
    },
    {
      "channel": 3,
      "note": 92,
      "start": 4.5936,
      "duration": 0.0469,
      "velocity": 87,
      "chip": "ym2612"
    },
    {
      "channel": 1,
      "note": 83,
      "start": 4.6175,
      "duration": 0.0065,
      "velocity": 62,
      "chip": "ym2612"
    },
    {
      "channel": 2,
      "note": 47,
      "start": 4.618,
      "duration": 0.0062,
      "velocity": 91,
      "chip": "ym2612"
    },
    {
      "channel": 0,
      "note": 69,
      "start": 4.6429,
      "duration": 0.0717,
      "velocity": 102,
      "chip": "ym2612"
    },
    {
      "channel": 2,
      "note": 47,
      "start": 4.6438,
      "duration": 0.0065,
      "velocity": 91,
      "chip": "ym2612"
    },
    {
      "channel": 3,
      "note": 88,
      "start": 4.6445,
      "duration": 0.1971,
      "velocity": 87,
      "chip": "ym2612"
    },
    {
      "channel": 1,
      "note": 83,
      "start": 4.6685,
      "duration": 0.0063,
      "velocity": 62,
      "chip": "ym2612"
    },
    {
      "channel": 2,
      "note": 47,
      "start": 4.669,
      "duration": 0.0061,
      "velocity": 91,
      "chip": "ym2612"
    },
    {
      "channel": 4,
      "note": 66,
      "start": 4.678,
      "duration": 0.0734,
      "velocity": 102,
      "chip": "ym2612"
    },
    {
      "channel": 1,
      "note": 87,
      "start": 4.6928,
      "duration": 0.0064,
      "velocity": 62,
      "chip": "ym2612"
    },
    {
      "channel": 2,
      "note": 47,
      "start": 4.6932,
      "duration": 0.0062,
      "velocity": 91,
      "chip": "ym2612"
    },
    {
      "channel": 0,
      "note": 68,
      "start": 4.7176,
      "duration": 0.011,
      "velocity": 102,
      "chip": "ym2612"
    },
    {
      "channel": 1,
      "note": 83,
      "start": 4.7181,
      "duration": 0.0064,
      "velocity": 62,
      "chip": "ym2612"
    },
    {
      "channel": 2,
      "note": 47,
      "start": 4.7186,
      "duration": 0.0062,
      "velocity": 91,
      "chip": "ym2612"
    },
    {
      "channel": 0,
      "note": 66,
      "start": 4.7308,
      "duration": 0.01,
      "velocity": 102,
      "chip": "ym2612"
    },
    {
      "channel": 0,
      "note": 68,
      "start": 4.7438,
      "duration": 0.0317,
      "velocity": 102,
      "chip": "ym2612"
    },
    {
      "channel": 2,
      "note": 47,
      "start": 4.7445,
      "duration": 0.0062,
      "velocity": 91,
      "chip": "ym2612"
    },
    {
      "channel": 4,
      "note": 69,
      "start": 4.7537,
      "duration": 0.0095,
      "velocity": 102,
      "chip": "ym2612"
    },
    {
      "channel": 4,
      "note": 68,
      "start": 4.7654,
      "duration": 0.0112,
      "velocity": 102,
      "chip": "ym2612"
    },
    {
      "channel": 1,
      "note": 83,
      "start": 4.7694,
      "duration": 0.0063,
      "velocity": 62,
      "chip": "ym2612"
    },
    {
      "channel": 2,
      "note": 47,
      "start": 4.7699,
      "duration": 0.0061,
      "velocity": 91,
      "chip": "ym2612"
    },
    {
      "channel": 4,
      "note": 66,
      "start": 4.7792,
      "duration": 0.0299,
      "velocity": 102,
      "chip": "ym2612"
    },
    {
      "channel": 0,
      "note": 71,
      "start": 4.7937,
      "duration": 0.0312,
      "velocity": 102,
      "chip": "ym2612"
    },
    {
      "channel": 1,
      "note": 87,
      "start": 4.7942,
      "duration": 0.0062,
      "velocity": 62,
      "chip": "ym2612"
    },
    {
      "channel": 2,
      "note": 47,
      "start": 4.7947,
      "duration": 0.006,
      "velocity": 91,
      "chip": "ym2612"
    },
    {
      "channel": 1,
      "note": 83,
      "start": 4.8188,
      "duration": 0.0063,
      "velocity": 62,
      "chip": "ym2612"
    },
    {
      "channel": 2,
      "note": 47,
      "start": 4.8193,
      "duration": 0.0061,
      "velocity": 91,
      "chip": "ym2612"
    },
    {
      "channel": 4,
      "note": 68,
      "start": 4.8285,
      "duration": 0.0308,
      "velocity": 102,
      "chip": "ym2612"
    },
    {
      "channel": 0,
      "note": 75,
      "start": 4.844,
      "duration": 0.1973,
      "velocity": 102,
      "chip": "ym2612"
    },
    {
      "channel": 2,
      "note": 47,
      "start": 4.845,
      "duration": 0.0064,
      "velocity": 91,
      "chip": "ym2612"
    },
    {
      "channel": 3,
      "note": 90,
      "start": 4.8455,
      "duration": 0.1966,
      "velocity": 87,
      "chip": "ym2612"
    },
    {
      "channel": 1,
      "note": 83,
      "start": 4.8683,
      "duration": 0.0063,
      "velocity": 62,
      "chip": "ym2612"
    },
    {
      "channel": 2,
      "note": 47,
      "start": 4.8688,
      "duration": 0.006,
      "velocity": 91,
      "chip": "ym2612"
    },
    {
      "channel": 4,
      "note": 71,
      "start": 4.8778,
      "duration": 0.2151,
      "velocity": 102,
      "chip": "ym2612"
    },
    {
      "channel": 1,
      "note": 87,
      "start": 4.8925,
      "duration": 0.0076,
      "velocity": 62,
      "chip": "ym2612"
    },
    {
      "channel": 2,
      "note": 47,
      "start": 4.893,
      "duration": 0.0074,
      "velocity": 91,
      "chip": "ym2612"
    },
    {
      "channel": 1,
      "note": 83,
      "start": 4.919,
      "duration": 0.0069,
      "velocity": 62,
      "chip": "ym2612"
    },
    {
      "channel": 2,
      "note": 47,
      "start": 4.9195,
      "duration": 0.0067,
      "velocity": 91,
      "chip": "ym2612"
    },
    {
      "channel": 2,
      "note": 47,
      "start": 4.9444,
      "duration": 0.0063,
      "velocity": 91,
      "chip": "ym2612"
    },
    {
      "channel": 1,
      "note": 95,
      "start": 4.9692,
      "duration": 0.0066,
      "velocity": 62,
      "chip": "ym2612"
    },
    {
      "channel": 2,
      "note": 47,
      "start": 4.9697,
      "duration": 0.0063,
      "velocity": 91,
      "chip": "ym2612"
    },
    {
      "channel": 1,
      "note": 90,
      "start": 4.994,
      "duration": 0.0066,
      "velocity": 62,
      "chip": "ym2612"
    },
    {
      "channel": 2,
      "note": 47,
      "start": 4.9945,
      "duration": 0.0063,
      "velocity": 91,
      "chip": "ym2612"
    },
    {
      "channel": 1,
      "note": 83,
      "start": 5.0191,
      "duration": 0.0066,
      "velocity": 62,
      "chip": "ym2612"
    },
    {
      "channel": 2,
      "note": 47,
      "start": 5.0196,
      "duration": 0.0064,
      "velocity": 91,
      "chip": "ym2612"
    },
    {
      "channel": 0,
      "note": 59,
      "start": 5.0475,
      "duration": 0.024,
      "velocity": 112,
      "chip": "ym2612"
    },
    {
      "channel": 1,
      "note": 52,
      "start": 5.0519,
      "duration": 0.0199,
      "velocity": 112,
      "chip": "ym2612"
    },
    {
      "channel": 2,
      "note": 47,
      "start": 5.0562,
      "duration": 0.0118,
      "velocity": 91,
      "chip": "ym2612"
    },
    {
      "channel": 0,
      "note": 59,
      "start": 5.0853,
      "duration": 0.0162,
      "velocity": 112,
      "chip": "ym2612"
    },
    {
      "channel": 1,
      "note": 52,
      "start": 5.0858,
      "duration": 0.016,
      "velocity": 112,
      "chip": "ym2612"
    },
    {
      "channel": 2,
      "note": 47,
      "start": 5.0863,
      "duration": 0.006,
      "velocity": 91,
      "chip": "ym2612"
    },
    {
      "channel": 4,
      "note": 75,
      "start": 5.1005,
      "duration": 0.0096,
      "velocity": 102,
      "chip": "ym2612"
    },
    {
      "channel": 0,
      "note": 59,
      "start": 5.1154,
      "duration": 0.0123,
      "velocity": 112,
      "chip": "ym2612"
    },
    {
      "channel": 1,
      "note": 52,
      "start": 5.1159,
      "duration": 0.0121,
      "velocity": 112,
      "chip": "ym2612"
    },
    {
      "channel": 2,
      "note": 47,
      "start": 5.1164,
      "duration": 0.0073,
      "velocity": 91,
      "chip": "ym2612"
    },
    {
      "channel": 4,
      "note": 59,
      "start": 5.1267,
      "duration": 0.0101,
      "velocity": 102,
      "chip": "ym2612"
    },
    {
      "channel": 0,
      "note": 59,
      "start": 5.1422,
      "duration": 0.0111,
      "velocity": 112,
      "chip": "ym2612"
    },
    {
      "channel": 1,
      "note": 52,
      "start": 5.1427,
      "duration": 0.0108,
      "velocity": 112,
      "chip": "ym2612"
    },
    {
      "channel": 2,
      "note": 47,
      "start": 5.1433,
      "duration": 0.006,
      "velocity": 91,
      "chip": "ym2612"
    },
    {
      "channel": 4,
      "note": 59,
      "start": 5.1523,
      "duration": 0.0098,
      "velocity": 102,
      "chip": "ym2612"
    },
    {
      "channel": 0,
      "note": 66,
      "start": 5.1676,
      "duration": 0.0502,
      "velocity": 112,
      "chip": "ym2612"
    },
    {
      "channel": 1,
      "note": 59,
      "start": 5.1681,
      "duration": 0.0501,
      "velocity": 112,
      "chip": "ym2612"
    },
    {
      "channel": 2,
      "note": 47,
      "start": 5.1686,
      "duration": 0.0071,
      "velocity": 91,
      "chip": "ym2612"
    },
    {
      "channel": 3,
      "note": 95,
      "start": 5.1692,
      "duration": 0.0005,
      "velocity": 112,
      "chip": "ym2612"
    },
    {
      "channel": 3,
      "note": 95,
      "start": 5.1697,
      "duration": 0.103,
      "velocity": 112,
      "chip": "ym2612"
    },
    {
      "channel": 4,
      "note": 59,
      "start": 5.1788,
      "duration": 0.0099,
      "velocity": 102,
      "chip": "ym2612"
    },
    {
      "channel": 2,
      "note": 47,
      "start": 5.195,
      "duration": 0.0063,
      "velocity": 91,
      "chip": "ym2612"
    },
    {
      "channel": 4,
      "note": 59,
      "start": 5.2044,
      "duration": 0.052,
      "velocity": 102,
      "chip": "ym2612"
    },
    {
      "channel": 0,
      "note": 64,
      "start": 5.2202,
      "duration": 0.0123,
      "velocity": 112,
      "chip": "ym2612"
    },
    {
      "channel": 1,
      "note": 57,
      "start": 5.2207,
      "duration": 0.0121,
      "velocity": 112,
      "chip": "ym2612"
    },
    {
      "channel": 2,
      "note": 47,
      "start": 5.2212,
      "duration": 0.0075,
      "velocity": 91,
      "chip": "ym2612"
    },
    {
      "channel": 0,
      "note": 68,
      "start": 5.2481,
      "duration": 0.0503,
      "velocity": 112,
      "chip": "ym2612"
    },
    {
      "channel": 1,
      "note": 61,
      "start": 5.2485,
      "duration": 0.0502,
      "velocity": 112,
      "chip": "ym2612"
    },
    {
      "channel": 2,
      "note": 47,
      "start": 5.249,
      "duration": 0.0065,
      "velocity": 91,
      "chip": "ym2612"
    },
    {
      "channel": 4,
      "note": 66,
      "start": 5.2588,
      "duration": 0.0102,
      "velocity": 102,
      "chip": "ym2612"
    },
    {
      "channel": 2,
      "note": 47,
      "start": 5.2755,
      "duration": 0.0067,
      "velocity": 91,
      "chip": "ym2612"
    },
    {
      "channel": 4,
      "note": 64,
      "start": 5.2853,
      "duration": 0.0515,
      "velocity": 102,
      "chip": "ym2612"
    },
    {
      "channel": 0,
      "note": 59,
      "start": 5.3018,
      "duration": 0.1844,
      "velocity": 112,
      "chip": "ym2612"
    },
    {
      "channel": 1,
      "note": 52,
      "start": 5.3024,
      "duration": 0.1841,
      "velocity": 112,
      "chip": "ym2612"
    },
    {
      "channel": 2,
      "note": 47,
      "start": 5.3029,
      "duration": 0.0063,
      "velocity": 91,
      "chip": "ym2612"
    },
    {
      "channel": 2,
      "note": 47,
      "start": 5.328,
      "duration": 0.008,
      "velocity": 91,
      "chip": "ym2612"
    },
    {
      "channel": 4,
      "note": 68,
      "start": 5.3393,
      "duration": 0.1852,
      "velocity": 102,
      "chip": "ym2612"
    },
    {
      "channel": 2,
      "note": 47,
      "start": 5.3562,
      "duration": 0.0067,
      "velocity": 91,
      "chip": "ym2612"
    },
    {
      "channel": 2,
      "note": 47,
      "start": 5.3833,
      "duration": 0.0075,
      "velocity": 91,
      "chip": "ym2612"
    },
    {
      "channel": 3,
      "note": 89,
      "start": 5.3838,
      "duration": 0.0005,
      "velocity": 112,
      "chip": "ym2612"
    },
    {
      "channel": 3,
      "note": 89,
      "start": 5.3843,
      "duration": 0.1028,
      "velocity": 112,
      "chip": "ym2612"
    },
    {
      "channel": 2,
      "note": 47,
      "start": 5.4103,
      "duration": 0.0067,
      "velocity": 91,
      "chip": "ym2612"
    },
    {
      "channel": 2,
      "note": 47,
      "start": 5.4363,
      "duration": 0.0067,
      "velocity": 91,
      "chip": "ym2612"
    },
    {
      "channel": 2,
      "note": 47,
      "start": 5.4628,
      "duration": 0.0068,
      "velocity": 91,
      "chip": "ym2612"
    },
    {
      "channel": 0,
      "note": 59,
      "start": 5.4893,
      "duration": 0.012,
      "velocity": 112,
      "chip": "ym2612"
    },
    {
      "channel": 1,
      "note": 52,
      "start": 5.4899,
      "duration": 0.0116,
      "velocity": 112,
      "chip": "ym2612"
    },
    {
      "channel": 2,
      "note": 47,
      "start": 5.4905,
      "duration": 0.007,
      "velocity": 91,
      "chip": "ym2612"
    },
    {
      "channel": 0,
      "note": 59,
      "start": 5.5161,
      "duration": 0.0121,
      "velocity": 112,
      "chip": "ym2612"
    },
    {
      "channel": 1,
      "note": 52,
      "start": 5.5166,
      "duration": 0.0118,
      "velocity": 112,
      "chip": "ym2612"
    },
    {
      "channel": 2,
      "note": 47,
      "start": 5.5171,
      "duration": 0.0067,
      "velocity": 91,
      "chip": "ym2612"
    },
    {
      "channel": 4,
      "note": 59,
      "start": 5.5272,
      "duration": 0.0107,
      "velocity": 102,
      "chip": "ym2612"
    },
    {
      "channel": 0,
      "note": 59,
      "start": 5.5432,
      "duration": 0.0117,
      "velocity": 112,
      "chip": "ym2612"
    },
    {
      "channel": 1,
      "note": 52,
      "start": 5.5437,
      "duration": 0.0114,
      "velocity": 112,
      "chip": "ym2612"
    },
    {
      "channel": 2,
      "note": 47,
      "start": 5.5442,
      "duration": 0.0065,
      "velocity": 91,
      "chip": "ym2612"
    },
    {
      "channel": 4,
      "note": 59,
      "start": 5.5539,
      "duration": 0.0105,
      "velocity": 102,
      "chip": "ym2612"
    },
    {
      "channel": 0,
      "note": 59,
      "start": 5.57,
      "duration": 0.0117,
      "velocity": 112,
      "chip": "ym2612"
    },
    {
      "channel": 1,
      "note": 52,
      "start": 5.5705,
      "duration": 0.0115,
      "velocity": 112,
      "chip": "ym2612"
    },
    {
      "channel": 2,
      "note": 47,
      "start": 5.571,
      "duration": 0.0065,
      "velocity": 91,
      "chip": "ym2612"
    },
    {
      "channel": 4,
      "note": 59,
      "start": 5.5807,
      "duration": 0.0104,
      "velocity": 102,
      "chip": "ym2612"
    },
    {
      "channel": 0,
      "note": 66,
      "start": 5.5969,
      "duration": 0.0501,
      "velocity": 112,
      "chip": "ym2612"
    },
    {
      "channel": 1,
      "note": 59,
      "start": 5.5974,
      "duration": 0.0499,
      "velocity": 112,
      "chip": "ym2612"
    },
    {
      "channel": 2,
      "note": 47,
      "start": 5.5979,
      "duration": 0.0071,
      "velocity": 91,
      "chip": "ym2612"
    },
    {
      "channel": 3,
      "note": 89,
      "start": 5.5985,
      "duration": 0.0004,
      "velocity": 112,
      "chip": "ym2612"
    },
    {
      "channel": 3,
      "note": 89,
      "start": 5.599,
      "duration": 0.103,
      "velocity": 112,
      "chip": "ym2612"
    },
    {
      "channel": 4,
      "note": 59,
      "start": 5.6082,
      "duration": 0.01,
      "velocity": 102,
      "chip": "ym2612"
    },
    {
      "channel": 2,
      "note": 47,
      "start": 5.6243,
      "duration": 0.0063,
      "velocity": 91,
      "chip": "ym2612"
    },
    {
      "channel": 4,
      "note": 59,
      "start": 5.6337,
      "duration": 0.052,
      "velocity": 102,
      "chip": "ym2612"
    },
    {
      "channel": 0,
      "note": 64,
      "start": 5.6495,
      "duration": 0.0124,
      "velocity": 112,
      "chip": "ym2612"
    },
    {
      "channel": 1,
      "note": 57,
      "start": 5.65,
      "duration": 0.0121,
      "velocity": 112,
      "chip": "ym2612"
    },
    {
      "channel": 2,
      "note": 47,
      "start": 5.6505,
      "duration": 0.0076,
      "velocity": 91,
      "chip": "ym2612"
    },
    {
      "channel": 0,
      "note": 68,
      "start": 5.6774,
      "duration": 0.0509,
      "velocity": 112,
      "chip": "ym2612"
    },
    {
      "channel": 1,
      "note": 61,
      "start": 5.6779,
      "duration": 0.0508,
      "velocity": 112,
      "chip": "ym2612"
    },
    {
      "channel": 2,
      "note": 47,
      "start": 5.6784,
      "duration": 0.0065,
      "velocity": 91,
      "chip": "ym2612"
    },
    {
      "channel": 4,
      "note": 66,
      "start": 5.6881,
      "duration": 0.0101,
      "velocity": 102,
      "chip": "ym2612"
    },
    {
      "channel": 2,
      "note": 47,
      "start": 5.7048,
      "duration": 0.0068,
      "velocity": 91,
      "chip": "ym2612"
    },
    {
      "channel": 4,
      "note": 64,
      "start": 5.7147,
      "duration": 0.0516,
      "velocity": 102,
      "chip": "ym2612"
    },
    {
      "channel": 0,
      "note": 59,
      "start": 5.7318,
      "duration": 0.1826,
      "velocity": 112,
      "chip": "ym2612"
    },
    {
      "channel": 1,
      "note": 52,
      "start": 5.7324,
      "duration": 0.1822,
      "velocity": 112,
      "chip": "ym2612"
    },
    {
      "channel": 2,
      "note": 47,
      "start": 5.7329,
      "duration": 0.0066,
      "velocity": 91,
      "chip": "ym2612"
    },
    {
      "channel": 2,
      "note": 47,
      "start": 5.7579,
      "duration": 0.0077,
      "velocity": 91,
      "chip": "ym2612"
    },
    {
      "channel": 4,
      "note": 68,
      "start": 5.7688,
      "duration": 0.1896,
      "velocity": 102,
      "chip": "ym2612"
    },
    {
      "channel": 2,
      "note": 47,
      "start": 5.7856,
      "duration": 0.0067,
      "velocity": 91,
      "chip": "ym2612"
    },
    {
      "channel": 2,
      "note": 47,
      "start": 5.8117,
      "duration": 0.0075,
      "velocity": 91,
      "chip": "ym2612"
    },
    {
      "channel": 3,
      "note": 89,
      "start": 5.8123,
      "duration": 0.0005,
      "velocity": 112,
      "chip": "ym2612"
    },
    {
      "channel": 3,
      "note": 89,
      "start": 5.8128,
      "duration": 0.1025,
      "velocity": 112,
      "chip": "ym2612"
    },
    {
      "channel": 2,
      "note": 47,
      "start": 5.8384,
      "duration": 0.0067,
      "velocity": 91,
      "chip": "ym2612"
    },
    {
      "channel": 2,
      "note": 47,
      "start": 5.8644,
      "duration": 0.0067,
      "velocity": 91,
      "chip": "ym2612"
    },
    {
      "channel": 2,
      "note": 47,
      "start": 5.891,
      "duration": 0.0067,
      "velocity": 91,
      "chip": "ym2612"
    },
    {
      "channel": 0,
      "note": 69,
      "start": 5.9207,
      "duration": 0.0793,
      "velocity": 102,
      "chip": "ym2612"
    },
    {
      "channel": 2,
      "note": 47,
      "start": 5.925,
      "duration": 0.007,
      "velocity": 91,
      "chip": "ym2612"
    },
    {
      "channel": 1,
      "note": 83,
      "start": 5.9506,
      "duration": 0.0067,
      "velocity": 62,
      "chip": "ym2612"
    },
    {
      "channel": 2,
      "note": 47,
      "start": 5.9511,
      "duration": 0.0065,
      "velocity": 91,
      "chip": "ym2612"
    },
    {
      "channel": 4,
      "note": 59,
      "start": 5.961,
      "duration": 0.0771,
      "velocity": 102,
      "chip": "ym2612"
    },
    {
      "channel": 1,
      "note": 87,
      "start": 5.9767,
      "duration": 0.0068,
      "velocity": 62,
      "chip": "ym2612"
    },
    {
      "channel": 2,
      "note": 47,
      "start": 5.9771,
      "duration": 0.0066,
      "velocity": 91,
      "chip": "ym2612"
    },
    {
      "channel": 0,
      "note": 68,
      "start": 6.0031,
      "duration": 0.0115,
      "velocity": 102,
      "chip": "ym2612"
    },
    {
      "channel": 1,
      "note": 83,
      "start": 6.0036,
      "duration": 0.0068,
      "velocity": 62,
      "chip": "ym2612"
    },
    {
      "channel": 2,
      "note": 47,
      "start": 6.0041,
      "duration": 0.0065,
      "velocity": 91,
      "chip": "ym2612"
    },
    {
      "channel": 0,
      "note": 66,
      "start": 6.0168,
      "duration": 0.0103,
      "velocity": 102,
      "chip": "ym2612"
    },
    {
      "channel": 0,
      "note": 68,
      "start": 6.03,
      "duration": 0.0336,
      "velocity": 102,
      "chip": "ym2612"
    },
    {
      "channel": 2,
      "note": 47,
      "start": 6.0307,
      "duration": 0.0066,
      "velocity": 91,
      "chip": "ym2612"
    },
    {
      "channel": 4,
      "note": 69,
      "start": 6.0405,
      "duration": 0.0101,
      "velocity": 102,
      "chip": "ym2612"
    },
    {
      "channel": 4,
      "note": 68,
      "start": 6.0529,
      "duration": 0.012,
      "velocity": 102,
      "chip": "ym2612"
    },
    {
      "channel": 1,
      "note": 83,
      "start": 6.0571,
      "duration": 0.0068,
      "velocity": 62,
      "chip": "ym2612"
    },
    {
      "channel": 2,
      "note": 47,
      "start": 6.0576,
      "duration": 0.0065,
      "velocity": 91,
      "chip": "ym2612"
    },
    {
      "channel": 4,
      "note": 66,
      "start": 6.0675,
      "duration": 0.0317,
      "velocity": 102,
      "chip": "ym2612"
    },
    {
      "channel": 0,
      "note": 64,
      "start": 6.0827,
      "duration": 0.0334,
      "velocity": 102,
      "chip": "ym2612"
    },
    {
      "channel": 1,
      "note": 87,
      "start": 6.0833,
      "duration": 0.0067,
      "velocity": 62,
      "chip": "ym2612"
    },
    {
      "channel": 2,
      "note": 47,
      "start": 6.0838,
      "duration": 0.0065,
      "velocity": 91,
      "chip": "ym2612"
    },
    {
      "channel": 1,
      "note": 83,
      "start": 6.1096,
      "duration": 0.0068,
      "velocity": 62,
      "chip": "ym2612"
    },
    {
      "channel": 2,
      "note": 47,
      "start": 6.1101,
      "duration": 0.0066,
      "velocity": 91,
      "chip": "ym2612"
    },
    {
      "channel": 4,
      "note": 68,
      "start": 6.1201,
      "duration": 0.0378,
      "velocity": 102,
      "chip": "ym2612"
    },
    {
      "channel": 0,
      "note": 66,
      "start": 6.1368,
      "duration": 0.2113,
      "velocity": 102,
      "chip": "ym2612"
    },
    {
      "channel": 2,
      "note": 47,
      "start": 6.1378,
      "duration": 0.0113,
      "velocity": 91,
      "chip": "ym2612"
    },
    {
      "channel": 1,
      "note": 83,
      "start": 6.1673,
      "duration": 0.0066,
      "velocity": 62,
      "chip": "ym2612"
    },
    {
      "channel": 2,
      "note": 47,
      "start": 6.1678,
      "duration": 0.0063,
      "velocity": 91,
      "chip": "ym2612"
    },
    {
      "channel": 4,
      "note": 64,
      "start": 6.1773,
      "duration": 0.2072,
      "velocity": 102,
      "chip": "ym2612"
    },
    {
      "channel": 1,
      "note": 87,
      "start": 6.193,
      "duration": 0.0068,
      "velocity": 62,
      "chip": "ym2612"
    },
    {
      "channel": 2,
      "note": 47,
      "start": 6.1935,
      "duration": 0.0065,
      "velocity": 91,
      "chip": "ym2612"
    },
    {
      "channel": 1,
      "note": 83,
      "start": 6.2197,
      "duration": 0.007,
      "velocity": 62,
      "chip": "ym2612"
    },
    {
      "channel": 2,
      "note": 47,
      "start": 6.2202,
      "duration": 0.0067,
      "velocity": 91,
      "chip": "ym2612"
    },
    {
      "channel": 2,
      "note": 47,
      "start": 6.2468,
      "duration": 0.0068,
      "velocity": 91,
      "chip": "ym2612"
    },
    {
      "channel": 3,
      "note": 90,
      "start": 6.2475,
      "duration": 0.0044,
      "velocity": 78,
      "chip": "ym2612"
    },
    {
      "channel": 3,
      "note": 90,
      "start": 6.2602,
      "duration": 0.004,
      "velocity": 78,
      "chip": "ym2612"
    },
    {
      "channel": 1,
      "note": 83,
      "start": 6.2721,
      "duration": 0.007,
      "velocity": 62,
      "chip": "ym2612"
    },
    {
      "channel": 2,
      "note": 47,
      "start": 6.2726,
      "duration": 0.0068,
      "velocity": 91,
      "chip": "ym2612"
    },
    {
      "channel": 3,
      "note": 90,
      "start": 6.2733,
      "duration": 0.0043,
      "velocity": 78,
      "chip": "ym2612"
    },
    {
      "channel": 3,
      "note": 87,
      "start": 6.2861,
      "duration": 0.0039,
      "velocity": 78,
      "chip": "ym2612"
    },
    {
      "channel": 1,
      "note": 90,
      "start": 6.2978,
      "duration": 0.0069,
      "velocity": 62,
      "chip": "ym2612"
    },
    {
      "channel": 2,
      "note": 47,
      "start": 6.2983,
      "duration": 0.0067,
      "velocity": 91,
      "chip": "ym2612"
    },
    {
      "channel": 3,
      "note": 87,
      "start": 6.299,
      "duration": 0.0042,
      "velocity": 78,
      "chip": "ym2612"
    },
    {
      "channel": 3,
      "note": 90,
      "start": 6.3117,
      "duration": 0.0039,
      "velocity": 78,
      "chip": "ym2612"
    },
    {
      "channel": 1,
      "note": 83,
      "start": 6.3246,
      "duration": 0.0072,
      "velocity": 62,
      "chip": "ym2612"
    },
    {
      "channel": 2,
      "note": 47,
      "start": 6.3251,
      "duration": 0.007,
      "velocity": 91,
      "chip": "ym2612"
    },
    {
      "channel": 3,
      "note": 90,
      "start": 6.3259,
      "duration": 0.0044,
      "velocity": 78,
      "chip": "ym2612"
    },
    {
      "channel": 3,
      "note": 85,
      "start": 6.339,
      "duration": 0.004,
      "velocity": 78,
      "chip": "ym2612"
    },
    {
      "channel": 0,
      "note": 69,
      "start": 6.3518,
      "duration": 0.0717,
      "velocity": 102,
      "chip": "ym2612"
    },
    {
      "channel": 2,
      "note": 47,
      "start": 6.3527,
      "duration": 0.0062,
      "velocity": 91,
      "chip": "ym2612"
    },
    {
      "channel": 1,
      "note": 83,
      "start": 6.3774,
      "duration": 0.0063,
      "velocity": 62,
      "chip": "ym2612"
    },
    {
      "channel": 2,
      "note": 47,
      "start": 6.3779,
      "duration": 0.0061,
      "velocity": 91,
      "chip": "ym2612"
    },
    {
      "channel": 4,
      "note": 66,
      "start": 6.387,
      "duration": 0.0726,
      "velocity": 102,
      "chip": "ym2612"
    },
    {
      "channel": 1,
      "note": 87,
      "start": 6.4017,
      "duration": 0.0064,
      "velocity": 62,
      "chip": "ym2612"
    },
    {
      "channel": 2,
      "note": 47,
      "start": 6.4022,
      "duration": 0.0062,
      "velocity": 91,
      "chip": "ym2612"
    },
    {
      "channel": 0,
      "note": 68,
      "start": 6.4264,
      "duration": 0.0109,
      "velocity": 102,
      "chip": "ym2612"
    },
    {
      "channel": 1,
      "note": 83,
      "start": 6.4269,
      "duration": 0.0065,
      "velocity": 62,
      "chip": "ym2612"
    },
    {
      "channel": 2,
      "note": 47,
      "start": 6.4275,
      "duration": 0.0062,
      "velocity": 91,
      "chip": "ym2612"
    },
    {
      "channel": 0,
      "note": 66,
      "start": 6.4395,
      "duration": 0.0097,
      "velocity": 102,
      "chip": "ym2612"
    },
    {
      "channel": 0,
      "note": 68,
      "start": 6.4519,
      "duration": 0.0319,
      "velocity": 102,
      "chip": "ym2612"
    },
    {
      "channel": 2,
      "note": 47,
      "start": 6.4526,
      "duration": 0.0063,
      "velocity": 91,
      "chip": "ym2612"
    },
    {
      "channel": 4,
      "note": 69,
      "start": 6.4619,
      "duration": 0.0095,
      "velocity": 102,
      "chip": "ym2612"
    },
    {
      "channel": 4,
      "note": 68,
      "start": 6.4736,
      "duration": 0.0114,
      "velocity": 102,
      "chip": "ym2612"
    },
    {
      "channel": 1,
      "note": 83,
      "start": 6.4777,
      "duration": 0.0063,
      "velocity": 62,
      "chip": "ym2612"
    },
    {
      "channel": 2,
      "note": 47,
      "start": 6.4782,
      "duration": 0.0061,
      "velocity": 91,
      "chip": "ym2612"
    },
    {
      "channel": 4,
      "note": 66,
      "start": 6.4875,
      "duration": 0.0303,
      "velocity": 102,
      "chip": "ym2612"
    },
    {
      "channel": 0,
      "note": 71,
      "start": 6.5019,
      "duration": 0.032,
      "velocity": 102,
      "chip": "ym2612"
    },
    {
      "channel": 1,
      "note": 87,
      "start": 6.5024,
      "duration": 0.0063,
      "velocity": 62,
      "chip": "ym2612"
    },
    {
      "channel": 2,
      "note": 47,
      "start": 6.5029,
      "duration": 0.0061,
      "velocity": 91,
      "chip": "ym2612"
    },
    {
      "channel": 1,
      "note": 83,
      "start": 6.5278,
      "duration": 0.0064,
      "velocity": 62,
      "chip": "ym2612"
    },
    {
      "channel": 2,
      "note": 47,
      "start": 6.5283,
      "duration": 0.0061,
      "velocity": 91,
      "chip": "ym2612"
    },
    {
      "channel": 4,
      "note": 68,
      "start": 6.5376,
      "duration": 0.0306,
      "velocity": 102,
      "chip": "ym2612"
    },
    {
      "channel": 0,
      "note": 59,
      "start": 6.553,
      "duration": 0.201,
      "velocity": 102,
      "chip": "ym2612"
    },
    {
      "channel": 2,
      "note": 47,
      "start": 6.554,
      "duration": 0.0062,
      "velocity": 91,
      "chip": "ym2612"
    },
    {
      "channel": 1,
      "note": 83,
      "start": 6.5774,
      "duration": 0.0063,
      "velocity": 62,
      "chip": "ym2612"
    },
    {
      "channel": 2,
      "note": 47,
      "start": 6.5779,
      "duration": 0.006,
      "velocity": 91,
      "chip": "ym2612"
    },
    {
      "channel": 4,
      "note": 71,
      "start": 6.5869,
      "duration": 0.2103,
      "velocity": 102,
      "chip": "ym2612"
    },
    {
      "channel": 1,
      "note": 87,
      "start": 6.6017,
      "duration": 0.0075,
      "velocity": 62,
      "chip": "ym2612"
    },
    {
      "channel": 2,
      "note": 47,
      "start": 6.6021,
      "duration": 0.0073,
      "velocity": 91,
      "chip": "ym2612"
    },
    {
      "channel": 1,
      "note": 83,
      "start": 6.6278,
      "duration": 0.0067,
      "velocity": 62,
      "chip": "ym2612"
    },
    {
      "channel": 2,
      "note": 47,
      "start": 6.6283,
      "duration": 0.0064,
      "velocity": 91,
      "chip": "ym2612"
    },
    {
      "channel": 2,
      "note": 47,
      "start": 6.6535,
      "duration": 0.0068,
      "velocity": 91,
      "chip": "ym2612"
    },
    {
      "channel": 3,
      "note": 85,
      "start": 6.6542,
      "duration": 0.0043,
      "velocity": 78,
      "chip": "ym2612"
    },
    {
      "channel": 3,
      "note": 85,
      "start": 6.6669,
      "duration": 0.004,
      "velocity": 78,
      "chip": "ym2612"
    },
    {
      "channel": 1,
      "note": 95,
      "start": 6.6789,
      "duration": 0.0071,
      "velocity": 62,
      "chip": "ym2612"
    },
    {
      "channel": 2,
      "note": 47,
      "start": 6.6794,
      "duration": 0.0068,
      "velocity": 91,
      "chip": "ym2612"
    },
    {
      "channel": 3,
      "note": 85,
      "start": 6.6801,
      "duration": 0.0044,
      "velocity": 78,
      "chip": "ym2612"
    },
    {
      "channel": 3,
      "note": 87,
      "start": 6.6929,
      "duration": 0.004,
      "velocity": 78,
      "chip": "ym2612"
    },
    {
      "channel": 1,
      "note": 90,
      "start": 6.705,
      "duration": 0.0072,
      "velocity": 62,
      "chip": "ym2612"
    },
    {
      "channel": 2,
      "note": 47,
      "start": 6.7055,
      "duration": 0.007,
      "velocity": 91,
      "chip": "ym2612"
    },
    {
      "channel": 3,
      "note": 87,
      "start": 6.7062,
      "duration": 0.0044,
      "velocity": 78,
      "chip": "ym2612"
    },
    {
      "channel": 3,
      "note": 88,
      "start": 6.7193,
      "duration": 0.004,
      "velocity": 78,
      "chip": "ym2612"
    },
    {
      "channel": 1,
      "note": 83,
      "start": 6.7309,
      "duration": 0.0071,
      "velocity": 62,
      "chip": "ym2612"
    },
    {
      "channel": 2,
      "note": 47,
      "start": 6.7314,
      "duration": 0.0068,
      "velocity": 91,
      "chip": "ym2612"
    },
    {
      "channel": 3,
      "note": 88,
      "start": 6.7321,
      "duration": 0.0044,
      "velocity": 78,
      "chip": "ym2612"
    },
    {
      "channel": 3,
      "note": 90,
      "start": 6.7449,
      "duration": 0.0039,
      "velocity": 78,
      "chip": "ym2612"
    },
    {
      "channel": 0,
      "note": 69,
      "start": 6.7572,
      "duration": 0.079,
      "velocity": 102,
      "chip": "ym2612"
    },
    {
      "channel": 2,
      "note": 47,
      "start": 6.7614,
      "duration": 0.0112,
      "velocity": 91,
      "chip": "ym2612"
    },
    {
      "channel": 3,
      "note": 90,
      "start": 6.7668,
      "duration": 0.2476,
      "velocity": 87,
      "chip": "ym2612"
    },
    {
      "channel": 1,
      "note": 83,
      "start": 6.7901,
      "duration": 0.0063,
      "velocity": 62,
      "chip": "ym2612"
    },
    {
      "channel": 2,
      "note": 47,
      "start": 6.7906,
      "duration": 0.006,
      "velocity": 91,
      "chip": "ym2612"
    },
    {
      "channel": 4,
      "note": 59,
      "start": 6.7996,
      "duration": 0.0726,
      "velocity": 102,
      "chip": "ym2612"
    },
    {
      "channel": 1,
      "note": 87,
      "start": 6.8144,
      "duration": 0.0064,
      "velocity": 62,
      "chip": "ym2612"
    },
    {
      "channel": 2,
      "note": 47,
      "start": 6.8149,
      "duration": 0.0061,
      "velocity": 91,
      "chip": "ym2612"
    },
    {
      "channel": 0,
      "note": 68,
      "start": 6.8393,
      "duration": 0.0109,
      "velocity": 102,
      "chip": "ym2612"
    },
    {
      "channel": 1,
      "note": 83,
      "start": 6.8398,
      "duration": 0.0064,
      "velocity": 62,
      "chip": "ym2612"
    },
    {
      "channel": 2,
      "note": 47,
      "start": 6.8403,
      "duration": 0.0062,
      "velocity": 91,
      "chip": "ym2612"
    },
    {
      "channel": 0,
      "note": 66,
      "start": 6.8523,
      "duration": 0.0097,
      "velocity": 102,
      "chip": "ym2612"
    },
    {
      "channel": 0,
      "note": 68,
      "start": 6.8647,
      "duration": 0.032,
      "velocity": 102,
      "chip": "ym2612"
    },
    {
      "channel": 2,
      "note": 47,
      "start": 6.8654,
      "duration": 0.0062,
      "velocity": 91,
      "chip": "ym2612"
    },
    {
      "channel": 4,
      "note": 69,
      "start": 6.8746,
      "duration": 0.0095,
      "velocity": 102,
      "chip": "ym2612"
    },
    {
      "channel": 4,
      "note": 68,
      "start": 6.8863,
      "duration": 0.0115,
      "velocity": 102,
      "chip": "ym2612"
    },
    {
      "channel": 1,
      "note": 83,
      "start": 6.8904,
      "duration": 0.0065,
      "velocity": 62,
      "chip": "ym2612"
    },
    {
      "channel": 2,
      "note": 47,
      "start": 6.8909,
      "duration": 0.0063,
      "velocity": 91,
      "chip": "ym2612"
    },
    {
      "channel": 4,
      "note": 66,
      "start": 6.9005,
      "duration": 0.0303,
      "velocity": 102,
      "chip": "ym2612"
    },
    {
      "channel": 0,
      "note": 64,
      "start": 6.9153,
      "duration": 0.0313,
      "velocity": 102,
      "chip": "ym2612"
    },
    {
      "channel": 1,
      "note": 87,
      "start": 6.9158,
      "duration": 0.0063,
      "velocity": 62,
      "chip": "ym2612"
    },
    {
      "channel": 2,
      "note": 47,
      "start": 6.9163,
      "duration": 0.0061,
      "velocity": 91,
      "chip": "ym2612"
    },
    {
      "channel": 1,
      "note": 83,
      "start": 6.9406,
      "duration": 0.0063,
      "velocity": 62,
      "chip": "ym2612"
    },
    {
      "channel": 2,
      "note": 47,
      "start": 6.9411,
      "duration": 0.0061,
      "velocity": 91,
      "chip": "ym2612"
    },
    {
      "channel": 4,
      "note": 68,
      "start": 6.9503,
      "duration": 0.0309,
      "velocity": 102,
      "chip": "ym2612"
    },
    {
      "channel": 0,
      "note": 66,
      "start": 6.9658,
      "duration": 0.1986,
      "velocity": 102,
      "chip": "ym2612"
    },
    {
      "channel": 2,
      "note": 47,
      "start": 6.9668,
      "duration": 0.0061,
      "velocity": 91,
      "chip": "ym2612"
    },
    {
      "channel": 1,
      "note": 83,
      "start": 6.9914,
      "duration": 0.0064,
      "velocity": 62,
      "chip": "ym2612"
    },
    {
      "channel": 2,
      "note": 47,
      "start": 6.9919,
      "duration": 0.0061,
      "velocity": 91,
      "chip": "ym2612"
    },
    {
      "channel": 4,
      "note": 64,
      "start": 7.0011,
      "duration": 0.1992,
      "velocity": 102,
      "chip": "ym2612"
    },
    {
      "channel": 1,
      "note": 87,
      "start": 7.0161,
      "duration": 0.0067,
      "velocity": 62,
      "chip": "ym2612"
    },
    {
      "channel": 2,
      "note": 47,
      "start": 7.0166,
      "duration": 0.0064,
      "velocity": 91,
      "chip": "ym2612"
    },
    {
      "channel": 3,
      "note": 95,
      "start": 7.0171,
      "duration": 0.0466,
      "velocity": 87,
      "chip": "ym2612"
    },
    {
      "channel": 1,
      "note": 83,
      "start": 7.0412,
      "duration": 0.0064,
      "velocity": 62,
      "chip": "ym2612"
    },
    {
      "channel": 2,
      "note": 47,
      "start": 7.0416,
      "duration": 0.0063,
      "velocity": 91,
      "chip": "ym2612"
    },
    {
      "channel": 2,
      "note": 47,
      "start": 7.0668,
      "duration": 0.0066,
      "velocity": 91,
      "chip": "ym2612"
    },
    {
      "channel": 3,
      "note": 93,
      "start": 7.0673,
      "duration": 0.0481,
      "velocity": 87,
      "chip": "ym2612"
    },
    {
      "channel": 1,
      "note": 83,
      "start": 7.0924,
      "duration": 0.0067,
      "velocity": 62,
      "chip": "ym2612"
    },
    {
      "channel": 2,
      "note": 47,
      "start": 7.0929,
      "duration": 0.0064,
      "velocity": 91,
      "chip": "ym2612"
    },
    {
      "channel": 1,
      "note": 90,
      "start": 7.1172,
      "duration": 0.0067,
      "velocity": 62,
      "chip": "ym2612"
    },
    {
      "channel": 2,
      "note": 47,
      "start": 7.1177,
      "duration": 0.0065,
      "velocity": 91,
      "chip": "ym2612"
    },
    {
      "channel": 3,
      "note": 92,
      "start": 7.1183,
      "duration": 0.047,
      "velocity": 87,
      "chip": "ym2612"
    },
    {
      "channel": 1,
      "note": 83,
      "start": 7.1423,
      "duration": 0.0065,
      "velocity": 62,
      "chip": "ym2612"
    },
    {
      "channel": 2,
      "note": 47,
      "start": 7.1428,
      "duration": 0.0062,
      "velocity": 91,
      "chip": "ym2612"
    },
    {
      "channel": 0,
      "note": 69,
      "start": 7.1676,
      "duration": 0.0717,
      "velocity": 102,
      "chip": "ym2612"
    },
    {
      "channel": 2,
      "note": 47,
      "start": 7.1685,
      "duration": 0.0065,
      "velocity": 91,
      "chip": "ym2612"
    },
    {
      "channel": 3,
      "note": 88,
      "start": 7.1692,
      "duration": 0.1973,
      "velocity": 87,
      "chip": "ym2612"
    },
    {
      "channel": 1,
      "note": 83,
      "start": 7.1932,
      "duration": 0.0063,
      "velocity": 62,
      "chip": "ym2612"
    },
    {
      "channel": 2,
      "note": 47,
      "start": 7.1937,
      "duration": 0.006,
      "velocity": 91,
      "chip": "ym2612"
    },
    {
      "channel": 4,
      "note": 66,
      "start": 7.2027,
      "duration": 0.0729,
      "velocity": 102,
      "chip": "ym2612"
    },
    {
      "channel": 1,
      "note": 87,
      "start": 7.2175,
      "duration": 0.0064,
      "velocity": 62,
      "chip": "ym2612"
    },
    {
      "channel": 2,
      "note": 47,
      "start": 7.2179,
      "duration": 0.0062,
      "velocity": 91,
      "chip": "ym2612"
    },
    {
      "channel": 0,
      "note": 68,
      "start": 7.2422,
      "duration": 0.0109,
      "velocity": 102,
      "chip": "ym2612"
    },
    {
      "channel": 1,
      "note": 83,
      "start": 7.2427,
      "duration": 0.0064,
      "velocity": 62,
      "chip": "ym2612"
    },
    {
      "channel": 2,
      "note": 47,
      "start": 7.2432,
      "duration": 0.0062,
      "velocity": 91,
      "chip": "ym2612"
    },
    {
      "channel": 0,
      "note": 66,
      "start": 7.2553,
      "duration": 0.0097,
      "velocity": 102,
      "chip": "ym2612"
    },
    {
      "channel": 0,
      "note": 68,
      "start": 7.2677,
      "duration": 0.0325,
      "velocity": 102,
      "chip": "ym2612"
    },
    {
      "channel": 2,
      "note": 47,
      "start": 7.2685,
      "duration": 0.0064,
      "velocity": 91,
      "chip": "ym2612"
    },
    {
      "channel": 4,
      "note": 69,
      "start": 7.2779,
      "duration": 0.0098,
      "velocity": 102,
      "chip": "ym2612"
    },
    {
      "channel": 4,
      "note": 68,
      "start": 7.2899,
      "duration": 0.0113,
      "velocity": 102,
      "chip": "ym2612"
    },
    {
      "channel": 1,
      "note": 83,
      "start": 7.294,
      "duration": 0.0064,
      "velocity": 62,
      "chip": "ym2612"
    },
    {
      "channel": 2,
      "note": 47,
      "start": 7.2946,
      "duration": 0.0061,
      "velocity": 91,
      "chip": "ym2612"
    },
    {
      "channel": 4,
      "note": 66,
      "start": 7.3039,
      "duration": 0.0299,
      "velocity": 102,
      "chip": "ym2612"
    },
    {
      "channel": 0,
      "note": 71,
      "start": 7.3183,
      "duration": 0.0314,
      "velocity": 102,
      "chip": "ym2612"
    },
    {
      "channel": 1,
      "note": 87,
      "start": 7.3188,
      "duration": 0.0064,
      "velocity": 62,
      "chip": "ym2612"
    },
    {
      "channel": 2,
      "note": 47,
      "start": 7.3193,
      "duration": 0.0061,
      "velocity": 91,
      "chip": "ym2612"
    },
    {
      "channel": 1,
      "note": 83,
      "start": 7.3435,
      "duration": 0.0064,
      "velocity": 62,
      "chip": "ym2612"
    },
    {
      "channel": 2,
      "note": 47,
      "start": 7.344,
      "duration": 0.0061,
      "velocity": 91,
      "chip": "ym2612"
    },
    {
      "channel": 4,
      "note": 68,
      "start": 7.3533,
      "duration": 0.0309,
      "velocity": 102,
      "chip": "ym2612"
    },
    {
      "channel": 0,
      "note": 75,
      "start": 7.3689,
      "duration": 0.1985,
      "velocity": 102,
      "chip": "ym2612"
    },
    {
      "channel": 2,
      "note": 47,
      "start": 7.3698,
      "duration": 0.0064,
      "velocity": 91,
      "chip": "ym2612"
    },
    {
      "channel": 3,
      "note": 90,
      "start": 7.3704,
      "duration": 0.1979,
      "velocity": 87,
      "chip": "ym2612"
    },
    {
      "channel": 1,
      "note": 83,
      "start": 7.3945,
      "duration": 0.0063,
      "velocity": 62,
      "chip": "ym2612"
    },
    {
      "channel": 2,
      "note": 47,
      "start": 7.395,
      "duration": 0.006,
      "velocity": 91,
      "chip": "ym2612"
    },
    {
      "channel": 4,
      "note": 71,
      "start": 7.404,
      "duration": 50.846,
      "velocity": 102,
      "chip": "ym2612"
    },
    {
      "channel": 1,
      "note": 87,
      "start": 7.4188,
      "duration": 0.0076,
      "velocity": 62,
      "chip": "ym2612"
    },
    {
      "channel": 2,
      "note": 47,
      "start": 7.4193,
      "duration": 0.0074,
      "velocity": 91,
      "chip": "ym2612"
    },
    {
      "channel": 1,
      "note": 83,
      "start": 7.4449,
      "duration": 0.0067,
      "velocity": 62,
      "chip": "ym2612"
    },
    {
      "channel": 2,
      "note": 47,
      "start": 7.4454,
      "duration": 0.0065,
      "velocity": 91,
      "chip": "ym2612"
    },
    {
      "channel": 2,
      "note": 47,
      "start": 7.4706,
      "duration": 0.0065,
      "velocity": 91,
      "chip": "ym2612"
    },
    {
      "channel": 1,
      "note": 95,
      "start": 7.4954,
      "duration": 0.0066,
      "velocity": 62,
      "chip": "ym2612"
    },
    {
      "channel": 2,
      "note": 47,
      "start": 7.4959,
      "duration": 0.0063,
      "velocity": 91,
      "chip": "ym2612"
    },
    {
      "channel": 1,
      "note": 90,
      "start": 7.5202,
      "duration": 0.0066,
      "velocity": 62,
      "chip": "ym2612"
    },
    {
      "channel": 2,
      "note": 47,
      "start": 7.5207,
      "duration": 0.0063,
      "velocity": 91,
      "chip": "ym2612"
    },
    {
      "channel": 1,
      "note": 83,
      "start": 7.5452,
      "duration": 0.0066,
      "velocity": 62,
      "chip": "ym2612"
    },
    {
      "channel": 2,
      "note": 47,
      "start": 7.5457,
      "duration": 0.0064,
      "velocity": 91,
      "chip": "ym2612"
    },
    {
      "channel": 0,
      "note": 59,
      "start": 7.5741,
      "duration": 50.6759,
      "velocity": 112,
      "chip": "ym2612"
    }
  ]
}