{
  "track_name": "19 - Ghost",
  "duration_sec": 22.773,
  "sample_rate": 44100,
  "note_count": 268,
  "unique_pitches": 43,
  "pitch_range": 56,
  "avg_note_duration": 0.4035,
  "reconstruction_stats": {
    "notes_reconstructed": 268,
    "keyon_events": 268,
    "keyoff_events": 263,
    "orphan_keyons": 5,
    "unique_pitches": 43,
    "pitch_range": 56,
    "avg_duration_sec": 0.4035
  },
  "metadata": {
    "source": "P\\Pac-Man 2 - The New Adventures\\19 - Ghost.vgz"
  },
  "notes": [
    {
      "channel": 0,
      "note": 41,
      "start": 0.0,
      "duration": 0.3898,
      "velocity": 74,
      "chip": "ym2612"
    },
    {
      "channel": 4,
      "note": 41,
      "start": 0.0975,
      "duration": 0.396,
      "velocity": 74,
      "chip": "ym2612"
    },
    {
      "channel": 0,
      "note": 42,
      "start": 0.3898,
      "duration": 0.2,
      "velocity": 74,
      "chip": "ym2612"
    },
    {
      "channel": 4,
      "note": 42,
      "start": 0.4935,
      "duration": 0.2,
      "velocity": 74,
      "chip": "ym2612"
    },
    {
      "channel": 0,
      "note": 43,
      "start": 0.5898,
      "duration": 0.1501,
      "velocity": 74,
      "chip": "ym2612"
    },
    {
      "channel": 4,
      "note": 42,
      "start": 0.6935,
      "duration": 0.15,
      "velocity": 74,
      "chip": "ym2612"
    },
    {
      "channel": 0,
      "note": 43,
      "start": 0.7399,
      "duration": 0.2,
      "velocity": 74,
      "chip": "ym2612"
    },
    {
      "channel": 4,
      "note": 46,
      "start": 0.8435,
      "duration": 0.2,
      "velocity": 74,
      "chip": "ym2612"
    },
    {
      "channel": 0,
      "note": 51,
      "start": 0.9399,
      "duration": 0.2499,
      "velocity": 74,
      "chip": "ym2612"
    },
    {
      "channel": 4,
      "note": 51,
      "start": 1.0435,
      "duration": 0.25,
      "velocity": 74,
      "chip": "ym2612"
    },
    {
      "channel": 0,
      "note": 52,
      "start": 1.1898,
      "duration": 0.9001,
      "velocity": 74,
      "chip": "ym2612"
    },
    {
      "channel": 4,
      "note": 52,
      "start": 1.2936,
      "duration": 0.9001,
      "velocity": 74,
      "chip": "ym2612"
    },
    {
      "channel": 1,
      "note": 42,
      "start": 1.795,
      "duration": 0.6008,
      "velocity": 92,
      "chip": "ym2612"
    },
    {
      "channel": 2,
      "note": 48,
      "start": 1.7999,
      "duration": 0.5962,
      "velocity": 100,
      "chip": "ym2612"
    },
    {
      "channel": 3,
      "note": 54,
      "start": 1.8066,
      "duration": 0.5946,
      "velocity": 92,
      "chip": "ym2612"
    },
    {
      "channel": 0,
      "note": 51,
      "start": 2.0899,
      "duration": 0.3001,
      "velocity": 74,
      "chip": "ym2612"
    },
    {
      "channel": 4,
      "note": 52,
      "start": 2.1936,
      "duration": 0.2993,
      "velocity": 74,
      "chip": "ym2612"
    },
    {
      "channel": 0,
      "note": 78,
      "start": 2.3946,
      "duration": 0.4452,
      "velocity": 74,
      "chip": "ym2612"
    },
    {
      "channel": 1,
      "note": 35,
      "start": 2.3957,
      "duration": 0.5947,
      "velocity": 92,
      "chip": "ym2612"
    },
    {
      "channel": 2,
      "note": 47,
      "start": 2.4007,
      "duration": 0.5954,
      "velocity": 95,
      "chip": "ym2612"
    },
    {
      "channel": 3,
      "note": 51,
      "start": 2.4074,
      "duration": 0.5898,
      "velocity": 74,
      "chip": "ym2612"
    },
    {
      "channel": 4,
      "note": 78,
      "start": 2.4975,
      "duration": 0.4461,
      "velocity": 74,
      "chip": "ym2612"
    },
    {
      "channel": 0,
      "note": 83,
      "start": 2.8399,
      "duration": 0.1502,
      "velocity": 74,
      "chip": "ym2612"
    },
    {
      "channel": 4,
      "note": 83,
      "start": 2.9436,
      "duration": 0.1499,
      "velocity": 74,
      "chip": "ym2612"
    },
    {
      "channel": 0,
      "note": 81,
      "start": 2.9901,
      "duration": 0.4498,
      "velocity": 74,
      "chip": "ym2612"
    },
    {
      "channel": 1,
      "note": 47,
      "start": 2.9951,
      "duration": 0.5954,
      "velocity": 100,
      "chip": "ym2612"
    },
    {
      "channel": 2,
      "note": 45,
      "start": 2.9961,
      "duration": 0.3958,
      "velocity": 95,
      "chip": "ym2612"
    },
    {
      "channel": 3,
      "note": 49,
      "start": 2.9972,
      "duration": 0.3958,
      "velocity": 74,
      "chip": "ym2612"
    },
    {
      "channel": 4,
      "note": 81,
      "start": 3.0936,
      "duration": 0.4499,
      "velocity": 74,
      "chip": "ym2612"
    },
    {
      "channel": 2,
      "note": 44,
      "start": 3.3919,
      "duration": 0.2042,
      "velocity": 95,
      "chip": "ym2612"
    },
    {
      "channel": 3,
      "note": 51,
      "start": 3.393,
      "duration": 0.2042,
      "velocity": 74,
      "chip": "ym2612"
    },
    {
      "channel": 0,
      "note": 80,
      "start": 3.4399,
      "duration": 0.1502,
      "velocity": 74,
      "chip": "ym2612"
    },
    {
      "channel": 4,
      "note": 80,
      "start": 3.5435,
      "duration": 0.15,
      "velocity": 74,
      "chip": "ym2612"
    },
    {
      "channel": 0,
      "note": 79,
      "start": 3.5901,
      "duration": 0.8998,
      "velocity": 74,
      "chip": "ym2612"
    },
    {
      "channel": 1,
      "note": 36,
      "start": 3.5951,
      "duration": 0.5952,
      "velocity": 92,
      "chip": "ym2612"
    },
    {
      "channel": 2,
      "note": 46,
      "start": 3.5962,
      "duration": 1.2,
      "velocity": 95,
      "chip": "ym2612"
    },
    {
      "channel": 3,
      "note": 52,
      "start": 3.5972,
      "duration": 1.2,
      "velocity": 74,
      "chip": "ym2612"
    },
    {
      "channel": 4,
      "note": 79,
      "start": 3.6936,
      "duration": 0.9002,
      "velocity": 74,
      "chip": "ym2612"
    },
    {
      "channel": 1,
      "note": 36,
      "start": 4.1948,
      "duration": 0.5957,
      "velocity": 103,
      "chip": "ym2612"
    },
    {
      "channel": 0,
      "note": 78,
      "start": 4.4899,
      "duration": 0.3002,
      "velocity": 74,
      "chip": "ym2612"
    },
    {
      "channel": 4,
      "note": 78,
      "start": 4.5938,
      "duration": 0.2996,
      "velocity": 74,
      "chip": "ym2612"
    },
    {
      "channel": 0,
      "note": 78,
      "start": 4.7901,
      "duration": 0.4498,
      "velocity": 74,
      "chip": "ym2612"
    },
    {
      "channel": 1,
      "note": 35,
      "start": 4.7952,
      "duration": 0.5954,
      "velocity": 92,
      "chip": "ym2612"
    },
    {
      "channel": 2,
      "note": 47,
      "start": 4.7962,
      "duration": 0.4456,
      "velocity": 95,
      "chip": "ym2612"
    },
    {
      "channel": 3,
      "note": 51,
      "start": 4.7972,
      "duration": 0.6,
      "velocity": 74,
      "chip": "ym2612"
    },
    {
      "channel": 4,
      "note": 78,
      "start": 4.8934,
      "duration": 0.4502,
      "velocity": 74,
      "chip": "ym2612"
    },
    {
      "channel": 0,
      "note": 81,
      "start": 5.2399,
      "duration": 0.1502,
      "velocity": 74,
      "chip": "ym2612"
    },
    {
      "channel": 2,
      "note": 47,
      "start": 5.2417,
      "duration": 0.1544,
      "velocity": 95,
      "chip": "ym2612"
    },
    {
      "channel": 4,
      "note": 81,
      "start": 5.3436,
      "duration": 0.1498,
      "velocity": 74,
      "chip": "ym2612"
    },
    {
      "channel": 0,
      "note": 79,
      "start": 5.3901,
      "duration": 0.4498,
      "velocity": 74,
      "chip": "ym2612"
    },
    {
      "channel": 1,
      "note": 47,
      "start": 5.3952,
      "duration": 0.5952,
      "velocity": 100,
      "chip": "ym2612"
    },
    {
      "channel": 2,
      "note": 45,
      "start": 5.3962,
      "duration": 0.3956,
      "velocity": 95,
      "chip": "ym2612"
    },
    {
      "channel": 3,
      "note": 49,
      "start": 5.3973,
      "duration": 0.3956,
      "velocity": 74,
      "chip": "ym2612"
    },
    {
      "channel": 4,
      "note": 79,
      "start": 5.4935,
      "duration": 0.45,
      "velocity": 74,
      "chip": "ym2612"
    },
    {
      "channel": 2,
      "note": 44,
      "start": 5.7919,
      "duration": 0.2042,
      "velocity": 95,
      "chip": "ym2612"
    },
    {
      "channel": 3,
      "note": 47,
      "start": 5.7929,
      "duration": 0.2042,
      "velocity": 74,
      "chip": "ym2612"
    },
    {
      "channel": 0,
      "note": 78,
      "start": 5.8399,
      "duration": 0.1501,
      "velocity": 74,
      "chip": "ym2612"
    },
    {
      "channel": 4,
      "note": 78,
      "start": 5.9435,
      "duration": 0.1499,
      "velocity": 74,
      "chip": "ym2612"
    },
    {
      "channel": 0,
      "note": 76,
      "start": 5.99,
      "duration": 0.8999,
      "velocity": 74,
      "chip": "ym2612"
    },
    {
      "channel": 1,
      "note": 36,
      "start": 5.995,
      "duration": 0.5954,
      "velocity": 92,
      "chip": "ym2612"
    },
    {
      "channel": 2,
      "note": 43,
      "start": 5.9961,
      "duration": 1.2001,
      "velocity": 95,
      "chip": "ym2612"
    },
    {
      "channel": 3,
      "note": 46,
      "start": 5.9971,
      "duration": 1.2001,
      "velocity": 74,
      "chip": "ym2612"
    },
    {
      "channel": 4,
      "note": 76,
      "start": 6.0935,
      "duration": 0.9003,
      "velocity": 74,
      "chip": "ym2612"
    },
    {
      "channel": 1,
      "note": 31,
      "start": 6.595,
      "duration": 0.5955,
      "velocity": 103,
      "chip": "ym2612"
    },
    {
      "channel": 0,
      "note": 75,
      "start": 6.8899,
      "duration": 0.3002,
      "velocity": 74,
      "chip": "ym2612"
    },
    {
      "channel": 4,
      "note": 75,
      "start": 6.9938,
      "duration": 0.2997,
      "velocity": 74,
      "chip": "ym2612"
    },
    {
      "channel": 0,
      "note": 78,
      "start": 7.1901,
      "duration": 0.4498,
      "velocity": 74,
      "chip": "ym2612"
    },
    {
      "channel": 1,
      "note": 35,
      "start": 7.1952,
      "duration": 0.5952,
      "velocity": 92,
      "chip": "ym2612"
    },
    {
      "channel": 2,
      "note": 47,
      "start": 7.1962,
      "duration": 0.5999,
      "velocity": 95,
      "chip": "ym2612"
    },
    {
      "channel": 3,
      "note": 51,
      "start": 7.1973,
      "duration": 0.5999,
      "velocity": 74,
      "chip": "ym2612"
    },
    {
      "channel": 4,
      "note": 78,
      "start": 7.2935,
      "duration": 0.4502,
      "velocity": 74,
      "chip": "ym2612"
    },
    {
      "channel": 0,
      "note": 83,
      "start": 7.6399,
      "duration": 0.1501,
      "velocity": 74,
      "chip": "ym2612"
    },
    {
      "channel": 4,
      "note": 83,
      "start": 7.7437,
      "duration": 0.1498,
      "velocity": 74,
      "chip": "ym2612"
    },
    {
      "channel": 0,
      "note": 81,
      "start": 7.79,
      "duration": 0.4499,
      "velocity": 74,
      "chip": "ym2612"
    },
    {
      "channel": 1,
      "note": 47,
      "start": 7.795,
      "duration": 0.5954,
      "velocity": 100,
      "chip": "ym2612"
    },
    {
      "channel": 2,
      "note": 45,
      "start": 7.7961,
      "duration": 0.3958,
      "velocity": 95,
      "chip": "ym2612"
    },
    {
      "channel": 3,
      "note": 49,
      "start": 7.7971,
      "duration": 0.3958,
      "velocity": 74,
      "chip": "ym2612"
    },
    {
      "channel": 4,
      "note": 81,
      "start": 7.8935,
      "duration": 0.45,
      "velocity": 74,
      "chip": "ym2612"
    },
    {
      "channel": 2,
      "note": 44,
      "start": 8.1919,
      "duration": 0.2042,
      "velocity": 95,
      "chip": "ym2612"
    },
    {
      "channel": 3,
      "note": 51,
      "start": 8.1929,
      "duration": 0.2042,
      "velocity": 74,
      "chip": "ym2612"
    },
    {
      "channel": 0,
      "note": 78,
      "start": 8.2399,
      "duration": 0.1501,
      "velocity": 74,
      "chip": "ym2612"
    },
    {
      "channel": 4,
      "note": 78,
      "start": 8.3436,
      "duration": 0.15,
      "velocity": 74,
      "chip": "ym2612"
    },
    {
      "channel": 0,
      "note": 76,
      "start": 8.39,
      "duration": 0.4498,
      "velocity": 74,
      "chip": "ym2612"
    },
    {
      "channel": 1,
      "note": 36,
      "start": 8.395,
      "duration": 0.5954,
      "velocity": 92,
      "chip": "ym2612"
    },
    {
      "channel": 2,
      "note": 43,
      "start": 8.3961,
      "duration": 0.5998,
      "velocity": 95,
      "chip": "ym2612"
    },
    {
      "channel": 3,
      "note": 52,
      "start": 8.3971,
      "duration": 0.5999,
      "velocity": 74,
      "chip": "ym2612"
    },
    {
      "channel": 4,
      "note": 76,
      "start": 8.4935,
      "duration": 0.4502,
      "velocity": 74,
      "chip": "ym2612"
    },
    {
      "channel": 0,
      "note": 75,
      "start": 8.8398,
      "duration": 0.1502,
      "velocity": 74,
      "chip": "ym2612"
    },
    {
      "channel": 4,
      "note": 75,
      "start": 8.9437,
      "duration": 0.1498,
      "velocity": 74,
      "chip": "ym2612"
    },
    {
      "channel": 0,
      "note": 76,
      "start": 8.9901,
      "duration": 0.4498,
      "velocity": 74,
      "chip": "ym2612"
    },
    {
      "channel": 1,
      "note": 36,
      "start": 8.995,
      "duration": 0.5955,
      "velocity": 103,
      "chip": "ym2612"
    },
    {
      "channel": 2,
      "note": 48,
      "start": 8.996,
      "duration": 0.6001,
      "velocity": 95,
      "chip": "ym2612"
    },
    {
      "channel": 3,
      "note": 55,
      "start": 8.997,
      "duration": 0.6001,
      "velocity": 74,
      "chip": "ym2612"
    },
    {
      "channel": 4,
      "note": 76,
      "start": 9.0935,
      "duration": 0.4502,
      "velocity": 74,
      "chip": "ym2612"
    },
    {
      "channel": 0,
      "note": 79,
      "start": 9.4398,
      "duration": 0.1502,
      "velocity": 74,
      "chip": "ym2612"
    },
    {
      "channel": 4,
      "note": 79,
      "start": 9.5437,
      "duration": 0.1498,
      "velocity": 74,
      "chip": "ym2612"
    },
    {
      "channel": 0,
      "note": 81,
      "start": 9.5901,
      "duration": 0.4498,
      "velocity": 74,
      "chip": "ym2612"
    },
    {
      "channel": 1,
      "note": 37,
      "start": 9.5951,
      "duration": 0.5954,
      "velocity": 92,
      "chip": "ym2612"
    },
    {
      "channel": 2,
      "note": 52,
      "start": 9.5961,
      "duration": 0.6,
      "velocity": 95,
      "chip": "ym2612"
    },
    {
      "channel": 3,
      "note": 57,
      "start": 9.5971,
      "duration": 0.6,
      "velocity": 74,
      "chip": "ym2612"
    },
    {
      "channel": 4,
      "note": 81,
      "start": 9.6936,
      "duration": 0.4501,
      "velocity": 74,
      "chip": "ym2612"
    },
    {
      "channel": 0,
      "note": 79,
      "start": 10.0398,
      "duration": 0.1502,
      "velocity": 74,
      "chip": "ym2612"
    },
    {
      "channel": 4,
      "note": 79,
      "start": 10.1437,
      "duration": 0.1498,
      "velocity": 74,
      "chip": "ym2612"
    },
    {
      "channel": 0,
      "note": 76,
      "start": 10.1901,
      "duration": 0.4499,
      "velocity": 74,
      "chip": "ym2612"
    },
    {
      "channel": 1,
      "note": 45,
      "start": 10.1951,
      "duration": 0.4452,
      "velocity": 103,
      "chip": "ym2612"
    },
    {
      "channel": 2,
      "note": 50,
      "start": 10.1961,
      "duration": 0.3958,
      "velocity": 95,
      "chip": "ym2612"
    },
    {
      "channel": 3,
      "note": 59,
      "start": 10.1972,
      "duration": 0.3957,
      "velocity": 74,
      "chip": "ym2612"
    },
    {
      "channel": 4,
      "note": 76,
      "start": 10.2936,
      "duration": 0.4499,
      "velocity": 74,
      "chip": "ym2612"
    },
    {
      "channel": 2,
      "note": 52,
      "start": 10.5919,
      "duration": 0.2001,
      "velocity": 95,
      "chip": "ym2612"
    },
    {
      "channel": 3,
      "note": 61,
      "start": 10.593,
      "duration": 0.2001,
      "velocity": 74,
      "chip": "ym2612"
    },
    {
      "channel": 0,
      "note": 73,
      "start": 10.6399,
      "duration": 0.15,
      "velocity": 74,
      "chip": "ym2612"
    },
    {
      "channel": 1,
      "note": 43,
      "start": 10.645,
      "duration": 0.146,
      "velocity": 92,
      "chip": "ym2612"
    },
    {
      "channel": 4,
      "note": 73,
      "start": 10.7434,
      "duration": 0.1501,
      "velocity": 74,
      "chip": "ym2612"
    },
    {
      "channel": 0,
      "note": 70,
      "start": 10.7899,
      "duration": 0.9001,
      "velocity": 74,
      "chip": "ym2612"
    },
    {
      "channel": 1,
      "note": 42,
      "start": 10.791,
      "duration": 0.9,
      "velocity": 92,
      "chip": "ym2612"
    },
    {
      "channel": 2,
      "note": 55,
      "start": 10.792,
      "duration": 0.9001,
      "velocity": 95,
      "chip": "ym2612"
    },
    {
      "channel": 3,
      "note": 60,
      "start": 10.7931,
      "duration": 0.9001,
      "velocity": 74,
      "chip": "ym2612"
    },
    {
      "channel": 4,
      "note": 70,
      "start": 10.8936,
      "duration": 0.9005,
      "velocity": 74,
      "chip": "ym2612"
    },
    {
      "channel": 0,
      "note": 69,
      "start": 11.69,
      "duration": 0.3,
      "velocity": 74,
      "chip": "ym2612"
    },
    {
      "channel": 1,
      "note": 41,
      "start": 11.6911,
      "duration": 0.3045,
      "velocity": 92,
      "chip": "ym2612"
    },
    {
      "channel": 2,
      "note": 54,
      "start": 11.6921,
      "duration": 0.3039,
      "velocity": 95,
      "chip": "ym2612"
    },
    {
      "channel": 3,
      "note": 60,
      "start": 11.6932,
      "duration": 0.3078,
      "velocity": 74,
      "chip": "ym2612"
    },
    {
      "channel": 4,
      "note": 69,
      "start": 11.794,
      "duration": 0.2989,
      "velocity": 74,
      "chip": "ym2612"
    },
    {
      "channel": 0,
      "note": 71,
      "start": 11.9946,
      "duration": 0.5955,
      "velocity": 89,
      "chip": "ym2612"
    },
    {
      "channel": 1,
      "note": 35,
      "start": 11.9956,
      "duration": 0.5949,
      "velocity": 92,
      "chip": "ym2612"
    },
    {
      "channel": 2,
      "note": 47,
      "start": 12.0006,
      "duration": 0.3913,
      "velocity": 74,
      "chip": "ym2612"
    },
    {
      "channel": 3,
      "note": 84,
      "start": 12.0073,
      "duration": 0.1854,
      "velocity": 100,
      "chip": "ym2612"
    },
    {
      "channel": 4,
      "note": 71,
      "start": 12.0976,
      "duration": 0.5961,
      "velocity": 89,
      "chip": "ym2612"
    },
    {
      "channel": 3,
      "note": 84,
      "start": 12.1927,
      "duration": 0.2002,
      "velocity": 100,
      "chip": "ym2612"
    },
    {
      "channel": 2,
      "note": 42,
      "start": 12.3919,
      "duration": 0.2036,
      "velocity": 74,
      "chip": "ym2612"
    },
    {
      "channel": 3,
      "note": 85,
      "start": 12.393,
      "duration": 0.2081,
      "velocity": 100,
      "chip": "ym2612"
    },
    {
      "channel": 0,
      "note": 69,
      "start": 12.5901,
      "duration": 0.6,
      "velocity": 89,
      "chip": "ym2612"
    },
    {
      "channel": 1,
      "note": 47,
      "start": 12.5951,
      "duration": 0.5954,
      "velocity": 100,
      "chip": "ym2612"
    },
    {
      "channel": 2,
      "note": 47,
      "start": 12.6001,
      "duration": 0.5961,
      "velocity": 116,
      "chip": "ym2612"
    },
    {
      "channel": 3,
      "note": 84,
      "start": 12.6011,
      "duration": 0.1915,
      "velocity": 100,
      "chip": "ym2612"
    },
    {
      "channel": 4,
      "note": 69,
      "start": 12.6937,
      "duration": 0.6,
      "velocity": 89,
      "chip": "ym2612"
    },
    {
      "channel": 3,
      "note": 85,
      "start": 12.7926,
      "duration": 0.2001,
      "velocity": 100,
      "chip": "ym2612"
    },
    {
      "channel": 3,
      "note": 84,
      "start": 12.9927,
      "duration": 0.2044,
      "velocity": 100,
      "chip": "ym2612"
    },
    {
      "channel": 0,
      "note": 68,
      "start": 13.1901,
      "duration": 0.8998,
      "velocity": 89,
      "chip": "ym2612"
    },
    {
      "channel": 1,
      "note": 36,
      "start": 13.1952,
      "duration": 0.5954,
      "velocity": 92,
      "chip": "ym2612"
    },
    {
      "channel": 2,
      "note": 48,
      "start": 13.1962,
      "duration": 0.5992,
      "velocity": 116,
      "chip": "ym2612"
    },
    {
      "channel": 3,
      "note": 83,
      "start": 13.1972,
      "duration": 0.1954,
      "velocity": 100,
      "chip": "ym2612"
    },
    {
      "channel": 4,
      "note": 68,
      "start": 13.2938,
      "duration": 0.9003,
      "velocity": 89,
      "chip": "ym2612"
    },
    {
      "channel": 3,
      "note": 84,
      "start": 13.3926,
      "duration": 0.2001,
      "velocity": 100,
      "chip": "ym2612"
    },
    {
      "channel": 3,
      "note": 83,
      "start": 13.5927,
      "duration": 0.2083,
      "velocity": 100,
      "chip": "ym2612"
    },
    {
      "channel": 1,
      "note": 36,
      "start": 13.795,
      "duration": 0.5955,
      "velocity": 103,
      "chip": "ym2612"
    },
    {
      "channel": 2,
      "note": 40,
      "start": 13.8,
      "duration": 0.192,
      "velocity": 74,
      "chip": "ym2612"
    },
    {
      "channel": 3,
      "note": 84,
      "start": 13.8011,
      "duration": 0.1919,
      "velocity": 100,
      "chip": "ym2612"
    },
    {
      "channel": 2,
      "note": 43,
      "start": 13.992,
      "duration": 0.2,
      "velocity": 74,
      "chip": "ym2612"
    },
    {
      "channel": 3,
      "note": 83,
      "start": 13.993,
      "duration": 0.2,
      "velocity": 100,
      "chip": "ym2612"
    },
    {
      "channel": 0,
      "note": 69,
      "start": 14.0899,
      "duration": 0.3002,
      "velocity": 89,
      "chip": "ym2612"
    },
    {
      "channel": 2,
      "note": 46,
      "start": 14.192,
      "duration": 0.2042,
      "velocity": 74,
      "chip": "ym2612"
    },
    {
      "channel": 3,
      "note": 84,
      "start": 14.193,
      "duration": 0.2043,
      "velocity": 100,
      "chip": "ym2612"
    },
    {
      "channel": 4,
      "note": 69,
      "start": 14.1941,
      "duration": 0.2994,
      "velocity": 89,
      "chip": "ym2612"
    },
    {
      "channel": 0,
      "note": 71,
      "start": 14.3901,
      "duration": 0.6,
      "velocity": 89,
      "chip": "ym2612"
    },
    {
      "channel": 1,
      "note": 35,
      "start": 14.3952,
      "duration": 0.5954,
      "velocity": 92,
      "chip": "ym2612"
    },
    {
      "channel": 2,
      "note": 47,
      "start": 14.3962,
      "duration": 0.3957,
      "velocity": 74,
      "chip": "ym2612"
    },
    {
      "channel": 3,
      "note": 85,
      "start": 14.3973,
      "duration": 0.1954,
      "velocity": 100,
      "chip": "ym2612"
    },
    {
      "channel": 4,
      "note": 71,
      "start": 14.4935,
      "duration": 0.6001,
      "velocity": 89,
      "chip": "ym2612"
    },
    {
      "channel": 3,
      "note": 84,
      "start": 14.5926,
      "duration": 0.2003,
      "velocity": 100,
      "chip": "ym2612"
    },
    {
      "channel": 2,
      "note": 42,
      "start": 14.7919,
      "duration": 0.2037,
      "velocity": 74,
      "chip": "ym2612"
    },
    {
      "channel": 3,
      "note": 85,
      "start": 14.7929,
      "duration": 0.2083,
      "velocity": 100,
      "chip": "ym2612"
    },
    {
      "channel": 0,
      "note": 67,
      "start": 14.9901,
      "duration": 0.6,
      "velocity": 89,
      "chip": "ym2612"
    },
    {
      "channel": 1,
      "note": 47,
      "start": 14.9952,
      "duration": 0.5954,
      "velocity": 100,
      "chip": "ym2612"
    },
    {
      "channel": 2,
      "note": 47,
      "start": 15.0002,
      "duration": 0.596,
      "velocity": 116,
      "chip": "ym2612"
    },
    {
      "channel": 3,
      "note": 84,
      "start": 15.0012,
      "duration": 0.1914,
      "velocity": 100,
      "chip": "ym2612"
    },
    {
      "channel": 4,
      "note": 68,
      "start": 15.0936,
      "duration": 0.5999,
      "velocity": 89,
      "chip": "ym2612"
    },
    {
      "channel": 3,
      "note": 85,
      "start": 15.1926,
      "duration": 0.2001,
      "velocity": 100,
      "chip": "ym2612"
    },
    {
      "channel": 3,
      "note": 84,
      "start": 15.3928,
      "duration": 0.2044,
      "velocity": 100,
      "chip": "ym2612"
    },
    {
      "channel": 0,
      "note": 63,
      "start": 15.5901,
      "duration": 1.2,
      "velocity": 89,
      "chip": "ym2612"
    },
    {
      "channel": 1,
      "note": 36,
      "start": 15.5952,
      "duration": 0.5952,
      "velocity": 92,
      "chip": "ym2612"
    },
    {
      "channel": 2,
      "note": 48,
      "start": 15.5962,
      "duration": 0.5993,
      "velocity": 116,
      "chip": "ym2612"
    },
    {
      "channel": 3,
      "note": 83,
      "start": 15.5973,
      "duration": 0.1954,
      "velocity": 100,
      "chip": "ym2612"
    },
    {
      "channel": 4,
      "note": 63,
      "start": 15.6935,
      "duration": 1.2,
      "velocity": 89,
      "chip": "ym2612"
    },
    {
      "channel": 3,
      "note": 84,
      "start": 15.7927,
      "duration": 0.2001,
      "velocity": 100,
      "chip": "ym2612"
    },
    {
      "channel": 3,
      "note": 83,
      "start": 15.9928,
      "duration": 0.2083,
      "velocity": 100,
      "chip": "ym2612"
    },
    {
      "channel": 1,
      "note": 31,
      "start": 16.195,
      "duration": 0.5956,
      "velocity": 103,
      "chip": "ym2612"
    },
    {
      "channel": 2,
      "note": 40,
      "start": 16.2001,
      "duration": 0.1918,
      "velocity": 74,
      "chip": "ym2612"
    },
    {
      "channel": 3,
      "note": 84,
      "start": 16.2011,
      "duration": 0.1919,
      "velocity": 100,
      "chip": "ym2612"
    },
    {
      "channel": 2,
      "note": 43,
      "start": 16.3919,
      "duration": 0.2,
      "velocity": 74,
      "chip": "ym2612"
    },
    {
      "channel": 3,
      "note": 83,
      "start": 16.3929,
      "duration": 0.2,
      "velocity": 100,
      "chip": "ym2612"
    },
    {
      "channel": 2,
      "note": 46,
      "start": 16.5919,
      "duration": 0.2044,
      "velocity": 74,
      "chip": "ym2612"
    },
    {
      "channel": 3,
      "note": 84,
      "start": 16.5929,
      "duration": 0.2043,
      "velocity": 100,
      "chip": "ym2612"
    },
    {
      "channel": 0,
      "note": 71,
      "start": 16.7902,
      "duration": 0.5999,
      "velocity": 89,
      "chip": "ym2612"
    },
    {
      "channel": 1,
      "note": 35,
      "start": 16.7952,
      "duration": 0.5954,
      "velocity": 92,
      "chip": "ym2612"
    },
    {
      "channel": 2,
      "note": 47,
      "start": 16.7962,
      "duration": 0.3956,
      "velocity": 74,
      "chip": "ym2612"
    },
    {
      "channel": 3,
      "note": 85,
      "start": 16.7973,
      "duration": 0.1954,
      "velocity": 100,
      "chip": "ym2612"
    },
    {
      "channel": 4,
      "note": 71,
      "start": 16.8935,
      "duration": 0.6001,
      "velocity": 89,
      "chip": "ym2612"
    },
    {
      "channel": 3,
      "note": 84,
      "start": 16.9927,
      "duration": 0.2002,
      "velocity": 100,
      "chip": "ym2612"
    },
    {
      "channel": 2,
      "note": 42,
      "start": 17.1919,
      "duration": 0.2035,
      "velocity": 74,
      "chip": "ym2612"
    },
    {
      "channel": 3,
      "note": 85,
      "start": 17.1929,
      "duration": 0.2081,
      "velocity": 100,
      "chip": "ym2612"
    },
    {
      "channel": 0,
      "note": 73,
      "start": 17.3902,
      "duration": 0.5998,
      "velocity": 89,
      "chip": "ym2612"
    },
    {
      "channel": 1,
      "note": 35,
      "start": 17.3951,
      "duration": 0.5954,
      "velocity": 103,
      "chip": "ym2612"
    },
    {
      "channel": 2,
      "note": 47,
      "start": 17.4001,
      "duration": 0.5961,
      "velocity": 116,
      "chip": "ym2612"
    },
    {
      "channel": 3,
      "note": 84,
      "start": 17.4011,
      "duration": 0.1916,
      "velocity": 100,
      "chip": "ym2612"
    },
    {
      "channel": 4,
      "note": 73,
      "start": 17.4937,
      "duration": 0.5999,
      "velocity": 89,
      "chip": "ym2612"
    },
    {
      "channel": 3,
      "note": 85,
      "start": 17.5927,
      "duration": 0.2001,
      "velocity": 100,
      "chip": "ym2612"
    },
    {
      "channel": 3,
      "note": 84,
      "start": 17.7928,
      "duration": 0.2043,
      "velocity": 100,
      "chip": "ym2612"
    },
    {
      "channel": 0,
      "note": 74,
      "start": 17.9901,
      "duration": 0.9498,
      "velocity": 89,
      "chip": "ym2612"
    },
    {
      "channel": 1,
      "note": 36,
      "start": 17.9951,
      "duration": 0.5954,
      "velocity": 92,
      "chip": "ym2612"
    },
    {
      "channel": 2,
      "note": 48,
      "start": 17.9961,
      "duration": 0.5992,
      "velocity": 116,
      "chip": "ym2612"
    },
    {
      "channel": 3,
      "note": 83,
      "start": 17.9971,
      "duration": 0.1956,
      "velocity": 100,
      "chip": "ym2612"
    },
    {
      "channel": 4,
      "note": 74,
      "start": 18.0937,
      "duration": 0.9501,
      "velocity": 89,
      "chip": "ym2612"
    },
    {
      "channel": 3,
      "note": 84,
      "start": 18.1927,
      "duration": 0.2001,
      "velocity": 100,
      "chip": "ym2612"
    },
    {
      "channel": 3,
      "note": 83,
      "start": 18.3928,
      "duration": 0.2081,
      "velocity": 100,
      "chip": "ym2612"
    },
    {
      "channel": 1,
      "note": 36,
      "start": 18.595,
      "duration": 0.5955,
      "velocity": 103,
      "chip": "ym2612"
    },
    {
      "channel": 2,
      "note": 43,
      "start": 18.5999,
      "duration": 0.192,
      "velocity": 74,
      "chip": "ym2612"
    },
    {
      "channel": 3,
      "note": 84,
      "start": 18.601,
      "duration": 0.1919,
      "velocity": 100,
      "chip": "ym2612"
    },
    {
      "channel": 2,
      "note": 46,
      "start": 18.7919,
      "duration": 0.2,
      "velocity": 74,
      "chip": "ym2612"
    },
    {
      "channel": 3,
      "note": 83,
      "start": 18.7929,
      "duration": 0.2,
      "velocity": 100,
      "chip": "ym2612"
    },
    {
      "channel": 0,
      "note": 74,
      "start": 18.9399,
      "duration": 0.2502,
      "velocity": 89,
      "chip": "ym2612"
    },
    {
      "channel": 2,
      "note": 49,
      "start": 18.9919,
      "duration": 0.2042,
      "velocity": 74,
      "chip": "ym2612"
    },
    {
      "channel": 3,
      "note": 84,
      "start": 18.993,
      "duration": 0.2042,
      "velocity": 100,
      "chip": "ym2612"
    },
    {
      "channel": 4,
      "note": 74,
      "start": 19.0438,
      "duration": 0.2499,
      "velocity": 89,
      "chip": "ym2612"
    },
    {
      "channel": 0,
      "note": 77,
      "start": 19.1901,
      "duration": 0.3999,
      "velocity": 89,
      "chip": "ym2612"
    },
    {
      "channel": 1,
      "note": 37,
      "start": 19.1951,
      "duration": 0.5954,
      "velocity": 92,
      "chip": "ym2612"
    },
    {
      "channel": 2,
      "note": 52,
      "start": 19.1961,
      "duration": 0.3958,
      "velocity": 74,
      "chip": "ym2612"
    },
    {
      "channel": 3,
      "note": 85,
      "start": 19.1972,
      "duration": 0.1955,
      "velocity": 100,
      "chip": "ym2612"
    },
    {
      "channel": 4,
      "note": 77,
      "start": 19.2937,
      "duration": 0.3999,
      "velocity": 89,
      "chip": "ym2612"
    },
    {
      "channel": 3,
      "note": 84,
      "start": 19.3927,
      "duration": 0.2002,
      "velocity": 100,
      "chip": "ym2612"
    },
    {
      "channel": 0,
      "note": 78,
      "start": 19.5899,
      "duration": 0.2001,
      "velocity": 89,
      "chip": "ym2612"
    },
    {
      "channel": 2,
      "note": 45,
      "start": 19.5919,
      "duration": 0.2036,
      "velocity": 74,
      "chip": "ym2612"
    },
    {
      "channel": 3,
      "note": 85,
      "start": 19.593,
      "duration": 0.208,
      "velocity": 100,
      "chip": "ym2612"
    },
    {
      "channel": 4,
      "note": 78,
      "start": 19.6936,
      "duration": 0.2,
      "velocity": 89,
      "chip": "ym2612"
    },
    {
      "channel": 0,
      "note": 77,
      "start": 19.7901,
      "duration": 0.1498,
      "velocity": 89,
      "chip": "ym2612"
    },
    {
      "channel": 1,
      "note": 45,
      "start": 19.7951,
      "duration": 0.4452,
      "velocity": 103,
      "chip": "ym2612"
    },
    {
      "channel": 2,
      "note": 45,
      "start": 19.8,
      "duration": 0.5961,
      "velocity": 116,
      "chip": "ym2612"
    },
    {
      "channel": 3,
      "note": 84,
      "start": 19.801,
      "duration": 0.1919,
      "velocity": 100,
      "chip": "ym2612"
    },
    {
      "channel": 4,
      "note": 77,
      "start": 19.8936,
      "duration": 0.1501,
      "velocity": 89,
      "chip": "ym2612"
    },
    {
      "channel": 0,
      "note": 75,
      "start": 19.9399,
      "duration": 0.2,
      "velocity": 89,
      "chip": "ym2612"
    },
    {
      "channel": 3,
      "note": 85,
      "start": 19.9929,
      "duration": 0.1999,
      "velocity": 100,
      "chip": "ym2612"
    },
    {
      "channel": 4,
      "note": 75,
      "start": 20.0437,
      "duration": 0.2042,
      "velocity": 89,
      "chip": "ym2612"
    },
    {
      "channel": 0,
      "note": 74,
      "start": 20.1399,
      "duration": 0.2501,
      "velocity": 89,
      "chip": "ym2612"
    },
    {
      "channel": 3,
      "note": 87,
      "start": 20.1929,
      "duration": 0.2043,
      "velocity": 100,
      "chip": "ym2612"
    },
    {
      "channel": 1,
      "note": 31,
      "start": 20.2449,
      "duration": 0.1456,
      "velocity": 92,
      "chip": "ym2612"
    },
    {
      "channel": 4,
      "note": 74,
      "start": 20.2479,
      "duration": 0.2458,
      "velocity": 89,
      "chip": "ym2612"
    },
    {
      "channel": 0,
      "note": 72,
      "start": 20.3901,
      "duration": 0.8998,
      "velocity": 89,
      "chip": "ym2612"
    },
    {
      "channel": 1,
      "note": 42,
      "start": 20.3951,
      "duration": 0.8959,
      "velocity": 92,
      "chip": "ym2612"
    },
    {
      "channel": 2,
      "note": 42,
      "start": 20.3962,
      "duration": 0.5952,
      "velocity": 116,
      "chip": "ym2612"
    },
    {
      "channel": 3,
      "note": 85,
      "start": 20.3972,
      "duration": 0.1954,
      "velocity": 100,
      "chip": "ym2612"
    },
    {
      "channel": 4,
      "note": 72,
      "start": 20.4937,
      "duration": 0.9005,
      "velocity": 89,
      "chip": "ym2612"
    },
    {
      "channel": 3,
      "note": 85,
      "start": 20.5926,
      "duration": 0.2001,
      "velocity": 100,
      "chip": "ym2612"
    },
    {
      "channel": 3,
      "note": 85,
      "start": 20.7927,
      "duration": 0.2043,
      "velocity": 100,
      "chip": "ym2612"
    },
    {
      "channel": 2,
      "note": 48,
      "start": 20.9961,
      "duration": 0.1959,
      "velocity": 74,
      "chip": "ym2612"
    },
    {
      "channel": 3,
      "note": 85,
      "start": 20.9971,
      "duration": 0.1959,
      "velocity": 100,
      "chip": "ym2612"
    },
    {
      "channel": 2,
      "note": 46,
      "start": 21.1919,
      "duration": 0.2001,
      "velocity": 74,
      "chip": "ym2612"
    },
    {
      "channel": 3,
      "note": 83,
      "start": 21.193,
      "duration": 0.2001,
      "velocity": 100,
      "chip": "ym2612"
    },
    {
      "channel": 0,
      "note": 69,
      "start": 21.2899,
      "duration": 0.3002,
      "velocity": 89,
      "chip": "ym2612"
    },
    {
      "channel": 1,
      "note": 41,
      "start": 21.291,
      "duration": 0.3048,
      "velocity": 92,
      "chip": "ym2612"
    },
    {
      "channel": 2,
      "note": 42,
      "start": 21.3921,
      "duration": 0.2041,
      "velocity": 74,
      "chip": "ym2612"
    },
    {
      "channel": 3,
      "note": 79,
      "start": 21.3931,
      "duration": 0.208,
      "velocity": 100,
      "chip": "ym2612"
    },
    {
      "channel": 4,
      "note": 69,
      "start": 21.3942,
      "duration": 0.2987,
      "velocity": 89,
      "chip": "ym2612"
    },
    {
      "channel": 0,
      "note": 78,
      "start": 21.5947,
      "duration": 0.4452,
      "velocity": 74,
      "chip": "ym2612"
    },
    {
      "channel": 1,
      "note": 35,
      "start": 21.5958,
      "duration": 0.5947,
      "velocity": 92,
      "chip": "ym2612"
    },
    {
      "channel": 2,
      "note": 47,
      "start": 21.6008,
      "duration": 0.5954,
      "velocity": 95,
      "chip": "ym2612"
    },
    {
      "channel": 3,
      "note": 51,
      "start": 21.6074,
      "duration": 0.5898,
      "velocity": 74,
      "chip": "ym2612"
    },
    {
      "channel": 4,
      "note": 78,
      "start": 21.6976,
      "duration": 0.4461,
      "velocity": 74,
      "chip": "ym2612"
    },
    {
      "channel": 0,
      "note": 83,
      "start": 22.0399,
      "duration": 0.1502,
      "velocity": 74,
      "chip": "ym2612"
    },
    {
      "channel": 4,
      "note": 83,
      "start": 22.1436,
      "duration": 0.1499,
      "velocity": 74,
      "chip": "ym2612"
    },
    {
      "channel": 0,
      "note": 81,
      "start": 22.1901,
      "duration": 0.4498,
      "velocity": 74,
      "chip": "ym2612"
    },
    {
      "channel": 1,
      "note": 47,
      "start": 22.1952,
      "duration": 0.5776,
      "velocity": 100,
      "chip": "ym2612"
    },
    {
      "channel": 2,
      "note": 45,
      "start": 22.1962,
      "duration": 0.3958,
      "velocity": 95,
      "chip": "ym2612"
    },
    {
      "channel": 3,
      "note": 49,
      "start": 22.1973,
      "duration": 0.3957,
      "velocity": 74,
      "chip": "ym2612"
    },
    {
      "channel": 4,
      "note": 81,
      "start": 22.2936,
      "duration": 0.4499,
      "velocity": 74,
      "chip": "ym2612"
    },
    {
      "channel": 2,
      "note": 44,
      "start": 22.592,
      "duration": 0.1808,
      "velocity": 95,
      "chip": "ym2612"
    },
    {
      "channel": 3,
      "note": 51,
      "start": 22.593,
      "duration": 0.1798,
      "velocity": 74,
      "chip": "ym2612"
    },
    {
      "channel": 0,
      "note": 80,
      "start": 22.6399,
      "duration": 0.1329,
      "velocity": 74,
      "chip": "ym2612"
    },
    {
      "channel": 4,
      "note": 80,
      "start": 22.7435,
      "duration": 0.0293,
      "velocity": 74,
      "chip": "ym2612"
    }
  ]
}