{
  "track_name": "19 - High Score Display",
  "duration_sec": 24.624,
  "sample_rate": 44100,
  "note_count": 572,
  "unique_pitches": 30,
  "pitch_range": 55,
  "avg_note_duration": 0.1397,
  "reconstruction_stats": {
    "notes_reconstructed": 572,
    "keyon_events": 572,
    "keyoff_events": 568,
    "orphan_keyons": 4,
    "unique_pitches": 30,
    "pitch_range": 55,
    "avg_duration_sec": 0.1397
  },
  "metadata": {
    "source": "T\\Teenage Mutant Ninja Turtles - The Hyperstone Heist\\19 - High Score Display.vgz"
  },
  "notes": [
    {
      "channel": 1,
      "note": 78,
      "start": 0.0727,
      "duration": 0.0627,
      "velocity": 103,
      "chip": "ym2612"
    },
    {
      "channel": 4,
      "note": 81,
      "start": 0.0738,
      "duration": 0.0451,
      "velocity": 119,
      "chip": "ym2612"
    },
    {
      "channel": 1,
      "note": 80,
      "start": 0.1693,
      "duration": 0.1507,
      "velocity": 103,
      "chip": "ym2612"
    },
    {
      "channel": 3,
      "note": 78,
      "start": 0.1705,
      "duration": 0.066,
      "velocity": 103,
      "chip": "ym2612"
    },
    {
      "channel": 4,
      "note": 81,
      "start": 0.1721,
      "duration": 0.0986,
      "velocity": 127,
      "chip": "ym2612"
    },
    {
      "channel": 3,
      "note": 80,
      "start": 0.2705,
      "duration": 0.1337,
      "velocity": 103,
      "chip": "ym2612"
    },
    {
      "channel": 1,
      "note": 82,
      "start": 0.3541,
      "duration": 0.0833,
      "velocity": 103,
      "chip": "ym2612"
    },
    {
      "channel": 4,
      "note": 81,
      "start": 0.355,
      "duration": 0.0495,
      "velocity": 127,
      "chip": "ym2612"
    },
    {
      "channel": 0,
      "note": 61,
      "start": 0.4558,
      "duration": 0.0331,
      "velocity": 111,
      "chip": "ym2612"
    },
    {
      "channel": 1,
      "note": 83,
      "start": 0.457,
      "duration": 0.0234,
      "velocity": 103,
      "chip": "ym2612"
    },
    {
      "channel": 3,
      "note": 82,
      "start": 0.4605,
      "duration": 0.012,
      "velocity": 103,
      "chip": "ym2612"
    },
    {
      "channel": 4,
      "note": 81,
      "start": 0.4612,
      "duration": 0.0148,
      "velocity": 127,
      "chip": "ym2612"
    },
    {
      "channel": 3,
      "note": 83,
      "start": 0.4758,
      "duration": 0.0639,
      "velocity": 103,
      "chip": "ym2612"
    },
    {
      "channel": 0,
      "note": 49,
      "start": 0.5228,
      "duration": 0.0666,
      "velocity": 111,
      "chip": "ym2612"
    },
    {
      "channel": 1,
      "note": 83,
      "start": 0.5234,
      "duration": 0.0662,
      "velocity": 103,
      "chip": "ym2612"
    },
    {
      "channel": 2,
      "note": 73,
      "start": 0.524,
      "duration": 0.0658,
      "velocity": 90,
      "chip": "ym2612"
    },
    {
      "channel": 4,
      "note": 81,
      "start": 0.5248,
      "duration": 0.0487,
      "velocity": 127,
      "chip": "ym2612"
    },
    {
      "channel": 0,
      "note": 54,
      "start": 0.6234,
      "duration": 0.1672,
      "velocity": 111,
      "chip": "ym2612"
    },
    {
      "channel": 1,
      "note": 82,
      "start": 0.624,
      "duration": 0.1332,
      "velocity": 103,
      "chip": "ym2612"
    },
    {
      "channel": 2,
      "note": 83,
      "start": 0.6246,
      "duration": 0.1663,
      "velocity": 90,
      "chip": "ym2612"
    },
    {
      "channel": 3,
      "note": 83,
      "start": 0.6254,
      "duration": 0.0652,
      "velocity": 103,
      "chip": "ym2612"
    },
    {
      "channel": 4,
      "note": 81,
      "start": 0.6259,
      "duration": 0.0988,
      "velocity": 127,
      "chip": "ym2612"
    },
    {
      "channel": 3,
      "note": 82,
      "start": 0.7246,
      "duration": 0.1335,
      "velocity": 103,
      "chip": "ym2612"
    },
    {
      "channel": 0,
      "note": 55,
      "start": 0.8077,
      "duration": 0.0834,
      "velocity": 111,
      "chip": "ym2612"
    },
    {
      "channel": 2,
      "note": 73,
      "start": 0.8085,
      "duration": 0.083,
      "velocity": 90,
      "chip": "ym2612"
    },
    {
      "channel": 4,
      "note": 81,
      "start": 0.8093,
      "duration": 0.0491,
      "velocity": 127,
      "chip": "ym2612"
    },
    {
      "channel": 0,
      "note": 56,
      "start": 0.9082,
      "duration": 0.0264,
      "velocity": 111,
      "chip": "ym2612"
    },
    {
      "channel": 1,
      "note": 80,
      "start": 0.9089,
      "duration": 0.0233,
      "velocity": 103,
      "chip": "ym2612"
    },
    {
      "channel": 2,
      "note": 80,
      "start": 0.9095,
      "duration": 0.0255,
      "velocity": 90,
      "chip": "ym2612"
    },
    {
      "channel": 4,
      "note": 81,
      "start": 0.9103,
      "duration": 0.0145,
      "velocity": 127,
      "chip": "ym2612"
    },
    {
      "channel": 3,
      "note": 80,
      "start": 0.9247,
      "duration": 0.0488,
      "velocity": 103,
      "chip": "ym2612"
    },
    {
      "channel": 0,
      "note": 59,
      "start": 0.9392,
      "duration": 0.3522,
      "velocity": 111,
      "chip": "ym2612"
    },
    {
      "channel": 2,
      "note": 73,
      "start": 0.9401,
      "duration": 0.05,
      "velocity": 90,
      "chip": "ym2612"
    },
    {
      "channel": 4,
      "note": 81,
      "start": 0.942,
      "duration": 0.0319,
      "velocity": 119,
      "chip": "ym2612"
    },
    {
      "channel": 1,
      "note": 78,
      "start": 1.024,
      "duration": 0.1335,
      "velocity": 103,
      "chip": "ym2612"
    },
    {
      "channel": 2,
      "note": 61,
      "start": 1.0246,
      "duration": 0.1665,
      "velocity": 90,
      "chip": "ym2612"
    },
    {
      "channel": 4,
      "note": 81,
      "start": 1.0264,
      "duration": 0.0819,
      "velocity": 127,
      "chip": "ym2612"
    },
    {
      "channel": 3,
      "note": 78,
      "start": 1.1081,
      "duration": 0.1503,
      "velocity": 103,
      "chip": "ym2612"
    },
    {
      "channel": 2,
      "note": 78,
      "start": 1.2084,
      "duration": 0.0835,
      "velocity": 90,
      "chip": "ym2612"
    },
    {
      "channel": 4,
      "note": 81,
      "start": 1.2093,
      "duration": 0.0495,
      "velocity": 127,
      "chip": "ym2612"
    },
    {
      "channel": 0,
      "note": 61,
      "start": 1.3086,
      "duration": 0.0348,
      "velocity": 111,
      "chip": "ym2612"
    },
    {
      "channel": 1,
      "note": 77,
      "start": 1.3092,
      "duration": 0.0231,
      "velocity": 103,
      "chip": "ym2612"
    },
    {
      "channel": 2,
      "note": 83,
      "start": 1.31,
      "duration": 0.0338,
      "velocity": 90,
      "chip": "ym2612"
    },
    {
      "channel": 4,
      "note": 81,
      "start": 1.3107,
      "duration": 0.0149,
      "velocity": 127,
      "chip": "ym2612"
    },
    {
      "channel": 3,
      "note": 77,
      "start": 1.3254,
      "duration": 0.1022,
      "velocity": 103,
      "chip": "ym2612"
    },
    {
      "channel": 0,
      "note": 49,
      "start": 1.3774,
      "duration": 0.0665,
      "velocity": 111,
      "chip": "ym2612"
    },
    {
      "channel": 1,
      "note": 78,
      "start": 1.3779,
      "duration": 0.0662,
      "velocity": 103,
      "chip": "ym2612"
    },
    {
      "channel": 2,
      "note": 73,
      "start": 1.3786,
      "duration": 0.0657,
      "velocity": 90,
      "chip": "ym2612"
    },
    {
      "channel": 4,
      "note": 81,
      "start": 1.3794,
      "duration": 0.0487,
      "velocity": 127,
      "chip": "ym2612"
    },
    {
      "channel": 0,
      "note": 54,
      "start": 1.4778,
      "duration": 0.1672,
      "velocity": 111,
      "chip": "ym2612"
    },
    {
      "channel": 1,
      "note": 80,
      "start": 1.4784,
      "duration": 0.1333,
      "velocity": 103,
      "chip": "ym2612"
    },
    {
      "channel": 2,
      "note": 80,
      "start": 1.479,
      "duration": 0.1663,
      "velocity": 90,
      "chip": "ym2612"
    },
    {
      "channel": 3,
      "note": 78,
      "start": 1.4797,
      "duration": 0.0653,
      "velocity": 103,
      "chip": "ym2612"
    },
    {
      "channel": 4,
      "note": 81,
      "start": 1.4803,
      "duration": 0.0821,
      "velocity": 127,
      "chip": "ym2612"
    },
    {
      "channel": 3,
      "note": 80,
      "start": 1.5622,
      "duration": 0.1096,
      "velocity": 103,
      "chip": "ym2612"
    },
    {
      "channel": 0,
      "note": 55,
      "start": 1.6622,
      "duration": 0.0137,
      "velocity": 111,
      "chip": "ym2612"
    },
    {
      "channel": 1,
      "note": 73,
      "start": 1.6629,
      "duration": 0.2348,
      "velocity": 103,
      "chip": "ym2612"
    },
    {
      "channel": 2,
      "note": 73,
      "start": 1.6634,
      "duration": 0.0128,
      "velocity": 90,
      "chip": "ym2612"
    },
    {
      "channel": 4,
      "note": 81,
      "start": 1.6643,
      "duration": 0.0079,
      "velocity": 127,
      "chip": "ym2612"
    },
    {
      "channel": 0,
      "note": 56,
      "start": 1.6784,
      "duration": 0.0114,
      "velocity": 111,
      "chip": "ym2612"
    },
    {
      "channel": 2,
      "note": 73,
      "start": 1.6792,
      "duration": 0.0109,
      "velocity": 90,
      "chip": "ym2612"
    },
    {
      "channel": 3,
      "note": 73,
      "start": 1.6799,
      "duration": 0.2891,
      "velocity": 103,
      "chip": "ym2612"
    },
    {
      "channel": 4,
      "note": 81,
      "start": 1.6805,
      "duration": 0.0157,
      "velocity": 127,
      "chip": "ym2612"
    },
    {
      "channel": 0,
      "note": 57,
      "start": 1.695,
      "duration": 0.0105,
      "velocity": 111,
      "chip": "ym2612"
    },
    {
      "channel": 2,
      "note": 74,
      "start": 1.6958,
      "duration": 0.0101,
      "velocity": 90,
      "chip": "ym2612"
    },
    {
      "channel": 0,
      "note": 58,
      "start": 1.7105,
      "duration": 0.0109,
      "velocity": 111,
      "chip": "ym2612"
    },
    {
      "channel": 2,
      "note": 75,
      "start": 1.7113,
      "duration": 0.0104,
      "velocity": 90,
      "chip": "ym2612"
    },
    {
      "channel": 4,
      "note": 81,
      "start": 1.7121,
      "duration": 0.0077,
      "velocity": 127,
      "chip": "ym2612"
    },
    {
      "channel": 0,
      "note": 59,
      "start": 1.7243,
      "duration": 0.2068,
      "velocity": 111,
      "chip": "ym2612"
    },
    {
      "channel": 2,
      "note": 80,
      "start": 1.7251,
      "duration": 0.2063,
      "velocity": 90,
      "chip": "ym2612"
    },
    {
      "channel": 4,
      "note": 81,
      "start": 1.7263,
      "duration": 0.038,
      "velocity": 127,
      "chip": "ym2612"
    },
    {
      "channel": 4,
      "note": 81,
      "start": 1.8653,
      "duration": 0.0498,
      "velocity": 127,
      "chip": "ym2612"
    },
    {
      "channel": 4,
      "note": 81,
      "start": 1.9673,
      "duration": 0.0106,
      "velocity": 127,
      "chip": "ym2612"
    },
    {
      "channel": 4,
      "note": 81,
      "start": 2.0348,
      "duration": 0.0331,
      "velocity": 127,
      "chip": "ym2612"
    },
    {
      "channel": 0,
      "note": 49,
      "start": 2.118,
      "duration": 0.2678,
      "velocity": 111,
      "chip": "ym2612"
    },
    {
      "channel": 1,
      "note": 85,
      "start": 2.1187,
      "duration": 0.2002,
      "velocity": 103,
      "chip": "ym2612"
    },
    {
      "channel": 2,
      "note": 92,
      "start": 2.1193,
      "duration": 0.183,
      "velocity": 103,
      "chip": "ym2612"
    },
    {
      "channel": 4,
      "note": 81,
      "start": 2.1201,
      "duration": 0.0994,
      "velocity": 127,
      "chip": "ym2612"
    },
    {
      "channel": 3,
      "note": 85,
      "start": 2.2193,
      "duration": 0.2018,
      "velocity": 103,
      "chip": "ym2612"
    },
    {
      "channel": 4,
      "note": 81,
      "start": 2.3201,
      "duration": 0.0496,
      "velocity": 127,
      "chip": "ym2612"
    },
    {
      "channel": 0,
      "note": 49,
      "start": 2.4197,
      "duration": 0.0252,
      "velocity": 111,
      "chip": "ym2612"
    },
    {
      "channel": 1,
      "note": 85,
      "start": 2.4203,
      "duration": 0.0186,
      "velocity": 103,
      "chip": "ym2612"
    },
    {
      "channel": 2,
      "note": 92,
      "start": 2.4209,
      "duration": 0.0243,
      "velocity": 103,
      "chip": "ym2612"
    },
    {
      "channel": 4,
      "note": 81,
      "start": 2.4218,
      "duration": 0.0145,
      "velocity": 127,
      "chip": "ym2612"
    },
    {
      "channel": 3,
      "note": 85,
      "start": 2.4361,
      "duration": 0.0197,
      "velocity": 103,
      "chip": "ym2612"
    },
    {
      "channel": 0,
      "note": 49,
      "start": 2.4477,
      "duration": 0.3382,
      "velocity": 111,
      "chip": "ym2612"
    },
    {
      "channel": 1,
      "note": 85,
      "start": 2.4484,
      "duration": 0.0528,
      "velocity": 103,
      "chip": "ym2612"
    },
    {
      "channel": 2,
      "note": 92,
      "start": 2.4489,
      "duration": 0.0524,
      "velocity": 103,
      "chip": "ym2612"
    },
    {
      "channel": 4,
      "note": 81,
      "start": 2.4509,
      "duration": 0.0174,
      "velocity": 119,
      "chip": "ym2612"
    },
    {
      "channel": 3,
      "note": 85,
      "start": 2.5191,
      "duration": 0.0828,
      "velocity": 103,
      "chip": "ym2612"
    },
    {
      "channel": 4,
      "note": 81,
      "start": 2.5208,
      "duration": 0.0983,
      "velocity": 127,
      "chip": "ym2612"
    },
    {
      "channel": 4,
      "note": 81,
      "start": 2.7198,
      "duration": 0.0498,
      "velocity": 127,
      "chip": "ym2612"
    },
    {
      "channel": 0,
      "note": 59,
      "start": 2.8199,
      "duration": 0.1354,
      "velocity": 111,
      "chip": "ym2612"
    },
    {
      "channel": 1,
      "note": 83,
      "start": 2.8205,
      "duration": 0.0512,
      "velocity": 103,
      "chip": "ym2612"
    },
    {
      "channel": 2,
      "note": 92,
      "start": 2.8211,
      "duration": 0.1346,
      "velocity": 103,
      "chip": "ym2612"
    },
    {
      "channel": 4,
      "note": 81,
      "start": 2.8219,
      "duration": 0.0122,
      "velocity": 127,
      "chip": "ym2612"
    },
    {
      "channel": 3,
      "note": 83,
      "start": 2.8339,
      "duration": 0.1407,
      "velocity": 103,
      "chip": "ym2612"
    },
    {
      "channel": 4,
      "note": 81,
      "start": 2.8727,
      "duration": 0.0499,
      "velocity": 127,
      "chip": "ym2612"
    },
    {
      "channel": 2,
      "note": 80,
      "start": 2.9744,
      "duration": 0.0817,
      "velocity": 90,
      "chip": "ym2612"
    },
    {
      "channel": 4,
      "note": 81,
      "start": 2.9752,
      "duration": 0.0987,
      "velocity": 127,
      "chip": "ym2612"
    },
    {
      "channel": 2,
      "note": 83,
      "start": 3.0733,
      "duration": 0.0665,
      "velocity": 90,
      "chip": "ym2612"
    },
    {
      "channel": 2,
      "note": 85,
      "start": 3.1738,
      "duration": 0.0666,
      "velocity": 90,
      "chip": "ym2612"
    },
    {
      "channel": 4,
      "note": 81,
      "start": 3.1745,
      "duration": 0.0494,
      "velocity": 127,
      "chip": "ym2612"
    },
    {
      "channel": 2,
      "note": 73,
      "start": 3.2748,
      "duration": 0.0307,
      "velocity": 90,
      "chip": "ym2612"
    },
    {
      "channel": 4,
      "note": 81,
      "start": 3.2755,
      "duration": 0.009,
      "velocity": 127,
      "chip": "ym2612"
    },
    {
      "channel": 1,
      "note": 78,
      "start": 3.2952,
      "duration": 0.0101,
      "velocity": 103,
      "chip": "ym2612"
    },
    {
      "channel": 4,
      "note": 81,
      "start": 3.2961,
      "duration": 0.0063,
      "velocity": 127,
      "chip": "ym2612"
    },
    {
      "channel": 1,
      "note": 80,
      "start": 3.3081,
      "duration": 0.0728,
      "velocity": 103,
      "chip": "ym2612"
    },
    {
      "channel": 3,
      "note": 78,
      "start": 3.3091,
      "duration": 0.0218,
      "velocity": 103,
      "chip": "ym2612"
    },
    {
      "channel": 4,
      "note": 81,
      "start": 3.31,
      "duration": 0.0552,
      "velocity": 127,
      "chip": "ym2612"
    },
    {
      "channel": 3,
      "note": 80,
      "start": 3.365,
      "duration": 0.1169,
      "velocity": 103,
      "chip": "ym2612"
    },
    {
      "channel": 1,
      "note": 82,
      "start": 3.4657,
      "duration": 0.0662,
      "velocity": 103,
      "chip": "ym2612"
    },
    {
      "channel": 4,
      "note": 81,
      "start": 3.4666,
      "duration": 0.0495,
      "velocity": 127,
      "chip": "ym2612"
    },
    {
      "channel": 0,
      "note": 61,
      "start": 3.5662,
      "duration": 0.0354,
      "velocity": 111,
      "chip": "ym2612"
    },
    {
      "channel": 1,
      "note": 83,
      "start": 3.5668,
      "duration": 0.0179,
      "velocity": 103,
      "chip": "ym2612"
    },
    {
      "channel": 3,
      "note": 82,
      "start": 3.568,
      "duration": 0.0104,
      "velocity": 103,
      "chip": "ym2612"
    },
    {
      "channel": 4,
      "note": 81,
      "start": 3.5688,
      "duration": 0.0121,
      "velocity": 127,
      "chip": "ym2612"
    },
    {
      "channel": 3,
      "note": 83,
      "start": 3.5807,
      "duration": 0.0717,
      "velocity": 103,
      "chip": "ym2612"
    },
    {
      "channel": 0,
      "note": 49,
      "start": 3.6188,
      "duration": 0.0833,
      "velocity": 111,
      "chip": "ym2612"
    },
    {
      "channel": 1,
      "note": 83,
      "start": 3.6194,
      "duration": 0.0829,
      "velocity": 103,
      "chip": "ym2612"
    },
    {
      "channel": 2,
      "note": 73,
      "start": 3.62,
      "duration": 0.0826,
      "velocity": 90,
      "chip": "ym2612"
    },
    {
      "channel": 4,
      "note": 81,
      "start": 3.6208,
      "duration": 0.0486,
      "velocity": 127,
      "chip": "ym2612"
    },
    {
      "channel": 0,
      "note": 54,
      "start": 3.7193,
      "duration": 0.1672,
      "velocity": 111,
      "chip": "ym2612"
    },
    {
      "channel": 1,
      "note": 82,
      "start": 3.7199,
      "duration": 0.15,
      "velocity": 103,
      "chip": "ym2612"
    },
    {
      "channel": 2,
      "note": 83,
      "start": 3.7206,
      "duration": 0.1663,
      "velocity": 90,
      "chip": "ym2612"
    },
    {
      "channel": 3,
      "note": 83,
      "start": 3.7213,
      "duration": 0.0652,
      "velocity": 103,
      "chip": "ym2612"
    },
    {
      "channel": 4,
      "note": 81,
      "start": 3.7218,
      "duration": 0.0989,
      "velocity": 127,
      "chip": "ym2612"
    },
    {
      "channel": 3,
      "note": 82,
      "start": 3.8206,
      "duration": 0.1503,
      "velocity": 103,
      "chip": "ym2612"
    },
    {
      "channel": 0,
      "note": 55,
      "start": 3.9204,
      "duration": 0.0667,
      "velocity": 111,
      "chip": "ym2612"
    },
    {
      "channel": 2,
      "note": 73,
      "start": 3.9213,
      "duration": 0.0662,
      "velocity": 90,
      "chip": "ym2612"
    },
    {
      "channel": 4,
      "note": 81,
      "start": 3.9221,
      "duration": 0.0492,
      "velocity": 127,
      "chip": "ym2612"
    },
    {
      "channel": 0,
      "note": 56,
      "start": 4.0043,
      "duration": 0.0267,
      "velocity": 111,
      "chip": "ym2612"
    },
    {
      "channel": 1,
      "note": 80,
      "start": 4.0049,
      "duration": 0.022,
      "velocity": 103,
      "chip": "ym2612"
    },
    {
      "channel": 2,
      "note": 80,
      "start": 4.0056,
      "duration": 0.0258,
      "velocity": 90,
      "chip": "ym2612"
    },
    {
      "channel": 4,
      "note": 81,
      "start": 4.0063,
      "duration": 0.0144,
      "velocity": 127,
      "chip": "ym2612"
    },
    {
      "channel": 3,
      "note": 80,
      "start": 4.0206,
      "duration": 0.0474,
      "velocity": 103,
      "chip": "ym2612"
    },
    {
      "channel": 0,
      "note": 59,
      "start": 4.0336,
      "duration": 0.3523,
      "velocity": 111,
      "chip": "ym2612"
    },
    {
      "channel": 2,
      "note": 73,
      "start": 4.0343,
      "duration": 0.0502,
      "velocity": 90,
      "chip": "ym2612"
    },
    {
      "channel": 4,
      "note": 81,
      "start": 4.0362,
      "duration": 0.032,
      "velocity": 119,
      "chip": "ym2612"
    },
    {
      "channel": 1,
      "note": 78,
      "start": 4.1183,
      "duration": 0.1504,
      "velocity": 103,
      "chip": "ym2612"
    },
    {
      "channel": 2,
      "note": 61,
      "start": 4.1189,
      "duration": 0.1667,
      "velocity": 90,
      "chip": "ym2612"
    },
    {
      "channel": 4,
      "note": 81,
      "start": 4.1207,
      "duration": 0.0987,
      "velocity": 127,
      "chip": "ym2612"
    },
    {
      "channel": 3,
      "note": 78,
      "start": 4.2193,
      "duration": 0.1336,
      "velocity": 103,
      "chip": "ym2612"
    },
    {
      "channel": 2,
      "note": 78,
      "start": 4.3197,
      "duration": 0.0666,
      "velocity": 90,
      "chip": "ym2612"
    },
    {
      "channel": 4,
      "note": 81,
      "start": 4.3205,
      "duration": 0.0326,
      "velocity": 127,
      "chip": "ym2612"
    },
    {
      "channel": 0,
      "note": 61,
      "start": 4.403,
      "duration": 0.0513,
      "velocity": 111,
      "chip": "ym2612"
    },
    {
      "channel": 1,
      "note": 90,
      "start": 4.4037,
      "duration": 0.0221,
      "velocity": 103,
      "chip": "ym2612"
    },
    {
      "channel": 2,
      "note": 71,
      "start": 4.4043,
      "duration": 0.0503,
      "velocity": 90,
      "chip": "ym2612"
    },
    {
      "channel": 4,
      "note": 81,
      "start": 4.4052,
      "duration": 0.0148,
      "velocity": 127,
      "chip": "ym2612"
    },
    {
      "channel": 3,
      "note": 90,
      "start": 4.4198,
      "duration": 0.102,
      "velocity": 103,
      "chip": "ym2612"
    },
    {
      "channel": 0,
      "note": 49,
      "start": 4.4714,
      "duration": 0.0666,
      "velocity": 111,
      "chip": "ym2612"
    },
    {
      "channel": 1,
      "note": 89,
      "start": 4.4721,
      "duration": 0.0662,
      "velocity": 103,
      "chip": "ym2612"
    },
    {
      "channel": 2,
      "note": 71,
      "start": 4.4727,
      "duration": 0.0658,
      "velocity": 90,
      "chip": "ym2612"
    },
    {
      "channel": 4,
      "note": 81,
      "start": 4.4735,
      "duration": 0.0487,
      "velocity": 127,
      "chip": "ym2612"
    },
    {
      "channel": 0,
      "note": 54,
      "start": 4.572,
      "duration": 0.1671,
      "velocity": 111,
      "chip": "ym2612"
    },
    {
      "channel": 1,
      "note": 87,
      "start": 4.5725,
      "duration": 0.1499,
      "velocity": 103,
      "chip": "ym2612"
    },
    {
      "channel": 2,
      "note": 78,
      "start": 4.5732,
      "duration": 0.1663,
      "velocity": 90,
      "chip": "ym2612"
    },
    {
      "channel": 3,
      "note": 89,
      "start": 4.5739,
      "duration": 0.0653,
      "velocity": 103,
      "chip": "ym2612"
    },
    {
      "channel": 4,
      "note": 81,
      "start": 4.5744,
      "duration": 0.0989,
      "velocity": 127,
      "chip": "ym2612"
    },
    {
      "channel": 3,
      "note": 87,
      "start": 4.6731,
      "duration": 0.0926,
      "velocity": 103,
      "chip": "ym2612"
    },
    {
      "channel": 0,
      "note": 55,
      "start": 4.7562,
      "duration": 0.0132,
      "velocity": 111,
      "chip": "ym2612"
    },
    {
      "channel": 1,
      "note": 89,
      "start": 4.7569,
      "duration": 0.0128,
      "velocity": 103,
      "chip": "ym2612"
    },
    {
      "channel": 2,
      "note": 71,
      "start": 4.7574,
      "duration": 0.0124,
      "velocity": 90,
      "chip": "ym2612"
    },
    {
      "channel": 4,
      "note": 81,
      "start": 4.7583,
      "duration": 0.0078,
      "velocity": 127,
      "chip": "ym2612"
    },
    {
      "channel": 0,
      "note": 56,
      "start": 4.7728,
      "duration": 0.0124,
      "velocity": 111,
      "chip": "ym2612"
    },
    {
      "channel": 2,
      "note": 73,
      "start": 4.7737,
      "duration": 0.0226,
      "velocity": 90,
      "chip": "ym2612"
    },
    {
      "channel": 3,
      "note": 89,
      "start": 4.7744,
      "duration": 0.0113,
      "velocity": 103,
      "chip": "ym2612"
    },
    {
      "channel": 4,
      "note": 81,
      "start": 4.775,
      "duration": 0.0134,
      "velocity": 127,
      "chip": "ym2612"
    },
    {
      "channel": 0,
      "note": 57,
      "start": 4.7876,
      "duration": 0.0085,
      "velocity": 111,
      "chip": "ym2612"
    },
    {
      "channel": 0,
      "note": 58,
      "start": 4.8004,
      "duration": 0.0105,
      "velocity": 111,
      "chip": "ym2612"
    },
    {
      "channel": 1,
      "note": 89,
      "start": 4.801,
      "duration": 0.0101,
      "velocity": 103,
      "chip": "ym2612"
    },
    {
      "channel": 2,
      "note": 73,
      "start": 4.8016,
      "duration": 0.0097,
      "velocity": 90,
      "chip": "ym2612"
    },
    {
      "channel": 4,
      "note": 81,
      "start": 4.8023,
      "duration": 0.0071,
      "velocity": 127,
      "chip": "ym2612"
    },
    {
      "channel": 0,
      "note": 59,
      "start": 4.8154,
      "duration": 0.2216,
      "velocity": 111,
      "chip": "ym2612"
    },
    {
      "channel": 1,
      "note": 85,
      "start": 4.8162,
      "duration": 0.4744,
      "velocity": 103,
      "chip": "ym2612"
    },
    {
      "channel": 2,
      "note": 73,
      "start": 4.8168,
      "duration": 0.221,
      "velocity": 90,
      "chip": "ym2612"
    },
    {
      "channel": 3,
      "note": 89,
      "start": 4.8178,
      "duration": 0.0187,
      "velocity": 103,
      "chip": "ym2612"
    },
    {
      "channel": 4,
      "note": 81,
      "start": 4.8184,
      "duration": 0.0528,
      "velocity": 127,
      "chip": "ym2612"
    },
    {
      "channel": 3,
      "note": 85,
      "start": 4.871,
      "duration": 0.5206,
      "velocity": 103,
      "chip": "ym2612"
    },
    {
      "channel": 4,
      "note": 81,
      "start": 4.9548,
      "duration": 0.0499,
      "velocity": 127,
      "chip": "ym2612"
    },
    {
      "channel": 0,
      "note": 61,
      "start": 5.0546,
      "duration": 0.0348,
      "velocity": 111,
      "chip": "ym2612"
    },
    {
      "channel": 2,
      "note": 73,
      "start": 5.0566,
      "duration": 0.0167,
      "velocity": 87,
      "chip": "ym2612"
    },
    {
      "channel": 4,
      "note": 81,
      "start": 5.0574,
      "duration": 0.0136,
      "velocity": 127,
      "chip": "ym2612"
    },
    {
      "channel": 0,
      "note": 49,
      "start": 5.1233,
      "duration": 0.0666,
      "velocity": 111,
      "chip": "ym2612"
    },
    {
      "channel": 2,
      "note": 61,
      "start": 5.1242,
      "duration": 0.0662,
      "velocity": 87,
      "chip": "ym2612"
    },
    {
      "channel": 4,
      "note": 81,
      "start": 5.125,
      "duration": 0.0488,
      "velocity": 127,
      "chip": "ym2612"
    },
    {
      "channel": 0,
      "note": 54,
      "start": 5.2238,
      "duration": 0.1672,
      "velocity": 111,
      "chip": "ym2612"
    },
    {
      "channel": 2,
      "note": 66,
      "start": 5.2246,
      "duration": 0.1165,
      "velocity": 87,
      "chip": "ym2612"
    },
    {
      "channel": 4,
      "note": 81,
      "start": 5.2253,
      "duration": 0.0826,
      "velocity": 127,
      "chip": "ym2612"
    },
    {
      "channel": 0,
      "note": 55,
      "start": 5.4081,
      "duration": 0.0834,
      "velocity": 111,
      "chip": "ym2612"
    },
    {
      "channel": 2,
      "note": 67,
      "start": 5.4088,
      "duration": 0.083,
      "velocity": 87,
      "chip": "ym2612"
    },
    {
      "channel": 4,
      "note": 81,
      "start": 5.4097,
      "duration": 0.049,
      "velocity": 127,
      "chip": "ym2612"
    },
    {
      "channel": 0,
      "note": 56,
      "start": 5.5087,
      "duration": 0.0238,
      "velocity": 111,
      "chip": "ym2612"
    },
    {
      "channel": 2,
      "note": 68,
      "start": 5.5096,
      "duration": 0.0173,
      "velocity": 87,
      "chip": "ym2612"
    },
    {
      "channel": 4,
      "note": 81,
      "start": 5.5104,
      "duration": 0.0144,
      "velocity": 127,
      "chip": "ym2612"
    },
    {
      "channel": 0,
      "note": 59,
      "start": 5.537,
      "duration": 0.3538,
      "velocity": 111,
      "chip": "ym2612"
    },
    {
      "channel": 2,
      "note": 71,
      "start": 5.5377,
      "duration": 0.2025,
      "velocity": 87,
      "chip": "ym2612"
    },
    {
      "channel": 4,
      "note": 81,
      "start": 5.5395,
      "duration": 0.0334,
      "velocity": 119,
      "chip": "ym2612"
    },
    {
      "channel": 4,
      "note": 81,
      "start": 5.625,
      "duration": 0.0822,
      "velocity": 127,
      "chip": "ym2612"
    },
    {
      "channel": 4,
      "note": 81,
      "start": 5.808,
      "duration": 0.0499,
      "velocity": 127,
      "chip": "ym2612"
    },
    {
      "channel": 0,
      "note": 61,
      "start": 5.908,
      "duration": 0.0352,
      "velocity": 111,
      "chip": "ym2612"
    },
    {
      "channel": 1,
      "note": 95,
      "start": 5.9087,
      "duration": 0.0686,
      "velocity": 103,
      "chip": "ym2612"
    },
    {
      "channel": 2,
      "note": 104,
      "start": 5.9105,
      "duration": 0.0834,
      "velocity": 103,
      "chip": "ym2612"
    },
    {
      "channel": 4,
      "note": 81,
      "start": 5.9113,
      "duration": 0.0136,
      "velocity": 127,
      "chip": "ym2612"
    },
    {
      "channel": 3,
      "note": 95,
      "start": 5.9247,
      "duration": 0.1368,
      "velocity": 103,
      "chip": "ym2612"
    },
    {
      "channel": 0,
      "note": 61,
      "start": 5.9771,
      "duration": 0.0666,
      "velocity": 111,
      "chip": "ym2612"
    },
    {
      "channel": 4,
      "note": 81,
      "start": 5.9783,
      "duration": 0.0495,
      "velocity": 127,
      "chip": "ym2612"
    },
    {
      "channel": 4,
      "note": 81,
      "start": 6.0622,
      "duration": 0.0995,
      "velocity": 127,
      "chip": "ym2612"
    },
    {
      "channel": 4,
      "note": 81,
      "start": 6.2624,
      "duration": 0.0046,
      "velocity": 127,
      "chip": "ym2612"
    },
    {
      "channel": 0,
      "note": 73,
      "start": 6.2717,
      "duration": 0.0066,
      "velocity": 111,
      "chip": "ym2612"
    },
    {
      "channel": 4,
      "note": 81,
      "start": 6.2731,
      "duration": 0.0088,
      "velocity": 127,
      "chip": "ym2612"
    },
    {
      "channel": 1,
      "note": 78,
      "start": 6.2921,
      "duration": 0.0076,
      "velocity": 103,
      "chip": "ym2612"
    },
    {
      "channel": 4,
      "note": 81,
      "start": 6.2929,
      "duration": 0.0041,
      "velocity": 127,
      "chip": "ym2612"
    },
    {
      "channel": 1,
      "note": 80,
      "start": 6.3023,
      "duration": 0.0746,
      "velocity": 103,
      "chip": "ym2612"
    },
    {
      "channel": 3,
      "note": 78,
      "start": 6.3037,
      "duration": 0.0232,
      "velocity": 103,
      "chip": "ym2612"
    },
    {
      "channel": 4,
      "note": 81,
      "start": 6.3043,
      "duration": 0.04,
      "velocity": 127,
      "chip": "ym2612"
    },
    {
      "channel": 3,
      "note": 80,
      "start": 6.3441,
      "duration": 0.1168,
      "velocity": 103,
      "chip": "ym2612"
    },
    {
      "channel": 1,
      "note": 82,
      "start": 6.4447,
      "duration": 0.0663,
      "velocity": 103,
      "chip": "ym2612"
    },
    {
      "channel": 4,
      "note": 81,
      "start": 6.4457,
      "duration": 0.0495,
      "velocity": 127,
      "chip": "ym2612"
    },
    {
      "channel": 0,
      "note": 61,
      "start": 6.5453,
      "duration": 0.0351,
      "velocity": 111,
      "chip": "ym2612"
    },
    {
      "channel": 1,
      "note": 83,
      "start": 6.5461,
      "duration": 0.0195,
      "velocity": 103,
      "chip": "ym2612"
    },
    {
      "channel": 3,
      "note": 82,
      "start": 6.5482,
      "duration": 0.0103,
      "velocity": 103,
      "chip": "ym2612"
    },
    {
      "channel": 4,
      "note": 81,
      "start": 6.5489,
      "duration": 0.0143,
      "velocity": 127,
      "chip": "ym2612"
    },
    {
      "channel": 3,
      "note": 83,
      "start": 6.563,
      "duration": 0.0682,
      "velocity": 103,
      "chip": "ym2612"
    },
    {
      "channel": 0,
      "note": 49,
      "start": 6.5976,
      "duration": 0.0834,
      "velocity": 111,
      "chip": "ym2612"
    },
    {
      "channel": 1,
      "note": 83,
      "start": 6.5982,
      "duration": 0.0829,
      "velocity": 103,
      "chip": "ym2612"
    },
    {
      "channel": 2,
      "note": 73,
      "start": 6.5988,
      "duration": 0.0826,
      "velocity": 90,
      "chip": "ym2612"
    },
    {
      "channel": 4,
      "note": 81,
      "start": 6.5996,
      "duration": 0.0487,
      "velocity": 127,
      "chip": "ym2612"
    },
    {
      "channel": 0,
      "note": 54,
      "start": 6.6981,
      "duration": 0.1672,
      "velocity": 111,
      "chip": "ym2612"
    },
    {
      "channel": 1,
      "note": 82,
      "start": 6.6988,
      "duration": 0.1499,
      "velocity": 103,
      "chip": "ym2612"
    },
    {
      "channel": 2,
      "note": 83,
      "start": 6.6994,
      "duration": 0.1496,
      "velocity": 90,
      "chip": "ym2612"
    },
    {
      "channel": 3,
      "note": 83,
      "start": 6.7001,
      "duration": 0.0819,
      "velocity": 103,
      "chip": "ym2612"
    },
    {
      "channel": 4,
      "note": 81,
      "start": 6.7007,
      "duration": 0.0989,
      "velocity": 127,
      "chip": "ym2612"
    },
    {
      "channel": 3,
      "note": 82,
      "start": 6.7994,
      "duration": 0.1502,
      "velocity": 103,
      "chip": "ym2612"
    },
    {
      "channel": 0,
      "note": 55,
      "start": 6.8992,
      "duration": 0.0666,
      "velocity": 111,
      "chip": "ym2612"
    },
    {
      "channel": 2,
      "note": 73,
      "start": 6.9,
      "duration": 0.0662,
      "velocity": 90,
      "chip": "ym2612"
    },
    {
      "channel": 4,
      "note": 81,
      "start": 6.9009,
      "duration": 0.0491,
      "velocity": 127,
      "chip": "ym2612"
    },
    {
      "channel": 0,
      "note": 56,
      "start": 6.9997,
      "duration": 0.026,
      "velocity": 111,
      "chip": "ym2612"
    },
    {
      "channel": 1,
      "note": 80,
      "start": 7.0004,
      "duration": 0.0208,
      "velocity": 103,
      "chip": "ym2612"
    },
    {
      "channel": 2,
      "note": 80,
      "start": 7.001,
      "duration": 0.0204,
      "velocity": 90,
      "chip": "ym2612"
    },
    {
      "channel": 4,
      "note": 81,
      "start": 7.0018,
      "duration": 0.0146,
      "velocity": 127,
      "chip": "ym2612"
    },
    {
      "channel": 3,
      "note": 80,
      "start": 7.0163,
      "duration": 0.0322,
      "velocity": 103,
      "chip": "ym2612"
    },
    {
      "channel": 0,
      "note": 59,
      "start": 7.0285,
      "duration": 0.3379,
      "velocity": 111,
      "chip": "ym2612"
    },
    {
      "channel": 2,
      "note": 73,
      "start": 7.0293,
      "duration": 0.0524,
      "velocity": 90,
      "chip": "ym2612"
    },
    {
      "channel": 4,
      "note": 81,
      "start": 7.0312,
      "duration": 0.0176,
      "velocity": 119,
      "chip": "ym2612"
    },
    {
      "channel": 1,
      "note": 78,
      "start": 7.0988,
      "duration": 0.1504,
      "velocity": 103,
      "chip": "ym2612"
    },
    {
      "channel": 2,
      "note": 61,
      "start": 7.0995,
      "duration": 0.1501,
      "velocity": 90,
      "chip": "ym2612"
    },
    {
      "channel": 4,
      "note": 81,
      "start": 7.1014,
      "duration": 0.0987,
      "velocity": 127,
      "chip": "ym2612"
    },
    {
      "channel": 3,
      "note": 78,
      "start": 7.1998,
      "duration": 0.1503,
      "velocity": 103,
      "chip": "ym2612"
    },
    {
      "channel": 2,
      "note": 78,
      "start": 7.3002,
      "duration": 0.0666,
      "velocity": 90,
      "chip": "ym2612"
    },
    {
      "channel": 4,
      "note": 81,
      "start": 7.301,
      "duration": 0.0495,
      "velocity": 127,
      "chip": "ym2612"
    },
    {
      "channel": 0,
      "note": 61,
      "start": 7.4003,
      "duration": 0.0341,
      "velocity": 111,
      "chip": "ym2612"
    },
    {
      "channel": 1,
      "note": 77,
      "start": 7.401,
      "duration": 0.0197,
      "velocity": 103,
      "chip": "ym2612"
    },
    {
      "channel": 2,
      "note": 83,
      "start": 7.4017,
      "duration": 0.0193,
      "velocity": 90,
      "chip": "ym2612"
    },
    {
      "channel": 4,
      "note": 81,
      "start": 7.4025,
      "duration": 0.0115,
      "velocity": 127,
      "chip": "ym2612"
    },
    {
      "channel": 3,
      "note": 77,
      "start": 7.4139,
      "duration": 0.0881,
      "velocity": 103,
      "chip": "ym2612"
    },
    {
      "channel": 0,
      "note": 49,
      "start": 7.4516,
      "duration": 0.0834,
      "velocity": 111,
      "chip": "ym2612"
    },
    {
      "channel": 1,
      "note": 78,
      "start": 7.4522,
      "duration": 0.0829,
      "velocity": 103,
      "chip": "ym2612"
    },
    {
      "channel": 2,
      "note": 73,
      "start": 7.4529,
      "duration": 0.0825,
      "velocity": 90,
      "chip": "ym2612"
    },
    {
      "channel": 4,
      "note": 81,
      "start": 7.4537,
      "duration": 0.0487,
      "velocity": 127,
      "chip": "ym2612"
    },
    {
      "channel": 0,
      "note": 54,
      "start": 7.5521,
      "duration": 0.1672,
      "velocity": 111,
      "chip": "ym2612"
    },
    {
      "channel": 1,
      "note": 80,
      "start": 7.5527,
      "duration": 0.15,
      "velocity": 103,
      "chip": "ym2612"
    },
    {
      "channel": 2,
      "note": 80,
      "start": 7.5534,
      "duration": 0.1497,
      "velocity": 90,
      "chip": "ym2612"
    },
    {
      "channel": 3,
      "note": 78,
      "start": 7.554,
      "duration": 0.0653,
      "velocity": 103,
      "chip": "ym2612"
    },
    {
      "channel": 4,
      "note": 81,
      "start": 7.5546,
      "duration": 0.0989,
      "velocity": 127,
      "chip": "ym2612"
    },
    {
      "channel": 3,
      "note": 80,
      "start": 7.6534,
      "duration": 0.109,
      "velocity": 103,
      "chip": "ym2612"
    },
    {
      "channel": 0,
      "note": 55,
      "start": 7.7532,
      "duration": 0.0111,
      "velocity": 111,
      "chip": "ym2612"
    },
    {
      "channel": 1,
      "note": 73,
      "start": 7.7539,
      "duration": 0.2315,
      "velocity": 103,
      "chip": "ym2612"
    },
    {
      "channel": 2,
      "note": 73,
      "start": 7.7545,
      "duration": 0.0102,
      "velocity": 90,
      "chip": "ym2612"
    },
    {
      "channel": 4,
      "note": 81,
      "start": 7.7553,
      "duration": 0.0074,
      "velocity": 127,
      "chip": "ym2612"
    },
    {
      "channel": 0,
      "note": 56,
      "start": 7.7693,
      "duration": 0.0122,
      "velocity": 111,
      "chip": "ym2612"
    },
    {
      "channel": 2,
      "note": 73,
      "start": 7.77,
      "duration": 0.0118,
      "velocity": 90,
      "chip": "ym2612"
    },
    {
      "channel": 3,
      "note": 73,
      "start": 7.7708,
      "duration": 0.289,
      "velocity": 103,
      "chip": "ym2612"
    },
    {
      "channel": 4,
      "note": 81,
      "start": 7.7714,
      "duration": 0.0144,
      "velocity": 127,
      "chip": "ym2612"
    },
    {
      "channel": 0,
      "note": 57,
      "start": 7.7846,
      "duration": 0.0122,
      "velocity": 111,
      "chip": "ym2612"
    },
    {
      "channel": 2,
      "note": 74,
      "start": 7.7854,
      "duration": 0.0119,
      "velocity": 90,
      "chip": "ym2612"
    },
    {
      "channel": 0,
      "note": 58,
      "start": 7.7999,
      "duration": 0.0122,
      "velocity": 111,
      "chip": "ym2612"
    },
    {
      "channel": 2,
      "note": 75,
      "start": 7.8008,
      "duration": 0.0117,
      "velocity": 90,
      "chip": "ym2612"
    },
    {
      "channel": 4,
      "note": 81,
      "start": 7.8016,
      "duration": 0.0075,
      "velocity": 127,
      "chip": "ym2612"
    },
    {
      "channel": 0,
      "note": 59,
      "start": 7.8147,
      "duration": 0.2209,
      "velocity": 111,
      "chip": "ym2612"
    },
    {
      "channel": 2,
      "note": 80,
      "start": 7.8154,
      "duration": 0.1702,
      "velocity": 90,
      "chip": "ym2612"
    },
    {
      "channel": 4,
      "note": 81,
      "start": 7.8163,
      "duration": 0.0525,
      "velocity": 127,
      "chip": "ym2612"
    },
    {
      "channel": 4,
      "note": 81,
      "start": 7.9701,
      "duration": 0.0499,
      "velocity": 127,
      "chip": "ym2612"
    },
    {
      "channel": 0,
      "note": 61,
      "start": 8.0531,
      "duration": 0.052,
      "velocity": 111,
      "chip": "ym2612"
    },
    {
      "channel": 4,
      "note": 81,
      "start": 8.0555,
      "duration": 0.0127,
      "velocity": 127,
      "chip": "ym2612"
    },
    {
      "channel": 0,
      "note": 49,
      "start": 8.1223,
      "duration": 0.0666,
      "velocity": 111,
      "chip": "ym2612"
    },
    {
      "channel": 4,
      "note": 81,
      "start": 8.1233,
      "duration": 0.0495,
      "velocity": 127,
      "chip": "ym2612"
    },
    {
      "channel": 0,
      "note": 54,
      "start": 8.2228,
      "duration": 0.1672,
      "velocity": 111,
      "chip": "ym2612"
    },
    {
      "channel": 1,
      "note": 85,
      "start": 8.2234,
      "duration": 0.2006,
      "velocity": 103,
      "chip": "ym2612"
    },
    {
      "channel": 2,
      "note": 80,
      "start": 8.2241,
      "duration": 0.1496,
      "velocity": 87,
      "chip": "ym2612"
    },
    {
      "channel": 4,
      "note": 81,
      "start": 8.2249,
      "duration": 0.0994,
      "velocity": 127,
      "chip": "ym2612"
    },
    {
      "channel": 3,
      "note": 85,
      "start": 8.3241,
      "duration": 0.1851,
      "velocity": 103,
      "chip": "ym2612"
    },
    {
      "channel": 0,
      "note": 55,
      "start": 8.424,
      "duration": 0.0667,
      "velocity": 111,
      "chip": "ym2612"
    },
    {
      "channel": 4,
      "note": 81,
      "start": 8.4254,
      "duration": 0.0324,
      "velocity": 127,
      "chip": "ym2612"
    },
    {
      "channel": 0,
      "note": 56,
      "start": 8.5077,
      "duration": 0.0277,
      "velocity": 111,
      "chip": "ym2612"
    },
    {
      "channel": 1,
      "note": 85,
      "start": 8.5084,
      "duration": 0.0201,
      "velocity": 103,
      "chip": "ym2612"
    },
    {
      "channel": 2,
      "note": 80,
      "start": 8.509,
      "duration": 0.0222,
      "velocity": 87,
      "chip": "ym2612"
    },
    {
      "channel": 4,
      "note": 81,
      "start": 8.5098,
      "duration": 0.0141,
      "velocity": 127,
      "chip": "ym2612"
    },
    {
      "channel": 3,
      "note": 85,
      "start": 8.5237,
      "duration": 0.02,
      "velocity": 103,
      "chip": "ym2612"
    },
    {
      "channel": 0,
      "note": 59,
      "start": 8.5383,
      "duration": 0.3529,
      "velocity": 111,
      "chip": "ym2612"
    },
    {
      "channel": 1,
      "note": 85,
      "start": 8.5389,
      "duration": 0.0508,
      "velocity": 103,
      "chip": "ym2612"
    },
    {
      "channel": 2,
      "note": 80,
      "start": 8.5395,
      "duration": 0.0504,
      "velocity": 87,
      "chip": "ym2612"
    },
    {
      "channel": 4,
      "note": 81,
      "start": 8.5415,
      "duration": 0.0322,
      "velocity": 119,
      "chip": "ym2612"
    },
    {
      "channel": 3,
      "note": 85,
      "start": 8.6244,
      "duration": 0.066,
      "velocity": 103,
      "chip": "ym2612"
    },
    {
      "channel": 4,
      "note": 81,
      "start": 8.6261,
      "duration": 0.0982,
      "velocity": 127,
      "chip": "ym2612"
    },
    {
      "channel": 4,
      "note": 81,
      "start": 8.8083,
      "duration": 0.0499,
      "velocity": 127,
      "chip": "ym2612"
    },
    {
      "channel": 0,
      "note": 61,
      "start": 8.9084,
      "duration": 0.135,
      "velocity": 111,
      "chip": "ym2612"
    },
    {
      "channel": 1,
      "note": 83,
      "start": 8.909,
      "duration": 0.0676,
      "velocity": 103,
      "chip": "ym2612"
    },
    {
      "channel": 2,
      "note": 80,
      "start": 8.9096,
      "duration": 0.084,
      "velocity": 87,
      "chip": "ym2612"
    },
    {
      "channel": 4,
      "note": 81,
      "start": 8.9104,
      "duration": 0.0124,
      "velocity": 127,
      "chip": "ym2612"
    },
    {
      "channel": 3,
      "note": 83,
      "start": 8.9226,
      "duration": 0.1556,
      "velocity": 103,
      "chip": "ym2612"
    },
    {
      "channel": 4,
      "note": 81,
      "start": 8.9777,
      "duration": 0.0499,
      "velocity": 127,
      "chip": "ym2612"
    },
    {
      "channel": 0,
      "note": 49,
      "start": 9.0774,
      "duration": 0.1337,
      "velocity": 111,
      "chip": "ym2612"
    },
    {
      "channel": 4,
      "note": 81,
      "start": 9.0789,
      "duration": 0.0137,
      "velocity": 127,
      "chip": "ym2612"
    },
    {
      "channel": 4,
      "note": 81,
      "start": 9.2295,
      "duration": 0.0083,
      "velocity": 127,
      "chip": "ym2612"
    },
    {
      "channel": 1,
      "note": 78,
      "start": 9.2475,
      "duration": 0.0619,
      "velocity": 103,
      "chip": "ym2612"
    },
    {
      "channel": 4,
      "note": 81,
      "start": 9.2494,
      "duration": 0.0436,
      "velocity": 119,
      "chip": "ym2612"
    },
    {
      "channel": 1,
      "note": 80,
      "start": 9.3436,
      "duration": 0.1166,
      "velocity": 103,
      "chip": "ym2612"
    },
    {
      "channel": 3,
      "note": 78,
      "start": 9.3446,
      "duration": 0.0656,
      "velocity": 103,
      "chip": "ym2612"
    },
    {
      "channel": 4,
      "note": 81,
      "start": 9.3467,
      "duration": 0.081,
      "velocity": 127,
      "chip": "ym2612"
    },
    {
      "channel": 3,
      "note": 80,
      "start": 9.4275,
      "duration": 0.1335,
      "velocity": 103,
      "chip": "ym2612"
    },
    {
      "channel": 1,
      "note": 82,
      "start": 9.5277,
      "duration": 0.0833,
      "velocity": 103,
      "chip": "ym2612"
    },
    {
      "channel": 4,
      "note": 81,
      "start": 9.5288,
      "duration": 0.0492,
      "velocity": 127,
      "chip": "ym2612"
    },
    {
      "channel": 0,
      "note": 61,
      "start": 9.6281,
      "duration": 0.0355,
      "velocity": 111,
      "chip": "ym2612"
    },
    {
      "channel": 1,
      "note": 83,
      "start": 9.6291,
      "duration": 0.0195,
      "velocity": 103,
      "chip": "ym2612"
    },
    {
      "channel": 3,
      "note": 82,
      "start": 9.6314,
      "duration": 0.0101,
      "velocity": 103,
      "chip": "ym2612"
    },
    {
      "channel": 4,
      "note": 81,
      "start": 9.632,
      "duration": 0.0142,
      "velocity": 127,
      "chip": "ym2612"
    },
    {
      "channel": 3,
      "note": 83,
      "start": 9.6461,
      "duration": 0.0683,
      "velocity": 103,
      "chip": "ym2612"
    },
    {
      "channel": 0,
      "note": 49,
      "start": 9.6975,
      "duration": 0.0666,
      "velocity": 111,
      "chip": "ym2612"
    },
    {
      "channel": 1,
      "note": 83,
      "start": 9.6982,
      "duration": 0.0662,
      "velocity": 103,
      "chip": "ym2612"
    },
    {
      "channel": 2,
      "note": 73,
      "start": 9.6988,
      "duration": 0.0658,
      "velocity": 90,
      "chip": "ym2612"
    },
    {
      "channel": 4,
      "note": 81,
      "start": 9.6996,
      "duration": 0.0486,
      "velocity": 127,
      "chip": "ym2612"
    },
    {
      "channel": 0,
      "note": 54,
      "start": 9.798,
      "duration": 0.1672,
      "velocity": 111,
      "chip": "ym2612"
    },
    {
      "channel": 1,
      "note": 82,
      "start": 9.7987,
      "duration": 0.1332,
      "velocity": 103,
      "chip": "ym2612"
    },
    {
      "channel": 2,
      "note": 83,
      "start": 9.7994,
      "duration": 0.1328,
      "velocity": 90,
      "chip": "ym2612"
    },
    {
      "channel": 3,
      "note": 83,
      "start": 9.8,
      "duration": 0.0653,
      "velocity": 103,
      "chip": "ym2612"
    },
    {
      "channel": 4,
      "note": 81,
      "start": 9.8006,
      "duration": 0.0821,
      "velocity": 127,
      "chip": "ym2612"
    },
    {
      "channel": 3,
      "note": 82,
      "start": 9.8826,
      "duration": 0.1503,
      "velocity": 103,
      "chip": "ym2612"
    },
    {
      "channel": 0,
      "note": 55,
      "start": 9.9824,
      "duration": 0.0834,
      "velocity": 111,
      "chip": "ym2612"
    },
    {
      "channel": 2,
      "note": 73,
      "start": 9.9832,
      "duration": 0.083,
      "velocity": 90,
      "chip": "ym2612"
    },
    {
      "channel": 4,
      "note": 81,
      "start": 9.984,
      "duration": 0.0491,
      "velocity": 127,
      "chip": "ym2612"
    },
    {
      "channel": 0,
      "note": 56,
      "start": 10.0829,
      "duration": 0.0265,
      "velocity": 111,
      "chip": "ym2612"
    },
    {
      "channel": 1,
      "note": 80,
      "start": 10.0836,
      "duration": 0.0239,
      "velocity": 103,
      "chip": "ym2612"
    },
    {
      "channel": 2,
      "note": 80,
      "start": 10.0842,
      "duration": 0.0236,
      "velocity": 90,
      "chip": "ym2612"
    },
    {
      "channel": 4,
      "note": 81,
      "start": 10.085,
      "duration": 0.015,
      "velocity": 127,
      "chip": "ym2612"
    },
    {
      "channel": 3,
      "note": 80,
      "start": 10.0998,
      "duration": 0.0488,
      "velocity": 103,
      "chip": "ym2612"
    },
    {
      "channel": 0,
      "note": 59,
      "start": 10.1144,
      "duration": 0.3354,
      "velocity": 111,
      "chip": "ym2612"
    },
    {
      "channel": 2,
      "note": 73,
      "start": 10.1151,
      "duration": 0.0501,
      "velocity": 90,
      "chip": "ym2612"
    },
    {
      "channel": 4,
      "note": 81,
      "start": 10.1171,
      "duration": 0.032,
      "velocity": 119,
      "chip": "ym2612"
    },
    {
      "channel": 1,
      "note": 78,
      "start": 10.1823,
      "duration": 0.1503,
      "velocity": 103,
      "chip": "ym2612"
    },
    {
      "channel": 2,
      "note": 61,
      "start": 10.1829,
      "duration": 0.15,
      "velocity": 90,
      "chip": "ym2612"
    },
    {
      "channel": 4,
      "note": 81,
      "start": 10.1849,
      "duration": 0.0986,
      "velocity": 127,
      "chip": "ym2612"
    },
    {
      "channel": 3,
      "note": 78,
      "start": 10.2833,
      "duration": 0.1504,
      "velocity": 103,
      "chip": "ym2612"
    },
    {
      "channel": 2,
      "note": 78,
      "start": 10.3837,
      "duration": 0.0666,
      "velocity": 90,
      "chip": "ym2612"
    },
    {
      "channel": 4,
      "note": 81,
      "start": 10.3845,
      "duration": 0.0495,
      "velocity": 127,
      "chip": "ym2612"
    },
    {
      "channel": 0,
      "note": 61,
      "start": 10.4837,
      "duration": 0.0353,
      "velocity": 111,
      "chip": "ym2612"
    },
    {
      "channel": 1,
      "note": 90,
      "start": 10.4844,
      "duration": 0.0231,
      "velocity": 103,
      "chip": "ym2612"
    },
    {
      "channel": 2,
      "note": 71,
      "start": 10.4851,
      "duration": 0.0227,
      "velocity": 90,
      "chip": "ym2612"
    },
    {
      "channel": 4,
      "note": 81,
      "start": 10.4859,
      "duration": 0.0154,
      "velocity": 127,
      "chip": "ym2612"
    },
    {
      "channel": 3,
      "note": 90,
      "start": 10.5012,
      "duration": 0.0854,
      "velocity": 103,
      "chip": "ym2612"
    },
    {
      "channel": 0,
      "note": 49,
      "start": 10.553,
      "duration": 0.0666,
      "velocity": 111,
      "chip": "ym2612"
    },
    {
      "channel": 1,
      "note": 89,
      "start": 10.5536,
      "duration": 0.0662,
      "velocity": 103,
      "chip": "ym2612"
    },
    {
      "channel": 2,
      "note": 71,
      "start": 10.5542,
      "duration": 0.0658,
      "velocity": 90,
      "chip": "ym2612"
    },
    {
      "channel": 4,
      "note": 81,
      "start": 10.555,
      "duration": 0.0318,
      "velocity": 127,
      "chip": "ym2612"
    },
    {
      "channel": 0,
      "note": 54,
      "start": 10.6368,
      "duration": 0.184,
      "velocity": 111,
      "chip": "ym2612"
    },
    {
      "channel": 1,
      "note": 87,
      "start": 10.6373,
      "duration": 0.1501,
      "velocity": 103,
      "chip": "ym2612"
    },
    {
      "channel": 2,
      "note": 78,
      "start": 10.638,
      "duration": 0.1497,
      "velocity": 90,
      "chip": "ym2612"
    },
    {
      "channel": 3,
      "note": 89,
      "start": 10.6387,
      "duration": 0.082,
      "velocity": 103,
      "chip": "ym2612"
    },
    {
      "channel": 4,
      "note": 81,
      "start": 10.6393,
      "duration": 0.0989,
      "velocity": 127,
      "chip": "ym2612"
    },
    {
      "channel": 3,
      "note": 87,
      "start": 10.738,
      "duration": 0.1089,
      "velocity": 103,
      "chip": "ym2612"
    },
    {
      "channel": 0,
      "note": 55,
      "start": 10.8379,
      "duration": 0.011,
      "velocity": 111,
      "chip": "ym2612"
    },
    {
      "channel": 1,
      "note": 89,
      "start": 10.8385,
      "duration": 0.0106,
      "velocity": 103,
      "chip": "ym2612"
    },
    {
      "channel": 2,
      "note": 71,
      "start": 10.8391,
      "duration": 0.0101,
      "velocity": 90,
      "chip": "ym2612"
    },
    {
      "channel": 4,
      "note": 81,
      "start": 10.84,
      "duration": 0.0072,
      "velocity": 127,
      "chip": "ym2612"
    },
    {
      "channel": 0,
      "note": 56,
      "start": 10.8544,
      "duration": 0.011,
      "velocity": 111,
      "chip": "ym2612"
    },
    {
      "channel": 2,
      "note": 73,
      "start": 10.8553,
      "duration": 0.0214,
      "velocity": 90,
      "chip": "ym2612"
    },
    {
      "channel": 3,
      "note": 89,
      "start": 10.8559,
      "duration": 0.0098,
      "velocity": 103,
      "chip": "ym2612"
    },
    {
      "channel": 4,
      "note": 81,
      "start": 10.8566,
      "duration": 0.0145,
      "velocity": 127,
      "chip": "ym2612"
    },
    {
      "channel": 0,
      "note": 57,
      "start": 10.8702,
      "duration": 0.0082,
      "velocity": 111,
      "chip": "ym2612"
    },
    {
      "channel": 0,
      "note": 58,
      "start": 10.8809,
      "duration": 0.0115,
      "velocity": 111,
      "chip": "ym2612"
    },
    {
      "channel": 1,
      "note": 89,
      "start": 10.8815,
      "duration": 0.0111,
      "velocity": 103,
      "chip": "ym2612"
    },
    {
      "channel": 2,
      "note": 73,
      "start": 10.8821,
      "duration": 0.0107,
      "velocity": 90,
      "chip": "ym2612"
    },
    {
      "channel": 4,
      "note": 81,
      "start": 10.8828,
      "duration": 0.0063,
      "velocity": 127,
      "chip": "ym2612"
    },
    {
      "channel": 0,
      "note": 59,
      "start": 10.8946,
      "duration": 0.2225,
      "velocity": 111,
      "chip": "ym2612"
    },
    {
      "channel": 1,
      "note": 85,
      "start": 10.8953,
      "duration": 0.1717,
      "velocity": 103,
      "chip": "ym2612"
    },
    {
      "channel": 2,
      "note": 73,
      "start": 10.8959,
      "duration": 0.1714,
      "velocity": 90,
      "chip": "ym2612"
    },
    {
      "channel": 3,
      "note": 89,
      "start": 10.8966,
      "duration": 0.0367,
      "velocity": 103,
      "chip": "ym2612"
    },
    {
      "channel": 4,
      "note": 81,
      "start": 10.8974,
      "duration": 0.0534,
      "velocity": 127,
      "chip": "ym2612"
    },
    {
      "channel": 3,
      "note": 85,
      "start": 10.9506,
      "duration": 0.2058,
      "velocity": 103,
      "chip": "ym2612"
    },
    {
      "channel": 4,
      "note": 81,
      "start": 11.0512,
      "duration": 0.0499,
      "velocity": 127,
      "chip": "ym2612"
    },
    {
      "channel": 0,
      "note": 61,
      "start": 11.151,
      "duration": 0.0361,
      "velocity": 111,
      "chip": "ym2612"
    },
    {
      "channel": 1,
      "note": 66,
      "start": 11.1524,
      "duration": 0.0151,
      "velocity": 103,
      "chip": "ym2612"
    },
    {
      "channel": 2,
      "note": 78,
      "start": 11.1533,
      "duration": 0.0207,
      "velocity": 90,
      "chip": "ym2612"
    },
    {
      "channel": 4,
      "note": 81,
      "start": 11.154,
      "duration": 0.015,
      "velocity": 127,
      "chip": "ym2612"
    },
    {
      "channel": 3,
      "note": 66,
      "start": 11.1688,
      "duration": 0.037,
      "velocity": 103,
      "chip": "ym2612"
    },
    {
      "channel": 0,
      "note": 49,
      "start": 11.2044,
      "duration": 0.0834,
      "velocity": 111,
      "chip": "ym2612"
    },
    {
      "channel": 1,
      "note": 65,
      "start": 11.205,
      "duration": 0.0494,
      "velocity": 103,
      "chip": "ym2612"
    },
    {
      "channel": 2,
      "note": 77,
      "start": 11.2056,
      "duration": 0.0826,
      "velocity": 90,
      "chip": "ym2612"
    },
    {
      "channel": 4,
      "note": 81,
      "start": 11.2065,
      "duration": 0.0487,
      "velocity": 127,
      "chip": "ym2612"
    },
    {
      "channel": 0,
      "note": 54,
      "start": 11.3049,
      "duration": 0.1673,
      "velocity": 111,
      "chip": "ym2612"
    },
    {
      "channel": 1,
      "note": 63,
      "start": 11.3055,
      "duration": 0.0997,
      "velocity": 103,
      "chip": "ym2612"
    },
    {
      "channel": 2,
      "note": 75,
      "start": 11.3061,
      "duration": 0.1498,
      "velocity": 90,
      "chip": "ym2612"
    },
    {
      "channel": 3,
      "note": 65,
      "start": 11.3067,
      "duration": 0.0486,
      "velocity": 103,
      "chip": "ym2612"
    },
    {
      "channel": 4,
      "note": 81,
      "start": 11.3073,
      "duration": 0.099,
      "velocity": 127,
      "chip": "ym2612"
    },
    {
      "channel": 3,
      "note": 63,
      "start": 11.4061,
      "duration": 0.1013,
      "velocity": 103,
      "chip": "ym2612"
    },
    {
      "channel": 0,
      "note": 55,
      "start": 11.5061,
      "duration": 0.0667,
      "velocity": 111,
      "chip": "ym2612"
    },
    {
      "channel": 1,
      "note": 65,
      "start": 11.5067,
      "duration": 0.1001,
      "velocity": 103,
      "chip": "ym2612"
    },
    {
      "channel": 2,
      "note": 77,
      "start": 11.5073,
      "duration": 0.1076,
      "velocity": 90,
      "chip": "ym2612"
    },
    {
      "channel": 4,
      "note": 81,
      "start": 11.5081,
      "duration": 0.0487,
      "velocity": 127,
      "chip": "ym2612"
    },
    {
      "channel": 0,
      "note": 56,
      "start": 11.6067,
      "duration": 0.0217,
      "velocity": 111,
      "chip": "ym2612"
    },
    {
      "channel": 3,
      "note": 65,
      "start": 11.6077,
      "duration": 0.0118,
      "velocity": 103,
      "chip": "ym2612"
    },
    {
      "channel": 4,
      "note": 81,
      "start": 11.6084,
      "duration": 0.0114,
      "velocity": 127,
      "chip": "ym2612"
    },
    {
      "channel": 0,
      "note": 59,
      "start": 11.6309,
      "duration": 0.3404,
      "velocity": 111,
      "chip": "ym2612"
    },
    {
      "channel": 1,
      "note": 65,
      "start": 11.6315,
      "duration": 0.0215,
      "velocity": 103,
      "chip": "ym2612"
    },
    {
      "channel": 2,
      "note": 77,
      "start": 11.632,
      "duration": 0.0547,
      "velocity": 90,
      "chip": "ym2612"
    },
    {
      "channel": 4,
      "note": 81,
      "start": 11.6341,
      "duration": 0.0194,
      "velocity": 119,
      "chip": "ym2612"
    },
    {
      "channel": 1,
      "note": 61,
      "start": 11.7038,
      "duration": 0.1504,
      "velocity": 103,
      "chip": "ym2612"
    },
    {
      "channel": 2,
      "note": 73,
      "start": 11.7043,
      "duration": 0.2172,
      "velocity": 90,
      "chip": "ym2612"
    },
    {
      "channel": 3,
      "note": 65,
      "start": 11.705,
      "duration": 0.049,
      "velocity": 103,
      "chip": "ym2612"
    },
    {
      "channel": 4,
      "note": 81,
      "start": 11.7067,
      "duration": 0.0983,
      "velocity": 127,
      "chip": "ym2612"
    },
    {
      "channel": 3,
      "note": 61,
      "start": 11.8048,
      "duration": 0.1503,
      "velocity": 103,
      "chip": "ym2612"
    },
    {
      "channel": 4,
      "note": 81,
      "start": 11.9055,
      "duration": 0.0499,
      "velocity": 127,
      "chip": "ym2612"
    },
    {
      "channel": 0,
      "note": 61,
      "start": 12.0053,
      "duration": 0.0094,
      "velocity": 111,
      "chip": "ym2612"
    },
    {
      "channel": 4,
      "note": 81,
      "start": 12.0069,
      "duration": 0.0104,
      "velocity": 127,
      "chip": "ym2612"
    },
    {
      "channel": 0,
      "note": 61,
      "start": 12.0167,
      "duration": 0.024,
      "velocity": 111,
      "chip": "ym2612"
    },
    {
      "channel": 0,
      "note": 61,
      "start": 12.0578,
      "duration": 0.0833,
      "velocity": 111,
      "chip": "ym2612"
    },
    {
      "channel": 4,
      "note": 81,
      "start": 12.0587,
      "duration": 0.0495,
      "velocity": 127,
      "chip": "ym2612"
    },
    {
      "channel": 0,
      "note": 61,
      "start": 12.1584,
      "duration": 0.0666,
      "velocity": 111,
      "chip": "ym2612"
    },
    {
      "channel": 4,
      "note": 81,
      "start": 12.1592,
      "duration": 0.1001,
      "velocity": 127,
      "chip": "ym2612"
    },
    {
      "channel": 0,
      "note": 61,
      "start": 12.2589,
      "duration": 0.0666,
      "velocity": 111,
      "chip": "ym2612"
    },
    {
      "channel": 0,
      "note": 61,
      "start": 12.3594,
      "duration": 0.0059,
      "velocity": 111,
      "chip": "ym2612"
    },
    {
      "channel": 4,
      "note": 81,
      "start": 12.3603,
      "duration": 0.0042,
      "velocity": 127,
      "chip": "ym2612"
    },
    {
      "channel": 0,
      "note": 49,
      "start": 12.3674,
      "duration": 0.1449,
      "velocity": 111,
      "chip": "ym2612"
    },
    {
      "channel": 4,
      "note": 81,
      "start": 12.3683,
      "duration": 0.0137,
      "velocity": 127,
      "chip": "ym2612"
    },
    {
      "channel": 4,
      "note": 81,
      "start": 12.4819,
      "duration": 0.0053,
      "velocity": 127,
      "chip": "ym2612"
    },
    {
      "channel": 4,
      "note": 81,
      "start": 12.496,
      "duration": 0.0054,
      "velocity": 127,
      "chip": "ym2612"
    },
    {
      "channel": 4,
      "note": 81,
      "start": 12.5059,
      "duration": 0.0036,
      "velocity": 127,
      "chip": "ym2612"
    },
    {
      "channel": 0,
      "note": 61,
      "start": 12.5146,
      "duration": 0.0525,
      "velocity": 111,
      "chip": "ym2612"
    },
    {
      "channel": 2,
      "note": 61,
      "start": 12.5174,
      "duration": 0.0501,
      "velocity": 108,
      "chip": "ym2612"
    },
    {
      "channel": 4,
      "note": 81,
      "start": 12.5182,
      "duration": 0.0127,
      "velocity": 127,
      "chip": "ym2612"
    },
    {
      "channel": 1,
      "note": 61,
      "start": 12.5301,
      "duration": 0.1211,
      "velocity": 100,
      "chip": "ym2612"
    },
    {
      "channel": 0,
      "note": 49,
      "start": 12.5843,
      "duration": 0.0666,
      "velocity": 111,
      "chip": "ym2612"
    },
    {
      "channel": 2,
      "note": 49,
      "start": 12.5851,
      "duration": 0.0662,
      "velocity": 108,
      "chip": "ym2612"
    },
    {
      "channel": 3,
      "note": 61,
      "start": 12.5871,
      "duration": 0.165,
      "velocity": 100,
      "chip": "ym2612"
    },
    {
      "channel": 4,
      "note": 81,
      "start": 12.5878,
      "duration": 0.0473,
      "velocity": 127,
      "chip": "ym2612"
    },
    {
      "channel": 0,
      "note": 54,
      "start": 12.6849,
      "duration": 0.1672,
      "velocity": 111,
      "chip": "ym2612"
    },
    {
      "channel": 1,
      "note": 49,
      "start": 12.6855,
      "duration": 0.0662,
      "velocity": 100,
      "chip": "ym2612"
    },
    {
      "channel": 2,
      "note": 54,
      "start": 12.6861,
      "duration": 0.1663,
      "velocity": 108,
      "chip": "ym2612"
    },
    {
      "channel": 4,
      "note": 81,
      "start": 12.6869,
      "duration": 0.0998,
      "velocity": 127,
      "chip": "ym2612"
    },
    {
      "channel": 1,
      "note": 54,
      "start": 12.7857,
      "duration": 0.1672,
      "velocity": 100,
      "chip": "ym2612"
    },
    {
      "channel": 3,
      "note": 49,
      "start": 12.7866,
      "duration": 0.0662,
      "velocity": 100,
      "chip": "ym2612"
    },
    {
      "channel": 0,
      "note": 55,
      "start": 12.8693,
      "duration": 0.0834,
      "velocity": 111,
      "chip": "ym2612"
    },
    {
      "channel": 2,
      "note": 55,
      "start": 12.87,
      "duration": 0.0831,
      "velocity": 108,
      "chip": "ym2612"
    },
    {
      "channel": 3,
      "note": 54,
      "start": 12.8707,
      "duration": 0.1112,
      "velocity": 100,
      "chip": "ym2612"
    },
    {
      "channel": 4,
      "note": 81,
      "start": 12.8713,
      "duration": 0.0487,
      "velocity": 127,
      "chip": "ym2612"
    },
    {
      "channel": 0,
      "note": 56,
      "start": 12.9698,
      "duration": 0.0232,
      "velocity": 111,
      "chip": "ym2612"
    },
    {
      "channel": 1,
      "note": 55,
      "start": 12.9704,
      "duration": 0.0112,
      "velocity": 100,
      "chip": "ym2612"
    },
    {
      "channel": 2,
      "note": 56,
      "start": 12.971,
      "duration": 0.0224,
      "velocity": 108,
      "chip": "ym2612"
    },
    {
      "channel": 4,
      "note": 81,
      "start": 12.9718,
      "duration": 0.0134,
      "velocity": 127,
      "chip": "ym2612"
    },
    {
      "channel": 1,
      "note": 56,
      "start": 12.9842,
      "duration": 0.0219,
      "velocity": 100,
      "chip": "ym2612"
    },
    {
      "channel": 3,
      "note": 55,
      "start": 12.9849,
      "duration": 0.0086,
      "velocity": 100,
      "chip": "ym2612"
    },
    {
      "channel": 0,
      "note": 59,
      "start": 12.9966,
      "duration": 0.2359,
      "velocity": 111,
      "chip": "ym2612"
    },
    {
      "channel": 2,
      "note": 59,
      "start": 12.9974,
      "duration": 0.2354,
      "velocity": 108,
      "chip": "ym2612"
    },
    {
      "channel": 3,
      "note": 56,
      "start": 12.998,
      "duration": 0.0338,
      "velocity": 100,
      "chip": "ym2612"
    },
    {
      "channel": 4,
      "note": 81,
      "start": 12.9986,
      "duration": 0.0064,
      "velocity": 127,
      "chip": "ym2612"
    },
    {
      "channel": 1,
      "note": 59,
      "start": 13.0105,
      "duration": 0.2463,
      "velocity": 100,
      "chip": "ym2612"
    },
    {
      "channel": 4,
      "note": 81,
      "start": 13.0116,
      "duration": 0.0545,
      "velocity": 127,
      "chip": "ym2612"
    },
    {
      "channel": 3,
      "note": 59,
      "start": 13.0659,
      "duration": 0.2027,
      "velocity": 100,
      "chip": "ym2612"
    },
    {
      "channel": 4,
      "note": 81,
      "start": 13.1498,
      "duration": 0.05,
      "velocity": 127,
      "chip": "ym2612"
    },
    {
      "channel": 0,
      "note": 61,
      "start": 13.2496,
      "duration": 0.0339,
      "velocity": 111,
      "chip": "ym2612"
    },
    {
      "channel": 2,
      "note": 61,
      "start": 13.2504,
      "duration": 0.0335,
      "velocity": 108,
      "chip": "ym2612"
    },
    {
      "channel": 4,
      "note": 81,
      "start": 13.2513,
      "duration": 0.0121,
      "velocity": 127,
      "chip": "ym2612"
    },
    {
      "channel": 1,
      "note": 61,
      "start": 13.2628,
      "duration": 0.1216,
      "velocity": 100,
      "chip": "ym2612"
    },
    {
      "channel": 0,
      "note": 49,
      "start": 13.3175,
      "duration": 0.0666,
      "velocity": 111,
      "chip": "ym2612"
    },
    {
      "channel": 2,
      "note": 49,
      "start": 13.3184,
      "duration": 0.0661,
      "velocity": 108,
      "chip": "ym2612"
    },
    {
      "channel": 3,
      "note": 61,
      "start": 13.3189,
      "duration": 0.1663,
      "velocity": 100,
      "chip": "ym2612"
    },
    {
      "channel": 4,
      "note": 81,
      "start": 13.3196,
      "duration": 0.0487,
      "velocity": 127,
      "chip": "ym2612"
    },
    {
      "channel": 0,
      "note": 54,
      "start": 13.418,
      "duration": 0.1672,
      "velocity": 111,
      "chip": "ym2612"
    },
    {
      "channel": 1,
      "note": 49,
      "start": 13.4187,
      "duration": 0.0662,
      "velocity": 100,
      "chip": "ym2612"
    },
    {
      "channel": 2,
      "note": 54,
      "start": 13.4193,
      "duration": 0.1664,
      "velocity": 108,
      "chip": "ym2612"
    },
    {
      "channel": 4,
      "note": 81,
      "start": 13.4201,
      "duration": 0.0831,
      "velocity": 127,
      "chip": "ym2612"
    },
    {
      "channel": 1,
      "note": 54,
      "start": 13.5021,
      "duration": 0.184,
      "velocity": 100,
      "chip": "ym2612"
    },
    {
      "channel": 3,
      "note": 49,
      "start": 13.503,
      "duration": 0.0829,
      "velocity": 100,
      "chip": "ym2612"
    },
    {
      "channel": 0,
      "note": 55,
      "start": 13.6024,
      "duration": 0.0834,
      "velocity": 111,
      "chip": "ym2612"
    },
    {
      "channel": 2,
      "note": 55,
      "start": 13.6032,
      "duration": 0.0831,
      "velocity": 108,
      "chip": "ym2612"
    },
    {
      "channel": 3,
      "note": 54,
      "start": 13.6039,
      "duration": 0.1091,
      "velocity": 100,
      "chip": "ym2612"
    },
    {
      "channel": 4,
      "note": 81,
      "start": 13.6044,
      "duration": 0.0488,
      "velocity": 127,
      "chip": "ym2612"
    },
    {
      "channel": 0,
      "note": 56,
      "start": 13.703,
      "duration": 0.0093,
      "velocity": 111,
      "chip": "ym2612"
    },
    {
      "channel": 1,
      "note": 55,
      "start": 13.7036,
      "duration": 0.0089,
      "velocity": 100,
      "chip": "ym2612"
    },
    {
      "channel": 2,
      "note": 56,
      "start": 13.7042,
      "duration": 0.0085,
      "velocity": 108,
      "chip": "ym2612"
    },
    {
      "channel": 4,
      "note": 81,
      "start": 13.705,
      "duration": 0.006,
      "velocity": 127,
      "chip": "ym2612"
    },
    {
      "channel": 0,
      "note": 57,
      "start": 13.7167,
      "duration": 0.0101,
      "velocity": 111,
      "chip": "ym2612"
    },
    {
      "channel": 1,
      "note": 56,
      "start": 13.7173,
      "duration": 0.0098,
      "velocity": 100,
      "chip": "ym2612"
    },
    {
      "channel": 2,
      "note": 57,
      "start": 13.7179,
      "duration": 0.0093,
      "velocity": 108,
      "chip": "ym2612"
    },
    {
      "channel": 3,
      "note": 55,
      "start": 13.7186,
      "duration": 0.0089,
      "velocity": 100,
      "chip": "ym2612"
    },
    {
      "channel": 4,
      "note": 81,
      "start": 13.7192,
      "duration": 0.0063,
      "velocity": 127,
      "chip": "ym2612"
    },
    {
      "channel": 0,
      "note": 58,
      "start": 13.7312,
      "duration": 0.0097,
      "velocity": 111,
      "chip": "ym2612"
    },
    {
      "channel": 1,
      "note": 57,
      "start": 13.7319,
      "duration": 0.0093,
      "velocity": 100,
      "chip": "ym2612"
    },
    {
      "channel": 2,
      "note": 58,
      "start": 13.7324,
      "duration": 0.009,
      "velocity": 108,
      "chip": "ym2612"
    },
    {
      "channel": 3,
      "note": 56,
      "start": 13.7331,
      "duration": 0.0086,
      "velocity": 100,
      "chip": "ym2612"
    },
    {
      "channel": 4,
      "note": 81,
      "start": 13.7337,
      "duration": 0.0064,
      "velocity": 127,
      "chip": "ym2612"
    },
    {
      "channel": 0,
      "note": 59,
      "start": 13.7454,
      "duration": 0.1362,
      "velocity": 111,
      "chip": "ym2612"
    },
    {
      "channel": 1,
      "note": 58,
      "start": 13.7459,
      "duration": 0.01,
      "velocity": 100,
      "chip": "ym2612"
    },
    {
      "channel": 2,
      "note": 59,
      "start": 13.7466,
      "duration": 0.1353,
      "velocity": 108,
      "chip": "ym2612"
    },
    {
      "channel": 3,
      "note": 57,
      "start": 13.7472,
      "duration": 0.0091,
      "velocity": 100,
      "chip": "ym2612"
    },
    {
      "channel": 4,
      "note": 81,
      "start": 13.7478,
      "duration": 0.0117,
      "velocity": 127,
      "chip": "ym2612"
    },
    {
      "channel": 1,
      "note": 59,
      "start": 13.7586,
      "duration": 0.1496,
      "velocity": 100,
      "chip": "ym2612"
    },
    {
      "channel": 3,
      "note": 58,
      "start": 13.7593,
      "duration": 0.0221,
      "velocity": 100,
      "chip": "ym2612"
    },
    {
      "channel": 3,
      "note": 59,
      "start": 13.7987,
      "duration": 0.1362,
      "velocity": 100,
      "chip": "ym2612"
    },
    {
      "channel": 4,
      "note": 81,
      "start": 13.7996,
      "duration": 0.0492,
      "velocity": 127,
      "chip": "ym2612"
    },
    {
      "channel": 0,
      "note": 61,
      "start": 13.8987,
      "duration": 0.0356,
      "velocity": 111,
      "chip": "ym2612"
    },
    {
      "channel": 2,
      "note": 61,
      "start": 13.8999,
      "duration": 0.0348,
      "velocity": 108,
      "chip": "ym2612"
    },
    {
      "channel": 4,
      "note": 81,
      "start": 13.9006,
      "duration": 0.0192,
      "velocity": 127,
      "chip": "ym2612"
    },
    {
      "channel": 1,
      "note": 61,
      "start": 13.9129,
      "duration": 0.122,
      "velocity": 100,
      "chip": "ym2612"
    },
    {
      "channel": 0,
      "note": 49,
      "start": 13.9682,
      "duration": 0.0666,
      "velocity": 111,
      "chip": "ym2612"
    },
    {
      "channel": 2,
      "note": 49,
      "start": 13.9691,
      "duration": 0.0661,
      "velocity": 108,
      "chip": "ym2612"
    },
    {
      "channel": 3,
      "note": 61,
      "start": 13.9697,
      "duration": 0.1662,
      "velocity": 100,
      "chip": "ym2612"
    },
    {
      "channel": 0,
      "note": 54,
      "start": 14.052,
      "duration": 0.1839,
      "velocity": 111,
      "chip": "ym2612"
    },
    {
      "channel": 1,
      "note": 49,
      "start": 14.0526,
      "duration": 0.0829,
      "velocity": 100,
      "chip": "ym2612"
    },
    {
      "channel": 2,
      "note": 54,
      "start": 14.0532,
      "duration": 0.1831,
      "velocity": 108,
      "chip": "ym2612"
    },
    {
      "channel": 4,
      "note": 81,
      "start": 14.054,
      "duration": 0.0998,
      "velocity": 127,
      "chip": "ym2612"
    },
    {
      "channel": 1,
      "note": 54,
      "start": 14.1527,
      "duration": 0.1672,
      "velocity": 100,
      "chip": "ym2612"
    },
    {
      "channel": 3,
      "note": 49,
      "start": 14.1535,
      "duration": 0.083,
      "velocity": 100,
      "chip": "ym2612"
    },
    {
      "channel": 0,
      "note": 55,
      "start": 14.253,
      "duration": 0.0667,
      "velocity": 111,
      "chip": "ym2612"
    },
    {
      "channel": 2,
      "note": 55,
      "start": 14.2538,
      "duration": 0.0663,
      "velocity": 108,
      "chip": "ym2612"
    },
    {
      "channel": 3,
      "note": 54,
      "start": 14.2544,
      "duration": 0.1094,
      "velocity": 100,
      "chip": "ym2612"
    },
    {
      "channel": 4,
      "note": 81,
      "start": 14.255,
      "duration": 0.0487,
      "velocity": 127,
      "chip": "ym2612"
    },
    {
      "channel": 0,
      "note": 56,
      "start": 14.3536,
      "duration": 0.022,
      "velocity": 111,
      "chip": "ym2612"
    },
    {
      "channel": 1,
      "note": 55,
      "start": 14.3542,
      "duration": 0.0093,
      "velocity": 100,
      "chip": "ym2612"
    },
    {
      "channel": 2,
      "note": 56,
      "start": 14.3548,
      "duration": 0.0212,
      "velocity": 108,
      "chip": "ym2612"
    },
    {
      "channel": 4,
      "note": 81,
      "start": 14.3556,
      "duration": 0.0129,
      "velocity": 127,
      "chip": "ym2612"
    },
    {
      "channel": 1,
      "note": 56,
      "start": 14.3675,
      "duration": 0.0673,
      "velocity": 100,
      "chip": "ym2612"
    },
    {
      "channel": 3,
      "note": 55,
      "start": 14.3683,
      "duration": 0.0079,
      "velocity": 100,
      "chip": "ym2612"
    },
    {
      "channel": 0,
      "note": 59,
      "start": 14.3801,
      "duration": 0.3396,
      "velocity": 111,
      "chip": "ym2612"
    },
    {
      "channel": 2,
      "note": 59,
      "start": 14.3809,
      "duration": 0.3391,
      "velocity": 108,
      "chip": "ym2612"
    },
    {
      "channel": 3,
      "note": 56,
      "start": 14.3815,
      "duration": 0.1542,
      "velocity": 100,
      "chip": "ym2612"
    },
    {
      "channel": 4,
      "note": 81,
      "start": 14.3832,
      "duration": 0.0188,
      "velocity": 119,
      "chip": "ym2612"
    },
    {
      "channel": 1,
      "note": 59,
      "start": 14.4521,
      "duration": 0.3089,
      "velocity": 100,
      "chip": "ym2612"
    },
    {
      "channel": 4,
      "note": 81,
      "start": 14.4542,
      "duration": 0.099,
      "velocity": 127,
      "chip": "ym2612"
    },
    {
      "channel": 3,
      "note": 59,
      "start": 14.553,
      "duration": 0.2204,
      "velocity": 100,
      "chip": "ym2612"
    },
    {
      "channel": 4,
      "note": 81,
      "start": 14.6537,
      "duration": 0.0501,
      "velocity": 127,
      "chip": "ym2612"
    },
    {
      "channel": 0,
      "note": 61,
      "start": 14.7536,
      "duration": 0.0348,
      "velocity": 111,
      "chip": "ym2612"
    },
    {
      "channel": 2,
      "note": 61,
      "start": 14.7544,
      "duration": 0.0343,
      "velocity": 108,
      "chip": "ym2612"
    },
    {
      "channel": 4,
      "note": 81,
      "start": 14.7551,
      "duration": 0.013,
      "velocity": 127,
      "chip": "ym2612"
    },
    {
      "channel": 1,
      "note": 61,
      "start": 14.7676,
      "duration": 0.0491,
      "velocity": 100,
      "chip": "ym2612"
    },
    {
      "channel": 0,
      "note": 61,
      "start": 14.8055,
      "duration": 0.011,
      "velocity": 111,
      "chip": "ym2612"
    },
    {
      "channel": 2,
      "note": 61,
      "start": 14.8063,
      "duration": 0.0106,
      "velocity": 108,
      "chip": "ym2612"
    },
    {
      "channel": 3,
      "note": 61,
      "start": 14.8069,
      "duration": 0.0247,
      "velocity": 100,
      "chip": "ym2612"
    },
    {
      "channel": 4,
      "note": 81,
      "start": 14.8075,
      "duration": 0.0059,
      "velocity": 127,
      "chip": "ym2612"
    },
    {
      "channel": 0,
      "note": 49,
      "start": 14.8203,
      "duration": 0.1351,
      "velocity": 111,
      "chip": "ym2612"
    },
    {
      "channel": 1,
      "note": 61,
      "start": 14.8209,
      "duration": 0.0103,
      "velocity": 100,
      "chip": "ym2612"
    },
    {
      "channel": 2,
      "note": 49,
      "start": 14.8215,
      "duration": 0.1342,
      "velocity": 108,
      "chip": "ym2612"
    },
    {
      "channel": 4,
      "note": 81,
      "start": 14.8223,
      "duration": 0.0187,
      "velocity": 127,
      "chip": "ym2612"
    },
    {
      "channel": 1,
      "note": 49,
      "start": 14.8335,
      "duration": 0.2226,
      "velocity": 100,
      "chip": "ym2612"
    },
    {
      "channel": 3,
      "note": 61,
      "start": 14.8343,
      "duration": 0.0211,
      "velocity": 100,
      "chip": "ym2612"
    },
    {
      "channel": 3,
      "note": 49,
      "start": 14.8894,
      "duration": 0.2676,
      "velocity": 100,
      "chip": "ym2612"
    },
    {
      "channel": 0,
      "note": 49,
      "start": 14.9896,
      "duration": 0.2674,
      "velocity": 111,
      "chip": "ym2612"
    },
    {
      "channel": 2,
      "note": 49,
      "start": 14.9906,
      "duration": 0.0657,
      "velocity": 108,
      "chip": "ym2612"
    },
    {
      "channel": 1,
      "note": 49,
      "start": 15.0903,
      "duration": 0.0663,
      "velocity": 100,
      "chip": "ym2612"
    },
    {
      "channel": 1,
      "note": 78,
      "start": 15.1752,
      "duration": 0.082,
      "velocity": 103,
      "chip": "ym2612"
    },
    {
      "channel": 3,
      "note": 49,
      "start": 15.1762,
      "duration": 0.0814,
      "velocity": 100,
      "chip": "ym2612"
    },
    {
      "channel": 4,
      "note": 81,
      "start": 15.1782,
      "duration": 0.0459,
      "velocity": 119,
      "chip": "ym2612"
    },
    {
      "channel": 1,
      "note": 80,
      "start": 15.2746,
      "duration": 0.1501,
      "velocity": 103,
      "chip": "ym2612"
    },
    {
      "channel": 3,
      "note": 78,
      "start": 15.2766,
      "duration": 0.0813,
      "velocity": 103,
      "chip": "ym2612"
    },
    {
      "channel": 4,
      "note": 81,
      "start": 15.2787,
      "duration": 0.0967,
      "velocity": 127,
      "chip": "ym2612"
    },
    {
      "channel": 3,
      "note": 80,
      "start": 15.3752,
      "duration": 0.1503,
      "velocity": 103,
      "chip": "ym2612"
    },
    {
      "channel": 1,
      "note": 82,
      "start": 15.4755,
      "duration": 0.0665,
      "velocity": 103,
      "chip": "ym2612"
    },
    {
      "channel": 4,
      "note": 81,
      "start": 15.4766,
      "duration": 0.0492,
      "velocity": 127,
      "chip": "ym2612"
    },
    {
      "channel": 0,
      "note": 61,
      "start": 15.5764,
      "duration": 9.0473,
      "velocity": 111,
      "chip": "ym2612"
    },
    {
      "channel": 1,
      "note": 83,
      "start": 15.578,
      "duration": 9.0456,
      "velocity": 103,
      "chip": "ym2612"
    },
    {
      "channel": 3,
      "note": 82,
      "start": 15.5817,
      "duration": 9.042,
      "velocity": 103,
      "chip": "ym2612"
    },
    {
      "channel": 4,
      "note": 81,
      "start": 15.5824,
      "duration": 9.0412,
      "velocity": 127,
      "chip": "ym2612"
    }
  ]
}