{
  "track_name": "19 - Hospital",
  "duration_sec": 18.542,
  "sample_rate": 44100,
  "note_count": 240,
  "unique_pitches": 27,
  "pitch_range": 43,
  "avg_note_duration": 0.3856,
  "reconstruction_stats": {
    "notes_reconstructed": 240,
    "keyon_events": 240,
    "keyoff_events": 235,
    "orphan_keyons": 5,
    "unique_pitches": 27,
    "pitch_range": 43,
    "avg_duration_sec": 0.3856
  },
  "metadata": {
    "source": "P\\Phantasy Star III\\19 - Hospital.vgz"
  },
  "notes": [
    {
      "channel": 0,
      "note": 59,
      "start": 0.0,
      "duration": 0.2512,
      "velocity": 109,
      "chip": "ym2612"
    },
    {
      "channel": 1,
      "note": 59,
      "start": 0.0032,
      "duration": 0.2487,
      "velocity": 109,
      "chip": "ym2612"
    },
    {
      "channel": 3,
      "note": 59,
      "start": 0.0066,
      "duration": 0.2461,
      "velocity": 109,
      "chip": "ym2612"
    },
    {
      "channel": 4,
      "note": 59,
      "start": 0.0099,
      "duration": 2.2756,
      "velocity": 109,
      "chip": "ym2612"
    },
    {
      "channel": 5,
      "note": 47,
      "start": 0.0133,
      "duration": 2.273,
      "velocity": 80,
      "chip": "ym2612"
    },
    {
      "channel": 0,
      "note": 61,
      "start": 0.2518,
      "duration": 0.2534,
      "velocity": 109,
      "chip": "ym2612"
    },
    {
      "channel": 1,
      "note": 61,
      "start": 0.2525,
      "duration": 0.2534,
      "velocity": 109,
      "chip": "ym2612"
    },
    {
      "channel": 3,
      "note": 61,
      "start": 0.2532,
      "duration": 0.2534,
      "velocity": 109,
      "chip": "ym2612"
    },
    {
      "channel": 0,
      "note": 63,
      "start": 0.5058,
      "duration": 0.2534,
      "velocity": 109,
      "chip": "ym2612"
    },
    {
      "channel": 1,
      "note": 63,
      "start": 0.5066,
      "duration": 0.2534,
      "velocity": 109,
      "chip": "ym2612"
    },
    {
      "channel": 3,
      "note": 63,
      "start": 0.5073,
      "duration": 0.2534,
      "velocity": 109,
      "chip": "ym2612"
    },
    {
      "channel": 0,
      "note": 71,
      "start": 0.7598,
      "duration": 0.2535,
      "velocity": 109,
      "chip": "ym2612"
    },
    {
      "channel": 1,
      "note": 71,
      "start": 0.7605,
      "duration": 0.2535,
      "velocity": 109,
      "chip": "ym2612"
    },
    {
      "channel": 3,
      "note": 71,
      "start": 0.7613,
      "duration": 0.2536,
      "velocity": 109,
      "chip": "ym2612"
    },
    {
      "channel": 0,
      "note": 73,
      "start": 1.0139,
      "duration": 0.2534,
      "velocity": 109,
      "chip": "ym2612"
    },
    {
      "channel": 1,
      "note": 73,
      "start": 1.0146,
      "duration": 0.2534,
      "velocity": 109,
      "chip": "ym2612"
    },
    {
      "channel": 3,
      "note": 73,
      "start": 1.0154,
      "duration": 0.2534,
      "velocity": 109,
      "chip": "ym2612"
    },
    {
      "channel": 0,
      "note": 75,
      "start": 1.2679,
      "duration": 0.2533,
      "velocity": 109,
      "chip": "ym2612"
    },
    {
      "channel": 1,
      "note": 75,
      "start": 1.2686,
      "duration": 0.2533,
      "velocity": 109,
      "chip": "ym2612"
    },
    {
      "channel": 3,
      "note": 75,
      "start": 1.2693,
      "duration": 0.2534,
      "velocity": 109,
      "chip": "ym2612"
    },
    {
      "channel": 0,
      "note": 83,
      "start": 1.5218,
      "duration": 0.2534,
      "velocity": 109,
      "chip": "ym2612"
    },
    {
      "channel": 1,
      "note": 83,
      "start": 1.5225,
      "duration": 0.2535,
      "velocity": 109,
      "chip": "ym2612"
    },
    {
      "channel": 3,
      "note": 83,
      "start": 1.5233,
      "duration": 0.2535,
      "velocity": 109,
      "chip": "ym2612"
    },
    {
      "channel": 0,
      "note": 85,
      "start": 1.7759,
      "duration": 0.2534,
      "velocity": 109,
      "chip": "ym2612"
    },
    {
      "channel": 1,
      "note": 85,
      "start": 1.7766,
      "duration": 0.2535,
      "velocity": 109,
      "chip": "ym2612"
    },
    {
      "channel": 3,
      "note": 85,
      "start": 1.7773,
      "duration": 0.2534,
      "velocity": 109,
      "chip": "ym2612"
    },
    {
      "channel": 0,
      "note": 87,
      "start": 2.0299,
      "duration": 0.2534,
      "velocity": 109,
      "chip": "ym2612"
    },
    {
      "channel": 1,
      "note": 87,
      "start": 2.0307,
      "duration": 0.2534,
      "velocity": 109,
      "chip": "ym2612"
    },
    {
      "channel": 3,
      "note": 87,
      "start": 2.0315,
      "duration": 0.2533,
      "velocity": 109,
      "chip": "ym2612"
    },
    {
      "channel": 0,
      "note": 85,
      "start": 2.2839,
      "duration": 0.2534,
      "velocity": 109,
      "chip": "ym2612"
    },
    {
      "channel": 1,
      "note": 85,
      "start": 2.2847,
      "duration": 0.2534,
      "velocity": 109,
      "chip": "ym2612"
    },
    {
      "channel": 3,
      "note": 85,
      "start": 2.2854,
      "duration": 0.2534,
      "velocity": 109,
      "chip": "ym2612"
    },
    {
      "channel": 4,
      "note": 61,
      "start": 2.2861,
      "duration": 2.2854,
      "velocity": 109,
      "chip": "ym2612"
    },
    {
      "channel": 5,
      "note": 49,
      "start": 2.2869,
      "duration": 2.2854,
      "velocity": 80,
      "chip": "ym2612"
    },
    {
      "channel": 0,
      "note": 83,
      "start": 2.5379,
      "duration": 0.2533,
      "velocity": 109,
      "chip": "ym2612"
    },
    {
      "channel": 1,
      "note": 83,
      "start": 2.5386,
      "duration": 0.2534,
      "velocity": 109,
      "chip": "ym2612"
    },
    {
      "channel": 3,
      "note": 83,
      "start": 2.5394,
      "duration": 0.2534,
      "velocity": 109,
      "chip": "ym2612"
    },
    {
      "channel": 0,
      "note": 81,
      "start": 2.7919,
      "duration": 0.2534,
      "velocity": 109,
      "chip": "ym2612"
    },
    {
      "channel": 1,
      "note": 81,
      "start": 2.7926,
      "duration": 0.2534,
      "velocity": 109,
      "chip": "ym2612"
    },
    {
      "channel": 3,
      "note": 81,
      "start": 2.7933,
      "duration": 0.2534,
      "velocity": 109,
      "chip": "ym2612"
    },
    {
      "channel": 0,
      "note": 73,
      "start": 3.0458,
      "duration": 0.2536,
      "velocity": 109,
      "chip": "ym2612"
    },
    {
      "channel": 1,
      "note": 73,
      "start": 3.0466,
      "duration": 0.2536,
      "velocity": 109,
      "chip": "ym2612"
    },
    {
      "channel": 3,
      "note": 73,
      "start": 3.0473,
      "duration": 0.2536,
      "velocity": 109,
      "chip": "ym2612"
    },
    {
      "channel": 0,
      "note": 71,
      "start": 3.3,
      "duration": 0.2534,
      "velocity": 109,
      "chip": "ym2612"
    },
    {
      "channel": 1,
      "note": 71,
      "start": 3.3007,
      "duration": 0.2534,
      "velocity": 109,
      "chip": "ym2612"
    },
    {
      "channel": 3,
      "note": 71,
      "start": 3.3015,
      "duration": 0.2534,
      "velocity": 109,
      "chip": "ym2612"
    },
    {
      "channel": 0,
      "note": 69,
      "start": 3.5539,
      "duration": 0.2533,
      "velocity": 109,
      "chip": "ym2612"
    },
    {
      "channel": 1,
      "note": 69,
      "start": 3.5547,
      "duration": 0.2532,
      "velocity": 109,
      "chip": "ym2612"
    },
    {
      "channel": 3,
      "note": 69,
      "start": 3.5554,
      "duration": 0.2533,
      "velocity": 109,
      "chip": "ym2612"
    },
    {
      "channel": 0,
      "note": 61,
      "start": 3.8078,
      "duration": 0.2535,
      "velocity": 109,
      "chip": "ym2612"
    },
    {
      "channel": 1,
      "note": 61,
      "start": 3.8086,
      "duration": 0.2534,
      "velocity": 109,
      "chip": "ym2612"
    },
    {
      "channel": 3,
      "note": 61,
      "start": 3.8093,
      "duration": 0.2535,
      "velocity": 109,
      "chip": "ym2612"
    },
    {
      "channel": 0,
      "note": 59,
      "start": 4.0619,
      "duration": 0.2534,
      "velocity": 109,
      "chip": "ym2612"
    },
    {
      "channel": 1,
      "note": 59,
      "start": 4.0626,
      "duration": 0.2534,
      "velocity": 109,
      "chip": "ym2612"
    },
    {
      "channel": 3,
      "note": 59,
      "start": 4.0634,
      "duration": 0.2534,
      "velocity": 109,
      "chip": "ym2612"
    },
    {
      "channel": 0,
      "note": 57,
      "start": 4.3159,
      "duration": 0.2535,
      "velocity": 109,
      "chip": "ym2612"
    },
    {
      "channel": 1,
      "note": 57,
      "start": 4.3166,
      "duration": 0.2535,
      "velocity": 109,
      "chip": "ym2612"
    },
    {
      "channel": 3,
      "note": 57,
      "start": 4.3173,
      "duration": 0.2535,
      "velocity": 109,
      "chip": "ym2612"
    },
    {
      "channel": 0,
      "note": 59,
      "start": 4.5699,
      "duration": 0.2534,
      "velocity": 109,
      "chip": "ym2612"
    },
    {
      "channel": 1,
      "note": 59,
      "start": 4.5707,
      "duration": 0.2534,
      "velocity": 109,
      "chip": "ym2612"
    },
    {
      "channel": 3,
      "note": 59,
      "start": 4.5714,
      "duration": 0.2534,
      "velocity": 109,
      "chip": "ym2612"
    },
    {
      "channel": 4,
      "note": 59,
      "start": 4.5721,
      "duration": 2.2855,
      "velocity": 109,
      "chip": "ym2612"
    },
    {
      "channel": 5,
      "note": 47,
      "start": 4.5728,
      "duration": 2.2856,
      "velocity": 80,
      "chip": "ym2612"
    },
    {
      "channel": 0,
      "note": 61,
      "start": 4.8239,
      "duration": 0.2534,
      "velocity": 109,
      "chip": "ym2612"
    },
    {
      "channel": 1,
      "note": 61,
      "start": 4.8246,
      "duration": 0.2534,
      "velocity": 109,
      "chip": "ym2612"
    },
    {
      "channel": 3,
      "note": 61,
      "start": 4.8254,
      "duration": 0.2534,
      "velocity": 109,
      "chip": "ym2612"
    },
    {
      "channel": 0,
      "note": 63,
      "start": 5.0779,
      "duration": 0.2535,
      "velocity": 109,
      "chip": "ym2612"
    },
    {
      "channel": 1,
      "note": 63,
      "start": 5.0786,
      "duration": 0.2535,
      "velocity": 109,
      "chip": "ym2612"
    },
    {
      "channel": 3,
      "note": 63,
      "start": 5.0793,
      "duration": 0.2535,
      "velocity": 109,
      "chip": "ym2612"
    },
    {
      "channel": 0,
      "note": 71,
      "start": 5.3319,
      "duration": 0.2534,
      "velocity": 109,
      "chip": "ym2612"
    },
    {
      "channel": 1,
      "note": 71,
      "start": 5.3327,
      "duration": 0.2534,
      "velocity": 109,
      "chip": "ym2612"
    },
    {
      "channel": 3,
      "note": 71,
      "start": 5.3334,
      "duration": 0.2534,
      "velocity": 109,
      "chip": "ym2612"
    },
    {
      "channel": 0,
      "note": 73,
      "start": 5.5859,
      "duration": 0.2535,
      "velocity": 109,
      "chip": "ym2612"
    },
    {
      "channel": 1,
      "note": 73,
      "start": 5.5866,
      "duration": 0.2534,
      "velocity": 109,
      "chip": "ym2612"
    },
    {
      "channel": 3,
      "note": 73,
      "start": 5.5874,
      "duration": 0.2534,
      "velocity": 109,
      "chip": "ym2612"
    },
    {
      "channel": 0,
      "note": 75,
      "start": 5.84,
      "duration": 0.2534,
      "velocity": 109,
      "chip": "ym2612"
    },
    {
      "channel": 1,
      "note": 75,
      "start": 5.8407,
      "duration": 0.2534,
      "velocity": 109,
      "chip": "ym2612"
    },
    {
      "channel": 3,
      "note": 75,
      "start": 5.8415,
      "duration": 0.2533,
      "velocity": 109,
      "chip": "ym2612"
    },
    {
      "channel": 0,
      "note": 83,
      "start": 6.0939,
      "duration": 0.2535,
      "velocity": 109,
      "chip": "ym2612"
    },
    {
      "channel": 1,
      "note": 83,
      "start": 6.0946,
      "duration": 0.2536,
      "velocity": 109,
      "chip": "ym2612"
    },
    {
      "channel": 3,
      "note": 83,
      "start": 6.0954,
      "duration": 0.2536,
      "velocity": 109,
      "chip": "ym2612"
    },
    {
      "channel": 0,
      "note": 85,
      "start": 6.348,
      "duration": 0.2533,
      "velocity": 109,
      "chip": "ym2612"
    },
    {
      "channel": 1,
      "note": 85,
      "start": 6.3488,
      "duration": 0.2533,
      "velocity": 109,
      "chip": "ym2612"
    },
    {
      "channel": 3,
      "note": 85,
      "start": 6.3495,
      "duration": 0.2533,
      "velocity": 109,
      "chip": "ym2612"
    },
    {
      "channel": 0,
      "note": 87,
      "start": 6.602,
      "duration": 0.2534,
      "velocity": 109,
      "chip": "ym2612"
    },
    {
      "channel": 1,
      "note": 87,
      "start": 6.6027,
      "duration": 0.2534,
      "velocity": 109,
      "chip": "ym2612"
    },
    {
      "channel": 3,
      "note": 87,
      "start": 6.6035,
      "duration": 0.2534,
      "velocity": 109,
      "chip": "ym2612"
    },
    {
      "channel": 0,
      "note": 85,
      "start": 6.856,
      "duration": 0.2534,
      "velocity": 109,
      "chip": "ym2612"
    },
    {
      "channel": 1,
      "note": 85,
      "start": 6.8567,
      "duration": 0.2534,
      "velocity": 109,
      "chip": "ym2612"
    },
    {
      "channel": 3,
      "note": 85,
      "start": 6.8575,
      "duration": 0.2534,
      "velocity": 109,
      "chip": "ym2612"
    },
    {
      "channel": 4,
      "note": 66,
      "start": 6.8582,
      "duration": 2.2854,
      "velocity": 109,
      "chip": "ym2612"
    },
    {
      "channel": 5,
      "note": 54,
      "start": 6.859,
      "duration": 2.2854,
      "velocity": 80,
      "chip": "ym2612"
    },
    {
      "channel": 0,
      "note": 83,
      "start": 7.11,
      "duration": 0.2533,
      "velocity": 109,
      "chip": "ym2612"
    },
    {
      "channel": 1,
      "note": 83,
      "start": 7.1107,
      "duration": 0.2533,
      "velocity": 109,
      "chip": "ym2612"
    },
    {
      "channel": 3,
      "note": 83,
      "start": 7.1115,
      "duration": 0.2534,
      "velocity": 109,
      "chip": "ym2612"
    },
    {
      "channel": 0,
      "note": 82,
      "start": 7.3639,
      "duration": 0.2535,
      "velocity": 109,
      "chip": "ym2612"
    },
    {
      "channel": 1,
      "note": 82,
      "start": 7.3648,
      "duration": 0.2534,
      "velocity": 109,
      "chip": "ym2612"
    },
    {
      "channel": 3,
      "note": 82,
      "start": 7.3655,
      "duration": 0.2534,
      "velocity": 109,
      "chip": "ym2612"
    },
    {
      "channel": 0,
      "note": 73,
      "start": 7.618,
      "duration": 0.2534,
      "velocity": 109,
      "chip": "ym2612"
    },
    {
      "channel": 1,
      "note": 73,
      "start": 7.6188,
      "duration": 0.2534,
      "velocity": 109,
      "chip": "ym2612"
    },
    {
      "channel": 3,
      "note": 73,
      "start": 7.6195,
      "duration": 0.2534,
      "velocity": 109,
      "chip": "ym2612"
    },
    {
      "channel": 0,
      "note": 71,
      "start": 7.872,
      "duration": 0.2533,
      "velocity": 109,
      "chip": "ym2612"
    },
    {
      "channel": 1,
      "note": 71,
      "start": 7.8728,
      "duration": 0.2533,
      "velocity": 109,
      "chip": "ym2612"
    },
    {
      "channel": 3,
      "note": 71,
      "start": 7.8735,
      "duration": 0.2533,
      "velocity": 109,
      "chip": "ym2612"
    },
    {
      "channel": 0,
      "note": 70,
      "start": 8.126,
      "duration": 0.2534,
      "velocity": 109,
      "chip": "ym2612"
    },
    {
      "channel": 1,
      "note": 70,
      "start": 8.1267,
      "duration": 0.2534,
      "velocity": 109,
      "chip": "ym2612"
    },
    {
      "channel": 3,
      "note": 70,
      "start": 8.1274,
      "duration": 0.2534,
      "velocity": 109,
      "chip": "ym2612"
    },
    {
      "channel": 0,
      "note": 61,
      "start": 8.38,
      "duration": 0.2535,
      "velocity": 109,
      "chip": "ym2612"
    },
    {
      "channel": 1,
      "note": 61,
      "start": 8.3807,
      "duration": 0.2535,
      "velocity": 109,
      "chip": "ym2612"
    },
    {
      "channel": 3,
      "note": 61,
      "start": 8.3815,
      "duration": 0.2534,
      "velocity": 109,
      "chip": "ym2612"
    },
    {
      "channel": 0,
      "note": 59,
      "start": 8.634,
      "duration": 0.2533,
      "velocity": 109,
      "chip": "ym2612"
    },
    {
      "channel": 1,
      "note": 59,
      "start": 8.6348,
      "duration": 0.2533,
      "velocity": 109,
      "chip": "ym2612"
    },
    {
      "channel": 3,
      "note": 59,
      "start": 8.6355,
      "duration": 0.2534,
      "velocity": 109,
      "chip": "ym2612"
    },
    {
      "channel": 0,
      "note": 58,
      "start": 8.888,
      "duration": 0.2534,
      "velocity": 109,
      "chip": "ym2612"
    },
    {
      "channel": 1,
      "note": 58,
      "start": 8.8887,
      "duration": 0.2535,
      "velocity": 109,
      "chip": "ym2612"
    },
    {
      "channel": 3,
      "note": 58,
      "start": 8.8894,
      "duration": 0.2534,
      "velocity": 109,
      "chip": "ym2612"
    },
    {
      "channel": 0,
      "note": 61,
      "start": 9.142,
      "duration": 0.2535,
      "velocity": 109,
      "chip": "ym2612"
    },
    {
      "channel": 1,
      "note": 61,
      "start": 9.1427,
      "duration": 0.2534,
      "velocity": 109,
      "chip": "ym2612"
    },
    {
      "channel": 3,
      "note": 61,
      "start": 9.1434,
      "duration": 0.2535,
      "velocity": 109,
      "chip": "ym2612"
    },
    {
      "channel": 4,
      "note": 61,
      "start": 9.1442,
      "duration": 2.2856,
      "velocity": 109,
      "chip": "ym2612"
    },
    {
      "channel": 5,
      "note": 49,
      "start": 9.1449,
      "duration": 2.2856,
      "velocity": 80,
      "chip": "ym2612"
    },
    {
      "channel": 0,
      "note": 63,
      "start": 9.3961,
      "duration": 0.2533,
      "velocity": 109,
      "chip": "ym2612"
    },
    {
      "channel": 1,
      "note": 63,
      "start": 9.3968,
      "duration": 0.2534,
      "velocity": 109,
      "chip": "ym2612"
    },
    {
      "channel": 3,
      "note": 63,
      "start": 9.3975,
      "duration": 0.2533,
      "velocity": 109,
      "chip": "ym2612"
    },
    {
      "channel": 0,
      "note": 64,
      "start": 9.6499,
      "duration": 0.2535,
      "velocity": 109,
      "chip": "ym2612"
    },
    {
      "channel": 1,
      "note": 64,
      "start": 9.6507,
      "duration": 0.2535,
      "velocity": 109,
      "chip": "ym2612"
    },
    {
      "channel": 3,
      "note": 64,
      "start": 9.6514,
      "duration": 0.2536,
      "velocity": 109,
      "chip": "ym2612"
    },
    {
      "channel": 0,
      "note": 73,
      "start": 9.9041,
      "duration": 0.2534,
      "velocity": 109,
      "chip": "ym2612"
    },
    {
      "channel": 1,
      "note": 73,
      "start": 9.9048,
      "duration": 0.2534,
      "velocity": 109,
      "chip": "ym2612"
    },
    {
      "channel": 3,
      "note": 73,
      "start": 9.9055,
      "duration": 0.2534,
      "velocity": 109,
      "chip": "ym2612"
    },
    {
      "channel": 0,
      "note": 75,
      "start": 10.158,
      "duration": 0.2535,
      "velocity": 109,
      "chip": "ym2612"
    },
    {
      "channel": 1,
      "note": 75,
      "start": 10.1588,
      "duration": 0.2534,
      "velocity": 109,
      "chip": "ym2612"
    },
    {
      "channel": 3,
      "note": 75,
      "start": 10.1595,
      "duration": 0.2534,
      "velocity": 109,
      "chip": "ym2612"
    },
    {
      "channel": 0,
      "note": 76,
      "start": 10.4121,
      "duration": 0.2534,
      "velocity": 109,
      "chip": "ym2612"
    },
    {
      "channel": 1,
      "note": 76,
      "start": 10.4129,
      "duration": 0.2534,
      "velocity": 109,
      "chip": "ym2612"
    },
    {
      "channel": 3,
      "note": 76,
      "start": 10.4136,
      "duration": 0.2533,
      "velocity": 109,
      "chip": "ym2612"
    },
    {
      "channel": 0,
      "note": 85,
      "start": 10.666,
      "duration": 0.2535,
      "velocity": 109,
      "chip": "ym2612"
    },
    {
      "channel": 1,
      "note": 85,
      "start": 10.6668,
      "duration": 0.2535,
      "velocity": 109,
      "chip": "ym2612"
    },
    {
      "channel": 3,
      "note": 85,
      "start": 10.6676,
      "duration": 0.2535,
      "velocity": 109,
      "chip": "ym2612"
    },
    {
      "channel": 0,
      "note": 87,
      "start": 10.9201,
      "duration": 0.2533,
      "velocity": 109,
      "chip": "ym2612"
    },
    {
      "channel": 1,
      "note": 87,
      "start": 10.9209,
      "duration": 0.2533,
      "velocity": 109,
      "chip": "ym2612"
    },
    {
      "channel": 3,
      "note": 87,
      "start": 10.9216,
      "duration": 0.2533,
      "velocity": 109,
      "chip": "ym2612"
    },
    {
      "channel": 0,
      "note": 88,
      "start": 11.1741,
      "duration": 0.2534,
      "velocity": 109,
      "chip": "ym2612"
    },
    {
      "channel": 1,
      "note": 88,
      "start": 11.1748,
      "duration": 0.2534,
      "velocity": 109,
      "chip": "ym2612"
    },
    {
      "channel": 3,
      "note": 88,
      "start": 11.1756,
      "duration": 0.2534,
      "velocity": 109,
      "chip": "ym2612"
    },
    {
      "channel": 0,
      "note": 87,
      "start": 11.428,
      "duration": 0.2534,
      "velocity": 109,
      "chip": "ym2612"
    },
    {
      "channel": 1,
      "note": 87,
      "start": 11.4288,
      "duration": 0.2534,
      "velocity": 109,
      "chip": "ym2612"
    },
    {
      "channel": 3,
      "note": 87,
      "start": 11.4296,
      "duration": 0.2534,
      "velocity": 109,
      "chip": "ym2612"
    },
    {
      "channel": 4,
      "note": 59,
      "start": 11.4303,
      "duration": 2.2854,
      "velocity": 109,
      "chip": "ym2612"
    },
    {
      "channel": 5,
      "note": 47,
      "start": 11.4311,
      "duration": 2.2854,
      "velocity": 80,
      "chip": "ym2612"
    },
    {
      "channel": 0,
      "note": 85,
      "start": 11.6821,
      "duration": 0.2534,
      "velocity": 109,
      "chip": "ym2612"
    },
    {
      "channel": 1,
      "note": 85,
      "start": 11.6828,
      "duration": 0.2534,
      "velocity": 109,
      "chip": "ym2612"
    },
    {
      "channel": 3,
      "note": 85,
      "start": 11.6836,
      "duration": 0.2534,
      "velocity": 109,
      "chip": "ym2612"
    },
    {
      "channel": 0,
      "note": 83,
      "start": 11.9361,
      "duration": 0.2534,
      "velocity": 109,
      "chip": "ym2612"
    },
    {
      "channel": 1,
      "note": 83,
      "start": 11.9369,
      "duration": 0.2534,
      "velocity": 109,
      "chip": "ym2612"
    },
    {
      "channel": 3,
      "note": 83,
      "start": 11.9377,
      "duration": 0.2533,
      "velocity": 109,
      "chip": "ym2612"
    },
    {
      "channel": 0,
      "note": 75,
      "start": 12.1901,
      "duration": 0.2534,
      "velocity": 109,
      "chip": "ym2612"
    },
    {
      "channel": 1,
      "note": 75,
      "start": 12.1908,
      "duration": 0.2534,
      "velocity": 109,
      "chip": "ym2612"
    },
    {
      "channel": 3,
      "note": 75,
      "start": 12.1916,
      "duration": 0.2534,
      "velocity": 109,
      "chip": "ym2612"
    },
    {
      "channel": 0,
      "note": 73,
      "start": 12.4441,
      "duration": 0.2534,
      "velocity": 109,
      "chip": "ym2612"
    },
    {
      "channel": 1,
      "note": 73,
      "start": 12.4448,
      "duration": 0.2535,
      "velocity": 109,
      "chip": "ym2612"
    },
    {
      "channel": 3,
      "note": 73,
      "start": 12.4456,
      "duration": 0.2535,
      "velocity": 109,
      "chip": "ym2612"
    },
    {
      "channel": 0,
      "note": 71,
      "start": 12.6982,
      "duration": 0.2533,
      "velocity": 109,
      "chip": "ym2612"
    },
    {
      "channel": 1,
      "note": 71,
      "start": 12.6989,
      "duration": 0.2533,
      "velocity": 109,
      "chip": "ym2612"
    },
    {
      "channel": 3,
      "note": 71,
      "start": 12.6996,
      "duration": 0.2533,
      "velocity": 109,
      "chip": "ym2612"
    },
    {
      "channel": 0,
      "note": 63,
      "start": 12.952,
      "duration": 0.2535,
      "velocity": 109,
      "chip": "ym2612"
    },
    {
      "channel": 1,
      "note": 63,
      "start": 12.9527,
      "duration": 0.2536,
      "velocity": 109,
      "chip": "ym2612"
    },
    {
      "channel": 3,
      "note": 63,
      "start": 12.9535,
      "duration": 0.2535,
      "velocity": 109,
      "chip": "ym2612"
    },
    {
      "channel": 0,
      "note": 61,
      "start": 13.2061,
      "duration": 0.2534,
      "velocity": 109,
      "chip": "ym2612"
    },
    {
      "channel": 1,
      "note": 61,
      "start": 13.2069,
      "duration": 0.2534,
      "velocity": 109,
      "chip": "ym2612"
    },
    {
      "channel": 3,
      "note": 61,
      "start": 13.2076,
      "duration": 0.2534,
      "velocity": 109,
      "chip": "ym2612"
    },
    {
      "channel": 0,
      "note": 59,
      "start": 13.4601,
      "duration": 0.2534,
      "velocity": 109,
      "chip": "ym2612"
    },
    {
      "channel": 1,
      "note": 59,
      "start": 13.4608,
      "duration": 0.2534,
      "velocity": 109,
      "chip": "ym2612"
    },
    {
      "channel": 3,
      "note": 59,
      "start": 13.4616,
      "duration": 0.2534,
      "velocity": 109,
      "chip": "ym2612"
    },
    {
      "channel": 0,
      "note": 57,
      "start": 13.7141,
      "duration": 0.2535,
      "velocity": 109,
      "chip": "ym2612"
    },
    {
      "channel": 1,
      "note": 57,
      "start": 13.7149,
      "duration": 0.2534,
      "velocity": 109,
      "chip": "ym2612"
    },
    {
      "channel": 3,
      "note": 57,
      "start": 13.7156,
      "duration": 0.2534,
      "velocity": 109,
      "chip": "ym2612"
    },
    {
      "channel": 4,
      "note": 57,
      "start": 13.7163,
      "duration": 2.2855,
      "velocity": 109,
      "chip": "ym2612"
    },
    {
      "channel": 5,
      "note": 45,
      "start": 13.7171,
      "duration": 2.2855,
      "velocity": 80,
      "chip": "ym2612"
    },
    {
      "channel": 0,
      "note": 59,
      "start": 13.9681,
      "duration": 0.2534,
      "velocity": 109,
      "chip": "ym2612"
    },
    {
      "channel": 1,
      "note": 59,
      "start": 13.9689,
      "duration": 0.2533,
      "velocity": 109,
      "chip": "ym2612"
    },
    {
      "channel": 3,
      "note": 59,
      "start": 13.9696,
      "duration": 0.2534,
      "velocity": 109,
      "chip": "ym2612"
    },
    {
      "channel": 0,
      "note": 61,
      "start": 14.2221,
      "duration": 0.2535,
      "velocity": 109,
      "chip": "ym2612"
    },
    {
      "channel": 1,
      "note": 61,
      "start": 14.2228,
      "duration": 0.2536,
      "velocity": 109,
      "chip": "ym2612"
    },
    {
      "channel": 3,
      "note": 61,
      "start": 14.2235,
      "duration": 0.2535,
      "velocity": 109,
      "chip": "ym2612"
    },
    {
      "channel": 0,
      "note": 69,
      "start": 14.4761,
      "duration": 0.2534,
      "velocity": 109,
      "chip": "ym2612"
    },
    {
      "channel": 1,
      "note": 69,
      "start": 14.4769,
      "duration": 0.2533,
      "velocity": 109,
      "chip": "ym2612"
    },
    {
      "channel": 3,
      "note": 69,
      "start": 14.4777,
      "duration": 0.2534,
      "velocity": 109,
      "chip": "ym2612"
    },
    {
      "channel": 0,
      "note": 71,
      "start": 14.7301,
      "duration": 0.2534,
      "velocity": 109,
      "chip": "ym2612"
    },
    {
      "channel": 1,
      "note": 71,
      "start": 14.7309,
      "duration": 0.2534,
      "velocity": 109,
      "chip": "ym2612"
    },
    {
      "channel": 3,
      "note": 71,
      "start": 14.7316,
      "duration": 0.2534,
      "velocity": 109,
      "chip": "ym2612"
    },
    {
      "channel": 0,
      "note": 73,
      "start": 14.9841,
      "duration": 0.2534,
      "velocity": 109,
      "chip": "ym2612"
    },
    {
      "channel": 1,
      "note": 73,
      "start": 14.9849,
      "duration": 0.2534,
      "velocity": 109,
      "chip": "ym2612"
    },
    {
      "channel": 3,
      "note": 73,
      "start": 14.9856,
      "duration": 0.2535,
      "velocity": 109,
      "chip": "ym2612"
    },
    {
      "channel": 0,
      "note": 81,
      "start": 15.2382,
      "duration": 0.2533,
      "velocity": 109,
      "chip": "ym2612"
    },
    {
      "channel": 1,
      "note": 81,
      "start": 15.2389,
      "duration": 0.2533,
      "velocity": 109,
      "chip": "ym2612"
    },
    {
      "channel": 3,
      "note": 81,
      "start": 15.2397,
      "duration": 0.2533,
      "velocity": 109,
      "chip": "ym2612"
    },
    {
      "channel": 0,
      "note": 83,
      "start": 15.4921,
      "duration": 0.2534,
      "velocity": 109,
      "chip": "ym2612"
    },
    {
      "channel": 1,
      "note": 83,
      "start": 15.4929,
      "duration": 0.2534,
      "velocity": 109,
      "chip": "ym2612"
    },
    {
      "channel": 3,
      "note": 83,
      "start": 15.4937,
      "duration": 0.2534,
      "velocity": 109,
      "chip": "ym2612"
    },
    {
      "channel": 0,
      "note": 85,
      "start": 15.7462,
      "duration": 0.2534,
      "velocity": 109,
      "chip": "ym2612"
    },
    {
      "channel": 1,
      "note": 85,
      "start": 15.7469,
      "duration": 0.2534,
      "velocity": 109,
      "chip": "ym2612"
    },
    {
      "channel": 3,
      "note": 85,
      "start": 15.7477,
      "duration": 0.2534,
      "velocity": 109,
      "chip": "ym2612"
    },
    {
      "channel": 0,
      "note": 82,
      "start": 16.0002,
      "duration": 0.2534,
      "velocity": 109,
      "chip": "ym2612"
    },
    {
      "channel": 1,
      "note": 82,
      "start": 16.0009,
      "duration": 0.2534,
      "velocity": 109,
      "chip": "ym2612"
    },
    {
      "channel": 3,
      "note": 82,
      "start": 16.0017,
      "duration": 0.2534,
      "velocity": 109,
      "chip": "ym2612"
    },
    {
      "channel": 4,
      "note": 66,
      "start": 16.0024,
      "duration": 2.2857,
      "velocity": 109,
      "chip": "ym2612"
    },
    {
      "channel": 5,
      "note": 54,
      "start": 16.0031,
      "duration": 2.2858,
      "velocity": 80,
      "chip": "ym2612"
    },
    {
      "channel": 0,
      "note": 80,
      "start": 16.2541,
      "duration": 0.2534,
      "velocity": 109,
      "chip": "ym2612"
    },
    {
      "channel": 1,
      "note": 80,
      "start": 16.2549,
      "duration": 0.2534,
      "velocity": 109,
      "chip": "ym2612"
    },
    {
      "channel": 3,
      "note": 80,
      "start": 16.2557,
      "duration": 0.2534,
      "velocity": 109,
      "chip": "ym2612"
    },
    {
      "channel": 0,
      "note": 78,
      "start": 16.5081,
      "duration": 0.2536,
      "velocity": 109,
      "chip": "ym2612"
    },
    {
      "channel": 1,
      "note": 78,
      "start": 16.5089,
      "duration": 0.2536,
      "velocity": 109,
      "chip": "ym2612"
    },
    {
      "channel": 3,
      "note": 78,
      "start": 16.5096,
      "duration": 0.2536,
      "velocity": 109,
      "chip": "ym2612"
    },
    {
      "channel": 0,
      "note": 70,
      "start": 16.7623,
      "duration": 0.2533,
      "velocity": 109,
      "chip": "ym2612"
    },
    {
      "channel": 1,
      "note": 70,
      "start": 16.7631,
      "duration": 0.2532,
      "velocity": 109,
      "chip": "ym2612"
    },
    {
      "channel": 3,
      "note": 70,
      "start": 16.7638,
      "duration": 0.2533,
      "velocity": 109,
      "chip": "ym2612"
    },
    {
      "channel": 0,
      "note": 68,
      "start": 17.0162,
      "duration": 0.2534,
      "velocity": 109,
      "chip": "ym2612"
    },
    {
      "channel": 1,
      "note": 68,
      "start": 17.0169,
      "duration": 0.2534,
      "velocity": 109,
      "chip": "ym2612"
    },
    {
      "channel": 3,
      "note": 68,
      "start": 17.0177,
      "duration": 0.2534,
      "velocity": 109,
      "chip": "ym2612"
    },
    {
      "channel": 0,
      "note": 66,
      "start": 17.2702,
      "duration": 0.2535,
      "velocity": 109,
      "chip": "ym2612"
    },
    {
      "channel": 1,
      "note": 66,
      "start": 17.2709,
      "duration": 0.2534,
      "velocity": 109,
      "chip": "ym2612"
    },
    {
      "channel": 3,
      "note": 66,
      "start": 17.2716,
      "duration": 0.2535,
      "velocity": 109,
      "chip": "ym2612"
    },
    {
      "channel": 0,
      "note": 58,
      "start": 17.5242,
      "duration": 0.2534,
      "velocity": 109,
      "chip": "ym2612"
    },
    {
      "channel": 1,
      "note": 58,
      "start": 17.5249,
      "duration": 0.2534,
      "velocity": 109,
      "chip": "ym2612"
    },
    {
      "channel": 3,
      "note": 58,
      "start": 17.5257,
      "duration": 0.2534,
      "velocity": 109,
      "chip": "ym2612"
    },
    {
      "channel": 0,
      "note": 56,
      "start": 17.7783,
      "duration": 0.2534,
      "velocity": 109,
      "chip": "ym2612"
    },
    {
      "channel": 1,
      "note": 56,
      "start": 17.779,
      "duration": 0.2534,
      "velocity": 109,
      "chip": "ym2612"
    },
    {
      "channel": 3,
      "note": 56,
      "start": 17.7797,
      "duration": 0.2534,
      "velocity": 109,
      "chip": "ym2612"
    },
    {
      "channel": 0,
      "note": 54,
      "start": 18.0322,
      "duration": 0.2535,
      "velocity": 109,
      "chip": "ym2612"
    },
    {
      "channel": 1,
      "note": 54,
      "start": 18.0329,
      "duration": 0.2536,
      "velocity": 109,
      "chip": "ym2612"
    },
    {
      "channel": 3,
      "note": 54,
      "start": 18.0337,
      "duration": 0.2536,
      "velocity": 109,
      "chip": "ym2612"
    },
    {
      "channel": 0,
      "note": 59,
      "start": 18.2863,
      "duration": 0.2533,
      "velocity": 109,
      "chip": "ym2612"
    },
    {
      "channel": 1,
      "note": 59,
      "start": 18.2871,
      "duration": 0.2532,
      "velocity": 109,
      "chip": "ym2612"
    },
    {
      "channel": 3,
      "note": 59,
      "start": 18.2879,
      "duration": 0.2531,
      "velocity": 109,
      "chip": "ym2612"
    },
    {
      "channel": 4,
      "note": 59,
      "start": 18.2888,
      "duration": 0.2536,
      "velocity": 109,
      "chip": "ym2612"
    },
    {
      "channel": 5,
      "note": 47,
      "start": 18.2895,
      "duration": 0.2528,
      "velocity": 80,
      "chip": "ym2612"
    },
    {
      "channel": 0,
      "note": 61,
      "start": 18.5401,
      "duration": 0.0022,
      "velocity": 109,
      "chip": "ym2612"
    },
    {
      "channel": 1,
      "note": 61,
      "start": 18.5409,
      "duration": 0.0014,
      "velocity": 109,
      "chip": "ym2612"
    },
    {
      "channel": 3,
      "note": 61,
      "start": 18.5416,
      "duration": 0.0007,
      "velocity": 109,
      "chip": "ym2612"
    }
  ]
}