{
  "track_name": "19 - Unknown Track 6",
  "duration_sec": 73.1,
  "sample_rate": 44100,
  "note_count": 1228,
  "unique_pitches": 37,
  "pitch_range": 52,
  "avg_note_duration": 0.19,
  "reconstruction_stats": {
    "notes_reconstructed": 1228,
    "keyon_events": 1228,
    "keyoff_events": 1228,
    "orphan_keyons": 0,
    "unique_pitches": 37,
    "pitch_range": 52,
    "avg_duration_sec": 0.19
  },
  "metadata": {
    "source": "F\\F1 Grand Prix\\19 - Unknown Track 6.vgz"
  },
  "notes": [
    {
      "channel": 4,
      "note": 56,
      "start": 0.0022,
      "duration": 0.5253,
      "velocity": 127,
      "chip": "ym2612"
    },
    {
      "channel": 4,
      "note": 56,
      "start": 0.604,
      "duration": 0.5303,
      "velocity": 127,
      "chip": "ym2612"
    },
    {
      "channel": 4,
      "note": 56,
      "start": 1.2101,
      "duration": 0.2781,
      "velocity": 127,
      "chip": "ym2612"
    },
    {
      "channel": 4,
      "note": 56,
      "start": 1.5135,
      "duration": 0.278,
      "velocity": 127,
      "chip": "ym2612"
    },
    {
      "channel": 4,
      "note": 68,
      "start": 1.8183,
      "duration": 0.1249,
      "velocity": 127,
      "chip": "ym2612"
    },
    {
      "channel": 4,
      "note": 61,
      "start": 1.9705,
      "duration": 0.1245,
      "velocity": 105,
      "chip": "ym2612"
    },
    {
      "channel": 4,
      "note": 59,
      "start": 2.1207,
      "duration": 0.1259,
      "velocity": 105,
      "chip": "ym2612"
    },
    {
      "channel": 4,
      "note": 57,
      "start": 2.2719,
      "duration": 0.1263,
      "velocity": 105,
      "chip": "ym2612"
    },
    {
      "channel": 3,
      "note": 47,
      "start": 2.4265,
      "duration": 0.1235,
      "velocity": 88,
      "chip": "ym2612"
    },
    {
      "channel": 4,
      "note": 45,
      "start": 2.4281,
      "duration": 0.2737,
      "velocity": 101,
      "chip": "ym2612"
    },
    {
      "channel": 3,
      "note": 59,
      "start": 2.5754,
      "duration": 0.1263,
      "velocity": 88,
      "chip": "ym2612"
    },
    {
      "channel": 3,
      "note": 47,
      "start": 2.727,
      "duration": 0.1269,
      "velocity": 88,
      "chip": "ym2612"
    },
    {
      "channel": 4,
      "note": 45,
      "start": 2.7271,
      "duration": 0.278,
      "velocity": 101,
      "chip": "ym2612"
    },
    {
      "channel": 3,
      "note": 57,
      "start": 2.8786,
      "duration": 0.1263,
      "velocity": 88,
      "chip": "ym2612"
    },
    {
      "channel": 3,
      "note": 47,
      "start": 3.0303,
      "duration": 0.1263,
      "velocity": 88,
      "chip": "ym2612"
    },
    {
      "channel": 4,
      "note": 45,
      "start": 3.0304,
      "duration": 0.278,
      "velocity": 101,
      "chip": "ym2612"
    },
    {
      "channel": 3,
      "note": 54,
      "start": 3.182,
      "duration": 0.1263,
      "velocity": 88,
      "chip": "ym2612"
    },
    {
      "channel": 3,
      "note": 47,
      "start": 3.3337,
      "duration": 0.1263,
      "velocity": 88,
      "chip": "ym2612"
    },
    {
      "channel": 4,
      "note": 45,
      "start": 3.3339,
      "duration": 0.278,
      "velocity": 101,
      "chip": "ym2612"
    },
    {
      "channel": 3,
      "note": 53,
      "start": 3.4854,
      "duration": 0.1263,
      "velocity": 88,
      "chip": "ym2612"
    },
    {
      "channel": 3,
      "note": 47,
      "start": 3.6373,
      "duration": 0.1261,
      "velocity": 88,
      "chip": "ym2612"
    },
    {
      "channel": 4,
      "note": 45,
      "start": 3.6374,
      "duration": 0.2777,
      "velocity": 101,
      "chip": "ym2612"
    },
    {
      "channel": 3,
      "note": 52,
      "start": 3.7888,
      "duration": 0.1263,
      "velocity": 88,
      "chip": "ym2612"
    },
    {
      "channel": 3,
      "note": 47,
      "start": 3.9404,
      "duration": 0.1263,
      "velocity": 88,
      "chip": "ym2612"
    },
    {
      "channel": 4,
      "note": 45,
      "start": 3.9405,
      "duration": 0.278,
      "velocity": 101,
      "chip": "ym2612"
    },
    {
      "channel": 3,
      "note": 50,
      "start": 4.0921,
      "duration": 0.1263,
      "velocity": 88,
      "chip": "ym2612"
    },
    {
      "channel": 3,
      "note": 52,
      "start": 4.2438,
      "duration": 0.1268,
      "velocity": 88,
      "chip": "ym2612"
    },
    {
      "channel": 4,
      "note": 45,
      "start": 4.2439,
      "duration": 0.278,
      "velocity": 101,
      "chip": "ym2612"
    },
    {
      "channel": 3,
      "note": 50,
      "start": 4.3954,
      "duration": 0.1263,
      "velocity": 88,
      "chip": "ym2612"
    },
    {
      "channel": 3,
      "note": 45,
      "start": 4.5472,
      "duration": 0.1263,
      "velocity": 88,
      "chip": "ym2612"
    },
    {
      "channel": 4,
      "note": 45,
      "start": 4.5473,
      "duration": 0.2781,
      "velocity": 101,
      "chip": "ym2612"
    },
    {
      "channel": 3,
      "note": 46,
      "start": 4.6988,
      "duration": 0.1264,
      "velocity": 88,
      "chip": "ym2612"
    },
    {
      "channel": 3,
      "note": 47,
      "start": 4.8505,
      "duration": 0.1263,
      "velocity": 88,
      "chip": "ym2612"
    },
    {
      "channel": 4,
      "note": 45,
      "start": 4.8506,
      "duration": 0.278,
      "velocity": 101,
      "chip": "ym2612"
    },
    {
      "channel": 3,
      "note": 59,
      "start": 5.0022,
      "duration": 0.1263,
      "velocity": 88,
      "chip": "ym2612"
    },
    {
      "channel": 3,
      "note": 47,
      "start": 5.154,
      "duration": 0.1261,
      "velocity": 88,
      "chip": "ym2612"
    },
    {
      "channel": 4,
      "note": 45,
      "start": 5.1541,
      "duration": 0.2779,
      "velocity": 101,
      "chip": "ym2612"
    },
    {
      "channel": 3,
      "note": 57,
      "start": 5.3056,
      "duration": 0.1263,
      "velocity": 88,
      "chip": "ym2612"
    },
    {
      "channel": 3,
      "note": 47,
      "start": 5.4572,
      "duration": 0.1264,
      "velocity": 88,
      "chip": "ym2612"
    },
    {
      "channel": 4,
      "note": 45,
      "start": 5.4573,
      "duration": 0.278,
      "velocity": 101,
      "chip": "ym2612"
    },
    {
      "channel": 3,
      "note": 54,
      "start": 5.6089,
      "duration": 0.1263,
      "velocity": 88,
      "chip": "ym2612"
    },
    {
      "channel": 3,
      "note": 47,
      "start": 5.7606,
      "duration": 0.1266,
      "velocity": 88,
      "chip": "ym2612"
    },
    {
      "channel": 4,
      "note": 45,
      "start": 5.7607,
      "duration": 0.278,
      "velocity": 101,
      "chip": "ym2612"
    },
    {
      "channel": 3,
      "note": 53,
      "start": 5.9122,
      "duration": 0.1263,
      "velocity": 88,
      "chip": "ym2612"
    },
    {
      "channel": 3,
      "note": 47,
      "start": 6.0639,
      "duration": 0.1263,
      "velocity": 88,
      "chip": "ym2612"
    },
    {
      "channel": 4,
      "note": 45,
      "start": 6.0641,
      "duration": 0.278,
      "velocity": 101,
      "chip": "ym2612"
    },
    {
      "channel": 3,
      "note": 52,
      "start": 6.2156,
      "duration": 0.1264,
      "velocity": 88,
      "chip": "ym2612"
    },
    {
      "channel": 3,
      "note": 47,
      "start": 6.3673,
      "duration": 0.1263,
      "velocity": 88,
      "chip": "ym2612"
    },
    {
      "channel": 4,
      "note": 45,
      "start": 6.3675,
      "duration": 0.278,
      "velocity": 101,
      "chip": "ym2612"
    },
    {
      "channel": 3,
      "note": 50,
      "start": 6.519,
      "duration": 0.1263,
      "velocity": 88,
      "chip": "ym2612"
    },
    {
      "channel": 3,
      "note": 52,
      "start": 6.6707,
      "duration": 0.1263,
      "velocity": 88,
      "chip": "ym2612"
    },
    {
      "channel": 4,
      "note": 45,
      "start": 6.6708,
      "duration": 0.278,
      "velocity": 101,
      "chip": "ym2612"
    },
    {
      "channel": 3,
      "note": 53,
      "start": 6.8224,
      "duration": 0.1263,
      "velocity": 88,
      "chip": "ym2612"
    },
    {
      "channel": 3,
      "note": 54,
      "start": 6.9741,
      "duration": 0.1263,
      "velocity": 88,
      "chip": "ym2612"
    },
    {
      "channel": 4,
      "note": 45,
      "start": 6.9742,
      "duration": 0.278,
      "velocity": 101,
      "chip": "ym2612"
    },
    {
      "channel": 3,
      "note": 57,
      "start": 7.1257,
      "duration": 0.1263,
      "velocity": 88,
      "chip": "ym2612"
    },
    {
      "channel": 3,
      "note": 47,
      "start": 7.2774,
      "duration": 0.1265,
      "velocity": 88,
      "chip": "ym2612"
    },
    {
      "channel": 4,
      "note": 45,
      "start": 7.2776,
      "duration": 0.2779,
      "velocity": 101,
      "chip": "ym2612"
    },
    {
      "channel": 3,
      "note": 59,
      "start": 7.4291,
      "duration": 0.1263,
      "velocity": 88,
      "chip": "ym2612"
    },
    {
      "channel": 3,
      "note": 47,
      "start": 7.5807,
      "duration": 0.1263,
      "velocity": 88,
      "chip": "ym2612"
    },
    {
      "channel": 4,
      "note": 45,
      "start": 7.5809,
      "duration": 0.278,
      "velocity": 101,
      "chip": "ym2612"
    },
    {
      "channel": 3,
      "note": 57,
      "start": 7.7324,
      "duration": 0.1263,
      "velocity": 88,
      "chip": "ym2612"
    },
    {
      "channel": 3,
      "note": 47,
      "start": 7.8841,
      "duration": 0.1263,
      "velocity": 88,
      "chip": "ym2612"
    },
    {
      "channel": 4,
      "note": 45,
      "start": 7.8842,
      "duration": 0.278,
      "velocity": 101,
      "chip": "ym2612"
    },
    {
      "channel": 3,
      "note": 54,
      "start": 8.0358,
      "duration": 0.1263,
      "velocity": 88,
      "chip": "ym2612"
    },
    {
      "channel": 3,
      "note": 47,
      "start": 8.1875,
      "duration": 0.1263,
      "velocity": 88,
      "chip": "ym2612"
    },
    {
      "channel": 4,
      "note": 45,
      "start": 8.1876,
      "duration": 0.278,
      "velocity": 101,
      "chip": "ym2612"
    },
    {
      "channel": 3,
      "note": 53,
      "start": 8.3391,
      "duration": 0.1263,
      "velocity": 88,
      "chip": "ym2612"
    },
    {
      "channel": 3,
      "note": 47,
      "start": 8.4909,
      "duration": 0.1263,
      "velocity": 88,
      "chip": "ym2612"
    },
    {
      "channel": 4,
      "note": 45,
      "start": 8.491,
      "duration": 0.278,
      "velocity": 101,
      "chip": "ym2612"
    },
    {
      "channel": 3,
      "note": 52,
      "start": 8.6425,
      "duration": 0.1263,
      "velocity": 88,
      "chip": "ym2612"
    },
    {
      "channel": 3,
      "note": 47,
      "start": 8.7942,
      "duration": 0.1264,
      "velocity": 88,
      "chip": "ym2612"
    },
    {
      "channel": 4,
      "note": 45,
      "start": 8.7943,
      "duration": 0.278,
      "velocity": 101,
      "chip": "ym2612"
    },
    {
      "channel": 3,
      "note": 50,
      "start": 8.9459,
      "duration": 0.1263,
      "velocity": 88,
      "chip": "ym2612"
    },
    {
      "channel": 3,
      "note": 52,
      "start": 9.0976,
      "duration": 0.1264,
      "velocity": 88,
      "chip": "ym2612"
    },
    {
      "channel": 4,
      "note": 45,
      "start": 9.0977,
      "duration": 0.278,
      "velocity": 101,
      "chip": "ym2612"
    },
    {
      "channel": 3,
      "note": 50,
      "start": 9.2493,
      "duration": 0.1263,
      "velocity": 88,
      "chip": "ym2612"
    },
    {
      "channel": 3,
      "note": 45,
      "start": 9.401,
      "duration": 0.1263,
      "velocity": 88,
      "chip": "ym2612"
    },
    {
      "channel": 4,
      "note": 45,
      "start": 9.4011,
      "duration": 0.2779,
      "velocity": 101,
      "chip": "ym2612"
    },
    {
      "channel": 3,
      "note": 46,
      "start": 9.5526,
      "duration": 0.1263,
      "velocity": 88,
      "chip": "ym2612"
    },
    {
      "channel": 3,
      "note": 47,
      "start": 9.7043,
      "duration": 0.1263,
      "velocity": 88,
      "chip": "ym2612"
    },
    {
      "channel": 4,
      "note": 45,
      "start": 9.7044,
      "duration": 0.278,
      "velocity": 101,
      "chip": "ym2612"
    },
    {
      "channel": 3,
      "note": 59,
      "start": 9.856,
      "duration": 0.1263,
      "velocity": 88,
      "chip": "ym2612"
    },
    {
      "channel": 3,
      "note": 47,
      "start": 10.0077,
      "duration": 0.1263,
      "velocity": 88,
      "chip": "ym2612"
    },
    {
      "channel": 4,
      "note": 45,
      "start": 10.0078,
      "duration": 0.278,
      "velocity": 101,
      "chip": "ym2612"
    },
    {
      "channel": 3,
      "note": 57,
      "start": 10.1594,
      "duration": 0.1263,
      "velocity": 88,
      "chip": "ym2612"
    },
    {
      "channel": 3,
      "note": 47,
      "start": 10.311,
      "duration": 0.1263,
      "velocity": 88,
      "chip": "ym2612"
    },
    {
      "channel": 4,
      "note": 45,
      "start": 10.3112,
      "duration": 0.278,
      "velocity": 101,
      "chip": "ym2612"
    },
    {
      "channel": 3,
      "note": 54,
      "start": 10.4627,
      "duration": 0.1263,
      "velocity": 88,
      "chip": "ym2612"
    },
    {
      "channel": 3,
      "note": 47,
      "start": 10.6143,
      "duration": 0.1264,
      "velocity": 88,
      "chip": "ym2612"
    },
    {
      "channel": 4,
      "note": 45,
      "start": 10.6145,
      "duration": 0.278,
      "velocity": 101,
      "chip": "ym2612"
    },
    {
      "channel": 3,
      "note": 53,
      "start": 10.7661,
      "duration": 0.1263,
      "velocity": 88,
      "chip": "ym2612"
    },
    {
      "channel": 3,
      "note": 47,
      "start": 10.9177,
      "duration": 0.1263,
      "velocity": 88,
      "chip": "ym2612"
    },
    {
      "channel": 4,
      "note": 68,
      "start": 10.9194,
      "duration": 0.1248,
      "velocity": 127,
      "chip": "ym2612"
    },
    {
      "channel": 3,
      "note": 52,
      "start": 11.0694,
      "duration": 0.1263,
      "velocity": 88,
      "chip": "ym2612"
    },
    {
      "channel": 4,
      "note": 45,
      "start": 11.0715,
      "duration": 0.2761,
      "velocity": 101,
      "chip": "ym2612"
    },
    {
      "channel": 3,
      "note": 47,
      "start": 11.2211,
      "duration": 0.1263,
      "velocity": 88,
      "chip": "ym2612"
    },
    {
      "channel": 3,
      "note": 50,
      "start": 11.3728,
      "duration": 0.1263,
      "velocity": 88,
      "chip": "ym2612"
    },
    {
      "channel": 4,
      "note": 45,
      "start": 11.3729,
      "duration": 0.278,
      "velocity": 101,
      "chip": "ym2612"
    },
    {
      "channel": 3,
      "note": 52,
      "start": 11.5244,
      "duration": 0.1263,
      "velocity": 88,
      "chip": "ym2612"
    },
    {
      "channel": 3,
      "note": 53,
      "start": 11.6762,
      "duration": 0.1263,
      "velocity": 88,
      "chip": "ym2612"
    },
    {
      "channel": 4,
      "note": 45,
      "start": 11.6763,
      "duration": 0.1263,
      "velocity": 101,
      "chip": "ym2612"
    },
    {
      "channel": 3,
      "note": 54,
      "start": 11.8278,
      "duration": 0.1263,
      "velocity": 88,
      "chip": "ym2612"
    },
    {
      "channel": 4,
      "note": 68,
      "start": 11.8295,
      "duration": 0.2765,
      "velocity": 127,
      "chip": "ym2612"
    },
    {
      "channel": 3,
      "note": 57,
      "start": 11.9795,
      "duration": 0.1264,
      "velocity": 88,
      "chip": "ym2612"
    },
    {
      "channel": 3,
      "note": 47,
      "start": 12.1312,
      "duration": 0.1263,
      "velocity": 88,
      "chip": "ym2612"
    },
    {
      "channel": 4,
      "note": 45,
      "start": 12.1329,
      "duration": 0.2765,
      "velocity": 101,
      "chip": "ym2612"
    },
    {
      "channel": 5,
      "note": 95,
      "start": 12.1333,
      "duration": 0.1244,
      "velocity": 105,
      "chip": "ym2612"
    },
    {
      "channel": 3,
      "note": 59,
      "start": 12.2829,
      "duration": 0.1263,
      "velocity": 88,
      "chip": "ym2612"
    },
    {
      "channel": 5,
      "note": 83,
      "start": 12.2831,
      "duration": 0.1263,
      "velocity": 105,
      "chip": "ym2612"
    },
    {
      "channel": 3,
      "note": 47,
      "start": 12.4345,
      "duration": 0.1264,
      "velocity": 88,
      "chip": "ym2612"
    },
    {
      "channel": 4,
      "note": 68,
      "start": 12.4361,
      "duration": 0.2766,
      "velocity": 127,
      "chip": "ym2612"
    },
    {
      "channel": 5,
      "note": 90,
      "start": 12.4363,
      "duration": 0.1247,
      "velocity": 105,
      "chip": "ym2612"
    },
    {
      "channel": 3,
      "note": 57,
      "start": 12.5862,
      "duration": 0.1264,
      "velocity": 88,
      "chip": "ym2612"
    },
    {
      "channel": 5,
      "note": 83,
      "start": 12.5864,
      "duration": 0.1265,
      "velocity": 105,
      "chip": "ym2612"
    },
    {
      "channel": 3,
      "note": 47,
      "start": 12.7379,
      "duration": 0.1263,
      "velocity": 88,
      "chip": "ym2612"
    },
    {
      "channel": 4,
      "note": 45,
      "start": 12.7396,
      "duration": 0.2765,
      "velocity": 101,
      "chip": "ym2612"
    },
    {
      "channel": 5,
      "note": 95,
      "start": 12.7398,
      "duration": 0.1246,
      "velocity": 105,
      "chip": "ym2612"
    },
    {
      "channel": 3,
      "note": 54,
      "start": 12.8896,
      "duration": 0.1263,
      "velocity": 88,
      "chip": "ym2612"
    },
    {
      "channel": 5,
      "note": 83,
      "start": 12.8898,
      "duration": 0.1263,
      "velocity": 105,
      "chip": "ym2612"
    },
    {
      "channel": 3,
      "note": 47,
      "start": 13.0412,
      "duration": 0.1263,
      "velocity": 88,
      "chip": "ym2612"
    },
    {
      "channel": 4,
      "note": 68,
      "start": 13.0429,
      "duration": 0.2765,
      "velocity": 127,
      "chip": "ym2612"
    },
    {
      "channel": 5,
      "note": 90,
      "start": 13.0431,
      "duration": 0.1246,
      "velocity": 105,
      "chip": "ym2612"
    },
    {
      "channel": 3,
      "note": 53,
      "start": 13.193,
      "duration": 0.1263,
      "velocity": 88,
      "chip": "ym2612"
    },
    {
      "channel": 5,
      "note": 83,
      "start": 13.1932,
      "duration": 0.1264,
      "velocity": 105,
      "chip": "ym2612"
    },
    {
      "channel": 3,
      "note": 47,
      "start": 13.3447,
      "duration": 0.1263,
      "velocity": 88,
      "chip": "ym2612"
    },
    {
      "channel": 4,
      "note": 45,
      "start": 13.3463,
      "duration": 0.2765,
      "velocity": 101,
      "chip": "ym2612"
    },
    {
      "channel": 5,
      "note": 95,
      "start": 13.3465,
      "duration": 0.1246,
      "velocity": 105,
      "chip": "ym2612"
    },
    {
      "channel": 3,
      "note": 52,
      "start": 13.4963,
      "duration": 0.1263,
      "velocity": 88,
      "chip": "ym2612"
    },
    {
      "channel": 5,
      "note": 83,
      "start": 13.4965,
      "duration": 0.1264,
      "velocity": 105,
      "chip": "ym2612"
    },
    {
      "channel": 3,
      "note": 47,
      "start": 13.648,
      "duration": 0.1263,
      "velocity": 88,
      "chip": "ym2612"
    },
    {
      "channel": 4,
      "note": 68,
      "start": 13.6497,
      "duration": 0.2764,
      "velocity": 127,
      "chip": "ym2612"
    },
    {
      "channel": 5,
      "note": 90,
      "start": 13.6498,
      "duration": 0.1246,
      "velocity": 105,
      "chip": "ym2612"
    },
    {
      "channel": 3,
      "note": 50,
      "start": 13.7997,
      "duration": 0.1263,
      "velocity": 88,
      "chip": "ym2612"
    },
    {
      "channel": 5,
      "note": 83,
      "start": 13.7999,
      "duration": 0.1263,
      "velocity": 105,
      "chip": "ym2612"
    },
    {
      "channel": 3,
      "note": 52,
      "start": 13.9514,
      "duration": 0.1264,
      "velocity": 88,
      "chip": "ym2612"
    },
    {
      "channel": 4,
      "note": 45,
      "start": 13.953,
      "duration": 0.2765,
      "velocity": 101,
      "chip": "ym2612"
    },
    {
      "channel": 5,
      "note": 95,
      "start": 13.9536,
      "duration": 0.1243,
      "velocity": 105,
      "chip": "ym2612"
    },
    {
      "channel": 3,
      "note": 50,
      "start": 14.103,
      "duration": 0.1263,
      "velocity": 88,
      "chip": "ym2612"
    },
    {
      "channel": 5,
      "note": 83,
      "start": 14.1037,
      "duration": 0.126,
      "velocity": 105,
      "chip": "ym2612"
    },
    {
      "channel": 3,
      "note": 45,
      "start": 14.2547,
      "duration": 0.1263,
      "velocity": 88,
      "chip": "ym2612"
    },
    {
      "channel": 4,
      "note": 68,
      "start": 14.2564,
      "duration": 0.2765,
      "velocity": 127,
      "chip": "ym2612"
    },
    {
      "channel": 5,
      "note": 90,
      "start": 14.2565,
      "duration": 0.1247,
      "velocity": 105,
      "chip": "ym2612"
    },
    {
      "channel": 3,
      "note": 46,
      "start": 14.4064,
      "duration": 0.1263,
      "velocity": 88,
      "chip": "ym2612"
    },
    {
      "channel": 5,
      "note": 83,
      "start": 14.4066,
      "duration": 0.1263,
      "velocity": 105,
      "chip": "ym2612"
    },
    {
      "channel": 3,
      "note": 47,
      "start": 14.5581,
      "duration": 0.1263,
      "velocity": 88,
      "chip": "ym2612"
    },
    {
      "channel": 4,
      "note": 45,
      "start": 14.5597,
      "duration": 0.2765,
      "velocity": 101,
      "chip": "ym2612"
    },
    {
      "channel": 5,
      "note": 95,
      "start": 14.5599,
      "duration": 0.1247,
      "velocity": 105,
      "chip": "ym2612"
    },
    {
      "channel": 3,
      "note": 59,
      "start": 14.7098,
      "duration": 0.1263,
      "velocity": 88,
      "chip": "ym2612"
    },
    {
      "channel": 5,
      "note": 83,
      "start": 14.71,
      "duration": 0.1263,
      "velocity": 105,
      "chip": "ym2612"
    },
    {
      "channel": 3,
      "note": 47,
      "start": 14.8615,
      "duration": 0.1263,
      "velocity": 88,
      "chip": "ym2612"
    },
    {
      "channel": 4,
      "note": 68,
      "start": 14.8631,
      "duration": 0.2765,
      "velocity": 127,
      "chip": "ym2612"
    },
    {
      "channel": 5,
      "note": 90,
      "start": 14.8633,
      "duration": 0.1246,
      "velocity": 105,
      "chip": "ym2612"
    },
    {
      "channel": 3,
      "note": 57,
      "start": 15.0131,
      "duration": 0.1264,
      "velocity": 88,
      "chip": "ym2612"
    },
    {
      "channel": 5,
      "note": 83,
      "start": 15.0133,
      "duration": 0.1265,
      "velocity": 105,
      "chip": "ym2612"
    },
    {
      "channel": 3,
      "note": 47,
      "start": 15.1648,
      "duration": 0.1263,
      "velocity": 88,
      "chip": "ym2612"
    },
    {
      "channel": 4,
      "note": 45,
      "start": 15.1664,
      "duration": 0.2765,
      "velocity": 101,
      "chip": "ym2612"
    },
    {
      "channel": 5,
      "note": 95,
      "start": 15.1666,
      "duration": 0.1246,
      "velocity": 105,
      "chip": "ym2612"
    },
    {
      "channel": 3,
      "note": 54,
      "start": 15.3165,
      "duration": 0.1263,
      "velocity": 88,
      "chip": "ym2612"
    },
    {
      "channel": 5,
      "note": 83,
      "start": 15.3167,
      "duration": 0.1264,
      "velocity": 105,
      "chip": "ym2612"
    },
    {
      "channel": 3,
      "note": 47,
      "start": 15.4682,
      "duration": 0.1263,
      "velocity": 88,
      "chip": "ym2612"
    },
    {
      "channel": 4,
      "note": 68,
      "start": 15.4702,
      "duration": 0.2761,
      "velocity": 127,
      "chip": "ym2612"
    },
    {
      "channel": 5,
      "note": 90,
      "start": 15.4705,
      "duration": 0.1242,
      "velocity": 105,
      "chip": "ym2612"
    },
    {
      "channel": 3,
      "note": 53,
      "start": 15.6202,
      "duration": 0.126,
      "velocity": 88,
      "chip": "ym2612"
    },
    {
      "channel": 5,
      "note": 83,
      "start": 15.6205,
      "duration": 0.126,
      "velocity": 105,
      "chip": "ym2612"
    },
    {
      "channel": 3,
      "note": 47,
      "start": 15.7716,
      "duration": 0.1263,
      "velocity": 88,
      "chip": "ym2612"
    },
    {
      "channel": 4,
      "note": 45,
      "start": 15.7732,
      "duration": 0.2765,
      "velocity": 101,
      "chip": "ym2612"
    },
    {
      "channel": 5,
      "note": 95,
      "start": 15.7734,
      "duration": 0.1247,
      "velocity": 105,
      "chip": "ym2612"
    },
    {
      "channel": 3,
      "note": 52,
      "start": 15.9232,
      "duration": 0.1263,
      "velocity": 88,
      "chip": "ym2612"
    },
    {
      "channel": 5,
      "note": 83,
      "start": 15.9234,
      "duration": 0.1263,
      "velocity": 105,
      "chip": "ym2612"
    },
    {
      "channel": 3,
      "note": 47,
      "start": 16.075,
      "duration": 0.1263,
      "velocity": 88,
      "chip": "ym2612"
    },
    {
      "channel": 4,
      "note": 68,
      "start": 16.0766,
      "duration": 0.2765,
      "velocity": 127,
      "chip": "ym2612"
    },
    {
      "channel": 5,
      "note": 90,
      "start": 16.0767,
      "duration": 0.1247,
      "velocity": 105,
      "chip": "ym2612"
    },
    {
      "channel": 3,
      "note": 50,
      "start": 16.2266,
      "duration": 0.1263,
      "velocity": 88,
      "chip": "ym2612"
    },
    {
      "channel": 5,
      "note": 83,
      "start": 16.2268,
      "duration": 0.1264,
      "velocity": 105,
      "chip": "ym2612"
    },
    {
      "channel": 3,
      "note": 52,
      "start": 16.3783,
      "duration": 0.1263,
      "velocity": 88,
      "chip": "ym2612"
    },
    {
      "channel": 4,
      "note": 45,
      "start": 16.3799,
      "duration": 0.2765,
      "velocity": 101,
      "chip": "ym2612"
    },
    {
      "channel": 5,
      "note": 95,
      "start": 16.3801,
      "duration": 0.1247,
      "velocity": 105,
      "chip": "ym2612"
    },
    {
      "channel": 3,
      "note": 53,
      "start": 16.5299,
      "duration": 0.1263,
      "velocity": 88,
      "chip": "ym2612"
    },
    {
      "channel": 5,
      "note": 83,
      "start": 16.5301,
      "duration": 0.1264,
      "velocity": 105,
      "chip": "ym2612"
    },
    {
      "channel": 3,
      "note": 54,
      "start": 16.6816,
      "duration": 0.1263,
      "velocity": 88,
      "chip": "ym2612"
    },
    {
      "channel": 4,
      "note": 68,
      "start": 16.6833,
      "duration": 0.2765,
      "velocity": 127,
      "chip": "ym2612"
    },
    {
      "channel": 5,
      "note": 90,
      "start": 16.6834,
      "duration": 0.1247,
      "velocity": 105,
      "chip": "ym2612"
    },
    {
      "channel": 3,
      "note": 57,
      "start": 16.8333,
      "duration": 0.1263,
      "velocity": 88,
      "chip": "ym2612"
    },
    {
      "channel": 5,
      "note": 83,
      "start": 16.8335,
      "duration": 0.1263,
      "velocity": 105,
      "chip": "ym2612"
    },
    {
      "channel": 3,
      "note": 47,
      "start": 16.985,
      "duration": 0.1263,
      "velocity": 88,
      "chip": "ym2612"
    },
    {
      "channel": 4,
      "note": 45,
      "start": 16.9871,
      "duration": 0.2761,
      "velocity": 101,
      "chip": "ym2612"
    },
    {
      "channel": 5,
      "note": 95,
      "start": 16.9872,
      "duration": 0.1242,
      "velocity": 105,
      "chip": "ym2612"
    },
    {
      "channel": 3,
      "note": 59,
      "start": 17.1371,
      "duration": 0.1259,
      "velocity": 88,
      "chip": "ym2612"
    },
    {
      "channel": 5,
      "note": 83,
      "start": 17.1373,
      "duration": 0.126,
      "velocity": 105,
      "chip": "ym2612"
    },
    {
      "channel": 3,
      "note": 47,
      "start": 17.2884,
      "duration": 0.1263,
      "velocity": 88,
      "chip": "ym2612"
    },
    {
      "channel": 4,
      "note": 68,
      "start": 17.29,
      "duration": 0.2765,
      "velocity": 127,
      "chip": "ym2612"
    },
    {
      "channel": 5,
      "note": 90,
      "start": 17.2902,
      "duration": 0.1247,
      "velocity": 105,
      "chip": "ym2612"
    },
    {
      "channel": 3,
      "note": 57,
      "start": 17.44,
      "duration": 0.1263,
      "velocity": 88,
      "chip": "ym2612"
    },
    {
      "channel": 5,
      "note": 83,
      "start": 17.4402,
      "duration": 0.1264,
      "velocity": 105,
      "chip": "ym2612"
    },
    {
      "channel": 3,
      "note": 47,
      "start": 17.5917,
      "duration": 0.1263,
      "velocity": 88,
      "chip": "ym2612"
    },
    {
      "channel": 4,
      "note": 45,
      "start": 17.5933,
      "duration": 0.277,
      "velocity": 101,
      "chip": "ym2612"
    },
    {
      "channel": 5,
      "note": 95,
      "start": 17.5935,
      "duration": 0.1246,
      "velocity": 105,
      "chip": "ym2612"
    },
    {
      "channel": 3,
      "note": 54,
      "start": 17.7434,
      "duration": 0.1263,
      "velocity": 88,
      "chip": "ym2612"
    },
    {
      "channel": 5,
      "note": 83,
      "start": 17.7436,
      "duration": 0.1268,
      "velocity": 105,
      "chip": "ym2612"
    },
    {
      "channel": 3,
      "note": 47,
      "start": 17.8951,
      "duration": 0.1263,
      "velocity": 88,
      "chip": "ym2612"
    },
    {
      "channel": 4,
      "note": 68,
      "start": 17.8967,
      "duration": 0.2765,
      "velocity": 127,
      "chip": "ym2612"
    },
    {
      "channel": 5,
      "note": 90,
      "start": 17.8969,
      "duration": 0.1246,
      "velocity": 105,
      "chip": "ym2612"
    },
    {
      "channel": 3,
      "note": 53,
      "start": 18.0467,
      "duration": 0.1264,
      "velocity": 88,
      "chip": "ym2612"
    },
    {
      "channel": 5,
      "note": 83,
      "start": 18.047,
      "duration": 0.1264,
      "velocity": 105,
      "chip": "ym2612"
    },
    {
      "channel": 3,
      "note": 47,
      "start": 18.1984,
      "duration": 0.1263,
      "velocity": 88,
      "chip": "ym2612"
    },
    {
      "channel": 4,
      "note": 45,
      "start": 18.2001,
      "duration": 0.2765,
      "velocity": 101,
      "chip": "ym2612"
    },
    {
      "channel": 5,
      "note": 95,
      "start": 18.2003,
      "duration": 0.1246,
      "velocity": 105,
      "chip": "ym2612"
    },
    {
      "channel": 3,
      "note": 52,
      "start": 18.3502,
      "duration": 0.1263,
      "velocity": 88,
      "chip": "ym2612"
    },
    {
      "channel": 5,
      "note": 83,
      "start": 18.3503,
      "duration": 0.1264,
      "velocity": 105,
      "chip": "ym2612"
    },
    {
      "channel": 3,
      "note": 47,
      "start": 18.5018,
      "duration": 0.1263,
      "velocity": 88,
      "chip": "ym2612"
    },
    {
      "channel": 4,
      "note": 68,
      "start": 18.5039,
      "duration": 0.2761,
      "velocity": 127,
      "chip": "ym2612"
    },
    {
      "channel": 5,
      "note": 90,
      "start": 18.5041,
      "duration": 0.1242,
      "velocity": 105,
      "chip": "ym2612"
    },
    {
      "channel": 3,
      "note": 50,
      "start": 18.654,
      "duration": 0.1259,
      "velocity": 88,
      "chip": "ym2612"
    },
    {
      "channel": 5,
      "note": 83,
      "start": 18.6541,
      "duration": 0.126,
      "velocity": 105,
      "chip": "ym2612"
    },
    {
      "channel": 3,
      "note": 52,
      "start": 18.8052,
      "duration": 0.1263,
      "velocity": 88,
      "chip": "ym2612"
    },
    {
      "channel": 4,
      "note": 45,
      "start": 18.8068,
      "duration": 0.2765,
      "velocity": 101,
      "chip": "ym2612"
    },
    {
      "channel": 5,
      "note": 95,
      "start": 18.807,
      "duration": 0.1246,
      "velocity": 105,
      "chip": "ym2612"
    },
    {
      "channel": 3,
      "note": 50,
      "start": 18.9568,
      "duration": 0.1263,
      "velocity": 88,
      "chip": "ym2612"
    },
    {
      "channel": 5,
      "note": 83,
      "start": 18.9571,
      "duration": 0.1263,
      "velocity": 105,
      "chip": "ym2612"
    },
    {
      "channel": 3,
      "note": 45,
      "start": 19.1085,
      "duration": 0.1263,
      "velocity": 88,
      "chip": "ym2612"
    },
    {
      "channel": 4,
      "note": 68,
      "start": 19.1101,
      "duration": 0.277,
      "velocity": 127,
      "chip": "ym2612"
    },
    {
      "channel": 5,
      "note": 90,
      "start": 19.1103,
      "duration": 0.1246,
      "velocity": 105,
      "chip": "ym2612"
    },
    {
      "channel": 3,
      "note": 46,
      "start": 19.2603,
      "duration": 0.1267,
      "velocity": 88,
      "chip": "ym2612"
    },
    {
      "channel": 5,
      "note": 83,
      "start": 19.2605,
      "duration": 0.1268,
      "velocity": 105,
      "chip": "ym2612"
    },
    {
      "channel": 3,
      "note": 47,
      "start": 19.4119,
      "duration": 0.1263,
      "velocity": 88,
      "chip": "ym2612"
    },
    {
      "channel": 4,
      "note": 45,
      "start": 19.4135,
      "duration": 0.2765,
      "velocity": 101,
      "chip": "ym2612"
    },
    {
      "channel": 5,
      "note": 95,
      "start": 19.4137,
      "duration": 0.1246,
      "velocity": 105,
      "chip": "ym2612"
    },
    {
      "channel": 3,
      "note": 59,
      "start": 19.5636,
      "duration": 0.1263,
      "velocity": 88,
      "chip": "ym2612"
    },
    {
      "channel": 5,
      "note": 83,
      "start": 19.5638,
      "duration": 0.1264,
      "velocity": 105,
      "chip": "ym2612"
    },
    {
      "channel": 3,
      "note": 47,
      "start": 19.7152,
      "duration": 0.1263,
      "velocity": 88,
      "chip": "ym2612"
    },
    {
      "channel": 4,
      "note": 45,
      "start": 19.7154,
      "duration": 0.278,
      "velocity": 101,
      "chip": "ym2612"
    },
    {
      "channel": 5,
      "note": 90,
      "start": 19.7156,
      "duration": 0.1261,
      "velocity": 105,
      "chip": "ym2612"
    },
    {
      "channel": 3,
      "note": 57,
      "start": 19.8669,
      "duration": 0.1263,
      "velocity": 88,
      "chip": "ym2612"
    },
    {
      "channel": 5,
      "note": 83,
      "start": 19.8671,
      "duration": 0.1264,
      "velocity": 105,
      "chip": "ym2612"
    },
    {
      "channel": 3,
      "note": 47,
      "start": 20.0186,
      "duration": 0.1263,
      "velocity": 88,
      "chip": "ym2612"
    },
    {
      "channel": 4,
      "note": 45,
      "start": 20.0187,
      "duration": 0.278,
      "velocity": 101,
      "chip": "ym2612"
    },
    {
      "channel": 5,
      "note": 95,
      "start": 20.0189,
      "duration": 0.1262,
      "velocity": 105,
      "chip": "ym2612"
    },
    {
      "channel": 3,
      "note": 54,
      "start": 20.1706,
      "duration": 0.126,
      "velocity": 88,
      "chip": "ym2612"
    },
    {
      "channel": 5,
      "note": 83,
      "start": 20.1709,
      "duration": 0.126,
      "velocity": 105,
      "chip": "ym2612"
    },
    {
      "channel": 3,
      "note": 47,
      "start": 20.322,
      "duration": 0.1263,
      "velocity": 88,
      "chip": "ym2612"
    },
    {
      "channel": 4,
      "note": 45,
      "start": 20.3221,
      "duration": 0.2781,
      "velocity": 101,
      "chip": "ym2612"
    },
    {
      "channel": 5,
      "note": 90,
      "start": 20.3223,
      "duration": 0.1261,
      "velocity": 105,
      "chip": "ym2612"
    },
    {
      "channel": 3,
      "note": 53,
      "start": 20.4736,
      "duration": 0.1264,
      "velocity": 88,
      "chip": "ym2612"
    },
    {
      "channel": 5,
      "note": 83,
      "start": 20.4739,
      "duration": 0.1264,
      "velocity": 105,
      "chip": "ym2612"
    },
    {
      "channel": 3,
      "note": 47,
      "start": 20.6254,
      "duration": 0.1263,
      "velocity": 88,
      "chip": "ym2612"
    },
    {
      "channel": 4,
      "note": 68,
      "start": 20.6269,
      "duration": 0.0742,
      "velocity": 127,
      "chip": "ym2612"
    },
    {
      "channel": 5,
      "note": 95,
      "start": 20.6271,
      "duration": 0.1247,
      "velocity": 105,
      "chip": "ym2612"
    },
    {
      "channel": 4,
      "note": 68,
      "start": 20.7012,
      "duration": 0.0759,
      "velocity": 127,
      "chip": "ym2612"
    },
    {
      "channel": 3,
      "note": 52,
      "start": 20.777,
      "duration": 0.1269,
      "velocity": 88,
      "chip": "ym2612"
    },
    {
      "channel": 4,
      "note": 68,
      "start": 20.7771,
      "duration": 0.278,
      "velocity": 127,
      "chip": "ym2612"
    },
    {
      "channel": 5,
      "note": 83,
      "start": 20.7773,
      "duration": 0.1268,
      "velocity": 105,
      "chip": "ym2612"
    },
    {
      "channel": 3,
      "note": 47,
      "start": 20.9287,
      "duration": 0.1263,
      "velocity": 88,
      "chip": "ym2612"
    },
    {
      "channel": 5,
      "note": 90,
      "start": 20.9289,
      "duration": 0.1264,
      "velocity": 105,
      "chip": "ym2612"
    },
    {
      "channel": 3,
      "note": 50,
      "start": 21.0804,
      "duration": 0.1264,
      "velocity": 88,
      "chip": "ym2612"
    },
    {
      "channel": 4,
      "note": 45,
      "start": 21.082,
      "duration": 0.1249,
      "velocity": 101,
      "chip": "ym2612"
    },
    {
      "channel": 5,
      "note": 83,
      "start": 21.0822,
      "duration": 0.1249,
      "velocity": 105,
      "chip": "ym2612"
    },
    {
      "channel": 3,
      "note": 52,
      "start": 21.2321,
      "duration": 0.1263,
      "velocity": 88,
      "chip": "ym2612"
    },
    {
      "channel": 4,
      "note": 45,
      "start": 21.2322,
      "duration": 0.1263,
      "velocity": 101,
      "chip": "ym2612"
    },
    {
      "channel": 5,
      "note": 95,
      "start": 21.2324,
      "duration": 0.1263,
      "velocity": 105,
      "chip": "ym2612"
    },
    {
      "channel": 3,
      "note": 53,
      "start": 21.3837,
      "duration": 0.1263,
      "velocity": 88,
      "chip": "ym2612"
    },
    {
      "channel": 4,
      "note": 68,
      "start": 21.3854,
      "duration": 0.1248,
      "velocity": 127,
      "chip": "ym2612"
    },
    {
      "channel": 5,
      "note": 83,
      "start": 21.3856,
      "duration": 0.1248,
      "velocity": 105,
      "chip": "ym2612"
    },
    {
      "channel": 3,
      "note": 54,
      "start": 21.5355,
      "duration": 0.1263,
      "velocity": 88,
      "chip": "ym2612"
    },
    {
      "channel": 4,
      "note": 45,
      "start": 21.5375,
      "duration": 0.1244,
      "velocity": 101,
      "chip": "ym2612"
    },
    {
      "channel": 5,
      "note": 90,
      "start": 21.5377,
      "duration": 0.1243,
      "velocity": 105,
      "chip": "ym2612"
    },
    {
      "channel": 3,
      "note": 57,
      "start": 21.6874,
      "duration": 0.1261,
      "velocity": 88,
      "chip": "ym2612"
    },
    {
      "channel": 4,
      "note": 68,
      "start": 21.689,
      "duration": 0.1246,
      "velocity": 127,
      "chip": "ym2612"
    },
    {
      "channel": 5,
      "note": 83,
      "start": 21.6891,
      "duration": 0.1246,
      "velocity": 105,
      "chip": "ym2612"
    },
    {
      "channel": 2,
      "note": 74,
      "start": 21.8391,
      "duration": 0.7327,
      "velocity": 117,
      "chip": "ym2612"
    },
    {
      "channel": 3,
      "note": 47,
      "start": 21.8393,
      "duration": 0.1258,
      "velocity": 88,
      "chip": "ym2612"
    },
    {
      "channel": 4,
      "note": 45,
      "start": 21.8409,
      "duration": 0.276,
      "velocity": 101,
      "chip": "ym2612"
    },
    {
      "channel": 5,
      "note": 95,
      "start": 21.841,
      "duration": 0.1242,
      "velocity": 105,
      "chip": "ym2612"
    },
    {
      "channel": 3,
      "note": 59,
      "start": 21.9904,
      "duration": 0.1264,
      "velocity": 88,
      "chip": "ym2612"
    },
    {
      "channel": 5,
      "note": 83,
      "start": 21.9907,
      "duration": 0.1264,
      "velocity": 105,
      "chip": "ym2612"
    },
    {
      "channel": 3,
      "note": 47,
      "start": 22.1421,
      "duration": 0.1263,
      "velocity": 88,
      "chip": "ym2612"
    },
    {
      "channel": 4,
      "note": 68,
      "start": 22.1438,
      "duration": 0.277,
      "velocity": 127,
      "chip": "ym2612"
    },
    {
      "channel": 5,
      "note": 90,
      "start": 22.144,
      "duration": 0.1246,
      "velocity": 105,
      "chip": "ym2612"
    },
    {
      "channel": 3,
      "note": 57,
      "start": 22.2939,
      "duration": 0.1268,
      "velocity": 88,
      "chip": "ym2612"
    },
    {
      "channel": 5,
      "note": 83,
      "start": 22.294,
      "duration": 0.1268,
      "velocity": 105,
      "chip": "ym2612"
    },
    {
      "channel": 3,
      "note": 47,
      "start": 22.4455,
      "duration": 0.1265,
      "velocity": 88,
      "chip": "ym2612"
    },
    {
      "channel": 4,
      "note": 45,
      "start": 22.4471,
      "duration": 0.2765,
      "velocity": 101,
      "chip": "ym2612"
    },
    {
      "channel": 5,
      "note": 95,
      "start": 22.4473,
      "duration": 0.1248,
      "velocity": 105,
      "chip": "ym2612"
    },
    {
      "channel": 2,
      "note": 74,
      "start": 22.5972,
      "duration": 0.278,
      "velocity": 117,
      "chip": "ym2612"
    },
    {
      "channel": 3,
      "note": 54,
      "start": 22.5973,
      "duration": 0.1261,
      "velocity": 88,
      "chip": "ym2612"
    },
    {
      "channel": 5,
      "note": 83,
      "start": 22.5976,
      "duration": 0.1262,
      "velocity": 105,
      "chip": "ym2612"
    },
    {
      "channel": 3,
      "note": 47,
      "start": 22.7489,
      "duration": 0.1264,
      "velocity": 88,
      "chip": "ym2612"
    },
    {
      "channel": 4,
      "note": 68,
      "start": 22.7505,
      "duration": 0.2765,
      "velocity": 127,
      "chip": "ym2612"
    },
    {
      "channel": 5,
      "note": 90,
      "start": 22.7507,
      "duration": 0.1248,
      "velocity": 105,
      "chip": "ym2612"
    },
    {
      "channel": 2,
      "note": 71,
      "start": 22.9005,
      "duration": 1.3399,
      "velocity": 117,
      "chip": "ym2612"
    },
    {
      "channel": 3,
      "note": 53,
      "start": 22.9007,
      "duration": 0.1261,
      "velocity": 88,
      "chip": "ym2612"
    },
    {
      "channel": 5,
      "note": 83,
      "start": 22.901,
      "duration": 0.1261,
      "velocity": 105,
      "chip": "ym2612"
    },
    {
      "channel": 3,
      "note": 47,
      "start": 23.0522,
      "duration": 0.1263,
      "velocity": 88,
      "chip": "ym2612"
    },
    {
      "channel": 4,
      "note": 45,
      "start": 23.0544,
      "duration": 0.276,
      "velocity": 101,
      "chip": "ym2612"
    },
    {
      "channel": 5,
      "note": 95,
      "start": 23.0545,
      "duration": 0.1242,
      "velocity": 105,
      "chip": "ym2612"
    },
    {
      "channel": 3,
      "note": 52,
      "start": 23.204,
      "duration": 0.1262,
      "velocity": 88,
      "chip": "ym2612"
    },
    {
      "channel": 5,
      "note": 83,
      "start": 23.2042,
      "duration": 0.1263,
      "velocity": 105,
      "chip": "ym2612"
    },
    {
      "channel": 3,
      "note": 47,
      "start": 23.3556,
      "duration": 0.1263,
      "velocity": 88,
      "chip": "ym2612"
    },
    {
      "channel": 4,
      "note": 68,
      "start": 23.3573,
      "duration": 0.2765,
      "velocity": 127,
      "chip": "ym2612"
    },
    {
      "channel": 5,
      "note": 90,
      "start": 23.3575,
      "duration": 0.1246,
      "velocity": 105,
      "chip": "ym2612"
    },
    {
      "channel": 1,
      "note": 74,
      "start": 23.5075,
      "duration": 0.126,
      "velocity": 95,
      "chip": "ym2612"
    },
    {
      "channel": 3,
      "note": 50,
      "start": 23.5077,
      "duration": 0.126,
      "velocity": 88,
      "chip": "ym2612"
    },
    {
      "channel": 5,
      "note": 83,
      "start": 23.5079,
      "duration": 0.126,
      "velocity": 105,
      "chip": "ym2612"
    },
    {
      "channel": 1,
      "note": 74,
      "start": 23.6589,
      "duration": 0.1263,
      "velocity": 95,
      "chip": "ym2612"
    },
    {
      "channel": 3,
      "note": 52,
      "start": 23.659,
      "duration": 0.1263,
      "velocity": 88,
      "chip": "ym2612"
    },
    {
      "channel": 4,
      "note": 45,
      "start": 23.6607,
      "duration": 0.2768,
      "velocity": 101,
      "chip": "ym2612"
    },
    {
      "channel": 5,
      "note": 95,
      "start": 23.6609,
      "duration": 0.1246,
      "velocity": 105,
      "chip": "ym2612"
    },
    {
      "channel": 1,
      "note": 76,
      "start": 23.8107,
      "duration": 0.1266,
      "velocity": 95,
      "chip": "ym2612"
    },
    {
      "channel": 3,
      "note": 50,
      "start": 23.8108,
      "duration": 0.1265,
      "velocity": 88,
      "chip": "ym2612"
    },
    {
      "channel": 5,
      "note": 83,
      "start": 23.811,
      "duration": 0.1266,
      "velocity": 105,
      "chip": "ym2612"
    },
    {
      "channel": 1,
      "note": 80,
      "start": 23.9623,
      "duration": 0.1263,
      "velocity": 95,
      "chip": "ym2612"
    },
    {
      "channel": 3,
      "note": 45,
      "start": 23.9625,
      "duration": 0.1263,
      "velocity": 88,
      "chip": "ym2612"
    },
    {
      "channel": 4,
      "note": 68,
      "start": 23.9641,
      "duration": 0.2765,
      "velocity": 127,
      "chip": "ym2612"
    },
    {
      "channel": 5,
      "note": 90,
      "start": 23.9643,
      "duration": 0.1246,
      "velocity": 105,
      "chip": "ym2612"
    },
    {
      "channel": 1,
      "note": 83,
      "start": 24.114,
      "duration": 0.1263,
      "velocity": 95,
      "chip": "ym2612"
    },
    {
      "channel": 3,
      "note": 46,
      "start": 24.1142,
      "duration": 0.1263,
      "velocity": 88,
      "chip": "ym2612"
    },
    {
      "channel": 5,
      "note": 83,
      "start": 24.1144,
      "duration": 0.1264,
      "velocity": 105,
      "chip": "ym2612"
    },
    {
      "channel": 2,
      "note": 74,
      "start": 24.2657,
      "duration": 0.5308,
      "velocity": 117,
      "chip": "ym2612"
    },
    {
      "channel": 3,
      "note": 47,
      "start": 24.2659,
      "duration": 0.1261,
      "velocity": 88,
      "chip": "ym2612"
    },
    {
      "channel": 4,
      "note": 45,
      "start": 24.2675,
      "duration": 0.2763,
      "velocity": 101,
      "chip": "ym2612"
    },
    {
      "channel": 5,
      "note": 95,
      "start": 24.2676,
      "duration": 0.1245,
      "velocity": 105,
      "chip": "ym2612"
    },
    {
      "channel": 3,
      "note": 59,
      "start": 24.4174,
      "duration": 0.1263,
      "velocity": 88,
      "chip": "ym2612"
    },
    {
      "channel": 5,
      "note": 83,
      "start": 24.4176,
      "duration": 0.1264,
      "velocity": 105,
      "chip": "ym2612"
    },
    {
      "channel": 3,
      "note": 47,
      "start": 24.569,
      "duration": 0.1263,
      "velocity": 88,
      "chip": "ym2612"
    },
    {
      "channel": 4,
      "note": 68,
      "start": 24.5711,
      "duration": 0.2761,
      "velocity": 127,
      "chip": "ym2612"
    },
    {
      "channel": 5,
      "note": 90,
      "start": 24.5713,
      "duration": 0.1242,
      "velocity": 105,
      "chip": "ym2612"
    },
    {
      "channel": 3,
      "note": 57,
      "start": 24.7207,
      "duration": 0.1264,
      "velocity": 88,
      "chip": "ym2612"
    },
    {
      "channel": 5,
      "note": 83,
      "start": 24.721,
      "duration": 0.1264,
      "velocity": 105,
      "chip": "ym2612"
    },
    {
      "channel": 2,
      "note": 74,
      "start": 24.8724,
      "duration": 0.1263,
      "velocity": 117,
      "chip": "ym2612"
    },
    {
      "channel": 3,
      "note": 47,
      "start": 24.8725,
      "duration": 0.1263,
      "velocity": 88,
      "chip": "ym2612"
    },
    {
      "channel": 4,
      "note": 45,
      "start": 24.8742,
      "duration": 0.2763,
      "velocity": 101,
      "chip": "ym2612"
    },
    {
      "channel": 5,
      "note": 95,
      "start": 24.8743,
      "duration": 0.1246,
      "velocity": 105,
      "chip": "ym2612"
    },
    {
      "channel": 2,
      "note": 74,
      "start": 25.024,
      "duration": 0.278,
      "velocity": 117,
      "chip": "ym2612"
    },
    {
      "channel": 3,
      "note": 54,
      "start": 25.0242,
      "duration": 0.1262,
      "velocity": 88,
      "chip": "ym2612"
    },
    {
      "channel": 5,
      "note": 83,
      "start": 25.0244,
      "duration": 0.1262,
      "velocity": 105,
      "chip": "ym2612"
    },
    {
      "channel": 3,
      "note": 47,
      "start": 25.1758,
      "duration": 0.1264,
      "velocity": 88,
      "chip": "ym2612"
    },
    {
      "channel": 4,
      "note": 68,
      "start": 25.1774,
      "duration": 0.2766,
      "velocity": 127,
      "chip": "ym2612"
    },
    {
      "channel": 5,
      "note": 90,
      "start": 25.1776,
      "duration": 0.1248,
      "velocity": 105,
      "chip": "ym2612"
    },
    {
      "channel": 2,
      "note": 71,
      "start": 25.3274,
      "duration": 1.3398,
      "velocity": 117,
      "chip": "ym2612"
    },
    {
      "channel": 3,
      "note": 53,
      "start": 25.3276,
      "duration": 0.1263,
      "velocity": 88,
      "chip": "ym2612"
    },
    {
      "channel": 5,
      "note": 83,
      "start": 25.3278,
      "duration": 0.1263,
      "velocity": 105,
      "chip": "ym2612"
    },
    {
      "channel": 3,
      "note": 47,
      "start": 25.4792,
      "duration": 0.1263,
      "velocity": 88,
      "chip": "ym2612"
    },
    {
      "channel": 4,
      "note": 45,
      "start": 25.4808,
      "duration": 0.2765,
      "velocity": 101,
      "chip": "ym2612"
    },
    {
      "channel": 5,
      "note": 95,
      "start": 25.4809,
      "duration": 0.1247,
      "velocity": 105,
      "chip": "ym2612"
    },
    {
      "channel": 3,
      "note": 52,
      "start": 25.6309,
      "duration": 0.1263,
      "velocity": 88,
      "chip": "ym2612"
    },
    {
      "channel": 5,
      "note": 83,
      "start": 25.6311,
      "duration": 0.1263,
      "velocity": 105,
      "chip": "ym2612"
    },
    {
      "channel": 3,
      "note": 47,
      "start": 25.7825,
      "duration": 0.1263,
      "velocity": 88,
      "chip": "ym2612"
    },
    {
      "channel": 4,
      "note": 68,
      "start": 25.7841,
      "duration": 0.2765,
      "velocity": 127,
      "chip": "ym2612"
    },
    {
      "channel": 5,
      "note": 90,
      "start": 25.7843,
      "duration": 0.1246,
      "velocity": 105,
      "chip": "ym2612"
    },
    {
      "channel": 1,
      "note": 81,
      "start": 25.9342,
      "duration": 0.278,
      "velocity": 95,
      "chip": "ym2612"
    },
    {
      "channel": 3,
      "note": 50,
      "start": 25.9344,
      "duration": 0.1261,
      "velocity": 88,
      "chip": "ym2612"
    },
    {
      "channel": 5,
      "note": 83,
      "start": 25.9346,
      "duration": 0.1262,
      "velocity": 105,
      "chip": "ym2612"
    },
    {
      "channel": 3,
      "note": 52,
      "start": 26.0859,
      "duration": 0.1264,
      "velocity": 88,
      "chip": "ym2612"
    },
    {
      "channel": 4,
      "note": 45,
      "start": 26.0879,
      "duration": 0.276,
      "velocity": 101,
      "chip": "ym2612"
    },
    {
      "channel": 5,
      "note": 95,
      "start": 26.0881,
      "duration": 0.1244,
      "velocity": 105,
      "chip": "ym2612"
    },
    {
      "channel": 1,
      "note": 80,
      "start": 26.2375,
      "duration": 0.4045,
      "velocity": 95,
      "chip": "ym2612"
    },
    {
      "channel": 3,
      "note": 53,
      "start": 26.2378,
      "duration": 0.1261,
      "velocity": 88,
      "chip": "ym2612"
    },
    {
      "channel": 5,
      "note": 83,
      "start": 26.2379,
      "duration": 0.1261,
      "velocity": 105,
      "chip": "ym2612"
    },
    {
      "channel": 3,
      "note": 54,
      "start": 26.3892,
      "duration": 0.1263,
      "velocity": 88,
      "chip": "ym2612"
    },
    {
      "channel": 4,
      "note": 68,
      "start": 26.3909,
      "duration": 0.2767,
      "velocity": 127,
      "chip": "ym2612"
    },
    {
      "channel": 5,
      "note": 90,
      "start": 26.391,
      "duration": 0.1247,
      "velocity": 105,
      "chip": "ym2612"
    },
    {
      "channel": 3,
      "note": 57,
      "start": 26.5409,
      "duration": 0.1265,
      "velocity": 88,
      "chip": "ym2612"
    },
    {
      "channel": 5,
      "note": 83,
      "start": 26.541,
      "duration": 0.1266,
      "velocity": 105,
      "chip": "ym2612"
    },
    {
      "channel": 2,
      "note": 74,
      "start": 26.6926,
      "duration": 0.7331,
      "velocity": 117,
      "chip": "ym2612"
    },
    {
      "channel": 3,
      "note": 47,
      "start": 26.6928,
      "duration": 0.1261,
      "velocity": 88,
      "chip": "ym2612"
    },
    {
      "channel": 4,
      "note": 45,
      "start": 26.6944,
      "duration": 0.2763,
      "velocity": 101,
      "chip": "ym2612"
    },
    {
      "channel": 5,
      "note": 95,
      "start": 26.6946,
      "duration": 0.1245,
      "velocity": 105,
      "chip": "ym2612"
    },
    {
      "channel": 3,
      "note": 59,
      "start": 26.8442,
      "duration": 0.1263,
      "velocity": 88,
      "chip": "ym2612"
    },
    {
      "channel": 5,
      "note": 83,
      "start": 26.8444,
      "duration": 0.1264,
      "velocity": 105,
      "chip": "ym2612"
    },
    {
      "channel": 3,
      "note": 47,
      "start": 26.9959,
      "duration": 0.1263,
      "velocity": 88,
      "chip": "ym2612"
    },
    {
      "channel": 4,
      "note": 68,
      "start": 26.9976,
      "duration": 0.2765,
      "velocity": 127,
      "chip": "ym2612"
    },
    {
      "channel": 5,
      "note": 90,
      "start": 26.9977,
      "duration": 0.1246,
      "velocity": 105,
      "chip": "ym2612"
    },
    {
      "channel": 3,
      "note": 57,
      "start": 27.1476,
      "duration": 0.1264,
      "velocity": 88,
      "chip": "ym2612"
    },
    {
      "channel": 5,
      "note": 83,
      "start": 27.1478,
      "duration": 0.1265,
      "velocity": 105,
      "chip": "ym2612"
    },
    {
      "channel": 3,
      "note": 47,
      "start": 27.2993,
      "duration": 0.1265,
      "velocity": 88,
      "chip": "ym2612"
    },
    {
      "channel": 4,
      "note": 45,
      "start": 27.3009,
      "duration": 0.2765,
      "velocity": 101,
      "chip": "ym2612"
    },
    {
      "channel": 5,
      "note": 95,
      "start": 27.3011,
      "duration": 0.1248,
      "velocity": 105,
      "chip": "ym2612"
    },
    {
      "channel": 2,
      "note": 74,
      "start": 27.4509,
      "duration": 0.278,
      "velocity": 117,
      "chip": "ym2612"
    },
    {
      "channel": 3,
      "note": 54,
      "start": 27.4511,
      "duration": 0.1262,
      "velocity": 88,
      "chip": "ym2612"
    },
    {
      "channel": 5,
      "note": 83,
      "start": 27.4513,
      "duration": 0.1263,
      "velocity": 105,
      "chip": "ym2612"
    },
    {
      "channel": 3,
      "note": 47,
      "start": 27.6027,
      "duration": 0.1264,
      "velocity": 88,
      "chip": "ym2612"
    },
    {
      "channel": 4,
      "note": 68,
      "start": 27.6047,
      "duration": 0.2761,
      "velocity": 127,
      "chip": "ym2612"
    },
    {
      "channel": 5,
      "note": 90,
      "start": 27.6049,
      "duration": 0.1243,
      "velocity": 105,
      "chip": "ym2612"
    },
    {
      "channel": 2,
      "note": 71,
      "start": 27.7544,
      "duration": 1.3399,
      "velocity": 117,
      "chip": "ym2612"
    },
    {
      "channel": 3,
      "note": 53,
      "start": 27.7545,
      "duration": 0.1261,
      "velocity": 88,
      "chip": "ym2612"
    },
    {
      "channel": 5,
      "note": 83,
      "start": 27.7547,
      "duration": 0.1262,
      "velocity": 105,
      "chip": "ym2612"
    },
    {
      "channel": 3,
      "note": 47,
      "start": 27.9061,
      "duration": 0.1263,
      "velocity": 88,
      "chip": "ym2612"
    },
    {
      "channel": 4,
      "note": 45,
      "start": 27.9077,
      "duration": 0.2765,
      "velocity": 101,
      "chip": "ym2612"
    },
    {
      "channel": 5,
      "note": 95,
      "start": 27.9078,
      "duration": 0.1247,
      "velocity": 105,
      "chip": "ym2612"
    },
    {
      "channel": 3,
      "note": 52,
      "start": 28.0577,
      "duration": 0.1263,
      "velocity": 88,
      "chip": "ym2612"
    },
    {
      "channel": 5,
      "note": 83,
      "start": 28.058,
      "duration": 0.1263,
      "velocity": 105,
      "chip": "ym2612"
    },
    {
      "channel": 3,
      "note": 47,
      "start": 28.2094,
      "duration": 0.1263,
      "velocity": 88,
      "chip": "ym2612"
    },
    {
      "channel": 4,
      "note": 68,
      "start": 28.211,
      "duration": 0.2767,
      "velocity": 127,
      "chip": "ym2612"
    },
    {
      "channel": 5,
      "note": 90,
      "start": 28.2112,
      "duration": 0.1246,
      "velocity": 105,
      "chip": "ym2612"
    },
    {
      "channel": 1,
      "note": 74,
      "start": 28.3611,
      "duration": 0.1263,
      "velocity": 95,
      "chip": "ym2612"
    },
    {
      "channel": 3,
      "note": 50,
      "start": 28.3613,
      "duration": 0.1263,
      "velocity": 88,
      "chip": "ym2612"
    },
    {
      "channel": 5,
      "note": 83,
      "start": 28.3615,
      "duration": 0.1263,
      "velocity": 105,
      "chip": "ym2612"
    },
    {
      "channel": 1,
      "note": 74,
      "start": 28.5127,
      "duration": 0.1263,
      "velocity": 95,
      "chip": "ym2612"
    },
    {
      "channel": 3,
      "note": 52,
      "start": 28.5129,
      "duration": 0.1263,
      "velocity": 88,
      "chip": "ym2612"
    },
    {
      "channel": 4,
      "note": 45,
      "start": 28.5145,
      "duration": 0.2765,
      "velocity": 101,
      "chip": "ym2612"
    },
    {
      "channel": 5,
      "note": 95,
      "start": 28.5147,
      "duration": 0.1246,
      "velocity": 105,
      "chip": "ym2612"
    },
    {
      "channel": 1,
      "note": 76,
      "start": 28.6644,
      "duration": 0.1263,
      "velocity": 95,
      "chip": "ym2612"
    },
    {
      "channel": 3,
      "note": 50,
      "start": 28.6646,
      "duration": 0.1263,
      "velocity": 88,
      "chip": "ym2612"
    },
    {
      "channel": 5,
      "note": 83,
      "start": 28.6648,
      "duration": 0.1264,
      "velocity": 105,
      "chip": "ym2612"
    },
    {
      "channel": 1,
      "note": 80,
      "start": 28.8161,
      "duration": 0.1263,
      "velocity": 95,
      "chip": "ym2612"
    },
    {
      "channel": 3,
      "note": 45,
      "start": 28.8163,
      "duration": 0.1263,
      "velocity": 88,
      "chip": "ym2612"
    },
    {
      "channel": 4,
      "note": 68,
      "start": 28.818,
      "duration": 0.2765,
      "velocity": 127,
      "chip": "ym2612"
    },
    {
      "channel": 5,
      "note": 90,
      "start": 28.8181,
      "duration": 0.1246,
      "velocity": 105,
      "chip": "ym2612"
    },
    {
      "channel": 1,
      "note": 83,
      "start": 28.9678,
      "duration": 0.1263,
      "velocity": 95,
      "chip": "ym2612"
    },
    {
      "channel": 3,
      "note": 46,
      "start": 28.968,
      "duration": 0.1264,
      "velocity": 88,
      "chip": "ym2612"
    },
    {
      "channel": 5,
      "note": 83,
      "start": 28.9682,
      "duration": 0.1265,
      "velocity": 105,
      "chip": "ym2612"
    },
    {
      "channel": 2,
      "note": 74,
      "start": 29.1195,
      "duration": 0.5308,
      "velocity": 117,
      "chip": "ym2612"
    },
    {
      "channel": 3,
      "note": 47,
      "start": 29.1197,
      "duration": 0.1261,
      "velocity": 88,
      "chip": "ym2612"
    },
    {
      "channel": 4,
      "note": 45,
      "start": 29.1217,
      "duration": 0.2759,
      "velocity": 101,
      "chip": "ym2612"
    },
    {
      "channel": 5,
      "note": 95,
      "start": 29.1219,
      "duration": 0.124,
      "velocity": 105,
      "chip": "ym2612"
    },
    {
      "channel": 3,
      "note": 59,
      "start": 29.2711,
      "duration": 0.1263,
      "velocity": 88,
      "chip": "ym2612"
    },
    {
      "channel": 5,
      "note": 83,
      "start": 29.2714,
      "duration": 0.1263,
      "velocity": 105,
      "chip": "ym2612"
    },
    {
      "channel": 3,
      "note": 47,
      "start": 29.4229,
      "duration": 0.1263,
      "velocity": 88,
      "chip": "ym2612"
    },
    {
      "channel": 4,
      "note": 68,
      "start": 29.4245,
      "duration": 0.2765,
      "velocity": 127,
      "chip": "ym2612"
    },
    {
      "channel": 5,
      "note": 90,
      "start": 29.4247,
      "duration": 0.1246,
      "velocity": 105,
      "chip": "ym2612"
    },
    {
      "channel": 3,
      "note": 57,
      "start": 29.5746,
      "duration": 0.1263,
      "velocity": 88,
      "chip": "ym2612"
    },
    {
      "channel": 5,
      "note": 83,
      "start": 29.5748,
      "duration": 0.1264,
      "velocity": 105,
      "chip": "ym2612"
    },
    {
      "channel": 2,
      "note": 74,
      "start": 29.7262,
      "duration": 0.1263,
      "velocity": 117,
      "chip": "ym2612"
    },
    {
      "channel": 3,
      "note": 47,
      "start": 29.7263,
      "duration": 0.1263,
      "velocity": 88,
      "chip": "ym2612"
    },
    {
      "channel": 4,
      "note": 45,
      "start": 29.728,
      "duration": 0.2763,
      "velocity": 101,
      "chip": "ym2612"
    },
    {
      "channel": 5,
      "note": 95,
      "start": 29.7281,
      "duration": 0.1247,
      "velocity": 105,
      "chip": "ym2612"
    },
    {
      "channel": 2,
      "note": 74,
      "start": 29.8778,
      "duration": 0.278,
      "velocity": 117,
      "chip": "ym2612"
    },
    {
      "channel": 3,
      "note": 54,
      "start": 29.878,
      "duration": 0.1262,
      "velocity": 88,
      "chip": "ym2612"
    },
    {
      "channel": 5,
      "note": 83,
      "start": 29.8782,
      "duration": 0.1263,
      "velocity": 105,
      "chip": "ym2612"
    },
    {
      "channel": 3,
      "note": 47,
      "start": 30.0295,
      "duration": 0.1265,
      "velocity": 88,
      "chip": "ym2612"
    },
    {
      "channel": 4,
      "note": 68,
      "start": 30.0312,
      "duration": 0.2765,
      "velocity": 127,
      "chip": "ym2612"
    },
    {
      "channel": 5,
      "note": 90,
      "start": 30.0313,
      "duration": 0.1248,
      "velocity": 105,
      "chip": "ym2612"
    },
    {
      "channel": 2,
      "note": 71,
      "start": 30.1812,
      "duration": 1.3397,
      "velocity": 117,
      "chip": "ym2612"
    },
    {
      "channel": 3,
      "note": 53,
      "start": 30.1815,
      "duration": 0.1261,
      "velocity": 88,
      "chip": "ym2612"
    },
    {
      "channel": 5,
      "note": 83,
      "start": 30.1816,
      "duration": 0.1262,
      "velocity": 105,
      "chip": "ym2612"
    },
    {
      "channel": 3,
      "note": 47,
      "start": 30.3329,
      "duration": 0.1263,
      "velocity": 88,
      "chip": "ym2612"
    },
    {
      "channel": 4,
      "note": 45,
      "start": 30.3346,
      "duration": 0.2765,
      "velocity": 101,
      "chip": "ym2612"
    },
    {
      "channel": 5,
      "note": 95,
      "start": 30.3348,
      "duration": 0.1246,
      "velocity": 105,
      "chip": "ym2612"
    },
    {
      "channel": 3,
      "note": 52,
      "start": 30.4846,
      "duration": 0.1264,
      "velocity": 88,
      "chip": "ym2612"
    },
    {
      "channel": 5,
      "note": 83,
      "start": 30.4848,
      "duration": 0.1264,
      "velocity": 105,
      "chip": "ym2612"
    },
    {
      "channel": 3,
      "note": 47,
      "start": 30.6363,
      "duration": 0.1263,
      "velocity": 88,
      "chip": "ym2612"
    },
    {
      "channel": 4,
      "note": 68,
      "start": 30.6384,
      "duration": 0.276,
      "velocity": 127,
      "chip": "ym2612"
    },
    {
      "channel": 5,
      "note": 90,
      "start": 30.6386,
      "duration": 0.1242,
      "velocity": 105,
      "chip": "ym2612"
    },
    {
      "channel": 1,
      "note": 81,
      "start": 30.7879,
      "duration": 0.278,
      "velocity": 95,
      "chip": "ym2612"
    },
    {
      "channel": 3,
      "note": 50,
      "start": 30.7882,
      "duration": 0.1261,
      "velocity": 88,
      "chip": "ym2612"
    },
    {
      "channel": 5,
      "note": 83,
      "start": 30.7884,
      "duration": 0.1261,
      "velocity": 105,
      "chip": "ym2612"
    },
    {
      "channel": 3,
      "note": 52,
      "start": 30.9397,
      "duration": 0.1265,
      "velocity": 88,
      "chip": "ym2612"
    },
    {
      "channel": 4,
      "note": 45,
      "start": 30.9413,
      "duration": 0.2765,
      "velocity": 101,
      "chip": "ym2612"
    },
    {
      "channel": 5,
      "note": 95,
      "start": 30.9415,
      "duration": 0.1247,
      "velocity": 105,
      "chip": "ym2612"
    },
    {
      "channel": 1,
      "note": 80,
      "start": 31.0913,
      "duration": 0.4044,
      "velocity": 95,
      "chip": "ym2612"
    },
    {
      "channel": 3,
      "note": 53,
      "start": 31.0916,
      "duration": 0.1261,
      "velocity": 88,
      "chip": "ym2612"
    },
    {
      "channel": 5,
      "note": 83,
      "start": 31.0917,
      "duration": 0.1261,
      "velocity": 105,
      "chip": "ym2612"
    },
    {
      "channel": 3,
      "note": 54,
      "start": 31.243,
      "duration": 0.1263,
      "velocity": 88,
      "chip": "ym2612"
    },
    {
      "channel": 4,
      "note": 68,
      "start": 31.2447,
      "duration": 0.2765,
      "velocity": 127,
      "chip": "ym2612"
    },
    {
      "channel": 5,
      "note": 90,
      "start": 31.2448,
      "duration": 0.1247,
      "velocity": 105,
      "chip": "ym2612"
    },
    {
      "channel": 3,
      "note": 57,
      "start": 31.3947,
      "duration": 0.1264,
      "velocity": 88,
      "chip": "ym2612"
    },
    {
      "channel": 5,
      "note": 83,
      "start": 31.3949,
      "duration": 0.1264,
      "velocity": 105,
      "chip": "ym2612"
    },
    {
      "channel": 2,
      "note": 74,
      "start": 31.5464,
      "duration": 0.733,
      "velocity": 117,
      "chip": "ym2612"
    },
    {
      "channel": 3,
      "note": 47,
      "start": 31.5466,
      "duration": 0.1261,
      "velocity": 88,
      "chip": "ym2612"
    },
    {
      "channel": 4,
      "note": 45,
      "start": 31.5482,
      "duration": 0.2763,
      "velocity": 101,
      "chip": "ym2612"
    },
    {
      "channel": 5,
      "note": 95,
      "start": 31.5484,
      "duration": 0.1245,
      "velocity": 105,
      "chip": "ym2612"
    },
    {
      "channel": 3,
      "note": 59,
      "start": 31.698,
      "duration": 0.1263,
      "velocity": 88,
      "chip": "ym2612"
    },
    {
      "channel": 5,
      "note": 83,
      "start": 31.6982,
      "duration": 0.1264,
      "velocity": 105,
      "chip": "ym2612"
    },
    {
      "channel": 3,
      "note": 47,
      "start": 31.8498,
      "duration": 0.1263,
      "velocity": 88,
      "chip": "ym2612"
    },
    {
      "channel": 4,
      "note": 68,
      "start": 31.8514,
      "duration": 0.2765,
      "velocity": 127,
      "chip": "ym2612"
    },
    {
      "channel": 5,
      "note": 90,
      "start": 31.8515,
      "duration": 0.1246,
      "velocity": 105,
      "chip": "ym2612"
    },
    {
      "channel": 3,
      "note": 57,
      "start": 32.0014,
      "duration": 0.1263,
      "velocity": 88,
      "chip": "ym2612"
    },
    {
      "channel": 5,
      "note": 83,
      "start": 32.0016,
      "duration": 0.1264,
      "velocity": 105,
      "chip": "ym2612"
    },
    {
      "channel": 3,
      "note": 47,
      "start": 32.1531,
      "duration": 0.1265,
      "velocity": 88,
      "chip": "ym2612"
    },
    {
      "channel": 4,
      "note": 45,
      "start": 32.1552,
      "duration": 0.276,
      "velocity": 101,
      "chip": "ym2612"
    },
    {
      "channel": 5,
      "note": 95,
      "start": 32.1553,
      "duration": 0.1244,
      "velocity": 105,
      "chip": "ym2612"
    },
    {
      "channel": 2,
      "note": 74,
      "start": 32.3047,
      "duration": 0.2781,
      "velocity": 117,
      "chip": "ym2612"
    },
    {
      "channel": 3,
      "note": 54,
      "start": 32.3049,
      "duration": 0.1262,
      "velocity": 88,
      "chip": "ym2612"
    },
    {
      "channel": 5,
      "note": 83,
      "start": 32.3051,
      "duration": 0.1263,
      "velocity": 105,
      "chip": "ym2612"
    },
    {
      "channel": 3,
      "note": 47,
      "start": 32.4565,
      "duration": 0.1264,
      "velocity": 88,
      "chip": "ym2612"
    },
    {
      "channel": 4,
      "note": 68,
      "start": 32.4582,
      "duration": 0.2764,
      "velocity": 127,
      "chip": "ym2612"
    },
    {
      "channel": 5,
      "note": 90,
      "start": 32.4583,
      "duration": 0.1248,
      "velocity": 105,
      "chip": "ym2612"
    },
    {
      "channel": 2,
      "note": 71,
      "start": 32.6082,
      "duration": 1.3398,
      "velocity": 117,
      "chip": "ym2612"
    },
    {
      "channel": 3,
      "note": 53,
      "start": 32.6084,
      "duration": 0.1261,
      "velocity": 88,
      "chip": "ym2612"
    },
    {
      "channel": 5,
      "note": 83,
      "start": 32.6085,
      "duration": 0.1261,
      "velocity": 105,
      "chip": "ym2612"
    },
    {
      "channel": 3,
      "note": 47,
      "start": 32.7598,
      "duration": 0.1264,
      "velocity": 88,
      "chip": "ym2612"
    },
    {
      "channel": 4,
      "note": 45,
      "start": 32.7614,
      "duration": 0.2765,
      "velocity": 101,
      "chip": "ym2612"
    },
    {
      "channel": 5,
      "note": 95,
      "start": 32.7616,
      "duration": 0.1247,
      "velocity": 105,
      "chip": "ym2612"
    },
    {
      "channel": 3,
      "note": 52,
      "start": 32.9115,
      "duration": 0.1263,
      "velocity": 88,
      "chip": "ym2612"
    },
    {
      "channel": 5,
      "note": 83,
      "start": 32.9117,
      "duration": 0.1263,
      "velocity": 105,
      "chip": "ym2612"
    },
    {
      "channel": 3,
      "note": 47,
      "start": 33.0632,
      "duration": 0.1263,
      "velocity": 88,
      "chip": "ym2612"
    },
    {
      "channel": 4,
      "note": 68,
      "start": 33.0648,
      "duration": 0.2766,
      "velocity": 127,
      "chip": "ym2612"
    },
    {
      "channel": 5,
      "note": 90,
      "start": 33.065,
      "duration": 0.1247,
      "velocity": 105,
      "chip": "ym2612"
    },
    {
      "channel": 1,
      "note": 74,
      "start": 33.2149,
      "duration": 0.1263,
      "velocity": 95,
      "chip": "ym2612"
    },
    {
      "channel": 3,
      "note": 50,
      "start": 33.2151,
      "duration": 0.1262,
      "velocity": 88,
      "chip": "ym2612"
    },
    {
      "channel": 5,
      "note": 83,
      "start": 33.2153,
      "duration": 0.1263,
      "velocity": 105,
      "chip": "ym2612"
    },
    {
      "channel": 1,
      "note": 74,
      "start": 33.3665,
      "duration": 0.1264,
      "velocity": 95,
      "chip": "ym2612"
    },
    {
      "channel": 3,
      "note": 52,
      "start": 33.3667,
      "duration": 0.1263,
      "velocity": 88,
      "chip": "ym2612"
    },
    {
      "channel": 4,
      "note": 45,
      "start": 33.3683,
      "duration": 0.2765,
      "velocity": 101,
      "chip": "ym2612"
    },
    {
      "channel": 5,
      "note": 95,
      "start": 33.3685,
      "duration": 0.1247,
      "velocity": 105,
      "chip": "ym2612"
    },
    {
      "channel": 1,
      "note": 76,
      "start": 33.5182,
      "duration": 0.1263,
      "velocity": 95,
      "chip": "ym2612"
    },
    {
      "channel": 3,
      "note": 50,
      "start": 33.5185,
      "duration": 0.1262,
      "velocity": 88,
      "chip": "ym2612"
    },
    {
      "channel": 5,
      "note": 83,
      "start": 33.5187,
      "duration": 0.1263,
      "velocity": 105,
      "chip": "ym2612"
    },
    {
      "channel": 1,
      "note": 80,
      "start": 33.6703,
      "duration": 0.1259,
      "velocity": 95,
      "chip": "ym2612"
    },
    {
      "channel": 3,
      "note": 45,
      "start": 33.6705,
      "duration": 0.1258,
      "velocity": 88,
      "chip": "ym2612"
    },
    {
      "channel": 4,
      "note": 68,
      "start": 33.6722,
      "duration": 0.2761,
      "velocity": 127,
      "chip": "ym2612"
    },
    {
      "channel": 5,
      "note": 90,
      "start": 33.6724,
      "duration": 0.1242,
      "velocity": 105,
      "chip": "ym2612"
    },
    {
      "channel": 1,
      "note": 83,
      "start": 33.8216,
      "duration": 0.1263,
      "velocity": 95,
      "chip": "ym2612"
    },
    {
      "channel": 3,
      "note": 46,
      "start": 33.8218,
      "duration": 0.1263,
      "velocity": 88,
      "chip": "ym2612"
    },
    {
      "channel": 5,
      "note": 83,
      "start": 33.822,
      "duration": 0.1264,
      "velocity": 105,
      "chip": "ym2612"
    },
    {
      "channel": 2,
      "note": 74,
      "start": 33.9733,
      "duration": 0.5308,
      "velocity": 117,
      "chip": "ym2612"
    },
    {
      "channel": 3,
      "note": 47,
      "start": 33.9735,
      "duration": 0.1261,
      "velocity": 88,
      "chip": "ym2612"
    },
    {
      "channel": 4,
      "note": 45,
      "start": 33.9751,
      "duration": 0.2763,
      "velocity": 101,
      "chip": "ym2612"
    },
    {
      "channel": 5,
      "note": 95,
      "start": 33.9753,
      "duration": 0.1245,
      "velocity": 105,
      "chip": "ym2612"
    },
    {
      "channel": 3,
      "note": 59,
      "start": 34.125,
      "duration": 0.1263,
      "velocity": 88,
      "chip": "ym2612"
    },
    {
      "channel": 5,
      "note": 83,
      "start": 34.1251,
      "duration": 0.1264,
      "velocity": 105,
      "chip": "ym2612"
    },
    {
      "channel": 3,
      "note": 47,
      "start": 34.2767,
      "duration": 0.1263,
      "velocity": 88,
      "chip": "ym2612"
    },
    {
      "channel": 4,
      "note": 68,
      "start": 34.2783,
      "duration": 0.2765,
      "velocity": 127,
      "chip": "ym2612"
    },
    {
      "channel": 5,
      "note": 90,
      "start": 34.2785,
      "duration": 0.1246,
      "velocity": 105,
      "chip": "ym2612"
    },
    {
      "channel": 3,
      "note": 57,
      "start": 34.4283,
      "duration": 0.1263,
      "velocity": 88,
      "chip": "ym2612"
    },
    {
      "channel": 5,
      "note": 83,
      "start": 34.4286,
      "duration": 0.1263,
      "velocity": 105,
      "chip": "ym2612"
    },
    {
      "channel": 2,
      "note": 74,
      "start": 34.5799,
      "duration": 0.1264,
      "velocity": 117,
      "chip": "ym2612"
    },
    {
      "channel": 3,
      "note": 47,
      "start": 34.5801,
      "duration": 0.1263,
      "velocity": 88,
      "chip": "ym2612"
    },
    {
      "channel": 4,
      "note": 45,
      "start": 34.5818,
      "duration": 0.2764,
      "velocity": 101,
      "chip": "ym2612"
    },
    {
      "channel": 5,
      "note": 95,
      "start": 34.582,
      "duration": 0.1246,
      "velocity": 105,
      "chip": "ym2612"
    },
    {
      "channel": 2,
      "note": 74,
      "start": 34.7316,
      "duration": 0.2781,
      "velocity": 117,
      "chip": "ym2612"
    },
    {
      "channel": 3,
      "note": 54,
      "start": 34.7318,
      "duration": 0.1263,
      "velocity": 88,
      "chip": "ym2612"
    },
    {
      "channel": 5,
      "note": 83,
      "start": 34.732,
      "duration": 0.1263,
      "velocity": 105,
      "chip": "ym2612"
    },
    {
      "channel": 3,
      "note": 47,
      "start": 34.8834,
      "duration": 0.1265,
      "velocity": 88,
      "chip": "ym2612"
    },
    {
      "channel": 4,
      "note": 68,
      "start": 34.885,
      "duration": 0.2765,
      "velocity": 127,
      "chip": "ym2612"
    },
    {
      "channel": 5,
      "note": 90,
      "start": 34.8852,
      "duration": 0.1248,
      "velocity": 105,
      "chip": "ym2612"
    },
    {
      "channel": 2,
      "note": 71,
      "start": 35.0351,
      "duration": 1.3398,
      "velocity": 117,
      "chip": "ym2612"
    },
    {
      "channel": 3,
      "note": 53,
      "start": 35.0353,
      "duration": 0.1261,
      "velocity": 88,
      "chip": "ym2612"
    },
    {
      "channel": 5,
      "note": 83,
      "start": 35.0355,
      "duration": 0.1262,
      "velocity": 105,
      "chip": "ym2612"
    },
    {
      "channel": 3,
      "note": 47,
      "start": 35.1873,
      "duration": 0.1258,
      "velocity": 88,
      "chip": "ym2612"
    },
    {
      "channel": 4,
      "note": 45,
      "start": 35.189,
      "duration": 0.2759,
      "velocity": 101,
      "chip": "ym2612"
    },
    {
      "channel": 5,
      "note": 95,
      "start": 35.1891,
      "duration": 0.1241,
      "velocity": 105,
      "chip": "ym2612"
    },
    {
      "channel": 3,
      "note": 52,
      "start": 35.3384,
      "duration": 0.1263,
      "velocity": 88,
      "chip": "ym2612"
    },
    {
      "channel": 5,
      "note": 83,
      "start": 35.3386,
      "duration": 0.1263,
      "velocity": 105,
      "chip": "ym2612"
    },
    {
      "channel": 3,
      "note": 47,
      "start": 35.4901,
      "duration": 0.1263,
      "velocity": 88,
      "chip": "ym2612"
    },
    {
      "channel": 4,
      "note": 68,
      "start": 35.4917,
      "duration": 0.2765,
      "velocity": 127,
      "chip": "ym2612"
    },
    {
      "channel": 5,
      "note": 90,
      "start": 35.492,
      "duration": 0.1246,
      "velocity": 105,
      "chip": "ym2612"
    },
    {
      "channel": 1,
      "note": 81,
      "start": 35.6417,
      "duration": 0.278,
      "velocity": 95,
      "chip": "ym2612"
    },
    {
      "channel": 3,
      "note": 50,
      "start": 35.642,
      "duration": 0.1261,
      "velocity": 88,
      "chip": "ym2612"
    },
    {
      "channel": 5,
      "note": 83,
      "start": 35.6422,
      "duration": 0.1261,
      "velocity": 105,
      "chip": "ym2612"
    },
    {
      "channel": 3,
      "note": 52,
      "start": 35.7935,
      "duration": 0.1268,
      "velocity": 88,
      "chip": "ym2612"
    },
    {
      "channel": 4,
      "note": 45,
      "start": 35.7951,
      "duration": 0.2765,
      "velocity": 101,
      "chip": "ym2612"
    },
    {
      "channel": 5,
      "note": 95,
      "start": 35.7953,
      "duration": 0.1252,
      "velocity": 105,
      "chip": "ym2612"
    },
    {
      "channel": 1,
      "note": 80,
      "start": 35.9451,
      "duration": 0.4045,
      "velocity": 95,
      "chip": "ym2612"
    },
    {
      "channel": 3,
      "note": 53,
      "start": 35.9453,
      "duration": 0.1261,
      "velocity": 88,
      "chip": "ym2612"
    },
    {
      "channel": 5,
      "note": 83,
      "start": 35.9455,
      "duration": 0.1262,
      "velocity": 105,
      "chip": "ym2612"
    },
    {
      "channel": 3,
      "note": 54,
      "start": 36.0968,
      "duration": 0.1264,
      "velocity": 88,
      "chip": "ym2612"
    },
    {
      "channel": 4,
      "note": 68,
      "start": 36.0984,
      "duration": 0.2766,
      "velocity": 127,
      "chip": "ym2612"
    },
    {
      "channel": 5,
      "note": 90,
      "start": 36.0986,
      "duration": 0.1247,
      "velocity": 105,
      "chip": "ym2612"
    },
    {
      "channel": 3,
      "note": 57,
      "start": 36.2485,
      "duration": 0.1265,
      "velocity": 88,
      "chip": "ym2612"
    },
    {
      "channel": 5,
      "note": 83,
      "start": 36.2488,
      "duration": 0.1265,
      "velocity": 105,
      "chip": "ym2612"
    },
    {
      "channel": 2,
      "note": 74,
      "start": 36.4002,
      "duration": 0.7331,
      "velocity": 117,
      "chip": "ym2612"
    },
    {
      "channel": 3,
      "note": 47,
      "start": 36.4003,
      "duration": 0.1261,
      "velocity": 88,
      "chip": "ym2612"
    },
    {
      "channel": 4,
      "note": 45,
      "start": 36.402,
      "duration": 0.2763,
      "velocity": 101,
      "chip": "ym2612"
    },
    {
      "channel": 5,
      "note": 95,
      "start": 36.4022,
      "duration": 0.1244,
      "velocity": 105,
      "chip": "ym2612"
    },
    {
      "channel": 3,
      "note": 59,
      "start": 36.5519,
      "duration": 0.1263,
      "velocity": 88,
      "chip": "ym2612"
    },
    {
      "channel": 5,
      "note": 83,
      "start": 36.5521,
      "duration": 0.1264,
      "velocity": 105,
      "chip": "ym2612"
    },
    {
      "channel": 3,
      "note": 47,
      "start": 36.704,
      "duration": 0.1258,
      "velocity": 88,
      "chip": "ym2612"
    },
    {
      "channel": 4,
      "note": 68,
      "start": 36.7057,
      "duration": 0.276,
      "velocity": 127,
      "chip": "ym2612"
    },
    {
      "channel": 5,
      "note": 90,
      "start": 36.7058,
      "duration": 0.1242,
      "velocity": 105,
      "chip": "ym2612"
    },
    {
      "channel": 3,
      "note": 57,
      "start": 36.8552,
      "duration": 0.1264,
      "velocity": 88,
      "chip": "ym2612"
    },
    {
      "channel": 5,
      "note": 83,
      "start": 36.8554,
      "duration": 0.1264,
      "velocity": 105,
      "chip": "ym2612"
    },
    {
      "channel": 3,
      "note": 47,
      "start": 37.0069,
      "duration": 0.1265,
      "velocity": 88,
      "chip": "ym2612"
    },
    {
      "channel": 4,
      "note": 45,
      "start": 37.0085,
      "duration": 0.2765,
      "velocity": 101,
      "chip": "ym2612"
    },
    {
      "channel": 5,
      "note": 95,
      "start": 37.0087,
      "duration": 0.1248,
      "velocity": 105,
      "chip": "ym2612"
    },
    {
      "channel": 2,
      "note": 74,
      "start": 37.1585,
      "duration": 0.2788,
      "velocity": 117,
      "chip": "ym2612"
    },
    {
      "channel": 3,
      "note": 54,
      "start": 37.1587,
      "duration": 0.1263,
      "velocity": 88,
      "chip": "ym2612"
    },
    {
      "channel": 5,
      "note": 83,
      "start": 37.1589,
      "duration": 0.1263,
      "velocity": 105,
      "chip": "ym2612"
    },
    {
      "channel": 3,
      "note": 47,
      "start": 37.3103,
      "duration": 0.1271,
      "velocity": 88,
      "chip": "ym2612"
    },
    {
      "channel": 4,
      "note": 68,
      "start": 37.3119,
      "duration": 0.2765,
      "velocity": 127,
      "chip": "ym2612"
    },
    {
      "channel": 5,
      "note": 90,
      "start": 37.3121,
      "duration": 0.1254,
      "velocity": 105,
      "chip": "ym2612"
    },
    {
      "channel": 2,
      "note": 71,
      "start": 37.4619,
      "duration": 1.3399,
      "velocity": 117,
      "chip": "ym2612"
    },
    {
      "channel": 3,
      "note": 53,
      "start": 37.4621,
      "duration": 0.1261,
      "velocity": 88,
      "chip": "ym2612"
    },
    {
      "channel": 5,
      "note": 83,
      "start": 37.4623,
      "duration": 0.1262,
      "velocity": 105,
      "chip": "ym2612"
    },
    {
      "channel": 3,
      "note": 47,
      "start": 37.6136,
      "duration": 0.1263,
      "velocity": 88,
      "chip": "ym2612"
    },
    {
      "channel": 4,
      "note": 45,
      "start": 37.6152,
      "duration": 0.2766,
      "velocity": 101,
      "chip": "ym2612"
    },
    {
      "channel": 5,
      "note": 95,
      "start": 37.6154,
      "duration": 0.1247,
      "velocity": 105,
      "chip": "ym2612"
    },
    {
      "channel": 3,
      "note": 52,
      "start": 37.7653,
      "duration": 0.1264,
      "velocity": 88,
      "chip": "ym2612"
    },
    {
      "channel": 5,
      "note": 83,
      "start": 37.7656,
      "duration": 0.1264,
      "velocity": 105,
      "chip": "ym2612"
    },
    {
      "channel": 3,
      "note": 47,
      "start": 37.917,
      "duration": 0.1263,
      "velocity": 88,
      "chip": "ym2612"
    },
    {
      "channel": 4,
      "note": 68,
      "start": 37.9187,
      "duration": 0.2765,
      "velocity": 127,
      "chip": "ym2612"
    },
    {
      "channel": 5,
      "note": 90,
      "start": 37.9188,
      "duration": 0.1246,
      "velocity": 105,
      "chip": "ym2612"
    },
    {
      "channel": 1,
      "note": 74,
      "start": 38.0687,
      "duration": 0.1263,
      "velocity": 95,
      "chip": "ym2612"
    },
    {
      "channel": 3,
      "note": 50,
      "start": 38.0688,
      "duration": 0.1262,
      "velocity": 88,
      "chip": "ym2612"
    },
    {
      "channel": 5,
      "note": 83,
      "start": 38.069,
      "duration": 0.1263,
      "velocity": 105,
      "chip": "ym2612"
    },
    {
      "channel": 1,
      "note": 74,
      "start": 38.2206,
      "duration": 0.1261,
      "velocity": 95,
      "chip": "ym2612"
    },
    {
      "channel": 3,
      "note": 52,
      "start": 38.2208,
      "duration": 0.126,
      "velocity": 88,
      "chip": "ym2612"
    },
    {
      "channel": 4,
      "note": 45,
      "start": 38.2224,
      "duration": 0.2761,
      "velocity": 101,
      "chip": "ym2612"
    },
    {
      "channel": 5,
      "note": 95,
      "start": 38.2225,
      "duration": 0.1244,
      "velocity": 105,
      "chip": "ym2612"
    },
    {
      "channel": 1,
      "note": 76,
      "start": 38.372,
      "duration": 0.1263,
      "velocity": 95,
      "chip": "ym2612"
    },
    {
      "channel": 3,
      "note": 50,
      "start": 38.3722,
      "duration": 0.1263,
      "velocity": 88,
      "chip": "ym2612"
    },
    {
      "channel": 5,
      "note": 83,
      "start": 38.3724,
      "duration": 0.1263,
      "velocity": 105,
      "chip": "ym2612"
    },
    {
      "channel": 1,
      "note": 80,
      "start": 38.5237,
      "duration": 0.1263,
      "velocity": 95,
      "chip": "ym2612"
    },
    {
      "channel": 3,
      "note": 45,
      "start": 38.5239,
      "duration": 0.1263,
      "velocity": 88,
      "chip": "ym2612"
    },
    {
      "channel": 4,
      "note": 68,
      "start": 38.5255,
      "duration": 0.2765,
      "velocity": 127,
      "chip": "ym2612"
    },
    {
      "channel": 5,
      "note": 90,
      "start": 38.5257,
      "duration": 0.1246,
      "velocity": 105,
      "chip": "ym2612"
    },
    {
      "channel": 1,
      "note": 83,
      "start": 38.6754,
      "duration": 0.1263,
      "velocity": 95,
      "chip": "ym2612"
    },
    {
      "channel": 3,
      "note": 46,
      "start": 38.6756,
      "duration": 0.1263,
      "velocity": 88,
      "chip": "ym2612"
    },
    {
      "channel": 5,
      "note": 83,
      "start": 38.6758,
      "duration": 0.1264,
      "velocity": 105,
      "chip": "ym2612"
    },
    {
      "channel": 2,
      "note": 74,
      "start": 38.8271,
      "duration": 0.5308,
      "velocity": 117,
      "chip": "ym2612"
    },
    {
      "channel": 3,
      "note": 47,
      "start": 38.8273,
      "duration": 0.1266,
      "velocity": 88,
      "chip": "ym2612"
    },
    {
      "channel": 4,
      "note": 45,
      "start": 38.8289,
      "duration": 0.2763,
      "velocity": 101,
      "chip": "ym2612"
    },
    {
      "channel": 5,
      "note": 95,
      "start": 38.829,
      "duration": 0.125,
      "velocity": 105,
      "chip": "ym2612"
    },
    {
      "channel": 3,
      "note": 59,
      "start": 38.9788,
      "duration": 0.1263,
      "velocity": 88,
      "chip": "ym2612"
    },
    {
      "channel": 5,
      "note": 83,
      "start": 38.979,
      "duration": 0.1264,
      "velocity": 105,
      "chip": "ym2612"
    },
    {
      "channel": 3,
      "note": 47,
      "start": 39.1304,
      "duration": 0.1263,
      "velocity": 88,
      "chip": "ym2612"
    },
    {
      "channel": 4,
      "note": 68,
      "start": 39.132,
      "duration": 0.2766,
      "velocity": 127,
      "chip": "ym2612"
    },
    {
      "channel": 5,
      "note": 90,
      "start": 39.1322,
      "duration": 0.1247,
      "velocity": 105,
      "chip": "ym2612"
    },
    {
      "channel": 3,
      "note": 57,
      "start": 39.2822,
      "duration": 0.1263,
      "velocity": 88,
      "chip": "ym2612"
    },
    {
      "channel": 5,
      "note": 83,
      "start": 39.2823,
      "duration": 0.1264,
      "velocity": 105,
      "chip": "ym2612"
    },
    {
      "channel": 2,
      "note": 74,
      "start": 39.4337,
      "duration": 0.1263,
      "velocity": 117,
      "chip": "ym2612"
    },
    {
      "channel": 3,
      "note": 47,
      "start": 39.4339,
      "duration": 0.1263,
      "velocity": 88,
      "chip": "ym2612"
    },
    {
      "channel": 4,
      "note": 45,
      "start": 39.4356,
      "duration": 0.2763,
      "velocity": 101,
      "chip": "ym2612"
    },
    {
      "channel": 5,
      "note": 95,
      "start": 39.4358,
      "duration": 0.1246,
      "velocity": 105,
      "chip": "ym2612"
    },
    {
      "channel": 2,
      "note": 74,
      "start": 39.5855,
      "duration": 0.278,
      "velocity": 117,
      "chip": "ym2612"
    },
    {
      "channel": 3,
      "note": 54,
      "start": 39.5856,
      "duration": 0.1261,
      "velocity": 88,
      "chip": "ym2612"
    },
    {
      "channel": 5,
      "note": 83,
      "start": 39.5858,
      "duration": 0.1262,
      "velocity": 105,
      "chip": "ym2612"
    },
    {
      "channel": 3,
      "note": 47,
      "start": 39.7374,
      "duration": 0.1262,
      "velocity": 88,
      "chip": "ym2612"
    },
    {
      "channel": 4,
      "note": 68,
      "start": 39.739,
      "duration": 0.2763,
      "velocity": 127,
      "chip": "ym2612"
    },
    {
      "channel": 5,
      "note": 90,
      "start": 39.7391,
      "duration": 0.1246,
      "velocity": 105,
      "chip": "ym2612"
    },
    {
      "channel": 2,
      "note": 71,
      "start": 39.8888,
      "duration": 1.3398,
      "velocity": 117,
      "chip": "ym2612"
    },
    {
      "channel": 3,
      "note": 53,
      "start": 39.889,
      "duration": 0.1261,
      "velocity": 88,
      "chip": "ym2612"
    },
    {
      "channel": 5,
      "note": 83,
      "start": 39.8892,
      "duration": 0.1262,
      "velocity": 105,
      "chip": "ym2612"
    },
    {
      "channel": 3,
      "note": 47,
      "start": 40.0405,
      "duration": 0.1263,
      "velocity": 88,
      "chip": "ym2612"
    },
    {
      "channel": 4,
      "note": 45,
      "start": 40.0422,
      "duration": 0.2765,
      "velocity": 101,
      "chip": "ym2612"
    },
    {
      "channel": 5,
      "note": 95,
      "start": 40.0423,
      "duration": 0.1247,
      "velocity": 105,
      "chip": "ym2612"
    },
    {
      "channel": 3,
      "note": 52,
      "start": 40.1922,
      "duration": 0.1263,
      "velocity": 88,
      "chip": "ym2612"
    },
    {
      "channel": 5,
      "note": 83,
      "start": 40.1924,
      "duration": 0.1263,
      "velocity": 105,
      "chip": "ym2612"
    },
    {
      "channel": 3,
      "note": 47,
      "start": 40.3439,
      "duration": 0.1267,
      "velocity": 88,
      "chip": "ym2612"
    },
    {
      "channel": 4,
      "note": 68,
      "start": 40.3455,
      "duration": 0.2765,
      "velocity": 127,
      "chip": "ym2612"
    },
    {
      "channel": 5,
      "note": 90,
      "start": 40.3457,
      "duration": 0.1251,
      "velocity": 105,
      "chip": "ym2612"
    },
    {
      "channel": 1,
      "note": 81,
      "start": 40.4956,
      "duration": 0.278,
      "velocity": 95,
      "chip": "ym2612"
    },
    {
      "channel": 3,
      "note": 50,
      "start": 40.4958,
      "duration": 0.1261,
      "velocity": 88,
      "chip": "ym2612"
    },
    {
      "channel": 5,
      "note": 83,
      "start": 40.4959,
      "duration": 0.1262,
      "velocity": 105,
      "chip": "ym2612"
    },
    {
      "channel": 3,
      "note": 52,
      "start": 40.6472,
      "duration": 0.1265,
      "velocity": 88,
      "chip": "ym2612"
    },
    {
      "channel": 4,
      "note": 45,
      "start": 40.6489,
      "duration": 0.2765,
      "velocity": 101,
      "chip": "ym2612"
    },
    {
      "channel": 5,
      "note": 95,
      "start": 40.6491,
      "duration": 0.1247,
      "velocity": 105,
      "chip": "ym2612"
    },
    {
      "channel": 1,
      "note": 80,
      "start": 40.7989,
      "duration": 0.4049,
      "velocity": 95,
      "chip": "ym2612"
    },
    {
      "channel": 3,
      "note": 53,
      "start": 40.7991,
      "duration": 0.1262,
      "velocity": 88,
      "chip": "ym2612"
    },
    {
      "channel": 5,
      "note": 83,
      "start": 40.7993,
      "duration": 0.1263,
      "velocity": 105,
      "chip": "ym2612"
    },
    {
      "channel": 3,
      "note": 54,
      "start": 40.9507,
      "duration": 0.1263,
      "velocity": 88,
      "chip": "ym2612"
    },
    {
      "channel": 4,
      "note": 68,
      "start": 40.9523,
      "duration": 0.2765,
      "velocity": 127,
      "chip": "ym2612"
    },
    {
      "channel": 5,
      "note": 90,
      "start": 40.9524,
      "duration": 0.1247,
      "velocity": 105,
      "chip": "ym2612"
    },
    {
      "channel": 3,
      "note": 57,
      "start": 41.1022,
      "duration": 0.1265,
      "velocity": 88,
      "chip": "ym2612"
    },
    {
      "channel": 5,
      "note": 83,
      "start": 41.1025,
      "duration": 0.1265,
      "velocity": 105,
      "chip": "ym2612"
    },
    {
      "channel": 2,
      "note": 76,
      "start": 41.254,
      "duration": 0.7333,
      "velocity": 117,
      "chip": "ym2612"
    },
    {
      "channel": 3,
      "note": 49,
      "start": 41.2541,
      "duration": 0.1261,
      "velocity": 88,
      "chip": "ym2612"
    },
    {
      "channel": 4,
      "note": 45,
      "start": 41.2558,
      "duration": 0.2763,
      "velocity": 101,
      "chip": "ym2612"
    },
    {
      "channel": 5,
      "note": 97,
      "start": 41.256,
      "duration": 0.1244,
      "velocity": 105,
      "chip": "ym2612"
    },
    {
      "channel": 3,
      "note": 61,
      "start": 41.4056,
      "duration": 0.1264,
      "velocity": 88,
      "chip": "ym2612"
    },
    {
      "channel": 5,
      "note": 85,
      "start": 41.4058,
      "duration": 0.1265,
      "velocity": 105,
      "chip": "ym2612"
    },
    {
      "channel": 3,
      "note": 49,
      "start": 41.5573,
      "duration": 0.1263,
      "velocity": 88,
      "chip": "ym2612"
    },
    {
      "channel": 4,
      "note": 68,
      "start": 41.559,
      "duration": 0.2765,
      "velocity": 127,
      "chip": "ym2612"
    },
    {
      "channel": 5,
      "note": 92,
      "start": 41.5591,
      "duration": 0.1247,
      "velocity": 105,
      "chip": "ym2612"
    },
    {
      "channel": 3,
      "note": 59,
      "start": 41.709,
      "duration": 0.1264,
      "velocity": 88,
      "chip": "ym2612"
    },
    {
      "channel": 5,
      "note": 85,
      "start": 41.7093,
      "duration": 0.1264,
      "velocity": 105,
      "chip": "ym2612"
    },
    {
      "channel": 3,
      "note": 49,
      "start": 41.8607,
      "duration": 0.1267,
      "velocity": 88,
      "chip": "ym2612"
    },
    {
      "channel": 4,
      "note": 45,
      "start": 41.8624,
      "duration": 0.2765,
      "velocity": 101,
      "chip": "ym2612"
    },
    {
      "channel": 5,
      "note": 97,
      "start": 41.8626,
      "duration": 0.1249,
      "velocity": 105,
      "chip": "ym2612"
    },
    {
      "channel": 2,
      "note": 76,
      "start": 42.0123,
      "duration": 0.2781,
      "velocity": 117,
      "chip": "ym2612"
    },
    {
      "channel": 3,
      "note": 56,
      "start": 42.0125,
      "duration": 0.1262,
      "velocity": 88,
      "chip": "ym2612"
    },
    {
      "channel": 5,
      "note": 85,
      "start": 42.0127,
      "duration": 0.1263,
      "velocity": 105,
      "chip": "ym2612"
    },
    {
      "channel": 3,
      "note": 49,
      "start": 42.1641,
      "duration": 0.1265,
      "velocity": 88,
      "chip": "ym2612"
    },
    {
      "channel": 4,
      "note": 68,
      "start": 42.1657,
      "duration": 0.2765,
      "velocity": 127,
      "chip": "ym2612"
    },
    {
      "channel": 5,
      "note": 92,
      "start": 42.1659,
      "duration": 0.1248,
      "velocity": 105,
      "chip": "ym2612"
    },
    {
      "channel": 2,
      "note": 73,
      "start": 42.3157,
      "duration": 1.3399,
      "velocity": 117,
      "chip": "ym2612"
    },
    {
      "channel": 3,
      "note": 55,
      "start": 42.3159,
      "duration": 0.1261,
      "velocity": 88,
      "chip": "ym2612"
    },
    {
      "channel": 5,
      "note": 85,
      "start": 42.3161,
      "duration": 0.1262,
      "velocity": 105,
      "chip": "ym2612"
    },
    {
      "channel": 3,
      "note": 49,
      "start": 42.4675,
      "duration": 0.1263,
      "velocity": 88,
      "chip": "ym2612"
    },
    {
      "channel": 4,
      "note": 45,
      "start": 42.469,
      "duration": 0.2765,
      "velocity": 101,
      "chip": "ym2612"
    },
    {
      "channel": 5,
      "note": 97,
      "start": 42.4692,
      "duration": 0.1246,
      "velocity": 105,
      "chip": "ym2612"
    },
    {
      "channel": 3,
      "note": 52,
      "start": 42.6191,
      "duration": 0.1263,
      "velocity": 88,
      "chip": "ym2612"
    },
    {
      "channel": 5,
      "note": 85,
      "start": 42.6193,
      "duration": 0.1264,
      "velocity": 105,
      "chip": "ym2612"
    },
    {
      "channel": 3,
      "note": 49,
      "start": 42.7708,
      "duration": 0.1263,
      "velocity": 88,
      "chip": "ym2612"
    },
    {
      "channel": 4,
      "note": 68,
      "start": 42.7724,
      "duration": 0.2766,
      "velocity": 127,
      "chip": "ym2612"
    },
    {
      "channel": 5,
      "note": 92,
      "start": 42.7726,
      "duration": 0.1246,
      "velocity": 105,
      "chip": "ym2612"
    },
    {
      "channel": 1,
      "note": 76,
      "start": 42.9225,
      "duration": 0.1263,
      "velocity": 95,
      "chip": "ym2612"
    },
    {
      "channel": 3,
      "note": 52,
      "start": 42.9227,
      "duration": 0.1263,
      "velocity": 88,
      "chip": "ym2612"
    },
    {
      "channel": 5,
      "note": 85,
      "start": 42.9229,
      "duration": 0.1263,
      "velocity": 105,
      "chip": "ym2612"
    },
    {
      "channel": 1,
      "note": 76,
      "start": 43.0741,
      "duration": 0.1264,
      "velocity": 95,
      "chip": "ym2612"
    },
    {
      "channel": 3,
      "note": 54,
      "start": 43.0743,
      "duration": 0.1263,
      "velocity": 88,
      "chip": "ym2612"
    },
    {
      "channel": 4,
      "note": 45,
      "start": 43.0759,
      "duration": 0.2766,
      "velocity": 101,
      "chip": "ym2612"
    },
    {
      "channel": 5,
      "note": 97,
      "start": 43.076,
      "duration": 0.1248,
      "velocity": 105,
      "chip": "ym2612"
    },
    {
      "channel": 1,
      "note": 78,
      "start": 43.2258,
      "duration": 0.1263,
      "velocity": 95,
      "chip": "ym2612"
    },
    {
      "channel": 3,
      "note": 52,
      "start": 43.226,
      "duration": 0.1263,
      "velocity": 88,
      "chip": "ym2612"
    },
    {
      "channel": 5,
      "note": 85,
      "start": 43.2262,
      "duration": 0.1263,
      "velocity": 105,
      "chip": "ym2612"
    },
    {
      "channel": 1,
      "note": 82,
      "start": 43.3775,
      "duration": 0.1264,
      "velocity": 95,
      "chip": "ym2612"
    },
    {
      "channel": 3,
      "note": 47,
      "start": 43.3777,
      "duration": 0.1263,
      "velocity": 88,
      "chip": "ym2612"
    },
    {
      "channel": 4,
      "note": 68,
      "start": 43.3793,
      "duration": 0.2765,
      "velocity": 127,
      "chip": "ym2612"
    },
    {
      "channel": 5,
      "note": 92,
      "start": 43.3795,
      "duration": 0.1247,
      "velocity": 105,
      "chip": "ym2612"
    },
    {
      "channel": 1,
      "note": 85,
      "start": 43.5292,
      "duration": 0.1263,
      "velocity": 95,
      "chip": "ym2612"
    },
    {
      "channel": 3,
      "note": 48,
      "start": 43.5294,
      "duration": 0.1263,
      "velocity": 88,
      "chip": "ym2612"
    },
    {
      "channel": 5,
      "note": 85,
      "start": 43.5296,
      "duration": 0.1264,
      "velocity": 105,
      "chip": "ym2612"
    },
    {
      "channel": 2,
      "note": 76,
      "start": 43.6808,
      "duration": 0.5308,
      "velocity": 117,
      "chip": "ym2612"
    },
    {
      "channel": 3,
      "note": 49,
      "start": 43.681,
      "duration": 0.1262,
      "velocity": 88,
      "chip": "ym2612"
    },
    {
      "channel": 4,
      "note": 45,
      "start": 43.6827,
      "duration": 0.2763,
      "velocity": 101,
      "chip": "ym2612"
    },
    {
      "channel": 5,
      "note": 97,
      "start": 43.6829,
      "duration": 0.1245,
      "velocity": 105,
      "chip": "ym2612"
    },
    {
      "channel": 3,
      "note": 61,
      "start": 43.8326,
      "duration": 0.1263,
      "velocity": 88,
      "chip": "ym2612"
    },
    {
      "channel": 5,
      "note": 85,
      "start": 43.8328,
      "duration": 0.1263,
      "velocity": 105,
      "chip": "ym2612"
    },
    {
      "channel": 3,
      "note": 49,
      "start": 43.9842,
      "duration": 0.1263,
      "velocity": 88,
      "chip": "ym2612"
    },
    {
      "channel": 4,
      "note": 68,
      "start": 43.9859,
      "duration": 0.2765,
      "velocity": 127,
      "chip": "ym2612"
    },
    {
      "channel": 5,
      "note": 92,
      "start": 43.9861,
      "duration": 0.1246,
      "velocity": 105,
      "chip": "ym2612"
    },
    {
      "channel": 3,
      "note": 59,
      "start": 44.136,
      "duration": 0.1263,
      "velocity": 88,
      "chip": "ym2612"
    },
    {
      "channel": 5,
      "note": 85,
      "start": 44.1361,
      "duration": 0.1264,
      "velocity": 105,
      "chip": "ym2612"
    },
    {
      "channel": 2,
      "note": 76,
      "start": 44.2876,
      "duration": 0.1264,
      "velocity": 117,
      "chip": "ym2612"
    },
    {
      "channel": 3,
      "note": 49,
      "start": 44.2878,
      "duration": 0.1263,
      "velocity": 88,
      "chip": "ym2612"
    },
    {
      "channel": 4,
      "note": 45,
      "start": 44.2894,
      "duration": 0.2763,
      "velocity": 101,
      "chip": "ym2612"
    },
    {
      "channel": 5,
      "note": 97,
      "start": 44.2895,
      "duration": 0.1247,
      "velocity": 105,
      "chip": "ym2612"
    },
    {
      "channel": 2,
      "note": 76,
      "start": 44.4392,
      "duration": 0.278,
      "velocity": 117,
      "chip": "ym2612"
    },
    {
      "channel": 3,
      "note": 56,
      "start": 44.4394,
      "duration": 0.1262,
      "velocity": 88,
      "chip": "ym2612"
    },
    {
      "channel": 5,
      "note": 85,
      "start": 44.4396,
      "duration": 0.1263,
      "velocity": 105,
      "chip": "ym2612"
    },
    {
      "channel": 3,
      "note": 49,
      "start": 44.5909,
      "duration": 0.1265,
      "velocity": 88,
      "chip": "ym2612"
    },
    {
      "channel": 4,
      "note": 68,
      "start": 44.5926,
      "duration": 0.2765,
      "velocity": 127,
      "chip": "ym2612"
    },
    {
      "channel": 5,
      "note": 92,
      "start": 44.5928,
      "duration": 0.1248,
      "velocity": 105,
      "chip": "ym2612"
    },
    {
      "channel": 2,
      "note": 73,
      "start": 44.7427,
      "duration": 1.3398,
      "velocity": 117,
      "chip": "ym2612"
    },
    {
      "channel": 3,
      "note": 55,
      "start": 44.7428,
      "duration": 0.1261,
      "velocity": 88,
      "chip": "ym2612"
    },
    {
      "channel": 5,
      "note": 85,
      "start": 44.743,
      "duration": 0.1261,
      "velocity": 105,
      "chip": "ym2612"
    },
    {
      "channel": 3,
      "note": 49,
      "start": 44.8943,
      "duration": 0.1263,
      "velocity": 88,
      "chip": "ym2612"
    },
    {
      "channel": 4,
      "note": 45,
      "start": 44.8959,
      "duration": 0.2765,
      "velocity": 101,
      "chip": "ym2612"
    },
    {
      "channel": 5,
      "note": 97,
      "start": 44.8961,
      "duration": 0.1247,
      "velocity": 105,
      "chip": "ym2612"
    },
    {
      "channel": 3,
      "note": 52,
      "start": 45.046,
      "duration": 0.1263,
      "velocity": 88,
      "chip": "ym2612"
    },
    {
      "channel": 5,
      "note": 85,
      "start": 45.0462,
      "duration": 0.1264,
      "velocity": 105,
      "chip": "ym2612"
    },
    {
      "channel": 3,
      "note": 49,
      "start": 45.1977,
      "duration": 0.1264,
      "velocity": 88,
      "chip": "ym2612"
    },
    {
      "channel": 4,
      "note": 68,
      "start": 45.1993,
      "duration": 0.2765,
      "velocity": 127,
      "chip": "ym2612"
    },
    {
      "channel": 5,
      "note": 92,
      "start": 45.1995,
      "duration": 0.1247,
      "velocity": 105,
      "chip": "ym2612"
    },
    {
      "channel": 1,
      "note": 83,
      "start": 45.3493,
      "duration": 0.278,
      "velocity": 95,
      "chip": "ym2612"
    },
    {
      "channel": 3,
      "note": 52,
      "start": 45.3496,
      "duration": 0.1261,
      "velocity": 88,
      "chip": "ym2612"
    },
    {
      "channel": 5,
      "note": 85,
      "start": 45.3498,
      "duration": 0.1261,
      "velocity": 105,
      "chip": "ym2612"
    },
    {
      "channel": 3,
      "note": 54,
      "start": 45.501,
      "duration": 0.1265,
      "velocity": 88,
      "chip": "ym2612"
    },
    {
      "channel": 4,
      "note": 45,
      "start": 45.5027,
      "duration": 0.2765,
      "velocity": 101,
      "chip": "ym2612"
    },
    {
      "channel": 5,
      "note": 97,
      "start": 45.5029,
      "duration": 0.1248,
      "velocity": 105,
      "chip": "ym2612"
    },
    {
      "channel": 1,
      "note": 82,
      "start": 45.6527,
      "duration": 0.4044,
      "velocity": 95,
      "chip": "ym2612"
    },
    {
      "channel": 3,
      "note": 55,
      "start": 45.6529,
      "duration": 0.1261,
      "velocity": 88,
      "chip": "ym2612"
    },
    {
      "channel": 5,
      "note": 85,
      "start": 45.6531,
      "duration": 0.1262,
      "velocity": 105,
      "chip": "ym2612"
    },
    {
      "channel": 3,
      "note": 56,
      "start": 45.8044,
      "duration": 0.1263,
      "velocity": 88,
      "chip": "ym2612"
    },
    {
      "channel": 4,
      "note": 68,
      "start": 45.806,
      "duration": 0.2766,
      "velocity": 127,
      "chip": "ym2612"
    },
    {
      "channel": 5,
      "note": 92,
      "start": 45.8062,
      "duration": 0.1247,
      "velocity": 105,
      "chip": "ym2612"
    },
    {
      "channel": 3,
      "note": 59,
      "start": 45.9561,
      "duration": 0.1265,
      "velocity": 88,
      "chip": "ym2612"
    },
    {
      "channel": 5,
      "note": 85,
      "start": 45.9563,
      "duration": 0.1265,
      "velocity": 105,
      "chip": "ym2612"
    },
    {
      "channel": 2,
      "note": 76,
      "start": 46.1078,
      "duration": 0.733,
      "velocity": 117,
      "chip": "ym2612"
    },
    {
      "channel": 3,
      "note": 49,
      "start": 46.108,
      "duration": 0.1261,
      "velocity": 88,
      "chip": "ym2612"
    },
    {
      "channel": 4,
      "note": 45,
      "start": 46.1096,
      "duration": 0.2763,
      "velocity": 101,
      "chip": "ym2612"
    },
    {
      "channel": 5,
      "note": 97,
      "start": 46.1098,
      "duration": 0.1245,
      "velocity": 105,
      "chip": "ym2612"
    },
    {
      "channel": 3,
      "note": 61,
      "start": 46.2594,
      "duration": 0.1263,
      "velocity": 88,
      "chip": "ym2612"
    },
    {
      "channel": 5,
      "note": 85,
      "start": 46.2596,
      "duration": 0.1264,
      "velocity": 105,
      "chip": "ym2612"
    },
    {
      "channel": 3,
      "note": 49,
      "start": 46.4111,
      "duration": 0.1264,
      "velocity": 88,
      "chip": "ym2612"
    },
    {
      "channel": 4,
      "note": 68,
      "start": 46.4127,
      "duration": 0.2765,
      "velocity": 127,
      "chip": "ym2612"
    },
    {
      "channel": 5,
      "note": 92,
      "start": 46.4129,
      "duration": 0.1247,
      "velocity": 105,
      "chip": "ym2612"
    },
    {
      "channel": 3,
      "note": 59,
      "start": 46.5627,
      "duration": 0.1264,
      "velocity": 88,
      "chip": "ym2612"
    },
    {
      "channel": 5,
      "note": 85,
      "start": 46.563,
      "duration": 0.1264,
      "velocity": 105,
      "chip": "ym2612"
    },
    {
      "channel": 3,
      "note": 49,
      "start": 46.7145,
      "duration": 0.1265,
      "velocity": 88,
      "chip": "ym2612"
    },
    {
      "channel": 4,
      "note": 45,
      "start": 46.7161,
      "duration": 0.2765,
      "velocity": 101,
      "chip": "ym2612"
    },
    {
      "channel": 5,
      "note": 97,
      "start": 46.7163,
      "duration": 0.1247,
      "velocity": 105,
      "chip": "ym2612"
    },
    {
      "channel": 2,
      "note": 76,
      "start": 46.8661,
      "duration": 0.2781,
      "velocity": 117,
      "chip": "ym2612"
    },
    {
      "channel": 3,
      "note": 56,
      "start": 46.8662,
      "duration": 0.1263,
      "velocity": 88,
      "chip": "ym2612"
    },
    {
      "channel": 5,
      "note": 85,
      "start": 46.8664,
      "duration": 0.1263,
      "velocity": 105,
      "chip": "ym2612"
    },
    {
      "channel": 3,
      "note": 49,
      "start": 47.0179,
      "duration": 0.1264,
      "velocity": 88,
      "chip": "ym2612"
    },
    {
      "channel": 4,
      "note": 68,
      "start": 47.0195,
      "duration": 0.2765,
      "velocity": 127,
      "chip": "ym2612"
    },
    {
      "channel": 5,
      "note": 92,
      "start": 47.0197,
      "duration": 0.1247,
      "velocity": 105,
      "chip": "ym2612"
    },
    {
      "channel": 2,
      "note": 73,
      "start": 47.1695,
      "duration": 1.3399,
      "velocity": 117,
      "chip": "ym2612"
    },
    {
      "channel": 3,
      "note": 55,
      "start": 47.1697,
      "duration": 0.1262,
      "velocity": 88,
      "chip": "ym2612"
    },
    {
      "channel": 5,
      "note": 85,
      "start": 47.1703,
      "duration": 0.1258,
      "velocity": 105,
      "chip": "ym2612"
    },
    {
      "channel": 3,
      "note": 49,
      "start": 47.3212,
      "duration": 0.1263,
      "velocity": 88,
      "chip": "ym2612"
    },
    {
      "channel": 4,
      "note": 45,
      "start": 47.3228,
      "duration": 0.2765,
      "velocity": 101,
      "chip": "ym2612"
    },
    {
      "channel": 5,
      "note": 97,
      "start": 47.323,
      "duration": 0.1247,
      "velocity": 105,
      "chip": "ym2612"
    },
    {
      "channel": 3,
      "note": 52,
      "start": 47.4729,
      "duration": 0.1263,
      "velocity": 88,
      "chip": "ym2612"
    },
    {
      "channel": 5,
      "note": 85,
      "start": 47.4731,
      "duration": 0.1264,
      "velocity": 105,
      "chip": "ym2612"
    },
    {
      "channel": 3,
      "note": 49,
      "start": 47.6246,
      "duration": 0.1263,
      "velocity": 88,
      "chip": "ym2612"
    },
    {
      "channel": 4,
      "note": 68,
      "start": 47.6262,
      "duration": 0.2766,
      "velocity": 127,
      "chip": "ym2612"
    },
    {
      "channel": 5,
      "note": 92,
      "start": 47.6263,
      "duration": 0.1247,
      "velocity": 105,
      "chip": "ym2612"
    },
    {
      "channel": 1,
      "note": 76,
      "start": 47.7762,
      "duration": 0.1263,
      "velocity": 95,
      "chip": "ym2612"
    },
    {
      "channel": 3,
      "note": 52,
      "start": 47.7764,
      "duration": 0.1263,
      "velocity": 88,
      "chip": "ym2612"
    },
    {
      "channel": 5,
      "note": 85,
      "start": 47.7766,
      "duration": 0.1263,
      "velocity": 105,
      "chip": "ym2612"
    },
    {
      "channel": 1,
      "note": 76,
      "start": 47.9278,
      "duration": 0.1265,
      "velocity": 95,
      "chip": "ym2612"
    },
    {
      "channel": 3,
      "note": 54,
      "start": 47.928,
      "duration": 0.1264,
      "velocity": 88,
      "chip": "ym2612"
    },
    {
      "channel": 4,
      "note": 45,
      "start": 47.9297,
      "duration": 0.2765,
      "velocity": 101,
      "chip": "ym2612"
    },
    {
      "channel": 5,
      "note": 97,
      "start": 47.9299,
      "duration": 0.1247,
      "velocity": 105,
      "chip": "ym2612"
    },
    {
      "channel": 1,
      "note": 78,
      "start": 48.0796,
      "duration": 0.1263,
      "velocity": 95,
      "chip": "ym2612"
    },
    {
      "channel": 3,
      "note": 52,
      "start": 48.0798,
      "duration": 0.1263,
      "velocity": 88,
      "chip": "ym2612"
    },
    {
      "channel": 5,
      "note": 85,
      "start": 48.08,
      "duration": 0.1263,
      "velocity": 105,
      "chip": "ym2612"
    },
    {
      "channel": 1,
      "note": 82,
      "start": 48.2313,
      "duration": 0.1263,
      "velocity": 95,
      "chip": "ym2612"
    },
    {
      "channel": 3,
      "note": 47,
      "start": 48.2315,
      "duration": 0.1262,
      "velocity": 88,
      "chip": "ym2612"
    },
    {
      "channel": 4,
      "note": 68,
      "start": 48.2332,
      "duration": 0.2765,
      "velocity": 127,
      "chip": "ym2612"
    },
    {
      "channel": 5,
      "note": 92,
      "start": 48.2333,
      "duration": 0.1246,
      "velocity": 105,
      "chip": "ym2612"
    },
    {
      "channel": 1,
      "note": 85,
      "start": 48.3829,
      "duration": 0.1263,
      "velocity": 95,
      "chip": "ym2612"
    },
    {
      "channel": 3,
      "note": 48,
      "start": 48.3831,
      "duration": 0.1264,
      "velocity": 88,
      "chip": "ym2612"
    },
    {
      "channel": 5,
      "note": 85,
      "start": 48.3833,
      "duration": 0.1265,
      "velocity": 105,
      "chip": "ym2612"
    },
    {
      "channel": 2,
      "note": 76,
      "start": 48.5346,
      "duration": 0.5308,
      "velocity": 117,
      "chip": "ym2612"
    },
    {
      "channel": 3,
      "note": 49,
      "start": 48.5348,
      "duration": 0.1262,
      "velocity": 88,
      "chip": "ym2612"
    },
    {
      "channel": 4,
      "note": 45,
      "start": 48.5365,
      "duration": 0.2763,
      "velocity": 101,
      "chip": "ym2612"
    },
    {
      "channel": 5,
      "note": 97,
      "start": 48.5371,
      "duration": 0.124,
      "velocity": 105,
      "chip": "ym2612"
    },
    {
      "channel": 3,
      "note": 61,
      "start": 48.6863,
      "duration": 0.1264,
      "velocity": 88,
      "chip": "ym2612"
    },
    {
      "channel": 5,
      "note": 85,
      "start": 48.6869,
      "duration": 0.126,
      "velocity": 105,
      "chip": "ym2612"
    },
    {
      "channel": 3,
      "note": 49,
      "start": 48.8381,
      "duration": 0.1263,
      "velocity": 88,
      "chip": "ym2612"
    },
    {
      "channel": 4,
      "note": 68,
      "start": 48.8397,
      "duration": 0.2764,
      "velocity": 127,
      "chip": "ym2612"
    },
    {
      "channel": 5,
      "note": 92,
      "start": 48.8398,
      "duration": 0.1246,
      "velocity": 105,
      "chip": "ym2612"
    },
    {
      "channel": 3,
      "note": 59,
      "start": 48.9897,
      "duration": 0.1263,
      "velocity": 88,
      "chip": "ym2612"
    },
    {
      "channel": 5,
      "note": 85,
      "start": 48.9899,
      "duration": 0.1263,
      "velocity": 105,
      "chip": "ym2612"
    },
    {
      "channel": 2,
      "note": 76,
      "start": 49.1413,
      "duration": 0.1264,
      "velocity": 117,
      "chip": "ym2612"
    },
    {
      "channel": 3,
      "note": 49,
      "start": 49.1415,
      "duration": 0.1263,
      "velocity": 88,
      "chip": "ym2612"
    },
    {
      "channel": 4,
      "note": 45,
      "start": 49.1431,
      "duration": 0.2764,
      "velocity": 101,
      "chip": "ym2612"
    },
    {
      "channel": 5,
      "note": 97,
      "start": 49.1433,
      "duration": 0.1247,
      "velocity": 105,
      "chip": "ym2612"
    },
    {
      "channel": 2,
      "note": 76,
      "start": 49.293,
      "duration": 0.278,
      "velocity": 117,
      "chip": "ym2612"
    },
    {
      "channel": 3,
      "note": 56,
      "start": 49.2932,
      "duration": 0.1262,
      "velocity": 88,
      "chip": "ym2612"
    },
    {
      "channel": 5,
      "note": 85,
      "start": 49.2933,
      "duration": 0.1263,
      "velocity": 105,
      "chip": "ym2612"
    },
    {
      "channel": 3,
      "note": 49,
      "start": 49.4447,
      "duration": 0.1264,
      "velocity": 88,
      "chip": "ym2612"
    },
    {
      "channel": 4,
      "note": 68,
      "start": 49.4464,
      "duration": 0.2765,
      "velocity": 127,
      "chip": "ym2612"
    },
    {
      "channel": 5,
      "note": 92,
      "start": 49.4465,
      "duration": 0.1247,
      "velocity": 105,
      "chip": "ym2612"
    },
    {
      "channel": 2,
      "note": 73,
      "start": 49.5964,
      "duration": 1.3398,
      "velocity": 117,
      "chip": "ym2612"
    },
    {
      "channel": 3,
      "note": 55,
      "start": 49.5966,
      "duration": 0.1262,
      "velocity": 88,
      "chip": "ym2612"
    },
    {
      "channel": 5,
      "note": 85,
      "start": 49.5968,
      "duration": 0.1263,
      "velocity": 105,
      "chip": "ym2612"
    },
    {
      "channel": 3,
      "note": 49,
      "start": 49.748,
      "duration": 0.1263,
      "velocity": 88,
      "chip": "ym2612"
    },
    {
      "channel": 4,
      "note": 45,
      "start": 49.7497,
      "duration": 0.2765,
      "velocity": 101,
      "chip": "ym2612"
    },
    {
      "channel": 5,
      "note": 97,
      "start": 49.7499,
      "duration": 0.1246,
      "velocity": 105,
      "chip": "ym2612"
    },
    {
      "channel": 3,
      "note": 52,
      "start": 49.8998,
      "duration": 0.1263,
      "velocity": 88,
      "chip": "ym2612"
    },
    {
      "channel": 5,
      "note": 85,
      "start": 49.9,
      "duration": 0.1264,
      "velocity": 105,
      "chip": "ym2612"
    },
    {
      "channel": 3,
      "note": 49,
      "start": 50.0514,
      "duration": 0.1264,
      "velocity": 88,
      "chip": "ym2612"
    },
    {
      "channel": 4,
      "note": 68,
      "start": 50.0531,
      "duration": 0.2765,
      "velocity": 127,
      "chip": "ym2612"
    },
    {
      "channel": 5,
      "note": 92,
      "start": 50.0537,
      "duration": 0.1242,
      "velocity": 105,
      "chip": "ym2612"
    },
    {
      "channel": 1,
      "note": 83,
      "start": 50.2032,
      "duration": 0.278,
      "velocity": 95,
      "chip": "ym2612"
    },
    {
      "channel": 3,
      "note": 52,
      "start": 50.2038,
      "duration": 0.1257,
      "velocity": 88,
      "chip": "ym2612"
    },
    {
      "channel": 5,
      "note": 85,
      "start": 50.204,
      "duration": 0.1258,
      "velocity": 105,
      "chip": "ym2612"
    },
    {
      "channel": 3,
      "note": 54,
      "start": 50.3549,
      "duration": 0.1265,
      "velocity": 88,
      "chip": "ym2612"
    },
    {
      "channel": 4,
      "note": 45,
      "start": 50.3565,
      "duration": 0.2765,
      "velocity": 101,
      "chip": "ym2612"
    },
    {
      "channel": 5,
      "note": 97,
      "start": 50.3567,
      "duration": 0.1247,
      "velocity": 105,
      "chip": "ym2612"
    },
    {
      "channel": 1,
      "note": 82,
      "start": 50.5065,
      "duration": 0.4044,
      "velocity": 95,
      "chip": "ym2612"
    },
    {
      "channel": 3,
      "note": 55,
      "start": 50.5067,
      "duration": 0.1261,
      "velocity": 88,
      "chip": "ym2612"
    },
    {
      "channel": 5,
      "note": 85,
      "start": 50.5069,
      "duration": 0.1262,
      "velocity": 105,
      "chip": "ym2612"
    },
    {
      "channel": 3,
      "note": 56,
      "start": 50.6582,
      "duration": 0.1263,
      "velocity": 88,
      "chip": "ym2612"
    },
    {
      "channel": 4,
      "note": 68,
      "start": 50.6598,
      "duration": 0.2766,
      "velocity": 127,
      "chip": "ym2612"
    },
    {
      "channel": 5,
      "note": 92,
      "start": 50.66,
      "duration": 0.1247,
      "velocity": 105,
      "chip": "ym2612"
    },
    {
      "channel": 3,
      "note": 59,
      "start": 50.8099,
      "duration": 0.1264,
      "velocity": 88,
      "chip": "ym2612"
    },
    {
      "channel": 5,
      "note": 85,
      "start": 50.8101,
      "duration": 0.1269,
      "velocity": 105,
      "chip": "ym2612"
    },
    {
      "channel": 2,
      "note": 76,
      "start": 50.9615,
      "duration": 0.7331,
      "velocity": 117,
      "chip": "ym2612"
    },
    {
      "channel": 3,
      "note": 49,
      "start": 50.9617,
      "duration": 0.1262,
      "velocity": 88,
      "chip": "ym2612"
    },
    {
      "channel": 4,
      "note": 45,
      "start": 50.9634,
      "duration": 0.2763,
      "velocity": 101,
      "chip": "ym2612"
    },
    {
      "channel": 5,
      "note": 97,
      "start": 50.9636,
      "duration": 0.1245,
      "velocity": 105,
      "chip": "ym2612"
    },
    {
      "channel": 3,
      "note": 61,
      "start": 51.1133,
      "duration": 0.1263,
      "velocity": 88,
      "chip": "ym2612"
    },
    {
      "channel": 5,
      "note": 85,
      "start": 51.1135,
      "duration": 0.1263,
      "velocity": 105,
      "chip": "ym2612"
    },
    {
      "channel": 3,
      "note": 49,
      "start": 51.2649,
      "duration": 0.1263,
      "velocity": 88,
      "chip": "ym2612"
    },
    {
      "channel": 4,
      "note": 68,
      "start": 51.2666,
      "duration": 0.2765,
      "velocity": 127,
      "chip": "ym2612"
    },
    {
      "channel": 5,
      "note": 92,
      "start": 51.2668,
      "duration": 0.1246,
      "velocity": 105,
      "chip": "ym2612"
    },
    {
      "channel": 3,
      "note": 59,
      "start": 51.4166,
      "duration": 0.1264,
      "velocity": 88,
      "chip": "ym2612"
    },
    {
      "channel": 5,
      "note": 85,
      "start": 51.4168,
      "duration": 0.1264,
      "velocity": 105,
      "chip": "ym2612"
    },
    {
      "channel": 3,
      "note": 49,
      "start": 51.5683,
      "duration": 0.1265,
      "velocity": 88,
      "chip": "ym2612"
    },
    {
      "channel": 4,
      "note": 45,
      "start": 51.5704,
      "duration": 0.2761,
      "velocity": 101,
      "chip": "ym2612"
    },
    {
      "channel": 5,
      "note": 97,
      "start": 51.5706,
      "duration": 0.1243,
      "velocity": 105,
      "chip": "ym2612"
    },
    {
      "channel": 2,
      "note": 76,
      "start": 51.7203,
      "duration": 0.2776,
      "velocity": 117,
      "chip": "ym2612"
    },
    {
      "channel": 3,
      "note": 56,
      "start": 51.7205,
      "duration": 0.1258,
      "velocity": 88,
      "chip": "ym2612"
    },
    {
      "channel": 5,
      "note": 85,
      "start": 51.7207,
      "duration": 0.1259,
      "velocity": 105,
      "chip": "ym2612"
    },
    {
      "channel": 3,
      "note": 49,
      "start": 51.8717,
      "duration": 0.1264,
      "velocity": 88,
      "chip": "ym2612"
    },
    {
      "channel": 4,
      "note": 68,
      "start": 51.8733,
      "duration": 0.2765,
      "velocity": 127,
      "chip": "ym2612"
    },
    {
      "channel": 5,
      "note": 92,
      "start": 51.8735,
      "duration": 0.1247,
      "velocity": 105,
      "chip": "ym2612"
    },
    {
      "channel": 2,
      "note": 73,
      "start": 52.0233,
      "duration": 1.3399,
      "velocity": 117,
      "chip": "ym2612"
    },
    {
      "channel": 3,
      "note": 55,
      "start": 52.0235,
      "duration": 0.1261,
      "velocity": 88,
      "chip": "ym2612"
    },
    {
      "channel": 5,
      "note": 85,
      "start": 52.0237,
      "duration": 0.1262,
      "velocity": 105,
      "chip": "ym2612"
    },
    {
      "channel": 3,
      "note": 49,
      "start": 52.175,
      "duration": 0.1263,
      "velocity": 88,
      "chip": "ym2612"
    },
    {
      "channel": 4,
      "note": 45,
      "start": 52.1766,
      "duration": 0.277,
      "velocity": 101,
      "chip": "ym2612"
    },
    {
      "channel": 5,
      "note": 97,
      "start": 52.1768,
      "duration": 0.1247,
      "velocity": 105,
      "chip": "ym2612"
    },
    {
      "channel": 3,
      "note": 52,
      "start": 52.3267,
      "duration": 0.1263,
      "velocity": 88,
      "chip": "ym2612"
    },
    {
      "channel": 5,
      "note": 85,
      "start": 52.3269,
      "duration": 0.1268,
      "velocity": 105,
      "chip": "ym2612"
    },
    {
      "channel": 3,
      "note": 49,
      "start": 52.4784,
      "duration": 0.1263,
      "velocity": 88,
      "chip": "ym2612"
    },
    {
      "channel": 4,
      "note": 68,
      "start": 52.48,
      "duration": 0.2767,
      "velocity": 127,
      "chip": "ym2612"
    },
    {
      "channel": 5,
      "note": 92,
      "start": 52.4802,
      "duration": 0.1247,
      "velocity": 105,
      "chip": "ym2612"
    },
    {
      "channel": 1,
      "note": 76,
      "start": 52.63,
      "duration": 0.1263,
      "velocity": 95,
      "chip": "ym2612"
    },
    {
      "channel": 3,
      "note": 52,
      "start": 52.6302,
      "duration": 0.1263,
      "velocity": 88,
      "chip": "ym2612"
    },
    {
      "channel": 5,
      "note": 85,
      "start": 52.6304,
      "duration": 0.1263,
      "velocity": 105,
      "chip": "ym2612"
    },
    {
      "channel": 1,
      "note": 76,
      "start": 52.7816,
      "duration": 0.1264,
      "velocity": 95,
      "chip": "ym2612"
    },
    {
      "channel": 3,
      "note": 54,
      "start": 52.7818,
      "duration": 0.1263,
      "velocity": 88,
      "chip": "ym2612"
    },
    {
      "channel": 4,
      "note": 45,
      "start": 52.7835,
      "duration": 0.2765,
      "velocity": 101,
      "chip": "ym2612"
    },
    {
      "channel": 5,
      "note": 97,
      "start": 52.7836,
      "duration": 0.1247,
      "velocity": 105,
      "chip": "ym2612"
    },
    {
      "channel": 1,
      "note": 78,
      "start": 52.9334,
      "duration": 0.1264,
      "velocity": 95,
      "chip": "ym2612"
    },
    {
      "channel": 3,
      "note": 55,
      "start": 52.9335,
      "duration": 0.1263,
      "velocity": 88,
      "chip": "ym2612"
    },
    {
      "channel": 5,
      "note": 85,
      "start": 52.9338,
      "duration": 0.1263,
      "velocity": 105,
      "chip": "ym2612"
    },
    {
      "channel": 1,
      "note": 82,
      "start": 53.085,
      "duration": 0.1264,
      "velocity": 95,
      "chip": "ym2612"
    },
    {
      "channel": 3,
      "note": 56,
      "start": 53.0853,
      "duration": 0.1263,
      "velocity": 88,
      "chip": "ym2612"
    },
    {
      "channel": 4,
      "note": 68,
      "start": 53.0873,
      "duration": 0.2761,
      "velocity": 127,
      "chip": "ym2612"
    },
    {
      "channel": 5,
      "note": 92,
      "start": 53.0875,
      "duration": 0.1242,
      "velocity": 105,
      "chip": "ym2612"
    },
    {
      "channel": 1,
      "note": 85,
      "start": 53.2373,
      "duration": 0.1258,
      "velocity": 95,
      "chip": "ym2612"
    },
    {
      "channel": 3,
      "note": 59,
      "start": 53.2375,
      "duration": 0.1258,
      "velocity": 88,
      "chip": "ym2612"
    },
    {
      "channel": 5,
      "note": 85,
      "start": 53.2377,
      "duration": 0.1259,
      "velocity": 105,
      "chip": "ym2612"
    },
    {
      "channel": 2,
      "note": 76,
      "start": 53.3884,
      "duration": 0.5308,
      "velocity": 117,
      "chip": "ym2612"
    },
    {
      "channel": 3,
      "note": 49,
      "start": 53.3886,
      "duration": 0.1262,
      "velocity": 88,
      "chip": "ym2612"
    },
    {
      "channel": 4,
      "note": 45,
      "start": 53.3903,
      "duration": 0.2763,
      "velocity": 101,
      "chip": "ym2612"
    },
    {
      "channel": 5,
      "note": 97,
      "start": 53.3904,
      "duration": 0.1246,
      "velocity": 105,
      "chip": "ym2612"
    },
    {
      "channel": 3,
      "note": 61,
      "start": 53.5402,
      "duration": 0.1263,
      "velocity": 88,
      "chip": "ym2612"
    },
    {
      "channel": 5,
      "note": 85,
      "start": 53.5404,
      "duration": 0.1263,
      "velocity": 105,
      "chip": "ym2612"
    },
    {
      "channel": 3,
      "note": 49,
      "start": 53.6918,
      "duration": 0.1263,
      "velocity": 88,
      "chip": "ym2612"
    },
    {
      "channel": 4,
      "note": 68,
      "start": 53.6935,
      "duration": 0.2769,
      "velocity": 127,
      "chip": "ym2612"
    },
    {
      "channel": 5,
      "note": 92,
      "start": 53.6936,
      "duration": 0.1247,
      "velocity": 105,
      "chip": "ym2612"
    },
    {
      "channel": 3,
      "note": 59,
      "start": 53.8435,
      "duration": 0.1264,
      "velocity": 88,
      "chip": "ym2612"
    },
    {
      "channel": 5,
      "note": 85,
      "start": 53.8437,
      "duration": 0.1268,
      "velocity": 105,
      "chip": "ym2612"
    },
    {
      "channel": 2,
      "note": 76,
      "start": 53.9951,
      "duration": 0.1264,
      "velocity": 117,
      "chip": "ym2612"
    },
    {
      "channel": 3,
      "note": 49,
      "start": 53.9953,
      "duration": 0.1263,
      "velocity": 88,
      "chip": "ym2612"
    },
    {
      "channel": 4,
      "note": 45,
      "start": 53.9969,
      "duration": 0.2764,
      "velocity": 101,
      "chip": "ym2612"
    },
    {
      "channel": 5,
      "note": 97,
      "start": 53.9971,
      "duration": 0.1246,
      "velocity": 105,
      "chip": "ym2612"
    },
    {
      "channel": 2,
      "note": 76,
      "start": 54.1468,
      "duration": 0.278,
      "velocity": 117,
      "chip": "ym2612"
    },
    {
      "channel": 3,
      "note": 56,
      "start": 54.147,
      "duration": 0.1261,
      "velocity": 88,
      "chip": "ym2612"
    },
    {
      "channel": 5,
      "note": 85,
      "start": 54.1472,
      "duration": 0.1262,
      "velocity": 105,
      "chip": "ym2612"
    },
    {
      "channel": 3,
      "note": 49,
      "start": 54.2986,
      "duration": 0.1265,
      "velocity": 88,
      "chip": "ym2612"
    },
    {
      "channel": 4,
      "note": 68,
      "start": 54.3002,
      "duration": 0.2765,
      "velocity": 127,
      "chip": "ym2612"
    },
    {
      "channel": 5,
      "note": 92,
      "start": 54.3004,
      "duration": 0.1247,
      "velocity": 105,
      "chip": "ym2612"
    },
    {
      "channel": 2,
      "note": 73,
      "start": 54.4502,
      "duration": 1.3398,
      "velocity": 117,
      "chip": "ym2612"
    },
    {
      "channel": 3,
      "note": 55,
      "start": 54.4504,
      "duration": 0.1262,
      "velocity": 88,
      "chip": "ym2612"
    },
    {
      "channel": 5,
      "note": 85,
      "start": 54.4506,
      "duration": 0.1263,
      "velocity": 105,
      "chip": "ym2612"
    },
    {
      "channel": 3,
      "note": 49,
      "start": 54.6019,
      "duration": 0.1264,
      "velocity": 88,
      "chip": "ym2612"
    },
    {
      "channel": 4,
      "note": 45,
      "start": 54.604,
      "duration": 0.2761,
      "velocity": 101,
      "chip": "ym2612"
    },
    {
      "channel": 5,
      "note": 97,
      "start": 54.6041,
      "duration": 0.1242,
      "velocity": 105,
      "chip": "ym2612"
    },
    {
      "channel": 3,
      "note": 52,
      "start": 54.754,
      "duration": 0.126,
      "velocity": 88,
      "chip": "ym2612"
    },
    {
      "channel": 5,
      "note": 85,
      "start": 54.7541,
      "duration": 0.126,
      "velocity": 105,
      "chip": "ym2612"
    },
    {
      "channel": 3,
      "note": 49,
      "start": 54.9052,
      "duration": 0.1263,
      "velocity": 88,
      "chip": "ym2612"
    },
    {
      "channel": 4,
      "note": 68,
      "start": 54.9069,
      "duration": 0.2765,
      "velocity": 127,
      "chip": "ym2612"
    },
    {
      "channel": 5,
      "note": 92,
      "start": 54.9071,
      "duration": 0.1246,
      "velocity": 105,
      "chip": "ym2612"
    },
    {
      "channel": 1,
      "note": 83,
      "start": 55.057,
      "duration": 0.278,
      "velocity": 95,
      "chip": "ym2612"
    },
    {
      "channel": 3,
      "note": 52,
      "start": 55.0571,
      "duration": 0.1261,
      "velocity": 88,
      "chip": "ym2612"
    },
    {
      "channel": 5,
      "note": 85,
      "start": 55.0573,
      "duration": 0.1262,
      "velocity": 105,
      "chip": "ym2612"
    },
    {
      "channel": 3,
      "note": 54,
      "start": 55.2087,
      "duration": 0.1264,
      "velocity": 88,
      "chip": "ym2612"
    },
    {
      "channel": 4,
      "note": 45,
      "start": 55.2103,
      "duration": 0.2771,
      "velocity": 101,
      "chip": "ym2612"
    },
    {
      "channel": 5,
      "note": 97,
      "start": 55.2105,
      "duration": 0.1248,
      "velocity": 105,
      "chip": "ym2612"
    },
    {
      "channel": 1,
      "note": 82,
      "start": 55.3603,
      "duration": 0.4044,
      "velocity": 95,
      "chip": "ym2612"
    },
    {
      "channel": 3,
      "note": 55,
      "start": 55.3605,
      "duration": 0.1267,
      "velocity": 88,
      "chip": "ym2612"
    },
    {
      "channel": 5,
      "note": 85,
      "start": 55.3607,
      "duration": 0.1268,
      "velocity": 105,
      "chip": "ym2612"
    },
    {
      "channel": 3,
      "note": 56,
      "start": 55.512,
      "duration": 0.1263,
      "velocity": 88,
      "chip": "ym2612"
    },
    {
      "channel": 4,
      "note": 68,
      "start": 55.5136,
      "duration": 0.2766,
      "velocity": 127,
      "chip": "ym2612"
    },
    {
      "channel": 5,
      "note": 92,
      "start": 55.5138,
      "duration": 0.1246,
      "velocity": 105,
      "chip": "ym2612"
    },
    {
      "channel": 3,
      "note": 59,
      "start": 55.6637,
      "duration": 0.1264,
      "velocity": 88,
      "chip": "ym2612"
    },
    {
      "channel": 5,
      "note": 85,
      "start": 55.6639,
      "duration": 0.1265,
      "velocity": 105,
      "chip": "ym2612"
    },
    {
      "channel": 2,
      "note": 76,
      "start": 55.8153,
      "duration": 0.7332,
      "velocity": 117,
      "chip": "ym2612"
    },
    {
      "channel": 3,
      "note": 49,
      "start": 55.8155,
      "duration": 0.1262,
      "velocity": 88,
      "chip": "ym2612"
    },
    {
      "channel": 4,
      "note": 45,
      "start": 55.8171,
      "duration": 0.2763,
      "velocity": 101,
      "chip": "ym2612"
    },
    {
      "channel": 5,
      "note": 97,
      "start": 55.8173,
      "duration": 0.1245,
      "velocity": 105,
      "chip": "ym2612"
    },
    {
      "channel": 3,
      "note": 61,
      "start": 55.9671,
      "duration": 0.1263,
      "velocity": 88,
      "chip": "ym2612"
    },
    {
      "channel": 5,
      "note": 85,
      "start": 55.9673,
      "duration": 0.1263,
      "velocity": 105,
      "chip": "ym2612"
    },
    {
      "channel": 3,
      "note": 49,
      "start": 56.1187,
      "duration": 0.1263,
      "velocity": 88,
      "chip": "ym2612"
    },
    {
      "channel": 4,
      "note": 68,
      "start": 56.1208,
      "duration": 0.2761,
      "velocity": 127,
      "chip": "ym2612"
    },
    {
      "channel": 5,
      "note": 92,
      "start": 56.121,
      "duration": 0.1242,
      "velocity": 105,
      "chip": "ym2612"
    },
    {
      "channel": 3,
      "note": 59,
      "start": 56.2707,
      "duration": 0.126,
      "velocity": 88,
      "chip": "ym2612"
    },
    {
      "channel": 5,
      "note": 85,
      "start": 56.2709,
      "duration": 0.1261,
      "velocity": 105,
      "chip": "ym2612"
    },
    {
      "channel": 3,
      "note": 49,
      "start": 56.4221,
      "duration": 0.1265,
      "velocity": 88,
      "chip": "ym2612"
    },
    {
      "channel": 4,
      "note": 45,
      "start": 56.4237,
      "duration": 0.2765,
      "velocity": 101,
      "chip": "ym2612"
    },
    {
      "channel": 5,
      "note": 97,
      "start": 56.4239,
      "duration": 0.1247,
      "velocity": 105,
      "chip": "ym2612"
    },
    {
      "channel": 2,
      "note": 76,
      "start": 56.5737,
      "duration": 0.278,
      "velocity": 117,
      "chip": "ym2612"
    },
    {
      "channel": 3,
      "note": 56,
      "start": 56.5739,
      "duration": 0.1262,
      "velocity": 88,
      "chip": "ym2612"
    },
    {
      "channel": 5,
      "note": 85,
      "start": 56.5741,
      "duration": 0.1263,
      "velocity": 105,
      "chip": "ym2612"
    },
    {
      "channel": 3,
      "note": 49,
      "start": 56.7254,
      "duration": 0.1265,
      "velocity": 88,
      "chip": "ym2612"
    },
    {
      "channel": 4,
      "note": 68,
      "start": 56.7271,
      "duration": 0.277,
      "velocity": 127,
      "chip": "ym2612"
    },
    {
      "channel": 5,
      "note": 92,
      "start": 56.7273,
      "duration": 0.1247,
      "velocity": 105,
      "chip": "ym2612"
    },
    {
      "channel": 2,
      "note": 73,
      "start": 56.8771,
      "duration": 1.3399,
      "velocity": 117,
      "chip": "ym2612"
    },
    {
      "channel": 3,
      "note": 55,
      "start": 56.8773,
      "duration": 0.1266,
      "velocity": 88,
      "chip": "ym2612"
    },
    {
      "channel": 5,
      "note": 85,
      "start": 56.8775,
      "duration": 0.1266,
      "velocity": 105,
      "chip": "ym2612"
    },
    {
      "channel": 3,
      "note": 49,
      "start": 57.0288,
      "duration": 0.1264,
      "velocity": 88,
      "chip": "ym2612"
    },
    {
      "channel": 4,
      "note": 45,
      "start": 57.0304,
      "duration": 0.2765,
      "velocity": 101,
      "chip": "ym2612"
    },
    {
      "channel": 5,
      "note": 97,
      "start": 57.0306,
      "duration": 0.1247,
      "velocity": 105,
      "chip": "ym2612"
    },
    {
      "channel": 3,
      "note": 52,
      "start": 57.1804,
      "duration": 0.1264,
      "velocity": 88,
      "chip": "ym2612"
    },
    {
      "channel": 5,
      "note": 85,
      "start": 57.1807,
      "duration": 0.1264,
      "velocity": 105,
      "chip": "ym2612"
    },
    {
      "channel": 3,
      "note": 49,
      "start": 57.3322,
      "duration": 0.1263,
      "velocity": 88,
      "chip": "ym2612"
    },
    {
      "channel": 4,
      "note": 68,
      "start": 57.3338,
      "duration": 0.2766,
      "velocity": 127,
      "chip": "ym2612"
    },
    {
      "channel": 5,
      "note": 92,
      "start": 57.334,
      "duration": 0.1246,
      "velocity": 105,
      "chip": "ym2612"
    },
    {
      "channel": 1,
      "note": 76,
      "start": 57.4838,
      "duration": 0.1263,
      "velocity": 95,
      "chip": "ym2612"
    },
    {
      "channel": 3,
      "note": 52,
      "start": 57.4841,
      "duration": 0.1262,
      "velocity": 88,
      "chip": "ym2612"
    },
    {
      "channel": 5,
      "note": 85,
      "start": 57.4842,
      "duration": 0.1263,
      "velocity": 105,
      "chip": "ym2612"
    },
    {
      "channel": 1,
      "note": 76,
      "start": 57.6354,
      "duration": 0.1265,
      "velocity": 95,
      "chip": "ym2612"
    },
    {
      "channel": 3,
      "note": 54,
      "start": 57.6356,
      "duration": 0.1263,
      "velocity": 88,
      "chip": "ym2612"
    },
    {
      "channel": 4,
      "note": 45,
      "start": 57.6377,
      "duration": 0.2761,
      "velocity": 101,
      "chip": "ym2612"
    },
    {
      "channel": 5,
      "note": 97,
      "start": 57.6379,
      "duration": 0.1242,
      "velocity": 105,
      "chip": "ym2612"
    },
    {
      "channel": 1,
      "note": 78,
      "start": 57.7873,
      "duration": 0.1262,
      "velocity": 95,
      "chip": "ym2612"
    },
    {
      "channel": 3,
      "note": 52,
      "start": 57.7875,
      "duration": 0.1261,
      "velocity": 88,
      "chip": "ym2612"
    },
    {
      "channel": 5,
      "note": 85,
      "start": 57.7877,
      "duration": 0.1262,
      "velocity": 105,
      "chip": "ym2612"
    },
    {
      "channel": 1,
      "note": 82,
      "start": 57.9388,
      "duration": 0.1264,
      "velocity": 95,
      "chip": "ym2612"
    },
    {
      "channel": 3,
      "note": 47,
      "start": 57.939,
      "duration": 0.1263,
      "velocity": 88,
      "chip": "ym2612"
    },
    {
      "channel": 4,
      "note": 68,
      "start": 57.9407,
      "duration": 0.2765,
      "velocity": 127,
      "chip": "ym2612"
    },
    {
      "channel": 5,
      "note": 92,
      "start": 57.9409,
      "duration": 0.1246,
      "velocity": 105,
      "chip": "ym2612"
    },
    {
      "channel": 1,
      "note": 85,
      "start": 58.0905,
      "duration": 0.1263,
      "velocity": 95,
      "chip": "ym2612"
    },
    {
      "channel": 3,
      "note": 48,
      "start": 58.0907,
      "duration": 0.1263,
      "velocity": 88,
      "chip": "ym2612"
    },
    {
      "channel": 5,
      "note": 85,
      "start": 58.0909,
      "duration": 0.1264,
      "velocity": 105,
      "chip": "ym2612"
    },
    {
      "channel": 2,
      "note": 76,
      "start": 58.2423,
      "duration": 0.5308,
      "velocity": 117,
      "chip": "ym2612"
    },
    {
      "channel": 3,
      "note": 49,
      "start": 58.2424,
      "duration": 0.1261,
      "velocity": 88,
      "chip": "ym2612"
    },
    {
      "channel": 4,
      "note": 45,
      "start": 58.2441,
      "duration": 0.2766,
      "velocity": 101,
      "chip": "ym2612"
    },
    {
      "channel": 5,
      "note": 97,
      "start": 58.2443,
      "duration": 0.1244,
      "velocity": 105,
      "chip": "ym2612"
    },
    {
      "channel": 3,
      "note": 61,
      "start": 58.3939,
      "duration": 0.1266,
      "velocity": 88,
      "chip": "ym2612"
    },
    {
      "channel": 5,
      "note": 85,
      "start": 58.3941,
      "duration": 0.1267,
      "velocity": 105,
      "chip": "ym2612"
    },
    {
      "channel": 3,
      "note": 49,
      "start": 58.5456,
      "duration": 0.1263,
      "velocity": 88,
      "chip": "ym2612"
    },
    {
      "channel": 4,
      "note": 68,
      "start": 58.5472,
      "duration": 0.2765,
      "velocity": 127,
      "chip": "ym2612"
    },
    {
      "channel": 5,
      "note": 92,
      "start": 58.5474,
      "duration": 0.1247,
      "velocity": 105,
      "chip": "ym2612"
    },
    {
      "channel": 3,
      "note": 59,
      "start": 58.6973,
      "duration": 0.1263,
      "velocity": 88,
      "chip": "ym2612"
    },
    {
      "channel": 5,
      "note": 85,
      "start": 58.6976,
      "duration": 0.1263,
      "velocity": 105,
      "chip": "ym2612"
    },
    {
      "channel": 2,
      "note": 76,
      "start": 58.8489,
      "duration": 0.1263,
      "velocity": 117,
      "chip": "ym2612"
    },
    {
      "channel": 3,
      "note": 49,
      "start": 58.8491,
      "duration": 0.1263,
      "velocity": 88,
      "chip": "ym2612"
    },
    {
      "channel": 4,
      "note": 45,
      "start": 58.8508,
      "duration": 0.2763,
      "velocity": 101,
      "chip": "ym2612"
    },
    {
      "channel": 5,
      "note": 97,
      "start": 58.8509,
      "duration": 0.1246,
      "velocity": 105,
      "chip": "ym2612"
    },
    {
      "channel": 2,
      "note": 76,
      "start": 59.0005,
      "duration": 0.2781,
      "velocity": 117,
      "chip": "ym2612"
    },
    {
      "channel": 3,
      "note": 56,
      "start": 59.0007,
      "duration": 0.1263,
      "velocity": 88,
      "chip": "ym2612"
    },
    {
      "channel": 5,
      "note": 85,
      "start": 59.001,
      "duration": 0.1263,
      "velocity": 105,
      "chip": "ym2612"
    },
    {
      "channel": 3,
      "note": 49,
      "start": 59.1523,
      "duration": 0.1265,
      "velocity": 88,
      "chip": "ym2612"
    },
    {
      "channel": 4,
      "note": 68,
      "start": 59.1544,
      "duration": 0.2761,
      "velocity": 127,
      "chip": "ym2612"
    },
    {
      "channel": 5,
      "note": 92,
      "start": 59.1546,
      "duration": 0.1243,
      "velocity": 105,
      "chip": "ym2612"
    },
    {
      "channel": 2,
      "note": 73,
      "start": 59.304,
      "duration": 1.3398,
      "velocity": 117,
      "chip": "ym2612"
    },
    {
      "channel": 3,
      "note": 55,
      "start": 59.3041,
      "duration": 0.1262,
      "velocity": 88,
      "chip": "ym2612"
    },
    {
      "channel": 5,
      "note": 85,
      "start": 59.3044,
      "duration": 0.1263,
      "velocity": 105,
      "chip": "ym2612"
    },
    {
      "channel": 3,
      "note": 49,
      "start": 59.4557,
      "duration": 0.1263,
      "velocity": 88,
      "chip": "ym2612"
    },
    {
      "channel": 4,
      "note": 45,
      "start": 59.4573,
      "duration": 0.2765,
      "velocity": 101,
      "chip": "ym2612"
    },
    {
      "channel": 5,
      "note": 97,
      "start": 59.4575,
      "duration": 0.1246,
      "velocity": 105,
      "chip": "ym2612"
    },
    {
      "channel": 3,
      "note": 52,
      "start": 59.6074,
      "duration": 0.1263,
      "velocity": 88,
      "chip": "ym2612"
    },
    {
      "channel": 5,
      "note": 85,
      "start": 59.6076,
      "duration": 0.1263,
      "velocity": 105,
      "chip": "ym2612"
    },
    {
      "channel": 3,
      "note": 49,
      "start": 59.7591,
      "duration": 0.1263,
      "velocity": 88,
      "chip": "ym2612"
    },
    {
      "channel": 4,
      "note": 68,
      "start": 59.7607,
      "duration": 0.2767,
      "velocity": 127,
      "chip": "ym2612"
    },
    {
      "channel": 5,
      "note": 92,
      "start": 59.7609,
      "duration": 0.1246,
      "velocity": 105,
      "chip": "ym2612"
    },
    {
      "channel": 1,
      "note": 83,
      "start": 59.9108,
      "duration": 0.2779,
      "velocity": 95,
      "chip": "ym2612"
    },
    {
      "channel": 3,
      "note": 52,
      "start": 59.911,
      "duration": 0.1263,
      "velocity": 88,
      "chip": "ym2612"
    },
    {
      "channel": 5,
      "note": 85,
      "start": 59.9112,
      "duration": 0.1263,
      "velocity": 105,
      "chip": "ym2612"
    },
    {
      "channel": 3,
      "note": 54,
      "start": 60.0624,
      "duration": 0.1265,
      "velocity": 88,
      "chip": "ym2612"
    },
    {
      "channel": 4,
      "note": 45,
      "start": 60.0641,
      "duration": 0.2765,
      "velocity": 101,
      "chip": "ym2612"
    },
    {
      "channel": 5,
      "note": 97,
      "start": 60.0642,
      "duration": 0.1248,
      "velocity": 105,
      "chip": "ym2612"
    },
    {
      "channel": 1,
      "note": 82,
      "start": 60.2141,
      "duration": 0.4044,
      "velocity": 95,
      "chip": "ym2612"
    },
    {
      "channel": 3,
      "note": 55,
      "start": 60.2143,
      "duration": 0.1261,
      "velocity": 88,
      "chip": "ym2612"
    },
    {
      "channel": 5,
      "note": 85,
      "start": 60.2145,
      "duration": 0.1262,
      "velocity": 105,
      "chip": "ym2612"
    },
    {
      "channel": 3,
      "note": 56,
      "start": 60.3658,
      "duration": 0.1263,
      "velocity": 88,
      "chip": "ym2612"
    },
    {
      "channel": 4,
      "note": 68,
      "start": 60.3675,
      "duration": 0.2766,
      "velocity": 127,
      "chip": "ym2612"
    },
    {
      "channel": 5,
      "note": 92,
      "start": 60.3676,
      "duration": 0.1246,
      "velocity": 105,
      "chip": "ym2612"
    },
    {
      "channel": 3,
      "note": 59,
      "start": 60.5175,
      "duration": 0.1264,
      "velocity": 88,
      "chip": "ym2612"
    },
    {
      "channel": 5,
      "note": 85,
      "start": 60.5177,
      "duration": 0.1265,
      "velocity": 105,
      "chip": "ym2612"
    },
    {
      "channel": 2,
      "note": 83,
      "start": 60.6709,
      "duration": 0.1246,
      "velocity": 117,
      "chip": "ym2612"
    },
    {
      "channel": 3,
      "note": 52,
      "start": 60.671,
      "duration": 0.1246,
      "velocity": 88,
      "chip": "ym2612"
    },
    {
      "channel": 4,
      "note": 45,
      "start": 60.6727,
      "duration": 0.1231,
      "velocity": 101,
      "chip": "ym2612"
    },
    {
      "channel": 2,
      "note": 82,
      "start": 60.8208,
      "duration": 0.278,
      "velocity": 117,
      "chip": "ym2612"
    },
    {
      "channel": 3,
      "note": 52,
      "start": 60.8209,
      "duration": 0.1263,
      "velocity": 88,
      "chip": "ym2612"
    },
    {
      "channel": 4,
      "note": 45,
      "start": 60.821,
      "duration": 0.1263,
      "velocity": 101,
      "chip": "ym2612"
    },
    {
      "channel": 3,
      "note": 64,
      "start": 60.9725,
      "duration": 0.1264,
      "velocity": 88,
      "chip": "ym2612"
    },
    {
      "channel": 4,
      "note": 68,
      "start": 60.9741,
      "duration": 0.1249,
      "velocity": 127,
      "chip": "ym2612"
    },
    {
      "channel": 2,
      "note": 80,
      "start": 61.1242,
      "duration": 0.278,
      "velocity": 117,
      "chip": "ym2612"
    },
    {
      "channel": 3,
      "note": 52,
      "start": 61.1244,
      "duration": 0.2779,
      "velocity": 88,
      "chip": "ym2612"
    },
    {
      "channel": 4,
      "note": 45,
      "start": 61.126,
      "duration": 0.2764,
      "velocity": 101,
      "chip": "ym2612"
    },
    {
      "channel": 2,
      "note": 78,
      "start": 61.4275,
      "duration": 0.278,
      "velocity": 117,
      "chip": "ym2612"
    },
    {
      "channel": 3,
      "note": 52,
      "start": 61.4276,
      "duration": 0.1263,
      "velocity": 88,
      "chip": "ym2612"
    },
    {
      "channel": 4,
      "note": 45,
      "start": 61.4278,
      "duration": 0.1263,
      "velocity": 101,
      "chip": "ym2612"
    },
    {
      "channel": 3,
      "note": 64,
      "start": 61.5792,
      "duration": 0.1265,
      "velocity": 88,
      "chip": "ym2612"
    },
    {
      "channel": 4,
      "note": 68,
      "start": 61.5809,
      "duration": 0.1249,
      "velocity": 127,
      "chip": "ym2612"
    },
    {
      "channel": 2,
      "note": 83,
      "start": 61.7309,
      "duration": 0.278,
      "velocity": 117,
      "chip": "ym2612"
    },
    {
      "channel": 3,
      "note": 52,
      "start": 61.7311,
      "duration": 0.2779,
      "velocity": 88,
      "chip": "ym2612"
    },
    {
      "channel": 4,
      "note": 45,
      "start": 61.7327,
      "duration": 0.2765,
      "velocity": 101,
      "chip": "ym2612"
    },
    {
      "channel": 2,
      "note": 82,
      "start": 62.0343,
      "duration": 0.2779,
      "velocity": 117,
      "chip": "ym2612"
    },
    {
      "channel": 3,
      "note": 52,
      "start": 62.0344,
      "duration": 0.1261,
      "velocity": 88,
      "chip": "ym2612"
    },
    {
      "channel": 4,
      "note": 45,
      "start": 62.0346,
      "duration": 0.1261,
      "velocity": 101,
      "chip": "ym2612"
    },
    {
      "channel": 3,
      "note": 64,
      "start": 62.186,
      "duration": 0.1264,
      "velocity": 88,
      "chip": "ym2612"
    },
    {
      "channel": 4,
      "note": 68,
      "start": 62.1881,
      "duration": 0.1244,
      "velocity": 127,
      "chip": "ym2612"
    },
    {
      "channel": 2,
      "note": 78,
      "start": 62.3376,
      "duration": 0.1263,
      "velocity": 117,
      "chip": "ym2612"
    },
    {
      "channel": 3,
      "note": 52,
      "start": 62.3378,
      "duration": 0.1263,
      "velocity": 88,
      "chip": "ym2612"
    },
    {
      "channel": 4,
      "note": 45,
      "start": 62.3394,
      "duration": 0.1248,
      "velocity": 101,
      "chip": "ym2612"
    },
    {
      "channel": 1,
      "note": 68,
      "start": 62.4896,
      "duration": 0.0755,
      "velocity": 94,
      "chip": "ym2612"
    },
    {
      "channel": 2,
      "note": 80,
      "start": 62.4898,
      "duration": 0.2775,
      "velocity": 117,
      "chip": "ym2612"
    },
    {
      "channel": 3,
      "note": 54,
      "start": 62.49,
      "duration": 0.2774,
      "velocity": 88,
      "chip": "ym2612"
    },
    {
      "channel": 4,
      "note": 61,
      "start": 62.4916,
      "duration": 0.124,
      "velocity": 105,
      "chip": "ym2612"
    },
    {
      "channel": 1,
      "note": 68,
      "start": 62.5651,
      "duration": 0.0758,
      "velocity": 94,
      "chip": "ym2612"
    },
    {
      "channel": 1,
      "note": 73,
      "start": 62.641,
      "duration": 0.0757,
      "velocity": 94,
      "chip": "ym2612"
    },
    {
      "channel": 4,
      "note": 45,
      "start": 62.6427,
      "duration": 0.1248,
      "velocity": 101,
      "chip": "ym2612"
    },
    {
      "channel": 1,
      "note": 75,
      "start": 62.7168,
      "duration": 0.0758,
      "velocity": 94,
      "chip": "ym2612"
    },
    {
      "channel": 1,
      "note": 80,
      "start": 62.7927,
      "duration": 0.0757,
      "velocity": 94,
      "chip": "ym2612"
    },
    {
      "channel": 2,
      "note": 80,
      "start": 62.7928,
      "duration": 0.2779,
      "velocity": 117,
      "chip": "ym2612"
    },
    {
      "channel": 3,
      "note": 54,
      "start": 62.793,
      "duration": 0.2778,
      "velocity": 88,
      "chip": "ym2612"
    },
    {
      "channel": 4,
      "note": 57,
      "start": 62.7946,
      "duration": 0.1245,
      "velocity": 105,
      "chip": "ym2612"
    },
    {
      "channel": 1,
      "note": 75,
      "start": 62.8685,
      "duration": 0.0757,
      "velocity": 94,
      "chip": "ym2612"
    },
    {
      "channel": 1,
      "note": 73,
      "start": 62.9444,
      "duration": 0.0762,
      "velocity": 94,
      "chip": "ym2612"
    },
    {
      "channel": 4,
      "note": 45,
      "start": 62.946,
      "duration": 0.1249,
      "velocity": 101,
      "chip": "ym2612"
    },
    {
      "channel": 1,
      "note": 68,
      "start": 63.0206,
      "duration": 1.8955,
      "velocity": 94,
      "chip": "ym2612"
    },
    {
      "channel": 2,
      "note": 83,
      "start": 63.0961,
      "duration": 0.1263,
      "velocity": 117,
      "chip": "ym2612"
    },
    {
      "channel": 3,
      "note": 52,
      "start": 63.0963,
      "duration": 0.1262,
      "velocity": 88,
      "chip": "ym2612"
    },
    {
      "channel": 4,
      "note": 45,
      "start": 63.0964,
      "duration": 0.1262,
      "velocity": 101,
      "chip": "ym2612"
    },
    {
      "channel": 2,
      "note": 82,
      "start": 63.2477,
      "duration": 0.278,
      "velocity": 117,
      "chip": "ym2612"
    },
    {
      "channel": 3,
      "note": 52,
      "start": 63.2479,
      "duration": 0.1262,
      "velocity": 88,
      "chip": "ym2612"
    },
    {
      "channel": 4,
      "note": 45,
      "start": 63.248,
      "duration": 0.1262,
      "velocity": 101,
      "chip": "ym2612"
    },
    {
      "channel": 3,
      "note": 64,
      "start": 63.3995,
      "duration": 0.1264,
      "velocity": 88,
      "chip": "ym2612"
    },
    {
      "channel": 4,
      "note": 68,
      "start": 63.4011,
      "duration": 0.1249,
      "velocity": 127,
      "chip": "ym2612"
    },
    {
      "channel": 2,
      "note": 80,
      "start": 63.5511,
      "duration": 0.278,
      "velocity": 117,
      "chip": "ym2612"
    },
    {
      "channel": 3,
      "note": 52,
      "start": 63.5513,
      "duration": 0.2779,
      "velocity": 88,
      "chip": "ym2612"
    },
    {
      "channel": 4,
      "note": 45,
      "start": 63.5529,
      "duration": 0.2765,
      "velocity": 101,
      "chip": "ym2612"
    },
    {
      "channel": 2,
      "note": 78,
      "start": 63.8544,
      "duration": 0.278,
      "velocity": 117,
      "chip": "ym2612"
    },
    {
      "channel": 3,
      "note": 52,
      "start": 63.8545,
      "duration": 0.1262,
      "velocity": 88,
      "chip": "ym2612"
    },
    {
      "channel": 4,
      "note": 45,
      "start": 63.8547,
      "duration": 0.1262,
      "velocity": 101,
      "chip": "ym2612"
    },
    {
      "channel": 3,
      "note": 64,
      "start": 64.0061,
      "duration": 0.1265,
      "velocity": 88,
      "chip": "ym2612"
    },
    {
      "channel": 4,
      "note": 68,
      "start": 64.0078,
      "duration": 0.1249,
      "velocity": 127,
      "chip": "ym2612"
    },
    {
      "channel": 2,
      "note": 83,
      "start": 64.1578,
      "duration": 0.2779,
      "velocity": 117,
      "chip": "ym2612"
    },
    {
      "channel": 3,
      "note": 52,
      "start": 64.158,
      "duration": 0.2778,
      "velocity": 88,
      "chip": "ym2612"
    },
    {
      "channel": 4,
      "note": 45,
      "start": 64.1596,
      "duration": 0.2764,
      "velocity": 101,
      "chip": "ym2612"
    },
    {
      "channel": 2,
      "note": 82,
      "start": 64.4612,
      "duration": 0.278,
      "velocity": 117,
      "chip": "ym2612"
    },
    {
      "channel": 3,
      "note": 52,
      "start": 64.4613,
      "duration": 0.1263,
      "velocity": 88,
      "chip": "ym2612"
    },
    {
      "channel": 4,
      "note": 45,
      "start": 64.4614,
      "duration": 0.1263,
      "velocity": 101,
      "chip": "ym2612"
    },
    {
      "channel": 3,
      "note": 64,
      "start": 64.6128,
      "duration": 0.1265,
      "velocity": 88,
      "chip": "ym2612"
    },
    {
      "channel": 4,
      "note": 68,
      "start": 64.6145,
      "duration": 0.125,
      "velocity": 127,
      "chip": "ym2612"
    },
    {
      "channel": 2,
      "note": 78,
      "start": 64.7645,
      "duration": 0.1263,
      "velocity": 117,
      "chip": "ym2612"
    },
    {
      "channel": 3,
      "note": 52,
      "start": 64.7647,
      "duration": 0.1263,
      "velocity": 88,
      "chip": "ym2612"
    },
    {
      "channel": 4,
      "note": 45,
      "start": 64.7664,
      "duration": 0.1247,
      "velocity": 101,
      "chip": "ym2612"
    },
    {
      "channel": 1,
      "note": 85,
      "start": 64.9162,
      "duration": 0.0758,
      "velocity": 94,
      "chip": "ym2612"
    },
    {
      "channel": 2,
      "note": 85,
      "start": 64.9164,
      "duration": 0.2777,
      "velocity": 117,
      "chip": "ym2612"
    },
    {
      "channel": 3,
      "note": 54,
      "start": 64.9166,
      "duration": 0.2777,
      "velocity": 88,
      "chip": "ym2612"
    },
    {
      "channel": 4,
      "note": 61,
      "start": 64.9182,
      "duration": 0.1244,
      "velocity": 105,
      "chip": "ym2612"
    },
    {
      "channel": 1,
      "note": 83,
      "start": 64.9921,
      "duration": 0.0757,
      "velocity": 94,
      "chip": "ym2612"
    },
    {
      "channel": 1,
      "note": 82,
      "start": 65.0678,
      "duration": 0.0758,
      "velocity": 94,
      "chip": "ym2612"
    },
    {
      "channel": 4,
      "note": 45,
      "start": 65.0695,
      "duration": 0.1249,
      "velocity": 101,
      "chip": "ym2612"
    },
    {
      "channel": 1,
      "note": 83,
      "start": 65.1437,
      "duration": 0.0758,
      "velocity": 94,
      "chip": "ym2612"
    },
    {
      "channel": 1,
      "note": 82,
      "start": 65.2196,
      "duration": 0.0757,
      "velocity": 94,
      "chip": "ym2612"
    },
    {
      "channel": 2,
      "note": 85,
      "start": 65.2198,
      "duration": 0.2778,
      "velocity": 117,
      "chip": "ym2612"
    },
    {
      "channel": 3,
      "note": 54,
      "start": 65.2203,
      "duration": 0.2774,
      "velocity": 88,
      "chip": "ym2612"
    },
    {
      "channel": 4,
      "note": 57,
      "start": 65.2219,
      "duration": 0.124,
      "velocity": 105,
      "chip": "ym2612"
    },
    {
      "channel": 1,
      "note": 78,
      "start": 65.2954,
      "duration": 0.0758,
      "velocity": 94,
      "chip": "ym2612"
    },
    {
      "channel": 1,
      "note": 73,
      "start": 65.3712,
      "duration": 0.0758,
      "velocity": 94,
      "chip": "ym2612"
    },
    {
      "channel": 4,
      "note": 45,
      "start": 65.3729,
      "duration": 0.1249,
      "velocity": 101,
      "chip": "ym2612"
    },
    {
      "channel": 1,
      "note": 70,
      "start": 65.4472,
      "duration": 1.8959,
      "velocity": 94,
      "chip": "ym2612"
    },
    {
      "channel": 2,
      "note": 83,
      "start": 65.5229,
      "duration": 0.1263,
      "velocity": 117,
      "chip": "ym2612"
    },
    {
      "channel": 3,
      "note": 52,
      "start": 65.5231,
      "duration": 0.1263,
      "velocity": 88,
      "chip": "ym2612"
    },
    {
      "channel": 4,
      "note": 45,
      "start": 65.5232,
      "duration": 0.1263,
      "velocity": 101,
      "chip": "ym2612"
    },
    {
      "channel": 2,
      "note": 82,
      "start": 65.6746,
      "duration": 0.278,
      "velocity": 117,
      "chip": "ym2612"
    },
    {
      "channel": 3,
      "note": 52,
      "start": 65.6748,
      "duration": 0.1262,
      "velocity": 88,
      "chip": "ym2612"
    },
    {
      "channel": 4,
      "note": 45,
      "start": 65.6749,
      "duration": 0.1262,
      "velocity": 101,
      "chip": "ym2612"
    },
    {
      "channel": 3,
      "note": 64,
      "start": 65.8263,
      "duration": 0.1265,
      "velocity": 88,
      "chip": "ym2612"
    },
    {
      "channel": 4,
      "note": 68,
      "start": 65.828,
      "duration": 0.1249,
      "velocity": 127,
      "chip": "ym2612"
    },
    {
      "channel": 2,
      "note": 80,
      "start": 65.978,
      "duration": 0.278,
      "velocity": 117,
      "chip": "ym2612"
    },
    {
      "channel": 3,
      "note": 52,
      "start": 65.9781,
      "duration": 0.278,
      "velocity": 88,
      "chip": "ym2612"
    },
    {
      "channel": 4,
      "note": 45,
      "start": 65.9798,
      "duration": 0.2765,
      "velocity": 101,
      "chip": "ym2612"
    },
    {
      "channel": 2,
      "note": 78,
      "start": 66.2813,
      "duration": 0.278,
      "velocity": 117,
      "chip": "ym2612"
    },
    {
      "channel": 3,
      "note": 52,
      "start": 66.2815,
      "duration": 0.1262,
      "velocity": 88,
      "chip": "ym2612"
    },
    {
      "channel": 4,
      "note": 45,
      "start": 66.2816,
      "duration": 0.1262,
      "velocity": 101,
      "chip": "ym2612"
    },
    {
      "channel": 3,
      "note": 64,
      "start": 66.433,
      "duration": 0.1265,
      "velocity": 88,
      "chip": "ym2612"
    },
    {
      "channel": 4,
      "note": 68,
      "start": 66.4347,
      "duration": 0.1249,
      "velocity": 127,
      "chip": "ym2612"
    },
    {
      "channel": 2,
      "note": 83,
      "start": 66.5848,
      "duration": 0.2779,
      "velocity": 117,
      "chip": "ym2612"
    },
    {
      "channel": 3,
      "note": 52,
      "start": 66.5849,
      "duration": 0.2779,
      "velocity": 88,
      "chip": "ym2612"
    },
    {
      "channel": 4,
      "note": 45,
      "start": 66.587,
      "duration": 0.276,
      "velocity": 101,
      "chip": "ym2612"
    },
    {
      "channel": 2,
      "note": 82,
      "start": 66.8881,
      "duration": 0.278,
      "velocity": 117,
      "chip": "ym2612"
    },
    {
      "channel": 3,
      "note": 52,
      "start": 66.8882,
      "duration": 0.1262,
      "velocity": 88,
      "chip": "ym2612"
    },
    {
      "channel": 4,
      "note": 45,
      "start": 66.8883,
      "duration": 0.1262,
      "velocity": 101,
      "chip": "ym2612"
    },
    {
      "channel": 3,
      "note": 64,
      "start": 67.0398,
      "duration": 0.1264,
      "velocity": 88,
      "chip": "ym2612"
    },
    {
      "channel": 4,
      "note": 68,
      "start": 67.0414,
      "duration": 0.1249,
      "velocity": 127,
      "chip": "ym2612"
    },
    {
      "channel": 2,
      "note": 78,
      "start": 67.1914,
      "duration": 0.1264,
      "velocity": 117,
      "chip": "ym2612"
    },
    {
      "channel": 3,
      "note": 52,
      "start": 67.1916,
      "duration": 0.1263,
      "velocity": 88,
      "chip": "ym2612"
    },
    {
      "channel": 4,
      "note": 45,
      "start": 67.1932,
      "duration": 0.1248,
      "velocity": 101,
      "chip": "ym2612"
    },
    {
      "channel": 1,
      "note": 68,
      "start": 67.3432,
      "duration": 0.0757,
      "velocity": 94,
      "chip": "ym2612"
    },
    {
      "channel": 2,
      "note": 80,
      "start": 67.3433,
      "duration": 0.2778,
      "velocity": 117,
      "chip": "ym2612"
    },
    {
      "channel": 3,
      "note": 54,
      "start": 67.3435,
      "duration": 0.2777,
      "velocity": 88,
      "chip": "ym2612"
    },
    {
      "channel": 4,
      "note": 61,
      "start": 67.3452,
      "duration": 0.1243,
      "velocity": 105,
      "chip": "ym2612"
    },
    {
      "channel": 1,
      "note": 68,
      "start": 67.4188,
      "duration": 0.0759,
      "velocity": 94,
      "chip": "ym2612"
    },
    {
      "channel": 1,
      "note": 73,
      "start": 67.4948,
      "duration": 0.0758,
      "velocity": 94,
      "chip": "ym2612"
    },
    {
      "channel": 4,
      "note": 45,
      "start": 67.4965,
      "duration": 0.1248,
      "velocity": 101,
      "chip": "ym2612"
    },
    {
      "channel": 1,
      "note": 75,
      "start": 67.5706,
      "duration": 0.0758,
      "velocity": 94,
      "chip": "ym2612"
    },
    {
      "channel": 1,
      "note": 80,
      "start": 67.6465,
      "duration": 0.0758,
      "velocity": 94,
      "chip": "ym2612"
    },
    {
      "channel": 2,
      "note": 80,
      "start": 67.6466,
      "duration": 0.2778,
      "velocity": 117,
      "chip": "ym2612"
    },
    {
      "channel": 3,
      "note": 54,
      "start": 67.6468,
      "duration": 0.2778,
      "velocity": 88,
      "chip": "ym2612"
    },
    {
      "channel": 4,
      "note": 57,
      "start": 67.6484,
      "duration": 0.1244,
      "velocity": 105,
      "chip": "ym2612"
    },
    {
      "channel": 1,
      "note": 75,
      "start": 67.7224,
      "duration": 0.0758,
      "velocity": 94,
      "chip": "ym2612"
    },
    {
      "channel": 1,
      "note": 73,
      "start": 67.7982,
      "duration": 0.0757,
      "velocity": 94,
      "chip": "ym2612"
    },
    {
      "channel": 4,
      "note": 45,
      "start": 67.7998,
      "duration": 0.1249,
      "velocity": 101,
      "chip": "ym2612"
    },
    {
      "channel": 1,
      "note": 68,
      "start": 67.874,
      "duration": 0.0758,
      "velocity": 94,
      "chip": "ym2612"
    },
    {
      "channel": 1,
      "note": 64,
      "start": 67.9499,
      "duration": 0.4043,
      "velocity": 94,
      "chip": "ym2612"
    },
    {
      "channel": 2,
      "note": 83,
      "start": 67.9501,
      "duration": 1.0615,
      "velocity": 117,
      "chip": "ym2612"
    },
    {
      "channel": 3,
      "note": 49,
      "start": 67.9502,
      "duration": 0.126,
      "velocity": 88,
      "chip": "ym2612"
    },
    {
      "channel": 4,
      "note": 45,
      "start": 67.9503,
      "duration": 0.126,
      "velocity": 101,
      "chip": "ym2612"
    },
    {
      "channel": 3,
      "note": 49,
      "start": 68.1015,
      "duration": 0.1264,
      "velocity": 88,
      "chip": "ym2612"
    },
    {
      "channel": 4,
      "note": 45,
      "start": 68.1016,
      "duration": 0.1264,
      "velocity": 101,
      "chip": "ym2612"
    },
    {
      "channel": 3,
      "note": 61,
      "start": 68.2536,
      "duration": 0.126,
      "velocity": 88,
      "chip": "ym2612"
    },
    {
      "channel": 4,
      "note": 68,
      "start": 68.2552,
      "duration": 0.1244,
      "velocity": 127,
      "chip": "ym2612"
    },
    {
      "channel": 1,
      "note": 66,
      "start": 68.4049,
      "duration": 0.4043,
      "velocity": 94,
      "chip": "ym2612"
    },
    {
      "channel": 3,
      "note": 49,
      "start": 68.4051,
      "duration": 0.2778,
      "velocity": 88,
      "chip": "ym2612"
    },
    {
      "channel": 4,
      "note": 45,
      "start": 68.4067,
      "duration": 0.2763,
      "velocity": 101,
      "chip": "ym2612"
    },
    {
      "channel": 3,
      "note": 49,
      "start": 68.7082,
      "duration": 0.1264,
      "velocity": 88,
      "chip": "ym2612"
    },
    {
      "channel": 4,
      "note": 45,
      "start": 68.7083,
      "duration": 0.1264,
      "velocity": 101,
      "chip": "ym2612"
    },
    {
      "channel": 1,
      "note": 68,
      "start": 68.86,
      "duration": 0.278,
      "velocity": 94,
      "chip": "ym2612"
    },
    {
      "channel": 3,
      "note": 61,
      "start": 68.8601,
      "duration": 0.1261,
      "velocity": 88,
      "chip": "ym2612"
    },
    {
      "channel": 4,
      "note": 68,
      "start": 68.8618,
      "duration": 0.1246,
      "velocity": 127,
      "chip": "ym2612"
    },
    {
      "channel": 3,
      "note": 49,
      "start": 69.0117,
      "duration": 0.1263,
      "velocity": 88,
      "chip": "ym2612"
    },
    {
      "channel": 4,
      "note": 45,
      "start": 69.0134,
      "duration": 0.1248,
      "velocity": 101,
      "chip": "ym2612"
    },
    {
      "channel": 1,
      "note": 66,
      "start": 69.1633,
      "duration": 0.4044,
      "velocity": 94,
      "chip": "ym2612"
    },
    {
      "channel": 2,
      "note": 83,
      "start": 69.1634,
      "duration": 1.0616,
      "velocity": 117,
      "chip": "ym2612"
    },
    {
      "channel": 3,
      "note": 51,
      "start": 69.1636,
      "duration": 0.1261,
      "velocity": 88,
      "chip": "ym2612"
    },
    {
      "channel": 4,
      "note": 45,
      "start": 69.1637,
      "duration": 0.1261,
      "velocity": 101,
      "chip": "ym2612"
    },
    {
      "channel": 3,
      "note": 51,
      "start": 69.3149,
      "duration": 0.1264,
      "velocity": 88,
      "chip": "ym2612"
    },
    {
      "channel": 4,
      "note": 45,
      "start": 69.315,
      "duration": 0.1264,
      "velocity": 101,
      "chip": "ym2612"
    },
    {
      "channel": 3,
      "note": 63,
      "start": 69.4666,
      "duration": 0.1263,
      "velocity": 88,
      "chip": "ym2612"
    },
    {
      "channel": 4,
      "note": 68,
      "start": 69.4683,
      "duration": 0.1248,
      "velocity": 127,
      "chip": "ym2612"
    },
    {
      "channel": 1,
      "note": 68,
      "start": 69.6183,
      "duration": 0.4044,
      "velocity": 94,
      "chip": "ym2612"
    },
    {
      "channel": 3,
      "note": 51,
      "start": 69.6185,
      "duration": 0.2778,
      "velocity": 88,
      "chip": "ym2612"
    },
    {
      "channel": 4,
      "note": 45,
      "start": 69.6206,
      "duration": 0.2758,
      "velocity": 101,
      "chip": "ym2612"
    },
    {
      "channel": 3,
      "note": 51,
      "start": 69.9217,
      "duration": 0.1263,
      "velocity": 88,
      "chip": "ym2612"
    },
    {
      "channel": 4,
      "note": 45,
      "start": 69.9218,
      "duration": 0.1263,
      "velocity": 101,
      "chip": "ym2612"
    },
    {
      "channel": 1,
      "note": 70,
      "start": 70.0734,
      "duration": 0.278,
      "velocity": 94,
      "chip": "ym2612"
    },
    {
      "channel": 3,
      "note": 63,
      "start": 70.0736,
      "duration": 0.1261,
      "velocity": 88,
      "chip": "ym2612"
    },
    {
      "channel": 4,
      "note": 68,
      "start": 70.0752,
      "duration": 0.1246,
      "velocity": 127,
      "chip": "ym2612"
    },
    {
      "channel": 3,
      "note": 51,
      "start": 70.2251,
      "duration": 0.1263,
      "velocity": 88,
      "chip": "ym2612"
    },
    {
      "channel": 4,
      "note": 45,
      "start": 70.2268,
      "duration": 0.1248,
      "velocity": 101,
      "chip": "ym2612"
    },
    {
      "channel": 1,
      "note": 71,
      "start": 70.3767,
      "duration": 1.0617,
      "velocity": 94,
      "chip": "ym2612"
    },
    {
      "channel": 2,
      "note": 83,
      "start": 70.3768,
      "duration": 1.0617,
      "velocity": 117,
      "chip": "ym2612"
    },
    {
      "channel": 3,
      "note": 55,
      "start": 70.377,
      "duration": 0.1261,
      "velocity": 88,
      "chip": "ym2612"
    },
    {
      "channel": 4,
      "note": 64,
      "start": 70.3786,
      "duration": 0.1249,
      "velocity": 105,
      "chip": "ym2612"
    },
    {
      "channel": 3,
      "note": 55,
      "start": 70.5283,
      "duration": 0.1265,
      "velocity": 88,
      "chip": "ym2612"
    },
    {
      "channel": 4,
      "note": 45,
      "start": 70.53,
      "duration": 0.1249,
      "velocity": 101,
      "chip": "ym2612"
    },
    {
      "channel": 3,
      "note": 67,
      "start": 70.6801,
      "duration": 0.1263,
      "velocity": 88,
      "chip": "ym2612"
    },
    {
      "channel": 4,
      "note": 61,
      "start": 70.6817,
      "duration": 0.1248,
      "velocity": 105,
      "chip": "ym2612"
    },
    {
      "channel": 3,
      "note": 55,
      "start": 70.8318,
      "duration": 0.278,
      "velocity": 88,
      "chip": "ym2612"
    },
    {
      "channel": 4,
      "note": 45,
      "start": 70.8334,
      "duration": 0.1247,
      "velocity": 101,
      "chip": "ym2612"
    },
    {
      "channel": 4,
      "note": 59,
      "start": 70.9849,
      "duration": 0.1251,
      "velocity": 105,
      "chip": "ym2612"
    },
    {
      "channel": 3,
      "note": 55,
      "start": 71.1351,
      "duration": 0.1264,
      "velocity": 88,
      "chip": "ym2612"
    },
    {
      "channel": 4,
      "note": 45,
      "start": 71.1371,
      "duration": 0.1245,
      "velocity": 101,
      "chip": "ym2612"
    },
    {
      "channel": 3,
      "note": 67,
      "start": 71.2874,
      "duration": 0.1258,
      "velocity": 88,
      "chip": "ym2612"
    },
    {
      "channel": 4,
      "note": 57,
      "start": 71.289,
      "duration": 0.1243,
      "velocity": 105,
      "chip": "ym2612"
    },
    {
      "channel": 3,
      "note": 55,
      "start": 71.4387,
      "duration": 0.1261,
      "velocity": 88,
      "chip": "ym2612"
    },
    {
      "channel": 4,
      "note": 45,
      "start": 71.4404,
      "duration": 0.1246,
      "velocity": 101,
      "chip": "ym2612"
    },
    {
      "channel": 1,
      "note": 73,
      "start": 71.5902,
      "duration": 0.1263,
      "velocity": 94,
      "chip": "ym2612"
    },
    {
      "channel": 2,
      "note": 85,
      "start": 71.5904,
      "duration": 0.1263,
      "velocity": 117,
      "chip": "ym2612"
    },
    {
      "channel": 3,
      "note": 57,
      "start": 71.5905,
      "duration": 0.1262,
      "velocity": 88,
      "chip": "ym2612"
    },
    {
      "channel": 4,
      "note": 68,
      "start": 71.5922,
      "duration": 0.1247,
      "velocity": 127,
      "chip": "ym2612"
    },
    {
      "channel": 1,
      "note": 73,
      "start": 71.7417,
      "duration": 0.2786,
      "velocity": 94,
      "chip": "ym2612"
    },
    {
      "channel": 2,
      "note": 85,
      "start": 71.7419,
      "duration": 0.2786,
      "velocity": 117,
      "chip": "ym2612"
    },
    {
      "channel": 3,
      "note": 59,
      "start": 71.7421,
      "duration": 0.2785,
      "velocity": 88,
      "chip": "ym2612"
    },
    {
      "channel": 4,
      "note": 57,
      "start": 71.7437,
      "duration": 0.277,
      "velocity": 105,
      "chip": "ym2612"
    },
    {
      "channel": 1,
      "note": 73,
      "start": 72.0452,
      "duration": 0.278,
      "velocity": 94,
      "chip": "ym2612"
    },
    {
      "channel": 2,
      "note": 85,
      "start": 72.0453,
      "duration": 0.2781,
      "velocity": 117,
      "chip": "ym2612"
    },
    {
      "channel": 3,
      "note": 61,
      "start": 72.0455,
      "duration": 0.278,
      "velocity": 88,
      "chip": "ym2612"
    },
    {
      "channel": 4,
      "note": 57,
      "start": 72.0456,
      "duration": 0.278,
      "velocity": 105,
      "chip": "ym2612"
    },
    {
      "channel": 1,
      "note": 73,
      "start": 72.3485,
      "duration": 0.1264,
      "velocity": 94,
      "chip": "ym2612"
    },
    {
      "channel": 2,
      "note": 85,
      "start": 72.3486,
      "duration": 0.278,
      "velocity": 117,
      "chip": "ym2612"
    },
    {
      "channel": 3,
      "note": 64,
      "start": 72.3488,
      "duration": 0.1262,
      "velocity": 88,
      "chip": "ym2612"
    },
    {
      "channel": 4,
      "note": 57,
      "start": 72.3489,
      "duration": 0.1262,
      "velocity": 105,
      "chip": "ym2612"
    },
    {
      "channel": 1,
      "note": 73,
      "start": 72.5002,
      "duration": 0.278,
      "velocity": 94,
      "chip": "ym2612"
    },
    {
      "channel": 3,
      "note": 69,
      "start": 72.5004,
      "duration": 0.1263,
      "velocity": 88,
      "chip": "ym2612"
    },
    {
      "channel": 4,
      "note": 68,
      "start": 72.5021,
      "duration": 0.1248,
      "velocity": 127,
      "chip": "ym2612"
    },
    {
      "channel": 2,
      "note": 85,
      "start": 72.6519,
      "duration": 0.1265,
      "velocity": 117,
      "chip": "ym2612"
    },
    {
      "channel": 3,
      "note": 57,
      "start": 72.6521,
      "duration": 0.1264,
      "velocity": 88,
      "chip": "ym2612"
    },
    {
      "channel": 4,
      "note": 45,
      "start": 72.6541,
      "duration": 0.1245,
      "velocity": 101,
      "chip": "ym2612"
    },
    {
      "channel": 3,
      "note": 47,
      "start": 72.8052,
      "duration": 0.1247,
      "velocity": 88,
      "chip": "ym2612"
    },
    {
      "channel": 4,
      "note": 45,
      "start": 72.8054,
      "duration": 0.2765,
      "velocity": 101,
      "chip": "ym2612"
    },
    {
      "channel": 3,
      "note": 59,
      "start": 72.9554,
      "duration": 0.1263,
      "velocity": 88,
      "chip": "ym2612"
    }
  ]
}