{
  "track_name": "19 - Finale Part 2",
  "duration_sec": 37.344,
  "sample_rate": 44100,
  "note_count": 603,
  "unique_pitches": 40,
  "pitch_range": 95,
  "avg_note_duration": 0.3006,
  "reconstruction_stats": {
    "notes_reconstructed": 603,
    "keyon_events": 603,
    "keyoff_events": 603,
    "orphan_keyons": 0,
    "unique_pitches": 40,
    "pitch_range": 95,
    "avg_duration_sec": 0.3006
  },
  "metadata": {
    "source": "M\\Monster World IV\\19 - Finale Part 2.vgz"
  },
  "notes": [
    {
      "channel": 0,
      "note": 104,
      "start": 0.0,
      "duration": 2.642,
      "velocity": 92,
      "chip": "ym2612"
    },
    {
      "channel": 3,
      "note": 108,
      "start": 0.6661,
      "duration": 0.158,
      "velocity": 85,
      "chip": "ym2612"
    },
    {
      "channel": 4,
      "note": 104,
      "start": 0.6689,
      "duration": 0.1553,
      "velocity": 85,
      "chip": "ym2612"
    },
    {
      "channel": 5,
      "note": 99,
      "start": 0.6718,
      "duration": 0.0962,
      "velocity": 92,
      "chip": "ym2612"
    },
    {
      "channel": 5,
      "note": 41,
      "start": 0.786,
      "duration": 0.1001,
      "velocity": 92,
      "chip": "ym2612"
    },
    {
      "channel": 1,
      "note": 99,
      "start": 0.8378,
      "duration": 0.1627,
      "velocity": 85,
      "chip": "ym2612"
    },
    {
      "channel": 2,
      "note": 108,
      "start": 0.8411,
      "duration": 0.16,
      "velocity": 85,
      "chip": "ym2612"
    },
    {
      "channel": 5,
      "note": 41,
      "start": 0.89,
      "duration": 0.1011,
      "velocity": 92,
      "chip": "ym2612"
    },
    {
      "channel": 3,
      "note": 77,
      "start": 0.9932,
      "duration": 0.1569,
      "velocity": 85,
      "chip": "ym2612"
    },
    {
      "channel": 4,
      "note": 65,
      "start": 0.9954,
      "duration": 0.1552,
      "velocity": 85,
      "chip": "ym2612"
    },
    {
      "channel": 5,
      "note": 41,
      "start": 0.998,
      "duration": 0.1025,
      "velocity": 92,
      "chip": "ym2612"
    },
    {
      "channel": 5,
      "note": 41,
      "start": 1.1129,
      "duration": 0.0988,
      "velocity": 92,
      "chip": "ym2612"
    },
    {
      "channel": 1,
      "note": 79,
      "start": 1.1645,
      "duration": 0.1576,
      "velocity": 85,
      "chip": "ym2612"
    },
    {
      "channel": 2,
      "note": 67,
      "start": 1.1668,
      "duration": 0.1561,
      "velocity": 85,
      "chip": "ym2612"
    },
    {
      "channel": 5,
      "note": 41,
      "start": 1.216,
      "duration": 0.1019,
      "velocity": 92,
      "chip": "ym2612"
    },
    {
      "channel": 3,
      "note": 81,
      "start": 1.3369,
      "duration": 0.1584,
      "velocity": 85,
      "chip": "ym2612"
    },
    {
      "channel": 4,
      "note": 69,
      "start": 1.3392,
      "duration": 0.1569,
      "velocity": 85,
      "chip": "ym2612"
    },
    {
      "channel": 5,
      "note": 41,
      "start": 1.3415,
      "duration": 0.0936,
      "velocity": 92,
      "chip": "ym2612"
    },
    {
      "channel": 5,
      "note": 41,
      "start": 1.439,
      "duration": 0.1076,
      "velocity": 92,
      "chip": "ym2612"
    },
    {
      "channel": 1,
      "note": 82,
      "start": 1.4903,
      "duration": 0.158,
      "velocity": 85,
      "chip": "ym2612"
    },
    {
      "channel": 2,
      "note": 70,
      "start": 1.4925,
      "duration": 0.1564,
      "velocity": 85,
      "chip": "ym2612"
    },
    {
      "channel": 5,
      "note": 41,
      "start": 1.5589,
      "duration": 0.1013,
      "velocity": 92,
      "chip": "ym2612"
    },
    {
      "channel": 3,
      "note": 84,
      "start": 1.6622,
      "duration": 0.1568,
      "velocity": 85,
      "chip": "ym2612"
    },
    {
      "channel": 4,
      "note": 72,
      "start": 1.6648,
      "duration": 0.155,
      "velocity": 85,
      "chip": "ym2612"
    },
    {
      "channel": 5,
      "note": 41,
      "start": 1.667,
      "duration": 0.0937,
      "velocity": 92,
      "chip": "ym2612"
    },
    {
      "channel": 5,
      "note": 41,
      "start": 1.765,
      "duration": 0.1075,
      "velocity": 92,
      "chip": "ym2612"
    },
    {
      "channel": 1,
      "note": 82,
      "start": 1.8337,
      "duration": 0.1619,
      "velocity": 85,
      "chip": "ym2612"
    },
    {
      "channel": 2,
      "note": 70,
      "start": 1.8358,
      "duration": 0.1605,
      "velocity": 85,
      "chip": "ym2612"
    },
    {
      "channel": 5,
      "note": 41,
      "start": 1.8852,
      "duration": 0.1013,
      "velocity": 92,
      "chip": "ym2612"
    },
    {
      "channel": 3,
      "note": 81,
      "start": 1.9886,
      "duration": 0.1564,
      "velocity": 85,
      "chip": "ym2612"
    },
    {
      "channel": 4,
      "note": 69,
      "start": 1.9908,
      "duration": 0.1548,
      "velocity": 85,
      "chip": "ym2612"
    },
    {
      "channel": 5,
      "note": 41,
      "start": 1.9931,
      "duration": 0.0967,
      "velocity": 92,
      "chip": "ym2612"
    },
    {
      "channel": 5,
      "note": 41,
      "start": 2.1079,
      "duration": 0.0987,
      "velocity": 92,
      "chip": "ym2612"
    },
    {
      "channel": 1,
      "note": 82,
      "start": 2.1592,
      "duration": 0.1579,
      "velocity": 85,
      "chip": "ym2612"
    },
    {
      "channel": 2,
      "note": 70,
      "start": 2.1614,
      "duration": 0.1564,
      "velocity": 85,
      "chip": "ym2612"
    },
    {
      "channel": 5,
      "note": 41,
      "start": 2.2107,
      "duration": 0.1022,
      "velocity": 92,
      "chip": "ym2612"
    },
    {
      "channel": 3,
      "note": 84,
      "start": 2.3317,
      "duration": 0.1587,
      "velocity": 85,
      "chip": "ym2612"
    },
    {
      "channel": 4,
      "note": 72,
      "start": 2.334,
      "duration": 0.1571,
      "velocity": 85,
      "chip": "ym2612"
    },
    {
      "channel": 5,
      "note": 41,
      "start": 2.3362,
      "duration": 0.0934,
      "velocity": 92,
      "chip": "ym2612"
    },
    {
      "channel": 5,
      "note": 41,
      "start": 2.4339,
      "duration": 0.1076,
      "velocity": 92,
      "chip": "ym2612"
    },
    {
      "channel": 1,
      "note": 86,
      "start": 2.4854,
      "duration": 0.1572,
      "velocity": 85,
      "chip": "ym2612"
    },
    {
      "channel": 2,
      "note": 74,
      "start": 2.4876,
      "duration": 0.1556,
      "velocity": 85,
      "chip": "ym2612"
    },
    {
      "channel": 5,
      "note": 41,
      "start": 2.5542,
      "duration": 0.1054,
      "velocity": 92,
      "chip": "ym2612"
    },
    {
      "channel": 0,
      "note": 41,
      "start": 2.6612,
      "duration": 2.6683,
      "velocity": 92,
      "chip": "ym2612"
    },
    {
      "channel": 3,
      "note": 87,
      "start": 2.6637,
      "duration": 0.62,
      "velocity": 97,
      "chip": "ym2612"
    },
    {
      "channel": 1,
      "note": 89,
      "start": 2.6657,
      "duration": 0.6579,
      "velocity": 85,
      "chip": "ym2612"
    },
    {
      "channel": 4,
      "note": 75,
      "start": 2.6675,
      "duration": 0.6562,
      "velocity": 85,
      "chip": "ym2612"
    },
    {
      "channel": 5,
      "note": 41,
      "start": 2.6698,
      "duration": 1.9932,
      "velocity": 92,
      "chip": "ym2612"
    },
    {
      "channel": 2,
      "note": 77,
      "start": 2.7895,
      "duration": 0.615,
      "velocity": 97,
      "chip": "ym2612"
    },
    {
      "channel": 3,
      "note": 86,
      "start": 3.3391,
      "duration": 0.6516,
      "velocity": 97,
      "chip": "ym2612"
    },
    {
      "channel": 1,
      "note": 86,
      "start": 3.3408,
      "duration": 0.3247,
      "velocity": 85,
      "chip": "ym2612"
    },
    {
      "channel": 4,
      "note": 74,
      "start": 3.3424,
      "duration": 0.3241,
      "velocity": 85,
      "chip": "ym2612"
    },
    {
      "channel": 2,
      "note": 86,
      "start": 3.4634,
      "duration": 0.6709,
      "velocity": 97,
      "chip": "ym2612"
    },
    {
      "channel": 1,
      "note": 86,
      "start": 3.6705,
      "duration": 0.3213,
      "velocity": 85,
      "chip": "ym2612"
    },
    {
      "channel": 4,
      "note": 74,
      "start": 3.6722,
      "duration": 0.3207,
      "velocity": 85,
      "chip": "ym2612"
    },
    {
      "channel": 3,
      "note": 87,
      "start": 3.9961,
      "duration": 0.9221,
      "velocity": 97,
      "chip": "ym2612"
    },
    {
      "channel": 1,
      "note": 87,
      "start": 3.9982,
      "duration": 0.9894,
      "velocity": 85,
      "chip": "ym2612"
    },
    {
      "channel": 4,
      "note": 75,
      "start": 3.9998,
      "duration": 0.9879,
      "velocity": 85,
      "chip": "ym2612"
    },
    {
      "channel": 2,
      "note": 87,
      "start": 4.1383,
      "duration": 0.9306,
      "velocity": 97,
      "chip": "ym2612"
    },
    {
      "channel": 3,
      "note": 86,
      "start": 4.9978,
      "duration": 0.139,
      "velocity": 97,
      "chip": "ym2612"
    },
    {
      "channel": 1,
      "note": 86,
      "start": 4.9995,
      "duration": 0.1594,
      "velocity": 85,
      "chip": "ym2612"
    },
    {
      "channel": 4,
      "note": 74,
      "start": 5.0012,
      "duration": 0.1578,
      "velocity": 85,
      "chip": "ym2612"
    },
    {
      "channel": 5,
      "note": 46,
      "start": 5.0037,
      "duration": 0.3226,
      "velocity": 92,
      "chip": "ym2612"
    },
    {
      "channel": 2,
      "note": 86,
      "start": 5.1388,
      "duration": 0.1355,
      "velocity": 97,
      "chip": "ym2612"
    },
    {
      "channel": 3,
      "note": 84,
      "start": 5.1734,
      "duration": 0.1337,
      "velocity": 97,
      "chip": "ym2612"
    },
    {
      "channel": 1,
      "note": 84,
      "start": 5.1751,
      "duration": 0.155,
      "velocity": 85,
      "chip": "ym2612"
    },
    {
      "channel": 4,
      "note": 72,
      "start": 5.1769,
      "duration": 0.1534,
      "velocity": 85,
      "chip": "ym2612"
    },
    {
      "channel": 2,
      "note": 84,
      "start": 5.293,
      "duration": 0.1471,
      "velocity": 97,
      "chip": "ym2612"
    },
    {
      "channel": 0,
      "note": 46,
      "start": 5.3483,
      "duration": 2.6735,
      "velocity": 92,
      "chip": "ym2612"
    },
    {
      "channel": 3,
      "note": 82,
      "start": 5.3499,
      "duration": 0.6536,
      "velocity": 97,
      "chip": "ym2612"
    },
    {
      "channel": 1,
      "note": 82,
      "start": 5.3516,
      "duration": 0.3265,
      "velocity": 85,
      "chip": "ym2612"
    },
    {
      "channel": 4,
      "note": 70,
      "start": 5.3533,
      "duration": 0.3259,
      "velocity": 85,
      "chip": "ym2612"
    },
    {
      "channel": 5,
      "note": 41,
      "start": 5.3556,
      "duration": 2.0008,
      "velocity": 92,
      "chip": "ym2612"
    },
    {
      "channel": 2,
      "note": 82,
      "start": 5.4761,
      "duration": 0.6535,
      "velocity": 97,
      "chip": "ym2612"
    },
    {
      "channel": 1,
      "note": 81,
      "start": 5.6834,
      "duration": 0.321,
      "velocity": 85,
      "chip": "ym2612"
    },
    {
      "channel": 4,
      "note": 69,
      "start": 5.6851,
      "duration": 0.3204,
      "velocity": 85,
      "chip": "ym2612"
    },
    {
      "channel": 3,
      "note": 82,
      "start": 6.0088,
      "duration": 0.6754,
      "velocity": 97,
      "chip": "ym2612"
    },
    {
      "channel": 1,
      "note": 82,
      "start": 6.0105,
      "duration": 0.3267,
      "velocity": 85,
      "chip": "ym2612"
    },
    {
      "channel": 4,
      "note": 70,
      "start": 6.0121,
      "duration": 0.3253,
      "velocity": 85,
      "chip": "ym2612"
    },
    {
      "channel": 2,
      "note": 82,
      "start": 6.1337,
      "duration": 0.6764,
      "velocity": 97,
      "chip": "ym2612"
    },
    {
      "channel": 1,
      "note": 84,
      "start": 6.3585,
      "duration": 0.3268,
      "velocity": 85,
      "chip": "ym2612"
    },
    {
      "channel": 4,
      "note": 72,
      "start": 6.3602,
      "duration": 0.3262,
      "velocity": 85,
      "chip": "ym2612"
    },
    {
      "channel": 3,
      "note": 86,
      "start": 6.6897,
      "duration": 0.6191,
      "velocity": 97,
      "chip": "ym2612"
    },
    {
      "channel": 1,
      "note": 86,
      "start": 6.6914,
      "duration": 0.6579,
      "velocity": 85,
      "chip": "ym2612"
    },
    {
      "channel": 4,
      "note": 74,
      "start": 6.693,
      "duration": 0.6563,
      "velocity": 85,
      "chip": "ym2612"
    },
    {
      "channel": 2,
      "note": 86,
      "start": 6.814,
      "duration": 0.6219,
      "velocity": 97,
      "chip": "ym2612"
    },
    {
      "channel": 3,
      "note": 84,
      "start": 7.3653,
      "duration": 0.6576,
      "velocity": 97,
      "chip": "ym2612"
    },
    {
      "channel": 1,
      "note": 84,
      "start": 7.367,
      "duration": 0.3239,
      "velocity": 85,
      "chip": "ym2612"
    },
    {
      "channel": 4,
      "note": 72,
      "start": 7.3687,
      "duration": 0.3233,
      "velocity": 85,
      "chip": "ym2612"
    },
    {
      "channel": 5,
      "note": 41,
      "start": 7.371,
      "duration": 0.3233,
      "velocity": 92,
      "chip": "ym2612"
    },
    {
      "channel": 2,
      "note": 84,
      "start": 7.4892,
      "duration": 0.6648,
      "velocity": 97,
      "chip": "ym2612"
    },
    {
      "channel": 1,
      "note": 86,
      "start": 7.697,
      "duration": 0.3268,
      "velocity": 85,
      "chip": "ym2612"
    },
    {
      "channel": 4,
      "note": 74,
      "start": 7.699,
      "duration": 0.3259,
      "velocity": 85,
      "chip": "ym2612"
    },
    {
      "channel": 5,
      "note": 41,
      "start": 7.7012,
      "duration": 0.1506,
      "velocity": 92,
      "chip": "ym2612"
    },
    {
      "channel": 5,
      "note": 41,
      "start": 7.8558,
      "duration": 0.1588,
      "velocity": 92,
      "chip": "ym2612"
    },
    {
      "channel": 0,
      "note": 41,
      "start": 8.0295,
      "duration": 2.6693,
      "velocity": 92,
      "chip": "ym2612"
    },
    {
      "channel": 3,
      "note": 87,
      "start": 8.0315,
      "duration": 0.6716,
      "velocity": 97,
      "chip": "ym2612"
    },
    {
      "channel": 1,
      "note": 87,
      "start": 8.0332,
      "duration": 0.3268,
      "velocity": 85,
      "chip": "ym2612"
    },
    {
      "channel": 4,
      "note": 75,
      "start": 8.0348,
      "duration": 0.3262,
      "velocity": 85,
      "chip": "ym2612"
    },
    {
      "channel": 5,
      "note": 41,
      "start": 8.0371,
      "duration": 2.6644,
      "velocity": 92,
      "chip": "ym2612"
    },
    {
      "channel": 2,
      "note": 87,
      "start": 8.1578,
      "duration": 0.6708,
      "velocity": 97,
      "chip": "ym2612"
    },
    {
      "channel": 1,
      "note": 89,
      "start": 8.3646,
      "duration": 0.3228,
      "velocity": 85,
      "chip": "ym2612"
    },
    {
      "channel": 4,
      "note": 77,
      "start": 8.3663,
      "duration": 0.3212,
      "velocity": 85,
      "chip": "ym2612"
    },
    {
      "channel": 3,
      "note": 87,
      "start": 8.7085,
      "duration": 0.9277,
      "velocity": 97,
      "chip": "ym2612"
    },
    {
      "channel": 1,
      "note": 87,
      "start": 8.7103,
      "duration": 0.989,
      "velocity": 85,
      "chip": "ym2612"
    },
    {
      "channel": 4,
      "note": 75,
      "start": 8.712,
      "duration": 0.9875,
      "velocity": 85,
      "chip": "ym2612"
    },
    {
      "channel": 2,
      "note": 87,
      "start": 8.8329,
      "duration": 0.9302,
      "velocity": 97,
      "chip": "ym2612"
    },
    {
      "channel": 3,
      "note": 82,
      "start": 9.7083,
      "duration": 0.2877,
      "velocity": 97,
      "chip": "ym2612"
    },
    {
      "channel": 1,
      "note": 82,
      "start": 9.71,
      "duration": 0.326,
      "velocity": 85,
      "chip": "ym2612"
    },
    {
      "channel": 4,
      "note": 70,
      "start": 9.7117,
      "duration": 0.3253,
      "velocity": 85,
      "chip": "ym2612"
    },
    {
      "channel": 2,
      "note": 82,
      "start": 9.8337,
      "duration": 0.2839,
      "velocity": 97,
      "chip": "ym2612"
    },
    {
      "channel": 3,
      "note": 79,
      "start": 10.0403,
      "duration": 0.6706,
      "velocity": 97,
      "chip": "ym2612"
    },
    {
      "channel": 1,
      "note": 79,
      "start": 10.042,
      "duration": 0.3251,
      "velocity": 85,
      "chip": "ym2612"
    },
    {
      "channel": 4,
      "note": 67,
      "start": 10.0437,
      "duration": 0.3246,
      "velocity": 85,
      "chip": "ym2612"
    },
    {
      "channel": 2,
      "note": 79,
      "start": 10.1653,
      "duration": 0.6763,
      "velocity": 97,
      "chip": "ym2612"
    },
    {
      "channel": 1,
      "note": 82,
      "start": 10.3722,
      "duration": 0.3221,
      "velocity": 85,
      "chip": "ym2612"
    },
    {
      "channel": 4,
      "note": 70,
      "start": 10.3739,
      "duration": 0.3206,
      "velocity": 85,
      "chip": "ym2612"
    },
    {
      "channel": 0,
      "note": 39,
      "start": 10.718,
      "duration": 1.3298,
      "velocity": 92,
      "chip": "ym2612"
    },
    {
      "channel": 3,
      "note": 84,
      "start": 10.7197,
      "duration": 0.9231,
      "velocity": 97,
      "chip": "ym2612"
    },
    {
      "channel": 1,
      "note": 84,
      "start": 10.7214,
      "duration": 0.9907,
      "velocity": 85,
      "chip": "ym2612"
    },
    {
      "channel": 4,
      "note": 72,
      "start": 10.7231,
      "duration": 0.9891,
      "velocity": 85,
      "chip": "ym2612"
    },
    {
      "channel": 5,
      "note": 39,
      "start": 10.7254,
      "duration": 0.9875,
      "velocity": 92,
      "chip": "ym2612"
    },
    {
      "channel": 2,
      "note": 84,
      "start": 10.8454,
      "duration": 0.9303,
      "velocity": 97,
      "chip": "ym2612"
    },
    {
      "channel": 3,
      "note": 86,
      "start": 11.7212,
      "duration": 0.1392,
      "velocity": 97,
      "chip": "ym2612"
    },
    {
      "channel": 1,
      "note": 86,
      "start": 11.7229,
      "duration": 0.1541,
      "velocity": 85,
      "chip": "ym2612"
    },
    {
      "channel": 4,
      "note": 74,
      "start": 11.7246,
      "duration": 0.1535,
      "velocity": 85,
      "chip": "ym2612"
    },
    {
      "channel": 5,
      "note": 43,
      "start": 11.727,
      "duration": 0.0984,
      "velocity": 92,
      "chip": "ym2612"
    },
    {
      "channel": 5,
      "note": 43,
      "start": 11.8296,
      "duration": 0.1011,
      "velocity": 92,
      "chip": "ym2612"
    },
    {
      "channel": 2,
      "note": 86,
      "start": 11.8466,
      "duration": 0.1354,
      "velocity": 97,
      "chip": "ym2612"
    },
    {
      "channel": 3,
      "note": 84,
      "start": 11.8806,
      "duration": 0.135,
      "velocity": 97,
      "chip": "ym2612"
    },
    {
      "channel": 1,
      "note": 84,
      "start": 11.8826,
      "duration": 0.1553,
      "velocity": 85,
      "chip": "ym2612"
    },
    {
      "channel": 4,
      "note": 72,
      "start": 11.8843,
      "duration": 0.1537,
      "velocity": 85,
      "chip": "ym2612"
    },
    {
      "channel": 5,
      "note": 43,
      "start": 11.95,
      "duration": 0.1041,
      "velocity": 92,
      "chip": "ym2612"
    },
    {
      "channel": 2,
      "note": 84,
      "start": 12.0176,
      "duration": 0.1816,
      "velocity": 97,
      "chip": "ym2612"
    },
    {
      "channel": 0,
      "note": 43,
      "start": 12.0557,
      "duration": 2.0854,
      "velocity": 92,
      "chip": "ym2612"
    },
    {
      "channel": 3,
      "note": 82,
      "start": 12.0573,
      "duration": 2.0728,
      "velocity": 97,
      "chip": "ym2612"
    },
    {
      "channel": 1,
      "note": 82,
      "start": 12.0591,
      "duration": 0.8708,
      "velocity": 85,
      "chip": "ym2612"
    },
    {
      "channel": 4,
      "note": 70,
      "start": 12.0608,
      "duration": 0.8692,
      "velocity": 85,
      "chip": "ym2612"
    },
    {
      "channel": 5,
      "note": 43,
      "start": 12.063,
      "duration": 0.4262,
      "velocity": 92,
      "chip": "ym2612"
    },
    {
      "channel": 2,
      "note": 82,
      "start": 12.2182,
      "duration": 2.0244,
      "velocity": 97,
      "chip": "ym2612"
    },
    {
      "channel": 5,
      "note": 41,
      "start": 12.4937,
      "duration": 0.1007,
      "velocity": 92,
      "chip": "ym2612"
    },
    {
      "channel": 5,
      "note": 41,
      "start": 12.6135,
      "duration": 0.0983,
      "velocity": 92,
      "chip": "ym2612"
    },
    {
      "channel": 5,
      "note": 41,
      "start": 12.7166,
      "duration": 0.1012,
      "velocity": 92,
      "chip": "ym2612"
    },
    {
      "channel": 5,
      "note": 41,
      "start": 12.8367,
      "duration": 0.1017,
      "velocity": 92,
      "chip": "ym2612"
    },
    {
      "channel": 1,
      "note": 84,
      "start": 12.9411,
      "duration": 1.1893,
      "velocity": 85,
      "chip": "ym2612"
    },
    {
      "channel": 4,
      "note": 72,
      "start": 12.9428,
      "duration": 1.1877,
      "velocity": 85,
      "chip": "ym2612"
    },
    {
      "channel": 5,
      "note": 41,
      "start": 12.9452,
      "duration": 0.1408,
      "velocity": 92,
      "chip": "ym2612"
    },
    {
      "channel": 5,
      "note": 41,
      "start": 13.0996,
      "duration": 0.1332,
      "velocity": 92,
      "chip": "ym2612"
    },
    {
      "channel": 5,
      "note": 41,
      "start": 13.2372,
      "duration": 0.1404,
      "velocity": 92,
      "chip": "ym2612"
    },
    {
      "channel": 5,
      "note": 41,
      "start": 13.3926,
      "duration": 0.134,
      "velocity": 92,
      "chip": "ym2612"
    },
    {
      "channel": 5,
      "note": 41,
      "start": 13.5465,
      "duration": 0.1328,
      "velocity": 92,
      "chip": "ym2612"
    },
    {
      "channel": 5,
      "note": 41,
      "start": 13.6836,
      "duration": 0.1457,
      "velocity": 92,
      "chip": "ym2612"
    },
    {
      "channel": 5,
      "note": 41,
      "start": 13.8366,
      "duration": 0.1418,
      "velocity": 92,
      "chip": "ym2612"
    },
    {
      "channel": 5,
      "note": 41,
      "start": 13.9922,
      "duration": 0.1392,
      "velocity": 92,
      "chip": "ym2612"
    },
    {
      "channel": 0,
      "note": 41,
      "start": 14.1492,
      "duration": 0.1749,
      "velocity": 92,
      "chip": "ym2612"
    },
    {
      "channel": 3,
      "note": 84,
      "start": 14.1518,
      "duration": 0.0989,
      "velocity": 89,
      "chip": "ym2612"
    },
    {
      "channel": 1,
      "note": 89,
      "start": 14.1536,
      "duration": 0.0973,
      "velocity": 85,
      "chip": "ym2612"
    },
    {
      "channel": 5,
      "note": 41,
      "start": 14.1574,
      "duration": 0.2562,
      "velocity": 127,
      "chip": "ym2612"
    },
    {
      "channel": 2,
      "note": 84,
      "start": 14.2612,
      "duration": 0.0994,
      "velocity": 89,
      "chip": "ym2612"
    },
    {
      "channel": 3,
      "note": 70,
      "start": 14.2953,
      "duration": 0.1065,
      "velocity": 89,
      "chip": "ym2612"
    },
    {
      "channel": 1,
      "note": 70,
      "start": 14.297,
      "duration": 0.1049,
      "velocity": 85,
      "chip": "ym2612"
    },
    {
      "channel": 2,
      "note": 70,
      "start": 14.386,
      "duration": 0.1119,
      "velocity": 89,
      "chip": "ym2612"
    },
    {
      "channel": 0,
      "note": 39,
      "start": 14.4221,
      "duration": 0.2151,
      "velocity": 92,
      "chip": "ym2612"
    },
    {
      "channel": 3,
      "note": 65,
      "start": 14.4236,
      "duration": 0.1247,
      "velocity": 89,
      "chip": "ym2612"
    },
    {
      "channel": 1,
      "note": 65,
      "start": 14.4253,
      "duration": 0.1232,
      "velocity": 85,
      "chip": "ym2612"
    },
    {
      "channel": 5,
      "note": 117,
      "start": 14.4282,
      "duration": 0.2588,
      "velocity": 127,
      "chip": "ym2612"
    },
    {
      "channel": 2,
      "note": 65,
      "start": 14.5325,
      "duration": 0.1214,
      "velocity": 89,
      "chip": "ym2612"
    },
    {
      "channel": 3,
      "note": 70,
      "start": 14.5683,
      "duration": 0.1212,
      "velocity": 89,
      "chip": "ym2612"
    },
    {
      "channel": 1,
      "note": 70,
      "start": 14.5699,
      "duration": 0.1207,
      "velocity": 85,
      "chip": "ym2612"
    },
    {
      "channel": 2,
      "note": 70,
      "start": 14.6584,
      "duration": 0.1311,
      "velocity": 89,
      "chip": "ym2612"
    },
    {
      "channel": 3,
      "note": 70,
      "start": 14.6942,
      "duration": 0.2539,
      "velocity": 89,
      "chip": "ym2612"
    },
    {
      "channel": 1,
      "note": 70,
      "start": 14.6958,
      "duration": 0.2526,
      "velocity": 85,
      "chip": "ym2612"
    },
    {
      "channel": 5,
      "note": 117,
      "start": 14.699,
      "duration": 0.2505,
      "velocity": 127,
      "chip": "ym2612"
    },
    {
      "channel": 2,
      "note": 70,
      "start": 14.8035,
      "duration": 0.2565,
      "velocity": 89,
      "chip": "ym2612"
    },
    {
      "channel": 0,
      "note": 39,
      "start": 14.958,
      "duration": 0.2084,
      "velocity": 92,
      "chip": "ym2612"
    },
    {
      "channel": 3,
      "note": 70,
      "start": 14.9595,
      "duration": 0.2515,
      "velocity": 89,
      "chip": "ym2612"
    },
    {
      "channel": 1,
      "note": 70,
      "start": 14.9612,
      "duration": 0.2498,
      "velocity": 85,
      "chip": "ym2612"
    },
    {
      "channel": 5,
      "note": 117,
      "start": 14.9645,
      "duration": 0.0778,
      "velocity": 127,
      "chip": "ym2612"
    },
    {
      "channel": 5,
      "note": 43,
      "start": 15.0498,
      "duration": 0.0785,
      "velocity": 127,
      "chip": "ym2612"
    },
    {
      "channel": 2,
      "note": 70,
      "start": 15.0674,
      "duration": 0.2539,
      "velocity": 89,
      "chip": "ym2612"
    },
    {
      "channel": 5,
      "note": 43,
      "start": 15.1358,
      "duration": 0.0764,
      "velocity": 127,
      "chip": "ym2612"
    },
    {
      "channel": 0,
      "note": 39,
      "start": 15.2208,
      "duration": 0.1669,
      "velocity": 92,
      "chip": "ym2612"
    },
    {
      "channel": 3,
      "note": 74,
      "start": 15.2222,
      "duration": 0.1031,
      "velocity": 89,
      "chip": "ym2612"
    },
    {
      "channel": 1,
      "note": 74,
      "start": 15.2239,
      "duration": 0.1016,
      "velocity": 85,
      "chip": "ym2612"
    },
    {
      "channel": 5,
      "note": 43,
      "start": 15.2269,
      "duration": 0.2493,
      "velocity": 127,
      "chip": "ym2612"
    },
    {
      "channel": 2,
      "note": 74,
      "start": 15.327,
      "duration": 0.1029,
      "velocity": 89,
      "chip": "ym2612"
    },
    {
      "channel": 3,
      "note": 72,
      "start": 15.3617,
      "duration": 0.1167,
      "velocity": 89,
      "chip": "ym2612"
    },
    {
      "channel": 1,
      "note": 72,
      "start": 15.3633,
      "duration": 0.1161,
      "velocity": 85,
      "chip": "ym2612"
    },
    {
      "channel": 2,
      "note": 72,
      "start": 15.4487,
      "duration": 0.1302,
      "velocity": 89,
      "chip": "ym2612"
    },
    {
      "channel": 0,
      "note": 39,
      "start": 15.4837,
      "duration": 0.2128,
      "velocity": 92,
      "chip": "ym2612"
    },
    {
      "channel": 3,
      "note": 72,
      "start": 15.4851,
      "duration": 0.126,
      "velocity": 89,
      "chip": "ym2612"
    },
    {
      "channel": 1,
      "note": 72,
      "start": 15.4867,
      "duration": 0.1246,
      "velocity": 85,
      "chip": "ym2612"
    },
    {
      "channel": 5,
      "note": 117,
      "start": 15.4896,
      "duration": 0.2496,
      "velocity": 127,
      "chip": "ym2612"
    },
    {
      "channel": 2,
      "note": 72,
      "start": 15.5912,
      "duration": 0.1163,
      "velocity": 89,
      "chip": "ym2612"
    },
    {
      "channel": 3,
      "note": 72,
      "start": 15.6248,
      "duration": 0.095,
      "velocity": 89,
      "chip": "ym2612"
    },
    {
      "channel": 1,
      "note": 72,
      "start": 15.6265,
      "duration": 0.0934,
      "velocity": 85,
      "chip": "ym2612"
    },
    {
      "channel": 2,
      "note": 72,
      "start": 15.7119,
      "duration": 0.0954,
      "velocity": 89,
      "chip": "ym2612"
    },
    {
      "channel": 3,
      "note": 70,
      "start": 15.7453,
      "duration": 0.5116,
      "velocity": 89,
      "chip": "ym2612"
    },
    {
      "channel": 1,
      "note": 70,
      "start": 15.7468,
      "duration": 0.5113,
      "velocity": 85,
      "chip": "ym2612"
    },
    {
      "channel": 5,
      "note": 117,
      "start": 15.7498,
      "duration": 0.2467,
      "velocity": 127,
      "chip": "ym2612"
    },
    {
      "channel": 2,
      "note": 70,
      "start": 15.8488,
      "duration": 0.517,
      "velocity": 89,
      "chip": "ym2612"
    },
    {
      "channel": 0,
      "note": 39,
      "start": 16.0022,
      "duration": 0.2089,
      "velocity": 92,
      "chip": "ym2612"
    },
    {
      "channel": 5,
      "note": 117,
      "start": 16.0057,
      "duration": 0.0595,
      "velocity": 127,
      "chip": "ym2612"
    },
    {
      "channel": 5,
      "note": 45,
      "start": 16.0719,
      "duration": 0.0567,
      "velocity": 127,
      "chip": "ym2612"
    },
    {
      "channel": 5,
      "note": 45,
      "start": 16.1422,
      "duration": 0.0456,
      "velocity": 127,
      "chip": "ym2612"
    },
    {
      "channel": 5,
      "note": 46,
      "start": 16.1923,
      "duration": 0.0616,
      "velocity": 127,
      "chip": "ym2612"
    },
    {
      "channel": 0,
      "note": 39,
      "start": 16.2635,
      "duration": 0.1649,
      "velocity": 92,
      "chip": "ym2612"
    },
    {
      "channel": 3,
      "note": 72,
      "start": 16.2654,
      "duration": 1.94,
      "velocity": 89,
      "chip": "ym2612"
    },
    {
      "channel": 1,
      "note": 72,
      "start": 16.2671,
      "duration": 1.9385,
      "velocity": 85,
      "chip": "ym2612"
    },
    {
      "channel": 5,
      "note": 45,
      "start": 16.2699,
      "duration": 0.2473,
      "velocity": 127,
      "chip": "ym2612"
    },
    {
      "channel": 2,
      "note": 72,
      "start": 16.3699,
      "duration": 1.9373,
      "velocity": 89,
      "chip": "ym2612"
    },
    {
      "channel": 0,
      "note": 41,
      "start": 16.524,
      "duration": 0.208,
      "velocity": 92,
      "chip": "ym2612"
    },
    {
      "channel": 5,
      "note": 117,
      "start": 16.5274,
      "duration": 0.2468,
      "velocity": 127,
      "chip": "ym2612"
    },
    {
      "channel": 5,
      "note": 117,
      "start": 16.7817,
      "duration": 0.2502,
      "velocity": 127,
      "chip": "ym2612"
    },
    {
      "channel": 0,
      "note": 41,
      "start": 17.0391,
      "duration": 0.2154,
      "velocity": 92,
      "chip": "ym2612"
    },
    {
      "channel": 5,
      "note": 117,
      "start": 17.0427,
      "duration": 0.0803,
      "velocity": 127,
      "chip": "ym2612"
    },
    {
      "channel": 5,
      "note": 43,
      "start": 17.13,
      "duration": 0.0787,
      "velocity": 127,
      "chip": "ym2612"
    },
    {
      "channel": 5,
      "note": 43,
      "start": 17.2165,
      "duration": 0.0783,
      "velocity": 127,
      "chip": "ym2612"
    },
    {
      "channel": 0,
      "note": 41,
      "start": 17.3024,
      "duration": 0.1667,
      "velocity": 92,
      "chip": "ym2612"
    },
    {
      "channel": 5,
      "note": 43,
      "start": 17.3062,
      "duration": 0.2515,
      "velocity": 127,
      "chip": "ym2612"
    },
    {
      "channel": 0,
      "note": 41,
      "start": 17.564,
      "duration": 0.2085,
      "velocity": 92,
      "chip": "ym2612"
    },
    {
      "channel": 5,
      "note": 117,
      "start": 17.5682,
      "duration": 0.2469,
      "velocity": 127,
      "chip": "ym2612"
    },
    {
      "channel": 5,
      "note": 117,
      "start": 17.8232,
      "duration": 0.249,
      "velocity": 127,
      "chip": "ym2612"
    },
    {
      "channel": 0,
      "note": 41,
      "start": 18.0785,
      "duration": 0.2048,
      "velocity": 92,
      "chip": "ym2612"
    },
    {
      "channel": 5,
      "note": 117,
      "start": 18.0825,
      "duration": 0.0554,
      "velocity": 127,
      "chip": "ym2612"
    },
    {
      "channel": 5,
      "note": 45,
      "start": 18.1503,
      "duration": 0.0478,
      "velocity": 127,
      "chip": "ym2612"
    },
    {
      "channel": 5,
      "note": 46,
      "start": 18.2024,
      "duration": 0.0538,
      "velocity": 127,
      "chip": "ym2612"
    },
    {
      "channel": 5,
      "note": 45,
      "start": 18.269,
      "duration": 0.055,
      "velocity": 127,
      "chip": "ym2612"
    },
    {
      "channel": 0,
      "note": 41,
      "start": 18.3412,
      "duration": 0.1722,
      "velocity": 92,
      "chip": "ym2612"
    },
    {
      "channel": 3,
      "note": 74,
      "start": 18.3428,
      "duration": 0.0989,
      "velocity": 89,
      "chip": "ym2612"
    },
    {
      "channel": 1,
      "note": 74,
      "start": 18.3446,
      "duration": 0.0973,
      "velocity": 85,
      "chip": "ym2612"
    },
    {
      "channel": 5,
      "note": 45,
      "start": 18.3473,
      "duration": 0.2553,
      "velocity": 127,
      "chip": "ym2612"
    },
    {
      "channel": 2,
      "note": 74,
      "start": 18.451,
      "duration": 0.1008,
      "velocity": 89,
      "chip": "ym2612"
    },
    {
      "channel": 3,
      "note": 70,
      "start": 18.4687,
      "duration": 0.0976,
      "velocity": 89,
      "chip": "ym2612"
    },
    {
      "channel": 1,
      "note": 70,
      "start": 18.4704,
      "duration": 0.0961,
      "velocity": 85,
      "chip": "ym2612"
    },
    {
      "channel": 2,
      "note": 70,
      "start": 18.5752,
      "duration": 0.103,
      "velocity": 89,
      "chip": "ym2612"
    },
    {
      "channel": 0,
      "note": 39,
      "start": 18.6108,
      "duration": 0.2144,
      "velocity": 92,
      "chip": "ym2612"
    },
    {
      "channel": 3,
      "note": 65,
      "start": 18.6122,
      "duration": 0.1223,
      "velocity": 89,
      "chip": "ym2612"
    },
    {
      "channel": 1,
      "note": 65,
      "start": 18.614,
      "duration": 0.1217,
      "velocity": 85,
      "chip": "ym2612"
    },
    {
      "channel": 5,
      "note": 117,
      "start": 18.6171,
      "duration": 0.2557,
      "velocity": 127,
      "chip": "ym2612"
    },
    {
      "channel": 2,
      "note": 65,
      "start": 18.7201,
      "duration": 0.1214,
      "velocity": 89,
      "chip": "ym2612"
    },
    {
      "channel": 3,
      "note": 70,
      "start": 18.7383,
      "duration": 0.1276,
      "velocity": 89,
      "chip": "ym2612"
    },
    {
      "channel": 1,
      "note": 70,
      "start": 18.7398,
      "duration": 0.1261,
      "velocity": 85,
      "chip": "ym2612"
    },
    {
      "channel": 2,
      "note": 70,
      "start": 18.8456,
      "duration": 0.1298,
      "velocity": 89,
      "chip": "ym2612"
    },
    {
      "channel": 3,
      "note": 70,
      "start": 18.88,
      "duration": 0.2536,
      "velocity": 89,
      "chip": "ym2612"
    },
    {
      "channel": 1,
      "note": 70,
      "start": 18.8819,
      "duration": 0.2518,
      "velocity": 85,
      "chip": "ym2612"
    },
    {
      "channel": 5,
      "note": 117,
      "start": 18.8846,
      "duration": 0.2503,
      "velocity": 127,
      "chip": "ym2612"
    },
    {
      "channel": 2,
      "note": 70,
      "start": 18.9893,
      "duration": 0.2406,
      "velocity": 89,
      "chip": "ym2612"
    },
    {
      "channel": 0,
      "note": 39,
      "start": 19.1432,
      "duration": 0.2134,
      "velocity": 92,
      "chip": "ym2612"
    },
    {
      "channel": 3,
      "note": 70,
      "start": 19.1446,
      "duration": 0.252,
      "velocity": 89,
      "chip": "ym2612"
    },
    {
      "channel": 1,
      "note": 70,
      "start": 19.1464,
      "duration": 0.2503,
      "velocity": 85,
      "chip": "ym2612"
    },
    {
      "channel": 5,
      "note": 117,
      "start": 19.1496,
      "duration": 0.0776,
      "velocity": 127,
      "chip": "ym2612"
    },
    {
      "channel": 2,
      "note": 70,
      "start": 19.2352,
      "duration": 0.2548,
      "velocity": 89,
      "chip": "ym2612"
    },
    {
      "channel": 5,
      "note": 43,
      "start": 19.237,
      "duration": 0.077,
      "velocity": 127,
      "chip": "ym2612"
    },
    {
      "channel": 5,
      "note": 43,
      "start": 19.3215,
      "duration": 0.0766,
      "velocity": 127,
      "chip": "ym2612"
    },
    {
      "channel": 0,
      "note": 39,
      "start": 19.4068,
      "duration": 0.1704,
      "velocity": 92,
      "chip": "ym2612"
    },
    {
      "channel": 3,
      "note": 74,
      "start": 19.4082,
      "duration": 0.11,
      "velocity": 89,
      "chip": "ym2612"
    },
    {
      "channel": 1,
      "note": 74,
      "start": 19.41,
      "duration": 0.1085,
      "velocity": 85,
      "chip": "ym2612"
    },
    {
      "channel": 5,
      "note": 43,
      "start": 19.4129,
      "duration": 0.2511,
      "velocity": 127,
      "chip": "ym2612"
    },
    {
      "channel": 2,
      "note": 74,
      "start": 19.4977,
      "duration": 0.1103,
      "velocity": 89,
      "chip": "ym2612"
    },
    {
      "channel": 3,
      "note": 72,
      "start": 19.5319,
      "duration": 0.1252,
      "velocity": 89,
      "chip": "ym2612"
    },
    {
      "channel": 1,
      "note": 72,
      "start": 19.5335,
      "duration": 0.1237,
      "velocity": 85,
      "chip": "ym2612"
    },
    {
      "channel": 2,
      "note": 72,
      "start": 19.6372,
      "duration": 0.1253,
      "velocity": 89,
      "chip": "ym2612"
    },
    {
      "channel": 0,
      "note": 39,
      "start": 19.6725,
      "duration": 0.2154,
      "velocity": 92,
      "chip": "ym2612"
    },
    {
      "channel": 3,
      "note": 72,
      "start": 19.6739,
      "duration": 0.2373,
      "velocity": 89,
      "chip": "ym2612"
    },
    {
      "channel": 1,
      "note": 72,
      "start": 19.6755,
      "duration": 0.2358,
      "velocity": 85,
      "chip": "ym2612"
    },
    {
      "channel": 5,
      "note": 117,
      "start": 19.6786,
      "duration": 0.2518,
      "velocity": 127,
      "chip": "ym2612"
    },
    {
      "channel": 2,
      "note": 72,
      "start": 19.7669,
      "duration": 0.2348,
      "velocity": 89,
      "chip": "ym2612"
    },
    {
      "channel": 3,
      "note": 72,
      "start": 19.9376,
      "duration": 0.2481,
      "velocity": 89,
      "chip": "ym2612"
    },
    {
      "channel": 1,
      "note": 72,
      "start": 19.9393,
      "duration": 0.2465,
      "velocity": 85,
      "chip": "ym2612"
    },
    {
      "channel": 5,
      "note": 117,
      "start": 19.9421,
      "duration": 0.2449,
      "velocity": 127,
      "chip": "ym2612"
    },
    {
      "channel": 2,
      "note": 72,
      "start": 20.0259,
      "duration": 0.2541,
      "velocity": 89,
      "chip": "ym2612"
    },
    {
      "channel": 0,
      "note": 39,
      "start": 20.1954,
      "duration": 0.221,
      "velocity": 92,
      "chip": "ym2612"
    },
    {
      "channel": 3,
      "note": 77,
      "start": 20.1969,
      "duration": 0.1116,
      "velocity": 89,
      "chip": "ym2612"
    },
    {
      "channel": 1,
      "note": 77,
      "start": 20.199,
      "duration": 0.1097,
      "velocity": 85,
      "chip": "ym2612"
    },
    {
      "channel": 5,
      "note": 117,
      "start": 20.2016,
      "duration": 0.0607,
      "velocity": 127,
      "chip": "ym2612"
    },
    {
      "channel": 5,
      "note": 45,
      "start": 20.2701,
      "duration": 0.0508,
      "velocity": 127,
      "chip": "ym2612"
    },
    {
      "channel": 2,
      "note": 77,
      "start": 20.2879,
      "duration": 0.1142,
      "velocity": 89,
      "chip": "ym2612"
    },
    {
      "channel": 3,
      "note": 75,
      "start": 20.323,
      "duration": 0.106,
      "velocity": 89,
      "chip": "ym2612"
    },
    {
      "channel": 1,
      "note": 75,
      "start": 20.3247,
      "duration": 0.1044,
      "velocity": 85,
      "chip": "ym2612"
    },
    {
      "channel": 5,
      "note": 46,
      "start": 20.3276,
      "duration": 0.057,
      "velocity": 127,
      "chip": "ym2612"
    },
    {
      "channel": 5,
      "note": 45,
      "start": 20.3972,
      "duration": 0.0616,
      "velocity": 127,
      "chip": "ym2612"
    },
    {
      "channel": 2,
      "note": 75,
      "start": 20.4311,
      "duration": 0.1131,
      "velocity": 89,
      "chip": "ym2612"
    },
    {
      "channel": 0,
      "note": 39,
      "start": 20.4691,
      "duration": 0.1688,
      "velocity": 92,
      "chip": "ym2612"
    },
    {
      "channel": 3,
      "note": 72,
      "start": 20.4708,
      "duration": 0.7671,
      "velocity": 89,
      "chip": "ym2612"
    },
    {
      "channel": 1,
      "note": 72,
      "start": 20.4725,
      "duration": 0.7655,
      "velocity": 85,
      "chip": "ym2612"
    },
    {
      "channel": 5,
      "note": 45,
      "start": 20.4754,
      "duration": 0.2499,
      "velocity": 127,
      "chip": "ym2612"
    },
    {
      "channel": 2,
      "note": 72,
      "start": 20.5621,
      "duration": 0.7703,
      "velocity": 89,
      "chip": "ym2612"
    },
    {
      "channel": 0,
      "note": 43,
      "start": 20.7325,
      "duration": 0.2087,
      "velocity": 92,
      "chip": "ym2612"
    },
    {
      "channel": 5,
      "note": 117,
      "start": 20.736,
      "duration": 0.2473,
      "velocity": 127,
      "chip": "ym2612"
    },
    {
      "channel": 5,
      "note": 117,
      "start": 20.9909,
      "duration": 0.2483,
      "velocity": 127,
      "chip": "ym2612"
    },
    {
      "channel": 0,
      "note": 43,
      "start": 21.2487,
      "duration": 0.2199,
      "velocity": 92,
      "chip": "ym2612"
    },
    {
      "channel": 3,
      "note": 74,
      "start": 21.2502,
      "duration": 0.1066,
      "velocity": 89,
      "chip": "ym2612"
    },
    {
      "channel": 1,
      "note": 74,
      "start": 21.2519,
      "duration": 0.105,
      "velocity": 85,
      "chip": "ym2612"
    },
    {
      "channel": 5,
      "note": 117,
      "start": 21.2547,
      "duration": 0.0777,
      "velocity": 127,
      "chip": "ym2612"
    },
    {
      "channel": 2,
      "note": 74,
      "start": 21.3401,
      "duration": 0.1088,
      "velocity": 89,
      "chip": "ym2612"
    },
    {
      "channel": 5,
      "note": 43,
      "start": 21.3418,
      "duration": 0.0818,
      "velocity": 127,
      "chip": "ym2612"
    },
    {
      "channel": 3,
      "note": 72,
      "start": 21.3753,
      "duration": 0.1118,
      "velocity": 89,
      "chip": "ym2612"
    },
    {
      "channel": 1,
      "note": 72,
      "start": 21.377,
      "duration": 0.1102,
      "velocity": 85,
      "chip": "ym2612"
    },
    {
      "channel": 5,
      "note": 43,
      "start": 21.4313,
      "duration": 0.0786,
      "velocity": 127,
      "chip": "ym2612"
    },
    {
      "channel": 2,
      "note": 72,
      "start": 21.4836,
      "duration": 0.1165,
      "velocity": 89,
      "chip": "ym2612"
    },
    {
      "channel": 0,
      "note": 43,
      "start": 21.5195,
      "duration": 0.1696,
      "velocity": 92,
      "chip": "ym2612"
    },
    {
      "channel": 3,
      "note": 74,
      "start": 21.5212,
      "duration": 0.3351,
      "velocity": 89,
      "chip": "ym2612"
    },
    {
      "channel": 1,
      "note": 74,
      "start": 21.5229,
      "duration": 0.3335,
      "velocity": 85,
      "chip": "ym2612"
    },
    {
      "channel": 5,
      "note": 43,
      "start": 21.526,
      "duration": 0.2513,
      "velocity": 127,
      "chip": "ym2612"
    },
    {
      "channel": 2,
      "note": 74,
      "start": 21.6133,
      "duration": 0.3327,
      "velocity": 89,
      "chip": "ym2612"
    },
    {
      "channel": 0,
      "note": 41,
      "start": 21.7846,
      "duration": 0.2052,
      "velocity": 92,
      "chip": "ym2612"
    },
    {
      "channel": 5,
      "note": 117,
      "start": 21.7881,
      "duration": 0.2491,
      "velocity": 127,
      "chip": "ym2612"
    },
    {
      "channel": 3,
      "note": 72,
      "start": 21.9045,
      "duration": 0.3289,
      "velocity": 89,
      "chip": "ym2612"
    },
    {
      "channel": 1,
      "note": 72,
      "start": 21.9062,
      "duration": 0.3273,
      "velocity": 85,
      "chip": "ym2612"
    },
    {
      "channel": 2,
      "note": 72,
      "start": 22.0101,
      "duration": 0.338,
      "velocity": 89,
      "chip": "ym2612"
    },
    {
      "channel": 5,
      "note": 117,
      "start": 22.0449,
      "duration": 0.2475,
      "velocity": 127,
      "chip": "ym2612"
    },
    {
      "channel": 0,
      "note": 41,
      "start": 22.3019,
      "duration": 0.2125,
      "velocity": 92,
      "chip": "ym2612"
    },
    {
      "channel": 3,
      "note": 70,
      "start": 22.3034,
      "duration": 0.2059,
      "velocity": 89,
      "chip": "ym2612"
    },
    {
      "channel": 1,
      "note": 70,
      "start": 22.3051,
      "duration": 0.2043,
      "velocity": 85,
      "chip": "ym2612"
    },
    {
      "channel": 5,
      "note": 117,
      "start": 22.3081,
      "duration": 0.0485,
      "velocity": 127,
      "chip": "ym2612"
    },
    {
      "channel": 5,
      "note": 46,
      "start": 22.361,
      "duration": 0.0628,
      "velocity": 127,
      "chip": "ym2612"
    },
    {
      "channel": 2,
      "note": 70,
      "start": 22.3952,
      "duration": 0.211,
      "velocity": 89,
      "chip": "ym2612"
    },
    {
      "channel": 5,
      "note": 45,
      "start": 22.432,
      "duration": 0.055,
      "velocity": 127,
      "chip": "ym2612"
    },
    {
      "channel": 5,
      "note": 45,
      "start": 22.5011,
      "duration": 0.0539,
      "velocity": 127,
      "chip": "ym2612"
    },
    {
      "channel": 0,
      "note": 41,
      "start": 22.5723,
      "duration": 0.172,
      "velocity": 92,
      "chip": "ym2612"
    },
    {
      "channel": 3,
      "note": 65,
      "start": 22.5739,
      "duration": 0.1013,
      "velocity": 89,
      "chip": "ym2612"
    },
    {
      "channel": 1,
      "note": 65,
      "start": 22.5757,
      "duration": 0.0998,
      "velocity": 85,
      "chip": "ym2612"
    },
    {
      "channel": 5,
      "note": 45,
      "start": 22.5784,
      "duration": 0.2545,
      "velocity": 127,
      "chip": "ym2612"
    },
    {
      "channel": 2,
      "note": 65,
      "start": 22.6666,
      "duration": 0.0984,
      "velocity": 89,
      "chip": "ym2612"
    },
    {
      "channel": 3,
      "note": 70,
      "start": 22.7002,
      "duration": 0.0967,
      "velocity": 89,
      "chip": "ym2612"
    },
    {
      "channel": 1,
      "note": 70,
      "start": 22.7019,
      "duration": 0.0951,
      "velocity": 85,
      "chip": "ym2612"
    },
    {
      "channel": 2,
      "note": 70,
      "start": 22.8059,
      "duration": 0.1033,
      "velocity": 89,
      "chip": "ym2612"
    },
    {
      "channel": 0,
      "note": 39,
      "start": 22.8415,
      "duration": 0.22,
      "velocity": 92,
      "chip": "ym2612"
    },
    {
      "channel": 3,
      "note": 65,
      "start": 22.8429,
      "duration": 0.1251,
      "velocity": 89,
      "chip": "ym2612"
    },
    {
      "channel": 1,
      "note": 65,
      "start": 22.8446,
      "duration": 0.1244,
      "velocity": 85,
      "chip": "ym2612"
    },
    {
      "channel": 5,
      "note": 117,
      "start": 22.8478,
      "duration": 0.2563,
      "velocity": 127,
      "chip": "ym2612"
    },
    {
      "channel": 2,
      "note": 65,
      "start": 22.9353,
      "duration": 0.1282,
      "velocity": 89,
      "chip": "ym2612"
    },
    {
      "channel": 3,
      "note": 70,
      "start": 22.9717,
      "duration": 0.1247,
      "velocity": 89,
      "chip": "ym2612"
    },
    {
      "channel": 1,
      "note": 70,
      "start": 22.9732,
      "duration": 0.1232,
      "velocity": 85,
      "chip": "ym2612"
    },
    {
      "channel": 2,
      "note": 70,
      "start": 23.0771,
      "duration": 0.1221,
      "velocity": 89,
      "chip": "ym2612"
    },
    {
      "channel": 3,
      "note": 70,
      "start": 23.112,
      "duration": 0.2532,
      "velocity": 89,
      "chip": "ym2612"
    },
    {
      "channel": 1,
      "note": 70,
      "start": 23.1136,
      "duration": 0.2517,
      "velocity": 85,
      "chip": "ym2612"
    },
    {
      "channel": 5,
      "note": 117,
      "start": 23.1168,
      "duration": 0.2497,
      "velocity": 127,
      "chip": "ym2612"
    },
    {
      "channel": 2,
      "note": 70,
      "start": 23.2039,
      "duration": 0.2543,
      "velocity": 89,
      "chip": "ym2612"
    },
    {
      "channel": 0,
      "note": 39,
      "start": 23.3751,
      "duration": 0.2134,
      "velocity": 92,
      "chip": "ym2612"
    },
    {
      "channel": 3,
      "note": 70,
      "start": 23.3766,
      "duration": 0.2514,
      "velocity": 89,
      "chip": "ym2612"
    },
    {
      "channel": 1,
      "note": 70,
      "start": 23.3784,
      "duration": 0.2497,
      "velocity": 85,
      "chip": "ym2612"
    },
    {
      "channel": 5,
      "note": 117,
      "start": 23.3817,
      "duration": 0.0766,
      "velocity": 127,
      "chip": "ym2612"
    },
    {
      "channel": 2,
      "note": 70,
      "start": 23.467,
      "duration": 0.2553,
      "velocity": 89,
      "chip": "ym2612"
    },
    {
      "channel": 5,
      "note": 43,
      "start": 23.4687,
      "duration": 0.0772,
      "velocity": 127,
      "chip": "ym2612"
    },
    {
      "channel": 5,
      "note": 43,
      "start": 23.5537,
      "duration": 0.0756,
      "velocity": 127,
      "chip": "ym2612"
    },
    {
      "channel": 0,
      "note": 39,
      "start": 23.639,
      "duration": 0.1715,
      "velocity": 92,
      "chip": "ym2612"
    },
    {
      "channel": 3,
      "note": 74,
      "start": 23.6404,
      "duration": 0.1107,
      "velocity": 89,
      "chip": "ym2612"
    },
    {
      "channel": 1,
      "note": 74,
      "start": 23.6421,
      "duration": 0.1092,
      "velocity": 85,
      "chip": "ym2612"
    },
    {
      "channel": 5,
      "note": 43,
      "start": 23.6451,
      "duration": 0.2544,
      "velocity": 127,
      "chip": "ym2612"
    },
    {
      "channel": 2,
      "note": 74,
      "start": 23.7301,
      "duration": 0.1141,
      "velocity": 89,
      "chip": "ym2612"
    },
    {
      "channel": 3,
      "note": 72,
      "start": 23.7646,
      "duration": 0.1233,
      "velocity": 89,
      "chip": "ym2612"
    },
    {
      "channel": 1,
      "note": 72,
      "start": 23.7662,
      "duration": 0.1218,
      "velocity": 85,
      "chip": "ym2612"
    },
    {
      "channel": 2,
      "note": 72,
      "start": 23.8733,
      "duration": 0.1217,
      "velocity": 89,
      "chip": "ym2612"
    },
    {
      "channel": 0,
      "note": 39,
      "start": 23.908,
      "duration": 0.2193,
      "velocity": 92,
      "chip": "ym2612"
    },
    {
      "channel": 3,
      "note": 72,
      "start": 23.9095,
      "duration": 0.1242,
      "velocity": 89,
      "chip": "ym2612"
    },
    {
      "channel": 1,
      "note": 72,
      "start": 23.9111,
      "duration": 0.1237,
      "velocity": 85,
      "chip": "ym2612"
    },
    {
      "channel": 5,
      "note": 117,
      "start": 23.914,
      "duration": 0.2542,
      "velocity": 127,
      "chip": "ym2612"
    },
    {
      "channel": 2,
      "note": 72,
      "start": 24.0002,
      "duration": 0.1289,
      "velocity": 89,
      "chip": "ym2612"
    },
    {
      "channel": 3,
      "note": 72,
      "start": 24.0374,
      "duration": 0.0949,
      "velocity": 89,
      "chip": "ym2612"
    },
    {
      "channel": 1,
      "note": 72,
      "start": 24.0392,
      "duration": 0.0932,
      "velocity": 85,
      "chip": "ym2612"
    },
    {
      "channel": 2,
      "note": 72,
      "start": 24.1411,
      "duration": 0.1019,
      "velocity": 89,
      "chip": "ym2612"
    },
    {
      "channel": 3,
      "note": 70,
      "start": 24.1759,
      "duration": 0.5221,
      "velocity": 89,
      "chip": "ym2612"
    },
    {
      "channel": 1,
      "note": 70,
      "start": 24.1774,
      "duration": 0.5218,
      "velocity": 85,
      "chip": "ym2612"
    },
    {
      "channel": 5,
      "note": 117,
      "start": 24.1801,
      "duration": 0.2507,
      "velocity": 127,
      "chip": "ym2612"
    },
    {
      "channel": 2,
      "note": 70,
      "start": 24.2676,
      "duration": 0.5272,
      "velocity": 89,
      "chip": "ym2612"
    },
    {
      "channel": 0,
      "note": 39,
      "start": 24.4379,
      "duration": 0.2137,
      "velocity": 92,
      "chip": "ym2612"
    },
    {
      "channel": 5,
      "note": 117,
      "start": 24.4415,
      "duration": 0.0475,
      "velocity": 127,
      "chip": "ym2612"
    },
    {
      "channel": 5,
      "note": 46,
      "start": 24.4934,
      "duration": 0.0551,
      "velocity": 127,
      "chip": "ym2612"
    },
    {
      "channel": 5,
      "note": 45,
      "start": 24.5624,
      "duration": 0.061,
      "velocity": 127,
      "chip": "ym2612"
    },
    {
      "channel": 5,
      "note": 45,
      "start": 24.6316,
      "duration": 0.0624,
      "velocity": 127,
      "chip": "ym2612"
    },
    {
      "channel": 0,
      "note": 39,
      "start": 24.7057,
      "duration": 0.1699,
      "velocity": 92,
      "chip": "ym2612"
    },
    {
      "channel": 3,
      "note": 72,
      "start": 24.7073,
      "duration": 2.0715,
      "velocity": 89,
      "chip": "ym2612"
    },
    {
      "channel": 1,
      "note": 72,
      "start": 24.7091,
      "duration": 2.0712,
      "velocity": 85,
      "chip": "ym2612"
    },
    {
      "channel": 4,
      "note": 77,
      "start": 24.7108,
      "duration": 0.099,
      "velocity": 85,
      "chip": "ym2612"
    },
    {
      "channel": 5,
      "note": 45,
      "start": 24.7133,
      "duration": 0.249,
      "velocity": 127,
      "chip": "ym2612"
    },
    {
      "channel": 2,
      "note": 72,
      "start": 24.7997,
      "duration": 2.0891,
      "velocity": 89,
      "chip": "ym2612"
    },
    {
      "channel": 4,
      "note": 70,
      "start": 24.8345,
      "duration": 0.0987,
      "velocity": 85,
      "chip": "ym2612"
    },
    {
      "channel": 0,
      "note": 38,
      "start": 24.9704,
      "duration": 0.2125,
      "velocity": 92,
      "chip": "ym2612"
    },
    {
      "channel": 4,
      "note": 65,
      "start": 24.9729,
      "duration": 0.1193,
      "velocity": 85,
      "chip": "ym2612"
    },
    {
      "channel": 5,
      "note": 117,
      "start": 24.9751,
      "duration": 0.2504,
      "velocity": 127,
      "chip": "ym2612"
    },
    {
      "channel": 4,
      "note": 70,
      "start": 25.0959,
      "duration": 0.123,
      "velocity": 85,
      "chip": "ym2612"
    },
    {
      "channel": 4,
      "note": 70,
      "start": 25.2338,
      "duration": 0.2483,
      "velocity": 85,
      "chip": "ym2612"
    },
    {
      "channel": 5,
      "note": 117,
      "start": 25.2361,
      "duration": 0.2467,
      "velocity": 127,
      "chip": "ym2612"
    },
    {
      "channel": 0,
      "note": 38,
      "start": 25.4905,
      "duration": 0.2129,
      "velocity": 92,
      "chip": "ym2612"
    },
    {
      "channel": 4,
      "note": 70,
      "start": 25.493,
      "duration": 0.252,
      "velocity": 85,
      "chip": "ym2612"
    },
    {
      "channel": 5,
      "note": 117,
      "start": 25.4953,
      "duration": 0.0793,
      "velocity": 127,
      "chip": "ym2612"
    },
    {
      "channel": 5,
      "note": 43,
      "start": 25.5827,
      "duration": 0.0773,
      "velocity": 127,
      "chip": "ym2612"
    },
    {
      "channel": 5,
      "note": 43,
      "start": 25.6679,
      "duration": 0.0777,
      "velocity": 127,
      "chip": "ym2612"
    },
    {
      "channel": 0,
      "note": 38,
      "start": 25.7543,
      "duration": 0.1666,
      "velocity": 92,
      "chip": "ym2612"
    },
    {
      "channel": 4,
      "note": 74,
      "start": 25.757,
      "duration": 0.1031,
      "velocity": 85,
      "chip": "ym2612"
    },
    {
      "channel": 5,
      "note": 43,
      "start": 25.7591,
      "duration": 0.2398,
      "velocity": 127,
      "chip": "ym2612"
    },
    {
      "channel": 4,
      "note": 72,
      "start": 25.8787,
      "duration": 0.1172,
      "velocity": 85,
      "chip": "ym2612"
    },
    {
      "channel": 0,
      "note": 38,
      "start": 26.0005,
      "duration": 0.2119,
      "velocity": 92,
      "chip": "ym2612"
    },
    {
      "channel": 4,
      "note": 72,
      "start": 26.0032,
      "duration": 0.1257,
      "velocity": 85,
      "chip": "ym2612"
    },
    {
      "channel": 5,
      "note": 22,
      "start": 26.0052,
      "duration": 0.2494,
      "velocity": 127,
      "chip": "ym2612"
    },
    {
      "channel": 4,
      "note": 72,
      "start": 26.1416,
      "duration": 0.0949,
      "velocity": 85,
      "chip": "ym2612"
    },
    {
      "channel": 4,
      "note": 70,
      "start": 26.2628,
      "duration": 0.2482,
      "velocity": 85,
      "chip": "ym2612"
    },
    {
      "channel": 5,
      "note": 117,
      "start": 26.2654,
      "duration": 0.2463,
      "velocity": 127,
      "chip": "ym2612"
    },
    {
      "channel": 0,
      "note": 38,
      "start": 26.5196,
      "duration": 0.2149,
      "velocity": 92,
      "chip": "ym2612"
    },
    {
      "channel": 4,
      "note": 70,
      "start": 26.5222,
      "duration": 0.2518,
      "velocity": 85,
      "chip": "ym2612"
    },
    {
      "channel": 5,
      "note": 117,
      "start": 26.5246,
      "duration": 0.0622,
      "velocity": 127,
      "chip": "ym2612"
    },
    {
      "channel": 5,
      "note": 45,
      "start": 26.5937,
      "duration": 0.0567,
      "velocity": 127,
      "chip": "ym2612"
    },
    {
      "channel": 5,
      "note": 45,
      "start": 26.6627,
      "duration": 0.0554,
      "velocity": 127,
      "chip": "ym2612"
    },
    {
      "channel": 5,
      "note": 45,
      "start": 26.732,
      "duration": 0.0538,
      "velocity": 127,
      "chip": "ym2612"
    },
    {
      "channel": 0,
      "note": 38,
      "start": 26.7873,
      "duration": 0.1739,
      "velocity": 92,
      "chip": "ym2612"
    },
    {
      "channel": 3,
      "note": 74,
      "start": 26.7899,
      "duration": 0.111,
      "velocity": 97,
      "chip": "ym2612"
    },
    {
      "channel": 1,
      "note": 74,
      "start": 26.7916,
      "duration": 0.1094,
      "velocity": 85,
      "chip": "ym2612"
    },
    {
      "channel": 4,
      "note": 74,
      "start": 26.7934,
      "duration": 0.1079,
      "velocity": 85,
      "chip": "ym2612"
    },
    {
      "channel": 5,
      "note": 46,
      "start": 26.7958,
      "duration": 0.2539,
      "velocity": 127,
      "chip": "ym2612"
    },
    {
      "channel": 2,
      "note": 74,
      "start": 26.8971,
      "duration": 0.1128,
      "velocity": 97,
      "chip": "ym2612"
    },
    {
      "channel": 3,
      "note": 85,
      "start": 26.9313,
      "duration": 0.099,
      "velocity": 97,
      "chip": "ym2612"
    },
    {
      "channel": 1,
      "note": 73,
      "start": 26.933,
      "duration": 0.0975,
      "velocity": 85,
      "chip": "ym2612"
    },
    {
      "channel": 4,
      "note": 73,
      "start": 26.9347,
      "duration": 0.0959,
      "velocity": 85,
      "chip": "ym2612"
    },
    {
      "channel": 2,
      "note": 85,
      "start": 27.0386,
      "duration": 0.1075,
      "velocity": 97,
      "chip": "ym2612"
    },
    {
      "channel": 0,
      "note": 42,
      "start": 27.0595,
      "duration": 0.2168,
      "velocity": 92,
      "chip": "ym2612"
    },
    {
      "channel": 3,
      "note": 80,
      "start": 27.0609,
      "duration": 0.1305,
      "velocity": 97,
      "chip": "ym2612"
    },
    {
      "channel": 1,
      "note": 68,
      "start": 27.0626,
      "duration": 0.1289,
      "velocity": 85,
      "chip": "ym2612"
    },
    {
      "channel": 4,
      "note": 68,
      "start": 27.0647,
      "duration": 0.1271,
      "velocity": 85,
      "chip": "ym2612"
    },
    {
      "channel": 5,
      "note": 117,
      "start": 27.0668,
      "duration": 0.2518,
      "velocity": 127,
      "chip": "ym2612"
    },
    {
      "channel": 2,
      "note": 80,
      "start": 27.1711,
      "duration": 0.1238,
      "velocity": 97,
      "chip": "ym2612"
    },
    {
      "channel": 3,
      "note": 85,
      "start": 27.2058,
      "duration": 0.1151,
      "velocity": 97,
      "chip": "ym2612"
    },
    {
      "channel": 1,
      "note": 73,
      "start": 27.2074,
      "duration": 0.1146,
      "velocity": 85,
      "chip": "ym2612"
    },
    {
      "channel": 4,
      "note": 73,
      "start": 27.2089,
      "duration": 0.1142,
      "velocity": 85,
      "chip": "ym2612"
    },
    {
      "channel": 2,
      "note": 85,
      "start": 27.3082,
      "duration": 0.1218,
      "velocity": 97,
      "chip": "ym2612"
    },
    {
      "channel": 3,
      "note": 85,
      "start": 27.3274,
      "duration": 0.2518,
      "velocity": 97,
      "chip": "ym2612"
    },
    {
      "channel": 1,
      "note": 73,
      "start": 27.329,
      "duration": 0.2504,
      "velocity": 85,
      "chip": "ym2612"
    },
    {
      "channel": 4,
      "note": 73,
      "start": 27.3305,
      "duration": 0.249,
      "velocity": 85,
      "chip": "ym2612"
    },
    {
      "channel": 5,
      "note": 117,
      "start": 27.3329,
      "duration": 0.2473,
      "velocity": 127,
      "chip": "ym2612"
    },
    {
      "channel": 2,
      "note": 85,
      "start": 27.4341,
      "duration": 0.2562,
      "velocity": 97,
      "chip": "ym2612"
    },
    {
      "channel": 0,
      "note": 42,
      "start": 27.5904,
      "duration": 0.212,
      "velocity": 92,
      "chip": "ym2612"
    },
    {
      "channel": 3,
      "note": 85,
      "start": 27.5919,
      "duration": 0.2504,
      "velocity": 97,
      "chip": "ym2612"
    },
    {
      "channel": 1,
      "note": 73,
      "start": 27.5937,
      "duration": 0.2488,
      "velocity": 85,
      "chip": "ym2612"
    },
    {
      "channel": 4,
      "note": 73,
      "start": 27.5954,
      "duration": 0.2471,
      "velocity": 85,
      "chip": "ym2612"
    },
    {
      "channel": 5,
      "note": 117,
      "start": 27.598,
      "duration": 0.0747,
      "velocity": 127,
      "chip": "ym2612"
    },
    {
      "channel": 5,
      "note": 43,
      "start": 27.6804,
      "duration": 0.0781,
      "velocity": 127,
      "chip": "ym2612"
    },
    {
      "channel": 2,
      "note": 85,
      "start": 27.6977,
      "duration": 0.2547,
      "velocity": 97,
      "chip": "ym2612"
    },
    {
      "channel": 5,
      "note": 43,
      "start": 27.7664,
      "duration": 0.0768,
      "velocity": 127,
      "chip": "ym2612"
    },
    {
      "channel": 0,
      "note": 42,
      "start": 27.8537,
      "duration": 0.1679,
      "velocity": 92,
      "chip": "ym2612"
    },
    {
      "channel": 3,
      "note": 89,
      "start": 27.8551,
      "duration": 0.1248,
      "velocity": 97,
      "chip": "ym2612"
    },
    {
      "channel": 1,
      "note": 77,
      "start": 27.8568,
      "duration": 0.1232,
      "velocity": 85,
      "chip": "ym2612"
    },
    {
      "channel": 4,
      "note": 77,
      "start": 27.8585,
      "duration": 0.1217,
      "velocity": 85,
      "chip": "ym2612"
    },
    {
      "channel": 5,
      "note": 43,
      "start": 27.8608,
      "duration": 0.2465,
      "velocity": 127,
      "chip": "ym2612"
    },
    {
      "channel": 2,
      "note": 89,
      "start": 27.9595,
      "duration": 0.1165,
      "velocity": 97,
      "chip": "ym2612"
    },
    {
      "channel": 3,
      "note": 87,
      "start": 27.9946,
      "duration": 0.1158,
      "velocity": 97,
      "chip": "ym2612"
    },
    {
      "channel": 1,
      "note": 75,
      "start": 27.9962,
      "duration": 0.1153,
      "velocity": 85,
      "chip": "ym2612"
    },
    {
      "channel": 4,
      "note": 75,
      "start": 27.998,
      "duration": 0.1145,
      "velocity": 85,
      "chip": "ym2612"
    },
    {
      "channel": 2,
      "note": 87,
      "start": 28.0799,
      "duration": 0.1302,
      "velocity": 97,
      "chip": "ym2612"
    },
    {
      "channel": 0,
      "note": 42,
      "start": 28.1173,
      "duration": 0.2167,
      "velocity": 92,
      "chip": "ym2612"
    },
    {
      "channel": 3,
      "note": 87,
      "start": 28.1188,
      "duration": 0.1246,
      "velocity": 97,
      "chip": "ym2612"
    },
    {
      "channel": 1,
      "note": 75,
      "start": 28.1204,
      "duration": 0.1232,
      "velocity": 85,
      "chip": "ym2612"
    },
    {
      "channel": 4,
      "note": 75,
      "start": 28.122,
      "duration": 0.1218,
      "velocity": 85,
      "chip": "ym2612"
    },
    {
      "channel": 5,
      "note": 117,
      "start": 28.1241,
      "duration": 0.252,
      "velocity": 127,
      "chip": "ym2612"
    },
    {
      "channel": 2,
      "note": 87,
      "start": 28.2232,
      "duration": 0.1218,
      "velocity": 97,
      "chip": "ym2612"
    },
    {
      "channel": 3,
      "note": 87,
      "start": 28.258,
      "duration": 0.1055,
      "velocity": 97,
      "chip": "ym2612"
    },
    {
      "channel": 1,
      "note": 75,
      "start": 28.2598,
      "duration": 0.1039,
      "velocity": 85,
      "chip": "ym2612"
    },
    {
      "channel": 4,
      "note": 75,
      "start": 28.2615,
      "duration": 0.1023,
      "velocity": 85,
      "chip": "ym2612"
    },
    {
      "channel": 2,
      "note": 87,
      "start": 28.3494,
      "duration": 0.1063,
      "velocity": 97,
      "chip": "ym2612"
    },
    {
      "channel": 3,
      "note": 85,
      "start": 28.385,
      "duration": 0.2178,
      "velocity": 97,
      "chip": "ym2612"
    },
    {
      "channel": 1,
      "note": 73,
      "start": 28.3866,
      "duration": 0.2164,
      "velocity": 85,
      "chip": "ym2612"
    },
    {
      "channel": 4,
      "note": 73,
      "start": 28.3881,
      "duration": 0.215,
      "velocity": 85,
      "chip": "ym2612"
    },
    {
      "channel": 5,
      "note": 117,
      "start": 28.3901,
      "duration": 0.249,
      "velocity": 127,
      "chip": "ym2612"
    },
    {
      "channel": 2,
      "note": 85,
      "start": 28.4918,
      "duration": 0.2336,
      "velocity": 97,
      "chip": "ym2612"
    },
    {
      "channel": 0,
      "note": 42,
      "start": 28.6492,
      "duration": 0.2115,
      "velocity": 92,
      "chip": "ym2612"
    },
    {
      "channel": 3,
      "note": 85,
      "start": 28.6507,
      "duration": 0.2551,
      "velocity": 97,
      "chip": "ym2612"
    },
    {
      "channel": 1,
      "note": 73,
      "start": 28.6524,
      "duration": 0.2536,
      "velocity": 85,
      "chip": "ym2612"
    },
    {
      "channel": 4,
      "note": 73,
      "start": 28.6541,
      "duration": 0.2521,
      "velocity": 85,
      "chip": "ym2612"
    },
    {
      "channel": 5,
      "note": 117,
      "start": 28.6563,
      "duration": 0.0571,
      "velocity": 127,
      "chip": "ym2612"
    },
    {
      "channel": 5,
      "note": 45,
      "start": 28.7263,
      "duration": 0.0568,
      "velocity": 127,
      "chip": "ym2612"
    },
    {
      "channel": 2,
      "note": 85,
      "start": 28.7605,
      "duration": 0.2613,
      "velocity": 97,
      "chip": "ym2612"
    },
    {
      "channel": 5,
      "note": 45,
      "start": 28.7951,
      "duration": 0.0613,
      "velocity": 127,
      "chip": "ym2612"
    },
    {
      "channel": 5,
      "note": 45,
      "start": 28.8637,
      "duration": 0.0538,
      "velocity": 127,
      "chip": "ym2612"
    },
    {
      "channel": 0,
      "note": 42,
      "start": 28.919,
      "duration": 0.1751,
      "velocity": 92,
      "chip": "ym2612"
    },
    {
      "channel": 3,
      "note": 87,
      "start": 28.9215,
      "duration": 0.1053,
      "velocity": 98,
      "chip": "ym2612"
    },
    {
      "channel": 1,
      "note": 75,
      "start": 28.9234,
      "duration": 0.1036,
      "velocity": 85,
      "chip": "ym2612"
    },
    {
      "channel": 4,
      "note": 75,
      "start": 28.9251,
      "duration": 0.102,
      "velocity": 85,
      "chip": "ym2612"
    },
    {
      "channel": 5,
      "note": 46,
      "start": 28.9274,
      "duration": 0.2553,
      "velocity": 127,
      "chip": "ym2612"
    },
    {
      "channel": 2,
      "note": 87,
      "start": 29.0291,
      "duration": 0.108,
      "velocity": 98,
      "chip": "ym2612"
    },
    {
      "channel": 3,
      "note": 97,
      "start": 29.0645,
      "duration": 0.0992,
      "velocity": 98,
      "chip": "ym2612"
    },
    {
      "channel": 1,
      "note": 73,
      "start": 29.0662,
      "duration": 0.0976,
      "velocity": 85,
      "chip": "ym2612"
    },
    {
      "channel": 4,
      "note": 73,
      "start": 29.0679,
      "duration": 0.0961,
      "velocity": 85,
      "chip": "ym2612"
    },
    {
      "channel": 2,
      "note": 97,
      "start": 29.1553,
      "duration": 0.1066,
      "velocity": 98,
      "chip": "ym2612"
    },
    {
      "channel": 0,
      "note": 44,
      "start": 29.1924,
      "duration": 0.212,
      "velocity": 92,
      "chip": "ym2612"
    },
    {
      "channel": 3,
      "note": 92,
      "start": 29.1939,
      "duration": 0.1253,
      "velocity": 98,
      "chip": "ym2612"
    },
    {
      "channel": 1,
      "note": 68,
      "start": 29.1956,
      "duration": 0.1236,
      "velocity": 85,
      "chip": "ym2612"
    },
    {
      "channel": 4,
      "note": 68,
      "start": 29.1973,
      "duration": 0.1221,
      "velocity": 85,
      "chip": "ym2612"
    },
    {
      "channel": 5,
      "note": 117,
      "start": 29.1998,
      "duration": 0.2513,
      "velocity": 127,
      "chip": "ym2612"
    },
    {
      "channel": 2,
      "note": 92,
      "start": 29.304,
      "duration": 0.1164,
      "velocity": 98,
      "chip": "ym2612"
    },
    {
      "channel": 3,
      "note": 97,
      "start": 29.3387,
      "duration": 0.1146,
      "velocity": 98,
      "chip": "ym2612"
    },
    {
      "channel": 1,
      "note": 73,
      "start": 29.3404,
      "duration": 0.1141,
      "velocity": 85,
      "chip": "ym2612"
    },
    {
      "channel": 4,
      "note": 73,
      "start": 29.342,
      "duration": 0.1137,
      "velocity": 85,
      "chip": "ym2612"
    },
    {
      "channel": 2,
      "note": 97,
      "start": 29.4246,
      "duration": 0.1294,
      "velocity": 98,
      "chip": "ym2612"
    },
    {
      "channel": 3,
      "note": 97,
      "start": 29.4598,
      "duration": 0.2523,
      "velocity": 98,
      "chip": "ym2612"
    },
    {
      "channel": 1,
      "note": 73,
      "start": 29.4615,
      "duration": 0.2507,
      "velocity": 85,
      "chip": "ym2612"
    },
    {
      "channel": 4,
      "note": 73,
      "start": 29.4631,
      "duration": 0.2494,
      "velocity": 85,
      "chip": "ym2612"
    },
    {
      "channel": 5,
      "note": 117,
      "start": 29.4655,
      "duration": 0.2476,
      "velocity": 127,
      "chip": "ym2612"
    },
    {
      "channel": 2,
      "note": 97,
      "start": 29.5671,
      "duration": 0.2562,
      "velocity": 98,
      "chip": "ym2612"
    },
    {
      "channel": 0,
      "note": 44,
      "start": 29.7232,
      "duration": 0.212,
      "velocity": 92,
      "chip": "ym2612"
    },
    {
      "channel": 3,
      "note": 97,
      "start": 29.7247,
      "duration": 0.2504,
      "velocity": 98,
      "chip": "ym2612"
    },
    {
      "channel": 1,
      "note": 73,
      "start": 29.7266,
      "duration": 0.2487,
      "velocity": 85,
      "chip": "ym2612"
    },
    {
      "channel": 4,
      "note": 73,
      "start": 29.7284,
      "duration": 0.2471,
      "velocity": 85,
      "chip": "ym2612"
    },
    {
      "channel": 5,
      "note": 117,
      "start": 29.7307,
      "duration": 0.0749,
      "velocity": 127,
      "chip": "ym2612"
    },
    {
      "channel": 5,
      "note": 43,
      "start": 29.8133,
      "duration": 0.0782,
      "velocity": 127,
      "chip": "ym2612"
    },
    {
      "channel": 2,
      "note": 97,
      "start": 29.8305,
      "duration": 0.2548,
      "velocity": 98,
      "chip": "ym2612"
    },
    {
      "channel": 5,
      "note": 43,
      "start": 29.8993,
      "duration": 0.0768,
      "velocity": 127,
      "chip": "ym2612"
    },
    {
      "channel": 0,
      "note": 44,
      "start": 29.9865,
      "duration": 0.1684,
      "velocity": 92,
      "chip": "ym2612"
    },
    {
      "channel": 3,
      "note": 101,
      "start": 29.9879,
      "duration": 0.1249,
      "velocity": 98,
      "chip": "ym2612"
    },
    {
      "channel": 1,
      "note": 77,
      "start": 29.9897,
      "duration": 0.1234,
      "velocity": 85,
      "chip": "ym2612"
    },
    {
      "channel": 4,
      "note": 77,
      "start": 29.9914,
      "duration": 0.1218,
      "velocity": 85,
      "chip": "ym2612"
    },
    {
      "channel": 5,
      "note": 43,
      "start": 29.9936,
      "duration": 0.2466,
      "velocity": 127,
      "chip": "ym2612"
    },
    {
      "channel": 2,
      "note": 101,
      "start": 30.0924,
      "duration": 0.1173,
      "velocity": 98,
      "chip": "ym2612"
    },
    {
      "channel": 3,
      "note": 99,
      "start": 30.1276,
      "duration": 0.1157,
      "velocity": 98,
      "chip": "ym2612"
    },
    {
      "channel": 1,
      "note": 75,
      "start": 30.1294,
      "duration": 0.1151,
      "velocity": 85,
      "chip": "ym2612"
    },
    {
      "channel": 4,
      "note": 75,
      "start": 30.1312,
      "duration": 0.1144,
      "velocity": 85,
      "chip": "ym2612"
    },
    {
      "channel": 2,
      "note": 99,
      "start": 30.2137,
      "duration": 0.1351,
      "velocity": 98,
      "chip": "ym2612"
    },
    {
      "channel": 0,
      "note": 44,
      "start": 30.2503,
      "duration": 0.2218,
      "velocity": 92,
      "chip": "ym2612"
    },
    {
      "channel": 3,
      "note": 99,
      "start": 30.2518,
      "duration": 0.1306,
      "velocity": 98,
      "chip": "ym2612"
    },
    {
      "channel": 1,
      "note": 75,
      "start": 30.2535,
      "duration": 0.129,
      "velocity": 85,
      "chip": "ym2612"
    },
    {
      "channel": 4,
      "note": 75,
      "start": 30.2551,
      "duration": 0.1276,
      "velocity": 85,
      "chip": "ym2612"
    },
    {
      "channel": 5,
      "note": 117,
      "start": 30.2572,
      "duration": 0.2578,
      "velocity": 127,
      "chip": "ym2612"
    },
    {
      "channel": 2,
      "note": 99,
      "start": 30.3623,
      "duration": 0.1217,
      "velocity": 98,
      "chip": "ym2612"
    },
    {
      "channel": 3,
      "note": 99,
      "start": 30.3965,
      "duration": 0.1002,
      "velocity": 98,
      "chip": "ym2612"
    },
    {
      "channel": 1,
      "note": 75,
      "start": 30.3986,
      "duration": 0.0983,
      "velocity": 85,
      "chip": "ym2612"
    },
    {
      "channel": 4,
      "note": 75,
      "start": 30.4004,
      "duration": 0.0966,
      "velocity": 85,
      "chip": "ym2612"
    },
    {
      "channel": 2,
      "note": 99,
      "start": 30.4881,
      "duration": 0.1004,
      "velocity": 98,
      "chip": "ym2612"
    },
    {
      "channel": 3,
      "note": 97,
      "start": 30.5236,
      "duration": 0.2235,
      "velocity": 98,
      "chip": "ym2612"
    },
    {
      "channel": 1,
      "note": 73,
      "start": 30.5252,
      "duration": 0.2221,
      "velocity": 85,
      "chip": "ym2612"
    },
    {
      "channel": 4,
      "note": 73,
      "start": 30.5267,
      "duration": 0.221,
      "velocity": 85,
      "chip": "ym2612"
    },
    {
      "channel": 5,
      "note": 117,
      "start": 30.5288,
      "duration": 0.2489,
      "velocity": 127,
      "chip": "ym2612"
    },
    {
      "channel": 2,
      "note": 97,
      "start": 30.6313,
      "duration": 0.2321,
      "velocity": 98,
      "chip": "ym2612"
    },
    {
      "channel": 0,
      "note": 44,
      "start": 30.7879,
      "duration": 0.217,
      "velocity": 92,
      "chip": "ym2612"
    },
    {
      "channel": 3,
      "note": 97,
      "start": 30.7893,
      "duration": 0.2551,
      "velocity": 98,
      "chip": "ym2612"
    },
    {
      "channel": 1,
      "note": 73,
      "start": 30.7911,
      "duration": 0.2534,
      "velocity": 85,
      "chip": "ym2612"
    },
    {
      "channel": 4,
      "note": 73,
      "start": 30.7928,
      "duration": 0.252,
      "velocity": 85,
      "chip": "ym2612"
    },
    {
      "channel": 5,
      "note": 117,
      "start": 30.795,
      "duration": 0.0628,
      "velocity": 127,
      "chip": "ym2612"
    },
    {
      "channel": 5,
      "note": 45,
      "start": 30.8647,
      "duration": 0.0573,
      "velocity": 127,
      "chip": "ym2612"
    },
    {
      "channel": 2,
      "note": 97,
      "start": 30.9002,
      "duration": 0.2612,
      "velocity": 98,
      "chip": "ym2612"
    },
    {
      "channel": 5,
      "note": 45,
      "start": 30.9341,
      "duration": 0.0481,
      "velocity": 127,
      "chip": "ym2612"
    },
    {
      "channel": 5,
      "note": 46,
      "start": 30.9863,
      "duration": 0.0591,
      "velocity": 127,
      "chip": "ym2612"
    },
    {
      "channel": 0,
      "note": 44,
      "start": 31.0571,
      "duration": 0.116,
      "velocity": 92,
      "chip": "ym2612"
    },
    {
      "channel": 3,
      "note": 99,
      "start": 31.0588,
      "duration": 4.1827,
      "velocity": 98,
      "chip": "ym2612"
    },
    {
      "channel": 1,
      "note": 75,
      "start": 31.0605,
      "duration": 4.1812,
      "velocity": 85,
      "chip": "ym2612"
    },
    {
      "channel": 4,
      "note": 75,
      "start": 31.0622,
      "duration": 4.1796,
      "velocity": 85,
      "chip": "ym2612"
    },
    {
      "channel": 5,
      "note": 45,
      "start": 31.0659,
      "duration": 0.0777,
      "velocity": 92,
      "chip": "ym2612"
    },
    {
      "channel": 5,
      "note": 46,
      "start": 31.1516,
      "duration": 0.0778,
      "velocity": 92,
      "chip": "ym2612"
    },
    {
      "channel": 2,
      "note": 99,
      "start": 31.1694,
      "duration": 4.0795,
      "velocity": 98,
      "chip": "ym2612"
    },
    {
      "channel": 0,
      "note": 46,
      "start": 31.2013,
      "duration": 0.1002,
      "velocity": 92,
      "chip": "ym2612"
    },
    {
      "channel": 5,
      "note": 46,
      "start": 31.2374,
      "duration": 0.078,
      "velocity": 92,
      "chip": "ym2612"
    },
    {
      "channel": 0,
      "note": 46,
      "start": 31.3225,
      "duration": 0.1217,
      "velocity": 92,
      "chip": "ym2612"
    },
    {
      "channel": 5,
      "note": 46,
      "start": 31.326,
      "duration": 0.5039,
      "velocity": 92,
      "chip": "ym2612"
    },
    {
      "channel": 0,
      "note": 46,
      "start": 31.8372,
      "duration": 0.2188,
      "velocity": 92,
      "chip": "ym2612"
    },
    {
      "channel": 5,
      "note": 46,
      "start": 31.8409,
      "duration": 0.252,
      "velocity": 92,
      "chip": "ym2612"
    },
    {
      "channel": 0,
      "note": 46,
      "start": 32.1002,
      "duration": 0.1275,
      "velocity": 92,
      "chip": "ym2612"
    },
    {
      "channel": 5,
      "note": 46,
      "start": 32.104,
      "duration": 0.2525,
      "velocity": 92,
      "chip": "ym2612"
    },
    {
      "channel": 0,
      "note": 46,
      "start": 32.3633,
      "duration": 0.1273,
      "velocity": 92,
      "chip": "ym2612"
    },
    {
      "channel": 5,
      "note": 46,
      "start": 32.3671,
      "duration": 0.2524,
      "velocity": 92,
      "chip": "ym2612"
    },
    {
      "channel": 0,
      "note": 46,
      "start": 32.6267,
      "duration": 0.1327,
      "velocity": 92,
      "chip": "ym2612"
    },
    {
      "channel": 5,
      "note": 46,
      "start": 32.6304,
      "duration": 0.1663,
      "velocity": 92,
      "chip": "ym2612"
    },
    {
      "channel": 0,
      "note": 41,
      "start": 32.8039,
      "duration": 0.1332,
      "velocity": 92,
      "chip": "ym2612"
    },
    {
      "channel": 5,
      "note": 41,
      "start": 32.8075,
      "duration": 0.166,
      "velocity": 92,
      "chip": "ym2612"
    },
    {
      "channel": 0,
      "note": 41,
      "start": 32.9802,
      "duration": 0.1337,
      "velocity": 92,
      "chip": "ym2612"
    },
    {
      "channel": 5,
      "note": 41,
      "start": 32.9843,
      "duration": 0.1667,
      "velocity": 92,
      "chip": "ym2612"
    },
    {
      "channel": 0,
      "note": 41,
      "start": 33.1584,
      "duration": 0.2529,
      "velocity": 92,
      "chip": "ym2612"
    },
    {
      "channel": 5,
      "note": 41,
      "start": 33.1627,
      "duration": 0.5084,
      "velocity": 92,
      "chip": "ym2612"
    },
    {
      "channel": 0,
      "note": 46,
      "start": 33.678,
      "duration": 0.2259,
      "velocity": 92,
      "chip": "ym2612"
    },
    {
      "channel": 5,
      "note": 46,
      "start": 33.683,
      "duration": 0.2512,
      "velocity": 92,
      "chip": "ym2612"
    },
    {
      "channel": 0,
      "note": 41,
      "start": 33.9412,
      "duration": 0.2534,
      "velocity": 92,
      "chip": "ym2612"
    },
    {
      "channel": 5,
      "note": 41,
      "start": 33.9451,
      "duration": 0.51,
      "velocity": 92,
      "chip": "ym2612"
    },
    {
      "channel": 0,
      "note": 46,
      "start": 34.4619,
      "duration": 0.1273,
      "velocity": 92,
      "chip": "ym2612"
    },
    {
      "channel": 5,
      "note": 46,
      "start": 34.4657,
      "duration": 0.2526,
      "velocity": 92,
      "chip": "ym2612"
    },
    {
      "channel": 0,
      "note": 46,
      "start": 34.7253,
      "duration": 0.1388,
      "velocity": 92,
      "chip": "ym2612"
    },
    {
      "channel": 5,
      "note": 46,
      "start": 34.729,
      "duration": 0.2529,
      "velocity": 92,
      "chip": "ym2612"
    },
    {
      "channel": 0,
      "note": 41,
      "start": 34.9012,
      "duration": 0.1367,
      "velocity": 92,
      "chip": "ym2612"
    },
    {
      "channel": 5,
      "note": 41,
      "start": 34.9903,
      "duration": 0.0763,
      "velocity": 92,
      "chip": "ym2612"
    },
    {
      "channel": 0,
      "note": 41,
      "start": 35.0734,
      "duration": 0.1413,
      "velocity": 92,
      "chip": "ym2612"
    },
    {
      "channel": 5,
      "note": 41,
      "start": 35.0773,
      "duration": 0.081,
      "velocity": 92,
      "chip": "ym2612"
    },
    {
      "channel": 5,
      "note": 41,
      "start": 35.1664,
      "duration": 0.0763,
      "velocity": 92,
      "chip": "ym2612"
    },
    {
      "channel": 0,
      "note": 41,
      "start": 35.2543,
      "duration": 0.2155,
      "velocity": 92,
      "chip": "ym2612"
    },
    {
      "channel": 1,
      "note": 77,
      "start": 35.2574,
      "duration": 0.2877,
      "velocity": 101,
      "chip": "ym2612"
    },
    {
      "channel": 4,
      "note": 74,
      "start": 35.2602,
      "duration": 0.2851,
      "velocity": 101,
      "chip": "ym2612"
    },
    {
      "channel": 2,
      "note": 101,
      "start": 35.2629,
      "duration": 0.2826,
      "velocity": 101,
      "chip": "ym2612"
    },
    {
      "channel": 5,
      "note": 41,
      "start": 35.265,
      "duration": 1.0302,
      "velocity": 92,
      "chip": "ym2612"
    },
    {
      "channel": 3,
      "note": 101,
      "start": 35.7798,
      "duration": 0.519,
      "velocity": 101,
      "chip": "ym2612"
    },
    {
      "channel": 1,
      "note": 94,
      "start": 35.7829,
      "duration": 0.0779,
      "velocity": 85,
      "chip": "ym2612"
    },
    {
      "channel": 4,
      "note": 89,
      "start": 35.7856,
      "duration": 0.0753,
      "velocity": 85,
      "chip": "ym2612"
    },
    {
      "channel": 1,
      "note": 70,
      "start": 35.8699,
      "duration": 0.0812,
      "velocity": 85,
      "chip": "ym2612"
    },
    {
      "channel": 4,
      "note": 46,
      "start": 35.8716,
      "duration": 0.0797,
      "velocity": 85,
      "chip": "ym2612"
    },
    {
      "channel": 2,
      "note": 86,
      "start": 35.8923,
      "duration": 0.521,
      "velocity": 101,
      "chip": "ym2612"
    },
    {
      "channel": 1,
      "note": 71,
      "start": 35.9602,
      "duration": 0.0767,
      "velocity": 85,
      "chip": "ym2612"
    },
    {
      "channel": 4,
      "note": 47,
      "start": 35.9619,
      "duration": 0.0751,
      "velocity": 85,
      "chip": "ym2612"
    },
    {
      "channel": 1,
      "note": 74,
      "start": 36.0458,
      "duration": 0.0768,
      "velocity": 85,
      "chip": "ym2612"
    },
    {
      "channel": 4,
      "note": 50,
      "start": 36.0478,
      "duration": 0.0749,
      "velocity": 85,
      "chip": "ym2612"
    },
    {
      "channel": 1,
      "note": 75,
      "start": 36.1319,
      "duration": 0.0765,
      "velocity": 85,
      "chip": "ym2612"
    },
    {
      "channel": 4,
      "note": 51,
      "start": 36.1336,
      "duration": 0.0749,
      "velocity": 85,
      "chip": "ym2612"
    },
    {
      "channel": 1,
      "note": 74,
      "start": 36.2176,
      "duration": 0.0768,
      "velocity": 85,
      "chip": "ym2612"
    },
    {
      "channel": 4,
      "note": 50,
      "start": 36.2193,
      "duration": 0.0752,
      "velocity": 85,
      "chip": "ym2612"
    },
    {
      "channel": 0,
      "note": 46,
      "start": 36.3068,
      "duration": 0.318,
      "velocity": 92,
      "chip": "ym2612"
    },
    {
      "channel": 3,
      "note": 71,
      "start": 36.3083,
      "duration": 0.209,
      "velocity": 101,
      "chip": "ym2612"
    },
    {
      "channel": 1,
      "note": 71,
      "start": 36.31,
      "duration": 0.2529,
      "velocity": 85,
      "chip": "ym2612"
    },
    {
      "channel": 4,
      "note": 47,
      "start": 36.3117,
      "duration": 0.2514,
      "velocity": 85,
      "chip": "ym2612"
    },
    {
      "channel": 5,
      "note": 46,
      "start": 36.314,
      "duration": 1.0225,
      "velocity": 92,
      "chip": "ym2612"
    },
    {
      "channel": 2,
      "note": 71,
      "start": 36.4183,
      "duration": 0.2084,
      "velocity": 101,
      "chip": "ym2612"
    }
  ]
}