{
  "track_name": "19 - PS1 Dungeon Arrange 1",
  "duration_sec": 58.499,
  "sample_rate": 44100,
  "note_count": 1462,
  "unique_pitches": 47,
  "pitch_range": 56,
  "avg_note_duration": 0.1685,
  "reconstruction_stats": {
    "notes_reconstructed": 1462,
    "keyon_events": 1462,
    "keyoff_events": 1455,
    "orphan_keyons": 4,
    "unique_pitches": 47,
    "pitch_range": 56,
    "avg_duration_sec": 0.1685
  },
  "metadata": {
    "source": "P\\Phantasy Star IV\\19 - PS1 Dungeon Arrange 1.vgm"
  },
  "notes": [
    {
      "channel": 0,
      "note": 95,
      "start": 0.0,
      "duration": 0.0439,
      "velocity": 110,
      "chip": "ym2612"
    },
    {
      "channel": 2,
      "note": 92,
      "start": 0.0017,
      "duration": 0.0059,
      "velocity": 98,
      "chip": "ym2612"
    },
    {
      "channel": 3,
      "note": 80,
      "start": 0.0027,
      "duration": 0.042,
      "velocity": 110,
      "chip": "ym2612"
    },
    {
      "channel": 4,
      "note": 56,
      "start": 0.0038,
      "duration": 0.158,
      "velocity": 110,
      "chip": "ym2612"
    },
    {
      "channel": 1,
      "note": 95,
      "start": 0.0075,
      "duration": 0.1533,
      "velocity": 110,
      "chip": "ym2612"
    },
    {
      "channel": 2,
      "note": 92,
      "start": 0.0078,
      "duration": 0.0365,
      "velocity": 98,
      "chip": "ym2612"
    },
    {
      "channel": 0,
      "note": 94,
      "start": 0.0441,
      "duration": 0.1165,
      "velocity": 110,
      "chip": "ym2612"
    },
    {
      "channel": 2,
      "note": 104,
      "start": 0.0446,
      "duration": 0.1165,
      "velocity": 98,
      "chip": "ym2612"
    },
    {
      "channel": 3,
      "note": 79,
      "start": 0.0449,
      "duration": 0.1166,
      "velocity": 110,
      "chip": "ym2612"
    },
    {
      "channel": 0,
      "note": 95,
      "start": 0.1608,
      "duration": 0.1001,
      "velocity": 110,
      "chip": "ym2612"
    },
    {
      "channel": 1,
      "note": 94,
      "start": 0.1611,
      "duration": 0.1001,
      "velocity": 110,
      "chip": "ym2612"
    },
    {
      "channel": 2,
      "note": 104,
      "start": 0.1614,
      "duration": 0.1,
      "velocity": 98,
      "chip": "ym2612"
    },
    {
      "channel": 3,
      "note": 80,
      "start": 0.1617,
      "duration": 0.1,
      "velocity": 110,
      "chip": "ym2612"
    },
    {
      "channel": 4,
      "note": 51,
      "start": 0.162,
      "duration": 0.1002,
      "velocity": 110,
      "chip": "ym2612"
    },
    {
      "channel": 0,
      "note": 99,
      "start": 0.2611,
      "duration": 0.011,
      "velocity": 110,
      "chip": "ym2612"
    },
    {
      "channel": 1,
      "note": 95,
      "start": 0.2614,
      "duration": 0.0061,
      "velocity": 110,
      "chip": "ym2612"
    },
    {
      "channel": 2,
      "note": 92,
      "start": 0.2617,
      "duration": 0.006,
      "velocity": 98,
      "chip": "ym2612"
    },
    {
      "channel": 3,
      "note": 83,
      "start": 0.2619,
      "duration": 0.011,
      "velocity": 110,
      "chip": "ym2612"
    },
    {
      "channel": 1,
      "note": 99,
      "start": 0.2677,
      "duration": 0.0108,
      "velocity": 110,
      "chip": "ym2612"
    },
    {
      "channel": 2,
      "note": 92,
      "start": 0.268,
      "duration": 0.0046,
      "velocity": 98,
      "chip": "ym2612"
    },
    {
      "channel": 4,
      "note": 56,
      "start": 0.2682,
      "duration": 0.005,
      "velocity": 110,
      "chip": "ym2612"
    },
    {
      "channel": 0,
      "note": 97,
      "start": 0.2724,
      "duration": 0.0058,
      "velocity": 110,
      "chip": "ym2612"
    },
    {
      "channel": 2,
      "note": 104,
      "start": 0.2729,
      "duration": 0.0059,
      "velocity": 98,
      "chip": "ym2612"
    },
    {
      "channel": 3,
      "note": 82,
      "start": 0.2732,
      "duration": 0.0059,
      "velocity": 110,
      "chip": "ym2612"
    },
    {
      "channel": 0,
      "note": 95,
      "start": 0.2784,
      "duration": 0.0058,
      "velocity": 110,
      "chip": "ym2612"
    },
    {
      "channel": 1,
      "note": 97,
      "start": 0.2787,
      "duration": 0.006,
      "velocity": 110,
      "chip": "ym2612"
    },
    {
      "channel": 2,
      "note": 104,
      "start": 0.279,
      "duration": 0.006,
      "velocity": 98,
      "chip": "ym2612"
    },
    {
      "channel": 3,
      "note": 80,
      "start": 0.2792,
      "duration": 0.006,
      "velocity": 110,
      "chip": "ym2612"
    },
    {
      "channel": 4,
      "note": 54,
      "start": 0.2795,
      "duration": 0.0059,
      "velocity": 110,
      "chip": "ym2612"
    },
    {
      "channel": 0,
      "note": 97,
      "start": 0.2846,
      "duration": 0.0285,
      "velocity": 110,
      "chip": "ym2612"
    },
    {
      "channel": 1,
      "note": 95,
      "start": 0.2848,
      "duration": 0.0049,
      "velocity": 110,
      "chip": "ym2612"
    },
    {
      "channel": 2,
      "note": 92,
      "start": 0.2851,
      "duration": 0.0049,
      "velocity": 98,
      "chip": "ym2612"
    },
    {
      "channel": 3,
      "note": 82,
      "start": 0.2854,
      "duration": 0.0618,
      "velocity": 110,
      "chip": "ym2612"
    },
    {
      "channel": 1,
      "note": 97,
      "start": 0.2899,
      "duration": 0.1234,
      "velocity": 110,
      "chip": "ym2612"
    },
    {
      "channel": 2,
      "note": 92,
      "start": 0.2902,
      "duration": 0.0566,
      "velocity": 98,
      "chip": "ym2612"
    },
    {
      "channel": 4,
      "note": 55,
      "start": 0.2906,
      "duration": 0.0569,
      "velocity": 110,
      "chip": "ym2612"
    },
    {
      "channel": 0,
      "note": 97,
      "start": 0.3466,
      "duration": 0.1,
      "velocity": 110,
      "chip": "ym2612"
    },
    {
      "channel": 2,
      "note": 104,
      "start": 0.3471,
      "duration": 0.1,
      "velocity": 98,
      "chip": "ym2612"
    },
    {
      "channel": 3,
      "note": 82,
      "start": 0.3474,
      "duration": 0.1,
      "velocity": 110,
      "chip": "ym2612"
    },
    {
      "channel": 4,
      "note": 56,
      "start": 0.3477,
      "duration": 0.1055,
      "velocity": 110,
      "chip": "ym2612"
    },
    {
      "channel": 0,
      "note": 94,
      "start": 0.4468,
      "duration": 0.0054,
      "velocity": 110,
      "chip": "ym2612"
    },
    {
      "channel": 1,
      "note": 97,
      "start": 0.4471,
      "duration": 0.0052,
      "velocity": 110,
      "chip": "ym2612"
    },
    {
      "channel": 2,
      "note": 104,
      "start": 0.4474,
      "duration": 0.0052,
      "velocity": 98,
      "chip": "ym2612"
    },
    {
      "channel": 3,
      "note": 78,
      "start": 0.4476,
      "duration": 0.0054,
      "velocity": 110,
      "chip": "ym2612"
    },
    {
      "channel": 1,
      "note": 94,
      "start": 0.4525,
      "duration": 0.0045,
      "velocity": 110,
      "chip": "ym2612"
    },
    {
      "channel": 2,
      "note": 92,
      "start": 0.4529,
      "duration": 0.0041,
      "velocity": 98,
      "chip": "ym2612"
    },
    {
      "channel": 4,
      "note": 68,
      "start": 0.4534,
      "duration": 0.0042,
      "velocity": 110,
      "chip": "ym2612"
    },
    {
      "channel": 0,
      "note": 95,
      "start": 0.4569,
      "duration": 0.0046,
      "velocity": 110,
      "chip": "ym2612"
    },
    {
      "channel": 2,
      "note": 92,
      "start": 0.4573,
      "duration": 0.0047,
      "velocity": 98,
      "chip": "ym2612"
    },
    {
      "channel": 3,
      "note": 80,
      "start": 0.4576,
      "duration": 0.0048,
      "velocity": 110,
      "chip": "ym2612"
    },
    {
      "channel": 0,
      "note": 94,
      "start": 0.4617,
      "duration": 0.005,
      "velocity": 110,
      "chip": "ym2612"
    },
    {
      "channel": 1,
      "note": 95,
      "start": 0.462,
      "duration": 0.005,
      "velocity": 110,
      "chip": "ym2612"
    },
    {
      "channel": 2,
      "note": 104,
      "start": 0.4623,
      "duration": 0.0049,
      "velocity": 98,
      "chip": "ym2612"
    },
    {
      "channel": 3,
      "note": 78,
      "start": 0.4625,
      "duration": 0.0051,
      "velocity": 110,
      "chip": "ym2612"
    },
    {
      "channel": 4,
      "note": 56,
      "start": 0.4627,
      "duration": 0.0052,
      "velocity": 110,
      "chip": "ym2612"
    },
    {
      "channel": 0,
      "note": 92,
      "start": 0.4669,
      "duration": 0.0406,
      "velocity": 110,
      "chip": "ym2612"
    },
    {
      "channel": 1,
      "note": 94,
      "start": 0.4672,
      "duration": 0.0407,
      "velocity": 110,
      "chip": "ym2612"
    },
    {
      "channel": 2,
      "note": 104,
      "start": 0.4675,
      "duration": 0.0406,
      "velocity": 98,
      "chip": "ym2612"
    },
    {
      "channel": 3,
      "note": 76,
      "start": 0.4678,
      "duration": 0.0406,
      "velocity": 110,
      "chip": "ym2612"
    },
    {
      "channel": 4,
      "note": 63,
      "start": 0.468,
      "duration": 0.0406,
      "velocity": 110,
      "chip": "ym2612"
    },
    {
      "channel": 0,
      "note": 95,
      "start": 0.5078,
      "duration": 0.0615,
      "velocity": 110,
      "chip": "ym2612"
    },
    {
      "channel": 1,
      "note": 92,
      "start": 0.5081,
      "duration": 0.0053,
      "velocity": 110,
      "chip": "ym2612"
    },
    {
      "channel": 2,
      "note": 92,
      "start": 0.5084,
      "duration": 0.0052,
      "velocity": 98,
      "chip": "ym2612"
    },
    {
      "channel": 3,
      "note": 80,
      "start": 0.5086,
      "duration": 0.0614,
      "velocity": 110,
      "chip": "ym2612"
    },
    {
      "channel": 1,
      "note": 95,
      "start": 0.5135,
      "duration": 0.1727,
      "velocity": 110,
      "chip": "ym2612"
    },
    {
      "channel": 2,
      "note": 92,
      "start": 0.5138,
      "duration": 0.0559,
      "velocity": 98,
      "chip": "ym2612"
    },
    {
      "channel": 4,
      "note": 66,
      "start": 0.5141,
      "duration": 0.0562,
      "velocity": 110,
      "chip": "ym2612"
    },
    {
      "channel": 0,
      "note": 94,
      "start": 0.5694,
      "duration": 0.1165,
      "velocity": 110,
      "chip": "ym2612"
    },
    {
      "channel": 2,
      "note": 104,
      "start": 0.57,
      "duration": 0.1165,
      "velocity": 98,
      "chip": "ym2612"
    },
    {
      "channel": 3,
      "note": 79,
      "start": 0.5703,
      "duration": 0.1165,
      "velocity": 110,
      "chip": "ym2612"
    },
    {
      "channel": 4,
      "note": 67,
      "start": 0.5705,
      "duration": 0.1166,
      "velocity": 110,
      "chip": "ym2612"
    },
    {
      "channel": 0,
      "note": 95,
      "start": 0.6861,
      "duration": 0.1001,
      "velocity": 110,
      "chip": "ym2612"
    },
    {
      "channel": 1,
      "note": 94,
      "start": 0.6864,
      "duration": 0.1001,
      "velocity": 110,
      "chip": "ym2612"
    },
    {
      "channel": 2,
      "note": 104,
      "start": 0.6867,
      "duration": 0.1,
      "velocity": 98,
      "chip": "ym2612"
    },
    {
      "channel": 3,
      "note": 80,
      "start": 0.6871,
      "duration": 0.1,
      "velocity": 110,
      "chip": "ym2612"
    },
    {
      "channel": 0,
      "note": 99,
      "start": 0.7864,
      "duration": 0.0116,
      "velocity": 110,
      "chip": "ym2612"
    },
    {
      "channel": 1,
      "note": 95,
      "start": 0.7867,
      "duration": 0.0062,
      "velocity": 110,
      "chip": "ym2612"
    },
    {
      "channel": 2,
      "note": 92,
      "start": 0.7871,
      "duration": 0.0061,
      "velocity": 98,
      "chip": "ym2612"
    },
    {
      "channel": 3,
      "note": 83,
      "start": 0.7872,
      "duration": 0.0115,
      "velocity": 110,
      "chip": "ym2612"
    },
    {
      "channel": 4,
      "note": 68,
      "start": 0.7876,
      "duration": 0.0059,
      "velocity": 110,
      "chip": "ym2612"
    },
    {
      "channel": 1,
      "note": 99,
      "start": 0.7931,
      "duration": 0.0105,
      "velocity": 110,
      "chip": "ym2612"
    },
    {
      "channel": 2,
      "note": 92,
      "start": 0.7934,
      "duration": 0.005,
      "velocity": 98,
      "chip": "ym2612"
    },
    {
      "channel": 4,
      "note": 63,
      "start": 0.7936,
      "duration": 0.0054,
      "velocity": 110,
      "chip": "ym2612"
    },
    {
      "channel": 0,
      "note": 97,
      "start": 0.7982,
      "duration": 0.0052,
      "velocity": 110,
      "chip": "ym2612"
    },
    {
      "channel": 2,
      "note": 104,
      "start": 0.7987,
      "duration": 0.0052,
      "velocity": 98,
      "chip": "ym2612"
    },
    {
      "channel": 3,
      "note": 82,
      "start": 0.799,
      "duration": 0.0051,
      "velocity": 110,
      "chip": "ym2612"
    },
    {
      "channel": 0,
      "note": 95,
      "start": 0.8035,
      "duration": 0.0065,
      "velocity": 110,
      "chip": "ym2612"
    },
    {
      "channel": 1,
      "note": 97,
      "start": 0.8038,
      "duration": 0.0065,
      "velocity": 110,
      "chip": "ym2612"
    },
    {
      "channel": 2,
      "note": 104,
      "start": 0.8041,
      "duration": 0.0066,
      "velocity": 98,
      "chip": "ym2612"
    },
    {
      "channel": 3,
      "note": 81,
      "start": 0.8043,
      "duration": 0.0067,
      "velocity": 110,
      "chip": "ym2612"
    },
    {
      "channel": 4,
      "note": 68,
      "start": 0.8046,
      "duration": 0.0067,
      "velocity": 110,
      "chip": "ym2612"
    },
    {
      "channel": 0,
      "note": 97,
      "start": 0.8103,
      "duration": 0.0622,
      "velocity": 110,
      "chip": "ym2612"
    },
    {
      "channel": 1,
      "note": 95,
      "start": 0.8106,
      "duration": 0.0049,
      "velocity": 110,
      "chip": "ym2612"
    },
    {
      "channel": 2,
      "note": 92,
      "start": 0.811,
      "duration": 0.0048,
      "velocity": 98,
      "chip": "ym2612"
    },
    {
      "channel": 3,
      "note": 80,
      "start": 0.8112,
      "duration": 0.062,
      "velocity": 110,
      "chip": "ym2612"
    },
    {
      "channel": 1,
      "note": 97,
      "start": 0.8157,
      "duration": 0.1571,
      "velocity": 110,
      "chip": "ym2612"
    },
    {
      "channel": 2,
      "note": 92,
      "start": 0.816,
      "duration": 0.0568,
      "velocity": 98,
      "chip": "ym2612"
    },
    {
      "channel": 4,
      "note": 56,
      "start": 0.8163,
      "duration": 0.0572,
      "velocity": 110,
      "chip": "ym2612"
    },
    {
      "channel": 0,
      "note": 97,
      "start": 0.8727,
      "duration": 0.1057,
      "velocity": 110,
      "chip": "ym2612"
    },
    {
      "channel": 2,
      "note": 104,
      "start": 0.8732,
      "duration": 0.0998,
      "velocity": 98,
      "chip": "ym2612"
    },
    {
      "channel": 3,
      "note": 80,
      "start": 0.8734,
      "duration": 0.1056,
      "velocity": 110,
      "chip": "ym2612"
    },
    {
      "channel": 1,
      "note": 97,
      "start": 0.9729,
      "duration": 0.0103,
      "velocity": 110,
      "chip": "ym2612"
    },
    {
      "channel": 2,
      "note": 104,
      "start": 0.9732,
      "duration": 0.0055,
      "velocity": 98,
      "chip": "ym2612"
    },
    {
      "channel": 4,
      "note": 66,
      "start": 0.9735,
      "duration": 0.0058,
      "velocity": 110,
      "chip": "ym2612"
    },
    {
      "channel": 0,
      "note": 94,
      "start": 0.9786,
      "duration": 0.0093,
      "velocity": 110,
      "chip": "ym2612"
    },
    {
      "channel": 2,
      "note": 92,
      "start": 0.979,
      "duration": 0.0045,
      "velocity": 98,
      "chip": "ym2612"
    },
    {
      "channel": 3,
      "note": 78,
      "start": 0.9792,
      "duration": 0.0095,
      "velocity": 110,
      "chip": "ym2612"
    },
    {
      "channel": 1,
      "note": 94,
      "start": 0.9833,
      "duration": 0.0107,
      "velocity": 110,
      "chip": "ym2612"
    },
    {
      "channel": 2,
      "note": 92,
      "start": 0.9837,
      "duration": 0.0047,
      "velocity": 98,
      "chip": "ym2612"
    },
    {
      "channel": 4,
      "note": 68,
      "start": 0.984,
      "duration": 0.0049,
      "velocity": 110,
      "chip": "ym2612"
    },
    {
      "channel": 0,
      "note": 97,
      "start": 0.9882,
      "duration": 0.0623,
      "velocity": 110,
      "chip": "ym2612"
    },
    {
      "channel": 2,
      "note": 104,
      "start": 0.9887,
      "duration": 0.0056,
      "velocity": 98,
      "chip": "ym2612"
    },
    {
      "channel": 3,
      "note": 77,
      "start": 0.9889,
      "duration": 0.0623,
      "velocity": 110,
      "chip": "ym2612"
    },
    {
      "channel": 4,
      "note": 66,
      "start": 0.9892,
      "duration": 0.0622,
      "velocity": 110,
      "chip": "ym2612"
    },
    {
      "channel": 1,
      "note": 97,
      "start": 0.9942,
      "duration": 0.0622,
      "velocity": 110,
      "chip": "ym2612"
    },
    {
      "channel": 2,
      "note": 104,
      "start": 0.9945,
      "duration": 0.0564,
      "velocity": 98,
      "chip": "ym2612"
    },
    {
      "channel": 0,
      "note": 92,
      "start": 1.0507,
      "duration": 0.4779,
      "velocity": 110,
      "chip": "ym2612"
    },
    {
      "channel": 2,
      "note": 92,
      "start": 1.0511,
      "duration": 0.0055,
      "velocity": 98,
      "chip": "ym2612"
    },
    {
      "channel": 3,
      "note": 76,
      "start": 1.0513,
      "duration": 0.478,
      "velocity": 110,
      "chip": "ym2612"
    },
    {
      "channel": 4,
      "note": 51,
      "start": 1.0515,
      "duration": 0.0054,
      "velocity": 110,
      "chip": "ym2612"
    },
    {
      "channel": 1,
      "note": 92,
      "start": 1.0565,
      "duration": 0.4784,
      "velocity": 110,
      "chip": "ym2612"
    },
    {
      "channel": 2,
      "note": 92,
      "start": 1.0569,
      "duration": 0.0556,
      "velocity": 98,
      "chip": "ym2612"
    },
    {
      "channel": 2,
      "note": 104,
      "start": 1.1127,
      "duration": 0.1164,
      "velocity": 98,
      "chip": "ym2612"
    },
    {
      "channel": 4,
      "note": 54,
      "start": 1.113,
      "duration": 0.1165,
      "velocity": 110,
      "chip": "ym2612"
    },
    {
      "channel": 2,
      "note": 104,
      "start": 1.2295,
      "duration": 0.1001,
      "velocity": 98,
      "chip": "ym2612"
    },
    {
      "channel": 4,
      "note": 56,
      "start": 1.2298,
      "duration": 0.1001,
      "velocity": 110,
      "chip": "ym2612"
    },
    {
      "channel": 2,
      "note": 92,
      "start": 1.3298,
      "duration": 0.0047,
      "velocity": 98,
      "chip": "ym2612"
    },
    {
      "channel": 2,
      "note": 92,
      "start": 1.3348,
      "duration": 0.0054,
      "velocity": 98,
      "chip": "ym2612"
    },
    {
      "channel": 4,
      "note": 56,
      "start": 1.3351,
      "duration": 0.0055,
      "velocity": 110,
      "chip": "ym2612"
    },
    {
      "channel": 2,
      "note": 104,
      "start": 1.3405,
      "duration": 0.0046,
      "velocity": 98,
      "chip": "ym2612"
    },
    {
      "channel": 2,
      "note": 104,
      "start": 1.3453,
      "duration": 0.0068,
      "velocity": 98,
      "chip": "ym2612"
    },
    {
      "channel": 4,
      "note": 54,
      "start": 1.3456,
      "duration": 0.0068,
      "velocity": 110,
      "chip": "ym2612"
    },
    {
      "channel": 2,
      "note": 92,
      "start": 1.3524,
      "duration": 0.0044,
      "velocity": 98,
      "chip": "ym2612"
    },
    {
      "channel": 2,
      "note": 92,
      "start": 1.3571,
      "duration": 0.0567,
      "velocity": 98,
      "chip": "ym2612"
    },
    {
      "channel": 4,
      "note": 55,
      "start": 1.3573,
      "duration": 0.0569,
      "velocity": 110,
      "chip": "ym2612"
    },
    {
      "channel": 2,
      "note": 104,
      "start": 1.4141,
      "duration": 0.0999,
      "velocity": 98,
      "chip": "ym2612"
    },
    {
      "channel": 4,
      "note": 56,
      "start": 1.4144,
      "duration": 0.1046,
      "velocity": 110,
      "chip": "ym2612"
    },
    {
      "channel": 2,
      "note": 104,
      "start": 1.5143,
      "duration": 0.0044,
      "velocity": 98,
      "chip": "ym2612"
    },
    {
      "channel": 2,
      "note": 92,
      "start": 1.519,
      "duration": 0.0048,
      "velocity": 98,
      "chip": "ym2612"
    },
    {
      "channel": 4,
      "note": 68,
      "start": 1.5191,
      "duration": 0.005,
      "velocity": 110,
      "chip": "ym2612"
    },
    {
      "channel": 2,
      "note": 92,
      "start": 1.524,
      "duration": 0.0051,
      "velocity": 98,
      "chip": "ym2612"
    },
    {
      "channel": 0,
      "note": 90,
      "start": 1.5288,
      "duration": 0.0059,
      "velocity": 110,
      "chip": "ym2612"
    },
    {
      "channel": 2,
      "note": 104,
      "start": 1.5293,
      "duration": 0.0059,
      "velocity": 98,
      "chip": "ym2612"
    },
    {
      "channel": 3,
      "note": 75,
      "start": 1.5295,
      "duration": 0.006,
      "velocity": 110,
      "chip": "ym2612"
    },
    {
      "channel": 4,
      "note": 56,
      "start": 1.5298,
      "duration": 0.0059,
      "velocity": 110,
      "chip": "ym2612"
    },
    {
      "channel": 0,
      "note": 92,
      "start": 1.5348,
      "duration": 0.0565,
      "velocity": 110,
      "chip": "ym2612"
    },
    {
      "channel": 1,
      "note": 90,
      "start": 1.5351,
      "duration": 0.0566,
      "velocity": 110,
      "chip": "ym2612"
    },
    {
      "channel": 2,
      "note": 104,
      "start": 1.5354,
      "duration": 0.0566,
      "velocity": 98,
      "chip": "ym2612"
    },
    {
      "channel": 3,
      "note": 76,
      "start": 1.5357,
      "duration": 0.0566,
      "velocity": 110,
      "chip": "ym2612"
    },
    {
      "channel": 4,
      "note": 63,
      "start": 1.5359,
      "duration": 0.0567,
      "velocity": 110,
      "chip": "ym2612"
    },
    {
      "channel": 0,
      "note": 90,
      "start": 1.5916,
      "duration": 0.4676,
      "velocity": 110,
      "chip": "ym2612"
    },
    {
      "channel": 1,
      "note": 92,
      "start": 1.5919,
      "duration": 0.0055,
      "velocity": 110,
      "chip": "ym2612"
    },
    {
      "channel": 2,
      "note": 92,
      "start": 1.5922,
      "duration": 0.0053,
      "velocity": 98,
      "chip": "ym2612"
    },
    {
      "channel": 3,
      "note": 75,
      "start": 1.5926,
      "duration": 0.4675,
      "velocity": 110,
      "chip": "ym2612"
    },
    {
      "channel": 1,
      "note": 90,
      "start": 1.5975,
      "duration": 0.4666,
      "velocity": 110,
      "chip": "ym2612"
    },
    {
      "channel": 2,
      "note": 92,
      "start": 1.5978,
      "duration": 0.0556,
      "velocity": 98,
      "chip": "ym2612"
    },
    {
      "channel": 4,
      "note": 66,
      "start": 1.598,
      "duration": 0.0557,
      "velocity": 110,
      "chip": "ym2612"
    },
    {
      "channel": 2,
      "note": 104,
      "start": 1.6536,
      "duration": 0.0998,
      "velocity": 98,
      "chip": "ym2612"
    },
    {
      "channel": 4,
      "note": 67,
      "start": 1.6539,
      "duration": 0.0999,
      "velocity": 110,
      "chip": "ym2612"
    },
    {
      "channel": 2,
      "note": 104,
      "start": 1.7537,
      "duration": 0.1168,
      "velocity": 98,
      "chip": "ym2612"
    },
    {
      "channel": 2,
      "note": 92,
      "start": 1.8707,
      "duration": 0.0047,
      "velocity": 98,
      "chip": "ym2612"
    },
    {
      "channel": 4,
      "note": 68,
      "start": 1.871,
      "duration": 0.0049,
      "velocity": 110,
      "chip": "ym2612"
    },
    {
      "channel": 2,
      "note": 92,
      "start": 1.8758,
      "duration": 0.0056,
      "velocity": 98,
      "chip": "ym2612"
    },
    {
      "channel": 4,
      "note": 63,
      "start": 1.8761,
      "duration": 0.0057,
      "velocity": 110,
      "chip": "ym2612"
    },
    {
      "channel": 2,
      "note": 104,
      "start": 1.8817,
      "duration": 0.0045,
      "velocity": 98,
      "chip": "ym2612"
    },
    {
      "channel": 2,
      "note": 104,
      "start": 1.8865,
      "duration": 0.0067,
      "velocity": 98,
      "chip": "ym2612"
    },
    {
      "channel": 4,
      "note": 68,
      "start": 1.8868,
      "duration": 0.0067,
      "velocity": 110,
      "chip": "ym2612"
    },
    {
      "channel": 2,
      "note": 92,
      "start": 1.8935,
      "duration": 0.0044,
      "velocity": 98,
      "chip": "ym2612"
    },
    {
      "channel": 4,
      "note": 68,
      "start": 1.8938,
      "duration": 0.0045,
      "velocity": 110,
      "chip": "ym2612"
    },
    {
      "channel": 2,
      "note": 92,
      "start": 1.8981,
      "duration": 0.0398,
      "velocity": 98,
      "chip": "ym2612"
    },
    {
      "channel": 4,
      "note": 67,
      "start": 1.8984,
      "duration": 0.04,
      "velocity": 110,
      "chip": "ym2612"
    },
    {
      "channel": 2,
      "note": 104,
      "start": 1.9383,
      "duration": 0.1165,
      "velocity": 98,
      "chip": "ym2612"
    },
    {
      "channel": 4,
      "note": 66,
      "start": 1.9386,
      "duration": 0.1166,
      "velocity": 110,
      "chip": "ym2612"
    },
    {
      "channel": 2,
      "note": 104,
      "start": 2.0551,
      "duration": 0.0046,
      "velocity": 98,
      "chip": "ym2612"
    },
    {
      "channel": 4,
      "note": 65,
      "start": 2.0554,
      "duration": 0.0047,
      "velocity": 110,
      "chip": "ym2612"
    },
    {
      "channel": 2,
      "note": 92,
      "start": 2.06,
      "duration": 0.0042,
      "velocity": 98,
      "chip": "ym2612"
    },
    {
      "channel": 4,
      "note": 64,
      "start": 2.0603,
      "duration": 0.0043,
      "velocity": 110,
      "chip": "ym2612"
    },
    {
      "channel": 2,
      "note": 92,
      "start": 2.0645,
      "duration": 0.003,
      "velocity": 98,
      "chip": "ym2612"
    },
    {
      "channel": 4,
      "note": 63,
      "start": 2.0648,
      "duration": 0.0031,
      "velocity": 110,
      "chip": "ym2612"
    },
    {
      "channel": 2,
      "note": 104,
      "start": 2.0679,
      "duration": 0.0033,
      "velocity": 98,
      "chip": "ym2612"
    },
    {
      "channel": 4,
      "note": 62,
      "start": 2.0681,
      "duration": 0.0033,
      "velocity": 110,
      "chip": "ym2612"
    },
    {
      "channel": 2,
      "note": 104,
      "start": 2.0713,
      "duration": 0.0571,
      "velocity": 98,
      "chip": "ym2612"
    },
    {
      "channel": 4,
      "note": 61,
      "start": 2.0716,
      "duration": 0.0575,
      "velocity": 110,
      "chip": "ym2612"
    },
    {
      "channel": 0,
      "note": 95,
      "start": 2.1283,
      "duration": 0.061,
      "velocity": 110,
      "chip": "ym2612"
    },
    {
      "channel": 2,
      "note": 92,
      "start": 2.1286,
      "duration": 0.0044,
      "velocity": 98,
      "chip": "ym2612"
    },
    {
      "channel": 3,
      "note": 80,
      "start": 2.1289,
      "duration": 0.0611,
      "velocity": 110,
      "chip": "ym2612"
    },
    {
      "channel": 4,
      "note": 56,
      "start": 2.1292,
      "duration": 0.1612,
      "velocity": 110,
      "chip": "ym2612"
    },
    {
      "channel": 1,
      "note": 95,
      "start": 2.1329,
      "duration": 0.1565,
      "velocity": 110,
      "chip": "ym2612"
    },
    {
      "channel": 2,
      "note": 92,
      "start": 2.1332,
      "duration": 0.0564,
      "velocity": 98,
      "chip": "ym2612"
    },
    {
      "channel": 0,
      "note": 94,
      "start": 2.1894,
      "duration": 0.0998,
      "velocity": 110,
      "chip": "ym2612"
    },
    {
      "channel": 2,
      "note": 104,
      "start": 2.1899,
      "duration": 0.0999,
      "velocity": 98,
      "chip": "ym2612"
    },
    {
      "channel": 3,
      "note": 79,
      "start": 2.1902,
      "duration": 0.0999,
      "velocity": 110,
      "chip": "ym2612"
    },
    {
      "channel": 0,
      "note": 95,
      "start": 2.2894,
      "duration": 0.1167,
      "velocity": 110,
      "chip": "ym2612"
    },
    {
      "channel": 1,
      "note": 94,
      "start": 2.2897,
      "duration": 0.1167,
      "velocity": 110,
      "chip": "ym2612"
    },
    {
      "channel": 2,
      "note": 104,
      "start": 2.29,
      "duration": 0.1167,
      "velocity": 98,
      "chip": "ym2612"
    },
    {
      "channel": 3,
      "note": 80,
      "start": 2.2903,
      "duration": 0.1167,
      "velocity": 110,
      "chip": "ym2612"
    },
    {
      "channel": 4,
      "note": 51,
      "start": 2.2906,
      "duration": 0.1168,
      "velocity": 110,
      "chip": "ym2612"
    },
    {
      "channel": 0,
      "note": 99,
      "start": 2.4064,
      "duration": 0.0117,
      "velocity": 110,
      "chip": "ym2612"
    },
    {
      "channel": 1,
      "note": 95,
      "start": 2.4067,
      "duration": 0.0056,
      "velocity": 110,
      "chip": "ym2612"
    },
    {
      "channel": 2,
      "note": 92,
      "start": 2.407,
      "duration": 0.0055,
      "velocity": 98,
      "chip": "ym2612"
    },
    {
      "channel": 3,
      "note": 83,
      "start": 2.4072,
      "duration": 0.0114,
      "velocity": 110,
      "chip": "ym2612"
    },
    {
      "channel": 1,
      "note": 99,
      "start": 2.4125,
      "duration": 0.0108,
      "velocity": 110,
      "chip": "ym2612"
    },
    {
      "channel": 2,
      "note": 92,
      "start": 2.4128,
      "duration": 0.0055,
      "velocity": 98,
      "chip": "ym2612"
    },
    {
      "channel": 4,
      "note": 56,
      "start": 2.4131,
      "duration": 0.0058,
      "velocity": 110,
      "chip": "ym2612"
    },
    {
      "channel": 0,
      "note": 97,
      "start": 2.4182,
      "duration": 0.0049,
      "velocity": 110,
      "chip": "ym2612"
    },
    {
      "channel": 2,
      "note": 104,
      "start": 2.4185,
      "duration": 0.0049,
      "velocity": 98,
      "chip": "ym2612"
    },
    {
      "channel": 3,
      "note": 82,
      "start": 2.4188,
      "duration": 0.005,
      "velocity": 110,
      "chip": "ym2612"
    },
    {
      "channel": 0,
      "note": 95,
      "start": 2.4232,
      "duration": 0.0056,
      "velocity": 110,
      "chip": "ym2612"
    },
    {
      "channel": 1,
      "note": 97,
      "start": 2.4234,
      "duration": 0.0057,
      "velocity": 110,
      "chip": "ym2612"
    },
    {
      "channel": 2,
      "note": 104,
      "start": 2.4237,
      "duration": 0.0057,
      "velocity": 98,
      "chip": "ym2612"
    },
    {
      "channel": 3,
      "note": 80,
      "start": 2.424,
      "duration": 0.0058,
      "velocity": 110,
      "chip": "ym2612"
    },
    {
      "channel": 4,
      "note": 54,
      "start": 2.4243,
      "duration": 0.0058,
      "velocity": 110,
      "chip": "ym2612"
    },
    {
      "channel": 0,
      "note": 97,
      "start": 2.4291,
      "duration": 0.0287,
      "velocity": 110,
      "chip": "ym2612"
    },
    {
      "channel": 1,
      "note": 95,
      "start": 2.4294,
      "duration": 0.0057,
      "velocity": 110,
      "chip": "ym2612"
    },
    {
      "channel": 2,
      "note": 92,
      "start": 2.4298,
      "duration": 0.0056,
      "velocity": 98,
      "chip": "ym2612"
    },
    {
      "channel": 3,
      "note": 82,
      "start": 2.43,
      "duration": 0.0619,
      "velocity": 110,
      "chip": "ym2612"
    },
    {
      "channel": 1,
      "note": 97,
      "start": 2.4352,
      "duration": 0.1394,
      "velocity": 110,
      "chip": "ym2612"
    },
    {
      "channel": 2,
      "note": 92,
      "start": 2.4354,
      "duration": 0.0561,
      "velocity": 98,
      "chip": "ym2612"
    },
    {
      "channel": 4,
      "note": 55,
      "start": 2.4357,
      "duration": 0.0565,
      "velocity": 110,
      "chip": "ym2612"
    },
    {
      "channel": 0,
      "note": 97,
      "start": 2.4913,
      "duration": 0.1166,
      "velocity": 110,
      "chip": "ym2612"
    },
    {
      "channel": 2,
      "note": 104,
      "start": 2.4919,
      "duration": 0.1166,
      "velocity": 98,
      "chip": "ym2612"
    },
    {
      "channel": 3,
      "note": 82,
      "start": 2.4921,
      "duration": 0.1168,
      "velocity": 110,
      "chip": "ym2612"
    },
    {
      "channel": 4,
      "note": 56,
      "start": 2.4924,
      "duration": 0.1218,
      "velocity": 110,
      "chip": "ym2612"
    },
    {
      "channel": 0,
      "note": 94,
      "start": 2.6081,
      "duration": 0.0051,
      "velocity": 110,
      "chip": "ym2612"
    },
    {
      "channel": 1,
      "note": 97,
      "start": 2.6084,
      "duration": 0.005,
      "velocity": 110,
      "chip": "ym2612"
    },
    {
      "channel": 2,
      "note": 104,
      "start": 2.6088,
      "duration": 0.005,
      "velocity": 98,
      "chip": "ym2612"
    },
    {
      "channel": 3,
      "note": 78,
      "start": 2.609,
      "duration": 0.0051,
      "velocity": 110,
      "chip": "ym2612"
    },
    {
      "channel": 1,
      "note": 94,
      "start": 2.6137,
      "duration": 0.0045,
      "velocity": 110,
      "chip": "ym2612"
    },
    {
      "channel": 2,
      "note": 92,
      "start": 2.6141,
      "duration": 0.0043,
      "velocity": 98,
      "chip": "ym2612"
    },
    {
      "channel": 4,
      "note": 68,
      "start": 2.6143,
      "duration": 0.0045,
      "velocity": 110,
      "chip": "ym2612"
    },
    {
      "channel": 0,
      "note": 95,
      "start": 2.6181,
      "duration": 0.004,
      "velocity": 110,
      "chip": "ym2612"
    },
    {
      "channel": 2,
      "note": 92,
      "start": 2.6186,
      "duration": 0.0041,
      "velocity": 98,
      "chip": "ym2612"
    },
    {
      "channel": 3,
      "note": 83,
      "start": 2.6188,
      "duration": 0.0044,
      "velocity": 110,
      "chip": "ym2612"
    },
    {
      "channel": 0,
      "note": 94,
      "start": 2.6224,
      "duration": 0.0053,
      "velocity": 110,
      "chip": "ym2612"
    },
    {
      "channel": 1,
      "note": 95,
      "start": 2.6227,
      "duration": 0.0052,
      "velocity": 110,
      "chip": "ym2612"
    },
    {
      "channel": 2,
      "note": 104,
      "start": 2.6231,
      "duration": 0.005,
      "velocity": 98,
      "chip": "ym2612"
    },
    {
      "channel": 3,
      "note": 85,
      "start": 2.6233,
      "duration": 0.0051,
      "velocity": 110,
      "chip": "ym2612"
    },
    {
      "channel": 4,
      "note": 56,
      "start": 2.6237,
      "duration": 0.0049,
      "velocity": 110,
      "chip": "ym2612"
    },
    {
      "channel": 0,
      "note": 92,
      "start": 2.6278,
      "duration": 0.0572,
      "velocity": 110,
      "chip": "ym2612"
    },
    {
      "channel": 1,
      "note": 94,
      "start": 2.628,
      "duration": 0.0573,
      "velocity": 110,
      "chip": "ym2612"
    },
    {
      "channel": 2,
      "note": 104,
      "start": 2.6283,
      "duration": 0.0572,
      "velocity": 98,
      "chip": "ym2612"
    },
    {
      "channel": 3,
      "note": 86,
      "start": 2.6285,
      "duration": 0.0574,
      "velocity": 110,
      "chip": "ym2612"
    },
    {
      "channel": 4,
      "note": 63,
      "start": 2.6288,
      "duration": 0.0574,
      "velocity": 110,
      "chip": "ym2612"
    },
    {
      "channel": 0,
      "note": 95,
      "start": 2.6852,
      "duration": 0.0615,
      "velocity": 110,
      "chip": "ym2612"
    },
    {
      "channel": 1,
      "note": 92,
      "start": 2.6855,
      "duration": 0.0047,
      "velocity": 110,
      "chip": "ym2612"
    },
    {
      "channel": 2,
      "note": 92,
      "start": 2.6859,
      "duration": 0.0045,
      "velocity": 98,
      "chip": "ym2612"
    },
    {
      "channel": 3,
      "note": 87,
      "start": 2.6861,
      "duration": 0.0614,
      "velocity": 110,
      "chip": "ym2612"
    },
    {
      "channel": 1,
      "note": 95,
      "start": 2.6904,
      "duration": 0.1566,
      "velocity": 110,
      "chip": "ym2612"
    },
    {
      "channel": 2,
      "note": 92,
      "start": 2.6907,
      "duration": 0.0565,
      "velocity": 98,
      "chip": "ym2612"
    },
    {
      "channel": 4,
      "note": 66,
      "start": 2.691,
      "duration": 0.0568,
      "velocity": 110,
      "chip": "ym2612"
    },
    {
      "channel": 0,
      "note": 94,
      "start": 2.7469,
      "duration": 0.0998,
      "velocity": 110,
      "chip": "ym2612"
    },
    {
      "channel": 2,
      "note": 104,
      "start": 2.7475,
      "duration": 0.0999,
      "velocity": 98,
      "chip": "ym2612"
    },
    {
      "channel": 3,
      "note": 86,
      "start": 2.7477,
      "duration": 0.0999,
      "velocity": 110,
      "chip": "ym2612"
    },
    {
      "channel": 4,
      "note": 67,
      "start": 2.748,
      "duration": 0.0999,
      "velocity": 110,
      "chip": "ym2612"
    },
    {
      "channel": 0,
      "note": 95,
      "start": 2.8469,
      "duration": 0.1167,
      "velocity": 110,
      "chip": "ym2612"
    },
    {
      "channel": 1,
      "note": 94,
      "start": 2.8473,
      "duration": 0.1167,
      "velocity": 110,
      "chip": "ym2612"
    },
    {
      "channel": 2,
      "note": 104,
      "start": 2.8476,
      "duration": 0.1167,
      "velocity": 98,
      "chip": "ym2612"
    },
    {
      "channel": 3,
      "note": 87,
      "start": 2.8479,
      "duration": 0.1168,
      "velocity": 110,
      "chip": "ym2612"
    },
    {
      "channel": 0,
      "note": 99,
      "start": 2.9639,
      "duration": 0.0104,
      "velocity": 110,
      "chip": "ym2612"
    },
    {
      "channel": 1,
      "note": 95,
      "start": 2.9642,
      "duration": 0.0052,
      "velocity": 110,
      "chip": "ym2612"
    },
    {
      "channel": 2,
      "note": 92,
      "start": 2.9646,
      "duration": 0.0051,
      "velocity": 98,
      "chip": "ym2612"
    },
    {
      "channel": 3,
      "note": 90,
      "start": 2.9648,
      "duration": 0.0103,
      "velocity": 110,
      "chip": "ym2612"
    },
    {
      "channel": 4,
      "note": 68,
      "start": 2.965,
      "duration": 0.005,
      "velocity": 110,
      "chip": "ym2612"
    },
    {
      "channel": 1,
      "note": 99,
      "start": 2.9696,
      "duration": 0.0112,
      "velocity": 110,
      "chip": "ym2612"
    },
    {
      "channel": 2,
      "note": 92,
      "start": 2.97,
      "duration": 0.0048,
      "velocity": 98,
      "chip": "ym2612"
    },
    {
      "channel": 4,
      "note": 63,
      "start": 2.9702,
      "duration": 0.0051,
      "velocity": 110,
      "chip": "ym2612"
    },
    {
      "channel": 0,
      "note": 97,
      "start": 2.9746,
      "duration": 0.0059,
      "velocity": 110,
      "chip": "ym2612"
    },
    {
      "channel": 2,
      "note": 104,
      "start": 2.9751,
      "duration": 0.006,
      "velocity": 98,
      "chip": "ym2612"
    },
    {
      "channel": 3,
      "note": 88,
      "start": 2.9752,
      "duration": 0.0062,
      "velocity": 110,
      "chip": "ym2612"
    },
    {
      "channel": 0,
      "note": 95,
      "start": 2.9808,
      "duration": 0.0057,
      "velocity": 110,
      "chip": "ym2612"
    },
    {
      "channel": 1,
      "note": 97,
      "start": 2.9811,
      "duration": 0.0057,
      "velocity": 110,
      "chip": "ym2612"
    },
    {
      "channel": 2,
      "note": 104,
      "start": 2.9814,
      "duration": 0.0056,
      "velocity": 98,
      "chip": "ym2612"
    },
    {
      "channel": 3,
      "note": 87,
      "start": 2.9816,
      "duration": 0.0057,
      "velocity": 110,
      "chip": "ym2612"
    },
    {
      "channel": 4,
      "note": 68,
      "start": 2.9819,
      "duration": 0.0056,
      "velocity": 110,
      "chip": "ym2612"
    },
    {
      "channel": 0,
      "note": 97,
      "start": 2.9867,
      "duration": 0.0619,
      "velocity": 110,
      "chip": "ym2612"
    },
    {
      "channel": 1,
      "note": 95,
      "start": 2.9869,
      "duration": 0.0056,
      "velocity": 110,
      "chip": "ym2612"
    },
    {
      "channel": 2,
      "note": 92,
      "start": 2.9872,
      "duration": 0.0056,
      "velocity": 98,
      "chip": "ym2612"
    },
    {
      "channel": 3,
      "note": 88,
      "start": 2.9875,
      "duration": 0.062,
      "velocity": 110,
      "chip": "ym2612"
    },
    {
      "channel": 1,
      "note": 97,
      "start": 2.9927,
      "duration": 0.1728,
      "velocity": 110,
      "chip": "ym2612"
    },
    {
      "channel": 2,
      "note": 92,
      "start": 2.993,
      "duration": 0.056,
      "velocity": 98,
      "chip": "ym2612"
    },
    {
      "channel": 4,
      "note": 56,
      "start": 2.9932,
      "duration": 0.0564,
      "velocity": 110,
      "chip": "ym2612"
    },
    {
      "channel": 0,
      "note": 97,
      "start": 3.0488,
      "duration": 0.1213,
      "velocity": 110,
      "chip": "ym2612"
    },
    {
      "channel": 2,
      "note": 104,
      "start": 3.0493,
      "duration": 0.1164,
      "velocity": 98,
      "chip": "ym2612"
    },
    {
      "channel": 3,
      "note": 88,
      "start": 3.0496,
      "duration": 0.1215,
      "velocity": 110,
      "chip": "ym2612"
    },
    {
      "channel": 1,
      "note": 97,
      "start": 3.1657,
      "duration": 0.0096,
      "velocity": 110,
      "chip": "ym2612"
    },
    {
      "channel": 2,
      "note": 104,
      "start": 3.166,
      "duration": 0.0047,
      "velocity": 98,
      "chip": "ym2612"
    },
    {
      "channel": 4,
      "note": 66,
      "start": 3.1662,
      "duration": 0.005,
      "velocity": 110,
      "chip": "ym2612"
    },
    {
      "channel": 0,
      "note": 94,
      "start": 3.1704,
      "duration": 0.0103,
      "velocity": 110,
      "chip": "ym2612"
    },
    {
      "channel": 2,
      "note": 92,
      "start": 3.171,
      "duration": 0.0046,
      "velocity": 98,
      "chip": "ym2612"
    },
    {
      "channel": 3,
      "note": 85,
      "start": 3.1712,
      "duration": 0.0104,
      "velocity": 110,
      "chip": "ym2612"
    },
    {
      "channel": 1,
      "note": 94,
      "start": 3.1756,
      "duration": 0.0106,
      "velocity": 110,
      "chip": "ym2612"
    },
    {
      "channel": 2,
      "note": 92,
      "start": 3.1759,
      "duration": 0.0052,
      "velocity": 98,
      "chip": "ym2612"
    },
    {
      "channel": 4,
      "note": 68,
      "start": 3.1762,
      "duration": 0.0056,
      "velocity": 110,
      "chip": "ym2612"
    },
    {
      "channel": 0,
      "note": 97,
      "start": 3.181,
      "duration": 0.0622,
      "velocity": 110,
      "chip": "ym2612"
    },
    {
      "channel": 2,
      "note": 104,
      "start": 3.1815,
      "duration": 0.0049,
      "velocity": 98,
      "chip": "ym2612"
    },
    {
      "channel": 3,
      "note": 88,
      "start": 3.1817,
      "duration": 0.0622,
      "velocity": 110,
      "chip": "ym2612"
    },
    {
      "channel": 4,
      "note": 66,
      "start": 3.182,
      "duration": 0.0622,
      "velocity": 110,
      "chip": "ym2612"
    },
    {
      "channel": 1,
      "note": 97,
      "start": 3.1863,
      "duration": 0.062,
      "velocity": 110,
      "chip": "ym2612"
    },
    {
      "channel": 2,
      "note": 104,
      "start": 3.1866,
      "duration": 0.057,
      "velocity": 98,
      "chip": "ym2612"
    },
    {
      "channel": 0,
      "note": 92,
      "start": 3.2435,
      "duration": 0.4619,
      "velocity": 110,
      "chip": "ym2612"
    },
    {
      "channel": 2,
      "note": 92,
      "start": 3.2439,
      "duration": 0.0048,
      "velocity": 98,
      "chip": "ym2612"
    },
    {
      "channel": 3,
      "note": 83,
      "start": 3.2441,
      "duration": 0.4619,
      "velocity": 110,
      "chip": "ym2612"
    },
    {
      "channel": 4,
      "note": 51,
      "start": 3.2443,
      "duration": 0.0046,
      "velocity": 110,
      "chip": "ym2612"
    },
    {
      "channel": 1,
      "note": 92,
      "start": 3.2485,
      "duration": 0.4621,
      "velocity": 110,
      "chip": "ym2612"
    },
    {
      "channel": 2,
      "note": 92,
      "start": 3.2489,
      "duration": 0.0563,
      "velocity": 98,
      "chip": "ym2612"
    },
    {
      "channel": 2,
      "note": 104,
      "start": 3.3055,
      "duration": 0.0998,
      "velocity": 98,
      "chip": "ym2612"
    },
    {
      "channel": 4,
      "note": 54,
      "start": 3.3058,
      "duration": 0.0999,
      "velocity": 110,
      "chip": "ym2612"
    },
    {
      "channel": 2,
      "note": 104,
      "start": 3.4055,
      "duration": 0.1001,
      "velocity": 98,
      "chip": "ym2612"
    },
    {
      "channel": 4,
      "note": 56,
      "start": 3.4059,
      "duration": 0.1002,
      "velocity": 110,
      "chip": "ym2612"
    },
    {
      "channel": 2,
      "note": 92,
      "start": 3.5059,
      "duration": 0.0056,
      "velocity": 98,
      "chip": "ym2612"
    },
    {
      "channel": 2,
      "note": 92,
      "start": 3.5117,
      "duration": 0.0049,
      "velocity": 98,
      "chip": "ym2612"
    },
    {
      "channel": 4,
      "note": 56,
      "start": 3.512,
      "duration": 0.0049,
      "velocity": 110,
      "chip": "ym2612"
    },
    {
      "channel": 2,
      "note": 104,
      "start": 3.5168,
      "duration": 0.0054,
      "velocity": 98,
      "chip": "ym2612"
    },
    {
      "channel": 2,
      "note": 104,
      "start": 3.5224,
      "duration": 0.006,
      "velocity": 98,
      "chip": "ym2612"
    },
    {
      "channel": 4,
      "note": 54,
      "start": 3.5227,
      "duration": 0.0061,
      "velocity": 110,
      "chip": "ym2612"
    },
    {
      "channel": 2,
      "note": 92,
      "start": 3.5287,
      "duration": 0.0051,
      "velocity": 98,
      "chip": "ym2612"
    },
    {
      "channel": 2,
      "note": 92,
      "start": 3.5341,
      "duration": 0.0559,
      "velocity": 98,
      "chip": "ym2612"
    },
    {
      "channel": 4,
      "note": 55,
      "start": 3.5344,
      "duration": 0.056,
      "velocity": 110,
      "chip": "ym2612"
    },
    {
      "channel": 2,
      "note": 104,
      "start": 3.5903,
      "duration": 0.0999,
      "velocity": 98,
      "chip": "ym2612"
    },
    {
      "channel": 4,
      "note": 56,
      "start": 3.5907,
      "duration": 0.1054,
      "velocity": 110,
      "chip": "ym2612"
    },
    {
      "channel": 2,
      "note": 104,
      "start": 3.6905,
      "duration": 0.0051,
      "velocity": 98,
      "chip": "ym2612"
    },
    {
      "channel": 2,
      "note": 92,
      "start": 3.6959,
      "duration": 0.0045,
      "velocity": 98,
      "chip": "ym2612"
    },
    {
      "channel": 4,
      "note": 68,
      "start": 3.6963,
      "duration": 0.0044,
      "velocity": 110,
      "chip": "ym2612"
    },
    {
      "channel": 2,
      "note": 92,
      "start": 3.7006,
      "duration": 0.0051,
      "velocity": 98,
      "chip": "ym2612"
    },
    {
      "channel": 0,
      "note": 90,
      "start": 3.7056,
      "duration": 0.0049,
      "velocity": 110,
      "chip": "ym2612"
    },
    {
      "channel": 2,
      "note": 104,
      "start": 3.7059,
      "duration": 0.0051,
      "velocity": 98,
      "chip": "ym2612"
    },
    {
      "channel": 3,
      "note": 82,
      "start": 3.7063,
      "duration": 0.005,
      "velocity": 110,
      "chip": "ym2612"
    },
    {
      "channel": 4,
      "note": 56,
      "start": 3.7065,
      "duration": 0.005,
      "velocity": 110,
      "chip": "ym2612"
    },
    {
      "channel": 0,
      "note": 92,
      "start": 3.7106,
      "duration": 0.0572,
      "velocity": 110,
      "chip": "ym2612"
    },
    {
      "channel": 1,
      "note": 90,
      "start": 3.7109,
      "duration": 0.0572,
      "velocity": 110,
      "chip": "ym2612"
    },
    {
      "channel": 2,
      "note": 104,
      "start": 3.7112,
      "duration": 0.0571,
      "velocity": 98,
      "chip": "ym2612"
    },
    {
      "channel": 3,
      "note": 83,
      "start": 3.7115,
      "duration": 0.0573,
      "velocity": 110,
      "chip": "ym2612"
    },
    {
      "channel": 4,
      "note": 63,
      "start": 3.7117,
      "duration": 0.0573,
      "velocity": 110,
      "chip": "ym2612"
    },
    {
      "channel": 0,
      "note": 94,
      "start": 3.768,
      "duration": 0.4509,
      "velocity": 110,
      "chip": "ym2612"
    },
    {
      "channel": 1,
      "note": 92,
      "start": 3.7683,
      "duration": 0.0047,
      "velocity": 110,
      "chip": "ym2612"
    },
    {
      "channel": 2,
      "note": 92,
      "start": 3.7687,
      "duration": 0.0045,
      "velocity": 98,
      "chip": "ym2612"
    },
    {
      "channel": 3,
      "note": 85,
      "start": 3.7689,
      "duration": 0.4508,
      "velocity": 110,
      "chip": "ym2612"
    },
    {
      "channel": 1,
      "note": 94,
      "start": 3.7732,
      "duration": 0.45,
      "velocity": 110,
      "chip": "ym2612"
    },
    {
      "channel": 2,
      "note": 92,
      "start": 3.7734,
      "duration": 0.0398,
      "velocity": 98,
      "chip": "ym2612"
    },
    {
      "channel": 4,
      "note": 64,
      "start": 3.7738,
      "duration": 0.0398,
      "velocity": 110,
      "chip": "ym2612"
    },
    {
      "channel": 2,
      "note": 104,
      "start": 3.8135,
      "duration": 0.1163,
      "velocity": 98,
      "chip": "ym2612"
    },
    {
      "channel": 4,
      "note": 65,
      "start": 3.8139,
      "duration": 0.1164,
      "velocity": 110,
      "chip": "ym2612"
    },
    {
      "channel": 2,
      "note": 104,
      "start": 3.9302,
      "duration": 0.1001,
      "velocity": 98,
      "chip": "ym2612"
    },
    {
      "channel": 2,
      "note": 92,
      "start": 4.0306,
      "duration": 0.0056,
      "velocity": 98,
      "chip": "ym2612"
    },
    {
      "channel": 4,
      "note": 66,
      "start": 4.0309,
      "duration": 0.0057,
      "velocity": 110,
      "chip": "ym2612"
    },
    {
      "channel": 2,
      "note": 92,
      "start": 4.0365,
      "duration": 0.0048,
      "velocity": 98,
      "chip": "ym2612"
    },
    {
      "channel": 4,
      "note": 61,
      "start": 4.0367,
      "duration": 0.0049,
      "velocity": 110,
      "chip": "ym2612"
    },
    {
      "channel": 2,
      "note": 104,
      "start": 4.0415,
      "duration": 0.0051,
      "velocity": 98,
      "chip": "ym2612"
    },
    {
      "channel": 2,
      "note": 104,
      "start": 4.0469,
      "duration": 0.0054,
      "velocity": 98,
      "chip": "ym2612"
    },
    {
      "channel": 4,
      "note": 66,
      "start": 4.0471,
      "duration": 0.0055,
      "velocity": 110,
      "chip": "ym2612"
    },
    {
      "channel": 2,
      "note": 92,
      "start": 4.0526,
      "duration": 0.0043,
      "velocity": 98,
      "chip": "ym2612"
    },
    {
      "channel": 2,
      "note": 92,
      "start": 4.0572,
      "duration": 0.0566,
      "velocity": 98,
      "chip": "ym2612"
    },
    {
      "channel": 4,
      "note": 61,
      "start": 4.0574,
      "duration": 0.0567,
      "velocity": 110,
      "chip": "ym2612"
    },
    {
      "channel": 2,
      "note": 104,
      "start": 4.1141,
      "duration": 0.0999,
      "velocity": 98,
      "chip": "ym2612"
    },
    {
      "channel": 2,
      "note": 104,
      "start": 4.2143,
      "duration": 0.0051,
      "velocity": 98,
      "chip": "ym2612"
    },
    {
      "channel": 4,
      "note": 64,
      "start": 4.2145,
      "duration": 0.0052,
      "velocity": 110,
      "chip": "ym2612"
    },
    {
      "channel": 2,
      "note": 92,
      "start": 4.2196,
      "duration": 0.0036,
      "velocity": 98,
      "chip": "ym2612"
    },
    {
      "channel": 2,
      "note": 92,
      "start": 4.2235,
      "duration": 0.0047,
      "velocity": 98,
      "chip": "ym2612"
    },
    {
      "channel": 4,
      "note": 66,
      "start": 4.2237,
      "duration": 0.005,
      "velocity": 110,
      "chip": "ym2612"
    },
    {
      "channel": 2,
      "note": 104,
      "start": 4.2285,
      "duration": 0.0041,
      "velocity": 98,
      "chip": "ym2612"
    },
    {
      "channel": 4,
      "note": 61,
      "start": 4.2288,
      "duration": 0.0453,
      "velocity": 110,
      "chip": "ym2612"
    },
    {
      "channel": 2,
      "note": 104,
      "start": 4.2329,
      "duration": 0.0406,
      "velocity": 98,
      "chip": "ym2612"
    },
    {
      "channel": 0,
      "note": 95,
      "start": 4.2733,
      "duration": 0.061,
      "velocity": 110,
      "chip": "ym2612"
    },
    {
      "channel": 2,
      "note": 92,
      "start": 4.2737,
      "duration": 0.0049,
      "velocity": 98,
      "chip": "ym2612"
    },
    {
      "channel": 3,
      "note": 80,
      "start": 4.2739,
      "duration": 0.0611,
      "velocity": 110,
      "chip": "ym2612"
    },
    {
      "channel": 4,
      "note": 56,
      "start": 4.2744,
      "duration": 0.1778,
      "velocity": 110,
      "chip": "ym2612"
    },
    {
      "channel": 1,
      "note": 95,
      "start": 4.2785,
      "duration": 0.1727,
      "velocity": 110,
      "chip": "ym2612"
    },
    {
      "channel": 2,
      "note": 92,
      "start": 4.2788,
      "duration": 0.0559,
      "velocity": 98,
      "chip": "ym2612"
    },
    {
      "channel": 0,
      "note": 94,
      "start": 4.3345,
      "duration": 0.1165,
      "velocity": 110,
      "chip": "ym2612"
    },
    {
      "channel": 2,
      "note": 104,
      "start": 4.335,
      "duration": 0.1165,
      "velocity": 98,
      "chip": "ym2612"
    },
    {
      "channel": 3,
      "note": 79,
      "start": 4.3352,
      "duration": 0.1166,
      "velocity": 110,
      "chip": "ym2612"
    },
    {
      "channel": 0,
      "note": 95,
      "start": 4.4511,
      "duration": 0.1001,
      "velocity": 110,
      "chip": "ym2612"
    },
    {
      "channel": 1,
      "note": 94,
      "start": 4.4515,
      "duration": 0.1001,
      "velocity": 110,
      "chip": "ym2612"
    },
    {
      "channel": 2,
      "note": 104,
      "start": 4.4518,
      "duration": 0.1,
      "velocity": 98,
      "chip": "ym2612"
    },
    {
      "channel": 3,
      "note": 80,
      "start": 4.4521,
      "duration": 0.1001,
      "velocity": 110,
      "chip": "ym2612"
    },
    {
      "channel": 4,
      "note": 51,
      "start": 4.4524,
      "duration": 0.1002,
      "velocity": 110,
      "chip": "ym2612"
    },
    {
      "channel": 0,
      "note": 99,
      "start": 4.5515,
      "duration": 0.0115,
      "velocity": 110,
      "chip": "ym2612"
    },
    {
      "channel": 1,
      "note": 95,
      "start": 4.5517,
      "duration": 0.0066,
      "velocity": 110,
      "chip": "ym2612"
    },
    {
      "channel": 2,
      "note": 92,
      "start": 4.5521,
      "duration": 0.0064,
      "velocity": 98,
      "chip": "ym2612"
    },
    {
      "channel": 3,
      "note": 83,
      "start": 4.5524,
      "duration": 0.0114,
      "velocity": 110,
      "chip": "ym2612"
    },
    {
      "channel": 1,
      "note": 99,
      "start": 4.5585,
      "duration": 0.01,
      "velocity": 110,
      "chip": "ym2612"
    },
    {
      "channel": 2,
      "note": 92,
      "start": 4.5588,
      "duration": 0.0046,
      "velocity": 98,
      "chip": "ym2612"
    },
    {
      "channel": 4,
      "note": 56,
      "start": 4.559,
      "duration": 0.0049,
      "velocity": 110,
      "chip": "ym2612"
    },
    {
      "channel": 0,
      "note": 97,
      "start": 4.5632,
      "duration": 0.005,
      "velocity": 110,
      "chip": "ym2612"
    },
    {
      "channel": 2,
      "note": 104,
      "start": 4.5637,
      "duration": 0.0049,
      "velocity": 98,
      "chip": "ym2612"
    },
    {
      "channel": 3,
      "note": 82,
      "start": 4.5639,
      "duration": 0.005,
      "velocity": 110,
      "chip": "ym2612"
    },
    {
      "channel": 0,
      "note": 95,
      "start": 4.5684,
      "duration": 0.0062,
      "velocity": 110,
      "chip": "ym2612"
    },
    {
      "channel": 1,
      "note": 97,
      "start": 4.5686,
      "duration": 0.0063,
      "velocity": 110,
      "chip": "ym2612"
    },
    {
      "channel": 2,
      "note": 104,
      "start": 4.5688,
      "duration": 0.0064,
      "velocity": 98,
      "chip": "ym2612"
    },
    {
      "channel": 3,
      "note": 80,
      "start": 4.5691,
      "duration": 0.0064,
      "velocity": 110,
      "chip": "ym2612"
    },
    {
      "channel": 4,
      "note": 54,
      "start": 4.5694,
      "duration": 0.0063,
      "velocity": 110,
      "chip": "ym2612"
    },
    {
      "channel": 0,
      "note": 97,
      "start": 4.5748,
      "duration": 0.0289,
      "velocity": 110,
      "chip": "ym2612"
    },
    {
      "channel": 1,
      "note": 95,
      "start": 4.5751,
      "duration": 0.005,
      "velocity": 110,
      "chip": "ym2612"
    },
    {
      "channel": 2,
      "note": 92,
      "start": 4.5755,
      "duration": 0.0048,
      "velocity": 98,
      "chip": "ym2612"
    },
    {
      "channel": 3,
      "note": 82,
      "start": 4.5757,
      "duration": 0.0621,
      "velocity": 110,
      "chip": "ym2612"
    },
    {
      "channel": 1,
      "note": 97,
      "start": 4.5802,
      "duration": 0.1236,
      "velocity": 110,
      "chip": "ym2612"
    },
    {
      "channel": 2,
      "note": 92,
      "start": 4.5805,
      "duration": 0.0568,
      "velocity": 98,
      "chip": "ym2612"
    },
    {
      "channel": 4,
      "note": 55,
      "start": 4.5808,
      "duration": 0.0572,
      "velocity": 110,
      "chip": "ym2612"
    },
    {
      "channel": 0,
      "note": 97,
      "start": 4.6372,
      "duration": 0.1,
      "velocity": 110,
      "chip": "ym2612"
    },
    {
      "channel": 2,
      "note": 104,
      "start": 4.6377,
      "duration": 0.1,
      "velocity": 98,
      "chip": "ym2612"
    },
    {
      "channel": 3,
      "note": 82,
      "start": 4.638,
      "duration": 0.1,
      "velocity": 110,
      "chip": "ym2612"
    },
    {
      "channel": 4,
      "note": 56,
      "start": 4.6383,
      "duration": 0.1054,
      "velocity": 110,
      "chip": "ym2612"
    },
    {
      "channel": 0,
      "note": 94,
      "start": 4.7373,
      "duration": 0.0055,
      "velocity": 110,
      "chip": "ym2612"
    },
    {
      "channel": 1,
      "note": 97,
      "start": 4.7376,
      "duration": 0.0054,
      "velocity": 110,
      "chip": "ym2612"
    },
    {
      "channel": 2,
      "note": 104,
      "start": 4.738,
      "duration": 0.0053,
      "velocity": 98,
      "chip": "ym2612"
    },
    {
      "channel": 3,
      "note": 78,
      "start": 4.7381,
      "duration": 0.0055,
      "velocity": 110,
      "chip": "ym2612"
    },
    {
      "channel": 1,
      "note": 94,
      "start": 4.7432,
      "duration": 0.0041,
      "velocity": 110,
      "chip": "ym2612"
    },
    {
      "channel": 2,
      "note": 92,
      "start": 4.7436,
      "duration": 0.0037,
      "velocity": 98,
      "chip": "ym2612"
    },
    {
      "channel": 4,
      "note": 68,
      "start": 4.7439,
      "duration": 0.0039,
      "velocity": 110,
      "chip": "ym2612"
    },
    {
      "channel": 0,
      "note": 95,
      "start": 4.7472,
      "duration": 0.0047,
      "velocity": 110,
      "chip": "ym2612"
    },
    {
      "channel": 2,
      "note": 92,
      "start": 4.7475,
      "duration": 0.0049,
      "velocity": 98,
      "chip": "ym2612"
    },
    {
      "channel": 3,
      "note": 80,
      "start": 4.7477,
      "duration": 0.005,
      "velocity": 110,
      "chip": "ym2612"
    },
    {
      "channel": 0,
      "note": 94,
      "start": 4.752,
      "duration": 0.0067,
      "velocity": 110,
      "chip": "ym2612"
    },
    {
      "channel": 1,
      "note": 95,
      "start": 4.7523,
      "duration": 0.0066,
      "velocity": 110,
      "chip": "ym2612"
    },
    {
      "channel": 2,
      "note": 104,
      "start": 4.7527,
      "duration": 0.0065,
      "velocity": 98,
      "chip": "ym2612"
    },
    {
      "channel": 3,
      "note": 78,
      "start": 4.753,
      "duration": 0.0065,
      "velocity": 110,
      "chip": "ym2612"
    },
    {
      "channel": 4,
      "note": 56,
      "start": 4.7532,
      "duration": 0.0065,
      "velocity": 110,
      "chip": "ym2612"
    },
    {
      "channel": 0,
      "note": 92,
      "start": 4.7588,
      "duration": 0.0563,
      "velocity": 110,
      "chip": "ym2612"
    },
    {
      "channel": 1,
      "note": 94,
      "start": 4.7591,
      "duration": 0.0564,
      "velocity": 110,
      "chip": "ym2612"
    },
    {
      "channel": 2,
      "note": 104,
      "start": 4.7594,
      "duration": 0.0564,
      "velocity": 98,
      "chip": "ym2612"
    },
    {
      "channel": 3,
      "note": 76,
      "start": 4.7597,
      "duration": 0.0565,
      "velocity": 110,
      "chip": "ym2612"
    },
    {
      "channel": 4,
      "note": 63,
      "start": 4.76,
      "duration": 0.0565,
      "velocity": 110,
      "chip": "ym2612"
    },
    {
      "channel": 0,
      "note": 95,
      "start": 4.8154,
      "duration": 0.0617,
      "velocity": 110,
      "chip": "ym2612"
    },
    {
      "channel": 1,
      "note": 92,
      "start": 4.8157,
      "duration": 0.0055,
      "velocity": 110,
      "chip": "ym2612"
    },
    {
      "channel": 2,
      "note": 92,
      "start": 4.8161,
      "duration": 0.0054,
      "velocity": 98,
      "chip": "ym2612"
    },
    {
      "channel": 3,
      "note": 80,
      "start": 4.8164,
      "duration": 0.0615,
      "velocity": 110,
      "chip": "ym2612"
    },
    {
      "channel": 1,
      "note": 95,
      "start": 4.8214,
      "duration": 0.1727,
      "velocity": 110,
      "chip": "ym2612"
    },
    {
      "channel": 2,
      "note": 92,
      "start": 4.8217,
      "duration": 0.0559,
      "velocity": 98,
      "chip": "ym2612"
    },
    {
      "channel": 4,
      "note": 66,
      "start": 4.822,
      "duration": 0.0561,
      "velocity": 110,
      "chip": "ym2612"
    },
    {
      "channel": 0,
      "note": 94,
      "start": 4.8773,
      "duration": 0.1165,
      "velocity": 110,
      "chip": "ym2612"
    },
    {
      "channel": 2,
      "note": 104,
      "start": 4.8778,
      "duration": 0.1165,
      "velocity": 98,
      "chip": "ym2612"
    },
    {
      "channel": 3,
      "note": 79,
      "start": 4.8781,
      "duration": 0.1166,
      "velocity": 110,
      "chip": "ym2612"
    },
    {
      "channel": 4,
      "note": 67,
      "start": 4.8784,
      "duration": 0.1166,
      "velocity": 110,
      "chip": "ym2612"
    },
    {
      "channel": 0,
      "note": 95,
      "start": 4.994,
      "duration": 0.1001,
      "velocity": 110,
      "chip": "ym2612"
    },
    {
      "channel": 1,
      "note": 94,
      "start": 4.9943,
      "duration": 0.1001,
      "velocity": 110,
      "chip": "ym2612"
    },
    {
      "channel": 2,
      "note": 104,
      "start": 4.9946,
      "duration": 0.1,
      "velocity": 98,
      "chip": "ym2612"
    },
    {
      "channel": 3,
      "note": 80,
      "start": 4.9949,
      "duration": 0.1,
      "velocity": 110,
      "chip": "ym2612"
    },
    {
      "channel": 0,
      "note": 99,
      "start": 5.0943,
      "duration": 0.0113,
      "velocity": 110,
      "chip": "ym2612"
    },
    {
      "channel": 1,
      "note": 95,
      "start": 5.0946,
      "duration": 0.0054,
      "velocity": 110,
      "chip": "ym2612"
    },
    {
      "channel": 2,
      "note": 92,
      "start": 5.0949,
      "duration": 0.0052,
      "velocity": 98,
      "chip": "ym2612"
    },
    {
      "channel": 3,
      "note": 83,
      "start": 5.0951,
      "duration": 0.0112,
      "velocity": 110,
      "chip": "ym2612"
    },
    {
      "channel": 4,
      "note": 68,
      "start": 5.0954,
      "duration": 0.005,
      "velocity": 110,
      "chip": "ym2612"
    },
    {
      "channel": 1,
      "note": 99,
      "start": 5.1001,
      "duration": 0.011,
      "velocity": 110,
      "chip": "ym2612"
    },
    {
      "channel": 2,
      "note": 92,
      "start": 5.1003,
      "duration": 0.0056,
      "velocity": 98,
      "chip": "ym2612"
    },
    {
      "channel": 4,
      "note": 63,
      "start": 5.1005,
      "duration": 0.0061,
      "velocity": 110,
      "chip": "ym2612"
    },
    {
      "channel": 0,
      "note": 97,
      "start": 5.1058,
      "duration": 0.0051,
      "velocity": 110,
      "chip": "ym2612"
    },
    {
      "channel": 2,
      "note": 104,
      "start": 5.1063,
      "duration": 0.005,
      "velocity": 98,
      "chip": "ym2612"
    },
    {
      "channel": 3,
      "note": 82,
      "start": 5.1066,
      "duration": 0.005,
      "velocity": 110,
      "chip": "ym2612"
    },
    {
      "channel": 0,
      "note": 95,
      "start": 5.111,
      "duration": 0.0063,
      "velocity": 110,
      "chip": "ym2612"
    },
    {
      "channel": 1,
      "note": 97,
      "start": 5.1112,
      "duration": 0.0064,
      "velocity": 110,
      "chip": "ym2612"
    },
    {
      "channel": 2,
      "note": 104,
      "start": 5.1115,
      "duration": 0.0065,
      "velocity": 98,
      "chip": "ym2612"
    },
    {
      "channel": 3,
      "note": 81,
      "start": 5.1118,
      "duration": 0.0065,
      "velocity": 110,
      "chip": "ym2612"
    },
    {
      "channel": 4,
      "note": 68,
      "start": 5.1121,
      "duration": 0.0064,
      "velocity": 110,
      "chip": "ym2612"
    },
    {
      "channel": 0,
      "note": 97,
      "start": 5.1176,
      "duration": 0.0624,
      "velocity": 110,
      "chip": "ym2612"
    },
    {
      "channel": 1,
      "note": 95,
      "start": 5.1178,
      "duration": 0.0051,
      "velocity": 110,
      "chip": "ym2612"
    },
    {
      "channel": 2,
      "note": 92,
      "start": 5.1183,
      "duration": 0.0049,
      "velocity": 98,
      "chip": "ym2612"
    },
    {
      "channel": 3,
      "note": 80,
      "start": 5.1185,
      "duration": 0.0623,
      "velocity": 110,
      "chip": "ym2612"
    },
    {
      "channel": 1,
      "note": 97,
      "start": 5.123,
      "duration": 0.1572,
      "velocity": 110,
      "chip": "ym2612"
    },
    {
      "channel": 2,
      "note": 92,
      "start": 5.1234,
      "duration": 0.0569,
      "velocity": 98,
      "chip": "ym2612"
    },
    {
      "channel": 4,
      "note": 56,
      "start": 5.1237,
      "duration": 0.0572,
      "velocity": 110,
      "chip": "ym2612"
    },
    {
      "channel": 0,
      "note": 97,
      "start": 5.1801,
      "duration": 0.1047,
      "velocity": 110,
      "chip": "ym2612"
    },
    {
      "channel": 2,
      "note": 104,
      "start": 5.1807,
      "duration": 0.0998,
      "velocity": 98,
      "chip": "ym2612"
    },
    {
      "channel": 3,
      "note": 80,
      "start": 5.1809,
      "duration": 0.1049,
      "velocity": 110,
      "chip": "ym2612"
    },
    {
      "channel": 1,
      "note": 97,
      "start": 5.2804,
      "duration": 0.0104,
      "velocity": 110,
      "chip": "ym2612"
    },
    {
      "channel": 2,
      "note": 104,
      "start": 5.2807,
      "duration": 0.0047,
      "velocity": 98,
      "chip": "ym2612"
    },
    {
      "channel": 4,
      "note": 66,
      "start": 5.2809,
      "duration": 0.0052,
      "velocity": 110,
      "chip": "ym2612"
    },
    {
      "channel": 0,
      "note": 94,
      "start": 5.2851,
      "duration": 0.0103,
      "velocity": 110,
      "chip": "ym2612"
    },
    {
      "channel": 2,
      "note": 92,
      "start": 5.2857,
      "duration": 0.0053,
      "velocity": 98,
      "chip": "ym2612"
    },
    {
      "channel": 3,
      "note": 78,
      "start": 5.286,
      "duration": 0.0102,
      "velocity": 110,
      "chip": "ym2612"
    },
    {
      "channel": 1,
      "note": 94,
      "start": 5.2909,
      "duration": 0.0106,
      "velocity": 110,
      "chip": "ym2612"
    },
    {
      "channel": 2,
      "note": 92,
      "start": 5.2912,
      "duration": 0.0046,
      "velocity": 98,
      "chip": "ym2612"
    },
    {
      "channel": 4,
      "note": 68,
      "start": 5.2916,
      "duration": 0.0049,
      "velocity": 110,
      "chip": "ym2612"
    },
    {
      "channel": 0,
      "note": 97,
      "start": 5.2957,
      "duration": 0.0619,
      "velocity": 110,
      "chip": "ym2612"
    },
    {
      "channel": 2,
      "note": 104,
      "start": 5.2962,
      "duration": 0.0056,
      "velocity": 98,
      "chip": "ym2612"
    },
    {
      "channel": 3,
      "note": 77,
      "start": 5.2964,
      "duration": 0.0619,
      "velocity": 110,
      "chip": "ym2612"
    },
    {
      "channel": 4,
      "note": 66,
      "start": 5.2967,
      "duration": 0.0619,
      "velocity": 110,
      "chip": "ym2612"
    },
    {
      "channel": 1,
      "note": 97,
      "start": 5.3017,
      "duration": 0.0617,
      "velocity": 110,
      "chip": "ym2612"
    },
    {
      "channel": 2,
      "note": 104,
      "start": 5.302,
      "duration": 0.056,
      "velocity": 98,
      "chip": "ym2612"
    },
    {
      "channel": 0,
      "note": 92,
      "start": 5.3579,
      "duration": 0.4785,
      "velocity": 110,
      "chip": "ym2612"
    },
    {
      "channel": 2,
      "note": 92,
      "start": 5.3583,
      "duration": 0.0054,
      "velocity": 98,
      "chip": "ym2612"
    },
    {
      "channel": 3,
      "note": 76,
      "start": 5.3585,
      "duration": 0.4786,
      "velocity": 110,
      "chip": "ym2612"
    },
    {
      "channel": 4,
      "note": 51,
      "start": 5.3587,
      "duration": 0.0053,
      "velocity": 110,
      "chip": "ym2612"
    },
    {
      "channel": 1,
      "note": 92,
      "start": 5.3635,
      "duration": 0.4799,
      "velocity": 110,
      "chip": "ym2612"
    },
    {
      "channel": 2,
      "note": 92,
      "start": 5.3639,
      "duration": 0.0556,
      "velocity": 98,
      "chip": "ym2612"
    },
    {
      "channel": 2,
      "note": 104,
      "start": 5.4198,
      "duration": 0.0998,
      "velocity": 98,
      "chip": "ym2612"
    },
    {
      "channel": 4,
      "note": 54,
      "start": 5.4202,
      "duration": 0.0998,
      "velocity": 110,
      "chip": "ym2612"
    },
    {
      "channel": 2,
      "note": 104,
      "start": 5.5199,
      "duration": 0.1168,
      "velocity": 98,
      "chip": "ym2612"
    },
    {
      "channel": 4,
      "note": 56,
      "start": 5.5202,
      "duration": 0.1168,
      "velocity": 110,
      "chip": "ym2612"
    },
    {
      "channel": 2,
      "note": 92,
      "start": 5.6369,
      "duration": 0.0049,
      "velocity": 98,
      "chip": "ym2612"
    },
    {
      "channel": 2,
      "note": 92,
      "start": 5.6421,
      "duration": 0.0057,
      "velocity": 98,
      "chip": "ym2612"
    },
    {
      "channel": 4,
      "note": 56,
      "start": 5.6423,
      "duration": 0.0059,
      "velocity": 110,
      "chip": "ym2612"
    },
    {
      "channel": 2,
      "note": 104,
      "start": 5.648,
      "duration": 0.0045,
      "velocity": 98,
      "chip": "ym2612"
    },
    {
      "channel": 2,
      "note": 104,
      "start": 5.6529,
      "duration": 0.0067,
      "velocity": 98,
      "chip": "ym2612"
    },
    {
      "channel": 4,
      "note": 54,
      "start": 5.6532,
      "duration": 0.0067,
      "velocity": 110,
      "chip": "ym2612"
    },
    {
      "channel": 2,
      "note": 92,
      "start": 5.6598,
      "duration": 0.0043,
      "velocity": 98,
      "chip": "ym2612"
    },
    {
      "channel": 2,
      "note": 92,
      "start": 5.6644,
      "duration": 0.0401,
      "velocity": 98,
      "chip": "ym2612"
    },
    {
      "channel": 4,
      "note": 55,
      "start": 5.6647,
      "duration": 0.0402,
      "velocity": 110,
      "chip": "ym2612"
    },
    {
      "channel": 2,
      "note": 104,
      "start": 5.7048,
      "duration": 0.1166,
      "velocity": 98,
      "chip": "ym2612"
    },
    {
      "channel": 4,
      "note": 56,
      "start": 5.7051,
      "duration": 0.1214,
      "velocity": 110,
      "chip": "ym2612"
    },
    {
      "channel": 2,
      "note": 104,
      "start": 5.8217,
      "duration": 0.0045,
      "velocity": 98,
      "chip": "ym2612"
    },
    {
      "channel": 2,
      "note": 92,
      "start": 5.8265,
      "duration": 0.0052,
      "velocity": 98,
      "chip": "ym2612"
    },
    {
      "channel": 4,
      "note": 68,
      "start": 5.8268,
      "duration": 0.0053,
      "velocity": 110,
      "chip": "ym2612"
    },
    {
      "channel": 2,
      "note": 92,
      "start": 5.832,
      "duration": 0.0048,
      "velocity": 98,
      "chip": "ym2612"
    },
    {
      "channel": 0,
      "note": 90,
      "start": 5.8365,
      "duration": 0.0067,
      "velocity": 110,
      "chip": "ym2612"
    },
    {
      "channel": 2,
      "note": 104,
      "start": 5.837,
      "duration": 0.0066,
      "velocity": 98,
      "chip": "ym2612"
    },
    {
      "channel": 3,
      "note": 75,
      "start": 5.8373,
      "duration": 0.0066,
      "velocity": 110,
      "chip": "ym2612"
    },
    {
      "channel": 4,
      "note": 56,
      "start": 5.8377,
      "duration": 0.0064,
      "velocity": 110,
      "chip": "ym2612"
    },
    {
      "channel": 0,
      "note": 92,
      "start": 5.8433,
      "duration": 0.0563,
      "velocity": 110,
      "chip": "ym2612"
    },
    {
      "channel": 1,
      "note": 90,
      "start": 5.8435,
      "duration": 0.0565,
      "velocity": 110,
      "chip": "ym2612"
    },
    {
      "channel": 2,
      "note": 104,
      "start": 5.8438,
      "duration": 0.0564,
      "velocity": 98,
      "chip": "ym2612"
    },
    {
      "channel": 3,
      "note": 76,
      "start": 5.844,
      "duration": 0.0566,
      "velocity": 110,
      "chip": "ym2612"
    },
    {
      "channel": 4,
      "note": 63,
      "start": 5.8443,
      "duration": 0.0566,
      "velocity": 110,
      "chip": "ym2612"
    },
    {
      "channel": 0,
      "note": 90,
      "start": 5.8999,
      "duration": 0.4837,
      "velocity": 110,
      "chip": "ym2612"
    },
    {
      "channel": 1,
      "note": 92,
      "start": 5.9002,
      "duration": 0.0047,
      "velocity": 110,
      "chip": "ym2612"
    },
    {
      "channel": 2,
      "note": 92,
      "start": 5.9006,
      "duration": 0.0045,
      "velocity": 98,
      "chip": "ym2612"
    },
    {
      "channel": 3,
      "note": 75,
      "start": 5.9008,
      "duration": 0.4836,
      "velocity": 110,
      "chip": "ym2612"
    },
    {
      "channel": 1,
      "note": 90,
      "start": 5.9051,
      "duration": 0.4835,
      "velocity": 110,
      "chip": "ym2612"
    },
    {
      "channel": 2,
      "note": 92,
      "start": 5.9054,
      "duration": 0.0564,
      "velocity": 98,
      "chip": "ym2612"
    },
    {
      "channel": 4,
      "note": 66,
      "start": 5.9056,
      "duration": 0.0565,
      "velocity": 110,
      "chip": "ym2612"
    },
    {
      "channel": 2,
      "note": 104,
      "start": 5.962,
      "duration": 0.0998,
      "velocity": 98,
      "chip": "ym2612"
    },
    {
      "channel": 4,
      "note": 67,
      "start": 5.9623,
      "duration": 0.0998,
      "velocity": 110,
      "chip": "ym2612"
    },
    {
      "channel": 2,
      "note": 104,
      "start": 6.0621,
      "duration": 0.1168,
      "velocity": 98,
      "chip": "ym2612"
    },
    {
      "channel": 2,
      "note": 92,
      "start": 6.1791,
      "duration": 0.0048,
      "velocity": 98,
      "chip": "ym2612"
    },
    {
      "channel": 4,
      "note": 68,
      "start": 6.1794,
      "duration": 0.0049,
      "velocity": 110,
      "chip": "ym2612"
    },
    {
      "channel": 2,
      "note": 92,
      "start": 6.1842,
      "duration": 0.0054,
      "velocity": 98,
      "chip": "ym2612"
    },
    {
      "channel": 4,
      "note": 63,
      "start": 6.1846,
      "duration": 0.0054,
      "velocity": 110,
      "chip": "ym2612"
    },
    {
      "channel": 2,
      "note": 104,
      "start": 6.1898,
      "duration": 0.0046,
      "velocity": 98,
      "chip": "ym2612"
    },
    {
      "channel": 2,
      "note": 104,
      "start": 6.1947,
      "duration": 0.0058,
      "velocity": 98,
      "chip": "ym2612"
    },
    {
      "channel": 4,
      "note": 68,
      "start": 6.1949,
      "duration": 0.006,
      "velocity": 110,
      "chip": "ym2612"
    },
    {
      "channel": 2,
      "note": 92,
      "start": 6.2008,
      "duration": 0.005,
      "velocity": 98,
      "chip": "ym2612"
    },
    {
      "channel": 4,
      "note": 68,
      "start": 6.2011,
      "duration": 0.005,
      "velocity": 110,
      "chip": "ym2612"
    },
    {
      "channel": 2,
      "note": 92,
      "start": 6.2061,
      "duration": 0.0561,
      "velocity": 98,
      "chip": "ym2612"
    },
    {
      "channel": 4,
      "note": 67,
      "start": 6.2064,
      "duration": 0.0562,
      "velocity": 110,
      "chip": "ym2612"
    },
    {
      "channel": 2,
      "note": 104,
      "start": 6.2625,
      "duration": 0.1166,
      "velocity": 98,
      "chip": "ym2612"
    },
    {
      "channel": 4,
      "note": 66,
      "start": 6.2628,
      "duration": 0.1166,
      "velocity": 110,
      "chip": "ym2612"
    },
    {
      "channel": 2,
      "note": 104,
      "start": 6.3794,
      "duration": 0.0047,
      "velocity": 98,
      "chip": "ym2612"
    },
    {
      "channel": 4,
      "note": 65,
      "start": 6.3797,
      "duration": 0.0048,
      "velocity": 110,
      "chip": "ym2612"
    },
    {
      "channel": 2,
      "note": 92,
      "start": 6.3843,
      "duration": 0.0044,
      "velocity": 98,
      "chip": "ym2612"
    },
    {
      "channel": 4,
      "note": 64,
      "start": 6.3846,
      "duration": 0.0044,
      "velocity": 110,
      "chip": "ym2612"
    },
    {
      "channel": 2,
      "note": 92,
      "start": 6.389,
      "duration": 0.003,
      "velocity": 98,
      "chip": "ym2612"
    },
    {
      "channel": 4,
      "note": 63,
      "start": 6.3893,
      "duration": 0.0031,
      "velocity": 110,
      "chip": "ym2612"
    },
    {
      "channel": 2,
      "note": 104,
      "start": 6.3923,
      "duration": 0.0029,
      "velocity": 98,
      "chip": "ym2612"
    },
    {
      "channel": 4,
      "note": 62,
      "start": 6.3926,
      "duration": 0.0029,
      "velocity": 110,
      "chip": "ym2612"
    },
    {
      "channel": 2,
      "note": 104,
      "start": 6.3954,
      "duration": 0.0574,
      "velocity": 98,
      "chip": "ym2612"
    },
    {
      "channel": 4,
      "note": 61,
      "start": 6.3956,
      "duration": 0.0579,
      "velocity": 110,
      "chip": "ym2612"
    },
    {
      "channel": 0,
      "note": 95,
      "start": 6.4527,
      "duration": 0.061,
      "velocity": 110,
      "chip": "ym2612"
    },
    {
      "channel": 2,
      "note": 92,
      "start": 6.453,
      "duration": 0.0045,
      "velocity": 98,
      "chip": "ym2612"
    },
    {
      "channel": 3,
      "note": 80,
      "start": 6.4533,
      "duration": 0.0612,
      "velocity": 110,
      "chip": "ym2612"
    },
    {
      "channel": 4,
      "note": 56,
      "start": 6.4537,
      "duration": 0.1612,
      "velocity": 110,
      "chip": "ym2612"
    },
    {
      "channel": 1,
      "note": 95,
      "start": 6.4574,
      "duration": 0.1565,
      "velocity": 110,
      "chip": "ym2612"
    },
    {
      "channel": 2,
      "note": 92,
      "start": 6.4577,
      "duration": 0.0563,
      "velocity": 98,
      "chip": "ym2612"
    },
    {
      "channel": 0,
      "note": 94,
      "start": 6.5139,
      "duration": 0.0998,
      "velocity": 110,
      "chip": "ym2612"
    },
    {
      "channel": 2,
      "note": 104,
      "start": 6.5144,
      "duration": 0.0999,
      "velocity": 98,
      "chip": "ym2612"
    },
    {
      "channel": 3,
      "note": 79,
      "start": 6.5146,
      "duration": 0.0999,
      "velocity": 110,
      "chip": "ym2612"
    },
    {
      "channel": 0,
      "note": 95,
      "start": 6.6139,
      "duration": 0.1167,
      "velocity": 110,
      "chip": "ym2612"
    },
    {
      "channel": 1,
      "note": 94,
      "start": 6.6142,
      "duration": 0.1167,
      "velocity": 110,
      "chip": "ym2612"
    },
    {
      "channel": 2,
      "note": 104,
      "start": 6.6145,
      "duration": 0.1167,
      "velocity": 98,
      "chip": "ym2612"
    },
    {
      "channel": 3,
      "note": 80,
      "start": 6.6148,
      "duration": 0.1167,
      "velocity": 110,
      "chip": "ym2612"
    },
    {
      "channel": 4,
      "note": 51,
      "start": 6.6151,
      "duration": 0.1168,
      "velocity": 110,
      "chip": "ym2612"
    },
    {
      "channel": 0,
      "note": 99,
      "start": 6.7309,
      "duration": 0.0108,
      "velocity": 110,
      "chip": "ym2612"
    },
    {
      "channel": 1,
      "note": 95,
      "start": 6.7312,
      "duration": 0.0056,
      "velocity": 110,
      "chip": "ym2612"
    },
    {
      "channel": 2,
      "note": 92,
      "start": 6.7315,
      "duration": 0.0055,
      "velocity": 98,
      "chip": "ym2612"
    },
    {
      "channel": 3,
      "note": 83,
      "start": 6.7317,
      "duration": 0.0108,
      "velocity": 110,
      "chip": "ym2612"
    },
    {
      "channel": 1,
      "note": 99,
      "start": 6.737,
      "duration": 0.0112,
      "velocity": 110,
      "chip": "ym2612"
    },
    {
      "channel": 2,
      "note": 92,
      "start": 6.7372,
      "duration": 0.0048,
      "velocity": 98,
      "chip": "ym2612"
    },
    {
      "channel": 4,
      "note": 56,
      "start": 6.7375,
      "duration": 0.0052,
      "velocity": 110,
      "chip": "ym2612"
    },
    {
      "channel": 0,
      "note": 97,
      "start": 6.7419,
      "duration": 0.006,
      "velocity": 110,
      "chip": "ym2612"
    },
    {
      "channel": 2,
      "note": 104,
      "start": 6.7424,
      "duration": 0.006,
      "velocity": 98,
      "chip": "ym2612"
    },
    {
      "channel": 3,
      "note": 82,
      "start": 6.7427,
      "duration": 0.006,
      "velocity": 110,
      "chip": "ym2612"
    },
    {
      "channel": 0,
      "note": 95,
      "start": 6.7481,
      "duration": 0.0058,
      "velocity": 110,
      "chip": "ym2612"
    },
    {
      "channel": 1,
      "note": 97,
      "start": 6.7483,
      "duration": 0.006,
      "velocity": 110,
      "chip": "ym2612"
    },
    {
      "channel": 2,
      "note": 104,
      "start": 6.7486,
      "duration": 0.006,
      "velocity": 98,
      "chip": "ym2612"
    },
    {
      "channel": 3,
      "note": 80,
      "start": 6.7489,
      "duration": 0.006,
      "velocity": 110,
      "chip": "ym2612"
    },
    {
      "channel": 4,
      "note": 54,
      "start": 6.7492,
      "duration": 0.0059,
      "velocity": 110,
      "chip": "ym2612"
    },
    {
      "channel": 0,
      "note": 97,
      "start": 6.7543,
      "duration": 0.0281,
      "velocity": 110,
      "chip": "ym2612"
    },
    {
      "channel": 1,
      "note": 95,
      "start": 6.7545,
      "duration": 0.0055,
      "velocity": 110,
      "chip": "ym2612"
    },
    {
      "channel": 2,
      "note": 92,
      "start": 6.7548,
      "duration": 0.0054,
      "velocity": 98,
      "chip": "ym2612"
    },
    {
      "channel": 3,
      "note": 82,
      "start": 6.7551,
      "duration": 0.0615,
      "velocity": 110,
      "chip": "ym2612"
    },
    {
      "channel": 1,
      "note": 97,
      "start": 6.7601,
      "duration": 0.1224,
      "velocity": 110,
      "chip": "ym2612"
    },
    {
      "channel": 2,
      "note": 92,
      "start": 6.7604,
      "duration": 0.0558,
      "velocity": 98,
      "chip": "ym2612"
    },
    {
      "channel": 4,
      "note": 55,
      "start": 6.7606,
      "duration": 0.0562,
      "velocity": 110,
      "chip": "ym2612"
    },
    {
      "channel": 0,
      "note": 97,
      "start": 6.8159,
      "duration": 0.1166,
      "velocity": 110,
      "chip": "ym2612"
    },
    {
      "channel": 2,
      "note": 104,
      "start": 6.8165,
      "duration": 0.1166,
      "velocity": 98,
      "chip": "ym2612"
    },
    {
      "channel": 3,
      "note": 82,
      "start": 6.8167,
      "duration": 0.1167,
      "velocity": 110,
      "chip": "ym2612"
    },
    {
      "channel": 4,
      "note": 56,
      "start": 6.817,
      "duration": 0.1218,
      "velocity": 110,
      "chip": "ym2612"
    },
    {
      "channel": 0,
      "note": 94,
      "start": 6.9327,
      "duration": 0.0051,
      "velocity": 110,
      "chip": "ym2612"
    },
    {
      "channel": 1,
      "note": 97,
      "start": 6.933,
      "duration": 0.005,
      "velocity": 110,
      "chip": "ym2612"
    },
    {
      "channel": 2,
      "note": 104,
      "start": 6.9334,
      "duration": 0.005,
      "velocity": 98,
      "chip": "ym2612"
    },
    {
      "channel": 3,
      "note": 78,
      "start": 6.9336,
      "duration": 0.0051,
      "velocity": 110,
      "chip": "ym2612"
    },
    {
      "channel": 1,
      "note": 94,
      "start": 6.9383,
      "duration": 0.0043,
      "velocity": 110,
      "chip": "ym2612"
    },
    {
      "channel": 2,
      "note": 92,
      "start": 6.9386,
      "duration": 0.0041,
      "velocity": 98,
      "chip": "ym2612"
    },
    {
      "channel": 4,
      "note": 68,
      "start": 6.9391,
      "duration": 0.0042,
      "velocity": 110,
      "chip": "ym2612"
    },
    {
      "channel": 0,
      "note": 95,
      "start": 6.9424,
      "duration": 0.0056,
      "velocity": 110,
      "chip": "ym2612"
    },
    {
      "channel": 2,
      "note": 92,
      "start": 6.943,
      "duration": 0.0057,
      "velocity": 98,
      "chip": "ym2612"
    },
    {
      "channel": 3,
      "note": 83,
      "start": 6.9432,
      "duration": 0.0058,
      "velocity": 110,
      "chip": "ym2612"
    },
    {
      "channel": 0,
      "note": 94,
      "start": 6.9483,
      "duration": 0.0058,
      "velocity": 110,
      "chip": "ym2612"
    },
    {
      "channel": 1,
      "note": 95,
      "start": 6.9486,
      "duration": 0.0057,
      "velocity": 110,
      "chip": "ym2612"
    },
    {
      "channel": 2,
      "note": 104,
      "start": 6.9489,
      "duration": 0.0056,
      "velocity": 98,
      "chip": "ym2612"
    },
    {
      "channel": 3,
      "note": 85,
      "start": 6.9492,
      "duration": 0.0056,
      "velocity": 110,
      "chip": "ym2612"
    },
    {
      "channel": 4,
      "note": 56,
      "start": 6.9495,
      "duration": 0.0056,
      "velocity": 110,
      "chip": "ym2612"
    },
    {
      "channel": 0,
      "note": 92,
      "start": 6.9542,
      "duration": 0.057,
      "velocity": 110,
      "chip": "ym2612"
    },
    {
      "channel": 1,
      "note": 94,
      "start": 6.9545,
      "duration": 0.057,
      "velocity": 110,
      "chip": "ym2612"
    },
    {
      "channel": 2,
      "note": 104,
      "start": 6.9548,
      "duration": 0.0569,
      "velocity": 98,
      "chip": "ym2612"
    },
    {
      "channel": 3,
      "note": 86,
      "start": 6.955,
      "duration": 0.0571,
      "velocity": 110,
      "chip": "ym2612"
    },
    {
      "channel": 4,
      "note": 63,
      "start": 6.9553,
      "duration": 0.0571,
      "velocity": 110,
      "chip": "ym2612"
    },
    {
      "channel": 0,
      "note": 95,
      "start": 7.0114,
      "duration": 0.0616,
      "velocity": 110,
      "chip": "ym2612"
    },
    {
      "channel": 1,
      "note": 92,
      "start": 7.0117,
      "duration": 0.0047,
      "velocity": 110,
      "chip": "ym2612"
    },
    {
      "channel": 2,
      "note": 92,
      "start": 7.0121,
      "duration": 0.0045,
      "velocity": 98,
      "chip": "ym2612"
    },
    {
      "channel": 3,
      "note": 87,
      "start": 7.0123,
      "duration": 0.0615,
      "velocity": 110,
      "chip": "ym2612"
    },
    {
      "channel": 1,
      "note": 95,
      "start": 7.0166,
      "duration": 0.1567,
      "velocity": 110,
      "chip": "ym2612"
    },
    {
      "channel": 2,
      "note": 92,
      "start": 7.0168,
      "duration": 0.0566,
      "velocity": 98,
      "chip": "ym2612"
    },
    {
      "channel": 4,
      "note": 66,
      "start": 7.0172,
      "duration": 0.0569,
      "velocity": 110,
      "chip": "ym2612"
    },
    {
      "channel": 0,
      "note": 94,
      "start": 7.0732,
      "duration": 0.0998,
      "velocity": 110,
      "chip": "ym2612"
    },
    {
      "channel": 2,
      "note": 104,
      "start": 7.0737,
      "duration": 0.0999,
      "velocity": 98,
      "chip": "ym2612"
    },
    {
      "channel": 3,
      "note": 86,
      "start": 7.0741,
      "duration": 0.0999,
      "velocity": 110,
      "chip": "ym2612"
    },
    {
      "channel": 4,
      "note": 67,
      "start": 7.0743,
      "duration": 0.0999,
      "velocity": 110,
      "chip": "ym2612"
    },
    {
      "channel": 0,
      "note": 95,
      "start": 7.1732,
      "duration": 0.1001,
      "velocity": 110,
      "chip": "ym2612"
    },
    {
      "channel": 1,
      "note": 94,
      "start": 7.1735,
      "duration": 0.1001,
      "velocity": 110,
      "chip": "ym2612"
    },
    {
      "channel": 2,
      "note": 104,
      "start": 7.1739,
      "duration": 0.1,
      "velocity": 98,
      "chip": "ym2612"
    },
    {
      "channel": 3,
      "note": 87,
      "start": 7.1742,
      "duration": 0.1,
      "velocity": 110,
      "chip": "ym2612"
    },
    {
      "channel": 0,
      "note": 99,
      "start": 7.2735,
      "duration": 0.0113,
      "velocity": 110,
      "chip": "ym2612"
    },
    {
      "channel": 1,
      "note": 95,
      "start": 7.2738,
      "duration": 0.0062,
      "velocity": 110,
      "chip": "ym2612"
    },
    {
      "channel": 2,
      "note": 92,
      "start": 7.2742,
      "duration": 0.0061,
      "velocity": 98,
      "chip": "ym2612"
    },
    {
      "channel": 3,
      "note": 90,
      "start": 7.2744,
      "duration": 0.0111,
      "velocity": 110,
      "chip": "ym2612"
    },
    {
      "channel": 4,
      "note": 68,
      "start": 7.2747,
      "duration": 0.006,
      "velocity": 110,
      "chip": "ym2612"
    },
    {
      "channel": 1,
      "note": 99,
      "start": 7.2802,
      "duration": 0.0109,
      "velocity": 110,
      "chip": "ym2612"
    },
    {
      "channel": 2,
      "note": 92,
      "start": 7.2806,
      "duration": 0.0046,
      "velocity": 98,
      "chip": "ym2612"
    },
    {
      "channel": 4,
      "note": 63,
      "start": 7.2808,
      "duration": 0.0049,
      "velocity": 110,
      "chip": "ym2612"
    },
    {
      "channel": 0,
      "note": 97,
      "start": 7.2849,
      "duration": 0.0059,
      "velocity": 110,
      "chip": "ym2612"
    },
    {
      "channel": 2,
      "note": 104,
      "start": 7.2854,
      "duration": 0.0059,
      "velocity": 98,
      "chip": "ym2612"
    },
    {
      "channel": 3,
      "note": 88,
      "start": 7.2857,
      "duration": 0.006,
      "velocity": 110,
      "chip": "ym2612"
    },
    {
      "channel": 0,
      "note": 95,
      "start": 7.2911,
      "duration": 0.0058,
      "velocity": 110,
      "chip": "ym2612"
    },
    {
      "channel": 1,
      "note": 97,
      "start": 7.2912,
      "duration": 0.0059,
      "velocity": 110,
      "chip": "ym2612"
    },
    {
      "channel": 2,
      "note": 104,
      "start": 7.2916,
      "duration": 0.0057,
      "velocity": 98,
      "chip": "ym2612"
    },
    {
      "channel": 3,
      "note": 87,
      "start": 7.2918,
      "duration": 0.0058,
      "velocity": 110,
      "chip": "ym2612"
    },
    {
      "channel": 4,
      "note": 68,
      "start": 7.2921,
      "duration": 0.0058,
      "velocity": 110,
      "chip": "ym2612"
    },
    {
      "channel": 0,
      "note": 97,
      "start": 7.2971,
      "duration": 0.0621,
      "velocity": 110,
      "chip": "ym2612"
    },
    {
      "channel": 1,
      "note": 95,
      "start": 7.2973,
      "duration": 0.0057,
      "velocity": 110,
      "chip": "ym2612"
    },
    {
      "channel": 2,
      "note": 92,
      "start": 7.2976,
      "duration": 0.0057,
      "velocity": 98,
      "chip": "ym2612"
    },
    {
      "channel": 3,
      "note": 88,
      "start": 7.2978,
      "duration": 0.0621,
      "velocity": 110,
      "chip": "ym2612"
    },
    {
      "channel": 1,
      "note": 97,
      "start": 7.3032,
      "duration": 0.1562,
      "velocity": 110,
      "chip": "ym2612"
    },
    {
      "channel": 2,
      "note": 92,
      "start": 7.3035,
      "duration": 0.056,
      "velocity": 98,
      "chip": "ym2612"
    },
    {
      "channel": 4,
      "note": 56,
      "start": 7.3037,
      "duration": 0.0564,
      "velocity": 110,
      "chip": "ym2612"
    },
    {
      "channel": 0,
      "note": 97,
      "start": 7.3593,
      "duration": 0.1052,
      "velocity": 110,
      "chip": "ym2612"
    },
    {
      "channel": 2,
      "note": 104,
      "start": 7.3598,
      "duration": 0.0998,
      "velocity": 98,
      "chip": "ym2612"
    },
    {
      "channel": 3,
      "note": 88,
      "start": 7.3601,
      "duration": 0.1053,
      "velocity": 110,
      "chip": "ym2612"
    },
    {
      "channel": 1,
      "note": 97,
      "start": 7.4595,
      "duration": 0.0101,
      "velocity": 110,
      "chip": "ym2612"
    },
    {
      "channel": 2,
      "note": 104,
      "start": 7.4599,
      "duration": 0.0051,
      "velocity": 98,
      "chip": "ym2612"
    },
    {
      "channel": 4,
      "note": 66,
      "start": 7.4601,
      "duration": 0.0055,
      "velocity": 110,
      "chip": "ym2612"
    },
    {
      "channel": 0,
      "note": 94,
      "start": 7.4648,
      "duration": 0.0102,
      "velocity": 110,
      "chip": "ym2612"
    },
    {
      "channel": 2,
      "note": 92,
      "start": 7.4653,
      "duration": 0.0046,
      "velocity": 98,
      "chip": "ym2612"
    },
    {
      "channel": 3,
      "note": 85,
      "start": 7.4655,
      "duration": 0.0103,
      "velocity": 110,
      "chip": "ym2612"
    },
    {
      "channel": 1,
      "note": 94,
      "start": 7.4698,
      "duration": 0.0106,
      "velocity": 110,
      "chip": "ym2612"
    },
    {
      "channel": 2,
      "note": 92,
      "start": 7.4701,
      "duration": 0.0053,
      "velocity": 98,
      "chip": "ym2612"
    },
    {
      "channel": 4,
      "note": 68,
      "start": 7.4705,
      "duration": 0.0056,
      "velocity": 110,
      "chip": "ym2612"
    },
    {
      "channel": 0,
      "note": 97,
      "start": 7.4753,
      "duration": 0.062,
      "velocity": 110,
      "chip": "ym2612"
    },
    {
      "channel": 2,
      "note": 104,
      "start": 7.4757,
      "duration": 0.005,
      "velocity": 98,
      "chip": "ym2612"
    },
    {
      "channel": 3,
      "note": 88,
      "start": 7.476,
      "duration": 0.0621,
      "velocity": 110,
      "chip": "ym2612"
    },
    {
      "channel": 4,
      "note": 66,
      "start": 7.4763,
      "duration": 0.0619,
      "velocity": 110,
      "chip": "ym2612"
    },
    {
      "channel": 1,
      "note": 97,
      "start": 7.4806,
      "duration": 0.0618,
      "velocity": 110,
      "chip": "ym2612"
    },
    {
      "channel": 2,
      "note": 104,
      "start": 7.4809,
      "duration": 0.0568,
      "velocity": 98,
      "chip": "ym2612"
    },
    {
      "channel": 0,
      "note": 92,
      "start": 7.5375,
      "duration": 0.4516,
      "velocity": 110,
      "chip": "ym2612"
    },
    {
      "channel": 2,
      "note": 92,
      "start": 7.5379,
      "duration": 0.0048,
      "velocity": 98,
      "chip": "ym2612"
    },
    {
      "channel": 3,
      "note": 83,
      "start": 7.5381,
      "duration": 0.4518,
      "velocity": 110,
      "chip": "ym2612"
    },
    {
      "channel": 4,
      "note": 51,
      "start": 7.5384,
      "duration": 0.0047,
      "velocity": 110,
      "chip": "ym2612"
    },
    {
      "channel": 1,
      "note": 92,
      "start": 7.5426,
      "duration": 0.4519,
      "velocity": 110,
      "chip": "ym2612"
    },
    {
      "channel": 2,
      "note": 92,
      "start": 7.543,
      "duration": 0.0397,
      "velocity": 98,
      "chip": "ym2612"
    },
    {
      "channel": 2,
      "note": 104,
      "start": 7.5829,
      "duration": 0.1164,
      "velocity": 98,
      "chip": "ym2612"
    },
    {
      "channel": 4,
      "note": 54,
      "start": 7.5833,
      "duration": 0.1164,
      "velocity": 110,
      "chip": "ym2612"
    },
    {
      "channel": 2,
      "note": 104,
      "start": 7.6997,
      "duration": 0.1001,
      "velocity": 98,
      "chip": "ym2612"
    },
    {
      "channel": 4,
      "note": 56,
      "start": 7.7,
      "duration": 0.1001,
      "velocity": 110,
      "chip": "ym2612"
    },
    {
      "channel": 2,
      "note": 92,
      "start": 7.8001,
      "duration": 0.0056,
      "velocity": 98,
      "chip": "ym2612"
    },
    {
      "channel": 2,
      "note": 92,
      "start": 7.806,
      "duration": 0.0047,
      "velocity": 98,
      "chip": "ym2612"
    },
    {
      "channel": 4,
      "note": 56,
      "start": 7.8063,
      "duration": 0.0048,
      "velocity": 110,
      "chip": "ym2612"
    },
    {
      "channel": 2,
      "note": 104,
      "start": 7.811,
      "duration": 0.0054,
      "velocity": 98,
      "chip": "ym2612"
    },
    {
      "channel": 2,
      "note": 104,
      "start": 7.8166,
      "duration": 0.0059,
      "velocity": 98,
      "chip": "ym2612"
    },
    {
      "channel": 4,
      "note": 54,
      "start": 7.8168,
      "duration": 0.006,
      "velocity": 110,
      "chip": "ym2612"
    },
    {
      "channel": 2,
      "note": 92,
      "start": 7.8227,
      "duration": 0.0044,
      "velocity": 98,
      "chip": "ym2612"
    },
    {
      "channel": 2,
      "note": 92,
      "start": 7.8275,
      "duration": 0.0566,
      "velocity": 98,
      "chip": "ym2612"
    },
    {
      "channel": 4,
      "note": 55,
      "start": 7.8278,
      "duration": 0.0567,
      "velocity": 110,
      "chip": "ym2612"
    },
    {
      "channel": 2,
      "note": 104,
      "start": 7.8844,
      "duration": 0.0999,
      "velocity": 98,
      "chip": "ym2612"
    },
    {
      "channel": 4,
      "note": 56,
      "start": 7.8847,
      "duration": 0.1055,
      "velocity": 110,
      "chip": "ym2612"
    },
    {
      "channel": 2,
      "note": 104,
      "start": 7.9846,
      "duration": 0.005,
      "velocity": 98,
      "chip": "ym2612"
    },
    {
      "channel": 0,
      "note": 104,
      "start": 7.9893,
      "duration": 0.0559,
      "velocity": 110,
      "chip": "ym2612"
    },
    {
      "channel": 2,
      "note": 92,
      "start": 7.9899,
      "duration": 0.0049,
      "velocity": 98,
      "chip": "ym2612"
    },
    {
      "channel": 3,
      "note": 83,
      "start": 7.9901,
      "duration": 0.0562,
      "velocity": 110,
      "chip": "ym2612"
    },
    {
      "channel": 4,
      "note": 68,
      "start": 7.9904,
      "duration": 0.0048,
      "velocity": 110,
      "chip": "ym2612"
    },
    {
      "channel": 1,
      "note": 104,
      "start": 7.9947,
      "duration": 0.0566,
      "velocity": 110,
      "chip": "ym2612"
    },
    {
      "channel": 2,
      "note": 92,
      "start": 7.9951,
      "duration": 0.0055,
      "velocity": 98,
      "chip": "ym2612"
    },
    {
      "channel": 2,
      "note": 104,
      "start": 8.0008,
      "duration": 0.0042,
      "velocity": 98,
      "chip": "ym2612"
    },
    {
      "channel": 4,
      "note": 56,
      "start": 8.0012,
      "duration": 0.0042,
      "velocity": 110,
      "chip": "ym2612"
    },
    {
      "channel": 2,
      "note": 104,
      "start": 8.0053,
      "duration": 0.0405,
      "velocity": 98,
      "chip": "ym2612"
    },
    {
      "channel": 4,
      "note": 63,
      "start": 8.0056,
      "duration": 0.041,
      "velocity": 110,
      "chip": "ym2612"
    },
    {
      "channel": 0,
      "note": 102,
      "start": 8.0455,
      "duration": 0.0951,
      "velocity": 110,
      "chip": "ym2612"
    },
    {
      "channel": 2,
      "note": 92,
      "start": 8.0462,
      "duration": 0.0054,
      "velocity": 98,
      "chip": "ym2612"
    },
    {
      "channel": 3,
      "note": 82,
      "start": 8.0465,
      "duration": 0.0951,
      "velocity": 110,
      "chip": "ym2612"
    },
    {
      "channel": 1,
      "note": 102,
      "start": 8.0515,
      "duration": 0.0954,
      "velocity": 110,
      "chip": "ym2612"
    },
    {
      "channel": 2,
      "note": 92,
      "start": 8.0518,
      "duration": 0.056,
      "velocity": 98,
      "chip": "ym2612"
    },
    {
      "channel": 4,
      "note": 64,
      "start": 8.0522,
      "duration": 0.056,
      "velocity": 110,
      "chip": "ym2612"
    },
    {
      "channel": 2,
      "note": 104,
      "start": 8.1081,
      "duration": 0.0052,
      "velocity": 98,
      "chip": "ym2612"
    },
    {
      "channel": 4,
      "note": 65,
      "start": 8.1085,
      "duration": 0.0053,
      "velocity": 110,
      "chip": "ym2612"
    },
    {
      "channel": 2,
      "note": 104,
      "start": 8.1137,
      "duration": 0.0042,
      "velocity": 98,
      "chip": "ym2612"
    },
    {
      "channel": 2,
      "note": 92,
      "start": 8.1182,
      "duration": 0.0056,
      "velocity": 98,
      "chip": "ym2612"
    },
    {
      "channel": 4,
      "note": 66,
      "start": 8.1185,
      "duration": 0.0057,
      "velocity": 110,
      "chip": "ym2612"
    },
    {
      "channel": 2,
      "note": 92,
      "start": 8.1241,
      "duration": 0.0054,
      "velocity": 98,
      "chip": "ym2612"
    },
    {
      "channel": 4,
      "note": 61,
      "start": 8.1244,
      "duration": 0.0055,
      "velocity": 110,
      "chip": "ym2612"
    },
    {
      "channel": 2,
      "note": 104,
      "start": 8.1298,
      "duration": 0.0045,
      "velocity": 98,
      "chip": "ym2612"
    },
    {
      "channel": 2,
      "note": 104,
      "start": 8.1346,
      "duration": 0.0066,
      "velocity": 98,
      "chip": "ym2612"
    },
    {
      "channel": 4,
      "note": 66,
      "start": 8.1349,
      "duration": 0.007,
      "velocity": 110,
      "chip": "ym2612"
    },
    {
      "channel": 0,
      "note": 99,
      "start": 8.1409,
      "duration": 0.0215,
      "velocity": 110,
      "chip": "ym2612"
    },
    {
      "channel": 2,
      "note": 92,
      "start": 8.1415,
      "duration": 0.0057,
      "velocity": 98,
      "chip": "ym2612"
    },
    {
      "channel": 3,
      "note": 78,
      "start": 8.1419,
      "duration": 0.0214,
      "velocity": 110,
      "chip": "ym2612"
    },
    {
      "channel": 1,
      "note": 99,
      "start": 8.1471,
      "duration": 0.0205,
      "velocity": 110,
      "chip": "ym2612"
    },
    {
      "channel": 2,
      "note": 92,
      "start": 8.1475,
      "duration": 0.0051,
      "velocity": 98,
      "chip": "ym2612"
    },
    {
      "channel": 4,
      "note": 61,
      "start": 8.1477,
      "duration": 0.0052,
      "velocity": 110,
      "chip": "ym2612"
    },
    {
      "channel": 2,
      "note": 104,
      "start": 8.1528,
      "duration": 0.0044,
      "velocity": 98,
      "chip": "ym2612"
    },
    {
      "channel": 2,
      "note": 104,
      "start": 8.1575,
      "duration": 0.0055,
      "velocity": 98,
      "chip": "ym2612"
    },
    {
      "channel": 4,
      "note": 64,
      "start": 8.1578,
      "duration": 0.0057,
      "velocity": 110,
      "chip": "ym2612"
    },
    {
      "channel": 0,
      "note": 102,
      "start": 8.1627,
      "duration": 0.0194,
      "velocity": 110,
      "chip": "ym2612"
    },
    {
      "channel": 2,
      "note": 92,
      "start": 8.1632,
      "duration": 0.0048,
      "velocity": 98,
      "chip": "ym2612"
    },
    {
      "channel": 3,
      "note": 82,
      "start": 8.1635,
      "duration": 0.0195,
      "velocity": 110,
      "chip": "ym2612"
    },
    {
      "channel": 1,
      "note": 102,
      "start": 8.1679,
      "duration": 0.0208,
      "velocity": 110,
      "chip": "ym2612"
    },
    {
      "channel": 2,
      "note": 92,
      "start": 8.1682,
      "duration": 0.0044,
      "velocity": 98,
      "chip": "ym2612"
    },
    {
      "channel": 4,
      "note": 66,
      "start": 8.1685,
      "duration": 0.0045,
      "velocity": 110,
      "chip": "ym2612"
    },
    {
      "channel": 2,
      "note": 104,
      "start": 8.1729,
      "duration": 0.005,
      "velocity": 98,
      "chip": "ym2612"
    },
    {
      "channel": 4,
      "note": 61,
      "start": 8.1731,
      "duration": 0.0102,
      "velocity": 110,
      "chip": "ym2612"
    },
    {
      "channel": 2,
      "note": 104,
      "start": 8.178,
      "duration": 0.0045,
      "velocity": 98,
      "chip": "ym2612"
    },
    {
      "channel": 0,
      "note": 103,
      "start": 8.1823,
      "duration": 0.5383,
      "velocity": 110,
      "chip": "ym2612"
    },
    {
      "channel": 2,
      "note": 87,
      "start": 8.1829,
      "duration": 0.0061,
      "velocity": 98,
      "chip": "ym2612"
    },
    {
      "channel": 3,
      "note": 88,
      "start": 8.1832,
      "duration": 0.062,
      "velocity": 110,
      "chip": "ym2612"
    },
    {
      "channel": 4,
      "note": 51,
      "start": 8.1836,
      "duration": 0.0619,
      "velocity": 110,
      "chip": "ym2612"
    },
    {
      "channel": 1,
      "note": 103,
      "start": 8.1889,
      "duration": 0.5377,
      "velocity": 110,
      "chip": "ym2612"
    },
    {
      "channel": 2,
      "note": 87,
      "start": 8.1892,
      "duration": 0.0556,
      "velocity": 98,
      "chip": "ym2612"
    },
    {
      "channel": 2,
      "note": 99,
      "start": 8.2451,
      "duration": 0.1164,
      "velocity": 98,
      "chip": "ym2612"
    },
    {
      "channel": 3,
      "note": 87,
      "start": 8.2454,
      "duration": 0.1165,
      "velocity": 110,
      "chip": "ym2612"
    },
    {
      "channel": 4,
      "note": 51,
      "start": 8.2457,
      "duration": 0.2168,
      "velocity": 110,
      "chip": "ym2612"
    },
    {
      "channel": 2,
      "note": 99,
      "start": 8.3618,
      "duration": 0.1001,
      "velocity": 98,
      "chip": "ym2612"
    },
    {
      "channel": 3,
      "note": 88,
      "start": 8.3621,
      "duration": 0.1002,
      "velocity": 110,
      "chip": "ym2612"
    },
    {
      "channel": 2,
      "note": 87,
      "start": 8.4622,
      "duration": 0.0045,
      "velocity": 98,
      "chip": "ym2612"
    },
    {
      "channel": 3,
      "note": 87,
      "start": 8.4624,
      "duration": 0.0097,
      "velocity": 110,
      "chip": "ym2612"
    },
    {
      "channel": 4,
      "note": 51,
      "start": 8.4627,
      "duration": 0.0098,
      "velocity": 110,
      "chip": "ym2612"
    },
    {
      "channel": 2,
      "note": 87,
      "start": 8.4671,
      "duration": 0.0048,
      "velocity": 98,
      "chip": "ym2612"
    },
    {
      "channel": 2,
      "note": 99,
      "start": 8.472,
      "duration": 0.0047,
      "velocity": 98,
      "chip": "ym2612"
    },
    {
      "channel": 3,
      "note": 85,
      "start": 8.4724,
      "duration": 0.0047,
      "velocity": 110,
      "chip": "ym2612"
    },
    {
      "channel": 4,
      "note": 51,
      "start": 8.4727,
      "duration": 0.0103,
      "velocity": 110,
      "chip": "ym2612"
    },
    {
      "channel": 2,
      "note": 99,
      "start": 8.477,
      "duration": 0.0054,
      "velocity": 98,
      "chip": "ym2612"
    },
    {
      "channel": 3,
      "note": 83,
      "start": 8.4773,
      "duration": 0.0055,
      "velocity": 110,
      "chip": "ym2612"
    },
    {
      "channel": 2,
      "note": 87,
      "start": 8.4826,
      "duration": 0.0045,
      "velocity": 98,
      "chip": "ym2612"
    },
    {
      "channel": 3,
      "note": 85,
      "start": 8.4829,
      "duration": 0.0612,
      "velocity": 110,
      "chip": "ym2612"
    },
    {
      "channel": 4,
      "note": 51,
      "start": 8.4832,
      "duration": 0.0612,
      "velocity": 110,
      "chip": "ym2612"
    },
    {
      "channel": 2,
      "note": 87,
      "start": 8.4874,
      "duration": 0.0563,
      "velocity": 98,
      "chip": "ym2612"
    },
    {
      "channel": 2,
      "note": 99,
      "start": 8.544,
      "duration": 0.0999,
      "velocity": 98,
      "chip": "ym2612"
    },
    {
      "channel": 3,
      "note": 83,
      "start": 8.5443,
      "duration": 0.1,
      "velocity": 110,
      "chip": "ym2612"
    },
    {
      "channel": 4,
      "note": 51,
      "start": 8.5445,
      "duration": 0.1049,
      "velocity": 110,
      "chip": "ym2612"
    },
    {
      "channel": 2,
      "note": 99,
      "start": 8.6442,
      "duration": 0.0045,
      "velocity": 98,
      "chip": "ym2612"
    },
    {
      "channel": 3,
      "note": 85,
      "start": 8.6445,
      "duration": 0.0046,
      "velocity": 110,
      "chip": "ym2612"
    },
    {
      "channel": 2,
      "note": 87,
      "start": 8.649,
      "duration": 0.0052,
      "velocity": 98,
      "chip": "ym2612"
    },
    {
      "channel": 3,
      "note": 83,
      "start": 8.6493,
      "duration": 0.01,
      "velocity": 110,
      "chip": "ym2612"
    },
    {
      "channel": 4,
      "note": 51,
      "start": 8.6495,
      "duration": 0.0101,
      "velocity": 110,
      "chip": "ym2612"
    },
    {
      "channel": 2,
      "note": 87,
      "start": 8.6545,
      "duration": 0.0046,
      "velocity": 98,
      "chip": "ym2612"
    },
    {
      "channel": 2,
      "note": 99,
      "start": 8.6593,
      "duration": 0.0051,
      "velocity": 98,
      "chip": "ym2612"
    },
    {
      "channel": 3,
      "note": 82,
      "start": 8.6595,
      "duration": 0.0052,
      "velocity": 110,
      "chip": "ym2612"
    },
    {
      "channel": 4,
      "note": 51,
      "start": 8.6598,
      "duration": 0.0052,
      "velocity": 110,
      "chip": "ym2612"
    },
    {
      "channel": 2,
      "note": 99,
      "start": 8.6647,
      "duration": 0.0565,
      "velocity": 98,
      "chip": "ym2612"
    },
    {
      "channel": 3,
      "note": 80,
      "start": 8.665,
      "duration": 0.0566,
      "velocity": 110,
      "chip": "ym2612"
    },
    {
      "channel": 4,
      "note": 51,
      "start": 8.6651,
      "duration": 0.0567,
      "velocity": 110,
      "chip": "ym2612"
    },
    {
      "channel": 0,
      "note": 100,
      "start": 8.7208,
      "duration": 0.2989,
      "velocity": 110,
      "chip": "ym2612"
    },
    {
      "channel": 2,
      "note": 91,
      "start": 8.7215,
      "duration": 0.0054,
      "velocity": 98,
      "chip": "ym2612"
    },
    {
      "channel": 3,
      "note": 82,
      "start": 8.7217,
      "duration": 0.0611,
      "velocity": 110,
      "chip": "ym2612"
    },
    {
      "channel": 4,
      "note": 55,
      "start": 8.722,
      "duration": 0.0612,
      "velocity": 110,
      "chip": "ym2612"
    },
    {
      "channel": 1,
      "note": 100,
      "start": 8.7268,
      "duration": 0.2983,
      "velocity": 110,
      "chip": "ym2612"
    },
    {
      "channel": 2,
      "note": 91,
      "start": 8.7271,
      "duration": 0.0554,
      "velocity": 98,
      "chip": "ym2612"
    },
    {
      "channel": 2,
      "note": 103,
      "start": 8.7827,
      "duration": 0.0998,
      "velocity": 98,
      "chip": "ym2612"
    },
    {
      "channel": 3,
      "note": 80,
      "start": 8.7831,
      "duration": 0.0998,
      "velocity": 110,
      "chip": "ym2612"
    },
    {
      "channel": 4,
      "note": 55,
      "start": 8.7833,
      "duration": 0.2169,
      "velocity": 110,
      "chip": "ym2612"
    },
    {
      "channel": 2,
      "note": 103,
      "start": 8.8828,
      "duration": 0.1168,
      "velocity": 98,
      "chip": "ym2612"
    },
    {
      "channel": 3,
      "note": 82,
      "start": 8.8831,
      "duration": 0.1169,
      "velocity": 110,
      "chip": "ym2612"
    },
    {
      "channel": 2,
      "note": 91,
      "start": 8.9999,
      "duration": 0.0046,
      "velocity": 98,
      "chip": "ym2612"
    },
    {
      "channel": 3,
      "note": 79,
      "start": 9.0002,
      "duration": 0.0094,
      "velocity": 110,
      "chip": "ym2612"
    },
    {
      "channel": 4,
      "note": 55,
      "start": 9.0004,
      "duration": 0.0095,
      "velocity": 110,
      "chip": "ym2612"
    },
    {
      "channel": 2,
      "note": 91,
      "start": 9.0047,
      "duration": 0.0045,
      "velocity": 98,
      "chip": "ym2612"
    },
    {
      "channel": 2,
      "note": 103,
      "start": 9.0096,
      "duration": 0.0045,
      "velocity": 98,
      "chip": "ym2612"
    },
    {
      "channel": 3,
      "note": 78,
      "start": 9.0098,
      "duration": 0.0046,
      "velocity": 110,
      "chip": "ym2612"
    },
    {
      "channel": 4,
      "note": 55,
      "start": 9.01,
      "duration": 0.0109,
      "velocity": 110,
      "chip": "ym2612"
    },
    {
      "channel": 2,
      "note": 103,
      "start": 9.0143,
      "duration": 0.0059,
      "velocity": 98,
      "chip": "ym2612"
    },
    {
      "channel": 3,
      "note": 76,
      "start": 9.0146,
      "duration": 0.006,
      "velocity": 110,
      "chip": "ym2612"
    },
    {
      "channel": 0,
      "note": 99,
      "start": 9.02,
      "duration": 0.1667,
      "velocity": 110,
      "chip": "ym2612"
    },
    {
      "channel": 2,
      "note": 94,
      "start": 9.0206,
      "duration": 0.0048,
      "velocity": 98,
      "chip": "ym2612"
    },
    {
      "channel": 3,
      "note": 79,
      "start": 9.0208,
      "duration": 0.1279,
      "velocity": 110,
      "chip": "ym2612"
    },
    {
      "channel": 4,
      "note": 58,
      "start": 9.0211,
      "duration": 0.0446,
      "velocity": 110,
      "chip": "ym2612"
    },
    {
      "channel": 1,
      "note": 99,
      "start": 9.0253,
      "duration": 0.1674,
      "velocity": 110,
      "chip": "ym2612"
    },
    {
      "channel": 2,
      "note": 94,
      "start": 9.0256,
      "duration": 0.0397,
      "velocity": 98,
      "chip": "ym2612"
    },
    {
      "channel": 2,
      "note": 106,
      "start": 9.0656,
      "duration": 0.1166,
      "velocity": 98,
      "chip": "ym2612"
    },
    {
      "channel": 4,
      "note": 58,
      "start": 9.0659,
      "duration": 0.1217,
      "velocity": 110,
      "chip": "ym2612"
    },
    {
      "channel": 3,
      "note": 80,
      "start": 9.149,
      "duration": 0.0348,
      "velocity": 110,
      "chip": "ym2612"
    },
    {
      "channel": 2,
      "note": 106,
      "start": 9.1824,
      "duration": 0.0046,
      "velocity": 98,
      "chip": "ym2612"
    },
    {
      "channel": 3,
      "note": 81,
      "start": 9.184,
      "duration": 0.0033,
      "velocity": 110,
      "chip": "ym2612"
    },
    {
      "channel": 0,
      "note": 97,
      "start": 9.1869,
      "duration": 0.0716,
      "velocity": 110,
      "chip": "ym2612"
    },
    {
      "channel": 2,
      "note": 94,
      "start": 9.1872,
      "duration": 0.0057,
      "velocity": 98,
      "chip": "ym2612"
    },
    {
      "channel": 3,
      "note": 82,
      "start": 9.1876,
      "duration": 0.0717,
      "velocity": 110,
      "chip": "ym2612"
    },
    {
      "channel": 4,
      "note": 58,
      "start": 9.1877,
      "duration": 0.0098,
      "velocity": 110,
      "chip": "ym2612"
    },
    {
      "channel": 1,
      "note": 97,
      "start": 9.1928,
      "duration": 0.0699,
      "velocity": 110,
      "chip": "ym2612"
    },
    {
      "channel": 2,
      "note": 94,
      "start": 9.1932,
      "duration": 0.0041,
      "velocity": 98,
      "chip": "ym2612"
    },
    {
      "channel": 2,
      "note": 106,
      "start": 9.1974,
      "duration": 0.0049,
      "velocity": 98,
      "chip": "ym2612"
    },
    {
      "channel": 4,
      "note": 58,
      "start": 9.1977,
      "duration": 0.0616,
      "velocity": 110,
      "chip": "ym2612"
    },
    {
      "channel": 2,
      "note": 106,
      "start": 9.2026,
      "duration": 0.0563,
      "velocity": 98,
      "chip": "ym2612"
    },
    {
      "channel": 2,
      "note": 87,
      "start": 9.2592,
      "duration": 0.0037,
      "velocity": 98,
      "chip": "ym2612"
    },
    {
      "channel": 4,
      "note": 56,
      "start": 9.2595,
      "duration": 0.0602,
      "velocity": 110,
      "chip": "ym2612"
    },
    {
      "channel": 2,
      "note": 87,
      "start": 9.2631,
      "duration": 0.0561,
      "velocity": 98,
      "chip": "ym2612"
    },
    {
      "channel": 2,
      "note": 99,
      "start": 9.3195,
      "duration": 0.0998,
      "velocity": 98,
      "chip": "ym2612"
    },
    {
      "channel": 4,
      "note": 56,
      "start": 9.3198,
      "duration": 0.2172,
      "velocity": 110,
      "chip": "ym2612"
    },
    {
      "channel": 2,
      "note": 99,
      "start": 9.4195,
      "duration": 0.1168,
      "velocity": 98,
      "chip": "ym2612"
    },
    {
      "channel": 0,
      "note": 95,
      "start": 9.5362,
      "duration": 0.0195,
      "velocity": 110,
      "chip": "ym2612"
    },
    {
      "channel": 2,
      "note": 87,
      "start": 9.5367,
      "duration": 0.0042,
      "velocity": 98,
      "chip": "ym2612"
    },
    {
      "channel": 3,
      "note": 87,
      "start": 9.5369,
      "duration": 0.0197,
      "velocity": 110,
      "chip": "ym2612"
    },
    {
      "channel": 4,
      "note": 56,
      "start": 9.5372,
      "duration": 0.0092,
      "velocity": 110,
      "chip": "ym2612"
    },
    {
      "channel": 1,
      "note": 95,
      "start": 9.5408,
      "duration": 0.0217,
      "velocity": 110,
      "chip": "ym2612"
    },
    {
      "channel": 2,
      "note": 87,
      "start": 9.5412,
      "duration": 0.0048,
      "velocity": 98,
      "chip": "ym2612"
    },
    {
      "channel": 2,
      "note": 99,
      "start": 9.5462,
      "duration": 0.0044,
      "velocity": 98,
      "chip": "ym2612"
    },
    {
      "channel": 4,
      "note": 56,
      "start": 9.5465,
      "duration": 0.0104,
      "velocity": 110,
      "chip": "ym2612"
    },
    {
      "channel": 2,
      "note": 99,
      "start": 9.5509,
      "duration": 0.0054,
      "velocity": 98,
      "chip": "ym2612"
    },
    {
      "channel": 0,
      "note": 97,
      "start": 9.5559,
      "duration": 0.1841,
      "velocity": 110,
      "chip": "ym2612"
    },
    {
      "channel": 2,
      "note": 87,
      "start": 9.5565,
      "duration": 0.0062,
      "velocity": 98,
      "chip": "ym2612"
    },
    {
      "channel": 3,
      "note": 88,
      "start": 9.5568,
      "duration": 0.1841,
      "velocity": 110,
      "chip": "ym2612"
    },
    {
      "channel": 4,
      "note": 56,
      "start": 9.5571,
      "duration": 0.0622,
      "velocity": 110,
      "chip": "ym2612"
    },
    {
      "channel": 1,
      "note": 97,
      "start": 9.5626,
      "duration": 0.1837,
      "velocity": 110,
      "chip": "ym2612"
    },
    {
      "channel": 2,
      "note": 87,
      "start": 9.563,
      "duration": 0.0559,
      "velocity": 98,
      "chip": "ym2612"
    },
    {
      "channel": 2,
      "note": 99,
      "start": 9.6191,
      "duration": 0.1167,
      "velocity": 98,
      "chip": "ym2612"
    },
    {
      "channel": 4,
      "note": 56,
      "start": 9.6194,
      "duration": 0.1217,
      "velocity": 110,
      "chip": "ym2612"
    },
    {
      "channel": 2,
      "note": 99,
      "start": 9.736,
      "duration": 0.0045,
      "velocity": 98,
      "chip": "ym2612"
    },
    {
      "channel": 0,
      "note": 99,
      "start": 9.7403,
      "duration": 0.0724,
      "velocity": 110,
      "chip": "ym2612"
    },
    {
      "channel": 2,
      "note": 87,
      "start": 9.7408,
      "duration": 0.0058,
      "velocity": 98,
      "chip": "ym2612"
    },
    {
      "channel": 3,
      "note": 90,
      "start": 9.7411,
      "duration": 0.0726,
      "velocity": 110,
      "chip": "ym2612"
    },
    {
      "channel": 4,
      "note": 56,
      "start": 9.7414,
      "duration": 0.01,
      "velocity": 110,
      "chip": "ym2612"
    },
    {
      "channel": 1,
      "note": 99,
      "start": 9.7465,
      "duration": 0.0717,
      "velocity": 110,
      "chip": "ym2612"
    },
    {
      "channel": 2,
      "note": 87,
      "start": 9.7468,
      "duration": 0.0043,
      "velocity": 98,
      "chip": "ym2612"
    },
    {
      "channel": 2,
      "note": 99,
      "start": 9.7514,
      "duration": 0.0044,
      "velocity": 98,
      "chip": "ym2612"
    },
    {
      "channel": 4,
      "note": 56,
      "start": 9.7517,
      "duration": 0.0045,
      "velocity": 110,
      "chip": "ym2612"
    },
    {
      "channel": 2,
      "note": 99,
      "start": 9.7561,
      "duration": 0.0572,
      "velocity": 98,
      "chip": "ym2612"
    },
    {
      "channel": 4,
      "note": 58,
      "start": 9.7563,
      "duration": 0.0576,
      "velocity": 110,
      "chip": "ym2612"
    },
    {
      "channel": 0,
      "note": 90,
      "start": 9.813,
      "duration": 0.5542,
      "velocity": 110,
      "chip": "ym2612"
    },
    {
      "channel": 2,
      "note": 87,
      "start": 9.8136,
      "duration": 0.0048,
      "velocity": 98,
      "chip": "ym2612"
    },
    {
      "channel": 3,
      "note": 87,
      "start": 9.8138,
      "duration": 0.298,
      "velocity": 110,
      "chip": "ym2612"
    },
    {
      "channel": 4,
      "note": 59,
      "start": 9.8141,
      "duration": 0.061,
      "velocity": 110,
      "chip": "ym2612"
    },
    {
      "channel": 1,
      "note": 90,
      "start": 9.8184,
      "duration": 0.5542,
      "velocity": 110,
      "chip": "ym2612"
    },
    {
      "channel": 2,
      "note": 87,
      "start": 9.8187,
      "duration": 0.056,
      "velocity": 98,
      "chip": "ym2612"
    },
    {
      "channel": 2,
      "note": 99,
      "start": 9.875,
      "duration": 0.0998,
      "velocity": 98,
      "chip": "ym2612"
    },
    {
      "channel": 4,
      "note": 59,
      "start": 9.8753,
      "duration": 0.2169,
      "velocity": 110,
      "chip": "ym2612"
    },
    {
      "channel": 2,
      "note": 99,
      "start": 9.975,
      "duration": 0.1168,
      "velocity": 98,
      "chip": "ym2612"
    },
    {
      "channel": 2,
      "note": 87,
      "start": 10.0921,
      "duration": 0.0045,
      "velocity": 98,
      "chip": "ym2612"
    },
    {
      "channel": 4,
      "note": 59,
      "start": 10.0924,
      "duration": 0.0089,
      "velocity": 110,
      "chip": "ym2612"
    },
    {
      "channel": 2,
      "note": 87,
      "start": 10.0968,
      "duration": 0.0041,
      "velocity": 98,
      "chip": "ym2612"
    },
    {
      "channel": 2,
      "note": 99,
      "start": 10.1011,
      "duration": 0.0049,
      "velocity": 98,
      "chip": "ym2612"
    },
    {
      "channel": 4,
      "note": 59,
      "start": 10.1014,
      "duration": 0.0108,
      "velocity": 110,
      "chip": "ym2612"
    },
    {
      "channel": 2,
      "note": 99,
      "start": 10.1063,
      "duration": 0.0052,
      "velocity": 98,
      "chip": "ym2612"
    },
    {
      "channel": 2,
      "note": 87,
      "start": 10.1118,
      "duration": 0.0059,
      "velocity": 98,
      "chip": "ym2612"
    },
    {
      "channel": 3,
      "note": 85,
      "start": 10.1121,
      "duration": 0.1837,
      "velocity": 110,
      "chip": "ym2612"
    },
    {
      "channel": 4,
      "note": 59,
      "start": 10.1124,
      "duration": 0.0618,
      "velocity": 110,
      "chip": "ym2612"
    },
    {
      "channel": 2,
      "note": 87,
      "start": 10.118,
      "duration": 0.0559,
      "velocity": 98,
      "chip": "ym2612"
    },
    {
      "channel": 2,
      "note": 99,
      "start": 10.1741,
      "duration": 0.1166,
      "velocity": 98,
      "chip": "ym2612"
    },
    {
      "channel": 4,
      "note": 59,
      "start": 10.1744,
      "duration": 0.1216,
      "velocity": 110,
      "chip": "ym2612"
    },
    {
      "channel": 2,
      "note": 99,
      "start": 10.291,
      "duration": 0.0045,
      "velocity": 98,
      "chip": "ym2612"
    },
    {
      "channel": 2,
      "note": 87,
      "start": 10.2958,
      "duration": 0.0045,
      "velocity": 98,
      "chip": "ym2612"
    },
    {
      "channel": 3,
      "note": 87,
      "start": 10.296,
      "duration": 0.0721,
      "velocity": 110,
      "chip": "ym2612"
    },
    {
      "channel": 4,
      "note": 59,
      "start": 10.2963,
      "duration": 0.0097,
      "velocity": 110,
      "chip": "ym2612"
    },
    {
      "channel": 2,
      "note": 87,
      "start": 10.3006,
      "duration": 0.005,
      "velocity": 98,
      "chip": "ym2612"
    },
    {
      "channel": 2,
      "note": 99,
      "start": 10.3059,
      "duration": 0.0042,
      "velocity": 98,
      "chip": "ym2612"
    },
    {
      "channel": 4,
      "note": 59,
      "start": 10.3061,
      "duration": 0.0044,
      "velocity": 110,
      "chip": "ym2612"
    },
    {
      "channel": 2,
      "note": 99,
      "start": 10.3105,
      "duration": 0.0573,
      "velocity": 98,
      "chip": "ym2612"
    },
    {
      "channel": 4,
      "note": 59,
      "start": 10.3107,
      "duration": 0.0576,
      "velocity": 110,
      "chip": "ym2612"
    },
    {
      "channel": 0,
      "note": 97,
      "start": 10.3674,
      "duration": 0.45,
      "velocity": 110,
      "chip": "ym2612"
    },
    {
      "channel": 2,
      "note": 88,
      "start": 10.368,
      "duration": 0.0048,
      "velocity": 98,
      "chip": "ym2612"
    },
    {
      "channel": 3,
      "note": 88,
      "start": 10.3682,
      "duration": 0.0049,
      "velocity": 110,
      "chip": "ym2612"
    },
    {
      "channel": 4,
      "note": 52,
      "start": 10.3685,
      "duration": 0.0617,
      "velocity": 110,
      "chip": "ym2612"
    },
    {
      "channel": 1,
      "note": 97,
      "start": 10.3728,
      "duration": 0.4503,
      "velocity": 110,
      "chip": "ym2612"
    },
    {
      "channel": 2,
      "note": 88,
      "start": 10.3731,
      "duration": 0.0564,
      "velocity": 98,
      "chip": "ym2612"
    },
    {
      "channel": 3,
      "note": 92,
      "start": 10.3733,
      "duration": 0.0566,
      "velocity": 110,
      "chip": "ym2612"
    },
    {
      "channel": 2,
      "note": 100,
      "start": 10.4298,
      "duration": 0.0998,
      "velocity": 98,
      "chip": "ym2612"
    },
    {
      "channel": 3,
      "note": 88,
      "start": 10.4301,
      "duration": 0.0998,
      "velocity": 110,
      "chip": "ym2612"
    },
    {
      "channel": 4,
      "note": 52,
      "start": 10.4304,
      "duration": 0.2002,
      "velocity": 110,
      "chip": "ym2612"
    },
    {
      "channel": 2,
      "note": 100,
      "start": 10.5298,
      "duration": 0.1001,
      "velocity": 98,
      "chip": "ym2612"
    },
    {
      "channel": 3,
      "note": 92,
      "start": 10.5301,
      "duration": 0.1002,
      "velocity": 110,
      "chip": "ym2612"
    },
    {
      "channel": 2,
      "note": 88,
      "start": 10.6302,
      "duration": 0.0053,
      "velocity": 98,
      "chip": "ym2612"
    },
    {
      "channel": 3,
      "note": 88,
      "start": 10.6305,
      "duration": 0.0053,
      "velocity": 110,
      "chip": "ym2612"
    },
    {
      "channel": 4,
      "note": 52,
      "start": 10.6308,
      "duration": 0.0099,
      "velocity": 110,
      "chip": "ym2612"
    },
    {
      "channel": 2,
      "note": 88,
      "start": 10.6357,
      "duration": 0.0043,
      "velocity": 98,
      "chip": "ym2612"
    },
    {
      "channel": 3,
      "note": 92,
      "start": 10.636,
      "duration": 0.0044,
      "velocity": 110,
      "chip": "ym2612"
    },
    {
      "channel": 2,
      "note": 100,
      "start": 10.6403,
      "duration": 0.0048,
      "velocity": 98,
      "chip": "ym2612"
    },
    {
      "channel": 3,
      "note": 88,
      "start": 10.6406,
      "duration": 0.0049,
      "velocity": 110,
      "chip": "ym2612"
    },
    {
      "channel": 4,
      "note": 52,
      "start": 10.6408,
      "duration": 0.0102,
      "velocity": 110,
      "chip": "ym2612"
    },
    {
      "channel": 2,
      "note": 100,
      "start": 10.6454,
      "duration": 0.0049,
      "velocity": 98,
      "chip": "ym2612"
    },
    {
      "channel": 3,
      "note": 92,
      "start": 10.6457,
      "duration": 0.0051,
      "velocity": 110,
      "chip": "ym2612"
    },
    {
      "channel": 2,
      "note": 88,
      "start": 10.6506,
      "duration": 0.0054,
      "velocity": 98,
      "chip": "ym2612"
    },
    {
      "channel": 3,
      "note": 88,
      "start": 10.651,
      "duration": 0.0055,
      "velocity": 110,
      "chip": "ym2612"
    },
    {
      "channel": 4,
      "note": 52,
      "start": 10.6513,
      "duration": 0.0615,
      "velocity": 110,
      "chip": "ym2612"
    },
    {
      "channel": 2,
      "note": 88,
      "start": 10.6564,
      "duration": 0.0557,
      "velocity": 98,
      "chip": "ym2612"
    },
    {
      "channel": 3,
      "note": 92,
      "start": 10.6567,
      "duration": 0.0558,
      "velocity": 110,
      "chip": "ym2612"
    },
    {
      "channel": 2,
      "note": 100,
      "start": 10.7124,
      "duration": 0.0999,
      "velocity": 98,
      "chip": "ym2612"
    },
    {
      "channel": 3,
      "note": 88,
      "start": 10.7127,
      "duration": 0.0999,
      "velocity": 110,
      "chip": "ym2612"
    },
    {
      "channel": 4,
      "note": 52,
      "start": 10.7129,
      "duration": 0.1058,
      "velocity": 110,
      "chip": "ym2612"
    },
    {
      "channel": 2,
      "note": 100,
      "start": 10.8126,
      "duration": 0.0056,
      "velocity": 98,
      "chip": "ym2612"
    },
    {
      "channel": 3,
      "note": 92,
      "start": 10.8129,
      "duration": 0.0056,
      "velocity": 110,
      "chip": "ym2612"
    },
    {
      "channel": 0,
      "note": 99,
      "start": 10.8178,
      "duration": 0.0725,
      "velocity": 110,
      "chip": "ym2612"
    },
    {
      "channel": 2,
      "note": 88,
      "start": 10.8184,
      "duration": 0.0049,
      "velocity": 98,
      "chip": "ym2612"
    },
    {
      "channel": 3,
      "note": 88,
      "start": 10.8187,
      "duration": 0.0049,
      "velocity": 110,
      "chip": "ym2612"
    },
    {
      "channel": 4,
      "note": 52,
      "start": 10.819,
      "duration": 0.0107,
      "velocity": 110,
      "chip": "ym2612"
    },
    {
      "channel": 1,
      "note": 99,
      "start": 10.8232,
      "duration": 0.0727,
      "velocity": 110,
      "chip": "ym2612"
    },
    {
      "channel": 2,
      "note": 88,
      "start": 10.8236,
      "duration": 0.0054,
      "velocity": 98,
      "chip": "ym2612"
    },
    {
      "channel": 3,
      "note": 92,
      "start": 10.8238,
      "duration": 0.0056,
      "velocity": 110,
      "chip": "ym2612"
    },
    {
      "channel": 2,
      "note": 100,
      "start": 10.8292,
      "duration": 0.0045,
      "velocity": 98,
      "chip": "ym2612"
    },
    {
      "channel": 3,
      "note": 88,
      "start": 10.8296,
      "duration": 0.0044,
      "velocity": 110,
      "chip": "ym2612"
    },
    {
      "channel": 4,
      "note": 52,
      "start": 10.8299,
      "duration": 0.0044,
      "velocity": 110,
      "chip": "ym2612"
    },
    {
      "channel": 2,
      "note": 100,
      "start": 10.8339,
      "duration": 0.057,
      "velocity": 98,
      "chip": "ym2612"
    },
    {
      "channel": 3,
      "note": 91,
      "start": 10.8341,
      "duration": 0.0573,
      "velocity": 110,
      "chip": "ym2612"
    },
    {
      "channel": 4,
      "note": 52,
      "start": 10.8344,
      "duration": 0.0572,
      "velocity": 110,
      "chip": "ym2612"
    },
    {
      "channel": 0,
      "note": 100,
      "start": 10.8906,
      "duration": 0.2832,
      "velocity": 110,
      "chip": "ym2612"
    },
    {
      "channel": 2,
      "note": 88,
      "start": 10.8913,
      "duration": 0.0049,
      "velocity": 98,
      "chip": "ym2612"
    },
    {
      "channel": 3,
      "note": 91,
      "start": 10.8914,
      "duration": 0.0051,
      "velocity": 110,
      "chip": "ym2612"
    },
    {
      "channel": 4,
      "note": 54,
      "start": 10.8917,
      "duration": 0.0452,
      "velocity": 110,
      "chip": "ym2612"
    },
    {
      "channel": 1,
      "note": 100,
      "start": 10.8961,
      "duration": 0.2835,
      "velocity": 110,
      "chip": "ym2612"
    },
    {
      "channel": 2,
      "note": 88,
      "start": 10.8965,
      "duration": 0.0398,
      "velocity": 98,
      "chip": "ym2612"
    },
    {
      "channel": 3,
      "note": 94,
      "start": 10.8967,
      "duration": 0.0399,
      "velocity": 110,
      "chip": "ym2612"
    },
    {
      "channel": 2,
      "note": 100,
      "start": 10.9365,
      "duration": 0.1164,
      "velocity": 98,
      "chip": "ym2612"
    },
    {
      "channel": 3,
      "note": 91,
      "start": 10.9368,
      "duration": 0.1164,
      "velocity": 110,
      "chip": "ym2612"
    },
    {
      "channel": 4,
      "note": 54,
      "start": 10.9371,
      "duration": 0.2169,
      "velocity": 110,
      "chip": "ym2612"
    },
    {
      "channel": 2,
      "note": 100,
      "start": 11.0532,
      "duration": 0.1001,
      "velocity": 98,
      "chip": "ym2612"
    },
    {
      "channel": 3,
      "note": 94,
      "start": 11.0534,
      "duration": 0.1002,
      "velocity": 110,
      "chip": "ym2612"
    },
    {
      "channel": 2,
      "note": 88,
      "start": 11.1536,
      "duration": 0.0052,
      "velocity": 98,
      "chip": "ym2612"
    },
    {
      "channel": 3,
      "note": 91,
      "start": 11.1539,
      "duration": 0.0052,
      "velocity": 110,
      "chip": "ym2612"
    },
    {
      "channel": 4,
      "note": 54,
      "start": 11.1542,
      "duration": 0.0098,
      "velocity": 110,
      "chip": "ym2612"
    },
    {
      "channel": 2,
      "note": 88,
      "start": 11.1591,
      "duration": 0.0043,
      "velocity": 98,
      "chip": "ym2612"
    },
    {
      "channel": 3,
      "note": 94,
      "start": 11.1594,
      "duration": 0.0043,
      "velocity": 110,
      "chip": "ym2612"
    },
    {
      "channel": 2,
      "note": 100,
      "start": 11.1637,
      "duration": 0.0052,
      "velocity": 98,
      "chip": "ym2612"
    },
    {
      "channel": 3,
      "note": 91,
      "start": 11.1639,
      "duration": 0.0053,
      "velocity": 110,
      "chip": "ym2612"
    },
    {
      "channel": 4,
      "note": 54,
      "start": 11.1641,
      "duration": 0.011,
      "velocity": 110,
      "chip": "ym2612"
    },
    {
      "channel": 2,
      "note": 100,
      "start": 11.1692,
      "duration": 0.0052,
      "velocity": 98,
      "chip": "ym2612"
    },
    {
      "channel": 3,
      "note": 94,
      "start": 11.1694,
      "duration": 0.0054,
      "velocity": 110,
      "chip": "ym2612"
    },
    {
      "channel": 0,
      "note": 99,
      "start": 11.174,
      "duration": 0.1676,
      "velocity": 110,
      "chip": "ym2612"
    },
    {
      "channel": 2,
      "note": 88,
      "start": 11.1747,
      "duration": 0.0051,
      "velocity": 98,
      "chip": "ym2612"
    },
    {
      "channel": 3,
      "note": 88,
      "start": 11.175,
      "duration": 0.0051,
      "velocity": 110,
      "chip": "ym2612"
    },
    {
      "channel": 4,
      "note": 54,
      "start": 11.1753,
      "duration": 0.0617,
      "velocity": 110,
      "chip": "ym2612"
    },
    {
      "channel": 1,
      "note": 99,
      "start": 11.1797,
      "duration": 0.1676,
      "velocity": 110,
      "chip": "ym2612"
    },
    {
      "channel": 2,
      "note": 88,
      "start": 11.1801,
      "duration": 0.0563,
      "velocity": 98,
      "chip": "ym2612"
    },
    {
      "channel": 3,
      "note": 94,
      "start": 11.1803,
      "duration": 0.0564,
      "velocity": 110,
      "chip": "ym2612"
    },
    {
      "channel": 2,
      "note": 100,
      "start": 11.2367,
      "duration": 0.1,
      "velocity": 98,
      "chip": "ym2612"
    },
    {
      "channel": 3,
      "note": 91,
      "start": 11.237,
      "duration": 0.1,
      "velocity": 110,
      "chip": "ym2612"
    },
    {
      "channel": 4,
      "note": 54,
      "start": 11.2373,
      "duration": 0.1056,
      "velocity": 110,
      "chip": "ym2612"
    },
    {
      "channel": 2,
      "note": 100,
      "start": 11.3369,
      "duration": 0.0052,
      "velocity": 98,
      "chip": "ym2612"
    },
    {
      "channel": 3,
      "note": 94,
      "start": 11.3372,
      "duration": 0.0053,
      "velocity": 110,
      "chip": "ym2612"
    },
    {
      "channel": 0,
      "note": 97,
      "start": 11.3419,
      "duration": 0.057,
      "velocity": 110,
      "chip": "ym2612"
    },
    {
      "channel": 2,
      "note": 88,
      "start": 11.3424,
      "duration": 0.005,
      "velocity": 98,
      "chip": "ym2612"
    },
    {
      "channel": 3,
      "note": 91,
      "start": 11.3428,
      "duration": 0.005,
      "velocity": 110,
      "chip": "ym2612"
    },
    {
      "channel": 4,
      "note": 54,
      "start": 11.3431,
      "duration": 0.0106,
      "velocity": 110,
      "chip": "ym2612"
    },
    {
      "channel": 1,
      "note": 97,
      "start": 11.3474,
      "duration": 0.0577,
      "velocity": 110,
      "chip": "ym2612"
    },
    {
      "channel": 2,
      "note": 88,
      "start": 11.3477,
      "duration": 0.0053,
      "velocity": 98,
      "chip": "ym2612"
    },
    {
      "channel": 3,
      "note": 94,
      "start": 11.3479,
      "duration": 0.0055,
      "velocity": 110,
      "chip": "ym2612"
    },
    {
      "channel": 2,
      "note": 100,
      "start": 11.3533,
      "duration": 0.0055,
      "velocity": 98,
      "chip": "ym2612"
    },
    {
      "channel": 3,
      "note": 91,
      "start": 11.3536,
      "duration": 0.0054,
      "velocity": 110,
      "chip": "ym2612"
    },
    {
      "channel": 4,
      "note": 54,
      "start": 11.3539,
      "duration": 0.0054,
      "velocity": 110,
      "chip": "ym2612"
    },
    {
      "channel": 2,
      "note": 100,
      "start": 11.359,
      "duration": 0.0405,
      "velocity": 98,
      "chip": "ym2612"
    },
    {
      "channel": 3,
      "note": 88,
      "start": 11.3592,
      "duration": 0.0406,
      "velocity": 110,
      "chip": "ym2612"
    },
    {
      "channel": 4,
      "note": 54,
      "start": 11.3595,
      "duration": 0.0405,
      "velocity": 110,
      "chip": "ym2612"
    },
    {
      "channel": 0,
      "note": 94,
      "start": 11.3991,
      "duration": 0.4664,
      "velocity": 110,
      "chip": "ym2612"
    },
    {
      "channel": 2,
      "note": 90,
      "start": 11.3998,
      "duration": 0.0056,
      "velocity": 98,
      "chip": "ym2612"
    },
    {
      "channel": 3,
      "note": 87,
      "start": 11.4,
      "duration": 0.0057,
      "velocity": 110,
      "chip": "ym2612"
    },
    {
      "channel": 4,
      "note": 59,
      "start": 11.4002,
      "duration": 0.0614,
      "velocity": 110,
      "chip": "ym2612"
    },
    {
      "channel": 1,
      "note": 94,
      "start": 11.4053,
      "duration": 0.4655,
      "velocity": 110,
      "chip": "ym2612"
    },
    {
      "channel": 2,
      "note": 90,
      "start": 11.4056,
      "duration": 0.0553,
      "velocity": 98,
      "chip": "ym2612"
    },
    {
      "channel": 3,
      "note": 90,
      "start": 11.4057,
      "duration": 0.0555,
      "velocity": 110,
      "chip": "ym2612"
    },
    {
      "channel": 2,
      "note": 102,
      "start": 11.4611,
      "duration": 0.1164,
      "velocity": 98,
      "chip": "ym2612"
    },
    {
      "channel": 3,
      "note": 87,
      "start": 11.4615,
      "duration": 0.1164,
      "velocity": 110,
      "chip": "ym2612"
    },
    {
      "channel": 4,
      "note": 59,
      "start": 11.4617,
      "duration": 0.2169,
      "velocity": 110,
      "chip": "ym2612"
    },
    {
      "channel": 2,
      "note": 102,
      "start": 11.5778,
      "duration": 0.1001,
      "velocity": 98,
      "chip": "ym2612"
    },
    {
      "channel": 3,
      "note": 90,
      "start": 11.5781,
      "duration": 0.1002,
      "velocity": 110,
      "chip": "ym2612"
    },
    {
      "channel": 2,
      "note": 90,
      "start": 11.6782,
      "duration": 0.0052,
      "velocity": 98,
      "chip": "ym2612"
    },
    {
      "channel": 3,
      "note": 87,
      "start": 11.6785,
      "duration": 0.0052,
      "velocity": 110,
      "chip": "ym2612"
    },
    {
      "channel": 4,
      "note": 59,
      "start": 11.6788,
      "duration": 0.0098,
      "velocity": 110,
      "chip": "ym2612"
    },
    {
      "channel": 2,
      "note": 90,
      "start": 11.6837,
      "duration": 0.0043,
      "velocity": 98,
      "chip": "ym2612"
    },
    {
      "channel": 3,
      "note": 90,
      "start": 11.6839,
      "duration": 0.0045,
      "velocity": 110,
      "chip": "ym2612"
    },
    {
      "channel": 2,
      "note": 102,
      "start": 11.6882,
      "duration": 0.0047,
      "velocity": 98,
      "chip": "ym2612"
    },
    {
      "channel": 3,
      "note": 87,
      "start": 11.6885,
      "duration": 0.0047,
      "velocity": 110,
      "chip": "ym2612"
    },
    {
      "channel": 4,
      "note": 59,
      "start": 11.6888,
      "duration": 0.0105,
      "velocity": 110,
      "chip": "ym2612"
    },
    {
      "channel": 2,
      "note": 102,
      "start": 11.6932,
      "duration": 0.0054,
      "velocity": 98,
      "chip": "ym2612"
    },
    {
      "channel": 3,
      "note": 90,
      "start": 11.6934,
      "duration": 0.0055,
      "velocity": 110,
      "chip": "ym2612"
    },
    {
      "channel": 2,
      "note": 90,
      "start": 11.6988,
      "duration": 0.0046,
      "velocity": 98,
      "chip": "ym2612"
    },
    {
      "channel": 3,
      "note": 83,
      "start": 11.6991,
      "duration": 0.0046,
      "velocity": 110,
      "chip": "ym2612"
    },
    {
      "channel": 4,
      "note": 59,
      "start": 11.6994,
      "duration": 0.0612,
      "velocity": 110,
      "chip": "ym2612"
    },
    {
      "channel": 2,
      "note": 90,
      "start": 11.7037,
      "duration": 0.0562,
      "velocity": 98,
      "chip": "ym2612"
    },
    {
      "channel": 3,
      "note": 90,
      "start": 11.7039,
      "duration": 0.0563,
      "velocity": 110,
      "chip": "ym2612"
    },
    {
      "channel": 2,
      "note": 102,
      "start": 11.7602,
      "duration": 0.0999,
      "velocity": 98,
      "chip": "ym2612"
    },
    {
      "channel": 3,
      "note": 87,
      "start": 11.7605,
      "duration": 0.1,
      "velocity": 110,
      "chip": "ym2612"
    },
    {
      "channel": 4,
      "note": 59,
      "start": 11.7607,
      "duration": 0.1058,
      "velocity": 110,
      "chip": "ym2612"
    },
    {
      "channel": 2,
      "note": 102,
      "start": 11.8604,
      "duration": 0.0055,
      "velocity": 98,
      "chip": "ym2612"
    },
    {
      "channel": 3,
      "note": 90,
      "start": 11.8607,
      "duration": 0.0055,
      "velocity": 110,
      "chip": "ym2612"
    },
    {
      "channel": 0,
      "note": 102,
      "start": 11.8658,
      "duration": 0.0727,
      "velocity": 110,
      "chip": "ym2612"
    },
    {
      "channel": 2,
      "note": 90,
      "start": 11.8661,
      "duration": 0.0048,
      "velocity": 98,
      "chip": "ym2612"
    },
    {
      "channel": 3,
      "note": 87,
      "start": 11.8664,
      "duration": 0.0048,
      "velocity": 110,
      "chip": "ym2612"
    },
    {
      "channel": 4,
      "note": 59,
      "start": 11.8666,
      "duration": 0.0097,
      "velocity": 110,
      "chip": "ym2612"
    },
    {
      "channel": 1,
      "note": 102,
      "start": 11.8708,
      "duration": 0.0739,
      "velocity": 110,
      "chip": "ym2612"
    },
    {
      "channel": 2,
      "note": 90,
      "start": 11.8712,
      "duration": 0.0044,
      "velocity": 98,
      "chip": "ym2612"
    },
    {
      "channel": 3,
      "note": 90,
      "start": 11.8714,
      "duration": 0.0046,
      "velocity": 110,
      "chip": "ym2612"
    },
    {
      "channel": 2,
      "note": 102,
      "start": 11.876,
      "duration": 0.0059,
      "velocity": 98,
      "chip": "ym2612"
    },
    {
      "channel": 3,
      "note": 87,
      "start": 11.8763,
      "duration": 0.006,
      "velocity": 110,
      "chip": "ym2612"
    },
    {
      "channel": 4,
      "note": 59,
      "start": 11.8766,
      "duration": 0.006,
      "velocity": 110,
      "chip": "ym2612"
    },
    {
      "channel": 2,
      "note": 102,
      "start": 11.8822,
      "duration": 0.0568,
      "velocity": 98,
      "chip": "ym2612"
    },
    {
      "channel": 3,
      "note": 93,
      "start": 11.8825,
      "duration": 0.0569,
      "velocity": 110,
      "chip": "ym2612"
    },
    {
      "channel": 4,
      "note": 58,
      "start": 11.8827,
      "duration": 0.0568,
      "velocity": 110,
      "chip": "ym2612"
    },
    {
      "channel": 0,
      "note": 99,
      "start": 11.9387,
      "duration": 0.3,
      "velocity": 110,
      "chip": "ym2612"
    },
    {
      "channel": 2,
      "note": 90,
      "start": 11.9393,
      "duration": 0.0056,
      "velocity": 98,
      "chip": "ym2612"
    },
    {
      "channel": 3,
      "note": 93,
      "start": 11.9395,
      "duration": 0.0058,
      "velocity": 110,
      "chip": "ym2612"
    },
    {
      "channel": 4,
      "note": 57,
      "start": 11.9397,
      "duration": 0.0619,
      "velocity": 110,
      "chip": "ym2612"
    },
    {
      "channel": 1,
      "note": 99,
      "start": 11.9448,
      "duration": 0.2995,
      "velocity": 110,
      "chip": "ym2612"
    },
    {
      "channel": 2,
      "note": 90,
      "start": 11.9452,
      "duration": 0.0557,
      "velocity": 98,
      "chip": "ym2612"
    },
    {
      "channel": 3,
      "note": 92,
      "start": 11.9455,
      "duration": 0.0557,
      "velocity": 110,
      "chip": "ym2612"
    },
    {
      "channel": 2,
      "note": 102,
      "start": 12.0011,
      "duration": 0.1164,
      "velocity": 98,
      "chip": "ym2612"
    },
    {
      "channel": 3,
      "note": 90,
      "start": 12.0015,
      "duration": 0.1165,
      "velocity": 110,
      "chip": "ym2612"
    },
    {
      "channel": 4,
      "note": 57,
      "start": 12.0017,
      "duration": 0.2169,
      "velocity": 110,
      "chip": "ym2612"
    },
    {
      "channel": 2,
      "note": 102,
      "start": 12.1179,
      "duration": 0.1001,
      "velocity": 98,
      "chip": "ym2612"
    },
    {
      "channel": 3,
      "note": 88,
      "start": 12.1181,
      "duration": 0.1002,
      "velocity": 110,
      "chip": "ym2612"
    },
    {
      "channel": 2,
      "note": 90,
      "start": 12.2183,
      "duration": 0.0046,
      "velocity": 98,
      "chip": "ym2612"
    },
    {
      "channel": 3,
      "note": 87,
      "start": 12.2185,
      "duration": 0.0047,
      "velocity": 110,
      "chip": "ym2612"
    },
    {
      "channel": 4,
      "note": 57,
      "start": 12.2188,
      "duration": 0.0099,
      "velocity": 110,
      "chip": "ym2612"
    },
    {
      "channel": 2,
      "note": 90,
      "start": 12.2232,
      "duration": 0.0048,
      "velocity": 98,
      "chip": "ym2612"
    },
    {
      "channel": 3,
      "note": 85,
      "start": 12.2235,
      "duration": 0.0049,
      "velocity": 110,
      "chip": "ym2612"
    },
    {
      "channel": 2,
      "note": 102,
      "start": 12.2283,
      "duration": 0.0046,
      "velocity": 98,
      "chip": "ym2612"
    },
    {
      "channel": 3,
      "note": 83,
      "start": 12.2286,
      "duration": 0.0047,
      "velocity": 110,
      "chip": "ym2612"
    },
    {
      "channel": 4,
      "note": 57,
      "start": 12.2289,
      "duration": 0.011,
      "velocity": 110,
      "chip": "ym2612"
    },
    {
      "channel": 2,
      "note": 102,
      "start": 12.2333,
      "duration": 0.006,
      "velocity": 98,
      "chip": "ym2612"
    },
    {
      "channel": 3,
      "note": 81,
      "start": 12.2335,
      "duration": 0.0062,
      "velocity": 110,
      "chip": "ym2612"
    },
    {
      "channel": 0,
      "note": 99,
      "start": 12.239,
      "duration": 0.167,
      "velocity": 110,
      "chip": "ym2612"
    },
    {
      "channel": 2,
      "note": 90,
      "start": 12.2396,
      "duration": 0.005,
      "velocity": 98,
      "chip": "ym2612"
    },
    {
      "channel": 3,
      "note": 83,
      "start": 12.2398,
      "duration": 0.0051,
      "velocity": 110,
      "chip": "ym2612"
    },
    {
      "channel": 4,
      "note": 57,
      "start": 12.2401,
      "duration": 0.0618,
      "velocity": 110,
      "chip": "ym2612"
    },
    {
      "channel": 1,
      "note": 99,
      "start": 12.2445,
      "duration": 0.1674,
      "velocity": 110,
      "chip": "ym2612"
    },
    {
      "channel": 2,
      "note": 90,
      "start": 12.2449,
      "duration": 0.0564,
      "velocity": 98,
      "chip": "ym2612"
    },
    {
      "channel": 3,
      "note": 85,
      "start": 12.2451,
      "duration": 0.0566,
      "velocity": 110,
      "chip": "ym2612"
    },
    {
      "channel": 2,
      "note": 102,
      "start": 12.3015,
      "duration": 0.1,
      "velocity": 98,
      "chip": "ym2612"
    },
    {
      "channel": 3,
      "note": 87,
      "start": 12.3019,
      "duration": 0.1,
      "velocity": 110,
      "chip": "ym2612"
    },
    {
      "channel": 4,
      "note": 57,
      "start": 12.3021,
      "duration": 0.1049,
      "velocity": 110,
      "chip": "ym2612"
    },
    {
      "channel": 2,
      "note": 102,
      "start": 12.4018,
      "duration": 0.0047,
      "velocity": 98,
      "chip": "ym2612"
    },
    {
      "channel": 3,
      "note": 88,
      "start": 12.4021,
      "duration": 0.0048,
      "velocity": 110,
      "chip": "ym2612"
    },
    {
      "channel": 0,
      "note": 102,
      "start": 12.4063,
      "duration": 0.0735,
      "velocity": 110,
      "chip": "ym2612"
    },
    {
      "channel": 2,
      "note": 90,
      "start": 12.4068,
      "duration": 0.0054,
      "velocity": 98,
      "chip": "ym2612"
    },
    {
      "channel": 3,
      "note": 90,
      "start": 12.4069,
      "duration": 0.0055,
      "velocity": 110,
      "chip": "ym2612"
    },
    {
      "channel": 4,
      "note": 57,
      "start": 12.4072,
      "duration": 0.0105,
      "velocity": 110,
      "chip": "ym2612"
    },
    {
      "channel": 1,
      "note": 102,
      "start": 12.4121,
      "duration": 0.0739,
      "velocity": 110,
      "chip": "ym2612"
    },
    {
      "channel": 2,
      "note": 90,
      "start": 12.4124,
      "duration": 0.0047,
      "velocity": 98,
      "chip": "ym2612"
    },
    {
      "channel": 3,
      "note": 91,
      "start": 12.4126,
      "duration": 0.0049,
      "velocity": 110,
      "chip": "ym2612"
    },
    {
      "channel": 2,
      "note": 102,
      "start": 12.4174,
      "duration": 0.0059,
      "velocity": 98,
      "chip": "ym2612"
    },
    {
      "channel": 3,
      "note": 92,
      "start": 12.4177,
      "duration": 0.0059,
      "velocity": 110,
      "chip": "ym2612"
    },
    {
      "channel": 4,
      "note": 57,
      "start": 12.418,
      "duration": 0.006,
      "velocity": 110,
      "chip": "ym2612"
    },
    {
      "channel": 2,
      "note": 102,
      "start": 12.4236,
      "duration": 0.0567,
      "velocity": 98,
      "chip": "ym2612"
    },
    {
      "channel": 3,
      "note": 93,
      "start": 12.4239,
      "duration": 0.0568,
      "velocity": 110,
      "chip": "ym2612"
    },
    {
      "channel": 4,
      "note": 57,
      "start": 12.4241,
      "duration": 0.0566,
      "velocity": 110,
      "chip": "ym2612"
    },
    {
      "channel": 0,
      "note": 103,
      "start": 12.48,
      "duration": 0.5366,
      "velocity": 110,
      "chip": "ym2612"
    },
    {
      "channel": 2,
      "note": 88,
      "start": 12.4806,
      "duration": 0.0056,
      "velocity": 98,
      "chip": "ym2612"
    },
    {
      "channel": 3,
      "note": 93,
      "start": 12.4807,
      "duration": 0.0617,
      "velocity": 110,
      "chip": "ym2612"
    },
    {
      "channel": 4,
      "note": 60,
      "start": 12.4809,
      "duration": 0.0618,
      "velocity": 110,
      "chip": "ym2612"
    },
    {
      "channel": 1,
      "note": 103,
      "start": 12.4861,
      "duration": 0.5357,
      "velocity": 110,
      "chip": "ym2612"
    },
    {
      "channel": 2,
      "note": 88,
      "start": 12.4865,
      "duration": 0.0556,
      "velocity": 98,
      "chip": "ym2612"
    },
    {
      "channel": 2,
      "note": 100,
      "start": 12.5423,
      "duration": 0.0998,
      "velocity": 98,
      "chip": "ym2612"
    },
    {
      "channel": 3,
      "note": 88,
      "start": 12.5426,
      "duration": 0.2168,
      "velocity": 110,
      "chip": "ym2612"
    },
    {
      "channel": 4,
      "note": 60,
      "start": 12.5429,
      "duration": 0.2168,
      "velocity": 110,
      "chip": "ym2612"
    },
    {
      "channel": 2,
      "note": 100,
      "start": 12.6424,
      "duration": 0.1168,
      "velocity": 98,
      "chip": "ym2612"
    },
    {
      "channel": 2,
      "note": 88,
      "start": 12.7593,
      "duration": 0.0044,
      "velocity": 98,
      "chip": "ym2612"
    },
    {
      "channel": 3,
      "note": 91,
      "start": 12.7596,
      "duration": 0.0092,
      "velocity": 110,
      "chip": "ym2612"
    },
    {
      "channel": 4,
      "note": 60,
      "start": 12.7598,
      "duration": 0.0091,
      "velocity": 110,
      "chip": "ym2612"
    },
    {
      "channel": 2,
      "note": 88,
      "start": 12.7639,
      "duration": 0.0045,
      "velocity": 98,
      "chip": "ym2612"
    },
    {
      "channel": 2,
      "note": 100,
      "start": 12.7687,
      "duration": 0.0045,
      "velocity": 98,
      "chip": "ym2612"
    },
    {
      "channel": 3,
      "note": 93,
      "start": 12.7689,
      "duration": 0.0103,
      "velocity": 110,
      "chip": "ym2612"
    },
    {
      "channel": 4,
      "note": 60,
      "start": 12.7691,
      "duration": 0.0104,
      "velocity": 110,
      "chip": "ym2612"
    },
    {
      "channel": 2,
      "note": 100,
      "start": 12.7734,
      "duration": 0.0055,
      "velocity": 98,
      "chip": "ym2612"
    },
    {
      "channel": 2,
      "note": 90,
      "start": 12.7791,
      "duration": 0.0044,
      "velocity": 98,
      "chip": "ym2612"
    },
    {
      "channel": 3,
      "note": 96,
      "start": 12.7794,
      "duration": 0.0443,
      "velocity": 110,
      "chip": "ym2612"
    },
    {
      "channel": 4,
      "note": 60,
      "start": 12.7797,
      "duration": 0.0443,
      "velocity": 110,
      "chip": "ym2612"
    },
    {
      "channel": 2,
      "note": 90,
      "start": 12.7838,
      "duration": 0.0396,
      "velocity": 98,
      "chip": "ym2612"
    },
    {
      "channel": 2,
      "note": 102,
      "start": 12.8237,
      "duration": 0.1166,
      "velocity": 98,
      "chip": "ym2612"
    },
    {
      "channel": 3,
      "note": 93,
      "start": 12.8239,
      "duration": 0.1213,
      "velocity": 110,
      "chip": "ym2612"
    },
    {
      "channel": 4,
      "note": 60,
      "start": 12.8242,
      "duration": 0.1213,
      "velocity": 110,
      "chip": "ym2612"
    },
    {
      "channel": 2,
      "note": 102,
      "start": 12.9405,
      "duration": 0.0044,
      "velocity": 98,
      "chip": "ym2612"
    },
    {
      "channel": 2,
      "note": 90,
      "start": 12.9451,
      "duration": 0.005,
      "velocity": 98,
      "chip": "ym2612"
    },
    {
      "channel": 3,
      "note": 95,
      "start": 12.9454,
      "duration": 0.01,
      "velocity": 110,
      "chip": "ym2612"
    },
    {
      "channel": 4,
      "note": 60,
      "start": 12.9457,
      "duration": 0.0099,
      "velocity": 110,
      "chip": "ym2612"
    },
    {
      "channel": 2,
      "note": 90,
      "start": 12.9503,
      "duration": 0.0048,
      "velocity": 98,
      "chip": "ym2612"
    },
    {
      "channel": 2,
      "note": 102,
      "start": 12.9553,
      "duration": 0.0053,
      "velocity": 98,
      "chip": "ym2612"
    },
    {
      "channel": 3,
      "note": 96,
      "start": 12.9556,
      "duration": 0.0618,
      "velocity": 110,
      "chip": "ym2612"
    },
    {
      "channel": 4,
      "note": 60,
      "start": 12.9558,
      "duration": 0.0052,
      "velocity": 110,
      "chip": "ym2612"
    },
    {
      "channel": 2,
      "note": 102,
      "start": 12.9609,
      "duration": 0.0562,
      "velocity": 98,
      "chip": "ym2612"
    },
    {
      "channel": 4,
      "note": 60,
      "start": 12.9612,
      "duration": 0.0564,
      "velocity": 110,
      "chip": "ym2612"
    },
    {
      "channel": 0,
      "note": 102,
      "start": 13.0168,
      "duration": 0.2982,
      "velocity": 110,
      "chip": "ym2612"
    },
    {
      "channel": 2,
      "note": 91,
      "start": 13.0174,
      "duration": 0.0046,
      "velocity": 98,
      "chip": "ym2612"
    },
    {
      "channel": 3,
      "note": 98,
      "start": 13.0176,
      "duration": 0.0614,
      "velocity": 110,
      "chip": "ym2612"
    },
    {
      "channel": 4,
      "note": 62,
      "start": 13.0178,
      "duration": 0.0614,
      "velocity": 110,
      "chip": "ym2612"
    },
    {
      "channel": 1,
      "note": 102,
      "start": 13.0219,
      "duration": 0.2993,
      "velocity": 110,
      "chip": "ym2612"
    },
    {
      "channel": 2,
      "note": 91,
      "start": 13.0223,
      "duration": 0.0563,
      "velocity": 98,
      "chip": "ym2612"
    },
    {
      "channel": 2,
      "note": 103,
      "start": 13.0788,
      "duration": 0.0998,
      "velocity": 98,
      "chip": "ym2612"
    },
    {
      "channel": 3,
      "note": 95,
      "start": 13.0791,
      "duration": 0.2169,
      "velocity": 110,
      "chip": "ym2612"
    },
    {
      "channel": 4,
      "note": 62,
      "start": 13.0794,
      "duration": 0.2168,
      "velocity": 110,
      "chip": "ym2612"
    },
    {
      "channel": 2,
      "note": 103,
      "start": 13.1789,
      "duration": 0.1168,
      "velocity": 98,
      "chip": "ym2612"
    },
    {
      "channel": 2,
      "note": 91,
      "start": 13.2959,
      "duration": 0.0046,
      "velocity": 98,
      "chip": "ym2612"
    },
    {
      "channel": 3,
      "note": 96,
      "start": 13.2961,
      "duration": 0.0098,
      "velocity": 110,
      "chip": "ym2612"
    },
    {
      "channel": 4,
      "note": 62,
      "start": 13.2964,
      "duration": 0.0096,
      "velocity": 110,
      "chip": "ym2612"
    },
    {
      "channel": 2,
      "note": 91,
      "start": 13.3008,
      "duration": 0.0047,
      "velocity": 98,
      "chip": "ym2612"
    },
    {
      "channel": 2,
      "note": 103,
      "start": 13.3058,
      "duration": 0.0046,
      "velocity": 98,
      "chip": "ym2612"
    },
    {
      "channel": 3,
      "note": 98,
      "start": 13.3059,
      "duration": 0.0101,
      "velocity": 110,
      "chip": "ym2612"
    },
    {
      "channel": 4,
      "note": 62,
      "start": 13.3062,
      "duration": 0.0101,
      "velocity": 110,
      "chip": "ym2612"
    },
    {
      "channel": 2,
      "note": 103,
      "start": 13.3107,
      "duration": 0.0049,
      "velocity": 98,
      "chip": "ym2612"
    },
    {
      "channel": 0,
      "note": 100,
      "start": 13.3153,
      "duration": 0.2557,
      "velocity": 110,
      "chip": "ym2612"
    },
    {
      "channel": 2,
      "note": 91,
      "start": 13.316,
      "duration": 0.0055,
      "velocity": 98,
      "chip": "ym2612"
    },
    {
      "channel": 3,
      "note": 103,
      "start": 13.3163,
      "duration": 0.0615,
      "velocity": 110,
      "chip": "ym2612"
    },
    {
      "channel": 4,
      "note": 60,
      "start": 13.3166,
      "duration": 0.0615,
      "velocity": 110,
      "chip": "ym2612"
    },
    {
      "channel": 1,
      "note": 100,
      "start": 13.3213,
      "duration": 0.2541,
      "velocity": 110,
      "chip": "ym2612"
    },
    {
      "channel": 2,
      "note": 91,
      "start": 13.3217,
      "duration": 0.0558,
      "velocity": 98,
      "chip": "ym2612"
    },
    {
      "channel": 2,
      "note": 103,
      "start": 13.3777,
      "duration": 0.1167,
      "velocity": 98,
      "chip": "ym2612"
    },
    {
      "channel": 3,
      "note": 100,
      "start": 13.378,
      "duration": 0.1212,
      "velocity": 110,
      "chip": "ym2612"
    },
    {
      "channel": 4,
      "note": 60,
      "start": 13.3783,
      "duration": 0.1212,
      "velocity": 110,
      "chip": "ym2612"
    },
    {
      "channel": 2,
      "note": 103,
      "start": 13.4946,
      "duration": 0.0044,
      "velocity": 98,
      "chip": "ym2612"
    },
    {
      "channel": 2,
      "note": 91,
      "start": 13.4991,
      "duration": 0.0053,
      "velocity": 98,
      "chip": "ym2612"
    },
    {
      "channel": 3,
      "note": 102,
      "start": 13.4995,
      "duration": 0.0101,
      "velocity": 110,
      "chip": "ym2612"
    },
    {
      "channel": 4,
      "note": 60,
      "start": 13.4997,
      "duration": 0.0102,
      "velocity": 110,
      "chip": "ym2612"
    },
    {
      "channel": 2,
      "note": 91,
      "start": 13.5047,
      "duration": 0.0046,
      "velocity": 98,
      "chip": "ym2612"
    },
    {
      "channel": 2,
      "note": 103,
      "start": 13.5095,
      "duration": 0.0047,
      "velocity": 98,
      "chip": "ym2612"
    },
    {
      "channel": 3,
      "note": 103,
      "start": 13.5098,
      "duration": 0.0619,
      "velocity": 110,
      "chip": "ym2612"
    },
    {
      "channel": 4,
      "note": 60,
      "start": 13.5101,
      "duration": 0.0045,
      "velocity": 110,
      "chip": "ym2612"
    },
    {
      "channel": 2,
      "note": 103,
      "start": 13.5145,
      "duration": 0.0569,
      "velocity": 98,
      "chip": "ym2612"
    },
    {
      "channel": 4,
      "note": 60,
      "start": 13.5148,
      "duration": 0.0571,
      "velocity": 110,
      "chip": "ym2612"
    },
    {
      "channel": 2,
      "note": 92,
      "start": 13.5716,
      "duration": 0.0039,
      "velocity": 98,
      "chip": "ym2612"
    },
    {
      "channel": 4,
      "note": 61,
      "start": 13.5721,
      "duration": 0.0602,
      "velocity": 110,
      "chip": "ym2612"
    },
    {
      "channel": 2,
      "note": 92,
      "start": 13.5758,
      "duration": 0.0561,
      "velocity": 98,
      "chip": "ym2612"
    },
    {
      "channel": 2,
      "note": 104,
      "start": 13.6322,
      "duration": 0.0998,
      "velocity": 98,
      "chip": "ym2612"
    },
    {
      "channel": 4,
      "note": 61,
      "start": 13.6325,
      "duration": 0.2173,
      "velocity": 110,
      "chip": "ym2612"
    },
    {
      "channel": 2,
      "note": 104,
      "start": 13.7322,
      "duration": 0.1168,
      "velocity": 98,
      "chip": "ym2612"
    },
    {
      "channel": 0,
      "note": 99,
      "start": 13.8489,
      "duration": 0.0193,
      "velocity": 110,
      "chip": "ym2612"
    },
    {
      "channel": 2,
      "note": 92,
      "start": 13.8494,
      "duration": 0.0043,
      "velocity": 98,
      "chip": "ym2612"
    },
    {
      "channel": 3,
      "note": 95,
      "start": 13.8497,
      "duration": 0.0194,
      "velocity": 110,
      "chip": "ym2612"
    },
    {
      "channel": 4,
      "note": 61,
      "start": 13.8499,
      "duration": 0.0084,
      "velocity": 110,
      "chip": "ym2612"
    },
    {
      "channel": 1,
      "note": 99,
      "start": 13.8536,
      "duration": 0.0217,
      "velocity": 110,
      "chip": "ym2612"
    },
    {
      "channel": 2,
      "note": 92,
      "start": 13.854,
      "duration": 0.0041,
      "velocity": 98,
      "chip": "ym2612"
    },
    {
      "channel": 2,
      "note": 104,
      "start": 13.8582,
      "duration": 0.0049,
      "velocity": 98,
      "chip": "ym2612"
    },
    {
      "channel": 4,
      "note": 61,
      "start": 13.8585,
      "duration": 0.0109,
      "velocity": 110,
      "chip": "ym2612"
    },
    {
      "channel": 2,
      "note": 104,
      "start": 13.8634,
      "duration": 0.0054,
      "velocity": 98,
      "chip": "ym2612"
    },
    {
      "channel": 0,
      "note": 100,
      "start": 13.8684,
      "duration": 0.1843,
      "velocity": 110,
      "chip": "ym2612"
    },
    {
      "channel": 2,
      "note": 92,
      "start": 13.869,
      "duration": 0.0067,
      "velocity": 98,
      "chip": "ym2612"
    },
    {
      "channel": 3,
      "note": 97,
      "start": 13.8693,
      "duration": 0.1842,
      "velocity": 110,
      "chip": "ym2612"
    },
    {
      "channel": 4,
      "note": 61,
      "start": 13.8696,
      "duration": 0.0624,
      "velocity": 110,
      "chip": "ym2612"
    },
    {
      "channel": 1,
      "note": 100,
      "start": 13.8756,
      "duration": 0.1825,
      "velocity": 110,
      "chip": "ym2612"
    },
    {
      "channel": 2,
      "note": 92,
      "start": 13.8759,
      "duration": 0.0557,
      "velocity": 98,
      "chip": "ym2612"
    },
    {
      "channel": 2,
      "note": 104,
      "start": 13.9318,
      "duration": 0.1167,
      "velocity": 98,
      "chip": "ym2612"
    },
    {
      "channel": 4,
      "note": 61,
      "start": 13.9322,
      "duration": 0.1216,
      "velocity": 110,
      "chip": "ym2612"
    },
    {
      "channel": 2,
      "note": 104,
      "start": 14.0487,
      "duration": 0.0045,
      "velocity": 98,
      "chip": "ym2612"
    },
    {
      "channel": 0,
      "note": 102,
      "start": 14.053,
      "duration": 0.0722,
      "velocity": 110,
      "chip": "ym2612"
    },
    {
      "channel": 2,
      "note": 92,
      "start": 14.0535,
      "duration": 0.0049,
      "velocity": 98,
      "chip": "ym2612"
    },
    {
      "channel": 3,
      "note": 99,
      "start": 14.0538,
      "duration": 0.0724,
      "velocity": 110,
      "chip": "ym2612"
    },
    {
      "channel": 4,
      "note": 61,
      "start": 14.054,
      "duration": 0.01,
      "velocity": 110,
      "chip": "ym2612"
    },
    {
      "channel": 1,
      "note": 102,
      "start": 14.0583,
      "duration": 0.0725,
      "velocity": 110,
      "chip": "ym2612"
    },
    {
      "channel": 2,
      "note": 92,
      "start": 14.0587,
      "duration": 0.005,
      "velocity": 98,
      "chip": "ym2612"
    },
    {
      "channel": 2,
      "note": 104,
      "start": 14.0639,
      "duration": 0.0044,
      "velocity": 98,
      "chip": "ym2612"
    },
    {
      "channel": 4,
      "note": 61,
      "start": 14.0642,
      "duration": 0.0045,
      "velocity": 110,
      "chip": "ym2612"
    },
    {
      "channel": 2,
      "note": 104,
      "start": 14.0686,
      "duration": 0.0572,
      "velocity": 98,
      "chip": "ym2612"
    },
    {
      "channel": 4,
      "note": 61,
      "start": 14.0689,
      "duration": 0.0576,
      "velocity": 110,
      "chip": "ym2612"
    },
    {
      "channel": 0,
      "note": 94,
      "start": 14.1255,
      "duration": 0.5208,
      "velocity": 110,
      "chip": "ym2612"
    },
    {
      "channel": 2,
      "note": 90,
      "start": 14.1261,
      "duration": 0.005,
      "velocity": 98,
      "chip": "ym2612"
    },
    {
      "channel": 3,
      "note": 90,
      "start": 14.1264,
      "duration": 0.2816,
      "velocity": 110,
      "chip": "ym2612"
    },
    {
      "channel": 4,
      "note": 54,
      "start": 14.1267,
      "duration": 0.061,
      "velocity": 110,
      "chip": "ym2612"
    },
    {
      "channel": 1,
      "note": 94,
      "start": 14.131,
      "duration": 0.5207,
      "velocity": 110,
      "chip": "ym2612"
    },
    {
      "channel": 2,
      "note": 90,
      "start": 14.1313,
      "duration": 0.056,
      "velocity": 98,
      "chip": "ym2612"
    },
    {
      "channel": 2,
      "note": 102,
      "start": 14.1875,
      "duration": 0.0998,
      "velocity": 98,
      "chip": "ym2612"
    },
    {
      "channel": 4,
      "note": 54,
      "start": 14.1878,
      "duration": 0.2002,
      "velocity": 110,
      "chip": "ym2612"
    },
    {
      "channel": 2,
      "note": 102,
      "start": 14.2876,
      "duration": 0.1001,
      "velocity": 98,
      "chip": "ym2612"
    },
    {
      "channel": 2,
      "note": 90,
      "start": 14.388,
      "duration": 0.0049,
      "velocity": 98,
      "chip": "ym2612"
    },
    {
      "channel": 4,
      "note": 54,
      "start": 14.3882,
      "duration": 0.0093,
      "velocity": 110,
      "chip": "ym2612"
    },
    {
      "channel": 2,
      "note": 90,
      "start": 14.3932,
      "duration": 0.004,
      "velocity": 98,
      "chip": "ym2612"
    },
    {
      "channel": 2,
      "note": 102,
      "start": 14.3974,
      "duration": 0.0048,
      "velocity": 98,
      "chip": "ym2612"
    },
    {
      "channel": 4,
      "note": 54,
      "start": 14.3978,
      "duration": 0.0105,
      "velocity": 110,
      "chip": "ym2612"
    },
    {
      "channel": 2,
      "note": 102,
      "start": 14.4025,
      "duration": 0.0052,
      "velocity": 98,
      "chip": "ym2612"
    },
    {
      "channel": 2,
      "note": 90,
      "start": 14.4079,
      "duration": 0.0052,
      "velocity": 98,
      "chip": "ym2612"
    },
    {
      "channel": 3,
      "note": 88,
      "start": 14.4082,
      "duration": 0.1667,
      "velocity": 110,
      "chip": "ym2612"
    },
    {
      "channel": 4,
      "note": 54,
      "start": 14.4084,
      "duration": 0.0609,
      "velocity": 110,
      "chip": "ym2612"
    },
    {
      "channel": 2,
      "note": 90,
      "start": 14.4134,
      "duration": 0.0556,
      "velocity": 98,
      "chip": "ym2612"
    },
    {
      "channel": 2,
      "note": 102,
      "start": 14.4693,
      "duration": 0.0999,
      "velocity": 98,
      "chip": "ym2612"
    },
    {
      "channel": 4,
      "note": 54,
      "start": 14.4696,
      "duration": 0.1056,
      "velocity": 110,
      "chip": "ym2612"
    },
    {
      "channel": 2,
      "note": 102,
      "start": 14.5695,
      "duration": 0.0051,
      "velocity": 98,
      "chip": "ym2612"
    },
    {
      "channel": 2,
      "note": 90,
      "start": 14.5748,
      "duration": 0.0044,
      "velocity": 98,
      "chip": "ym2612"
    },
    {
      "channel": 3,
      "note": 87,
      "start": 14.5751,
      "duration": 0.0722,
      "velocity": 110,
      "chip": "ym2612"
    },
    {
      "channel": 4,
      "note": 54,
      "start": 14.5753,
      "duration": 0.0098,
      "velocity": 110,
      "chip": "ym2612"
    },
    {
      "channel": 2,
      "note": 90,
      "start": 14.5795,
      "duration": 0.0053,
      "velocity": 98,
      "chip": "ym2612"
    },
    {
      "channel": 2,
      "note": 102,
      "start": 14.585,
      "duration": 0.0043,
      "velocity": 98,
      "chip": "ym2612"
    },
    {
      "channel": 4,
      "note": 54,
      "start": 14.5853,
      "duration": 0.0044,
      "velocity": 110,
      "chip": "ym2612"
    },
    {
      "channel": 2,
      "note": 102,
      "start": 14.5896,
      "duration": 0.0573,
      "velocity": 98,
      "chip": "ym2612"
    },
    {
      "channel": 4,
      "note": 54,
      "start": 14.5899,
      "duration": 0.0576,
      "velocity": 110,
      "chip": "ym2612"
    },
    {
      "channel": 0,
      "note": 94,
      "start": 14.6466,
      "duration": 0.4489,
      "velocity": 110,
      "chip": "ym2612"
    },
    {
      "channel": 2,
      "note": 90,
      "start": 14.6472,
      "duration": 0.0048,
      "velocity": 98,
      "chip": "ym2612"
    },
    {
      "channel": 3,
      "note": 90,
      "start": 14.6475,
      "duration": 0.5047,
      "velocity": 110,
      "chip": "ym2612"
    },
    {
      "channel": 4,
      "note": 63,
      "start": 14.6477,
      "duration": 0.0446,
      "velocity": 110,
      "chip": "ym2612"
    },
    {
      "channel": 1,
      "note": 94,
      "start": 14.6519,
      "duration": 0.4488,
      "velocity": 110,
      "chip": "ym2612"
    },
    {
      "channel": 2,
      "note": 90,
      "start": 14.6522,
      "duration": 0.0397,
      "velocity": 98,
      "chip": "ym2612"
    },
    {
      "channel": 2,
      "note": 102,
      "start": 14.6922,
      "duration": 0.1163,
      "velocity": 98,
      "chip": "ym2612"
    },
    {
      "channel": 4,
      "note": 63,
      "start": 14.6925,
      "duration": 0.2169,
      "velocity": 110,
      "chip": "ym2612"
    },
    {
      "channel": 2,
      "note": 102,
      "start": 14.8089,
      "duration": 0.1001,
      "velocity": 98,
      "chip": "ym2612"
    },
    {
      "channel": 2,
      "note": 90,
      "start": 14.9093,
      "duration": 0.0048,
      "velocity": 98,
      "chip": "ym2612"
    },
    {
      "channel": 4,
      "note": 63,
      "start": 14.9096,
      "duration": 0.0092,
      "velocity": 110,
      "chip": "ym2612"
    },
    {
      "channel": 2,
      "note": 90,
      "start": 14.9144,
      "duration": 0.0041,
      "velocity": 98,
      "chip": "ym2612"
    },
    {
      "channel": 2,
      "note": 102,
      "start": 14.9187,
      "duration": 0.005,
      "velocity": 98,
      "chip": "ym2612"
    },
    {
      "channel": 4,
      "note": 63,
      "start": 14.919,
      "duration": 0.0105,
      "velocity": 110,
      "chip": "ym2612"
    },
    {
      "channel": 2,
      "note": 102,
      "start": 14.924,
      "duration": 0.0051,
      "velocity": 98,
      "chip": "ym2612"
    },
    {
      "channel": 2,
      "note": 90,
      "start": 14.9295,
      "duration": 0.0043,
      "velocity": 98,
      "chip": "ym2612"
    },
    {
      "channel": 4,
      "note": 63,
      "start": 14.9297,
      "duration": 0.061,
      "velocity": 110,
      "chip": "ym2612"
    },
    {
      "channel": 2,
      "note": 90,
      "start": 14.9341,
      "duration": 0.0563,
      "velocity": 98,
      "chip": "ym2612"
    },
    {
      "channel": 2,
      "note": 102,
      "start": 14.9907,
      "duration": 0.0999,
      "velocity": 98,
      "chip": "ym2612"
    },
    {
      "channel": 4,
      "note": 63,
      "start": 14.991,
      "duration": 0.1053,
      "velocity": 110,
      "chip": "ym2612"
    },
    {
      "channel": 2,
      "note": 102,
      "start": 15.0909,
      "duration": 0.005,
      "velocity": 98,
      "chip": "ym2612"
    },
    {
      "channel": 0,
      "note": 104,
      "start": 15.0956,
      "duration": 0.0556,
      "velocity": 110,
      "chip": "ym2612"
    },
    {
      "channel": 2,
      "note": 90,
      "start": 15.0962,
      "duration": 0.0047,
      "velocity": 98,
      "chip": "ym2612"
    },
    {
      "channel": 4,
      "note": 63,
      "start": 15.0965,
      "duration": 0.0103,
      "velocity": 110,
      "chip": "ym2612"
    },
    {
      "channel": 1,
      "note": 104,
      "start": 15.1009,
      "duration": 0.0566,
      "velocity": 110,
      "chip": "ym2612"
    },
    {
      "channel": 2,
      "note": 90,
      "start": 15.1012,
      "duration": 0.0052,
      "velocity": 98,
      "chip": "ym2612"
    },
    {
      "channel": 2,
      "note": 102,
      "start": 15.1067,
      "duration": 0.0042,
      "velocity": 98,
      "chip": "ym2612"
    },
    {
      "channel": 4,
      "note": 63,
      "start": 15.1069,
      "duration": 0.0044,
      "velocity": 110,
      "chip": "ym2612"
    },
    {
      "channel": 2,
      "note": 102,
      "start": 15.1112,
      "duration": 0.0406,
      "velocity": 98,
      "chip": "ym2612"
    },
    {
      "channel": 4,
      "note": 63,
      "start": 15.1115,
      "duration": 0.041,
      "velocity": 110,
      "chip": "ym2612"
    },
    {
      "channel": 0,
      "note": 104,
      "start": 15.1515,
      "duration": 0.2993,
      "velocity": 110,
      "chip": "ym2612"
    },
    {
      "channel": 2,
      "note": 87,
      "start": 15.1521,
      "duration": 0.0056,
      "velocity": 98,
      "chip": "ym2612"
    },
    {
      "channel": 3,
      "note": 84,
      "start": 15.1524,
      "duration": 0.2882,
      "velocity": 110,
      "chip": "ym2612"
    },
    {
      "channel": 4,
      "note": 56,
      "start": 15.1526,
      "duration": 0.0613,
      "velocity": 110,
      "chip": "ym2612"
    },
    {
      "channel": 1,
      "note": 104,
      "start": 15.1576,
      "duration": 0.2984,
      "velocity": 110,
      "chip": "ym2612"
    },
    {
      "channel": 2,
      "note": 87,
      "start": 15.158,
      "duration": 0.0556,
      "velocity": 98,
      "chip": "ym2612"
    },
    {
      "channel": 2,
      "note": 99,
      "start": 15.2138,
      "duration": 0.1164,
      "velocity": 98,
      "chip": "ym2612"
    },
    {
      "channel": 4,
      "note": 56,
      "start": 15.2141,
      "duration": 0.2169,
      "velocity": 110,
      "chip": "ym2612"
    },
    {
      "channel": 2,
      "note": 99,
      "start": 15.3305,
      "duration": 0.1001,
      "velocity": 98,
      "chip": "ym2612"
    },
    {
      "channel": 2,
      "note": 87,
      "start": 15.4309,
      "duration": 0.0049,
      "velocity": 98,
      "chip": "ym2612"
    },
    {
      "channel": 4,
      "note": 56,
      "start": 15.4312,
      "duration": 0.0097,
      "velocity": 110,
      "chip": "ym2612"
    },
    {
      "channel": 2,
      "note": 87,
      "start": 15.4361,
      "duration": 0.0041,
      "velocity": 98,
      "chip": "ym2612"
    },
    {
      "channel": 2,
      "note": 99,
      "start": 15.4405,
      "duration": 0.0046,
      "velocity": 98,
      "chip": "ym2612"
    },
    {
      "channel": 3,
      "note": 85,
      "start": 15.4408,
      "duration": 0.0046,
      "velocity": 110,
      "chip": "ym2612"
    },
    {
      "channel": 4,
      "note": 56,
      "start": 15.441,
      "duration": 0.0107,
      "velocity": 110,
      "chip": "ym2612"
    },
    {
      "channel": 2,
      "note": 99,
      "start": 15.4454,
      "duration": 0.0058,
      "velocity": 98,
      "chip": "ym2612"
    },
    {
      "channel": 3,
      "note": 86,
      "start": 15.4457,
      "duration": 0.0057,
      "velocity": 110,
      "chip": "ym2612"
    },
    {
      "channel": 0,
      "note": 102,
      "start": 15.4509,
      "duration": 0.2393,
      "velocity": 110,
      "chip": "ym2612"
    },
    {
      "channel": 2,
      "note": 87,
      "start": 15.4513,
      "duration": 0.005,
      "velocity": 98,
      "chip": "ym2612"
    },
    {
      "channel": 3,
      "note": 87,
      "start": 15.4516,
      "duration": 0.2395,
      "velocity": 110,
      "chip": "ym2612"
    },
    {
      "channel": 4,
      "note": 56,
      "start": 15.4519,
      "duration": 0.0611,
      "velocity": 110,
      "chip": "ym2612"
    },
    {
      "channel": 1,
      "note": 102,
      "start": 15.4562,
      "duration": 0.2402,
      "velocity": 110,
      "chip": "ym2612"
    },
    {
      "channel": 2,
      "note": 87,
      "start": 15.4565,
      "duration": 0.056,
      "velocity": 98,
      "chip": "ym2612"
    },
    {
      "channel": 2,
      "note": 99,
      "start": 15.5128,
      "duration": 0.1,
      "velocity": 98,
      "chip": "ym2612"
    },
    {
      "channel": 4,
      "note": 56,
      "start": 15.5131,
      "duration": 0.1054,
      "velocity": 110,
      "chip": "ym2612"
    },
    {
      "channel": 2,
      "note": 99,
      "start": 15.613,
      "duration": 0.0051,
      "velocity": 98,
      "chip": "ym2612"
    },
    {
      "channel": 2,
      "note": 87,
      "start": 15.6184,
      "duration": 0.0046,
      "velocity": 98,
      "chip": "ym2612"
    },
    {
      "channel": 4,
      "note": 56,
      "start": 15.6188,
      "duration": 0.0093,
      "velocity": 110,
      "chip": "ym2612"
    },
    {
      "channel": 2,
      "note": 87,
      "start": 15.6232,
      "duration": 0.0045,
      "velocity": 98,
      "chip": "ym2612"
    },
    {
      "channel": 2,
      "note": 99,
      "start": 15.628,
      "duration": 0.006,
      "velocity": 98,
      "chip": "ym2612"
    },
    {
      "channel": 4,
      "note": 56,
      "start": 15.6283,
      "duration": 0.006,
      "velocity": 110,
      "chip": "ym2612"
    },
    {
      "channel": 2,
      "note": 99,
      "start": 15.6342,
      "duration": 0.0566,
      "velocity": 98,
      "chip": "ym2612"
    },
    {
      "channel": 4,
      "note": 56,
      "start": 15.6344,
      "duration": 0.057,
      "velocity": 110,
      "chip": "ym2612"
    },
    {
      "channel": 0,
      "note": 95,
      "start": 15.6905,
      "duration": 0.0615,
      "velocity": 110,
      "chip": "ym2612"
    },
    {
      "channel": 2,
      "note": 85,
      "start": 15.6911,
      "duration": 0.0056,
      "velocity": 98,
      "chip": "ym2612"
    },
    {
      "channel": 3,
      "note": 81,
      "start": 15.6914,
      "duration": 0.2986,
      "velocity": 110,
      "chip": "ym2612"
    },
    {
      "channel": 4,
      "note": 57,
      "start": 15.6916,
      "duration": 0.0611,
      "velocity": 110,
      "chip": "ym2612"
    },
    {
      "channel": 1,
      "note": 95,
      "start": 15.6966,
      "duration": 0.1722,
      "velocity": 110,
      "chip": "ym2612"
    },
    {
      "channel": 2,
      "note": 85,
      "start": 15.6968,
      "duration": 0.0555,
      "velocity": 98,
      "chip": "ym2612"
    },
    {
      "channel": 0,
      "note": 97,
      "start": 15.7521,
      "duration": 0.2167,
      "velocity": 110,
      "chip": "ym2612"
    },
    {
      "channel": 2,
      "note": 97,
      "start": 15.7526,
      "duration": 0.1163,
      "velocity": 98,
      "chip": "ym2612"
    },
    {
      "channel": 4,
      "note": 57,
      "start": 15.7529,
      "duration": 0.2166,
      "velocity": 110,
      "chip": "ym2612"
    },
    {
      "channel": 1,
      "note": 97,
      "start": 15.8689,
      "duration": 0.1049,
      "velocity": 110,
      "chip": "ym2612"
    },
    {
      "channel": 2,
      "note": 97,
      "start": 15.8693,
      "duration": 0.0999,
      "velocity": 98,
      "chip": "ym2612"
    },
    {
      "channel": 0,
      "note": 99,
      "start": 15.969,
      "duration": 0.0097,
      "velocity": 110,
      "chip": "ym2612"
    },
    {
      "channel": 2,
      "note": 85,
      "start": 15.9694,
      "duration": 0.0047,
      "velocity": 98,
      "chip": "ym2612"
    },
    {
      "channel": 4,
      "note": 57,
      "start": 15.9697,
      "duration": 0.0096,
      "velocity": 110,
      "chip": "ym2612"
    },
    {
      "channel": 1,
      "note": 99,
      "start": 15.9741,
      "duration": 0.0095,
      "velocity": 110,
      "chip": "ym2612"
    },
    {
      "channel": 2,
      "note": 85,
      "start": 15.9743,
      "duration": 0.0046,
      "velocity": 98,
      "chip": "ym2612"
    },
    {
      "channel": 0,
      "note": 100,
      "start": 15.9788,
      "duration": 0.0106,
      "velocity": 110,
      "chip": "ym2612"
    },
    {
      "channel": 2,
      "note": 97,
      "start": 15.9793,
      "duration": 0.0045,
      "velocity": 98,
      "chip": "ym2612"
    },
    {
      "channel": 4,
      "note": 57,
      "start": 15.9796,
      "duration": 0.0108,
      "velocity": 110,
      "chip": "ym2612"
    },
    {
      "channel": 1,
      "note": 100,
      "start": 15.9837,
      "duration": 0.011,
      "velocity": 110,
      "chip": "ym2612"
    },
    {
      "channel": 2,
      "note": 97,
      "start": 15.9841,
      "duration": 0.0057,
      "velocity": 98,
      "chip": "ym2612"
    },
    {
      "channel": 0,
      "note": 97,
      "start": 15.9895,
      "duration": 0.0617,
      "velocity": 110,
      "chip": "ym2612"
    },
    {
      "channel": 2,
      "note": 85,
      "start": 15.99,
      "duration": 0.0051,
      "velocity": 98,
      "chip": "ym2612"
    },
    {
      "channel": 3,
      "note": 82,
      "start": 15.9903,
      "duration": 0.005,
      "velocity": 110,
      "chip": "ym2612"
    },
    {
      "channel": 4,
      "note": 58,
      "start": 15.9905,
      "duration": 0.0617,
      "velocity": 110,
      "chip": "ym2612"
    },
    {
      "channel": 1,
      "note": 97,
      "start": 15.995,
      "duration": 0.1565,
      "velocity": 110,
      "chip": "ym2612"
    },
    {
      "channel": 2,
      "note": 85,
      "start": 15.9953,
      "duration": 0.0563,
      "velocity": 98,
      "chip": "ym2612"
    },
    {
      "channel": 3,
      "note": 81,
      "start": 15.9955,
      "duration": 0.0565,
      "velocity": 110,
      "chip": "ym2612"
    },
    {
      "channel": 0,
      "note": 99,
      "start": 16.0514,
      "duration": 0.1046,
      "velocity": 110,
      "chip": "ym2612"
    },
    {
      "channel": 2,
      "note": 97,
      "start": 16.0519,
      "duration": 0.0998,
      "velocity": 98,
      "chip": "ym2612"
    },
    {
      "channel": 3,
      "note": 82,
      "start": 16.0522,
      "duration": 0.1771,
      "velocity": 110,
      "chip": "ym2612"
    },
    {
      "channel": 4,
      "note": 58,
      "start": 16.0524,
      "duration": 0.1045,
      "velocity": 110,
      "chip": "ym2612"
    },
    {
      "channel": 1,
      "note": 99,
      "start": 16.1517,
      "duration": 0.0101,
      "velocity": 110,
      "chip": "ym2612"
    },
    {
      "channel": 2,
      "note": 97,
      "start": 16.1519,
      "duration": 0.0046,
      "velocity": 98,
      "chip": "ym2612"
    },
    {
      "channel": 0,
      "note": 100,
      "start": 16.1563,
      "duration": 0.0102,
      "velocity": 110,
      "chip": "ym2612"
    },
    {
      "channel": 2,
      "note": 85,
      "start": 16.1568,
      "duration": 0.0051,
      "velocity": 98,
      "chip": "ym2612"
    },
    {
      "channel": 4,
      "note": 58,
      "start": 16.1571,
      "duration": 0.0101,
      "velocity": 110,
      "chip": "ym2612"
    },
    {
      "channel": 1,
      "note": 100,
      "start": 16.1619,
      "duration": 0.0103,
      "velocity": 110,
      "chip": "ym2612"
    },
    {
      "channel": 2,
      "note": 85,
      "start": 16.1622,
      "duration": 0.0047,
      "velocity": 98,
      "chip": "ym2612"
    },
    {
      "channel": 0,
      "note": 102,
      "start": 16.1668,
      "duration": 0.0617,
      "velocity": 110,
      "chip": "ym2612"
    },
    {
      "channel": 2,
      "note": 97,
      "start": 16.1671,
      "duration": 0.0054,
      "velocity": 98,
      "chip": "ym2612"
    },
    {
      "channel": 4,
      "note": 58,
      "start": 16.1674,
      "duration": 0.0621,
      "velocity": 110,
      "chip": "ym2612"
    },
    {
      "channel": 1,
      "note": 102,
      "start": 16.1724,
      "duration": 0.062,
      "velocity": 110,
      "chip": "ym2612"
    },
    {
      "channel": 2,
      "note": 97,
      "start": 16.1727,
      "duration": 0.0562,
      "velocity": 98,
      "chip": "ym2612"
    },
    {
      "channel": 0,
      "note": 99,
      "start": 16.2287,
      "duration": 0.0618,
      "velocity": 110,
      "chip": "ym2612"
    },
    {
      "channel": 2,
      "note": 91,
      "start": 16.2292,
      "duration": 0.0054,
      "velocity": 98,
      "chip": "ym2612"
    },
    {
      "channel": 3,
      "note": 95,
      "start": 16.2295,
      "duration": 0.0617,
      "velocity": 110,
      "chip": "ym2612"
    },
    {
      "channel": 4,
      "note": 51,
      "start": 16.2297,
      "duration": 0.0617,
      "velocity": 110,
      "chip": "ym2612"
    },
    {
      "channel": 1,
      "note": 99,
      "start": 16.2345,
      "duration": 0.061,
      "velocity": 110,
      "chip": "ym2612"
    },
    {
      "channel": 2,
      "note": 91,
      "start": 16.2349,
      "duration": 0.056,
      "velocity": 98,
      "chip": "ym2612"
    },
    {
      "channel": 0,
      "note": 100,
      "start": 16.2907,
      "duration": 0.01,
      "velocity": 110,
      "chip": "ym2612"
    },
    {
      "channel": 2,
      "note": 103,
      "start": 16.2911,
      "duration": 0.0047,
      "velocity": 98,
      "chip": "ym2612"
    },
    {
      "channel": 3,
      "note": 94,
      "start": 16.2913,
      "duration": 0.0101,
      "velocity": 110,
      "chip": "ym2612"
    },
    {
      "channel": 4,
      "note": 51,
      "start": 16.2915,
      "duration": 0.0101,
      "velocity": 110,
      "chip": "ym2612"
    },
    {
      "channel": 1,
      "note": 100,
      "start": 16.2957,
      "duration": 0.0104,
      "velocity": 110,
      "chip": "ym2612"
    },
    {
      "channel": 2,
      "note": 103,
      "start": 16.2961,
      "duration": 0.005,
      "velocity": 98,
      "chip": "ym2612"
    },
    {
      "channel": 0,
      "note": 102,
      "start": 16.3008,
      "duration": 0.0105,
      "velocity": 110,
      "chip": "ym2612"
    },
    {
      "channel": 2,
      "note": 91,
      "start": 16.3014,
      "duration": 0.0051,
      "velocity": 98,
      "chip": "ym2612"
    },
    {
      "channel": 3,
      "note": 91,
      "start": 16.3015,
      "duration": 0.0107,
      "velocity": 110,
      "chip": "ym2612"
    },
    {
      "channel": 4,
      "note": 51,
      "start": 16.3019,
      "duration": 0.0106,
      "velocity": 110,
      "chip": "ym2612"
    },
    {
      "channel": 1,
      "note": 102,
      "start": 16.3064,
      "duration": 0.0105,
      "velocity": 110,
      "chip": "ym2612"
    },
    {
      "channel": 2,
      "note": 91,
      "start": 16.3067,
      "duration": 0.0052,
      "velocity": 98,
      "chip": "ym2612"
    },
    {
      "channel": 0,
      "note": 104,
      "start": 16.3117,
      "duration": 0.0103,
      "velocity": 110,
      "chip": "ym2612"
    },
    {
      "channel": 2,
      "note": 103,
      "start": 16.3121,
      "duration": 0.0049,
      "velocity": 98,
      "chip": "ym2612"
    },
    {
      "channel": 3,
      "note": 87,
      "start": 16.3124,
      "duration": 0.0104,
      "velocity": 110,
      "chip": "ym2612"
    },
    {
      "channel": 4,
      "note": 51,
      "start": 16.3127,
      "duration": 0.0104,
      "velocity": 110,
      "chip": "ym2612"
    },
    {
      "channel": 1,
      "note": 104,
      "start": 16.317,
      "duration": 0.0103,
      "velocity": 110,
      "chip": "ym2612"
    },
    {
      "channel": 2,
      "note": 103,
      "start": 16.3173,
      "duration": 0.0052,
      "velocity": 98,
      "chip": "ym2612"
    },
    {
      "channel": 0,
      "note": 107,
      "start": 16.3223,
      "duration": 0.019,
      "velocity": 110,
      "chip": "ym2612"
    },
    {
      "channel": 2,
      "note": 92,
      "start": 16.3227,
      "duration": 0.0048,
      "velocity": 98,
      "chip": "ym2612"
    },
    {
      "channel": 3,
      "note": 83,
      "start": 16.323,
      "duration": 0.0092,
      "velocity": 110,
      "chip": "ym2612"
    },
    {
      "channel": 4,
      "note": 52,
      "start": 16.3232,
      "duration": 0.0192,
      "velocity": 110,
      "chip": "ym2612"
    },
    {
      "channel": 1,
      "note": 107,
      "start": 16.3275,
      "duration": 0.0198,
      "velocity": 110,
      "chip": "ym2612"
    },
    {
      "channel": 2,
      "note": 92,
      "start": 16.3278,
      "duration": 0.0041,
      "velocity": 98,
      "chip": "ym2612"
    },
    {
      "channel": 2,
      "note": 104,
      "start": 16.3322,
      "duration": 0.0049,
      "velocity": 98,
      "chip": "ym2612"
    },
    {
      "channel": 3,
      "note": 82,
      "start": 16.3324,
      "duration": 0.0098,
      "velocity": 110,
      "chip": "ym2612"
    },
    {
      "channel": 2,
      "note": 104,
      "start": 16.3373,
      "duration": 0.0044,
      "velocity": 98,
      "chip": "ym2612"
    },
    {
      "channel": 0,
      "note": 106,
      "start": 16.3416,
      "duration": 0.0206,
      "velocity": 110,
      "chip": "ym2612"
    },
    {
      "channel": 2,
      "note": 91,
      "start": 16.3421,
      "duration": 0.0054,
      "velocity": 98,
      "chip": "ym2612"
    },
    {
      "channel": 3,
      "note": 79,
      "start": 16.3424,
      "duration": 0.01,
      "velocity": 110,
      "chip": "ym2612"
    },
    {
      "channel": 4,
      "note": 51,
      "start": 16.3426,
      "duration": 0.021,
      "velocity": 110,
      "chip": "ym2612"
    },
    {
      "channel": 1,
      "note": 106,
      "start": 16.3475,
      "duration": 0.021,
      "velocity": 110,
      "chip": "ym2612"
    },
    {
      "channel": 2,
      "note": 91,
      "start": 16.3478,
      "duration": 0.0043,
      "velocity": 98,
      "chip": "ym2612"
    },
    {
      "channel": 2,
      "note": 103,
      "start": 16.3523,
      "duration": 0.0052,
      "velocity": 98,
      "chip": "ym2612"
    },
    {
      "channel": 3,
      "note": 75,
      "start": 16.3526,
      "duration": 0.0106,
      "velocity": 110,
      "chip": "ym2612"
    },
    {
      "channel": 2,
      "note": 103,
      "start": 16.3578,
      "duration": 0.005,
      "velocity": 98,
      "chip": "ym2612"
    },
    {
      "channel": 0,
      "note": 95,
      "start": 16.3624,
      "duration": 0.0625,
      "velocity": 110,
      "chip": "ym2612"
    },
    {
      "channel": 2,
      "note": 92,
      "start": 16.363,
      "duration": 0.0058,
      "velocity": 98,
      "chip": "ym2612"
    },
    {
      "channel": 3,
      "note": 80,
      "start": 16.3634,
      "duration": 0.0623,
      "velocity": 110,
      "chip": "ym2612"
    },
    {
      "channel": 4,
      "note": 56,
      "start": 16.3639,
      "duration": 0.1622,
      "velocity": 110,
      "chip": "ym2612"
    },
    {
      "channel": 1,
      "note": 95,
      "start": 16.3688,
      "duration": 0.1563,
      "velocity": 110,
      "chip": "ym2612"
    },
    {
      "channel": 2,
      "note": 92,
      "start": 16.369,
      "duration": 0.0563,
      "velocity": 98,
      "chip": "ym2612"
    },
    {
      "channel": 0,
      "note": 94,
      "start": 16.4251,
      "duration": 0.0998,
      "velocity": 110,
      "chip": "ym2612"
    },
    {
      "channel": 2,
      "note": 104,
      "start": 16.4256,
      "duration": 0.0999,
      "velocity": 98,
      "chip": "ym2612"
    },
    {
      "channel": 3,
      "note": 79,
      "start": 16.4258,
      "duration": 0.0999,
      "velocity": 110,
      "chip": "ym2612"
    },
    {
      "channel": 0,
      "note": 95,
      "start": 16.5251,
      "duration": 0.1167,
      "velocity": 110,
      "chip": "ym2612"
    },
    {
      "channel": 1,
      "note": 94,
      "start": 16.5254,
      "duration": 0.1167,
      "velocity": 110,
      "chip": "ym2612"
    },
    {
      "channel": 2,
      "note": 104,
      "start": 16.5257,
      "duration": 0.1167,
      "velocity": 98,
      "chip": "ym2612"
    },
    {
      "channel": 3,
      "note": 80,
      "start": 16.526,
      "duration": 0.1168,
      "velocity": 110,
      "chip": "ym2612"
    },
    {
      "channel": 4,
      "note": 51,
      "start": 16.5263,
      "duration": 0.1169,
      "velocity": 110,
      "chip": "ym2612"
    },
    {
      "channel": 0,
      "note": 99,
      "start": 16.642,
      "duration": 0.0118,
      "velocity": 110,
      "chip": "ym2612"
    },
    {
      "channel": 1,
      "note": 95,
      "start": 16.6423,
      "duration": 0.0057,
      "velocity": 110,
      "chip": "ym2612"
    },
    {
      "channel": 2,
      "note": 92,
      "start": 16.6427,
      "duration": 0.0056,
      "velocity": 98,
      "chip": "ym2612"
    },
    {
      "channel": 3,
      "note": 83,
      "start": 16.6429,
      "duration": 0.0114,
      "velocity": 110,
      "chip": "ym2612"
    },
    {
      "channel": 1,
      "note": 99,
      "start": 16.6482,
      "duration": 0.0108,
      "velocity": 110,
      "chip": "ym2612"
    },
    {
      "channel": 2,
      "note": 92,
      "start": 16.6485,
      "duration": 0.0056,
      "velocity": 98,
      "chip": "ym2612"
    },
    {
      "channel": 4,
      "note": 56,
      "start": 16.6488,
      "duration": 0.0058,
      "velocity": 110,
      "chip": "ym2612"
    },
    {
      "channel": 0,
      "note": 97,
      "start": 16.6539,
      "duration": 0.0049,
      "velocity": 110,
      "chip": "ym2612"
    },
    {
      "channel": 2,
      "note": 104,
      "start": 16.6543,
      "duration": 0.0049,
      "velocity": 98,
      "chip": "ym2612"
    },
    {
      "channel": 3,
      "note": 82,
      "start": 16.6545,
      "duration": 0.005,
      "velocity": 110,
      "chip": "ym2612"
    },
    {
      "channel": 0,
      "note": 95,
      "start": 16.659,
      "duration": 0.0056,
      "velocity": 110,
      "chip": "ym2612"
    },
    {
      "channel": 1,
      "note": 97,
      "start": 16.6592,
      "duration": 0.0057,
      "velocity": 110,
      "chip": "ym2612"
    },
    {
      "channel": 2,
      "note": 104,
      "start": 16.6594,
      "duration": 0.0057,
      "velocity": 98,
      "chip": "ym2612"
    },
    {
      "channel": 3,
      "note": 80,
      "start": 16.6597,
      "duration": 0.0058,
      "velocity": 110,
      "chip": "ym2612"
    },
    {
      "channel": 4,
      "note": 54,
      "start": 16.66,
      "duration": 0.0058,
      "velocity": 110,
      "chip": "ym2612"
    },
    {
      "channel": 0,
      "note": 97,
      "start": 16.6648,
      "duration": 0.0289,
      "velocity": 110,
      "chip": "ym2612"
    },
    {
      "channel": 1,
      "note": 95,
      "start": 16.6651,
      "duration": 0.0057,
      "velocity": 110,
      "chip": "ym2612"
    },
    {
      "channel": 2,
      "note": 92,
      "start": 16.6654,
      "duration": 0.0056,
      "velocity": 98,
      "chip": "ym2612"
    },
    {
      "channel": 3,
      "note": 82,
      "start": 16.6657,
      "duration": 0.062,
      "velocity": 110,
      "chip": "ym2612"
    },
    {
      "channel": 1,
      "note": 97,
      "start": 16.6709,
      "duration": 0.1395,
      "velocity": 110,
      "chip": "ym2612"
    },
    {
      "channel": 2,
      "note": 92,
      "start": 16.6713,
      "duration": 0.0561,
      "velocity": 98,
      "chip": "ym2612"
    },
    {
      "channel": 4,
      "note": 55,
      "start": 16.6716,
      "duration": 0.0565,
      "velocity": 110,
      "chip": "ym2612"
    },
    {
      "channel": 0,
      "note": 97,
      "start": 16.7272,
      "duration": 0.1166,
      "velocity": 110,
      "chip": "ym2612"
    },
    {
      "channel": 2,
      "note": 104,
      "start": 16.7277,
      "duration": 0.1166,
      "velocity": 98,
      "chip": "ym2612"
    },
    {
      "channel": 3,
      "note": 82,
      "start": 16.728,
      "duration": 0.1166,
      "velocity": 110,
      "chip": "ym2612"
    },
    {
      "channel": 4,
      "note": 56,
      "start": 16.7283,
      "duration": 0.1217,
      "velocity": 110,
      "chip": "ym2612"
    },
    {
      "channel": 0,
      "note": 94,
      "start": 16.844,
      "duration": 0.0051,
      "velocity": 110,
      "chip": "ym2612"
    },
    {
      "channel": 1,
      "note": 97,
      "start": 16.8443,
      "duration": 0.005,
      "velocity": 110,
      "chip": "ym2612"
    },
    {
      "channel": 2,
      "note": 104,
      "start": 16.8446,
      "duration": 0.005,
      "velocity": 98,
      "chip": "ym2612"
    },
    {
      "channel": 3,
      "note": 78,
      "start": 16.8448,
      "duration": 0.0051,
      "velocity": 110,
      "chip": "ym2612"
    },
    {
      "channel": 1,
      "note": 94,
      "start": 16.8495,
      "duration": 0.0045,
      "velocity": 110,
      "chip": "ym2612"
    },
    {
      "channel": 2,
      "note": 92,
      "start": 16.8499,
      "duration": 0.0043,
      "velocity": 98,
      "chip": "ym2612"
    },
    {
      "channel": 4,
      "note": 68,
      "start": 16.8501,
      "duration": 0.0047,
      "velocity": 110,
      "chip": "ym2612"
    },
    {
      "channel": 0,
      "note": 95,
      "start": 16.8539,
      "duration": 0.0042,
      "velocity": 110,
      "chip": "ym2612"
    },
    {
      "channel": 2,
      "note": 92,
      "start": 16.8545,
      "duration": 0.0042,
      "velocity": 98,
      "chip": "ym2612"
    },
    {
      "channel": 3,
      "note": 80,
      "start": 16.8548,
      "duration": 0.0042,
      "velocity": 110,
      "chip": "ym2612"
    },
    {
      "channel": 0,
      "note": 94,
      "start": 16.8584,
      "duration": 0.0051,
      "velocity": 110,
      "chip": "ym2612"
    },
    {
      "channel": 1,
      "note": 95,
      "start": 16.8586,
      "duration": 0.005,
      "velocity": 110,
      "chip": "ym2612"
    },
    {
      "channel": 2,
      "note": 104,
      "start": 16.859,
      "duration": 0.005,
      "velocity": 98,
      "chip": "ym2612"
    },
    {
      "channel": 3,
      "note": 78,
      "start": 16.8591,
      "duration": 0.0051,
      "velocity": 110,
      "chip": "ym2612"
    },
    {
      "channel": 4,
      "note": 56,
      "start": 16.8594,
      "duration": 0.0051,
      "velocity": 110,
      "chip": "ym2612"
    },
    {
      "channel": 0,
      "note": 92,
      "start": 16.8636,
      "duration": 0.0571,
      "velocity": 110,
      "chip": "ym2612"
    },
    {
      "channel": 1,
      "note": 94,
      "start": 16.8639,
      "duration": 0.0571,
      "velocity": 110,
      "chip": "ym2612"
    },
    {
      "channel": 2,
      "note": 104,
      "start": 16.8641,
      "duration": 0.0571,
      "velocity": 98,
      "chip": "ym2612"
    },
    {
      "channel": 3,
      "note": 76,
      "start": 16.8644,
      "duration": 0.0571,
      "velocity": 110,
      "chip": "ym2612"
    },
    {
      "channel": 4,
      "note": 63,
      "start": 16.8647,
      "duration": 0.0571,
      "velocity": 110,
      "chip": "ym2612"
    },
    {
      "channel": 0,
      "note": 95,
      "start": 16.9209,
      "duration": 0.0617,
      "velocity": 110,
      "chip": "ym2612"
    },
    {
      "channel": 1,
      "note": 92,
      "start": 16.9212,
      "duration": 0.0048,
      "velocity": 110,
      "chip": "ym2612"
    },
    {
      "channel": 2,
      "note": 92,
      "start": 16.9215,
      "duration": 0.0047,
      "velocity": 98,
      "chip": "ym2612"
    },
    {
      "channel": 3,
      "note": 80,
      "start": 16.9217,
      "duration": 0.0616,
      "velocity": 110,
      "chip": "ym2612"
    },
    {
      "channel": 1,
      "note": 95,
      "start": 16.9261,
      "duration": 0.1567,
      "velocity": 110,
      "chip": "ym2612"
    },
    {
      "channel": 2,
      "note": 92,
      "start": 16.9264,
      "duration": 0.0566,
      "velocity": 98,
      "chip": "ym2612"
    },
    {
      "channel": 4,
      "note": 66,
      "start": 16.9268,
      "duration": 0.0568,
      "velocity": 110,
      "chip": "ym2612"
    },
    {
      "channel": 0,
      "note": 94,
      "start": 16.9828,
      "duration": 0.0998,
      "velocity": 110,
      "chip": "ym2612"
    },
    {
      "channel": 2,
      "note": 104,
      "start": 16.9833,
      "duration": 0.0999,
      "velocity": 98,
      "chip": "ym2612"
    },
    {
      "channel": 3,
      "note": 79,
      "start": 16.9835,
      "duration": 0.0999,
      "velocity": 110,
      "chip": "ym2612"
    },
    {
      "channel": 4,
      "note": 67,
      "start": 16.9839,
      "duration": 0.0999,
      "velocity": 110,
      "chip": "ym2612"
    },
    {
      "channel": 0,
      "note": 95,
      "start": 17.0828,
      "duration": 0.1167,
      "velocity": 110,
      "chip": "ym2612"
    },
    {
      "channel": 1,
      "note": 94,
      "start": 17.0831,
      "duration": 0.1167,
      "velocity": 110,
      "chip": "ym2612"
    },
    {
      "channel": 2,
      "note": 104,
      "start": 17.0834,
      "duration": 0.1167,
      "velocity": 98,
      "chip": "ym2612"
    },
    {
      "channel": 3,
      "note": 80,
      "start": 17.0837,
      "duration": 0.1167,
      "velocity": 110,
      "chip": "ym2612"
    },
    {
      "channel": 0,
      "note": 99,
      "start": 17.1998,
      "duration": 0.0106,
      "velocity": 110,
      "chip": "ym2612"
    },
    {
      "channel": 1,
      "note": 95,
      "start": 17.2,
      "duration": 0.0054,
      "velocity": 110,
      "chip": "ym2612"
    },
    {
      "channel": 2,
      "note": 92,
      "start": 17.2004,
      "duration": 0.0052,
      "velocity": 98,
      "chip": "ym2612"
    },
    {
      "channel": 3,
      "note": 83,
      "start": 17.2006,
      "duration": 0.0104,
      "velocity": 110,
      "chip": "ym2612"
    },
    {
      "channel": 4,
      "note": 68,
      "start": 17.2009,
      "duration": 0.005,
      "velocity": 110,
      "chip": "ym2612"
    },
    {
      "channel": 1,
      "note": 99,
      "start": 17.2056,
      "duration": 0.011,
      "velocity": 110,
      "chip": "ym2612"
    },
    {
      "channel": 2,
      "note": 92,
      "start": 17.2058,
      "duration": 0.0049,
      "velocity": 98,
      "chip": "ym2612"
    },
    {
      "channel": 4,
      "note": 63,
      "start": 17.206,
      "duration": 0.0052,
      "velocity": 110,
      "chip": "ym2612"
    },
    {
      "channel": 0,
      "note": 97,
      "start": 17.2105,
      "duration": 0.0059,
      "velocity": 110,
      "chip": "ym2612"
    },
    {
      "channel": 2,
      "note": 104,
      "start": 17.2109,
      "duration": 0.0059,
      "velocity": 98,
      "chip": "ym2612"
    },
    {
      "channel": 3,
      "note": 82,
      "start": 17.2111,
      "duration": 0.006,
      "velocity": 110,
      "chip": "ym2612"
    },
    {
      "channel": 0,
      "note": 95,
      "start": 17.2165,
      "duration": 0.0057,
      "velocity": 110,
      "chip": "ym2612"
    },
    {
      "channel": 1,
      "note": 97,
      "start": 17.2168,
      "duration": 0.0057,
      "velocity": 110,
      "chip": "ym2612"
    },
    {
      "channel": 2,
      "note": 104,
      "start": 17.217,
      "duration": 0.0058,
      "velocity": 98,
      "chip": "ym2612"
    },
    {
      "channel": 3,
      "note": 81,
      "start": 17.2173,
      "duration": 0.0059,
      "velocity": 110,
      "chip": "ym2612"
    },
    {
      "channel": 4,
      "note": 68,
      "start": 17.2176,
      "duration": 0.006,
      "velocity": 110,
      "chip": "ym2612"
    },
    {
      "channel": 0,
      "note": 97,
      "start": 17.2224,
      "duration": 0.0626,
      "velocity": 110,
      "chip": "ym2612"
    },
    {
      "channel": 1,
      "note": 95,
      "start": 17.2227,
      "duration": 0.0063,
      "velocity": 110,
      "chip": "ym2612"
    },
    {
      "channel": 2,
      "note": 92,
      "start": 17.2231,
      "duration": 0.0061,
      "velocity": 98,
      "chip": "ym2612"
    },
    {
      "channel": 3,
      "note": 80,
      "start": 17.2234,
      "duration": 0.0623,
      "velocity": 110,
      "chip": "ym2612"
    },
    {
      "channel": 1,
      "note": 97,
      "start": 17.2291,
      "duration": 0.1728,
      "velocity": 110,
      "chip": "ym2612"
    },
    {
      "channel": 2,
      "note": 92,
      "start": 17.2295,
      "duration": 0.0559,
      "velocity": 98,
      "chip": "ym2612"
    },
    {
      "channel": 4,
      "note": 56,
      "start": 17.2298,
      "duration": 0.0562,
      "velocity": 110,
      "chip": "ym2612"
    },
    {
      "channel": 0,
      "note": 97,
      "start": 17.2852,
      "duration": 0.1213,
      "velocity": 110,
      "chip": "ym2612"
    },
    {
      "channel": 2,
      "note": 104,
      "start": 17.2857,
      "duration": 0.1164,
      "velocity": 98,
      "chip": "ym2612"
    },
    {
      "channel": 3,
      "note": 80,
      "start": 17.2859,
      "duration": 0.1215,
      "velocity": 110,
      "chip": "ym2612"
    },
    {
      "channel": 1,
      "note": 97,
      "start": 17.4021,
      "duration": 0.0096,
      "velocity": 110,
      "chip": "ym2612"
    },
    {
      "channel": 2,
      "note": 104,
      "start": 17.4024,
      "duration": 0.0047,
      "velocity": 98,
      "chip": "ym2612"
    },
    {
      "channel": 4,
      "note": 66,
      "start": 17.4026,
      "duration": 0.0051,
      "velocity": 110,
      "chip": "ym2612"
    },
    {
      "channel": 0,
      "note": 94,
      "start": 17.4068,
      "duration": 0.0105,
      "velocity": 110,
      "chip": "ym2612"
    },
    {
      "channel": 2,
      "note": 92,
      "start": 17.4073,
      "duration": 0.0046,
      "velocity": 98,
      "chip": "ym2612"
    },
    {
      "channel": 3,
      "note": 78,
      "start": 17.4077,
      "duration": 0.0102,
      "velocity": 110,
      "chip": "ym2612"
    },
    {
      "channel": 1,
      "note": 94,
      "start": 17.4118,
      "duration": 0.0105,
      "velocity": 110,
      "chip": "ym2612"
    },
    {
      "channel": 2,
      "note": 92,
      "start": 17.4122,
      "duration": 0.0054,
      "velocity": 98,
      "chip": "ym2612"
    },
    {
      "channel": 4,
      "note": 68,
      "start": 17.4126,
      "duration": 0.0056,
      "velocity": 110,
      "chip": "ym2612"
    },
    {
      "channel": 0,
      "note": 97,
      "start": 17.4175,
      "duration": 0.062,
      "velocity": 110,
      "chip": "ym2612"
    },
    {
      "channel": 2,
      "note": 104,
      "start": 17.4178,
      "duration": 0.0048,
      "velocity": 98,
      "chip": "ym2612"
    },
    {
      "channel": 3,
      "note": 77,
      "start": 17.4181,
      "duration": 0.0621,
      "velocity": 110,
      "chip": "ym2612"
    },
    {
      "channel": 4,
      "note": 66,
      "start": 17.4183,
      "duration": 0.0621,
      "velocity": 110,
      "chip": "ym2612"
    },
    {
      "channel": 1,
      "note": 97,
      "start": 17.4226,
      "duration": 0.062,
      "velocity": 110,
      "chip": "ym2612"
    },
    {
      "channel": 2,
      "note": 104,
      "start": 17.4229,
      "duration": 0.057,
      "velocity": 98,
      "chip": "ym2612"
    },
    {
      "channel": 0,
      "note": 92,
      "start": 17.4797,
      "duration": 41.0194,
      "velocity": 110,
      "chip": "ym2612"
    },
    {
      "channel": 2,
      "note": 92,
      "start": 17.4801,
      "duration": 0.0048,
      "velocity": 98,
      "chip": "ym2612"
    },
    {
      "channel": 3,
      "note": 76,
      "start": 17.4803,
      "duration": 41.0188,
      "velocity": 110,
      "chip": "ym2612"
    },
    {
      "channel": 4,
      "note": 51,
      "start": 17.4806,
      "duration": 0.0046,
      "velocity": 110,
      "chip": "ym2612"
    },
    {
      "channel": 1,
      "note": 92,
      "start": 17.4848,
      "duration": 41.0143,
      "velocity": 110,
      "chip": "ym2612"
    },
    {
      "channel": 2,
      "note": 92,
      "start": 17.4852,
      "duration": 0.0563,
      "velocity": 98,
      "chip": "ym2612"
    },
    {
      "channel": 2,
      "note": 104,
      "start": 17.5417,
      "duration": 40.9574,
      "velocity": 98,
      "chip": "ym2612"
    }
  ]
}