{
  "track_name": "19 - All Clear",
  "duration_sec": 73.361,
  "sample_rate": 44100,
  "note_count": 629,
  "unique_pitches": 44,
  "pitch_range": 52,
  "avg_note_duration": 0.3591,
  "reconstruction_stats": {
    "notes_reconstructed": 629,
    "keyon_events": 629,
    "keyoff_events": 628,
    "orphan_keyons": 0,
    "unique_pitches": 44,
    "pitch_range": 52,
    "avg_duration_sec": 0.3591
  },
  "metadata": {
    "source": "S\\Sonic the Hedgehog 2\\19 - All Clear.vgz"
  },
  "notes": [
    {
      "channel": 0,
      "note": 45,
      "start": 0.0045,
      "duration": 1.2275,
      "velocity": 86,
      "chip": "ym2612"
    },
    {
      "channel": 1,
      "note": 73,
      "start": 0.1937,
      "duration": 0.1666,
      "velocity": 105,
      "chip": "ym2612"
    },
    {
      "channel": 1,
      "note": 74,
      "start": 0.3607,
      "duration": 0.1664,
      "velocity": 105,
      "chip": "ym2612"
    },
    {
      "channel": 1,
      "note": 73,
      "start": 0.5277,
      "duration": 1.1329,
      "velocity": 105,
      "chip": "ym2612"
    },
    {
      "channel": 3,
      "note": 76,
      "start": 0.8616,
      "duration": 0.1668,
      "velocity": 95,
      "chip": "ym2612"
    },
    {
      "channel": 4,
      "note": 76,
      "start": 0.9286,
      "duration": 0.1104,
      "velocity": 95,
      "chip": "ym2612"
    },
    {
      "channel": 3,
      "note": 78,
      "start": 1.0288,
      "duration": 0.0283,
      "velocity": 95,
      "chip": "ym2612"
    },
    {
      "channel": 4,
      "note": 78,
      "start": 1.0394,
      "duration": 0.0257,
      "velocity": 95,
      "chip": "ym2612"
    },
    {
      "channel": 3,
      "note": 76,
      "start": 1.0574,
      "duration": 0.6041,
      "velocity": 95,
      "chip": "ym2612"
    },
    {
      "channel": 4,
      "note": 76,
      "start": 1.0655,
      "duration": 0.5966,
      "velocity": 95,
      "chip": "ym2612"
    },
    {
      "channel": 0,
      "note": 52,
      "start": 1.2325,
      "duration": 0.1751,
      "velocity": 86,
      "chip": "ym2612"
    },
    {
      "channel": 0,
      "note": 49,
      "start": 1.408,
      "duration": 0.2004,
      "velocity": 86,
      "chip": "ym2612"
    },
    {
      "channel": 2,
      "note": 52,
      "start": 1.4089,
      "duration": 0.252,
      "velocity": 90,
      "chip": "ym2612"
    },
    {
      "channel": 0,
      "note": 47,
      "start": 1.6088,
      "duration": 0.051,
      "velocity": 86,
      "chip": "ym2612"
    },
    {
      "channel": 0,
      "note": 45,
      "start": 1.6603,
      "duration": 1.9562,
      "velocity": 86,
      "chip": "ym2612"
    },
    {
      "channel": 2,
      "note": 57,
      "start": 1.6613,
      "duration": 1.0261,
      "velocity": 90,
      "chip": "ym2612"
    },
    {
      "channel": 3,
      "note": 76,
      "start": 1.6619,
      "duration": 1.9565,
      "velocity": 95,
      "chip": "ym2612"
    },
    {
      "channel": 4,
      "note": 73,
      "start": 1.6625,
      "duration": 1.9565,
      "velocity": 95,
      "chip": "ym2612"
    },
    {
      "channel": 1,
      "note": 81,
      "start": 1.836,
      "duration": 0.1161,
      "velocity": 105,
      "chip": "ym2612"
    },
    {
      "channel": 1,
      "note": 81,
      "start": 2.0027,
      "duration": 0.1165,
      "velocity": 105,
      "chip": "ym2612"
    },
    {
      "channel": 1,
      "note": 81,
      "start": 2.1865,
      "duration": 0.3333,
      "velocity": 105,
      "chip": "ym2612"
    },
    {
      "channel": 1,
      "note": 83,
      "start": 2.5202,
      "duration": 0.1665,
      "velocity": 105,
      "chip": "ym2612"
    },
    {
      "channel": 1,
      "note": 86,
      "start": 2.6872,
      "duration": 0.2192,
      "velocity": 105,
      "chip": "ym2612"
    },
    {
      "channel": 2,
      "note": 52,
      "start": 2.6878,
      "duration": 0.0268,
      "velocity": 90,
      "chip": "ym2612"
    },
    {
      "channel": 2,
      "note": 57,
      "start": 2.715,
      "duration": 0.1921,
      "velocity": 90,
      "chip": "ym2612"
    },
    {
      "channel": 1,
      "note": 85,
      "start": 2.9069,
      "duration": 0.1753,
      "velocity": 105,
      "chip": "ym2612"
    },
    {
      "channel": 2,
      "note": 57,
      "start": 2.9074,
      "duration": 0.3594,
      "velocity": 90,
      "chip": "ym2612"
    },
    {
      "channel": 1,
      "note": 83,
      "start": 3.0826,
      "duration": 0.1837,
      "velocity": 105,
      "chip": "ym2612"
    },
    {
      "channel": 1,
      "note": 81,
      "start": 3.2667,
      "duration": 0.3505,
      "velocity": 105,
      "chip": "ym2612"
    },
    {
      "channel": 2,
      "note": 57,
      "start": 3.2672,
      "duration": 0.1825,
      "velocity": 90,
      "chip": "ym2612"
    },
    {
      "channel": 2,
      "note": 52,
      "start": 3.4501,
      "duration": 0.1677,
      "velocity": 90,
      "chip": "ym2612"
    },
    {
      "channel": 0,
      "note": 41,
      "start": 3.617,
      "duration": 1.0539,
      "velocity": 86,
      "chip": "ym2612"
    },
    {
      "channel": 1,
      "note": 84,
      "start": 3.6176,
      "duration": 0.1746,
      "velocity": 105,
      "chip": "ym2612"
    },
    {
      "channel": 2,
      "note": 53,
      "start": 3.6182,
      "duration": 1.0254,
      "velocity": 90,
      "chip": "ym2612"
    },
    {
      "channel": 3,
      "note": 72,
      "start": 3.6188,
      "duration": 1.0537,
      "velocity": 95,
      "chip": "ym2612"
    },
    {
      "channel": 4,
      "note": 69,
      "start": 3.6194,
      "duration": 1.0536,
      "velocity": 95,
      "chip": "ym2612"
    },
    {
      "channel": 1,
      "note": 86,
      "start": 3.7928,
      "duration": 0.1662,
      "velocity": 105,
      "chip": "ym2612"
    },
    {
      "channel": 1,
      "note": 81,
      "start": 3.9595,
      "duration": 1.4302,
      "velocity": 105,
      "chip": "ym2612"
    },
    {
      "channel": 2,
      "note": 48,
      "start": 4.6441,
      "duration": 0.0278,
      "velocity": 90,
      "chip": "ym2612"
    },
    {
      "channel": 0,
      "note": 43,
      "start": 4.6714,
      "duration": 0.3672,
      "velocity": 86,
      "chip": "ym2612"
    },
    {
      "channel": 2,
      "note": 55,
      "start": 4.6723,
      "duration": 0.1746,
      "velocity": 90,
      "chip": "ym2612"
    },
    {
      "channel": 3,
      "note": 74,
      "start": 4.6729,
      "duration": 0.3666,
      "velocity": 95,
      "chip": "ym2612"
    },
    {
      "channel": 4,
      "note": 71,
      "start": 4.6735,
      "duration": 0.3665,
      "velocity": 95,
      "chip": "ym2612"
    },
    {
      "channel": 2,
      "note": 55,
      "start": 4.8472,
      "duration": 0.3761,
      "velocity": 90,
      "chip": "ym2612"
    },
    {
      "channel": 0,
      "note": 47,
      "start": 5.039,
      "duration": 0.5176,
      "velocity": 86,
      "chip": "ym2612"
    },
    {
      "channel": 3,
      "note": 78,
      "start": 5.0398,
      "duration": 0.5186,
      "velocity": 95,
      "chip": "ym2612"
    },
    {
      "channel": 4,
      "note": 74,
      "start": 5.0403,
      "duration": 0.5188,
      "velocity": 95,
      "chip": "ym2612"
    },
    {
      "channel": 2,
      "note": 55,
      "start": 5.2237,
      "duration": 0.1664,
      "velocity": 90,
      "chip": "ym2612"
    },
    {
      "channel": 2,
      "note": 56,
      "start": 5.3904,
      "duration": 0.1674,
      "velocity": 90,
      "chip": "ym2612"
    },
    {
      "channel": 0,
      "note": 49,
      "start": 5.5571,
      "duration": 1.9562,
      "velocity": 86,
      "chip": "ym2612"
    },
    {
      "channel": 2,
      "note": 57,
      "start": 5.5582,
      "duration": 1.0424,
      "velocity": 90,
      "chip": "ym2612"
    },
    {
      "channel": 3,
      "note": 76,
      "start": 5.5588,
      "duration": 1.9563,
      "velocity": 95,
      "chip": "ym2612"
    },
    {
      "channel": 4,
      "note": 73,
      "start": 5.5595,
      "duration": 1.9562,
      "velocity": 95,
      "chip": "ym2612"
    },
    {
      "channel": 1,
      "note": 81,
      "start": 5.7492,
      "duration": 0.1166,
      "velocity": 105,
      "chip": "ym2612"
    },
    {
      "channel": 1,
      "note": 81,
      "start": 5.9163,
      "duration": 0.1163,
      "velocity": 105,
      "chip": "ym2612"
    },
    {
      "channel": 1,
      "note": 81,
      "start": 6.0833,
      "duration": 0.3332,
      "velocity": 105,
      "chip": "ym2612"
    },
    {
      "channel": 1,
      "note": 83,
      "start": 6.417,
      "duration": 0.183,
      "velocity": 105,
      "chip": "ym2612"
    },
    {
      "channel": 1,
      "note": 86,
      "start": 6.6005,
      "duration": 0.2027,
      "velocity": 105,
      "chip": "ym2612"
    },
    {
      "channel": 2,
      "note": 52,
      "start": 6.601,
      "duration": 0.0271,
      "velocity": 90,
      "chip": "ym2612"
    },
    {
      "channel": 2,
      "note": 57,
      "start": 6.6286,
      "duration": 0.1752,
      "velocity": 90,
      "chip": "ym2612"
    },
    {
      "channel": 1,
      "note": 85,
      "start": 6.8037,
      "duration": 0.1917,
      "velocity": 105,
      "chip": "ym2612"
    },
    {
      "channel": 2,
      "note": 57,
      "start": 6.8042,
      "duration": 0.3761,
      "velocity": 90,
      "chip": "ym2612"
    },
    {
      "channel": 1,
      "note": 83,
      "start": 6.9958,
      "duration": 0.1838,
      "velocity": 105,
      "chip": "ym2612"
    },
    {
      "channel": 1,
      "note": 81,
      "start": 7.1801,
      "duration": 0.3338,
      "velocity": 105,
      "chip": "ym2612"
    },
    {
      "channel": 2,
      "note": 57,
      "start": 7.1806,
      "duration": 0.166,
      "velocity": 90,
      "chip": "ym2612"
    },
    {
      "channel": 2,
      "note": 52,
      "start": 7.347,
      "duration": 0.1675,
      "velocity": 90,
      "chip": "ym2612"
    },
    {
      "channel": 0,
      "note": 48,
      "start": 7.5137,
      "duration": 1.0549,
      "velocity": 86,
      "chip": "ym2612"
    },
    {
      "channel": 1,
      "note": 84,
      "start": 7.5144,
      "duration": 0.1911,
      "velocity": 105,
      "chip": "ym2612"
    },
    {
      "channel": 2,
      "note": 53,
      "start": 7.5149,
      "duration": 1.0256,
      "velocity": 90,
      "chip": "ym2612"
    },
    {
      "channel": 3,
      "note": 72,
      "start": 7.5155,
      "duration": 1.0547,
      "velocity": 95,
      "chip": "ym2612"
    },
    {
      "channel": 4,
      "note": 69,
      "start": 7.5161,
      "duration": 1.0547,
      "velocity": 95,
      "chip": "ym2612"
    },
    {
      "channel": 1,
      "note": 86,
      "start": 7.7059,
      "duration": 0.1666,
      "velocity": 105,
      "chip": "ym2612"
    },
    {
      "channel": 1,
      "note": 81,
      "start": 7.873,
      "duration": 1.4146,
      "velocity": 105,
      "chip": "ym2612"
    },
    {
      "channel": 2,
      "note": 48,
      "start": 8.5409,
      "duration": 0.0287,
      "velocity": 90,
      "chip": "ym2612"
    },
    {
      "channel": 0,
      "note": 50,
      "start": 8.5691,
      "duration": 0.3506,
      "velocity": 86,
      "chip": "ym2612"
    },
    {
      "channel": 2,
      "note": 55,
      "start": 8.57,
      "duration": 0.1746,
      "velocity": 90,
      "chip": "ym2612"
    },
    {
      "channel": 3,
      "note": 74,
      "start": 8.5706,
      "duration": 0.3501,
      "velocity": 95,
      "chip": "ym2612"
    },
    {
      "channel": 4,
      "note": 71,
      "start": 8.5712,
      "duration": 0.35,
      "velocity": 95,
      "chip": "ym2612"
    },
    {
      "channel": 2,
      "note": 55,
      "start": 8.745,
      "duration": 0.3759,
      "velocity": 90,
      "chip": "ym2612"
    },
    {
      "channel": 0,
      "note": 47,
      "start": 8.9201,
      "duration": 0.5343,
      "velocity": 86,
      "chip": "ym2612"
    },
    {
      "channel": 3,
      "note": 78,
      "start": 8.9211,
      "duration": 0.5351,
      "velocity": 95,
      "chip": "ym2612"
    },
    {
      "channel": 4,
      "note": 74,
      "start": 8.9217,
      "duration": 0.5353,
      "velocity": 95,
      "chip": "ym2612"
    },
    {
      "channel": 2,
      "note": 55,
      "start": 9.1213,
      "duration": 0.1668,
      "velocity": 90,
      "chip": "ym2612"
    },
    {
      "channel": 2,
      "note": 56,
      "start": 9.2884,
      "duration": 0.1672,
      "velocity": 90,
      "chip": "ym2612"
    },
    {
      "channel": 0,
      "note": 49,
      "start": 9.4549,
      "duration": 0.8591,
      "velocity": 86,
      "chip": "ym2612"
    },
    {
      "channel": 2,
      "note": 54,
      "start": 9.456,
      "duration": 1.0254,
      "velocity": 90,
      "chip": "ym2612"
    },
    {
      "channel": 3,
      "note": 73,
      "start": 9.4567,
      "duration": 0.8581,
      "velocity": 95,
      "chip": "ym2612"
    },
    {
      "channel": 4,
      "note": 69,
      "start": 9.4573,
      "duration": 0.858,
      "velocity": 95,
      "chip": "ym2612"
    },
    {
      "channel": 0,
      "note": 42,
      "start": 10.3144,
      "duration": 1.0932,
      "velocity": 86,
      "chip": "ym2612"
    },
    {
      "channel": 3,
      "note": 76,
      "start": 10.3151,
      "duration": 0.5594,
      "velocity": 95,
      "chip": "ym2612"
    },
    {
      "channel": 4,
      "note": 73,
      "start": 10.3157,
      "duration": 0.5594,
      "velocity": 95,
      "chip": "ym2612"
    },
    {
      "channel": 2,
      "note": 49,
      "start": 10.4818,
      "duration": 0.0244,
      "velocity": 90,
      "chip": "ym2612"
    },
    {
      "channel": 1,
      "note": 85,
      "start": 10.506,
      "duration": 0.1917,
      "velocity": 105,
      "chip": "ym2612"
    },
    {
      "channel": 2,
      "note": 54,
      "start": 10.5066,
      "duration": 0.1917,
      "velocity": 90,
      "chip": "ym2612"
    },
    {
      "channel": 1,
      "note": 81,
      "start": 10.6982,
      "duration": 0.1751,
      "velocity": 105,
      "chip": "ym2612"
    },
    {
      "channel": 2,
      "note": 54,
      "start": 10.6987,
      "duration": 0.1752,
      "velocity": 90,
      "chip": "ym2612"
    },
    {
      "channel": 1,
      "note": 85,
      "start": 10.8738,
      "duration": 0.0265,
      "velocity": 105,
      "chip": "ym2612"
    },
    {
      "channel": 2,
      "note": 54,
      "start": 10.8743,
      "duration": 0.0266,
      "velocity": 90,
      "chip": "ym2612"
    },
    {
      "channel": 3,
      "note": 73,
      "start": 10.8749,
      "duration": 0.5343,
      "velocity": 95,
      "chip": "ym2612"
    },
    {
      "channel": 4,
      "note": 69,
      "start": 10.8755,
      "duration": 0.5343,
      "velocity": 95,
      "chip": "ym2612"
    },
    {
      "channel": 1,
      "note": 81,
      "start": 10.9007,
      "duration": 0.3402,
      "velocity": 105,
      "chip": "ym2612"
    },
    {
      "channel": 2,
      "note": 56,
      "start": 10.9013,
      "duration": 0.1562,
      "velocity": 90,
      "chip": "ym2612"
    },
    {
      "channel": 2,
      "note": 57,
      "start": 11.0578,
      "duration": 0.1837,
      "velocity": 90,
      "chip": "ym2612"
    },
    {
      "channel": 1,
      "note": 83,
      "start": 11.2414,
      "duration": 1.2209,
      "velocity": 105,
      "chip": "ym2612"
    },
    {
      "channel": 2,
      "note": 58,
      "start": 11.2419,
      "duration": 0.1667,
      "velocity": 90,
      "chip": "ym2612"
    },
    {
      "channel": 0,
      "note": 47,
      "start": 11.4081,
      "duration": 0.8591,
      "velocity": 86,
      "chip": "ym2612"
    },
    {
      "channel": 2,
      "note": 59,
      "start": 11.409,
      "duration": 1.0259,
      "velocity": 90,
      "chip": "ym2612"
    },
    {
      "channel": 3,
      "note": 73,
      "start": 11.4096,
      "duration": 0.8585,
      "velocity": 95,
      "chip": "ym2612"
    },
    {
      "channel": 4,
      "note": 69,
      "start": 11.4102,
      "duration": 0.8584,
      "velocity": 95,
      "chip": "ym2612"
    },
    {
      "channel": 0,
      "note": 52,
      "start": 12.2677,
      "duration": 1.08,
      "velocity": 86,
      "chip": "ym2612"
    },
    {
      "channel": 3,
      "note": 76,
      "start": 12.2685,
      "duration": 0.5623,
      "velocity": 95,
      "chip": "ym2612"
    },
    {
      "channel": 4,
      "note": 73,
      "start": 12.269,
      "duration": 0.5623,
      "velocity": 95,
      "chip": "ym2612"
    },
    {
      "channel": 2,
      "note": 54,
      "start": 12.4353,
      "duration": 0.0276,
      "velocity": 90,
      "chip": "ym2612"
    },
    {
      "channel": 1,
      "note": 85,
      "start": 12.4627,
      "duration": 0.175,
      "velocity": 105,
      "chip": "ym2612"
    },
    {
      "channel": 2,
      "note": 59,
      "start": 12.4633,
      "duration": 0.1751,
      "velocity": 90,
      "chip": "ym2612"
    },
    {
      "channel": 1,
      "note": 81,
      "start": 12.6382,
      "duration": 0.1918,
      "velocity": 105,
      "chip": "ym2612"
    },
    {
      "channel": 2,
      "note": 59,
      "start": 12.6388,
      "duration": 0.3755,
      "velocity": 90,
      "chip": "ym2612"
    },
    {
      "channel": 1,
      "note": 85,
      "start": 12.8305,
      "duration": 0.026,
      "velocity": 105,
      "chip": "ym2612"
    },
    {
      "channel": 3,
      "note": 73,
      "start": 12.8312,
      "duration": 0.5181,
      "velocity": 95,
      "chip": "ym2612"
    },
    {
      "channel": 4,
      "note": 69,
      "start": 12.8318,
      "duration": 0.5181,
      "velocity": 95,
      "chip": "ym2612"
    },
    {
      "channel": 1,
      "note": 81,
      "start": 12.857,
      "duration": 0.3239,
      "velocity": 105,
      "chip": "ym2612"
    },
    {
      "channel": 2,
      "note": 59,
      "start": 13.0146,
      "duration": 0.3341,
      "velocity": 90,
      "chip": "ym2612"
    },
    {
      "channel": 1,
      "note": 83,
      "start": 13.1814,
      "duration": 2.1239,
      "velocity": 105,
      "chip": "ym2612"
    },
    {
      "channel": 0,
      "note": 54,
      "start": 13.3482,
      "duration": 0.8758,
      "velocity": 86,
      "chip": "ym2612"
    },
    {
      "channel": 2,
      "note": 52,
      "start": 13.3491,
      "duration": 1.0425,
      "velocity": 90,
      "chip": "ym2612"
    },
    {
      "channel": 3,
      "note": 74,
      "start": 13.3497,
      "duration": 0.8753,
      "velocity": 95,
      "chip": "ym2612"
    },
    {
      "channel": 4,
      "note": 71,
      "start": 13.3503,
      "duration": 0.8753,
      "velocity": 95,
      "chip": "ym2612"
    },
    {
      "channel": 0,
      "note": 52,
      "start": 14.2244,
      "duration": 1.08,
      "velocity": 86,
      "chip": "ym2612"
    },
    {
      "channel": 3,
      "note": 78,
      "start": 14.2254,
      "duration": 0.5617,
      "velocity": 95,
      "chip": "ym2612"
    },
    {
      "channel": 4,
      "note": 74,
      "start": 14.226,
      "duration": 0.5617,
      "velocity": 95,
      "chip": "ym2612"
    },
    {
      "channel": 2,
      "note": 47,
      "start": 14.3921,
      "duration": 0.0271,
      "velocity": 90,
      "chip": "ym2612"
    },
    {
      "channel": 2,
      "note": 52,
      "start": 14.4195,
      "duration": 0.1752,
      "velocity": 90,
      "chip": "ym2612"
    },
    {
      "channel": 2,
      "note": 52,
      "start": 14.5951,
      "duration": 0.3758,
      "velocity": 90,
      "chip": "ym2612"
    },
    {
      "channel": 3,
      "note": 74,
      "start": 14.7875,
      "duration": 0.5188,
      "velocity": 95,
      "chip": "ym2612"
    },
    {
      "channel": 4,
      "note": 71,
      "start": 14.7881,
      "duration": 0.5188,
      "velocity": 95,
      "chip": "ym2612"
    },
    {
      "channel": 2,
      "note": 59,
      "start": 14.9713,
      "duration": 0.3344,
      "velocity": 90,
      "chip": "ym2612"
    },
    {
      "channel": 2,
      "note": 52,
      "start": 15.3061,
      "duration": 1.025,
      "velocity": 90,
      "chip": "ym2612"
    },
    {
      "channel": 3,
      "note": 81,
      "start": 15.3067,
      "duration": 0.8577,
      "velocity": 95,
      "chip": "ym2612"
    },
    {
      "channel": 4,
      "note": 78,
      "start": 15.3073,
      "duration": 0.8576,
      "velocity": 95,
      "chip": "ym2612"
    },
    {
      "channel": 0,
      "note": 56,
      "start": 15.8306,
      "duration": 0.5258,
      "velocity": 86,
      "chip": "ym2612"
    },
    {
      "channel": 3,
      "note": 78,
      "start": 16.1648,
      "duration": 0.5435,
      "velocity": 95,
      "chip": "ym2612"
    },
    {
      "channel": 4,
      "note": 74,
      "start": 16.1653,
      "duration": 0.5435,
      "velocity": 95,
      "chip": "ym2612"
    },
    {
      "channel": 2,
      "note": 47,
      "start": 16.3315,
      "duration": 0.0256,
      "velocity": 90,
      "chip": "ym2612"
    },
    {
      "channel": 0,
      "note": 52,
      "start": 16.3569,
      "duration": 0.175,
      "velocity": 86,
      "chip": "ym2612"
    },
    {
      "channel": 2,
      "note": 52,
      "start": 16.3575,
      "duration": 0.0225,
      "velocity": 90,
      "chip": "ym2612"
    },
    {
      "channel": 2,
      "note": 47,
      "start": 16.3804,
      "duration": 0.1522,
      "velocity": 90,
      "chip": "ym2612"
    },
    {
      "channel": 0,
      "note": 47,
      "start": 16.5324,
      "duration": 0.1751,
      "velocity": 86,
      "chip": "ym2612"
    },
    {
      "channel": 2,
      "note": 52,
      "start": 16.533,
      "duration": 0.376,
      "velocity": 90,
      "chip": "ym2612"
    },
    {
      "channel": 0,
      "note": 52,
      "start": 16.7079,
      "duration": 0.2004,
      "velocity": 86,
      "chip": "ym2612"
    },
    {
      "channel": 3,
      "note": 74,
      "start": 16.7087,
      "duration": 0.2473,
      "velocity": 95,
      "chip": "ym2612"
    },
    {
      "channel": 4,
      "note": 71,
      "start": 16.7093,
      "duration": 0.2473,
      "velocity": 95,
      "chip": "ym2612"
    },
    {
      "channel": 0,
      "note": 53,
      "start": 16.9088,
      "duration": 0.0455,
      "velocity": 86,
      "chip": "ym2612"
    },
    {
      "channel": 2,
      "note": 52,
      "start": 16.9094,
      "duration": 0.0222,
      "velocity": 90,
      "chip": "ym2612"
    },
    {
      "channel": 2,
      "note": 53,
      "start": 16.932,
      "duration": 0.0233,
      "velocity": 90,
      "chip": "ym2612"
    },
    {
      "channel": 0,
      "note": 54,
      "start": 16.9547,
      "duration": 0.9013,
      "velocity": 86,
      "chip": "ym2612"
    },
    {
      "channel": 2,
      "note": 54,
      "start": 16.9557,
      "duration": 0.8758,
      "velocity": 90,
      "chip": "ym2612"
    },
    {
      "channel": 3,
      "note": 73,
      "start": 16.9563,
      "duration": 0.0233,
      "velocity": 95,
      "chip": "ym2612"
    },
    {
      "channel": 4,
      "note": 69,
      "start": 16.9569,
      "duration": 0.0232,
      "velocity": 95,
      "chip": "ym2612"
    },
    {
      "channel": 3,
      "note": 73,
      "start": 16.98,
      "duration": 0.15,
      "velocity": 95,
      "chip": "ym2612"
    },
    {
      "channel": 4,
      "note": 69,
      "start": 16.9805,
      "duration": 0.1501,
      "velocity": 95,
      "chip": "ym2612"
    },
    {
      "channel": 3,
      "note": 71,
      "start": 17.1305,
      "duration": 0.3502,
      "velocity": 95,
      "chip": "ym2612"
    },
    {
      "channel": 4,
      "note": 68,
      "start": 17.131,
      "duration": 0.3501,
      "velocity": 95,
      "chip": "ym2612"
    },
    {
      "channel": 3,
      "note": 73,
      "start": 17.481,
      "duration": 0.1836,
      "velocity": 95,
      "chip": "ym2612"
    },
    {
      "channel": 4,
      "note": 69,
      "start": 17.4815,
      "duration": 0.1837,
      "velocity": 95,
      "chip": "ym2612"
    },
    {
      "channel": 3,
      "note": 71,
      "start": 17.665,
      "duration": 0.1671,
      "velocity": 95,
      "chip": "ym2612"
    },
    {
      "channel": 4,
      "note": 68,
      "start": 17.6656,
      "duration": 0.1671,
      "velocity": 95,
      "chip": "ym2612"
    },
    {
      "channel": 2,
      "note": 49,
      "start": 17.832,
      "duration": 0.0254,
      "velocity": 90,
      "chip": "ym2612"
    },
    {
      "channel": 3,
      "note": 73,
      "start": 17.8325,
      "duration": 0.9272,
      "velocity": 95,
      "chip": "ym2612"
    },
    {
      "channel": 4,
      "note": 69,
      "start": 17.8331,
      "duration": 0.9272,
      "velocity": 95,
      "chip": "ym2612"
    },
    {
      "channel": 0,
      "note": 73,
      "start": 17.8565,
      "duration": 0.551,
      "velocity": 86,
      "chip": "ym2612"
    },
    {
      "channel": 1,
      "note": 76,
      "start": 17.8571,
      "duration": 0.0178,
      "velocity": 105,
      "chip": "ym2612"
    },
    {
      "channel": 2,
      "note": 54,
      "start": 17.8577,
      "duration": 0.1908,
      "velocity": 90,
      "chip": "ym2612"
    },
    {
      "channel": 1,
      "note": 69,
      "start": 17.8853,
      "duration": 0.0959,
      "velocity": 105,
      "chip": "ym2612"
    },
    {
      "channel": 1,
      "note": 73,
      "start": 18.0484,
      "duration": 0.0154,
      "velocity": 105,
      "chip": "ym2612"
    },
    {
      "channel": 2,
      "note": 54,
      "start": 18.0489,
      "duration": 0.3598,
      "velocity": 90,
      "chip": "ym2612"
    },
    {
      "channel": 1,
      "note": 69,
      "start": 18.0738,
      "duration": 0.0997,
      "velocity": 105,
      "chip": "ym2612"
    },
    {
      "channel": 1,
      "note": 76,
      "start": 18.2242,
      "duration": 0.0172,
      "velocity": 105,
      "chip": "ym2612"
    },
    {
      "channel": 1,
      "note": 69,
      "start": 18.249,
      "duration": 0.1087,
      "velocity": 105,
      "chip": "ym2612"
    },
    {
      "channel": 0,
      "note": 69,
      "start": 18.4079,
      "duration": 0.3502,
      "velocity": 86,
      "chip": "ym2612"
    },
    {
      "channel": 1,
      "note": 73,
      "start": 18.4086,
      "duration": 0.116,
      "velocity": 105,
      "chip": "ym2612"
    },
    {
      "channel": 2,
      "note": 54,
      "start": 18.4091,
      "duration": 0.1829,
      "velocity": 90,
      "chip": "ym2612"
    },
    {
      "channel": 1,
      "note": 69,
      "start": 18.5918,
      "duration": 0.0996,
      "velocity": 105,
      "chip": "ym2612"
    },
    {
      "channel": 2,
      "note": 49,
      "start": 18.5924,
      "duration": 0.1668,
      "velocity": 90,
      "chip": "ym2612"
    },
    {
      "channel": 0,
      "note": 74,
      "start": 18.7586,
      "duration": 0.7095,
      "velocity": 86,
      "chip": "ym2612"
    },
    {
      "channel": 2,
      "note": 55,
      "start": 18.7596,
      "duration": 0.8759,
      "velocity": 90,
      "chip": "ym2612"
    },
    {
      "channel": 3,
      "note": 74,
      "start": 18.7602,
      "duration": 0.0238,
      "velocity": 95,
      "chip": "ym2612"
    },
    {
      "channel": 4,
      "note": 71,
      "start": 18.7607,
      "duration": 0.0238,
      "velocity": 95,
      "chip": "ym2612"
    },
    {
      "channel": 3,
      "note": 74,
      "start": 18.7843,
      "duration": 0.1496,
      "velocity": 95,
      "chip": "ym2612"
    },
    {
      "channel": 4,
      "note": 71,
      "start": 18.7849,
      "duration": 0.1496,
      "velocity": 95,
      "chip": "ym2612"
    },
    {
      "channel": 3,
      "note": 73,
      "start": 18.9344,
      "duration": 0.3335,
      "velocity": 95,
      "chip": "ym2612"
    },
    {
      "channel": 4,
      "note": 69,
      "start": 18.9349,
      "duration": 0.3334,
      "velocity": 95,
      "chip": "ym2612"
    },
    {
      "channel": 3,
      "note": 74,
      "start": 19.2682,
      "duration": 0.2007,
      "velocity": 95,
      "chip": "ym2612"
    },
    {
      "channel": 4,
      "note": 71,
      "start": 19.2688,
      "duration": 0.2007,
      "velocity": 95,
      "chip": "ym2612"
    },
    {
      "channel": 0,
      "note": 69,
      "start": 19.4685,
      "duration": 1.0799,
      "velocity": 86,
      "chip": "ym2612"
    },
    {
      "channel": 3,
      "note": 73,
      "start": 19.4693,
      "duration": 0.1668,
      "velocity": 95,
      "chip": "ym2612"
    },
    {
      "channel": 4,
      "note": 69,
      "start": 19.4699,
      "duration": 0.1668,
      "velocity": 95,
      "chip": "ym2612"
    },
    {
      "channel": 2,
      "note": 50,
      "start": 19.6359,
      "duration": 0.0278,
      "velocity": 90,
      "chip": "ym2612"
    },
    {
      "channel": 3,
      "note": 74,
      "start": 19.6365,
      "duration": 0.9135,
      "velocity": 95,
      "chip": "ym2612"
    },
    {
      "channel": 4,
      "note": 71,
      "start": 19.6371,
      "duration": 0.9136,
      "velocity": 95,
      "chip": "ym2612"
    },
    {
      "channel": 1,
      "note": 78,
      "start": 19.6635,
      "duration": 0.018,
      "velocity": 105,
      "chip": "ym2612"
    },
    {
      "channel": 2,
      "note": 55,
      "start": 19.6641,
      "duration": 0.1751,
      "velocity": 90,
      "chip": "ym2612"
    },
    {
      "channel": 1,
      "note": 71,
      "start": 19.689,
      "duration": 0.0994,
      "velocity": 105,
      "chip": "ym2612"
    },
    {
      "channel": 1,
      "note": 74,
      "start": 19.839,
      "duration": 0.0178,
      "velocity": 105,
      "chip": "ym2612"
    },
    {
      "channel": 2,
      "note": 55,
      "start": 19.8396,
      "duration": 0.3757,
      "velocity": 90,
      "chip": "ym2612"
    },
    {
      "channel": 1,
      "note": 71,
      "start": 19.8666,
      "duration": 0.0971,
      "velocity": 105,
      "chip": "ym2612"
    },
    {
      "channel": 1,
      "note": 78,
      "start": 20.0313,
      "duration": 0.0172,
      "velocity": 105,
      "chip": "ym2612"
    },
    {
      "channel": 1,
      "note": 71,
      "start": 20.056,
      "duration": 0.1086,
      "velocity": 105,
      "chip": "ym2612"
    },
    {
      "channel": 1,
      "note": 74,
      "start": 20.2151,
      "duration": 0.1166,
      "velocity": 105,
      "chip": "ym2612"
    },
    {
      "channel": 2,
      "note": 55,
      "start": 20.2157,
      "duration": 0.1667,
      "velocity": 90,
      "chip": "ym2612"
    },
    {
      "channel": 1,
      "note": 71,
      "start": 20.3822,
      "duration": 0.1163,
      "velocity": 105,
      "chip": "ym2612"
    },
    {
      "channel": 2,
      "note": 50,
      "start": 20.3827,
      "duration": 0.1666,
      "velocity": 90,
      "chip": "ym2612"
    },
    {
      "channel": 2,
      "note": 54,
      "start": 20.5497,
      "duration": 0.8925,
      "velocity": 90,
      "chip": "ym2612"
    },
    {
      "channel": 3,
      "note": 73,
      "start": 20.5504,
      "duration": 0.024,
      "velocity": 95,
      "chip": "ym2612"
    },
    {
      "channel": 4,
      "note": 69,
      "start": 20.551,
      "duration": 0.0239,
      "velocity": 95,
      "chip": "ym2612"
    },
    {
      "channel": 3,
      "note": 73,
      "start": 20.5747,
      "duration": 0.166,
      "velocity": 95,
      "chip": "ym2612"
    },
    {
      "channel": 4,
      "note": 69,
      "start": 20.5753,
      "duration": 0.1661,
      "velocity": 95,
      "chip": "ym2612"
    },
    {
      "channel": 3,
      "note": 71,
      "start": 20.7411,
      "duration": 0.3335,
      "velocity": 95,
      "chip": "ym2612"
    },
    {
      "channel": 4,
      "note": 68,
      "start": 20.7417,
      "duration": 0.3334,
      "velocity": 95,
      "chip": "ym2612"
    },
    {
      "channel": 3,
      "note": 73,
      "start": 21.075,
      "duration": 0.2003,
      "velocity": 95,
      "chip": "ym2612"
    },
    {
      "channel": 4,
      "note": 69,
      "start": 21.0755,
      "duration": 0.2004,
      "velocity": 95,
      "chip": "ym2612"
    },
    {
      "channel": 3,
      "note": 71,
      "start": 21.2757,
      "duration": 0.1671,
      "velocity": 95,
      "chip": "ym2612"
    },
    {
      "channel": 4,
      "note": 68,
      "start": 21.2763,
      "duration": 0.1671,
      "velocity": 95,
      "chip": "ym2612"
    },
    {
      "channel": 2,
      "note": 49,
      "start": 21.4426,
      "duration": 0.0223,
      "velocity": 90,
      "chip": "ym2612"
    },
    {
      "channel": 3,
      "note": 73,
      "start": 21.4432,
      "duration": 0.9079,
      "velocity": 95,
      "chip": "ym2612"
    },
    {
      "channel": 4,
      "note": 69,
      "start": 21.4438,
      "duration": 0.9078,
      "velocity": 95,
      "chip": "ym2612"
    },
    {
      "channel": 0,
      "note": 73,
      "start": 21.4641,
      "duration": 0.5514,
      "velocity": 86,
      "chip": "ym2612"
    },
    {
      "channel": 1,
      "note": 76,
      "start": 21.4647,
      "duration": 0.0175,
      "velocity": 105,
      "chip": "ym2612"
    },
    {
      "channel": 2,
      "note": 54,
      "start": 21.4653,
      "duration": 0.1749,
      "velocity": 90,
      "chip": "ym2612"
    },
    {
      "channel": 1,
      "note": 69,
      "start": 21.49,
      "duration": 0.0993,
      "velocity": 105,
      "chip": "ym2612"
    },
    {
      "channel": 1,
      "note": 73,
      "start": 21.64,
      "duration": 0.0178,
      "velocity": 105,
      "chip": "ym2612"
    },
    {
      "channel": 2,
      "note": 54,
      "start": 21.6405,
      "duration": 0.1919,
      "velocity": 90,
      "chip": "ym2612"
    },
    {
      "channel": 1,
      "note": 69,
      "start": 21.6654,
      "duration": 0.0995,
      "velocity": 105,
      "chip": "ym2612"
    },
    {
      "channel": 1,
      "note": 76,
      "start": 21.8322,
      "duration": 0.0151,
      "velocity": 105,
      "chip": "ym2612"
    },
    {
      "channel": 2,
      "note": 54,
      "start": 21.8328,
      "duration": 0.0244,
      "velocity": 90,
      "chip": "ym2612"
    },
    {
      "channel": 1,
      "note": 69,
      "start": 21.8571,
      "duration": 0.1087,
      "velocity": 105,
      "chip": "ym2612"
    },
    {
      "channel": 2,
      "note": 49,
      "start": 21.8576,
      "duration": 0.1592,
      "velocity": 90,
      "chip": "ym2612"
    },
    {
      "channel": 0,
      "note": 69,
      "start": 22.0159,
      "duration": 0.3335,
      "velocity": 86,
      "chip": "ym2612"
    },
    {
      "channel": 1,
      "note": 73,
      "start": 22.0166,
      "duration": 0.116,
      "velocity": 105,
      "chip": "ym2612"
    },
    {
      "channel": 2,
      "note": 54,
      "start": 22.0172,
      "duration": 0.1662,
      "velocity": 90,
      "chip": "ym2612"
    },
    {
      "channel": 1,
      "note": 69,
      "start": 22.1832,
      "duration": 0.1163,
      "velocity": 105,
      "chip": "ym2612"
    },
    {
      "channel": 2,
      "note": 49,
      "start": 22.1837,
      "duration": 0.1668,
      "velocity": 90,
      "chip": "ym2612"
    },
    {
      "channel": 0,
      "note": 74,
      "start": 22.3499,
      "duration": 0.7094,
      "velocity": 86,
      "chip": "ym2612"
    },
    {
      "channel": 2,
      "note": 55,
      "start": 22.3509,
      "duration": 0.8759,
      "velocity": 90,
      "chip": "ym2612"
    },
    {
      "channel": 3,
      "note": 74,
      "start": 22.3515,
      "duration": 0.0238,
      "velocity": 95,
      "chip": "ym2612"
    },
    {
      "channel": 4,
      "note": 71,
      "start": 22.3521,
      "duration": 0.0238,
      "velocity": 95,
      "chip": "ym2612"
    },
    {
      "channel": 3,
      "note": 74,
      "start": 22.3757,
      "duration": 0.1661,
      "velocity": 95,
      "chip": "ym2612"
    },
    {
      "channel": 4,
      "note": 71,
      "start": 22.3762,
      "duration": 0.1661,
      "velocity": 95,
      "chip": "ym2612"
    },
    {
      "channel": 3,
      "note": 73,
      "start": 22.5422,
      "duration": 0.3337,
      "velocity": 95,
      "chip": "ym2612"
    },
    {
      "channel": 4,
      "note": 69,
      "start": 22.5427,
      "duration": 0.3336,
      "velocity": 95,
      "chip": "ym2612"
    },
    {
      "channel": 3,
      "note": 74,
      "start": 22.8762,
      "duration": 0.184,
      "velocity": 95,
      "chip": "ym2612"
    },
    {
      "channel": 4,
      "note": 71,
      "start": 22.8767,
      "duration": 0.184,
      "velocity": 95,
      "chip": "ym2612"
    },
    {
      "channel": 0,
      "note": 69,
      "start": 23.0598,
      "duration": 1.0817,
      "velocity": 86,
      "chip": "ym2612"
    },
    {
      "channel": 3,
      "note": 73,
      "start": 23.0606,
      "duration": 0.1668,
      "velocity": 95,
      "chip": "ym2612"
    },
    {
      "channel": 4,
      "note": 69,
      "start": 23.0612,
      "duration": 0.1668,
      "velocity": 95,
      "chip": "ym2612"
    },
    {
      "channel": 2,
      "note": 50,
      "start": 23.2272,
      "duration": 0.0289,
      "velocity": 90,
      "chip": "ym2612"
    },
    {
      "channel": 3,
      "note": 74,
      "start": 23.2278,
      "duration": 0.9158,
      "velocity": 95,
      "chip": "ym2612"
    },
    {
      "channel": 4,
      "note": 71,
      "start": 23.2283,
      "duration": 0.9158,
      "velocity": 95,
      "chip": "ym2612"
    },
    {
      "channel": 1,
      "note": 78,
      "start": 23.2558,
      "duration": 0.0153,
      "velocity": 105,
      "chip": "ym2612"
    },
    {
      "channel": 2,
      "note": 55,
      "start": 23.2564,
      "duration": 0.1752,
      "velocity": 90,
      "chip": "ym2612"
    },
    {
      "channel": 1,
      "note": 71,
      "start": 23.2811,
      "duration": 0.0997,
      "velocity": 105,
      "chip": "ym2612"
    },
    {
      "channel": 1,
      "note": 74,
      "start": 23.4315,
      "duration": 0.0178,
      "velocity": 105,
      "chip": "ym2612"
    },
    {
      "channel": 2,
      "note": 55,
      "start": 23.432,
      "duration": 0.3759,
      "velocity": 90,
      "chip": "ym2612"
    },
    {
      "channel": 1,
      "note": 71,
      "start": 23.4569,
      "duration": 0.0995,
      "velocity": 105,
      "chip": "ym2612"
    },
    {
      "channel": 1,
      "note": 78,
      "start": 23.607,
      "duration": 0.0172,
      "velocity": 105,
      "chip": "ym2612"
    },
    {
      "channel": 1,
      "note": 71,
      "start": 23.6317,
      "duration": 0.1086,
      "velocity": 105,
      "chip": "ym2612"
    },
    {
      "channel": 1,
      "note": 74,
      "start": 23.8078,
      "duration": 0.0997,
      "velocity": 105,
      "chip": "ym2612"
    },
    {
      "channel": 2,
      "note": 55,
      "start": 23.8083,
      "duration": 0.1665,
      "velocity": 90,
      "chip": "ym2612"
    },
    {
      "channel": 1,
      "note": 71,
      "start": 23.9746,
      "duration": 0.1161,
      "velocity": 105,
      "chip": "ym2612"
    },
    {
      "channel": 2,
      "note": 55,
      "start": 23.9752,
      "duration": 0.1676,
      "velocity": 90,
      "chip": "ym2612"
    },
    {
      "channel": 2,
      "note": 50,
      "start": 24.1433,
      "duration": 0.8753,
      "velocity": 90,
      "chip": "ym2612"
    },
    {
      "channel": 3,
      "note": 69,
      "start": 24.1439,
      "duration": 0.7078,
      "velocity": 95,
      "chip": "ym2612"
    },
    {
      "channel": 4,
      "note": 66,
      "start": 24.1446,
      "duration": 0.7076,
      "velocity": 95,
      "chip": "ym2612"
    },
    {
      "channel": 1,
      "note": 86,
      "start": 24.3168,
      "duration": 0.1831,
      "velocity": 105,
      "chip": "ym2612"
    },
    {
      "channel": 1,
      "note": 88,
      "start": 24.5003,
      "duration": 0.1666,
      "velocity": 105,
      "chip": "ym2612"
    },
    {
      "channel": 1,
      "note": 90,
      "start": 24.6673,
      "duration": 0.0229,
      "velocity": 105,
      "chip": "ym2612"
    },
    {
      "channel": 1,
      "note": 86,
      "start": 24.8514,
      "duration": 0.1665,
      "velocity": 105,
      "chip": "ym2612"
    },
    {
      "channel": 3,
      "note": 66,
      "start": 24.8521,
      "duration": 0.5588,
      "velocity": 95,
      "chip": "ym2612"
    },
    {
      "channel": 4,
      "note": 62,
      "start": 24.8526,
      "duration": 0.5588,
      "velocity": 95,
      "chip": "ym2612"
    },
    {
      "channel": 1,
      "note": 88,
      "start": 25.0184,
      "duration": 0.0244,
      "velocity": 105,
      "chip": "ym2612"
    },
    {
      "channel": 2,
      "note": 50,
      "start": 25.0189,
      "duration": 0.0245,
      "velocity": 90,
      "chip": "ym2612"
    },
    {
      "channel": 0,
      "note": 74,
      "start": 25.0426,
      "duration": 0.3674,
      "velocity": 86,
      "chip": "ym2612"
    },
    {
      "channel": 1,
      "note": 90,
      "start": 25.0433,
      "duration": 0.902,
      "velocity": 105,
      "chip": "ym2612"
    },
    {
      "channel": 2,
      "note": 50,
      "start": 25.0438,
      "duration": 0.191,
      "velocity": 90,
      "chip": "ym2612"
    },
    {
      "channel": 2,
      "note": 50,
      "start": 25.2352,
      "duration": 0.3598,
      "velocity": 90,
      "chip": "ym2612"
    },
    {
      "channel": 0,
      "note": 74,
      "start": 25.4104,
      "duration": 0.1836,
      "velocity": 86,
      "chip": "ym2612"
    },
    {
      "channel": 3,
      "note": 69,
      "start": 25.4112,
      "duration": 0.5351,
      "velocity": 95,
      "chip": "ym2612"
    },
    {
      "channel": 4,
      "note": 66,
      "start": 25.4118,
      "duration": 0.5351,
      "velocity": 95,
      "chip": "ym2612"
    },
    {
      "channel": 0,
      "note": 73,
      "start": 25.5945,
      "duration": 0.3502,
      "velocity": 86,
      "chip": "ym2612"
    },
    {
      "channel": 2,
      "note": 50,
      "start": 25.5954,
      "duration": 0.1829,
      "velocity": 90,
      "chip": "ym2612"
    },
    {
      "channel": 2,
      "note": 51,
      "start": 25.7787,
      "duration": 0.1671,
      "velocity": 90,
      "chip": "ym2612"
    },
    {
      "channel": 0,
      "note": 74,
      "start": 25.9451,
      "duration": 0.1749,
      "velocity": 86,
      "chip": "ym2612"
    },
    {
      "channel": 2,
      "note": 52,
      "start": 25.9461,
      "duration": 0.8765,
      "velocity": 90,
      "chip": "ym2612"
    },
    {
      "channel": 3,
      "note": 68,
      "start": 25.9467,
      "duration": 0.7093,
      "velocity": 95,
      "chip": "ym2612"
    },
    {
      "channel": 4,
      "note": 64,
      "start": 25.9473,
      "duration": 0.7093,
      "velocity": 95,
      "chip": "ym2612"
    },
    {
      "channel": 0,
      "note": 73,
      "start": 26.1205,
      "duration": 0.5341,
      "velocity": 86,
      "chip": "ym2612"
    },
    {
      "channel": 1,
      "note": 88,
      "start": 26.1212,
      "duration": 0.1661,
      "velocity": 105,
      "chip": "ym2612"
    },
    {
      "channel": 1,
      "note": 90,
      "start": 26.2877,
      "duration": 0.1666,
      "velocity": 105,
      "chip": "ym2612"
    },
    {
      "channel": 1,
      "note": 92,
      "start": 26.4547,
      "duration": 0.0334,
      "velocity": 105,
      "chip": "ym2612"
    },
    {
      "channel": 0,
      "note": 71,
      "start": 26.6551,
      "duration": 0.3698,
      "velocity": 86,
      "chip": "ym2612"
    },
    {
      "channel": 1,
      "note": 88,
      "start": 26.6558,
      "duration": 0.1662,
      "velocity": 105,
      "chip": "ym2612"
    },
    {
      "channel": 3,
      "note": 71,
      "start": 26.6564,
      "duration": 0.5616,
      "velocity": 95,
      "chip": "ym2612"
    },
    {
      "channel": 4,
      "note": 68,
      "start": 26.6569,
      "duration": 0.5616,
      "velocity": 95,
      "chip": "ym2612"
    },
    {
      "channel": 1,
      "note": 90,
      "start": 26.8224,
      "duration": 0.0272,
      "velocity": 105,
      "chip": "ym2612"
    },
    {
      "channel": 2,
      "note": 47,
      "start": 26.823,
      "duration": 0.0273,
      "velocity": 90,
      "chip": "ym2612"
    },
    {
      "channel": 1,
      "note": 92,
      "start": 26.8501,
      "duration": 0.9023,
      "velocity": 105,
      "chip": "ym2612"
    },
    {
      "channel": 2,
      "note": 52,
      "start": 26.8507,
      "duration": 0.175,
      "velocity": 90,
      "chip": "ym2612"
    },
    {
      "channel": 0,
      "note": 73,
      "start": 27.0254,
      "duration": 0.1917,
      "velocity": 86,
      "chip": "ym2612"
    },
    {
      "channel": 2,
      "note": 52,
      "start": 27.026,
      "duration": 0.3758,
      "velocity": 90,
      "chip": "ym2612"
    },
    {
      "channel": 0,
      "note": 74,
      "start": 27.2176,
      "duration": 0.5342,
      "velocity": 86,
      "chip": "ym2612"
    },
    {
      "channel": 3,
      "note": 68,
      "start": 27.2184,
      "duration": 0.5351,
      "velocity": 95,
      "chip": "ym2612"
    },
    {
      "channel": 4,
      "note": 64,
      "start": 27.219,
      "duration": 0.5351,
      "velocity": 95,
      "chip": "ym2612"
    },
    {
      "channel": 2,
      "note": 52,
      "start": 27.4022,
      "duration": 0.1662,
      "velocity": 90,
      "chip": "ym2612"
    },
    {
      "channel": 2,
      "note": 53,
      "start": 27.5688,
      "duration": 0.1841,
      "velocity": 90,
      "chip": "ym2612"
    },
    {
      "channel": 0,
      "note": 73,
      "start": 27.7522,
      "duration": 1.7903,
      "velocity": 86,
      "chip": "ym2612"
    },
    {
      "channel": 2,
      "note": 54,
      "start": 27.7532,
      "duration": 0.8764,
      "velocity": 90,
      "chip": "ym2612"
    },
    {
      "channel": 3,
      "note": 69,
      "start": 27.7538,
      "duration": 0.7089,
      "velocity": 95,
      "chip": "ym2612"
    },
    {
      "channel": 4,
      "note": 66,
      "start": 27.7544,
      "duration": 0.7089,
      "velocity": 95,
      "chip": "ym2612"
    },
    {
      "channel": 1,
      "note": 90,
      "start": 27.9279,
      "duration": 0.1662,
      "velocity": 105,
      "chip": "ym2612"
    },
    {
      "channel": 1,
      "note": 92,
      "start": 28.0946,
      "duration": 0.1668,
      "velocity": 105,
      "chip": "ym2612"
    },
    {
      "channel": 1,
      "note": 93,
      "start": 28.2617,
      "duration": 0.0254,
      "velocity": 105,
      "chip": "ym2612"
    },
    {
      "channel": 1,
      "note": 90,
      "start": 28.4625,
      "duration": 0.1665,
      "velocity": 105,
      "chip": "ym2612"
    },
    {
      "channel": 3,
      "note": 73,
      "start": 28.4631,
      "duration": 0.5615,
      "velocity": 95,
      "chip": "ym2612"
    },
    {
      "channel": 4,
      "note": 69,
      "start": 28.4637,
      "duration": 0.5616,
      "velocity": 95,
      "chip": "ym2612"
    },
    {
      "channel": 1,
      "note": 92,
      "start": 28.6295,
      "duration": 0.0271,
      "velocity": 105,
      "chip": "ym2612"
    },
    {
      "channel": 2,
      "note": 49,
      "start": 28.63,
      "duration": 0.0271,
      "velocity": 90,
      "chip": "ym2612"
    },
    {
      "channel": 1,
      "note": 93,
      "start": 28.657,
      "duration": 0.8863,
      "velocity": 105,
      "chip": "ym2612"
    },
    {
      "channel": 2,
      "note": 54,
      "start": 28.6576,
      "duration": 0.1748,
      "velocity": 90,
      "chip": "ym2612"
    },
    {
      "channel": 2,
      "note": 54,
      "start": 28.8327,
      "duration": 0.3761,
      "velocity": 90,
      "chip": "ym2612"
    },
    {
      "channel": 3,
      "note": 69,
      "start": 29.0251,
      "duration": 0.519,
      "velocity": 95,
      "chip": "ym2612"
    },
    {
      "channel": 4,
      "note": 66,
      "start": 29.0257,
      "duration": 0.5187,
      "velocity": 95,
      "chip": "ym2612"
    },
    {
      "channel": 2,
      "note": 54,
      "start": 29.2092,
      "duration": 0.1663,
      "velocity": 90,
      "chip": "ym2612"
    },
    {
      "channel": 2,
      "note": 54,
      "start": 29.3759,
      "duration": 0.1678,
      "velocity": 90,
      "chip": "ym2612"
    },
    {
      "channel": 0,
      "note": 64,
      "start": 29.5431,
      "duration": 0.0243,
      "velocity": 86,
      "chip": "ym2612"
    },
    {
      "channel": 0,
      "note": 66,
      "start": 29.5678,
      "duration": 0.1669,
      "velocity": 86,
      "chip": "ym2612"
    },
    {
      "channel": 0,
      "note": 68,
      "start": 29.7351,
      "duration": 0.0292,
      "velocity": 86,
      "chip": "ym2612"
    },
    {
      "channel": 1,
      "note": 81,
      "start": 29.7363,
      "duration": 0.1838,
      "velocity": 105,
      "chip": "ym2612"
    },
    {
      "channel": 2,
      "note": 52,
      "start": 29.7372,
      "duration": 0.184,
      "velocity": 90,
      "chip": "ym2612"
    },
    {
      "channel": 3,
      "note": 74,
      "start": 29.7382,
      "duration": 0.184,
      "velocity": 95,
      "chip": "ym2612"
    },
    {
      "channel": 4,
      "note": 71,
      "start": 29.7392,
      "duration": 0.1841,
      "velocity": 95,
      "chip": "ym2612"
    },
    {
      "channel": 0,
      "note": 69,
      "start": 29.7648,
      "duration": 0.1541,
      "velocity": 86,
      "chip": "ym2612"
    },
    {
      "channel": 0,
      "note": 68,
      "start": 29.9193,
      "duration": 0.0298,
      "velocity": 86,
      "chip": "ym2612"
    },
    {
      "channel": 1,
      "note": 81,
      "start": 29.9205,
      "duration": 0.1837,
      "velocity": 105,
      "chip": "ym2612"
    },
    {
      "channel": 2,
      "note": 52,
      "start": 29.9216,
      "duration": 0.1838,
      "velocity": 90,
      "chip": "ym2612"
    },
    {
      "channel": 3,
      "note": 74,
      "start": 29.9226,
      "duration": 0.1838,
      "velocity": 95,
      "chip": "ym2612"
    },
    {
      "channel": 4,
      "note": 71,
      "start": 29.9237,
      "duration": 0.1838,
      "velocity": 95,
      "chip": "ym2612"
    },
    {
      "channel": 0,
      "note": 69,
      "start": 29.9495,
      "duration": 0.1536,
      "velocity": 86,
      "chip": "ym2612"
    },
    {
      "channel": 0,
      "note": 71,
      "start": 30.1035,
      "duration": 0.0295,
      "velocity": 86,
      "chip": "ym2612"
    },
    {
      "channel": 1,
      "note": 81,
      "start": 30.1047,
      "duration": 0.2004,
      "velocity": 105,
      "chip": "ym2612"
    },
    {
      "channel": 2,
      "note": 52,
      "start": 30.1057,
      "duration": 0.2005,
      "velocity": 90,
      "chip": "ym2612"
    },
    {
      "channel": 3,
      "note": 74,
      "start": 30.1068,
      "duration": 0.2005,
      "velocity": 95,
      "chip": "ym2612"
    },
    {
      "channel": 4,
      "note": 71,
      "start": 30.1079,
      "duration": 0.2005,
      "velocity": 95,
      "chip": "ym2612"
    },
    {
      "channel": 0,
      "note": 73,
      "start": 30.1335,
      "duration": 0.1705,
      "velocity": 86,
      "chip": "ym2612"
    },
    {
      "channel": 0,
      "note": 71,
      "start": 30.3044,
      "duration": 0.0295,
      "velocity": 86,
      "chip": "ym2612"
    },
    {
      "channel": 1,
      "note": 81,
      "start": 30.3056,
      "duration": 0.1837,
      "velocity": 105,
      "chip": "ym2612"
    },
    {
      "channel": 2,
      "note": 52,
      "start": 30.3066,
      "duration": 0.1838,
      "velocity": 90,
      "chip": "ym2612"
    },
    {
      "channel": 3,
      "note": 74,
      "start": 30.3077,
      "duration": 0.1838,
      "velocity": 95,
      "chip": "ym2612"
    },
    {
      "channel": 4,
      "note": 71,
      "start": 30.3088,
      "duration": 0.1837,
      "velocity": 95,
      "chip": "ym2612"
    },
    {
      "channel": 0,
      "note": 73,
      "start": 30.3343,
      "duration": 0.1538,
      "velocity": 86,
      "chip": "ym2612"
    },
    {
      "channel": 0,
      "note": 74,
      "start": 30.4886,
      "duration": 0.0294,
      "velocity": 86,
      "chip": "ym2612"
    },
    {
      "channel": 1,
      "note": 81,
      "start": 30.4898,
      "duration": 0.1836,
      "velocity": 105,
      "chip": "ym2612"
    },
    {
      "channel": 2,
      "note": 52,
      "start": 30.4908,
      "duration": 0.1837,
      "velocity": 90,
      "chip": "ym2612"
    },
    {
      "channel": 3,
      "note": 74,
      "start": 30.4919,
      "duration": 0.1837,
      "velocity": 95,
      "chip": "ym2612"
    },
    {
      "channel": 4,
      "note": 71,
      "start": 30.4929,
      "duration": 0.1837,
      "velocity": 95,
      "chip": "ym2612"
    },
    {
      "channel": 0,
      "note": 76,
      "start": 30.5184,
      "duration": 0.1538,
      "velocity": 86,
      "chip": "ym2612"
    },
    {
      "channel": 0,
      "note": 74,
      "start": 30.6727,
      "duration": 0.0334,
      "velocity": 86,
      "chip": "ym2612"
    },
    {
      "channel": 1,
      "note": 81,
      "start": 30.6738,
      "duration": 0.2004,
      "velocity": 105,
      "chip": "ym2612"
    },
    {
      "channel": 2,
      "note": 52,
      "start": 30.6749,
      "duration": 0.2005,
      "velocity": 90,
      "chip": "ym2612"
    },
    {
      "channel": 3,
      "note": 74,
      "start": 30.6759,
      "duration": 0.2005,
      "velocity": 95,
      "chip": "ym2612"
    },
    {
      "channel": 4,
      "note": 71,
      "start": 30.677,
      "duration": 0.2005,
      "velocity": 95,
      "chip": "ym2612"
    },
    {
      "channel": 0,
      "note": 76,
      "start": 30.7065,
      "duration": 0.1666,
      "velocity": 86,
      "chip": "ym2612"
    },
    {
      "channel": 0,
      "note": 78,
      "start": 30.8735,
      "duration": 0.0296,
      "velocity": 86,
      "chip": "ym2612"
    },
    {
      "channel": 1,
      "note": 81,
      "start": 30.8747,
      "duration": 0.057,
      "velocity": 105,
      "chip": "ym2612"
    },
    {
      "channel": 2,
      "note": 52,
      "start": 30.8758,
      "duration": 0.0573,
      "velocity": 90,
      "chip": "ym2612"
    },
    {
      "channel": 3,
      "note": 74,
      "start": 30.8768,
      "duration": 0.0578,
      "velocity": 95,
      "chip": "ym2612"
    },
    {
      "channel": 4,
      "note": 71,
      "start": 30.8779,
      "duration": 0.0582,
      "velocity": 95,
      "chip": "ym2612"
    },
    {
      "channel": 0,
      "note": 80,
      "start": 30.9036,
      "duration": 0.0265,
      "velocity": 86,
      "chip": "ym2612"
    },
    {
      "channel": 0,
      "note": 76,
      "start": 30.9305,
      "duration": 0.9036,
      "velocity": 86,
      "chip": "ym2612"
    },
    {
      "channel": 2,
      "note": 60,
      "start": 30.9334,
      "duration": 0.8741,
      "velocity": 90,
      "chip": "ym2612"
    },
    {
      "channel": 3,
      "note": 79,
      "start": 30.935,
      "duration": 0.7056,
      "velocity": 95,
      "chip": "ym2612"
    },
    {
      "channel": 4,
      "note": 76,
      "start": 30.9365,
      "duration": 0.7047,
      "velocity": 95,
      "chip": "ym2612"
    },
    {
      "channel": 1,
      "note": 84,
      "start": 31.1058,
      "duration": 0.1831,
      "velocity": 105,
      "chip": "ym2612"
    },
    {
      "channel": 1,
      "note": 83,
      "start": 31.2893,
      "duration": 0.3505,
      "velocity": 105,
      "chip": "ym2612"
    },
    {
      "channel": 1,
      "note": 84,
      "start": 31.6403,
      "duration": 0.1665,
      "velocity": 105,
      "chip": "ym2612"
    },
    {
      "channel": 3,
      "note": 76,
      "start": 31.641,
      "duration": 0.1671,
      "velocity": 95,
      "chip": "ym2612"
    },
    {
      "channel": 4,
      "note": 72,
      "start": 31.6416,
      "duration": 0.1671,
      "velocity": 95,
      "chip": "ym2612"
    },
    {
      "channel": 1,
      "note": 79,
      "start": 31.8073,
      "duration": 0.2192,
      "velocity": 105,
      "chip": "ym2612"
    },
    {
      "channel": 2,
      "note": 60,
      "start": 31.8079,
      "duration": 0.0272,
      "velocity": 90,
      "chip": "ym2612"
    },
    {
      "channel": 3,
      "note": 79,
      "start": 31.8085,
      "duration": 0.3945,
      "velocity": 95,
      "chip": "ym2612"
    },
    {
      "channel": 4,
      "note": 76,
      "start": 31.809,
      "duration": 0.3945,
      "velocity": 95,
      "chip": "ym2612"
    },
    {
      "channel": 0,
      "note": 79,
      "start": 31.8346,
      "duration": 0.3673,
      "velocity": 86,
      "chip": "ym2612"
    },
    {
      "channel": 2,
      "note": 59,
      "start": 31.8355,
      "duration": 0.1917,
      "velocity": 90,
      "chip": "ym2612"
    },
    {
      "channel": 1,
      "note": 84,
      "start": 32.027,
      "duration": 0.0258,
      "velocity": 105,
      "chip": "ym2612"
    },
    {
      "channel": 2,
      "note": 59,
      "start": 32.0275,
      "duration": 0.3594,
      "velocity": 90,
      "chip": "ym2612"
    },
    {
      "channel": 1,
      "note": 83,
      "start": 32.0533,
      "duration": 0.333,
      "velocity": 105,
      "chip": "ym2612"
    },
    {
      "channel": 0,
      "note": 72,
      "start": 32.2024,
      "duration": 0.5342,
      "velocity": 86,
      "chip": "ym2612"
    },
    {
      "channel": 3,
      "note": 76,
      "start": 32.2034,
      "duration": 0.5347,
      "velocity": 95,
      "chip": "ym2612"
    },
    {
      "channel": 4,
      "note": 72,
      "start": 32.204,
      "duration": 0.5347,
      "velocity": 95,
      "chip": "ym2612"
    },
    {
      "channel": 1,
      "note": 84,
      "start": 32.3868,
      "duration": 0.1831,
      "velocity": 105,
      "chip": "ym2612"
    },
    {
      "channel": 2,
      "note": 59,
      "start": 32.3873,
      "duration": 0.1832,
      "velocity": 90,
      "chip": "ym2612"
    },
    {
      "channel": 1,
      "note": 81,
      "start": 32.5703,
      "duration": 0.8766,
      "velocity": 105,
      "chip": "ym2612"
    },
    {
      "channel": 2,
      "note": 55,
      "start": 32.5709,
      "duration": 0.1666,
      "velocity": 90,
      "chip": "ym2612"
    },
    {
      "channel": 0,
      "note": 77,
      "start": 32.737,
      "duration": 0.8766,
      "velocity": 86,
      "chip": "ym2612"
    },
    {
      "channel": 2,
      "note": 53,
      "start": 32.7379,
      "duration": 0.8767,
      "velocity": 90,
      "chip": "ym2612"
    },
    {
      "channel": 3,
      "note": 81,
      "start": 32.7385,
      "duration": 0.9013,
      "velocity": 95,
      "chip": "ym2612"
    },
    {
      "channel": 4,
      "note": 77,
      "start": 32.7391,
      "duration": 0.9013,
      "velocity": 95,
      "chip": "ym2612"
    },
    {
      "channel": 1,
      "note": 89,
      "start": 33.6144,
      "duration": 0.0241,
      "velocity": 105,
      "chip": "ym2612"
    },
    {
      "channel": 2,
      "note": 53,
      "start": 33.615,
      "duration": 0.0242,
      "velocity": 90,
      "chip": "ym2612"
    },
    {
      "channel": 0,
      "note": 81,
      "start": 33.6384,
      "duration": 0.1918,
      "velocity": 86,
      "chip": "ym2612"
    },
    {
      "channel": 1,
      "note": 89,
      "start": 33.639,
      "duration": 0.1918,
      "velocity": 105,
      "chip": "ym2612"
    },
    {
      "channel": 2,
      "note": 55,
      "start": 33.6396,
      "duration": 0.1918,
      "velocity": 90,
      "chip": "ym2612"
    },
    {
      "channel": 3,
      "note": 77,
      "start": 33.6402,
      "duration": 0.1918,
      "velocity": 95,
      "chip": "ym2612"
    },
    {
      "channel": 4,
      "note": 74,
      "start": 33.6408,
      "duration": 0.1917,
      "velocity": 95,
      "chip": "ym2612"
    },
    {
      "channel": 0,
      "note": 79,
      "start": 33.8306,
      "duration": 0.1751,
      "velocity": 86,
      "chip": "ym2612"
    },
    {
      "channel": 1,
      "note": 88,
      "start": 33.8312,
      "duration": 0.1752,
      "velocity": 105,
      "chip": "ym2612"
    },
    {
      "channel": 2,
      "note": 55,
      "start": 33.8318,
      "duration": 0.3588,
      "velocity": 90,
      "chip": "ym2612"
    },
    {
      "channel": 3,
      "note": 77,
      "start": 33.8323,
      "duration": 0.1749,
      "velocity": 95,
      "chip": "ym2612"
    },
    {
      "channel": 4,
      "note": 74,
      "start": 33.8329,
      "duration": 0.1749,
      "velocity": 95,
      "chip": "ym2612"
    },
    {
      "channel": 0,
      "note": 76,
      "start": 34.0063,
      "duration": 0.0262,
      "velocity": 86,
      "chip": "ym2612"
    },
    {
      "channel": 1,
      "note": 84,
      "start": 34.0069,
      "duration": 0.0262,
      "velocity": 105,
      "chip": "ym2612"
    },
    {
      "channel": 3,
      "note": 77,
      "start": 34.0076,
      "duration": 0.0263,
      "velocity": 95,
      "chip": "ym2612"
    },
    {
      "channel": 4,
      "note": 74,
      "start": 34.0081,
      "duration": 0.0263,
      "velocity": 95,
      "chip": "ym2612"
    },
    {
      "channel": 0,
      "note": 77,
      "start": 34.0329,
      "duration": 0.2178,
      "velocity": 86,
      "chip": "ym2612"
    },
    {
      "channel": 1,
      "note": 86,
      "start": 34.0336,
      "duration": 0.2179,
      "velocity": 105,
      "chip": "ym2612"
    },
    {
      "channel": 3,
      "note": 81,
      "start": 34.0343,
      "duration": 0.2184,
      "velocity": 95,
      "chip": "ym2612"
    },
    {
      "channel": 4,
      "note": 77,
      "start": 34.0349,
      "duration": 0.2185,
      "velocity": 95,
      "chip": "ym2612"
    },
    {
      "channel": 2,
      "note": 62,
      "start": 34.191,
      "duration": 0.0262,
      "velocity": 90,
      "chip": "ym2612"
    },
    {
      "channel": 2,
      "note": 55,
      "start": 34.2176,
      "duration": 0.0344,
      "velocity": 90,
      "chip": "ym2612"
    },
    {
      "channel": 0,
      "note": 76,
      "start": 34.2512,
      "duration": 0.9041,
      "velocity": 86,
      "chip": "ym2612"
    },
    {
      "channel": 2,
      "note": 60,
      "start": 34.2524,
      "duration": 0.8764,
      "velocity": 90,
      "chip": "ym2612"
    },
    {
      "channel": 3,
      "note": 79,
      "start": 34.2531,
      "duration": 0.7088,
      "velocity": 95,
      "chip": "ym2612"
    },
    {
      "channel": 4,
      "note": 76,
      "start": 34.2537,
      "duration": 0.7087,
      "velocity": 95,
      "chip": "ym2612"
    },
    {
      "channel": 1,
      "note": 84,
      "start": 34.427,
      "duration": 0.1662,
      "velocity": 105,
      "chip": "ym2612"
    },
    {
      "channel": 1,
      "note": 83,
      "start": 34.5937,
      "duration": 0.3675,
      "velocity": 105,
      "chip": "ym2612"
    },
    {
      "channel": 1,
      "note": 84,
      "start": 34.9616,
      "duration": 0.1665,
      "velocity": 105,
      "chip": "ym2612"
    },
    {
      "channel": 3,
      "note": 76,
      "start": 34.9623,
      "duration": 0.1671,
      "velocity": 95,
      "chip": "ym2612"
    },
    {
      "channel": 4,
      "note": 72,
      "start": 34.9629,
      "duration": 0.1671,
      "velocity": 95,
      "chip": "ym2612"
    },
    {
      "channel": 1,
      "note": 79,
      "start": 35.1286,
      "duration": 0.2027,
      "velocity": 105,
      "chip": "ym2612"
    },
    {
      "channel": 2,
      "note": 60,
      "start": 35.1292,
      "duration": 0.0272,
      "velocity": 90,
      "chip": "ym2612"
    },
    {
      "channel": 3,
      "note": 79,
      "start": 35.1297,
      "duration": 0.3943,
      "velocity": 95,
      "chip": "ym2612"
    },
    {
      "channel": 4,
      "note": 76,
      "start": 35.1303,
      "duration": 0.3943,
      "velocity": 95,
      "chip": "ym2612"
    },
    {
      "channel": 0,
      "note": 79,
      "start": 35.1559,
      "duration": 0.3673,
      "velocity": 86,
      "chip": "ym2612"
    },
    {
      "channel": 2,
      "note": 59,
      "start": 35.1568,
      "duration": 0.1752,
      "velocity": 90,
      "chip": "ym2612"
    },
    {
      "channel": 1,
      "note": 84,
      "start": 35.3318,
      "duration": 0.0256,
      "velocity": 105,
      "chip": "ym2612"
    },
    {
      "channel": 2,
      "note": 59,
      "start": 35.3323,
      "duration": 0.376,
      "velocity": 90,
      "chip": "ym2612"
    },
    {
      "channel": 1,
      "note": 83,
      "start": 35.3578,
      "duration": 0.3498,
      "velocity": 105,
      "chip": "ym2612"
    },
    {
      "channel": 0,
      "note": 72,
      "start": 35.5236,
      "duration": 0.5175,
      "velocity": 86,
      "chip": "ym2612"
    },
    {
      "channel": 3,
      "note": 76,
      "start": 35.5244,
      "duration": 0.5183,
      "velocity": 95,
      "chip": "ym2612"
    },
    {
      "channel": 4,
      "note": 72,
      "start": 35.525,
      "duration": 0.5183,
      "velocity": 95,
      "chip": "ym2612"
    },
    {
      "channel": 1,
      "note": 84,
      "start": 35.7081,
      "duration": 0.1662,
      "velocity": 105,
      "chip": "ym2612"
    },
    {
      "channel": 2,
      "note": 59,
      "start": 35.7086,
      "duration": 0.1663,
      "velocity": 90,
      "chip": "ym2612"
    },
    {
      "channel": 1,
      "note": 81,
      "start": 35.8748,
      "duration": 0.8768,
      "velocity": 105,
      "chip": "ym2612"
    },
    {
      "channel": 2,
      "note": 55,
      "start": 35.8753,
      "duration": 0.1668,
      "velocity": 90,
      "chip": "ym2612"
    },
    {
      "channel": 0,
      "note": 77,
      "start": 36.0416,
      "duration": 0.8766,
      "velocity": 86,
      "chip": "ym2612"
    },
    {
      "channel": 2,
      "note": 53,
      "start": 36.0426,
      "duration": 0.8769,
      "velocity": 90,
      "chip": "ym2612"
    },
    {
      "channel": 3,
      "note": 81,
      "start": 36.0432,
      "duration": 0.9059,
      "velocity": 95,
      "chip": "ym2612"
    },
    {
      "channel": 4,
      "note": 77,
      "start": 36.0437,
      "duration": 0.9059,
      "velocity": 95,
      "chip": "ym2612"
    },
    {
      "channel": 0,
      "note": 81,
      "start": 36.9187,
      "duration": 0.0285,
      "velocity": 86,
      "chip": "ym2612"
    },
    {
      "channel": 1,
      "note": 89,
      "start": 36.9193,
      "duration": 0.0285,
      "velocity": 105,
      "chip": "ym2612"
    },
    {
      "channel": 2,
      "note": 53,
      "start": 36.9199,
      "duration": 0.0285,
      "velocity": 90,
      "chip": "ym2612"
    },
    {
      "channel": 0,
      "note": 81,
      "start": 36.9476,
      "duration": 0.1751,
      "velocity": 86,
      "chip": "ym2612"
    },
    {
      "channel": 1,
      "note": 89,
      "start": 36.9482,
      "duration": 0.1751,
      "velocity": 105,
      "chip": "ym2612"
    },
    {
      "channel": 2,
      "note": 55,
      "start": 36.9488,
      "duration": 0.1752,
      "velocity": 90,
      "chip": "ym2612"
    },
    {
      "channel": 3,
      "note": 77,
      "start": 36.9494,
      "duration": 0.1751,
      "velocity": 95,
      "chip": "ym2612"
    },
    {
      "channel": 4,
      "note": 74,
      "start": 36.95,
      "duration": 0.1751,
      "velocity": 95,
      "chip": "ym2612"
    },
    {
      "channel": 0,
      "note": 79,
      "start": 37.1232,
      "duration": 0.1751,
      "velocity": 86,
      "chip": "ym2612"
    },
    {
      "channel": 1,
      "note": 88,
      "start": 37.1238,
      "duration": 0.1751,
      "velocity": 105,
      "chip": "ym2612"
    },
    {
      "channel": 2,
      "note": 55,
      "start": 37.1244,
      "duration": 0.3754,
      "velocity": 90,
      "chip": "ym2612"
    },
    {
      "channel": 3,
      "note": 77,
      "start": 37.1249,
      "duration": 0.1748,
      "velocity": 95,
      "chip": "ym2612"
    },
    {
      "channel": 4,
      "note": 74,
      "start": 37.1254,
      "duration": 0.1748,
      "velocity": 95,
      "chip": "ym2612"
    },
    {
      "channel": 0,
      "note": 76,
      "start": 37.2988,
      "duration": 0.0334,
      "velocity": 86,
      "chip": "ym2612"
    },
    {
      "channel": 1,
      "note": 84,
      "start": 37.2994,
      "duration": 0.0334,
      "velocity": 105,
      "chip": "ym2612"
    },
    {
      "channel": 3,
      "note": 77,
      "start": 37.3,
      "duration": 0.0335,
      "velocity": 95,
      "chip": "ym2612"
    },
    {
      "channel": 4,
      "note": 74,
      "start": 37.3006,
      "duration": 0.0335,
      "velocity": 95,
      "chip": "ym2612"
    },
    {
      "channel": 0,
      "note": 77,
      "start": 37.3326,
      "duration": 0.2181,
      "velocity": 86,
      "chip": "ym2612"
    },
    {
      "channel": 1,
      "note": 86,
      "start": 37.3332,
      "duration": 0.2182,
      "velocity": 105,
      "chip": "ym2612"
    },
    {
      "channel": 3,
      "note": 81,
      "start": 37.3339,
      "duration": 0.2189,
      "velocity": 95,
      "chip": "ym2612"
    },
    {
      "channel": 4,
      "note": 77,
      "start": 37.3345,
      "duration": 0.219,
      "velocity": 95,
      "chip": "ym2612"
    },
    {
      "channel": 2,
      "note": 62,
      "start": 37.5002,
      "duration": 0.0251,
      "velocity": 90,
      "chip": "ym2612"
    },
    {
      "channel": 2,
      "note": 55,
      "start": 37.5257,
      "duration": 0.0264,
      "velocity": 90,
      "chip": "ym2612"
    },
    {
      "channel": 0,
      "note": 81,
      "start": 37.5512,
      "duration": 0.8764,
      "velocity": 86,
      "chip": "ym2612"
    },
    {
      "channel": 1,
      "note": 88,
      "start": 37.5519,
      "duration": 0.8763,
      "velocity": 105,
      "chip": "ym2612"
    },
    {
      "channel": 2,
      "note": 57,
      "start": 37.5526,
      "duration": 0.8763,
      "velocity": 90,
      "chip": "ym2612"
    },
    {
      "channel": 3,
      "note": 81,
      "start": 37.5532,
      "duration": 0.1733,
      "velocity": 95,
      "chip": "ym2612"
    },
    {
      "channel": 4,
      "note": 81,
      "start": 37.5614,
      "duration": 0.232,
      "velocity": 95,
      "chip": "ym2612"
    },
    {
      "channel": 3,
      "note": 69,
      "start": 37.7269,
      "duration": 0.1834,
      "velocity": 95,
      "chip": "ym2612"
    },
    {
      "channel": 4,
      "note": 69,
      "start": 37.7938,
      "duration": 0.1667,
      "velocity": 95,
      "chip": "ym2612"
    },
    {
      "channel": 3,
      "note": 72,
      "start": 37.9107,
      "duration": 0.1664,
      "velocity": 95,
      "chip": "ym2612"
    },
    {
      "channel": 4,
      "note": 72,
      "start": 37.9608,
      "duration": 0.1243,
      "velocity": 95,
      "chip": "ym2612"
    },
    {
      "channel": 3,
      "note": 76,
      "start": 38.0775,
      "duration": 0.1838,
      "velocity": 95,
      "chip": "ym2612"
    },
    {
      "channel": 4,
      "note": 76,
      "start": 38.0855,
      "duration": 0.226,
      "velocity": 95,
      "chip": "ym2612"
    },
    {
      "channel": 3,
      "note": 69,
      "start": 38.2618,
      "duration": 0.1676,
      "velocity": 95,
      "chip": "ym2612"
    },
    {
      "channel": 4,
      "note": 69,
      "start": 38.3119,
      "duration": 0.128,
      "velocity": 95,
      "chip": "ym2612"
    },
    {
      "channel": 0,
      "note": 81,
      "start": 38.428,
      "duration": 0.0273,
      "velocity": 86,
      "chip": "ym2612"
    },
    {
      "channel": 1,
      "note": 88,
      "start": 38.4286,
      "duration": 0.0274,
      "velocity": 105,
      "chip": "ym2612"
    },
    {
      "channel": 2,
      "note": 57,
      "start": 38.4292,
      "duration": 0.0275,
      "velocity": 90,
      "chip": "ym2612"
    },
    {
      "channel": 3,
      "note": 72,
      "start": 38.4298,
      "duration": 0.0275,
      "velocity": 95,
      "chip": "ym2612"
    },
    {
      "channel": 4,
      "note": 72,
      "start": 38.4403,
      "duration": 0.0175,
      "velocity": 95,
      "chip": "ym2612"
    },
    {
      "channel": 0,
      "note": 80,
      "start": 38.4559,
      "duration": 0.1917,
      "velocity": 86,
      "chip": "ym2612"
    },
    {
      "channel": 1,
      "note": 86,
      "start": 38.4565,
      "duration": 0.1917,
      "velocity": 105,
      "chip": "ym2612"
    },
    {
      "channel": 2,
      "note": 56,
      "start": 38.4571,
      "duration": 0.1917,
      "velocity": 90,
      "chip": "ym2612"
    },
    {
      "channel": 3,
      "note": 80,
      "start": 38.4577,
      "duration": 0.9013,
      "velocity": 95,
      "chip": "ym2612"
    },
    {
      "channel": 4,
      "note": 76,
      "start": 38.4583,
      "duration": 0.9013,
      "velocity": 95,
      "chip": "ym2612"
    },
    {
      "channel": 0,
      "note": 80,
      "start": 38.648,
      "duration": 0.1751,
      "velocity": 86,
      "chip": "ym2612"
    },
    {
      "channel": 1,
      "note": 88,
      "start": 38.6486,
      "duration": 0.1751,
      "velocity": 105,
      "chip": "ym2612"
    },
    {
      "channel": 2,
      "note": 56,
      "start": 38.6492,
      "duration": 0.7092,
      "velocity": 90,
      "chip": "ym2612"
    },
    {
      "channel": 0,
      "note": 80,
      "start": 38.8235,
      "duration": 0.0253,
      "velocity": 86,
      "chip": "ym2612"
    },
    {
      "channel": 1,
      "note": 84,
      "start": 38.8242,
      "duration": 0.0252,
      "velocity": 105,
      "chip": "ym2612"
    },
    {
      "channel": 0,
      "note": 80,
      "start": 38.8492,
      "duration": 0.3415,
      "velocity": 86,
      "chip": "ym2612"
    },
    {
      "channel": 1,
      "note": 86,
      "start": 38.8499,
      "duration": 0.3415,
      "velocity": 105,
      "chip": "ym2612"
    },
    {
      "channel": 0,
      "note": 79,
      "start": 39.1912,
      "duration": 1.0712,
      "velocity": 86,
      "chip": "ym2612"
    },
    {
      "channel": 1,
      "note": 88,
      "start": 39.1919,
      "duration": 1.0712,
      "velocity": 105,
      "chip": "ym2612"
    },
    {
      "channel": 2,
      "note": 55,
      "start": 39.3588,
      "duration": 0.8763,
      "velocity": 90,
      "chip": "ym2612"
    },
    {
      "channel": 3,
      "note": 79,
      "start": 39.3594,
      "duration": 0.1743,
      "velocity": 95,
      "chip": "ym2612"
    },
    {
      "channel": 4,
      "note": 79,
      "start": 39.368,
      "duration": 0.2327,
      "velocity": 95,
      "chip": "ym2612"
    },
    {
      "channel": 3,
      "note": 69,
      "start": 39.5341,
      "duration": 0.1667,
      "velocity": 95,
      "chip": "ym2612"
    },
    {
      "channel": 4,
      "note": 69,
      "start": 39.6011,
      "duration": 0.1663,
      "velocity": 95,
      "chip": "ym2612"
    },
    {
      "channel": 3,
      "note": 72,
      "start": 39.7011,
      "duration": 0.1664,
      "velocity": 95,
      "chip": "ym2612"
    },
    {
      "channel": 4,
      "note": 72,
      "start": 39.7678,
      "duration": 0.1102,
      "velocity": 95,
      "chip": "ym2612"
    },
    {
      "channel": 3,
      "note": 76,
      "start": 39.868,
      "duration": 0.2003,
      "velocity": 95,
      "chip": "ym2612"
    },
    {
      "channel": 4,
      "note": 76,
      "start": 39.8784,
      "duration": 0.24,
      "velocity": 95,
      "chip": "ym2612"
    },
    {
      "channel": 3,
      "note": 69,
      "start": 40.0687,
      "duration": 0.1671,
      "velocity": 95,
      "chip": "ym2612"
    },
    {
      "channel": 4,
      "note": 69,
      "start": 40.1188,
      "duration": 0.125,
      "velocity": 95,
      "chip": "ym2612"
    },
    {
      "channel": 2,
      "note": 55,
      "start": 40.2355,
      "duration": 0.0282,
      "velocity": 90,
      "chip": "ym2612"
    },
    {
      "channel": 3,
      "note": 72,
      "start": 40.2361,
      "duration": 0.0282,
      "velocity": 95,
      "chip": "ym2612"
    },
    {
      "channel": 4,
      "note": 72,
      "start": 40.2442,
      "duration": 0.0207,
      "velocity": 95,
      "chip": "ym2612"
    },
    {
      "channel": 0,
      "note": 78,
      "start": 40.2629,
      "duration": 0.1918,
      "velocity": 86,
      "chip": "ym2612"
    },
    {
      "channel": 1,
      "note": 86,
      "start": 40.2635,
      "duration": 0.1917,
      "velocity": 105,
      "chip": "ym2612"
    },
    {
      "channel": 2,
      "note": 54,
      "start": 40.2641,
      "duration": 0.1917,
      "velocity": 90,
      "chip": "ym2612"
    },
    {
      "channel": 3,
      "note": 78,
      "start": 40.2647,
      "duration": 0.6113,
      "velocity": 95,
      "chip": "ym2612"
    },
    {
      "channel": 4,
      "note": 76,
      "start": 40.2653,
      "duration": 0.6112,
      "velocity": 95,
      "chip": "ym2612"
    },
    {
      "channel": 0,
      "note": 78,
      "start": 40.4551,
      "duration": 0.1752,
      "velocity": 86,
      "chip": "ym2612"
    },
    {
      "channel": 1,
      "note": 88,
      "start": 40.4557,
      "duration": 0.1752,
      "velocity": 105,
      "chip": "ym2612"
    },
    {
      "channel": 2,
      "note": 54,
      "start": 40.4562,
      "duration": 0.4192,
      "velocity": 90,
      "chip": "ym2612"
    },
    {
      "channel": 0,
      "note": 78,
      "start": 40.6307,
      "duration": 0.0253,
      "velocity": 86,
      "chip": "ym2612"
    },
    {
      "channel": 1,
      "note": 84,
      "start": 40.6314,
      "duration": 0.0253,
      "velocity": 105,
      "chip": "ym2612"
    },
    {
      "channel": 0,
      "note": 78,
      "start": 40.6565,
      "duration": 0.2176,
      "velocity": 86,
      "chip": "ym2612"
    },
    {
      "channel": 1,
      "note": 84,
      "start": 40.6571,
      "duration": 0.1833,
      "velocity": 105,
      "chip": "ym2612"
    },
    {
      "channel": 1,
      "note": 84,
      "start": 40.8408,
      "duration": 0.034,
      "velocity": 105,
      "chip": "ym2612"
    },
    {
      "channel": 0,
      "note": 81,
      "start": 40.8746,
      "duration": 0.1749,
      "velocity": 86,
      "chip": "ym2612"
    },
    {
      "channel": 1,
      "note": 89,
      "start": 40.8752,
      "duration": 0.1749,
      "velocity": 105,
      "chip": "ym2612"
    },
    {
      "channel": 2,
      "note": 53,
      "start": 40.8758,
      "duration": 0.7097,
      "velocity": 90,
      "chip": "ym2612"
    },
    {
      "channel": 3,
      "note": 72,
      "start": 40.8764,
      "duration": 0.7097,
      "velocity": 95,
      "chip": "ym2612"
    },
    {
      "channel": 4,
      "note": 69,
      "start": 40.877,
      "duration": 0.7097,
      "velocity": 95,
      "chip": "ym2612"
    },
    {
      "channel": 0,
      "note": 79,
      "start": 41.0499,
      "duration": 0.3334,
      "velocity": 86,
      "chip": "ym2612"
    },
    {
      "channel": 1,
      "note": 88,
      "start": 41.0505,
      "duration": 0.3334,
      "velocity": 105,
      "chip": "ym2612"
    },
    {
      "channel": 0,
      "note": 76,
      "start": 41.3838,
      "duration": 0.2004,
      "velocity": 86,
      "chip": "ym2612"
    },
    {
      "channel": 1,
      "note": 84,
      "start": 41.3844,
      "duration": 0.2004,
      "velocity": 105,
      "chip": "ym2612"
    },
    {
      "channel": 0,
      "note": 77,
      "start": 41.5846,
      "duration": 0.8938,
      "velocity": 86,
      "chip": "ym2612"
    },
    {
      "channel": 1,
      "note": 86,
      "start": 41.5853,
      "duration": 0.8938,
      "velocity": 105,
      "chip": "ym2612"
    },
    {
      "channel": 2,
      "note": 55,
      "start": 41.5859,
      "duration": 0.8939,
      "velocity": 90,
      "chip": "ym2612"
    },
    {
      "channel": 3,
      "note": 74,
      "start": 41.5865,
      "duration": 0.8938,
      "velocity": 95,
      "chip": "ym2612"
    },
    {
      "channel": 4,
      "note": 71,
      "start": 41.5871,
      "duration": 0.8938,
      "velocity": 95,
      "chip": "ym2612"
    },
    {
      "channel": 0,
      "note": 76,
      "start": 42.4789,
      "duration": 0.0269,
      "velocity": 86,
      "chip": "ym2612"
    },
    {
      "channel": 1,
      "note": 84,
      "start": 42.4795,
      "duration": 0.0268,
      "velocity": 105,
      "chip": "ym2612"
    },
    {
      "channel": 2,
      "note": 62,
      "start": 42.4802,
      "duration": 0.0539,
      "velocity": 90,
      "chip": "ym2612"
    },
    {
      "channel": 3,
      "note": 76,
      "start": 42.4807,
      "duration": 0.0264,
      "velocity": 95,
      "chip": "ym2612"
    },
    {
      "channel": 4,
      "note": 72,
      "start": 42.4813,
      "duration": 0.0263,
      "velocity": 95,
      "chip": "ym2612"
    },
    {
      "channel": 0,
      "note": 76,
      "start": 42.5062,
      "duration": 0.0265,
      "velocity": 86,
      "chip": "ym2612"
    },
    {
      "channel": 1,
      "note": 84,
      "start": 42.5068,
      "duration": 0.0266,
      "velocity": 105,
      "chip": "ym2612"
    },
    {
      "channel": 3,
      "note": 74,
      "start": 42.5075,
      "duration": 0.0272,
      "velocity": 95,
      "chip": "ym2612"
    },
    {
      "channel": 4,
      "note": 71,
      "start": 42.508,
      "duration": 0.0272,
      "velocity": 95,
      "chip": "ym2612"
    },
    {
      "channel": 0,
      "note": 81,
      "start": 42.5332,
      "duration": 0.1916,
      "velocity": 86,
      "chip": "ym2612"
    },
    {
      "channel": 1,
      "note": 89,
      "start": 42.5339,
      "duration": 0.1916,
      "velocity": 105,
      "chip": "ym2612"
    },
    {
      "channel": 2,
      "note": 53,
      "start": 42.5345,
      "duration": 0.7096,
      "velocity": 90,
      "chip": "ym2612"
    },
    {
      "channel": 3,
      "note": 72,
      "start": 42.5351,
      "duration": 0.7096,
      "velocity": 95,
      "chip": "ym2612"
    },
    {
      "channel": 4,
      "note": 69,
      "start": 42.5357,
      "duration": 0.7095,
      "velocity": 95,
      "chip": "ym2612"
    },
    {
      "channel": 0,
      "note": 79,
      "start": 42.7253,
      "duration": 0.3333,
      "velocity": 86,
      "chip": "ym2612"
    },
    {
      "channel": 1,
      "note": 88,
      "start": 42.7259,
      "duration": 0.3333,
      "velocity": 105,
      "chip": "ym2612"
    },
    {
      "channel": 0,
      "note": 76,
      "start": 43.059,
      "duration": 0.1837,
      "velocity": 86,
      "chip": "ym2612"
    },
    {
      "channel": 1,
      "note": 84,
      "start": 43.0597,
      "duration": 0.1838,
      "velocity": 105,
      "chip": "ym2612"
    },
    {
      "channel": 0,
      "note": 77,
      "start": 43.2432,
      "duration": 0.7097,
      "velocity": 86,
      "chip": "ym2612"
    },
    {
      "channel": 1,
      "note": 86,
      "start": 43.2439,
      "duration": 0.7097,
      "velocity": 105,
      "chip": "ym2612"
    },
    {
      "channel": 2,
      "note": 55,
      "start": 43.2445,
      "duration": 0.7098,
      "velocity": 90,
      "chip": "ym2612"
    },
    {
      "channel": 3,
      "note": 74,
      "start": 43.245,
      "duration": 0.7098,
      "velocity": 95,
      "chip": "ym2612"
    },
    {
      "channel": 4,
      "note": 71,
      "start": 43.2456,
      "duration": 0.7098,
      "velocity": 95,
      "chip": "ym2612"
    },
    {
      "channel": 0,
      "note": 79,
      "start": 43.9534,
      "duration": 0.2518,
      "velocity": 86,
      "chip": "ym2612"
    },
    {
      "channel": 1,
      "note": 84,
      "start": 43.954,
      "duration": 0.2519,
      "velocity": 105,
      "chip": "ym2612"
    },
    {
      "channel": 2,
      "note": 55,
      "start": 43.9546,
      "duration": 0.1996,
      "velocity": 90,
      "chip": "ym2612"
    },
    {
      "channel": 3,
      "note": 74,
      "start": 43.9552,
      "duration": 0.252,
      "velocity": 95,
      "chip": "ym2612"
    },
    {
      "channel": 4,
      "note": 71,
      "start": 43.9558,
      "duration": 0.252,
      "velocity": 95,
      "chip": "ym2612"
    },
    {
      "channel": 2,
      "note": 57,
      "start": 44.1546,
      "duration": 0.052,
      "velocity": 90,
      "chip": "ym2612"
    },
    {
      "channel": 0,
      "note": 82,
      "start": 44.2057,
      "duration": 0.0273,
      "velocity": 86,
      "chip": "ym2612"
    },
    {
      "channel": 1,
      "note": 84,
      "start": 44.2064,
      "duration": 1.8068,
      "velocity": 105,
      "chip": "ym2612"
    },
    {
      "channel": 2,
      "note": 58,
      "start": 44.207,
      "duration": 0.8759,
      "velocity": 90,
      "chip": "ym2612"
    },
    {
      "channel": 3,
      "note": 69,
      "start": 44.2076,
      "duration": 0.1738,
      "velocity": 95,
      "chip": "ym2612"
    },
    {
      "channel": 4,
      "note": 65,
      "start": 44.2082,
      "duration": 0.1738,
      "velocity": 95,
      "chip": "ym2612"
    },
    {
      "channel": 0,
      "note": 81,
      "start": 44.2334,
      "duration": 0.1471,
      "velocity": 86,
      "chip": "ym2612"
    },
    {
      "channel": 0,
      "note": 79,
      "start": 44.381,
      "duration": 0.1831,
      "velocity": 86,
      "chip": "ym2612"
    },
    {
      "channel": 3,
      "note": 72,
      "start": 44.3818,
      "duration": 0.1834,
      "velocity": 95,
      "chip": "ym2612"
    },
    {
      "channel": 4,
      "note": 69,
      "start": 44.3824,
      "duration": 0.1834,
      "velocity": 95,
      "chip": "ym2612"
    },
    {
      "channel": 0,
      "note": 77,
      "start": 44.5646,
      "duration": 0.1666,
      "velocity": 86,
      "chip": "ym2612"
    },
    {
      "channel": 3,
      "note": 69,
      "start": 44.5656,
      "duration": 0.1913,
      "velocity": 95,
      "chip": "ym2612"
    },
    {
      "channel": 4,
      "note": 65,
      "start": 44.5662,
      "duration": 0.1913,
      "velocity": 95,
      "chip": "ym2612"
    },
    {
      "channel": 0,
      "note": 82,
      "start": 44.7316,
      "duration": 0.0243,
      "velocity": 86,
      "chip": "ym2612"
    },
    {
      "channel": 0,
      "note": 81,
      "start": 44.7563,
      "duration": 0.1588,
      "velocity": 86,
      "chip": "ym2612"
    },
    {
      "channel": 3,
      "note": 72,
      "start": 44.7573,
      "duration": 0.1588,
      "velocity": 95,
      "chip": "ym2612"
    },
    {
      "channel": 4,
      "note": 69,
      "start": 44.7579,
      "duration": 0.1588,
      "velocity": 95,
      "chip": "ym2612"
    },
    {
      "channel": 0,
      "note": 79,
      "start": 44.9156,
      "duration": 0.1666,
      "velocity": 86,
      "chip": "ym2612"
    },
    {
      "channel": 3,
      "note": 81,
      "start": 44.9166,
      "duration": 0.1948,
      "velocity": 95,
      "chip": "ym2612"
    },
    {
      "channel": 4,
      "note": 76,
      "start": 44.9172,
      "duration": 0.1948,
      "velocity": 95,
      "chip": "ym2612"
    },
    {
      "channel": 0,
      "note": 77,
      "start": 45.0826,
      "duration": 0.0272,
      "velocity": 86,
      "chip": "ym2612"
    },
    {
      "channel": 2,
      "note": 53,
      "start": 45.0833,
      "duration": 0.0275,
      "velocity": 90,
      "chip": "ym2612"
    },
    {
      "channel": 0,
      "note": 82,
      "start": 45.1102,
      "duration": 0.0289,
      "velocity": 86,
      "chip": "ym2612"
    },
    {
      "channel": 2,
      "note": 58,
      "start": 45.1112,
      "duration": 0.1918,
      "velocity": 90,
      "chip": "ym2612"
    },
    {
      "channel": 3,
      "note": 76,
      "start": 45.1118,
      "duration": 0.0282,
      "velocity": 95,
      "chip": "ym2612"
    },
    {
      "channel": 4,
      "note": 72,
      "start": 45.1123,
      "duration": 0.0282,
      "velocity": 95,
      "chip": "ym2612"
    },
    {
      "channel": 0,
      "note": 81,
      "start": 45.1396,
      "duration": 0.1624,
      "velocity": 86,
      "chip": "ym2612"
    },
    {
      "channel": 3,
      "note": 76,
      "start": 45.1404,
      "duration": 0.1632,
      "velocity": 95,
      "chip": "ym2612"
    },
    {
      "channel": 4,
      "note": 72,
      "start": 45.1409,
      "duration": 0.1632,
      "velocity": 95,
      "chip": "ym2612"
    },
    {
      "channel": 0,
      "note": 79,
      "start": 45.3024,
      "duration": 0.0261,
      "velocity": 86,
      "chip": "ym2612"
    },
    {
      "channel": 2,
      "note": 58,
      "start": 45.3033,
      "duration": 0.7103,
      "velocity": 90,
      "chip": "ym2612"
    },
    {
      "channel": 3,
      "note": 72,
      "start": 45.3039,
      "duration": 0.0257,
      "velocity": 95,
      "chip": "ym2612"
    },
    {
      "channel": 4,
      "note": 69,
      "start": 45.3044,
      "duration": 0.0258,
      "velocity": 95,
      "chip": "ym2612"
    },
    {
      "channel": 0,
      "note": 77,
      "start": 45.329,
      "duration": 0.1485,
      "velocity": 86,
      "chip": "ym2612"
    },
    {
      "channel": 3,
      "note": 69,
      "start": 45.33,
      "duration": 0.3326,
      "velocity": 95,
      "chip": "ym2612"
    },
    {
      "channel": 4,
      "note": 65,
      "start": 45.3306,
      "duration": 0.3326,
      "velocity": 95,
      "chip": "ym2612"
    },
    {
      "channel": 0,
      "note": 82,
      "start": 45.478,
      "duration": 0.0243,
      "velocity": 86,
      "chip": "ym2612"
    },
    {
      "channel": 0,
      "note": 81,
      "start": 45.5027,
      "duration": 0.1589,
      "velocity": 86,
      "chip": "ym2612"
    },
    {
      "channel": 0,
      "note": 79,
      "start": 45.662,
      "duration": 0.1832,
      "velocity": 86,
      "chip": "ym2612"
    },
    {
      "channel": 3,
      "note": 76,
      "start": 45.663,
      "duration": 0.1832,
      "velocity": 95,
      "chip": "ym2612"
    },
    {
      "channel": 4,
      "note": 72,
      "start": 45.6636,
      "duration": 0.1831,
      "velocity": 95,
      "chip": "ym2612"
    },
    {
      "channel": 0,
      "note": 77,
      "start": 45.8456,
      "duration": 0.1666,
      "velocity": 86,
      "chip": "ym2612"
    },
    {
      "channel": 3,
      "note": 77,
      "start": 45.8466,
      "duration": 0.1677,
      "velocity": 95,
      "chip": "ym2612"
    },
    {
      "channel": 4,
      "note": 74,
      "start": 45.8471,
      "duration": 0.1677,
      "velocity": 95,
      "chip": "ym2612"
    },
    {
      "channel": 0,
      "note": 79,
      "start": 46.0127,
      "duration": 2.5614,
      "velocity": 86,
      "chip": "ym2612"
    },
    {
      "channel": 1,
      "note": 84,
      "start": 46.0132,
      "duration": 2.561,
      "velocity": 105,
      "chip": "ym2612"
    },
    {
      "channel": 2,
      "note": 48,
      "start": 46.0141,
      "duration": 2.5604,
      "velocity": 90,
      "chip": "ym2612"
    },
    {
      "channel": 3,
      "note": 76,
      "start": 46.0146,
      "duration": 2.56,
      "velocity": 95,
      "chip": "ym2612"
    },
    {
      "channel": 4,
      "note": 72,
      "start": 46.0152,
      "duration": 2.5597,
      "velocity": 95,
      "chip": "ym2612"
    }
  ]
}