{
  "track_name": "19 - Last Battle",
  "duration_sec": 33.379,
  "sample_rate": 44100,
  "note_count": 564,
  "unique_pitches": 39,
  "pitch_range": 62,
  "avg_note_duration": 0.0644,
  "reconstruction_stats": {
    "notes_reconstructed": 564,
    "keyon_events": 564,
    "keyoff_events": 563,
    "orphan_keyons": 1,
    "unique_pitches": 39,
    "pitch_range": 62,
    "avg_duration_sec": 0.0644
  },
  "metadata": {
    "source": "P\\Panorama Cotton\\19 - Last Battle.vgm"
  },
  "notes": [
    {
      "channel": 4,
      "note": 64,
      "start": 0.004,
      "duration": 0.0045,
      "velocity": 112,
      "chip": "ym2612"
    },
    {
      "channel": 4,
      "note": 54,
      "start": 0.0086,
      "duration": 0.0029,
      "velocity": 112,
      "chip": "ym2612"
    },
    {
      "channel": 4,
      "note": 54,
      "start": 0.0115,
      "duration": 0.0025,
      "velocity": 112,
      "chip": "ym2612"
    },
    {
      "channel": 4,
      "note": 66,
      "start": 0.0141,
      "duration": 0.0027,
      "velocity": 112,
      "chip": "ym2612"
    },
    {
      "channel": 4,
      "note": 66,
      "start": 0.0168,
      "duration": 0.0036,
      "velocity": 112,
      "chip": "ym2612"
    },
    {
      "channel": 4,
      "note": 54,
      "start": 0.0204,
      "duration": 0.0025,
      "velocity": 112,
      "chip": "ym2612"
    },
    {
      "channel": 4,
      "note": 54,
      "start": 0.0229,
      "duration": 0.0028,
      "velocity": 112,
      "chip": "ym2612"
    },
    {
      "channel": 4,
      "note": 66,
      "start": 0.0258,
      "duration": 0.0025,
      "velocity": 112,
      "chip": "ym2612"
    },
    {
      "channel": 4,
      "note": 66,
      "start": 0.0283,
      "duration": 0.0029,
      "velocity": 112,
      "chip": "ym2612"
    },
    {
      "channel": 4,
      "note": 54,
      "start": 0.0312,
      "duration": 0.0028,
      "velocity": 112,
      "chip": "ym2612"
    },
    {
      "channel": 4,
      "note": 54,
      "start": 0.034,
      "duration": 0.0024,
      "velocity": 112,
      "chip": "ym2612"
    },
    {
      "channel": 4,
      "note": 66,
      "start": 0.0364,
      "duration": 0.0032,
      "velocity": 112,
      "chip": "ym2612"
    },
    {
      "channel": 4,
      "note": 66,
      "start": 0.0397,
      "duration": 0.0037,
      "velocity": 112,
      "chip": "ym2612"
    },
    {
      "channel": 4,
      "note": 54,
      "start": 0.0434,
      "duration": 0.0024,
      "velocity": 112,
      "chip": "ym2612"
    },
    {
      "channel": 4,
      "note": 54,
      "start": 0.0459,
      "duration": 0.0027,
      "velocity": 112,
      "chip": "ym2612"
    },
    {
      "channel": 4,
      "note": 66,
      "start": 0.0486,
      "duration": 0.0029,
      "velocity": 112,
      "chip": "ym2612"
    },
    {
      "channel": 4,
      "note": 66,
      "start": 0.0515,
      "duration": 0.0034,
      "velocity": 112,
      "chip": "ym2612"
    },
    {
      "channel": 4,
      "note": 54,
      "start": 0.055,
      "duration": 0.0028,
      "velocity": 112,
      "chip": "ym2612"
    },
    {
      "channel": 4,
      "note": 54,
      "start": 0.0578,
      "duration": 0.0024,
      "velocity": 112,
      "chip": "ym2612"
    },
    {
      "channel": 4,
      "note": 66,
      "start": 0.0604,
      "duration": 0.0029,
      "velocity": 112,
      "chip": "ym2612"
    },
    {
      "channel": 4,
      "note": 66,
      "start": 0.0633,
      "duration": 0.0037,
      "velocity": 112,
      "chip": "ym2612"
    },
    {
      "channel": 4,
      "note": 54,
      "start": 0.0671,
      "duration": 0.0024,
      "velocity": 112,
      "chip": "ym2612"
    },
    {
      "channel": 4,
      "note": 54,
      "start": 0.0695,
      "duration": 0.0032,
      "velocity": 112,
      "chip": "ym2612"
    },
    {
      "channel": 4,
      "note": 66,
      "start": 0.0728,
      "duration": 0.003,
      "velocity": 112,
      "chip": "ym2612"
    },
    {
      "channel": 4,
      "note": 66,
      "start": 0.0758,
      "duration": 0.0031,
      "velocity": 112,
      "chip": "ym2612"
    },
    {
      "channel": 4,
      "note": 54,
      "start": 0.079,
      "duration": 0.0029,
      "velocity": 112,
      "chip": "ym2612"
    },
    {
      "channel": 4,
      "note": 54,
      "start": 0.0819,
      "duration": 0.0024,
      "velocity": 112,
      "chip": "ym2612"
    },
    {
      "channel": 4,
      "note": 66,
      "start": 0.0843,
      "duration": 0.0033,
      "velocity": 112,
      "chip": "ym2612"
    },
    {
      "channel": 4,
      "note": 66,
      "start": 0.0876,
      "duration": 0.0036,
      "velocity": 112,
      "chip": "ym2612"
    },
    {
      "channel": 4,
      "note": 54,
      "start": 0.0912,
      "duration": 0.0024,
      "velocity": 112,
      "chip": "ym2612"
    },
    {
      "channel": 4,
      "note": 54,
      "start": 0.0936,
      "duration": 0.0025,
      "velocity": 112,
      "chip": "ym2612"
    },
    {
      "channel": 4,
      "note": 66,
      "start": 0.0961,
      "duration": 0.0037,
      "velocity": 112,
      "chip": "ym2612"
    },
    {
      "channel": 3,
      "note": 64,
      "start": 0.0996,
      "duration": 0.0076,
      "velocity": 106,
      "chip": "ym2612"
    },
    {
      "channel": 4,
      "note": 66,
      "start": 0.0999,
      "duration": 0.0044,
      "velocity": 112,
      "chip": "ym2612"
    },
    {
      "channel": 1,
      "note": 53,
      "start": 0.1017,
      "duration": 0.0067,
      "velocity": 106,
      "chip": "ym2612"
    },
    {
      "channel": 2,
      "note": 64,
      "start": 0.104,
      "duration": 0.0057,
      "velocity": 106,
      "chip": "ym2612"
    },
    {
      "channel": 4,
      "note": 54,
      "start": 0.1043,
      "duration": 0.0031,
      "velocity": 112,
      "chip": "ym2612"
    },
    {
      "channel": 0,
      "note": 35,
      "start": 0.1054,
      "duration": 0.0055,
      "velocity": 106,
      "chip": "ym2612"
    },
    {
      "channel": 3,
      "note": 54,
      "start": 0.1072,
      "duration": 0.0063,
      "velocity": 106,
      "chip": "ym2612"
    },
    {
      "channel": 4,
      "note": 54,
      "start": 0.1074,
      "duration": 0.0026,
      "velocity": 112,
      "chip": "ym2612"
    },
    {
      "channel": 1,
      "note": 54,
      "start": 0.1085,
      "duration": 0.0071,
      "velocity": 106,
      "chip": "ym2612"
    },
    {
      "channel": 2,
      "note": 64,
      "start": 0.1098,
      "duration": 0.0079,
      "velocity": 106,
      "chip": "ym2612"
    },
    {
      "channel": 4,
      "note": 66,
      "start": 0.11,
      "duration": 0.0037,
      "velocity": 112,
      "chip": "ym2612"
    },
    {
      "channel": 0,
      "note": 64,
      "start": 0.1109,
      "duration": 0.0078,
      "velocity": 106,
      "chip": "ym2612"
    },
    {
      "channel": 3,
      "note": 57,
      "start": 0.1135,
      "duration": 0.0069,
      "velocity": 106,
      "chip": "ym2612"
    },
    {
      "channel": 4,
      "note": 66,
      "start": 0.1138,
      "duration": 0.0041,
      "velocity": 112,
      "chip": "ym2612"
    },
    {
      "channel": 1,
      "note": 57,
      "start": 0.1157,
      "duration": 0.0061,
      "velocity": 106,
      "chip": "ym2612"
    },
    {
      "channel": 2,
      "note": 68,
      "start": 0.1176,
      "duration": 0.0063,
      "velocity": 106,
      "chip": "ym2612"
    },
    {
      "channel": 4,
      "note": 54,
      "start": 0.1179,
      "duration": 0.0027,
      "velocity": 112,
      "chip": "ym2612"
    },
    {
      "channel": 0,
      "note": 68,
      "start": 0.1187,
      "duration": 0.0064,
      "velocity": 106,
      "chip": "ym2612"
    },
    {
      "channel": 3,
      "note": 69,
      "start": 0.1204,
      "duration": 0.0083,
      "velocity": 106,
      "chip": "ym2612"
    },
    {
      "channel": 4,
      "note": 54,
      "start": 0.1207,
      "duration": 0.0036,
      "velocity": 112,
      "chip": "ym2612"
    },
    {
      "channel": 1,
      "note": 69,
      "start": 0.1218,
      "duration": 0.0086,
      "velocity": 106,
      "chip": "ym2612"
    },
    {
      "channel": 2,
      "note": 68,
      "start": 0.1239,
      "duration": 0.0084,
      "velocity": 106,
      "chip": "ym2612"
    },
    {
      "channel": 4,
      "note": 66,
      "start": 0.1243,
      "duration": 0.0048,
      "velocity": 112,
      "chip": "ym2612"
    },
    {
      "channel": 0,
      "note": 68,
      "start": 0.1252,
      "duration": 0.0084,
      "velocity": 106,
      "chip": "ym2612"
    },
    {
      "channel": 3,
      "note": 59,
      "start": 0.1288,
      "duration": 0.0072,
      "velocity": 106,
      "chip": "ym2612"
    },
    {
      "channel": 4,
      "note": 66,
      "start": 0.1291,
      "duration": 0.0036,
      "velocity": 112,
      "chip": "ym2612"
    },
    {
      "channel": 1,
      "note": 59,
      "start": 0.1305,
      "duration": 0.0066,
      "velocity": 106,
      "chip": "ym2612"
    },
    {
      "channel": 2,
      "note": 61,
      "start": 0.1324,
      "duration": 0.0064,
      "velocity": 106,
      "chip": "ym2612"
    },
    {
      "channel": 4,
      "note": 54,
      "start": 0.1327,
      "duration": 0.0035,
      "velocity": 112,
      "chip": "ym2612"
    },
    {
      "channel": 0,
      "note": 61,
      "start": 0.1336,
      "duration": 0.0065,
      "velocity": 106,
      "chip": "ym2612"
    },
    {
      "channel": 3,
      "note": 54,
      "start": 0.136,
      "duration": 0.0061,
      "velocity": 106,
      "chip": "ym2612"
    },
    {
      "channel": 4,
      "note": 54,
      "start": 0.1362,
      "duration": 0.0029,
      "velocity": 112,
      "chip": "ym2612"
    },
    {
      "channel": 1,
      "note": 54,
      "start": 0.1372,
      "duration": 0.0067,
      "velocity": 106,
      "chip": "ym2612"
    },
    {
      "channel": 2,
      "note": 64,
      "start": 0.1389,
      "duration": 0.0071,
      "velocity": 106,
      "chip": "ym2612"
    },
    {
      "channel": 4,
      "note": 66,
      "start": 0.1392,
      "duration": 0.0031,
      "velocity": 112,
      "chip": "ym2612"
    },
    {
      "channel": 0,
      "note": 64,
      "start": 0.1401,
      "duration": 0.007,
      "velocity": 106,
      "chip": "ym2612"
    },
    {
      "channel": 3,
      "note": 57,
      "start": 0.1421,
      "duration": 0.0066,
      "velocity": 106,
      "chip": "ym2612"
    },
    {
      "channel": 4,
      "note": 66,
      "start": 0.1424,
      "duration": 0.0038,
      "velocity": 112,
      "chip": "ym2612"
    },
    {
      "channel": 1,
      "note": 57,
      "start": 0.144,
      "duration": 0.0059,
      "velocity": 106,
      "chip": "ym2612"
    },
    {
      "channel": 2,
      "note": 68,
      "start": 0.1459,
      "duration": 0.0059,
      "velocity": 106,
      "chip": "ym2612"
    },
    {
      "channel": 4,
      "note": 54,
      "start": 0.1461,
      "duration": 0.0028,
      "velocity": 112,
      "chip": "ym2612"
    },
    {
      "channel": 0,
      "note": 68,
      "start": 0.1471,
      "duration": 0.0059,
      "velocity": 106,
      "chip": "ym2612"
    },
    {
      "channel": 3,
      "note": 69,
      "start": 0.1488,
      "duration": 0.008,
      "velocity": 106,
      "chip": "ym2612"
    },
    {
      "channel": 4,
      "note": 54,
      "start": 0.149,
      "duration": 0.0031,
      "velocity": 112,
      "chip": "ym2612"
    },
    {
      "channel": 1,
      "note": 69,
      "start": 0.1499,
      "duration": 0.0087,
      "velocity": 106,
      "chip": "ym2612"
    },
    {
      "channel": 2,
      "note": 68,
      "start": 0.1518,
      "duration": 0.0088,
      "velocity": 106,
      "chip": "ym2612"
    },
    {
      "channel": 4,
      "note": 66,
      "start": 0.1521,
      "duration": 0.0049,
      "velocity": 112,
      "chip": "ym2612"
    },
    {
      "channel": 0,
      "note": 68,
      "start": 0.153,
      "duration": 0.0087,
      "velocity": 106,
      "chip": "ym2612"
    },
    {
      "channel": 3,
      "note": 59,
      "start": 0.1568,
      "duration": 0.0071,
      "velocity": 106,
      "chip": "ym2612"
    },
    {
      "channel": 4,
      "note": 66,
      "start": 0.1571,
      "duration": 0.0038,
      "velocity": 112,
      "chip": "ym2612"
    },
    {
      "channel": 1,
      "note": 59,
      "start": 0.1587,
      "duration": 0.0064,
      "velocity": 106,
      "chip": "ym2612"
    },
    {
      "channel": 2,
      "note": 61,
      "start": 0.1607,
      "duration": 0.0059,
      "velocity": 106,
      "chip": "ym2612"
    },
    {
      "channel": 4,
      "note": 54,
      "start": 0.1609,
      "duration": 0.0032,
      "velocity": 112,
      "chip": "ym2612"
    },
    {
      "channel": 0,
      "note": 61,
      "start": 0.1618,
      "duration": 0.0061,
      "velocity": 106,
      "chip": "ym2612"
    },
    {
      "channel": 3,
      "note": 54,
      "start": 0.1639,
      "duration": 0.0059,
      "velocity": 106,
      "chip": "ym2612"
    },
    {
      "channel": 4,
      "note": 54,
      "start": 0.1642,
      "duration": 0.0027,
      "velocity": 112,
      "chip": "ym2612"
    },
    {
      "channel": 1,
      "note": 54,
      "start": 0.1651,
      "duration": 0.0064,
      "velocity": 106,
      "chip": "ym2612"
    },
    {
      "channel": 2,
      "note": 64,
      "start": 0.1666,
      "duration": 0.0069,
      "velocity": 106,
      "chip": "ym2612"
    },
    {
      "channel": 4,
      "note": 66,
      "start": 0.1668,
      "duration": 0.0032,
      "velocity": 112,
      "chip": "ym2612"
    },
    {
      "channel": 0,
      "note": 64,
      "start": 0.1678,
      "duration": 0.007,
      "velocity": 106,
      "chip": "ym2612"
    },
    {
      "channel": 3,
      "note": 57,
      "start": 0.1699,
      "duration": 0.0068,
      "velocity": 106,
      "chip": "ym2612"
    },
    {
      "channel": 4,
      "note": 66,
      "start": 0.1701,
      "duration": 0.0037,
      "velocity": 112,
      "chip": "ym2612"
    },
    {
      "channel": 1,
      "note": 57,
      "start": 0.1716,
      "duration": 0.0063,
      "velocity": 106,
      "chip": "ym2612"
    },
    {
      "channel": 2,
      "note": 68,
      "start": 0.1736,
      "duration": 0.0064,
      "velocity": 106,
      "chip": "ym2612"
    },
    {
      "channel": 4,
      "note": 54,
      "start": 0.1738,
      "duration": 0.0031,
      "velocity": 112,
      "chip": "ym2612"
    },
    {
      "channel": 0,
      "note": 68,
      "start": 0.1749,
      "duration": 0.0061,
      "velocity": 106,
      "chip": "ym2612"
    },
    {
      "channel": 3,
      "note": 69,
      "start": 0.1767,
      "duration": 0.0078,
      "velocity": 106,
      "chip": "ym2612"
    },
    {
      "channel": 4,
      "note": 54,
      "start": 0.1769,
      "duration": 0.0033,
      "velocity": 112,
      "chip": "ym2612"
    },
    {
      "channel": 1,
      "note": 69,
      "start": 0.178,
      "duration": 0.0081,
      "velocity": 106,
      "chip": "ym2612"
    },
    {
      "channel": 2,
      "note": 68,
      "start": 0.18,
      "duration": 0.008,
      "velocity": 106,
      "chip": "ym2612"
    },
    {
      "channel": 4,
      "note": 66,
      "start": 0.1802,
      "duration": 0.0045,
      "velocity": 112,
      "chip": "ym2612"
    },
    {
      "channel": 0,
      "note": 68,
      "start": 0.181,
      "duration": 0.0082,
      "velocity": 106,
      "chip": "ym2612"
    },
    {
      "channel": 3,
      "note": 59,
      "start": 0.1845,
      "duration": 0.0068,
      "velocity": 106,
      "chip": "ym2612"
    },
    {
      "channel": 4,
      "note": 66,
      "start": 0.1847,
      "duration": 0.0036,
      "velocity": 112,
      "chip": "ym2612"
    },
    {
      "channel": 1,
      "note": 59,
      "start": 0.1862,
      "duration": 0.0063,
      "velocity": 106,
      "chip": "ym2612"
    },
    {
      "channel": 2,
      "note": 61,
      "start": 0.188,
      "duration": 0.006,
      "velocity": 106,
      "chip": "ym2612"
    },
    {
      "channel": 4,
      "note": 54,
      "start": 0.1883,
      "duration": 0.0032,
      "velocity": 112,
      "chip": "ym2612"
    },
    {
      "channel": 0,
      "note": 61,
      "start": 0.1893,
      "duration": 0.0059,
      "velocity": 106,
      "chip": "ym2612"
    },
    {
      "channel": 3,
      "note": 54,
      "start": 0.1913,
      "duration": 0.0058,
      "velocity": 106,
      "chip": "ym2612"
    },
    {
      "channel": 4,
      "note": 54,
      "start": 0.1915,
      "duration": 0.0028,
      "velocity": 112,
      "chip": "ym2612"
    },
    {
      "channel": 1,
      "note": 54,
      "start": 0.1925,
      "duration": 0.0067,
      "velocity": 106,
      "chip": "ym2612"
    },
    {
      "channel": 2,
      "note": 64,
      "start": 0.194,
      "duration": 0.0073,
      "velocity": 106,
      "chip": "ym2612"
    },
    {
      "channel": 4,
      "note": 66,
      "start": 0.1943,
      "duration": 0.003,
      "velocity": 112,
      "chip": "ym2612"
    },
    {
      "channel": 0,
      "note": 64,
      "start": 0.1952,
      "duration": 0.0073,
      "velocity": 106,
      "chip": "ym2612"
    },
    {
      "channel": 3,
      "note": 57,
      "start": 0.1971,
      "duration": 0.0071,
      "velocity": 106,
      "chip": "ym2612"
    },
    {
      "channel": 4,
      "note": 66,
      "start": 0.1973,
      "duration": 0.0042,
      "velocity": 112,
      "chip": "ym2612"
    },
    {
      "channel": 1,
      "note": 57,
      "start": 0.1993,
      "duration": 0.006,
      "velocity": 106,
      "chip": "ym2612"
    },
    {
      "channel": 2,
      "note": 68,
      "start": 0.2013,
      "duration": 0.006,
      "velocity": 106,
      "chip": "ym2612"
    },
    {
      "channel": 4,
      "note": 54,
      "start": 0.2015,
      "duration": 0.0029,
      "velocity": 112,
      "chip": "ym2612"
    },
    {
      "channel": 0,
      "note": 68,
      "start": 0.2026,
      "duration": 0.0059,
      "velocity": 106,
      "chip": "ym2612"
    },
    {
      "channel": 3,
      "note": 69,
      "start": 0.2042,
      "duration": 0.0063,
      "velocity": 106,
      "chip": "ym2612"
    },
    {
      "channel": 4,
      "note": 54,
      "start": 0.2044,
      "duration": 0.0032,
      "velocity": 112,
      "chip": "ym2612"
    },
    {
      "channel": 1,
      "note": 69,
      "start": 0.2054,
      "duration": 0.0063,
      "velocity": 106,
      "chip": "ym2612"
    },
    {
      "channel": 2,
      "note": 68,
      "start": 0.2073,
      "duration": 0.0061,
      "velocity": 106,
      "chip": "ym2612"
    },
    {
      "channel": 4,
      "note": 66,
      "start": 0.2076,
      "duration": 0.003,
      "velocity": 112,
      "chip": "ym2612"
    },
    {
      "channel": 0,
      "note": 68,
      "start": 0.2085,
      "duration": 0.0062,
      "velocity": 106,
      "chip": "ym2612"
    },
    {
      "channel": 3,
      "note": 59,
      "start": 0.2105,
      "duration": 0.0067,
      "velocity": 106,
      "chip": "ym2612"
    },
    {
      "channel": 4,
      "note": 66,
      "start": 0.2107,
      "duration": 0.0029,
      "velocity": 112,
      "chip": "ym2612"
    },
    {
      "channel": 1,
      "note": 59,
      "start": 0.2116,
      "duration": 0.0069,
      "velocity": 106,
      "chip": "ym2612"
    },
    {
      "channel": 2,
      "note": 61,
      "start": 0.2134,
      "duration": 0.0066,
      "velocity": 106,
      "chip": "ym2612"
    },
    {
      "channel": 4,
      "note": 54,
      "start": 0.2137,
      "duration": 0.0038,
      "velocity": 112,
      "chip": "ym2612"
    },
    {
      "channel": 0,
      "note": 61,
      "start": 0.2148,
      "duration": 0.0067,
      "velocity": 106,
      "chip": "ym2612"
    },
    {
      "channel": 3,
      "note": 54,
      "start": 0.2173,
      "duration": 0.0063,
      "velocity": 106,
      "chip": "ym2612"
    },
    {
      "channel": 4,
      "note": 54,
      "start": 0.2174,
      "duration": 0.003,
      "velocity": 112,
      "chip": "ym2612"
    },
    {
      "channel": 1,
      "note": 54,
      "start": 0.2186,
      "duration": 0.007,
      "velocity": 106,
      "chip": "ym2612"
    },
    {
      "channel": 2,
      "note": 64,
      "start": 0.2201,
      "duration": 0.0076,
      "velocity": 106,
      "chip": "ym2612"
    },
    {
      "channel": 4,
      "note": 66,
      "start": 0.2204,
      "duration": 0.0034,
      "velocity": 112,
      "chip": "ym2612"
    },
    {
      "channel": 0,
      "note": 64,
      "start": 0.2215,
      "duration": 0.0076,
      "velocity": 106,
      "chip": "ym2612"
    },
    {
      "channel": 3,
      "note": 57,
      "start": 0.2236,
      "duration": 0.0071,
      "velocity": 106,
      "chip": "ym2612"
    },
    {
      "channel": 4,
      "note": 66,
      "start": 0.2238,
      "duration": 0.0042,
      "velocity": 112,
      "chip": "ym2612"
    },
    {
      "channel": 1,
      "note": 57,
      "start": 0.2257,
      "duration": 0.0066,
      "velocity": 106,
      "chip": "ym2612"
    },
    {
      "channel": 2,
      "note": 68,
      "start": 0.2278,
      "duration": 0.0063,
      "velocity": 106,
      "chip": "ym2612"
    },
    {
      "channel": 4,
      "note": 54,
      "start": 0.228,
      "duration": 0.003,
      "velocity": 112,
      "chip": "ym2612"
    },
    {
      "channel": 0,
      "note": 68,
      "start": 0.229,
      "duration": 0.0065,
      "velocity": 106,
      "chip": "ym2612"
    },
    {
      "channel": 3,
      "note": 69,
      "start": 0.2308,
      "duration": 0.0082,
      "velocity": 106,
      "chip": "ym2612"
    },
    {
      "channel": 4,
      "note": 54,
      "start": 0.231,
      "duration": 0.0033,
      "velocity": 112,
      "chip": "ym2612"
    },
    {
      "channel": 1,
      "note": 69,
      "start": 0.2323,
      "duration": 0.0087,
      "velocity": 106,
      "chip": "ym2612"
    },
    {
      "channel": 2,
      "note": 68,
      "start": 0.2341,
      "duration": 0.0088,
      "velocity": 106,
      "chip": "ym2612"
    },
    {
      "channel": 4,
      "note": 66,
      "start": 0.2344,
      "duration": 0.0048,
      "velocity": 112,
      "chip": "ym2612"
    },
    {
      "channel": 0,
      "note": 68,
      "start": 0.2355,
      "duration": 0.0087,
      "velocity": 106,
      "chip": "ym2612"
    },
    {
      "channel": 3,
      "note": 59,
      "start": 0.239,
      "duration": 0.0074,
      "velocity": 106,
      "chip": "ym2612"
    },
    {
      "channel": 4,
      "note": 66,
      "start": 0.2393,
      "duration": 0.0039,
      "velocity": 112,
      "chip": "ym2612"
    },
    {
      "channel": 1,
      "note": 59,
      "start": 0.241,
      "duration": 0.007,
      "velocity": 106,
      "chip": "ym2612"
    },
    {
      "channel": 2,
      "note": 61,
      "start": 0.2429,
      "duration": 0.0067,
      "velocity": 106,
      "chip": "ym2612"
    },
    {
      "channel": 4,
      "note": 54,
      "start": 0.2432,
      "duration": 0.0034,
      "velocity": 112,
      "chip": "ym2612"
    },
    {
      "channel": 0,
      "note": 61,
      "start": 0.2442,
      "duration": 0.0068,
      "velocity": 106,
      "chip": "ym2612"
    },
    {
      "channel": 3,
      "note": 54,
      "start": 0.2464,
      "duration": 0.0069,
      "velocity": 106,
      "chip": "ym2612"
    },
    {
      "channel": 4,
      "note": 54,
      "start": 0.2467,
      "duration": 0.0031,
      "velocity": 112,
      "chip": "ym2612"
    },
    {
      "channel": 1,
      "note": 54,
      "start": 0.2481,
      "duration": 0.0074,
      "velocity": 106,
      "chip": "ym2612"
    },
    {
      "channel": 2,
      "note": 64,
      "start": 0.2496,
      "duration": 0.0078,
      "velocity": 106,
      "chip": "ym2612"
    },
    {
      "channel": 4,
      "note": 66,
      "start": 0.2499,
      "duration": 0.0037,
      "velocity": 112,
      "chip": "ym2612"
    },
    {
      "channel": 0,
      "note": 64,
      "start": 0.2511,
      "duration": 0.0075,
      "velocity": 106,
      "chip": "ym2612"
    },
    {
      "channel": 3,
      "note": 57,
      "start": 0.2534,
      "duration": 0.0068,
      "velocity": 106,
      "chip": "ym2612"
    },
    {
      "channel": 4,
      "note": 66,
      "start": 0.2536,
      "duration": 0.0041,
      "velocity": 112,
      "chip": "ym2612"
    },
    {
      "channel": 1,
      "note": 57,
      "start": 0.2555,
      "duration": 0.006,
      "velocity": 106,
      "chip": "ym2612"
    },
    {
      "channel": 2,
      "note": 68,
      "start": 0.2575,
      "duration": 0.0059,
      "velocity": 106,
      "chip": "ym2612"
    },
    {
      "channel": 4,
      "note": 54,
      "start": 0.2577,
      "duration": 0.0028,
      "velocity": 112,
      "chip": "ym2612"
    },
    {
      "channel": 0,
      "note": 68,
      "start": 0.2586,
      "duration": 0.0061,
      "velocity": 106,
      "chip": "ym2612"
    },
    {
      "channel": 3,
      "note": 69,
      "start": 0.2603,
      "duration": 0.008,
      "velocity": 106,
      "chip": "ym2612"
    },
    {
      "channel": 4,
      "note": 54,
      "start": 0.2605,
      "duration": 0.0032,
      "velocity": 112,
      "chip": "ym2612"
    },
    {
      "channel": 1,
      "note": 69,
      "start": 0.2615,
      "duration": 0.0088,
      "velocity": 106,
      "chip": "ym2612"
    },
    {
      "channel": 2,
      "note": 68,
      "start": 0.2634,
      "duration": 0.0086,
      "velocity": 106,
      "chip": "ym2612"
    },
    {
      "channel": 4,
      "note": 66,
      "start": 0.2638,
      "duration": 0.0048,
      "velocity": 112,
      "chip": "ym2612"
    },
    {
      "channel": 0,
      "note": 68,
      "start": 0.2647,
      "duration": 0.0084,
      "velocity": 106,
      "chip": "ym2612"
    },
    {
      "channel": 3,
      "note": 59,
      "start": 0.2683,
      "duration": 0.0072,
      "velocity": 106,
      "chip": "ym2612"
    },
    {
      "channel": 4,
      "note": 66,
      "start": 0.2685,
      "duration": 0.0038,
      "velocity": 112,
      "chip": "ym2612"
    },
    {
      "channel": 1,
      "note": 59,
      "start": 0.2702,
      "duration": 0.0092,
      "velocity": 106,
      "chip": "ym2612"
    },
    {
      "channel": 2,
      "note": 61,
      "start": 0.2721,
      "duration": 0.009,
      "velocity": 106,
      "chip": "ym2612"
    },
    {
      "channel": 4,
      "note": 54,
      "start": 0.2723,
      "duration": 0.0033,
      "velocity": 112,
      "chip": "ym2612"
    },
    {
      "channel": 0,
      "note": 61,
      "start": 0.2732,
      "duration": 0.0093,
      "velocity": 106,
      "chip": "ym2612"
    },
    {
      "channel": 3,
      "note": 54,
      "start": 0.2755,
      "duration": 0.0093,
      "velocity": 106,
      "chip": "ym2612"
    },
    {
      "channel": 4,
      "note": 54,
      "start": 0.2757,
      "duration": 0.0057,
      "velocity": 112,
      "chip": "ym2612"
    },
    {
      "channel": 1,
      "note": 54,
      "start": 0.2795,
      "duration": 0.009,
      "velocity": 106,
      "chip": "ym2612"
    },
    {
      "channel": 2,
      "note": 64,
      "start": 0.2811,
      "duration": 0.0096,
      "velocity": 106,
      "chip": "ym2612"
    },
    {
      "channel": 4,
      "note": 66,
      "start": 0.2815,
      "duration": 0.0035,
      "velocity": 112,
      "chip": "ym2612"
    },
    {
      "channel": 0,
      "note": 64,
      "start": 0.2825,
      "duration": 0.0095,
      "velocity": 106,
      "chip": "ym2612"
    },
    {
      "channel": 3,
      "note": 57,
      "start": 0.2848,
      "duration": 0.0089,
      "velocity": 106,
      "chip": "ym2612"
    },
    {
      "channel": 4,
      "note": 66,
      "start": 0.2851,
      "duration": 0.0059,
      "velocity": 112,
      "chip": "ym2612"
    },
    {
      "channel": 1,
      "note": 57,
      "start": 0.2886,
      "duration": 0.0068,
      "velocity": 106,
      "chip": "ym2612"
    },
    {
      "channel": 2,
      "note": 68,
      "start": 0.2907,
      "duration": 0.007,
      "velocity": 106,
      "chip": "ym2612"
    },
    {
      "channel": 4,
      "note": 66,
      "start": 0.291,
      "duration": 0.0029,
      "velocity": 112,
      "chip": "ym2612"
    },
    {
      "channel": 0,
      "note": 68,
      "start": 0.292,
      "duration": 0.0069,
      "velocity": 106,
      "chip": "ym2612"
    },
    {
      "channel": 3,
      "note": 69,
      "start": 0.2937,
      "duration": 0.0077,
      "velocity": 106,
      "chip": "ym2612"
    },
    {
      "channel": 4,
      "note": 66,
      "start": 0.294,
      "duration": 0.004,
      "velocity": 112,
      "chip": "ym2612"
    },
    {
      "channel": 1,
      "note": 69,
      "start": 0.2955,
      "duration": 0.0087,
      "velocity": 106,
      "chip": "ym2612"
    },
    {
      "channel": 2,
      "note": 68,
      "start": 0.2977,
      "duration": 0.0085,
      "velocity": 106,
      "chip": "ym2612"
    },
    {
      "channel": 4,
      "note": 54,
      "start": 0.298,
      "duration": 0.0036,
      "velocity": 112,
      "chip": "ym2612"
    },
    {
      "channel": 0,
      "note": 68,
      "start": 0.299,
      "duration": 0.0087,
      "velocity": 106,
      "chip": "ym2612"
    },
    {
      "channel": 3,
      "note": 59,
      "start": 0.3015,
      "duration": 0.0084,
      "velocity": 106,
      "chip": "ym2612"
    },
    {
      "channel": 4,
      "note": 54,
      "start": 0.3017,
      "duration": 0.0048,
      "velocity": 112,
      "chip": "ym2612"
    },
    {
      "channel": 1,
      "note": 59,
      "start": 0.3043,
      "duration": 0.0091,
      "velocity": 106,
      "chip": "ym2612"
    },
    {
      "channel": 2,
      "note": 61,
      "start": 0.3063,
      "duration": 0.0087,
      "velocity": 106,
      "chip": "ym2612"
    },
    {
      "channel": 4,
      "note": 54,
      "start": 0.3065,
      "duration": 0.0036,
      "velocity": 112,
      "chip": "ym2612"
    },
    {
      "channel": 0,
      "note": 61,
      "start": 0.3077,
      "duration": 0.0088,
      "velocity": 106,
      "chip": "ym2612"
    },
    {
      "channel": 3,
      "note": 54,
      "start": 0.3099,
      "duration": 0.0088,
      "velocity": 106,
      "chip": "ym2612"
    },
    {
      "channel": 4,
      "note": 54,
      "start": 0.3101,
      "duration": 0.0052,
      "velocity": 112,
      "chip": "ym2612"
    },
    {
      "channel": 1,
      "note": 54,
      "start": 0.3134,
      "duration": 0.0073,
      "velocity": 106,
      "chip": "ym2612"
    },
    {
      "channel": 2,
      "note": 64,
      "start": 0.315,
      "duration": 0.0081,
      "velocity": 106,
      "chip": "ym2612"
    },
    {
      "channel": 4,
      "note": 54,
      "start": 0.3153,
      "duration": 0.0036,
      "velocity": 112,
      "chip": "ym2612"
    },
    {
      "channel": 0,
      "note": 64,
      "start": 0.3165,
      "duration": 0.0083,
      "velocity": 106,
      "chip": "ym2612"
    },
    {
      "channel": 3,
      "note": 57,
      "start": 0.3187,
      "duration": 0.0076,
      "velocity": 106,
      "chip": "ym2612"
    },
    {
      "channel": 4,
      "note": 54,
      "start": 0.3189,
      "duration": 0.0044,
      "velocity": 112,
      "chip": "ym2612"
    },
    {
      "channel": 1,
      "note": 57,
      "start": 0.3208,
      "duration": 0.0072,
      "velocity": 106,
      "chip": "ym2612"
    },
    {
      "channel": 2,
      "note": 68,
      "start": 0.323,
      "duration": 0.007,
      "velocity": 106,
      "chip": "ym2612"
    },
    {
      "channel": 4,
      "note": 66,
      "start": 0.3233,
      "duration": 0.0032,
      "velocity": 112,
      "chip": "ym2612"
    },
    {
      "channel": 0,
      "note": 68,
      "start": 0.3248,
      "duration": 0.0072,
      "velocity": 106,
      "chip": "ym2612"
    },
    {
      "channel": 3,
      "note": 69,
      "start": 0.3263,
      "duration": 0.0083,
      "velocity": 106,
      "chip": "ym2612"
    },
    {
      "channel": 4,
      "note": 66,
      "start": 0.3266,
      "duration": 0.0037,
      "velocity": 112,
      "chip": "ym2612"
    },
    {
      "channel": 1,
      "note": 69,
      "start": 0.3281,
      "duration": 0.0061,
      "velocity": 106,
      "chip": "ym2612"
    },
    {
      "channel": 2,
      "note": 68,
      "start": 0.3301,
      "duration": 0.0043,
      "velocity": 106,
      "chip": "ym2612"
    },
    {
      "channel": 4,
      "note": 66,
      "start": 0.3304,
      "duration": 0.0049,
      "velocity": 112,
      "chip": "ym2612"
    },
    {
      "channel": 0,
      "note": 68,
      "start": 0.332,
      "duration": 0.002,
      "velocity": 106,
      "chip": "ym2612"
    },
    {
      "channel": 3,
      "note": 59,
      "start": 0.335,
      "duration": 0.0195,
      "velocity": 96,
      "chip": "ym2612"
    },
    {
      "channel": 4,
      "note": 66,
      "start": 0.3352,
      "duration": 0.0076,
      "velocity": 112,
      "chip": "ym2612"
    },
    {
      "channel": 1,
      "note": 59,
      "start": 0.3411,
      "duration": 0.0181,
      "velocity": 96,
      "chip": "ym2612"
    },
    {
      "channel": 4,
      "note": 54,
      "start": 0.3428,
      "duration": 0.0058,
      "velocity": 112,
      "chip": "ym2612"
    },
    {
      "channel": 4,
      "note": 54,
      "start": 0.3486,
      "duration": 0.0062,
      "velocity": 112,
      "chip": "ym2612"
    },
    {
      "channel": 3,
      "note": 81,
      "start": 0.3546,
      "duration": 0.0202,
      "velocity": 96,
      "chip": "ym2612"
    },
    {
      "channel": 4,
      "note": 54,
      "start": 0.3549,
      "duration": 0.0069,
      "velocity": 112,
      "chip": "ym2612"
    },
    {
      "channel": 1,
      "note": 81,
      "start": 0.3592,
      "duration": 0.0206,
      "velocity": 96,
      "chip": "ym2612"
    },
    {
      "channel": 4,
      "note": 54,
      "start": 0.3619,
      "duration": 0.0067,
      "velocity": 112,
      "chip": "ym2612"
    },
    {
      "channel": 4,
      "note": 54,
      "start": 0.3686,
      "duration": 0.0065,
      "velocity": 112,
      "chip": "ym2612"
    },
    {
      "channel": 4,
      "note": 54,
      "start": 0.3751,
      "duration": 0.0066,
      "velocity": 112,
      "chip": "ym2612"
    },
    {
      "channel": 3,
      "note": 78,
      "start": 0.3815,
      "duration": 0.0048,
      "velocity": 96,
      "chip": "ym2612"
    },
    {
      "channel": 4,
      "note": 54,
      "start": 0.3818,
      "duration": 0.0067,
      "velocity": 112,
      "chip": "ym2612"
    },
    {
      "channel": 1,
      "note": 78,
      "start": 0.3861,
      "duration": 0.0058,
      "velocity": 96,
      "chip": "ym2612"
    },
    {
      "channel": 3,
      "note": 73,
      "start": 0.3882,
      "duration": 0.0053,
      "velocity": 96,
      "chip": "ym2612"
    },
    {
      "channel": 4,
      "note": 54,
      "start": 0.3886,
      "duration": 0.0065,
      "velocity": 112,
      "chip": "ym2612"
    },
    {
      "channel": 1,
      "note": 73,
      "start": 0.3934,
      "duration": 0.0039,
      "velocity": 96,
      "chip": "ym2612"
    },
    {
      "channel": 4,
      "note": 52,
      "start": 0.3951,
      "duration": 0.0054,
      "velocity": 112,
      "chip": "ym2612"
    },
    {
      "channel": 3,
      "note": 76,
      "start": 0.4003,
      "duration": 0.0065,
      "velocity": 96,
      "chip": "ym2612"
    },
    {
      "channel": 4,
      "note": 52,
      "start": 0.4006,
      "duration": 0.0079,
      "velocity": 112,
      "chip": "ym2612"
    },
    {
      "channel": 1,
      "note": 76,
      "start": 0.4065,
      "duration": 0.0045,
      "velocity": 96,
      "chip": "ym2612"
    },
    {
      "channel": 3,
      "note": 76,
      "start": 0.4082,
      "duration": 0.0046,
      "velocity": 96,
      "chip": "ym2612"
    },
    {
      "channel": 4,
      "note": 52,
      "start": 0.4084,
      "duration": 0.0071,
      "velocity": 112,
      "chip": "ym2612"
    },
    {
      "channel": 1,
      "note": 76,
      "start": 0.4126,
      "duration": 0.0063,
      "velocity": 96,
      "chip": "ym2612"
    },
    {
      "channel": 3,
      "note": 73,
      "start": 0.4153,
      "duration": 0.0054,
      "velocity": 96,
      "chip": "ym2612"
    },
    {
      "channel": 4,
      "note": 52,
      "start": 0.4156,
      "duration": 0.0071,
      "velocity": 112,
      "chip": "ym2612"
    },
    {
      "channel": 1,
      "note": 73,
      "start": 0.4204,
      "duration": 0.0056,
      "velocity": 96,
      "chip": "ym2612"
    },
    {
      "channel": 3,
      "note": 76,
      "start": 0.4225,
      "duration": 0.0119,
      "velocity": 96,
      "chip": "ym2612"
    },
    {
      "channel": 4,
      "note": 49,
      "start": 0.4227,
      "duration": 0.0066,
      "velocity": 112,
      "chip": "ym2612"
    },
    {
      "channel": 1,
      "note": 76,
      "start": 0.4276,
      "duration": 0.0113,
      "velocity": 96,
      "chip": "ym2612"
    },
    {
      "channel": 4,
      "note": 49,
      "start": 0.4294,
      "duration": 0.0053,
      "velocity": 112,
      "chip": "ym2612"
    },
    {
      "channel": 4,
      "note": 49,
      "start": 0.4347,
      "duration": 0.0077,
      "velocity": 112,
      "chip": "ym2612"
    },
    {
      "channel": 3,
      "note": 78,
      "start": 0.4421,
      "duration": 0.0202,
      "velocity": 96,
      "chip": "ym2612"
    },
    {
      "channel": 4,
      "note": 49,
      "start": 0.4424,
      "duration": 0.0073,
      "velocity": 112,
      "chip": "ym2612"
    },
    {
      "channel": 1,
      "note": 78,
      "start": 0.4476,
      "duration": 0.0194,
      "velocity": 96,
      "chip": "ym2612"
    },
    {
      "channel": 4,
      "note": 54,
      "start": 0.4497,
      "duration": 0.0052,
      "velocity": 112,
      "chip": "ym2612"
    },
    {
      "channel": 4,
      "note": 54,
      "start": 0.4549,
      "duration": 0.0076,
      "velocity": 112,
      "chip": "ym2612"
    },
    {
      "channel": 3,
      "note": 81,
      "start": 0.4624,
      "duration": 0.02,
      "velocity": 96,
      "chip": "ym2612"
    },
    {
      "channel": 4,
      "note": 54,
      "start": 0.4626,
      "duration": 0.0071,
      "velocity": 112,
      "chip": "ym2612"
    },
    {
      "channel": 1,
      "note": 81,
      "start": 0.4671,
      "duration": 0.0203,
      "velocity": 96,
      "chip": "ym2612"
    },
    {
      "channel": 4,
      "note": 54,
      "start": 0.4698,
      "duration": 0.0064,
      "velocity": 112,
      "chip": "ym2612"
    },
    {
      "channel": 4,
      "note": 54,
      "start": 0.4762,
      "duration": 0.0064,
      "velocity": 112,
      "chip": "ym2612"
    },
    {
      "channel": 4,
      "note": 54,
      "start": 0.4827,
      "duration": 0.0065,
      "velocity": 112,
      "chip": "ym2612"
    },
    {
      "channel": 3,
      "note": 78,
      "start": 0.489,
      "duration": 0.005,
      "velocity": 96,
      "chip": "ym2612"
    },
    {
      "channel": 4,
      "note": 54,
      "start": 0.4892,
      "duration": 0.0069,
      "velocity": 112,
      "chip": "ym2612"
    },
    {
      "channel": 1,
      "note": 78,
      "start": 0.4937,
      "duration": 0.0056,
      "velocity": 96,
      "chip": "ym2612"
    },
    {
      "channel": 3,
      "note": 88,
      "start": 0.4958,
      "duration": 0.0054,
      "velocity": 96,
      "chip": "ym2612"
    },
    {
      "channel": 4,
      "note": 54,
      "start": 0.4961,
      "duration": 0.0067,
      "velocity": 112,
      "chip": "ym2612"
    },
    {
      "channel": 1,
      "note": 88,
      "start": 0.501,
      "duration": 0.0043,
      "velocity": 96,
      "chip": "ym2612"
    },
    {
      "channel": 3,
      "note": 86,
      "start": 0.5027,
      "duration": 0.0042,
      "velocity": 96,
      "chip": "ym2612"
    },
    {
      "channel": 4,
      "note": 59,
      "start": 0.5029,
      "duration": 0.0056,
      "velocity": 112,
      "chip": "ym2612"
    },
    {
      "channel": 1,
      "note": 86,
      "start": 0.5065,
      "duration": 0.0067,
      "velocity": 96,
      "chip": "ym2612"
    },
    {
      "channel": 3,
      "note": 85,
      "start": 0.5082,
      "duration": 0.0064,
      "velocity": 96,
      "chip": "ym2612"
    },
    {
      "channel": 4,
      "note": 59,
      "start": 0.5084,
      "duration": 0.0078,
      "velocity": 112,
      "chip": "ym2612"
    },
    {
      "channel": 1,
      "note": 85,
      "start": 0.5143,
      "duration": 0.0046,
      "velocity": 96,
      "chip": "ym2612"
    },
    {
      "channel": 3,
      "note": 83,
      "start": 0.516,
      "duration": 0.0347,
      "velocity": 96,
      "chip": "ym2612"
    },
    {
      "channel": 4,
      "note": 59,
      "start": 0.5162,
      "duration": 0.007,
      "velocity": 112,
      "chip": "ym2612"
    },
    {
      "channel": 1,
      "note": 83,
      "start": 0.5206,
      "duration": 0.0357,
      "velocity": 96,
      "chip": "ym2612"
    },
    {
      "channel": 4,
      "note": 59,
      "start": 0.5233,
      "duration": 0.0072,
      "velocity": 112,
      "chip": "ym2612"
    },
    {
      "channel": 4,
      "note": 61,
      "start": 0.5305,
      "duration": 0.0065,
      "velocity": 112,
      "chip": "ym2612"
    },
    {
      "channel": 4,
      "note": 61,
      "start": 0.537,
      "duration": 0.0068,
      "velocity": 112,
      "chip": "ym2612"
    },
    {
      "channel": 4,
      "note": 61,
      "start": 0.5439,
      "duration": 0.007,
      "velocity": 112,
      "chip": "ym2612"
    },
    {
      "channel": 3,
      "note": 85,
      "start": 0.5506,
      "duration": 0.0183,
      "velocity": 96,
      "chip": "ym2612"
    },
    {
      "channel": 4,
      "note": 61,
      "start": 0.551,
      "duration": 0.0071,
      "velocity": 112,
      "chip": "ym2612"
    },
    {
      "channel": 1,
      "note": 84,
      "start": 0.5564,
      "duration": 0.0173,
      "velocity": 96,
      "chip": "ym2612"
    },
    {
      "channel": 4,
      "note": 54,
      "start": 0.5581,
      "duration": 0.0055,
      "velocity": 112,
      "chip": "ym2612"
    },
    {
      "channel": 4,
      "note": 54,
      "start": 0.5636,
      "duration": 0.0056,
      "velocity": 112,
      "chip": "ym2612"
    },
    {
      "channel": 3,
      "note": 81,
      "start": 0.569,
      "duration": 0.0203,
      "velocity": 96,
      "chip": "ym2612"
    },
    {
      "channel": 4,
      "note": 54,
      "start": 0.5692,
      "duration": 0.0072,
      "velocity": 112,
      "chip": "ym2612"
    },
    {
      "channel": 1,
      "note": 81,
      "start": 0.5737,
      "duration": 0.0205,
      "velocity": 96,
      "chip": "ym2612"
    },
    {
      "channel": 4,
      "note": 54,
      "start": 0.5764,
      "duration": 0.0065,
      "velocity": 112,
      "chip": "ym2612"
    },
    {
      "channel": 4,
      "note": 54,
      "start": 0.5829,
      "duration": 0.0067,
      "velocity": 112,
      "chip": "ym2612"
    },
    {
      "channel": 4,
      "note": 54,
      "start": 0.5896,
      "duration": 0.0063,
      "velocity": 112,
      "chip": "ym2612"
    },
    {
      "channel": 3,
      "note": 78,
      "start": 0.5957,
      "duration": 0.0052,
      "velocity": 96,
      "chip": "ym2612"
    },
    {
      "channel": 4,
      "note": 54,
      "start": 0.596,
      "duration": 0.0074,
      "velocity": 112,
      "chip": "ym2612"
    },
    {
      "channel": 1,
      "note": 78,
      "start": 0.6007,
      "duration": 0.006,
      "velocity": 96,
      "chip": "ym2612"
    },
    {
      "channel": 3,
      "note": 73,
      "start": 0.6031,
      "duration": 0.0053,
      "velocity": 96,
      "chip": "ym2612"
    },
    {
      "channel": 4,
      "note": 54,
      "start": 0.6034,
      "duration": 0.0066,
      "velocity": 112,
      "chip": "ym2612"
    },
    {
      "channel": 1,
      "note": 73,
      "start": 0.6081,
      "duration": 0.0039,
      "velocity": 96,
      "chip": "ym2612"
    },
    {
      "channel": 4,
      "note": 52,
      "start": 0.61,
      "duration": 0.0055,
      "velocity": 112,
      "chip": "ym2612"
    },
    {
      "channel": 3,
      "note": 76,
      "start": 0.6154,
      "duration": 0.0063,
      "velocity": 96,
      "chip": "ym2612"
    },
    {
      "channel": 4,
      "note": 52,
      "start": 0.6156,
      "duration": 0.0076,
      "velocity": 112,
      "chip": "ym2612"
    },
    {
      "channel": 1,
      "note": 76,
      "start": 0.6215,
      "duration": 0.0044,
      "velocity": 96,
      "chip": "ym2612"
    },
    {
      "channel": 3,
      "note": 76,
      "start": 0.6229,
      "duration": 0.0046,
      "velocity": 96,
      "chip": "ym2612"
    },
    {
      "channel": 4,
      "note": 52,
      "start": 0.6232,
      "duration": 0.0071,
      "velocity": 112,
      "chip": "ym2612"
    },
    {
      "channel": 1,
      "note": 76,
      "start": 0.6273,
      "duration": 0.0061,
      "velocity": 96,
      "chip": "ym2612"
    },
    {
      "channel": 3,
      "note": 73,
      "start": 0.63,
      "duration": 0.0052,
      "velocity": 96,
      "chip": "ym2612"
    },
    {
      "channel": 4,
      "note": 52,
      "start": 0.6304,
      "duration": 0.0069,
      "velocity": 112,
      "chip": "ym2612"
    },
    {
      "channel": 1,
      "note": 73,
      "start": 0.6349,
      "duration": 0.0055,
      "velocity": 96,
      "chip": "ym2612"
    },
    {
      "channel": 3,
      "note": 76,
      "start": 0.637,
      "duration": 0.0125,
      "velocity": 96,
      "chip": "ym2612"
    },
    {
      "channel": 4,
      "note": 49,
      "start": 0.6373,
      "duration": 0.0065,
      "velocity": 112,
      "chip": "ym2612"
    },
    {
      "channel": 1,
      "note": 76,
      "start": 0.6419,
      "duration": 0.0119,
      "velocity": 96,
      "chip": "ym2612"
    },
    {
      "channel": 4,
      "note": 49,
      "start": 0.6437,
      "duration": 0.0059,
      "velocity": 112,
      "chip": "ym2612"
    },
    {
      "channel": 4,
      "note": 49,
      "start": 0.6496,
      "duration": 0.0076,
      "velocity": 112,
      "chip": "ym2612"
    },
    {
      "channel": 3,
      "note": 78,
      "start": 0.6569,
      "duration": 0.0182,
      "velocity": 96,
      "chip": "ym2612"
    },
    {
      "channel": 4,
      "note": 49,
      "start": 0.6572,
      "duration": 0.0073,
      "velocity": 112,
      "chip": "ym2612"
    },
    {
      "channel": 1,
      "note": 78,
      "start": 0.6627,
      "duration": 0.0171,
      "velocity": 96,
      "chip": "ym2612"
    },
    {
      "channel": 4,
      "note": 54,
      "start": 0.6646,
      "duration": 0.0049,
      "velocity": 112,
      "chip": "ym2612"
    },
    {
      "channel": 4,
      "note": 54,
      "start": 0.6695,
      "duration": 0.0059,
      "velocity": 112,
      "chip": "ym2612"
    },
    {
      "channel": 3,
      "note": 81,
      "start": 0.6752,
      "duration": 0.0197,
      "velocity": 96,
      "chip": "ym2612"
    },
    {
      "channel": 4,
      "note": 54,
      "start": 0.6755,
      "duration": 0.0067,
      "velocity": 112,
      "chip": "ym2612"
    },
    {
      "channel": 1,
      "note": 81,
      "start": 0.6798,
      "duration": 0.0197,
      "velocity": 96,
      "chip": "ym2612"
    },
    {
      "channel": 4,
      "note": 54,
      "start": 0.6823,
      "duration": 0.0068,
      "velocity": 112,
      "chip": "ym2612"
    },
    {
      "channel": 4,
      "note": 54,
      "start": 0.6891,
      "duration": 0.006,
      "velocity": 112,
      "chip": "ym2612"
    },
    {
      "channel": 3,
      "note": 78,
      "start": 0.695,
      "duration": 0.0038,
      "velocity": 96,
      "chip": "ym2612"
    },
    {
      "channel": 4,
      "note": 54,
      "start": 0.6951,
      "duration": 0.0063,
      "velocity": 112,
      "chip": "ym2612"
    },
    {
      "channel": 1,
      "note": 78,
      "start": 0.6996,
      "duration": 0.0032,
      "velocity": 96,
      "chip": "ym2612"
    },
    {
      "channel": 3,
      "note": 78,
      "start": 0.6999,
      "duration": 0.0026,
      "velocity": 96,
      "chip": "ym2612"
    },
    {
      "channel": 4,
      "note": 54,
      "start": 0.7016,
      "duration": 0.0072,
      "velocity": 112,
      "chip": "ym2612"
    },
    {
      "channel": 3,
      "note": 74,
      "start": 0.7035,
      "duration": 0.0028,
      "velocity": 96,
      "chip": "ym2612"
    },
    {
      "channel": 1,
      "note": 78,
      "start": 0.7039,
      "duration": 0.0027,
      "velocity": 96,
      "chip": "ym2612"
    },
    {
      "channel": 1,
      "note": 74,
      "start": 0.7081,
      "duration": 0.0047,
      "velocity": 96,
      "chip": "ym2612"
    },
    {
      "channel": 3,
      "note": 73,
      "start": 0.7085,
      "duration": 0.0033,
      "velocity": 96,
      "chip": "ym2612"
    },
    {
      "channel": 4,
      "note": 54,
      "start": 0.7088,
      "duration": 0.0068,
      "velocity": 112,
      "chip": "ym2612"
    },
    {
      "channel": 3,
      "note": 69,
      "start": 0.7122,
      "duration": 0.0027,
      "velocity": 96,
      "chip": "ym2612"
    },
    {
      "channel": 1,
      "note": 73,
      "start": 0.7138,
      "duration": 0.0027,
      "velocity": 96,
      "chip": "ym2612"
    },
    {
      "channel": 3,
      "note": 71,
      "start": 0.7154,
      "duration": 0.0022,
      "velocity": 96,
      "chip": "ym2612"
    },
    {
      "channel": 4,
      "note": 50,
      "start": 0.7156,
      "duration": 0.0059,
      "velocity": 112,
      "chip": "ym2612"
    },
    {
      "channel": 1,
      "note": 69,
      "start": 0.717,
      "duration": 0.0021,
      "velocity": 96,
      "chip": "ym2612"
    },
    {
      "channel": 3,
      "note": 73,
      "start": 0.7181,
      "duration": 0.0027,
      "velocity": 96,
      "chip": "ym2612"
    },
    {
      "channel": 1,
      "note": 71,
      "start": 0.7197,
      "duration": 0.0051,
      "velocity": 96,
      "chip": "ym2612"
    },
    {
      "channel": 3,
      "note": 74,
      "start": 0.7212,
      "duration": 0.0052,
      "velocity": 96,
      "chip": "ym2612"
    },
    {
      "channel": 4,
      "note": 50,
      "start": 0.7215,
      "duration": 0.0085,
      "velocity": 112,
      "chip": "ym2612"
    },
    {
      "channel": 1,
      "note": 73,
      "start": 0.7252,
      "duration": 0.003,
      "velocity": 96,
      "chip": "ym2612"
    },
    {
      "channel": 3,
      "note": 73,
      "start": 0.727,
      "duration": 0.0024,
      "velocity": 96,
      "chip": "ym2612"
    },
    {
      "channel": 1,
      "note": 74,
      "start": 0.7283,
      "duration": 0.0028,
      "velocity": 96,
      "chip": "ym2612"
    },
    {
      "channel": 3,
      "note": 74,
      "start": 0.7299,
      "duration": 0.0029,
      "velocity": 96,
      "chip": "ym2612"
    },
    {
      "channel": 4,
      "note": 50,
      "start": 0.7301,
      "duration": 0.0076,
      "velocity": 112,
      "chip": "ym2612"
    },
    {
      "channel": 1,
      "note": 73,
      "start": 0.7316,
      "duration": 0.0029,
      "velocity": 96,
      "chip": "ym2612"
    },
    {
      "channel": 3,
      "note": 76,
      "start": 0.7333,
      "duration": 0.0029,
      "velocity": 96,
      "chip": "ym2612"
    },
    {
      "channel": 1,
      "note": 74,
      "start": 0.735,
      "duration": 0.0041,
      "velocity": 96,
      "chip": "ym2612"
    },
    {
      "channel": 3,
      "note": 78,
      "start": 0.7375,
      "duration": 0.0034,
      "velocity": 96,
      "chip": "ym2612"
    },
    {
      "channel": 4,
      "note": 50,
      "start": 0.7378,
      "duration": 0.0074,
      "velocity": 112,
      "chip": "ym2612"
    },
    {
      "channel": 1,
      "note": 76,
      "start": 0.7396,
      "duration": 0.0029,
      "velocity": 96,
      "chip": "ym2612"
    },
    {
      "channel": 3,
      "note": 76,
      "start": 0.7413,
      "duration": 0.0029,
      "velocity": 96,
      "chip": "ym2612"
    },
    {
      "channel": 1,
      "note": 78,
      "start": 0.7429,
      "duration": 0.004,
      "velocity": 96,
      "chip": "ym2612"
    },
    {
      "channel": 3,
      "note": 78,
      "start": 0.7449,
      "duration": 0.0033,
      "velocity": 96,
      "chip": "ym2612"
    },
    {
      "channel": 4,
      "note": 52,
      "start": 0.7452,
      "duration": 0.0071,
      "velocity": 112,
      "chip": "ym2612"
    },
    {
      "channel": 1,
      "note": 76,
      "start": 0.7475,
      "duration": 0.0023,
      "velocity": 96,
      "chip": "ym2612"
    },
    {
      "channel": 3,
      "note": 80,
      "start": 0.7488,
      "duration": 0.0028,
      "velocity": 96,
      "chip": "ym2612"
    },
    {
      "channel": 1,
      "note": 78,
      "start": 0.7504,
      "duration": 0.0033,
      "velocity": 96,
      "chip": "ym2612"
    },
    {
      "channel": 3,
      "note": 81,
      "start": 0.7521,
      "duration": 0.0034,
      "velocity": 96,
      "chip": "ym2612"
    },
    {
      "channel": 4,
      "note": 52,
      "start": 0.7523,
      "duration": 0.0066,
      "velocity": 112,
      "chip": "ym2612"
    },
    {
      "channel": 1,
      "note": 80,
      "start": 0.7541,
      "duration": 0.0027,
      "velocity": 96,
      "chip": "ym2612"
    },
    {
      "channel": 3,
      "note": 80,
      "start": 0.756,
      "duration": 0.0022,
      "velocity": 96,
      "chip": "ym2612"
    },
    {
      "channel": 1,
      "note": 81,
      "start": 0.7569,
      "duration": 0.0029,
      "velocity": 96,
      "chip": "ym2612"
    },
    {
      "channel": 3,
      "note": 81,
      "start": 0.7587,
      "duration": 0.0028,
      "velocity": 96,
      "chip": "ym2612"
    },
    {
      "channel": 4,
      "note": 52,
      "start": 0.7589,
      "duration": 0.0072,
      "velocity": 112,
      "chip": "ym2612"
    },
    {
      "channel": 1,
      "note": 80,
      "start": 0.7603,
      "duration": 0.0025,
      "velocity": 96,
      "chip": "ym2612"
    },
    {
      "channel": 3,
      "note": 83,
      "start": 0.762,
      "duration": 0.0027,
      "velocity": 96,
      "chip": "ym2612"
    },
    {
      "channel": 1,
      "note": 81,
      "start": 0.7634,
      "duration": 0.0039,
      "velocity": 96,
      "chip": "ym2612"
    },
    {
      "channel": 0,
      "note": 61,
      "start": 0.7651,
      "duration": 0.0075,
      "velocity": 108,
      "chip": "ym2612"
    },
    {
      "channel": 2,
      "note": 61,
      "start": 0.7658,
      "duration": 0.0073,
      "velocity": 108,
      "chip": "ym2612"
    },
    {
      "channel": 3,
      "note": 85,
      "start": 0.7659,
      "duration": 0.0685,
      "velocity": 96,
      "chip": "ym2612"
    },
    {
      "channel": 4,
      "note": 52,
      "start": 0.7661,
      "duration": 0.0093,
      "velocity": 112,
      "chip": "ym2612"
    },
    {
      "channel": 1,
      "note": 83,
      "start": 0.7683,
      "duration": 0.0038,
      "velocity": 96,
      "chip": "ym2612"
    },
    {
      "channel": 1,
      "note": 85,
      "start": 0.7728,
      "duration": 0.0673,
      "velocity": 96,
      "chip": "ym2612"
    },
    {
      "channel": 4,
      "note": 54,
      "start": 0.7755,
      "duration": 0.0078,
      "velocity": 112,
      "chip": "ym2612"
    },
    {
      "channel": 4,
      "note": 54,
      "start": 0.7834,
      "duration": 0.0091,
      "velocity": 112,
      "chip": "ym2612"
    },
    {
      "channel": 4,
      "note": 54,
      "start": 0.7925,
      "duration": 0.0068,
      "velocity": 112,
      "chip": "ym2612"
    },
    {
      "channel": 4,
      "note": 54,
      "start": 0.7993,
      "duration": 0.0071,
      "velocity": 112,
      "chip": "ym2612"
    },
    {
      "channel": 0,
      "note": 54,
      "start": 0.8057,
      "duration": 0.0069,
      "velocity": 108,
      "chip": "ym2612"
    },
    {
      "channel": 2,
      "note": 54,
      "start": 0.8061,
      "duration": 0.0068,
      "velocity": 108,
      "chip": "ym2612"
    },
    {
      "channel": 4,
      "note": 54,
      "start": 0.8064,
      "duration": 0.009,
      "velocity": 112,
      "chip": "ym2612"
    },
    {
      "channel": 4,
      "note": 54,
      "start": 0.8154,
      "duration": 0.0107,
      "velocity": 112,
      "chip": "ym2612"
    },
    {
      "channel": 0,
      "note": 57,
      "start": 0.8254,
      "duration": 0.0066,
      "velocity": 108,
      "chip": "ym2612"
    },
    {
      "channel": 2,
      "note": 57,
      "start": 0.8257,
      "duration": 0.0066,
      "velocity": 108,
      "chip": "ym2612"
    },
    {
      "channel": 4,
      "note": 54,
      "start": 0.8261,
      "duration": 0.0086,
      "velocity": 112,
      "chip": "ym2612"
    },
    {
      "channel": 4,
      "note": 54,
      "start": 0.8347,
      "duration": 0.0077,
      "velocity": 112,
      "chip": "ym2612"
    },
    {
      "channel": 3,
      "note": 92,
      "start": 0.8422,
      "duration": 0.0028,
      "velocity": 96,
      "chip": "ym2612"
    },
    {
      "channel": 4,
      "note": 52,
      "start": 0.8423,
      "duration": 0.0073,
      "velocity": 112,
      "chip": "ym2612"
    },
    {
      "channel": 3,
      "note": 97,
      "start": 0.8457,
      "duration": 0.0032,
      "velocity": 96,
      "chip": "ym2612"
    },
    {
      "channel": 1,
      "note": 93,
      "start": 0.8475,
      "duration": 0.0039,
      "velocity": 96,
      "chip": "ym2612"
    },
    {
      "channel": 3,
      "note": 95,
      "start": 0.8494,
      "duration": 0.0041,
      "velocity": 96,
      "chip": "ym2612"
    },
    {
      "channel": 4,
      "note": 52,
      "start": 0.8497,
      "duration": 0.0082,
      "velocity": 112,
      "chip": "ym2612"
    },
    {
      "channel": 1,
      "note": 97,
      "start": 0.8521,
      "duration": 0.0033,
      "velocity": 96,
      "chip": "ym2612"
    },
    {
      "channel": 3,
      "note": 97,
      "start": 0.8541,
      "duration": 0.0028,
      "velocity": 96,
      "chip": "ym2612"
    },
    {
      "channel": 1,
      "note": 95,
      "start": 0.8555,
      "duration": 0.0034,
      "velocity": 96,
      "chip": "ym2612"
    },
    {
      "channel": 3,
      "note": 95,
      "start": 0.8576,
      "duration": 0.0034,
      "velocity": 96,
      "chip": "ym2612"
    },
    {
      "channel": 4,
      "note": 52,
      "start": 0.8579,
      "duration": 0.0081,
      "velocity": 112,
      "chip": "ym2612"
    },
    {
      "channel": 1,
      "note": 97,
      "start": 0.8596,
      "duration": 0.0033,
      "velocity": 96,
      "chip": "ym2612"
    },
    {
      "channel": 3,
      "note": 93,
      "start": 0.8617,
      "duration": 0.0032,
      "velocity": 96,
      "chip": "ym2612"
    },
    {
      "channel": 1,
      "note": 95,
      "start": 0.8636,
      "duration": 0.0038,
      "velocity": 96,
      "chip": "ym2612"
    },
    {
      "channel": 3,
      "note": 90,
      "start": 0.8657,
      "duration": 0.0063,
      "velocity": 96,
      "chip": "ym2612"
    },
    {
      "channel": 4,
      "note": 52,
      "start": 0.866,
      "duration": 0.0078,
      "velocity": 112,
      "chip": "ym2612"
    },
    {
      "channel": 1,
      "note": 93,
      "start": 0.868,
      "duration": 0.003,
      "velocity": 96,
      "chip": "ym2612"
    },
    {
      "channel": 1,
      "note": 90,
      "start": 0.8716,
      "duration": 0.0057,
      "velocity": 96,
      "chip": "ym2612"
    },
    {
      "channel": 3,
      "note": 88,
      "start": 0.8736,
      "duration": 0.0056,
      "velocity": 96,
      "chip": "ym2612"
    },
    {
      "channel": 4,
      "note": 52,
      "start": 0.8739,
      "duration": 0.0075,
      "velocity": 112,
      "chip": "ym2612"
    },
    {
      "channel": 1,
      "note": 88,
      "start": 0.879,
      "duration": 0.007,
      "velocity": 96,
      "chip": "ym2612"
    },
    {
      "channel": 0,
      "note": 59,
      "start": 0.8807,
      "duration": 0.0064,
      "velocity": 108,
      "chip": "ym2612"
    },
    {
      "channel": 2,
      "note": 59,
      "start": 0.8809,
      "duration": 0.0065,
      "velocity": 108,
      "chip": "ym2612"
    },
    {
      "channel": 4,
      "note": 52,
      "start": 0.8813,
      "duration": 0.0082,
      "velocity": 112,
      "chip": "ym2612"
    },
    {
      "channel": 0,
      "note": 57,
      "start": 0.889,
      "duration": 0.007,
      "velocity": 108,
      "chip": "ym2612"
    },
    {
      "channel": 2,
      "note": 57,
      "start": 0.8893,
      "duration": 0.007,
      "velocity": 108,
      "chip": "ym2612"
    },
    {
      "channel": 4,
      "note": 52,
      "start": 0.8895,
      "duration": 0.0094,
      "velocity": 112,
      "chip": "ym2612"
    },
    {
      "channel": 3,
      "note": 85,
      "start": 0.8987,
      "duration": 0.012,
      "velocity": 96,
      "chip": "ym2612"
    },
    {
      "channel": 4,
      "note": 52,
      "start": 0.899,
      "duration": 0.0086,
      "velocity": 112,
      "chip": "ym2612"
    },
    {
      "channel": 1,
      "note": 85,
      "start": 0.9053,
      "duration": 0.0113,
      "velocity": 96,
      "chip": "ym2612"
    },
    {
      "channel": 4,
      "note": 50,
      "start": 0.9077,
      "duration": 0.0066,
      "velocity": 112,
      "chip": "ym2612"
    },
    {
      "channel": 3,
      "note": 97,
      "start": 0.9142,
      "duration": 0.0055,
      "velocity": 96,
      "chip": "ym2612"
    },
    {
      "channel": 4,
      "note": 50,
      "start": 0.9144,
      "duration": 0.0072,
      "velocity": 112,
      "chip": "ym2612"
    },
    {
      "channel": 1,
      "note": 97,
      "start": 0.9194,
      "duration": 0.0055,
      "velocity": 96,
      "chip": "ym2612"
    },
    {
      "channel": 3,
      "note": 93,
      "start": 0.9213,
      "duration": 0.0443,
      "velocity": 96,
      "chip": "ym2612"
    },
    {
      "channel": 4,
      "note": 50,
      "start": 0.9216,
      "duration": 0.0073,
      "velocity": 112,
      "chip": "ym2612"
    },
    {
      "channel": 1,
      "note": 93,
      "start": 0.9268,
      "duration": 0.0443,
      "velocity": 96,
      "chip": "ym2612"
    },
    {
      "channel": 4,
      "note": 50,
      "start": 0.9289,
      "duration": 0.0074,
      "velocity": 112,
      "chip": "ym2612"
    },
    {
      "channel": 0,
      "note": 56,
      "start": 0.9356,
      "duration": 0.0073,
      "velocity": 108,
      "chip": "ym2612"
    },
    {
      "channel": 2,
      "note": 56,
      "start": 0.9359,
      "duration": 0.0073,
      "velocity": 108,
      "chip": "ym2612"
    },
    {
      "channel": 4,
      "note": 50,
      "start": 0.9363,
      "duration": 0.0093,
      "velocity": 112,
      "chip": "ym2612"
    },
    {
      "channel": 0,
      "note": 56,
      "start": 0.945,
      "duration": 0.009,
      "velocity": 108,
      "chip": "ym2612"
    },
    {
      "channel": 2,
      "note": 56,
      "start": 0.9453,
      "duration": 0.009,
      "velocity": 108,
      "chip": "ym2612"
    },
    {
      "channel": 4,
      "note": 50,
      "start": 0.9455,
      "duration": 0.0112,
      "velocity": 112,
      "chip": "ym2612"
    },
    {
      "channel": 0,
      "note": 57,
      "start": 0.9561,
      "duration": 0.0069,
      "velocity": 108,
      "chip": "ym2612"
    },
    {
      "channel": 2,
      "note": 57,
      "start": 0.9564,
      "duration": 0.0069,
      "velocity": 108,
      "chip": "ym2612"
    },
    {
      "channel": 4,
      "note": 50,
      "start": 0.9568,
      "duration": 0.009,
      "velocity": 112,
      "chip": "ym2612"
    },
    {
      "channel": 4,
      "note": 50,
      "start": 0.9657,
      "duration": 0.0077,
      "velocity": 112,
      "chip": "ym2612"
    },
    {
      "channel": 3,
      "note": 90,
      "start": 0.9733,
      "duration": 0.055,
      "velocity": 96,
      "chip": "ym2612"
    },
    {
      "channel": 4,
      "note": 49,
      "start": 0.9734,
      "duration": 0.0068,
      "velocity": 112,
      "chip": "ym2612"
    },
    {
      "channel": 1,
      "note": 89,
      "start": 0.9783,
      "duration": 0.0571,
      "velocity": 96,
      "chip": "ym2612"
    },
    {
      "channel": 4,
      "note": 49,
      "start": 0.9802,
      "duration": 0.0067,
      "velocity": 112,
      "chip": "ym2612"
    },
    {
      "channel": 4,
      "note": 49,
      "start": 0.987,
      "duration": 0.0075,
      "velocity": 112,
      "chip": "ym2612"
    },
    {
      "channel": 0,
      "note": 49,
      "start": 0.9937,
      "duration": 0.0094,
      "velocity": 108,
      "chip": "ym2612"
    },
    {
      "channel": 2,
      "note": 49,
      "start": 0.994,
      "duration": 0.0094,
      "velocity": 108,
      "chip": "ym2612"
    },
    {
      "channel": 4,
      "note": 49,
      "start": 0.9945,
      "duration": 0.0093,
      "velocity": 112,
      "chip": "ym2612"
    },
    {
      "channel": 4,
      "note": 49,
      "start": 1.0038,
      "duration": 0.009,
      "velocity": 112,
      "chip": "ym2612"
    },
    {
      "channel": 0,
      "note": 52,
      "start": 1.0069,
      "duration": 0.0109,
      "velocity": 108,
      "chip": "ym2612"
    },
    {
      "channel": 2,
      "note": 52,
      "start": 1.0072,
      "duration": 0.0109,
      "velocity": 108,
      "chip": "ym2612"
    },
    {
      "channel": 4,
      "note": 49,
      "start": 1.0128,
      "duration": 0.0112,
      "velocity": 112,
      "chip": "ym2612"
    },
    {
      "channel": 0,
      "note": 52,
      "start": 1.0209,
      "duration": 0.0086,
      "velocity": 108,
      "chip": "ym2612"
    },
    {
      "channel": 2,
      "note": 52,
      "start": 1.0212,
      "duration": 0.0087,
      "velocity": 108,
      "chip": "ym2612"
    },
    {
      "channel": 4,
      "note": 49,
      "start": 1.024,
      "duration": 0.0091,
      "velocity": 112,
      "chip": "ym2612"
    },
    {
      "channel": 0,
      "note": 52,
      "start": 1.0324,
      "duration": 0.0077,
      "velocity": 108,
      "chip": "ym2612"
    },
    {
      "channel": 2,
      "note": 52,
      "start": 1.0327,
      "duration": 0.0078,
      "velocity": 108,
      "chip": "ym2612"
    },
    {
      "channel": 3,
      "note": 76,
      "start": 1.0329,
      "duration": 0.0687,
      "velocity": 96,
      "chip": "ym2612"
    },
    {
      "channel": 4,
      "note": 49,
      "start": 1.0332,
      "duration": 0.0096,
      "velocity": 112,
      "chip": "ym2612"
    },
    {
      "channel": 1,
      "note": 75,
      "start": 1.0403,
      "duration": 0.0672,
      "velocity": 96,
      "chip": "ym2612"
    },
    {
      "channel": 4,
      "note": 54,
      "start": 1.0428,
      "duration": 0.0077,
      "velocity": 112,
      "chip": "ym2612"
    },
    {
      "channel": 4,
      "note": 54,
      "start": 1.0506,
      "duration": 0.0075,
      "velocity": 112,
      "chip": "ym2612"
    },
    {
      "channel": 4,
      "note": 54,
      "start": 1.058,
      "duration": 0.0076,
      "velocity": 112,
      "chip": "ym2612"
    },
    {
      "channel": 4,
      "note": 54,
      "start": 1.0656,
      "duration": 0.0077,
      "velocity": 112,
      "chip": "ym2612"
    },
    {
      "channel": 0,
      "note": 54,
      "start": 1.0726,
      "duration": 0.0067,
      "velocity": 108,
      "chip": "ym2612"
    },
    {
      "channel": 2,
      "note": 54,
      "start": 1.0729,
      "duration": 0.0066,
      "velocity": 108,
      "chip": "ym2612"
    },
    {
      "channel": 4,
      "note": 54,
      "start": 1.0733,
      "duration": 0.0086,
      "velocity": 112,
      "chip": "ym2612"
    },
    {
      "channel": 4,
      "note": 54,
      "start": 1.082,
      "duration": 0.0101,
      "velocity": 112,
      "chip": "ym2612"
    },
    {
      "channel": 0,
      "note": 57,
      "start": 1.0915,
      "duration": 0.0074,
      "velocity": 108,
      "chip": "ym2612"
    },
    {
      "channel": 2,
      "note": 57,
      "start": 1.0918,
      "duration": 0.0074,
      "velocity": 108,
      "chip": "ym2612"
    },
    {
      "channel": 4,
      "note": 54,
      "start": 1.0922,
      "duration": 0.0097,
      "velocity": 112,
      "chip": "ym2612"
    },
    {
      "channel": 3,
      "note": 90,
      "start": 1.1017,
      "duration": 0.0107,
      "velocity": 96,
      "chip": "ym2612"
    },
    {
      "channel": 4,
      "note": 54,
      "start": 1.1019,
      "duration": 0.008,
      "velocity": 112,
      "chip": "ym2612"
    },
    {
      "channel": 1,
      "note": 89,
      "start": 1.1076,
      "duration": 0.0099,
      "velocity": 96,
      "chip": "ym2612"
    },
    {
      "channel": 4,
      "note": 52,
      "start": 1.11,
      "duration": 0.0065,
      "velocity": 112,
      "chip": "ym2612"
    },
    {
      "channel": 3,
      "note": 95,
      "start": 1.1123,
      "duration": 0.0071,
      "velocity": 96,
      "chip": "ym2612"
    },
    {
      "channel": 4,
      "note": 52,
      "start": 1.1165,
      "duration": 0.0073,
      "velocity": 112,
      "chip": "ym2612"
    },
    {
      "channel": 1,
      "note": 95,
      "start": 1.1175,
      "duration": 0.0068,
      "velocity": 96,
      "chip": "ym2612"
    },
    {
      "channel": 3,
      "note": 93,
      "start": 1.122,
      "duration": 0.0068,
      "velocity": 96,
      "chip": "ym2612"
    },
    {
      "channel": 4,
      "note": 52,
      "start": 1.1239,
      "duration": 0.0076,
      "velocity": 112,
      "chip": "ym2612"
    },
    {
      "channel": 1,
      "note": 93,
      "start": 1.1267,
      "duration": 0.0079,
      "velocity": 96,
      "chip": "ym2612"
    },
    {
      "channel": 3,
      "note": 92,
      "start": 1.1312,
      "duration": 0.0383,
      "velocity": 96,
      "chip": "ym2612"
    },
    {
      "channel": 4,
      "note": 52,
      "start": 1.1315,
      "duration": 0.0072,
      "velocity": 112,
      "chip": "ym2612"
    },
    {
      "channel": 1,
      "note": 92,
      "start": 1.1368,
      "duration": 0.0383,
      "velocity": 96,
      "chip": "ym2612"
    },
    {
      "channel": 4,
      "note": 52,
      "start": 1.1388,
      "duration": 0.0072,
      "velocity": 112,
      "chip": "ym2612"
    },
    {
      "channel": 0,
      "note": 59,
      "start": 1.1453,
      "duration": 0.0069,
      "velocity": 108,
      "chip": "ym2612"
    },
    {
      "channel": 2,
      "note": 59,
      "start": 1.1456,
      "duration": 0.0069,
      "velocity": 108,
      "chip": "ym2612"
    },
    {
      "channel": 4,
      "note": 52,
      "start": 1.146,
      "duration": 0.0088,
      "velocity": 112,
      "chip": "ym2612"
    },
    {
      "channel": 0,
      "note": 57,
      "start": 1.154,
      "duration": 0.0068,
      "velocity": 108,
      "chip": "ym2612"
    },
    {
      "channel": 2,
      "note": 57,
      "start": 1.1544,
      "duration": 0.0066,
      "velocity": 108,
      "chip": "ym2612"
    },
    {
      "channel": 4,
      "note": 52,
      "start": 1.1548,
      "duration": 0.0084,
      "velocity": 112,
      "chip": "ym2612"
    },
    {
      "channel": 4,
      "note": 52,
      "start": 1.1632,
      "duration": 0.0088,
      "velocity": 112,
      "chip": "ym2612"
    },
    {
      "channel": 3,
      "note": 81,
      "start": 1.1718,
      "duration": 0.007,
      "velocity": 96,
      "chip": "ym2612"
    },
    {
      "channel": 4,
      "note": 50,
      "start": 1.1721,
      "duration": 0.007,
      "velocity": 112,
      "chip": "ym2612"
    },
    {
      "channel": 1,
      "note": 80,
      "start": 1.1769,
      "duration": 0.0069,
      "velocity": 96,
      "chip": "ym2612"
    },
    {
      "channel": 3,
      "note": 83,
      "start": 1.1788,
      "duration": 0.0054,
      "velocity": 96,
      "chip": "ym2612"
    },
    {
      "channel": 4,
      "note": 50,
      "start": 1.1791,
      "duration": 0.0071,
      "velocity": 112,
      "chip": "ym2612"
    },
    {
      "channel": 1,
      "note": 83,
      "start": 1.1839,
      "duration": 0.0052,
      "velocity": 96,
      "chip": "ym2612"
    },
    {
      "channel": 3,
      "note": 81,
      "start": 1.186,
      "duration": 0.0052,
      "velocity": 96,
      "chip": "ym2612"
    },
    {
      "channel": 4,
      "note": 50,
      "start": 1.1862,
      "duration": 0.007,
      "velocity": 112,
      "chip": "ym2612"
    },
    {
      "channel": 1,
      "note": 81,
      "start": 1.191,
      "duration": 0.006,
      "velocity": 96,
      "chip": "ym2612"
    },
    {
      "channel": 4,
      "note": 50,
      "start": 1.1932,
      "duration": 0.0076,
      "velocity": 112,
      "chip": "ym2612"
    },
    {
      "channel": 0,
      "note": 54,
      "start": 1.2002,
      "duration": 0.008,
      "velocity": 108,
      "chip": "ym2612"
    },
    {
      "channel": 2,
      "note": 54,
      "start": 1.2004,
      "duration": 0.0081,
      "velocity": 108,
      "chip": "ym2612"
    },
    {
      "channel": 3,
      "note": 80,
      "start": 1.2006,
      "duration": 0.0081,
      "velocity": 96,
      "chip": "ym2612"
    },
    {
      "channel": 4,
      "note": 50,
      "start": 1.2009,
      "duration": 0.0102,
      "velocity": 112,
      "chip": "ym2612"
    },
    {
      "channel": 1,
      "note": 80,
      "start": 1.2083,
      "duration": 0.0104,
      "velocity": 96,
      "chip": "ym2612"
    },
    {
      "channel": 0,
      "note": 37,
      "start": 1.2104,
      "duration": 0.0097,
      "velocity": 108,
      "chip": "ym2612"
    },
    {
      "channel": 2,
      "note": 37,
      "start": 1.2107,
      "duration": 0.0098,
      "velocity": 108,
      "chip": "ym2612"
    },
    {
      "channel": 3,
      "note": 81,
      "start": 1.2109,
      "duration": 0.0098,
      "velocity": 96,
      "chip": "ym2612"
    },
    {
      "channel": 4,
      "note": 50,
      "start": 1.2111,
      "duration": 0.012,
      "velocity": 112,
      "chip": "ym2612"
    },
    {
      "channel": 1,
      "note": 81,
      "start": 1.2203,
      "duration": 0.0076,
      "velocity": 96,
      "chip": "ym2612"
    },
    {
      "channel": 0,
      "note": 40,
      "start": 1.2223,
      "duration": 0.0076,
      "velocity": 108,
      "chip": "ym2612"
    },
    {
      "channel": 2,
      "note": 40,
      "start": 1.2226,
      "duration": 0.0077,
      "velocity": 108,
      "chip": "ym2612"
    },
    {
      "channel": 3,
      "note": 80,
      "start": 1.2228,
      "duration": 0.0077,
      "velocity": 96,
      "chip": "ym2612"
    },
    {
      "channel": 4,
      "note": 50,
      "start": 1.2231,
      "duration": 0.0097,
      "velocity": 112,
      "chip": "ym2612"
    },
    {
      "channel": 1,
      "note": 80,
      "start": 1.2301,
      "duration": 0.0094,
      "velocity": 96,
      "chip": "ym2612"
    },
    {
      "channel": 0,
      "note": 42,
      "start": 1.2322,
      "duration": 0.012,
      "velocity": 108,
      "chip": "ym2612"
    },
    {
      "channel": 2,
      "note": 42,
      "start": 1.2325,
      "duration": 0.0119,
      "velocity": 108,
      "chip": "ym2612"
    },
    {
      "channel": 3,
      "note": 78,
      "start": 1.2327,
      "duration": 0.0071,
      "velocity": 96,
      "chip": "ym2612"
    },
    {
      "channel": 4,
      "note": 50,
      "start": 1.2329,
      "duration": 0.0118,
      "velocity": 112,
      "chip": "ym2612"
    },
    {
      "channel": 3,
      "note": 76,
      "start": 1.2411,
      "duration": 0.0048,
      "velocity": 96,
      "chip": "ym2612"
    },
    {
      "channel": 1,
      "note": 78,
      "start": 1.2422,
      "duration": 0.0041,
      "velocity": 96,
      "chip": "ym2612"
    },
    {
      "channel": 4,
      "note": 47,
      "start": 1.2447,
      "duration": 0.0093,
      "velocity": 112,
      "chip": "ym2612"
    },
    {
      "channel": 0,
      "note": 44,
      "start": 1.2469,
      "duration": 0.0122,
      "velocity": 108,
      "chip": "ym2612"
    },
    {
      "channel": 1,
      "note": 76,
      "start": 1.2471,
      "duration": 0.0056,
      "velocity": 96,
      "chip": "ym2612"
    },
    {
      "channel": 2,
      "note": 44,
      "start": 1.2473,
      "duration": 0.0121,
      "velocity": 108,
      "chip": "ym2612"
    },
    {
      "channel": 3,
      "note": 73,
      "start": 1.2475,
      "duration": 0.0049,
      "velocity": 96,
      "chip": "ym2612"
    },
    {
      "channel": 3,
      "note": 78,
      "start": 1.2538,
      "duration": 0.0071,
      "velocity": 96,
      "chip": "ym2612"
    },
    {
      "channel": 4,
      "note": 47,
      "start": 1.254,
      "duration": 0.0117,
      "velocity": 112,
      "chip": "ym2612"
    },
    {
      "channel": 1,
      "note": 73,
      "start": 1.257,
      "duration": 0.0043,
      "velocity": 96,
      "chip": "ym2612"
    },
    {
      "channel": 0,
      "note": 45,
      "start": 1.262,
      "duration": 0.0098,
      "velocity": 108,
      "chip": "ym2612"
    },
    {
      "channel": 1,
      "note": 78,
      "start": 1.2622,
      "duration": 0.0059,
      "velocity": 96,
      "chip": "ym2612"
    },
    {
      "channel": 2,
      "note": 45,
      "start": 1.2624,
      "duration": 0.0097,
      "velocity": 108,
      "chip": "ym2612"
    },
    {
      "channel": 3,
      "note": 71,
      "start": 1.2625,
      "duration": 0.0049,
      "velocity": 96,
      "chip": "ym2612"
    },
    {
      "channel": 4,
      "note": 47,
      "start": 1.2657,
      "duration": 0.0097,
      "velocity": 112,
      "chip": "ym2612"
    },
    {
      "channel": 3,
      "note": 80,
      "start": 1.2688,
      "duration": 0.0046,
      "velocity": 96,
      "chip": "ym2612"
    },
    {
      "channel": 1,
      "note": 71,
      "start": 1.2696,
      "duration": 0.0044,
      "velocity": 96,
      "chip": "ym2612"
    },
    {
      "channel": 0,
      "note": 47,
      "start": 1.2746,
      "duration": 0.0119,
      "velocity": 108,
      "chip": "ym2612"
    },
    {
      "channel": 1,
      "note": 80,
      "start": 1.2748,
      "duration": 0.0078,
      "velocity": 96,
      "chip": "ym2612"
    },
    {
      "channel": 2,
      "note": 47,
      "start": 1.275,
      "duration": 0.0117,
      "velocity": 108,
      "chip": "ym2612"
    },
    {
      "channel": 3,
      "note": 74,
      "start": 1.2752,
      "duration": 0.007,
      "velocity": 96,
      "chip": "ym2612"
    },
    {
      "channel": 4,
      "note": 47,
      "start": 1.2754,
      "duration": 0.0116,
      "velocity": 112,
      "chip": "ym2612"
    },
    {
      "channel": 3,
      "note": 81,
      "start": 1.2835,
      "duration": 0.0046,
      "velocity": 96,
      "chip": "ym2612"
    },
    {
      "channel": 1,
      "note": 74,
      "start": 1.2846,
      "duration": 0.0039,
      "velocity": 96,
      "chip": "ym2612"
    },
    {
      "channel": 4,
      "note": 49,
      "start": 1.2871,
      "duration": 0.0092,
      "velocity": 112,
      "chip": "ym2612"
    },
    {
      "channel": 0,
      "note": 49,
      "start": 1.2892,
      "duration": 0.0122,
      "velocity": 108,
      "chip": "ym2612"
    },
    {
      "channel": 1,
      "note": 81,
      "start": 1.2893,
      "duration": 0.0058,
      "velocity": 96,
      "chip": "ym2612"
    },
    {
      "channel": 2,
      "note": 49,
      "start": 1.2895,
      "duration": 0.012,
      "velocity": 108,
      "chip": "ym2612"
    },
    {
      "channel": 3,
      "note": 76,
      "start": 1.2898,
      "duration": 0.0049,
      "velocity": 96,
      "chip": "ym2612"
    },
    {
      "channel": 3,
      "note": 83,
      "start": 1.296,
      "duration": 0.0071,
      "velocity": 96,
      "chip": "ym2612"
    },
    {
      "channel": 4,
      "note": 49,
      "start": 1.2963,
      "duration": 0.0117,
      "velocity": 112,
      "chip": "ym2612"
    },
    {
      "channel": 1,
      "note": 76,
      "start": 1.2995,
      "duration": 0.0041,
      "velocity": 96,
      "chip": "ym2612"
    },
    {
      "channel": 0,
      "note": 50,
      "start": 1.3043,
      "duration": 0.0099,
      "velocity": 108,
      "chip": "ym2612"
    },
    {
      "channel": 1,
      "note": 83,
      "start": 1.3046,
      "duration": 0.0054,
      "velocity": 96,
      "chip": "ym2612"
    },
    {
      "channel": 2,
      "note": 50,
      "start": 1.3047,
      "duration": 0.0097,
      "velocity": 108,
      "chip": "ym2612"
    },
    {
      "channel": 3,
      "note": 78,
      "start": 1.3049,
      "duration": 0.0109,
      "velocity": 96,
      "chip": "ym2612"
    },
    {
      "channel": 4,
      "note": 49,
      "start": 1.308,
      "duration": 0.0098,
      "velocity": 112,
      "chip": "ym2612"
    },
    {
      "channel": 1,
      "note": 78,
      "start": 1.3122,
      "duration": 0.0108,
      "velocity": 96,
      "chip": "ym2612"
    },
    {
      "channel": 4,
      "note": 49,
      "start": 1.3178,
      "duration": 0.0047,
      "velocity": 112,
      "chip": "ym2612"
    },
    {
      "channel": 4,
      "note": 54,
      "start": 1.3225,
      "duration": 0.0044,
      "velocity": 112,
      "chip": "ym2612"
    },
    {
      "channel": 4,
      "note": 54,
      "start": 1.3268,
      "duration": 0.0032,
      "velocity": 112,
      "chip": "ym2612"
    },
    {
      "channel": 4,
      "note": 66,
      "start": 1.3301,
      "duration": 32.0487,
      "velocity": 112,
      "chip": "ym2612"
    }
  ]
}