{
  "track_name": "19 - Mega Man 2- Crashman Stage",
  "duration_sec": 53.45,
  "sample_rate": 44100,
  "note_count": 1258,
  "unique_pitches": 30,
  "pitch_range": 63,
  "avg_note_duration": 0.2183,
  "reconstruction_stats": {
    "notes_reconstructed": 1258,
    "keyon_events": 1258,
    "keyoff_events": 1255,
    "orphan_keyons": 3,
    "unique_pitches": 30,
    "pitch_range": 63,
    "avg_duration_sec": 0.2183
  },
  "metadata": {
    "source": "M\\Mega Man - The Wily Wars\\19 - Mega Man 2- Crashman Stage.vgm"
  },
  "notes": [
    {
      "channel": 0,
      "note": 88,
      "start": 0.0,
      "duration": 0.382,
      "velocity": 110,
      "chip": "ym2612"
    },
    {
      "channel": 1,
      "note": 52,
      "start": 0.0023,
      "duration": 0.38,
      "velocity": 101,
      "chip": "ym2612"
    },
    {
      "channel": 2,
      "note": 76,
      "start": 0.0054,
      "duration": 0.3773,
      "velocity": 106,
      "chip": "ym2612"
    },
    {
      "channel": 3,
      "note": 83,
      "start": 0.0086,
      "duration": 0.3744,
      "velocity": 110,
      "chip": "ym2612"
    },
    {
      "channel": 5,
      "note": 32,
      "start": 0.0098,
      "duration": 0.1044,
      "velocity": 114,
      "chip": "ym2612"
    },
    {
      "channel": 4,
      "note": 88,
      "start": 0.1843,
      "duration": 0.4175,
      "velocity": 110,
      "chip": "ym2612"
    },
    {
      "channel": 5,
      "note": 75,
      "start": 0.3842,
      "duration": 0.2118,
      "velocity": 120,
      "chip": "ym2612"
    },
    {
      "channel": 0,
      "note": 85,
      "start": 0.5993,
      "duration": 0.1993,
      "velocity": 110,
      "chip": "ym2612"
    },
    {
      "channel": 1,
      "note": 49,
      "start": 0.6,
      "duration": 0.1994,
      "velocity": 101,
      "chip": "ym2612"
    },
    {
      "channel": 2,
      "note": 73,
      "start": 0.6008,
      "duration": 0.1994,
      "velocity": 106,
      "chip": "ym2612"
    },
    {
      "channel": 3,
      "note": 80,
      "start": 0.6016,
      "duration": 0.1994,
      "velocity": 110,
      "chip": "ym2612"
    },
    {
      "channel": 5,
      "note": 32,
      "start": 0.6028,
      "duration": 0.1282,
      "velocity": 114,
      "chip": "ym2612"
    },
    {
      "channel": 0,
      "note": 86,
      "start": 0.7993,
      "duration": 0.416,
      "velocity": 110,
      "chip": "ym2612"
    },
    {
      "channel": 1,
      "note": 50,
      "start": 0.8,
      "duration": 0.4161,
      "velocity": 101,
      "chip": "ym2612"
    },
    {
      "channel": 2,
      "note": 74,
      "start": 0.8009,
      "duration": 0.416,
      "velocity": 106,
      "chip": "ym2612"
    },
    {
      "channel": 3,
      "note": 81,
      "start": 0.8017,
      "duration": 0.416,
      "velocity": 110,
      "chip": "ym2612"
    },
    {
      "channel": 4,
      "note": 85,
      "start": 0.8024,
      "duration": 0.195,
      "velocity": 110,
      "chip": "ym2612"
    },
    {
      "channel": 5,
      "note": 32,
      "start": 0.8033,
      "duration": 0.1279,
      "velocity": 114,
      "chip": "ym2612"
    },
    {
      "channel": 4,
      "note": 86,
      "start": 0.9981,
      "duration": 0.416,
      "velocity": 110,
      "chip": "ym2612"
    },
    {
      "channel": 0,
      "note": 87,
      "start": 1.216,
      "duration": 0.2993,
      "velocity": 110,
      "chip": "ym2612"
    },
    {
      "channel": 1,
      "note": 51,
      "start": 1.2167,
      "duration": 0.2994,
      "velocity": 101,
      "chip": "ym2612"
    },
    {
      "channel": 2,
      "note": 75,
      "start": 1.2175,
      "duration": 0.2994,
      "velocity": 106,
      "chip": "ym2612"
    },
    {
      "channel": 3,
      "note": 82,
      "start": 1.2183,
      "duration": 0.2993,
      "velocity": 110,
      "chip": "ym2612"
    },
    {
      "channel": 5,
      "note": 75,
      "start": 1.2194,
      "duration": 0.2933,
      "velocity": 120,
      "chip": "ym2612"
    },
    {
      "channel": 4,
      "note": 87,
      "start": 1.4148,
      "duration": 0.3203,
      "velocity": 110,
      "chip": "ym2612"
    },
    {
      "channel": 0,
      "note": 88,
      "start": 1.516,
      "duration": 0.1135,
      "velocity": 110,
      "chip": "ym2612"
    },
    {
      "channel": 1,
      "note": 52,
      "start": 1.5167,
      "duration": 0.1132,
      "velocity": 101,
      "chip": "ym2612"
    },
    {
      "channel": 2,
      "note": 76,
      "start": 1.5175,
      "duration": 0.1127,
      "velocity": 106,
      "chip": "ym2612"
    },
    {
      "channel": 3,
      "note": 83,
      "start": 1.5183,
      "duration": 0.1122,
      "velocity": 110,
      "chip": "ym2612"
    },
    {
      "channel": 5,
      "note": 32,
      "start": 1.5195,
      "duration": 0.144,
      "velocity": 114,
      "chip": "ym2612"
    },
    {
      "channel": 0,
      "note": 88,
      "start": 1.7327,
      "duration": 0.0993,
      "velocity": 110,
      "chip": "ym2612"
    },
    {
      "channel": 1,
      "note": 52,
      "start": 1.7334,
      "duration": 0.0994,
      "velocity": 101,
      "chip": "ym2612"
    },
    {
      "channel": 2,
      "note": 76,
      "start": 1.7341,
      "duration": 0.0992,
      "velocity": 106,
      "chip": "ym2612"
    },
    {
      "channel": 3,
      "note": 83,
      "start": 1.735,
      "duration": 0.0992,
      "velocity": 110,
      "chip": "ym2612"
    },
    {
      "channel": 4,
      "note": 88,
      "start": 1.7358,
      "duration": 0.0992,
      "velocity": 110,
      "chip": "ym2612"
    },
    {
      "channel": 5,
      "note": 32,
      "start": 1.7366,
      "duration": 0.0927,
      "velocity": 114,
      "chip": "ym2612"
    },
    {
      "channel": 0,
      "note": 88,
      "start": 1.8327,
      "duration": 0.1993,
      "velocity": 110,
      "chip": "ym2612"
    },
    {
      "channel": 1,
      "note": 52,
      "start": 1.8332,
      "duration": 0.1994,
      "velocity": 101,
      "chip": "ym2612"
    },
    {
      "channel": 2,
      "note": 76,
      "start": 1.834,
      "duration": 0.1992,
      "velocity": 106,
      "chip": "ym2612"
    },
    {
      "channel": 3,
      "note": 83,
      "start": 1.8349,
      "duration": 0.1989,
      "velocity": 110,
      "chip": "ym2612"
    },
    {
      "channel": 5,
      "note": 32,
      "start": 1.836,
      "duration": 0.1285,
      "velocity": 114,
      "chip": "ym2612"
    },
    {
      "channel": 4,
      "note": 88,
      "start": 1.9315,
      "duration": 0.103,
      "velocity": 110,
      "chip": "ym2612"
    },
    {
      "channel": 0,
      "note": 88,
      "start": 2.0325,
      "duration": 0.2162,
      "velocity": 110,
      "chip": "ym2612"
    },
    {
      "channel": 1,
      "note": 52,
      "start": 2.033,
      "duration": 0.2164,
      "velocity": 101,
      "chip": "ym2612"
    },
    {
      "channel": 2,
      "note": 76,
      "start": 2.0337,
      "duration": 0.2165,
      "velocity": 106,
      "chip": "ym2612"
    },
    {
      "channel": 3,
      "note": 83,
      "start": 2.0343,
      "duration": 0.2167,
      "velocity": 110,
      "chip": "ym2612"
    },
    {
      "channel": 4,
      "note": 88,
      "start": 2.0351,
      "duration": 0.2166,
      "velocity": 110,
      "chip": "ym2612"
    },
    {
      "channel": 5,
      "note": 75,
      "start": 2.0359,
      "duration": 0.2101,
      "velocity": 120,
      "chip": "ym2612"
    },
    {
      "channel": 0,
      "note": 85,
      "start": 2.2493,
      "duration": 0.1993,
      "velocity": 110,
      "chip": "ym2612"
    },
    {
      "channel": 1,
      "note": 49,
      "start": 2.25,
      "duration": 0.1994,
      "velocity": 101,
      "chip": "ym2612"
    },
    {
      "channel": 2,
      "note": 73,
      "start": 2.2508,
      "duration": 0.1995,
      "velocity": 106,
      "chip": "ym2612"
    },
    {
      "channel": 3,
      "note": 80,
      "start": 2.2516,
      "duration": 0.1995,
      "velocity": 110,
      "chip": "ym2612"
    },
    {
      "channel": 4,
      "note": 88,
      "start": 2.2523,
      "duration": 0.1997,
      "velocity": 110,
      "chip": "ym2612"
    },
    {
      "channel": 5,
      "note": 32,
      "start": 2.2531,
      "duration": 0.1281,
      "velocity": 114,
      "chip": "ym2612"
    },
    {
      "channel": 0,
      "note": 86,
      "start": 2.4493,
      "duration": 0.416,
      "velocity": 110,
      "chip": "ym2612"
    },
    {
      "channel": 1,
      "note": 50,
      "start": 2.45,
      "duration": 0.2131,
      "velocity": 101,
      "chip": "ym2612"
    },
    {
      "channel": 2,
      "note": 74,
      "start": 2.4509,
      "duration": 0.4159,
      "velocity": 106,
      "chip": "ym2612"
    },
    {
      "channel": 3,
      "note": 81,
      "start": 2.4519,
      "duration": 0.4158,
      "velocity": 110,
      "chip": "ym2612"
    },
    {
      "channel": 4,
      "note": 85,
      "start": 2.4527,
      "duration": 0.2118,
      "velocity": 110,
      "chip": "ym2612"
    },
    {
      "channel": 5,
      "note": 32,
      "start": 2.4535,
      "duration": 0.1277,
      "velocity": 114,
      "chip": "ym2612"
    },
    {
      "channel": 1,
      "note": 62,
      "start": 2.6637,
      "duration": 0.2025,
      "velocity": 101,
      "chip": "ym2612"
    },
    {
      "channel": 4,
      "note": 86,
      "start": 2.6652,
      "duration": 0.4032,
      "velocity": 110,
      "chip": "ym2612"
    },
    {
      "channel": 0,
      "note": 87,
      "start": 2.866,
      "duration": 0.1993,
      "velocity": 110,
      "chip": "ym2612"
    },
    {
      "channel": 1,
      "note": 51,
      "start": 2.8667,
      "duration": 0.1994,
      "velocity": 101,
      "chip": "ym2612"
    },
    {
      "channel": 2,
      "note": 75,
      "start": 2.8675,
      "duration": 0.1994,
      "velocity": 106,
      "chip": "ym2612"
    },
    {
      "channel": 3,
      "note": 82,
      "start": 2.8683,
      "duration": 0.1993,
      "velocity": 110,
      "chip": "ym2612"
    },
    {
      "channel": 5,
      "note": 75,
      "start": 2.8694,
      "duration": 0.1933,
      "velocity": 120,
      "chip": "ym2612"
    },
    {
      "channel": 0,
      "note": 88,
      "start": 3.066,
      "duration": 0.2186,
      "velocity": 110,
      "chip": "ym2612"
    },
    {
      "channel": 1,
      "note": 63,
      "start": 3.0667,
      "duration": 0.2211,
      "velocity": 101,
      "chip": "ym2612"
    },
    {
      "channel": 2,
      "note": 76,
      "start": 3.0675,
      "duration": 0.2211,
      "velocity": 106,
      "chip": "ym2612"
    },
    {
      "channel": 3,
      "note": 83,
      "start": 3.0683,
      "duration": 0.2212,
      "velocity": 110,
      "chip": "ym2612"
    },
    {
      "channel": 4,
      "note": 87,
      "start": 3.0691,
      "duration": 0.2212,
      "velocity": 110,
      "chip": "ym2612"
    },
    {
      "channel": 5,
      "note": 32,
      "start": 3.07,
      "duration": 0.1446,
      "velocity": 114,
      "chip": "ym2612"
    },
    {
      "channel": 0,
      "note": 88,
      "start": 3.2852,
      "duration": 0.3968,
      "velocity": 110,
      "chip": "ym2612"
    },
    {
      "channel": 1,
      "note": 52,
      "start": 3.2883,
      "duration": 0.394,
      "velocity": 101,
      "chip": "ym2612"
    },
    {
      "channel": 2,
      "note": 76,
      "start": 3.2893,
      "duration": 0.3934,
      "velocity": 106,
      "chip": "ym2612"
    },
    {
      "channel": 3,
      "note": 83,
      "start": 3.2902,
      "duration": 0.3928,
      "velocity": 110,
      "chip": "ym2612"
    },
    {
      "channel": 4,
      "note": 88,
      "start": 3.291,
      "duration": 0.1922,
      "velocity": 110,
      "chip": "ym2612"
    },
    {
      "channel": 5,
      "note": 32,
      "start": 3.2918,
      "duration": 0.1227,
      "velocity": 114,
      "chip": "ym2612"
    },
    {
      "channel": 4,
      "note": 88,
      "start": 3.4839,
      "duration": 0.4179,
      "velocity": 110,
      "chip": "ym2612"
    },
    {
      "channel": 5,
      "note": 75,
      "start": 3.6842,
      "duration": 0.2118,
      "velocity": 120,
      "chip": "ym2612"
    },
    {
      "channel": 0,
      "note": 85,
      "start": 3.8993,
      "duration": 0.1993,
      "velocity": 110,
      "chip": "ym2612"
    },
    {
      "channel": 1,
      "note": 49,
      "start": 3.9,
      "duration": 0.1994,
      "velocity": 101,
      "chip": "ym2612"
    },
    {
      "channel": 2,
      "note": 73,
      "start": 3.9008,
      "duration": 0.1994,
      "velocity": 106,
      "chip": "ym2612"
    },
    {
      "channel": 3,
      "note": 80,
      "start": 3.9016,
      "duration": 0.1994,
      "velocity": 110,
      "chip": "ym2612"
    },
    {
      "channel": 5,
      "note": 32,
      "start": 3.9028,
      "duration": 0.1282,
      "velocity": 114,
      "chip": "ym2612"
    },
    {
      "channel": 0,
      "note": 86,
      "start": 4.0993,
      "duration": 0.416,
      "velocity": 110,
      "chip": "ym2612"
    },
    {
      "channel": 1,
      "note": 50,
      "start": 4.1,
      "duration": 0.4161,
      "velocity": 101,
      "chip": "ym2612"
    },
    {
      "channel": 2,
      "note": 74,
      "start": 4.1009,
      "duration": 0.416,
      "velocity": 106,
      "chip": "ym2612"
    },
    {
      "channel": 3,
      "note": 81,
      "start": 4.1017,
      "duration": 0.416,
      "velocity": 110,
      "chip": "ym2612"
    },
    {
      "channel": 4,
      "note": 85,
      "start": 4.1024,
      "duration": 0.2116,
      "velocity": 110,
      "chip": "ym2612"
    },
    {
      "channel": 5,
      "note": 32,
      "start": 4.1033,
      "duration": 0.1446,
      "velocity": 114,
      "chip": "ym2612"
    },
    {
      "channel": 4,
      "note": 86,
      "start": 4.3148,
      "duration": 0.3993,
      "velocity": 110,
      "chip": "ym2612"
    },
    {
      "channel": 0,
      "note": 87,
      "start": 4.516,
      "duration": 0.316,
      "velocity": 110,
      "chip": "ym2612"
    },
    {
      "channel": 1,
      "note": 51,
      "start": 4.5167,
      "duration": 0.3161,
      "velocity": 101,
      "chip": "ym2612"
    },
    {
      "channel": 2,
      "note": 75,
      "start": 4.5175,
      "duration": 0.316,
      "velocity": 106,
      "chip": "ym2612"
    },
    {
      "channel": 3,
      "note": 82,
      "start": 4.5183,
      "duration": 0.316,
      "velocity": 110,
      "chip": "ym2612"
    },
    {
      "channel": 5,
      "note": 75,
      "start": 4.5194,
      "duration": 0.31,
      "velocity": 120,
      "chip": "ym2612"
    },
    {
      "channel": 4,
      "note": 87,
      "start": 4.7148,
      "duration": 0.3203,
      "velocity": 110,
      "chip": "ym2612"
    },
    {
      "channel": 0,
      "note": 88,
      "start": 4.8327,
      "duration": 0.0969,
      "velocity": 110,
      "chip": "ym2612"
    },
    {
      "channel": 1,
      "note": 52,
      "start": 4.8334,
      "duration": 0.0965,
      "velocity": 101,
      "chip": "ym2612"
    },
    {
      "channel": 2,
      "note": 76,
      "start": 4.8341,
      "duration": 0.0961,
      "velocity": 106,
      "chip": "ym2612"
    },
    {
      "channel": 3,
      "note": 83,
      "start": 4.835,
      "duration": 0.0955,
      "velocity": 110,
      "chip": "ym2612"
    },
    {
      "channel": 5,
      "note": 32,
      "start": 4.8362,
      "duration": 0.1273,
      "velocity": 114,
      "chip": "ym2612"
    },
    {
      "channel": 0,
      "note": 88,
      "start": 5.0327,
      "duration": 0.0993,
      "velocity": 110,
      "chip": "ym2612"
    },
    {
      "channel": 1,
      "note": 52,
      "start": 5.0334,
      "duration": 0.0994,
      "velocity": 101,
      "chip": "ym2612"
    },
    {
      "channel": 2,
      "note": 76,
      "start": 5.0341,
      "duration": 0.0992,
      "velocity": 106,
      "chip": "ym2612"
    },
    {
      "channel": 3,
      "note": 83,
      "start": 5.035,
      "duration": 0.0992,
      "velocity": 110,
      "chip": "ym2612"
    },
    {
      "channel": 4,
      "note": 88,
      "start": 5.0358,
      "duration": 0.0992,
      "velocity": 110,
      "chip": "ym2612"
    },
    {
      "channel": 5,
      "note": 32,
      "start": 5.0366,
      "duration": 0.0927,
      "velocity": 114,
      "chip": "ym2612"
    },
    {
      "channel": 0,
      "note": 88,
      "start": 5.1327,
      "duration": 0.216,
      "velocity": 110,
      "chip": "ym2612"
    },
    {
      "channel": 1,
      "note": 52,
      "start": 5.1332,
      "duration": 0.216,
      "velocity": 101,
      "chip": "ym2612"
    },
    {
      "channel": 2,
      "note": 76,
      "start": 5.134,
      "duration": 0.2158,
      "velocity": 106,
      "chip": "ym2612"
    },
    {
      "channel": 3,
      "note": 83,
      "start": 5.1349,
      "duration": 0.2156,
      "velocity": 110,
      "chip": "ym2612"
    },
    {
      "channel": 5,
      "note": 32,
      "start": 5.136,
      "duration": 0.1285,
      "velocity": 114,
      "chip": "ym2612"
    },
    {
      "channel": 4,
      "note": 88,
      "start": 5.2315,
      "duration": 0.1197,
      "velocity": 110,
      "chip": "ym2612"
    },
    {
      "channel": 0,
      "note": 88,
      "start": 5.3491,
      "duration": 0.1995,
      "velocity": 110,
      "chip": "ym2612"
    },
    {
      "channel": 1,
      "note": 52,
      "start": 5.3497,
      "duration": 0.1998,
      "velocity": 101,
      "chip": "ym2612"
    },
    {
      "channel": 2,
      "note": 76,
      "start": 5.3504,
      "duration": 0.1998,
      "velocity": 106,
      "chip": "ym2612"
    },
    {
      "channel": 3,
      "note": 83,
      "start": 5.351,
      "duration": 0.2,
      "velocity": 110,
      "chip": "ym2612"
    },
    {
      "channel": 4,
      "note": 88,
      "start": 5.3518,
      "duration": 0.1999,
      "velocity": 110,
      "chip": "ym2612"
    },
    {
      "channel": 5,
      "note": 75,
      "start": 5.3526,
      "duration": 0.1934,
      "velocity": 120,
      "chip": "ym2612"
    },
    {
      "channel": 0,
      "note": 85,
      "start": 5.5493,
      "duration": 0.1993,
      "velocity": 110,
      "chip": "ym2612"
    },
    {
      "channel": 1,
      "note": 49,
      "start": 5.55,
      "duration": 0.1994,
      "velocity": 101,
      "chip": "ym2612"
    },
    {
      "channel": 2,
      "note": 73,
      "start": 5.5508,
      "duration": 0.1995,
      "velocity": 106,
      "chip": "ym2612"
    },
    {
      "channel": 3,
      "note": 80,
      "start": 5.5516,
      "duration": 0.1995,
      "velocity": 110,
      "chip": "ym2612"
    },
    {
      "channel": 4,
      "note": 88,
      "start": 5.5523,
      "duration": 0.1997,
      "velocity": 110,
      "chip": "ym2612"
    },
    {
      "channel": 5,
      "note": 32,
      "start": 5.5531,
      "duration": 0.1281,
      "velocity": 114,
      "chip": "ym2612"
    },
    {
      "channel": 0,
      "note": 86,
      "start": 5.7493,
      "duration": 0.416,
      "velocity": 110,
      "chip": "ym2612"
    },
    {
      "channel": 1,
      "note": 50,
      "start": 5.75,
      "duration": 0.2131,
      "velocity": 101,
      "chip": "ym2612"
    },
    {
      "channel": 2,
      "note": 74,
      "start": 5.7509,
      "duration": 0.2128,
      "velocity": 106,
      "chip": "ym2612"
    },
    {
      "channel": 3,
      "note": 81,
      "start": 5.7519,
      "duration": 0.2149,
      "velocity": 106,
      "chip": "ym2612"
    },
    {
      "channel": 4,
      "note": 85,
      "start": 5.7527,
      "duration": 0.215,
      "velocity": 110,
      "chip": "ym2612"
    },
    {
      "channel": 5,
      "note": 32,
      "start": 5.7535,
      "duration": 0.1444,
      "velocity": 114,
      "chip": "ym2612"
    },
    {
      "channel": 1,
      "note": 62,
      "start": 5.9637,
      "duration": 0.2025,
      "velocity": 101,
      "chip": "ym2612"
    },
    {
      "channel": 2,
      "note": 88,
      "start": 5.9645,
      "duration": 0.2024,
      "velocity": 106,
      "chip": "ym2612"
    },
    {
      "channel": 3,
      "note": 83,
      "start": 5.9675,
      "duration": 0.1999,
      "velocity": 106,
      "chip": "ym2612"
    },
    {
      "channel": 4,
      "note": 86,
      "start": 5.9683,
      "duration": 0.4159,
      "velocity": 110,
      "chip": "ym2612"
    },
    {
      "channel": 0,
      "note": 87,
      "start": 6.166,
      "duration": 0.216,
      "velocity": 110,
      "chip": "ym2612"
    },
    {
      "channel": 1,
      "note": 51,
      "start": 6.1667,
      "duration": 0.2161,
      "velocity": 101,
      "chip": "ym2612"
    },
    {
      "channel": 2,
      "note": 88,
      "start": 6.1673,
      "duration": 0.4212,
      "velocity": 106,
      "chip": "ym2612"
    },
    {
      "channel": 3,
      "note": 83,
      "start": 6.168,
      "duration": 0.4238,
      "velocity": 110,
      "chip": "ym2612"
    },
    {
      "channel": 5,
      "note": 75,
      "start": 6.169,
      "duration": 0.2103,
      "velocity": 120,
      "chip": "ym2612"
    },
    {
      "channel": 0,
      "note": 88,
      "start": 6.3827,
      "duration": 0.2019,
      "velocity": 110,
      "chip": "ym2612"
    },
    {
      "channel": 1,
      "note": 63,
      "start": 6.3834,
      "duration": 0.2045,
      "velocity": 101,
      "chip": "ym2612"
    },
    {
      "channel": 4,
      "note": 87,
      "start": 6.3849,
      "duration": 0.2077,
      "velocity": 110,
      "chip": "ym2612"
    },
    {
      "channel": 5,
      "note": 32,
      "start": 6.3857,
      "duration": 0.129,
      "velocity": 114,
      "chip": "ym2612"
    },
    {
      "channel": 0,
      "note": 88,
      "start": 6.5852,
      "duration": 0.4134,
      "velocity": 110,
      "chip": "ym2612"
    },
    {
      "channel": 1,
      "note": 52,
      "start": 6.5883,
      "duration": 0.4106,
      "velocity": 101,
      "chip": "ym2612"
    },
    {
      "channel": 2,
      "note": 76,
      "start": 6.5893,
      "duration": 0.41,
      "velocity": 106,
      "chip": "ym2612"
    },
    {
      "channel": 3,
      "note": 83,
      "start": 6.5925,
      "duration": 0.4072,
      "velocity": 110,
      "chip": "ym2612"
    },
    {
      "channel": 4,
      "note": 88,
      "start": 6.5933,
      "duration": 0.1899,
      "velocity": 110,
      "chip": "ym2612"
    },
    {
      "channel": 5,
      "note": 32,
      "start": 6.5941,
      "duration": 0.1205,
      "velocity": 114,
      "chip": "ym2612"
    },
    {
      "channel": 4,
      "note": 88,
      "start": 6.7839,
      "duration": 0.4179,
      "velocity": 110,
      "chip": "ym2612"
    },
    {
      "channel": 5,
      "note": 75,
      "start": 7.0009,
      "duration": 0.1952,
      "velocity": 120,
      "chip": "ym2612"
    },
    {
      "channel": 0,
      "note": 85,
      "start": 7.1993,
      "duration": 0.1993,
      "velocity": 110,
      "chip": "ym2612"
    },
    {
      "channel": 1,
      "note": 49,
      "start": 7.2,
      "duration": 0.1994,
      "velocity": 101,
      "chip": "ym2612"
    },
    {
      "channel": 2,
      "note": 73,
      "start": 7.2008,
      "duration": 0.1994,
      "velocity": 106,
      "chip": "ym2612"
    },
    {
      "channel": 3,
      "note": 80,
      "start": 7.2016,
      "duration": 0.1994,
      "velocity": 110,
      "chip": "ym2612"
    },
    {
      "channel": 5,
      "note": 32,
      "start": 7.2028,
      "duration": 0.1282,
      "velocity": 114,
      "chip": "ym2612"
    },
    {
      "channel": 0,
      "note": 86,
      "start": 7.3993,
      "duration": 0.416,
      "velocity": 110,
      "chip": "ym2612"
    },
    {
      "channel": 1,
      "note": 50,
      "start": 7.4,
      "duration": 0.4161,
      "velocity": 101,
      "chip": "ym2612"
    },
    {
      "channel": 2,
      "note": 74,
      "start": 7.4009,
      "duration": 0.416,
      "velocity": 106,
      "chip": "ym2612"
    },
    {
      "channel": 3,
      "note": 81,
      "start": 7.4017,
      "duration": 0.416,
      "velocity": 110,
      "chip": "ym2612"
    },
    {
      "channel": 4,
      "note": 85,
      "start": 7.4024,
      "duration": 0.2116,
      "velocity": 110,
      "chip": "ym2612"
    },
    {
      "channel": 5,
      "note": 32,
      "start": 7.4033,
      "duration": 0.1446,
      "velocity": 114,
      "chip": "ym2612"
    },
    {
      "channel": 4,
      "note": 86,
      "start": 7.6148,
      "duration": 0.416,
      "velocity": 110,
      "chip": "ym2612"
    },
    {
      "channel": 0,
      "note": 87,
      "start": 7.816,
      "duration": 0.316,
      "velocity": 110,
      "chip": "ym2612"
    },
    {
      "channel": 1,
      "note": 51,
      "start": 7.8167,
      "duration": 0.3161,
      "velocity": 101,
      "chip": "ym2612"
    },
    {
      "channel": 2,
      "note": 75,
      "start": 7.8175,
      "duration": 0.316,
      "velocity": 106,
      "chip": "ym2612"
    },
    {
      "channel": 3,
      "note": 82,
      "start": 7.8183,
      "duration": 0.316,
      "velocity": 110,
      "chip": "ym2612"
    },
    {
      "channel": 5,
      "note": 75,
      "start": 7.8194,
      "duration": 0.31,
      "velocity": 120,
      "chip": "ym2612"
    },
    {
      "channel": 4,
      "note": 87,
      "start": 8.0315,
      "duration": 0.3036,
      "velocity": 110,
      "chip": "ym2612"
    },
    {
      "channel": 0,
      "note": 88,
      "start": 8.1327,
      "duration": 0.0969,
      "velocity": 110,
      "chip": "ym2612"
    },
    {
      "channel": 1,
      "note": 52,
      "start": 8.1334,
      "duration": 0.0965,
      "velocity": 101,
      "chip": "ym2612"
    },
    {
      "channel": 2,
      "note": 76,
      "start": 8.1341,
      "duration": 0.0961,
      "velocity": 106,
      "chip": "ym2612"
    },
    {
      "channel": 3,
      "note": 83,
      "start": 8.135,
      "duration": 0.0955,
      "velocity": 110,
      "chip": "ym2612"
    },
    {
      "channel": 5,
      "note": 32,
      "start": 8.1362,
      "duration": 0.1273,
      "velocity": 114,
      "chip": "ym2612"
    },
    {
      "channel": 0,
      "note": 88,
      "start": 8.3327,
      "duration": 0.0993,
      "velocity": 110,
      "chip": "ym2612"
    },
    {
      "channel": 1,
      "note": 52,
      "start": 8.3334,
      "duration": 0.0994,
      "velocity": 101,
      "chip": "ym2612"
    },
    {
      "channel": 2,
      "note": 76,
      "start": 8.3341,
      "duration": 0.0992,
      "velocity": 106,
      "chip": "ym2612"
    },
    {
      "channel": 3,
      "note": 83,
      "start": 8.335,
      "duration": 0.0992,
      "velocity": 110,
      "chip": "ym2612"
    },
    {
      "channel": 4,
      "note": 88,
      "start": 8.3358,
      "duration": 0.0992,
      "velocity": 110,
      "chip": "ym2612"
    },
    {
      "channel": 5,
      "note": 32,
      "start": 8.3366,
      "duration": 0.0927,
      "velocity": 114,
      "chip": "ym2612"
    },
    {
      "channel": 0,
      "note": 88,
      "start": 8.4327,
      "duration": 0.216,
      "velocity": 110,
      "chip": "ym2612"
    },
    {
      "channel": 1,
      "note": 52,
      "start": 8.4332,
      "duration": 0.216,
      "velocity": 101,
      "chip": "ym2612"
    },
    {
      "channel": 2,
      "note": 76,
      "start": 8.434,
      "duration": 0.2158,
      "velocity": 106,
      "chip": "ym2612"
    },
    {
      "channel": 3,
      "note": 83,
      "start": 8.4349,
      "duration": 0.2156,
      "velocity": 110,
      "chip": "ym2612"
    },
    {
      "channel": 5,
      "note": 32,
      "start": 8.436,
      "duration": 0.1452,
      "velocity": 114,
      "chip": "ym2612"
    },
    {
      "channel": 4,
      "note": 88,
      "start": 8.5481,
      "duration": 0.103,
      "velocity": 110,
      "chip": "ym2612"
    },
    {
      "channel": 0,
      "note": 88,
      "start": 8.6491,
      "duration": 0.1995,
      "velocity": 110,
      "chip": "ym2612"
    },
    {
      "channel": 1,
      "note": 52,
      "start": 8.6497,
      "duration": 0.1998,
      "velocity": 101,
      "chip": "ym2612"
    },
    {
      "channel": 2,
      "note": 76,
      "start": 8.6504,
      "duration": 0.1998,
      "velocity": 106,
      "chip": "ym2612"
    },
    {
      "channel": 3,
      "note": 83,
      "start": 8.651,
      "duration": 0.2,
      "velocity": 110,
      "chip": "ym2612"
    },
    {
      "channel": 4,
      "note": 88,
      "start": 8.6518,
      "duration": 0.1999,
      "velocity": 110,
      "chip": "ym2612"
    },
    {
      "channel": 5,
      "note": 75,
      "start": 8.6526,
      "duration": 0.1934,
      "velocity": 120,
      "chip": "ym2612"
    },
    {
      "channel": 0,
      "note": 85,
      "start": 8.8493,
      "duration": 0.216,
      "velocity": 110,
      "chip": "ym2612"
    },
    {
      "channel": 1,
      "note": 49,
      "start": 8.85,
      "duration": 0.2161,
      "velocity": 101,
      "chip": "ym2612"
    },
    {
      "channel": 2,
      "note": 73,
      "start": 8.8508,
      "duration": 0.2162,
      "velocity": 106,
      "chip": "ym2612"
    },
    {
      "channel": 3,
      "note": 80,
      "start": 8.8516,
      "duration": 0.2184,
      "velocity": 106,
      "chip": "ym2612"
    },
    {
      "channel": 4,
      "note": 88,
      "start": 8.8523,
      "duration": 0.2186,
      "velocity": 110,
      "chip": "ym2612"
    },
    {
      "channel": 5,
      "note": 32,
      "start": 8.8531,
      "duration": 0.1281,
      "velocity": 114,
      "chip": "ym2612"
    },
    {
      "channel": 0,
      "note": 86,
      "start": 9.066,
      "duration": 0.3993,
      "velocity": 110,
      "chip": "ym2612"
    },
    {
      "channel": 1,
      "note": 50,
      "start": 9.0667,
      "duration": 0.1964,
      "velocity": 101,
      "chip": "ym2612"
    },
    {
      "channel": 2,
      "note": 88,
      "start": 9.0676,
      "duration": 0.0959,
      "velocity": 106,
      "chip": "ym2612"
    },
    {
      "channel": 3,
      "note": 83,
      "start": 9.0708,
      "duration": 0.0933,
      "velocity": 106,
      "chip": "ym2612"
    },
    {
      "channel": 4,
      "note": 85,
      "start": 9.0716,
      "duration": 0.1929,
      "velocity": 110,
      "chip": "ym2612"
    },
    {
      "channel": 5,
      "note": 32,
      "start": 9.0724,
      "duration": 0.1254,
      "velocity": 114,
      "chip": "ym2612"
    },
    {
      "channel": 2,
      "note": 88,
      "start": 9.1639,
      "duration": 0.1995,
      "velocity": 106,
      "chip": "ym2612"
    },
    {
      "channel": 3,
      "note": 83,
      "start": 9.1646,
      "duration": 0.1995,
      "velocity": 106,
      "chip": "ym2612"
    },
    {
      "channel": 1,
      "note": 62,
      "start": 9.2637,
      "duration": 0.2025,
      "velocity": 101,
      "chip": "ym2612"
    },
    {
      "channel": 4,
      "note": 86,
      "start": 9.2652,
      "duration": 0.42,
      "velocity": 110,
      "chip": "ym2612"
    },
    {
      "channel": 2,
      "note": 88,
      "start": 9.364,
      "duration": 0.1029,
      "velocity": 106,
      "chip": "ym2612"
    },
    {
      "channel": 3,
      "note": 83,
      "start": 9.3646,
      "duration": 0.1031,
      "velocity": 106,
      "chip": "ym2612"
    },
    {
      "channel": 0,
      "note": 87,
      "start": 9.466,
      "duration": 0.216,
      "velocity": 110,
      "chip": "ym2612"
    },
    {
      "channel": 1,
      "note": 51,
      "start": 9.4667,
      "duration": 0.2161,
      "velocity": 101,
      "chip": "ym2612"
    },
    {
      "channel": 2,
      "note": 90,
      "start": 9.4675,
      "duration": 0.1127,
      "velocity": 106,
      "chip": "ym2612"
    },
    {
      "channel": 3,
      "note": 86,
      "start": 9.4683,
      "duration": 0.1127,
      "velocity": 106,
      "chip": "ym2612"
    },
    {
      "channel": 5,
      "note": 75,
      "start": 9.4694,
      "duration": 0.21,
      "velocity": 120,
      "chip": "ym2612"
    },
    {
      "channel": 2,
      "note": 91,
      "start": 9.5807,
      "duration": 0.1027,
      "velocity": 106,
      "chip": "ym2612"
    },
    {
      "channel": 3,
      "note": 86,
      "start": 9.5816,
      "duration": 0.1027,
      "velocity": 106,
      "chip": "ym2612"
    },
    {
      "channel": 0,
      "note": 88,
      "start": 9.6827,
      "duration": 0.1995,
      "velocity": 110,
      "chip": "ym2612"
    },
    {
      "channel": 1,
      "note": 63,
      "start": 9.6834,
      "duration": 0.1999,
      "velocity": 101,
      "chip": "ym2612"
    },
    {
      "channel": 2,
      "note": 90,
      "start": 9.6841,
      "duration": 0.096,
      "velocity": 106,
      "chip": "ym2612"
    },
    {
      "channel": 3,
      "note": 86,
      "start": 9.685,
      "duration": 0.0959,
      "velocity": 106,
      "chip": "ym2612"
    },
    {
      "channel": 4,
      "note": 87,
      "start": 9.6859,
      "duration": 0.202,
      "velocity": 110,
      "chip": "ym2612"
    },
    {
      "channel": 5,
      "note": 32,
      "start": 9.6866,
      "duration": 0.1279,
      "velocity": 114,
      "chip": "ym2612"
    },
    {
      "channel": 2,
      "note": 88,
      "start": 9.7807,
      "duration": 0.1032,
      "velocity": 106,
      "chip": "ym2612"
    },
    {
      "channel": 3,
      "note": 83,
      "start": 9.7816,
      "duration": 0.1054,
      "velocity": 110,
      "chip": "ym2612"
    },
    {
      "channel": 0,
      "note": 88,
      "start": 9.8829,
      "duration": 0.4157,
      "velocity": 110,
      "chip": "ym2612"
    },
    {
      "channel": 1,
      "note": 52,
      "start": 9.8838,
      "duration": 0.4151,
      "velocity": 101,
      "chip": "ym2612"
    },
    {
      "channel": 2,
      "note": 76,
      "start": 9.8846,
      "duration": 0.4146,
      "velocity": 106,
      "chip": "ym2612"
    },
    {
      "channel": 3,
      "note": 83,
      "start": 9.8877,
      "duration": 0.412,
      "velocity": 110,
      "chip": "ym2612"
    },
    {
      "channel": 4,
      "note": 88,
      "start": 9.8885,
      "duration": 0.1924,
      "velocity": 110,
      "chip": "ym2612"
    },
    {
      "channel": 5,
      "note": 32,
      "start": 9.8893,
      "duration": 0.1253,
      "velocity": 114,
      "chip": "ym2612"
    },
    {
      "channel": 4,
      "note": 88,
      "start": 10.0816,
      "duration": 0.4202,
      "velocity": 110,
      "chip": "ym2612"
    },
    {
      "channel": 5,
      "note": 75,
      "start": 10.3009,
      "duration": 0.1952,
      "velocity": 120,
      "chip": "ym2612"
    },
    {
      "channel": 0,
      "note": 85,
      "start": 10.4993,
      "duration": 0.216,
      "velocity": 110,
      "chip": "ym2612"
    },
    {
      "channel": 1,
      "note": 49,
      "start": 10.5,
      "duration": 0.2161,
      "velocity": 101,
      "chip": "ym2612"
    },
    {
      "channel": 2,
      "note": 73,
      "start": 10.5008,
      "duration": 0.216,
      "velocity": 106,
      "chip": "ym2612"
    },
    {
      "channel": 3,
      "note": 80,
      "start": 10.5016,
      "duration": 0.216,
      "velocity": 110,
      "chip": "ym2612"
    },
    {
      "channel": 5,
      "note": 32,
      "start": 10.5028,
      "duration": 0.1449,
      "velocity": 114,
      "chip": "ym2612"
    },
    {
      "channel": 0,
      "note": 86,
      "start": 10.716,
      "duration": 0.3993,
      "velocity": 110,
      "chip": "ym2612"
    },
    {
      "channel": 1,
      "note": 50,
      "start": 10.7167,
      "duration": 0.3994,
      "velocity": 101,
      "chip": "ym2612"
    },
    {
      "channel": 2,
      "note": 74,
      "start": 10.7175,
      "duration": 0.3993,
      "velocity": 106,
      "chip": "ym2612"
    },
    {
      "channel": 3,
      "note": 81,
      "start": 10.7183,
      "duration": 0.3993,
      "velocity": 110,
      "chip": "ym2612"
    },
    {
      "channel": 4,
      "note": 85,
      "start": 10.7191,
      "duration": 0.195,
      "velocity": 110,
      "chip": "ym2612"
    },
    {
      "channel": 5,
      "note": 32,
      "start": 10.72,
      "duration": 0.1279,
      "velocity": 114,
      "chip": "ym2612"
    },
    {
      "channel": 4,
      "note": 86,
      "start": 10.9148,
      "duration": 0.4186,
      "velocity": 110,
      "chip": "ym2612"
    },
    {
      "channel": 0,
      "note": 87,
      "start": 11.116,
      "duration": 0.418,
      "velocity": 110,
      "chip": "ym2612"
    },
    {
      "channel": 1,
      "note": 51,
      "start": 11.1167,
      "duration": 0.4182,
      "velocity": 101,
      "chip": "ym2612"
    },
    {
      "channel": 2,
      "note": 75,
      "start": 11.1175,
      "duration": 0.4181,
      "velocity": 106,
      "chip": "ym2612"
    },
    {
      "channel": 3,
      "note": 82,
      "start": 11.1183,
      "duration": 0.4181,
      "velocity": 110,
      "chip": "ym2612"
    },
    {
      "channel": 5,
      "note": 75,
      "start": 11.1194,
      "duration": 0.21,
      "velocity": 120,
      "chip": "ym2612"
    },
    {
      "channel": 4,
      "note": 87,
      "start": 11.334,
      "duration": 0.4194,
      "velocity": 110,
      "chip": "ym2612"
    },
    {
      "channel": 5,
      "note": 32,
      "start": 11.3348,
      "duration": 0.13,
      "velocity": 114,
      "chip": "ym2612"
    },
    {
      "channel": 0,
      "note": 88,
      "start": 11.5348,
      "duration": 0.2139,
      "velocity": 110,
      "chip": "ym2612"
    },
    {
      "channel": 1,
      "note": 52,
      "start": 11.5355,
      "duration": 0.2138,
      "velocity": 101,
      "chip": "ym2612"
    },
    {
      "channel": 2,
      "note": 83,
      "start": 11.5362,
      "duration": 0.2136,
      "velocity": 106,
      "chip": "ym2612"
    },
    {
      "channel": 3,
      "note": 80,
      "start": 11.5371,
      "duration": 0.2134,
      "velocity": 110,
      "chip": "ym2612"
    },
    {
      "channel": 5,
      "note": 75,
      "start": 11.5381,
      "duration": 0.2079,
      "velocity": 120,
      "chip": "ym2612"
    },
    {
      "channel": 0,
      "note": 88,
      "start": 11.7491,
      "duration": 0.1995,
      "velocity": 110,
      "chip": "ym2612"
    },
    {
      "channel": 1,
      "note": 52,
      "start": 11.7497,
      "duration": 0.1996,
      "velocity": 101,
      "chip": "ym2612"
    },
    {
      "channel": 2,
      "note": 83,
      "start": 11.7504,
      "duration": 0.1995,
      "velocity": 106,
      "chip": "ym2612"
    },
    {
      "channel": 3,
      "note": 80,
      "start": 11.751,
      "duration": 0.1995,
      "velocity": 110,
      "chip": "ym2612"
    },
    {
      "channel": 4,
      "note": 88,
      "start": 11.7541,
      "duration": 0.197,
      "velocity": 110,
      "chip": "ym2612"
    },
    {
      "channel": 5,
      "note": 75,
      "start": 11.7548,
      "duration": 0.1912,
      "velocity": 120,
      "chip": "ym2612"
    },
    {
      "channel": 0,
      "note": 88,
      "start": 11.9491,
      "duration": 0.1995,
      "velocity": 110,
      "chip": "ym2612"
    },
    {
      "channel": 1,
      "note": 52,
      "start": 11.9497,
      "duration": 0.1996,
      "velocity": 101,
      "chip": "ym2612"
    },
    {
      "channel": 2,
      "note": 83,
      "start": 11.9504,
      "duration": 0.1995,
      "velocity": 106,
      "chip": "ym2612"
    },
    {
      "channel": 3,
      "note": 80,
      "start": 11.951,
      "duration": 0.1995,
      "velocity": 110,
      "chip": "ym2612"
    },
    {
      "channel": 4,
      "note": 88,
      "start": 11.9516,
      "duration": 0.1995,
      "velocity": 110,
      "chip": "ym2612"
    },
    {
      "channel": 5,
      "note": 75,
      "start": 11.9524,
      "duration": 0.1937,
      "velocity": 120,
      "chip": "ym2612"
    },
    {
      "channel": 0,
      "note": 88,
      "start": 12.1491,
      "duration": 0.2162,
      "velocity": 110,
      "chip": "ym2612"
    },
    {
      "channel": 1,
      "note": 52,
      "start": 12.1497,
      "duration": 0.2162,
      "velocity": 101,
      "chip": "ym2612"
    },
    {
      "channel": 2,
      "note": 83,
      "start": 12.1504,
      "duration": 0.2161,
      "velocity": 106,
      "chip": "ym2612"
    },
    {
      "channel": 3,
      "note": 80,
      "start": 12.151,
      "duration": 0.2161,
      "velocity": 110,
      "chip": "ym2612"
    },
    {
      "channel": 4,
      "note": 88,
      "start": 12.1516,
      "duration": 0.2161,
      "velocity": 110,
      "chip": "ym2612"
    },
    {
      "channel": 5,
      "note": 75,
      "start": 12.1524,
      "duration": 0.2103,
      "velocity": 120,
      "chip": "ym2612"
    },
    {
      "channel": 0,
      "note": 88,
      "start": 12.3658,
      "duration": 0.197,
      "velocity": 110,
      "chip": "ym2612"
    },
    {
      "channel": 1,
      "note": 52,
      "start": 12.3664,
      "duration": 0.4164,
      "velocity": 101,
      "chip": "ym2612"
    },
    {
      "channel": 2,
      "note": 83,
      "start": 12.367,
      "duration": 0.1964,
      "velocity": 106,
      "chip": "ym2612"
    },
    {
      "channel": 3,
      "note": 80,
      "start": 12.3677,
      "duration": 0.419,
      "velocity": 110,
      "chip": "ym2612"
    },
    {
      "channel": 4,
      "note": 88,
      "start": 12.3683,
      "duration": 0.1958,
      "velocity": 110,
      "chip": "ym2612"
    },
    {
      "channel": 5,
      "note": 75,
      "start": 12.369,
      "duration": 0.2964,
      "velocity": 120,
      "chip": "ym2612"
    },
    {
      "channel": 4,
      "note": 88,
      "start": 12.5646,
      "duration": 0.2228,
      "velocity": 110,
      "chip": "ym2612"
    },
    {
      "channel": 0,
      "note": 88,
      "start": 12.6634,
      "duration": 0.1186,
      "velocity": 110,
      "chip": "ym2612"
    },
    {
      "channel": 2,
      "note": 83,
      "start": 12.6645,
      "duration": 0.1186,
      "velocity": 106,
      "chip": "ym2612"
    },
    {
      "channel": 0,
      "note": 90,
      "start": 12.7827,
      "duration": 0.0968,
      "velocity": 110,
      "chip": "ym2612"
    },
    {
      "channel": 2,
      "note": 86,
      "start": 12.7837,
      "duration": 0.0966,
      "velocity": 106,
      "chip": "ym2612"
    },
    {
      "channel": 3,
      "note": 88,
      "start": 12.7873,
      "duration": 0.0938,
      "velocity": 110,
      "chip": "ym2612"
    },
    {
      "channel": 5,
      "note": 32,
      "start": 12.7884,
      "duration": 0.1259,
      "velocity": 114,
      "chip": "ym2612"
    },
    {
      "channel": 0,
      "note": 91,
      "start": 12.8801,
      "duration": 0.0994,
      "velocity": 110,
      "chip": "ym2612"
    },
    {
      "channel": 2,
      "note": 86,
      "start": 12.881,
      "duration": 0.0993,
      "velocity": 106,
      "chip": "ym2612"
    },
    {
      "channel": 3,
      "note": 90,
      "start": 12.8818,
      "duration": 0.0994,
      "velocity": 110,
      "chip": "ym2612"
    },
    {
      "channel": 4,
      "note": 88,
      "start": 12.8826,
      "duration": 0.0994,
      "velocity": 110,
      "chip": "ym2612"
    },
    {
      "channel": 0,
      "note": 90,
      "start": 12.9801,
      "duration": 0.0993,
      "velocity": 110,
      "chip": "ym2612"
    },
    {
      "channel": 2,
      "note": 86,
      "start": 12.981,
      "duration": 0.0993,
      "velocity": 106,
      "chip": "ym2612"
    },
    {
      "channel": 3,
      "note": 91,
      "start": 12.9818,
      "duration": 0.0994,
      "velocity": 110,
      "chip": "ym2612"
    },
    {
      "channel": 4,
      "note": 90,
      "start": 12.9826,
      "duration": 0.0994,
      "velocity": 110,
      "chip": "ym2612"
    },
    {
      "channel": 0,
      "note": 88,
      "start": 13.0801,
      "duration": 0.1046,
      "velocity": 106,
      "chip": "ym2612"
    },
    {
      "channel": 2,
      "note": 83,
      "start": 13.081,
      "duration": 0.1076,
      "velocity": 106,
      "chip": "ym2612"
    },
    {
      "channel": 3,
      "note": 90,
      "start": 13.0818,
      "duration": 0.1104,
      "velocity": 106,
      "chip": "ym2612"
    },
    {
      "channel": 4,
      "note": 91,
      "start": 13.0826,
      "duration": 0.1104,
      "velocity": 110,
      "chip": "ym2612"
    },
    {
      "channel": 0,
      "note": 83,
      "start": 13.1853,
      "duration": 0.4133,
      "velocity": 106,
      "chip": "ym2612"
    },
    {
      "channel": 1,
      "note": 52,
      "start": 13.1862,
      "duration": 0.4128,
      "velocity": 101,
      "chip": "ym2612"
    },
    {
      "channel": 2,
      "note": 76,
      "start": 13.1892,
      "duration": 0.41,
      "velocity": 106,
      "chip": "ym2612"
    },
    {
      "channel": 3,
      "note": 80,
      "start": 13.1928,
      "duration": 0.4068,
      "velocity": 106,
      "chip": "ym2612"
    },
    {
      "channel": 4,
      "note": 90,
      "start": 13.1937,
      "duration": 0.0871,
      "velocity": 110,
      "chip": "ym2612"
    },
    {
      "channel": 5,
      "note": 32,
      "start": 13.1945,
      "duration": 0.1367,
      "velocity": 114,
      "chip": "ym2612"
    },
    {
      "channel": 4,
      "note": 88,
      "start": 13.2815,
      "duration": 0.1188,
      "velocity": 106,
      "chip": "ym2612"
    },
    {
      "channel": 4,
      "note": 83,
      "start": 13.4009,
      "duration": 0.4002,
      "velocity": 106,
      "chip": "ym2612"
    },
    {
      "channel": 5,
      "note": 75,
      "start": 13.6009,
      "duration": 0.1952,
      "velocity": 120,
      "chip": "ym2612"
    },
    {
      "channel": 0,
      "note": 83,
      "start": 13.7993,
      "duration": 0.216,
      "velocity": 106,
      "chip": "ym2612"
    },
    {
      "channel": 1,
      "note": 49,
      "start": 13.8,
      "duration": 0.2161,
      "velocity": 101,
      "chip": "ym2612"
    },
    {
      "channel": 3,
      "note": 80,
      "start": 13.8009,
      "duration": 0.2172,
      "velocity": 106,
      "chip": "ym2612"
    },
    {
      "channel": 5,
      "note": 32,
      "start": 13.802,
      "duration": 0.1454,
      "velocity": 114,
      "chip": "ym2612"
    },
    {
      "channel": 0,
      "note": 86,
      "start": 14.016,
      "duration": 0.416,
      "velocity": 106,
      "chip": "ym2612"
    },
    {
      "channel": 1,
      "note": 50,
      "start": 14.0167,
      "duration": 0.4161,
      "velocity": 101,
      "chip": "ym2612"
    },
    {
      "channel": 2,
      "note": 83,
      "start": 14.018,
      "duration": 0.1955,
      "velocity": 106,
      "chip": "ym2612"
    },
    {
      "channel": 3,
      "note": 83,
      "start": 14.0188,
      "duration": 0.415,
      "velocity": 106,
      "chip": "ym2612"
    },
    {
      "channel": 4,
      "note": 83,
      "start": 14.0196,
      "duration": 0.195,
      "velocity": 106,
      "chip": "ym2612"
    },
    {
      "channel": 5,
      "note": 32,
      "start": 14.0204,
      "duration": 0.1275,
      "velocity": 114,
      "chip": "ym2612"
    },
    {
      "channel": 2,
      "note": 86,
      "start": 14.2141,
      "duration": 0.416,
      "velocity": 106,
      "chip": "ym2612"
    },
    {
      "channel": 4,
      "note": 86,
      "start": 14.2153,
      "duration": 0.416,
      "velocity": 106,
      "chip": "ym2612"
    },
    {
      "channel": 0,
      "note": 85,
      "start": 14.4327,
      "duration": 0.2993,
      "velocity": 106,
      "chip": "ym2612"
    },
    {
      "channel": 1,
      "note": 51,
      "start": 14.4334,
      "duration": 0.2994,
      "velocity": 101,
      "chip": "ym2612"
    },
    {
      "channel": 3,
      "note": 82,
      "start": 14.4345,
      "duration": 0.3002,
      "velocity": 106,
      "chip": "ym2612"
    },
    {
      "channel": 5,
      "note": 75,
      "start": 14.4356,
      "duration": 0.2938,
      "velocity": 120,
      "chip": "ym2612"
    },
    {
      "channel": 2,
      "note": 85,
      "start": 14.6307,
      "duration": 0.1032,
      "velocity": 106,
      "chip": "ym2612"
    },
    {
      "channel": 4,
      "note": 85,
      "start": 14.632,
      "duration": 0.3198,
      "velocity": 106,
      "chip": "ym2612"
    },
    {
      "channel": 0,
      "note": 83,
      "start": 14.7327,
      "duration": 0.0969,
      "velocity": 106,
      "chip": "ym2612"
    },
    {
      "channel": 1,
      "note": 52,
      "start": 14.7334,
      "duration": 0.0965,
      "velocity": 101,
      "chip": "ym2612"
    },
    {
      "channel": 2,
      "note": 76,
      "start": 14.7346,
      "duration": 0.0956,
      "velocity": 106,
      "chip": "ym2612"
    },
    {
      "channel": 3,
      "note": 80,
      "start": 14.7354,
      "duration": 0.0951,
      "velocity": 106,
      "chip": "ym2612"
    },
    {
      "channel": 5,
      "note": 32,
      "start": 14.7366,
      "duration": 0.127,
      "velocity": 114,
      "chip": "ym2612"
    },
    {
      "channel": 0,
      "note": 83,
      "start": 14.9493,
      "duration": 0.0993,
      "velocity": 106,
      "chip": "ym2612"
    },
    {
      "channel": 1,
      "note": 52,
      "start": 14.95,
      "duration": 0.0993,
      "velocity": 101,
      "chip": "ym2612"
    },
    {
      "channel": 2,
      "note": 76,
      "start": 14.9508,
      "duration": 0.099,
      "velocity": 106,
      "chip": "ym2612"
    },
    {
      "channel": 3,
      "note": 80,
      "start": 14.9516,
      "duration": 0.0988,
      "velocity": 106,
      "chip": "ym2612"
    },
    {
      "channel": 4,
      "note": 83,
      "start": 14.9525,
      "duration": 0.0986,
      "velocity": 106,
      "chip": "ym2612"
    },
    {
      "channel": 5,
      "note": 32,
      "start": 14.9533,
      "duration": 0.0927,
      "velocity": 114,
      "chip": "ym2612"
    },
    {
      "channel": 0,
      "note": 83,
      "start": 15.0491,
      "duration": 0.1995,
      "velocity": 106,
      "chip": "ym2612"
    },
    {
      "channel": 1,
      "note": 52,
      "start": 15.0497,
      "duration": 0.1996,
      "velocity": 101,
      "chip": "ym2612"
    },
    {
      "channel": 2,
      "note": 76,
      "start": 15.0504,
      "duration": 0.1995,
      "velocity": 106,
      "chip": "ym2612"
    },
    {
      "channel": 3,
      "note": 80,
      "start": 15.051,
      "duration": 0.1995,
      "velocity": 106,
      "chip": "ym2612"
    },
    {
      "channel": 5,
      "note": 32,
      "start": 15.0521,
      "duration": 0.1291,
      "velocity": 114,
      "chip": "ym2612"
    },
    {
      "channel": 4,
      "note": 83,
      "start": 15.1482,
      "duration": 0.1029,
      "velocity": 106,
      "chip": "ym2612"
    },
    {
      "channel": 0,
      "note": 83,
      "start": 15.2491,
      "duration": 0.2162,
      "velocity": 106,
      "chip": "ym2612"
    },
    {
      "channel": 1,
      "note": 52,
      "start": 15.2497,
      "duration": 0.2162,
      "velocity": 101,
      "chip": "ym2612"
    },
    {
      "channel": 2,
      "note": 76,
      "start": 15.2504,
      "duration": 0.2163,
      "velocity": 106,
      "chip": "ym2612"
    },
    {
      "channel": 3,
      "note": 80,
      "start": 15.251,
      "duration": 0.2163,
      "velocity": 106,
      "chip": "ym2612"
    },
    {
      "channel": 4,
      "note": 83,
      "start": 15.2516,
      "duration": 0.2163,
      "velocity": 106,
      "chip": "ym2612"
    },
    {
      "channel": 5,
      "note": 75,
      "start": 15.2524,
      "duration": 0.2103,
      "velocity": 120,
      "chip": "ym2612"
    },
    {
      "channel": 0,
      "note": 83,
      "start": 15.4658,
      "duration": 0.1995,
      "velocity": 106,
      "chip": "ym2612"
    },
    {
      "channel": 1,
      "note": 49,
      "start": 15.4665,
      "duration": 0.1996,
      "velocity": 101,
      "chip": "ym2612"
    },
    {
      "channel": 2,
      "note": 76,
      "start": 15.4671,
      "duration": 0.1997,
      "velocity": 106,
      "chip": "ym2612"
    },
    {
      "channel": 3,
      "note": 80,
      "start": 15.4678,
      "duration": 0.1994,
      "velocity": 106,
      "chip": "ym2612"
    },
    {
      "channel": 4,
      "note": 83,
      "start": 15.4684,
      "duration": 0.1996,
      "velocity": 106,
      "chip": "ym2612"
    },
    {
      "channel": 5,
      "note": 32,
      "start": 15.4693,
      "duration": 0.1286,
      "velocity": 114,
      "chip": "ym2612"
    },
    {
      "channel": 0,
      "note": 86,
      "start": 15.666,
      "duration": 0.416,
      "velocity": 106,
      "chip": "ym2612"
    },
    {
      "channel": 1,
      "note": 50,
      "start": 15.6667,
      "duration": 0.1964,
      "velocity": 101,
      "chip": "ym2612"
    },
    {
      "channel": 3,
      "note": 83,
      "start": 15.6678,
      "duration": 0.416,
      "velocity": 106,
      "chip": "ym2612"
    },
    {
      "channel": 4,
      "note": 83,
      "start": 15.6685,
      "duration": 0.1969,
      "velocity": 106,
      "chip": "ym2612"
    },
    {
      "channel": 5,
      "note": 32,
      "start": 15.6693,
      "duration": 0.1283,
      "velocity": 114,
      "chip": "ym2612"
    },
    {
      "channel": 1,
      "note": 62,
      "start": 15.8637,
      "duration": 0.2191,
      "velocity": 101,
      "chip": "ym2612"
    },
    {
      "channel": 2,
      "note": 86,
      "start": 15.8649,
      "duration": 0.4186,
      "velocity": 106,
      "chip": "ym2612"
    },
    {
      "channel": 4,
      "note": 86,
      "start": 15.8661,
      "duration": 0.4191,
      "velocity": 106,
      "chip": "ym2612"
    },
    {
      "channel": 0,
      "note": 85,
      "start": 16.0827,
      "duration": 0.1993,
      "velocity": 106,
      "chip": "ym2612"
    },
    {
      "channel": 1,
      "note": 51,
      "start": 16.0834,
      "duration": 0.1994,
      "velocity": 101,
      "chip": "ym2612"
    },
    {
      "channel": 3,
      "note": 82,
      "start": 16.0845,
      "duration": 0.1998,
      "velocity": 106,
      "chip": "ym2612"
    },
    {
      "channel": 5,
      "note": 75,
      "start": 16.0856,
      "duration": 0.1938,
      "velocity": 120,
      "chip": "ym2612"
    },
    {
      "channel": 0,
      "note": 84,
      "start": 16.2827,
      "duration": 0.1996,
      "velocity": 106,
      "chip": "ym2612"
    },
    {
      "channel": 1,
      "note": 63,
      "start": 16.2834,
      "duration": 0.2,
      "velocity": 101,
      "chip": "ym2612"
    },
    {
      "channel": 2,
      "note": 73,
      "start": 16.2841,
      "duration": 0.2005,
      "velocity": 106,
      "chip": "ym2612"
    },
    {
      "channel": 3,
      "note": 81,
      "start": 16.285,
      "duration": 0.2004,
      "velocity": 106,
      "chip": "ym2612"
    },
    {
      "channel": 4,
      "note": 85,
      "start": 16.2858,
      "duration": 0.2004,
      "velocity": 106,
      "chip": "ym2612"
    },
    {
      "channel": 5,
      "note": 32,
      "start": 16.2866,
      "duration": 0.1279,
      "velocity": 114,
      "chip": "ym2612"
    },
    {
      "channel": 0,
      "note": 83,
      "start": 16.483,
      "duration": 0.4156,
      "velocity": 106,
      "chip": "ym2612"
    },
    {
      "channel": 1,
      "note": 52,
      "start": 16.4839,
      "duration": 0.415,
      "velocity": 101,
      "chip": "ym2612"
    },
    {
      "channel": 2,
      "note": 76,
      "start": 16.4852,
      "duration": 0.4141,
      "velocity": 106,
      "chip": "ym2612"
    },
    {
      "channel": 3,
      "note": 80,
      "start": 16.486,
      "duration": 0.4136,
      "velocity": 106,
      "chip": "ym2612"
    },
    {
      "channel": 4,
      "note": 84,
      "start": 16.4869,
      "duration": 0.2106,
      "velocity": 106,
      "chip": "ym2612"
    },
    {
      "channel": 5,
      "note": 32,
      "start": 16.4876,
      "duration": 0.1436,
      "velocity": 114,
      "chip": "ym2612"
    },
    {
      "channel": 4,
      "note": 83,
      "start": 16.6982,
      "duration": 0.4195,
      "velocity": 106,
      "chip": "ym2612"
    },
    {
      "channel": 5,
      "note": 75,
      "start": 16.9009,
      "duration": 0.2118,
      "velocity": 120,
      "chip": "ym2612"
    },
    {
      "channel": 0,
      "note": 83,
      "start": 17.116,
      "duration": 0.1993,
      "velocity": 106,
      "chip": "ym2612"
    },
    {
      "channel": 1,
      "note": 49,
      "start": 17.1167,
      "duration": 0.1994,
      "velocity": 101,
      "chip": "ym2612"
    },
    {
      "channel": 3,
      "note": 80,
      "start": 17.1176,
      "duration": 0.2005,
      "velocity": 106,
      "chip": "ym2612"
    },
    {
      "channel": 5,
      "note": 32,
      "start": 17.1187,
      "duration": 0.1287,
      "velocity": 114,
      "chip": "ym2612"
    },
    {
      "channel": 0,
      "note": 86,
      "start": 17.316,
      "duration": 0.416,
      "velocity": 106,
      "chip": "ym2612"
    },
    {
      "channel": 1,
      "note": 50,
      "start": 17.3167,
      "duration": 0.4161,
      "velocity": 101,
      "chip": "ym2612"
    },
    {
      "channel": 2,
      "note": 83,
      "start": 17.318,
      "duration": 0.1955,
      "velocity": 106,
      "chip": "ym2612"
    },
    {
      "channel": 3,
      "note": 83,
      "start": 17.3188,
      "duration": 0.415,
      "velocity": 106,
      "chip": "ym2612"
    },
    {
      "channel": 4,
      "note": 83,
      "start": 17.3196,
      "duration": 0.195,
      "velocity": 106,
      "chip": "ym2612"
    },
    {
      "channel": 5,
      "note": 32,
      "start": 17.3204,
      "duration": 0.1275,
      "velocity": 114,
      "chip": "ym2612"
    },
    {
      "channel": 2,
      "note": 86,
      "start": 17.5141,
      "duration": 0.416,
      "velocity": 106,
      "chip": "ym2612"
    },
    {
      "channel": 4,
      "note": 86,
      "start": 17.5153,
      "duration": 0.416,
      "velocity": 106,
      "chip": "ym2612"
    },
    {
      "channel": 0,
      "note": 85,
      "start": 17.7327,
      "duration": 0.2993,
      "velocity": 106,
      "chip": "ym2612"
    },
    {
      "channel": 1,
      "note": 51,
      "start": 17.7334,
      "duration": 0.2994,
      "velocity": 101,
      "chip": "ym2612"
    },
    {
      "channel": 3,
      "note": 82,
      "start": 17.7345,
      "duration": 0.3002,
      "velocity": 106,
      "chip": "ym2612"
    },
    {
      "channel": 5,
      "note": 75,
      "start": 17.7356,
      "duration": 0.2938,
      "velocity": 120,
      "chip": "ym2612"
    },
    {
      "channel": 2,
      "note": 85,
      "start": 17.9307,
      "duration": 0.1032,
      "velocity": 106,
      "chip": "ym2612"
    },
    {
      "channel": 4,
      "note": 85,
      "start": 17.932,
      "duration": 0.3198,
      "velocity": 106,
      "chip": "ym2612"
    },
    {
      "channel": 0,
      "note": 83,
      "start": 18.0327,
      "duration": 0.1135,
      "velocity": 106,
      "chip": "ym2612"
    },
    {
      "channel": 1,
      "note": 52,
      "start": 18.0334,
      "duration": 0.1132,
      "velocity": 101,
      "chip": "ym2612"
    },
    {
      "channel": 2,
      "note": 76,
      "start": 18.0346,
      "duration": 0.1123,
      "velocity": 106,
      "chip": "ym2612"
    },
    {
      "channel": 3,
      "note": 80,
      "start": 18.0354,
      "duration": 0.1118,
      "velocity": 106,
      "chip": "ym2612"
    },
    {
      "channel": 5,
      "note": 32,
      "start": 18.0366,
      "duration": 0.1436,
      "velocity": 114,
      "chip": "ym2612"
    },
    {
      "channel": 0,
      "note": 83,
      "start": 18.2493,
      "duration": 0.0993,
      "velocity": 106,
      "chip": "ym2612"
    },
    {
      "channel": 1,
      "note": 52,
      "start": 18.25,
      "duration": 0.0993,
      "velocity": 101,
      "chip": "ym2612"
    },
    {
      "channel": 2,
      "note": 76,
      "start": 18.2508,
      "duration": 0.099,
      "velocity": 106,
      "chip": "ym2612"
    },
    {
      "channel": 3,
      "note": 80,
      "start": 18.2516,
      "duration": 0.0988,
      "velocity": 106,
      "chip": "ym2612"
    },
    {
      "channel": 4,
      "note": 83,
      "start": 18.2525,
      "duration": 0.0986,
      "velocity": 106,
      "chip": "ym2612"
    },
    {
      "channel": 5,
      "note": 32,
      "start": 18.2533,
      "duration": 0.0927,
      "velocity": 114,
      "chip": "ym2612"
    },
    {
      "channel": 0,
      "note": 83,
      "start": 18.3491,
      "duration": 0.1995,
      "velocity": 106,
      "chip": "ym2612"
    },
    {
      "channel": 1,
      "note": 52,
      "start": 18.3497,
      "duration": 0.1996,
      "velocity": 101,
      "chip": "ym2612"
    },
    {
      "channel": 2,
      "note": 76,
      "start": 18.3504,
      "duration": 0.1995,
      "velocity": 106,
      "chip": "ym2612"
    },
    {
      "channel": 3,
      "note": 80,
      "start": 18.351,
      "duration": 0.1995,
      "velocity": 106,
      "chip": "ym2612"
    },
    {
      "channel": 5,
      "note": 32,
      "start": 18.3521,
      "duration": 0.1291,
      "velocity": 114,
      "chip": "ym2612"
    },
    {
      "channel": 4,
      "note": 83,
      "start": 18.4482,
      "duration": 0.1029,
      "velocity": 106,
      "chip": "ym2612"
    },
    {
      "channel": 0,
      "note": 83,
      "start": 18.5491,
      "duration": 0.2162,
      "velocity": 106,
      "chip": "ym2612"
    },
    {
      "channel": 1,
      "note": 52,
      "start": 18.5497,
      "duration": 0.2162,
      "velocity": 101,
      "chip": "ym2612"
    },
    {
      "channel": 2,
      "note": 76,
      "start": 18.5504,
      "duration": 0.2163,
      "velocity": 106,
      "chip": "ym2612"
    },
    {
      "channel": 3,
      "note": 80,
      "start": 18.551,
      "duration": 0.2163,
      "velocity": 106,
      "chip": "ym2612"
    },
    {
      "channel": 4,
      "note": 83,
      "start": 18.5516,
      "duration": 0.2163,
      "velocity": 106,
      "chip": "ym2612"
    },
    {
      "channel": 5,
      "note": 75,
      "start": 18.5524,
      "duration": 0.2103,
      "velocity": 120,
      "chip": "ym2612"
    },
    {
      "channel": 0,
      "note": 83,
      "start": 18.7658,
      "duration": 0.1995,
      "velocity": 106,
      "chip": "ym2612"
    },
    {
      "channel": 1,
      "note": 49,
      "start": 18.7665,
      "duration": 0.1991,
      "velocity": 101,
      "chip": "ym2612"
    },
    {
      "channel": 2,
      "note": 76,
      "start": 18.7671,
      "duration": 0.1992,
      "velocity": 106,
      "chip": "ym2612"
    },
    {
      "channel": 3,
      "note": 80,
      "start": 18.7678,
      "duration": 0.1989,
      "velocity": 106,
      "chip": "ym2612"
    },
    {
      "channel": 4,
      "note": 83,
      "start": 18.7684,
      "duration": 0.1986,
      "velocity": 106,
      "chip": "ym2612"
    },
    {
      "channel": 5,
      "note": 32,
      "start": 18.7693,
      "duration": 0.1286,
      "velocity": 114,
      "chip": "ym2612"
    },
    {
      "channel": 1,
      "note": 50,
      "start": 18.9662,
      "duration": 0.2141,
      "velocity": 101,
      "chip": "ym2612"
    },
    {
      "channel": 4,
      "note": 83,
      "start": 18.9675,
      "duration": 0.2151,
      "velocity": 106,
      "chip": "ym2612"
    },
    {
      "channel": 5,
      "note": 32,
      "start": 18.9683,
      "duration": 0.1288,
      "velocity": 114,
      "chip": "ym2612"
    },
    {
      "channel": 0,
      "note": 88,
      "start": 19.1801,
      "duration": 0.2019,
      "velocity": 106,
      "chip": "ym2612"
    },
    {
      "channel": 1,
      "note": 62,
      "start": 19.1808,
      "duration": 0.2018,
      "velocity": 101,
      "chip": "ym2612"
    },
    {
      "channel": 2,
      "note": 80,
      "start": 19.1816,
      "duration": 0.2017,
      "velocity": 106,
      "chip": "ym2612"
    },
    {
      "channel": 3,
      "note": 83,
      "start": 19.1825,
      "duration": 0.2015,
      "velocity": 106,
      "chip": "ym2612"
    },
    {
      "channel": 0,
      "note": 88,
      "start": 19.3825,
      "duration": 0.4187,
      "velocity": 106,
      "chip": "ym2612"
    },
    {
      "channel": 1,
      "note": 51,
      "start": 19.3832,
      "duration": 0.1992,
      "velocity": 101,
      "chip": "ym2612"
    },
    {
      "channel": 2,
      "note": 80,
      "start": 19.3838,
      "duration": 0.4214,
      "velocity": 106,
      "chip": "ym2612"
    },
    {
      "channel": 3,
      "note": 83,
      "start": 19.3844,
      "duration": 0.4239,
      "velocity": 106,
      "chip": "ym2612"
    },
    {
      "channel": 4,
      "note": 88,
      "start": 19.3853,
      "duration": 0.1985,
      "velocity": 106,
      "chip": "ym2612"
    },
    {
      "channel": 5,
      "note": 75,
      "start": 19.386,
      "duration": 0.1933,
      "velocity": 120,
      "chip": "ym2612"
    },
    {
      "channel": 1,
      "note": 63,
      "start": 19.5829,
      "duration": 0.2193,
      "velocity": 101,
      "chip": "ym2612"
    },
    {
      "channel": 4,
      "note": 88,
      "start": 19.5843,
      "duration": 0.4155,
      "velocity": 106,
      "chip": "ym2612"
    },
    {
      "channel": 5,
      "note": 32,
      "start": 19.5851,
      "duration": 0.1464,
      "velocity": 114,
      "chip": "ym2612"
    },
    {
      "channel": 0,
      "note": 83,
      "start": 19.8018,
      "duration": 0.3968,
      "velocity": 106,
      "chip": "ym2612"
    },
    {
      "channel": 1,
      "note": 52,
      "start": 19.8028,
      "duration": 0.3961,
      "velocity": 101,
      "chip": "ym2612"
    },
    {
      "channel": 2,
      "note": 76,
      "start": 19.8058,
      "duration": 0.3934,
      "velocity": 106,
      "chip": "ym2612"
    },
    {
      "channel": 3,
      "note": 80,
      "start": 19.809,
      "duration": 0.3907,
      "velocity": 106,
      "chip": "ym2612"
    },
    {
      "channel": 5,
      "note": 32,
      "start": 19.8102,
      "duration": 0.1212,
      "velocity": 114,
      "chip": "ym2612"
    },
    {
      "channel": 4,
      "note": 83,
      "start": 20.0005,
      "duration": 0.4172,
      "velocity": 106,
      "chip": "ym2612"
    },
    {
      "channel": 5,
      "note": 75,
      "start": 20.2009,
      "duration": 0.2118,
      "velocity": 120,
      "chip": "ym2612"
    },
    {
      "channel": 0,
      "note": 83,
      "start": 20.416,
      "duration": 0.1993,
      "velocity": 106,
      "chip": "ym2612"
    },
    {
      "channel": 1,
      "note": 49,
      "start": 20.4167,
      "duration": 0.1994,
      "velocity": 101,
      "chip": "ym2612"
    },
    {
      "channel": 3,
      "note": 80,
      "start": 20.4176,
      "duration": 0.2005,
      "velocity": 106,
      "chip": "ym2612"
    },
    {
      "channel": 5,
      "note": 32,
      "start": 20.4187,
      "duration": 0.1287,
      "velocity": 114,
      "chip": "ym2612"
    },
    {
      "channel": 0,
      "note": 86,
      "start": 20.616,
      "duration": 0.416,
      "velocity": 106,
      "chip": "ym2612"
    },
    {
      "channel": 1,
      "note": 50,
      "start": 20.6167,
      "duration": 0.4161,
      "velocity": 101,
      "chip": "ym2612"
    },
    {
      "channel": 2,
      "note": 83,
      "start": 20.618,
      "duration": 0.2121,
      "velocity": 106,
      "chip": "ym2612"
    },
    {
      "channel": 3,
      "note": 83,
      "start": 20.6188,
      "duration": 0.415,
      "velocity": 106,
      "chip": "ym2612"
    },
    {
      "channel": 4,
      "note": 83,
      "start": 20.6196,
      "duration": 0.2117,
      "velocity": 106,
      "chip": "ym2612"
    },
    {
      "channel": 5,
      "note": 32,
      "start": 20.6204,
      "duration": 0.1275,
      "velocity": 114,
      "chip": "ym2612"
    },
    {
      "channel": 2,
      "note": 86,
      "start": 20.8307,
      "duration": 0.3994,
      "velocity": 106,
      "chip": "ym2612"
    },
    {
      "channel": 4,
      "note": 86,
      "start": 20.832,
      "duration": 0.3993,
      "velocity": 106,
      "chip": "ym2612"
    },
    {
      "channel": 0,
      "note": 85,
      "start": 21.0327,
      "duration": 0.316,
      "velocity": 106,
      "chip": "ym2612"
    },
    {
      "channel": 1,
      "note": 51,
      "start": 21.0334,
      "duration": 0.3161,
      "velocity": 101,
      "chip": "ym2612"
    },
    {
      "channel": 3,
      "note": 82,
      "start": 21.0345,
      "duration": 0.3168,
      "velocity": 106,
      "chip": "ym2612"
    },
    {
      "channel": 5,
      "note": 75,
      "start": 21.0356,
      "duration": 0.3104,
      "velocity": 120,
      "chip": "ym2612"
    },
    {
      "channel": 2,
      "note": 85,
      "start": 21.2307,
      "duration": 0.1199,
      "velocity": 106,
      "chip": "ym2612"
    },
    {
      "channel": 4,
      "note": 85,
      "start": 21.232,
      "duration": 0.3198,
      "velocity": 106,
      "chip": "ym2612"
    },
    {
      "channel": 0,
      "note": 83,
      "start": 21.3493,
      "duration": 0.0969,
      "velocity": 106,
      "chip": "ym2612"
    },
    {
      "channel": 1,
      "note": 52,
      "start": 21.35,
      "duration": 0.0965,
      "velocity": 101,
      "chip": "ym2612"
    },
    {
      "channel": 2,
      "note": 76,
      "start": 21.3512,
      "duration": 0.0956,
      "velocity": 106,
      "chip": "ym2612"
    },
    {
      "channel": 3,
      "note": 80,
      "start": 21.3521,
      "duration": 0.0951,
      "velocity": 106,
      "chip": "ym2612"
    },
    {
      "channel": 5,
      "note": 32,
      "start": 21.3532,
      "duration": 0.127,
      "velocity": 114,
      "chip": "ym2612"
    },
    {
      "channel": 0,
      "note": 83,
      "start": 21.5493,
      "duration": 0.0993,
      "velocity": 106,
      "chip": "ym2612"
    },
    {
      "channel": 1,
      "note": 52,
      "start": 21.55,
      "duration": 0.0993,
      "velocity": 101,
      "chip": "ym2612"
    },
    {
      "channel": 2,
      "note": 76,
      "start": 21.5508,
      "duration": 0.099,
      "velocity": 106,
      "chip": "ym2612"
    },
    {
      "channel": 3,
      "note": 80,
      "start": 21.5516,
      "duration": 0.0988,
      "velocity": 106,
      "chip": "ym2612"
    },
    {
      "channel": 4,
      "note": 83,
      "start": 21.5525,
      "duration": 0.0986,
      "velocity": 106,
      "chip": "ym2612"
    },
    {
      "channel": 5,
      "note": 32,
      "start": 21.5533,
      "duration": 0.0927,
      "velocity": 114,
      "chip": "ym2612"
    },
    {
      "channel": 0,
      "note": 83,
      "start": 21.6491,
      "duration": 0.2162,
      "velocity": 106,
      "chip": "ym2612"
    },
    {
      "channel": 1,
      "note": 52,
      "start": 21.6497,
      "duration": 0.2162,
      "velocity": 101,
      "chip": "ym2612"
    },
    {
      "channel": 2,
      "note": 76,
      "start": 21.6504,
      "duration": 0.2161,
      "velocity": 106,
      "chip": "ym2612"
    },
    {
      "channel": 3,
      "note": 80,
      "start": 21.651,
      "duration": 0.2161,
      "velocity": 106,
      "chip": "ym2612"
    },
    {
      "channel": 5,
      "note": 32,
      "start": 21.6521,
      "duration": 0.1291,
      "velocity": 114,
      "chip": "ym2612"
    },
    {
      "channel": 4,
      "note": 83,
      "start": 21.7482,
      "duration": 0.1196,
      "velocity": 106,
      "chip": "ym2612"
    },
    {
      "channel": 0,
      "note": 83,
      "start": 21.8658,
      "duration": 0.1995,
      "velocity": 106,
      "chip": "ym2612"
    },
    {
      "channel": 1,
      "note": 52,
      "start": 21.8664,
      "duration": 0.1996,
      "velocity": 101,
      "chip": "ym2612"
    },
    {
      "channel": 2,
      "note": 76,
      "start": 21.867,
      "duration": 0.1996,
      "velocity": 106,
      "chip": "ym2612"
    },
    {
      "channel": 3,
      "note": 80,
      "start": 21.8677,
      "duration": 0.1996,
      "velocity": 106,
      "chip": "ym2612"
    },
    {
      "channel": 4,
      "note": 83,
      "start": 21.8683,
      "duration": 0.1996,
      "velocity": 106,
      "chip": "ym2612"
    },
    {
      "channel": 5,
      "note": 75,
      "start": 21.869,
      "duration": 0.1937,
      "velocity": 120,
      "chip": "ym2612"
    },
    {
      "channel": 0,
      "note": 83,
      "start": 22.0658,
      "duration": 0.1995,
      "velocity": 106,
      "chip": "ym2612"
    },
    {
      "channel": 1,
      "note": 49,
      "start": 22.0665,
      "duration": 0.1996,
      "velocity": 101,
      "chip": "ym2612"
    },
    {
      "channel": 2,
      "note": 76,
      "start": 22.0671,
      "duration": 0.1997,
      "velocity": 106,
      "chip": "ym2612"
    },
    {
      "channel": 3,
      "note": 80,
      "start": 22.0678,
      "duration": 0.1994,
      "velocity": 106,
      "chip": "ym2612"
    },
    {
      "channel": 4,
      "note": 83,
      "start": 22.0684,
      "duration": 0.1996,
      "velocity": 106,
      "chip": "ym2612"
    },
    {
      "channel": 5,
      "note": 32,
      "start": 22.0693,
      "duration": 0.1286,
      "velocity": 114,
      "chip": "ym2612"
    },
    {
      "channel": 0,
      "note": 86,
      "start": 22.266,
      "duration": 0.416,
      "velocity": 106,
      "chip": "ym2612"
    },
    {
      "channel": 1,
      "note": 50,
      "start": 22.2667,
      "duration": 0.2131,
      "velocity": 101,
      "chip": "ym2612"
    },
    {
      "channel": 3,
      "note": 83,
      "start": 22.2678,
      "duration": 0.416,
      "velocity": 106,
      "chip": "ym2612"
    },
    {
      "channel": 4,
      "note": 83,
      "start": 22.2685,
      "duration": 0.2136,
      "velocity": 106,
      "chip": "ym2612"
    },
    {
      "channel": 5,
      "note": 32,
      "start": 22.2693,
      "duration": 0.145,
      "velocity": 114,
      "chip": "ym2612"
    },
    {
      "channel": 1,
      "note": 62,
      "start": 22.4803,
      "duration": 0.2025,
      "velocity": 101,
      "chip": "ym2612"
    },
    {
      "channel": 2,
      "note": 86,
      "start": 22.4816,
      "duration": 0.4019,
      "velocity": 106,
      "chip": "ym2612"
    },
    {
      "channel": 4,
      "note": 86,
      "start": 22.4828,
      "duration": 0.4024,
      "velocity": 106,
      "chip": "ym2612"
    },
    {
      "channel": 0,
      "note": 85,
      "start": 22.6827,
      "duration": 0.1993,
      "velocity": 106,
      "chip": "ym2612"
    },
    {
      "channel": 1,
      "note": 51,
      "start": 22.6834,
      "duration": 0.1994,
      "velocity": 101,
      "chip": "ym2612"
    },
    {
      "channel": 3,
      "note": 82,
      "start": 22.6845,
      "duration": 0.1998,
      "velocity": 106,
      "chip": "ym2612"
    },
    {
      "channel": 5,
      "note": 75,
      "start": 22.6856,
      "duration": 0.1938,
      "velocity": 120,
      "chip": "ym2612"
    },
    {
      "channel": 0,
      "note": 84,
      "start": 22.8827,
      "duration": 0.2161,
      "velocity": 106,
      "chip": "ym2612"
    },
    {
      "channel": 1,
      "note": 63,
      "start": 22.8834,
      "duration": 0.2166,
      "velocity": 101,
      "chip": "ym2612"
    },
    {
      "channel": 2,
      "note": 73,
      "start": 22.8841,
      "duration": 0.217,
      "velocity": 106,
      "chip": "ym2612"
    },
    {
      "channel": 3,
      "note": 81,
      "start": 22.885,
      "duration": 0.2169,
      "velocity": 106,
      "chip": "ym2612"
    },
    {
      "channel": 4,
      "note": 85,
      "start": 22.8858,
      "duration": 0.2169,
      "velocity": 106,
      "chip": "ym2612"
    },
    {
      "channel": 5,
      "note": 32,
      "start": 22.8866,
      "duration": 0.1446,
      "velocity": 114,
      "chip": "ym2612"
    },
    {
      "channel": 0,
      "note": 83,
      "start": 23.0995,
      "duration": 0.4158,
      "velocity": 106,
      "chip": "ym2612"
    },
    {
      "channel": 1,
      "note": 52,
      "start": 23.1005,
      "duration": 0.4151,
      "velocity": 101,
      "chip": "ym2612"
    },
    {
      "channel": 2,
      "note": 76,
      "start": 23.1017,
      "duration": 0.4142,
      "velocity": 106,
      "chip": "ym2612"
    },
    {
      "channel": 3,
      "note": 80,
      "start": 23.1026,
      "duration": 0.4137,
      "velocity": 106,
      "chip": "ym2612"
    },
    {
      "channel": 4,
      "note": 84,
      "start": 23.1034,
      "duration": 0.1941,
      "velocity": 106,
      "chip": "ym2612"
    },
    {
      "channel": 5,
      "note": 32,
      "start": 23.1042,
      "duration": 0.127,
      "velocity": 114,
      "chip": "ym2612"
    },
    {
      "channel": 4,
      "note": 83,
      "start": 23.2982,
      "duration": 0.4195,
      "velocity": 106,
      "chip": "ym2612"
    },
    {
      "channel": 5,
      "note": 75,
      "start": 23.5175,
      "duration": 0.1952,
      "velocity": 120,
      "chip": "ym2612"
    },
    {
      "channel": 0,
      "note": 83,
      "start": 23.716,
      "duration": 0.1993,
      "velocity": 106,
      "chip": "ym2612"
    },
    {
      "channel": 1,
      "note": 49,
      "start": 23.7167,
      "duration": 0.1994,
      "velocity": 101,
      "chip": "ym2612"
    },
    {
      "channel": 3,
      "note": 80,
      "start": 23.7176,
      "duration": 0.2005,
      "velocity": 106,
      "chip": "ym2612"
    },
    {
      "channel": 5,
      "note": 32,
      "start": 23.7187,
      "duration": 0.1287,
      "velocity": 114,
      "chip": "ym2612"
    },
    {
      "channel": 0,
      "note": 86,
      "start": 23.916,
      "duration": 0.416,
      "velocity": 106,
      "chip": "ym2612"
    },
    {
      "channel": 1,
      "note": 50,
      "start": 23.9167,
      "duration": 0.4161,
      "velocity": 101,
      "chip": "ym2612"
    },
    {
      "channel": 2,
      "note": 83,
      "start": 23.918,
      "duration": 0.2121,
      "velocity": 106,
      "chip": "ym2612"
    },
    {
      "channel": 3,
      "note": 83,
      "start": 23.9188,
      "duration": 0.415,
      "velocity": 106,
      "chip": "ym2612"
    },
    {
      "channel": 4,
      "note": 83,
      "start": 23.9196,
      "duration": 0.2117,
      "velocity": 106,
      "chip": "ym2612"
    },
    {
      "channel": 5,
      "note": 32,
      "start": 23.9204,
      "duration": 0.1441,
      "velocity": 114,
      "chip": "ym2612"
    },
    {
      "channel": 2,
      "note": 86,
      "start": 24.1307,
      "duration": 0.416,
      "velocity": 106,
      "chip": "ym2612"
    },
    {
      "channel": 4,
      "note": 86,
      "start": 24.132,
      "duration": 0.416,
      "velocity": 106,
      "chip": "ym2612"
    },
    {
      "channel": 0,
      "note": 85,
      "start": 24.3327,
      "duration": 0.316,
      "velocity": 106,
      "chip": "ym2612"
    },
    {
      "channel": 1,
      "note": 51,
      "start": 24.3334,
      "duration": 0.3161,
      "velocity": 101,
      "chip": "ym2612"
    },
    {
      "channel": 3,
      "note": 82,
      "start": 24.3345,
      "duration": 0.3168,
      "velocity": 106,
      "chip": "ym2612"
    },
    {
      "channel": 5,
      "note": 75,
      "start": 24.3356,
      "duration": 0.3104,
      "velocity": 120,
      "chip": "ym2612"
    },
    {
      "channel": 2,
      "note": 85,
      "start": 24.5474,
      "duration": 0.1032,
      "velocity": 106,
      "chip": "ym2612"
    },
    {
      "channel": 4,
      "note": 85,
      "start": 24.5486,
      "duration": 0.3032,
      "velocity": 106,
      "chip": "ym2612"
    },
    {
      "channel": 0,
      "note": 83,
      "start": 24.6493,
      "duration": 0.0969,
      "velocity": 106,
      "chip": "ym2612"
    },
    {
      "channel": 1,
      "note": 52,
      "start": 24.65,
      "duration": 0.0965,
      "velocity": 101,
      "chip": "ym2612"
    },
    {
      "channel": 2,
      "note": 76,
      "start": 24.6512,
      "duration": 0.0956,
      "velocity": 106,
      "chip": "ym2612"
    },
    {
      "channel": 3,
      "note": 80,
      "start": 24.6521,
      "duration": 0.0951,
      "velocity": 106,
      "chip": "ym2612"
    },
    {
      "channel": 5,
      "note": 32,
      "start": 24.6532,
      "duration": 0.127,
      "velocity": 114,
      "chip": "ym2612"
    },
    {
      "channel": 0,
      "note": 83,
      "start": 24.8493,
      "duration": 0.0993,
      "velocity": 106,
      "chip": "ym2612"
    },
    {
      "channel": 1,
      "note": 52,
      "start": 24.85,
      "duration": 0.0993,
      "velocity": 101,
      "chip": "ym2612"
    },
    {
      "channel": 2,
      "note": 76,
      "start": 24.8508,
      "duration": 0.099,
      "velocity": 106,
      "chip": "ym2612"
    },
    {
      "channel": 3,
      "note": 80,
      "start": 24.8516,
      "duration": 0.0988,
      "velocity": 106,
      "chip": "ym2612"
    },
    {
      "channel": 4,
      "note": 83,
      "start": 24.8525,
      "duration": 0.0986,
      "velocity": 106,
      "chip": "ym2612"
    },
    {
      "channel": 5,
      "note": 32,
      "start": 24.8533,
      "duration": 0.0927,
      "velocity": 114,
      "chip": "ym2612"
    },
    {
      "channel": 0,
      "note": 83,
      "start": 24.9491,
      "duration": 0.2162,
      "velocity": 106,
      "chip": "ym2612"
    },
    {
      "channel": 1,
      "note": 52,
      "start": 24.9497,
      "duration": 0.2162,
      "velocity": 101,
      "chip": "ym2612"
    },
    {
      "channel": 2,
      "note": 76,
      "start": 24.9504,
      "duration": 0.2161,
      "velocity": 106,
      "chip": "ym2612"
    },
    {
      "channel": 3,
      "note": 80,
      "start": 24.951,
      "duration": 0.2161,
      "velocity": 106,
      "chip": "ym2612"
    },
    {
      "channel": 5,
      "note": 32,
      "start": 24.9521,
      "duration": 0.1457,
      "velocity": 114,
      "chip": "ym2612"
    },
    {
      "channel": 4,
      "note": 83,
      "start": 25.0648,
      "duration": 0.103,
      "velocity": 106,
      "chip": "ym2612"
    },
    {
      "channel": 0,
      "note": 83,
      "start": 25.1658,
      "duration": 0.1995,
      "velocity": 106,
      "chip": "ym2612"
    },
    {
      "channel": 1,
      "note": 52,
      "start": 25.1664,
      "duration": 0.1996,
      "velocity": 101,
      "chip": "ym2612"
    },
    {
      "channel": 2,
      "note": 76,
      "start": 25.167,
      "duration": 0.1996,
      "velocity": 106,
      "chip": "ym2612"
    },
    {
      "channel": 3,
      "note": 80,
      "start": 25.1677,
      "duration": 0.1996,
      "velocity": 106,
      "chip": "ym2612"
    },
    {
      "channel": 4,
      "note": 83,
      "start": 25.1683,
      "duration": 0.1996,
      "velocity": 106,
      "chip": "ym2612"
    },
    {
      "channel": 5,
      "note": 75,
      "start": 25.169,
      "duration": 0.1937,
      "velocity": 120,
      "chip": "ym2612"
    },
    {
      "channel": 0,
      "note": 83,
      "start": 25.3658,
      "duration": 0.2162,
      "velocity": 106,
      "chip": "ym2612"
    },
    {
      "channel": 1,
      "note": 49,
      "start": 25.3665,
      "duration": 0.2159,
      "velocity": 101,
      "chip": "ym2612"
    },
    {
      "channel": 2,
      "note": 76,
      "start": 25.3671,
      "duration": 0.2159,
      "velocity": 106,
      "chip": "ym2612"
    },
    {
      "channel": 3,
      "note": 80,
      "start": 25.3678,
      "duration": 0.2156,
      "velocity": 106,
      "chip": "ym2612"
    },
    {
      "channel": 4,
      "note": 83,
      "start": 25.3684,
      "duration": 0.2153,
      "velocity": 106,
      "chip": "ym2612"
    },
    {
      "channel": 5,
      "note": 32,
      "start": 25.3693,
      "duration": 0.1286,
      "velocity": 114,
      "chip": "ym2612"
    },
    {
      "channel": 1,
      "note": 50,
      "start": 25.5829,
      "duration": 0.1999,
      "velocity": 101,
      "chip": "ym2612"
    },
    {
      "channel": 4,
      "note": 83,
      "start": 25.5842,
      "duration": 0.201,
      "velocity": 106,
      "chip": "ym2612"
    },
    {
      "channel": 5,
      "note": 32,
      "start": 25.585,
      "duration": 0.1288,
      "velocity": 114,
      "chip": "ym2612"
    },
    {
      "channel": 0,
      "note": 88,
      "start": 25.7827,
      "duration": 0.1993,
      "velocity": 106,
      "chip": "ym2612"
    },
    {
      "channel": 1,
      "note": 62,
      "start": 25.7834,
      "duration": 0.1993,
      "velocity": 101,
      "chip": "ym2612"
    },
    {
      "channel": 2,
      "note": 80,
      "start": 25.7842,
      "duration": 0.1991,
      "velocity": 106,
      "chip": "ym2612"
    },
    {
      "channel": 3,
      "note": 83,
      "start": 25.785,
      "duration": 0.1989,
      "velocity": 106,
      "chip": "ym2612"
    },
    {
      "channel": 5,
      "note": 75,
      "start": 25.786,
      "duration": 0.1933,
      "velocity": 120,
      "chip": "ym2612"
    },
    {
      "channel": 0,
      "note": 88,
      "start": 25.9825,
      "duration": 0.4192,
      "velocity": 106,
      "chip": "ym2612"
    },
    {
      "channel": 1,
      "note": 51,
      "start": 25.9832,
      "duration": 0.2159,
      "velocity": 101,
      "chip": "ym2612"
    },
    {
      "channel": 2,
      "note": 80,
      "start": 25.9838,
      "duration": 0.4222,
      "velocity": 108,
      "chip": "ym2612"
    },
    {
      "channel": 3,
      "note": 83,
      "start": 25.9844,
      "duration": 0.425,
      "velocity": 106,
      "chip": "ym2612"
    },
    {
      "channel": 4,
      "note": 88,
      "start": 25.9853,
      "duration": 0.2151,
      "velocity": 106,
      "chip": "ym2612"
    },
    {
      "channel": 5,
      "note": 75,
      "start": 25.986,
      "duration": 0.21,
      "velocity": 120,
      "chip": "ym2612"
    },
    {
      "channel": 1,
      "note": 63,
      "start": 26.1996,
      "duration": 0.2031,
      "velocity": 101,
      "chip": "ym2612"
    },
    {
      "channel": 4,
      "note": 88,
      "start": 26.2009,
      "duration": 0.3999,
      "velocity": 106,
      "chip": "ym2612"
    },
    {
      "channel": 5,
      "note": 32,
      "start": 26.2017,
      "duration": 0.1298,
      "velocity": 114,
      "chip": "ym2612"
    },
    {
      "channel": 0,
      "note": 80,
      "start": 26.4023,
      "duration": 0.413,
      "velocity": 106,
      "chip": "ym2612"
    },
    {
      "channel": 1,
      "note": 52,
      "start": 26.4033,
      "duration": 0.4127,
      "velocity": 101,
      "chip": "ym2612"
    },
    {
      "channel": 2,
      "note": 76,
      "start": 26.4067,
      "duration": 0.1901,
      "velocity": 108,
      "chip": "ym2612"
    },
    {
      "channel": 3,
      "note": 71,
      "start": 26.4102,
      "duration": 0.4069,
      "velocity": 106,
      "chip": "ym2612"
    },
    {
      "channel": 5,
      "note": 32,
      "start": 26.4113,
      "duration": 0.12,
      "velocity": 114,
      "chip": "ym2612"
    },
    {
      "channel": 2,
      "note": 74,
      "start": 26.5974,
      "duration": 0.2188,
      "velocity": 108,
      "chip": "ym2612"
    },
    {
      "channel": 4,
      "note": 80,
      "start": 26.6015,
      "duration": 0.416,
      "velocity": 106,
      "chip": "ym2612"
    },
    {
      "channel": 0,
      "note": 80,
      "start": 26.8158,
      "duration": 0.297,
      "velocity": 106,
      "chip": "ym2612"
    },
    {
      "channel": 2,
      "note": 80,
      "start": 26.817,
      "duration": 0.1994,
      "velocity": 108,
      "chip": "ym2612"
    },
    {
      "channel": 3,
      "note": 71,
      "start": 26.8176,
      "duration": 0.2969,
      "velocity": 106,
      "chip": "ym2612"
    },
    {
      "channel": 5,
      "note": 75,
      "start": 26.8187,
      "duration": 0.194,
      "velocity": 120,
      "chip": "ym2612"
    },
    {
      "channel": 1,
      "note": 49,
      "start": 27.0162,
      "duration": 0.2164,
      "velocity": 101,
      "chip": "ym2612"
    },
    {
      "channel": 2,
      "note": 76,
      "start": 27.017,
      "duration": 0.0967,
      "velocity": 108,
      "chip": "ym2612"
    },
    {
      "channel": 4,
      "note": 80,
      "start": 27.018,
      "duration": 0.3136,
      "velocity": 106,
      "chip": "ym2612"
    },
    {
      "channel": 5,
      "note": 32,
      "start": 27.0189,
      "duration": 0.129,
      "velocity": 114,
      "chip": "ym2612"
    },
    {
      "channel": 0,
      "note": 80,
      "start": 27.1133,
      "duration": 0.1187,
      "velocity": 106,
      "chip": "ym2612"
    },
    {
      "channel": 2,
      "note": 74,
      "start": 27.1144,
      "duration": 0.1193,
      "velocity": 108,
      "chip": "ym2612"
    },
    {
      "channel": 3,
      "note": 71,
      "start": 27.1151,
      "duration": 0.1194,
      "velocity": 106,
      "chip": "ym2612"
    },
    {
      "channel": 0,
      "note": 80,
      "start": 27.2325,
      "duration": 0.197,
      "velocity": 106,
      "chip": "ym2612"
    },
    {
      "channel": 1,
      "note": 50,
      "start": 27.2332,
      "duration": 0.3994,
      "velocity": 101,
      "chip": "ym2612"
    },
    {
      "channel": 2,
      "note": 74,
      "start": 27.2343,
      "duration": 0.0961,
      "velocity": 108,
      "chip": "ym2612"
    },
    {
      "channel": 3,
      "note": 71,
      "start": 27.235,
      "duration": 0.1962,
      "velocity": 106,
      "chip": "ym2612"
    },
    {
      "channel": 5,
      "note": 32,
      "start": 27.2362,
      "duration": 0.1284,
      "velocity": 114,
      "chip": "ym2612"
    },
    {
      "channel": 2,
      "note": 74,
      "start": 27.3311,
      "duration": 0.0993,
      "velocity": 108,
      "chip": "ym2612"
    },
    {
      "channel": 4,
      "note": 80,
      "start": 27.3321,
      "duration": 0.0998,
      "velocity": 106,
      "chip": "ym2612"
    },
    {
      "channel": 0,
      "note": 80,
      "start": 27.4299,
      "duration": 0.202,
      "velocity": 106,
      "chip": "ym2612"
    },
    {
      "channel": 2,
      "note": 73,
      "start": 27.4311,
      "duration": 0.2022,
      "velocity": 108,
      "chip": "ym2612"
    },
    {
      "channel": 3,
      "note": 71,
      "start": 27.4317,
      "duration": 0.2024,
      "velocity": 106,
      "chip": "ym2612"
    },
    {
      "channel": 4,
      "note": 80,
      "start": 27.4324,
      "duration": 0.2024,
      "velocity": 106,
      "chip": "ym2612"
    },
    {
      "channel": 0,
      "note": 80,
      "start": 27.6325,
      "duration": 0.1136,
      "velocity": 106,
      "chip": "ym2612"
    },
    {
      "channel": 1,
      "note": 51,
      "start": 27.6332,
      "duration": 0.3163,
      "velocity": 101,
      "chip": "ym2612"
    },
    {
      "channel": 2,
      "note": 71,
      "start": 27.634,
      "duration": 0.1132,
      "velocity": 108,
      "chip": "ym2612"
    },
    {
      "channel": 3,
      "note": 71,
      "start": 27.6346,
      "duration": 0.1134,
      "velocity": 106,
      "chip": "ym2612"
    },
    {
      "channel": 4,
      "note": 80,
      "start": 27.6353,
      "duration": 0.2135,
      "velocity": 106,
      "chip": "ym2612"
    },
    {
      "channel": 5,
      "note": 75,
      "start": 27.636,
      "duration": 0.31,
      "velocity": 120,
      "chip": "ym2612"
    },
    {
      "channel": 0,
      "note": 78,
      "start": 27.7467,
      "duration": 0.0994,
      "velocity": 106,
      "chip": "ym2612"
    },
    {
      "channel": 2,
      "note": 73,
      "start": 27.7479,
      "duration": 0.0994,
      "velocity": 108,
      "chip": "ym2612"
    },
    {
      "channel": 3,
      "note": 69,
      "start": 27.7487,
      "duration": 0.0993,
      "velocity": 106,
      "chip": "ym2612"
    },
    {
      "channel": 0,
      "note": 76,
      "start": 27.8467,
      "duration": 0.1019,
      "velocity": 106,
      "chip": "ym2612"
    },
    {
      "channel": 2,
      "note": 74,
      "start": 27.8479,
      "duration": 0.1023,
      "velocity": 108,
      "chip": "ym2612"
    },
    {
      "channel": 3,
      "note": 68,
      "start": 27.8487,
      "duration": 0.1023,
      "velocity": 106,
      "chip": "ym2612"
    },
    {
      "channel": 4,
      "note": 80,
      "start": 27.8493,
      "duration": 0.1025,
      "velocity": 106,
      "chip": "ym2612"
    },
    {
      "channel": 0,
      "note": 78,
      "start": 27.9493,
      "duration": 0.316,
      "velocity": 106,
      "chip": "ym2612"
    },
    {
      "channel": 1,
      "note": 52,
      "start": 27.95,
      "duration": 0.0966,
      "velocity": 101,
      "chip": "ym2612"
    },
    {
      "channel": 2,
      "note": 76,
      "start": 27.9508,
      "duration": 0.0964,
      "velocity": 108,
      "chip": "ym2612"
    },
    {
      "channel": 3,
      "note": 69,
      "start": 27.9516,
      "duration": 0.3162,
      "velocity": 106,
      "chip": "ym2612"
    },
    {
      "channel": 4,
      "note": 78,
      "start": 27.9524,
      "duration": 0.0958,
      "velocity": 106,
      "chip": "ym2612"
    },
    {
      "channel": 5,
      "note": 32,
      "start": 27.9533,
      "duration": 0.1277,
      "velocity": 114,
      "chip": "ym2612"
    },
    {
      "channel": 2,
      "note": 76,
      "start": 28.0477,
      "duration": 0.2193,
      "velocity": 108,
      "chip": "ym2612"
    },
    {
      "channel": 4,
      "note": 76,
      "start": 28.0489,
      "duration": 0.1015,
      "velocity": 106,
      "chip": "ym2612"
    },
    {
      "channel": 1,
      "note": 52,
      "start": 28.1495,
      "duration": 0.1166,
      "velocity": 101,
      "chip": "ym2612"
    },
    {
      "channel": 4,
      "note": 78,
      "start": 28.151,
      "duration": 0.3163,
      "velocity": 106,
      "chip": "ym2612"
    },
    {
      "channel": 5,
      "note": 32,
      "start": 28.1519,
      "duration": 0.1108,
      "velocity": 114,
      "chip": "ym2612"
    },
    {
      "channel": 0,
      "note": 76,
      "start": 28.266,
      "duration": 0.616,
      "velocity": 106,
      "chip": "ym2612"
    },
    {
      "channel": 1,
      "note": 52,
      "start": 28.2665,
      "duration": 0.1992,
      "velocity": 101,
      "chip": "ym2612"
    },
    {
      "channel": 2,
      "note": 74,
      "start": 28.2677,
      "duration": 0.1985,
      "velocity": 108,
      "chip": "ym2612"
    },
    {
      "channel": 3,
      "note": 68,
      "start": 28.2685,
      "duration": 0.6157,
      "velocity": 106,
      "chip": "ym2612"
    },
    {
      "channel": 5,
      "note": 32,
      "start": 28.2697,
      "duration": 0.1282,
      "velocity": 114,
      "chip": "ym2612"
    },
    {
      "channel": 1,
      "note": 52,
      "start": 28.4661,
      "duration": 0.1997,
      "velocity": 101,
      "chip": "ym2612"
    },
    {
      "channel": 2,
      "note": 80,
      "start": 28.4669,
      "duration": 0.1995,
      "velocity": 108,
      "chip": "ym2612"
    },
    {
      "channel": 4,
      "note": 76,
      "start": 28.468,
      "duration": 0.6145,
      "velocity": 106,
      "chip": "ym2612"
    },
    {
      "channel": 5,
      "note": 75,
      "start": 28.4687,
      "duration": 0.194,
      "velocity": 120,
      "chip": "ym2612"
    },
    {
      "channel": 1,
      "note": 49,
      "start": 28.6663,
      "duration": 0.216,
      "velocity": 101,
      "chip": "ym2612"
    },
    {
      "channel": 2,
      "note": 76,
      "start": 28.6671,
      "duration": 0.113,
      "velocity": 108,
      "chip": "ym2612"
    },
    {
      "channel": 5,
      "note": 32,
      "start": 28.6687,
      "duration": 0.1461,
      "velocity": 114,
      "chip": "ym2612"
    },
    {
      "channel": 2,
      "note": 74,
      "start": 28.7809,
      "duration": 0.1025,
      "velocity": 108,
      "chip": "ym2612"
    },
    {
      "channel": 1,
      "note": 50,
      "start": 28.8829,
      "duration": 0.1973,
      "velocity": 101,
      "chip": "ym2612"
    },
    {
      "channel": 2,
      "note": 74,
      "start": 28.8841,
      "duration": 0.0961,
      "velocity": 108,
      "chip": "ym2612"
    },
    {
      "channel": 5,
      "note": 32,
      "start": 28.8857,
      "duration": 0.1284,
      "velocity": 114,
      "chip": "ym2612"
    },
    {
      "channel": 2,
      "note": 74,
      "start": 28.9808,
      "duration": 0.1001,
      "velocity": 108,
      "chip": "ym2612"
    },
    {
      "channel": 0,
      "note": 76,
      "start": 29.0801,
      "duration": 0.2019,
      "velocity": 106,
      "chip": "ym2612"
    },
    {
      "channel": 1,
      "note": 62,
      "start": 29.0808,
      "duration": 0.202,
      "velocity": 101,
      "chip": "ym2612"
    },
    {
      "channel": 2,
      "note": 73,
      "start": 29.0816,
      "duration": 0.2019,
      "velocity": 108,
      "chip": "ym2612"
    },
    {
      "channel": 3,
      "note": 68,
      "start": 29.0824,
      "duration": 0.2019,
      "velocity": 106,
      "chip": "ym2612"
    },
    {
      "channel": 0,
      "note": 78,
      "start": 29.2826,
      "duration": 0.216,
      "velocity": 106,
      "chip": "ym2612"
    },
    {
      "channel": 1,
      "note": 51,
      "start": 29.2834,
      "duration": 0.2161,
      "velocity": 101,
      "chip": "ym2612"
    },
    {
      "channel": 2,
      "note": 74,
      "start": 29.2841,
      "duration": 0.216,
      "velocity": 108,
      "chip": "ym2612"
    },
    {
      "channel": 3,
      "note": 69,
      "start": 29.285,
      "duration": 0.216,
      "velocity": 106,
      "chip": "ym2612"
    },
    {
      "channel": 4,
      "note": 76,
      "start": 29.2857,
      "duration": 0.216,
      "velocity": 106,
      "chip": "ym2612"
    },
    {
      "channel": 5,
      "note": 75,
      "start": 29.2865,
      "duration": 0.2095,
      "velocity": 120,
      "chip": "ym2612"
    },
    {
      "channel": 0,
      "note": 76,
      "start": 29.4993,
      "duration": 0.1997,
      "velocity": 106,
      "chip": "ym2612"
    },
    {
      "channel": 1,
      "note": 63,
      "start": 29.5,
      "duration": 0.2,
      "velocity": 101,
      "chip": "ym2612"
    },
    {
      "channel": 2,
      "note": 73,
      "start": 29.5008,
      "duration": 0.2029,
      "velocity": 108,
      "chip": "ym2612"
    },
    {
      "channel": 3,
      "note": 68,
      "start": 29.5016,
      "duration": 0.2029,
      "velocity": 106,
      "chip": "ym2612"
    },
    {
      "channel": 4,
      "note": 78,
      "start": 29.5024,
      "duration": 0.2028,
      "velocity": 106,
      "chip": "ym2612"
    },
    {
      "channel": 5,
      "note": 32,
      "start": 29.5033,
      "duration": 0.1279,
      "velocity": 114,
      "chip": "ym2612"
    },
    {
      "channel": 0,
      "note": 80,
      "start": 29.6997,
      "duration": 0.4156,
      "velocity": 106,
      "chip": "ym2612"
    },
    {
      "channel": 1,
      "note": 52,
      "start": 29.7006,
      "duration": 0.4153,
      "velocity": 101,
      "chip": "ym2612"
    },
    {
      "channel": 2,
      "note": 76,
      "start": 29.7043,
      "duration": 0.2092,
      "velocity": 108,
      "chip": "ym2612"
    },
    {
      "channel": 3,
      "note": 71,
      "start": 29.7051,
      "duration": 0.412,
      "velocity": 106,
      "chip": "ym2612"
    },
    {
      "channel": 4,
      "note": 76,
      "start": 29.7059,
      "duration": 0.2087,
      "velocity": 106,
      "chip": "ym2612"
    },
    {
      "channel": 5,
      "note": 32,
      "start": 29.7068,
      "duration": 0.1411,
      "velocity": 114,
      "chip": "ym2612"
    },
    {
      "channel": 2,
      "note": 74,
      "start": 29.9141,
      "duration": 0.2022,
      "velocity": 108,
      "chip": "ym2612"
    },
    {
      "channel": 4,
      "note": 80,
      "start": 29.9152,
      "duration": 0.4023,
      "velocity": 106,
      "chip": "ym2612"
    },
    {
      "channel": 0,
      "note": 80,
      "start": 30.1158,
      "duration": 0.3136,
      "velocity": 106,
      "chip": "ym2612"
    },
    {
      "channel": 2,
      "note": 80,
      "start": 30.117,
      "duration": 0.1994,
      "velocity": 108,
      "chip": "ym2612"
    },
    {
      "channel": 3,
      "note": 71,
      "start": 30.1176,
      "duration": 0.3136,
      "velocity": 106,
      "chip": "ym2612"
    },
    {
      "channel": 5,
      "note": 75,
      "start": 30.1187,
      "duration": 0.194,
      "velocity": 120,
      "chip": "ym2612"
    },
    {
      "channel": 1,
      "note": 49,
      "start": 30.3162,
      "duration": 0.2166,
      "velocity": 101,
      "chip": "ym2612"
    },
    {
      "channel": 2,
      "note": 76,
      "start": 30.317,
      "duration": 0.1134,
      "velocity": 108,
      "chip": "ym2612"
    },
    {
      "channel": 4,
      "note": 80,
      "start": 30.318,
      "duration": 0.3136,
      "velocity": 106,
      "chip": "ym2612"
    },
    {
      "channel": 5,
      "note": 32,
      "start": 30.3189,
      "duration": 0.1457,
      "velocity": 114,
      "chip": "ym2612"
    },
    {
      "channel": 0,
      "note": 80,
      "start": 30.4299,
      "duration": 0.102,
      "velocity": 106,
      "chip": "ym2612"
    },
    {
      "channel": 2,
      "note": 74,
      "start": 30.431,
      "duration": 0.1029,
      "velocity": 108,
      "chip": "ym2612"
    },
    {
      "channel": 3,
      "note": 71,
      "start": 30.4317,
      "duration": 0.1029,
      "velocity": 106,
      "chip": "ym2612"
    },
    {
      "channel": 0,
      "note": 81,
      "start": 30.5327,
      "duration": 0.1968,
      "velocity": 106,
      "chip": "ym2612"
    },
    {
      "channel": 1,
      "note": 50,
      "start": 30.5334,
      "duration": 0.4156,
      "velocity": 101,
      "chip": "ym2612"
    },
    {
      "channel": 2,
      "note": 74,
      "start": 30.5345,
      "duration": 0.0959,
      "velocity": 108,
      "chip": "ym2612"
    },
    {
      "channel": 3,
      "note": 73,
      "start": 30.5353,
      "duration": 0.1961,
      "velocity": 106,
      "chip": "ym2612"
    },
    {
      "channel": 5,
      "note": 32,
      "start": 30.5365,
      "duration": 0.128,
      "velocity": 114,
      "chip": "ym2612"
    },
    {
      "channel": 2,
      "note": 74,
      "start": 30.6311,
      "duration": 0.0994,
      "velocity": 108,
      "chip": "ym2612"
    },
    {
      "channel": 4,
      "note": 80,
      "start": 30.6321,
      "duration": 0.1001,
      "velocity": 106,
      "chip": "ym2612"
    },
    {
      "channel": 0,
      "note": 80,
      "start": 30.7301,
      "duration": 0.2186,
      "velocity": 106,
      "chip": "ym2612"
    },
    {
      "channel": 2,
      "note": 73,
      "start": 30.7312,
      "duration": 0.2185,
      "velocity": 108,
      "chip": "ym2612"
    },
    {
      "channel": 3,
      "note": 71,
      "start": 30.732,
      "duration": 0.2184,
      "velocity": 106,
      "chip": "ym2612"
    },
    {
      "channel": 4,
      "note": 81,
      "start": 30.7329,
      "duration": 0.2179,
      "velocity": 106,
      "chip": "ym2612"
    },
    {
      "channel": 1,
      "note": 51,
      "start": 30.9495,
      "duration": 0.2995,
      "velocity": 101,
      "chip": "ym2612"
    },
    {
      "channel": 2,
      "note": 71,
      "start": 30.9504,
      "duration": 0.0962,
      "velocity": 108,
      "chip": "ym2612"
    },
    {
      "channel": 4,
      "note": 80,
      "start": 30.9514,
      "duration": 0.1976,
      "velocity": 106,
      "chip": "ym2612"
    },
    {
      "channel": 5,
      "note": 75,
      "start": 30.9522,
      "duration": 0.2938,
      "velocity": 120,
      "chip": "ym2612"
    },
    {
      "channel": 2,
      "note": 73,
      "start": 31.0472,
      "duration": 0.1001,
      "velocity": 108,
      "chip": "ym2612"
    },
    {
      "channel": 0,
      "note": 83,
      "start": 31.1468,
      "duration": 1.0353,
      "velocity": 106,
      "chip": "ym2612"
    },
    {
      "channel": 2,
      "note": 74,
      "start": 31.1479,
      "duration": 0.1018,
      "velocity": 108,
      "chip": "ym2612"
    },
    {
      "channel": 3,
      "note": 74,
      "start": 31.1489,
      "duration": 1.0357,
      "velocity": 106,
      "chip": "ym2612"
    },
    {
      "channel": 1,
      "note": 52,
      "start": 31.2495,
      "duration": 0.0973,
      "velocity": 101,
      "chip": "ym2612"
    },
    {
      "channel": 2,
      "note": 76,
      "start": 31.2504,
      "duration": 0.0971,
      "velocity": 108,
      "chip": "ym2612"
    },
    {
      "channel": 5,
      "note": 32,
      "start": 31.2516,
      "duration": 0.1293,
      "velocity": 114,
      "chip": "ym2612"
    },
    {
      "channel": 2,
      "note": 76,
      "start": 31.3479,
      "duration": 0.2186,
      "velocity": 108,
      "chip": "ym2612"
    },
    {
      "channel": 4,
      "note": 83,
      "start": 31.3494,
      "duration": 1.0333,
      "velocity": 106,
      "chip": "ym2612"
    },
    {
      "channel": 1,
      "note": 52,
      "start": 31.4662,
      "duration": 0.0995,
      "velocity": 101,
      "chip": "ym2612"
    },
    {
      "channel": 5,
      "note": 32,
      "start": 31.4681,
      "duration": 0.0946,
      "velocity": 114,
      "chip": "ym2612"
    },
    {
      "channel": 1,
      "note": 52,
      "start": 31.5661,
      "duration": 0.1997,
      "velocity": 101,
      "chip": "ym2612"
    },
    {
      "channel": 2,
      "note": 74,
      "start": 31.5673,
      "duration": 0.199,
      "velocity": 108,
      "chip": "ym2612"
    },
    {
      "channel": 5,
      "note": 32,
      "start": 31.569,
      "duration": 0.1289,
      "velocity": 114,
      "chip": "ym2612"
    },
    {
      "channel": 1,
      "note": 52,
      "start": 31.7662,
      "duration": 0.2162,
      "velocity": 101,
      "chip": "ym2612"
    },
    {
      "channel": 2,
      "note": 80,
      "start": 31.767,
      "duration": 0.2161,
      "velocity": 108,
      "chip": "ym2612"
    },
    {
      "channel": 5,
      "note": 75,
      "start": 31.7685,
      "duration": 0.2108,
      "velocity": 120,
      "chip": "ym2612"
    },
    {
      "channel": 1,
      "note": 49,
      "start": 31.983,
      "duration": 0.1995,
      "velocity": 101,
      "chip": "ym2612"
    },
    {
      "channel": 2,
      "note": 76,
      "start": 31.9838,
      "duration": 0.0964,
      "velocity": 108,
      "chip": "ym2612"
    },
    {
      "channel": 5,
      "note": 32,
      "start": 31.9855,
      "duration": 0.1293,
      "velocity": 114,
      "chip": "ym2612"
    },
    {
      "channel": 2,
      "note": 74,
      "start": 32.0809,
      "duration": 0.1027,
      "velocity": 108,
      "chip": "ym2612"
    },
    {
      "channel": 1,
      "note": 50,
      "start": 32.183,
      "duration": 0.1972,
      "velocity": 101,
      "chip": "ym2612"
    },
    {
      "channel": 2,
      "note": 74,
      "start": 32.1842,
      "duration": 0.096,
      "velocity": 108,
      "chip": "ym2612"
    },
    {
      "channel": 5,
      "note": 32,
      "start": 32.186,
      "duration": 0.128,
      "velocity": 114,
      "chip": "ym2612"
    },
    {
      "channel": 2,
      "note": 74,
      "start": 32.2808,
      "duration": 0.1001,
      "velocity": 108,
      "chip": "ym2612"
    },
    {
      "channel": 0,
      "note": 88,
      "start": 32.3801,
      "duration": 0.2185,
      "velocity": 106,
      "chip": "ym2612"
    },
    {
      "channel": 1,
      "note": 62,
      "start": 32.3808,
      "duration": 0.2185,
      "velocity": 101,
      "chip": "ym2612"
    },
    {
      "channel": 2,
      "note": 73,
      "start": 32.3816,
      "duration": 0.2184,
      "velocity": 108,
      "chip": "ym2612"
    },
    {
      "channel": 3,
      "note": 83,
      "start": 32.3825,
      "duration": 0.2183,
      "velocity": 106,
      "chip": "ym2612"
    },
    {
      "channel": 0,
      "note": 88,
      "start": 32.5991,
      "duration": 0.402,
      "velocity": 106,
      "chip": "ym2612"
    },
    {
      "channel": 1,
      "note": 51,
      "start": 32.5998,
      "duration": 0.1992,
      "velocity": 101,
      "chip": "ym2612"
    },
    {
      "channel": 2,
      "note": 74,
      "start": 32.6007,
      "duration": 0.199,
      "velocity": 108,
      "chip": "ym2612"
    },
    {
      "channel": 3,
      "note": 83,
      "start": 32.6013,
      "duration": 0.4078,
      "velocity": 106,
      "chip": "ym2612"
    },
    {
      "channel": 4,
      "note": 88,
      "start": 32.6021,
      "duration": 0.1987,
      "velocity": 106,
      "chip": "ym2612"
    },
    {
      "channel": 5,
      "note": 75,
      "start": 32.6028,
      "duration": 0.1932,
      "velocity": 120,
      "chip": "ym2612"
    },
    {
      "channel": 1,
      "note": 63,
      "start": 32.7996,
      "duration": 0.2027,
      "velocity": 101,
      "chip": "ym2612"
    },
    {
      "channel": 2,
      "note": 73,
      "start": 32.8004,
      "duration": 0.2055,
      "velocity": 108,
      "chip": "ym2612"
    },
    {
      "channel": 4,
      "note": 88,
      "start": 32.8014,
      "duration": 0.4156,
      "velocity": 106,
      "chip": "ym2612"
    },
    {
      "channel": 5,
      "note": 32,
      "start": 32.8022,
      "duration": 0.1293,
      "velocity": 114,
      "chip": "ym2612"
    },
    {
      "channel": 0,
      "note": 83,
      "start": 33.0018,
      "duration": 0.4135,
      "velocity": 106,
      "chip": "ym2612"
    },
    {
      "channel": 1,
      "note": 52,
      "start": 33.0028,
      "duration": 0.4131,
      "velocity": 101,
      "chip": "ym2612"
    },
    {
      "channel": 2,
      "note": 76,
      "start": 33.0065,
      "duration": 0.2069,
      "velocity": 108,
      "chip": "ym2612"
    },
    {
      "channel": 3,
      "note": 76,
      "start": 33.0098,
      "duration": 0.4073,
      "velocity": 106,
      "chip": "ym2612"
    },
    {
      "channel": 5,
      "note": 32,
      "start": 33.0109,
      "duration": 0.1371,
      "velocity": 114,
      "chip": "ym2612"
    },
    {
      "channel": 2,
      "note": 74,
      "start": 33.2141,
      "duration": 0.2022,
      "velocity": 108,
      "chip": "ym2612"
    },
    {
      "channel": 4,
      "note": 83,
      "start": 33.2176,
      "duration": 0.4166,
      "velocity": 106,
      "chip": "ym2612"
    },
    {
      "channel": 0,
      "note": 83,
      "start": 33.4158,
      "duration": 0.3136,
      "velocity": 106,
      "chip": "ym2612"
    },
    {
      "channel": 2,
      "note": 80,
      "start": 33.417,
      "duration": 0.2161,
      "velocity": 108,
      "chip": "ym2612"
    },
    {
      "channel": 3,
      "note": 76,
      "start": 33.4176,
      "duration": 0.3136,
      "velocity": 106,
      "chip": "ym2612"
    },
    {
      "channel": 5,
      "note": 75,
      "start": 33.4187,
      "duration": 0.2107,
      "velocity": 120,
      "chip": "ym2612"
    },
    {
      "channel": 1,
      "note": 49,
      "start": 33.6329,
      "duration": 0.1998,
      "velocity": 101,
      "chip": "ym2612"
    },
    {
      "channel": 2,
      "note": 76,
      "start": 33.6337,
      "duration": 0.0967,
      "velocity": 108,
      "chip": "ym2612"
    },
    {
      "channel": 4,
      "note": 83,
      "start": 33.6347,
      "duration": 0.2969,
      "velocity": 106,
      "chip": "ym2612"
    },
    {
      "channel": 5,
      "note": 32,
      "start": 33.6355,
      "duration": 0.129,
      "velocity": 114,
      "chip": "ym2612"
    },
    {
      "channel": 0,
      "note": 83,
      "start": 33.7299,
      "duration": 0.102,
      "velocity": 106,
      "chip": "ym2612"
    },
    {
      "channel": 2,
      "note": 74,
      "start": 33.731,
      "duration": 0.1027,
      "velocity": 108,
      "chip": "ym2612"
    },
    {
      "channel": 3,
      "note": 76,
      "start": 33.7317,
      "duration": 0.1027,
      "velocity": 106,
      "chip": "ym2612"
    },
    {
      "channel": 0,
      "note": 83,
      "start": 33.8325,
      "duration": 0.197,
      "velocity": 106,
      "chip": "ym2612"
    },
    {
      "channel": 1,
      "note": 50,
      "start": 33.8332,
      "duration": 0.4161,
      "velocity": 101,
      "chip": "ym2612"
    },
    {
      "channel": 2,
      "note": 74,
      "start": 33.8343,
      "duration": 0.0961,
      "velocity": 108,
      "chip": "ym2612"
    },
    {
      "channel": 3,
      "note": 76,
      "start": 33.835,
      "duration": 0.1962,
      "velocity": 106,
      "chip": "ym2612"
    },
    {
      "channel": 5,
      "note": 32,
      "start": 33.8362,
      "duration": 0.1284,
      "velocity": 114,
      "chip": "ym2612"
    },
    {
      "channel": 2,
      "note": 74,
      "start": 33.9311,
      "duration": 0.0993,
      "velocity": 108,
      "chip": "ym2612"
    },
    {
      "channel": 4,
      "note": 83,
      "start": 33.9321,
      "duration": 0.0998,
      "velocity": 106,
      "chip": "ym2612"
    },
    {
      "channel": 0,
      "note": 83,
      "start": 34.0299,
      "duration": 0.2187,
      "velocity": 106,
      "chip": "ym2612"
    },
    {
      "channel": 2,
      "note": 73,
      "start": 34.0311,
      "duration": 0.2189,
      "velocity": 108,
      "chip": "ym2612"
    },
    {
      "channel": 3,
      "note": 76,
      "start": 34.0317,
      "duration": 0.2191,
      "velocity": 106,
      "chip": "ym2612"
    },
    {
      "channel": 4,
      "note": 83,
      "start": 34.0324,
      "duration": 0.2191,
      "velocity": 106,
      "chip": "ym2612"
    },
    {
      "channel": 0,
      "note": 83,
      "start": 34.2491,
      "duration": 0.097,
      "velocity": 106,
      "chip": "ym2612"
    },
    {
      "channel": 1,
      "note": 51,
      "start": 34.2498,
      "duration": 0.2996,
      "velocity": 101,
      "chip": "ym2612"
    },
    {
      "channel": 2,
      "note": 71,
      "start": 34.2507,
      "duration": 0.0966,
      "velocity": 108,
      "chip": "ym2612"
    },
    {
      "channel": 3,
      "note": 76,
      "start": 34.2513,
      "duration": 0.0968,
      "velocity": 106,
      "chip": "ym2612"
    },
    {
      "channel": 4,
      "note": 83,
      "start": 34.252,
      "duration": 0.1969,
      "velocity": 106,
      "chip": "ym2612"
    },
    {
      "channel": 5,
      "note": 75,
      "start": 34.2527,
      "duration": 0.2934,
      "velocity": 120,
      "chip": "ym2612"
    },
    {
      "channel": 0,
      "note": 81,
      "start": 34.3467,
      "duration": 0.0994,
      "velocity": 106,
      "chip": "ym2612"
    },
    {
      "channel": 2,
      "note": 73,
      "start": 34.3479,
      "duration": 0.0994,
      "velocity": 108,
      "chip": "ym2612"
    },
    {
      "channel": 3,
      "note": 73,
      "start": 34.3487,
      "duration": 0.0993,
      "velocity": 106,
      "chip": "ym2612"
    },
    {
      "channel": 0,
      "note": 80,
      "start": 34.4467,
      "duration": 0.1019,
      "velocity": 106,
      "chip": "ym2612"
    },
    {
      "channel": 2,
      "note": 74,
      "start": 34.4479,
      "duration": 0.1023,
      "velocity": 108,
      "chip": "ym2612"
    },
    {
      "channel": 3,
      "note": 71,
      "start": 34.4487,
      "duration": 0.1023,
      "velocity": 106,
      "chip": "ym2612"
    },
    {
      "channel": 4,
      "note": 83,
      "start": 34.4493,
      "duration": 0.1025,
      "velocity": 106,
      "chip": "ym2612"
    },
    {
      "channel": 0,
      "note": 81,
      "start": 34.5493,
      "duration": 0.316,
      "velocity": 106,
      "chip": "ym2612"
    },
    {
      "channel": 1,
      "note": 52,
      "start": 34.55,
      "duration": 0.1132,
      "velocity": 101,
      "chip": "ym2612"
    },
    {
      "channel": 2,
      "note": 76,
      "start": 34.5508,
      "duration": 0.1131,
      "velocity": 108,
      "chip": "ym2612"
    },
    {
      "channel": 3,
      "note": 73,
      "start": 34.5516,
      "duration": 0.3162,
      "velocity": 106,
      "chip": "ym2612"
    },
    {
      "channel": 4,
      "note": 81,
      "start": 34.5524,
      "duration": 0.1124,
      "velocity": 106,
      "chip": "ym2612"
    },
    {
      "channel": 5,
      "note": 32,
      "start": 34.5533,
      "duration": 0.1443,
      "velocity": 114,
      "chip": "ym2612"
    },
    {
      "channel": 2,
      "note": 76,
      "start": 34.6644,
      "duration": 0.2026,
      "velocity": 108,
      "chip": "ym2612"
    },
    {
      "channel": 4,
      "note": 80,
      "start": 34.6656,
      "duration": 0.1015,
      "velocity": 106,
      "chip": "ym2612"
    },
    {
      "channel": 1,
      "note": 52,
      "start": 34.7662,
      "duration": 0.0999,
      "velocity": 101,
      "chip": "ym2612"
    },
    {
      "channel": 4,
      "note": 81,
      "start": 34.7677,
      "duration": 0.2996,
      "velocity": 106,
      "chip": "ym2612"
    },
    {
      "channel": 5,
      "note": 32,
      "start": 34.7685,
      "duration": 0.0941,
      "velocity": 114,
      "chip": "ym2612"
    },
    {
      "channel": 0,
      "note": 80,
      "start": 34.866,
      "duration": 0.616,
      "velocity": 106,
      "chip": "ym2612"
    },
    {
      "channel": 1,
      "note": 52,
      "start": 34.8665,
      "duration": 0.1992,
      "velocity": 101,
      "chip": "ym2612"
    },
    {
      "channel": 2,
      "note": 74,
      "start": 34.8677,
      "duration": 0.1985,
      "velocity": 108,
      "chip": "ym2612"
    },
    {
      "channel": 3,
      "note": 71,
      "start": 34.8685,
      "duration": 0.6156,
      "velocity": 106,
      "chip": "ym2612"
    },
    {
      "channel": 5,
      "note": 32,
      "start": 34.8697,
      "duration": 0.1282,
      "velocity": 114,
      "chip": "ym2612"
    },
    {
      "channel": 1,
      "note": 52,
      "start": 35.0661,
      "duration": 0.2164,
      "velocity": 101,
      "chip": "ym2612"
    },
    {
      "channel": 2,
      "note": 80,
      "start": 35.0669,
      "duration": 0.2163,
      "velocity": 108,
      "chip": "ym2612"
    },
    {
      "channel": 4,
      "note": 80,
      "start": 35.068,
      "duration": 0.6145,
      "velocity": 106,
      "chip": "ym2612"
    },
    {
      "channel": 5,
      "note": 75,
      "start": 35.0687,
      "duration": 0.2106,
      "velocity": 120,
      "chip": "ym2612"
    },
    {
      "channel": 1,
      "note": 49,
      "start": 35.283,
      "duration": 0.1993,
      "velocity": 101,
      "chip": "ym2612"
    },
    {
      "channel": 2,
      "note": 76,
      "start": 35.2838,
      "duration": 0.0964,
      "velocity": 108,
      "chip": "ym2612"
    },
    {
      "channel": 5,
      "note": 32,
      "start": 35.2855,
      "duration": 0.1294,
      "velocity": 114,
      "chip": "ym2612"
    },
    {
      "channel": 2,
      "note": 74,
      "start": 35.3809,
      "duration": 0.1025,
      "velocity": 108,
      "chip": "ym2612"
    },
    {
      "channel": 1,
      "note": 50,
      "start": 35.4829,
      "duration": 0.1973,
      "velocity": 101,
      "chip": "ym2612"
    },
    {
      "channel": 2,
      "note": 74,
      "start": 35.4841,
      "duration": 0.0961,
      "velocity": 108,
      "chip": "ym2612"
    },
    {
      "channel": 5,
      "note": 32,
      "start": 35.4857,
      "duration": 0.1284,
      "velocity": 114,
      "chip": "ym2612"
    },
    {
      "channel": 2,
      "note": 74,
      "start": 35.5808,
      "duration": 0.1001,
      "velocity": 108,
      "chip": "ym2612"
    },
    {
      "channel": 0,
      "note": 80,
      "start": 35.6801,
      "duration": 0.2186,
      "velocity": 106,
      "chip": "ym2612"
    },
    {
      "channel": 1,
      "note": 62,
      "start": 35.6808,
      "duration": 0.2186,
      "velocity": 101,
      "chip": "ym2612"
    },
    {
      "channel": 2,
      "note": 73,
      "start": 35.6816,
      "duration": 0.2186,
      "velocity": 108,
      "chip": "ym2612"
    },
    {
      "channel": 3,
      "note": 71,
      "start": 35.6824,
      "duration": 0.2186,
      "velocity": 106,
      "chip": "ym2612"
    },
    {
      "channel": 0,
      "note": 81,
      "start": 35.8993,
      "duration": 0.1993,
      "velocity": 106,
      "chip": "ym2612"
    },
    {
      "channel": 1,
      "note": 51,
      "start": 35.9,
      "duration": 0.1994,
      "velocity": 101,
      "chip": "ym2612"
    },
    {
      "channel": 2,
      "note": 74,
      "start": 35.9008,
      "duration": 0.1994,
      "velocity": 108,
      "chip": "ym2612"
    },
    {
      "channel": 3,
      "note": 73,
      "start": 35.9016,
      "duration": 0.1994,
      "velocity": 106,
      "chip": "ym2612"
    },
    {
      "channel": 4,
      "note": 80,
      "start": 35.9024,
      "duration": 0.1993,
      "velocity": 106,
      "chip": "ym2612"
    },
    {
      "channel": 5,
      "note": 75,
      "start": 35.9032,
      "duration": 0.1929,
      "velocity": 120,
      "chip": "ym2612"
    },
    {
      "channel": 0,
      "note": 80,
      "start": 36.0993,
      "duration": 0.2162,
      "velocity": 106,
      "chip": "ym2612"
    },
    {
      "channel": 1,
      "note": 63,
      "start": 36.1,
      "duration": 0.2166,
      "velocity": 101,
      "chip": "ym2612"
    },
    {
      "channel": 2,
      "note": 73,
      "start": 36.1008,
      "duration": 0.2194,
      "velocity": 108,
      "chip": "ym2612"
    },
    {
      "channel": 3,
      "note": 71,
      "start": 36.1016,
      "duration": 0.2194,
      "velocity": 106,
      "chip": "ym2612"
    },
    {
      "channel": 4,
      "note": 81,
      "start": 36.1024,
      "duration": 0.2193,
      "velocity": 106,
      "chip": "ym2612"
    },
    {
      "channel": 5,
      "note": 32,
      "start": 36.1033,
      "duration": 0.1446,
      "velocity": 114,
      "chip": "ym2612"
    },
    {
      "channel": 0,
      "note": 83,
      "start": 36.3162,
      "duration": 0.3991,
      "velocity": 106,
      "chip": "ym2612"
    },
    {
      "channel": 1,
      "note": 52,
      "start": 36.3171,
      "duration": 0.3988,
      "velocity": 101,
      "chip": "ym2612"
    },
    {
      "channel": 2,
      "note": 76,
      "start": 36.3208,
      "duration": 0.1926,
      "velocity": 108,
      "chip": "ym2612"
    },
    {
      "channel": 3,
      "note": 76,
      "start": 36.3217,
      "duration": 0.3954,
      "velocity": 106,
      "chip": "ym2612"
    },
    {
      "channel": 4,
      "note": 80,
      "start": 36.3225,
      "duration": 0.1921,
      "velocity": 106,
      "chip": "ym2612"
    },
    {
      "channel": 5,
      "note": 32,
      "start": 36.3233,
      "duration": 0.1246,
      "velocity": 114,
      "chip": "ym2612"
    },
    {
      "channel": 2,
      "note": 74,
      "start": 36.5141,
      "duration": 0.2022,
      "velocity": 108,
      "chip": "ym2612"
    },
    {
      "channel": 4,
      "note": 83,
      "start": 36.5153,
      "duration": 0.4189,
      "velocity": 106,
      "chip": "ym2612"
    },
    {
      "channel": 0,
      "note": 83,
      "start": 36.7158,
      "duration": 0.3136,
      "velocity": 106,
      "chip": "ym2612"
    },
    {
      "channel": 2,
      "note": 80,
      "start": 36.717,
      "duration": 0.2161,
      "velocity": 108,
      "chip": "ym2612"
    },
    {
      "channel": 3,
      "note": 76,
      "start": 36.7176,
      "duration": 0.3136,
      "velocity": 106,
      "chip": "ym2612"
    },
    {
      "channel": 5,
      "note": 75,
      "start": 36.7187,
      "duration": 0.2107,
      "velocity": 120,
      "chip": "ym2612"
    },
    {
      "channel": 1,
      "note": 49,
      "start": 36.9329,
      "duration": 0.1999,
      "velocity": 101,
      "chip": "ym2612"
    },
    {
      "channel": 2,
      "note": 76,
      "start": 36.9337,
      "duration": 0.0967,
      "velocity": 108,
      "chip": "ym2612"
    },
    {
      "channel": 4,
      "note": 83,
      "start": 36.9347,
      "duration": 0.2969,
      "velocity": 106,
      "chip": "ym2612"
    },
    {
      "channel": 5,
      "note": 32,
      "start": 36.9355,
      "duration": 0.129,
      "velocity": 114,
      "chip": "ym2612"
    },
    {
      "channel": 0,
      "note": 83,
      "start": 37.0299,
      "duration": 0.102,
      "velocity": 106,
      "chip": "ym2612"
    },
    {
      "channel": 2,
      "note": 74,
      "start": 37.031,
      "duration": 0.1029,
      "velocity": 108,
      "chip": "ym2612"
    },
    {
      "channel": 3,
      "note": 76,
      "start": 37.0317,
      "duration": 0.1029,
      "velocity": 106,
      "chip": "ym2612"
    },
    {
      "channel": 0,
      "note": 85,
      "start": 37.1327,
      "duration": 0.2134,
      "velocity": 106,
      "chip": "ym2612"
    },
    {
      "channel": 1,
      "note": 50,
      "start": 37.1334,
      "duration": 0.4156,
      "velocity": 101,
      "chip": "ym2612"
    },
    {
      "channel": 2,
      "note": 74,
      "start": 37.1345,
      "duration": 0.0959,
      "velocity": 108,
      "chip": "ym2612"
    },
    {
      "channel": 3,
      "note": 78,
      "start": 37.1353,
      "duration": 0.2127,
      "velocity": 106,
      "chip": "ym2612"
    },
    {
      "channel": 5,
      "note": 32,
      "start": 37.1365,
      "duration": 0.128,
      "velocity": 114,
      "chip": "ym2612"
    },
    {
      "channel": 2,
      "note": 74,
      "start": 37.2311,
      "duration": 0.1161,
      "velocity": 108,
      "chip": "ym2612"
    },
    {
      "channel": 4,
      "note": 83,
      "start": 37.2321,
      "duration": 0.1167,
      "velocity": 106,
      "chip": "ym2612"
    },
    {
      "channel": 0,
      "note": 83,
      "start": 37.3467,
      "duration": 0.2019,
      "velocity": 106,
      "chip": "ym2612"
    },
    {
      "channel": 2,
      "note": 73,
      "start": 37.3479,
      "duration": 0.2018,
      "velocity": 108,
      "chip": "ym2612"
    },
    {
      "channel": 3,
      "note": 76,
      "start": 37.3487,
      "duration": 0.2018,
      "velocity": 106,
      "chip": "ym2612"
    },
    {
      "channel": 4,
      "note": 85,
      "start": 37.3495,
      "duration": 0.2013,
      "velocity": 106,
      "chip": "ym2612"
    },
    {
      "channel": 1,
      "note": 51,
      "start": 37.5495,
      "duration": 0.3162,
      "velocity": 101,
      "chip": "ym2612"
    },
    {
      "channel": 2,
      "note": 71,
      "start": 37.5504,
      "duration": 0.0962,
      "velocity": 108,
      "chip": "ym2612"
    },
    {
      "channel": 4,
      "note": 83,
      "start": 37.5515,
      "duration": 0.1975,
      "velocity": 106,
      "chip": "ym2612"
    },
    {
      "channel": 5,
      "note": 75,
      "start": 37.5522,
      "duration": 0.3105,
      "velocity": 120,
      "chip": "ym2612"
    },
    {
      "channel": 2,
      "note": 73,
      "start": 37.6472,
      "duration": 0.1001,
      "velocity": 108,
      "chip": "ym2612"
    },
    {
      "channel": 0,
      "note": 86,
      "start": 37.7468,
      "duration": 1.0353,
      "velocity": 106,
      "chip": "ym2612"
    },
    {
      "channel": 2,
      "note": 74,
      "start": 37.7479,
      "duration": 0.1184,
      "velocity": 108,
      "chip": "ym2612"
    },
    {
      "channel": 3,
      "note": 79,
      "start": 37.7489,
      "duration": 1.0357,
      "velocity": 106,
      "chip": "ym2612"
    },
    {
      "channel": 1,
      "note": 52,
      "start": 37.8663,
      "duration": 0.0971,
      "velocity": 101,
      "chip": "ym2612"
    },
    {
      "channel": 2,
      "note": 76,
      "start": 37.867,
      "duration": 0.0971,
      "velocity": 108,
      "chip": "ym2612"
    },
    {
      "channel": 5,
      "note": 32,
      "start": 37.8683,
      "duration": 0.1293,
      "velocity": 114,
      "chip": "ym2612"
    },
    {
      "channel": 2,
      "note": 76,
      "start": 37.9646,
      "duration": 0.202,
      "velocity": 108,
      "chip": "ym2612"
    },
    {
      "channel": 4,
      "note": 86,
      "start": 37.9661,
      "duration": 1.0359,
      "velocity": 106,
      "chip": "ym2612"
    },
    {
      "channel": 1,
      "note": 52,
      "start": 38.0662,
      "duration": 0.0995,
      "velocity": 101,
      "chip": "ym2612"
    },
    {
      "channel": 5,
      "note": 32,
      "start": 38.0681,
      "duration": 0.0946,
      "velocity": 114,
      "chip": "ym2612"
    },
    {
      "channel": 1,
      "note": 52,
      "start": 38.1661,
      "duration": 0.2163,
      "velocity": 101,
      "chip": "ym2612"
    },
    {
      "channel": 2,
      "note": 74,
      "start": 38.1673,
      "duration": 0.2157,
      "velocity": 108,
      "chip": "ym2612"
    },
    {
      "channel": 5,
      "note": 32,
      "start": 38.169,
      "duration": 0.1289,
      "velocity": 114,
      "chip": "ym2612"
    },
    {
      "channel": 1,
      "note": 52,
      "start": 38.3829,
      "duration": 0.1995,
      "velocity": 101,
      "chip": "ym2612"
    },
    {
      "channel": 2,
      "note": 80,
      "start": 38.3836,
      "duration": 0.1995,
      "velocity": 108,
      "chip": "ym2612"
    },
    {
      "channel": 5,
      "note": 75,
      "start": 38.3852,
      "duration": 0.1941,
      "velocity": 120,
      "chip": "ym2612"
    },
    {
      "channel": 1,
      "note": 49,
      "start": 38.583,
      "duration": 0.1995,
      "velocity": 101,
      "chip": "ym2612"
    },
    {
      "channel": 2,
      "note": 76,
      "start": 38.5838,
      "duration": 0.0964,
      "velocity": 108,
      "chip": "ym2612"
    },
    {
      "channel": 5,
      "note": 32,
      "start": 38.5855,
      "duration": 0.1293,
      "velocity": 114,
      "chip": "ym2612"
    },
    {
      "channel": 2,
      "note": 74,
      "start": 38.6809,
      "duration": 0.1027,
      "velocity": 108,
      "chip": "ym2612"
    },
    {
      "channel": 1,
      "note": 50,
      "start": 38.783,
      "duration": 0.2164,
      "velocity": 101,
      "chip": "ym2612"
    },
    {
      "channel": 2,
      "note": 74,
      "start": 38.7842,
      "duration": 0.096,
      "velocity": 108,
      "chip": "ym2612"
    },
    {
      "channel": 5,
      "note": 32,
      "start": 38.786,
      "duration": 0.1447,
      "velocity": 114,
      "chip": "ym2612"
    },
    {
      "channel": 2,
      "note": 74,
      "start": 38.8808,
      "duration": 0.1193,
      "velocity": 108,
      "chip": "ym2612"
    },
    {
      "channel": 0,
      "note": 88,
      "start": 38.9993,
      "duration": 0.1993,
      "velocity": 106,
      "chip": "ym2612"
    },
    {
      "channel": 1,
      "note": 62,
      "start": 39.0,
      "duration": 0.1993,
      "velocity": 101,
      "chip": "ym2612"
    },
    {
      "channel": 2,
      "note": 73,
      "start": 39.0008,
      "duration": 0.1992,
      "velocity": 108,
      "chip": "ym2612"
    },
    {
      "channel": 3,
      "note": 83,
      "start": 39.0017,
      "duration": 0.1991,
      "velocity": 106,
      "chip": "ym2612"
    },
    {
      "channel": 5,
      "note": 75,
      "start": 39.0029,
      "duration": 0.1931,
      "velocity": 120,
      "chip": "ym2612"
    },
    {
      "channel": 0,
      "note": 88,
      "start": 39.1991,
      "duration": 0.4186,
      "velocity": 106,
      "chip": "ym2612"
    },
    {
      "channel": 1,
      "note": 51,
      "start": 39.1998,
      "duration": 0.1992,
      "velocity": 101,
      "chip": "ym2612"
    },
    {
      "channel": 2,
      "note": 74,
      "start": 39.2007,
      "duration": 0.199,
      "velocity": 108,
      "chip": "ym2612"
    },
    {
      "channel": 3,
      "note": 83,
      "start": 39.2013,
      "duration": 0.4242,
      "velocity": 106,
      "chip": "ym2612"
    },
    {
      "channel": 4,
      "note": 88,
      "start": 39.2021,
      "duration": 0.1987,
      "velocity": 106,
      "chip": "ym2612"
    },
    {
      "channel": 5,
      "note": 75,
      "start": 39.2028,
      "duration": 0.1932,
      "velocity": 120,
      "chip": "ym2612"
    },
    {
      "channel": 1,
      "note": 63,
      "start": 39.3996,
      "duration": 0.2192,
      "velocity": 101,
      "chip": "ym2612"
    },
    {
      "channel": 2,
      "note": 73,
      "start": 39.4004,
      "duration": 0.2221,
      "velocity": 108,
      "chip": "ym2612"
    },
    {
      "channel": 4,
      "note": 88,
      "start": 39.4014,
      "duration": 0.4156,
      "velocity": 106,
      "chip": "ym2612"
    },
    {
      "channel": 5,
      "note": 32,
      "start": 39.4022,
      "duration": 0.1459,
      "velocity": 114,
      "chip": "ym2612"
    },
    {
      "channel": 0,
      "note": 88,
      "start": 39.6183,
      "duration": 0.4136,
      "velocity": 106,
      "chip": "ym2612"
    },
    {
      "channel": 1,
      "note": 52,
      "start": 39.6194,
      "duration": 0.4132,
      "velocity": 101,
      "chip": "ym2612"
    },
    {
      "channel": 2,
      "note": 76,
      "start": 39.6231,
      "duration": 0.1904,
      "velocity": 108,
      "chip": "ym2612"
    },
    {
      "channel": 3,
      "note": 80,
      "start": 39.6262,
      "duration": 0.4075,
      "velocity": 106,
      "chip": "ym2612"
    },
    {
      "channel": 5,
      "note": 32,
      "start": 39.6274,
      "duration": 0.1206,
      "velocity": 114,
      "chip": "ym2612"
    },
    {
      "channel": 2,
      "note": 74,
      "start": 39.8141,
      "duration": 0.2188,
      "velocity": 108,
      "chip": "ym2612"
    },
    {
      "channel": 4,
      "note": 88,
      "start": 39.8176,
      "duration": 0.4166,
      "velocity": 106,
      "chip": "ym2612"
    },
    {
      "channel": 0,
      "note": 88,
      "start": 40.0325,
      "duration": 0.297,
      "velocity": 106,
      "chip": "ym2612"
    },
    {
      "channel": 2,
      "note": 80,
      "start": 40.0336,
      "duration": 0.1994,
      "velocity": 108,
      "chip": "ym2612"
    },
    {
      "channel": 3,
      "note": 80,
      "start": 40.0343,
      "duration": 0.2969,
      "velocity": 106,
      "chip": "ym2612"
    },
    {
      "channel": 5,
      "note": 75,
      "start": 40.0353,
      "duration": 0.194,
      "velocity": 120,
      "chip": "ym2612"
    },
    {
      "channel": 1,
      "note": 49,
      "start": 40.2329,
      "duration": 0.1998,
      "velocity": 101,
      "chip": "ym2612"
    },
    {
      "channel": 2,
      "note": 76,
      "start": 40.2337,
      "duration": 0.0967,
      "velocity": 108,
      "chip": "ym2612"
    },
    {
      "channel": 4,
      "note": 88,
      "start": 40.2347,
      "duration": 0.3136,
      "velocity": 106,
      "chip": "ym2612"
    },
    {
      "channel": 5,
      "note": 32,
      "start": 40.2355,
      "duration": 0.129,
      "velocity": 114,
      "chip": "ym2612"
    },
    {
      "channel": 0,
      "note": 88,
      "start": 40.3299,
      "duration": 0.102,
      "velocity": 106,
      "chip": "ym2612"
    },
    {
      "channel": 2,
      "note": 74,
      "start": 40.331,
      "duration": 0.1027,
      "velocity": 108,
      "chip": "ym2612"
    },
    {
      "channel": 3,
      "note": 80,
      "start": 40.3317,
      "duration": 0.1027,
      "velocity": 106,
      "chip": "ym2612"
    },
    {
      "channel": 0,
      "note": 88,
      "start": 40.4325,
      "duration": 0.2136,
      "velocity": 106,
      "chip": "ym2612"
    },
    {
      "channel": 1,
      "note": 50,
      "start": 40.4332,
      "duration": 0.4161,
      "velocity": 101,
      "chip": "ym2612"
    },
    {
      "channel": 2,
      "note": 74,
      "start": 40.4343,
      "duration": 0.1128,
      "velocity": 108,
      "chip": "ym2612"
    },
    {
      "channel": 3,
      "note": 80,
      "start": 40.435,
      "duration": 0.2129,
      "velocity": 106,
      "chip": "ym2612"
    },
    {
      "channel": 5,
      "note": 32,
      "start": 40.4362,
      "duration": 0.145,
      "velocity": 114,
      "chip": "ym2612"
    },
    {
      "channel": 2,
      "note": 74,
      "start": 40.5478,
      "duration": 0.0993,
      "velocity": 108,
      "chip": "ym2612"
    },
    {
      "channel": 4,
      "note": 88,
      "start": 40.5488,
      "duration": 0.0998,
      "velocity": 106,
      "chip": "ym2612"
    },
    {
      "channel": 0,
      "note": 88,
      "start": 40.6466,
      "duration": 0.202,
      "velocity": 106,
      "chip": "ym2612"
    },
    {
      "channel": 2,
      "note": 73,
      "start": 40.6477,
      "duration": 0.2022,
      "velocity": 108,
      "chip": "ym2612"
    },
    {
      "channel": 3,
      "note": 80,
      "start": 40.6484,
      "duration": 0.2024,
      "velocity": 106,
      "chip": "ym2612"
    },
    {
      "channel": 4,
      "note": 88,
      "start": 40.649,
      "duration": 0.2024,
      "velocity": 106,
      "chip": "ym2612"
    },
    {
      "channel": 0,
      "note": 88,
      "start": 40.8491,
      "duration": 0.097,
      "velocity": 106,
      "chip": "ym2612"
    },
    {
      "channel": 1,
      "note": 51,
      "start": 40.8498,
      "duration": 0.3163,
      "velocity": 101,
      "chip": "ym2612"
    },
    {
      "channel": 2,
      "note": 71,
      "start": 40.8507,
      "duration": 0.0966,
      "velocity": 108,
      "chip": "ym2612"
    },
    {
      "channel": 3,
      "note": 80,
      "start": 40.8513,
      "duration": 0.0968,
      "velocity": 106,
      "chip": "ym2612"
    },
    {
      "channel": 4,
      "note": 88,
      "start": 40.852,
      "duration": 0.2135,
      "velocity": 106,
      "chip": "ym2612"
    },
    {
      "channel": 5,
      "note": 75,
      "start": 40.8527,
      "duration": 0.31,
      "velocity": 120,
      "chip": "ym2612"
    },
    {
      "channel": 0,
      "note": 85,
      "start": 40.9467,
      "duration": 0.116,
      "velocity": 106,
      "chip": "ym2612"
    },
    {
      "channel": 2,
      "note": 73,
      "start": 40.9479,
      "duration": 0.116,
      "velocity": 108,
      "chip": "ym2612"
    },
    {
      "channel": 3,
      "note": 78,
      "start": 40.9487,
      "duration": 0.116,
      "velocity": 106,
      "chip": "ym2612"
    },
    {
      "channel": 0,
      "note": 83,
      "start": 41.0634,
      "duration": 0.1019,
      "velocity": 106,
      "chip": "ym2612"
    },
    {
      "channel": 2,
      "note": 74,
      "start": 41.0645,
      "duration": 0.1023,
      "velocity": 108,
      "chip": "ym2612"
    },
    {
      "channel": 3,
      "note": 76,
      "start": 41.0654,
      "duration": 0.1023,
      "velocity": 106,
      "chip": "ym2612"
    },
    {
      "channel": 4,
      "note": 88,
      "start": 41.066,
      "duration": 0.1025,
      "velocity": 106,
      "chip": "ym2612"
    },
    {
      "channel": 0,
      "note": 85,
      "start": 41.166,
      "duration": 0.2993,
      "velocity": 106,
      "chip": "ym2612"
    },
    {
      "channel": 1,
      "note": 52,
      "start": 41.1667,
      "duration": 0.0965,
      "velocity": 101,
      "chip": "ym2612"
    },
    {
      "channel": 2,
      "note": 76,
      "start": 41.1675,
      "duration": 0.0964,
      "velocity": 108,
      "chip": "ym2612"
    },
    {
      "channel": 3,
      "note": 78,
      "start": 41.1683,
      "duration": 0.2995,
      "velocity": 106,
      "chip": "ym2612"
    },
    {
      "channel": 4,
      "note": 85,
      "start": 41.1691,
      "duration": 0.0957,
      "velocity": 106,
      "chip": "ym2612"
    },
    {
      "channel": 5,
      "note": 32,
      "start": 41.17,
      "duration": 0.1277,
      "velocity": 114,
      "chip": "ym2612"
    },
    {
      "channel": 2,
      "note": 76,
      "start": 41.2644,
      "duration": 0.2027,
      "velocity": 108,
      "chip": "ym2612"
    },
    {
      "channel": 4,
      "note": 83,
      "start": 41.2656,
      "duration": 0.1015,
      "velocity": 106,
      "chip": "ym2612"
    },
    {
      "channel": 1,
      "note": 52,
      "start": 41.3662,
      "duration": 0.0999,
      "velocity": 101,
      "chip": "ym2612"
    },
    {
      "channel": 4,
      "note": 85,
      "start": 41.3677,
      "duration": 0.3163,
      "velocity": 106,
      "chip": "ym2612"
    },
    {
      "channel": 5,
      "note": 32,
      "start": 41.3685,
      "duration": 0.0941,
      "velocity": 114,
      "chip": "ym2612"
    },
    {
      "channel": 0,
      "note": 83,
      "start": 41.466,
      "duration": 0.616,
      "velocity": 106,
      "chip": "ym2612"
    },
    {
      "channel": 1,
      "note": 52,
      "start": 41.4666,
      "duration": 0.2158,
      "velocity": 101,
      "chip": "ym2612"
    },
    {
      "channel": 2,
      "note": 74,
      "start": 41.4677,
      "duration": 0.2152,
      "velocity": 108,
      "chip": "ym2612"
    },
    {
      "channel": 3,
      "note": 76,
      "start": 41.4685,
      "duration": 0.6156,
      "velocity": 106,
      "chip": "ym2612"
    },
    {
      "channel": 5,
      "note": 32,
      "start": 41.4697,
      "duration": 0.1449,
      "velocity": 114,
      "chip": "ym2612"
    },
    {
      "channel": 1,
      "note": 52,
      "start": 41.6827,
      "duration": 0.1998,
      "velocity": 101,
      "chip": "ym2612"
    },
    {
      "channel": 2,
      "note": 80,
      "start": 41.6836,
      "duration": 0.1996,
      "velocity": 108,
      "chip": "ym2612"
    },
    {
      "channel": 4,
      "note": 83,
      "start": 41.6848,
      "duration": 0.6144,
      "velocity": 106,
      "chip": "ym2612"
    },
    {
      "channel": 5,
      "note": 75,
      "start": 41.6855,
      "duration": 0.1939,
      "velocity": 120,
      "chip": "ym2612"
    },
    {
      "channel": 1,
      "note": 49,
      "start": 41.883,
      "duration": 0.1993,
      "velocity": 101,
      "chip": "ym2612"
    },
    {
      "channel": 2,
      "note": 76,
      "start": 41.8838,
      "duration": 0.0964,
      "velocity": 108,
      "chip": "ym2612"
    },
    {
      "channel": 5,
      "note": 32,
      "start": 41.8855,
      "duration": 0.1295,
      "velocity": 114,
      "chip": "ym2612"
    },
    {
      "channel": 2,
      "note": 74,
      "start": 41.9809,
      "duration": 0.1025,
      "velocity": 108,
      "chip": "ym2612"
    },
    {
      "channel": 1,
      "note": 50,
      "start": 42.0829,
      "duration": 0.214,
      "velocity": 101,
      "chip": "ym2612"
    },
    {
      "channel": 2,
      "note": 74,
      "start": 42.0841,
      "duration": 0.1128,
      "velocity": 108,
      "chip": "ym2612"
    },
    {
      "channel": 5,
      "note": 32,
      "start": 42.0856,
      "duration": 0.1451,
      "velocity": 114,
      "chip": "ym2612"
    },
    {
      "channel": 2,
      "note": 74,
      "start": 42.1976,
      "duration": 0.1001,
      "velocity": 108,
      "chip": "ym2612"
    },
    {
      "channel": 0,
      "note": 83,
      "start": 42.2967,
      "duration": 0.2019,
      "velocity": 106,
      "chip": "ym2612"
    },
    {
      "channel": 1,
      "note": 62,
      "start": 42.2975,
      "duration": 0.202,
      "velocity": 101,
      "chip": "ym2612"
    },
    {
      "channel": 2,
      "note": 73,
      "start": 42.2983,
      "duration": 0.2019,
      "velocity": 108,
      "chip": "ym2612"
    },
    {
      "channel": 3,
      "note": 76,
      "start": 42.2991,
      "duration": 0.2019,
      "velocity": 106,
      "chip": "ym2612"
    },
    {
      "channel": 0,
      "note": 85,
      "start": 42.4993,
      "duration": 0.216,
      "velocity": 106,
      "chip": "ym2612"
    },
    {
      "channel": 1,
      "note": 51,
      "start": 42.5,
      "duration": 0.2161,
      "velocity": 101,
      "chip": "ym2612"
    },
    {
      "channel": 2,
      "note": 74,
      "start": 42.5008,
      "duration": 0.216,
      "velocity": 108,
      "chip": "ym2612"
    },
    {
      "channel": 3,
      "note": 78,
      "start": 42.5016,
      "duration": 0.216,
      "velocity": 106,
      "chip": "ym2612"
    },
    {
      "channel": 4,
      "note": 83,
      "start": 42.5024,
      "duration": 0.216,
      "velocity": 106,
      "chip": "ym2612"
    },
    {
      "channel": 5,
      "note": 75,
      "start": 42.5032,
      "duration": 0.2095,
      "velocity": 120,
      "chip": "ym2612"
    },
    {
      "channel": 0,
      "note": 83,
      "start": 42.716,
      "duration": 0.1996,
      "velocity": 106,
      "chip": "ym2612"
    },
    {
      "channel": 1,
      "note": 63,
      "start": 42.7167,
      "duration": 0.2,
      "velocity": 101,
      "chip": "ym2612"
    },
    {
      "channel": 2,
      "note": 73,
      "start": 42.7175,
      "duration": 0.2029,
      "velocity": 108,
      "chip": "ym2612"
    },
    {
      "channel": 3,
      "note": 76,
      "start": 42.7183,
      "duration": 0.2029,
      "velocity": 106,
      "chip": "ym2612"
    },
    {
      "channel": 4,
      "note": 85,
      "start": 42.7191,
      "duration": 0.2028,
      "velocity": 106,
      "chip": "ym2612"
    },
    {
      "channel": 5,
      "note": 32,
      "start": 42.72,
      "duration": 0.1279,
      "velocity": 114,
      "chip": "ym2612"
    },
    {
      "channel": 0,
      "note": 88,
      "start": 42.9163,
      "duration": 0.4156,
      "velocity": 106,
      "chip": "ym2612"
    },
    {
      "channel": 1,
      "note": 52,
      "start": 42.9173,
      "duration": 0.4153,
      "velocity": 101,
      "chip": "ym2612"
    },
    {
      "channel": 2,
      "note": 76,
      "start": 42.921,
      "duration": 0.1925,
      "velocity": 108,
      "chip": "ym2612"
    },
    {
      "channel": 3,
      "note": 80,
      "start": 42.9218,
      "duration": 0.412,
      "velocity": 106,
      "chip": "ym2612"
    },
    {
      "channel": 4,
      "note": 83,
      "start": 42.9226,
      "duration": 0.192,
      "velocity": 106,
      "chip": "ym2612"
    },
    {
      "channel": 5,
      "note": 32,
      "start": 42.9234,
      "duration": 0.1244,
      "velocity": 114,
      "chip": "ym2612"
    },
    {
      "channel": 2,
      "note": 74,
      "start": 43.1141,
      "duration": 0.2188,
      "velocity": 108,
      "chip": "ym2612"
    },
    {
      "channel": 4,
      "note": 88,
      "start": 43.1153,
      "duration": 0.4189,
      "velocity": 106,
      "chip": "ym2612"
    },
    {
      "channel": 0,
      "note": 88,
      "start": 43.3325,
      "duration": 0.297,
      "velocity": 106,
      "chip": "ym2612"
    },
    {
      "channel": 2,
      "note": 80,
      "start": 43.3336,
      "duration": 0.1994,
      "velocity": 108,
      "chip": "ym2612"
    },
    {
      "channel": 3,
      "note": 80,
      "start": 43.3343,
      "duration": 0.2969,
      "velocity": 106,
      "chip": "ym2612"
    },
    {
      "channel": 5,
      "note": 75,
      "start": 43.3353,
      "duration": 0.194,
      "velocity": 120,
      "chip": "ym2612"
    },
    {
      "channel": 1,
      "note": 49,
      "start": 43.5329,
      "duration": 0.2166,
      "velocity": 101,
      "chip": "ym2612"
    },
    {
      "channel": 2,
      "note": 76,
      "start": 43.5337,
      "duration": 0.0967,
      "velocity": 108,
      "chip": "ym2612"
    },
    {
      "channel": 4,
      "note": 88,
      "start": 43.5347,
      "duration": 0.3136,
      "velocity": 106,
      "chip": "ym2612"
    },
    {
      "channel": 5,
      "note": 32,
      "start": 43.5355,
      "duration": 0.129,
      "velocity": 114,
      "chip": "ym2612"
    },
    {
      "channel": 0,
      "note": 88,
      "start": 43.6299,
      "duration": 0.1187,
      "velocity": 106,
      "chip": "ym2612"
    },
    {
      "channel": 2,
      "note": 74,
      "start": 43.631,
      "duration": 0.1195,
      "velocity": 108,
      "chip": "ym2612"
    },
    {
      "channel": 3,
      "note": 80,
      "start": 43.6317,
      "duration": 0.1196,
      "velocity": 106,
      "chip": "ym2612"
    },
    {
      "channel": 0,
      "note": 90,
      "start": 43.7493,
      "duration": 0.1968,
      "velocity": 106,
      "chip": "ym2612"
    },
    {
      "channel": 1,
      "note": 50,
      "start": 43.75,
      "duration": 0.3989,
      "velocity": 101,
      "chip": "ym2612"
    },
    {
      "channel": 2,
      "note": 74,
      "start": 43.7512,
      "duration": 0.0959,
      "velocity": 108,
      "chip": "ym2612"
    },
    {
      "channel": 3,
      "note": 81,
      "start": 43.752,
      "duration": 0.1961,
      "velocity": 106,
      "chip": "ym2612"
    },
    {
      "channel": 5,
      "note": 32,
      "start": 43.7532,
      "duration": 0.128,
      "velocity": 114,
      "chip": "ym2612"
    },
    {
      "channel": 2,
      "note": 74,
      "start": 43.8478,
      "duration": 0.0994,
      "velocity": 108,
      "chip": "ym2612"
    },
    {
      "channel": 4,
      "note": 88,
      "start": 43.8488,
      "duration": 0.1001,
      "velocity": 106,
      "chip": "ym2612"
    },
    {
      "channel": 0,
      "note": 88,
      "start": 43.9467,
      "duration": 0.2019,
      "velocity": 106,
      "chip": "ym2612"
    },
    {
      "channel": 2,
      "note": 73,
      "start": 43.9479,
      "duration": 0.2018,
      "velocity": 108,
      "chip": "ym2612"
    },
    {
      "channel": 3,
      "note": 80,
      "start": 43.9487,
      "duration": 0.2018,
      "velocity": 106,
      "chip": "ym2612"
    },
    {
      "channel": 4,
      "note": 90,
      "start": 43.9495,
      "duration": 0.2013,
      "velocity": 106,
      "chip": "ym2612"
    },
    {
      "channel": 1,
      "note": 51,
      "start": 44.1495,
      "duration": 0.3162,
      "velocity": 101,
      "chip": "ym2612"
    },
    {
      "channel": 2,
      "note": 71,
      "start": 44.1504,
      "duration": 0.1128,
      "velocity": 108,
      "chip": "ym2612"
    },
    {
      "channel": 4,
      "note": 88,
      "start": 44.1515,
      "duration": 0.2142,
      "velocity": 106,
      "chip": "ym2612"
    },
    {
      "channel": 5,
      "note": 75,
      "start": 44.1522,
      "duration": 0.3105,
      "velocity": 120,
      "chip": "ym2612"
    },
    {
      "channel": 2,
      "note": 73,
      "start": 44.2638,
      "duration": 0.1001,
      "velocity": 108,
      "chip": "ym2612"
    },
    {
      "channel": 0,
      "note": 91,
      "start": 44.3635,
      "duration": 1.0353,
      "velocity": 106,
      "chip": "ym2612"
    },
    {
      "channel": 2,
      "note": 74,
      "start": 44.3646,
      "duration": 0.1018,
      "velocity": 108,
      "chip": "ym2612"
    },
    {
      "channel": 3,
      "note": 83,
      "start": 44.3656,
      "duration": 1.0356,
      "velocity": 106,
      "chip": "ym2612"
    },
    {
      "channel": 1,
      "note": 52,
      "start": 44.4663,
      "duration": 0.0971,
      "velocity": 101,
      "chip": "ym2612"
    },
    {
      "channel": 2,
      "note": 76,
      "start": 44.467,
      "duration": 0.0971,
      "velocity": 108,
      "chip": "ym2612"
    },
    {
      "channel": 5,
      "note": 32,
      "start": 44.4683,
      "duration": 0.1293,
      "velocity": 114,
      "chip": "ym2612"
    },
    {
      "channel": 2,
      "note": 76,
      "start": 44.5646,
      "duration": 0.2186,
      "velocity": 108,
      "chip": "ym2612"
    },
    {
      "channel": 4,
      "note": 91,
      "start": 44.5661,
      "duration": 1.0333,
      "velocity": 106,
      "chip": "ym2612"
    },
    {
      "channel": 1,
      "note": 52,
      "start": 44.6662,
      "duration": 0.1162,
      "velocity": 101,
      "chip": "ym2612"
    },
    {
      "channel": 5,
      "note": 32,
      "start": 44.6681,
      "duration": 0.1113,
      "velocity": 114,
      "chip": "ym2612"
    },
    {
      "channel": 1,
      "note": 52,
      "start": 44.7827,
      "duration": 0.1997,
      "velocity": 101,
      "chip": "ym2612"
    },
    {
      "channel": 2,
      "note": 74,
      "start": 44.7839,
      "duration": 0.199,
      "velocity": 108,
      "chip": "ym2612"
    },
    {
      "channel": 5,
      "note": 32,
      "start": 44.7856,
      "duration": 0.1289,
      "velocity": 114,
      "chip": "ym2612"
    },
    {
      "channel": 1,
      "note": 52,
      "start": 44.9829,
      "duration": 0.1995,
      "velocity": 101,
      "chip": "ym2612"
    },
    {
      "channel": 2,
      "note": 80,
      "start": 44.9836,
      "duration": 0.1995,
      "velocity": 108,
      "chip": "ym2612"
    },
    {
      "channel": 5,
      "note": 75,
      "start": 44.9852,
      "duration": 0.1941,
      "velocity": 120,
      "chip": "ym2612"
    },
    {
      "channel": 1,
      "note": 49,
      "start": 45.183,
      "duration": 0.2161,
      "velocity": 101,
      "chip": "ym2612"
    },
    {
      "channel": 2,
      "note": 76,
      "start": 45.1838,
      "duration": 0.0964,
      "velocity": 108,
      "chip": "ym2612"
    },
    {
      "channel": 5,
      "note": 32,
      "start": 45.1855,
      "duration": 0.146,
      "velocity": 114,
      "chip": "ym2612"
    },
    {
      "channel": 2,
      "note": 74,
      "start": 45.2809,
      "duration": 0.1193,
      "velocity": 108,
      "chip": "ym2612"
    },
    {
      "channel": 1,
      "note": 50,
      "start": 45.3997,
      "duration": 0.1972,
      "velocity": 101,
      "chip": "ym2612"
    },
    {
      "channel": 2,
      "note": 74,
      "start": 45.4009,
      "duration": 0.096,
      "velocity": 108,
      "chip": "ym2612"
    },
    {
      "channel": 5,
      "note": 32,
      "start": 45.4027,
      "duration": 0.1281,
      "velocity": 114,
      "chip": "ym2612"
    },
    {
      "channel": 2,
      "note": 74,
      "start": 45.4976,
      "duration": 0.1001,
      "velocity": 108,
      "chip": "ym2612"
    },
    {
      "channel": 0,
      "note": 88,
      "start": 45.5967,
      "duration": 0.2019,
      "velocity": 106,
      "chip": "ym2612"
    },
    {
      "channel": 1,
      "note": 62,
      "start": 45.5975,
      "duration": 0.2018,
      "velocity": 101,
      "chip": "ym2612"
    },
    {
      "channel": 2,
      "note": 73,
      "start": 45.5983,
      "duration": 0.2017,
      "velocity": 108,
      "chip": "ym2612"
    },
    {
      "channel": 3,
      "note": 83,
      "start": 45.5991,
      "duration": 0.2017,
      "velocity": 106,
      "chip": "ym2612"
    },
    {
      "channel": 0,
      "note": 88,
      "start": 45.7991,
      "duration": 0.4188,
      "velocity": 106,
      "chip": "ym2612"
    },
    {
      "channel": 1,
      "note": 51,
      "start": 45.7998,
      "duration": 0.2159,
      "velocity": 101,
      "chip": "ym2612"
    },
    {
      "channel": 2,
      "note": 74,
      "start": 45.8007,
      "duration": 0.2157,
      "velocity": 108,
      "chip": "ym2612"
    },
    {
      "channel": 3,
      "note": 83,
      "start": 45.8013,
      "duration": 0.4244,
      "velocity": 106,
      "chip": "ym2612"
    },
    {
      "channel": 4,
      "note": 88,
      "start": 45.8021,
      "duration": 0.2154,
      "velocity": 106,
      "chip": "ym2612"
    },
    {
      "channel": 5,
      "note": 75,
      "start": 45.8028,
      "duration": 0.2099,
      "velocity": 120,
      "chip": "ym2612"
    },
    {
      "channel": 1,
      "note": 63,
      "start": 46.0163,
      "duration": 0.2027,
      "velocity": 101,
      "chip": "ym2612"
    },
    {
      "channel": 2,
      "note": 73,
      "start": 46.017,
      "duration": 0.2056,
      "velocity": 108,
      "chip": "ym2612"
    },
    {
      "channel": 4,
      "note": 88,
      "start": 46.018,
      "duration": 0.4157,
      "velocity": 106,
      "chip": "ym2612"
    },
    {
      "channel": 5,
      "note": 32,
      "start": 46.0189,
      "duration": 0.1292,
      "velocity": 114,
      "chip": "ym2612"
    },
    {
      "channel": 0,
      "note": 92,
      "start": 46.2185,
      "duration": 0.4134,
      "velocity": 106,
      "chip": "ym2612"
    },
    {
      "channel": 1,
      "note": 52,
      "start": 46.2196,
      "duration": 0.413,
      "velocity": 101,
      "chip": "ym2612"
    },
    {
      "channel": 2,
      "note": 76,
      "start": 46.2232,
      "duration": 0.2069,
      "velocity": 108,
      "chip": "ym2612"
    },
    {
      "channel": 3,
      "note": 83,
      "start": 46.2264,
      "duration": 0.4073,
      "velocity": 106,
      "chip": "ym2612"
    },
    {
      "channel": 5,
      "note": 32,
      "start": 46.2276,
      "duration": 0.1204,
      "velocity": 114,
      "chip": "ym2612"
    },
    {
      "channel": 2,
      "note": 74,
      "start": 46.4307,
      "duration": 0.2022,
      "velocity": 108,
      "chip": "ym2612"
    },
    {
      "channel": 4,
      "note": 92,
      "start": 46.4344,
      "duration": 0.3998,
      "velocity": 106,
      "chip": "ym2612"
    },
    {
      "channel": 0,
      "note": 92,
      "start": 46.6325,
      "duration": 0.3136,
      "velocity": 106,
      "chip": "ym2612"
    },
    {
      "channel": 2,
      "note": 80,
      "start": 46.6336,
      "duration": 0.1994,
      "velocity": 108,
      "chip": "ym2612"
    },
    {
      "channel": 3,
      "note": 83,
      "start": 46.6343,
      "duration": 0.3136,
      "velocity": 106,
      "chip": "ym2612"
    },
    {
      "channel": 5,
      "note": 75,
      "start": 46.6353,
      "duration": 0.194,
      "velocity": 120,
      "chip": "ym2612"
    },
    {
      "channel": 1,
      "note": 49,
      "start": 46.8329,
      "duration": 0.2164,
      "velocity": 101,
      "chip": "ym2612"
    },
    {
      "channel": 2,
      "note": 76,
      "start": 46.8337,
      "duration": 0.1134,
      "velocity": 108,
      "chip": "ym2612"
    },
    {
      "channel": 4,
      "note": 92,
      "start": 46.8347,
      "duration": 0.3136,
      "velocity": 106,
      "chip": "ym2612"
    },
    {
      "channel": 5,
      "note": 32,
      "start": 46.8355,
      "duration": 0.1457,
      "velocity": 114,
      "chip": "ym2612"
    },
    {
      "channel": 0,
      "note": 92,
      "start": 46.9466,
      "duration": 0.102,
      "velocity": 106,
      "chip": "ym2612"
    },
    {
      "channel": 2,
      "note": 74,
      "start": 46.9477,
      "duration": 0.1026,
      "velocity": 108,
      "chip": "ym2612"
    },
    {
      "channel": 3,
      "note": 83,
      "start": 46.9484,
      "duration": 0.1027,
      "velocity": 106,
      "chip": "ym2612"
    },
    {
      "channel": 0,
      "note": 92,
      "start": 47.0491,
      "duration": 0.197,
      "velocity": 106,
      "chip": "ym2612"
    },
    {
      "channel": 1,
      "note": 50,
      "start": 47.0498,
      "duration": 0.4161,
      "velocity": 101,
      "chip": "ym2612"
    },
    {
      "channel": 2,
      "note": 74,
      "start": 47.051,
      "duration": 0.0961,
      "velocity": 108,
      "chip": "ym2612"
    },
    {
      "channel": 3,
      "note": 83,
      "start": 47.0516,
      "duration": 0.1962,
      "velocity": 106,
      "chip": "ym2612"
    },
    {
      "channel": 5,
      "note": 32,
      "start": 47.0528,
      "duration": 0.1284,
      "velocity": 114,
      "chip": "ym2612"
    },
    {
      "channel": 2,
      "note": 74,
      "start": 47.1478,
      "duration": 0.0993,
      "velocity": 108,
      "chip": "ym2612"
    },
    {
      "channel": 4,
      "note": 92,
      "start": 47.1488,
      "duration": 0.0998,
      "velocity": 106,
      "chip": "ym2612"
    },
    {
      "channel": 0,
      "note": 92,
      "start": 47.2466,
      "duration": 0.2187,
      "velocity": 106,
      "chip": "ym2612"
    },
    {
      "channel": 2,
      "note": 73,
      "start": 47.2477,
      "duration": 0.2189,
      "velocity": 108,
      "chip": "ym2612"
    },
    {
      "channel": 3,
      "note": 83,
      "start": 47.2484,
      "duration": 0.2191,
      "velocity": 106,
      "chip": "ym2612"
    },
    {
      "channel": 4,
      "note": 92,
      "start": 47.249,
      "duration": 0.2191,
      "velocity": 106,
      "chip": "ym2612"
    },
    {
      "channel": 0,
      "note": 92,
      "start": 47.4658,
      "duration": 0.097,
      "velocity": 106,
      "chip": "ym2612"
    },
    {
      "channel": 1,
      "note": 51,
      "start": 47.4665,
      "duration": 0.2996,
      "velocity": 101,
      "chip": "ym2612"
    },
    {
      "channel": 2,
      "note": 71,
      "start": 47.4673,
      "duration": 0.0966,
      "velocity": 108,
      "chip": "ym2612"
    },
    {
      "channel": 3,
      "note": 83,
      "start": 47.468,
      "duration": 0.0968,
      "velocity": 106,
      "chip": "ym2612"
    },
    {
      "channel": 4,
      "note": 92,
      "start": 47.4686,
      "duration": 0.1969,
      "velocity": 106,
      "chip": "ym2612"
    },
    {
      "channel": 5,
      "note": 75,
      "start": 47.4693,
      "duration": 0.2934,
      "velocity": 120,
      "chip": "ym2612"
    },
    {
      "channel": 0,
      "note": 90,
      "start": 47.5634,
      "duration": 0.0994,
      "velocity": 106,
      "chip": "ym2612"
    },
    {
      "channel": 2,
      "note": 73,
      "start": 47.5645,
      "duration": 0.0994,
      "velocity": 108,
      "chip": "ym2612"
    },
    {
      "channel": 3,
      "note": 81,
      "start": 47.5654,
      "duration": 0.0994,
      "velocity": 106,
      "chip": "ym2612"
    },
    {
      "channel": 0,
      "note": 88,
      "start": 47.6634,
      "duration": 0.1019,
      "velocity": 106,
      "chip": "ym2612"
    },
    {
      "channel": 2,
      "note": 74,
      "start": 47.6645,
      "duration": 0.1023,
      "velocity": 108,
      "chip": "ym2612"
    },
    {
      "channel": 3,
      "note": 80,
      "start": 47.6654,
      "duration": 0.1023,
      "velocity": 106,
      "chip": "ym2612"
    },
    {
      "channel": 4,
      "note": 92,
      "start": 47.666,
      "duration": 0.1025,
      "velocity": 106,
      "chip": "ym2612"
    },
    {
      "channel": 0,
      "note": 90,
      "start": 47.766,
      "duration": 0.316,
      "velocity": 106,
      "chip": "ym2612"
    },
    {
      "channel": 1,
      "note": 52,
      "start": 47.7667,
      "duration": 0.0965,
      "velocity": 101,
      "chip": "ym2612"
    },
    {
      "channel": 2,
      "note": 76,
      "start": 47.7675,
      "duration": 0.0964,
      "velocity": 108,
      "chip": "ym2612"
    },
    {
      "channel": 3,
      "note": 81,
      "start": 47.7683,
      "duration": 0.3162,
      "velocity": 106,
      "chip": "ym2612"
    },
    {
      "channel": 4,
      "note": 90,
      "start": 47.7691,
      "duration": 0.0957,
      "velocity": 106,
      "chip": "ym2612"
    },
    {
      "channel": 5,
      "note": 32,
      "start": 47.77,
      "duration": 0.1277,
      "velocity": 114,
      "chip": "ym2612"
    },
    {
      "channel": 2,
      "note": 76,
      "start": 47.8644,
      "duration": 0.2193,
      "velocity": 108,
      "chip": "ym2612"
    },
    {
      "channel": 4,
      "note": 88,
      "start": 47.8656,
      "duration": 0.1182,
      "velocity": 106,
      "chip": "ym2612"
    },
    {
      "channel": 1,
      "note": 52,
      "start": 47.9829,
      "duration": 0.0999,
      "velocity": 101,
      "chip": "ym2612"
    },
    {
      "channel": 4,
      "note": 90,
      "start": 47.9844,
      "duration": 0.2996,
      "velocity": 106,
      "chip": "ym2612"
    },
    {
      "channel": 5,
      "note": 32,
      "start": 47.9852,
      "duration": 0.0942,
      "velocity": 114,
      "chip": "ym2612"
    },
    {
      "channel": 0,
      "note": 88,
      "start": 48.0827,
      "duration": 0.616,
      "velocity": 106,
      "chip": "ym2612"
    },
    {
      "channel": 1,
      "note": 52,
      "start": 48.0832,
      "duration": 0.1991,
      "velocity": 101,
      "chip": "ym2612"
    },
    {
      "channel": 2,
      "note": 74,
      "start": 48.0844,
      "duration": 0.1985,
      "velocity": 108,
      "chip": "ym2612"
    },
    {
      "channel": 3,
      "note": 80,
      "start": 48.0852,
      "duration": 0.6156,
      "velocity": 106,
      "chip": "ym2612"
    },
    {
      "channel": 5,
      "note": 32,
      "start": 48.0863,
      "duration": 0.1282,
      "velocity": 114,
      "chip": "ym2612"
    },
    {
      "channel": 1,
      "note": 52,
      "start": 48.2827,
      "duration": 0.1997,
      "velocity": 101,
      "chip": "ym2612"
    },
    {
      "channel": 2,
      "note": 80,
      "start": 48.2836,
      "duration": 0.1995,
      "velocity": 108,
      "chip": "ym2612"
    },
    {
      "channel": 4,
      "note": 88,
      "start": 48.2848,
      "duration": 0.6145,
      "velocity": 106,
      "chip": "ym2612"
    },
    {
      "channel": 5,
      "note": 75,
      "start": 48.2855,
      "duration": 0.1939,
      "velocity": 120,
      "chip": "ym2612"
    },
    {
      "channel": 1,
      "note": 49,
      "start": 48.483,
      "duration": 0.216,
      "velocity": 101,
      "chip": "ym2612"
    },
    {
      "channel": 2,
      "note": 76,
      "start": 48.4838,
      "duration": 0.113,
      "velocity": 108,
      "chip": "ym2612"
    },
    {
      "channel": 5,
      "note": 32,
      "start": 48.4854,
      "duration": 0.1461,
      "velocity": 114,
      "chip": "ym2612"
    },
    {
      "channel": 2,
      "note": 74,
      "start": 48.5976,
      "duration": 0.1025,
      "velocity": 108,
      "chip": "ym2612"
    },
    {
      "channel": 1,
      "note": 50,
      "start": 48.6995,
      "duration": 0.1974,
      "velocity": 101,
      "chip": "ym2612"
    },
    {
      "channel": 2,
      "note": 74,
      "start": 48.7007,
      "duration": 0.0962,
      "velocity": 108,
      "chip": "ym2612"
    },
    {
      "channel": 5,
      "note": 32,
      "start": 48.7023,
      "duration": 0.1284,
      "velocity": 114,
      "chip": "ym2612"
    },
    {
      "channel": 2,
      "note": 74,
      "start": 48.7976,
      "duration": 0.1001,
      "velocity": 108,
      "chip": "ym2612"
    },
    {
      "channel": 0,
      "note": 88,
      "start": 48.8967,
      "duration": 0.2186,
      "velocity": 106,
      "chip": "ym2612"
    },
    {
      "channel": 1,
      "note": 62,
      "start": 48.8975,
      "duration": 0.2186,
      "velocity": 101,
      "chip": "ym2612"
    },
    {
      "channel": 2,
      "note": 73,
      "start": 48.8983,
      "duration": 0.2186,
      "velocity": 108,
      "chip": "ym2612"
    },
    {
      "channel": 3,
      "note": 80,
      "start": 48.8991,
      "duration": 0.2185,
      "velocity": 106,
      "chip": "ym2612"
    },
    {
      "channel": 0,
      "note": 90,
      "start": 49.116,
      "duration": 0.1993,
      "velocity": 106,
      "chip": "ym2612"
    },
    {
      "channel": 1,
      "note": 51,
      "start": 49.1167,
      "duration": 0.1994,
      "velocity": 101,
      "chip": "ym2612"
    },
    {
      "channel": 2,
      "note": 74,
      "start": 49.1175,
      "duration": 0.1994,
      "velocity": 108,
      "chip": "ym2612"
    },
    {
      "channel": 3,
      "note": 81,
      "start": 49.1183,
      "duration": 0.1994,
      "velocity": 106,
      "chip": "ym2612"
    },
    {
      "channel": 4,
      "note": 88,
      "start": 49.1191,
      "duration": 0.1993,
      "velocity": 106,
      "chip": "ym2612"
    },
    {
      "channel": 5,
      "note": 75,
      "start": 49.1198,
      "duration": 0.1929,
      "velocity": 120,
      "chip": "ym2612"
    },
    {
      "channel": 0,
      "note": 88,
      "start": 49.316,
      "duration": 0.1995,
      "velocity": 106,
      "chip": "ym2612"
    },
    {
      "channel": 1,
      "note": 63,
      "start": 49.3167,
      "duration": 0.1999,
      "velocity": 101,
      "chip": "ym2612"
    },
    {
      "channel": 2,
      "note": 73,
      "start": 49.3175,
      "duration": 0.2027,
      "velocity": 108,
      "chip": "ym2612"
    },
    {
      "channel": 3,
      "note": 80,
      "start": 49.3183,
      "duration": 0.2027,
      "velocity": 106,
      "chip": "ym2612"
    },
    {
      "channel": 4,
      "note": 90,
      "start": 49.3191,
      "duration": 0.2027,
      "velocity": 106,
      "chip": "ym2612"
    },
    {
      "channel": 5,
      "note": 32,
      "start": 49.32,
      "duration": 0.1279,
      "velocity": 114,
      "chip": "ym2612"
    },
    {
      "channel": 0,
      "note": 92,
      "start": 49.5162,
      "duration": 0.4158,
      "velocity": 106,
      "chip": "ym2612"
    },
    {
      "channel": 1,
      "note": 52,
      "start": 49.5171,
      "duration": 0.4155,
      "velocity": 101,
      "chip": "ym2612"
    },
    {
      "channel": 2,
      "note": 76,
      "start": 49.5208,
      "duration": 0.2093,
      "velocity": 108,
      "chip": "ym2612"
    },
    {
      "channel": 3,
      "note": 83,
      "start": 49.5217,
      "duration": 0.4121,
      "velocity": 106,
      "chip": "ym2612"
    },
    {
      "channel": 4,
      "note": 88,
      "start": 49.5225,
      "duration": 0.2088,
      "velocity": 106,
      "chip": "ym2612"
    },
    {
      "channel": 5,
      "note": 32,
      "start": 49.5233,
      "duration": 0.1412,
      "velocity": 114,
      "chip": "ym2612"
    },
    {
      "channel": 2,
      "note": 74,
      "start": 49.7307,
      "duration": 0.2022,
      "velocity": 108,
      "chip": "ym2612"
    },
    {
      "channel": 4,
      "note": 92,
      "start": 49.732,
      "duration": 0.4189,
      "velocity": 106,
      "chip": "ym2612"
    },
    {
      "channel": 0,
      "note": 92,
      "start": 49.9325,
      "duration": 0.3136,
      "velocity": 106,
      "chip": "ym2612"
    },
    {
      "channel": 2,
      "note": 80,
      "start": 49.9336,
      "duration": 0.2161,
      "velocity": 108,
      "chip": "ym2612"
    },
    {
      "channel": 3,
      "note": 83,
      "start": 49.9343,
      "duration": 0.3136,
      "velocity": 106,
      "chip": "ym2612"
    },
    {
      "channel": 5,
      "note": 75,
      "start": 49.9353,
      "duration": 0.2107,
      "velocity": 120,
      "chip": "ym2612"
    },
    {
      "channel": 1,
      "note": 49,
      "start": 50.1495,
      "duration": 0.1999,
      "velocity": 101,
      "chip": "ym2612"
    },
    {
      "channel": 2,
      "note": 76,
      "start": 50.1504,
      "duration": 0.0967,
      "velocity": 108,
      "chip": "ym2612"
    },
    {
      "channel": 4,
      "note": 92,
      "start": 50.1514,
      "duration": 0.2969,
      "velocity": 106,
      "chip": "ym2612"
    },
    {
      "channel": 5,
      "note": 32,
      "start": 50.1522,
      "duration": 0.129,
      "velocity": 114,
      "chip": "ym2612"
    },
    {
      "channel": 0,
      "note": 92,
      "start": 50.2466,
      "duration": 0.102,
      "velocity": 106,
      "chip": "ym2612"
    },
    {
      "channel": 2,
      "note": 74,
      "start": 50.2477,
      "duration": 0.1028,
      "velocity": 108,
      "chip": "ym2612"
    },
    {
      "channel": 3,
      "note": 83,
      "start": 50.2484,
      "duration": 0.1029,
      "velocity": 106,
      "chip": "ym2612"
    },
    {
      "channel": 0,
      "note": 93,
      "start": 50.3493,
      "duration": 0.1968,
      "velocity": 106,
      "chip": "ym2612"
    },
    {
      "channel": 1,
      "note": 50,
      "start": 50.35,
      "duration": 0.4156,
      "velocity": 101,
      "chip": "ym2612"
    },
    {
      "channel": 2,
      "note": 74,
      "start": 50.3512,
      "duration": 0.0959,
      "velocity": 108,
      "chip": "ym2612"
    },
    {
      "channel": 3,
      "note": 85,
      "start": 50.352,
      "duration": 0.1961,
      "velocity": 106,
      "chip": "ym2612"
    },
    {
      "channel": 5,
      "note": 32,
      "start": 50.3532,
      "duration": 0.128,
      "velocity": 114,
      "chip": "ym2612"
    },
    {
      "channel": 2,
      "note": 74,
      "start": 50.4478,
      "duration": 0.0994,
      "velocity": 108,
      "chip": "ym2612"
    },
    {
      "channel": 4,
      "note": 92,
      "start": 50.4488,
      "duration": 0.1001,
      "velocity": 106,
      "chip": "ym2612"
    },
    {
      "channel": 0,
      "note": 92,
      "start": 50.5467,
      "duration": 0.2186,
      "velocity": 106,
      "chip": "ym2612"
    },
    {
      "channel": 2,
      "note": 73,
      "start": 50.5479,
      "duration": 0.2185,
      "velocity": 108,
      "chip": "ym2612"
    },
    {
      "channel": 3,
      "note": 83,
      "start": 50.5487,
      "duration": 0.2184,
      "velocity": 106,
      "chip": "ym2612"
    },
    {
      "channel": 4,
      "note": 93,
      "start": 50.5496,
      "duration": 0.2179,
      "velocity": 106,
      "chip": "ym2612"
    },
    {
      "channel": 1,
      "note": 51,
      "start": 50.7662,
      "duration": 0.2995,
      "velocity": 101,
      "chip": "ym2612"
    },
    {
      "channel": 2,
      "note": 71,
      "start": 50.767,
      "duration": 0.0961,
      "velocity": 108,
      "chip": "ym2612"
    },
    {
      "channel": 4,
      "note": 92,
      "start": 50.7682,
      "duration": 0.1975,
      "velocity": 106,
      "chip": "ym2612"
    },
    {
      "channel": 5,
      "note": 75,
      "start": 50.7689,
      "duration": 0.2938,
      "velocity": 120,
      "chip": "ym2612"
    },
    {
      "channel": 2,
      "note": 73,
      "start": 50.8638,
      "duration": 0.1001,
      "velocity": 108,
      "chip": "ym2612"
    },
    {
      "channel": 0,
      "note": 95,
      "start": 50.9635,
      "duration": 1.0378,
      "velocity": 100,
      "chip": "ym2612"
    },
    {
      "channel": 2,
      "note": 74,
      "start": 50.9647,
      "duration": 0.1017,
      "velocity": 108,
      "chip": "ym2612"
    },
    {
      "channel": 3,
      "note": 86,
      "start": 50.9656,
      "duration": 1.0409,
      "velocity": 100,
      "chip": "ym2612"
    },
    {
      "channel": 1,
      "note": 52,
      "start": 51.0663,
      "duration": 0.1138,
      "velocity": 101,
      "chip": "ym2612"
    },
    {
      "channel": 2,
      "note": 76,
      "start": 51.067,
      "duration": 0.1137,
      "velocity": 108,
      "chip": "ym2612"
    },
    {
      "channel": 5,
      "note": 32,
      "start": 51.0683,
      "duration": 0.146,
      "velocity": 114,
      "chip": "ym2612"
    },
    {
      "channel": 2,
      "note": 76,
      "start": 51.1813,
      "duration": 0.202,
      "velocity": 108,
      "chip": "ym2612"
    },
    {
      "channel": 4,
      "note": 95,
      "start": 51.1827,
      "duration": 1.0219,
      "velocity": 100,
      "chip": "ym2612"
    },
    {
      "channel": 1,
      "note": 52,
      "start": 51.2829,
      "duration": 0.0994,
      "velocity": 101,
      "chip": "ym2612"
    },
    {
      "channel": 5,
      "note": 32,
      "start": 51.2848,
      "duration": 0.0947,
      "velocity": 114,
      "chip": "ym2612"
    },
    {
      "channel": 1,
      "note": 52,
      "start": 51.3827,
      "duration": 0.1997,
      "velocity": 101,
      "chip": "ym2612"
    },
    {
      "channel": 2,
      "note": 74,
      "start": 51.3839,
      "duration": 0.199,
      "velocity": 108,
      "chip": "ym2612"
    },
    {
      "channel": 5,
      "note": 32,
      "start": 51.3856,
      "duration": 0.1289,
      "velocity": 114,
      "chip": "ym2612"
    },
    {
      "channel": 1,
      "note": 52,
      "start": 51.5829,
      "duration": 0.2162,
      "velocity": 101,
      "chip": "ym2612"
    },
    {
      "channel": 2,
      "note": 80,
      "start": 51.5836,
      "duration": 0.2161,
      "velocity": 108,
      "chip": "ym2612"
    },
    {
      "channel": 5,
      "note": 75,
      "start": 51.5852,
      "duration": 0.2108,
      "velocity": 120,
      "chip": "ym2612"
    },
    {
      "channel": 1,
      "note": 49,
      "start": 51.7997,
      "duration": 0.2025,
      "velocity": 101,
      "chip": "ym2612"
    },
    {
      "channel": 2,
      "note": 76,
      "start": 51.8005,
      "duration": 0.0964,
      "velocity": 108,
      "chip": "ym2612"
    },
    {
      "channel": 5,
      "note": 32,
      "start": 51.8022,
      "duration": 0.1293,
      "velocity": 114,
      "chip": "ym2612"
    },
    {
      "channel": 2,
      "note": 74,
      "start": 51.8976,
      "duration": 0.1057,
      "velocity": 108,
      "chip": "ym2612"
    },
    {
      "channel": 0,
      "note": 76,
      "start": 52.002,
      "duration": 0.0941,
      "velocity": 100,
      "chip": "ym2612"
    },
    {
      "channel": 1,
      "note": 50,
      "start": 52.0027,
      "duration": 0.1968,
      "velocity": 101,
      "chip": "ym2612"
    },
    {
      "channel": 2,
      "note": 74,
      "start": 52.0039,
      "duration": 0.0937,
      "velocity": 108,
      "chip": "ym2612"
    },
    {
      "channel": 3,
      "note": 71,
      "start": 52.0071,
      "duration": 0.0913,
      "velocity": 100,
      "chip": "ym2612"
    },
    {
      "channel": 5,
      "note": 32,
      "start": 52.0084,
      "duration": 0.123,
      "velocity": 114,
      "chip": "ym2612"
    },
    {
      "channel": 0,
      "note": 80,
      "start": 52.0967,
      "duration": 0.1019,
      "velocity": 100,
      "chip": "ym2612"
    },
    {
      "channel": 2,
      "note": 74,
      "start": 52.0983,
      "duration": 0.1019,
      "velocity": 108,
      "chip": "ym2612"
    },
    {
      "channel": 3,
      "note": 76,
      "start": 52.0991,
      "duration": 0.1019,
      "velocity": 100,
      "chip": "ym2612"
    },
    {
      "channel": 0,
      "note": 83,
      "start": 52.1993,
      "duration": 0.1134,
      "velocity": 100,
      "chip": "ym2612"
    },
    {
      "channel": 1,
      "note": 62,
      "start": 52.2,
      "duration": 0.2161,
      "velocity": 101,
      "chip": "ym2612"
    },
    {
      "channel": 2,
      "note": 73,
      "start": 52.2008,
      "duration": 0.216,
      "velocity": 108,
      "chip": "ym2612"
    },
    {
      "channel": 3,
      "note": 80,
      "start": 52.2016,
      "duration": 0.1126,
      "velocity": 100,
      "chip": "ym2612"
    },
    {
      "channel": 4,
      "note": 76,
      "start": 52.2053,
      "duration": 0.1098,
      "velocity": 100,
      "chip": "ym2612"
    },
    {
      "channel": 5,
      "note": 75,
      "start": 52.206,
      "duration": 0.2067,
      "velocity": 120,
      "chip": "ym2612"
    },
    {
      "channel": 0,
      "note": 88,
      "start": 52.3134,
      "duration": 0.1019,
      "velocity": 100,
      "chip": "ym2612"
    },
    {
      "channel": 3,
      "note": 83,
      "start": 52.3149,
      "duration": 0.1027,
      "velocity": 100,
      "chip": "ym2612"
    },
    {
      "channel": 4,
      "note": 80,
      "start": 52.3157,
      "duration": 0.1027,
      "velocity": 100,
      "chip": "ym2612"
    },
    {
      "channel": 0,
      "note": 80,
      "start": 52.416,
      "duration": 0.0968,
      "velocity": 100,
      "chip": "ym2612"
    },
    {
      "channel": 1,
      "note": 51,
      "start": 52.4167,
      "duration": 0.1994,
      "velocity": 101,
      "chip": "ym2612"
    },
    {
      "channel": 2,
      "note": 74,
      "start": 52.4175,
      "duration": 0.1994,
      "velocity": 108,
      "chip": "ym2612"
    },
    {
      "channel": 3,
      "note": 88,
      "start": 52.4183,
      "duration": 0.0959,
      "velocity": 100,
      "chip": "ym2612"
    },
    {
      "channel": 4,
      "note": 83,
      "start": 52.4191,
      "duration": 0.0959,
      "velocity": 100,
      "chip": "ym2612"
    },
    {
      "channel": 5,
      "note": 75,
      "start": 52.4198,
      "duration": 0.1929,
      "velocity": 120,
      "chip": "ym2612"
    },
    {
      "channel": 0,
      "note": 83,
      "start": 52.5134,
      "duration": 0.1019,
      "velocity": 100,
      "chip": "ym2612"
    },
    {
      "channel": 3,
      "note": 80,
      "start": 52.5149,
      "duration": 0.1027,
      "velocity": 100,
      "chip": "ym2612"
    },
    {
      "channel": 4,
      "note": 88,
      "start": 52.5157,
      "duration": 0.1027,
      "velocity": 100,
      "chip": "ym2612"
    },
    {
      "channel": 0,
      "note": 88,
      "start": 52.616,
      "duration": 0.0968,
      "velocity": 100,
      "chip": "ym2612"
    },
    {
      "channel": 1,
      "note": 63,
      "start": 52.6167,
      "duration": 0.2188,
      "velocity": 101,
      "chip": "ym2612"
    },
    {
      "channel": 2,
      "note": 73,
      "start": 52.6175,
      "duration": 0.2214,
      "velocity": 106,
      "chip": "ym2612"
    },
    {
      "channel": 3,
      "note": 83,
      "start": 52.6183,
      "duration": 0.0959,
      "velocity": 100,
      "chip": "ym2612"
    },
    {
      "channel": 4,
      "note": 80,
      "start": 52.6191,
      "duration": 0.0959,
      "velocity": 100,
      "chip": "ym2612"
    },
    {
      "channel": 5,
      "note": 32,
      "start": 52.62,
      "duration": 0.1279,
      "velocity": 114,
      "chip": "ym2612"
    },
    {
      "channel": 0,
      "note": 92,
      "start": 52.7134,
      "duration": 0.121,
      "velocity": 106,
      "chip": "ym2612"
    },
    {
      "channel": 3,
      "note": 88,
      "start": 52.7149,
      "duration": 0.127,
      "velocity": 106,
      "chip": "ym2612"
    },
    {
      "channel": 4,
      "note": 83,
      "start": 52.7157,
      "duration": 0.1271,
      "velocity": 100,
      "chip": "ym2612"
    },
    {
      "channel": 0,
      "note": 83,
      "start": 52.835,
      "duration": 0.397,
      "velocity": 106,
      "chip": "ym2612"
    },
    {
      "channel": 1,
      "note": 52,
      "start": 52.836,
      "duration": 0.3963,
      "velocity": 101,
      "chip": "ym2612"
    },
    {
      "channel": 2,
      "note": 76,
      "start": 52.8395,
      "duration": 0.3931,
      "velocity": 106,
      "chip": "ym2612"
    },
    {
      "channel": 3,
      "note": 80,
      "start": 52.8427,
      "duration": 0.3903,
      "velocity": 106,
      "chip": "ym2612"
    },
    {
      "channel": 4,
      "note": 88,
      "start": 52.8435,
      "duration": 0.0873,
      "velocity": 100,
      "chip": "ym2612"
    },
    {
      "channel": 5,
      "note": 32,
      "start": 52.8443,
      "duration": 0.1202,
      "velocity": 114,
      "chip": "ym2612"
    },
    {
      "channel": 4,
      "note": 92,
      "start": 52.9315,
      "duration": 0.1017,
      "velocity": 106,
      "chip": "ym2612"
    },
    {
      "channel": 4,
      "note": 83,
      "start": 53.0338,
      "duration": 0.4162,
      "velocity": 106,
      "chip": "ym2612"
    },
    {
      "channel": 5,
      "note": 75,
      "start": 53.2342,
      "duration": 0.2118,
      "velocity": 120,
      "chip": "ym2612"
    },
    {
      "channel": 0,
      "note": 83,
      "start": 53.4493,
      "duration": 0.0007,
      "velocity": 106,
      "chip": "ym2612"
    },
    {
      "channel": 1,
      "note": 49,
      "start": 53.45,
      "duration": 0.0,
      "velocity": 101,
      "chip": "ym2612"
    }
  ]
}