{
  "track_name": "19 - Sky",
  "duration_sec": 36.483,
  "sample_rate": 44100,
  "note_count": 592,
  "unique_pitches": 42,
  "pitch_range": 82,
  "avg_note_duration": 0.1877,
  "reconstruction_stats": {
    "notes_reconstructed": 592,
    "keyon_events": 592,
    "keyoff_events": 592,
    "orphan_keyons": 0,
    "unique_pitches": 42,
    "pitch_range": 82,
    "avg_duration_sec": 0.1877
  },
  "metadata": {
    "source": "W\\Wonder Boy in Monster World\\19 - Sky.vgz"
  },
  "notes": [
    {
      "channel": 0,
      "note": 42,
      "start": 0.0513,
      "duration": 0.3527,
      "velocity": 95,
      "chip": "ym2612"
    },
    {
      "channel": 1,
      "note": 90,
      "start": 0.054,
      "duration": 0.0761,
      "velocity": 83,
      "chip": "ym2612"
    },
    {
      "channel": 5,
      "note": 105,
      "start": 0.0569,
      "duration": 0.4291,
      "velocity": 120,
      "chip": "ym2612"
    },
    {
      "channel": 4,
      "note": 69,
      "start": 0.1726,
      "duration": 0.078,
      "velocity": 83,
      "chip": "ym2612"
    },
    {
      "channel": 2,
      "note": 30,
      "start": 0.2758,
      "duration": 0.0782,
      "velocity": 83,
      "chip": "ym2612"
    },
    {
      "channel": 1,
      "note": 61,
      "start": 0.3939,
      "duration": 0.0792,
      "velocity": 83,
      "chip": "ym2612"
    },
    {
      "channel": 0,
      "note": 66,
      "start": 0.4978,
      "duration": 0.3522,
      "velocity": 95,
      "chip": "ym2612"
    },
    {
      "channel": 4,
      "note": 62,
      "start": 0.5,
      "duration": 0.0709,
      "velocity": 83,
      "chip": "ym2612"
    },
    {
      "channel": 5,
      "note": 23,
      "start": 0.503,
      "duration": 0.4289,
      "velocity": 120,
      "chip": "ym2612"
    },
    {
      "channel": 2,
      "note": 65,
      "start": 0.618,
      "duration": 0.0791,
      "velocity": 83,
      "chip": "ym2612"
    },
    {
      "channel": 1,
      "note": 66,
      "start": 0.7199,
      "duration": 0.0792,
      "velocity": 83,
      "chip": "ym2612"
    },
    {
      "channel": 4,
      "note": 68,
      "start": 0.8232,
      "duration": 0.0793,
      "velocity": 83,
      "chip": "ym2612"
    },
    {
      "channel": 0,
      "note": 65,
      "start": 0.9437,
      "duration": 0.3523,
      "velocity": 95,
      "chip": "ym2612"
    },
    {
      "channel": 2,
      "note": 71,
      "start": 0.9466,
      "duration": 0.0765,
      "velocity": 83,
      "chip": "ym2612"
    },
    {
      "channel": 5,
      "note": 35,
      "start": 0.9492,
      "duration": 0.4345,
      "velocity": 120,
      "chip": "ym2612"
    },
    {
      "channel": 1,
      "note": 73,
      "start": 1.0458,
      "duration": 0.0792,
      "velocity": 83,
      "chip": "ym2612"
    },
    {
      "channel": 4,
      "note": 68,
      "start": 1.1666,
      "duration": 0.0732,
      "velocity": 83,
      "chip": "ym2612"
    },
    {
      "channel": 2,
      "note": 66,
      "start": 1.2697,
      "duration": 0.0793,
      "velocity": 83,
      "chip": "ym2612"
    },
    {
      "channel": 0,
      "note": 61,
      "start": 1.3893,
      "duration": 0.3527,
      "velocity": 95,
      "chip": "ym2612"
    },
    {
      "channel": 1,
      "note": 65,
      "start": 1.391,
      "duration": 0.0771,
      "velocity": 83,
      "chip": "ym2612"
    },
    {
      "channel": 5,
      "note": 23,
      "start": 1.3948,
      "duration": 0.4227,
      "velocity": 120,
      "chip": "ym2612"
    },
    {
      "channel": 4,
      "note": 74,
      "start": 1.4922,
      "duration": 0.0793,
      "velocity": 83,
      "chip": "ym2612"
    },
    {
      "channel": 2,
      "note": 80,
      "start": 1.613,
      "duration": 0.0791,
      "velocity": 83,
      "chip": "ym2612"
    },
    {
      "channel": 1,
      "note": 83,
      "start": 1.7148,
      "duration": 0.0793,
      "velocity": 83,
      "chip": "ym2612"
    },
    {
      "channel": 0,
      "note": 66,
      "start": 1.8191,
      "duration": 0.3518,
      "velocity": 95,
      "chip": "ym2612"
    },
    {
      "channel": 4,
      "note": 85,
      "start": 1.8213,
      "duration": 0.0761,
      "velocity": 83,
      "chip": "ym2612"
    },
    {
      "channel": 5,
      "note": 35,
      "start": 1.8244,
      "duration": 0.4343,
      "velocity": 120,
      "chip": "ym2612"
    },
    {
      "channel": 2,
      "note": 86,
      "start": 1.939,
      "duration": 0.079,
      "velocity": 83,
      "chip": "ym2612"
    },
    {
      "channel": 1,
      "note": 89,
      "start": 2.0407,
      "duration": 0.0792,
      "velocity": 83,
      "chip": "ym2612"
    },
    {
      "channel": 4,
      "note": 90,
      "start": 2.1615,
      "duration": 0.079,
      "velocity": 83,
      "chip": "ym2612"
    },
    {
      "channel": 0,
      "note": 65,
      "start": 2.2644,
      "duration": 0.3525,
      "velocity": 95,
      "chip": "ym2612"
    },
    {
      "channel": 2,
      "note": 92,
      "start": 2.267,
      "duration": 0.077,
      "velocity": 83,
      "chip": "ym2612"
    },
    {
      "channel": 5,
      "note": 23,
      "start": 2.2696,
      "duration": 0.4293,
      "velocity": 120,
      "chip": "ym2612"
    },
    {
      "channel": 1,
      "note": 93,
      "start": 2.3838,
      "duration": 0.0793,
      "velocity": 83,
      "chip": "ym2612"
    },
    {
      "channel": 4,
      "note": 92,
      "start": 2.4872,
      "duration": 0.0793,
      "velocity": 83,
      "chip": "ym2612"
    },
    {
      "channel": 2,
      "note": 90,
      "start": 2.608,
      "duration": 0.079,
      "velocity": 83,
      "chip": "ym2612"
    },
    {
      "channel": 0,
      "note": 61,
      "start": 2.7107,
      "duration": 0.3523,
      "velocity": 95,
      "chip": "ym2612"
    },
    {
      "channel": 1,
      "note": 89,
      "start": 2.7124,
      "duration": 0.0766,
      "velocity": 83,
      "chip": "ym2612"
    },
    {
      "channel": 5,
      "note": 35,
      "start": 2.7159,
      "duration": 0.4347,
      "velocity": 120,
      "chip": "ym2612"
    },
    {
      "channel": 4,
      "note": 85,
      "start": 2.8132,
      "duration": 0.0792,
      "velocity": 83,
      "chip": "ym2612"
    },
    {
      "channel": 2,
      "note": 81,
      "start": 2.9339,
      "duration": 0.079,
      "velocity": 83,
      "chip": "ym2612"
    },
    {
      "channel": 1,
      "note": 80,
      "start": 3.0357,
      "duration": 0.0793,
      "velocity": 83,
      "chip": "ym2612"
    },
    {
      "channel": 0,
      "note": 60,
      "start": 3.1563,
      "duration": 0.3527,
      "velocity": 95,
      "chip": "ym2612"
    },
    {
      "channel": 4,
      "note": 78,
      "start": 3.1587,
      "duration": 0.0768,
      "velocity": 83,
      "chip": "ym2612"
    },
    {
      "channel": 5,
      "note": 23,
      "start": 3.1618,
      "duration": 0.4232,
      "velocity": 120,
      "chip": "ym2612"
    },
    {
      "channel": 2,
      "note": 77,
      "start": 3.2596,
      "duration": 0.0793,
      "velocity": 83,
      "chip": "ym2612"
    },
    {
      "channel": 1,
      "note": 73,
      "start": 3.3788,
      "duration": 0.0792,
      "velocity": 83,
      "chip": "ym2612"
    },
    {
      "channel": 4,
      "note": 71,
      "start": 3.4822,
      "duration": 0.0792,
      "velocity": 83,
      "chip": "ym2612"
    },
    {
      "channel": 0,
      "note": 61,
      "start": 3.5867,
      "duration": 0.3511,
      "velocity": 95,
      "chip": "ym2612"
    },
    {
      "channel": 2,
      "note": 69,
      "start": 3.5893,
      "duration": 0.0754,
      "velocity": 83,
      "chip": "ym2612"
    },
    {
      "channel": 5,
      "note": 35,
      "start": 3.592,
      "duration": 0.4337,
      "velocity": 120,
      "chip": "ym2612"
    },
    {
      "channel": 1,
      "note": 68,
      "start": 3.7048,
      "duration": 0.0792,
      "velocity": 83,
      "chip": "ym2612"
    },
    {
      "channel": 4,
      "note": 65,
      "start": 3.8081,
      "duration": 0.0792,
      "velocity": 83,
      "chip": "ym2612"
    },
    {
      "channel": 2,
      "note": 61,
      "start": 3.9289,
      "duration": 0.0789,
      "velocity": 83,
      "chip": "ym2612"
    },
    {
      "channel": 0,
      "note": 66,
      "start": 4.0312,
      "duration": 0.3526,
      "velocity": 95,
      "chip": "ym2612"
    },
    {
      "channel": 1,
      "note": 62,
      "start": 4.0329,
      "duration": 0.077,
      "velocity": 83,
      "chip": "ym2612"
    },
    {
      "channel": 5,
      "note": 23,
      "start": 4.0365,
      "duration": 0.4351,
      "velocity": 120,
      "chip": "ym2612"
    },
    {
      "channel": 4,
      "note": 65,
      "start": 4.1515,
      "duration": 0.0789,
      "velocity": 83,
      "chip": "ym2612"
    },
    {
      "channel": 2,
      "note": 66,
      "start": 4.2546,
      "duration": 0.0793,
      "velocity": 83,
      "chip": "ym2612"
    },
    {
      "channel": 1,
      "note": 68,
      "start": 4.3738,
      "duration": 0.0792,
      "velocity": 83,
      "chip": "ym2612"
    },
    {
      "channel": 0,
      "note": 65,
      "start": 4.4773,
      "duration": 0.3525,
      "velocity": 95,
      "chip": "ym2612"
    },
    {
      "channel": 4,
      "note": 71,
      "start": 4.4794,
      "duration": 0.0769,
      "velocity": 83,
      "chip": "ym2612"
    },
    {
      "channel": 5,
      "note": 35,
      "start": 4.4825,
      "duration": 0.4293,
      "velocity": 120,
      "chip": "ym2612"
    },
    {
      "channel": 2,
      "note": 73,
      "start": 4.5805,
      "duration": 0.0792,
      "velocity": 83,
      "chip": "ym2612"
    },
    {
      "channel": 1,
      "note": 68,
      "start": 4.6997,
      "duration": 0.0793,
      "velocity": 83,
      "chip": "ym2612"
    },
    {
      "channel": 4,
      "note": 66,
      "start": 4.803,
      "duration": 0.0735,
      "velocity": 83,
      "chip": "ym2612"
    },
    {
      "channel": 0,
      "note": 61,
      "start": 4.9235,
      "duration": 0.3524,
      "velocity": 95,
      "chip": "ym2612"
    },
    {
      "channel": 2,
      "note": 65,
      "start": 4.9264,
      "duration": 0.0765,
      "velocity": 83,
      "chip": "ym2612"
    },
    {
      "channel": 5,
      "note": 23,
      "start": 4.929,
      "duration": 0.4345,
      "velocity": 120,
      "chip": "ym2612"
    },
    {
      "channel": 1,
      "note": 74,
      "start": 5.0256,
      "duration": 0.0793,
      "velocity": 83,
      "chip": "ym2612"
    },
    {
      "channel": 4,
      "note": 80,
      "start": 5.1464,
      "duration": 0.079,
      "velocity": 83,
      "chip": "ym2612"
    },
    {
      "channel": 2,
      "note": 83,
      "start": 5.2495,
      "duration": 0.0793,
      "velocity": 83,
      "chip": "ym2612"
    },
    {
      "channel": 0,
      "note": 66,
      "start": 5.3696,
      "duration": 0.3522,
      "velocity": 95,
      "chip": "ym2612"
    },
    {
      "channel": 1,
      "note": 85,
      "start": 5.3714,
      "duration": 0.0765,
      "velocity": 83,
      "chip": "ym2612"
    },
    {
      "channel": 5,
      "note": 35,
      "start": 5.3752,
      "duration": 0.4216,
      "velocity": 120,
      "chip": "ym2612"
    },
    {
      "channel": 4,
      "note": 86,
      "start": 5.4721,
      "duration": 0.0735,
      "velocity": 83,
      "chip": "ym2612"
    },
    {
      "channel": 2,
      "note": 89,
      "start": 5.5754,
      "duration": 0.0793,
      "velocity": 83,
      "chip": "ym2612"
    },
    {
      "channel": 1,
      "note": 90,
      "start": 5.6946,
      "duration": 0.0792,
      "velocity": 83,
      "chip": "ym2612"
    },
    {
      "channel": 0,
      "note": 65,
      "start": 5.7985,
      "duration": 0.3522,
      "velocity": 95,
      "chip": "ym2612"
    },
    {
      "channel": 4,
      "note": 92,
      "start": 5.8007,
      "duration": 0.0765,
      "velocity": 83,
      "chip": "ym2612"
    },
    {
      "channel": 5,
      "note": 23,
      "start": 5.8037,
      "duration": 0.4347,
      "velocity": 120,
      "chip": "ym2612"
    },
    {
      "channel": 2,
      "note": 93,
      "start": 5.9188,
      "duration": 0.079,
      "velocity": 83,
      "chip": "ym2612"
    },
    {
      "channel": 1,
      "note": 92,
      "start": 6.0205,
      "duration": 0.0793,
      "velocity": 83,
      "chip": "ym2612"
    },
    {
      "channel": 4,
      "note": 90,
      "start": 6.1413,
      "duration": 0.0733,
      "velocity": 83,
      "chip": "ym2612"
    },
    {
      "channel": 0,
      "note": 61,
      "start": 6.2442,
      "duration": 0.3525,
      "velocity": 95,
      "chip": "ym2612"
    },
    {
      "channel": 2,
      "note": 89,
      "start": 6.2468,
      "duration": 0.077,
      "velocity": 83,
      "chip": "ym2612"
    },
    {
      "channel": 5,
      "note": 35,
      "start": 6.2495,
      "duration": 0.4349,
      "velocity": 120,
      "chip": "ym2612"
    },
    {
      "channel": 1,
      "note": 85,
      "start": 6.3465,
      "duration": 0.0792,
      "velocity": 83,
      "chip": "ym2612"
    },
    {
      "channel": 4,
      "note": 81,
      "start": 6.4673,
      "duration": 0.079,
      "velocity": 83,
      "chip": "ym2612"
    },
    {
      "channel": 2,
      "note": 80,
      "start": 6.5704,
      "duration": 0.0793,
      "velocity": 83,
      "chip": "ym2612"
    },
    {
      "channel": 0,
      "note": 60,
      "start": 6.6901,
      "duration": 0.3527,
      "velocity": 95,
      "chip": "ym2612"
    },
    {
      "channel": 1,
      "note": 78,
      "start": 6.6918,
      "duration": 0.0771,
      "velocity": 83,
      "chip": "ym2612"
    },
    {
      "channel": 5,
      "note": 23,
      "start": 6.6956,
      "duration": 0.4292,
      "velocity": 120,
      "chip": "ym2612"
    },
    {
      "channel": 4,
      "note": 77,
      "start": 6.793,
      "duration": 0.0792,
      "velocity": 83,
      "chip": "ym2612"
    },
    {
      "channel": 2,
      "note": 73,
      "start": 6.9138,
      "duration": 0.079,
      "velocity": 83,
      "chip": "ym2612"
    },
    {
      "channel": 1,
      "note": 71,
      "start": 7.0155,
      "duration": 0.0793,
      "velocity": 83,
      "chip": "ym2612"
    },
    {
      "channel": 0,
      "note": 61,
      "start": 7.1385,
      "duration": 0.3561,
      "velocity": 95,
      "chip": "ym2612"
    },
    {
      "channel": 3,
      "note": 81,
      "start": 7.1411,
      "duration": 0.203,
      "velocity": 107,
      "chip": "ym2612"
    },
    {
      "channel": 4,
      "note": 69,
      "start": 7.1436,
      "duration": 0.0778,
      "velocity": 83,
      "chip": "ym2612"
    },
    {
      "channel": 5,
      "note": 35,
      "start": 7.1467,
      "duration": 0.4237,
      "velocity": 120,
      "chip": "ym2612"
    },
    {
      "channel": 2,
      "note": 68,
      "start": 7.2455,
      "duration": 0.0793,
      "velocity": 83,
      "chip": "ym2612"
    },
    {
      "channel": 3,
      "note": 73,
      "start": 7.3475,
      "duration": 0.2161,
      "velocity": 107,
      "chip": "ym2612"
    },
    {
      "channel": 1,
      "note": 65,
      "start": 7.3492,
      "duration": 0.0776,
      "velocity": 83,
      "chip": "ym2612"
    },
    {
      "channel": 4,
      "note": 61,
      "start": 7.4684,
      "duration": 0.079,
      "velocity": 83,
      "chip": "ym2612"
    },
    {
      "channel": 0,
      "note": 66,
      "start": 7.5721,
      "duration": 0.3569,
      "velocity": 95,
      "chip": "ym2612"
    },
    {
      "channel": 3,
      "note": 74,
      "start": 7.5738,
      "duration": 0.2186,
      "velocity": 107,
      "chip": "ym2612"
    },
    {
      "channel": 2,
      "note": 62,
      "start": 7.5764,
      "duration": 0.0744,
      "velocity": 83,
      "chip": "ym2612"
    },
    {
      "channel": 5,
      "note": 23,
      "start": 7.579,
      "duration": 0.4327,
      "velocity": 120,
      "chip": "ym2612"
    },
    {
      "channel": 1,
      "note": 65,
      "start": 7.6964,
      "duration": 0.0793,
      "velocity": 83,
      "chip": "ym2612"
    },
    {
      "channel": 3,
      "note": 77,
      "start": 7.7988,
      "duration": 0.2165,
      "velocity": 107,
      "chip": "ym2612"
    },
    {
      "channel": 4,
      "note": 66,
      "start": 7.8011,
      "duration": 0.0779,
      "velocity": 83,
      "chip": "ym2612"
    },
    {
      "channel": 2,
      "note": 68,
      "start": 7.9206,
      "duration": 0.0791,
      "velocity": 83,
      "chip": "ym2612"
    },
    {
      "channel": 0,
      "note": 65,
      "start": 8.0239,
      "duration": 0.3569,
      "velocity": 95,
      "chip": "ym2612"
    },
    {
      "channel": 3,
      "note": 78,
      "start": 8.0256,
      "duration": 1.7624,
      "velocity": 107,
      "chip": "ym2612"
    },
    {
      "channel": 1,
      "note": 71,
      "start": 8.0273,
      "duration": 0.08,
      "velocity": 83,
      "chip": "ym2612"
    },
    {
      "channel": 5,
      "note": 35,
      "start": 8.0308,
      "duration": 0.4382,
      "velocity": 120,
      "chip": "ym2612"
    },
    {
      "channel": 4,
      "note": 73,
      "start": 8.1489,
      "duration": 0.0789,
      "velocity": 83,
      "chip": "ym2612"
    },
    {
      "channel": 2,
      "note": 68,
      "start": 8.252,
      "duration": 0.0735,
      "velocity": 83,
      "chip": "ym2612"
    },
    {
      "channel": 1,
      "note": 66,
      "start": 8.3541,
      "duration": 0.0794,
      "velocity": 83,
      "chip": "ym2612"
    },
    {
      "channel": 0,
      "note": 61,
      "start": 8.4747,
      "duration": 0.3522,
      "velocity": 95,
      "chip": "ym2612"
    },
    {
      "channel": 4,
      "note": 65,
      "start": 8.4775,
      "duration": 0.0762,
      "velocity": 83,
      "chip": "ym2612"
    },
    {
      "channel": 5,
      "note": 23,
      "start": 8.4806,
      "duration": 0.4286,
      "velocity": 120,
      "chip": "ym2612"
    },
    {
      "channel": 2,
      "note": 74,
      "start": 8.5779,
      "duration": 0.0793,
      "velocity": 83,
      "chip": "ym2612"
    },
    {
      "channel": 1,
      "note": 80,
      "start": 8.6971,
      "duration": 0.0792,
      "velocity": 83,
      "chip": "ym2612"
    },
    {
      "channel": 4,
      "note": 83,
      "start": 8.8005,
      "duration": 0.0795,
      "velocity": 83,
      "chip": "ym2612"
    },
    {
      "channel": 0,
      "note": 66,
      "start": 8.9212,
      "duration": 0.3516,
      "velocity": 95,
      "chip": "ym2612"
    },
    {
      "channel": 2,
      "note": 85,
      "start": 8.9245,
      "duration": 0.07,
      "velocity": 83,
      "chip": "ym2612"
    },
    {
      "channel": 5,
      "note": 35,
      "start": 8.9271,
      "duration": 0.4211,
      "velocity": 120,
      "chip": "ym2612"
    },
    {
      "channel": 1,
      "note": 86,
      "start": 9.023,
      "duration": 0.0792,
      "velocity": 83,
      "chip": "ym2612"
    },
    {
      "channel": 4,
      "note": 89,
      "start": 9.1264,
      "duration": 0.0792,
      "velocity": 83,
      "chip": "ym2612"
    },
    {
      "channel": 2,
      "note": 90,
      "start": 9.2472,
      "duration": 0.0791,
      "velocity": 83,
      "chip": "ym2612"
    },
    {
      "channel": 0,
      "note": 65,
      "start": 9.3499,
      "duration": 0.3518,
      "velocity": 95,
      "chip": "ym2612"
    },
    {
      "channel": 1,
      "note": 92,
      "start": 9.3521,
      "duration": 0.0764,
      "velocity": 83,
      "chip": "ym2612"
    },
    {
      "channel": 5,
      "note": 23,
      "start": 9.3556,
      "duration": 0.4286,
      "velocity": 120,
      "chip": "ym2612"
    },
    {
      "channel": 4,
      "note": 93,
      "start": 9.4697,
      "duration": 0.0789,
      "velocity": 83,
      "chip": "ym2612"
    },
    {
      "channel": 2,
      "note": 92,
      "start": 9.5728,
      "duration": 0.0793,
      "velocity": 83,
      "chip": "ym2612"
    },
    {
      "channel": 1,
      "note": 90,
      "start": 9.6921,
      "duration": 0.0793,
      "velocity": 83,
      "chip": "ym2612"
    },
    {
      "channel": 0,
      "note": 61,
      "start": 9.7966,
      "duration": 0.3569,
      "velocity": 95,
      "chip": "ym2612"
    },
    {
      "channel": 3,
      "note": 73,
      "start": 9.7982,
      "duration": 0.2185,
      "velocity": 107,
      "chip": "ym2612"
    },
    {
      "channel": 4,
      "note": 89,
      "start": 9.8004,
      "duration": 0.0799,
      "velocity": 83,
      "chip": "ym2612"
    },
    {
      "channel": 5,
      "note": 35,
      "start": 9.8035,
      "duration": 0.438,
      "velocity": 120,
      "chip": "ym2612"
    },
    {
      "channel": 2,
      "note": 85,
      "start": 9.9219,
      "duration": 0.0791,
      "velocity": 83,
      "chip": "ym2612"
    },
    {
      "channel": 3,
      "note": 71,
      "start": 10.0233,
      "duration": 0.6567,
      "velocity": 107,
      "chip": "ym2612"
    },
    {
      "channel": 1,
      "note": 81,
      "start": 10.0251,
      "duration": 0.0778,
      "velocity": 83,
      "chip": "ym2612"
    },
    {
      "channel": 4,
      "note": 80,
      "start": 10.1271,
      "duration": 0.0792,
      "velocity": 83,
      "chip": "ym2612"
    },
    {
      "channel": 0,
      "note": 60,
      "start": 10.2472,
      "duration": 0.3523,
      "velocity": 95,
      "chip": "ym2612"
    },
    {
      "channel": 2,
      "note": 78,
      "start": 10.2505,
      "duration": 0.0767,
      "velocity": 83,
      "chip": "ym2612"
    },
    {
      "channel": 5,
      "note": 23,
      "start": 10.2532,
      "duration": 0.4344,
      "velocity": 120,
      "chip": "ym2612"
    },
    {
      "channel": 1,
      "note": 77,
      "start": 10.3497,
      "duration": 0.0795,
      "velocity": 83,
      "chip": "ym2612"
    },
    {
      "channel": 4,
      "note": 73,
      "start": 10.4704,
      "duration": 0.0789,
      "velocity": 83,
      "chip": "ym2612"
    },
    {
      "channel": 2,
      "note": 71,
      "start": 10.5735,
      "duration": 0.0793,
      "velocity": 83,
      "chip": "ym2612"
    },
    {
      "channel": 0,
      "note": 61,
      "start": 10.6951,
      "duration": 0.3561,
      "velocity": 95,
      "chip": "ym2612"
    },
    {
      "channel": 3,
      "note": 69,
      "start": 10.6967,
      "duration": 1.7616,
      "velocity": 107,
      "chip": "ym2612"
    },
    {
      "channel": 1,
      "note": 69,
      "start": 10.6985,
      "duration": 0.0791,
      "velocity": 83,
      "chip": "ym2612"
    },
    {
      "channel": 5,
      "note": 35,
      "start": 10.7023,
      "duration": 0.4243,
      "velocity": 120,
      "chip": "ym2612"
    },
    {
      "channel": 4,
      "note": 68,
      "start": 10.8018,
      "duration": 0.0792,
      "velocity": 83,
      "chip": "ym2612"
    },
    {
      "channel": 2,
      "note": 65,
      "start": 10.9226,
      "duration": 0.0793,
      "velocity": 83,
      "chip": "ym2612"
    },
    {
      "channel": 1,
      "note": 61,
      "start": 11.0244,
      "duration": 0.0794,
      "velocity": 83,
      "chip": "ym2612"
    },
    {
      "channel": 0,
      "note": 66,
      "start": 11.1282,
      "duration": 0.3518,
      "velocity": 95,
      "chip": "ym2612"
    },
    {
      "channel": 4,
      "note": 62,
      "start": 11.1309,
      "duration": 0.0761,
      "velocity": 83,
      "chip": "ym2612"
    },
    {
      "channel": 5,
      "note": 23,
      "start": 11.1339,
      "duration": 0.4342,
      "velocity": 120,
      "chip": "ym2612"
    },
    {
      "channel": 2,
      "note": 65,
      "start": 11.2485,
      "duration": 0.079,
      "velocity": 83,
      "chip": "ym2612"
    },
    {
      "channel": 1,
      "note": 66,
      "start": 11.3503,
      "duration": 0.0792,
      "velocity": 83,
      "chip": "ym2612"
    },
    {
      "channel": 4,
      "note": 68,
      "start": 11.4711,
      "duration": 0.0793,
      "velocity": 83,
      "chip": "ym2612"
    },
    {
      "channel": 0,
      "note": 65,
      "start": 11.5739,
      "duration": 0.3522,
      "velocity": 95,
      "chip": "ym2612"
    },
    {
      "channel": 2,
      "note": 71,
      "start": 11.577,
      "duration": 0.0768,
      "velocity": 83,
      "chip": "ym2612"
    },
    {
      "channel": 5,
      "note": 35,
      "start": 11.5796,
      "duration": 0.4291,
      "velocity": 120,
      "chip": "ym2612"
    },
    {
      "channel": 1,
      "note": 73,
      "start": 11.6934,
      "duration": 0.0735,
      "velocity": 83,
      "chip": "ym2612"
    },
    {
      "channel": 4,
      "note": 68,
      "start": 11.7967,
      "duration": 0.0793,
      "velocity": 83,
      "chip": "ym2612"
    },
    {
      "channel": 2,
      "note": 66,
      "start": 11.9176,
      "duration": 0.079,
      "velocity": 83,
      "chip": "ym2612"
    },
    {
      "channel": 0,
      "note": 61,
      "start": 12.0202,
      "duration": 0.3519,
      "velocity": 95,
      "chip": "ym2612"
    },
    {
      "channel": 1,
      "note": 65,
      "start": 12.0224,
      "duration": 0.0764,
      "velocity": 83,
      "chip": "ym2612"
    },
    {
      "channel": 5,
      "note": 23,
      "start": 12.0259,
      "duration": 0.4339,
      "velocity": 120,
      "chip": "ym2612"
    },
    {
      "channel": 4,
      "note": 74,
      "start": 12.1228,
      "duration": 0.0794,
      "velocity": 83,
      "chip": "ym2612"
    },
    {
      "channel": 2,
      "note": 80,
      "start": 12.2434,
      "duration": 0.0791,
      "velocity": 83,
      "chip": "ym2612"
    },
    {
      "channel": 1,
      "note": 83,
      "start": 12.3452,
      "duration": 0.0793,
      "velocity": 83,
      "chip": "ym2612"
    },
    {
      "channel": 0,
      "note": 66,
      "start": 12.4668,
      "duration": 0.357,
      "velocity": 95,
      "chip": "ym2612"
    },
    {
      "channel": 3,
      "note": 77,
      "start": 12.4684,
      "duration": 0.8751,
      "velocity": 107,
      "chip": "ym2612"
    },
    {
      "channel": 4,
      "note": 85,
      "start": 12.4708,
      "duration": 0.0799,
      "velocity": 83,
      "chip": "ym2612"
    },
    {
      "channel": 5,
      "note": 35,
      "start": 12.474,
      "duration": 0.4252,
      "velocity": 120,
      "chip": "ym2612"
    },
    {
      "channel": 2,
      "note": 86,
      "start": 12.5749,
      "duration": 0.0736,
      "velocity": 83,
      "chip": "ym2612"
    },
    {
      "channel": 1,
      "note": 89,
      "start": 12.6941,
      "duration": 0.0795,
      "velocity": 83,
      "chip": "ym2612"
    },
    {
      "channel": 4,
      "note": 90,
      "start": 12.7975,
      "duration": 0.0794,
      "velocity": 83,
      "chip": "ym2612"
    },
    {
      "channel": 0,
      "note": 65,
      "start": 12.9009,
      "duration": 0.3518,
      "velocity": 95,
      "chip": "ym2612"
    },
    {
      "channel": 2,
      "note": 92,
      "start": 12.9039,
      "duration": 0.0761,
      "velocity": 83,
      "chip": "ym2612"
    },
    {
      "channel": 5,
      "note": 23,
      "start": 12.9066,
      "duration": 0.4342,
      "velocity": 120,
      "chip": "ym2612"
    },
    {
      "channel": 1,
      "note": 93,
      "start": 13.02,
      "duration": 0.0793,
      "velocity": 83,
      "chip": "ym2612"
    },
    {
      "channel": 4,
      "note": 92,
      "start": 13.1233,
      "duration": 0.0793,
      "velocity": 83,
      "chip": "ym2612"
    },
    {
      "channel": 2,
      "note": 90,
      "start": 13.2442,
      "duration": 0.0793,
      "velocity": 83,
      "chip": "ym2612"
    },
    {
      "channel": 0,
      "note": 61,
      "start": 13.3475,
      "duration": 0.3569,
      "velocity": 95,
      "chip": "ym2612"
    },
    {
      "channel": 3,
      "note": 73,
      "start": 13.3492,
      "duration": 0.4357,
      "velocity": 107,
      "chip": "ym2612"
    },
    {
      "channel": 1,
      "note": 89,
      "start": 13.3509,
      "duration": 0.08,
      "velocity": 83,
      "chip": "ym2612"
    },
    {
      "channel": 5,
      "note": 35,
      "start": 13.3544,
      "duration": 0.4321,
      "velocity": 120,
      "chip": "ym2612"
    },
    {
      "channel": 4,
      "note": 85,
      "start": 13.4724,
      "duration": 0.079,
      "velocity": 83,
      "chip": "ym2612"
    },
    {
      "channel": 2,
      "note": 81,
      "start": 13.5756,
      "duration": 0.0796,
      "velocity": 83,
      "chip": "ym2612"
    },
    {
      "channel": 1,
      "note": 80,
      "start": 13.6947,
      "duration": 0.0793,
      "velocity": 83,
      "chip": "ym2612"
    },
    {
      "channel": 0,
      "note": 60,
      "start": 13.7995,
      "duration": 0.3566,
      "velocity": 95,
      "chip": "ym2612"
    },
    {
      "channel": 3,
      "note": 81,
      "start": 13.8011,
      "duration": 0.4355,
      "velocity": 107,
      "chip": "ym2612"
    },
    {
      "channel": 4,
      "note": 78,
      "start": 13.8034,
      "duration": 0.0797,
      "velocity": 83,
      "chip": "ym2612"
    },
    {
      "channel": 5,
      "note": 23,
      "start": 13.8064,
      "duration": 0.4318,
      "velocity": 120,
      "chip": "ym2612"
    },
    {
      "channel": 2,
      "note": 77,
      "start": 13.9072,
      "duration": 0.0793,
      "velocity": 83,
      "chip": "ym2612"
    },
    {
      "channel": 1,
      "note": 73,
      "start": 14.0264,
      "duration": 0.0795,
      "velocity": 83,
      "chip": "ym2612"
    },
    {
      "channel": 4,
      "note": 71,
      "start": 14.1298,
      "duration": 0.0794,
      "velocity": 83,
      "chip": "ym2612"
    },
    {
      "channel": 0,
      "note": 61,
      "start": 14.2522,
      "duration": 0.3557,
      "velocity": 95,
      "chip": "ym2612"
    },
    {
      "channel": 3,
      "note": 83,
      "start": 14.2538,
      "duration": 0.2173,
      "velocity": 107,
      "chip": "ym2612"
    },
    {
      "channel": 2,
      "note": 69,
      "start": 14.2567,
      "duration": 0.0785,
      "velocity": 83,
      "chip": "ym2612"
    },
    {
      "channel": 5,
      "note": 35,
      "start": 14.2593,
      "duration": 0.4363,
      "velocity": 120,
      "chip": "ym2612"
    },
    {
      "channel": 1,
      "note": 68,
      "start": 14.358,
      "duration": 0.0793,
      "velocity": 83,
      "chip": "ym2612"
    },
    {
      "channel": 3,
      "note": 85,
      "start": 14.4777,
      "duration": 0.2165,
      "velocity": 107,
      "chip": "ym2612"
    },
    {
      "channel": 4,
      "note": 65,
      "start": 14.4801,
      "duration": 0.0777,
      "velocity": 83,
      "chip": "ym2612"
    },
    {
      "channel": 2,
      "note": 61,
      "start": 14.5819,
      "duration": 0.0793,
      "velocity": 83,
      "chip": "ym2612"
    },
    {
      "channel": 0,
      "note": 66,
      "start": 14.7022,
      "duration": 0.3517,
      "velocity": 95,
      "chip": "ym2612"
    },
    {
      "channel": 3,
      "note": 86,
      "start": 14.7039,
      "duration": 0.1994,
      "velocity": 107,
      "chip": "ym2612"
    },
    {
      "channel": 1,
      "note": 62,
      "start": 14.7056,
      "duration": 0.0747,
      "velocity": 83,
      "chip": "ym2612"
    },
    {
      "channel": 5,
      "note": 23,
      "start": 14.7094,
      "duration": 0.4206,
      "velocity": 120,
      "chip": "ym2612"
    },
    {
      "channel": 4,
      "note": 65,
      "start": 14.8045,
      "duration": 0.0792,
      "velocity": 83,
      "chip": "ym2612"
    },
    {
      "channel": 3,
      "note": 89,
      "start": 14.9067,
      "duration": 0.2162,
      "velocity": 107,
      "chip": "ym2612"
    },
    {
      "channel": 2,
      "note": 66,
      "start": 14.9093,
      "duration": 0.0777,
      "velocity": 83,
      "chip": "ym2612"
    },
    {
      "channel": 1,
      "note": 68,
      "start": 15.0271,
      "duration": 0.0793,
      "velocity": 83,
      "chip": "ym2612"
    },
    {
      "channel": 0,
      "note": 65,
      "start": 15.1316,
      "duration": 0.3568,
      "velocity": 95,
      "chip": "ym2612"
    },
    {
      "channel": 3,
      "note": 90,
      "start": 15.1332,
      "duration": 2.2083,
      "velocity": 107,
      "chip": "ym2612"
    },
    {
      "channel": 4,
      "note": 71,
      "start": 15.1355,
      "duration": 0.0799,
      "velocity": 83,
      "chip": "ym2612"
    },
    {
      "channel": 5,
      "note": 35,
      "start": 15.1385,
      "duration": 0.4382,
      "velocity": 120,
      "chip": "ym2612"
    },
    {
      "channel": 2,
      "note": 73,
      "start": 15.257,
      "duration": 0.0791,
      "velocity": 83,
      "chip": "ym2612"
    },
    {
      "channel": 1,
      "note": 68,
      "start": 15.3588,
      "duration": 0.0734,
      "velocity": 83,
      "chip": "ym2612"
    },
    {
      "channel": 4,
      "note": 66,
      "start": 15.4795,
      "duration": 0.0789,
      "velocity": 83,
      "chip": "ym2612"
    },
    {
      "channel": 0,
      "note": 61,
      "start": 15.5824,
      "duration": 0.352,
      "velocity": 95,
      "chip": "ym2612"
    },
    {
      "channel": 2,
      "note": 65,
      "start": 15.5854,
      "duration": 0.0765,
      "velocity": 83,
      "chip": "ym2612"
    },
    {
      "channel": 5,
      "note": 23,
      "start": 15.5881,
      "duration": 0.4288,
      "velocity": 120,
      "chip": "ym2612"
    },
    {
      "channel": 1,
      "note": 74,
      "start": 15.6846,
      "duration": 0.0792,
      "velocity": 83,
      "chip": "ym2612"
    },
    {
      "channel": 4,
      "note": 80,
      "start": 15.8055,
      "duration": 0.079,
      "velocity": 83,
      "chip": "ym2612"
    },
    {
      "channel": 2,
      "note": 83,
      "start": 15.9086,
      "duration": 0.0796,
      "velocity": 83,
      "chip": "ym2612"
    },
    {
      "channel": 0,
      "note": 66,
      "start": 16.0288,
      "duration": 0.3517,
      "velocity": 95,
      "chip": "ym2612"
    },
    {
      "channel": 1,
      "note": 85,
      "start": 16.031,
      "duration": 0.0704,
      "velocity": 83,
      "chip": "ym2612"
    },
    {
      "channel": 5,
      "note": 35,
      "start": 16.0347,
      "duration": 0.4282,
      "velocity": 120,
      "chip": "ym2612"
    },
    {
      "channel": 4,
      "note": 86,
      "start": 16.1311,
      "duration": 0.0793,
      "velocity": 83,
      "chip": "ym2612"
    },
    {
      "channel": 2,
      "note": 89,
      "start": 16.252,
      "duration": 0.079,
      "velocity": 83,
      "chip": "ym2612"
    },
    {
      "channel": 1,
      "note": 90,
      "start": 16.3537,
      "duration": 0.0793,
      "velocity": 83,
      "chip": "ym2612"
    },
    {
      "channel": 0,
      "note": 65,
      "start": 16.4747,
      "duration": 0.3518,
      "velocity": 95,
      "chip": "ym2612"
    },
    {
      "channel": 4,
      "note": 92,
      "start": 16.4775,
      "duration": 0.076,
      "velocity": 83,
      "chip": "ym2612"
    },
    {
      "channel": 5,
      "note": 23,
      "start": 16.4806,
      "duration": 0.4213,
      "velocity": 120,
      "chip": "ym2612"
    },
    {
      "channel": 2,
      "note": 93,
      "start": 16.5775,
      "duration": 0.0793,
      "velocity": 83,
      "chip": "ym2612"
    },
    {
      "channel": 1,
      "note": 92,
      "start": 16.6796,
      "duration": 0.0792,
      "velocity": 83,
      "chip": "ym2612"
    },
    {
      "channel": 4,
      "note": 90,
      "start": 16.8004,
      "duration": 0.079,
      "velocity": 83,
      "chip": "ym2612"
    },
    {
      "channel": 0,
      "note": 61,
      "start": 16.9035,
      "duration": 0.3519,
      "velocity": 95,
      "chip": "ym2612"
    },
    {
      "channel": 2,
      "note": 89,
      "start": 16.9067,
      "duration": 0.0762,
      "velocity": 83,
      "chip": "ym2612"
    },
    {
      "channel": 5,
      "note": 35,
      "start": 16.9093,
      "duration": 0.434,
      "velocity": 120,
      "chip": "ym2612"
    },
    {
      "channel": 1,
      "note": 85,
      "start": 17.0227,
      "duration": 0.0792,
      "velocity": 83,
      "chip": "ym2612"
    },
    {
      "channel": 4,
      "note": 81,
      "start": 17.1261,
      "duration": 0.0792,
      "velocity": 83,
      "chip": "ym2612"
    },
    {
      "channel": 2,
      "note": 80,
      "start": 17.2469,
      "duration": 0.079,
      "velocity": 83,
      "chip": "ym2612"
    },
    {
      "channel": 0,
      "note": 60,
      "start": 17.3499,
      "duration": 0.3515,
      "velocity": 95,
      "chip": "ym2612"
    },
    {
      "channel": 3,
      "note": 85,
      "start": 17.3516,
      "duration": 0.4361,
      "velocity": 107,
      "chip": "ym2612"
    },
    {
      "channel": 1,
      "note": 78,
      "start": 17.3533,
      "duration": 0.0746,
      "velocity": 83,
      "chip": "ym2612"
    },
    {
      "channel": 5,
      "note": 23,
      "start": 17.3568,
      "duration": 0.4323,
      "velocity": 120,
      "chip": "ym2612"
    },
    {
      "channel": 4,
      "note": 77,
      "start": 17.4695,
      "duration": 0.079,
      "velocity": 83,
      "chip": "ym2612"
    },
    {
      "channel": 2,
      "note": 73,
      "start": 17.5726,
      "duration": 0.0796,
      "velocity": 83,
      "chip": "ym2612"
    },
    {
      "channel": 1,
      "note": 71,
      "start": 17.6746,
      "duration": 0.0795,
      "velocity": 83,
      "chip": "ym2612"
    },
    {
      "channel": 0,
      "note": 61,
      "start": 17.7967,
      "duration": 0.3564,
      "velocity": 95,
      "chip": "ym2612"
    },
    {
      "channel": 3,
      "note": 93,
      "start": 17.7984,
      "duration": 0.2179,
      "velocity": 107,
      "chip": "ym2612"
    },
    {
      "channel": 4,
      "note": 69,
      "start": 17.8008,
      "duration": 0.0792,
      "velocity": 83,
      "chip": "ym2612"
    },
    {
      "channel": 5,
      "note": 35,
      "start": 17.8039,
      "duration": 0.4316,
      "velocity": 120,
      "chip": "ym2612"
    },
    {
      "channel": 2,
      "note": 68,
      "start": 17.9042,
      "duration": 0.0793,
      "velocity": 83,
      "chip": "ym2612"
    },
    {
      "channel": 1,
      "note": 65,
      "start": 18.0233,
      "duration": 0.0793,
      "velocity": 83,
      "chip": "ym2612"
    },
    {
      "channel": 4,
      "note": 61,
      "start": 18.1267,
      "duration": 0.0736,
      "velocity": 83,
      "chip": "ym2612"
    },
    {
      "channel": 0,
      "note": 66,
      "start": 18.2481,
      "duration": 0.3567,
      "velocity": 95,
      "chip": "ym2612"
    },
    {
      "channel": 3,
      "note": 92,
      "start": 18.2498,
      "duration": 0.2044,
      "velocity": 107,
      "chip": "ym2612"
    },
    {
      "channel": 2,
      "note": 62,
      "start": 18.2527,
      "duration": 0.0795,
      "velocity": 83,
      "chip": "ym2612"
    },
    {
      "channel": 5,
      "note": 23,
      "start": 18.2553,
      "duration": 0.4248,
      "velocity": 120,
      "chip": "ym2612"
    },
    {
      "channel": 1,
      "note": 65,
      "start": 18.355,
      "duration": 0.0792,
      "velocity": 83,
      "chip": "ym2612"
    },
    {
      "channel": 3,
      "note": 89,
      "start": 18.4578,
      "duration": 2.8694,
      "velocity": 107,
      "chip": "ym2612"
    },
    {
      "channel": 4,
      "note": 66,
      "start": 18.4599,
      "duration": 0.0777,
      "velocity": 83,
      "chip": "ym2612"
    },
    {
      "channel": 2,
      "note": 68,
      "start": 18.5792,
      "duration": 0.0791,
      "velocity": 83,
      "chip": "ym2612"
    },
    {
      "channel": 0,
      "note": 65,
      "start": 18.6819,
      "duration": 0.3518,
      "velocity": 95,
      "chip": "ym2612"
    },
    {
      "channel": 1,
      "note": 71,
      "start": 18.684,
      "duration": 0.0765,
      "velocity": 83,
      "chip": "ym2612"
    },
    {
      "channel": 5,
      "note": 35,
      "start": 18.6876,
      "duration": 0.4286,
      "velocity": 120,
      "chip": "ym2612"
    },
    {
      "channel": 4,
      "note": 73,
      "start": 18.8017,
      "duration": 0.0734,
      "velocity": 83,
      "chip": "ym2612"
    },
    {
      "channel": 2,
      "note": 68,
      "start": 18.9048,
      "duration": 0.0793,
      "velocity": 83,
      "chip": "ym2612"
    },
    {
      "channel": 1,
      "note": 66,
      "start": 19.0241,
      "duration": 0.0793,
      "velocity": 83,
      "chip": "ym2612"
    },
    {
      "channel": 0,
      "note": 61,
      "start": 19.1279,
      "duration": 0.3518,
      "velocity": 95,
      "chip": "ym2612"
    },
    {
      "channel": 4,
      "note": 65,
      "start": 19.1305,
      "duration": 0.0761,
      "velocity": 83,
      "chip": "ym2612"
    },
    {
      "channel": 5,
      "note": 23,
      "start": 19.1336,
      "duration": 0.4342,
      "velocity": 120,
      "chip": "ym2612"
    },
    {
      "channel": 2,
      "note": 74,
      "start": 19.2482,
      "duration": 0.079,
      "velocity": 83,
      "chip": "ym2612"
    },
    {
      "channel": 1,
      "note": 80,
      "start": 19.35,
      "duration": 0.0792,
      "velocity": 83,
      "chip": "ym2612"
    },
    {
      "channel": 4,
      "note": 83,
      "start": 19.4534,
      "duration": 0.0792,
      "velocity": 83,
      "chip": "ym2612"
    },
    {
      "channel": 0,
      "note": 66,
      "start": 19.5738,
      "duration": 0.1689,
      "velocity": 95,
      "chip": "ym2612"
    },
    {
      "channel": 2,
      "note": 85,
      "start": 19.5772,
      "duration": 0.076,
      "velocity": 83,
      "chip": "ym2612"
    },
    {
      "channel": 5,
      "note": 35,
      "start": 19.5799,
      "duration": 0.2109,
      "velocity": 120,
      "chip": "ym2612"
    },
    {
      "channel": 1,
      "note": 86,
      "start": 19.6759,
      "duration": 0.0793,
      "velocity": 83,
      "chip": "ym2612"
    },
    {
      "channel": 0,
      "note": 68,
      "start": 19.7957,
      "duration": 0.1758,
      "velocity": 95,
      "chip": "ym2612"
    },
    {
      "channel": 4,
      "note": 89,
      "start": 19.7985,
      "duration": 0.0772,
      "velocity": 83,
      "chip": "ym2612"
    },
    {
      "channel": 2,
      "note": 90,
      "start": 19.8998,
      "duration": 0.0793,
      "velocity": 83,
      "chip": "ym2612"
    },
    {
      "channel": 0,
      "note": 65,
      "start": 20.0198,
      "duration": 0.169,
      "velocity": 95,
      "chip": "ym2612"
    },
    {
      "channel": 1,
      "note": 92,
      "start": 20.0221,
      "duration": 0.0762,
      "velocity": 83,
      "chip": "ym2612"
    },
    {
      "channel": 5,
      "note": 23,
      "start": 20.0258,
      "duration": 0.098,
      "velocity": 120,
      "chip": "ym2612"
    },
    {
      "channel": 4,
      "note": 93,
      "start": 20.1224,
      "duration": 0.0792,
      "velocity": 83,
      "chip": "ym2612"
    },
    {
      "channel": 0,
      "note": 66,
      "start": 20.243,
      "duration": 0.1687,
      "velocity": 95,
      "chip": "ym2612"
    },
    {
      "channel": 2,
      "note": 92,
      "start": 20.2463,
      "duration": 0.0758,
      "velocity": 83,
      "chip": "ym2612"
    },
    {
      "channel": 5,
      "note": 35,
      "start": 20.2481,
      "duration": 0.0944,
      "velocity": 120,
      "chip": "ym2612"
    },
    {
      "channel": 1,
      "note": 90,
      "start": 20.3451,
      "duration": 0.079,
      "velocity": 83,
      "chip": "ym2612"
    },
    {
      "channel": 5,
      "note": 35,
      "start": 20.3478,
      "duration": 0.0994,
      "velocity": 120,
      "chip": "ym2612"
    },
    {
      "channel": 0,
      "note": 61,
      "start": 20.449,
      "duration": 0.0486,
      "velocity": 95,
      "chip": "ym2612"
    },
    {
      "channel": 4,
      "note": 89,
      "start": 20.4515,
      "duration": 0.076,
      "velocity": 83,
      "chip": "ym2612"
    },
    {
      "channel": 5,
      "note": 35,
      "start": 20.4546,
      "duration": 0.1025,
      "velocity": 120,
      "chip": "ym2612"
    },
    {
      "channel": 0,
      "note": 72,
      "start": 20.5157,
      "duration": 0.0485,
      "velocity": 95,
      "chip": "ym2612"
    },
    {
      "channel": 0,
      "note": 73,
      "start": 20.569,
      "duration": 0.0467,
      "velocity": 95,
      "chip": "ym2612"
    },
    {
      "channel": 2,
      "note": 85,
      "start": 20.5724,
      "duration": 0.0758,
      "velocity": 83,
      "chip": "ym2612"
    },
    {
      "channel": 5,
      "note": 46,
      "start": 20.5741,
      "duration": 0.0962,
      "velocity": 120,
      "chip": "ym2612"
    },
    {
      "channel": 0,
      "note": 72,
      "start": 20.6185,
      "duration": 0.0487,
      "velocity": 95,
      "chip": "ym2612"
    },
    {
      "channel": 0,
      "note": 73,
      "start": 20.672,
      "duration": 0.0485,
      "velocity": 95,
      "chip": "ym2612"
    },
    {
      "channel": 1,
      "note": 81,
      "start": 20.6742,
      "duration": 0.0759,
      "velocity": 83,
      "chip": "ym2612"
    },
    {
      "channel": 5,
      "note": 46,
      "start": 20.6769,
      "duration": 0.1034,
      "velocity": 120,
      "chip": "ym2612"
    },
    {
      "channel": 0,
      "note": 72,
      "start": 20.7388,
      "duration": 0.0483,
      "velocity": 95,
      "chip": "ym2612"
    },
    {
      "channel": 0,
      "note": 73,
      "start": 20.792,
      "duration": 0.0468,
      "velocity": 95,
      "chip": "ym2612"
    },
    {
      "channel": 4,
      "note": 80,
      "start": 20.7949,
      "duration": 0.0758,
      "velocity": 83,
      "chip": "ym2612"
    },
    {
      "channel": 5,
      "note": 46,
      "start": 20.7972,
      "duration": 0.0964,
      "velocity": 120,
      "chip": "ym2612"
    },
    {
      "channel": 0,
      "note": 72,
      "start": 20.8416,
      "duration": 0.0488,
      "velocity": 95,
      "chip": "ym2612"
    },
    {
      "channel": 0,
      "note": 73,
      "start": 20.8953,
      "duration": 0.0464,
      "velocity": 95,
      "chip": "ym2612"
    },
    {
      "channel": 2,
      "note": 78,
      "start": 20.8984,
      "duration": 0.0757,
      "velocity": 83,
      "chip": "ym2612"
    },
    {
      "channel": 5,
      "note": 40,
      "start": 20.9002,
      "duration": 0.0969,
      "velocity": 120,
      "chip": "ym2612"
    },
    {
      "channel": 0,
      "note": 72,
      "start": 20.9444,
      "duration": 0.0506,
      "velocity": 95,
      "chip": "ym2612"
    },
    {
      "channel": 0,
      "note": 73,
      "start": 21.0144,
      "duration": 0.0475,
      "velocity": 95,
      "chip": "ym2612"
    },
    {
      "channel": 1,
      "note": 77,
      "start": 21.0165,
      "duration": 0.0767,
      "velocity": 83,
      "chip": "ym2612"
    },
    {
      "channel": 0,
      "note": 72,
      "start": 21.0646,
      "duration": 0.0486,
      "velocity": 95,
      "chip": "ym2612"
    },
    {
      "channel": 0,
      "note": 73,
      "start": 21.1181,
      "duration": 0.0465,
      "velocity": 95,
      "chip": "ym2612"
    },
    {
      "channel": 4,
      "note": 73,
      "start": 21.1209,
      "duration": 0.0757,
      "velocity": 83,
      "chip": "ym2612"
    },
    {
      "channel": 5,
      "note": 40,
      "start": 21.1241,
      "duration": 0.095,
      "velocity": 120,
      "chip": "ym2612"
    },
    {
      "channel": 0,
      "note": 72,
      "start": 21.1674,
      "duration": 0.0485,
      "velocity": 95,
      "chip": "ym2612"
    },
    {
      "channel": 0,
      "note": 73,
      "start": 21.2208,
      "duration": 0.0487,
      "velocity": 95,
      "chip": "ym2612"
    },
    {
      "channel": 2,
      "note": 71,
      "start": 21.2238,
      "duration": 0.0761,
      "velocity": 83,
      "chip": "ym2612"
    },
    {
      "channel": 5,
      "note": 35,
      "start": 21.2256,
      "duration": 0.1031,
      "velocity": 120,
      "chip": "ym2612"
    },
    {
      "channel": 0,
      "note": 72,
      "start": 21.2875,
      "duration": 0.0489,
      "velocity": 95,
      "chip": "ym2612"
    },
    {
      "channel": 0,
      "note": 73,
      "start": 21.3432,
      "duration": 0.3551,
      "velocity": 95,
      "chip": "ym2612"
    },
    {
      "channel": 3,
      "note": 85,
      "start": 21.345,
      "duration": 0.2167,
      "velocity": 107,
      "chip": "ym2612"
    },
    {
      "channel": 1,
      "note": 69,
      "start": 21.3468,
      "duration": 0.1753,
      "velocity": 83,
      "chip": "ym2612"
    },
    {
      "channel": 5,
      "note": 35,
      "start": 21.3507,
      "duration": 0.2124,
      "velocity": 120,
      "chip": "ym2612"
    },
    {
      "channel": 3,
      "note": 83,
      "start": 21.5681,
      "duration": 0.2165,
      "velocity": 107,
      "chip": "ym2612"
    },
    {
      "channel": 0,
      "note": 71,
      "start": 21.7931,
      "duration": 0.3512,
      "velocity": 95,
      "chip": "ym2612"
    },
    {
      "channel": 3,
      "note": 82,
      "start": 21.7948,
      "duration": 0.2129,
      "velocity": 107,
      "chip": "ym2612"
    },
    {
      "channel": 4,
      "note": 68,
      "start": 21.797,
      "duration": 0.1658,
      "velocity": 83,
      "chip": "ym2612"
    },
    {
      "channel": 5,
      "note": 23,
      "start": 21.7993,
      "duration": 0.2099,
      "velocity": 120,
      "chip": "ym2612"
    },
    {
      "channel": 3,
      "note": 83,
      "start": 22.0142,
      "duration": 0.4254,
      "velocity": 107,
      "chip": "ym2612"
    },
    {
      "channel": 5,
      "note": 46,
      "start": 22.0176,
      "duration": 0.2023,
      "velocity": 120,
      "chip": "ym2612"
    },
    {
      "channel": 0,
      "note": 70,
      "start": 22.2216,
      "duration": 0.3516,
      "velocity": 95,
      "chip": "ym2612"
    },
    {
      "channel": 2,
      "note": 65,
      "start": 22.2247,
      "duration": 0.1675,
      "velocity": 83,
      "chip": "ym2612"
    },
    {
      "channel": 5,
      "note": 40,
      "start": 22.2266,
      "duration": 0.2121,
      "velocity": 120,
      "chip": "ym2612"
    },
    {
      "channel": 3,
      "note": 86,
      "start": 22.443,
      "duration": 0.2165,
      "velocity": 107,
      "chip": "ym2612"
    },
    {
      "channel": 0,
      "note": 66,
      "start": 22.668,
      "duration": 0.3513,
      "velocity": 95,
      "chip": "ym2612"
    },
    {
      "channel": 3,
      "note": 83,
      "start": 22.6696,
      "duration": 0.2129,
      "velocity": 107,
      "chip": "ym2612"
    },
    {
      "channel": 1,
      "note": 95,
      "start": 22.6714,
      "duration": 0.1658,
      "velocity": 83,
      "chip": "ym2612"
    },
    {
      "channel": 5,
      "note": 23,
      "start": 22.6748,
      "duration": 0.2092,
      "velocity": 120,
      "chip": "ym2612"
    },
    {
      "channel": 3,
      "note": 86,
      "start": 22.889,
      "duration": 0.2165,
      "velocity": 107,
      "chip": "ym2612"
    },
    {
      "channel": 5,
      "note": 35,
      "start": 22.8932,
      "duration": 0.2138,
      "velocity": 120,
      "chip": "ym2612"
    },
    {
      "channel": 0,
      "note": 71,
      "start": 23.114,
      "duration": 0.3513,
      "velocity": 95,
      "chip": "ym2612"
    },
    {
      "channel": 3,
      "note": 83,
      "start": 23.1156,
      "duration": 0.2129,
      "velocity": 107,
      "chip": "ym2612"
    },
    {
      "channel": 4,
      "note": 95,
      "start": 23.1178,
      "duration": 0.1658,
      "velocity": 83,
      "chip": "ym2612"
    },
    {
      "channel": 5,
      "note": 40,
      "start": 23.1199,
      "duration": 0.2101,
      "velocity": 120,
      "chip": "ym2612"
    },
    {
      "channel": 3,
      "note": 88,
      "start": 23.335,
      "duration": 0.2165,
      "velocity": 107,
      "chip": "ym2612"
    },
    {
      "channel": 0,
      "note": 70,
      "start": 23.5601,
      "duration": 0.3512,
      "velocity": 95,
      "chip": "ym2612"
    },
    {
      "channel": 3,
      "note": 86,
      "start": 23.5617,
      "duration": 0.2128,
      "velocity": 107,
      "chip": "ym2612"
    },
    {
      "channel": 2,
      "note": 95,
      "start": 23.5644,
      "duration": 0.1657,
      "velocity": 83,
      "chip": "ym2612"
    },
    {
      "channel": 5,
      "note": 23,
      "start": 23.566,
      "duration": 0.21,
      "velocity": 120,
      "chip": "ym2612"
    },
    {
      "channel": 3,
      "note": 88,
      "start": 23.7811,
      "duration": 0.2044,
      "velocity": 107,
      "chip": "ym2612"
    },
    {
      "channel": 5,
      "note": 46,
      "start": 23.7845,
      "duration": 0.216,
      "velocity": 120,
      "chip": "ym2612"
    },
    {
      "channel": 0,
      "note": 66,
      "start": 23.9886,
      "duration": 0.3515,
      "velocity": 95,
      "chip": "ym2612"
    },
    {
      "channel": 3,
      "note": 90,
      "start": 23.9902,
      "duration": 0.8765,
      "velocity": 107,
      "chip": "ym2612"
    },
    {
      "channel": 1,
      "note": 95,
      "start": 23.992,
      "duration": 0.1718,
      "velocity": 83,
      "chip": "ym2612"
    },
    {
      "channel": 0,
      "note": 65,
      "start": 24.4344,
      "duration": 0.3517,
      "velocity": 95,
      "chip": "ym2612"
    },
    {
      "channel": 4,
      "note": 95,
      "start": 24.437,
      "duration": 0.1676,
      "velocity": 83,
      "chip": "ym2612"
    },
    {
      "channel": 5,
      "note": 39,
      "start": 24.44,
      "duration": 0.2112,
      "velocity": 120,
      "chip": "ym2612"
    },
    {
      "channel": 0,
      "note": 66,
      "start": 24.8826,
      "duration": 0.1323,
      "velocity": 95,
      "chip": "ym2612"
    },
    {
      "channel": 1,
      "note": 95,
      "start": 24.8846,
      "duration": 0.101,
      "velocity": 83,
      "chip": "ym2612"
    },
    {
      "channel": 2,
      "note": 95,
      "start": 24.8868,
      "duration": 0.1043,
      "velocity": 83,
      "chip": "ym2612"
    },
    {
      "channel": 5,
      "note": 35,
      "start": 24.8895,
      "duration": 0.2135,
      "velocity": 120,
      "chip": "ym2612"
    },
    {
      "channel": 1,
      "note": 78,
      "start": 24.9884,
      "duration": 0.1074,
      "velocity": 83,
      "chip": "ym2612"
    },
    {
      "channel": 4,
      "note": 95,
      "start": 24.9902,
      "duration": 0.1059,
      "velocity": 83,
      "chip": "ym2612"
    },
    {
      "channel": 0,
      "note": 66,
      "start": 25.1097,
      "duration": 0.1282,
      "velocity": 95,
      "chip": "ym2612"
    },
    {
      "channel": 1,
      "note": 79,
      "start": 25.1117,
      "duration": 0.0969,
      "velocity": 83,
      "chip": "ym2612"
    },
    {
      "channel": 2,
      "note": 74,
      "start": 25.1142,
      "duration": 0.1032,
      "velocity": 83,
      "chip": "ym2612"
    },
    {
      "channel": 5,
      "note": 24,
      "start": 25.116,
      "duration": 0.2099,
      "velocity": 120,
      "chip": "ym2612"
    },
    {
      "channel": 1,
      "note": 80,
      "start": 25.2114,
      "duration": 0.1018,
      "velocity": 83,
      "chip": "ym2612"
    },
    {
      "channel": 4,
      "note": 75,
      "start": 25.2131,
      "duration": 0.1002,
      "velocity": 83,
      "chip": "ym2612"
    },
    {
      "channel": 0,
      "note": 65,
      "start": 25.3326,
      "duration": 0.1397,
      "velocity": 95,
      "chip": "ym2612"
    },
    {
      "channel": 1,
      "note": 81,
      "start": 25.3349,
      "duration": 0.1022,
      "velocity": 83,
      "chip": "ym2612"
    },
    {
      "channel": 2,
      "note": 76,
      "start": 25.3373,
      "duration": 0.1083,
      "velocity": 83,
      "chip": "ym2612"
    },
    {
      "channel": 5,
      "note": 24,
      "start": 25.3399,
      "duration": 0.2148,
      "velocity": 120,
      "chip": "ym2612"
    },
    {
      "channel": 1,
      "note": 82,
      "start": 25.4399,
      "duration": 0.1021,
      "velocity": 83,
      "chip": "ym2612"
    },
    {
      "channel": 4,
      "note": 77,
      "start": 25.4417,
      "duration": 0.1005,
      "velocity": 83,
      "chip": "ym2612"
    },
    {
      "channel": 0,
      "note": 85,
      "start": 25.5614,
      "duration": 0.1283,
      "velocity": 95,
      "chip": "ym2612"
    },
    {
      "channel": 1,
      "note": 81,
      "start": 25.5633,
      "duration": 0.0968,
      "velocity": 83,
      "chip": "ym2612"
    },
    {
      "channel": 2,
      "note": 78,
      "start": 25.5658,
      "duration": 0.0999,
      "velocity": 83,
      "chip": "ym2612"
    },
    {
      "channel": 5,
      "note": 35,
      "start": 25.5676,
      "duration": 0.2101,
      "velocity": 120,
      "chip": "ym2612"
    },
    {
      "channel": 1,
      "note": 80,
      "start": 25.6629,
      "duration": 0.1078,
      "velocity": 83,
      "chip": "ym2612"
    },
    {
      "channel": 4,
      "note": 77,
      "start": 25.6647,
      "duration": 0.1061,
      "velocity": 83,
      "chip": "ym2612"
    },
    {
      "channel": 0,
      "note": 85,
      "start": 25.7844,
      "duration": 0.1339,
      "velocity": 95,
      "chip": "ym2612"
    },
    {
      "channel": 1,
      "note": 79,
      "start": 25.7868,
      "duration": 0.2069,
      "velocity": 83,
      "chip": "ym2612"
    },
    {
      "channel": 2,
      "note": 76,
      "start": 25.7892,
      "duration": 0.2179,
      "velocity": 83,
      "chip": "ym2612"
    },
    {
      "channel": 5,
      "note": 35,
      "start": 25.7919,
      "duration": 0.2155,
      "velocity": 120,
      "chip": "ym2612"
    },
    {
      "channel": 0,
      "note": 66,
      "start": 25.9956,
      "duration": 0.1285,
      "velocity": 95,
      "chip": "ym2612"
    },
    {
      "channel": 1,
      "note": 78,
      "start": 25.9978,
      "duration": 0.2132,
      "velocity": 83,
      "chip": "ym2612"
    },
    {
      "channel": 4,
      "note": 75,
      "start": 25.9995,
      "duration": 0.2116,
      "velocity": 83,
      "chip": "ym2612"
    },
    {
      "channel": 0,
      "note": 65,
      "start": 26.2188,
      "duration": 0.1341,
      "velocity": 95,
      "chip": "ym2612"
    },
    {
      "channel": 1,
      "note": 90,
      "start": 26.2208,
      "duration": 0.2131,
      "velocity": 83,
      "chip": "ym2612"
    },
    {
      "channel": 2,
      "note": 74,
      "start": 26.2231,
      "duration": 0.2116,
      "velocity": 83,
      "chip": "ym2612"
    },
    {
      "channel": 5,
      "note": 23,
      "start": 26.2257,
      "duration": 0.209,
      "velocity": 120,
      "chip": "ym2612"
    },
    {
      "channel": 0,
      "note": 86,
      "start": 26.4406,
      "duration": 0.1296,
      "velocity": 95,
      "chip": "ym2612"
    },
    {
      "channel": 1,
      "note": 78,
      "start": 26.4428,
      "duration": 0.2142,
      "velocity": 83,
      "chip": "ym2612"
    },
    {
      "channel": 4,
      "note": 85,
      "start": 26.4445,
      "duration": 0.2126,
      "velocity": 83,
      "chip": "ym2612"
    },
    {
      "channel": 0,
      "note": 86,
      "start": 26.6658,
      "duration": 0.1332,
      "velocity": 95,
      "chip": "ym2612"
    },
    {
      "channel": 1,
      "note": 90,
      "start": 26.6679,
      "duration": 0.102,
      "velocity": 83,
      "chip": "ym2612"
    },
    {
      "channel": 2,
      "note": 74,
      "start": 26.6702,
      "duration": 0.1086,
      "velocity": 83,
      "chip": "ym2612"
    },
    {
      "channel": 5,
      "note": 35,
      "start": 26.6728,
      "duration": 0.2144,
      "velocity": 120,
      "chip": "ym2612"
    },
    {
      "channel": 1,
      "note": 78,
      "start": 26.7727,
      "duration": 0.1073,
      "velocity": 83,
      "chip": "ym2612"
    },
    {
      "channel": 4,
      "note": 85,
      "start": 26.7744,
      "duration": 0.1057,
      "velocity": 83,
      "chip": "ym2612"
    },
    {
      "channel": 0,
      "note": 66,
      "start": 26.8939,
      "duration": 0.1337,
      "velocity": 95,
      "chip": "ym2612"
    },
    {
      "channel": 1,
      "note": 79,
      "start": 26.8961,
      "duration": 0.0966,
      "velocity": 83,
      "chip": "ym2612"
    },
    {
      "channel": 2,
      "note": 74,
      "start": 26.8986,
      "duration": 0.1032,
      "velocity": 83,
      "chip": "ym2612"
    },
    {
      "channel": 5,
      "note": 24,
      "start": 26.9004,
      "duration": 0.2097,
      "velocity": 120,
      "chip": "ym2612"
    },
    {
      "channel": 1,
      "note": 80,
      "start": 26.9957,
      "duration": 0.1016,
      "velocity": 83,
      "chip": "ym2612"
    },
    {
      "channel": 4,
      "note": 75,
      "start": 26.9974,
      "duration": 0.1,
      "velocity": 83,
      "chip": "ym2612"
    },
    {
      "channel": 0,
      "note": 65,
      "start": 27.1167,
      "duration": 0.134,
      "velocity": 95,
      "chip": "ym2612"
    },
    {
      "channel": 1,
      "note": 81,
      "start": 27.1191,
      "duration": 0.1021,
      "velocity": 83,
      "chip": "ym2612"
    },
    {
      "channel": 2,
      "note": 76,
      "start": 27.1216,
      "duration": 0.1051,
      "velocity": 83,
      "chip": "ym2612"
    },
    {
      "channel": 5,
      "note": 24,
      "start": 27.1242,
      "duration": 0.2146,
      "velocity": 120,
      "chip": "ym2612"
    },
    {
      "channel": 1,
      "note": 82,
      "start": 27.224,
      "duration": 0.1077,
      "velocity": 83,
      "chip": "ym2612"
    },
    {
      "channel": 4,
      "note": 77,
      "start": 27.2257,
      "duration": 0.1061,
      "velocity": 83,
      "chip": "ym2612"
    },
    {
      "channel": 0,
      "note": 85,
      "start": 27.3455,
      "duration": 0.1282,
      "velocity": 95,
      "chip": "ym2612"
    },
    {
      "channel": 1,
      "note": 81,
      "start": 27.3477,
      "duration": 0.0968,
      "velocity": 83,
      "chip": "ym2612"
    },
    {
      "channel": 2,
      "note": 78,
      "start": 27.3502,
      "duration": 0.103,
      "velocity": 83,
      "chip": "ym2612"
    },
    {
      "channel": 5,
      "note": 35,
      "start": 27.352,
      "duration": 0.21,
      "velocity": 120,
      "chip": "ym2612"
    },
    {
      "channel": 1,
      "note": 80,
      "start": 27.4473,
      "duration": 0.1075,
      "velocity": 83,
      "chip": "ym2612"
    },
    {
      "channel": 4,
      "note": 77,
      "start": 27.449,
      "duration": 0.1059,
      "velocity": 83,
      "chip": "ym2612"
    },
    {
      "channel": 0,
      "note": 85,
      "start": 27.5688,
      "duration": 0.1394,
      "velocity": 95,
      "chip": "ym2612"
    },
    {
      "channel": 1,
      "note": 79,
      "start": 27.5709,
      "duration": 0.2069,
      "velocity": 83,
      "chip": "ym2612"
    },
    {
      "channel": 2,
      "note": 76,
      "start": 27.5734,
      "duration": 0.218,
      "velocity": 83,
      "chip": "ym2612"
    },
    {
      "channel": 5,
      "note": 35,
      "start": 27.5761,
      "duration": 0.2156,
      "velocity": 120,
      "chip": "ym2612"
    },
    {
      "channel": 0,
      "note": 66,
      "start": 27.7797,
      "duration": 0.1343,
      "velocity": 95,
      "chip": "ym2612"
    },
    {
      "channel": 1,
      "note": 78,
      "start": 27.782,
      "duration": 0.2132,
      "velocity": 83,
      "chip": "ym2612"
    },
    {
      "channel": 4,
      "note": 75,
      "start": 27.7838,
      "duration": 0.2115,
      "velocity": 83,
      "chip": "ym2612"
    },
    {
      "channel": 0,
      "note": 65,
      "start": 28.003,
      "duration": 0.134,
      "velocity": 95,
      "chip": "ym2612"
    },
    {
      "channel": 1,
      "note": 90,
      "start": 28.0052,
      "duration": 0.2186,
      "velocity": 83,
      "chip": "ym2612"
    },
    {
      "channel": 2,
      "note": 74,
      "start": 28.0074,
      "duration": 0.2171,
      "velocity": 83,
      "chip": "ym2612"
    },
    {
      "channel": 5,
      "note": 23,
      "start": 28.01,
      "duration": 0.2146,
      "velocity": 120,
      "chip": "ym2612"
    },
    {
      "channel": 0,
      "note": 86,
      "start": 28.2304,
      "duration": 0.1296,
      "velocity": 95,
      "chip": "ym2612"
    },
    {
      "channel": 1,
      "note": 78,
      "start": 28.2326,
      "duration": 0.2142,
      "velocity": 83,
      "chip": "ym2612"
    },
    {
      "channel": 4,
      "note": 85,
      "start": 28.2343,
      "duration": 0.2126,
      "velocity": 83,
      "chip": "ym2612"
    },
    {
      "channel": 0,
      "note": 86,
      "start": 28.4558,
      "duration": 0.3559,
      "velocity": 95,
      "chip": "ym2612"
    },
    {
      "channel": 3,
      "note": 83,
      "start": 28.4575,
      "duration": 0.2175,
      "velocity": 107,
      "chip": "ym2612"
    },
    {
      "channel": 2,
      "note": 74,
      "start": 28.4602,
      "duration": 0.1705,
      "velocity": 83,
      "chip": "ym2612"
    },
    {
      "channel": 5,
      "note": 35,
      "start": 28.4628,
      "duration": 0.2138,
      "velocity": 120,
      "chip": "ym2612"
    },
    {
      "channel": 3,
      "note": 83,
      "start": 28.6815,
      "duration": 0.2164,
      "velocity": 107,
      "chip": "ym2612"
    },
    {
      "channel": 0,
      "note": 71,
      "start": 28.9065,
      "duration": 0.3512,
      "velocity": 95,
      "chip": "ym2612"
    },
    {
      "channel": 3,
      "note": 82,
      "start": 28.9081,
      "duration": 0.2129,
      "velocity": 107,
      "chip": "ym2612"
    },
    {
      "channel": 1,
      "note": 90,
      "start": 28.9099,
      "duration": 0.1658,
      "velocity": 83,
      "chip": "ym2612"
    },
    {
      "channel": 5,
      "note": 23,
      "start": 28.9128,
      "duration": 0.2097,
      "velocity": 120,
      "chip": "ym2612"
    },
    {
      "channel": 3,
      "note": 83,
      "start": 29.1275,
      "duration": 0.4394,
      "velocity": 107,
      "chip": "ym2612"
    },
    {
      "channel": 5,
      "note": 46,
      "start": 29.1309,
      "duration": 0.2149,
      "velocity": 120,
      "chip": "ym2612"
    },
    {
      "channel": 0,
      "note": 70,
      "start": 29.3515,
      "duration": 0.3522,
      "velocity": 95,
      "chip": "ym2612"
    },
    {
      "channel": 4,
      "note": 85,
      "start": 29.3542,
      "duration": 0.168,
      "velocity": 83,
      "chip": "ym2612"
    },
    {
      "channel": 5,
      "note": 40,
      "start": 29.3564,
      "duration": 0.2121,
      "velocity": 120,
      "chip": "ym2612"
    },
    {
      "channel": 3,
      "note": 86,
      "start": 29.5735,
      "duration": 0.2042,
      "velocity": 107,
      "chip": "ym2612"
    },
    {
      "channel": 0,
      "note": 66,
      "start": 29.7817,
      "duration": 0.3566,
      "velocity": 95,
      "chip": "ym2612"
    },
    {
      "channel": 3,
      "note": 83,
      "start": 29.7833,
      "duration": 0.2183,
      "velocity": 107,
      "chip": "ym2612"
    },
    {
      "channel": 2,
      "note": 95,
      "start": 29.7861,
      "duration": 0.1712,
      "velocity": 83,
      "chip": "ym2612"
    },
    {
      "channel": 5,
      "note": 23,
      "start": 29.7885,
      "duration": 0.215,
      "velocity": 120,
      "chip": "ym2612"
    },
    {
      "channel": 3,
      "note": 86,
      "start": 30.0081,
      "duration": 0.2165,
      "velocity": 107,
      "chip": "ym2612"
    },
    {
      "channel": 5,
      "note": 35,
      "start": 30.0121,
      "duration": 0.2141,
      "velocity": 120,
      "chip": "ym2612"
    },
    {
      "channel": 0,
      "note": 71,
      "start": 30.233,
      "duration": 0.3513,
      "velocity": 95,
      "chip": "ym2612"
    },
    {
      "channel": 3,
      "note": 83,
      "start": 30.2346,
      "duration": 0.2129,
      "velocity": 107,
      "chip": "ym2612"
    },
    {
      "channel": 1,
      "note": 95,
      "start": 30.2364,
      "duration": 0.1658,
      "velocity": 83,
      "chip": "ym2612"
    },
    {
      "channel": 5,
      "note": 40,
      "start": 30.239,
      "duration": 0.2101,
      "velocity": 120,
      "chip": "ym2612"
    },
    {
      "channel": 3,
      "note": 88,
      "start": 30.4541,
      "duration": 0.2165,
      "velocity": 107,
      "chip": "ym2612"
    },
    {
      "channel": 0,
      "note": 70,
      "start": 30.679,
      "duration": 0.3513,
      "velocity": 95,
      "chip": "ym2612"
    },
    {
      "channel": 3,
      "note": 86,
      "start": 30.6807,
      "duration": 0.2129,
      "velocity": 107,
      "chip": "ym2612"
    },
    {
      "channel": 4,
      "note": 95,
      "start": 30.6829,
      "duration": 0.1658,
      "velocity": 83,
      "chip": "ym2612"
    },
    {
      "channel": 5,
      "note": 23,
      "start": 30.685,
      "duration": 0.2101,
      "velocity": 120,
      "chip": "ym2612"
    },
    {
      "channel": 3,
      "note": 88,
      "start": 30.9002,
      "duration": 0.2164,
      "velocity": 107,
      "chip": "ym2612"
    },
    {
      "channel": 5,
      "note": 46,
      "start": 30.9035,
      "duration": 0.2147,
      "velocity": 120,
      "chip": "ym2612"
    },
    {
      "channel": 0,
      "note": 66,
      "start": 31.1241,
      "duration": 0.3522,
      "velocity": 95,
      "chip": "ym2612"
    },
    {
      "channel": 3,
      "note": 90,
      "start": 31.1258,
      "duration": 0.8847,
      "velocity": 107,
      "chip": "ym2612"
    },
    {
      "channel": 2,
      "note": 95,
      "start": 31.1284,
      "duration": 0.1668,
      "velocity": 83,
      "chip": "ym2612"
    },
    {
      "channel": 0,
      "note": 65,
      "start": 31.5533,
      "duration": 0.352,
      "velocity": 95,
      "chip": "ym2612"
    },
    {
      "channel": 1,
      "note": 95,
      "start": 31.5555,
      "duration": 0.1677,
      "velocity": 83,
      "chip": "ym2612"
    },
    {
      "channel": 5,
      "note": 39,
      "start": 31.559,
      "duration": 0.2118,
      "velocity": 120,
      "chip": "ym2612"
    },
    {
      "channel": 0,
      "note": 66,
      "start": 32.0017,
      "duration": 0.1322,
      "velocity": 95,
      "chip": "ym2612"
    },
    {
      "channel": 4,
      "note": 95,
      "start": 32.0044,
      "duration": 0.1024,
      "velocity": 83,
      "chip": "ym2612"
    },
    {
      "channel": 2,
      "note": 95,
      "start": 32.0061,
      "duration": 0.1008,
      "velocity": 83,
      "chip": "ym2612"
    },
    {
      "channel": 5,
      "note": 35,
      "start": 32.0088,
      "duration": 0.2132,
      "velocity": 120,
      "chip": "ym2612"
    },
    {
      "channel": 1,
      "note": 95,
      "start": 32.1247,
      "duration": 0.1013,
      "velocity": 83,
      "chip": "ym2612"
    },
    {
      "channel": 4,
      "note": 76,
      "start": 32.1264,
      "duration": 0.1054,
      "velocity": 83,
      "chip": "ym2612"
    },
    {
      "channel": 0,
      "note": 68,
      "start": 32.2287,
      "duration": 0.1283,
      "velocity": 95,
      "chip": "ym2612"
    },
    {
      "channel": 1,
      "note": 77,
      "start": 32.2309,
      "duration": 0.1041,
      "velocity": 83,
      "chip": "ym2612"
    },
    {
      "channel": 2,
      "note": 80,
      "start": 32.2328,
      "duration": 0.1029,
      "velocity": 83,
      "chip": "ym2612"
    },
    {
      "channel": 5,
      "note": 24,
      "start": 32.2346,
      "duration": 0.2107,
      "velocity": 120,
      "chip": "ym2612"
    },
    {
      "channel": 1,
      "note": 82,
      "start": 32.3476,
      "duration": 0.1017,
      "velocity": 83,
      "chip": "ym2612"
    },
    {
      "channel": 4,
      "note": 81,
      "start": 32.3493,
      "duration": 0.1123,
      "velocity": 83,
      "chip": "ym2612"
    },
    {
      "channel": 0,
      "note": 67,
      "start": 32.452,
      "duration": 0.1395,
      "velocity": 95,
      "chip": "ym2612"
    },
    {
      "channel": 1,
      "note": 83,
      "start": 32.4541,
      "duration": 0.1024,
      "velocity": 83,
      "chip": "ym2612"
    },
    {
      "channel": 2,
      "note": 78,
      "start": 32.4563,
      "duration": 0.1087,
      "velocity": 83,
      "chip": "ym2612"
    },
    {
      "channel": 5,
      "note": 24,
      "start": 32.459,
      "duration": 0.2148,
      "velocity": 120,
      "chip": "ym2612"
    },
    {
      "channel": 1,
      "note": 84,
      "start": 32.5591,
      "duration": 0.1019,
      "velocity": 83,
      "chip": "ym2612"
    },
    {
      "channel": 4,
      "note": 79,
      "start": 32.5609,
      "duration": 0.1002,
      "velocity": 83,
      "chip": "ym2612"
    },
    {
      "channel": 0,
      "note": 87,
      "start": 32.6804,
      "duration": 0.1283,
      "velocity": 95,
      "chip": "ym2612"
    },
    {
      "channel": 1,
      "note": 83,
      "start": 32.6825,
      "duration": 0.0967,
      "velocity": 83,
      "chip": "ym2612"
    },
    {
      "channel": 2,
      "note": 80,
      "start": 32.685,
      "duration": 0.0998,
      "velocity": 83,
      "chip": "ym2612"
    },
    {
      "channel": 5,
      "note": 35,
      "start": 32.6867,
      "duration": 0.2101,
      "velocity": 120,
      "chip": "ym2612"
    },
    {
      "channel": 1,
      "note": 82,
      "start": 32.782,
      "duration": 0.1077,
      "velocity": 83,
      "chip": "ym2612"
    },
    {
      "channel": 4,
      "note": 79,
      "start": 32.7838,
      "duration": 0.106,
      "velocity": 83,
      "chip": "ym2612"
    },
    {
      "channel": 0,
      "note": 87,
      "start": 32.9035,
      "duration": 0.1339,
      "velocity": 95,
      "chip": "ym2612"
    },
    {
      "channel": 1,
      "note": 81,
      "start": 32.9056,
      "duration": 0.2185,
      "velocity": 83,
      "chip": "ym2612"
    },
    {
      "channel": 2,
      "note": 78,
      "start": 32.9081,
      "duration": 0.2166,
      "velocity": 83,
      "chip": "ym2612"
    },
    {
      "channel": 5,
      "note": 35,
      "start": 32.9108,
      "duration": 0.2141,
      "velocity": 120,
      "chip": "ym2612"
    },
    {
      "channel": 0,
      "note": 68,
      "start": 33.1307,
      "duration": 0.1354,
      "velocity": 95,
      "chip": "ym2612"
    },
    {
      "channel": 1,
      "note": 80,
      "start": 33.1329,
      "duration": 0.2027,
      "velocity": 83,
      "chip": "ym2612"
    },
    {
      "channel": 4,
      "note": 77,
      "start": 33.1346,
      "duration": 0.2187,
      "velocity": 83,
      "chip": "ym2612"
    },
    {
      "channel": 0,
      "note": 67,
      "start": 33.3383,
      "duration": 0.1394,
      "velocity": 95,
      "chip": "ym2612"
    },
    {
      "channel": 1,
      "note": 92,
      "start": 33.3405,
      "duration": 0.2185,
      "velocity": 83,
      "chip": "ym2612"
    },
    {
      "channel": 2,
      "note": 76,
      "start": 33.3428,
      "duration": 0.2168,
      "velocity": 83,
      "chip": "ym2612"
    },
    {
      "channel": 5,
      "note": 23,
      "start": 33.3455,
      "duration": 0.2142,
      "velocity": 120,
      "chip": "ym2612"
    },
    {
      "channel": 0,
      "note": 88,
      "start": 33.5655,
      "duration": 0.1295,
      "velocity": 95,
      "chip": "ym2612"
    },
    {
      "channel": 1,
      "note": 80,
      "start": 33.5676,
      "duration": 0.2142,
      "velocity": 83,
      "chip": "ym2612"
    },
    {
      "channel": 4,
      "note": 87,
      "start": 33.5693,
      "duration": 0.2127,
      "velocity": 83,
      "chip": "ym2612"
    },
    {
      "channel": 0,
      "note": 88,
      "start": 33.791,
      "duration": 0.1328,
      "velocity": 95,
      "chip": "ym2612"
    },
    {
      "channel": 1,
      "note": 92,
      "start": 33.7932,
      "duration": 0.1087,
      "velocity": 83,
      "chip": "ym2612"
    },
    {
      "channel": 2,
      "note": 76,
      "start": 33.7954,
      "duration": 0.1071,
      "velocity": 83,
      "chip": "ym2612"
    },
    {
      "channel": 5,
      "note": 35,
      "start": 33.7981,
      "duration": 0.2137,
      "velocity": 120,
      "chip": "ym2612"
    },
    {
      "channel": 1,
      "note": 80,
      "start": 33.9146,
      "duration": 0.1012,
      "velocity": 83,
      "chip": "ym2612"
    },
    {
      "channel": 4,
      "note": 87,
      "start": 33.9163,
      "duration": 0.1045,
      "velocity": 83,
      "chip": "ym2612"
    },
    {
      "channel": 0,
      "note": 68,
      "start": 34.0177,
      "duration": 0.1347,
      "velocity": 95,
      "chip": "ym2612"
    },
    {
      "channel": 1,
      "note": 81,
      "start": 34.0198,
      "duration": 0.105,
      "velocity": 83,
      "chip": "ym2612"
    },
    {
      "channel": 2,
      "note": 76,
      "start": 34.0218,
      "duration": 0.1037,
      "velocity": 83,
      "chip": "ym2612"
    },
    {
      "channel": 1,
      "note": 82,
      "start": 34.1376,
      "duration": 0.1017,
      "velocity": 83,
      "chip": "ym2612"
    },
    {
      "channel": 4,
      "note": 77,
      "start": 34.1394,
      "duration": 0.1125,
      "velocity": 83,
      "chip": "ym2612"
    },
    {
      "channel": 0,
      "note": 67,
      "start": 34.2421,
      "duration": 0.1334,
      "velocity": 95,
      "chip": "ym2612"
    },
    {
      "channel": 1,
      "note": 83,
      "start": 34.2443,
      "duration": 0.1017,
      "velocity": 83,
      "chip": "ym2612"
    },
    {
      "channel": 2,
      "note": 78,
      "start": 34.2466,
      "duration": 0.1051,
      "velocity": 83,
      "chip": "ym2612"
    },
    {
      "channel": 5,
      "note": 23,
      "start": 34.2492,
      "duration": 0.1027,
      "velocity": 120,
      "chip": "ym2612"
    },
    {
      "channel": 1,
      "note": 84,
      "start": 34.349,
      "duration": 0.1076,
      "velocity": 83,
      "chip": "ym2612"
    },
    {
      "channel": 4,
      "note": 79,
      "start": 34.3507,
      "duration": 0.1059,
      "velocity": 83,
      "chip": "ym2612"
    },
    {
      "channel": 0,
      "note": 87,
      "start": 34.4708,
      "duration": 0.1277,
      "velocity": 95,
      "chip": "ym2612"
    },
    {
      "channel": 1,
      "note": 83,
      "start": 34.4728,
      "duration": 0.0964,
      "velocity": 83,
      "chip": "ym2612"
    },
    {
      "channel": 2,
      "note": 80,
      "start": 34.4753,
      "duration": 0.1044,
      "velocity": 83,
      "chip": "ym2612"
    },
    {
      "channel": 5,
      "note": 35,
      "start": 34.477,
      "duration": 0.0932,
      "velocity": 120,
      "chip": "ym2612"
    },
    {
      "channel": 1,
      "note": 82,
      "start": 34.5729,
      "duration": 0.1066,
      "velocity": 83,
      "chip": "ym2612"
    },
    {
      "channel": 4,
      "note": 79,
      "start": 34.5747,
      "duration": 0.105,
      "velocity": 83,
      "chip": "ym2612"
    },
    {
      "channel": 5,
      "note": 35,
      "start": 34.5769,
      "duration": 0.1034,
      "velocity": 120,
      "chip": "ym2612"
    },
    {
      "channel": 0,
      "note": 87,
      "start": 34.6941,
      "duration": 0.0817,
      "velocity": 95,
      "chip": "ym2612"
    },
    {
      "channel": 3,
      "note": 83,
      "start": 34.6957,
      "duration": 0.1028,
      "velocity": 107,
      "chip": "ym2612"
    },
    {
      "channel": 2,
      "note": 78,
      "start": 34.699,
      "duration": 0.0902,
      "velocity": 83,
      "chip": "ym2612"
    },
    {
      "channel": 5,
      "note": 35,
      "start": 34.7018,
      "duration": 0.099,
      "velocity": 120,
      "chip": "ym2612"
    },
    {
      "channel": 0,
      "note": 73,
      "start": 34.8025,
      "duration": 0.0762,
      "velocity": 95,
      "chip": "ym2612"
    },
    {
      "channel": 3,
      "note": 93,
      "start": 34.8041,
      "duration": 0.0979,
      "velocity": 107,
      "chip": "ym2612"
    },
    {
      "channel": 1,
      "note": 81,
      "start": 34.8059,
      "duration": 0.0851,
      "velocity": 83,
      "chip": "ym2612"
    },
    {
      "channel": 5,
      "note": 46,
      "start": 34.8086,
      "duration": 0.0949,
      "velocity": 120,
      "chip": "ym2612"
    },
    {
      "channel": 0,
      "note": 83,
      "start": 34.9224,
      "duration": 0.0763,
      "velocity": 95,
      "chip": "ym2612"
    },
    {
      "channel": 3,
      "note": 92,
      "start": 34.9241,
      "duration": 0.0975,
      "velocity": 107,
      "chip": "ym2612"
    },
    {
      "channel": 4,
      "note": 77,
      "start": 34.9266,
      "duration": 0.0851,
      "velocity": 83,
      "chip": "ym2612"
    },
    {
      "channel": 5,
      "note": 46,
      "start": 34.9289,
      "duration": 0.095,
      "velocity": 120,
      "chip": "ym2612"
    },
    {
      "channel": 0,
      "note": 72,
      "start": 35.0255,
      "duration": 0.0761,
      "velocity": 95,
      "chip": "ym2612"
    },
    {
      "channel": 3,
      "note": 91,
      "start": 35.0271,
      "duration": 0.1036,
      "velocity": 107,
      "chip": "ym2612"
    },
    {
      "channel": 2,
      "note": 80,
      "start": 35.0298,
      "duration": 0.0851,
      "velocity": 83,
      "chip": "ym2612"
    },
    {
      "channel": 5,
      "note": 46,
      "start": 35.0316,
      "duration": 0.1007,
      "velocity": 120,
      "chip": "ym2612"
    },
    {
      "channel": 0,
      "note": 82,
      "start": 35.1455,
      "duration": 0.082,
      "velocity": 95,
      "chip": "ym2612"
    },
    {
      "channel": 3,
      "note": 90,
      "start": 35.1471,
      "duration": 0.1032,
      "velocity": 107,
      "chip": "ym2612"
    },
    {
      "channel": 1,
      "note": 79,
      "start": 35.1489,
      "duration": 0.091,
      "velocity": 83,
      "chip": "ym2612"
    },
    {
      "channel": 5,
      "note": 40,
      "start": 35.1519,
      "duration": 0.1102,
      "velocity": 120,
      "chip": "ym2612"
    },
    {
      "channel": 0,
      "note": 71,
      "start": 35.2534,
      "duration": 0.077,
      "velocity": 95,
      "chip": "ym2612"
    },
    {
      "channel": 3,
      "note": 89,
      "start": 35.2551,
      "duration": 0.0981,
      "velocity": 107,
      "chip": "ym2612"
    },
    {
      "channel": 4,
      "note": 78,
      "start": 35.2572,
      "duration": 0.086,
      "velocity": 83,
      "chip": "ym2612"
    },
    {
      "channel": 0,
      "note": 81,
      "start": 35.3572,
      "duration": 0.0819,
      "velocity": 95,
      "chip": "ym2612"
    },
    {
      "channel": 3,
      "note": 88,
      "start": 35.3588,
      "duration": 0.1093,
      "velocity": 107,
      "chip": "ym2612"
    },
    {
      "channel": 2,
      "note": 77,
      "start": 35.3615,
      "duration": 0.0908,
      "velocity": 83,
      "chip": "ym2612"
    },
    {
      "channel": 5,
      "note": 40,
      "start": 35.3643,
      "duration": 0.1054,
      "velocity": 120,
      "chip": "ym2612"
    },
    {
      "channel": 0,
      "note": 70,
      "start": 35.4826,
      "duration": 0.0765,
      "velocity": 95,
      "chip": "ym2612"
    },
    {
      "channel": 3,
      "note": 87,
      "start": 35.4843,
      "duration": 0.0983,
      "velocity": 107,
      "chip": "ym2612"
    },
    {
      "channel": 1,
      "note": 76,
      "start": 35.4861,
      "duration": 0.0854,
      "velocity": 83,
      "chip": "ym2612"
    },
    {
      "channel": 5,
      "note": 35,
      "start": 35.489,
      "duration": 0.0966,
      "velocity": 120,
      "chip": "ym2612"
    },
    {
      "channel": 0,
      "note": 80,
      "start": 35.5873,
      "duration": 0.3549,
      "velocity": 95,
      "chip": "ym2612"
    },
    {
      "channel": 3,
      "note": 86,
      "start": 35.589,
      "duration": 0.2165,
      "velocity": 107,
      "chip": "ym2612"
    },
    {
      "channel": 4,
      "note": 75,
      "start": 35.5911,
      "duration": 0.078,
      "velocity": 83,
      "chip": "ym2612"
    },
    {
      "channel": 5,
      "note": 35,
      "start": 35.5944,
      "duration": 0.4357,
      "velocity": 120,
      "chip": "ym2612"
    },
    {
      "channel": 2,
      "note": 74,
      "start": 35.7107,
      "duration": 0.0791,
      "velocity": 83,
      "chip": "ym2612"
    },
    {
      "channel": 3,
      "note": 73,
      "start": 35.812,
      "duration": 0.2165,
      "velocity": 107,
      "chip": "ym2612"
    },
    {
      "channel": 1,
      "note": 73,
      "start": 35.8137,
      "duration": 0.0723,
      "velocity": 83,
      "chip": "ym2612"
    },
    {
      "channel": 4,
      "note": 61,
      "start": 35.9333,
      "duration": 0.079,
      "velocity": 83,
      "chip": "ym2612"
    },
    {
      "channel": 0,
      "note": 66,
      "start": 36.0367,
      "duration": 0.3516,
      "velocity": 95,
      "chip": "ym2612"
    },
    {
      "channel": 3,
      "note": 74,
      "start": 36.0383,
      "duration": 0.2132,
      "velocity": 107,
      "chip": "ym2612"
    },
    {
      "channel": 2,
      "note": 62,
      "start": 36.041,
      "duration": 0.0747,
      "velocity": 83,
      "chip": "ym2612"
    },
    {
      "channel": 5,
      "note": 23,
      "start": 36.0436,
      "duration": 0.4273,
      "velocity": 120,
      "chip": "ym2612"
    },
    {
      "channel": 1,
      "note": 65,
      "start": 36.1384,
      "duration": 0.0793,
      "velocity": 83,
      "chip": "ym2612"
    },
    {
      "channel": 3,
      "note": 77,
      "start": 36.2581,
      "duration": 0.2165,
      "velocity": 107,
      "chip": "ym2612"
    },
    {
      "channel": 4,
      "note": 66,
      "start": 36.2605,
      "duration": 0.0777,
      "velocity": 83,
      "chip": "ym2612"
    },
    {
      "channel": 2,
      "note": 68,
      "start": 36.3623,
      "duration": 0.0793,
      "velocity": 83,
      "chip": "ym2612"
    }
  ]
}