{
  "track_name": "19 - Bozel",
  "duration_sec": 54.064,
  "sample_rate": 44100,
  "note_count": 1297,
  "unique_pitches": 42,
  "pitch_range": 69,
  "avg_note_duration": 0.1264,
  "reconstruction_stats": {
    "notes_reconstructed": 1297,
    "keyon_events": 1297,
    "keyoff_events": 1293,
    "orphan_keyons": 3,
    "unique_pitches": 42,
    "pitch_range": 69,
    "avg_duration_sec": 0.1264
  },
  "metadata": {
    "source": "L\\Langrisser II\\19 - Bozel.vgz"
  },
  "notes": [
    {
      "channel": 1,
      "note": 87,
      "start": 0.024,
      "duration": 0.0241,
      "velocity": 101,
      "chip": "ym2612"
    },
    {
      "channel": 2,
      "note": 75,
      "start": 0.0268,
      "duration": 0.0216,
      "velocity": 101,
      "chip": "ym2612"
    },
    {
      "channel": 3,
      "note": -1,
      "start": 0.0306,
      "duration": 0.0182,
      "velocity": 101,
      "chip": "ym2612"
    },
    {
      "channel": 4,
      "note": -1,
      "start": 0.0348,
      "duration": 0.0143,
      "velocity": 101,
      "chip": "ym2612"
    },
    {
      "channel": 1,
      "note": 87,
      "start": 0.051,
      "duration": 0.0137,
      "velocity": 101,
      "chip": "ym2612"
    },
    {
      "channel": 2,
      "note": 75,
      "start": 0.0516,
      "duration": 0.0134,
      "velocity": 101,
      "chip": "ym2612"
    },
    {
      "channel": 3,
      "note": 82,
      "start": 0.0522,
      "duration": 0.0131,
      "velocity": 101,
      "chip": "ym2612"
    },
    {
      "channel": 4,
      "note": 75,
      "start": 0.0529,
      "duration": 0.0128,
      "velocity": 101,
      "chip": "ym2612"
    },
    {
      "channel": 1,
      "note": 87,
      "start": 0.0676,
      "duration": 0.0137,
      "velocity": 101,
      "chip": "ym2612"
    },
    {
      "channel": 2,
      "note": 75,
      "start": 0.0682,
      "duration": 0.0134,
      "velocity": 101,
      "chip": "ym2612"
    },
    {
      "channel": 3,
      "note": 82,
      "start": 0.0688,
      "duration": 0.0131,
      "velocity": 101,
      "chip": "ym2612"
    },
    {
      "channel": 4,
      "note": 75,
      "start": 0.0695,
      "duration": 0.0128,
      "velocity": 101,
      "chip": "ym2612"
    },
    {
      "channel": 2,
      "note": 63,
      "start": 0.0846,
      "duration": 0.0626,
      "velocity": 101,
      "chip": "ym2612"
    },
    {
      "channel": 3,
      "note": 82,
      "start": 0.0852,
      "duration": 0.0623,
      "velocity": 101,
      "chip": "ym2612"
    },
    {
      "channel": 2,
      "note": 63,
      "start": 0.1642,
      "duration": 0.0839,
      "velocity": 101,
      "chip": "ym2612"
    },
    {
      "channel": 3,
      "note": 70,
      "start": 0.1648,
      "duration": 0.0836,
      "velocity": 101,
      "chip": "ym2612"
    },
    {
      "channel": 2,
      "note": 63,
      "start": 0.2651,
      "duration": 0.084,
      "velocity": 101,
      "chip": "ym2612"
    },
    {
      "channel": 3,
      "note": 70,
      "start": 0.2658,
      "duration": 0.0837,
      "velocity": 101,
      "chip": "ym2612"
    },
    {
      "channel": 1,
      "note": 87,
      "start": 0.3658,
      "duration": 0.0839,
      "velocity": 101,
      "chip": "ym2612"
    },
    {
      "channel": 2,
      "note": 75,
      "start": 0.3663,
      "duration": 0.0836,
      "velocity": 101,
      "chip": "ym2612"
    },
    {
      "channel": 3,
      "note": 70,
      "start": 0.367,
      "duration": 0.0833,
      "velocity": 101,
      "chip": "ym2612"
    },
    {
      "channel": 4,
      "note": 75,
      "start": 0.3676,
      "duration": 0.083,
      "velocity": 101,
      "chip": "ym2612"
    },
    {
      "channel": 1,
      "note": 87,
      "start": 0.4668,
      "duration": 0.0839,
      "velocity": 101,
      "chip": "ym2612"
    },
    {
      "channel": 2,
      "note": 75,
      "start": 0.4673,
      "duration": 0.0836,
      "velocity": 101,
      "chip": "ym2612"
    },
    {
      "channel": 3,
      "note": 82,
      "start": 0.4679,
      "duration": 0.0833,
      "velocity": 101,
      "chip": "ym2612"
    },
    {
      "channel": 4,
      "note": 75,
      "start": 0.4686,
      "duration": 0.083,
      "velocity": 101,
      "chip": "ym2612"
    },
    {
      "channel": 1,
      "note": 87,
      "start": 0.5677,
      "duration": 0.084,
      "velocity": 101,
      "chip": "ym2612"
    },
    {
      "channel": 2,
      "note": 75,
      "start": 0.5682,
      "duration": 0.0837,
      "velocity": 101,
      "chip": "ym2612"
    },
    {
      "channel": 3,
      "note": 82,
      "start": 0.5688,
      "duration": 0.0834,
      "velocity": 101,
      "chip": "ym2612"
    },
    {
      "channel": 4,
      "note": 75,
      "start": 0.5695,
      "duration": 0.0831,
      "velocity": 101,
      "chip": "ym2612"
    },
    {
      "channel": 2,
      "note": 63,
      "start": 0.669,
      "duration": 0.0838,
      "velocity": 101,
      "chip": "ym2612"
    },
    {
      "channel": 3,
      "note": 82,
      "start": 0.6696,
      "duration": 0.0835,
      "velocity": 101,
      "chip": "ym2612"
    },
    {
      "channel": 2,
      "note": 63,
      "start": 0.7698,
      "duration": 0.0839,
      "velocity": 101,
      "chip": "ym2612"
    },
    {
      "channel": 3,
      "note": 70,
      "start": 0.7704,
      "duration": 0.0836,
      "velocity": 101,
      "chip": "ym2612"
    },
    {
      "channel": 2,
      "note": 63,
      "start": 0.8707,
      "duration": 0.0839,
      "velocity": 101,
      "chip": "ym2612"
    },
    {
      "channel": 3,
      "note": 70,
      "start": 0.8713,
      "duration": 0.0836,
      "velocity": 101,
      "chip": "ym2612"
    },
    {
      "channel": 1,
      "note": 87,
      "start": 0.9714,
      "duration": 0.0839,
      "velocity": 101,
      "chip": "ym2612"
    },
    {
      "channel": 2,
      "note": 75,
      "start": 0.9719,
      "duration": 0.0837,
      "velocity": 101,
      "chip": "ym2612"
    },
    {
      "channel": 3,
      "note": 70,
      "start": 0.9725,
      "duration": 0.0833,
      "velocity": 101,
      "chip": "ym2612"
    },
    {
      "channel": 4,
      "note": 75,
      "start": 0.9732,
      "duration": 0.083,
      "velocity": 101,
      "chip": "ym2612"
    },
    {
      "channel": 1,
      "note": 87,
      "start": 1.0723,
      "duration": 0.084,
      "velocity": 101,
      "chip": "ym2612"
    },
    {
      "channel": 2,
      "note": 75,
      "start": 1.0729,
      "duration": 0.0837,
      "velocity": 101,
      "chip": "ym2612"
    },
    {
      "channel": 3,
      "note": 82,
      "start": 1.0735,
      "duration": 0.0834,
      "velocity": 101,
      "chip": "ym2612"
    },
    {
      "channel": 4,
      "note": 75,
      "start": 1.0743,
      "duration": 0.0831,
      "velocity": 101,
      "chip": "ym2612"
    },
    {
      "channel": 0,
      "note": 58,
      "start": 1.173,
      "duration": 0.0372,
      "velocity": 91,
      "chip": "ym2612"
    },
    {
      "channel": 1,
      "note": 87,
      "start": 1.1735,
      "duration": 0.0168,
      "velocity": 101,
      "chip": "ym2612"
    },
    {
      "channel": 2,
      "note": 75,
      "start": 1.1742,
      "duration": 0.0165,
      "velocity": 101,
      "chip": "ym2612"
    },
    {
      "channel": 3,
      "note": 82,
      "start": 1.1748,
      "duration": 0.0162,
      "velocity": 101,
      "chip": "ym2612"
    },
    {
      "channel": 4,
      "note": 75,
      "start": 1.1758,
      "duration": 0.0156,
      "velocity": 101,
      "chip": "ym2612"
    },
    {
      "channel": 1,
      "note": 87,
      "start": 1.194,
      "duration": 0.0164,
      "velocity": 101,
      "chip": "ym2612"
    },
    {
      "channel": 2,
      "note": 75,
      "start": 1.1945,
      "duration": 0.0166,
      "velocity": 101,
      "chip": "ym2612"
    },
    {
      "channel": 3,
      "note": 82,
      "start": 1.1955,
      "duration": 0.0159,
      "velocity": 101,
      "chip": "ym2612"
    },
    {
      "channel": 4,
      "note": 75,
      "start": 1.1962,
      "duration": 0.0156,
      "velocity": 101,
      "chip": "ym2612"
    },
    {
      "channel": 0,
      "note": 51,
      "start": 1.2188,
      "duration": 0.043,
      "velocity": 91,
      "chip": "ym2612"
    },
    {
      "channel": 1,
      "note": 80,
      "start": 1.2215,
      "duration": 0.2654,
      "velocity": 100,
      "chip": "ym2612"
    },
    {
      "channel": 2,
      "note": 87,
      "start": 1.224,
      "duration": 0.0383,
      "velocity": 95,
      "chip": "ym2612"
    },
    {
      "channel": 3,
      "note": 82,
      "start": 1.2273,
      "duration": 0.0353,
      "velocity": 95,
      "chip": "ym2612"
    },
    {
      "channel": 4,
      "note": 75,
      "start": 1.2307,
      "duration": 0.2775,
      "velocity": 100,
      "chip": "ym2612"
    },
    {
      "channel": 0,
      "note": 63,
      "start": 1.2646,
      "duration": 0.0193,
      "velocity": 91,
      "chip": "ym2612"
    },
    {
      "channel": 2,
      "note": 75,
      "start": 1.2672,
      "duration": 0.0078,
      "velocity": 95,
      "chip": "ym2612"
    },
    {
      "channel": 2,
      "note": 75,
      "start": 1.2851,
      "duration": 0.009,
      "velocity": 95,
      "chip": "ym2612"
    },
    {
      "channel": 0,
      "note": 51,
      "start": 1.3023,
      "duration": 0.0295,
      "velocity": 91,
      "chip": "ym2612"
    },
    {
      "channel": 2,
      "note": 75,
      "start": 1.3031,
      "duration": 0.0081,
      "velocity": 95,
      "chip": "ym2612"
    },
    {
      "channel": 2,
      "note": 75,
      "start": 1.3188,
      "duration": 0.0076,
      "velocity": 95,
      "chip": "ym2612"
    },
    {
      "channel": 0,
      "note": 63,
      "start": 1.3365,
      "duration": 0.0178,
      "velocity": 91,
      "chip": "ym2612"
    },
    {
      "channel": 2,
      "note": 75,
      "start": 1.3374,
      "duration": 0.0088,
      "velocity": 95,
      "chip": "ym2612"
    },
    {
      "channel": 2,
      "note": 75,
      "start": 1.355,
      "duration": 0.0083,
      "velocity": 95,
      "chip": "ym2612"
    },
    {
      "channel": 0,
      "note": 51,
      "start": 1.3714,
      "duration": 0.0291,
      "velocity": 91,
      "chip": "ym2612"
    },
    {
      "channel": 2,
      "note": 75,
      "start": 1.3722,
      "duration": 0.0079,
      "velocity": 95,
      "chip": "ym2612"
    },
    {
      "channel": 2,
      "note": 75,
      "start": 1.3881,
      "duration": 0.0077,
      "velocity": 95,
      "chip": "ym2612"
    },
    {
      "channel": 0,
      "note": 63,
      "start": 1.4143,
      "duration": 0.0178,
      "velocity": 91,
      "chip": "ym2612"
    },
    {
      "channel": 2,
      "note": 75,
      "start": 1.4151,
      "duration": 0.0082,
      "velocity": 95,
      "chip": "ym2612"
    },
    {
      "channel": 2,
      "note": 75,
      "start": 1.4328,
      "duration": 0.0084,
      "velocity": 95,
      "chip": "ym2612"
    },
    {
      "channel": 0,
      "note": 51,
      "start": 1.4505,
      "duration": 0.0313,
      "velocity": 91,
      "chip": "ym2612"
    },
    {
      "channel": 2,
      "note": 89,
      "start": 1.4531,
      "duration": 0.0292,
      "velocity": 95,
      "chip": "ym2612"
    },
    {
      "channel": 3,
      "note": 82,
      "start": 1.4537,
      "duration": 0.0289,
      "velocity": 95,
      "chip": "ym2612"
    },
    {
      "channel": 0,
      "note": 63,
      "start": 1.4861,
      "duration": 0.0178,
      "velocity": 91,
      "chip": "ym2612"
    },
    {
      "channel": 1,
      "note": 75,
      "start": 1.4868,
      "duration": 0.0137,
      "velocity": 100,
      "chip": "ym2612"
    },
    {
      "channel": 2,
      "note": 90,
      "start": 1.4874,
      "duration": 0.0339,
      "velocity": 95,
      "chip": "ym2612"
    },
    {
      "channel": 3,
      "note": 80,
      "start": 1.488,
      "duration": 0.0336,
      "velocity": 95,
      "chip": "ym2612"
    },
    {
      "channel": 1,
      "note": 77,
      "start": 1.5044,
      "duration": 0.0166,
      "velocity": 100,
      "chip": "ym2612"
    },
    {
      "channel": 4,
      "note": 75,
      "start": 1.5138,
      "duration": 0.0175,
      "velocity": 100,
      "chip": "ym2612"
    },
    {
      "channel": 0,
      "note": 51,
      "start": 1.5242,
      "duration": 0.0333,
      "velocity": 91,
      "chip": "ym2612"
    },
    {
      "channel": 1,
      "note": 78,
      "start": 1.5248,
      "duration": 0.0162,
      "velocity": 100,
      "chip": "ym2612"
    },
    {
      "channel": 2,
      "note": 75,
      "start": 1.5271,
      "duration": 0.009,
      "velocity": 95,
      "chip": "ym2612"
    },
    {
      "channel": 4,
      "note": 75,
      "start": 1.5341,
      "duration": 0.0134,
      "velocity": 100,
      "chip": "ym2612"
    },
    {
      "channel": 1,
      "note": 77,
      "start": 1.5437,
      "duration": 0.0141,
      "velocity": 100,
      "chip": "ym2612"
    },
    {
      "channel": 2,
      "note": 75,
      "start": 1.5442,
      "duration": 0.0085,
      "velocity": 95,
      "chip": "ym2612"
    },
    {
      "channel": 4,
      "note": 77,
      "start": 1.5505,
      "duration": 0.0224,
      "velocity": 100,
      "chip": "ym2612"
    },
    {
      "channel": 0,
      "note": 63,
      "start": 1.568,
      "duration": 0.0199,
      "velocity": 91,
      "chip": "ym2612"
    },
    {
      "channel": 1,
      "note": 75,
      "start": 1.5685,
      "duration": 0.0155,
      "velocity": 100,
      "chip": "ym2612"
    },
    {
      "channel": 2,
      "note": 75,
      "start": 1.569,
      "duration": 0.0092,
      "velocity": 95,
      "chip": "ym2612"
    },
    {
      "channel": 4,
      "note": 78,
      "start": 1.5758,
      "duration": 0.0171,
      "velocity": 100,
      "chip": "ym2612"
    },
    {
      "channel": 1,
      "note": 73,
      "start": 1.5884,
      "duration": 0.0158,
      "velocity": 100,
      "chip": "ym2612"
    },
    {
      "channel": 2,
      "note": 75,
      "start": 1.589,
      "duration": 0.0095,
      "velocity": 95,
      "chip": "ym2612"
    },
    {
      "channel": 4,
      "note": 77,
      "start": 1.5962,
      "duration": 0.0202,
      "velocity": 100,
      "chip": "ym2612"
    },
    {
      "channel": 0,
      "note": 51,
      "start": 1.6088,
      "duration": 0.0358,
      "velocity": 91,
      "chip": "ym2612"
    },
    {
      "channel": 1,
      "note": 75,
      "start": 1.6094,
      "duration": 0.0176,
      "velocity": 100,
      "chip": "ym2612"
    },
    {
      "channel": 2,
      "note": 89,
      "start": 1.612,
      "duration": 0.0332,
      "velocity": 95,
      "chip": "ym2612"
    },
    {
      "channel": 3,
      "note": 82,
      "start": 1.6126,
      "duration": 0.0329,
      "velocity": 95,
      "chip": "ym2612"
    },
    {
      "channel": 4,
      "note": 75,
      "start": 1.6195,
      "duration": 0.0146,
      "velocity": 100,
      "chip": "ym2612"
    },
    {
      "channel": 1,
      "note": 73,
      "start": 1.6305,
      "duration": 0.0144,
      "velocity": 100,
      "chip": "ym2612"
    },
    {
      "channel": 4,
      "note": 73,
      "start": 1.6372,
      "duration": 0.0177,
      "velocity": 100,
      "chip": "ym2612"
    },
    {
      "channel": 0,
      "note": 63,
      "start": 1.6484,
      "duration": 0.019,
      "velocity": 91,
      "chip": "ym2612"
    },
    {
      "channel": 1,
      "note": 70,
      "start": 1.649,
      "duration": 0.0158,
      "velocity": 100,
      "chip": "ym2612"
    },
    {
      "channel": 2,
      "note": 75,
      "start": 1.6513,
      "duration": 0.0086,
      "velocity": 95,
      "chip": "ym2612"
    },
    {
      "channel": 4,
      "note": 75,
      "start": 1.6578,
      "duration": 0.0141,
      "velocity": 100,
      "chip": "ym2612"
    },
    {
      "channel": 1,
      "note": 68,
      "start": 1.6679,
      "duration": 0.0137,
      "velocity": 100,
      "chip": "ym2612"
    },
    {
      "channel": 2,
      "note": 75,
      "start": 1.6684,
      "duration": 0.0083,
      "velocity": 95,
      "chip": "ym2612"
    },
    {
      "channel": 4,
      "note": 73,
      "start": 1.6746,
      "duration": 0.0158,
      "velocity": 100,
      "chip": "ym2612"
    },
    {
      "channel": 0,
      "note": 51,
      "start": 1.6858,
      "duration": 0.0303,
      "velocity": 91,
      "chip": "ym2612"
    },
    {
      "channel": 1,
      "note": 70,
      "start": 1.6863,
      "duration": 0.0138,
      "velocity": 100,
      "chip": "ym2612"
    },
    {
      "channel": 2,
      "note": 75,
      "start": 1.6868,
      "duration": 0.0084,
      "velocity": 95,
      "chip": "ym2612"
    },
    {
      "channel": 4,
      "note": 70,
      "start": 1.6932,
      "duration": 0.0132,
      "velocity": 100,
      "chip": "ym2612"
    },
    {
      "channel": 1,
      "note": 73,
      "start": 1.7028,
      "duration": 0.0136,
      "velocity": 100,
      "chip": "ym2612"
    },
    {
      "channel": 2,
      "note": 75,
      "start": 1.7033,
      "duration": 0.008,
      "velocity": 95,
      "chip": "ym2612"
    },
    {
      "channel": 4,
      "note": 68,
      "start": 1.7093,
      "duration": 0.0264,
      "velocity": 100,
      "chip": "ym2612"
    },
    {
      "channel": 0,
      "note": 63,
      "start": 1.7288,
      "duration": 0.0193,
      "velocity": 91,
      "chip": "ym2612"
    },
    {
      "channel": 1,
      "note": 75,
      "start": 1.7293,
      "duration": 0.0159,
      "velocity": 100,
      "chip": "ym2612"
    },
    {
      "channel": 2,
      "note": 90,
      "start": 1.7317,
      "duration": 0.0306,
      "velocity": 95,
      "chip": "ym2612"
    },
    {
      "channel": 3,
      "note": 80,
      "start": 1.7323,
      "duration": 0.0303,
      "velocity": 95,
      "chip": "ym2612"
    },
    {
      "channel": 4,
      "note": 70,
      "start": 1.7385,
      "duration": 0.0139,
      "velocity": 100,
      "chip": "ym2612"
    },
    {
      "channel": 1,
      "note": 77,
      "start": 1.7486,
      "duration": 0.0134,
      "velocity": 100,
      "chip": "ym2612"
    },
    {
      "channel": 4,
      "note": 73,
      "start": 1.7553,
      "duration": 0.0176,
      "velocity": 100,
      "chip": "ym2612"
    },
    {
      "channel": 0,
      "note": 51,
      "start": 1.7664,
      "duration": 0.032,
      "velocity": 91,
      "chip": "ym2612"
    },
    {
      "channel": 1,
      "note": 75,
      "start": 1.767,
      "duration": 0.0156,
      "velocity": 100,
      "chip": "ym2612"
    },
    {
      "channel": 2,
      "note": 75,
      "start": 1.7693,
      "duration": 0.0084,
      "velocity": 95,
      "chip": "ym2612"
    },
    {
      "channel": 4,
      "note": 75,
      "start": 1.7757,
      "duration": 0.0134,
      "velocity": 100,
      "chip": "ym2612"
    },
    {
      "channel": 1,
      "note": 77,
      "start": 1.7854,
      "duration": 0.0133,
      "velocity": 100,
      "chip": "ym2612"
    },
    {
      "channel": 2,
      "note": 75,
      "start": 1.7859,
      "duration": 0.008,
      "velocity": 95,
      "chip": "ym2612"
    },
    {
      "channel": 4,
      "note": 77,
      "start": 1.7919,
      "duration": 0.017,
      "velocity": 100,
      "chip": "ym2612"
    },
    {
      "channel": 0,
      "note": 63,
      "start": 1.8021,
      "duration": 0.0193,
      "velocity": 91,
      "chip": "ym2612"
    },
    {
      "channel": 1,
      "note": 80,
      "start": 1.8027,
      "duration": 0.0159,
      "velocity": 100,
      "chip": "ym2612"
    },
    {
      "channel": 2,
      "note": 92,
      "start": 1.805,
      "duration": 0.0307,
      "velocity": 95,
      "chip": "ym2612"
    },
    {
      "channel": 3,
      "note": 82,
      "start": 1.8056,
      "duration": 0.0304,
      "velocity": 95,
      "chip": "ym2612"
    },
    {
      "channel": 4,
      "note": 75,
      "start": 1.8117,
      "duration": 0.0141,
      "velocity": 100,
      "chip": "ym2612"
    },
    {
      "channel": 1,
      "note": 82,
      "start": 1.8219,
      "duration": 0.0135,
      "velocity": 100,
      "chip": "ym2612"
    },
    {
      "channel": 4,
      "note": 77,
      "start": 1.8285,
      "duration": 0.0079,
      "velocity": 100,
      "chip": "ym2612"
    },
    {
      "channel": 0,
      "note": 51,
      "start": 1.8398,
      "duration": 0.0398,
      "velocity": 91,
      "chip": "ym2612"
    },
    {
      "channel": 1,
      "note": 80,
      "start": 1.8405,
      "duration": 0.3062,
      "velocity": 100,
      "chip": "ym2612"
    },
    {
      "channel": 2,
      "note": 87,
      "start": 1.843,
      "duration": 0.0371,
      "velocity": 95,
      "chip": "ym2612"
    },
    {
      "channel": 3,
      "note": 83,
      "start": 1.8463,
      "duration": 0.0341,
      "velocity": 95,
      "chip": "ym2612"
    },
    {
      "channel": 4,
      "note": 80,
      "start": 1.8502,
      "duration": 0.2973,
      "velocity": 100,
      "chip": "ym2612"
    },
    {
      "channel": 0,
      "note": 63,
      "start": 1.8826,
      "duration": 0.0193,
      "velocity": 91,
      "chip": "ym2612"
    },
    {
      "channel": 2,
      "note": 75,
      "start": 1.8852,
      "duration": 0.008,
      "velocity": 95,
      "chip": "ym2612"
    },
    {
      "channel": 2,
      "note": 75,
      "start": 1.9032,
      "duration": 0.009,
      "velocity": 95,
      "chip": "ym2612"
    },
    {
      "channel": 0,
      "note": 51,
      "start": 1.9203,
      "duration": 0.0305,
      "velocity": 91,
      "chip": "ym2612"
    },
    {
      "channel": 2,
      "note": 75,
      "start": 1.9211,
      "duration": 0.0084,
      "velocity": 95,
      "chip": "ym2612"
    },
    {
      "channel": 2,
      "note": 75,
      "start": 1.9376,
      "duration": 0.0076,
      "velocity": 95,
      "chip": "ym2612"
    },
    {
      "channel": 0,
      "note": 63,
      "start": 1.9563,
      "duration": 0.0188,
      "velocity": 91,
      "chip": "ym2612"
    },
    {
      "channel": 2,
      "note": 75,
      "start": 1.9572,
      "duration": 0.0093,
      "velocity": 95,
      "chip": "ym2612"
    },
    {
      "channel": 2,
      "note": 75,
      "start": 1.9758,
      "duration": 0.0097,
      "velocity": 95,
      "chip": "ym2612"
    },
    {
      "channel": 0,
      "note": 51,
      "start": 1.9959,
      "duration": 0.0334,
      "velocity": 91,
      "chip": "ym2612"
    },
    {
      "channel": 2,
      "note": 75,
      "start": 1.9967,
      "duration": 0.009,
      "velocity": 95,
      "chip": "ym2612"
    },
    {
      "channel": 2,
      "note": 75,
      "start": 2.0151,
      "duration": 0.009,
      "velocity": 95,
      "chip": "ym2612"
    },
    {
      "channel": 0,
      "note": 63,
      "start": 2.043,
      "duration": 0.0198,
      "velocity": 91,
      "chip": "ym2612"
    },
    {
      "channel": 2,
      "note": 75,
      "start": 2.0445,
      "duration": 0.0095,
      "velocity": 95,
      "chip": "ym2612"
    },
    {
      "channel": 2,
      "note": 75,
      "start": 2.0635,
      "duration": 0.008,
      "velocity": 95,
      "chip": "ym2612"
    },
    {
      "channel": 0,
      "note": 51,
      "start": 2.081,
      "duration": 0.0304,
      "velocity": 91,
      "chip": "ym2612"
    },
    {
      "channel": 2,
      "note": 89,
      "start": 2.0835,
      "duration": 0.0283,
      "velocity": 95,
      "chip": "ym2612"
    },
    {
      "channel": 3,
      "note": 82,
      "start": 2.0842,
      "duration": 0.028,
      "velocity": 95,
      "chip": "ym2612"
    },
    {
      "channel": 0,
      "note": 63,
      "start": 2.1152,
      "duration": 0.0177,
      "velocity": 91,
      "chip": "ym2612"
    },
    {
      "channel": 2,
      "note": 90,
      "start": 2.116,
      "duration": 0.0309,
      "velocity": 95,
      "chip": "ym2612"
    },
    {
      "channel": 3,
      "note": 80,
      "start": 2.1166,
      "duration": 0.0306,
      "velocity": 95,
      "chip": "ym2612"
    },
    {
      "channel": 0,
      "note": 51,
      "start": 2.1498,
      "duration": 0.0347,
      "velocity": 91,
      "chip": "ym2612"
    },
    {
      "channel": 1,
      "note": 87,
      "start": 2.1503,
      "duration": 0.0154,
      "velocity": 100,
      "chip": "ym2612"
    },
    {
      "channel": 2,
      "note": 75,
      "start": 2.1527,
      "duration": 0.0084,
      "velocity": 95,
      "chip": "ym2612"
    },
    {
      "channel": 1,
      "note": 85,
      "start": 2.1686,
      "duration": 0.0162,
      "velocity": 100,
      "chip": "ym2612"
    },
    {
      "channel": 2,
      "note": 75,
      "start": 2.1691,
      "duration": 0.0109,
      "velocity": 95,
      "chip": "ym2612"
    },
    {
      "channel": 4,
      "note": 73,
      "start": 2.178,
      "duration": 0.019,
      "velocity": 100,
      "chip": "ym2612"
    },
    {
      "channel": 0,
      "note": 63,
      "start": 2.1924,
      "duration": 0.0177,
      "velocity": 91,
      "chip": "ym2612"
    },
    {
      "channel": 1,
      "note": 80,
      "start": 2.1929,
      "duration": 0.0137,
      "velocity": 100,
      "chip": "ym2612"
    },
    {
      "channel": 2,
      "note": 75,
      "start": 2.1935,
      "duration": 0.0084,
      "velocity": 95,
      "chip": "ym2612"
    },
    {
      "channel": 4,
      "note": 87,
      "start": 2.1998,
      "duration": 0.0149,
      "velocity": 100,
      "chip": "ym2612"
    },
    {
      "channel": 1,
      "note": 82,
      "start": 2.2106,
      "duration": 0.0136,
      "velocity": 100,
      "chip": "ym2612"
    },
    {
      "channel": 2,
      "note": 75,
      "start": 2.2112,
      "duration": 0.0083,
      "velocity": 95,
      "chip": "ym2612"
    },
    {
      "channel": 4,
      "note": 85,
      "start": 2.2175,
      "duration": 0.0177,
      "velocity": 100,
      "chip": "ym2612"
    },
    {
      "channel": 0,
      "note": 51,
      "start": 2.2285,
      "duration": 0.0321,
      "velocity": 91,
      "chip": "ym2612"
    },
    {
      "channel": 1,
      "note": 80,
      "start": 2.229,
      "duration": 0.016,
      "velocity": 100,
      "chip": "ym2612"
    },
    {
      "channel": 2,
      "note": 89,
      "start": 2.2314,
      "duration": 0.0297,
      "velocity": 95,
      "chip": "ym2612"
    },
    {
      "channel": 3,
      "note": 82,
      "start": 2.232,
      "duration": 0.0294,
      "velocity": 95,
      "chip": "ym2612"
    },
    {
      "channel": 4,
      "note": 80,
      "start": 2.2381,
      "duration": 0.0129,
      "velocity": 100,
      "chip": "ym2612"
    },
    {
      "channel": 1,
      "note": 78,
      "start": 2.2477,
      "duration": 0.0131,
      "velocity": 100,
      "chip": "ym2612"
    },
    {
      "channel": 4,
      "note": 82,
      "start": 2.2539,
      "duration": 0.0169,
      "velocity": 100,
      "chip": "ym2612"
    },
    {
      "channel": 0,
      "note": 63,
      "start": 2.2642,
      "duration": 0.0193,
      "velocity": 91,
      "chip": "ym2612"
    },
    {
      "channel": 1,
      "note": 75,
      "start": 2.2648,
      "duration": 0.0157,
      "velocity": 100,
      "chip": "ym2612"
    },
    {
      "channel": 2,
      "note": 75,
      "start": 2.2671,
      "duration": 0.0086,
      "velocity": 95,
      "chip": "ym2612"
    },
    {
      "channel": 4,
      "note": 80,
      "start": 2.2737,
      "duration": 0.0144,
      "velocity": 100,
      "chip": "ym2612"
    },
    {
      "channel": 1,
      "note": 78,
      "start": 2.284,
      "duration": 0.0137,
      "velocity": 100,
      "chip": "ym2612"
    },
    {
      "channel": 2,
      "note": 75,
      "start": 2.2846,
      "duration": 0.0083,
      "velocity": 95,
      "chip": "ym2612"
    },
    {
      "channel": 4,
      "note": 78,
      "start": 2.2908,
      "duration": 0.0156,
      "velocity": 100,
      "chip": "ym2612"
    },
    {
      "channel": 0,
      "note": 51,
      "start": 2.3019,
      "duration": 0.0301,
      "velocity": 91,
      "chip": "ym2612"
    },
    {
      "channel": 1,
      "note": 77,
      "start": 2.3024,
      "duration": 0.0137,
      "velocity": 100,
      "chip": "ym2612"
    },
    {
      "channel": 2,
      "note": 75,
      "start": 2.303,
      "duration": 0.0084,
      "velocity": 95,
      "chip": "ym2612"
    },
    {
      "channel": 4,
      "note": 75,
      "start": 2.3093,
      "duration": 0.0132,
      "velocity": 100,
      "chip": "ym2612"
    },
    {
      "channel": 1,
      "note": 75,
      "start": 2.3188,
      "duration": 0.0135,
      "velocity": 100,
      "chip": "ym2612"
    },
    {
      "channel": 2,
      "note": 75,
      "start": 2.3193,
      "duration": 0.0081,
      "velocity": 95,
      "chip": "ym2612"
    },
    {
      "channel": 4,
      "note": 78,
      "start": 2.3254,
      "duration": 0.0264,
      "velocity": 100,
      "chip": "ym2612"
    },
    {
      "channel": 0,
      "note": 63,
      "start": 2.3446,
      "duration": 0.0197,
      "velocity": 91,
      "chip": "ym2612"
    },
    {
      "channel": 1,
      "note": 73,
      "start": 2.3451,
      "duration": 0.0162,
      "velocity": 100,
      "chip": "ym2612"
    },
    {
      "channel": 2,
      "note": 90,
      "start": 2.3475,
      "duration": 0.0316,
      "velocity": 95,
      "chip": "ym2612"
    },
    {
      "channel": 3,
      "note": 80,
      "start": 2.3482,
      "duration": 0.0312,
      "velocity": 95,
      "chip": "ym2612"
    },
    {
      "channel": 4,
      "note": 77,
      "start": 2.3546,
      "duration": 0.014,
      "velocity": 100,
      "chip": "ym2612"
    },
    {
      "channel": 1,
      "note": 75,
      "start": 2.3647,
      "duration": 0.014,
      "velocity": 100,
      "chip": "ym2612"
    },
    {
      "channel": 4,
      "note": 75,
      "start": 2.3716,
      "duration": 0.0186,
      "velocity": 100,
      "chip": "ym2612"
    },
    {
      "channel": 0,
      "note": 58,
      "start": 2.3833,
      "duration": 0.0179,
      "velocity": 91,
      "chip": "ym2612"
    },
    {
      "channel": 1,
      "note": 68,
      "start": 2.3839,
      "duration": 0.0176,
      "velocity": 100,
      "chip": "ym2612"
    },
    {
      "channel": 2,
      "note": 75,
      "start": 2.3866,
      "duration": 0.0092,
      "velocity": 95,
      "chip": "ym2612"
    },
    {
      "channel": 4,
      "note": 73,
      "start": 2.3934,
      "duration": 0.016,
      "velocity": 100,
      "chip": "ym2612"
    },
    {
      "channel": 0,
      "note": 56,
      "start": 2.4046,
      "duration": 0.0156,
      "velocity": 91,
      "chip": "ym2612"
    },
    {
      "channel": 1,
      "note": 70,
      "start": 2.4052,
      "duration": 0.0155,
      "velocity": 100,
      "chip": "ym2612"
    },
    {
      "channel": 2,
      "note": 75,
      "start": 2.4058,
      "duration": 0.009,
      "velocity": 95,
      "chip": "ym2612"
    },
    {
      "channel": 4,
      "note": 75,
      "start": 2.4125,
      "duration": 0.0189,
      "velocity": 100,
      "chip": "ym2612"
    },
    {
      "channel": 0,
      "note": 54,
      "start": 2.4239,
      "duration": 0.018,
      "velocity": 91,
      "chip": "ym2612"
    },
    {
      "channel": 1,
      "note": 73,
      "start": 2.4245,
      "duration": 0.0178,
      "velocity": 100,
      "chip": "ym2612"
    },
    {
      "channel": 2,
      "note": 92,
      "start": 2.4271,
      "duration": 0.0344,
      "velocity": 95,
      "chip": "ym2612"
    },
    {
      "channel": 3,
      "note": 82,
      "start": 2.4277,
      "duration": 0.0341,
      "velocity": 95,
      "chip": "ym2612"
    },
    {
      "channel": 4,
      "note": 68,
      "start": 2.4346,
      "duration": 0.0156,
      "velocity": 100,
      "chip": "ym2612"
    },
    {
      "channel": 0,
      "note": 51,
      "start": 2.4454,
      "duration": 0.0156,
      "velocity": 91,
      "chip": "ym2612"
    },
    {
      "channel": 1,
      "note": 75,
      "start": 2.4462,
      "duration": 0.015,
      "velocity": 100,
      "chip": "ym2612"
    },
    {
      "channel": 4,
      "note": 70,
      "start": 2.4534,
      "duration": 0.0204,
      "velocity": 100,
      "chip": "ym2612"
    },
    {
      "channel": 0,
      "note": 53,
      "start": 2.4656,
      "duration": 0.0344,
      "velocity": 91,
      "chip": "ym2612"
    },
    {
      "channel": 1,
      "note": 75,
      "start": 2.4661,
      "duration": 0.0001,
      "velocity": 100,
      "chip": "ym2612"
    },
    {
      "channel": 2,
      "note": 89,
      "start": 2.4687,
      "duration": 0.0319,
      "velocity": 95,
      "chip": "ym2612"
    },
    {
      "channel": 3,
      "note": 83,
      "start": 2.4696,
      "duration": 0.0313,
      "velocity": 95,
      "chip": "ym2612"
    },
    {
      "channel": 1,
      "note": 77,
      "start": 2.4728,
      "duration": 0.2898,
      "velocity": 100,
      "chip": "ym2612"
    },
    {
      "channel": 4,
      "note": 73,
      "start": 2.4767,
      "duration": 0.0129,
      "velocity": 100,
      "chip": "ym2612"
    },
    {
      "channel": 4,
      "note": 75,
      "start": 2.4925,
      "duration": 0.0001,
      "velocity": 100,
      "chip": "ym2612"
    },
    {
      "channel": 4,
      "note": 75,
      "start": 2.4956,
      "duration": 0.2942,
      "velocity": 100,
      "chip": "ym2612"
    },
    {
      "channel": 0,
      "note": 65,
      "start": 2.5084,
      "duration": 0.0192,
      "velocity": 91,
      "chip": "ym2612"
    },
    {
      "channel": 2,
      "note": 77,
      "start": 2.5111,
      "duration": 0.0086,
      "velocity": 95,
      "chip": "ym2612"
    },
    {
      "channel": 2,
      "note": 77,
      "start": 2.5284,
      "duration": 0.0085,
      "velocity": 95,
      "chip": "ym2612"
    },
    {
      "channel": 0,
      "note": 53,
      "start": 2.546,
      "duration": 0.031,
      "velocity": 91,
      "chip": "ym2612"
    },
    {
      "channel": 2,
      "note": 77,
      "start": 2.547,
      "duration": 0.0088,
      "velocity": 95,
      "chip": "ym2612"
    },
    {
      "channel": 2,
      "note": 77,
      "start": 2.5644,
      "duration": 0.0079,
      "velocity": 95,
      "chip": "ym2612"
    },
    {
      "channel": 0,
      "note": 65,
      "start": 2.58,
      "duration": 0.0178,
      "velocity": 91,
      "chip": "ym2612"
    },
    {
      "channel": 2,
      "note": 77,
      "start": 2.5808,
      "duration": 0.0083,
      "velocity": 95,
      "chip": "ym2612"
    },
    {
      "channel": 2,
      "note": 77,
      "start": 2.5985,
      "duration": 0.0084,
      "velocity": 95,
      "chip": "ym2612"
    },
    {
      "channel": 0,
      "note": 53,
      "start": 2.6162,
      "duration": 0.0301,
      "velocity": 91,
      "chip": "ym2612"
    },
    {
      "channel": 2,
      "note": 77,
      "start": 2.617,
      "duration": 0.0083,
      "velocity": 95,
      "chip": "ym2612"
    },
    {
      "channel": 2,
      "note": 77,
      "start": 2.6334,
      "duration": 0.0081,
      "velocity": 95,
      "chip": "ym2612"
    },
    {
      "channel": 0,
      "note": 65,
      "start": 2.6592,
      "duration": 0.0177,
      "velocity": 91,
      "chip": "ym2612"
    },
    {
      "channel": 2,
      "note": 77,
      "start": 2.66,
      "duration": 0.0082,
      "velocity": 95,
      "chip": "ym2612"
    },
    {
      "channel": 2,
      "note": 77,
      "start": 2.6777,
      "duration": 0.0082,
      "velocity": 95,
      "chip": "ym2612"
    },
    {
      "channel": 0,
      "note": 53,
      "start": 2.6953,
      "duration": 0.0315,
      "velocity": 91,
      "chip": "ym2612"
    },
    {
      "channel": 2,
      "note": 91,
      "start": 2.6979,
      "duration": 0.0294,
      "velocity": 95,
      "chip": "ym2612"
    },
    {
      "channel": 3,
      "note": 80,
      "start": 2.6986,
      "duration": 0.0291,
      "velocity": 95,
      "chip": "ym2612"
    },
    {
      "channel": 0,
      "note": 65,
      "start": 2.7312,
      "duration": 0.0178,
      "velocity": 91,
      "chip": "ym2612"
    },
    {
      "channel": 2,
      "note": 92,
      "start": 2.732,
      "duration": 0.0309,
      "velocity": 95,
      "chip": "ym2612"
    },
    {
      "channel": 3,
      "note": 82,
      "start": 2.7327,
      "duration": 0.0306,
      "velocity": 95,
      "chip": "ym2612"
    },
    {
      "channel": 0,
      "note": 53,
      "start": 2.766,
      "duration": 0.0351,
      "velocity": 91,
      "chip": "ym2612"
    },
    {
      "channel": 1,
      "note": 77,
      "start": 2.7666,
      "duration": 0.0551,
      "velocity": 100,
      "chip": "ym2612"
    },
    {
      "channel": 2,
      "note": 77,
      "start": 2.7691,
      "duration": 0.0089,
      "velocity": 95,
      "chip": "ym2612"
    },
    {
      "channel": 2,
      "note": 77,
      "start": 2.7862,
      "duration": 0.0096,
      "velocity": 95,
      "chip": "ym2612"
    },
    {
      "channel": 4,
      "note": 77,
      "start": 2.7935,
      "duration": 0.0553,
      "velocity": 100,
      "chip": "ym2612"
    },
    {
      "channel": 0,
      "note": 65,
      "start": 2.812,
      "duration": 0.0202,
      "velocity": 91,
      "chip": "ym2612"
    },
    {
      "channel": 2,
      "note": 77,
      "start": 2.8129,
      "duration": 0.0092,
      "velocity": 95,
      "chip": "ym2612"
    },
    {
      "channel": 1,
      "note": 79,
      "start": 2.825,
      "duration": 0.0488,
      "velocity": 100,
      "chip": "ym2612"
    },
    {
      "channel": 2,
      "note": 77,
      "start": 2.8331,
      "duration": 0.0092,
      "velocity": 95,
      "chip": "ym2612"
    },
    {
      "channel": 0,
      "note": 53,
      "start": 2.8513,
      "duration": 0.0325,
      "velocity": 91,
      "chip": "ym2612"
    },
    {
      "channel": 2,
      "note": 91,
      "start": 2.8542,
      "duration": 0.0302,
      "velocity": 95,
      "chip": "ym2612"
    },
    {
      "channel": 3,
      "note": 84,
      "start": 2.8548,
      "duration": 0.0298,
      "velocity": 95,
      "chip": "ym2612"
    },
    {
      "channel": 4,
      "note": 77,
      "start": 2.8555,
      "duration": 0.0443,
      "velocity": 100,
      "chip": "ym2612"
    },
    {
      "channel": 1,
      "note": 80,
      "start": 2.8766,
      "duration": 0.0445,
      "velocity": 100,
      "chip": "ym2612"
    },
    {
      "channel": 0,
      "note": 65,
      "start": 2.8884,
      "duration": 0.0193,
      "velocity": 91,
      "chip": "ym2612"
    },
    {
      "channel": 2,
      "note": 77,
      "start": 2.891,
      "duration": 0.0082,
      "velocity": 95,
      "chip": "ym2612"
    },
    {
      "channel": 4,
      "note": 79,
      "start": 2.9025,
      "duration": 0.042,
      "velocity": 100,
      "chip": "ym2612"
    },
    {
      "channel": 2,
      "note": 77,
      "start": 2.9085,
      "duration": 0.0079,
      "velocity": 95,
      "chip": "ym2612"
    },
    {
      "channel": 0,
      "note": 53,
      "start": 2.9246,
      "duration": 0.0295,
      "velocity": 91,
      "chip": "ym2612"
    },
    {
      "channel": 1,
      "note": 79,
      "start": 2.9251,
      "duration": 0.0292,
      "velocity": 100,
      "chip": "ym2612"
    },
    {
      "channel": 2,
      "note": 77,
      "start": 2.9256,
      "duration": 0.008,
      "velocity": 95,
      "chip": "ym2612"
    },
    {
      "channel": 2,
      "note": 77,
      "start": 2.9414,
      "duration": 0.008,
      "velocity": 95,
      "chip": "ym2612"
    },
    {
      "channel": 4,
      "note": 80,
      "start": 2.9473,
      "duration": 0.0434,
      "velocity": 100,
      "chip": "ym2612"
    },
    {
      "channel": 0,
      "note": 65,
      "start": 2.9675,
      "duration": 0.0194,
      "velocity": 91,
      "chip": "ym2612"
    },
    {
      "channel": 1,
      "note": 77,
      "start": 2.968,
      "duration": 0.0325,
      "velocity": 100,
      "chip": "ym2612"
    },
    {
      "channel": 2,
      "note": 92,
      "start": 2.9704,
      "duration": 0.0304,
      "velocity": 95,
      "chip": "ym2612"
    },
    {
      "channel": 3,
      "note": 82,
      "start": 2.971,
      "duration": 0.0301,
      "velocity": 95,
      "chip": "ym2612"
    },
    {
      "channel": 4,
      "note": 79,
      "start": 2.9937,
      "duration": 0.032,
      "velocity": 100,
      "chip": "ym2612"
    },
    {
      "channel": 0,
      "note": 53,
      "start": 3.0037,
      "duration": 0.0314,
      "velocity": 91,
      "chip": "ym2612"
    },
    {
      "channel": 1,
      "note": 70,
      "start": 3.0042,
      "duration": 0.0312,
      "velocity": 100,
      "chip": "ym2612"
    },
    {
      "channel": 2,
      "note": 77,
      "start": 3.0066,
      "duration": 0.008,
      "velocity": 95,
      "chip": "ym2612"
    },
    {
      "channel": 2,
      "note": 77,
      "start": 3.0224,
      "duration": 0.0081,
      "velocity": 95,
      "chip": "ym2612"
    },
    {
      "channel": 4,
      "note": 77,
      "start": 3.0284,
      "duration": 0.0344,
      "velocity": 100,
      "chip": "ym2612"
    },
    {
      "channel": 0,
      "note": 65,
      "start": 3.0394,
      "duration": 0.0193,
      "velocity": 91,
      "chip": "ym2612"
    },
    {
      "channel": 1,
      "note": 72,
      "start": 3.04,
      "duration": 0.0326,
      "velocity": 100,
      "chip": "ym2612"
    },
    {
      "channel": 2,
      "note": 94,
      "start": 3.0423,
      "duration": 0.0305,
      "velocity": 95,
      "chip": "ym2612"
    },
    {
      "channel": 3,
      "note": 84,
      "start": 3.0429,
      "duration": 0.0302,
      "velocity": 95,
      "chip": "ym2612"
    },
    {
      "channel": 4,
      "note": 70,
      "start": 3.0656,
      "duration": 0.0323,
      "velocity": 100,
      "chip": "ym2612"
    },
    {
      "channel": 0,
      "note": 53,
      "start": 3.0753,
      "duration": 0.0325,
      "velocity": 91,
      "chip": "ym2612"
    },
    {
      "channel": 1,
      "note": 84,
      "start": 3.0759,
      "duration": 0.0001,
      "velocity": 100,
      "chip": "ym2612"
    },
    {
      "channel": 2,
      "note": 89,
      "start": 3.0783,
      "duration": 0.0301,
      "velocity": 95,
      "chip": "ym2612"
    },
    {
      "channel": 3,
      "note": 85,
      "start": 3.0791,
      "duration": 0.0296,
      "velocity": 95,
      "chip": "ym2612"
    },
    {
      "channel": 1,
      "note": 84,
      "start": 3.0823,
      "duration": 0.1023,
      "velocity": 100,
      "chip": "ym2612"
    },
    {
      "channel": 4,
      "note": 72,
      "start": 3.1007,
      "duration": 0.0001,
      "velocity": 100,
      "chip": "ym2612"
    },
    {
      "channel": 4,
      "note": 82,
      "start": 3.1037,
      "duration": 0.109,
      "velocity": 100,
      "chip": "ym2612"
    },
    {
      "channel": 0,
      "note": 65,
      "start": 3.1181,
      "duration": 0.0194,
      "velocity": 91,
      "chip": "ym2612"
    },
    {
      "channel": 2,
      "note": 77,
      "start": 3.1207,
      "duration": 0.0083,
      "velocity": 95,
      "chip": "ym2612"
    },
    {
      "channel": 2,
      "note": 77,
      "start": 3.1382,
      "duration": 0.0077,
      "velocity": 95,
      "chip": "ym2612"
    },
    {
      "channel": 0,
      "note": 53,
      "start": 3.1544,
      "duration": 0.0299,
      "velocity": 91,
      "chip": "ym2612"
    },
    {
      "channel": 2,
      "note": 77,
      "start": 3.1552,
      "duration": 0.0082,
      "velocity": 95,
      "chip": "ym2612"
    },
    {
      "channel": 2,
      "note": 77,
      "start": 3.1712,
      "duration": 0.0081,
      "velocity": 95,
      "chip": "ym2612"
    },
    {
      "channel": 0,
      "note": 65,
      "start": 3.1875,
      "duration": 0.0202,
      "velocity": 91,
      "chip": "ym2612"
    },
    {
      "channel": 1,
      "note": 82,
      "start": 3.1881,
      "duration": 0.0362,
      "velocity": 100,
      "chip": "ym2612"
    },
    {
      "channel": 2,
      "note": 77,
      "start": 3.1886,
      "duration": 0.0093,
      "velocity": 95,
      "chip": "ym2612"
    },
    {
      "channel": 2,
      "note": 77,
      "start": 3.2084,
      "duration": 0.0102,
      "velocity": 95,
      "chip": "ym2612"
    },
    {
      "channel": 4,
      "note": 84,
      "start": 3.2161,
      "duration": 0.0352,
      "velocity": 100,
      "chip": "ym2612"
    },
    {
      "channel": 0,
      "note": 53,
      "start": 3.2286,
      "duration": 0.0329,
      "velocity": 91,
      "chip": "ym2612"
    },
    {
      "channel": 2,
      "note": 77,
      "start": 3.2299,
      "duration": 0.0088,
      "velocity": 95,
      "chip": "ym2612"
    },
    {
      "channel": 2,
      "note": 77,
      "start": 3.2477,
      "duration": 0.0088,
      "velocity": 95,
      "chip": "ym2612"
    },
    {
      "channel": 0,
      "note": 65,
      "start": 3.2747,
      "duration": 0.0178,
      "velocity": 91,
      "chip": "ym2612"
    },
    {
      "channel": 2,
      "note": 77,
      "start": 3.2755,
      "duration": 0.008,
      "velocity": 95,
      "chip": "ym2612"
    },
    {
      "channel": 2,
      "note": 77,
      "start": 3.2933,
      "duration": 0.0081,
      "velocity": 95,
      "chip": "ym2612"
    },
    {
      "channel": 0,
      "note": 53,
      "start": 3.3094,
      "duration": 0.0309,
      "velocity": 91,
      "chip": "ym2612"
    },
    {
      "channel": 2,
      "note": 91,
      "start": 3.312,
      "duration": 0.0288,
      "velocity": 95,
      "chip": "ym2612"
    },
    {
      "channel": 3,
      "note": 80,
      "start": 3.3126,
      "duration": 0.0285,
      "velocity": 95,
      "chip": "ym2612"
    },
    {
      "channel": 0,
      "note": 65,
      "start": 3.3434,
      "duration": 0.0178,
      "velocity": 91,
      "chip": "ym2612"
    },
    {
      "channel": 1,
      "note": 77,
      "start": 3.3439,
      "duration": 0.0062,
      "velocity": 100,
      "chip": "ym2612"
    },
    {
      "channel": 2,
      "note": 92,
      "start": 3.3444,
      "duration": 0.0307,
      "velocity": 95,
      "chip": "ym2612"
    },
    {
      "channel": 3,
      "note": 82,
      "start": 3.3451,
      "duration": 0.0305,
      "velocity": 95,
      "chip": "ym2612"
    },
    {
      "channel": 1,
      "note": 80,
      "start": 3.3529,
      "duration": 0.022,
      "velocity": 100,
      "chip": "ym2612"
    },
    {
      "channel": 4,
      "note": 82,
      "start": 3.3679,
      "duration": 0.0052,
      "velocity": 100,
      "chip": "ym2612"
    },
    {
      "channel": 4,
      "note": 77,
      "start": 3.3761,
      "duration": 0.0254,
      "velocity": 100,
      "chip": "ym2612"
    },
    {
      "channel": 0,
      "note": 53,
      "start": 3.3795,
      "duration": 0.0315,
      "velocity": 91,
      "chip": "ym2612"
    },
    {
      "channel": 1,
      "note": 79,
      "start": 3.38,
      "duration": 0.0313,
      "velocity": 100,
      "chip": "ym2612"
    },
    {
      "channel": 2,
      "note": 77,
      "start": 3.3824,
      "duration": 0.0082,
      "velocity": 95,
      "chip": "ym2612"
    },
    {
      "channel": 2,
      "note": 77,
      "start": 3.3983,
      "duration": 0.0081,
      "velocity": 95,
      "chip": "ym2612"
    },
    {
      "channel": 4,
      "note": 80,
      "start": 3.4044,
      "duration": 0.0402,
      "velocity": 100,
      "chip": "ym2612"
    },
    {
      "channel": 0,
      "note": 65,
      "start": 3.4225,
      "duration": 0.0178,
      "velocity": 91,
      "chip": "ym2612"
    },
    {
      "channel": 1,
      "note": 77,
      "start": 3.423,
      "duration": 0.0313,
      "velocity": 100,
      "chip": "ym2612"
    },
    {
      "channel": 2,
      "note": 77,
      "start": 3.4236,
      "duration": 0.0078,
      "velocity": 95,
      "chip": "ym2612"
    },
    {
      "channel": 2,
      "note": 77,
      "start": 3.441,
      "duration": 0.0085,
      "velocity": 95,
      "chip": "ym2612"
    },
    {
      "channel": 4,
      "note": 79,
      "start": 3.4473,
      "duration": 0.0332,
      "velocity": 100,
      "chip": "ym2612"
    },
    {
      "channel": 0,
      "note": 53,
      "start": 3.4587,
      "duration": 0.0312,
      "velocity": 91,
      "chip": "ym2612"
    },
    {
      "channel": 1,
      "note": 75,
      "start": 3.4592,
      "duration": 0.0309,
      "velocity": 100,
      "chip": "ym2612"
    },
    {
      "channel": 2,
      "note": 91,
      "start": 3.4615,
      "duration": 0.0289,
      "velocity": 95,
      "chip": "ym2612"
    },
    {
      "channel": 3,
      "note": 84,
      "start": 3.4622,
      "duration": 0.0285,
      "velocity": 95,
      "chip": "ym2612"
    },
    {
      "channel": 4,
      "note": 77,
      "start": 3.4834,
      "duration": 0.0348,
      "velocity": 100,
      "chip": "ym2612"
    },
    {
      "channel": 0,
      "note": 65,
      "start": 3.4945,
      "duration": 0.0194,
      "velocity": 91,
      "chip": "ym2612"
    },
    {
      "channel": 1,
      "note": 77,
      "start": 3.495,
      "duration": 0.0327,
      "velocity": 100,
      "chip": "ym2612"
    },
    {
      "channel": 2,
      "note": 77,
      "start": 3.4973,
      "duration": 0.0083,
      "velocity": 95,
      "chip": "ym2612"
    },
    {
      "channel": 2,
      "note": 77,
      "start": 3.5146,
      "duration": 0.0084,
      "velocity": 95,
      "chip": "ym2612"
    },
    {
      "channel": 4,
      "note": 75,
      "start": 3.521,
      "duration": 0.0312,
      "velocity": 100,
      "chip": "ym2612"
    },
    {
      "channel": 0,
      "note": 53,
      "start": 3.5322,
      "duration": 0.0295,
      "velocity": 91,
      "chip": "ym2612"
    },
    {
      "channel": 1,
      "note": 72,
      "start": 3.5328,
      "duration": 0.0292,
      "velocity": 100,
      "chip": "ym2612"
    },
    {
      "channel": 2,
      "note": 77,
      "start": 3.5333,
      "duration": 0.008,
      "velocity": 95,
      "chip": "ym2612"
    },
    {
      "channel": 2,
      "note": 77,
      "start": 3.549,
      "duration": 0.0079,
      "velocity": 95,
      "chip": "ym2612"
    },
    {
      "channel": 4,
      "note": 77,
      "start": 3.5549,
      "duration": 0.0446,
      "velocity": 100,
      "chip": "ym2612"
    },
    {
      "channel": 0,
      "note": 65,
      "start": 3.5749,
      "duration": 0.0203,
      "velocity": 91,
      "chip": "ym2612"
    },
    {
      "channel": 1,
      "note": 70,
      "start": 3.5754,
      "duration": 0.0363,
      "velocity": 100,
      "chip": "ym2612"
    },
    {
      "channel": 2,
      "note": 92,
      "start": 3.5779,
      "duration": 0.0341,
      "velocity": 95,
      "chip": "ym2612"
    },
    {
      "channel": 3,
      "note": 82,
      "start": 3.5788,
      "duration": 0.0335,
      "velocity": 95,
      "chip": "ym2612"
    },
    {
      "channel": 4,
      "note": 72,
      "start": 3.603,
      "duration": 0.0405,
      "velocity": 100,
      "chip": "ym2612"
    },
    {
      "channel": 0,
      "note": 53,
      "start": 3.615,
      "duration": 0.0405,
      "velocity": 91,
      "chip": "ym2612"
    },
    {
      "channel": 1,
      "note": 68,
      "start": 3.6156,
      "duration": 0.0401,
      "velocity": 100,
      "chip": "ym2612"
    },
    {
      "channel": 2,
      "note": 77,
      "start": 3.6183,
      "duration": 0.0103,
      "velocity": 95,
      "chip": "ym2612"
    },
    {
      "channel": 2,
      "note": 77,
      "start": 3.6387,
      "duration": 0.0109,
      "velocity": 95,
      "chip": "ym2612"
    },
    {
      "channel": 4,
      "note": 70,
      "start": 3.6472,
      "duration": 0.0376,
      "velocity": 100,
      "chip": "ym2612"
    },
    {
      "channel": 0,
      "note": 65,
      "start": 3.6595,
      "duration": 0.0213,
      "velocity": 91,
      "chip": "ym2612"
    },
    {
      "channel": 1,
      "note": 60,
      "start": 3.66,
      "duration": 0.0343,
      "velocity": 100,
      "chip": "ym2612"
    },
    {
      "channel": 2,
      "note": 94,
      "start": 3.6624,
      "duration": 0.0323,
      "velocity": 95,
      "chip": "ym2612"
    },
    {
      "channel": 3,
      "note": 84,
      "start": 3.663,
      "duration": 0.032,
      "velocity": 95,
      "chip": "ym2612"
    },
    {
      "channel": 4,
      "note": 68,
      "start": 3.6876,
      "duration": 0.0078,
      "velocity": 100,
      "chip": "ym2612"
    },
    {
      "channel": 0,
      "note": 51,
      "start": 3.6975,
      "duration": 0.037,
      "velocity": 91,
      "chip": "ym2612"
    },
    {
      "channel": 1,
      "note": 80,
      "start": 3.6981,
      "duration": 0.2785,
      "velocity": 100,
      "chip": "ym2612"
    },
    {
      "channel": 2,
      "note": 87,
      "start": 3.7007,
      "duration": 0.0343,
      "velocity": 95,
      "chip": "ym2612"
    },
    {
      "channel": 3,
      "note": 85,
      "start": 3.7016,
      "duration": 0.0337,
      "velocity": 95,
      "chip": "ym2612"
    },
    {
      "channel": 4,
      "note": 60,
      "start": 3.7051,
      "duration": 0.2794,
      "velocity": 100,
      "chip": "ym2612"
    },
    {
      "channel": 0,
      "note": 63,
      "start": 3.7405,
      "duration": 0.0193,
      "velocity": 91,
      "chip": "ym2612"
    },
    {
      "channel": 2,
      "note": 75,
      "start": 3.743,
      "duration": 0.0079,
      "velocity": 95,
      "chip": "ym2612"
    },
    {
      "channel": 2,
      "note": 75,
      "start": 3.761,
      "duration": 0.009,
      "velocity": 95,
      "chip": "ym2612"
    },
    {
      "channel": 0,
      "note": 51,
      "start": 3.7781,
      "duration": 0.0297,
      "velocity": 91,
      "chip": "ym2612"
    },
    {
      "channel": 2,
      "note": 75,
      "start": 3.7788,
      "duration": 0.008,
      "velocity": 95,
      "chip": "ym2612"
    },
    {
      "channel": 2,
      "note": 75,
      "start": 3.7946,
      "duration": 0.0076,
      "velocity": 95,
      "chip": "ym2612"
    },
    {
      "channel": 0,
      "note": 63,
      "start": 3.8122,
      "duration": 0.0178,
      "velocity": 91,
      "chip": "ym2612"
    },
    {
      "channel": 2,
      "note": 75,
      "start": 3.8131,
      "duration": 0.0087,
      "velocity": 95,
      "chip": "ym2612"
    },
    {
      "channel": 2,
      "note": 75,
      "start": 3.8307,
      "duration": 0.0081,
      "velocity": 95,
      "chip": "ym2612"
    },
    {
      "channel": 0,
      "note": 51,
      "start": 3.8468,
      "duration": 0.029,
      "velocity": 91,
      "chip": "ym2612"
    },
    {
      "channel": 2,
      "note": 75,
      "start": 3.8476,
      "duration": 0.0079,
      "velocity": 95,
      "chip": "ym2612"
    },
    {
      "channel": 2,
      "note": 75,
      "start": 3.8634,
      "duration": 0.0077,
      "velocity": 95,
      "chip": "ym2612"
    },
    {
      "channel": 0,
      "note": 63,
      "start": 3.8897,
      "duration": 0.0178,
      "velocity": 91,
      "chip": "ym2612"
    },
    {
      "channel": 2,
      "note": 75,
      "start": 3.8905,
      "duration": 0.0082,
      "velocity": 95,
      "chip": "ym2612"
    },
    {
      "channel": 2,
      "note": 75,
      "start": 3.9082,
      "duration": 0.0083,
      "velocity": 95,
      "chip": "ym2612"
    },
    {
      "channel": 0,
      "note": 51,
      "start": 3.9259,
      "duration": 0.0317,
      "velocity": 91,
      "chip": "ym2612"
    },
    {
      "channel": 2,
      "note": 89,
      "start": 3.9285,
      "duration": 0.0296,
      "velocity": 95,
      "chip": "ym2612"
    },
    {
      "channel": 3,
      "note": 82,
      "start": 3.9291,
      "duration": 0.0293,
      "velocity": 95,
      "chip": "ym2612"
    },
    {
      "channel": 0,
      "note": 63,
      "start": 3.9619,
      "duration": 0.0183,
      "velocity": 91,
      "chip": "ym2612"
    },
    {
      "channel": 2,
      "note": 90,
      "start": 3.9632,
      "duration": 0.035,
      "velocity": 95,
      "chip": "ym2612"
    },
    {
      "channel": 3,
      "note": 80,
      "start": 3.9638,
      "duration": 0.0346,
      "velocity": 95,
      "chip": "ym2612"
    },
    {
      "channel": 1,
      "note": 77,
      "start": 3.9807,
      "duration": 0.0172,
      "velocity": 100,
      "chip": "ym2612"
    },
    {
      "channel": 4,
      "note": 75,
      "start": 3.9907,
      "duration": 0.0175,
      "velocity": 100,
      "chip": "ym2612"
    },
    {
      "channel": 0,
      "note": 51,
      "start": 4.0012,
      "duration": 0.0367,
      "velocity": 91,
      "chip": "ym2612"
    },
    {
      "channel": 1,
      "note": 78,
      "start": 4.0017,
      "duration": 0.0177,
      "velocity": 100,
      "chip": "ym2612"
    },
    {
      "channel": 2,
      "note": 75,
      "start": 4.0045,
      "duration": 0.0094,
      "velocity": 95,
      "chip": "ym2612"
    },
    {
      "channel": 4,
      "note": 75,
      "start": 4.0115,
      "duration": 0.0153,
      "velocity": 100,
      "chip": "ym2612"
    },
    {
      "channel": 1,
      "note": 77,
      "start": 4.0227,
      "duration": 0.0156,
      "velocity": 100,
      "chip": "ym2612"
    },
    {
      "channel": 2,
      "note": 75,
      "start": 4.0233,
      "duration": 0.0093,
      "velocity": 95,
      "chip": "ym2612"
    },
    {
      "channel": 4,
      "note": 77,
      "start": 4.0302,
      "duration": 0.0237,
      "velocity": 100,
      "chip": "ym2612"
    },
    {
      "channel": 0,
      "note": 63,
      "start": 4.0487,
      "duration": 0.0198,
      "velocity": 91,
      "chip": "ym2612"
    },
    {
      "channel": 1,
      "note": 75,
      "start": 4.0492,
      "duration": 0.0155,
      "velocity": 100,
      "chip": "ym2612"
    },
    {
      "channel": 2,
      "note": 75,
      "start": 4.05,
      "duration": 0.0093,
      "velocity": 95,
      "chip": "ym2612"
    },
    {
      "channel": 4,
      "note": 78,
      "start": 4.0572,
      "duration": 0.0165,
      "velocity": 100,
      "chip": "ym2612"
    },
    {
      "channel": 1,
      "note": 73,
      "start": 4.0693,
      "duration": 0.0148,
      "velocity": 100,
      "chip": "ym2612"
    },
    {
      "channel": 2,
      "note": 75,
      "start": 4.0698,
      "duration": 0.0092,
      "velocity": 95,
      "chip": "ym2612"
    },
    {
      "channel": 4,
      "note": 77,
      "start": 4.0767,
      "duration": 0.0185,
      "velocity": 100,
      "chip": "ym2612"
    },
    {
      "channel": 0,
      "note": 51,
      "start": 4.0884,
      "duration": 0.0321,
      "velocity": 91,
      "chip": "ym2612"
    },
    {
      "channel": 1,
      "note": 75,
      "start": 4.089,
      "duration": 0.016,
      "velocity": 100,
      "chip": "ym2612"
    },
    {
      "channel": 2,
      "note": 89,
      "start": 4.0913,
      "duration": 0.0298,
      "velocity": 95,
      "chip": "ym2612"
    },
    {
      "channel": 3,
      "note": 82,
      "start": 4.0919,
      "duration": 0.0295,
      "velocity": 95,
      "chip": "ym2612"
    },
    {
      "channel": 4,
      "note": 75,
      "start": 4.098,
      "duration": 0.013,
      "velocity": 100,
      "chip": "ym2612"
    },
    {
      "channel": 1,
      "note": 73,
      "start": 4.1077,
      "duration": 0.0131,
      "velocity": 100,
      "chip": "ym2612"
    },
    {
      "channel": 4,
      "note": 73,
      "start": 4.1139,
      "duration": 0.0167,
      "velocity": 100,
      "chip": "ym2612"
    },
    {
      "channel": 0,
      "note": 63,
      "start": 4.124,
      "duration": 0.0193,
      "velocity": 91,
      "chip": "ym2612"
    },
    {
      "channel": 1,
      "note": 70,
      "start": 4.1246,
      "duration": 0.0158,
      "velocity": 100,
      "chip": "ym2612"
    },
    {
      "channel": 2,
      "note": 75,
      "start": 4.1269,
      "duration": 0.0086,
      "velocity": 95,
      "chip": "ym2612"
    },
    {
      "channel": 4,
      "note": 75,
      "start": 4.1335,
      "duration": 0.0143,
      "velocity": 100,
      "chip": "ym2612"
    },
    {
      "channel": 1,
      "note": 68,
      "start": 4.1438,
      "duration": 0.0137,
      "velocity": 100,
      "chip": "ym2612"
    },
    {
      "channel": 2,
      "note": 75,
      "start": 4.1444,
      "duration": 0.0084,
      "velocity": 95,
      "chip": "ym2612"
    },
    {
      "channel": 4,
      "note": 73,
      "start": 4.1506,
      "duration": 0.0157,
      "velocity": 100,
      "chip": "ym2612"
    },
    {
      "channel": 0,
      "note": 51,
      "start": 4.1617,
      "duration": 0.0302,
      "velocity": 91,
      "chip": "ym2612"
    },
    {
      "channel": 1,
      "note": 70,
      "start": 4.1622,
      "duration": 0.0137,
      "velocity": 100,
      "chip": "ym2612"
    },
    {
      "channel": 2,
      "note": 75,
      "start": 4.1628,
      "duration": 0.0084,
      "velocity": 95,
      "chip": "ym2612"
    },
    {
      "channel": 4,
      "note": 70,
      "start": 4.1691,
      "duration": 0.0134,
      "velocity": 100,
      "chip": "ym2612"
    },
    {
      "channel": 1,
      "note": 73,
      "start": 4.1787,
      "duration": 0.0135,
      "velocity": 100,
      "chip": "ym2612"
    },
    {
      "channel": 2,
      "note": 75,
      "start": 4.1792,
      "duration": 0.0081,
      "velocity": 95,
      "chip": "ym2612"
    },
    {
      "channel": 4,
      "note": 68,
      "start": 4.1853,
      "duration": 0.0262,
      "velocity": 100,
      "chip": "ym2612"
    },
    {
      "channel": 0,
      "note": 63,
      "start": 4.2046,
      "duration": 0.0193,
      "velocity": 91,
      "chip": "ym2612"
    },
    {
      "channel": 1,
      "note": 75,
      "start": 4.2052,
      "duration": 0.0159,
      "velocity": 100,
      "chip": "ym2612"
    },
    {
      "channel": 2,
      "note": 90,
      "start": 4.2075,
      "duration": 0.0306,
      "velocity": 95,
      "chip": "ym2612"
    },
    {
      "channel": 3,
      "note": 80,
      "start": 4.2081,
      "duration": 0.0303,
      "velocity": 95,
      "chip": "ym2612"
    },
    {
      "channel": 4,
      "note": 70,
      "start": 4.2143,
      "duration": 0.014,
      "velocity": 100,
      "chip": "ym2612"
    },
    {
      "channel": 1,
      "note": 77,
      "start": 4.2244,
      "duration": 0.0134,
      "velocity": 100,
      "chip": "ym2612"
    },
    {
      "channel": 4,
      "note": 73,
      "start": 4.2312,
      "duration": 0.016,
      "velocity": 100,
      "chip": "ym2612"
    },
    {
      "channel": 0,
      "note": 51,
      "start": 4.2405,
      "duration": 0.0323,
      "velocity": 91,
      "chip": "ym2612"
    },
    {
      "channel": 1,
      "note": 75,
      "start": 4.2411,
      "duration": 0.0156,
      "velocity": 100,
      "chip": "ym2612"
    },
    {
      "channel": 2,
      "note": 75,
      "start": 4.2434,
      "duration": 0.0086,
      "velocity": 95,
      "chip": "ym2612"
    },
    {
      "channel": 4,
      "note": 75,
      "start": 4.2499,
      "duration": 0.0134,
      "velocity": 100,
      "chip": "ym2612"
    },
    {
      "channel": 1,
      "note": 77,
      "start": 4.2596,
      "duration": 0.0135,
      "velocity": 100,
      "chip": "ym2612"
    },
    {
      "channel": 2,
      "note": 75,
      "start": 4.2602,
      "duration": 0.008,
      "velocity": 95,
      "chip": "ym2612"
    },
    {
      "channel": 4,
      "note": 77,
      "start": 4.2661,
      "duration": 0.0171,
      "velocity": 100,
      "chip": "ym2612"
    },
    {
      "channel": 0,
      "note": 63,
      "start": 4.2763,
      "duration": 0.0193,
      "velocity": 91,
      "chip": "ym2612"
    },
    {
      "channel": 1,
      "note": 80,
      "start": 4.2769,
      "duration": 0.016,
      "velocity": 100,
      "chip": "ym2612"
    },
    {
      "channel": 2,
      "note": 92,
      "start": 4.2792,
      "duration": 0.0307,
      "velocity": 95,
      "chip": "ym2612"
    },
    {
      "channel": 3,
      "note": 82,
      "start": 4.2799,
      "duration": 0.0303,
      "velocity": 95,
      "chip": "ym2612"
    },
    {
      "channel": 4,
      "note": 75,
      "start": 4.286,
      "duration": 0.0138,
      "velocity": 100,
      "chip": "ym2612"
    },
    {
      "channel": 1,
      "note": 82,
      "start": 4.2961,
      "duration": 0.0135,
      "velocity": 100,
      "chip": "ym2612"
    },
    {
      "channel": 4,
      "note": 77,
      "start": 4.3026,
      "duration": 0.008,
      "velocity": 100,
      "chip": "ym2612"
    },
    {
      "channel": 0,
      "note": 51,
      "start": 4.314,
      "duration": 0.0363,
      "velocity": 91,
      "chip": "ym2612"
    },
    {
      "channel": 1,
      "note": 80,
      "start": 4.3146,
      "duration": 0.3212,
      "velocity": 100,
      "chip": "ym2612"
    },
    {
      "channel": 2,
      "note": 87,
      "start": 4.3171,
      "duration": 0.0338,
      "velocity": 95,
      "chip": "ym2612"
    },
    {
      "channel": 3,
      "note": 84,
      "start": 4.3178,
      "duration": 0.0334,
      "velocity": 95,
      "chip": "ym2612"
    },
    {
      "channel": 4,
      "note": 80,
      "start": 4.3218,
      "duration": 0.2956,
      "velocity": 100,
      "chip": "ym2612"
    },
    {
      "channel": 0,
      "note": 63,
      "start": 4.357,
      "duration": 0.0198,
      "velocity": 91,
      "chip": "ym2612"
    },
    {
      "channel": 2,
      "note": 75,
      "start": 4.3596,
      "duration": 0.0083,
      "velocity": 95,
      "chip": "ym2612"
    },
    {
      "channel": 2,
      "note": 75,
      "start": 4.378,
      "duration": 0.0092,
      "velocity": 95,
      "chip": "ym2612"
    },
    {
      "channel": 0,
      "note": 51,
      "start": 4.3957,
      "duration": 0.0326,
      "velocity": 91,
      "chip": "ym2612"
    },
    {
      "channel": 2,
      "note": 75,
      "start": 4.3965,
      "duration": 0.0086,
      "velocity": 95,
      "chip": "ym2612"
    },
    {
      "channel": 2,
      "note": 75,
      "start": 4.4132,
      "duration": 0.0088,
      "velocity": 95,
      "chip": "ym2612"
    },
    {
      "channel": 0,
      "note": 63,
      "start": 4.4333,
      "duration": 0.0203,
      "velocity": 91,
      "chip": "ym2612"
    },
    {
      "channel": 2,
      "note": 75,
      "start": 4.4343,
      "duration": 0.0097,
      "velocity": 95,
      "chip": "ym2612"
    },
    {
      "channel": 2,
      "note": 75,
      "start": 4.4543,
      "duration": 0.0092,
      "velocity": 95,
      "chip": "ym2612"
    },
    {
      "channel": 0,
      "note": 51,
      "start": 4.4726,
      "duration": 0.0305,
      "velocity": 91,
      "chip": "ym2612"
    },
    {
      "channel": 2,
      "note": 75,
      "start": 4.4734,
      "duration": 0.0088,
      "velocity": 95,
      "chip": "ym2612"
    },
    {
      "channel": 2,
      "note": 75,
      "start": 4.4904,
      "duration": 0.0077,
      "velocity": 95,
      "chip": "ym2612"
    },
    {
      "channel": 0,
      "note": 63,
      "start": 4.5163,
      "duration": 0.0179,
      "velocity": 91,
      "chip": "ym2612"
    },
    {
      "channel": 2,
      "note": 75,
      "start": 4.5172,
      "duration": 0.0088,
      "velocity": 95,
      "chip": "ym2612"
    },
    {
      "channel": 2,
      "note": 75,
      "start": 4.5348,
      "duration": 0.008,
      "velocity": 95,
      "chip": "ym2612"
    },
    {
      "channel": 0,
      "note": 51,
      "start": 4.551,
      "duration": 0.0305,
      "velocity": 91,
      "chip": "ym2612"
    },
    {
      "channel": 2,
      "note": 89,
      "start": 4.5535,
      "duration": 0.0285,
      "velocity": 95,
      "chip": "ym2612"
    },
    {
      "channel": 3,
      "note": 82,
      "start": 4.5542,
      "duration": 0.0282,
      "velocity": 95,
      "chip": "ym2612"
    },
    {
      "channel": 0,
      "note": 63,
      "start": 4.5852,
      "duration": 0.0178,
      "velocity": 91,
      "chip": "ym2612"
    },
    {
      "channel": 2,
      "note": 90,
      "start": 4.586,
      "duration": 0.0308,
      "velocity": 95,
      "chip": "ym2612"
    },
    {
      "channel": 3,
      "note": 80,
      "start": 4.5866,
      "duration": 0.0305,
      "velocity": 95,
      "chip": "ym2612"
    },
    {
      "channel": 0,
      "note": 51,
      "start": 4.6198,
      "duration": 0.0349,
      "velocity": 91,
      "chip": "ym2612"
    },
    {
      "channel": 2,
      "note": 75,
      "start": 4.6228,
      "duration": 0.0083,
      "velocity": 95,
      "chip": "ym2612"
    },
    {
      "channel": 1,
      "note": 85,
      "start": 4.6386,
      "duration": 0.0163,
      "velocity": 100,
      "chip": "ym2612"
    },
    {
      "channel": 2,
      "note": 75,
      "start": 4.6392,
      "duration": 0.011,
      "velocity": 95,
      "chip": "ym2612"
    },
    {
      "channel": 4,
      "note": 73,
      "start": 4.648,
      "duration": 0.0189,
      "velocity": 100,
      "chip": "ym2612"
    },
    {
      "channel": 0,
      "note": 63,
      "start": 4.6623,
      "duration": 0.0178,
      "velocity": 91,
      "chip": "ym2612"
    },
    {
      "channel": 1,
      "note": 80,
      "start": 4.6629,
      "duration": 0.0136,
      "velocity": 100,
      "chip": "ym2612"
    },
    {
      "channel": 2,
      "note": 75,
      "start": 4.6634,
      "duration": 0.0084,
      "velocity": 95,
      "chip": "ym2612"
    },
    {
      "channel": 4,
      "note": 87,
      "start": 4.6698,
      "duration": 0.0148,
      "velocity": 100,
      "chip": "ym2612"
    },
    {
      "channel": 1,
      "note": 82,
      "start": 4.6806,
      "duration": 0.0137,
      "velocity": 100,
      "chip": "ym2612"
    },
    {
      "channel": 2,
      "note": 75,
      "start": 4.6811,
      "duration": 0.0082,
      "velocity": 95,
      "chip": "ym2612"
    },
    {
      "channel": 4,
      "note": 85,
      "start": 4.6873,
      "duration": 0.0178,
      "velocity": 100,
      "chip": "ym2612"
    },
    {
      "channel": 0,
      "note": 51,
      "start": 4.6984,
      "duration": 0.032,
      "velocity": 91,
      "chip": "ym2612"
    },
    {
      "channel": 1,
      "note": 80,
      "start": 4.699,
      "duration": 0.0159,
      "velocity": 100,
      "chip": "ym2612"
    },
    {
      "channel": 2,
      "note": 89,
      "start": 4.7013,
      "duration": 0.0296,
      "velocity": 95,
      "chip": "ym2612"
    },
    {
      "channel": 3,
      "note": 82,
      "start": 4.702,
      "duration": 0.0293,
      "velocity": 95,
      "chip": "ym2612"
    },
    {
      "channel": 4,
      "note": 80,
      "start": 4.7079,
      "duration": 0.013,
      "velocity": 100,
      "chip": "ym2612"
    },
    {
      "channel": 1,
      "note": 78,
      "start": 4.7176,
      "duration": 0.0131,
      "velocity": 100,
      "chip": "ym2612"
    },
    {
      "channel": 4,
      "note": 82,
      "start": 4.7238,
      "duration": 0.0172,
      "velocity": 100,
      "chip": "ym2612"
    },
    {
      "channel": 0,
      "note": 63,
      "start": 4.7341,
      "duration": 0.0114,
      "velocity": 91,
      "chip": "ym2612"
    },
    {
      "channel": 1,
      "note": 75,
      "start": 4.7347,
      "duration": 0.0162,
      "velocity": 100,
      "chip": "ym2612"
    },
    {
      "channel": 2,
      "note": 75,
      "start": 4.737,
      "duration": 0.009,
      "velocity": 95,
      "chip": "ym2612"
    },
    {
      "channel": 4,
      "note": 80,
      "start": 4.7439,
      "duration": 0.0148,
      "velocity": 100,
      "chip": "ym2612"
    },
    {
      "channel": 0,
      "note": 51,
      "start": 4.7541,
      "duration": 0.0319,
      "velocity": 91,
      "chip": "ym2612"
    },
    {
      "channel": 1,
      "note": 78,
      "start": 4.7547,
      "duration": 0.0137,
      "velocity": 100,
      "chip": "ym2612"
    },
    {
      "channel": 2,
      "note": 75,
      "start": 4.7552,
      "duration": 0.0084,
      "velocity": 95,
      "chip": "ym2612"
    },
    {
      "channel": 4,
      "note": 78,
      "start": 4.7615,
      "duration": 0.015,
      "velocity": 100,
      "chip": "ym2612"
    },
    {
      "channel": 1,
      "note": 77,
      "start": 4.7724,
      "duration": 0.014,
      "velocity": 100,
      "chip": "ym2612"
    },
    {
      "channel": 2,
      "note": 75,
      "start": 4.7729,
      "duration": 0.0085,
      "velocity": 95,
      "chip": "ym2612"
    },
    {
      "channel": 4,
      "note": 75,
      "start": 4.7794,
      "duration": 0.0144,
      "velocity": 100,
      "chip": "ym2612"
    },
    {
      "channel": 0,
      "note": 63,
      "start": 4.7891,
      "duration": 0.0093,
      "velocity": 91,
      "chip": "ym2612"
    },
    {
      "channel": 1,
      "note": 75,
      "start": 4.7896,
      "duration": 0.0144,
      "velocity": 100,
      "chip": "ym2612"
    },
    {
      "channel": 2,
      "note": 75,
      "start": 4.7902,
      "duration": 0.0087,
      "velocity": 95,
      "chip": "ym2612"
    },
    {
      "channel": 4,
      "note": 78,
      "start": 4.7967,
      "duration": 0.0269,
      "velocity": 100,
      "chip": "ym2612"
    },
    {
      "channel": 0,
      "note": 61,
      "start": 4.8164,
      "duration": 0.0124,
      "velocity": 91,
      "chip": "ym2612"
    },
    {
      "channel": 1,
      "note": 73,
      "start": 4.8169,
      "duration": 0.0179,
      "velocity": 100,
      "chip": "ym2612"
    },
    {
      "channel": 2,
      "note": 90,
      "start": 4.8197,
      "duration": 0.0351,
      "velocity": 95,
      "chip": "ym2612"
    },
    {
      "channel": 3,
      "note": 80,
      "start": 4.8203,
      "duration": 0.0348,
      "velocity": 95,
      "chip": "ym2612"
    },
    {
      "channel": 4,
      "note": 77,
      "start": 4.8269,
      "duration": 0.0163,
      "velocity": 100,
      "chip": "ym2612"
    },
    {
      "channel": 0,
      "note": 51,
      "start": 4.8384,
      "duration": 0.0158,
      "velocity": 91,
      "chip": "ym2612"
    },
    {
      "channel": 1,
      "note": 75,
      "start": 4.8391,
      "duration": 0.0154,
      "velocity": 100,
      "chip": "ym2612"
    },
    {
      "channel": 4,
      "note": 75,
      "start": 4.8468,
      "duration": 0.0193,
      "velocity": 100,
      "chip": "ym2612"
    },
    {
      "channel": 0,
      "note": 51,
      "start": 4.859,
      "duration": 0.0353,
      "velocity": 91,
      "chip": "ym2612"
    },
    {
      "channel": 1,
      "note": 68,
      "start": 4.8598,
      "duration": 0.0168,
      "velocity": 100,
      "chip": "ym2612"
    },
    {
      "channel": 2,
      "note": 75,
      "start": 4.8622,
      "duration": 0.0091,
      "velocity": 95,
      "chip": "ym2612"
    },
    {
      "channel": 4,
      "note": 73,
      "start": 4.8692,
      "duration": 0.0147,
      "velocity": 100,
      "chip": "ym2612"
    },
    {
      "channel": 1,
      "note": 70,
      "start": 4.88,
      "duration": 0.0145,
      "velocity": 100,
      "chip": "ym2612"
    },
    {
      "channel": 2,
      "note": 75,
      "start": 4.8806,
      "duration": 0.0088,
      "velocity": 95,
      "chip": "ym2612"
    },
    {
      "channel": 4,
      "note": 75,
      "start": 4.887,
      "duration": 0.0176,
      "velocity": 100,
      "chip": "ym2612"
    },
    {
      "channel": 0,
      "note": 63,
      "start": 4.8978,
      "duration": 0.0193,
      "velocity": 91,
      "chip": "ym2612"
    },
    {
      "channel": 1,
      "note": 73,
      "start": 4.8984,
      "duration": 0.0159,
      "velocity": 100,
      "chip": "ym2612"
    },
    {
      "channel": 2,
      "note": 92,
      "start": 4.9007,
      "duration": 0.0305,
      "velocity": 95,
      "chip": "ym2612"
    },
    {
      "channel": 3,
      "note": 82,
      "start": 4.9014,
      "duration": 0.0302,
      "velocity": 95,
      "chip": "ym2612"
    },
    {
      "channel": 4,
      "note": 68,
      "start": 4.9075,
      "duration": 0.0139,
      "velocity": 100,
      "chip": "ym2612"
    },
    {
      "channel": 1,
      "note": 75,
      "start": 4.9176,
      "duration": 0.0134,
      "velocity": 100,
      "chip": "ym2612"
    },
    {
      "channel": 4,
      "note": 70,
      "start": 4.9242,
      "duration": 0.0195,
      "velocity": 100,
      "chip": "ym2612"
    },
    {
      "channel": 0,
      "note": 53,
      "start": 4.9355,
      "duration": 0.0343,
      "velocity": 91,
      "chip": "ym2612"
    },
    {
      "channel": 1,
      "note": 75,
      "start": 4.936,
      "duration": 0.0001,
      "velocity": 100,
      "chip": "ym2612"
    },
    {
      "channel": 2,
      "note": 89,
      "start": 4.9386,
      "duration": 0.0318,
      "velocity": 95,
      "chip": "ym2612"
    },
    {
      "channel": 3,
      "note": 84,
      "start": 4.9395,
      "duration": 0.0312,
      "velocity": 95,
      "chip": "ym2612"
    },
    {
      "channel": 1,
      "note": 77,
      "start": 4.9426,
      "duration": 0.1817,
      "velocity": 100,
      "chip": "ym2612"
    },
    {
      "channel": 4,
      "note": 73,
      "start": 4.9466,
      "duration": 0.013,
      "velocity": 100,
      "chip": "ym2612"
    },
    {
      "channel": 4,
      "note": 75,
      "start": 4.9624,
      "duration": 0.0001,
      "velocity": 100,
      "chip": "ym2612"
    },
    {
      "channel": 4,
      "note": 75,
      "start": 4.9655,
      "duration": 0.192,
      "velocity": 100,
      "chip": "ym2612"
    },
    {
      "channel": 0,
      "note": 65,
      "start": 4.9785,
      "duration": 0.0193,
      "velocity": 91,
      "chip": "ym2612"
    },
    {
      "channel": 2,
      "note": 77,
      "start": 4.9812,
      "duration": 0.0087,
      "velocity": 95,
      "chip": "ym2612"
    },
    {
      "channel": 2,
      "note": 77,
      "start": 4.9987,
      "duration": 0.0085,
      "velocity": 95,
      "chip": "ym2612"
    },
    {
      "channel": 0,
      "note": 53,
      "start": 5.0162,
      "duration": 0.0322,
      "velocity": 91,
      "chip": "ym2612"
    },
    {
      "channel": 2,
      "note": 77,
      "start": 5.0171,
      "duration": 0.0089,
      "velocity": 95,
      "chip": "ym2612"
    },
    {
      "channel": 2,
      "note": 77,
      "start": 5.0345,
      "duration": 0.0086,
      "velocity": 95,
      "chip": "ym2612"
    },
    {
      "channel": 0,
      "note": 65,
      "start": 5.052,
      "duration": 0.0193,
      "velocity": 91,
      "chip": "ym2612"
    },
    {
      "channel": 2,
      "note": 77,
      "start": 5.0529,
      "duration": 0.009,
      "velocity": 95,
      "chip": "ym2612"
    },
    {
      "channel": 2,
      "note": 77,
      "start": 5.0721,
      "duration": 0.0093,
      "velocity": 95,
      "chip": "ym2612"
    },
    {
      "channel": 0,
      "note": 53,
      "start": 5.0912,
      "duration": 0.0329,
      "velocity": 91,
      "chip": "ym2612"
    },
    {
      "channel": 2,
      "note": 77,
      "start": 5.0922,
      "duration": 0.009,
      "velocity": 95,
      "chip": "ym2612"
    },
    {
      "channel": 2,
      "note": 77,
      "start": 5.1102,
      "duration": 0.0087,
      "velocity": 95,
      "chip": "ym2612"
    },
    {
      "channel": 0,
      "note": 65,
      "start": 5.1338,
      "duration": 0.0193,
      "velocity": 91,
      "chip": "ym2612"
    },
    {
      "channel": 1,
      "note": 84,
      "start": 5.1344,
      "duration": 0.1062,
      "velocity": 100,
      "chip": "ym2612"
    },
    {
      "channel": 2,
      "note": 77,
      "start": 5.1349,
      "duration": 0.0086,
      "velocity": 95,
      "chip": "ym2612"
    },
    {
      "channel": 2,
      "note": 77,
      "start": 5.1538,
      "duration": 0.0088,
      "velocity": 95,
      "chip": "ym2612"
    },
    {
      "channel": 4,
      "note": 77,
      "start": 5.1605,
      "duration": 0.109,
      "velocity": 100,
      "chip": "ym2612"
    },
    {
      "channel": 0,
      "note": 53,
      "start": 5.1714,
      "duration": 0.0309,
      "velocity": 91,
      "chip": "ym2612"
    },
    {
      "channel": 2,
      "note": 91,
      "start": 5.1739,
      "duration": 0.0289,
      "velocity": 95,
      "chip": "ym2612"
    },
    {
      "channel": 3,
      "note": 80,
      "start": 5.1746,
      "duration": 0.0286,
      "velocity": 95,
      "chip": "ym2612"
    },
    {
      "channel": 0,
      "note": 65,
      "start": 5.2061,
      "duration": 0.0188,
      "velocity": 91,
      "chip": "ym2612"
    },
    {
      "channel": 2,
      "note": 92,
      "start": 5.2069,
      "duration": 0.0339,
      "velocity": 95,
      "chip": "ym2612"
    },
    {
      "channel": 3,
      "note": 82,
      "start": 5.2076,
      "duration": 0.0337,
      "velocity": 95,
      "chip": "ym2612"
    },
    {
      "channel": 0,
      "note": 53,
      "start": 5.2441,
      "duration": 0.0359,
      "velocity": 91,
      "chip": "ym2612"
    },
    {
      "channel": 1,
      "note": 84,
      "start": 5.2448,
      "duration": 0.0558,
      "velocity": 100,
      "chip": "ym2612"
    },
    {
      "channel": 2,
      "note": 77,
      "start": 5.2474,
      "duration": 0.0091,
      "velocity": 95,
      "chip": "ym2612"
    },
    {
      "channel": 2,
      "note": 77,
      "start": 5.2655,
      "duration": 0.0097,
      "velocity": 95,
      "chip": "ym2612"
    },
    {
      "channel": 4,
      "note": 84,
      "start": 5.2729,
      "duration": 0.0518,
      "velocity": 100,
      "chip": "ym2612"
    },
    {
      "channel": 0,
      "note": 65,
      "start": 5.2913,
      "duration": 0.0191,
      "velocity": 91,
      "chip": "ym2612"
    },
    {
      "channel": 2,
      "note": 77,
      "start": 5.2921,
      "duration": 0.0087,
      "velocity": 95,
      "chip": "ym2612"
    },
    {
      "channel": 1,
      "note": 82,
      "start": 5.3037,
      "duration": 0.0447,
      "velocity": 100,
      "chip": "ym2612"
    },
    {
      "channel": 2,
      "note": 77,
      "start": 5.3111,
      "duration": 0.0079,
      "velocity": 95,
      "chip": "ym2612"
    },
    {
      "channel": 0,
      "note": 53,
      "start": 5.3271,
      "duration": 0.0312,
      "velocity": 91,
      "chip": "ym2612"
    },
    {
      "channel": 2,
      "note": 91,
      "start": 5.3297,
      "duration": 0.0292,
      "velocity": 95,
      "chip": "ym2612"
    },
    {
      "channel": 3,
      "note": 84,
      "start": 5.3303,
      "duration": 0.0288,
      "velocity": 95,
      "chip": "ym2612"
    },
    {
      "channel": 4,
      "note": 84,
      "start": 5.331,
      "duration": 0.0432,
      "velocity": 100,
      "chip": "ym2612"
    },
    {
      "channel": 1,
      "note": 80,
      "start": 5.3511,
      "duration": 0.0445,
      "velocity": 100,
      "chip": "ym2612"
    },
    {
      "channel": 0,
      "note": 65,
      "start": 5.3629,
      "duration": 0.0193,
      "velocity": 91,
      "chip": "ym2612"
    },
    {
      "channel": 2,
      "note": 77,
      "start": 5.3654,
      "duration": 0.0081,
      "velocity": 95,
      "chip": "ym2612"
    },
    {
      "channel": 4,
      "note": 82,
      "start": 5.3771,
      "duration": 0.0418,
      "velocity": 100,
      "chip": "ym2612"
    },
    {
      "channel": 2,
      "note": 77,
      "start": 5.3829,
      "duration": 0.008,
      "velocity": 95,
      "chip": "ym2612"
    },
    {
      "channel": 0,
      "note": 53,
      "start": 5.399,
      "duration": 0.0294,
      "velocity": 91,
      "chip": "ym2612"
    },
    {
      "channel": 1,
      "note": 79,
      "start": 5.3995,
      "duration": 0.0291,
      "velocity": 100,
      "chip": "ym2612"
    },
    {
      "channel": 2,
      "note": 77,
      "start": 5.4001,
      "duration": 0.0078,
      "velocity": 95,
      "chip": "ym2612"
    },
    {
      "channel": 2,
      "note": 77,
      "start": 5.4156,
      "duration": 0.008,
      "velocity": 95,
      "chip": "ym2612"
    },
    {
      "channel": 4,
      "note": 80,
      "start": 5.4216,
      "duration": 0.0436,
      "velocity": 100,
      "chip": "ym2612"
    },
    {
      "channel": 0,
      "note": 65,
      "start": 5.442,
      "duration": 0.0193,
      "velocity": 91,
      "chip": "ym2612"
    },
    {
      "channel": 1,
      "note": 77,
      "start": 5.4425,
      "duration": 0.0325,
      "velocity": 100,
      "chip": "ym2612"
    },
    {
      "channel": 2,
      "note": 92,
      "start": 5.4449,
      "duration": 0.0305,
      "velocity": 95,
      "chip": "ym2612"
    },
    {
      "channel": 3,
      "note": 82,
      "start": 5.4455,
      "duration": 0.0302,
      "velocity": 95,
      "chip": "ym2612"
    },
    {
      "channel": 4,
      "note": 79,
      "start": 5.4682,
      "duration": 0.0319,
      "velocity": 100,
      "chip": "ym2612"
    },
    {
      "channel": 0,
      "note": 53,
      "start": 5.4782,
      "duration": 0.0313,
      "velocity": 91,
      "chip": "ym2612"
    },
    {
      "channel": 1,
      "note": 70,
      "start": 5.4787,
      "duration": 0.031,
      "velocity": 100,
      "chip": "ym2612"
    },
    {
      "channel": 2,
      "note": 77,
      "start": 5.481,
      "duration": 0.008,
      "velocity": 95,
      "chip": "ym2612"
    },
    {
      "channel": 2,
      "note": 77,
      "start": 5.4969,
      "duration": 0.008,
      "velocity": 95,
      "chip": "ym2612"
    },
    {
      "channel": 4,
      "note": 77,
      "start": 5.5029,
      "duration": 0.0341,
      "velocity": 100,
      "chip": "ym2612"
    },
    {
      "channel": 0,
      "note": 65,
      "start": 5.5139,
      "duration": 0.0193,
      "velocity": 91,
      "chip": "ym2612"
    },
    {
      "channel": 1,
      "note": 72,
      "start": 5.5145,
      "duration": 0.0323,
      "velocity": 100,
      "chip": "ym2612"
    },
    {
      "channel": 2,
      "note": 94,
      "start": 5.5168,
      "duration": 0.0303,
      "velocity": 95,
      "chip": "ym2612"
    },
    {
      "channel": 3,
      "note": 84,
      "start": 5.5174,
      "duration": 0.03,
      "velocity": 95,
      "chip": "ym2612"
    },
    {
      "channel": 4,
      "note": 70,
      "start": 5.5399,
      "duration": 0.0327,
      "velocity": 100,
      "chip": "ym2612"
    },
    {
      "channel": 0,
      "note": 53,
      "start": 5.5501,
      "duration": 0.0316,
      "velocity": 91,
      "chip": "ym2612"
    },
    {
      "channel": 1,
      "note": 80,
      "start": 5.5506,
      "duration": 0.1128,
      "velocity": 100,
      "chip": "ym2612"
    },
    {
      "channel": 2,
      "note": 89,
      "start": 5.553,
      "duration": 0.0292,
      "velocity": 95,
      "chip": "ym2612"
    },
    {
      "channel": 3,
      "note": 85,
      "start": 5.5538,
      "duration": 0.0287,
      "velocity": 95,
      "chip": "ym2612"
    },
    {
      "channel": 4,
      "note": 72,
      "start": 5.5753,
      "duration": 0.1161,
      "velocity": 100,
      "chip": "ym2612"
    },
    {
      "channel": 0,
      "note": 65,
      "start": 5.5932,
      "duration": 0.0183,
      "velocity": 91,
      "chip": "ym2612"
    },
    {
      "channel": 2,
      "note": 77,
      "start": 5.5958,
      "duration": 0.0082,
      "velocity": 95,
      "chip": "ym2612"
    },
    {
      "channel": 2,
      "note": 77,
      "start": 5.6122,
      "duration": 0.0082,
      "velocity": 95,
      "chip": "ym2612"
    },
    {
      "channel": 0,
      "note": 53,
      "start": 5.6293,
      "duration": 0.0338,
      "velocity": 91,
      "chip": "ym2612"
    },
    {
      "channel": 2,
      "note": 77,
      "start": 5.6301,
      "duration": 0.0093,
      "velocity": 95,
      "chip": "ym2612"
    },
    {
      "channel": 2,
      "note": 77,
      "start": 5.6485,
      "duration": 0.0091,
      "velocity": 95,
      "chip": "ym2612"
    },
    {
      "channel": 0,
      "note": 65,
      "start": 5.6668,
      "duration": 0.0196,
      "velocity": 91,
      "chip": "ym2612"
    },
    {
      "channel": 1,
      "note": 79,
      "start": 5.6677,
      "duration": 0.0339,
      "velocity": 100,
      "chip": "ym2612"
    },
    {
      "channel": 2,
      "note": 77,
      "start": 5.6682,
      "duration": 0.0091,
      "velocity": 95,
      "chip": "ym2612"
    },
    {
      "channel": 2,
      "note": 77,
      "start": 5.6875,
      "duration": 0.0091,
      "velocity": 95,
      "chip": "ym2612"
    },
    {
      "channel": 4,
      "note": 80,
      "start": 5.6946,
      "duration": 0.0311,
      "velocity": 100,
      "chip": "ym2612"
    },
    {
      "channel": 0,
      "note": 53,
      "start": 5.7056,
      "duration": 0.0293,
      "velocity": 91,
      "chip": "ym2612"
    },
    {
      "channel": 2,
      "note": 77,
      "start": 5.7065,
      "duration": 0.008,
      "velocity": 95,
      "chip": "ym2612"
    },
    {
      "channel": 2,
      "note": 77,
      "start": 5.7225,
      "duration": 0.0079,
      "velocity": 95,
      "chip": "ym2612"
    },
    {
      "channel": 0,
      "note": 65,
      "start": 5.7486,
      "duration": 0.0178,
      "velocity": 91,
      "chip": "ym2612"
    },
    {
      "channel": 2,
      "note": 77,
      "start": 5.7493,
      "duration": 0.0082,
      "velocity": 95,
      "chip": "ym2612"
    },
    {
      "channel": 2,
      "note": 77,
      "start": 5.7671,
      "duration": 0.008,
      "velocity": 95,
      "chip": "ym2612"
    },
    {
      "channel": 0,
      "note": 53,
      "start": 5.7832,
      "duration": 0.0309,
      "velocity": 91,
      "chip": "ym2612"
    },
    {
      "channel": 2,
      "note": 91,
      "start": 5.7859,
      "duration": 0.0289,
      "velocity": 95,
      "chip": "ym2612"
    },
    {
      "channel": 3,
      "note": 80,
      "start": 5.7865,
      "duration": 0.0286,
      "velocity": 95,
      "chip": "ym2612"
    },
    {
      "channel": 0,
      "note": 65,
      "start": 5.8188,
      "duration": 0.0178,
      "velocity": 91,
      "chip": "ym2612"
    },
    {
      "channel": 1,
      "note": 77,
      "start": 5.8194,
      "duration": 0.0061,
      "velocity": 100,
      "chip": "ym2612"
    },
    {
      "channel": 2,
      "note": 92,
      "start": 5.8199,
      "duration": 0.0308,
      "velocity": 95,
      "chip": "ym2612"
    },
    {
      "channel": 3,
      "note": 82,
      "start": 5.8205,
      "duration": 0.0305,
      "velocity": 95,
      "chip": "ym2612"
    },
    {
      "channel": 1,
      "note": 80,
      "start": 5.8283,
      "duration": 0.0222,
      "velocity": 100,
      "chip": "ym2612"
    },
    {
      "channel": 4,
      "note": 79,
      "start": 5.8434,
      "duration": 0.0053,
      "velocity": 100,
      "chip": "ym2612"
    },
    {
      "channel": 4,
      "note": 77,
      "start": 5.8517,
      "duration": 0.0257,
      "velocity": 100,
      "chip": "ym2612"
    },
    {
      "channel": 0,
      "note": 53,
      "start": 5.855,
      "duration": 0.0157,
      "velocity": 91,
      "chip": "ym2612"
    },
    {
      "channel": 1,
      "note": 79,
      "start": 5.8555,
      "duration": 0.0315,
      "velocity": 100,
      "chip": "ym2612"
    },
    {
      "channel": 2,
      "note": 77,
      "start": 5.8579,
      "duration": 0.0082,
      "velocity": 95,
      "chip": "ym2612"
    },
    {
      "channel": 0,
      "note": 65,
      "start": 5.8734,
      "duration": 0.0238,
      "velocity": 91,
      "chip": "ym2612"
    },
    {
      "channel": 2,
      "note": 77,
      "start": 5.8742,
      "duration": 0.008,
      "velocity": 95,
      "chip": "ym2612"
    },
    {
      "channel": 4,
      "note": 80,
      "start": 5.8802,
      "duration": 0.038,
      "velocity": 100,
      "chip": "ym2612"
    },
    {
      "channel": 1,
      "note": 77,
      "start": 5.8977,
      "duration": 0.0302,
      "velocity": 100,
      "chip": "ym2612"
    },
    {
      "channel": 2,
      "note": 77,
      "start": 5.8982,
      "duration": 0.0079,
      "velocity": 95,
      "chip": "ym2612"
    },
    {
      "channel": 0,
      "note": 53,
      "start": 5.914,
      "duration": 0.0137,
      "velocity": 91,
      "chip": "ym2612"
    },
    {
      "channel": 2,
      "note": 77,
      "start": 5.9148,
      "duration": 0.0084,
      "velocity": 95,
      "chip": "ym2612"
    },
    {
      "channel": 4,
      "note": 79,
      "start": 5.9211,
      "duration": 0.0331,
      "velocity": 100,
      "chip": "ym2612"
    },
    {
      "channel": 0,
      "note": 67,
      "start": 5.9321,
      "duration": 0.0185,
      "velocity": 91,
      "chip": "ym2612"
    },
    {
      "channel": 1,
      "note": 75,
      "start": 5.9326,
      "duration": 0.0311,
      "velocity": 100,
      "chip": "ym2612"
    },
    {
      "channel": 2,
      "note": 91,
      "start": 5.935,
      "duration": 0.029,
      "velocity": 95,
      "chip": "ym2612"
    },
    {
      "channel": 3,
      "note": 84,
      "start": 5.9356,
      "duration": 0.0288,
      "velocity": 95,
      "chip": "ym2612"
    },
    {
      "channel": 4,
      "note": 77,
      "start": 5.957,
      "duration": 0.0352,
      "velocity": 100,
      "chip": "ym2612"
    },
    {
      "channel": 0,
      "note": 53,
      "start": 5.9679,
      "duration": 0.0159,
      "velocity": 91,
      "chip": "ym2612"
    },
    {
      "channel": 1,
      "note": 77,
      "start": 5.9685,
      "duration": 0.0336,
      "velocity": 100,
      "chip": "ym2612"
    },
    {
      "channel": 2,
      "note": 77,
      "start": 5.9708,
      "duration": 0.0085,
      "velocity": 95,
      "chip": "ym2612"
    },
    {
      "channel": 0,
      "note": 65,
      "start": 5.9878,
      "duration": 0.0509,
      "velocity": 91,
      "chip": "ym2612"
    },
    {
      "channel": 2,
      "note": 77,
      "start": 5.9886,
      "duration": 0.0086,
      "velocity": 95,
      "chip": "ym2612"
    },
    {
      "channel": 4,
      "note": 75,
      "start": 5.995,
      "duration": 0.0325,
      "velocity": 100,
      "chip": "ym2612"
    },
    {
      "channel": 1,
      "note": 72,
      "start": 6.0065,
      "duration": 0.0325,
      "velocity": 100,
      "chip": "ym2612"
    },
    {
      "channel": 2,
      "note": 77,
      "start": 6.007,
      "duration": 0.0085,
      "velocity": 95,
      "chip": "ym2612"
    },
    {
      "channel": 2,
      "note": 77,
      "start": 6.0239,
      "duration": 0.0094,
      "velocity": 95,
      "chip": "ym2612"
    },
    {
      "channel": 4,
      "note": 77,
      "start": 6.0308,
      "duration": 0.0471,
      "velocity": 100,
      "chip": "ym2612"
    },
    {
      "channel": 0,
      "note": 65,
      "start": 6.0526,
      "duration": 0.027,
      "velocity": 91,
      "chip": "ym2612"
    },
    {
      "channel": 1,
      "note": 70,
      "start": 6.0533,
      "duration": 0.0364,
      "velocity": 100,
      "chip": "ym2612"
    },
    {
      "channel": 2,
      "note": 92,
      "start": 6.0559,
      "duration": 0.0341,
      "velocity": 95,
      "chip": "ym2612"
    },
    {
      "channel": 3,
      "note": 82,
      "start": 6.0566,
      "duration": 0.0337,
      "velocity": 95,
      "chip": "ym2612"
    },
    {
      "channel": 4,
      "note": 72,
      "start": 6.0814,
      "duration": 0.0375,
      "velocity": 100,
      "chip": "ym2612"
    },
    {
      "channel": 0,
      "note": 53,
      "start": 6.0929,
      "duration": 0.0372,
      "velocity": 91,
      "chip": "ym2612"
    },
    {
      "channel": 1,
      "note": 68,
      "start": 6.0934,
      "duration": 0.0369,
      "velocity": 100,
      "chip": "ym2612"
    },
    {
      "channel": 2,
      "note": 77,
      "start": 6.0958,
      "duration": 0.0102,
      "velocity": 95,
      "chip": "ym2612"
    },
    {
      "channel": 2,
      "note": 77,
      "start": 6.1153,
      "duration": 0.0093,
      "velocity": 95,
      "chip": "ym2612"
    },
    {
      "channel": 4,
      "note": 70,
      "start": 6.1221,
      "duration": 0.0361,
      "velocity": 100,
      "chip": "ym2612"
    },
    {
      "channel": 0,
      "note": 65,
      "start": 6.1335,
      "duration": 0.0261,
      "velocity": 91,
      "chip": "ym2612"
    },
    {
      "channel": 1,
      "note": 60,
      "start": 6.134,
      "duration": 0.0337,
      "velocity": 100,
      "chip": "ym2612"
    },
    {
      "channel": 2,
      "note": 94,
      "start": 6.1364,
      "duration": 0.0317,
      "velocity": 95,
      "chip": "ym2612"
    },
    {
      "channel": 3,
      "note": 84,
      "start": 6.137,
      "duration": 0.0313,
      "velocity": 95,
      "chip": "ym2612"
    },
    {
      "channel": 4,
      "note": 68,
      "start": 6.161,
      "duration": 0.0357,
      "velocity": 100,
      "chip": "ym2612"
    },
    {
      "channel": 0,
      "note": 44,
      "start": 6.1711,
      "duration": 0.0385,
      "velocity": 91,
      "chip": "ym2612"
    },
    {
      "channel": 1,
      "note": 89,
      "start": 6.1734,
      "duration": 0.0001,
      "velocity": 99,
      "chip": "ym2612"
    },
    {
      "channel": 2,
      "note": 92,
      "start": 6.176,
      "duration": 0.0342,
      "velocity": 95,
      "chip": "ym2612"
    },
    {
      "channel": 3,
      "note": 85,
      "start": 6.1769,
      "duration": 0.0337,
      "velocity": 95,
      "chip": "ym2612"
    },
    {
      "channel": 1,
      "note": 92,
      "start": 6.1803,
      "duration": 0.2933,
      "velocity": 99,
      "chip": "ym2612"
    },
    {
      "channel": 4,
      "note": 60,
      "start": 6.2022,
      "duration": 0.0001,
      "velocity": 99,
      "chip": "ym2612"
    },
    {
      "channel": 4,
      "note": 89,
      "start": 6.2053,
      "duration": 0.2964,
      "velocity": 99,
      "chip": "ym2612"
    },
    {
      "channel": 0,
      "note": 56,
      "start": 6.2136,
      "duration": 0.0193,
      "velocity": 91,
      "chip": "ym2612"
    },
    {
      "channel": 2,
      "note": 80,
      "start": 6.2163,
      "duration": 0.0087,
      "velocity": 95,
      "chip": "ym2612"
    },
    {
      "channel": 2,
      "note": 80,
      "start": 6.2338,
      "duration": 0.0086,
      "velocity": 95,
      "chip": "ym2612"
    },
    {
      "channel": 0,
      "note": 44,
      "start": 6.2513,
      "duration": 0.032,
      "velocity": 91,
      "chip": "ym2612"
    },
    {
      "channel": 2,
      "note": 80,
      "start": 6.2522,
      "duration": 0.0088,
      "velocity": 95,
      "chip": "ym2612"
    },
    {
      "channel": 2,
      "note": 80,
      "start": 6.2697,
      "duration": 0.0084,
      "velocity": 95,
      "chip": "ym2612"
    },
    {
      "channel": 0,
      "note": 56,
      "start": 6.287,
      "duration": 0.0177,
      "velocity": 91,
      "chip": "ym2612"
    },
    {
      "channel": 2,
      "note": 80,
      "start": 6.2878,
      "duration": 0.0086,
      "velocity": 95,
      "chip": "ym2612"
    },
    {
      "channel": 2,
      "note": 80,
      "start": 6.3054,
      "duration": 0.0084,
      "velocity": 95,
      "chip": "ym2612"
    },
    {
      "channel": 0,
      "note": 44,
      "start": 6.323,
      "duration": 0.03,
      "velocity": 91,
      "chip": "ym2612"
    },
    {
      "channel": 2,
      "note": 80,
      "start": 6.3239,
      "duration": 0.0083,
      "velocity": 95,
      "chip": "ym2612"
    },
    {
      "channel": 2,
      "note": 80,
      "start": 6.3403,
      "duration": 0.0079,
      "velocity": 95,
      "chip": "ym2612"
    },
    {
      "channel": 0,
      "note": 56,
      "start": 6.3656,
      "duration": 0.0178,
      "velocity": 91,
      "chip": "ym2612"
    },
    {
      "channel": 2,
      "note": 80,
      "start": 6.3665,
      "duration": 0.0083,
      "velocity": 95,
      "chip": "ym2612"
    },
    {
      "channel": 2,
      "note": 80,
      "start": 6.3842,
      "duration": 0.0082,
      "velocity": 95,
      "chip": "ym2612"
    },
    {
      "channel": 0,
      "note": 44,
      "start": 6.4,
      "duration": 0.0329,
      "velocity": 91,
      "chip": "ym2612"
    },
    {
      "channel": 2,
      "note": 94,
      "start": 6.4027,
      "duration": 0.0307,
      "velocity": 95,
      "chip": "ym2612"
    },
    {
      "channel": 3,
      "note": 84,
      "start": 6.4034,
      "duration": 0.0304,
      "velocity": 95,
      "chip": "ym2612"
    },
    {
      "channel": 0,
      "note": 56,
      "start": 6.4377,
      "duration": 0.0202,
      "velocity": 91,
      "chip": "ym2612"
    },
    {
      "channel": 2,
      "note": 96,
      "start": 6.4385,
      "duration": 0.0354,
      "velocity": 95,
      "chip": "ym2612"
    },
    {
      "channel": 3,
      "note": 85,
      "start": 6.4393,
      "duration": 0.0352,
      "velocity": 95,
      "chip": "ym2612"
    },
    {
      "channel": 0,
      "note": 44,
      "start": 6.4772,
      "duration": 0.0347,
      "velocity": 91,
      "chip": "ym2612"
    },
    {
      "channel": 1,
      "note": 90,
      "start": 6.4781,
      "duration": 0.0738,
      "velocity": 99,
      "chip": "ym2612"
    },
    {
      "channel": 2,
      "note": 80,
      "start": 6.4805,
      "duration": 0.0092,
      "velocity": 95,
      "chip": "ym2612"
    },
    {
      "channel": 2,
      "note": 80,
      "start": 6.4982,
      "duration": 0.0089,
      "velocity": 95,
      "chip": "ym2612"
    },
    {
      "channel": 4,
      "note": 92,
      "start": 6.505,
      "duration": 0.0722,
      "velocity": 99,
      "chip": "ym2612"
    },
    {
      "channel": 0,
      "note": 56,
      "start": 6.5225,
      "duration": 0.0159,
      "velocity": 91,
      "chip": "ym2612"
    },
    {
      "channel": 2,
      "note": 80,
      "start": 6.5233,
      "duration": 0.008,
      "velocity": 95,
      "chip": "ym2612"
    },
    {
      "channel": 2,
      "note": 80,
      "start": 6.5391,
      "duration": 0.0079,
      "velocity": 95,
      "chip": "ym2612"
    },
    {
      "channel": 0,
      "note": 44,
      "start": 6.5553,
      "duration": 0.0313,
      "velocity": 91,
      "chip": "ym2612"
    },
    {
      "channel": 1,
      "note": 89,
      "start": 6.5558,
      "duration": 0.1472,
      "velocity": 99,
      "chip": "ym2612"
    },
    {
      "channel": 2,
      "note": 94,
      "start": 6.5582,
      "duration": 0.0289,
      "velocity": 95,
      "chip": "ym2612"
    },
    {
      "channel": 3,
      "note": 87,
      "start": 6.5588,
      "duration": 0.0286,
      "velocity": 95,
      "chip": "ym2612"
    },
    {
      "channel": 4,
      "note": 90,
      "start": 6.58,
      "duration": 0.1479,
      "velocity": 99,
      "chip": "ym2612"
    },
    {
      "channel": 0,
      "note": 56,
      "start": 6.591,
      "duration": 0.0193,
      "velocity": 91,
      "chip": "ym2612"
    },
    {
      "channel": 2,
      "note": 80,
      "start": 6.5936,
      "duration": 0.008,
      "velocity": 95,
      "chip": "ym2612"
    },
    {
      "channel": 2,
      "note": 80,
      "start": 6.611,
      "duration": 0.008,
      "velocity": 95,
      "chip": "ym2612"
    },
    {
      "channel": 0,
      "note": 44,
      "start": 6.6271,
      "duration": 0.0293,
      "velocity": 91,
      "chip": "ym2612"
    },
    {
      "channel": 2,
      "note": 80,
      "start": 6.6278,
      "duration": 0.0081,
      "velocity": 95,
      "chip": "ym2612"
    },
    {
      "channel": 2,
      "note": 80,
      "start": 6.6437,
      "duration": 0.0078,
      "velocity": 95,
      "chip": "ym2612"
    },
    {
      "channel": 0,
      "note": 56,
      "start": 6.6701,
      "duration": 0.0193,
      "velocity": 91,
      "chip": "ym2612"
    },
    {
      "channel": 2,
      "note": 96,
      "start": 6.6727,
      "duration": 0.0307,
      "velocity": 95,
      "chip": "ym2612"
    },
    {
      "channel": 3,
      "note": 85,
      "start": 6.6733,
      "duration": 0.0304,
      "velocity": 95,
      "chip": "ym2612"
    },
    {
      "channel": 0,
      "note": 44,
      "start": 6.7059,
      "duration": 0.0312,
      "velocity": 91,
      "chip": "ym2612"
    },
    {
      "channel": 1,
      "note": 85,
      "start": 6.7064,
      "duration": 0.0656,
      "velocity": 99,
      "chip": "ym2612"
    },
    {
      "channel": 2,
      "note": 80,
      "start": 6.7088,
      "duration": 0.0083,
      "velocity": 95,
      "chip": "ym2612"
    },
    {
      "channel": 2,
      "note": 80,
      "start": 6.7247,
      "duration": 0.0079,
      "velocity": 95,
      "chip": "ym2612"
    },
    {
      "channel": 4,
      "note": 89,
      "start": 6.7306,
      "duration": 0.0676,
      "velocity": 99,
      "chip": "ym2612"
    },
    {
      "channel": 0,
      "note": 56,
      "start": 6.7416,
      "duration": 0.0176,
      "velocity": 91,
      "chip": "ym2612"
    },
    {
      "channel": 2,
      "note": 97,
      "start": 6.7442,
      "duration": 0.0282,
      "velocity": 95,
      "chip": "ym2612"
    },
    {
      "channel": 3,
      "note": 87,
      "start": 6.7448,
      "duration": 0.0279,
      "velocity": 95,
      "chip": "ym2612"
    },
    {
      "channel": 0,
      "note": 42,
      "start": 6.776,
      "duration": 0.0315,
      "velocity": 91,
      "chip": "ym2612"
    },
    {
      "channel": 1,
      "note": 78,
      "start": 6.7765,
      "duration": 0.2298,
      "velocity": 99,
      "chip": "ym2612"
    },
    {
      "channel": 2,
      "note": 90,
      "start": 6.7788,
      "duration": 0.0292,
      "velocity": 95,
      "chip": "ym2612"
    },
    {
      "channel": 3,
      "note": 89,
      "start": 6.7795,
      "duration": 0.0288,
      "velocity": 95,
      "chip": "ym2612"
    },
    {
      "channel": 4,
      "note": 85,
      "start": 6.801,
      "duration": 0.2331,
      "velocity": 99,
      "chip": "ym2612"
    },
    {
      "channel": 0,
      "note": 54,
      "start": 6.8194,
      "duration": 0.019,
      "velocity": 91,
      "chip": "ym2612"
    },
    {
      "channel": 2,
      "note": 78,
      "start": 6.8221,
      "duration": 0.0085,
      "velocity": 95,
      "chip": "ym2612"
    },
    {
      "channel": 2,
      "note": 78,
      "start": 6.8391,
      "duration": 0.0089,
      "velocity": 95,
      "chip": "ym2612"
    },
    {
      "channel": 0,
      "note": 42,
      "start": 6.8577,
      "duration": 0.0332,
      "velocity": 91,
      "chip": "ym2612"
    },
    {
      "channel": 2,
      "note": 78,
      "start": 6.8586,
      "duration": 0.0092,
      "velocity": 95,
      "chip": "ym2612"
    },
    {
      "channel": 2,
      "note": 78,
      "start": 6.8772,
      "duration": 0.0086,
      "velocity": 95,
      "chip": "ym2612"
    },
    {
      "channel": 0,
      "note": 54,
      "start": 6.8948,
      "duration": 0.0182,
      "velocity": 91,
      "chip": "ym2612"
    },
    {
      "channel": 2,
      "note": 78,
      "start": 6.8956,
      "duration": 0.0088,
      "velocity": 95,
      "chip": "ym2612"
    },
    {
      "channel": 2,
      "note": 78,
      "start": 6.9137,
      "duration": 0.0084,
      "velocity": 95,
      "chip": "ym2612"
    },
    {
      "channel": 0,
      "note": 42,
      "start": 6.9317,
      "duration": 0.0299,
      "velocity": 91,
      "chip": "ym2612"
    },
    {
      "channel": 2,
      "note": 78,
      "start": 6.9325,
      "duration": 0.0083,
      "velocity": 95,
      "chip": "ym2612"
    },
    {
      "channel": 2,
      "note": 78,
      "start": 6.949,
      "duration": 0.0078,
      "velocity": 95,
      "chip": "ym2612"
    },
    {
      "channel": 0,
      "note": 54,
      "start": 6.9746,
      "duration": 0.0178,
      "velocity": 91,
      "chip": "ym2612"
    },
    {
      "channel": 2,
      "note": 78,
      "start": 6.9754,
      "duration": 0.0083,
      "velocity": 95,
      "chip": "ym2612"
    },
    {
      "channel": 2,
      "note": 78,
      "start": 6.9932,
      "duration": 0.0081,
      "velocity": 95,
      "chip": "ym2612"
    },
    {
      "channel": 0,
      "note": 42,
      "start": 7.0108,
      "duration": 0.034,
      "velocity": 91,
      "chip": "ym2612"
    },
    {
      "channel": 1,
      "note": 89,
      "start": 7.0113,
      "duration": 0.0001,
      "velocity": 99,
      "chip": "ym2612"
    },
    {
      "channel": 2,
      "note": 92,
      "start": 7.0137,
      "duration": 0.0317,
      "velocity": 95,
      "chip": "ym2612"
    },
    {
      "channel": 3,
      "note": 82,
      "start": 7.0143,
      "duration": 0.0315,
      "velocity": 95,
      "chip": "ym2612"
    },
    {
      "channel": 1,
      "note": 92,
      "start": 7.0171,
      "duration": 0.028,
      "velocity": 99,
      "chip": "ym2612"
    },
    {
      "channel": 4,
      "note": 78,
      "start": 7.0371,
      "duration": 0.0001,
      "velocity": 99,
      "chip": "ym2612"
    },
    {
      "channel": 4,
      "note": 89,
      "start": 7.0403,
      "duration": 0.0315,
      "velocity": 99,
      "chip": "ym2612"
    },
    {
      "channel": 0,
      "note": 54,
      "start": 7.0499,
      "duration": 0.0178,
      "velocity": 91,
      "chip": "ym2612"
    },
    {
      "channel": 1,
      "note": 90,
      "start": 7.0505,
      "duration": 0.1841,
      "velocity": 99,
      "chip": "ym2612"
    },
    {
      "channel": 2,
      "note": 94,
      "start": 7.0511,
      "duration": 0.0309,
      "velocity": 95,
      "chip": "ym2612"
    },
    {
      "channel": 3,
      "note": 83,
      "start": 7.0517,
      "duration": 0.0306,
      "velocity": 95,
      "chip": "ym2612"
    },
    {
      "channel": 4,
      "note": 92,
      "start": 7.0748,
      "duration": 0.1878,
      "velocity": 99,
      "chip": "ym2612"
    },
    {
      "channel": 0,
      "note": 42,
      "start": 7.086,
      "duration": 0.0307,
      "velocity": 91,
      "chip": "ym2612"
    },
    {
      "channel": 2,
      "note": 78,
      "start": 7.0886,
      "duration": 0.0082,
      "velocity": 95,
      "chip": "ym2612"
    },
    {
      "channel": 2,
      "note": 78,
      "start": 7.1044,
      "duration": 0.0078,
      "velocity": 95,
      "chip": "ym2612"
    },
    {
      "channel": 0,
      "note": 54,
      "start": 7.1287,
      "duration": 0.0178,
      "velocity": 91,
      "chip": "ym2612"
    },
    {
      "channel": 2,
      "note": 78,
      "start": 7.1295,
      "duration": 0.008,
      "velocity": 95,
      "chip": "ym2612"
    },
    {
      "channel": 2,
      "note": 78,
      "start": 7.1472,
      "duration": 0.0081,
      "velocity": 95,
      "chip": "ym2612"
    },
    {
      "channel": 0,
      "note": 42,
      "start": 7.1633,
      "duration": 0.0318,
      "velocity": 91,
      "chip": "ym2612"
    },
    {
      "channel": 2,
      "note": 92,
      "start": 7.1659,
      "duration": 0.0297,
      "velocity": 95,
      "chip": "ym2612"
    },
    {
      "channel": 3,
      "note": 85,
      "start": 7.1666,
      "duration": 0.0294,
      "velocity": 95,
      "chip": "ym2612"
    },
    {
      "channel": 0,
      "note": 54,
      "start": 7.1995,
      "duration": 0.0202,
      "velocity": 91,
      "chip": "ym2612"
    },
    {
      "channel": 2,
      "note": 78,
      "start": 7.2022,
      "duration": 0.0088,
      "velocity": 95,
      "chip": "ym2612"
    },
    {
      "channel": 2,
      "note": 78,
      "start": 7.2204,
      "duration": 0.0088,
      "velocity": 95,
      "chip": "ym2612"
    },
    {
      "channel": 0,
      "note": 42,
      "start": 7.2395,
      "duration": 0.0345,
      "velocity": 91,
      "chip": "ym2612"
    },
    {
      "channel": 1,
      "note": 89,
      "start": 7.2401,
      "duration": 0.0819,
      "velocity": 99,
      "chip": "ym2612"
    },
    {
      "channel": 2,
      "note": 78,
      "start": 7.2407,
      "duration": 0.0092,
      "velocity": 95,
      "chip": "ym2612"
    },
    {
      "channel": 2,
      "note": 78,
      "start": 7.2591,
      "duration": 0.0094,
      "velocity": 95,
      "chip": "ym2612"
    },
    {
      "channel": 4,
      "note": 90,
      "start": 7.2663,
      "duration": 0.0813,
      "velocity": 99,
      "chip": "ym2612"
    },
    {
      "channel": 0,
      "note": 54,
      "start": 7.2871,
      "duration": 0.0214,
      "velocity": 91,
      "chip": "ym2612"
    },
    {
      "channel": 2,
      "note": 94,
      "start": 7.29,
      "duration": 0.0323,
      "velocity": 95,
      "chip": "ym2612"
    },
    {
      "channel": 3,
      "note": 83,
      "start": 7.2906,
      "duration": 0.032,
      "velocity": 95,
      "chip": "ym2612"
    },
    {
      "channel": 0,
      "note": 42,
      "start": 7.3255,
      "duration": 0.0315,
      "velocity": 91,
      "chip": "ym2612"
    },
    {
      "channel": 1,
      "note": 85,
      "start": 7.3261,
      "duration": 0.0677,
      "velocity": 99,
      "chip": "ym2612"
    },
    {
      "channel": 2,
      "note": 78,
      "start": 7.3284,
      "duration": 0.0081,
      "velocity": 95,
      "chip": "ym2612"
    },
    {
      "channel": 2,
      "note": 78,
      "start": 7.3444,
      "duration": 0.0081,
      "velocity": 95,
      "chip": "ym2612"
    },
    {
      "channel": 4,
      "note": 89,
      "start": 7.3505,
      "duration": 0.069,
      "velocity": 99,
      "chip": "ym2612"
    },
    {
      "channel": 0,
      "note": 54,
      "start": 7.3613,
      "duration": 0.0193,
      "velocity": 91,
      "chip": "ym2612"
    },
    {
      "channel": 2,
      "note": 95,
      "start": 7.3639,
      "duration": 0.0301,
      "velocity": 95,
      "chip": "ym2612"
    },
    {
      "channel": 3,
      "note": 85,
      "start": 7.3646,
      "duration": 0.0298,
      "velocity": 95,
      "chip": "ym2612"
    },
    {
      "channel": 0,
      "note": 44,
      "start": 7.3975,
      "duration": 0.0313,
      "velocity": 91,
      "chip": "ym2612"
    },
    {
      "channel": 1,
      "note": 80,
      "start": 7.398,
      "duration": 0.2602,
      "velocity": 99,
      "chip": "ym2612"
    },
    {
      "channel": 2,
      "note": 92,
      "start": 7.4004,
      "duration": 0.0289,
      "velocity": 95,
      "chip": "ym2612"
    },
    {
      "channel": 3,
      "note": 87,
      "start": 7.4012,
      "duration": 0.0284,
      "velocity": 95,
      "chip": "ym2612"
    },
    {
      "channel": 4,
      "note": 85,
      "start": 7.4224,
      "duration": 0.2652,
      "velocity": 99,
      "chip": "ym2612"
    },
    {
      "channel": 0,
      "note": 56,
      "start": 7.4405,
      "duration": 0.0178,
      "velocity": 91,
      "chip": "ym2612"
    },
    {
      "channel": 2,
      "note": 80,
      "start": 7.4431,
      "duration": 0.0078,
      "velocity": 95,
      "chip": "ym2612"
    },
    {
      "channel": 2,
      "note": 80,
      "start": 7.459,
      "duration": 0.0077,
      "velocity": 95,
      "chip": "ym2612"
    },
    {
      "channel": 0,
      "note": 44,
      "start": 7.4751,
      "duration": 0.0291,
      "velocity": 91,
      "chip": "ym2612"
    },
    {
      "channel": 2,
      "note": 80,
      "start": 7.4759,
      "duration": 0.0081,
      "velocity": 95,
      "chip": "ym2612"
    },
    {
      "channel": 2,
      "note": 80,
      "start": 7.4917,
      "duration": 0.0078,
      "velocity": 95,
      "chip": "ym2612"
    },
    {
      "channel": 0,
      "note": 56,
      "start": 7.5076,
      "duration": 0.0177,
      "velocity": 91,
      "chip": "ym2612"
    },
    {
      "channel": 2,
      "note": 80,
      "start": 7.5084,
      "duration": 0.0083,
      "velocity": 95,
      "chip": "ym2612"
    },
    {
      "channel": 2,
      "note": 80,
      "start": 7.5261,
      "duration": 0.0084,
      "velocity": 95,
      "chip": "ym2612"
    },
    {
      "channel": 0,
      "note": 44,
      "start": 7.5437,
      "duration": 0.03,
      "velocity": 91,
      "chip": "ym2612"
    },
    {
      "channel": 2,
      "note": 80,
      "start": 7.5445,
      "duration": 0.0082,
      "velocity": 95,
      "chip": "ym2612"
    },
    {
      "channel": 2,
      "note": 80,
      "start": 7.5611,
      "duration": 0.0079,
      "velocity": 95,
      "chip": "ym2612"
    },
    {
      "channel": 0,
      "note": 56,
      "start": 7.5864,
      "duration": 0.0178,
      "velocity": 91,
      "chip": "ym2612"
    },
    {
      "channel": 2,
      "note": 80,
      "start": 7.5872,
      "duration": 0.0083,
      "velocity": 95,
      "chip": "ym2612"
    },
    {
      "channel": 2,
      "note": 80,
      "start": 7.6049,
      "duration": 0.0085,
      "velocity": 95,
      "chip": "ym2612"
    },
    {
      "channel": 0,
      "note": 44,
      "start": 7.6231,
      "duration": 0.0349,
      "velocity": 91,
      "chip": "ym2612"
    },
    {
      "channel": 2,
      "note": 94,
      "start": 7.6258,
      "duration": 0.0329,
      "velocity": 95,
      "chip": "ym2612"
    },
    {
      "channel": 3,
      "note": 84,
      "start": 7.6267,
      "duration": 0.0323,
      "velocity": 95,
      "chip": "ym2612"
    },
    {
      "channel": 0,
      "note": 56,
      "start": 7.6627,
      "duration": 0.0203,
      "velocity": 91,
      "chip": "ym2612"
    },
    {
      "channel": 1,
      "note": 75,
      "start": 7.6634,
      "duration": 0.035,
      "velocity": 99,
      "chip": "ym2612"
    },
    {
      "channel": 2,
      "note": 96,
      "start": 7.6643,
      "duration": 0.0344,
      "velocity": 95,
      "chip": "ym2612"
    },
    {
      "channel": 3,
      "note": 85,
      "start": 7.6649,
      "duration": 0.034,
      "velocity": 95,
      "chip": "ym2612"
    },
    {
      "channel": 4,
      "note": 80,
      "start": 7.6907,
      "duration": 0.0337,
      "velocity": 99,
      "chip": "ym2612"
    },
    {
      "channel": 0,
      "note": 44,
      "start": 7.7018,
      "duration": 0.0322,
      "velocity": 91,
      "chip": "ym2612"
    },
    {
      "channel": 1,
      "note": 80,
      "start": 7.7023,
      "duration": 0.0563,
      "velocity": 99,
      "chip": "ym2612"
    },
    {
      "channel": 2,
      "note": 80,
      "start": 7.7047,
      "duration": 0.0087,
      "velocity": 95,
      "chip": "ym2612"
    },
    {
      "channel": 2,
      "note": 80,
      "start": 7.7212,
      "duration": 0.0082,
      "velocity": 95,
      "chip": "ym2612"
    },
    {
      "channel": 4,
      "note": 75,
      "start": 7.7274,
      "duration": 0.0569,
      "velocity": 99,
      "chip": "ym2612"
    },
    {
      "channel": 0,
      "note": 56,
      "start": 7.745,
      "duration": 0.016,
      "velocity": 91,
      "chip": "ym2612"
    },
    {
      "channel": 2,
      "note": 80,
      "start": 7.7457,
      "duration": 0.008,
      "velocity": 95,
      "chip": "ym2612"
    },
    {
      "channel": 1,
      "note": 82,
      "start": 7.7615,
      "duration": 0.0475,
      "velocity": 99,
      "chip": "ym2612"
    },
    {
      "channel": 2,
      "note": 80,
      "start": 7.762,
      "duration": 0.0079,
      "velocity": 95,
      "chip": "ym2612"
    },
    {
      "channel": 0,
      "note": 44,
      "start": 7.7778,
      "duration": 0.0309,
      "velocity": 91,
      "chip": "ym2612"
    },
    {
      "channel": 2,
      "note": 94,
      "start": 7.7804,
      "duration": 0.0289,
      "velocity": 95,
      "chip": "ym2612"
    },
    {
      "channel": 3,
      "note": 87,
      "start": 7.781,
      "duration": 0.0286,
      "velocity": 95,
      "chip": "ym2612"
    },
    {
      "channel": 4,
      "note": 80,
      "start": 7.7871,
      "duration": 0.0484,
      "velocity": 99,
      "chip": "ym2612"
    },
    {
      "channel": 0,
      "note": 56,
      "start": 7.812,
      "duration": 0.0193,
      "velocity": 91,
      "chip": "ym2612"
    },
    {
      "channel": 1,
      "note": 84,
      "start": 7.8125,
      "duration": 0.0659,
      "velocity": 99,
      "chip": "ym2612"
    },
    {
      "channel": 2,
      "note": 80,
      "start": 7.8149,
      "duration": 0.0082,
      "velocity": 95,
      "chip": "ym2612"
    },
    {
      "channel": 2,
      "note": 80,
      "start": 7.832,
      "duration": 0.0083,
      "velocity": 95,
      "chip": "ym2612"
    },
    {
      "channel": 4,
      "note": 82,
      "start": 7.8384,
      "duration": 0.0774,
      "velocity": 99,
      "chip": "ym2612"
    },
    {
      "channel": 0,
      "note": 44,
      "start": 7.8496,
      "duration": 0.0285,
      "velocity": 91,
      "chip": "ym2612"
    },
    {
      "channel": 2,
      "note": 80,
      "start": 7.8504,
      "duration": 0.0078,
      "velocity": 95,
      "chip": "ym2612"
    },
    {
      "channel": 2,
      "note": 80,
      "start": 7.866,
      "duration": 0.0076,
      "velocity": 95,
      "chip": "ym2612"
    },
    {
      "channel": 0,
      "note": 56,
      "start": 7.8926,
      "duration": 0.0193,
      "velocity": 91,
      "chip": "ym2612"
    },
    {
      "channel": 1,
      "note": 85,
      "start": 7.8931,
      "duration": 0.0324,
      "velocity": 99,
      "chip": "ym2612"
    },
    {
      "channel": 2,
      "note": 96,
      "start": 7.8955,
      "duration": 0.0303,
      "velocity": 95,
      "chip": "ym2612"
    },
    {
      "channel": 3,
      "note": 85,
      "start": 7.8961,
      "duration": 0.03,
      "velocity": 95,
      "chip": "ym2612"
    },
    {
      "channel": 4,
      "note": 84,
      "start": 7.9187,
      "duration": 0.032,
      "velocity": 99,
      "chip": "ym2612"
    },
    {
      "channel": 0,
      "note": 44,
      "start": 7.9287,
      "duration": 0.0312,
      "velocity": 91,
      "chip": "ym2612"
    },
    {
      "channel": 1,
      "note": 87,
      "start": 7.9293,
      "duration": 0.031,
      "velocity": 99,
      "chip": "ym2612"
    },
    {
      "channel": 2,
      "note": 80,
      "start": 7.9316,
      "duration": 0.0081,
      "velocity": 95,
      "chip": "ym2612"
    },
    {
      "channel": 2,
      "note": 80,
      "start": 7.9475,
      "duration": 0.008,
      "velocity": 95,
      "chip": "ym2612"
    },
    {
      "channel": 4,
      "note": 85,
      "start": 7.9534,
      "duration": 0.0346,
      "velocity": 99,
      "chip": "ym2612"
    },
    {
      "channel": 0,
      "note": 56,
      "start": 7.9644,
      "duration": 0.0197,
      "velocity": 91,
      "chip": "ym2612"
    },
    {
      "channel": 1,
      "note": 89,
      "start": 7.9649,
      "duration": 0.0329,
      "velocity": 99,
      "chip": "ym2612"
    },
    {
      "channel": 2,
      "note": 97,
      "start": 7.9673,
      "duration": 0.0308,
      "velocity": 95,
      "chip": "ym2612"
    },
    {
      "channel": 3,
      "note": 87,
      "start": 7.9679,
      "duration": 0.0305,
      "velocity": 95,
      "chip": "ym2612"
    },
    {
      "channel": 4,
      "note": 87,
      "start": 7.9909,
      "duration": 0.0328,
      "velocity": 99,
      "chip": "ym2612"
    },
    {
      "channel": 0,
      "note": 42,
      "start": 8.001,
      "duration": 0.0332,
      "velocity": 91,
      "chip": "ym2612"
    },
    {
      "channel": 1,
      "note": 90,
      "start": 8.0015,
      "duration": 0.016,
      "velocity": 99,
      "chip": "ym2612"
    },
    {
      "channel": 2,
      "note": 90,
      "start": 8.0039,
      "duration": 0.0308,
      "velocity": 95,
      "chip": "ym2612"
    },
    {
      "channel": 3,
      "note": 89,
      "start": 8.0048,
      "duration": 0.0302,
      "velocity": 95,
      "chip": "ym2612"
    },
    {
      "channel": 1,
      "note": 89,
      "start": 8.0202,
      "duration": 0.0142,
      "velocity": 99,
      "chip": "ym2612"
    },
    {
      "channel": 4,
      "note": 89,
      "start": 8.0267,
      "duration": 0.026,
      "velocity": 99,
      "chip": "ym2612"
    },
    {
      "channel": 0,
      "note": 54,
      "start": 8.0458,
      "duration": 0.0217,
      "velocity": 91,
      "chip": "ym2612"
    },
    {
      "channel": 1,
      "note": 90,
      "start": 8.0463,
      "duration": 0.5784,
      "velocity": 99,
      "chip": "ym2612"
    },
    {
      "channel": 2,
      "note": 78,
      "start": 8.0491,
      "duration": 0.0091,
      "velocity": 95,
      "chip": "ym2612"
    },
    {
      "channel": 4,
      "note": 90,
      "start": 8.0558,
      "duration": 0.0163,
      "velocity": 99,
      "chip": "ym2612"
    },
    {
      "channel": 2,
      "note": 78,
      "start": 8.0683,
      "duration": 0.0094,
      "velocity": 95,
      "chip": "ym2612"
    },
    {
      "channel": 4,
      "note": 89,
      "start": 8.0756,
      "duration": 0.55,
      "velocity": 99,
      "chip": "ym2612"
    },
    {
      "channel": 0,
      "note": 42,
      "start": 8.0868,
      "duration": 0.0312,
      "velocity": 91,
      "chip": "ym2612"
    },
    {
      "channel": 2,
      "note": 78,
      "start": 8.088,
      "duration": 0.0088,
      "velocity": 95,
      "chip": "ym2612"
    },
    {
      "channel": 2,
      "note": 78,
      "start": 8.1052,
      "duration": 0.0081,
      "velocity": 95,
      "chip": "ym2612"
    },
    {
      "channel": 0,
      "note": 54,
      "start": 8.1215,
      "duration": 0.0181,
      "velocity": 91,
      "chip": "ym2612"
    },
    {
      "channel": 2,
      "note": 78,
      "start": 8.1222,
      "duration": 0.0082,
      "velocity": 95,
      "chip": "ym2612"
    },
    {
      "channel": 2,
      "note": 78,
      "start": 8.1403,
      "duration": 0.0083,
      "velocity": 95,
      "chip": "ym2612"
    },
    {
      "channel": 0,
      "note": 42,
      "start": 8.1579,
      "duration": 0.0301,
      "velocity": 91,
      "chip": "ym2612"
    },
    {
      "channel": 2,
      "note": 78,
      "start": 8.1587,
      "duration": 0.0083,
      "velocity": 95,
      "chip": "ym2612"
    },
    {
      "channel": 2,
      "note": 78,
      "start": 8.1752,
      "duration": 0.0081,
      "velocity": 95,
      "chip": "ym2612"
    },
    {
      "channel": 0,
      "note": 54,
      "start": 8.201,
      "duration": 0.0178,
      "velocity": 91,
      "chip": "ym2612"
    },
    {
      "channel": 2,
      "note": 78,
      "start": 8.2018,
      "duration": 0.0083,
      "velocity": 95,
      "chip": "ym2612"
    },
    {
      "channel": 2,
      "note": 78,
      "start": 8.2195,
      "duration": 0.0084,
      "velocity": 95,
      "chip": "ym2612"
    },
    {
      "channel": 0,
      "note": 42,
      "start": 8.2372,
      "duration": 0.0313,
      "velocity": 91,
      "chip": "ym2612"
    },
    {
      "channel": 2,
      "note": 92,
      "start": 8.2398,
      "duration": 0.0292,
      "velocity": 95,
      "chip": "ym2612"
    },
    {
      "channel": 3,
      "note": 82,
      "start": 8.2405,
      "duration": 0.0289,
      "velocity": 95,
      "chip": "ym2612"
    },
    {
      "channel": 0,
      "note": 54,
      "start": 8.2729,
      "duration": 0.0178,
      "velocity": 91,
      "chip": "ym2612"
    },
    {
      "channel": 2,
      "note": 94,
      "start": 8.2737,
      "duration": 0.0308,
      "velocity": 95,
      "chip": "ym2612"
    },
    {
      "channel": 3,
      "note": 83,
      "start": 8.2743,
      "duration": 0.0305,
      "velocity": 95,
      "chip": "ym2612"
    },
    {
      "channel": 0,
      "note": 42,
      "start": 8.3075,
      "duration": 0.0317,
      "velocity": 91,
      "chip": "ym2612"
    },
    {
      "channel": 2,
      "note": 78,
      "start": 8.3101,
      "duration": 0.0084,
      "velocity": 95,
      "chip": "ym2612"
    },
    {
      "channel": 2,
      "note": 78,
      "start": 8.3265,
      "duration": 0.008,
      "velocity": 95,
      "chip": "ym2612"
    },
    {
      "channel": 0,
      "note": 54,
      "start": 8.3501,
      "duration": 0.0178,
      "velocity": 91,
      "chip": "ym2612"
    },
    {
      "channel": 2,
      "note": 78,
      "start": 8.3509,
      "duration": 0.0082,
      "velocity": 95,
      "chip": "ym2612"
    },
    {
      "channel": 2,
      "note": 78,
      "start": 8.3687,
      "duration": 0.0083,
      "velocity": 95,
      "chip": "ym2612"
    },
    {
      "channel": 0,
      "note": 42,
      "start": 8.3863,
      "duration": 0.032,
      "velocity": 91,
      "chip": "ym2612"
    },
    {
      "channel": 2,
      "note": 92,
      "start": 8.389,
      "duration": 0.0299,
      "velocity": 95,
      "chip": "ym2612"
    },
    {
      "channel": 3,
      "note": 85,
      "start": 8.3897,
      "duration": 0.0295,
      "velocity": 95,
      "chip": "ym2612"
    },
    {
      "channel": 0,
      "note": 54,
      "start": 8.423,
      "duration": 0.0211,
      "velocity": 91,
      "chip": "ym2612"
    },
    {
      "channel": 2,
      "note": 78,
      "start": 8.426,
      "duration": 0.0086,
      "velocity": 95,
      "chip": "ym2612"
    },
    {
      "channel": 2,
      "note": 78,
      "start": 8.4449,
      "duration": 0.0094,
      "velocity": 95,
      "chip": "ym2612"
    },
    {
      "channel": 0,
      "note": 42,
      "start": 8.4649,
      "duration": 0.0372,
      "velocity": 91,
      "chip": "ym2612"
    },
    {
      "channel": 2,
      "note": 78,
      "start": 8.4658,
      "duration": 0.0105,
      "velocity": 95,
      "chip": "ym2612"
    },
    {
      "channel": 2,
      "note": 78,
      "start": 8.4867,
      "duration": 0.0098,
      "velocity": 95,
      "chip": "ym2612"
    },
    {
      "channel": 0,
      "note": 54,
      "start": 8.5117,
      "duration": 0.0213,
      "velocity": 91,
      "chip": "ym2612"
    },
    {
      "channel": 2,
      "note": 94,
      "start": 8.5143,
      "duration": 0.0346,
      "velocity": 95,
      "chip": "ym2612"
    },
    {
      "channel": 3,
      "note": 83,
      "start": 8.5149,
      "duration": 0.0343,
      "velocity": 95,
      "chip": "ym2612"
    },
    {
      "channel": 0,
      "note": 54,
      "start": 8.5529,
      "duration": 0.0176,
      "velocity": 91,
      "chip": "ym2612"
    },
    {
      "channel": 2,
      "note": 78,
      "start": 8.5555,
      "duration": 0.0094,
      "velocity": 95,
      "chip": "ym2612"
    },
    {
      "channel": 0,
      "note": 56,
      "start": 8.5738,
      "duration": 0.015,
      "velocity": 91,
      "chip": "ym2612"
    },
    {
      "channel": 2,
      "note": 78,
      "start": 8.5746,
      "duration": 0.0091,
      "velocity": 95,
      "chip": "ym2612"
    },
    {
      "channel": 0,
      "note": 54,
      "start": 8.5917,
      "duration": 0.0154,
      "velocity": 91,
      "chip": "ym2612"
    },
    {
      "channel": 2,
      "note": 95,
      "start": 8.5943,
      "duration": 0.0306,
      "velocity": 95,
      "chip": "ym2612"
    },
    {
      "channel": 3,
      "note": 85,
      "start": 8.595,
      "duration": 0.0303,
      "velocity": 95,
      "chip": "ym2612"
    },
    {
      "channel": 0,
      "note": 53,
      "start": 8.6113,
      "duration": 0.0131,
      "velocity": 91,
      "chip": "ym2612"
    },
    {
      "channel": 0,
      "note": 51,
      "start": 8.628,
      "duration": 0.0387,
      "velocity": 91,
      "chip": "ym2612"
    },
    {
      "channel": 1,
      "note": 80,
      "start": 8.6304,
      "duration": 0.302,
      "velocity": 100,
      "chip": "ym2612"
    },
    {
      "channel": 2,
      "note": 87,
      "start": 8.6328,
      "duration": 0.0344,
      "velocity": 95,
      "chip": "ym2612"
    },
    {
      "channel": 3,
      "note": 87,
      "start": 8.6335,
      "duration": 0.0339,
      "velocity": 95,
      "chip": "ym2612"
    },
    {
      "channel": 4,
      "note": 90,
      "start": 8.6371,
      "duration": 0.2962,
      "velocity": 100,
      "chip": "ym2612"
    },
    {
      "channel": 0,
      "note": 63,
      "start": 8.6709,
      "duration": 0.0193,
      "velocity": 91,
      "chip": "ym2612"
    },
    {
      "channel": 2,
      "note": 75,
      "start": 8.6735,
      "duration": 0.0079,
      "velocity": 95,
      "chip": "ym2612"
    },
    {
      "channel": 2,
      "note": 75,
      "start": 8.6914,
      "duration": 0.0089,
      "velocity": 95,
      "chip": "ym2612"
    },
    {
      "channel": 0,
      "note": 51,
      "start": 8.7085,
      "duration": 0.0296,
      "velocity": 91,
      "chip": "ym2612"
    },
    {
      "channel": 2,
      "note": 75,
      "start": 8.7093,
      "duration": 0.008,
      "velocity": 95,
      "chip": "ym2612"
    },
    {
      "channel": 2,
      "note": 75,
      "start": 8.7251,
      "duration": 0.0075,
      "velocity": 95,
      "chip": "ym2612"
    },
    {
      "channel": 0,
      "note": 63,
      "start": 8.7428,
      "duration": 0.0178,
      "velocity": 91,
      "chip": "ym2612"
    },
    {
      "channel": 2,
      "note": 75,
      "start": 8.7437,
      "duration": 0.0087,
      "velocity": 95,
      "chip": "ym2612"
    },
    {
      "channel": 2,
      "note": 75,
      "start": 8.7613,
      "duration": 0.0083,
      "velocity": 95,
      "chip": "ym2612"
    },
    {
      "channel": 0,
      "note": 51,
      "start": 8.7774,
      "duration": 0.0291,
      "velocity": 91,
      "chip": "ym2612"
    },
    {
      "channel": 2,
      "note": 75,
      "start": 8.7782,
      "duration": 0.008,
      "velocity": 95,
      "chip": "ym2612"
    },
    {
      "channel": 2,
      "note": 75,
      "start": 8.7941,
      "duration": 0.0078,
      "velocity": 95,
      "chip": "ym2612"
    },
    {
      "channel": 0,
      "note": 63,
      "start": 8.8199,
      "duration": 0.0185,
      "velocity": 91,
      "chip": "ym2612"
    },
    {
      "channel": 2,
      "note": 75,
      "start": 8.8207,
      "duration": 0.0086,
      "velocity": 95,
      "chip": "ym2612"
    },
    {
      "channel": 2,
      "note": 75,
      "start": 8.8392,
      "duration": 0.0092,
      "velocity": 95,
      "chip": "ym2612"
    },
    {
      "channel": 0,
      "note": 51,
      "start": 8.859,
      "duration": 0.0356,
      "velocity": 91,
      "chip": "ym2612"
    },
    {
      "channel": 2,
      "note": 89,
      "start": 8.862,
      "duration": 0.0335,
      "velocity": 95,
      "chip": "ym2612"
    },
    {
      "channel": 3,
      "note": 78,
      "start": 8.8626,
      "duration": 0.0332,
      "velocity": 95,
      "chip": "ym2612"
    },
    {
      "channel": 0,
      "note": 63,
      "start": 8.8993,
      "duration": 0.0198,
      "velocity": 91,
      "chip": "ym2612"
    },
    {
      "channel": 2,
      "note": 90,
      "start": 8.9007,
      "duration": 0.0319,
      "velocity": 95,
      "chip": "ym2612"
    },
    {
      "channel": 3,
      "note": 80,
      "start": 8.9013,
      "duration": 0.0316,
      "velocity": 95,
      "chip": "ym2612"
    },
    {
      "channel": 0,
      "note": 51,
      "start": 8.9357,
      "duration": 0.0338,
      "velocity": 91,
      "chip": "ym2612"
    },
    {
      "channel": 1,
      "note": 80,
      "start": 8.9363,
      "duration": 0.3055,
      "velocity": 100,
      "chip": "ym2612"
    },
    {
      "channel": 2,
      "note": 75,
      "start": 8.9387,
      "duration": 0.0101,
      "velocity": 95,
      "chip": "ym2612"
    },
    {
      "channel": 4,
      "note": 75,
      "start": 8.9398,
      "duration": 0.303,
      "velocity": 100,
      "chip": "ym2612"
    },
    {
      "channel": 2,
      "note": 75,
      "start": 8.9571,
      "duration": 0.0079,
      "velocity": 95,
      "chip": "ym2612"
    },
    {
      "channel": 0,
      "note": 63,
      "start": 8.9787,
      "duration": 0.0178,
      "velocity": 91,
      "chip": "ym2612"
    },
    {
      "channel": 2,
      "note": 75,
      "start": 8.9794,
      "duration": 0.0078,
      "velocity": 95,
      "chip": "ym2612"
    },
    {
      "channel": 2,
      "note": 75,
      "start": 8.9977,
      "duration": 0.0092,
      "velocity": 95,
      "chip": "ym2612"
    },
    {
      "channel": 0,
      "note": 51,
      "start": 9.0164,
      "duration": 0.0315,
      "velocity": 91,
      "chip": "ym2612"
    },
    {
      "channel": 2,
      "note": 89,
      "start": 9.019,
      "duration": 0.0299,
      "velocity": 95,
      "chip": "ym2612"
    },
    {
      "channel": 3,
      "note": 82,
      "start": 9.0196,
      "duration": 0.0296,
      "velocity": 95,
      "chip": "ym2612"
    },
    {
      "channel": 0,
      "note": 63,
      "start": 9.0519,
      "duration": 0.019,
      "velocity": 91,
      "chip": "ym2612"
    },
    {
      "channel": 2,
      "note": 75,
      "start": 9.0546,
      "duration": 0.009,
      "velocity": 95,
      "chip": "ym2612"
    },
    {
      "channel": 2,
      "note": 75,
      "start": 9.0715,
      "duration": 0.0079,
      "velocity": 95,
      "chip": "ym2612"
    },
    {
      "channel": 0,
      "note": 51,
      "start": 9.0877,
      "duration": 0.0288,
      "velocity": 91,
      "chip": "ym2612"
    },
    {
      "channel": 2,
      "note": 75,
      "start": 9.0884,
      "duration": 0.008,
      "velocity": 95,
      "chip": "ym2612"
    },
    {
      "channel": 2,
      "note": 75,
      "start": 9.1042,
      "duration": 0.0076,
      "velocity": 95,
      "chip": "ym2612"
    },
    {
      "channel": 0,
      "note": 63,
      "start": 9.1307,
      "duration": 0.0192,
      "velocity": 91,
      "chip": "ym2612"
    },
    {
      "channel": 2,
      "note": 90,
      "start": 9.1337,
      "duration": 0.0296,
      "velocity": 95,
      "chip": "ym2612"
    },
    {
      "channel": 3,
      "note": 80,
      "start": 9.1343,
      "duration": 0.0293,
      "velocity": 95,
      "chip": "ym2612"
    },
    {
      "channel": 0,
      "note": 51,
      "start": 9.1667,
      "duration": 0.034,
      "velocity": 91,
      "chip": "ym2612"
    },
    {
      "channel": 2,
      "note": 75,
      "start": 9.1693,
      "duration": 0.0082,
      "velocity": 95,
      "chip": "ym2612"
    },
    {
      "channel": 2,
      "note": 75,
      "start": 9.1863,
      "duration": 0.009,
      "velocity": 95,
      "chip": "ym2612"
    },
    {
      "channel": 0,
      "note": 63,
      "start": 9.204,
      "duration": 0.0215,
      "velocity": 91,
      "chip": "ym2612"
    },
    {
      "channel": 2,
      "note": 92,
      "start": 9.2066,
      "duration": 0.0355,
      "velocity": 95,
      "chip": "ym2612"
    },
    {
      "channel": 3,
      "note": 82,
      "start": 9.2074,
      "duration": 0.0351,
      "velocity": 95,
      "chip": "ym2612"
    },
    {
      "channel": 0,
      "note": 51,
      "start": 9.2464,
      "duration": 0.1351,
      "velocity": 91,
      "chip": "ym2612"
    },
    {
      "channel": 1,
      "note": 75,
      "start": 9.249,
      "duration": 0.0396,
      "velocity": 106,
      "chip": "ym2612"
    },
    {
      "channel": 2,
      "note": 75,
      "start": 9.25,
      "duration": 0.0137,
      "velocity": 95,
      "chip": "ym2612"
    },
    {
      "channel": 3,
      "note": 83,
      "start": 9.2507,
      "duration": 0.0133,
      "velocity": 95,
      "chip": "ym2612"
    },
    {
      "channel": 2,
      "note": 75,
      "start": 9.2734,
      "duration": 0.0096,
      "velocity": 95,
      "chip": "ym2612"
    },
    {
      "channel": 3,
      "note": 70,
      "start": 9.2741,
      "duration": 0.0093,
      "velocity": 95,
      "chip": "ym2612"
    },
    {
      "channel": 4,
      "note": 73,
      "start": 9.2808,
      "duration": 0.0345,
      "velocity": 106,
      "chip": "ym2612"
    },
    {
      "channel": 1,
      "note": 77,
      "start": 9.2918,
      "duration": 0.09,
      "velocity": 106,
      "chip": "ym2612"
    },
    {
      "channel": 2,
      "note": 77,
      "start": 9.2923,
      "duration": 0.0089,
      "velocity": 95,
      "chip": "ym2612"
    },
    {
      "channel": 3,
      "note": 70,
      "start": 9.2933,
      "duration": 0.0085,
      "velocity": 95,
      "chip": "ym2612"
    },
    {
      "channel": 2,
      "note": 77,
      "start": 9.3101,
      "duration": 0.0383,
      "velocity": 95,
      "chip": "ym2612"
    },
    {
      "channel": 3,
      "note": 72,
      "start": 9.3107,
      "duration": 0.038,
      "velocity": 95,
      "chip": "ym2612"
    },
    {
      "channel": 4,
      "note": 75,
      "start": 9.3324,
      "duration": 0.1844,
      "velocity": 106,
      "chip": "ym2612"
    },
    {
      "channel": 1,
      "note": 78,
      "start": 9.3989,
      "duration": 0.1844,
      "velocity": 106,
      "chip": "ym2612"
    },
    {
      "channel": 2,
      "note": 78,
      "start": 9.3994,
      "duration": 0.0496,
      "velocity": 95,
      "chip": "ym2612"
    },
    {
      "channel": 3,
      "note": 72,
      "start": 9.4,
      "duration": 0.0493,
      "velocity": 95,
      "chip": "ym2612"
    },
    {
      "channel": 2,
      "note": 78,
      "start": 9.4997,
      "duration": 0.0502,
      "velocity": 95,
      "chip": "ym2612"
    },
    {
      "channel": 3,
      "note": 73,
      "start": 9.5003,
      "duration": 0.0499,
      "velocity": 95,
      "chip": "ym2612"
    },
    {
      "channel": 4,
      "note": 77,
      "start": 9.5339,
      "duration": 0.1848,
      "velocity": 106,
      "chip": "ym2612"
    },
    {
      "channel": 1,
      "note": 80,
      "start": 9.6003,
      "duration": 0.1849,
      "velocity": 106,
      "chip": "ym2612"
    },
    {
      "channel": 2,
      "note": 80,
      "start": 9.6009,
      "duration": 0.0499,
      "velocity": 95,
      "chip": "ym2612"
    },
    {
      "channel": 3,
      "note": 73,
      "start": 9.6015,
      "duration": 0.0496,
      "velocity": 95,
      "chip": "ym2612"
    },
    {
      "channel": 2,
      "note": 80,
      "start": 9.7015,
      "duration": 0.0502,
      "velocity": 95,
      "chip": "ym2612"
    },
    {
      "channel": 3,
      "note": 75,
      "start": 9.7021,
      "duration": 0.05,
      "velocity": 95,
      "chip": "ym2612"
    },
    {
      "channel": 4,
      "note": 78,
      "start": 9.7357,
      "duration": 0.1848,
      "velocity": 106,
      "chip": "ym2612"
    },
    {
      "channel": 1,
      "note": 82,
      "start": 9.8022,
      "duration": 0.1848,
      "velocity": 106,
      "chip": "ym2612"
    },
    {
      "channel": 2,
      "note": 82,
      "start": 9.8027,
      "duration": 0.05,
      "velocity": 95,
      "chip": "ym2612"
    },
    {
      "channel": 3,
      "note": 75,
      "start": 9.8034,
      "duration": 0.0497,
      "velocity": 95,
      "chip": "ym2612"
    },
    {
      "channel": 2,
      "note": 82,
      "start": 9.9034,
      "duration": 0.0503,
      "velocity": 95,
      "chip": "ym2612"
    },
    {
      "channel": 3,
      "note": 77,
      "start": 9.904,
      "duration": 0.05,
      "velocity": 95,
      "chip": "ym2612"
    },
    {
      "channel": 4,
      "note": 80,
      "start": 9.9376,
      "duration": 0.1848,
      "velocity": 106,
      "chip": "ym2612"
    },
    {
      "channel": 1,
      "note": 85,
      "start": 10.0041,
      "duration": 0.1848,
      "velocity": 106,
      "chip": "ym2612"
    },
    {
      "channel": 2,
      "note": 85,
      "start": 10.0046,
      "duration": 0.05,
      "velocity": 95,
      "chip": "ym2612"
    },
    {
      "channel": 3,
      "note": 77,
      "start": 10.0052,
      "duration": 0.0496,
      "velocity": 95,
      "chip": "ym2612"
    },
    {
      "channel": 2,
      "note": 85,
      "start": 10.1052,
      "duration": 0.0503,
      "velocity": 95,
      "chip": "ym2612"
    },
    {
      "channel": 3,
      "note": 80,
      "start": 10.1059,
      "duration": 0.05,
      "velocity": 95,
      "chip": "ym2612"
    },
    {
      "channel": 4,
      "note": 82,
      "start": 10.1395,
      "duration": 0.1848,
      "velocity": 106,
      "chip": "ym2612"
    },
    {
      "channel": 1,
      "note": 87,
      "start": 10.2059,
      "duration": 0.1848,
      "velocity": 106,
      "chip": "ym2612"
    },
    {
      "channel": 2,
      "note": 87,
      "start": 10.2064,
      "duration": 0.05,
      "velocity": 95,
      "chip": "ym2612"
    },
    {
      "channel": 3,
      "note": 80,
      "start": 10.2071,
      "duration": 0.0497,
      "velocity": 95,
      "chip": "ym2612"
    },
    {
      "channel": 2,
      "note": 87,
      "start": 10.3071,
      "duration": 0.0502,
      "velocity": 95,
      "chip": "ym2612"
    },
    {
      "channel": 3,
      "note": 82,
      "start": 10.3077,
      "duration": 0.0499,
      "velocity": 95,
      "chip": "ym2612"
    },
    {
      "channel": 4,
      "note": 85,
      "start": 10.3413,
      "duration": 0.1848,
      "velocity": 106,
      "chip": "ym2612"
    },
    {
      "channel": 1,
      "note": 94,
      "start": 10.4078,
      "duration": 0.1848,
      "velocity": 106,
      "chip": "ym2612"
    },
    {
      "channel": 2,
      "note": 94,
      "start": 10.4083,
      "duration": 0.05,
      "velocity": 95,
      "chip": "ym2612"
    },
    {
      "channel": 3,
      "note": 82,
      "start": 10.4089,
      "duration": 0.0497,
      "velocity": 95,
      "chip": "ym2612"
    },
    {
      "channel": 2,
      "note": 94,
      "start": 10.5089,
      "duration": 0.0502,
      "velocity": 95,
      "chip": "ym2612"
    },
    {
      "channel": 3,
      "note": 89,
      "start": 10.5095,
      "duration": 0.0499,
      "velocity": 95,
      "chip": "ym2612"
    },
    {
      "channel": 4,
      "note": 87,
      "start": 10.5432,
      "duration": 0.1847,
      "velocity": 106,
      "chip": "ym2612"
    },
    {
      "channel": 1,
      "note": 92,
      "start": 10.6097,
      "duration": 0.0838,
      "velocity": 106,
      "chip": "ym2612"
    },
    {
      "channel": 2,
      "note": 92,
      "start": 10.6102,
      "duration": 0.0498,
      "velocity": 95,
      "chip": "ym2612"
    },
    {
      "channel": 3,
      "note": 89,
      "start": 10.6109,
      "duration": 0.0495,
      "velocity": 95,
      "chip": "ym2612"
    },
    {
      "channel": 1,
      "note": 90,
      "start": 10.7105,
      "duration": 0.0839,
      "velocity": 106,
      "chip": "ym2612"
    },
    {
      "channel": 2,
      "note": 90,
      "start": 10.7111,
      "duration": 0.05,
      "velocity": 95,
      "chip": "ym2612"
    },
    {
      "channel": 3,
      "note": 87,
      "start": 10.7117,
      "duration": 0.0496,
      "velocity": 95,
      "chip": "ym2612"
    },
    {
      "channel": 4,
      "note": 94,
      "start": 10.745,
      "duration": 0.0839,
      "velocity": 106,
      "chip": "ym2612"
    },
    {
      "channel": 1,
      "note": 87,
      "start": 10.8114,
      "duration": 0.0839,
      "velocity": 106,
      "chip": "ym2612"
    },
    {
      "channel": 2,
      "note": 87,
      "start": 10.812,
      "duration": 0.05,
      "velocity": 95,
      "chip": "ym2612"
    },
    {
      "channel": 3,
      "note": 85,
      "start": 10.8126,
      "duration": 0.0497,
      "velocity": 95,
      "chip": "ym2612"
    },
    {
      "channel": 4,
      "note": 92,
      "start": 10.8459,
      "duration": 0.0838,
      "velocity": 106,
      "chip": "ym2612"
    },
    {
      "channel": 1,
      "note": 90,
      "start": 10.9124,
      "duration": 0.0839,
      "velocity": 106,
      "chip": "ym2612"
    },
    {
      "channel": 2,
      "note": 90,
      "start": 10.9129,
      "duration": 0.0499,
      "velocity": 95,
      "chip": "ym2612"
    },
    {
      "channel": 3,
      "note": 82,
      "start": 10.9136,
      "duration": 0.0496,
      "velocity": 95,
      "chip": "ym2612"
    },
    {
      "channel": 4,
      "note": 90,
      "start": 10.9469,
      "duration": 0.0839,
      "velocity": 106,
      "chip": "ym2612"
    },
    {
      "channel": 1,
      "note": 85,
      "start": 11.0133,
      "duration": 0.0839,
      "velocity": 106,
      "chip": "ym2612"
    },
    {
      "channel": 2,
      "note": 85,
      "start": 11.0139,
      "duration": 0.0499,
      "velocity": 95,
      "chip": "ym2612"
    },
    {
      "channel": 3,
      "note": 85,
      "start": 11.0145,
      "duration": 0.0496,
      "velocity": 95,
      "chip": "ym2612"
    },
    {
      "channel": 4,
      "note": 87,
      "start": 11.0478,
      "duration": 0.0839,
      "velocity": 106,
      "chip": "ym2612"
    },
    {
      "channel": 1,
      "note": 87,
      "start": 11.1143,
      "duration": 0.0839,
      "velocity": 106,
      "chip": "ym2612"
    },
    {
      "channel": 2,
      "note": 87,
      "start": 11.1148,
      "duration": 0.05,
      "velocity": 95,
      "chip": "ym2612"
    },
    {
      "channel": 3,
      "note": 80,
      "start": 11.1154,
      "duration": 0.0497,
      "velocity": 95,
      "chip": "ym2612"
    },
    {
      "channel": 4,
      "note": 90,
      "start": 11.1487,
      "duration": 0.084,
      "velocity": 106,
      "chip": "ym2612"
    },
    {
      "channel": 1,
      "note": 80,
      "start": 11.2152,
      "duration": 0.0839,
      "velocity": 106,
      "chip": "ym2612"
    },
    {
      "channel": 2,
      "note": 80,
      "start": 11.2159,
      "duration": 0.0498,
      "velocity": 95,
      "chip": "ym2612"
    },
    {
      "channel": 3,
      "note": 82,
      "start": 11.2165,
      "duration": 0.0496,
      "velocity": 95,
      "chip": "ym2612"
    },
    {
      "channel": 4,
      "note": 85,
      "start": 11.2498,
      "duration": 0.0843,
      "velocity": 106,
      "chip": "ym2612"
    },
    {
      "channel": 1,
      "note": 78,
      "start": 11.3162,
      "duration": 0.0838,
      "velocity": 106,
      "chip": "ym2612"
    },
    {
      "channel": 2,
      "note": 78,
      "start": 11.3168,
      "duration": 0.05,
      "velocity": 95,
      "chip": "ym2612"
    },
    {
      "channel": 3,
      "note": 75,
      "start": 11.3178,
      "duration": 0.0495,
      "velocity": 95,
      "chip": "ym2612"
    },
    {
      "channel": 4,
      "note": 87,
      "start": 11.351,
      "duration": 0.071,
      "velocity": 106,
      "chip": "ym2612"
    },
    {
      "channel": 1,
      "note": 75,
      "start": 11.4173,
      "duration": 0.0729,
      "velocity": 106,
      "chip": "ym2612"
    },
    {
      "channel": 2,
      "note": 75,
      "start": 11.4178,
      "duration": 0.0097,
      "velocity": 95,
      "chip": "ym2612"
    },
    {
      "channel": 3,
      "note": 73,
      "start": 11.4185,
      "duration": 0.0094,
      "velocity": 95,
      "chip": "ym2612"
    },
    {
      "channel": 4,
      "note": 80,
      "start": 11.4252,
      "duration": 0.0151,
      "velocity": 106,
      "chip": "ym2612"
    },
    {
      "channel": 2,
      "note": 75,
      "start": 11.4365,
      "duration": 0.0087,
      "velocity": 95,
      "chip": "ym2612"
    },
    {
      "channel": 3,
      "note": 70,
      "start": 11.4371,
      "duration": 0.0084,
      "velocity": 95,
      "chip": "ym2612"
    },
    {
      "channel": 4,
      "note": 78,
      "start": 11.4431,
      "duration": 0.074,
      "velocity": 106,
      "chip": "ym2612"
    },
    {
      "channel": 2,
      "note": 75,
      "start": 11.4607,
      "duration": 0.0085,
      "velocity": 95,
      "chip": "ym2612"
    },
    {
      "channel": 3,
      "note": 70,
      "start": 11.4614,
      "duration": 0.0082,
      "velocity": 95,
      "chip": "ym2612"
    },
    {
      "channel": 2,
      "note": 75,
      "start": 11.4772,
      "duration": 0.0081,
      "velocity": 95,
      "chip": "ym2612"
    },
    {
      "channel": 3,
      "note": 70,
      "start": 11.4778,
      "duration": 0.0078,
      "velocity": 95,
      "chip": "ym2612"
    },
    {
      "channel": 0,
      "note": 58,
      "start": 11.4945,
      "duration": 0.0141,
      "velocity": 91,
      "chip": "ym2612"
    },
    {
      "channel": 1,
      "note": 75,
      "start": 11.495,
      "duration": 0.0139,
      "velocity": 106,
      "chip": "ym2612"
    },
    {
      "channel": 2,
      "note": 75,
      "start": 11.4956,
      "duration": 0.0085,
      "velocity": 95,
      "chip": "ym2612"
    },
    {
      "channel": 3,
      "note": 70,
      "start": 11.4962,
      "duration": 0.0082,
      "velocity": 95,
      "chip": "ym2612"
    },
    {
      "channel": 0,
      "note": 56,
      "start": 11.5121,
      "duration": 0.0146,
      "velocity": 91,
      "chip": "ym2612"
    },
    {
      "channel": 1,
      "note": 78,
      "start": 11.5127,
      "duration": 0.0144,
      "velocity": 106,
      "chip": "ym2612"
    },
    {
      "channel": 2,
      "note": 78,
      "start": 11.5132,
      "duration": 0.0089,
      "velocity": 95,
      "chip": "ym2612"
    },
    {
      "channel": 3,
      "note": 70,
      "start": 11.5138,
      "duration": 0.0086,
      "velocity": 95,
      "chip": "ym2612"
    },
    {
      "channel": 4,
      "note": 75,
      "start": 11.52,
      "duration": 0.0162,
      "velocity": 106,
      "chip": "ym2612"
    },
    {
      "channel": 0,
      "note": 54,
      "start": 11.5313,
      "duration": 0.0143,
      "velocity": 91,
      "chip": "ym2612"
    },
    {
      "channel": 1,
      "note": 80,
      "start": 11.5319,
      "duration": 0.014,
      "velocity": 106,
      "chip": "ym2612"
    },
    {
      "channel": 2,
      "note": 80,
      "start": 11.5324,
      "duration": 0.0086,
      "velocity": 95,
      "chip": "ym2612"
    },
    {
      "channel": 3,
      "note": 73,
      "start": 11.533,
      "duration": 0.0083,
      "velocity": 95,
      "chip": "ym2612"
    },
    {
      "channel": 4,
      "note": 75,
      "start": 11.539,
      "duration": 0.0141,
      "velocity": 106,
      "chip": "ym2612"
    },
    {
      "channel": 0,
      "note": 53,
      "start": 11.5484,
      "duration": 0.0144,
      "velocity": 91,
      "chip": "ym2612"
    },
    {
      "channel": 1,
      "note": 82,
      "start": 11.549,
      "duration": 0.0141,
      "velocity": 106,
      "chip": "ym2612"
    },
    {
      "channel": 2,
      "note": 82,
      "start": 11.5495,
      "duration": 0.0086,
      "velocity": 95,
      "chip": "ym2612"
    },
    {
      "channel": 3,
      "note": 75,
      "start": 11.5501,
      "duration": 0.0083,
      "velocity": 95,
      "chip": "ym2612"
    },
    {
      "channel": 4,
      "note": 78,
      "start": 11.5559,
      "duration": 0.008,
      "velocity": 106,
      "chip": "ym2612"
    },
    {
      "channel": 0,
      "note": 51,
      "start": 11.5657,
      "duration": 0.0151,
      "velocity": 91,
      "chip": "ym2612"
    },
    {
      "channel": 1,
      "note": 87,
      "start": 11.5662,
      "duration": 0.1359,
      "velocity": 106,
      "chip": "ym2612"
    },
    {
      "channel": 2,
      "note": 90,
      "start": 11.5668,
      "duration": 0.0095,
      "velocity": 95,
      "chip": "ym2612"
    },
    {
      "channel": 3,
      "note": 77,
      "start": 11.5674,
      "duration": 0.0093,
      "velocity": 95,
      "chip": "ym2612"
    },
    {
      "channel": 4,
      "note": 80,
      "start": 11.5683,
      "duration": 0.1347,
      "velocity": 106,
      "chip": "ym2612"
    },
    {
      "channel": 0,
      "note": 51,
      "start": 11.5834,
      "duration": 0.0142,
      "velocity": 91,
      "chip": "ym2612"
    },
    {
      "channel": 2,
      "note": 94,
      "start": 11.5842,
      "duration": 0.0089,
      "velocity": 95,
      "chip": "ym2612"
    },
    {
      "channel": 3,
      "note": 87,
      "start": 11.5848,
      "duration": 0.0086,
      "velocity": 95,
      "chip": "ym2612"
    },
    {
      "channel": 0,
      "note": 51,
      "start": 11.6002,
      "duration": 0.014,
      "velocity": 91,
      "chip": "ym2612"
    },
    {
      "channel": 2,
      "note": 90,
      "start": 11.601,
      "duration": 0.0087,
      "velocity": 95,
      "chip": "ym2612"
    },
    {
      "channel": 3,
      "note": 90,
      "start": 11.6016,
      "duration": 0.0084,
      "velocity": 95,
      "chip": "ym2612"
    },
    {
      "channel": 0,
      "note": 51,
      "start": 11.6169,
      "duration": 0.0138,
      "velocity": 91,
      "chip": "ym2612"
    },
    {
      "channel": 2,
      "note": 94,
      "start": 11.6176,
      "duration": 0.0086,
      "velocity": 95,
      "chip": "ym2612"
    },
    {
      "channel": 3,
      "note": 87,
      "start": 11.6183,
      "duration": 0.0083,
      "velocity": 95,
      "chip": "ym2612"
    },
    {
      "channel": 0,
      "note": 51,
      "start": 11.6334,
      "duration": 0.0144,
      "velocity": 91,
      "chip": "ym2612"
    },
    {
      "channel": 2,
      "note": 90,
      "start": 11.6342,
      "duration": 0.009,
      "velocity": 95,
      "chip": "ym2612"
    },
    {
      "channel": 3,
      "note": 90,
      "start": 11.6348,
      "duration": 0.0087,
      "velocity": 95,
      "chip": "ym2612"
    },
    {
      "channel": 0,
      "note": 51,
      "start": 11.651,
      "duration": 0.0146,
      "velocity": 91,
      "chip": "ym2612"
    },
    {
      "channel": 2,
      "note": 94,
      "start": 11.6518,
      "duration": 0.0093,
      "velocity": 95,
      "chip": "ym2612"
    },
    {
      "channel": 3,
      "note": 87,
      "start": 11.6525,
      "duration": 0.0089,
      "velocity": 95,
      "chip": "ym2612"
    },
    {
      "channel": 0,
      "note": 51,
      "start": 11.6691,
      "duration": 0.0145,
      "velocity": 91,
      "chip": "ym2612"
    },
    {
      "channel": 2,
      "note": 90,
      "start": 11.6699,
      "duration": 0.0092,
      "velocity": 95,
      "chip": "ym2612"
    },
    {
      "channel": 3,
      "note": 90,
      "start": 11.6705,
      "duration": 0.0089,
      "velocity": 95,
      "chip": "ym2612"
    },
    {
      "channel": 0,
      "note": 51,
      "start": 11.6871,
      "duration": 0.0148,
      "velocity": 91,
      "chip": "ym2612"
    },
    {
      "channel": 2,
      "note": 94,
      "start": 11.6879,
      "duration": 0.0094,
      "velocity": 95,
      "chip": "ym2612"
    },
    {
      "channel": 3,
      "note": 87,
      "start": 11.6885,
      "duration": 0.0091,
      "velocity": 95,
      "chip": "ym2612"
    },
    {
      "channel": 0,
      "note": 53,
      "start": 11.7052,
      "duration": 0.0168,
      "velocity": 91,
      "chip": "ym2612"
    },
    {
      "channel": 1,
      "note": 89,
      "start": 11.7057,
      "duration": 0.1488,
      "velocity": 106,
      "chip": "ym2612"
    },
    {
      "channel": 2,
      "note": 92,
      "start": 11.7062,
      "duration": 0.0112,
      "velocity": 95,
      "chip": "ym2612"
    },
    {
      "channel": 3,
      "note": 90,
      "start": 11.7069,
      "duration": 0.0109,
      "velocity": 95,
      "chip": "ym2612"
    },
    {
      "channel": 4,
      "note": 82,
      "start": 11.7075,
      "duration": 0.1479,
      "velocity": 106,
      "chip": "ym2612"
    },
    {
      "channel": 0,
      "note": 53,
      "start": 11.7251,
      "duration": 0.0153,
      "velocity": 91,
      "chip": "ym2612"
    },
    {
      "channel": 2,
      "note": 96,
      "start": 11.7258,
      "duration": 0.0096,
      "velocity": 95,
      "chip": "ym2612"
    },
    {
      "channel": 3,
      "note": 89,
      "start": 11.7265,
      "duration": 0.0093,
      "velocity": 95,
      "chip": "ym2612"
    },
    {
      "channel": 0,
      "note": 53,
      "start": 11.7432,
      "duration": 0.016,
      "velocity": 91,
      "chip": "ym2612"
    },
    {
      "channel": 2,
      "note": 92,
      "start": 11.744,
      "duration": 0.0099,
      "velocity": 95,
      "chip": "ym2612"
    },
    {
      "channel": 3,
      "note": 92,
      "start": 11.7446,
      "duration": 0.0096,
      "velocity": 95,
      "chip": "ym2612"
    },
    {
      "channel": 0,
      "note": 53,
      "start": 11.7626,
      "duration": 0.0163,
      "velocity": 91,
      "chip": "ym2612"
    },
    {
      "channel": 2,
      "note": 96,
      "start": 11.7635,
      "duration": 0.0102,
      "velocity": 95,
      "chip": "ym2612"
    },
    {
      "channel": 3,
      "note": 89,
      "start": 11.7641,
      "duration": 0.01,
      "velocity": 95,
      "chip": "ym2612"
    },
    {
      "channel": 0,
      "note": 53,
      "start": 11.7824,
      "duration": 0.0165,
      "velocity": 91,
      "chip": "ym2612"
    },
    {
      "channel": 2,
      "note": 92,
      "start": 11.7833,
      "duration": 0.0105,
      "velocity": 95,
      "chip": "ym2612"
    },
    {
      "channel": 3,
      "note": 92,
      "start": 11.7842,
      "duration": 0.0102,
      "velocity": 95,
      "chip": "ym2612"
    },
    {
      "channel": 0,
      "note": 53,
      "start": 11.8023,
      "duration": 0.0164,
      "velocity": 91,
      "chip": "ym2612"
    },
    {
      "channel": 2,
      "note": 96,
      "start": 11.8035,
      "duration": 0.01,
      "velocity": 95,
      "chip": "ym2612"
    },
    {
      "channel": 3,
      "note": 89,
      "start": 11.8041,
      "duration": 0.0097,
      "velocity": 95,
      "chip": "ym2612"
    },
    {
      "channel": 0,
      "note": 53,
      "start": 11.8222,
      "duration": 0.0146,
      "velocity": 91,
      "chip": "ym2612"
    },
    {
      "channel": 2,
      "note": 92,
      "start": 11.823,
      "duration": 0.0092,
      "velocity": 95,
      "chip": "ym2612"
    },
    {
      "channel": 3,
      "note": 92,
      "start": 11.8236,
      "duration": 0.0089,
      "velocity": 95,
      "chip": "ym2612"
    },
    {
      "channel": 0,
      "note": 53,
      "start": 11.8396,
      "duration": 0.0147,
      "velocity": 91,
      "chip": "ym2612"
    },
    {
      "channel": 2,
      "note": 96,
      "start": 11.8404,
      "duration": 0.0092,
      "velocity": 95,
      "chip": "ym2612"
    },
    {
      "channel": 3,
      "note": 89,
      "start": 11.841,
      "duration": 0.0089,
      "velocity": 95,
      "chip": "ym2612"
    },
    {
      "channel": 0,
      "note": 54,
      "start": 11.8576,
      "duration": 0.0151,
      "velocity": 91,
      "chip": "ym2612"
    },
    {
      "channel": 1,
      "note": 90,
      "start": 11.8581,
      "duration": 0.1367,
      "velocity": 106,
      "chip": "ym2612"
    },
    {
      "channel": 2,
      "note": 94,
      "start": 11.8587,
      "duration": 0.0095,
      "velocity": 95,
      "chip": "ym2612"
    },
    {
      "channel": 3,
      "note": 92,
      "start": 11.8593,
      "duration": 0.0091,
      "velocity": 95,
      "chip": "ym2612"
    },
    {
      "channel": 4,
      "note": 84,
      "start": 11.8601,
      "duration": 0.1356,
      "velocity": 106,
      "chip": "ym2612"
    },
    {
      "channel": 0,
      "note": 54,
      "start": 11.8761,
      "duration": 0.0142,
      "velocity": 91,
      "chip": "ym2612"
    },
    {
      "channel": 2,
      "note": 97,
      "start": 11.8768,
      "duration": 0.009,
      "velocity": 95,
      "chip": "ym2612"
    },
    {
      "channel": 3,
      "note": 90,
      "start": 11.8775,
      "duration": 0.0087,
      "velocity": 95,
      "chip": "ym2612"
    },
    {
      "channel": 0,
      "note": 54,
      "start": 11.8929,
      "duration": 0.0138,
      "velocity": 91,
      "chip": "ym2612"
    },
    {
      "channel": 2,
      "note": 94,
      "start": 11.8937,
      "duration": 0.0086,
      "velocity": 95,
      "chip": "ym2612"
    },
    {
      "channel": 3,
      "note": 94,
      "start": 11.8944,
      "duration": 0.0083,
      "velocity": 95,
      "chip": "ym2612"
    },
    {
      "channel": 0,
      "note": 54,
      "start": 11.9094,
      "duration": 0.0142,
      "velocity": 91,
      "chip": "ym2612"
    },
    {
      "channel": 2,
      "note": 97,
      "start": 11.9102,
      "duration": 0.009,
      "velocity": 95,
      "chip": "ym2612"
    },
    {
      "channel": 3,
      "note": 90,
      "start": 11.9108,
      "duration": 0.0087,
      "velocity": 95,
      "chip": "ym2612"
    },
    {
      "channel": 0,
      "note": 54,
      "start": 11.9263,
      "duration": 0.0142,
      "velocity": 91,
      "chip": "ym2612"
    },
    {
      "channel": 2,
      "note": 94,
      "start": 11.9271,
      "duration": 0.0089,
      "velocity": 95,
      "chip": "ym2612"
    },
    {
      "channel": 3,
      "note": 94,
      "start": 11.9278,
      "duration": 0.0086,
      "velocity": 95,
      "chip": "ym2612"
    },
    {
      "channel": 0,
      "note": 54,
      "start": 11.9439,
      "duration": 0.0146,
      "velocity": 91,
      "chip": "ym2612"
    },
    {
      "channel": 2,
      "note": 97,
      "start": 11.9447,
      "duration": 0.0093,
      "velocity": 95,
      "chip": "ym2612"
    },
    {
      "channel": 3,
      "note": 90,
      "start": 11.9454,
      "duration": 0.009,
      "velocity": 95,
      "chip": "ym2612"
    },
    {
      "channel": 0,
      "note": 54,
      "start": 11.9619,
      "duration": 0.0147,
      "velocity": 91,
      "chip": "ym2612"
    },
    {
      "channel": 2,
      "note": 94,
      "start": 11.9627,
      "duration": 0.0092,
      "velocity": 95,
      "chip": "ym2612"
    },
    {
      "channel": 3,
      "note": 94,
      "start": 11.9634,
      "duration": 0.0089,
      "velocity": 95,
      "chip": "ym2612"
    },
    {
      "channel": 0,
      "note": 54,
      "start": 11.9799,
      "duration": 0.0147,
      "velocity": 91,
      "chip": "ym2612"
    },
    {
      "channel": 2,
      "note": 97,
      "start": 11.9807,
      "duration": 0.0092,
      "velocity": 95,
      "chip": "ym2612"
    },
    {
      "channel": 3,
      "note": 90,
      "start": 11.9813,
      "duration": 0.0089,
      "velocity": 95,
      "chip": "ym2612"
    },
    {
      "channel": 0,
      "note": 56,
      "start": 11.9974,
      "duration": 0.0148,
      "velocity": 91,
      "chip": "ym2612"
    },
    {
      "channel": 1,
      "note": 92,
      "start": 11.9979,
      "duration": 0.1398,
      "velocity": 106,
      "chip": "ym2612"
    },
    {
      "channel": 2,
      "note": 95,
      "start": 11.9985,
      "duration": 0.0092,
      "velocity": 95,
      "chip": "ym2612"
    },
    {
      "channel": 3,
      "note": 94,
      "start": 11.9991,
      "duration": 0.0089,
      "velocity": 95,
      "chip": "ym2612"
    },
    {
      "channel": 4,
      "note": 85,
      "start": 11.9998,
      "duration": 0.139,
      "velocity": 106,
      "chip": "ym2612"
    },
    {
      "channel": 0,
      "note": 56,
      "start": 12.0149,
      "duration": 0.0144,
      "velocity": 91,
      "chip": "ym2612"
    },
    {
      "channel": 2,
      "note": 99,
      "start": 12.0157,
      "duration": 0.009,
      "velocity": 95,
      "chip": "ym2612"
    },
    {
      "channel": 3,
      "note": 92,
      "start": 12.0163,
      "duration": 0.0087,
      "velocity": 95,
      "chip": "ym2612"
    },
    {
      "channel": 0,
      "note": 56,
      "start": 12.0324,
      "duration": 0.0144,
      "velocity": 91,
      "chip": "ym2612"
    },
    {
      "channel": 2,
      "note": 95,
      "start": 12.0332,
      "duration": 0.0091,
      "velocity": 95,
      "chip": "ym2612"
    },
    {
      "channel": 3,
      "note": 95,
      "start": 12.0338,
      "duration": 0.0088,
      "velocity": 95,
      "chip": "ym2612"
    },
    {
      "channel": 0,
      "note": 56,
      "start": 12.0499,
      "duration": 0.0145,
      "velocity": 91,
      "chip": "ym2612"
    },
    {
      "channel": 2,
      "note": 99,
      "start": 12.0507,
      "duration": 0.0092,
      "velocity": 95,
      "chip": "ym2612"
    },
    {
      "channel": 3,
      "note": 92,
      "start": 12.0513,
      "duration": 0.0089,
      "velocity": 95,
      "chip": "ym2612"
    },
    {
      "channel": 0,
      "note": 56,
      "start": 12.0671,
      "duration": 0.0144,
      "velocity": 91,
      "chip": "ym2612"
    },
    {
      "channel": 2,
      "note": 95,
      "start": 12.0679,
      "duration": 0.0091,
      "velocity": 95,
      "chip": "ym2612"
    },
    {
      "channel": 3,
      "note": 95,
      "start": 12.0685,
      "duration": 0.0088,
      "velocity": 95,
      "chip": "ym2612"
    },
    {
      "channel": 0,
      "note": 56,
      "start": 12.0848,
      "duration": 0.0146,
      "velocity": 91,
      "chip": "ym2612"
    },
    {
      "channel": 2,
      "note": 99,
      "start": 12.0856,
      "duration": 0.009,
      "velocity": 95,
      "chip": "ym2612"
    },
    {
      "channel": 3,
      "note": 92,
      "start": 12.0862,
      "duration": 0.0087,
      "velocity": 95,
      "chip": "ym2612"
    },
    {
      "channel": 0,
      "note": 56,
      "start": 12.1026,
      "duration": 0.015,
      "velocity": 91,
      "chip": "ym2612"
    },
    {
      "channel": 2,
      "note": 95,
      "start": 12.1034,
      "duration": 0.0094,
      "velocity": 95,
      "chip": "ym2612"
    },
    {
      "channel": 3,
      "note": 95,
      "start": 12.104,
      "duration": 0.0091,
      "velocity": 95,
      "chip": "ym2612"
    },
    {
      "channel": 0,
      "note": 56,
      "start": 12.1212,
      "duration": 0.0163,
      "velocity": 91,
      "chip": "ym2612"
    },
    {
      "channel": 2,
      "note": 99,
      "start": 12.1221,
      "duration": 0.01,
      "velocity": 95,
      "chip": "ym2612"
    },
    {
      "channel": 3,
      "note": 92,
      "start": 12.1227,
      "duration": 0.0097,
      "velocity": 95,
      "chip": "ym2612"
    },
    {
      "channel": 0,
      "note": 61,
      "start": 12.1412,
      "duration": 0.0167,
      "velocity": 91,
      "chip": "ym2612"
    },
    {
      "channel": 1,
      "note": 94,
      "start": 12.1418,
      "duration": 0.0732,
      "velocity": 106,
      "chip": "ym2612"
    },
    {
      "channel": 2,
      "note": 97,
      "start": 12.1424,
      "duration": 0.0102,
      "velocity": 95,
      "chip": "ym2612"
    },
    {
      "channel": 3,
      "note": 95,
      "start": 12.1434,
      "duration": 0.0096,
      "velocity": 95,
      "chip": "ym2612"
    },
    {
      "channel": 4,
      "note": 87,
      "start": 12.1442,
      "duration": 0.0716,
      "velocity": 106,
      "chip": "ym2612"
    },
    {
      "channel": 0,
      "note": 61,
      "start": 12.1611,
      "duration": 0.0156,
      "velocity": 91,
      "chip": "ym2612"
    },
    {
      "channel": 2,
      "note": 101,
      "start": 12.1619,
      "duration": 0.0098,
      "velocity": 95,
      "chip": "ym2612"
    },
    {
      "channel": 3,
      "note": 94,
      "start": 12.1628,
      "duration": 0.0095,
      "velocity": 95,
      "chip": "ym2612"
    },
    {
      "channel": 0,
      "note": 61,
      "start": 12.1812,
      "duration": 0.0156,
      "velocity": 91,
      "chip": "ym2612"
    },
    {
      "channel": 2,
      "note": 97,
      "start": 12.1823,
      "duration": 0.0095,
      "velocity": 95,
      "chip": "ym2612"
    },
    {
      "channel": 3,
      "note": 97,
      "start": 12.1829,
      "duration": 0.0092,
      "velocity": 95,
      "chip": "ym2612"
    },
    {
      "channel": 0,
      "note": 61,
      "start": 12.2009,
      "duration": 0.0138,
      "velocity": 91,
      "chip": "ym2612"
    },
    {
      "channel": 2,
      "note": 101,
      "start": 12.2016,
      "duration": 0.0085,
      "velocity": 95,
      "chip": "ym2612"
    },
    {
      "channel": 3,
      "note": 94,
      "start": 12.2022,
      "duration": 0.0082,
      "velocity": 95,
      "chip": "ym2612"
    },
    {
      "channel": 0,
      "note": 59,
      "start": 12.2175,
      "duration": 0.0142,
      "velocity": 91,
      "chip": "ym2612"
    },
    {
      "channel": 1,
      "note": 97,
      "start": 12.218,
      "duration": 0.0755,
      "velocity": 106,
      "chip": "ym2612"
    },
    {
      "channel": 2,
      "note": 101,
      "start": 12.2186,
      "duration": 0.0086,
      "velocity": 95,
      "chip": "ym2612"
    },
    {
      "channel": 3,
      "note": 97,
      "start": 12.2192,
      "duration": 0.0083,
      "velocity": 95,
      "chip": "ym2612"
    },
    {
      "channel": 4,
      "note": 89,
      "start": 12.2199,
      "duration": 0.0745,
      "velocity": 106,
      "chip": "ym2612"
    },
    {
      "channel": 0,
      "note": 59,
      "start": 12.2434,
      "duration": 0.0139,
      "velocity": 91,
      "chip": "ym2612"
    },
    {
      "channel": 2,
      "note": 104,
      "start": 12.2442,
      "duration": 0.0087,
      "velocity": 95,
      "chip": "ym2612"
    },
    {
      "channel": 3,
      "note": 97,
      "start": 12.2449,
      "duration": 0.0083,
      "velocity": 95,
      "chip": "ym2612"
    },
    {
      "channel": 0,
      "note": 59,
      "start": 12.2616,
      "duration": 0.0139,
      "velocity": 91,
      "chip": "ym2612"
    },
    {
      "channel": 2,
      "note": 101,
      "start": 12.2624,
      "duration": 0.0086,
      "velocity": 95,
      "chip": "ym2612"
    },
    {
      "channel": 3,
      "note": 101,
      "start": 12.263,
      "duration": 0.0083,
      "velocity": 95,
      "chip": "ym2612"
    },
    {
      "channel": 0,
      "note": 59,
      "start": 12.2792,
      "duration": 0.014,
      "velocity": 91,
      "chip": "ym2612"
    },
    {
      "channel": 2,
      "note": 104,
      "start": 12.28,
      "duration": 0.0088,
      "velocity": 95,
      "chip": "ym2612"
    },
    {
      "channel": 3,
      "note": 97,
      "start": 12.2806,
      "duration": 0.0085,
      "velocity": 95,
      "chip": "ym2612"
    },
    {
      "channel": 0,
      "note": 58,
      "start": 12.296,
      "duration": 0.0142,
      "velocity": 91,
      "chip": "ym2612"
    },
    {
      "channel": 1,
      "note": 99,
      "start": 12.2966,
      "duration": 0.0755,
      "velocity": 106,
      "chip": "ym2612"
    },
    {
      "channel": 2,
      "note": 102,
      "start": 12.2971,
      "duration": 0.0086,
      "velocity": 95,
      "chip": "ym2612"
    },
    {
      "channel": 3,
      "note": 101,
      "start": 12.2977,
      "duration": 0.0083,
      "velocity": 95,
      "chip": "ym2612"
    },
    {
      "channel": 4,
      "note": 89,
      "start": 12.2984,
      "duration": 0.0746,
      "velocity": 106,
      "chip": "ym2612"
    },
    {
      "channel": 0,
      "note": 58,
      "start": 12.3222,
      "duration": 0.0139,
      "velocity": 91,
      "chip": "ym2612"
    },
    {
      "channel": 2,
      "note": 106,
      "start": 12.3229,
      "duration": 0.0086,
      "velocity": 95,
      "chip": "ym2612"
    },
    {
      "channel": 3,
      "note": 99,
      "start": 12.3236,
      "duration": 0.0083,
      "velocity": 95,
      "chip": "ym2612"
    },
    {
      "channel": 0,
      "note": 58,
      "start": 12.3403,
      "duration": 0.0139,
      "velocity": 91,
      "chip": "ym2612"
    },
    {
      "channel": 2,
      "note": 102,
      "start": 12.3411,
      "duration": 0.0087,
      "velocity": 95,
      "chip": "ym2612"
    },
    {
      "channel": 3,
      "note": 102,
      "start": 12.3417,
      "duration": 0.0084,
      "velocity": 95,
      "chip": "ym2612"
    },
    {
      "channel": 0,
      "note": 58,
      "start": 12.358,
      "duration": 0.0138,
      "velocity": 91,
      "chip": "ym2612"
    },
    {
      "channel": 2,
      "note": 106,
      "start": 12.3587,
      "duration": 0.0086,
      "velocity": 95,
      "chip": "ym2612"
    },
    {
      "channel": 3,
      "note": 99,
      "start": 12.3593,
      "duration": 0.0083,
      "velocity": 95,
      "chip": "ym2612"
    },
    {
      "channel": 0,
      "note": 56,
      "start": 12.3747,
      "duration": 0.0143,
      "velocity": 91,
      "chip": "ym2612"
    },
    {
      "channel": 1,
      "note": 104,
      "start": 12.3752,
      "duration": 0.0755,
      "velocity": 106,
      "chip": "ym2612"
    },
    {
      "channel": 2,
      "note": 107,
      "start": 12.3758,
      "duration": 0.0087,
      "velocity": 95,
      "chip": "ym2612"
    },
    {
      "channel": 3,
      "note": 102,
      "start": 12.3764,
      "duration": 0.0084,
      "velocity": 95,
      "chip": "ym2612"
    },
    {
      "channel": 4,
      "note": 87,
      "start": 12.3771,
      "duration": 0.0745,
      "velocity": 106,
      "chip": "ym2612"
    },
    {
      "channel": 0,
      "note": 56,
      "start": 12.4008,
      "duration": 0.0139,
      "velocity": 91,
      "chip": "ym2612"
    },
    {
      "channel": 2,
      "note": 111,
      "start": 12.4015,
      "duration": 0.0085,
      "velocity": 95,
      "chip": "ym2612"
    },
    {
      "channel": 3,
      "note": 104,
      "start": 12.4022,
      "duration": 0.0082,
      "velocity": 95,
      "chip": "ym2612"
    },
    {
      "channel": 0,
      "note": 56,
      "start": 12.4189,
      "duration": 0.0138,
      "velocity": 91,
      "chip": "ym2612"
    },
    {
      "channel": 2,
      "note": 107,
      "start": 12.4197,
      "duration": 0.0085,
      "velocity": 95,
      "chip": "ym2612"
    },
    {
      "channel": 3,
      "note": 107,
      "start": 12.4203,
      "duration": 0.0082,
      "velocity": 95,
      "chip": "ym2612"
    },
    {
      "channel": 0,
      "note": 56,
      "start": 12.4365,
      "duration": 0.0139,
      "velocity": 91,
      "chip": "ym2612"
    },
    {
      "channel": 2,
      "note": 111,
      "start": 12.4373,
      "duration": 0.0086,
      "velocity": 95,
      "chip": "ym2612"
    },
    {
      "channel": 3,
      "note": 104,
      "start": 12.4379,
      "duration": 0.0083,
      "velocity": 95,
      "chip": "ym2612"
    },
    {
      "channel": 1,
      "note": 87,
      "start": 12.4596,
      "duration": 0.0234,
      "velocity": 101,
      "chip": "ym2612"
    },
    {
      "channel": 2,
      "note": 75,
      "start": 12.4627,
      "duration": 0.0206,
      "velocity": 101,
      "chip": "ym2612"
    },
    {
      "channel": 3,
      "note": 107,
      "start": 12.4664,
      "duration": 0.0172,
      "velocity": 101,
      "chip": "ym2612"
    },
    {
      "channel": 4,
      "note": 83,
      "start": 12.4701,
      "duration": 0.0139,
      "velocity": 101,
      "chip": "ym2612"
    },
    {
      "channel": 1,
      "note": 87,
      "start": 12.4859,
      "duration": 0.0134,
      "velocity": 101,
      "chip": "ym2612"
    },
    {
      "channel": 2,
      "note": 75,
      "start": 12.4864,
      "duration": 0.0131,
      "velocity": 101,
      "chip": "ym2612"
    },
    {
      "channel": 3,
      "note": 82,
      "start": 12.487,
      "duration": 0.0128,
      "velocity": 101,
      "chip": "ym2612"
    },
    {
      "channel": 4,
      "note": 75,
      "start": 12.4877,
      "duration": 0.0125,
      "velocity": 101,
      "chip": "ym2612"
    },
    {
      "channel": 1,
      "note": 87,
      "start": 12.5021,
      "duration": 0.0134,
      "velocity": 101,
      "chip": "ym2612"
    },
    {
      "channel": 2,
      "note": 75,
      "start": 12.5026,
      "duration": 0.0132,
      "velocity": 101,
      "chip": "ym2612"
    },
    {
      "channel": 3,
      "note": 82,
      "start": 12.5033,
      "duration": 0.0129,
      "velocity": 101,
      "chip": "ym2612"
    },
    {
      "channel": 4,
      "note": 75,
      "start": 12.5039,
      "duration": 0.0126,
      "velocity": 101,
      "chip": "ym2612"
    },
    {
      "channel": 2,
      "note": 63,
      "start": 12.519,
      "duration": 0.0639,
      "velocity": 101,
      "chip": "ym2612"
    },
    {
      "channel": 3,
      "note": 82,
      "start": 12.5196,
      "duration": 0.0635,
      "velocity": 101,
      "chip": "ym2612"
    },
    {
      "channel": 2,
      "note": 63,
      "start": 12.5999,
      "duration": 0.0839,
      "velocity": 101,
      "chip": "ym2612"
    },
    {
      "channel": 3,
      "note": 70,
      "start": 12.6005,
      "duration": 0.0836,
      "velocity": 101,
      "chip": "ym2612"
    },
    {
      "channel": 2,
      "note": 63,
      "start": 12.7008,
      "duration": 0.084,
      "velocity": 101,
      "chip": "ym2612"
    },
    {
      "channel": 3,
      "note": 70,
      "start": 12.7015,
      "duration": 0.0836,
      "velocity": 101,
      "chip": "ym2612"
    },
    {
      "channel": 1,
      "note": 87,
      "start": 12.8016,
      "duration": 0.0838,
      "velocity": 101,
      "chip": "ym2612"
    },
    {
      "channel": 2,
      "note": 75,
      "start": 12.8022,
      "duration": 0.0838,
      "velocity": 101,
      "chip": "ym2612"
    },
    {
      "channel": 3,
      "note": 70,
      "start": 12.8032,
      "duration": 0.0831,
      "velocity": 101,
      "chip": "ym2612"
    },
    {
      "channel": 4,
      "note": 75,
      "start": 12.8038,
      "duration": 0.0828,
      "velocity": 101,
      "chip": "ym2612"
    },
    {
      "channel": 1,
      "note": 87,
      "start": 12.9027,
      "duration": 0.0839,
      "velocity": 101,
      "chip": "ym2612"
    },
    {
      "channel": 2,
      "note": 75,
      "start": 12.9032,
      "duration": 0.0836,
      "velocity": 101,
      "chip": "ym2612"
    },
    {
      "channel": 3,
      "note": 82,
      "start": 12.9039,
      "duration": 0.0833,
      "velocity": 101,
      "chip": "ym2612"
    },
    {
      "channel": 4,
      "note": 75,
      "start": 12.9045,
      "duration": 0.083,
      "velocity": 101,
      "chip": "ym2612"
    },
    {
      "channel": 1,
      "note": 87,
      "start": 13.0036,
      "duration": 0.0838,
      "velocity": 101,
      "chip": "ym2612"
    },
    {
      "channel": 2,
      "note": 75,
      "start": 13.0041,
      "duration": 0.0835,
      "velocity": 101,
      "chip": "ym2612"
    },
    {
      "channel": 3,
      "note": 82,
      "start": 13.0047,
      "duration": 0.0832,
      "velocity": 101,
      "chip": "ym2612"
    },
    {
      "channel": 4,
      "note": 75,
      "start": 13.0054,
      "duration": 0.0829,
      "velocity": 101,
      "chip": "ym2612"
    },
    {
      "channel": 2,
      "note": 63,
      "start": 13.1046,
      "duration": 0.0838,
      "velocity": 101,
      "chip": "ym2612"
    },
    {
      "channel": 3,
      "note": 82,
      "start": 13.1053,
      "duration": 0.0835,
      "velocity": 101,
      "chip": "ym2612"
    },
    {
      "channel": 2,
      "note": 63,
      "start": 13.2054,
      "duration": 0.0839,
      "velocity": 101,
      "chip": "ym2612"
    },
    {
      "channel": 3,
      "note": 70,
      "start": 13.2061,
      "duration": 0.0836,
      "velocity": 101,
      "chip": "ym2612"
    },
    {
      "channel": 2,
      "note": 63,
      "start": 13.3064,
      "duration": 0.0839,
      "velocity": 101,
      "chip": "ym2612"
    },
    {
      "channel": 3,
      "note": 70,
      "start": 13.307,
      "duration": 0.0836,
      "velocity": 101,
      "chip": "ym2612"
    },
    {
      "channel": 1,
      "note": 87,
      "start": 13.4071,
      "duration": 0.0839,
      "velocity": 101,
      "chip": "ym2612"
    },
    {
      "channel": 2,
      "note": 75,
      "start": 13.4076,
      "duration": 0.0836,
      "velocity": 101,
      "chip": "ym2612"
    },
    {
      "channel": 3,
      "note": 70,
      "start": 13.4082,
      "duration": 0.0833,
      "velocity": 101,
      "chip": "ym2612"
    },
    {
      "channel": 4,
      "note": 75,
      "start": 13.4089,
      "duration": 0.083,
      "velocity": 101,
      "chip": "ym2612"
    },
    {
      "channel": 1,
      "note": 87,
      "start": 13.508,
      "duration": 0.084,
      "velocity": 101,
      "chip": "ym2612"
    },
    {
      "channel": 2,
      "note": 75,
      "start": 13.5085,
      "duration": 0.0837,
      "velocity": 101,
      "chip": "ym2612"
    },
    {
      "channel": 3,
      "note": 82,
      "start": 13.5091,
      "duration": 0.0834,
      "velocity": 101,
      "chip": "ym2612"
    },
    {
      "channel": 4,
      "note": 75,
      "start": 13.5098,
      "duration": 0.0831,
      "velocity": 101,
      "chip": "ym2612"
    },
    {
      "channel": 0,
      "note": 58,
      "start": 13.6086,
      "duration": 0.0328,
      "velocity": 91,
      "chip": "ym2612"
    },
    {
      "channel": 1,
      "note": 87,
      "start": 13.6092,
      "duration": 0.0149,
      "velocity": 101,
      "chip": "ym2612"
    },
    {
      "channel": 2,
      "note": 75,
      "start": 13.6097,
      "duration": 0.0146,
      "velocity": 101,
      "chip": "ym2612"
    },
    {
      "channel": 3,
      "note": 82,
      "start": 13.6103,
      "duration": 0.0144,
      "velocity": 101,
      "chip": "ym2612"
    },
    {
      "channel": 4,
      "note": 75,
      "start": 13.611,
      "duration": 0.014,
      "velocity": 101,
      "chip": "ym2612"
    },
    {
      "channel": 1,
      "note": 87,
      "start": 13.6271,
      "duration": 0.0145,
      "velocity": 101,
      "chip": "ym2612"
    },
    {
      "channel": 2,
      "note": 75,
      "start": 13.6277,
      "duration": 0.0142,
      "velocity": 101,
      "chip": "ym2612"
    },
    {
      "channel": 3,
      "note": 82,
      "start": 13.6283,
      "duration": 0.0139,
      "velocity": 101,
      "chip": "ym2612"
    },
    {
      "channel": 4,
      "note": 75,
      "start": 13.629,
      "duration": 0.0136,
      "velocity": 101,
      "chip": "ym2612"
    },
    {
      "channel": 0,
      "note": 51,
      "start": 13.6497,
      "duration": 0.0415,
      "velocity": 91,
      "chip": "ym2612"
    },
    {
      "channel": 1,
      "note": 80,
      "start": 13.6521,
      "duration": 40.4121,
      "velocity": 100,
      "chip": "ym2612"
    },
    {
      "channel": 2,
      "note": 87,
      "start": 13.6547,
      "duration": 0.0371,
      "velocity": 95,
      "chip": "ym2612"
    },
    {
      "channel": 3,
      "note": 82,
      "start": 13.658,
      "duration": 0.0341,
      "velocity": 95,
      "chip": "ym2612"
    },
    {
      "channel": 4,
      "note": 75,
      "start": 13.6617,
      "duration": 40.4025,
      "velocity": 100,
      "chip": "ym2612"
    },
    {
      "channel": 0,
      "note": 63,
      "start": 13.6947,
      "duration": 0.0193,
      "velocity": 91,
      "chip": "ym2612"
    },
    {
      "channel": 2,
      "note": 75,
      "start": 13.6973,
      "duration": 0.0078,
      "velocity": 95,
      "chip": "ym2612"
    },
    {
      "channel": 2,
      "note": 75,
      "start": 13.7152,
      "duration": 0.009,
      "velocity": 95,
      "chip": "ym2612"
    },
    {
      "channel": 0,
      "note": 51,
      "start": 13.7323,
      "duration": 0.0296,
      "velocity": 91,
      "chip": "ym2612"
    },
    {
      "channel": 2,
      "note": 75,
      "start": 13.7331,
      "duration": 0.0079,
      "velocity": 95,
      "chip": "ym2612"
    },
    {
      "channel": 2,
      "note": 75,
      "start": 13.7488,
      "duration": 0.0076,
      "velocity": 95,
      "chip": "ym2612"
    },
    {
      "channel": 0,
      "note": 63,
      "start": 13.7666,
      "duration": 0.0178,
      "velocity": 91,
      "chip": "ym2612"
    },
    {
      "channel": 2,
      "note": 75,
      "start": 13.7675,
      "duration": 0.0088,
      "velocity": 95,
      "chip": "ym2612"
    },
    {
      "channel": 2,
      "note": 75,
      "start": 13.785,
      "duration": 40.2792,
      "velocity": 95,
      "chip": "ym2612"
    }
  ]
}