{
  "track_name": "19 - Emperor",
  "duration_sec": 23.102,
  "sample_rate": 44100,
  "note_count": 99,
  "unique_pitches": 10,
  "pitch_range": 22,
  "avg_note_duration": 0.5702,
  "reconstruction_stats": {
    "notes_reconstructed": 99,
    "keyon_events": 99,
    "keyoff_events": 96,
    "orphan_keyons": 3,
    "unique_pitches": 10,
    "pitch_range": 22,
    "avg_duration_sec": 0.5702
  },
  "metadata": {
    "source": "R\\Romance of the Three Kingdoms III\\19 - Emperor.vgz"
  },
  "notes": [
    {
      "channel": 0,
      "note": 56,
      "start": 0.0176,
      "duration": 0.679,
      "velocity": 92,
      "chip": "ym2612"
    },
    {
      "channel": 1,
      "note": 44,
      "start": 0.0216,
      "duration": 3.1751,
      "velocity": 105,
      "chip": "ym2612"
    },
    {
      "channel": 2,
      "note": 39,
      "start": 0.0256,
      "duration": 1.8045,
      "velocity": 92,
      "chip": "ym2612"
    },
    {
      "channel": 0,
      "note": 54,
      "start": 0.7137,
      "duration": 0.2161,
      "velocity": 92,
      "chip": "ym2612"
    },
    {
      "channel": 0,
      "note": 51,
      "start": 0.9471,
      "duration": 0.4161,
      "velocity": 92,
      "chip": "ym2612"
    },
    {
      "channel": 0,
      "note": 49,
      "start": 1.4137,
      "duration": 0.4162,
      "velocity": 92,
      "chip": "ym2612"
    },
    {
      "channel": 0,
      "note": 51,
      "start": 1.8637,
      "duration": 0.6829,
      "velocity": 92,
      "chip": "ym2612"
    },
    {
      "channel": 2,
      "note": 44,
      "start": 1.8645,
      "duration": 0.6823,
      "velocity": 92,
      "chip": "ym2612"
    },
    {
      "channel": 0,
      "note": 54,
      "start": 2.5637,
      "duration": 0.1829,
      "velocity": 92,
      "chip": "ym2612"
    },
    {
      "channel": 2,
      "note": 42,
      "start": 2.5645,
      "duration": 0.1656,
      "velocity": 92,
      "chip": "ym2612"
    },
    {
      "channel": 0,
      "note": 51,
      "start": 2.797,
      "duration": 0.1995,
      "velocity": 92,
      "chip": "ym2612"
    },
    {
      "channel": 2,
      "note": 39,
      "start": 2.7978,
      "duration": 0.399,
      "velocity": 92,
      "chip": "ym2612"
    },
    {
      "channel": 0,
      "note": 54,
      "start": 3.0137,
      "duration": 0.0995,
      "velocity": 92,
      "chip": "ym2612"
    },
    {
      "channel": 0,
      "note": 51,
      "start": 3.1303,
      "duration": 0.0995,
      "velocity": 92,
      "chip": "ym2612"
    },
    {
      "channel": 0,
      "note": 49,
      "start": 3.247,
      "duration": 0.4495,
      "velocity": 92,
      "chip": "ym2612"
    },
    {
      "channel": 1,
      "note": 42,
      "start": 3.2478,
      "duration": 0.449,
      "velocity": 105,
      "chip": "ym2612"
    },
    {
      "channel": 2,
      "note": 37,
      "start": 3.2485,
      "duration": 0.4485,
      "velocity": 92,
      "chip": "ym2612"
    },
    {
      "channel": 0,
      "note": 51,
      "start": 3.7137,
      "duration": 0.6661,
      "velocity": 92,
      "chip": "ym2612"
    },
    {
      "channel": 1,
      "note": 44,
      "start": 3.7144,
      "duration": 3.0489,
      "velocity": 105,
      "chip": "ym2612"
    },
    {
      "channel": 2,
      "note": 39,
      "start": 3.7151,
      "duration": 3.1984,
      "velocity": 92,
      "chip": "ym2612"
    },
    {
      "channel": 0,
      "note": 49,
      "start": 4.397,
      "duration": 0.2162,
      "velocity": 92,
      "chip": "ym2612"
    },
    {
      "channel": 0,
      "note": 47,
      "start": 4.6303,
      "duration": 0.3995,
      "velocity": 92,
      "chip": "ym2612"
    },
    {
      "channel": 0,
      "note": 42,
      "start": 5.097,
      "duration": 0.3995,
      "velocity": 92,
      "chip": "ym2612"
    },
    {
      "channel": 0,
      "note": 44,
      "start": 5.5637,
      "duration": 0.1495,
      "velocity": 92,
      "chip": "ym2612"
    },
    {
      "channel": 0,
      "note": 47,
      "start": 5.7803,
      "duration": 0.1829,
      "velocity": 92,
      "chip": "ym2612"
    },
    {
      "channel": 0,
      "note": 49,
      "start": 6.0137,
      "duration": 0.1995,
      "velocity": 92,
      "chip": "ym2612"
    },
    {
      "channel": 0,
      "note": 51,
      "start": 6.247,
      "duration": 0.2162,
      "velocity": 92,
      "chip": "ym2612"
    },
    {
      "channel": 0,
      "note": 49,
      "start": 6.4803,
      "duration": 0.2162,
      "velocity": 92,
      "chip": "ym2612"
    },
    {
      "channel": 0,
      "note": 51,
      "start": 6.7137,
      "duration": 0.0829,
      "velocity": 92,
      "chip": "ym2612"
    },
    {
      "channel": 0,
      "note": 49,
      "start": 6.8303,
      "duration": 0.0829,
      "velocity": 92,
      "chip": "ym2612"
    },
    {
      "channel": 0,
      "note": 47,
      "start": 6.947,
      "duration": 0.4329,
      "velocity": 92,
      "chip": "ym2612"
    },
    {
      "channel": 1,
      "note": 42,
      "start": 6.9478,
      "duration": 0.4323,
      "velocity": 105,
      "chip": "ym2612"
    },
    {
      "channel": 2,
      "note": 37,
      "start": 6.9485,
      "duration": 0.4318,
      "velocity": 92,
      "chip": "ym2612"
    },
    {
      "channel": 0,
      "note": 56,
      "start": 7.397,
      "duration": 0.6329,
      "velocity": 92,
      "chip": "ym2612"
    },
    {
      "channel": 1,
      "note": 44,
      "start": 7.3978,
      "duration": 3.0988,
      "velocity": 105,
      "chip": "ym2612"
    },
    {
      "channel": 2,
      "note": 39,
      "start": 7.3985,
      "duration": 1.8316,
      "velocity": 92,
      "chip": "ym2612"
    },
    {
      "channel": 0,
      "note": 54,
      "start": 8.0971,
      "duration": 0.1995,
      "velocity": 92,
      "chip": "ym2612"
    },
    {
      "channel": 0,
      "note": 51,
      "start": 8.3303,
      "duration": 0.4162,
      "velocity": 92,
      "chip": "ym2612"
    },
    {
      "channel": 0,
      "note": 49,
      "start": 8.7803,
      "duration": 0.4329,
      "velocity": 92,
      "chip": "ym2612"
    },
    {
      "channel": 0,
      "note": 51,
      "start": 9.247,
      "duration": 0.4329,
      "velocity": 92,
      "chip": "ym2612"
    },
    {
      "channel": 2,
      "note": 44,
      "start": 9.2478,
      "duration": 0.6489,
      "velocity": 92,
      "chip": "ym2612"
    },
    {
      "channel": 0,
      "note": 54,
      "start": 9.7137,
      "duration": 0.1662,
      "velocity": 92,
      "chip": "ym2612"
    },
    {
      "channel": 0,
      "note": 56,
      "start": 9.9303,
      "duration": 0.2162,
      "velocity": 92,
      "chip": "ym2612"
    },
    {
      "channel": 2,
      "note": 42,
      "start": 9.9312,
      "duration": 0.1656,
      "velocity": 92,
      "chip": "ym2612"
    },
    {
      "channel": 0,
      "note": 59,
      "start": 10.1637,
      "duration": 0.4328,
      "velocity": 92,
      "chip": "ym2612"
    },
    {
      "channel": 2,
      "note": 39,
      "start": 10.1645,
      "duration": 0.4489,
      "velocity": 92,
      "chip": "ym2612"
    },
    {
      "channel": 0,
      "note": 56,
      "start": 10.6303,
      "duration": 0.1495,
      "velocity": 92,
      "chip": "ym2612"
    },
    {
      "channel": 1,
      "note": 42,
      "start": 10.6311,
      "duration": 0.4323,
      "velocity": 105,
      "chip": "ym2612"
    },
    {
      "channel": 2,
      "note": 37,
      "start": 10.6318,
      "duration": 0.4318,
      "velocity": 92,
      "chip": "ym2612"
    },
    {
      "channel": 0,
      "note": 54,
      "start": 10.8637,
      "duration": 0.1995,
      "velocity": 92,
      "chip": "ym2612"
    },
    {
      "channel": 0,
      "note": 51,
      "start": 11.097,
      "duration": 0.4329,
      "velocity": 92,
      "chip": "ym2612"
    },
    {
      "channel": 1,
      "note": 44,
      "start": 11.0978,
      "duration": 3.0822,
      "velocity": 105,
      "chip": "ym2612"
    },
    {
      "channel": 2,
      "note": 39,
      "start": 11.0985,
      "duration": 3.1816,
      "velocity": 92,
      "chip": "ym2612"
    },
    {
      "channel": 0,
      "note": 54,
      "start": 11.547,
      "duration": 0.2162,
      "velocity": 92,
      "chip": "ym2612"
    },
    {
      "channel": 0,
      "note": 56,
      "start": 11.7803,
      "duration": 0.2162,
      "velocity": 92,
      "chip": "ym2612"
    },
    {
      "channel": 0,
      "note": 49,
      "start": 12.0137,
      "duration": 0.2162,
      "velocity": 92,
      "chip": "ym2612"
    },
    {
      "channel": 0,
      "note": 51,
      "start": 12.247,
      "duration": 0.0995,
      "velocity": 92,
      "chip": "ym2612"
    },
    {
      "channel": 0,
      "note": 49,
      "start": 12.3637,
      "duration": 0.0829,
      "velocity": 92,
      "chip": "ym2612"
    },
    {
      "channel": 0,
      "note": 47,
      "start": 12.4803,
      "duration": 0.4162,
      "velocity": 92,
      "chip": "ym2612"
    },
    {
      "channel": 0,
      "note": 44,
      "start": 12.9303,
      "duration": 0.4329,
      "velocity": 92,
      "chip": "ym2612"
    },
    {
      "channel": 0,
      "note": 47,
      "start": 13.397,
      "duration": 0.4329,
      "velocity": 92,
      "chip": "ym2612"
    },
    {
      "channel": 0,
      "note": 44,
      "start": 13.8637,
      "duration": 0.7162,
      "velocity": 92,
      "chip": "ym2612"
    },
    {
      "channel": 1,
      "note": 42,
      "start": 14.3138,
      "duration": 0.4495,
      "velocity": 105,
      "chip": "ym2612"
    },
    {
      "channel": 2,
      "note": 37,
      "start": 14.3145,
      "duration": 0.449,
      "velocity": 92,
      "chip": "ym2612"
    },
    {
      "channel": 1,
      "note": 44,
      "start": 14.7807,
      "duration": 0.4826,
      "velocity": 105,
      "chip": "ym2612"
    },
    {
      "channel": 2,
      "note": 39,
      "start": 14.7814,
      "duration": 0.5153,
      "velocity": 92,
      "chip": "ym2612"
    },
    {
      "channel": 1,
      "note": 44,
      "start": 15.4637,
      "duration": 0.1162,
      "velocity": 105,
      "chip": "ym2612"
    },
    {
      "channel": 2,
      "note": 39,
      "start": 15.4645,
      "duration": 0.1489,
      "velocity": 92,
      "chip": "ym2612"
    },
    {
      "channel": 1,
      "note": 44,
      "start": 15.6969,
      "duration": 0.3663,
      "velocity": 105,
      "chip": "ym2612"
    },
    {
      "channel": 2,
      "note": 39,
      "start": 15.6977,
      "duration": 0.3823,
      "velocity": 92,
      "chip": "ym2612"
    },
    {
      "channel": 1,
      "note": 42,
      "start": 16.1637,
      "duration": 0.4162,
      "velocity": 105,
      "chip": "ym2612"
    },
    {
      "channel": 2,
      "note": 37,
      "start": 16.1645,
      "duration": 0.4322,
      "velocity": 92,
      "chip": "ym2612"
    },
    {
      "channel": 1,
      "note": 44,
      "start": 16.6304,
      "duration": 1.2495,
      "velocity": 105,
      "chip": "ym2612"
    },
    {
      "channel": 2,
      "note": 39,
      "start": 16.6312,
      "duration": 1.1323,
      "velocity": 92,
      "chip": "ym2612"
    },
    {
      "channel": 1,
      "note": 42,
      "start": 18.0137,
      "duration": 0.2995,
      "velocity": 105,
      "chip": "ym2612"
    },
    {
      "channel": 2,
      "note": 37,
      "start": 18.0145,
      "duration": 0.3989,
      "velocity": 92,
      "chip": "ym2612"
    },
    {
      "channel": 1,
      "note": 44,
      "start": 18.464,
      "duration": 0.4826,
      "velocity": 105,
      "chip": "ym2612"
    },
    {
      "channel": 2,
      "note": 39,
      "start": 18.4647,
      "duration": 0.4487,
      "velocity": 92,
      "chip": "ym2612"
    },
    {
      "channel": 1,
      "note": 44,
      "start": 19.1637,
      "duration": 0.0995,
      "velocity": 105,
      "chip": "ym2612"
    },
    {
      "channel": 2,
      "note": 39,
      "start": 19.1645,
      "duration": 0.099,
      "velocity": 92,
      "chip": "ym2612"
    },
    {
      "channel": 1,
      "note": 44,
      "start": 19.3969,
      "duration": 0.3997,
      "velocity": 105,
      "chip": "ym2612"
    },
    {
      "channel": 2,
      "note": 39,
      "start": 19.3977,
      "duration": 0.4324,
      "velocity": 92,
      "chip": "ym2612"
    },
    {
      "channel": 1,
      "note": 42,
      "start": 19.8471,
      "duration": 0.4329,
      "velocity": 105,
      "chip": "ym2612"
    },
    {
      "channel": 2,
      "note": 37,
      "start": 19.8478,
      "duration": 0.4489,
      "velocity": 92,
      "chip": "ym2612"
    },
    {
      "channel": 1,
      "note": 44,
      "start": 20.3137,
      "duration": 0.4162,
      "velocity": 105,
      "chip": "ym2612"
    },
    {
      "channel": 2,
      "note": 39,
      "start": 20.3145,
      "duration": 0.4157,
      "velocity": 92,
      "chip": "ym2612"
    },
    {
      "channel": 1,
      "note": 47,
      "start": 20.7805,
      "duration": 0.3328,
      "velocity": 105,
      "chip": "ym2612"
    },
    {
      "channel": 2,
      "note": 42,
      "start": 20.7812,
      "duration": 0.1656,
      "velocity": 92,
      "chip": "ym2612"
    },
    {
      "channel": 2,
      "note": 44,
      "start": 21.0143,
      "duration": 0.2165,
      "velocity": 92,
      "chip": "ym2612"
    },
    {
      "channel": 1,
      "note": 42,
      "start": 21.2304,
      "duration": 0.4162,
      "velocity": 105,
      "chip": "ym2612"
    },
    {
      "channel": 2,
      "note": 37,
      "start": 21.2312,
      "duration": 0.2156,
      "velocity": 92,
      "chip": "ym2612"
    },
    {
      "channel": 2,
      "note": 39,
      "start": 21.4642,
      "duration": 0.2158,
      "velocity": 92,
      "chip": "ym2612"
    },
    {
      "channel": 1,
      "note": 42,
      "start": 21.6971,
      "duration": 0.4162,
      "velocity": 105,
      "chip": "ym2612"
    },
    {
      "channel": 2,
      "note": 37,
      "start": 21.6978,
      "duration": 0.4157,
      "velocity": 92,
      "chip": "ym2612"
    },
    {
      "channel": 0,
      "note": 56,
      "start": 22.1679,
      "duration": 0.6786,
      "velocity": 92,
      "chip": "ym2612"
    },
    {
      "channel": 1,
      "note": 44,
      "start": 22.1723,
      "duration": 0.93,
      "velocity": 105,
      "chip": "ym2612"
    },
    {
      "channel": 2,
      "note": 39,
      "start": 22.1768,
      "duration": 0.9256,
      "velocity": 92,
      "chip": "ym2612"
    },
    {
      "channel": 0,
      "note": 54,
      "start": 22.8637,
      "duration": 0.2162,
      "velocity": 92,
      "chip": "ym2612"
    },
    {
      "channel": 0,
      "note": 51,
      "start": 23.097,
      "duration": 0.0054,
      "velocity": 92,
      "chip": "ym2612"
    }
  ]
}