{
  "track_name": "19 - Boss Clear 2",
  "duration_sec": 61.485,
  "sample_rate": 44100,
  "note_count": 782,
  "unique_pitches": 31,
  "pitch_range": 55,
  "avg_note_duration": 0.4716,
  "reconstruction_stats": {
    "notes_reconstructed": 782,
    "keyon_events": 782,
    "keyoff_events": 776,
    "orphan_keyons": 6,
    "unique_pitches": 31,
    "pitch_range": 55,
    "avg_duration_sec": 0.4716
  },
  "metadata": {
    "source": "W\\Wiz 'n' Liz\\19 - Boss Clear 2.vgz"
  },
  "notes": [
    {
      "channel": 0,
      "note": 79,
      "start": 0.0,
      "duration": 0.0537,
      "velocity": 117,
      "chip": "ym2612"
    },
    {
      "channel": 1,
      "note": 79,
      "start": 0.0,
      "duration": 0.3708,
      "velocity": 102,
      "chip": "ym2612"
    },
    {
      "channel": 2,
      "note": 79,
      "start": 0.0,
      "duration": 0.0559,
      "velocity": 107,
      "chip": "ym2612"
    },
    {
      "channel": 3,
      "note": 79,
      "start": 0.0,
      "duration": 0.058,
      "velocity": 107,
      "chip": "ym2612"
    },
    {
      "channel": 4,
      "note": 79,
      "start": 0.0,
      "duration": 0.3731,
      "velocity": 100,
      "chip": "ym2612"
    },
    {
      "channel": 5,
      "note": 79,
      "start": 0.0,
      "duration": 0.0603,
      "velocity": 99,
      "chip": "ym2612"
    },
    {
      "channel": 0,
      "note": 55,
      "start": 0.0539,
      "duration": 0.3148,
      "velocity": 117,
      "chip": "ym2612"
    },
    {
      "channel": 2,
      "note": 74,
      "start": 0.0561,
      "duration": 2.5632,
      "velocity": 107,
      "chip": "ym2612"
    },
    {
      "channel": 3,
      "note": 71,
      "start": 0.0582,
      "duration": 2.5617,
      "velocity": 107,
      "chip": "ym2612"
    },
    {
      "channel": 5,
      "note": 74,
      "start": 0.0605,
      "duration": 0.6251,
      "velocity": 99,
      "chip": "ym2612"
    },
    {
      "channel": 0,
      "note": 55,
      "start": 0.3688,
      "duration": 0.1664,
      "velocity": 117,
      "chip": "ym2612"
    },
    {
      "channel": 1,
      "note": 43,
      "start": 0.371,
      "duration": 0.6483,
      "velocity": 102,
      "chip": "ym2612"
    },
    {
      "channel": 4,
      "note": 74,
      "start": 0.3732,
      "duration": 0.6467,
      "velocity": 100,
      "chip": "ym2612"
    },
    {
      "channel": 0,
      "note": 67,
      "start": 0.5355,
      "duration": 0.3165,
      "velocity": 117,
      "chip": "ym2612"
    },
    {
      "channel": 5,
      "note": 79,
      "start": 0.6858,
      "duration": 0.6504,
      "velocity": 99,
      "chip": "ym2612"
    },
    {
      "channel": 0,
      "note": 55,
      "start": 0.8521,
      "duration": 0.1665,
      "velocity": 117,
      "chip": "ym2612"
    },
    {
      "channel": 0,
      "note": 62,
      "start": 1.0188,
      "duration": 0.1498,
      "velocity": 117,
      "chip": "ym2612"
    },
    {
      "channel": 1,
      "note": 55,
      "start": 1.0194,
      "duration": 0.1497,
      "velocity": 102,
      "chip": "ym2612"
    },
    {
      "channel": 4,
      "note": 79,
      "start": 1.0201,
      "duration": 0.6332,
      "velocity": 100,
      "chip": "ym2612"
    },
    {
      "channel": 0,
      "note": 64,
      "start": 1.1688,
      "duration": 0.1665,
      "velocity": 117,
      "chip": "ym2612"
    },
    {
      "channel": 1,
      "note": 53,
      "start": 1.1694,
      "duration": 0.4832,
      "velocity": 102,
      "chip": "ym2612"
    },
    {
      "channel": 0,
      "note": 55,
      "start": 1.3355,
      "duration": 0.3166,
      "velocity": 117,
      "chip": "ym2612"
    },
    {
      "channel": 5,
      "note": 77,
      "start": 1.3363,
      "duration": 0.3176,
      "velocity": 99,
      "chip": "ym2612"
    },
    {
      "channel": 0,
      "note": 55,
      "start": 1.6522,
      "duration": 0.1664,
      "velocity": 117,
      "chip": "ym2612"
    },
    {
      "channel": 1,
      "note": 43,
      "start": 1.6528,
      "duration": 0.6332,
      "velocity": 102,
      "chip": "ym2612"
    },
    {
      "channel": 4,
      "note": 77,
      "start": 1.6535,
      "duration": 0.3154,
      "velocity": 100,
      "chip": "ym2612"
    },
    {
      "channel": 5,
      "note": 76,
      "start": 1.654,
      "duration": 0.3154,
      "velocity": 99,
      "chip": "ym2612"
    },
    {
      "channel": 0,
      "note": 67,
      "start": 1.8188,
      "duration": 0.3165,
      "velocity": 117,
      "chip": "ym2612"
    },
    {
      "channel": 4,
      "note": 76,
      "start": 1.969,
      "duration": 0.3176,
      "velocity": 100,
      "chip": "ym2612"
    },
    {
      "channel": 5,
      "note": 74,
      "start": 1.9696,
      "duration": 0.3176,
      "velocity": 99,
      "chip": "ym2612"
    },
    {
      "channel": 0,
      "note": 55,
      "start": 2.1355,
      "duration": 0.1499,
      "velocity": 117,
      "chip": "ym2612"
    },
    {
      "channel": 0,
      "note": 62,
      "start": 2.2856,
      "duration": 0.1664,
      "velocity": 117,
      "chip": "ym2612"
    },
    {
      "channel": 1,
      "note": 53,
      "start": 2.2861,
      "duration": 0.1664,
      "velocity": 102,
      "chip": "ym2612"
    },
    {
      "channel": 4,
      "note": 74,
      "start": 2.2868,
      "duration": 0.3337,
      "velocity": 100,
      "chip": "ym2612"
    },
    {
      "channel": 5,
      "note": 72,
      "start": 2.2874,
      "duration": 0.3337,
      "velocity": 99,
      "chip": "ym2612"
    },
    {
      "channel": 0,
      "note": 64,
      "start": 2.4521,
      "duration": 0.1666,
      "velocity": 117,
      "chip": "ym2612"
    },
    {
      "channel": 1,
      "note": 55,
      "start": 2.4527,
      "duration": 0.4832,
      "velocity": 102,
      "chip": "ym2612"
    },
    {
      "channel": 0,
      "note": 55,
      "start": 2.6189,
      "duration": 0.3164,
      "velocity": 117,
      "chip": "ym2612"
    },
    {
      "channel": 2,
      "note": 79,
      "start": 2.6195,
      "duration": 1.2665,
      "velocity": 107,
      "chip": "ym2612"
    },
    {
      "channel": 3,
      "note": 83,
      "start": 2.6201,
      "duration": 1.2665,
      "velocity": 107,
      "chip": "ym2612"
    },
    {
      "channel": 4,
      "note": 72,
      "start": 2.6206,
      "duration": 0.316,
      "velocity": 100,
      "chip": "ym2612"
    },
    {
      "channel": 5,
      "note": 71,
      "start": 2.6212,
      "duration": 0.631,
      "velocity": 99,
      "chip": "ym2612"
    },
    {
      "channel": 0,
      "note": 55,
      "start": 2.9355,
      "duration": 0.1498,
      "velocity": 117,
      "chip": "ym2612"
    },
    {
      "channel": 1,
      "note": 43,
      "start": 2.9361,
      "duration": 0.6331,
      "velocity": 102,
      "chip": "ym2612"
    },
    {
      "channel": 4,
      "note": 71,
      "start": 2.9367,
      "duration": 0.6332,
      "velocity": 100,
      "chip": "ym2612"
    },
    {
      "channel": 0,
      "note": 67,
      "start": 3.0855,
      "duration": 0.3331,
      "velocity": 117,
      "chip": "ym2612"
    },
    {
      "channel": 5,
      "note": 74,
      "start": 3.2524,
      "duration": 0.6347,
      "velocity": 99,
      "chip": "ym2612"
    },
    {
      "channel": 0,
      "note": 55,
      "start": 3.4188,
      "duration": 0.1499,
      "velocity": 117,
      "chip": "ym2612"
    },
    {
      "channel": 0,
      "note": 62,
      "start": 3.5688,
      "duration": 0.1665,
      "velocity": 117,
      "chip": "ym2612"
    },
    {
      "channel": 1,
      "note": 55,
      "start": 3.5694,
      "duration": 0.1665,
      "velocity": 102,
      "chip": "ym2612"
    },
    {
      "channel": 4,
      "note": 74,
      "start": 3.5701,
      "duration": 0.6499,
      "velocity": 100,
      "chip": "ym2612"
    },
    {
      "channel": 0,
      "note": 64,
      "start": 3.7355,
      "duration": 0.1499,
      "velocity": 117,
      "chip": "ym2612"
    },
    {
      "channel": 1,
      "note": 53,
      "start": 3.736,
      "duration": 0.4832,
      "velocity": 102,
      "chip": "ym2612"
    },
    {
      "channel": 0,
      "note": 55,
      "start": 3.8856,
      "duration": 0.3331,
      "velocity": 117,
      "chip": "ym2612"
    },
    {
      "channel": 2,
      "note": 81,
      "start": 3.8861,
      "duration": 1.2835,
      "velocity": 107,
      "chip": "ym2612"
    },
    {
      "channel": 3,
      "note": 77,
      "start": 3.8867,
      "duration": 1.2834,
      "velocity": 107,
      "chip": "ym2612"
    },
    {
      "channel": 5,
      "note": 72,
      "start": 3.8874,
      "duration": 0.6482,
      "velocity": 99,
      "chip": "ym2612"
    },
    {
      "channel": 0,
      "note": 55,
      "start": 4.2188,
      "duration": 0.1498,
      "velocity": 117,
      "chip": "ym2612"
    },
    {
      "channel": 1,
      "note": 43,
      "start": 4.2194,
      "duration": 0.6332,
      "velocity": 102,
      "chip": "ym2612"
    },
    {
      "channel": 4,
      "note": 72,
      "start": 4.2201,
      "duration": 0.6332,
      "velocity": 100,
      "chip": "ym2612"
    },
    {
      "channel": 0,
      "note": 67,
      "start": 4.3688,
      "duration": 0.3165,
      "velocity": 117,
      "chip": "ym2612"
    },
    {
      "channel": 5,
      "note": 77,
      "start": 4.5358,
      "duration": 0.318,
      "velocity": 99,
      "chip": "ym2612"
    },
    {
      "channel": 0,
      "note": 55,
      "start": 4.6855,
      "duration": 0.1666,
      "velocity": 117,
      "chip": "ym2612"
    },
    {
      "channel": 0,
      "note": 62,
      "start": 4.8522,
      "duration": 0.1664,
      "velocity": 117,
      "chip": "ym2612"
    },
    {
      "channel": 1,
      "note": 53,
      "start": 4.8528,
      "duration": 0.1664,
      "velocity": 102,
      "chip": "ym2612"
    },
    {
      "channel": 4,
      "note": 77,
      "start": 4.8535,
      "duration": 0.3173,
      "velocity": 100,
      "chip": "ym2612"
    },
    {
      "channel": 5,
      "note": 81,
      "start": 4.854,
      "duration": 0.3174,
      "velocity": 99,
      "chip": "ym2612"
    },
    {
      "channel": 0,
      "note": 64,
      "start": 5.0188,
      "duration": 0.1501,
      "velocity": 117,
      "chip": "ym2612"
    },
    {
      "channel": 1,
      "note": 55,
      "start": 5.0194,
      "duration": 0.4666,
      "velocity": 102,
      "chip": "ym2612"
    },
    {
      "channel": 0,
      "note": 55,
      "start": 5.169,
      "duration": 0.3163,
      "velocity": 117,
      "chip": "ym2612"
    },
    {
      "channel": 2,
      "note": 74,
      "start": 5.1698,
      "duration": 2.5663,
      "velocity": 107,
      "chip": "ym2612"
    },
    {
      "channel": 3,
      "note": 71,
      "start": 5.1704,
      "duration": 2.5662,
      "velocity": 107,
      "chip": "ym2612"
    },
    {
      "channel": 4,
      "note": 81,
      "start": 5.171,
      "duration": 0.3156,
      "velocity": 100,
      "chip": "ym2612"
    },
    {
      "channel": 5,
      "note": 83,
      "start": 5.1717,
      "duration": 0.6473,
      "velocity": 99,
      "chip": "ym2612"
    },
    {
      "channel": 0,
      "note": 55,
      "start": 5.4855,
      "duration": 0.1664,
      "velocity": 117,
      "chip": "ym2612"
    },
    {
      "channel": 1,
      "note": 43,
      "start": 5.4861,
      "duration": 0.6498,
      "velocity": 102,
      "chip": "ym2612"
    },
    {
      "channel": 4,
      "note": 83,
      "start": 5.4868,
      "duration": 0.6498,
      "velocity": 100,
      "chip": "ym2612"
    },
    {
      "channel": 0,
      "note": 67,
      "start": 5.6521,
      "duration": 0.3165,
      "velocity": 117,
      "chip": "ym2612"
    },
    {
      "channel": 5,
      "note": 84,
      "start": 5.8191,
      "duration": 0.6337,
      "velocity": 99,
      "chip": "ym2612"
    },
    {
      "channel": 0,
      "note": 55,
      "start": 5.9688,
      "duration": 0.1665,
      "velocity": 117,
      "chip": "ym2612"
    },
    {
      "channel": 0,
      "note": 62,
      "start": 6.1355,
      "duration": 0.1498,
      "velocity": 117,
      "chip": "ym2612"
    },
    {
      "channel": 1,
      "note": 55,
      "start": 6.1361,
      "duration": 0.1497,
      "velocity": 102,
      "chip": "ym2612"
    },
    {
      "channel": 4,
      "note": 84,
      "start": 6.1367,
      "duration": 0.6332,
      "velocity": 100,
      "chip": "ym2612"
    },
    {
      "channel": 0,
      "note": 64,
      "start": 6.2855,
      "duration": 0.1665,
      "velocity": 117,
      "chip": "ym2612"
    },
    {
      "channel": 1,
      "note": 53,
      "start": 6.286,
      "duration": 0.4833,
      "velocity": 102,
      "chip": "ym2612"
    },
    {
      "channel": 0,
      "note": 55,
      "start": 6.4521,
      "duration": 0.3166,
      "velocity": 117,
      "chip": "ym2612"
    },
    {
      "channel": 5,
      "note": 83,
      "start": 6.4529,
      "duration": 0.3176,
      "velocity": 99,
      "chip": "ym2612"
    },
    {
      "channel": 0,
      "note": 55,
      "start": 6.7689,
      "duration": 0.1663,
      "velocity": 117,
      "chip": "ym2612"
    },
    {
      "channel": 1,
      "note": 43,
      "start": 6.7694,
      "duration": 0.6498,
      "velocity": 102,
      "chip": "ym2612"
    },
    {
      "channel": 4,
      "note": 83,
      "start": 6.7701,
      "duration": 0.3154,
      "velocity": 100,
      "chip": "ym2612"
    },
    {
      "channel": 5,
      "note": 79,
      "start": 6.7707,
      "duration": 0.3154,
      "velocity": 99,
      "chip": "ym2612"
    },
    {
      "channel": 0,
      "note": 67,
      "start": 6.9355,
      "duration": 0.3165,
      "velocity": 117,
      "chip": "ym2612"
    },
    {
      "channel": 4,
      "note": 79,
      "start": 7.0857,
      "duration": 0.3342,
      "velocity": 100,
      "chip": "ym2612"
    },
    {
      "channel": 5,
      "note": 77,
      "start": 7.0863,
      "duration": 0.3342,
      "velocity": 99,
      "chip": "ym2612"
    },
    {
      "channel": 0,
      "note": 55,
      "start": 7.2521,
      "duration": 0.1666,
      "velocity": 117,
      "chip": "ym2612"
    },
    {
      "channel": 0,
      "note": 62,
      "start": 7.4188,
      "duration": 0.1498,
      "velocity": 117,
      "chip": "ym2612"
    },
    {
      "channel": 1,
      "note": 53,
      "start": 7.4194,
      "duration": 0.1497,
      "velocity": 102,
      "chip": "ym2612"
    },
    {
      "channel": 4,
      "note": 77,
      "start": 7.4201,
      "duration": 0.317,
      "velocity": 100,
      "chip": "ym2612"
    },
    {
      "channel": 5,
      "note": 72,
      "start": 7.4207,
      "duration": 0.317,
      "velocity": 99,
      "chip": "ym2612"
    },
    {
      "channel": 0,
      "note": 64,
      "start": 7.5688,
      "duration": 0.1666,
      "velocity": 117,
      "chip": "ym2612"
    },
    {
      "channel": 1,
      "note": 55,
      "start": 7.5694,
      "duration": 0.4832,
      "velocity": 102,
      "chip": "ym2612"
    },
    {
      "channel": 0,
      "note": 55,
      "start": 7.7356,
      "duration": 0.3164,
      "velocity": 117,
      "chip": "ym2612"
    },
    {
      "channel": 2,
      "note": 79,
      "start": 7.7362,
      "duration": 1.2831,
      "velocity": 107,
      "chip": "ym2612"
    },
    {
      "channel": 3,
      "note": 83,
      "start": 7.7367,
      "duration": 1.2831,
      "velocity": 107,
      "chip": "ym2612"
    },
    {
      "channel": 4,
      "note": 72,
      "start": 7.7373,
      "duration": 0.316,
      "velocity": 100,
      "chip": "ym2612"
    },
    {
      "channel": 5,
      "note": 71,
      "start": 7.7379,
      "duration": 2.701,
      "velocity": 127,
      "chip": "ym2612"
    },
    {
      "channel": 0,
      "note": 55,
      "start": 8.0522,
      "duration": 0.1664,
      "velocity": 117,
      "chip": "ym2612"
    },
    {
      "channel": 1,
      "note": 43,
      "start": 8.0528,
      "duration": 0.6331,
      "velocity": 102,
      "chip": "ym2612"
    },
    {
      "channel": 4,
      "note": 71,
      "start": 8.0534,
      "duration": 2.2376,
      "velocity": 107,
      "chip": "ym2612"
    },
    {
      "channel": 0,
      "note": 67,
      "start": 8.2188,
      "duration": 0.3165,
      "velocity": 117,
      "chip": "ym2612"
    },
    {
      "channel": 0,
      "note": 55,
      "start": 8.5355,
      "duration": 0.1499,
      "velocity": 117,
      "chip": "ym2612"
    },
    {
      "channel": 0,
      "note": 62,
      "start": 8.6855,
      "duration": 0.1665,
      "velocity": 117,
      "chip": "ym2612"
    },
    {
      "channel": 1,
      "note": 55,
      "start": 8.686,
      "duration": 0.1665,
      "velocity": 102,
      "chip": "ym2612"
    },
    {
      "channel": 0,
      "note": 64,
      "start": 8.8521,
      "duration": 0.1665,
      "velocity": 117,
      "chip": "ym2612"
    },
    {
      "channel": 1,
      "note": 53,
      "start": 8.8527,
      "duration": 0.4831,
      "velocity": 102,
      "chip": "ym2612"
    },
    {
      "channel": 0,
      "note": 55,
      "start": 9.0188,
      "duration": 0.3165,
      "velocity": 117,
      "chip": "ym2612"
    },
    {
      "channel": 2,
      "note": 81,
      "start": 9.0194,
      "duration": 1.2688,
      "velocity": 107,
      "chip": "ym2612"
    },
    {
      "channel": 3,
      "note": 77,
      "start": 9.02,
      "duration": 1.2689,
      "velocity": 107,
      "chip": "ym2612"
    },
    {
      "channel": 0,
      "note": 55,
      "start": 9.3355,
      "duration": 0.1498,
      "velocity": 117,
      "chip": "ym2612"
    },
    {
      "channel": 1,
      "note": 43,
      "start": 9.336,
      "duration": 0.6331,
      "velocity": 102,
      "chip": "ym2612"
    },
    {
      "channel": 0,
      "note": 67,
      "start": 9.4855,
      "duration": 0.3331,
      "velocity": 117,
      "chip": "ym2612"
    },
    {
      "channel": 0,
      "note": 55,
      "start": 9.8188,
      "duration": 0.1499,
      "velocity": 117,
      "chip": "ym2612"
    },
    {
      "channel": 0,
      "note": 62,
      "start": 9.9688,
      "duration": 0.1665,
      "velocity": 117,
      "chip": "ym2612"
    },
    {
      "channel": 1,
      "note": 53,
      "start": 9.9694,
      "duration": 0.1665,
      "velocity": 102,
      "chip": "ym2612"
    },
    {
      "channel": 0,
      "note": 64,
      "start": 10.1355,
      "duration": 0.1516,
      "velocity": 112,
      "chip": "ym2612"
    },
    {
      "channel": 1,
      "note": 55,
      "start": 10.136,
      "duration": 0.1516,
      "velocity": 102,
      "chip": "ym2612"
    },
    {
      "channel": 0,
      "note": 48,
      "start": 10.2872,
      "duration": 0.3165,
      "velocity": 112,
      "chip": "ym2612"
    },
    {
      "channel": 1,
      "note": 36,
      "start": 10.2878,
      "duration": 0.3164,
      "velocity": 102,
      "chip": "ym2612"
    },
    {
      "channel": 2,
      "note": 84,
      "start": 10.2884,
      "duration": 1.2071,
      "velocity": 107,
      "chip": "ym2612"
    },
    {
      "channel": 3,
      "note": 79,
      "start": 10.289,
      "duration": 1.2071,
      "velocity": 107,
      "chip": "ym2612"
    },
    {
      "channel": 4,
      "note": 76,
      "start": 10.2912,
      "duration": 1.2056,
      "velocity": 107,
      "chip": "ym2612"
    },
    {
      "channel": 5,
      "note": 79,
      "start": 10.439,
      "duration": 0.166,
      "velocity": 127,
      "chip": "ym2612"
    },
    {
      "channel": 0,
      "note": 60,
      "start": 10.6038,
      "duration": 0.1498,
      "velocity": 112,
      "chip": "ym2612"
    },
    {
      "channel": 1,
      "note": 48,
      "start": 10.6044,
      "duration": 0.3013,
      "velocity": 102,
      "chip": "ym2612"
    },
    {
      "channel": 5,
      "note": 79,
      "start": 10.6051,
      "duration": 0.4217,
      "velocity": 127,
      "chip": "ym2612"
    },
    {
      "channel": 0,
      "note": 58,
      "start": 10.7538,
      "duration": 0.2721,
      "velocity": 112,
      "chip": "ym2612"
    },
    {
      "channel": 1,
      "note": 36,
      "start": 10.9058,
      "duration": 0.2869,
      "velocity": 102,
      "chip": "ym2612"
    },
    {
      "channel": 0,
      "note": 60,
      "start": 11.0261,
      "duration": 0.3332,
      "velocity": 112,
      "chip": "ym2612"
    },
    {
      "channel": 5,
      "note": 79,
      "start": 11.0269,
      "duration": 0.1665,
      "velocity": 127,
      "chip": "ym2612"
    },
    {
      "channel": 1,
      "note": 48,
      "start": 11.1928,
      "duration": 0.3022,
      "velocity": 102,
      "chip": "ym2612"
    },
    {
      "channel": 5,
      "note": 79,
      "start": 11.1936,
      "duration": 0.3037,
      "velocity": 127,
      "chip": "ym2612"
    },
    {
      "channel": 0,
      "note": 46,
      "start": 11.3595,
      "duration": 0.135,
      "velocity": 112,
      "chip": "ym2612"
    },
    {
      "channel": 0,
      "note": 48,
      "start": 11.4946,
      "duration": 0.1664,
      "velocity": 112,
      "chip": "ym2612"
    },
    {
      "channel": 1,
      "note": 36,
      "start": 11.4952,
      "duration": 0.3015,
      "velocity": 102,
      "chip": "ym2612"
    },
    {
      "channel": 2,
      "note": 82,
      "start": 11.4958,
      "duration": 1.1931,
      "velocity": 107,
      "chip": "ym2612"
    },
    {
      "channel": 3,
      "note": 77,
      "start": 11.4963,
      "duration": 1.1931,
      "velocity": 107,
      "chip": "ym2612"
    },
    {
      "channel": 4,
      "note": 74,
      "start": 11.4968,
      "duration": 1.1932,
      "velocity": 107,
      "chip": "ym2612"
    },
    {
      "channel": 5,
      "note": 79,
      "start": 11.4974,
      "duration": 0.3,
      "velocity": 127,
      "chip": "ym2612"
    },
    {
      "channel": 0,
      "note": 55,
      "start": 11.6612,
      "duration": 0.1349,
      "velocity": 112,
      "chip": "ym2612"
    },
    {
      "channel": 0,
      "note": 60,
      "start": 11.7963,
      "duration": 0.1665,
      "velocity": 112,
      "chip": "ym2612"
    },
    {
      "channel": 1,
      "note": 48,
      "start": 11.7969,
      "duration": 0.3171,
      "velocity": 102,
      "chip": "ym2612"
    },
    {
      "channel": 5,
      "note": 79,
      "start": 11.7976,
      "duration": 0.4376,
      "velocity": 127,
      "chip": "ym2612"
    },
    {
      "channel": 0,
      "note": 58,
      "start": 11.963,
      "duration": 0.2714,
      "velocity": 112,
      "chip": "ym2612"
    },
    {
      "channel": 1,
      "note": 36,
      "start": 12.1141,
      "duration": 0.2876,
      "velocity": 102,
      "chip": "ym2612"
    },
    {
      "channel": 0,
      "note": 53,
      "start": 12.2346,
      "duration": 0.1665,
      "velocity": 112,
      "chip": "ym2612"
    },
    {
      "channel": 5,
      "note": 79,
      "start": 12.2353,
      "duration": 0.1671,
      "velocity": 127,
      "chip": "ym2612"
    },
    {
      "channel": 0,
      "note": 55,
      "start": 12.4012,
      "duration": 0.1498,
      "velocity": 112,
      "chip": "ym2612"
    },
    {
      "channel": 1,
      "note": 48,
      "start": 12.4018,
      "duration": 0.2865,
      "velocity": 102,
      "chip": "ym2612"
    },
    {
      "channel": 5,
      "note": 79,
      "start": 12.4026,
      "duration": 0.4377,
      "velocity": 127,
      "chip": "ym2612"
    },
    {
      "channel": 0,
      "note": 58,
      "start": 12.5512,
      "duration": 0.1366,
      "velocity": 112,
      "chip": "ym2612"
    },
    {
      "channel": 0,
      "note": 53,
      "start": 12.688,
      "duration": 0.3021,
      "velocity": 112,
      "chip": "ym2612"
    },
    {
      "channel": 1,
      "note": 41,
      "start": 12.6885,
      "duration": 0.3022,
      "velocity": 102,
      "chip": "ym2612"
    },
    {
      "channel": 2,
      "note": 81,
      "start": 12.689,
      "duration": 1.2098,
      "velocity": 107,
      "chip": "ym2612"
    },
    {
      "channel": 3,
      "note": 77,
      "start": 12.6896,
      "duration": 1.2099,
      "velocity": 107,
      "chip": "ym2612"
    },
    {
      "channel": 4,
      "note": 72,
      "start": 12.6902,
      "duration": 1.2099,
      "velocity": 107,
      "chip": "ym2612"
    },
    {
      "channel": 5,
      "note": 79,
      "start": 12.8405,
      "duration": 0.1509,
      "velocity": 127,
      "chip": "ym2612"
    },
    {
      "channel": 0,
      "note": 65,
      "start": 12.9902,
      "duration": 0.1665,
      "velocity": 112,
      "chip": "ym2612"
    },
    {
      "channel": 1,
      "note": 53,
      "start": 12.9908,
      "duration": 0.3013,
      "velocity": 102,
      "chip": "ym2612"
    },
    {
      "channel": 5,
      "note": 79,
      "start": 12.9915,
      "duration": 0.4384,
      "velocity": 127,
      "chip": "ym2612"
    },
    {
      "channel": 0,
      "note": 63,
      "start": 13.1568,
      "duration": 0.2722,
      "velocity": 112,
      "chip": "ym2612"
    },
    {
      "channel": 1,
      "note": 41,
      "start": 13.2922,
      "duration": 0.3036,
      "velocity": 102,
      "chip": "ym2612"
    },
    {
      "channel": 0,
      "note": 65,
      "start": 13.4292,
      "duration": 0.3165,
      "velocity": 112,
      "chip": "ym2612"
    },
    {
      "channel": 5,
      "note": 79,
      "start": 13.43,
      "duration": 0.1665,
      "velocity": 127,
      "chip": "ym2612"
    },
    {
      "channel": 1,
      "note": 53,
      "start": 13.5959,
      "duration": 0.3024,
      "velocity": 102,
      "chip": "ym2612"
    },
    {
      "channel": 5,
      "note": 79,
      "start": 13.5967,
      "duration": 0.3039,
      "velocity": 127,
      "chip": "ym2612"
    },
    {
      "channel": 0,
      "note": 51,
      "start": 13.7459,
      "duration": 0.1519,
      "velocity": 112,
      "chip": "ym2612"
    },
    {
      "channel": 0,
      "note": 53,
      "start": 13.8979,
      "duration": 0.1498,
      "velocity": 112,
      "chip": "ym2612"
    },
    {
      "channel": 1,
      "note": 41,
      "start": 13.8985,
      "duration": 0.3008,
      "velocity": 102,
      "chip": "ym2612"
    },
    {
      "channel": 2,
      "note": 77,
      "start": 13.8991,
      "duration": 1.1937,
      "velocity": 107,
      "chip": "ym2612"
    },
    {
      "channel": 3,
      "note": 72,
      "start": 13.8997,
      "duration": 1.1937,
      "velocity": 107,
      "chip": "ym2612"
    },
    {
      "channel": 4,
      "note": 69,
      "start": 13.9002,
      "duration": 1.1939,
      "velocity": 107,
      "chip": "ym2612"
    },
    {
      "channel": 5,
      "note": 79,
      "start": 13.9007,
      "duration": 0.2993,
      "velocity": 127,
      "chip": "ym2612"
    },
    {
      "channel": 0,
      "note": 60,
      "start": 14.0479,
      "duration": 0.1509,
      "velocity": 112,
      "chip": "ym2612"
    },
    {
      "channel": 0,
      "note": 65,
      "start": 14.1989,
      "duration": 0.1665,
      "velocity": 112,
      "chip": "ym2612"
    },
    {
      "channel": 1,
      "note": 53,
      "start": 14.1995,
      "duration": 0.3007,
      "velocity": 102,
      "chip": "ym2612"
    },
    {
      "channel": 5,
      "note": 79,
      "start": 14.2002,
      "duration": 0.4382,
      "velocity": 127,
      "chip": "ym2612"
    },
    {
      "channel": 0,
      "note": 63,
      "start": 14.3656,
      "duration": 0.2721,
      "velocity": 112,
      "chip": "ym2612"
    },
    {
      "channel": 1,
      "note": 41,
      "start": 14.5004,
      "duration": 0.2873,
      "velocity": 102,
      "chip": "ym2612"
    },
    {
      "channel": 0,
      "note": 65,
      "start": 14.6378,
      "duration": 0.3165,
      "velocity": 112,
      "chip": "ym2612"
    },
    {
      "channel": 5,
      "note": 79,
      "start": 14.6386,
      "duration": 0.1499,
      "velocity": 127,
      "chip": "ym2612"
    },
    {
      "channel": 1,
      "note": 53,
      "start": 14.7878,
      "duration": 0.3043,
      "velocity": 102,
      "chip": "ym2612"
    },
    {
      "channel": 5,
      "note": 79,
      "start": 14.7886,
      "duration": 0.4385,
      "velocity": 127,
      "chip": "ym2612"
    },
    {
      "channel": 0,
      "note": 58,
      "start": 14.9545,
      "duration": 0.1371,
      "velocity": 112,
      "chip": "ym2612"
    },
    {
      "channel": 0,
      "note": 48,
      "start": 15.0917,
      "duration": 0.3017,
      "velocity": 112,
      "chip": "ym2612"
    },
    {
      "channel": 1,
      "note": 36,
      "start": 15.0923,
      "duration": 0.3017,
      "velocity": 102,
      "chip": "ym2612"
    },
    {
      "channel": 2,
      "note": 76,
      "start": 15.0929,
      "duration": 1.1922,
      "velocity": 107,
      "chip": "ym2612"
    },
    {
      "channel": 3,
      "note": 72,
      "start": 15.0936,
      "duration": 1.1922,
      "velocity": 107,
      "chip": "ym2612"
    },
    {
      "channel": 4,
      "note": 67,
      "start": 15.0941,
      "duration": 1.1922,
      "velocity": 107,
      "chip": "ym2612"
    },
    {
      "channel": 5,
      "note": 79,
      "start": 15.2273,
      "duration": 0.1675,
      "velocity": 127,
      "chip": "ym2612"
    },
    {
      "channel": 0,
      "note": 60,
      "start": 15.3937,
      "duration": 0.1498,
      "velocity": 112,
      "chip": "ym2612"
    },
    {
      "channel": 1,
      "note": 48,
      "start": 15.3942,
      "duration": 0.3006,
      "velocity": 102,
      "chip": "ym2612"
    },
    {
      "channel": 5,
      "note": 79,
      "start": 15.3949,
      "duration": 0.438,
      "velocity": 127,
      "chip": "ym2612"
    },
    {
      "channel": 0,
      "note": 58,
      "start": 15.5436,
      "duration": 0.2886,
      "velocity": 112,
      "chip": "ym2612"
    },
    {
      "channel": 1,
      "note": 36,
      "start": 15.695,
      "duration": 0.2873,
      "velocity": 102,
      "chip": "ym2612"
    },
    {
      "channel": 0,
      "note": 60,
      "start": 15.8323,
      "duration": 0.3165,
      "velocity": 112,
      "chip": "ym2612"
    },
    {
      "channel": 5,
      "note": 79,
      "start": 15.8331,
      "duration": 0.1498,
      "velocity": 127,
      "chip": "ym2612"
    },
    {
      "channel": 1,
      "note": 48,
      "start": 15.9824,
      "duration": 0.3023,
      "velocity": 102,
      "chip": "ym2612"
    },
    {
      "channel": 5,
      "note": 79,
      "start": 15.9831,
      "duration": 0.3037,
      "velocity": 127,
      "chip": "ym2612"
    },
    {
      "channel": 0,
      "note": 46,
      "start": 16.149,
      "duration": 0.135,
      "velocity": 112,
      "chip": "ym2612"
    },
    {
      "channel": 0,
      "note": 48,
      "start": 16.2842,
      "duration": 0.1663,
      "velocity": 112,
      "chip": "ym2612"
    },
    {
      "channel": 1,
      "note": 36,
      "start": 16.2847,
      "duration": 0.3175,
      "velocity": 102,
      "chip": "ym2612"
    },
    {
      "channel": 2,
      "note": 74,
      "start": 16.2853,
      "duration": 1.1918,
      "velocity": 107,
      "chip": "ym2612"
    },
    {
      "channel": 3,
      "note": 70,
      "start": 16.2859,
      "duration": 1.2602,
      "velocity": 107,
      "chip": "ym2612"
    },
    {
      "channel": 4,
      "note": 65,
      "start": 16.2865,
      "duration": 1.343,
      "velocity": 107,
      "chip": "ym2612"
    },
    {
      "channel": 5,
      "note": 79,
      "start": 16.287,
      "duration": 0.316,
      "velocity": 127,
      "chip": "ym2612"
    },
    {
      "channel": 0,
      "note": 55,
      "start": 16.4508,
      "duration": 0.1509,
      "velocity": 112,
      "chip": "ym2612"
    },
    {
      "channel": 0,
      "note": 60,
      "start": 16.6019,
      "duration": 0.1498,
      "velocity": 112,
      "chip": "ym2612"
    },
    {
      "channel": 1,
      "note": 48,
      "start": 16.6024,
      "duration": 0.3018,
      "velocity": 102,
      "chip": "ym2612"
    },
    {
      "channel": 5,
      "note": 79,
      "start": 16.6032,
      "duration": 0.4197,
      "velocity": 127,
      "chip": "ym2612"
    },
    {
      "channel": 0,
      "note": 58,
      "start": 16.7518,
      "duration": 0.2703,
      "velocity": 112,
      "chip": "ym2612"
    },
    {
      "channel": 1,
      "note": 36,
      "start": 16.9044,
      "duration": 0.285,
      "velocity": 102,
      "chip": "ym2612"
    },
    {
      "channel": 0,
      "note": 53,
      "start": 17.0223,
      "duration": 0.1665,
      "velocity": 112,
      "chip": "ym2612"
    },
    {
      "channel": 5,
      "note": 79,
      "start": 17.0231,
      "duration": 0.1671,
      "velocity": 127,
      "chip": "ym2612"
    },
    {
      "channel": 0,
      "note": 55,
      "start": 17.189,
      "duration": 0.1665,
      "velocity": 112,
      "chip": "ym2612"
    },
    {
      "channel": 1,
      "note": 48,
      "start": 17.1896,
      "duration": 0.287,
      "velocity": 102,
      "chip": "ym2612"
    },
    {
      "channel": 5,
      "note": 79,
      "start": 17.1903,
      "duration": 0.4397,
      "velocity": 127,
      "chip": "ym2612"
    },
    {
      "channel": 0,
      "note": 58,
      "start": 17.3556,
      "duration": 0.1204,
      "velocity": 112,
      "chip": "ym2612"
    },
    {
      "channel": 0,
      "note": 53,
      "start": 17.4762,
      "duration": 0.3029,
      "velocity": 112,
      "chip": "ym2612"
    },
    {
      "channel": 1,
      "note": 41,
      "start": 17.4768,
      "duration": 0.303,
      "velocity": 102,
      "chip": "ym2612"
    },
    {
      "channel": 2,
      "note": 72,
      "start": 17.4773,
      "duration": 2.4025,
      "velocity": 107,
      "chip": "ym2612"
    },
    {
      "channel": 3,
      "note": 69,
      "start": 17.5463,
      "duration": 2.3341,
      "velocity": 107,
      "chip": "ym2612"
    },
    {
      "channel": 4,
      "note": 65,
      "start": 17.6296,
      "duration": 2.2514,
      "velocity": 107,
      "chip": "ym2612"
    },
    {
      "channel": 5,
      "note": 79,
      "start": 17.6302,
      "duration": 0.1503,
      "velocity": 127,
      "chip": "ym2612"
    },
    {
      "channel": 0,
      "note": 65,
      "start": 17.7794,
      "duration": 0.1665,
      "velocity": 112,
      "chip": "ym2612"
    },
    {
      "channel": 1,
      "note": 53,
      "start": 17.7799,
      "duration": 0.3171,
      "velocity": 102,
      "chip": "ym2612"
    },
    {
      "channel": 5,
      "note": 79,
      "start": 17.7807,
      "duration": 0.4368,
      "velocity": 127,
      "chip": "ym2612"
    },
    {
      "channel": 0,
      "note": 63,
      "start": 17.946,
      "duration": 0.2706,
      "velocity": 112,
      "chip": "ym2612"
    },
    {
      "channel": 1,
      "note": 41,
      "start": 18.0971,
      "duration": 0.2863,
      "velocity": 102,
      "chip": "ym2612"
    },
    {
      "channel": 0,
      "note": 65,
      "start": 18.2168,
      "duration": 0.3165,
      "velocity": 112,
      "chip": "ym2612"
    },
    {
      "channel": 5,
      "note": 79,
      "start": 18.2176,
      "duration": 0.1665,
      "velocity": 127,
      "chip": "ym2612"
    },
    {
      "channel": 1,
      "note": 53,
      "start": 18.3835,
      "duration": 0.3017,
      "velocity": 102,
      "chip": "ym2612"
    },
    {
      "channel": 5,
      "note": 79,
      "start": 18.3843,
      "duration": 0.3017,
      "velocity": 127,
      "chip": "ym2612"
    },
    {
      "channel": 0,
      "note": 51,
      "start": 18.5334,
      "duration": 0.1512,
      "velocity": 112,
      "chip": "ym2612"
    },
    {
      "channel": 0,
      "note": 53,
      "start": 18.6848,
      "duration": 0.1665,
      "velocity": 112,
      "chip": "ym2612"
    },
    {
      "channel": 1,
      "note": 41,
      "start": 18.6854,
      "duration": 0.3012,
      "velocity": 102,
      "chip": "ym2612"
    },
    {
      "channel": 5,
      "note": 79,
      "start": 18.6861,
      "duration": 0.3013,
      "velocity": 127,
      "chip": "ym2612"
    },
    {
      "channel": 0,
      "note": 60,
      "start": 18.8515,
      "duration": 0.1346,
      "velocity": 112,
      "chip": "ym2612"
    },
    {
      "channel": 0,
      "note": 65,
      "start": 18.9863,
      "duration": 0.1665,
      "velocity": 112,
      "chip": "ym2612"
    },
    {
      "channel": 1,
      "note": 53,
      "start": 18.9869,
      "duration": 0.301,
      "velocity": 102,
      "chip": "ym2612"
    },
    {
      "channel": 5,
      "note": 79,
      "start": 18.9876,
      "duration": 0.4378,
      "velocity": 127,
      "chip": "ym2612"
    },
    {
      "channel": 0,
      "note": 63,
      "start": 19.1529,
      "duration": 0.2717,
      "velocity": 112,
      "chip": "ym2612"
    },
    {
      "channel": 1,
      "note": 41,
      "start": 19.288,
      "duration": 0.3033,
      "velocity": 102,
      "chip": "ym2612"
    },
    {
      "channel": 0,
      "note": 65,
      "start": 19.4248,
      "duration": 0.3165,
      "velocity": 112,
      "chip": "ym2612"
    },
    {
      "channel": 5,
      "note": 79,
      "start": 19.4256,
      "duration": 0.1665,
      "velocity": 127,
      "chip": "ym2612"
    },
    {
      "channel": 1,
      "note": 53,
      "start": 19.5915,
      "duration": 0.2877,
      "velocity": 102,
      "chip": "ym2612"
    },
    {
      "channel": 5,
      "note": 79,
      "start": 19.5922,
      "duration": 0.4218,
      "velocity": 127,
      "chip": "ym2612"
    },
    {
      "channel": 0,
      "note": 58,
      "start": 19.7414,
      "duration": 0.1371,
      "velocity": 112,
      "chip": "ym2612"
    },
    {
      "channel": 0,
      "note": 48,
      "start": 19.8788,
      "duration": 0.3016,
      "velocity": 112,
      "chip": "ym2612"
    },
    {
      "channel": 1,
      "note": 36,
      "start": 19.8793,
      "duration": 0.3016,
      "velocity": 102,
      "chip": "ym2612"
    },
    {
      "channel": 2,
      "note": 84,
      "start": 19.88,
      "duration": 1.2102,
      "velocity": 107,
      "chip": "ym2612"
    },
    {
      "channel": 3,
      "note": 79,
      "start": 19.8806,
      "duration": 1.2102,
      "velocity": 107,
      "chip": "ym2612"
    },
    {
      "channel": 4,
      "note": 76,
      "start": 19.8812,
      "duration": 1.2102,
      "velocity": 107,
      "chip": "ym2612"
    },
    {
      "channel": 5,
      "note": 79,
      "start": 20.0142,
      "duration": 0.1675,
      "velocity": 127,
      "chip": "ym2612"
    },
    {
      "channel": 0,
      "note": 60,
      "start": 20.1805,
      "duration": 0.1665,
      "velocity": 112,
      "chip": "ym2612"
    },
    {
      "channel": 1,
      "note": 48,
      "start": 20.1811,
      "duration": 0.3011,
      "velocity": 102,
      "chip": "ym2612"
    },
    {
      "channel": 5,
      "note": 79,
      "start": 20.1818,
      "duration": 0.4394,
      "velocity": 127,
      "chip": "ym2612"
    },
    {
      "channel": 0,
      "note": 58,
      "start": 20.3472,
      "duration": 0.2732,
      "velocity": 112,
      "chip": "ym2612"
    },
    {
      "channel": 1,
      "note": 36,
      "start": 20.4823,
      "duration": 0.2882,
      "velocity": 102,
      "chip": "ym2612"
    },
    {
      "channel": 0,
      "note": 60,
      "start": 20.6205,
      "duration": 0.3165,
      "velocity": 112,
      "chip": "ym2612"
    },
    {
      "channel": 5,
      "note": 79,
      "start": 20.6214,
      "duration": 0.1499,
      "velocity": 127,
      "chip": "ym2612"
    },
    {
      "channel": 1,
      "note": 48,
      "start": 20.7706,
      "duration": 0.319,
      "velocity": 102,
      "chip": "ym2612"
    },
    {
      "channel": 5,
      "note": 79,
      "start": 20.7714,
      "duration": 0.3205,
      "velocity": 127,
      "chip": "ym2612"
    },
    {
      "channel": 0,
      "note": 46,
      "start": 20.9372,
      "duration": 0.1519,
      "velocity": 112,
      "chip": "ym2612"
    },
    {
      "channel": 0,
      "note": 48,
      "start": 21.0892,
      "duration": 0.1498,
      "velocity": 112,
      "chip": "ym2612"
    },
    {
      "channel": 1,
      "note": 36,
      "start": 21.0898,
      "duration": 0.3022,
      "velocity": 102,
      "chip": "ym2612"
    },
    {
      "channel": 2,
      "note": 82,
      "start": 21.0904,
      "duration": 1.1779,
      "velocity": 107,
      "chip": "ym2612"
    },
    {
      "channel": 3,
      "note": 77,
      "start": 21.091,
      "duration": 1.178,
      "velocity": 107,
      "chip": "ym2612"
    },
    {
      "channel": 4,
      "note": 74,
      "start": 21.0915,
      "duration": 1.178,
      "velocity": 107,
      "chip": "ym2612"
    },
    {
      "channel": 5,
      "note": 79,
      "start": 21.092,
      "duration": 0.3008,
      "velocity": 127,
      "chip": "ym2612"
    },
    {
      "channel": 0,
      "note": 55,
      "start": 21.2391,
      "duration": 0.1524,
      "velocity": 112,
      "chip": "ym2612"
    },
    {
      "channel": 0,
      "note": 60,
      "start": 21.3917,
      "duration": 0.1498,
      "velocity": 112,
      "chip": "ym2612"
    },
    {
      "channel": 1,
      "note": 48,
      "start": 21.3922,
      "duration": 0.3006,
      "velocity": 102,
      "chip": "ym2612"
    },
    {
      "channel": 5,
      "note": 79,
      "start": 21.3929,
      "duration": 0.438,
      "velocity": 127,
      "chip": "ym2612"
    },
    {
      "channel": 0,
      "note": 58,
      "start": 21.5416,
      "duration": 0.2886,
      "velocity": 112,
      "chip": "ym2612"
    },
    {
      "channel": 1,
      "note": 36,
      "start": 21.693,
      "duration": 0.2878,
      "velocity": 102,
      "chip": "ym2612"
    },
    {
      "channel": 0,
      "note": 53,
      "start": 21.8303,
      "duration": 0.1499,
      "velocity": 112,
      "chip": "ym2612"
    },
    {
      "channel": 5,
      "note": 79,
      "start": 21.8311,
      "duration": 0.1504,
      "velocity": 127,
      "chip": "ym2612"
    },
    {
      "channel": 0,
      "note": 55,
      "start": 21.9804,
      "duration": 0.1665,
      "velocity": 112,
      "chip": "ym2612"
    },
    {
      "channel": 1,
      "note": 48,
      "start": 21.981,
      "duration": 0.2868,
      "velocity": 102,
      "chip": "ym2612"
    },
    {
      "channel": 5,
      "note": 79,
      "start": 21.9817,
      "duration": 0.4367,
      "velocity": 127,
      "chip": "ym2612"
    },
    {
      "channel": 0,
      "note": 58,
      "start": 22.147,
      "duration": 0.1202,
      "velocity": 112,
      "chip": "ym2612"
    },
    {
      "channel": 0,
      "note": 53,
      "start": 22.2674,
      "duration": 0.3174,
      "velocity": 112,
      "chip": "ym2612"
    },
    {
      "channel": 1,
      "note": 41,
      "start": 22.2679,
      "duration": 0.3174,
      "velocity": 102,
      "chip": "ym2612"
    },
    {
      "channel": 2,
      "note": 81,
      "start": 22.2685,
      "duration": 1.2073,
      "velocity": 107,
      "chip": "ym2612"
    },
    {
      "channel": 3,
      "note": 77,
      "start": 22.2691,
      "duration": 1.2073,
      "velocity": 107,
      "chip": "ym2612"
    },
    {
      "channel": 4,
      "note": 72,
      "start": 22.2696,
      "duration": 1.2074,
      "velocity": 107,
      "chip": "ym2612"
    },
    {
      "channel": 5,
      "note": 79,
      "start": 22.4185,
      "duration": 0.1676,
      "velocity": 127,
      "chip": "ym2612"
    },
    {
      "channel": 0,
      "note": 65,
      "start": 22.5849,
      "duration": 0.1498,
      "velocity": 112,
      "chip": "ym2612"
    },
    {
      "channel": 1,
      "note": 53,
      "start": 22.5855,
      "duration": 0.301,
      "velocity": 102,
      "chip": "ym2612"
    },
    {
      "channel": 5,
      "note": 79,
      "start": 22.5863,
      "duration": 0.421,
      "velocity": 127,
      "chip": "ym2612"
    },
    {
      "channel": 0,
      "note": 63,
      "start": 22.7349,
      "duration": 0.2716,
      "velocity": 112,
      "chip": "ym2612"
    },
    {
      "channel": 1,
      "note": 41,
      "start": 22.8866,
      "duration": 0.2866,
      "velocity": 102,
      "chip": "ym2612"
    },
    {
      "channel": 0,
      "note": 65,
      "start": 23.0067,
      "duration": 0.3332,
      "velocity": 112,
      "chip": "ym2612"
    },
    {
      "channel": 5,
      "note": 79,
      "start": 23.0075,
      "duration": 0.1665,
      "velocity": 127,
      "chip": "ym2612"
    },
    {
      "channel": 1,
      "note": 53,
      "start": 23.1734,
      "duration": 0.302,
      "velocity": 102,
      "chip": "ym2612"
    },
    {
      "channel": 5,
      "note": 79,
      "start": 23.1741,
      "duration": 0.3034,
      "velocity": 127,
      "chip": "ym2612"
    },
    {
      "channel": 0,
      "note": 51,
      "start": 23.34,
      "duration": 0.1348,
      "velocity": 112,
      "chip": "ym2612"
    },
    {
      "channel": 0,
      "note": 53,
      "start": 23.4749,
      "duration": 0.1663,
      "velocity": 112,
      "chip": "ym2612"
    },
    {
      "channel": 1,
      "note": 41,
      "start": 23.4754,
      "duration": 0.3015,
      "velocity": 102,
      "chip": "ym2612"
    },
    {
      "channel": 2,
      "note": 77,
      "start": 23.476,
      "duration": 1.1939,
      "velocity": 107,
      "chip": "ym2612"
    },
    {
      "channel": 3,
      "note": 72,
      "start": 23.4766,
      "duration": 1.1939,
      "velocity": 107,
      "chip": "ym2612"
    },
    {
      "channel": 4,
      "note": 69,
      "start": 23.4772,
      "duration": 1.1939,
      "velocity": 107,
      "chip": "ym2612"
    },
    {
      "channel": 5,
      "note": 79,
      "start": 23.4777,
      "duration": 0.3,
      "velocity": 127,
      "chip": "ym2612"
    },
    {
      "channel": 0,
      "note": 60,
      "start": 23.6415,
      "duration": 0.1349,
      "velocity": 112,
      "chip": "ym2612"
    },
    {
      "channel": 0,
      "note": 65,
      "start": 23.7766,
      "duration": 0.1665,
      "velocity": 112,
      "chip": "ym2612"
    },
    {
      "channel": 1,
      "note": 53,
      "start": 23.7771,
      "duration": 0.3179,
      "velocity": 102,
      "chip": "ym2612"
    },
    {
      "channel": 5,
      "note": 79,
      "start": 23.7778,
      "duration": 0.4385,
      "velocity": 127,
      "chip": "ym2612"
    },
    {
      "channel": 0,
      "note": 63,
      "start": 23.9432,
      "duration": 0.2723,
      "velocity": 112,
      "chip": "ym2612"
    },
    {
      "channel": 1,
      "note": 41,
      "start": 24.0951,
      "duration": 0.2871,
      "velocity": 102,
      "chip": "ym2612"
    },
    {
      "channel": 0,
      "note": 65,
      "start": 24.2157,
      "duration": 0.3165,
      "velocity": 112,
      "chip": "ym2612"
    },
    {
      "channel": 5,
      "note": 79,
      "start": 24.2164,
      "duration": 0.1665,
      "velocity": 127,
      "chip": "ym2612"
    },
    {
      "channel": 1,
      "note": 53,
      "start": 24.3823,
      "duration": 0.287,
      "velocity": 102,
      "chip": "ym2612"
    },
    {
      "channel": 5,
      "note": 79,
      "start": 24.3831,
      "duration": 0.4376,
      "velocity": 127,
      "chip": "ym2612"
    },
    {
      "channel": 0,
      "note": 58,
      "start": 24.5323,
      "duration": 0.1364,
      "velocity": 112,
      "chip": "ym2612"
    },
    {
      "channel": 0,
      "note": 48,
      "start": 24.6689,
      "duration": 0.3015,
      "velocity": 112,
      "chip": "ym2612"
    },
    {
      "channel": 1,
      "note": 36,
      "start": 24.6694,
      "duration": 0.3015,
      "velocity": 102,
      "chip": "ym2612"
    },
    {
      "channel": 2,
      "note": 76,
      "start": 24.6701,
      "duration": 1.2084,
      "velocity": 107,
      "chip": "ym2612"
    },
    {
      "channel": 3,
      "note": 72,
      "start": 24.6706,
      "duration": 1.2084,
      "velocity": 107,
      "chip": "ym2612"
    },
    {
      "channel": 4,
      "note": 67,
      "start": 24.6713,
      "duration": 1.2083,
      "velocity": 107,
      "chip": "ym2612"
    },
    {
      "channel": 5,
      "note": 79,
      "start": 24.8209,
      "duration": 0.1508,
      "velocity": 127,
      "chip": "ym2612"
    },
    {
      "channel": 0,
      "note": 60,
      "start": 24.9706,
      "duration": 0.1665,
      "velocity": 112,
      "chip": "ym2612"
    },
    {
      "channel": 1,
      "note": 48,
      "start": 24.9712,
      "duration": 0.3008,
      "velocity": 102,
      "chip": "ym2612"
    },
    {
      "channel": 5,
      "note": 79,
      "start": 24.9719,
      "duration": 0.4378,
      "velocity": 127,
      "chip": "ym2612"
    },
    {
      "channel": 0,
      "note": 58,
      "start": 25.1373,
      "duration": 0.2717,
      "velocity": 112,
      "chip": "ym2612"
    },
    {
      "channel": 1,
      "note": 36,
      "start": 25.2721,
      "duration": 0.3036,
      "velocity": 102,
      "chip": "ym2612"
    },
    {
      "channel": 0,
      "note": 60,
      "start": 25.4091,
      "duration": 0.3165,
      "velocity": 112,
      "chip": "ym2612"
    },
    {
      "channel": 5,
      "note": 79,
      "start": 25.4099,
      "duration": 0.1665,
      "velocity": 127,
      "chip": "ym2612"
    },
    {
      "channel": 1,
      "note": 48,
      "start": 25.5758,
      "duration": 0.3021,
      "velocity": 102,
      "chip": "ym2612"
    },
    {
      "channel": 5,
      "note": 79,
      "start": 25.5766,
      "duration": 0.3036,
      "velocity": 127,
      "chip": "ym2612"
    },
    {
      "channel": 0,
      "note": 46,
      "start": 25.7257,
      "duration": 0.1517,
      "velocity": 112,
      "chip": "ym2612"
    },
    {
      "channel": 0,
      "note": 48,
      "start": 25.8775,
      "duration": 0.1498,
      "velocity": 112,
      "chip": "ym2612"
    },
    {
      "channel": 1,
      "note": 36,
      "start": 25.8781,
      "duration": 0.3008,
      "velocity": 102,
      "chip": "ym2612"
    },
    {
      "channel": 2,
      "note": 74,
      "start": 25.8787,
      "duration": 1.1944,
      "velocity": 107,
      "chip": "ym2612"
    },
    {
      "channel": 3,
      "note": 70,
      "start": 25.8792,
      "duration": 1.2458,
      "velocity": 107,
      "chip": "ym2612"
    },
    {
      "channel": 4,
      "note": 65,
      "start": 25.8797,
      "duration": 1.3285,
      "velocity": 107,
      "chip": "ym2612"
    },
    {
      "channel": 5,
      "note": 79,
      "start": 25.8803,
      "duration": 0.2993,
      "velocity": 127,
      "chip": "ym2612"
    },
    {
      "channel": 0,
      "note": 55,
      "start": 26.0274,
      "duration": 0.1509,
      "velocity": 112,
      "chip": "ym2612"
    },
    {
      "channel": 0,
      "note": 60,
      "start": 26.1785,
      "duration": 0.1665,
      "velocity": 112,
      "chip": "ym2612"
    },
    {
      "channel": 1,
      "note": 48,
      "start": 26.1791,
      "duration": 0.3016,
      "velocity": 102,
      "chip": "ym2612"
    },
    {
      "channel": 5,
      "note": 79,
      "start": 26.1798,
      "duration": 0.4394,
      "velocity": 127,
      "chip": "ym2612"
    },
    {
      "channel": 0,
      "note": 58,
      "start": 26.3451,
      "duration": 0.2733,
      "velocity": 112,
      "chip": "ym2612"
    },
    {
      "channel": 1,
      "note": 36,
      "start": 26.4808,
      "duration": 0.2882,
      "velocity": 102,
      "chip": "ym2612"
    },
    {
      "channel": 0,
      "note": 53,
      "start": 26.6185,
      "duration": 0.1499,
      "velocity": 112,
      "chip": "ym2612"
    },
    {
      "channel": 5,
      "note": 79,
      "start": 26.6193,
      "duration": 0.1504,
      "velocity": 127,
      "chip": "ym2612"
    },
    {
      "channel": 0,
      "note": 55,
      "start": 26.7686,
      "duration": 0.1665,
      "velocity": 112,
      "chip": "ym2612"
    },
    {
      "channel": 1,
      "note": 48,
      "start": 26.7692,
      "duration": 0.3033,
      "velocity": 102,
      "chip": "ym2612"
    },
    {
      "channel": 5,
      "note": 79,
      "start": 26.7699,
      "duration": 0.4389,
      "velocity": 127,
      "chip": "ym2612"
    },
    {
      "channel": 0,
      "note": 58,
      "start": 26.9352,
      "duration": 0.1367,
      "velocity": 112,
      "chip": "ym2612"
    },
    {
      "channel": 0,
      "note": 53,
      "start": 27.0721,
      "duration": 0.3025,
      "velocity": 112,
      "chip": "ym2612"
    },
    {
      "channel": 1,
      "note": 41,
      "start": 27.0727,
      "duration": 0.3025,
      "velocity": 102,
      "chip": "ym2612"
    },
    {
      "channel": 2,
      "note": 72,
      "start": 27.0732,
      "duration": 2.3911,
      "velocity": 99,
      "chip": "ym2612"
    },
    {
      "channel": 3,
      "note": 69,
      "start": 27.1252,
      "duration": 2.3398,
      "velocity": 107,
      "chip": "ym2612"
    },
    {
      "channel": 4,
      "note": 65,
      "start": 27.2084,
      "duration": 2.2571,
      "velocity": 107,
      "chip": "ym2612"
    },
    {
      "channel": 5,
      "note": 79,
      "start": 27.209,
      "duration": 0.167,
      "velocity": 127,
      "chip": "ym2612"
    },
    {
      "channel": 0,
      "note": 65,
      "start": 27.3748,
      "duration": 0.1498,
      "velocity": 112,
      "chip": "ym2612"
    },
    {
      "channel": 1,
      "note": 53,
      "start": 27.3754,
      "duration": 0.3006,
      "velocity": 102,
      "chip": "ym2612"
    },
    {
      "channel": 5,
      "note": 79,
      "start": 27.3761,
      "duration": 0.4401,
      "velocity": 127,
      "chip": "ym2612"
    },
    {
      "channel": 0,
      "note": 63,
      "start": 27.5247,
      "duration": 0.2906,
      "velocity": 112,
      "chip": "ym2612"
    },
    {
      "channel": 1,
      "note": 41,
      "start": 27.6761,
      "duration": 0.2893,
      "velocity": 102,
      "chip": "ym2612"
    },
    {
      "channel": 0,
      "note": 65,
      "start": 27.8155,
      "duration": 0.3165,
      "velocity": 112,
      "chip": "ym2612"
    },
    {
      "channel": 5,
      "note": 79,
      "start": 27.8163,
      "duration": 0.1499,
      "velocity": 127,
      "chip": "ym2612"
    },
    {
      "channel": 1,
      "note": 53,
      "start": 27.9656,
      "duration": 0.3016,
      "velocity": 102,
      "chip": "ym2612"
    },
    {
      "channel": 5,
      "note": 79,
      "start": 27.9663,
      "duration": 0.3016,
      "velocity": 127,
      "chip": "ym2612"
    },
    {
      "channel": 0,
      "note": 51,
      "start": 28.1322,
      "duration": 0.1344,
      "velocity": 112,
      "chip": "ym2612"
    },
    {
      "channel": 0,
      "note": 53,
      "start": 28.2667,
      "duration": 0.1665,
      "velocity": 112,
      "chip": "ym2612"
    },
    {
      "channel": 1,
      "note": 41,
      "start": 28.2673,
      "duration": 0.3176,
      "velocity": 102,
      "chip": "ym2612"
    },
    {
      "channel": 5,
      "note": 79,
      "start": 28.268,
      "duration": 0.3176,
      "velocity": 127,
      "chip": "ym2612"
    },
    {
      "channel": 0,
      "note": 60,
      "start": 28.4334,
      "duration": 0.1509,
      "velocity": 112,
      "chip": "ym2612"
    },
    {
      "channel": 0,
      "note": 65,
      "start": 28.5845,
      "duration": 0.1498,
      "velocity": 112,
      "chip": "ym2612"
    },
    {
      "channel": 1,
      "note": 53,
      "start": 28.5851,
      "duration": 0.3012,
      "velocity": 102,
      "chip": "ym2612"
    },
    {
      "channel": 5,
      "note": 79,
      "start": 28.5858,
      "duration": 0.4214,
      "velocity": 127,
      "chip": "ym2612"
    },
    {
      "channel": 0,
      "note": 63,
      "start": 28.7345,
      "duration": 0.2719,
      "velocity": 112,
      "chip": "ym2612"
    },
    {
      "channel": 1,
      "note": 41,
      "start": 28.8864,
      "duration": 0.2866,
      "velocity": 102,
      "chip": "ym2612"
    },
    {
      "channel": 0,
      "note": 65,
      "start": 29.0065,
      "duration": 0.3332,
      "velocity": 112,
      "chip": "ym2612"
    },
    {
      "channel": 5,
      "note": 79,
      "start": 29.0073,
      "duration": 0.1665,
      "velocity": 127,
      "chip": "ym2612"
    },
    {
      "channel": 1,
      "note": 53,
      "start": 29.1732,
      "duration": 0.5911,
      "velocity": 100,
      "chip": "ym2612"
    },
    {
      "channel": 5,
      "note": 79,
      "start": 29.174,
      "duration": 0.4385,
      "velocity": 127,
      "chip": "ym2612"
    },
    {
      "channel": 0,
      "note": 58,
      "start": 29.3399,
      "duration": 0.1223,
      "velocity": 117,
      "chip": "ym2612"
    },
    {
      "channel": 0,
      "note": 55,
      "start": 29.4623,
      "duration": 0.2998,
      "velocity": 117,
      "chip": "ym2612"
    },
    {
      "channel": 2,
      "note": 74,
      "start": 29.4645,
      "duration": 0.6155,
      "velocity": 99,
      "chip": "ym2612"
    },
    {
      "channel": 3,
      "note": 71,
      "start": 29.4651,
      "duration": 2.3982,
      "velocity": 107,
      "chip": "ym2612"
    },
    {
      "channel": 4,
      "note": 74,
      "start": 29.4657,
      "duration": 2.3981,
      "velocity": 107,
      "chip": "ym2612"
    },
    {
      "channel": 5,
      "note": 79,
      "start": 29.6126,
      "duration": 0.1524,
      "velocity": 127,
      "chip": "ym2612"
    },
    {
      "channel": 0,
      "note": 55,
      "start": 29.7623,
      "duration": 0.1665,
      "velocity": 117,
      "chip": "ym2612"
    },
    {
      "channel": 1,
      "note": 74,
      "start": 29.7644,
      "duration": 0.6027,
      "velocity": 100,
      "chip": "ym2612"
    },
    {
      "channel": 5,
      "note": 79,
      "start": 29.7652,
      "duration": 0.4356,
      "velocity": 127,
      "chip": "ym2612"
    },
    {
      "channel": 0,
      "note": 67,
      "start": 29.929,
      "duration": 0.271,
      "velocity": 117,
      "chip": "ym2612"
    },
    {
      "channel": 2,
      "note": 79,
      "start": 30.0801,
      "duration": 0.5884,
      "velocity": 99,
      "chip": "ym2612"
    },
    {
      "channel": 0,
      "note": 55,
      "start": 30.2001,
      "duration": 0.1665,
      "velocity": 117,
      "chip": "ym2612"
    },
    {
      "channel": 5,
      "note": 79,
      "start": 30.2009,
      "duration": 0.1671,
      "velocity": 127,
      "chip": "ym2612"
    },
    {
      "channel": 0,
      "note": 62,
      "start": 30.3668,
      "duration": 0.1498,
      "velocity": 117,
      "chip": "ym2612"
    },
    {
      "channel": 1,
      "note": 79,
      "start": 30.3673,
      "duration": 0.602,
      "velocity": 100,
      "chip": "ym2612"
    },
    {
      "channel": 5,
      "note": 79,
      "start": 30.368,
      "duration": 0.3012,
      "velocity": 127,
      "chip": "ym2612"
    },
    {
      "channel": 0,
      "note": 64,
      "start": 30.5167,
      "duration": 0.1512,
      "velocity": 117,
      "chip": "ym2612"
    },
    {
      "channel": 0,
      "note": 55,
      "start": 30.6681,
      "duration": 0.3007,
      "velocity": 117,
      "chip": "ym2612"
    },
    {
      "channel": 2,
      "note": 77,
      "start": 30.6687,
      "duration": 0.3012,
      "velocity": 99,
      "chip": "ym2612"
    },
    {
      "channel": 5,
      "note": 79,
      "start": 30.6694,
      "duration": 0.3012,
      "velocity": 127,
      "chip": "ym2612"
    },
    {
      "channel": 0,
      "note": 55,
      "start": 30.969,
      "duration": 0.1664,
      "velocity": 117,
      "chip": "ym2612"
    },
    {
      "channel": 1,
      "note": 77,
      "start": 30.9695,
      "duration": 0.3008,
      "velocity": 100,
      "chip": "ym2612"
    },
    {
      "channel": 2,
      "note": 76,
      "start": 30.9701,
      "duration": 0.3008,
      "velocity": 99,
      "chip": "ym2612"
    },
    {
      "channel": 5,
      "note": 79,
      "start": 30.9708,
      "duration": 0.4371,
      "velocity": 127,
      "chip": "ym2612"
    },
    {
      "channel": 0,
      "note": 67,
      "start": 31.1356,
      "duration": 0.2715,
      "velocity": 117,
      "chip": "ym2612"
    },
    {
      "channel": 1,
      "note": 76,
      "start": 31.2705,
      "duration": 0.3039,
      "velocity": 100,
      "chip": "ym2612"
    },
    {
      "channel": 2,
      "note": 74,
      "start": 31.271,
      "duration": 0.3039,
      "velocity": 99,
      "chip": "ym2612"
    },
    {
      "channel": 0,
      "note": 55,
      "start": 31.4072,
      "duration": 0.1666,
      "velocity": 117,
      "chip": "ym2612"
    },
    {
      "channel": 5,
      "note": 79,
      "start": 31.408,
      "duration": 0.1676,
      "velocity": 127,
      "chip": "ym2612"
    },
    {
      "channel": 0,
      "note": 62,
      "start": 31.574,
      "duration": 0.1498,
      "velocity": 117,
      "chip": "ym2612"
    },
    {
      "channel": 1,
      "note": 74,
      "start": 31.5745,
      "duration": 0.2876,
      "velocity": 100,
      "chip": "ym2612"
    },
    {
      "channel": 2,
      "note": 72,
      "start": 31.5751,
      "duration": 0.2876,
      "velocity": 99,
      "chip": "ym2612"
    },
    {
      "channel": 5,
      "note": 79,
      "start": 31.5758,
      "duration": 0.4221,
      "velocity": 127,
      "chip": "ym2612"
    },
    {
      "channel": 0,
      "note": 64,
      "start": 31.7239,
      "duration": 0.1377,
      "velocity": 117,
      "chip": "ym2612"
    },
    {
      "channel": 0,
      "note": 55,
      "start": 31.8617,
      "duration": 0.3026,
      "velocity": 117,
      "chip": "ym2612"
    },
    {
      "channel": 1,
      "note": 72,
      "start": 31.8623,
      "duration": 0.3026,
      "velocity": 100,
      "chip": "ym2612"
    },
    {
      "channel": 2,
      "note": 71,
      "start": 31.8629,
      "duration": 0.603,
      "velocity": 99,
      "chip": "ym2612"
    },
    {
      "channel": 3,
      "note": 83,
      "start": 31.8634,
      "duration": 1.2091,
      "velocity": 107,
      "chip": "ym2612"
    },
    {
      "channel": 4,
      "note": 79,
      "start": 31.8639,
      "duration": 1.2091,
      "velocity": 107,
      "chip": "ym2612"
    },
    {
      "channel": 5,
      "note": 79,
      "start": 31.9981,
      "duration": 0.1676,
      "velocity": 127,
      "chip": "ym2612"
    },
    {
      "channel": 0,
      "note": 55,
      "start": 32.1645,
      "duration": 0.1665,
      "velocity": 117,
      "chip": "ym2612"
    },
    {
      "channel": 1,
      "note": 71,
      "start": 32.1651,
      "duration": 0.589,
      "velocity": 100,
      "chip": "ym2612"
    },
    {
      "channel": 5,
      "note": 79,
      "start": 32.1658,
      "duration": 0.4385,
      "velocity": 127,
      "chip": "ym2612"
    },
    {
      "channel": 0,
      "note": 67,
      "start": 32.3311,
      "duration": 0.2724,
      "velocity": 117,
      "chip": "ym2612"
    },
    {
      "channel": 2,
      "note": 74,
      "start": 32.466,
      "duration": 0.606,
      "velocity": 99,
      "chip": "ym2612"
    },
    {
      "channel": 0,
      "note": 55,
      "start": 32.6037,
      "duration": 0.1499,
      "velocity": 117,
      "chip": "ym2612"
    },
    {
      "channel": 5,
      "note": 79,
      "start": 32.6045,
      "duration": 0.1504,
      "velocity": 127,
      "chip": "ym2612"
    },
    {
      "channel": 0,
      "note": 62,
      "start": 32.7537,
      "duration": 0.1665,
      "velocity": 117,
      "chip": "ym2612"
    },
    {
      "channel": 1,
      "note": 74,
      "start": 32.7543,
      "duration": 0.6198,
      "velocity": 100,
      "chip": "ym2612"
    },
    {
      "channel": 5,
      "note": 79,
      "start": 32.755,
      "duration": 0.3186,
      "velocity": 127,
      "chip": "ym2612"
    },
    {
      "channel": 0,
      "note": 64,
      "start": 32.9204,
      "duration": 0.151,
      "velocity": 117,
      "chip": "ym2612"
    },
    {
      "channel": 0,
      "note": 55,
      "start": 33.0715,
      "duration": 0.302,
      "velocity": 117,
      "chip": "ym2612"
    },
    {
      "channel": 2,
      "note": 72,
      "start": 33.0722,
      "duration": 0.6028,
      "velocity": 99,
      "chip": "ym2612"
    },
    {
      "channel": 3,
      "note": 77,
      "start": 33.0727,
      "duration": 1.1782,
      "velocity": 107,
      "chip": "ym2612"
    },
    {
      "channel": 4,
      "note": 81,
      "start": 33.0732,
      "duration": 1.1782,
      "velocity": 107,
      "chip": "ym2612"
    },
    {
      "channel": 5,
      "note": 79,
      "start": 33.0738,
      "duration": 0.301,
      "velocity": 127,
      "chip": "ym2612"
    },
    {
      "channel": 0,
      "note": 55,
      "start": 33.3737,
      "duration": 0.1498,
      "velocity": 117,
      "chip": "ym2612"
    },
    {
      "channel": 1,
      "note": 72,
      "start": 33.3743,
      "duration": 0.5881,
      "velocity": 100,
      "chip": "ym2612"
    },
    {
      "channel": 5,
      "note": 79,
      "start": 33.375,
      "duration": 0.4376,
      "velocity": 127,
      "chip": "ym2612"
    },
    {
      "channel": 0,
      "note": 67,
      "start": 33.5236,
      "duration": 0.2881,
      "velocity": 117,
      "chip": "ym2612"
    },
    {
      "channel": 2,
      "note": 77,
      "start": 33.6751,
      "duration": 0.2878,
      "velocity": 99,
      "chip": "ym2612"
    },
    {
      "channel": 0,
      "note": 55,
      "start": 33.8119,
      "duration": 0.1499,
      "velocity": 117,
      "chip": "ym2612"
    },
    {
      "channel": 5,
      "note": 79,
      "start": 33.8127,
      "duration": 0.1509,
      "velocity": 127,
      "chip": "ym2612"
    },
    {
      "channel": 0,
      "note": 62,
      "start": 33.962,
      "duration": 0.1664,
      "velocity": 117,
      "chip": "ym2612"
    },
    {
      "channel": 1,
      "note": 77,
      "start": 33.9625,
      "duration": 0.2871,
      "velocity": 100,
      "chip": "ym2612"
    },
    {
      "channel": 2,
      "note": 81,
      "start": 33.9631,
      "duration": 0.2871,
      "velocity": 99,
      "chip": "ym2612"
    },
    {
      "channel": 5,
      "note": 79,
      "start": 33.9638,
      "duration": 0.4388,
      "velocity": 127,
      "chip": "ym2612"
    },
    {
      "channel": 0,
      "note": 64,
      "start": 34.1286,
      "duration": 0.1204,
      "velocity": 117,
      "chip": "ym2612"
    },
    {
      "channel": 0,
      "note": 55,
      "start": 34.2492,
      "duration": 0.3192,
      "velocity": 117,
      "chip": "ym2612"
    },
    {
      "channel": 1,
      "note": 77,
      "start": 34.2498,
      "duration": 0.3191,
      "velocity": 100,
      "chip": "ym2612"
    },
    {
      "channel": 2,
      "note": 83,
      "start": 34.2504,
      "duration": 0.1514,
      "velocity": 99,
      "chip": "ym2612"
    },
    {
      "channel": 3,
      "note": 71,
      "start": 34.251,
      "duration": 2.4055,
      "velocity": 107,
      "chip": "ym2612"
    },
    {
      "channel": 4,
      "note": 74,
      "start": 34.2516,
      "duration": 2.4054,
      "velocity": 107,
      "chip": "ym2612"
    },
    {
      "channel": 2,
      "note": 84,
      "start": 34.4019,
      "duration": 0.1676,
      "velocity": 99,
      "chip": "ym2612"
    },
    {
      "channel": 5,
      "note": 79,
      "start": 34.4027,
      "duration": 0.1675,
      "velocity": 127,
      "chip": "ym2612"
    },
    {
      "channel": 0,
      "note": 55,
      "start": 34.5685,
      "duration": 0.1499,
      "velocity": 117,
      "chip": "ym2612"
    },
    {
      "channel": 1,
      "note": 83,
      "start": 34.5691,
      "duration": 0.1499,
      "velocity": 100,
      "chip": "ym2612"
    },
    {
      "channel": 2,
      "note": 86,
      "start": 34.5697,
      "duration": 0.1498,
      "velocity": 99,
      "chip": "ym2612"
    },
    {
      "channel": 5,
      "note": 79,
      "start": 34.5704,
      "duration": 0.4234,
      "velocity": 127,
      "chip": "ym2612"
    },
    {
      "channel": 0,
      "note": 67,
      "start": 34.7186,
      "duration": 0.2739,
      "velocity": 117,
      "chip": "ym2612"
    },
    {
      "channel": 1,
      "note": 84,
      "start": 34.7191,
      "duration": 0.1525,
      "velocity": 100,
      "chip": "ym2612"
    },
    {
      "channel": 2,
      "note": 91,
      "start": 34.7197,
      "duration": 0.7418,
      "velocity": 99,
      "chip": "ym2612"
    },
    {
      "channel": 1,
      "note": 86,
      "start": 34.8717,
      "duration": 0.1213,
      "velocity": 100,
      "chip": "ym2612"
    },
    {
      "channel": 0,
      "note": 55,
      "start": 34.9926,
      "duration": 0.1665,
      "velocity": 117,
      "chip": "ym2612"
    },
    {
      "channel": 1,
      "note": 91,
      "start": 34.9932,
      "duration": 0.7702,
      "velocity": 100,
      "chip": "ym2612"
    },
    {
      "channel": 5,
      "note": 79,
      "start": 34.9939,
      "duration": 0.166,
      "velocity": 127,
      "chip": "ym2612"
    },
    {
      "channel": 0,
      "note": 62,
      "start": 35.1593,
      "duration": 0.1665,
      "velocity": 117,
      "chip": "ym2612"
    },
    {
      "channel": 5,
      "note": 79,
      "start": 35.16,
      "duration": 0.3021,
      "velocity": 127,
      "chip": "ym2612"
    },
    {
      "channel": 0,
      "note": 64,
      "start": 35.3259,
      "duration": 0.1349,
      "velocity": 117,
      "chip": "ym2612"
    },
    {
      "channel": 0,
      "note": 55,
      "start": 35.461,
      "duration": 0.3018,
      "velocity": 117,
      "chip": "ym2612"
    },
    {
      "channel": 2,
      "note": 89,
      "start": 35.4617,
      "duration": 0.3022,
      "velocity": 99,
      "chip": "ym2612"
    },
    {
      "channel": 5,
      "note": 79,
      "start": 35.4624,
      "duration": 0.3022,
      "velocity": 127,
      "chip": "ym2612"
    },
    {
      "channel": 0,
      "note": 55,
      "start": 35.763,
      "duration": 0.1664,
      "velocity": 117,
      "chip": "ym2612"
    },
    {
      "channel": 1,
      "note": 89,
      "start": 35.7635,
      "duration": 0.3176,
      "velocity": 100,
      "chip": "ym2612"
    },
    {
      "channel": 2,
      "note": 88,
      "start": 35.7641,
      "duration": 0.3176,
      "velocity": 99,
      "chip": "ym2612"
    },
    {
      "channel": 5,
      "note": 79,
      "start": 35.7648,
      "duration": 0.4378,
      "velocity": 127,
      "chip": "ym2612"
    },
    {
      "channel": 0,
      "note": 67,
      "start": 35.9295,
      "duration": 0.2722,
      "velocity": 117,
      "chip": "ym2612"
    },
    {
      "channel": 1,
      "note": 88,
      "start": 36.0813,
      "duration": 0.2877,
      "velocity": 100,
      "chip": "ym2612"
    },
    {
      "channel": 2,
      "note": 86,
      "start": 36.0818,
      "duration": 0.2877,
      "velocity": 99,
      "chip": "ym2612"
    },
    {
      "channel": 0,
      "note": 55,
      "start": 36.2019,
      "duration": 0.1666,
      "velocity": 117,
      "chip": "ym2612"
    },
    {
      "channel": 5,
      "note": 79,
      "start": 36.2027,
      "duration": 0.1676,
      "velocity": 127,
      "chip": "ym2612"
    },
    {
      "channel": 0,
      "note": 62,
      "start": 36.3686,
      "duration": 0.1498,
      "velocity": 117,
      "chip": "ym2612"
    },
    {
      "channel": 1,
      "note": 86,
      "start": 36.3692,
      "duration": 0.2867,
      "velocity": 100,
      "chip": "ym2612"
    },
    {
      "channel": 2,
      "note": 84,
      "start": 36.3698,
      "duration": 0.1493,
      "velocity": 99,
      "chip": "ym2612"
    },
    {
      "channel": 5,
      "note": 79,
      "start": 36.3705,
      "duration": 0.4381,
      "velocity": 127,
      "chip": "ym2612"
    },
    {
      "channel": 0,
      "note": 64,
      "start": 36.5186,
      "duration": 0.1367,
      "velocity": 117,
      "chip": "ym2612"
    },
    {
      "channel": 2,
      "note": 86,
      "start": 36.5192,
      "duration": 2.5475,
      "velocity": 107,
      "chip": "ym2612"
    },
    {
      "channel": 0,
      "note": 55,
      "start": 36.6555,
      "duration": 0.3022,
      "velocity": 117,
      "chip": "ym2612"
    },
    {
      "channel": 1,
      "note": 84,
      "start": 36.656,
      "duration": 0.1517,
      "velocity": 100,
      "chip": "ym2612"
    },
    {
      "channel": 3,
      "note": 83,
      "start": 36.6566,
      "duration": 1.2095,
      "velocity": 107,
      "chip": "ym2612"
    },
    {
      "channel": 4,
      "note": 79,
      "start": 36.6572,
      "duration": 1.2094,
      "velocity": 107,
      "chip": "ym2612"
    },
    {
      "channel": 1,
      "note": 86,
      "start": 36.8079,
      "duration": 2.2566,
      "velocity": 102,
      "chip": "ym2612"
    },
    {
      "channel": 5,
      "note": 79,
      "start": 36.8087,
      "duration": 0.1498,
      "velocity": 127,
      "chip": "ym2612"
    },
    {
      "channel": 0,
      "note": 55,
      "start": 36.9578,
      "duration": 0.1665,
      "velocity": 117,
      "chip": "ym2612"
    },
    {
      "channel": 5,
      "note": 79,
      "start": 36.9587,
      "duration": 0.4389,
      "velocity": 127,
      "chip": "ym2612"
    },
    {
      "channel": 0,
      "note": 67,
      "start": 37.1245,
      "duration": 0.2722,
      "velocity": 117,
      "chip": "ym2612"
    },
    {
      "channel": 0,
      "note": 55,
      "start": 37.3969,
      "duration": 0.1665,
      "velocity": 117,
      "chip": "ym2612"
    },
    {
      "channel": 5,
      "note": 79,
      "start": 37.3977,
      "duration": 0.1665,
      "velocity": 127,
      "chip": "ym2612"
    },
    {
      "channel": 0,
      "note": 62,
      "start": 37.5636,
      "duration": 0.1498,
      "velocity": 117,
      "chip": "ym2612"
    },
    {
      "channel": 5,
      "note": 79,
      "start": 37.5644,
      "duration": 0.3028,
      "velocity": 127,
      "chip": "ym2612"
    },
    {
      "channel": 0,
      "note": 64,
      "start": 37.7136,
      "duration": 0.1518,
      "velocity": 117,
      "chip": "ym2612"
    },
    {
      "channel": 0,
      "note": 55,
      "start": 37.8656,
      "duration": 0.3017,
      "velocity": 117,
      "chip": "ym2612"
    },
    {
      "channel": 3,
      "note": 77,
      "start": 37.8662,
      "duration": 1.201,
      "velocity": 107,
      "chip": "ym2612"
    },
    {
      "channel": 4,
      "note": 81,
      "start": 37.8668,
      "duration": 1.2011,
      "velocity": 107,
      "chip": "ym2612"
    },
    {
      "channel": 5,
      "note": 79,
      "start": 37.8674,
      "duration": 0.3007,
      "velocity": 127,
      "chip": "ym2612"
    },
    {
      "channel": 0,
      "note": 55,
      "start": 38.1674,
      "duration": 0.1665,
      "velocity": 117,
      "chip": "ym2612"
    },
    {
      "channel": 5,
      "note": 79,
      "start": 38.1683,
      "duration": 0.4387,
      "velocity": 127,
      "chip": "ym2612"
    },
    {
      "channel": 0,
      "note": 67,
      "start": 38.3341,
      "duration": 0.272,
      "velocity": 117,
      "chip": "ym2612"
    },
    {
      "channel": 0,
      "note": 55,
      "start": 38.6063,
      "duration": 0.1499,
      "velocity": 117,
      "chip": "ym2612"
    },
    {
      "channel": 5,
      "note": 79,
      "start": 38.6071,
      "duration": 0.1499,
      "velocity": 127,
      "chip": "ym2612"
    },
    {
      "channel": 0,
      "note": 62,
      "start": 38.7563,
      "duration": 0.1665,
      "velocity": 117,
      "chip": "ym2612"
    },
    {
      "channel": 5,
      "note": 79,
      "start": 38.7571,
      "duration": 0.4387,
      "velocity": 127,
      "chip": "ym2612"
    },
    {
      "channel": 0,
      "note": 64,
      "start": 38.9229,
      "duration": 0.1395,
      "velocity": 112,
      "chip": "ym2612"
    },
    {
      "channel": 0,
      "note": 48,
      "start": 39.0626,
      "duration": 0.2996,
      "velocity": 112,
      "chip": "ym2612"
    },
    {
      "channel": 1,
      "note": 36,
      "start": 39.0647,
      "duration": 0.298,
      "velocity": 102,
      "chip": "ym2612"
    },
    {
      "channel": 2,
      "note": 84,
      "start": 39.0668,
      "duration": 1.1867,
      "velocity": 107,
      "chip": "ym2612"
    },
    {
      "channel": 3,
      "note": 79,
      "start": 39.0675,
      "duration": 1.1866,
      "velocity": 107,
      "chip": "ym2612"
    },
    {
      "channel": 4,
      "note": 76,
      "start": 39.068,
      "duration": 1.1866,
      "velocity": 107,
      "chip": "ym2612"
    },
    {
      "channel": 5,
      "note": 79,
      "start": 39.196,
      "duration": 0.1675,
      "velocity": 127,
      "chip": "ym2612"
    },
    {
      "channel": 0,
      "note": 60,
      "start": 39.3623,
      "duration": 0.1498,
      "velocity": 112,
      "chip": "ym2612"
    },
    {
      "channel": 1,
      "note": 48,
      "start": 39.3629,
      "duration": 0.3006,
      "velocity": 102,
      "chip": "ym2612"
    },
    {
      "channel": 5,
      "note": 79,
      "start": 39.3636,
      "duration": 0.438,
      "velocity": 127,
      "chip": "ym2612"
    },
    {
      "channel": 0,
      "note": 58,
      "start": 39.5123,
      "duration": 0.2886,
      "velocity": 112,
      "chip": "ym2612"
    },
    {
      "channel": 1,
      "note": 36,
      "start": 39.6637,
      "duration": 0.2873,
      "velocity": 102,
      "chip": "ym2612"
    },
    {
      "channel": 0,
      "note": 60,
      "start": 39.801,
      "duration": 0.3165,
      "velocity": 112,
      "chip": "ym2612"
    },
    {
      "channel": 5,
      "note": 79,
      "start": 39.8018,
      "duration": 0.1499,
      "velocity": 127,
      "chip": "ym2612"
    },
    {
      "channel": 1,
      "note": 48,
      "start": 39.951,
      "duration": 0.302,
      "velocity": 102,
      "chip": "ym2612"
    },
    {
      "channel": 5,
      "note": 79,
      "start": 39.9518,
      "duration": 0.3034,
      "velocity": 127,
      "chip": "ym2612"
    },
    {
      "channel": 0,
      "note": 46,
      "start": 40.1177,
      "duration": 0.1348,
      "velocity": 112,
      "chip": "ym2612"
    },
    {
      "channel": 0,
      "note": 48,
      "start": 40.2526,
      "duration": 0.1663,
      "velocity": 112,
      "chip": "ym2612"
    },
    {
      "channel": 1,
      "note": 36,
      "start": 40.2531,
      "duration": 0.318,
      "velocity": 102,
      "chip": "ym2612"
    },
    {
      "channel": 2,
      "note": 82,
      "start": 40.2537,
      "duration": 1.1935,
      "velocity": 107,
      "chip": "ym2612"
    },
    {
      "channel": 3,
      "note": 77,
      "start": 40.2543,
      "duration": 1.1935,
      "velocity": 107,
      "chip": "ym2612"
    },
    {
      "channel": 4,
      "note": 74,
      "start": 40.2549,
      "duration": 1.1935,
      "velocity": 107,
      "chip": "ym2612"
    },
    {
      "channel": 5,
      "note": 79,
      "start": 40.2554,
      "duration": 0.3165,
      "velocity": 127,
      "chip": "ym2612"
    },
    {
      "channel": 0,
      "note": 55,
      "start": 40.4191,
      "duration": 0.1515,
      "velocity": 112,
      "chip": "ym2612"
    },
    {
      "channel": 0,
      "note": 60,
      "start": 40.5708,
      "duration": 0.1498,
      "velocity": 112,
      "chip": "ym2612"
    },
    {
      "channel": 1,
      "note": 48,
      "start": 40.5714,
      "duration": 0.3013,
      "velocity": 102,
      "chip": "ym2612"
    },
    {
      "channel": 5,
      "note": 79,
      "start": 40.5721,
      "duration": 0.4217,
      "velocity": 127,
      "chip": "ym2612"
    },
    {
      "channel": 0,
      "note": 58,
      "start": 40.7208,
      "duration": 0.2722,
      "velocity": 112,
      "chip": "ym2612"
    },
    {
      "channel": 1,
      "note": 36,
      "start": 40.8728,
      "duration": 0.2874,
      "velocity": 102,
      "chip": "ym2612"
    },
    {
      "channel": 0,
      "note": 53,
      "start": 40.9932,
      "duration": 0.1665,
      "velocity": 112,
      "chip": "ym2612"
    },
    {
      "channel": 5,
      "note": 79,
      "start": 40.9939,
      "duration": 0.1671,
      "velocity": 127,
      "chip": "ym2612"
    },
    {
      "channel": 0,
      "note": 55,
      "start": 41.1598,
      "duration": 0.1665,
      "velocity": 112,
      "chip": "ym2612"
    },
    {
      "channel": 1,
      "note": 48,
      "start": 41.1604,
      "duration": 0.2862,
      "velocity": 102,
      "chip": "ym2612"
    },
    {
      "channel": 5,
      "note": 79,
      "start": 41.1611,
      "duration": 0.4373,
      "velocity": 127,
      "chip": "ym2612"
    },
    {
      "channel": 0,
      "note": 58,
      "start": 41.3265,
      "duration": 0.1197,
      "velocity": 112,
      "chip": "ym2612"
    },
    {
      "channel": 0,
      "note": 53,
      "start": 41.4463,
      "duration": 0.3019,
      "velocity": 112,
      "chip": "ym2612"
    },
    {
      "channel": 1,
      "note": 41,
      "start": 41.4468,
      "duration": 0.3019,
      "velocity": 102,
      "chip": "ym2612"
    },
    {
      "channel": 2,
      "note": 81,
      "start": 41.4474,
      "duration": 1.2083,
      "velocity": 107,
      "chip": "ym2612"
    },
    {
      "channel": 3,
      "note": 77,
      "start": 41.448,
      "duration": 1.2083,
      "velocity": 107,
      "chip": "ym2612"
    },
    {
      "channel": 4,
      "note": 72,
      "start": 41.4485,
      "duration": 1.2084,
      "velocity": 107,
      "chip": "ym2612"
    },
    {
      "channel": 5,
      "note": 79,
      "start": 41.5987,
      "duration": 0.1509,
      "velocity": 127,
      "chip": "ym2612"
    },
    {
      "channel": 0,
      "note": 65,
      "start": 41.7484,
      "duration": 0.1665,
      "velocity": 112,
      "chip": "ym2612"
    },
    {
      "channel": 1,
      "note": 53,
      "start": 41.749,
      "duration": 0.3179,
      "velocity": 102,
      "chip": "ym2612"
    },
    {
      "channel": 5,
      "note": 79,
      "start": 41.7497,
      "duration": 0.4377,
      "velocity": 127,
      "chip": "ym2612"
    },
    {
      "channel": 0,
      "note": 63,
      "start": 41.915,
      "duration": 0.2715,
      "velocity": 112,
      "chip": "ym2612"
    },
    {
      "channel": 1,
      "note": 41,
      "start": 42.067,
      "duration": 0.2863,
      "velocity": 102,
      "chip": "ym2612"
    },
    {
      "channel": 0,
      "note": 65,
      "start": 42.1867,
      "duration": 0.3165,
      "velocity": 112,
      "chip": "ym2612"
    },
    {
      "channel": 5,
      "note": 79,
      "start": 42.1875,
      "duration": 0.1665,
      "velocity": 127,
      "chip": "ym2612"
    },
    {
      "channel": 1,
      "note": 53,
      "start": 42.3534,
      "duration": 0.3018,
      "velocity": 102,
      "chip": "ym2612"
    },
    {
      "channel": 5,
      "note": 79,
      "start": 42.3542,
      "duration": 0.3033,
      "velocity": 127,
      "chip": "ym2612"
    },
    {
      "channel": 0,
      "note": 51,
      "start": 42.5034,
      "duration": 0.1513,
      "velocity": 112,
      "chip": "ym2612"
    },
    {
      "channel": 0,
      "note": 53,
      "start": 42.6548,
      "duration": 0.1664,
      "velocity": 112,
      "chip": "ym2612"
    },
    {
      "channel": 1,
      "note": 41,
      "start": 42.6554,
      "duration": 0.302,
      "velocity": 102,
      "chip": "ym2612"
    },
    {
      "channel": 2,
      "note": 77,
      "start": 42.656,
      "duration": 1.1948,
      "velocity": 107,
      "chip": "ym2612"
    },
    {
      "channel": 3,
      "note": 72,
      "start": 42.6565,
      "duration": 1.1949,
      "velocity": 107,
      "chip": "ym2612"
    },
    {
      "channel": 4,
      "note": 69,
      "start": 42.657,
      "duration": 1.1949,
      "velocity": 107,
      "chip": "ym2612"
    },
    {
      "channel": 5,
      "note": 79,
      "start": 42.6576,
      "duration": 0.3006,
      "velocity": 127,
      "chip": "ym2612"
    },
    {
      "channel": 0,
      "note": 60,
      "start": 42.8214,
      "duration": 0.1355,
      "velocity": 112,
      "chip": "ym2612"
    },
    {
      "channel": 0,
      "note": 65,
      "start": 42.957,
      "duration": 0.1665,
      "velocity": 112,
      "chip": "ym2612"
    },
    {
      "channel": 1,
      "note": 53,
      "start": 42.9576,
      "duration": 0.301,
      "velocity": 102,
      "chip": "ym2612"
    },
    {
      "channel": 5,
      "note": 79,
      "start": 42.9584,
      "duration": 0.438,
      "velocity": 127,
      "chip": "ym2612"
    },
    {
      "channel": 0,
      "note": 63,
      "start": 43.1237,
      "duration": 0.272,
      "velocity": 112,
      "chip": "ym2612"
    },
    {
      "channel": 1,
      "note": 41,
      "start": 43.2588,
      "duration": 0.3036,
      "velocity": 102,
      "chip": "ym2612"
    },
    {
      "channel": 0,
      "note": 65,
      "start": 43.3958,
      "duration": 0.3165,
      "velocity": 112,
      "chip": "ym2612"
    },
    {
      "channel": 5,
      "note": 79,
      "start": 43.3966,
      "duration": 0.1665,
      "velocity": 127,
      "chip": "ym2612"
    },
    {
      "channel": 1,
      "note": 53,
      "start": 43.5625,
      "duration": 0.2876,
      "velocity": 102,
      "chip": "ym2612"
    },
    {
      "channel": 5,
      "note": 79,
      "start": 43.5633,
      "duration": 0.4206,
      "velocity": 127,
      "chip": "ym2612"
    },
    {
      "channel": 0,
      "note": 58,
      "start": 43.7124,
      "duration": 0.1371,
      "velocity": 112,
      "chip": "ym2612"
    },
    {
      "channel": 0,
      "note": 48,
      "start": 43.8497,
      "duration": 0.3006,
      "velocity": 112,
      "chip": "ym2612"
    },
    {
      "channel": 1,
      "note": 36,
      "start": 43.8503,
      "duration": 0.3005,
      "velocity": 102,
      "chip": "ym2612"
    },
    {
      "channel": 2,
      "note": 76,
      "start": 43.8509,
      "duration": 1.2088,
      "velocity": 107,
      "chip": "ym2612"
    },
    {
      "channel": 3,
      "note": 72,
      "start": 43.8515,
      "duration": 1.2088,
      "velocity": 107,
      "chip": "ym2612"
    },
    {
      "channel": 4,
      "note": 67,
      "start": 43.8521,
      "duration": 1.2087,
      "velocity": 107,
      "chip": "ym2612"
    },
    {
      "channel": 5,
      "note": 79,
      "start": 43.9841,
      "duration": 0.1675,
      "velocity": 127,
      "chip": "ym2612"
    },
    {
      "channel": 0,
      "note": 60,
      "start": 44.1504,
      "duration": 0.1665,
      "velocity": 112,
      "chip": "ym2612"
    },
    {
      "channel": 1,
      "note": 48,
      "start": 44.151,
      "duration": 0.3016,
      "velocity": 102,
      "chip": "ym2612"
    },
    {
      "channel": 5,
      "note": 79,
      "start": 44.1517,
      "duration": 0.439,
      "velocity": 127,
      "chip": "ym2612"
    },
    {
      "channel": 0,
      "note": 58,
      "start": 44.317,
      "duration": 0.2729,
      "velocity": 112,
      "chip": "ym2612"
    },
    {
      "channel": 1,
      "note": 36,
      "start": 44.4527,
      "duration": 0.2873,
      "velocity": 102,
      "chip": "ym2612"
    },
    {
      "channel": 0,
      "note": 60,
      "start": 44.59,
      "duration": 0.3165,
      "velocity": 112,
      "chip": "ym2612"
    },
    {
      "channel": 5,
      "note": 79,
      "start": 44.5909,
      "duration": 0.1499,
      "velocity": 127,
      "chip": "ym2612"
    },
    {
      "channel": 1,
      "note": 48,
      "start": 44.7401,
      "duration": 0.319,
      "velocity": 102,
      "chip": "ym2612"
    },
    {
      "channel": 5,
      "note": 79,
      "start": 44.7409,
      "duration": 0.3205,
      "velocity": 127,
      "chip": "ym2612"
    },
    {
      "channel": 0,
      "note": 46,
      "start": 44.9067,
      "duration": 0.1519,
      "velocity": 112,
      "chip": "ym2612"
    },
    {
      "channel": 0,
      "note": 48,
      "start": 45.0587,
      "duration": 0.1498,
      "velocity": 112,
      "chip": "ym2612"
    },
    {
      "channel": 1,
      "note": 36,
      "start": 45.0593,
      "duration": 0.3017,
      "velocity": 102,
      "chip": "ym2612"
    },
    {
      "channel": 2,
      "note": 74,
      "start": 45.0599,
      "duration": 1.1773,
      "velocity": 107,
      "chip": "ym2612"
    },
    {
      "channel": 3,
      "note": 70,
      "start": 45.0605,
      "duration": 1.2443,
      "velocity": 107,
      "chip": "ym2612"
    },
    {
      "channel": 4,
      "note": 65,
      "start": 45.061,
      "duration": 1.3271,
      "velocity": 107,
      "chip": "ym2612"
    },
    {
      "channel": 5,
      "note": 79,
      "start": 45.0615,
      "duration": 0.3002,
      "velocity": 127,
      "chip": "ym2612"
    },
    {
      "channel": 0,
      "note": 55,
      "start": 45.2087,
      "duration": 0.1518,
      "velocity": 112,
      "chip": "ym2612"
    },
    {
      "channel": 0,
      "note": 60,
      "start": 45.3606,
      "duration": 0.1498,
      "velocity": 112,
      "chip": "ym2612"
    },
    {
      "channel": 1,
      "note": 48,
      "start": 45.3612,
      "duration": 0.3006,
      "velocity": 102,
      "chip": "ym2612"
    },
    {
      "channel": 5,
      "note": 79,
      "start": 45.3619,
      "duration": 0.438,
      "velocity": 127,
      "chip": "ym2612"
    },
    {
      "channel": 0,
      "note": 58,
      "start": 45.5106,
      "duration": 0.2886,
      "velocity": 112,
      "chip": "ym2612"
    },
    {
      "channel": 1,
      "note": 36,
      "start": 45.662,
      "duration": 0.2878,
      "velocity": 102,
      "chip": "ym2612"
    },
    {
      "channel": 0,
      "note": 53,
      "start": 45.7993,
      "duration": 0.1499,
      "velocity": 112,
      "chip": "ym2612"
    },
    {
      "channel": 5,
      "note": 79,
      "start": 45.8001,
      "duration": 0.1504,
      "velocity": 127,
      "chip": "ym2612"
    },
    {
      "channel": 0,
      "note": 55,
      "start": 45.9493,
      "duration": 0.1665,
      "velocity": 112,
      "chip": "ym2612"
    },
    {
      "channel": 1,
      "note": 48,
      "start": 45.9499,
      "duration": 0.2868,
      "velocity": 102,
      "chip": "ym2612"
    },
    {
      "channel": 5,
      "note": 79,
      "start": 45.9507,
      "duration": 0.438,
      "velocity": 127,
      "chip": "ym2612"
    },
    {
      "channel": 0,
      "note": 58,
      "start": 46.116,
      "duration": 0.1202,
      "velocity": 112,
      "chip": "ym2612"
    },
    {
      "channel": 0,
      "note": 53,
      "start": 46.2363,
      "duration": 0.3181,
      "velocity": 112,
      "chip": "ym2612"
    },
    {
      "channel": 1,
      "note": 41,
      "start": 46.2368,
      "duration": 0.3182,
      "velocity": 102,
      "chip": "ym2612"
    },
    {
      "channel": 2,
      "note": 72,
      "start": 46.2374,
      "duration": 2.4019,
      "velocity": 107,
      "chip": "ym2612"
    },
    {
      "channel": 3,
      "note": 69,
      "start": 46.3049,
      "duration": 2.335,
      "velocity": 107,
      "chip": "ym2612"
    },
    {
      "channel": 4,
      "note": 65,
      "start": 46.3883,
      "duration": 2.2523,
      "velocity": 107,
      "chip": "ym2612"
    },
    {
      "channel": 5,
      "note": 79,
      "start": 46.3888,
      "duration": 0.167,
      "velocity": 127,
      "chip": "ym2612"
    },
    {
      "channel": 0,
      "note": 65,
      "start": 46.5546,
      "duration": 0.1498,
      "velocity": 112,
      "chip": "ym2612"
    },
    {
      "channel": 1,
      "note": 53,
      "start": 46.5552,
      "duration": 0.3012,
      "velocity": 102,
      "chip": "ym2612"
    },
    {
      "channel": 5,
      "note": 79,
      "start": 46.5559,
      "duration": 0.4214,
      "velocity": 127,
      "chip": "ym2612"
    },
    {
      "channel": 0,
      "note": 63,
      "start": 46.7046,
      "duration": 0.2719,
      "velocity": 112,
      "chip": "ym2612"
    },
    {
      "channel": 1,
      "note": 41,
      "start": 46.8566,
      "duration": 0.2866,
      "velocity": 102,
      "chip": "ym2612"
    },
    {
      "channel": 0,
      "note": 65,
      "start": 46.9767,
      "duration": 0.3332,
      "velocity": 112,
      "chip": "ym2612"
    },
    {
      "channel": 5,
      "note": 79,
      "start": 46.9775,
      "duration": 0.1665,
      "velocity": 127,
      "chip": "ym2612"
    },
    {
      "channel": 1,
      "note": 53,
      "start": 47.1434,
      "duration": 0.3018,
      "velocity": 102,
      "chip": "ym2612"
    },
    {
      "channel": 5,
      "note": 79,
      "start": 47.1441,
      "duration": 0.3018,
      "velocity": 127,
      "chip": "ym2612"
    },
    {
      "channel": 0,
      "note": 51,
      "start": 47.31,
      "duration": 0.1346,
      "velocity": 112,
      "chip": "ym2612"
    },
    {
      "channel": 0,
      "note": 53,
      "start": 47.4448,
      "duration": 0.1665,
      "velocity": 112,
      "chip": "ym2612"
    },
    {
      "channel": 1,
      "note": 41,
      "start": 47.4454,
      "duration": 0.301,
      "velocity": 102,
      "chip": "ym2612"
    },
    {
      "channel": 5,
      "note": 79,
      "start": 47.4461,
      "duration": 0.301,
      "velocity": 127,
      "chip": "ym2612"
    },
    {
      "channel": 0,
      "note": 60,
      "start": 47.6114,
      "duration": 0.1344,
      "velocity": 112,
      "chip": "ym2612"
    },
    {
      "channel": 0,
      "note": 65,
      "start": 47.746,
      "duration": 0.1665,
      "velocity": 112,
      "chip": "ym2612"
    },
    {
      "channel": 1,
      "note": 53,
      "start": 47.7466,
      "duration": 0.3179,
      "velocity": 102,
      "chip": "ym2612"
    },
    {
      "channel": 5,
      "note": 79,
      "start": 47.7473,
      "duration": 0.438,
      "velocity": 127,
      "chip": "ym2612"
    },
    {
      "channel": 0,
      "note": 63,
      "start": 47.9126,
      "duration": 0.2719,
      "velocity": 112,
      "chip": "ym2612"
    },
    {
      "channel": 1,
      "note": 41,
      "start": 48.0646,
      "duration": 0.2866,
      "velocity": 102,
      "chip": "ym2612"
    },
    {
      "channel": 0,
      "note": 65,
      "start": 48.1846,
      "duration": 0.3165,
      "velocity": 112,
      "chip": "ym2612"
    },
    {
      "channel": 5,
      "note": 79,
      "start": 48.1854,
      "duration": 0.1665,
      "velocity": 127,
      "chip": "ym2612"
    },
    {
      "channel": 1,
      "note": 53,
      "start": 48.3513,
      "duration": 0.2874,
      "velocity": 102,
      "chip": "ym2612"
    },
    {
      "channel": 5,
      "note": 79,
      "start": 48.3521,
      "duration": 0.4389,
      "velocity": 127,
      "chip": "ym2612"
    },
    {
      "channel": 0,
      "note": 58,
      "start": 48.5013,
      "duration": 0.1368,
      "velocity": 112,
      "chip": "ym2612"
    },
    {
      "channel": 0,
      "note": 48,
      "start": 48.6383,
      "duration": 0.3024,
      "velocity": 112,
      "chip": "ym2612"
    },
    {
      "channel": 1,
      "note": 36,
      "start": 48.6389,
      "duration": 0.3024,
      "velocity": 102,
      "chip": "ym2612"
    },
    {
      "channel": 2,
      "note": 84,
      "start": 48.6395,
      "duration": 1.2092,
      "velocity": 107,
      "chip": "ym2612"
    },
    {
      "channel": 3,
      "note": 79,
      "start": 48.6401,
      "duration": 1.2091,
      "velocity": 107,
      "chip": "ym2612"
    },
    {
      "channel": 4,
      "note": 76,
      "start": 48.6407,
      "duration": 1.2091,
      "velocity": 107,
      "chip": "ym2612"
    },
    {
      "channel": 5,
      "note": 79,
      "start": 48.7912,
      "duration": 0.1508,
      "velocity": 127,
      "chip": "ym2612"
    },
    {
      "channel": 0,
      "note": 60,
      "start": 48.9408,
      "duration": 0.1665,
      "velocity": 112,
      "chip": "ym2612"
    },
    {
      "channel": 1,
      "note": 48,
      "start": 48.9414,
      "duration": 0.3007,
      "velocity": 102,
      "chip": "ym2612"
    },
    {
      "channel": 5,
      "note": 79,
      "start": 48.9421,
      "duration": 0.4378,
      "velocity": 127,
      "chip": "ym2612"
    },
    {
      "channel": 0,
      "note": 58,
      "start": 49.1075,
      "duration": 0.2717,
      "velocity": 112,
      "chip": "ym2612"
    },
    {
      "channel": 1,
      "note": 36,
      "start": 49.2423,
      "duration": 0.3036,
      "velocity": 102,
      "chip": "ym2612"
    },
    {
      "channel": 0,
      "note": 60,
      "start": 49.3793,
      "duration": 0.3165,
      "velocity": 112,
      "chip": "ym2612"
    },
    {
      "channel": 5,
      "note": 79,
      "start": 49.3801,
      "duration": 0.1665,
      "velocity": 127,
      "chip": "ym2612"
    },
    {
      "channel": 1,
      "note": 48,
      "start": 49.546,
      "duration": 0.3021,
      "velocity": 102,
      "chip": "ym2612"
    },
    {
      "channel": 5,
      "note": 79,
      "start": 49.5468,
      "duration": 0.3036,
      "velocity": 127,
      "chip": "ym2612"
    },
    {
      "channel": 0,
      "note": 46,
      "start": 49.696,
      "duration": 0.1517,
      "velocity": 112,
      "chip": "ym2612"
    },
    {
      "channel": 0,
      "note": 48,
      "start": 49.8477,
      "duration": 0.1498,
      "velocity": 112,
      "chip": "ym2612"
    },
    {
      "channel": 1,
      "note": 36,
      "start": 49.8483,
      "duration": 0.3011,
      "velocity": 102,
      "chip": "ym2612"
    },
    {
      "channel": 2,
      "note": 82,
      "start": 49.8489,
      "duration": 1.1938,
      "velocity": 107,
      "chip": "ym2612"
    },
    {
      "channel": 3,
      "note": 77,
      "start": 49.8495,
      "duration": 1.1939,
      "velocity": 107,
      "chip": "ym2612"
    },
    {
      "channel": 4,
      "note": 74,
      "start": 49.85,
      "duration": 1.1939,
      "velocity": 107,
      "chip": "ym2612"
    },
    {
      "channel": 5,
      "note": 79,
      "start": 49.8505,
      "duration": 0.2996,
      "velocity": 127,
      "chip": "ym2612"
    },
    {
      "channel": 0,
      "note": 55,
      "start": 49.9976,
      "duration": 0.1512,
      "velocity": 112,
      "chip": "ym2612"
    },
    {
      "channel": 0,
      "note": 60,
      "start": 50.149,
      "duration": 0.1665,
      "velocity": 112,
      "chip": "ym2612"
    },
    {
      "channel": 1,
      "note": 48,
      "start": 50.1496,
      "duration": 0.3007,
      "velocity": 102,
      "chip": "ym2612"
    },
    {
      "channel": 5,
      "note": 79,
      "start": 50.1503,
      "duration": 0.4385,
      "velocity": 127,
      "chip": "ym2612"
    },
    {
      "channel": 0,
      "note": 58,
      "start": 50.3156,
      "duration": 0.2724,
      "velocity": 112,
      "chip": "ym2612"
    },
    {
      "channel": 1,
      "note": 36,
      "start": 50.4505,
      "duration": 0.2882,
      "velocity": 102,
      "chip": "ym2612"
    },
    {
      "channel": 0,
      "note": 53,
      "start": 50.5882,
      "duration": 0.1499,
      "velocity": 112,
      "chip": "ym2612"
    },
    {
      "channel": 5,
      "note": 79,
      "start": 50.589,
      "duration": 0.1504,
      "velocity": 127,
      "chip": "ym2612"
    },
    {
      "channel": 0,
      "note": 55,
      "start": 50.7382,
      "duration": 0.1665,
      "velocity": 112,
      "chip": "ym2612"
    },
    {
      "channel": 1,
      "note": 48,
      "start": 50.7388,
      "duration": 0.3033,
      "velocity": 102,
      "chip": "ym2612"
    },
    {
      "channel": 5,
      "note": 79,
      "start": 50.7395,
      "duration": 0.4385,
      "velocity": 127,
      "chip": "ym2612"
    },
    {
      "channel": 0,
      "note": 58,
      "start": 50.9049,
      "duration": 0.1368,
      "velocity": 112,
      "chip": "ym2612"
    },
    {
      "channel": 0,
      "note": 53,
      "start": 51.0418,
      "duration": 0.3027,
      "velocity": 112,
      "chip": "ym2612"
    },
    {
      "channel": 1,
      "note": 41,
      "start": 51.0423,
      "duration": 0.3027,
      "velocity": 102,
      "chip": "ym2612"
    },
    {
      "channel": 2,
      "note": 81,
      "start": 51.0429,
      "duration": 1.1929,
      "velocity": 107,
      "chip": "ym2612"
    },
    {
      "channel": 3,
      "note": 77,
      "start": 51.0435,
      "duration": 1.1929,
      "velocity": 107,
      "chip": "ym2612"
    },
    {
      "channel": 4,
      "note": 72,
      "start": 51.044,
      "duration": 1.193,
      "velocity": 107,
      "chip": "ym2612"
    },
    {
      "channel": 5,
      "note": 79,
      "start": 51.1783,
      "duration": 0.1676,
      "velocity": 127,
      "chip": "ym2612"
    },
    {
      "channel": 0,
      "note": 65,
      "start": 51.3446,
      "duration": 0.1498,
      "velocity": 112,
      "chip": "ym2612"
    },
    {
      "channel": 1,
      "note": 53,
      "start": 51.3452,
      "duration": 0.3006,
      "velocity": 102,
      "chip": "ym2612"
    },
    {
      "channel": 5,
      "note": 79,
      "start": 51.3459,
      "duration": 0.438,
      "velocity": 127,
      "chip": "ym2612"
    },
    {
      "channel": 0,
      "note": 63,
      "start": 51.4946,
      "duration": 0.2886,
      "velocity": 112,
      "chip": "ym2612"
    },
    {
      "channel": 1,
      "note": 41,
      "start": 51.646,
      "duration": 0.2873,
      "velocity": 102,
      "chip": "ym2612"
    },
    {
      "channel": 0,
      "note": 65,
      "start": 51.7833,
      "duration": 0.3165,
      "velocity": 112,
      "chip": "ym2612"
    },
    {
      "channel": 5,
      "note": 79,
      "start": 51.7841,
      "duration": 0.1498,
      "velocity": 127,
      "chip": "ym2612"
    },
    {
      "channel": 1,
      "note": 53,
      "start": 51.9334,
      "duration": 0.302,
      "velocity": 102,
      "chip": "ym2612"
    },
    {
      "channel": 5,
      "note": 79,
      "start": 51.9341,
      "duration": 0.3034,
      "velocity": 127,
      "chip": "ym2612"
    },
    {
      "channel": 0,
      "note": 51,
      "start": 52.1,
      "duration": 0.1348,
      "velocity": 112,
      "chip": "ym2612"
    },
    {
      "channel": 0,
      "note": 53,
      "start": 52.235,
      "duration": 0.1663,
      "velocity": 112,
      "chip": "ym2612"
    },
    {
      "channel": 1,
      "note": 41,
      "start": 52.2355,
      "duration": 0.318,
      "velocity": 102,
      "chip": "ym2612"
    },
    {
      "channel": 2,
      "note": 77,
      "start": 52.2361,
      "duration": 1.1946,
      "velocity": 107,
      "chip": "ym2612"
    },
    {
      "channel": 3,
      "note": 72,
      "start": 52.2366,
      "duration": 1.1947,
      "velocity": 107,
      "chip": "ym2612"
    },
    {
      "channel": 4,
      "note": 69,
      "start": 52.2372,
      "duration": 1.1948,
      "velocity": 107,
      "chip": "ym2612"
    },
    {
      "channel": 5,
      "note": 79,
      "start": 52.2378,
      "duration": 0.3165,
      "velocity": 127,
      "chip": "ym2612"
    },
    {
      "channel": 0,
      "note": 60,
      "start": 52.4015,
      "duration": 0.1515,
      "velocity": 112,
      "chip": "ym2612"
    },
    {
      "channel": 0,
      "note": 65,
      "start": 52.5531,
      "duration": 0.1498,
      "velocity": 112,
      "chip": "ym2612"
    },
    {
      "channel": 1,
      "note": 53,
      "start": 52.5537,
      "duration": 0.301,
      "velocity": 102,
      "chip": "ym2612"
    },
    {
      "channel": 5,
      "note": 79,
      "start": 52.5544,
      "duration": 0.4214,
      "velocity": 127,
      "chip": "ym2612"
    },
    {
      "channel": 0,
      "note": 63,
      "start": 52.7031,
      "duration": 0.2719,
      "velocity": 112,
      "chip": "ym2612"
    },
    {
      "channel": 1,
      "note": 41,
      "start": 52.8548,
      "duration": 0.2869,
      "velocity": 102,
      "chip": "ym2612"
    },
    {
      "channel": 0,
      "note": 65,
      "start": 52.9751,
      "duration": 0.3332,
      "velocity": 112,
      "chip": "ym2612"
    },
    {
      "channel": 5,
      "note": 79,
      "start": 52.9759,
      "duration": 0.1665,
      "velocity": 127,
      "chip": "ym2612"
    },
    {
      "channel": 1,
      "note": 53,
      "start": 53.1418,
      "duration": 0.2883,
      "velocity": 102,
      "chip": "ym2612"
    },
    {
      "channel": 5,
      "note": 79,
      "start": 53.1426,
      "duration": 0.4388,
      "velocity": 127,
      "chip": "ym2612"
    },
    {
      "channel": 0,
      "note": 58,
      "start": 53.3084,
      "duration": 0.121,
      "velocity": 112,
      "chip": "ym2612"
    },
    {
      "channel": 0,
      "note": 48,
      "start": 53.4297,
      "duration": 0.3014,
      "velocity": 112,
      "chip": "ym2612"
    },
    {
      "channel": 1,
      "note": 36,
      "start": 53.4302,
      "duration": 0.3014,
      "velocity": 102,
      "chip": "ym2612"
    },
    {
      "channel": 2,
      "note": 76,
      "start": 53.4309,
      "duration": 1.2081,
      "velocity": 107,
      "chip": "ym2612"
    },
    {
      "channel": 3,
      "note": 72,
      "start": 53.4315,
      "duration": 1.2081,
      "velocity": 107,
      "chip": "ym2612"
    },
    {
      "channel": 4,
      "note": 67,
      "start": 53.4321,
      "duration": 1.2081,
      "velocity": 107,
      "chip": "ym2612"
    },
    {
      "channel": 5,
      "note": 79,
      "start": 53.5816,
      "duration": 0.1508,
      "velocity": 127,
      "chip": "ym2612"
    },
    {
      "channel": 0,
      "note": 60,
      "start": 53.7313,
      "duration": 0.1665,
      "velocity": 112,
      "chip": "ym2612"
    },
    {
      "channel": 1,
      "note": 48,
      "start": 53.7319,
      "duration": 0.3179,
      "velocity": 102,
      "chip": "ym2612"
    },
    {
      "channel": 5,
      "note": 79,
      "start": 53.7326,
      "duration": 0.438,
      "velocity": 127,
      "chip": "ym2612"
    },
    {
      "channel": 0,
      "note": 58,
      "start": 53.8979,
      "duration": 0.2718,
      "velocity": 112,
      "chip": "ym2612"
    },
    {
      "channel": 1,
      "note": 36,
      "start": 54.0499,
      "duration": 0.2866,
      "velocity": 102,
      "chip": "ym2612"
    },
    {
      "channel": 0,
      "note": 60,
      "start": 54.1699,
      "duration": 0.3165,
      "velocity": 112,
      "chip": "ym2612"
    },
    {
      "channel": 5,
      "note": 79,
      "start": 54.1707,
      "duration": 0.1665,
      "velocity": 127,
      "chip": "ym2612"
    },
    {
      "channel": 1,
      "note": 48,
      "start": 54.3366,
      "duration": 0.3019,
      "velocity": 102,
      "chip": "ym2612"
    },
    {
      "channel": 5,
      "note": 79,
      "start": 54.3373,
      "duration": 0.3034,
      "velocity": 127,
      "chip": "ym2612"
    },
    {
      "channel": 0,
      "note": 46,
      "start": 54.4865,
      "duration": 0.1514,
      "velocity": 112,
      "chip": "ym2612"
    },
    {
      "channel": 0,
      "note": 48,
      "start": 54.6381,
      "duration": 0.1663,
      "velocity": 112,
      "chip": "ym2612"
    },
    {
      "channel": 1,
      "note": 36,
      "start": 54.6386,
      "duration": 0.3015,
      "velocity": 102,
      "chip": "ym2612"
    },
    {
      "channel": 2,
      "note": 74,
      "start": 54.6392,
      "duration": 1.1944,
      "velocity": 107,
      "chip": "ym2612"
    },
    {
      "channel": 3,
      "note": 70,
      "start": 54.6398,
      "duration": 1.2602,
      "velocity": 107,
      "chip": "ym2612"
    },
    {
      "channel": 4,
      "note": 65,
      "start": 54.6403,
      "duration": 1.3263,
      "velocity": 107,
      "chip": "ym2612"
    },
    {
      "channel": 5,
      "note": 79,
      "start": 54.6409,
      "duration": 0.3,
      "velocity": 127,
      "chip": "ym2612"
    },
    {
      "channel": 0,
      "note": 55,
      "start": 54.8046,
      "duration": 0.1349,
      "velocity": 112,
      "chip": "ym2612"
    },
    {
      "channel": 0,
      "note": 60,
      "start": 54.9397,
      "duration": 0.1665,
      "velocity": 112,
      "chip": "ym2612"
    },
    {
      "channel": 1,
      "note": 48,
      "start": 54.9403,
      "duration": 0.3008,
      "velocity": 102,
      "chip": "ym2612"
    },
    {
      "channel": 5,
      "note": 79,
      "start": 54.9411,
      "duration": 0.4378,
      "velocity": 127,
      "chip": "ym2612"
    },
    {
      "channel": 0,
      "note": 58,
      "start": 55.1064,
      "duration": 0.2717,
      "velocity": 112,
      "chip": "ym2612"
    },
    {
      "channel": 1,
      "note": 36,
      "start": 55.2412,
      "duration": 0.3041,
      "velocity": 102,
      "chip": "ym2612"
    },
    {
      "channel": 0,
      "note": 53,
      "start": 55.3782,
      "duration": 0.1665,
      "velocity": 112,
      "chip": "ym2612"
    },
    {
      "channel": 5,
      "note": 79,
      "start": 55.379,
      "duration": 0.1671,
      "velocity": 127,
      "chip": "ym2612"
    },
    {
      "channel": 0,
      "note": 55,
      "start": 55.5449,
      "duration": 0.1498,
      "velocity": 112,
      "chip": "ym2612"
    },
    {
      "channel": 1,
      "note": 48,
      "start": 55.5455,
      "duration": 0.2875,
      "velocity": 102,
      "chip": "ym2612"
    },
    {
      "channel": 5,
      "note": 79,
      "start": 55.5463,
      "duration": 0.421,
      "velocity": 127,
      "chip": "ym2612"
    },
    {
      "channel": 0,
      "note": 58,
      "start": 55.6949,
      "duration": 0.1376,
      "velocity": 112,
      "chip": "ym2612"
    },
    {
      "channel": 0,
      "note": 53,
      "start": 55.8327,
      "duration": 0.3004,
      "velocity": 112,
      "chip": "ym2612"
    },
    {
      "channel": 1,
      "note": 41,
      "start": 55.8332,
      "duration": 0.3004,
      "velocity": 102,
      "chip": "ym2612"
    },
    {
      "channel": 2,
      "note": 72,
      "start": 55.8338,
      "duration": 5.6512,
      "velocity": 107,
      "chip": "ym2612"
    },
    {
      "channel": 3,
      "note": 69,
      "start": 55.9002,
      "duration": 5.5848,
      "velocity": 107,
      "chip": "ym2612"
    },
    {
      "channel": 4,
      "note": 65,
      "start": 55.9668,
      "duration": 5.5181,
      "velocity": 107,
      "chip": "ym2612"
    },
    {
      "channel": 5,
      "note": 79,
      "start": 55.9674,
      "duration": 0.167,
      "velocity": 127,
      "chip": "ym2612"
    },
    {
      "channel": 0,
      "note": 65,
      "start": 56.1332,
      "duration": 0.1665,
      "velocity": 112,
      "chip": "ym2612"
    },
    {
      "channel": 1,
      "note": 53,
      "start": 56.1338,
      "duration": 0.3007,
      "velocity": 102,
      "chip": "ym2612"
    },
    {
      "channel": 5,
      "note": 79,
      "start": 56.1345,
      "duration": 0.4386,
      "velocity": 127,
      "chip": "ym2612"
    },
    {
      "channel": 0,
      "note": 63,
      "start": 56.2999,
      "duration": 0.2725,
      "velocity": 112,
      "chip": "ym2612"
    },
    {
      "channel": 1,
      "note": 41,
      "start": 56.4347,
      "duration": 0.2877,
      "velocity": 102,
      "chip": "ym2612"
    },
    {
      "channel": 0,
      "note": 65,
      "start": 56.5725,
      "duration": 0.3165,
      "velocity": 112,
      "chip": "ym2612"
    },
    {
      "channel": 5,
      "note": 79,
      "start": 56.5733,
      "duration": 0.1499,
      "velocity": 127,
      "chip": "ym2612"
    },
    {
      "channel": 1,
      "note": 53,
      "start": 56.7225,
      "duration": 0.3187,
      "velocity": 102,
      "chip": "ym2612"
    },
    {
      "channel": 5,
      "note": 79,
      "start": 56.7233,
      "duration": 0.3187,
      "velocity": 127,
      "chip": "ym2612"
    },
    {
      "channel": 0,
      "note": 51,
      "start": 56.8892,
      "duration": 0.1515,
      "velocity": 112,
      "chip": "ym2612"
    },
    {
      "channel": 0,
      "note": 53,
      "start": 57.0408,
      "duration": 0.1498,
      "velocity": 112,
      "chip": "ym2612"
    },
    {
      "channel": 1,
      "note": 41,
      "start": 57.0414,
      "duration": 0.3017,
      "velocity": 102,
      "chip": "ym2612"
    },
    {
      "channel": 5,
      "note": 79,
      "start": 57.0421,
      "duration": 0.3018,
      "velocity": 127,
      "chip": "ym2612"
    },
    {
      "channel": 0,
      "note": 60,
      "start": 57.1908,
      "duration": 0.1518,
      "velocity": 112,
      "chip": "ym2612"
    },
    {
      "channel": 0,
      "note": 65,
      "start": 57.3428,
      "duration": 0.1498,
      "velocity": 112,
      "chip": "ym2612"
    },
    {
      "channel": 1,
      "note": 53,
      "start": 57.3434,
      "duration": 0.3006,
      "velocity": 102,
      "chip": "ym2612"
    },
    {
      "channel": 5,
      "note": 79,
      "start": 57.3441,
      "duration": 0.4401,
      "velocity": 127,
      "chip": "ym2612"
    },
    {
      "channel": 0,
      "note": 63,
      "start": 57.4927,
      "duration": 0.2906,
      "velocity": 112,
      "chip": "ym2612"
    },
    {
      "channel": 1,
      "note": 41,
      "start": 57.6441,
      "duration": 0.2893,
      "velocity": 102,
      "chip": "ym2612"
    },
    {
      "channel": 0,
      "note": 65,
      "start": 57.7835,
      "duration": 0.3165,
      "velocity": 112,
      "chip": "ym2612"
    },
    {
      "channel": 5,
      "note": 79,
      "start": 57.7843,
      "duration": 0.1498,
      "velocity": 127,
      "chip": "ym2612"
    },
    {
      "channel": 1,
      "note": 53,
      "start": 57.9336,
      "duration": 3.5514,
      "velocity": 102,
      "chip": "ym2612"
    },
    {
      "channel": 5,
      "note": 79,
      "start": 57.9343,
      "duration": 3.5507,
      "velocity": 127,
      "chip": "ym2612"
    },
    {
      "channel": 0,
      "note": 58,
      "start": 58.1002,
      "duration": 3.3848,
      "velocity": 112,
      "chip": "ym2612"
    }
  ]
}