{
  "track_name": "20 - Game Complete",
  "duration_sec": 70.693,
  "sample_rate": 44100,
  "note_count": 1625,
  "unique_pitches": 65,
  "pitch_range": 82,
  "avg_note_duration": 0.2578,
  "reconstruction_stats": {
    "notes_reconstructed": 1625,
    "keyon_events": 1625,
    "keyoff_events": 1453,
    "orphan_keyons": 6,
    "unique_pitches": 65,
    "pitch_range": 82,
    "avg_duration_sec": 0.2578
  },
  "metadata": {
    "source": "T\\The Second Samurai\\20 - Game Complete.vgz"
  },
  "notes": [
    {
      "channel": 0,
      "note": 31,
      "start": 0.0,
      "duration": 0.0,
      "velocity": 117,
      "chip": "ym2612"
    },
    {
      "channel": 0,
      "note": 21,
      "start": 0.0,
      "duration": 3.5858,
      "velocity": 127,
      "chip": "ym2612"
    },
    {
      "channel": 1,
      "note": 67,
      "start": 0.0,
      "duration": 0.0,
      "velocity": 117,
      "chip": "ym2612"
    },
    {
      "channel": 1,
      "note": 67,
      "start": 0.0,
      "duration": 3.5879,
      "velocity": 112,
      "chip": "ym2612"
    },
    {
      "channel": 2,
      "note": 67,
      "start": 0.0,
      "duration": 0.0,
      "velocity": 117,
      "chip": "ym2612"
    },
    {
      "channel": 2,
      "note": 67,
      "start": 0.0,
      "duration": 3.5901,
      "velocity": 100,
      "chip": "ym2612"
    },
    {
      "channel": 3,
      "note": 67,
      "start": 1.1747,
      "duration": 0.0783,
      "velocity": 106,
      "chip": "ym2612"
    },
    {
      "channel": 3,
      "note": 65,
      "start": 1.2531,
      "duration": 0.0799,
      "velocity": 106,
      "chip": "ym2612"
    },
    {
      "channel": 3,
      "note": 60,
      "start": 1.3332,
      "duration": 0.1598,
      "velocity": 106,
      "chip": "ym2612"
    },
    {
      "channel": 4,
      "note": 67,
      "start": 1.3353,
      "duration": 0.0778,
      "velocity": 106,
      "chip": "ym2612"
    },
    {
      "channel": 4,
      "note": 65,
      "start": 1.4132,
      "duration": 0.0803,
      "velocity": 106,
      "chip": "ym2612"
    },
    {
      "channel": 3,
      "note": 62,
      "start": 1.4932,
      "duration": 0.2398,
      "velocity": 106,
      "chip": "ym2612"
    },
    {
      "channel": 4,
      "note": 60,
      "start": 1.4937,
      "duration": 0.1593,
      "velocity": 106,
      "chip": "ym2612"
    },
    {
      "channel": 4,
      "note": 62,
      "start": 1.6532,
      "duration": 0.2398,
      "velocity": 106,
      "chip": "ym2612"
    },
    {
      "channel": 3,
      "note": 58,
      "start": 1.7332,
      "duration": 0.3198,
      "velocity": 106,
      "chip": "ym2612"
    },
    {
      "channel": 4,
      "note": 58,
      "start": 1.8932,
      "duration": 0.3198,
      "velocity": 106,
      "chip": "ym2612"
    },
    {
      "channel": 3,
      "note": 62,
      "start": 2.0531,
      "duration": 0.3999,
      "velocity": 106,
      "chip": "ym2612"
    },
    {
      "channel": 4,
      "note": 62,
      "start": 2.2132,
      "duration": 0.3998,
      "velocity": 106,
      "chip": "ym2612"
    },
    {
      "channel": 3,
      "note": 57,
      "start": 2.4531,
      "duration": 0.5599,
      "velocity": 106,
      "chip": "ym2612"
    },
    {
      "channel": 4,
      "note": 57,
      "start": 2.6132,
      "duration": 0.5255,
      "velocity": 106,
      "chip": "ym2612"
    },
    {
      "channel": 3,
      "note": 53,
      "start": 3.0132,
      "duration": 0.702,
      "velocity": 100,
      "chip": "ym2612"
    },
    {
      "channel": 4,
      "note": 53,
      "start": 3.1389,
      "duration": 0.455,
      "velocity": 107,
      "chip": "ym2612"
    },
    {
      "channel": 5,
      "note": 43,
      "start": 3.2661,
      "duration": 0.5991,
      "velocity": 127,
      "chip": "ym2612"
    },
    {
      "channel": 0,
      "note": 55,
      "start": 3.586,
      "duration": 0.1263,
      "velocity": 127,
      "chip": "ym2612"
    },
    {
      "channel": 1,
      "note": 21,
      "start": 3.5881,
      "duration": 0.2732,
      "velocity": 112,
      "chip": "ym2612"
    },
    {
      "channel": 2,
      "note": 98,
      "start": 3.5902,
      "duration": 0.1227,
      "velocity": 100,
      "chip": "ym2612"
    },
    {
      "channel": 4,
      "note": 98,
      "start": 3.5941,
      "duration": 0.1232,
      "velocity": 107,
      "chip": "ym2612"
    },
    {
      "channel": 0,
      "note": 55,
      "start": 3.7125,
      "duration": 0.3088,
      "velocity": 127,
      "chip": "ym2612"
    },
    {
      "channel": 2,
      "note": 91,
      "start": 3.7131,
      "duration": 0.1488,
      "velocity": 100,
      "chip": "ym2612"
    },
    {
      "channel": 3,
      "note": 86,
      "start": 3.7153,
      "duration": 0.1472,
      "velocity": 100,
      "chip": "ym2612"
    },
    {
      "channel": 4,
      "note": 98,
      "start": 3.7175,
      "duration": 0.1472,
      "velocity": 107,
      "chip": "ym2612"
    },
    {
      "channel": 1,
      "note": 31,
      "start": 3.8615,
      "duration": 0.4123,
      "velocity": 112,
      "chip": "ym2612"
    },
    {
      "channel": 2,
      "note": 89,
      "start": 3.8621,
      "duration": 0.1598,
      "velocity": 100,
      "chip": "ym2612"
    },
    {
      "channel": 3,
      "note": 84,
      "start": 3.8627,
      "duration": 0.1598,
      "velocity": 100,
      "chip": "ym2612"
    },
    {
      "channel": 4,
      "note": 98,
      "start": 3.8648,
      "duration": 0.1583,
      "velocity": 107,
      "chip": "ym2612"
    },
    {
      "channel": 5,
      "note": 43,
      "start": 3.8654,
      "duration": 0.5617,
      "velocity": 127,
      "chip": "ym2612"
    },
    {
      "channel": 0,
      "note": 55,
      "start": 4.0215,
      "duration": 0.1259,
      "velocity": 127,
      "chip": "ym2612"
    },
    {
      "channel": 2,
      "note": 91,
      "start": 4.0221,
      "duration": 0.1259,
      "velocity": 100,
      "chip": "ym2612"
    },
    {
      "channel": 3,
      "note": 86,
      "start": 4.0227,
      "duration": 0.2522,
      "velocity": 100,
      "chip": "ym2612"
    },
    {
      "channel": 4,
      "note": 98,
      "start": 4.0232,
      "duration": 0.127,
      "velocity": 107,
      "chip": "ym2612"
    },
    {
      "channel": 0,
      "note": 60,
      "start": 4.1476,
      "duration": 0.1257,
      "velocity": 127,
      "chip": "ym2612"
    },
    {
      "channel": 2,
      "note": 98,
      "start": 4.1482,
      "duration": 0.1262,
      "velocity": 100,
      "chip": "ym2612"
    },
    {
      "channel": 4,
      "note": 98,
      "start": 4.1504,
      "duration": 0.1267,
      "velocity": 107,
      "chip": "ym2612"
    },
    {
      "channel": 0,
      "note": 62,
      "start": 4.2735,
      "duration": 0.3114,
      "velocity": 127,
      "chip": "ym2612"
    },
    {
      "channel": 1,
      "note": 31,
      "start": 4.274,
      "duration": 0.1509,
      "velocity": 112,
      "chip": "ym2612"
    },
    {
      "channel": 2,
      "note": 91,
      "start": 4.2746,
      "duration": 0.1509,
      "velocity": 100,
      "chip": "ym2612"
    },
    {
      "channel": 3,
      "note": 86,
      "start": 4.2751,
      "duration": 0.1509,
      "velocity": 100,
      "chip": "ym2612"
    },
    {
      "channel": 4,
      "note": 98,
      "start": 4.2773,
      "duration": 0.1493,
      "velocity": 107,
      "chip": "ym2612"
    },
    {
      "channel": 1,
      "note": 31,
      "start": 4.4251,
      "duration": 0.2854,
      "velocity": 112,
      "chip": "ym2612"
    },
    {
      "channel": 2,
      "note": 89,
      "start": 4.4256,
      "duration": 0.1598,
      "velocity": 100,
      "chip": "ym2612"
    },
    {
      "channel": 3,
      "note": 84,
      "start": 4.4262,
      "duration": 0.1598,
      "velocity": 100,
      "chip": "ym2612"
    },
    {
      "channel": 4,
      "note": 98,
      "start": 4.4267,
      "duration": 0.1599,
      "velocity": 107,
      "chip": "ym2612"
    },
    {
      "channel": 5,
      "note": 43,
      "start": 4.4273,
      "duration": 0.5654,
      "velocity": 127,
      "chip": "ym2612"
    },
    {
      "channel": 0,
      "note": 53,
      "start": 4.585,
      "duration": 0.277,
      "velocity": 127,
      "chip": "ym2612"
    },
    {
      "channel": 2,
      "note": 91,
      "start": 4.5856,
      "duration": 0.1254,
      "velocity": 100,
      "chip": "ym2612"
    },
    {
      "channel": 3,
      "note": 86,
      "start": 4.5862,
      "duration": 0.1254,
      "velocity": 100,
      "chip": "ym2612"
    },
    {
      "channel": 4,
      "note": 98,
      "start": 4.5867,
      "duration": 0.1254,
      "velocity": 107,
      "chip": "ym2612"
    },
    {
      "channel": 1,
      "note": 31,
      "start": 4.7107,
      "duration": 0.4392,
      "velocity": 112,
      "chip": "ym2612"
    },
    {
      "channel": 2,
      "note": 98,
      "start": 4.7113,
      "duration": 0.1513,
      "velocity": 100,
      "chip": "ym2612"
    },
    {
      "channel": 3,
      "note": 79,
      "start": 4.7118,
      "duration": 0.1514,
      "velocity": 100,
      "chip": "ym2612"
    },
    {
      "channel": 4,
      "note": 98,
      "start": 4.7124,
      "duration": 0.1529,
      "velocity": 107,
      "chip": "ym2612"
    },
    {
      "channel": 0,
      "note": 53,
      "start": 4.8622,
      "duration": 0.2871,
      "velocity": 127,
      "chip": "ym2612"
    },
    {
      "channel": 2,
      "note": 91,
      "start": 4.8628,
      "duration": 0.1265,
      "velocity": 100,
      "chip": "ym2612"
    },
    {
      "channel": 3,
      "note": 86,
      "start": 4.8634,
      "duration": 0.1265,
      "velocity": 100,
      "chip": "ym2612"
    },
    {
      "channel": 4,
      "note": 98,
      "start": 4.8655,
      "duration": 0.1266,
      "velocity": 107,
      "chip": "ym2612"
    },
    {
      "channel": 2,
      "note": 89,
      "start": 4.9895,
      "duration": 0.1608,
      "velocity": 100,
      "chip": "ym2612"
    },
    {
      "channel": 3,
      "note": 84,
      "start": 4.9901,
      "duration": 0.1608,
      "velocity": 100,
      "chip": "ym2612"
    },
    {
      "channel": 4,
      "note": 98,
      "start": 4.9923,
      "duration": 0.1592,
      "velocity": 107,
      "chip": "ym2612"
    },
    {
      "channel": 5,
      "note": 43,
      "start": 4.9929,
      "duration": 0.5621,
      "velocity": 127,
      "chip": "ym2612"
    },
    {
      "channel": 0,
      "note": 53,
      "start": 5.1495,
      "duration": 0.1254,
      "velocity": 127,
      "chip": "ym2612"
    },
    {
      "channel": 1,
      "note": 31,
      "start": 5.15,
      "duration": 0.1254,
      "velocity": 112,
      "chip": "ym2612"
    },
    {
      "channel": 2,
      "note": 91,
      "start": 5.1505,
      "duration": 0.1254,
      "velocity": 100,
      "chip": "ym2612"
    },
    {
      "channel": 3,
      "note": 86,
      "start": 5.1511,
      "duration": 0.2514,
      "velocity": 100,
      "chip": "ym2612"
    },
    {
      "channel": 4,
      "note": 98,
      "start": 5.1517,
      "duration": 0.1264,
      "velocity": 107,
      "chip": "ym2612"
    },
    {
      "channel": 0,
      "note": 58,
      "start": 5.275,
      "duration": 0.1259,
      "velocity": 127,
      "chip": "ym2612"
    },
    {
      "channel": 1,
      "note": 21,
      "start": 5.2755,
      "duration": 0.1259,
      "velocity": 112,
      "chip": "ym2612"
    },
    {
      "channel": 2,
      "note": 98,
      "start": 5.2761,
      "duration": 0.1259,
      "velocity": 100,
      "chip": "ym2612"
    },
    {
      "channel": 4,
      "note": 98,
      "start": 5.2783,
      "duration": 0.1264,
      "velocity": 107,
      "chip": "ym2612"
    },
    {
      "channel": 0,
      "note": 60,
      "start": 5.4011,
      "duration": 0.1511,
      "velocity": 127,
      "chip": "ym2612"
    },
    {
      "channel": 1,
      "note": 31,
      "start": 5.4017,
      "duration": 0.1511,
      "velocity": 112,
      "chip": "ym2612"
    },
    {
      "channel": 2,
      "note": 91,
      "start": 5.4022,
      "duration": 0.1512,
      "velocity": 100,
      "chip": "ym2612"
    },
    {
      "channel": 3,
      "note": 86,
      "start": 5.4027,
      "duration": 0.1511,
      "velocity": 100,
      "chip": "ym2612"
    },
    {
      "channel": 4,
      "note": 98,
      "start": 5.4049,
      "duration": 0.1495,
      "velocity": 107,
      "chip": "ym2612"
    },
    {
      "channel": 0,
      "note": 58,
      "start": 5.5524,
      "duration": 0.1598,
      "velocity": 127,
      "chip": "ym2612"
    },
    {
      "channel": 1,
      "note": 21,
      "start": 5.5529,
      "duration": 0.3198,
      "velocity": 112,
      "chip": "ym2612"
    },
    {
      "channel": 2,
      "note": 89,
      "start": 5.5534,
      "duration": 0.1593,
      "velocity": 100,
      "chip": "ym2612"
    },
    {
      "channel": 3,
      "note": 84,
      "start": 5.554,
      "duration": 0.1593,
      "velocity": 100,
      "chip": "ym2612"
    },
    {
      "channel": 4,
      "note": 98,
      "start": 5.5546,
      "duration": 0.1593,
      "velocity": 107,
      "chip": "ym2612"
    },
    {
      "channel": 5,
      "note": 43,
      "start": 5.5552,
      "duration": 0.0773,
      "velocity": 127,
      "chip": "ym2612"
    },
    {
      "channel": 5,
      "note": 43,
      "start": 5.6327,
      "duration": 0.0818,
      "velocity": 127,
      "chip": "ym2612"
    },
    {
      "channel": 0,
      "note": 60,
      "start": 5.7123,
      "duration": 0.1599,
      "velocity": 127,
      "chip": "ym2612"
    },
    {
      "channel": 2,
      "note": 91,
      "start": 5.7129,
      "duration": 0.1603,
      "velocity": 100,
      "chip": "ym2612"
    },
    {
      "channel": 3,
      "note": 86,
      "start": 5.7135,
      "duration": 0.1603,
      "velocity": 100,
      "chip": "ym2612"
    },
    {
      "channel": 4,
      "note": 98,
      "start": 5.714,
      "duration": 0.1604,
      "velocity": 107,
      "chip": "ym2612"
    },
    {
      "channel": 5,
      "note": 43,
      "start": 5.7146,
      "duration": 0.438,
      "velocity": 127,
      "chip": "ym2612"
    },
    {
      "channel": 0,
      "note": 55,
      "start": 5.8724,
      "duration": 0.1251,
      "velocity": 127,
      "chip": "ym2612"
    },
    {
      "channel": 1,
      "note": 21,
      "start": 5.8729,
      "duration": 0.2759,
      "velocity": 112,
      "chip": "ym2612"
    },
    {
      "channel": 2,
      "note": 98,
      "start": 5.8734,
      "duration": 0.1246,
      "velocity": 100,
      "chip": "ym2612"
    },
    {
      "channel": 3,
      "note": 79,
      "start": 5.874,
      "duration": 0.1246,
      "velocity": 100,
      "chip": "ym2612"
    },
    {
      "channel": 4,
      "note": 98,
      "start": 5.8746,
      "duration": 0.1262,
      "velocity": 107,
      "chip": "ym2612"
    },
    {
      "channel": 0,
      "note": 55,
      "start": 5.9976,
      "duration": 0.311,
      "velocity": 127,
      "chip": "ym2612"
    },
    {
      "channel": 2,
      "note": 91,
      "start": 5.9983,
      "duration": 0.151,
      "velocity": 100,
      "chip": "ym2612"
    },
    {
      "channel": 3,
      "note": 86,
      "start": 5.9988,
      "duration": 0.1511,
      "velocity": 100,
      "chip": "ym2612"
    },
    {
      "channel": 4,
      "note": 98,
      "start": 6.001,
      "duration": 0.151,
      "velocity": 107,
      "chip": "ym2612"
    },
    {
      "channel": 1,
      "note": 31,
      "start": 6.1489,
      "duration": 0.4127,
      "velocity": 112,
      "chip": "ym2612"
    },
    {
      "channel": 2,
      "note": 89,
      "start": 6.1495,
      "duration": 0.1598,
      "velocity": 100,
      "chip": "ym2612"
    },
    {
      "channel": 3,
      "note": 84,
      "start": 6.1501,
      "duration": 0.1598,
      "velocity": 100,
      "chip": "ym2612"
    },
    {
      "channel": 4,
      "note": 98,
      "start": 6.1522,
      "duration": 0.1583,
      "velocity": 107,
      "chip": "ym2612"
    },
    {
      "channel": 5,
      "note": 43,
      "start": 6.1528,
      "duration": 0.5622,
      "velocity": 127,
      "chip": "ym2612"
    },
    {
      "channel": 0,
      "note": 55,
      "start": 6.3089,
      "duration": 0.1258,
      "velocity": 127,
      "chip": "ym2612"
    },
    {
      "channel": 2,
      "note": 91,
      "start": 6.3095,
      "duration": 0.1257,
      "velocity": 100,
      "chip": "ym2612"
    },
    {
      "channel": 3,
      "note": 86,
      "start": 6.3101,
      "duration": 0.2527,
      "velocity": 100,
      "chip": "ym2612"
    },
    {
      "channel": 4,
      "note": 98,
      "start": 6.3106,
      "duration": 0.1268,
      "velocity": 107,
      "chip": "ym2612"
    },
    {
      "channel": 0,
      "note": 60,
      "start": 6.4348,
      "duration": 0.1262,
      "velocity": 127,
      "chip": "ym2612"
    },
    {
      "channel": 2,
      "note": 98,
      "start": 6.4355,
      "duration": 0.1267,
      "velocity": 100,
      "chip": "ym2612"
    },
    {
      "channel": 4,
      "note": 98,
      "start": 6.4376,
      "duration": 0.1272,
      "velocity": 107,
      "chip": "ym2612"
    },
    {
      "channel": 0,
      "note": 62,
      "start": 6.5612,
      "duration": 0.3114,
      "velocity": 127,
      "chip": "ym2612"
    },
    {
      "channel": 1,
      "note": 31,
      "start": 6.5618,
      "duration": 0.151,
      "velocity": 112,
      "chip": "ym2612"
    },
    {
      "channel": 2,
      "note": 91,
      "start": 6.5623,
      "duration": 0.151,
      "velocity": 100,
      "chip": "ym2612"
    },
    {
      "channel": 3,
      "note": 86,
      "start": 6.5629,
      "duration": 0.151,
      "velocity": 100,
      "chip": "ym2612"
    },
    {
      "channel": 4,
      "note": 98,
      "start": 6.5651,
      "duration": 0.1494,
      "velocity": 107,
      "chip": "ym2612"
    },
    {
      "channel": 1,
      "note": 31,
      "start": 6.7129,
      "duration": 0.2855,
      "velocity": 112,
      "chip": "ym2612"
    },
    {
      "channel": 2,
      "note": 89,
      "start": 6.7135,
      "duration": 0.1598,
      "velocity": 100,
      "chip": "ym2612"
    },
    {
      "channel": 3,
      "note": 84,
      "start": 6.714,
      "duration": 0.1598,
      "velocity": 100,
      "chip": "ym2612"
    },
    {
      "channel": 4,
      "note": 98,
      "start": 6.7146,
      "duration": 0.1599,
      "velocity": 107,
      "chip": "ym2612"
    },
    {
      "channel": 5,
      "note": 43,
      "start": 6.7151,
      "duration": 0.5654,
      "velocity": 127,
      "chip": "ym2612"
    },
    {
      "channel": 0,
      "note": 53,
      "start": 6.8728,
      "duration": 0.277,
      "velocity": 127,
      "chip": "ym2612"
    },
    {
      "channel": 2,
      "note": 91,
      "start": 6.8735,
      "duration": 0.1255,
      "velocity": 100,
      "chip": "ym2612"
    },
    {
      "channel": 3,
      "note": 86,
      "start": 6.874,
      "duration": 0.1255,
      "velocity": 100,
      "chip": "ym2612"
    },
    {
      "channel": 4,
      "note": 98,
      "start": 6.8746,
      "duration": 0.1255,
      "velocity": 107,
      "chip": "ym2612"
    },
    {
      "channel": 1,
      "note": 31,
      "start": 6.9986,
      "duration": 0.4391,
      "velocity": 112,
      "chip": "ym2612"
    },
    {
      "channel": 2,
      "note": 98,
      "start": 6.9991,
      "duration": 0.1512,
      "velocity": 100,
      "chip": "ym2612"
    },
    {
      "channel": 3,
      "note": 77,
      "start": 6.9997,
      "duration": 0.1512,
      "velocity": 100,
      "chip": "ym2612"
    },
    {
      "channel": 4,
      "note": 98,
      "start": 7.0003,
      "duration": 0.1528,
      "velocity": 107,
      "chip": "ym2612"
    },
    {
      "channel": 0,
      "note": 53,
      "start": 7.1499,
      "duration": 0.2872,
      "velocity": 127,
      "chip": "ym2612"
    },
    {
      "channel": 2,
      "note": 91,
      "start": 7.1505,
      "duration": 0.1266,
      "velocity": 100,
      "chip": "ym2612"
    },
    {
      "channel": 3,
      "note": 86,
      "start": 7.1511,
      "duration": 0.1266,
      "velocity": 100,
      "chip": "ym2612"
    },
    {
      "channel": 4,
      "note": 98,
      "start": 7.1532,
      "duration": 0.1266,
      "velocity": 107,
      "chip": "ym2612"
    },
    {
      "channel": 2,
      "note": 88,
      "start": 7.2774,
      "duration": 0.1608,
      "velocity": 100,
      "chip": "ym2612"
    },
    {
      "channel": 3,
      "note": 84,
      "start": 7.2779,
      "duration": 0.1608,
      "velocity": 100,
      "chip": "ym2612"
    },
    {
      "channel": 4,
      "note": 98,
      "start": 7.28,
      "duration": 0.1593,
      "velocity": 107,
      "chip": "ym2612"
    },
    {
      "channel": 5,
      "note": 43,
      "start": 7.2806,
      "duration": 0.5633,
      "velocity": 127,
      "chip": "ym2612"
    },
    {
      "channel": 0,
      "note": 53,
      "start": 7.4373,
      "duration": 0.1262,
      "velocity": 127,
      "chip": "ym2612"
    },
    {
      "channel": 1,
      "note": 31,
      "start": 7.4378,
      "duration": 0.0625,
      "velocity": 112,
      "chip": "ym2612"
    },
    {
      "channel": 2,
      "note": 91,
      "start": 7.4384,
      "duration": 0.1262,
      "velocity": 100,
      "chip": "ym2612"
    },
    {
      "channel": 3,
      "note": 86,
      "start": 7.439,
      "duration": 0.1261,
      "velocity": 100,
      "chip": "ym2612"
    },
    {
      "channel": 4,
      "note": 98,
      "start": 7.4395,
      "duration": 0.1277,
      "velocity": 107,
      "chip": "ym2612"
    },
    {
      "channel": 1,
      "note": 31,
      "start": 7.5005,
      "duration": 0.0634,
      "velocity": 112,
      "chip": "ym2612"
    },
    {
      "channel": 0,
      "note": 58,
      "start": 7.5636,
      "duration": 0.1264,
      "velocity": 127,
      "chip": "ym2612"
    },
    {
      "channel": 1,
      "note": 21,
      "start": 7.5642,
      "duration": 0.1264,
      "velocity": 112,
      "chip": "ym2612"
    },
    {
      "channel": 2,
      "note": 98,
      "start": 7.5647,
      "duration": 0.1264,
      "velocity": 100,
      "chip": "ym2612"
    },
    {
      "channel": 3,
      "note": 76,
      "start": 7.5653,
      "duration": 0.1263,
      "velocity": 100,
      "chip": "ym2612"
    },
    {
      "channel": 4,
      "note": 98,
      "start": 7.5674,
      "duration": 0.1264,
      "velocity": 107,
      "chip": "ym2612"
    },
    {
      "channel": 0,
      "note": 60,
      "start": 7.6902,
      "duration": 0.151,
      "velocity": 127,
      "chip": "ym2612"
    },
    {
      "channel": 1,
      "note": 31,
      "start": 7.6907,
      "duration": 0.151,
      "velocity": 112,
      "chip": "ym2612"
    },
    {
      "channel": 2,
      "note": 91,
      "start": 7.6912,
      "duration": 0.151,
      "velocity": 100,
      "chip": "ym2612"
    },
    {
      "channel": 3,
      "note": 86,
      "start": 7.6918,
      "duration": 0.151,
      "velocity": 100,
      "chip": "ym2612"
    },
    {
      "channel": 4,
      "note": 98,
      "start": 7.694,
      "duration": 0.1494,
      "velocity": 107,
      "chip": "ym2612"
    },
    {
      "channel": 0,
      "note": 58,
      "start": 7.8413,
      "duration": 0.1598,
      "velocity": 127,
      "chip": "ym2612"
    },
    {
      "channel": 1,
      "note": 21,
      "start": 7.8418,
      "duration": 0.32,
      "velocity": 112,
      "chip": "ym2612"
    },
    {
      "channel": 2,
      "note": 88,
      "start": 7.8424,
      "duration": 0.1593,
      "velocity": 100,
      "chip": "ym2612"
    },
    {
      "channel": 3,
      "note": 84,
      "start": 7.843,
      "duration": 0.1593,
      "velocity": 100,
      "chip": "ym2612"
    },
    {
      "channel": 4,
      "note": 98,
      "start": 7.8436,
      "duration": 0.1593,
      "velocity": 107,
      "chip": "ym2612"
    },
    {
      "channel": 5,
      "note": 43,
      "start": 7.8441,
      "duration": 0.0773,
      "velocity": 127,
      "chip": "ym2612"
    },
    {
      "channel": 5,
      "note": 43,
      "start": 7.9216,
      "duration": 0.0818,
      "velocity": 127,
      "chip": "ym2612"
    },
    {
      "channel": 0,
      "note": 60,
      "start": 8.0012,
      "duration": 0.16,
      "velocity": 127,
      "chip": "ym2612"
    },
    {
      "channel": 2,
      "note": 91,
      "start": 8.0019,
      "duration": 0.1606,
      "velocity": 100,
      "chip": "ym2612"
    },
    {
      "channel": 3,
      "note": 86,
      "start": 8.0025,
      "duration": 0.2864,
      "velocity": 100,
      "chip": "ym2612"
    },
    {
      "channel": 4,
      "note": 98,
      "start": 8.003,
      "duration": 0.1617,
      "velocity": 107,
      "chip": "ym2612"
    },
    {
      "channel": 5,
      "note": 43,
      "start": 8.0036,
      "duration": 0.4381,
      "velocity": 127,
      "chip": "ym2612"
    },
    {
      "channel": 0,
      "note": 55,
      "start": 8.1614,
      "duration": 0.1262,
      "velocity": 127,
      "chip": "ym2612"
    },
    {
      "channel": 1,
      "note": 21,
      "start": 8.162,
      "duration": 0.2758,
      "velocity": 112,
      "chip": "ym2612"
    },
    {
      "channel": 2,
      "note": 98,
      "start": 8.1626,
      "duration": 0.1256,
      "velocity": 100,
      "chip": "ym2612"
    },
    {
      "channel": 4,
      "note": 98,
      "start": 8.1649,
      "duration": 0.1261,
      "velocity": 107,
      "chip": "ym2612"
    },
    {
      "channel": 0,
      "note": 55,
      "start": 8.2878,
      "duration": 0.31,
      "velocity": 127,
      "chip": "ym2612"
    },
    {
      "channel": 2,
      "note": 91,
      "start": 8.2884,
      "duration": 0.1499,
      "velocity": 100,
      "chip": "ym2612"
    },
    {
      "channel": 3,
      "note": 86,
      "start": 8.289,
      "duration": 0.1499,
      "velocity": 100,
      "chip": "ym2612"
    },
    {
      "channel": 4,
      "note": 98,
      "start": 8.2912,
      "duration": 0.1499,
      "velocity": 107,
      "chip": "ym2612"
    },
    {
      "channel": 1,
      "note": 31,
      "start": 8.4379,
      "duration": 0.4128,
      "velocity": 112,
      "chip": "ym2612"
    },
    {
      "channel": 2,
      "note": 89,
      "start": 8.4385,
      "duration": 0.1598,
      "velocity": 100,
      "chip": "ym2612"
    },
    {
      "channel": 3,
      "note": 84,
      "start": 8.4391,
      "duration": 0.1598,
      "velocity": 100,
      "chip": "ym2612"
    },
    {
      "channel": 4,
      "note": 98,
      "start": 8.4412,
      "duration": 0.1582,
      "velocity": 107,
      "chip": "ym2612"
    },
    {
      "channel": 5,
      "note": 43,
      "start": 8.4419,
      "duration": 0.5617,
      "velocity": 127,
      "chip": "ym2612"
    },
    {
      "channel": 0,
      "note": 55,
      "start": 8.5978,
      "duration": 0.126,
      "velocity": 127,
      "chip": "ym2612"
    },
    {
      "channel": 2,
      "note": 91,
      "start": 8.5985,
      "duration": 0.1259,
      "velocity": 100,
      "chip": "ym2612"
    },
    {
      "channel": 3,
      "note": 86,
      "start": 8.5991,
      "duration": 0.2528,
      "velocity": 100,
      "chip": "ym2612"
    },
    {
      "channel": 4,
      "note": 98,
      "start": 8.5996,
      "duration": 0.127,
      "velocity": 107,
      "chip": "ym2612"
    },
    {
      "channel": 0,
      "note": 60,
      "start": 8.724,
      "duration": 0.1261,
      "velocity": 127,
      "chip": "ym2612"
    },
    {
      "channel": 2,
      "note": 98,
      "start": 8.7246,
      "duration": 0.1267,
      "velocity": 100,
      "chip": "ym2612"
    },
    {
      "channel": 4,
      "note": 98,
      "start": 8.7268,
      "duration": 0.1272,
      "velocity": 107,
      "chip": "ym2612"
    },
    {
      "channel": 0,
      "note": 62,
      "start": 8.8503,
      "duration": 0.311,
      "velocity": 127,
      "chip": "ym2612"
    },
    {
      "channel": 1,
      "note": 31,
      "start": 8.8509,
      "duration": 0.1504,
      "velocity": 112,
      "chip": "ym2612"
    },
    {
      "channel": 2,
      "note": 91,
      "start": 8.8514,
      "duration": 0.1505,
      "velocity": 100,
      "chip": "ym2612"
    },
    {
      "channel": 3,
      "note": 86,
      "start": 8.852,
      "duration": 0.1505,
      "velocity": 100,
      "chip": "ym2612"
    },
    {
      "channel": 4,
      "note": 98,
      "start": 8.8542,
      "duration": 0.1489,
      "velocity": 107,
      "chip": "ym2612"
    },
    {
      "channel": 1,
      "note": 31,
      "start": 9.0015,
      "duration": 0.2856,
      "velocity": 112,
      "chip": "ym2612"
    },
    {
      "channel": 2,
      "note": 89,
      "start": 9.0021,
      "duration": 0.1598,
      "velocity": 100,
      "chip": "ym2612"
    },
    {
      "channel": 3,
      "note": 84,
      "start": 9.0027,
      "duration": 0.1598,
      "velocity": 100,
      "chip": "ym2612"
    },
    {
      "channel": 4,
      "note": 98,
      "start": 9.0032,
      "duration": 0.1599,
      "velocity": 107,
      "chip": "ym2612"
    },
    {
      "channel": 5,
      "note": 43,
      "start": 9.0038,
      "duration": 0.5654,
      "velocity": 127,
      "chip": "ym2612"
    },
    {
      "channel": 0,
      "note": 53,
      "start": 9.1615,
      "duration": 0.2771,
      "velocity": 127,
      "chip": "ym2612"
    },
    {
      "channel": 2,
      "note": 91,
      "start": 9.1621,
      "duration": 0.1256,
      "velocity": 100,
      "chip": "ym2612"
    },
    {
      "channel": 3,
      "note": 86,
      "start": 9.1627,
      "duration": 0.1256,
      "velocity": 100,
      "chip": "ym2612"
    },
    {
      "channel": 4,
      "note": 98,
      "start": 9.1632,
      "duration": 0.1256,
      "velocity": 107,
      "chip": "ym2612"
    },
    {
      "channel": 1,
      "note": 31,
      "start": 9.2873,
      "duration": 0.439,
      "velocity": 112,
      "chip": "ym2612"
    },
    {
      "channel": 2,
      "note": 98,
      "start": 9.2879,
      "duration": 0.1513,
      "velocity": 100,
      "chip": "ym2612"
    },
    {
      "channel": 3,
      "note": 79,
      "start": 9.2884,
      "duration": 0.1513,
      "velocity": 100,
      "chip": "ym2612"
    },
    {
      "channel": 4,
      "note": 98,
      "start": 9.289,
      "duration": 0.1529,
      "velocity": 107,
      "chip": "ym2612"
    },
    {
      "channel": 0,
      "note": 53,
      "start": 9.4387,
      "duration": 0.2871,
      "velocity": 127,
      "chip": "ym2612"
    },
    {
      "channel": 2,
      "note": 91,
      "start": 9.4394,
      "duration": 0.1265,
      "velocity": 100,
      "chip": "ym2612"
    },
    {
      "channel": 3,
      "note": 86,
      "start": 9.44,
      "duration": 0.1265,
      "velocity": 100,
      "chip": "ym2612"
    },
    {
      "channel": 4,
      "note": 98,
      "start": 9.4421,
      "duration": 0.1266,
      "velocity": 107,
      "chip": "ym2612"
    },
    {
      "channel": 2,
      "note": 89,
      "start": 9.5661,
      "duration": 0.1609,
      "velocity": 100,
      "chip": "ym2612"
    },
    {
      "channel": 3,
      "note": 84,
      "start": 9.5666,
      "duration": 0.1608,
      "velocity": 100,
      "chip": "ym2612"
    },
    {
      "channel": 4,
      "note": 98,
      "start": 9.5687,
      "duration": 0.1593,
      "velocity": 107,
      "chip": "ym2612"
    },
    {
      "channel": 5,
      "note": 43,
      "start": 9.5693,
      "duration": 0.5618,
      "velocity": 127,
      "chip": "ym2612"
    },
    {
      "channel": 0,
      "note": 53,
      "start": 9.726,
      "duration": 0.1255,
      "velocity": 127,
      "chip": "ym2612"
    },
    {
      "channel": 1,
      "note": 31,
      "start": 9.7266,
      "duration": 0.1255,
      "velocity": 112,
      "chip": "ym2612"
    },
    {
      "channel": 2,
      "note": 91,
      "start": 9.7271,
      "duration": 0.1255,
      "velocity": 100,
      "chip": "ym2612"
    },
    {
      "channel": 3,
      "note": 86,
      "start": 9.7277,
      "duration": 0.251,
      "velocity": 100,
      "chip": "ym2612"
    },
    {
      "channel": 4,
      "note": 98,
      "start": 9.7282,
      "duration": 0.1266,
      "velocity": 107,
      "chip": "ym2612"
    },
    {
      "channel": 0,
      "note": 58,
      "start": 9.8517,
      "duration": 0.1253,
      "velocity": 127,
      "chip": "ym2612"
    },
    {
      "channel": 1,
      "note": 21,
      "start": 9.8522,
      "duration": 0.1254,
      "velocity": 112,
      "chip": "ym2612"
    },
    {
      "channel": 2,
      "note": 98,
      "start": 9.8528,
      "duration": 0.1254,
      "velocity": 100,
      "chip": "ym2612"
    },
    {
      "channel": 4,
      "note": 98,
      "start": 9.855,
      "duration": 0.1258,
      "velocity": 107,
      "chip": "ym2612"
    },
    {
      "channel": 0,
      "note": 60,
      "start": 9.9772,
      "duration": 0.1511,
      "velocity": 127,
      "chip": "ym2612"
    },
    {
      "channel": 1,
      "note": 31,
      "start": 9.9778,
      "duration": 0.1511,
      "velocity": 112,
      "chip": "ym2612"
    },
    {
      "channel": 2,
      "note": 91,
      "start": 9.9783,
      "duration": 0.1511,
      "velocity": 100,
      "chip": "ym2612"
    },
    {
      "channel": 3,
      "note": 86,
      "start": 9.9788,
      "duration": 0.1511,
      "velocity": 100,
      "chip": "ym2612"
    },
    {
      "channel": 4,
      "note": 98,
      "start": 9.981,
      "duration": 0.1495,
      "velocity": 107,
      "chip": "ym2612"
    },
    {
      "channel": 0,
      "note": 58,
      "start": 10.1285,
      "duration": 0.1598,
      "velocity": 127,
      "chip": "ym2612"
    },
    {
      "channel": 1,
      "note": 21,
      "start": 10.129,
      "duration": 0.3199,
      "velocity": 112,
      "chip": "ym2612"
    },
    {
      "channel": 2,
      "note": 89,
      "start": 10.1296,
      "duration": 0.1593,
      "velocity": 100,
      "chip": "ym2612"
    },
    {
      "channel": 3,
      "note": 84,
      "start": 10.1302,
      "duration": 0.1593,
      "velocity": 100,
      "chip": "ym2612"
    },
    {
      "channel": 4,
      "note": 98,
      "start": 10.1307,
      "duration": 0.1593,
      "velocity": 107,
      "chip": "ym2612"
    },
    {
      "channel": 5,
      "note": 43,
      "start": 10.1313,
      "duration": 0.0773,
      "velocity": 127,
      "chip": "ym2612"
    },
    {
      "channel": 5,
      "note": 43,
      "start": 10.2088,
      "duration": 0.0818,
      "velocity": 127,
      "chip": "ym2612"
    },
    {
      "channel": 0,
      "note": 60,
      "start": 10.2884,
      "duration": 0.1599,
      "velocity": 127,
      "chip": "ym2612"
    },
    {
      "channel": 2,
      "note": 91,
      "start": 10.2891,
      "duration": 0.1603,
      "velocity": 100,
      "chip": "ym2612"
    },
    {
      "channel": 3,
      "note": 86,
      "start": 10.2896,
      "duration": 0.1603,
      "velocity": 100,
      "chip": "ym2612"
    },
    {
      "channel": 4,
      "note": 98,
      "start": 10.2902,
      "duration": 0.1604,
      "velocity": 107,
      "chip": "ym2612"
    },
    {
      "channel": 5,
      "note": 43,
      "start": 10.2907,
      "duration": 0.4383,
      "velocity": 127,
      "chip": "ym2612"
    },
    {
      "channel": 0,
      "note": 55,
      "start": 10.4485,
      "duration": 0.1252,
      "velocity": 127,
      "chip": "ym2612"
    },
    {
      "channel": 1,
      "note": 21,
      "start": 10.449,
      "duration": 0.2762,
      "velocity": 112,
      "chip": "ym2612"
    },
    {
      "channel": 2,
      "note": 98,
      "start": 10.4496,
      "duration": 0.1248,
      "velocity": 100,
      "chip": "ym2612"
    },
    {
      "channel": 3,
      "note": 79,
      "start": 10.4502,
      "duration": 0.1248,
      "velocity": 100,
      "chip": "ym2612"
    },
    {
      "channel": 4,
      "note": 98,
      "start": 10.4507,
      "duration": 0.1263,
      "velocity": 107,
      "chip": "ym2612"
    },
    {
      "channel": 0,
      "note": 55,
      "start": 10.5739,
      "duration": 0.3112,
      "velocity": 127,
      "chip": "ym2612"
    },
    {
      "channel": 2,
      "note": 91,
      "start": 10.5745,
      "duration": 0.1511,
      "velocity": 100,
      "chip": "ym2612"
    },
    {
      "channel": 3,
      "note": 86,
      "start": 10.575,
      "duration": 0.1512,
      "velocity": 100,
      "chip": "ym2612"
    },
    {
      "channel": 4,
      "note": 98,
      "start": 10.5772,
      "duration": 0.1512,
      "velocity": 107,
      "chip": "ym2612"
    },
    {
      "channel": 1,
      "note": 31,
      "start": 10.7253,
      "duration": 0.4122,
      "velocity": 112,
      "chip": "ym2612"
    },
    {
      "channel": 2,
      "note": 89,
      "start": 10.7259,
      "duration": 0.1598,
      "velocity": 100,
      "chip": "ym2612"
    },
    {
      "channel": 3,
      "note": 84,
      "start": 10.7264,
      "duration": 0.1598,
      "velocity": 100,
      "chip": "ym2612"
    },
    {
      "channel": 4,
      "note": 98,
      "start": 10.7286,
      "duration": 0.1582,
      "velocity": 107,
      "chip": "ym2612"
    },
    {
      "channel": 5,
      "note": 43,
      "start": 10.7292,
      "duration": 0.5616,
      "velocity": 127,
      "chip": "ym2612"
    },
    {
      "channel": 0,
      "note": 55,
      "start": 10.8852,
      "duration": 0.1258,
      "velocity": 127,
      "chip": "ym2612"
    },
    {
      "channel": 2,
      "note": 91,
      "start": 10.8859,
      "duration": 0.1258,
      "velocity": 100,
      "chip": "ym2612"
    },
    {
      "channel": 3,
      "note": 86,
      "start": 10.8864,
      "duration": 0.2522,
      "velocity": 100,
      "chip": "ym2612"
    },
    {
      "channel": 4,
      "note": 98,
      "start": 10.887,
      "duration": 0.1269,
      "velocity": 107,
      "chip": "ym2612"
    },
    {
      "channel": 0,
      "note": 60,
      "start": 11.0112,
      "duration": 0.1258,
      "velocity": 127,
      "chip": "ym2612"
    },
    {
      "channel": 2,
      "note": 98,
      "start": 11.0118,
      "duration": 0.1263,
      "velocity": 100,
      "chip": "ym2612"
    },
    {
      "channel": 4,
      "note": 98,
      "start": 11.014,
      "duration": 0.1268,
      "velocity": 107,
      "chip": "ym2612"
    },
    {
      "channel": 0,
      "note": 62,
      "start": 11.1371,
      "duration": 0.3113,
      "velocity": 127,
      "chip": "ym2612"
    },
    {
      "channel": 1,
      "note": 31,
      "start": 11.1377,
      "duration": 0.1508,
      "velocity": 112,
      "chip": "ym2612"
    },
    {
      "channel": 2,
      "note": 91,
      "start": 11.1382,
      "duration": 0.1508,
      "velocity": 100,
      "chip": "ym2612"
    },
    {
      "channel": 3,
      "note": 86,
      "start": 11.1388,
      "duration": 0.1508,
      "velocity": 100,
      "chip": "ym2612"
    },
    {
      "channel": 4,
      "note": 98,
      "start": 11.141,
      "duration": 0.1492,
      "velocity": 107,
      "chip": "ym2612"
    },
    {
      "channel": 1,
      "note": 31,
      "start": 11.2887,
      "duration": 0.2856,
      "velocity": 112,
      "chip": "ym2612"
    },
    {
      "channel": 2,
      "note": 89,
      "start": 11.2893,
      "duration": 0.1598,
      "velocity": 100,
      "chip": "ym2612"
    },
    {
      "channel": 3,
      "note": 84,
      "start": 11.2898,
      "duration": 0.1598,
      "velocity": 100,
      "chip": "ym2612"
    },
    {
      "channel": 4,
      "note": 98,
      "start": 11.2903,
      "duration": 0.1599,
      "velocity": 107,
      "chip": "ym2612"
    },
    {
      "channel": 5,
      "note": 43,
      "start": 11.2909,
      "duration": 0.5646,
      "velocity": 127,
      "chip": "ym2612"
    },
    {
      "channel": 0,
      "note": 53,
      "start": 11.4486,
      "duration": 0.277,
      "velocity": 127,
      "chip": "ym2612"
    },
    {
      "channel": 2,
      "note": 91,
      "start": 11.4493,
      "duration": 0.1256,
      "velocity": 100,
      "chip": "ym2612"
    },
    {
      "channel": 3,
      "note": 86,
      "start": 11.4498,
      "duration": 0.1255,
      "velocity": 100,
      "chip": "ym2612"
    },
    {
      "channel": 4,
      "note": 98,
      "start": 11.4503,
      "duration": 0.1256,
      "velocity": 107,
      "chip": "ym2612"
    },
    {
      "channel": 1,
      "note": 31,
      "start": 11.5744,
      "duration": 0.4383,
      "velocity": 112,
      "chip": "ym2612"
    },
    {
      "channel": 2,
      "note": 98,
      "start": 11.5749,
      "duration": 0.1512,
      "velocity": 100,
      "chip": "ym2612"
    },
    {
      "channel": 3,
      "note": 77,
      "start": 11.5755,
      "duration": 0.1513,
      "velocity": 100,
      "chip": "ym2612"
    },
    {
      "channel": 4,
      "note": 98,
      "start": 11.5761,
      "duration": 0.1528,
      "velocity": 107,
      "chip": "ym2612"
    },
    {
      "channel": 0,
      "note": 53,
      "start": 11.7257,
      "duration": 0.2864,
      "velocity": 127,
      "chip": "ym2612"
    },
    {
      "channel": 2,
      "note": 91,
      "start": 11.7264,
      "duration": 0.1259,
      "velocity": 100,
      "chip": "ym2612"
    },
    {
      "channel": 3,
      "note": 86,
      "start": 11.727,
      "duration": 0.1259,
      "velocity": 100,
      "chip": "ym2612"
    },
    {
      "channel": 4,
      "note": 98,
      "start": 11.7291,
      "duration": 0.1259,
      "velocity": 107,
      "chip": "ym2612"
    },
    {
      "channel": 2,
      "note": 88,
      "start": 11.8524,
      "duration": 0.1609,
      "velocity": 100,
      "chip": "ym2612"
    },
    {
      "channel": 3,
      "note": 84,
      "start": 11.853,
      "duration": 0.1608,
      "velocity": 100,
      "chip": "ym2612"
    },
    {
      "channel": 4,
      "note": 98,
      "start": 11.8551,
      "duration": 0.1593,
      "velocity": 107,
      "chip": "ym2612"
    },
    {
      "channel": 5,
      "note": 43,
      "start": 11.8557,
      "duration": 0.5636,
      "velocity": 127,
      "chip": "ym2612"
    },
    {
      "channel": 0,
      "note": 53,
      "start": 12.0124,
      "duration": 0.1268,
      "velocity": 127,
      "chip": "ym2612"
    },
    {
      "channel": 1,
      "note": 31,
      "start": 12.0129,
      "duration": 0.0626,
      "velocity": 112,
      "chip": "ym2612"
    },
    {
      "channel": 2,
      "note": 91,
      "start": 12.0134,
      "duration": 0.1268,
      "velocity": 100,
      "chip": "ym2612"
    },
    {
      "channel": 3,
      "note": 86,
      "start": 12.014,
      "duration": 0.1268,
      "velocity": 100,
      "chip": "ym2612"
    },
    {
      "channel": 4,
      "note": 98,
      "start": 12.0146,
      "duration": 0.1283,
      "velocity": 107,
      "chip": "ym2612"
    },
    {
      "channel": 1,
      "note": 31,
      "start": 12.0757,
      "duration": 0.064,
      "velocity": 112,
      "chip": "ym2612"
    },
    {
      "channel": 0,
      "note": 58,
      "start": 12.1393,
      "duration": 0.1261,
      "velocity": 127,
      "chip": "ym2612"
    },
    {
      "channel": 1,
      "note": 21,
      "start": 12.1399,
      "duration": 0.126,
      "velocity": 112,
      "chip": "ym2612"
    },
    {
      "channel": 2,
      "note": 98,
      "start": 12.1405,
      "duration": 0.126,
      "velocity": 100,
      "chip": "ym2612"
    },
    {
      "channel": 3,
      "note": 76,
      "start": 12.141,
      "duration": 0.126,
      "velocity": 100,
      "chip": "ym2612"
    },
    {
      "channel": 4,
      "note": 98,
      "start": 12.1431,
      "duration": 0.1261,
      "velocity": 107,
      "chip": "ym2612"
    },
    {
      "channel": 0,
      "note": 60,
      "start": 12.2655,
      "duration": 0.151,
      "velocity": 127,
      "chip": "ym2612"
    },
    {
      "channel": 1,
      "note": 31,
      "start": 12.2661,
      "duration": 0.151,
      "velocity": 112,
      "chip": "ym2612"
    },
    {
      "channel": 2,
      "note": 91,
      "start": 12.2666,
      "duration": 0.151,
      "velocity": 100,
      "chip": "ym2612"
    },
    {
      "channel": 3,
      "note": 86,
      "start": 12.2672,
      "duration": 0.1509,
      "velocity": 100,
      "chip": "ym2612"
    },
    {
      "channel": 4,
      "note": 98,
      "start": 12.2693,
      "duration": 0.1493,
      "velocity": 107,
      "chip": "ym2612"
    },
    {
      "channel": 0,
      "note": 58,
      "start": 12.4166,
      "duration": 0.1598,
      "velocity": 127,
      "chip": "ym2612"
    },
    {
      "channel": 1,
      "note": 21,
      "start": 12.4172,
      "duration": 0.3215,
      "velocity": 103,
      "chip": "ym2612"
    },
    {
      "channel": 2,
      "note": 88,
      "start": 12.4177,
      "duration": 0.1593,
      "velocity": 100,
      "chip": "ym2612"
    },
    {
      "channel": 3,
      "note": 84,
      "start": 12.4183,
      "duration": 0.1593,
      "velocity": 100,
      "chip": "ym2612"
    },
    {
      "channel": 4,
      "note": 98,
      "start": 12.4189,
      "duration": 0.1593,
      "velocity": 107,
      "chip": "ym2612"
    },
    {
      "channel": 5,
      "note": 43,
      "start": 12.4194,
      "duration": 0.0773,
      "velocity": 127,
      "chip": "ym2612"
    },
    {
      "channel": 5,
      "note": 43,
      "start": 12.4969,
      "duration": 0.0818,
      "velocity": 127,
      "chip": "ym2612"
    },
    {
      "channel": 0,
      "note": 60,
      "start": 12.5766,
      "duration": 0.16,
      "velocity": 127,
      "chip": "ym2612"
    },
    {
      "channel": 2,
      "note": 91,
      "start": 12.5772,
      "duration": 0.162,
      "velocity": 100,
      "chip": "ym2612"
    },
    {
      "channel": 3,
      "note": 86,
      "start": 12.5778,
      "duration": 0.1637,
      "velocity": 1,
      "chip": "ym2612"
    },
    {
      "channel": 4,
      "note": 98,
      "start": 12.5783,
      "duration": 0.1638,
      "velocity": 107,
      "chip": "ym2612"
    },
    {
      "channel": 5,
      "note": 43,
      "start": 12.5789,
      "duration": 0.4416,
      "velocity": 127,
      "chip": "ym2612"
    },
    {
      "channel": 0,
      "note": 55,
      "start": 12.7367,
      "duration": 0.1269,
      "velocity": 127,
      "chip": "ym2612"
    },
    {
      "channel": 1,
      "note": 91,
      "start": 12.7388,
      "duration": 0.6896,
      "velocity": 103,
      "chip": "ym2612"
    },
    {
      "channel": 2,
      "note": 98,
      "start": 12.7394,
      "duration": 0.1248,
      "velocity": 100,
      "chip": "ym2612"
    },
    {
      "channel": 3,
      "note": 91,
      "start": 12.7416,
      "duration": 0.276,
      "velocity": 103,
      "chip": "ym2612"
    },
    {
      "channel": 4,
      "note": 98,
      "start": 12.7422,
      "duration": 0.1241,
      "velocity": 107,
      "chip": "ym2612"
    },
    {
      "channel": 0,
      "note": 55,
      "start": 12.8638,
      "duration": 0.31,
      "velocity": 127,
      "chip": "ym2612"
    },
    {
      "channel": 2,
      "note": 91,
      "start": 12.8644,
      "duration": 0.151,
      "velocity": 100,
      "chip": "ym2612"
    },
    {
      "channel": 4,
      "note": 98,
      "start": 12.8666,
      "duration": 0.1532,
      "velocity": 107,
      "chip": "ym2612"
    },
    {
      "channel": 2,
      "note": 89,
      "start": 13.0157,
      "duration": 0.1587,
      "velocity": 100,
      "chip": "ym2612"
    },
    {
      "channel": 3,
      "note": 91,
      "start": 13.0178,
      "duration": 0.7227,
      "velocity": 103,
      "chip": "ym2612"
    },
    {
      "channel": 4,
      "note": 98,
      "start": 13.0199,
      "duration": 0.155,
      "velocity": 107,
      "chip": "ym2612"
    },
    {
      "channel": 5,
      "note": 43,
      "start": 13.0206,
      "duration": 0.5585,
      "velocity": 127,
      "chip": "ym2612"
    },
    {
      "channel": 0,
      "note": 55,
      "start": 13.1739,
      "duration": 0.1262,
      "velocity": 127,
      "chip": "ym2612"
    },
    {
      "channel": 2,
      "note": 91,
      "start": 13.1745,
      "duration": 0.1262,
      "velocity": 100,
      "chip": "ym2612"
    },
    {
      "channel": 4,
      "note": 98,
      "start": 13.1751,
      "duration": 0.1294,
      "velocity": 107,
      "chip": "ym2612"
    },
    {
      "channel": 0,
      "note": 60,
      "start": 13.3002,
      "duration": 0.126,
      "velocity": 127,
      "chip": "ym2612"
    },
    {
      "channel": 2,
      "note": 98,
      "start": 13.3009,
      "duration": 0.128,
      "velocity": 100,
      "chip": "ym2612"
    },
    {
      "channel": 4,
      "note": 98,
      "start": 13.3047,
      "duration": 0.1264,
      "velocity": 107,
      "chip": "ym2612"
    },
    {
      "channel": 0,
      "note": 62,
      "start": 13.4264,
      "duration": 0.3109,
      "velocity": 127,
      "chip": "ym2612"
    },
    {
      "channel": 1,
      "note": 86,
      "start": 13.4285,
      "duration": 0.1487,
      "velocity": 103,
      "chip": "ym2612"
    },
    {
      "channel": 2,
      "note": 91,
      "start": 13.4291,
      "duration": 0.1487,
      "velocity": 100,
      "chip": "ym2612"
    },
    {
      "channel": 4,
      "note": 98,
      "start": 13.4313,
      "duration": 0.1471,
      "velocity": 107,
      "chip": "ym2612"
    },
    {
      "channel": 1,
      "note": 89,
      "start": 13.5774,
      "duration": 0.1604,
      "velocity": 103,
      "chip": "ym2612"
    },
    {
      "channel": 2,
      "note": 89,
      "start": 13.578,
      "duration": 0.1604,
      "velocity": 100,
      "chip": "ym2612"
    },
    {
      "channel": 4,
      "note": 98,
      "start": 13.5786,
      "duration": 0.1625,
      "velocity": 107,
      "chip": "ym2612"
    },
    {
      "channel": 5,
      "note": 43,
      "start": 13.5792,
      "duration": 0.5669,
      "velocity": 127,
      "chip": "ym2612"
    },
    {
      "channel": 0,
      "note": 53,
      "start": 13.7374,
      "duration": 0.2778,
      "velocity": 127,
      "chip": "ym2612"
    },
    {
      "channel": 1,
      "note": 88,
      "start": 13.738,
      "duration": 0.126,
      "velocity": 103,
      "chip": "ym2612"
    },
    {
      "channel": 2,
      "note": 91,
      "start": 13.7385,
      "duration": 0.126,
      "velocity": 100,
      "chip": "ym2612"
    },
    {
      "channel": 3,
      "note": 86,
      "start": 13.7407,
      "duration": 0.1244,
      "velocity": 103,
      "chip": "ym2612"
    },
    {
      "channel": 4,
      "note": 98,
      "start": 13.7413,
      "duration": 0.1244,
      "velocity": 107,
      "chip": "ym2612"
    },
    {
      "channel": 1,
      "note": 94,
      "start": 13.8641,
      "duration": 0.1517,
      "velocity": 103,
      "chip": "ym2612"
    },
    {
      "channel": 2,
      "note": 98,
      "start": 13.8647,
      "duration": 0.1518,
      "velocity": 100,
      "chip": "ym2612"
    },
    {
      "channel": 3,
      "note": 89,
      "start": 13.8652,
      "duration": 0.1517,
      "velocity": 103,
      "chip": "ym2612"
    },
    {
      "channel": 4,
      "note": 98,
      "start": 13.8658,
      "duration": 0.1533,
      "velocity": 107,
      "chip": "ym2612"
    },
    {
      "channel": 0,
      "note": 53,
      "start": 14.0155,
      "duration": 0.2866,
      "velocity": 127,
      "chip": "ym2612"
    },
    {
      "channel": 1,
      "note": 93,
      "start": 14.0161,
      "duration": 0.1261,
      "velocity": 103,
      "chip": "ym2612"
    },
    {
      "channel": 2,
      "note": 91,
      "start": 14.0166,
      "duration": 0.1262,
      "velocity": 100,
      "chip": "ym2612"
    },
    {
      "channel": 3,
      "note": 86,
      "start": 14.0171,
      "duration": 0.1262,
      "velocity": 103,
      "chip": "ym2612"
    },
    {
      "channel": 4,
      "note": 98,
      "start": 14.0193,
      "duration": 0.1261,
      "velocity": 107,
      "chip": "ym2612"
    },
    {
      "channel": 1,
      "note": 84,
      "start": 14.1424,
      "duration": 0.1603,
      "velocity": 103,
      "chip": "ym2612"
    },
    {
      "channel": 2,
      "note": 89,
      "start": 14.1429,
      "duration": 0.1603,
      "velocity": 100,
      "chip": "ym2612"
    },
    {
      "channel": 3,
      "note": 94,
      "start": 14.1434,
      "duration": 0.1603,
      "velocity": 103,
      "chip": "ym2612"
    },
    {
      "channel": 4,
      "note": 98,
      "start": 14.1456,
      "duration": 0.1587,
      "velocity": 107,
      "chip": "ym2612"
    },
    {
      "channel": 5,
      "note": 43,
      "start": 14.1462,
      "duration": 0.5616,
      "velocity": 127,
      "chip": "ym2612"
    },
    {
      "channel": 0,
      "note": 53,
      "start": 14.3023,
      "duration": 0.1255,
      "velocity": 127,
      "chip": "ym2612"
    },
    {
      "channel": 1,
      "note": 86,
      "start": 14.3028,
      "duration": 0.1255,
      "velocity": 103,
      "chip": "ym2612"
    },
    {
      "channel": 2,
      "note": 91,
      "start": 14.3034,
      "duration": 0.1255,
      "velocity": 100,
      "chip": "ym2612"
    },
    {
      "channel": 3,
      "note": 93,
      "start": 14.304,
      "duration": 0.1255,
      "velocity": 103,
      "chip": "ym2612"
    },
    {
      "channel": 4,
      "note": 98,
      "start": 14.3045,
      "duration": 0.127,
      "velocity": 107,
      "chip": "ym2612"
    },
    {
      "channel": 0,
      "note": 58,
      "start": 14.4279,
      "duration": 0.1261,
      "velocity": 127,
      "chip": "ym2612"
    },
    {
      "channel": 1,
      "note": 97,
      "start": 14.4285,
      "duration": 0.1261,
      "velocity": 103,
      "chip": "ym2612"
    },
    {
      "channel": 2,
      "note": 98,
      "start": 14.4291,
      "duration": 0.1261,
      "velocity": 100,
      "chip": "ym2612"
    },
    {
      "channel": 3,
      "note": 84,
      "start": 14.4296,
      "duration": 0.1261,
      "velocity": 103,
      "chip": "ym2612"
    },
    {
      "channel": 4,
      "note": 98,
      "start": 14.4317,
      "duration": 0.1261,
      "velocity": 107,
      "chip": "ym2612"
    },
    {
      "channel": 0,
      "note": 60,
      "start": 14.5542,
      "duration": 0.1508,
      "velocity": 127,
      "chip": "ym2612"
    },
    {
      "channel": 1,
      "note": 96,
      "start": 14.5548,
      "duration": 0.1508,
      "velocity": 103,
      "chip": "ym2612"
    },
    {
      "channel": 2,
      "note": 91,
      "start": 14.5553,
      "duration": 0.1508,
      "velocity": 100,
      "chip": "ym2612"
    },
    {
      "channel": 3,
      "note": 86,
      "start": 14.5559,
      "duration": 0.1507,
      "velocity": 103,
      "chip": "ym2612"
    },
    {
      "channel": 4,
      "note": 98,
      "start": 14.558,
      "duration": 0.1492,
      "velocity": 107,
      "chip": "ym2612"
    },
    {
      "channel": 0,
      "note": 58,
      "start": 14.7052,
      "duration": 0.1598,
      "velocity": 127,
      "chip": "ym2612"
    },
    {
      "channel": 1,
      "note": 91,
      "start": 14.7057,
      "duration": 0.1599,
      "velocity": 103,
      "chip": "ym2612"
    },
    {
      "channel": 2,
      "note": 89,
      "start": 14.7063,
      "duration": 0.1599,
      "velocity": 100,
      "chip": "ym2612"
    },
    {
      "channel": 3,
      "note": 97,
      "start": 14.7069,
      "duration": 0.1598,
      "velocity": 103,
      "chip": "ym2612"
    },
    {
      "channel": 4,
      "note": 98,
      "start": 14.7074,
      "duration": 0.1598,
      "velocity": 107,
      "chip": "ym2612"
    },
    {
      "channel": 5,
      "note": 43,
      "start": 14.708,
      "duration": 0.0773,
      "velocity": 127,
      "chip": "ym2612"
    },
    {
      "channel": 5,
      "note": 43,
      "start": 14.7855,
      "duration": 0.0823,
      "velocity": 127,
      "chip": "ym2612"
    },
    {
      "channel": 0,
      "note": 60,
      "start": 14.8652,
      "duration": 0.1598,
      "velocity": 127,
      "chip": "ym2612"
    },
    {
      "channel": 1,
      "note": 89,
      "start": 14.8658,
      "duration": 0.1598,
      "velocity": 103,
      "chip": "ym2612"
    },
    {
      "channel": 2,
      "note": 91,
      "start": 14.8663,
      "duration": 0.1599,
      "velocity": 100,
      "chip": "ym2612"
    },
    {
      "channel": 3,
      "note": 96,
      "start": 14.8669,
      "duration": 0.1598,
      "velocity": 103,
      "chip": "ym2612"
    },
    {
      "channel": 4,
      "note": 98,
      "start": 14.8674,
      "duration": 0.1598,
      "velocity": 107,
      "chip": "ym2612"
    },
    {
      "channel": 5,
      "note": 43,
      "start": 14.868,
      "duration": 0.4388,
      "velocity": 127,
      "chip": "ym2612"
    },
    {
      "channel": 0,
      "note": 55,
      "start": 15.0252,
      "duration": 0.1253,
      "velocity": 127,
      "chip": "ym2612"
    },
    {
      "channel": 1,
      "note": 84,
      "start": 15.0258,
      "duration": 1.0022,
      "velocity": 103,
      "chip": "ym2612"
    },
    {
      "channel": 2,
      "note": 98,
      "start": 15.0263,
      "duration": 0.1248,
      "velocity": 100,
      "chip": "ym2612"
    },
    {
      "channel": 3,
      "note": 91,
      "start": 15.0269,
      "duration": 0.1248,
      "velocity": 103,
      "chip": "ym2612"
    },
    {
      "channel": 4,
      "note": 98,
      "start": 15.0274,
      "duration": 0.1263,
      "velocity": 107,
      "chip": "ym2612"
    },
    {
      "channel": 0,
      "note": 55,
      "start": 15.1506,
      "duration": 0.3112,
      "velocity": 127,
      "chip": "ym2612"
    },
    {
      "channel": 2,
      "note": 91,
      "start": 15.1513,
      "duration": 0.1522,
      "velocity": 100,
      "chip": "ym2612"
    },
    {
      "channel": 3,
      "note": 89,
      "start": 15.1518,
      "duration": 0.1523,
      "velocity": 103,
      "chip": "ym2612"
    },
    {
      "channel": 4,
      "note": 98,
      "start": 15.154,
      "duration": 0.1522,
      "velocity": 107,
      "chip": "ym2612"
    },
    {
      "channel": 2,
      "note": 89,
      "start": 15.3037,
      "duration": 0.1587,
      "velocity": 100,
      "chip": "ym2612"
    },
    {
      "channel": 3,
      "note": 84,
      "start": 15.3042,
      "duration": 1.004,
      "velocity": 103,
      "chip": "ym2612"
    },
    {
      "channel": 4,
      "note": 98,
      "start": 15.3064,
      "duration": 0.1566,
      "velocity": 107,
      "chip": "ym2612"
    },
    {
      "channel": 5,
      "note": 43,
      "start": 15.307,
      "duration": 0.5615,
      "velocity": 127,
      "chip": "ym2612"
    },
    {
      "channel": 0,
      "note": 55,
      "start": 15.462,
      "duration": 0.1262,
      "velocity": 127,
      "chip": "ym2612"
    },
    {
      "channel": 2,
      "note": 91,
      "start": 15.4626,
      "duration": 0.1262,
      "velocity": 100,
      "chip": "ym2612"
    },
    {
      "channel": 4,
      "note": 98,
      "start": 15.4632,
      "duration": 0.1293,
      "velocity": 107,
      "chip": "ym2612"
    },
    {
      "channel": 0,
      "note": 60,
      "start": 15.5883,
      "duration": 0.1262,
      "velocity": 127,
      "chip": "ym2612"
    },
    {
      "channel": 2,
      "note": 98,
      "start": 15.589,
      "duration": 0.1261,
      "velocity": 100,
      "chip": "ym2612"
    },
    {
      "channel": 4,
      "note": 98,
      "start": 15.5927,
      "duration": 0.1246,
      "velocity": 107,
      "chip": "ym2612"
    },
    {
      "channel": 0,
      "note": 62,
      "start": 15.7147,
      "duration": 0.311,
      "velocity": 127,
      "chip": "ym2612"
    },
    {
      "channel": 2,
      "note": 91,
      "start": 15.7153,
      "duration": 0.152,
      "velocity": 100,
      "chip": "ym2612"
    },
    {
      "channel": 4,
      "note": 98,
      "start": 15.7175,
      "duration": 0.1504,
      "velocity": 107,
      "chip": "ym2612"
    },
    {
      "channel": 2,
      "note": 89,
      "start": 15.8675,
      "duration": 0.159,
      "velocity": 100,
      "chip": "ym2612"
    },
    {
      "channel": 4,
      "note": 98,
      "start": 15.8681,
      "duration": 0.159,
      "velocity": 107,
      "chip": "ym2612"
    },
    {
      "channel": 5,
      "note": 43,
      "start": 15.8687,
      "duration": 0.5655,
      "velocity": 127,
      "chip": "ym2612"
    },
    {
      "channel": 0,
      "note": 53,
      "start": 16.0258,
      "duration": 0.2781,
      "velocity": 127,
      "chip": "ym2612"
    },
    {
      "channel": 2,
      "note": 91,
      "start": 16.0266,
      "duration": 0.1259,
      "velocity": 100,
      "chip": "ym2612"
    },
    {
      "channel": 4,
      "note": 98,
      "start": 16.0273,
      "duration": 0.1274,
      "velocity": 107,
      "chip": "ym2612"
    },
    {
      "channel": 1,
      "note": 84,
      "start": 16.028,
      "duration": 0.0138,
      "velocity": 103,
      "chip": "ym2612"
    },
    {
      "channel": 1,
      "note": 84,
      "start": 16.0419,
      "duration": 0.0157,
      "velocity": 103,
      "chip": "ym2612"
    },
    {
      "channel": 1,
      "note": 84,
      "start": 16.0576,
      "duration": 0.0155,
      "velocity": 103,
      "chip": "ym2612"
    },
    {
      "channel": 1,
      "note": 84,
      "start": 16.0731,
      "duration": 0.0314,
      "velocity": 103,
      "chip": "ym2612"
    },
    {
      "channel": 1,
      "note": 84,
      "start": 16.1045,
      "duration": 0.0159,
      "velocity": 103,
      "chip": "ym2612"
    },
    {
      "channel": 1,
      "note": 84,
      "start": 16.1203,
      "duration": 0.0157,
      "velocity": 103,
      "chip": "ym2612"
    },
    {
      "channel": 1,
      "note": 84,
      "start": 16.1361,
      "duration": 0.0193,
      "velocity": 103,
      "chip": "ym2612"
    },
    {
      "channel": 2,
      "note": 98,
      "start": 16.1527,
      "duration": 0.1519,
      "velocity": 100,
      "chip": "ym2612"
    },
    {
      "channel": 4,
      "note": 98,
      "start": 16.1549,
      "duration": 0.152,
      "velocity": 107,
      "chip": "ym2612"
    },
    {
      "channel": 1,
      "note": 85,
      "start": 16.1554,
      "duration": 0.0134,
      "velocity": 103,
      "chip": "ym2612"
    },
    {
      "channel": 1,
      "note": 85,
      "start": 16.1687,
      "duration": 0.0157,
      "velocity": 103,
      "chip": "ym2612"
    },
    {
      "channel": 1,
      "note": 85,
      "start": 16.1844,
      "duration": 0.0191,
      "velocity": 103,
      "chip": "ym2612"
    },
    {
      "channel": 1,
      "note": 85,
      "start": 16.2036,
      "duration": 0.0206,
      "velocity": 103,
      "chip": "ym2612"
    },
    {
      "channel": 1,
      "note": 85,
      "start": 16.2242,
      "duration": 0.0193,
      "velocity": 103,
      "chip": "ym2612"
    },
    {
      "channel": 1,
      "note": 85,
      "start": 16.2435,
      "duration": 0.02,
      "velocity": 103,
      "chip": "ym2612"
    },
    {
      "channel": 1,
      "note": 85,
      "start": 16.2635,
      "duration": 0.0201,
      "velocity": 103,
      "chip": "ym2612"
    },
    {
      "channel": 1,
      "note": 85,
      "start": 16.2836,
      "duration": 0.0243,
      "velocity": 103,
      "chip": "ym2612"
    },
    {
      "channel": 0,
      "note": 53,
      "start": 16.3041,
      "duration": 0.2872,
      "velocity": 127,
      "chip": "ym2612"
    },
    {
      "channel": 2,
      "note": 91,
      "start": 16.3047,
      "duration": 0.1266,
      "velocity": 100,
      "chip": "ym2612"
    },
    {
      "channel": 4,
      "note": 98,
      "start": 16.3071,
      "duration": 0.1264,
      "velocity": 107,
      "chip": "ym2612"
    },
    {
      "channel": 1,
      "note": 85,
      "start": 16.3078,
      "duration": 0.0123,
      "velocity": 103,
      "chip": "ym2612"
    },
    {
      "channel": 3,
      "note": 84,
      "start": 16.3082,
      "duration": 0.0123,
      "velocity": 103,
      "chip": "ym2612"
    },
    {
      "channel": 1,
      "note": 85,
      "start": 16.3202,
      "duration": 0.0156,
      "velocity": 103,
      "chip": "ym2612"
    },
    {
      "channel": 3,
      "note": 84,
      "start": 16.3205,
      "duration": 0.0156,
      "velocity": 103,
      "chip": "ym2612"
    },
    {
      "channel": 1,
      "note": 85,
      "start": 16.3358,
      "duration": 0.0158,
      "velocity": 103,
      "chip": "ym2612"
    },
    {
      "channel": 3,
      "note": 84,
      "start": 16.3361,
      "duration": 0.0157,
      "velocity": 103,
      "chip": "ym2612"
    },
    {
      "channel": 1,
      "note": 85,
      "start": 16.3515,
      "duration": 0.0315,
      "velocity": 103,
      "chip": "ym2612"
    },
    {
      "channel": 3,
      "note": 84,
      "start": 16.3518,
      "duration": 0.0315,
      "velocity": 103,
      "chip": "ym2612"
    },
    {
      "channel": 1,
      "note": 85,
      "start": 16.383,
      "duration": 0.0159,
      "velocity": 103,
      "chip": "ym2612"
    },
    {
      "channel": 3,
      "note": 84,
      "start": 16.3833,
      "duration": 0.0159,
      "velocity": 103,
      "chip": "ym2612"
    },
    {
      "channel": 1,
      "note": 85,
      "start": 16.3988,
      "duration": 0.016,
      "velocity": 103,
      "chip": "ym2612"
    },
    {
      "channel": 3,
      "note": 84,
      "start": 16.3992,
      "duration": 0.016,
      "velocity": 103,
      "chip": "ym2612"
    },
    {
      "channel": 1,
      "note": 85,
      "start": 16.4149,
      "duration": 0.0198,
      "velocity": 103,
      "chip": "ym2612"
    },
    {
      "channel": 3,
      "note": 84,
      "start": 16.4153,
      "duration": 0.0198,
      "velocity": 103,
      "chip": "ym2612"
    },
    {
      "channel": 2,
      "note": 88,
      "start": 16.4315,
      "duration": 0.1604,
      "velocity": 100,
      "chip": "ym2612"
    },
    {
      "channel": 4,
      "note": 98,
      "start": 16.4337,
      "duration": 0.1588,
      "velocity": 107,
      "chip": "ym2612"
    },
    {
      "channel": 5,
      "note": 43,
      "start": 16.4343,
      "duration": 0.5641,
      "velocity": 127,
      "chip": "ym2612"
    },
    {
      "channel": 1,
      "note": 85,
      "start": 16.4347,
      "duration": 0.0162,
      "velocity": 103,
      "chip": "ym2612"
    },
    {
      "channel": 3,
      "note": 85,
      "start": 16.4351,
      "duration": 0.0162,
      "velocity": 103,
      "chip": "ym2612"
    },
    {
      "channel": 1,
      "note": 86,
      "start": 16.4509,
      "duration": 0.02,
      "velocity": 103,
      "chip": "ym2612"
    },
    {
      "channel": 3,
      "note": 85,
      "start": 16.4512,
      "duration": 0.02,
      "velocity": 103,
      "chip": "ym2612"
    },
    {
      "channel": 1,
      "note": 86,
      "start": 16.4709,
      "duration": 0.02,
      "velocity": 103,
      "chip": "ym2612"
    },
    {
      "channel": 3,
      "note": 85,
      "start": 16.4712,
      "duration": 0.02,
      "velocity": 103,
      "chip": "ym2612"
    },
    {
      "channel": 1,
      "note": 86,
      "start": 16.4909,
      "duration": 0.04,
      "velocity": 103,
      "chip": "ym2612"
    },
    {
      "channel": 3,
      "note": 85,
      "start": 16.4912,
      "duration": 0.04,
      "velocity": 103,
      "chip": "ym2612"
    },
    {
      "channel": 1,
      "note": 86,
      "start": 16.5309,
      "duration": 0.02,
      "velocity": 103,
      "chip": "ym2612"
    },
    {
      "channel": 3,
      "note": 85,
      "start": 16.5312,
      "duration": 0.02,
      "velocity": 103,
      "chip": "ym2612"
    },
    {
      "channel": 1,
      "note": 86,
      "start": 16.5509,
      "duration": 0.02,
      "velocity": 103,
      "chip": "ym2612"
    },
    {
      "channel": 3,
      "note": 85,
      "start": 16.5512,
      "duration": 0.02,
      "velocity": 103,
      "chip": "ym2612"
    },
    {
      "channel": 1,
      "note": 86,
      "start": 16.5709,
      "duration": 0.0226,
      "velocity": 103,
      "chip": "ym2612"
    },
    {
      "channel": 3,
      "note": 85,
      "start": 16.5712,
      "duration": 0.0226,
      "velocity": 103,
      "chip": "ym2612"
    },
    {
      "channel": 0,
      "note": 53,
      "start": 16.5914,
      "duration": 0.1272,
      "velocity": 127,
      "chip": "ym2612"
    },
    {
      "channel": 2,
      "note": 91,
      "start": 16.5921,
      "duration": 0.1272,
      "velocity": 100,
      "chip": "ym2612"
    },
    {
      "channel": 4,
      "note": 98,
      "start": 16.5927,
      "duration": 0.1288,
      "velocity": 107,
      "chip": "ym2612"
    },
    {
      "channel": 1,
      "note": 86,
      "start": 16.5934,
      "duration": 0.0138,
      "velocity": 103,
      "chip": "ym2612"
    },
    {
      "channel": 3,
      "note": 85,
      "start": 16.5938,
      "duration": 0.0137,
      "velocity": 103,
      "chip": "ym2612"
    },
    {
      "channel": 1,
      "note": 86,
      "start": 16.6072,
      "duration": 0.0159,
      "velocity": 103,
      "chip": "ym2612"
    },
    {
      "channel": 3,
      "note": 85,
      "start": 16.6075,
      "duration": 0.0159,
      "velocity": 103,
      "chip": "ym2612"
    },
    {
      "channel": 1,
      "note": 86,
      "start": 16.6231,
      "duration": 4.1102,
      "velocity": 103,
      "chip": "ym2612"
    },
    {
      "channel": 3,
      "note": 85,
      "start": 16.6234,
      "duration": 0.0153,
      "velocity": 103,
      "chip": "ym2612"
    },
    {
      "channel": 3,
      "note": 85,
      "start": 16.6387,
      "duration": 0.0316,
      "velocity": 103,
      "chip": "ym2612"
    },
    {
      "channel": 3,
      "note": 85,
      "start": 16.6703,
      "duration": 0.0161,
      "velocity": 103,
      "chip": "ym2612"
    },
    {
      "channel": 3,
      "note": 85,
      "start": 16.6864,
      "duration": 0.0159,
      "velocity": 103,
      "chip": "ym2612"
    },
    {
      "channel": 3,
      "note": 85,
      "start": 16.7023,
      "duration": 0.0202,
      "velocity": 103,
      "chip": "ym2612"
    },
    {
      "channel": 0,
      "note": 58,
      "start": 16.7188,
      "duration": 0.1269,
      "velocity": 127,
      "chip": "ym2612"
    },
    {
      "channel": 2,
      "note": 98,
      "start": 16.7195,
      "duration": 0.1285,
      "velocity": 100,
      "chip": "ym2612"
    },
    {
      "channel": 4,
      "note": 98,
      "start": 16.7216,
      "duration": 0.1285,
      "velocity": 107,
      "chip": "ym2612"
    },
    {
      "channel": 3,
      "note": 85,
      "start": 16.7225,
      "duration": 0.0123,
      "velocity": 103,
      "chip": "ym2612"
    },
    {
      "channel": 3,
      "note": 85,
      "start": 16.7349,
      "duration": 0.0159,
      "velocity": 103,
      "chip": "ym2612"
    },
    {
      "channel": 3,
      "note": 86,
      "start": 16.7507,
      "duration": 0.0161,
      "velocity": 103,
      "chip": "ym2612"
    },
    {
      "channel": 3,
      "note": 86,
      "start": 16.7668,
      "duration": 0.0167,
      "velocity": 103,
      "chip": "ym2612"
    },
    {
      "channel": 3,
      "note": 86,
      "start": 16.7835,
      "duration": 0.0147,
      "velocity": 103,
      "chip": "ym2612"
    },
    {
      "channel": 3,
      "note": 86,
      "start": 16.7982,
      "duration": 0.0159,
      "velocity": 103,
      "chip": "ym2612"
    },
    {
      "channel": 3,
      "note": 86,
      "start": 16.8141,
      "duration": 0.0156,
      "velocity": 103,
      "chip": "ym2612"
    },
    {
      "channel": 3,
      "note": 86,
      "start": 16.8297,
      "duration": 0.0212,
      "velocity": 103,
      "chip": "ym2612"
    },
    {
      "channel": 0,
      "note": 60,
      "start": 16.8459,
      "duration": 0.1507,
      "velocity": 127,
      "chip": "ym2612"
    },
    {
      "channel": 2,
      "note": 91,
      "start": 16.8481,
      "duration": 0.1492,
      "velocity": 100,
      "chip": "ym2612"
    },
    {
      "channel": 4,
      "note": 98,
      "start": 16.8503,
      "duration": 0.1476,
      "velocity": 107,
      "chip": "ym2612"
    },
    {
      "channel": 3,
      "note": 86,
      "start": 16.8508,
      "duration": 0.0115,
      "velocity": 103,
      "chip": "ym2612"
    },
    {
      "channel": 3,
      "note": 86,
      "start": 16.8623,
      "duration": 0.016,
      "velocity": 103,
      "chip": "ym2612"
    },
    {
      "channel": 3,
      "note": 86,
      "start": 16.8783,
      "duration": 4.1357,
      "velocity": 103,
      "chip": "ym2612"
    },
    {
      "channel": 0,
      "note": 58,
      "start": 16.9968,
      "duration": 0.1599,
      "velocity": 127,
      "chip": "ym2612"
    },
    {
      "channel": 2,
      "note": 88,
      "start": 16.9974,
      "duration": 0.1598,
      "velocity": 100,
      "chip": "ym2612"
    },
    {
      "channel": 4,
      "note": 98,
      "start": 16.998,
      "duration": 0.1615,
      "velocity": 107,
      "chip": "ym2612"
    },
    {
      "channel": 5,
      "note": 43,
      "start": 16.9986,
      "duration": 0.0784,
      "velocity": 127,
      "chip": "ym2612"
    },
    {
      "channel": 5,
      "note": 43,
      "start": 17.0772,
      "duration": 0.0829,
      "velocity": 127,
      "chip": "ym2612"
    },
    {
      "channel": 0,
      "note": 60,
      "start": 17.1568,
      "duration": 0.16,
      "velocity": 127,
      "chip": "ym2612"
    },
    {
      "channel": 2,
      "note": 91,
      "start": 17.1574,
      "duration": 0.16,
      "velocity": 100,
      "chip": "ym2612"
    },
    {
      "channel": 4,
      "note": 98,
      "start": 17.1596,
      "duration": 0.1585,
      "velocity": 107,
      "chip": "ym2612"
    },
    {
      "channel": 5,
      "note": 43,
      "start": 17.1602,
      "duration": 0.4366,
      "velocity": 127,
      "chip": "ym2612"
    },
    {
      "channel": 0,
      "note": 55,
      "start": 17.3169,
      "duration": 0.126,
      "velocity": 127,
      "chip": "ym2612"
    },
    {
      "channel": 2,
      "note": 98,
      "start": 17.3176,
      "duration": 0.1259,
      "velocity": 100,
      "chip": "ym2612"
    },
    {
      "channel": 4,
      "note": 98,
      "start": 17.3183,
      "duration": 0.1274,
      "velocity": 107,
      "chip": "ym2612"
    },
    {
      "channel": 0,
      "note": 55,
      "start": 17.443,
      "duration": 0.3108,
      "velocity": 127,
      "chip": "ym2612"
    },
    {
      "channel": 2,
      "note": 91,
      "start": 17.4437,
      "duration": 0.1503,
      "velocity": 100,
      "chip": "ym2612"
    },
    {
      "channel": 4,
      "note": 98,
      "start": 17.4459,
      "duration": 0.1502,
      "velocity": 107,
      "chip": "ym2612"
    },
    {
      "channel": 2,
      "note": 89,
      "start": 17.5941,
      "duration": 0.1604,
      "velocity": 100,
      "chip": "ym2612"
    },
    {
      "channel": 4,
      "note": 98,
      "start": 17.5963,
      "duration": 0.1588,
      "velocity": 107,
      "chip": "ym2612"
    },
    {
      "channel": 5,
      "note": 43,
      "start": 17.597,
      "duration": 0.5615,
      "velocity": 127,
      "chip": "ym2612"
    },
    {
      "channel": 0,
      "note": 55,
      "start": 17.754,
      "duration": 0.1257,
      "velocity": 127,
      "chip": "ym2612"
    },
    {
      "channel": 2,
      "note": 91,
      "start": 17.7547,
      "duration": 0.1257,
      "velocity": 100,
      "chip": "ym2612"
    },
    {
      "channel": 4,
      "note": 98,
      "start": 17.7552,
      "duration": 0.1273,
      "velocity": 107,
      "chip": "ym2612"
    },
    {
      "channel": 0,
      "note": 60,
      "start": 17.8799,
      "duration": 0.126,
      "velocity": 127,
      "chip": "ym2612"
    },
    {
      "channel": 2,
      "note": 98,
      "start": 17.8806,
      "duration": 0.1259,
      "velocity": 100,
      "chip": "ym2612"
    },
    {
      "channel": 4,
      "note": 98,
      "start": 17.8827,
      "duration": 0.126,
      "velocity": 107,
      "chip": "ym2612"
    },
    {
      "channel": 0,
      "note": 62,
      "start": 18.006,
      "duration": 0.3112,
      "velocity": 127,
      "chip": "ym2612"
    },
    {
      "channel": 2,
      "note": 91,
      "start": 18.0067,
      "duration": 0.1506,
      "velocity": 100,
      "chip": "ym2612"
    },
    {
      "channel": 4,
      "note": 98,
      "start": 18.0089,
      "duration": 0.149,
      "velocity": 107,
      "chip": "ym2612"
    },
    {
      "channel": 2,
      "note": 89,
      "start": 18.1575,
      "duration": 0.1604,
      "velocity": 100,
      "chip": "ym2612"
    },
    {
      "channel": 4,
      "note": 98,
      "start": 18.1581,
      "duration": 0.1604,
      "velocity": 107,
      "chip": "ym2612"
    },
    {
      "channel": 5,
      "note": 43,
      "start": 18.1587,
      "duration": 0.5654,
      "velocity": 127,
      "chip": "ym2612"
    },
    {
      "channel": 0,
      "note": 53,
      "start": 18.3174,
      "duration": 0.2768,
      "velocity": 127,
      "chip": "ym2612"
    },
    {
      "channel": 2,
      "note": 91,
      "start": 18.318,
      "duration": 0.1247,
      "velocity": 100,
      "chip": "ym2612"
    },
    {
      "channel": 4,
      "note": 98,
      "start": 18.3186,
      "duration": 0.1248,
      "velocity": 107,
      "chip": "ym2612"
    },
    {
      "channel": 2,
      "note": 98,
      "start": 18.443,
      "duration": 0.1519,
      "velocity": 100,
      "chip": "ym2612"
    },
    {
      "channel": 4,
      "note": 98,
      "start": 18.4436,
      "duration": 0.1535,
      "velocity": 107,
      "chip": "ym2612"
    },
    {
      "channel": 0,
      "note": 53,
      "start": 18.5944,
      "duration": 0.2868,
      "velocity": 127,
      "chip": "ym2612"
    },
    {
      "channel": 2,
      "note": 91,
      "start": 18.595,
      "duration": 0.1263,
      "velocity": 100,
      "chip": "ym2612"
    },
    {
      "channel": 4,
      "note": 98,
      "start": 18.5972,
      "duration": 0.1263,
      "velocity": 107,
      "chip": "ym2612"
    },
    {
      "channel": 2,
      "note": 89,
      "start": 18.7215,
      "duration": 0.1604,
      "velocity": 100,
      "chip": "ym2612"
    },
    {
      "channel": 4,
      "note": 98,
      "start": 18.7237,
      "duration": 0.1587,
      "velocity": 107,
      "chip": "ym2612"
    },
    {
      "channel": 5,
      "note": 43,
      "start": 18.7243,
      "duration": 0.5629,
      "velocity": 127,
      "chip": "ym2612"
    },
    {
      "channel": 0,
      "note": 53,
      "start": 18.8814,
      "duration": 0.1261,
      "velocity": 127,
      "chip": "ym2612"
    },
    {
      "channel": 2,
      "note": 91,
      "start": 18.882,
      "duration": 0.1261,
      "velocity": 100,
      "chip": "ym2612"
    },
    {
      "channel": 4,
      "note": 98,
      "start": 18.8826,
      "duration": 0.1277,
      "velocity": 107,
      "chip": "ym2612"
    },
    {
      "channel": 0,
      "note": 58,
      "start": 19.0077,
      "duration": 0.1262,
      "velocity": 127,
      "chip": "ym2612"
    },
    {
      "channel": 2,
      "note": 98,
      "start": 19.0083,
      "duration": 0.1263,
      "velocity": 100,
      "chip": "ym2612"
    },
    {
      "channel": 4,
      "note": 98,
      "start": 19.0105,
      "duration": 0.1262,
      "velocity": 107,
      "chip": "ym2612"
    },
    {
      "channel": 0,
      "note": 60,
      "start": 19.1341,
      "duration": 0.1512,
      "velocity": 127,
      "chip": "ym2612"
    },
    {
      "channel": 2,
      "note": 91,
      "start": 19.1346,
      "duration": 0.1513,
      "velocity": 100,
      "chip": "ym2612"
    },
    {
      "channel": 4,
      "note": 98,
      "start": 19.1369,
      "duration": 0.1497,
      "velocity": 107,
      "chip": "ym2612"
    },
    {
      "channel": 0,
      "note": 58,
      "start": 19.2855,
      "duration": 0.1598,
      "velocity": 127,
      "chip": "ym2612"
    },
    {
      "channel": 2,
      "note": 89,
      "start": 19.2861,
      "duration": 0.1598,
      "velocity": 100,
      "chip": "ym2612"
    },
    {
      "channel": 4,
      "note": 98,
      "start": 19.2867,
      "duration": 0.1599,
      "velocity": 107,
      "chip": "ym2612"
    },
    {
      "channel": 5,
      "note": 43,
      "start": 19.2873,
      "duration": 0.0783,
      "velocity": 127,
      "chip": "ym2612"
    },
    {
      "channel": 5,
      "note": 43,
      "start": 19.3658,
      "duration": 0.0813,
      "velocity": 127,
      "chip": "ym2612"
    },
    {
      "channel": 0,
      "note": 60,
      "start": 19.4455,
      "duration": 0.1598,
      "velocity": 127,
      "chip": "ym2612"
    },
    {
      "channel": 2,
      "note": 91,
      "start": 19.4461,
      "duration": 0.1598,
      "velocity": 100,
      "chip": "ym2612"
    },
    {
      "channel": 4,
      "note": 98,
      "start": 19.4467,
      "duration": 0.1598,
      "velocity": 107,
      "chip": "ym2612"
    },
    {
      "channel": 5,
      "note": 43,
      "start": 19.4473,
      "duration": 0.4379,
      "velocity": 127,
      "chip": "ym2612"
    },
    {
      "channel": 0,
      "note": 55,
      "start": 19.6055,
      "duration": 0.1253,
      "velocity": 127,
      "chip": "ym2612"
    },
    {
      "channel": 2,
      "note": 98,
      "start": 19.6061,
      "duration": 0.1252,
      "velocity": 100,
      "chip": "ym2612"
    },
    {
      "channel": 4,
      "note": 98,
      "start": 19.6067,
      "duration": 0.1268,
      "velocity": 107,
      "chip": "ym2612"
    },
    {
      "channel": 0,
      "note": 55,
      "start": 19.7309,
      "duration": 0.3115,
      "velocity": 127,
      "chip": "ym2612"
    },
    {
      "channel": 2,
      "note": 91,
      "start": 19.7315,
      "duration": 0.151,
      "velocity": 100,
      "chip": "ym2612"
    },
    {
      "channel": 4,
      "note": 98,
      "start": 19.7337,
      "duration": 0.1509,
      "velocity": 107,
      "chip": "ym2612"
    },
    {
      "channel": 2,
      "note": 89,
      "start": 19.8826,
      "duration": 0.1604,
      "velocity": 100,
      "chip": "ym2612"
    },
    {
      "channel": 4,
      "note": 98,
      "start": 19.8848,
      "duration": 0.1588,
      "velocity": 107,
      "chip": "ym2612"
    },
    {
      "channel": 5,
      "note": 43,
      "start": 19.8854,
      "duration": 0.5617,
      "velocity": 127,
      "chip": "ym2612"
    },
    {
      "channel": 0,
      "note": 55,
      "start": 20.0425,
      "duration": 0.1257,
      "velocity": 127,
      "chip": "ym2612"
    },
    {
      "channel": 2,
      "note": 91,
      "start": 20.0432,
      "duration": 0.1256,
      "velocity": 100,
      "chip": "ym2612"
    },
    {
      "channel": 4,
      "note": 98,
      "start": 20.0437,
      "duration": 0.1273,
      "velocity": 107,
      "chip": "ym2612"
    },
    {
      "channel": 0,
      "note": 60,
      "start": 20.1683,
      "duration": 0.1263,
      "velocity": 127,
      "chip": "ym2612"
    },
    {
      "channel": 2,
      "note": 98,
      "start": 20.169,
      "duration": 0.1263,
      "velocity": 100,
      "chip": "ym2612"
    },
    {
      "channel": 4,
      "note": 98,
      "start": 20.1711,
      "duration": 0.1263,
      "velocity": 107,
      "chip": "ym2612"
    },
    {
      "channel": 0,
      "note": 62,
      "start": 20.2948,
      "duration": 0.311,
      "velocity": 127,
      "chip": "ym2612"
    },
    {
      "channel": 2,
      "note": 91,
      "start": 20.2954,
      "duration": 0.1505,
      "velocity": 100,
      "chip": "ym2612"
    },
    {
      "channel": 4,
      "note": 98,
      "start": 20.2976,
      "duration": 0.1489,
      "velocity": 107,
      "chip": "ym2612"
    },
    {
      "channel": 2,
      "note": 89,
      "start": 20.4461,
      "duration": 0.1604,
      "velocity": 100,
      "chip": "ym2612"
    },
    {
      "channel": 4,
      "note": 98,
      "start": 20.4467,
      "duration": 0.1604,
      "velocity": 107,
      "chip": "ym2612"
    },
    {
      "channel": 5,
      "note": 43,
      "start": 20.4473,
      "duration": 0.5659,
      "velocity": 127,
      "chip": "ym2612"
    },
    {
      "channel": 0,
      "note": 53,
      "start": 20.606,
      "duration": 0.2768,
      "velocity": 127,
      "chip": "ym2612"
    },
    {
      "channel": 2,
      "note": 91,
      "start": 20.6067,
      "duration": 0.1253,
      "velocity": 100,
      "chip": "ym2612"
    },
    {
      "channel": 4,
      "note": 98,
      "start": 20.6073,
      "duration": 0.1254,
      "velocity": 107,
      "chip": "ym2612"
    },
    {
      "channel": 2,
      "note": 98,
      "start": 20.7322,
      "duration": 0.1513,
      "velocity": 100,
      "chip": "ym2612"
    },
    {
      "channel": 4,
      "note": 98,
      "start": 20.7328,
      "duration": 0.1528,
      "velocity": 107,
      "chip": "ym2612"
    },
    {
      "channel": 1,
      "note": 85,
      "start": 20.7332,
      "duration": 0.0142,
      "velocity": 103,
      "chip": "ym2612"
    },
    {
      "channel": 1,
      "note": 84,
      "start": 20.7474,
      "duration": 0.0157,
      "velocity": 103,
      "chip": "ym2612"
    },
    {
      "channel": 1,
      "note": 82,
      "start": 20.7631,
      "duration": 0.0193,
      "velocity": 103,
      "chip": "ym2612"
    },
    {
      "channel": 1,
      "note": 81,
      "start": 20.7824,
      "duration": 0.04,
      "velocity": 103,
      "chip": "ym2612"
    },
    {
      "channel": 1,
      "note": 80,
      "start": 20.8224,
      "duration": 0.02,
      "velocity": 103,
      "chip": "ym2612"
    },
    {
      "channel": 1,
      "note": 79,
      "start": 20.8424,
      "duration": 0.02,
      "velocity": 103,
      "chip": "ym2612"
    },
    {
      "channel": 1,
      "note": 78,
      "start": 20.8624,
      "duration": 0.0241,
      "velocity": 103,
      "chip": "ym2612"
    },
    {
      "channel": 0,
      "note": 53,
      "start": 20.883,
      "duration": 0.2871,
      "velocity": 127,
      "chip": "ym2612"
    },
    {
      "channel": 2,
      "note": 91,
      "start": 20.8836,
      "duration": 0.1266,
      "velocity": 100,
      "chip": "ym2612"
    },
    {
      "channel": 4,
      "note": 98,
      "start": 20.8858,
      "duration": 0.1267,
      "velocity": 107,
      "chip": "ym2612"
    },
    {
      "channel": 1,
      "note": 77,
      "start": 20.8865,
      "duration": 0.0125,
      "velocity": 103,
      "chip": "ym2612"
    },
    {
      "channel": 1,
      "note": 76,
      "start": 20.899,
      "duration": 0.0156,
      "velocity": 103,
      "chip": "ym2612"
    },
    {
      "channel": 1,
      "note": 75,
      "start": 20.9147,
      "duration": 0.0157,
      "velocity": 103,
      "chip": "ym2612"
    },
    {
      "channel": 1,
      "note": 74,
      "start": 20.9304,
      "duration": 0.0183,
      "velocity": 103,
      "chip": "ym2612"
    },
    {
      "channel": 1,
      "note": 73,
      "start": 20.9486,
      "duration": 0.014,
      "velocity": 103,
      "chip": "ym2612"
    },
    {
      "channel": 1,
      "note": 72,
      "start": 20.9626,
      "duration": 0.0158,
      "velocity": 103,
      "chip": "ym2612"
    },
    {
      "channel": 1,
      "note": 70,
      "start": 20.9784,
      "duration": 0.0155,
      "velocity": 103,
      "chip": "ym2612"
    },
    {
      "channel": 1,
      "note": 69,
      "start": 20.9939,
      "duration": 0.0198,
      "velocity": 103,
      "chip": "ym2612"
    },
    {
      "channel": 2,
      "note": 88,
      "start": 21.0104,
      "duration": 0.1603,
      "velocity": 100,
      "chip": "ym2612"
    },
    {
      "channel": 4,
      "note": 98,
      "start": 21.0127,
      "duration": 0.1585,
      "velocity": 107,
      "chip": "ym2612"
    },
    {
      "channel": 5,
      "note": 43,
      "start": 21.0133,
      "duration": 0.2892,
      "velocity": 127,
      "chip": "ym2612"
    },
    {
      "channel": 1,
      "note": 68,
      "start": 21.0137,
      "duration": 0.016,
      "velocity": 103,
      "chip": "ym2612"
    },
    {
      "channel": 3,
      "note": 85,
      "start": 21.014,
      "duration": 0.016,
      "velocity": 103,
      "chip": "ym2612"
    },
    {
      "channel": 1,
      "note": 67,
      "start": 21.0297,
      "duration": 0.02,
      "velocity": 103,
      "chip": "ym2612"
    },
    {
      "channel": 3,
      "note": 84,
      "start": 21.03,
      "duration": 0.02,
      "velocity": 103,
      "chip": "ym2612"
    },
    {
      "channel": 1,
      "note": 66,
      "start": 21.0497,
      "duration": 0.02,
      "velocity": 103,
      "chip": "ym2612"
    },
    {
      "channel": 3,
      "note": 82,
      "start": 21.05,
      "duration": 0.02,
      "velocity": 103,
      "chip": "ym2612"
    },
    {
      "channel": 1,
      "note": 65,
      "start": 21.0697,
      "duration": 0.04,
      "velocity": 103,
      "chip": "ym2612"
    },
    {
      "channel": 3,
      "note": 81,
      "start": 21.07,
      "duration": 0.04,
      "velocity": 103,
      "chip": "ym2612"
    },
    {
      "channel": 1,
      "note": 64,
      "start": 21.1097,
      "duration": 0.02,
      "velocity": 103,
      "chip": "ym2612"
    },
    {
      "channel": 3,
      "note": 80,
      "start": 21.11,
      "duration": 0.02,
      "velocity": 103,
      "chip": "ym2612"
    },
    {
      "channel": 1,
      "note": 63,
      "start": 21.1297,
      "duration": 0.02,
      "velocity": 103,
      "chip": "ym2612"
    },
    {
      "channel": 3,
      "note": 79,
      "start": 21.13,
      "duration": 0.02,
      "velocity": 103,
      "chip": "ym2612"
    },
    {
      "channel": 1,
      "note": 62,
      "start": 21.1497,
      "duration": 0.0225,
      "velocity": 103,
      "chip": "ym2612"
    },
    {
      "channel": 3,
      "note": 78,
      "start": 21.15,
      "duration": 0.0226,
      "velocity": 103,
      "chip": "ym2612"
    },
    {
      "channel": 0,
      "note": 53,
      "start": 21.1702,
      "duration": 0.1268,
      "velocity": 127,
      "chip": "ym2612"
    },
    {
      "channel": 2,
      "note": 91,
      "start": 21.1708,
      "duration": 0.1289,
      "velocity": 100,
      "chip": "ym2612"
    },
    {
      "channel": 4,
      "note": 98,
      "start": 21.1715,
      "duration": 0.1304,
      "velocity": 107,
      "chip": "ym2612"
    },
    {
      "channel": 1,
      "note": 61,
      "start": 21.1722,
      "duration": 0.0139,
      "velocity": 103,
      "chip": "ym2612"
    },
    {
      "channel": 3,
      "note": 77,
      "start": 21.1726,
      "duration": 0.0139,
      "velocity": 103,
      "chip": "ym2612"
    },
    {
      "channel": 1,
      "note": 60,
      "start": 21.1861,
      "duration": 0.0158,
      "velocity": 103,
      "chip": "ym2612"
    },
    {
      "channel": 3,
      "note": 76,
      "start": 21.1865,
      "duration": 0.0158,
      "velocity": 103,
      "chip": "ym2612"
    },
    {
      "channel": 1,
      "note": 58,
      "start": 21.2019,
      "duration": 0.0157,
      "velocity": 103,
      "chip": "ym2612"
    },
    {
      "channel": 3,
      "note": 75,
      "start": 21.2022,
      "duration": 0.0157,
      "velocity": 103,
      "chip": "ym2612"
    },
    {
      "channel": 1,
      "note": 57,
      "start": 21.2176,
      "duration": 0.0318,
      "velocity": 103,
      "chip": "ym2612"
    },
    {
      "channel": 3,
      "note": 74,
      "start": 21.218,
      "duration": 0.0318,
      "velocity": 103,
      "chip": "ym2612"
    },
    {
      "channel": 1,
      "note": 56,
      "start": 21.2494,
      "duration": 0.0157,
      "velocity": 103,
      "chip": "ym2612"
    },
    {
      "channel": 3,
      "note": 73,
      "start": 21.2497,
      "duration": 0.0157,
      "velocity": 103,
      "chip": "ym2612"
    },
    {
      "channel": 1,
      "note": 55,
      "start": 21.2651,
      "duration": 0.0157,
      "velocity": 103,
      "chip": "ym2612"
    },
    {
      "channel": 3,
      "note": 72,
      "start": 21.2654,
      "duration": 0.0157,
      "velocity": 103,
      "chip": "ym2612"
    },
    {
      "channel": 1,
      "note": 54,
      "start": 21.2807,
      "duration": 0.0184,
      "velocity": 102,
      "chip": "ym2612"
    },
    {
      "channel": 3,
      "note": 70,
      "start": 21.2811,
      "duration": 0.022,
      "velocity": 103,
      "chip": "ym2612"
    },
    {
      "channel": 0,
      "note": 58,
      "start": 21.2972,
      "duration": 0.1598,
      "velocity": 127,
      "chip": "ym2612"
    },
    {
      "channel": 1,
      "note": 75,
      "start": 21.2993,
      "duration": 0.0777,
      "velocity": 102,
      "chip": "ym2612"
    },
    {
      "channel": 2,
      "note": 98,
      "start": 21.2999,
      "duration": 0.1582,
      "velocity": 100,
      "chip": "ym2612"
    },
    {
      "channel": 4,
      "note": 98,
      "start": 21.3021,
      "duration": 0.1582,
      "velocity": 107,
      "chip": "ym2612"
    },
    {
      "channel": 5,
      "note": 43,
      "start": 21.3027,
      "duration": 0.075,
      "velocity": 127,
      "chip": "ym2612"
    },
    {
      "channel": 3,
      "note": 69,
      "start": 21.3032,
      "duration": 0.0134,
      "velocity": 103,
      "chip": "ym2612"
    },
    {
      "channel": 3,
      "note": 68,
      "start": 21.3166,
      "duration": 0.02,
      "velocity": 103,
      "chip": "ym2612"
    },
    {
      "channel": 3,
      "note": 67,
      "start": 21.3366,
      "duration": 0.02,
      "velocity": 103,
      "chip": "ym2612"
    },
    {
      "channel": 3,
      "note": 66,
      "start": 21.3566,
      "duration": 0.0218,
      "velocity": 103,
      "chip": "ym2612"
    },
    {
      "channel": 1,
      "note": 76,
      "start": 21.3772,
      "duration": 0.0803,
      "velocity": 102,
      "chip": "ym2612"
    },
    {
      "channel": 5,
      "note": 43,
      "start": 21.3779,
      "duration": 0.0829,
      "velocity": 127,
      "chip": "ym2612"
    },
    {
      "channel": 3,
      "note": 65,
      "start": 21.3784,
      "duration": 0.0182,
      "velocity": 103,
      "chip": "ym2612"
    },
    {
      "channel": 3,
      "note": 64,
      "start": 21.3966,
      "duration": 0.02,
      "velocity": 103,
      "chip": "ym2612"
    },
    {
      "channel": 3,
      "note": 63,
      "start": 21.4166,
      "duration": 0.02,
      "velocity": 103,
      "chip": "ym2612"
    },
    {
      "channel": 3,
      "note": 62,
      "start": 21.4366,
      "duration": 0.0249,
      "velocity": 103,
      "chip": "ym2612"
    },
    {
      "channel": 0,
      "note": 60,
      "start": 21.4571,
      "duration": 0.1599,
      "velocity": 127,
      "chip": "ym2612"
    },
    {
      "channel": 1,
      "note": 77,
      "start": 21.4577,
      "duration": 0.0793,
      "velocity": 102,
      "chip": "ym2612"
    },
    {
      "channel": 2,
      "note": 91,
      "start": 21.4583,
      "duration": 0.1598,
      "velocity": 100,
      "chip": "ym2612"
    },
    {
      "channel": 4,
      "note": 98,
      "start": 21.4604,
      "duration": 0.1584,
      "velocity": 107,
      "chip": "ym2612"
    },
    {
      "channel": 5,
      "note": 43,
      "start": 21.461,
      "duration": 0.1584,
      "velocity": 127,
      "chip": "ym2612"
    },
    {
      "channel": 3,
      "note": 61,
      "start": 21.4615,
      "duration": 0.0151,
      "velocity": 103,
      "chip": "ym2612"
    },
    {
      "channel": 3,
      "note": 60,
      "start": 21.4766,
      "duration": 0.02,
      "velocity": 103,
      "chip": "ym2612"
    },
    {
      "channel": 3,
      "note": 58,
      "start": 21.4966,
      "duration": 0.02,
      "velocity": 103,
      "chip": "ym2612"
    },
    {
      "channel": 3,
      "note": 57,
      "start": 21.5166,
      "duration": 0.0213,
      "velocity": 103,
      "chip": "ym2612"
    },
    {
      "channel": 1,
      "note": 78,
      "start": 21.5372,
      "duration": 0.0804,
      "velocity": 102,
      "chip": "ym2612"
    },
    {
      "channel": 3,
      "note": 56,
      "start": 21.5379,
      "duration": 0.0187,
      "velocity": 103,
      "chip": "ym2612"
    },
    {
      "channel": 3,
      "note": 55,
      "start": 21.5566,
      "duration": 0.02,
      "velocity": 103,
      "chip": "ym2612"
    },
    {
      "channel": 3,
      "note": 54,
      "start": 21.5766,
      "duration": 0.02,
      "velocity": 103,
      "chip": "ym2612"
    },
    {
      "channel": 3,
      "note": 53,
      "start": 21.5966,
      "duration": 0.0234,
      "velocity": 103,
      "chip": "ym2612"
    },
    {
      "channel": 0,
      "note": 58,
      "start": 21.6172,
      "duration": 0.1598,
      "velocity": 127,
      "chip": "ym2612"
    },
    {
      "channel": 1,
      "note": 79,
      "start": 21.6177,
      "duration": 0.0794,
      "velocity": 102,
      "chip": "ym2612"
    },
    {
      "channel": 2,
      "note": 88,
      "start": 21.6183,
      "duration": 0.1598,
      "velocity": 100,
      "chip": "ym2612"
    },
    {
      "channel": 4,
      "note": 98,
      "start": 21.619,
      "duration": 0.1597,
      "velocity": 107,
      "chip": "ym2612"
    },
    {
      "channel": 5,
      "note": 43,
      "start": 21.6195,
      "duration": 0.1597,
      "velocity": 127,
      "chip": "ym2612"
    },
    {
      "channel": 3,
      "note": 52,
      "start": 21.62,
      "duration": 0.0166,
      "velocity": 103,
      "chip": "ym2612"
    },
    {
      "channel": 3,
      "note": 52,
      "start": 21.6366,
      "duration": 0.02,
      "velocity": 103,
      "chip": "ym2612"
    },
    {
      "channel": 3,
      "note": 51,
      "start": 21.6566,
      "duration": 0.02,
      "velocity": 103,
      "chip": "ym2612"
    },
    {
      "channel": 3,
      "note": 50,
      "start": 21.6766,
      "duration": 0.0213,
      "velocity": 103,
      "chip": "ym2612"
    },
    {
      "channel": 1,
      "note": 80,
      "start": 21.6972,
      "duration": 0.0802,
      "velocity": 102,
      "chip": "ym2612"
    },
    {
      "channel": 3,
      "note": 49,
      "start": 21.6979,
      "duration": 0.0187,
      "velocity": 103,
      "chip": "ym2612"
    },
    {
      "channel": 3,
      "note": 49,
      "start": 21.7166,
      "duration": 0.02,
      "velocity": 103,
      "chip": "ym2612"
    },
    {
      "channel": 3,
      "note": 48,
      "start": 21.7366,
      "duration": 0.02,
      "velocity": 103,
      "chip": "ym2612"
    },
    {
      "channel": 3,
      "note": 47,
      "start": 21.7566,
      "duration": 0.0233,
      "velocity": 103,
      "chip": "ym2612"
    },
    {
      "channel": 0,
      "note": 60,
      "start": 21.7771,
      "duration": 0.1615,
      "velocity": 117,
      "chip": "ym2612"
    },
    {
      "channel": 1,
      "note": 81,
      "start": 21.7777,
      "duration": 0.0794,
      "velocity": 102,
      "chip": "ym2612"
    },
    {
      "channel": 2,
      "note": 91,
      "start": 21.7782,
      "duration": 0.1631,
      "velocity": 103,
      "chip": "ym2612"
    },
    {
      "channel": 4,
      "note": 98,
      "start": 21.7788,
      "duration": 0.1652,
      "velocity": 102,
      "chip": "ym2612"
    },
    {
      "channel": 5,
      "note": 43,
      "start": 21.7794,
      "duration": 0.4341,
      "velocity": 127,
      "chip": "ym2612"
    },
    {
      "channel": 3,
      "note": 46,
      "start": 21.7799,
      "duration": 0.0167,
      "velocity": 103,
      "chip": "ym2612"
    },
    {
      "channel": 3,
      "note": 45,
      "start": 21.7966,
      "duration": 0.02,
      "velocity": 103,
      "chip": "ym2612"
    },
    {
      "channel": 3,
      "note": 44,
      "start": 21.8166,
      "duration": 0.02,
      "velocity": 103,
      "chip": "ym2612"
    },
    {
      "channel": 3,
      "note": 43,
      "start": 21.8366,
      "duration": 0.0213,
      "velocity": 103,
      "chip": "ym2612"
    },
    {
      "channel": 1,
      "note": 82,
      "start": 21.8572,
      "duration": 0.082,
      "velocity": 102,
      "chip": "ym2612"
    },
    {
      "channel": 3,
      "note": 43,
      "start": 21.8579,
      "duration": 0.0187,
      "velocity": 103,
      "chip": "ym2612"
    },
    {
      "channel": 3,
      "note": 42,
      "start": 21.8766,
      "duration": 0.02,
      "velocity": 103,
      "chip": "ym2612"
    },
    {
      "channel": 3,
      "note": 41,
      "start": 21.8966,
      "duration": 0.02,
      "velocity": 103,
      "chip": "ym2612"
    },
    {
      "channel": 3,
      "note": 41,
      "start": 21.9166,
      "duration": 0.0254,
      "velocity": 103,
      "chip": "ym2612"
    },
    {
      "channel": 0,
      "note": 55,
      "start": 21.9388,
      "duration": 0.1251,
      "velocity": 117,
      "chip": "ym2612"
    },
    {
      "channel": 1,
      "note": 71,
      "start": 21.9393,
      "duration": 0.6876,
      "velocity": 102,
      "chip": "ym2612"
    },
    {
      "channel": 2,
      "note": 86,
      "start": 21.9415,
      "duration": 2.283,
      "velocity": 103,
      "chip": "ym2612"
    },
    {
      "channel": 3,
      "note": 83,
      "start": 21.9421,
      "duration": 2.283,
      "velocity": 103,
      "chip": "ym2612"
    },
    {
      "channel": 4,
      "note": 83,
      "start": 21.9443,
      "duration": 0.6834,
      "velocity": 102,
      "chip": "ym2612"
    },
    {
      "channel": 0,
      "note": 55,
      "start": 22.064,
      "duration": 0.3091,
      "velocity": 117,
      "chip": "ym2612"
    },
    {
      "channel": 5,
      "note": 43,
      "start": 22.2136,
      "duration": 0.5648,
      "velocity": 127,
      "chip": "ym2612"
    },
    {
      "channel": 0,
      "note": 55,
      "start": 22.3733,
      "duration": 0.126,
      "velocity": 117,
      "chip": "ym2612"
    },
    {
      "channel": 0,
      "note": 60,
      "start": 22.4994,
      "duration": 0.1254,
      "velocity": 117,
      "chip": "ym2612"
    },
    {
      "channel": 0,
      "note": 55,
      "start": 22.625,
      "duration": 0.1516,
      "velocity": 117,
      "chip": "ym2612"
    },
    {
      "channel": 1,
      "note": 72,
      "start": 22.6272,
      "duration": 0.15,
      "velocity": 102,
      "chip": "ym2612"
    },
    {
      "channel": 4,
      "note": 84,
      "start": 22.6279,
      "duration": 0.1499,
      "velocity": 102,
      "chip": "ym2612"
    },
    {
      "channel": 0,
      "note": 60,
      "start": 22.7768,
      "duration": 0.1598,
      "velocity": 117,
      "chip": "ym2612"
    },
    {
      "channel": 1,
      "note": 74,
      "start": 22.7773,
      "duration": 0.1599,
      "velocity": 102,
      "chip": "ym2612"
    },
    {
      "channel": 4,
      "note": 86,
      "start": 22.778,
      "duration": 0.1598,
      "velocity": 102,
      "chip": "ym2612"
    },
    {
      "channel": 5,
      "note": 43,
      "start": 22.7785,
      "duration": 0.562,
      "velocity": 127,
      "chip": "ym2612"
    },
    {
      "channel": 0,
      "note": 62,
      "start": 22.9368,
      "duration": 0.1254,
      "velocity": 117,
      "chip": "ym2612"
    },
    {
      "channel": 1,
      "note": 72,
      "start": 22.9373,
      "duration": 0.402,
      "velocity": 102,
      "chip": "ym2612"
    },
    {
      "channel": 4,
      "note": 84,
      "start": 22.938,
      "duration": 0.402,
      "velocity": 102,
      "chip": "ym2612"
    },
    {
      "channel": 0,
      "note": 55,
      "start": 23.0623,
      "duration": 0.1515,
      "velocity": 117,
      "chip": "ym2612"
    },
    {
      "channel": 0,
      "note": 55,
      "start": 23.214,
      "duration": 0.2853,
      "velocity": 117,
      "chip": "ym2612"
    },
    {
      "channel": 1,
      "note": 71,
      "start": 23.3395,
      "duration": 0.1603,
      "velocity": 102,
      "chip": "ym2612"
    },
    {
      "channel": 4,
      "note": 83,
      "start": 23.3401,
      "duration": 0.1603,
      "velocity": 102,
      "chip": "ym2612"
    },
    {
      "channel": 5,
      "note": 43,
      "start": 23.3407,
      "duration": 0.5634,
      "velocity": 127,
      "chip": "ym2612"
    },
    {
      "channel": 0,
      "note": 55,
      "start": 23.4994,
      "duration": 0.1261,
      "velocity": 117,
      "chip": "ym2612"
    },
    {
      "channel": 1,
      "note": 62,
      "start": 23.5,
      "duration": 0.1262,
      "velocity": 102,
      "chip": "ym2612"
    },
    {
      "channel": 4,
      "note": 74,
      "start": 23.5007,
      "duration": 0.1261,
      "velocity": 102,
      "chip": "ym2612"
    },
    {
      "channel": 0,
      "note": 60,
      "start": 23.6257,
      "duration": 0.1257,
      "velocity": 117,
      "chip": "ym2612"
    },
    {
      "channel": 1,
      "note": 67,
      "start": 23.6263,
      "duration": 0.1258,
      "velocity": 102,
      "chip": "ym2612"
    },
    {
      "channel": 4,
      "note": 79,
      "start": 23.627,
      "duration": 0.1258,
      "velocity": 102,
      "chip": "ym2612"
    },
    {
      "channel": 0,
      "note": 55,
      "start": 23.7517,
      "duration": 0.1517,
      "velocity": 117,
      "chip": "ym2612"
    },
    {
      "channel": 1,
      "note": 69,
      "start": 23.7522,
      "duration": 0.3117,
      "velocity": 102,
      "chip": "ym2612"
    },
    {
      "channel": 4,
      "note": 81,
      "start": 23.7529,
      "duration": 0.3117,
      "velocity": 102,
      "chip": "ym2612"
    },
    {
      "channel": 0,
      "note": 60,
      "start": 23.9035,
      "duration": 0.1599,
      "velocity": 117,
      "chip": "ym2612"
    },
    {
      "channel": 5,
      "note": 43,
      "start": 23.9043,
      "duration": 0.0794,
      "velocity": 127,
      "chip": "ym2612"
    },
    {
      "channel": 5,
      "note": 43,
      "start": 23.9838,
      "duration": 0.0813,
      "velocity": 127,
      "chip": "ym2612"
    },
    {
      "channel": 0,
      "note": 62,
      "start": 24.0636,
      "duration": 0.1599,
      "velocity": 117,
      "chip": "ym2612"
    },
    {
      "channel": 1,
      "note": 67,
      "start": 24.0641,
      "duration": 0.1599,
      "velocity": 102,
      "chip": "ym2612"
    },
    {
      "channel": 4,
      "note": 79,
      "start": 24.0648,
      "duration": 0.1609,
      "velocity": 102,
      "chip": "ym2612"
    },
    {
      "channel": 5,
      "note": 43,
      "start": 24.0654,
      "duration": 0.4351,
      "velocity": 127,
      "chip": "ym2612"
    },
    {
      "channel": 0,
      "note": 60,
      "start": 24.2236,
      "duration": 0.1249,
      "velocity": 117,
      "chip": "ym2612"
    },
    {
      "channel": 1,
      "note": 70,
      "start": 24.2241,
      "duration": 0.6894,
      "velocity": 102,
      "chip": "ym2612"
    },
    {
      "channel": 2,
      "note": 86,
      "start": 24.2247,
      "duration": 1.1246,
      "velocity": 103,
      "chip": "ym2612"
    },
    {
      "channel": 3,
      "note": 82,
      "start": 24.2253,
      "duration": 1.1246,
      "velocity": 103,
      "chip": "ym2612"
    },
    {
      "channel": 4,
      "note": 82,
      "start": 24.2259,
      "duration": 0.6884,
      "velocity": 102,
      "chip": "ym2612"
    },
    {
      "channel": 0,
      "note": 60,
      "start": 24.3488,
      "duration": 0.3115,
      "velocity": 117,
      "chip": "ym2612"
    },
    {
      "channel": 5,
      "note": 43,
      "start": 24.5006,
      "duration": 0.5644,
      "velocity": 127,
      "chip": "ym2612"
    },
    {
      "channel": 0,
      "note": 60,
      "start": 24.6604,
      "duration": 0.1259,
      "velocity": 117,
      "chip": "ym2612"
    },
    {
      "channel": 0,
      "note": 63,
      "start": 24.7864,
      "duration": 0.125,
      "velocity": 117,
      "chip": "ym2612"
    },
    {
      "channel": 0,
      "note": 60,
      "start": 24.9116,
      "duration": 0.1516,
      "velocity": 117,
      "chip": "ym2612"
    },
    {
      "channel": 1,
      "note": 72,
      "start": 24.9137,
      "duration": 0.15,
      "velocity": 102,
      "chip": "ym2612"
    },
    {
      "channel": 4,
      "note": 84,
      "start": 24.9144,
      "duration": 0.15,
      "velocity": 102,
      "chip": "ym2612"
    },
    {
      "channel": 0,
      "note": 63,
      "start": 25.0634,
      "duration": 0.1598,
      "velocity": 117,
      "chip": "ym2612"
    },
    {
      "channel": 1,
      "note": 74,
      "start": 25.0639,
      "duration": 0.1599,
      "velocity": 102,
      "chip": "ym2612"
    },
    {
      "channel": 4,
      "note": 86,
      "start": 25.0646,
      "duration": 0.1599,
      "velocity": 102,
      "chip": "ym2612"
    },
    {
      "channel": 5,
      "note": 43,
      "start": 25.0652,
      "duration": 0.5632,
      "velocity": 127,
      "chip": "ym2612"
    },
    {
      "channel": 0,
      "note": 65,
      "start": 25.2234,
      "duration": 0.1254,
      "velocity": 117,
      "chip": "ym2612"
    },
    {
      "channel": 1,
      "note": 72,
      "start": 25.224,
      "duration": 0.4031,
      "velocity": 102,
      "chip": "ym2612"
    },
    {
      "channel": 4,
      "note": 84,
      "start": 25.2246,
      "duration": 0.4032,
      "velocity": 102,
      "chip": "ym2612"
    },
    {
      "channel": 0,
      "note": 62,
      "start": 25.3489,
      "duration": 0.1515,
      "velocity": 117,
      "chip": "ym2612"
    },
    {
      "channel": 2,
      "note": 84,
      "start": 25.3496,
      "duration": 1.1613,
      "velocity": 103,
      "chip": "ym2612"
    },
    {
      "channel": 3,
      "note": 79,
      "start": 25.3501,
      "duration": 1.1614,
      "velocity": 103,
      "chip": "ym2612"
    },
    {
      "channel": 0,
      "note": 50,
      "start": 25.5007,
      "duration": 0.1258,
      "velocity": 117,
      "chip": "ym2612"
    },
    {
      "channel": 0,
      "note": 60,
      "start": 25.6267,
      "duration": 0.1598,
      "velocity": 117,
      "chip": "ym2612"
    },
    {
      "channel": 1,
      "note": 70,
      "start": 25.6273,
      "duration": 0.1598,
      "velocity": 102,
      "chip": "ym2612"
    },
    {
      "channel": 4,
      "note": 82,
      "start": 25.6279,
      "duration": 0.1598,
      "velocity": 102,
      "chip": "ym2612"
    },
    {
      "channel": 5,
      "note": 43,
      "start": 25.6285,
      "duration": 0.5619,
      "velocity": 127,
      "chip": "ym2612"
    },
    {
      "channel": 0,
      "note": 59,
      "start": 25.7866,
      "duration": 0.1256,
      "velocity": 117,
      "chip": "ym2612"
    },
    {
      "channel": 1,
      "note": 62,
      "start": 25.7872,
      "duration": 0.1256,
      "velocity": 102,
      "chip": "ym2612"
    },
    {
      "channel": 4,
      "note": 74,
      "start": 25.7879,
      "duration": 0.1257,
      "velocity": 102,
      "chip": "ym2612"
    },
    {
      "channel": 0,
      "note": 60,
      "start": 25.9125,
      "duration": 0.1252,
      "velocity": 117,
      "chip": "ym2612"
    },
    {
      "channel": 1,
      "note": 67,
      "start": 25.9131,
      "duration": 0.1251,
      "velocity": 102,
      "chip": "ym2612"
    },
    {
      "channel": 4,
      "note": 79,
      "start": 25.9137,
      "duration": 0.1252,
      "velocity": 102,
      "chip": "ym2612"
    },
    {
      "channel": 0,
      "note": 59,
      "start": 26.0378,
      "duration": 0.1517,
      "velocity": 117,
      "chip": "ym2612"
    },
    {
      "channel": 1,
      "note": 69,
      "start": 26.0384,
      "duration": 0.3118,
      "velocity": 102,
      "chip": "ym2612"
    },
    {
      "channel": 4,
      "note": 81,
      "start": 26.0391,
      "duration": 0.3117,
      "velocity": 102,
      "chip": "ym2612"
    },
    {
      "channel": 0,
      "note": 55,
      "start": 26.1897,
      "duration": 0.1599,
      "velocity": 117,
      "chip": "ym2612"
    },
    {
      "channel": 5,
      "note": 43,
      "start": 26.1905,
      "duration": 0.0794,
      "velocity": 127,
      "chip": "ym2612"
    },
    {
      "channel": 5,
      "note": 43,
      "start": 26.27,
      "duration": 0.0813,
      "velocity": 127,
      "chip": "ym2612"
    },
    {
      "channel": 0,
      "note": 57,
      "start": 26.3498,
      "duration": 0.16,
      "velocity": 117,
      "chip": "ym2612"
    },
    {
      "channel": 1,
      "note": 67,
      "start": 26.3503,
      "duration": 0.1601,
      "velocity": 102,
      "chip": "ym2612"
    },
    {
      "channel": 4,
      "note": 79,
      "start": 26.351,
      "duration": 0.1612,
      "velocity": 102,
      "chip": "ym2612"
    },
    {
      "channel": 5,
      "note": 43,
      "start": 26.3515,
      "duration": 0.4354,
      "velocity": 127,
      "chip": "ym2612"
    },
    {
      "channel": 0,
      "note": 55,
      "start": 26.5099,
      "duration": 0.126,
      "velocity": 117,
      "chip": "ym2612"
    },
    {
      "channel": 1,
      "note": 71,
      "start": 26.5105,
      "duration": 0.4367,
      "velocity": 102,
      "chip": "ym2612"
    },
    {
      "channel": 2,
      "note": 86,
      "start": 26.5111,
      "duration": 1.1254,
      "velocity": 103,
      "chip": "ym2612"
    },
    {
      "channel": 3,
      "note": 83,
      "start": 26.5117,
      "duration": 1.1254,
      "velocity": 103,
      "chip": "ym2612"
    },
    {
      "channel": 4,
      "note": 83,
      "start": 26.5123,
      "duration": 0.4355,
      "velocity": 102,
      "chip": "ym2612"
    },
    {
      "channel": 0,
      "note": 55,
      "start": 26.6361,
      "duration": 0.3105,
      "velocity": 117,
      "chip": "ym2612"
    },
    {
      "channel": 5,
      "note": 43,
      "start": 26.787,
      "duration": 0.5639,
      "velocity": 127,
      "chip": "ym2612"
    },
    {
      "channel": 0,
      "note": 55,
      "start": 26.9468,
      "duration": 0.1261,
      "velocity": 117,
      "chip": "ym2612"
    },
    {
      "channel": 1,
      "note": 71,
      "start": 26.9473,
      "duration": 0.1261,
      "velocity": 102,
      "chip": "ym2612"
    },
    {
      "channel": 4,
      "note": 83,
      "start": 26.948,
      "duration": 0.1261,
      "velocity": 102,
      "chip": "ym2612"
    },
    {
      "channel": 0,
      "note": 60,
      "start": 27.073,
      "duration": 0.1254,
      "velocity": 117,
      "chip": "ym2612"
    },
    {
      "channel": 1,
      "note": 72,
      "start": 27.0736,
      "duration": 0.1253,
      "velocity": 102,
      "chip": "ym2612"
    },
    {
      "channel": 4,
      "note": 84,
      "start": 27.0742,
      "duration": 0.1254,
      "velocity": 102,
      "chip": "ym2612"
    },
    {
      "channel": 0,
      "note": 55,
      "start": 27.1985,
      "duration": 0.1515,
      "velocity": 117,
      "chip": "ym2612"
    },
    {
      "channel": 1,
      "note": 74,
      "start": 27.1991,
      "duration": 0.3116,
      "velocity": 102,
      "chip": "ym2612"
    },
    {
      "channel": 4,
      "note": 86,
      "start": 27.1998,
      "duration": 0.3116,
      "velocity": 102,
      "chip": "ym2612"
    },
    {
      "channel": 0,
      "note": 60,
      "start": 27.3503,
      "duration": 0.1599,
      "velocity": 117,
      "chip": "ym2612"
    },
    {
      "channel": 5,
      "note": 43,
      "start": 27.351,
      "duration": 0.565,
      "velocity": 127,
      "chip": "ym2612"
    },
    {
      "channel": 0,
      "note": 62,
      "start": 27.5103,
      "duration": 0.1256,
      "velocity": 117,
      "chip": "ym2612"
    },
    {
      "channel": 1,
      "note": 75,
      "start": 27.5108,
      "duration": 0.0624,
      "velocity": 102,
      "chip": "ym2612"
    },
    {
      "channel": 4,
      "note": 87,
      "start": 27.5115,
      "duration": 0.0624,
      "velocity": 102,
      "chip": "ym2612"
    },
    {
      "channel": 1,
      "note": 76,
      "start": 27.5734,
      "duration": 0.3414,
      "velocity": 102,
      "chip": "ym2612"
    },
    {
      "channel": 4,
      "note": 88,
      "start": 27.5741,
      "duration": 0.3413,
      "velocity": 102,
      "chip": "ym2612"
    },
    {
      "channel": 0,
      "note": 59,
      "start": 27.636,
      "duration": 0.151,
      "velocity": 117,
      "chip": "ym2612"
    },
    {
      "channel": 2,
      "note": 88,
      "start": 27.6367,
      "duration": 1.1607,
      "velocity": 103,
      "chip": "ym2612"
    },
    {
      "channel": 3,
      "note": 83,
      "start": 27.6374,
      "duration": 1.1606,
      "velocity": 103,
      "chip": "ym2612"
    },
    {
      "channel": 0,
      "note": 52,
      "start": 27.7871,
      "duration": 0.2859,
      "velocity": 117,
      "chip": "ym2612"
    },
    {
      "channel": 1,
      "note": 64,
      "start": 27.9149,
      "duration": 0.4097,
      "velocity": 102,
      "chip": "ym2612"
    },
    {
      "channel": 4,
      "note": 76,
      "start": 27.9156,
      "duration": 0.4097,
      "velocity": 102,
      "chip": "ym2612"
    },
    {
      "channel": 5,
      "note": 43,
      "start": 27.9162,
      "duration": 0.5619,
      "velocity": 127,
      "chip": "ym2612"
    },
    {
      "channel": 0,
      "note": 50,
      "start": 28.0732,
      "duration": 0.1256,
      "velocity": 117,
      "chip": "ym2612"
    },
    {
      "channel": 0,
      "note": 52,
      "start": 28.199,
      "duration": 0.125,
      "velocity": 117,
      "chip": "ym2612"
    },
    {
      "channel": 0,
      "note": 59,
      "start": 28.3242,
      "duration": 0.152,
      "velocity": 117,
      "chip": "ym2612"
    },
    {
      "channel": 1,
      "note": 71,
      "start": 28.3248,
      "duration": 0.152,
      "velocity": 102,
      "chip": "ym2612"
    },
    {
      "channel": 4,
      "note": 83,
      "start": 28.3255,
      "duration": 0.152,
      "velocity": 102,
      "chip": "ym2612"
    },
    {
      "channel": 0,
      "note": 50,
      "start": 28.4764,
      "duration": 0.1598,
      "velocity": 117,
      "chip": "ym2612"
    },
    {
      "channel": 1,
      "note": 74,
      "start": 28.477,
      "duration": 0.1598,
      "velocity": 102,
      "chip": "ym2612"
    },
    {
      "channel": 4,
      "note": 86,
      "start": 28.4776,
      "duration": 0.1598,
      "velocity": 102,
      "chip": "ym2612"
    },
    {
      "channel": 5,
      "note": 43,
      "start": 28.4782,
      "duration": 0.0783,
      "velocity": 127,
      "chip": "ym2612"
    },
    {
      "channel": 5,
      "note": 43,
      "start": 28.5568,
      "duration": 0.0813,
      "velocity": 127,
      "chip": "ym2612"
    },
    {
      "channel": 0,
      "note": 52,
      "start": 28.6364,
      "duration": 0.1599,
      "velocity": 117,
      "chip": "ym2612"
    },
    {
      "channel": 1,
      "note": 76,
      "start": 28.6369,
      "duration": 0.1599,
      "velocity": 102,
      "chip": "ym2612"
    },
    {
      "channel": 4,
      "note": 88,
      "start": 28.6376,
      "duration": 0.1609,
      "velocity": 102,
      "chip": "ym2612"
    },
    {
      "channel": 5,
      "note": 43,
      "start": 28.6382,
      "duration": 0.436,
      "velocity": 127,
      "chip": "ym2612"
    },
    {
      "channel": 0,
      "note": 48,
      "start": 28.7965,
      "duration": 0.1252,
      "velocity": 117,
      "chip": "ym2612"
    },
    {
      "channel": 1,
      "note": 82,
      "start": 28.797,
      "duration": 0.1252,
      "velocity": 102,
      "chip": "ym2612"
    },
    {
      "channel": 2,
      "note": 87,
      "start": 28.7976,
      "duration": 1.1257,
      "velocity": 103,
      "chip": "ym2612"
    },
    {
      "channel": 3,
      "note": 82,
      "start": 28.7982,
      "duration": 1.1257,
      "velocity": 103,
      "chip": "ym2612"
    },
    {
      "channel": 4,
      "note": 94,
      "start": 28.7987,
      "duration": 0.1242,
      "velocity": 102,
      "chip": "ym2612"
    },
    {
      "channel": 0,
      "note": 48,
      "start": 28.9219,
      "duration": 0.3111,
      "velocity": 117,
      "chip": "ym2612"
    },
    {
      "channel": 1,
      "note": 81,
      "start": 28.9224,
      "duration": 0.1506,
      "velocity": 102,
      "chip": "ym2612"
    },
    {
      "channel": 4,
      "note": 93,
      "start": 28.9231,
      "duration": 0.1506,
      "velocity": 102,
      "chip": "ym2612"
    },
    {
      "channel": 1,
      "note": 79,
      "start": 29.0731,
      "duration": 0.1604,
      "velocity": 102,
      "chip": "ym2612"
    },
    {
      "channel": 4,
      "note": 91,
      "start": 29.0738,
      "duration": 0.1603,
      "velocity": 102,
      "chip": "ym2612"
    },
    {
      "channel": 5,
      "note": 43,
      "start": 29.0744,
      "duration": 0.5643,
      "velocity": 127,
      "chip": "ym2612"
    },
    {
      "channel": 0,
      "note": 60,
      "start": 29.2331,
      "duration": 0.1259,
      "velocity": 117,
      "chip": "ym2612"
    },
    {
      "channel": 1,
      "note": 75,
      "start": 29.2337,
      "duration": 0.2517,
      "velocity": 102,
      "chip": "ym2612"
    },
    {
      "channel": 4,
      "note": 87,
      "start": 29.2344,
      "duration": 0.2517,
      "velocity": 102,
      "chip": "ym2612"
    },
    {
      "channel": 0,
      "note": 51,
      "start": 29.3592,
      "duration": 0.1256,
      "velocity": 117,
      "chip": "ym2612"
    },
    {
      "channel": 0,
      "note": 48,
      "start": 29.485,
      "duration": 0.1519,
      "velocity": 117,
      "chip": "ym2612"
    },
    {
      "channel": 1,
      "note": 70,
      "start": 29.4855,
      "duration": 0.1519,
      "velocity": 102,
      "chip": "ym2612"
    },
    {
      "channel": 4,
      "note": 82,
      "start": 29.4862,
      "duration": 0.1519,
      "velocity": 102,
      "chip": "ym2612"
    },
    {
      "channel": 0,
      "note": 51,
      "start": 29.6371,
      "duration": 0.1598,
      "velocity": 117,
      "chip": "ym2612"
    },
    {
      "channel": 1,
      "note": 72,
      "start": 29.6377,
      "duration": 0.1598,
      "velocity": 102,
      "chip": "ym2612"
    },
    {
      "channel": 4,
      "note": 84,
      "start": 29.6383,
      "duration": 0.1599,
      "velocity": 102,
      "chip": "ym2612"
    },
    {
      "channel": 5,
      "note": 43,
      "start": 29.6389,
      "duration": 0.5644,
      "velocity": 127,
      "chip": "ym2612"
    },
    {
      "channel": 0,
      "note": 53,
      "start": 29.7971,
      "duration": 0.1257,
      "velocity": 117,
      "chip": "ym2612"
    },
    {
      "channel": 1,
      "note": 74,
      "start": 29.7977,
      "duration": 1.331,
      "velocity": 102,
      "chip": "ym2612"
    },
    {
      "channel": 4,
      "note": 86,
      "start": 29.7983,
      "duration": 1.3322,
      "velocity": 102,
      "chip": "ym2612"
    },
    {
      "channel": 0,
      "note": 50,
      "start": 29.9229,
      "duration": 0.1514,
      "velocity": 117,
      "chip": "ym2612"
    },
    {
      "channel": 2,
      "note": 79,
      "start": 29.9235,
      "duration": 0.1514,
      "velocity": 103,
      "chip": "ym2612"
    },
    {
      "channel": 3,
      "note": 86,
      "start": 29.9241,
      "duration": 0.1513,
      "velocity": 103,
      "chip": "ym2612"
    },
    {
      "channel": 0,
      "note": 62,
      "start": 30.0744,
      "duration": 0.2859,
      "velocity": 117,
      "chip": "ym2612"
    },
    {
      "channel": 2,
      "note": 74,
      "start": 30.075,
      "duration": 0.127,
      "velocity": 103,
      "chip": "ym2612"
    },
    {
      "channel": 3,
      "note": 81,
      "start": 30.0756,
      "duration": 0.127,
      "velocity": 103,
      "chip": "ym2612"
    },
    {
      "channel": 2,
      "note": 81,
      "start": 30.2023,
      "duration": 0.1587,
      "velocity": 103,
      "chip": "ym2612"
    },
    {
      "channel": 3,
      "note": 86,
      "start": 30.2028,
      "duration": 0.1587,
      "velocity": 103,
      "chip": "ym2612"
    },
    {
      "channel": 5,
      "note": 43,
      "start": 30.2034,
      "duration": 0.2838,
      "velocity": 127,
      "chip": "ym2612"
    },
    {
      "channel": 0,
      "note": 50,
      "start": 30.3605,
      "duration": 0.1258,
      "velocity": 117,
      "chip": "ym2612"
    },
    {
      "channel": 2,
      "note": 78,
      "start": 30.3611,
      "duration": 0.2859,
      "velocity": 103,
      "chip": "ym2612"
    },
    {
      "channel": 3,
      "note": 81,
      "start": 30.3617,
      "duration": 0.2858,
      "velocity": 103,
      "chip": "ym2612"
    },
    {
      "channel": 0,
      "note": 55,
      "start": 30.4865,
      "duration": 0.1599,
      "velocity": 117,
      "chip": "ym2612"
    },
    {
      "channel": 5,
      "note": 43,
      "start": 30.4874,
      "duration": 0.0792,
      "velocity": 127,
      "chip": "ym2612"
    },
    {
      "channel": 5,
      "note": 43,
      "start": 30.5668,
      "duration": 0.0813,
      "velocity": 127,
      "chip": "ym2612"
    },
    {
      "channel": 0,
      "note": 50,
      "start": 30.6465,
      "duration": 0.1598,
      "velocity": 117,
      "chip": "ym2612"
    },
    {
      "channel": 2,
      "note": 76,
      "start": 30.6471,
      "duration": 0.1599,
      "velocity": 103,
      "chip": "ym2612"
    },
    {
      "channel": 3,
      "note": 81,
      "start": 30.6477,
      "duration": 0.1599,
      "velocity": 103,
      "chip": "ym2612"
    },
    {
      "channel": 5,
      "note": 43,
      "start": 30.6483,
      "duration": 0.1599,
      "velocity": 127,
      "chip": "ym2612"
    },
    {
      "channel": 0,
      "note": 55,
      "start": 30.8065,
      "duration": 0.1598,
      "velocity": 117,
      "chip": "ym2612"
    },
    {
      "channel": 2,
      "note": 74,
      "start": 30.8072,
      "duration": 0.3221,
      "velocity": 103,
      "chip": "ym2612"
    },
    {
      "channel": 3,
      "note": 78,
      "start": 30.8077,
      "duration": 0.3222,
      "velocity": 103,
      "chip": "ym2612"
    },
    {
      "channel": 5,
      "note": 43,
      "start": 30.8083,
      "duration": 0.1588,
      "velocity": 127,
      "chip": "ym2612"
    },
    {
      "channel": 0,
      "note": 57,
      "start": 30.9665,
      "duration": 0.16,
      "velocity": 117,
      "chip": "ym2612"
    },
    {
      "channel": 5,
      "note": 43,
      "start": 30.9673,
      "duration": 0.4366,
      "velocity": 127,
      "chip": "ym2612"
    },
    {
      "channel": 0,
      "note": 55,
      "start": 31.1267,
      "duration": 0.1265,
      "velocity": 117,
      "chip": "ym2612"
    },
    {
      "channel": 1,
      "note": 71,
      "start": 31.1288,
      "duration": 0.6885,
      "velocity": 102,
      "chip": "ym2612"
    },
    {
      "channel": 2,
      "note": 86,
      "start": 31.1294,
      "duration": 2.2855,
      "velocity": 103,
      "chip": "ym2612"
    },
    {
      "channel": 3,
      "note": 83,
      "start": 31.13,
      "duration": 2.2854,
      "velocity": 103,
      "chip": "ym2612"
    },
    {
      "channel": 4,
      "note": 83,
      "start": 31.1307,
      "duration": 0.6874,
      "velocity": 102,
      "chip": "ym2612"
    },
    {
      "channel": 0,
      "note": 55,
      "start": 31.2533,
      "duration": 0.3102,
      "velocity": 117,
      "chip": "ym2612"
    },
    {
      "channel": 5,
      "note": 43,
      "start": 31.404,
      "duration": 0.5648,
      "velocity": 127,
      "chip": "ym2612"
    },
    {
      "channel": 0,
      "note": 55,
      "start": 31.5637,
      "duration": 0.126,
      "velocity": 117,
      "chip": "ym2612"
    },
    {
      "channel": 0,
      "note": 60,
      "start": 31.6898,
      "duration": 0.1254,
      "velocity": 117,
      "chip": "ym2612"
    },
    {
      "channel": 0,
      "note": 55,
      "start": 31.8154,
      "duration": 0.1516,
      "velocity": 117,
      "chip": "ym2612"
    },
    {
      "channel": 1,
      "note": 72,
      "start": 31.8176,
      "duration": 0.15,
      "velocity": 102,
      "chip": "ym2612"
    },
    {
      "channel": 4,
      "note": 84,
      "start": 31.8183,
      "duration": 0.1499,
      "velocity": 102,
      "chip": "ym2612"
    },
    {
      "channel": 0,
      "note": 60,
      "start": 31.9671,
      "duration": 0.1598,
      "velocity": 117,
      "chip": "ym2612"
    },
    {
      "channel": 1,
      "note": 74,
      "start": 31.9677,
      "duration": 0.1599,
      "velocity": 102,
      "chip": "ym2612"
    },
    {
      "channel": 4,
      "note": 86,
      "start": 31.9684,
      "duration": 0.1598,
      "velocity": 102,
      "chip": "ym2612"
    },
    {
      "channel": 5,
      "note": 43,
      "start": 31.9689,
      "duration": 0.562,
      "velocity": 127,
      "chip": "ym2612"
    },
    {
      "channel": 0,
      "note": 62,
      "start": 32.1271,
      "duration": 0.1254,
      "velocity": 117,
      "chip": "ym2612"
    },
    {
      "channel": 1,
      "note": 72,
      "start": 32.1277,
      "duration": 0.402,
      "velocity": 102,
      "chip": "ym2612"
    },
    {
      "channel": 4,
      "note": 84,
      "start": 32.1284,
      "duration": 0.402,
      "velocity": 102,
      "chip": "ym2612"
    },
    {
      "channel": 0,
      "note": 55,
      "start": 32.2527,
      "duration": 0.1515,
      "velocity": 117,
      "chip": "ym2612"
    },
    {
      "channel": 0,
      "note": 55,
      "start": 32.4044,
      "duration": 0.2853,
      "velocity": 117,
      "chip": "ym2612"
    },
    {
      "channel": 1,
      "note": 71,
      "start": 32.5299,
      "duration": 0.1603,
      "velocity": 102,
      "chip": "ym2612"
    },
    {
      "channel": 4,
      "note": 83,
      "start": 32.5305,
      "duration": 0.1603,
      "velocity": 102,
      "chip": "ym2612"
    },
    {
      "channel": 5,
      "note": 43,
      "start": 32.5311,
      "duration": 0.5634,
      "velocity": 127,
      "chip": "ym2612"
    },
    {
      "channel": 0,
      "note": 55,
      "start": 32.6898,
      "duration": 0.1261,
      "velocity": 117,
      "chip": "ym2612"
    },
    {
      "channel": 1,
      "note": 62,
      "start": 32.6903,
      "duration": 0.1262,
      "velocity": 102,
      "chip": "ym2612"
    },
    {
      "channel": 4,
      "note": 74,
      "start": 32.691,
      "duration": 0.1261,
      "velocity": 102,
      "chip": "ym2612"
    },
    {
      "channel": 0,
      "note": 60,
      "start": 32.8161,
      "duration": 0.1257,
      "velocity": 117,
      "chip": "ym2612"
    },
    {
      "channel": 1,
      "note": 67,
      "start": 32.8166,
      "duration": 0.1258,
      "velocity": 102,
      "chip": "ym2612"
    },
    {
      "channel": 4,
      "note": 79,
      "start": 32.8173,
      "duration": 0.1258,
      "velocity": 102,
      "chip": "ym2612"
    },
    {
      "channel": 0,
      "note": 55,
      "start": 32.942,
      "duration": 0.1517,
      "velocity": 117,
      "chip": "ym2612"
    },
    {
      "channel": 1,
      "note": 69,
      "start": 32.9426,
      "duration": 0.3117,
      "velocity": 102,
      "chip": "ym2612"
    },
    {
      "channel": 4,
      "note": 81,
      "start": 32.9433,
      "duration": 0.3117,
      "velocity": 102,
      "chip": "ym2612"
    },
    {
      "channel": 0,
      "note": 60,
      "start": 33.0939,
      "duration": 0.1599,
      "velocity": 117,
      "chip": "ym2612"
    },
    {
      "channel": 5,
      "note": 43,
      "start": 33.0946,
      "duration": 0.0794,
      "velocity": 127,
      "chip": "ym2612"
    },
    {
      "channel": 5,
      "note": 43,
      "start": 33.1742,
      "duration": 0.0813,
      "velocity": 127,
      "chip": "ym2612"
    },
    {
      "channel": 0,
      "note": 62,
      "start": 33.2539,
      "duration": 0.1599,
      "velocity": 117,
      "chip": "ym2612"
    },
    {
      "channel": 1,
      "note": 67,
      "start": 33.2545,
      "duration": 0.1599,
      "velocity": 102,
      "chip": "ym2612"
    },
    {
      "channel": 4,
      "note": 79,
      "start": 33.2552,
      "duration": 0.1609,
      "velocity": 102,
      "chip": "ym2612"
    },
    {
      "channel": 5,
      "note": 43,
      "start": 33.2557,
      "duration": 0.4351,
      "velocity": 127,
      "chip": "ym2612"
    },
    {
      "channel": 0,
      "note": 60,
      "start": 33.414,
      "duration": 0.1249,
      "velocity": 117,
      "chip": "ym2612"
    },
    {
      "channel": 1,
      "note": 70,
      "start": 33.4145,
      "duration": 0.6894,
      "velocity": 102,
      "chip": "ym2612"
    },
    {
      "channel": 2,
      "note": 86,
      "start": 33.4151,
      "duration": 1.1246,
      "velocity": 103,
      "chip": "ym2612"
    },
    {
      "channel": 3,
      "note": 82,
      "start": 33.4157,
      "duration": 1.1246,
      "velocity": 103,
      "chip": "ym2612"
    },
    {
      "channel": 4,
      "note": 82,
      "start": 33.4163,
      "duration": 0.6884,
      "velocity": 102,
      "chip": "ym2612"
    },
    {
      "channel": 0,
      "note": 60,
      "start": 33.5391,
      "duration": 0.3115,
      "velocity": 117,
      "chip": "ym2612"
    },
    {
      "channel": 5,
      "note": 43,
      "start": 33.691,
      "duration": 0.5644,
      "velocity": 127,
      "chip": "ym2612"
    },
    {
      "channel": 0,
      "note": 60,
      "start": 33.8507,
      "duration": 0.1259,
      "velocity": 117,
      "chip": "ym2612"
    },
    {
      "channel": 0,
      "note": 63,
      "start": 33.9768,
      "duration": 0.125,
      "velocity": 117,
      "chip": "ym2612"
    },
    {
      "channel": 0,
      "note": 60,
      "start": 34.102,
      "duration": 0.1516,
      "velocity": 117,
      "chip": "ym2612"
    },
    {
      "channel": 1,
      "note": 72,
      "start": 34.1041,
      "duration": 0.15,
      "velocity": 102,
      "chip": "ym2612"
    },
    {
      "channel": 4,
      "note": 84,
      "start": 34.1048,
      "duration": 0.15,
      "velocity": 102,
      "chip": "ym2612"
    },
    {
      "channel": 0,
      "note": 63,
      "start": 34.2538,
      "duration": 0.1598,
      "velocity": 117,
      "chip": "ym2612"
    },
    {
      "channel": 1,
      "note": 74,
      "start": 34.2543,
      "duration": 0.1599,
      "velocity": 102,
      "chip": "ym2612"
    },
    {
      "channel": 4,
      "note": 86,
      "start": 34.255,
      "duration": 0.1599,
      "velocity": 102,
      "chip": "ym2612"
    },
    {
      "channel": 5,
      "note": 43,
      "start": 34.2556,
      "duration": 0.5632,
      "velocity": 127,
      "chip": "ym2612"
    },
    {
      "channel": 0,
      "note": 65,
      "start": 34.4138,
      "duration": 0.1254,
      "velocity": 117,
      "chip": "ym2612"
    },
    {
      "channel": 1,
      "note": 72,
      "start": 34.4144,
      "duration": 0.4031,
      "velocity": 102,
      "chip": "ym2612"
    },
    {
      "channel": 4,
      "note": 84,
      "start": 34.415,
      "duration": 0.4032,
      "velocity": 102,
      "chip": "ym2612"
    },
    {
      "channel": 0,
      "note": 62,
      "start": 34.5393,
      "duration": 0.1515,
      "velocity": 117,
      "chip": "ym2612"
    },
    {
      "channel": 2,
      "note": 84,
      "start": 34.54,
      "duration": 1.1613,
      "velocity": 103,
      "chip": "ym2612"
    },
    {
      "channel": 3,
      "note": 79,
      "start": 34.5405,
      "duration": 1.1614,
      "velocity": 103,
      "chip": "ym2612"
    },
    {
      "channel": 0,
      "note": 50,
      "start": 34.6911,
      "duration": 0.1258,
      "velocity": 117,
      "chip": "ym2612"
    },
    {
      "channel": 0,
      "note": 60,
      "start": 34.8171,
      "duration": 0.1598,
      "velocity": 117,
      "chip": "ym2612"
    },
    {
      "channel": 1,
      "note": 70,
      "start": 34.8177,
      "duration": 0.1598,
      "velocity": 102,
      "chip": "ym2612"
    },
    {
      "channel": 4,
      "note": 82,
      "start": 34.8183,
      "duration": 0.1598,
      "velocity": 102,
      "chip": "ym2612"
    },
    {
      "channel": 5,
      "note": 43,
      "start": 34.8189,
      "duration": 0.5619,
      "velocity": 127,
      "chip": "ym2612"
    },
    {
      "channel": 0,
      "note": 59,
      "start": 34.977,
      "duration": 0.1256,
      "velocity": 117,
      "chip": "ym2612"
    },
    {
      "channel": 1,
      "note": 62,
      "start": 34.9776,
      "duration": 0.1256,
      "velocity": 102,
      "chip": "ym2612"
    },
    {
      "channel": 4,
      "note": 74,
      "start": 34.9783,
      "duration": 0.1257,
      "velocity": 102,
      "chip": "ym2612"
    },
    {
      "channel": 0,
      "note": 60,
      "start": 35.1029,
      "duration": 0.1252,
      "velocity": 117,
      "chip": "ym2612"
    },
    {
      "channel": 1,
      "note": 67,
      "start": 35.1034,
      "duration": 0.1251,
      "velocity": 102,
      "chip": "ym2612"
    },
    {
      "channel": 4,
      "note": 79,
      "start": 35.1041,
      "duration": 0.1252,
      "velocity": 102,
      "chip": "ym2612"
    },
    {
      "channel": 0,
      "note": 59,
      "start": 35.2282,
      "duration": 0.1517,
      "velocity": 117,
      "chip": "ym2612"
    },
    {
      "channel": 1,
      "note": 69,
      "start": 35.2288,
      "duration": 0.3118,
      "velocity": 102,
      "chip": "ym2612"
    },
    {
      "channel": 4,
      "note": 81,
      "start": 35.2295,
      "duration": 0.3117,
      "velocity": 102,
      "chip": "ym2612"
    },
    {
      "channel": 0,
      "note": 55,
      "start": 35.3801,
      "duration": 0.1599,
      "velocity": 117,
      "chip": "ym2612"
    },
    {
      "channel": 5,
      "note": 43,
      "start": 35.3808,
      "duration": 0.0794,
      "velocity": 127,
      "chip": "ym2612"
    },
    {
      "channel": 5,
      "note": 43,
      "start": 35.4604,
      "duration": 0.0813,
      "velocity": 127,
      "chip": "ym2612"
    },
    {
      "channel": 0,
      "note": 57,
      "start": 35.5401,
      "duration": 0.16,
      "velocity": 117,
      "chip": "ym2612"
    },
    {
      "channel": 1,
      "note": 67,
      "start": 35.5407,
      "duration": 0.1601,
      "velocity": 102,
      "chip": "ym2612"
    },
    {
      "channel": 4,
      "note": 79,
      "start": 35.5414,
      "duration": 0.1612,
      "velocity": 102,
      "chip": "ym2612"
    },
    {
      "channel": 5,
      "note": 43,
      "start": 35.5419,
      "duration": 0.4354,
      "velocity": 127,
      "chip": "ym2612"
    },
    {
      "channel": 0,
      "note": 55,
      "start": 35.7003,
      "duration": 0.126,
      "velocity": 117,
      "chip": "ym2612"
    },
    {
      "channel": 1,
      "note": 71,
      "start": 35.7008,
      "duration": 0.4367,
      "velocity": 102,
      "chip": "ym2612"
    },
    {
      "channel": 2,
      "note": 86,
      "start": 35.7015,
      "duration": 1.1254,
      "velocity": 103,
      "chip": "ym2612"
    },
    {
      "channel": 3,
      "note": 83,
      "start": 35.7021,
      "duration": 1.1254,
      "velocity": 103,
      "chip": "ym2612"
    },
    {
      "channel": 4,
      "note": 83,
      "start": 35.7027,
      "duration": 0.4355,
      "velocity": 102,
      "chip": "ym2612"
    },
    {
      "channel": 0,
      "note": 55,
      "start": 35.8265,
      "duration": 0.3105,
      "velocity": 117,
      "chip": "ym2612"
    },
    {
      "channel": 5,
      "note": 43,
      "start": 35.9774,
      "duration": 0.5639,
      "velocity": 127,
      "chip": "ym2612"
    },
    {
      "channel": 0,
      "note": 55,
      "start": 36.1371,
      "duration": 0.1261,
      "velocity": 117,
      "chip": "ym2612"
    },
    {
      "channel": 1,
      "note": 71,
      "start": 36.1377,
      "duration": 0.1261,
      "velocity": 102,
      "chip": "ym2612"
    },
    {
      "channel": 4,
      "note": 83,
      "start": 36.1384,
      "duration": 0.1261,
      "velocity": 102,
      "chip": "ym2612"
    },
    {
      "channel": 0,
      "note": 60,
      "start": 36.2634,
      "duration": 0.1254,
      "velocity": 117,
      "chip": "ym2612"
    },
    {
      "channel": 1,
      "note": 72,
      "start": 36.264,
      "duration": 0.1253,
      "velocity": 102,
      "chip": "ym2612"
    },
    {
      "channel": 4,
      "note": 84,
      "start": 36.2646,
      "duration": 0.1254,
      "velocity": 102,
      "chip": "ym2612"
    },
    {
      "channel": 0,
      "note": 55,
      "start": 36.3889,
      "duration": 0.1515,
      "velocity": 117,
      "chip": "ym2612"
    },
    {
      "channel": 1,
      "note": 74,
      "start": 36.3895,
      "duration": 0.3116,
      "velocity": 102,
      "chip": "ym2612"
    },
    {
      "channel": 4,
      "note": 86,
      "start": 36.3902,
      "duration": 0.3116,
      "velocity": 102,
      "chip": "ym2612"
    },
    {
      "channel": 0,
      "note": 60,
      "start": 36.5407,
      "duration": 0.1599,
      "velocity": 117,
      "chip": "ym2612"
    },
    {
      "channel": 5,
      "note": 43,
      "start": 36.5414,
      "duration": 0.565,
      "velocity": 127,
      "chip": "ym2612"
    },
    {
      "channel": 0,
      "note": 62,
      "start": 36.7007,
      "duration": 0.1256,
      "velocity": 117,
      "chip": "ym2612"
    },
    {
      "channel": 1,
      "note": 75,
      "start": 36.7012,
      "duration": 0.0624,
      "velocity": 102,
      "chip": "ym2612"
    },
    {
      "channel": 4,
      "note": 87,
      "start": 36.7019,
      "duration": 0.0624,
      "velocity": 102,
      "chip": "ym2612"
    },
    {
      "channel": 1,
      "note": 76,
      "start": 36.7638,
      "duration": 0.3414,
      "velocity": 102,
      "chip": "ym2612"
    },
    {
      "channel": 4,
      "note": 88,
      "start": 36.7645,
      "duration": 0.3413,
      "velocity": 102,
      "chip": "ym2612"
    },
    {
      "channel": 0,
      "note": 59,
      "start": 36.8264,
      "duration": 0.151,
      "velocity": 117,
      "chip": "ym2612"
    },
    {
      "channel": 2,
      "note": 88,
      "start": 36.8271,
      "duration": 1.1607,
      "velocity": 103,
      "chip": "ym2612"
    },
    {
      "channel": 3,
      "note": 83,
      "start": 36.8278,
      "duration": 1.1606,
      "velocity": 103,
      "chip": "ym2612"
    },
    {
      "channel": 0,
      "note": 52,
      "start": 36.9775,
      "duration": 0.2859,
      "velocity": 117,
      "chip": "ym2612"
    },
    {
      "channel": 1,
      "note": 64,
      "start": 37.1053,
      "duration": 0.4097,
      "velocity": 102,
      "chip": "ym2612"
    },
    {
      "channel": 4,
      "note": 76,
      "start": 37.106,
      "duration": 0.4097,
      "velocity": 102,
      "chip": "ym2612"
    },
    {
      "channel": 5,
      "note": 43,
      "start": 37.1066,
      "duration": 0.5619,
      "velocity": 127,
      "chip": "ym2612"
    },
    {
      "channel": 0,
      "note": 50,
      "start": 37.2636,
      "duration": 0.1256,
      "velocity": 117,
      "chip": "ym2612"
    },
    {
      "channel": 0,
      "note": 52,
      "start": 37.3894,
      "duration": 0.125,
      "velocity": 117,
      "chip": "ym2612"
    },
    {
      "channel": 0,
      "note": 59,
      "start": 37.5146,
      "duration": 0.152,
      "velocity": 117,
      "chip": "ym2612"
    },
    {
      "channel": 1,
      "note": 71,
      "start": 37.5152,
      "duration": 0.152,
      "velocity": 102,
      "chip": "ym2612"
    },
    {
      "channel": 4,
      "note": 83,
      "start": 37.5159,
      "duration": 0.152,
      "velocity": 102,
      "chip": "ym2612"
    },
    {
      "channel": 0,
      "note": 50,
      "start": 37.6668,
      "duration": 0.1598,
      "velocity": 117,
      "chip": "ym2612"
    },
    {
      "channel": 1,
      "note": 74,
      "start": 37.6674,
      "duration": 0.1598,
      "velocity": 102,
      "chip": "ym2612"
    },
    {
      "channel": 4,
      "note": 86,
      "start": 37.668,
      "duration": 0.1598,
      "velocity": 102,
      "chip": "ym2612"
    },
    {
      "channel": 5,
      "note": 43,
      "start": 37.6686,
      "duration": 0.0783,
      "velocity": 127,
      "chip": "ym2612"
    },
    {
      "channel": 5,
      "note": 43,
      "start": 37.7471,
      "duration": 0.0813,
      "velocity": 127,
      "chip": "ym2612"
    },
    {
      "channel": 0,
      "note": 52,
      "start": 37.8268,
      "duration": 0.1599,
      "velocity": 117,
      "chip": "ym2612"
    },
    {
      "channel": 1,
      "note": 76,
      "start": 37.8273,
      "duration": 0.1599,
      "velocity": 102,
      "chip": "ym2612"
    },
    {
      "channel": 4,
      "note": 88,
      "start": 37.828,
      "duration": 0.1609,
      "velocity": 102,
      "chip": "ym2612"
    },
    {
      "channel": 5,
      "note": 43,
      "start": 37.8286,
      "duration": 0.436,
      "velocity": 127,
      "chip": "ym2612"
    },
    {
      "channel": 0,
      "note": 48,
      "start": 37.9869,
      "duration": 0.1252,
      "velocity": 117,
      "chip": "ym2612"
    },
    {
      "channel": 1,
      "note": 82,
      "start": 37.9874,
      "duration": 0.1252,
      "velocity": 102,
      "chip": "ym2612"
    },
    {
      "channel": 2,
      "note": 87,
      "start": 37.988,
      "duration": 1.1257,
      "velocity": 103,
      "chip": "ym2612"
    },
    {
      "channel": 3,
      "note": 82,
      "start": 37.9885,
      "duration": 1.1257,
      "velocity": 103,
      "chip": "ym2612"
    },
    {
      "channel": 4,
      "note": 94,
      "start": 37.9891,
      "duration": 0.1242,
      "velocity": 102,
      "chip": "ym2612"
    },
    {
      "channel": 0,
      "note": 48,
      "start": 38.1122,
      "duration": 0.3111,
      "velocity": 117,
      "chip": "ym2612"
    },
    {
      "channel": 1,
      "note": 81,
      "start": 38.1128,
      "duration": 0.1506,
      "velocity": 102,
      "chip": "ym2612"
    },
    {
      "channel": 4,
      "note": 93,
      "start": 38.1135,
      "duration": 0.1506,
      "velocity": 102,
      "chip": "ym2612"
    },
    {
      "channel": 1,
      "note": 79,
      "start": 38.2635,
      "duration": 0.1604,
      "velocity": 102,
      "chip": "ym2612"
    },
    {
      "channel": 4,
      "note": 91,
      "start": 38.2642,
      "duration": 0.1603,
      "velocity": 102,
      "chip": "ym2612"
    },
    {
      "channel": 5,
      "note": 43,
      "start": 38.2648,
      "duration": 0.5643,
      "velocity": 127,
      "chip": "ym2612"
    },
    {
      "channel": 0,
      "note": 60,
      "start": 38.4235,
      "duration": 0.1259,
      "velocity": 117,
      "chip": "ym2612"
    },
    {
      "channel": 1,
      "note": 75,
      "start": 38.424,
      "duration": 0.2517,
      "velocity": 102,
      "chip": "ym2612"
    },
    {
      "channel": 4,
      "note": 87,
      "start": 38.4247,
      "duration": 0.2517,
      "velocity": 102,
      "chip": "ym2612"
    },
    {
      "channel": 0,
      "note": 51,
      "start": 38.5496,
      "duration": 0.1256,
      "velocity": 117,
      "chip": "ym2612"
    },
    {
      "channel": 0,
      "note": 48,
      "start": 38.6754,
      "duration": 0.1519,
      "velocity": 117,
      "chip": "ym2612"
    },
    {
      "channel": 1,
      "note": 70,
      "start": 38.6759,
      "duration": 0.1519,
      "velocity": 102,
      "chip": "ym2612"
    },
    {
      "channel": 4,
      "note": 82,
      "start": 38.6766,
      "duration": 0.1519,
      "velocity": 102,
      "chip": "ym2612"
    },
    {
      "channel": 0,
      "note": 51,
      "start": 38.8275,
      "duration": 0.1598,
      "velocity": 117,
      "chip": "ym2612"
    },
    {
      "channel": 1,
      "note": 72,
      "start": 38.828,
      "duration": 0.1598,
      "velocity": 102,
      "chip": "ym2612"
    },
    {
      "channel": 4,
      "note": 84,
      "start": 38.8287,
      "duration": 0.1599,
      "velocity": 102,
      "chip": "ym2612"
    },
    {
      "channel": 5,
      "note": 43,
      "start": 38.8293,
      "duration": 0.5652,
      "velocity": 127,
      "chip": "ym2612"
    },
    {
      "channel": 0,
      "note": 53,
      "start": 38.9875,
      "duration": 0.1257,
      "velocity": 117,
      "chip": "ym2612"
    },
    {
      "channel": 1,
      "note": 74,
      "start": 38.988,
      "duration": 0.725,
      "velocity": 103,
      "chip": "ym2612"
    },
    {
      "channel": 4,
      "note": 86,
      "start": 38.9887,
      "duration": 1.371,
      "velocity": 107,
      "chip": "ym2612"
    },
    {
      "channel": 0,
      "note": 38,
      "start": 39.1133,
      "duration": 0.1514,
      "velocity": 117,
      "chip": "ym2612"
    },
    {
      "channel": 2,
      "note": 79,
      "start": 39.1139,
      "duration": 0.1514,
      "velocity": 103,
      "chip": "ym2612"
    },
    {
      "channel": 3,
      "note": 86,
      "start": 39.1145,
      "duration": 0.1513,
      "velocity": 103,
      "chip": "ym2612"
    },
    {
      "channel": 0,
      "note": 50,
      "start": 39.2648,
      "duration": 0.1262,
      "velocity": 117,
      "chip": "ym2612"
    },
    {
      "channel": 2,
      "note": 74,
      "start": 39.2654,
      "duration": 0.1278,
      "velocity": 103,
      "chip": "ym2612"
    },
    {
      "channel": 3,
      "note": 81,
      "start": 39.266,
      "duration": 0.1278,
      "velocity": 103,
      "chip": "ym2612"
    },
    {
      "channel": 0,
      "note": 50,
      "start": 39.3911,
      "duration": 0.1598,
      "velocity": 117,
      "chip": "ym2612"
    },
    {
      "channel": 2,
      "note": 81,
      "start": 39.3934,
      "duration": 0.1582,
      "velocity": 103,
      "chip": "ym2612"
    },
    {
      "channel": 3,
      "note": 86,
      "start": 39.3939,
      "duration": 0.1582,
      "velocity": 103,
      "chip": "ym2612"
    },
    {
      "channel": 5,
      "note": 43,
      "start": 39.3946,
      "duration": 0.1581,
      "velocity": 127,
      "chip": "ym2612"
    },
    {
      "channel": 0,
      "note": 50,
      "start": 39.5511,
      "duration": 0.1598,
      "velocity": 117,
      "chip": "ym2612"
    },
    {
      "channel": 2,
      "note": 78,
      "start": 39.5517,
      "duration": 0.3204,
      "velocity": 103,
      "chip": "ym2612"
    },
    {
      "channel": 3,
      "note": 81,
      "start": 39.5523,
      "duration": 0.3204,
      "velocity": 103,
      "chip": "ym2612"
    },
    {
      "channel": 5,
      "note": 43,
      "start": 39.5529,
      "duration": 0.1609,
      "velocity": 127,
      "chip": "ym2612"
    },
    {
      "channel": 0,
      "note": 62,
      "start": 39.7111,
      "duration": 0.1599,
      "velocity": 117,
      "chip": "ym2612"
    },
    {
      "channel": 1,
      "note": 80,
      "start": 39.7132,
      "duration": 0.0777,
      "velocity": 103,
      "chip": "ym2612"
    },
    {
      "channel": 5,
      "note": 43,
      "start": 39.714,
      "duration": 0.1593,
      "velocity": 127,
      "chip": "ym2612"
    },
    {
      "channel": 1,
      "note": 81,
      "start": 39.7911,
      "duration": 0.0804,
      "velocity": 103,
      "chip": "ym2612"
    },
    {
      "channel": 0,
      "note": 50,
      "start": 39.8711,
      "duration": 0.1599,
      "velocity": 117,
      "chip": "ym2612"
    },
    {
      "channel": 1,
      "note": 82,
      "start": 39.8717,
      "duration": 0.0793,
      "velocity": 103,
      "chip": "ym2612"
    },
    {
      "channel": 2,
      "note": 76,
      "start": 39.8722,
      "duration": 0.1599,
      "velocity": 103,
      "chip": "ym2612"
    },
    {
      "channel": 3,
      "note": 81,
      "start": 39.8728,
      "duration": 0.1599,
      "velocity": 103,
      "chip": "ym2612"
    },
    {
      "channel": 5,
      "note": 43,
      "start": 39.8734,
      "duration": 0.1599,
      "velocity": 127,
      "chip": "ym2612"
    },
    {
      "channel": 1,
      "note": 83,
      "start": 39.9512,
      "duration": 0.0803,
      "velocity": 103,
      "chip": "ym2612"
    },
    {
      "channel": 0,
      "note": 60,
      "start": 40.0311,
      "duration": 0.1598,
      "velocity": 117,
      "chip": "ym2612"
    },
    {
      "channel": 1,
      "note": 84,
      "start": 40.0317,
      "duration": 0.0794,
      "velocity": 103,
      "chip": "ym2612"
    },
    {
      "channel": 2,
      "note": 74,
      "start": 40.0323,
      "duration": 0.3231,
      "velocity": 102,
      "chip": "ym2612"
    },
    {
      "channel": 3,
      "note": 78,
      "start": 40.0328,
      "duration": 0.3247,
      "velocity": 102,
      "chip": "ym2612"
    },
    {
      "channel": 5,
      "note": 43,
      "start": 40.0334,
      "duration": 0.1588,
      "velocity": 127,
      "chip": "ym2612"
    },
    {
      "channel": 1,
      "note": 85,
      "start": 40.1112,
      "duration": 0.0803,
      "velocity": 103,
      "chip": "ym2612"
    },
    {
      "channel": 0,
      "note": 62,
      "start": 40.1911,
      "duration": 0.1615,
      "velocity": 127,
      "chip": "ym2612"
    },
    {
      "channel": 1,
      "note": 86,
      "start": 40.1917,
      "duration": 0.0794,
      "velocity": 103,
      "chip": "ym2612"
    },
    {
      "channel": 5,
      "note": 43,
      "start": 40.1924,
      "duration": 0.4386,
      "velocity": 127,
      "chip": "ym2612"
    },
    {
      "channel": 1,
      "note": 87,
      "start": 40.2712,
      "duration": 0.082,
      "velocity": 103,
      "chip": "ym2612"
    },
    {
      "channel": 0,
      "note": 52,
      "start": 40.3528,
      "duration": 0.126,
      "velocity": 127,
      "chip": "ym2612"
    },
    {
      "channel": 1,
      "note": 88,
      "start": 40.3534,
      "duration": 0.4369,
      "velocity": 103,
      "chip": "ym2612"
    },
    {
      "channel": 2,
      "note": 67,
      "start": 40.3556,
      "duration": 2.2886,
      "velocity": 102,
      "chip": "ym2612"
    },
    {
      "channel": 3,
      "note": 71,
      "start": 40.3577,
      "duration": 2.287,
      "velocity": 102,
      "chip": "ym2612"
    },
    {
      "channel": 4,
      "note": 98,
      "start": 40.3599,
      "duration": 0.1228,
      "velocity": 107,
      "chip": "ym2612"
    },
    {
      "channel": 0,
      "note": 64,
      "start": 40.479,
      "duration": 0.1491,
      "velocity": 127,
      "chip": "ym2612"
    },
    {
      "channel": 4,
      "note": 98,
      "start": 40.4829,
      "duration": 0.1475,
      "velocity": 107,
      "chip": "ym2612"
    },
    {
      "channel": 0,
      "note": 50,
      "start": 40.6282,
      "duration": 0.1599,
      "velocity": 127,
      "chip": "ym2612"
    },
    {
      "channel": 4,
      "note": 98,
      "start": 40.6306,
      "duration": 0.1603,
      "velocity": 107,
      "chip": "ym2612"
    },
    {
      "channel": 5,
      "note": 43,
      "start": 40.6312,
      "duration": 0.5649,
      "velocity": 127,
      "chip": "ym2612"
    },
    {
      "channel": 0,
      "note": 52,
      "start": 40.7883,
      "duration": 0.1268,
      "velocity": 127,
      "chip": "ym2612"
    },
    {
      "channel": 1,
      "note": 83,
      "start": 40.7904,
      "duration": 0.4044,
      "velocity": 103,
      "chip": "ym2612"
    },
    {
      "channel": 4,
      "note": 98,
      "start": 40.7911,
      "duration": 0.1279,
      "velocity": 107,
      "chip": "ym2612"
    },
    {
      "channel": 0,
      "note": 64,
      "start": 40.9153,
      "duration": 0.126,
      "velocity": 127,
      "chip": "ym2612"
    },
    {
      "channel": 4,
      "note": 98,
      "start": 40.9192,
      "duration": 0.1245,
      "velocity": 107,
      "chip": "ym2612"
    },
    {
      "channel": 0,
      "note": 50,
      "start": 41.0415,
      "duration": 0.1511,
      "velocity": 127,
      "chip": "ym2612"
    },
    {
      "channel": 4,
      "note": 98,
      "start": 41.0438,
      "duration": 0.1517,
      "velocity": 107,
      "chip": "ym2612"
    },
    {
      "channel": 0,
      "note": 52,
      "start": 41.1928,
      "duration": 0.1598,
      "velocity": 127,
      "chip": "ym2612"
    },
    {
      "channel": 1,
      "note": 90,
      "start": 41.195,
      "duration": 0.1582,
      "velocity": 103,
      "chip": "ym2612"
    },
    {
      "channel": 4,
      "note": 98,
      "start": 41.1956,
      "duration": 0.1582,
      "velocity": 107,
      "chip": "ym2612"
    },
    {
      "channel": 5,
      "note": 43,
      "start": 41.1962,
      "duration": 0.5661,
      "velocity": 127,
      "chip": "ym2612"
    },
    {
      "channel": 0,
      "note": 64,
      "start": 41.3528,
      "duration": 0.1253,
      "velocity": 127,
      "chip": "ym2612"
    },
    {
      "channel": 1,
      "note": 88,
      "start": 41.3533,
      "duration": 0.4061,
      "velocity": 103,
      "chip": "ym2612"
    },
    {
      "channel": 4,
      "note": 98,
      "start": 41.354,
      "duration": 0.1248,
      "velocity": 107,
      "chip": "ym2612"
    },
    {
      "channel": 0,
      "note": 52,
      "start": 41.4782,
      "duration": 0.1516,
      "velocity": 127,
      "chip": "ym2612"
    },
    {
      "channel": 4,
      "note": 98,
      "start": 41.479,
      "duration": 0.1548,
      "velocity": 107,
      "chip": "ym2612"
    },
    {
      "channel": 0,
      "note": 64,
      "start": 41.63,
      "duration": 0.1272,
      "velocity": 127,
      "chip": "ym2612"
    },
    {
      "channel": 4,
      "note": 98,
      "start": 41.6339,
      "duration": 0.1277,
      "velocity": 107,
      "chip": "ym2612"
    },
    {
      "channel": 0,
      "note": 50,
      "start": 41.7574,
      "duration": 0.1598,
      "velocity": 127,
      "chip": "ym2612"
    },
    {
      "channel": 1,
      "note": 83,
      "start": 41.7595,
      "duration": 0.8841,
      "velocity": 103,
      "chip": "ym2612"
    },
    {
      "channel": 4,
      "note": 98,
      "start": 41.7618,
      "duration": 0.1561,
      "velocity": 107,
      "chip": "ym2612"
    },
    {
      "channel": 5,
      "note": 43,
      "start": 41.7624,
      "duration": 0.5603,
      "velocity": 127,
      "chip": "ym2612"
    },
    {
      "channel": 0,
      "note": 52,
      "start": 41.9173,
      "duration": 0.126,
      "velocity": 127,
      "chip": "ym2612"
    },
    {
      "channel": 4,
      "note": 98,
      "start": 41.9181,
      "duration": 0.1291,
      "velocity": 107,
      "chip": "ym2612"
    },
    {
      "channel": 0,
      "note": 64,
      "start": 42.0435,
      "duration": 0.1266,
      "velocity": 127,
      "chip": "ym2612"
    },
    {
      "channel": 4,
      "note": 98,
      "start": 42.0474,
      "duration": 0.125,
      "velocity": 107,
      "chip": "ym2612"
    },
    {
      "channel": 0,
      "note": 50,
      "start": 42.1703,
      "duration": 0.1511,
      "velocity": 127,
      "chip": "ym2612"
    },
    {
      "channel": 4,
      "note": 98,
      "start": 42.1726,
      "duration": 0.1495,
      "velocity": 107,
      "chip": "ym2612"
    },
    {
      "channel": 0,
      "note": 52,
      "start": 42.3215,
      "duration": 0.1599,
      "velocity": 127,
      "chip": "ym2612"
    },
    {
      "channel": 4,
      "note": 98,
      "start": 42.3223,
      "duration": 0.1598,
      "velocity": 107,
      "chip": "ym2612"
    },
    {
      "channel": 5,
      "note": 43,
      "start": 42.3229,
      "duration": 0.0788,
      "velocity": 127,
      "chip": "ym2612"
    },
    {
      "channel": 5,
      "note": 43,
      "start": 42.4018,
      "duration": 0.0808,
      "velocity": 127,
      "chip": "ym2612"
    },
    {
      "channel": 0,
      "note": 64,
      "start": 42.4815,
      "duration": 0.1599,
      "velocity": 127,
      "chip": "ym2612"
    },
    {
      "channel": 4,
      "note": 98,
      "start": 42.4823,
      "duration": 0.163,
      "velocity": 107,
      "chip": "ym2612"
    },
    {
      "channel": 5,
      "note": 43,
      "start": 42.4829,
      "duration": 0.439,
      "velocity": 127,
      "chip": "ym2612"
    },
    {
      "channel": 0,
      "note": 50,
      "start": 42.6416,
      "duration": 0.1264,
      "velocity": 127,
      "chip": "ym2612"
    },
    {
      "channel": 1,
      "note": 86,
      "start": 42.6438,
      "duration": 0.4374,
      "velocity": 103,
      "chip": "ym2612"
    },
    {
      "channel": 2,
      "note": 66,
      "start": 42.6443,
      "duration": 2.2874,
      "velocity": 102,
      "chip": "ym2612"
    },
    {
      "channel": 3,
      "note": 74,
      "start": 42.6449,
      "duration": 1.124,
      "velocity": 102,
      "chip": "ym2612"
    },
    {
      "channel": 4,
      "note": 98,
      "start": 42.6455,
      "duration": 0.1265,
      "velocity": 107,
      "chip": "ym2612"
    },
    {
      "channel": 0,
      "note": 62,
      "start": 42.7683,
      "duration": 0.1508,
      "velocity": 127,
      "chip": "ym2612"
    },
    {
      "channel": 4,
      "note": 98,
      "start": 42.7722,
      "duration": 0.1492,
      "velocity": 107,
      "chip": "ym2612"
    },
    {
      "channel": 0,
      "note": 48,
      "start": 42.9192,
      "duration": 0.1599,
      "velocity": 127,
      "chip": "ym2612"
    },
    {
      "channel": 4,
      "note": 98,
      "start": 42.9215,
      "duration": 0.1604,
      "velocity": 107,
      "chip": "ym2612"
    },
    {
      "channel": 5,
      "note": 43,
      "start": 42.9221,
      "duration": 0.5637,
      "velocity": 127,
      "chip": "ym2612"
    },
    {
      "channel": 0,
      "note": 50,
      "start": 43.0792,
      "duration": 0.1268,
      "velocity": 127,
      "chip": "ym2612"
    },
    {
      "channel": 1,
      "note": 81,
      "start": 43.0814,
      "duration": 0.4032,
      "velocity": 103,
      "chip": "ym2612"
    },
    {
      "channel": 4,
      "note": 98,
      "start": 43.082,
      "duration": 0.128,
      "velocity": 107,
      "chip": "ym2612"
    },
    {
      "channel": 0,
      "note": 62,
      "start": 43.2062,
      "duration": 0.125,
      "velocity": 127,
      "chip": "ym2612"
    },
    {
      "channel": 4,
      "note": 98,
      "start": 43.2101,
      "duration": 0.1235,
      "velocity": 107,
      "chip": "ym2612"
    },
    {
      "channel": 0,
      "note": 48,
      "start": 43.3315,
      "duration": 0.151,
      "velocity": 127,
      "chip": "ym2612"
    },
    {
      "channel": 4,
      "note": 98,
      "start": 43.3337,
      "duration": 0.1515,
      "velocity": 107,
      "chip": "ym2612"
    },
    {
      "channel": 0,
      "note": 50,
      "start": 43.4826,
      "duration": 0.1598,
      "velocity": 127,
      "chip": "ym2612"
    },
    {
      "channel": 1,
      "note": 88,
      "start": 43.4847,
      "duration": 0.1583,
      "velocity": 103,
      "chip": "ym2612"
    },
    {
      "channel": 4,
      "note": 98,
      "start": 43.4854,
      "duration": 0.1582,
      "velocity": 107,
      "chip": "ym2612"
    },
    {
      "channel": 5,
      "note": 43,
      "start": 43.486,
      "duration": 0.5659,
      "velocity": 127,
      "chip": "ym2612"
    },
    {
      "channel": 0,
      "note": 62,
      "start": 43.6426,
      "duration": 0.1256,
      "velocity": 127,
      "chip": "ym2612"
    },
    {
      "channel": 1,
      "note": 86,
      "start": 43.6432,
      "duration": 0.4059,
      "velocity": 103,
      "chip": "ym2612"
    },
    {
      "channel": 4,
      "note": 98,
      "start": 43.6439,
      "duration": 0.1256,
      "velocity": 107,
      "chip": "ym2612"
    },
    {
      "channel": 0,
      "note": 50,
      "start": 43.7684,
      "duration": 0.1515,
      "velocity": 127,
      "chip": "ym2612"
    },
    {
      "channel": 3,
      "note": 78,
      "start": 43.7691,
      "duration": 1.1632,
      "velocity": 102,
      "chip": "ym2612"
    },
    {
      "channel": 4,
      "note": 98,
      "start": 43.7697,
      "duration": 0.1541,
      "velocity": 107,
      "chip": "ym2612"
    },
    {
      "channel": 0,
      "note": 62,
      "start": 43.9201,
      "duration": 0.1268,
      "velocity": 127,
      "chip": "ym2612"
    },
    {
      "channel": 4,
      "note": 98,
      "start": 43.924,
      "duration": 0.1273,
      "velocity": 107,
      "chip": "ym2612"
    },
    {
      "channel": 0,
      "note": 48,
      "start": 44.0471,
      "duration": 0.1598,
      "velocity": 127,
      "chip": "ym2612"
    },
    {
      "channel": 1,
      "note": 81,
      "start": 44.0492,
      "duration": 0.5617,
      "velocity": 103,
      "chip": "ym2612"
    },
    {
      "channel": 4,
      "note": 98,
      "start": 44.0515,
      "duration": 0.1561,
      "velocity": 107,
      "chip": "ym2612"
    },
    {
      "channel": 5,
      "note": 43,
      "start": 44.052,
      "duration": 0.5602,
      "velocity": 127,
      "chip": "ym2612"
    },
    {
      "channel": 0,
      "note": 50,
      "start": 44.207,
      "duration": 0.1259,
      "velocity": 127,
      "chip": "ym2612"
    },
    {
      "channel": 4,
      "note": 98,
      "start": 44.2078,
      "duration": 0.1274,
      "velocity": 107,
      "chip": "ym2612"
    },
    {
      "channel": 0,
      "note": 62,
      "start": 44.333,
      "duration": 0.126,
      "velocity": 127,
      "chip": "ym2612"
    },
    {
      "channel": 4,
      "note": 98,
      "start": 44.3354,
      "duration": 0.1261,
      "velocity": 107,
      "chip": "ym2612"
    },
    {
      "channel": 0,
      "note": 48,
      "start": 44.4593,
      "duration": 0.1511,
      "velocity": 127,
      "chip": "ym2612"
    },
    {
      "channel": 4,
      "note": 98,
      "start": 44.4616,
      "duration": 0.15,
      "velocity": 107,
      "chip": "ym2612"
    },
    {
      "channel": 0,
      "note": 50,
      "start": 44.6105,
      "duration": 0.1598,
      "velocity": 127,
      "chip": "ym2612"
    },
    {
      "channel": 1,
      "note": 81,
      "start": 44.6111,
      "duration": 0.1598,
      "velocity": 103,
      "chip": "ym2612"
    },
    {
      "channel": 4,
      "note": 98,
      "start": 44.6117,
      "duration": 0.1598,
      "velocity": 107,
      "chip": "ym2612"
    },
    {
      "channel": 5,
      "note": 43,
      "start": 44.6123,
      "duration": 0.0783,
      "velocity": 127,
      "chip": "ym2612"
    },
    {
      "channel": 5,
      "note": 43,
      "start": 44.6909,
      "duration": 0.0813,
      "velocity": 127,
      "chip": "ym2612"
    },
    {
      "channel": 0,
      "note": 62,
      "start": 44.7705,
      "duration": 0.16,
      "velocity": 127,
      "chip": "ym2612"
    },
    {
      "channel": 1,
      "note": 83,
      "start": 44.771,
      "duration": 0.1601,
      "velocity": 103,
      "chip": "ym2612"
    },
    {
      "channel": 4,
      "note": 98,
      "start": 44.7717,
      "duration": 0.1612,
      "velocity": 107,
      "chip": "ym2612"
    },
    {
      "channel": 5,
      "note": 43,
      "start": 44.7723,
      "duration": 0.438,
      "velocity": 127,
      "chip": "ym2612"
    },
    {
      "channel": 0,
      "note": 60,
      "start": 44.9307,
      "duration": 0.1251,
      "velocity": 127,
      "chip": "ym2612"
    },
    {
      "channel": 1,
      "note": 84,
      "start": 44.9313,
      "duration": 0.125,
      "velocity": 103,
      "chip": "ym2612"
    },
    {
      "channel": 2,
      "note": 79,
      "start": 44.9319,
      "duration": 2.2877,
      "velocity": 102,
      "chip": "ym2612"
    },
    {
      "channel": 3,
      "note": 76,
      "start": 44.9325,
      "duration": 2.2877,
      "velocity": 102,
      "chip": "ym2612"
    },
    {
      "channel": 4,
      "note": 98,
      "start": 44.9332,
      "duration": 0.1255,
      "velocity": 107,
      "chip": "ym2612"
    },
    {
      "channel": 0,
      "note": 72,
      "start": 45.0559,
      "duration": 0.1509,
      "velocity": 127,
      "chip": "ym2612"
    },
    {
      "channel": 1,
      "note": 83,
      "start": 45.0565,
      "duration": 0.1509,
      "velocity": 103,
      "chip": "ym2612"
    },
    {
      "channel": 4,
      "note": 98,
      "start": 45.0588,
      "duration": 0.1509,
      "velocity": 107,
      "chip": "ym2612"
    },
    {
      "channel": 0,
      "note": 59,
      "start": 45.2071,
      "duration": 0.1598,
      "velocity": 127,
      "chip": "ym2612"
    },
    {
      "channel": 1,
      "note": 79,
      "start": 45.2076,
      "duration": 0.1599,
      "velocity": 103,
      "chip": "ym2612"
    },
    {
      "channel": 4,
      "note": 98,
      "start": 45.2099,
      "duration": 0.1583,
      "velocity": 107,
      "chip": "ym2612"
    },
    {
      "channel": 5,
      "note": 43,
      "start": 45.2105,
      "duration": 0.5615,
      "velocity": 127,
      "chip": "ym2612"
    },
    {
      "channel": 0,
      "note": 60,
      "start": 45.3671,
      "duration": 0.1257,
      "velocity": 127,
      "chip": "ym2612"
    },
    {
      "channel": 1,
      "note": 76,
      "start": 45.3676,
      "duration": 0.1257,
      "velocity": 103,
      "chip": "ym2612"
    },
    {
      "channel": 4,
      "note": 98,
      "start": 45.3683,
      "duration": 0.1273,
      "velocity": 107,
      "chip": "ym2612"
    },
    {
      "channel": 0,
      "note": 72,
      "start": 45.493,
      "duration": 0.126,
      "velocity": 127,
      "chip": "ym2612"
    },
    {
      "channel": 1,
      "note": 72,
      "start": 45.4936,
      "duration": 0.1259,
      "velocity": 103,
      "chip": "ym2612"
    },
    {
      "channel": 4,
      "note": 98,
      "start": 45.4958,
      "duration": 0.126,
      "velocity": 107,
      "chip": "ym2612"
    },
    {
      "channel": 0,
      "note": 59,
      "start": 45.6191,
      "duration": 0.1512,
      "velocity": 127,
      "chip": "ym2612"
    },
    {
      "channel": 1,
      "note": 71,
      "start": 45.6196,
      "duration": 0.1512,
      "velocity": 103,
      "chip": "ym2612"
    },
    {
      "channel": 4,
      "note": 98,
      "start": 45.6219,
      "duration": 0.1495,
      "velocity": 107,
      "chip": "ym2612"
    },
    {
      "channel": 0,
      "note": 60,
      "start": 45.7704,
      "duration": 0.1598,
      "velocity": 127,
      "chip": "ym2612"
    },
    {
      "channel": 1,
      "note": 84,
      "start": 45.771,
      "duration": 0.1599,
      "velocity": 103,
      "chip": "ym2612"
    },
    {
      "channel": 4,
      "note": 98,
      "start": 45.7717,
      "duration": 0.1598,
      "velocity": 107,
      "chip": "ym2612"
    },
    {
      "channel": 5,
      "note": 43,
      "start": 45.7722,
      "duration": 0.5656,
      "velocity": 127,
      "chip": "ym2612"
    },
    {
      "channel": 0,
      "note": 72,
      "start": 45.9304,
      "duration": 0.1254,
      "velocity": 127,
      "chip": "ym2612"
    },
    {
      "channel": 1,
      "note": 83,
      "start": 45.931,
      "duration": 0.1254,
      "velocity": 103,
      "chip": "ym2612"
    },
    {
      "channel": 4,
      "note": 98,
      "start": 45.9317,
      "duration": 0.1254,
      "velocity": 107,
      "chip": "ym2612"
    },
    {
      "channel": 0,
      "note": 60,
      "start": 46.0559,
      "duration": 0.1515,
      "velocity": 127,
      "chip": "ym2612"
    },
    {
      "channel": 1,
      "note": 79,
      "start": 46.0565,
      "duration": 0.1515,
      "velocity": 103,
      "chip": "ym2612"
    },
    {
      "channel": 4,
      "note": 98,
      "start": 46.0572,
      "duration": 0.1531,
      "velocity": 107,
      "chip": "ym2612"
    },
    {
      "channel": 0,
      "note": 72,
      "start": 46.2076,
      "duration": 0.1268,
      "velocity": 127,
      "chip": "ym2612"
    },
    {
      "channel": 1,
      "note": 76,
      "start": 46.2081,
      "duration": 0.1269,
      "velocity": 103,
      "chip": "ym2612"
    },
    {
      "channel": 4,
      "note": 98,
      "start": 46.2104,
      "duration": 0.1268,
      "velocity": 107,
      "chip": "ym2612"
    },
    {
      "channel": 0,
      "note": 59,
      "start": 46.3346,
      "duration": 0.1598,
      "velocity": 127,
      "chip": "ym2612"
    },
    {
      "channel": 1,
      "note": 72,
      "start": 46.3352,
      "duration": 0.1599,
      "velocity": 103,
      "chip": "ym2612"
    },
    {
      "channel": 4,
      "note": 98,
      "start": 46.3375,
      "duration": 0.1582,
      "velocity": 107,
      "chip": "ym2612"
    },
    {
      "channel": 5,
      "note": 43,
      "start": 46.338,
      "duration": 0.5623,
      "velocity": 127,
      "chip": "ym2612"
    },
    {
      "channel": 0,
      "note": 60,
      "start": 46.4946,
      "duration": 0.1261,
      "velocity": 127,
      "chip": "ym2612"
    },
    {
      "channel": 1,
      "note": 71,
      "start": 46.4952,
      "duration": 0.1261,
      "velocity": 103,
      "chip": "ym2612"
    },
    {
      "channel": 4,
      "note": 98,
      "start": 46.4959,
      "duration": 0.1277,
      "velocity": 107,
      "chip": "ym2612"
    },
    {
      "channel": 0,
      "note": 72,
      "start": 46.6209,
      "duration": 0.1262,
      "velocity": 127,
      "chip": "ym2612"
    },
    {
      "channel": 1,
      "note": 84,
      "start": 46.6215,
      "duration": 0.1261,
      "velocity": 103,
      "chip": "ym2612"
    },
    {
      "channel": 4,
      "note": 98,
      "start": 46.6237,
      "duration": 0.1262,
      "velocity": 107,
      "chip": "ym2612"
    },
    {
      "channel": 0,
      "note": 59,
      "start": 46.7473,
      "duration": 0.1512,
      "velocity": 127,
      "chip": "ym2612"
    },
    {
      "channel": 1,
      "note": 83,
      "start": 46.7478,
      "duration": 0.1512,
      "velocity": 103,
      "chip": "ym2612"
    },
    {
      "channel": 4,
      "note": 98,
      "start": 46.7501,
      "duration": 0.1496,
      "velocity": 107,
      "chip": "ym2612"
    },
    {
      "channel": 0,
      "note": 60,
      "start": 46.8986,
      "duration": 0.1598,
      "velocity": 127,
      "chip": "ym2612"
    },
    {
      "channel": 1,
      "note": 79,
      "start": 46.8992,
      "duration": 0.1598,
      "velocity": 103,
      "chip": "ym2612"
    },
    {
      "channel": 4,
      "note": 98,
      "start": 46.8999,
      "duration": 0.1599,
      "velocity": 107,
      "chip": "ym2612"
    },
    {
      "channel": 5,
      "note": 43,
      "start": 46.9004,
      "duration": 0.0783,
      "velocity": 127,
      "chip": "ym2612"
    },
    {
      "channel": 5,
      "note": 43,
      "start": 46.979,
      "duration": 0.0813,
      "velocity": 127,
      "chip": "ym2612"
    },
    {
      "channel": 0,
      "note": 72,
      "start": 47.0586,
      "duration": 0.1599,
      "velocity": 127,
      "chip": "ym2612"
    },
    {
      "channel": 1,
      "note": 81,
      "start": 47.0592,
      "duration": 0.1599,
      "velocity": 103,
      "chip": "ym2612"
    },
    {
      "channel": 4,
      "note": 98,
      "start": 47.0599,
      "duration": 0.1609,
      "velocity": 107,
      "chip": "ym2612"
    },
    {
      "channel": 5,
      "note": 43,
      "start": 47.0604,
      "duration": 0.439,
      "velocity": 127,
      "chip": "ym2612"
    },
    {
      "channel": 0,
      "note": 59,
      "start": 47.2187,
      "duration": 0.1265,
      "velocity": 127,
      "chip": "ym2612"
    },
    {
      "channel": 1,
      "note": 81,
      "start": 47.2192,
      "duration": 0.0024,
      "velocity": 103,
      "chip": "ym2612"
    },
    {
      "channel": 2,
      "note": 78,
      "start": 47.2198,
      "duration": 2.2916,
      "velocity": 102,
      "chip": "ym2612"
    },
    {
      "channel": 3,
      "note": 74,
      "start": 47.2204,
      "duration": 2.2916,
      "velocity": 102,
      "chip": "ym2612"
    },
    {
      "channel": 4,
      "note": 98,
      "start": 47.2209,
      "duration": 0.1267,
      "velocity": 107,
      "chip": "ym2612"
    },
    {
      "channel": 1,
      "note": 81,
      "start": 47.2217,
      "duration": 0.013,
      "velocity": 103,
      "chip": "ym2612"
    },
    {
      "channel": 1,
      "note": 81,
      "start": 47.2346,
      "duration": 0.0159,
      "velocity": 103,
      "chip": "ym2612"
    },
    {
      "channel": 1,
      "note": 81,
      "start": 47.2505,
      "duration": 0.0158,
      "velocity": 103,
      "chip": "ym2612"
    },
    {
      "channel": 1,
      "note": 81,
      "start": 47.2663,
      "duration": 0.0314,
      "velocity": 103,
      "chip": "ym2612"
    },
    {
      "channel": 1,
      "note": 81,
      "start": 47.2977,
      "duration": 0.0156,
      "velocity": 103,
      "chip": "ym2612"
    },
    {
      "channel": 1,
      "note": 81,
      "start": 47.3133,
      "duration": 0.0157,
      "velocity": 103,
      "chip": "ym2612"
    },
    {
      "channel": 1,
      "note": 82,
      "start": 47.329,
      "duration": 0.0192,
      "velocity": 103,
      "chip": "ym2612"
    },
    {
      "channel": 0,
      "note": 71,
      "start": 47.3454,
      "duration": 0.1511,
      "velocity": 127,
      "chip": "ym2612"
    },
    {
      "channel": 4,
      "note": 98,
      "start": 47.3477,
      "duration": 0.1511,
      "velocity": 107,
      "chip": "ym2612"
    },
    {
      "channel": 1,
      "note": 82,
      "start": 47.3482,
      "duration": 0.0132,
      "velocity": 103,
      "chip": "ym2612"
    },
    {
      "channel": 1,
      "note": 82,
      "start": 47.3614,
      "duration": 0.0159,
      "velocity": 103,
      "chip": "ym2612"
    },
    {
      "channel": 1,
      "note": 82,
      "start": 47.3772,
      "duration": 0.0189,
      "velocity": 103,
      "chip": "ym2612"
    },
    {
      "channel": 1,
      "note": 82,
      "start": 47.3961,
      "duration": 0.04,
      "velocity": 103,
      "chip": "ym2612"
    },
    {
      "channel": 1,
      "note": 82,
      "start": 47.4361,
      "duration": 0.02,
      "velocity": 103,
      "chip": "ym2612"
    },
    {
      "channel": 1,
      "note": 82,
      "start": 47.4561,
      "duration": 0.02,
      "velocity": 103,
      "chip": "ym2612"
    },
    {
      "channel": 1,
      "note": 82,
      "start": 47.4761,
      "duration": 0.0238,
      "velocity": 103,
      "chip": "ym2612"
    },
    {
      "channel": 0,
      "note": 57,
      "start": 47.4967,
      "duration": 0.1599,
      "velocity": 127,
      "chip": "ym2612"
    },
    {
      "channel": 4,
      "note": 98,
      "start": 47.499,
      "duration": 0.1582,
      "velocity": 107,
      "chip": "ym2612"
    },
    {
      "channel": 5,
      "note": 43,
      "start": 47.4996,
      "duration": 0.5626,
      "velocity": 127,
      "chip": "ym2612"
    },
    {
      "channel": 1,
      "note": 82,
      "start": 47.5,
      "duration": 0.0162,
      "velocity": 103,
      "chip": "ym2612"
    },
    {
      "channel": 1,
      "note": 82,
      "start": 47.5162,
      "duration": 0.0199,
      "velocity": 103,
      "chip": "ym2612"
    },
    {
      "channel": 1,
      "note": 82,
      "start": 47.5361,
      "duration": 0.02,
      "velocity": 103,
      "chip": "ym2612"
    },
    {
      "channel": 1,
      "note": 82,
      "start": 47.5561,
      "duration": 0.04,
      "velocity": 103,
      "chip": "ym2612"
    },
    {
      "channel": 1,
      "note": 82,
      "start": 47.5961,
      "duration": 0.02,
      "velocity": 103,
      "chip": "ym2612"
    },
    {
      "channel": 1,
      "note": 83,
      "start": 47.6161,
      "duration": 0.02,
      "velocity": 103,
      "chip": "ym2612"
    },
    {
      "channel": 1,
      "note": 83,
      "start": 47.6361,
      "duration": 0.022,
      "velocity": 103,
      "chip": "ym2612"
    },
    {
      "channel": 0,
      "note": 59,
      "start": 47.6567,
      "duration": 0.1267,
      "velocity": 127,
      "chip": "ym2612"
    },
    {
      "channel": 4,
      "note": 98,
      "start": 47.6574,
      "duration": 0.1282,
      "velocity": 107,
      "chip": "ym2612"
    },
    {
      "channel": 1,
      "note": 83,
      "start": 47.6582,
      "duration": 0.0141,
      "velocity": 103,
      "chip": "ym2612"
    },
    {
      "channel": 1,
      "note": 83,
      "start": 47.6723,
      "duration": 0.0159,
      "velocity": 103,
      "chip": "ym2612"
    },
    {
      "channel": 1,
      "note": 83,
      "start": 47.6882,
      "duration": 0.0157,
      "velocity": 103,
      "chip": "ym2612"
    },
    {
      "channel": 1,
      "note": 83,
      "start": 47.7039,
      "duration": 0.0314,
      "velocity": 103,
      "chip": "ym2612"
    },
    {
      "channel": 1,
      "note": 83,
      "start": 47.7353,
      "duration": 0.0158,
      "velocity": 103,
      "chip": "ym2612"
    },
    {
      "channel": 1,
      "note": 83,
      "start": 47.751,
      "duration": 1.7597,
      "velocity": 103,
      "chip": "ym2612"
    },
    {
      "channel": 0,
      "note": 71,
      "start": 47.7835,
      "duration": 0.1262,
      "velocity": 127,
      "chip": "ym2612"
    },
    {
      "channel": 4,
      "note": 98,
      "start": 47.7858,
      "duration": 0.1261,
      "velocity": 107,
      "chip": "ym2612"
    },
    {
      "channel": 0,
      "note": 57,
      "start": 47.9098,
      "duration": 0.151,
      "velocity": 127,
      "chip": "ym2612"
    },
    {
      "channel": 4,
      "note": 98,
      "start": 47.9122,
      "duration": 0.1495,
      "velocity": 107,
      "chip": "ym2612"
    },
    {
      "channel": 0,
      "note": 59,
      "start": 48.061,
      "duration": 0.1598,
      "velocity": 127,
      "chip": "ym2612"
    },
    {
      "channel": 4,
      "note": 98,
      "start": 48.0617,
      "duration": 0.1598,
      "velocity": 107,
      "chip": "ym2612"
    },
    {
      "channel": 5,
      "note": 43,
      "start": 48.0623,
      "duration": 0.5649,
      "velocity": 127,
      "chip": "ym2612"
    },
    {
      "channel": 0,
      "note": 71,
      "start": 48.221,
      "duration": 0.1258,
      "velocity": 127,
      "chip": "ym2612"
    },
    {
      "channel": 4,
      "note": 98,
      "start": 48.2217,
      "duration": 0.1258,
      "velocity": 107,
      "chip": "ym2612"
    },
    {
      "channel": 0,
      "note": 47,
      "start": 48.347,
      "duration": 0.152,
      "velocity": 127,
      "chip": "ym2612"
    },
    {
      "channel": 4,
      "note": 98,
      "start": 48.3478,
      "duration": 0.1535,
      "velocity": 107,
      "chip": "ym2612"
    },
    {
      "channel": 0,
      "note": 59,
      "start": 48.4991,
      "duration": 0.1251,
      "velocity": 127,
      "chip": "ym2612"
    },
    {
      "channel": 4,
      "note": 98,
      "start": 48.5015,
      "duration": 0.1251,
      "velocity": 107,
      "chip": "ym2612"
    },
    {
      "channel": 0,
      "note": 45,
      "start": 48.6244,
      "duration": 0.1598,
      "velocity": 127,
      "chip": "ym2612"
    },
    {
      "channel": 4,
      "note": 98,
      "start": 48.6267,
      "duration": 0.1582,
      "velocity": 107,
      "chip": "ym2612"
    },
    {
      "channel": 5,
      "note": 43,
      "start": 48.6273,
      "duration": 0.5624,
      "velocity": 127,
      "chip": "ym2612"
    },
    {
      "channel": 0,
      "note": 47,
      "start": 48.7844,
      "duration": 0.1258,
      "velocity": 127,
      "chip": "ym2612"
    },
    {
      "channel": 4,
      "note": 98,
      "start": 48.7851,
      "duration": 0.1289,
      "velocity": 107,
      "chip": "ym2612"
    },
    {
      "channel": 0,
      "note": 50,
      "start": 48.9103,
      "duration": 0.1269,
      "velocity": 127,
      "chip": "ym2612"
    },
    {
      "channel": 4,
      "note": 98,
      "start": 48.9142,
      "duration": 0.1253,
      "velocity": 107,
      "chip": "ym2612"
    },
    {
      "channel": 0,
      "note": 62,
      "start": 49.0374,
      "duration": 0.1511,
      "velocity": 127,
      "chip": "ym2612"
    },
    {
      "channel": 4,
      "note": 98,
      "start": 49.0397,
      "duration": 0.1495,
      "velocity": 107,
      "chip": "ym2612"
    },
    {
      "channel": 0,
      "note": 51,
      "start": 49.1886,
      "duration": 0.1599,
      "velocity": 127,
      "chip": "ym2612"
    },
    {
      "channel": 4,
      "note": 98,
      "start": 49.1894,
      "duration": 0.1598,
      "velocity": 107,
      "chip": "ym2612"
    },
    {
      "channel": 5,
      "note": 43,
      "start": 49.19,
      "duration": 0.0788,
      "velocity": 127,
      "chip": "ym2612"
    },
    {
      "channel": 5,
      "note": 43,
      "start": 49.2689,
      "duration": 0.0808,
      "velocity": 127,
      "chip": "ym2612"
    },
    {
      "channel": 0,
      "note": 63,
      "start": 49.3486,
      "duration": 0.16,
      "velocity": 127,
      "chip": "ym2612"
    },
    {
      "channel": 4,
      "note": 98,
      "start": 49.3494,
      "duration": 0.1633,
      "velocity": 107,
      "chip": "ym2612"
    },
    {
      "channel": 5,
      "note": 43,
      "start": 49.35,
      "duration": 0.4376,
      "velocity": 127,
      "chip": "ym2612"
    },
    {
      "channel": 0,
      "note": 52,
      "start": 49.5088,
      "duration": 0.1256,
      "velocity": 127,
      "chip": "ym2612"
    },
    {
      "channel": 1,
      "note": 88,
      "start": 49.5109,
      "duration": 0.4359,
      "velocity": 103,
      "chip": "ym2612"
    },
    {
      "channel": 2,
      "note": 67,
      "start": 49.5115,
      "duration": 2.2873,
      "velocity": 102,
      "chip": "ym2612"
    },
    {
      "channel": 3,
      "note": 71,
      "start": 49.5122,
      "duration": 2.2872,
      "velocity": 102,
      "chip": "ym2612"
    },
    {
      "channel": 4,
      "note": 98,
      "start": 49.5128,
      "duration": 0.1256,
      "velocity": 107,
      "chip": "ym2612"
    },
    {
      "channel": 0,
      "note": 64,
      "start": 49.6346,
      "duration": 0.1501,
      "velocity": 127,
      "chip": "ym2612"
    },
    {
      "channel": 4,
      "note": 98,
      "start": 49.6385,
      "duration": 0.1485,
      "velocity": 107,
      "chip": "ym2612"
    },
    {
      "channel": 0,
      "note": 50,
      "start": 49.7848,
      "duration": 0.1599,
      "velocity": 127,
      "chip": "ym2612"
    },
    {
      "channel": 4,
      "note": 98,
      "start": 49.7871,
      "duration": 0.1603,
      "velocity": 107,
      "chip": "ym2612"
    },
    {
      "channel": 5,
      "note": 43,
      "start": 49.7878,
      "duration": 0.5651,
      "velocity": 127,
      "chip": "ym2612"
    },
    {
      "channel": 0,
      "note": 52,
      "start": 49.9448,
      "duration": 0.1267,
      "velocity": 127,
      "chip": "ym2612"
    },
    {
      "channel": 1,
      "note": 83,
      "start": 49.9469,
      "duration": 0.4046,
      "velocity": 103,
      "chip": "ym2612"
    },
    {
      "channel": 4,
      "note": 98,
      "start": 49.9476,
      "duration": 0.1278,
      "velocity": 107,
      "chip": "ym2612"
    },
    {
      "channel": 0,
      "note": 64,
      "start": 50.0717,
      "duration": 0.1264,
      "velocity": 127,
      "chip": "ym2612"
    },
    {
      "channel": 4,
      "note": 98,
      "start": 50.0756,
      "duration": 0.1249,
      "velocity": 107,
      "chip": "ym2612"
    },
    {
      "channel": 0,
      "note": 50,
      "start": 50.1984,
      "duration": 0.151,
      "velocity": 127,
      "chip": "ym2612"
    },
    {
      "channel": 4,
      "note": 98,
      "start": 50.2007,
      "duration": 0.1516,
      "velocity": 107,
      "chip": "ym2612"
    },
    {
      "channel": 0,
      "note": 52,
      "start": 50.3496,
      "duration": 0.1598,
      "velocity": 127,
      "chip": "ym2612"
    },
    {
      "channel": 1,
      "note": 90,
      "start": 50.3517,
      "duration": 0.1582,
      "velocity": 103,
      "chip": "ym2612"
    },
    {
      "channel": 4,
      "note": 98,
      "start": 50.3524,
      "duration": 0.1582,
      "velocity": 107,
      "chip": "ym2612"
    },
    {
      "channel": 5,
      "note": 43,
      "start": 50.353,
      "duration": 0.5642,
      "velocity": 127,
      "chip": "ym2612"
    },
    {
      "channel": 0,
      "note": 64,
      "start": 50.5096,
      "duration": 0.1256,
      "velocity": 127,
      "chip": "ym2612"
    },
    {
      "channel": 1,
      "note": 91,
      "start": 50.5101,
      "duration": 0.8182,
      "velocity": 103,
      "chip": "ym2612"
    },
    {
      "channel": 4,
      "note": 98,
      "start": 50.5108,
      "duration": 0.1251,
      "velocity": 107,
      "chip": "ym2612"
    },
    {
      "channel": 0,
      "note": 52,
      "start": 50.6353,
      "duration": 0.1515,
      "velocity": 127,
      "chip": "ym2612"
    },
    {
      "channel": 4,
      "note": 98,
      "start": 50.6361,
      "duration": 0.1547,
      "velocity": 107,
      "chip": "ym2612"
    },
    {
      "channel": 0,
      "note": 64,
      "start": 50.787,
      "duration": 0.1272,
      "velocity": 127,
      "chip": "ym2612"
    },
    {
      "channel": 4,
      "note": 98,
      "start": 50.7909,
      "duration": 0.1256,
      "velocity": 107,
      "chip": "ym2612"
    },
    {
      "channel": 0,
      "note": 50,
      "start": 50.9144,
      "duration": 0.1598,
      "velocity": 127,
      "chip": "ym2612"
    },
    {
      "channel": 4,
      "note": 98,
      "start": 50.9167,
      "duration": 0.1582,
      "velocity": 107,
      "chip": "ym2612"
    },
    {
      "channel": 5,
      "note": 43,
      "start": 50.9173,
      "duration": 0.5622,
      "velocity": 127,
      "chip": "ym2612"
    },
    {
      "channel": 0,
      "note": 52,
      "start": 51.0744,
      "duration": 0.1259,
      "velocity": 127,
      "chip": "ym2612"
    },
    {
      "channel": 4,
      "note": 98,
      "start": 51.0751,
      "duration": 0.1274,
      "velocity": 107,
      "chip": "ym2612"
    },
    {
      "channel": 0,
      "note": 64,
      "start": 51.2004,
      "duration": 0.1257,
      "velocity": 127,
      "chip": "ym2612"
    },
    {
      "channel": 4,
      "note": 98,
      "start": 51.2027,
      "duration": 0.1278,
      "velocity": 107,
      "chip": "ym2612"
    },
    {
      "channel": 0,
      "note": 50,
      "start": 51.3263,
      "duration": 0.1514,
      "velocity": 127,
      "chip": "ym2612"
    },
    {
      "channel": 1,
      "note": 88,
      "start": 51.3284,
      "duration": 0.1499,
      "velocity": 103,
      "chip": "ym2612"
    },
    {
      "channel": 4,
      "note": 98,
      "start": 51.3307,
      "duration": 0.1482,
      "velocity": 107,
      "chip": "ym2612"
    },
    {
      "channel": 0,
      "note": 52,
      "start": 51.4779,
      "duration": 0.1598,
      "velocity": 127,
      "chip": "ym2612"
    },
    {
      "channel": 1,
      "note": 91,
      "start": 51.4784,
      "duration": 0.1599,
      "velocity": 103,
      "chip": "ym2612"
    },
    {
      "channel": 4,
      "note": 98,
      "start": 51.4791,
      "duration": 0.1598,
      "velocity": 107,
      "chip": "ym2612"
    },
    {
      "channel": 5,
      "note": 43,
      "start": 51.4797,
      "duration": 0.0783,
      "velocity": 127,
      "chip": "ym2612"
    },
    {
      "channel": 5,
      "note": 43,
      "start": 51.5582,
      "duration": 0.0813,
      "velocity": 127,
      "chip": "ym2612"
    },
    {
      "channel": 0,
      "note": 64,
      "start": 51.6379,
      "duration": 0.1599,
      "velocity": 127,
      "chip": "ym2612"
    },
    {
      "channel": 1,
      "note": 95,
      "start": 51.6384,
      "duration": 0.1599,
      "velocity": 103,
      "chip": "ym2612"
    },
    {
      "channel": 4,
      "note": 98,
      "start": 51.6391,
      "duration": 0.1609,
      "velocity": 107,
      "chip": "ym2612"
    },
    {
      "channel": 5,
      "note": 43,
      "start": 51.6397,
      "duration": 0.4376,
      "velocity": 127,
      "chip": "ym2612"
    },
    {
      "channel": 0,
      "note": 50,
      "start": 51.7979,
      "duration": 0.1249,
      "velocity": 127,
      "chip": "ym2612"
    },
    {
      "channel": 1,
      "note": 93,
      "start": 51.7985,
      "duration": 1.2785,
      "velocity": 103,
      "chip": "ym2612"
    },
    {
      "channel": 2,
      "note": 66,
      "start": 51.799,
      "duration": 2.2877,
      "velocity": 102,
      "chip": "ym2612"
    },
    {
      "channel": 3,
      "note": 74,
      "start": 51.7996,
      "duration": 1.124,
      "velocity": 102,
      "chip": "ym2612"
    },
    {
      "channel": 4,
      "note": 98,
      "start": 51.8002,
      "duration": 0.1266,
      "velocity": 107,
      "chip": "ym2612"
    },
    {
      "channel": 0,
      "note": 62,
      "start": 51.923,
      "duration": 0.1514,
      "velocity": 127,
      "chip": "ym2612"
    },
    {
      "channel": 4,
      "note": 98,
      "start": 51.9269,
      "duration": 0.1498,
      "velocity": 107,
      "chip": "ym2612"
    },
    {
      "channel": 0,
      "note": 48,
      "start": 52.0745,
      "duration": 0.1599,
      "velocity": 127,
      "chip": "ym2612"
    },
    {
      "channel": 4,
      "note": 98,
      "start": 52.0769,
      "duration": 0.1582,
      "velocity": 107,
      "chip": "ym2612"
    },
    {
      "channel": 5,
      "note": 43,
      "start": 52.0775,
      "duration": 0.5617,
      "velocity": 127,
      "chip": "ym2612"
    },
    {
      "channel": 0,
      "note": 50,
      "start": 52.2345,
      "duration": 0.1259,
      "velocity": 127,
      "chip": "ym2612"
    },
    {
      "channel": 4,
      "note": 98,
      "start": 52.2353,
      "duration": 0.1274,
      "velocity": 107,
      "chip": "ym2612"
    },
    {
      "channel": 0,
      "note": 62,
      "start": 52.3606,
      "duration": 0.126,
      "velocity": 127,
      "chip": "ym2612"
    },
    {
      "channel": 4,
      "note": 98,
      "start": 52.3629,
      "duration": 0.1261,
      "velocity": 107,
      "chip": "ym2612"
    },
    {
      "channel": 0,
      "note": 48,
      "start": 52.4868,
      "duration": 0.1511,
      "velocity": 127,
      "chip": "ym2612"
    },
    {
      "channel": 4,
      "note": 98,
      "start": 52.4891,
      "duration": 0.1495,
      "velocity": 107,
      "chip": "ym2612"
    },
    {
      "channel": 0,
      "note": 50,
      "start": 52.638,
      "duration": 0.1599,
      "velocity": 127,
      "chip": "ym2612"
    },
    {
      "channel": 4,
      "note": 98,
      "start": 52.6388,
      "duration": 0.1598,
      "velocity": 107,
      "chip": "ym2612"
    },
    {
      "channel": 5,
      "note": 43,
      "start": 52.6393,
      "duration": 0.5653,
      "velocity": 127,
      "chip": "ym2612"
    },
    {
      "channel": 0,
      "note": 62,
      "start": 52.798,
      "duration": 0.125,
      "velocity": 127,
      "chip": "ym2612"
    },
    {
      "channel": 4,
      "note": 98,
      "start": 52.7988,
      "duration": 0.1254,
      "velocity": 107,
      "chip": "ym2612"
    },
    {
      "channel": 0,
      "note": 50,
      "start": 52.9231,
      "duration": 0.1517,
      "velocity": 127,
      "chip": "ym2612"
    },
    {
      "channel": 3,
      "note": 78,
      "start": 52.9238,
      "duration": 1.1636,
      "velocity": 102,
      "chip": "ym2612"
    },
    {
      "channel": 4,
      "note": 98,
      "start": 52.9244,
      "duration": 0.1548,
      "velocity": 107,
      "chip": "ym2612"
    },
    {
      "channel": 0,
      "note": 62,
      "start": 53.075,
      "duration": 0.1263,
      "velocity": 127,
      "chip": "ym2612"
    },
    {
      "channel": 1,
      "note": 91,
      "start": 53.0771,
      "duration": 0.1247,
      "velocity": 103,
      "chip": "ym2612"
    },
    {
      "channel": 4,
      "note": 98,
      "start": 53.0794,
      "duration": 0.1247,
      "velocity": 107,
      "chip": "ym2612"
    },
    {
      "channel": 0,
      "note": 48,
      "start": 53.2015,
      "duration": 0.1598,
      "velocity": 127,
      "chip": "ym2612"
    },
    {
      "channel": 1,
      "note": 90,
      "start": 53.202,
      "duration": 0.1599,
      "velocity": 103,
      "chip": "ym2612"
    },
    {
      "channel": 4,
      "note": 98,
      "start": 53.2043,
      "duration": 0.1582,
      "velocity": 107,
      "chip": "ym2612"
    },
    {
      "channel": 5,
      "note": 43,
      "start": 53.2049,
      "duration": 0.5624,
      "velocity": 127,
      "chip": "ym2612"
    },
    {
      "channel": 0,
      "note": 50,
      "start": 53.3615,
      "duration": 0.1261,
      "velocity": 127,
      "chip": "ym2612"
    },
    {
      "channel": 1,
      "note": 86,
      "start": 53.362,
      "duration": 0.1261,
      "velocity": 103,
      "chip": "ym2612"
    },
    {
      "channel": 4,
      "note": 98,
      "start": 53.3627,
      "duration": 0.1277,
      "velocity": 107,
      "chip": "ym2612"
    },
    {
      "channel": 0,
      "note": 62,
      "start": 53.4877,
      "duration": 0.1262,
      "velocity": 127,
      "chip": "ym2612"
    },
    {
      "channel": 1,
      "note": 81,
      "start": 53.4883,
      "duration": 0.1262,
      "velocity": 103,
      "chip": "ym2612"
    },
    {
      "channel": 4,
      "note": 98,
      "start": 53.4905,
      "duration": 0.1262,
      "velocity": 107,
      "chip": "ym2612"
    },
    {
      "channel": 0,
      "note": 48,
      "start": 53.6141,
      "duration": 0.1513,
      "velocity": 127,
      "chip": "ym2612"
    },
    {
      "channel": 1,
      "note": 79,
      "start": 53.6146,
      "duration": 0.1513,
      "velocity": 103,
      "chip": "ym2612"
    },
    {
      "channel": 4,
      "note": 98,
      "start": 53.6169,
      "duration": 0.1497,
      "velocity": 107,
      "chip": "ym2612"
    },
    {
      "channel": 0,
      "note": 50,
      "start": 53.7656,
      "duration": 0.1598,
      "velocity": 127,
      "chip": "ym2612"
    },
    {
      "channel": 1,
      "note": 78,
      "start": 53.7662,
      "duration": 0.1598,
      "velocity": 103,
      "chip": "ym2612"
    },
    {
      "channel": 4,
      "note": 98,
      "start": 53.7668,
      "duration": 0.1598,
      "velocity": 107,
      "chip": "ym2612"
    },
    {
      "channel": 5,
      "note": 43,
      "start": 53.7674,
      "duration": 0.0783,
      "velocity": 127,
      "chip": "ym2612"
    },
    {
      "channel": 5,
      "note": 43,
      "start": 53.8459,
      "duration": 0.0813,
      "velocity": 127,
      "chip": "ym2612"
    },
    {
      "channel": 0,
      "note": 62,
      "start": 53.9256,
      "duration": 0.16,
      "velocity": 127,
      "chip": "ym2612"
    },
    {
      "channel": 1,
      "note": 74,
      "start": 53.9261,
      "duration": 0.1601,
      "velocity": 103,
      "chip": "ym2612"
    },
    {
      "channel": 4,
      "note": 98,
      "start": 53.9268,
      "duration": 0.1612,
      "velocity": 107,
      "chip": "ym2612"
    },
    {
      "channel": 5,
      "note": 43,
      "start": 53.9274,
      "duration": 0.4383,
      "velocity": 127,
      "chip": "ym2612"
    },
    {
      "channel": 0,
      "note": 60,
      "start": 54.0857,
      "duration": 0.1256,
      "velocity": 127,
      "chip": "ym2612"
    },
    {
      "channel": 1,
      "note": 72,
      "start": 54.0863,
      "duration": 0.437,
      "velocity": 103,
      "chip": "ym2612"
    },
    {
      "channel": 2,
      "note": 79,
      "start": 54.0869,
      "duration": 2.287,
      "velocity": 102,
      "chip": "ym2612"
    },
    {
      "channel": 3,
      "note": 76,
      "start": 54.0876,
      "duration": 2.2868,
      "velocity": 102,
      "chip": "ym2612"
    },
    {
      "channel": 4,
      "note": 98,
      "start": 54.0881,
      "duration": 0.1255,
      "velocity": 107,
      "chip": "ym2612"
    },
    {
      "channel": 0,
      "note": 72,
      "start": 54.2115,
      "duration": 0.1513,
      "velocity": 127,
      "chip": "ym2612"
    },
    {
      "channel": 4,
      "note": 98,
      "start": 54.2138,
      "duration": 0.1512,
      "velocity": 107,
      "chip": "ym2612"
    },
    {
      "channel": 0,
      "note": 59,
      "start": 54.3629,
      "duration": 0.1599,
      "velocity": 127,
      "chip": "ym2612"
    },
    {
      "channel": 4,
      "note": 98,
      "start": 54.3652,
      "duration": 0.1588,
      "velocity": 107,
      "chip": "ym2612"
    },
    {
      "channel": 5,
      "note": 43,
      "start": 54.3659,
      "duration": 0.5612,
      "velocity": 127,
      "chip": "ym2612"
    },
    {
      "channel": 0,
      "note": 60,
      "start": 54.5229,
      "duration": 0.1258,
      "velocity": 127,
      "chip": "ym2612"
    },
    {
      "channel": 1,
      "note": 76,
      "start": 54.5235,
      "duration": 0.4023,
      "velocity": 103,
      "chip": "ym2612"
    },
    {
      "channel": 4,
      "note": 98,
      "start": 54.5241,
      "duration": 0.1268,
      "velocity": 107,
      "chip": "ym2612"
    },
    {
      "channel": 0,
      "note": 72,
      "start": 54.6488,
      "duration": 0.1253,
      "velocity": 127,
      "chip": "ym2612"
    },
    {
      "channel": 4,
      "note": 98,
      "start": 54.6512,
      "duration": 0.1253,
      "velocity": 107,
      "chip": "ym2612"
    },
    {
      "channel": 0,
      "note": 59,
      "start": 54.7744,
      "duration": 0.1509,
      "velocity": 127,
      "chip": "ym2612"
    },
    {
      "channel": 4,
      "note": 98,
      "start": 54.7766,
      "duration": 0.1498,
      "velocity": 107,
      "chip": "ym2612"
    },
    {
      "channel": 0,
      "note": 60,
      "start": 54.9254,
      "duration": 0.1598,
      "velocity": 127,
      "chip": "ym2612"
    },
    {
      "channel": 1,
      "note": 79,
      "start": 54.9259,
      "duration": 0.1599,
      "velocity": 103,
      "chip": "ym2612"
    },
    {
      "channel": 4,
      "note": 98,
      "start": 54.9266,
      "duration": 0.1599,
      "velocity": 107,
      "chip": "ym2612"
    },
    {
      "channel": 5,
      "note": 43,
      "start": 54.9272,
      "duration": 0.5653,
      "velocity": 127,
      "chip": "ym2612"
    },
    {
      "channel": 0,
      "note": 72,
      "start": 55.0854,
      "duration": 0.1251,
      "velocity": 127,
      "chip": "ym2612"
    },
    {
      "channel": 1,
      "note": 83,
      "start": 55.086,
      "duration": 0.2769,
      "velocity": 103,
      "chip": "ym2612"
    },
    {
      "channel": 4,
      "note": 98,
      "start": 55.0866,
      "duration": 0.1246,
      "velocity": 107,
      "chip": "ym2612"
    },
    {
      "channel": 0,
      "note": 60,
      "start": 55.2107,
      "duration": 0.1517,
      "velocity": 127,
      "chip": "ym2612"
    },
    {
      "channel": 4,
      "note": 98,
      "start": 55.2115,
      "duration": 0.1537,
      "velocity": 107,
      "chip": "ym2612"
    },
    {
      "channel": 0,
      "note": 72,
      "start": 55.3626,
      "duration": 0.1266,
      "velocity": 127,
      "chip": "ym2612"
    },
    {
      "channel": 1,
      "note": 84,
      "start": 55.3631,
      "duration": 0.1266,
      "velocity": 103,
      "chip": "ym2612"
    },
    {
      "channel": 4,
      "note": 98,
      "start": 55.3654,
      "duration": 0.1266,
      "velocity": 107,
      "chip": "ym2612"
    },
    {
      "channel": 0,
      "note": 59,
      "start": 55.4893,
      "duration": 0.1598,
      "velocity": 127,
      "chip": "ym2612"
    },
    {
      "channel": 1,
      "note": 88,
      "start": 55.4899,
      "duration": 0.1599,
      "velocity": 103,
      "chip": "ym2612"
    },
    {
      "channel": 4,
      "note": 98,
      "start": 55.4922,
      "duration": 0.1583,
      "velocity": 107,
      "chip": "ym2612"
    },
    {
      "channel": 5,
      "note": 43,
      "start": 55.4927,
      "duration": 0.5617,
      "velocity": 127,
      "chip": "ym2612"
    },
    {
      "channel": 0,
      "note": 60,
      "start": 55.6493,
      "duration": 0.1257,
      "velocity": 127,
      "chip": "ym2612"
    },
    {
      "channel": 1,
      "note": 91,
      "start": 55.6499,
      "duration": 0.1256,
      "velocity": 103,
      "chip": "ym2612"
    },
    {
      "channel": 4,
      "note": 98,
      "start": 55.6506,
      "duration": 0.1273,
      "velocity": 107,
      "chip": "ym2612"
    },
    {
      "channel": 0,
      "note": 72,
      "start": 55.7752,
      "duration": 0.1263,
      "velocity": 127,
      "chip": "ym2612"
    },
    {
      "channel": 1,
      "note": 95,
      "start": 55.7758,
      "duration": 0.1263,
      "velocity": 103,
      "chip": "ym2612"
    },
    {
      "channel": 4,
      "note": 98,
      "start": 55.778,
      "duration": 0.1263,
      "velocity": 107,
      "chip": "ym2612"
    },
    {
      "channel": 0,
      "note": 59,
      "start": 55.9017,
      "duration": 0.151,
      "velocity": 127,
      "chip": "ym2612"
    },
    {
      "channel": 1,
      "note": 96,
      "start": 55.9022,
      "duration": 0.151,
      "velocity": 103,
      "chip": "ym2612"
    },
    {
      "channel": 4,
      "note": 98,
      "start": 55.9045,
      "duration": 0.1495,
      "velocity": 107,
      "chip": "ym2612"
    },
    {
      "channel": 0,
      "note": 60,
      "start": 56.0529,
      "duration": 0.1598,
      "velocity": 127,
      "chip": "ym2612"
    },
    {
      "channel": 1,
      "note": 100,
      "start": 56.0534,
      "duration": 0.1599,
      "velocity": 103,
      "chip": "ym2612"
    },
    {
      "channel": 4,
      "note": 98,
      "start": 56.0541,
      "duration": 0.1598,
      "velocity": 107,
      "chip": "ym2612"
    },
    {
      "channel": 5,
      "note": 43,
      "start": 56.0547,
      "duration": 0.0783,
      "velocity": 127,
      "chip": "ym2612"
    },
    {
      "channel": 5,
      "note": 43,
      "start": 56.1332,
      "duration": 0.0813,
      "velocity": 127,
      "chip": "ym2612"
    },
    {
      "channel": 0,
      "note": 72,
      "start": 56.2129,
      "duration": 0.1599,
      "velocity": 127,
      "chip": "ym2612"
    },
    {
      "channel": 1,
      "note": 103,
      "start": 56.2134,
      "duration": 0.1599,
      "velocity": 103,
      "chip": "ym2612"
    },
    {
      "channel": 4,
      "note": 98,
      "start": 56.2141,
      "duration": 0.1609,
      "velocity": 107,
      "chip": "ym2612"
    },
    {
      "channel": 5,
      "note": 43,
      "start": 56.2147,
      "duration": 0.4376,
      "velocity": 127,
      "chip": "ym2612"
    },
    {
      "channel": 0,
      "note": 59,
      "start": 56.3729,
      "duration": 0.1251,
      "velocity": 127,
      "chip": "ym2612"
    },
    {
      "channel": 1,
      "note": 101,
      "start": 56.3735,
      "duration": 0.062,
      "velocity": 103,
      "chip": "ym2612"
    },
    {
      "channel": 2,
      "note": 78,
      "start": 56.374,
      "duration": 2.3333,
      "velocity": 100,
      "chip": "ym2612"
    },
    {
      "channel": 3,
      "note": 74,
      "start": 56.3746,
      "duration": 2.4595,
      "velocity": 100,
      "chip": "ym2612"
    },
    {
      "channel": 4,
      "note": 98,
      "start": 56.3752,
      "duration": 0.1256,
      "velocity": 107,
      "chip": "ym2612"
    },
    {
      "channel": 1,
      "note": 102,
      "start": 56.4358,
      "duration": 0.0628,
      "velocity": 103,
      "chip": "ym2612"
    },
    {
      "channel": 0,
      "note": 71,
      "start": 56.4981,
      "duration": 0.1511,
      "velocity": 127,
      "chip": "ym2612"
    },
    {
      "channel": 1,
      "note": 101,
      "start": 56.4987,
      "duration": 0.0706,
      "velocity": 103,
      "chip": "ym2612"
    },
    {
      "channel": 4,
      "note": 98,
      "start": 56.501,
      "duration": 0.1506,
      "velocity": 107,
      "chip": "ym2612"
    },
    {
      "channel": 1,
      "note": 102,
      "start": 56.5695,
      "duration": 0.2404,
      "velocity": 103,
      "chip": "ym2612"
    },
    {
      "channel": 0,
      "note": 57,
      "start": 56.6495,
      "duration": 0.1598,
      "velocity": 127,
      "chip": "ym2612"
    },
    {
      "channel": 4,
      "note": 98,
      "start": 56.6518,
      "duration": 0.1587,
      "velocity": 107,
      "chip": "ym2612"
    },
    {
      "channel": 5,
      "note": 43,
      "start": 56.6523,
      "duration": 0.5634,
      "velocity": 127,
      "chip": "ym2612"
    },
    {
      "channel": 0,
      "note": 59,
      "start": 56.8095,
      "duration": 0.1266,
      "velocity": 127,
      "chip": "ym2612"
    },
    {
      "channel": 1,
      "note": 101,
      "start": 56.81,
      "duration": 0.0627,
      "velocity": 103,
      "chip": "ym2612"
    },
    {
      "channel": 4,
      "note": 98,
      "start": 56.8107,
      "duration": 0.1293,
      "velocity": 107,
      "chip": "ym2612"
    },
    {
      "channel": 1,
      "note": 102,
      "start": 56.8728,
      "duration": 0.192,
      "velocity": 103,
      "chip": "ym2612"
    },
    {
      "channel": 0,
      "note": 71,
      "start": 56.9362,
      "duration": 0.1264,
      "velocity": 127,
      "chip": "ym2612"
    },
    {
      "channel": 4,
      "note": 98,
      "start": 56.9401,
      "duration": 0.1269,
      "velocity": 107,
      "chip": "ym2612"
    },
    {
      "channel": 0,
      "note": 57,
      "start": 57.0628,
      "duration": 0.1511,
      "velocity": 127,
      "chip": "ym2612"
    },
    {
      "channel": 1,
      "note": 100,
      "start": 57.0649,
      "duration": 0.1495,
      "velocity": 103,
      "chip": "ym2612"
    },
    {
      "channel": 4,
      "note": 98,
      "start": 57.0673,
      "duration": 0.1479,
      "velocity": 107,
      "chip": "ym2612"
    },
    {
      "channel": 0,
      "note": 59,
      "start": 57.2141,
      "duration": 0.1598,
      "velocity": 127,
      "chip": "ym2612"
    },
    {
      "channel": 1,
      "note": 99,
      "start": 57.2146,
      "duration": 0.1599,
      "velocity": 103,
      "chip": "ym2612"
    },
    {
      "channel": 4,
      "note": 98,
      "start": 57.2153,
      "duration": 0.1598,
      "velocity": 107,
      "chip": "ym2612"
    },
    {
      "channel": 5,
      "note": 43,
      "start": 57.2159,
      "duration": 0.566,
      "velocity": 127,
      "chip": "ym2612"
    },
    {
      "channel": 0,
      "note": 71,
      "start": 57.3741,
      "duration": 0.1255,
      "velocity": 127,
      "chip": "ym2612"
    },
    {
      "channel": 1,
      "note": 96,
      "start": 57.3746,
      "duration": 0.1255,
      "velocity": 103,
      "chip": "ym2612"
    },
    {
      "channel": 4,
      "note": 98,
      "start": 57.3753,
      "duration": 0.1255,
      "velocity": 107,
      "chip": "ym2612"
    },
    {
      "channel": 0,
      "note": 47,
      "start": 57.4998,
      "duration": 0.1517,
      "velocity": 127,
      "chip": "ym2612"
    },
    {
      "channel": 1,
      "note": 95,
      "start": 57.5003,
      "duration": 0.1517,
      "velocity": 103,
      "chip": "ym2612"
    },
    {
      "channel": 4,
      "note": 98,
      "start": 57.501,
      "duration": 0.1532,
      "velocity": 107,
      "chip": "ym2612"
    },
    {
      "channel": 0,
      "note": 59,
      "start": 57.6516,
      "duration": 0.1269,
      "velocity": 127,
      "chip": "ym2612"
    },
    {
      "channel": 1,
      "note": 91,
      "start": 57.6521,
      "duration": 0.127,
      "velocity": 103,
      "chip": "ym2612"
    },
    {
      "channel": 4,
      "note": 98,
      "start": 57.6544,
      "duration": 0.1269,
      "velocity": 107,
      "chip": "ym2612"
    },
    {
      "channel": 0,
      "note": 45,
      "start": 57.7787,
      "duration": 0.1598,
      "velocity": 127,
      "chip": "ym2612"
    },
    {
      "channel": 1,
      "note": 90,
      "start": 57.7792,
      "duration": 0.1599,
      "velocity": 103,
      "chip": "ym2612"
    },
    {
      "channel": 4,
      "note": 98,
      "start": 57.7815,
      "duration": 0.1583,
      "velocity": 107,
      "chip": "ym2612"
    },
    {
      "channel": 5,
      "note": 43,
      "start": 57.7821,
      "duration": 0.2857,
      "velocity": 127,
      "chip": "ym2612"
    },
    {
      "channel": 0,
      "note": 47,
      "start": 57.9387,
      "duration": 0.1256,
      "velocity": 127,
      "chip": "ym2612"
    },
    {
      "channel": 1,
      "note": 88,
      "start": 57.9393,
      "duration": 0.1256,
      "velocity": 103,
      "chip": "ym2612"
    },
    {
      "channel": 4,
      "note": 98,
      "start": 57.9399,
      "duration": 0.1272,
      "velocity": 107,
      "chip": "ym2612"
    },
    {
      "channel": 0,
      "note": 50,
      "start": 58.0645,
      "duration": 0.1598,
      "velocity": 127,
      "chip": "ym2612"
    },
    {
      "channel": 1,
      "note": 87,
      "start": 58.0651,
      "duration": 0.1598,
      "velocity": 103,
      "chip": "ym2612"
    },
    {
      "channel": 4,
      "note": 98,
      "start": 58.0673,
      "duration": 0.1598,
      "velocity": 107,
      "chip": "ym2612"
    },
    {
      "channel": 5,
      "note": 43,
      "start": 58.068,
      "duration": 0.0767,
      "velocity": 127,
      "chip": "ym2612"
    },
    {
      "channel": 5,
      "note": 43,
      "start": 58.1449,
      "duration": 0.0829,
      "velocity": 127,
      "chip": "ym2612"
    },
    {
      "channel": 0,
      "note": 62,
      "start": 58.2245,
      "duration": 0.1598,
      "velocity": 127,
      "chip": "ym2612"
    },
    {
      "channel": 1,
      "note": 83,
      "start": 58.2251,
      "duration": 0.1598,
      "velocity": 103,
      "chip": "ym2612"
    },
    {
      "channel": 4,
      "note": 98,
      "start": 58.2273,
      "duration": 0.1582,
      "velocity": 107,
      "chip": "ym2612"
    },
    {
      "channel": 5,
      "note": 43,
      "start": 58.2279,
      "duration": 0.1582,
      "velocity": 127,
      "chip": "ym2612"
    },
    {
      "channel": 0,
      "note": 51,
      "start": 58.3845,
      "duration": 0.1598,
      "velocity": 127,
      "chip": "ym2612"
    },
    {
      "channel": 1,
      "note": 81,
      "start": 58.3851,
      "duration": 0.1599,
      "velocity": 103,
      "chip": "ym2612"
    },
    {
      "channel": 4,
      "note": 98,
      "start": 58.3858,
      "duration": 0.1598,
      "velocity": 107,
      "chip": "ym2612"
    },
    {
      "channel": 5,
      "note": 43,
      "start": 58.3863,
      "duration": 0.1598,
      "velocity": 127,
      "chip": "ym2612"
    },
    {
      "channel": 0,
      "note": 63,
      "start": 58.5445,
      "duration": 0.16,
      "velocity": 127,
      "chip": "ym2612"
    },
    {
      "channel": 1,
      "note": 78,
      "start": 58.5451,
      "duration": 0.1601,
      "velocity": 103,
      "chip": "ym2612"
    },
    {
      "channel": 4,
      "note": 98,
      "start": 58.5458,
      "duration": 0.1638,
      "velocity": 107,
      "chip": "ym2612"
    },
    {
      "channel": 5,
      "note": 43,
      "start": 58.5463,
      "duration": 0.4385,
      "velocity": 127,
      "chip": "ym2612"
    },
    {
      "channel": 0,
      "note": 55,
      "start": 58.7047,
      "duration": 0.1267,
      "velocity": 127,
      "chip": "ym2612"
    },
    {
      "channel": 1,
      "note": 79,
      "start": 58.7052,
      "duration": 1.9706,
      "velocity": 103,
      "chip": "ym2612"
    },
    {
      "channel": 2,
      "note": 98,
      "start": 58.7074,
      "duration": 0.1245,
      "velocity": 100,
      "chip": "ym2612"
    },
    {
      "channel": 4,
      "note": 98,
      "start": 58.7097,
      "duration": 0.1266,
      "velocity": 107,
      "chip": "ym2612"
    },
    {
      "channel": 0,
      "note": 55,
      "start": 58.8315,
      "duration": 0.31,
      "velocity": 127,
      "chip": "ym2612"
    },
    {
      "channel": 2,
      "note": 91,
      "start": 58.8321,
      "duration": 0.1494,
      "velocity": 100,
      "chip": "ym2612"
    },
    {
      "channel": 3,
      "note": 86,
      "start": 58.8343,
      "duration": 0.1478,
      "velocity": 100,
      "chip": "ym2612"
    },
    {
      "channel": 4,
      "note": 98,
      "start": 58.8364,
      "duration": 0.1478,
      "velocity": 107,
      "chip": "ym2612"
    },
    {
      "channel": 2,
      "note": 89,
      "start": 58.9817,
      "duration": 0.1619,
      "velocity": 100,
      "chip": "ym2612"
    },
    {
      "channel": 3,
      "note": 84,
      "start": 58.9822,
      "duration": 0.162,
      "velocity": 100,
      "chip": "ym2612"
    },
    {
      "channel": 4,
      "note": 98,
      "start": 58.9844,
      "duration": 0.1604,
      "velocity": 107,
      "chip": "ym2612"
    },
    {
      "channel": 5,
      "note": 43,
      "start": 58.985,
      "duration": 0.5624,
      "velocity": 127,
      "chip": "ym2612"
    },
    {
      "channel": 0,
      "note": 55,
      "start": 59.1416,
      "duration": 0.1262,
      "velocity": 127,
      "chip": "ym2612"
    },
    {
      "channel": 2,
      "note": 91,
      "start": 59.1438,
      "duration": 0.1247,
      "velocity": 100,
      "chip": "ym2612"
    },
    {
      "channel": 3,
      "note": 86,
      "start": 59.1444,
      "duration": 0.2512,
      "velocity": 100,
      "chip": "ym2612"
    },
    {
      "channel": 4,
      "note": 98,
      "start": 59.145,
      "duration": 0.1257,
      "velocity": 107,
      "chip": "ym2612"
    },
    {
      "channel": 0,
      "note": 60,
      "start": 59.268,
      "duration": 0.1264,
      "velocity": 127,
      "chip": "ym2612"
    },
    {
      "channel": 2,
      "note": 98,
      "start": 59.2687,
      "duration": 0.1263,
      "velocity": 100,
      "chip": "ym2612"
    },
    {
      "channel": 4,
      "note": 98,
      "start": 59.2708,
      "duration": 0.1269,
      "velocity": 107,
      "chip": "ym2612"
    },
    {
      "channel": 0,
      "note": 62,
      "start": 59.3946,
      "duration": 0.311,
      "velocity": 127,
      "chip": "ym2612"
    },
    {
      "channel": 2,
      "note": 91,
      "start": 59.3952,
      "duration": 0.1505,
      "velocity": 100,
      "chip": "ym2612"
    },
    {
      "channel": 3,
      "note": 86,
      "start": 59.3957,
      "duration": 0.1506,
      "velocity": 100,
      "chip": "ym2612"
    },
    {
      "channel": 4,
      "note": 98,
      "start": 59.3979,
      "duration": 0.1489,
      "velocity": 107,
      "chip": "ym2612"
    },
    {
      "channel": 2,
      "note": 89,
      "start": 59.5459,
      "duration": 0.1603,
      "velocity": 100,
      "chip": "ym2612"
    },
    {
      "channel": 3,
      "note": 84,
      "start": 59.5464,
      "duration": 0.1604,
      "velocity": 100,
      "chip": "ym2612"
    },
    {
      "channel": 4,
      "note": 98,
      "start": 59.547,
      "duration": 0.1604,
      "velocity": 107,
      "chip": "ym2612"
    },
    {
      "channel": 5,
      "note": 43,
      "start": 59.5476,
      "duration": 0.5657,
      "velocity": 127,
      "chip": "ym2612"
    },
    {
      "channel": 0,
      "note": 53,
      "start": 59.7058,
      "duration": 0.2771,
      "velocity": 127,
      "chip": "ym2612"
    },
    {
      "channel": 2,
      "note": 91,
      "start": 59.7064,
      "duration": 0.125,
      "velocity": 100,
      "chip": "ym2612"
    },
    {
      "channel": 3,
      "note": 86,
      "start": 59.707,
      "duration": 0.125,
      "velocity": 100,
      "chip": "ym2612"
    },
    {
      "channel": 4,
      "note": 98,
      "start": 59.7075,
      "duration": 0.125,
      "velocity": 107,
      "chip": "ym2612"
    },
    {
      "channel": 2,
      "note": 98,
      "start": 59.8316,
      "duration": 0.1519,
      "velocity": 100,
      "chip": "ym2612"
    },
    {
      "channel": 3,
      "note": 79,
      "start": 59.8322,
      "duration": 0.1519,
      "velocity": 100,
      "chip": "ym2612"
    },
    {
      "channel": 4,
      "note": 98,
      "start": 59.8327,
      "duration": 0.1535,
      "velocity": 107,
      "chip": "ym2612"
    },
    {
      "channel": 0,
      "note": 53,
      "start": 59.983,
      "duration": 0.2868,
      "velocity": 127,
      "chip": "ym2612"
    },
    {
      "channel": 2,
      "note": 91,
      "start": 59.9837,
      "duration": 0.1263,
      "velocity": 100,
      "chip": "ym2612"
    },
    {
      "channel": 3,
      "note": 86,
      "start": 59.9843,
      "duration": 0.1263,
      "velocity": 100,
      "chip": "ym2612"
    },
    {
      "channel": 4,
      "note": 98,
      "start": 59.9864,
      "duration": 0.1263,
      "velocity": 107,
      "chip": "ym2612"
    },
    {
      "channel": 2,
      "note": 89,
      "start": 60.1102,
      "duration": 0.1603,
      "velocity": 100,
      "chip": "ym2612"
    },
    {
      "channel": 3,
      "note": 84,
      "start": 60.1107,
      "duration": 0.1603,
      "velocity": 100,
      "chip": "ym2612"
    },
    {
      "channel": 4,
      "note": 98,
      "start": 60.1128,
      "duration": 0.1588,
      "velocity": 107,
      "chip": "ym2612"
    },
    {
      "channel": 5,
      "note": 43,
      "start": 60.1134,
      "duration": 0.5646,
      "velocity": 127,
      "chip": "ym2612"
    },
    {
      "channel": 0,
      "note": 53,
      "start": 60.27,
      "duration": 0.1258,
      "velocity": 127,
      "chip": "ym2612"
    },
    {
      "channel": 2,
      "note": 91,
      "start": 60.2707,
      "duration": 0.1257,
      "velocity": 100,
      "chip": "ym2612"
    },
    {
      "channel": 3,
      "note": 86,
      "start": 60.2712,
      "duration": 0.2523,
      "velocity": 100,
      "chip": "ym2612"
    },
    {
      "channel": 4,
      "note": 98,
      "start": 60.2718,
      "duration": 0.1268,
      "velocity": 107,
      "chip": "ym2612"
    },
    {
      "channel": 0,
      "note": 58,
      "start": 60.396,
      "duration": 0.1264,
      "velocity": 127,
      "chip": "ym2612"
    },
    {
      "channel": 2,
      "note": 98,
      "start": 60.3966,
      "duration": 0.1264,
      "velocity": 100,
      "chip": "ym2612"
    },
    {
      "channel": 4,
      "note": 98,
      "start": 60.3988,
      "duration": 0.1269,
      "velocity": 107,
      "chip": "ym2612"
    },
    {
      "channel": 0,
      "note": 60,
      "start": 60.5226,
      "duration": 0.1511,
      "velocity": 127,
      "chip": "ym2612"
    },
    {
      "channel": 2,
      "note": 91,
      "start": 60.5232,
      "duration": 0.1532,
      "velocity": 100,
      "chip": "ym2612"
    },
    {
      "channel": 3,
      "note": 86,
      "start": 60.5237,
      "duration": 0.1532,
      "velocity": 100,
      "chip": "ym2612"
    },
    {
      "channel": 4,
      "note": 98,
      "start": 60.5259,
      "duration": 0.1516,
      "velocity": 107,
      "chip": "ym2612"
    },
    {
      "channel": 0,
      "note": 58,
      "start": 60.6738,
      "duration": 0.1598,
      "velocity": 127,
      "chip": "ym2612"
    },
    {
      "channel": 1,
      "note": 65,
      "start": 60.676,
      "duration": 0.1582,
      "velocity": 103,
      "chip": "ym2612"
    },
    {
      "channel": 2,
      "note": 89,
      "start": 60.6765,
      "duration": 0.1582,
      "velocity": 100,
      "chip": "ym2612"
    },
    {
      "channel": 3,
      "note": 84,
      "start": 60.6771,
      "duration": 0.1582,
      "velocity": 100,
      "chip": "ym2612"
    },
    {
      "channel": 4,
      "note": 98,
      "start": 60.6777,
      "duration": 0.1582,
      "velocity": 107,
      "chip": "ym2612"
    },
    {
      "channel": 5,
      "note": 43,
      "start": 60.6783,
      "duration": 0.0757,
      "velocity": 127,
      "chip": "ym2612"
    },
    {
      "channel": 5,
      "note": 43,
      "start": 60.7541,
      "duration": 0.0823,
      "velocity": 127,
      "chip": "ym2612"
    },
    {
      "channel": 0,
      "note": 60,
      "start": 60.8338,
      "duration": 0.1598,
      "velocity": 127,
      "chip": "ym2612"
    },
    {
      "channel": 1,
      "note": 67,
      "start": 60.8344,
      "duration": 0.1599,
      "velocity": 103,
      "chip": "ym2612"
    },
    {
      "channel": 2,
      "note": 91,
      "start": 60.8349,
      "duration": 0.1598,
      "velocity": 100,
      "chip": "ym2612"
    },
    {
      "channel": 3,
      "note": 86,
      "start": 60.8355,
      "duration": 0.1598,
      "velocity": 100,
      "chip": "ym2612"
    },
    {
      "channel": 4,
      "note": 98,
      "start": 60.8361,
      "duration": 0.1598,
      "velocity": 107,
      "chip": "ym2612"
    },
    {
      "channel": 5,
      "note": 43,
      "start": 60.8366,
      "duration": 0.437,
      "velocity": 127,
      "chip": "ym2612"
    },
    {
      "channel": 0,
      "note": 55,
      "start": 60.9938,
      "duration": 0.1251,
      "velocity": 127,
      "chip": "ym2612"
    },
    {
      "channel": 1,
      "note": 55,
      "start": 60.9944,
      "duration": 2.2904,
      "velocity": 112,
      "chip": "ym2612"
    },
    {
      "channel": 2,
      "note": 98,
      "start": 60.9949,
      "duration": 0.1246,
      "velocity": 100,
      "chip": "ym2612"
    },
    {
      "channel": 3,
      "note": 79,
      "start": 60.9955,
      "duration": 0.1246,
      "velocity": 100,
      "chip": "ym2612"
    },
    {
      "channel": 4,
      "note": 98,
      "start": 60.9961,
      "duration": 0.1262,
      "velocity": 107,
      "chip": "ym2612"
    },
    {
      "channel": 0,
      "note": 55,
      "start": 61.1191,
      "duration": 0.3111,
      "velocity": 127,
      "chip": "ym2612"
    },
    {
      "channel": 2,
      "note": 91,
      "start": 61.1198,
      "duration": 0.1505,
      "velocity": 100,
      "chip": "ym2612"
    },
    {
      "channel": 3,
      "note": 86,
      "start": 61.1203,
      "duration": 0.1506,
      "velocity": 100,
      "chip": "ym2612"
    },
    {
      "channel": 4,
      "note": 98,
      "start": 61.1224,
      "duration": 0.1505,
      "velocity": 107,
      "chip": "ym2612"
    },
    {
      "channel": 2,
      "note": 89,
      "start": 61.2705,
      "duration": 0.1619,
      "velocity": 100,
      "chip": "ym2612"
    },
    {
      "channel": 3,
      "note": 84,
      "start": 61.271,
      "duration": 0.162,
      "velocity": 100,
      "chip": "ym2612"
    },
    {
      "channel": 4,
      "note": 98,
      "start": 61.2732,
      "duration": 0.1604,
      "velocity": 107,
      "chip": "ym2612"
    },
    {
      "channel": 5,
      "note": 43,
      "start": 61.2737,
      "duration": 0.5625,
      "velocity": 127,
      "chip": "ym2612"
    },
    {
      "channel": 0,
      "note": 55,
      "start": 61.4304,
      "duration": 0.1265,
      "velocity": 127,
      "chip": "ym2612"
    },
    {
      "channel": 2,
      "note": 91,
      "start": 61.4326,
      "duration": 0.1249,
      "velocity": 100,
      "chip": "ym2612"
    },
    {
      "channel": 3,
      "note": 86,
      "start": 61.4332,
      "duration": 0.2513,
      "velocity": 100,
      "chip": "ym2612"
    },
    {
      "channel": 4,
      "note": 98,
      "start": 61.4337,
      "duration": 0.126,
      "velocity": 107,
      "chip": "ym2612"
    },
    {
      "channel": 0,
      "note": 60,
      "start": 61.5571,
      "duration": 0.1262,
      "velocity": 127,
      "chip": "ym2612"
    },
    {
      "channel": 2,
      "note": 98,
      "start": 61.5577,
      "duration": 0.1262,
      "velocity": 100,
      "chip": "ym2612"
    },
    {
      "channel": 4,
      "note": 98,
      "start": 61.5599,
      "duration": 0.1268,
      "velocity": 107,
      "chip": "ym2612"
    },
    {
      "channel": 0,
      "note": 62,
      "start": 61.6835,
      "duration": 0.311,
      "velocity": 127,
      "chip": "ym2612"
    },
    {
      "channel": 2,
      "note": 91,
      "start": 61.6841,
      "duration": 0.1505,
      "velocity": 100,
      "chip": "ym2612"
    },
    {
      "channel": 3,
      "note": 86,
      "start": 61.6846,
      "duration": 0.1505,
      "velocity": 100,
      "chip": "ym2612"
    },
    {
      "channel": 4,
      "note": 98,
      "start": 61.6868,
      "duration": 0.1489,
      "velocity": 107,
      "chip": "ym2612"
    },
    {
      "channel": 2,
      "note": 89,
      "start": 61.8348,
      "duration": 0.1603,
      "velocity": 100,
      "chip": "ym2612"
    },
    {
      "channel": 3,
      "note": 84,
      "start": 61.8353,
      "duration": 0.1604,
      "velocity": 100,
      "chip": "ym2612"
    },
    {
      "channel": 4,
      "note": 98,
      "start": 61.8359,
      "duration": 0.1604,
      "velocity": 107,
      "chip": "ym2612"
    },
    {
      "channel": 5,
      "note": 43,
      "start": 61.8364,
      "duration": 0.566,
      "velocity": 127,
      "chip": "ym2612"
    },
    {
      "channel": 0,
      "note": 53,
      "start": 61.9946,
      "duration": 0.2771,
      "velocity": 127,
      "chip": "ym2612"
    },
    {
      "channel": 2,
      "note": 91,
      "start": 61.9953,
      "duration": 0.125,
      "velocity": 100,
      "chip": "ym2612"
    },
    {
      "channel": 3,
      "note": 86,
      "start": 61.9959,
      "duration": 0.125,
      "velocity": 100,
      "chip": "ym2612"
    },
    {
      "channel": 4,
      "note": 98,
      "start": 61.9964,
      "duration": 0.125,
      "velocity": 107,
      "chip": "ym2612"
    },
    {
      "channel": 2,
      "note": 98,
      "start": 62.1204,
      "duration": 0.1519,
      "velocity": 100,
      "chip": "ym2612"
    },
    {
      "channel": 3,
      "note": 77,
      "start": 62.121,
      "duration": 0.1519,
      "velocity": 100,
      "chip": "ym2612"
    },
    {
      "channel": 4,
      "note": 98,
      "start": 62.1216,
      "duration": 0.1534,
      "velocity": 107,
      "chip": "ym2612"
    },
    {
      "channel": 0,
      "note": 53,
      "start": 62.2719,
      "duration": 0.2872,
      "velocity": 127,
      "chip": "ym2612"
    },
    {
      "channel": 2,
      "note": 91,
      "start": 62.2725,
      "duration": 0.1266,
      "velocity": 100,
      "chip": "ym2612"
    },
    {
      "channel": 3,
      "note": 86,
      "start": 62.2731,
      "duration": 0.1266,
      "velocity": 100,
      "chip": "ym2612"
    },
    {
      "channel": 4,
      "note": 98,
      "start": 62.2752,
      "duration": 0.1266,
      "velocity": 107,
      "chip": "ym2612"
    },
    {
      "channel": 2,
      "note": 88,
      "start": 62.3993,
      "duration": 0.1603,
      "velocity": 100,
      "chip": "ym2612"
    },
    {
      "channel": 3,
      "note": 84,
      "start": 62.3999,
      "duration": 0.1603,
      "velocity": 100,
      "chip": "ym2612"
    },
    {
      "channel": 4,
      "note": 98,
      "start": 62.402,
      "duration": 0.1588,
      "velocity": 107,
      "chip": "ym2612"
    },
    {
      "channel": 5,
      "note": 43,
      "start": 62.4026,
      "duration": 0.5622,
      "velocity": 127,
      "chip": "ym2612"
    },
    {
      "channel": 0,
      "note": 53,
      "start": 62.5592,
      "duration": 0.1259,
      "velocity": 127,
      "chip": "ym2612"
    },
    {
      "channel": 2,
      "note": 91,
      "start": 62.5599,
      "duration": 0.1259,
      "velocity": 100,
      "chip": "ym2612"
    },
    {
      "channel": 3,
      "note": 86,
      "start": 62.5604,
      "duration": 0.1258,
      "velocity": 100,
      "chip": "ym2612"
    },
    {
      "channel": 4,
      "note": 98,
      "start": 62.561,
      "duration": 0.1274,
      "velocity": 107,
      "chip": "ym2612"
    },
    {
      "channel": 0,
      "note": 58,
      "start": 62.6853,
      "duration": 0.1258,
      "velocity": 127,
      "chip": "ym2612"
    },
    {
      "channel": 2,
      "note": 98,
      "start": 62.6859,
      "duration": 0.1259,
      "velocity": 100,
      "chip": "ym2612"
    },
    {
      "channel": 3,
      "note": 76,
      "start": 62.6864,
      "duration": 0.1259,
      "velocity": 100,
      "chip": "ym2612"
    },
    {
      "channel": 4,
      "note": 98,
      "start": 62.6886,
      "duration": 0.1258,
      "velocity": 107,
      "chip": "ym2612"
    },
    {
      "channel": 0,
      "note": 60,
      "start": 62.8113,
      "duration": 0.1513,
      "velocity": 127,
      "chip": "ym2612"
    },
    {
      "channel": 2,
      "note": 91,
      "start": 62.8119,
      "duration": 0.1512,
      "velocity": 100,
      "chip": "ym2612"
    },
    {
      "channel": 3,
      "note": 86,
      "start": 62.8124,
      "duration": 0.1513,
      "velocity": 100,
      "chip": "ym2612"
    },
    {
      "channel": 4,
      "note": 98,
      "start": 62.8146,
      "duration": 0.1497,
      "velocity": 107,
      "chip": "ym2612"
    },
    {
      "channel": 0,
      "note": 58,
      "start": 62.9627,
      "duration": 0.1598,
      "velocity": 127,
      "chip": "ym2612"
    },
    {
      "channel": 2,
      "note": 88,
      "start": 62.9633,
      "duration": 0.1598,
      "velocity": 100,
      "chip": "ym2612"
    },
    {
      "channel": 3,
      "note": 84,
      "start": 62.9639,
      "duration": 0.1598,
      "velocity": 100,
      "chip": "ym2612"
    },
    {
      "channel": 4,
      "note": 98,
      "start": 62.9644,
      "duration": 0.1599,
      "velocity": 107,
      "chip": "ym2612"
    },
    {
      "channel": 5,
      "note": 43,
      "start": 62.965,
      "duration": 0.0779,
      "velocity": 127,
      "chip": "ym2612"
    },
    {
      "channel": 5,
      "note": 43,
      "start": 63.043,
      "duration": 0.0818,
      "velocity": 127,
      "chip": "ym2612"
    },
    {
      "channel": 0,
      "note": 60,
      "start": 63.1227,
      "duration": 0.16,
      "velocity": 127,
      "chip": "ym2612"
    },
    {
      "channel": 2,
      "note": 91,
      "start": 63.1233,
      "duration": 0.162,
      "velocity": 100,
      "chip": "ym2612"
    },
    {
      "channel": 3,
      "note": 86,
      "start": 63.1239,
      "duration": 0.2869,
      "velocity": 100,
      "chip": "ym2612"
    },
    {
      "channel": 4,
      "note": 98,
      "start": 63.1244,
      "duration": 0.1632,
      "velocity": 107,
      "chip": "ym2612"
    },
    {
      "channel": 5,
      "note": 43,
      "start": 63.125,
      "duration": 0.4383,
      "velocity": 127,
      "chip": "ym2612"
    },
    {
      "channel": 0,
      "note": 55,
      "start": 63.2828,
      "duration": 0.1268,
      "velocity": 127,
      "chip": "ym2612"
    },
    {
      "channel": 1,
      "note": 21,
      "start": 63.2849,
      "duration": 0.2745,
      "velocity": 112,
      "chip": "ym2612"
    },
    {
      "channel": 2,
      "note": 98,
      "start": 63.2855,
      "duration": 0.1246,
      "velocity": 100,
      "chip": "ym2612"
    },
    {
      "channel": 4,
      "note": 98,
      "start": 63.2878,
      "duration": 0.125,
      "velocity": 107,
      "chip": "ym2612"
    },
    {
      "channel": 0,
      "note": 55,
      "start": 63.4097,
      "duration": 0.3096,
      "velocity": 127,
      "chip": "ym2612"
    },
    {
      "channel": 2,
      "note": 91,
      "start": 63.4103,
      "duration": 0.1495,
      "velocity": 100,
      "chip": "ym2612"
    },
    {
      "channel": 3,
      "note": 86,
      "start": 63.411,
      "duration": 0.1495,
      "velocity": 100,
      "chip": "ym2612"
    },
    {
      "channel": 4,
      "note": 98,
      "start": 63.4131,
      "duration": 0.1495,
      "velocity": 107,
      "chip": "ym2612"
    },
    {
      "channel": 1,
      "note": 31,
      "start": 63.5595,
      "duration": 7.1336,
      "velocity": 112,
      "chip": "ym2612"
    },
    {
      "channel": 2,
      "note": 89,
      "start": 63.5601,
      "duration": 7.133,
      "velocity": 100,
      "chip": "ym2612"
    },
    {
      "channel": 3,
      "note": 84,
      "start": 63.5606,
      "duration": 7.1324,
      "velocity": 100,
      "chip": "ym2612"
    },
    {
      "channel": 4,
      "note": 98,
      "start": 63.5627,
      "duration": 7.1303,
      "velocity": 107,
      "chip": "ym2612"
    },
    {
      "channel": 5,
      "note": 43,
      "start": 63.5634,
      "duration": 7.1297,
      "velocity": 127,
      "chip": "ym2612"
    },
    {
      "channel": 0,
      "note": 55,
      "start": 63.7194,
      "duration": 6.9737,
      "velocity": 127,
      "chip": "ym2612"
    }
  ]
}