{
  "track_name": "20 - Reamer",
  "duration_sec": 114.227,
  "sample_rate": 44100,
  "note_count": 1535,
  "unique_pitches": 31,
  "pitch_range": 51,
  "avg_note_duration": 0.2726,
  "reconstruction_stats": {
    "notes_reconstructed": 1535,
    "keyon_events": 1535,
    "keyoff_events": 1084,
    "orphan_keyons": 1,
    "unique_pitches": 31,
    "pitch_range": 51,
    "avg_duration_sec": 0.2726
  },
  "metadata": {
    "source": "X\\Xenon - Mugen no Shitai\\20 - Reamer.vgz"
  },
  "notes": [
    {
      "channel": 3,
      "note": 55,
      "start": 0.0082,
      "duration": 0.0797,
      "velocity": 102,
      "chip": "ym2612"
    },
    {
      "channel": 4,
      "note": 60,
      "start": 0.0397,
      "duration": 0.0483,
      "velocity": 102,
      "chip": "ym2612"
    },
    {
      "channel": 5,
      "note": 62,
      "start": 0.072,
      "duration": 0.0161,
      "velocity": 102,
      "chip": "ym2612"
    },
    {
      "channel": 0,
      "note": 48,
      "start": 0.1047,
      "duration": 2.3436,
      "velocity": 107,
      "chip": "ym2612"
    },
    {
      "channel": 1,
      "note": 29,
      "start": 0.1055,
      "duration": 0.5843,
      "velocity": 107,
      "chip": "ym2612"
    },
    {
      "channel": 2,
      "note": -1,
      "start": 0.1061,
      "duration": 0.2868,
      "velocity": 87,
      "chip": "ym2612"
    },
    {
      "channel": 4,
      "note": 60,
      "start": 0.1069,
      "duration": 0.162,
      "velocity": 102,
      "chip": "ym2612"
    },
    {
      "channel": 5,
      "note": 55,
      "start": 0.1071,
      "duration": 0.1619,
      "velocity": 102,
      "chip": "ym2612"
    },
    {
      "channel": 3,
      "note": 64,
      "start": 0.1205,
      "duration": 0.1733,
      "velocity": 102,
      "chip": "ym2612"
    },
    {
      "channel": 2,
      "note": 63,
      "start": 0.3929,
      "duration": 0.0741,
      "velocity": 87,
      "chip": "ym2612"
    },
    {
      "channel": 2,
      "note": 63,
      "start": 0.467,
      "duration": 0.0249,
      "velocity": 87,
      "chip": "ym2612"
    },
    {
      "channel": 2,
      "note": 63,
      "start": 0.4919,
      "duration": 0.2723,
      "velocity": 87,
      "chip": "ym2612"
    },
    {
      "channel": 5,
      "note": 55,
      "start": 0.4924,
      "duration": 0.173,
      "velocity": 102,
      "chip": "ym2612"
    },
    {
      "channel": 1,
      "note": 80,
      "start": 0.6905,
      "duration": 0.5938,
      "velocity": 127,
      "chip": "ym2612"
    },
    {
      "channel": 4,
      "note": 60,
      "start": 0.691,
      "duration": 0.1724,
      "velocity": 102,
      "chip": "ym2612"
    },
    {
      "channel": 5,
      "note": 55,
      "start": 0.6911,
      "duration": 0.1723,
      "velocity": 102,
      "chip": "ym2612"
    },
    {
      "channel": 3,
      "note": 64,
      "start": 0.7149,
      "duration": 0.1732,
      "velocity": 102,
      "chip": "ym2612"
    },
    {
      "channel": 2,
      "note": 64,
      "start": 0.7642,
      "duration": 0.0249,
      "velocity": 87,
      "chip": "ym2612"
    },
    {
      "channel": 2,
      "note": 67,
      "start": 0.7891,
      "duration": 2.5509,
      "velocity": 87,
      "chip": "ym2612"
    },
    {
      "channel": 5,
      "note": 55,
      "start": 1.0866,
      "duration": 0.1732,
      "velocity": 102,
      "chip": "ym2612"
    },
    {
      "channel": 1,
      "note": 80,
      "start": 1.2844,
      "duration": 0.5942,
      "velocity": 127,
      "chip": "ym2612"
    },
    {
      "channel": 4,
      "note": 60,
      "start": 1.2849,
      "duration": 0.1731,
      "velocity": 102,
      "chip": "ym2612"
    },
    {
      "channel": 5,
      "note": 55,
      "start": 1.285,
      "duration": 0.173,
      "velocity": 102,
      "chip": "ym2612"
    },
    {
      "channel": 3,
      "note": 64,
      "start": 1.3095,
      "duration": 0.1733,
      "velocity": 102,
      "chip": "ym2612"
    },
    {
      "channel": 5,
      "note": 55,
      "start": 1.681,
      "duration": 0.1732,
      "velocity": 102,
      "chip": "ym2612"
    },
    {
      "channel": 1,
      "note": 80,
      "start": 1.8788,
      "duration": 0.3961,
      "velocity": 127,
      "chip": "ym2612"
    },
    {
      "channel": 4,
      "note": 60,
      "start": 1.8792,
      "duration": 0.1731,
      "velocity": 102,
      "chip": "ym2612"
    },
    {
      "channel": 5,
      "note": 55,
      "start": 1.8794,
      "duration": 0.173,
      "velocity": 102,
      "chip": "ym2612"
    },
    {
      "channel": 3,
      "note": 64,
      "start": 1.9038,
      "duration": 0.1732,
      "velocity": 102,
      "chip": "ym2612"
    },
    {
      "channel": 1,
      "note": 29,
      "start": 2.2757,
      "duration": 0.1976,
      "velocity": 107,
      "chip": "ym2612"
    },
    {
      "channel": 5,
      "note": 55,
      "start": 2.2762,
      "duration": 0.1725,
      "velocity": 102,
      "chip": "ym2612"
    },
    {
      "channel": 0,
      "note": 47,
      "start": 2.4732,
      "duration": 2.3529,
      "velocity": 107,
      "chip": "ym2612"
    },
    {
      "channel": 1,
      "note": 29,
      "start": 2.4734,
      "duration": 0.5941,
      "velocity": 107,
      "chip": "ym2612"
    },
    {
      "channel": 4,
      "note": 59,
      "start": 2.4738,
      "duration": 0.173,
      "velocity": 102,
      "chip": "ym2612"
    },
    {
      "channel": 5,
      "note": 55,
      "start": 2.474,
      "duration": 0.1729,
      "velocity": 102,
      "chip": "ym2612"
    },
    {
      "channel": 3,
      "note": 62,
      "start": 2.4983,
      "duration": 0.1732,
      "velocity": 102,
      "chip": "ym2612"
    },
    {
      "channel": 5,
      "note": 55,
      "start": 2.87,
      "duration": 0.1732,
      "velocity": 102,
      "chip": "ym2612"
    },
    {
      "channel": 1,
      "note": 80,
      "start": 3.0682,
      "duration": 0.5937,
      "velocity": 127,
      "chip": "ym2612"
    },
    {
      "channel": 4,
      "note": 59,
      "start": 3.0687,
      "duration": 0.1725,
      "velocity": 102,
      "chip": "ym2612"
    },
    {
      "channel": 5,
      "note": 55,
      "start": 3.0688,
      "duration": 0.1724,
      "velocity": 102,
      "chip": "ym2612"
    },
    {
      "channel": 3,
      "note": 62,
      "start": 3.0927,
      "duration": 0.1732,
      "velocity": 102,
      "chip": "ym2612"
    },
    {
      "channel": 2,
      "note": 67,
      "start": 3.34,
      "duration": 0.0249,
      "velocity": 87,
      "chip": "ym2612"
    },
    {
      "channel": 2,
      "note": 67,
      "start": 3.3649,
      "duration": 0.2723,
      "velocity": 87,
      "chip": "ym2612"
    },
    {
      "channel": 5,
      "note": 55,
      "start": 3.4643,
      "duration": 0.1732,
      "velocity": 102,
      "chip": "ym2612"
    },
    {
      "channel": 2,
      "note": 67,
      "start": 3.6372,
      "duration": 0.0001,
      "velocity": 87,
      "chip": "ym2612"
    },
    {
      "channel": 1,
      "note": 80,
      "start": 3.6621,
      "duration": 0.3961,
      "velocity": 127,
      "chip": "ym2612"
    },
    {
      "channel": 2,
      "note": 67,
      "start": 3.6623,
      "duration": 0.0002,
      "velocity": 87,
      "chip": "ym2612"
    },
    {
      "channel": 2,
      "note": 64,
      "start": 3.6624,
      "duration": 0.2722,
      "velocity": 87,
      "chip": "ym2612"
    },
    {
      "channel": 4,
      "note": 59,
      "start": 3.6626,
      "duration": 0.1729,
      "velocity": 102,
      "chip": "ym2612"
    },
    {
      "channel": 5,
      "note": 55,
      "start": 3.6628,
      "duration": 0.1728,
      "velocity": 102,
      "chip": "ym2612"
    },
    {
      "channel": 3,
      "note": 62,
      "start": 3.6871,
      "duration": 0.1733,
      "velocity": 102,
      "chip": "ym2612"
    },
    {
      "channel": 2,
      "note": 67,
      "start": 3.9346,
      "duration": 0.0248,
      "velocity": 87,
      "chip": "ym2612"
    },
    {
      "channel": 2,
      "note": 68,
      "start": 3.9594,
      "duration": 0.0741,
      "velocity": 87,
      "chip": "ym2612"
    },
    {
      "channel": 2,
      "note": 68,
      "start": 4.0335,
      "duration": 0.0256,
      "velocity": 87,
      "chip": "ym2612"
    },
    {
      "channel": 1,
      "note": 29,
      "start": 4.059,
      "duration": 0.1974,
      "velocity": 107,
      "chip": "ym2612"
    },
    {
      "channel": 2,
      "note": 68,
      "start": 4.0591,
      "duration": 0.2717,
      "velocity": 87,
      "chip": "ym2612"
    },
    {
      "channel": 5,
      "note": 55,
      "start": 4.0596,
      "duration": 0.1723,
      "velocity": 102,
      "chip": "ym2612"
    },
    {
      "channel": 1,
      "note": 56,
      "start": 4.2571,
      "duration": 0.3956,
      "velocity": 117,
      "chip": "ym2612"
    },
    {
      "channel": 4,
      "note": 59,
      "start": 4.2576,
      "duration": 0.1725,
      "velocity": 102,
      "chip": "ym2612"
    },
    {
      "channel": 5,
      "note": 55,
      "start": 4.2577,
      "duration": 0.1724,
      "velocity": 102,
      "chip": "ym2612"
    },
    {
      "channel": 3,
      "note": 62,
      "start": 4.2815,
      "duration": 0.1732,
      "velocity": 102,
      "chip": "ym2612"
    },
    {
      "channel": 2,
      "note": 67,
      "start": 4.3308,
      "duration": 0.0249,
      "velocity": 87,
      "chip": "ym2612"
    },
    {
      "channel": 2,
      "note": 64,
      "start": 4.3557,
      "duration": 0.2725,
      "velocity": 87,
      "chip": "ym2612"
    },
    {
      "channel": 2,
      "note": 62,
      "start": 4.6283,
      "duration": 0.0253,
      "velocity": 87,
      "chip": "ym2612"
    },
    {
      "channel": 1,
      "note": 80,
      "start": 4.6534,
      "duration": 0.1976,
      "velocity": 111,
      "chip": "ym2612"
    },
    {
      "channel": 2,
      "note": 62,
      "start": 4.6536,
      "duration": 0.1725,
      "velocity": 87,
      "chip": "ym2612"
    },
    {
      "channel": 5,
      "note": 55,
      "start": 4.6539,
      "duration": 0.1724,
      "velocity": 102,
      "chip": "ym2612"
    },
    {
      "channel": 2,
      "note": 62,
      "start": 4.8261,
      "duration": 0.0258,
      "velocity": 87,
      "chip": "ym2612"
    },
    {
      "channel": 0,
      "note": 46,
      "start": 4.8509,
      "duration": 4.7306,
      "velocity": 107,
      "chip": "ym2612"
    },
    {
      "channel": 1,
      "note": 29,
      "start": 4.8517,
      "duration": 0.5936,
      "velocity": 107,
      "chip": "ym2612"
    },
    {
      "channel": 2,
      "note": 62,
      "start": 4.8518,
      "duration": 0.0734,
      "velocity": 87,
      "chip": "ym2612"
    },
    {
      "channel": 4,
      "note": 58,
      "start": 4.8521,
      "duration": 0.1724,
      "velocity": 102,
      "chip": "ym2612"
    },
    {
      "channel": 5,
      "note": 55,
      "start": 4.8523,
      "duration": 0.1722,
      "velocity": 102,
      "chip": "ym2612"
    },
    {
      "channel": 3,
      "note": 62,
      "start": 4.876,
      "duration": 0.1733,
      "velocity": 102,
      "chip": "ym2612"
    },
    {
      "channel": 2,
      "note": 62,
      "start": 4.9253,
      "duration": 0.0252,
      "velocity": 87,
      "chip": "ym2612"
    },
    {
      "channel": 2,
      "note": 60,
      "start": 4.9505,
      "duration": 0.173,
      "velocity": 87,
      "chip": "ym2612"
    },
    {
      "channel": 2,
      "note": 60,
      "start": 5.1234,
      "duration": 0.0249,
      "velocity": 87,
      "chip": "ym2612"
    },
    {
      "channel": 2,
      "note": 60,
      "start": 5.1483,
      "duration": 0.0741,
      "velocity": 87,
      "chip": "ym2612"
    },
    {
      "channel": 2,
      "note": 60,
      "start": 5.2224,
      "duration": 0.0249,
      "velocity": 87,
      "chip": "ym2612"
    },
    {
      "channel": 2,
      "note": 60,
      "start": 5.2473,
      "duration": 0.2723,
      "velocity": 87,
      "chip": "ym2612"
    },
    {
      "channel": 5,
      "note": 55,
      "start": 5.2478,
      "duration": 0.173,
      "velocity": 102,
      "chip": "ym2612"
    },
    {
      "channel": 1,
      "note": 80,
      "start": 5.446,
      "duration": 0.5939,
      "velocity": 127,
      "chip": "ym2612"
    },
    {
      "channel": 4,
      "note": 58,
      "start": 5.4464,
      "duration": 0.1725,
      "velocity": 102,
      "chip": "ym2612"
    },
    {
      "channel": 5,
      "note": 55,
      "start": 5.4465,
      "duration": 0.1724,
      "velocity": 102,
      "chip": "ym2612"
    },
    {
      "channel": 3,
      "note": 62,
      "start": 5.4704,
      "duration": 0.1733,
      "velocity": 102,
      "chip": "ym2612"
    },
    {
      "channel": 2,
      "note": 60,
      "start": 5.5197,
      "duration": 0.0249,
      "velocity": 87,
      "chip": "ym2612"
    },
    {
      "channel": 2,
      "note": 57,
      "start": 5.5446,
      "duration": 3.4426,
      "velocity": 87,
      "chip": "ym2612"
    },
    {
      "channel": 5,
      "note": 55,
      "start": 5.842,
      "duration": 0.1732,
      "velocity": 102,
      "chip": "ym2612"
    },
    {
      "channel": 1,
      "note": 80,
      "start": 6.04,
      "duration": 0.5941,
      "velocity": 127,
      "chip": "ym2612"
    },
    {
      "channel": 4,
      "note": 58,
      "start": 6.0404,
      "duration": 0.1729,
      "velocity": 102,
      "chip": "ym2612"
    },
    {
      "channel": 5,
      "note": 55,
      "start": 6.0405,
      "duration": 0.1728,
      "velocity": 102,
      "chip": "ym2612"
    },
    {
      "channel": 3,
      "note": 62,
      "start": 6.0648,
      "duration": 0.1733,
      "velocity": 102,
      "chip": "ym2612"
    },
    {
      "channel": 5,
      "note": 55,
      "start": 6.4365,
      "duration": 0.1732,
      "velocity": 102,
      "chip": "ym2612"
    },
    {
      "channel": 1,
      "note": 80,
      "start": 6.6342,
      "duration": 0.3961,
      "velocity": 127,
      "chip": "ym2612"
    },
    {
      "channel": 4,
      "note": 58,
      "start": 6.6347,
      "duration": 0.1731,
      "velocity": 102,
      "chip": "ym2612"
    },
    {
      "channel": 5,
      "note": 55,
      "start": 6.6348,
      "duration": 0.1729,
      "velocity": 102,
      "chip": "ym2612"
    },
    {
      "channel": 3,
      "note": 62,
      "start": 6.6593,
      "duration": 0.1732,
      "velocity": 102,
      "chip": "ym2612"
    },
    {
      "channel": 1,
      "note": 29,
      "start": 7.0311,
      "duration": 0.1974,
      "velocity": 107,
      "chip": "ym2612"
    },
    {
      "channel": 5,
      "note": 55,
      "start": 7.0317,
      "duration": 0.1725,
      "velocity": 102,
      "chip": "ym2612"
    },
    {
      "channel": 1,
      "note": 29,
      "start": 7.2287,
      "duration": 0.5943,
      "velocity": 107,
      "chip": "ym2612"
    },
    {
      "channel": 4,
      "note": 58,
      "start": 7.2291,
      "duration": 0.1731,
      "velocity": 102,
      "chip": "ym2612"
    },
    {
      "channel": 5,
      "note": 55,
      "start": 7.2293,
      "duration": 0.173,
      "velocity": 102,
      "chip": "ym2612"
    },
    {
      "channel": 3,
      "note": 64,
      "start": 7.2538,
      "duration": 0.1733,
      "velocity": 102,
      "chip": "ym2612"
    },
    {
      "channel": 5,
      "note": 55,
      "start": 7.6254,
      "duration": 0.1732,
      "velocity": 102,
      "chip": "ym2612"
    },
    {
      "channel": 1,
      "note": 80,
      "start": 7.8237,
      "duration": 0.5937,
      "velocity": 127,
      "chip": "ym2612"
    },
    {
      "channel": 4,
      "note": 58,
      "start": 7.8241,
      "duration": 0.1725,
      "velocity": 102,
      "chip": "ym2612"
    },
    {
      "channel": 5,
      "note": 55,
      "start": 7.8243,
      "duration": 0.1724,
      "velocity": 102,
      "chip": "ym2612"
    },
    {
      "channel": 3,
      "note": 64,
      "start": 7.8481,
      "duration": 0.1732,
      "velocity": 102,
      "chip": "ym2612"
    },
    {
      "channel": 5,
      "note": 55,
      "start": 8.2198,
      "duration": 0.1732,
      "velocity": 102,
      "chip": "ym2612"
    },
    {
      "channel": 1,
      "note": 80,
      "start": 8.4176,
      "duration": 0.3961,
      "velocity": 127,
      "chip": "ym2612"
    },
    {
      "channel": 4,
      "note": 58,
      "start": 8.418,
      "duration": 0.1731,
      "velocity": 102,
      "chip": "ym2612"
    },
    {
      "channel": 5,
      "note": 55,
      "start": 8.4181,
      "duration": 0.173,
      "velocity": 102,
      "chip": "ym2612"
    },
    {
      "channel": 3,
      "note": 64,
      "start": 8.4426,
      "duration": 0.1732,
      "velocity": 102,
      "chip": "ym2612"
    },
    {
      "channel": 1,
      "note": 29,
      "start": 8.8144,
      "duration": 0.1974,
      "velocity": 107,
      "chip": "ym2612"
    },
    {
      "channel": 5,
      "note": 55,
      "start": 8.815,
      "duration": 0.1725,
      "velocity": 102,
      "chip": "ym2612"
    },
    {
      "channel": 2,
      "note": 58,
      "start": 8.9871,
      "duration": 0.2231,
      "velocity": 87,
      "chip": "ym2612"
    },
    {
      "channel": 1,
      "note": 63,
      "start": 9.0126,
      "duration": 0.3956,
      "velocity": 120,
      "chip": "ym2612"
    },
    {
      "channel": 4,
      "note": 58,
      "start": 9.013,
      "duration": 0.1725,
      "velocity": 102,
      "chip": "ym2612"
    },
    {
      "channel": 5,
      "note": 55,
      "start": 9.0131,
      "duration": 0.1724,
      "velocity": 102,
      "chip": "ym2612"
    },
    {
      "channel": 3,
      "note": 64,
      "start": 9.037,
      "duration": 0.1734,
      "velocity": 102,
      "chip": "ym2612"
    },
    {
      "channel": 2,
      "note": 57,
      "start": 9.2102,
      "duration": 0.0743,
      "velocity": 87,
      "chip": "ym2612"
    },
    {
      "channel": 2,
      "note": 57,
      "start": 9.2845,
      "duration": 0.099,
      "velocity": 87,
      "chip": "ym2612"
    },
    {
      "channel": 1,
      "note": 80,
      "start": 9.4088,
      "duration": 0.1976,
      "velocity": 127,
      "chip": "ym2612"
    },
    {
      "channel": 2,
      "note": 57,
      "start": 9.409,
      "duration": 0.0984,
      "velocity": 87,
      "chip": "ym2612"
    },
    {
      "channel": 5,
      "note": 55,
      "start": 9.4093,
      "duration": 0.1725,
      "velocity": 102,
      "chip": "ym2612"
    },
    {
      "channel": 2,
      "note": 52,
      "start": 9.5075,
      "duration": 0.0741,
      "velocity": 87,
      "chip": "ym2612"
    },
    {
      "channel": 2,
      "note": 52,
      "start": 9.5815,
      "duration": 0.0258,
      "velocity": 87,
      "chip": "ym2612"
    },
    {
      "channel": 0,
      "note": 53,
      "start": 9.6064,
      "duration": 2.3528,
      "velocity": 107,
      "chip": "ym2612"
    },
    {
      "channel": 1,
      "note": 29,
      "start": 9.6071,
      "duration": 0.5936,
      "velocity": 107,
      "chip": "ym2612"
    },
    {
      "channel": 2,
      "note": 52,
      "start": 9.6073,
      "duration": 0.0734,
      "velocity": 87,
      "chip": "ym2612"
    },
    {
      "channel": 4,
      "note": 60,
      "start": 9.6077,
      "duration": 0.1724,
      "velocity": 102,
      "chip": "ym2612"
    },
    {
      "channel": 5,
      "note": 55,
      "start": 9.6078,
      "duration": 0.1723,
      "velocity": 102,
      "chip": "ym2612"
    },
    {
      "channel": 3,
      "note": 64,
      "start": 9.6315,
      "duration": 0.1732,
      "velocity": 102,
      "chip": "ym2612"
    },
    {
      "channel": 2,
      "note": 53,
      "start": 9.6807,
      "duration": 0.0249,
      "velocity": 87,
      "chip": "ym2612"
    },
    {
      "channel": 2,
      "note": 55,
      "start": 9.7057,
      "duration": 0.1732,
      "velocity": 87,
      "chip": "ym2612"
    },
    {
      "channel": 2,
      "note": 55,
      "start": 9.8789,
      "duration": 0.0249,
      "velocity": 87,
      "chip": "ym2612"
    },
    {
      "channel": 2,
      "note": 57,
      "start": 9.9038,
      "duration": 0.0741,
      "velocity": 87,
      "chip": "ym2612"
    },
    {
      "channel": 2,
      "note": 57,
      "start": 9.9779,
      "duration": 0.2237,
      "velocity": 87,
      "chip": "ym2612"
    },
    {
      "channel": 5,
      "note": 55,
      "start": 10.0031,
      "duration": 0.1731,
      "velocity": 102,
      "chip": "ym2612"
    },
    {
      "channel": 1,
      "note": 80,
      "start": 10.2014,
      "duration": 0.5937,
      "velocity": 127,
      "chip": "ym2612"
    },
    {
      "channel": 2,
      "note": 57,
      "start": 10.2016,
      "duration": 0.0735,
      "velocity": 87,
      "chip": "ym2612"
    },
    {
      "channel": 4,
      "note": 60,
      "start": 10.2019,
      "duration": 0.1723,
      "velocity": 102,
      "chip": "ym2612"
    },
    {
      "channel": 5,
      "note": 55,
      "start": 10.2021,
      "duration": 0.1722,
      "velocity": 102,
      "chip": "ym2612"
    },
    {
      "channel": 3,
      "note": 64,
      "start": 10.2258,
      "duration": 0.1732,
      "velocity": 102,
      "chip": "ym2612"
    },
    {
      "channel": 2,
      "note": 57,
      "start": 10.2751,
      "duration": 0.2231,
      "velocity": 87,
      "chip": "ym2612"
    },
    {
      "channel": 2,
      "note": 63,
      "start": 10.4982,
      "duration": 0.2722,
      "velocity": 87,
      "chip": "ym2612"
    },
    {
      "channel": 5,
      "note": 55,
      "start": 10.5976,
      "duration": 0.1731,
      "velocity": 102,
      "chip": "ym2612"
    },
    {
      "channel": 2,
      "note": 64,
      "start": 10.7704,
      "duration": 0.0251,
      "velocity": 87,
      "chip": "ym2612"
    },
    {
      "channel": 1,
      "note": 80,
      "start": 10.7953,
      "duration": 0.5943,
      "velocity": 127,
      "chip": "ym2612"
    },
    {
      "channel": 2,
      "note": 64,
      "start": 10.7954,
      "duration": 0.2722,
      "velocity": 87,
      "chip": "ym2612"
    },
    {
      "channel": 4,
      "note": 60,
      "start": 10.7957,
      "duration": 0.173,
      "velocity": 102,
      "chip": "ym2612"
    },
    {
      "channel": 5,
      "note": 55,
      "start": 10.7959,
      "duration": 0.1729,
      "velocity": 102,
      "chip": "ym2612"
    },
    {
      "channel": 3,
      "note": 64,
      "start": 10.8202,
      "duration": 0.1732,
      "velocity": 102,
      "chip": "ym2612"
    },
    {
      "channel": 2,
      "note": 64,
      "start": 11.0677,
      "duration": 0.0249,
      "velocity": 87,
      "chip": "ym2612"
    },
    {
      "channel": 2,
      "note": 57,
      "start": 11.0926,
      "duration": 0.8667,
      "velocity": 87,
      "chip": "ym2612"
    },
    {
      "channel": 5,
      "note": 55,
      "start": 11.1919,
      "duration": 0.1732,
      "velocity": 102,
      "chip": "ym2612"
    },
    {
      "channel": 1,
      "note": 80,
      "start": 11.3897,
      "duration": 0.3961,
      "velocity": 127,
      "chip": "ym2612"
    },
    {
      "channel": 4,
      "note": 60,
      "start": 11.3901,
      "duration": 0.1731,
      "velocity": 102,
      "chip": "ym2612"
    },
    {
      "channel": 5,
      "note": 55,
      "start": 11.3902,
      "duration": 0.173,
      "velocity": 102,
      "chip": "ym2612"
    },
    {
      "channel": 3,
      "note": 64,
      "start": 11.4147,
      "duration": 0.1732,
      "velocity": 102,
      "chip": "ym2612"
    },
    {
      "channel": 1,
      "note": 29,
      "start": 11.7866,
      "duration": 0.1976,
      "velocity": 107,
      "chip": "ym2612"
    },
    {
      "channel": 5,
      "note": 55,
      "start": 11.7871,
      "duration": 0.1725,
      "velocity": 102,
      "chip": "ym2612"
    },
    {
      "channel": 2,
      "note": 58,
      "start": 11.9593,
      "duration": 0.0251,
      "velocity": 87,
      "chip": "ym2612"
    },
    {
      "channel": 0,
      "note": 55,
      "start": 11.9841,
      "duration": 2.3528,
      "velocity": 107,
      "chip": "ym2612"
    },
    {
      "channel": 1,
      "note": 29,
      "start": 11.9843,
      "duration": 0.5941,
      "velocity": 107,
      "chip": "ym2612"
    },
    {
      "channel": 2,
      "note": 57,
      "start": 11.9845,
      "duration": 0.2722,
      "velocity": 87,
      "chip": "ym2612"
    },
    {
      "channel": 4,
      "note": 59,
      "start": 11.9848,
      "duration": 0.1732,
      "velocity": 102,
      "chip": "ym2612"
    },
    {
      "channel": 5,
      "note": 55,
      "start": 11.9849,
      "duration": 0.1731,
      "velocity": 102,
      "chip": "ym2612"
    },
    {
      "channel": 3,
      "note": 64,
      "start": 12.0092,
      "duration": 0.1732,
      "velocity": 102,
      "chip": "ym2612"
    },
    {
      "channel": 2,
      "note": 57,
      "start": 12.2566,
      "duration": 0.0249,
      "velocity": 87,
      "chip": "ym2612"
    },
    {
      "channel": 2,
      "note": 57,
      "start": 12.2815,
      "duration": 0.2722,
      "velocity": 87,
      "chip": "ym2612"
    },
    {
      "channel": 5,
      "note": 55,
      "start": 12.3808,
      "duration": 0.1732,
      "velocity": 102,
      "chip": "ym2612"
    },
    {
      "channel": 2,
      "note": 57,
      "start": 12.5537,
      "duration": 0.0256,
      "velocity": 87,
      "chip": "ym2612"
    },
    {
      "channel": 1,
      "note": 80,
      "start": 12.5792,
      "duration": 0.5937,
      "velocity": 127,
      "chip": "ym2612"
    },
    {
      "channel": 2,
      "note": 57,
      "start": 12.5793,
      "duration": 0.2717,
      "velocity": 87,
      "chip": "ym2612"
    },
    {
      "channel": 4,
      "note": 59,
      "start": 12.5796,
      "duration": 0.1724,
      "velocity": 102,
      "chip": "ym2612"
    },
    {
      "channel": 5,
      "note": 55,
      "start": 12.5798,
      "duration": 0.1723,
      "velocity": 102,
      "chip": "ym2612"
    },
    {
      "channel": 3,
      "note": 64,
      "start": 12.6036,
      "duration": 0.1732,
      "velocity": 102,
      "chip": "ym2612"
    },
    {
      "channel": 2,
      "note": 57,
      "start": 12.851,
      "duration": 0.0249,
      "velocity": 87,
      "chip": "ym2612"
    },
    {
      "channel": 2,
      "note": 64,
      "start": 12.8759,
      "duration": 0.074,
      "velocity": 87,
      "chip": "ym2612"
    },
    {
      "channel": 2,
      "note": 64,
      "start": 12.95,
      "duration": 0.0249,
      "velocity": 87,
      "chip": "ym2612"
    },
    {
      "channel": 2,
      "note": 64,
      "start": 12.9749,
      "duration": 0.2724,
      "velocity": 87,
      "chip": "ym2612"
    },
    {
      "channel": 5,
      "note": 55,
      "start": 12.9753,
      "duration": 0.1731,
      "velocity": 102,
      "chip": "ym2612"
    },
    {
      "channel": 1,
      "note": 80,
      "start": 13.173,
      "duration": 0.3961,
      "velocity": 127,
      "chip": "ym2612"
    },
    {
      "channel": 4,
      "note": 59,
      "start": 13.1734,
      "duration": 0.1731,
      "velocity": 102,
      "chip": "ym2612"
    },
    {
      "channel": 5,
      "note": 55,
      "start": 13.1735,
      "duration": 0.173,
      "velocity": 102,
      "chip": "ym2612"
    },
    {
      "channel": 3,
      "note": 62,
      "start": 13.198,
      "duration": 0.1732,
      "velocity": 102,
      "chip": "ym2612"
    },
    {
      "channel": 2,
      "note": 64,
      "start": 13.2473,
      "duration": 0.0249,
      "velocity": 87,
      "chip": "ym2612"
    },
    {
      "channel": 2,
      "note": 55,
      "start": 13.2722,
      "duration": 0.8666,
      "velocity": 87,
      "chip": "ym2612"
    },
    {
      "channel": 1,
      "note": 29,
      "start": 13.5699,
      "duration": 0.1974,
      "velocity": 107,
      "chip": "ym2612"
    },
    {
      "channel": 5,
      "note": 55,
      "start": 13.5704,
      "duration": 0.1725,
      "velocity": 102,
      "chip": "ym2612"
    },
    {
      "channel": 1,
      "note": 56,
      "start": 13.768,
      "duration": 0.3956,
      "velocity": 117,
      "chip": "ym2612"
    },
    {
      "channel": 4,
      "note": 59,
      "start": 13.7684,
      "duration": 0.1725,
      "velocity": 102,
      "chip": "ym2612"
    },
    {
      "channel": 5,
      "note": 55,
      "start": 13.7686,
      "duration": 0.1724,
      "velocity": 102,
      "chip": "ym2612"
    },
    {
      "channel": 3,
      "note": 62,
      "start": 13.7924,
      "duration": 0.1733,
      "velocity": 102,
      "chip": "ym2612"
    },
    {
      "channel": 2,
      "note": 55,
      "start": 14.1388,
      "duration": 0.0256,
      "velocity": 87,
      "chip": "ym2612"
    },
    {
      "channel": 1,
      "note": 80,
      "start": 14.1643,
      "duration": 0.1976,
      "velocity": 111,
      "chip": "ym2612"
    },
    {
      "channel": 2,
      "note": 55,
      "start": 14.1645,
      "duration": 0.1725,
      "velocity": 87,
      "chip": "ym2612"
    },
    {
      "channel": 5,
      "note": 55,
      "start": 14.1649,
      "duration": 0.1724,
      "velocity": 102,
      "chip": "ym2612"
    },
    {
      "channel": 4,
      "note": 60,
      "start": 14.2383,
      "duration": 0.099,
      "velocity": 102,
      "chip": "ym2612"
    },
    {
      "channel": 3,
      "note": 62,
      "start": 14.3126,
      "duration": 0.0504,
      "velocity": 102,
      "chip": "ym2612"
    },
    {
      "channel": 2,
      "note": 55,
      "start": 14.337,
      "duration": 0.0258,
      "velocity": 87,
      "chip": "ym2612"
    },
    {
      "channel": 0,
      "note": 48,
      "start": 14.3618,
      "duration": 2.3529,
      "velocity": 107,
      "chip": "ym2612"
    },
    {
      "channel": 1,
      "note": 29,
      "start": 14.3626,
      "duration": 0.5936,
      "velocity": 107,
      "chip": "ym2612"
    },
    {
      "channel": 2,
      "note": 55,
      "start": 14.3628,
      "duration": 0.0734,
      "velocity": 87,
      "chip": "ym2612"
    },
    {
      "channel": 4,
      "note": 60,
      "start": 14.3631,
      "duration": 0.1723,
      "velocity": 102,
      "chip": "ym2612"
    },
    {
      "channel": 5,
      "note": 55,
      "start": 14.3632,
      "duration": 0.1722,
      "velocity": 102,
      "chip": "ym2612"
    },
    {
      "channel": 3,
      "note": 64,
      "start": 14.3869,
      "duration": 0.1732,
      "velocity": 102,
      "chip": "ym2612"
    },
    {
      "channel": 2,
      "note": 55,
      "start": 14.4362,
      "duration": 0.0249,
      "velocity": 87,
      "chip": "ym2612"
    },
    {
      "channel": 2,
      "note": 59,
      "start": 14.4611,
      "duration": 0.1732,
      "velocity": 87,
      "chip": "ym2612"
    },
    {
      "channel": 2,
      "note": 60,
      "start": 14.6344,
      "duration": 0.0249,
      "velocity": 87,
      "chip": "ym2612"
    },
    {
      "channel": 2,
      "note": 62,
      "start": 14.6593,
      "duration": 0.0741,
      "velocity": 87,
      "chip": "ym2612"
    },
    {
      "channel": 2,
      "note": 62,
      "start": 14.7333,
      "duration": 0.0249,
      "velocity": 87,
      "chip": "ym2612"
    },
    {
      "channel": 2,
      "note": 62,
      "start": 14.7582,
      "duration": 0.2723,
      "velocity": 87,
      "chip": "ym2612"
    },
    {
      "channel": 5,
      "note": 55,
      "start": 14.7586,
      "duration": 0.1731,
      "velocity": 102,
      "chip": "ym2612"
    },
    {
      "channel": 1,
      "note": 80,
      "start": 14.9569,
      "duration": 0.5937,
      "velocity": 127,
      "chip": "ym2612"
    },
    {
      "channel": 4,
      "note": 60,
      "start": 14.9573,
      "duration": 0.1725,
      "velocity": 102,
      "chip": "ym2612"
    },
    {
      "channel": 5,
      "note": 55,
      "start": 14.9574,
      "duration": 0.1724,
      "velocity": 102,
      "chip": "ym2612"
    },
    {
      "channel": 3,
      "note": 64,
      "start": 14.9813,
      "duration": 0.1732,
      "velocity": 102,
      "chip": "ym2612"
    },
    {
      "channel": 2,
      "note": 62,
      "start": 15.0306,
      "duration": 0.0249,
      "velocity": 87,
      "chip": "ym2612"
    },
    {
      "channel": 2,
      "note": 64,
      "start": 15.0555,
      "duration": 1.4611,
      "velocity": 87,
      "chip": "ym2612"
    },
    {
      "channel": 5,
      "note": 55,
      "start": 15.3529,
      "duration": 0.1732,
      "velocity": 102,
      "chip": "ym2612"
    },
    {
      "channel": 1,
      "note": 80,
      "start": 15.5507,
      "duration": 0.5943,
      "velocity": 127,
      "chip": "ym2612"
    },
    {
      "channel": 4,
      "note": 60,
      "start": 15.5511,
      "duration": 0.1731,
      "velocity": 102,
      "chip": "ym2612"
    },
    {
      "channel": 5,
      "note": 55,
      "start": 15.5513,
      "duration": 0.173,
      "velocity": 102,
      "chip": "ym2612"
    },
    {
      "channel": 3,
      "note": 64,
      "start": 15.5759,
      "duration": 0.1731,
      "velocity": 102,
      "chip": "ym2612"
    },
    {
      "channel": 5,
      "note": 55,
      "start": 15.9474,
      "duration": 0.1732,
      "velocity": 102,
      "chip": "ym2612"
    },
    {
      "channel": 1,
      "note": 80,
      "start": 16.1451,
      "duration": 0.3962,
      "velocity": 127,
      "chip": "ym2612"
    },
    {
      "channel": 4,
      "note": 60,
      "start": 16.1456,
      "duration": 0.1731,
      "velocity": 102,
      "chip": "ym2612"
    },
    {
      "channel": 5,
      "note": 55,
      "start": 16.1457,
      "duration": 0.173,
      "velocity": 102,
      "chip": "ym2612"
    },
    {
      "channel": 3,
      "note": 64,
      "start": 16.1702,
      "duration": 0.1732,
      "velocity": 102,
      "chip": "ym2612"
    },
    {
      "channel": 2,
      "note": 64,
      "start": 16.5166,
      "duration": 0.0257,
      "velocity": 87,
      "chip": "ym2612"
    },
    {
      "channel": 1,
      "note": 29,
      "start": 16.542,
      "duration": 0.1976,
      "velocity": 107,
      "chip": "ym2612"
    },
    {
      "channel": 2,
      "note": 64,
      "start": 16.5422,
      "duration": 0.1726,
      "velocity": 87,
      "chip": "ym2612"
    },
    {
      "channel": 5,
      "note": 55,
      "start": 16.5426,
      "duration": 0.1724,
      "velocity": 102,
      "chip": "ym2612"
    },
    {
      "channel": 2,
      "note": 64,
      "start": 16.7148,
      "duration": 0.0251,
      "velocity": 87,
      "chip": "ym2612"
    },
    {
      "channel": 0,
      "note": 46,
      "start": 16.7395,
      "duration": 1.164,
      "velocity": 107,
      "chip": "ym2612"
    },
    {
      "channel": 1,
      "note": 29,
      "start": 16.7398,
      "duration": 0.5941,
      "velocity": 107,
      "chip": "ym2612"
    },
    {
      "channel": 2,
      "note": 64,
      "start": 16.7399,
      "duration": 0.074,
      "velocity": 87,
      "chip": "ym2612"
    },
    {
      "channel": 4,
      "note": 58,
      "start": 16.7402,
      "duration": 0.1729,
      "velocity": 102,
      "chip": "ym2612"
    },
    {
      "channel": 5,
      "note": 55,
      "start": 16.7404,
      "duration": 0.1728,
      "velocity": 102,
      "chip": "ym2612"
    },
    {
      "channel": 3,
      "note": 64,
      "start": 16.7646,
      "duration": 0.1732,
      "velocity": 102,
      "chip": "ym2612"
    },
    {
      "channel": 2,
      "note": 64,
      "start": 16.8139,
      "duration": 0.0249,
      "velocity": 87,
      "chip": "ym2612"
    },
    {
      "channel": 2,
      "note": 66,
      "start": 16.8388,
      "duration": 0.1732,
      "velocity": 87,
      "chip": "ym2612"
    },
    {
      "channel": 2,
      "note": 67,
      "start": 17.0121,
      "duration": 0.0249,
      "velocity": 87,
      "chip": "ym2612"
    },
    {
      "channel": 2,
      "note": 64,
      "start": 17.037,
      "duration": 0.2722,
      "velocity": 87,
      "chip": "ym2612"
    },
    {
      "channel": 5,
      "note": 55,
      "start": 17.1364,
      "duration": 0.1731,
      "velocity": 102,
      "chip": "ym2612"
    },
    {
      "channel": 2,
      "note": 64,
      "start": 17.3092,
      "duration": 0.0256,
      "velocity": 87,
      "chip": "ym2612"
    },
    {
      "channel": 1,
      "note": 80,
      "start": 17.3346,
      "duration": 0.5939,
      "velocity": 127,
      "chip": "ym2612"
    },
    {
      "channel": 2,
      "note": 64,
      "start": 17.3348,
      "duration": 0.2717,
      "velocity": 87,
      "chip": "ym2612"
    },
    {
      "channel": 4,
      "note": 58,
      "start": 17.3351,
      "duration": 0.1724,
      "velocity": 102,
      "chip": "ym2612"
    },
    {
      "channel": 5,
      "note": 55,
      "start": 17.3353,
      "duration": 0.1723,
      "velocity": 102,
      "chip": "ym2612"
    },
    {
      "channel": 3,
      "note": 64,
      "start": 17.359,
      "duration": 0.1733,
      "velocity": 102,
      "chip": "ym2612"
    },
    {
      "channel": 2,
      "note": 64,
      "start": 17.6064,
      "duration": 0.0249,
      "velocity": 87,
      "chip": "ym2612"
    },
    {
      "channel": 2,
      "note": 63,
      "start": 17.6314,
      "duration": 0.0741,
      "velocity": 87,
      "chip": "ym2612"
    },
    {
      "channel": 2,
      "note": 63,
      "start": 17.7054,
      "duration": 0.0249,
      "velocity": 87,
      "chip": "ym2612"
    },
    {
      "channel": 2,
      "note": 63,
      "start": 17.7303,
      "duration": 0.2724,
      "velocity": 87,
      "chip": "ym2612"
    },
    {
      "channel": 5,
      "note": 55,
      "start": 17.7307,
      "duration": 0.1731,
      "velocity": 102,
      "chip": "ym2612"
    },
    {
      "channel": 0,
      "note": 47,
      "start": 17.9284,
      "duration": 1.164,
      "velocity": 107,
      "chip": "ym2612"
    },
    {
      "channel": 1,
      "note": 80,
      "start": 17.9286,
      "duration": 0.396,
      "velocity": 127,
      "chip": "ym2612"
    },
    {
      "channel": 4,
      "note": 59,
      "start": 17.929,
      "duration": 0.1729,
      "velocity": 102,
      "chip": "ym2612"
    },
    {
      "channel": 5,
      "note": 55,
      "start": 17.9291,
      "duration": 0.1728,
      "velocity": 102,
      "chip": "ym2612"
    },
    {
      "channel": 3,
      "note": 62,
      "start": 17.9534,
      "duration": 0.1732,
      "velocity": 102,
      "chip": "ym2612"
    },
    {
      "channel": 2,
      "note": 63,
      "start": 18.0027,
      "duration": 0.0249,
      "velocity": 87,
      "chip": "ym2612"
    },
    {
      "channel": 2,
      "note": 62,
      "start": 18.0277,
      "duration": 0.7676,
      "velocity": 87,
      "chip": "ym2612"
    },
    {
      "channel": 1,
      "note": 29,
      "start": 18.3253,
      "duration": 0.0983,
      "velocity": 107,
      "chip": "ym2612"
    },
    {
      "channel": 5,
      "note": 55,
      "start": 18.3258,
      "duration": 0.1725,
      "velocity": 102,
      "chip": "ym2612"
    },
    {
      "channel": 1,
      "note": 29,
      "start": 18.4238,
      "duration": 0.0989,
      "velocity": 107,
      "chip": "ym2612"
    },
    {
      "channel": 1,
      "note": 63,
      "start": 18.5235,
      "duration": 0.1974,
      "velocity": 120,
      "chip": "ym2612"
    },
    {
      "channel": 4,
      "note": 59,
      "start": 18.5239,
      "duration": 0.1726,
      "velocity": 102,
      "chip": "ym2612"
    },
    {
      "channel": 5,
      "note": 55,
      "start": 18.5241,
      "duration": 0.1724,
      "velocity": 102,
      "chip": "ym2612"
    },
    {
      "channel": 3,
      "note": 62,
      "start": 18.5479,
      "duration": 0.1734,
      "velocity": 102,
      "chip": "ym2612"
    },
    {
      "channel": 1,
      "note": 63,
      "start": 18.721,
      "duration": 0.198,
      "velocity": 120,
      "chip": "ym2612"
    },
    {
      "channel": 2,
      "note": 62,
      "start": 18.7953,
      "duration": 0.0249,
      "velocity": 87,
      "chip": "ym2612"
    },
    {
      "channel": 2,
      "note": 62,
      "start": 18.8202,
      "duration": 0.2723,
      "velocity": 87,
      "chip": "ym2612"
    },
    {
      "channel": 1,
      "note": 80,
      "start": 18.9198,
      "duration": 0.1976,
      "velocity": 111,
      "chip": "ym2612"
    },
    {
      "channel": 5,
      "note": 55,
      "start": 18.9202,
      "duration": 0.1725,
      "velocity": 102,
      "chip": "ym2612"
    },
    {
      "channel": 2,
      "note": 63,
      "start": 19.0924,
      "duration": 0.0001,
      "velocity": 87,
      "chip": "ym2612"
    },
    {
      "channel": 0,
      "note": 48,
      "start": 19.1173,
      "duration": 2.3528,
      "velocity": 107,
      "chip": "ym2612"
    },
    {
      "channel": 1,
      "note": 29,
      "start": 19.118,
      "duration": 0.5936,
      "velocity": 107,
      "chip": "ym2612"
    },
    {
      "channel": 2,
      "note": 62,
      "start": 19.1182,
      "duration": 0.0002,
      "velocity": 87,
      "chip": "ym2612"
    },
    {
      "channel": 2,
      "note": 59,
      "start": 19.1184,
      "duration": 0.2716,
      "velocity": 87,
      "chip": "ym2612"
    },
    {
      "channel": 4,
      "note": 60,
      "start": 19.1186,
      "duration": 0.1723,
      "velocity": 102,
      "chip": "ym2612"
    },
    {
      "channel": 5,
      "note": 55,
      "start": 19.1188,
      "duration": 0.1721,
      "velocity": 102,
      "chip": "ym2612"
    },
    {
      "channel": 3,
      "note": 64,
      "start": 19.1424,
      "duration": 0.1734,
      "velocity": 102,
      "chip": "ym2612"
    },
    {
      "channel": 2,
      "note": 62,
      "start": 19.39,
      "duration": 0.0247,
      "velocity": 87,
      "chip": "ym2612"
    },
    {
      "channel": 2,
      "note": 63,
      "start": 19.4147,
      "duration": 0.074,
      "velocity": 87,
      "chip": "ym2612"
    },
    {
      "channel": 2,
      "note": 63,
      "start": 19.4888,
      "duration": 0.0249,
      "velocity": 87,
      "chip": "ym2612"
    },
    {
      "channel": 2,
      "note": 63,
      "start": 19.5137,
      "duration": 0.2723,
      "velocity": 87,
      "chip": "ym2612"
    },
    {
      "channel": 5,
      "note": 55,
      "start": 19.5142,
      "duration": 0.1732,
      "velocity": 102,
      "chip": "ym2612"
    },
    {
      "channel": 1,
      "note": 80,
      "start": 19.7123,
      "duration": 0.5937,
      "velocity": 127,
      "chip": "ym2612"
    },
    {
      "channel": 4,
      "note": 60,
      "start": 19.7127,
      "duration": 0.1725,
      "velocity": 102,
      "chip": "ym2612"
    },
    {
      "channel": 5,
      "note": 55,
      "start": 19.7129,
      "duration": 0.1724,
      "velocity": 102,
      "chip": "ym2612"
    },
    {
      "channel": 3,
      "note": 64,
      "start": 19.7367,
      "duration": 0.1733,
      "velocity": 102,
      "chip": "ym2612"
    },
    {
      "channel": 2,
      "note": 64,
      "start": 19.786,
      "duration": 0.0249,
      "velocity": 87,
      "chip": "ym2612"
    },
    {
      "channel": 2,
      "note": 67,
      "start": 19.811,
      "duration": 2.5508,
      "velocity": 87,
      "chip": "ym2612"
    },
    {
      "channel": 5,
      "note": 55,
      "start": 20.1084,
      "duration": 0.1732,
      "velocity": 102,
      "chip": "ym2612"
    },
    {
      "channel": 1,
      "note": 80,
      "start": 20.3062,
      "duration": 0.5943,
      "velocity": 127,
      "chip": "ym2612"
    },
    {
      "channel": 4,
      "note": 60,
      "start": 20.3066,
      "duration": 0.1731,
      "velocity": 102,
      "chip": "ym2612"
    },
    {
      "channel": 5,
      "note": 55,
      "start": 20.3068,
      "duration": 0.173,
      "velocity": 102,
      "chip": "ym2612"
    },
    {
      "channel": 3,
      "note": 64,
      "start": 20.3312,
      "duration": 0.1732,
      "velocity": 102,
      "chip": "ym2612"
    },
    {
      "channel": 5,
      "note": 55,
      "start": 20.7029,
      "duration": 0.1732,
      "velocity": 102,
      "chip": "ym2612"
    },
    {
      "channel": 1,
      "note": 80,
      "start": 20.9006,
      "duration": 0.3961,
      "velocity": 127,
      "chip": "ym2612"
    },
    {
      "channel": 4,
      "note": 60,
      "start": 20.901,
      "duration": 0.1731,
      "velocity": 102,
      "chip": "ym2612"
    },
    {
      "channel": 5,
      "note": 55,
      "start": 20.9012,
      "duration": 0.1729,
      "velocity": 102,
      "chip": "ym2612"
    },
    {
      "channel": 3,
      "note": 64,
      "start": 20.9256,
      "duration": 0.1732,
      "velocity": 102,
      "chip": "ym2612"
    },
    {
      "channel": 1,
      "note": 29,
      "start": 21.2975,
      "duration": 0.1975,
      "velocity": 107,
      "chip": "ym2612"
    },
    {
      "channel": 5,
      "note": 55,
      "start": 21.298,
      "duration": 0.1725,
      "velocity": 102,
      "chip": "ym2612"
    },
    {
      "channel": 0,
      "note": 46,
      "start": 21.495,
      "duration": 2.3528,
      "velocity": 107,
      "chip": "ym2612"
    },
    {
      "channel": 1,
      "note": 29,
      "start": 21.4952,
      "duration": 0.5945,
      "velocity": 107,
      "chip": "ym2612"
    },
    {
      "channel": 4,
      "note": 58,
      "start": 21.4956,
      "duration": 0.173,
      "velocity": 102,
      "chip": "ym2612"
    },
    {
      "channel": 5,
      "note": 55,
      "start": 21.4958,
      "duration": 0.1729,
      "velocity": 102,
      "chip": "ym2612"
    },
    {
      "channel": 3,
      "note": 64,
      "start": 21.5203,
      "duration": 0.1731,
      "velocity": 102,
      "chip": "ym2612"
    },
    {
      "channel": 5,
      "note": 55,
      "start": 21.8918,
      "duration": 0.1731,
      "velocity": 102,
      "chip": "ym2612"
    },
    {
      "channel": 1,
      "note": 80,
      "start": 22.0904,
      "duration": 0.5934,
      "velocity": 127,
      "chip": "ym2612"
    },
    {
      "channel": 4,
      "note": 58,
      "start": 22.0909,
      "duration": 0.1721,
      "velocity": 102,
      "chip": "ym2612"
    },
    {
      "channel": 5,
      "note": 55,
      "start": 22.091,
      "duration": 0.172,
      "velocity": 102,
      "chip": "ym2612"
    },
    {
      "channel": 3,
      "note": 64,
      "start": 22.1145,
      "duration": 0.1732,
      "velocity": 102,
      "chip": "ym2612"
    },
    {
      "channel": 2,
      "note": 67,
      "start": 22.3618,
      "duration": 0.0249,
      "velocity": 87,
      "chip": "ym2612"
    },
    {
      "channel": 2,
      "note": 67,
      "start": 22.3867,
      "duration": 0.2723,
      "velocity": 87,
      "chip": "ym2612"
    },
    {
      "channel": 5,
      "note": 55,
      "start": 22.4861,
      "duration": 0.1732,
      "velocity": 102,
      "chip": "ym2612"
    },
    {
      "channel": 2,
      "note": 67,
      "start": 22.659,
      "duration": 0.0001,
      "velocity": 87,
      "chip": "ym2612"
    },
    {
      "channel": 1,
      "note": 80,
      "start": 22.6839,
      "duration": 0.3962,
      "velocity": 127,
      "chip": "ym2612"
    },
    {
      "channel": 2,
      "note": 67,
      "start": 22.6841,
      "duration": 0.0002,
      "velocity": 87,
      "chip": "ym2612"
    },
    {
      "channel": 2,
      "note": 64,
      "start": 22.6843,
      "duration": 0.272,
      "velocity": 87,
      "chip": "ym2612"
    },
    {
      "channel": 4,
      "note": 58,
      "start": 22.6845,
      "duration": 0.1729,
      "velocity": 102,
      "chip": "ym2612"
    },
    {
      "channel": 5,
      "note": 55,
      "start": 22.6846,
      "duration": 0.1728,
      "velocity": 102,
      "chip": "ym2612"
    },
    {
      "channel": 3,
      "note": 64,
      "start": 22.7089,
      "duration": 0.1734,
      "velocity": 102,
      "chip": "ym2612"
    },
    {
      "channel": 2,
      "note": 67,
      "start": 22.9563,
      "duration": 0.0249,
      "velocity": 87,
      "chip": "ym2612"
    },
    {
      "channel": 2,
      "note": 68,
      "start": 22.9812,
      "duration": 0.0741,
      "velocity": 87,
      "chip": "ym2612"
    },
    {
      "channel": 2,
      "note": 68,
      "start": 23.0553,
      "duration": 0.0257,
      "velocity": 87,
      "chip": "ym2612"
    },
    {
      "channel": 1,
      "note": 29,
      "start": 23.0808,
      "duration": 0.1974,
      "velocity": 107,
      "chip": "ym2612"
    },
    {
      "channel": 2,
      "note": 68,
      "start": 23.081,
      "duration": 0.2717,
      "velocity": 87,
      "chip": "ym2612"
    },
    {
      "channel": 5,
      "note": 55,
      "start": 23.0815,
      "duration": 0.1723,
      "velocity": 102,
      "chip": "ym2612"
    },
    {
      "channel": 1,
      "note": 56,
      "start": 23.2789,
      "duration": 0.3956,
      "velocity": 117,
      "chip": "ym2612"
    },
    {
      "channel": 4,
      "note": 58,
      "start": 23.2794,
      "duration": 0.1724,
      "velocity": 102,
      "chip": "ym2612"
    },
    {
      "channel": 5,
      "note": 55,
      "start": 23.2796,
      "duration": 0.1723,
      "velocity": 102,
      "chip": "ym2612"
    },
    {
      "channel": 3,
      "note": 64,
      "start": 23.3033,
      "duration": 0.1732,
      "velocity": 102,
      "chip": "ym2612"
    },
    {
      "channel": 2,
      "note": 67,
      "start": 23.3526,
      "duration": 0.0249,
      "velocity": 87,
      "chip": "ym2612"
    },
    {
      "channel": 2,
      "note": 64,
      "start": 23.3776,
      "duration": 0.2723,
      "velocity": 87,
      "chip": "ym2612"
    },
    {
      "channel": 2,
      "note": 62,
      "start": 23.6498,
      "duration": 0.0256,
      "velocity": 87,
      "chip": "ym2612"
    },
    {
      "channel": 1,
      "note": 80,
      "start": 23.6752,
      "duration": 0.1976,
      "velocity": 111,
      "chip": "ym2612"
    },
    {
      "channel": 2,
      "note": 62,
      "start": 23.6754,
      "duration": 0.1725,
      "velocity": 87,
      "chip": "ym2612"
    },
    {
      "channel": 5,
      "note": 55,
      "start": 23.6758,
      "duration": 0.1724,
      "velocity": 102,
      "chip": "ym2612"
    },
    {
      "channel": 2,
      "note": 62,
      "start": 23.8479,
      "duration": 0.0258,
      "velocity": 87,
      "chip": "ym2612"
    },
    {
      "channel": 0,
      "note": 45,
      "start": 23.8727,
      "duration": 2.3528,
      "velocity": 107,
      "chip": "ym2612"
    },
    {
      "channel": 1,
      "note": 29,
      "start": 23.8735,
      "duration": 0.5936,
      "velocity": 107,
      "chip": "ym2612"
    },
    {
      "channel": 2,
      "note": 62,
      "start": 23.8737,
      "duration": 0.0734,
      "velocity": 87,
      "chip": "ym2612"
    },
    {
      "channel": 4,
      "note": 57,
      "start": 23.874,
      "duration": 0.1723,
      "velocity": 102,
      "chip": "ym2612"
    },
    {
      "channel": 5,
      "note": 55,
      "start": 23.8741,
      "duration": 0.1722,
      "velocity": 102,
      "chip": "ym2612"
    },
    {
      "channel": 3,
      "note": 64,
      "start": 23.8978,
      "duration": 0.1733,
      "velocity": 102,
      "chip": "ym2612"
    },
    {
      "channel": 2,
      "note": 62,
      "start": 23.9471,
      "duration": 0.025,
      "velocity": 87,
      "chip": "ym2612"
    },
    {
      "channel": 2,
      "note": 60,
      "start": 23.9721,
      "duration": 0.1731,
      "velocity": 87,
      "chip": "ym2612"
    },
    {
      "channel": 2,
      "note": 60,
      "start": 24.1453,
      "duration": 0.0249,
      "velocity": 87,
      "chip": "ym2612"
    },
    {
      "channel": 2,
      "note": 60,
      "start": 24.1702,
      "duration": 0.0741,
      "velocity": 87,
      "chip": "ym2612"
    },
    {
      "channel": 2,
      "note": 60,
      "start": 24.2442,
      "duration": 0.0249,
      "velocity": 87,
      "chip": "ym2612"
    },
    {
      "channel": 2,
      "note": 60,
      "start": 24.2691,
      "duration": 0.2723,
      "velocity": 87,
      "chip": "ym2612"
    },
    {
      "channel": 5,
      "note": 55,
      "start": 24.2696,
      "duration": 0.173,
      "velocity": 102,
      "chip": "ym2612"
    },
    {
      "channel": 1,
      "note": 80,
      "start": 24.4678,
      "duration": 0.5937,
      "velocity": 127,
      "chip": "ym2612"
    },
    {
      "channel": 4,
      "note": 57,
      "start": 24.4682,
      "duration": 0.1725,
      "velocity": 102,
      "chip": "ym2612"
    },
    {
      "channel": 5,
      "note": 55,
      "start": 24.4683,
      "duration": 0.1724,
      "velocity": 102,
      "chip": "ym2612"
    },
    {
      "channel": 3,
      "note": 64,
      "start": 24.4922,
      "duration": 0.1732,
      "velocity": 102,
      "chip": "ym2612"
    },
    {
      "channel": 2,
      "note": 60,
      "start": 24.5415,
      "duration": 0.0249,
      "velocity": 87,
      "chip": "ym2612"
    },
    {
      "channel": 2,
      "note": 57,
      "start": 24.5664,
      "duration": 3.4425,
      "velocity": 87,
      "chip": "ym2612"
    },
    {
      "channel": 5,
      "note": 55,
      "start": 24.8638,
      "duration": 0.1732,
      "velocity": 102,
      "chip": "ym2612"
    },
    {
      "channel": 1,
      "note": 80,
      "start": 25.0616,
      "duration": 0.5943,
      "velocity": 127,
      "chip": "ym2612"
    },
    {
      "channel": 4,
      "note": 57,
      "start": 25.062,
      "duration": 0.1731,
      "velocity": 102,
      "chip": "ym2612"
    },
    {
      "channel": 5,
      "note": 55,
      "start": 25.0622,
      "duration": 0.173,
      "velocity": 102,
      "chip": "ym2612"
    },
    {
      "channel": 3,
      "note": 64,
      "start": 25.0866,
      "duration": 0.1734,
      "velocity": 102,
      "chip": "ym2612"
    },
    {
      "channel": 5,
      "note": 55,
      "start": 25.4583,
      "duration": 0.1732,
      "velocity": 102,
      "chip": "ym2612"
    },
    {
      "channel": 1,
      "note": 80,
      "start": 25.6561,
      "duration": 0.3961,
      "velocity": 127,
      "chip": "ym2612"
    },
    {
      "channel": 4,
      "note": 57,
      "start": 25.6565,
      "duration": 0.1731,
      "velocity": 102,
      "chip": "ym2612"
    },
    {
      "channel": 5,
      "note": 55,
      "start": 25.6566,
      "duration": 0.173,
      "velocity": 102,
      "chip": "ym2612"
    },
    {
      "channel": 3,
      "note": 64,
      "start": 25.6811,
      "duration": 0.1732,
      "velocity": 102,
      "chip": "ym2612"
    },
    {
      "channel": 1,
      "note": 29,
      "start": 26.0529,
      "duration": 0.1976,
      "velocity": 107,
      "chip": "ym2612"
    },
    {
      "channel": 5,
      "note": 55,
      "start": 26.0535,
      "duration": 0.1725,
      "velocity": 102,
      "chip": "ym2612"
    },
    {
      "channel": 0,
      "note": 53,
      "start": 26.2505,
      "duration": 2.3529,
      "velocity": 107,
      "chip": "ym2612"
    },
    {
      "channel": 1,
      "note": 29,
      "start": 26.2507,
      "duration": 0.5941,
      "velocity": 107,
      "chip": "ym2612"
    },
    {
      "channel": 4,
      "note": 60,
      "start": 26.2511,
      "duration": 0.173,
      "velocity": 102,
      "chip": "ym2612"
    },
    {
      "channel": 5,
      "note": 57,
      "start": 26.2512,
      "duration": 0.1729,
      "velocity": 102,
      "chip": "ym2612"
    },
    {
      "channel": 3,
      "note": 65,
      "start": 26.2756,
      "duration": 0.1732,
      "velocity": 102,
      "chip": "ym2612"
    },
    {
      "channel": 5,
      "note": 57,
      "start": 26.6472,
      "duration": 0.1731,
      "velocity": 102,
      "chip": "ym2612"
    },
    {
      "channel": 1,
      "note": 80,
      "start": 26.8455,
      "duration": 0.5937,
      "velocity": 127,
      "chip": "ym2612"
    },
    {
      "channel": 4,
      "note": 60,
      "start": 26.846,
      "duration": 0.1725,
      "velocity": 102,
      "chip": "ym2612"
    },
    {
      "channel": 5,
      "note": 57,
      "start": 26.8461,
      "duration": 0.1724,
      "velocity": 102,
      "chip": "ym2612"
    },
    {
      "channel": 3,
      "note": 65,
      "start": 26.87,
      "duration": 0.1732,
      "velocity": 102,
      "chip": "ym2612"
    },
    {
      "channel": 5,
      "note": 57,
      "start": 27.2416,
      "duration": 0.1732,
      "velocity": 102,
      "chip": "ym2612"
    },
    {
      "channel": 1,
      "note": 80,
      "start": 27.4394,
      "duration": 0.3961,
      "velocity": 127,
      "chip": "ym2612"
    },
    {
      "channel": 4,
      "note": 60,
      "start": 27.4398,
      "duration": 0.1731,
      "velocity": 102,
      "chip": "ym2612"
    },
    {
      "channel": 5,
      "note": 57,
      "start": 27.44,
      "duration": 0.173,
      "velocity": 102,
      "chip": "ym2612"
    },
    {
      "channel": 3,
      "note": 65,
      "start": 27.4644,
      "duration": 0.1732,
      "velocity": 102,
      "chip": "ym2612"
    },
    {
      "channel": 1,
      "note": 29,
      "start": 27.8363,
      "duration": 0.1974,
      "velocity": 107,
      "chip": "ym2612"
    },
    {
      "channel": 5,
      "note": 57,
      "start": 27.8368,
      "duration": 0.1725,
      "velocity": 102,
      "chip": "ym2612"
    },
    {
      "channel": 2,
      "note": 58,
      "start": 28.009,
      "duration": 0.2231,
      "velocity": 87,
      "chip": "ym2612"
    },
    {
      "channel": 1,
      "note": 63,
      "start": 28.0344,
      "duration": 0.3956,
      "velocity": 120,
      "chip": "ym2612"
    },
    {
      "channel": 4,
      "note": 60,
      "start": 28.0348,
      "duration": 0.1725,
      "velocity": 102,
      "chip": "ym2612"
    },
    {
      "channel": 5,
      "note": 57,
      "start": 28.035,
      "duration": 0.1724,
      "velocity": 102,
      "chip": "ym2612"
    },
    {
      "channel": 3,
      "note": 65,
      "start": 28.0588,
      "duration": 0.1734,
      "velocity": 102,
      "chip": "ym2612"
    },
    {
      "channel": 2,
      "note": 57,
      "start": 28.232,
      "duration": 0.0743,
      "velocity": 87,
      "chip": "ym2612"
    },
    {
      "channel": 2,
      "note": 57,
      "start": 28.3063,
      "duration": 0.099,
      "velocity": 87,
      "chip": "ym2612"
    },
    {
      "channel": 1,
      "note": 80,
      "start": 28.4307,
      "duration": 0.1976,
      "velocity": 127,
      "chip": "ym2612"
    },
    {
      "channel": 2,
      "note": 57,
      "start": 28.4308,
      "duration": 0.0985,
      "velocity": 87,
      "chip": "ym2612"
    },
    {
      "channel": 5,
      "note": 57,
      "start": 28.4312,
      "duration": 0.1725,
      "velocity": 102,
      "chip": "ym2612"
    },
    {
      "channel": 2,
      "note": 56,
      "start": 28.5293,
      "duration": 0.0741,
      "velocity": 87,
      "chip": "ym2612"
    },
    {
      "channel": 2,
      "note": 56,
      "start": 28.6034,
      "duration": 0.0258,
      "velocity": 87,
      "chip": "ym2612"
    },
    {
      "channel": 0,
      "note": 50,
      "start": 28.6282,
      "duration": 2.3529,
      "velocity": 107,
      "chip": "ym2612"
    },
    {
      "channel": 1,
      "note": 29,
      "start": 28.6289,
      "duration": 0.5936,
      "velocity": 107,
      "chip": "ym2612"
    },
    {
      "channel": 2,
      "note": 56,
      "start": 28.6291,
      "duration": 0.0734,
      "velocity": 87,
      "chip": "ym2612"
    },
    {
      "channel": 4,
      "note": 62,
      "start": 28.6295,
      "duration": 0.1723,
      "velocity": 102,
      "chip": "ym2612"
    },
    {
      "channel": 5,
      "note": 57,
      "start": 28.6297,
      "duration": 0.1722,
      "velocity": 102,
      "chip": "ym2612"
    },
    {
      "channel": 3,
      "note": 65,
      "start": 28.6533,
      "duration": 0.1733,
      "velocity": 102,
      "chip": "ym2612"
    },
    {
      "channel": 2,
      "note": 57,
      "start": 28.7026,
      "duration": 0.0249,
      "velocity": 87,
      "chip": "ym2612"
    },
    {
      "channel": 2,
      "note": 59,
      "start": 28.7275,
      "duration": 0.1732,
      "velocity": 87,
      "chip": "ym2612"
    },
    {
      "channel": 2,
      "note": 59,
      "start": 28.9007,
      "duration": 0.025,
      "velocity": 87,
      "chip": "ym2612"
    },
    {
      "channel": 2,
      "note": 60,
      "start": 28.9257,
      "duration": 3.0956,
      "velocity": 87,
      "chip": "ym2612"
    },
    {
      "channel": 5,
      "note": 57,
      "start": 29.0249,
      "duration": 0.1732,
      "velocity": 102,
      "chip": "ym2612"
    },
    {
      "channel": 1,
      "note": 80,
      "start": 29.2232,
      "duration": 0.5937,
      "velocity": 127,
      "chip": "ym2612"
    },
    {
      "channel": 4,
      "note": 62,
      "start": 29.2237,
      "duration": 0.1725,
      "velocity": 102,
      "chip": "ym2612"
    },
    {
      "channel": 5,
      "note": 57,
      "start": 29.2238,
      "duration": 0.1724,
      "velocity": 102,
      "chip": "ym2612"
    },
    {
      "channel": 3,
      "note": 65,
      "start": 29.2477,
      "duration": 0.1732,
      "velocity": 102,
      "chip": "ym2612"
    },
    {
      "channel": 5,
      "note": 57,
      "start": 29.6196,
      "duration": 0.1729,
      "velocity": 102,
      "chip": "ym2612"
    },
    {
      "channel": 1,
      "note": 80,
      "start": 29.8171,
      "duration": 0.5943,
      "velocity": 127,
      "chip": "ym2612"
    },
    {
      "channel": 4,
      "note": 62,
      "start": 29.8175,
      "duration": 0.1731,
      "velocity": 102,
      "chip": "ym2612"
    },
    {
      "channel": 5,
      "note": 57,
      "start": 29.8177,
      "duration": 0.1729,
      "velocity": 102,
      "chip": "ym2612"
    },
    {
      "channel": 3,
      "note": 65,
      "start": 29.8421,
      "duration": 0.1733,
      "velocity": 102,
      "chip": "ym2612"
    },
    {
      "channel": 5,
      "note": 57,
      "start": 30.2138,
      "duration": 0.1732,
      "velocity": 102,
      "chip": "ym2612"
    },
    {
      "channel": 1,
      "note": 80,
      "start": 30.4115,
      "duration": 0.3961,
      "velocity": 127,
      "chip": "ym2612"
    },
    {
      "channel": 4,
      "note": 62,
      "start": 30.412,
      "duration": 0.1731,
      "velocity": 102,
      "chip": "ym2612"
    },
    {
      "channel": 5,
      "note": 57,
      "start": 30.4121,
      "duration": 0.173,
      "velocity": 102,
      "chip": "ym2612"
    },
    {
      "channel": 3,
      "note": 65,
      "start": 30.4366,
      "duration": 0.1732,
      "velocity": 102,
      "chip": "ym2612"
    },
    {
      "channel": 1,
      "note": 29,
      "start": 30.8084,
      "duration": 0.1975,
      "velocity": 107,
      "chip": "ym2612"
    },
    {
      "channel": 5,
      "note": 57,
      "start": 30.809,
      "duration": 0.1725,
      "velocity": 102,
      "chip": "ym2612"
    },
    {
      "channel": 0,
      "note": 55,
      "start": 31.0059,
      "duration": 2.3528,
      "velocity": 107,
      "chip": "ym2612"
    },
    {
      "channel": 1,
      "note": 29,
      "start": 31.0061,
      "duration": 0.5941,
      "velocity": 107,
      "chip": "ym2612"
    },
    {
      "channel": 4,
      "note": 62,
      "start": 31.0065,
      "duration": 0.173,
      "velocity": 102,
      "chip": "ym2612"
    },
    {
      "channel": 5,
      "note": 57,
      "start": 31.0067,
      "duration": 0.1729,
      "velocity": 102,
      "chip": "ym2612"
    },
    {
      "channel": 3,
      "note": 65,
      "start": 31.031,
      "duration": 0.1732,
      "velocity": 102,
      "chip": "ym2612"
    },
    {
      "channel": 5,
      "note": 57,
      "start": 31.4027,
      "duration": 0.1731,
      "velocity": 102,
      "chip": "ym2612"
    },
    {
      "channel": 1,
      "note": 80,
      "start": 31.601,
      "duration": 0.5937,
      "velocity": 127,
      "chip": "ym2612"
    },
    {
      "channel": 4,
      "note": 62,
      "start": 31.6014,
      "duration": 0.1725,
      "velocity": 102,
      "chip": "ym2612"
    },
    {
      "channel": 5,
      "note": 57,
      "start": 31.6016,
      "duration": 0.1724,
      "velocity": 102,
      "chip": "ym2612"
    },
    {
      "channel": 3,
      "note": 65,
      "start": 31.6254,
      "duration": 0.1732,
      "velocity": 102,
      "chip": "ym2612"
    },
    {
      "channel": 5,
      "note": 57,
      "start": 31.9971,
      "duration": 0.1731,
      "velocity": 102,
      "chip": "ym2612"
    },
    {
      "channel": 2,
      "note": 60,
      "start": 32.0213,
      "duration": 0.0249,
      "velocity": 87,
      "chip": "ym2612"
    },
    {
      "channel": 2,
      "note": 60,
      "start": 32.0463,
      "duration": 0.2724,
      "velocity": 87,
      "chip": "ym2612"
    },
    {
      "channel": 1,
      "note": 80,
      "start": 32.1948,
      "duration": 0.3961,
      "velocity": 127,
      "chip": "ym2612"
    },
    {
      "channel": 4,
      "note": 62,
      "start": 32.1953,
      "duration": 0.173,
      "velocity": 102,
      "chip": "ym2612"
    },
    {
      "channel": 5,
      "note": 57,
      "start": 32.1955,
      "duration": 0.1729,
      "velocity": 102,
      "chip": "ym2612"
    },
    {
      "channel": 3,
      "note": 65,
      "start": 32.2198,
      "duration": 0.1732,
      "velocity": 102,
      "chip": "ym2612"
    },
    {
      "channel": 2,
      "note": 60,
      "start": 32.3186,
      "duration": 0.0249,
      "velocity": 87,
      "chip": "ym2612"
    },
    {
      "channel": 2,
      "note": 60,
      "start": 32.3436,
      "duration": 0.718,
      "velocity": 87,
      "chip": "ym2612"
    },
    {
      "channel": 1,
      "note": 29,
      "start": 32.5917,
      "duration": 0.1974,
      "velocity": 107,
      "chip": "ym2612"
    },
    {
      "channel": 5,
      "note": 57,
      "start": 32.5922,
      "duration": 0.1725,
      "velocity": 102,
      "chip": "ym2612"
    },
    {
      "channel": 1,
      "note": 56,
      "start": 32.7898,
      "duration": 0.3956,
      "velocity": 117,
      "chip": "ym2612"
    },
    {
      "channel": 4,
      "note": 62,
      "start": 32.7902,
      "duration": 0.1725,
      "velocity": 102,
      "chip": "ym2612"
    },
    {
      "channel": 5,
      "note": 57,
      "start": 32.7904,
      "duration": 0.1724,
      "velocity": 102,
      "chip": "ym2612"
    },
    {
      "channel": 3,
      "note": 65,
      "start": 32.8143,
      "duration": 0.1733,
      "velocity": 102,
      "chip": "ym2612"
    },
    {
      "channel": 2,
      "note": 63,
      "start": 33.0616,
      "duration": 0.0249,
      "velocity": 87,
      "chip": "ym2612"
    },
    {
      "channel": 2,
      "note": 63,
      "start": 33.0865,
      "duration": 0.2723,
      "velocity": 87,
      "chip": "ym2612"
    },
    {
      "channel": 1,
      "note": 80,
      "start": 33.1861,
      "duration": 0.1976,
      "velocity": 111,
      "chip": "ym2612"
    },
    {
      "channel": 5,
      "note": 57,
      "start": 33.1866,
      "duration": 0.1725,
      "velocity": 102,
      "chip": "ym2612"
    },
    {
      "channel": 2,
      "note": 63,
      "start": 33.3588,
      "duration": 0.0001,
      "velocity": 87,
      "chip": "ym2612"
    },
    {
      "channel": 0,
      "note": 48,
      "start": 33.3837,
      "duration": 4.7306,
      "velocity": 107,
      "chip": "ym2612"
    },
    {
      "channel": 1,
      "note": 29,
      "start": 33.3844,
      "duration": 0.5936,
      "velocity": 107,
      "chip": "ym2612"
    },
    {
      "channel": 2,
      "note": 63,
      "start": 33.3846,
      "duration": 0.0002,
      "velocity": 87,
      "chip": "ym2612"
    },
    {
      "channel": 2,
      "note": 60,
      "start": 33.3848,
      "duration": 0.2714,
      "velocity": 87,
      "chip": "ym2612"
    },
    {
      "channel": 4,
      "note": 59,
      "start": 33.385,
      "duration": 0.1722,
      "velocity": 102,
      "chip": "ym2612"
    },
    {
      "channel": 5,
      "note": 55,
      "start": 33.3851,
      "duration": 0.1721,
      "velocity": 102,
      "chip": "ym2612"
    },
    {
      "channel": 3,
      "note": 64,
      "start": 33.4087,
      "duration": 0.1734,
      "velocity": 102,
      "chip": "ym2612"
    },
    {
      "channel": 2,
      "note": 62,
      "start": 33.6562,
      "duration": 0.0249,
      "velocity": 87,
      "chip": "ym2612"
    },
    {
      "channel": 2,
      "note": 62,
      "start": 33.6811,
      "duration": 0.074,
      "velocity": 87,
      "chip": "ym2612"
    },
    {
      "channel": 2,
      "note": 62,
      "start": 33.7551,
      "duration": 0.0249,
      "velocity": 87,
      "chip": "ym2612"
    },
    {
      "channel": 2,
      "note": 62,
      "start": 33.7801,
      "duration": 0.2723,
      "velocity": 87,
      "chip": "ym2612"
    },
    {
      "channel": 5,
      "note": 55,
      "start": 33.7805,
      "duration": 0.173,
      "velocity": 102,
      "chip": "ym2612"
    },
    {
      "channel": 1,
      "note": 80,
      "start": 33.9787,
      "duration": 0.5937,
      "velocity": 127,
      "chip": "ym2612"
    },
    {
      "channel": 4,
      "note": 59,
      "start": 33.9791,
      "duration": 0.1725,
      "velocity": 102,
      "chip": "ym2612"
    },
    {
      "channel": 5,
      "note": 55,
      "start": 33.9793,
      "duration": 0.1724,
      "velocity": 102,
      "chip": "ym2612"
    },
    {
      "channel": 3,
      "note": 64,
      "start": 34.0031,
      "duration": 0.1732,
      "velocity": 102,
      "chip": "ym2612"
    },
    {
      "channel": 2,
      "note": 62,
      "start": 34.0524,
      "duration": 0.0249,
      "velocity": 87,
      "chip": "ym2612"
    },
    {
      "channel": 2,
      "note": 60,
      "start": 34.0773,
      "duration": 3.7398,
      "velocity": 87,
      "chip": "ym2612"
    },
    {
      "channel": 5,
      "note": 55,
      "start": 34.3747,
      "duration": 0.1732,
      "velocity": 102,
      "chip": "ym2612"
    },
    {
      "channel": 1,
      "note": 80,
      "start": 34.5725,
      "duration": 0.5943,
      "velocity": 127,
      "chip": "ym2612"
    },
    {
      "channel": 4,
      "note": 59,
      "start": 34.5729,
      "duration": 0.1732,
      "velocity": 102,
      "chip": "ym2612"
    },
    {
      "channel": 5,
      "note": 55,
      "start": 34.5731,
      "duration": 0.173,
      "velocity": 102,
      "chip": "ym2612"
    },
    {
      "channel": 3,
      "note": 64,
      "start": 34.5976,
      "duration": 0.1732,
      "velocity": 102,
      "chip": "ym2612"
    },
    {
      "channel": 5,
      "note": 55,
      "start": 34.9692,
      "duration": 0.1732,
      "velocity": 102,
      "chip": "ym2612"
    },
    {
      "channel": 1,
      "note": 80,
      "start": 35.167,
      "duration": 0.3961,
      "velocity": 127,
      "chip": "ym2612"
    },
    {
      "channel": 4,
      "note": 59,
      "start": 35.1674,
      "duration": 0.1731,
      "velocity": 102,
      "chip": "ym2612"
    },
    {
      "channel": 5,
      "note": 55,
      "start": 35.1676,
      "duration": 0.173,
      "velocity": 102,
      "chip": "ym2612"
    },
    {
      "channel": 3,
      "note": 64,
      "start": 35.192,
      "duration": 0.1732,
      "velocity": 102,
      "chip": "ym2612"
    },
    {
      "channel": 1,
      "note": 29,
      "start": 35.5639,
      "duration": 0.1974,
      "velocity": 107,
      "chip": "ym2612"
    },
    {
      "channel": 5,
      "note": 55,
      "start": 35.5644,
      "duration": 0.1724,
      "velocity": 102,
      "chip": "ym2612"
    },
    {
      "channel": 1,
      "note": 29,
      "start": 35.7614,
      "duration": 0.5943,
      "velocity": 107,
      "chip": "ym2612"
    },
    {
      "channel": 4,
      "note": 59,
      "start": 35.7619,
      "duration": 0.1731,
      "velocity": 102,
      "chip": "ym2612"
    },
    {
      "channel": 5,
      "note": 55,
      "start": 35.762,
      "duration": 0.173,
      "velocity": 102,
      "chip": "ym2612"
    },
    {
      "channel": 3,
      "note": 64,
      "start": 35.7865,
      "duration": 0.1732,
      "velocity": 102,
      "chip": "ym2612"
    },
    {
      "channel": 5,
      "note": 55,
      "start": 36.1581,
      "duration": 0.1732,
      "velocity": 102,
      "chip": "ym2612"
    },
    {
      "channel": 1,
      "note": 80,
      "start": 36.3564,
      "duration": 0.5937,
      "velocity": 127,
      "chip": "ym2612"
    },
    {
      "channel": 4,
      "note": 59,
      "start": 36.3569,
      "duration": 0.1725,
      "velocity": 102,
      "chip": "ym2612"
    },
    {
      "channel": 5,
      "note": 55,
      "start": 36.357,
      "duration": 0.1724,
      "velocity": 102,
      "chip": "ym2612"
    },
    {
      "channel": 3,
      "note": 64,
      "start": 36.3809,
      "duration": 0.1732,
      "velocity": 102,
      "chip": "ym2612"
    },
    {
      "channel": 5,
      "note": 55,
      "start": 36.7525,
      "duration": 0.1732,
      "velocity": 102,
      "chip": "ym2612"
    },
    {
      "channel": 1,
      "note": 80,
      "start": 36.9503,
      "duration": 0.3961,
      "velocity": 127,
      "chip": "ym2612"
    },
    {
      "channel": 4,
      "note": 59,
      "start": 36.9507,
      "duration": 0.1731,
      "velocity": 102,
      "chip": "ym2612"
    },
    {
      "channel": 5,
      "note": 55,
      "start": 36.9509,
      "duration": 0.1729,
      "velocity": 102,
      "chip": "ym2612"
    },
    {
      "channel": 3,
      "note": 64,
      "start": 36.9753,
      "duration": 0.1735,
      "velocity": 102,
      "chip": "ym2612"
    },
    {
      "channel": 1,
      "note": 29,
      "start": 37.3472,
      "duration": 0.0983,
      "velocity": 107,
      "chip": "ym2612"
    },
    {
      "channel": 5,
      "note": 55,
      "start": 37.3477,
      "duration": 0.1725,
      "velocity": 102,
      "chip": "ym2612"
    },
    {
      "channel": 1,
      "note": 29,
      "start": 37.4457,
      "duration": 0.0989,
      "velocity": 107,
      "chip": "ym2612"
    },
    {
      "channel": 1,
      "note": 63,
      "start": 37.5453,
      "duration": 0.1974,
      "velocity": 120,
      "chip": "ym2612"
    },
    {
      "channel": 4,
      "note": 59,
      "start": 37.5457,
      "duration": 0.1725,
      "velocity": 102,
      "chip": "ym2612"
    },
    {
      "channel": 5,
      "note": 55,
      "start": 37.5459,
      "duration": 0.1724,
      "velocity": 102,
      "chip": "ym2612"
    },
    {
      "channel": 3,
      "note": 64,
      "start": 37.5698,
      "duration": 0.1734,
      "velocity": 102,
      "chip": "ym2612"
    },
    {
      "channel": 1,
      "note": 63,
      "start": 37.7429,
      "duration": 0.198,
      "velocity": 120,
      "chip": "ym2612"
    },
    {
      "channel": 2,
      "note": 60,
      "start": 37.8171,
      "duration": 0.0249,
      "velocity": 87,
      "chip": "ym2612"
    },
    {
      "channel": 2,
      "note": 60,
      "start": 37.842,
      "duration": 0.2722,
      "velocity": 87,
      "chip": "ym2612"
    },
    {
      "channel": 1,
      "note": 80,
      "start": 37.9416,
      "duration": 0.1976,
      "velocity": 111,
      "chip": "ym2612"
    },
    {
      "channel": 5,
      "note": 55,
      "start": 37.9421,
      "duration": 0.1725,
      "velocity": 102,
      "chip": "ym2612"
    },
    {
      "channel": 4,
      "note": 60,
      "start": 38.0156,
      "duration": 0.099,
      "velocity": 102,
      "chip": "ym2612"
    },
    {
      "channel": 3,
      "note": 62,
      "start": 38.0898,
      "duration": 0.0505,
      "velocity": 102,
      "chip": "ym2612"
    },
    {
      "channel": 2,
      "note": 61,
      "start": 38.1143,
      "duration": 0.0001,
      "velocity": 87,
      "chip": "ym2612"
    },
    {
      "channel": 0,
      "note": 48,
      "start": 38.1391,
      "duration": 0.5696,
      "velocity": 107,
      "chip": "ym2612"
    },
    {
      "channel": 1,
      "note": 29,
      "start": 38.1399,
      "duration": 0.3954,
      "velocity": 107,
      "chip": "ym2612"
    },
    {
      "channel": 2,
      "note": 60,
      "start": 38.1401,
      "duration": 0.0002,
      "velocity": 87,
      "chip": "ym2612"
    },
    {
      "channel": 2,
      "note": 59,
      "start": 38.1402,
      "duration": 0.2714,
      "velocity": 87,
      "chip": "ym2612"
    },
    {
      "channel": 4,
      "note": 60,
      "start": 38.1405,
      "duration": 0.1722,
      "velocity": 102,
      "chip": "ym2612"
    },
    {
      "channel": 5,
      "note": 55,
      "start": 38.1406,
      "duration": 0.1721,
      "velocity": 102,
      "chip": "ym2612"
    },
    {
      "channel": 3,
      "note": 64,
      "start": 38.1642,
      "duration": 0.1733,
      "velocity": 102,
      "chip": "ym2612"
    },
    {
      "channel": 2,
      "note": 62,
      "start": 38.4116,
      "duration": 0.0249,
      "velocity": 87,
      "chip": "ym2612"
    },
    {
      "channel": 2,
      "note": 63,
      "start": 38.4366,
      "duration": 0.074,
      "velocity": 87,
      "chip": "ym2612"
    },
    {
      "channel": 2,
      "note": 63,
      "start": 38.5106,
      "duration": 0.0256,
      "velocity": 87,
      "chip": "ym2612"
    },
    {
      "channel": 1,
      "note": 80,
      "start": 38.536,
      "duration": 0.1976,
      "velocity": 127,
      "chip": "ym2612"
    },
    {
      "channel": 2,
      "note": 63,
      "start": 38.5362,
      "duration": 0.2717,
      "velocity": 87,
      "chip": "ym2612"
    },
    {
      "channel": 5,
      "note": 55,
      "start": 38.5367,
      "duration": 0.1722,
      "velocity": 102,
      "chip": "ym2612"
    },
    {
      "channel": 0,
      "note": 48,
      "start": 38.7335,
      "duration": 0.1733,
      "velocity": 107,
      "chip": "ym2612"
    },
    {
      "channel": 1,
      "note": 56,
      "start": 38.7343,
      "duration": 0.3956,
      "velocity": 117,
      "chip": "ym2612"
    },
    {
      "channel": 4,
      "note": 60,
      "start": 38.7347,
      "duration": 0.1724,
      "velocity": 102,
      "chip": "ym2612"
    },
    {
      "channel": 5,
      "note": 55,
      "start": 38.7349,
      "duration": 0.1722,
      "velocity": 102,
      "chip": "ym2612"
    },
    {
      "channel": 3,
      "note": 64,
      "start": 38.7586,
      "duration": 0.1733,
      "velocity": 102,
      "chip": "ym2612"
    },
    {
      "channel": 2,
      "note": 64,
      "start": 38.8078,
      "duration": 0.0249,
      "velocity": 87,
      "chip": "ym2612"
    },
    {
      "channel": 2,
      "note": 67,
      "start": 38.8328,
      "duration": 2.5509,
      "velocity": 87,
      "chip": "ym2612"
    },
    {
      "channel": 1,
      "note": 80,
      "start": 39.1306,
      "duration": 0.1974,
      "velocity": 127,
      "chip": "ym2612"
    },
    {
      "channel": 5,
      "note": 55,
      "start": 39.1311,
      "duration": 0.1723,
      "velocity": 102,
      "chip": "ym2612"
    },
    {
      "channel": 0,
      "note": 48,
      "start": 39.328,
      "duration": 0.1733,
      "velocity": 107,
      "chip": "ym2612"
    },
    {
      "channel": 1,
      "note": 56,
      "start": 39.3288,
      "duration": 0.3955,
      "velocity": 117,
      "chip": "ym2612"
    },
    {
      "channel": 4,
      "note": 60,
      "start": 39.3292,
      "duration": 0.1724,
      "velocity": 102,
      "chip": "ym2612"
    },
    {
      "channel": 5,
      "note": 55,
      "start": 39.3293,
      "duration": 0.1723,
      "velocity": 102,
      "chip": "ym2612"
    },
    {
      "channel": 3,
      "note": 64,
      "start": 39.353,
      "duration": 0.1733,
      "velocity": 102,
      "chip": "ym2612"
    },
    {
      "channel": 1,
      "note": 80,
      "start": 39.725,
      "duration": 0.1975,
      "velocity": 127,
      "chip": "ym2612"
    },
    {
      "channel": 5,
      "note": 55,
      "start": 39.7255,
      "duration": 0.1723,
      "velocity": 102,
      "chip": "ym2612"
    },
    {
      "channel": 0,
      "note": 48,
      "start": 39.9224,
      "duration": 0.1733,
      "velocity": 107,
      "chip": "ym2612"
    },
    {
      "channel": 1,
      "note": 56,
      "start": 39.9232,
      "duration": 0.3956,
      "velocity": 117,
      "chip": "ym2612"
    },
    {
      "channel": 4,
      "note": 60,
      "start": 39.9236,
      "duration": 0.1724,
      "velocity": 102,
      "chip": "ym2612"
    },
    {
      "channel": 5,
      "note": 55,
      "start": 39.9238,
      "duration": 0.1722,
      "velocity": 102,
      "chip": "ym2612"
    },
    {
      "channel": 3,
      "note": 64,
      "start": 39.9475,
      "duration": 0.1733,
      "velocity": 102,
      "chip": "ym2612"
    },
    {
      "channel": 0,
      "note": 43,
      "start": 40.3187,
      "duration": 0.1733,
      "velocity": 107,
      "chip": "ym2612"
    },
    {
      "channel": 1,
      "note": 29,
      "start": 40.3195,
      "duration": 0.1974,
      "velocity": 107,
      "chip": "ym2612"
    },
    {
      "channel": 5,
      "note": 55,
      "start": 40.32,
      "duration": 0.1724,
      "velocity": 102,
      "chip": "ym2612"
    },
    {
      "channel": 0,
      "note": 47,
      "start": 40.5168,
      "duration": 0.5695,
      "velocity": 107,
      "chip": "ym2612"
    },
    {
      "channel": 1,
      "note": 29,
      "start": 40.5176,
      "duration": 0.3954,
      "velocity": 107,
      "chip": "ym2612"
    },
    {
      "channel": 4,
      "note": 59,
      "start": 40.518,
      "duration": 0.1724,
      "velocity": 102,
      "chip": "ym2612"
    },
    {
      "channel": 5,
      "note": 55,
      "start": 40.5182,
      "duration": 0.1723,
      "velocity": 102,
      "chip": "ym2612"
    },
    {
      "channel": 3,
      "note": 62,
      "start": 40.542,
      "duration": 0.1732,
      "velocity": 102,
      "chip": "ym2612"
    },
    {
      "channel": 1,
      "note": 80,
      "start": 40.9137,
      "duration": 0.1976,
      "velocity": 127,
      "chip": "ym2612"
    },
    {
      "channel": 5,
      "note": 55,
      "start": 40.9143,
      "duration": 0.1724,
      "velocity": 102,
      "chip": "ym2612"
    },
    {
      "channel": 0,
      "note": 47,
      "start": 41.1113,
      "duration": 0.1732,
      "velocity": 107,
      "chip": "ym2612"
    },
    {
      "channel": 1,
      "note": 56,
      "start": 41.112,
      "duration": 0.3955,
      "velocity": 117,
      "chip": "ym2612"
    },
    {
      "channel": 4,
      "note": 59,
      "start": 41.1125,
      "duration": 0.1724,
      "velocity": 102,
      "chip": "ym2612"
    },
    {
      "channel": 5,
      "note": 55,
      "start": 41.1126,
      "duration": 0.1722,
      "velocity": 102,
      "chip": "ym2612"
    },
    {
      "channel": 3,
      "note": 62,
      "start": 41.1363,
      "duration": 0.1733,
      "velocity": 102,
      "chip": "ym2612"
    },
    {
      "channel": 2,
      "note": 67,
      "start": 41.3836,
      "duration": 0.0249,
      "velocity": 87,
      "chip": "ym2612"
    },
    {
      "channel": 2,
      "note": 67,
      "start": 41.4085,
      "duration": 0.2723,
      "velocity": 87,
      "chip": "ym2612"
    },
    {
      "channel": 1,
      "note": 80,
      "start": 41.5083,
      "duration": 0.1975,
      "velocity": 127,
      "chip": "ym2612"
    },
    {
      "channel": 5,
      "note": 55,
      "start": 41.5088,
      "duration": 0.1724,
      "velocity": 102,
      "chip": "ym2612"
    },
    {
      "channel": 2,
      "note": 67,
      "start": 41.6808,
      "duration": 0.0001,
      "velocity": 87,
      "chip": "ym2612"
    },
    {
      "channel": 0,
      "note": 47,
      "start": 41.7057,
      "duration": 0.1733,
      "velocity": 107,
      "chip": "ym2612"
    },
    {
      "channel": 1,
      "note": 56,
      "start": 41.7065,
      "duration": 0.3956,
      "velocity": 117,
      "chip": "ym2612"
    },
    {
      "channel": 2,
      "note": 67,
      "start": 41.7066,
      "duration": 0.0002,
      "velocity": 87,
      "chip": "ym2612"
    },
    {
      "channel": 2,
      "note": 64,
      "start": 41.7068,
      "duration": 0.2713,
      "velocity": 87,
      "chip": "ym2612"
    },
    {
      "channel": 4,
      "note": 59,
      "start": 41.707,
      "duration": 0.1722,
      "velocity": 102,
      "chip": "ym2612"
    },
    {
      "channel": 5,
      "note": 55,
      "start": 41.7072,
      "duration": 0.1721,
      "velocity": 102,
      "chip": "ym2612"
    },
    {
      "channel": 3,
      "note": 62,
      "start": 41.7307,
      "duration": 0.1734,
      "velocity": 102,
      "chip": "ym2612"
    },
    {
      "channel": 2,
      "note": 67,
      "start": 41.9782,
      "duration": 0.0249,
      "velocity": 87,
      "chip": "ym2612"
    },
    {
      "channel": 2,
      "note": 68,
      "start": 42.0031,
      "duration": 0.0741,
      "velocity": 87,
      "chip": "ym2612"
    },
    {
      "channel": 2,
      "note": 68,
      "start": 42.0771,
      "duration": 0.0258,
      "velocity": 87,
      "chip": "ym2612"
    },
    {
      "channel": 0,
      "note": 47,
      "start": 42.102,
      "duration": 0.3714,
      "velocity": 107,
      "chip": "ym2612"
    },
    {
      "channel": 1,
      "note": 80,
      "start": 42.1027,
      "duration": 0.1973,
      "velocity": 127,
      "chip": "ym2612"
    },
    {
      "channel": 2,
      "note": 68,
      "start": 42.1029,
      "duration": 0.2715,
      "velocity": 87,
      "chip": "ym2612"
    },
    {
      "channel": 5,
      "note": 55,
      "start": 42.1034,
      "duration": 0.1721,
      "velocity": 102,
      "chip": "ym2612"
    },
    {
      "channel": 1,
      "note": 56,
      "start": 42.3008,
      "duration": 0.3957,
      "velocity": 117,
      "chip": "ym2612"
    },
    {
      "channel": 4,
      "note": 59,
      "start": 42.3012,
      "duration": 0.1724,
      "velocity": 102,
      "chip": "ym2612"
    },
    {
      "channel": 5,
      "note": 55,
      "start": 42.3014,
      "duration": 0.1723,
      "velocity": 102,
      "chip": "ym2612"
    },
    {
      "channel": 3,
      "note": 62,
      "start": 42.3251,
      "duration": 0.1734,
      "velocity": 102,
      "chip": "ym2612"
    },
    {
      "channel": 2,
      "note": 67,
      "start": 42.3744,
      "duration": 0.0249,
      "velocity": 87,
      "chip": "ym2612"
    },
    {
      "channel": 2,
      "note": 64,
      "start": 42.3994,
      "duration": 0.2722,
      "velocity": 87,
      "chip": "ym2612"
    },
    {
      "channel": 0,
      "note": 43,
      "start": 42.4983,
      "duration": 0.3715,
      "velocity": 107,
      "chip": "ym2612"
    },
    {
      "channel": 2,
      "note": 62,
      "start": 42.6716,
      "duration": 0.0258,
      "velocity": 87,
      "chip": "ym2612"
    },
    {
      "channel": 1,
      "note": 80,
      "start": 42.6972,
      "duration": 0.1974,
      "velocity": 111,
      "chip": "ym2612"
    },
    {
      "channel": 2,
      "note": 62,
      "start": 42.6974,
      "duration": 0.1725,
      "velocity": 87,
      "chip": "ym2612"
    },
    {
      "channel": 5,
      "note": 55,
      "start": 42.6978,
      "duration": 0.1724,
      "velocity": 102,
      "chip": "ym2612"
    },
    {
      "channel": 2,
      "note": 62,
      "start": 42.8699,
      "duration": 0.0256,
      "velocity": 87,
      "chip": "ym2612"
    },
    {
      "channel": 0,
      "note": 46,
      "start": 42.8946,
      "duration": 0.5695,
      "velocity": 107,
      "chip": "ym2612"
    },
    {
      "channel": 1,
      "note": 29,
      "start": 42.8953,
      "duration": 0.3954,
      "velocity": 107,
      "chip": "ym2612"
    },
    {
      "channel": 2,
      "note": 62,
      "start": 42.8955,
      "duration": 0.0737,
      "velocity": 87,
      "chip": "ym2612"
    },
    {
      "channel": 4,
      "note": 58,
      "start": 42.8958,
      "duration": 0.1723,
      "velocity": 102,
      "chip": "ym2612"
    },
    {
      "channel": 5,
      "note": 55,
      "start": 42.896,
      "duration": 0.1722,
      "velocity": 102,
      "chip": "ym2612"
    },
    {
      "channel": 3,
      "note": 62,
      "start": 42.9197,
      "duration": 0.1733,
      "velocity": 102,
      "chip": "ym2612"
    },
    {
      "channel": 2,
      "note": 62,
      "start": 42.9692,
      "duration": 0.0248,
      "velocity": 87,
      "chip": "ym2612"
    },
    {
      "channel": 2,
      "note": 60,
      "start": 42.9939,
      "duration": 0.1731,
      "velocity": 87,
      "chip": "ym2612"
    },
    {
      "channel": 2,
      "note": 60,
      "start": 43.1671,
      "duration": 0.0249,
      "velocity": 87,
      "chip": "ym2612"
    },
    {
      "channel": 2,
      "note": 60,
      "start": 43.192,
      "duration": 0.074,
      "velocity": 87,
      "chip": "ym2612"
    },
    {
      "channel": 2,
      "note": 60,
      "start": 43.2661,
      "duration": 0.0256,
      "velocity": 87,
      "chip": "ym2612"
    },
    {
      "channel": 1,
      "note": 80,
      "start": 43.2915,
      "duration": 0.1976,
      "velocity": 127,
      "chip": "ym2612"
    },
    {
      "channel": 2,
      "note": 60,
      "start": 43.2917,
      "duration": 0.2717,
      "velocity": 87,
      "chip": "ym2612"
    },
    {
      "channel": 5,
      "note": 55,
      "start": 43.2921,
      "duration": 0.1723,
      "velocity": 102,
      "chip": "ym2612"
    },
    {
      "channel": 0,
      "note": 46,
      "start": 43.489,
      "duration": 0.1733,
      "velocity": 107,
      "chip": "ym2612"
    },
    {
      "channel": 1,
      "note": 56,
      "start": 43.4898,
      "duration": 0.3955,
      "velocity": 117,
      "chip": "ym2612"
    },
    {
      "channel": 4,
      "note": 58,
      "start": 43.4902,
      "duration": 0.1724,
      "velocity": 102,
      "chip": "ym2612"
    },
    {
      "channel": 5,
      "note": 55,
      "start": 43.4903,
      "duration": 0.1722,
      "velocity": 102,
      "chip": "ym2612"
    },
    {
      "channel": 3,
      "note": 62,
      "start": 43.514,
      "duration": 0.1733,
      "velocity": 102,
      "chip": "ym2612"
    },
    {
      "channel": 2,
      "note": 60,
      "start": 43.5633,
      "duration": 0.0249,
      "velocity": 87,
      "chip": "ym2612"
    },
    {
      "channel": 2,
      "note": 57,
      "start": 43.5882,
      "duration": 3.4426,
      "velocity": 87,
      "chip": "ym2612"
    },
    {
      "channel": 1,
      "note": 80,
      "start": 43.886,
      "duration": 0.1975,
      "velocity": 127,
      "chip": "ym2612"
    },
    {
      "channel": 5,
      "note": 55,
      "start": 43.8865,
      "duration": 0.1724,
      "velocity": 102,
      "chip": "ym2612"
    },
    {
      "channel": 0,
      "note": 46,
      "start": 44.0834,
      "duration": 0.1733,
      "velocity": 107,
      "chip": "ym2612"
    },
    {
      "channel": 1,
      "note": 56,
      "start": 44.0842,
      "duration": 0.3957,
      "velocity": 117,
      "chip": "ym2612"
    },
    {
      "channel": 4,
      "note": 58,
      "start": 44.0846,
      "duration": 0.1724,
      "velocity": 102,
      "chip": "ym2612"
    },
    {
      "channel": 5,
      "note": 55,
      "start": 44.0848,
      "duration": 0.1723,
      "velocity": 102,
      "chip": "ym2612"
    },
    {
      "channel": 3,
      "note": 62,
      "start": 44.1085,
      "duration": 0.1733,
      "velocity": 102,
      "chip": "ym2612"
    },
    {
      "channel": 1,
      "note": 80,
      "start": 44.4806,
      "duration": 0.1974,
      "velocity": 127,
      "chip": "ym2612"
    },
    {
      "channel": 5,
      "note": 55,
      "start": 44.4812,
      "duration": 0.1721,
      "velocity": 102,
      "chip": "ym2612"
    },
    {
      "channel": 0,
      "note": 46,
      "start": 44.678,
      "duration": 0.1731,
      "velocity": 107,
      "chip": "ym2612"
    },
    {
      "channel": 1,
      "note": 56,
      "start": 44.6788,
      "duration": 0.3954,
      "velocity": 117,
      "chip": "ym2612"
    },
    {
      "channel": 4,
      "note": 58,
      "start": 44.6792,
      "duration": 0.1722,
      "velocity": 102,
      "chip": "ym2612"
    },
    {
      "channel": 5,
      "note": 55,
      "start": 44.6794,
      "duration": 0.1721,
      "velocity": 102,
      "chip": "ym2612"
    },
    {
      "channel": 3,
      "note": 62,
      "start": 44.7029,
      "duration": 0.1733,
      "velocity": 102,
      "chip": "ym2612"
    },
    {
      "channel": 1,
      "note": 29,
      "start": 45.0749,
      "duration": 0.1975,
      "velocity": 107,
      "chip": "ym2612"
    },
    {
      "channel": 5,
      "note": 55,
      "start": 45.0754,
      "duration": 0.1724,
      "velocity": 102,
      "chip": "ym2612"
    },
    {
      "channel": 0,
      "note": 46,
      "start": 45.2723,
      "duration": 0.1733,
      "velocity": 107,
      "chip": "ym2612"
    },
    {
      "channel": 1,
      "note": 29,
      "start": 45.273,
      "duration": 0.3955,
      "velocity": 107,
      "chip": "ym2612"
    },
    {
      "channel": 4,
      "note": 58,
      "start": 45.2735,
      "duration": 0.1725,
      "velocity": 102,
      "chip": "ym2612"
    },
    {
      "channel": 5,
      "note": 55,
      "start": 45.2737,
      "duration": 0.1723,
      "velocity": 102,
      "chip": "ym2612"
    },
    {
      "channel": 3,
      "note": 64,
      "start": 45.2974,
      "duration": 0.1733,
      "velocity": 102,
      "chip": "ym2612"
    },
    {
      "channel": 1,
      "note": 80,
      "start": 45.6693,
      "duration": 0.1975,
      "velocity": 127,
      "chip": "ym2612"
    },
    {
      "channel": 5,
      "note": 55,
      "start": 45.6698,
      "duration": 0.1723,
      "velocity": 102,
      "chip": "ym2612"
    },
    {
      "channel": 0,
      "note": 46,
      "start": 45.8667,
      "duration": 0.1733,
      "velocity": 107,
      "chip": "ym2612"
    },
    {
      "channel": 1,
      "note": 56,
      "start": 45.8675,
      "duration": 0.3955,
      "velocity": 117,
      "chip": "ym2612"
    },
    {
      "channel": 4,
      "note": 58,
      "start": 45.8679,
      "duration": 0.1723,
      "velocity": 102,
      "chip": "ym2612"
    },
    {
      "channel": 5,
      "note": 55,
      "start": 45.8681,
      "duration": 0.1722,
      "velocity": 102,
      "chip": "ym2612"
    },
    {
      "channel": 3,
      "note": 64,
      "start": 45.8918,
      "duration": 0.1733,
      "velocity": 102,
      "chip": "ym2612"
    },
    {
      "channel": 1,
      "note": 80,
      "start": 46.2637,
      "duration": 0.1975,
      "velocity": 127,
      "chip": "ym2612"
    },
    {
      "channel": 5,
      "note": 55,
      "start": 46.2642,
      "duration": 0.1723,
      "velocity": 102,
      "chip": "ym2612"
    },
    {
      "channel": 0,
      "note": 46,
      "start": 46.4612,
      "duration": 0.1733,
      "velocity": 107,
      "chip": "ym2612"
    },
    {
      "channel": 1,
      "note": 56,
      "start": 46.4619,
      "duration": 0.3956,
      "velocity": 117,
      "chip": "ym2612"
    },
    {
      "channel": 4,
      "note": 58,
      "start": 46.4624,
      "duration": 0.1724,
      "velocity": 102,
      "chip": "ym2612"
    },
    {
      "channel": 5,
      "note": 55,
      "start": 46.4625,
      "duration": 0.1722,
      "velocity": 102,
      "chip": "ym2612"
    },
    {
      "channel": 3,
      "note": 64,
      "start": 46.4862,
      "duration": 0.1733,
      "velocity": 102,
      "chip": "ym2612"
    },
    {
      "channel": 0,
      "note": 46,
      "start": 46.8574,
      "duration": 0.3714,
      "velocity": 107,
      "chip": "ym2612"
    },
    {
      "channel": 1,
      "note": 29,
      "start": 46.8582,
      "duration": 0.1973,
      "velocity": 107,
      "chip": "ym2612"
    },
    {
      "channel": 5,
      "note": 55,
      "start": 46.8587,
      "duration": 0.1724,
      "velocity": 102,
      "chip": "ym2612"
    },
    {
      "channel": 2,
      "note": 58,
      "start": 47.0308,
      "duration": 0.2232,
      "velocity": 87,
      "chip": "ym2612"
    },
    {
      "channel": 1,
      "note": 63,
      "start": 47.0562,
      "duration": 0.3956,
      "velocity": 120,
      "chip": "ym2612"
    },
    {
      "channel": 4,
      "note": 58,
      "start": 47.0566,
      "duration": 0.1725,
      "velocity": 102,
      "chip": "ym2612"
    },
    {
      "channel": 5,
      "note": 55,
      "start": 47.0568,
      "duration": 0.1724,
      "velocity": 102,
      "chip": "ym2612"
    },
    {
      "channel": 3,
      "note": 64,
      "start": 47.0809,
      "duration": 0.1732,
      "velocity": 102,
      "chip": "ym2612"
    },
    {
      "channel": 0,
      "note": 46,
      "start": 47.2537,
      "duration": 0.1733,
      "velocity": 107,
      "chip": "ym2612"
    },
    {
      "channel": 2,
      "note": 57,
      "start": 47.254,
      "duration": 0.0741,
      "velocity": 87,
      "chip": "ym2612"
    },
    {
      "channel": 2,
      "note": 57,
      "start": 47.3281,
      "duration": 0.099,
      "velocity": 87,
      "chip": "ym2612"
    },
    {
      "channel": 1,
      "note": 80,
      "start": 47.4526,
      "duration": 0.1975,
      "velocity": 111,
      "chip": "ym2612"
    },
    {
      "channel": 2,
      "note": 57,
      "start": 47.4527,
      "duration": 0.0984,
      "velocity": 87,
      "chip": "ym2612"
    },
    {
      "channel": 5,
      "note": 55,
      "start": 47.4531,
      "duration": 0.1724,
      "velocity": 102,
      "chip": "ym2612"
    },
    {
      "channel": 2,
      "note": 52,
      "start": 47.5511,
      "duration": 0.0741,
      "velocity": 87,
      "chip": "ym2612"
    },
    {
      "channel": 2,
      "note": 52,
      "start": 47.6252,
      "duration": 0.0258,
      "velocity": 87,
      "chip": "ym2612"
    },
    {
      "channel": 0,
      "note": 53,
      "start": 47.65,
      "duration": 0.5698,
      "velocity": 107,
      "chip": "ym2612"
    },
    {
      "channel": 1,
      "note": 29,
      "start": 47.6508,
      "duration": 0.3954,
      "velocity": 107,
      "chip": "ym2612"
    },
    {
      "channel": 2,
      "note": 52,
      "start": 47.651,
      "duration": 0.0734,
      "velocity": 87,
      "chip": "ym2612"
    },
    {
      "channel": 4,
      "note": 60,
      "start": 47.6513,
      "duration": 0.1722,
      "velocity": 102,
      "chip": "ym2612"
    },
    {
      "channel": 5,
      "note": 55,
      "start": 47.6515,
      "duration": 0.1721,
      "velocity": 102,
      "chip": "ym2612"
    },
    {
      "channel": 3,
      "note": 64,
      "start": 47.6751,
      "duration": 0.1733,
      "velocity": 102,
      "chip": "ym2612"
    },
    {
      "channel": 2,
      "note": 53,
      "start": 47.7244,
      "duration": 0.0249,
      "velocity": 87,
      "chip": "ym2612"
    },
    {
      "channel": 2,
      "note": 55,
      "start": 47.7493,
      "duration": 0.1732,
      "velocity": 87,
      "chip": "ym2612"
    },
    {
      "channel": 2,
      "note": 55,
      "start": 47.9225,
      "duration": 0.0249,
      "velocity": 87,
      "chip": "ym2612"
    },
    {
      "channel": 2,
      "note": 57,
      "start": 47.9475,
      "duration": 0.0741,
      "velocity": 87,
      "chip": "ym2612"
    },
    {
      "channel": 2,
      "note": 57,
      "start": 48.0215,
      "duration": 0.2239,
      "velocity": 87,
      "chip": "ym2612"
    },
    {
      "channel": 1,
      "note": 80,
      "start": 48.0469,
      "duration": 0.1976,
      "velocity": 127,
      "chip": "ym2612"
    },
    {
      "channel": 5,
      "note": 55,
      "start": 48.0474,
      "duration": 0.1726,
      "velocity": 102,
      "chip": "ym2612"
    },
    {
      "channel": 0,
      "note": 53,
      "start": 48.2444,
      "duration": 0.1733,
      "velocity": 107,
      "chip": "ym2612"
    },
    {
      "channel": 1,
      "note": 56,
      "start": 48.2452,
      "duration": 0.3955,
      "velocity": 117,
      "chip": "ym2612"
    },
    {
      "channel": 2,
      "note": 57,
      "start": 48.2454,
      "duration": 0.0734,
      "velocity": 87,
      "chip": "ym2612"
    },
    {
      "channel": 4,
      "note": 60,
      "start": 48.2457,
      "duration": 0.1722,
      "velocity": 102,
      "chip": "ym2612"
    },
    {
      "channel": 5,
      "note": 55,
      "start": 48.2459,
      "duration": 0.1721,
      "velocity": 102,
      "chip": "ym2612"
    },
    {
      "channel": 3,
      "note": 64,
      "start": 48.2695,
      "duration": 0.1733,
      "velocity": 102,
      "chip": "ym2612"
    },
    {
      "channel": 2,
      "note": 57,
      "start": 48.3188,
      "duration": 0.2231,
      "velocity": 87,
      "chip": "ym2612"
    },
    {
      "channel": 2,
      "note": 63,
      "start": 48.5418,
      "duration": 0.2722,
      "velocity": 87,
      "chip": "ym2612"
    },
    {
      "channel": 1,
      "note": 80,
      "start": 48.6414,
      "duration": 0.1975,
      "velocity": 127,
      "chip": "ym2612"
    },
    {
      "channel": 5,
      "note": 55,
      "start": 48.642,
      "duration": 0.1723,
      "velocity": 102,
      "chip": "ym2612"
    },
    {
      "channel": 2,
      "note": 64,
      "start": 48.814,
      "duration": 0.0258,
      "velocity": 87,
      "chip": "ym2612"
    },
    {
      "channel": 0,
      "note": 53,
      "start": 48.8389,
      "duration": 0.1732,
      "velocity": 107,
      "chip": "ym2612"
    },
    {
      "channel": 1,
      "note": 56,
      "start": 48.8397,
      "duration": 0.3955,
      "velocity": 117,
      "chip": "ym2612"
    },
    {
      "channel": 2,
      "note": 64,
      "start": 48.8398,
      "duration": 0.2715,
      "velocity": 87,
      "chip": "ym2612"
    },
    {
      "channel": 4,
      "note": 60,
      "start": 48.8401,
      "duration": 0.1723,
      "velocity": 102,
      "chip": "ym2612"
    },
    {
      "channel": 5,
      "note": 55,
      "start": 48.8403,
      "duration": 0.1722,
      "velocity": 102,
      "chip": "ym2612"
    },
    {
      "channel": 3,
      "note": 64,
      "start": 48.8639,
      "duration": 0.1733,
      "velocity": 102,
      "chip": "ym2612"
    },
    {
      "channel": 2,
      "note": 64,
      "start": 49.1113,
      "duration": 0.0249,
      "velocity": 87,
      "chip": "ym2612"
    },
    {
      "channel": 2,
      "note": 57,
      "start": 49.1363,
      "duration": 0.8667,
      "velocity": 87,
      "chip": "ym2612"
    },
    {
      "channel": 1,
      "note": 80,
      "start": 49.2359,
      "duration": 0.1975,
      "velocity": 127,
      "chip": "ym2612"
    },
    {
      "channel": 5,
      "note": 55,
      "start": 49.2364,
      "duration": 0.1723,
      "velocity": 102,
      "chip": "ym2612"
    },
    {
      "channel": 0,
      "note": 52,
      "start": 49.4333,
      "duration": 0.5695,
      "velocity": 107,
      "chip": "ym2612"
    },
    {
      "channel": 1,
      "note": 56,
      "start": 49.4341,
      "duration": 0.3955,
      "velocity": 117,
      "chip": "ym2612"
    },
    {
      "channel": 4,
      "note": 60,
      "start": 49.4345,
      "duration": 0.1724,
      "velocity": 102,
      "chip": "ym2612"
    },
    {
      "channel": 5,
      "note": 55,
      "start": 49.4346,
      "duration": 0.1722,
      "velocity": 102,
      "chip": "ym2612"
    },
    {
      "channel": 3,
      "note": 64,
      "start": 49.4583,
      "duration": 0.1734,
      "velocity": 102,
      "chip": "ym2612"
    },
    {
      "channel": 1,
      "note": 29,
      "start": 49.8304,
      "duration": 0.1974,
      "velocity": 107,
      "chip": "ym2612"
    },
    {
      "channel": 5,
      "note": 55,
      "start": 49.8309,
      "duration": 0.1724,
      "velocity": 102,
      "chip": "ym2612"
    },
    {
      "channel": 2,
      "note": 58,
      "start": 50.003,
      "duration": 0.0257,
      "velocity": 87,
      "chip": "ym2612"
    },
    {
      "channel": 0,
      "note": 55,
      "start": 50.0277,
      "duration": 0.5696,
      "velocity": 107,
      "chip": "ym2612"
    },
    {
      "channel": 1,
      "note": 29,
      "start": 50.0285,
      "duration": 0.3954,
      "velocity": 107,
      "chip": "ym2612"
    },
    {
      "channel": 2,
      "note": 57,
      "start": 50.0287,
      "duration": 0.2716,
      "velocity": 87,
      "chip": "ym2612"
    },
    {
      "channel": 4,
      "note": 59,
      "start": 50.029,
      "duration": 0.1724,
      "velocity": 102,
      "chip": "ym2612"
    },
    {
      "channel": 5,
      "note": 55,
      "start": 50.0292,
      "duration": 0.1722,
      "velocity": 102,
      "chip": "ym2612"
    },
    {
      "channel": 3,
      "note": 64,
      "start": 50.0528,
      "duration": 0.1732,
      "velocity": 102,
      "chip": "ym2612"
    },
    {
      "channel": 2,
      "note": 57,
      "start": 50.3003,
      "duration": 0.0249,
      "velocity": 87,
      "chip": "ym2612"
    },
    {
      "channel": 2,
      "note": 57,
      "start": 50.3252,
      "duration": 0.2722,
      "velocity": 87,
      "chip": "ym2612"
    },
    {
      "channel": 1,
      "note": 80,
      "start": 50.4246,
      "duration": 0.1975,
      "velocity": 127,
      "chip": "ym2612"
    },
    {
      "channel": 5,
      "note": 55,
      "start": 50.4251,
      "duration": 0.1725,
      "velocity": 102,
      "chip": "ym2612"
    },
    {
      "channel": 2,
      "note": 57,
      "start": 50.5973,
      "duration": 0.0257,
      "velocity": 87,
      "chip": "ym2612"
    },
    {
      "channel": 1,
      "note": 56,
      "start": 50.6229,
      "duration": 0.3956,
      "velocity": 117,
      "chip": "ym2612"
    },
    {
      "channel": 2,
      "note": 57,
      "start": 50.6231,
      "duration": 0.2716,
      "velocity": 87,
      "chip": "ym2612"
    },
    {
      "channel": 4,
      "note": 59,
      "start": 50.6234,
      "duration": 0.1723,
      "velocity": 102,
      "chip": "ym2612"
    },
    {
      "channel": 5,
      "note": 55,
      "start": 50.6235,
      "duration": 0.1722,
      "velocity": 102,
      "chip": "ym2612"
    },
    {
      "channel": 3,
      "note": 64,
      "start": 50.6472,
      "duration": 0.1734,
      "velocity": 102,
      "chip": "ym2612"
    },
    {
      "channel": 0,
      "note": 59,
      "start": 50.8203,
      "duration": 0.3717,
      "velocity": 107,
      "chip": "ym2612"
    },
    {
      "channel": 2,
      "note": 57,
      "start": 50.8946,
      "duration": 0.0251,
      "velocity": 87,
      "chip": "ym2612"
    },
    {
      "channel": 2,
      "note": 64,
      "start": 50.9197,
      "duration": 0.0739,
      "velocity": 87,
      "chip": "ym2612"
    },
    {
      "channel": 2,
      "note": 64,
      "start": 50.9936,
      "duration": 0.0258,
      "velocity": 87,
      "chip": "ym2612"
    },
    {
      "channel": 1,
      "note": 80,
      "start": 51.0193,
      "duration": 0.1974,
      "velocity": 127,
      "chip": "ym2612"
    },
    {
      "channel": 2,
      "note": 64,
      "start": 51.0194,
      "duration": 0.2715,
      "velocity": 87,
      "chip": "ym2612"
    },
    {
      "channel": 5,
      "note": 55,
      "start": 51.0198,
      "duration": 0.1726,
      "velocity": 102,
      "chip": "ym2612"
    },
    {
      "channel": 0,
      "note": 55,
      "start": 51.2166,
      "duration": 0.3714,
      "velocity": 107,
      "chip": "ym2612"
    },
    {
      "channel": 1,
      "note": 56,
      "start": 51.2174,
      "duration": 0.3955,
      "velocity": 117,
      "chip": "ym2612"
    },
    {
      "channel": 4,
      "note": 59,
      "start": 51.2178,
      "duration": 0.1724,
      "velocity": 102,
      "chip": "ym2612"
    },
    {
      "channel": 5,
      "note": 55,
      "start": 51.218,
      "duration": 0.1722,
      "velocity": 102,
      "chip": "ym2612"
    },
    {
      "channel": 3,
      "note": 62,
      "start": 51.2416,
      "duration": 0.1732,
      "velocity": 102,
      "chip": "ym2612"
    },
    {
      "channel": 2,
      "note": 64,
      "start": 51.2909,
      "duration": 0.0249,
      "velocity": 87,
      "chip": "ym2612"
    },
    {
      "channel": 2,
      "note": 55,
      "start": 51.3159,
      "duration": 0.8666,
      "velocity": 87,
      "chip": "ym2612"
    },
    {
      "channel": 0,
      "note": 55,
      "start": 51.6129,
      "duration": 0.1732,
      "velocity": 107,
      "chip": "ym2612"
    },
    {
      "channel": 1,
      "note": 80,
      "start": 51.6137,
      "duration": 0.1973,
      "velocity": 127,
      "chip": "ym2612"
    },
    {
      "channel": 5,
      "note": 55,
      "start": 51.6141,
      "duration": 0.1723,
      "velocity": 102,
      "chip": "ym2612"
    },
    {
      "channel": 1,
      "note": 56,
      "start": 51.8117,
      "duration": 0.3957,
      "velocity": 117,
      "chip": "ym2612"
    },
    {
      "channel": 4,
      "note": 59,
      "start": 51.8122,
      "duration": 0.1724,
      "velocity": 102,
      "chip": "ym2612"
    },
    {
      "channel": 5,
      "note": 55,
      "start": 51.8123,
      "duration": 0.1723,
      "velocity": 102,
      "chip": "ym2612"
    },
    {
      "channel": 3,
      "note": 62,
      "start": 51.8361,
      "duration": 0.1734,
      "velocity": 102,
      "chip": "ym2612"
    },
    {
      "channel": 0,
      "note": 53,
      "start": 52.0092,
      "duration": 0.3714,
      "velocity": 107,
      "chip": "ym2612"
    },
    {
      "channel": 2,
      "note": 55,
      "start": 52.1825,
      "duration": 0.0259,
      "velocity": 87,
      "chip": "ym2612"
    },
    {
      "channel": 1,
      "note": 80,
      "start": 52.2082,
      "duration": 0.1973,
      "velocity": 111,
      "chip": "ym2612"
    },
    {
      "channel": 2,
      "note": 55,
      "start": 52.2083,
      "duration": 0.1723,
      "velocity": 87,
      "chip": "ym2612"
    },
    {
      "channel": 5,
      "note": 55,
      "start": 52.2088,
      "duration": 0.1722,
      "velocity": 102,
      "chip": "ym2612"
    },
    {
      "channel": 4,
      "note": 60,
      "start": 52.2819,
      "duration": 0.099,
      "velocity": 102,
      "chip": "ym2612"
    },
    {
      "channel": 3,
      "note": 62,
      "start": 52.3562,
      "duration": 0.0504,
      "velocity": 102,
      "chip": "ym2612"
    },
    {
      "channel": 2,
      "note": 55,
      "start": 52.3806,
      "duration": 0.0258,
      "velocity": 87,
      "chip": "ym2612"
    },
    {
      "channel": 0,
      "note": 48,
      "start": 52.4055,
      "duration": 0.5695,
      "velocity": 107,
      "chip": "ym2612"
    },
    {
      "channel": 1,
      "note": 29,
      "start": 52.4062,
      "duration": 0.3954,
      "velocity": 107,
      "chip": "ym2612"
    },
    {
      "channel": 2,
      "note": 55,
      "start": 52.4064,
      "duration": 0.0736,
      "velocity": 87,
      "chip": "ym2612"
    },
    {
      "channel": 4,
      "note": 60,
      "start": 52.4068,
      "duration": 0.1723,
      "velocity": 102,
      "chip": "ym2612"
    },
    {
      "channel": 5,
      "note": 55,
      "start": 52.4069,
      "duration": 0.1722,
      "velocity": 102,
      "chip": "ym2612"
    },
    {
      "channel": 3,
      "note": 64,
      "start": 52.4306,
      "duration": 0.1732,
      "velocity": 102,
      "chip": "ym2612"
    },
    {
      "channel": 2,
      "note": 55,
      "start": 52.48,
      "duration": 0.0248,
      "velocity": 87,
      "chip": "ym2612"
    },
    {
      "channel": 2,
      "note": 59,
      "start": 52.5048,
      "duration": 0.1732,
      "velocity": 87,
      "chip": "ym2612"
    },
    {
      "channel": 2,
      "note": 60,
      "start": 52.678,
      "duration": 0.0249,
      "velocity": 87,
      "chip": "ym2612"
    },
    {
      "channel": 2,
      "note": 62,
      "start": 52.7029,
      "duration": 0.074,
      "velocity": 87,
      "chip": "ym2612"
    },
    {
      "channel": 2,
      "note": 62,
      "start": 52.777,
      "duration": 0.0256,
      "velocity": 87,
      "chip": "ym2612"
    },
    {
      "channel": 1,
      "note": 80,
      "start": 52.8024,
      "duration": 0.1976,
      "velocity": 127,
      "chip": "ym2612"
    },
    {
      "channel": 2,
      "note": 62,
      "start": 52.8026,
      "duration": 0.2717,
      "velocity": 87,
      "chip": "ym2612"
    },
    {
      "channel": 5,
      "note": 55,
      "start": 52.803,
      "duration": 0.1724,
      "velocity": 102,
      "chip": "ym2612"
    },
    {
      "channel": 0,
      "note": 48,
      "start": 52.9999,
      "duration": 0.1732,
      "velocity": 107,
      "chip": "ym2612"
    },
    {
      "channel": 1,
      "note": 56,
      "start": 53.0007,
      "duration": 0.3955,
      "velocity": 117,
      "chip": "ym2612"
    },
    {
      "channel": 4,
      "note": 60,
      "start": 53.0011,
      "duration": 0.1724,
      "velocity": 102,
      "chip": "ym2612"
    },
    {
      "channel": 5,
      "note": 55,
      "start": 53.0012,
      "duration": 0.1722,
      "velocity": 102,
      "chip": "ym2612"
    },
    {
      "channel": 3,
      "note": 64,
      "start": 53.0249,
      "duration": 0.1733,
      "velocity": 102,
      "chip": "ym2612"
    },
    {
      "channel": 2,
      "note": 62,
      "start": 53.0742,
      "duration": 0.0249,
      "velocity": 87,
      "chip": "ym2612"
    },
    {
      "channel": 2,
      "note": 64,
      "start": 53.0991,
      "duration": 1.4611,
      "velocity": 87,
      "chip": "ym2612"
    },
    {
      "channel": 1,
      "note": 80,
      "start": 53.3969,
      "duration": 0.1975,
      "velocity": 127,
      "chip": "ym2612"
    },
    {
      "channel": 5,
      "note": 55,
      "start": 53.3974,
      "duration": 0.1724,
      "velocity": 102,
      "chip": "ym2612"
    },
    {
      "channel": 0,
      "note": 48,
      "start": 53.5943,
      "duration": 0.1733,
      "velocity": 107,
      "chip": "ym2612"
    },
    {
      "channel": 1,
      "note": 56,
      "start": 53.5951,
      "duration": 0.3955,
      "velocity": 117,
      "chip": "ym2612"
    },
    {
      "channel": 4,
      "note": 60,
      "start": 53.5955,
      "duration": 0.1724,
      "velocity": 102,
      "chip": "ym2612"
    },
    {
      "channel": 5,
      "note": 55,
      "start": 53.5957,
      "duration": 0.1723,
      "velocity": 102,
      "chip": "ym2612"
    },
    {
      "channel": 3,
      "note": 64,
      "start": 53.6194,
      "duration": 0.1733,
      "velocity": 102,
      "chip": "ym2612"
    },
    {
      "channel": 1,
      "note": 80,
      "start": 53.9913,
      "duration": 0.1975,
      "velocity": 127,
      "chip": "ym2612"
    },
    {
      "channel": 5,
      "note": 55,
      "start": 53.9919,
      "duration": 0.1723,
      "velocity": 102,
      "chip": "ym2612"
    },
    {
      "channel": 0,
      "note": 48,
      "start": 54.1888,
      "duration": 0.1732,
      "velocity": 107,
      "chip": "ym2612"
    },
    {
      "channel": 1,
      "note": 56,
      "start": 54.1895,
      "duration": 0.3955,
      "velocity": 117,
      "chip": "ym2612"
    },
    {
      "channel": 4,
      "note": 60,
      "start": 54.19,
      "duration": 0.1724,
      "velocity": 102,
      "chip": "ym2612"
    },
    {
      "channel": 5,
      "note": 55,
      "start": 54.1901,
      "duration": 0.1722,
      "velocity": 102,
      "chip": "ym2612"
    },
    {
      "channel": 3,
      "note": 64,
      "start": 54.2138,
      "duration": 0.1733,
      "velocity": 102,
      "chip": "ym2612"
    },
    {
      "channel": 2,
      "note": 64,
      "start": 54.5602,
      "duration": 0.0258,
      "velocity": 87,
      "chip": "ym2612"
    },
    {
      "channel": 0,
      "note": 43,
      "start": 54.5851,
      "duration": 0.1733,
      "velocity": 107,
      "chip": "ym2612"
    },
    {
      "channel": 1,
      "note": 29,
      "start": 54.5858,
      "duration": 0.1974,
      "velocity": 107,
      "chip": "ym2612"
    },
    {
      "channel": 2,
      "note": 64,
      "start": 54.586,
      "duration": 0.1724,
      "velocity": 87,
      "chip": "ym2612"
    },
    {
      "channel": 5,
      "note": 55,
      "start": 54.5864,
      "duration": 0.1723,
      "velocity": 102,
      "chip": "ym2612"
    },
    {
      "channel": 2,
      "note": 64,
      "start": 54.7584,
      "duration": 0.0257,
      "velocity": 87,
      "chip": "ym2612"
    },
    {
      "channel": 0,
      "note": 46,
      "start": 54.7832,
      "duration": 0.5695,
      "velocity": 107,
      "chip": "ym2612"
    },
    {
      "channel": 1,
      "note": 29,
      "start": 54.7839,
      "duration": 0.3956,
      "velocity": 107,
      "chip": "ym2612"
    },
    {
      "channel": 2,
      "note": 64,
      "start": 54.7841,
      "duration": 0.0734,
      "velocity": 87,
      "chip": "ym2612"
    },
    {
      "channel": 4,
      "note": 58,
      "start": 54.7844,
      "duration": 0.1723,
      "velocity": 102,
      "chip": "ym2612"
    },
    {
      "channel": 5,
      "note": 55,
      "start": 54.7846,
      "duration": 0.1722,
      "velocity": 102,
      "chip": "ym2612"
    },
    {
      "channel": 3,
      "note": 64,
      "start": 54.8083,
      "duration": 0.1732,
      "velocity": 102,
      "chip": "ym2612"
    },
    {
      "channel": 2,
      "note": 64,
      "start": 54.8576,
      "duration": 0.0249,
      "velocity": 87,
      "chip": "ym2612"
    },
    {
      "channel": 2,
      "note": 66,
      "start": 54.8825,
      "duration": 0.1732,
      "velocity": 87,
      "chip": "ym2612"
    },
    {
      "channel": 2,
      "note": 67,
      "start": 55.0557,
      "duration": 0.0249,
      "velocity": 87,
      "chip": "ym2612"
    },
    {
      "channel": 2,
      "note": 64,
      "start": 55.0806,
      "duration": 0.2722,
      "velocity": 87,
      "chip": "ym2612"
    },
    {
      "channel": 1,
      "note": 80,
      "start": 55.1802,
      "duration": 0.1974,
      "velocity": 127,
      "chip": "ym2612"
    },
    {
      "channel": 5,
      "note": 55,
      "start": 55.1808,
      "duration": 0.1722,
      "velocity": 102,
      "chip": "ym2612"
    },
    {
      "channel": 2,
      "note": 64,
      "start": 55.3528,
      "duration": 0.0258,
      "velocity": 87,
      "chip": "ym2612"
    },
    {
      "channel": 0,
      "note": 46,
      "start": 55.3776,
      "duration": 0.5695,
      "velocity": 107,
      "chip": "ym2612"
    },
    {
      "channel": 1,
      "note": 56,
      "start": 55.3784,
      "duration": 0.3956,
      "velocity": 117,
      "chip": "ym2612"
    },
    {
      "channel": 2,
      "note": 64,
      "start": 55.3786,
      "duration": 0.2715,
      "velocity": 87,
      "chip": "ym2612"
    },
    {
      "channel": 4,
      "note": 58,
      "start": 55.3789,
      "duration": 0.1723,
      "velocity": 102,
      "chip": "ym2612"
    },
    {
      "channel": 5,
      "note": 55,
      "start": 55.379,
      "duration": 0.1721,
      "velocity": 102,
      "chip": "ym2612"
    },
    {
      "channel": 3,
      "note": 64,
      "start": 55.4027,
      "duration": 0.1733,
      "velocity": 102,
      "chip": "ym2612"
    },
    {
      "channel": 2,
      "note": 64,
      "start": 55.6501,
      "duration": 0.0249,
      "velocity": 87,
      "chip": "ym2612"
    },
    {
      "channel": 2,
      "note": 63,
      "start": 55.675,
      "duration": 0.0741,
      "velocity": 87,
      "chip": "ym2612"
    },
    {
      "channel": 2,
      "note": 63,
      "start": 55.7491,
      "duration": 0.0258,
      "velocity": 87,
      "chip": "ym2612"
    },
    {
      "channel": 1,
      "note": 80,
      "start": 55.7747,
      "duration": 0.1974,
      "velocity": 127,
      "chip": "ym2612"
    },
    {
      "channel": 2,
      "note": 63,
      "start": 55.7749,
      "duration": 0.2715,
      "velocity": 87,
      "chip": "ym2612"
    },
    {
      "channel": 5,
      "note": 55,
      "start": 55.7753,
      "duration": 0.1722,
      "velocity": 102,
      "chip": "ym2612"
    },
    {
      "channel": 0,
      "note": 47,
      "start": 55.9721,
      "duration": 0.5695,
      "velocity": 107,
      "chip": "ym2612"
    },
    {
      "channel": 1,
      "note": 56,
      "start": 55.9728,
      "duration": 0.3956,
      "velocity": 117,
      "chip": "ym2612"
    },
    {
      "channel": 4,
      "note": 59,
      "start": 55.9732,
      "duration": 0.1723,
      "velocity": 102,
      "chip": "ym2612"
    },
    {
      "channel": 5,
      "note": 55,
      "start": 55.9734,
      "duration": 0.1722,
      "velocity": 102,
      "chip": "ym2612"
    },
    {
      "channel": 3,
      "note": 62,
      "start": 55.9971,
      "duration": 0.1732,
      "velocity": 102,
      "chip": "ym2612"
    },
    {
      "channel": 2,
      "note": 63,
      "start": 56.0464,
      "duration": 0.0249,
      "velocity": 87,
      "chip": "ym2612"
    },
    {
      "channel": 2,
      "note": 62,
      "start": 56.0713,
      "duration": 0.7676,
      "velocity": 87,
      "chip": "ym2612"
    },
    {
      "channel": 1,
      "note": 29,
      "start": 56.3691,
      "duration": 0.0982,
      "velocity": 107,
      "chip": "ym2612"
    },
    {
      "channel": 5,
      "note": 55,
      "start": 56.3696,
      "duration": 0.1724,
      "velocity": 102,
      "chip": "ym2612"
    },
    {
      "channel": 1,
      "note": 29,
      "start": 56.4675,
      "duration": 0.099,
      "velocity": 107,
      "chip": "ym2612"
    },
    {
      "channel": 0,
      "note": 47,
      "start": 56.5665,
      "duration": 0.5695,
      "velocity": 107,
      "chip": "ym2612"
    },
    {
      "channel": 1,
      "note": 63,
      "start": 56.5673,
      "duration": 0.1973,
      "velocity": 120,
      "chip": "ym2612"
    },
    {
      "channel": 4,
      "note": 59,
      "start": 56.5677,
      "duration": 0.1725,
      "velocity": 102,
      "chip": "ym2612"
    },
    {
      "channel": 5,
      "note": 55,
      "start": 56.5678,
      "duration": 0.1724,
      "velocity": 102,
      "chip": "ym2612"
    },
    {
      "channel": 3,
      "note": 62,
      "start": 56.5916,
      "duration": 0.1734,
      "velocity": 102,
      "chip": "ym2612"
    },
    {
      "channel": 1,
      "note": 63,
      "start": 56.7647,
      "duration": 0.198,
      "velocity": 120,
      "chip": "ym2612"
    },
    {
      "channel": 2,
      "note": 62,
      "start": 56.8389,
      "duration": 0.0249,
      "velocity": 87,
      "chip": "ym2612"
    },
    {
      "channel": 2,
      "note": 62,
      "start": 56.8639,
      "duration": 0.2722,
      "velocity": 87,
      "chip": "ym2612"
    },
    {
      "channel": 1,
      "note": 80,
      "start": 56.9634,
      "duration": 0.1976,
      "velocity": 111,
      "chip": "ym2612"
    },
    {
      "channel": 5,
      "note": 55,
      "start": 56.9639,
      "duration": 0.1725,
      "velocity": 102,
      "chip": "ym2612"
    },
    {
      "channel": 2,
      "note": 63,
      "start": 57.1361,
      "duration": 0.0001,
      "velocity": 87,
      "chip": "ym2612"
    },
    {
      "channel": 0,
      "note": 48,
      "start": 57.1609,
      "duration": 0.5695,
      "velocity": 107,
      "chip": "ym2612"
    },
    {
      "channel": 1,
      "note": 29,
      "start": 57.1617,
      "duration": 0.3954,
      "velocity": 107,
      "chip": "ym2612"
    },
    {
      "channel": 2,
      "note": 62,
      "start": 57.1619,
      "duration": 0.0002,
      "velocity": 87,
      "chip": "ym2612"
    },
    {
      "channel": 2,
      "note": 59,
      "start": 57.1621,
      "duration": 0.2714,
      "velocity": 87,
      "chip": "ym2612"
    },
    {
      "channel": 4,
      "note": 60,
      "start": 57.1622,
      "duration": 0.1723,
      "velocity": 102,
      "chip": "ym2612"
    },
    {
      "channel": 5,
      "note": 55,
      "start": 57.1624,
      "duration": 0.1721,
      "velocity": 102,
      "chip": "ym2612"
    },
    {
      "channel": 3,
      "note": 64,
      "start": 57.186,
      "duration": 0.1733,
      "velocity": 102,
      "chip": "ym2612"
    },
    {
      "channel": 2,
      "note": 62,
      "start": 57.4334,
      "duration": 0.0249,
      "velocity": 87,
      "chip": "ym2612"
    },
    {
      "channel": 2,
      "note": 63,
      "start": 57.4584,
      "duration": 0.074,
      "velocity": 87,
      "chip": "ym2612"
    },
    {
      "channel": 2,
      "note": 63,
      "start": 57.5324,
      "duration": 0.0256,
      "velocity": 87,
      "chip": "ym2612"
    },
    {
      "channel": 1,
      "note": 80,
      "start": 57.5578,
      "duration": 0.1976,
      "velocity": 127,
      "chip": "ym2612"
    },
    {
      "channel": 2,
      "note": 63,
      "start": 57.558,
      "duration": 0.2717,
      "velocity": 87,
      "chip": "ym2612"
    },
    {
      "channel": 5,
      "note": 55,
      "start": 57.5585,
      "duration": 0.1722,
      "velocity": 102,
      "chip": "ym2612"
    },
    {
      "channel": 0,
      "note": 48,
      "start": 57.7554,
      "duration": 0.1733,
      "velocity": 107,
      "chip": "ym2612"
    },
    {
      "channel": 1,
      "note": 56,
      "start": 57.7561,
      "duration": 0.3955,
      "velocity": 117,
      "chip": "ym2612"
    },
    {
      "channel": 4,
      "note": 60,
      "start": 57.7565,
      "duration": 0.1724,
      "velocity": 102,
      "chip": "ym2612"
    },
    {
      "channel": 5,
      "note": 55,
      "start": 57.7567,
      "duration": 0.1722,
      "velocity": 102,
      "chip": "ym2612"
    },
    {
      "channel": 3,
      "note": 64,
      "start": 57.7804,
      "duration": 0.1733,
      "velocity": 102,
      "chip": "ym2612"
    },
    {
      "channel": 2,
      "note": 64,
      "start": 57.8297,
      "duration": 0.0249,
      "velocity": 87,
      "chip": "ym2612"
    },
    {
      "channel": 2,
      "note": 67,
      "start": 57.8546,
      "duration": 2.5508,
      "velocity": 87,
      "chip": "ym2612"
    },
    {
      "channel": 1,
      "note": 80,
      "start": 58.1524,
      "duration": 0.1976,
      "velocity": 127,
      "chip": "ym2612"
    },
    {
      "channel": 5,
      "note": 55,
      "start": 58.1528,
      "duration": 0.1724,
      "velocity": 102,
      "chip": "ym2612"
    },
    {
      "channel": 0,
      "note": 48,
      "start": 58.3499,
      "duration": 0.1732,
      "velocity": 107,
      "chip": "ym2612"
    },
    {
      "channel": 1,
      "note": 56,
      "start": 58.3507,
      "duration": 0.3954,
      "velocity": 117,
      "chip": "ym2612"
    },
    {
      "channel": 4,
      "note": 60,
      "start": 58.3511,
      "duration": 0.1723,
      "velocity": 102,
      "chip": "ym2612"
    },
    {
      "channel": 5,
      "note": 55,
      "start": 58.3513,
      "duration": 0.1721,
      "velocity": 102,
      "chip": "ym2612"
    },
    {
      "channel": 3,
      "note": 64,
      "start": 58.3748,
      "duration": 0.1733,
      "velocity": 102,
      "chip": "ym2612"
    },
    {
      "channel": 1,
      "note": 80,
      "start": 58.7468,
      "duration": 0.1975,
      "velocity": 127,
      "chip": "ym2612"
    },
    {
      "channel": 5,
      "note": 55,
      "start": 58.7473,
      "duration": 0.1723,
      "velocity": 102,
      "chip": "ym2612"
    },
    {
      "channel": 0,
      "note": 48,
      "start": 58.9442,
      "duration": 0.1733,
      "velocity": 107,
      "chip": "ym2612"
    },
    {
      "channel": 1,
      "note": 56,
      "start": 58.945,
      "duration": 0.3956,
      "velocity": 117,
      "chip": "ym2612"
    },
    {
      "channel": 4,
      "note": 60,
      "start": 58.9454,
      "duration": 0.1724,
      "velocity": 102,
      "chip": "ym2612"
    },
    {
      "channel": 5,
      "note": 55,
      "start": 58.9456,
      "duration": 0.1722,
      "velocity": 102,
      "chip": "ym2612"
    },
    {
      "channel": 3,
      "note": 64,
      "start": 58.9693,
      "duration": 0.1733,
      "velocity": 102,
      "chip": "ym2612"
    },
    {
      "channel": 0,
      "note": 43,
      "start": 59.3405,
      "duration": 0.1732,
      "velocity": 107,
      "chip": "ym2612"
    },
    {
      "channel": 1,
      "note": 29,
      "start": 59.3413,
      "duration": 0.1974,
      "velocity": 107,
      "chip": "ym2612"
    },
    {
      "channel": 5,
      "note": 55,
      "start": 59.3418,
      "duration": 0.1724,
      "velocity": 102,
      "chip": "ym2612"
    },
    {
      "channel": 0,
      "note": 46,
      "start": 59.5387,
      "duration": 0.5695,
      "velocity": 107,
      "chip": "ym2612"
    },
    {
      "channel": 1,
      "note": 29,
      "start": 59.5394,
      "duration": 0.3954,
      "velocity": 107,
      "chip": "ym2612"
    },
    {
      "channel": 4,
      "note": 58,
      "start": 59.5398,
      "duration": 0.1724,
      "velocity": 102,
      "chip": "ym2612"
    },
    {
      "channel": 5,
      "note": 55,
      "start": 59.54,
      "duration": 0.1723,
      "velocity": 102,
      "chip": "ym2612"
    },
    {
      "channel": 3,
      "note": 64,
      "start": 59.5638,
      "duration": 0.1733,
      "velocity": 102,
      "chip": "ym2612"
    },
    {
      "channel": 1,
      "note": 80,
      "start": 59.9356,
      "duration": 0.1976,
      "velocity": 127,
      "chip": "ym2612"
    },
    {
      "channel": 5,
      "note": 55,
      "start": 59.9361,
      "duration": 0.1724,
      "velocity": 102,
      "chip": "ym2612"
    },
    {
      "channel": 0,
      "note": 46,
      "start": 60.1331,
      "duration": 0.1733,
      "velocity": 107,
      "chip": "ym2612"
    },
    {
      "channel": 1,
      "note": 56,
      "start": 60.1339,
      "duration": 0.3956,
      "velocity": 117,
      "chip": "ym2612"
    },
    {
      "channel": 4,
      "note": 58,
      "start": 60.1343,
      "duration": 0.1724,
      "velocity": 102,
      "chip": "ym2612"
    },
    {
      "channel": 5,
      "note": 55,
      "start": 60.1345,
      "duration": 0.1722,
      "velocity": 102,
      "chip": "ym2612"
    },
    {
      "channel": 3,
      "note": 64,
      "start": 60.1581,
      "duration": 0.1733,
      "velocity": 102,
      "chip": "ym2612"
    },
    {
      "channel": 2,
      "note": 67,
      "start": 60.4054,
      "duration": 0.0251,
      "velocity": 87,
      "chip": "ym2612"
    },
    {
      "channel": 2,
      "note": 67,
      "start": 60.4306,
      "duration": 0.2721,
      "velocity": 87,
      "chip": "ym2612"
    },
    {
      "channel": 0,
      "note": 43,
      "start": 60.5294,
      "duration": 0.1733,
      "velocity": 107,
      "chip": "ym2612"
    },
    {
      "channel": 1,
      "note": 80,
      "start": 60.5301,
      "duration": 0.1974,
      "velocity": 127,
      "chip": "ym2612"
    },
    {
      "channel": 5,
      "note": 55,
      "start": 60.5307,
      "duration": 0.1723,
      "velocity": 102,
      "chip": "ym2612"
    },
    {
      "channel": 2,
      "note": 67,
      "start": 60.7027,
      "duration": 0.0001,
      "velocity": 87,
      "chip": "ym2612"
    },
    {
      "channel": 0,
      "note": 46,
      "start": 60.7275,
      "duration": 0.1732,
      "velocity": 107,
      "chip": "ym2612"
    },
    {
      "channel": 1,
      "note": 56,
      "start": 60.7283,
      "duration": 0.3955,
      "velocity": 117,
      "chip": "ym2612"
    },
    {
      "channel": 2,
      "note": 67,
      "start": 60.7285,
      "duration": 0.0002,
      "velocity": 87,
      "chip": "ym2612"
    },
    {
      "channel": 2,
      "note": 64,
      "start": 60.7287,
      "duration": 0.2713,
      "velocity": 87,
      "chip": "ym2612"
    },
    {
      "channel": 4,
      "note": 58,
      "start": 60.7288,
      "duration": 0.1722,
      "velocity": 102,
      "chip": "ym2612"
    },
    {
      "channel": 5,
      "note": 55,
      "start": 60.729,
      "duration": 0.1721,
      "velocity": 102,
      "chip": "ym2612"
    },
    {
      "channel": 3,
      "note": 64,
      "start": 60.7525,
      "duration": 0.1734,
      "velocity": 102,
      "chip": "ym2612"
    },
    {
      "channel": 2,
      "note": 67,
      "start": 61.0,
      "duration": 0.0249,
      "velocity": 87,
      "chip": "ym2612"
    },
    {
      "channel": 2,
      "note": 68,
      "start": 61.0249,
      "duration": 0.0741,
      "velocity": 87,
      "chip": "ym2612"
    },
    {
      "channel": 2,
      "note": 68,
      "start": 61.099,
      "duration": 0.0258,
      "velocity": 87,
      "chip": "ym2612"
    },
    {
      "channel": 0,
      "note": 43,
      "start": 61.1238,
      "duration": 0.1733,
      "velocity": 107,
      "chip": "ym2612"
    },
    {
      "channel": 1,
      "note": 80,
      "start": 61.1246,
      "duration": 0.1974,
      "velocity": 127,
      "chip": "ym2612"
    },
    {
      "channel": 2,
      "note": 68,
      "start": 61.1248,
      "duration": 0.2715,
      "velocity": 87,
      "chip": "ym2612"
    },
    {
      "channel": 5,
      "note": 55,
      "start": 61.1252,
      "duration": 0.1721,
      "velocity": 102,
      "chip": "ym2612"
    },
    {
      "channel": 0,
      "note": 46,
      "start": 61.322,
      "duration": 0.5695,
      "velocity": 107,
      "chip": "ym2612"
    },
    {
      "channel": 1,
      "note": 56,
      "start": 61.3227,
      "duration": 0.3954,
      "velocity": 117,
      "chip": "ym2612"
    },
    {
      "channel": 4,
      "note": 58,
      "start": 61.3232,
      "duration": 0.1723,
      "velocity": 102,
      "chip": "ym2612"
    },
    {
      "channel": 5,
      "note": 55,
      "start": 61.3234,
      "duration": 0.1721,
      "velocity": 102,
      "chip": "ym2612"
    },
    {
      "channel": 3,
      "note": 64,
      "start": 61.347,
      "duration": 0.1732,
      "velocity": 102,
      "chip": "ym2612"
    },
    {
      "channel": 2,
      "note": 67,
      "start": 61.3963,
      "duration": 0.0249,
      "velocity": 87,
      "chip": "ym2612"
    },
    {
      "channel": 2,
      "note": 64,
      "start": 61.4212,
      "duration": 0.2722,
      "velocity": 87,
      "chip": "ym2612"
    },
    {
      "channel": 2,
      "note": 62,
      "start": 61.6934,
      "duration": 0.0257,
      "velocity": 87,
      "chip": "ym2612"
    },
    {
      "channel": 1,
      "note": 80,
      "start": 61.7189,
      "duration": 0.1976,
      "velocity": 111,
      "chip": "ym2612"
    },
    {
      "channel": 2,
      "note": 62,
      "start": 61.719,
      "duration": 0.1725,
      "velocity": 87,
      "chip": "ym2612"
    },
    {
      "channel": 5,
      "note": 55,
      "start": 61.7194,
      "duration": 0.1724,
      "velocity": 102,
      "chip": "ym2612"
    },
    {
      "channel": 2,
      "note": 62,
      "start": 61.8915,
      "duration": 0.0258,
      "velocity": 87,
      "chip": "ym2612"
    },
    {
      "channel": 0,
      "note": 45,
      "start": 61.9164,
      "duration": 0.5696,
      "velocity": 107,
      "chip": "ym2612"
    },
    {
      "channel": 1,
      "note": 29,
      "start": 61.9171,
      "duration": 0.3954,
      "velocity": 107,
      "chip": "ym2612"
    },
    {
      "channel": 2,
      "note": 62,
      "start": 61.9173,
      "duration": 0.0734,
      "velocity": 87,
      "chip": "ym2612"
    },
    {
      "channel": 4,
      "note": 57,
      "start": 61.9176,
      "duration": 0.1725,
      "velocity": 102,
      "chip": "ym2612"
    },
    {
      "channel": 5,
      "note": 55,
      "start": 61.9178,
      "duration": 0.1724,
      "velocity": 102,
      "chip": "ym2612"
    },
    {
      "channel": 3,
      "note": 64,
      "start": 61.9415,
      "duration": 0.1733,
      "velocity": 102,
      "chip": "ym2612"
    },
    {
      "channel": 2,
      "note": 62,
      "start": 61.9908,
      "duration": 0.025,
      "velocity": 87,
      "chip": "ym2612"
    },
    {
      "channel": 2,
      "note": 60,
      "start": 62.0158,
      "duration": 0.1731,
      "velocity": 87,
      "chip": "ym2612"
    },
    {
      "channel": 2,
      "note": 60,
      "start": 62.1889,
      "duration": 0.0249,
      "velocity": 87,
      "chip": "ym2612"
    },
    {
      "channel": 2,
      "note": 60,
      "start": 62.2138,
      "duration": 0.074,
      "velocity": 87,
      "chip": "ym2612"
    },
    {
      "channel": 2,
      "note": 60,
      "start": 62.2879,
      "duration": 0.0256,
      "velocity": 87,
      "chip": "ym2612"
    },
    {
      "channel": 1,
      "note": 80,
      "start": 62.3133,
      "duration": 0.1976,
      "velocity": 127,
      "chip": "ym2612"
    },
    {
      "channel": 2,
      "note": 60,
      "start": 62.3135,
      "duration": 0.2717,
      "velocity": 87,
      "chip": "ym2612"
    },
    {
      "channel": 5,
      "note": 55,
      "start": 62.314,
      "duration": 0.1723,
      "velocity": 102,
      "chip": "ym2612"
    },
    {
      "channel": 0,
      "note": 45,
      "start": 62.5108,
      "duration": 0.1733,
      "velocity": 107,
      "chip": "ym2612"
    },
    {
      "channel": 1,
      "note": 56,
      "start": 62.5116,
      "duration": 0.3955,
      "velocity": 117,
      "chip": "ym2612"
    },
    {
      "channel": 4,
      "note": 57,
      "start": 62.512,
      "duration": 0.1724,
      "velocity": 102,
      "chip": "ym2612"
    },
    {
      "channel": 5,
      "note": 55,
      "start": 62.5122,
      "duration": 0.1722,
      "velocity": 102,
      "chip": "ym2612"
    },
    {
      "channel": 3,
      "note": 64,
      "start": 62.5359,
      "duration": 0.1733,
      "velocity": 102,
      "chip": "ym2612"
    },
    {
      "channel": 2,
      "note": 60,
      "start": 62.5851,
      "duration": 0.025,
      "velocity": 87,
      "chip": "ym2612"
    },
    {
      "channel": 2,
      "note": 57,
      "start": 62.6101,
      "duration": 3.4425,
      "velocity": 87,
      "chip": "ym2612"
    },
    {
      "channel": 1,
      "note": 80,
      "start": 62.9078,
      "duration": 0.1975,
      "velocity": 127,
      "chip": "ym2612"
    },
    {
      "channel": 5,
      "note": 55,
      "start": 62.9083,
      "duration": 0.1724,
      "velocity": 102,
      "chip": "ym2612"
    },
    {
      "channel": 0,
      "note": 45,
      "start": 63.1052,
      "duration": 0.1733,
      "velocity": 107,
      "chip": "ym2612"
    },
    {
      "channel": 1,
      "note": 56,
      "start": 63.106,
      "duration": 0.3955,
      "velocity": 117,
      "chip": "ym2612"
    },
    {
      "channel": 4,
      "note": 57,
      "start": 63.1064,
      "duration": 0.1724,
      "velocity": 102,
      "chip": "ym2612"
    },
    {
      "channel": 5,
      "note": 55,
      "start": 63.1066,
      "duration": 0.1723,
      "velocity": 102,
      "chip": "ym2612"
    },
    {
      "channel": 3,
      "note": 64,
      "start": 63.1303,
      "duration": 0.1733,
      "velocity": 102,
      "chip": "ym2612"
    },
    {
      "channel": 1,
      "note": 80,
      "start": 63.5022,
      "duration": 0.1977,
      "velocity": 127,
      "chip": "ym2612"
    },
    {
      "channel": 5,
      "note": 55,
      "start": 63.5028,
      "duration": 0.1723,
      "velocity": 102,
      "chip": "ym2612"
    },
    {
      "channel": 0,
      "note": 45,
      "start": 63.6999,
      "duration": 0.173,
      "velocity": 107,
      "chip": "ym2612"
    },
    {
      "channel": 1,
      "note": 56,
      "start": 63.7007,
      "duration": 0.3953,
      "velocity": 117,
      "chip": "ym2612"
    },
    {
      "channel": 4,
      "note": 57,
      "start": 63.7011,
      "duration": 0.1721,
      "velocity": 102,
      "chip": "ym2612"
    },
    {
      "channel": 5,
      "note": 55,
      "start": 63.7013,
      "duration": 0.172,
      "velocity": 102,
      "chip": "ym2612"
    },
    {
      "channel": 3,
      "note": 64,
      "start": 63.7247,
      "duration": 0.1734,
      "velocity": 102,
      "chip": "ym2612"
    },
    {
      "channel": 0,
      "note": 52,
      "start": 63.8978,
      "duration": 0.3714,
      "velocity": 107,
      "chip": "ym2612"
    },
    {
      "channel": 1,
      "note": 29,
      "start": 64.0968,
      "duration": 0.1974,
      "velocity": 107,
      "chip": "ym2612"
    },
    {
      "channel": 5,
      "note": 55,
      "start": 64.0973,
      "duration": 0.1723,
      "velocity": 102,
      "chip": "ym2612"
    },
    {
      "channel": 0,
      "note": 53,
      "start": 64.2941,
      "duration": 0.5695,
      "velocity": 107,
      "chip": "ym2612"
    },
    {
      "channel": 1,
      "note": 29,
      "start": 64.2949,
      "duration": 0.3954,
      "velocity": 107,
      "chip": "ym2612"
    },
    {
      "channel": 4,
      "note": 60,
      "start": 64.2953,
      "duration": 0.1724,
      "velocity": 102,
      "chip": "ym2612"
    },
    {
      "channel": 5,
      "note": 57,
      "start": 64.2955,
      "duration": 0.1723,
      "velocity": 102,
      "chip": "ym2612"
    },
    {
      "channel": 3,
      "note": 65,
      "start": 64.3192,
      "duration": 0.1733,
      "velocity": 102,
      "chip": "ym2612"
    },
    {
      "channel": 1,
      "note": 80,
      "start": 64.691,
      "duration": 0.1976,
      "velocity": 127,
      "chip": "ym2612"
    },
    {
      "channel": 5,
      "note": 57,
      "start": 64.6915,
      "duration": 0.1724,
      "velocity": 102,
      "chip": "ym2612"
    },
    {
      "channel": 0,
      "note": 53,
      "start": 64.8885,
      "duration": 0.1733,
      "velocity": 107,
      "chip": "ym2612"
    },
    {
      "channel": 1,
      "note": 56,
      "start": 64.8893,
      "duration": 0.3955,
      "velocity": 117,
      "chip": "ym2612"
    },
    {
      "channel": 4,
      "note": 60,
      "start": 64.8897,
      "duration": 0.1724,
      "velocity": 102,
      "chip": "ym2612"
    },
    {
      "channel": 5,
      "note": 57,
      "start": 64.8899,
      "duration": 0.1722,
      "velocity": 102,
      "chip": "ym2612"
    },
    {
      "channel": 3,
      "note": 65,
      "start": 64.9136,
      "duration": 0.1733,
      "velocity": 102,
      "chip": "ym2612"
    },
    {
      "channel": 1,
      "note": 80,
      "start": 65.2855,
      "duration": 0.1975,
      "velocity": 127,
      "chip": "ym2612"
    },
    {
      "channel": 5,
      "note": 57,
      "start": 65.2861,
      "duration": 0.1724,
      "velocity": 102,
      "chip": "ym2612"
    },
    {
      "channel": 0,
      "note": 53,
      "start": 65.483,
      "duration": 0.1733,
      "velocity": 107,
      "chip": "ym2612"
    },
    {
      "channel": 1,
      "note": 56,
      "start": 65.4837,
      "duration": 0.3956,
      "velocity": 117,
      "chip": "ym2612"
    },
    {
      "channel": 4,
      "note": 60,
      "start": 65.4842,
      "duration": 0.1724,
      "velocity": 102,
      "chip": "ym2612"
    },
    {
      "channel": 5,
      "note": 57,
      "start": 65.4843,
      "duration": 0.1722,
      "velocity": 102,
      "chip": "ym2612"
    },
    {
      "channel": 3,
      "note": 65,
      "start": 65.508,
      "duration": 0.1733,
      "velocity": 102,
      "chip": "ym2612"
    },
    {
      "channel": 0,
      "note": 53,
      "start": 65.8793,
      "duration": 0.3716,
      "velocity": 107,
      "chip": "ym2612"
    },
    {
      "channel": 1,
      "note": 29,
      "start": 65.88,
      "duration": 0.1973,
      "velocity": 107,
      "chip": "ym2612"
    },
    {
      "channel": 5,
      "note": 57,
      "start": 65.8806,
      "duration": 0.1724,
      "velocity": 102,
      "chip": "ym2612"
    },
    {
      "channel": 2,
      "note": 58,
      "start": 66.0526,
      "duration": 0.2232,
      "velocity": 87,
      "chip": "ym2612"
    },
    {
      "channel": 1,
      "note": 63,
      "start": 66.078,
      "duration": 0.3957,
      "velocity": 120,
      "chip": "ym2612"
    },
    {
      "channel": 4,
      "note": 60,
      "start": 66.0784,
      "duration": 0.1728,
      "velocity": 102,
      "chip": "ym2612"
    },
    {
      "channel": 5,
      "note": 57,
      "start": 66.0786,
      "duration": 0.1726,
      "velocity": 102,
      "chip": "ym2612"
    },
    {
      "channel": 3,
      "note": 65,
      "start": 66.1025,
      "duration": 0.1735,
      "velocity": 102,
      "chip": "ym2612"
    },
    {
      "channel": 0,
      "note": 53,
      "start": 66.2756,
      "duration": 0.3714,
      "velocity": 107,
      "chip": "ym2612"
    },
    {
      "channel": 2,
      "note": 57,
      "start": 66.2758,
      "duration": 0.0742,
      "velocity": 87,
      "chip": "ym2612"
    },
    {
      "channel": 2,
      "note": 57,
      "start": 66.35,
      "duration": 0.0989,
      "velocity": 87,
      "chip": "ym2612"
    },
    {
      "channel": 1,
      "note": 80,
      "start": 66.4745,
      "duration": 0.1974,
      "velocity": 111,
      "chip": "ym2612"
    },
    {
      "channel": 2,
      "note": 57,
      "start": 66.4746,
      "duration": 0.0983,
      "velocity": 87,
      "chip": "ym2612"
    },
    {
      "channel": 5,
      "note": 57,
      "start": 66.475,
      "duration": 0.1724,
      "velocity": 102,
      "chip": "ym2612"
    },
    {
      "channel": 2,
      "note": 56,
      "start": 66.573,
      "duration": 0.0741,
      "velocity": 87,
      "chip": "ym2612"
    },
    {
      "channel": 2,
      "note": 56,
      "start": 66.6471,
      "duration": 0.0257,
      "velocity": 87,
      "chip": "ym2612"
    },
    {
      "channel": 0,
      "note": 50,
      "start": 66.6718,
      "duration": 0.5695,
      "velocity": 107,
      "chip": "ym2612"
    },
    {
      "channel": 1,
      "note": 29,
      "start": 66.6726,
      "duration": 0.3954,
      "velocity": 107,
      "chip": "ym2612"
    },
    {
      "channel": 2,
      "note": 56,
      "start": 66.6728,
      "duration": 0.0735,
      "velocity": 87,
      "chip": "ym2612"
    },
    {
      "channel": 4,
      "note": 62,
      "start": 66.6732,
      "duration": 0.1723,
      "velocity": 102,
      "chip": "ym2612"
    },
    {
      "channel": 5,
      "note": 57,
      "start": 66.6733,
      "duration": 0.1722,
      "velocity": 102,
      "chip": "ym2612"
    },
    {
      "channel": 3,
      "note": 65,
      "start": 66.6969,
      "duration": 0.1732,
      "velocity": 102,
      "chip": "ym2612"
    },
    {
      "channel": 2,
      "note": 57,
      "start": 66.7462,
      "duration": 0.0249,
      "velocity": 87,
      "chip": "ym2612"
    },
    {
      "channel": 2,
      "note": 59,
      "start": 66.7711,
      "duration": 0.1732,
      "velocity": 87,
      "chip": "ym2612"
    },
    {
      "channel": 2,
      "note": 59,
      "start": 66.9444,
      "duration": 0.0249,
      "velocity": 87,
      "chip": "ym2612"
    },
    {
      "channel": 2,
      "note": 60,
      "start": 66.9693,
      "duration": 3.0957,
      "velocity": 87,
      "chip": "ym2612"
    },
    {
      "channel": 1,
      "note": 80,
      "start": 67.0688,
      "duration": 0.1976,
      "velocity": 127,
      "chip": "ym2612"
    },
    {
      "channel": 5,
      "note": 57,
      "start": 67.0693,
      "duration": 0.1724,
      "velocity": 102,
      "chip": "ym2612"
    },
    {
      "channel": 0,
      "note": 50,
      "start": 67.2663,
      "duration": 0.1732,
      "velocity": 107,
      "chip": "ym2612"
    },
    {
      "channel": 1,
      "note": 56,
      "start": 67.2671,
      "duration": 0.3955,
      "velocity": 117,
      "chip": "ym2612"
    },
    {
      "channel": 4,
      "note": 62,
      "start": 67.2674,
      "duration": 0.1724,
      "velocity": 102,
      "chip": "ym2612"
    },
    {
      "channel": 5,
      "note": 57,
      "start": 67.2676,
      "duration": 0.1723,
      "velocity": 102,
      "chip": "ym2612"
    },
    {
      "channel": 3,
      "note": 65,
      "start": 67.2913,
      "duration": 0.1733,
      "velocity": 102,
      "chip": "ym2612"
    },
    {
      "channel": 1,
      "note": 80,
      "start": 67.6633,
      "duration": 0.1975,
      "velocity": 127,
      "chip": "ym2612"
    },
    {
      "channel": 5,
      "note": 57,
      "start": 67.6638,
      "duration": 0.1723,
      "velocity": 102,
      "chip": "ym2612"
    },
    {
      "channel": 0,
      "note": 50,
      "start": 67.8607,
      "duration": 0.1733,
      "velocity": 107,
      "chip": "ym2612"
    },
    {
      "channel": 1,
      "note": 56,
      "start": 67.8615,
      "duration": 0.3955,
      "velocity": 117,
      "chip": "ym2612"
    },
    {
      "channel": 4,
      "note": 62,
      "start": 67.8619,
      "duration": 0.1724,
      "velocity": 102,
      "chip": "ym2612"
    },
    {
      "channel": 5,
      "note": 57,
      "start": 67.8621,
      "duration": 0.1722,
      "velocity": 102,
      "chip": "ym2612"
    },
    {
      "channel": 3,
      "note": 65,
      "start": 67.8858,
      "duration": 0.1733,
      "velocity": 102,
      "chip": "ym2612"
    },
    {
      "channel": 1,
      "note": 80,
      "start": 68.2577,
      "duration": 0.1975,
      "velocity": 127,
      "chip": "ym2612"
    },
    {
      "channel": 5,
      "note": 57,
      "start": 68.2582,
      "duration": 0.1724,
      "velocity": 102,
      "chip": "ym2612"
    },
    {
      "channel": 0,
      "note": 50,
      "start": 68.4551,
      "duration": 0.1733,
      "velocity": 107,
      "chip": "ym2612"
    },
    {
      "channel": 1,
      "note": 56,
      "start": 68.4559,
      "duration": 0.3955,
      "velocity": 117,
      "chip": "ym2612"
    },
    {
      "channel": 4,
      "note": 62,
      "start": 68.4563,
      "duration": 0.1724,
      "velocity": 102,
      "chip": "ym2612"
    },
    {
      "channel": 5,
      "note": 57,
      "start": 68.4565,
      "duration": 0.1722,
      "velocity": 102,
      "chip": "ym2612"
    },
    {
      "channel": 3,
      "note": 65,
      "start": 68.4802,
      "duration": 0.1737,
      "velocity": 102,
      "chip": "ym2612"
    },
    {
      "channel": 0,
      "note": 43,
      "start": 68.8514,
      "duration": 0.1733,
      "velocity": 107,
      "chip": "ym2612"
    },
    {
      "channel": 1,
      "note": 29,
      "start": 68.8522,
      "duration": 0.1974,
      "velocity": 107,
      "chip": "ym2612"
    },
    {
      "channel": 5,
      "note": 57,
      "start": 68.8527,
      "duration": 0.1724,
      "velocity": 102,
      "chip": "ym2612"
    },
    {
      "channel": 0,
      "note": 43,
      "start": 69.0496,
      "duration": 0.1733,
      "velocity": 107,
      "chip": "ym2612"
    },
    {
      "channel": 1,
      "note": 29,
      "start": 69.0503,
      "duration": 0.3956,
      "velocity": 107,
      "chip": "ym2612"
    },
    {
      "channel": 4,
      "note": 62,
      "start": 69.0507,
      "duration": 0.1724,
      "velocity": 102,
      "chip": "ym2612"
    },
    {
      "channel": 5,
      "note": 57,
      "start": 69.0509,
      "duration": 0.1723,
      "velocity": 102,
      "chip": "ym2612"
    },
    {
      "channel": 3,
      "note": 65,
      "start": 69.0747,
      "duration": 0.1734,
      "velocity": 102,
      "chip": "ym2612"
    },
    {
      "channel": 0,
      "note": 53,
      "start": 69.2477,
      "duration": 0.3714,
      "velocity": 107,
      "chip": "ym2612"
    },
    {
      "channel": 1,
      "note": 80,
      "start": 69.4466,
      "duration": 0.1974,
      "velocity": 127,
      "chip": "ym2612"
    },
    {
      "channel": 5,
      "note": 57,
      "start": 69.4472,
      "duration": 0.1723,
      "velocity": 102,
      "chip": "ym2612"
    },
    {
      "channel": 0,
      "note": 43,
      "start": 69.644,
      "duration": 0.1732,
      "velocity": 107,
      "chip": "ym2612"
    },
    {
      "channel": 1,
      "note": 56,
      "start": 69.6448,
      "duration": 0.3955,
      "velocity": 117,
      "chip": "ym2612"
    },
    {
      "channel": 4,
      "note": 62,
      "start": 69.6452,
      "duration": 0.1724,
      "velocity": 102,
      "chip": "ym2612"
    },
    {
      "channel": 5,
      "note": 57,
      "start": 69.6454,
      "duration": 0.1722,
      "velocity": 102,
      "chip": "ym2612"
    },
    {
      "channel": 3,
      "note": 65,
      "start": 69.6691,
      "duration": 0.1733,
      "velocity": 102,
      "chip": "ym2612"
    },
    {
      "channel": 0,
      "note": 43,
      "start": 70.0403,
      "duration": 0.1732,
      "velocity": 107,
      "chip": "ym2612"
    },
    {
      "channel": 1,
      "note": 80,
      "start": 70.041,
      "duration": 0.1974,
      "velocity": 127,
      "chip": "ym2612"
    },
    {
      "channel": 5,
      "note": 57,
      "start": 70.0416,
      "duration": 0.1723,
      "velocity": 102,
      "chip": "ym2612"
    },
    {
      "channel": 2,
      "note": 60,
      "start": 70.065,
      "duration": 0.025,
      "velocity": 87,
      "chip": "ym2612"
    },
    {
      "channel": 2,
      "note": 60,
      "start": 70.09,
      "duration": 0.2726,
      "velocity": 87,
      "chip": "ym2612"
    },
    {
      "channel": 0,
      "note": 53,
      "start": 70.2384,
      "duration": 0.3714,
      "velocity": 107,
      "chip": "ym2612"
    },
    {
      "channel": 1,
      "note": 56,
      "start": 70.2392,
      "duration": 0.3956,
      "velocity": 117,
      "chip": "ym2612"
    },
    {
      "channel": 4,
      "note": 62,
      "start": 70.2397,
      "duration": 0.1722,
      "velocity": 102,
      "chip": "ym2612"
    },
    {
      "channel": 5,
      "note": 57,
      "start": 70.2399,
      "duration": 0.1721,
      "velocity": 102,
      "chip": "ym2612"
    },
    {
      "channel": 3,
      "note": 65,
      "start": 70.2635,
      "duration": 0.1732,
      "velocity": 102,
      "chip": "ym2612"
    },
    {
      "channel": 2,
      "note": 60,
      "start": 70.3626,
      "duration": 0.0246,
      "velocity": 87,
      "chip": "ym2612"
    },
    {
      "channel": 2,
      "note": 60,
      "start": 70.3872,
      "duration": 0.718,
      "velocity": 87,
      "chip": "ym2612"
    },
    {
      "channel": 0,
      "note": 43,
      "start": 70.6347,
      "duration": 0.1733,
      "velocity": 107,
      "chip": "ym2612"
    },
    {
      "channel": 1,
      "note": 80,
      "start": 70.6355,
      "duration": 0.1973,
      "velocity": 127,
      "chip": "ym2612"
    },
    {
      "channel": 5,
      "note": 57,
      "start": 70.636,
      "duration": 0.1723,
      "velocity": 102,
      "chip": "ym2612"
    },
    {
      "channel": 1,
      "note": 56,
      "start": 70.8336,
      "duration": 0.3956,
      "velocity": 117,
      "chip": "ym2612"
    },
    {
      "channel": 4,
      "note": 62,
      "start": 70.834,
      "duration": 0.1724,
      "velocity": 102,
      "chip": "ym2612"
    },
    {
      "channel": 5,
      "note": 57,
      "start": 70.8341,
      "duration": 0.1723,
      "velocity": 102,
      "chip": "ym2612"
    },
    {
      "channel": 3,
      "note": 65,
      "start": 70.8579,
      "duration": 0.1734,
      "velocity": 102,
      "chip": "ym2612"
    },
    {
      "channel": 0,
      "note": 53,
      "start": 71.031,
      "duration": 0.3714,
      "velocity": 107,
      "chip": "ym2612"
    },
    {
      "channel": 2,
      "note": 63,
      "start": 71.1052,
      "duration": 0.0249,
      "velocity": 87,
      "chip": "ym2612"
    },
    {
      "channel": 2,
      "note": 63,
      "start": 71.1302,
      "duration": 0.2723,
      "velocity": 87,
      "chip": "ym2612"
    },
    {
      "channel": 1,
      "note": 80,
      "start": 71.2299,
      "duration": 0.1974,
      "velocity": 111,
      "chip": "ym2612"
    },
    {
      "channel": 5,
      "note": 57,
      "start": 71.2304,
      "duration": 0.1723,
      "velocity": 102,
      "chip": "ym2612"
    },
    {
      "channel": 2,
      "note": 63,
      "start": 71.4025,
      "duration": 0.0001,
      "velocity": 87,
      "chip": "ym2612"
    },
    {
      "channel": 0,
      "note": 48,
      "start": 71.4273,
      "duration": 0.5695,
      "velocity": 107,
      "chip": "ym2612"
    },
    {
      "channel": 1,
      "note": 29,
      "start": 71.428,
      "duration": 0.3954,
      "velocity": 107,
      "chip": "ym2612"
    },
    {
      "channel": 2,
      "note": 63,
      "start": 71.4283,
      "duration": 0.0002,
      "velocity": 87,
      "chip": "ym2612"
    },
    {
      "channel": 2,
      "note": 60,
      "start": 71.4284,
      "duration": 0.2716,
      "velocity": 87,
      "chip": "ym2612"
    },
    {
      "channel": 4,
      "note": 59,
      "start": 71.4286,
      "duration": 0.1722,
      "velocity": 102,
      "chip": "ym2612"
    },
    {
      "channel": 5,
      "note": 55,
      "start": 71.4288,
      "duration": 0.1721,
      "velocity": 102,
      "chip": "ym2612"
    },
    {
      "channel": 3,
      "note": 64,
      "start": 71.4524,
      "duration": 0.1733,
      "velocity": 102,
      "chip": "ym2612"
    },
    {
      "channel": 2,
      "note": 62,
      "start": 71.7,
      "duration": 0.0247,
      "velocity": 87,
      "chip": "ym2612"
    },
    {
      "channel": 2,
      "note": 62,
      "start": 71.7247,
      "duration": 0.0741,
      "velocity": 87,
      "chip": "ym2612"
    },
    {
      "channel": 2,
      "note": 62,
      "start": 71.7988,
      "duration": 0.0256,
      "velocity": 87,
      "chip": "ym2612"
    },
    {
      "channel": 1,
      "note": 80,
      "start": 71.8242,
      "duration": 0.1976,
      "velocity": 127,
      "chip": "ym2612"
    },
    {
      "channel": 2,
      "note": 62,
      "start": 71.8244,
      "duration": 0.2717,
      "velocity": 87,
      "chip": "ym2612"
    },
    {
      "channel": 5,
      "note": 55,
      "start": 71.8249,
      "duration": 0.1723,
      "velocity": 102,
      "chip": "ym2612"
    },
    {
      "channel": 0,
      "note": 48,
      "start": 72.0217,
      "duration": 0.1733,
      "velocity": 107,
      "chip": "ym2612"
    },
    {
      "channel": 1,
      "note": 56,
      "start": 72.0225,
      "duration": 0.3955,
      "velocity": 117,
      "chip": "ym2612"
    },
    {
      "channel": 4,
      "note": 59,
      "start": 72.0229,
      "duration": 0.1724,
      "velocity": 102,
      "chip": "ym2612"
    },
    {
      "channel": 5,
      "note": 55,
      "start": 72.0231,
      "duration": 0.1722,
      "velocity": 102,
      "chip": "ym2612"
    },
    {
      "channel": 3,
      "note": 64,
      "start": 72.0468,
      "duration": 0.1734,
      "velocity": 102,
      "chip": "ym2612"
    },
    {
      "channel": 2,
      "note": 62,
      "start": 72.0961,
      "duration": 0.0249,
      "velocity": 87,
      "chip": "ym2612"
    },
    {
      "channel": 2,
      "note": 60,
      "start": 72.121,
      "duration": 4.0369,
      "velocity": 87,
      "chip": "ym2612"
    },
    {
      "channel": 1,
      "note": 80,
      "start": 72.4187,
      "duration": 0.1975,
      "velocity": 127,
      "chip": "ym2612"
    },
    {
      "channel": 5,
      "note": 55,
      "start": 72.4192,
      "duration": 0.1724,
      "velocity": 102,
      "chip": "ym2612"
    },
    {
      "channel": 0,
      "note": 48,
      "start": 72.6162,
      "duration": 0.1732,
      "velocity": 107,
      "chip": "ym2612"
    },
    {
      "channel": 1,
      "note": 56,
      "start": 72.6169,
      "duration": 0.3955,
      "velocity": 117,
      "chip": "ym2612"
    },
    {
      "channel": 4,
      "note": 59,
      "start": 72.6173,
      "duration": 0.1724,
      "velocity": 102,
      "chip": "ym2612"
    },
    {
      "channel": 5,
      "note": 55,
      "start": 72.6175,
      "duration": 0.1722,
      "velocity": 102,
      "chip": "ym2612"
    },
    {
      "channel": 3,
      "note": 64,
      "start": 72.6412,
      "duration": 0.1733,
      "velocity": 102,
      "chip": "ym2612"
    },
    {
      "channel": 1,
      "note": 80,
      "start": 73.0132,
      "duration": 0.1975,
      "velocity": 127,
      "chip": "ym2612"
    },
    {
      "channel": 5,
      "note": 55,
      "start": 73.0137,
      "duration": 0.1723,
      "velocity": 102,
      "chip": "ym2612"
    },
    {
      "channel": 0,
      "note": 48,
      "start": 73.2106,
      "duration": 0.1733,
      "velocity": 107,
      "chip": "ym2612"
    },
    {
      "channel": 1,
      "note": 56,
      "start": 73.2114,
      "duration": 0.3956,
      "velocity": 117,
      "chip": "ym2612"
    },
    {
      "channel": 4,
      "note": 59,
      "start": 73.2118,
      "duration": 0.1724,
      "velocity": 102,
      "chip": "ym2612"
    },
    {
      "channel": 5,
      "note": 55,
      "start": 73.212,
      "duration": 0.1722,
      "velocity": 102,
      "chip": "ym2612"
    },
    {
      "channel": 3,
      "note": 64,
      "start": 73.2356,
      "duration": 0.1733,
      "velocity": 102,
      "chip": "ym2612"
    },
    {
      "channel": 0,
      "note": 43,
      "start": 73.6069,
      "duration": 0.1734,
      "velocity": 107,
      "chip": "ym2612"
    },
    {
      "channel": 1,
      "note": 29,
      "start": 73.6076,
      "duration": 0.1974,
      "velocity": 107,
      "chip": "ym2612"
    },
    {
      "channel": 5,
      "note": 55,
      "start": 73.6082,
      "duration": 0.1725,
      "velocity": 102,
      "chip": "ym2612"
    },
    {
      "channel": 0,
      "note": 48,
      "start": 73.805,
      "duration": 0.3714,
      "velocity": 107,
      "chip": "ym2612"
    },
    {
      "channel": 1,
      "note": 29,
      "start": 73.8058,
      "duration": 0.3956,
      "velocity": 107,
      "chip": "ym2612"
    },
    {
      "channel": 4,
      "note": 59,
      "start": 73.8062,
      "duration": 0.1724,
      "velocity": 102,
      "chip": "ym2612"
    },
    {
      "channel": 5,
      "note": 55,
      "start": 73.8064,
      "duration": 0.1723,
      "velocity": 102,
      "chip": "ym2612"
    },
    {
      "channel": 3,
      "note": 64,
      "start": 73.8302,
      "duration": 0.1732,
      "velocity": 102,
      "chip": "ym2612"
    },
    {
      "channel": 0,
      "note": 43,
      "start": 74.2013,
      "duration": 0.1733,
      "velocity": 107,
      "chip": "ym2612"
    },
    {
      "channel": 1,
      "note": 80,
      "start": 74.2021,
      "duration": 0.1974,
      "velocity": 127,
      "chip": "ym2612"
    },
    {
      "channel": 5,
      "note": 55,
      "start": 74.2026,
      "duration": 0.1723,
      "velocity": 102,
      "chip": "ym2612"
    },
    {
      "channel": 0,
      "note": 48,
      "start": 74.3995,
      "duration": 0.1733,
      "velocity": 107,
      "chip": "ym2612"
    },
    {
      "channel": 1,
      "note": 56,
      "start": 74.4002,
      "duration": 0.3955,
      "velocity": 117,
      "chip": "ym2612"
    },
    {
      "channel": 4,
      "note": 59,
      "start": 74.4007,
      "duration": 0.1724,
      "velocity": 102,
      "chip": "ym2612"
    },
    {
      "channel": 5,
      "note": 55,
      "start": 74.4008,
      "duration": 0.1722,
      "velocity": 102,
      "chip": "ym2612"
    },
    {
      "channel": 3,
      "note": 64,
      "start": 74.4245,
      "duration": 0.1733,
      "velocity": 102,
      "chip": "ym2612"
    },
    {
      "channel": 1,
      "note": 80,
      "start": 74.7964,
      "duration": 0.1975,
      "velocity": 127,
      "chip": "ym2612"
    },
    {
      "channel": 5,
      "note": 55,
      "start": 74.797,
      "duration": 0.1723,
      "velocity": 102,
      "chip": "ym2612"
    },
    {
      "channel": 0,
      "note": 48,
      "start": 74.9939,
      "duration": 0.1733,
      "velocity": 107,
      "chip": "ym2612"
    },
    {
      "channel": 1,
      "note": 56,
      "start": 74.9947,
      "duration": 0.3955,
      "velocity": 117,
      "chip": "ym2612"
    },
    {
      "channel": 4,
      "note": 59,
      "start": 74.9951,
      "duration": 0.1724,
      "velocity": 102,
      "chip": "ym2612"
    },
    {
      "channel": 5,
      "note": 55,
      "start": 74.9953,
      "duration": 0.1722,
      "velocity": 102,
      "chip": "ym2612"
    },
    {
      "channel": 3,
      "note": 64,
      "start": 75.019,
      "duration": 0.1733,
      "velocity": 102,
      "chip": "ym2612"
    },
    {
      "channel": 1,
      "note": 29,
      "start": 75.3909,
      "duration": 0.0983,
      "velocity": 107,
      "chip": "ym2612"
    },
    {
      "channel": 5,
      "note": 55,
      "start": 75.3914,
      "duration": 0.1724,
      "velocity": 102,
      "chip": "ym2612"
    },
    {
      "channel": 1,
      "note": 29,
      "start": 75.4894,
      "duration": 0.099,
      "velocity": 107,
      "chip": "ym2612"
    },
    {
      "channel": 0,
      "note": 48,
      "start": 75.5883,
      "duration": 0.1733,
      "velocity": 107,
      "chip": "ym2612"
    },
    {
      "channel": 1,
      "note": 63,
      "start": 75.5891,
      "duration": 0.1974,
      "velocity": 120,
      "chip": "ym2612"
    },
    {
      "channel": 4,
      "note": 59,
      "start": 75.5895,
      "duration": 0.1725,
      "velocity": 102,
      "chip": "ym2612"
    },
    {
      "channel": 5,
      "note": 55,
      "start": 75.5897,
      "duration": 0.1724,
      "velocity": 102,
      "chip": "ym2612"
    },
    {
      "channel": 3,
      "note": 64,
      "start": 75.6134,
      "duration": 0.1734,
      "velocity": 102,
      "chip": "ym2612"
    },
    {
      "channel": 1,
      "note": 63,
      "start": 75.7866,
      "duration": 0.198,
      "velocity": 120,
      "chip": "ym2612"
    },
    {
      "channel": 1,
      "note": 80,
      "start": 75.9853,
      "duration": 0.1978,
      "velocity": 111,
      "chip": "ym2612"
    },
    {
      "channel": 5,
      "note": 55,
      "start": 75.9858,
      "duration": 0.1724,
      "velocity": 102,
      "chip": "ym2612"
    },
    {
      "channel": 2,
      "note": 61,
      "start": 76.1579,
      "duration": 0.0001,
      "velocity": 87,
      "chip": "ym2612"
    },
    {
      "channel": 0,
      "note": 46,
      "start": 76.183,
      "duration": 0.3711,
      "velocity": 107,
      "chip": "ym2612"
    },
    {
      "channel": 1,
      "note": 29,
      "start": 76.1838,
      "duration": 0.3953,
      "velocity": 107,
      "chip": "ym2612"
    },
    {
      "channel": 2,
      "note": 60,
      "start": 76.1844,
      "duration": 0.2959,
      "velocity": 87,
      "chip": "ym2612"
    },
    {
      "channel": 3,
      "note": 65,
      "start": 76.1855,
      "duration": 0.3689,
      "velocity": 104,
      "chip": "ym2612"
    },
    {
      "channel": 4,
      "note": 62,
      "start": 76.1863,
      "duration": 0.3683,
      "velocity": 104,
      "chip": "ym2612"
    },
    {
      "channel": 5,
      "note": 58,
      "start": 76.187,
      "duration": 0.3676,
      "velocity": 104,
      "chip": "ym2612"
    },
    {
      "channel": 2,
      "note": 69,
      "start": 76.4802,
      "duration": 2.6003,
      "velocity": 87,
      "chip": "ym2612"
    },
    {
      "channel": 0,
      "note": 46,
      "start": 76.579,
      "duration": 0.1732,
      "velocity": 107,
      "chip": "ym2612"
    },
    {
      "channel": 1,
      "note": 29,
      "start": 76.5792,
      "duration": 0.1979,
      "velocity": 107,
      "chip": "ym2612"
    },
    {
      "channel": 3,
      "note": 65,
      "start": 76.5796,
      "duration": 0.173,
      "velocity": 104,
      "chip": "ym2612"
    },
    {
      "channel": 4,
      "note": 62,
      "start": 76.5798,
      "duration": 0.1729,
      "velocity": 104,
      "chip": "ym2612"
    },
    {
      "channel": 5,
      "note": 58,
      "start": 76.5799,
      "duration": 0.1728,
      "velocity": 104,
      "chip": "ym2612"
    },
    {
      "channel": 1,
      "note": 63,
      "start": 77.3722,
      "duration": 0.5939,
      "velocity": 120,
      "chip": "ym2612"
    },
    {
      "channel": 0,
      "note": 46,
      "start": 77.9661,
      "duration": 0.3714,
      "velocity": 107,
      "chip": "ym2612"
    },
    {
      "channel": 1,
      "note": 29,
      "start": 77.9668,
      "duration": 0.3956,
      "velocity": 107,
      "chip": "ym2612"
    },
    {
      "channel": 3,
      "note": 65,
      "start": 77.9672,
      "duration": 0.3706,
      "velocity": 104,
      "chip": "ym2612"
    },
    {
      "channel": 4,
      "note": 62,
      "start": 77.9674,
      "duration": 0.3705,
      "velocity": 104,
      "chip": "ym2612"
    },
    {
      "channel": 5,
      "note": 58,
      "start": 77.9676,
      "duration": 0.3704,
      "velocity": 104,
      "chip": "ym2612"
    },
    {
      "channel": 0,
      "note": 46,
      "start": 78.3623,
      "duration": 0.1733,
      "velocity": 107,
      "chip": "ym2612"
    },
    {
      "channel": 1,
      "note": 29,
      "start": 78.3625,
      "duration": 0.1979,
      "velocity": 107,
      "chip": "ym2612"
    },
    {
      "channel": 3,
      "note": 65,
      "start": 78.3629,
      "duration": 0.173,
      "velocity": 104,
      "chip": "ym2612"
    },
    {
      "channel": 4,
      "note": 62,
      "start": 78.3631,
      "duration": 0.1729,
      "velocity": 104,
      "chip": "ym2612"
    },
    {
      "channel": 5,
      "note": 58,
      "start": 78.3632,
      "duration": 0.1728,
      "velocity": 104,
      "chip": "ym2612"
    },
    {
      "channel": 2,
      "note": 69,
      "start": 79.0805,
      "duration": 0.0744,
      "velocity": 87,
      "chip": "ym2612"
    },
    {
      "channel": 2,
      "note": 69,
      "start": 79.155,
      "duration": 0.2229,
      "velocity": 87,
      "chip": "ym2612"
    },
    {
      "channel": 2,
      "note": 69,
      "start": 79.3778,
      "duration": 0.0745,
      "velocity": 87,
      "chip": "ym2612"
    },
    {
      "channel": 2,
      "note": 67,
      "start": 79.4523,
      "duration": 0.8171,
      "velocity": 87,
      "chip": "ym2612"
    },
    {
      "channel": 2,
      "note": 67,
      "start": 80.2694,
      "duration": 0.0744,
      "velocity": 87,
      "chip": "ym2612"
    },
    {
      "channel": 2,
      "note": 67,
      "start": 80.3439,
      "duration": 0.2229,
      "velocity": 87,
      "chip": "ym2612"
    },
    {
      "channel": 2,
      "note": 67,
      "start": 80.5667,
      "duration": 0.0744,
      "velocity": 87,
      "chip": "ym2612"
    },
    {
      "channel": 2,
      "note": 69,
      "start": 80.6412,
      "duration": 0.2227,
      "velocity": 87,
      "chip": "ym2612"
    },
    {
      "channel": 2,
      "note": 69,
      "start": 80.8638,
      "duration": 0.0753,
      "velocity": 87,
      "chip": "ym2612"
    },
    {
      "channel": 0,
      "note": 46,
      "start": 80.9382,
      "duration": 0.3715,
      "velocity": 107,
      "chip": "ym2612"
    },
    {
      "channel": 1,
      "note": 29,
      "start": 80.9389,
      "duration": 0.3956,
      "velocity": 107,
      "chip": "ym2612"
    },
    {
      "channel": 2,
      "note": 69,
      "start": 80.9391,
      "duration": 0.1229,
      "velocity": 87,
      "chip": "ym2612"
    },
    {
      "channel": 3,
      "note": 67,
      "start": 80.9394,
      "duration": 0.3706,
      "velocity": 104,
      "chip": "ym2612"
    },
    {
      "channel": 4,
      "note": 64,
      "start": 80.9395,
      "duration": 0.3705,
      "velocity": 104,
      "chip": "ym2612"
    },
    {
      "channel": 5,
      "note": 60,
      "start": 80.9397,
      "duration": 0.3704,
      "velocity": 104,
      "chip": "ym2612"
    },
    {
      "channel": 2,
      "note": 69,
      "start": 81.062,
      "duration": 0.0744,
      "velocity": 87,
      "chip": "ym2612"
    },
    {
      "channel": 2,
      "note": 69,
      "start": 81.1365,
      "duration": 0.0247,
      "velocity": 87,
      "chip": "ym2612"
    },
    {
      "channel": 2,
      "note": 69,
      "start": 81.1612,
      "duration": 0.0744,
      "velocity": 87,
      "chip": "ym2612"
    },
    {
      "channel": 2,
      "note": 67,
      "start": 81.2356,
      "duration": 0.0245,
      "velocity": 87,
      "chip": "ym2612"
    },
    {
      "channel": 2,
      "note": 67,
      "start": 81.2602,
      "duration": 0.0747,
      "velocity": 87,
      "chip": "ym2612"
    },
    {
      "channel": 0,
      "note": 46,
      "start": 81.3345,
      "duration": 0.1733,
      "velocity": 107,
      "chip": "ym2612"
    },
    {
      "channel": 1,
      "note": 29,
      "start": 81.3347,
      "duration": 0.1979,
      "velocity": 107,
      "chip": "ym2612"
    },
    {
      "channel": 2,
      "note": 67,
      "start": 81.3349,
      "duration": 0.0245,
      "velocity": 87,
      "chip": "ym2612"
    },
    {
      "channel": 3,
      "note": 67,
      "start": 81.3351,
      "duration": 0.1729,
      "velocity": 104,
      "chip": "ym2612"
    },
    {
      "channel": 4,
      "note": 64,
      "start": 81.3353,
      "duration": 0.1728,
      "velocity": 104,
      "chip": "ym2612"
    },
    {
      "channel": 5,
      "note": 60,
      "start": 81.3354,
      "duration": 0.1727,
      "velocity": 104,
      "chip": "ym2612"
    },
    {
      "channel": 2,
      "note": 67,
      "start": 81.3593,
      "duration": 0.0745,
      "velocity": 87,
      "chip": "ym2612"
    },
    {
      "channel": 2,
      "note": 65,
      "start": 81.4338,
      "duration": 0.0245,
      "velocity": 87,
      "chip": "ym2612"
    },
    {
      "channel": 2,
      "note": 65,
      "start": 81.4583,
      "duration": 0.0746,
      "velocity": 87,
      "chip": "ym2612"
    },
    {
      "channel": 2,
      "note": 65,
      "start": 81.5329,
      "duration": 0.0245,
      "velocity": 87,
      "chip": "ym2612"
    },
    {
      "channel": 2,
      "note": 65,
      "start": 81.5574,
      "duration": 0.0745,
      "velocity": 87,
      "chip": "ym2612"
    },
    {
      "channel": 2,
      "note": 64,
      "start": 81.6319,
      "duration": 0.1237,
      "velocity": 87,
      "chip": "ym2612"
    },
    {
      "channel": 2,
      "note": 64,
      "start": 81.7556,
      "duration": 0.0745,
      "velocity": 87,
      "chip": "ym2612"
    },
    {
      "channel": 2,
      "note": 62,
      "start": 81.8301,
      "duration": 2.6004,
      "velocity": 87,
      "chip": "ym2612"
    },
    {
      "channel": 1,
      "note": 63,
      "start": 82.1277,
      "duration": 0.1974,
      "velocity": 120,
      "chip": "ym2612"
    },
    {
      "channel": 1,
      "note": 29,
      "start": 82.3258,
      "duration": 0.1974,
      "velocity": 107,
      "chip": "ym2612"
    },
    {
      "channel": 1,
      "note": 29,
      "start": 82.5234,
      "duration": 0.1981,
      "velocity": 107,
      "chip": "ym2612"
    },
    {
      "channel": 0,
      "note": 46,
      "start": 82.7215,
      "duration": 0.3714,
      "velocity": 107,
      "chip": "ym2612"
    },
    {
      "channel": 1,
      "note": 29,
      "start": 82.7217,
      "duration": 0.3961,
      "velocity": 107,
      "chip": "ym2612"
    },
    {
      "channel": 3,
      "note": 67,
      "start": 82.7221,
      "duration": 0.3712,
      "velocity": 104,
      "chip": "ym2612"
    },
    {
      "channel": 4,
      "note": 64,
      "start": 82.7223,
      "duration": 0.3711,
      "velocity": 104,
      "chip": "ym2612"
    },
    {
      "channel": 5,
      "note": 60,
      "start": 82.7225,
      "duration": 0.371,
      "velocity": 104,
      "chip": "ym2612"
    },
    {
      "channel": 0,
      "note": 46,
      "start": 83.1178,
      "duration": 0.1732,
      "velocity": 107,
      "chip": "ym2612"
    },
    {
      "channel": 1,
      "note": 29,
      "start": 83.118,
      "duration": 0.1979,
      "velocity": 107,
      "chip": "ym2612"
    },
    {
      "channel": 3,
      "note": 67,
      "start": 83.1184,
      "duration": 0.173,
      "velocity": 104,
      "chip": "ym2612"
    },
    {
      "channel": 4,
      "note": 64,
      "start": 83.1185,
      "duration": 0.1729,
      "velocity": 104,
      "chip": "ym2612"
    },
    {
      "channel": 5,
      "note": 60,
      "start": 83.1187,
      "duration": 0.1728,
      "velocity": 104,
      "chip": "ym2612"
    },
    {
      "channel": 1,
      "note": 29,
      "start": 83.911,
      "duration": 0.1974,
      "velocity": 107,
      "chip": "ym2612"
    },
    {
      "channel": 1,
      "note": 80,
      "start": 84.1091,
      "duration": 0.1974,
      "velocity": 111,
      "chip": "ym2612"
    },
    {
      "channel": 1,
      "note": 29,
      "start": 84.3073,
      "duration": 0.1974,
      "velocity": 107,
      "chip": "ym2612"
    },
    {
      "channel": 2,
      "note": 62,
      "start": 84.4305,
      "duration": 0.0751,
      "velocity": 87,
      "chip": "ym2612"
    },
    {
      "channel": 1,
      "note": 63,
      "start": 84.5054,
      "duration": 0.0488,
      "velocity": 120,
      "chip": "ym2612"
    },
    {
      "channel": 2,
      "note": 62,
      "start": 84.5056,
      "duration": 0.2222,
      "velocity": 87,
      "chip": "ym2612"
    },
    {
      "channel": 1,
      "note": 63,
      "start": 84.5544,
      "duration": 0.1485,
      "velocity": 120,
      "chip": "ym2612"
    },
    {
      "channel": 1,
      "note": 29,
      "start": 84.7036,
      "duration": 0.1974,
      "velocity": 107,
      "chip": "ym2612"
    },
    {
      "channel": 2,
      "note": 62,
      "start": 84.7278,
      "duration": 0.0744,
      "velocity": 87,
      "chip": "ym2612"
    },
    {
      "channel": 2,
      "note": 60,
      "start": 84.8022,
      "duration": 0.2227,
      "velocity": 87,
      "chip": "ym2612"
    },
    {
      "channel": 1,
      "note": 63,
      "start": 84.9017,
      "duration": 0.1976,
      "velocity": 120,
      "chip": "ym2612"
    },
    {
      "channel": 2,
      "note": 60,
      "start": 85.0249,
      "duration": 0.0753,
      "velocity": 87,
      "chip": "ym2612"
    },
    {
      "channel": 0,
      "note": 46,
      "start": 85.0992,
      "duration": 0.5695,
      "velocity": 107,
      "chip": "ym2612"
    },
    {
      "channel": 1,
      "note": 29,
      "start": 85.1,
      "duration": 0.1973,
      "velocity": 107,
      "chip": "ym2612"
    },
    {
      "channel": 2,
      "note": 60,
      "start": 85.1002,
      "duration": 0.2221,
      "velocity": 87,
      "chip": "ym2612"
    },
    {
      "channel": 3,
      "note": 67,
      "start": 85.1004,
      "duration": 0.5687,
      "velocity": 104,
      "chip": "ym2612"
    },
    {
      "channel": 4,
      "note": 64,
      "start": 85.1006,
      "duration": 0.5686,
      "velocity": 104,
      "chip": "ym2612"
    },
    {
      "channel": 5,
      "note": 60,
      "start": 85.1007,
      "duration": 0.5685,
      "velocity": 104,
      "chip": "ym2612"
    },
    {
      "channel": 1,
      "note": 63,
      "start": 85.298,
      "duration": 0.1974,
      "velocity": 120,
      "chip": "ym2612"
    },
    {
      "channel": 2,
      "note": 60,
      "start": 85.3222,
      "duration": 0.0744,
      "velocity": 87,
      "chip": "ym2612"
    },
    {
      "channel": 2,
      "note": 62,
      "start": 85.3967,
      "duration": 0.2227,
      "velocity": 87,
      "chip": "ym2612"
    },
    {
      "channel": 1,
      "note": 63,
      "start": 85.4956,
      "duration": 0.1981,
      "velocity": 120,
      "chip": "ym2612"
    },
    {
      "channel": 2,
      "note": 62,
      "start": 85.6193,
      "duration": 0.0753,
      "velocity": 87,
      "chip": "ym2612"
    },
    {
      "channel": 0,
      "note": 45,
      "start": 85.6937,
      "duration": 0.3714,
      "velocity": 107,
      "chip": "ym2612"
    },
    {
      "channel": 1,
      "note": 29,
      "start": 85.6944,
      "duration": 0.3956,
      "velocity": 107,
      "chip": "ym2612"
    },
    {
      "channel": 2,
      "note": 62,
      "start": 85.6946,
      "duration": 0.2221,
      "velocity": 87,
      "chip": "ym2612"
    },
    {
      "channel": 3,
      "note": 67,
      "start": 85.6949,
      "duration": 0.3705,
      "velocity": 104,
      "chip": "ym2612"
    },
    {
      "channel": 4,
      "note": 64,
      "start": 85.695,
      "duration": 0.3704,
      "velocity": 104,
      "chip": "ym2612"
    },
    {
      "channel": 5,
      "note": 60,
      "start": 85.6951,
      "duration": 0.3703,
      "velocity": 104,
      "chip": "ym2612"
    },
    {
      "channel": 2,
      "note": 62,
      "start": 85.9167,
      "duration": 0.0744,
      "velocity": 87,
      "chip": "ym2612"
    },
    {
      "channel": 2,
      "note": 64,
      "start": 85.9911,
      "duration": 3.1948,
      "velocity": 87,
      "chip": "ym2612"
    },
    {
      "channel": 0,
      "note": 45,
      "start": 86.09,
      "duration": 0.1733,
      "velocity": 107,
      "chip": "ym2612"
    },
    {
      "channel": 1,
      "note": 29,
      "start": 86.0901,
      "duration": 0.1979,
      "velocity": 107,
      "chip": "ym2612"
    },
    {
      "channel": 3,
      "note": 67,
      "start": 86.0905,
      "duration": 0.173,
      "velocity": 104,
      "chip": "ym2612"
    },
    {
      "channel": 4,
      "note": 64,
      "start": 86.0907,
      "duration": 0.1729,
      "velocity": 104,
      "chip": "ym2612"
    },
    {
      "channel": 5,
      "note": 60,
      "start": 86.0908,
      "duration": 0.1728,
      "velocity": 104,
      "chip": "ym2612"
    },
    {
      "channel": 1,
      "note": 63,
      "start": 86.8831,
      "duration": 0.5939,
      "velocity": 120,
      "chip": "ym2612"
    },
    {
      "channel": 0,
      "note": 45,
      "start": 87.477,
      "duration": 0.3714,
      "velocity": 107,
      "chip": "ym2612"
    },
    {
      "channel": 1,
      "note": 29,
      "start": 87.4777,
      "duration": 0.3956,
      "velocity": 107,
      "chip": "ym2612"
    },
    {
      "channel": 3,
      "note": 67,
      "start": 87.4781,
      "duration": 0.3706,
      "velocity": 104,
      "chip": "ym2612"
    },
    {
      "channel": 4,
      "note": 64,
      "start": 87.4783,
      "duration": 0.3705,
      "velocity": 104,
      "chip": "ym2612"
    },
    {
      "channel": 5,
      "note": 60,
      "start": 87.4785,
      "duration": 0.3705,
      "velocity": 104,
      "chip": "ym2612"
    },
    {
      "channel": 0,
      "note": 45,
      "start": 87.8732,
      "duration": 0.1733,
      "velocity": 107,
      "chip": "ym2612"
    },
    {
      "channel": 1,
      "note": 29,
      "start": 87.8734,
      "duration": 0.1979,
      "velocity": 107,
      "chip": "ym2612"
    },
    {
      "channel": 3,
      "note": 67,
      "start": 87.8738,
      "duration": 0.173,
      "velocity": 104,
      "chip": "ym2612"
    },
    {
      "channel": 4,
      "note": 64,
      "start": 87.874,
      "duration": 0.1729,
      "velocity": 104,
      "chip": "ym2612"
    },
    {
      "channel": 5,
      "note": 60,
      "start": 87.8742,
      "duration": 0.1728,
      "velocity": 104,
      "chip": "ym2612"
    },
    {
      "channel": 2,
      "note": 64,
      "start": 89.1859,
      "duration": 0.0745,
      "velocity": 87,
      "chip": "ym2612"
    },
    {
      "channel": 2,
      "note": 64,
      "start": 89.2603,
      "duration": 0.2229,
      "velocity": 87,
      "chip": "ym2612"
    },
    {
      "channel": 2,
      "note": 64,
      "start": 89.4832,
      "duration": 0.0744,
      "velocity": 87,
      "chip": "ym2612"
    },
    {
      "channel": 2,
      "note": 57,
      "start": 89.5577,
      "duration": 0.4208,
      "velocity": 87,
      "chip": "ym2612"
    },
    {
      "channel": 2,
      "note": 57,
      "start": 89.9785,
      "duration": 0.0744,
      "velocity": 87,
      "chip": "ym2612"
    },
    {
      "channel": 2,
      "note": 57,
      "start": 90.0529,
      "duration": 0.1237,
      "velocity": 87,
      "chip": "ym2612"
    },
    {
      "channel": 2,
      "note": 57,
      "start": 90.1766,
      "duration": 0.0744,
      "velocity": 87,
      "chip": "ym2612"
    },
    {
      "channel": 2,
      "note": 57,
      "start": 90.2511,
      "duration": 0.0247,
      "velocity": 87,
      "chip": "ym2612"
    },
    {
      "channel": 2,
      "note": 57,
      "start": 90.2758,
      "duration": 0.0745,
      "velocity": 87,
      "chip": "ym2612"
    },
    {
      "channel": 2,
      "note": 55,
      "start": 90.3502,
      "duration": 0.0245,
      "velocity": 87,
      "chip": "ym2612"
    },
    {
      "channel": 2,
      "note": 55,
      "start": 90.3747,
      "duration": 0.0753,
      "velocity": 87,
      "chip": "ym2612"
    },
    {
      "channel": 0,
      "note": 50,
      "start": 90.4491,
      "duration": 0.3714,
      "velocity": 107,
      "chip": "ym2612"
    },
    {
      "channel": 1,
      "note": 29,
      "start": 90.4499,
      "duration": 0.3956,
      "velocity": 107,
      "chip": "ym2612"
    },
    {
      "channel": 2,
      "note": 55,
      "start": 90.45,
      "duration": 0.0239,
      "velocity": 87,
      "chip": "ym2612"
    },
    {
      "channel": 3,
      "note": 66,
      "start": 90.4503,
      "duration": 0.3706,
      "velocity": 104,
      "chip": "ym2612"
    },
    {
      "channel": 4,
      "note": 62,
      "start": 90.4505,
      "duration": 0.3704,
      "velocity": 104,
      "chip": "ym2612"
    },
    {
      "channel": 5,
      "note": 60,
      "start": 90.4506,
      "duration": 0.3703,
      "velocity": 104,
      "chip": "ym2612"
    },
    {
      "channel": 2,
      "note": 55,
      "start": 90.474,
      "duration": 0.0745,
      "velocity": 87,
      "chip": "ym2612"
    },
    {
      "channel": 2,
      "note": 57,
      "start": 90.5484,
      "duration": 0.1237,
      "velocity": 87,
      "chip": "ym2612"
    },
    {
      "channel": 2,
      "note": 57,
      "start": 90.6721,
      "duration": 0.0744,
      "velocity": 87,
      "chip": "ym2612"
    },
    {
      "channel": 2,
      "note": 64,
      "start": 90.7466,
      "duration": 2.006,
      "velocity": 87,
      "chip": "ym2612"
    },
    {
      "channel": 0,
      "note": 50,
      "start": 90.8454,
      "duration": 0.1733,
      "velocity": 107,
      "chip": "ym2612"
    },
    {
      "channel": 1,
      "note": 29,
      "start": 90.8456,
      "duration": 0.1979,
      "velocity": 107,
      "chip": "ym2612"
    },
    {
      "channel": 3,
      "note": 66,
      "start": 90.846,
      "duration": 0.173,
      "velocity": 104,
      "chip": "ym2612"
    },
    {
      "channel": 4,
      "note": 62,
      "start": 90.8461,
      "duration": 0.1729,
      "velocity": 104,
      "chip": "ym2612"
    },
    {
      "channel": 5,
      "note": 60,
      "start": 90.8463,
      "duration": 0.1728,
      "velocity": 104,
      "chip": "ym2612"
    },
    {
      "channel": 1,
      "note": 63,
      "start": 91.6386,
      "duration": 0.1974,
      "velocity": 120,
      "chip": "ym2612"
    },
    {
      "channel": 1,
      "note": 29,
      "start": 91.8368,
      "duration": 0.1974,
      "velocity": 107,
      "chip": "ym2612"
    },
    {
      "channel": 1,
      "note": 29,
      "start": 92.0343,
      "duration": 0.1981,
      "velocity": 107,
      "chip": "ym2612"
    },
    {
      "channel": 0,
      "note": 48,
      "start": 92.2324,
      "duration": 0.3714,
      "velocity": 107,
      "chip": "ym2612"
    },
    {
      "channel": 1,
      "note": 29,
      "start": 92.2326,
      "duration": 0.3961,
      "velocity": 107,
      "chip": "ym2612"
    },
    {
      "channel": 3,
      "note": 66,
      "start": 92.233,
      "duration": 0.3711,
      "velocity": 104,
      "chip": "ym2612"
    },
    {
      "channel": 4,
      "note": 62,
      "start": 92.2332,
      "duration": 0.3711,
      "velocity": 104,
      "chip": "ym2612"
    },
    {
      "channel": 5,
      "note": 57,
      "start": 92.2334,
      "duration": 0.371,
      "velocity": 104,
      "chip": "ym2612"
    },
    {
      "channel": 0,
      "note": 50,
      "start": 92.6287,
      "duration": 0.1733,
      "velocity": 107,
      "chip": "ym2612"
    },
    {
      "channel": 1,
      "note": 29,
      "start": 92.6289,
      "duration": 0.1979,
      "velocity": 107,
      "chip": "ym2612"
    },
    {
      "channel": 3,
      "note": 66,
      "start": 92.6293,
      "duration": 0.173,
      "velocity": 104,
      "chip": "ym2612"
    },
    {
      "channel": 4,
      "note": 62,
      "start": 92.6295,
      "duration": 0.1729,
      "velocity": 104,
      "chip": "ym2612"
    },
    {
      "channel": 5,
      "note": 57,
      "start": 92.6296,
      "duration": 0.1728,
      "velocity": 104,
      "chip": "ym2612"
    },
    {
      "channel": 2,
      "note": 64,
      "start": 92.7525,
      "duration": 0.0746,
      "velocity": 87,
      "chip": "ym2612"
    },
    {
      "channel": 2,
      "note": 64,
      "start": 92.8271,
      "duration": 0.2229,
      "velocity": 87,
      "chip": "ym2612"
    },
    {
      "channel": 2,
      "note": 64,
      "start": 93.05,
      "duration": 0.0743,
      "velocity": 87,
      "chip": "ym2612"
    },
    {
      "channel": 2,
      "note": 62,
      "start": 93.1243,
      "duration": 0.8171,
      "velocity": 87,
      "chip": "ym2612"
    },
    {
      "channel": 2,
      "note": 62,
      "start": 93.9413,
      "duration": 0.0753,
      "velocity": 87,
      "chip": "ym2612"
    },
    {
      "channel": 0,
      "note": 48,
      "start": 94.0157,
      "duration": 0.3714,
      "velocity": 107,
      "chip": "ym2612"
    },
    {
      "channel": 1,
      "note": 29,
      "start": 94.0164,
      "duration": 0.0982,
      "velocity": 107,
      "chip": "ym2612"
    },
    {
      "channel": 2,
      "note": 62,
      "start": 94.0166,
      "duration": 0.2221,
      "velocity": 87,
      "chip": "ym2612"
    },
    {
      "channel": 3,
      "note": 62,
      "start": 94.0169,
      "duration": 0.3705,
      "velocity": 104,
      "chip": "ym2612"
    },
    {
      "channel": 4,
      "note": 57,
      "start": 94.0171,
      "duration": 0.3704,
      "velocity": 104,
      "chip": "ym2612"
    },
    {
      "channel": 5,
      "note": 53,
      "start": 94.0172,
      "duration": 0.3703,
      "velocity": 104,
      "chip": "ym2612"
    },
    {
      "channel": 1,
      "note": 29,
      "start": 94.1149,
      "duration": 0.0989,
      "velocity": 107,
      "chip": "ym2612"
    },
    {
      "channel": 1,
      "note": 63,
      "start": 94.2145,
      "duration": 0.0983,
      "velocity": 120,
      "chip": "ym2612"
    },
    {
      "channel": 2,
      "note": 62,
      "start": 94.2387,
      "duration": 0.0746,
      "velocity": 87,
      "chip": "ym2612"
    },
    {
      "channel": 1,
      "note": 63,
      "start": 94.313,
      "duration": 0.099,
      "velocity": 120,
      "chip": "ym2612"
    },
    {
      "channel": 2,
      "note": 62,
      "start": 94.3133,
      "duration": 0.0244,
      "velocity": 87,
      "chip": "ym2612"
    },
    {
      "channel": 2,
      "note": 62,
      "start": 94.3377,
      "duration": 0.0747,
      "velocity": 87,
      "chip": "ym2612"
    },
    {
      "channel": 0,
      "note": 52,
      "start": 94.412,
      "duration": 0.1733,
      "velocity": 107,
      "chip": "ym2612"
    },
    {
      "channel": 1,
      "note": 63,
      "start": 94.4122,
      "duration": 0.0988,
      "velocity": 120,
      "chip": "ym2612"
    },
    {
      "channel": 2,
      "note": 62,
      "start": 94.4124,
      "duration": 0.2226,
      "velocity": 87,
      "chip": "ym2612"
    },
    {
      "channel": 3,
      "note": 64,
      "start": 94.4127,
      "duration": 0.3711,
      "velocity": 104,
      "chip": "ym2612"
    },
    {
      "channel": 4,
      "note": 58,
      "start": 94.4128,
      "duration": 0.371,
      "velocity": 104,
      "chip": "ym2612"
    },
    {
      "channel": 5,
      "note": 55,
      "start": 94.413,
      "duration": 0.371,
      "velocity": 104,
      "chip": "ym2612"
    },
    {
      "channel": 1,
      "note": 63,
      "start": 94.5111,
      "duration": 0.099,
      "velocity": 120,
      "chip": "ym2612"
    },
    {
      "channel": 1,
      "note": 77,
      "start": 94.6108,
      "duration": 0.0487,
      "velocity": 127,
      "chip": "ym2612"
    },
    {
      "channel": 2,
      "note": 62,
      "start": 94.635,
      "duration": 0.0744,
      "velocity": 87,
      "chip": "ym2612"
    },
    {
      "channel": 1,
      "note": 77,
      "start": 94.6597,
      "duration": 0.1486,
      "velocity": 127,
      "chip": "ym2612"
    },
    {
      "channel": 2,
      "note": 64,
      "start": 94.7094,
      "duration": 0.0245,
      "velocity": 87,
      "chip": "ym2612"
    },
    {
      "channel": 2,
      "note": 64,
      "start": 94.734,
      "duration": 0.0747,
      "velocity": 87,
      "chip": "ym2612"
    },
    {
      "channel": 0,
      "note": 53,
      "start": 94.8083,
      "duration": 0.3715,
      "velocity": 107,
      "chip": "ym2612"
    },
    {
      "channel": 1,
      "note": 72,
      "start": 94.8085,
      "duration": 0.198,
      "velocity": 127,
      "chip": "ym2612"
    },
    {
      "channel": 2,
      "note": 64,
      "start": 94.8086,
      "duration": 0.2226,
      "velocity": 87,
      "chip": "ym2612"
    },
    {
      "channel": 3,
      "note": 65,
      "start": 94.8089,
      "duration": 0.3712,
      "velocity": 104,
      "chip": "ym2612"
    },
    {
      "channel": 4,
      "note": 60,
      "start": 94.8091,
      "duration": 0.3711,
      "velocity": 104,
      "chip": "ym2612"
    },
    {
      "channel": 5,
      "note": 57,
      "start": 94.8092,
      "duration": 0.371,
      "velocity": 104,
      "chip": "ym2612"
    },
    {
      "channel": 1,
      "note": 68,
      "start": 95.0066,
      "duration": 0.198,
      "velocity": 127,
      "chip": "ym2612"
    },
    {
      "channel": 2,
      "note": 64,
      "start": 95.0313,
      "duration": 0.0745,
      "velocity": 87,
      "chip": "ym2612"
    },
    {
      "channel": 2,
      "note": 65,
      "start": 95.1057,
      "duration": 0.0245,
      "velocity": 87,
      "chip": "ym2612"
    },
    {
      "channel": 2,
      "note": 65,
      "start": 95.1302,
      "duration": 0.0753,
      "velocity": 87,
      "chip": "ym2612"
    },
    {
      "channel": 0,
      "note": 46,
      "start": 95.2046,
      "duration": 0.3714,
      "velocity": 107,
      "chip": "ym2612"
    },
    {
      "channel": 1,
      "note": 29,
      "start": 95.2053,
      "duration": 0.3956,
      "velocity": 107,
      "chip": "ym2612"
    },
    {
      "channel": 2,
      "note": 65,
      "start": 95.2055,
      "duration": 0.2221,
      "velocity": 87,
      "chip": "ym2612"
    },
    {
      "channel": 3,
      "note": 65,
      "start": 95.2063,
      "duration": 0.37,
      "velocity": 104,
      "chip": "ym2612"
    },
    {
      "channel": 4,
      "note": 62,
      "start": 95.2071,
      "duration": 0.3693,
      "velocity": 104,
      "chip": "ym2612"
    },
    {
      "channel": 5,
      "note": 58,
      "start": 95.2078,
      "duration": 0.3686,
      "velocity": 104,
      "chip": "ym2612"
    },
    {
      "channel": 2,
      "note": 65,
      "start": 95.4276,
      "duration": 0.0744,
      "velocity": 87,
      "chip": "ym2612"
    },
    {
      "channel": 2,
      "note": 67,
      "start": 95.502,
      "duration": 0.0245,
      "velocity": 87,
      "chip": "ym2612"
    },
    {
      "channel": 2,
      "note": 67,
      "start": 95.5266,
      "duration": 0.0747,
      "velocity": 87,
      "chip": "ym2612"
    },
    {
      "channel": 0,
      "note": 46,
      "start": 95.6009,
      "duration": 0.1733,
      "velocity": 107,
      "chip": "ym2612"
    },
    {
      "channel": 1,
      "note": 29,
      "start": 95.6011,
      "duration": 0.1979,
      "velocity": 107,
      "chip": "ym2612"
    },
    {
      "channel": 2,
      "note": 67,
      "start": 95.6012,
      "duration": 0.2226,
      "velocity": 87,
      "chip": "ym2612"
    },
    {
      "channel": 3,
      "note": 65,
      "start": 95.6015,
      "duration": 0.1729,
      "velocity": 104,
      "chip": "ym2612"
    },
    {
      "channel": 4,
      "note": 62,
      "start": 95.6017,
      "duration": 0.1728,
      "velocity": 104,
      "chip": "ym2612"
    },
    {
      "channel": 5,
      "note": 58,
      "start": 95.6018,
      "duration": 0.1727,
      "velocity": 104,
      "chip": "ym2612"
    },
    {
      "channel": 2,
      "note": 67,
      "start": 95.8238,
      "duration": 0.0745,
      "velocity": 87,
      "chip": "ym2612"
    },
    {
      "channel": 2,
      "note": 69,
      "start": 95.8983,
      "duration": 0.0245,
      "velocity": 87,
      "chip": "ym2612"
    },
    {
      "channel": 2,
      "note": 69,
      "start": 95.9228,
      "duration": 0.0744,
      "velocity": 87,
      "chip": "ym2612"
    },
    {
      "channel": 2,
      "note": 69,
      "start": 95.9972,
      "duration": 0.2229,
      "velocity": 87,
      "chip": "ym2612"
    },
    {
      "channel": 2,
      "note": 69,
      "start": 96.2201,
      "duration": 0.0744,
      "velocity": 87,
      "chip": "ym2612"
    },
    {
      "channel": 2,
      "note": 62,
      "start": 96.2946,
      "duration": 0.0245,
      "velocity": 87,
      "chip": "ym2612"
    },
    {
      "channel": 2,
      "note": 62,
      "start": 96.3191,
      "duration": 0.0751,
      "velocity": 87,
      "chip": "ym2612"
    },
    {
      "channel": 1,
      "note": 63,
      "start": 96.394,
      "duration": 0.5939,
      "velocity": 120,
      "chip": "ym2612"
    },
    {
      "channel": 2,
      "note": 62,
      "start": 96.3942,
      "duration": 0.2222,
      "velocity": 87,
      "chip": "ym2612"
    },
    {
      "channel": 2,
      "note": 62,
      "start": 96.6164,
      "duration": 0.0745,
      "velocity": 87,
      "chip": "ym2612"
    },
    {
      "channel": 2,
      "note": 64,
      "start": 96.6909,
      "duration": 0.0245,
      "velocity": 87,
      "chip": "ym2612"
    },
    {
      "channel": 2,
      "note": 64,
      "start": 96.7154,
      "duration": 0.0746,
      "velocity": 87,
      "chip": "ym2612"
    },
    {
      "channel": 2,
      "note": 64,
      "start": 96.79,
      "duration": 0.2227,
      "velocity": 87,
      "chip": "ym2612"
    },
    {
      "channel": 0,
      "note": 46,
      "start": 96.9879,
      "duration": 0.3714,
      "velocity": 107,
      "chip": "ym2612"
    },
    {
      "channel": 1,
      "note": 29,
      "start": 96.9886,
      "duration": 0.3956,
      "velocity": 107,
      "chip": "ym2612"
    },
    {
      "channel": 3,
      "note": 65,
      "start": 96.989,
      "duration": 0.3706,
      "velocity": 104,
      "chip": "ym2612"
    },
    {
      "channel": 4,
      "note": 62,
      "start": 96.9892,
      "duration": 0.3705,
      "velocity": 104,
      "chip": "ym2612"
    },
    {
      "channel": 5,
      "note": 58,
      "start": 96.9893,
      "duration": 0.3705,
      "velocity": 104,
      "chip": "ym2612"
    },
    {
      "channel": 2,
      "note": 64,
      "start": 97.0127,
      "duration": 0.0744,
      "velocity": 87,
      "chip": "ym2612"
    },
    {
      "channel": 2,
      "note": 65,
      "start": 97.0872,
      "duration": 1.6096,
      "velocity": 87,
      "chip": "ym2612"
    },
    {
      "channel": 0,
      "note": 46,
      "start": 97.3841,
      "duration": 0.1733,
      "velocity": 107,
      "chip": "ym2612"
    },
    {
      "channel": 1,
      "note": 29,
      "start": 97.3844,
      "duration": 0.1979,
      "velocity": 107,
      "chip": "ym2612"
    },
    {
      "channel": 3,
      "note": 65,
      "start": 97.3847,
      "duration": 0.173,
      "velocity": 104,
      "chip": "ym2612"
    },
    {
      "channel": 4,
      "note": 62,
      "start": 97.3849,
      "duration": 0.1729,
      "velocity": 104,
      "chip": "ym2612"
    },
    {
      "channel": 5,
      "note": 58,
      "start": 97.3851,
      "duration": 0.1728,
      "velocity": 104,
      "chip": "ym2612"
    },
    {
      "channel": 2,
      "note": 65,
      "start": 98.6968,
      "duration": 0.0745,
      "velocity": 87,
      "chip": "ym2612"
    },
    {
      "channel": 2,
      "note": 65,
      "start": 98.7713,
      "duration": 0.2228,
      "velocity": 87,
      "chip": "ym2612"
    },
    {
      "channel": 2,
      "note": 65,
      "start": 98.9941,
      "duration": 0.0744,
      "velocity": 87,
      "chip": "ym2612"
    },
    {
      "channel": 2,
      "note": 67,
      "start": 99.0686,
      "duration": 0.2227,
      "velocity": 87,
      "chip": "ym2612"
    },
    {
      "channel": 2,
      "note": 67,
      "start": 99.2912,
      "duration": 0.0745,
      "velocity": 87,
      "chip": "ym2612"
    },
    {
      "channel": 2,
      "note": 67,
      "start": 99.3657,
      "duration": 0.2229,
      "velocity": 87,
      "chip": "ym2612"
    },
    {
      "channel": 2,
      "note": 67,
      "start": 99.5885,
      "duration": 0.0744,
      "velocity": 87,
      "chip": "ym2612"
    },
    {
      "channel": 2,
      "note": 69,
      "start": 99.663,
      "duration": 0.2227,
      "velocity": 87,
      "chip": "ym2612"
    },
    {
      "channel": 2,
      "note": 69,
      "start": 99.8857,
      "duration": 0.0753,
      "velocity": 87,
      "chip": "ym2612"
    },
    {
      "channel": 0,
      "note": 46,
      "start": 99.96,
      "duration": 0.3714,
      "velocity": 107,
      "chip": "ym2612"
    },
    {
      "channel": 1,
      "note": 29,
      "start": 99.9608,
      "duration": 0.3956,
      "velocity": 107,
      "chip": "ym2612"
    },
    {
      "channel": 2,
      "note": 69,
      "start": 99.961,
      "duration": 0.1229,
      "velocity": 87,
      "chip": "ym2612"
    },
    {
      "channel": 3,
      "note": 67,
      "start": 99.9612,
      "duration": 0.3706,
      "velocity": 104,
      "chip": "ym2612"
    },
    {
      "channel": 4,
      "note": 64,
      "start": 99.9614,
      "duration": 0.3705,
      "velocity": 104,
      "chip": "ym2612"
    },
    {
      "channel": 5,
      "note": 60,
      "start": 99.9615,
      "duration": 0.3703,
      "velocity": 104,
      "chip": "ym2612"
    },
    {
      "channel": 2,
      "note": 69,
      "start": 100.0839,
      "duration": 0.0744,
      "velocity": 87,
      "chip": "ym2612"
    },
    {
      "channel": 2,
      "note": 69,
      "start": 100.1583,
      "duration": 0.0247,
      "velocity": 87,
      "chip": "ym2612"
    },
    {
      "channel": 2,
      "note": 69,
      "start": 100.183,
      "duration": 0.0745,
      "velocity": 87,
      "chip": "ym2612"
    },
    {
      "channel": 2,
      "note": 67,
      "start": 100.2575,
      "duration": 0.0245,
      "velocity": 87,
      "chip": "ym2612"
    },
    {
      "channel": 2,
      "note": 67,
      "start": 100.282,
      "duration": 0.0747,
      "velocity": 87,
      "chip": "ym2612"
    },
    {
      "channel": 0,
      "note": 46,
      "start": 100.3563,
      "duration": 0.1735,
      "velocity": 107,
      "chip": "ym2612"
    },
    {
      "channel": 1,
      "note": 29,
      "start": 100.3565,
      "duration": 0.1979,
      "velocity": 107,
      "chip": "ym2612"
    },
    {
      "channel": 2,
      "note": 67,
      "start": 100.3567,
      "duration": 0.0245,
      "velocity": 87,
      "chip": "ym2612"
    },
    {
      "channel": 3,
      "note": 67,
      "start": 100.357,
      "duration": 0.1732,
      "velocity": 104,
      "chip": "ym2612"
    },
    {
      "channel": 4,
      "note": 64,
      "start": 100.3571,
      "duration": 0.1731,
      "velocity": 104,
      "chip": "ym2612"
    },
    {
      "channel": 5,
      "note": 60,
      "start": 100.3573,
      "duration": 0.1729,
      "velocity": 104,
      "chip": "ym2612"
    },
    {
      "channel": 2,
      "note": 67,
      "start": 100.3812,
      "duration": 0.0744,
      "velocity": 87,
      "chip": "ym2612"
    },
    {
      "channel": 2,
      "note": 65,
      "start": 100.4556,
      "duration": 0.0247,
      "velocity": 87,
      "chip": "ym2612"
    },
    {
      "channel": 2,
      "note": 65,
      "start": 100.4803,
      "duration": 0.0744,
      "velocity": 87,
      "chip": "ym2612"
    },
    {
      "channel": 2,
      "note": 65,
      "start": 100.5547,
      "duration": 0.0245,
      "velocity": 87,
      "chip": "ym2612"
    },
    {
      "channel": 2,
      "note": 65,
      "start": 100.5793,
      "duration": 0.0745,
      "velocity": 87,
      "chip": "ym2612"
    },
    {
      "channel": 2,
      "note": 64,
      "start": 100.6537,
      "duration": 0.0245,
      "velocity": 87,
      "chip": "ym2612"
    },
    {
      "channel": 2,
      "note": 64,
      "start": 100.6782,
      "duration": 0.0745,
      "velocity": 87,
      "chip": "ym2612"
    },
    {
      "channel": 2,
      "note": 64,
      "start": 100.7527,
      "duration": 0.0247,
      "velocity": 87,
      "chip": "ym2612"
    },
    {
      "channel": 2,
      "note": 64,
      "start": 100.7774,
      "duration": 0.0744,
      "velocity": 87,
      "chip": "ym2612"
    },
    {
      "channel": 2,
      "note": 62,
      "start": 100.8519,
      "duration": 0.0245,
      "velocity": 87,
      "chip": "ym2612"
    },
    {
      "channel": 2,
      "note": 62,
      "start": 100.8764,
      "duration": 0.0744,
      "velocity": 87,
      "chip": "ym2612"
    },
    {
      "channel": 2,
      "note": 62,
      "start": 100.9508,
      "duration": 0.0247,
      "velocity": 87,
      "chip": "ym2612"
    },
    {
      "channel": 2,
      "note": 62,
      "start": 100.9756,
      "duration": 0.0746,
      "velocity": 87,
      "chip": "ym2612"
    },
    {
      "channel": 2,
      "note": 67,
      "start": 101.0501,
      "duration": 0.1238,
      "velocity": 87,
      "chip": "ym2612"
    },
    {
      "channel": 1,
      "note": 63,
      "start": 101.1495,
      "duration": 0.1974,
      "velocity": 120,
      "chip": "ym2612"
    },
    {
      "channel": 2,
      "note": 67,
      "start": 101.1739,
      "duration": 0.0743,
      "velocity": 87,
      "chip": "ym2612"
    },
    {
      "channel": 2,
      "note": 72,
      "start": 101.2482,
      "duration": 3.3929,
      "velocity": 87,
      "chip": "ym2612"
    },
    {
      "channel": 1,
      "note": 29,
      "start": 101.3477,
      "duration": 0.1974,
      "velocity": 107,
      "chip": "ym2612"
    },
    {
      "channel": 1,
      "note": 29,
      "start": 101.5452,
      "duration": 0.1981,
      "velocity": 107,
      "chip": "ym2612"
    },
    {
      "channel": 0,
      "note": 46,
      "start": 101.7433,
      "duration": 0.3714,
      "velocity": 107,
      "chip": "ym2612"
    },
    {
      "channel": 1,
      "note": 29,
      "start": 101.7435,
      "duration": 0.3961,
      "velocity": 107,
      "chip": "ym2612"
    },
    {
      "channel": 3,
      "note": 67,
      "start": 101.7439,
      "duration": 0.3712,
      "velocity": 104,
      "chip": "ym2612"
    },
    {
      "channel": 4,
      "note": 64,
      "start": 101.7441,
      "duration": 0.3711,
      "velocity": 104,
      "chip": "ym2612"
    },
    {
      "channel": 5,
      "note": 60,
      "start": 101.7443,
      "duration": 0.371,
      "velocity": 104,
      "chip": "ym2612"
    },
    {
      "channel": 0,
      "note": 46,
      "start": 102.1396,
      "duration": 0.1733,
      "velocity": 107,
      "chip": "ym2612"
    },
    {
      "channel": 1,
      "note": 29,
      "start": 102.1398,
      "duration": 0.1979,
      "velocity": 107,
      "chip": "ym2612"
    },
    {
      "channel": 3,
      "note": 67,
      "start": 102.1402,
      "duration": 0.173,
      "velocity": 104,
      "chip": "ym2612"
    },
    {
      "channel": 4,
      "note": 64,
      "start": 102.1404,
      "duration": 0.1729,
      "velocity": 104,
      "chip": "ym2612"
    },
    {
      "channel": 5,
      "note": 60,
      "start": 102.1405,
      "duration": 0.1728,
      "velocity": 104,
      "chip": "ym2612"
    },
    {
      "channel": 1,
      "note": 29,
      "start": 102.9328,
      "duration": 0.1974,
      "velocity": 107,
      "chip": "ym2612"
    },
    {
      "channel": 1,
      "note": 80,
      "start": 103.131,
      "duration": 0.1974,
      "velocity": 111,
      "chip": "ym2612"
    },
    {
      "channel": 1,
      "note": 29,
      "start": 103.3291,
      "duration": 0.1974,
      "velocity": 107,
      "chip": "ym2612"
    },
    {
      "channel": 1,
      "note": 63,
      "start": 103.5273,
      "duration": 0.0492,
      "velocity": 120,
      "chip": "ym2612"
    },
    {
      "channel": 1,
      "note": 63,
      "start": 103.5766,
      "duration": 0.1481,
      "velocity": 120,
      "chip": "ym2612"
    },
    {
      "channel": 1,
      "note": 29,
      "start": 103.7254,
      "duration": 0.1974,
      "velocity": 107,
      "chip": "ym2612"
    },
    {
      "channel": 1,
      "note": 63,
      "start": 103.9235,
      "duration": 0.1974,
      "velocity": 120,
      "chip": "ym2612"
    },
    {
      "channel": 1,
      "note": 29,
      "start": 104.1217,
      "duration": 0.1974,
      "velocity": 107,
      "chip": "ym2612"
    },
    {
      "channel": 1,
      "note": 63,
      "start": 104.3198,
      "duration": 0.1974,
      "velocity": 120,
      "chip": "ym2612"
    },
    {
      "channel": 1,
      "note": 63,
      "start": 104.5174,
      "duration": 0.1981,
      "velocity": 120,
      "chip": "ym2612"
    },
    {
      "channel": 2,
      "note": 72,
      "start": 104.6412,
      "duration": 0.0753,
      "velocity": 87,
      "chip": "ym2612"
    },
    {
      "channel": 0,
      "note": 46,
      "start": 104.7155,
      "duration": 0.3714,
      "velocity": 107,
      "chip": "ym2612"
    },
    {
      "channel": 1,
      "note": 29,
      "start": 104.7162,
      "duration": 0.3956,
      "velocity": 107,
      "chip": "ym2612"
    },
    {
      "channel": 2,
      "note": 72,
      "start": 104.7164,
      "duration": 0.2221,
      "velocity": 87,
      "chip": "ym2612"
    },
    {
      "channel": 3,
      "note": 68,
      "start": 104.7167,
      "duration": 0.3705,
      "velocity": 104,
      "chip": "ym2612"
    },
    {
      "channel": 4,
      "note": 65,
      "start": 104.7168,
      "duration": 0.3704,
      "velocity": 104,
      "chip": "ym2612"
    },
    {
      "channel": 5,
      "note": 61,
      "start": 104.717,
      "duration": 0.3703,
      "velocity": 104,
      "chip": "ym2612"
    },
    {
      "channel": 2,
      "note": 72,
      "start": 104.9385,
      "duration": 0.0744,
      "velocity": 87,
      "chip": "ym2612"
    },
    {
      "channel": 2,
      "note": 73,
      "start": 105.0129,
      "duration": 0.0245,
      "velocity": 87,
      "chip": "ym2612"
    },
    {
      "channel": 2,
      "note": 73,
      "start": 105.0375,
      "duration": 0.0747,
      "velocity": 87,
      "chip": "ym2612"
    },
    {
      "channel": 0,
      "note": 46,
      "start": 105.1118,
      "duration": 0.1735,
      "velocity": 107,
      "chip": "ym2612"
    },
    {
      "channel": 1,
      "note": 29,
      "start": 105.112,
      "duration": 0.1979,
      "velocity": 107,
      "chip": "ym2612"
    },
    {
      "channel": 2,
      "note": 73,
      "start": 105.1122,
      "duration": 0.2226,
      "velocity": 87,
      "chip": "ym2612"
    },
    {
      "channel": 3,
      "note": 68,
      "start": 105.1124,
      "duration": 0.1732,
      "velocity": 104,
      "chip": "ym2612"
    },
    {
      "channel": 4,
      "note": 65,
      "start": 105.1126,
      "duration": 0.1731,
      "velocity": 104,
      "chip": "ym2612"
    },
    {
      "channel": 5,
      "note": 61,
      "start": 105.1127,
      "duration": 0.173,
      "velocity": 104,
      "chip": "ym2612"
    },
    {
      "channel": 2,
      "note": 73,
      "start": 105.3347,
      "duration": 0.0745,
      "velocity": 87,
      "chip": "ym2612"
    },
    {
      "channel": 2,
      "note": 68,
      "start": 105.4092,
      "duration": 0.0245,
      "velocity": 87,
      "chip": "ym2612"
    },
    {
      "channel": 2,
      "note": 68,
      "start": 105.4337,
      "duration": 0.0745,
      "velocity": 87,
      "chip": "ym2612"
    },
    {
      "channel": 2,
      "note": 68,
      "start": 105.5082,
      "duration": 0.2229,
      "velocity": 87,
      "chip": "ym2612"
    },
    {
      "channel": 2,
      "note": 68,
      "start": 105.731,
      "duration": 0.0744,
      "velocity": 87,
      "chip": "ym2612"
    },
    {
      "channel": 2,
      "note": 66,
      "start": 105.8055,
      "duration": 0.0245,
      "velocity": 87,
      "chip": "ym2612"
    },
    {
      "channel": 2,
      "note": 66,
      "start": 105.83,
      "duration": 0.0751,
      "velocity": 87,
      "chip": "ym2612"
    },
    {
      "channel": 1,
      "note": 63,
      "start": 105.905,
      "duration": 0.5939,
      "velocity": 120,
      "chip": "ym2612"
    },
    {
      "channel": 2,
      "note": 66,
      "start": 105.9051,
      "duration": 0.2222,
      "velocity": 87,
      "chip": "ym2612"
    },
    {
      "channel": 2,
      "note": 66,
      "start": 106.1273,
      "duration": 0.0745,
      "velocity": 87,
      "chip": "ym2612"
    },
    {
      "channel": 2,
      "note": 65,
      "start": 106.2018,
      "duration": 1.4115,
      "velocity": 87,
      "chip": "ym2612"
    },
    {
      "channel": 0,
      "note": 46,
      "start": 106.4988,
      "duration": 0.3714,
      "velocity": 107,
      "chip": "ym2612"
    },
    {
      "channel": 1,
      "note": 29,
      "start": 106.4995,
      "duration": 0.3956,
      "velocity": 107,
      "chip": "ym2612"
    },
    {
      "channel": 3,
      "note": 68,
      "start": 106.4999,
      "duration": 0.3706,
      "velocity": 104,
      "chip": "ym2612"
    },
    {
      "channel": 4,
      "note": 65,
      "start": 106.5001,
      "duration": 0.3705,
      "velocity": 104,
      "chip": "ym2612"
    },
    {
      "channel": 5,
      "note": 61,
      "start": 106.5003,
      "duration": 0.3705,
      "velocity": 104,
      "chip": "ym2612"
    },
    {
      "channel": 0,
      "note": 46,
      "start": 106.8951,
      "duration": 0.1732,
      "velocity": 107,
      "chip": "ym2612"
    },
    {
      "channel": 1,
      "note": 29,
      "start": 106.8953,
      "duration": 0.1979,
      "velocity": 107,
      "chip": "ym2612"
    },
    {
      "channel": 3,
      "note": 68,
      "start": 106.8957,
      "duration": 0.173,
      "velocity": 104,
      "chip": "ym2612"
    },
    {
      "channel": 4,
      "note": 65,
      "start": 106.8959,
      "duration": 0.1729,
      "velocity": 104,
      "chip": "ym2612"
    },
    {
      "channel": 5,
      "note": 61,
      "start": 106.896,
      "duration": 0.1728,
      "velocity": 104,
      "chip": "ym2612"
    },
    {
      "channel": 2,
      "note": 65,
      "start": 107.6133,
      "duration": 0.0745,
      "velocity": 87,
      "chip": "ym2612"
    },
    {
      "channel": 2,
      "note": 65,
      "start": 107.6877,
      "duration": 0.2229,
      "velocity": 87,
      "chip": "ym2612"
    },
    {
      "channel": 2,
      "note": 65,
      "start": 107.9106,
      "duration": 0.0744,
      "velocity": 87,
      "chip": "ym2612"
    },
    {
      "channel": 2,
      "note": 65,
      "start": 107.9851,
      "duration": 0.2227,
      "velocity": 87,
      "chip": "ym2612"
    },
    {
      "channel": 2,
      "note": 65,
      "start": 108.2077,
      "duration": 0.0745,
      "velocity": 87,
      "chip": "ym2612"
    },
    {
      "channel": 2,
      "note": 65,
      "start": 108.2822,
      "duration": 0.2229,
      "velocity": 87,
      "chip": "ym2612"
    },
    {
      "channel": 2,
      "note": 65,
      "start": 108.505,
      "duration": 0.0744,
      "velocity": 87,
      "chip": "ym2612"
    },
    {
      "channel": 2,
      "note": 67,
      "start": 108.5795,
      "duration": 0.2227,
      "velocity": 87,
      "chip": "ym2612"
    },
    {
      "channel": 2,
      "note": 67,
      "start": 108.8021,
      "duration": 0.0745,
      "velocity": 87,
      "chip": "ym2612"
    },
    {
      "channel": 2,
      "note": 67,
      "start": 108.8766,
      "duration": 0.2229,
      "velocity": 87,
      "chip": "ym2612"
    },
    {
      "channel": 3,
      "note": 67,
      "start": 109.0749,
      "duration": 0.1733,
      "velocity": 104,
      "chip": "ym2612"
    },
    {
      "channel": 4,
      "note": 64,
      "start": 109.0751,
      "duration": 0.1732,
      "velocity": 104,
      "chip": "ym2612"
    },
    {
      "channel": 5,
      "note": 60,
      "start": 109.0752,
      "duration": 0.173,
      "velocity": 104,
      "chip": "ym2612"
    },
    {
      "channel": 2,
      "note": 67,
      "start": 109.0995,
      "duration": 0.0745,
      "velocity": 87,
      "chip": "ym2612"
    },
    {
      "channel": 2,
      "note": 68,
      "start": 109.1739,
      "duration": 0.223,
      "velocity": 87,
      "chip": "ym2612"
    },
    {
      "channel": 3,
      "note": 68,
      "start": 109.2731,
      "duration": 0.1733,
      "velocity": 104,
      "chip": "ym2612"
    },
    {
      "channel": 4,
      "note": 65,
      "start": 109.2732,
      "duration": 0.1732,
      "velocity": 104,
      "chip": "ym2612"
    },
    {
      "channel": 5,
      "note": 61,
      "start": 109.2734,
      "duration": 0.173,
      "velocity": 104,
      "chip": "ym2612"
    },
    {
      "channel": 2,
      "note": 68,
      "start": 109.3969,
      "duration": 0.0749,
      "velocity": 87,
      "chip": "ym2612"
    },
    {
      "channel": 0,
      "note": 51,
      "start": 109.471,
      "duration": 2.3528,
      "velocity": 107,
      "chip": "ym2612"
    },
    {
      "channel": 1,
      "note": 29,
      "start": 109.4717,
      "duration": 0.3954,
      "velocity": 107,
      "chip": "ym2612"
    },
    {
      "channel": 2,
      "note": 68,
      "start": 109.4719,
      "duration": 0.2221,
      "velocity": 87,
      "chip": "ym2612"
    },
    {
      "channel": 3,
      "note": 70,
      "start": 109.4721,
      "duration": 4.5811,
      "velocity": 104,
      "chip": "ym2612"
    },
    {
      "channel": 4,
      "note": 67,
      "start": 109.4723,
      "duration": 4.581,
      "velocity": 104,
      "chip": "ym2612"
    },
    {
      "channel": 5,
      "note": 63,
      "start": 109.4725,
      "duration": 4.581,
      "velocity": 104,
      "chip": "ym2612"
    },
    {
      "channel": 2,
      "note": 68,
      "start": 109.6939,
      "duration": 0.0745,
      "velocity": 87,
      "chip": "ym2612"
    },
    {
      "channel": 2,
      "note": 67,
      "start": 109.7684,
      "duration": 0.817,
      "velocity": 87,
      "chip": "ym2612"
    },
    {
      "channel": 1,
      "note": 80,
      "start": 109.8679,
      "duration": 0.1974,
      "velocity": 127,
      "chip": "ym2612"
    },
    {
      "channel": 1,
      "note": 56,
      "start": 110.066,
      "duration": 0.3956,
      "velocity": 117,
      "chip": "ym2612"
    },
    {
      "channel": 1,
      "note": 80,
      "start": 110.4623,
      "duration": 0.1975,
      "velocity": 127,
      "chip": "ym2612"
    },
    {
      "channel": 2,
      "note": 67,
      "start": 110.5854,
      "duration": 0.0753,
      "velocity": 87,
      "chip": "ym2612"
    },
    {
      "channel": 1,
      "note": 56,
      "start": 110.6606,
      "duration": 0.3954,
      "velocity": 117,
      "chip": "ym2612"
    },
    {
      "channel": 2,
      "note": 67,
      "start": 110.6607,
      "duration": 0.222,
      "velocity": 87,
      "chip": "ym2612"
    },
    {
      "channel": 2,
      "note": 67,
      "start": 110.8827,
      "duration": 0.0744,
      "velocity": 87,
      "chip": "ym2612"
    },
    {
      "channel": 2,
      "note": 65,
      "start": 110.9572,
      "duration": 0.8171,
      "velocity": 87,
      "chip": "ym2612"
    },
    {
      "channel": 1,
      "note": 80,
      "start": 111.0567,
      "duration": 0.1974,
      "velocity": 127,
      "chip": "ym2612"
    },
    {
      "channel": 1,
      "note": 56,
      "start": 111.2549,
      "duration": 0.3956,
      "velocity": 117,
      "chip": "ym2612"
    },
    {
      "channel": 1,
      "note": 80,
      "start": 111.6512,
      "duration": 0.1976,
      "velocity": 111,
      "chip": "ym2612"
    },
    {
      "channel": 2,
      "note": 65,
      "start": 111.7743,
      "duration": 0.0753,
      "velocity": 87,
      "chip": "ym2612"
    },
    {
      "channel": 0,
      "note": 39,
      "start": 111.8487,
      "duration": 2.3529,
      "velocity": 107,
      "chip": "ym2612"
    },
    {
      "channel": 1,
      "note": 56,
      "start": 111.8494,
      "duration": 0.3954,
      "velocity": 117,
      "chip": "ym2612"
    },
    {
      "channel": 2,
      "note": 65,
      "start": 111.8496,
      "duration": 0.222,
      "velocity": 87,
      "chip": "ym2612"
    },
    {
      "channel": 2,
      "note": 65,
      "start": 112.0716,
      "duration": 0.0745,
      "velocity": 87,
      "chip": "ym2612"
    },
    {
      "channel": 2,
      "note": 63,
      "start": 112.1461,
      "duration": 2.006,
      "velocity": 87,
      "chip": "ym2612"
    },
    {
      "channel": 1,
      "note": 80,
      "start": 112.2456,
      "duration": 0.1974,
      "velocity": 127,
      "chip": "ym2612"
    },
    {
      "channel": 1,
      "note": 56,
      "start": 112.4437,
      "duration": 0.3956,
      "velocity": 117,
      "chip": "ym2612"
    },
    {
      "channel": 1,
      "note": 80,
      "start": 112.84,
      "duration": 0.1974,
      "velocity": 127,
      "chip": "ym2612"
    },
    {
      "channel": 1,
      "note": 56,
      "start": 113.0382,
      "duration": 0.3955,
      "velocity": 117,
      "chip": "ym2612"
    },
    {
      "channel": 1,
      "note": 80,
      "start": 113.4345,
      "duration": 0.1974,
      "velocity": 127,
      "chip": "ym2612"
    },
    {
      "channel": 1,
      "note": 56,
      "start": 113.6326,
      "duration": 0.3956,
      "velocity": 117,
      "chip": "ym2612"
    },
    {
      "channel": 1,
      "note": 29,
      "start": 114.0289,
      "duration": 0.1982,
      "velocity": 107,
      "chip": "ym2612"
    },
    {
      "channel": 3,
      "note": 55,
      "start": 114.0787,
      "duration": 0.1231,
      "velocity": 102,
      "chip": "ym2612"
    },
    {
      "channel": 4,
      "note": 60,
      "start": 114.1277,
      "duration": 0.0742,
      "velocity": 102,
      "chip": "ym2612"
    },
    {
      "channel": 2,
      "note": 63,
      "start": 114.1521,
      "duration": 0.0001,
      "velocity": 87,
      "chip": "ym2612"
    },
    {
      "channel": 5,
      "note": 62,
      "start": 114.1772,
      "duration": 0.0247,
      "velocity": 102,
      "chip": "ym2612"
    },
    {
      "channel": 0,
      "note": 48,
      "start": 114.227,
      "duration": 0.0001,
      "velocity": 107,
      "chip": "ym2612"
    }
  ]
}