{
  "track_name": "20 - Bernhardt",
  "duration_sec": 93.236,
  "sample_rate": 44100,
  "note_count": 924,
  "unique_pitches": 42,
  "pitch_range": 62,
  "avg_note_duration": 0.462,
  "reconstruction_stats": {
    "notes_reconstructed": 924,
    "keyon_events": 924,
    "keyoff_events": 919,
    "orphan_keyons": 5,
    "unique_pitches": 42,
    "pitch_range": 62,
    "avg_duration_sec": 0.462
  },
  "metadata": {
    "source": "L\\Langrisser II\\20 - Bernhardt.vgz"
  },
  "notes": [
    {
      "channel": 0,
      "note": 42,
      "start": 0.02,
      "duration": 4.8533,
      "velocity": 103,
      "chip": "ym2612"
    },
    {
      "channel": 1,
      "note": 35,
      "start": 0.0227,
      "duration": 4.1803,
      "velocity": 127,
      "chip": "ym2612"
    },
    {
      "channel": 2,
      "note": 35,
      "start": 0.0255,
      "duration": 4.1778,
      "velocity": 127,
      "chip": "ym2612"
    },
    {
      "channel": 3,
      "note": 82,
      "start": 0.065,
      "duration": 2.1273,
      "velocity": 127,
      "chip": "ym2612"
    },
    {
      "channel": 4,
      "note": 73,
      "start": 0.0687,
      "duration": 4.4705,
      "velocity": 127,
      "chip": "ym2612"
    },
    {
      "channel": 3,
      "note": 35,
      "start": 2.2239,
      "duration": 0.3037,
      "velocity": 127,
      "chip": "ym2612"
    },
    {
      "channel": 3,
      "note": 47,
      "start": 2.5586,
      "duration": 0.0807,
      "velocity": 127,
      "chip": "ym2612"
    },
    {
      "channel": 3,
      "note": 47,
      "start": 2.67,
      "duration": 0.081,
      "velocity": 127,
      "chip": "ym2612"
    },
    {
      "channel": 3,
      "note": 47,
      "start": 2.7817,
      "duration": 0.081,
      "velocity": 127,
      "chip": "ym2612"
    },
    {
      "channel": 3,
      "note": 47,
      "start": 2.8939,
      "duration": 0.3041,
      "velocity": 127,
      "chip": "ym2612"
    },
    {
      "channel": 3,
      "note": 47,
      "start": 3.2287,
      "duration": 0.0811,
      "velocity": 127,
      "chip": "ym2612"
    },
    {
      "channel": 3,
      "note": 47,
      "start": 3.3409,
      "duration": 0.0805,
      "velocity": 127,
      "chip": "ym2612"
    },
    {
      "channel": 3,
      "note": 47,
      "start": 3.4522,
      "duration": 0.0812,
      "velocity": 127,
      "chip": "ym2612"
    },
    {
      "channel": 3,
      "note": 47,
      "start": 3.5639,
      "duration": 0.3045,
      "velocity": 127,
      "chip": "ym2612"
    },
    {
      "channel": 3,
      "note": 47,
      "start": 3.8991,
      "duration": 0.081,
      "velocity": 127,
      "chip": "ym2612"
    },
    {
      "channel": 3,
      "note": 47,
      "start": 4.0112,
      "duration": 0.0811,
      "velocity": 127,
      "chip": "ym2612"
    },
    {
      "channel": 3,
      "note": 47,
      "start": 4.1226,
      "duration": 0.0811,
      "velocity": 127,
      "chip": "ym2612"
    },
    {
      "channel": 1,
      "note": 66,
      "start": 4.2331,
      "duration": 0.6404,
      "velocity": 106,
      "chip": "ym2612"
    },
    {
      "channel": 2,
      "note": 54,
      "start": 4.2354,
      "duration": 0.6384,
      "velocity": 106,
      "chip": "ym2612"
    },
    {
      "channel": 3,
      "note": 47,
      "start": 4.2385,
      "duration": 0.1327,
      "velocity": 127,
      "chip": "ym2612"
    },
    {
      "channel": 3,
      "note": 47,
      "start": 4.4019,
      "duration": 0.1369,
      "velocity": 127,
      "chip": "ym2612"
    },
    {
      "channel": 3,
      "note": 47,
      "start": 4.5695,
      "duration": 0.1369,
      "velocity": 127,
      "chip": "ym2612"
    },
    {
      "channel": 4,
      "note": 35,
      "start": 4.5728,
      "duration": 0.6372,
      "velocity": 106,
      "chip": "ym2612"
    },
    {
      "channel": 3,
      "note": 47,
      "start": 4.7371,
      "duration": 0.1371,
      "velocity": 127,
      "chip": "ym2612"
    },
    {
      "channel": 0,
      "note": 42,
      "start": 4.9014,
      "duration": 2.6536,
      "velocity": 103,
      "chip": "ym2612"
    },
    {
      "channel": 1,
      "note": 76,
      "start": 4.9019,
      "duration": 1.9829,
      "velocity": 106,
      "chip": "ym2612"
    },
    {
      "channel": 2,
      "note": 57,
      "start": 4.9024,
      "duration": 1.9827,
      "velocity": 106,
      "chip": "ym2612"
    },
    {
      "channel": 3,
      "note": 47,
      "start": 4.906,
      "duration": 0.3033,
      "velocity": 127,
      "chip": "ym2612"
    },
    {
      "channel": 3,
      "note": 47,
      "start": 5.2399,
      "duration": 0.081,
      "velocity": 127,
      "chip": "ym2612"
    },
    {
      "channel": 4,
      "note": 66,
      "start": 5.2405,
      "duration": 1.9804,
      "velocity": 106,
      "chip": "ym2612"
    },
    {
      "channel": 3,
      "note": 47,
      "start": 5.3516,
      "duration": 0.081,
      "velocity": 127,
      "chip": "ym2612"
    },
    {
      "channel": 3,
      "note": 47,
      "start": 5.4636,
      "duration": 0.0811,
      "velocity": 127,
      "chip": "ym2612"
    },
    {
      "channel": 3,
      "note": 47,
      "start": 5.5752,
      "duration": 0.3045,
      "velocity": 127,
      "chip": "ym2612"
    },
    {
      "channel": 3,
      "note": 47,
      "start": 5.9108,
      "duration": 0.0806,
      "velocity": 127,
      "chip": "ym2612"
    },
    {
      "channel": 3,
      "note": 47,
      "start": 6.0221,
      "duration": 0.0812,
      "velocity": 127,
      "chip": "ym2612"
    },
    {
      "channel": 3,
      "note": 47,
      "start": 6.1339,
      "duration": 0.081,
      "velocity": 127,
      "chip": "ym2612"
    },
    {
      "channel": 3,
      "note": 47,
      "start": 6.246,
      "duration": 0.3041,
      "velocity": 127,
      "chip": "ym2612"
    },
    {
      "channel": 3,
      "note": 47,
      "start": 6.5812,
      "duration": 0.0811,
      "velocity": 127,
      "chip": "ym2612"
    },
    {
      "channel": 3,
      "note": 47,
      "start": 6.6926,
      "duration": 0.081,
      "velocity": 127,
      "chip": "ym2612"
    },
    {
      "channel": 3,
      "note": 47,
      "start": 6.8043,
      "duration": 0.0812,
      "velocity": 127,
      "chip": "ym2612"
    },
    {
      "channel": 1,
      "note": 75,
      "start": 6.9129,
      "duration": 0.6423,
      "velocity": 106,
      "chip": "ym2612"
    },
    {
      "channel": 2,
      "note": 56,
      "start": 6.9135,
      "duration": 0.6421,
      "velocity": 106,
      "chip": "ym2612"
    },
    {
      "channel": 3,
      "note": 47,
      "start": 6.9166,
      "duration": 0.1363,
      "velocity": 127,
      "chip": "ym2612"
    },
    {
      "channel": 3,
      "note": 47,
      "start": 7.0836,
      "duration": 0.137,
      "velocity": 127,
      "chip": "ym2612"
    },
    {
      "channel": 3,
      "note": 47,
      "start": 7.2512,
      "duration": 0.1369,
      "velocity": 127,
      "chip": "ym2612"
    },
    {
      "channel": 4,
      "note": 76,
      "start": 7.2519,
      "duration": 0.6394,
      "velocity": 106,
      "chip": "ym2612"
    },
    {
      "channel": 3,
      "note": 47,
      "start": 7.4188,
      "duration": 0.1371,
      "velocity": 127,
      "chip": "ym2612"
    },
    {
      "channel": 0,
      "note": 42,
      "start": 7.5831,
      "duration": 1.3127,
      "velocity": 103,
      "chip": "ym2612"
    },
    {
      "channel": 1,
      "note": 73,
      "start": 7.5836,
      "duration": 1.3125,
      "velocity": 106,
      "chip": "ym2612"
    },
    {
      "channel": 2,
      "note": 57,
      "start": 7.5842,
      "duration": 1.3122,
      "velocity": 106,
      "chip": "ym2612"
    },
    {
      "channel": 3,
      "note": 47,
      "start": 7.5878,
      "duration": 0.3032,
      "velocity": 127,
      "chip": "ym2612"
    },
    {
      "channel": 3,
      "note": 47,
      "start": 7.9216,
      "duration": 0.0811,
      "velocity": 127,
      "chip": "ym2612"
    },
    {
      "channel": 4,
      "note": 75,
      "start": 7.9223,
      "duration": 1.3102,
      "velocity": 106,
      "chip": "ym2612"
    },
    {
      "channel": 3,
      "note": 47,
      "start": 8.0337,
      "duration": 0.0809,
      "velocity": 127,
      "chip": "ym2612"
    },
    {
      "channel": 3,
      "note": 47,
      "start": 8.1451,
      "duration": 0.0811,
      "velocity": 127,
      "chip": "ym2612"
    },
    {
      "channel": 3,
      "note": 47,
      "start": 8.2569,
      "duration": 0.3046,
      "velocity": 127,
      "chip": "ym2612"
    },
    {
      "channel": 3,
      "note": 47,
      "start": 8.5922,
      "duration": 0.081,
      "velocity": 127,
      "chip": "ym2612"
    },
    {
      "channel": 3,
      "note": 47,
      "start": 8.7039,
      "duration": 0.0812,
      "velocity": 127,
      "chip": "ym2612"
    },
    {
      "channel": 3,
      "note": 47,
      "start": 8.816,
      "duration": 0.0809,
      "velocity": 127,
      "chip": "ym2612"
    },
    {
      "channel": 0,
      "note": 38,
      "start": 8.924,
      "duration": 1.3127,
      "velocity": 103,
      "chip": "ym2612"
    },
    {
      "channel": 1,
      "note": 71,
      "start": 8.9245,
      "duration": 1.3125,
      "velocity": 106,
      "chip": "ym2612"
    },
    {
      "channel": 2,
      "note": 57,
      "start": 8.9251,
      "duration": 1.3122,
      "velocity": 106,
      "chip": "ym2612"
    },
    {
      "channel": 3,
      "note": 47,
      "start": 8.9282,
      "duration": 0.3039,
      "velocity": 127,
      "chip": "ym2612"
    },
    {
      "channel": 3,
      "note": 47,
      "start": 9.2625,
      "duration": 0.0811,
      "velocity": 127,
      "chip": "ym2612"
    },
    {
      "channel": 4,
      "note": 73,
      "start": 9.2632,
      "duration": 1.3099,
      "velocity": 106,
      "chip": "ym2612"
    },
    {
      "channel": 3,
      "note": 47,
      "start": 9.3742,
      "duration": 0.081,
      "velocity": 127,
      "chip": "ym2612"
    },
    {
      "channel": 3,
      "note": 47,
      "start": 9.4859,
      "duration": 0.0812,
      "velocity": 127,
      "chip": "ym2612"
    },
    {
      "channel": 3,
      "note": 47,
      "start": 9.5979,
      "duration": 0.1368,
      "velocity": 127,
      "chip": "ym2612"
    },
    {
      "channel": 3,
      "note": 47,
      "start": 9.7658,
      "duration": 0.1365,
      "velocity": 127,
      "chip": "ym2612"
    },
    {
      "channel": 3,
      "note": 47,
      "start": 9.9334,
      "duration": 0.1365,
      "velocity": 127,
      "chip": "ym2612"
    },
    {
      "channel": 3,
      "note": 47,
      "start": 10.101,
      "duration": 0.1366,
      "velocity": 127,
      "chip": "ym2612"
    },
    {
      "channel": 0,
      "note": 42,
      "start": 10.2648,
      "duration": 2.9248,
      "velocity": 103,
      "chip": "ym2612"
    },
    {
      "channel": 1,
      "note": 73,
      "start": 10.2655,
      "duration": 2.9245,
      "velocity": 106,
      "chip": "ym2612"
    },
    {
      "channel": 2,
      "note": 57,
      "start": 10.2663,
      "duration": 2.924,
      "velocity": 106,
      "chip": "ym2612"
    },
    {
      "channel": 3,
      "note": 47,
      "start": 10.2699,
      "duration": 0.3028,
      "velocity": 127,
      "chip": "ym2612"
    },
    {
      "channel": 3,
      "note": 47,
      "start": 10.6037,
      "duration": 0.0809,
      "velocity": 127,
      "chip": "ym2612"
    },
    {
      "channel": 4,
      "note": 71,
      "start": 10.6043,
      "duration": 2.9217,
      "velocity": 106,
      "chip": "ym2612"
    },
    {
      "channel": 3,
      "note": 47,
      "start": 10.7151,
      "duration": 0.0811,
      "velocity": 127,
      "chip": "ym2612"
    },
    {
      "channel": 3,
      "note": 47,
      "start": 10.8268,
      "duration": 0.0811,
      "velocity": 127,
      "chip": "ym2612"
    },
    {
      "channel": 3,
      "note": 47,
      "start": 10.9386,
      "duration": 0.3046,
      "velocity": 127,
      "chip": "ym2612"
    },
    {
      "channel": 3,
      "note": 47,
      "start": 11.2739,
      "duration": 0.081,
      "velocity": 127,
      "chip": "ym2612"
    },
    {
      "channel": 3,
      "note": 47,
      "start": 11.386,
      "duration": 0.0809,
      "velocity": 127,
      "chip": "ym2612"
    },
    {
      "channel": 3,
      "note": 47,
      "start": 11.4973,
      "duration": 0.0811,
      "velocity": 127,
      "chip": "ym2612"
    },
    {
      "channel": 3,
      "note": 47,
      "start": 11.6091,
      "duration": 0.3045,
      "velocity": 127,
      "chip": "ym2612"
    },
    {
      "channel": 3,
      "note": 47,
      "start": 11.9443,
      "duration": 0.0812,
      "velocity": 127,
      "chip": "ym2612"
    },
    {
      "channel": 3,
      "note": 47,
      "start": 12.0561,
      "duration": 0.081,
      "velocity": 127,
      "chip": "ym2612"
    },
    {
      "channel": 3,
      "note": 47,
      "start": 12.1679,
      "duration": 0.081,
      "velocity": 127,
      "chip": "ym2612"
    },
    {
      "channel": 3,
      "note": 47,
      "start": 12.2795,
      "duration": 0.0144,
      "velocity": 127,
      "chip": "ym2612"
    },
    {
      "channel": 3,
      "note": 47,
      "start": 12.2996,
      "duration": 0.014,
      "velocity": 127,
      "chip": "ym2612"
    },
    {
      "channel": 3,
      "note": 47,
      "start": 12.3199,
      "duration": 0.0144,
      "velocity": 127,
      "chip": "ym2612"
    },
    {
      "channel": 3,
      "note": 47,
      "start": 12.3406,
      "duration": 0.0148,
      "velocity": 127,
      "chip": "ym2612"
    },
    {
      "channel": 3,
      "note": 47,
      "start": 12.3617,
      "duration": 0.0311,
      "velocity": 127,
      "chip": "ym2612"
    },
    {
      "channel": 3,
      "note": 47,
      "start": 12.3983,
      "duration": 0.0084,
      "velocity": 127,
      "chip": "ym2612"
    },
    {
      "channel": 3,
      "note": 47,
      "start": 12.4123,
      "duration": 0.0083,
      "velocity": 127,
      "chip": "ym2612"
    },
    {
      "channel": 3,
      "note": 47,
      "start": 12.439,
      "duration": 0.0811,
      "velocity": 127,
      "chip": "ym2612"
    },
    {
      "channel": 3,
      "note": 47,
      "start": 12.5511,
      "duration": 0.3041,
      "velocity": 127,
      "chip": "ym2612"
    },
    {
      "channel": 3,
      "note": 47,
      "start": 12.8863,
      "duration": 0.0807,
      "velocity": 127,
      "chip": "ym2612"
    },
    {
      "channel": 3,
      "note": 47,
      "start": 12.9977,
      "duration": 0.0811,
      "velocity": 127,
      "chip": "ym2612"
    },
    {
      "channel": 3,
      "note": 47,
      "start": 13.1094,
      "duration": 0.0813,
      "velocity": 127,
      "chip": "ym2612"
    },
    {
      "channel": 0,
      "note": 40,
      "start": 13.2178,
      "duration": 0.1395,
      "velocity": 103,
      "chip": "ym2612"
    },
    {
      "channel": 2,
      "note": 52,
      "start": 13.219,
      "duration": 0.1388,
      "velocity": 106,
      "chip": "ym2612"
    },
    {
      "channel": 3,
      "note": 47,
      "start": 13.2221,
      "duration": 0.3036,
      "velocity": 127,
      "chip": "ym2612"
    },
    {
      "channel": 0,
      "note": 41,
      "start": 13.3856,
      "duration": 0.1392,
      "velocity": 103,
      "chip": "ym2612"
    },
    {
      "channel": 2,
      "note": 53,
      "start": 13.3864,
      "duration": 0.1389,
      "velocity": 106,
      "chip": "ym2612"
    },
    {
      "channel": 0,
      "note": 42,
      "start": 13.553,
      "duration": 0.9775,
      "velocity": 103,
      "chip": "ym2612"
    },
    {
      "channel": 2,
      "note": 54,
      "start": 13.5538,
      "duration": 0.9773,
      "velocity": 106,
      "chip": "ym2612"
    },
    {
      "channel": 3,
      "note": 47,
      "start": 13.5569,
      "duration": 0.0804,
      "velocity": 127,
      "chip": "ym2612"
    },
    {
      "channel": 3,
      "note": 47,
      "start": 13.6681,
      "duration": 0.0809,
      "velocity": 127,
      "chip": "ym2612"
    },
    {
      "channel": 3,
      "note": 47,
      "start": 13.7797,
      "duration": 0.0811,
      "velocity": 127,
      "chip": "ym2612"
    },
    {
      "channel": 1,
      "note": 66,
      "start": 13.8884,
      "duration": 0.6424,
      "velocity": 106,
      "chip": "ym2612"
    },
    {
      "channel": 3,
      "note": 47,
      "start": 13.8918,
      "duration": 0.1366,
      "velocity": 127,
      "chip": "ym2612"
    },
    {
      "channel": 3,
      "note": 47,
      "start": 14.0591,
      "duration": 0.137,
      "velocity": 127,
      "chip": "ym2612"
    },
    {
      "channel": 3,
      "note": 47,
      "start": 14.2268,
      "duration": 0.1369,
      "velocity": 127,
      "chip": "ym2612"
    },
    {
      "channel": 4,
      "note": 73,
      "start": 14.2276,
      "duration": 0.6392,
      "velocity": 106,
      "chip": "ym2612"
    },
    {
      "channel": 3,
      "note": 47,
      "start": 14.3944,
      "duration": 0.1371,
      "velocity": 127,
      "chip": "ym2612"
    },
    {
      "channel": 0,
      "note": 42,
      "start": 14.5586,
      "duration": 2.6536,
      "velocity": 103,
      "chip": "ym2612"
    },
    {
      "channel": 1,
      "note": 76,
      "start": 14.5592,
      "duration": 1.9829,
      "velocity": 106,
      "chip": "ym2612"
    },
    {
      "channel": 2,
      "note": 57,
      "start": 14.5597,
      "duration": 1.9827,
      "velocity": 106,
      "chip": "ym2612"
    },
    {
      "channel": 3,
      "note": 47,
      "start": 14.5633,
      "duration": 0.3032,
      "velocity": 127,
      "chip": "ym2612"
    },
    {
      "channel": 3,
      "note": 47,
      "start": 14.8971,
      "duration": 0.0811,
      "velocity": 127,
      "chip": "ym2612"
    },
    {
      "channel": 4,
      "note": 66,
      "start": 14.8978,
      "duration": 1.9804,
      "velocity": 106,
      "chip": "ym2612"
    },
    {
      "channel": 3,
      "note": 47,
      "start": 15.0089,
      "duration": 0.0811,
      "velocity": 127,
      "chip": "ym2612"
    },
    {
      "channel": 3,
      "note": 47,
      "start": 15.121,
      "duration": 0.0807,
      "velocity": 127,
      "chip": "ym2612"
    },
    {
      "channel": 3,
      "note": 47,
      "start": 15.2324,
      "duration": 0.3047,
      "velocity": 127,
      "chip": "ym2612"
    },
    {
      "channel": 3,
      "note": 47,
      "start": 15.5677,
      "duration": 0.0811,
      "velocity": 127,
      "chip": "ym2612"
    },
    {
      "channel": 3,
      "note": 47,
      "start": 15.6794,
      "duration": 0.0812,
      "velocity": 127,
      "chip": "ym2612"
    },
    {
      "channel": 3,
      "note": 47,
      "start": 15.7915,
      "duration": 0.0811,
      "velocity": 127,
      "chip": "ym2612"
    },
    {
      "channel": 3,
      "note": 47,
      "start": 15.9029,
      "duration": 0.3045,
      "velocity": 127,
      "chip": "ym2612"
    },
    {
      "channel": 3,
      "note": 47,
      "start": 16.2383,
      "duration": 0.0811,
      "velocity": 127,
      "chip": "ym2612"
    },
    {
      "channel": 3,
      "note": 47,
      "start": 16.3498,
      "duration": 0.0811,
      "velocity": 127,
      "chip": "ym2612"
    },
    {
      "channel": 3,
      "note": 47,
      "start": 16.4616,
      "duration": 0.0811,
      "velocity": 127,
      "chip": "ym2612"
    },
    {
      "channel": 1,
      "note": 75,
      "start": 16.5702,
      "duration": 0.6423,
      "velocity": 106,
      "chip": "ym2612"
    },
    {
      "channel": 2,
      "note": 56,
      "start": 16.5707,
      "duration": 0.6421,
      "velocity": 106,
      "chip": "ym2612"
    },
    {
      "channel": 3,
      "note": 47,
      "start": 16.5743,
      "duration": 0.1359,
      "velocity": 127,
      "chip": "ym2612"
    },
    {
      "channel": 3,
      "note": 47,
      "start": 16.7413,
      "duration": 0.1366,
      "velocity": 127,
      "chip": "ym2612"
    },
    {
      "channel": 3,
      "note": 47,
      "start": 16.9089,
      "duration": 0.1365,
      "velocity": 127,
      "chip": "ym2612"
    },
    {
      "channel": 4,
      "note": 76,
      "start": 16.9095,
      "duration": 0.639,
      "velocity": 106,
      "chip": "ym2612"
    },
    {
      "channel": 3,
      "note": 47,
      "start": 17.0764,
      "duration": 0.1368,
      "velocity": 127,
      "chip": "ym2612"
    },
    {
      "channel": 0,
      "note": 42,
      "start": 17.2407,
      "duration": 1.3124,
      "velocity": 103,
      "chip": "ym2612"
    },
    {
      "channel": 1,
      "note": 73,
      "start": 17.2412,
      "duration": 1.3122,
      "velocity": 106,
      "chip": "ym2612"
    },
    {
      "channel": 2,
      "note": 57,
      "start": 17.2417,
      "duration": 1.312,
      "velocity": 106,
      "chip": "ym2612"
    },
    {
      "channel": 3,
      "note": 47,
      "start": 17.2453,
      "duration": 0.3029,
      "velocity": 127,
      "chip": "ym2612"
    },
    {
      "channel": 3,
      "note": 47,
      "start": 17.5789,
      "duration": 0.081,
      "velocity": 127,
      "chip": "ym2612"
    },
    {
      "channel": 4,
      "note": 75,
      "start": 17.5796,
      "duration": 1.3099,
      "velocity": 106,
      "chip": "ym2612"
    },
    {
      "channel": 3,
      "note": 47,
      "start": 17.691,
      "duration": 0.0806,
      "velocity": 127,
      "chip": "ym2612"
    },
    {
      "channel": 3,
      "note": 47,
      "start": 17.8024,
      "duration": 0.0811,
      "velocity": 127,
      "chip": "ym2612"
    },
    {
      "channel": 3,
      "note": 47,
      "start": 17.9142,
      "duration": 0.3045,
      "velocity": 127,
      "chip": "ym2612"
    },
    {
      "channel": 3,
      "note": 47,
      "start": 18.2494,
      "duration": 0.0811,
      "velocity": 127,
      "chip": "ym2612"
    },
    {
      "channel": 3,
      "note": 47,
      "start": 18.3615,
      "duration": 0.0812,
      "velocity": 127,
      "chip": "ym2612"
    },
    {
      "channel": 3,
      "note": 47,
      "start": 18.4729,
      "duration": 0.0812,
      "velocity": 127,
      "chip": "ym2612"
    },
    {
      "channel": 0,
      "note": 38,
      "start": 18.5812,
      "duration": 1.3129,
      "velocity": 103,
      "chip": "ym2612"
    },
    {
      "channel": 1,
      "note": 71,
      "start": 18.5818,
      "duration": 1.3127,
      "velocity": 106,
      "chip": "ym2612"
    },
    {
      "channel": 2,
      "note": 57,
      "start": 18.5823,
      "duration": 1.3124,
      "velocity": 106,
      "chip": "ym2612"
    },
    {
      "channel": 3,
      "note": 47,
      "start": 18.5854,
      "duration": 0.3036,
      "velocity": 127,
      "chip": "ym2612"
    },
    {
      "channel": 3,
      "note": 47,
      "start": 18.9198,
      "duration": 0.081,
      "velocity": 127,
      "chip": "ym2612"
    },
    {
      "channel": 4,
      "note": 73,
      "start": 18.9204,
      "duration": 1.3098,
      "velocity": 106,
      "chip": "ym2612"
    },
    {
      "channel": 3,
      "note": 47,
      "start": 19.0315,
      "duration": 0.081,
      "velocity": 127,
      "chip": "ym2612"
    },
    {
      "channel": 3,
      "note": 47,
      "start": 19.1437,
      "duration": 0.0807,
      "velocity": 127,
      "chip": "ym2612"
    },
    {
      "channel": 3,
      "note": 47,
      "start": 19.2551,
      "duration": 0.137,
      "velocity": 127,
      "chip": "ym2612"
    },
    {
      "channel": 3,
      "note": 47,
      "start": 19.4227,
      "duration": 0.1373,
      "velocity": 127,
      "chip": "ym2612"
    },
    {
      "channel": 3,
      "note": 47,
      "start": 19.5903,
      "duration": 0.1372,
      "velocity": 127,
      "chip": "ym2612"
    },
    {
      "channel": 3,
      "note": 47,
      "start": 19.7579,
      "duration": 0.1372,
      "velocity": 127,
      "chip": "ym2612"
    },
    {
      "channel": 0,
      "note": 42,
      "start": 19.9221,
      "duration": 3.8496,
      "velocity": 103,
      "chip": "ym2612"
    },
    {
      "channel": 1,
      "note": 73,
      "start": 19.9226,
      "duration": 3.5958,
      "velocity": 106,
      "chip": "ym2612"
    },
    {
      "channel": 2,
      "note": 57,
      "start": 19.9232,
      "duration": 3.5956,
      "velocity": 106,
      "chip": "ym2612"
    },
    {
      "channel": 3,
      "note": 47,
      "start": 19.9272,
      "duration": 0.3027,
      "velocity": 127,
      "chip": "ym2612"
    },
    {
      "channel": 3,
      "note": 47,
      "start": 20.261,
      "duration": 0.0806,
      "velocity": 127,
      "chip": "ym2612"
    },
    {
      "channel": 4,
      "note": 71,
      "start": 20.2617,
      "duration": 3.47,
      "velocity": 106,
      "chip": "ym2612"
    },
    {
      "channel": 3,
      "note": 47,
      "start": 20.3724,
      "duration": 0.0811,
      "velocity": 127,
      "chip": "ym2612"
    },
    {
      "channel": 3,
      "note": 47,
      "start": 20.4841,
      "duration": 0.0812,
      "velocity": 127,
      "chip": "ym2612"
    },
    {
      "channel": 3,
      "note": 47,
      "start": 20.5965,
      "duration": 0.3039,
      "velocity": 127,
      "chip": "ym2612"
    },
    {
      "channel": 3,
      "note": 47,
      "start": 20.9314,
      "duration": 0.0811,
      "velocity": 127,
      "chip": "ym2612"
    },
    {
      "channel": 3,
      "note": 47,
      "start": 21.0429,
      "duration": 0.0812,
      "velocity": 127,
      "chip": "ym2612"
    },
    {
      "channel": 3,
      "note": 47,
      "start": 21.1546,
      "duration": 0.081,
      "velocity": 127,
      "chip": "ym2612"
    },
    {
      "channel": 3,
      "note": 47,
      "start": 21.2663,
      "duration": 0.3046,
      "velocity": 127,
      "chip": "ym2612"
    },
    {
      "channel": 3,
      "note": 47,
      "start": 21.6016,
      "duration": 0.0812,
      "velocity": 127,
      "chip": "ym2612"
    },
    {
      "channel": 3,
      "note": 47,
      "start": 21.7137,
      "duration": 0.0807,
      "velocity": 127,
      "chip": "ym2612"
    },
    {
      "channel": 3,
      "note": 47,
      "start": 21.8251,
      "duration": 0.0811,
      "velocity": 127,
      "chip": "ym2612"
    },
    {
      "channel": 3,
      "note": 47,
      "start": 21.9368,
      "duration": 0.0149,
      "velocity": 127,
      "chip": "ym2612"
    },
    {
      "channel": 3,
      "note": 47,
      "start": 21.9589,
      "duration": 0.0146,
      "velocity": 127,
      "chip": "ym2612"
    },
    {
      "channel": 3,
      "note": 47,
      "start": 21.9794,
      "duration": 0.0144,
      "velocity": 127,
      "chip": "ym2612"
    },
    {
      "channel": 3,
      "note": 47,
      "start": 21.9998,
      "duration": 0.0143,
      "velocity": 127,
      "chip": "ym2612"
    },
    {
      "channel": 3,
      "note": 47,
      "start": 22.0204,
      "duration": 0.03,
      "velocity": 127,
      "chip": "ym2612"
    },
    {
      "channel": 3,
      "note": 47,
      "start": 22.056,
      "duration": 0.0085,
      "velocity": 127,
      "chip": "ym2612"
    },
    {
      "channel": 3,
      "note": 47,
      "start": 22.0699,
      "duration": 0.0088,
      "velocity": 127,
      "chip": "ym2612"
    },
    {
      "channel": 3,
      "note": 47,
      "start": 22.0975,
      "duration": 0.0807,
      "velocity": 127,
      "chip": "ym2612"
    },
    {
      "channel": 3,
      "note": 47,
      "start": 22.2088,
      "duration": 0.3048,
      "velocity": 127,
      "chip": "ym2612"
    },
    {
      "channel": 3,
      "note": 47,
      "start": 22.544,
      "duration": 0.0811,
      "velocity": 127,
      "chip": "ym2612"
    },
    {
      "channel": 3,
      "note": 47,
      "start": 22.6558,
      "duration": 0.0811,
      "velocity": 127,
      "chip": "ym2612"
    },
    {
      "channel": 3,
      "note": 47,
      "start": 22.7675,
      "duration": 0.0812,
      "velocity": 127,
      "chip": "ym2612"
    },
    {
      "channel": 3,
      "note": 47,
      "start": 22.8794,
      "duration": 0.3044,
      "velocity": 127,
      "chip": "ym2612"
    },
    {
      "channel": 3,
      "note": 47,
      "start": 23.2149,
      "duration": 0.0806,
      "velocity": 127,
      "chip": "ym2612"
    },
    {
      "channel": 3,
      "note": 47,
      "start": 23.3262,
      "duration": 0.0812,
      "velocity": 127,
      "chip": "ym2612"
    },
    {
      "channel": 3,
      "note": 47,
      "start": 23.4379,
      "duration": 0.0811,
      "velocity": 127,
      "chip": "ym2612"
    },
    {
      "channel": 1,
      "note": 73,
      "start": 23.5467,
      "duration": 0.2253,
      "velocity": 106,
      "chip": "ym2612"
    },
    {
      "channel": 2,
      "note": 57,
      "start": 23.5472,
      "duration": 0.2251,
      "velocity": 106,
      "chip": "ym2612"
    },
    {
      "channel": 3,
      "note": 47,
      "start": 23.5507,
      "duration": 0.1359,
      "velocity": 127,
      "chip": "ym2612"
    },
    {
      "channel": 3,
      "note": 47,
      "start": 23.7176,
      "duration": 0.0137,
      "velocity": 127,
      "chip": "ym2612"
    },
    {
      "channel": 3,
      "note": 47,
      "start": 23.738,
      "duration": 0.0138,
      "velocity": 127,
      "chip": "ym2612"
    },
    {
      "channel": 4,
      "note": 73,
      "start": 23.7388,
      "duration": 0.0703,
      "velocity": 106,
      "chip": "ym2612"
    },
    {
      "channel": 3,
      "note": 47,
      "start": 23.7592,
      "duration": 0.0135,
      "velocity": 127,
      "chip": "ym2612"
    },
    {
      "channel": 0,
      "note": 38,
      "start": 23.7757,
      "duration": 2.0295,
      "velocity": 103,
      "chip": "ym2612"
    },
    {
      "channel": 1,
      "note": 73,
      "start": 23.7763,
      "duration": 2.0293,
      "velocity": 106,
      "chip": "ym2612"
    },
    {
      "channel": 2,
      "note": 66,
      "start": 23.7768,
      "duration": 1.3587,
      "velocity": 106,
      "chip": "ym2612"
    },
    {
      "channel": 3,
      "note": 47,
      "start": 23.7804,
      "duration": 0.0283,
      "velocity": 127,
      "chip": "ym2612"
    },
    {
      "channel": 3,
      "note": 47,
      "start": 23.8142,
      "duration": 0.0084,
      "velocity": 127,
      "chip": "ym2612"
    },
    {
      "channel": 4,
      "note": 73,
      "start": 23.8148,
      "duration": 2.3267,
      "velocity": 106,
      "chip": "ym2612"
    },
    {
      "channel": 3,
      "note": 47,
      "start": 23.8282,
      "duration": 0.0076,
      "velocity": 127,
      "chip": "ym2612"
    },
    {
      "channel": 3,
      "note": 47,
      "start": 23.8415,
      "duration": 0.0081,
      "velocity": 127,
      "chip": "ym2612"
    },
    {
      "channel": 3,
      "note": 47,
      "start": 23.8551,
      "duration": 0.275,
      "velocity": 127,
      "chip": "ym2612"
    },
    {
      "channel": 3,
      "note": 47,
      "start": 24.1607,
      "duration": 0.0811,
      "velocity": 127,
      "chip": "ym2612"
    },
    {
      "channel": 3,
      "note": 47,
      "start": 24.2724,
      "duration": 0.0812,
      "velocity": 127,
      "chip": "ym2612"
    },
    {
      "channel": 3,
      "note": 47,
      "start": 24.3843,
      "duration": 0.081,
      "velocity": 127,
      "chip": "ym2612"
    },
    {
      "channel": 3,
      "note": 47,
      "start": 24.4959,
      "duration": 0.3045,
      "velocity": 127,
      "chip": "ym2612"
    },
    {
      "channel": 3,
      "note": 47,
      "start": 24.8312,
      "duration": 0.0812,
      "velocity": 127,
      "chip": "ym2612"
    },
    {
      "channel": 3,
      "note": 47,
      "start": 24.9429,
      "duration": 0.0811,
      "velocity": 127,
      "chip": "ym2612"
    },
    {
      "channel": 3,
      "note": 47,
      "start": 25.055,
      "duration": 0.0811,
      "velocity": 127,
      "chip": "ym2612"
    },
    {
      "channel": 2,
      "note": 68,
      "start": 25.1635,
      "duration": 0.6423,
      "velocity": 106,
      "chip": "ym2612"
    },
    {
      "channel": 3,
      "note": 47,
      "start": 25.1666,
      "duration": 0.1369,
      "velocity": 127,
      "chip": "ym2612"
    },
    {
      "channel": 3,
      "note": 47,
      "start": 25.3339,
      "duration": 0.1371,
      "velocity": 127,
      "chip": "ym2612"
    },
    {
      "channel": 3,
      "note": 47,
      "start": 25.5015,
      "duration": 0.1369,
      "velocity": 127,
      "chip": "ym2612"
    },
    {
      "channel": 3,
      "note": 47,
      "start": 25.6693,
      "duration": 0.1369,
      "velocity": 127,
      "chip": "ym2612"
    },
    {
      "channel": 0,
      "note": 50,
      "start": 25.8334,
      "duration": 2.0928,
      "velocity": 103,
      "chip": "ym2612"
    },
    {
      "channel": 1,
      "note": 78,
      "start": 25.834,
      "duration": 1.3124,
      "velocity": 106,
      "chip": "ym2612"
    },
    {
      "channel": 2,
      "note": 69,
      "start": 25.8345,
      "duration": 1.3122,
      "velocity": 106,
      "chip": "ym2612"
    },
    {
      "channel": 3,
      "note": 47,
      "start": 25.8385,
      "duration": 0.3027,
      "velocity": 127,
      "chip": "ym2612"
    },
    {
      "channel": 3,
      "note": 47,
      "start": 26.1723,
      "duration": 0.0808,
      "velocity": 127,
      "chip": "ym2612"
    },
    {
      "channel": 4,
      "note": 73,
      "start": 26.173,
      "duration": 1.3095,
      "velocity": 106,
      "chip": "ym2612"
    },
    {
      "channel": 3,
      "note": 47,
      "start": 26.2836,
      "duration": 0.0811,
      "velocity": 127,
      "chip": "ym2612"
    },
    {
      "channel": 3,
      "note": 47,
      "start": 26.3954,
      "duration": 0.0812,
      "velocity": 127,
      "chip": "ym2612"
    },
    {
      "channel": 3,
      "note": 47,
      "start": 26.5075,
      "duration": 0.3042,
      "velocity": 127,
      "chip": "ym2612"
    },
    {
      "channel": 3,
      "note": 47,
      "start": 26.8424,
      "duration": 0.0811,
      "velocity": 127,
      "chip": "ym2612"
    },
    {
      "channel": 3,
      "note": 47,
      "start": 26.9543,
      "duration": 0.0811,
      "velocity": 127,
      "chip": "ym2612"
    },
    {
      "channel": 3,
      "note": 47,
      "start": 27.0659,
      "duration": 0.0812,
      "velocity": 127,
      "chip": "ym2612"
    },
    {
      "channel": 1,
      "note": 76,
      "start": 27.1745,
      "duration": 0.752,
      "velocity": 106,
      "chip": "ym2612"
    },
    {
      "channel": 2,
      "note": 68,
      "start": 27.1751,
      "duration": 0.7518,
      "velocity": 106,
      "chip": "ym2612"
    },
    {
      "channel": 3,
      "note": 47,
      "start": 27.1782,
      "duration": 0.3039,
      "velocity": 127,
      "chip": "ym2612"
    },
    {
      "channel": 3,
      "note": 47,
      "start": 27.5128,
      "duration": 0.0812,
      "velocity": 127,
      "chip": "ym2612"
    },
    {
      "channel": 4,
      "note": 78,
      "start": 27.5134,
      "duration": 0.4528,
      "velocity": 106,
      "chip": "ym2612"
    },
    {
      "channel": 3,
      "note": 47,
      "start": 27.6251,
      "duration": 0.0811,
      "velocity": 127,
      "chip": "ym2612"
    },
    {
      "channel": 3,
      "note": 47,
      "start": 27.7363,
      "duration": 0.0811,
      "velocity": 127,
      "chip": "ym2612"
    },
    {
      "channel": 3,
      "note": 47,
      "start": 27.8481,
      "duration": 0.0144,
      "velocity": 127,
      "chip": "ym2612"
    },
    {
      "channel": 3,
      "note": 47,
      "start": 27.8701,
      "duration": 0.0139,
      "velocity": 127,
      "chip": "ym2612"
    },
    {
      "channel": 3,
      "note": 47,
      "start": 27.8915,
      "duration": 0.0139,
      "velocity": 127,
      "chip": "ym2612"
    },
    {
      "channel": 3,
      "note": 47,
      "start": 27.9127,
      "duration": 0.0145,
      "velocity": 127,
      "chip": "ym2612"
    },
    {
      "channel": 0,
      "note": 47,
      "start": 27.9311,
      "duration": 2.1497,
      "velocity": 103,
      "chip": "ym2612"
    },
    {
      "channel": 1,
      "note": 76,
      "start": 27.9316,
      "duration": 0.0174,
      "velocity": 106,
      "chip": "ym2612"
    },
    {
      "channel": 2,
      "note": 66,
      "start": 27.9322,
      "duration": 0.1381,
      "velocity": 106,
      "chip": "ym2612"
    },
    {
      "channel": 3,
      "note": 47,
      "start": 27.9357,
      "duration": 0.0301,
      "velocity": 127,
      "chip": "ym2612"
    },
    {
      "channel": 1,
      "note": 74,
      "start": 27.9522,
      "duration": 0.013,
      "velocity": 106,
      "chip": "ym2612"
    },
    {
      "channel": 1,
      "note": 73,
      "start": 27.9684,
      "duration": 0.0194,
      "velocity": 106,
      "chip": "ym2612"
    },
    {
      "channel": 3,
      "note": 47,
      "start": 27.9718,
      "duration": 0.0085,
      "velocity": 127,
      "chip": "ym2612"
    },
    {
      "channel": 4,
      "note": 76,
      "start": 27.9724,
      "duration": 0.0165,
      "velocity": 106,
      "chip": "ym2612"
    },
    {
      "channel": 3,
      "note": 47,
      "start": 27.9855,
      "duration": 0.0088,
      "velocity": 127,
      "chip": "ym2612"
    },
    {
      "channel": 1,
      "note": 74,
      "start": 27.9908,
      "duration": 2.0903,
      "velocity": 106,
      "chip": "ym2612"
    },
    {
      "channel": 4,
      "note": 76,
      "start": 27.9919,
      "duration": 0.0791,
      "velocity": 106,
      "chip": "ym2612"
    },
    {
      "channel": 3,
      "note": 47,
      "start": 27.9999,
      "duration": 0.0707,
      "velocity": 127,
      "chip": "ym2612"
    },
    {
      "channel": 2,
      "note": 64,
      "start": 28.0981,
      "duration": 0.1395,
      "velocity": 106,
      "chip": "ym2612"
    },
    {
      "channel": 3,
      "note": 47,
      "start": 28.1013,
      "duration": 0.3043,
      "velocity": 127,
      "chip": "ym2612"
    },
    {
      "channel": 4,
      "note": 74,
      "start": 28.1021,
      "duration": 0.1362,
      "velocity": 106,
      "chip": "ym2612"
    },
    {
      "channel": 2,
      "note": 62,
      "start": 28.2658,
      "duration": 0.1395,
      "velocity": 106,
      "chip": "ym2612"
    },
    {
      "channel": 4,
      "note": 73,
      "start": 28.2667,
      "duration": 1.8775,
      "velocity": 106,
      "chip": "ym2612"
    },
    {
      "channel": 2,
      "note": 61,
      "start": 28.4334,
      "duration": 0.1395,
      "velocity": 106,
      "chip": "ym2612"
    },
    {
      "channel": 3,
      "note": 47,
      "start": 28.4366,
      "duration": 0.0806,
      "velocity": 127,
      "chip": "ym2612"
    },
    {
      "channel": 3,
      "note": 47,
      "start": 28.5479,
      "duration": 0.0812,
      "velocity": 127,
      "chip": "ym2612"
    },
    {
      "channel": 2,
      "note": 62,
      "start": 28.601,
      "duration": 0.1395,
      "velocity": 106,
      "chip": "ym2612"
    },
    {
      "channel": 3,
      "note": 47,
      "start": 28.6597,
      "duration": 0.0811,
      "velocity": 127,
      "chip": "ym2612"
    },
    {
      "channel": 2,
      "note": 66,
      "start": 28.7686,
      "duration": 1.3128,
      "velocity": 106,
      "chip": "ym2612"
    },
    {
      "channel": 3,
      "note": 47,
      "start": 28.7723,
      "duration": 0.3037,
      "velocity": 127,
      "chip": "ym2612"
    },
    {
      "channel": 3,
      "note": 47,
      "start": 29.1072,
      "duration": 0.081,
      "velocity": 127,
      "chip": "ym2612"
    },
    {
      "channel": 3,
      "note": 47,
      "start": 29.2184,
      "duration": 0.081,
      "velocity": 127,
      "chip": "ym2612"
    },
    {
      "channel": 3,
      "note": 47,
      "start": 29.3301,
      "duration": 0.0811,
      "velocity": 127,
      "chip": "ym2612"
    },
    {
      "channel": 3,
      "note": 47,
      "start": 29.4423,
      "duration": 0.1366,
      "velocity": 127,
      "chip": "ym2612"
    },
    {
      "channel": 3,
      "note": 47,
      "start": 29.6095,
      "duration": 0.137,
      "velocity": 127,
      "chip": "ym2612"
    },
    {
      "channel": 3,
      "note": 47,
      "start": 29.7771,
      "duration": 0.1369,
      "velocity": 127,
      "chip": "ym2612"
    },
    {
      "channel": 3,
      "note": 47,
      "start": 29.9447,
      "duration": 0.137,
      "velocity": 127,
      "chip": "ym2612"
    },
    {
      "channel": 0,
      "note": 49,
      "start": 30.109,
      "duration": 1.7015,
      "velocity": 103,
      "chip": "ym2612"
    },
    {
      "channel": 1,
      "note": 73,
      "start": 30.1095,
      "duration": 0.8371,
      "velocity": 106,
      "chip": "ym2612"
    },
    {
      "channel": 2,
      "note": 66,
      "start": 30.11,
      "duration": 1.5073,
      "velocity": 106,
      "chip": "ym2612"
    },
    {
      "channel": 3,
      "note": 47,
      "start": 30.1136,
      "duration": 0.0302,
      "velocity": 127,
      "chip": "ym2612"
    },
    {
      "channel": 3,
      "note": 47,
      "start": 30.1492,
      "duration": 0.0082,
      "velocity": 127,
      "chip": "ym2612"
    },
    {
      "channel": 4,
      "note": 74,
      "start": 30.1499,
      "duration": 1.1333,
      "velocity": 106,
      "chip": "ym2612"
    },
    {
      "channel": 3,
      "note": 47,
      "start": 30.163,
      "duration": 0.0078,
      "velocity": 127,
      "chip": "ym2612"
    },
    {
      "channel": 3,
      "note": 47,
      "start": 30.1956,
      "duration": 0.0812,
      "velocity": 127,
      "chip": "ym2612"
    },
    {
      "channel": 3,
      "note": 47,
      "start": 30.3074,
      "duration": 0.3045,
      "velocity": 127,
      "chip": "ym2612"
    },
    {
      "channel": 3,
      "note": 47,
      "start": 30.6427,
      "duration": 0.0811,
      "velocity": 127,
      "chip": "ym2612"
    },
    {
      "channel": 3,
      "note": 47,
      "start": 30.7544,
      "duration": 0.0812,
      "velocity": 127,
      "chip": "ym2612"
    },
    {
      "channel": 3,
      "note": 47,
      "start": 30.8666,
      "duration": 0.0806,
      "velocity": 127,
      "chip": "ym2612"
    },
    {
      "channel": 1,
      "note": 71,
      "start": 30.9748,
      "duration": 0.836,
      "velocity": 106,
      "chip": "ym2612"
    },
    {
      "channel": 3,
      "note": 47,
      "start": 30.9782,
      "duration": 0.3046,
      "velocity": 127,
      "chip": "ym2612"
    },
    {
      "channel": 3,
      "note": 47,
      "start": 31.3131,
      "duration": 0.0811,
      "velocity": 127,
      "chip": "ym2612"
    },
    {
      "channel": 4,
      "note": 73,
      "start": 31.3137,
      "duration": 0.5602,
      "velocity": 106,
      "chip": "ym2612"
    },
    {
      "channel": 3,
      "note": 47,
      "start": 31.4248,
      "duration": 0.0811,
      "velocity": 127,
      "chip": "ym2612"
    },
    {
      "channel": 3,
      "note": 47,
      "start": 31.5368,
      "duration": 0.0808,
      "velocity": 127,
      "chip": "ym2612"
    },
    {
      "channel": 2,
      "note": 65,
      "start": 31.6455,
      "duration": 0.1656,
      "velocity": 106,
      "chip": "ym2612"
    },
    {
      "channel": 3,
      "note": 47,
      "start": 31.6487,
      "duration": 0.0141,
      "velocity": 127,
      "chip": "ym2612"
    },
    {
      "channel": 3,
      "note": 47,
      "start": 31.6684,
      "duration": 0.0134,
      "velocity": 127,
      "chip": "ym2612"
    },
    {
      "channel": 3,
      "note": 47,
      "start": 31.6878,
      "duration": 0.0132,
      "velocity": 127,
      "chip": "ym2612"
    },
    {
      "channel": 3,
      "note": 47,
      "start": 31.7068,
      "duration": 0.1046,
      "velocity": 127,
      "chip": "ym2612"
    },
    {
      "channel": 0,
      "note": 42,
      "start": 31.8389,
      "duration": 0.0207,
      "velocity": 103,
      "chip": "ym2612"
    },
    {
      "channel": 3,
      "note": 47,
      "start": 31.8436,
      "duration": 0.03,
      "velocity": 127,
      "chip": "ym2612"
    },
    {
      "channel": 3,
      "note": 47,
      "start": 31.8793,
      "duration": 0.0079,
      "velocity": 127,
      "chip": "ym2612"
    },
    {
      "channel": 3,
      "note": 47,
      "start": 31.8925,
      "duration": 0.0076,
      "velocity": 127,
      "chip": "ym2612"
    },
    {
      "channel": 3,
      "note": 47,
      "start": 31.9204,
      "duration": 0.0812,
      "velocity": 127,
      "chip": "ym2612"
    },
    {
      "channel": 0,
      "note": 42,
      "start": 32.0289,
      "duration": 0.0189,
      "velocity": 103,
      "chip": "ym2612"
    },
    {
      "channel": 3,
      "note": 47,
      "start": 32.0326,
      "duration": 0.0289,
      "velocity": 127,
      "chip": "ym2612"
    },
    {
      "channel": 3,
      "note": 47,
      "start": 32.067,
      "duration": 0.0079,
      "velocity": 127,
      "chip": "ym2612"
    },
    {
      "channel": 3,
      "note": 47,
      "start": 32.0807,
      "duration": 0.0079,
      "velocity": 127,
      "chip": "ym2612"
    },
    {
      "channel": 3,
      "note": 47,
      "start": 32.1098,
      "duration": 0.0811,
      "velocity": 127,
      "chip": "ym2612"
    },
    {
      "channel": 0,
      "note": 42,
      "start": 32.2182,
      "duration": 0.02,
      "velocity": 103,
      "chip": "ym2612"
    },
    {
      "channel": 3,
      "note": 47,
      "start": 32.2218,
      "duration": 0.0307,
      "velocity": 127,
      "chip": "ym2612"
    },
    {
      "channel": 3,
      "note": 47,
      "start": 32.258,
      "duration": 0.0081,
      "velocity": 127,
      "chip": "ym2612"
    },
    {
      "channel": 3,
      "note": 47,
      "start": 32.2717,
      "duration": 0.0079,
      "velocity": 127,
      "chip": "ym2612"
    },
    {
      "channel": 3,
      "note": 47,
      "start": 32.3,
      "duration": 0.0811,
      "velocity": 127,
      "chip": "ym2612"
    },
    {
      "channel": 0,
      "note": 42,
      "start": 32.4084,
      "duration": 0.0115,
      "velocity": 103,
      "chip": "ym2612"
    },
    {
      "channel": 3,
      "note": 47,
      "start": 32.4121,
      "duration": 0.0151,
      "velocity": 127,
      "chip": "ym2612"
    },
    {
      "channel": 0,
      "note": 42,
      "start": 32.4296,
      "duration": 0.0115,
      "velocity": 103,
      "chip": "ym2612"
    },
    {
      "channel": 3,
      "note": 47,
      "start": 32.4333,
      "duration": 0.015,
      "velocity": 127,
      "chip": "ym2612"
    },
    {
      "channel": 0,
      "note": 47,
      "start": 32.4511,
      "duration": 0.0119,
      "velocity": 103,
      "chip": "ym2612"
    },
    {
      "channel": 3,
      "note": 47,
      "start": 32.4548,
      "duration": 0.0154,
      "velocity": 127,
      "chip": "ym2612"
    },
    {
      "channel": 0,
      "note": 47,
      "start": 32.4733,
      "duration": 0.0118,
      "velocity": 103,
      "chip": "ym2612"
    },
    {
      "channel": 3,
      "note": 47,
      "start": 32.477,
      "duration": 0.0156,
      "velocity": 127,
      "chip": "ym2612"
    },
    {
      "channel": 0,
      "note": 42,
      "start": 32.4957,
      "duration": 0.021,
      "velocity": 103,
      "chip": "ym2612"
    },
    {
      "channel": 3,
      "note": 47,
      "start": 32.5,
      "duration": 0.0306,
      "velocity": 127,
      "chip": "ym2612"
    },
    {
      "channel": 3,
      "note": 47,
      "start": 32.5359,
      "duration": 0.0083,
      "velocity": 127,
      "chip": "ym2612"
    },
    {
      "channel": 3,
      "note": 47,
      "start": 32.5496,
      "duration": 0.0075,
      "velocity": 127,
      "chip": "ym2612"
    },
    {
      "channel": 3,
      "note": 47,
      "start": 32.5774,
      "duration": 0.0812,
      "velocity": 127,
      "chip": "ym2612"
    },
    {
      "channel": 0,
      "note": 42,
      "start": 32.6859,
      "duration": 0.0193,
      "velocity": 103,
      "chip": "ym2612"
    },
    {
      "channel": 3,
      "note": 47,
      "start": 32.6897,
      "duration": 0.0295,
      "velocity": 127,
      "chip": "ym2612"
    },
    {
      "channel": 3,
      "note": 47,
      "start": 32.7249,
      "duration": 0.0077,
      "velocity": 127,
      "chip": "ym2612"
    },
    {
      "channel": 3,
      "note": 47,
      "start": 32.7384,
      "duration": 0.0083,
      "velocity": 127,
      "chip": "ym2612"
    },
    {
      "channel": 3,
      "note": 47,
      "start": 32.7671,
      "duration": 0.0811,
      "velocity": 127,
      "chip": "ym2612"
    },
    {
      "channel": 0,
      "note": 42,
      "start": 32.8756,
      "duration": 0.02,
      "velocity": 103,
      "chip": "ym2612"
    },
    {
      "channel": 3,
      "note": 47,
      "start": 32.8795,
      "duration": 0.0302,
      "velocity": 127,
      "chip": "ym2612"
    },
    {
      "channel": 3,
      "note": 47,
      "start": 32.9153,
      "duration": 0.0078,
      "velocity": 127,
      "chip": "ym2612"
    },
    {
      "channel": 3,
      "note": 47,
      "start": 32.9284,
      "duration": 0.0083,
      "velocity": 127,
      "chip": "ym2612"
    },
    {
      "channel": 3,
      "note": 47,
      "start": 32.9567,
      "duration": 0.0812,
      "velocity": 127,
      "chip": "ym2612"
    },
    {
      "channel": 0,
      "note": 42,
      "start": 33.0652,
      "duration": 0.0118,
      "velocity": 103,
      "chip": "ym2612"
    },
    {
      "channel": 1,
      "note": 66,
      "start": 33.0657,
      "duration": 0.0828,
      "velocity": 106,
      "chip": "ym2612"
    },
    {
      "channel": 2,
      "note": 61,
      "start": 33.0662,
      "duration": 0.0826,
      "velocity": 106,
      "chip": "ym2612"
    },
    {
      "channel": 3,
      "note": 47,
      "start": 33.0694,
      "duration": 0.0151,
      "velocity": 127,
      "chip": "ym2612"
    },
    {
      "channel": 0,
      "note": 42,
      "start": 33.0865,
      "duration": 0.0112,
      "velocity": 103,
      "chip": "ym2612"
    },
    {
      "channel": 3,
      "note": 47,
      "start": 33.0901,
      "duration": 0.0151,
      "velocity": 127,
      "chip": "ym2612"
    },
    {
      "channel": 0,
      "note": 47,
      "start": 33.1083,
      "duration": 0.012,
      "velocity": 103,
      "chip": "ym2612"
    },
    {
      "channel": 3,
      "note": 47,
      "start": 33.1119,
      "duration": 0.0157,
      "velocity": 127,
      "chip": "ym2612"
    },
    {
      "channel": 4,
      "note": 71,
      "start": 33.1127,
      "duration": 0.0743,
      "velocity": 106,
      "chip": "ym2612"
    },
    {
      "channel": 0,
      "note": 47,
      "start": 33.1303,
      "duration": 0.0115,
      "velocity": 103,
      "chip": "ym2612"
    },
    {
      "channel": 3,
      "note": 47,
      "start": 33.1339,
      "duration": 0.0153,
      "velocity": 127,
      "chip": "ym2612"
    },
    {
      "channel": 0,
      "note": 42,
      "start": 33.1526,
      "duration": 0.0207,
      "velocity": 103,
      "chip": "ym2612"
    },
    {
      "channel": 1,
      "note": 76,
      "start": 33.1531,
      "duration": 0.5399,
      "velocity": 106,
      "chip": "ym2612"
    },
    {
      "channel": 2,
      "note": 69,
      "start": 33.1537,
      "duration": 0.5396,
      "velocity": 106,
      "chip": "ym2612"
    },
    {
      "channel": 3,
      "note": 47,
      "start": 33.1573,
      "duration": 0.0294,
      "velocity": 127,
      "chip": "ym2612"
    },
    {
      "channel": 3,
      "note": 47,
      "start": 33.1921,
      "duration": 0.0079,
      "velocity": 127,
      "chip": "ym2612"
    },
    {
      "channel": 4,
      "note": 66,
      "start": 33.1927,
      "duration": 0.5694,
      "velocity": 106,
      "chip": "ym2612"
    },
    {
      "channel": 3,
      "note": 47,
      "start": 33.2052,
      "duration": 0.0076,
      "velocity": 127,
      "chip": "ym2612"
    },
    {
      "channel": 3,
      "note": 47,
      "start": 33.2333,
      "duration": 0.081,
      "velocity": 127,
      "chip": "ym2612"
    },
    {
      "channel": 0,
      "note": 42,
      "start": 33.3416,
      "duration": 0.0191,
      "velocity": 103,
      "chip": "ym2612"
    },
    {
      "channel": 3,
      "note": 47,
      "start": 33.3453,
      "duration": 0.0295,
      "velocity": 127,
      "chip": "ym2612"
    },
    {
      "channel": 3,
      "note": 47,
      "start": 33.3805,
      "duration": 0.0082,
      "velocity": 127,
      "chip": "ym2612"
    },
    {
      "channel": 3,
      "note": 47,
      "start": 33.3941,
      "duration": 0.0083,
      "velocity": 127,
      "chip": "ym2612"
    },
    {
      "channel": 3,
      "note": 47,
      "start": 33.4235,
      "duration": 0.0811,
      "velocity": 127,
      "chip": "ym2612"
    },
    {
      "channel": 0,
      "note": 42,
      "start": 33.5315,
      "duration": 0.0202,
      "velocity": 103,
      "chip": "ym2612"
    },
    {
      "channel": 3,
      "note": 47,
      "start": 33.5351,
      "duration": 0.0306,
      "velocity": 127,
      "chip": "ym2612"
    },
    {
      "channel": 3,
      "note": 47,
      "start": 33.571,
      "duration": 0.0083,
      "velocity": 127,
      "chip": "ym2612"
    },
    {
      "channel": 3,
      "note": 47,
      "start": 33.5847,
      "duration": 0.0079,
      "velocity": 127,
      "chip": "ym2612"
    },
    {
      "channel": 3,
      "note": 47,
      "start": 33.6125,
      "duration": 0.0812,
      "velocity": 127,
      "chip": "ym2612"
    },
    {
      "channel": 0,
      "note": 42,
      "start": 33.721,
      "duration": 0.0122,
      "velocity": 103,
      "chip": "ym2612"
    },
    {
      "channel": 1,
      "note": 75,
      "start": 33.7215,
      "duration": 0.0836,
      "velocity": 106,
      "chip": "ym2612"
    },
    {
      "channel": 2,
      "note": 68,
      "start": 33.722,
      "duration": 0.0834,
      "velocity": 106,
      "chip": "ym2612"
    },
    {
      "channel": 3,
      "note": 47,
      "start": 33.7257,
      "duration": 0.0147,
      "velocity": 127,
      "chip": "ym2612"
    },
    {
      "channel": 0,
      "note": 42,
      "start": 33.7427,
      "duration": 0.0116,
      "velocity": 103,
      "chip": "ym2612"
    },
    {
      "channel": 3,
      "note": 47,
      "start": 33.7468,
      "duration": 0.015,
      "velocity": 127,
      "chip": "ym2612"
    },
    {
      "channel": 0,
      "note": 47,
      "start": 33.7648,
      "duration": 0.0118,
      "velocity": 103,
      "chip": "ym2612"
    },
    {
      "channel": 3,
      "note": 47,
      "start": 33.7689,
      "duration": 0.015,
      "velocity": 127,
      "chip": "ym2612"
    },
    {
      "channel": 4,
      "note": 76,
      "start": 33.7696,
      "duration": 0.0737,
      "velocity": 106,
      "chip": "ym2612"
    },
    {
      "channel": 0,
      "note": 47,
      "start": 33.787,
      "duration": 0.0115,
      "velocity": 103,
      "chip": "ym2612"
    },
    {
      "channel": 3,
      "note": 47,
      "start": 33.7909,
      "duration": 0.0149,
      "velocity": 127,
      "chip": "ym2612"
    },
    {
      "channel": 0,
      "note": 42,
      "start": 33.8095,
      "duration": 0.0203,
      "velocity": 103,
      "chip": "ym2612"
    },
    {
      "channel": 1,
      "note": 73,
      "start": 33.8101,
      "duration": 0.3504,
      "velocity": 106,
      "chip": "ym2612"
    },
    {
      "channel": 2,
      "note": 69,
      "start": 33.8106,
      "duration": 0.3502,
      "velocity": 106,
      "chip": "ym2612"
    },
    {
      "channel": 3,
      "note": 47,
      "start": 33.8142,
      "duration": 0.0287,
      "velocity": 127,
      "chip": "ym2612"
    },
    {
      "channel": 3,
      "note": 47,
      "start": 33.8484,
      "duration": 0.0078,
      "velocity": 127,
      "chip": "ym2612"
    },
    {
      "channel": 4,
      "note": 75,
      "start": 33.8491,
      "duration": 0.3729,
      "velocity": 106,
      "chip": "ym2612"
    },
    {
      "channel": 3,
      "note": 47,
      "start": 33.8615,
      "duration": 0.0078,
      "velocity": 127,
      "chip": "ym2612"
    },
    {
      "channel": 3,
      "note": 47,
      "start": 33.8893,
      "duration": 0.0812,
      "velocity": 127,
      "chip": "ym2612"
    },
    {
      "channel": 0,
      "note": 42,
      "start": 33.9978,
      "duration": 0.0194,
      "velocity": 103,
      "chip": "ym2612"
    },
    {
      "channel": 3,
      "note": 47,
      "start": 34.0014,
      "duration": 0.0302,
      "velocity": 127,
      "chip": "ym2612"
    },
    {
      "channel": 3,
      "note": 47,
      "start": 34.037,
      "duration": 0.0082,
      "velocity": 127,
      "chip": "ym2612"
    },
    {
      "channel": 3,
      "note": 47,
      "start": 34.0511,
      "duration": 0.0081,
      "velocity": 127,
      "chip": "ym2612"
    },
    {
      "channel": 3,
      "note": 47,
      "start": 34.08,
      "duration": 0.0812,
      "velocity": 127,
      "chip": "ym2612"
    },
    {
      "channel": 0,
      "note": 42,
      "start": 34.1884,
      "duration": 0.0198,
      "velocity": 103,
      "chip": "ym2612"
    },
    {
      "channel": 1,
      "note": 71,
      "start": 34.1889,
      "duration": 0.2734,
      "velocity": 106,
      "chip": "ym2612"
    },
    {
      "channel": 2,
      "note": 66,
      "start": 34.1895,
      "duration": 0.2731,
      "velocity": 106,
      "chip": "ym2612"
    },
    {
      "channel": 3,
      "note": 47,
      "start": 34.1926,
      "duration": 0.029,
      "velocity": 127,
      "chip": "ym2612"
    },
    {
      "channel": 3,
      "note": 47,
      "start": 34.2269,
      "duration": 0.0078,
      "velocity": 127,
      "chip": "ym2612"
    },
    {
      "channel": 4,
      "note": 73,
      "start": 34.2276,
      "duration": 0.2724,
      "velocity": 106,
      "chip": "ym2612"
    },
    {
      "channel": 3,
      "note": 47,
      "start": 34.24,
      "duration": 0.0075,
      "velocity": 127,
      "chip": "ym2612"
    },
    {
      "channel": 3,
      "note": 47,
      "start": 34.269,
      "duration": 0.0807,
      "velocity": 127,
      "chip": "ym2612"
    },
    {
      "channel": 0,
      "note": 42,
      "start": 34.3771,
      "duration": 0.0117,
      "velocity": 103,
      "chip": "ym2612"
    },
    {
      "channel": 3,
      "note": 47,
      "start": 34.3808,
      "duration": 0.0151,
      "velocity": 127,
      "chip": "ym2612"
    },
    {
      "channel": 0,
      "note": 42,
      "start": 34.3991,
      "duration": 0.0116,
      "velocity": 103,
      "chip": "ym2612"
    },
    {
      "channel": 3,
      "note": 47,
      "start": 34.4027,
      "duration": 0.0152,
      "velocity": 127,
      "chip": "ym2612"
    },
    {
      "channel": 0,
      "note": 47,
      "start": 34.4211,
      "duration": 0.0117,
      "velocity": 103,
      "chip": "ym2612"
    },
    {
      "channel": 3,
      "note": 47,
      "start": 34.4248,
      "duration": 0.0155,
      "velocity": 127,
      "chip": "ym2612"
    },
    {
      "channel": 0,
      "note": 47,
      "start": 34.4432,
      "duration": 0.0122,
      "velocity": 103,
      "chip": "ym2612"
    },
    {
      "channel": 3,
      "note": 47,
      "start": 34.4468,
      "duration": 0.0161,
      "velocity": 127,
      "chip": "ym2612"
    },
    {
      "channel": 0,
      "note": 42,
      "start": 34.4656,
      "duration": 0.0207,
      "velocity": 103,
      "chip": "ym2612"
    },
    {
      "channel": 1,
      "note": 73,
      "start": 34.4661,
      "duration": 1.0051,
      "velocity": 106,
      "chip": "ym2612"
    },
    {
      "channel": 2,
      "note": 69,
      "start": 34.4667,
      "duration": 1.0049,
      "velocity": 106,
      "chip": "ym2612"
    },
    {
      "channel": 3,
      "note": 47,
      "start": 34.4704,
      "duration": 0.0292,
      "velocity": 127,
      "chip": "ym2612"
    },
    {
      "channel": 3,
      "note": 47,
      "start": 34.505,
      "duration": 0.0082,
      "velocity": 127,
      "chip": "ym2612"
    },
    {
      "channel": 4,
      "note": 71,
      "start": 34.506,
      "duration": 1.0273,
      "velocity": 106,
      "chip": "ym2612"
    },
    {
      "channel": 3,
      "note": 47,
      "start": 34.5185,
      "duration": 0.0075,
      "velocity": 127,
      "chip": "ym2612"
    },
    {
      "channel": 3,
      "note": 47,
      "start": 34.5455,
      "duration": 0.0812,
      "velocity": 127,
      "chip": "ym2612"
    },
    {
      "channel": 0,
      "note": 42,
      "start": 34.6539,
      "duration": 0.0196,
      "velocity": 103,
      "chip": "ym2612"
    },
    {
      "channel": 3,
      "note": 47,
      "start": 34.658,
      "duration": 0.03,
      "velocity": 127,
      "chip": "ym2612"
    },
    {
      "channel": 3,
      "note": 47,
      "start": 34.6938,
      "duration": 0.008,
      "velocity": 127,
      "chip": "ym2612"
    },
    {
      "channel": 3,
      "note": 47,
      "start": 34.7073,
      "duration": 0.0083,
      "velocity": 127,
      "chip": "ym2612"
    },
    {
      "channel": 3,
      "note": 47,
      "start": 34.7361,
      "duration": 0.0811,
      "velocity": 127,
      "chip": "ym2612"
    },
    {
      "channel": 0,
      "note": 42,
      "start": 34.8447,
      "duration": 0.0192,
      "velocity": 103,
      "chip": "ym2612"
    },
    {
      "channel": 3,
      "note": 47,
      "start": 34.8483,
      "duration": 0.0294,
      "velocity": 127,
      "chip": "ym2612"
    },
    {
      "channel": 3,
      "note": 47,
      "start": 34.8831,
      "duration": 0.0078,
      "velocity": 127,
      "chip": "ym2612"
    },
    {
      "channel": 3,
      "note": 47,
      "start": 34.8968,
      "duration": 0.0077,
      "velocity": 127,
      "chip": "ym2612"
    },
    {
      "channel": 3,
      "note": 47,
      "start": 34.9248,
      "duration": 0.0811,
      "velocity": 127,
      "chip": "ym2612"
    },
    {
      "channel": 0,
      "note": 42,
      "start": 35.0332,
      "duration": 0.0119,
      "velocity": 103,
      "chip": "ym2612"
    },
    {
      "channel": 3,
      "note": 47,
      "start": 35.0369,
      "duration": 0.0159,
      "velocity": 127,
      "chip": "ym2612"
    },
    {
      "channel": 0,
      "note": 42,
      "start": 35.0552,
      "duration": 0.0118,
      "velocity": 103,
      "chip": "ym2612"
    },
    {
      "channel": 3,
      "note": 47,
      "start": 35.0589,
      "duration": 0.0158,
      "velocity": 127,
      "chip": "ym2612"
    },
    {
      "channel": 0,
      "note": 47,
      "start": 35.0774,
      "duration": 0.0117,
      "velocity": 103,
      "chip": "ym2612"
    },
    {
      "channel": 3,
      "note": 47,
      "start": 35.081,
      "duration": 0.0154,
      "velocity": 127,
      "chip": "ym2612"
    },
    {
      "channel": 0,
      "note": 47,
      "start": 35.0992,
      "duration": 0.0117,
      "velocity": 103,
      "chip": "ym2612"
    },
    {
      "channel": 3,
      "note": 47,
      "start": 35.1029,
      "duration": 0.0153,
      "velocity": 127,
      "chip": "ym2612"
    },
    {
      "channel": 0,
      "note": 42,
      "start": 35.121,
      "duration": 0.02,
      "velocity": 103,
      "chip": "ym2612"
    },
    {
      "channel": 3,
      "note": 47,
      "start": 35.1251,
      "duration": 0.0298,
      "velocity": 127,
      "chip": "ym2612"
    },
    {
      "channel": 3,
      "note": 47,
      "start": 35.1604,
      "duration": 0.0079,
      "velocity": 127,
      "chip": "ym2612"
    },
    {
      "channel": 3,
      "note": 47,
      "start": 35.1738,
      "duration": 0.008,
      "velocity": 127,
      "chip": "ym2612"
    },
    {
      "channel": 3,
      "note": 47,
      "start": 35.2011,
      "duration": 0.0807,
      "velocity": 127,
      "chip": "ym2612"
    },
    {
      "channel": 0,
      "note": 42,
      "start": 35.309,
      "duration": 0.0201,
      "velocity": 103,
      "chip": "ym2612"
    },
    {
      "channel": 3,
      "note": 47,
      "start": 35.3127,
      "duration": 0.031,
      "velocity": 127,
      "chip": "ym2612"
    },
    {
      "channel": 3,
      "note": 47,
      "start": 35.3491,
      "duration": 0.0083,
      "velocity": 127,
      "chip": "ym2612"
    },
    {
      "channel": 3,
      "note": 47,
      "start": 35.3628,
      "duration": 0.008,
      "velocity": 127,
      "chip": "ym2612"
    },
    {
      "channel": 3,
      "note": 47,
      "start": 35.391,
      "duration": 0.0811,
      "velocity": 127,
      "chip": "ym2612"
    },
    {
      "channel": 0,
      "note": 42,
      "start": 35.4992,
      "duration": 0.012,
      "velocity": 103,
      "chip": "ym2612"
    },
    {
      "channel": 2,
      "note": 66,
      "start": 35.5001,
      "duration": 0.0168,
      "velocity": 106,
      "chip": "ym2612"
    },
    {
      "channel": 3,
      "note": 47,
      "start": 35.5034,
      "duration": 0.0296,
      "velocity": 127,
      "chip": "ym2612"
    },
    {
      "channel": 0,
      "note": 49,
      "start": 35.5191,
      "duration": 0.0079,
      "velocity": 103,
      "chip": "ym2612"
    },
    {
      "channel": 2,
      "note": 73,
      "start": 35.5199,
      "duration": 0.0128,
      "velocity": 106,
      "chip": "ym2612"
    },
    {
      "channel": 0,
      "note": 47,
      "start": 35.535,
      "duration": 0.0112,
      "velocity": 103,
      "chip": "ym2612"
    },
    {
      "channel": 2,
      "note": 71,
      "start": 35.5358,
      "duration": 0.019,
      "velocity": 106,
      "chip": "ym2612"
    },
    {
      "channel": 3,
      "note": 47,
      "start": 35.5393,
      "duration": 0.0077,
      "velocity": 127,
      "chip": "ym2612"
    },
    {
      "channel": 3,
      "note": 47,
      "start": 35.5526,
      "duration": 0.0084,
      "velocity": 127,
      "chip": "ym2612"
    },
    {
      "channel": 0,
      "note": 45,
      "start": 35.557,
      "duration": 0.0473,
      "velocity": 103,
      "chip": "ym2612"
    },
    {
      "channel": 2,
      "note": 69,
      "start": 35.5578,
      "duration": 0.1029,
      "velocity": 106,
      "chip": "ym2612"
    },
    {
      "channel": 3,
      "note": 47,
      "start": 35.5799,
      "duration": 0.0812,
      "velocity": 127,
      "chip": "ym2612"
    },
    {
      "channel": 0,
      "note": 47,
      "start": 35.6883,
      "duration": 0.0121,
      "velocity": 103,
      "chip": "ym2612"
    },
    {
      "channel": 1,
      "note": 66,
      "start": 35.689,
      "duration": 0.0831,
      "velocity": 106,
      "chip": "ym2612"
    },
    {
      "channel": 2,
      "note": 71,
      "start": 35.6895,
      "duration": 0.018,
      "velocity": 106,
      "chip": "ym2612"
    },
    {
      "channel": 3,
      "note": 47,
      "start": 35.6929,
      "duration": 0.0149,
      "velocity": 127,
      "chip": "ym2612"
    },
    {
      "channel": 0,
      "note": 45,
      "start": 35.7106,
      "duration": 0.0117,
      "velocity": 103,
      "chip": "ym2612"
    },
    {
      "channel": 2,
      "note": 69,
      "start": 35.7117,
      "duration": 0.0176,
      "velocity": 106,
      "chip": "ym2612"
    },
    {
      "channel": 3,
      "note": 47,
      "start": 35.7148,
      "duration": 0.0149,
      "velocity": 127,
      "chip": "ym2612"
    },
    {
      "channel": 0,
      "note": 42,
      "start": 35.7325,
      "duration": 0.0124,
      "velocity": 103,
      "chip": "ym2612"
    },
    {
      "channel": 2,
      "note": 66,
      "start": 35.7335,
      "duration": 0.0179,
      "velocity": 106,
      "chip": "ym2612"
    },
    {
      "channel": 3,
      "note": 47,
      "start": 35.7367,
      "duration": 0.0151,
      "velocity": 127,
      "chip": "ym2612"
    },
    {
      "channel": 4,
      "note": 73,
      "start": 35.7375,
      "duration": 0.0716,
      "velocity": 106,
      "chip": "ym2612"
    },
    {
      "channel": 0,
      "note": 40,
      "start": 35.7546,
      "duration": 0.0113,
      "velocity": 103,
      "chip": "ym2612"
    },
    {
      "channel": 2,
      "note": 64,
      "start": 35.7553,
      "duration": 0.0171,
      "velocity": 106,
      "chip": "ym2612"
    },
    {
      "channel": 3,
      "note": 47,
      "start": 35.7584,
      "duration": 0.0143,
      "velocity": 127,
      "chip": "ym2612"
    },
    {
      "channel": 0,
      "note": 42,
      "start": 35.7755,
      "duration": 0.02,
      "velocity": 103,
      "chip": "ym2612"
    },
    {
      "channel": 1,
      "note": 76,
      "start": 35.7761,
      "duration": 0.5398,
      "velocity": 106,
      "chip": "ym2612"
    },
    {
      "channel": 2,
      "note": 69,
      "start": 35.7766,
      "duration": 0.5397,
      "velocity": 106,
      "chip": "ym2612"
    },
    {
      "channel": 3,
      "note": 47,
      "start": 35.7802,
      "duration": 0.0285,
      "velocity": 127,
      "chip": "ym2612"
    },
    {
      "channel": 3,
      "note": 47,
      "start": 35.814,
      "duration": 0.008,
      "velocity": 127,
      "chip": "ym2612"
    },
    {
      "channel": 4,
      "note": 66,
      "start": 35.8147,
      "duration": 0.5707,
      "velocity": 106,
      "chip": "ym2612"
    },
    {
      "channel": 3,
      "note": 47,
      "start": 35.8278,
      "duration": 0.0074,
      "velocity": 127,
      "chip": "ym2612"
    },
    {
      "channel": 3,
      "note": 47,
      "start": 35.8561,
      "duration": 0.0811,
      "velocity": 127,
      "chip": "ym2612"
    },
    {
      "channel": 0,
      "note": 42,
      "start": 35.9645,
      "duration": 0.0198,
      "velocity": 103,
      "chip": "ym2612"
    },
    {
      "channel": 3,
      "note": 47,
      "start": 35.9682,
      "duration": 0.0302,
      "velocity": 127,
      "chip": "ym2612"
    },
    {
      "channel": 3,
      "note": 47,
      "start": 36.0038,
      "duration": 0.0082,
      "velocity": 127,
      "chip": "ym2612"
    },
    {
      "channel": 3,
      "note": 47,
      "start": 36.0173,
      "duration": 0.0079,
      "velocity": 127,
      "chip": "ym2612"
    },
    {
      "channel": 3,
      "note": 47,
      "start": 36.046,
      "duration": 0.0811,
      "velocity": 127,
      "chip": "ym2612"
    },
    {
      "channel": 0,
      "note": 42,
      "start": 36.1544,
      "duration": 0.0193,
      "velocity": 103,
      "chip": "ym2612"
    },
    {
      "channel": 3,
      "note": 47,
      "start": 36.158,
      "duration": 0.0296,
      "velocity": 127,
      "chip": "ym2612"
    },
    {
      "channel": 3,
      "note": 47,
      "start": 36.1932,
      "duration": 0.0084,
      "velocity": 127,
      "chip": "ym2612"
    },
    {
      "channel": 3,
      "note": 47,
      "start": 36.2071,
      "duration": 0.0081,
      "velocity": 127,
      "chip": "ym2612"
    },
    {
      "channel": 3,
      "note": 47,
      "start": 36.2358,
      "duration": 0.0809,
      "velocity": 127,
      "chip": "ym2612"
    },
    {
      "channel": 0,
      "note": 42,
      "start": 36.3438,
      "duration": 0.0128,
      "velocity": 103,
      "chip": "ym2612"
    },
    {
      "channel": 1,
      "note": 75,
      "start": 36.3444,
      "duration": 0.0832,
      "velocity": 106,
      "chip": "ym2612"
    },
    {
      "channel": 2,
      "note": 68,
      "start": 36.3449,
      "duration": 0.083,
      "velocity": 106,
      "chip": "ym2612"
    },
    {
      "channel": 3,
      "note": 47,
      "start": 36.348,
      "duration": 0.0159,
      "velocity": 127,
      "chip": "ym2612"
    },
    {
      "channel": 0,
      "note": 42,
      "start": 36.3659,
      "duration": 0.0119,
      "velocity": 103,
      "chip": "ym2612"
    },
    {
      "channel": 3,
      "note": 47,
      "start": 36.3695,
      "duration": 0.0156,
      "velocity": 127,
      "chip": "ym2612"
    },
    {
      "channel": 0,
      "note": 47,
      "start": 36.3881,
      "duration": 0.0118,
      "velocity": 103,
      "chip": "ym2612"
    },
    {
      "channel": 3,
      "note": 47,
      "start": 36.3917,
      "duration": 0.015,
      "velocity": 127,
      "chip": "ym2612"
    },
    {
      "channel": 4,
      "note": 76,
      "start": 36.3925,
      "duration": 0.073,
      "velocity": 106,
      "chip": "ym2612"
    },
    {
      "channel": 0,
      "note": 47,
      "start": 36.4098,
      "duration": 0.0115,
      "velocity": 103,
      "chip": "ym2612"
    },
    {
      "channel": 3,
      "note": 47,
      "start": 36.4135,
      "duration": 0.0147,
      "velocity": 127,
      "chip": "ym2612"
    },
    {
      "channel": 0,
      "note": 42,
      "start": 36.4316,
      "duration": 0.0204,
      "velocity": 103,
      "chip": "ym2612"
    },
    {
      "channel": 1,
      "note": 73,
      "start": 36.4321,
      "duration": 0.3508,
      "velocity": 106,
      "chip": "ym2612"
    },
    {
      "channel": 2,
      "note": 69,
      "start": 36.4327,
      "duration": 0.3505,
      "velocity": 106,
      "chip": "ym2612"
    },
    {
      "channel": 3,
      "note": 47,
      "start": 36.4366,
      "duration": 0.0285,
      "velocity": 127,
      "chip": "ym2612"
    },
    {
      "channel": 3,
      "note": 47,
      "start": 36.4709,
      "duration": 0.008,
      "velocity": 127,
      "chip": "ym2612"
    },
    {
      "channel": 4,
      "note": 75,
      "start": 36.4716,
      "duration": 0.3727,
      "velocity": 106,
      "chip": "ym2612"
    },
    {
      "channel": 3,
      "note": 47,
      "start": 36.4846,
      "duration": 0.0078,
      "velocity": 127,
      "chip": "ym2612"
    },
    {
      "channel": 3,
      "note": 47,
      "start": 36.5128,
      "duration": 0.0812,
      "velocity": 127,
      "chip": "ym2612"
    },
    {
      "channel": 0,
      "note": 42,
      "start": 36.6214,
      "duration": 0.0194,
      "velocity": 103,
      "chip": "ym2612"
    },
    {
      "channel": 3,
      "note": 47,
      "start": 36.6254,
      "duration": 0.0298,
      "velocity": 127,
      "chip": "ym2612"
    },
    {
      "channel": 3,
      "note": 47,
      "start": 36.6605,
      "duration": 0.0078,
      "velocity": 127,
      "chip": "ym2612"
    },
    {
      "channel": 3,
      "note": 47,
      "start": 36.6738,
      "duration": 0.0081,
      "velocity": 127,
      "chip": "ym2612"
    },
    {
      "channel": 3,
      "note": 47,
      "start": 36.7024,
      "duration": 0.0812,
      "velocity": 127,
      "chip": "ym2612"
    },
    {
      "channel": 0,
      "note": 42,
      "start": 36.8107,
      "duration": 0.0194,
      "velocity": 103,
      "chip": "ym2612"
    },
    {
      "channel": 1,
      "note": 71,
      "start": 36.8113,
      "duration": 0.2719,
      "velocity": 106,
      "chip": "ym2612"
    },
    {
      "channel": 2,
      "note": 66,
      "start": 36.8118,
      "duration": 0.2717,
      "velocity": 106,
      "chip": "ym2612"
    },
    {
      "channel": 3,
      "note": 47,
      "start": 36.8149,
      "duration": 0.029,
      "velocity": 127,
      "chip": "ym2612"
    },
    {
      "channel": 3,
      "note": 47,
      "start": 36.8494,
      "duration": 0.0083,
      "velocity": 127,
      "chip": "ym2612"
    },
    {
      "channel": 4,
      "note": 73,
      "start": 36.85,
      "duration": 0.2708,
      "velocity": 106,
      "chip": "ym2612"
    },
    {
      "channel": 3,
      "note": 47,
      "start": 36.8634,
      "duration": 0.0075,
      "velocity": 127,
      "chip": "ym2612"
    },
    {
      "channel": 3,
      "note": 47,
      "start": 36.8922,
      "duration": 0.0812,
      "velocity": 127,
      "chip": "ym2612"
    },
    {
      "channel": 0,
      "note": 42,
      "start": 37.0008,
      "duration": 0.0116,
      "velocity": 103,
      "chip": "ym2612"
    },
    {
      "channel": 3,
      "note": 47,
      "start": 37.0044,
      "duration": 0.0154,
      "velocity": 127,
      "chip": "ym2612"
    },
    {
      "channel": 0,
      "note": 42,
      "start": 37.0225,
      "duration": 0.0116,
      "velocity": 103,
      "chip": "ym2612"
    },
    {
      "channel": 3,
      "note": 47,
      "start": 37.0262,
      "duration": 0.0151,
      "velocity": 127,
      "chip": "ym2612"
    },
    {
      "channel": 0,
      "note": 40,
      "start": 37.0441,
      "duration": 0.0115,
      "velocity": 103,
      "chip": "ym2612"
    },
    {
      "channel": 3,
      "note": 47,
      "start": 37.0477,
      "duration": 0.0149,
      "velocity": 127,
      "chip": "ym2612"
    },
    {
      "channel": 0,
      "note": 40,
      "start": 37.0652,
      "duration": 0.0115,
      "velocity": 103,
      "chip": "ym2612"
    },
    {
      "channel": 3,
      "note": 47,
      "start": 37.0688,
      "duration": 0.0151,
      "velocity": 127,
      "chip": "ym2612"
    },
    {
      "channel": 0,
      "note": 38,
      "start": 37.0861,
      "duration": 0.0204,
      "velocity": 103,
      "chip": "ym2612"
    },
    {
      "channel": 1,
      "note": 78,
      "start": 37.0867,
      "duration": 1.3592,
      "velocity": 106,
      "chip": "ym2612"
    },
    {
      "channel": 2,
      "note": 69,
      "start": 37.0872,
      "duration": 2.8335,
      "velocity": 106,
      "chip": "ym2612"
    },
    {
      "channel": 3,
      "note": 47,
      "start": 37.0908,
      "duration": 0.0296,
      "velocity": 127,
      "chip": "ym2612"
    },
    {
      "channel": 3,
      "note": 47,
      "start": 37.1261,
      "duration": 0.0084,
      "velocity": 127,
      "chip": "ym2612"
    },
    {
      "channel": 4,
      "note": 71,
      "start": 37.1268,
      "duration": 1.3876,
      "velocity": 106,
      "chip": "ym2612"
    },
    {
      "channel": 3,
      "note": 47,
      "start": 37.14,
      "duration": 0.0078,
      "velocity": 127,
      "chip": "ym2612"
    },
    {
      "channel": 3,
      "note": 47,
      "start": 37.1536,
      "duration": 0.0081,
      "velocity": 127,
      "chip": "ym2612"
    },
    {
      "channel": 0,
      "note": 38,
      "start": 37.1637,
      "duration": 0.1366,
      "velocity": 103,
      "chip": "ym2612"
    },
    {
      "channel": 3,
      "note": 47,
      "start": 37.1673,
      "duration": 0.2734,
      "velocity": 127,
      "chip": "ym2612"
    },
    {
      "channel": 3,
      "note": 47,
      "start": 37.4715,
      "duration": 0.0809,
      "velocity": 127,
      "chip": "ym2612"
    },
    {
      "channel": 3,
      "note": 47,
      "start": 37.5832,
      "duration": 0.0812,
      "velocity": 127,
      "chip": "ym2612"
    },
    {
      "channel": 3,
      "note": 47,
      "start": 37.6949,
      "duration": 0.0811,
      "velocity": 127,
      "chip": "ym2612"
    },
    {
      "channel": 0,
      "note": 38,
      "start": 37.8033,
      "duration": 0.1674,
      "velocity": 103,
      "chip": "ym2612"
    },
    {
      "channel": 3,
      "note": 47,
      "start": 37.8073,
      "duration": 0.3038,
      "velocity": 127,
      "chip": "ym2612"
    },
    {
      "channel": 3,
      "note": 47,
      "start": 38.1424,
      "duration": 0.0808,
      "velocity": 127,
      "chip": "ym2612"
    },
    {
      "channel": 3,
      "note": 47,
      "start": 38.2536,
      "duration": 0.081,
      "velocity": 127,
      "chip": "ym2612"
    },
    {
      "channel": 3,
      "note": 47,
      "start": 38.3654,
      "duration": 0.0811,
      "velocity": 127,
      "chip": "ym2612"
    },
    {
      "channel": 0,
      "note": 38,
      "start": 38.4741,
      "duration": 0.012,
      "velocity": 103,
      "chip": "ym2612"
    },
    {
      "channel": 1,
      "note": 80,
      "start": 38.4746,
      "duration": 0.0816,
      "velocity": 106,
      "chip": "ym2612"
    },
    {
      "channel": 3,
      "note": 47,
      "start": 38.478,
      "duration": 0.0152,
      "velocity": 127,
      "chip": "ym2612"
    },
    {
      "channel": 0,
      "note": 38,
      "start": 38.4954,
      "duration": 0.0114,
      "velocity": 103,
      "chip": "ym2612"
    },
    {
      "channel": 3,
      "note": 47,
      "start": 38.499,
      "duration": 0.015,
      "velocity": 127,
      "chip": "ym2612"
    },
    {
      "channel": 0,
      "note": 50,
      "start": 38.5166,
      "duration": 0.0117,
      "velocity": 103,
      "chip": "ym2612"
    },
    {
      "channel": 3,
      "note": 47,
      "start": 38.5202,
      "duration": 0.0152,
      "velocity": 127,
      "chip": "ym2612"
    },
    {
      "channel": 4,
      "note": 78,
      "start": 38.5209,
      "duration": 0.074,
      "velocity": 106,
      "chip": "ym2612"
    },
    {
      "channel": 0,
      "note": 50,
      "start": 38.5381,
      "duration": 0.0112,
      "velocity": 103,
      "chip": "ym2612"
    },
    {
      "channel": 3,
      "note": 47,
      "start": 38.5417,
      "duration": 0.0152,
      "velocity": 127,
      "chip": "ym2612"
    },
    {
      "channel": 0,
      "note": 38,
      "start": 38.5599,
      "duration": 0.0203,
      "velocity": 103,
      "chip": "ym2612"
    },
    {
      "channel": 1,
      "note": 81,
      "start": 38.5605,
      "duration": 0.354,
      "velocity": 106,
      "chip": "ym2612"
    },
    {
      "channel": 3,
      "note": 47,
      "start": 38.5643,
      "duration": 0.0302,
      "velocity": 127,
      "chip": "ym2612"
    },
    {
      "channel": 3,
      "note": 47,
      "start": 38.6,
      "duration": 0.0085,
      "velocity": 127,
      "chip": "ym2612"
    },
    {
      "channel": 4,
      "note": 80,
      "start": 38.6007,
      "duration": 0.6501,
      "velocity": 106,
      "chip": "ym2612"
    },
    {
      "channel": 3,
      "note": 47,
      "start": 38.6141,
      "duration": 0.0081,
      "velocity": 127,
      "chip": "ym2612"
    },
    {
      "channel": 3,
      "note": 47,
      "start": 38.6276,
      "duration": 0.0082,
      "velocity": 127,
      "chip": "ym2612"
    },
    {
      "channel": 0,
      "note": 38,
      "start": 38.6379,
      "duration": 0.1367,
      "velocity": 103,
      "chip": "ym2612"
    },
    {
      "channel": 3,
      "note": 47,
      "start": 38.6416,
      "duration": 0.2735,
      "velocity": 127,
      "chip": "ym2612"
    },
    {
      "channel": 1,
      "note": 83,
      "start": 38.9426,
      "duration": 0.0557,
      "velocity": 106,
      "chip": "ym2612"
    },
    {
      "channel": 3,
      "note": 47,
      "start": 38.946,
      "duration": 0.081,
      "velocity": 127,
      "chip": "ym2612"
    },
    {
      "channel": 1,
      "note": 85,
      "start": 39.0264,
      "duration": 0.0557,
      "velocity": 106,
      "chip": "ym2612"
    },
    {
      "channel": 3,
      "note": 47,
      "start": 39.0575,
      "duration": 0.081,
      "velocity": 127,
      "chip": "ym2612"
    },
    {
      "channel": 1,
      "note": 86,
      "start": 39.1102,
      "duration": 0.0557,
      "velocity": 106,
      "chip": "ym2612"
    },
    {
      "channel": 3,
      "note": 47,
      "start": 39.1697,
      "duration": 0.0807,
      "velocity": 127,
      "chip": "ym2612"
    },
    {
      "channel": 1,
      "note": 88,
      "start": 39.1941,
      "duration": 0.0557,
      "velocity": 106,
      "chip": "ym2612"
    },
    {
      "channel": 0,
      "note": 38,
      "start": 39.2776,
      "duration": 0.1674,
      "velocity": 103,
      "chip": "ym2612"
    },
    {
      "channel": 1,
      "note": 90,
      "start": 39.2782,
      "duration": 0.7538,
      "velocity": 106,
      "chip": "ym2612"
    },
    {
      "channel": 3,
      "note": 47,
      "start": 39.2815,
      "duration": 0.304,
      "velocity": 127,
      "chip": "ym2612"
    },
    {
      "channel": 4,
      "note": 81,
      "start": 39.2822,
      "duration": 0.0521,
      "velocity": 106,
      "chip": "ym2612"
    },
    {
      "channel": 4,
      "note": 83,
      "start": 39.3625,
      "duration": 0.0557,
      "velocity": 106,
      "chip": "ym2612"
    },
    {
      "channel": 4,
      "note": 85,
      "start": 39.4464,
      "duration": 0.0557,
      "velocity": 106,
      "chip": "ym2612"
    },
    {
      "channel": 4,
      "note": 86,
      "start": 39.5302,
      "duration": 0.0557,
      "velocity": 106,
      "chip": "ym2612"
    },
    {
      "channel": 3,
      "note": 47,
      "start": 39.6162,
      "duration": 0.0811,
      "velocity": 127,
      "chip": "ym2612"
    },
    {
      "channel": 4,
      "note": 88,
      "start": 39.6168,
      "duration": 0.4548,
      "velocity": 106,
      "chip": "ym2612"
    },
    {
      "channel": 3,
      "note": 47,
      "start": 39.7279,
      "duration": 0.0811,
      "velocity": 127,
      "chip": "ym2612"
    },
    {
      "channel": 3,
      "note": 47,
      "start": 39.8399,
      "duration": 0.0812,
      "velocity": 127,
      "chip": "ym2612"
    },
    {
      "channel": 0,
      "note": 38,
      "start": 39.9481,
      "duration": 0.012,
      "velocity": 103,
      "chip": "ym2612"
    },
    {
      "channel": 2,
      "note": 69,
      "start": 39.9489,
      "duration": 0.0834,
      "velocity": 106,
      "chip": "ym2612"
    },
    {
      "channel": 3,
      "note": 47,
      "start": 39.9522,
      "duration": 0.015,
      "velocity": 127,
      "chip": "ym2612"
    },
    {
      "channel": 0,
      "note": 38,
      "start": 39.9698,
      "duration": 0.0118,
      "velocity": 103,
      "chip": "ym2612"
    },
    {
      "channel": 3,
      "note": 47,
      "start": 39.9736,
      "duration": 0.0151,
      "velocity": 127,
      "chip": "ym2612"
    },
    {
      "channel": 0,
      "note": 50,
      "start": 39.9916,
      "duration": 0.0118,
      "velocity": 103,
      "chip": "ym2612"
    },
    {
      "channel": 3,
      "note": 47,
      "start": 39.9957,
      "duration": 0.0149,
      "velocity": 127,
      "chip": "ym2612"
    },
    {
      "channel": 0,
      "note": 50,
      "start": 40.0135,
      "duration": 0.0118,
      "velocity": 103,
      "chip": "ym2612"
    },
    {
      "channel": 3,
      "note": 47,
      "start": 40.0176,
      "duration": 0.0151,
      "velocity": 127,
      "chip": "ym2612"
    },
    {
      "channel": 0,
      "note": 47,
      "start": 40.0354,
      "duration": 0.0212,
      "velocity": 103,
      "chip": "ym2612"
    },
    {
      "channel": 1,
      "note": 88,
      "start": 40.036,
      "duration": 0.0183,
      "velocity": 106,
      "chip": "ym2612"
    },
    {
      "channel": 2,
      "note": 76,
      "start": 40.0366,
      "duration": 0.0179,
      "velocity": 106,
      "chip": "ym2612"
    },
    {
      "channel": 3,
      "note": 47,
      "start": 40.0405,
      "duration": 0.0308,
      "velocity": 127,
      "chip": "ym2612"
    },
    {
      "channel": 1,
      "note": 86,
      "start": 40.0571,
      "duration": 0.0137,
      "velocity": 106,
      "chip": "ym2612"
    },
    {
      "channel": 2,
      "note": 74,
      "start": 40.0577,
      "duration": 0.0133,
      "velocity": 106,
      "chip": "ym2612"
    },
    {
      "channel": 1,
      "note": 85,
      "start": 40.0739,
      "duration": 0.0197,
      "velocity": 106,
      "chip": "ym2612"
    },
    {
      "channel": 2,
      "note": 73,
      "start": 40.0747,
      "duration": 0.0191,
      "velocity": 106,
      "chip": "ym2612"
    },
    {
      "channel": 3,
      "note": 47,
      "start": 40.0778,
      "duration": 0.0083,
      "velocity": 127,
      "chip": "ym2612"
    },
    {
      "channel": 4,
      "note": 90,
      "start": 40.0785,
      "duration": 0.0159,
      "velocity": 106,
      "chip": "ym2612"
    },
    {
      "channel": 3,
      "note": 47,
      "start": 40.0914,
      "duration": 0.009,
      "velocity": 127,
      "chip": "ym2612"
    },
    {
      "channel": 1,
      "note": 86,
      "start": 40.0967,
      "duration": 0.077,
      "velocity": 106,
      "chip": "ym2612"
    },
    {
      "channel": 2,
      "note": 74,
      "start": 40.0972,
      "duration": 0.0767,
      "velocity": 106,
      "chip": "ym2612"
    },
    {
      "channel": 4,
      "note": 88,
      "start": 40.0981,
      "duration": 0.0765,
      "velocity": 106,
      "chip": "ym2612"
    },
    {
      "channel": 3,
      "note": 47,
      "start": 40.1057,
      "duration": 0.0685,
      "velocity": 127,
      "chip": "ym2612"
    },
    {
      "channel": 0,
      "note": 47,
      "start": 40.2016,
      "duration": 0.1673,
      "velocity": 103,
      "chip": "ym2612"
    },
    {
      "channel": 1,
      "note": 97,
      "start": 40.2022,
      "duration": 3.0472,
      "velocity": 106,
      "chip": "ym2612"
    },
    {
      "channel": 2,
      "note": 90,
      "start": 40.2027,
      "duration": 1.8173,
      "velocity": 106,
      "chip": "ym2612"
    },
    {
      "channel": 3,
      "note": 47,
      "start": 40.2058,
      "duration": 0.3035,
      "velocity": 127,
      "chip": "ym2612"
    },
    {
      "channel": 4,
      "note": 86,
      "start": 40.2065,
      "duration": 0.1355,
      "velocity": 106,
      "chip": "ym2612"
    },
    {
      "channel": 4,
      "note": 85,
      "start": 40.3702,
      "duration": 0.1394,
      "velocity": 106,
      "chip": "ym2612"
    },
    {
      "channel": 3,
      "note": 47,
      "start": 40.54,
      "duration": 0.081,
      "velocity": 127,
      "chip": "ym2612"
    },
    {
      "channel": 4,
      "note": 86,
      "start": 40.5407,
      "duration": 2.7487,
      "velocity": 106,
      "chip": "ym2612"
    },
    {
      "channel": 3,
      "note": 47,
      "start": 40.6522,
      "duration": 0.0806,
      "velocity": 127,
      "chip": "ym2612"
    },
    {
      "channel": 3,
      "note": 47,
      "start": 40.7635,
      "duration": 0.0812,
      "velocity": 127,
      "chip": "ym2612"
    },
    {
      "channel": 0,
      "note": 47,
      "start": 40.872,
      "duration": 0.1674,
      "velocity": 103,
      "chip": "ym2612"
    },
    {
      "channel": 3,
      "note": 47,
      "start": 40.8756,
      "duration": 0.3042,
      "velocity": 127,
      "chip": "ym2612"
    },
    {
      "channel": 3,
      "note": 47,
      "start": 41.2105,
      "duration": 0.0811,
      "velocity": 127,
      "chip": "ym2612"
    },
    {
      "channel": 3,
      "note": 47,
      "start": 41.3226,
      "duration": 0.0812,
      "velocity": 127,
      "chip": "ym2612"
    },
    {
      "channel": 3,
      "note": 47,
      "start": 41.434,
      "duration": 0.0811,
      "velocity": 127,
      "chip": "ym2612"
    },
    {
      "channel": 0,
      "note": 47,
      "start": 41.5425,
      "duration": 0.0118,
      "velocity": 103,
      "chip": "ym2612"
    },
    {
      "channel": 3,
      "note": 47,
      "start": 41.5461,
      "duration": 0.0153,
      "velocity": 127,
      "chip": "ym2612"
    },
    {
      "channel": 0,
      "note": 47,
      "start": 41.5635,
      "duration": 0.0119,
      "velocity": 103,
      "chip": "ym2612"
    },
    {
      "channel": 3,
      "note": 47,
      "start": 41.5671,
      "duration": 0.0153,
      "velocity": 127,
      "chip": "ym2612"
    },
    {
      "channel": 0,
      "note": 42,
      "start": 41.585,
      "duration": 0.0118,
      "velocity": 103,
      "chip": "ym2612"
    },
    {
      "channel": 3,
      "note": 47,
      "start": 41.5887,
      "duration": 0.0154,
      "velocity": 127,
      "chip": "ym2612"
    },
    {
      "channel": 0,
      "note": 47,
      "start": 41.6069,
      "duration": 0.0122,
      "velocity": 103,
      "chip": "ym2612"
    },
    {
      "channel": 3,
      "note": 47,
      "start": 41.6106,
      "duration": 0.0156,
      "velocity": 127,
      "chip": "ym2612"
    },
    {
      "channel": 0,
      "note": 49,
      "start": 41.6293,
      "duration": 0.0213,
      "velocity": 103,
      "chip": "ym2612"
    },
    {
      "channel": 3,
      "note": 47,
      "start": 41.6334,
      "duration": 0.0317,
      "velocity": 127,
      "chip": "ym2612"
    },
    {
      "channel": 3,
      "note": 47,
      "start": 41.6703,
      "duration": 0.0084,
      "velocity": 127,
      "chip": "ym2612"
    },
    {
      "channel": 3,
      "note": 47,
      "start": 41.6841,
      "duration": 0.008,
      "velocity": 127,
      "chip": "ym2612"
    },
    {
      "channel": 3,
      "note": 47,
      "start": 41.7159,
      "duration": 0.0809,
      "velocity": 127,
      "chip": "ym2612"
    },
    {
      "channel": 0,
      "note": 49,
      "start": 41.8241,
      "duration": 0.1674,
      "velocity": 103,
      "chip": "ym2612"
    },
    {
      "channel": 3,
      "note": 47,
      "start": 41.8279,
      "duration": 0.3041,
      "velocity": 127,
      "chip": "ym2612"
    },
    {
      "channel": 2,
      "note": 92,
      "start": 42.0481,
      "duration": 0.1954,
      "velocity": 106,
      "chip": "ym2612"
    },
    {
      "channel": 3,
      "note": 47,
      "start": 42.1632,
      "duration": 0.0806,
      "velocity": 127,
      "chip": "ym2612"
    },
    {
      "channel": 2,
      "note": 90,
      "start": 42.2716,
      "duration": 0.1954,
      "velocity": 106,
      "chip": "ym2612"
    },
    {
      "channel": 3,
      "note": 47,
      "start": 42.2747,
      "duration": 0.0807,
      "velocity": 127,
      "chip": "ym2612"
    },
    {
      "channel": 3,
      "note": 47,
      "start": 42.3861,
      "duration": 0.0811,
      "velocity": 127,
      "chip": "ym2612"
    },
    {
      "channel": 0,
      "note": 49,
      "start": 42.4945,
      "duration": 0.1675,
      "velocity": 103,
      "chip": "ym2612"
    },
    {
      "channel": 2,
      "note": 89,
      "start": 42.4955,
      "duration": 0.7542,
      "velocity": 106,
      "chip": "ym2612"
    },
    {
      "channel": 3,
      "note": 47,
      "start": 42.4989,
      "duration": 0.3035,
      "velocity": 127,
      "chip": "ym2612"
    },
    {
      "channel": 3,
      "note": 47,
      "start": 42.8334,
      "duration": 0.0811,
      "velocity": 127,
      "chip": "ym2612"
    },
    {
      "channel": 3,
      "note": 47,
      "start": 42.9448,
      "duration": 0.081,
      "velocity": 127,
      "chip": "ym2612"
    },
    {
      "channel": 3,
      "note": 47,
      "start": 43.0566,
      "duration": 0.0812,
      "velocity": 127,
      "chip": "ym2612"
    },
    {
      "channel": 0,
      "note": 37,
      "start": 43.1651,
      "duration": 0.0118,
      "velocity": 103,
      "chip": "ym2612"
    },
    {
      "channel": 3,
      "note": 47,
      "start": 43.1687,
      "duration": 0.0156,
      "velocity": 127,
      "chip": "ym2612"
    },
    {
      "channel": 0,
      "note": 37,
      "start": 43.1864,
      "duration": 0.0119,
      "velocity": 103,
      "chip": "ym2612"
    },
    {
      "channel": 3,
      "note": 47,
      "start": 43.1901,
      "duration": 0.0157,
      "velocity": 127,
      "chip": "ym2612"
    },
    {
      "channel": 0,
      "note": 37,
      "start": 43.2083,
      "duration": 0.0118,
      "velocity": 103,
      "chip": "ym2612"
    },
    {
      "channel": 3,
      "note": 47,
      "start": 43.2119,
      "duration": 0.0157,
      "velocity": 127,
      "chip": "ym2612"
    },
    {
      "channel": 0,
      "note": 37,
      "start": 43.2301,
      "duration": 0.0122,
      "velocity": 103,
      "chip": "ym2612"
    },
    {
      "channel": 3,
      "note": 47,
      "start": 43.2337,
      "duration": 0.0162,
      "velocity": 127,
      "chip": "ym2612"
    },
    {
      "channel": 0,
      "note": 42,
      "start": 43.2519,
      "duration": 0.0131,
      "velocity": 103,
      "chip": "ym2612"
    },
    {
      "channel": 1,
      "note": 66,
      "start": 43.2525,
      "duration": 0.0183,
      "velocity": 106,
      "chip": "ym2612"
    },
    {
      "channel": 2,
      "note": 61,
      "start": 43.2532,
      "duration": 0.0179,
      "velocity": 106,
      "chip": "ym2612"
    },
    {
      "channel": 3,
      "note": 47,
      "start": 43.2566,
      "duration": 0.0149,
      "velocity": 127,
      "chip": "ym2612"
    },
    {
      "channel": 0,
      "note": 44,
      "start": 43.2734,
      "duration": 0.0094,
      "velocity": 103,
      "chip": "ym2612"
    },
    {
      "channel": 1,
      "note": 68,
      "start": 43.2739,
      "duration": 0.0145,
      "velocity": 106,
      "chip": "ym2612"
    },
    {
      "channel": 2,
      "note": 63,
      "start": 43.2744,
      "duration": 0.0142,
      "velocity": 106,
      "chip": "ym2612"
    },
    {
      "channel": 3,
      "note": 47,
      "start": 43.2751,
      "duration": 0.0139,
      "velocity": 127,
      "chip": "ym2612"
    },
    {
      "channel": 0,
      "note": 42,
      "start": 43.2912,
      "duration": 0.1224,
      "velocity": 103,
      "chip": "ym2612"
    },
    {
      "channel": 1,
      "note": 66,
      "start": 43.2917,
      "duration": 0.0144,
      "velocity": 106,
      "chip": "ym2612"
    },
    {
      "channel": 2,
      "note": 61,
      "start": 43.2922,
      "duration": 0.0141,
      "velocity": 106,
      "chip": "ym2612"
    },
    {
      "channel": 3,
      "note": 47,
      "start": 43.2929,
      "duration": 0.0138,
      "velocity": 127,
      "chip": "ym2612"
    },
    {
      "channel": 4,
      "note": 97,
      "start": 43.2937,
      "duration": 0.0134,
      "velocity": 106,
      "chip": "ym2612"
    },
    {
      "channel": 4,
      "note": 66,
      "start": 43.3101,
      "duration": 0.1047,
      "velocity": 106,
      "chip": "ym2612"
    },
    {
      "channel": 1,
      "note": 88,
      "start": 43.4421,
      "duration": 0.6423,
      "velocity": 106,
      "chip": "ym2612"
    },
    {
      "channel": 2,
      "note": 85,
      "start": 43.4426,
      "duration": 0.6421,
      "velocity": 106,
      "chip": "ym2612"
    },
    {
      "channel": 3,
      "note": 47,
      "start": 43.4458,
      "duration": 1.3096,
      "velocity": 119,
      "chip": "ym2612"
    },
    {
      "channel": 4,
      "note": 68,
      "start": 43.4465,
      "duration": 0.1357,
      "velocity": 106,
      "chip": "ym2612"
    },
    {
      "channel": 4,
      "note": 66,
      "start": 43.778,
      "duration": 0.6426,
      "velocity": 106,
      "chip": "ym2612"
    },
    {
      "channel": 1,
      "note": 87,
      "start": 44.1124,
      "duration": 0.6423,
      "velocity": 106,
      "chip": "ym2612"
    },
    {
      "channel": 2,
      "note": 83,
      "start": 44.113,
      "duration": 0.6421,
      "velocity": 106,
      "chip": "ym2612"
    },
    {
      "channel": 4,
      "note": 88,
      "start": 44.4485,
      "duration": 0.6423,
      "velocity": 106,
      "chip": "ym2612"
    },
    {
      "channel": 1,
      "note": 85,
      "start": 44.7829,
      "duration": 0.3071,
      "velocity": 106,
      "chip": "ym2612"
    },
    {
      "channel": 2,
      "note": 81,
      "start": 44.7834,
      "duration": 0.3068,
      "velocity": 106,
      "chip": "ym2612"
    },
    {
      "channel": 3,
      "note": 68,
      "start": 44.7871,
      "duration": 0.0799,
      "velocity": 127,
      "chip": "ym2612"
    },
    {
      "channel": 3,
      "note": 47,
      "start": 44.8977,
      "duration": 0.081,
      "velocity": 127,
      "chip": "ym2612"
    },
    {
      "channel": 3,
      "note": 47,
      "start": 45.0094,
      "duration": 0.0811,
      "velocity": 127,
      "chip": "ym2612"
    },
    {
      "channel": 1,
      "note": 83,
      "start": 45.1181,
      "duration": 0.3071,
      "velocity": 106,
      "chip": "ym2612"
    },
    {
      "channel": 2,
      "note": 80,
      "start": 45.1186,
      "duration": 0.3069,
      "velocity": 106,
      "chip": "ym2612"
    },
    {
      "channel": 3,
      "note": 47,
      "start": 45.1222,
      "duration": 0.08,
      "velocity": 127,
      "chip": "ym2612"
    },
    {
      "channel": 4,
      "note": 87,
      "start": 45.1229,
      "duration": 0.3033,
      "velocity": 106,
      "chip": "ym2612"
    },
    {
      "channel": 3,
      "note": 47,
      "start": 45.2329,
      "duration": 0.081,
      "velocity": 127,
      "chip": "ym2612"
    },
    {
      "channel": 3,
      "note": 47,
      "start": 45.3446,
      "duration": 0.0812,
      "velocity": 127,
      "chip": "ym2612"
    },
    {
      "channel": 0,
      "note": 42,
      "start": 45.4533,
      "duration": 0.0134,
      "velocity": 103,
      "chip": "ym2612"
    },
    {
      "channel": 1,
      "note": 66,
      "start": 45.4542,
      "duration": 0.018,
      "velocity": 106,
      "chip": "ym2612"
    },
    {
      "channel": 2,
      "note": 61,
      "start": 45.4549,
      "duration": 0.0176,
      "velocity": 106,
      "chip": "ym2612"
    },
    {
      "channel": 3,
      "note": 47,
      "start": 45.4581,
      "duration": 0.0146,
      "velocity": 127,
      "chip": "ym2612"
    },
    {
      "channel": 4,
      "note": 85,
      "start": 45.459,
      "duration": 0.0315,
      "velocity": 106,
      "chip": "ym2612"
    },
    {
      "channel": 0,
      "note": 44,
      "start": 45.475,
      "duration": 0.009,
      "velocity": 103,
      "chip": "ym2612"
    },
    {
      "channel": 1,
      "note": 68,
      "start": 45.4756,
      "duration": 0.0139,
      "velocity": 106,
      "chip": "ym2612"
    },
    {
      "channel": 2,
      "note": 63,
      "start": 45.4761,
      "duration": 0.0136,
      "velocity": 106,
      "chip": "ym2612"
    },
    {
      "channel": 3,
      "note": 47,
      "start": 45.4767,
      "duration": 0.0133,
      "velocity": 127,
      "chip": "ym2612"
    },
    {
      "channel": 0,
      "note": 42,
      "start": 45.4922,
      "duration": 0.1217,
      "velocity": 103,
      "chip": "ym2612"
    },
    {
      "channel": 1,
      "note": 66,
      "start": 45.4928,
      "duration": 0.0139,
      "velocity": 106,
      "chip": "ym2612"
    },
    {
      "channel": 2,
      "note": 61,
      "start": 45.4933,
      "duration": 0.0136,
      "velocity": 106,
      "chip": "ym2612"
    },
    {
      "channel": 3,
      "note": 47,
      "start": 45.4939,
      "duration": 0.0133,
      "velocity": 127,
      "chip": "ym2612"
    },
    {
      "channel": 4,
      "note": 83,
      "start": 45.4946,
      "duration": 0.013,
      "velocity": 106,
      "chip": "ym2612"
    },
    {
      "channel": 4,
      "note": 66,
      "start": 45.5108,
      "duration": 0.1044,
      "velocity": 106,
      "chip": "ym2612"
    },
    {
      "channel": 1,
      "note": 90,
      "start": 45.6424,
      "duration": 0.6422,
      "velocity": 106,
      "chip": "ym2612"
    },
    {
      "channel": 2,
      "note": 85,
      "start": 45.6429,
      "duration": 0.642,
      "velocity": 106,
      "chip": "ym2612"
    },
    {
      "channel": 3,
      "note": 47,
      "start": 45.6461,
      "duration": 1.3096,
      "velocity": 119,
      "chip": "ym2612"
    },
    {
      "channel": 4,
      "note": 68,
      "start": 45.6468,
      "duration": 0.1358,
      "velocity": 106,
      "chip": "ym2612"
    },
    {
      "channel": 4,
      "note": 66,
      "start": 45.9784,
      "duration": 0.6423,
      "velocity": 106,
      "chip": "ym2612"
    },
    {
      "channel": 1,
      "note": 88,
      "start": 46.3128,
      "duration": 0.6422,
      "velocity": 106,
      "chip": "ym2612"
    },
    {
      "channel": 2,
      "note": 83,
      "start": 46.3133,
      "duration": 0.642,
      "velocity": 106,
      "chip": "ym2612"
    },
    {
      "channel": 4,
      "note": 90,
      "start": 46.6489,
      "duration": 0.6425,
      "velocity": 106,
      "chip": "ym2612"
    },
    {
      "channel": 1,
      "note": 87,
      "start": 46.9832,
      "duration": 0.3071,
      "velocity": 106,
      "chip": "ym2612"
    },
    {
      "channel": 2,
      "note": 81,
      "start": 46.9837,
      "duration": 0.3068,
      "velocity": 106,
      "chip": "ym2612"
    },
    {
      "channel": 3,
      "note": 68,
      "start": 46.9869,
      "duration": 0.0804,
      "velocity": 127,
      "chip": "ym2612"
    },
    {
      "channel": 3,
      "note": 47,
      "start": 47.098,
      "duration": 0.0811,
      "velocity": 127,
      "chip": "ym2612"
    },
    {
      "channel": 3,
      "note": 47,
      "start": 47.2102,
      "duration": 0.0807,
      "velocity": 127,
      "chip": "ym2612"
    },
    {
      "channel": 1,
      "note": 85,
      "start": 47.3184,
      "duration": 0.3071,
      "velocity": 106,
      "chip": "ym2612"
    },
    {
      "channel": 2,
      "note": 80,
      "start": 47.319,
      "duration": 0.3072,
      "velocity": 106,
      "chip": "ym2612"
    },
    {
      "channel": 3,
      "note": 47,
      "start": 47.3221,
      "duration": 0.0805,
      "velocity": 127,
      "chip": "ym2612"
    },
    {
      "channel": 4,
      "note": 88,
      "start": 47.3227,
      "duration": 0.304,
      "velocity": 106,
      "chip": "ym2612"
    },
    {
      "channel": 3,
      "note": 47,
      "start": 47.4332,
      "duration": 0.081,
      "velocity": 127,
      "chip": "ym2612"
    },
    {
      "channel": 3,
      "note": 47,
      "start": 47.5454,
      "duration": 0.081,
      "velocity": 127,
      "chip": "ym2612"
    },
    {
      "channel": 0,
      "note": 42,
      "start": 47.6534,
      "duration": 0.0137,
      "velocity": 103,
      "chip": "ym2612"
    },
    {
      "channel": 1,
      "note": 66,
      "start": 47.654,
      "duration": 0.0187,
      "velocity": 106,
      "chip": "ym2612"
    },
    {
      "channel": 2,
      "note": 61,
      "start": 47.6547,
      "duration": 0.0183,
      "velocity": 106,
      "chip": "ym2612"
    },
    {
      "channel": 3,
      "note": 47,
      "start": 47.6579,
      "duration": 0.0154,
      "velocity": 127,
      "chip": "ym2612"
    },
    {
      "channel": 4,
      "note": 87,
      "start": 47.6589,
      "duration": 0.0317,
      "velocity": 106,
      "chip": "ym2612"
    },
    {
      "channel": 0,
      "note": 44,
      "start": 47.6754,
      "duration": 0.009,
      "velocity": 103,
      "chip": "ym2612"
    },
    {
      "channel": 1,
      "note": 68,
      "start": 47.6759,
      "duration": 0.0138,
      "velocity": 106,
      "chip": "ym2612"
    },
    {
      "channel": 2,
      "note": 63,
      "start": 47.6764,
      "duration": 0.0135,
      "velocity": 106,
      "chip": "ym2612"
    },
    {
      "channel": 3,
      "note": 47,
      "start": 47.677,
      "duration": 0.0132,
      "velocity": 127,
      "chip": "ym2612"
    },
    {
      "channel": 0,
      "note": 42,
      "start": 47.6924,
      "duration": 0.1223,
      "velocity": 103,
      "chip": "ym2612"
    },
    {
      "channel": 1,
      "note": 66,
      "start": 47.693,
      "duration": 0.0144,
      "velocity": 106,
      "chip": "ym2612"
    },
    {
      "channel": 2,
      "note": 61,
      "start": 47.6935,
      "duration": 0.0141,
      "velocity": 106,
      "chip": "ym2612"
    },
    {
      "channel": 3,
      "note": 47,
      "start": 47.6941,
      "duration": 0.0138,
      "velocity": 127,
      "chip": "ym2612"
    },
    {
      "channel": 4,
      "note": 85,
      "start": 47.6948,
      "duration": 0.0135,
      "velocity": 106,
      "chip": "ym2612"
    },
    {
      "channel": 4,
      "note": 66,
      "start": 47.7114,
      "duration": 0.1046,
      "velocity": 106,
      "chip": "ym2612"
    },
    {
      "channel": 1,
      "note": 88,
      "start": 47.8433,
      "duration": 0.6422,
      "velocity": 106,
      "chip": "ym2612"
    },
    {
      "channel": 2,
      "note": 85,
      "start": 47.8438,
      "duration": 0.642,
      "velocity": 106,
      "chip": "ym2612"
    },
    {
      "channel": 3,
      "note": 47,
      "start": 47.8474,
      "duration": 1.3092,
      "velocity": 119,
      "chip": "ym2612"
    },
    {
      "channel": 4,
      "note": 68,
      "start": 47.8481,
      "duration": 0.1353,
      "velocity": 106,
      "chip": "ym2612"
    },
    {
      "channel": 4,
      "note": 66,
      "start": 48.1793,
      "duration": 0.6422,
      "velocity": 106,
      "chip": "ym2612"
    },
    {
      "channel": 1,
      "note": 87,
      "start": 48.514,
      "duration": 0.6419,
      "velocity": 106,
      "chip": "ym2612"
    },
    {
      "channel": 2,
      "note": 83,
      "start": 48.5145,
      "duration": 0.6417,
      "velocity": 106,
      "chip": "ym2612"
    },
    {
      "channel": 4,
      "note": 88,
      "start": 48.8497,
      "duration": 0.6424,
      "velocity": 106,
      "chip": "ym2612"
    },
    {
      "channel": 1,
      "note": 85,
      "start": 49.184,
      "duration": 0.3071,
      "velocity": 106,
      "chip": "ym2612"
    },
    {
      "channel": 2,
      "note": 81,
      "start": 49.1846,
      "duration": 0.3068,
      "velocity": 106,
      "chip": "ym2612"
    },
    {
      "channel": 3,
      "note": 68,
      "start": 49.1878,
      "duration": 0.0804,
      "velocity": 127,
      "chip": "ym2612"
    },
    {
      "channel": 3,
      "note": 47,
      "start": 49.2993,
      "duration": 0.0805,
      "velocity": 127,
      "chip": "ym2612"
    },
    {
      "channel": 3,
      "note": 47,
      "start": 49.4106,
      "duration": 0.0811,
      "velocity": 127,
      "chip": "ym2612"
    },
    {
      "channel": 1,
      "note": 83,
      "start": 49.5193,
      "duration": 0.3071,
      "velocity": 106,
      "chip": "ym2612"
    },
    {
      "channel": 2,
      "note": 80,
      "start": 49.5198,
      "duration": 0.3069,
      "velocity": 106,
      "chip": "ym2612"
    },
    {
      "channel": 3,
      "note": 47,
      "start": 49.5229,
      "duration": 0.0805,
      "velocity": 127,
      "chip": "ym2612"
    },
    {
      "channel": 4,
      "note": 87,
      "start": 49.5236,
      "duration": 0.3038,
      "velocity": 106,
      "chip": "ym2612"
    },
    {
      "channel": 3,
      "note": 47,
      "start": 49.6345,
      "duration": 0.0809,
      "velocity": 127,
      "chip": "ym2612"
    },
    {
      "channel": 3,
      "note": 47,
      "start": 49.7458,
      "duration": 0.0812,
      "velocity": 127,
      "chip": "ym2612"
    },
    {
      "channel": 0,
      "note": 49,
      "start": 49.8542,
      "duration": 0.018,
      "velocity": 103,
      "chip": "ym2612"
    },
    {
      "channel": 1,
      "note": 61,
      "start": 49.8548,
      "duration": 0.0178,
      "velocity": 106,
      "chip": "ym2612"
    },
    {
      "channel": 2,
      "note": 56,
      "start": 49.8554,
      "duration": 0.0174,
      "velocity": 106,
      "chip": "ym2612"
    },
    {
      "channel": 3,
      "note": 47,
      "start": 49.8587,
      "duration": 0.0144,
      "velocity": 127,
      "chip": "ym2612"
    },
    {
      "channel": 4,
      "note": 85,
      "start": 49.8594,
      "duration": 0.0334,
      "velocity": 106,
      "chip": "ym2612"
    },
    {
      "channel": 0,
      "note": 54,
      "start": 49.8752,
      "duration": 0.0163,
      "velocity": 103,
      "chip": "ym2612"
    },
    {
      "channel": 1,
      "note": 66,
      "start": 49.8757,
      "duration": 0.0161,
      "velocity": 106,
      "chip": "ym2612"
    },
    {
      "channel": 2,
      "note": 61,
      "start": 49.8762,
      "duration": 0.0158,
      "velocity": 106,
      "chip": "ym2612"
    },
    {
      "channel": 3,
      "note": 47,
      "start": 49.8794,
      "duration": 0.013,
      "velocity": 127,
      "chip": "ym2612"
    },
    {
      "channel": 0,
      "note": 56,
      "start": 49.8945,
      "duration": 0.0169,
      "velocity": 103,
      "chip": "ym2612"
    },
    {
      "channel": 1,
      "note": 68,
      "start": 49.895,
      "duration": 0.0166,
      "velocity": 106,
      "chip": "ym2612"
    },
    {
      "channel": 2,
      "note": 63,
      "start": 49.8956,
      "duration": 0.0164,
      "velocity": 106,
      "chip": "ym2612"
    },
    {
      "channel": 3,
      "note": 47,
      "start": 49.8987,
      "duration": 0.0136,
      "velocity": 127,
      "chip": "ym2612"
    },
    {
      "channel": 4,
      "note": 83,
      "start": 49.8995,
      "duration": 0.0131,
      "velocity": 106,
      "chip": "ym2612"
    },
    {
      "channel": 0,
      "note": 49,
      "start": 49.9145,
      "duration": 0.0175,
      "velocity": 103,
      "chip": "ym2612"
    },
    {
      "channel": 1,
      "note": 73,
      "start": 49.915,
      "duration": 0.0172,
      "velocity": 106,
      "chip": "ym2612"
    },
    {
      "channel": 2,
      "note": 68,
      "start": 49.9156,
      "duration": 0.0169,
      "velocity": 106,
      "chip": "ym2612"
    },
    {
      "channel": 3,
      "note": 47,
      "start": 49.9187,
      "duration": 0.0141,
      "velocity": 127,
      "chip": "ym2612"
    },
    {
      "channel": 4,
      "note": 61,
      "start": 49.9193,
      "duration": 0.0138,
      "velocity": 106,
      "chip": "ym2612"
    },
    {
      "channel": 0,
      "note": 54,
      "start": 49.9353,
      "duration": 0.0171,
      "velocity": 103,
      "chip": "ym2612"
    },
    {
      "channel": 1,
      "note": 78,
      "start": 49.9359,
      "duration": 0.0168,
      "velocity": 106,
      "chip": "ym2612"
    },
    {
      "channel": 2,
      "note": 73,
      "start": 49.9364,
      "duration": 0.0166,
      "velocity": 106,
      "chip": "ym2612"
    },
    {
      "channel": 3,
      "note": 47,
      "start": 49.9395,
      "duration": 0.0139,
      "velocity": 127,
      "chip": "ym2612"
    },
    {
      "channel": 4,
      "note": 66,
      "start": 49.9402,
      "duration": 0.0136,
      "velocity": 106,
      "chip": "ym2612"
    },
    {
      "channel": 0,
      "note": 56,
      "start": 49.9558,
      "duration": 0.0173,
      "velocity": 103,
      "chip": "ym2612"
    },
    {
      "channel": 1,
      "note": 80,
      "start": 49.9563,
      "duration": 0.0171,
      "velocity": 106,
      "chip": "ym2612"
    },
    {
      "channel": 2,
      "note": 75,
      "start": 49.9569,
      "duration": 0.0169,
      "velocity": 106,
      "chip": "ym2612"
    },
    {
      "channel": 3,
      "note": 47,
      "start": 49.96,
      "duration": 0.0141,
      "velocity": 127,
      "chip": "ym2612"
    },
    {
      "channel": 4,
      "note": 68,
      "start": 49.9607,
      "duration": 0.0141,
      "velocity": 106,
      "chip": "ym2612"
    },
    {
      "channel": 0,
      "note": 49,
      "start": 49.9768,
      "duration": 0.0182,
      "velocity": 103,
      "chip": "ym2612"
    },
    {
      "channel": 1,
      "note": 85,
      "start": 49.9774,
      "duration": 0.018,
      "velocity": 106,
      "chip": "ym2612"
    },
    {
      "channel": 2,
      "note": 80,
      "start": 49.9779,
      "duration": 0.018,
      "velocity": 106,
      "chip": "ym2612"
    },
    {
      "channel": 3,
      "note": 47,
      "start": 49.981,
      "duration": 0.0152,
      "velocity": 127,
      "chip": "ym2612"
    },
    {
      "channel": 4,
      "note": 73,
      "start": 49.9817,
      "duration": 0.0149,
      "velocity": 106,
      "chip": "ym2612"
    },
    {
      "channel": 0,
      "note": 54,
      "start": 49.9983,
      "duration": 0.0177,
      "velocity": 103,
      "chip": "ym2612"
    },
    {
      "channel": 1,
      "note": 90,
      "start": 49.9988,
      "duration": 0.0174,
      "velocity": 106,
      "chip": "ym2612"
    },
    {
      "channel": 2,
      "note": 85,
      "start": 49.9994,
      "duration": 0.0172,
      "velocity": 106,
      "chip": "ym2612"
    },
    {
      "channel": 3,
      "note": 47,
      "start": 50.0025,
      "duration": 0.0144,
      "velocity": 127,
      "chip": "ym2612"
    },
    {
      "channel": 4,
      "note": 78,
      "start": 50.0033,
      "duration": 0.0139,
      "velocity": 106,
      "chip": "ym2612"
    },
    {
      "channel": 0,
      "note": 56,
      "start": 50.0189,
      "duration": 0.0172,
      "velocity": 103,
      "chip": "ym2612"
    },
    {
      "channel": 1,
      "note": 92,
      "start": 50.0195,
      "duration": 0.0169,
      "velocity": 106,
      "chip": "ym2612"
    },
    {
      "channel": 2,
      "note": 87,
      "start": 50.02,
      "duration": 0.0167,
      "velocity": 106,
      "chip": "ym2612"
    },
    {
      "channel": 3,
      "note": 47,
      "start": 50.0232,
      "duration": 0.0137,
      "velocity": 127,
      "chip": "ym2612"
    },
    {
      "channel": 4,
      "note": 80,
      "start": 50.0242,
      "duration": 0.0131,
      "velocity": 106,
      "chip": "ym2612"
    },
    {
      "channel": 0,
      "note": 49,
      "start": 50.0395,
      "duration": 0.0177,
      "velocity": 103,
      "chip": "ym2612"
    },
    {
      "channel": 1,
      "note": 85,
      "start": 50.04,
      "duration": 0.0174,
      "velocity": 106,
      "chip": "ym2612"
    },
    {
      "channel": 2,
      "note": 80,
      "start": 50.0405,
      "duration": 0.0172,
      "velocity": 106,
      "chip": "ym2612"
    },
    {
      "channel": 3,
      "note": 47,
      "start": 50.0441,
      "duration": 0.0139,
      "velocity": 127,
      "chip": "ym2612"
    },
    {
      "channel": 4,
      "note": 85,
      "start": 50.0447,
      "duration": 0.0136,
      "velocity": 106,
      "chip": "ym2612"
    },
    {
      "channel": 0,
      "note": 54,
      "start": 50.0601,
      "duration": 0.0173,
      "velocity": 103,
      "chip": "ym2612"
    },
    {
      "channel": 1,
      "note": 90,
      "start": 50.0606,
      "duration": 0.0171,
      "velocity": 106,
      "chip": "ym2612"
    },
    {
      "channel": 2,
      "note": 85,
      "start": 50.0612,
      "duration": 0.0168,
      "velocity": 106,
      "chip": "ym2612"
    },
    {
      "channel": 3,
      "note": 47,
      "start": 50.0648,
      "duration": 0.0135,
      "velocity": 127,
      "chip": "ym2612"
    },
    {
      "channel": 4,
      "note": 90,
      "start": 50.0655,
      "duration": 0.0132,
      "velocity": 106,
      "chip": "ym2612"
    },
    {
      "channel": 0,
      "note": 56,
      "start": 50.0802,
      "duration": 0.0173,
      "velocity": 103,
      "chip": "ym2612"
    },
    {
      "channel": 1,
      "note": 92,
      "start": 50.0808,
      "duration": 0.0171,
      "velocity": 106,
      "chip": "ym2612"
    },
    {
      "channel": 2,
      "note": 87,
      "start": 50.0813,
      "duration": 0.0168,
      "velocity": 106,
      "chip": "ym2612"
    },
    {
      "channel": 3,
      "note": 47,
      "start": 50.0849,
      "duration": 0.0136,
      "velocity": 127,
      "chip": "ym2612"
    },
    {
      "channel": 4,
      "note": 92,
      "start": 50.0855,
      "duration": 0.0133,
      "velocity": 106,
      "chip": "ym2612"
    },
    {
      "channel": 0,
      "note": 49,
      "start": 50.101,
      "duration": 0.0182,
      "velocity": 103,
      "chip": "ym2612"
    },
    {
      "channel": 1,
      "note": 85,
      "start": 50.1015,
      "duration": 0.0179,
      "velocity": 106,
      "chip": "ym2612"
    },
    {
      "channel": 2,
      "note": 80,
      "start": 50.1022,
      "duration": 0.0175,
      "velocity": 106,
      "chip": "ym2612"
    },
    {
      "channel": 3,
      "note": 47,
      "start": 50.1056,
      "duration": 0.0144,
      "velocity": 127,
      "chip": "ym2612"
    },
    {
      "channel": 4,
      "note": 85,
      "start": 50.1063,
      "duration": 0.0141,
      "velocity": 106,
      "chip": "ym2612"
    },
    {
      "channel": 0,
      "note": 54,
      "start": 50.122,
      "duration": 0.0176,
      "velocity": 103,
      "chip": "ym2612"
    },
    {
      "channel": 1,
      "note": 90,
      "start": 50.1227,
      "duration": 0.0172,
      "velocity": 106,
      "chip": "ym2612"
    },
    {
      "channel": 2,
      "note": 85,
      "start": 50.1232,
      "duration": 0.0169,
      "velocity": 106,
      "chip": "ym2612"
    },
    {
      "channel": 3,
      "note": 47,
      "start": 50.1267,
      "duration": 0.0137,
      "velocity": 127,
      "chip": "ym2612"
    },
    {
      "channel": 4,
      "note": 90,
      "start": 50.1274,
      "duration": 0.0134,
      "velocity": 106,
      "chip": "ym2612"
    },
    {
      "channel": 0,
      "note": 56,
      "start": 50.1425,
      "duration": 0.0173,
      "velocity": 103,
      "chip": "ym2612"
    },
    {
      "channel": 1,
      "note": 92,
      "start": 50.1433,
      "duration": 0.0167,
      "velocity": 106,
      "chip": "ym2612"
    },
    {
      "channel": 2,
      "note": 87,
      "start": 50.1439,
      "duration": 0.0165,
      "velocity": 106,
      "chip": "ym2612"
    },
    {
      "channel": 3,
      "note": 47,
      "start": 50.147,
      "duration": 0.0137,
      "velocity": 127,
      "chip": "ym2612"
    },
    {
      "channel": 4,
      "note": 92,
      "start": 50.1476,
      "duration": 0.0134,
      "velocity": 106,
      "chip": "ym2612"
    },
    {
      "channel": 0,
      "note": 49,
      "start": 50.1634,
      "duration": 0.0175,
      "velocity": 103,
      "chip": "ym2612"
    },
    {
      "channel": 1,
      "note": 97,
      "start": 50.1639,
      "duration": 0.0173,
      "velocity": 106,
      "chip": "ym2612"
    },
    {
      "channel": 2,
      "note": 92,
      "start": 50.1645,
      "duration": 0.017,
      "velocity": 106,
      "chip": "ym2612"
    },
    {
      "channel": 3,
      "note": 47,
      "start": 50.1676,
      "duration": 0.0142,
      "velocity": 127,
      "chip": "ym2612"
    },
    {
      "channel": 4,
      "note": 85,
      "start": 50.1683,
      "duration": 0.0139,
      "velocity": 106,
      "chip": "ym2612"
    },
    {
      "channel": 0,
      "note": 42,
      "start": 50.1872,
      "duration": 4.8512,
      "velocity": 103,
      "chip": "ym2612"
    },
    {
      "channel": 1,
      "note": 35,
      "start": 50.19,
      "duration": 4.1783,
      "velocity": 127,
      "chip": "ym2612"
    },
    {
      "channel": 2,
      "note": 35,
      "start": 50.1927,
      "duration": 4.1759,
      "velocity": 127,
      "chip": "ym2612"
    },
    {
      "channel": 4,
      "note": 90,
      "start": 50.1968,
      "duration": 0.0143,
      "velocity": 106,
      "chip": "ym2612"
    },
    {
      "channel": 4,
      "note": 92,
      "start": 50.2139,
      "duration": 0.0124,
      "velocity": 106,
      "chip": "ym2612"
    },
    {
      "channel": 3,
      "note": 47,
      "start": 50.229,
      "duration": 2.1285,
      "velocity": 127,
      "chip": "ym2612"
    },
    {
      "channel": 4,
      "note": 97,
      "start": 50.2327,
      "duration": 4.4716,
      "velocity": 127,
      "chip": "ym2612"
    },
    {
      "channel": 3,
      "note": 35,
      "start": 52.3888,
      "duration": 0.304,
      "velocity": 127,
      "chip": "ym2612"
    },
    {
      "channel": 3,
      "note": 47,
      "start": 52.7239,
      "duration": 0.0806,
      "velocity": 127,
      "chip": "ym2612"
    },
    {
      "channel": 3,
      "note": 47,
      "start": 52.8352,
      "duration": 0.0811,
      "velocity": 127,
      "chip": "ym2612"
    },
    {
      "channel": 3,
      "note": 47,
      "start": 52.9469,
      "duration": 0.0811,
      "velocity": 127,
      "chip": "ym2612"
    },
    {
      "channel": 3,
      "note": 47,
      "start": 53.0591,
      "duration": 0.3041,
      "velocity": 127,
      "chip": "ym2612"
    },
    {
      "channel": 3,
      "note": 47,
      "start": 53.3942,
      "duration": 0.081,
      "velocity": 127,
      "chip": "ym2612"
    },
    {
      "channel": 3,
      "note": 47,
      "start": 53.5056,
      "duration": 0.081,
      "velocity": 127,
      "chip": "ym2612"
    },
    {
      "channel": 3,
      "note": 47,
      "start": 53.6174,
      "duration": 0.0812,
      "velocity": 127,
      "chip": "ym2612"
    },
    {
      "channel": 3,
      "note": 47,
      "start": 53.7291,
      "duration": 0.3045,
      "velocity": 127,
      "chip": "ym2612"
    },
    {
      "channel": 3,
      "note": 47,
      "start": 54.0643,
      "duration": 0.0811,
      "velocity": 127,
      "chip": "ym2612"
    },
    {
      "channel": 3,
      "note": 47,
      "start": 54.1766,
      "duration": 0.0808,
      "velocity": 127,
      "chip": "ym2612"
    },
    {
      "channel": 3,
      "note": 47,
      "start": 54.2878,
      "duration": 0.0812,
      "velocity": 127,
      "chip": "ym2612"
    },
    {
      "channel": 1,
      "note": 66,
      "start": 54.3983,
      "duration": 0.6404,
      "velocity": 106,
      "chip": "ym2612"
    },
    {
      "channel": 2,
      "note": 54,
      "start": 54.4006,
      "duration": 0.6384,
      "velocity": 106,
      "chip": "ym2612"
    },
    {
      "channel": 3,
      "note": 47,
      "start": 54.4038,
      "duration": 0.1327,
      "velocity": 127,
      "chip": "ym2612"
    },
    {
      "channel": 3,
      "note": 47,
      "start": 54.5671,
      "duration": 0.1369,
      "velocity": 127,
      "chip": "ym2612"
    },
    {
      "channel": 3,
      "note": 47,
      "start": 54.7347,
      "duration": 0.1369,
      "velocity": 127,
      "chip": "ym2612"
    },
    {
      "channel": 4,
      "note": 35,
      "start": 54.7381,
      "duration": 0.6367,
      "velocity": 106,
      "chip": "ym2612"
    },
    {
      "channel": 3,
      "note": 47,
      "start": 54.9023,
      "duration": 0.1371,
      "velocity": 127,
      "chip": "ym2612"
    },
    {
      "channel": 0,
      "note": 42,
      "start": 55.0666,
      "duration": 2.6536,
      "velocity": 103,
      "chip": "ym2612"
    },
    {
      "channel": 1,
      "note": 76,
      "start": 55.0671,
      "duration": 1.9829,
      "velocity": 106,
      "chip": "ym2612"
    },
    {
      "channel": 2,
      "note": 57,
      "start": 55.0677,
      "duration": 1.9827,
      "velocity": 106,
      "chip": "ym2612"
    },
    {
      "channel": 3,
      "note": 47,
      "start": 55.0712,
      "duration": 0.3032,
      "velocity": 127,
      "chip": "ym2612"
    },
    {
      "channel": 3,
      "note": 47,
      "start": 55.4051,
      "duration": 0.081,
      "velocity": 127,
      "chip": "ym2612"
    },
    {
      "channel": 4,
      "note": 66,
      "start": 55.4058,
      "duration": 1.9804,
      "velocity": 106,
      "chip": "ym2612"
    },
    {
      "channel": 3,
      "note": 47,
      "start": 55.5168,
      "duration": 0.081,
      "velocity": 127,
      "chip": "ym2612"
    },
    {
      "channel": 3,
      "note": 47,
      "start": 55.6291,
      "duration": 0.0808,
      "velocity": 127,
      "chip": "ym2612"
    },
    {
      "channel": 3,
      "note": 47,
      "start": 55.7404,
      "duration": 0.3048,
      "velocity": 127,
      "chip": "ym2612"
    },
    {
      "channel": 3,
      "note": 47,
      "start": 56.0756,
      "duration": 0.081,
      "velocity": 127,
      "chip": "ym2612"
    },
    {
      "channel": 3,
      "note": 47,
      "start": 56.1873,
      "duration": 0.0812,
      "velocity": 127,
      "chip": "ym2612"
    },
    {
      "channel": 3,
      "note": 47,
      "start": 56.2991,
      "duration": 0.081,
      "velocity": 127,
      "chip": "ym2612"
    },
    {
      "channel": 3,
      "note": 47,
      "start": 56.4112,
      "duration": 0.3041,
      "velocity": 127,
      "chip": "ym2612"
    },
    {
      "channel": 3,
      "note": 47,
      "start": 56.7465,
      "duration": 0.0809,
      "velocity": 127,
      "chip": "ym2612"
    },
    {
      "channel": 3,
      "note": 47,
      "start": 56.8578,
      "duration": 0.081,
      "velocity": 127,
      "chip": "ym2612"
    },
    {
      "channel": 3,
      "note": 47,
      "start": 56.9695,
      "duration": 0.0811,
      "velocity": 127,
      "chip": "ym2612"
    },
    {
      "channel": 1,
      "note": 75,
      "start": 57.0783,
      "duration": 0.6422,
      "velocity": 106,
      "chip": "ym2612"
    },
    {
      "channel": 2,
      "note": 56,
      "start": 57.0791,
      "duration": 0.6417,
      "velocity": 106,
      "chip": "ym2612"
    },
    {
      "channel": 3,
      "note": 47,
      "start": 57.0822,
      "duration": 0.1359,
      "velocity": 127,
      "chip": "ym2612"
    },
    {
      "channel": 3,
      "note": 47,
      "start": 57.2491,
      "duration": 0.1367,
      "velocity": 127,
      "chip": "ym2612"
    },
    {
      "channel": 3,
      "note": 47,
      "start": 57.4164,
      "duration": 0.1369,
      "velocity": 127,
      "chip": "ym2612"
    },
    {
      "channel": 4,
      "note": 76,
      "start": 57.4171,
      "duration": 0.6394,
      "velocity": 106,
      "chip": "ym2612"
    },
    {
      "channel": 3,
      "note": 47,
      "start": 57.5841,
      "duration": 0.1371,
      "velocity": 127,
      "chip": "ym2612"
    },
    {
      "channel": 0,
      "note": 42,
      "start": 57.7483,
      "duration": 1.3127,
      "velocity": 103,
      "chip": "ym2612"
    },
    {
      "channel": 1,
      "note": 73,
      "start": 57.7488,
      "duration": 1.3125,
      "velocity": 106,
      "chip": "ym2612"
    },
    {
      "channel": 2,
      "note": 57,
      "start": 57.7494,
      "duration": 1.3122,
      "velocity": 106,
      "chip": "ym2612"
    },
    {
      "channel": 3,
      "note": 47,
      "start": 57.753,
      "duration": 0.3032,
      "velocity": 127,
      "chip": "ym2612"
    },
    {
      "channel": 3,
      "note": 47,
      "start": 58.0868,
      "duration": 0.0811,
      "velocity": 127,
      "chip": "ym2612"
    },
    {
      "channel": 4,
      "note": 75,
      "start": 58.0875,
      "duration": 1.31,
      "velocity": 106,
      "chip": "ym2612"
    },
    {
      "channel": 3,
      "note": 47,
      "start": 58.199,
      "duration": 0.0807,
      "velocity": 127,
      "chip": "ym2612"
    },
    {
      "channel": 3,
      "note": 47,
      "start": 58.3103,
      "duration": 0.0812,
      "velocity": 127,
      "chip": "ym2612"
    },
    {
      "channel": 3,
      "note": 47,
      "start": 58.4222,
      "duration": 0.3045,
      "velocity": 127,
      "chip": "ym2612"
    },
    {
      "channel": 3,
      "note": 47,
      "start": 58.7574,
      "duration": 0.081,
      "velocity": 127,
      "chip": "ym2612"
    },
    {
      "channel": 3,
      "note": 47,
      "start": 58.8691,
      "duration": 0.0812,
      "velocity": 127,
      "chip": "ym2612"
    },
    {
      "channel": 3,
      "note": 47,
      "start": 58.9813,
      "duration": 0.0807,
      "velocity": 127,
      "chip": "ym2612"
    },
    {
      "channel": 0,
      "note": 38,
      "start": 59.0892,
      "duration": 1.3127,
      "velocity": 103,
      "chip": "ym2612"
    },
    {
      "channel": 1,
      "note": 71,
      "start": 59.0897,
      "duration": 1.3125,
      "velocity": 106,
      "chip": "ym2612"
    },
    {
      "channel": 2,
      "note": 57,
      "start": 59.0902,
      "duration": 1.3123,
      "velocity": 106,
      "chip": "ym2612"
    },
    {
      "channel": 3,
      "note": 47,
      "start": 59.0934,
      "duration": 0.3036,
      "velocity": 127,
      "chip": "ym2612"
    },
    {
      "channel": 3,
      "note": 47,
      "start": 59.4277,
      "duration": 0.0811,
      "velocity": 127,
      "chip": "ym2612"
    },
    {
      "channel": 4,
      "note": 73,
      "start": 59.4283,
      "duration": 1.3099,
      "velocity": 106,
      "chip": "ym2612"
    },
    {
      "channel": 3,
      "note": 47,
      "start": 59.5394,
      "duration": 0.0811,
      "velocity": 127,
      "chip": "ym2612"
    },
    {
      "channel": 3,
      "note": 47,
      "start": 59.6517,
      "duration": 0.081,
      "velocity": 127,
      "chip": "ym2612"
    },
    {
      "channel": 3,
      "note": 47,
      "start": 59.763,
      "duration": 0.1373,
      "velocity": 127,
      "chip": "ym2612"
    },
    {
      "channel": 3,
      "note": 47,
      "start": 59.9306,
      "duration": 0.1369,
      "velocity": 127,
      "chip": "ym2612"
    },
    {
      "channel": 3,
      "note": 47,
      "start": 60.0983,
      "duration": 0.1368,
      "velocity": 127,
      "chip": "ym2612"
    },
    {
      "channel": 3,
      "note": 47,
      "start": 60.2663,
      "duration": 0.1365,
      "velocity": 127,
      "chip": "ym2612"
    },
    {
      "channel": 0,
      "note": 42,
      "start": 60.43,
      "duration": 32.8058,
      "velocity": 103,
      "chip": "ym2612"
    },
    {
      "channel": 1,
      "note": 73,
      "start": 60.4306,
      "duration": 32.8052,
      "velocity": 106,
      "chip": "ym2612"
    },
    {
      "channel": 2,
      "note": 57,
      "start": 60.4311,
      "duration": 32.8047,
      "velocity": 106,
      "chip": "ym2612"
    },
    {
      "channel": 3,
      "note": 47,
      "start": 60.4352,
      "duration": 0.3027,
      "velocity": 127,
      "chip": "ym2612"
    },
    {
      "channel": 3,
      "note": 47,
      "start": 60.769,
      "duration": 0.0808,
      "velocity": 127,
      "chip": "ym2612"
    },
    {
      "channel": 4,
      "note": 71,
      "start": 60.7697,
      "duration": 32.4661,
      "velocity": 106,
      "chip": "ym2612"
    },
    {
      "channel": 3,
      "note": 47,
      "start": 60.8803,
      "duration": 0.0811,
      "velocity": 127,
      "chip": "ym2612"
    },
    {
      "channel": 3,
      "note": 47,
      "start": 60.992,
      "duration": 0.0812,
      "velocity": 127,
      "chip": "ym2612"
    },
    {
      "channel": 3,
      "note": 47,
      "start": 61.1041,
      "duration": 0.3043,
      "velocity": 127,
      "chip": "ym2612"
    },
    {
      "channel": 3,
      "note": 47,
      "start": 61.4391,
      "duration": 0.0811,
      "velocity": 127,
      "chip": "ym2612"
    },
    {
      "channel": 3,
      "note": 47,
      "start": 61.5513,
      "duration": 0.0808,
      "velocity": 127,
      "chip": "ym2612"
    },
    {
      "channel": 3,
      "note": 47,
      "start": 61.6626,
      "duration": 0.081,
      "velocity": 127,
      "chip": "ym2612"
    },
    {
      "channel": 3,
      "note": 47,
      "start": 61.7743,
      "duration": 0.3045,
      "velocity": 127,
      "chip": "ym2612"
    },
    {
      "channel": 3,
      "note": 47,
      "start": 62.1095,
      "duration": 0.0812,
      "velocity": 127,
      "chip": "ym2612"
    },
    {
      "channel": 3,
      "note": 47,
      "start": 62.2218,
      "duration": 0.0808,
      "velocity": 127,
      "chip": "ym2612"
    },
    {
      "channel": 3,
      "note": 47,
      "start": 62.333,
      "duration": 0.081,
      "velocity": 127,
      "chip": "ym2612"
    },
    {
      "channel": 3,
      "note": 47,
      "start": 62.4447,
      "duration": 30.7911,
      "velocity": 127,
      "chip": "ym2612"
    }
  ]
}