{
  "track_name": "20 - Sky Castle",
  "duration_sec": 67.293,
  "sample_rate": 44100,
  "note_count": 1227,
  "unique_pitches": 48,
  "pitch_range": 72,
  "avg_note_duration": 0.1679,
  "reconstruction_stats": {
    "notes_reconstructed": 1227,
    "keyon_events": 1227,
    "keyoff_events": 1226,
    "orphan_keyons": 1,
    "unique_pitches": 48,
    "pitch_range": 72,
    "avg_duration_sec": 0.1679
  },
  "metadata": {
    "source": "W\\Wonder Boy in Monster World\\20 - Sky Castle.vgz"
  },
  "notes": [
    {
      "channel": 0,
      "note": 65,
      "start": 0.0514,
      "duration": 0.0954,
      "velocity": 105,
      "chip": "ym2612"
    },
    {
      "channel": 3,
      "note": 93,
      "start": 0.0541,
      "duration": 0.2132,
      "velocity": 99,
      "chip": "ym2612"
    },
    {
      "channel": 1,
      "note": 90,
      "start": 0.057,
      "duration": 0.2105,
      "velocity": 99,
      "chip": "ym2612"
    },
    {
      "channel": 5,
      "note": 24,
      "start": 0.0589,
      "duration": 0.2608,
      "velocity": 120,
      "chip": "ym2612"
    },
    {
      "channel": 0,
      "note": 48,
      "start": 0.1876,
      "duration": 0.0964,
      "velocity": 105,
      "chip": "ym2612"
    },
    {
      "channel": 0,
      "note": 48,
      "start": 0.3254,
      "duration": 0.0959,
      "velocity": 105,
      "chip": "ym2612"
    },
    {
      "channel": 3,
      "note": 67,
      "start": 0.327,
      "duration": 0.0944,
      "velocity": 99,
      "chip": "ym2612"
    },
    {
      "channel": 4,
      "note": 85,
      "start": 0.3302,
      "duration": 0.0919,
      "velocity": 99,
      "chip": "ym2612"
    },
    {
      "channel": 5,
      "note": 24,
      "start": 0.333,
      "duration": 0.256,
      "velocity": 120,
      "chip": "ym2612"
    },
    {
      "channel": 3,
      "note": 69,
      "start": 0.4626,
      "duration": 0.0964,
      "velocity": 99,
      "chip": "ym2612"
    },
    {
      "channel": 1,
      "note": 71,
      "start": 0.4644,
      "duration": 0.0948,
      "velocity": 99,
      "chip": "ym2612"
    },
    {
      "channel": 0,
      "note": 60,
      "start": 0.6011,
      "duration": 0.209,
      "velocity": 105,
      "chip": "ym2612"
    },
    {
      "channel": 3,
      "note": 67,
      "start": 0.6028,
      "duration": 0.1278,
      "velocity": 99,
      "chip": "ym2612"
    },
    {
      "channel": 4,
      "note": 64,
      "start": 0.605,
      "duration": 0.0922,
      "velocity": 99,
      "chip": "ym2612"
    },
    {
      "channel": 5,
      "note": 35,
      "start": 0.6077,
      "duration": 0.1239,
      "velocity": 120,
      "chip": "ym2612"
    },
    {
      "channel": 5,
      "note": 24,
      "start": 0.7385,
      "duration": 0.1307,
      "velocity": 120,
      "chip": "ym2612"
    },
    {
      "channel": 0,
      "note": 47,
      "start": 0.8752,
      "duration": 0.1007,
      "velocity": 105,
      "chip": "ym2612"
    },
    {
      "channel": 1,
      "note": 64,
      "start": 0.8773,
      "duration": 0.0939,
      "velocity": 99,
      "chip": "ym2612"
    },
    {
      "channel": 4,
      "note": 64,
      "start": 0.8791,
      "duration": 0.0922,
      "velocity": 99,
      "chip": "ym2612"
    },
    {
      "channel": 5,
      "note": 24,
      "start": 0.8818,
      "duration": 0.1246,
      "velocity": 120,
      "chip": "ym2612"
    },
    {
      "channel": 0,
      "note": 59,
      "start": 1.1483,
      "duration": 0.2164,
      "velocity": 105,
      "chip": "ym2612"
    },
    {
      "channel": 5,
      "note": 35,
      "start": 1.1523,
      "duration": 0.2658,
      "velocity": 120,
      "chip": "ym2612"
    },
    {
      "channel": 0,
      "note": 45,
      "start": 1.4241,
      "duration": 0.1007,
      "velocity": 105,
      "chip": "ym2612"
    },
    {
      "channel": 3,
      "note": 69,
      "start": 1.4258,
      "duration": 0.0938,
      "velocity": 99,
      "chip": "ym2612"
    },
    {
      "channel": 1,
      "note": 60,
      "start": 1.4276,
      "duration": 0.0921,
      "velocity": 99,
      "chip": "ym2612"
    },
    {
      "channel": 5,
      "note": 24,
      "start": 1.4307,
      "duration": 0.1246,
      "velocity": 120,
      "chip": "ym2612"
    },
    {
      "channel": 3,
      "note": 60,
      "start": 1.5605,
      "duration": 0.0964,
      "velocity": 99,
      "chip": "ym2612"
    },
    {
      "channel": 4,
      "note": 64,
      "start": 1.5627,
      "duration": 0.0949,
      "velocity": 99,
      "chip": "ym2612"
    },
    {
      "channel": 0,
      "note": 57,
      "start": 1.6817,
      "duration": 0.2148,
      "velocity": 105,
      "chip": "ym2612"
    },
    {
      "channel": 3,
      "note": 62,
      "start": 1.6834,
      "duration": 0.0936,
      "velocity": 99,
      "chip": "ym2612"
    },
    {
      "channel": 1,
      "note": 64,
      "start": 1.6851,
      "duration": 0.0919,
      "velocity": 99,
      "chip": "ym2612"
    },
    {
      "channel": 5,
      "note": 35,
      "start": 1.6885,
      "duration": 0.1241,
      "velocity": 120,
      "chip": "ym2612"
    },
    {
      "channel": 3,
      "note": 64,
      "start": 1.8178,
      "duration": 0.0964,
      "velocity": 99,
      "chip": "ym2612"
    },
    {
      "channel": 4,
      "note": 59,
      "start": 1.82,
      "duration": 0.0949,
      "velocity": 99,
      "chip": "ym2612"
    },
    {
      "channel": 0,
      "note": 43,
      "start": 1.9564,
      "duration": 0.1002,
      "velocity": 105,
      "chip": "ym2612"
    },
    {
      "channel": 3,
      "note": 66,
      "start": 1.958,
      "duration": 0.0934,
      "velocity": 99,
      "chip": "ym2612"
    },
    {
      "channel": 1,
      "note": 60,
      "start": 1.9598,
      "duration": 0.0917,
      "velocity": 99,
      "chip": "ym2612"
    },
    {
      "channel": 5,
      "note": 24,
      "start": 1.9629,
      "duration": 0.1242,
      "velocity": 120,
      "chip": "ym2612"
    },
    {
      "channel": 3,
      "note": 67,
      "start": 2.0923,
      "duration": 0.0964,
      "velocity": 99,
      "chip": "ym2612"
    },
    {
      "channel": 4,
      "note": 62,
      "start": 2.0945,
      "duration": 0.0948,
      "velocity": 99,
      "chip": "ym2612"
    },
    {
      "channel": 0,
      "note": 55,
      "start": 2.2312,
      "duration": 0.0999,
      "velocity": 105,
      "chip": "ym2612"
    },
    {
      "channel": 3,
      "note": 69,
      "start": 2.2329,
      "duration": 0.0931,
      "velocity": 99,
      "chip": "ym2612"
    },
    {
      "channel": 1,
      "note": 64,
      "start": 2.2346,
      "duration": 0.0914,
      "velocity": 99,
      "chip": "ym2612"
    },
    {
      "channel": 5,
      "note": 35,
      "start": 2.2378,
      "duration": 0.261,
      "velocity": 120,
      "chip": "ym2612"
    },
    {
      "channel": 0,
      "note": 48,
      "start": 2.3671,
      "duration": 0.107,
      "velocity": 105,
      "chip": "ym2612"
    },
    {
      "channel": 3,
      "note": 62,
      "start": 2.3685,
      "duration": 0.0946,
      "velocity": 99,
      "chip": "ym2612"
    },
    {
      "channel": 4,
      "note": 66,
      "start": 2.3708,
      "duration": 0.093,
      "velocity": 99,
      "chip": "ym2612"
    },
    {
      "channel": 0,
      "note": 48,
      "start": 2.5035,
      "duration": 0.1021,
      "velocity": 105,
      "chip": "ym2612"
    },
    {
      "channel": 5,
      "note": 24,
      "start": 2.5074,
      "duration": 0.2659,
      "velocity": 120,
      "chip": "ym2612"
    },
    {
      "channel": 3,
      "note": 64,
      "start": 2.6412,
      "duration": 0.0964,
      "velocity": 99,
      "chip": "ym2612"
    },
    {
      "channel": 1,
      "note": 59,
      "start": 2.643,
      "duration": 0.0948,
      "velocity": 99,
      "chip": "ym2612"
    },
    {
      "channel": 0,
      "note": 60,
      "start": 2.7793,
      "duration": 0.2151,
      "velocity": 105,
      "chip": "ym2612"
    },
    {
      "channel": 3,
      "note": 62,
      "start": 2.781,
      "duration": 0.0939,
      "velocity": 99,
      "chip": "ym2612"
    },
    {
      "channel": 4,
      "note": 60,
      "start": 2.7832,
      "duration": 0.0923,
      "velocity": 99,
      "chip": "ym2612"
    },
    {
      "channel": 5,
      "note": 35,
      "start": 2.7859,
      "duration": 0.1247,
      "velocity": 120,
      "chip": "ym2612"
    },
    {
      "channel": 5,
      "note": 24,
      "start": 2.9171,
      "duration": 0.1307,
      "velocity": 120,
      "chip": "ym2612"
    },
    {
      "channel": 0,
      "note": 47,
      "start": 3.0537,
      "duration": 0.1008,
      "velocity": 105,
      "chip": "ym2612"
    },
    {
      "channel": 3,
      "note": 64,
      "start": 3.0554,
      "duration": 0.094,
      "velocity": 99,
      "chip": "ym2612"
    },
    {
      "channel": 1,
      "note": 59,
      "start": 3.0572,
      "duration": 0.0923,
      "velocity": 99,
      "chip": "ym2612"
    },
    {
      "channel": 5,
      "note": 24,
      "start": 3.0603,
      "duration": 0.1247,
      "velocity": 120,
      "chip": "ym2612"
    },
    {
      "channel": 3,
      "note": 64,
      "start": 3.1902,
      "duration": 0.0964,
      "velocity": 99,
      "chip": "ym2612"
    },
    {
      "channel": 4,
      "note": 60,
      "start": 3.1924,
      "duration": 0.0948,
      "velocity": 99,
      "chip": "ym2612"
    },
    {
      "channel": 0,
      "note": 59,
      "start": 3.3097,
      "duration": 0.2165,
      "velocity": 105,
      "chip": "ym2612"
    },
    {
      "channel": 5,
      "note": 35,
      "start": 3.3142,
      "duration": 0.2653,
      "velocity": 120,
      "chip": "ym2612"
    },
    {
      "channel": 3,
      "note": 66,
      "start": 3.4475,
      "duration": 0.0964,
      "velocity": 99,
      "chip": "ym2612"
    },
    {
      "channel": 1,
      "note": 60,
      "start": 3.4493,
      "duration": 0.0947,
      "velocity": 99,
      "chip": "ym2612"
    },
    {
      "channel": 0,
      "note": 45,
      "start": 3.5855,
      "duration": 0.1008,
      "velocity": 105,
      "chip": "ym2612"
    },
    {
      "channel": 3,
      "note": 69,
      "start": 3.5872,
      "duration": 0.0939,
      "velocity": 99,
      "chip": "ym2612"
    },
    {
      "channel": 4,
      "note": 62,
      "start": 3.5894,
      "duration": 0.0923,
      "velocity": 99,
      "chip": "ym2612"
    },
    {
      "channel": 5,
      "note": 24,
      "start": 3.5922,
      "duration": 0.1246,
      "velocity": 120,
      "chip": "ym2612"
    },
    {
      "channel": 0,
      "note": 57,
      "start": 3.8604,
      "duration": 0.209,
      "velocity": 105,
      "chip": "ym2612"
    },
    {
      "channel": 3,
      "note": 71,
      "start": 3.8621,
      "duration": 0.1278,
      "velocity": 99,
      "chip": "ym2612"
    },
    {
      "channel": 1,
      "note": 60,
      "start": 3.8638,
      "duration": 0.0922,
      "velocity": 99,
      "chip": "ym2612"
    },
    {
      "channel": 5,
      "note": 35,
      "start": 3.867,
      "duration": 0.124,
      "velocity": 120,
      "chip": "ym2612"
    },
    {
      "channel": 0,
      "note": 43,
      "start": 4.1351,
      "duration": 0.1002,
      "velocity": 105,
      "chip": "ym2612"
    },
    {
      "channel": 1,
      "note": 62,
      "start": 4.1373,
      "duration": 0.0933,
      "velocity": 99,
      "chip": "ym2612"
    },
    {
      "channel": 4,
      "note": 62,
      "start": 4.139,
      "duration": 0.0917,
      "velocity": 99,
      "chip": "ym2612"
    },
    {
      "channel": 5,
      "note": 24,
      "start": 4.1417,
      "duration": 0.124,
      "velocity": 120,
      "chip": "ym2612"
    },
    {
      "channel": 0,
      "note": 55,
      "start": 4.41,
      "duration": 0.2141,
      "velocity": 105,
      "chip": "ym2612"
    },
    {
      "channel": 3,
      "note": 71,
      "start": 4.4117,
      "duration": 0.2125,
      "velocity": 99,
      "chip": "ym2612"
    },
    {
      "channel": 1,
      "note": 74,
      "start": 4.4134,
      "duration": 0.211,
      "velocity": 99,
      "chip": "ym2612"
    },
    {
      "channel": 5,
      "note": 35,
      "start": 4.4166,
      "duration": 0.2609,
      "velocity": 120,
      "chip": "ym2612"
    },
    {
      "channel": 0,
      "note": 47,
      "start": 4.6835,
      "duration": 0.1007,
      "velocity": 105,
      "chip": "ym2612"
    },
    {
      "channel": 3,
      "note": 66,
      "start": 4.6851,
      "duration": 0.0938,
      "velocity": 99,
      "chip": "ym2612"
    },
    {
      "channel": 4,
      "note": 66,
      "start": 4.6874,
      "duration": 0.0922,
      "velocity": 99,
      "chip": "ym2612"
    },
    {
      "channel": 5,
      "note": 24,
      "start": 4.6899,
      "duration": 0.2496,
      "velocity": 120,
      "chip": "ym2612"
    },
    {
      "channel": 0,
      "note": 59,
      "start": 4.9411,
      "duration": 0.2148,
      "velocity": 105,
      "chip": "ym2612"
    },
    {
      "channel": 3,
      "note": 74,
      "start": 4.9428,
      "duration": 0.0935,
      "velocity": 99,
      "chip": "ym2612"
    },
    {
      "channel": 1,
      "note": 74,
      "start": 4.9446,
      "duration": 0.0919,
      "velocity": 99,
      "chip": "ym2612"
    },
    {
      "channel": 5,
      "note": 35,
      "start": 4.9478,
      "duration": 0.1242,
      "velocity": 120,
      "chip": "ym2612"
    },
    {
      "channel": 3,
      "note": 71,
      "start": 5.0775,
      "duration": 0.0961,
      "velocity": 99,
      "chip": "ym2612"
    },
    {
      "channel": 4,
      "note": 66,
      "start": 5.0797,
      "duration": 0.0945,
      "velocity": 99,
      "chip": "ym2612"
    },
    {
      "channel": 5,
      "note": 24,
      "start": 5.0815,
      "duration": 0.1278,
      "velocity": 120,
      "chip": "ym2612"
    },
    {
      "channel": 0,
      "note": 45,
      "start": 5.2139,
      "duration": 0.1021,
      "velocity": 105,
      "chip": "ym2612"
    },
    {
      "channel": 5,
      "note": 24,
      "start": 5.2178,
      "duration": 0.1286,
      "velocity": 120,
      "chip": "ym2612"
    },
    {
      "channel": 3,
      "note": 69,
      "start": 5.3516,
      "duration": 0.2165,
      "velocity": 99,
      "chip": "ym2612"
    },
    {
      "channel": 1,
      "note": 62,
      "start": 5.3534,
      "duration": 0.2148,
      "velocity": 99,
      "chip": "ym2612"
    },
    {
      "channel": 0,
      "note": 57,
      "start": 5.4884,
      "duration": 0.2107,
      "velocity": 105,
      "chip": "ym2612"
    },
    {
      "channel": 5,
      "note": 35,
      "start": 5.4924,
      "duration": 0.2658,
      "velocity": 120,
      "chip": "ym2612"
    },
    {
      "channel": 3,
      "note": 71,
      "start": 5.6261,
      "duration": 0.0964,
      "velocity": 99,
      "chip": "ym2612"
    },
    {
      "channel": 4,
      "note": 60,
      "start": 5.6283,
      "duration": 0.0948,
      "velocity": 99,
      "chip": "ym2612"
    },
    {
      "channel": 0,
      "note": 43,
      "start": 5.7641,
      "duration": 0.1008,
      "velocity": 105,
      "chip": "ym2612"
    },
    {
      "channel": 3,
      "note": 71,
      "start": 5.7658,
      "duration": 0.0939,
      "velocity": 99,
      "chip": "ym2612"
    },
    {
      "channel": 1,
      "note": 62,
      "start": 5.7676,
      "duration": 0.0922,
      "velocity": 99,
      "chip": "ym2612"
    },
    {
      "channel": 5,
      "note": 24,
      "start": 5.7708,
      "duration": 0.1246,
      "velocity": 120,
      "chip": "ym2612"
    },
    {
      "channel": 0,
      "note": 55,
      "start": 6.039,
      "duration": 0.2148,
      "velocity": 105,
      "chip": "ym2612"
    },
    {
      "channel": 3,
      "note": 69,
      "start": 6.0407,
      "duration": 0.2132,
      "velocity": 99,
      "chip": "ym2612"
    },
    {
      "channel": 4,
      "note": 62,
      "start": 6.0429,
      "duration": 0.2117,
      "velocity": 99,
      "chip": "ym2612"
    },
    {
      "channel": 5,
      "note": 35,
      "start": 6.0456,
      "duration": 0.1243,
      "velocity": 120,
      "chip": "ym2612"
    },
    {
      "channel": 0,
      "note": 42,
      "start": 6.3136,
      "duration": 0.1003,
      "velocity": 105,
      "chip": "ym2612"
    },
    {
      "channel": 3,
      "note": 62,
      "start": 6.3152,
      "duration": 0.2078,
      "velocity": 99,
      "chip": "ym2612"
    },
    {
      "channel": 1,
      "note": 60,
      "start": 6.317,
      "duration": 0.2062,
      "velocity": 99,
      "chip": "ym2612"
    },
    {
      "channel": 5,
      "note": 24,
      "start": 6.32,
      "duration": 0.1244,
      "velocity": 120,
      "chip": "ym2612"
    },
    {
      "channel": 0,
      "note": 54,
      "start": 6.5713,
      "duration": 0.2142,
      "velocity": 105,
      "chip": "ym2612"
    },
    {
      "channel": 3,
      "note": 64,
      "start": 6.573,
      "duration": 0.2127,
      "velocity": 99,
      "chip": "ym2612"
    },
    {
      "channel": 4,
      "note": 59,
      "start": 6.5753,
      "duration": 0.211,
      "velocity": 99,
      "chip": "ym2612"
    },
    {
      "channel": 5,
      "note": 35,
      "start": 6.578,
      "duration": 0.2609,
      "velocity": 120,
      "chip": "ym2612"
    },
    {
      "channel": 0,
      "note": 40,
      "start": 6.8435,
      "duration": 0.1021,
      "velocity": 105,
      "chip": "ym2612"
    },
    {
      "channel": 5,
      "note": 24,
      "start": 6.8476,
      "duration": 0.2601,
      "velocity": 120,
      "chip": "ym2612"
    },
    {
      "channel": 0,
      "note": 52,
      "start": 6.9807,
      "duration": 0.1078,
      "velocity": 105,
      "chip": "ym2612"
    },
    {
      "channel": 0,
      "note": 52,
      "start": 7.1198,
      "duration": 0.209,
      "velocity": 105,
      "chip": "ym2612"
    },
    {
      "channel": 3,
      "note": 76,
      "start": 7.1214,
      "duration": 0.2075,
      "velocity": 99,
      "chip": "ym2612"
    },
    {
      "channel": 1,
      "note": 60,
      "start": 7.1232,
      "duration": 0.2059,
      "velocity": 99,
      "chip": "ym2612"
    },
    {
      "channel": 5,
      "note": 35,
      "start": 7.1264,
      "duration": 0.1242,
      "velocity": 120,
      "chip": "ym2612"
    },
    {
      "channel": 5,
      "note": 24,
      "start": 7.2572,
      "duration": 0.1307,
      "velocity": 120,
      "chip": "ym2612"
    },
    {
      "channel": 0,
      "note": 42,
      "start": 7.3925,
      "duration": 0.1021,
      "velocity": 105,
      "chip": "ym2612"
    },
    {
      "channel": 5,
      "note": 24,
      "start": 7.3965,
      "duration": 0.1286,
      "velocity": 120,
      "chip": "ym2612"
    },
    {
      "channel": 0,
      "note": 54,
      "start": 7.5298,
      "duration": 0.1021,
      "velocity": 105,
      "chip": "ym2612"
    },
    {
      "channel": 0,
      "note": 54,
      "start": 7.6687,
      "duration": 0.2148,
      "velocity": 105,
      "chip": "ym2612"
    },
    {
      "channel": 3,
      "note": 74,
      "start": 7.6703,
      "duration": 0.2132,
      "velocity": 99,
      "chip": "ym2612"
    },
    {
      "channel": 4,
      "note": 71,
      "start": 7.6726,
      "duration": 0.2116,
      "velocity": 99,
      "chip": "ym2612"
    },
    {
      "channel": 5,
      "note": 35,
      "start": 7.6753,
      "duration": 0.2615,
      "velocity": 120,
      "chip": "ym2612"
    },
    {
      "channel": 0,
      "note": 43,
      "start": 7.9415,
      "duration": 0.1021,
      "velocity": 105,
      "chip": "ym2612"
    },
    {
      "channel": 5,
      "note": 24,
      "start": 7.9454,
      "duration": 0.1286,
      "velocity": 120,
      "chip": "ym2612"
    },
    {
      "channel": 0,
      "note": 55,
      "start": 8.0787,
      "duration": 0.1078,
      "velocity": 105,
      "chip": "ym2612"
    },
    {
      "channel": 0,
      "note": 55,
      "start": 8.2176,
      "duration": 0.209,
      "velocity": 105,
      "chip": "ym2612"
    },
    {
      "channel": 3,
      "note": 72,
      "start": 8.2193,
      "duration": 0.4309,
      "velocity": 99,
      "chip": "ym2612"
    },
    {
      "channel": 1,
      "note": 69,
      "start": 8.221,
      "duration": 0.4293,
      "velocity": 99,
      "chip": "ym2612"
    },
    {
      "channel": 5,
      "note": 35,
      "start": 8.2241,
      "duration": 0.1244,
      "velocity": 120,
      "chip": "ym2612"
    },
    {
      "channel": 0,
      "note": 45,
      "start": 8.4732,
      "duration": 0.1021,
      "velocity": 105,
      "chip": "ym2612"
    },
    {
      "channel": 5,
      "note": 24,
      "start": 8.4772,
      "duration": 0.1288,
      "velocity": 120,
      "chip": "ym2612"
    },
    {
      "channel": 0,
      "note": 57,
      "start": 8.6105,
      "duration": 0.1078,
      "velocity": 105,
      "chip": "ym2612"
    },
    {
      "channel": 0,
      "note": 57,
      "start": 8.75,
      "duration": 0.0998,
      "velocity": 105,
      "chip": "ym2612"
    },
    {
      "channel": 3,
      "note": 71,
      "start": 8.7516,
      "duration": 0.2073,
      "velocity": 99,
      "chip": "ym2612"
    },
    {
      "channel": 4,
      "note": 69,
      "start": 8.7537,
      "duration": 0.2058,
      "velocity": 99,
      "chip": "ym2612"
    },
    {
      "channel": 5,
      "note": 35,
      "start": 8.7565,
      "duration": 0.2611,
      "velocity": 120,
      "chip": "ym2612"
    },
    {
      "channel": 0,
      "note": 48,
      "start": 8.8849,
      "duration": 0.1022,
      "velocity": 105,
      "chip": "ym2612"
    },
    {
      "channel": 0,
      "note": 48,
      "start": 9.0235,
      "duration": 0.1007,
      "velocity": 105,
      "chip": "ym2612"
    },
    {
      "channel": 3,
      "note": 71,
      "start": 9.0252,
      "duration": 0.0939,
      "velocity": 99,
      "chip": "ym2612"
    },
    {
      "channel": 1,
      "note": 67,
      "start": 9.0269,
      "duration": 0.0922,
      "velocity": 99,
      "chip": "ym2612"
    },
    {
      "channel": 5,
      "note": 24,
      "start": 9.0301,
      "duration": 0.2618,
      "velocity": 120,
      "chip": "ym2612"
    },
    {
      "channel": 3,
      "note": 69,
      "start": 9.1599,
      "duration": 0.0964,
      "velocity": 99,
      "chip": "ym2612"
    },
    {
      "channel": 4,
      "note": 67,
      "start": 9.1621,
      "duration": 0.0948,
      "velocity": 99,
      "chip": "ym2612"
    },
    {
      "channel": 0,
      "note": 60,
      "start": 9.298,
      "duration": 0.2094,
      "velocity": 105,
      "chip": "ym2612"
    },
    {
      "channel": 3,
      "note": 67,
      "start": 9.2997,
      "duration": 0.1282,
      "velocity": 99,
      "chip": "ym2612"
    },
    {
      "channel": 1,
      "note": 64,
      "start": 9.3014,
      "duration": 0.0926,
      "velocity": 99,
      "chip": "ym2612"
    },
    {
      "channel": 5,
      "note": 35,
      "start": 9.3046,
      "duration": 0.1244,
      "velocity": 120,
      "chip": "ym2612"
    },
    {
      "channel": 5,
      "note": 24,
      "start": 9.4357,
      "duration": 0.1307,
      "velocity": 120,
      "chip": "ym2612"
    },
    {
      "channel": 0,
      "note": 47,
      "start": 9.5725,
      "duration": 0.1007,
      "velocity": 105,
      "chip": "ym2612"
    },
    {
      "channel": 1,
      "note": 64,
      "start": 9.5746,
      "duration": 0.0939,
      "velocity": 99,
      "chip": "ym2612"
    },
    {
      "channel": 4,
      "note": 64,
      "start": 9.5764,
      "duration": 0.0922,
      "velocity": 99,
      "chip": "ym2612"
    },
    {
      "channel": 5,
      "note": 24,
      "start": 9.5791,
      "duration": 0.1245,
      "velocity": 120,
      "chip": "ym2612"
    },
    {
      "channel": 0,
      "note": 59,
      "start": 9.8456,
      "duration": 0.2107,
      "velocity": 105,
      "chip": "ym2612"
    },
    {
      "channel": 5,
      "note": 35,
      "start": 9.8495,
      "duration": 0.2537,
      "velocity": 120,
      "chip": "ym2612"
    },
    {
      "channel": 0,
      "note": 45,
      "start": 10.1049,
      "duration": 0.1001,
      "velocity": 105,
      "chip": "ym2612"
    },
    {
      "channel": 3,
      "note": 69,
      "start": 10.1065,
      "duration": 0.0932,
      "velocity": 99,
      "chip": "ym2612"
    },
    {
      "channel": 1,
      "note": 64,
      "start": 10.1083,
      "duration": 0.0916,
      "velocity": 99,
      "chip": "ym2612"
    },
    {
      "channel": 5,
      "note": 24,
      "start": 10.1113,
      "duration": 0.1242,
      "velocity": 120,
      "chip": "ym2612"
    },
    {
      "channel": 3,
      "note": 60,
      "start": 10.2406,
      "duration": 0.0964,
      "velocity": 99,
      "chip": "ym2612"
    },
    {
      "channel": 4,
      "note": 60,
      "start": 10.2429,
      "duration": 0.0948,
      "velocity": 99,
      "chip": "ym2612"
    },
    {
      "channel": 0,
      "note": 57,
      "start": 10.379,
      "duration": 0.2091,
      "velocity": 105,
      "chip": "ym2612"
    },
    {
      "channel": 3,
      "note": 62,
      "start": 10.3806,
      "duration": 0.0936,
      "velocity": 99,
      "chip": "ym2612"
    },
    {
      "channel": 1,
      "note": 64,
      "start": 10.3824,
      "duration": 0.092,
      "velocity": 99,
      "chip": "ym2612"
    },
    {
      "channel": 5,
      "note": 35,
      "start": 10.3855,
      "duration": 0.1244,
      "velocity": 120,
      "chip": "ym2612"
    },
    {
      "channel": 3,
      "note": 64,
      "start": 10.5151,
      "duration": 0.0964,
      "velocity": 99,
      "chip": "ym2612"
    },
    {
      "channel": 4,
      "note": 59,
      "start": 10.5173,
      "duration": 0.0948,
      "velocity": 99,
      "chip": "ym2612"
    },
    {
      "channel": 0,
      "note": 43,
      "start": 10.6537,
      "duration": 0.106,
      "velocity": 105,
      "chip": "ym2612"
    },
    {
      "channel": 3,
      "note": 66,
      "start": 10.6553,
      "duration": 0.0934,
      "velocity": 99,
      "chip": "ym2612"
    },
    {
      "channel": 1,
      "note": 60,
      "start": 10.6571,
      "duration": 0.0917,
      "velocity": 99,
      "chip": "ym2612"
    },
    {
      "channel": 5,
      "note": 24,
      "start": 10.6602,
      "duration": 0.1242,
      "velocity": 120,
      "chip": "ym2612"
    },
    {
      "channel": 3,
      "note": 67,
      "start": 10.7895,
      "duration": 0.0964,
      "velocity": 99,
      "chip": "ym2612"
    },
    {
      "channel": 4,
      "note": 62,
      "start": 10.7918,
      "duration": 0.0949,
      "velocity": 99,
      "chip": "ym2612"
    },
    {
      "channel": 0,
      "note": 55,
      "start": 10.9285,
      "duration": 0.0999,
      "velocity": 105,
      "chip": "ym2612"
    },
    {
      "channel": 3,
      "note": 69,
      "start": 10.9302,
      "duration": 0.093,
      "velocity": 99,
      "chip": "ym2612"
    },
    {
      "channel": 1,
      "note": 64,
      "start": 10.932,
      "duration": 0.0913,
      "velocity": 99,
      "chip": "ym2612"
    },
    {
      "channel": 5,
      "note": 35,
      "start": 10.9351,
      "duration": 0.2552,
      "velocity": 120,
      "chip": "ym2612"
    },
    {
      "channel": 0,
      "note": 48,
      "start": 11.0644,
      "duration": 0.1013,
      "velocity": 105,
      "chip": "ym2612"
    },
    {
      "channel": 3,
      "note": 62,
      "start": 11.0658,
      "duration": 0.0946,
      "velocity": 99,
      "chip": "ym2612"
    },
    {
      "channel": 4,
      "note": 66,
      "start": 11.068,
      "duration": 0.0931,
      "velocity": 99,
      "chip": "ym2612"
    },
    {
      "channel": 0,
      "note": 48,
      "start": 11.2008,
      "duration": 0.1021,
      "velocity": 105,
      "chip": "ym2612"
    },
    {
      "channel": 5,
      "note": 24,
      "start": 11.2047,
      "duration": 0.2659,
      "velocity": 120,
      "chip": "ym2612"
    },
    {
      "channel": 3,
      "note": 64,
      "start": 11.3385,
      "duration": 0.0964,
      "velocity": 99,
      "chip": "ym2612"
    },
    {
      "channel": 1,
      "note": 59,
      "start": 11.3402,
      "duration": 0.0948,
      "velocity": 99,
      "chip": "ym2612"
    },
    {
      "channel": 0,
      "note": 60,
      "start": 11.4766,
      "duration": 0.2094,
      "velocity": 105,
      "chip": "ym2612"
    },
    {
      "channel": 3,
      "note": 62,
      "start": 11.4782,
      "duration": 0.0939,
      "velocity": 99,
      "chip": "ym2612"
    },
    {
      "channel": 4,
      "note": 60,
      "start": 11.4804,
      "duration": 0.0924,
      "velocity": 99,
      "chip": "ym2612"
    },
    {
      "channel": 5,
      "note": 35,
      "start": 11.4832,
      "duration": 0.1094,
      "velocity": 120,
      "chip": "ym2612"
    },
    {
      "channel": 5,
      "note": 24,
      "start": 11.5978,
      "duration": 0.1301,
      "velocity": 120,
      "chip": "ym2612"
    },
    {
      "channel": 0,
      "note": 47,
      "start": 11.7338,
      "duration": 0.1008,
      "velocity": 105,
      "chip": "ym2612"
    },
    {
      "channel": 3,
      "note": 64,
      "start": 11.7355,
      "duration": 0.094,
      "velocity": 99,
      "chip": "ym2612"
    },
    {
      "channel": 1,
      "note": 59,
      "start": 11.7373,
      "duration": 0.0923,
      "velocity": 99,
      "chip": "ym2612"
    },
    {
      "channel": 5,
      "note": 24,
      "start": 11.7405,
      "duration": 0.1246,
      "velocity": 120,
      "chip": "ym2612"
    },
    {
      "channel": 3,
      "note": 64,
      "start": 11.8703,
      "duration": 0.0964,
      "velocity": 99,
      "chip": "ym2612"
    },
    {
      "channel": 4,
      "note": 60,
      "start": 11.8725,
      "duration": 0.0949,
      "velocity": 99,
      "chip": "ym2612"
    },
    {
      "channel": 0,
      "note": 59,
      "start": 12.007,
      "duration": 0.2165,
      "velocity": 105,
      "chip": "ym2612"
    },
    {
      "channel": 5,
      "note": 35,
      "start": 12.011,
      "duration": 0.2659,
      "velocity": 120,
      "chip": "ym2612"
    },
    {
      "channel": 3,
      "note": 66,
      "start": 12.1448,
      "duration": 0.0964,
      "velocity": 99,
      "chip": "ym2612"
    },
    {
      "channel": 1,
      "note": 60,
      "start": 12.1465,
      "duration": 0.0947,
      "velocity": 99,
      "chip": "ym2612"
    },
    {
      "channel": 0,
      "note": 45,
      "start": 12.2829,
      "duration": 0.1065,
      "velocity": 105,
      "chip": "ym2612"
    },
    {
      "channel": 3,
      "note": 69,
      "start": 12.2845,
      "duration": 0.0939,
      "velocity": 99,
      "chip": "ym2612"
    },
    {
      "channel": 4,
      "note": 62,
      "start": 12.2867,
      "duration": 0.0923,
      "velocity": 99,
      "chip": "ym2612"
    },
    {
      "channel": 5,
      "note": 24,
      "start": 12.2894,
      "duration": 0.1247,
      "velocity": 120,
      "chip": "ym2612"
    },
    {
      "channel": 0,
      "note": 57,
      "start": 12.5577,
      "duration": 0.209,
      "velocity": 105,
      "chip": "ym2612"
    },
    {
      "channel": 3,
      "note": 71,
      "start": 12.5593,
      "duration": 0.1279,
      "velocity": 99,
      "chip": "ym2612"
    },
    {
      "channel": 1,
      "note": 60,
      "start": 12.5611,
      "duration": 0.0922,
      "velocity": 99,
      "chip": "ym2612"
    },
    {
      "channel": 5,
      "note": 35,
      "start": 12.5642,
      "duration": 0.1241,
      "velocity": 120,
      "chip": "ym2612"
    },
    {
      "channel": 0,
      "note": 43,
      "start": 12.8324,
      "duration": 0.1002,
      "velocity": 105,
      "chip": "ym2612"
    },
    {
      "channel": 1,
      "note": 62,
      "start": 12.8345,
      "duration": 0.0933,
      "velocity": 99,
      "chip": "ym2612"
    },
    {
      "channel": 4,
      "note": 62,
      "start": 12.8363,
      "duration": 0.0917,
      "velocity": 99,
      "chip": "ym2612"
    },
    {
      "channel": 5,
      "note": 24,
      "start": 12.839,
      "duration": 0.1241,
      "velocity": 120,
      "chip": "ym2612"
    },
    {
      "channel": 0,
      "note": 55,
      "start": 13.1073,
      "duration": 0.1969,
      "velocity": 105,
      "chip": "ym2612"
    },
    {
      "channel": 3,
      "note": 71,
      "start": 13.109,
      "duration": 0.1954,
      "velocity": 99,
      "chip": "ym2612"
    },
    {
      "channel": 1,
      "note": 74,
      "start": 13.1108,
      "duration": 0.1938,
      "velocity": 99,
      "chip": "ym2612"
    },
    {
      "channel": 5,
      "note": 35,
      "start": 13.1139,
      "duration": 0.2316,
      "velocity": 120,
      "chip": "ym2612"
    },
    {
      "channel": 0,
      "note": 47,
      "start": 13.3472,
      "duration": 0.0943,
      "velocity": 105,
      "chip": "ym2612"
    },
    {
      "channel": 3,
      "note": 66,
      "start": 13.3488,
      "duration": 0.0874,
      "velocity": 99,
      "chip": "ym2612"
    },
    {
      "channel": 4,
      "note": 66,
      "start": 13.351,
      "duration": 0.0858,
      "velocity": 99,
      "chip": "ym2612"
    },
    {
      "channel": 5,
      "note": 24,
      "start": 13.3536,
      "duration": 0.2385,
      "velocity": 120,
      "chip": "ym2612"
    },
    {
      "channel": 0,
      "note": 59,
      "start": 13.6041,
      "duration": 0.1976,
      "velocity": 105,
      "chip": "ym2612"
    },
    {
      "channel": 3,
      "note": 74,
      "start": 13.6058,
      "duration": 0.0878,
      "velocity": 99,
      "chip": "ym2612"
    },
    {
      "channel": 1,
      "note": 74,
      "start": 13.6076,
      "duration": 0.0861,
      "velocity": 99,
      "chip": "ym2612"
    },
    {
      "channel": 5,
      "note": 35,
      "start": 13.6107,
      "duration": 0.1134,
      "velocity": 120,
      "chip": "ym2612"
    },
    {
      "channel": 3,
      "note": 71,
      "start": 13.741,
      "duration": 0.0898,
      "velocity": 99,
      "chip": "ym2612"
    },
    {
      "channel": 4,
      "note": 66,
      "start": 13.7432,
      "duration": 0.0882,
      "velocity": 99,
      "chip": "ym2612"
    },
    {
      "channel": 5,
      "note": 24,
      "start": 13.745,
      "duration": 0.1129,
      "velocity": 120,
      "chip": "ym2612"
    },
    {
      "channel": 0,
      "note": 45,
      "start": 13.8597,
      "duration": 0.0964,
      "velocity": 105,
      "chip": "ym2612"
    },
    {
      "channel": 5,
      "note": 24,
      "start": 13.8642,
      "duration": 0.1195,
      "velocity": 120,
      "chip": "ym2612"
    },
    {
      "channel": 3,
      "note": 69,
      "start": 13.9805,
      "duration": 0.1991,
      "velocity": 99,
      "chip": "ym2612"
    },
    {
      "channel": 1,
      "note": 62,
      "start": 13.9823,
      "duration": 0.1975,
      "velocity": 99,
      "chip": "ym2612"
    },
    {
      "channel": 0,
      "note": 57,
      "start": 14.117,
      "duration": 0.1993,
      "velocity": 105,
      "chip": "ym2612"
    },
    {
      "channel": 5,
      "note": 35,
      "start": 14.121,
      "duration": 0.2365,
      "velocity": 120,
      "chip": "ym2612"
    },
    {
      "channel": 3,
      "note": 71,
      "start": 14.2376,
      "duration": 0.0907,
      "velocity": 99,
      "chip": "ym2612"
    },
    {
      "channel": 4,
      "note": 60,
      "start": 14.2399,
      "duration": 0.089,
      "velocity": 99,
      "chip": "ym2612"
    },
    {
      "channel": 0,
      "note": 43,
      "start": 14.3591,
      "duration": 0.0944,
      "velocity": 105,
      "chip": "ym2612"
    },
    {
      "channel": 3,
      "note": 71,
      "start": 14.3608,
      "duration": 0.0875,
      "velocity": 99,
      "chip": "ym2612"
    },
    {
      "channel": 1,
      "note": 62,
      "start": 14.3626,
      "duration": 0.0859,
      "velocity": 99,
      "chip": "ym2612"
    },
    {
      "channel": 5,
      "note": 24,
      "start": 14.3659,
      "duration": 0.1129,
      "velocity": 120,
      "chip": "ym2612"
    },
    {
      "channel": 0,
      "note": 55,
      "start": 14.6163,
      "duration": 0.1974,
      "velocity": 105,
      "chip": "ym2612"
    },
    {
      "channel": 3,
      "note": 69,
      "start": 14.618,
      "duration": 0.196,
      "velocity": 99,
      "chip": "ym2612"
    },
    {
      "channel": 4,
      "note": 62,
      "start": 14.6203,
      "duration": 0.1943,
      "velocity": 99,
      "chip": "ym2612"
    },
    {
      "channel": 5,
      "note": 35,
      "start": 14.6229,
      "duration": 0.1127,
      "velocity": 120,
      "chip": "ym2612"
    },
    {
      "channel": 0,
      "note": 42,
      "start": 14.8737,
      "duration": 0.0945,
      "velocity": 105,
      "chip": "ym2612"
    },
    {
      "channel": 3,
      "note": 62,
      "start": 14.8754,
      "duration": 0.1963,
      "velocity": 99,
      "chip": "ym2612"
    },
    {
      "channel": 1,
      "note": 60,
      "start": 14.8771,
      "duration": 0.1946,
      "velocity": 99,
      "chip": "ym2612"
    },
    {
      "channel": 5,
      "note": 24,
      "start": 14.8802,
      "duration": 0.1128,
      "velocity": 120,
      "chip": "ym2612"
    },
    {
      "channel": 0,
      "note": 54,
      "start": 15.1325,
      "duration": 0.0302,
      "velocity": 105,
      "chip": "ym2612"
    },
    {
      "channel": 3,
      "note": 64,
      "start": 15.1341,
      "duration": 0.0453,
      "velocity": 99,
      "chip": "ym2612"
    },
    {
      "channel": 4,
      "note": 59,
      "start": 15.1364,
      "duration": 0.0539,
      "velocity": 99,
      "chip": "ym2612"
    },
    {
      "channel": 5,
      "note": 35,
      "start": 15.1383,
      "duration": 0.0424,
      "velocity": 120,
      "chip": "ym2612"
    },
    {
      "channel": 0,
      "note": 40,
      "start": 15.1824,
      "duration": 0.0317,
      "velocity": 105,
      "chip": "ym2612"
    },
    {
      "channel": 3,
      "note": 67,
      "start": 15.184,
      "duration": 0.0534,
      "velocity": 99,
      "chip": "ym2612"
    },
    {
      "channel": 1,
      "note": 60,
      "start": 15.1858,
      "duration": 0.0518,
      "velocity": 99,
      "chip": "ym2612"
    },
    {
      "channel": 5,
      "note": 35,
      "start": 15.1881,
      "duration": 0.0502,
      "velocity": 120,
      "chip": "ym2612"
    },
    {
      "channel": 0,
      "note": 38,
      "start": 15.2508,
      "duration": 0.0319,
      "velocity": 105,
      "chip": "ym2612"
    },
    {
      "channel": 3,
      "note": 66,
      "start": 15.2524,
      "duration": 0.0536,
      "velocity": 99,
      "chip": "ym2612"
    },
    {
      "channel": 4,
      "note": 64,
      "start": 15.2547,
      "duration": 0.052,
      "velocity": 99,
      "chip": "ym2612"
    },
    {
      "channel": 5,
      "note": 35,
      "start": 15.2565,
      "duration": 0.0503,
      "velocity": 120,
      "chip": "ym2612"
    },
    {
      "channel": 0,
      "note": 37,
      "start": 15.3194,
      "duration": 0.0376,
      "velocity": 105,
      "chip": "ym2612"
    },
    {
      "channel": 3,
      "note": 64,
      "start": 15.3211,
      "duration": 0.0463,
      "velocity": 99,
      "chip": "ym2612"
    },
    {
      "channel": 1,
      "note": 62,
      "start": 15.3229,
      "duration": 0.0522,
      "velocity": 99,
      "chip": "ym2612"
    },
    {
      "channel": 5,
      "note": 35,
      "start": 15.3252,
      "duration": 0.0506,
      "velocity": 120,
      "chip": "ym2612"
    },
    {
      "channel": 3,
      "note": 62,
      "start": 15.3701,
      "duration": 0.0561,
      "velocity": 99,
      "chip": "ym2612"
    },
    {
      "channel": 4,
      "note": 60,
      "start": 15.3723,
      "duration": 0.0545,
      "velocity": 99,
      "chip": "ym2612"
    },
    {
      "channel": 0,
      "note": 35,
      "start": 15.6114,
      "duration": 0.0373,
      "velocity": 105,
      "chip": "ym2612"
    },
    {
      "channel": 3,
      "note": 64,
      "start": 15.613,
      "duration": 0.0533,
      "velocity": 99,
      "chip": "ym2612"
    },
    {
      "channel": 1,
      "note": 59,
      "start": 15.6148,
      "duration": 0.0517,
      "velocity": 99,
      "chip": "ym2612"
    },
    {
      "channel": 5,
      "note": 35,
      "start": 15.6171,
      "duration": 0.05,
      "velocity": 120,
      "chip": "ym2612"
    },
    {
      "channel": 0,
      "note": 43,
      "start": 15.6797,
      "duration": 0.0319,
      "velocity": 105,
      "chip": "ym2612"
    },
    {
      "channel": 3,
      "note": 69,
      "start": 15.6813,
      "duration": 0.0536,
      "velocity": 99,
      "chip": "ym2612"
    },
    {
      "channel": 4,
      "note": 60,
      "start": 15.6836,
      "duration": 0.0519,
      "velocity": 99,
      "chip": "ym2612"
    },
    {
      "channel": 5,
      "note": 35,
      "start": 15.6854,
      "duration": 0.0503,
      "velocity": 120,
      "chip": "ym2612"
    },
    {
      "channel": 0,
      "note": 42,
      "start": 15.7483,
      "duration": 0.0319,
      "velocity": 105,
      "chip": "ym2612"
    },
    {
      "channel": 3,
      "note": 67,
      "start": 15.75,
      "duration": 0.0469,
      "velocity": 99,
      "chip": "ym2612"
    },
    {
      "channel": 1,
      "note": 66,
      "start": 15.7517,
      "duration": 0.0507,
      "velocity": 99,
      "chip": "ym2612"
    },
    {
      "channel": 5,
      "note": 35,
      "start": 15.754,
      "duration": 0.0441,
      "velocity": 120,
      "chip": "ym2612"
    },
    {
      "channel": 0,
      "note": 40,
      "start": 15.7998,
      "duration": 0.0318,
      "velocity": 105,
      "chip": "ym2612"
    },
    {
      "channel": 3,
      "note": 66,
      "start": 15.8015,
      "duration": 0.0463,
      "velocity": 99,
      "chip": "ym2612"
    },
    {
      "channel": 4,
      "note": 64,
      "start": 15.8035,
      "duration": 0.0524,
      "velocity": 99,
      "chip": "ym2612"
    },
    {
      "channel": 5,
      "note": 35,
      "start": 15.8053,
      "duration": 0.0508,
      "velocity": 120,
      "chip": "ym2612"
    },
    {
      "channel": 3,
      "note": 64,
      "start": 15.8504,
      "duration": 0.0561,
      "velocity": 99,
      "chip": "ym2612"
    },
    {
      "channel": 1,
      "note": 62,
      "start": 15.8522,
      "duration": 0.0544,
      "velocity": 99,
      "chip": "ym2612"
    },
    {
      "channel": 0,
      "note": 38,
      "start": 16.3332,
      "duration": 0.1904,
      "velocity": 105,
      "chip": "ym2612"
    },
    {
      "channel": 3,
      "note": 62,
      "start": 16.3359,
      "duration": 0.2339,
      "velocity": 126,
      "chip": "ym2612"
    },
    {
      "channel": 1,
      "note": 59,
      "start": 16.3386,
      "duration": 0.2313,
      "velocity": 126,
      "chip": "ym2612"
    },
    {
      "channel": 4,
      "note": 60,
      "start": 16.3412,
      "duration": 0.1834,
      "velocity": 80,
      "chip": "ym2612"
    },
    {
      "channel": 5,
      "note": 35,
      "start": 16.343,
      "duration": 0.1082,
      "velocity": 120,
      "chip": "ym2612"
    },
    {
      "channel": 5,
      "note": 35,
      "start": 16.4577,
      "duration": 0.1129,
      "velocity": 120,
      "chip": "ym2612"
    },
    {
      "channel": 0,
      "note": 35,
      "start": 16.5776,
      "duration": 0.1804,
      "velocity": 105,
      "chip": "ym2612"
    },
    {
      "channel": 3,
      "note": 54,
      "start": 16.5792,
      "duration": 0.2186,
      "velocity": 126,
      "chip": "ym2612"
    },
    {
      "channel": 1,
      "note": 59,
      "start": 16.581,
      "duration": 0.2179,
      "velocity": 126,
      "chip": "ym2612"
    },
    {
      "channel": 4,
      "note": 71,
      "start": 16.5826,
      "duration": 0.1765,
      "velocity": 80,
      "chip": "ym2612"
    },
    {
      "channel": 5,
      "note": 35,
      "start": 16.5843,
      "duration": 0.1071,
      "velocity": 120,
      "chip": "ym2612"
    },
    {
      "channel": 0,
      "note": 37,
      "start": 16.8016,
      "duration": 0.1793,
      "velocity": 105,
      "chip": "ym2612"
    },
    {
      "channel": 3,
      "note": 56,
      "start": 16.8033,
      "duration": 0.2239,
      "velocity": 126,
      "chip": "ym2612"
    },
    {
      "channel": 1,
      "note": 61,
      "start": 16.8049,
      "duration": 0.2224,
      "velocity": 126,
      "chip": "ym2612"
    },
    {
      "channel": 4,
      "note": 73,
      "start": 16.8066,
      "duration": 0.1755,
      "velocity": 80,
      "chip": "ym2612"
    },
    {
      "channel": 5,
      "note": 35,
      "start": 16.8083,
      "duration": 0.1061,
      "velocity": 120,
      "chip": "ym2612"
    },
    {
      "channel": 5,
      "note": 35,
      "start": 16.9209,
      "duration": 0.1135,
      "velocity": 120,
      "chip": "ym2612"
    },
    {
      "channel": 0,
      "note": 38,
      "start": 17.0433,
      "duration": 0.1664,
      "velocity": 105,
      "chip": "ym2612"
    },
    {
      "channel": 3,
      "note": 57,
      "start": 17.0449,
      "duration": 0.3139,
      "velocity": 126,
      "chip": "ym2612"
    },
    {
      "channel": 1,
      "note": 62,
      "start": 17.0467,
      "duration": 0.3123,
      "velocity": 126,
      "chip": "ym2612"
    },
    {
      "channel": 4,
      "note": 74,
      "start": 17.0484,
      "duration": 0.1624,
      "velocity": 80,
      "chip": "ym2612"
    },
    {
      "channel": 5,
      "note": 35,
      "start": 17.051,
      "duration": 0.2064,
      "velocity": 120,
      "chip": "ym2612"
    },
    {
      "channel": 4,
      "note": 76,
      "start": 17.2694,
      "duration": 0.1648,
      "velocity": 80,
      "chip": "ym2612"
    },
    {
      "channel": 5,
      "note": 24,
      "start": 17.272,
      "duration": 0.1998,
      "velocity": 120,
      "chip": "ym2612"
    },
    {
      "channel": 0,
      "note": 40,
      "start": 17.3715,
      "duration": 0.1699,
      "velocity": 105,
      "chip": "ym2612"
    },
    {
      "channel": 3,
      "note": 59,
      "start": 17.3731,
      "duration": 0.2088,
      "velocity": 126,
      "chip": "ym2612"
    },
    {
      "channel": 1,
      "note": 64,
      "start": 17.3749,
      "duration": 0.2072,
      "velocity": 126,
      "chip": "ym2612"
    },
    {
      "channel": 4,
      "note": 79,
      "start": 17.475,
      "duration": 0.165,
      "velocity": 80,
      "chip": "ym2612"
    },
    {
      "channel": 5,
      "note": 35,
      "start": 17.4776,
      "duration": 0.0965,
      "velocity": 120,
      "chip": "ym2612"
    },
    {
      "channel": 5,
      "note": 24,
      "start": 17.5785,
      "duration": 0.1024,
      "velocity": 120,
      "chip": "ym2612"
    },
    {
      "channel": 0,
      "note": 38,
      "start": 17.6825,
      "duration": 0.1734,
      "velocity": 105,
      "chip": "ym2612"
    },
    {
      "channel": 3,
      "note": 57,
      "start": 17.6852,
      "duration": 0.3427,
      "velocity": 80,
      "chip": "ym2612"
    },
    {
      "channel": 1,
      "note": 62,
      "start": 17.6869,
      "duration": 0.1013,
      "velocity": 126,
      "chip": "ym2612"
    },
    {
      "channel": 4,
      "note": 84,
      "start": 17.6897,
      "duration": 0.0987,
      "velocity": 126,
      "chip": "ym2612"
    },
    {
      "channel": 5,
      "note": 24,
      "start": 17.6923,
      "duration": 0.0963,
      "velocity": 120,
      "chip": "ym2612"
    },
    {
      "channel": 5,
      "note": 35,
      "start": 17.911,
      "duration": 0.2035,
      "velocity": 120,
      "chip": "ym2612"
    },
    {
      "channel": 0,
      "note": 40,
      "start": 18.1162,
      "duration": 0.1685,
      "velocity": 105,
      "chip": "ym2612"
    },
    {
      "channel": 1,
      "note": 59,
      "start": 18.1194,
      "duration": 0.166,
      "velocity": 80,
      "chip": "ym2612"
    },
    {
      "channel": 4,
      "note": 64,
      "start": 18.1211,
      "duration": 0.2108,
      "velocity": 126,
      "chip": "ym2612"
    },
    {
      "channel": 5,
      "note": 24,
      "start": 18.1237,
      "duration": 0.1001,
      "velocity": 120,
      "chip": "ym2612"
    },
    {
      "channel": 0,
      "note": 43,
      "start": 18.3445,
      "duration": 0.1632,
      "velocity": 105,
      "chip": "ym2612"
    },
    {
      "channel": 3,
      "note": 83,
      "start": 18.3461,
      "duration": 0.1617,
      "velocity": 80,
      "chip": "ym2612"
    },
    {
      "channel": 1,
      "note": 76,
      "start": 18.3489,
      "duration": 0.2125,
      "velocity": 126,
      "chip": "ym2612"
    },
    {
      "channel": 5,
      "note": 35,
      "start": 18.352,
      "duration": 0.0949,
      "velocity": 120,
      "chip": "ym2612"
    },
    {
      "channel": 0,
      "note": 45,
      "start": 18.5506,
      "duration": 0.1687,
      "velocity": 105,
      "chip": "ym2612"
    },
    {
      "channel": 3,
      "note": 79,
      "start": 18.5533,
      "duration": 0.2066,
      "velocity": 126,
      "chip": "ym2612"
    },
    {
      "channel": 4,
      "note": 67,
      "start": 18.5565,
      "duration": 1.5537,
      "velocity": 80,
      "chip": "ym2612"
    },
    {
      "channel": 5,
      "note": 24,
      "start": 18.5592,
      "duration": 0.0993,
      "velocity": 120,
      "chip": "ym2612"
    },
    {
      "channel": 0,
      "note": 47,
      "start": 18.7801,
      "duration": 0.168,
      "velocity": 105,
      "chip": "ym2612"
    },
    {
      "channel": 3,
      "note": 62,
      "start": 18.7817,
      "duration": 0.3025,
      "velocity": 126,
      "chip": "ym2612"
    },
    {
      "channel": 1,
      "note": 66,
      "start": 18.7834,
      "duration": 0.3018,
      "velocity": 126,
      "chip": "ym2612"
    },
    {
      "channel": 5,
      "note": 35,
      "start": 18.7865,
      "duration": 0.1941,
      "velocity": 120,
      "chip": "ym2612"
    },
    {
      "channel": 5,
      "note": 24,
      "start": 18.986,
      "duration": 0.2099,
      "velocity": 120,
      "chip": "ym2612"
    },
    {
      "channel": 0,
      "note": 40,
      "start": 19.0869,
      "duration": 0.1698,
      "velocity": 105,
      "chip": "ym2612"
    },
    {
      "channel": 3,
      "note": 64,
      "start": 19.0886,
      "duration": 0.2087,
      "velocity": 126,
      "chip": "ym2612"
    },
    {
      "channel": 1,
      "note": 59,
      "start": 19.0903,
      "duration": 0.2072,
      "velocity": 126,
      "chip": "ym2612"
    },
    {
      "channel": 5,
      "note": 35,
      "start": 19.2091,
      "duration": 0.0977,
      "velocity": 120,
      "chip": "ym2612"
    },
    {
      "channel": 5,
      "note": 24,
      "start": 19.3111,
      "duration": 0.1012,
      "velocity": 120,
      "chip": "ym2612"
    },
    {
      "channel": 0,
      "note": 38,
      "start": 19.414,
      "duration": 0.163,
      "velocity": 105,
      "chip": "ym2612"
    },
    {
      "channel": 3,
      "note": 57,
      "start": 19.4156,
      "duration": 0.099,
      "velocity": 126,
      "chip": "ym2612"
    },
    {
      "channel": 1,
      "note": 62,
      "start": 19.4173,
      "duration": 0.0974,
      "velocity": 126,
      "chip": "ym2612"
    },
    {
      "channel": 5,
      "note": 24,
      "start": 19.4204,
      "duration": 0.095,
      "velocity": 120,
      "chip": "ym2612"
    },
    {
      "channel": 3,
      "note": 59,
      "start": 19.6355,
      "duration": 0.1021,
      "velocity": 126,
      "chip": "ym2612"
    },
    {
      "channel": 5,
      "note": 35,
      "start": 19.6392,
      "duration": 0.201,
      "velocity": 120,
      "chip": "ym2612"
    },
    {
      "channel": 1,
      "note": 64,
      "start": 19.7386,
      "duration": 0.1055,
      "velocity": 126,
      "chip": "ym2612"
    },
    {
      "channel": 0,
      "note": 40,
      "start": 19.8418,
      "duration": 0.1641,
      "velocity": 105,
      "chip": "ym2612"
    },
    {
      "channel": 3,
      "note": 47,
      "start": 19.8435,
      "duration": 0.1,
      "velocity": 126,
      "chip": "ym2612"
    },
    {
      "channel": 5,
      "note": 24,
      "start": 19.8465,
      "duration": 0.0993,
      "velocity": 120,
      "chip": "ym2612"
    },
    {
      "channel": 1,
      "note": 52,
      "start": 19.9444,
      "duration": 0.1025,
      "velocity": 126,
      "chip": "ym2612"
    },
    {
      "channel": 0,
      "note": 43,
      "start": 20.0646,
      "duration": 0.1643,
      "velocity": 105,
      "chip": "ym2612"
    },
    {
      "channel": 3,
      "note": 47,
      "start": 20.0663,
      "duration": 0.1002,
      "velocity": 126,
      "chip": "ym2612"
    },
    {
      "channel": 5,
      "note": 35,
      "start": 20.0696,
      "duration": 0.0992,
      "velocity": 120,
      "chip": "ym2612"
    },
    {
      "channel": 1,
      "note": 54,
      "start": 20.1675,
      "duration": 0.1045,
      "velocity": 126,
      "chip": "ym2612"
    },
    {
      "channel": 0,
      "note": 45,
      "start": 20.2706,
      "duration": 0.1641,
      "velocity": 105,
      "chip": "ym2612"
    },
    {
      "channel": 4,
      "note": 81,
      "start": 20.2739,
      "duration": 0.1005,
      "velocity": 126,
      "chip": "ym2612"
    },
    {
      "channel": 5,
      "note": 24,
      "start": 20.2766,
      "duration": 0.098,
      "velocity": 120,
      "chip": "ym2612"
    },
    {
      "channel": 3,
      "note": 47,
      "start": 20.3731,
      "duration": 0.1063,
      "velocity": 126,
      "chip": "ym2612"
    },
    {
      "channel": 0,
      "note": 47,
      "start": 20.4786,
      "duration": 0.1678,
      "velocity": 105,
      "chip": "ym2612"
    },
    {
      "channel": 1,
      "note": 55,
      "start": 20.4804,
      "duration": 0.3155,
      "velocity": 126,
      "chip": "ym2612"
    },
    {
      "channel": 4,
      "note": 47,
      "start": 20.4822,
      "duration": 0.3139,
      "velocity": 126,
      "chip": "ym2612"
    },
    {
      "channel": 5,
      "note": 35,
      "start": 20.4848,
      "duration": 0.2036,
      "velocity": 120,
      "chip": "ym2612"
    },
    {
      "channel": 3,
      "note": 57,
      "start": 20.7003,
      "duration": 0.1695,
      "velocity": 80,
      "chip": "ym2612"
    },
    {
      "channel": 5,
      "note": 24,
      "start": 20.7039,
      "duration": 0.1987,
      "velocity": 120,
      "chip": "ym2612"
    },
    {
      "channel": 0,
      "note": 40,
      "start": 20.8017,
      "duration": 0.1648,
      "velocity": 105,
      "chip": "ym2612"
    },
    {
      "channel": 1,
      "note": 59,
      "start": 20.8039,
      "duration": 0.2036,
      "velocity": 126,
      "chip": "ym2612"
    },
    {
      "channel": 4,
      "note": 64,
      "start": 20.8056,
      "duration": 0.2021,
      "velocity": 126,
      "chip": "ym2612"
    },
    {
      "channel": 3,
      "note": 79,
      "start": 20.9049,
      "duration": 0.165,
      "velocity": 80,
      "chip": "ym2612"
    },
    {
      "channel": 5,
      "note": 35,
      "start": 20.9085,
      "duration": 0.0994,
      "velocity": 120,
      "chip": "ym2612"
    },
    {
      "channel": 5,
      "note": 24,
      "start": 21.0266,
      "duration": 0.1023,
      "velocity": 120,
      "chip": "ym2612"
    },
    {
      "channel": 0,
      "note": 38,
      "start": 21.1305,
      "duration": 0.1677,
      "velocity": 105,
      "chip": "ym2612"
    },
    {
      "channel": 3,
      "note": 76,
      "start": 21.1332,
      "duration": 0.1026,
      "velocity": 126,
      "chip": "ym2612"
    },
    {
      "channel": 1,
      "note": 57,
      "start": 21.136,
      "duration": 0.1628,
      "velocity": 80,
      "chip": "ym2612"
    },
    {
      "channel": 4,
      "note": 62,
      "start": 21.1377,
      "duration": 0.0987,
      "velocity": 126,
      "chip": "ym2612"
    },
    {
      "channel": 5,
      "note": 24,
      "start": 21.1402,
      "duration": 0.0964,
      "velocity": 120,
      "chip": "ym2612"
    },
    {
      "channel": 3,
      "note": 64,
      "start": 21.3406,
      "duration": 0.164,
      "velocity": 80,
      "chip": "ym2612"
    },
    {
      "channel": 5,
      "note": 35,
      "start": 21.3442,
      "duration": 0.2019,
      "velocity": 120,
      "chip": "ym2612"
    },
    {
      "channel": 0,
      "note": 40,
      "start": 21.5642,
      "duration": 0.1685,
      "velocity": 105,
      "chip": "ym2612"
    },
    {
      "channel": 1,
      "note": 79,
      "start": 21.5674,
      "duration": 0.2106,
      "velocity": 126,
      "chip": "ym2612"
    },
    {
      "channel": 4,
      "note": 59,
      "start": 21.5701,
      "duration": 0.1637,
      "velocity": 80,
      "chip": "ym2612"
    },
    {
      "channel": 5,
      "note": 24,
      "start": 21.5728,
      "duration": 0.099,
      "velocity": 120,
      "chip": "ym2612"
    },
    {
      "channel": 0,
      "note": 43,
      "start": 21.7754,
      "duration": 0.1632,
      "velocity": 105,
      "chip": "ym2612"
    },
    {
      "channel": 3,
      "note": 74,
      "start": 21.7771,
      "duration": 0.1617,
      "velocity": 80,
      "chip": "ym2612"
    },
    {
      "channel": 4,
      "note": 79,
      "start": 21.7799,
      "duration": 0.2059,
      "velocity": 126,
      "chip": "ym2612"
    },
    {
      "channel": 5,
      "note": 35,
      "start": 21.7826,
      "duration": 0.0951,
      "velocity": 120,
      "chip": "ym2612"
    },
    {
      "channel": 0,
      "note": 45,
      "start": 21.9986,
      "duration": 0.1687,
      "velocity": 105,
      "chip": "ym2612"
    },
    {
      "channel": 3,
      "note": 72,
      "start": 22.0013,
      "duration": 0.2083,
      "velocity": 126,
      "chip": "ym2612"
    },
    {
      "channel": 1,
      "note": 67,
      "start": 22.0041,
      "duration": 0.1639,
      "velocity": 80,
      "chip": "ym2612"
    },
    {
      "channel": 5,
      "note": 24,
      "start": 22.0072,
      "duration": 0.0992,
      "velocity": 120,
      "chip": "ym2612"
    },
    {
      "channel": 0,
      "note": 47,
      "start": 22.2126,
      "duration": 0.1663,
      "velocity": 105,
      "chip": "ym2612"
    },
    {
      "channel": 3,
      "note": 62,
      "start": 22.2142,
      "duration": 0.3139,
      "velocity": 126,
      "chip": "ym2612"
    },
    {
      "channel": 1,
      "note": 79,
      "start": 22.217,
      "duration": 0.3112,
      "velocity": 126,
      "chip": "ym2612"
    },
    {
      "channel": 4,
      "note": 66,
      "start": 22.2197,
      "duration": 0.6868,
      "velocity": 80,
      "chip": "ym2612"
    },
    {
      "channel": 5,
      "note": 35,
      "start": 22.2223,
      "duration": 0.1987,
      "velocity": 120,
      "chip": "ym2612"
    },
    {
      "channel": 5,
      "note": 24,
      "start": 22.4398,
      "duration": 0.2001,
      "velocity": 120,
      "chip": "ym2612"
    },
    {
      "channel": 0,
      "note": 40,
      "start": 22.5407,
      "duration": 0.1642,
      "velocity": 105,
      "chip": "ym2612"
    },
    {
      "channel": 3,
      "note": 64,
      "start": 22.5423,
      "duration": 0.2088,
      "velocity": 126,
      "chip": "ym2612"
    },
    {
      "channel": 1,
      "note": 59,
      "start": 22.5441,
      "duration": 0.2072,
      "velocity": 126,
      "chip": "ym2612"
    },
    {
      "channel": 5,
      "note": 35,
      "start": 22.6456,
      "duration": 0.0977,
      "velocity": 120,
      "chip": "ym2612"
    },
    {
      "channel": 5,
      "note": 24,
      "start": 22.7477,
      "duration": 0.1022,
      "velocity": 120,
      "chip": "ym2612"
    },
    {
      "channel": 0,
      "note": 38,
      "start": 22.8677,
      "duration": 0.163,
      "velocity": 105,
      "chip": "ym2612"
    },
    {
      "channel": 3,
      "note": 57,
      "start": 22.8694,
      "duration": 0.099,
      "velocity": 126,
      "chip": "ym2612"
    },
    {
      "channel": 1,
      "note": 62,
      "start": 22.871,
      "duration": 0.0975,
      "velocity": 126,
      "chip": "ym2612"
    },
    {
      "channel": 5,
      "note": 24,
      "start": 22.8741,
      "duration": 0.095,
      "velocity": 120,
      "chip": "ym2612"
    },
    {
      "channel": 3,
      "note": 55,
      "start": 23.0744,
      "duration": 0.42,
      "velocity": 126,
      "chip": "ym2612"
    },
    {
      "channel": 1,
      "note": 60,
      "start": 23.0761,
      "duration": 0.4186,
      "velocity": 126,
      "chip": "ym2612"
    },
    {
      "channel": 4,
      "note": 76,
      "start": 23.0777,
      "duration": 0.0232,
      "velocity": 80,
      "chip": "ym2612"
    },
    {
      "channel": 5,
      "note": 35,
      "start": 23.0804,
      "duration": 0.204,
      "velocity": 120,
      "chip": "ym2612"
    },
    {
      "channel": 4,
      "note": 62,
      "start": 23.1245,
      "duration": 0.1536,
      "velocity": 80,
      "chip": "ym2612"
    },
    {
      "channel": 0,
      "note": 36,
      "start": 23.2958,
      "duration": 0.1639,
      "velocity": 105,
      "chip": "ym2612"
    },
    {
      "channel": 4,
      "note": 64,
      "start": 23.2984,
      "duration": 0.1624,
      "velocity": 80,
      "chip": "ym2612"
    },
    {
      "channel": 5,
      "note": 24,
      "start": 23.301,
      "duration": 0.0977,
      "velocity": 120,
      "chip": "ym2612"
    },
    {
      "channel": 0,
      "note": 43,
      "start": 23.5028,
      "duration": 0.1742,
      "velocity": 105,
      "chip": "ym2612"
    },
    {
      "channel": 3,
      "note": 54,
      "start": 23.5044,
      "duration": 0.4246,
      "velocity": 126,
      "chip": "ym2612"
    },
    {
      "channel": 1,
      "note": 59,
      "start": 23.5061,
      "duration": 0.4231,
      "velocity": 126,
      "chip": "ym2612"
    },
    {
      "channel": 4,
      "note": 76,
      "start": 23.5077,
      "duration": 0.0335,
      "velocity": 80,
      "chip": "ym2612"
    },
    {
      "channel": 5,
      "note": 35,
      "start": 23.5104,
      "duration": 0.0999,
      "velocity": 120,
      "chip": "ym2612"
    },
    {
      "channel": 4,
      "note": 62,
      "start": 23.5591,
      "duration": 0.1512,
      "velocity": 80,
      "chip": "ym2612"
    },
    {
      "channel": 0,
      "note": 45,
      "start": 23.7131,
      "duration": 0.1639,
      "velocity": 105,
      "chip": "ym2612"
    },
    {
      "channel": 4,
      "note": 64,
      "start": 23.7158,
      "duration": 0.1624,
      "velocity": 80,
      "chip": "ym2612"
    },
    {
      "channel": 5,
      "note": 24,
      "start": 23.7184,
      "duration": 0.0978,
      "velocity": 120,
      "chip": "ym2612"
    },
    {
      "channel": 0,
      "note": 47,
      "start": 23.9387,
      "duration": 0.1671,
      "velocity": 105,
      "chip": "ym2612"
    },
    {
      "channel": 3,
      "note": 52,
      "start": 23.9404,
      "duration": 0.3146,
      "velocity": 126,
      "chip": "ym2612"
    },
    {
      "channel": 1,
      "note": 57,
      "start": 23.9421,
      "duration": 0.313,
      "velocity": 126,
      "chip": "ym2612"
    },
    {
      "channel": 4,
      "note": 76,
      "start": 23.9437,
      "duration": 0.1632,
      "velocity": 80,
      "chip": "ym2612"
    },
    {
      "channel": 5,
      "note": 35,
      "start": 23.9461,
      "duration": 0.199,
      "velocity": 120,
      "chip": "ym2612"
    },
    {
      "channel": 4,
      "note": 76,
      "start": 24.1483,
      "duration": 0.1649,
      "velocity": 80,
      "chip": "ym2612"
    },
    {
      "channel": 5,
      "note": 24,
      "start": 24.1509,
      "duration": 0.2028,
      "velocity": 120,
      "chip": "ym2612"
    },
    {
      "channel": 0,
      "note": 40,
      "start": 24.2675,
      "duration": 0.1642,
      "velocity": 105,
      "chip": "ym2612"
    },
    {
      "channel": 3,
      "note": 59,
      "start": 24.2692,
      "duration": 0.2088,
      "velocity": 126,
      "chip": "ym2612"
    },
    {
      "channel": 1,
      "note": 64,
      "start": 24.2709,
      "duration": 0.2072,
      "velocity": 126,
      "chip": "ym2612"
    },
    {
      "channel": 4,
      "note": 79,
      "start": 24.3712,
      "duration": 0.1649,
      "velocity": 80,
      "chip": "ym2612"
    },
    {
      "channel": 5,
      "note": 35,
      "start": 24.3737,
      "duration": 0.0966,
      "velocity": 120,
      "chip": "ym2612"
    },
    {
      "channel": 5,
      "note": 24,
      "start": 24.4746,
      "duration": 0.1024,
      "velocity": 120,
      "chip": "ym2612"
    },
    {
      "channel": 0,
      "note": 38,
      "start": 24.5787,
      "duration": 0.1676,
      "velocity": 105,
      "chip": "ym2612"
    },
    {
      "channel": 3,
      "note": 57,
      "start": 24.5813,
      "duration": 0.3426,
      "velocity": 80,
      "chip": "ym2612"
    },
    {
      "channel": 1,
      "note": 62,
      "start": 24.583,
      "duration": 0.1012,
      "velocity": 126,
      "chip": "ym2612"
    },
    {
      "channel": 4,
      "note": 84,
      "start": 24.5858,
      "duration": 0.0987,
      "velocity": 126,
      "chip": "ym2612"
    },
    {
      "channel": 5,
      "note": 24,
      "start": 24.5884,
      "duration": 0.0963,
      "velocity": 120,
      "chip": "ym2612"
    },
    {
      "channel": 5,
      "note": 35,
      "start": 24.8071,
      "duration": 0.2035,
      "velocity": 120,
      "chip": "ym2612"
    },
    {
      "channel": 0,
      "note": 40,
      "start": 25.0122,
      "duration": 0.1685,
      "velocity": 105,
      "chip": "ym2612"
    },
    {
      "channel": 1,
      "note": 59,
      "start": 25.0154,
      "duration": 0.166,
      "velocity": 80,
      "chip": "ym2612"
    },
    {
      "channel": 4,
      "note": 64,
      "start": 25.0171,
      "duration": 0.2109,
      "velocity": 126,
      "chip": "ym2612"
    },
    {
      "channel": 5,
      "note": 24,
      "start": 25.0198,
      "duration": 0.1002,
      "velocity": 120,
      "chip": "ym2612"
    },
    {
      "channel": 0,
      "note": 43,
      "start": 25.2406,
      "duration": 0.1632,
      "velocity": 105,
      "chip": "ym2612"
    },
    {
      "channel": 3,
      "note": 83,
      "start": 25.2422,
      "duration": 0.1617,
      "velocity": 80,
      "chip": "ym2612"
    },
    {
      "channel": 1,
      "note": 76,
      "start": 25.2449,
      "duration": 0.2054,
      "velocity": 126,
      "chip": "ym2612"
    },
    {
      "channel": 5,
      "note": 35,
      "start": 25.2481,
      "duration": 0.0948,
      "velocity": 120,
      "chip": "ym2612"
    },
    {
      "channel": 0,
      "note": 45,
      "start": 25.4467,
      "duration": 0.1744,
      "velocity": 105,
      "chip": "ym2612"
    },
    {
      "channel": 3,
      "note": 79,
      "start": 25.4494,
      "duration": 0.2122,
      "velocity": 126,
      "chip": "ym2612"
    },
    {
      "channel": 4,
      "note": 67,
      "start": 25.4523,
      "duration": 1.5597,
      "velocity": 80,
      "chip": "ym2612"
    },
    {
      "channel": 5,
      "note": 24,
      "start": 25.4549,
      "duration": 0.0995,
      "velocity": 120,
      "chip": "ym2612"
    },
    {
      "channel": 0,
      "note": 47,
      "start": 25.6761,
      "duration": 0.1679,
      "velocity": 105,
      "chip": "ym2612"
    },
    {
      "channel": 3,
      "note": 62,
      "start": 25.6778,
      "duration": 0.3025,
      "velocity": 126,
      "chip": "ym2612"
    },
    {
      "channel": 1,
      "note": 66,
      "start": 25.6795,
      "duration": 0.3018,
      "velocity": 126,
      "chip": "ym2612"
    },
    {
      "channel": 5,
      "note": 35,
      "start": 25.6825,
      "duration": 0.1941,
      "velocity": 120,
      "chip": "ym2612"
    },
    {
      "channel": 5,
      "note": 24,
      "start": 25.8821,
      "duration": 0.2099,
      "velocity": 120,
      "chip": "ym2612"
    },
    {
      "channel": 0,
      "note": 40,
      "start": 25.983,
      "duration": 0.1699,
      "velocity": 105,
      "chip": "ym2612"
    },
    {
      "channel": 3,
      "note": 64,
      "start": 25.9846,
      "duration": 0.2088,
      "velocity": 126,
      "chip": "ym2612"
    },
    {
      "channel": 1,
      "note": 59,
      "start": 25.9863,
      "duration": 0.2072,
      "velocity": 126,
      "chip": "ym2612"
    },
    {
      "channel": 5,
      "note": 35,
      "start": 26.1051,
      "duration": 0.0977,
      "velocity": 120,
      "chip": "ym2612"
    },
    {
      "channel": 5,
      "note": 24,
      "start": 26.2072,
      "duration": 0.1013,
      "velocity": 120,
      "chip": "ym2612"
    },
    {
      "channel": 0,
      "note": 38,
      "start": 26.3101,
      "duration": 0.163,
      "velocity": 105,
      "chip": "ym2612"
    },
    {
      "channel": 3,
      "note": 57,
      "start": 26.3117,
      "duration": 0.099,
      "velocity": 126,
      "chip": "ym2612"
    },
    {
      "channel": 1,
      "note": 62,
      "start": 26.3134,
      "duration": 0.0974,
      "velocity": 126,
      "chip": "ym2612"
    },
    {
      "channel": 5,
      "note": 24,
      "start": 26.3165,
      "duration": 0.095,
      "velocity": 120,
      "chip": "ym2612"
    },
    {
      "channel": 3,
      "note": 59,
      "start": 26.5145,
      "duration": 0.102,
      "velocity": 126,
      "chip": "ym2612"
    },
    {
      "channel": 5,
      "note": 35,
      "start": 26.5181,
      "duration": 0.2087,
      "velocity": 120,
      "chip": "ym2612"
    },
    {
      "channel": 1,
      "note": 64,
      "start": 26.635,
      "duration": 0.1052,
      "velocity": 126,
      "chip": "ym2612"
    },
    {
      "channel": 0,
      "note": 40,
      "start": 26.7379,
      "duration": 0.1641,
      "velocity": 105,
      "chip": "ym2612"
    },
    {
      "channel": 3,
      "note": 47,
      "start": 26.7395,
      "duration": 0.1,
      "velocity": 126,
      "chip": "ym2612"
    },
    {
      "channel": 5,
      "note": 24,
      "start": 26.7426,
      "duration": 0.0993,
      "velocity": 120,
      "chip": "ym2612"
    },
    {
      "channel": 1,
      "note": 52,
      "start": 26.8405,
      "duration": 0.1053,
      "velocity": 126,
      "chip": "ym2612"
    },
    {
      "channel": 0,
      "note": 43,
      "start": 26.9435,
      "duration": 0.1643,
      "velocity": 105,
      "chip": "ym2612"
    },
    {
      "channel": 3,
      "note": 47,
      "start": 26.9451,
      "duration": 0.1003,
      "velocity": 126,
      "chip": "ym2612"
    },
    {
      "channel": 5,
      "note": 35,
      "start": 26.9482,
      "duration": 0.0984,
      "velocity": 120,
      "chip": "ym2612"
    },
    {
      "channel": 1,
      "note": 54,
      "start": 27.0638,
      "duration": 0.1043,
      "velocity": 126,
      "chip": "ym2612"
    },
    {
      "channel": 0,
      "note": 45,
      "start": 27.1668,
      "duration": 0.1641,
      "velocity": 105,
      "chip": "ym2612"
    },
    {
      "channel": 4,
      "note": 81,
      "start": 27.1701,
      "duration": 0.1005,
      "velocity": 126,
      "chip": "ym2612"
    },
    {
      "channel": 5,
      "note": 24,
      "start": 27.1727,
      "duration": 0.098,
      "velocity": 120,
      "chip": "ym2612"
    },
    {
      "channel": 3,
      "note": 47,
      "start": 27.2693,
      "duration": 0.1062,
      "velocity": 126,
      "chip": "ym2612"
    },
    {
      "channel": 0,
      "note": 47,
      "start": 27.3746,
      "duration": 0.1677,
      "velocity": 105,
      "chip": "ym2612"
    },
    {
      "channel": 1,
      "note": 55,
      "start": 27.3765,
      "duration": 0.3098,
      "velocity": 126,
      "chip": "ym2612"
    },
    {
      "channel": 4,
      "note": 47,
      "start": 27.3782,
      "duration": 0.3083,
      "velocity": 126,
      "chip": "ym2612"
    },
    {
      "channel": 5,
      "note": 35,
      "start": 27.3808,
      "duration": 0.2036,
      "velocity": 120,
      "chip": "ym2612"
    },
    {
      "channel": 3,
      "note": 57,
      "start": 27.5963,
      "duration": 0.1638,
      "velocity": 80,
      "chip": "ym2612"
    },
    {
      "channel": 5,
      "note": 24,
      "start": 27.6,
      "duration": 0.1987,
      "velocity": 120,
      "chip": "ym2612"
    },
    {
      "channel": 0,
      "note": 40,
      "start": 27.6985,
      "duration": 0.1641,
      "velocity": 105,
      "chip": "ym2612"
    },
    {
      "channel": 1,
      "note": 59,
      "start": 27.7007,
      "duration": 0.2029,
      "velocity": 126,
      "chip": "ym2612"
    },
    {
      "channel": 4,
      "note": 64,
      "start": 27.7023,
      "duration": 0.2015,
      "velocity": 126,
      "chip": "ym2612"
    },
    {
      "channel": 3,
      "note": 79,
      "start": 27.801,
      "duration": 0.165,
      "velocity": 80,
      "chip": "ym2612"
    },
    {
      "channel": 5,
      "note": 35,
      "start": 27.8046,
      "duration": 0.0966,
      "velocity": 120,
      "chip": "ym2612"
    },
    {
      "channel": 5,
      "note": 24,
      "start": 27.9048,
      "duration": 0.1027,
      "velocity": 120,
      "chip": "ym2612"
    },
    {
      "channel": 0,
      "note": 38,
      "start": 28.0266,
      "duration": 0.1677,
      "velocity": 105,
      "chip": "ym2612"
    },
    {
      "channel": 3,
      "note": 76,
      "start": 28.0292,
      "duration": 0.1026,
      "velocity": 126,
      "chip": "ym2612"
    },
    {
      "channel": 1,
      "note": 57,
      "start": 28.032,
      "duration": 0.1628,
      "velocity": 80,
      "chip": "ym2612"
    },
    {
      "channel": 4,
      "note": 62,
      "start": 28.0337,
      "duration": 0.0987,
      "velocity": 126,
      "chip": "ym2612"
    },
    {
      "channel": 5,
      "note": 24,
      "start": 28.0363,
      "duration": 0.0964,
      "velocity": 120,
      "chip": "ym2612"
    },
    {
      "channel": 3,
      "note": 64,
      "start": 28.2366,
      "duration": 0.1697,
      "velocity": 80,
      "chip": "ym2612"
    },
    {
      "channel": 5,
      "note": 35,
      "start": 28.2402,
      "duration": 0.2076,
      "velocity": 120,
      "chip": "ym2612"
    },
    {
      "channel": 0,
      "note": 40,
      "start": 28.4603,
      "duration": 0.1743,
      "velocity": 105,
      "chip": "ym2612"
    },
    {
      "channel": 1,
      "note": 79,
      "start": 28.4634,
      "duration": 0.2178,
      "velocity": 126,
      "chip": "ym2612"
    },
    {
      "channel": 4,
      "note": 59,
      "start": 28.4662,
      "duration": 0.1695,
      "velocity": 80,
      "chip": "ym2612"
    },
    {
      "channel": 5,
      "note": 24,
      "start": 28.4689,
      "duration": 0.0991,
      "velocity": 120,
      "chip": "ym2612"
    },
    {
      "channel": 0,
      "note": 43,
      "start": 28.6715,
      "duration": 0.1632,
      "velocity": 105,
      "chip": "ym2612"
    },
    {
      "channel": 3,
      "note": 74,
      "start": 28.6731,
      "duration": 0.1617,
      "velocity": 80,
      "chip": "ym2612"
    },
    {
      "channel": 4,
      "note": 79,
      "start": 28.6763,
      "duration": 0.2056,
      "velocity": 126,
      "chip": "ym2612"
    },
    {
      "channel": 5,
      "note": 35,
      "start": 28.679,
      "duration": 0.0949,
      "velocity": 120,
      "chip": "ym2612"
    },
    {
      "channel": 0,
      "note": 45,
      "start": 28.8947,
      "duration": 0.1687,
      "velocity": 105,
      "chip": "ym2612"
    },
    {
      "channel": 3,
      "note": 72,
      "start": 28.8974,
      "duration": 0.2083,
      "velocity": 126,
      "chip": "ym2612"
    },
    {
      "channel": 1,
      "note": 67,
      "start": 28.9002,
      "duration": 0.1639,
      "velocity": 80,
      "chip": "ym2612"
    },
    {
      "channel": 5,
      "note": 24,
      "start": 28.9033,
      "duration": 0.0992,
      "velocity": 120,
      "chip": "ym2612"
    },
    {
      "channel": 0,
      "note": 47,
      "start": 29.1086,
      "duration": 0.1663,
      "velocity": 105,
      "chip": "ym2612"
    },
    {
      "channel": 3,
      "note": 62,
      "start": 29.1103,
      "duration": 0.3139,
      "velocity": 126,
      "chip": "ym2612"
    },
    {
      "channel": 1,
      "note": 79,
      "start": 29.113,
      "duration": 0.3113,
      "velocity": 126,
      "chip": "ym2612"
    },
    {
      "channel": 4,
      "note": 66,
      "start": 29.1157,
      "duration": 0.6868,
      "velocity": 80,
      "chip": "ym2612"
    },
    {
      "channel": 5,
      "note": 35,
      "start": 29.1183,
      "duration": 0.1949,
      "velocity": 120,
      "chip": "ym2612"
    },
    {
      "channel": 5,
      "note": 24,
      "start": 29.3187,
      "duration": 0.2099,
      "velocity": 120,
      "chip": "ym2612"
    },
    {
      "channel": 0,
      "note": 40,
      "start": 29.4367,
      "duration": 0.1642,
      "velocity": 105,
      "chip": "ym2612"
    },
    {
      "channel": 3,
      "note": 64,
      "start": 29.4384,
      "duration": 0.2088,
      "velocity": 126,
      "chip": "ym2612"
    },
    {
      "channel": 1,
      "note": 59,
      "start": 29.4401,
      "duration": 0.2072,
      "velocity": 126,
      "chip": "ym2612"
    },
    {
      "channel": 5,
      "note": 35,
      "start": 29.5417,
      "duration": 0.0977,
      "velocity": 120,
      "chip": "ym2612"
    },
    {
      "channel": 5,
      "note": 24,
      "start": 29.6437,
      "duration": 0.1013,
      "velocity": 120,
      "chip": "ym2612"
    },
    {
      "channel": 0,
      "note": 38,
      "start": 29.7467,
      "duration": 0.163,
      "velocity": 105,
      "chip": "ym2612"
    },
    {
      "channel": 3,
      "note": 57,
      "start": 29.7483,
      "duration": 0.099,
      "velocity": 126,
      "chip": "ym2612"
    },
    {
      "channel": 1,
      "note": 62,
      "start": 29.75,
      "duration": 0.0974,
      "velocity": 126,
      "chip": "ym2612"
    },
    {
      "channel": 5,
      "note": 24,
      "start": 29.7531,
      "duration": 0.095,
      "velocity": 120,
      "chip": "ym2612"
    },
    {
      "channel": 3,
      "note": 55,
      "start": 29.9694,
      "duration": 0.2034,
      "velocity": 126,
      "chip": "ym2612"
    },
    {
      "channel": 4,
      "note": 76,
      "start": 29.9726,
      "duration": 0.2013,
      "velocity": 126,
      "chip": "ym2612"
    },
    {
      "channel": 5,
      "note": 35,
      "start": 29.9752,
      "duration": 0.1998,
      "velocity": 120,
      "chip": "ym2612"
    },
    {
      "channel": 0,
      "note": 36,
      "start": 30.1767,
      "duration": 0.1734,
      "velocity": 105,
      "chip": "ym2612"
    },
    {
      "channel": 3,
      "note": 59,
      "start": 30.1783,
      "duration": 0.2122,
      "velocity": 126,
      "chip": "ym2612"
    },
    {
      "channel": 1,
      "note": 60,
      "start": 30.1811,
      "duration": 0.1695,
      "velocity": 80,
      "chip": "ym2612"
    },
    {
      "channel": 4,
      "note": 54,
      "start": 30.1829,
      "duration": 0.2083,
      "velocity": 126,
      "chip": "ym2612"
    },
    {
      "channel": 5,
      "note": 24,
      "start": 30.1855,
      "duration": 0.0979,
      "velocity": 120,
      "chip": "ym2612"
    },
    {
      "channel": 0,
      "note": 43,
      "start": 30.4051,
      "duration": 0.1736,
      "velocity": 105,
      "chip": "ym2612"
    },
    {
      "channel": 3,
      "note": 76,
      "start": 30.4068,
      "duration": 0.2063,
      "velocity": 126,
      "chip": "ym2612"
    },
    {
      "channel": 1,
      "note": 76,
      "start": 30.4084,
      "duration": 0.1709,
      "velocity": 80,
      "chip": "ym2612"
    },
    {
      "channel": 4,
      "note": 79,
      "start": 30.4101,
      "duration": 0.2041,
      "velocity": 126,
      "chip": "ym2612"
    },
    {
      "channel": 5,
      "note": 35,
      "start": 30.4127,
      "duration": 0.0994,
      "velocity": 120,
      "chip": "ym2612"
    },
    {
      "channel": 0,
      "note": 45,
      "start": 30.6168,
      "duration": 0.1678,
      "velocity": 105,
      "chip": "ym2612"
    },
    {
      "channel": 3,
      "note": 74,
      "start": 30.6185,
      "duration": 0.2123,
      "velocity": 126,
      "chip": "ym2612"
    },
    {
      "channel": 1,
      "note": 74,
      "start": 30.6202,
      "duration": 0.165,
      "velocity": 80,
      "chip": "ym2612"
    },
    {
      "channel": 4,
      "note": 78,
      "start": 30.6219,
      "duration": 0.2096,
      "velocity": 126,
      "chip": "ym2612"
    },
    {
      "channel": 5,
      "note": 24,
      "start": 30.6245,
      "duration": 0.0992,
      "velocity": 120,
      "chip": "ym2612"
    },
    {
      "channel": 0,
      "note": 47,
      "start": 30.8451,
      "duration": 0.1625,
      "velocity": 105,
      "chip": "ym2612"
    },
    {
      "channel": 1,
      "note": 71,
      "start": 30.8483,
      "duration": 0.16,
      "velocity": 126,
      "chip": "ym2612"
    },
    {
      "channel": 5,
      "note": 35,
      "start": 30.8514,
      "duration": 0.1975,
      "velocity": 120,
      "chip": "ym2612"
    },
    {
      "channel": 0,
      "note": 48,
      "start": 31.0505,
      "duration": 0.1686,
      "velocity": 105,
      "chip": "ym2612"
    },
    {
      "channel": 3,
      "note": 71,
      "start": 31.053,
      "duration": 0.1663,
      "velocity": 80,
      "chip": "ym2612"
    },
    {
      "channel": 4,
      "note": 74,
      "start": 31.0553,
      "duration": 0.1647,
      "velocity": 126,
      "chip": "ym2612"
    },
    {
      "channel": 5,
      "note": 24,
      "start": 31.0579,
      "duration": 0.2033,
      "velocity": 120,
      "chip": "ym2612"
    },
    {
      "channel": 0,
      "note": 48,
      "start": 31.279,
      "duration": 0.1746,
      "velocity": 105,
      "chip": "ym2612"
    },
    {
      "channel": 3,
      "note": 76,
      "start": 31.2815,
      "duration": 0.1722,
      "velocity": 126,
      "chip": "ym2612"
    },
    {
      "channel": 1,
      "note": 60,
      "start": 31.2843,
      "duration": 0.1696,
      "velocity": 80,
      "chip": "ym2612"
    },
    {
      "channel": 5,
      "note": 35,
      "start": 31.2874,
      "duration": 0.0957,
      "velocity": 120,
      "chip": "ym2612"
    },
    {
      "channel": 5,
      "note": 24,
      "start": 31.3878,
      "duration": 0.1013,
      "velocity": 120,
      "chip": "ym2612"
    },
    {
      "channel": 0,
      "note": 48,
      "start": 31.4907,
      "duration": 0.163,
      "velocity": 105,
      "chip": "ym2612"
    },
    {
      "channel": 3,
      "note": 55,
      "start": 31.4922,
      "duration": 0.1617,
      "velocity": 126,
      "chip": "ym2612"
    },
    {
      "channel": 4,
      "note": 52,
      "start": 31.4954,
      "duration": 0.1592,
      "velocity": 80,
      "chip": "ym2612"
    },
    {
      "channel": 5,
      "note": 24,
      "start": 31.4981,
      "duration": 0.0948,
      "velocity": 120,
      "chip": "ym2612"
    },
    {
      "channel": 0,
      "note": 48,
      "start": 31.7126,
      "duration": 0.1641,
      "velocity": 105,
      "chip": "ym2612"
    },
    {
      "channel": 1,
      "note": 82,
      "start": 31.7146,
      "duration": 0.1628,
      "velocity": 80,
      "chip": "ym2612"
    },
    {
      "channel": 5,
      "note": 35,
      "start": 31.7177,
      "duration": 0.2004,
      "velocity": 120,
      "chip": "ym2612"
    },
    {
      "channel": 0,
      "note": 48,
      "start": 31.9198,
      "duration": 0.1685,
      "velocity": 105,
      "chip": "ym2612"
    },
    {
      "channel": 3,
      "note": 57,
      "start": 31.9223,
      "duration": 0.3438,
      "velocity": 80,
      "chip": "ym2612"
    },
    {
      "channel": 4,
      "note": 76,
      "start": 31.9255,
      "duration": 0.3412,
      "velocity": 126,
      "chip": "ym2612"
    },
    {
      "channel": 5,
      "note": 24,
      "start": 31.9282,
      "duration": 0.0993,
      "velocity": 120,
      "chip": "ym2612"
    },
    {
      "channel": 0,
      "note": 48,
      "start": 32.1292,
      "duration": 0.1707,
      "velocity": 105,
      "chip": "ym2612"
    },
    {
      "channel": 5,
      "note": 35,
      "start": 32.133,
      "duration": 0.1003,
      "velocity": 120,
      "chip": "ym2612"
    },
    {
      "channel": 0,
      "note": 48,
      "start": 32.3543,
      "duration": 0.1686,
      "velocity": 105,
      "chip": "ym2612"
    },
    {
      "channel": 3,
      "note": 81,
      "start": 32.3568,
      "duration": 0.075,
      "velocity": 126,
      "chip": "ym2612"
    },
    {
      "channel": 1,
      "note": 79,
      "start": 32.3585,
      "duration": 0.165,
      "velocity": 80,
      "chip": "ym2612"
    },
    {
      "channel": 5,
      "note": 24,
      "start": 32.3616,
      "duration": 0.1015,
      "velocity": 120,
      "chip": "ym2612"
    },
    {
      "channel": 4,
      "note": 60,
      "start": 32.4622,
      "duration": 0.0735,
      "velocity": 126,
      "chip": "ym2612"
    },
    {
      "channel": 0,
      "note": 48,
      "start": 32.5661,
      "duration": 0.1684,
      "velocity": 105,
      "chip": "ym2612"
    },
    {
      "channel": 3,
      "note": 54,
      "start": 32.5687,
      "duration": 0.1659,
      "velocity": 80,
      "chip": "ym2612"
    },
    {
      "channel": 1,
      "note": 82,
      "start": 32.5715,
      "duration": 0.1632,
      "velocity": 126,
      "chip": "ym2612"
    },
    {
      "channel": 5,
      "note": 35,
      "start": 32.5746,
      "duration": 0.2076,
      "velocity": 120,
      "chip": "ym2612"
    },
    {
      "channel": 0,
      "note": 47,
      "start": 32.7944,
      "duration": 0.1687,
      "velocity": 105,
      "chip": "ym2612"
    },
    {
      "channel": 3,
      "note": 81,
      "start": 32.797,
      "duration": 0.1663,
      "velocity": 126,
      "chip": "ym2612"
    },
    {
      "channel": 4,
      "note": 57,
      "start": 32.8002,
      "duration": 0.1637,
      "velocity": 80,
      "chip": "ym2612"
    },
    {
      "channel": 5,
      "note": 24,
      "start": 32.8028,
      "duration": 0.2014,
      "velocity": 120,
      "chip": "ym2612"
    },
    {
      "channel": 0,
      "note": 47,
      "start": 33.0059,
      "duration": 0.1689,
      "velocity": 105,
      "chip": "ym2612"
    },
    {
      "channel": 3,
      "note": 50,
      "start": 33.0073,
      "duration": 0.1676,
      "velocity": 126,
      "chip": "ym2612"
    },
    {
      "channel": 1,
      "note": 59,
      "start": 33.0101,
      "duration": 0.165,
      "velocity": 80,
      "chip": "ym2612"
    },
    {
      "channel": 5,
      "note": 35,
      "start": 33.0132,
      "duration": 0.095,
      "velocity": 120,
      "chip": "ym2612"
    },
    {
      "channel": 5,
      "note": 24,
      "start": 33.1261,
      "duration": 0.1013,
      "velocity": 120,
      "chip": "ym2612"
    },
    {
      "channel": 0,
      "note": 47,
      "start": 33.2291,
      "duration": 0.1686,
      "velocity": 105,
      "chip": "ym2612"
    },
    {
      "channel": 3,
      "note": 55,
      "start": 33.2306,
      "duration": 0.1673,
      "velocity": 126,
      "chip": "ym2612"
    },
    {
      "channel": 4,
      "note": 83,
      "start": 33.2327,
      "duration": 0.338,
      "velocity": 80,
      "chip": "ym2612"
    },
    {
      "channel": 5,
      "note": 24,
      "start": 33.2351,
      "duration": 0.096,
      "velocity": 120,
      "chip": "ym2612"
    },
    {
      "channel": 0,
      "note": 47,
      "start": 33.4329,
      "duration": 0.1651,
      "velocity": 105,
      "chip": "ym2612"
    },
    {
      "channel": 5,
      "note": 35,
      "start": 33.4367,
      "duration": 0.2089,
      "velocity": 120,
      "chip": "ym2612"
    },
    {
      "channel": 0,
      "note": 47,
      "start": 33.6581,
      "duration": 0.1628,
      "velocity": 105,
      "chip": "ym2612"
    },
    {
      "channel": 3,
      "note": 54,
      "start": 33.6596,
      "duration": 0.3391,
      "velocity": 126,
      "chip": "ym2612"
    },
    {
      "channel": 1,
      "note": 86,
      "start": 33.6613,
      "duration": 0.0691,
      "velocity": 80,
      "chip": "ym2612"
    },
    {
      "channel": 5,
      "note": 24,
      "start": 33.6644,
      "duration": 0.0968,
      "velocity": 120,
      "chip": "ym2612"
    },
    {
      "channel": 4,
      "note": 83,
      "start": 33.7603,
      "duration": 0.0735,
      "velocity": 80,
      "chip": "ym2612"
    },
    {
      "channel": 0,
      "note": 47,
      "start": 33.8625,
      "duration": 0.1643,
      "velocity": 105,
      "chip": "ym2612"
    },
    {
      "channel": 1,
      "note": 83,
      "start": 33.8645,
      "duration": 0.0718,
      "velocity": 80,
      "chip": "ym2612"
    },
    {
      "channel": 5,
      "note": 35,
      "start": 33.8675,
      "duration": 0.0993,
      "velocity": 120,
      "chip": "ym2612"
    },
    {
      "channel": 4,
      "note": 81,
      "start": 33.9661,
      "duration": 0.0735,
      "velocity": 80,
      "chip": "ym2612"
    },
    {
      "channel": 0,
      "note": 47,
      "start": 34.0868,
      "duration": 0.1687,
      "velocity": 105,
      "chip": "ym2612"
    },
    {
      "channel": 3,
      "note": 52,
      "start": 34.0883,
      "duration": 0.1673,
      "velocity": 126,
      "chip": "ym2612"
    },
    {
      "channel": 1,
      "note": 79,
      "start": 34.09,
      "duration": 0.075,
      "velocity": 80,
      "chip": "ym2612"
    },
    {
      "channel": 5,
      "note": 24,
      "start": 34.093,
      "duration": 0.097,
      "velocity": 120,
      "chip": "ym2612"
    },
    {
      "channel": 4,
      "note": 81,
      "start": 34.1892,
      "duration": 0.0735,
      "velocity": 80,
      "chip": "ym2612"
    },
    {
      "channel": 0,
      "note": 47,
      "start": 34.2927,
      "duration": 0.1629,
      "velocity": 105,
      "chip": "ym2612"
    },
    {
      "channel": 1,
      "note": 76,
      "start": 34.2959,
      "duration": 0.1604,
      "velocity": 126,
      "chip": "ym2612"
    },
    {
      "channel": 5,
      "note": 35,
      "start": 34.299,
      "duration": 0.2044,
      "velocity": 120,
      "chip": "ym2612"
    },
    {
      "channel": 0,
      "note": 43,
      "start": 34.5157,
      "duration": 0.1686,
      "velocity": 105,
      "chip": "ym2612"
    },
    {
      "channel": 3,
      "note": 50,
      "start": 34.5182,
      "duration": 0.1663,
      "velocity": 80,
      "chip": "ym2612"
    },
    {
      "channel": 4,
      "note": 79,
      "start": 34.5215,
      "duration": 0.1637,
      "velocity": 126,
      "chip": "ym2612"
    },
    {
      "channel": 5,
      "note": 24,
      "start": 34.5241,
      "duration": 0.2013,
      "velocity": 120,
      "chip": "ym2612"
    },
    {
      "channel": 0,
      "note": 43,
      "start": 34.7271,
      "duration": 0.1688,
      "velocity": 105,
      "chip": "ym2612"
    },
    {
      "channel": 3,
      "note": 76,
      "start": 34.7295,
      "duration": 0.1666,
      "velocity": 126,
      "chip": "ym2612"
    },
    {
      "channel": 1,
      "note": 55,
      "start": 34.7324,
      "duration": 0.1639,
      "velocity": 80,
      "chip": "ym2612"
    },
    {
      "channel": 5,
      "note": 35,
      "start": 34.7355,
      "duration": 0.0957,
      "velocity": 120,
      "chip": "ym2612"
    },
    {
      "channel": 5,
      "note": 24,
      "start": 34.8359,
      "duration": 0.1013,
      "velocity": 120,
      "chip": "ym2612"
    },
    {
      "channel": 0,
      "note": 43,
      "start": 34.9388,
      "duration": 0.1687,
      "velocity": 105,
      "chip": "ym2612"
    },
    {
      "channel": 3,
      "note": 52,
      "start": 34.9402,
      "duration": 0.1674,
      "velocity": 126,
      "chip": "ym2612"
    },
    {
      "channel": 4,
      "note": 50,
      "start": 34.9434,
      "duration": 0.1649,
      "velocity": 80,
      "chip": "ym2612"
    },
    {
      "channel": 5,
      "note": 24,
      "start": 34.9461,
      "duration": 0.0948,
      "velocity": 120,
      "chip": "ym2612"
    },
    {
      "channel": 0,
      "note": 43,
      "start": 35.1607,
      "duration": 0.1698,
      "velocity": 105,
      "chip": "ym2612"
    },
    {
      "channel": 1,
      "note": 79,
      "start": 35.1626,
      "duration": 0.1685,
      "velocity": 80,
      "chip": "ym2612"
    },
    {
      "channel": 5,
      "note": 35,
      "start": 35.1657,
      "duration": 0.2003,
      "velocity": 120,
      "chip": "ym2612"
    },
    {
      "channel": 0,
      "note": 43,
      "start": 35.3677,
      "duration": 0.1686,
      "velocity": 105,
      "chip": "ym2612"
    },
    {
      "channel": 3,
      "note": 55,
      "start": 35.3703,
      "duration": 0.3438,
      "velocity": 80,
      "chip": "ym2612"
    },
    {
      "channel": 4,
      "note": 76,
      "start": 35.3735,
      "duration": 0.1639,
      "velocity": 126,
      "chip": "ym2612"
    },
    {
      "channel": 5,
      "note": 24,
      "start": 35.3761,
      "duration": 0.0994,
      "velocity": 120,
      "chip": "ym2612"
    },
    {
      "channel": 0,
      "note": 43,
      "start": 35.5951,
      "duration": 0.1643,
      "velocity": 105,
      "chip": "ym2612"
    },
    {
      "channel": 1,
      "note": 78,
      "start": 35.5981,
      "duration": 0.162,
      "velocity": 126,
      "chip": "ym2612"
    },
    {
      "channel": 5,
      "note": 35,
      "start": 35.6012,
      "duration": 0.0973,
      "velocity": 120,
      "chip": "ym2612"
    },
    {
      "channel": 0,
      "note": 43,
      "start": 35.8023,
      "duration": 0.1686,
      "velocity": 105,
      "chip": "ym2612"
    },
    {
      "channel": 3,
      "note": 74,
      "start": 35.8047,
      "duration": 0.1663,
      "velocity": 126,
      "chip": "ym2612"
    },
    {
      "channel": 4,
      "note": 50,
      "start": 35.808,
      "duration": 0.1637,
      "velocity": 80,
      "chip": "ym2612"
    },
    {
      "channel": 5,
      "note": 24,
      "start": 35.8107,
      "duration": 0.0994,
      "velocity": 120,
      "chip": "ym2612"
    },
    {
      "channel": 0,
      "note": 43,
      "start": 36.0313,
      "duration": 0.174,
      "velocity": 105,
      "chip": "ym2612"
    },
    {
      "channel": 3,
      "note": 55,
      "start": 36.0329,
      "duration": 0.1726,
      "velocity": 126,
      "chip": "ym2612"
    },
    {
      "channel": 1,
      "note": 52,
      "start": 36.0357,
      "duration": 0.5137,
      "velocity": 80,
      "chip": "ym2612"
    },
    {
      "channel": 5,
      "note": 35,
      "start": 36.0388,
      "duration": 0.201,
      "velocity": 120,
      "chip": "ym2612"
    },
    {
      "channel": 0,
      "note": 45,
      "start": 36.2414,
      "duration": 0.1641,
      "velocity": 105,
      "chip": "ym2612"
    },
    {
      "channel": 4,
      "note": 81,
      "start": 36.2449,
      "duration": 0.1618,
      "velocity": 126,
      "chip": "ym2612"
    },
    {
      "channel": 5,
      "note": 24,
      "start": 36.2476,
      "duration": 0.2057,
      "velocity": 120,
      "chip": "ym2612"
    },
    {
      "channel": 0,
      "note": 45,
      "start": 36.4643,
      "duration": 0.1642,
      "velocity": 105,
      "chip": "ym2612"
    },
    {
      "channel": 3,
      "note": 57,
      "start": 36.4657,
      "duration": 0.1629,
      "velocity": 126,
      "chip": "ym2612"
    },
    {
      "channel": 5,
      "note": 35,
      "start": 36.4693,
      "duration": 0.0944,
      "velocity": 120,
      "chip": "ym2612"
    },
    {
      "channel": 5,
      "note": 24,
      "start": 36.5684,
      "duration": 0.1015,
      "velocity": 120,
      "chip": "ym2612"
    },
    {
      "channel": 0,
      "note": 45,
      "start": 36.6715,
      "duration": 0.1685,
      "velocity": 105,
      "chip": "ym2612"
    },
    {
      "channel": 1,
      "note": 83,
      "start": 36.6745,
      "duration": 0.1661,
      "velocity": 126,
      "chip": "ym2612"
    },
    {
      "channel": 4,
      "note": 52,
      "start": 36.6773,
      "duration": 0.0728,
      "velocity": 80,
      "chip": "ym2612"
    },
    {
      "channel": 5,
      "note": 24,
      "start": 36.6799,
      "duration": 0.1015,
      "velocity": 120,
      "chip": "ym2612"
    },
    {
      "channel": 3,
      "note": 54,
      "start": 36.7795,
      "duration": 0.0725,
      "velocity": 80,
      "chip": "ym2612"
    },
    {
      "channel": 0,
      "note": 45,
      "start": 36.8991,
      "duration": 0.164,
      "velocity": 105,
      "chip": "ym2612"
    },
    {
      "channel": 4,
      "note": 81,
      "start": 36.9016,
      "duration": 0.3403,
      "velocity": 80,
      "chip": "ym2612"
    },
    {
      "channel": 5,
      "note": 35,
      "start": 36.9042,
      "duration": 0.1991,
      "velocity": 120,
      "chip": "ym2612"
    },
    {
      "channel": 0,
      "note": 45,
      "start": 37.1049,
      "duration": 0.164,
      "velocity": 105,
      "chip": "ym2612"
    },
    {
      "channel": 1,
      "note": 57,
      "start": 37.1071,
      "duration": 0.2086,
      "velocity": 126,
      "chip": "ym2612"
    },
    {
      "channel": 5,
      "note": 24,
      "start": 37.1102,
      "duration": 0.0979,
      "velocity": 120,
      "chip": "ym2612"
    },
    {
      "channel": 0,
      "note": 57,
      "start": 37.3278,
      "duration": 0.1642,
      "velocity": 105,
      "chip": "ym2612"
    },
    {
      "channel": 3,
      "note": 79,
      "start": 37.3304,
      "duration": 0.2114,
      "velocity": 126,
      "chip": "ym2612"
    },
    {
      "channel": 5,
      "note": 35,
      "start": 37.3341,
      "duration": 0.097,
      "velocity": 120,
      "chip": "ym2612"
    },
    {
      "channel": 0,
      "note": 45,
      "start": 37.5337,
      "duration": 0.1641,
      "velocity": 105,
      "chip": "ym2612"
    },
    {
      "channel": 4,
      "note": 76,
      "start": 37.5374,
      "duration": 0.2113,
      "velocity": 126,
      "chip": "ym2612"
    },
    {
      "channel": 5,
      "note": 24,
      "start": 37.54,
      "duration": 0.0969,
      "velocity": 120,
      "chip": "ym2612"
    },
    {
      "channel": 0,
      "note": 57,
      "start": 37.7407,
      "duration": 0.1686,
      "velocity": 105,
      "chip": "ym2612"
    },
    {
      "channel": 1,
      "note": 55,
      "start": 37.7429,
      "duration": 0.1671,
      "velocity": 126,
      "chip": "ym2612"
    },
    {
      "channel": 5,
      "note": 35,
      "start": 37.746,
      "duration": 0.2055,
      "velocity": 120,
      "chip": "ym2612"
    },
    {
      "channel": 0,
      "note": 48,
      "start": 37.9637,
      "duration": 0.1744,
      "velocity": 105,
      "chip": "ym2612"
    },
    {
      "channel": 3,
      "note": 54,
      "start": 37.9662,
      "duration": 0.172,
      "velocity": 80,
      "chip": "ym2612"
    },
    {
      "channel": 4,
      "note": 50,
      "start": 37.9684,
      "duration": 0.1705,
      "velocity": 126,
      "chip": "ym2612"
    },
    {
      "channel": 5,
      "note": 24,
      "start": 37.971,
      "duration": 0.2025,
      "velocity": 120,
      "chip": "ym2612"
    },
    {
      "channel": 0,
      "note": 48,
      "start": 38.1752,
      "duration": 0.1688,
      "velocity": 105,
      "chip": "ym2612"
    },
    {
      "channel": 3,
      "note": 88,
      "start": 38.1776,
      "duration": 0.1665,
      "velocity": 126,
      "chip": "ym2612"
    },
    {
      "channel": 1,
      "note": 60,
      "start": 38.1804,
      "duration": 0.3417,
      "velocity": 80,
      "chip": "ym2612"
    },
    {
      "channel": 5,
      "note": 35,
      "start": 38.1836,
      "duration": 0.0995,
      "velocity": 120,
      "chip": "ym2612"
    },
    {
      "channel": 5,
      "note": 24,
      "start": 38.301,
      "duration": 0.1002,
      "velocity": 120,
      "chip": "ym2612"
    },
    {
      "channel": 0,
      "note": 48,
      "start": 38.4029,
      "duration": 0.1641,
      "velocity": 105,
      "chip": "ym2612"
    },
    {
      "channel": 4,
      "note": 52,
      "start": 38.4054,
      "duration": 0.1627,
      "velocity": 126,
      "chip": "ym2612"
    },
    {
      "channel": 5,
      "note": 24,
      "start": 38.4079,
      "duration": 0.0982,
      "velocity": 120,
      "chip": "ym2612"
    },
    {
      "channel": 0,
      "note": 48,
      "start": 38.6088,
      "duration": 0.1641,
      "velocity": 105,
      "chip": "ym2612"
    },
    {
      "channel": 3,
      "note": 55,
      "start": 38.6113,
      "duration": 0.1616,
      "velocity": 80,
      "chip": "ym2612"
    },
    {
      "channel": 5,
      "note": 35,
      "start": 38.6149,
      "duration": 0.1999,
      "velocity": 120,
      "chip": "ym2612"
    },
    {
      "channel": 0,
      "note": 48,
      "start": 38.833,
      "duration": 0.1686,
      "velocity": 105,
      "chip": "ym2612"
    },
    {
      "channel": 1,
      "note": 88,
      "start": 38.835,
      "duration": 0.1672,
      "velocity": 80,
      "chip": "ym2612"
    },
    {
      "channel": 4,
      "note": 57,
      "start": 38.8366,
      "duration": 0.3379,
      "velocity": 126,
      "chip": "ym2612"
    },
    {
      "channel": 5,
      "note": 24,
      "start": 38.8392,
      "duration": 0.0957,
      "velocity": 120,
      "chip": "ym2612"
    },
    {
      "channel": 0,
      "note": 48,
      "start": 39.0374,
      "duration": 0.1642,
      "velocity": 105,
      "chip": "ym2612"
    },
    {
      "channel": 3,
      "note": 82,
      "start": 39.039,
      "duration": 0.0717,
      "velocity": 80,
      "chip": "ym2612"
    },
    {
      "channel": 5,
      "note": 35,
      "start": 39.0425,
      "duration": 0.0983,
      "velocity": 120,
      "chip": "ym2612"
    },
    {
      "channel": 1,
      "note": 81,
      "start": 39.1577,
      "duration": 0.0735,
      "velocity": 80,
      "chip": "ym2612"
    },
    {
      "channel": 0,
      "note": 48,
      "start": 39.2619,
      "duration": 0.1628,
      "velocity": 105,
      "chip": "ym2612"
    },
    {
      "channel": 3,
      "note": 78,
      "start": 39.2634,
      "duration": 0.1615,
      "velocity": 80,
      "chip": "ym2612"
    },
    {
      "channel": 4,
      "note": 60,
      "start": 39.2656,
      "duration": 0.0691,
      "velocity": 126,
      "chip": "ym2612"
    },
    {
      "channel": 5,
      "note": 24,
      "start": 39.2681,
      "duration": 0.098,
      "velocity": 120,
      "chip": "ym2612"
    },
    {
      "channel": 1,
      "note": 79,
      "start": 39.3646,
      "duration": 0.0724,
      "velocity": 126,
      "chip": "ym2612"
    },
    {
      "channel": 0,
      "note": 48,
      "start": 39.4678,
      "duration": 0.1684,
      "velocity": 105,
      "chip": "ym2612"
    },
    {
      "channel": 3,
      "note": 76,
      "start": 39.4705,
      "duration": 0.1659,
      "velocity": 126,
      "chip": "ym2612"
    },
    {
      "channel": 4,
      "note": 54,
      "start": 39.4738,
      "duration": 0.1633,
      "velocity": 80,
      "chip": "ym2612"
    },
    {
      "channel": 5,
      "note": 35,
      "start": 39.4764,
      "duration": 0.2018,
      "velocity": 120,
      "chip": "ym2612"
    },
    {
      "channel": 0,
      "note": 47,
      "start": 39.6963,
      "duration": 0.1686,
      "velocity": 105,
      "chip": "ym2612"
    },
    {
      "channel": 3,
      "note": 59,
      "start": 39.6978,
      "duration": 0.1673,
      "velocity": 126,
      "chip": "ym2612"
    },
    {
      "channel": 1,
      "note": 57,
      "start": 39.7005,
      "duration": 0.3427,
      "velocity": 80,
      "chip": "ym2612"
    },
    {
      "channel": 5,
      "note": 24,
      "start": 39.7037,
      "duration": 0.2013,
      "velocity": 120,
      "chip": "ym2612"
    },
    {
      "channel": 0,
      "note": 47,
      "start": 39.9066,
      "duration": 0.17,
      "velocity": 105,
      "chip": "ym2612"
    },
    {
      "channel": 4,
      "note": 83,
      "start": 39.9101,
      "duration": 0.1676,
      "velocity": 126,
      "chip": "ym2612"
    },
    {
      "channel": 5,
      "note": 35,
      "start": 39.9128,
      "duration": 0.0932,
      "velocity": 120,
      "chip": "ym2612"
    },
    {
      "channel": 5,
      "note": 24,
      "start": 40.0107,
      "duration": 0.1022,
      "velocity": 120,
      "chip": "ym2612"
    },
    {
      "channel": 0,
      "note": 47,
      "start": 40.1309,
      "duration": 0.1686,
      "velocity": 105,
      "chip": "ym2612"
    },
    {
      "channel": 3,
      "note": 50,
      "start": 40.1334,
      "duration": 0.0751,
      "velocity": 80,
      "chip": "ym2612"
    },
    {
      "channel": 1,
      "note": 86,
      "start": 40.1362,
      "duration": 0.164,
      "velocity": 126,
      "chip": "ym2612"
    },
    {
      "channel": 5,
      "note": 24,
      "start": 40.1393,
      "duration": 0.1017,
      "velocity": 120,
      "chip": "ym2612"
    },
    {
      "channel": 4,
      "note": 55,
      "start": 40.24,
      "duration": 0.0725,
      "velocity": 80,
      "chip": "ym2612"
    },
    {
      "channel": 0,
      "note": 47,
      "start": 40.3414,
      "duration": 0.164,
      "velocity": 105,
      "chip": "ym2612"
    },
    {
      "channel": 3,
      "note": 81,
      "start": 40.3429,
      "duration": 0.3402,
      "velocity": 80,
      "chip": "ym2612"
    },
    {
      "channel": 5,
      "note": 35,
      "start": 40.3463,
      "duration": 0.2069,
      "velocity": 120,
      "chip": "ym2612"
    },
    {
      "channel": 0,
      "note": 47,
      "start": 40.5645,
      "duration": 0.1639,
      "velocity": 105,
      "chip": "ym2612"
    },
    {
      "channel": 1,
      "note": 54,
      "start": 40.5664,
      "duration": 0.3402,
      "velocity": 126,
      "chip": "ym2612"
    },
    {
      "channel": 5,
      "note": 24,
      "start": 40.5695,
      "duration": 0.098,
      "velocity": 120,
      "chip": "ym2612"
    },
    {
      "channel": 0,
      "note": 47,
      "start": 40.7701,
      "duration": 0.1699,
      "velocity": 105,
      "chip": "ym2612"
    },
    {
      "channel": 4,
      "note": 79,
      "start": 40.7726,
      "duration": 0.2136,
      "velocity": 80,
      "chip": "ym2612"
    },
    {
      "channel": 5,
      "note": 35,
      "start": 40.7751,
      "duration": 0.0983,
      "velocity": 120,
      "chip": "ym2612"
    },
    {
      "channel": 0,
      "note": 47,
      "start": 40.9772,
      "duration": 0.1629,
      "velocity": 105,
      "chip": "ym2612"
    },
    {
      "channel": 3,
      "note": 81,
      "start": 40.9787,
      "duration": 0.0704,
      "velocity": 80,
      "chip": "ym2612"
    },
    {
      "channel": 1,
      "note": 52,
      "start": 40.9804,
      "duration": 0.1604,
      "velocity": 126,
      "chip": "ym2612"
    },
    {
      "channel": 5,
      "note": 24,
      "start": 40.9834,
      "duration": 0.0958,
      "velocity": 120,
      "chip": "ym2612"
    },
    {
      "channel": 4,
      "note": 83,
      "start": 41.0967,
      "duration": 0.0735,
      "velocity": 80,
      "chip": "ym2612"
    },
    {
      "channel": 0,
      "note": 47,
      "start": 41.2012,
      "duration": 0.1676,
      "velocity": 105,
      "chip": "ym2612"
    },
    {
      "channel": 3,
      "note": 79,
      "start": 41.2028,
      "duration": 0.1662,
      "velocity": 80,
      "chip": "ym2612"
    },
    {
      "channel": 1,
      "note": 50,
      "start": 41.2044,
      "duration": 0.8517,
      "velocity": 126,
      "chip": "ym2612"
    },
    {
      "channel": 5,
      "note": 35,
      "start": 41.2074,
      "duration": 0.2015,
      "velocity": 120,
      "chip": "ym2612"
    },
    {
      "channel": 0,
      "note": 40,
      "start": 41.4106,
      "duration": 0.1641,
      "velocity": 105,
      "chip": "ym2612"
    },
    {
      "channel": 4,
      "note": 76,
      "start": 41.4131,
      "duration": 0.1627,
      "velocity": 80,
      "chip": "ym2612"
    },
    {
      "channel": 5,
      "note": 24,
      "start": 41.4155,
      "duration": 0.2013,
      "velocity": 120,
      "chip": "ym2612"
    },
    {
      "channel": 0,
      "note": 40,
      "start": 41.6335,
      "duration": 0.1643,
      "velocity": 105,
      "chip": "ym2612"
    },
    {
      "channel": 3,
      "note": 79,
      "start": 41.635,
      "duration": 0.1629,
      "velocity": 80,
      "chip": "ym2612"
    },
    {
      "channel": 5,
      "note": 35,
      "start": 41.6385,
      "duration": 0.0944,
      "velocity": 120,
      "chip": "ym2612"
    },
    {
      "channel": 5,
      "note": 24,
      "start": 41.7376,
      "duration": 0.1002,
      "velocity": 120,
      "chip": "ym2612"
    },
    {
      "channel": 0,
      "note": 40,
      "start": 41.8395,
      "duration": 0.1641,
      "velocity": 105,
      "chip": "ym2612"
    },
    {
      "channel": 4,
      "note": 76,
      "start": 41.842,
      "duration": 0.1627,
      "velocity": 80,
      "chip": "ym2612"
    },
    {
      "channel": 5,
      "note": 24,
      "start": 41.8445,
      "duration": 0.0982,
      "velocity": 120,
      "chip": "ym2612"
    },
    {
      "channel": 0,
      "note": 40,
      "start": 42.0632,
      "duration": 0.1634,
      "velocity": 105,
      "chip": "ym2612"
    },
    {
      "channel": 3,
      "note": 78,
      "start": 42.0649,
      "duration": 0.3395,
      "velocity": 80,
      "chip": "ym2612"
    },
    {
      "channel": 4,
      "note": 79,
      "start": 42.068,
      "duration": 0.8462,
      "velocity": 126,
      "chip": "ym2612"
    },
    {
      "channel": 5,
      "note": 35,
      "start": 42.0707,
      "duration": 0.195,
      "velocity": 120,
      "chip": "ym2612"
    },
    {
      "channel": 0,
      "note": 42,
      "start": 42.2674,
      "duration": 0.165,
      "velocity": 105,
      "chip": "ym2612"
    },
    {
      "channel": 5,
      "note": 24,
      "start": 42.2713,
      "duration": 0.1003,
      "velocity": 120,
      "chip": "ym2612"
    },
    {
      "channel": 0,
      "note": 42,
      "start": 42.4912,
      "duration": 0.1642,
      "velocity": 105,
      "chip": "ym2612"
    },
    {
      "channel": 1,
      "note": 52,
      "start": 42.4942,
      "duration": 0.1618,
      "velocity": 80,
      "chip": "ym2612"
    },
    {
      "channel": 5,
      "note": 35,
      "start": 42.4974,
      "duration": 0.0972,
      "velocity": 120,
      "chip": "ym2612"
    },
    {
      "channel": 0,
      "note": 42,
      "start": 42.6972,
      "duration": 0.1699,
      "velocity": 105,
      "chip": "ym2612"
    },
    {
      "channel": 3,
      "note": 81,
      "start": 42.6986,
      "duration": 0.1685,
      "velocity": 80,
      "chip": "ym2612"
    },
    {
      "channel": 5,
      "note": 24,
      "start": 42.7021,
      "duration": 0.0983,
      "velocity": 120,
      "chip": "ym2612"
    },
    {
      "channel": 0,
      "note": 42,
      "start": 42.9212,
      "duration": 0.1688,
      "velocity": 105,
      "chip": "ym2612"
    },
    {
      "channel": 3,
      "note": 81,
      "start": 42.9239,
      "duration": 0.8419,
      "velocity": 126,
      "chip": "ym2612"
    },
    {
      "channel": 1,
      "note": 84,
      "start": 42.9256,
      "duration": 0.1651,
      "velocity": 80,
      "chip": "ym2612"
    },
    {
      "channel": 5,
      "note": 35,
      "start": 42.9287,
      "duration": 0.2015,
      "velocity": 120,
      "chip": "ym2612"
    },
    {
      "channel": 0,
      "note": 43,
      "start": 43.1318,
      "duration": 0.164,
      "velocity": 105,
      "chip": "ym2612"
    },
    {
      "channel": 4,
      "note": 54,
      "start": 43.1353,
      "duration": 0.3393,
      "velocity": 80,
      "chip": "ym2612"
    },
    {
      "channel": 5,
      "note": 24,
      "start": 43.138,
      "duration": 0.2056,
      "velocity": 120,
      "chip": "ym2612"
    },
    {
      "channel": 0,
      "note": 43,
      "start": 43.3539,
      "duration": 0.165,
      "velocity": 105,
      "chip": "ym2612"
    },
    {
      "channel": 5,
      "note": 35,
      "start": 43.3577,
      "duration": 0.0963,
      "velocity": 120,
      "chip": "ym2612"
    },
    {
      "channel": 5,
      "note": 24,
      "start": 43.4588,
      "duration": 0.1002,
      "velocity": 120,
      "chip": "ym2612"
    },
    {
      "channel": 0,
      "note": 43,
      "start": 43.5607,
      "duration": 0.164,
      "velocity": 105,
      "chip": "ym2612"
    },
    {
      "channel": 1,
      "note": 86,
      "start": 43.5627,
      "duration": 0.0715,
      "velocity": 80,
      "chip": "ym2612"
    },
    {
      "channel": 5,
      "note": 24,
      "start": 43.5658,
      "duration": 0.0992,
      "velocity": 120,
      "chip": "ym2612"
    },
    {
      "channel": 4,
      "note": 83,
      "start": 43.6641,
      "duration": 0.0735,
      "velocity": 80,
      "chip": "ym2612"
    },
    {
      "channel": 0,
      "note": 43,
      "start": 43.7686,
      "duration": 0.1677,
      "velocity": 105,
      "chip": "ym2612"
    },
    {
      "channel": 3,
      "note": 55,
      "start": 43.7703,
      "duration": 0.4239,
      "velocity": 126,
      "chip": "ym2612"
    },
    {
      "channel": 1,
      "note": 79,
      "start": 43.7719,
      "duration": 0.165,
      "velocity": 80,
      "chip": "ym2612"
    },
    {
      "channel": 4,
      "note": 81,
      "start": 43.7746,
      "duration": 0.4201,
      "velocity": 126,
      "chip": "ym2612"
    },
    {
      "channel": 5,
      "note": 35,
      "start": 43.7773,
      "duration": 0.2068,
      "velocity": 120,
      "chip": "ym2612"
    },
    {
      "channel": 0,
      "note": 45,
      "start": 43.9953,
      "duration": 0.1641,
      "velocity": 105,
      "chip": "ym2612"
    },
    {
      "channel": 1,
      "note": 83,
      "start": 43.9972,
      "duration": 0.1627,
      "velocity": 80,
      "chip": "ym2612"
    },
    {
      "channel": 5,
      "note": 24,
      "start": 44.0004,
      "duration": 0.098,
      "velocity": 120,
      "chip": "ym2612"
    },
    {
      "channel": 0,
      "note": 45,
      "start": 44.2023,
      "duration": 0.1686,
      "velocity": 105,
      "chip": "ym2612"
    },
    {
      "channel": 3,
      "note": 57,
      "start": 44.204,
      "duration": 0.4247,
      "velocity": 126,
      "chip": "ym2612"
    },
    {
      "channel": 1,
      "note": 95,
      "start": 44.2056,
      "duration": 0.1659,
      "velocity": 80,
      "chip": "ym2612"
    },
    {
      "channel": 4,
      "note": 52,
      "start": 44.2073,
      "duration": 0.422,
      "velocity": 126,
      "chip": "ym2612"
    },
    {
      "channel": 5,
      "note": 35,
      "start": 44.2099,
      "duration": 0.1001,
      "velocity": 120,
      "chip": "ym2612"
    },
    {
      "channel": 0,
      "note": 47,
      "start": 44.4298,
      "duration": 0.1641,
      "velocity": 105,
      "chip": "ym2612"
    },
    {
      "channel": 1,
      "note": 83,
      "start": 44.4318,
      "duration": 0.1627,
      "velocity": 80,
      "chip": "ym2612"
    },
    {
      "channel": 5,
      "note": 24,
      "start": 44.4348,
      "duration": 0.0982,
      "velocity": 120,
      "chip": "ym2612"
    },
    {
      "channel": 0,
      "note": 47,
      "start": 44.6386,
      "duration": 0.1726,
      "velocity": 105,
      "chip": "ym2612"
    },
    {
      "channel": 3,
      "note": 54,
      "start": 44.6402,
      "duration": 0.3144,
      "velocity": 126,
      "chip": "ym2612"
    },
    {
      "channel": 1,
      "note": 95,
      "start": 44.642,
      "duration": 0.1698,
      "velocity": 80,
      "chip": "ym2612"
    },
    {
      "channel": 4,
      "note": 59,
      "start": 44.6436,
      "duration": 0.3117,
      "velocity": 126,
      "chip": "ym2612"
    },
    {
      "channel": 5,
      "note": 35,
      "start": 44.6463,
      "duration": 0.2069,
      "velocity": 120,
      "chip": "ym2612"
    },
    {
      "channel": 1,
      "note": 76,
      "start": 44.8646,
      "duration": 0.1648,
      "velocity": 80,
      "chip": "ym2612"
    },
    {
      "channel": 5,
      "note": 24,
      "start": 44.8677,
      "duration": 0.1998,
      "velocity": 120,
      "chip": "ym2612"
    },
    {
      "channel": 0,
      "note": 40,
      "start": 44.9672,
      "duration": 0.1642,
      "velocity": 105,
      "chip": "ym2612"
    },
    {
      "channel": 3,
      "note": 59,
      "start": 44.9689,
      "duration": 0.2031,
      "velocity": 126,
      "chip": "ym2612"
    },
    {
      "channel": 4,
      "note": 64,
      "start": 44.971,
      "duration": 0.2015,
      "velocity": 126,
      "chip": "ym2612"
    },
    {
      "channel": 1,
      "note": 79,
      "start": 45.0703,
      "duration": 0.165,
      "velocity": 80,
      "chip": "ym2612"
    },
    {
      "channel": 5,
      "note": 35,
      "start": 45.0734,
      "duration": 0.0965,
      "velocity": 120,
      "chip": "ym2612"
    },
    {
      "channel": 5,
      "note": 24,
      "start": 45.1736,
      "duration": 0.1028,
      "velocity": 120,
      "chip": "ym2612"
    },
    {
      "channel": 0,
      "note": 38,
      "start": 45.2954,
      "duration": 0.1676,
      "velocity": 105,
      "chip": "ym2612"
    },
    {
      "channel": 3,
      "note": 57,
      "start": 45.2981,
      "duration": 0.3427,
      "velocity": 80,
      "chip": "ym2612"
    },
    {
      "channel": 1,
      "note": 84,
      "start": 45.3009,
      "duration": 0.1002,
      "velocity": 126,
      "chip": "ym2612"
    },
    {
      "channel": 4,
      "note": 62,
      "start": 45.3026,
      "duration": 0.0987,
      "velocity": 126,
      "chip": "ym2612"
    },
    {
      "channel": 5,
      "note": 24,
      "start": 45.3052,
      "duration": 0.0962,
      "velocity": 120,
      "chip": "ym2612"
    },
    {
      "channel": 5,
      "note": 35,
      "start": 45.5067,
      "duration": 0.2099,
      "velocity": 120,
      "chip": "ym2612"
    },
    {
      "channel": 0,
      "note": 40,
      "start": 45.7291,
      "duration": 0.1742,
      "velocity": 105,
      "chip": "ym2612"
    },
    {
      "channel": 1,
      "note": 64,
      "start": 45.7323,
      "duration": 0.1717,
      "velocity": 80,
      "chip": "ym2612"
    },
    {
      "channel": 4,
      "note": 59,
      "start": 45.734,
      "duration": 0.2165,
      "velocity": 126,
      "chip": "ym2612"
    },
    {
      "channel": 5,
      "note": 24,
      "start": 45.7366,
      "duration": 0.1001,
      "velocity": 120,
      "chip": "ym2612"
    },
    {
      "channel": 0,
      "note": 43,
      "start": 45.9402,
      "duration": 0.1632,
      "velocity": 105,
      "chip": "ym2612"
    },
    {
      "channel": 3,
      "note": 83,
      "start": 45.9419,
      "duration": 0.1617,
      "velocity": 80,
      "chip": "ym2612"
    },
    {
      "channel": 1,
      "note": 76,
      "start": 45.9446,
      "duration": 0.2055,
      "velocity": 126,
      "chip": "ym2612"
    },
    {
      "channel": 5,
      "note": 35,
      "start": 45.9478,
      "duration": 0.0948,
      "velocity": 120,
      "chip": "ym2612"
    },
    {
      "channel": 0,
      "note": 45,
      "start": 46.1635,
      "duration": 0.1686,
      "velocity": 105,
      "chip": "ym2612"
    },
    {
      "channel": 3,
      "note": 79,
      "start": 46.1662,
      "duration": 0.2066,
      "velocity": 126,
      "chip": "ym2612"
    },
    {
      "channel": 4,
      "note": 67,
      "start": 46.1694,
      "duration": 1.5538,
      "velocity": 80,
      "chip": "ym2612"
    },
    {
      "channel": 5,
      "note": 24,
      "start": 46.1721,
      "duration": 0.0992,
      "velocity": 120,
      "chip": "ym2612"
    },
    {
      "channel": 0,
      "note": 47,
      "start": 46.3758,
      "duration": 0.1622,
      "velocity": 105,
      "chip": "ym2612"
    },
    {
      "channel": 3,
      "note": 62,
      "start": 46.3775,
      "duration": 0.3097,
      "velocity": 126,
      "chip": "ym2612"
    },
    {
      "channel": 1,
      "note": 66,
      "start": 46.3791,
      "duration": 0.3082,
      "velocity": 126,
      "chip": "ym2612"
    },
    {
      "channel": 5,
      "note": 35,
      "start": 46.3822,
      "duration": 0.1941,
      "velocity": 120,
      "chip": "ym2612"
    },
    {
      "channel": 5,
      "note": 24,
      "start": 46.5818,
      "duration": 0.2099,
      "velocity": 120,
      "chip": "ym2612"
    },
    {
      "channel": 0,
      "note": 40,
      "start": 46.6998,
      "duration": 0.1642,
      "velocity": 105,
      "chip": "ym2612"
    },
    {
      "channel": 3,
      "note": 64,
      "start": 46.7014,
      "duration": 0.2088,
      "velocity": 126,
      "chip": "ym2612"
    },
    {
      "channel": 1,
      "note": 59,
      "start": 46.7032,
      "duration": 0.2072,
      "velocity": 126,
      "chip": "ym2612"
    },
    {
      "channel": 5,
      "note": 35,
      "start": 46.8047,
      "duration": 0.0978,
      "velocity": 120,
      "chip": "ym2612"
    },
    {
      "channel": 5,
      "note": 24,
      "start": 46.9068,
      "duration": 0.1012,
      "velocity": 120,
      "chip": "ym2612"
    },
    {
      "channel": 0,
      "note": 38,
      "start": 47.0097,
      "duration": 0.163,
      "velocity": 105,
      "chip": "ym2612"
    },
    {
      "channel": 3,
      "note": 57,
      "start": 47.0114,
      "duration": 0.099,
      "velocity": 126,
      "chip": "ym2612"
    },
    {
      "channel": 1,
      "note": 62,
      "start": 47.0131,
      "duration": 0.0974,
      "velocity": 126,
      "chip": "ym2612"
    },
    {
      "channel": 5,
      "note": 24,
      "start": 47.0161,
      "duration": 0.095,
      "velocity": 120,
      "chip": "ym2612"
    },
    {
      "channel": 3,
      "note": 59,
      "start": 47.2313,
      "duration": 0.1021,
      "velocity": 126,
      "chip": "ym2612"
    },
    {
      "channel": 5,
      "note": 35,
      "start": 47.2349,
      "duration": 0.201,
      "velocity": 120,
      "chip": "ym2612"
    },
    {
      "channel": 1,
      "note": 64,
      "start": 47.3343,
      "duration": 0.1055,
      "velocity": 126,
      "chip": "ym2612"
    },
    {
      "channel": 0,
      "note": 40,
      "start": 47.4376,
      "duration": 0.1698,
      "velocity": 105,
      "chip": "ym2612"
    },
    {
      "channel": 3,
      "note": 47,
      "start": 47.4392,
      "duration": 0.1,
      "velocity": 126,
      "chip": "ym2612"
    },
    {
      "channel": 5,
      "note": 24,
      "start": 47.4423,
      "duration": 0.0981,
      "velocity": 120,
      "chip": "ym2612"
    },
    {
      "channel": 1,
      "note": 52,
      "start": 47.5577,
      "duration": 0.105,
      "velocity": 126,
      "chip": "ym2612"
    },
    {
      "channel": 0,
      "note": 43,
      "start": 47.6603,
      "duration": 0.1643,
      "velocity": 105,
      "chip": "ym2612"
    },
    {
      "channel": 3,
      "note": 47,
      "start": 47.662,
      "duration": 0.1002,
      "velocity": 126,
      "chip": "ym2612"
    },
    {
      "channel": 5,
      "note": 35,
      "start": 47.6651,
      "duration": 0.0995,
      "velocity": 120,
      "chip": "ym2612"
    },
    {
      "channel": 1,
      "note": 54,
      "start": 47.7632,
      "duration": 0.1045,
      "velocity": 126,
      "chip": "ym2612"
    },
    {
      "channel": 0,
      "note": 45,
      "start": 47.8664,
      "duration": 0.1641,
      "velocity": 105,
      "chip": "ym2612"
    },
    {
      "channel": 4,
      "note": 81,
      "start": 47.8697,
      "duration": 0.1005,
      "velocity": 126,
      "chip": "ym2612"
    },
    {
      "channel": 5,
      "note": 24,
      "start": 47.8724,
      "duration": 0.098,
      "velocity": 120,
      "chip": "ym2612"
    },
    {
      "channel": 3,
      "note": 47,
      "start": 47.9689,
      "duration": 0.1021,
      "velocity": 126,
      "chip": "ym2612"
    },
    {
      "channel": 0,
      "note": 47,
      "start": 48.0915,
      "duration": 0.1677,
      "velocity": 105,
      "chip": "ym2612"
    },
    {
      "channel": 1,
      "note": 55,
      "start": 48.0937,
      "duration": 0.3074,
      "velocity": 126,
      "chip": "ym2612"
    },
    {
      "channel": 4,
      "note": 47,
      "start": 48.0954,
      "duration": 0.3067,
      "velocity": 126,
      "chip": "ym2612"
    },
    {
      "channel": 5,
      "note": 35,
      "start": 48.0981,
      "duration": 0.2005,
      "velocity": 120,
      "chip": "ym2612"
    },
    {
      "channel": 3,
      "note": 57,
      "start": 48.3017,
      "duration": 0.1638,
      "velocity": 80,
      "chip": "ym2612"
    },
    {
      "channel": 5,
      "note": 24,
      "start": 48.3054,
      "duration": 0.2017,
      "velocity": 120,
      "chip": "ym2612"
    },
    {
      "channel": 0,
      "note": 40,
      "start": 48.4039,
      "duration": 0.1641,
      "velocity": 105,
      "chip": "ym2612"
    },
    {
      "channel": 1,
      "note": 59,
      "start": 48.406,
      "duration": 0.2087,
      "velocity": 126,
      "chip": "ym2612"
    },
    {
      "channel": 4,
      "note": 64,
      "start": 48.4077,
      "duration": 0.2072,
      "velocity": 126,
      "chip": "ym2612"
    },
    {
      "channel": 3,
      "note": 79,
      "start": 48.5236,
      "duration": 0.1707,
      "velocity": 80,
      "chip": "ym2612"
    },
    {
      "channel": 5,
      "note": 35,
      "start": 48.5271,
      "duration": 0.0965,
      "velocity": 120,
      "chip": "ym2612"
    },
    {
      "channel": 5,
      "note": 24,
      "start": 48.628,
      "duration": 0.1024,
      "velocity": 120,
      "chip": "ym2612"
    },
    {
      "channel": 0,
      "note": 38,
      "start": 48.732,
      "duration": 0.1676,
      "velocity": 105,
      "chip": "ym2612"
    },
    {
      "channel": 3,
      "note": 76,
      "start": 48.7346,
      "duration": 0.1026,
      "velocity": 126,
      "chip": "ym2612"
    },
    {
      "channel": 1,
      "note": 57,
      "start": 48.7374,
      "duration": 0.1629,
      "velocity": 80,
      "chip": "ym2612"
    },
    {
      "channel": 4,
      "note": 62,
      "start": 48.7392,
      "duration": 0.0987,
      "velocity": 126,
      "chip": "ym2612"
    },
    {
      "channel": 5,
      "note": 24,
      "start": 48.7417,
      "duration": 0.0964,
      "velocity": 120,
      "chip": "ym2612"
    },
    {
      "channel": 3,
      "note": 64,
      "start": 48.9591,
      "duration": 0.164,
      "velocity": 80,
      "chip": "ym2612"
    },
    {
      "channel": 5,
      "note": 35,
      "start": 48.9628,
      "duration": 0.2012,
      "velocity": 120,
      "chip": "ym2612"
    },
    {
      "channel": 0,
      "note": 40,
      "start": 49.1656,
      "duration": 0.1686,
      "velocity": 105,
      "chip": "ym2612"
    },
    {
      "channel": 1,
      "note": 79,
      "start": 49.1688,
      "duration": 0.2106,
      "velocity": 126,
      "chip": "ym2612"
    },
    {
      "channel": 4,
      "note": 59,
      "start": 49.1715,
      "duration": 0.1638,
      "velocity": 80,
      "chip": "ym2612"
    },
    {
      "channel": 5,
      "note": 24,
      "start": 49.1742,
      "duration": 0.0991,
      "velocity": 120,
      "chip": "ym2612"
    },
    {
      "channel": 0,
      "note": 43,
      "start": 49.3769,
      "duration": 0.1689,
      "velocity": 105,
      "chip": "ym2612"
    },
    {
      "channel": 3,
      "note": 74,
      "start": 49.3785,
      "duration": 0.1674,
      "velocity": 80,
      "chip": "ym2612"
    },
    {
      "channel": 4,
      "note": 79,
      "start": 49.3814,
      "duration": 0.2059,
      "velocity": 126,
      "chip": "ym2612"
    },
    {
      "channel": 5,
      "note": 35,
      "start": 49.3841,
      "duration": 0.0951,
      "velocity": 120,
      "chip": "ym2612"
    },
    {
      "channel": 0,
      "note": 45,
      "start": 49.6,
      "duration": 0.1687,
      "velocity": 105,
      "chip": "ym2612"
    },
    {
      "channel": 3,
      "note": 72,
      "start": 49.6027,
      "duration": 0.2083,
      "velocity": 126,
      "chip": "ym2612"
    },
    {
      "channel": 1,
      "note": 67,
      "start": 49.6055,
      "duration": 0.1639,
      "velocity": 80,
      "chip": "ym2612"
    },
    {
      "channel": 5,
      "note": 24,
      "start": 49.6086,
      "duration": 0.0993,
      "velocity": 120,
      "chip": "ym2612"
    },
    {
      "channel": 0,
      "note": 47,
      "start": 49.8141,
      "duration": 0.1662,
      "velocity": 105,
      "chip": "ym2612"
    },
    {
      "channel": 3,
      "note": 62,
      "start": 49.8157,
      "duration": 0.3137,
      "velocity": 126,
      "chip": "ym2612"
    },
    {
      "channel": 1,
      "note": 79,
      "start": 49.8185,
      "duration": 0.3112,
      "velocity": 126,
      "chip": "ym2612"
    },
    {
      "channel": 4,
      "note": 66,
      "start": 49.8212,
      "duration": 0.6867,
      "velocity": 80,
      "chip": "ym2612"
    },
    {
      "channel": 5,
      "note": 35,
      "start": 49.8238,
      "duration": 0.2043,
      "velocity": 120,
      "chip": "ym2612"
    },
    {
      "channel": 5,
      "note": 24,
      "start": 50.0412,
      "duration": 0.2001,
      "velocity": 120,
      "chip": "ym2612"
    },
    {
      "channel": 0,
      "note": 40,
      "start": 50.1421,
      "duration": 0.1642,
      "velocity": 105,
      "chip": "ym2612"
    },
    {
      "channel": 3,
      "note": 64,
      "start": 50.1437,
      "duration": 0.2088,
      "velocity": 126,
      "chip": "ym2612"
    },
    {
      "channel": 1,
      "note": 59,
      "start": 50.1455,
      "duration": 0.2072,
      "velocity": 126,
      "chip": "ym2612"
    },
    {
      "channel": 5,
      "note": 35,
      "start": 50.2471,
      "duration": 0.1013,
      "velocity": 120,
      "chip": "ym2612"
    },
    {
      "channel": 5,
      "note": 24,
      "start": 50.3663,
      "duration": 0.1013,
      "velocity": 120,
      "chip": "ym2612"
    },
    {
      "channel": 0,
      "note": 38,
      "start": 50.4692,
      "duration": 0.1688,
      "velocity": 105,
      "chip": "ym2612"
    },
    {
      "channel": 3,
      "note": 57,
      "start": 50.4708,
      "duration": 0.099,
      "velocity": 126,
      "chip": "ym2612"
    },
    {
      "channel": 1,
      "note": 62,
      "start": 50.4726,
      "duration": 0.0974,
      "velocity": 126,
      "chip": "ym2612"
    },
    {
      "channel": 5,
      "note": 24,
      "start": 50.4756,
      "duration": 0.095,
      "velocity": 120,
      "chip": "ym2612"
    },
    {
      "channel": 3,
      "note": 55,
      "start": 50.6758,
      "duration": 0.4201,
      "velocity": 126,
      "chip": "ym2612"
    },
    {
      "channel": 1,
      "note": 60,
      "start": 50.6775,
      "duration": 0.4185,
      "velocity": 126,
      "chip": "ym2612"
    },
    {
      "channel": 4,
      "note": 76,
      "start": 50.6792,
      "duration": 0.0232,
      "velocity": 80,
      "chip": "ym2612"
    },
    {
      "channel": 5,
      "note": 35,
      "start": 50.6818,
      "duration": 0.204,
      "velocity": 120,
      "chip": "ym2612"
    },
    {
      "channel": 4,
      "note": 62,
      "start": 50.726,
      "duration": 0.1536,
      "velocity": 80,
      "chip": "ym2612"
    },
    {
      "channel": 0,
      "note": 36,
      "start": 50.8972,
      "duration": 0.1639,
      "velocity": 105,
      "chip": "ym2612"
    },
    {
      "channel": 4,
      "note": 64,
      "start": 50.8999,
      "duration": 0.1623,
      "velocity": 80,
      "chip": "ym2612"
    },
    {
      "channel": 5,
      "note": 24,
      "start": 50.9025,
      "duration": 0.0936,
      "velocity": 120,
      "chip": "ym2612"
    },
    {
      "channel": 5,
      "note": 35,
      "start": 51.001,
      "duration": 0.1015,
      "velocity": 120,
      "chip": "ym2612"
    },
    {
      "channel": 0,
      "note": 43,
      "start": 51.1051,
      "duration": 0.1676,
      "velocity": 105,
      "chip": "ym2612"
    },
    {
      "channel": 3,
      "note": 54,
      "start": 51.1067,
      "duration": 0.4237,
      "velocity": 126,
      "chip": "ym2612"
    },
    {
      "channel": 1,
      "note": 59,
      "start": 51.1084,
      "duration": 0.4222,
      "velocity": 126,
      "chip": "ym2612"
    },
    {
      "channel": 4,
      "note": 76,
      "start": 51.1101,
      "duration": 0.0268,
      "velocity": 80,
      "chip": "ym2612"
    },
    {
      "channel": 5,
      "note": 35,
      "start": 51.1119,
      "duration": 0.0958,
      "velocity": 120,
      "chip": "ym2612"
    },
    {
      "channel": 4,
      "note": 62,
      "start": 51.1606,
      "duration": 0.1536,
      "velocity": 80,
      "chip": "ym2612"
    },
    {
      "channel": 5,
      "note": 35,
      "start": 51.2126,
      "duration": 0.1018,
      "velocity": 120,
      "chip": "ym2612"
    },
    {
      "channel": 0,
      "note": 45,
      "start": 51.3316,
      "duration": 0.1698,
      "velocity": 105,
      "chip": "ym2612"
    },
    {
      "channel": 4,
      "note": 64,
      "start": 51.3342,
      "duration": 0.1683,
      "velocity": 80,
      "chip": "ym2612"
    },
    {
      "channel": 5,
      "note": 35,
      "start": 51.336,
      "duration": 0.0946,
      "velocity": 120,
      "chip": "ym2612"
    },
    {
      "channel": 5,
      "note": 35,
      "start": 51.4356,
      "duration": 0.1031,
      "velocity": 120,
      "chip": "ym2612"
    },
    {
      "channel": 0,
      "note": 47,
      "start": 51.5409,
      "duration": 3.4579,
      "velocity": 105,
      "chip": "ym2612"
    },
    {
      "channel": 3,
      "note": 52,
      "start": 51.5435,
      "duration": 0.1699,
      "velocity": 99,
      "chip": "ym2612"
    },
    {
      "channel": 1,
      "note": 57,
      "start": 51.5455,
      "duration": 0.2142,
      "velocity": 126,
      "chip": "ym2612"
    },
    {
      "channel": 4,
      "note": 76,
      "start": 51.5481,
      "duration": 0.166,
      "velocity": 99,
      "chip": "ym2612"
    },
    {
      "channel": 2,
      "note": 74,
      "start": 51.5511,
      "duration": 0.1294,
      "velocity": 127,
      "chip": "ym2612"
    },
    {
      "channel": 5,
      "note": 35,
      "start": 51.5537,
      "duration": 0.2071,
      "velocity": 120,
      "chip": "ym2612"
    },
    {
      "channel": 3,
      "note": 67,
      "start": 51.7731,
      "duration": 0.1634,
      "velocity": 99,
      "chip": "ym2612"
    },
    {
      "channel": 4,
      "note": 60,
      "start": 51.7763,
      "duration": 0.0994,
      "velocity": 126,
      "chip": "ym2612"
    },
    {
      "channel": 2,
      "note": 92,
      "start": 51.7782,
      "duration": 0.0796,
      "velocity": 127,
      "chip": "ym2612"
    },
    {
      "channel": 1,
      "note": 71,
      "start": 51.8749,
      "duration": 0.1016,
      "velocity": 126,
      "chip": "ym2612"
    },
    {
      "channel": 3,
      "note": 59,
      "start": 51.9806,
      "duration": 0.1674,
      "velocity": 99,
      "chip": "ym2612"
    },
    {
      "channel": 1,
      "note": 67,
      "start": 51.9824,
      "duration": 0.209,
      "velocity": 126,
      "chip": "ym2612"
    },
    {
      "channel": 4,
      "note": 69,
      "start": 51.985,
      "duration": 0.1637,
      "velocity": 99,
      "chip": "ym2612"
    },
    {
      "channel": 2,
      "note": 92,
      "start": 51.9871,
      "duration": 0.0594,
      "velocity": 127,
      "chip": "ym2612"
    },
    {
      "channel": 5,
      "note": 23,
      "start": 51.9886,
      "duration": 0.0984,
      "velocity": 120,
      "chip": "ym2612"
    },
    {
      "channel": 3,
      "note": 67,
      "start": 52.1904,
      "duration": 0.1691,
      "velocity": 99,
      "chip": "ym2612"
    },
    {
      "channel": 4,
      "note": 60,
      "start": 52.1934,
      "duration": 0.0985,
      "velocity": 126,
      "chip": "ym2612"
    },
    {
      "channel": 2,
      "note": 92,
      "start": 52.1951,
      "duration": 0.0573,
      "velocity": 127,
      "chip": "ym2612"
    },
    {
      "channel": 2,
      "note": 92,
      "start": 52.3104,
      "duration": 0.0621,
      "velocity": 127,
      "chip": "ym2612"
    },
    {
      "channel": 1,
      "note": 69,
      "start": 52.4155,
      "duration": 0.1734,
      "velocity": 99,
      "chip": "ym2612"
    },
    {
      "channel": 4,
      "note": 64,
      "start": 52.4183,
      "duration": 0.1706,
      "velocity": 99,
      "chip": "ym2612"
    },
    {
      "channel": 2,
      "note": 92,
      "start": 52.4203,
      "duration": 0.0607,
      "velocity": 127,
      "chip": "ym2612"
    },
    {
      "channel": 5,
      "note": 23,
      "start": 52.4217,
      "duration": 0.0999,
      "velocity": 120,
      "chip": "ym2612"
    },
    {
      "channel": 3,
      "note": 59,
      "start": 52.6249,
      "duration": 0.1636,
      "velocity": 99,
      "chip": "ym2612"
    },
    {
      "channel": 1,
      "note": 60,
      "start": 52.6278,
      "duration": 0.0982,
      "velocity": 126,
      "chip": "ym2612"
    },
    {
      "channel": 2,
      "note": 92,
      "start": 52.63,
      "duration": 0.0569,
      "velocity": 127,
      "chip": "ym2612"
    },
    {
      "channel": 4,
      "note": 67,
      "start": 52.7455,
      "duration": 0.1,
      "velocity": 126,
      "chip": "ym2612"
    },
    {
      "channel": 3,
      "note": 59,
      "start": 52.8497,
      "duration": 0.1675,
      "velocity": 99,
      "chip": "ym2612"
    },
    {
      "channel": 1,
      "note": 64,
      "start": 52.8524,
      "duration": 0.1649,
      "velocity": 99,
      "chip": "ym2612"
    },
    {
      "channel": 4,
      "note": 62,
      "start": 52.8543,
      "duration": 0.0978,
      "velocity": 126,
      "chip": "ym2612"
    },
    {
      "channel": 2,
      "note": 92,
      "start": 52.856,
      "duration": 0.0596,
      "velocity": 127,
      "chip": "ym2612"
    },
    {
      "channel": 5,
      "note": 23,
      "start": 52.8584,
      "duration": 0.099,
      "velocity": 120,
      "chip": "ym2612"
    },
    {
      "channel": 4,
      "note": 64,
      "start": 52.956,
      "duration": 0.1069,
      "velocity": 126,
      "chip": "ym2612"
    },
    {
      "channel": 3,
      "note": 67,
      "start": 53.0593,
      "duration": 0.1638,
      "velocity": 99,
      "chip": "ym2612"
    },
    {
      "channel": 1,
      "note": 60,
      "start": 53.0621,
      "duration": 0.0985,
      "velocity": 126,
      "chip": "ym2612"
    },
    {
      "channel": 2,
      "note": 92,
      "start": 53.064,
      "duration": 0.0518,
      "velocity": 127,
      "chip": "ym2612"
    },
    {
      "channel": 4,
      "note": 66,
      "start": 53.179,
      "duration": 0.1013,
      "velocity": 126,
      "chip": "ym2612"
    },
    {
      "channel": 3,
      "note": 59,
      "start": 53.2847,
      "duration": 0.1728,
      "velocity": 99,
      "chip": "ym2612"
    },
    {
      "channel": 1,
      "note": 67,
      "start": 53.2876,
      "duration": 0.17,
      "velocity": 99,
      "chip": "ym2612"
    },
    {
      "channel": 4,
      "note": 69,
      "start": 53.2894,
      "duration": 0.0975,
      "velocity": 126,
      "chip": "ym2612"
    },
    {
      "channel": 2,
      "note": 92,
      "start": 53.2911,
      "duration": 0.1277,
      "velocity": 127,
      "chip": "ym2612"
    },
    {
      "channel": 5,
      "note": 35,
      "start": 53.2935,
      "duration": 0.2063,
      "velocity": 120,
      "chip": "ym2612"
    },
    {
      "channel": 4,
      "note": 62,
      "start": 53.3906,
      "duration": 0.104,
      "velocity": 126,
      "chip": "ym2612"
    },
    {
      "channel": 3,
      "note": 67,
      "start": 53.4931,
      "duration": 0.1645,
      "velocity": 99,
      "chip": "ym2612"
    },
    {
      "channel": 2,
      "note": 92,
      "start": 53.4956,
      "duration": 0.0833,
      "velocity": 127,
      "chip": "ym2612"
    },
    {
      "channel": 1,
      "note": 60,
      "start": 53.597,
      "duration": 0.1011,
      "velocity": 126,
      "chip": "ym2612"
    },
    {
      "channel": 3,
      "note": 59,
      "start": 53.7189,
      "duration": 0.1674,
      "velocity": 99,
      "chip": "ym2612"
    },
    {
      "channel": 1,
      "note": 62,
      "start": 53.7208,
      "duration": 0.1031,
      "velocity": 126,
      "chip": "ym2612"
    },
    {
      "channel": 4,
      "note": 64,
      "start": 53.7234,
      "duration": 0.1635,
      "velocity": 99,
      "chip": "ym2612"
    },
    {
      "channel": 2,
      "note": 92,
      "start": 53.7255,
      "duration": 0.0593,
      "velocity": 127,
      "chip": "ym2612"
    },
    {
      "channel": 5,
      "note": 23,
      "start": 53.727,
      "duration": 0.098,
      "velocity": 120,
      "chip": "ym2612"
    },
    {
      "channel": 3,
      "note": 67,
      "start": 53.9296,
      "duration": 0.1001,
      "velocity": 126,
      "chip": "ym2612"
    },
    {
      "channel": 1,
      "note": 64,
      "start": 53.9324,
      "duration": 0.1603,
      "velocity": 99,
      "chip": "ym2612"
    },
    {
      "channel": 2,
      "note": 92,
      "start": 53.9347,
      "duration": 0.0503,
      "velocity": 127,
      "chip": "ym2612"
    },
    {
      "channel": 4,
      "note": 60,
      "start": 54.0322,
      "duration": 0.101,
      "velocity": 126,
      "chip": "ym2612"
    },
    {
      "channel": 2,
      "note": 92,
      "start": 54.0339,
      "duration": 0.0594,
      "velocity": 127,
      "chip": "ym2612"
    },
    {
      "channel": 3,
      "note": 64,
      "start": 54.1535,
      "duration": 0.1674,
      "velocity": 99,
      "chip": "ym2612"
    },
    {
      "channel": 1,
      "note": 59,
      "start": 54.1554,
      "duration": 0.1656,
      "velocity": 99,
      "chip": "ym2612"
    },
    {
      "channel": 2,
      "note": 92,
      "start": 54.1578,
      "duration": 0.0559,
      "velocity": 127,
      "chip": "ym2612"
    },
    {
      "channel": 5,
      "note": 23,
      "start": 54.1593,
      "duration": 0.1019,
      "velocity": 120,
      "chip": "ym2612"
    },
    {
      "channel": 4,
      "note": 66,
      "start": 54.2598,
      "duration": 0.1071,
      "velocity": 126,
      "chip": "ym2612"
    },
    {
      "channel": 3,
      "note": 60,
      "start": 54.3631,
      "duration": 0.1636,
      "velocity": 99,
      "chip": "ym2612"
    },
    {
      "channel": 1,
      "note": 67,
      "start": 54.3659,
      "duration": 0.0984,
      "velocity": 126,
      "chip": "ym2612"
    },
    {
      "channel": 2,
      "note": 92,
      "start": 54.3678,
      "duration": 0.0574,
      "velocity": 127,
      "chip": "ym2612"
    },
    {
      "channel": 3,
      "note": 59,
      "start": 54.5891,
      "duration": 0.2155,
      "velocity": 126,
      "chip": "ym2612"
    },
    {
      "channel": 1,
      "note": 71,
      "start": 54.5918,
      "duration": 0.1641,
      "velocity": 99,
      "chip": "ym2612"
    },
    {
      "channel": 4,
      "note": 69,
      "start": 54.5946,
      "duration": 0.1615,
      "velocity": 99,
      "chip": "ym2612"
    },
    {
      "channel": 2,
      "note": 92,
      "start": 54.5965,
      "duration": 0.0574,
      "velocity": 127,
      "chip": "ym2612"
    },
    {
      "channel": 5,
      "note": 23,
      "start": 54.5989,
      "duration": 0.0956,
      "velocity": 120,
      "chip": "ym2612"
    },
    {
      "channel": 1,
      "note": 67,
      "start": 54.7981,
      "duration": 0.1637,
      "velocity": 99,
      "chip": "ym2612"
    },
    {
      "channel": 4,
      "note": 60,
      "start": 54.8009,
      "duration": 0.0985,
      "velocity": 126,
      "chip": "ym2612"
    },
    {
      "channel": 2,
      "note": 92,
      "start": 54.8027,
      "duration": 0.0572,
      "velocity": 127,
      "chip": "ym2612"
    },
    {
      "channel": 0,
      "note": 48,
      "start": 55.0064,
      "duration": 1.7442,
      "velocity": 105,
      "chip": "ym2612"
    },
    {
      "channel": 3,
      "note": 71,
      "start": 55.0091,
      "duration": 0.1753,
      "velocity": 99,
      "chip": "ym2612"
    },
    {
      "channel": 1,
      "note": 59,
      "start": 55.012,
      "duration": 0.1725,
      "velocity": 126,
      "chip": "ym2612"
    },
    {
      "channel": 4,
      "note": 74,
      "start": 55.0147,
      "duration": 0.17,
      "velocity": 99,
      "chip": "ym2612"
    },
    {
      "channel": 2,
      "note": 92,
      "start": 55.0166,
      "duration": 0.1291,
      "velocity": 127,
      "chip": "ym2612"
    },
    {
      "channel": 5,
      "note": 35,
      "start": 55.0189,
      "duration": 0.2074,
      "velocity": 120,
      "chip": "ym2612"
    },
    {
      "channel": 3,
      "note": 59,
      "start": 55.2382,
      "duration": 0.1691,
      "velocity": 99,
      "chip": "ym2612"
    },
    {
      "channel": 1,
      "note": 74,
      "start": 55.24,
      "duration": 0.0763,
      "velocity": 126,
      "chip": "ym2612"
    },
    {
      "channel": 2,
      "note": 92,
      "start": 55.2421,
      "duration": 0.0868,
      "velocity": 127,
      "chip": "ym2612"
    },
    {
      "channel": 3,
      "note": 57,
      "start": 55.4468,
      "duration": 0.1036,
      "velocity": 126,
      "chip": "ym2612"
    },
    {
      "channel": 1,
      "note": 74,
      "start": 55.4495,
      "duration": 0.1643,
      "velocity": 99,
      "chip": "ym2612"
    },
    {
      "channel": 4,
      "note": 66,
      "start": 55.4514,
      "duration": 0.1625,
      "velocity": 99,
      "chip": "ym2612"
    },
    {
      "channel": 2,
      "note": 92,
      "start": 55.4533,
      "duration": 0.0584,
      "velocity": 127,
      "chip": "ym2612"
    },
    {
      "channel": 5,
      "note": 23,
      "start": 55.4548,
      "duration": 0.0971,
      "velocity": 120,
      "chip": "ym2612"
    },
    {
      "channel": 3,
      "note": 71,
      "start": 55.5683,
      "duration": 0.1026,
      "velocity": 126,
      "chip": "ym2612"
    },
    {
      "channel": 1,
      "note": 66,
      "start": 55.6719,
      "duration": 0.1648,
      "velocity": 99,
      "chip": "ym2612"
    },
    {
      "channel": 2,
      "note": 92,
      "start": 55.6741,
      "duration": 0.0606,
      "velocity": 127,
      "chip": "ym2612"
    },
    {
      "channel": 4,
      "note": 59,
      "start": 55.7766,
      "duration": 0.1692,
      "velocity": 126,
      "chip": "ym2612"
    },
    {
      "channel": 2,
      "note": 92,
      "start": 55.7783,
      "duration": 0.0591,
      "velocity": 127,
      "chip": "ym2612"
    },
    {
      "channel": 3,
      "note": 69,
      "start": 55.8802,
      "duration": 0.1676,
      "velocity": 99,
      "chip": "ym2612"
    },
    {
      "channel": 1,
      "note": 57,
      "start": 55.8822,
      "duration": 0.1658,
      "velocity": 99,
      "chip": "ym2612"
    },
    {
      "channel": 2,
      "note": 92,
      "start": 55.8845,
      "duration": 0.0561,
      "velocity": 127,
      "chip": "ym2612"
    },
    {
      "channel": 5,
      "note": 23,
      "start": 55.886,
      "duration": 0.1007,
      "velocity": 120,
      "chip": "ym2612"
    },
    {
      "channel": 4,
      "note": 71,
      "start": 56.0039,
      "duration": 0.0791,
      "velocity": 126,
      "chip": "ym2612"
    },
    {
      "channel": 3,
      "note": 59,
      "start": 56.1072,
      "duration": 0.1693,
      "velocity": 99,
      "chip": "ym2612"
    },
    {
      "channel": 1,
      "note": 66,
      "start": 56.11,
      "duration": 0.0983,
      "velocity": 126,
      "chip": "ym2612"
    },
    {
      "channel": 2,
      "note": 92,
      "start": 56.1122,
      "duration": 0.0571,
      "velocity": 127,
      "chip": "ym2612"
    },
    {
      "channel": 3,
      "note": 57,
      "start": 56.3161,
      "duration": 0.2178,
      "velocity": 126,
      "chip": "ym2612"
    },
    {
      "channel": 1,
      "note": 69,
      "start": 56.3188,
      "duration": 0.1755,
      "velocity": 99,
      "chip": "ym2612"
    },
    {
      "channel": 4,
      "note": 71,
      "start": 56.3217,
      "duration": 0.1728,
      "velocity": 99,
      "chip": "ym2612"
    },
    {
      "channel": 2,
      "note": 92,
      "start": 56.3236,
      "duration": 0.0573,
      "velocity": 127,
      "chip": "ym2612"
    },
    {
      "channel": 5,
      "note": 23,
      "start": 56.3259,
      "duration": 0.1012,
      "velocity": 120,
      "chip": "ym2612"
    },
    {
      "channel": 1,
      "note": 66,
      "start": 56.5418,
      "duration": 0.1698,
      "velocity": 99,
      "chip": "ym2612"
    },
    {
      "channel": 4,
      "note": 59,
      "start": 56.5446,
      "duration": 0.2132,
      "velocity": 126,
      "chip": "ym2612"
    },
    {
      "channel": 2,
      "note": 92,
      "start": 56.5463,
      "duration": 0.0576,
      "velocity": 127,
      "chip": "ym2612"
    },
    {
      "channel": 0,
      "note": 47,
      "start": 56.7655,
      "duration": 0.1796,
      "velocity": 105,
      "chip": "ym2612"
    },
    {
      "channel": 3,
      "note": 62,
      "start": 56.7682,
      "duration": 0.177,
      "velocity": 99,
      "chip": "ym2612"
    },
    {
      "channel": 1,
      "note": 57,
      "start": 56.7711,
      "duration": 0.4551,
      "velocity": 126,
      "chip": "ym2612"
    },
    {
      "channel": 5,
      "note": 35,
      "start": 56.7746,
      "duration": 0.2176,
      "velocity": 120,
      "chip": "ym2612"
    },
    {
      "channel": 0,
      "note": 40,
      "start": 56.9939,
      "duration": 0.1798,
      "velocity": 105,
      "chip": "ym2612"
    },
    {
      "channel": 3,
      "note": 40,
      "start": 56.9956,
      "duration": 0.1783,
      "velocity": 99,
      "chip": "ym2612"
    },
    {
      "channel": 4,
      "note": 64,
      "start": 56.9988,
      "duration": 0.1758,
      "velocity": 99,
      "chip": "ym2612"
    },
    {
      "channel": 5,
      "note": 24,
      "start": 57.0021,
      "duration": 0.2199,
      "velocity": 120,
      "chip": "ym2612"
    },
    {
      "channel": 0,
      "note": 52,
      "start": 57.24,
      "duration": 0.1854,
      "velocity": 105,
      "chip": "ym2612"
    },
    {
      "channel": 3,
      "note": 55,
      "start": 57.2416,
      "duration": 0.1839,
      "velocity": 99,
      "chip": "ym2612"
    },
    {
      "channel": 4,
      "note": 52,
      "start": 57.2451,
      "duration": 0.4676,
      "velocity": 126,
      "chip": "ym2612"
    },
    {
      "channel": 5,
      "note": 35,
      "start": 57.2481,
      "duration": 0.0957,
      "velocity": 120,
      "chip": "ym2612"
    },
    {
      "channel": 5,
      "note": 24,
      "start": 57.3485,
      "duration": 0.1079,
      "velocity": 120,
      "chip": "ym2612"
    },
    {
      "channel": 0,
      "note": 42,
      "start": 57.4685,
      "duration": 0.1856,
      "velocity": 105,
      "chip": "ym2612"
    },
    {
      "channel": 3,
      "note": 42,
      "start": 57.4701,
      "duration": 0.1841,
      "velocity": 99,
      "chip": "ym2612"
    },
    {
      "channel": 1,
      "note": 76,
      "start": 57.4729,
      "duration": 0.1815,
      "velocity": 99,
      "chip": "ym2612"
    },
    {
      "channel": 5,
      "note": 24,
      "start": 57.4766,
      "duration": 0.1055,
      "velocity": 120,
      "chip": "ym2612"
    },
    {
      "channel": 0,
      "note": 54,
      "start": 57.6972,
      "duration": 0.1798,
      "velocity": 105,
      "chip": "ym2612"
    },
    {
      "channel": 3,
      "note": 55,
      "start": 57.6989,
      "duration": 0.1784,
      "velocity": 99,
      "chip": "ym2612"
    },
    {
      "channel": 1,
      "note": 52,
      "start": 57.7017,
      "duration": 0.4565,
      "velocity": 126,
      "chip": "ym2612"
    },
    {
      "channel": 5,
      "note": 35,
      "start": 57.7053,
      "duration": 0.2191,
      "velocity": 120,
      "chip": "ym2612"
    },
    {
      "channel": 0,
      "note": 43,
      "start": 57.9261,
      "duration": 0.1798,
      "velocity": 105,
      "chip": "ym2612"
    },
    {
      "channel": 3,
      "note": 43,
      "start": 57.9277,
      "duration": 0.1782,
      "velocity": 99,
      "chip": "ym2612"
    },
    {
      "channel": 4,
      "note": 74,
      "start": 57.931,
      "duration": 0.1757,
      "velocity": 99,
      "chip": "ym2612"
    },
    {
      "channel": 5,
      "note": 24,
      "start": 57.9342,
      "duration": 0.1054,
      "velocity": 120,
      "chip": "ym2612"
    },
    {
      "channel": 5,
      "note": 35,
      "start": 58.0518,
      "duration": 0.1075,
      "velocity": 120,
      "chip": "ym2612"
    },
    {
      "channel": 0,
      "note": 55,
      "start": 58.1728,
      "duration": 0.1789,
      "velocity": 105,
      "chip": "ym2612"
    },
    {
      "channel": 3,
      "note": 55,
      "start": 58.1745,
      "duration": 0.1774,
      "velocity": 99,
      "chip": "ym2612"
    },
    {
      "channel": 4,
      "note": 52,
      "start": 58.1779,
      "duration": 0.4454,
      "velocity": 126,
      "chip": "ym2612"
    },
    {
      "channel": 5,
      "note": 35,
      "start": 58.1801,
      "duration": 0.0956,
      "velocity": 120,
      "chip": "ym2612"
    },
    {
      "channel": 5,
      "note": 35,
      "start": 58.2806,
      "duration": 0.1079,
      "velocity": 120,
      "chip": "ym2612"
    },
    {
      "channel": 0,
      "note": 44,
      "start": 58.4004,
      "duration": 0.1744,
      "velocity": 105,
      "chip": "ym2612"
    },
    {
      "channel": 3,
      "note": 44,
      "start": 58.402,
      "duration": 0.1729,
      "velocity": 99,
      "chip": "ym2612"
    },
    {
      "channel": 1,
      "note": 72,
      "start": 58.4047,
      "duration": 0.1703,
      "velocity": 99,
      "chip": "ym2612"
    },
    {
      "channel": 5,
      "note": 35,
      "start": 58.4076,
      "duration": 0.091,
      "velocity": 120,
      "chip": "ym2612"
    },
    {
      "channel": 5,
      "note": 35,
      "start": 58.5036,
      "duration": 0.1079,
      "velocity": 120,
      "chip": "ym2612"
    },
    {
      "channel": 0,
      "note": 56,
      "start": 58.6263,
      "duration": 0.1715,
      "velocity": 105,
      "chip": "ym2612"
    },
    {
      "channel": 3,
      "note": 55,
      "start": 58.629,
      "duration": 0.1689,
      "velocity": 126,
      "chip": "ym2612"
    },
    {
      "channel": 1,
      "note": 52,
      "start": 58.6318,
      "duration": 0.3156,
      "velocity": 126,
      "chip": "ym2612"
    },
    {
      "channel": 4,
      "note": 71,
      "start": 58.6334,
      "duration": 0.3141,
      "velocity": 126,
      "chip": "ym2612"
    },
    {
      "channel": 5,
      "note": 35,
      "start": 58.6366,
      "duration": 0.2011,
      "velocity": 120,
      "chip": "ym2612"
    },
    {
      "channel": 3,
      "note": 69,
      "start": 58.8398,
      "duration": 0.0728,
      "velocity": 126,
      "chip": "ym2612"
    },
    {
      "channel": 5,
      "note": 24,
      "start": 58.8438,
      "duration": 0.208,
      "velocity": 120,
      "chip": "ym2612"
    },
    {
      "channel": 0,
      "note": 45,
      "start": 58.9611,
      "duration": 0.1625,
      "velocity": 105,
      "chip": "ym2612"
    },
    {
      "channel": 3,
      "note": 71,
      "start": 58.9628,
      "duration": 1.1277,
      "velocity": 126,
      "chip": "ym2612"
    },
    {
      "channel": 1,
      "note": 64,
      "start": 58.9645,
      "duration": 0.3017,
      "velocity": 126,
      "chip": "ym2612"
    },
    {
      "channel": 4,
      "note": 57,
      "start": 58.9661,
      "duration": 0.3011,
      "velocity": 126,
      "chip": "ym2612"
    },
    {
      "channel": 5,
      "note": 35,
      "start": 59.0649,
      "duration": 0.0976,
      "velocity": 120,
      "chip": "ym2612"
    },
    {
      "channel": 5,
      "note": 24,
      "start": 59.167,
      "duration": 0.1013,
      "velocity": 120,
      "chip": "ym2612"
    },
    {
      "channel": 0,
      "note": 43,
      "start": 59.27,
      "duration": 0.1682,
      "velocity": 105,
      "chip": "ym2612"
    },
    {
      "channel": 1,
      "note": 67,
      "start": 59.2721,
      "duration": 0.1041,
      "velocity": 126,
      "chip": "ym2612"
    },
    {
      "channel": 4,
      "note": 60,
      "start": 59.2738,
      "duration": 0.1026,
      "velocity": 126,
      "chip": "ym2612"
    },
    {
      "channel": 5,
      "note": 24,
      "start": 59.2768,
      "duration": 0.1002,
      "velocity": 120,
      "chip": "ym2612"
    },
    {
      "channel": 5,
      "note": 35,
      "start": 59.4995,
      "duration": 0.2024,
      "velocity": 120,
      "chip": "ym2612"
    },
    {
      "channel": 0,
      "note": 45,
      "start": 59.7035,
      "duration": 0.1635,
      "velocity": 105,
      "chip": "ym2612"
    },
    {
      "channel": 1,
      "note": 64,
      "start": 59.7057,
      "duration": 0.2024,
      "velocity": 126,
      "chip": "ym2612"
    },
    {
      "channel": 5,
      "note": 24,
      "start": 59.7092,
      "duration": 0.0974,
      "velocity": 120,
      "chip": "ym2612"
    },
    {
      "channel": 0,
      "note": 40,
      "start": 59.9262,
      "duration": 0.1695,
      "velocity": 105,
      "chip": "ym2612"
    },
    {
      "channel": 4,
      "note": 57,
      "start": 59.9289,
      "duration": 0.2118,
      "velocity": 126,
      "chip": "ym2612"
    },
    {
      "channel": 5,
      "note": 35,
      "start": 59.9319,
      "duration": 0.0976,
      "velocity": 120,
      "chip": "ym2612"
    },
    {
      "channel": 0,
      "note": 43,
      "start": 60.1323,
      "duration": 0.1636,
      "velocity": 105,
      "chip": "ym2612"
    },
    {
      "channel": 1,
      "note": 55,
      "start": 60.1344,
      "duration": 0.2081,
      "velocity": 126,
      "chip": "ym2612"
    },
    {
      "channel": 5,
      "note": 24,
      "start": 60.1379,
      "duration": 0.0975,
      "velocity": 120,
      "chip": "ym2612"
    },
    {
      "channel": 0,
      "note": 52,
      "start": 60.3579,
      "duration": 0.1667,
      "velocity": 105,
      "chip": "ym2612"
    },
    {
      "channel": 3,
      "note": 72,
      "start": 60.3596,
      "duration": 0.1651,
      "velocity": 126,
      "chip": "ym2612"
    },
    {
      "channel": 1,
      "note": 50,
      "start": 60.3613,
      "duration": 0.3067,
      "velocity": 126,
      "chip": "ym2612"
    },
    {
      "channel": 4,
      "note": 54,
      "start": 60.3629,
      "duration": 0.3061,
      "velocity": 126,
      "chip": "ym2612"
    },
    {
      "channel": 5,
      "note": 35,
      "start": 60.366,
      "duration": 0.1985,
      "velocity": 120,
      "chip": "ym2612"
    },
    {
      "channel": 3,
      "note": 71,
      "start": 60.5666,
      "duration": 0.0728,
      "velocity": 126,
      "chip": "ym2612"
    },
    {
      "channel": 5,
      "note": 24,
      "start": 60.5706,
      "duration": 0.2023,
      "velocity": 120,
      "chip": "ym2612"
    },
    {
      "channel": 0,
      "note": 47,
      "start": 60.6708,
      "duration": 0.1625,
      "velocity": 105,
      "chip": "ym2612"
    },
    {
      "channel": 3,
      "note": 72,
      "start": 60.6725,
      "duration": 1.1277,
      "velocity": 126,
      "chip": "ym2612"
    },
    {
      "channel": 1,
      "note": 59,
      "start": 60.6742,
      "duration": 0.3088,
      "velocity": 126,
      "chip": "ym2612"
    },
    {
      "channel": 4,
      "note": 66,
      "start": 60.6759,
      "duration": 0.3073,
      "velocity": 126,
      "chip": "ym2612"
    },
    {
      "channel": 5,
      "note": 35,
      "start": 60.7918,
      "duration": 0.0975,
      "velocity": 120,
      "chip": "ym2612"
    },
    {
      "channel": 5,
      "note": 24,
      "start": 60.8939,
      "duration": 0.1013,
      "velocity": 120,
      "chip": "ym2612"
    },
    {
      "channel": 0,
      "note": 45,
      "start": 60.9968,
      "duration": 0.1683,
      "velocity": 105,
      "chip": "ym2612"
    },
    {
      "channel": 1,
      "note": 69,
      "start": 60.999,
      "duration": 0.1041,
      "velocity": 126,
      "chip": "ym2612"
    },
    {
      "channel": 4,
      "note": 62,
      "start": 61.0006,
      "duration": 0.1027,
      "velocity": 126,
      "chip": "ym2612"
    },
    {
      "channel": 5,
      "note": 24,
      "start": 61.0037,
      "duration": 0.1003,
      "velocity": 120,
      "chip": "ym2612"
    },
    {
      "channel": 5,
      "note": 35,
      "start": 61.2264,
      "duration": 0.2024,
      "velocity": 120,
      "chip": "ym2612"
    },
    {
      "channel": 0,
      "note": 47,
      "start": 61.4304,
      "duration": 0.1635,
      "velocity": 105,
      "chip": "ym2612"
    },
    {
      "channel": 1,
      "note": 66,
      "start": 61.4325,
      "duration": 0.2111,
      "velocity": 126,
      "chip": "ym2612"
    },
    {
      "channel": 5,
      "note": 24,
      "start": 61.436,
      "duration": 0.0933,
      "velocity": 120,
      "chip": "ym2612"
    },
    {
      "channel": 5,
      "note": 35,
      "start": 61.5343,
      "duration": 0.1001,
      "velocity": 120,
      "chip": "ym2612"
    },
    {
      "channel": 0,
      "note": 43,
      "start": 61.6369,
      "duration": 0.1686,
      "velocity": 105,
      "chip": "ym2612"
    },
    {
      "channel": 4,
      "note": 59,
      "start": 61.6395,
      "duration": 0.2074,
      "velocity": 126,
      "chip": "ym2612"
    },
    {
      "channel": 5,
      "note": 35,
      "start": 61.6416,
      "duration": 0.0976,
      "velocity": 120,
      "chip": "ym2612"
    },
    {
      "channel": 5,
      "note": 35,
      "start": 61.7573,
      "duration": 0.1,
      "velocity": 120,
      "chip": "ym2612"
    },
    {
      "channel": 0,
      "note": 42,
      "start": 61.8589,
      "duration": 0.1695,
      "velocity": 105,
      "chip": "ym2612"
    },
    {
      "channel": 1,
      "note": 55,
      "start": 61.8611,
      "duration": 0.2034,
      "velocity": 126,
      "chip": "ym2612"
    },
    {
      "channel": 5,
      "note": 35,
      "start": 61.8638,
      "duration": 0.0945,
      "velocity": 120,
      "chip": "ym2612"
    },
    {
      "channel": 5,
      "note": 35,
      "start": 61.9631,
      "duration": 0.1028,
      "velocity": 120,
      "chip": "ym2612"
    },
    {
      "channel": 0,
      "note": 40,
      "start": 62.0676,
      "duration": 0.1667,
      "velocity": 105,
      "chip": "ym2612"
    },
    {
      "channel": 3,
      "note": 74,
      "start": 62.0693,
      "duration": 0.1652,
      "velocity": 126,
      "chip": "ym2612"
    },
    {
      "channel": 1,
      "note": 50,
      "start": 62.0709,
      "duration": 0.313,
      "velocity": 126,
      "chip": "ym2612"
    },
    {
      "channel": 4,
      "note": 54,
      "start": 62.0726,
      "duration": 0.3116,
      "velocity": 126,
      "chip": "ym2612"
    },
    {
      "channel": 5,
      "note": 35,
      "start": 62.0756,
      "duration": 0.2069,
      "velocity": 120,
      "chip": "ym2612"
    },
    {
      "channel": 3,
      "note": 72,
      "start": 62.2935,
      "duration": 0.0728,
      "velocity": 126,
      "chip": "ym2612"
    },
    {
      "channel": 5,
      "note": 24,
      "start": 62.2976,
      "duration": 0.1982,
      "velocity": 120,
      "chip": "ym2612"
    },
    {
      "channel": 0,
      "note": 48,
      "start": 62.3976,
      "duration": 0.1683,
      "velocity": 105,
      "chip": "ym2612"
    },
    {
      "channel": 3,
      "note": 74,
      "start": 62.3993,
      "duration": 0.2301,
      "velocity": 126,
      "chip": "ym2612"
    },
    {
      "channel": 1,
      "note": 67,
      "start": 62.401,
      "duration": 0.3089,
      "velocity": 126,
      "chip": "ym2612"
    },
    {
      "channel": 4,
      "note": 60,
      "start": 62.4027,
      "duration": 0.3074,
      "velocity": 126,
      "chip": "ym2612"
    },
    {
      "channel": 5,
      "note": 35,
      "start": 62.5015,
      "duration": 0.1013,
      "velocity": 120,
      "chip": "ym2612"
    },
    {
      "channel": 5,
      "note": 24,
      "start": 62.6207,
      "duration": 0.1024,
      "velocity": 120,
      "chip": "ym2612"
    },
    {
      "channel": 0,
      "note": 47,
      "start": 62.7248,
      "duration": 0.1671,
      "velocity": 105,
      "chip": "ym2612"
    },
    {
      "channel": 3,
      "note": 76,
      "start": 62.7264,
      "duration": 0.0745,
      "velocity": 126,
      "chip": "ym2612"
    },
    {
      "channel": 1,
      "note": 59,
      "start": 62.7281,
      "duration": 0.4221,
      "velocity": 126,
      "chip": "ym2612"
    },
    {
      "channel": 4,
      "note": 66,
      "start": 62.7298,
      "duration": 0.4206,
      "velocity": 126,
      "chip": "ym2612"
    },
    {
      "channel": 5,
      "note": 24,
      "start": 62.7329,
      "duration": 0.0998,
      "velocity": 120,
      "chip": "ym2612"
    },
    {
      "channel": 3,
      "note": 72,
      "start": 62.8303,
      "duration": 0.0735,
      "velocity": 126,
      "chip": "ym2612"
    },
    {
      "channel": 3,
      "note": 74,
      "start": 62.9337,
      "duration": 0.0731,
      "velocity": 126,
      "chip": "ym2612"
    },
    {
      "channel": 5,
      "note": 35,
      "start": 62.9377,
      "duration": 0.2083,
      "velocity": 120,
      "chip": "ym2612"
    },
    {
      "channel": 0,
      "note": 45,
      "start": 63.1588,
      "duration": 0.1678,
      "velocity": 105,
      "chip": "ym2612"
    },
    {
      "channel": 3,
      "note": 76,
      "start": 63.1604,
      "duration": 0.1662,
      "velocity": 126,
      "chip": "ym2612"
    },
    {
      "channel": 1,
      "note": 57,
      "start": 63.1621,
      "duration": 0.2047,
      "velocity": 126,
      "chip": "ym2612"
    },
    {
      "channel": 4,
      "note": 64,
      "start": 63.1638,
      "duration": 0.2041,
      "velocity": 126,
      "chip": "ym2612"
    },
    {
      "channel": 5,
      "note": 24,
      "start": 63.1668,
      "duration": 0.0992,
      "velocity": 120,
      "chip": "ym2612"
    },
    {
      "channel": 0,
      "note": 42,
      "start": 63.3706,
      "duration": 0.1675,
      "velocity": 105,
      "chip": "ym2612"
    },
    {
      "channel": 3,
      "note": 67,
      "start": 63.3722,
      "duration": 0.166,
      "velocity": 126,
      "chip": "ym2612"
    },
    {
      "channel": 1,
      "note": 55,
      "start": 63.3739,
      "duration": 0.2109,
      "velocity": 126,
      "chip": "ym2612"
    },
    {
      "channel": 4,
      "note": 60,
      "start": 63.3756,
      "duration": 0.2094,
      "velocity": 126,
      "chip": "ym2612"
    },
    {
      "channel": 5,
      "note": 35,
      "start": 63.3787,
      "duration": 0.0989,
      "velocity": 120,
      "chip": "ym2612"
    },
    {
      "channel": 0,
      "note": 43,
      "start": 63.5995,
      "duration": 0.1674,
      "velocity": 105,
      "chip": "ym2612"
    },
    {
      "channel": 3,
      "note": 72,
      "start": 63.6011,
      "duration": 0.1659,
      "velocity": 126,
      "chip": "ym2612"
    },
    {
      "channel": 1,
      "note": 54,
      "start": 63.6028,
      "duration": 0.2048,
      "velocity": 126,
      "chip": "ym2612"
    },
    {
      "channel": 4,
      "note": 59,
      "start": 63.6045,
      "duration": 0.2042,
      "velocity": 126,
      "chip": "ym2612"
    },
    {
      "channel": 5,
      "note": 24,
      "start": 63.6076,
      "duration": 0.0988,
      "velocity": 120,
      "chip": "ym2612"
    },
    {
      "channel": 0,
      "note": 45,
      "start": 63.8117,
      "duration": 0.2581,
      "velocity": 105,
      "chip": "ym2612"
    },
    {
      "channel": 3,
      "note": 76,
      "start": 63.8134,
      "duration": 0.074,
      "velocity": 126,
      "chip": "ym2612"
    },
    {
      "channel": 1,
      "note": 52,
      "start": 63.8151,
      "duration": 0.3129,
      "velocity": 126,
      "chip": "ym2612"
    },
    {
      "channel": 4,
      "note": 57,
      "start": 63.8168,
      "duration": 0.3114,
      "velocity": 126,
      "chip": "ym2612"
    },
    {
      "channel": 5,
      "note": 35,
      "start": 63.8198,
      "duration": 0.2067,
      "velocity": 120,
      "chip": "ym2612"
    },
    {
      "channel": 3,
      "note": 78,
      "start": 63.9168,
      "duration": 0.0735,
      "velocity": 126,
      "chip": "ym2612"
    },
    {
      "channel": 3,
      "note": 79,
      "start": 64.0373,
      "duration": 0.0731,
      "velocity": 126,
      "chip": "ym2612"
    },
    {
      "channel": 5,
      "note": 24,
      "start": 64.0412,
      "duration": 0.1997,
      "velocity": 120,
      "chip": "ym2612"
    },
    {
      "channel": 0,
      "note": 47,
      "start": 64.1415,
      "duration": 0.2485,
      "velocity": 105,
      "chip": "ym2612"
    },
    {
      "channel": 3,
      "note": 78,
      "start": 64.1432,
      "duration": 0.0701,
      "velocity": 126,
      "chip": "ym2612"
    },
    {
      "channel": 1,
      "note": 47,
      "start": 64.1449,
      "duration": 0.309,
      "velocity": 126,
      "chip": "ym2612"
    },
    {
      "channel": 4,
      "note": 59,
      "start": 64.1463,
      "duration": 0.3078,
      "velocity": 126,
      "chip": "ym2612"
    },
    {
      "channel": 3,
      "note": 76,
      "start": 64.2431,
      "duration": 0.1646,
      "velocity": 126,
      "chip": "ym2612"
    },
    {
      "channel": 5,
      "note": 35,
      "start": 64.2471,
      "duration": 0.0958,
      "velocity": 120,
      "chip": "ym2612"
    },
    {
      "channel": 5,
      "note": 24,
      "start": 64.3476,
      "duration": 0.1021,
      "velocity": 120,
      "chip": "ym2612"
    },
    {
      "channel": 0,
      "note": 45,
      "start": 64.4688,
      "duration": 0.1672,
      "velocity": 105,
      "chip": "ym2612"
    },
    {
      "channel": 3,
      "note": 78,
      "start": 64.4705,
      "duration": 0.1656,
      "velocity": 126,
      "chip": "ym2612"
    },
    {
      "channel": 1,
      "note": 47,
      "start": 64.4721,
      "duration": 0.2043,
      "velocity": 126,
      "chip": "ym2612"
    },
    {
      "channel": 4,
      "note": 64,
      "start": 64.4736,
      "duration": 0.2038,
      "velocity": 126,
      "chip": "ym2612"
    },
    {
      "channel": 5,
      "note": 24,
      "start": 64.4766,
      "duration": 0.0989,
      "velocity": 120,
      "chip": "ym2612"
    },
    {
      "channel": 0,
      "note": 43,
      "start": 64.6802,
      "duration": 0.2588,
      "velocity": 105,
      "chip": "ym2612"
    },
    {
      "channel": 3,
      "note": 76,
      "start": 64.6819,
      "duration": 0.1718,
      "velocity": 126,
      "chip": "ym2612"
    },
    {
      "channel": 1,
      "note": 47,
      "start": 64.6836,
      "duration": 0.3193,
      "velocity": 126,
      "chip": "ym2612"
    },
    {
      "channel": 4,
      "note": 71,
      "start": 64.6851,
      "duration": 0.3179,
      "velocity": 126,
      "chip": "ym2612"
    },
    {
      "channel": 5,
      "note": 35,
      "start": 64.6881,
      "duration": 0.199,
      "velocity": 120,
      "chip": "ym2612"
    },
    {
      "channel": 3,
      "note": 75,
      "start": 64.8893,
      "duration": 0.1645,
      "velocity": 126,
      "chip": "ym2612"
    },
    {
      "channel": 5,
      "note": 24,
      "start": 64.8934,
      "duration": 0.0995,
      "velocity": 120,
      "chip": "ym2612"
    },
    {
      "channel": 0,
      "note": 42,
      "start": 65.01,
      "duration": 0.2493,
      "velocity": 105,
      "chip": "ym2612"
    },
    {
      "channel": 1,
      "note": 47,
      "start": 65.0121,
      "duration": 0.3048,
      "velocity": 126,
      "chip": "ym2612"
    },
    {
      "channel": 4,
      "note": 66,
      "start": 65.0136,
      "duration": 0.3043,
      "velocity": 126,
      "chip": "ym2612"
    },
    {
      "channel": 5,
      "note": 35,
      "start": 65.0157,
      "duration": 0.0942,
      "velocity": 120,
      "chip": "ym2612"
    },
    {
      "channel": 3,
      "note": 71,
      "start": 65.113,
      "duration": 0.1639,
      "velocity": 126,
      "chip": "ym2612"
    },
    {
      "channel": 5,
      "note": 35,
      "start": 65.1161,
      "duration": 0.0957,
      "velocity": 120,
      "chip": "ym2612"
    },
    {
      "channel": 5,
      "note": 35,
      "start": 65.2168,
      "duration": 0.1022,
      "velocity": 120,
      "chip": "ym2612"
    },
    {
      "channel": 0,
      "note": 40,
      "start": 65.3206,
      "duration": 0.1673,
      "velocity": 105,
      "chip": "ym2612"
    },
    {
      "channel": 3,
      "note": 69,
      "start": 65.3222,
      "duration": 0.1658,
      "velocity": 126,
      "chip": "ym2612"
    },
    {
      "channel": 1,
      "note": 47,
      "start": 65.3239,
      "duration": 0.205,
      "velocity": 126,
      "chip": "ym2612"
    },
    {
      "channel": 4,
      "note": 63,
      "start": 65.3254,
      "duration": 0.2037,
      "velocity": 126,
      "chip": "ym2612"
    },
    {
      "channel": 5,
      "note": 35,
      "start": 65.3276,
      "duration": 0.0999,
      "velocity": 120,
      "chip": "ym2612"
    },
    {
      "channel": 5,
      "note": 35,
      "start": 65.4455,
      "duration": 0.104,
      "velocity": 120,
      "chip": "ym2612"
    },
    {
      "channel": 0,
      "note": 38,
      "start": 65.5512,
      "duration": 0.1655,
      "velocity": 105,
      "chip": "ym2612"
    },
    {
      "channel": 3,
      "note": 67,
      "start": 65.554,
      "duration": 0.1629,
      "velocity": 80,
      "chip": "ym2612"
    },
    {
      "channel": 1,
      "note": 47,
      "start": 65.5557,
      "duration": 0.3106,
      "velocity": 126,
      "chip": "ym2612"
    },
    {
      "channel": 4,
      "note": 59,
      "start": 65.5573,
      "duration": 0.3091,
      "velocity": 126,
      "chip": "ym2612"
    },
    {
      "channel": 5,
      "note": 35,
      "start": 65.5604,
      "duration": 0.1961,
      "velocity": 120,
      "chip": "ym2612"
    },
    {
      "channel": 3,
      "note": 76,
      "start": 65.7586,
      "duration": 0.1644,
      "velocity": 80,
      "chip": "ym2612"
    },
    {
      "channel": 5,
      "note": 24,
      "start": 65.7626,
      "duration": 0.2081,
      "velocity": 120,
      "chip": "ym2612"
    },
    {
      "channel": 0,
      "note": 40,
      "start": 65.8789,
      "duration": 0.1637,
      "velocity": 105,
      "chip": "ym2612"
    },
    {
      "channel": 1,
      "note": 59,
      "start": 65.8811,
      "duration": 0.2083,
      "velocity": 126,
      "chip": "ym2612"
    },
    {
      "channel": 4,
      "note": 64,
      "start": 65.8827,
      "duration": 0.2068,
      "velocity": 126,
      "chip": "ym2612"
    },
    {
      "channel": 3,
      "note": 79,
      "start": 65.9813,
      "duration": 0.1647,
      "velocity": 80,
      "chip": "ym2612"
    },
    {
      "channel": 5,
      "note": 35,
      "start": 65.9853,
      "duration": 0.0963,
      "velocity": 120,
      "chip": "ym2612"
    },
    {
      "channel": 5,
      "note": 24,
      "start": 66.0859,
      "duration": 0.1024,
      "velocity": 120,
      "chip": "ym2612"
    },
    {
      "channel": 0,
      "note": 38,
      "start": 66.1899,
      "duration": 0.1672,
      "velocity": 105,
      "chip": "ym2612"
    },
    {
      "channel": 3,
      "note": 84,
      "start": 66.1926,
      "duration": 0.1021,
      "velocity": 126,
      "chip": "ym2612"
    },
    {
      "channel": 1,
      "note": 57,
      "start": 66.1954,
      "duration": 0.3399,
      "velocity": 80,
      "chip": "ym2612"
    },
    {
      "channel": 4,
      "note": 62,
      "start": 66.1971,
      "duration": 0.0982,
      "velocity": 126,
      "chip": "ym2612"
    },
    {
      "channel": 5,
      "note": 24,
      "start": 66.2002,
      "duration": 0.0958,
      "velocity": 120,
      "chip": "ym2612"
    },
    {
      "channel": 5,
      "note": 35,
      "start": 66.4184,
      "duration": 0.2036,
      "velocity": 120,
      "chip": "ym2612"
    },
    {
      "channel": 0,
      "note": 40,
      "start": 66.6236,
      "duration": 0.1738,
      "velocity": 105,
      "chip": "ym2612"
    },
    {
      "channel": 3,
      "note": 64,
      "start": 66.6263,
      "duration": 0.1712,
      "velocity": 80,
      "chip": "ym2612"
    },
    {
      "channel": 4,
      "note": 59,
      "start": 66.6285,
      "duration": 0.2104,
      "velocity": 126,
      "chip": "ym2612"
    },
    {
      "channel": 5,
      "note": 24,
      "start": 66.6316,
      "duration": 0.0997,
      "velocity": 120,
      "chip": "ym2612"
    },
    {
      "channel": 0,
      "note": 43,
      "start": 66.852,
      "duration": 0.1742,
      "velocity": 105,
      "chip": "ym2612"
    },
    {
      "channel": 3,
      "note": 76,
      "start": 66.8546,
      "duration": 0.2199,
      "velocity": 126,
      "chip": "ym2612"
    },
    {
      "channel": 1,
      "note": 83,
      "start": 66.8563,
      "duration": 0.1704,
      "velocity": 80,
      "chip": "ym2612"
    },
    {
      "channel": 5,
      "note": 35,
      "start": 66.8599,
      "duration": 0.1001,
      "velocity": 120,
      "chip": "ym2612"
    },
    {
      "channel": 0,
      "note": 45,
      "start": 67.0638,
      "duration": 0.1682,
      "velocity": 105,
      "chip": "ym2612"
    },
    {
      "channel": 1,
      "note": 79,
      "start": 67.067,
      "duration": 0.2118,
      "velocity": 126,
      "chip": "ym2612"
    },
    {
      "channel": 4,
      "note": 67,
      "start": 67.0697,
      "duration": 0.2228,
      "velocity": 80,
      "chip": "ym2612"
    },
    {
      "channel": 5,
      "note": 24,
      "start": 67.0728,
      "duration": 0.0987,
      "velocity": 120,
      "chip": "ym2612"
    }
  ]
}