{
  "track_name": "20 - Lucy",
  "duration_sec": 50.401,
  "sample_rate": 44100,
  "note_count": 591,
  "unique_pitches": 58,
  "pitch_range": 59,
  "avg_note_duration": 0.4164,
  "reconstruction_stats": {
    "notes_reconstructed": 591,
    "keyon_events": 591,
    "keyoff_events": 587,
    "orphan_keyons": 4,
    "unique_pitches": 58,
    "pitch_range": 59,
    "avg_duration_sec": 0.4164
  },
  "metadata": {
    "source": "P\\Pac-Man 2 - The New Adventures\\20 - Lucy.vgz"
  },
  "notes": [
    {
      "channel": 0,
      "note": 35,
      "start": 0.0,
      "duration": 0.5945,
      "velocity": 92,
      "chip": "ym2612"
    },
    {
      "channel": 1,
      "note": 47,
      "start": 0.005,
      "duration": 0.2907,
      "velocity": 95,
      "chip": "ym2612"
    },
    {
      "channel": 2,
      "note": 54,
      "start": 0.0115,
      "duration": 0.9856,
      "velocity": 94,
      "chip": "ym2612"
    },
    {
      "channel": 3,
      "note": 35,
      "start": 0.0165,
      "duration": 0.585,
      "velocity": 122,
      "chip": "ym2612"
    },
    {
      "channel": 4,
      "note": 47,
      "start": 0.0216,
      "duration": 0.3773,
      "velocity": 116,
      "chip": "ym2612"
    },
    {
      "channel": 1,
      "note": 54,
      "start": 0.3959,
      "duration": 0.2042,
      "velocity": 95,
      "chip": "ym2612"
    },
    {
      "channel": 4,
      "note": 46,
      "start": 0.3989,
      "duration": 0.2082,
      "velocity": 116,
      "chip": "ym2612"
    },
    {
      "channel": 0,
      "note": 47,
      "start": 0.599,
      "duration": 0.5954,
      "velocity": 100,
      "chip": "ym2612"
    },
    {
      "channel": 1,
      "note": 55,
      "start": 0.6001,
      "duration": 0.2956,
      "velocity": 95,
      "chip": "ym2612"
    },
    {
      "channel": 3,
      "note": 35,
      "start": 0.6061,
      "duration": 0.5961,
      "velocity": 116,
      "chip": "ym2612"
    },
    {
      "channel": 4,
      "note": 47,
      "start": 0.6071,
      "duration": 0.2916,
      "velocity": 116,
      "chip": "ym2612"
    },
    {
      "channel": 1,
      "note": 55,
      "start": 0.9959,
      "duration": 0.2042,
      "velocity": 95,
      "chip": "ym2612"
    },
    {
      "channel": 2,
      "note": 54,
      "start": 0.9971,
      "duration": 1.8076,
      "velocity": 94,
      "chip": "ym2612"
    },
    {
      "channel": 0,
      "note": 42,
      "start": 1.199,
      "duration": 0.5953,
      "velocity": 92,
      "chip": "ym2612"
    },
    {
      "channel": 1,
      "note": 54,
      "start": 1.2001,
      "duration": 1.5996,
      "velocity": 95,
      "chip": "ym2612"
    },
    {
      "channel": 3,
      "note": 34,
      "start": 1.2022,
      "duration": 2.3954,
      "velocity": 116,
      "chip": "ym2612"
    },
    {
      "channel": 4,
      "note": 46,
      "start": 1.2032,
      "duration": 0.3955,
      "velocity": 116,
      "chip": "ym2612"
    },
    {
      "channel": 4,
      "note": 45,
      "start": 1.5988,
      "duration": 0.2042,
      "velocity": 116,
      "chip": "ym2612"
    },
    {
      "channel": 0,
      "note": 34,
      "start": 1.7989,
      "duration": 0.9958,
      "velocity": 103,
      "chip": "ym2612"
    },
    {
      "channel": 4,
      "note": 46,
      "start": 1.803,
      "duration": 1.0093,
      "velocity": 116,
      "chip": "ym2612"
    },
    {
      "channel": 0,
      "note": 78,
      "start": 2.7994,
      "duration": 0.1956,
      "velocity": 81,
      "chip": "ym2612"
    },
    {
      "channel": 1,
      "note": 50,
      "start": 2.8043,
      "duration": 0.1917,
      "velocity": 74,
      "chip": "ym2612"
    },
    {
      "channel": 2,
      "note": 66,
      "start": 2.8111,
      "duration": 0.186,
      "velocity": 106,
      "chip": "ym2612"
    },
    {
      "channel": 4,
      "note": 42,
      "start": 2.817,
      "duration": 0.5814,
      "velocity": 103,
      "chip": "ym2612"
    },
    {
      "channel": 0,
      "note": 80,
      "start": 2.995,
      "duration": 0.4,
      "velocity": 81,
      "chip": "ym2612"
    },
    {
      "channel": 1,
      "note": 44,
      "start": 2.9961,
      "duration": 0.2995,
      "velocity": 74,
      "chip": "ym2612"
    },
    {
      "channel": 2,
      "note": 68,
      "start": 2.9971,
      "duration": 0.4,
      "velocity": 106,
      "chip": "ym2612"
    },
    {
      "channel": 0,
      "note": 78,
      "start": 3.395,
      "duration": 0.2001,
      "velocity": 81,
      "chip": "ym2612"
    },
    {
      "channel": 1,
      "note": 42,
      "start": 3.3961,
      "duration": 0.2001,
      "velocity": 74,
      "chip": "ym2612"
    },
    {
      "channel": 2,
      "note": 66,
      "start": 3.3971,
      "duration": 0.2001,
      "velocity": 106,
      "chip": "ym2612"
    },
    {
      "channel": 4,
      "note": 54,
      "start": 3.4031,
      "duration": 0.1995,
      "velocity": 92,
      "chip": "ym2612"
    },
    {
      "channel": 0,
      "note": 81,
      "start": 3.5951,
      "duration": 0.3999,
      "velocity": 81,
      "chip": "ym2612"
    },
    {
      "channel": 1,
      "note": 45,
      "start": 3.5962,
      "duration": 0.2994,
      "velocity": 74,
      "chip": "ym2612"
    },
    {
      "channel": 2,
      "note": 69,
      "start": 3.5972,
      "duration": 0.3999,
      "velocity": 106,
      "chip": "ym2612"
    },
    {
      "channel": 3,
      "note": 62,
      "start": 3.6022,
      "duration": 0.3959,
      "velocity": 74,
      "chip": "ym2612"
    },
    {
      "channel": 4,
      "note": 40,
      "start": 3.6092,
      "duration": 0.5899,
      "velocity": 103,
      "chip": "ym2612"
    },
    {
      "channel": 0,
      "note": 78,
      "start": 3.995,
      "duration": 0.2,
      "velocity": 81,
      "chip": "ym2612"
    },
    {
      "channel": 1,
      "note": 42,
      "start": 3.9961,
      "duration": 0.2,
      "velocity": 74,
      "chip": "ym2612"
    },
    {
      "channel": 2,
      "note": 66,
      "start": 3.9971,
      "duration": 0.2,
      "velocity": 106,
      "chip": "ym2612"
    },
    {
      "channel": 3,
      "note": 61,
      "start": 3.9982,
      "duration": 0.2,
      "velocity": 74,
      "chip": "ym2612"
    },
    {
      "channel": 0,
      "note": 82,
      "start": 4.195,
      "duration": 0.4,
      "velocity": 81,
      "chip": "ym2612"
    },
    {
      "channel": 1,
      "note": 46,
      "start": 4.1961,
      "duration": 0.2996,
      "velocity": 74,
      "chip": "ym2612"
    },
    {
      "channel": 2,
      "note": 70,
      "start": 4.1971,
      "duration": 0.3999,
      "velocity": 106,
      "chip": "ym2612"
    },
    {
      "channel": 3,
      "note": 62,
      "start": 4.1982,
      "duration": 0.4,
      "velocity": 74,
      "chip": "ym2612"
    },
    {
      "channel": 4,
      "note": 40,
      "start": 4.1991,
      "duration": 0.3994,
      "velocity": 103,
      "chip": "ym2612"
    },
    {
      "channel": 0,
      "note": 85,
      "start": 4.595,
      "duration": 0.1997,
      "velocity": 81,
      "chip": "ym2612"
    },
    {
      "channel": 1,
      "note": 49,
      "start": 4.5961,
      "duration": 0.2036,
      "velocity": 74,
      "chip": "ym2612"
    },
    {
      "channel": 2,
      "note": 73,
      "start": 4.5971,
      "duration": 0.2074,
      "velocity": 106,
      "chip": "ym2612"
    },
    {
      "channel": 3,
      "note": 61,
      "start": 4.5982,
      "duration": 0.2132,
      "velocity": 74,
      "chip": "ym2612"
    },
    {
      "channel": 4,
      "note": 54,
      "start": 4.6032,
      "duration": 0.2132,
      "velocity": 92,
      "chip": "ym2612"
    },
    {
      "channel": 0,
      "note": 35,
      "start": 4.7992,
      "duration": 0.5952,
      "velocity": 92,
      "chip": "ym2612"
    },
    {
      "channel": 1,
      "note": 49,
      "start": 4.8043,
      "duration": 0.2914,
      "velocity": 95,
      "chip": "ym2612"
    },
    {
      "channel": 2,
      "note": 52,
      "start": 4.811,
      "duration": 0.8857,
      "velocity": 94,
      "chip": "ym2612"
    },
    {
      "channel": 3,
      "note": 33,
      "start": 4.816,
      "duration": 0.5855,
      "velocity": 122,
      "chip": "ym2612"
    },
    {
      "channel": 4,
      "note": 33,
      "start": 4.821,
      "duration": 0.3778,
      "velocity": 116,
      "chip": "ym2612"
    },
    {
      "channel": 1,
      "note": 52,
      "start": 5.1958,
      "duration": 0.2042,
      "velocity": 95,
      "chip": "ym2612"
    },
    {
      "channel": 4,
      "note": 32,
      "start": 5.1989,
      "duration": 0.2081,
      "velocity": 116,
      "chip": "ym2612"
    },
    {
      "channel": 0,
      "note": 45,
      "start": 5.399,
      "duration": 0.5956,
      "velocity": 100,
      "chip": "ym2612"
    },
    {
      "channel": 1,
      "note": 54,
      "start": 5.4,
      "duration": 0.2956,
      "velocity": 95,
      "chip": "ym2612"
    },
    {
      "channel": 3,
      "note": 33,
      "start": 5.406,
      "duration": 0.5963,
      "velocity": 116,
      "chip": "ym2612"
    },
    {
      "channel": 4,
      "note": 33,
      "start": 5.407,
      "duration": 0.2915,
      "velocity": 116,
      "chip": "ym2612"
    },
    {
      "channel": 1,
      "note": 55,
      "start": 5.7958,
      "duration": 0.2043,
      "velocity": 95,
      "chip": "ym2612"
    },
    {
      "channel": 2,
      "note": 52,
      "start": 5.7969,
      "duration": 0.2043,
      "velocity": 94,
      "chip": "ym2612"
    },
    {
      "channel": 0,
      "note": 42,
      "start": 5.9991,
      "duration": 0.5952,
      "velocity": 92,
      "chip": "ym2612"
    },
    {
      "channel": 1,
      "note": 54,
      "start": 6.0002,
      "duration": 1.5996,
      "velocity": 95,
      "chip": "ym2612"
    },
    {
      "channel": 2,
      "note": 51,
      "start": 6.0012,
      "duration": 1.6036,
      "velocity": 94,
      "chip": "ym2612"
    },
    {
      "channel": 3,
      "note": 33,
      "start": 6.0023,
      "duration": 2.3953,
      "velocity": 116,
      "chip": "ym2612"
    },
    {
      "channel": 4,
      "note": 34,
      "start": 6.0033,
      "duration": 0.3956,
      "velocity": 116,
      "chip": "ym2612"
    },
    {
      "channel": 4,
      "note": 33,
      "start": 6.3989,
      "duration": 0.2041,
      "velocity": 116,
      "chip": "ym2612"
    },
    {
      "channel": 0,
      "note": 34,
      "start": 6.5989,
      "duration": 0.9959,
      "velocity": 103,
      "chip": "ym2612"
    },
    {
      "channel": 4,
      "note": 34,
      "start": 6.6029,
      "duration": 1.0095,
      "velocity": 116,
      "chip": "ym2612"
    },
    {
      "channel": 0,
      "note": 78,
      "start": 7.5994,
      "duration": 0.1956,
      "velocity": 81,
      "chip": "ym2612"
    },
    {
      "channel": 1,
      "note": 50,
      "start": 7.6044,
      "duration": 0.1917,
      "velocity": 74,
      "chip": "ym2612"
    },
    {
      "channel": 2,
      "note": 66,
      "start": 7.6111,
      "duration": 0.186,
      "velocity": 106,
      "chip": "ym2612"
    },
    {
      "channel": 4,
      "note": 56,
      "start": 7.6171,
      "duration": 0.1821,
      "velocity": 92,
      "chip": "ym2612"
    },
    {
      "channel": 0,
      "note": 80,
      "start": 7.795,
      "duration": 0.3999,
      "velocity": 81,
      "chip": "ym2612"
    },
    {
      "channel": 1,
      "note": 44,
      "start": 7.7961,
      "duration": 0.2995,
      "velocity": 74,
      "chip": "ym2612"
    },
    {
      "channel": 2,
      "note": 68,
      "start": 7.7971,
      "duration": 0.3999,
      "velocity": 106,
      "chip": "ym2612"
    },
    {
      "channel": 4,
      "note": 54,
      "start": 7.7991,
      "duration": 0.3999,
      "velocity": 92,
      "chip": "ym2612"
    },
    {
      "channel": 0,
      "note": 78,
      "start": 8.1949,
      "duration": 0.2001,
      "velocity": 81,
      "chip": "ym2612"
    },
    {
      "channel": 1,
      "note": 42,
      "start": 8.196,
      "duration": 0.2001,
      "velocity": 74,
      "chip": "ym2612"
    },
    {
      "channel": 2,
      "note": 66,
      "start": 8.197,
      "duration": 0.2001,
      "velocity": 106,
      "chip": "ym2612"
    },
    {
      "channel": 4,
      "note": 52,
      "start": 8.199,
      "duration": 0.2042,
      "velocity": 92,
      "chip": "ym2612"
    },
    {
      "channel": 0,
      "note": 81,
      "start": 8.395,
      "duration": 0.3999,
      "velocity": 81,
      "chip": "ym2612"
    },
    {
      "channel": 1,
      "note": 45,
      "start": 8.3961,
      "duration": 0.2995,
      "velocity": 74,
      "chip": "ym2612"
    },
    {
      "channel": 2,
      "note": 69,
      "start": 8.3972,
      "duration": 0.3998,
      "velocity": 106,
      "chip": "ym2612"
    },
    {
      "channel": 3,
      "note": 62,
      "start": 8.4022,
      "duration": 0.3959,
      "velocity": 74,
      "chip": "ym2612"
    },
    {
      "channel": 4,
      "note": 49,
      "start": 8.4032,
      "duration": 0.5954,
      "velocity": 92,
      "chip": "ym2612"
    },
    {
      "channel": 0,
      "note": 78,
      "start": 8.7949,
      "duration": 0.2001,
      "velocity": 81,
      "chip": "ym2612"
    },
    {
      "channel": 1,
      "note": 42,
      "start": 8.796,
      "duration": 0.2001,
      "velocity": 74,
      "chip": "ym2612"
    },
    {
      "channel": 2,
      "note": 66,
      "start": 8.7971,
      "duration": 0.2001,
      "velocity": 106,
      "chip": "ym2612"
    },
    {
      "channel": 3,
      "note": 61,
      "start": 8.7981,
      "duration": 0.2001,
      "velocity": 74,
      "chip": "ym2612"
    },
    {
      "channel": 0,
      "note": 86,
      "start": 8.9951,
      "duration": 0.3998,
      "velocity": 81,
      "chip": "ym2612"
    },
    {
      "channel": 1,
      "note": 50,
      "start": 8.9961,
      "duration": 0.2995,
      "velocity": 74,
      "chip": "ym2612"
    },
    {
      "channel": 2,
      "note": 74,
      "start": 8.9972,
      "duration": 0.3998,
      "velocity": 106,
      "chip": "ym2612"
    },
    {
      "channel": 3,
      "note": 62,
      "start": 8.9982,
      "duration": 0.3999,
      "velocity": 74,
      "chip": "ym2612"
    },
    {
      "channel": 4,
      "note": 82,
      "start": 9.0032,
      "duration": 0.6133,
      "velocity": 100,
      "chip": "ym2612"
    },
    {
      "channel": 0,
      "note": 85,
      "start": 9.395,
      "duration": 0.2,
      "velocity": 81,
      "chip": "ym2612"
    },
    {
      "channel": 1,
      "note": 49,
      "start": 9.396,
      "duration": 0.2039,
      "velocity": 74,
      "chip": "ym2612"
    },
    {
      "channel": 2,
      "note": 73,
      "start": 9.3971,
      "duration": 0.2079,
      "velocity": 106,
      "chip": "ym2612"
    },
    {
      "channel": 3,
      "note": 61,
      "start": 9.3981,
      "duration": 0.2134,
      "velocity": 74,
      "chip": "ym2612"
    },
    {
      "channel": 0,
      "note": 35,
      "start": 9.5995,
      "duration": 0.5949,
      "velocity": 92,
      "chip": "ym2612"
    },
    {
      "channel": 1,
      "note": 47,
      "start": 9.6046,
      "duration": 0.291,
      "velocity": 95,
      "chip": "ym2612"
    },
    {
      "channel": 2,
      "note": 54,
      "start": 9.6112,
      "duration": 0.9859,
      "velocity": 94,
      "chip": "ym2612"
    },
    {
      "channel": 3,
      "note": 35,
      "start": 9.6162,
      "duration": 0.5854,
      "velocity": 122,
      "chip": "ym2612"
    },
    {
      "channel": 4,
      "note": 47,
      "start": 9.6212,
      "duration": 0.3776,
      "velocity": 116,
      "chip": "ym2612"
    },
    {
      "channel": 1,
      "note": 54,
      "start": 9.9957,
      "duration": 0.2043,
      "velocity": 95,
      "chip": "ym2612"
    },
    {
      "channel": 4,
      "note": 46,
      "start": 9.9988,
      "duration": 0.2083,
      "velocity": 116,
      "chip": "ym2612"
    },
    {
      "channel": 0,
      "note": 47,
      "start": 10.199,
      "duration": 0.5954,
      "velocity": 100,
      "chip": "ym2612"
    },
    {
      "channel": 1,
      "note": 55,
      "start": 10.2001,
      "duration": 0.2955,
      "velocity": 95,
      "chip": "ym2612"
    },
    {
      "channel": 3,
      "note": 35,
      "start": 10.2061,
      "duration": 0.5962,
      "velocity": 116,
      "chip": "ym2612"
    },
    {
      "channel": 4,
      "note": 47,
      "start": 10.209,
      "duration": 0.2898,
      "velocity": 116,
      "chip": "ym2612"
    },
    {
      "channel": 1,
      "note": 55,
      "start": 10.5959,
      "duration": 0.2043,
      "velocity": 95,
      "chip": "ym2612"
    },
    {
      "channel": 2,
      "note": 54,
      "start": 10.5971,
      "duration": 1.8076,
      "velocity": 94,
      "chip": "ym2612"
    },
    {
      "channel": 0,
      "note": 42,
      "start": 10.799,
      "duration": 0.5953,
      "velocity": 92,
      "chip": "ym2612"
    },
    {
      "channel": 1,
      "note": 54,
      "start": 10.8001,
      "duration": 1.5996,
      "velocity": 95,
      "chip": "ym2612"
    },
    {
      "channel": 3,
      "note": 34,
      "start": 10.8022,
      "duration": 2.3954,
      "velocity": 116,
      "chip": "ym2612"
    },
    {
      "channel": 4,
      "note": 46,
      "start": 10.8032,
      "duration": 0.3956,
      "velocity": 116,
      "chip": "ym2612"
    },
    {
      "channel": 4,
      "note": 45,
      "start": 11.1988,
      "duration": 0.2042,
      "velocity": 116,
      "chip": "ym2612"
    },
    {
      "channel": 0,
      "note": 34,
      "start": 11.399,
      "duration": 0.9957,
      "velocity": 103,
      "chip": "ym2612"
    },
    {
      "channel": 4,
      "note": 46,
      "start": 11.403,
      "duration": 1.0095,
      "velocity": 116,
      "chip": "ym2612"
    },
    {
      "channel": 0,
      "note": 78,
      "start": 12.3994,
      "duration": 0.1956,
      "velocity": 81,
      "chip": "ym2612"
    },
    {
      "channel": 1,
      "note": 50,
      "start": 12.4044,
      "duration": 0.1917,
      "velocity": 74,
      "chip": "ym2612"
    },
    {
      "channel": 2,
      "note": 66,
      "start": 12.4112,
      "duration": 0.1859,
      "velocity": 106,
      "chip": "ym2612"
    },
    {
      "channel": 4,
      "note": 42,
      "start": 12.4171,
      "duration": 0.5813,
      "velocity": 103,
      "chip": "ym2612"
    },
    {
      "channel": 0,
      "note": 80,
      "start": 12.595,
      "duration": 0.4,
      "velocity": 81,
      "chip": "ym2612"
    },
    {
      "channel": 1,
      "note": 44,
      "start": 12.5961,
      "duration": 0.2996,
      "velocity": 74,
      "chip": "ym2612"
    },
    {
      "channel": 2,
      "note": 68,
      "start": 12.5971,
      "duration": 0.3999,
      "velocity": 106,
      "chip": "ym2612"
    },
    {
      "channel": 0,
      "note": 78,
      "start": 12.995,
      "duration": 0.2001,
      "velocity": 81,
      "chip": "ym2612"
    },
    {
      "channel": 1,
      "note": 42,
      "start": 12.9961,
      "duration": 0.2001,
      "velocity": 74,
      "chip": "ym2612"
    },
    {
      "channel": 2,
      "note": 66,
      "start": 12.9971,
      "duration": 0.2001,
      "velocity": 106,
      "chip": "ym2612"
    },
    {
      "channel": 4,
      "note": 54,
      "start": 13.0031,
      "duration": 0.1995,
      "velocity": 92,
      "chip": "ym2612"
    },
    {
      "channel": 0,
      "note": 81,
      "start": 13.1952,
      "duration": 0.3998,
      "velocity": 81,
      "chip": "ym2612"
    },
    {
      "channel": 1,
      "note": 45,
      "start": 13.1962,
      "duration": 0.2994,
      "velocity": 74,
      "chip": "ym2612"
    },
    {
      "channel": 2,
      "note": 69,
      "start": 13.1973,
      "duration": 0.3998,
      "velocity": 106,
      "chip": "ym2612"
    },
    {
      "channel": 3,
      "note": 62,
      "start": 13.2023,
      "duration": 0.3959,
      "velocity": 74,
      "chip": "ym2612"
    },
    {
      "channel": 4,
      "note": 40,
      "start": 13.2092,
      "duration": 0.5899,
      "velocity": 103,
      "chip": "ym2612"
    },
    {
      "channel": 0,
      "note": 78,
      "start": 13.595,
      "duration": 0.2,
      "velocity": 81,
      "chip": "ym2612"
    },
    {
      "channel": 1,
      "note": 42,
      "start": 13.5961,
      "duration": 0.2,
      "velocity": 74,
      "chip": "ym2612"
    },
    {
      "channel": 2,
      "note": 66,
      "start": 13.5971,
      "duration": 0.2,
      "velocity": 106,
      "chip": "ym2612"
    },
    {
      "channel": 3,
      "note": 61,
      "start": 13.5982,
      "duration": 0.2,
      "velocity": 74,
      "chip": "ym2612"
    },
    {
      "channel": 0,
      "note": 82,
      "start": 13.795,
      "duration": 0.4,
      "velocity": 81,
      "chip": "ym2612"
    },
    {
      "channel": 1,
      "note": 46,
      "start": 13.7961,
      "duration": 0.2996,
      "velocity": 74,
      "chip": "ym2612"
    },
    {
      "channel": 2,
      "note": 70,
      "start": 13.7971,
      "duration": 0.4,
      "velocity": 106,
      "chip": "ym2612"
    },
    {
      "channel": 3,
      "note": 62,
      "start": 13.7982,
      "duration": 0.4,
      "velocity": 74,
      "chip": "ym2612"
    },
    {
      "channel": 4,
      "note": 40,
      "start": 13.7991,
      "duration": 0.3995,
      "velocity": 103,
      "chip": "ym2612"
    },
    {
      "channel": 0,
      "note": 85,
      "start": 14.195,
      "duration": 0.1996,
      "velocity": 81,
      "chip": "ym2612"
    },
    {
      "channel": 1,
      "note": 49,
      "start": 14.1961,
      "duration": 0.2036,
      "velocity": 74,
      "chip": "ym2612"
    },
    {
      "channel": 2,
      "note": 73,
      "start": 14.1971,
      "duration": 0.2075,
      "velocity": 106,
      "chip": "ym2612"
    },
    {
      "channel": 3,
      "note": 61,
      "start": 14.1982,
      "duration": 0.2132,
      "velocity": 74,
      "chip": "ym2612"
    },
    {
      "channel": 4,
      "note": 54,
      "start": 14.2032,
      "duration": 0.2132,
      "velocity": 92,
      "chip": "ym2612"
    },
    {
      "channel": 0,
      "note": 35,
      "start": 14.3992,
      "duration": 0.5952,
      "velocity": 92,
      "chip": "ym2612"
    },
    {
      "channel": 1,
      "note": 49,
      "start": 14.4043,
      "duration": 0.2914,
      "velocity": 95,
      "chip": "ym2612"
    },
    {
      "channel": 2,
      "note": 52,
      "start": 14.411,
      "duration": 0.8857,
      "velocity": 94,
      "chip": "ym2612"
    },
    {
      "channel": 3,
      "note": 33,
      "start": 14.416,
      "duration": 0.5855,
      "velocity": 122,
      "chip": "ym2612"
    },
    {
      "channel": 4,
      "note": 33,
      "start": 14.421,
      "duration": 0.3779,
      "velocity": 116,
      "chip": "ym2612"
    },
    {
      "channel": 1,
      "note": 52,
      "start": 14.7958,
      "duration": 0.2042,
      "velocity": 95,
      "chip": "ym2612"
    },
    {
      "channel": 4,
      "note": 32,
      "start": 14.7989,
      "duration": 0.2081,
      "velocity": 116,
      "chip": "ym2612"
    },
    {
      "channel": 0,
      "note": 45,
      "start": 14.999,
      "duration": 0.5956,
      "velocity": 100,
      "chip": "ym2612"
    },
    {
      "channel": 1,
      "note": 54,
      "start": 15.0001,
      "duration": 0.2956,
      "velocity": 95,
      "chip": "ym2612"
    },
    {
      "channel": 3,
      "note": 33,
      "start": 15.006,
      "duration": 0.5963,
      "velocity": 116,
      "chip": "ym2612"
    },
    {
      "channel": 4,
      "note": 33,
      "start": 15.007,
      "duration": 0.2915,
      "velocity": 116,
      "chip": "ym2612"
    },
    {
      "channel": 1,
      "note": 55,
      "start": 15.3959,
      "duration": 0.2043,
      "velocity": 95,
      "chip": "ym2612"
    },
    {
      "channel": 2,
      "note": 52,
      "start": 15.3969,
      "duration": 0.2043,
      "velocity": 94,
      "chip": "ym2612"
    },
    {
      "channel": 0,
      "note": 42,
      "start": 15.5992,
      "duration": 0.5951,
      "velocity": 92,
      "chip": "ym2612"
    },
    {
      "channel": 1,
      "note": 54,
      "start": 15.6002,
      "duration": 1.5995,
      "velocity": 95,
      "chip": "ym2612"
    },
    {
      "channel": 2,
      "note": 51,
      "start": 15.6012,
      "duration": 1.6034,
      "velocity": 94,
      "chip": "ym2612"
    },
    {
      "channel": 3,
      "note": 33,
      "start": 15.6023,
      "duration": 2.3953,
      "velocity": 116,
      "chip": "ym2612"
    },
    {
      "channel": 4,
      "note": 34,
      "start": 15.6034,
      "duration": 0.3955,
      "velocity": 116,
      "chip": "ym2612"
    },
    {
      "channel": 4,
      "note": 33,
      "start": 15.9989,
      "duration": 0.2041,
      "velocity": 116,
      "chip": "ym2612"
    },
    {
      "channel": 0,
      "note": 34,
      "start": 16.1989,
      "duration": 0.9958,
      "velocity": 103,
      "chip": "ym2612"
    },
    {
      "channel": 4,
      "note": 34,
      "start": 16.2029,
      "duration": 1.0094,
      "velocity": 116,
      "chip": "ym2612"
    },
    {
      "channel": 0,
      "note": 78,
      "start": 17.1993,
      "duration": 0.1957,
      "velocity": 81,
      "chip": "ym2612"
    },
    {
      "channel": 1,
      "note": 50,
      "start": 17.2043,
      "duration": 0.1918,
      "velocity": 74,
      "chip": "ym2612"
    },
    {
      "channel": 2,
      "note": 66,
      "start": 17.211,
      "duration": 0.1862,
      "velocity": 106,
      "chip": "ym2612"
    },
    {
      "channel": 4,
      "note": 56,
      "start": 17.2169,
      "duration": 0.1822,
      "velocity": 92,
      "chip": "ym2612"
    },
    {
      "channel": 0,
      "note": 80,
      "start": 17.3951,
      "duration": 0.3998,
      "velocity": 81,
      "chip": "ym2612"
    },
    {
      "channel": 1,
      "note": 44,
      "start": 17.3961,
      "duration": 0.2995,
      "velocity": 74,
      "chip": "ym2612"
    },
    {
      "channel": 2,
      "note": 68,
      "start": 17.3972,
      "duration": 0.3998,
      "velocity": 106,
      "chip": "ym2612"
    },
    {
      "channel": 4,
      "note": 54,
      "start": 17.3992,
      "duration": 0.3998,
      "velocity": 92,
      "chip": "ym2612"
    },
    {
      "channel": 0,
      "note": 78,
      "start": 17.795,
      "duration": 0.2001,
      "velocity": 81,
      "chip": "ym2612"
    },
    {
      "channel": 1,
      "note": 42,
      "start": 17.796,
      "duration": 0.2001,
      "velocity": 74,
      "chip": "ym2612"
    },
    {
      "channel": 2,
      "note": 66,
      "start": 17.7971,
      "duration": 0.2001,
      "velocity": 106,
      "chip": "ym2612"
    },
    {
      "channel": 4,
      "note": 52,
      "start": 17.799,
      "duration": 0.2042,
      "velocity": 92,
      "chip": "ym2612"
    },
    {
      "channel": 0,
      "note": 81,
      "start": 17.9951,
      "duration": 0.3998,
      "velocity": 81,
      "chip": "ym2612"
    },
    {
      "channel": 1,
      "note": 45,
      "start": 17.9961,
      "duration": 0.2995,
      "velocity": 74,
      "chip": "ym2612"
    },
    {
      "channel": 2,
      "note": 69,
      "start": 17.9972,
      "duration": 0.3999,
      "velocity": 106,
      "chip": "ym2612"
    },
    {
      "channel": 3,
      "note": 62,
      "start": 18.0022,
      "duration": 0.3959,
      "velocity": 74,
      "chip": "ym2612"
    },
    {
      "channel": 4,
      "note": 49,
      "start": 18.0032,
      "duration": 0.5954,
      "velocity": 92,
      "chip": "ym2612"
    },
    {
      "channel": 0,
      "note": 78,
      "start": 18.395,
      "duration": 0.2001,
      "velocity": 81,
      "chip": "ym2612"
    },
    {
      "channel": 1,
      "note": 42,
      "start": 18.396,
      "duration": 0.2001,
      "velocity": 74,
      "chip": "ym2612"
    },
    {
      "channel": 2,
      "note": 66,
      "start": 18.3971,
      "duration": 0.2001,
      "velocity": 106,
      "chip": "ym2612"
    },
    {
      "channel": 3,
      "note": 61,
      "start": 18.3981,
      "duration": 0.2001,
      "velocity": 74,
      "chip": "ym2612"
    },
    {
      "channel": 0,
      "note": 86,
      "start": 18.5951,
      "duration": 0.3999,
      "velocity": 81,
      "chip": "ym2612"
    },
    {
      "channel": 1,
      "note": 50,
      "start": 18.5961,
      "duration": 0.2995,
      "velocity": 74,
      "chip": "ym2612"
    },
    {
      "channel": 2,
      "note": 74,
      "start": 18.5972,
      "duration": 0.3999,
      "velocity": 106,
      "chip": "ym2612"
    },
    {
      "channel": 3,
      "note": 62,
      "start": 18.5983,
      "duration": 0.3998,
      "velocity": 74,
      "chip": "ym2612"
    },
    {
      "channel": 4,
      "note": 82,
      "start": 18.6033,
      "duration": 0.6094,
      "velocity": 100,
      "chip": "ym2612"
    },
    {
      "channel": 0,
      "note": 85,
      "start": 18.995,
      "duration": 0.2008,
      "velocity": 81,
      "chip": "ym2612"
    },
    {
      "channel": 1,
      "note": 49,
      "start": 18.996,
      "duration": 0.2001,
      "velocity": 74,
      "chip": "ym2612"
    },
    {
      "channel": 2,
      "note": 73,
      "start": 18.9971,
      "duration": 0.2041,
      "velocity": 106,
      "chip": "ym2612"
    },
    {
      "channel": 3,
      "note": 61,
      "start": 18.9982,
      "duration": 0.208,
      "velocity": 74,
      "chip": "ym2612"
    },
    {
      "channel": 0,
      "note": 85,
      "start": 19.1957,
      "duration": 0.3994,
      "velocity": 81,
      "chip": "ym2612"
    },
    {
      "channel": 1,
      "note": 45,
      "start": 19.2008,
      "duration": 0.3954,
      "velocity": 95,
      "chip": "ym2612"
    },
    {
      "channel": 2,
      "note": 60,
      "start": 19.2058,
      "duration": 0.3914,
      "velocity": 83,
      "chip": "ym2612"
    },
    {
      "channel": 3,
      "note": 40,
      "start": 19.2124,
      "duration": 0.3859,
      "velocity": 74,
      "chip": "ym2612"
    },
    {
      "channel": 4,
      "note": 43,
      "start": 19.2174,
      "duration": 0.5819,
      "velocity": 103,
      "chip": "ym2612"
    },
    {
      "channel": 0,
      "note": 86,
      "start": 19.5951,
      "duration": 0.2,
      "velocity": 81,
      "chip": "ym2612"
    },
    {
      "channel": 1,
      "note": 46,
      "start": 19.5962,
      "duration": 0.1999,
      "velocity": 95,
      "chip": "ym2612"
    },
    {
      "channel": 2,
      "note": 60,
      "start": 19.5972,
      "duration": 0.2,
      "velocity": 83,
      "chip": "ym2612"
    },
    {
      "channel": 3,
      "note": 41,
      "start": 19.5983,
      "duration": 0.2,
      "velocity": 74,
      "chip": "ym2612"
    },
    {
      "channel": 0,
      "note": 87,
      "start": 19.7951,
      "duration": 0.3999,
      "velocity": 81,
      "chip": "ym2612"
    },
    {
      "channel": 1,
      "note": 47,
      "start": 19.7962,
      "duration": 0.5993,
      "velocity": 95,
      "chip": "ym2612"
    },
    {
      "channel": 2,
      "note": 62,
      "start": 19.7972,
      "duration": 0.3999,
      "velocity": 83,
      "chip": "ym2612"
    },
    {
      "channel": 3,
      "note": 42,
      "start": 19.7983,
      "duration": 0.6033,
      "velocity": 74,
      "chip": "ym2612"
    },
    {
      "channel": 4,
      "note": 42,
      "start": 19.7993,
      "duration": 0.6097,
      "velocity": 103,
      "chip": "ym2612"
    },
    {
      "channel": 0,
      "note": 89,
      "start": 20.195,
      "duration": 0.2001,
      "velocity": 81,
      "chip": "ym2612"
    },
    {
      "channel": 2,
      "note": 65,
      "start": 20.1971,
      "duration": 0.2041,
      "velocity": 83,
      "chip": "ym2612"
    },
    {
      "channel": 0,
      "note": 86,
      "start": 20.3951,
      "duration": 0.5999,
      "velocity": 81,
      "chip": "ym2612"
    },
    {
      "channel": 1,
      "note": 36,
      "start": 20.4001,
      "duration": 0.5959,
      "velocity": 100,
      "chip": "ym2612"
    },
    {
      "channel": 2,
      "note": 58,
      "start": 20.4012,
      "duration": 0.5959,
      "velocity": 83,
      "chip": "ym2612"
    },
    {
      "channel": 3,
      "note": 40,
      "start": 20.4062,
      "duration": 0.2916,
      "velocity": 103,
      "chip": "ym2612"
    },
    {
      "channel": 4,
      "note": 41,
      "start": 20.4091,
      "duration": 0.5901,
      "velocity": 103,
      "chip": "ym2612"
    },
    {
      "channel": 3,
      "note": 41,
      "start": 20.7979,
      "duration": 0.2002,
      "velocity": 103,
      "chip": "ym2612"
    },
    {
      "channel": 0,
      "note": 82,
      "start": 20.995,
      "duration": 0.4,
      "velocity": 81,
      "chip": "ym2612"
    },
    {
      "channel": 1,
      "note": 38,
      "start": 20.9961,
      "duration": 0.5995,
      "velocity": 100,
      "chip": "ym2612"
    },
    {
      "channel": 2,
      "note": 57,
      "start": 20.9971,
      "duration": 0.3998,
      "velocity": 83,
      "chip": "ym2612"
    },
    {
      "channel": 3,
      "note": 42,
      "start": 20.9982,
      "duration": 0.2997,
      "velocity": 103,
      "chip": "ym2612"
    },
    {
      "channel": 4,
      "note": 40,
      "start": 20.9992,
      "duration": 0.6034,
      "velocity": 103,
      "chip": "ym2612"
    },
    {
      "channel": 0,
      "note": 83,
      "start": 21.395,
      "duration": 0.2001,
      "velocity": 81,
      "chip": "ym2612"
    },
    {
      "channel": 2,
      "note": 57,
      "start": 21.397,
      "duration": 0.2042,
      "velocity": 83,
      "chip": "ym2612"
    },
    {
      "channel": 0,
      "note": 84,
      "start": 21.5952,
      "duration": 0.3997,
      "velocity": 81,
      "chip": "ym2612"
    },
    {
      "channel": 1,
      "note": 39,
      "start": 21.6002,
      "duration": 0.9952,
      "velocity": 92,
      "chip": "ym2612"
    },
    {
      "channel": 2,
      "note": 59,
      "start": 21.6012,
      "duration": 0.3956,
      "velocity": 83,
      "chip": "ym2612"
    },
    {
      "channel": 3,
      "note": 37,
      "start": 21.6022,
      "duration": 0.2955,
      "velocity": 103,
      "chip": "ym2612"
    },
    {
      "channel": 4,
      "note": 35,
      "start": 21.6092,
      "duration": 0.5933,
      "velocity": 100,
      "chip": "ym2612"
    },
    {
      "channel": 0,
      "note": 86,
      "start": 21.9949,
      "duration": 0.2002,
      "velocity": 81,
      "chip": "ym2612"
    },
    {
      "channel": 2,
      "note": 62,
      "start": 21.9969,
      "duration": 0.2002,
      "velocity": 83,
      "chip": "ym2612"
    },
    {
      "channel": 0,
      "note": 83,
      "start": 22.1952,
      "duration": 1.2,
      "velocity": 81,
      "chip": "ym2612"
    },
    {
      "channel": 2,
      "note": 55,
      "start": 22.1971,
      "duration": 1.2041,
      "velocity": 83,
      "chip": "ym2612"
    },
    {
      "channel": 3,
      "note": 71,
      "start": 22.2022,
      "duration": 0.1956,
      "velocity": 100,
      "chip": "ym2612"
    },
    {
      "channel": 4,
      "note": 34,
      "start": 22.2091,
      "duration": 0.59,
      "velocity": 103,
      "chip": "ym2612"
    },
    {
      "channel": 3,
      "note": 72,
      "start": 22.3978,
      "duration": 0.2043,
      "velocity": 100,
      "chip": "ym2612"
    },
    {
      "channel": 1,
      "note": 71,
      "start": 22.6001,
      "duration": 0.1959,
      "velocity": 94,
      "chip": "ym2612"
    },
    {
      "channel": 3,
      "note": 73,
      "start": 22.6022,
      "duration": 0.1959,
      "velocity": 100,
      "chip": "ym2612"
    },
    {
      "channel": 1,
      "note": 72,
      "start": 22.7959,
      "duration": 0.2,
      "velocity": 94,
      "chip": "ym2612"
    },
    {
      "channel": 3,
      "note": 71,
      "start": 22.798,
      "duration": 0.2,
      "velocity": 100,
      "chip": "ym2612"
    },
    {
      "channel": 4,
      "note": 33,
      "start": 22.7991,
      "duration": 0.6042,
      "velocity": 103,
      "chip": "ym2612"
    },
    {
      "channel": 1,
      "note": 73,
      "start": 22.9959,
      "duration": 0.2,
      "velocity": 94,
      "chip": "ym2612"
    },
    {
      "channel": 3,
      "note": 73,
      "start": 22.998,
      "duration": 0.2,
      "velocity": 100,
      "chip": "ym2612"
    },
    {
      "channel": 1,
      "note": 74,
      "start": 23.1959,
      "duration": 0.1996,
      "velocity": 94,
      "chip": "ym2612"
    },
    {
      "channel": 3,
      "note": 74,
      "start": 23.1981,
      "duration": 0.2042,
      "velocity": 100,
      "chip": "ym2612"
    },
    {
      "channel": 0,
      "note": 79,
      "start": 23.3952,
      "duration": 0.3999,
      "velocity": 81,
      "chip": "ym2612"
    },
    {
      "channel": 1,
      "note": 37,
      "start": 23.4002,
      "duration": 0.5955,
      "velocity": 127,
      "chip": "ym2612"
    },
    {
      "channel": 2,
      "note": 50,
      "start": 23.4012,
      "duration": 0.3959,
      "velocity": 83,
      "chip": "ym2612"
    },
    {
      "channel": 3,
      "note": 76,
      "start": 23.4023,
      "duration": 0.5995,
      "velocity": 100,
      "chip": "ym2612"
    },
    {
      "channel": 4,
      "note": 32,
      "start": 23.4033,
      "duration": 0.6059,
      "velocity": 103,
      "chip": "ym2612"
    },
    {
      "channel": 0,
      "note": 79,
      "start": 23.795,
      "duration": 0.2003,
      "velocity": 81,
      "chip": "ym2612"
    },
    {
      "channel": 2,
      "note": 51,
      "start": 23.7971,
      "duration": 0.2042,
      "velocity": 83,
      "chip": "ym2612"
    },
    {
      "channel": 0,
      "note": 80,
      "start": 23.9953,
      "duration": 0.5997,
      "velocity": 81,
      "chip": "ym2612"
    },
    {
      "channel": 1,
      "note": 61,
      "start": 24.0003,
      "duration": 0.3956,
      "velocity": 127,
      "chip": "ym2612"
    },
    {
      "channel": 2,
      "note": 52,
      "start": 24.0013,
      "duration": 0.5958,
      "velocity": 83,
      "chip": "ym2612"
    },
    {
      "channel": 3,
      "note": 45,
      "start": 24.0064,
      "duration": 0.3917,
      "velocity": 74,
      "chip": "ym2612"
    },
    {
      "channel": 4,
      "note": 31,
      "start": 24.0092,
      "duration": 0.59,
      "velocity": 103,
      "chip": "ym2612"
    },
    {
      "channel": 1,
      "note": 62,
      "start": 24.396,
      "duration": 0.2001,
      "velocity": 127,
      "chip": "ym2612"
    },
    {
      "channel": 3,
      "note": 57,
      "start": 24.3981,
      "duration": 0.2001,
      "velocity": 74,
      "chip": "ym2612"
    },
    {
      "channel": 0,
      "note": 78,
      "start": 24.595,
      "duration": 0.4,
      "velocity": 81,
      "chip": "ym2612"
    },
    {
      "channel": 1,
      "note": 63,
      "start": 24.5961,
      "duration": 0.5995,
      "velocity": 127,
      "chip": "ym2612"
    },
    {
      "channel": 2,
      "note": 54,
      "start": 24.5971,
      "duration": 0.4,
      "velocity": 83,
      "chip": "ym2612"
    },
    {
      "channel": 3,
      "note": 58,
      "start": 24.5982,
      "duration": 0.6034,
      "velocity": 74,
      "chip": "ym2612"
    },
    {
      "channel": 4,
      "note": 30,
      "start": 24.5993,
      "duration": 0.6097,
      "velocity": 103,
      "chip": "ym2612"
    },
    {
      "channel": 0,
      "note": 77,
      "start": 24.995,
      "duration": 0.2001,
      "velocity": 81,
      "chip": "ym2612"
    },
    {
      "channel": 2,
      "note": 53,
      "start": 24.9972,
      "duration": 0.2041,
      "velocity": 83,
      "chip": "ym2612"
    },
    {
      "channel": 0,
      "note": 78,
      "start": 25.1952,
      "duration": 0.5999,
      "velocity": 81,
      "chip": "ym2612"
    },
    {
      "channel": 1,
      "note": 60,
      "start": 25.2002,
      "duration": 0.1956,
      "velocity": 94,
      "chip": "ym2612"
    },
    {
      "channel": 2,
      "note": 50,
      "start": 25.2013,
      "duration": 0.6,
      "velocity": 83,
      "chip": "ym2612"
    },
    {
      "channel": 3,
      "note": 67,
      "start": 25.2063,
      "duration": 0.1917,
      "velocity": 89,
      "chip": "ym2612"
    },
    {
      "channel": 4,
      "note": 30,
      "start": 25.2091,
      "duration": 0.6,
      "velocity": 103,
      "chip": "ym2612"
    },
    {
      "channel": 1,
      "note": 59,
      "start": 25.3959,
      "duration": 0.2001,
      "velocity": 94,
      "chip": "ym2612"
    },
    {
      "channel": 3,
      "note": 66,
      "start": 25.398,
      "duration": 0.2001,
      "velocity": 89,
      "chip": "ym2612"
    },
    {
      "channel": 1,
      "note": 58,
      "start": 25.596,
      "duration": 0.1996,
      "velocity": 94,
      "chip": "ym2612"
    },
    {
      "channel": 3,
      "note": 65,
      "start": 25.5981,
      "duration": 0.2036,
      "velocity": 89,
      "chip": "ym2612"
    },
    {
      "channel": 0,
      "note": 76,
      "start": 25.7952,
      "duration": 0.3997,
      "velocity": 81,
      "chip": "ym2612"
    },
    {
      "channel": 1,
      "note": 33,
      "start": 25.8002,
      "duration": 0.1956,
      "velocity": 116,
      "chip": "ym2612"
    },
    {
      "channel": 2,
      "note": 48,
      "start": 25.8013,
      "duration": 0.3957,
      "velocity": 83,
      "chip": "ym2612"
    },
    {
      "channel": 3,
      "note": 45,
      "start": 25.8063,
      "duration": 0.1917,
      "velocity": 100,
      "chip": "ym2612"
    },
    {
      "channel": 4,
      "note": 82,
      "start": 25.8091,
      "duration": 0.59,
      "velocity": 103,
      "chip": "ym2612"
    },
    {
      "channel": 1,
      "note": 32,
      "start": 25.9959,
      "duration": 0.2001,
      "velocity": 116,
      "chip": "ym2612"
    },
    {
      "channel": 3,
      "note": 44,
      "start": 25.998,
      "duration": 0.2001,
      "velocity": 100,
      "chip": "ym2612"
    },
    {
      "channel": 0,
      "note": 75,
      "start": 26.195,
      "duration": 0.2,
      "velocity": 81,
      "chip": "ym2612"
    },
    {
      "channel": 1,
      "note": 31,
      "start": 26.196,
      "duration": 0.5998,
      "velocity": 116,
      "chip": "ym2612"
    },
    {
      "channel": 2,
      "note": 47,
      "start": 26.1971,
      "duration": 0.1999,
      "velocity": 83,
      "chip": "ym2612"
    },
    {
      "channel": 3,
      "note": 43,
      "start": 26.1981,
      "duration": 0.1999,
      "velocity": 100,
      "chip": "ym2612"
    },
    {
      "channel": 0,
      "note": 76,
      "start": 26.395,
      "duration": 0.6001,
      "velocity": 81,
      "chip": "ym2612"
    },
    {
      "channel": 2,
      "note": 42,
      "start": 26.3969,
      "duration": 0.4038,
      "velocity": 83,
      "chip": "ym2612"
    },
    {
      "channel": 3,
      "note": 46,
      "start": 26.398,
      "duration": 0.4085,
      "velocity": 100,
      "chip": "ym2612"
    },
    {
      "channel": 4,
      "note": 31,
      "start": 26.399,
      "duration": 0.6002,
      "velocity": 103,
      "chip": "ym2612"
    },
    {
      "channel": 1,
      "note": 42,
      "start": 26.8004,
      "duration": 0.1957,
      "velocity": 74,
      "chip": "ym2612"
    },
    {
      "channel": 2,
      "note": 54,
      "start": 26.8054,
      "duration": 0.1918,
      "velocity": 116,
      "chip": "ym2612"
    },
    {
      "channel": 3,
      "note": 44,
      "start": 26.8064,
      "duration": 0.1918,
      "velocity": 100,
      "chip": "ym2612"
    },
    {
      "channel": 0,
      "note": 74,
      "start": 26.9951,
      "duration": 0.3999,
      "velocity": 81,
      "chip": "ym2612"
    },
    {
      "channel": 1,
      "note": 44,
      "start": 26.9961,
      "duration": 0.3999,
      "velocity": 74,
      "chip": "ym2612"
    },
    {
      "channel": 2,
      "note": 56,
      "start": 26.9972,
      "duration": 0.3999,
      "velocity": 116,
      "chip": "ym2612"
    },
    {
      "channel": 3,
      "note": 43,
      "start": 26.9983,
      "duration": 0.3998,
      "velocity": 100,
      "chip": "ym2612"
    },
    {
      "channel": 4,
      "note": 30,
      "start": 26.9993,
      "duration": 0.6034,
      "velocity": 103,
      "chip": "ym2612"
    },
    {
      "channel": 0,
      "note": 74,
      "start": 27.395,
      "duration": 0.2003,
      "velocity": 81,
      "chip": "ym2612"
    },
    {
      "channel": 1,
      "note": 42,
      "start": 27.396,
      "duration": 0.2003,
      "velocity": 74,
      "chip": "ym2612"
    },
    {
      "channel": 2,
      "note": 54,
      "start": 27.3971,
      "duration": 0.2002,
      "velocity": 116,
      "chip": "ym2612"
    },
    {
      "channel": 3,
      "note": 42,
      "start": 27.3982,
      "duration": 0.1995,
      "velocity": 100,
      "chip": "ym2612"
    },
    {
      "channel": 0,
      "note": 76,
      "start": 27.5952,
      "duration": 0.5997,
      "velocity": 81,
      "chip": "ym2612"
    },
    {
      "channel": 1,
      "note": 45,
      "start": 27.5963,
      "duration": 0.3997,
      "velocity": 74,
      "chip": "ym2612"
    },
    {
      "channel": 2,
      "note": 57,
      "start": 27.5973,
      "duration": 0.3998,
      "velocity": 116,
      "chip": "ym2612"
    },
    {
      "channel": 3,
      "note": 50,
      "start": 27.6024,
      "duration": 0.3957,
      "velocity": 74,
      "chip": "ym2612"
    },
    {
      "channel": 4,
      "note": 30,
      "start": 27.6092,
      "duration": 0.59,
      "velocity": 100,
      "chip": "ym2612"
    },
    {
      "channel": 1,
      "note": 42,
      "start": 27.9961,
      "duration": 0.1999,
      "velocity": 74,
      "chip": "ym2612"
    },
    {
      "channel": 2,
      "note": 54,
      "start": 27.9971,
      "duration": 0.2,
      "velocity": 116,
      "chip": "ym2612"
    },
    {
      "channel": 3,
      "note": 49,
      "start": 27.9982,
      "duration": 0.1999,
      "velocity": 74,
      "chip": "ym2612"
    },
    {
      "channel": 0,
      "note": 77,
      "start": 28.195,
      "duration": 0.5997,
      "velocity": 81,
      "chip": "ym2612"
    },
    {
      "channel": 1,
      "note": 50,
      "start": 28.1961,
      "duration": 0.3999,
      "velocity": 74,
      "chip": "ym2612"
    },
    {
      "channel": 2,
      "note": 62,
      "start": 28.1971,
      "duration": 0.4,
      "velocity": 116,
      "chip": "ym2612"
    },
    {
      "channel": 3,
      "note": 50,
      "start": 28.1982,
      "duration": 0.1998,
      "velocity": 74,
      "chip": "ym2612"
    },
    {
      "channel": 4,
      "note": 82,
      "start": 28.1992,
      "duration": 0.613,
      "velocity": 100,
      "chip": "ym2612"
    },
    {
      "channel": 3,
      "note": 49,
      "start": 28.3979,
      "duration": 0.2002,
      "velocity": 74,
      "chip": "ym2612"
    },
    {
      "channel": 1,
      "note": 49,
      "start": 28.5961,
      "duration": 0.2036,
      "velocity": 74,
      "chip": "ym2612"
    },
    {
      "channel": 2,
      "note": 61,
      "start": 28.5971,
      "duration": 0.2082,
      "velocity": 116,
      "chip": "ym2612"
    },
    {
      "channel": 3,
      "note": 49,
      "start": 28.5982,
      "duration": 0.2075,
      "velocity": 74,
      "chip": "ym2612"
    },
    {
      "channel": 0,
      "note": 35,
      "start": 28.7992,
      "duration": 0.5953,
      "velocity": 92,
      "chip": "ym2612"
    },
    {
      "channel": 1,
      "note": 47,
      "start": 28.8043,
      "duration": 0.3918,
      "velocity": 95,
      "chip": "ym2612"
    },
    {
      "channel": 2,
      "note": 59,
      "start": 28.8053,
      "duration": 0.3918,
      "velocity": 116,
      "chip": "ym2612"
    },
    {
      "channel": 3,
      "note": 35,
      "start": 28.8119,
      "duration": 0.5897,
      "velocity": 122,
      "chip": "ym2612"
    },
    {
      "channel": 4,
      "note": 47,
      "start": 28.8169,
      "duration": 0.3823,
      "velocity": 116,
      "chip": "ym2612"
    },
    {
      "channel": 1,
      "note": 54,
      "start": 29.1961,
      "duration": 0.2041,
      "velocity": 95,
      "chip": "ym2612"
    },
    {
      "channel": 2,
      "note": 51,
      "start": 29.1971,
      "duration": 0.2041,
      "velocity": 116,
      "chip": "ym2612"
    },
    {
      "channel": 4,
      "note": 46,
      "start": 29.1992,
      "duration": 0.2098,
      "velocity": 116,
      "chip": "ym2612"
    },
    {
      "channel": 0,
      "note": 47,
      "start": 29.3991,
      "duration": 0.5953,
      "velocity": 100,
      "chip": "ym2612"
    },
    {
      "channel": 1,
      "note": 55,
      "start": 29.4001,
      "duration": 0.3959,
      "velocity": 95,
      "chip": "ym2612"
    },
    {
      "channel": 2,
      "note": 54,
      "start": 29.4012,
      "duration": 0.3959,
      "velocity": 116,
      "chip": "ym2612"
    },
    {
      "channel": 3,
      "note": 35,
      "start": 29.4062,
      "duration": 0.5959,
      "velocity": 116,
      "chip": "ym2612"
    },
    {
      "channel": 4,
      "note": 47,
      "start": 29.4091,
      "duration": 0.2896,
      "velocity": 116,
      "chip": "ym2612"
    },
    {
      "channel": 1,
      "note": 55,
      "start": 29.7961,
      "duration": 0.2039,
      "velocity": 95,
      "chip": "ym2612"
    },
    {
      "channel": 2,
      "note": 59,
      "start": 29.7971,
      "duration": 0.8039,
      "velocity": 116,
      "chip": "ym2612"
    },
    {
      "channel": 0,
      "note": 42,
      "start": 29.999,
      "duration": 0.5954,
      "velocity": 92,
      "chip": "ym2612"
    },
    {
      "channel": 1,
      "note": 54,
      "start": 30.0,
      "duration": 1.5996,
      "velocity": 95,
      "chip": "ym2612"
    },
    {
      "channel": 3,
      "note": 34,
      "start": 30.0021,
      "duration": 2.3955,
      "velocity": 116,
      "chip": "ym2612"
    },
    {
      "channel": 4,
      "note": 46,
      "start": 30.0032,
      "duration": 0.3959,
      "velocity": 116,
      "chip": "ym2612"
    },
    {
      "channel": 4,
      "note": 45,
      "start": 30.3991,
      "duration": 0.2041,
      "velocity": 116,
      "chip": "ym2612"
    },
    {
      "channel": 0,
      "note": 46,
      "start": 30.599,
      "duration": 0.9957,
      "velocity": 103,
      "chip": "ym2612"
    },
    {
      "channel": 2,
      "note": 57,
      "start": 30.6011,
      "duration": 0.1959,
      "velocity": 116,
      "chip": "ym2612"
    },
    {
      "channel": 4,
      "note": 46,
      "start": 30.6032,
      "duration": 1.0092,
      "velocity": 116,
      "chip": "ym2612"
    },
    {
      "channel": 2,
      "note": 56,
      "start": 30.797,
      "duration": 0.2,
      "velocity": 116,
      "chip": "ym2612"
    },
    {
      "channel": 2,
      "note": 55,
      "start": 30.997,
      "duration": 0.2,
      "velocity": 116,
      "chip": "ym2612"
    },
    {
      "channel": 2,
      "note": 51,
      "start": 31.197,
      "duration": 0.2001,
      "velocity": 116,
      "chip": "ym2612"
    },
    {
      "channel": 2,
      "note": 52,
      "start": 31.3971,
      "duration": 0.2075,
      "velocity": 116,
      "chip": "ym2612"
    },
    {
      "channel": 0,
      "note": 78,
      "start": 31.5993,
      "duration": 0.1957,
      "velocity": 81,
      "chip": "ym2612"
    },
    {
      "channel": 1,
      "note": 58,
      "start": 31.6043,
      "duration": 0.1918,
      "velocity": 74,
      "chip": "ym2612"
    },
    {
      "channel": 2,
      "note": 54,
      "start": 31.611,
      "duration": 0.1861,
      "velocity": 106,
      "chip": "ym2612"
    },
    {
      "channel": 4,
      "note": 42,
      "start": 31.6171,
      "duration": 0.5817,
      "velocity": 103,
      "chip": "ym2612"
    },
    {
      "channel": 0,
      "note": 80,
      "start": 31.795,
      "duration": 0.4001,
      "velocity": 81,
      "chip": "ym2612"
    },
    {
      "channel": 1,
      "note": 44,
      "start": 31.7961,
      "duration": 0.4001,
      "velocity": 74,
      "chip": "ym2612"
    },
    {
      "channel": 2,
      "note": 56,
      "start": 31.7971,
      "duration": 0.4001,
      "velocity": 106,
      "chip": "ym2612"
    },
    {
      "channel": 0,
      "note": 78,
      "start": 32.1952,
      "duration": 0.2,
      "velocity": 81,
      "chip": "ym2612"
    },
    {
      "channel": 1,
      "note": 42,
      "start": 32.1963,
      "duration": 0.1999,
      "velocity": 74,
      "chip": "ym2612"
    },
    {
      "channel": 2,
      "note": 54,
      "start": 32.1973,
      "duration": 0.2,
      "velocity": 106,
      "chip": "ym2612"
    },
    {
      "channel": 4,
      "note": 54,
      "start": 32.2034,
      "duration": 0.1993,
      "velocity": 92,
      "chip": "ym2612"
    },
    {
      "channel": 0,
      "note": 81,
      "start": 32.3952,
      "duration": 0.3999,
      "velocity": 81,
      "chip": "ym2612"
    },
    {
      "channel": 1,
      "note": 45,
      "start": 32.3963,
      "duration": 0.3999,
      "velocity": 74,
      "chip": "ym2612"
    },
    {
      "channel": 2,
      "note": 57,
      "start": 32.3973,
      "duration": 0.3999,
      "velocity": 106,
      "chip": "ym2612"
    },
    {
      "channel": 3,
      "note": 50,
      "start": 32.4023,
      "duration": 0.3959,
      "velocity": 74,
      "chip": "ym2612"
    },
    {
      "channel": 4,
      "note": 52,
      "start": 32.4092,
      "duration": 0.5899,
      "velocity": 103,
      "chip": "ym2612"
    },
    {
      "channel": 0,
      "note": 78,
      "start": 32.795,
      "duration": 0.2,
      "velocity": 81,
      "chip": "ym2612"
    },
    {
      "channel": 1,
      "note": 42,
      "start": 32.7961,
      "duration": 0.2,
      "velocity": 74,
      "chip": "ym2612"
    },
    {
      "channel": 2,
      "note": 54,
      "start": 32.7971,
      "duration": 0.2,
      "velocity": 106,
      "chip": "ym2612"
    },
    {
      "channel": 3,
      "note": 49,
      "start": 32.7982,
      "duration": 0.2,
      "velocity": 74,
      "chip": "ym2612"
    },
    {
      "channel": 0,
      "note": 82,
      "start": 32.995,
      "duration": 0.4,
      "velocity": 81,
      "chip": "ym2612"
    },
    {
      "channel": 1,
      "note": 46,
      "start": 32.9961,
      "duration": 0.4,
      "velocity": 74,
      "chip": "ym2612"
    },
    {
      "channel": 2,
      "note": 58,
      "start": 32.9971,
      "duration": 0.3994,
      "velocity": 106,
      "chip": "ym2612"
    },
    {
      "channel": 3,
      "note": 50,
      "start": 32.9982,
      "duration": 0.4039,
      "velocity": 74,
      "chip": "ym2612"
    },
    {
      "channel": 4,
      "note": 52,
      "start": 32.9991,
      "duration": 0.4034,
      "velocity": 103,
      "chip": "ym2612"
    },
    {
      "channel": 0,
      "note": 85,
      "start": 33.395,
      "duration": 0.1996,
      "velocity": 81,
      "chip": "ym2612"
    },
    {
      "channel": 1,
      "note": 49,
      "start": 33.3961,
      "duration": 0.2036,
      "velocity": 74,
      "chip": "ym2612"
    },
    {
      "channel": 2,
      "note": 47,
      "start": 33.4012,
      "duration": 0.2042,
      "velocity": 116,
      "chip": "ym2612"
    },
    {
      "channel": 3,
      "note": 49,
      "start": 33.4022,
      "duration": 0.2036,
      "velocity": 74,
      "chip": "ym2612"
    },
    {
      "channel": 4,
      "note": 54,
      "start": 33.4091,
      "duration": 0.2032,
      "velocity": 92,
      "chip": "ym2612"
    },
    {
      "channel": 0,
      "note": 35,
      "start": 33.5993,
      "duration": 0.5952,
      "velocity": 92,
      "chip": "ym2612"
    },
    {
      "channel": 1,
      "note": 49,
      "start": 33.6043,
      "duration": 0.3918,
      "velocity": 95,
      "chip": "ym2612"
    },
    {
      "channel": 2,
      "note": 48,
      "start": 33.6054,
      "duration": 0.1914,
      "velocity": 116,
      "chip": "ym2612"
    },
    {
      "channel": 3,
      "note": 45,
      "start": 33.612,
      "duration": 0.5895,
      "velocity": 122,
      "chip": "ym2612"
    },
    {
      "channel": 4,
      "note": 45,
      "start": 33.6169,
      "duration": 0.3823,
      "velocity": 116,
      "chip": "ym2612"
    },
    {
      "channel": 2,
      "note": 48,
      "start": 33.7968,
      "duration": 0.2004,
      "velocity": 116,
      "chip": "ym2612"
    },
    {
      "channel": 1,
      "note": 52,
      "start": 33.9961,
      "duration": 0.2039,
      "velocity": 95,
      "chip": "ym2612"
    },
    {
      "channel": 2,
      "note": 57,
      "start": 33.9972,
      "duration": 0.5998,
      "velocity": 116,
      "chip": "ym2612"
    },
    {
      "channel": 4,
      "note": 44,
      "start": 33.9993,
      "duration": 0.2097,
      "velocity": 116,
      "chip": "ym2612"
    },
    {
      "channel": 0,
      "note": 45,
      "start": 34.199,
      "duration": 0.5954,
      "velocity": 100,
      "chip": "ym2612"
    },
    {
      "channel": 1,
      "note": 54,
      "start": 34.2001,
      "duration": 0.3959,
      "velocity": 95,
      "chip": "ym2612"
    },
    {
      "channel": 3,
      "note": 33,
      "start": 34.2062,
      "duration": 0.596,
      "velocity": 116,
      "chip": "ym2612"
    },
    {
      "channel": 4,
      "note": 45,
      "start": 34.2091,
      "duration": 0.2896,
      "velocity": 116,
      "chip": "ym2612"
    },
    {
      "channel": 1,
      "note": 55,
      "start": 34.596,
      "duration": 0.2041,
      "velocity": 95,
      "chip": "ym2612"
    },
    {
      "channel": 2,
      "note": 52,
      "start": 34.5971,
      "duration": 0.2041,
      "velocity": 116,
      "chip": "ym2612"
    },
    {
      "channel": 0,
      "note": 42,
      "start": 34.799,
      "duration": 0.5954,
      "velocity": 92,
      "chip": "ym2612"
    },
    {
      "channel": 1,
      "note": 54,
      "start": 34.8001,
      "duration": 1.5996,
      "velocity": 95,
      "chip": "ym2612"
    },
    {
      "channel": 2,
      "note": 54,
      "start": 34.8012,
      "duration": 0.1957,
      "velocity": 116,
      "chip": "ym2612"
    },
    {
      "channel": 3,
      "note": 33,
      "start": 34.8022,
      "duration": 2.3954,
      "velocity": 116,
      "chip": "ym2612"
    },
    {
      "channel": 4,
      "note": 46,
      "start": 34.8032,
      "duration": 0.3959,
      "velocity": 116,
      "chip": "ym2612"
    },
    {
      "channel": 2,
      "note": 55,
      "start": 34.9968,
      "duration": 0.2002,
      "velocity": 116,
      "chip": "ym2612"
    },
    {
      "channel": 2,
      "note": 62,
      "start": 35.1971,
      "duration": 0.2039,
      "velocity": 116,
      "chip": "ym2612"
    },
    {
      "channel": 4,
      "note": 45,
      "start": 35.1992,
      "duration": 0.2039,
      "velocity": 116,
      "chip": "ym2612"
    },
    {
      "channel": 0,
      "note": 46,
      "start": 35.3989,
      "duration": 0.9958,
      "velocity": 103,
      "chip": "ym2612"
    },
    {
      "channel": 2,
      "note": 58,
      "start": 35.401,
      "duration": 0.1959,
      "velocity": 116,
      "chip": "ym2612"
    },
    {
      "channel": 4,
      "note": 46,
      "start": 35.4031,
      "duration": 1.0093,
      "velocity": 116,
      "chip": "ym2612"
    },
    {
      "channel": 2,
      "note": 56,
      "start": 35.5969,
      "duration": 0.2001,
      "velocity": 116,
      "chip": "ym2612"
    },
    {
      "channel": 2,
      "note": 56,
      "start": 35.7971,
      "duration": 0.2,
      "velocity": 116,
      "chip": "ym2612"
    },
    {
      "channel": 2,
      "note": 58,
      "start": 35.9971,
      "duration": 0.2,
      "velocity": 116,
      "chip": "ym2612"
    },
    {
      "channel": 2,
      "note": 54,
      "start": 36.1971,
      "duration": 0.2076,
      "velocity": 116,
      "chip": "ym2612"
    },
    {
      "channel": 0,
      "note": 78,
      "start": 36.3994,
      "duration": 0.1956,
      "velocity": 81,
      "chip": "ym2612"
    },
    {
      "channel": 1,
      "note": 58,
      "start": 36.4043,
      "duration": 0.1917,
      "velocity": 74,
      "chip": "ym2612"
    },
    {
      "channel": 2,
      "note": 54,
      "start": 36.4111,
      "duration": 0.186,
      "velocity": 106,
      "chip": "ym2612"
    },
    {
      "channel": 4,
      "note": 56,
      "start": 36.4171,
      "duration": 0.1821,
      "velocity": 92,
      "chip": "ym2612"
    },
    {
      "channel": 0,
      "note": 80,
      "start": 36.595,
      "duration": 0.4,
      "velocity": 81,
      "chip": "ym2612"
    },
    {
      "channel": 1,
      "note": 44,
      "start": 36.5961,
      "duration": 0.3999,
      "velocity": 74,
      "chip": "ym2612"
    },
    {
      "channel": 2,
      "note": 56,
      "start": 36.5971,
      "duration": 0.4,
      "velocity": 106,
      "chip": "ym2612"
    },
    {
      "channel": 4,
      "note": 54,
      "start": 36.5992,
      "duration": 0.4,
      "velocity": 92,
      "chip": "ym2612"
    },
    {
      "channel": 0,
      "note": 78,
      "start": 36.995,
      "duration": 0.2001,
      "velocity": 81,
      "chip": "ym2612"
    },
    {
      "channel": 1,
      "note": 42,
      "start": 36.9961,
      "duration": 0.2001,
      "velocity": 74,
      "chip": "ym2612"
    },
    {
      "channel": 2,
      "note": 54,
      "start": 36.9971,
      "duration": 0.2001,
      "velocity": 106,
      "chip": "ym2612"
    },
    {
      "channel": 4,
      "note": 52,
      "start": 36.9992,
      "duration": 0.2041,
      "velocity": 92,
      "chip": "ym2612"
    },
    {
      "channel": 0,
      "note": 81,
      "start": 37.1951,
      "duration": 0.3999,
      "velocity": 81,
      "chip": "ym2612"
    },
    {
      "channel": 1,
      "note": 45,
      "start": 37.1962,
      "duration": 0.3999,
      "velocity": 74,
      "chip": "ym2612"
    },
    {
      "channel": 2,
      "note": 57,
      "start": 37.1972,
      "duration": 0.3999,
      "velocity": 106,
      "chip": "ym2612"
    },
    {
      "channel": 3,
      "note": 50,
      "start": 37.2022,
      "duration": 0.3959,
      "velocity": 74,
      "chip": "ym2612"
    },
    {
      "channel": 4,
      "note": 49,
      "start": 37.2033,
      "duration": 0.5954,
      "velocity": 92,
      "chip": "ym2612"
    },
    {
      "channel": 0,
      "note": 78,
      "start": 37.595,
      "duration": 0.2001,
      "velocity": 81,
      "chip": "ym2612"
    },
    {
      "channel": 1,
      "note": 42,
      "start": 37.5961,
      "duration": 0.2001,
      "velocity": 74,
      "chip": "ym2612"
    },
    {
      "channel": 2,
      "note": 54,
      "start": 37.5971,
      "duration": 0.2001,
      "velocity": 106,
      "chip": "ym2612"
    },
    {
      "channel": 3,
      "note": 49,
      "start": 37.5982,
      "duration": 0.2001,
      "velocity": 74,
      "chip": "ym2612"
    },
    {
      "channel": 0,
      "note": 86,
      "start": 37.7951,
      "duration": 0.3999,
      "velocity": 81,
      "chip": "ym2612"
    },
    {
      "channel": 1,
      "note": 38,
      "start": 37.7962,
      "duration": 0.3999,
      "velocity": 74,
      "chip": "ym2612"
    },
    {
      "channel": 2,
      "note": 62,
      "start": 37.7973,
      "duration": 0.3998,
      "velocity": 106,
      "chip": "ym2612"
    },
    {
      "channel": 3,
      "note": 50,
      "start": 37.7983,
      "duration": 0.3999,
      "velocity": 74,
      "chip": "ym2612"
    },
    {
      "channel": 4,
      "note": 30,
      "start": 37.8033,
      "duration": 0.6133,
      "velocity": 100,
      "chip": "ym2612"
    },
    {
      "channel": 0,
      "note": 85,
      "start": 38.195,
      "duration": 0.2,
      "velocity": 81,
      "chip": "ym2612"
    },
    {
      "channel": 1,
      "note": 49,
      "start": 38.1961,
      "duration": 0.2038,
      "velocity": 74,
      "chip": "ym2612"
    },
    {
      "channel": 2,
      "note": 61,
      "start": 38.1971,
      "duration": 0.2078,
      "velocity": 106,
      "chip": "ym2612"
    },
    {
      "channel": 3,
      "note": 49,
      "start": 38.1982,
      "duration": 0.2134,
      "velocity": 74,
      "chip": "ym2612"
    },
    {
      "channel": 0,
      "note": 35,
      "start": 38.3995,
      "duration": 0.595,
      "velocity": 92,
      "chip": "ym2612"
    },
    {
      "channel": 1,
      "note": 47,
      "start": 38.4045,
      "duration": 0.3915,
      "velocity": 95,
      "chip": "ym2612"
    },
    {
      "channel": 2,
      "note": 51,
      "start": 38.4112,
      "duration": 0.1856,
      "velocity": 116,
      "chip": "ym2612"
    },
    {
      "channel": 3,
      "note": 35,
      "start": 38.4162,
      "duration": 0.5854,
      "velocity": 122,
      "chip": "ym2612"
    },
    {
      "channel": 4,
      "note": 47,
      "start": 38.4212,
      "duration": 0.378,
      "velocity": 116,
      "chip": "ym2612"
    },
    {
      "channel": 2,
      "note": 52,
      "start": 38.5969,
      "duration": 0.2002,
      "velocity": 116,
      "chip": "ym2612"
    },
    {
      "channel": 1,
      "note": 54,
      "start": 38.7961,
      "duration": 0.2041,
      "velocity": 95,
      "chip": "ym2612"
    },
    {
      "channel": 2,
      "note": 54,
      "start": 38.7971,
      "duration": 0.2041,
      "velocity": 116,
      "chip": "ym2612"
    },
    {
      "channel": 4,
      "note": 46,
      "start": 38.7992,
      "duration": 0.2099,
      "velocity": 116,
      "chip": "ym2612"
    },
    {
      "channel": 0,
      "note": 47,
      "start": 38.9991,
      "duration": 0.5953,
      "velocity": 100,
      "chip": "ym2612"
    },
    {
      "channel": 1,
      "note": 55,
      "start": 39.0001,
      "duration": 0.3959,
      "velocity": 95,
      "chip": "ym2612"
    },
    {
      "channel": 2,
      "note": 54,
      "start": 39.0012,
      "duration": 0.3959,
      "velocity": 116,
      "chip": "ym2612"
    },
    {
      "channel": 3,
      "note": 35,
      "start": 39.0062,
      "duration": 0.5959,
      "velocity": 116,
      "chip": "ym2612"
    },
    {
      "channel": 4,
      "note": 47,
      "start": 39.0091,
      "duration": 0.5941,
      "velocity": 116,
      "chip": "ym2612"
    },
    {
      "channel": 1,
      "note": 55,
      "start": 39.3961,
      "duration": 0.2039,
      "velocity": 95,
      "chip": "ym2612"
    },
    {
      "channel": 2,
      "note": 59,
      "start": 39.3971,
      "duration": 0.8039,
      "velocity": 116,
      "chip": "ym2612"
    },
    {
      "channel": 0,
      "note": 42,
      "start": 39.599,
      "duration": 0.5954,
      "velocity": 92,
      "chip": "ym2612"
    },
    {
      "channel": 1,
      "note": 54,
      "start": 39.6,
      "duration": 1.5997,
      "velocity": 95,
      "chip": "ym2612"
    },
    {
      "channel": 3,
      "note": 34,
      "start": 39.6022,
      "duration": 2.3956,
      "velocity": 116,
      "chip": "ym2612"
    },
    {
      "channel": 4,
      "note": 46,
      "start": 39.6032,
      "duration": 0.3959,
      "velocity": 116,
      "chip": "ym2612"
    },
    {
      "channel": 4,
      "note": 45,
      "start": 39.9991,
      "duration": 0.2041,
      "velocity": 116,
      "chip": "ym2612"
    },
    {
      "channel": 0,
      "note": 34,
      "start": 40.199,
      "duration": 0.9957,
      "velocity": 103,
      "chip": "ym2612"
    },
    {
      "channel": 2,
      "note": 57,
      "start": 40.2011,
      "duration": 0.1959,
      "velocity": 116,
      "chip": "ym2612"
    },
    {
      "channel": 4,
      "note": 46,
      "start": 40.2032,
      "duration": 1.0092,
      "velocity": 116,
      "chip": "ym2612"
    },
    {
      "channel": 2,
      "note": 56,
      "start": 40.397,
      "duration": 0.2,
      "velocity": 116,
      "chip": "ym2612"
    },
    {
      "channel": 2,
      "note": 52,
      "start": 40.597,
      "duration": 0.2,
      "velocity": 116,
      "chip": "ym2612"
    },
    {
      "channel": 2,
      "note": 51,
      "start": 40.797,
      "duration": 0.2001,
      "velocity": 116,
      "chip": "ym2612"
    },
    {
      "channel": 2,
      "note": 51,
      "start": 40.9971,
      "duration": 0.2075,
      "velocity": 116,
      "chip": "ym2612"
    },
    {
      "channel": 0,
      "note": 78,
      "start": 41.1993,
      "duration": 0.1957,
      "velocity": 81,
      "chip": "ym2612"
    },
    {
      "channel": 1,
      "note": 58,
      "start": 41.2043,
      "duration": 0.1919,
      "velocity": 74,
      "chip": "ym2612"
    },
    {
      "channel": 2,
      "note": 66,
      "start": 41.211,
      "duration": 0.1861,
      "velocity": 106,
      "chip": "ym2612"
    },
    {
      "channel": 4,
      "note": 42,
      "start": 41.2171,
      "duration": 0.5817,
      "velocity": 103,
      "chip": "ym2612"
    },
    {
      "channel": 0,
      "note": 80,
      "start": 41.395,
      "duration": 0.4001,
      "velocity": 81,
      "chip": "ym2612"
    },
    {
      "channel": 1,
      "note": 44,
      "start": 41.3961,
      "duration": 0.4001,
      "velocity": 74,
      "chip": "ym2612"
    },
    {
      "channel": 2,
      "note": 68,
      "start": 41.3971,
      "duration": 0.4001,
      "velocity": 106,
      "chip": "ym2612"
    },
    {
      "channel": 0,
      "note": 78,
      "start": 41.7952,
      "duration": 0.2,
      "velocity": 81,
      "chip": "ym2612"
    },
    {
      "channel": 1,
      "note": 42,
      "start": 41.7963,
      "duration": 0.2,
      "velocity": 74,
      "chip": "ym2612"
    },
    {
      "channel": 2,
      "note": 66,
      "start": 41.7973,
      "duration": 0.1999,
      "velocity": 106,
      "chip": "ym2612"
    },
    {
      "channel": 4,
      "note": 54,
      "start": 41.8034,
      "duration": 0.1993,
      "velocity": 92,
      "chip": "ym2612"
    },
    {
      "channel": 0,
      "note": 81,
      "start": 41.9952,
      "duration": 0.3997,
      "velocity": 81,
      "chip": "ym2612"
    },
    {
      "channel": 1,
      "note": 45,
      "start": 41.9963,
      "duration": 0.3997,
      "velocity": 74,
      "chip": "ym2612"
    },
    {
      "channel": 2,
      "note": 69,
      "start": 41.9973,
      "duration": 0.3997,
      "velocity": 106,
      "chip": "ym2612"
    },
    {
      "channel": 3,
      "note": 50,
      "start": 42.0024,
      "duration": 0.3957,
      "velocity": 74,
      "chip": "ym2612"
    },
    {
      "channel": 4,
      "note": 52,
      "start": 42.0092,
      "duration": 0.59,
      "velocity": 103,
      "chip": "ym2612"
    },
    {
      "channel": 0,
      "note": 78,
      "start": 42.3949,
      "duration": 0.2001,
      "velocity": 81,
      "chip": "ym2612"
    },
    {
      "channel": 1,
      "note": 42,
      "start": 42.396,
      "duration": 0.2001,
      "velocity": 74,
      "chip": "ym2612"
    },
    {
      "channel": 2,
      "note": 66,
      "start": 42.3971,
      "duration": 0.2001,
      "velocity": 106,
      "chip": "ym2612"
    },
    {
      "channel": 3,
      "note": 49,
      "start": 42.3981,
      "duration": 0.2001,
      "velocity": 74,
      "chip": "ym2612"
    },
    {
      "channel": 0,
      "note": 82,
      "start": 42.5951,
      "duration": 0.4,
      "velocity": 81,
      "chip": "ym2612"
    },
    {
      "channel": 1,
      "note": 46,
      "start": 42.5961,
      "duration": 0.4,
      "velocity": 74,
      "chip": "ym2612"
    },
    {
      "channel": 2,
      "note": 70,
      "start": 42.5972,
      "duration": 0.3993,
      "velocity": 106,
      "chip": "ym2612"
    },
    {
      "channel": 3,
      "note": 50,
      "start": 42.5982,
      "duration": 0.4039,
      "velocity": 74,
      "chip": "ym2612"
    },
    {
      "channel": 4,
      "note": 52,
      "start": 42.5992,
      "duration": 0.4034,
      "velocity": 103,
      "chip": "ym2612"
    },
    {
      "channel": 0,
      "note": 85,
      "start": 42.9951,
      "duration": 0.1997,
      "velocity": 81,
      "chip": "ym2612"
    },
    {
      "channel": 1,
      "note": 49,
      "start": 42.9961,
      "duration": 0.2036,
      "velocity": 74,
      "chip": "ym2612"
    },
    {
      "channel": 2,
      "note": 56,
      "start": 43.0012,
      "duration": 0.2042,
      "velocity": 116,
      "chip": "ym2612"
    },
    {
      "channel": 3,
      "note": 49,
      "start": 43.0022,
      "duration": 0.2036,
      "velocity": 74,
      "chip": "ym2612"
    },
    {
      "channel": 4,
      "note": 54,
      "start": 43.0091,
      "duration": 0.2032,
      "velocity": 92,
      "chip": "ym2612"
    },
    {
      "channel": 0,
      "note": 35,
      "start": 43.1993,
      "duration": 0.5952,
      "velocity": 92,
      "chip": "ym2612"
    },
    {
      "channel": 1,
      "note": 49,
      "start": 43.2043,
      "duration": 0.3917,
      "velocity": 95,
      "chip": "ym2612"
    },
    {
      "channel": 2,
      "note": 57,
      "start": 43.2054,
      "duration": 0.1915,
      "velocity": 116,
      "chip": "ym2612"
    },
    {
      "channel": 3,
      "note": 33,
      "start": 43.212,
      "duration": 0.5895,
      "velocity": 122,
      "chip": "ym2612"
    },
    {
      "channel": 4,
      "note": 45,
      "start": 43.217,
      "duration": 0.3822,
      "velocity": 116,
      "chip": "ym2612"
    },
    {
      "channel": 2,
      "note": 57,
      "start": 43.3968,
      "duration": 0.2002,
      "velocity": 116,
      "chip": "ym2612"
    },
    {
      "channel": 1,
      "note": 52,
      "start": 43.596,
      "duration": 0.2041,
      "velocity": 95,
      "chip": "ym2612"
    },
    {
      "channel": 2,
      "note": 57,
      "start": 43.5971,
      "duration": 0.6,
      "velocity": 116,
      "chip": "ym2612"
    },
    {
      "channel": 4,
      "note": 44,
      "start": 43.5992,
      "duration": 0.2098,
      "velocity": 116,
      "chip": "ym2612"
    },
    {
      "channel": 0,
      "note": 45,
      "start": 43.799,
      "duration": 0.5954,
      "velocity": 100,
      "chip": "ym2612"
    },
    {
      "channel": 1,
      "note": 54,
      "start": 43.8001,
      "duration": 0.3959,
      "velocity": 95,
      "chip": "ym2612"
    },
    {
      "channel": 3,
      "note": 33,
      "start": 43.8062,
      "duration": 0.5961,
      "velocity": 116,
      "chip": "ym2612"
    },
    {
      "channel": 4,
      "note": 45,
      "start": 43.8091,
      "duration": 0.5941,
      "velocity": 116,
      "chip": "ym2612"
    },
    {
      "channel": 1,
      "note": 55,
      "start": 44.196,
      "duration": 0.2041,
      "velocity": 95,
      "chip": "ym2612"
    },
    {
      "channel": 2,
      "note": 56,
      "start": 44.1971,
      "duration": 0.3998,
      "velocity": 116,
      "chip": "ym2612"
    },
    {
      "channel": 0,
      "note": 42,
      "start": 44.399,
      "duration": 0.5954,
      "velocity": 92,
      "chip": "ym2612"
    },
    {
      "channel": 1,
      "note": 54,
      "start": 44.4001,
      "duration": 1.5996,
      "velocity": 95,
      "chip": "ym2612"
    },
    {
      "channel": 3,
      "note": 33,
      "start": 44.4022,
      "duration": 2.3954,
      "velocity": 116,
      "chip": "ym2612"
    },
    {
      "channel": 4,
      "note": 46,
      "start": 44.4032,
      "duration": 0.3959,
      "velocity": 116,
      "chip": "ym2612"
    },
    {
      "channel": 2,
      "note": 57,
      "start": 44.5968,
      "duration": 0.2002,
      "velocity": 116,
      "chip": "ym2612"
    },
    {
      "channel": 2,
      "note": 57,
      "start": 44.7971,
      "duration": 0.2041,
      "velocity": 116,
      "chip": "ym2612"
    },
    {
      "channel": 4,
      "note": 45,
      "start": 44.7992,
      "duration": 0.2041,
      "velocity": 116,
      "chip": "ym2612"
    },
    {
      "channel": 0,
      "note": 34,
      "start": 44.9991,
      "duration": 0.9957,
      "velocity": 103,
      "chip": "ym2612"
    },
    {
      "channel": 2,
      "note": 62,
      "start": 45.0012,
      "duration": 0.1958,
      "velocity": 116,
      "chip": "ym2612"
    },
    {
      "channel": 4,
      "note": 46,
      "start": 45.0033,
      "duration": 1.0092,
      "velocity": 116,
      "chip": "ym2612"
    },
    {
      "channel": 2,
      "note": 61,
      "start": 45.1969,
      "duration": 0.2001,
      "velocity": 116,
      "chip": "ym2612"
    },
    {
      "channel": 2,
      "note": 58,
      "start": 45.3971,
      "duration": 0.1999,
      "velocity": 116,
      "chip": "ym2612"
    },
    {
      "channel": 2,
      "note": 56,
      "start": 45.5969,
      "duration": 0.2,
      "velocity": 116,
      "chip": "ym2612"
    },
    {
      "channel": 2,
      "note": 54,
      "start": 45.7969,
      "duration": 0.2078,
      "velocity": 116,
      "chip": "ym2612"
    },
    {
      "channel": 0,
      "note": 78,
      "start": 45.9994,
      "duration": 0.1957,
      "velocity": 81,
      "chip": "ym2612"
    },
    {
      "channel": 1,
      "note": 58,
      "start": 46.0044,
      "duration": 0.1918,
      "velocity": 74,
      "chip": "ym2612"
    },
    {
      "channel": 2,
      "note": 66,
      "start": 46.0111,
      "duration": 0.1861,
      "velocity": 106,
      "chip": "ym2612"
    },
    {
      "channel": 4,
      "note": 56,
      "start": 46.0171,
      "duration": 0.1822,
      "velocity": 92,
      "chip": "ym2612"
    },
    {
      "channel": 0,
      "note": 80,
      "start": 46.1951,
      "duration": 0.3999,
      "velocity": 81,
      "chip": "ym2612"
    },
    {
      "channel": 1,
      "note": 44,
      "start": 46.1962,
      "duration": 0.3999,
      "velocity": 74,
      "chip": "ym2612"
    },
    {
      "channel": 2,
      "note": 68,
      "start": 46.1973,
      "duration": 0.3998,
      "velocity": 106,
      "chip": "ym2612"
    },
    {
      "channel": 4,
      "note": 54,
      "start": 46.1994,
      "duration": 0.3998,
      "velocity": 92,
      "chip": "ym2612"
    },
    {
      "channel": 0,
      "note": 78,
      "start": 46.595,
      "duration": 0.2001,
      "velocity": 81,
      "chip": "ym2612"
    },
    {
      "channel": 1,
      "note": 42,
      "start": 46.5961,
      "duration": 0.2001,
      "velocity": 74,
      "chip": "ym2612"
    },
    {
      "channel": 2,
      "note": 66,
      "start": 46.5971,
      "duration": 0.2001,
      "velocity": 106,
      "chip": "ym2612"
    },
    {
      "channel": 4,
      "note": 52,
      "start": 46.5992,
      "duration": 0.2041,
      "velocity": 92,
      "chip": "ym2612"
    },
    {
      "channel": 0,
      "note": 81,
      "start": 46.7952,
      "duration": 0.3998,
      "velocity": 81,
      "chip": "ym2612"
    },
    {
      "channel": 1,
      "note": 45,
      "start": 46.7962,
      "duration": 0.3999,
      "velocity": 74,
      "chip": "ym2612"
    },
    {
      "channel": 2,
      "note": 69,
      "start": 46.7973,
      "duration": 0.3998,
      "velocity": 106,
      "chip": "ym2612"
    },
    {
      "channel": 3,
      "note": 50,
      "start": 46.8023,
      "duration": 0.3959,
      "velocity": 74,
      "chip": "ym2612"
    },
    {
      "channel": 4,
      "note": 49,
      "start": 46.8033,
      "duration": 0.5954,
      "velocity": 92,
      "chip": "ym2612"
    },
    {
      "channel": 0,
      "note": 78,
      "start": 47.195,
      "duration": 0.2001,
      "velocity": 81,
      "chip": "ym2612"
    },
    {
      "channel": 1,
      "note": 42,
      "start": 47.1961,
      "duration": 0.2001,
      "velocity": 74,
      "chip": "ym2612"
    },
    {
      "channel": 2,
      "note": 66,
      "start": 47.1971,
      "duration": 0.2001,
      "velocity": 106,
      "chip": "ym2612"
    },
    {
      "channel": 3,
      "note": 49,
      "start": 47.1982,
      "duration": 0.2001,
      "velocity": 74,
      "chip": "ym2612"
    },
    {
      "channel": 0,
      "note": 86,
      "start": 47.3952,
      "duration": 0.3999,
      "velocity": 81,
      "chip": "ym2612"
    },
    {
      "channel": 1,
      "note": 50,
      "start": 47.3962,
      "duration": 0.3999,
      "velocity": 74,
      "chip": "ym2612"
    },
    {
      "channel": 2,
      "note": 74,
      "start": 47.3973,
      "duration": 0.3999,
      "velocity": 106,
      "chip": "ym2612"
    },
    {
      "channel": 3,
      "note": 50,
      "start": 47.3983,
      "duration": 0.3999,
      "velocity": 74,
      "chip": "ym2612"
    },
    {
      "channel": 4,
      "note": 30,
      "start": 47.4033,
      "duration": 0.6058,
      "velocity": 100,
      "chip": "ym2612"
    },
    {
      "channel": 0,
      "note": 85,
      "start": 47.795,
      "duration": 0.2006,
      "velocity": 81,
      "chip": "ym2612"
    },
    {
      "channel": 1,
      "note": 49,
      "start": 47.7961,
      "duration": 0.2,
      "velocity": 74,
      "chip": "ym2612"
    },
    {
      "channel": 2,
      "note": 73,
      "start": 47.7971,
      "duration": 0.2039,
      "velocity": 106,
      "chip": "ym2612"
    },
    {
      "channel": 3,
      "note": 49,
      "start": 47.7982,
      "duration": 0.2087,
      "velocity": 74,
      "chip": "ym2612"
    },
    {
      "channel": 0,
      "note": 85,
      "start": 47.9957,
      "duration": 0.3994,
      "velocity": 81,
      "chip": "ym2612"
    },
    {
      "channel": 1,
      "note": 45,
      "start": 48.0007,
      "duration": 0.3954,
      "velocity": 95,
      "chip": "ym2612"
    },
    {
      "channel": 2,
      "note": 60,
      "start": 48.0057,
      "duration": 0.3914,
      "velocity": 83,
      "chip": "ym2612"
    },
    {
      "channel": 3,
      "note": 40,
      "start": 48.0069,
      "duration": 0.3913,
      "velocity": 74,
      "chip": "ym2612"
    },
    {
      "channel": 4,
      "note": 55,
      "start": 48.0135,
      "duration": 0.5857,
      "velocity": 103,
      "chip": "ym2612"
    },
    {
      "channel": 0,
      "note": 86,
      "start": 48.395,
      "duration": 0.2,
      "velocity": 81,
      "chip": "ym2612"
    },
    {
      "channel": 1,
      "note": 46,
      "start": 48.3961,
      "duration": 0.2,
      "velocity": 95,
      "chip": "ym2612"
    },
    {
      "channel": 2,
      "note": 60,
      "start": 48.3971,
      "duration": 0.2,
      "velocity": 83,
      "chip": "ym2612"
    },
    {
      "channel": 3,
      "note": 41,
      "start": 48.3982,
      "duration": 0.1999,
      "velocity": 74,
      "chip": "ym2612"
    },
    {
      "channel": 0,
      "note": 87,
      "start": 48.595,
      "duration": 0.3999,
      "velocity": 81,
      "chip": "ym2612"
    },
    {
      "channel": 1,
      "note": 47,
      "start": 48.5961,
      "duration": 0.5994,
      "velocity": 95,
      "chip": "ym2612"
    },
    {
      "channel": 2,
      "note": 62,
      "start": 48.5971,
      "duration": 0.3999,
      "velocity": 83,
      "chip": "ym2612"
    },
    {
      "channel": 3,
      "note": 42,
      "start": 48.5982,
      "duration": 0.6034,
      "velocity": 74,
      "chip": "ym2612"
    },
    {
      "channel": 4,
      "note": 54,
      "start": 48.5992,
      "duration": 0.6099,
      "velocity": 103,
      "chip": "ym2612"
    },
    {
      "channel": 0,
      "note": 89,
      "start": 48.9949,
      "duration": 0.2002,
      "velocity": 81,
      "chip": "ym2612"
    },
    {
      "channel": 2,
      "note": 65,
      "start": 48.997,
      "duration": 0.2042,
      "velocity": 83,
      "chip": "ym2612"
    },
    {
      "channel": 0,
      "note": 86,
      "start": 49.1952,
      "duration": 0.5999,
      "velocity": 81,
      "chip": "ym2612"
    },
    {
      "channel": 1,
      "note": 36,
      "start": 49.2002,
      "duration": 0.5959,
      "velocity": 100,
      "chip": "ym2612"
    },
    {
      "channel": 2,
      "note": 58,
      "start": 49.2012,
      "duration": 0.5959,
      "velocity": 83,
      "chip": "ym2612"
    },
    {
      "channel": 3,
      "note": 40,
      "start": 49.2062,
      "duration": 0.2915,
      "velocity": 103,
      "chip": "ym2612"
    },
    {
      "channel": 4,
      "note": 53,
      "start": 49.2091,
      "duration": 0.5901,
      "velocity": 103,
      "chip": "ym2612"
    },
    {
      "channel": 3,
      "note": 41,
      "start": 49.598,
      "duration": 0.2003,
      "velocity": 103,
      "chip": "ym2612"
    },
    {
      "channel": 0,
      "note": 82,
      "start": 49.795,
      "duration": 0.3999,
      "velocity": 81,
      "chip": "ym2612"
    },
    {
      "channel": 1,
      "note": 38,
      "start": 49.7961,
      "duration": 0.5995,
      "velocity": 100,
      "chip": "ym2612"
    },
    {
      "channel": 2,
      "note": 57,
      "start": 49.7971,
      "duration": 0.3998,
      "velocity": 83,
      "chip": "ym2612"
    },
    {
      "channel": 3,
      "note": 42,
      "start": 49.7982,
      "duration": 0.2995,
      "velocity": 103,
      "chip": "ym2612"
    },
    {
      "channel": 4,
      "note": 52,
      "start": 49.7993,
      "duration": 0.602,
      "velocity": 103,
      "chip": "ym2612"
    },
    {
      "channel": 0,
      "note": 83,
      "start": 50.1949,
      "duration": 0.2002,
      "velocity": 81,
      "chip": "ym2612"
    },
    {
      "channel": 2,
      "note": 57,
      "start": 50.1969,
      "duration": 0.2044,
      "velocity": 83,
      "chip": "ym2612"
    },
    {
      "channel": 0,
      "note": 84,
      "start": 50.3952,
      "duration": 0.006,
      "velocity": 81,
      "chip": "ym2612"
    },
    {
      "channel": 1,
      "note": 39,
      "start": 50.4002,
      "duration": 0.001,
      "velocity": 92,
      "chip": "ym2612"
    }
  ]
}