{
  "track_name": "20 - Southwest Asian Horde",
  "duration_sec": 40.727,
  "sample_rate": 44100,
  "note_count": 907,
  "unique_pitches": 29,
  "pitch_range": 68,
  "avg_note_duration": 0.131,
  "reconstruction_stats": {
    "notes_reconstructed": 907,
    "keyon_events": 907,
    "keyoff_events": 904,
    "orphan_keyons": 3,
    "unique_pitches": 29,
    "pitch_range": 68,
    "avg_duration_sec": 0.131
  },
  "metadata": {
    "source": "G\\Genghis Khan II - Clan of the Grey Wolf\\20 - Southwest Asian Horde.vgz"
  },
  "notes": [
    {
      "channel": 0,
      "note": 59,
      "start": 0.0,
      "duration": 0.0,
      "velocity": 91,
      "chip": "ym2612"
    },
    {
      "channel": 0,
      "note": 64,
      "start": 0.0,
      "duration": 0.0,
      "velocity": 91,
      "chip": "ym2612"
    },
    {
      "channel": 1,
      "note": 64,
      "start": 0.0,
      "duration": 0.0,
      "velocity": 106,
      "chip": "ym2612"
    },
    {
      "channel": 2,
      "note": 23,
      "start": 0.0,
      "duration": 0.0,
      "velocity": 104,
      "chip": "ym2612"
    },
    {
      "channel": 3,
      "note": 66,
      "start": 0.0,
      "duration": 0.0,
      "velocity": 99,
      "chip": "ym2612"
    },
    {
      "channel": 3,
      "note": 67,
      "start": 0.0,
      "duration": 0.0,
      "velocity": 99,
      "chip": "ym2612"
    },
    {
      "channel": 0,
      "note": 61,
      "start": 0.0022,
      "duration": 0.1133,
      "velocity": 97,
      "chip": "ym2612"
    },
    {
      "channel": 1,
      "note": 54,
      "start": 0.0062,
      "duration": 0.1095,
      "velocity": 97,
      "chip": "ym2612"
    },
    {
      "channel": 2,
      "note": 42,
      "start": 0.0101,
      "duration": 0.1058,
      "velocity": 127,
      "chip": "ym2612"
    },
    {
      "channel": 0,
      "note": 61,
      "start": 0.2817,
      "duration": 0.112,
      "velocity": 97,
      "chip": "ym2612"
    },
    {
      "channel": 1,
      "note": 54,
      "start": 0.2823,
      "duration": 0.1159,
      "velocity": 97,
      "chip": "ym2612"
    },
    {
      "channel": 2,
      "note": 68,
      "start": 0.2862,
      "duration": 0.1121,
      "velocity": 120,
      "chip": "ym2612"
    },
    {
      "channel": 0,
      "note": 61,
      "start": 0.415,
      "duration": 0.233,
      "velocity": 97,
      "chip": "ym2612"
    },
    {
      "channel": 1,
      "note": 54,
      "start": 0.4156,
      "duration": 0.2326,
      "velocity": 97,
      "chip": "ym2612"
    },
    {
      "channel": 2,
      "note": 68,
      "start": 0.4162,
      "duration": 0.1153,
      "velocity": 120,
      "chip": "ym2612"
    },
    {
      "channel": 2,
      "note": 49,
      "start": 0.5528,
      "duration": 0.1121,
      "velocity": 127,
      "chip": "ym2612"
    },
    {
      "channel": 0,
      "note": 61,
      "start": 0.6826,
      "duration": 0.1163,
      "velocity": 97,
      "chip": "ym2612"
    },
    {
      "channel": 1,
      "note": 54,
      "start": 0.6831,
      "duration": 0.116,
      "velocity": 97,
      "chip": "ym2612"
    },
    {
      "channel": 0,
      "note": 61,
      "start": 0.8317,
      "duration": 0.1006,
      "velocity": 97,
      "chip": "ym2612"
    },
    {
      "channel": 1,
      "note": 54,
      "start": 0.8323,
      "duration": 0.1002,
      "velocity": 97,
      "chip": "ym2612"
    },
    {
      "channel": 2,
      "note": 68,
      "start": 0.8374,
      "duration": 0.0952,
      "velocity": 120,
      "chip": "ym2612"
    },
    {
      "channel": 0,
      "note": 61,
      "start": 0.965,
      "duration": 0.1163,
      "velocity": 97,
      "chip": "ym2612"
    },
    {
      "channel": 1,
      "note": 54,
      "start": 0.9656,
      "duration": 0.116,
      "velocity": 97,
      "chip": "ym2612"
    },
    {
      "channel": 2,
      "note": 68,
      "start": 0.9662,
      "duration": 0.1156,
      "velocity": 120,
      "chip": "ym2612"
    },
    {
      "channel": 0,
      "note": 61,
      "start": 1.0984,
      "duration": 0.233,
      "velocity": 97,
      "chip": "ym2612"
    },
    {
      "channel": 1,
      "note": 54,
      "start": 1.0992,
      "duration": 0.2324,
      "velocity": 97,
      "chip": "ym2612"
    },
    {
      "channel": 2,
      "note": 42,
      "start": 1.1031,
      "duration": 0.1118,
      "velocity": 127,
      "chip": "ym2612"
    },
    {
      "channel": 2,
      "note": 49,
      "start": 1.2322,
      "duration": 0.116,
      "velocity": 127,
      "chip": "ym2612"
    },
    {
      "channel": 0,
      "note": 61,
      "start": 1.3663,
      "duration": 0.1151,
      "velocity": 97,
      "chip": "ym2612"
    },
    {
      "channel": 1,
      "note": 54,
      "start": 1.367,
      "duration": 0.1146,
      "velocity": 97,
      "chip": "ym2612"
    },
    {
      "channel": 2,
      "note": 42,
      "start": 1.3676,
      "duration": 0.1141,
      "velocity": 127,
      "chip": "ym2612"
    },
    {
      "channel": 0,
      "note": 61,
      "start": 1.6484,
      "duration": 0.1006,
      "velocity": 97,
      "chip": "ym2612"
    },
    {
      "channel": 1,
      "note": 54,
      "start": 1.649,
      "duration": 0.1002,
      "velocity": 97,
      "chip": "ym2612"
    },
    {
      "channel": 2,
      "note": 68,
      "start": 1.6529,
      "duration": 0.0964,
      "velocity": 120,
      "chip": "ym2612"
    },
    {
      "channel": 0,
      "note": 61,
      "start": 1.7817,
      "duration": 0.2173,
      "velocity": 97,
      "chip": "ym2612"
    },
    {
      "channel": 1,
      "note": 54,
      "start": 1.7823,
      "duration": 0.2168,
      "velocity": 97,
      "chip": "ym2612"
    },
    {
      "channel": 2,
      "note": 68,
      "start": 1.7829,
      "duration": 0.1153,
      "velocity": 120,
      "chip": "ym2612"
    },
    {
      "channel": 2,
      "note": 49,
      "start": 1.9185,
      "duration": 0.113,
      "velocity": 127,
      "chip": "ym2612"
    },
    {
      "channel": 0,
      "note": 61,
      "start": 2.0484,
      "duration": 0.1163,
      "velocity": 97,
      "chip": "ym2612"
    },
    {
      "channel": 1,
      "note": 54,
      "start": 2.049,
      "duration": 0.116,
      "velocity": 97,
      "chip": "ym2612"
    },
    {
      "channel": 0,
      "note": 61,
      "start": 2.1825,
      "duration": 0.1155,
      "velocity": 97,
      "chip": "ym2612"
    },
    {
      "channel": 1,
      "note": 54,
      "start": 2.1831,
      "duration": 0.1151,
      "velocity": 97,
      "chip": "ym2612"
    },
    {
      "channel": 2,
      "note": 68,
      "start": 2.1871,
      "duration": 0.1114,
      "velocity": 120,
      "chip": "ym2612"
    },
    {
      "channel": 0,
      "note": 61,
      "start": 2.3159,
      "duration": 0.1167,
      "velocity": 97,
      "chip": "ym2612"
    },
    {
      "channel": 1,
      "note": 54,
      "start": 2.3164,
      "duration": 0.1163,
      "velocity": 97,
      "chip": "ym2612"
    },
    {
      "channel": 2,
      "note": 68,
      "start": 2.317,
      "duration": 0.1159,
      "velocity": 120,
      "chip": "ym2612"
    },
    {
      "channel": 0,
      "note": 61,
      "start": 2.465,
      "duration": 0.2173,
      "velocity": 97,
      "chip": "ym2612"
    },
    {
      "channel": 1,
      "note": 54,
      "start": 2.4656,
      "duration": 0.2168,
      "velocity": 97,
      "chip": "ym2612"
    },
    {
      "channel": 2,
      "note": 42,
      "start": 2.4695,
      "duration": 0.0965,
      "velocity": 127,
      "chip": "ym2612"
    },
    {
      "channel": 0,
      "note": 61,
      "start": 2.7318,
      "duration": 0.1163,
      "velocity": 97,
      "chip": "ym2612"
    },
    {
      "channel": 1,
      "note": 54,
      "start": 2.7325,
      "duration": 0.1158,
      "velocity": 97,
      "chip": "ym2612"
    },
    {
      "channel": 2,
      "note": 42,
      "start": 2.7365,
      "duration": 0.112,
      "velocity": 127,
      "chip": "ym2612"
    },
    {
      "channel": 3,
      "note": 78,
      "start": 2.7374,
      "duration": 0.1112,
      "velocity": 87,
      "chip": "ym2612"
    },
    {
      "channel": 3,
      "note": 80,
      "start": 2.8654,
      "duration": 0.1162,
      "velocity": 87,
      "chip": "ym2612"
    },
    {
      "channel": 0,
      "note": 61,
      "start": 2.9993,
      "duration": 0.1154,
      "velocity": 97,
      "chip": "ym2612"
    },
    {
      "channel": 1,
      "note": 54,
      "start": 2.9998,
      "duration": 0.1151,
      "velocity": 97,
      "chip": "ym2612"
    },
    {
      "channel": 2,
      "note": 68,
      "start": 3.0037,
      "duration": 0.1114,
      "velocity": 120,
      "chip": "ym2612"
    },
    {
      "channel": 3,
      "note": 82,
      "start": 3.0045,
      "duration": 0.1107,
      "velocity": 87,
      "chip": "ym2612"
    },
    {
      "channel": 0,
      "note": 61,
      "start": 3.1484,
      "duration": 0.2163,
      "velocity": 97,
      "chip": "ym2612"
    },
    {
      "channel": 1,
      "note": 54,
      "start": 3.149,
      "duration": 0.216,
      "velocity": 97,
      "chip": "ym2612"
    },
    {
      "channel": 2,
      "note": 68,
      "start": 3.1495,
      "duration": 0.0996,
      "velocity": 120,
      "chip": "ym2612"
    },
    {
      "channel": 3,
      "note": 84,
      "start": 3.1503,
      "duration": 0.099,
      "velocity": 87,
      "chip": "ym2612"
    },
    {
      "channel": 2,
      "note": 49,
      "start": 3.2852,
      "duration": 0.0972,
      "velocity": 127,
      "chip": "ym2612"
    },
    {
      "channel": 3,
      "note": 85,
      "start": 3.286,
      "duration": 0.0457,
      "velocity": 87,
      "chip": "ym2612"
    },
    {
      "channel": 3,
      "note": 87,
      "start": 3.3488,
      "duration": 0.0495,
      "velocity": 87,
      "chip": "ym2612"
    },
    {
      "channel": 0,
      "note": 61,
      "start": 3.415,
      "duration": 0.1163,
      "velocity": 97,
      "chip": "ym2612"
    },
    {
      "channel": 1,
      "note": 54,
      "start": 3.4156,
      "duration": 0.116,
      "velocity": 97,
      "chip": "ym2612"
    },
    {
      "channel": 3,
      "note": 85,
      "start": 3.4164,
      "duration": 0.1154,
      "velocity": 87,
      "chip": "ym2612"
    },
    {
      "channel": 0,
      "note": 61,
      "start": 3.5484,
      "duration": 0.1163,
      "velocity": 97,
      "chip": "ym2612"
    },
    {
      "channel": 1,
      "note": 54,
      "start": 3.549,
      "duration": 0.116,
      "velocity": 97,
      "chip": "ym2612"
    },
    {
      "channel": 2,
      "note": 68,
      "start": 3.5529,
      "duration": 0.1122,
      "velocity": 120,
      "chip": "ym2612"
    },
    {
      "channel": 3,
      "note": 85,
      "start": 3.5535,
      "duration": 0.1118,
      "velocity": 87,
      "chip": "ym2612"
    },
    {
      "channel": 0,
      "note": 61,
      "start": 3.6825,
      "duration": 0.1155,
      "velocity": 97,
      "chip": "ym2612"
    },
    {
      "channel": 1,
      "note": 54,
      "start": 3.6831,
      "duration": 0.1151,
      "velocity": 97,
      "chip": "ym2612"
    },
    {
      "channel": 2,
      "note": 68,
      "start": 3.6837,
      "duration": 0.1148,
      "velocity": 120,
      "chip": "ym2612"
    },
    {
      "channel": 3,
      "note": 90,
      "start": 3.6844,
      "duration": 0.1141,
      "velocity": 87,
      "chip": "ym2612"
    },
    {
      "channel": 0,
      "note": 61,
      "start": 3.8159,
      "duration": 0.2321,
      "velocity": 97,
      "chip": "ym2612"
    },
    {
      "channel": 1,
      "note": 54,
      "start": 3.8164,
      "duration": 0.2318,
      "velocity": 97,
      "chip": "ym2612"
    },
    {
      "channel": 2,
      "note": 42,
      "start": 3.8204,
      "duration": 0.1121,
      "velocity": 127,
      "chip": "ym2612"
    },
    {
      "channel": 3,
      "note": 85,
      "start": 3.8212,
      "duration": 0.1115,
      "velocity": 87,
      "chip": "ym2612"
    },
    {
      "channel": 2,
      "note": 49,
      "start": 3.9656,
      "duration": 0.1002,
      "velocity": 127,
      "chip": "ym2612"
    },
    {
      "channel": 3,
      "note": 84,
      "start": 3.9663,
      "duration": 0.0996,
      "velocity": 87,
      "chip": "ym2612"
    },
    {
      "channel": 0,
      "note": 61,
      "start": 4.0985,
      "duration": 0.1162,
      "velocity": 97,
      "chip": "ym2612"
    },
    {
      "channel": 1,
      "note": 54,
      "start": 4.0994,
      "duration": 0.1155,
      "velocity": 97,
      "chip": "ym2612"
    },
    {
      "channel": 2,
      "note": 42,
      "start": 4.1001,
      "duration": 0.115,
      "velocity": 127,
      "chip": "ym2612"
    },
    {
      "channel": 3,
      "note": 82,
      "start": 4.1009,
      "duration": 0.1144,
      "velocity": 87,
      "chip": "ym2612"
    },
    {
      "channel": 0,
      "note": 61,
      "start": 4.365,
      "duration": 0.1163,
      "velocity": 97,
      "chip": "ym2612"
    },
    {
      "channel": 1,
      "note": 54,
      "start": 4.3659,
      "duration": 0.1157,
      "velocity": 97,
      "chip": "ym2612"
    },
    {
      "channel": 2,
      "note": 68,
      "start": 4.3698,
      "duration": 0.112,
      "velocity": 120,
      "chip": "ym2612"
    },
    {
      "channel": 3,
      "note": 82,
      "start": 4.3704,
      "duration": 0.1115,
      "velocity": 87,
      "chip": "ym2612"
    },
    {
      "channel": 0,
      "note": 61,
      "start": 4.4995,
      "duration": 0.2319,
      "velocity": 97,
      "chip": "ym2612"
    },
    {
      "channel": 1,
      "note": 54,
      "start": 4.5,
      "duration": 0.2316,
      "velocity": 97,
      "chip": "ym2612"
    },
    {
      "channel": 2,
      "note": 68,
      "start": 4.5006,
      "duration": 0.1142,
      "velocity": 120,
      "chip": "ym2612"
    },
    {
      "channel": 3,
      "note": 82,
      "start": 4.5012,
      "duration": 0.1138,
      "velocity": 87,
      "chip": "ym2612"
    },
    {
      "channel": 2,
      "note": 49,
      "start": 4.6363,
      "duration": 0.1128,
      "velocity": 127,
      "chip": "ym2612"
    },
    {
      "channel": 3,
      "note": 84,
      "start": 4.6371,
      "duration": 0.0613,
      "velocity": 87,
      "chip": "ym2612"
    },
    {
      "channel": 3,
      "note": 85,
      "start": 4.7154,
      "duration": 0.0495,
      "velocity": 87,
      "chip": "ym2612"
    },
    {
      "channel": 0,
      "note": 61,
      "start": 4.7817,
      "duration": 0.1006,
      "velocity": 97,
      "chip": "ym2612"
    },
    {
      "channel": 1,
      "note": 54,
      "start": 4.7823,
      "duration": 0.1002,
      "velocity": 97,
      "chip": "ym2612"
    },
    {
      "channel": 3,
      "note": 84,
      "start": 4.7831,
      "duration": 0.0996,
      "velocity": 87,
      "chip": "ym2612"
    },
    {
      "channel": 0,
      "note": 61,
      "start": 4.915,
      "duration": 0.1163,
      "velocity": 97,
      "chip": "ym2612"
    },
    {
      "channel": 1,
      "note": 54,
      "start": 4.9156,
      "duration": 0.116,
      "velocity": 97,
      "chip": "ym2612"
    },
    {
      "channel": 2,
      "note": 68,
      "start": 4.9196,
      "duration": 0.1122,
      "velocity": 120,
      "chip": "ym2612"
    },
    {
      "channel": 3,
      "note": 82,
      "start": 4.9202,
      "duration": 0.112,
      "velocity": 87,
      "chip": "ym2612"
    },
    {
      "channel": 0,
      "note": 61,
      "start": 5.0484,
      "duration": 0.1163,
      "velocity": 97,
      "chip": "ym2612"
    },
    {
      "channel": 1,
      "note": 54,
      "start": 5.049,
      "duration": 0.116,
      "velocity": 97,
      "chip": "ym2612"
    },
    {
      "channel": 2,
      "note": 68,
      "start": 5.0495,
      "duration": 0.1156,
      "velocity": 120,
      "chip": "ym2612"
    },
    {
      "channel": 3,
      "note": 80,
      "start": 5.0502,
      "duration": 0.1153,
      "velocity": 87,
      "chip": "ym2612"
    },
    {
      "channel": 0,
      "note": 61,
      "start": 5.1817,
      "duration": 0.233,
      "velocity": 97,
      "chip": "ym2612"
    },
    {
      "channel": 1,
      "note": 54,
      "start": 5.1823,
      "duration": 0.2326,
      "velocity": 97,
      "chip": "ym2612"
    },
    {
      "channel": 2,
      "note": 42,
      "start": 5.1862,
      "duration": 0.112,
      "velocity": 127,
      "chip": "ym2612"
    },
    {
      "channel": 3,
      "note": 82,
      "start": 5.1869,
      "duration": 0.2447,
      "velocity": 87,
      "chip": "ym2612"
    },
    {
      "channel": 0,
      "note": 61,
      "start": 5.4493,
      "duration": 0.1166,
      "velocity": 97,
      "chip": "ym2612"
    },
    {
      "channel": 1,
      "note": 54,
      "start": 5.45,
      "duration": 0.116,
      "velocity": 97,
      "chip": "ym2612"
    },
    {
      "channel": 2,
      "note": 42,
      "start": 5.454,
      "duration": 0.1123,
      "velocity": 127,
      "chip": "ym2612"
    },
    {
      "channel": 3,
      "note": 78,
      "start": 5.4549,
      "duration": 0.1116,
      "velocity": 87,
      "chip": "ym2612"
    },
    {
      "channel": 3,
      "note": 80,
      "start": 5.5988,
      "duration": 0.1006,
      "velocity": 87,
      "chip": "ym2612"
    },
    {
      "channel": 0,
      "note": 61,
      "start": 5.7317,
      "duration": 0.1163,
      "velocity": 97,
      "chip": "ym2612"
    },
    {
      "channel": 1,
      "note": 54,
      "start": 5.7323,
      "duration": 0.116,
      "velocity": 97,
      "chip": "ym2612"
    },
    {
      "channel": 2,
      "note": 68,
      "start": 5.7362,
      "duration": 0.1122,
      "velocity": 120,
      "chip": "ym2612"
    },
    {
      "channel": 3,
      "note": 82,
      "start": 5.7369,
      "duration": 0.1117,
      "velocity": 87,
      "chip": "ym2612"
    },
    {
      "channel": 0,
      "note": 61,
      "start": 5.865,
      "duration": 0.233,
      "velocity": 97,
      "chip": "ym2612"
    },
    {
      "channel": 1,
      "note": 54,
      "start": 5.8656,
      "duration": 0.2326,
      "velocity": 97,
      "chip": "ym2612"
    },
    {
      "channel": 2,
      "note": 68,
      "start": 5.8662,
      "duration": 0.1154,
      "velocity": 120,
      "chip": "ym2612"
    },
    {
      "channel": 3,
      "note": 84,
      "start": 5.8669,
      "duration": 0.1148,
      "velocity": 87,
      "chip": "ym2612"
    },
    {
      "channel": 2,
      "note": 49,
      "start": 6.0019,
      "duration": 0.113,
      "velocity": 127,
      "chip": "ym2612"
    },
    {
      "channel": 3,
      "note": 85,
      "start": 6.0026,
      "duration": 0.0624,
      "velocity": 87,
      "chip": "ym2612"
    },
    {
      "channel": 3,
      "note": 87,
      "start": 6.0664,
      "duration": 0.0651,
      "velocity": 87,
      "chip": "ym2612"
    },
    {
      "channel": 0,
      "note": 61,
      "start": 6.1327,
      "duration": 0.1154,
      "velocity": 97,
      "chip": "ym2612"
    },
    {
      "channel": 1,
      "note": 54,
      "start": 6.1332,
      "duration": 0.115,
      "velocity": 97,
      "chip": "ym2612"
    },
    {
      "channel": 3,
      "note": 85,
      "start": 6.1341,
      "duration": 0.1144,
      "velocity": 87,
      "chip": "ym2612"
    },
    {
      "channel": 0,
      "note": 61,
      "start": 6.2817,
      "duration": 0.1006,
      "velocity": 97,
      "chip": "ym2612"
    },
    {
      "channel": 1,
      "note": 54,
      "start": 6.2823,
      "duration": 0.1002,
      "velocity": 97,
      "chip": "ym2612"
    },
    {
      "channel": 2,
      "note": 68,
      "start": 6.2862,
      "duration": 0.0964,
      "velocity": 120,
      "chip": "ym2612"
    },
    {
      "channel": 3,
      "note": 85,
      "start": 6.2868,
      "duration": 0.0961,
      "velocity": 87,
      "chip": "ym2612"
    },
    {
      "channel": 0,
      "note": 61,
      "start": 6.415,
      "duration": 0.1006,
      "velocity": 97,
      "chip": "ym2612"
    },
    {
      "channel": 1,
      "note": 54,
      "start": 6.4156,
      "duration": 0.1002,
      "velocity": 97,
      "chip": "ym2612"
    },
    {
      "channel": 2,
      "note": 68,
      "start": 6.4162,
      "duration": 0.0998,
      "velocity": 120,
      "chip": "ym2612"
    },
    {
      "channel": 3,
      "note": 90,
      "start": 6.4169,
      "duration": 0.0993,
      "velocity": 87,
      "chip": "ym2612"
    },
    {
      "channel": 0,
      "note": 61,
      "start": 6.5484,
      "duration": 0.2175,
      "velocity": 97,
      "chip": "ym2612"
    },
    {
      "channel": 1,
      "note": 54,
      "start": 6.549,
      "duration": 0.2171,
      "velocity": 97,
      "chip": "ym2612"
    },
    {
      "channel": 2,
      "note": 42,
      "start": 6.5528,
      "duration": 0.1121,
      "velocity": 127,
      "chip": "ym2612"
    },
    {
      "channel": 3,
      "note": 85,
      "start": 6.5536,
      "duration": 0.1115,
      "velocity": 87,
      "chip": "ym2612"
    },
    {
      "channel": 2,
      "note": 49,
      "start": 6.682,
      "duration": 0.1162,
      "velocity": 127,
      "chip": "ym2612"
    },
    {
      "channel": 3,
      "note": 84,
      "start": 6.6827,
      "duration": 0.1156,
      "velocity": 87,
      "chip": "ym2612"
    },
    {
      "channel": 0,
      "note": 61,
      "start": 6.816,
      "duration": 0.1154,
      "velocity": 97,
      "chip": "ym2612"
    },
    {
      "channel": 1,
      "note": 54,
      "start": 6.8167,
      "duration": 0.1149,
      "velocity": 97,
      "chip": "ym2612"
    },
    {
      "channel": 2,
      "note": 42,
      "start": 6.8174,
      "duration": 0.1144,
      "velocity": 127,
      "chip": "ym2612"
    },
    {
      "channel": 3,
      "note": 82,
      "start": 6.8181,
      "duration": 0.1138,
      "velocity": 87,
      "chip": "ym2612"
    },
    {
      "channel": 0,
      "note": 61,
      "start": 7.0984,
      "duration": 0.1006,
      "velocity": 97,
      "chip": "ym2612"
    },
    {
      "channel": 1,
      "note": 54,
      "start": 7.0992,
      "duration": 0.0999,
      "velocity": 97,
      "chip": "ym2612"
    },
    {
      "channel": 2,
      "note": 68,
      "start": 7.1032,
      "duration": 0.0962,
      "velocity": 120,
      "chip": "ym2612"
    },
    {
      "channel": 3,
      "note": 82,
      "start": 7.1037,
      "duration": 0.0958,
      "velocity": 87,
      "chip": "ym2612"
    },
    {
      "channel": 0,
      "note": 61,
      "start": 7.2317,
      "duration": 0.2173,
      "velocity": 97,
      "chip": "ym2612"
    },
    {
      "channel": 1,
      "note": 54,
      "start": 7.2325,
      "duration": 0.2166,
      "velocity": 97,
      "chip": "ym2612"
    },
    {
      "channel": 2,
      "note": 68,
      "start": 7.2331,
      "duration": 0.1151,
      "velocity": 120,
      "chip": "ym2612"
    },
    {
      "channel": 3,
      "note": 82,
      "start": 7.2337,
      "duration": 0.1147,
      "velocity": 87,
      "chip": "ym2612"
    },
    {
      "channel": 2,
      "note": 49,
      "start": 7.3688,
      "duration": 0.1127,
      "velocity": 127,
      "chip": "ym2612"
    },
    {
      "channel": 3,
      "note": 84,
      "start": 7.3695,
      "duration": 0.0464,
      "velocity": 87,
      "chip": "ym2612"
    },
    {
      "channel": 3,
      "note": 85,
      "start": 7.4323,
      "duration": 0.0503,
      "velocity": 87,
      "chip": "ym2612"
    },
    {
      "channel": 0,
      "note": 61,
      "start": 7.4984,
      "duration": 0.1163,
      "velocity": 97,
      "chip": "ym2612"
    },
    {
      "channel": 1,
      "note": 54,
      "start": 7.4992,
      "duration": 0.1157,
      "velocity": 97,
      "chip": "ym2612"
    },
    {
      "channel": 3,
      "note": 84,
      "start": 7.5,
      "duration": 0.1151,
      "velocity": 87,
      "chip": "ym2612"
    },
    {
      "channel": 0,
      "note": 61,
      "start": 7.6328,
      "duration": 0.1153,
      "velocity": 97,
      "chip": "ym2612"
    },
    {
      "channel": 1,
      "note": 54,
      "start": 7.6334,
      "duration": 0.1149,
      "velocity": 97,
      "chip": "ym2612"
    },
    {
      "channel": 2,
      "note": 68,
      "start": 7.6373,
      "duration": 0.1111,
      "velocity": 120,
      "chip": "ym2612"
    },
    {
      "channel": 3,
      "note": 82,
      "start": 7.6381,
      "duration": 0.1105,
      "velocity": 87,
      "chip": "ym2612"
    },
    {
      "channel": 0,
      "note": 61,
      "start": 7.7661,
      "duration": 0.1162,
      "velocity": 97,
      "chip": "ym2612"
    },
    {
      "channel": 1,
      "note": 54,
      "start": 7.7667,
      "duration": 0.1158,
      "velocity": 97,
      "chip": "ym2612"
    },
    {
      "channel": 2,
      "note": 68,
      "start": 7.7673,
      "duration": 0.1154,
      "velocity": 120,
      "chip": "ym2612"
    },
    {
      "channel": 3,
      "note": 80,
      "start": 7.768,
      "duration": 0.1148,
      "velocity": 87,
      "chip": "ym2612"
    },
    {
      "channel": 0,
      "note": 61,
      "start": 7.915,
      "duration": 0.2173,
      "velocity": 97,
      "chip": "ym2612"
    },
    {
      "channel": 1,
      "note": 54,
      "start": 7.9156,
      "duration": 0.2168,
      "velocity": 97,
      "chip": "ym2612"
    },
    {
      "channel": 2,
      "note": 42,
      "start": 7.9195,
      "duration": 0.0963,
      "velocity": 127,
      "chip": "ym2612"
    },
    {
      "channel": 3,
      "note": 82,
      "start": 7.9202,
      "duration": 0.2447,
      "velocity": 87,
      "chip": "ym2612"
    },
    {
      "channel": 0,
      "note": 69,
      "start": 8.182,
      "duration": 0.116,
      "velocity": 97,
      "chip": "ym2612"
    },
    {
      "channel": 1,
      "note": 62,
      "start": 8.183,
      "duration": 0.1153,
      "velocity": 97,
      "chip": "ym2612"
    },
    {
      "channel": 2,
      "note": 42,
      "start": 8.1869,
      "duration": 0.1115,
      "velocity": 127,
      "chip": "ym2612"
    },
    {
      "channel": 3,
      "note": 80,
      "start": 8.1879,
      "duration": 0.0113,
      "velocity": 87,
      "chip": "ym2612"
    },
    {
      "channel": 3,
      "note": 81,
      "start": 8.2154,
      "duration": 0.0174,
      "velocity": 87,
      "chip": "ym2612"
    },
    {
      "channel": 3,
      "note": 80,
      "start": 8.2488,
      "duration": 0.0837,
      "velocity": 87,
      "chip": "ym2612"
    },
    {
      "channel": 3,
      "note": 76,
      "start": 8.3487,
      "duration": 0.0996,
      "velocity": 87,
      "chip": "ym2612"
    },
    {
      "channel": 0,
      "note": 69,
      "start": 8.4493,
      "duration": 0.1154,
      "velocity": 97,
      "chip": "ym2612"
    },
    {
      "channel": 1,
      "note": 62,
      "start": 8.45,
      "duration": 0.115,
      "velocity": 97,
      "chip": "ym2612"
    },
    {
      "channel": 2,
      "note": 68,
      "start": 8.4539,
      "duration": 0.1112,
      "velocity": 120,
      "chip": "ym2612"
    },
    {
      "channel": 3,
      "note": 78,
      "start": 8.4546,
      "duration": 0.2449,
      "velocity": 87,
      "chip": "ym2612"
    },
    {
      "channel": 0,
      "note": 69,
      "start": 8.5826,
      "duration": 0.2321,
      "velocity": 97,
      "chip": "ym2612"
    },
    {
      "channel": 1,
      "note": 62,
      "start": 8.5832,
      "duration": 0.2317,
      "velocity": 97,
      "chip": "ym2612"
    },
    {
      "channel": 2,
      "note": 68,
      "start": 8.5837,
      "duration": 0.1156,
      "velocity": 120,
      "chip": "ym2612"
    },
    {
      "channel": 2,
      "note": 49,
      "start": 8.7352,
      "duration": 0.0974,
      "velocity": 127,
      "chip": "ym2612"
    },
    {
      "channel": 3,
      "note": 80,
      "start": 8.736,
      "duration": 0.0124,
      "velocity": 87,
      "chip": "ym2612"
    },
    {
      "channel": 3,
      "note": 81,
      "start": 8.7657,
      "duration": 0.016,
      "velocity": 87,
      "chip": "ym2612"
    },
    {
      "channel": 3,
      "note": 80,
      "start": 8.7988,
      "duration": 0.0828,
      "velocity": 87,
      "chip": "ym2612"
    },
    {
      "channel": 0,
      "note": 69,
      "start": 8.865,
      "duration": 0.1163,
      "velocity": 97,
      "chip": "ym2612"
    },
    {
      "channel": 1,
      "note": 62,
      "start": 8.8656,
      "duration": 0.116,
      "velocity": 97,
      "chip": "ym2612"
    },
    {
      "channel": 3,
      "note": 76,
      "start": 8.899,
      "duration": 0.0837,
      "velocity": 87,
      "chip": "ym2612"
    },
    {
      "channel": 0,
      "note": 69,
      "start": 8.9984,
      "duration": 0.1163,
      "velocity": 97,
      "chip": "ym2612"
    },
    {
      "channel": 1,
      "note": 62,
      "start": 8.999,
      "duration": 0.116,
      "velocity": 97,
      "chip": "ym2612"
    },
    {
      "channel": 2,
      "note": 68,
      "start": 9.0029,
      "duration": 0.1122,
      "velocity": 120,
      "chip": "ym2612"
    },
    {
      "channel": 3,
      "note": 78,
      "start": 9.0036,
      "duration": 0.245,
      "velocity": 87,
      "chip": "ym2612"
    },
    {
      "channel": 0,
      "note": 69,
      "start": 9.1317,
      "duration": 0.1163,
      "velocity": 97,
      "chip": "ym2612"
    },
    {
      "channel": 1,
      "note": 62,
      "start": 9.1323,
      "duration": 0.116,
      "velocity": 97,
      "chip": "ym2612"
    },
    {
      "channel": 2,
      "note": 68,
      "start": 9.1329,
      "duration": 0.1156,
      "velocity": 120,
      "chip": "ym2612"
    },
    {
      "channel": 0,
      "note": 69,
      "start": 9.2659,
      "duration": 0.2321,
      "velocity": 97,
      "chip": "ym2612"
    },
    {
      "channel": 1,
      "note": 62,
      "start": 9.2665,
      "duration": 0.2317,
      "velocity": 97,
      "chip": "ym2612"
    },
    {
      "channel": 2,
      "note": 42,
      "start": 9.2704,
      "duration": 0.1111,
      "velocity": 127,
      "chip": "ym2612"
    },
    {
      "channel": 3,
      "note": 80,
      "start": 9.2712,
      "duration": 0.1105,
      "velocity": 87,
      "chip": "ym2612"
    },
    {
      "channel": 2,
      "note": 49,
      "start": 9.4153,
      "duration": 0.1004,
      "velocity": 127,
      "chip": "ym2612"
    },
    {
      "channel": 3,
      "note": 81,
      "start": 9.4161,
      "duration": 0.0999,
      "velocity": 87,
      "chip": "ym2612"
    },
    {
      "channel": 0,
      "note": 69,
      "start": 9.5485,
      "duration": 0.1005,
      "velocity": 97,
      "chip": "ym2612"
    },
    {
      "channel": 1,
      "note": 62,
      "start": 9.5492,
      "duration": 0.0999,
      "velocity": 97,
      "chip": "ym2612"
    },
    {
      "channel": 2,
      "note": 42,
      "start": 9.5499,
      "duration": 0.0994,
      "velocity": 127,
      "chip": "ym2612"
    },
    {
      "channel": 3,
      "note": 83,
      "start": 9.5507,
      "duration": 0.0989,
      "velocity": 87,
      "chip": "ym2612"
    },
    {
      "channel": 3,
      "note": 85,
      "start": 9.6821,
      "duration": 0.1162,
      "velocity": 87,
      "chip": "ym2612"
    },
    {
      "channel": 0,
      "note": 69,
      "start": 9.815,
      "duration": 0.1163,
      "velocity": 97,
      "chip": "ym2612"
    },
    {
      "channel": 1,
      "note": 62,
      "start": 9.8156,
      "duration": 0.116,
      "velocity": 97,
      "chip": "ym2612"
    },
    {
      "channel": 2,
      "note": 68,
      "start": 9.8196,
      "duration": 0.1122,
      "velocity": 120,
      "chip": "ym2612"
    },
    {
      "channel": 3,
      "note": 83,
      "start": 9.8202,
      "duration": 0.1117,
      "velocity": 87,
      "chip": "ym2612"
    },
    {
      "channel": 0,
      "note": 69,
      "start": 9.9493,
      "duration": 0.2321,
      "velocity": 97,
      "chip": "ym2612"
    },
    {
      "channel": 1,
      "note": 62,
      "start": 9.9498,
      "duration": 0.2317,
      "velocity": 97,
      "chip": "ym2612"
    },
    {
      "channel": 2,
      "note": 68,
      "start": 9.9504,
      "duration": 0.1144,
      "velocity": 120,
      "chip": "ym2612"
    },
    {
      "channel": 3,
      "note": 81,
      "start": 9.9512,
      "duration": 0.1139,
      "velocity": 87,
      "chip": "ym2612"
    },
    {
      "channel": 2,
      "note": 49,
      "start": 10.0861,
      "duration": 0.113,
      "velocity": 127,
      "chip": "ym2612"
    },
    {
      "channel": 3,
      "note": 80,
      "start": 10.0868,
      "duration": 0.0282,
      "velocity": 87,
      "chip": "ym2612"
    },
    {
      "channel": 3,
      "note": 81,
      "start": 10.1164,
      "duration": 0.0319,
      "velocity": 87,
      "chip": "ym2612"
    },
    {
      "channel": 3,
      "note": 80,
      "start": 10.1498,
      "duration": 0.0985,
      "velocity": 87,
      "chip": "ym2612"
    },
    {
      "channel": 0,
      "note": 69,
      "start": 10.2317,
      "duration": 0.1006,
      "velocity": 97,
      "chip": "ym2612"
    },
    {
      "channel": 1,
      "note": 62,
      "start": 10.2325,
      "duration": 0.0999,
      "velocity": 97,
      "chip": "ym2612"
    },
    {
      "channel": 3,
      "note": 76,
      "start": 10.2654,
      "duration": 0.0828,
      "velocity": 87,
      "chip": "ym2612"
    },
    {
      "channel": 0,
      "note": 69,
      "start": 10.365,
      "duration": 0.1163,
      "velocity": 97,
      "chip": "ym2612"
    },
    {
      "channel": 1,
      "note": 62,
      "start": 10.3659,
      "duration": 0.1157,
      "velocity": 97,
      "chip": "ym2612"
    },
    {
      "channel": 2,
      "note": 68,
      "start": 10.3698,
      "duration": 0.112,
      "velocity": 120,
      "chip": "ym2612"
    },
    {
      "channel": 3,
      "note": 78,
      "start": 10.3705,
      "duration": 0.2448,
      "velocity": 87,
      "chip": "ym2612"
    },
    {
      "channel": 0,
      "note": 69,
      "start": 10.4984,
      "duration": 0.1163,
      "velocity": 97,
      "chip": "ym2612"
    },
    {
      "channel": 1,
      "note": 62,
      "start": 10.4992,
      "duration": 0.1157,
      "velocity": 97,
      "chip": "ym2612"
    },
    {
      "channel": 2,
      "note": 68,
      "start": 10.4998,
      "duration": 0.1153,
      "velocity": 120,
      "chip": "ym2612"
    },
    {
      "channel": 0,
      "note": 69,
      "start": 10.6317,
      "duration": 0.233,
      "velocity": 97,
      "chip": "ym2612"
    },
    {
      "channel": 1,
      "note": 62,
      "start": 10.6325,
      "duration": 0.2324,
      "velocity": 97,
      "chip": "ym2612"
    },
    {
      "channel": 2,
      "note": 42,
      "start": 10.6364,
      "duration": 0.1118,
      "velocity": 127,
      "chip": "ym2612"
    },
    {
      "channel": 3,
      "note": 80,
      "start": 10.6372,
      "duration": 0.1112,
      "velocity": 87,
      "chip": "ym2612"
    },
    {
      "channel": 3,
      "note": 81,
      "start": 10.7665,
      "duration": 0.1151,
      "velocity": 87,
      "chip": "ym2612"
    },
    {
      "channel": 0,
      "note": 69,
      "start": 10.8996,
      "duration": 0.116,
      "velocity": 97,
      "chip": "ym2612"
    },
    {
      "channel": 1,
      "note": 62,
      "start": 10.9003,
      "duration": 0.1155,
      "velocity": 97,
      "chip": "ym2612"
    },
    {
      "channel": 2,
      "note": 42,
      "start": 10.9043,
      "duration": 0.1117,
      "velocity": 127,
      "chip": "ym2612"
    },
    {
      "channel": 3,
      "note": 80,
      "start": 10.9052,
      "duration": 0.0265,
      "velocity": 87,
      "chip": "ym2612"
    },
    {
      "channel": 3,
      "note": 81,
      "start": 10.9331,
      "duration": 0.0319,
      "velocity": 87,
      "chip": "ym2612"
    },
    {
      "channel": 3,
      "note": 80,
      "start": 10.9821,
      "duration": 0.0828,
      "velocity": 87,
      "chip": "ym2612"
    },
    {
      "channel": 3,
      "note": 76,
      "start": 11.0821,
      "duration": 0.0828,
      "velocity": 87,
      "chip": "ym2612"
    },
    {
      "channel": 0,
      "note": 69,
      "start": 11.1817,
      "duration": 0.1163,
      "velocity": 97,
      "chip": "ym2612"
    },
    {
      "channel": 1,
      "note": 62,
      "start": 11.1823,
      "duration": 0.116,
      "velocity": 97,
      "chip": "ym2612"
    },
    {
      "channel": 2,
      "note": 68,
      "start": 11.1862,
      "duration": 0.1122,
      "velocity": 120,
      "chip": "ym2612"
    },
    {
      "channel": 3,
      "note": 78,
      "start": 11.187,
      "duration": 0.2447,
      "velocity": 87,
      "chip": "ym2612"
    },
    {
      "channel": 0,
      "note": 69,
      "start": 11.315,
      "duration": 0.233,
      "velocity": 97,
      "chip": "ym2612"
    },
    {
      "channel": 1,
      "note": 62,
      "start": 11.3156,
      "duration": 0.2326,
      "velocity": 97,
      "chip": "ym2612"
    },
    {
      "channel": 2,
      "note": 68,
      "start": 11.3162,
      "duration": 0.1153,
      "velocity": 120,
      "chip": "ym2612"
    },
    {
      "channel": 2,
      "note": 49,
      "start": 11.4519,
      "duration": 0.113,
      "velocity": 127,
      "chip": "ym2612"
    },
    {
      "channel": 3,
      "note": 80,
      "start": 11.4526,
      "duration": 0.0133,
      "velocity": 87,
      "chip": "ym2612"
    },
    {
      "channel": 3,
      "note": 81,
      "start": 11.4821,
      "duration": 0.0329,
      "velocity": 87,
      "chip": "ym2612"
    },
    {
      "channel": 3,
      "note": 80,
      "start": 11.5164,
      "duration": 0.0985,
      "velocity": 87,
      "chip": "ym2612"
    },
    {
      "channel": 0,
      "note": 69,
      "start": 11.5826,
      "duration": 0.1154,
      "velocity": 97,
      "chip": "ym2612"
    },
    {
      "channel": 1,
      "note": 62,
      "start": 11.5832,
      "duration": 0.1151,
      "velocity": 97,
      "chip": "ym2612"
    },
    {
      "channel": 3,
      "note": 76,
      "start": 11.6164,
      "duration": 0.0985,
      "velocity": 87,
      "chip": "ym2612"
    },
    {
      "channel": 0,
      "note": 69,
      "start": 11.716,
      "duration": 0.1166,
      "velocity": 97,
      "chip": "ym2612"
    },
    {
      "channel": 1,
      "note": 62,
      "start": 11.7166,
      "duration": 0.1161,
      "velocity": 97,
      "chip": "ym2612"
    },
    {
      "channel": 2,
      "note": 68,
      "start": 11.7205,
      "duration": 0.1124,
      "velocity": 120,
      "chip": "ym2612"
    },
    {
      "channel": 3,
      "note": 78,
      "start": 11.7213,
      "duration": 0.2452,
      "velocity": 87,
      "chip": "ym2612"
    },
    {
      "channel": 0,
      "note": 69,
      "start": 11.865,
      "duration": 0.1008,
      "velocity": 97,
      "chip": "ym2612"
    },
    {
      "channel": 1,
      "note": 62,
      "start": 11.8656,
      "duration": 0.1004,
      "velocity": 97,
      "chip": "ym2612"
    },
    {
      "channel": 2,
      "note": 68,
      "start": 11.8662,
      "duration": 0.1001,
      "velocity": 120,
      "chip": "ym2612"
    },
    {
      "channel": 0,
      "note": 69,
      "start": 11.9984,
      "duration": 0.2173,
      "velocity": 97,
      "chip": "ym2612"
    },
    {
      "channel": 1,
      "note": 62,
      "start": 11.999,
      "duration": 0.2168,
      "velocity": 97,
      "chip": "ym2612"
    },
    {
      "channel": 2,
      "note": 42,
      "start": 12.0028,
      "duration": 0.1121,
      "velocity": 127,
      "chip": "ym2612"
    },
    {
      "channel": 3,
      "note": 80,
      "start": 12.0036,
      "duration": 0.1115,
      "velocity": 87,
      "chip": "ym2612"
    },
    {
      "channel": 2,
      "note": 49,
      "start": 12.132,
      "duration": 0.1162,
      "velocity": 127,
      "chip": "ym2612"
    },
    {
      "channel": 3,
      "note": 81,
      "start": 12.1327,
      "duration": 0.1156,
      "velocity": 87,
      "chip": "ym2612"
    },
    {
      "channel": 0,
      "note": 69,
      "start": 12.2651,
      "duration": 0.1163,
      "velocity": 97,
      "chip": "ym2612"
    },
    {
      "channel": 1,
      "note": 62,
      "start": 12.2658,
      "duration": 0.1158,
      "velocity": 97,
      "chip": "ym2612"
    },
    {
      "channel": 2,
      "note": 42,
      "start": 12.2665,
      "duration": 0.1153,
      "velocity": 127,
      "chip": "ym2612"
    },
    {
      "channel": 3,
      "note": 83,
      "start": 12.2673,
      "duration": 0.1146,
      "velocity": 87,
      "chip": "ym2612"
    },
    {
      "channel": 3,
      "note": 85,
      "start": 12.3996,
      "duration": 0.1153,
      "velocity": 87,
      "chip": "ym2612"
    },
    {
      "channel": 0,
      "note": 69,
      "start": 12.5484,
      "duration": 0.1006,
      "velocity": 97,
      "chip": "ym2612"
    },
    {
      "channel": 1,
      "note": 62,
      "start": 12.549,
      "duration": 0.1002,
      "velocity": 97,
      "chip": "ym2612"
    },
    {
      "channel": 2,
      "note": 68,
      "start": 12.5529,
      "duration": 0.0964,
      "velocity": 120,
      "chip": "ym2612"
    },
    {
      "channel": 3,
      "note": 83,
      "start": 12.5537,
      "duration": 0.0959,
      "velocity": 87,
      "chip": "ym2612"
    },
    {
      "channel": 0,
      "note": 69,
      "start": 12.6817,
      "duration": 0.2175,
      "velocity": 97,
      "chip": "ym2612"
    },
    {
      "channel": 1,
      "note": 62,
      "start": 12.6823,
      "duration": 0.2171,
      "velocity": 97,
      "chip": "ym2612"
    },
    {
      "channel": 2,
      "note": 68,
      "start": 12.6829,
      "duration": 0.1154,
      "velocity": 120,
      "chip": "ym2612"
    },
    {
      "channel": 3,
      "note": 81,
      "start": 12.6836,
      "duration": 0.1147,
      "velocity": 87,
      "chip": "ym2612"
    },
    {
      "channel": 2,
      "note": 49,
      "start": 12.8185,
      "duration": 0.113,
      "velocity": 127,
      "chip": "ym2612"
    },
    {
      "channel": 3,
      "note": 80,
      "start": 12.8193,
      "duration": 0.0135,
      "velocity": 87,
      "chip": "ym2612"
    },
    {
      "channel": 3,
      "note": 81,
      "start": 12.8488,
      "duration": 0.0171,
      "velocity": 87,
      "chip": "ym2612"
    },
    {
      "channel": 3,
      "note": 80,
      "start": 12.8821,
      "duration": 0.084,
      "velocity": 87,
      "chip": "ym2612"
    },
    {
      "channel": 0,
      "note": 69,
      "start": 12.9484,
      "duration": 0.1163,
      "velocity": 97,
      "chip": "ym2612"
    },
    {
      "channel": 1,
      "note": 62,
      "start": 12.949,
      "duration": 0.116,
      "velocity": 97,
      "chip": "ym2612"
    },
    {
      "channel": 3,
      "note": 76,
      "start": 12.9821,
      "duration": 0.0995,
      "velocity": 87,
      "chip": "ym2612"
    },
    {
      "channel": 0,
      "note": 69,
      "start": 13.0827,
      "duration": 0.1154,
      "velocity": 97,
      "chip": "ym2612"
    },
    {
      "channel": 1,
      "note": 62,
      "start": 13.0832,
      "duration": 0.115,
      "velocity": 97,
      "chip": "ym2612"
    },
    {
      "channel": 2,
      "note": 68,
      "start": 13.0872,
      "duration": 0.1112,
      "velocity": 120,
      "chip": "ym2612"
    },
    {
      "channel": 3,
      "note": 78,
      "start": 13.0879,
      "duration": 0.2449,
      "velocity": 87,
      "chip": "ym2612"
    },
    {
      "channel": 0,
      "note": 69,
      "start": 13.2159,
      "duration": 0.1163,
      "velocity": 97,
      "chip": "ym2612"
    },
    {
      "channel": 1,
      "note": 62,
      "start": 13.2165,
      "duration": 0.116,
      "velocity": 97,
      "chip": "ym2612"
    },
    {
      "channel": 2,
      "note": 68,
      "start": 13.2171,
      "duration": 0.1156,
      "velocity": 120,
      "chip": "ym2612"
    },
    {
      "channel": 0,
      "note": 69,
      "start": 13.365,
      "duration": 0.2173,
      "velocity": 97,
      "chip": "ym2612"
    },
    {
      "channel": 1,
      "note": 62,
      "start": 13.3659,
      "duration": 0.2166,
      "velocity": 97,
      "chip": "ym2612"
    },
    {
      "channel": 2,
      "note": 42,
      "start": 13.3698,
      "duration": 0.0961,
      "velocity": 127,
      "chip": "ym2612"
    },
    {
      "channel": 3,
      "note": 80,
      "start": 13.3705,
      "duration": 0.0955,
      "velocity": 87,
      "chip": "ym2612"
    },
    {
      "channel": 3,
      "note": 81,
      "start": 13.499,
      "duration": 0.1159,
      "velocity": 87,
      "chip": "ym2612"
    },
    {
      "channel": 0,
      "note": 61,
      "start": 13.6323,
      "duration": 0.1158,
      "velocity": 97,
      "chip": "ym2612"
    },
    {
      "channel": 1,
      "note": 54,
      "start": 13.6332,
      "duration": 0.1151,
      "velocity": 97,
      "chip": "ym2612"
    },
    {
      "channel": 2,
      "note": 42,
      "start": 13.6372,
      "duration": 0.1112,
      "velocity": 127,
      "chip": "ym2612"
    },
    {
      "channel": 3,
      "note": 78,
      "start": 13.6381,
      "duration": 0.1105,
      "velocity": 87,
      "chip": "ym2612"
    },
    {
      "channel": 3,
      "note": 80,
      "start": 13.7656,
      "duration": 0.116,
      "velocity": 87,
      "chip": "ym2612"
    },
    {
      "channel": 0,
      "note": 61,
      "start": 13.8995,
      "duration": 0.1152,
      "velocity": 97,
      "chip": "ym2612"
    },
    {
      "channel": 1,
      "note": 54,
      "start": 13.9,
      "duration": 0.1149,
      "velocity": 97,
      "chip": "ym2612"
    },
    {
      "channel": 2,
      "note": 68,
      "start": 13.904,
      "duration": 0.1111,
      "velocity": 120,
      "chip": "ym2612"
    },
    {
      "channel": 3,
      "note": 82,
      "start": 13.9047,
      "duration": 0.1105,
      "velocity": 87,
      "chip": "ym2612"
    },
    {
      "channel": 0,
      "note": 61,
      "start": 14.0329,
      "duration": 0.2319,
      "velocity": 97,
      "chip": "ym2612"
    },
    {
      "channel": 1,
      "note": 54,
      "start": 14.0334,
      "duration": 0.2316,
      "velocity": 97,
      "chip": "ym2612"
    },
    {
      "channel": 2,
      "note": 68,
      "start": 14.0339,
      "duration": 0.1152,
      "velocity": 120,
      "chip": "ym2612"
    },
    {
      "channel": 3,
      "note": 84,
      "start": 14.0347,
      "duration": 0.1146,
      "velocity": 87,
      "chip": "ym2612"
    },
    {
      "channel": 2,
      "note": 49,
      "start": 14.1852,
      "duration": 0.0972,
      "velocity": 127,
      "chip": "ym2612"
    },
    {
      "channel": 3,
      "note": 85,
      "start": 14.186,
      "duration": 0.0457,
      "velocity": 87,
      "chip": "ym2612"
    },
    {
      "channel": 3,
      "note": 87,
      "start": 14.2488,
      "duration": 0.0495,
      "velocity": 87,
      "chip": "ym2612"
    },
    {
      "channel": 0,
      "note": 61,
      "start": 14.315,
      "duration": 0.1163,
      "velocity": 97,
      "chip": "ym2612"
    },
    {
      "channel": 1,
      "note": 54,
      "start": 14.3156,
      "duration": 0.116,
      "velocity": 97,
      "chip": "ym2612"
    },
    {
      "channel": 3,
      "note": 85,
      "start": 14.3164,
      "duration": 0.1154,
      "velocity": 87,
      "chip": "ym2612"
    },
    {
      "channel": 0,
      "note": 61,
      "start": 14.4484,
      "duration": 0.1163,
      "velocity": 97,
      "chip": "ym2612"
    },
    {
      "channel": 1,
      "note": 54,
      "start": 14.449,
      "duration": 0.116,
      "velocity": 97,
      "chip": "ym2612"
    },
    {
      "channel": 2,
      "note": 68,
      "start": 14.4529,
      "duration": 0.1122,
      "velocity": 120,
      "chip": "ym2612"
    },
    {
      "channel": 3,
      "note": 85,
      "start": 14.4535,
      "duration": 0.1121,
      "velocity": 87,
      "chip": "ym2612"
    },
    {
      "channel": 0,
      "note": 61,
      "start": 14.5817,
      "duration": 0.1163,
      "velocity": 97,
      "chip": "ym2612"
    },
    {
      "channel": 1,
      "note": 54,
      "start": 14.5823,
      "duration": 0.116,
      "velocity": 97,
      "chip": "ym2612"
    },
    {
      "channel": 2,
      "note": 68,
      "start": 14.5829,
      "duration": 0.1156,
      "velocity": 120,
      "chip": "ym2612"
    },
    {
      "channel": 3,
      "note": 90,
      "start": 14.5836,
      "duration": 0.1151,
      "velocity": 87,
      "chip": "ym2612"
    },
    {
      "channel": 0,
      "note": 61,
      "start": 14.7159,
      "duration": 0.2321,
      "velocity": 97,
      "chip": "ym2612"
    },
    {
      "channel": 1,
      "note": 54,
      "start": 14.7164,
      "duration": 0.2318,
      "velocity": 97,
      "chip": "ym2612"
    },
    {
      "channel": 2,
      "note": 42,
      "start": 14.7204,
      "duration": 0.1111,
      "velocity": 127,
      "chip": "ym2612"
    },
    {
      "channel": 3,
      "note": 85,
      "start": 14.7212,
      "duration": 0.1105,
      "velocity": 87,
      "chip": "ym2612"
    },
    {
      "channel": 2,
      "note": 49,
      "start": 14.8495,
      "duration": 0.1165,
      "velocity": 127,
      "chip": "ym2612"
    },
    {
      "channel": 3,
      "note": 84,
      "start": 14.8503,
      "duration": 0.1159,
      "velocity": 87,
      "chip": "ym2612"
    },
    {
      "channel": 0,
      "note": 61,
      "start": 14.9985,
      "duration": 0.1007,
      "velocity": 97,
      "chip": "ym2612"
    },
    {
      "channel": 1,
      "note": 54,
      "start": 14.9992,
      "duration": 0.1002,
      "velocity": 97,
      "chip": "ym2612"
    },
    {
      "channel": 2,
      "note": 42,
      "start": 14.9999,
      "duration": 0.0997,
      "velocity": 127,
      "chip": "ym2612"
    },
    {
      "channel": 3,
      "note": 82,
      "start": 15.0006,
      "duration": 0.0992,
      "velocity": 87,
      "chip": "ym2612"
    },
    {
      "channel": 0,
      "note": 61,
      "start": 15.265,
      "duration": 0.1163,
      "velocity": 97,
      "chip": "ym2612"
    },
    {
      "channel": 1,
      "note": 54,
      "start": 15.2656,
      "duration": 0.116,
      "velocity": 97,
      "chip": "ym2612"
    },
    {
      "channel": 2,
      "note": 68,
      "start": 15.2696,
      "duration": 0.1122,
      "velocity": 120,
      "chip": "ym2612"
    },
    {
      "channel": 3,
      "note": 82,
      "start": 15.2701,
      "duration": 0.1118,
      "velocity": 87,
      "chip": "ym2612"
    },
    {
      "channel": 0,
      "note": 61,
      "start": 15.3984,
      "duration": 0.233,
      "velocity": 97,
      "chip": "ym2612"
    },
    {
      "channel": 1,
      "note": 54,
      "start": 15.399,
      "duration": 0.2326,
      "velocity": 97,
      "chip": "ym2612"
    },
    {
      "channel": 2,
      "note": 68,
      "start": 15.3995,
      "duration": 0.1153,
      "velocity": 120,
      "chip": "ym2612"
    },
    {
      "channel": 3,
      "note": 82,
      "start": 15.4001,
      "duration": 0.1149,
      "velocity": 87,
      "chip": "ym2612"
    },
    {
      "channel": 2,
      "note": 49,
      "start": 15.5361,
      "duration": 0.1121,
      "velocity": 127,
      "chip": "ym2612"
    },
    {
      "channel": 3,
      "note": 84,
      "start": 15.5368,
      "duration": 0.0615,
      "velocity": 87,
      "chip": "ym2612"
    },
    {
      "channel": 3,
      "note": 85,
      "start": 15.5998,
      "duration": 0.0651,
      "velocity": 87,
      "chip": "ym2612"
    },
    {
      "channel": 0,
      "note": 61,
      "start": 15.6817,
      "duration": 0.1006,
      "velocity": 97,
      "chip": "ym2612"
    },
    {
      "channel": 1,
      "note": 54,
      "start": 15.6823,
      "duration": 0.1002,
      "velocity": 97,
      "chip": "ym2612"
    },
    {
      "channel": 3,
      "note": 84,
      "start": 15.6831,
      "duration": 0.0996,
      "velocity": 87,
      "chip": "ym2612"
    },
    {
      "channel": 0,
      "note": 61,
      "start": 15.815,
      "duration": 0.1163,
      "velocity": 97,
      "chip": "ym2612"
    },
    {
      "channel": 1,
      "note": 54,
      "start": 15.8156,
      "duration": 0.116,
      "velocity": 97,
      "chip": "ym2612"
    },
    {
      "channel": 2,
      "note": 68,
      "start": 15.8196,
      "duration": 0.1122,
      "velocity": 120,
      "chip": "ym2612"
    },
    {
      "channel": 3,
      "note": 82,
      "start": 15.8202,
      "duration": 0.1117,
      "velocity": 87,
      "chip": "ym2612"
    },
    {
      "channel": 0,
      "note": 61,
      "start": 15.9484,
      "duration": 0.1163,
      "velocity": 97,
      "chip": "ym2612"
    },
    {
      "channel": 1,
      "note": 54,
      "start": 15.949,
      "duration": 0.116,
      "velocity": 97,
      "chip": "ym2612"
    },
    {
      "channel": 2,
      "note": 68,
      "start": 15.9495,
      "duration": 0.1156,
      "velocity": 120,
      "chip": "ym2612"
    },
    {
      "channel": 3,
      "note": 80,
      "start": 15.9502,
      "duration": 0.1151,
      "velocity": 87,
      "chip": "ym2612"
    },
    {
      "channel": 0,
      "note": 61,
      "start": 16.0817,
      "duration": 0.233,
      "velocity": 97,
      "chip": "ym2612"
    },
    {
      "channel": 1,
      "note": 54,
      "start": 16.0823,
      "duration": 0.2326,
      "velocity": 97,
      "chip": "ym2612"
    },
    {
      "channel": 2,
      "note": 42,
      "start": 16.0862,
      "duration": 0.112,
      "velocity": 127,
      "chip": "ym2612"
    },
    {
      "channel": 3,
      "note": 82,
      "start": 16.0869,
      "duration": 0.2447,
      "velocity": 87,
      "chip": "ym2612"
    },
    {
      "channel": 0,
      "note": 61,
      "start": 16.3493,
      "duration": 0.1163,
      "velocity": 97,
      "chip": "ym2612"
    },
    {
      "channel": 1,
      "note": 54,
      "start": 16.35,
      "duration": 0.1158,
      "velocity": 97,
      "chip": "ym2612"
    },
    {
      "channel": 2,
      "note": 42,
      "start": 16.354,
      "duration": 0.112,
      "velocity": 127,
      "chip": "ym2612"
    },
    {
      "channel": 3,
      "note": 78,
      "start": 16.3549,
      "duration": 0.1113,
      "velocity": 87,
      "chip": "ym2612"
    },
    {
      "channel": 3,
      "note": 80,
      "start": 16.499,
      "duration": 0.1002,
      "velocity": 87,
      "chip": "ym2612"
    },
    {
      "channel": 0,
      "note": 61,
      "start": 16.6317,
      "duration": 0.1163,
      "velocity": 97,
      "chip": "ym2612"
    },
    {
      "channel": 1,
      "note": 54,
      "start": 16.6325,
      "duration": 0.1157,
      "velocity": 97,
      "chip": "ym2612"
    },
    {
      "channel": 2,
      "note": 68,
      "start": 16.6365,
      "duration": 0.112,
      "velocity": 120,
      "chip": "ym2612"
    },
    {
      "channel": 3,
      "note": 82,
      "start": 16.6372,
      "duration": 0.1115,
      "velocity": 87,
      "chip": "ym2612"
    },
    {
      "channel": 0,
      "note": 61,
      "start": 16.765,
      "duration": 0.233,
      "velocity": 97,
      "chip": "ym2612"
    },
    {
      "channel": 1,
      "note": 54,
      "start": 16.7659,
      "duration": 0.2324,
      "velocity": 97,
      "chip": "ym2612"
    },
    {
      "channel": 2,
      "note": 68,
      "start": 16.7664,
      "duration": 0.1151,
      "velocity": 120,
      "chip": "ym2612"
    },
    {
      "channel": 3,
      "note": 84,
      "start": 16.7671,
      "duration": 0.1146,
      "velocity": 87,
      "chip": "ym2612"
    },
    {
      "channel": 2,
      "note": 49,
      "start": 16.9021,
      "duration": 0.1127,
      "velocity": 127,
      "chip": "ym2612"
    },
    {
      "channel": 3,
      "note": 85,
      "start": 16.9028,
      "duration": 0.0464,
      "velocity": 87,
      "chip": "ym2612"
    },
    {
      "channel": 3,
      "note": 87,
      "start": 16.9657,
      "duration": 0.0659,
      "velocity": 87,
      "chip": "ym2612"
    },
    {
      "channel": 0,
      "note": 61,
      "start": 17.0329,
      "duration": 0.1151,
      "velocity": 97,
      "chip": "ym2612"
    },
    {
      "channel": 1,
      "note": 54,
      "start": 17.0335,
      "duration": 0.1148,
      "velocity": 97,
      "chip": "ym2612"
    },
    {
      "channel": 3,
      "note": 85,
      "start": 17.0343,
      "duration": 0.1142,
      "velocity": 87,
      "chip": "ym2612"
    },
    {
      "channel": 0,
      "note": 61,
      "start": 17.1661,
      "duration": 0.1162,
      "velocity": 97,
      "chip": "ym2612"
    },
    {
      "channel": 1,
      "note": 54,
      "start": 17.1667,
      "duration": 0.1158,
      "velocity": 97,
      "chip": "ym2612"
    },
    {
      "channel": 2,
      "note": 68,
      "start": 17.1706,
      "duration": 0.112,
      "velocity": 120,
      "chip": "ym2612"
    },
    {
      "channel": 3,
      "note": 85,
      "start": 17.1712,
      "duration": 0.1117,
      "velocity": 87,
      "chip": "ym2612"
    },
    {
      "channel": 0,
      "note": 61,
      "start": 17.315,
      "duration": 0.1006,
      "velocity": 97,
      "chip": "ym2612"
    },
    {
      "channel": 1,
      "note": 54,
      "start": 17.3156,
      "duration": 0.1002,
      "velocity": 97,
      "chip": "ym2612"
    },
    {
      "channel": 2,
      "note": 68,
      "start": 17.3162,
      "duration": 0.0998,
      "velocity": 120,
      "chip": "ym2612"
    },
    {
      "channel": 3,
      "note": 90,
      "start": 17.3169,
      "duration": 0.0993,
      "velocity": 87,
      "chip": "ym2612"
    },
    {
      "channel": 0,
      "note": 61,
      "start": 17.4484,
      "duration": 0.2173,
      "velocity": 97,
      "chip": "ym2612"
    },
    {
      "channel": 1,
      "note": 54,
      "start": 17.449,
      "duration": 0.2168,
      "velocity": 97,
      "chip": "ym2612"
    },
    {
      "channel": 2,
      "note": 42,
      "start": 17.4528,
      "duration": 0.112,
      "velocity": 127,
      "chip": "ym2612"
    },
    {
      "channel": 3,
      "note": 85,
      "start": 17.4536,
      "duration": 0.1115,
      "velocity": 87,
      "chip": "ym2612"
    },
    {
      "channel": 2,
      "note": 49,
      "start": 17.582,
      "duration": 0.1162,
      "velocity": 127,
      "chip": "ym2612"
    },
    {
      "channel": 3,
      "note": 84,
      "start": 17.5827,
      "duration": 0.1156,
      "velocity": 87,
      "chip": "ym2612"
    },
    {
      "channel": 0,
      "note": 61,
      "start": 17.7151,
      "duration": 0.1163,
      "velocity": 97,
      "chip": "ym2612"
    },
    {
      "channel": 1,
      "note": 54,
      "start": 17.7158,
      "duration": 0.1158,
      "velocity": 97,
      "chip": "ym2612"
    },
    {
      "channel": 2,
      "note": 42,
      "start": 17.7165,
      "duration": 0.1153,
      "velocity": 127,
      "chip": "ym2612"
    },
    {
      "channel": 3,
      "note": 82,
      "start": 17.7173,
      "duration": 0.1147,
      "velocity": 87,
      "chip": "ym2612"
    },
    {
      "channel": 0,
      "note": 61,
      "start": 17.9826,
      "duration": 0.1166,
      "velocity": 97,
      "chip": "ym2612"
    },
    {
      "channel": 1,
      "note": 54,
      "start": 17.9831,
      "duration": 0.1163,
      "velocity": 97,
      "chip": "ym2612"
    },
    {
      "channel": 2,
      "note": 68,
      "start": 17.9871,
      "duration": 0.1125,
      "velocity": 120,
      "chip": "ym2612"
    },
    {
      "channel": 3,
      "note": 82,
      "start": 17.9877,
      "duration": 0.1121,
      "velocity": 87,
      "chip": "ym2612"
    },
    {
      "channel": 0,
      "note": 61,
      "start": 18.1317,
      "duration": 0.2173,
      "velocity": 97,
      "chip": "ym2612"
    },
    {
      "channel": 1,
      "note": 54,
      "start": 18.1323,
      "duration": 0.2168,
      "velocity": 97,
      "chip": "ym2612"
    },
    {
      "channel": 2,
      "note": 68,
      "start": 18.1329,
      "duration": 0.0998,
      "velocity": 120,
      "chip": "ym2612"
    },
    {
      "channel": 3,
      "note": 82,
      "start": 18.1334,
      "duration": 0.0994,
      "velocity": 87,
      "chip": "ym2612"
    },
    {
      "channel": 2,
      "note": 49,
      "start": 18.2685,
      "duration": 0.113,
      "velocity": 127,
      "chip": "ym2612"
    },
    {
      "channel": 3,
      "note": 84,
      "start": 18.2693,
      "duration": 0.0466,
      "velocity": 87,
      "chip": "ym2612"
    },
    {
      "channel": 3,
      "note": 85,
      "start": 18.3321,
      "duration": 0.0505,
      "velocity": 87,
      "chip": "ym2612"
    },
    {
      "channel": 0,
      "note": 61,
      "start": 18.3984,
      "duration": 0.1163,
      "velocity": 97,
      "chip": "ym2612"
    },
    {
      "channel": 1,
      "note": 54,
      "start": 18.399,
      "duration": 0.116,
      "velocity": 97,
      "chip": "ym2612"
    },
    {
      "channel": 3,
      "note": 84,
      "start": 18.3998,
      "duration": 0.1154,
      "velocity": 87,
      "chip": "ym2612"
    },
    {
      "channel": 0,
      "note": 61,
      "start": 18.5317,
      "duration": 0.1163,
      "velocity": 97,
      "chip": "ym2612"
    },
    {
      "channel": 1,
      "note": 54,
      "start": 18.5323,
      "duration": 0.116,
      "velocity": 97,
      "chip": "ym2612"
    },
    {
      "channel": 2,
      "note": 68,
      "start": 18.5362,
      "duration": 0.1122,
      "velocity": 120,
      "chip": "ym2612"
    },
    {
      "channel": 3,
      "note": 82,
      "start": 18.5369,
      "duration": 0.1117,
      "velocity": 87,
      "chip": "ym2612"
    },
    {
      "channel": 0,
      "note": 61,
      "start": 18.6659,
      "duration": 0.1155,
      "velocity": 97,
      "chip": "ym2612"
    },
    {
      "channel": 1,
      "note": 54,
      "start": 18.6664,
      "duration": 0.1151,
      "velocity": 97,
      "chip": "ym2612"
    },
    {
      "channel": 2,
      "note": 68,
      "start": 18.667,
      "duration": 0.1148,
      "velocity": 120,
      "chip": "ym2612"
    },
    {
      "channel": 3,
      "note": 80,
      "start": 18.6678,
      "duration": 0.1141,
      "velocity": 87,
      "chip": "ym2612"
    },
    {
      "channel": 0,
      "note": 61,
      "start": 18.815,
      "duration": 0.2163,
      "velocity": 97,
      "chip": "ym2612"
    },
    {
      "channel": 1,
      "note": 54,
      "start": 18.8156,
      "duration": 0.216,
      "velocity": 97,
      "chip": "ym2612"
    },
    {
      "channel": 2,
      "note": 42,
      "start": 18.8195,
      "duration": 0.0963,
      "velocity": 127,
      "chip": "ym2612"
    },
    {
      "channel": 3,
      "note": 82,
      "start": 18.8202,
      "duration": 0.2447,
      "velocity": 87,
      "chip": "ym2612"
    },
    {
      "channel": 0,
      "note": 69,
      "start": 19.082,
      "duration": 0.116,
      "velocity": 97,
      "chip": "ym2612"
    },
    {
      "channel": 1,
      "note": 62,
      "start": 19.083,
      "duration": 0.1153,
      "velocity": 97,
      "chip": "ym2612"
    },
    {
      "channel": 2,
      "note": 42,
      "start": 19.0869,
      "duration": 0.1115,
      "velocity": 127,
      "chip": "ym2612"
    },
    {
      "channel": 3,
      "note": 80,
      "start": 19.0879,
      "duration": 0.0116,
      "velocity": 87,
      "chip": "ym2612"
    },
    {
      "channel": 3,
      "note": 81,
      "start": 19.1154,
      "duration": 0.0171,
      "velocity": 87,
      "chip": "ym2612"
    },
    {
      "channel": 3,
      "note": 80,
      "start": 19.1488,
      "duration": 0.084,
      "velocity": 87,
      "chip": "ym2612"
    },
    {
      "channel": 3,
      "note": 76,
      "start": 19.2488,
      "duration": 0.0995,
      "velocity": 87,
      "chip": "ym2612"
    },
    {
      "channel": 0,
      "note": 69,
      "start": 19.3493,
      "duration": 0.1154,
      "velocity": 97,
      "chip": "ym2612"
    },
    {
      "channel": 1,
      "note": 62,
      "start": 19.35,
      "duration": 0.115,
      "velocity": 97,
      "chip": "ym2612"
    },
    {
      "channel": 2,
      "note": 68,
      "start": 19.3539,
      "duration": 0.1112,
      "velocity": 120,
      "chip": "ym2612"
    },
    {
      "channel": 3,
      "note": 78,
      "start": 19.3546,
      "duration": 0.2447,
      "velocity": 87,
      "chip": "ym2612"
    },
    {
      "channel": 0,
      "note": 69,
      "start": 19.4826,
      "duration": 0.2321,
      "velocity": 97,
      "chip": "ym2612"
    },
    {
      "channel": 1,
      "note": 62,
      "start": 19.4832,
      "duration": 0.2317,
      "velocity": 97,
      "chip": "ym2612"
    },
    {
      "channel": 2,
      "note": 68,
      "start": 19.4837,
      "duration": 0.1154,
      "velocity": 120,
      "chip": "ym2612"
    },
    {
      "channel": 2,
      "note": 49,
      "start": 19.6355,
      "duration": 0.0969,
      "velocity": 127,
      "chip": "ym2612"
    },
    {
      "channel": 3,
      "note": 80,
      "start": 19.6362,
      "duration": 0.0122,
      "velocity": 87,
      "chip": "ym2612"
    },
    {
      "channel": 3,
      "note": 81,
      "start": 19.6654,
      "duration": 0.0162,
      "velocity": 87,
      "chip": "ym2612"
    },
    {
      "channel": 3,
      "note": 80,
      "start": 19.699,
      "duration": 0.0827,
      "velocity": 87,
      "chip": "ym2612"
    },
    {
      "channel": 0,
      "note": 69,
      "start": 19.765,
      "duration": 0.1163,
      "velocity": 97,
      "chip": "ym2612"
    },
    {
      "channel": 1,
      "note": 62,
      "start": 19.7659,
      "duration": 0.1157,
      "velocity": 97,
      "chip": "ym2612"
    },
    {
      "channel": 3,
      "note": 76,
      "start": 19.7988,
      "duration": 0.084,
      "velocity": 87,
      "chip": "ym2612"
    },
    {
      "channel": 0,
      "note": 69,
      "start": 19.8984,
      "duration": 0.1163,
      "velocity": 97,
      "chip": "ym2612"
    },
    {
      "channel": 1,
      "note": 62,
      "start": 19.8992,
      "duration": 0.1157,
      "velocity": 97,
      "chip": "ym2612"
    },
    {
      "channel": 2,
      "note": 68,
      "start": 19.9032,
      "duration": 0.112,
      "velocity": 120,
      "chip": "ym2612"
    },
    {
      "channel": 3,
      "note": 78,
      "start": 19.9039,
      "duration": 0.2447,
      "velocity": 87,
      "chip": "ym2612"
    },
    {
      "channel": 0,
      "note": 69,
      "start": 20.0317,
      "duration": 0.1163,
      "velocity": 97,
      "chip": "ym2612"
    },
    {
      "channel": 1,
      "note": 62,
      "start": 20.0325,
      "duration": 0.1157,
      "velocity": 97,
      "chip": "ym2612"
    },
    {
      "channel": 2,
      "note": 68,
      "start": 20.0331,
      "duration": 0.1153,
      "velocity": 120,
      "chip": "ym2612"
    },
    {
      "channel": 0,
      "note": 69,
      "start": 20.1662,
      "duration": 0.2319,
      "velocity": 97,
      "chip": "ym2612"
    },
    {
      "channel": 1,
      "note": 62,
      "start": 20.1668,
      "duration": 0.2315,
      "velocity": 97,
      "chip": "ym2612"
    },
    {
      "channel": 2,
      "note": 42,
      "start": 20.1706,
      "duration": 0.1109,
      "velocity": 127,
      "chip": "ym2612"
    },
    {
      "channel": 3,
      "note": 80,
      "start": 20.1714,
      "duration": 0.1103,
      "velocity": 87,
      "chip": "ym2612"
    },
    {
      "channel": 2,
      "note": 49,
      "start": 20.2998,
      "duration": 0.116,
      "velocity": 127,
      "chip": "ym2612"
    },
    {
      "channel": 3,
      "note": 81,
      "start": 20.3005,
      "duration": 0.1154,
      "velocity": 87,
      "chip": "ym2612"
    },
    {
      "channel": 0,
      "note": 69,
      "start": 20.4485,
      "duration": 0.1005,
      "velocity": 97,
      "chip": "ym2612"
    },
    {
      "channel": 1,
      "note": 62,
      "start": 20.4492,
      "duration": 0.0999,
      "velocity": 97,
      "chip": "ym2612"
    },
    {
      "channel": 2,
      "note": 42,
      "start": 20.4499,
      "duration": 0.0994,
      "velocity": 127,
      "chip": "ym2612"
    },
    {
      "channel": 3,
      "note": 83,
      "start": 20.4507,
      "duration": 0.0989,
      "velocity": 87,
      "chip": "ym2612"
    },
    {
      "channel": 3,
      "note": 85,
      "start": 20.5821,
      "duration": 0.1162,
      "velocity": 87,
      "chip": "ym2612"
    },
    {
      "channel": 0,
      "note": 69,
      "start": 20.715,
      "duration": 0.1163,
      "velocity": 97,
      "chip": "ym2612"
    },
    {
      "channel": 1,
      "note": 62,
      "start": 20.7156,
      "duration": 0.116,
      "velocity": 97,
      "chip": "ym2612"
    },
    {
      "channel": 2,
      "note": 68,
      "start": 20.7196,
      "duration": 0.1122,
      "velocity": 120,
      "chip": "ym2612"
    },
    {
      "channel": 3,
      "note": 83,
      "start": 20.7202,
      "duration": 0.112,
      "velocity": 87,
      "chip": "ym2612"
    },
    {
      "channel": 0,
      "note": 69,
      "start": 20.8484,
      "duration": 0.233,
      "velocity": 97,
      "chip": "ym2612"
    },
    {
      "channel": 1,
      "note": 62,
      "start": 20.849,
      "duration": 0.2326,
      "velocity": 97,
      "chip": "ym2612"
    },
    {
      "channel": 2,
      "note": 68,
      "start": 20.8495,
      "duration": 0.1153,
      "velocity": 120,
      "chip": "ym2612"
    },
    {
      "channel": 3,
      "note": 81,
      "start": 20.8503,
      "duration": 0.1147,
      "velocity": 87,
      "chip": "ym2612"
    },
    {
      "channel": 2,
      "note": 49,
      "start": 20.9861,
      "duration": 0.1121,
      "velocity": 127,
      "chip": "ym2612"
    },
    {
      "channel": 3,
      "note": 80,
      "start": 20.9868,
      "duration": 0.0282,
      "velocity": 87,
      "chip": "ym2612"
    },
    {
      "channel": 3,
      "note": 81,
      "start": 21.0164,
      "duration": 0.0319,
      "velocity": 87,
      "chip": "ym2612"
    },
    {
      "channel": 3,
      "note": 80,
      "start": 21.0498,
      "duration": 0.0985,
      "velocity": 87,
      "chip": "ym2612"
    },
    {
      "channel": 0,
      "note": 69,
      "start": 21.1159,
      "duration": 0.1166,
      "velocity": 97,
      "chip": "ym2612"
    },
    {
      "channel": 1,
      "note": 62,
      "start": 21.1165,
      "duration": 0.1162,
      "velocity": 97,
      "chip": "ym2612"
    },
    {
      "channel": 3,
      "note": 76,
      "start": 21.1657,
      "duration": 0.0826,
      "velocity": 87,
      "chip": "ym2612"
    },
    {
      "channel": 0,
      "note": 69,
      "start": 21.265,
      "duration": 0.1008,
      "velocity": 97,
      "chip": "ym2612"
    },
    {
      "channel": 1,
      "note": 62,
      "start": 21.2656,
      "duration": 0.1004,
      "velocity": 97,
      "chip": "ym2612"
    },
    {
      "channel": 2,
      "note": 68,
      "start": 21.2696,
      "duration": 0.0967,
      "velocity": 120,
      "chip": "ym2612"
    },
    {
      "channel": 3,
      "note": 78,
      "start": 21.2702,
      "duration": 0.2451,
      "velocity": 87,
      "chip": "ym2612"
    },
    {
      "channel": 0,
      "note": 69,
      "start": 21.3984,
      "duration": 0.1163,
      "velocity": 97,
      "chip": "ym2612"
    },
    {
      "channel": 1,
      "note": 62,
      "start": 21.399,
      "duration": 0.116,
      "velocity": 97,
      "chip": "ym2612"
    },
    {
      "channel": 2,
      "note": 68,
      "start": 21.3995,
      "duration": 0.1156,
      "velocity": 120,
      "chip": "ym2612"
    },
    {
      "channel": 0,
      "note": 69,
      "start": 21.5317,
      "duration": 0.233,
      "velocity": 97,
      "chip": "ym2612"
    },
    {
      "channel": 1,
      "note": 62,
      "start": 21.5323,
      "duration": 0.2326,
      "velocity": 97,
      "chip": "ym2612"
    },
    {
      "channel": 2,
      "note": 42,
      "start": 21.5362,
      "duration": 0.112,
      "velocity": 127,
      "chip": "ym2612"
    },
    {
      "channel": 3,
      "note": 80,
      "start": 21.5369,
      "duration": 0.1115,
      "velocity": 87,
      "chip": "ym2612"
    },
    {
      "channel": 3,
      "note": 81,
      "start": 21.6663,
      "duration": 0.1153,
      "velocity": 87,
      "chip": "ym2612"
    },
    {
      "channel": 0,
      "note": 69,
      "start": 21.7993,
      "duration": 0.1154,
      "velocity": 97,
      "chip": "ym2612"
    },
    {
      "channel": 1,
      "note": 62,
      "start": 21.8,
      "duration": 0.1149,
      "velocity": 97,
      "chip": "ym2612"
    },
    {
      "channel": 2,
      "note": 42,
      "start": 21.804,
      "duration": 0.1111,
      "velocity": 127,
      "chip": "ym2612"
    },
    {
      "channel": 3,
      "note": 80,
      "start": 21.8049,
      "duration": 0.0267,
      "velocity": 87,
      "chip": "ym2612"
    },
    {
      "channel": 3,
      "note": 81,
      "start": 21.8334,
      "duration": 0.0316,
      "velocity": 87,
      "chip": "ym2612"
    },
    {
      "channel": 3,
      "note": 80,
      "start": 21.8664,
      "duration": 0.0985,
      "velocity": 87,
      "chip": "ym2612"
    },
    {
      "channel": 3,
      "note": 76,
      "start": 21.9821,
      "duration": 0.0828,
      "velocity": 87,
      "chip": "ym2612"
    },
    {
      "channel": 0,
      "note": 69,
      "start": 22.0817,
      "duration": 0.1163,
      "velocity": 97,
      "chip": "ym2612"
    },
    {
      "channel": 1,
      "note": 62,
      "start": 22.0823,
      "duration": 0.116,
      "velocity": 97,
      "chip": "ym2612"
    },
    {
      "channel": 2,
      "note": 68,
      "start": 22.0862,
      "duration": 0.1122,
      "velocity": 120,
      "chip": "ym2612"
    },
    {
      "channel": 3,
      "note": 78,
      "start": 22.087,
      "duration": 0.2447,
      "velocity": 87,
      "chip": "ym2612"
    },
    {
      "channel": 0,
      "note": 69,
      "start": 22.215,
      "duration": 0.233,
      "velocity": 97,
      "chip": "ym2612"
    },
    {
      "channel": 1,
      "note": 62,
      "start": 22.2156,
      "duration": 0.2326,
      "velocity": 97,
      "chip": "ym2612"
    },
    {
      "channel": 2,
      "note": 68,
      "start": 22.2162,
      "duration": 0.1154,
      "velocity": 120,
      "chip": "ym2612"
    },
    {
      "channel": 2,
      "note": 49,
      "start": 22.3519,
      "duration": 0.113,
      "velocity": 127,
      "chip": "ym2612"
    },
    {
      "channel": 3,
      "note": 80,
      "start": 22.3526,
      "duration": 0.0135,
      "velocity": 87,
      "chip": "ym2612"
    },
    {
      "channel": 3,
      "note": 81,
      "start": 22.3821,
      "duration": 0.0171,
      "velocity": 87,
      "chip": "ym2612"
    },
    {
      "channel": 3,
      "note": 80,
      "start": 22.4154,
      "duration": 0.0996,
      "velocity": 87,
      "chip": "ym2612"
    },
    {
      "channel": 0,
      "note": 69,
      "start": 22.4826,
      "duration": 0.1154,
      "velocity": 97,
      "chip": "ym2612"
    },
    {
      "channel": 1,
      "note": 62,
      "start": 22.4832,
      "duration": 0.1151,
      "velocity": 97,
      "chip": "ym2612"
    },
    {
      "channel": 3,
      "note": 76,
      "start": 22.5164,
      "duration": 0.0985,
      "velocity": 87,
      "chip": "ym2612"
    },
    {
      "channel": 0,
      "note": 69,
      "start": 22.616,
      "duration": 0.1163,
      "velocity": 97,
      "chip": "ym2612"
    },
    {
      "channel": 1,
      "note": 62,
      "start": 22.6166,
      "duration": 0.1159,
      "velocity": 97,
      "chip": "ym2612"
    },
    {
      "channel": 2,
      "note": 68,
      "start": 22.6205,
      "duration": 0.1121,
      "velocity": 120,
      "chip": "ym2612"
    },
    {
      "channel": 3,
      "note": 78,
      "start": 22.6213,
      "duration": 0.2449,
      "velocity": 87,
      "chip": "ym2612"
    },
    {
      "channel": 0,
      "note": 69,
      "start": 22.765,
      "duration": 0.1006,
      "velocity": 97,
      "chip": "ym2612"
    },
    {
      "channel": 1,
      "note": 62,
      "start": 22.7659,
      "duration": 0.0999,
      "velocity": 97,
      "chip": "ym2612"
    },
    {
      "channel": 2,
      "note": 68,
      "start": 22.7664,
      "duration": 0.0995,
      "velocity": 120,
      "chip": "ym2612"
    },
    {
      "channel": 0,
      "note": 69,
      "start": 22.8984,
      "duration": 0.2173,
      "velocity": 97,
      "chip": "ym2612"
    },
    {
      "channel": 1,
      "note": 62,
      "start": 22.8992,
      "duration": 0.2166,
      "velocity": 97,
      "chip": "ym2612"
    },
    {
      "channel": 2,
      "note": 42,
      "start": 22.9031,
      "duration": 0.1118,
      "velocity": 127,
      "chip": "ym2612"
    },
    {
      "channel": 3,
      "note": 80,
      "start": 22.9039,
      "duration": 0.1112,
      "velocity": 87,
      "chip": "ym2612"
    },
    {
      "channel": 2,
      "note": 49,
      "start": 23.0322,
      "duration": 0.116,
      "velocity": 127,
      "chip": "ym2612"
    },
    {
      "channel": 3,
      "note": 81,
      "start": 23.033,
      "duration": 0.1154,
      "velocity": 87,
      "chip": "ym2612"
    },
    {
      "channel": 0,
      "note": 69,
      "start": 23.1652,
      "duration": 0.1162,
      "velocity": 97,
      "chip": "ym2612"
    },
    {
      "channel": 1,
      "note": 62,
      "start": 23.1661,
      "duration": 0.1155,
      "velocity": 97,
      "chip": "ym2612"
    },
    {
      "channel": 2,
      "note": 42,
      "start": 23.1668,
      "duration": 0.115,
      "velocity": 127,
      "chip": "ym2612"
    },
    {
      "channel": 3,
      "note": 83,
      "start": 23.1675,
      "duration": 0.1144,
      "velocity": 87,
      "chip": "ym2612"
    },
    {
      "channel": 3,
      "note": 85,
      "start": 23.2998,
      "duration": 0.1151,
      "velocity": 87,
      "chip": "ym2612"
    },
    {
      "channel": 0,
      "note": 69,
      "start": 23.4329,
      "duration": 0.1161,
      "velocity": 97,
      "chip": "ym2612"
    },
    {
      "channel": 1,
      "note": 62,
      "start": 23.4334,
      "duration": 0.1157,
      "velocity": 97,
      "chip": "ym2612"
    },
    {
      "channel": 2,
      "note": 68,
      "start": 23.4374,
      "duration": 0.112,
      "velocity": 120,
      "chip": "ym2612"
    },
    {
      "channel": 3,
      "note": 83,
      "start": 23.4381,
      "duration": 0.1115,
      "velocity": 87,
      "chip": "ym2612"
    },
    {
      "channel": 0,
      "note": 69,
      "start": 23.5817,
      "duration": 0.2173,
      "velocity": 97,
      "chip": "ym2612"
    },
    {
      "channel": 1,
      "note": 62,
      "start": 23.5823,
      "duration": 0.2168,
      "velocity": 97,
      "chip": "ym2612"
    },
    {
      "channel": 2,
      "note": 68,
      "start": 23.5829,
      "duration": 0.0996,
      "velocity": 120,
      "chip": "ym2612"
    },
    {
      "channel": 3,
      "note": 81,
      "start": 23.5836,
      "duration": 0.099,
      "velocity": 87,
      "chip": "ym2612"
    },
    {
      "channel": 2,
      "note": 49,
      "start": 23.7185,
      "duration": 0.113,
      "velocity": 127,
      "chip": "ym2612"
    },
    {
      "channel": 3,
      "note": 80,
      "start": 23.7193,
      "duration": 0.0124,
      "velocity": 87,
      "chip": "ym2612"
    },
    {
      "channel": 3,
      "note": 81,
      "start": 23.7488,
      "duration": 0.0174,
      "velocity": 87,
      "chip": "ym2612"
    },
    {
      "channel": 3,
      "note": 80,
      "start": 23.7821,
      "duration": 0.0838,
      "velocity": 87,
      "chip": "ym2612"
    },
    {
      "channel": 0,
      "note": 69,
      "start": 23.8484,
      "duration": 0.1163,
      "velocity": 97,
      "chip": "ym2612"
    },
    {
      "channel": 1,
      "note": 62,
      "start": 23.849,
      "duration": 0.116,
      "velocity": 97,
      "chip": "ym2612"
    },
    {
      "channel": 3,
      "note": 76,
      "start": 23.8821,
      "duration": 0.0842,
      "velocity": 87,
      "chip": "ym2612"
    },
    {
      "channel": 0,
      "note": 69,
      "start": 23.9817,
      "duration": 0.1163,
      "velocity": 97,
      "chip": "ym2612"
    },
    {
      "channel": 1,
      "note": 62,
      "start": 23.9823,
      "duration": 0.116,
      "velocity": 97,
      "chip": "ym2612"
    },
    {
      "channel": 2,
      "note": 68,
      "start": 23.9862,
      "duration": 0.1122,
      "velocity": 120,
      "chip": "ym2612"
    },
    {
      "channel": 3,
      "note": 78,
      "start": 23.9869,
      "duration": 0.2451,
      "velocity": 87,
      "chip": "ym2612"
    },
    {
      "channel": 0,
      "note": 69,
      "start": 24.1159,
      "duration": 0.1154,
      "velocity": 97,
      "chip": "ym2612"
    },
    {
      "channel": 1,
      "note": 62,
      "start": 24.1165,
      "duration": 0.1151,
      "velocity": 97,
      "chip": "ym2612"
    },
    {
      "channel": 2,
      "note": 68,
      "start": 24.1171,
      "duration": 0.1147,
      "velocity": 120,
      "chip": "ym2612"
    },
    {
      "channel": 0,
      "note": 69,
      "start": 24.2493,
      "duration": 0.2321,
      "velocity": 97,
      "chip": "ym2612"
    },
    {
      "channel": 1,
      "note": 62,
      "start": 24.2498,
      "duration": 0.2317,
      "velocity": 97,
      "chip": "ym2612"
    },
    {
      "channel": 2,
      "note": 42,
      "start": 24.2537,
      "duration": 0.1123,
      "velocity": 127,
      "chip": "ym2612"
    },
    {
      "channel": 3,
      "note": 80,
      "start": 24.2545,
      "duration": 0.1117,
      "velocity": 87,
      "chip": "ym2612"
    },
    {
      "channel": 3,
      "note": 81,
      "start": 24.3988,
      "duration": 0.1006,
      "velocity": 87,
      "chip": "ym2612"
    },
    {
      "channel": 0,
      "note": 64,
      "start": 24.532,
      "duration": 0.116,
      "velocity": 97,
      "chip": "ym2612"
    },
    {
      "channel": 1,
      "note": 57,
      "start": 24.5329,
      "duration": 0.1153,
      "velocity": 97,
      "chip": "ym2612"
    },
    {
      "channel": 2,
      "note": 42,
      "start": 24.5337,
      "duration": 0.1148,
      "velocity": 127,
      "chip": "ym2612"
    },
    {
      "channel": 3,
      "note": 88,
      "start": 24.5352,
      "duration": 0.014,
      "velocity": 87,
      "chip": "ym2612"
    },
    {
      "channel": 3,
      "note": 90,
      "start": 24.5657,
      "duration": 0.0169,
      "velocity": 87,
      "chip": "ym2612"
    },
    {
      "channel": 3,
      "note": 88,
      "start": 24.5988,
      "duration": 0.1995,
      "velocity": 87,
      "chip": "ym2612"
    },
    {
      "channel": 0,
      "note": 64,
      "start": 24.665,
      "duration": 0.1163,
      "velocity": 97,
      "chip": "ym2612"
    },
    {
      "channel": 1,
      "note": 57,
      "start": 24.6656,
      "duration": 0.116,
      "velocity": 97,
      "chip": "ym2612"
    },
    {
      "channel": 2,
      "note": 49,
      "start": 24.6663,
      "duration": 0.1155,
      "velocity": 127,
      "chip": "ym2612"
    },
    {
      "channel": 2,
      "note": 68,
      "start": 24.8028,
      "duration": 0.112,
      "velocity": 120,
      "chip": "ym2612"
    },
    {
      "channel": 3,
      "note": 87,
      "start": 24.8036,
      "duration": 0.1115,
      "velocity": 87,
      "chip": "ym2612"
    },
    {
      "channel": 0,
      "note": 64,
      "start": 24.9326,
      "duration": 0.3988,
      "velocity": 97,
      "chip": "ym2612"
    },
    {
      "channel": 1,
      "note": 57,
      "start": 24.9332,
      "duration": 0.3984,
      "velocity": 97,
      "chip": "ym2612"
    },
    {
      "channel": 2,
      "note": 49,
      "start": 24.9371,
      "duration": 0.1111,
      "velocity": 127,
      "chip": "ym2612"
    },
    {
      "channel": 3,
      "note": 84,
      "start": 24.9378,
      "duration": 0.1105,
      "velocity": 87,
      "chip": "ym2612"
    },
    {
      "channel": 2,
      "note": 68,
      "start": 25.0852,
      "duration": 0.0973,
      "velocity": 120,
      "chip": "ym2612"
    },
    {
      "channel": 3,
      "note": 87,
      "start": 25.086,
      "duration": 0.2459,
      "velocity": 87,
      "chip": "ym2612"
    },
    {
      "channel": 0,
      "note": 64,
      "start": 25.3484,
      "duration": 0.1163,
      "velocity": 97,
      "chip": "ym2612"
    },
    {
      "channel": 1,
      "note": 57,
      "start": 25.349,
      "duration": 0.116,
      "velocity": 97,
      "chip": "ym2612"
    },
    {
      "channel": 2,
      "note": 52,
      "start": 25.3529,
      "duration": 0.1122,
      "velocity": 127,
      "chip": "ym2612"
    },
    {
      "channel": 3,
      "note": 88,
      "start": 25.3536,
      "duration": 0.0125,
      "velocity": 87,
      "chip": "ym2612"
    },
    {
      "channel": 3,
      "note": 90,
      "start": 25.3821,
      "duration": 0.0171,
      "velocity": 87,
      "chip": "ym2612"
    },
    {
      "channel": 3,
      "note": 88,
      "start": 25.4154,
      "duration": 0.1995,
      "velocity": 87,
      "chip": "ym2612"
    },
    {
      "channel": 0,
      "note": 64,
      "start": 25.4817,
      "duration": 0.1163,
      "velocity": 97,
      "chip": "ym2612"
    },
    {
      "channel": 1,
      "note": 57,
      "start": 25.4823,
      "duration": 0.116,
      "velocity": 97,
      "chip": "ym2612"
    },
    {
      "channel": 2,
      "note": 49,
      "start": 25.483,
      "duration": 0.1155,
      "velocity": 127,
      "chip": "ym2612"
    },
    {
      "channel": 2,
      "note": 68,
      "start": 25.6195,
      "duration": 0.112,
      "velocity": 120,
      "chip": "ym2612"
    },
    {
      "channel": 3,
      "note": 87,
      "start": 25.6202,
      "duration": 0.1115,
      "velocity": 87,
      "chip": "ym2612"
    },
    {
      "channel": 0,
      "note": 64,
      "start": 25.7493,
      "duration": 0.2321,
      "velocity": 97,
      "chip": "ym2612"
    },
    {
      "channel": 1,
      "note": 57,
      "start": 25.7498,
      "duration": 0.2317,
      "velocity": 97,
      "chip": "ym2612"
    },
    {
      "channel": 2,
      "note": 52,
      "start": 25.7537,
      "duration": 0.1121,
      "velocity": 127,
      "chip": "ym2612"
    },
    {
      "channel": 3,
      "note": 84,
      "start": 25.7545,
      "duration": 0.1115,
      "velocity": 87,
      "chip": "ym2612"
    },
    {
      "channel": 2,
      "note": 49,
      "start": 25.8989,
      "duration": 0.1002,
      "velocity": 127,
      "chip": "ym2612"
    },
    {
      "channel": 3,
      "note": 87,
      "start": 25.8996,
      "duration": 0.249,
      "velocity": 87,
      "chip": "ym2612"
    },
    {
      "channel": 0,
      "note": 64,
      "start": 26.0317,
      "duration": 0.1163,
      "velocity": 97,
      "chip": "ym2612"
    },
    {
      "channel": 1,
      "note": 57,
      "start": 26.0325,
      "duration": 0.1157,
      "velocity": 97,
      "chip": "ym2612"
    },
    {
      "channel": 2,
      "note": 42,
      "start": 26.0332,
      "duration": 0.1152,
      "velocity": 127,
      "chip": "ym2612"
    },
    {
      "channel": 0,
      "note": 64,
      "start": 26.1652,
      "duration": 0.1162,
      "velocity": 97,
      "chip": "ym2612"
    },
    {
      "channel": 1,
      "note": 57,
      "start": 26.1661,
      "duration": 0.1155,
      "velocity": 97,
      "chip": "ym2612"
    },
    {
      "channel": 2,
      "note": 42,
      "start": 26.1666,
      "duration": 0.1151,
      "velocity": 127,
      "chip": "ym2612"
    },
    {
      "channel": 3,
      "note": 88,
      "start": 26.1674,
      "duration": 0.1146,
      "velocity": 87,
      "chip": "ym2612"
    },
    {
      "channel": 0,
      "note": 64,
      "start": 26.2984,
      "duration": 0.1163,
      "velocity": 97,
      "chip": "ym2612"
    },
    {
      "channel": 1,
      "note": 57,
      "start": 26.2992,
      "duration": 0.1157,
      "velocity": 97,
      "chip": "ym2612"
    },
    {
      "channel": 2,
      "note": 49,
      "start": 26.2999,
      "duration": 0.1152,
      "velocity": 127,
      "chip": "ym2612"
    },
    {
      "channel": 3,
      "note": 90,
      "start": 26.3007,
      "duration": 0.1146,
      "velocity": 87,
      "chip": "ym2612"
    },
    {
      "channel": 2,
      "note": 68,
      "start": 26.4363,
      "duration": 0.1119,
      "velocity": 120,
      "chip": "ym2612"
    },
    {
      "channel": 3,
      "note": 91,
      "start": 26.4371,
      "duration": 0.1113,
      "velocity": 87,
      "chip": "ym2612"
    },
    {
      "channel": 0,
      "note": 64,
      "start": 26.5662,
      "duration": 0.3985,
      "velocity": 97,
      "chip": "ym2612"
    },
    {
      "channel": 1,
      "note": 57,
      "start": 26.5668,
      "duration": 0.3982,
      "velocity": 97,
      "chip": "ym2612"
    },
    {
      "channel": 2,
      "note": 49,
      "start": 26.5706,
      "duration": 0.1118,
      "velocity": 127,
      "chip": "ym2612"
    },
    {
      "channel": 3,
      "note": 90,
      "start": 26.5714,
      "duration": 0.1112,
      "velocity": 87,
      "chip": "ym2612"
    },
    {
      "channel": 2,
      "note": 68,
      "start": 26.7185,
      "duration": 0.0973,
      "velocity": 120,
      "chip": "ym2612"
    },
    {
      "channel": 3,
      "note": 91,
      "start": 26.7193,
      "duration": 0.0967,
      "velocity": 87,
      "chip": "ym2612"
    },
    {
      "channel": 2,
      "note": 52,
      "start": 26.8519,
      "duration": 0.1132,
      "velocity": 127,
      "chip": "ym2612"
    },
    {
      "channel": 3,
      "note": 90,
      "start": 26.8526,
      "duration": 0.1129,
      "velocity": 87,
      "chip": "ym2612"
    },
    {
      "channel": 0,
      "note": 64,
      "start": 26.9817,
      "duration": 0.1163,
      "velocity": 97,
      "chip": "ym2612"
    },
    {
      "channel": 1,
      "note": 57,
      "start": 26.9823,
      "duration": 0.116,
      "velocity": 97,
      "chip": "ym2612"
    },
    {
      "channel": 2,
      "note": 52,
      "start": 26.9829,
      "duration": 0.1156,
      "velocity": 127,
      "chip": "ym2612"
    },
    {
      "channel": 3,
      "note": 88,
      "start": 26.9836,
      "duration": 0.1153,
      "velocity": 87,
      "chip": "ym2612"
    },
    {
      "channel": 0,
      "note": 64,
      "start": 27.115,
      "duration": 0.1163,
      "velocity": 97,
      "chip": "ym2612"
    },
    {
      "channel": 1,
      "note": 57,
      "start": 27.1156,
      "duration": 0.116,
      "velocity": 97,
      "chip": "ym2612"
    },
    {
      "channel": 2,
      "note": 49,
      "start": 27.1163,
      "duration": 0.1155,
      "velocity": 127,
      "chip": "ym2612"
    },
    {
      "channel": 3,
      "note": 87,
      "start": 27.1171,
      "duration": 0.1149,
      "velocity": 87,
      "chip": "ym2612"
    },
    {
      "channel": 2,
      "note": 68,
      "start": 27.2527,
      "duration": 0.1122,
      "velocity": 120,
      "chip": "ym2612"
    },
    {
      "channel": 3,
      "note": 84,
      "start": 27.2535,
      "duration": 0.1116,
      "velocity": 87,
      "chip": "ym2612"
    },
    {
      "channel": 0,
      "note": 64,
      "start": 27.3826,
      "duration": 0.2321,
      "velocity": 97,
      "chip": "ym2612"
    },
    {
      "channel": 1,
      "note": 57,
      "start": 27.3832,
      "duration": 0.2317,
      "velocity": 97,
      "chip": "ym2612"
    },
    {
      "channel": 2,
      "note": 52,
      "start": 27.3871,
      "duration": 0.1123,
      "velocity": 127,
      "chip": "ym2612"
    },
    {
      "channel": 3,
      "note": 83,
      "start": 27.3878,
      "duration": 0.1117,
      "velocity": 87,
      "chip": "ym2612"
    },
    {
      "channel": 2,
      "note": 49,
      "start": 27.532,
      "duration": 0.1007,
      "velocity": 127,
      "chip": "ym2612"
    },
    {
      "channel": 3,
      "note": 84,
      "start": 27.5327,
      "duration": 0.2493,
      "velocity": 87,
      "chip": "ym2612"
    },
    {
      "channel": 0,
      "note": 64,
      "start": 27.665,
      "duration": 0.1163,
      "velocity": 97,
      "chip": "ym2612"
    },
    {
      "channel": 1,
      "note": 57,
      "start": 27.6656,
      "duration": 0.116,
      "velocity": 97,
      "chip": "ym2612"
    },
    {
      "channel": 2,
      "note": 42,
      "start": 27.6663,
      "duration": 0.1155,
      "velocity": 127,
      "chip": "ym2612"
    },
    {
      "channel": 0,
      "note": 64,
      "start": 27.7984,
      "duration": 0.1163,
      "velocity": 97,
      "chip": "ym2612"
    },
    {
      "channel": 1,
      "note": 57,
      "start": 27.7991,
      "duration": 0.1158,
      "velocity": 97,
      "chip": "ym2612"
    },
    {
      "channel": 2,
      "note": 42,
      "start": 27.7998,
      "duration": 0.1153,
      "velocity": 127,
      "chip": "ym2612"
    },
    {
      "channel": 3,
      "note": 88,
      "start": 27.8007,
      "duration": 0.0152,
      "velocity": 87,
      "chip": "ym2612"
    },
    {
      "channel": 3,
      "note": 90,
      "start": 27.8323,
      "duration": 0.0169,
      "velocity": 87,
      "chip": "ym2612"
    },
    {
      "channel": 3,
      "note": 88,
      "start": 27.8654,
      "duration": 0.1995,
      "velocity": 87,
      "chip": "ym2612"
    },
    {
      "channel": 0,
      "note": 64,
      "start": 27.9326,
      "duration": 0.1154,
      "velocity": 97,
      "chip": "ym2612"
    },
    {
      "channel": 1,
      "note": 57,
      "start": 27.9332,
      "duration": 0.1151,
      "velocity": 97,
      "chip": "ym2612"
    },
    {
      "channel": 2,
      "note": 49,
      "start": 27.9339,
      "duration": 0.1146,
      "velocity": 127,
      "chip": "ym2612"
    },
    {
      "channel": 2,
      "note": 68,
      "start": 28.0695,
      "duration": 0.112,
      "velocity": 120,
      "chip": "ym2612"
    },
    {
      "channel": 3,
      "note": 87,
      "start": 28.0702,
      "duration": 0.1115,
      "velocity": 87,
      "chip": "ym2612"
    },
    {
      "channel": 0,
      "note": 64,
      "start": 28.215,
      "duration": 0.383,
      "velocity": 97,
      "chip": "ym2612"
    },
    {
      "channel": 1,
      "note": 57,
      "start": 28.2156,
      "duration": 0.3826,
      "velocity": 97,
      "chip": "ym2612"
    },
    {
      "channel": 2,
      "note": 49,
      "start": 28.2196,
      "duration": 0.0962,
      "velocity": 127,
      "chip": "ym2612"
    },
    {
      "channel": 3,
      "note": 84,
      "start": 28.2202,
      "duration": 0.0957,
      "velocity": 87,
      "chip": "ym2612"
    },
    {
      "channel": 2,
      "note": 68,
      "start": 28.3519,
      "duration": 0.113,
      "velocity": 120,
      "chip": "ym2612"
    },
    {
      "channel": 3,
      "note": 87,
      "start": 28.3526,
      "duration": 0.2459,
      "velocity": 87,
      "chip": "ym2612"
    },
    {
      "channel": 0,
      "note": 64,
      "start": 28.615,
      "duration": 0.1163,
      "velocity": 97,
      "chip": "ym2612"
    },
    {
      "channel": 1,
      "note": 57,
      "start": 28.6156,
      "duration": 0.116,
      "velocity": 97,
      "chip": "ym2612"
    },
    {
      "channel": 2,
      "note": 52,
      "start": 28.6196,
      "duration": 0.1122,
      "velocity": 127,
      "chip": "ym2612"
    },
    {
      "channel": 3,
      "note": 88,
      "start": 28.6202,
      "duration": 0.0125,
      "velocity": 87,
      "chip": "ym2612"
    },
    {
      "channel": 3,
      "note": 90,
      "start": 28.6488,
      "duration": 0.0171,
      "velocity": 87,
      "chip": "ym2612"
    },
    {
      "channel": 3,
      "note": 88,
      "start": 28.6821,
      "duration": 0.1995,
      "velocity": 87,
      "chip": "ym2612"
    },
    {
      "channel": 0,
      "note": 64,
      "start": 28.7493,
      "duration": 0.1154,
      "velocity": 97,
      "chip": "ym2612"
    },
    {
      "channel": 1,
      "note": 57,
      "start": 28.7498,
      "duration": 0.1151,
      "velocity": 97,
      "chip": "ym2612"
    },
    {
      "channel": 2,
      "note": 49,
      "start": 28.7505,
      "duration": 0.1146,
      "velocity": 127,
      "chip": "ym2612"
    },
    {
      "channel": 2,
      "note": 68,
      "start": 28.8862,
      "duration": 0.1129,
      "velocity": 120,
      "chip": "ym2612"
    },
    {
      "channel": 3,
      "note": 87,
      "start": 28.8869,
      "duration": 0.1124,
      "velocity": 87,
      "chip": "ym2612"
    },
    {
      "channel": 0,
      "note": 64,
      "start": 29.0317,
      "duration": 0.2173,
      "velocity": 97,
      "chip": "ym2612"
    },
    {
      "channel": 1,
      "note": 57,
      "start": 29.0325,
      "duration": 0.2166,
      "velocity": 97,
      "chip": "ym2612"
    },
    {
      "channel": 2,
      "note": 52,
      "start": 29.0365,
      "duration": 0.096,
      "velocity": 127,
      "chip": "ym2612"
    },
    {
      "channel": 3,
      "note": 84,
      "start": 29.0372,
      "duration": 0.0955,
      "velocity": 87,
      "chip": "ym2612"
    },
    {
      "channel": 2,
      "note": 49,
      "start": 29.1656,
      "duration": 0.116,
      "velocity": 127,
      "chip": "ym2612"
    },
    {
      "channel": 3,
      "note": 87,
      "start": 29.1663,
      "duration": 0.249,
      "velocity": 87,
      "chip": "ym2612"
    },
    {
      "channel": 0,
      "note": 64,
      "start": 29.2984,
      "duration": 0.1163,
      "velocity": 97,
      "chip": "ym2612"
    },
    {
      "channel": 1,
      "note": 57,
      "start": 29.2992,
      "duration": 0.1157,
      "velocity": 97,
      "chip": "ym2612"
    },
    {
      "channel": 2,
      "note": 42,
      "start": 29.2999,
      "duration": 0.1152,
      "velocity": 127,
      "chip": "ym2612"
    },
    {
      "channel": 0,
      "note": 64,
      "start": 29.4318,
      "duration": 0.1163,
      "velocity": 97,
      "chip": "ym2612"
    },
    {
      "channel": 1,
      "note": 57,
      "start": 29.4327,
      "duration": 0.1155,
      "velocity": 97,
      "chip": "ym2612"
    },
    {
      "channel": 2,
      "note": 42,
      "start": 29.4333,
      "duration": 0.1151,
      "velocity": 127,
      "chip": "ym2612"
    },
    {
      "channel": 3,
      "note": 88,
      "start": 29.4341,
      "duration": 0.1145,
      "velocity": 87,
      "chip": "ym2612"
    },
    {
      "channel": 0,
      "note": 64,
      "start": 29.5662,
      "duration": 0.1152,
      "velocity": 97,
      "chip": "ym2612"
    },
    {
      "channel": 1,
      "note": 57,
      "start": 29.5668,
      "duration": 0.1148,
      "velocity": 97,
      "chip": "ym2612"
    },
    {
      "channel": 2,
      "note": 49,
      "start": 29.5675,
      "duration": 0.1143,
      "velocity": 127,
      "chip": "ym2612"
    },
    {
      "channel": 3,
      "note": 90,
      "start": 29.5682,
      "duration": 0.1137,
      "velocity": 87,
      "chip": "ym2612"
    },
    {
      "channel": 2,
      "note": 68,
      "start": 29.7029,
      "duration": 0.1128,
      "velocity": 120,
      "chip": "ym2612"
    },
    {
      "channel": 3,
      "note": 91,
      "start": 29.7037,
      "duration": 0.1122,
      "velocity": 87,
      "chip": "ym2612"
    },
    {
      "channel": 0,
      "note": 64,
      "start": 29.8484,
      "duration": 0.383,
      "velocity": 97,
      "chip": "ym2612"
    },
    {
      "channel": 1,
      "note": 57,
      "start": 29.849,
      "duration": 0.3826,
      "velocity": 97,
      "chip": "ym2612"
    },
    {
      "channel": 2,
      "note": 49,
      "start": 29.8529,
      "duration": 0.0962,
      "velocity": 127,
      "chip": "ym2612"
    },
    {
      "channel": 3,
      "note": 90,
      "start": 29.8536,
      "duration": 0.0957,
      "velocity": 87,
      "chip": "ym2612"
    },
    {
      "channel": 2,
      "note": 68,
      "start": 29.9852,
      "duration": 0.113,
      "velocity": 120,
      "chip": "ym2612"
    },
    {
      "channel": 3,
      "note": 91,
      "start": 29.986,
      "duration": 0.1124,
      "velocity": 87,
      "chip": "ym2612"
    },
    {
      "channel": 2,
      "note": 52,
      "start": 30.1185,
      "duration": 0.1132,
      "velocity": 127,
      "chip": "ym2612"
    },
    {
      "channel": 3,
      "note": 90,
      "start": 30.1193,
      "duration": 0.113,
      "velocity": 87,
      "chip": "ym2612"
    },
    {
      "channel": 0,
      "note": 64,
      "start": 30.2484,
      "duration": 0.1163,
      "velocity": 97,
      "chip": "ym2612"
    },
    {
      "channel": 1,
      "note": 57,
      "start": 30.249,
      "duration": 0.116,
      "velocity": 97,
      "chip": "ym2612"
    },
    {
      "channel": 2,
      "note": 52,
      "start": 30.2495,
      "duration": 0.1156,
      "velocity": 127,
      "chip": "ym2612"
    },
    {
      "channel": 3,
      "note": 88,
      "start": 30.2503,
      "duration": 0.1151,
      "velocity": 87,
      "chip": "ym2612"
    },
    {
      "channel": 0,
      "note": 64,
      "start": 30.3826,
      "duration": 0.1154,
      "velocity": 97,
      "chip": "ym2612"
    },
    {
      "channel": 1,
      "note": 57,
      "start": 30.3832,
      "duration": 0.1151,
      "velocity": 97,
      "chip": "ym2612"
    },
    {
      "channel": 2,
      "note": 49,
      "start": 30.3839,
      "duration": 0.1146,
      "velocity": 127,
      "chip": "ym2612"
    },
    {
      "channel": 3,
      "note": 87,
      "start": 30.3846,
      "duration": 0.1141,
      "velocity": 87,
      "chip": "ym2612"
    },
    {
      "channel": 2,
      "note": 68,
      "start": 30.5352,
      "duration": 0.0974,
      "velocity": 120,
      "chip": "ym2612"
    },
    {
      "channel": 3,
      "note": 84,
      "start": 30.536,
      "duration": 0.0969,
      "velocity": 87,
      "chip": "ym2612"
    },
    {
      "channel": 0,
      "note": 64,
      "start": 30.665,
      "duration": 0.2173,
      "velocity": 97,
      "chip": "ym2612"
    },
    {
      "channel": 1,
      "note": 57,
      "start": 30.6656,
      "duration": 0.2168,
      "velocity": 97,
      "chip": "ym2612"
    },
    {
      "channel": 2,
      "note": 52,
      "start": 30.6696,
      "duration": 0.0964,
      "velocity": 127,
      "chip": "ym2612"
    },
    {
      "channel": 3,
      "note": 83,
      "start": 30.6702,
      "duration": 0.0959,
      "velocity": 87,
      "chip": "ym2612"
    },
    {
      "channel": 2,
      "note": 49,
      "start": 30.7986,
      "duration": 0.1162,
      "velocity": 127,
      "chip": "ym2612"
    },
    {
      "channel": 3,
      "note": 84,
      "start": 30.7994,
      "duration": 0.2492,
      "velocity": 87,
      "chip": "ym2612"
    },
    {
      "channel": 0,
      "note": 64,
      "start": 30.9317,
      "duration": 0.1163,
      "velocity": 97,
      "chip": "ym2612"
    },
    {
      "channel": 1,
      "note": 57,
      "start": 30.9323,
      "duration": 0.116,
      "velocity": 97,
      "chip": "ym2612"
    },
    {
      "channel": 2,
      "note": 42,
      "start": 30.933,
      "duration": 0.1155,
      "velocity": 127,
      "chip": "ym2612"
    },
    {
      "channel": 0,
      "note": 71,
      "start": 31.0663,
      "duration": 0.1151,
      "velocity": 97,
      "chip": "ym2612"
    },
    {
      "channel": 1,
      "note": 64,
      "start": 31.0671,
      "duration": 0.1144,
      "velocity": 97,
      "chip": "ym2612"
    },
    {
      "channel": 2,
      "note": 42,
      "start": 31.0678,
      "duration": 0.1139,
      "velocity": 127,
      "chip": "ym2612"
    },
    {
      "channel": 3,
      "note": 83,
      "start": 31.0688,
      "duration": 0.0295,
      "velocity": 87,
      "chip": "ym2612"
    },
    {
      "channel": 3,
      "note": 85,
      "start": 31.1,
      "duration": 0.0316,
      "velocity": 87,
      "chip": "ym2612"
    },
    {
      "channel": 3,
      "note": 83,
      "start": 31.1331,
      "duration": 0.1985,
      "velocity": 87,
      "chip": "ym2612"
    },
    {
      "channel": 0,
      "note": 71,
      "start": 31.1993,
      "duration": 0.1163,
      "velocity": 97,
      "chip": "ym2612"
    },
    {
      "channel": 1,
      "note": 64,
      "start": 31.1998,
      "duration": 0.116,
      "velocity": 97,
      "chip": "ym2612"
    },
    {
      "channel": 2,
      "note": 49,
      "start": 31.2005,
      "duration": 0.1154,
      "velocity": 127,
      "chip": "ym2612"
    },
    {
      "channel": 2,
      "note": 68,
      "start": 31.3519,
      "duration": 0.0972,
      "velocity": 120,
      "chip": "ym2612"
    },
    {
      "channel": 3,
      "note": 82,
      "start": 31.3526,
      "duration": 0.0966,
      "velocity": 87,
      "chip": "ym2612"
    },
    {
      "channel": 0,
      "note": 71,
      "start": 31.4817,
      "duration": 0.383,
      "velocity": 97,
      "chip": "ym2612"
    },
    {
      "channel": 1,
      "note": 64,
      "start": 31.4823,
      "duration": 0.3826,
      "velocity": 97,
      "chip": "ym2612"
    },
    {
      "channel": 2,
      "note": 49,
      "start": 31.4862,
      "duration": 0.112,
      "velocity": 127,
      "chip": "ym2612"
    },
    {
      "channel": 3,
      "note": 79,
      "start": 31.487,
      "duration": 0.1114,
      "velocity": 87,
      "chip": "ym2612"
    },
    {
      "channel": 2,
      "note": 68,
      "start": 31.6185,
      "duration": 0.113,
      "velocity": 120,
      "chip": "ym2612"
    },
    {
      "channel": 3,
      "note": 82,
      "start": 31.6193,
      "duration": 0.2459,
      "velocity": 87,
      "chip": "ym2612"
    },
    {
      "channel": 0,
      "note": 71,
      "start": 31.8826,
      "duration": 0.1154,
      "velocity": 97,
      "chip": "ym2612"
    },
    {
      "channel": 1,
      "note": 64,
      "start": 31.8832,
      "duration": 0.1151,
      "velocity": 97,
      "chip": "ym2612"
    },
    {
      "channel": 2,
      "note": 52,
      "start": 31.8871,
      "duration": 0.1113,
      "velocity": 127,
      "chip": "ym2612"
    },
    {
      "channel": 3,
      "note": 83,
      "start": 31.8878,
      "duration": 0.0272,
      "velocity": 87,
      "chip": "ym2612"
    },
    {
      "channel": 3,
      "note": 85,
      "start": 31.9164,
      "duration": 0.0319,
      "velocity": 87,
      "chip": "ym2612"
    },
    {
      "channel": 3,
      "note": 83,
      "start": 31.9498,
      "duration": 0.1985,
      "velocity": 87,
      "chip": "ym2612"
    },
    {
      "channel": 0,
      "note": 71,
      "start": 32.0159,
      "duration": 0.1163,
      "velocity": 97,
      "chip": "ym2612"
    },
    {
      "channel": 1,
      "note": 64,
      "start": 32.0165,
      "duration": 0.116,
      "velocity": 97,
      "chip": "ym2612"
    },
    {
      "channel": 2,
      "note": 49,
      "start": 32.0172,
      "duration": 0.1154,
      "velocity": 127,
      "chip": "ym2612"
    },
    {
      "channel": 2,
      "note": 68,
      "start": 32.1688,
      "duration": 0.0969,
      "velocity": 120,
      "chip": "ym2612"
    },
    {
      "channel": 3,
      "note": 82,
      "start": 32.1695,
      "duration": 0.0964,
      "velocity": 87,
      "chip": "ym2612"
    },
    {
      "channel": 0,
      "note": 71,
      "start": 32.2984,
      "duration": 0.2173,
      "velocity": 97,
      "chip": "ym2612"
    },
    {
      "channel": 1,
      "note": 64,
      "start": 32.2992,
      "duration": 0.2166,
      "velocity": 97,
      "chip": "ym2612"
    },
    {
      "channel": 2,
      "note": 52,
      "start": 32.3032,
      "duration": 0.1118,
      "velocity": 127,
      "chip": "ym2612"
    },
    {
      "channel": 3,
      "note": 79,
      "start": 32.3039,
      "duration": 0.1112,
      "velocity": 87,
      "chip": "ym2612"
    },
    {
      "channel": 2,
      "note": 49,
      "start": 32.4322,
      "duration": 0.116,
      "velocity": 127,
      "chip": "ym2612"
    },
    {
      "channel": 3,
      "note": 82,
      "start": 32.433,
      "duration": 0.2489,
      "velocity": 87,
      "chip": "ym2612"
    },
    {
      "channel": 0,
      "note": 71,
      "start": 32.565,
      "duration": 0.1163,
      "velocity": 97,
      "chip": "ym2612"
    },
    {
      "channel": 1,
      "note": 64,
      "start": 32.5659,
      "duration": 0.1157,
      "velocity": 97,
      "chip": "ym2612"
    },
    {
      "channel": 2,
      "note": 42,
      "start": 32.5666,
      "duration": 0.1152,
      "velocity": 127,
      "chip": "ym2612"
    },
    {
      "channel": 0,
      "note": 71,
      "start": 32.6996,
      "duration": 0.1151,
      "velocity": 97,
      "chip": "ym2612"
    },
    {
      "channel": 1,
      "note": 64,
      "start": 32.7003,
      "duration": 0.1146,
      "velocity": 97,
      "chip": "ym2612"
    },
    {
      "channel": 2,
      "note": 42,
      "start": 32.7009,
      "duration": 0.1142,
      "velocity": 127,
      "chip": "ym2612"
    },
    {
      "channel": 3,
      "note": 83,
      "start": 32.7016,
      "duration": 0.1136,
      "velocity": 87,
      "chip": "ym2612"
    },
    {
      "channel": 0,
      "note": 71,
      "start": 32.8329,
      "duration": 0.1161,
      "velocity": 97,
      "chip": "ym2612"
    },
    {
      "channel": 1,
      "note": 64,
      "start": 32.8334,
      "duration": 0.1157,
      "velocity": 97,
      "chip": "ym2612"
    },
    {
      "channel": 2,
      "note": 49,
      "start": 32.8341,
      "duration": 0.1152,
      "velocity": 127,
      "chip": "ym2612"
    },
    {
      "channel": 3,
      "note": 85,
      "start": 32.8349,
      "duration": 0.1146,
      "velocity": 87,
      "chip": "ym2612"
    },
    {
      "channel": 2,
      "note": 68,
      "start": 32.9852,
      "duration": 0.0972,
      "velocity": 120,
      "chip": "ym2612"
    },
    {
      "channel": 3,
      "note": 86,
      "start": 32.986,
      "duration": 0.0966,
      "velocity": 87,
      "chip": "ym2612"
    },
    {
      "channel": 0,
      "note": 71,
      "start": 33.115,
      "duration": 0.383,
      "velocity": 97,
      "chip": "ym2612"
    },
    {
      "channel": 1,
      "note": 64,
      "start": 33.1156,
      "duration": 0.3826,
      "velocity": 97,
      "chip": "ym2612"
    },
    {
      "channel": 2,
      "note": 49,
      "start": 33.1196,
      "duration": 0.112,
      "velocity": 127,
      "chip": "ym2612"
    },
    {
      "channel": 3,
      "note": 88,
      "start": 33.1203,
      "duration": 0.1114,
      "velocity": 87,
      "chip": "ym2612"
    },
    {
      "channel": 2,
      "note": 68,
      "start": 33.2519,
      "duration": 0.113,
      "velocity": 120,
      "chip": "ym2612"
    },
    {
      "channel": 3,
      "note": 86,
      "start": 33.2526,
      "duration": 0.1124,
      "velocity": 87,
      "chip": "ym2612"
    },
    {
      "channel": 2,
      "note": 52,
      "start": 33.3852,
      "duration": 0.1132,
      "velocity": 127,
      "chip": "ym2612"
    },
    {
      "channel": 3,
      "note": 85,
      "start": 33.3859,
      "duration": 0.1128,
      "velocity": 87,
      "chip": "ym2612"
    },
    {
      "channel": 0,
      "note": 71,
      "start": 33.5159,
      "duration": 0.1154,
      "velocity": 97,
      "chip": "ym2612"
    },
    {
      "channel": 1,
      "note": 64,
      "start": 33.5165,
      "duration": 0.1151,
      "velocity": 97,
      "chip": "ym2612"
    },
    {
      "channel": 2,
      "note": 52,
      "start": 33.5171,
      "duration": 0.1147,
      "velocity": 127,
      "chip": "ym2612"
    },
    {
      "channel": 3,
      "note": 83,
      "start": 33.5178,
      "duration": 0.1142,
      "velocity": 87,
      "chip": "ym2612"
    },
    {
      "channel": 0,
      "note": 71,
      "start": 33.665,
      "duration": 0.1008,
      "velocity": 97,
      "chip": "ym2612"
    },
    {
      "channel": 1,
      "note": 64,
      "start": 33.6656,
      "duration": 0.1004,
      "velocity": 97,
      "chip": "ym2612"
    },
    {
      "channel": 2,
      "note": 49,
      "start": 33.6663,
      "duration": 0.1,
      "velocity": 127,
      "chip": "ym2612"
    },
    {
      "channel": 3,
      "note": 82,
      "start": 33.6671,
      "duration": 0.0994,
      "velocity": 87,
      "chip": "ym2612"
    },
    {
      "channel": 2,
      "note": 68,
      "start": 33.8019,
      "duration": 0.0974,
      "velocity": 120,
      "chip": "ym2612"
    },
    {
      "channel": 3,
      "note": 79,
      "start": 33.8026,
      "duration": 0.0969,
      "velocity": 87,
      "chip": "ym2612"
    },
    {
      "channel": 0,
      "note": 71,
      "start": 33.9317,
      "duration": 0.2173,
      "velocity": 97,
      "chip": "ym2612"
    },
    {
      "channel": 1,
      "note": 64,
      "start": 33.9323,
      "duration": 0.2168,
      "velocity": 97,
      "chip": "ym2612"
    },
    {
      "channel": 2,
      "note": 52,
      "start": 33.9362,
      "duration": 0.112,
      "velocity": 127,
      "chip": "ym2612"
    },
    {
      "channel": 3,
      "note": 78,
      "start": 33.9369,
      "duration": 0.1115,
      "velocity": 87,
      "chip": "ym2612"
    },
    {
      "channel": 2,
      "note": 49,
      "start": 34.0653,
      "duration": 0.1162,
      "velocity": 127,
      "chip": "ym2612"
    },
    {
      "channel": 3,
      "note": 79,
      "start": 34.0661,
      "duration": 0.2492,
      "velocity": 87,
      "chip": "ym2612"
    },
    {
      "channel": 0,
      "note": 71,
      "start": 34.1993,
      "duration": 0.1154,
      "velocity": 97,
      "chip": "ym2612"
    },
    {
      "channel": 1,
      "note": 64,
      "start": 34.1998,
      "duration": 0.1151,
      "velocity": 97,
      "chip": "ym2612"
    },
    {
      "channel": 2,
      "note": 42,
      "start": 34.2005,
      "duration": 0.1146,
      "velocity": 127,
      "chip": "ym2612"
    },
    {
      "channel": 0,
      "note": 71,
      "start": 34.3327,
      "duration": 0.1163,
      "velocity": 97,
      "chip": "ym2612"
    },
    {
      "channel": 1,
      "note": 64,
      "start": 34.3334,
      "duration": 0.1158,
      "velocity": 97,
      "chip": "ym2612"
    },
    {
      "channel": 2,
      "note": 42,
      "start": 34.334,
      "duration": 0.1153,
      "velocity": 127,
      "chip": "ym2612"
    },
    {
      "channel": 3,
      "note": 83,
      "start": 34.3349,
      "duration": 0.0301,
      "velocity": 87,
      "chip": "ym2612"
    },
    {
      "channel": 3,
      "note": 85,
      "start": 34.3667,
      "duration": 0.0316,
      "velocity": 87,
      "chip": "ym2612"
    },
    {
      "channel": 3,
      "note": 83,
      "start": 34.3998,
      "duration": 0.1985,
      "velocity": 87,
      "chip": "ym2612"
    },
    {
      "channel": 0,
      "note": 71,
      "start": 34.4817,
      "duration": 0.1006,
      "velocity": 97,
      "chip": "ym2612"
    },
    {
      "channel": 1,
      "note": 64,
      "start": 34.4823,
      "duration": 0.1002,
      "velocity": 97,
      "chip": "ym2612"
    },
    {
      "channel": 2,
      "note": 49,
      "start": 34.483,
      "duration": 0.0997,
      "velocity": 127,
      "chip": "ym2612"
    },
    {
      "channel": 2,
      "note": 68,
      "start": 34.6185,
      "duration": 0.113,
      "velocity": 120,
      "chip": "ym2612"
    },
    {
      "channel": 3,
      "note": 82,
      "start": 34.6193,
      "duration": 0.1124,
      "velocity": 87,
      "chip": "ym2612"
    },
    {
      "channel": 0,
      "note": 71,
      "start": 34.7484,
      "duration": 0.383,
      "velocity": 97,
      "chip": "ym2612"
    },
    {
      "channel": 1,
      "note": 64,
      "start": 34.749,
      "duration": 0.3826,
      "velocity": 97,
      "chip": "ym2612"
    },
    {
      "channel": 2,
      "note": 49,
      "start": 34.7529,
      "duration": 0.112,
      "velocity": 127,
      "chip": "ym2612"
    },
    {
      "channel": 3,
      "note": 79,
      "start": 34.7536,
      "duration": 0.1115,
      "velocity": 87,
      "chip": "ym2612"
    },
    {
      "channel": 2,
      "note": 68,
      "start": 34.8852,
      "duration": 0.113,
      "velocity": 120,
      "chip": "ym2612"
    },
    {
      "channel": 3,
      "note": 82,
      "start": 34.8859,
      "duration": 0.2459,
      "velocity": 87,
      "chip": "ym2612"
    },
    {
      "channel": 0,
      "note": 71,
      "start": 35.1493,
      "duration": 0.1163,
      "velocity": 97,
      "chip": "ym2612"
    },
    {
      "channel": 1,
      "note": 64,
      "start": 35.1498,
      "duration": 0.116,
      "velocity": 97,
      "chip": "ym2612"
    },
    {
      "channel": 2,
      "note": 52,
      "start": 35.1538,
      "duration": 0.1122,
      "velocity": 127,
      "chip": "ym2612"
    },
    {
      "channel": 3,
      "note": 83,
      "start": 35.1545,
      "duration": 0.0272,
      "velocity": 87,
      "chip": "ym2612"
    },
    {
      "channel": 3,
      "note": 85,
      "start": 35.1831,
      "duration": 0.0319,
      "velocity": 87,
      "chip": "ym2612"
    },
    {
      "channel": 3,
      "note": 83,
      "start": 35.2323,
      "duration": 0.1826,
      "velocity": 87,
      "chip": "ym2612"
    },
    {
      "channel": 0,
      "note": 71,
      "start": 35.2984,
      "duration": 0.1006,
      "velocity": 97,
      "chip": "ym2612"
    },
    {
      "channel": 1,
      "note": 64,
      "start": 35.2992,
      "duration": 0.0999,
      "velocity": 97,
      "chip": "ym2612"
    },
    {
      "channel": 2,
      "note": 49,
      "start": 35.2999,
      "duration": 0.0994,
      "velocity": 127,
      "chip": "ym2612"
    },
    {
      "channel": 2,
      "note": 68,
      "start": 35.4355,
      "duration": 0.1127,
      "velocity": 120,
      "chip": "ym2612"
    },
    {
      "channel": 3,
      "note": 82,
      "start": 35.4362,
      "duration": 0.1122,
      "velocity": 87,
      "chip": "ym2612"
    },
    {
      "channel": 0,
      "note": 71,
      "start": 35.565,
      "duration": 0.233,
      "velocity": 97,
      "chip": "ym2612"
    },
    {
      "channel": 1,
      "note": 64,
      "start": 35.5659,
      "duration": 0.2324,
      "velocity": 97,
      "chip": "ym2612"
    },
    {
      "channel": 2,
      "note": 52,
      "start": 35.5698,
      "duration": 0.1118,
      "velocity": 127,
      "chip": "ym2612"
    },
    {
      "channel": 3,
      "note": 79,
      "start": 35.5705,
      "duration": 0.1112,
      "velocity": 87,
      "chip": "ym2612"
    },
    {
      "channel": 2,
      "note": 49,
      "start": 35.6989,
      "duration": 0.116,
      "velocity": 127,
      "chip": "ym2612"
    },
    {
      "channel": 3,
      "note": 82,
      "start": 35.6996,
      "duration": 0.2489,
      "velocity": 87,
      "chip": "ym2612"
    },
    {
      "channel": 0,
      "note": 71,
      "start": 35.8329,
      "duration": 0.1152,
      "velocity": 97,
      "chip": "ym2612"
    },
    {
      "channel": 1,
      "note": 64,
      "start": 35.8334,
      "duration": 0.1148,
      "velocity": 97,
      "chip": "ym2612"
    },
    {
      "channel": 2,
      "note": 42,
      "start": 35.8341,
      "duration": 0.1143,
      "velocity": 127,
      "chip": "ym2612"
    },
    {
      "channel": 0,
      "note": 71,
      "start": 35.9663,
      "duration": 0.116,
      "velocity": 97,
      "chip": "ym2612"
    },
    {
      "channel": 1,
      "note": 64,
      "start": 35.967,
      "duration": 0.1155,
      "velocity": 97,
      "chip": "ym2612"
    },
    {
      "channel": 2,
      "note": 42,
      "start": 35.9675,
      "duration": 0.1151,
      "velocity": 127,
      "chip": "ym2612"
    },
    {
      "channel": 3,
      "note": 83,
      "start": 35.9682,
      "duration": 0.1146,
      "velocity": 87,
      "chip": "ym2612"
    },
    {
      "channel": 0,
      "note": 71,
      "start": 36.115,
      "duration": 0.1006,
      "velocity": 97,
      "chip": "ym2612"
    },
    {
      "channel": 1,
      "note": 64,
      "start": 36.1156,
      "duration": 0.1002,
      "velocity": 97,
      "chip": "ym2612"
    },
    {
      "channel": 2,
      "note": 49,
      "start": 36.1163,
      "duration": 0.0997,
      "velocity": 127,
      "chip": "ym2612"
    },
    {
      "channel": 3,
      "note": 85,
      "start": 36.1171,
      "duration": 0.0991,
      "velocity": 87,
      "chip": "ym2612"
    },
    {
      "channel": 2,
      "note": 68,
      "start": 36.2519,
      "duration": 0.113,
      "velocity": 120,
      "chip": "ym2612"
    },
    {
      "channel": 3,
      "note": 86,
      "start": 36.2526,
      "duration": 0.1124,
      "velocity": 87,
      "chip": "ym2612"
    },
    {
      "channel": 0,
      "note": 71,
      "start": 36.3817,
      "duration": 0.383,
      "velocity": 97,
      "chip": "ym2612"
    },
    {
      "channel": 1,
      "note": 64,
      "start": 36.3823,
      "duration": 0.3826,
      "velocity": 97,
      "chip": "ym2612"
    },
    {
      "channel": 2,
      "note": 49,
      "start": 36.3862,
      "duration": 0.112,
      "velocity": 127,
      "chip": "ym2612"
    },
    {
      "channel": 3,
      "note": 88,
      "start": 36.3869,
      "duration": 0.1115,
      "velocity": 87,
      "chip": "ym2612"
    },
    {
      "channel": 2,
      "note": 68,
      "start": 36.5185,
      "duration": 0.113,
      "velocity": 120,
      "chip": "ym2612"
    },
    {
      "channel": 3,
      "note": 86,
      "start": 36.5193,
      "duration": 0.1124,
      "velocity": 87,
      "chip": "ym2612"
    },
    {
      "channel": 2,
      "note": 52,
      "start": 36.6528,
      "duration": 0.1123,
      "velocity": 127,
      "chip": "ym2612"
    },
    {
      "channel": 3,
      "note": 85,
      "start": 36.6535,
      "duration": 0.1119,
      "velocity": 87,
      "chip": "ym2612"
    },
    {
      "channel": 0,
      "note": 71,
      "start": 36.7984,
      "duration": 0.1008,
      "velocity": 97,
      "chip": "ym2612"
    },
    {
      "channel": 1,
      "note": 64,
      "start": 36.799,
      "duration": 0.1004,
      "velocity": 97,
      "chip": "ym2612"
    },
    {
      "channel": 2,
      "note": 52,
      "start": 36.7995,
      "duration": 0.1001,
      "velocity": 127,
      "chip": "ym2612"
    },
    {
      "channel": 3,
      "note": 83,
      "start": 36.8003,
      "duration": 0.0995,
      "velocity": 87,
      "chip": "ym2612"
    },
    {
      "channel": 0,
      "note": 71,
      "start": 36.9317,
      "duration": 0.1008,
      "velocity": 97,
      "chip": "ym2612"
    },
    {
      "channel": 1,
      "note": 64,
      "start": 36.9323,
      "duration": 0.1004,
      "velocity": 97,
      "chip": "ym2612"
    },
    {
      "channel": 2,
      "note": 49,
      "start": 36.933,
      "duration": 0.1,
      "velocity": 127,
      "chip": "ym2612"
    },
    {
      "channel": 3,
      "note": 82,
      "start": 36.9337,
      "duration": 0.0994,
      "velocity": 87,
      "chip": "ym2612"
    },
    {
      "channel": 2,
      "note": 68,
      "start": 37.0685,
      "duration": 0.113,
      "velocity": 120,
      "chip": "ym2612"
    },
    {
      "channel": 3,
      "note": 79,
      "start": 37.0693,
      "duration": 0.1124,
      "velocity": 87,
      "chip": "ym2612"
    },
    {
      "channel": 0,
      "note": 71,
      "start": 37.1984,
      "duration": 0.233,
      "velocity": 97,
      "chip": "ym2612"
    },
    {
      "channel": 1,
      "note": 64,
      "start": 37.199,
      "duration": 0.2326,
      "velocity": 97,
      "chip": "ym2612"
    },
    {
      "channel": 2,
      "note": 52,
      "start": 37.2029,
      "duration": 0.112,
      "velocity": 127,
      "chip": "ym2612"
    },
    {
      "channel": 3,
      "note": 78,
      "start": 37.2036,
      "duration": 0.1115,
      "velocity": 87,
      "chip": "ym2612"
    },
    {
      "channel": 2,
      "note": 49,
      "start": 37.3329,
      "duration": 0.1153,
      "velocity": 127,
      "chip": "ym2612"
    },
    {
      "channel": 3,
      "note": 79,
      "start": 37.3336,
      "duration": 0.2492,
      "velocity": 87,
      "chip": "ym2612"
    },
    {
      "channel": 0,
      "note": 71,
      "start": 37.4659,
      "duration": 0.1163,
      "velocity": 97,
      "chip": "ym2612"
    },
    {
      "channel": 1,
      "note": 64,
      "start": 37.4665,
      "duration": 0.116,
      "velocity": 97,
      "chip": "ym2612"
    },
    {
      "channel": 2,
      "note": 42,
      "start": 37.4672,
      "duration": 0.1154,
      "velocity": 127,
      "chip": "ym2612"
    },
    {
      "channel": 0,
      "note": 61,
      "start": 37.6154,
      "duration": 0.3827,
      "velocity": 97,
      "chip": "ym2612"
    },
    {
      "channel": 1,
      "note": 54,
      "start": 37.6163,
      "duration": 0.382,
      "velocity": 97,
      "chip": "ym2612"
    },
    {
      "channel": 2,
      "note": 42,
      "start": 37.617,
      "duration": 0.0988,
      "velocity": 127,
      "chip": "ym2612"
    },
    {
      "channel": 3,
      "note": 78,
      "start": 37.6185,
      "duration": 1.0307,
      "velocity": 87,
      "chip": "ym2612"
    },
    {
      "channel": 2,
      "note": 68,
      "start": 37.8852,
      "duration": 0.1132,
      "velocity": 120,
      "chip": "ym2612"
    },
    {
      "channel": 0,
      "note": 61,
      "start": 38.015,
      "duration": 0.3839,
      "velocity": 97,
      "chip": "ym2612"
    },
    {
      "channel": 1,
      "note": 54,
      "start": 38.0156,
      "duration": 0.3835,
      "velocity": 97,
      "chip": "ym2612"
    },
    {
      "channel": 2,
      "note": 68,
      "start": 38.0162,
      "duration": 0.1153,
      "velocity": 120,
      "chip": "ym2612"
    },
    {
      "channel": 2,
      "note": 49,
      "start": 38.1528,
      "duration": 0.1121,
      "velocity": 127,
      "chip": "ym2612"
    },
    {
      "channel": 2,
      "note": 68,
      "start": 38.4355,
      "duration": 0.0969,
      "velocity": 120,
      "chip": "ym2612"
    },
    {
      "channel": 0,
      "note": 61,
      "start": 38.565,
      "duration": 0.1163,
      "velocity": 97,
      "chip": "ym2612"
    },
    {
      "channel": 1,
      "note": 54,
      "start": 38.5659,
      "duration": 0.1157,
      "velocity": 97,
      "chip": "ym2612"
    },
    {
      "channel": 2,
      "note": 68,
      "start": 38.5664,
      "duration": 0.1153,
      "velocity": 120,
      "chip": "ym2612"
    },
    {
      "channel": 0,
      "note": 61,
      "start": 38.6984,
      "duration": 0.1163,
      "velocity": 97,
      "chip": "ym2612"
    },
    {
      "channel": 1,
      "note": 54,
      "start": 38.6992,
      "duration": 0.1157,
      "velocity": 97,
      "chip": "ym2612"
    },
    {
      "channel": 2,
      "note": 42,
      "start": 38.7031,
      "duration": 0.112,
      "velocity": 127,
      "chip": "ym2612"
    },
    {
      "channel": 3,
      "note": 79,
      "start": 38.7039,
      "duration": 0.0778,
      "velocity": 87,
      "chip": "ym2612"
    },
    {
      "channel": 3,
      "note": 82,
      "start": 38.7831,
      "duration": 0.0818,
      "velocity": 87,
      "chip": "ym2612"
    },
    {
      "channel": 2,
      "note": 49,
      "start": 38.8322,
      "duration": 0.116,
      "velocity": 127,
      "chip": "ym2612"
    },
    {
      "channel": 3,
      "note": 79,
      "start": 38.8821,
      "duration": 0.0828,
      "velocity": 87,
      "chip": "ym2612"
    },
    {
      "channel": 0,
      "note": 61,
      "start": 38.9664,
      "duration": 0.3826,
      "velocity": 97,
      "chip": "ym2612"
    },
    {
      "channel": 1,
      "note": 54,
      "start": 38.9671,
      "duration": 0.3821,
      "velocity": 97,
      "chip": "ym2612"
    },
    {
      "channel": 2,
      "note": 42,
      "start": 38.9679,
      "duration": 0.1136,
      "velocity": 127,
      "chip": "ym2612"
    },
    {
      "channel": 3,
      "note": 78,
      "start": 38.9687,
      "duration": 1.0463,
      "velocity": 87,
      "chip": "ym2612"
    },
    {
      "channel": 2,
      "note": 68,
      "start": 39.2519,
      "duration": 0.0974,
      "velocity": 120,
      "chip": "ym2612"
    },
    {
      "channel": 0,
      "note": 61,
      "start": 39.3817,
      "duration": 0.383,
      "velocity": 97,
      "chip": "ym2612"
    },
    {
      "channel": 1,
      "note": 54,
      "start": 39.3823,
      "duration": 0.3826,
      "velocity": 97,
      "chip": "ym2612"
    },
    {
      "channel": 2,
      "note": 68,
      "start": 39.3829,
      "duration": 0.1153,
      "velocity": 120,
      "chip": "ym2612"
    },
    {
      "channel": 2,
      "note": 49,
      "start": 39.5185,
      "duration": 0.113,
      "velocity": 127,
      "chip": "ym2612"
    },
    {
      "channel": 2,
      "note": 68,
      "start": 39.7861,
      "duration": 0.1121,
      "velocity": 120,
      "chip": "ym2612"
    },
    {
      "channel": 0,
      "note": 61,
      "start": 39.9317,
      "duration": 0.1008,
      "velocity": 97,
      "chip": "ym2612"
    },
    {
      "channel": 1,
      "note": 54,
      "start": 39.9323,
      "duration": 0.1004,
      "velocity": 97,
      "chip": "ym2612"
    },
    {
      "channel": 2,
      "note": 68,
      "start": 39.9329,
      "duration": 0.1,
      "velocity": 120,
      "chip": "ym2612"
    },
    {
      "channel": 0,
      "note": 61,
      "start": 40.065,
      "duration": 0.1163,
      "velocity": 97,
      "chip": "ym2612"
    },
    {
      "channel": 1,
      "note": 54,
      "start": 40.0656,
      "duration": 0.116,
      "velocity": 97,
      "chip": "ym2612"
    },
    {
      "channel": 2,
      "note": 42,
      "start": 40.0695,
      "duration": 0.1123,
      "velocity": 127,
      "chip": "ym2612"
    },
    {
      "channel": 3,
      "note": 79,
      "start": 40.0702,
      "duration": 0.0623,
      "velocity": 87,
      "chip": "ym2612"
    },
    {
      "channel": 3,
      "note": 82,
      "start": 40.1488,
      "duration": 0.0828,
      "velocity": 87,
      "chip": "ym2612"
    },
    {
      "channel": 2,
      "note": 49,
      "start": 40.1986,
      "duration": 0.1162,
      "velocity": 127,
      "chip": "ym2612"
    },
    {
      "channel": 3,
      "note": 79,
      "start": 40.2488,
      "duration": 0.0672,
      "velocity": 87,
      "chip": "ym2612"
    },
    {
      "channel": 0,
      "note": 61,
      "start": 40.3361,
      "duration": 0.1129,
      "velocity": 97,
      "chip": "ym2612"
    },
    {
      "channel": 1,
      "note": 54,
      "start": 40.3405,
      "duration": 0.1086,
      "velocity": 97,
      "chip": "ym2612"
    },
    {
      "channel": 2,
      "note": 42,
      "start": 40.3449,
      "duration": 0.1044,
      "velocity": 127,
      "chip": "ym2612"
    },
    {
      "channel": 0,
      "note": 61,
      "start": 40.615,
      "duration": 0.112,
      "velocity": 97,
      "chip": "ym2612"
    },
    {
      "channel": 1,
      "note": 54,
      "start": 40.6156,
      "duration": 0.1114,
      "velocity": 97,
      "chip": "ym2612"
    },
    {
      "channel": 2,
      "note": 68,
      "start": 40.6196,
      "duration": 0.1075,
      "velocity": 120,
      "chip": "ym2612"
    }
  ]
}